<svg xmlns="http://www.w3.org/2000/svg" width="512mm" height="512mm" viewBox="0 0 512 512" version="1.1"><polyline points="239.5,2.5,227.5,18.5,223.5,36.5,225.5,52.5,239.5,59.0,241.5,65.0,235.5,73.0,257.5,71.0,255.0,61.0,271.0,54.5,272.5,58.5,283.0,48.5,285.0,52.5,301.0,52.5,301.5,58.0,317.5,55.5,329.5,61.0,345.5,59.0,361.5,59.0,377.5,62.5,394.0,64.5,410.0,70.5" stroke="black" stroke-width="2" fill="none" />
<polyline points="409.0,61.5,393.0,57.5" stroke="black" stroke-width="2" fill="none" />
<polyline points="373.0,68.0,389.0,71.5,405.0,77.0" stroke="black" stroke-width="2" fill="none" />
<polyline points="387.5,100.0,371.5,92.0,355.5,82.0" stroke="black" stroke-width="2" fill="none" />
<polyline points="357.5,80.5,377.5,82.5" stroke="black" stroke-width="2" fill="none" />
<polyline points="386.5,79.5,371.0,77.5,355.0,74.0,339.0,70.0,323.0,66.5" stroke="black" stroke-width="2" fill="none" />
<polyline points="355.0,88.0,371.0,98.0,387.0,105.5,402.5,115.5,418.5,128.0,434.0,144.0,450.5,160.0,466.5,180.0,482.5,202.0,498.5,216.5,500.5,220.5,508.5,236.0" stroke="black" stroke-width="2" fill="none" />
<polyline points="432.0,149.0,416.0,135.5,400.0,121.5" stroke="black" stroke-width="2" fill="none" />
<polyline points="410.0,122.0,426.0,138.0,442.0,154.0,456.0,170.5,470.0,186.5,480.0,202.5,491.5,218.5,491.0,244.5,507.0,236.5" stroke="black" stroke-width="2" fill="none" />
<polyline points="432.5,152.5,414.5,136.5,407.0,120.5,383.0,104.5,355.0,88.5,313.0,84.0,307.0,77.5,291.0,75.5,275.0,72.0" stroke="black" stroke-width="2" fill="none" />
<polyline points="272.5,71.0,284.5,86.5" stroke="black" stroke-width="2" fill="none" />
<polyline points="279.0,75.5,295.0,99.5" stroke="black" stroke-width="2" fill="none" />
<polyline points="270.0,76.5,286.0,98.5,302.0,124.0,318.0,160.0" stroke="black" stroke-width="2" fill="none" />
<polyline points="382.5,100.0,356.0,84.0,344.0,72.0,314.0,72.0,280.5,60.0,272.5,50.5,258.5,38.5,270.5,36.5,282.5,24.5,267.0,22.5,251.0,14.5" stroke="black" stroke-width="2" fill="none" />
<polyline points="247.0,1.5,249.0,17.5,247.5,33.5,255.5,49.5,250.0,65.0,252.0,81.5,254.0,97.5,254.0,114.0,256.0,130.0,256.0,146.5,256.0,162.5,256.0,179.0,255.5,195.0,255.5,210.5,255.5,226.5,255.5,242.0,252.0,258.0,251.5,274.0,250.0,294.0,248.0,310.0,248.0,326.0,248.0,342.5,248.0,358.0,247.5,374.0,247.5,389.5,245.5,405.0,247.5,421.5,259.5,437.5,257.5,453.5,249.5,469.5,250.0,485.5,249.5,501.5,267.5,506.0,283.5,506.0,299.5,506.0,316.0,506.5,332.0,506.5,348.0,506.5,364.0,507.0,380.5,507.0,396.5,507.0,412.5,508.5,428.5,506.5,444.0,506.0,459.5,506.0,475.0,508.0,491.5,508.0" stroke="black" stroke-width="2" fill="none" />
<polyline points="358.5,292.5,388.5,276.5" stroke="black" stroke-width="2" fill="none" />
<polyline points="341.0,282.0,325.5,280.0,310.0,278.0,294.5,276.5,278.5,276.5,262.5,277.0,238.5,277.0,222.0,277.0,206.0,276.5,190.0,276.5,174.0,278.5,157.5,278.0,141.5,280.0,125.5,276.0,109.5,269.5,94.0,269.5,77.5,265.5,61.5,263.5,45.5,259.5,29.5,259.5,13.5,257.0,5.5,263.5,5.5,244.0,4.0,236.0,20.0,220.5,28.0,204.0,40.0,188.0,50.0,172.0,61.5,156.0,76.0,140.0,95.5,116.0,115.5,100.5,121.5,84.5,155.5,75.0,196.0,71.0,208.0,88.5" stroke="black" stroke-width="2" fill="none" />
<polyline points="222.0,101.5,205.5,131.5,189.5,157.5" stroke="black" stroke-width="2" fill="none" />
<polyline points="172.5,179.5,158.0,205.5" stroke="black" stroke-width="2" fill="none" />
<polyline points="150.5,191.0,166.5,159.5,162.0,167.5,156.0,183.5,150.0,200.0,144.0,216.0" stroke="black" stroke-width="2" fill="none" />
<polyline points="139.5,239.0,155.5,195.0,171.5,161.5,187.5,131.5,203.5,104.0,219.5,78.0" stroke="black" stroke-width="2" fill="none" />
<polyline points="225.0,73.0,214.5,89.0,205.0,105.0,196.5,121.0,186.5,136.5,178.0,152.5,170.5,168.5,163.0,184.0,157.5,200.0,151.5,215.5,145.5,232.0,139.5,248.0,135.5,264.0,117.0,272.0" stroke="black" stroke-width="2" fill="none" />
<polyline points="128.0,295.5,136.0,273.5,140.0,267.5,147.5,241.5,153.5,225.5,158.0,211.5,164.5,201.0,170.5,185.0,177.0,172.5,197.0,148.5,204.5,133.0,216.5,117.0,213.0,111.5,225.0,95.5,231.0,79.5,229.0,63.5,213.0,65.5,197.0,69.0,181.0,76.5,164.5,82.5" stroke="black" stroke-width="2" fill="none" />
<polyline points="137.0,82.5,113.0,98.5,129.0,86.0,145.0,79.5,161.0,73.5,177.0,65.0,191.5,61.0,196.0,53.5,212.0,57.5" stroke="black" stroke-width="2" fill="none" />
<polyline points="216.0,53.5,220.0,69.5,210.0,86.0,206.0,114.0,200.0,129.5" stroke="black" stroke-width="2" fill="none" />
<polyline points="203.0,116.5,183.0,126.5,190.5,110.5" stroke="black" stroke-width="2" fill="none" />
<polyline points="236.0,78.0,241.5,94.0,242.0,110.5,242.0,126.5,240.5,142.0,240.5,157.5,241.0,174.0,239.0,190.0,239.0,206.0,237.0,222.0,235.0,238.0,235.0,253.5,241.0,269.0,243.0,293.0,241.0,309.0,242.5,325.0,243.0,341.0,243.0,357.0,243.0,373.5,241.0,389.5,241.0,406.0,227.0,421.5,223.0,437.5,225.0,453.5,235.0,469.5,234.5,486.0,234.5,502.5" stroke="black" stroke-width="2" fill="none" />
<polyline points="165.5,511.5,148.5,511.5,132.5,511.5" stroke="black" stroke-width="2" fill="none" />
<polyline points="186.5,508.5,170.5,506.0,154.5,506.0,139.0,506.0,123.0,506.0,106.5,508.0,90.5,507.5,74.0,507.5,57.5,505.5,41.0,505.5,25.0,508.0" stroke="black" stroke-width="2" fill="none" />
<polyline points="8.0,251.0,22.0,251.0,37.5,255.0,53.5,257.0,69.5,259.0,85.5,263.0,103.0,274.5,119.0,278.5,135.5,286.0,151.5,284.0,167.5,284.0,183.0,282.0,199.0,281.5,215.0,281.5,231.0,281.5,256.5,281.5,272.5,281.5,288.5,281.5,304.5,283.5,321.0,283.5,337.0,285.0,353.0,293.5,369.0,281.5,385.5,277.5,402.0,272.0,418.5,268.0,434.5,263.5,450.5,259.5,467.0,257.5,483.5,253.5,499.5,251.0" stroke="black" stroke-width="2" fill="none" />
<polyline points="393.5,94.5,377.5,86.5,361.0,80.5,345.0,82.0,337.0,76.0,321.0,73.5,305.0,68.0,289.0,68.0,283.0,66.5,267.0,70.5,251.0,74.5" stroke="black" stroke-width="2" fill="none" />
<polyline points="271.5,67.5,269.5,79.5,281.5,95.5,291.5,111.0,301.5,127.0,309.5,142.5,316.0,158.5,322.5,174.0,327.0,190.0,333.5,206.0,338.0,222.0,342.0,238.0,345.5,254.0,349.0,269.5,352.5,291.5" stroke="black" stroke-width="2" fill="none" />
<polyline points="244.5,242.5,245.0,226.5" stroke="black" stroke-width="2" fill="none" />
<polyline points="240.5,222.5,240.5,238.5,240.5,254.5" stroke="black" stroke-width="2" fill="none" />
<polyline points="64.5,163.5,58.0,179.5,46.0,195.5,36.0,211.0,26.0,227.0,2.5,246.5,18.5,222.5,34.0,196.5" stroke="black" stroke-width="2" fill="none" />
<polyline points="23.5,198.5,39.5,178.5,55.5,156.5" stroke="black" stroke-width="2" fill="none" />
<polyline points="63.5,161.5,79.5,145.5,78.0,149.5,58.0,152.0,47.5,168.0,35.5,184.0,24.0,200.0,32.0,209.5,30.5,219.5,38.5,199.5,48.0,189.5,64.0,167.5,68.0,147.5,84.0,129.5,106.0,106.0,122.0,84.0" stroke="black" stroke-width="2" fill="none" />
<polyline points="140.0,64.5,111.5,78.0,127.5,69.5,147.5,61.5,166.0,50.0,186.0,56.0,202.0,50.0,218.0,54.0,224.5,60.0" stroke="black" stroke-width="2" fill="none" />
<polyline points="204.5,46.5,221.0,42.5,237.0,30.5" stroke="black" stroke-width="2" fill="none" />
<polyline points="279.0,39.5,296.5,34.0" stroke="black" stroke-width="2" fill="none" />
<polyline points="313.5,38.0,298.0,42.0,282.0,44.0" stroke="black" stroke-width="2" fill="none" />
<polyline points="349.0,36.0,397.5,52.0,405.0,65.5,419.5,65.5,437.5,81.5,460.0,97.5,478.0,113.5,494.5,130.0,510.5,146.0" stroke="black" stroke-width="2" fill="none" />
<polyline points="377.0,76.5,361.0,76.5" stroke="black" stroke-width="2" fill="none" />
<polyline points="510.0,144.5,494.5,128.0,478.5,111.5,462.5,97.5,446.5,85.5,430.5,75.5,415.0,60.0,399.0,52.5,383.0,46.5,367.5,42.5,351.5,36.5,335.5,36.5,319.0,34.5,303.0,30.5,287.0,30.5,282.5,28.5,272.5,40.5,254.5,26.5,233.0,24.5,225.0,22.5,209.0,28.5,193.0,32.0,177.0,31.5,161.0,29.5,145.0,30.0,129.0,35.5,112.5,43.5,96.5,53.5,80.0,65.5,64.0,81.5,70.0,89.5,106.0,73.5,142.0,57.5,166.0,41.5,182.0,39.0" stroke="black" stroke-width="2" fill="none" />
<polyline points="164.0,36.0,146.0,34.0,130.0,41.5,114.0,49.5,98.0,60.0,81.5,71.5,67.5,85.5,83.5,69.5,106.0,53.5,136.0,37.5" stroke="black" stroke-width="2" fill="none" />
<polyline points="141.5,29.0,107.5,45.0,83.5,61.0,67.5,77.5,56.0,94.0,46.0,110.5,30.0,126.5,16.0,142.5,4.0,158.5,14.5,146.5,31.0,126.5,47.0,110.5,62.5,98.5,78.5,86.5,94.5,78.5,110.5,72.5,126.5,66.0,142.0,58.0,158.0,50.0,174.0,40.0,186.5,40.0,194.5,44.0,210.5,39.5,224.0,47.0" stroke="black" stroke-width="2" fill="none" />
<polyline points="49.5,122.5,31.5,134.5,27.0,144.5,19.0,156.5,16.5,158.0,30.5,134.0,44.5,125.5,47.0,117.5" stroke="black" stroke-width="2" fill="none" />
</svg>