<?xml version="1.0" encoding="UTF-8"?>
<svg xmlns="http://www.w3.org/2000/svg" xmlns:xlink="http://www.w3.org/1999/xlink" width="1935.11811" height="1935.11811" viewBox="0 0 1935.11811 1935.11811" version="1.1">
<g id="surface1">
<path style="fill:none;stroke-width:2;stroke-linecap:butt;stroke-linejoin:miter;stroke:rgb(0%,0%,0%);stroke-opacity:1;stroke-miterlimit:4;" d="M 119.499683 160.499764 L 99.49987 176.499821 L 99.49987 192.499878 L 85.499691 210.499813 L 79.500057 227.000098 L 75.500301 243.000155 L 91.500358 245.000033 L 107.500415 245.000033 L 123.000244 243.000155 L 139.000301 244.499805 L 154.50013 242.499927 L 171.000415 236.500293 L 187.000472 222.500114 L 202.999495 202.500301 " transform="matrix(3.779528,0,0,3.779528,0,0)"/>
<path style="fill:none;stroke-width:2;stroke-linecap:butt;stroke-linejoin:miter;stroke:rgb(0%,0%,0%);stroke-opacity:1;stroke-miterlimit:4;" d="M 210.499813 189.499544 L 194.499756 164.999748 L 178.499699 157.000236 L 162.499642 155.000358 L 146.499585 157.000236 L 130.499528 156.500008 L 114.000277 160.499764 L 98.00022 176.499821 " transform="matrix(3.779528,0,0,3.779528,0,0)"/>
<path style="fill:none;stroke-width:2;stroke-linecap:butt;stroke-linejoin:miter;stroke:rgb(0%,0%,0%);stroke-opacity:1;stroke-miterlimit:4;" d="M 107.999609 182.00026 L 123.999666 180.499577 L 139.999723 169.999959 L 155.499552 169.999959 L 171.499609 175.500399 L 187.499666 180.999805 " transform="matrix(3.779528,0,0,3.779528,0,0)"/>
<path style="fill:none;stroke-width:2;stroke-linecap:butt;stroke-linejoin:miter;stroke:rgb(0%,0%,0%);stroke-opacity:1;stroke-miterlimit:4;" d="M 181.500033 197.50009 L 171.499609 193.999528 L 162.000448 178.499699 " transform="matrix(3.779528,0,0,3.779528,0,0)"/>
<path style="fill:none;stroke-width:2;stroke-linecap:butt;stroke-linejoin:miter;stroke:rgb(0%,0%,0%);stroke-opacity:1;stroke-miterlimit:4;" d="M 175.000171 164.000326 L 197.50009 180.000382 L 189.00035 193.500334 L 183.49991 209.500391 " transform="matrix(3.779528,0,0,3.779528,0,0)"/>
<path style="fill:none;stroke-width:2;stroke-linecap:butt;stroke-linejoin:miter;stroke:rgb(0%,0%,0%);stroke-opacity:1;stroke-miterlimit:4;" d="M 174.499943 246.99991 L 190.5 246.499683 L 207.000285 246.499683 L 223.499536 248.499561 L 239.499593 246.499683 L 239.499593 250.500472 L 264.000423 248.499561 L 280.00048 250.500472 " transform="matrix(3.779528,0,0,3.779528,0,0)"/>
<path style="fill:none;stroke-width:2;stroke-linecap:butt;stroke-linejoin:miter;stroke:rgb(0%,0%,0%);stroke-opacity:1;stroke-miterlimit:4;" d="M 313.000016 255.999878 L 329.000073 257.999756 L 345.500358 257.499528 L 361.500415 257.999756 L 393.499495 257.999756 L 409.499552 259.999634 L 425.999837 257.999756 L 442.500122 259.999634 L 458.500179 259.999634 " transform="matrix(3.779528,0,0,3.779528,0,0)"/>
<path style="fill:none;stroke-width:2;stroke-linecap:butt;stroke-linejoin:miter;stroke:rgb(0%,0%,0%);stroke-opacity:1;stroke-miterlimit:4;" d="M 461.000285 270.500285 L 462.499935 276.499919 L 478.499992 275.999691 L 481.000098 283.500008 L 493.499593 293.500431 L 509.999878 289.499642 " transform="matrix(3.779528,0,0,3.779528,0,0)"/>
<path style="fill:none;stroke-width:2;stroke-linecap:butt;stroke-linejoin:miter;stroke:rgb(0%,0%,0%);stroke-opacity:1;stroke-miterlimit:4;" d="M 507.499772 243.999577 L 491.499715 237.999943 " transform="matrix(3.779528,0,0,3.779528,0,0)"/>
<path style="fill:none;stroke-width:2;stroke-linecap:butt;stroke-linejoin:miter;stroke:rgb(0%,0%,0%);stroke-opacity:1;stroke-miterlimit:4;" d="M 500.000488 193.000106 L 484.000431 189.00035 " transform="matrix(3.779528,0,0,3.779528,0,0)"/>
<path style="fill:none;stroke-width:2;stroke-linecap:butt;stroke-linejoin:miter;stroke:rgb(0%,0%,0%);stroke-opacity:1;stroke-miterlimit:4;" d="M 490.500293 183.49991 L 506.50035 187.499666 " transform="matrix(3.779528,0,0,3.779528,0,0)"/>
<path style="fill:none;stroke-width:2;stroke-linecap:butt;stroke-linejoin:miter;stroke:rgb(0%,0%,0%);stroke-opacity:1;stroke-miterlimit:4;" d="M 504.500472 194.999984 L 494.500049 179.500155 L 462.499935 175.500399 L 440.500244 183.49991 " transform="matrix(3.779528,0,0,3.779528,0,0)"/>
<path style="fill:none;stroke-width:2;stroke-linecap:butt;stroke-linejoin:miter;stroke:rgb(0%,0%,0%);stroke-opacity:1;stroke-miterlimit:4;" d="M 440.500244 193.000106 L 450.499634 208.499935 L 460.500057 224.499992 L 458.500179 240.500049 L 464.499813 242.499927 L 452.499512 268.500407 L 463.000163 282.499552 L 477.000342 298.499609 L 489.499837 314.000472 " transform="matrix(3.779528,0,0,3.779528,0,0)"/>
<path style="fill:none;stroke-width:2;stroke-linecap:butt;stroke-linejoin:miter;stroke:rgb(0%,0%,0%);stroke-opacity:1;stroke-miterlimit:4;" d="M 493.999821 287.999992 L 478.499992 298.000415 L 462.499935 281.50013 " transform="matrix(3.779528,0,0,3.779528,0,0)"/>
<path style="fill:none;stroke-width:2;stroke-linecap:butt;stroke-linejoin:miter;stroke:rgb(0%,0%,0%);stroke-opacity:1;stroke-miterlimit:4;" d="M 447.000106 291.999748 L 430.499821 305.999927 L 406.500252 305.499699 L 398.499707 320.000106 L 365.500171 320.000106 L 349.500114 320.500334 L 331.500179 322.500212 L 299.500065 322.500212 " transform="matrix(3.779528,0,0,3.779528,0,0)"/>
<path style="fill:none;stroke-width:2;stroke-linecap:butt;stroke-linejoin:miter;stroke:rgb(0%,0%,0%);stroke-opacity:1;stroke-miterlimit:4;" d="M 305.999927 309.999683 L 338.000041 305.999927 L 354.000098 300.000293 L 370.000155 300.000293 " transform="matrix(3.779528,0,0,3.779528,0,0)"/>
<path style="fill:none;stroke-width:2;stroke-linecap:butt;stroke-linejoin:miter;stroke:rgb(0%,0%,0%);stroke-opacity:1;stroke-miterlimit:4;" d="M 379.999544 302.500399 L 395.999601 302.500399 L 411.999658 302.000171 " transform="matrix(3.779528,0,0,3.779528,0,0)"/>
<path style="fill:none;stroke-width:2;stroke-linecap:butt;stroke-linejoin:miter;stroke:rgb(0%,0%,0%);stroke-opacity:1;stroke-miterlimit:4;" d="M 432.999927 284.000236 L 425.000415 299.500065 L 433.500155 279.500252 " transform="matrix(3.779528,0,0,3.779528,0,0)"/>
<path style="fill:none;stroke-width:2;stroke-linecap:butt;stroke-linejoin:miter;stroke:rgb(0%,0%,0%);stroke-opacity:1;stroke-miterlimit:4;" d="M 429.500399 276.499919 L 421.499854 292.499976 L 419.499976 318.500456 L 435.500033 318.500456 L 441.499666 302.000171 L 452.000317 314.000472 L 467.500146 314.000472 L 483.500203 311.999561 " transform="matrix(3.779528,0,0,3.779528,0,0)"/>
<path style="fill:none;stroke-width:2;stroke-linecap:butt;stroke-linejoin:miter;stroke:rgb(0%,0%,0%);stroke-opacity:1;stroke-miterlimit:4;" d="M 474.000008 374.500138 L 457.999951 377.999666 " transform="matrix(3.779528,0,0,3.779528,0,0)"/>
<path style="fill:none;stroke-width:2;stroke-linecap:butt;stroke-linejoin:miter;stroke:rgb(0%,0%,0%);stroke-opacity:1;stroke-miterlimit:4;" d="M 447.999528 366.000399 L 463.999585 366.000399 L 480.49987 359.999731 " transform="matrix(3.779528,0,0,3.779528,0,0)"/>
<path style="fill:none;stroke-width:2;stroke-linecap:butt;stroke-linejoin:miter;stroke:rgb(0%,0%,0%);stroke-opacity:1;stroke-miterlimit:4;" d="M 502.000366 359.000309 L 486.000309 378.499894 L 500.499683 364.499715 L 504.500472 348.000464 L 506.999544 332.000407 L 509.49965 315.500122 L 508 300.000293 L 501.500138 295.500309 L 501.500138 279.500252 L 495.500505 263.500195 L 471.499902 249.500016 L 479.00022 243.500382 L 479.00022 227.500326 L 478.499992 212.000496 L 476.500114 196.000439 L 468.000374 196.499634 L 452.000317 196.999862 " transform="matrix(3.779528,0,0,3.779528,0,0)"/>
<path style="fill:none;stroke-width:2;stroke-linecap:butt;stroke-linejoin:miter;stroke:rgb(0%,0%,0%);stroke-opacity:1;stroke-miterlimit:4;" d="M 452.000317 196.000439 L 457.499723 212.000496 " transform="matrix(3.779528,0,0,3.779528,0,0)"/>
<path style="fill:none;stroke-width:2;stroke-linecap:butt;stroke-linejoin:miter;stroke:rgb(0%,0%,0%);stroke-opacity:1;stroke-miterlimit:4;" d="M 466.999919 198.499512 L 468.999797 214.499569 L 470.999674 230.000431 L 470.999674 245.50026 " transform="matrix(3.779528,0,0,3.779528,0,0)"/>
<path style="fill:none;stroke-width:2;stroke-linecap:butt;stroke-linejoin:miter;stroke:rgb(0%,0%,0%);stroke-opacity:1;stroke-miterlimit:4;" d="M 501.500138 248.999788 L 497.999577 246.99991 L 497.999577 230.999854 L 491.999943 214.499569 L 488.500415 198.99974 L 480.49987 181.500033 L 464.499813 175.000171 " transform="matrix(3.779528,0,0,3.779528,0,0)"/>
<path style="fill:none;stroke-width:2;stroke-linecap:butt;stroke-linejoin:miter;stroke:rgb(0%,0%,0%);stroke-opacity:1;stroke-miterlimit:4;" d="M 502.000366 179.500155 L 486.499504 178.999927 L 470.999674 171.499609 L 454.999618 171.499609 L 438.500366 169.499731 L 422.500309 165.499976 " transform="matrix(3.779528,0,0,3.779528,0,0)"/>
<path style="fill:none;stroke-width:2;stroke-linecap:butt;stroke-linejoin:miter;stroke:rgb(0%,0%,0%);stroke-opacity:1;stroke-miterlimit:4;" d="M 390.500195 198.499512 L 388.500317 218.500358 L 390.500195 202.500301 " transform="matrix(3.779528,0,0,3.779528,0,0)"/>
<path style="fill:none;stroke-width:2;stroke-linecap:butt;stroke-linejoin:miter;stroke:rgb(0%,0%,0%);stroke-opacity:1;stroke-miterlimit:4;" d="M 369.499927 218.00013 L 371.499805 201.499845 L 355.999976 191.500456 " transform="matrix(3.779528,0,0,3.779528,0,0)"/>
<path style="fill:none;stroke-width:2;stroke-linecap:butt;stroke-linejoin:miter;stroke:rgb(0%,0%,0%);stroke-opacity:1;stroke-miterlimit:4;" d="M 359.499504 179.500155 L 341.499569 195.500212 L 329.500301 211.500269 L 317.5 227.000098 L 307.499577 243.000155 L 297.500187 258.499984 L 287.999992 274.500041 L 296.499731 282.000358 L 298.999837 298.000415 L 299.500065 311.999561 L 295.999504 327.999618 L 295.999504 343.999674 L 295.500309 359.999731 L 295.000081 367.500049 L 280.499674 383.500106 L 278.499797 398.000513 " transform="matrix(3.779528,0,0,3.779528,0,0)"/>
<path style="fill:none;stroke-width:2;stroke-linecap:butt;stroke-linejoin:miter;stroke:rgb(0%,0%,0%);stroke-opacity:1;stroke-miterlimit:4;" d="M 291.49952 389.999967 L 298.999837 373.99991 L 298.999837 357.999854 L 297.500187 341.999797 L 298.000415 325.99974 L 304.000049 308.500033 L 301.499943 293.000203 L 283.500008 307.000382 L 268.000179 309.00026 L 252.000122 308.500033 " transform="matrix(3.779528,0,0,3.779528,0,0)"/>
<path style="fill:none;stroke-width:2;stroke-linecap:butt;stroke-linejoin:miter;stroke:rgb(0%,0%,0%);stroke-opacity:1;stroke-miterlimit:4;" d="M 230.499626 314.999894 L 250.500472 331.500179 L 261.999512 347.500236 L 273.999813 361.500415 " transform="matrix(3.779528,0,0,3.779528,0,0)"/>
<path style="fill:none;stroke-width:2;stroke-linecap:butt;stroke-linejoin:miter;stroke:rgb(0%,0%,0%);stroke-opacity:1;stroke-miterlimit:4;" d="M 282.499552 370.999577 L 266.000301 352.999642 L 250.000244 330.999951 " transform="matrix(3.779528,0,0,3.779528,0,0)"/>
<path style="fill:none;stroke-width:2;stroke-linecap:butt;stroke-linejoin:miter;stroke:rgb(0%,0%,0%);stroke-opacity:1;stroke-miterlimit:4;" d="M 228.999976 315.500122 L 245.50026 327.999618 L 261.999512 337.499813 L 277.999569 357.000431 " transform="matrix(3.779528,0,0,3.779528,0,0)"/>
<path style="fill:none;stroke-width:2;stroke-linecap:butt;stroke-linejoin:miter;stroke:rgb(0%,0%,0%);stroke-opacity:1;stroke-miterlimit:4;" d="M 271.499707 353.49987 L 261.500317 337.499813 L 255.999878 311.500366 L 239.999821 311.500366 L 223.999764 309.999683 L 207.999707 306.500155 " transform="matrix(3.779528,0,0,3.779528,0,0)"/>
<path style="fill:none;stroke-width:2;stroke-linecap:butt;stroke-linejoin:miter;stroke:rgb(0%,0%,0%);stroke-opacity:1;stroke-miterlimit:4;" d="M 207.000285 302.000171 L 223.000342 303.499821 L 239.000399 305.499699 L 255.000456 301.499943 L 271.000513 299.500065 L 286.500342 295.999504 L 292.499976 294.499854 L 273.999813 298.499609 L 275.500496 312.499788 L 291.000326 312.499788 L 309.00026 318.500456 L 324.50009 316.499544 L 340.500146 316.00035 L 357.000431 315.500122 L 389.999967 315.500122 L 406.000024 313.500244 L 438.000138 313.500244 L 450.000439 317.5 L 482.499748 317.5 " transform="matrix(3.779528,0,0,3.779528,0,0)"/>
<path style="fill:none;stroke-width:2;stroke-linecap:butt;stroke-linejoin:miter;stroke:rgb(0%,0%,0%);stroke-opacity:1;stroke-miterlimit:4;" d="M 454.999618 361.999609 L 438.999561 366.000399 L 430.499821 366.000399 L 413.999536 365.500171 L 398.000513 363.000065 L 381.500228 368.999699 L 365.500171 370.999577 " transform="matrix(3.779528,0,0,3.779528,0,0)"/>
<path style="fill:none;stroke-width:2;stroke-linecap:butt;stroke-linejoin:miter;stroke:rgb(0%,0%,0%);stroke-opacity:1;stroke-miterlimit:4;" d="M 357.499626 369.499927 L 373.499683 365.500171 L 391.499618 369.499927 L 407.499674 369.499927 " transform="matrix(3.779528,0,0,3.779528,0,0)"/>
<path style="fill:none;stroke-width:2;stroke-linecap:butt;stroke-linejoin:miter;stroke:rgb(0%,0%,0%);stroke-opacity:1;stroke-miterlimit:4;" d="M 394.499951 453.499967 L 394.499951 471.499902 L 376.500016 481.500326 L 382.49965 497.999577 L 384.000334 502.499561 L 389.49974 482.499748 L 397.500285 476.500114 L 406.000024 476.500114 L 393.999723 484.499626 L 400.499585 506.50035 L 416.499642 510.500106 L 429.999593 495.999699 L 445.99965 488.000187 L 459.999829 506.000122 L 475.999886 505.499894 L 491.999943 487.499959 " transform="matrix(3.779528,0,0,3.779528,0,0)"/>
<path style="fill:none;stroke-width:2;stroke-linecap:butt;stroke-linejoin:miter;stroke:rgb(0%,0%,0%);stroke-opacity:1;stroke-miterlimit:4;" d="M 502.999788 493.000399 L 499.000033 507.499772 L 511.000334 491.999943 " transform="matrix(3.779528,0,0,3.779528,0,0)"/>
<path style="fill:none;stroke-width:2;stroke-linecap:butt;stroke-linejoin:miter;stroke:rgb(0%,0%,0%);stroke-opacity:1;stroke-miterlimit:4;" d="M 497.999577 507.499772 L 504.000244 489.499837 L 493.999821 506.000122 L 470.50048 508 L 484.499626 493.999821 L 474.500236 508 " transform="matrix(3.779528,0,0,3.779528,0,0)"/>
<path style="fill:none;stroke-width:2;stroke-linecap:butt;stroke-linejoin:miter;stroke:rgb(0%,0%,0%);stroke-opacity:1;stroke-miterlimit:4;" d="M 444.5 483.500203 L 426.500065 484.999854 L 411.000236 494.500049 L 395.000179 508.500228 L 425.499609 500.499683 L 439.499788 484.499626 L 407.499674 504.500472 L 403.499919 509.000456 " transform="matrix(3.779528,0,0,3.779528,0,0)"/>
<path style="fill:none;stroke-width:2;stroke-linecap:butt;stroke-linejoin:miter;stroke:rgb(0%,0%,0%);stroke-opacity:1;stroke-miterlimit:4;" d="M 375.000366 466.000496 L 357.000431 481.500326 L 343.000252 495.500505 L 327.000195 502.000366 L 318.99965 506.50035 L 334.999707 492.500171 L 350.999764 484.499626 L 366.499593 472.500358 " transform="matrix(3.779528,0,0,3.779528,0,0)"/>
<path style="fill:none;stroke-width:2;stroke-linecap:butt;stroke-linejoin:miter;stroke:rgb(0%,0%,0%);stroke-opacity:1;stroke-miterlimit:4;" d="M 339.000496 491.999943 L 332.999829 495.999699 L 307.000382 499.50026 L 314.499666 495.500505 " transform="matrix(3.779528,0,0,3.779528,0,0)"/>
<path style="fill:none;stroke-width:2;stroke-linecap:butt;stroke-linejoin:miter;stroke:rgb(0%,0%,0%);stroke-opacity:1;stroke-miterlimit:4;" d="M 290.500098 500.99991 L 287.999992 507.499772 L 277.500374 511.000334 L 291.000326 499.000033 L 298.999837 482.999976 L 308.500033 466.499691 L 298.000415 477.000342 " transform="matrix(3.779528,0,0,3.779528,0,0)"/>
<path style="fill:none;stroke-width:2;stroke-linecap:butt;stroke-linejoin:miter;stroke:rgb(0%,0%,0%);stroke-opacity:1;stroke-miterlimit:4;" d="M 265.500073 486.999731 L 275.500496 475.499658 L 259.500439 485.500081 L 259.999634 493.999821 L 264.000423 500.499683 L 275.999691 476.500114 L 248.000366 484.499626 " transform="matrix(3.779528,0,0,3.779528,0,0)"/>
<path style="fill:none;stroke-width:2;stroke-linecap:butt;stroke-linejoin:miter;stroke:rgb(0%,0%,0%);stroke-opacity:1;stroke-miterlimit:4;" d="M 248.000366 511.499528 L 243.999577 501.500138 L 223.999764 497.000155 L 207.999707 501.500138 L 198.000317 505.499894 L 189.999772 505.499894 L 200.500423 497.999577 L 212.499691 484.000431 L 204.500179 476.500114 L 188.500122 488.000187 L 182.500488 475.999886 L 166.500431 490.000065 L 150.000146 500.000488 L 148.000269 511.999756 L 148.000269 497.500382 L 144.000513 491.499715 L 150.000146 509.000456 L 157.500464 497.500382 L 175.000171 481.500326 L 181.500033 469.500024 L 171.499609 469.500024 L 155.499552 477.499536 L 171.499609 469.500024 L 167.499854 477.999764 " transform="matrix(3.779528,0,0,3.779528,0,0)"/>
<path style="fill:none;stroke-width:2;stroke-linecap:butt;stroke-linejoin:miter;stroke:rgb(0%,0%,0%);stroke-opacity:1;stroke-miterlimit:4;" d="M 141.500407 481.99952 L 143.500285 497.999577 " transform="matrix(3.779528,0,0,3.779528,0,0)"/>
<path style="fill:none;stroke-width:2;stroke-linecap:butt;stroke-linejoin:miter;stroke:rgb(0%,0%,0%);stroke-opacity:1;stroke-miterlimit:4;" d="M 85.499691 502.000366 L 71.499512 481.99952 L 55.500488 475.999886 " transform="matrix(3.779528,0,0,3.779528,0,0)"/>
<path style="fill:none;stroke-width:2;stroke-linecap:butt;stroke-linejoin:miter;stroke:rgb(0%,0%,0%);stroke-opacity:1;stroke-miterlimit:4;" d="M 57.000138 469.500024 L 78.499601 479.999642 L 69.000439 488.000187 L 71.000317 493.999821 L 82.999585 509.999878 L 91.00013 506.000122 L 105.000309 510.500106 L 110.499715 490.500293 L 126.499772 490.500293 L 142.499829 482.999976 " transform="matrix(3.779528,0,0,3.779528,0,0)"/>
<path style="fill:none;stroke-width:2;stroke-linecap:butt;stroke-linejoin:miter;stroke:rgb(0%,0%,0%);stroke-opacity:1;stroke-miterlimit:4;" d="M 126.499772 511.499528 L 128.000456 500.99991 L 112.000399 506.999544 L 125.999544 505.499894 L 128.000456 501.500138 L 116.000155 499.50026 L 91.999552 490.999487 L 80.000285 489.499837 L 80.000285 479.500448 L 64.500456 474.000008 L 44.499609 475.499658 L 28.99978 491.499715 L 25.500252 504.000244 L 33.999992 484.000431 L 48.000171 477.999764 " transform="matrix(3.779528,0,0,3.779528,0,0)"/>
<path style="fill:none;stroke-width:2;stroke-linecap:butt;stroke-linejoin:miter;stroke:rgb(0%,0%,0%);stroke-opacity:1;stroke-miterlimit:4;" d="M 21.000269 482.499748 L 8.999967 497.999577 L 8.999967 506.000122 L 12.999723 487.499959 " transform="matrix(3.779528,0,0,3.779528,0,0)"/>
<path style="fill:none;stroke-width:2;stroke-linecap:butt;stroke-linejoin:miter;stroke:rgb(0%,0%,0%);stroke-opacity:1;stroke-miterlimit:4;" d="M 1.49965 429.999593 L 17.499707 423.999959 L 33.999992 420.000203 " transform="matrix(3.779528,0,0,3.779528,0,0)"/>
<path style="fill:none;stroke-width:2;stroke-linecap:butt;stroke-linejoin:miter;stroke:rgb(0%,0%,0%);stroke-opacity:1;stroke-miterlimit:4;" d="M 19.499585 418.000326 L 3.499528 423.499731 L 33.999992 411.500464 L 17.999935 411.000236 L 1.999878 411.000236 " transform="matrix(3.779528,0,0,3.779528,0,0)"/>
<path style="fill:none;stroke-width:2;stroke-linecap:butt;stroke-linejoin:miter;stroke:rgb(0%,0%,0%);stroke-opacity:1;stroke-miterlimit:4;" d="M 1.999878 405.499797 L 33.999992 405.499797 L 50.000049 415.50022 " transform="matrix(3.779528,0,0,3.779528,0,0)"/>
<path style="fill:none;stroke-width:2;stroke-linecap:butt;stroke-linejoin:miter;stroke:rgb(0%,0%,0%);stroke-opacity:1;stroke-miterlimit:4;" d="M 67.499756 384.499528 L 51.499699 384.499528 L 33.499764 391.000423 L 30.000236 375.000366 L 51.999927 378.499894 " transform="matrix(3.779528,0,0,3.779528,0,0)"/>
<path style="fill:none;stroke-width:2;stroke-linecap:butt;stroke-linejoin:miter;stroke:rgb(0%,0%,0%);stroke-opacity:1;stroke-miterlimit:4;" d="M 18.500163 392.500073 L 2.500106 392.500073 " transform="matrix(3.779528,0,0,3.779528,0,0)"/>
<path style="fill:none;stroke-width:2;stroke-linecap:butt;stroke-linejoin:miter;stroke:rgb(0%,0%,0%);stroke-opacity:1;stroke-miterlimit:4;" d="M 1.49965 386.000212 L 17.499707 386.000212 L 32.999536 384.499528 L 48.999593 380.499772 L 65.499878 378.499894 L 81.499935 376.500016 " transform="matrix(3.779528,0,0,3.779528,0,0)"/>
<path style="fill:none;stroke-width:2;stroke-linecap:butt;stroke-linejoin:miter;stroke:rgb(0%,0%,0%);stroke-opacity:1;stroke-miterlimit:4;" d="M 71.000317 369.499927 L 55.00026 371.499805 L 32.999536 373.499683 L 17.499707 372.000033 L 1.999878 372.000033 " transform="matrix(3.779528,0,0,3.779528,0,0)"/>
<path style="fill:none;stroke-width:2;stroke-linecap:butt;stroke-linejoin:miter;stroke:rgb(0%,0%,0%);stroke-opacity:1;stroke-miterlimit:4;" d="M 1.49965 366.000399 L 17.499707 364.499715 " transform="matrix(3.779528,0,0,3.779528,0,0)"/>
<path style="fill:none;stroke-width:2;stroke-linecap:butt;stroke-linejoin:miter;stroke:rgb(0%,0%,0%);stroke-opacity:1;stroke-miterlimit:4;" d="M 17.000513 377.999666 L 1.49965 377.999666 " transform="matrix(3.779528,0,0,3.779528,0,0)"/>
<path style="fill:none;stroke-width:2;stroke-linecap:butt;stroke-linejoin:miter;stroke:rgb(0%,0%,0%);stroke-opacity:1;stroke-miterlimit:4;" d="M 2.500106 314.999894 L 1.999878 309.500488 L 17.999935 309.500488 L 23.999569 311.999561 L 40.499854 314.000472 L 56.49991 310.49991 L 72.499967 311.000138 L 89.999674 314.999894 L 105.499504 314.999894 L 121.499561 312.499788 L 137.499618 314.499666 L 153.499674 310.49991 L 185.499788 306.500155 L 201.499845 307.999805 L 218.00013 316.00035 L 234.500415 325.99974 L 250.500472 341.499569 L 264.499618 359.999731 " transform="matrix(3.779528,0,0,3.779528,0,0)"/>
<path style="fill:none;stroke-width:2;stroke-linecap:butt;stroke-linejoin:miter;stroke:rgb(0%,0%,0%);stroke-opacity:1;stroke-miterlimit:4;" d="M 298.999837 384.499528 L 296.999959 400.499585 " transform="matrix(3.779528,0,0,3.779528,0,0)"/>
<path style="fill:none;stroke-width:2;stroke-linecap:butt;stroke-linejoin:miter;stroke:rgb(0%,0%,0%);stroke-opacity:1;stroke-miterlimit:4;" d="M 321.499756 398.499707 L 337.499813 394.499951 L 353.49987 395.000179 L 369.499927 393.000301 L 395.000179 382.999878 L 410.500008 384.499528 " transform="matrix(3.779528,0,0,3.779528,0,0)"/>
<path style="fill:none;stroke-width:2;stroke-linecap:butt;stroke-linejoin:miter;stroke:rgb(0%,0%,0%);stroke-opacity:1;stroke-miterlimit:4;" d="M 426.500065 388.00009 L 429.999593 372.000033 L 457.999951 377.999666 L 436.500488 382.49965 L 420.999626 394.499951 L 404.999569 395.999601 L 388.999512 395.999601 L 372.50026 398.000513 L 356.500203 397.500285 L 339.999919 398.000513 L 323.999862 398.000513 " transform="matrix(3.779528,0,0,3.779528,0,0)"/>
<path style="fill:none;stroke-width:2;stroke-linecap:butt;stroke-linejoin:miter;stroke:rgb(0%,0%,0%);stroke-opacity:1;stroke-miterlimit:4;" d="M 335.499935 300.999715 L 319.499878 293.500431 L 304.000049 295.500309 " transform="matrix(3.779528,0,0,3.779528,0,0)"/>
<path style="fill:none;stroke-width:2;stroke-linecap:butt;stroke-linejoin:miter;stroke:rgb(0%,0%,0%);stroke-opacity:1;stroke-miterlimit:4;" d="M 320.000106 275.999691 L 336.000163 275.999691 L 345.999552 268.000179 L 358.500081 275.999691 " transform="matrix(3.779528,0,0,3.779528,0,0)"/>
<path style="fill:none;stroke-width:2;stroke-linecap:butt;stroke-linejoin:miter;stroke:rgb(0%,0%,0%);stroke-opacity:1;stroke-miterlimit:4;" d="M 363.999487 225.500448 L 365.500171 209.500391 L 367.500049 193.500334 L 351.499992 197.50009 L 335.499935 211.500269 " transform="matrix(3.779528,0,0,3.779528,0,0)"/>
<path style="fill:none;stroke-width:2;stroke-linecap:butt;stroke-linejoin:miter;stroke:rgb(0%,0%,0%);stroke-opacity:1;stroke-miterlimit:4;" d="M 338.500269 215.500024 L 354.500326 223.999764 " transform="matrix(3.779528,0,0,3.779528,0,0)"/>
<path style="fill:none;stroke-width:2;stroke-linecap:butt;stroke-linejoin:miter;stroke:rgb(0%,0%,0%);stroke-opacity:1;stroke-miterlimit:4;" d="M 330.499723 220.500236 L 320.500334 236.500293 L 312.499788 244.499805 L 308.500033 258.499984 L 310.49991 266.499495 L 304.500277 270.500285 L 304.000049 277.999569 L 323.999862 282.000358 L 311.999561 281.50013 L 321.999984 289.99987 L 327.999618 280.00048 L 343.50048 280.00048 L 359.000309 279.500252 " transform="matrix(3.779528,0,0,3.779528,0,0)"/>
<path style="fill:none;stroke-width:2;stroke-linecap:butt;stroke-linejoin:miter;stroke:rgb(0%,0%,0%);stroke-opacity:1;stroke-miterlimit:4;" d="M 319.499878 243.000155 L 335.499935 252.50035 L 351.499992 255.000456 L 400.000391 255.000456 L 416.000448 254.500228 L 432.499699 254 L 448.499756 253.499772 " transform="matrix(3.779528,0,0,3.779528,0,0)"/>
<path style="fill:none;stroke-width:2;stroke-linecap:butt;stroke-linejoin:miter;stroke:rgb(0%,0%,0%);stroke-opacity:1;stroke-miterlimit:4;" d="M 475.499658 366.000399 L 465.500269 370.000155 L 450.000439 370.000155 L 434.000382 372.000033 L 422.000081 377.999666 L 389.49974 377.999666 L 373.99991 382.000456 L 372.000033 375.999788 L 356.500203 375.999788 L 347.000008 376.500016 L 347.000008 380.499772 L 336.999585 380.499772 L 331.500179 374.500138 L 311.500366 375.999788 L 291.49952 379.999544 L 275.000269 377.999666 L 259.000212 373.99991 L 243.000155 352.00022 L 226.49987 339.999919 L 218.00013 333.500057 L 202.000073 325.000317 L 185.499788 329.000073 L 169.499731 329.000073 L 153.499674 332.999829 L 137.499618 339.499691 L 121.499561 349.500114 L 105.499504 363.500293 L 89.999674 379.50035 L 82.000163 393.999723 L 100.500326 368.000277 L 119.000488 352.500448 L 128.999878 336.500391 L 113.500049 346.49978 " transform="matrix(3.779528,0,0,3.779528,0,0)"/>
<path style="fill:none;stroke-width:2;stroke-linecap:butt;stroke-linejoin:miter;stroke:rgb(0%,0%,0%);stroke-opacity:1;stroke-miterlimit:4;" d="M 108.499837 344.499902 L 96.999764 360.499959 L 87.000374 376.500016 L 109.000065 366.499593 L 125.50035 352.00022 L 141.500407 343.50048 L 157.500464 336.999585 L 173.499487 332.999829 L 189.499544 332.999829 L 211.500269 336.500391 L 227.99952 346.49978 L 243.999577 360.499959 L 260.499862 388.500317 " transform="matrix(3.779528,0,0,3.779528,0,0)"/>
<path style="fill:none;stroke-width:2;stroke-linecap:butt;stroke-linejoin:miter;stroke:rgb(0%,0%,0%);stroke-opacity:1;stroke-miterlimit:4;" d="M 261.999512 395.500407 L 254 379.50035 L 243.999577 363.500293 L 225.500448 347.500236 L 199.499967 331.500179 " transform="matrix(3.779528,0,0,3.779528,0,0)"/>
<path style="fill:none;stroke-width:2;stroke-linecap:butt;stroke-linejoin:miter;stroke:rgb(0%,0%,0%);stroke-opacity:1;stroke-miterlimit:4;" d="M 202.500301 326.499967 L 230.999854 342.500024 L 248.999788 359.000309 L 259.000212 375.499561 L 264.999845 391.499618 " transform="matrix(3.779528,0,0,3.779528,0,0)"/>
<path style="fill:none;stroke-width:2;stroke-linecap:butt;stroke-linejoin:miter;stroke:rgb(0%,0%,0%);stroke-opacity:1;stroke-miterlimit:4;" d="M 205.000407 475.499658 L 189.00035 491.499715 L 168.500309 495.999699 L 178.499699 488.000187 L 194.499756 490.000065 L 206.500057 491.999943 " transform="matrix(3.779528,0,0,3.779528,0,0)"/>
<path style="fill:none;stroke-width:2;stroke-linecap:butt;stroke-linejoin:miter;stroke:rgb(0%,0%,0%);stroke-opacity:1;stroke-miterlimit:4;" d="M 214.999797 497.500382 L 200.999618 503.500016 L 216.999674 509.49965 " transform="matrix(3.779528,0,0,3.779528,0,0)"/>
<path style="fill:none;stroke-width:2;stroke-linecap:butt;stroke-linejoin:miter;stroke:rgb(0%,0%,0%);stroke-opacity:1;stroke-miterlimit:4;" d="M 250.000244 350.000342 L 234.000187 332.000407 L 217.499902 321.999984 L 201.499845 314.000472 L 185.499788 314.000472 L 169.499731 315.500122 L 153.499674 321.499756 L 137.499618 327.999618 L 117.499805 327.999618 L 101.499748 345.999552 L 87.499569 365.500171 L 99.49987 349.500114 L 117.499805 332.999829 L 151.499797 313.000016 " transform="matrix(3.779528,0,0,3.779528,0,0)"/>
<path style="fill:none;stroke-width:2;stroke-linecap:butt;stroke-linejoin:miter;stroke:rgb(0%,0%,0%);stroke-opacity:1;stroke-miterlimit:4;" d="M 157.500464 314.000472 L 141.500407 316.999772 L 125.50035 327.000195 L 109.500293 341.499569 L 96.000342 363.500293 L 80.500513 389.999967 L 80.500513 391.999845 L 98.500448 377.999666 L 114.500505 361.999609 L 122.500016 355.999976 L 150.500374 339.499691 L 136.500195 333.500057 L 159.999536 317.5 " transform="matrix(3.779528,0,0,3.779528,0,0)"/>
<path style="fill:none;stroke-width:2;stroke-linecap:butt;stroke-linejoin:miter;stroke:rgb(0%,0%,0%);stroke-opacity:1;stroke-miterlimit:4;" d="M 146.000391 297.500187 L 162.000448 301.499943 L 166.000203 289.000448 " transform="matrix(3.779528,0,0,3.779528,0,0)"/>
<path style="fill:none;stroke-width:2;stroke-linecap:butt;stroke-linejoin:miter;stroke:rgb(0%,0%,0%);stroke-opacity:1;stroke-miterlimit:4;" d="M 141.999601 295.000081 L 139.999723 293.000203 L 138.500073 314.999894 L 112.499593 334.500513 L 105.000309 334.500513 L 87.000374 341.999797 L 89.000252 350.000342 L 105.000309 333.500057 " transform="matrix(3.779528,0,0,3.779528,0,0)"/>
<path style="fill:none;stroke-width:2;stroke-linecap:butt;stroke-linejoin:miter;stroke:rgb(0%,0%,0%);stroke-opacity:1;stroke-miterlimit:4;" d="M 114.000277 319.499878 L 98.500448 318.99965 L 80.500513 318.99965 L 64.99965 318.500456 L 48.999593 318.500456 " transform="matrix(3.779528,0,0,3.779528,0,0)"/>
<path style="fill:none;stroke-width:2;stroke-linecap:butt;stroke-linejoin:miter;stroke:rgb(0%,0%,0%);stroke-opacity:1;stroke-miterlimit:4;" d="M 47.499943 313.000016 L 63.5 314.999894 L 79.500057 309.999683 L 95.500114 308.500033 L 111.500171 306.500155 " transform="matrix(3.779528,0,0,3.779528,0,0)"/>
<path style="fill:none;stroke-width:2;stroke-linecap:butt;stroke-linejoin:miter;stroke:rgb(0%,0%,0%);stroke-opacity:1;stroke-miterlimit:4;" d="M 103.499626 282.499552 L 85.000496 280.00048 L 60.999894 283.500008 L 44.999837 283.500008 " transform="matrix(3.779528,0,0,3.779528,0,0)"/>
<path style="fill:none;stroke-width:2;stroke-linecap:butt;stroke-linejoin:miter;stroke:rgb(0%,0%,0%);stroke-opacity:1;stroke-miterlimit:4;" d="M 1.999878 280.499674 L 17.999935 280.00048 L 33.499764 280.499674 L 49.499821 278.499797 L 66.000106 278.499797 L 82.500391 276.499919 L 98.500448 276.499919 L 114.500505 275.999691 L 130.499528 275.999691 L 146.499585 275.500496 L 162.499642 275.500496 L 188.500122 273.499585 L 204.500179 275.999691 L 252.50035 275.999691 L 268.500407 273.999813 L 284.000236 275.999691 " transform="matrix(3.779528,0,0,3.779528,0,0)"/>
<path style="fill:none;stroke-width:2;stroke-linecap:butt;stroke-linejoin:miter;stroke:rgb(0%,0%,0%);stroke-opacity:1;stroke-miterlimit:4;" d="M 265.500073 280.999902 L 249.500016 286.999536 L 246.000488 291.000326 L 239.999821 275.000269 " transform="matrix(3.779528,0,0,3.779528,0,0)"/>
<path style="fill:none;stroke-width:2;stroke-linecap:butt;stroke-linejoin:miter;stroke:rgb(0%,0%,0%);stroke-opacity:1;stroke-miterlimit:4;" d="M 210.499813 249.500016 L 178.499699 250.500472 " transform="matrix(3.779528,0,0,3.779528,0,0)"/>
<path style="fill:none;stroke-width:2;stroke-linecap:butt;stroke-linejoin:miter;stroke:rgb(0%,0%,0%);stroke-opacity:1;stroke-miterlimit:4;" d="M 182.500488 219.49978 L 166.500431 214.999797 L 150.500374 214.999797 L 134.500317 209.000163 " transform="matrix(3.779528,0,0,3.779528,0,0)"/>
<path style="fill:none;stroke-width:2;stroke-linecap:butt;stroke-linejoin:miter;stroke:rgb(0%,0%,0%);stroke-opacity:1;stroke-miterlimit:4;" d="M 127 220.500236 L 159.000114 220.500236 L 175.500399 222.500114 " transform="matrix(3.779528,0,0,3.779528,0,0)"/>
<path style="fill:none;stroke-width:2;stroke-linecap:butt;stroke-linejoin:miter;stroke:rgb(0%,0%,0%);stroke-opacity:1;stroke-miterlimit:4;" d="M 168.500309 226.49987 L 153.00048 227.000098 L 137.000423 225.00022 L 121.000366 227.000098 " transform="matrix(3.779528,0,0,3.779528,0,0)"/>
<path style="fill:none;stroke-width:2;stroke-linecap:butt;stroke-linejoin:miter;stroke:rgb(0%,0%,0%);stroke-opacity:1;stroke-miterlimit:4;" d="M 110.499715 230.000431 L 108.499837 227.99952 L 120.500138 221.499658 L 128.000456 205.000407 L 144.000513 200.999618 L 159.500342 200.999618 L 175.500399 206.500057 " transform="matrix(3.779528,0,0,3.779528,0,0)"/>
<path style="fill:none;stroke-width:2;stroke-linecap:butt;stroke-linejoin:miter;stroke:rgb(0%,0%,0%);stroke-opacity:1;stroke-miterlimit:4;" d="M 186.000016 185.499788 L 178.000505 195.500212 L 162.000448 175.500399 L 146.000391 175.500399 L 128.000456 191.500456 L 134.00009 175.000171 " transform="matrix(3.779528,0,0,3.779528,0,0)"/>
<path style="fill:none;stroke-width:2;stroke-linecap:butt;stroke-linejoin:miter;stroke:rgb(0%,0%,0%);stroke-opacity:1;stroke-miterlimit:4;" d="M 134.00009 169.499731 L 114.000277 185.499788 L 103.499626 201.499845 L 91.500358 215.500024 L 85.499691 209.500391 L 101.999976 193.999528 L 112.000399 171.499609 L 128.000456 163.500098 L 144.000513 164.000326 L 162.000448 162.000448 L 178.000505 164.49952 L 196.000439 176.499821 " transform="matrix(3.779528,0,0,3.779528,0,0)"/>
<path style="fill:none;stroke-width:2;stroke-linecap:butt;stroke-linejoin:miter;stroke:rgb(0%,0%,0%);stroke-opacity:1;stroke-miterlimit:4;" d="M 178.999927 159.500342 L 200.999618 175.500399 L 209.500391 191.500456 L 199.499967 207.500513 L 186.000016 223.000342 L 166.000203 239.499593 L 159.999536 245.50026 L 169.999959 254 L 186.000016 254 L 203.999951 256.500106 L 220.000008 256.500106 L 236.000065 257.000334 L 251.499894 259.000212 L 267.499951 258.499984 L 281.50013 254.500228 L 299.500065 241.999699 L 311.999561 218.00013 L 313.500244 214.000374 L 316.00035 196.000439 L 336.000163 191.99965 L 355.999976 187.999894 L 372.000033 184.500366 L 388.00009 186.000016 L 403.499919 186.000016 L 419.499976 185.499788 L 431.500277 182.999683 L 439.499788 191.500456 L 455.499845 215.500024 L 461.500513 231.500081 L 465.500269 259.500439 L 477.999764 261.500317 L 493.499593 261.500317 L 509.49965 261.999512 " transform="matrix(3.779528,0,0,3.779528,0,0)"/>
<path style="fill:none;stroke-width:2;stroke-linecap:butt;stroke-linejoin:miter;stroke:rgb(0%,0%,0%);stroke-opacity:1;stroke-miterlimit:4;" d="M 490.500293 370.500382 L 488.000187 374.500138 L 490.000065 362.499837 L 497.500382 346.49978 L 497.000155 330.499723 L 498.499805 311.000138 L 492.500171 295.000081 L 490.500293 282.99978 L 479.00022 272.500163 L 490.999487 272.500163 L 486.499504 255.999878 L 488.500415 247.500138 L 488.999609 231.500081 L 489.499837 223.000342 L 483.500203 206.500057 L 484.000431 191.000228 L 486.000309 180.999805 L 470.000252 182.999683 L 453.499967 178.999927 L 438.000138 177.500277 L 422.000081 178.000505 L 389.49974 178.000505 L 373.99991 178.499699 L 357.999854 180.499577 L 341.999797 193.999528 L 325.99974 213.500146 " transform="matrix(3.779528,0,0,3.779528,0,0)"/>
<path style="fill:none;stroke-width:2;stroke-linecap:butt;stroke-linejoin:miter;stroke:rgb(0%,0%,0%);stroke-opacity:1;stroke-miterlimit:4;" d="M 310.49991 214.000374 L 310.49991 198.000317 L 306.500155 193.500334 L 290.500098 207.500513 " transform="matrix(3.779528,0,0,3.779528,0,0)"/>
<path style="fill:none;stroke-width:2;stroke-linecap:butt;stroke-linejoin:miter;stroke:rgb(0%,0%,0%);stroke-opacity:1;stroke-miterlimit:4;" d="M 293.999626 200.000195 L 289.99987 216.000252 L 289.99987 232.000309 " transform="matrix(3.779528,0,0,3.779528,0,0)"/>
<path style="fill:none;stroke-width:2;stroke-linecap:butt;stroke-linejoin:miter;stroke:rgb(0%,0%,0%);stroke-opacity:1;stroke-miterlimit:4;" d="M 295.000081 221.499658 L 300.499487 220.000008 L 306.500155 218.00013 L 321.999984 203.999951 L 325.99974 205.999829 L 324.50009 218.00013 L 308.500033 239.499593 L 286.500342 263.500195 L 295.999504 247.500138 L 305.999927 230.999854 L 319.499878 215.500024 L 329.500301 200.000195 L 345.500358 184.000138 L 319.499878 182.00026 L 303.499821 182.00026 " transform="matrix(3.779528,0,0,3.779528,0,0)"/>
<path style="fill:none;stroke-width:2;stroke-linecap:butt;stroke-linejoin:miter;stroke:rgb(0%,0%,0%);stroke-opacity:1;stroke-miterlimit:4;" d="M 302.999593 194.999984 L 318.99965 189.499544 " transform="matrix(3.779528,0,0,3.779528,0,0)"/>
<path style="fill:none;stroke-width:2;stroke-linecap:butt;stroke-linejoin:miter;stroke:rgb(0%,0%,0%);stroke-opacity:1;stroke-miterlimit:4;" d="M 345.500358 198.499512 L 335.499935 214.499569 " transform="matrix(3.779528,0,0,3.779528,0,0)"/>
<path style="fill:none;stroke-width:2;stroke-linecap:butt;stroke-linejoin:miter;stroke:rgb(0%,0%,0%);stroke-opacity:1;stroke-miterlimit:4;" d="M 353.49987 228.999976 L 337.499813 221.000464 L 321.499756 230.999854 L 313.500244 250.999666 L 298.999837 267.499951 L 275.000269 279.500252 L 268.500407 259.500439 L 258.499984 243.999577 L 254.500228 225.999642 L 232.999731 222.500114 L 236.999487 206.500057 L 261.500317 204.500179 L 277.500374 200.500423 " transform="matrix(3.779528,0,0,3.779528,0,0)"/>
<path style="fill:none;stroke-width:2;stroke-linecap:butt;stroke-linejoin:miter;stroke:rgb(0%,0%,0%);stroke-opacity:1;stroke-miterlimit:4;" d="M 272.500163 200.500423 L 262.999967 216.50048 L 275.000269 218.500358 L 277.000146 234.000187 " transform="matrix(3.779528,0,0,3.779528,0,0)"/>
<path style="fill:none;stroke-width:2;stroke-linecap:butt;stroke-linejoin:miter;stroke:rgb(0%,0%,0%);stroke-opacity:1;stroke-miterlimit:4;" d="M 270.500285 222.500114 L 273.000391 206.500057 " transform="matrix(3.779528,0,0,3.779528,0,0)"/>
<path style="fill:none;stroke-width:2;stroke-linecap:butt;stroke-linejoin:miter;stroke:rgb(0%,0%,0%);stroke-opacity:1;stroke-miterlimit:4;" d="M 244.499805 203.499723 L 248.000366 219.49978 L 246.000488 237.499715 L 248.000366 248.999788 L 264.000423 245.000033 L 268.500407 254.500228 L 284.500464 260.499862 " transform="matrix(3.779528,0,0,3.779528,0,0)"/>
<path style="fill:none;stroke-width:2;stroke-linecap:butt;stroke-linejoin:miter;stroke:rgb(0%,0%,0%);stroke-opacity:1;stroke-miterlimit:4;" d="M 258.499984 205.499601 L 242.499927 203.499723 L 218.500358 216.000252 L 216.999674 232.000309 L 214.999797 236.000065 L 230.999854 212.499691 L 234.999609 196.499634 " transform="matrix(3.779528,0,0,3.779528,0,0)"/>
<path style="fill:none;stroke-width:2;stroke-linecap:butt;stroke-linejoin:miter;stroke:rgb(0%,0%,0%);stroke-opacity:1;stroke-miterlimit:4;" d="M 227.000098 194.999984 L 210.499813 211.000041 L 207.000285 230.999854 L 216.50048 223.000342 L 240.500049 226.49987 L 255.999878 234.500415 L 262.49974 226.49987 L 282.99978 236.000065 L 297.500187 232.000309 " transform="matrix(3.779528,0,0,3.779528,0,0)"/>
<path style="fill:none;stroke-width:2;stroke-linecap:butt;stroke-linejoin:miter;stroke:rgb(0%,0%,0%);stroke-opacity:1;stroke-miterlimit:4;" d="M 345.00013 180.000382 L 329.000073 178.000505 L 313.000016 175.999593 L 280.499674 175.999593 L 264.999845 175.500399 L 248.499561 177.500277 L 232.000309 183.49991 L 216.000252 195.500212 L 200.000195 215.500024 L 184.500366 235.499837 L 180.000382 239.499593 L 193.999528 223.999764 L 205.999829 207.999707 L 220.000008 191.500456 L 252.000122 175.500399 " transform="matrix(3.779528,0,0,3.779528,0,0)"/>
<path style="fill:none;stroke-width:2;stroke-linecap:butt;stroke-linejoin:miter;stroke:rgb(0%,0%,0%);stroke-opacity:1;stroke-miterlimit:4;" d="M 268.500407 190.5 L 252.50035 196.499634 L 234.999609 194.499756 L 218.999552 202.500301 L 192.499878 206.500057 L 186.000016 204.500179 L 169.999959 198.499512 L 153.999902 194.499756 L 137.999845 194.499756 L 121.999788 198.000317 L 115.499927 199.499967 L 119.499683 196.999862 L 105.499504 178.999927 L 127.500228 162.99987 " transform="matrix(3.779528,0,0,3.779528,0,0)"/>
<path style="fill:none;stroke-width:2;stroke-linecap:butt;stroke-linejoin:miter;stroke:rgb(0%,0%,0%);stroke-opacity:1;stroke-miterlimit:4;" d="M 139.999723 258.499984 L 123.999666 257.000334 L 107.999609 257.000334 L 91.999552 257.499528 L 85.999919 253.499772 L 71.99974 259.000212 L 55.999683 259.000212 L 39.500431 258.499984 L 23.500374 258.499984 L 7.500317 259.999634 L 1.49965 270.000057 " transform="matrix(3.779528,0,0,3.779528,0,0)"/>
<path style="fill:none;stroke-width:2;stroke-linecap:butt;stroke-linejoin:miter;stroke:rgb(0%,0%,0%);stroke-opacity:1;stroke-miterlimit:4;" d="M 1.49965 262.999967 L 17.499707 262.999967 L 33.499764 261.00009 L 49.499821 261.500317 " transform="matrix(3.779528,0,0,3.779528,0,0)"/>
<path style="fill:none;stroke-width:2;stroke-linecap:butt;stroke-linejoin:miter;stroke:rgb(0%,0%,0%);stroke-opacity:1;stroke-miterlimit:4;" d="M 17.499707 253.499772 L 1.49965 253.499772 " transform="matrix(3.779528,0,0,3.779528,0,0)"/>
<path style="fill:none;stroke-width:2;stroke-linecap:butt;stroke-linejoin:miter;stroke:rgb(0%,0%,0%);stroke-opacity:1;stroke-miterlimit:4;" d="M 1.999878 247.500138 L 17.999935 247.500138 L 33.999992 248.999788 L 66.000106 248.999788 L 73.999618 261.00009 L 89.999674 261.00009 L 105.999731 259.000212 L 121.499561 259.500439 " transform="matrix(3.779528,0,0,3.779528,0,0)"/>
<path style="fill:none;stroke-width:2;stroke-linecap:butt;stroke-linejoin:miter;stroke:rgb(0%,0%,0%);stroke-opacity:1;stroke-miterlimit:4;" d="M 192.499878 311.500366 L 224.499992 327.500423 L 239.499593 341.499569 L 254 357.499626 L 264.000423 379.50035 L 270.000057 395.999601 " transform="matrix(3.779528,0,0,3.779528,0,0)"/>
<path style="fill:none;stroke-width:2;stroke-linecap:butt;stroke-linejoin:miter;stroke:rgb(0%,0%,0%);stroke-opacity:1;stroke-miterlimit:4;" d="M 268.000179 398.000513 L 273.499585 388.00009 L 277.500374 368.000277 L 259.999634 355.999976 L 248.000366 339.499691 L 229.500203 323.499634 L 197.50009 307.499577 " transform="matrix(3.779528,0,0,3.779528,0,0)"/>
<path style="fill:none;stroke-width:2;stroke-linecap:butt;stroke-linejoin:miter;stroke:rgb(0%,0%,0%);stroke-opacity:1;stroke-miterlimit:4;" d="M 438.999561 460.500057 L 432.999927 466.499691 L 436.999683 470.50048 L 436.999683 486.000309 L 414.999992 490.000065 L 409.000358 495.500505 L 391.000423 495.999699 L 386.999634 500.000488 L 366.999821 510.500106 L 341.499569 506.50035 L 347.500236 508.500228 L 364.999943 500.499683 L 366.999821 482.499748 L 380.499772 488.000187 L 395.999601 472.00013 L 404.000146 459.499601 L 419.499976 455.499845 L 427.499487 469.500024 L 449.500212 469.500024 L 459.499601 459.000407 L 449.500212 468.999797 L 449.500212 482.999976 " transform="matrix(3.779528,0,0,3.779528,0,0)"/>
<path style="fill:none;stroke-width:2;stroke-linecap:butt;stroke-linejoin:miter;stroke:rgb(0%,0%,0%);stroke-opacity:1;stroke-miterlimit:4;" d="M 504.000244 460.500057 L 491.999943 476.500114 L 493.999821 484.000431 L 472.00013 488.000187 L 443.999772 501.500138 L 444.5 509.000456 L 450.499634 503.500016 L 466.499691 493.999821 L 482.499748 488.500415 L 493.000399 476.500114 L 509.000456 461.000285 " transform="matrix(3.779528,0,0,3.779528,0,0)"/>
</g>
</svg>
