<?xml version="1.0" encoding="UTF-8"?>
<svg xmlns="http://www.w3.org/2000/svg" xmlns:xlink="http://www.w3.org/1999/xlink" width="1935.11811" height="1935.11811" viewBox="0 0 1935.11811 1935.11811" version="1.1">
<g id="surface1">
<path style="fill:none;stroke-width:2;stroke-linecap:butt;stroke-linejoin:miter;stroke:rgb(0%,0%,0%);stroke-opacity:1;stroke-miterlimit:4;" d="M 145.500163 250.500472 L 155.499552 266.499495 L 163.500098 282.499552 L 171.499609 298.499609 L 175.500399 314.999894 L 183.49991 330.999951 L 187.499666 347.000008 L 193.500334 363.000065 L 196.999862 379.000122 L 196.999862 394.499951 L 196.499634 410.500008 L 196.999862 426.500065 L 200.999618 458.500179 L 195.500212 474.000008 L 179.500155 483.500203 " transform="matrix(3.779528,0,0,3.779528,0,0)"/>
<path style="fill:none;stroke-width:2;stroke-linecap:butt;stroke-linejoin:miter;stroke:rgb(0%,0%,0%);stroke-opacity:1;stroke-miterlimit:4;" d="M 187.499666 453.499967 L 187.000472 437.49991 L 186.500244 422.000081 L 186.500244 406.500252 L 187.000472 390.500195 L 189.00035 374.500138 L 187.499666 358.500081 L 182.00026 342.500024 L 176.499821 326.499967 L 170.500187 309.999683 L 164.999748 293.500431 L 157.000236 277.500374 L 148.999691 261.500317 L 143.000057 245.50026 L 141.000179 230.000431 L 139.000301 213.500146 L 139.000301 197.50009 L 137.000423 180.999805 L 137.000423 164.999748 L 134.500317 148.999691 L 134.999512 132.999634 L 132.999634 116.999577 L 132.999634 85.499691 L 130.999756 69.999862 L 130.999756 50.000049 L 114.999699 37.999748 L 98.999642 35.99987 L 82.500391 37.49952 L 66.500334 35.99987 L 50.000049 36.500098 L 33.999992 36.500098 L 17.499707 33.999992 L 1.999878 33.999992 " transform="matrix(3.779528,0,0,3.779528,0,0)"/>
<path style="fill:none;stroke-width:2;stroke-linecap:butt;stroke-linejoin:miter;stroke:rgb(0%,0%,0%);stroke-opacity:1;stroke-miterlimit:4;" d="M 1.49965 40.499854 L 17.499707 40.499854 L 33.499764 42.499731 L 65.499878 42.499731 L 81.499935 41.999504 L 98.00022 41.999504 L 114.000277 44.000415 L 122.500016 50.000049 L 124.499894 66.000106 L 125.000122 81.499935 L 125.000122 113.500049 L 124.499894 129.500106 L 123.999666 144.999935 L 123.999666 177.000049 L 125.999544 193.500334 L 123.999666 209.999585 L 121.999788 226.49987 L 134.00009 258.499984 L 141.999601 273.999813 L 139.999723 289.499642 L 144.000513 305.499699 L 147.500041 321.499756 L 141.500407 337.499813 L 169.499731 354.99952 L 159.999536 370.999577 L 170.500187 391.499618 L 178.499699 389.49974 " transform="matrix(3.779528,0,0,3.779528,0,0)"/>
<path style="fill:none;stroke-width:2;stroke-linecap:butt;stroke-linejoin:miter;stroke:rgb(0%,0%,0%);stroke-opacity:1;stroke-miterlimit:4;" d="M 162.99987 347.500236 L 162.99987 329.999495 L 146.999813 293.999626 " transform="matrix(3.779528,0,0,3.779528,0,0)"/>
<path style="fill:none;stroke-width:2;stroke-linecap:butt;stroke-linejoin:miter;stroke:rgb(0%,0%,0%);stroke-opacity:1;stroke-miterlimit:4;" d="M 144.999935 293.500431 L 150.999569 309.500488 L 157.500464 325.499512 L 151.499797 341.499569 L 168.000081 343.000252 " transform="matrix(3.779528,0,0,3.779528,0,0)"/>
<path style="fill:none;stroke-width:2;stroke-linecap:butt;stroke-linejoin:miter;stroke:rgb(0%,0%,0%);stroke-opacity:1;stroke-miterlimit:4;" d="M 168.999504 331.500179 L 153.00048 295.999504 " transform="matrix(3.779528,0,0,3.779528,0,0)"/>
<path style="fill:none;stroke-width:2;stroke-linecap:butt;stroke-linejoin:miter;stroke:rgb(0%,0%,0%);stroke-opacity:1;stroke-miterlimit:4;" d="M 175.500399 320.000106 L 159.500342 277.999569 L 143.500285 252.000122 " transform="matrix(3.779528,0,0,3.779528,0,0)"/>
<path style="fill:none;stroke-width:2;stroke-linecap:butt;stroke-linejoin:miter;stroke:rgb(0%,0%,0%);stroke-opacity:1;stroke-miterlimit:4;" d="M 119.000488 261.500317 L 103.000431 261.500317 " transform="matrix(3.779528,0,0,3.779528,0,0)"/>
<path style="fill:none;stroke-width:2;stroke-linecap:butt;stroke-linejoin:miter;stroke:rgb(0%,0%,0%);stroke-opacity:1;stroke-miterlimit:4;" d="M 91.00013 271.499707 L 106.499959 271.999935 L 123.000244 270.000057 " transform="matrix(3.779528,0,0,3.779528,0,0)"/>
<path style="fill:none;stroke-width:2;stroke-linecap:butt;stroke-linejoin:miter;stroke:rgb(0%,0%,0%);stroke-opacity:1;stroke-miterlimit:4;" d="M 130.000334 361.999609 L 146.000391 366.000399 L 161.50022 368.000277 " transform="matrix(3.779528,0,0,3.779528,0,0)"/>
<path style="fill:none;stroke-width:2;stroke-linecap:butt;stroke-linejoin:miter;stroke:rgb(0%,0%,0%);stroke-opacity:1;stroke-miterlimit:4;" d="M 137.000423 366.499593 L 157.000236 373.99991 L 177.000049 389.999967 " transform="matrix(3.779528,0,0,3.779528,0,0)"/>
<path style="fill:none;stroke-width:2;stroke-linecap:butt;stroke-linejoin:miter;stroke:rgb(0%,0%,0%);stroke-opacity:1;stroke-miterlimit:4;" d="M 177.000049 406.500252 L 160.999992 406.500252 L 144.999935 408.50013 L 128.999878 409.99978 L 112.999821 411.500464 L 96.999764 413.500342 L 80.999707 413.999536 " transform="matrix(3.779528,0,0,3.779528,0,0)"/>
<path style="fill:none;stroke-width:2;stroke-linecap:butt;stroke-linejoin:miter;stroke:rgb(0%,0%,0%);stroke-opacity:1;stroke-miterlimit:4;" d="M 78.000407 394.499951 L 62.00035 388.500317 " transform="matrix(3.779528,0,0,3.779528,0,0)"/>
<path style="fill:none;stroke-width:2;stroke-linecap:butt;stroke-linejoin:miter;stroke:rgb(0%,0%,0%);stroke-opacity:1;stroke-miterlimit:4;" d="M 62.999772 384.499528 L 78.999829 384.499528 L 91.00013 380.499772 L 107.000187 384.000334 L 123.000244 386.000212 L 139.000301 373.499683 " transform="matrix(3.779528,0,0,3.779528,0,0)"/>
<path style="fill:none;stroke-width:2;stroke-linecap:butt;stroke-linejoin:miter;stroke:rgb(0%,0%,0%);stroke-opacity:1;stroke-miterlimit:4;" d="M 78.999829 344.499902 L 62.999772 346.49978 " transform="matrix(3.779528,0,0,3.779528,0,0)"/>
<path style="fill:none;stroke-width:2;stroke-linecap:butt;stroke-linejoin:miter;stroke:rgb(0%,0%,0%);stroke-opacity:1;stroke-miterlimit:4;" d="M 47.499943 341.499569 L 63.5 339.499691 L 80.000285 337.499813 L 96.000342 339.499691 L 128.000456 335.499935 L 144.000513 325.499512 L 155.99978 339.499691 " transform="matrix(3.779528,0,0,3.779528,0,0)"/>
<path style="fill:none;stroke-width:2;stroke-linecap:butt;stroke-linejoin:miter;stroke:rgb(0%,0%,0%);stroke-opacity:1;stroke-miterlimit:4;" d="M 175.500399 398.999935 L 143.500285 402.999691 L 127.500228 403.499919 L 111.500171 406.000024 L 94.999886 408.50013 L 62.999772 412.499886 L 46.499487 414.499764 " transform="matrix(3.779528,0,0,3.779528,0,0)"/>
<path style="fill:none;stroke-width:2;stroke-linecap:butt;stroke-linejoin:miter;stroke:rgb(0%,0%,0%);stroke-opacity:1;stroke-miterlimit:4;" d="M 47.499943 413.000114 L 49.499821 429.000171 L 63.5 445.000228 L 31.499886 477.499536 L 16.000057 490.000065 L 21.999691 482.499748 L 44.000415 478.499992 L 66.000106 476.500114 L 82.000163 472.500358 L 98.500448 466.499691 L 123.000244 468.499569 L 132.999634 472.500358 L 136.500195 466.499691 L 148.500496 464.499813 L 164.49952 458.500179 L 180.499577 454.500423 " transform="matrix(3.779528,0,0,3.779528,0,0)"/>
<path style="fill:none;stroke-width:2;stroke-linecap:butt;stroke-linejoin:miter;stroke:rgb(0%,0%,0%);stroke-opacity:1;stroke-miterlimit:4;" d="M 184.500366 481.500326 L 168.500309 489.499837 L 152.500252 491.999943 L 137.000423 493.999821 L 121.000366 497.999577 L 105.000309 506.50035 L 116.999577 498.499805 " transform="matrix(3.779528,0,0,3.779528,0,0)"/>
<path style="fill:none;stroke-width:2;stroke-linecap:butt;stroke-linejoin:miter;stroke:rgb(0%,0%,0%);stroke-opacity:1;stroke-miterlimit:4;" d="M 98.500448 477.000342 L 127 468.999797 " transform="matrix(3.779528,0,0,3.779528,0,0)"/>
<path style="fill:none;stroke-width:2;stroke-linecap:butt;stroke-linejoin:miter;stroke:rgb(0%,0%,0%);stroke-opacity:1;stroke-miterlimit:4;" d="M 129.500106 479.999642 L 144.000513 464.499813 " transform="matrix(3.779528,0,0,3.779528,0,0)"/>
<path style="fill:none;stroke-width:2;stroke-linecap:butt;stroke-linejoin:miter;stroke:rgb(0%,0%,0%);stroke-opacity:1;stroke-miterlimit:4;" d="M 141.999601 459.499601 L 128.000456 475.499658 L 107.999609 475.999886 L 112.000399 477.999764 L 103.999854 479.500448 L 112.499593 477.499536 " transform="matrix(3.779528,0,0,3.779528,0,0)"/>
<path style="fill:none;stroke-width:2;stroke-linecap:butt;stroke-linejoin:miter;stroke:rgb(0%,0%,0%);stroke-opacity:1;stroke-miterlimit:4;" d="M 105.499504 467.500146 L 79.500057 483.500203 L 79.500057 491.499715 L 95.500114 479.00022 L 111.500171 468.999797 L 127.500228 460.500057 L 144.000513 472.500358 L 160.499764 463.999585 L 177.000049 459.999829 " transform="matrix(3.779528,0,0,3.779528,0,0)"/>
<path style="fill:none;stroke-width:2;stroke-linecap:butt;stroke-linejoin:miter;stroke:rgb(0%,0%,0%);stroke-opacity:1;stroke-miterlimit:4;" d="M 176.499821 464.499813 L 160.499764 470.50048 L 140.499951 482.499748 L 152.500252 466.999919 " transform="matrix(3.779528,0,0,3.779528,0,0)"/>
<path style="fill:none;stroke-width:2;stroke-linecap:butt;stroke-linejoin:miter;stroke:rgb(0%,0%,0%);stroke-opacity:1;stroke-miterlimit:4;" d="M 85.999919 450.999862 L 73.999618 467.500146 L 60.000472 493.499593 " transform="matrix(3.779528,0,0,3.779528,0,0)"/>
<path style="fill:none;stroke-width:2;stroke-linecap:butt;stroke-linejoin:miter;stroke:rgb(0%,0%,0%);stroke-opacity:1;stroke-miterlimit:4;" d="M 48.999593 454.999618 L 32.999536 454.500423 L 16.500285 460.500057 " transform="matrix(3.779528,0,0,3.779528,0,0)"/>
<path style="fill:none;stroke-width:2;stroke-linecap:butt;stroke-linejoin:miter;stroke:rgb(0%,0%,0%);stroke-opacity:1;stroke-miterlimit:4;" d="M 1.49965 445.500456 L 17.499707 451.50009 L 33.999992 451.50009 L 50.000049 450.000439 L 65.499878 445.99965 " transform="matrix(3.779528,0,0,3.779528,0,0)"/>
<path style="fill:none;stroke-width:2;stroke-linecap:butt;stroke-linejoin:miter;stroke:rgb(0%,0%,0%);stroke-opacity:1;stroke-miterlimit:4;" d="M 66.000106 438.999561 L 50.000049 418.49952 " transform="matrix(3.779528,0,0,3.779528,0,0)"/>
<path style="fill:none;stroke-width:2;stroke-linecap:butt;stroke-linejoin:miter;stroke:rgb(0%,0%,0%);stroke-opacity:1;stroke-miterlimit:4;" d="M 51.000505 416.000448 L 59.500244 432.000505 L 69.000439 447.500334 L 63.5 453.499967 L 79.500057 457.499723 " transform="matrix(3.779528,0,0,3.779528,0,0)"/>
<path style="fill:none;stroke-width:2;stroke-linecap:butt;stroke-linejoin:miter;stroke:rgb(0%,0%,0%);stroke-opacity:1;stroke-miterlimit:4;" d="M 42.499731 473.49978 L 26.499674 483.500203 L 10.000423 493.499593 " transform="matrix(3.779528,0,0,3.779528,0,0)"/>
<path style="fill:none;stroke-width:2;stroke-linecap:butt;stroke-linejoin:miter;stroke:rgb(0%,0%,0%);stroke-opacity:1;stroke-miterlimit:4;" d="M 0.500228 477.499536 L 16.500285 477.499536 L 35.499642 487.499959 L 51.999927 479.500448 L 67.999984 465.500269 L 84.000041 450.000439 " transform="matrix(3.779528,0,0,3.779528,0,0)"/>
<path style="fill:none;stroke-width:2;stroke-linecap:butt;stroke-linejoin:miter;stroke:rgb(0%,0%,0%);stroke-opacity:1;stroke-miterlimit:4;" d="M 98.00022 470.000252 L 82.000163 480.49987 L 67.999984 482.499748 L 50.000049 500.000488 L 46.000293 491.999943 L 46.000293 497.500382 L 41.999504 493.499593 L 30.000236 486.000309 L 55.500488 475.499658 L 63.5 469.500024 L 75.500301 453.499967 L 71.99974 437.49991 L 57.999561 421.499854 " transform="matrix(3.779528,0,0,3.779528,0,0)"/>
<path style="fill:none;stroke-width:2;stroke-linecap:butt;stroke-linejoin:miter;stroke:rgb(0%,0%,0%);stroke-opacity:1;stroke-miterlimit:4;" d="M 8.49974 404.999569 L 24.499797 405.499797 L 35.99987 405.499797 L 51.999927 403.499919 L 62.00035 402.000269 L 78.000407 400.000391 L 93.500236 398.000513 L 103.499626 397.500285 L 125.50035 389.49974 L 141.000179 385.499984 L 144.999935 389.49974 L 153.00048 381.500228 L 157.000236 384.000334 L 173.499487 394.499951 " transform="matrix(3.779528,0,0,3.779528,0,0)"/>
<path style="fill:none;stroke-width:2;stroke-linecap:butt;stroke-linejoin:miter;stroke:rgb(0%,0%,0%);stroke-opacity:1;stroke-miterlimit:4;" d="M 23.500374 391.000423 L 7.500317 395.000179 " transform="matrix(3.779528,0,0,3.779528,0,0)"/>
<path style="fill:none;stroke-width:2;stroke-linecap:butt;stroke-linejoin:miter;stroke:rgb(0%,0%,0%);stroke-opacity:1;stroke-miterlimit:4;" d="M 1.49965 366.499593 L 17.499707 364.499715 L 33.499764 364.499715 L 49.499821 362.499837 L 65.499878 361.999609 L 82.000163 359.999731 L 97.499992 359.999731 L 145.500163 354.000098 L 161.50022 354.000098 " transform="matrix(3.779528,0,0,3.779528,0,0)"/>
<path style="fill:none;stroke-width:2;stroke-linecap:butt;stroke-linejoin:miter;stroke:rgb(0%,0%,0%);stroke-opacity:1;stroke-miterlimit:4;" d="M 50.000049 425.499609 L 33.499764 421.499854 L 17.000513 423.499731 L 1.000456 423.999959 " transform="matrix(3.779528,0,0,3.779528,0,0)"/>
<path style="fill:none;stroke-width:2;stroke-linecap:butt;stroke-linejoin:miter;stroke:rgb(0%,0%,0%);stroke-opacity:1;stroke-miterlimit:4;" d="M 1.999878 359.000309 L 17.999935 357.000431 L 27.50013 348.999886 L 43.500187 354.99952 L 75.500301 350.999764 " transform="matrix(3.779528,0,0,3.779528,0,0)"/>
<path style="fill:none;stroke-width:2;stroke-linecap:butt;stroke-linejoin:miter;stroke:rgb(0%,0%,0%);stroke-opacity:1;stroke-miterlimit:4;" d="M 128.000456 314.000472 L 130.000334 298.000415 L 130.000334 281.50013 L 114.000277 266.000301 L 98.00022 266.000301 L 82.500391 270.500285 L 66.500334 270.500285 L 50.500277 272.500163 L 34.50022 272.500163 L 18.500163 274.500041 L 2.500106 274.500041 " transform="matrix(3.779528,0,0,3.779528,0,0)"/>
<path style="fill:none;stroke-width:2;stroke-linecap:butt;stroke-linejoin:miter;stroke:rgb(0%,0%,0%);stroke-opacity:1;stroke-miterlimit:4;" d="M 3.000334 260.499862 L 18.500163 260.499862 L 34.50022 259.999634 L 50.500277 257.999756 L 66.000106 258.499984 L 82.000163 258.499984 L 98.00022 257.999756 L 114.000277 255.49965 L 129.500106 252.999544 L 145.500163 278.499797 L 149.499919 289.99987 L 155.499552 306.500155 L 163.500098 323.000439 " transform="matrix(3.779528,0,0,3.779528,0,0)"/>
<path style="fill:none;stroke-width:2;stroke-linecap:butt;stroke-linejoin:miter;stroke:rgb(0%,0%,0%);stroke-opacity:1;stroke-miterlimit:4;" d="M 193.999528 357.499626 L 178.000505 313.500244 L 162.499642 273.000391 L 146.499585 247.500138 L 130.499528 248.000366 L 114.500505 248.000366 L 98.999642 250.500472 L 82.500391 248.499561 L 66.500334 246.499683 L 50.500277 248.499561 L 2.500106 248.499561 " transform="matrix(3.779528,0,0,3.779528,0,0)"/>
<path style="fill:none;stroke-width:2;stroke-linecap:butt;stroke-linejoin:miter;stroke:rgb(0%,0%,0%);stroke-opacity:1;stroke-miterlimit:4;" d="M 2.500106 231.500081 L 33.999992 231.500081 L 50.000049 230.999854 L 66.000106 228.999976 L 82.500391 228.499748 L 114.000277 228.499748 " transform="matrix(3.779528,0,0,3.779528,0,0)"/>
<path style="fill:none;stroke-width:2;stroke-linecap:butt;stroke-linejoin:miter;stroke:rgb(0%,0%,0%);stroke-opacity:1;stroke-miterlimit:4;" d="M 97.499992 194.499756 L 82.000163 192.499878 L 50.000049 192.499878 L 33.999992 193.999528 L 1.999878 193.999528 " transform="matrix(3.779528,0,0,3.779528,0,0)"/>
<path style="fill:none;stroke-width:2;stroke-linecap:butt;stroke-linejoin:miter;stroke:rgb(0%,0%,0%);stroke-opacity:1;stroke-miterlimit:4;" d="M 1.49965 188.500122 L 17.499707 186.500244 L 48.999593 186.500244 L 64.500456 186.000016 L 80.500513 186.000016 L 96.499536 183.49991 " transform="matrix(3.779528,0,0,3.779528,0,0)"/>
<path style="fill:none;stroke-width:2;stroke-linecap:butt;stroke-linejoin:miter;stroke:rgb(0%,0%,0%);stroke-opacity:1;stroke-miterlimit:4;" d="M 97.499992 183.49991 L 95.500114 167.499854 L 97.499992 151.499797 L 97.499992 134.999512 L 95.500114 119.000488 L 98.999642 103.000431 L 96.999764 91.500358 L 80.999707 87.499569 L 64.99965 87.999797 L 48.999593 85.999919 L 32.999536 86.500146 L 0.500228 86.500146 " transform="matrix(3.779528,0,0,3.779528,0,0)"/>
<path style="fill:none;stroke-width:2;stroke-linecap:butt;stroke-linejoin:miter;stroke:rgb(0%,0%,0%);stroke-opacity:1;stroke-miterlimit:4;" d="M 1.000456 76.499723 L 17.000513 76.499723 L 32.999536 75.999495 L 48.999593 77.500179 L 64.99965 77.500179 L 80.999707 78.999829 L 97.499992 78.999829 L 105.999731 87.499569 L 105.999731 135.49974 L 103.999854 151.499797 L 103.999854 166.999626 L 105.999731 182.999683 " transform="matrix(3.779528,0,0,3.779528,0,0)"/>
</g>
</svg>
