<svg xmlns="http://www.w3.org/2000/svg" width="512mm" height="512mm" viewBox="0 0 512 512" version="1.1"><polyline points="363.5,18.5,343.5,34.5,323.5,48.5,323.5,40.5,349.5,31.0,365.5,21.0,381.5,41.0,399.5,55.0" stroke="black" stroke-width="2" fill="none" />
<polyline points="400.0,39.0,416.0,69.5" stroke="black" stroke-width="2" fill="none" />
<polyline points="405.5,97.0,421.0,95.0,439.0,93.0,447.0,109.5,456.5,125.5,449.0,141.5,451.0,148.0,439.0,164.0,429.0,180.0,415.5,172.5,390.0,188.0,386.0,204.5,371.5,202.5,387.0,204.5,390.5,194.0,400.5,188.5,416.5,168.5" stroke="black" stroke-width="2" fill="none" />
<polyline points="399.5,153.5,391.5,169.5" stroke="black" stroke-width="2" fill="none" />
<polyline points="405.0,144.0,379.0,159.5,379.5,171.5,372.0,183.5,374.5,197.5,390.5,188.0,407.0,176.0,425.0,182.0,442.5,178.0,458.5,174.0,460.5,170.5" stroke="black" stroke-width="2" fill="none" />
<polyline points="451.5,178.5,467.0,178.0,483.0,178.0,498.5,178.0" stroke="black" stroke-width="2" fill="none" />
<polyline points="499.0,153.5,482.5,153.0,466.5,153.0" stroke="black" stroke-width="2" fill="none" />
<polyline points="460.0,157.0,476.0,161.0,492.0,161.0" stroke="black" stroke-width="2" fill="none" />
<polyline points="485.5,118.0,501.5,102.0" stroke="black" stroke-width="2" fill="none" />
<polyline points="504.0,119.0,488.0,117.0" stroke="black" stroke-width="2" fill="none" />
<polyline points="479.0,118.5,495.0,100.5" stroke="black" stroke-width="2" fill="none" />
<polyline points="488.0,131.5,473.5,131.0,479.0,115.0,493.0,111.5,505.0,101.5,509.0,88.0,497.0,76.5,493.0,60.5" stroke="black" stroke-width="2" fill="none" />
<polyline points="495.0,58.5,493.0,74.5,503.0,82.0,485.0,98.0,476.5,114.0,466.5,113.5,462.5,111.5,470.5,124.0,486.5,96.0,503.0,82.0,511.0,98.0" stroke="black" stroke-width="2" fill="none" />
<polyline points="510.5,151.0,494.5,150.5,478.0,150.5,462.5,150.5,446.5,164.5" stroke="black" stroke-width="2" fill="none" />
<polyline points="445.5,146.5,451.5,156.5,445.5,172.5,437.5,184.5,449.5,170.5,465.5,164.5,481.5,166.5,497.5,166.5" stroke="black" stroke-width="2" fill="none" />
<polyline points="497.0,184.5,481.0,184.5,465.0,183.0,449.0,183.0" stroke="black" stroke-width="2" fill="none" />
<polyline points="465.0,221.5,455.0,237.5,445.0,253.5,440.5,257.5,456.0,233.0,482.0,231.0,498.0,253.0" stroke="black" stroke-width="2" fill="none" />
<polyline points="503.5,253.5,487.5,231.5" stroke="black" stroke-width="2" fill="none" />
<polyline points="481.5,233.0,489.5,249.0,481.5,241.0,499.5,225.5,507.5,235.5" stroke="black" stroke-width="2" fill="none" />
<polyline points="505.0,238.5,501.0,220.0,484.5,224.0,468.5,235.5,452.5,258.0,436.5,275.5,432.5,265.5,439.0,251.5,446.5,235.5,454.5,227.5,450.0,209.5,434.0,207.5,417.5,207.5,401.0,201.0" stroke="black" stroke-width="2" fill="none" />
<polyline points="406.0,202.0,422.0,202.0,438.0,202.0,454.0,202.0,470.0,203.5,486.0,207.5,502.0,205.5" stroke="black" stroke-width="2" fill="none" />
<polyline points="493.0,220.0,469.0,235.5,457.0,251.0,445.0,267.0,429.0,283.0,406.5,303.0,399.0,319.0,397.0,335.0,397.0,351.5,399.0,367.5,407.0,384.0,413.0,393.5,429.0,381.5" stroke="black" stroke-width="2" fill="none" />
<polyline points="425.5,432.5,441.0,428.5,461.5,430.0,477.5,423.5" stroke="black" stroke-width="2" fill="none" />
<polyline points="483.0,424.0,467.0,434.5,443.0,432.5,427.0,436.5" stroke="black" stroke-width="2" fill="none" />
<polyline points="427.5,366.5,434.0,350.5,428.0,335.0,424.0,311.0" stroke="black" stroke-width="2" fill="none" />
<polyline points="422.0,306.0,432.0,324.5,440.0,340.0,441.5,356.0,439.5,371.5,429.5,387.0" stroke="black" stroke-width="2" fill="none" />
<polyline points="450.5,350.0,450.5,334.0,444.5,318.0,432.5,302.0,422.0,306.0" stroke="black" stroke-width="2" fill="none" />
<polyline points="422.0,296.5,406.0,312.5,402.5,328.5,402.5,345.0,402.5,361.0,410.5,363.0,410.5,379.0,406.5,381.5,418.5,397.5,434.5,383.5" stroke="black" stroke-width="2" fill="none" />
<polyline points="421.5,368.0,409.5,352.0,409.5,338.0,413.0,322.0,413.0,320.0" stroke="black" stroke-width="2" fill="none" />
<polyline points="406.5,318.0,423.0,316.0,438.5,336.0,437.0,344.0,437.0,360.0,431.5,376.0,413.5,392.0" stroke="black" stroke-width="2" fill="none" />
<polyline points="435.0,340.0,419.0,346.5,426.5,366.0,414.5,386.5,414.5,370.5,420.5,355.0,420.5,339.0,421.0,323.0,405.0,323.5" stroke="black" stroke-width="2" fill="none" />
<polyline points="404.0,317.0,420.0,299.0,436.0,305.0" stroke="black" stroke-width="2" fill="none" />
<polyline points="445.0,307.5,429.5,292.0,413.5,296.0,397.5,320.0" stroke="black" stroke-width="2" fill="none" />
<polyline points="429.5,294.0,445.5,310.0,453.5,326.0,454.0,341.5,464.5,357.5,480.5,357.5" stroke="black" stroke-width="2" fill="none" />
<polyline points="481.0,267.5,465.0,267.5" stroke="black" stroke-width="2" fill="none" />
<polyline points="466.0,267.5,476.0,283.5,470.0,299.5" stroke="black" stroke-width="2" fill="none" />
<polyline points="498.5,295.5,498.5,292.0,476.0,282.0,468.0,294.5,458.5,292.5,454.0,305.0,446.0,289.0,449.5,271.0,461.5,255.0,477.0,253.0,461.0,259.0" stroke="black" stroke-width="2" fill="none" />
<polyline points="456.0,269.0,468.0,285.0" stroke="black" stroke-width="2" fill="none" />
<polyline points="476.0,257.5,492.5,257.5" stroke="black" stroke-width="2" fill="none" />
<polyline points="483.5,247.0,467.5,247.0,451.5,270.5,435.5,286.5,415.5,274.5,399.0,280.5,382.5,288.5,362.5,306.5,360.5,301.0,350.0,324.5,347.5,316.5,367.0,306.0,377.0,289.5,403.0,273.5" stroke="black" stroke-width="2" fill="none" />
<polyline points="399.5,274.0,365.5,290.0,344.0,306.0,304.0,326.0,320.0,326.5,320.0,320.5,336.0,314.5,352.5,298.0,368.5,288.0,384.5,281.5" stroke="black" stroke-width="2" fill="none" />
<polyline points="355.0,286.5,331.0,302.5,304.5,319.0" stroke="black" stroke-width="2" fill="none" />
<polyline points="304.5,351.5,288.5,349.5" stroke="black" stroke-width="2" fill="none" />
<polyline points="287.0,347.5,303.0,343.5" stroke="black" stroke-width="2" fill="none" />
<polyline points="317.0,354.5,300.5,358.5,284.5,356.5" stroke="black" stroke-width="2" fill="none" />
<polyline points="258.5,306.0,248.5,298.0,229.0,314.5,225.0,334.5,209.5,330.0,201.5,328.0,199.5,312.0,214.0,296.0,235.5,280.0,271.5,264.0,297.0,252.0,322.5,236.5,344.5,214.5,328.0,228.5,312.0,222.5,295.5,208.5" stroke="black" stroke-width="2" fill="none" />
<polyline points="297.0,208.5,315.0,224.0" stroke="black" stroke-width="2" fill="none" />
<polyline points="311.0,225.5,295.0,211.5" stroke="black" stroke-width="2" fill="none" />
<polyline points="287.5,210.0,299.5,226.0" stroke="black" stroke-width="2" fill="none" />
<polyline points="303.0,228.0,287.0,210.0" stroke="black" stroke-width="2" fill="none" />
<polyline points="280.5,204.5,296.0,204.5,312.0,206.5,327.5,204.5,345.5,207.0,339.5,206.5,338.5,223.0" stroke="black" stroke-width="2" fill="none" />
<polyline points="347.5,210.5,363.5,214.5" stroke="black" stroke-width="2" fill="none" />
<polyline points="362.5,207.0,346.5,205.0" stroke="black" stroke-width="2" fill="none" />
<polyline points="340.5,171.0,324.5,184.5,308.5,184.5,292.5,183.0,276.5,183.0,260.0,183.0,244.0,183.0,227.5,182.5,211.5,184.5,195.0,188.0,179.0,192.0" stroke="black" stroke-width="2" fill="none" />
<polyline points="190.5,186.5,187.0,202.5,191.0,219.0,197.0,237.5,205.0,229.5,221.0,205.5,237.0,189.5,251.0,201.5,266.5,201.0,282.5,197.0,299.0,198.5,315.0,198.5,330.5,199.0,346.5,199.0,362.0,199.5" stroke="black" stroke-width="2" fill="none" />
<polyline points="297.0,204.0,303.0,219.5,313.0,235.5,285.0,264.0,297.0,266.5,313.0,270.5,329.0,270.5,344.5,270.5,360.5,270.5,376.5,270.5,393.0,272.5" stroke="black" stroke-width="2" fill="none" />
<polyline points="370.0,282.5,354.0,288.5,337.5,299.0,321.5,308.5,305.5,320.5,297.5,318.0,321.5,301.0,351.5,285.0" stroke="black" stroke-width="2" fill="none" />
<polyline points="345.5,287.5,329.5,298.0,313.0,308.5,297.5,318.5,281.5,322.5,265.5,322.5,250.0,322.5,234.0,328.5,218.0,324.5,228.0,314.5,248.0,298.0,254.0,308.0,256.0,299.5,240.0,311.5" stroke="black" stroke-width="2" fill="none" />
<polyline points="234.0,327.5,250.5,327.5,267.0,325.5,283.5,325.5,301.0,340.0,317.5,340.0" stroke="black" stroke-width="2" fill="none" />
<polyline points="274.5,261.5,258.5,270.0,242.0,276.0,226.0,284.5,210.0,299.0,193.5,317.0" stroke="black" stroke-width="2" fill="none" />
<polyline points="191.0,327.0,189.0,343.0,193.0,359.0,200.5,374.5" stroke="black" stroke-width="2" fill="none" />
<polyline points="200.0,397.5,216.0,395.0" stroke="black" stroke-width="2" fill="none" />
<polyline points="232.0,391.5,216.0,382.0,212.0,378.0,206.0,392.0,190.5,398.5" stroke="black" stroke-width="2" fill="none" />
<polyline points="195.0,399.5,211.5,409.5,227.5,415.5,243.5,420.0,259.5,426.0" stroke="black" stroke-width="2" fill="none" />
<polyline points="254.5,428.5,238.0,425.0,221.5,421.0,205.5,413.5,189.5,403.5" stroke="black" stroke-width="2" fill="none" />
<polyline points="196.5,403.0,230.5,418.5" stroke="black" stroke-width="2" fill="none" />
<polyline points="205.5,413.5,199.5,398.0" stroke="black" stroke-width="2" fill="none" />
<polyline points="203.5,334.0,187.5,328.5" stroke="black" stroke-width="2" fill="none" />
<polyline points="183.5,330.5,199.0,304.5,215.0,288.5,231.0,276.5,246.5,268.0,262.0,262.0,278.0,258.0,285.5,270.0" stroke="black" stroke-width="2" fill="none" />
<polyline points="250.0,264.0,223.5,280.0,205.0,295.5,191.0,311.5,183.0,327.5,181.0,344.0,185.0,360.0,195.0,376.0,205.5,376.0,221.5,380.0,237.5,380.0" stroke="black" stroke-width="2" fill="none" />
<polyline points="144.5,337.5,140.5,325.5,133.0,309.5,153.0,295.5,163.0,279.5,173.0,271.5,157.0,287.5,141.0,303.5,140.5,309.5" stroke="black" stroke-width="2" fill="none" />
<polyline points="146.5,306.5,162.5,294.5" stroke="black" stroke-width="2" fill="none" />
<polyline points="151.5,266.0,137.0,282.0,129.0,297.5,127.0,313.5,135.0,329.5,156.5,345.5,128.5,359.5,154.5,375.5" stroke="black" stroke-width="2" fill="none" />
<polyline points="164.5,377.5,148.5,371.0,132.0,360.5" stroke="black" stroke-width="2" fill="none" />
<polyline points="171.0,376.5,155.0,368.0,151.0,354.0,137.0,343.5,121.0,337.5,104.5,333.5,88.5,334.0,84.5,328.0,80.0,316.5,64.0,306.5,48.0,293.0,44.0,273.0,54.0,263.5,48.5,247.0,40.5,237.0,64.5,221.0,54.5,204.5,58.5,188.5,60.5,173.0,44.5,156.5,49.0,147.0,61.5,131.0,47.5,115.0,41.5,110.5,25.5,124.5" stroke="black" stroke-width="2" fill="none" />
<polyline points="27.5,128.5,29.5,144.5,27.5,160.5,23.5,186.5,15.5,202.0,10.0,218.0,13.5,234.0,17.5,250.0,11.5,266.0,9.5,282.0,7.5,298.0,11.5,306.0,17.0,322.5" stroke="black" stroke-width="2" fill="none" />
<polyline points="17.5,308.0,15.5,291.5,15.0,276.0,15.0,244.0" stroke="black" stroke-width="2" fill="none" />
<polyline points="33.5,245.5,49.5,231.5,65.5,223.5" stroke="black" stroke-width="2" fill="none" />
<polyline points="58.0,222.0,42.0,232.0,32.5,208.5,43.0,192.5,41.0,184.0,51.0,174.0,38.5,156.0,38.5,139.5,36.0,124.0,32.0,100.0" stroke="black" stroke-width="2" fill="none" />
<polyline points="22.0,74.0,38.0,80.0,54.0,72.0" stroke="black" stroke-width="2" fill="none" />
<polyline points="88.5,59.0,84.5,58.5,78.5,64.5,84.5,70.5,106.5,78.5" stroke="black" stroke-width="2" fill="none" />
<polyline points="110.5,74.0,94.5,57.5" stroke="black" stroke-width="2" fill="none" />
<polyline points="95.0,59.0,96.5,75.0,99.0,67.0" stroke="black" stroke-width="2" fill="none" />
<polyline points="98.0,60.0,109.5,76.0" stroke="black" stroke-width="2" fill="none" />
<polyline points="113.0,110.0,129.0,108.0,149.0,134.0,133.0,138.0,113.0,150.0,99.0,154.0,97.0,170.0,109.0,170.0,115.0,190.0,101.0,206.0,92.5,220.0,105.0,214.0,121.0,216.0,133.0,208.0,149.0,194.5" stroke="black" stroke-width="2" fill="none" />
<polyline points="142.0,189.5,120.0,183.5,130.0,156.0,132.5,140.0,140.5,142.0" stroke="black" stroke-width="2" fill="none" />
<polyline points="136.5,131.0,144.0,153.0,148.0,153.5,164.0,169.5,180.0,159.5" stroke="black" stroke-width="2" fill="none" />
<polyline points="182.0,147.0,166.0,135.0" stroke="black" stroke-width="2" fill="none" />
<polyline points="160.5,135.0,176.5,137.0,192.0,151.5,212.0,123.0,212.0,129.0,228.0,120.5,234.0,132.5,250.5,130.0,266.5,126.0,276.5,113.5,293.0,113.5,309.0,121.5,325.0,126.0,341.0,118.0,357.0,112.5,373.0,112.5,389.0,118.5,405.5,126.5,421.5,124.5,429.5,134.5" stroke="black" stroke-width="2" fill="none" />
<polyline points="422.0,127.0,424.0,123.0,431.5,139.0,421.5,155.0,421.5,161.0,413.5,163.0,391.0,178.5,389.0,198.5,401.5,202.0,407.5,196.0,423.5,196.0,439.0,196.0,455.0,197.5,471.0,197.5,487.0,199.5,502.5,191.5,496.5,195.5" stroke="black" stroke-width="2" fill="none" />
<polyline points="490.0,225.5,494.0,241.5,506.0,257.0,496.0,263.0" stroke="black" stroke-width="2" fill="none" />
<polyline points="507.5,243.5,497.5,227.5" stroke="black" stroke-width="2" fill="none" />
<polyline points="455.5,123.0,439.5,97.0" stroke="black" stroke-width="2" fill="none" />
<polyline points="437.5,92.5,453.5,100.5,451.5,110.0,463.5,126.0" stroke="black" stroke-width="2" fill="none" />
<polyline points="420.5,142.5,404.5,147.0,388.5,157.0,373.0,157.0,357.0,156.5,341.0,152.0,325.0,165.5,309.0,165.5,293.0,167.5,277.0,165.5" stroke="black" stroke-width="2" fill="none" />
<polyline points="257.0,151.5,241.0,143.5,225.5,143.5,218.0,149.5,200.0,151.5,182.0,157.5,180.5,141.5,163.0,122.0,175.5,114.0,185.5,98.0,184.0,112.0" stroke="black" stroke-width="2" fill="none" />
<polyline points="186.0,96.0,168.5,108.0,159.0,134.0,143.0,123.5,127.5,123.0" stroke="black" stroke-width="2" fill="none" />
<polyline points="113.0,113.5,115.5,115.5,125.0,115.5,149.0,127.5,168.5,144.0,176.0,160.0,154.0,177.5,148.5,193.0,132.5,209.5,111.0,207.5,93.0,233.5,83.0,249.5,75.0,265.5,71.0,281.5,77.0,298.0,79.0,314.5,87.0,331.0" stroke="black" stroke-width="2" fill="none" />
<polyline points="80.5,308.0,94.5,324.0,124.5,339.5" stroke="black" stroke-width="2" fill="none" />
<polyline points="134.0,355.5,128.0,345.5,112.0,339.0,96.5,335.0,80.5,305.0,60.0,289.5,36.0,287.5,36.0,274.0,35.5,258.0,36.0,230.0,38.0,214.0,34.0,198.0,32.0,182.0,16.0,202.0" stroke="black" stroke-width="2" fill="none" />
<polyline points="10.0,209.5,25.5,209.5" stroke="black" stroke-width="2" fill="none" />
<polyline points="15.0,212.0,19.0,228.0,21.0,243.5,26.5,261.5,24.5,278.0" stroke="black" stroke-width="2" fill="none" />
<polyline points="40.5,259.5,56.5,266.0,52.0,268.0,51.5,284.0" stroke="black" stroke-width="2" fill="none" />
<polyline points="55.5,268.0,57.5,284.0,55.0,300.5" stroke="black" stroke-width="2" fill="none" />
<polyline points="70.5,275.5,86.5,243.5,102.5,235.5,118.5,231.0,134.5,223.0,150.5,201.0,166.0,179.0" stroke="black" stroke-width="2" fill="none" />
<polyline points="165.0,202.5,161.0,218.5,162.5,234.5,162.5,220.5" stroke="black" stroke-width="2" fill="none" />
<polyline points="159.0,205.5,152.5,222.0,149.0,238.0" stroke="black" stroke-width="2" fill="none" />
<polyline points="148.5,264.0,132.5,272.0,130.0,282.0,114.0,284.0" stroke="black" stroke-width="2" fill="none" />
<polyline points="100.0,293.0,116.0,291.0,119.5,276.5,135.5,274.5" stroke="black" stroke-width="2" fill="none" />
<polyline points="126.5,260.0,110.0,274.0,94.0,287.5,110.0,273.5,128.5,257.0" stroke="black" stroke-width="2" fill="none" />
<polyline points="118.0,250.5,102.0,254.0,95.5,280.5,111.5,260.5,128.0,254.5,144.5,250.5,160.5,246.5,176.5,244.0,192.5,232.0" stroke="black" stroke-width="2" fill="none" />
<polyline points="184.5,230.5,168.0,238.5,152.0,244.5,135.5,246.5,119.5,250.0,103.5,256.0" stroke="black" stroke-width="2" fill="none" />
<polyline points="100.5,253.5,116.5,245.5,133.0,241.5" stroke="black" stroke-width="2" fill="none" />
<polyline points="116.5,221.5,100.5,219.0" stroke="black" stroke-width="2" fill="none" />
<polyline points="106.0,203.5,122.0,201.5" stroke="black" stroke-width="2" fill="none" />
<polyline points="128.5,238.0,112.5,244.0,96.0,252.5,80.0,273.0" stroke="black" stroke-width="2" fill="none" />
<polyline points="81.0,278.5,96.5,266.5,104.5,266.0,95.0,281.5,93.5,297.5,102.0,299.5,118.0,299.5,142.0,275.5,150.0,261.5" stroke="black" stroke-width="2" fill="none" />
<polyline points="115.0,228.5,99.0,232.5,83.0,240.5,71.5,236.5,57.5,242.0,63.5,238.0,69.0,238.0,85.0,216.0,91.0,200.0,86.5,172.0,82.0,155.5,82.0,151.0,65.5,153.0,49.5,159.0" stroke="black" stroke-width="2" fill="none" />
<polyline points="52.0,164.5,68.0,160.5,66.0,160.0,62.0,150.0,78.0,145.5,92.5,141.0,94.5,133.5,110.5,135.5" stroke="black" stroke-width="2" fill="none" />
<polyline points="82.0,132.0,98.0,128.5,114.0,130.5,130.0,132.5,146.0,132.5,162.0,144.0,160.5,151.5,158.5,157.5,168.5,177.5,186.5,181.5,173.0,197.5,175.0,213.5,184.5,217.5,164.5,239.5,176.5,222.0,184.0,214.0" stroke="black" stroke-width="2" fill="none" />
<polyline points="198.0,185.5,190.5,201.5,194.5,217.5,192.5,234.0,202.5,246.0,218.5,246.0,234.5,250.0,250.5,250.0,266.0,249.5,281.5,243.5,297.5,261.0,313.5,265.0,329.5,266.0,345.5,266.5,361.5,266.5,377.5,267.0,394.0,266.5,410.0,268.5,412.0,268.0,427.5,266.0,446.0,228.0,462.0,218.0" stroke="black" stroke-width="2" fill="none" />
<polyline points="373.5,128.5,363.5,127.0,389.5,125.0,374.0,123.0,358.0,123.0,342.0,123.5" stroke="black" stroke-width="2" fill="none" />
<polyline points="334.5,88.5,314.0,72.5,304.0,56.5,301.5,52.5,295.0,42.5,304.5,33.0,300.5,27.0" stroke="black" stroke-width="2" fill="none" />
<polyline points="280.5,35.0,284.5,31.0,284.5,47.5,274.5,63.5,275.0,64.0,285.0,66.0,295.0,44.5,309.0,40.5,309.0,63.0,325.0,81.0" stroke="black" stroke-width="2" fill="none" />
<polyline points="327.0,86.5,311.0,72.5,291.0,64.5,283.0,60.0,295.0,52.0,287.0,42.0,276.5,52.0" stroke="black" stroke-width="2" fill="none" />
<polyline points="252.0,60.5,236.0,78.5,220.0,88.5,212.0,102.5,196.0,122.5,202.0,124.5,212.0,108.0,208.5,86.0,190.5,70.0,164.5,76.0" stroke="black" stroke-width="2" fill="none" />
<polyline points="179.5,70.5,199.5,86.5,185.0,110.5,177.0,116.5,164.5,136.0,182.5,164.0,198.5,165.5,215.0,163.5,219.0,169.5" stroke="black" stroke-width="2" fill="none" />
<polyline points="210.5,148.0,212.5,131.5,212.5,123.5,221.0,107.5,221.0,105.5" stroke="black" stroke-width="2" fill="none" />
<polyline points="228.5,101.5,230.5,123.5,239.0,139.0" stroke="black" stroke-width="2" fill="none" />
<polyline points="247.5,103.5,264.0,109.5,280.0,110.0,282.0,104.5,288.0,100.5,304.0,106.0,320.0,118.0" stroke="black" stroke-width="2" fill="none" />
<polyline points="318.0,110.0,302.5,98.0,286.0,90.5" stroke="black" stroke-width="2" fill="none" />
<polyline points="282.5,95.5,294.0,111.5,300.0,119.5,320.0,129.0,336.0,141.0,352.5,138.5,368.5,138.5,386.0,134.5,404.0,132.5" stroke="black" stroke-width="2" fill="none" />
<polyline points="387.5,52.0,387.5,36.0,406.0,34.0,390.0,26.0" stroke="black" stroke-width="2" fill="none" />
<polyline points="398.0,29.5,400.0,45.5,407.5,61.5,421.5,71.5,421.5,67.5,438.0,48.0,454.0,47.5,468.0,43.5,472.0,48.0" stroke="black" stroke-width="2" fill="none" />
<polyline points="450.0,43.5,442.0,59.5" stroke="black" stroke-width="2" fill="none" />
<polyline points="430.0,57.5,444.0,41.0" stroke="black" stroke-width="2" fill="none" />
<polyline points="401.0,28.0,393.5,30.0,395.0,45.5,401.5,61.5" stroke="black" stroke-width="2" fill="none" />
<polyline points="377.0,37.5,361.0,23.5" stroke="black" stroke-width="2" fill="none" />
<polyline points="361.5,25.0,375.5,41.0" stroke="black" stroke-width="2" fill="none" />
<polyline points="377.0,37.5,365.0,21.5" stroke="black" stroke-width="2" fill="none" />
<polyline points="315.0,80.5,300.5,64.5" stroke="black" stroke-width="2" fill="none" />
<polyline points="294.5,94.5,316.5,110.5,330.5,126.5,328.5,150.5,348.5,156.5" stroke="black" stroke-width="2" fill="none" />
<polyline points="308.0,126.0,292.0,119.5,278.0,125.5,258.0,137.5,246.0,113.5,230.0,95.5" stroke="black" stroke-width="2" fill="none" />
<polyline points="249.0,98.5,265.0,102.5,281.0,98.0,293.0,98.0,315.0,114.0,324.5,134.0,318.0,144.0,325.5,160.5,329.5,180.5,333.0,182.5,349.0,176.5,363.0,162.5,365.0,174.5,387.0,182.0,403.0,170.0,413.0,148.0,433.0,140.0,441.0,128.0" stroke="black" stroke-width="2" fill="none" />
<polyline points="313.0,137.0,297.0,135.0,281.0,133.0,266.0,133.0,256.0,144.5,252.5,144.5,244.5,128.0,245.0,112.0,229.5,95.5,204.0,120.0" stroke="black" stroke-width="2" fill="none" />
<polyline points="198.5,84.5,182.5,73.0" stroke="black" stroke-width="2" fill="none" />
<polyline points="180.0,65.0,195.5,73.5,211.5,75.5,227.5,75.5" stroke="black" stroke-width="2" fill="none" />
<polyline points="247.5,60.5,239.5,76.5,251.5,54.5" stroke="black" stroke-width="2" fill="none" />
<polyline points="237.5,49.5,233.5,65.5,231.5,89.5,225.5,103.0,231.5,119.0,225.5,126.5,224.0,142.5,230.5,158.0,235.0,154.0,255.5,160.0,272.0,164.0,288.0,162.0,303.5,162.0,319.0,173.5,338.5,187.5,354.5,190.0,370.0,185.5,388.0,173.5,404.0,159.0,420.0,155.5,434.0,153.5,432.0,147.5,442.0,157.0,458.0,143.0,474.5,139.5,490.5,137.5,506.5,133.0,508.5,137.0" stroke="black" stroke-width="2" fill="none" />
<polyline points="481.5,209.5,466.0,211.5,450.0,214.0,434.5,214.0,419.0,214.5,403.0,214.5,387.5,214.5,371.5,218.5,355.0,222.5,339.0,228.0,323.0,236.0,307.0,243.5,291.0,256.0,279.0,250.0,267.0,234.5,267.0,218.5,267.0,202.5" stroke="black" stroke-width="2" fill="none" />
<polyline points="274.0,206.0,274.0,222.0,273.5,238.0" stroke="black" stroke-width="2" fill="none" />
<polyline points="242.5,234.0,244.5,218.0,248.5,202.0,252.0,206.0" stroke="black" stroke-width="2" fill="none" />
<polyline points="253.0,205.5,251.0,221.5" stroke="black" stroke-width="2" fill="none" />
<polyline points="233.5,204.5,211.5,226.5,209.5,229.0,222.0,213.0,234.0,196.5" stroke="black" stroke-width="2" fill="none" />
<polyline points="237.5,187.5,221.5,203.5,210.0,219.5,216.0,239.5,232.0,243.5,246.0,243.5,262.0,245.5,276.0,225.5,278.0,231.5,293.5,228.0,303.5,240.0" stroke="black" stroke-width="2" fill="none" />
<polyline points="290.0,232.0,284.0,220.5,280.0,204.5" stroke="black" stroke-width="2" fill="none" />
<polyline points="242.0,266.0,226.5,270.0,210.5,284.0,194.5,294.0,196.5,288.0,210.5,284.5,228.5,268.5" stroke="black" stroke-width="2" fill="none" />
<polyline points="231.0,263.0,215.0,268.5,199.0,276.0,195.5,287.5,189.5,287.0,205.5,276.5,229.5,260.0" stroke="black" stroke-width="2" fill="none" />
<polyline points="177.5,215.5,177.5,199.0,191.5,183.0" stroke="black" stroke-width="2" fill="none" />
<polyline points="128.5,186.0,110.0,191.5,108.0,181.5,120.5,159.0,117.0,151.5,121.0,135.5,86.5,127.5,70.5,129.5" stroke="black" stroke-width="2" fill="none" />
<polyline points="72.0,134.0,88.0,140.0,108.5,148.0,98.5,164.0,94.5,180.0" stroke="black" stroke-width="2" fill="none" />
<polyline points="80.5,165.5,76.5,175.5,60.5,171.5" stroke="black" stroke-width="2" fill="none" />
<polyline points="62.5,185.0,68.5,189.5,68.0,205.5,62.0,225.5,40.0,242.0,32.0,256.0,47.5,246.0,63.5,249.5,79.5,235.5,71.0,241.5,63.0,257.5,69.0,261.5,65.0,278.0,67.5,294.5" stroke="black" stroke-width="2" fill="none" />
<polyline points="33.0,272.0,31.0,255.5,27.5,241.0,29.5,225.5,19.0,209.5,24.5,197.5,10.5,183.5,8.5,180.0,12.0,172.0,3.5,155.5,5.0,139.5,7.0,123.5,3.0,131.0" stroke="black" stroke-width="2" fill="none" />
<polyline points="16.5,124.5,10.5,140.5,12.5,156.5,14.5,162.5" stroke="black" stroke-width="2" fill="none" />
<polyline points="3.0,182.0,11.0,181.5,15.0,171.5,29.0,175.5,45.0,177.5,50.5,186.0,62.5,184.5,80.0,190.5,95.5,192.5,111.0,178.5,127.0,178.5" stroke="black" stroke-width="2" fill="none" />
<polyline points="118.0,197.5,132.5,193.5,138.5,177.0,135.0,158.5,123.0,148.5,129.5,146.5,113.5,126.5,97.5,124.5,81.5,120.5,65.5,127.0" stroke="black" stroke-width="2" fill="none" />
<polyline points="68.0,107.5,64.0,121.5,47.5,113.5,41.5,127.5,49.5,121.5,43.5,135.5" stroke="black" stroke-width="2" fill="none" />
<polyline points="19.5,125.0,35.5,104.5,33.5,109.0,19.5,125.0,24.0,141.0,26.0,157.0,42.0,158.5,48.5,172.0,64.5,165.5,74.5,179.5,90.5,183.5,97.0,167.5,107.0,165.5,129.0,163.5,143.0,171.5,149.0,179.5,149.0,169.5,152.5,165.5,164.5,189.5,181.0,175.5,197.0,169.5" stroke="black" stroke-width="2" fill="none" />
<polyline points="165.0,108.5,158.5,124.5,164.5,146.0,166.5,162.0,170.0,184.5,158.0,198.5,150.0,214.0,132.0,227.5,147.5,217.0,165.5,196.5,187.5,180.0,203.5,178.5,219.5,177.0,235.5,175.5,251.0,172.0,267.0,172.5,283.0,177.0,299.0,179.0" stroke="black" stroke-width="2" fill="none" />
<polyline points="385.5,164.5,369.5,166.5,353.5,166.0,337.5,164.0,319.5,144.0,303.0,140.5,287.0,138.5,285.5,150.5,270.0,150.5,258.0,156.5,264.0,136.5,260.0,114.0,254.0,102.0,278.0,92.0" stroke="black" stroke-width="2" fill="none" />
<polyline points="230.0,46.5,229.5,62.0,217.5,77.5,213.5,93.5,202.0,110.0,196.0,126.0,196.0,142.0,186.0,162.0,178.5,170.0,162.5,183.5,153.0,199.5,143.0,215.5,134.5,230.0,120.5,240.0,92.5,256.0,80.5,272.0,88.0,280.0,88.0,296.5,100.0,312.5,108.0,315.0,124.0,315.0,140.0,341.0,156.5,351.0" stroke="black" stroke-width="2" fill="none" />
<polyline points="158.5,372.0,137.0,344.5,129.0,328.5,123.5,312.5" stroke="black" stroke-width="2" fill="none" />
<polyline points="71.5,250.0,85.5,236.0" stroke="black" stroke-width="2" fill="none" />
<polyline points="75.0,212.5,78.5,196.5" stroke="black" stroke-width="2" fill="none" />
<polyline points="86.0,208.0,62.0,210.0,54.0,193.5,72.0,203.5,71.5,187.5,72.5,175.5,74.5,159.5" stroke="black" stroke-width="2" fill="none" />
<polyline points="2.0,292.5,18.0,306.0" stroke="black" stroke-width="2" fill="none" />
<polyline points="5.0,364.5,13.0,380.5,25.0,396.5,35.5,412.5,45.5,438.5,39.5,454.5,35.0,470.5,39.0,486.5,55.0,502.0" stroke="black" stroke-width="2" fill="none" />
<polyline points="55.5,503.5,40.0,487.5" stroke="black" stroke-width="2" fill="none" />
<polyline points="32.0,479.5,48.0,488.0,64.0,504.5" stroke="black" stroke-width="2" fill="none" />
<polyline points="56.5,495.5,38.5,479.5,42.5,464.0,44.5,448.5" stroke="black" stroke-width="2" fill="none" />
<polyline points="17.5,446.0,1.5,448.0" stroke="black" stroke-width="2" fill="none" />
<polyline points="0.0,441.0,16.5,438.5" stroke="black" stroke-width="2" fill="none" />
<polyline points="1.5,432.5,17.5,430.5,33.5,430.5" stroke="black" stroke-width="2" fill="none" />
<polyline points="34.5,426.0,18.5,425.5,2.5,425.5" stroke="black" stroke-width="2" fill="none" />
<polyline points="18.0,409.0,2.0,388.5" stroke="black" stroke-width="2" fill="none" />
<polyline points="2.0,383.0,18.0,399.0" stroke="black" stroke-width="2" fill="none" />
<polyline points="22.0,405.5,10.0,389.5" stroke="black" stroke-width="2" fill="none" />
<polyline points="4.0,383.0,10.0,399.0,20.5,415.0,18.5,438.5,31.0,438.5" stroke="black" stroke-width="2" fill="none" />
<polyline points="34.0,410.5,18.0,386.5,2.0,370.5" stroke="black" stroke-width="2" fill="none" />
<polyline points="1.0,363.5,17.5,378.0,34.0,399.5" stroke="black" stroke-width="2" fill="none" />
<polyline points="42.5,419.5,34.5,403.0,22.5,387.0,10.5,371.0" stroke="black" stroke-width="2" fill="none" />
</svg>