<svg xmlns="http://www.w3.org/2000/svg" width="512mm" height="512mm" viewBox="0 0 512 512" version="1.1"><polyline points="425.5,2.5,425.5,18.5" stroke="black" stroke-width="2" fill="none" />
<polyline points="429.0,17.5,429.0,1.5" stroke="black" stroke-width="2" fill="none" />
<polyline points="480.0,90.0,496.0,90.5" stroke="black" stroke-width="2" fill="none" />
<polyline points="496.5,96.5,481.0,94.5" stroke="black" stroke-width="2" fill="none" />
<polyline points="500.5,133.0,496.5,148.5,486.5,164.5,494.5,186.5,506.5,202.5" stroke="black" stroke-width="2" fill="none" />
<polyline points="500.5,200.0,496.5,182.0,480.0,176.0,464.0,168.0" stroke="black" stroke-width="2" fill="none" />
<polyline points="487.0,164.0,463.0,154.5,465.0,138.5" stroke="black" stroke-width="2" fill="none" />
<polyline points="505.0,133.0,502.5,149.0,501.0,165.0,504.5,181.0,508.5,190.5" stroke="black" stroke-width="2" fill="none" />
<polyline points="500.5,192.0,484.0,181.5,466.0,159.5,450.5,161.0,435.0,157.5,419.0,153.5,402.5,151.5,386.5,149.5" stroke="black" stroke-width="2" fill="none" />
<polyline points="381.5,145.0,397.5,146.5,413.5,148.5,429.5,150.5,445.5,154.5,461.0,156.5,479.0,176.5,492.5,193.0,504.5,209.5,508.0,225.5,505.5,241.5,495.5,257.5,481.5,273.0,464.0,289.0,436.5,304.5,403.0,320.0" stroke="black" stroke-width="2" fill="none" />
<polyline points="431.5,347.5,402.0,361.0,386.5,367.0,370.5,373.0,354.5,379.0,338.5,383.5,322.5,387.5,306.5,389.5,290.5,391.5,274.5,393.0,270.5,389.0,254.5,389.0,238.5,391.5,222.5,403.5,206.0,405.0,190.0,393.0,174.0,381.5,158.0,391.5,142.0,397.5,126.0,401.0,110.0,403.5,94.0,411.5,78.5,420.0,68.5,429.5,89.0,413.5,105.5,394.0,104.0,378.0,88.0,362.0" stroke="black" stroke-width="2" fill="none" />
<polyline points="83.0,366.0,99.0,389.5" stroke="black" stroke-width="2" fill="none" />
<polyline points="106.5,367.0,78.5,351.0,72.5,347.0" stroke="black" stroke-width="2" fill="none" />
<polyline points="80.5,360.5,96.5,360.0,112.5,367.5,128.5,373.5,144.0,377.0,160.0,387.5" stroke="black" stroke-width="2" fill="none" />
<polyline points="177.0,384.0,193.0,400.0" stroke="black" stroke-width="2" fill="none" />
<polyline points="223.5,402.0,236.0,388.0,220.5,388.0,204.5,385.5,188.5,381.5,172.5,375.5,156.5,375.5,140.5,371.0,124.5,365.0,108.5,359.0,92.5,351.0,76.5,338.5,60.0,320.5,44.0,322.5" stroke="black" stroke-width="2" fill="none" />
<polyline points="51.5,317.5,59.5,333.5,66.0,349.5,66.0,365.5,68.0,381.5,68.0,397.5,66.0,413.5,64.0,429.5" stroke="black" stroke-width="2" fill="none" />
<polyline points="71.0,442.5,87.0,450.5" stroke="black" stroke-width="2" fill="none" />
<polyline points="64.5,457.0,48.5,447.0,33.0,432.5,17.0,416.5" stroke="black" stroke-width="2" fill="none" />
<polyline points="17.5,413.5,33.5,429.5,53.5,445.5,75.5,462.0" stroke="black" stroke-width="2" fill="none" />
<polyline points="108.0,484.5,124.0,462.5,114.0,468.5,108.0,484.0,105.5,499.5" stroke="black" stroke-width="2" fill="none" />
<polyline points="146.0,503.0,134.0,459.0" stroke="black" stroke-width="2" fill="none" />
<polyline points="133.5,456.0,139.5,472.5,145.5,485.0,145.5,501.5" stroke="black" stroke-width="2" fill="none" />
<polyline points="150.0,499.0,144.0,482.5" stroke="black" stroke-width="2" fill="none" />
<polyline points="122.0,462.0,119.5,478.0,119.0,493.5,119.0,509.5" stroke="black" stroke-width="2" fill="none" />
<polyline points="131.5,393.0,115.0,397.0,95.0,399.0,79.5,410.5,93.5,403.0,96.0,387.0,86.0,371.0,72.5,365.5,72.5,350.0,56.5,324.0" stroke="black" stroke-width="2" fill="none" />
<polyline points="56.5,312.5,67.0,328.5,83.0,345.0,111.0,361.5,153.0,381.5,147.0,389.5" stroke="black" stroke-width="2" fill="none" />
<polyline points="75.5,404.0,75.5,388.0,75.5,372.0" stroke="black" stroke-width="2" fill="none" />
<polyline points="18.0,377.0,2.0,377.0" stroke="black" stroke-width="2" fill="none" />
<polyline points="16.0,411.5,24.0,427.5,40.0,443.0,64.0,459.0" stroke="black" stroke-width="2" fill="none" />
<polyline points="75.5,460.5,59.5,450.5,43.5,438.0,27.5,421.0,11.5,415.0" stroke="black" stroke-width="2" fill="none" />
<polyline points="3.5,418.0,9.5,434.0,25.5,450.5,45.5,466.5,54.0,483.0,54.0,499.0" stroke="black" stroke-width="2" fill="none" />
<polyline points="49.5,468.5,33.0,456.0,17.0,439.5,1.0,425.5" stroke="black" stroke-width="2" fill="none" />
<polyline points="1.5,418.0,17.5,432.0,34.0,448.0,50.0,462.0,66.0,486.5,82.0,498.5" stroke="black" stroke-width="2" fill="none" />
<polyline points="84.5,506.5,70.0,490.5,59.5,474.5,43.5,458.5,26.0,442.0,12.0,426.5" stroke="black" stroke-width="2" fill="none" />
<polyline points="64.0,307.5,92.5,323.5,132.5,339.5" stroke="black" stroke-width="2" fill="none" />
<polyline points="205.5,282.5,217.5,280.5,229.5,297.0,251.5,307.0,267.0,309.0,282.5,310.5,298.5,311.0" stroke="black" stroke-width="2" fill="none" />
<polyline points="283.5,290.0,277.5,286.0,275.5,279.5,260.0,295.5" stroke="black" stroke-width="2" fill="none" />
<polyline points="248.5,299.5,264.5,302.0,280.0,302.0,295.5,302.0" stroke="black" stroke-width="2" fill="none" />
<polyline points="295.0,316.0,279.0,322.0,263.0,323.5,246.5,323.5,230.5,323.5,214.0,321.0,208.0,315.5,192.0,323.5,176.0,327.5,160.0,332.0,162.5,318.0,174.5,302.0,180.5,290.0,202.5,274.0,224.0,270.0,229.5,254.0,217.5,254.0,221.5,244.0,203.5,228.0,199.5,213.5,201.0,198.0,185.0,188.0" stroke="black" stroke-width="2" fill="none" />
<polyline points="178.0,203.5,193.5,209.5,209.5,219.0,225.5,229.0" stroke="black" stroke-width="2" fill="none" />
<polyline points="218.5,222.5,230.5,238.5,260.5,256.5,270.5,264.5,276.5,268.5,294.5,290.5,311.0,294.5,326.5,294.0" stroke="black" stroke-width="2" fill="none" />
<polyline points="322.0,280.0,318.5,264.0,313.0,247.5,307.0,231.5,303.5,215.5,299.0,201.5,283.0,202.0,267.0,200.5,250.5,195.0,234.5,187.0,218.0,195.5,201.5,197.0,195.0,219.0,191.0,217.0,174.5,210.5,158.0,215.0" stroke="black" stroke-width="2" fill="none" />
<polyline points="157.5,212.5,173.5,202.5,189.5,192.5,201.5,190.5,219.5,206.0,240.0,218.0,242.5,232.0,252.5,245.5,254.5,252.0,271.0,244.0,271.0,228.0,287.0,220.0,303.0,212.0,309.0,234.0" stroke="black" stroke-width="2" fill="none" />
<polyline points="306.0,216.0,312.0,232.0,316.0,248.0,322.0,264.5" stroke="black" stroke-width="2" fill="none" />
<polyline points="292.5,297.5,280.5,281.5" stroke="black" stroke-width="2" fill="none" />
<polyline points="264.0,278.0,248.5,280.0,232.5,285.5,224.5,269.5,216.5,269.5,200.0,275.0,183.5,283.0,167.5,301.5,151.5,301.5,136.0,291.5,120.0,283.5,104.0,272.0,88.0,248.5" stroke="black" stroke-width="2" fill="none" />
<polyline points="89.0,237.5,105.5,266.0,122.0,279.5,138.0,283.0" stroke="black" stroke-width="2" fill="none" />
<polyline points="149.5,266.0,153.5,250.0,161.5,248.0,161.5,230.0" stroke="black" stroke-width="2" fill="none" />
<polyline points="158.5,223.5,166.0,239.5,170.0,255.5,172.0,271.0" stroke="black" stroke-width="2" fill="none" />
<polyline points="178.0,252.0,178.0,260.0,180.0,262.0,196.0,264.0,212.0,266.0,231.5,266.0,248.0,266.0" stroke="black" stroke-width="2" fill="none" />
<polyline points="242.5,252.0,220.0,256.0,203.5,241.5,191.0,221.5,175.0,215.5,171.0,219.0" stroke="black" stroke-width="2" fill="none" />
<polyline points="187.5,229.0,203.5,236.5" stroke="black" stroke-width="2" fill="none" />
<polyline points="200.0,226.0,216.0,236.0,220.0,260.0,206.5,284.0,220.5,300.5,220.5,298.0,238.5,302.5,255.0,294.5,270.5,281.0,284.5,284.5,300.5,288.5,316.5,288.5,332.5,280.5,348.0,272.5,364.0,262.5,380.5,246.5" stroke="black" stroke-width="2" fill="none" />
<polyline points="303.5,308.5,297.5,286.5,281.5,270.5,277.5,264.5" stroke="black" stroke-width="2" fill="none" />
<polyline points="235.5,225.5,219.5,211.5" stroke="black" stroke-width="2" fill="none" />
<polyline points="213.5,208.5,233.5,224.5,239.0,240.5" stroke="black" stroke-width="2" fill="none" />
<polyline points="244.0,210.5,228.0,206.0,212.0,205.5" stroke="black" stroke-width="2" fill="none" />
<polyline points="206.0,198.0,222.0,198.0,238.5,193.5,254.5,202.0,271.0,206.0,287.0,208.0,297.0,214.5,268.5,230.5,264.0,248.0,270.0,266.0,274.5,274.0,260.5,290.0,242.5,304.0,220.0,314.0,232.0,318.5,248.0,318.5,264.0,318.5" stroke="black" stroke-width="2" fill="none" />
<polyline points="273.0,358.0,269.0,359.5,269.0,375.5,263.0,394.0,259.0,410.5,255.0,426.5,251.0,442.5,246.5,458.5,240.5,474.5,232.5,490.5,225.0,506.5,227.0,486.5" stroke="black" stroke-width="2" fill="none" />
<polyline points="233.0,489.5,219.0,505.0,225.0,489.0,232.5,473.0,239.0,457.0,245.0,441.0,249.0,425.0,251.0,409.5,251.0,394.0" stroke="black" stroke-width="2" fill="none" />
<polyline points="277.0,357.5,276.5,374.0,297.0,386.0,313.0,384.0,329.0,380.0,345.0,378.0,361.0,372.5,376.5,366.5,392.5,360.5,408.5,355.0,424.5,347.0,440.5,337.0,456.5,325.0,472.5,313.5,489.0,293.0" stroke="black" stroke-width="2" fill="none" />
<polyline points="494.0,292.5,478.0,315.0" stroke="black" stroke-width="2" fill="none" />
<polyline points="488.5,324.5,493.0,340.5,499.0,356.5,503.0,372.5,507.5,382.0" stroke="black" stroke-width="2" fill="none" />
<polyline points="506.0,403.0,490.0,423.0" stroke="black" stroke-width="2" fill="none" />
<polyline points="486.5,415.5,508.5,402.0,492.0,418.0,491.5,433.5,499.5,449.5,508.0,465.5" stroke="black" stroke-width="2" fill="none" />
<polyline points="506.5,465.5,490.5,433.5" stroke="black" stroke-width="2" fill="none" />
<polyline points="488.5,439.0,504.5,469.5" stroke="black" stroke-width="2" fill="none" />
<polyline points="466.5,441.0,450.0,457.5,434.0,473.5,408.0,490.0,404.5,506.0" stroke="black" stroke-width="2" fill="none" />
<polyline points="404.5,491.5,420.5,485.5,436.5,471.5,452.5,455.0,460.5,441.0,442.5,457.0,424.0,473.0" stroke="black" stroke-width="2" fill="none" />
<polyline points="386.5,444.0,370.5,431.5,354.5,435.5,338.5,449.5" stroke="black" stroke-width="2" fill="none" />
<polyline points="329.5,453.5,345.5,433.5,345.5,441.5,335.5,457.5,334.0,473.5,332.0,489.5,334.5,505.5" stroke="black" stroke-width="2" fill="none" />
<polyline points="398.5,507.5,396.5,491.0,394.0,475.5,392.0,460.0,384.0,444.0,354.0,424.5,338.0,416.5" stroke="black" stroke-width="2" fill="none" />
<polyline points="333.5,413.0,349.5,415.0,366.0,425.0,382.0,431.5" stroke="black" stroke-width="2" fill="none" />
<polyline points="343.5,413.0,377.5,429.0,393.5,445.0,397.5,461.5,399.5,477.5,411.5,481.5,428.0,470.0,444.0,456.5,460.0,443.0" stroke="black" stroke-width="2" fill="none" />
<polyline points="416.5,408.0,410.5,392.0,411.0,375.5,407.0,359.5" stroke="black" stroke-width="2" fill="none" />
<polyline points="399.0,362.5,357.0,378.0" stroke="black" stroke-width="2" fill="none" />
<polyline points="369.5,368.5,409.5,353.0,439.5,337.0,461.5,321.0,479.5,305.0,489.5,289.0,497.5,272.5,501.5,256.5,509.5,240.5,493.5,258.5,477.5,276.0,461.5,290.0,445.0,300.0,429.5,308.0,414.0,316.0,398.5,322.5,382.5,328.5,366.5,335.0,350.5,339.0,334.0,343.0,318.0,344.5,302.0,348.5,286.0,350.5,269.5,350.0,253.5,350.0,237.5,350.0,221.5,349.5,206.0,347.5,189.5,345.5,173.5,341.5,157.5,339.5,141.5,335.5,125.5,331.0,109.5,323.5,93.5,318.0,78.0,310.0,62.0,298.5,46.0,274.0" stroke="black" stroke-width="2" fill="none" />
<polyline points="39.5,285.0,39.5,301.0,37.5,317.5,35.5,333.5,31.5,350.0,25.5,366.0,19.5,386.0,35.5,353.5" stroke="black" stroke-width="2" fill="none" />
<polyline points="43.5,290.0,59.5,304.0,75.5,316.0,92.0,323.5,108.5,329.5,124.5,335.5,140.5,341.5,156.5,343.5,172.0,347.5,187.5,349.5,205.5,353.5,223.5,355.5,239.5,355.5,255.5,355.5,272.0,355.5,288.0,353.5,306.0,351.5,325.5,347.0,341.0,345.0" stroke="black" stroke-width="2" fill="none" />
<polyline points="313.0,371.5,295.0,374.0,277.0,382.0,281.0,374.5,285.0,370.5,289.0,354.5" stroke="black" stroke-width="2" fill="none" />
<polyline points="339.0,409.5,357.0,425.5,339.0,441.5,330.5,457.5,328.0,473.0,328.0,489.0,328.0,505.0" stroke="black" stroke-width="2" fill="none" />
<polyline points="435.0,352.5,427.0,368.5,434.5,352.5,450.5,344.5,466.5,338.5,470.5,342.5" stroke="black" stroke-width="2" fill="none" />
<polyline points="456.0,338.5,438.0,345.0,415.5,361.0,415.5,376.5,415.5,392.5,421.5,408.0" stroke="black" stroke-width="2" fill="none" />
<polyline points="440.0,354.5,430.0,370.5,438.0,356.0,454.0,348.0" stroke="black" stroke-width="2" fill="none" />
<polyline points="495.0,264.0,481.0,279.5,461.5,295.5,434.0,311.5,398.5,327.5,358.5,342.0,375.0,336.0,391.0,332.0,406.5,324.0,422.5,318.0,438.5,310.5,454.5,302.5,470.5,290.0,486.5,276.0,510.5,258.0" stroke="black" stroke-width="2" fill="none" />
<polyline points="503.5,263.5,499.5,279.5,492.0,295.5,480.0,312.0,485.5,334.0,491.5,350.0,498.0,366.0,500.0,381.5,502.5,397.5,488.5,413.5,484.0,429.5,490.0,445.5,500.0,461.5,506.0,477.5" stroke="black" stroke-width="2" fill="none" />
<polyline points="191.5,274.0,179.5,282.0,155.5,287.5,153.0,282.0,127.0,284.0,107.0,268.0,93.5,251.5,91.5,235.5,89.5,220.0,86.0,204.0,66.0,202.0,50.0,217.5,34.0,211.5,18.0,195.5,2.0,183.5" stroke="black" stroke-width="2" fill="none" />
<polyline points="2.5,178.5,18.5,188.5,34.5,204.0,50.5,210.0,66.5,194.0,58.5,208.0" stroke="black" stroke-width="2" fill="none" />
<polyline points="47.0,240.5,42.5,256.5,38.5,272.0,44.5,272.0,52.0,288.5,60.0,304.5,74.0,308.0,106.0,323.5" stroke="black" stroke-width="2" fill="none" />
<polyline points="150.0,301.5,146.0,285.5,142.0,274.0,148.0,258.0,150.5,242.0,154.5,226.0,154.5,210.0,176.5,194.0,188.5,192.0,168.5,201.5,152.5,211.5" stroke="black" stroke-width="2" fill="none" />
<polyline points="164.5,252.5,168.5,268.5" stroke="black" stroke-width="2" fill="none" />
<polyline points="174.0,166.5,157.5,162.5,141.5,160.5,125.5,160.5,109.0,158.5,92.5,154.5,76.5,145.0" stroke="black" stroke-width="2" fill="none" />
<polyline points="76.0,144.0,77.5,160.0,80.0,176.5,84.0,192.5,82.5,208.0,86.5,223.5,87.0,240.0,91.0,256.0,103.0,272.0,125.0,288.0,141.0,304.0,153.0,307.5,159.0,323.0,175.0,317.0,191.0,309.0,206.5,305.0,213.0,307.0,229.0,309.0,245.0,311.5,261.0,313.5" stroke="black" stroke-width="2" fill="none" />
<polyline points="279.0,210.0,263.0,216.0,247.0,220.5,265.0,214.5,236.5,188.5" stroke="black" stroke-width="2" fill="none" />
<polyline points="302.5,121.5,330.5,105.5,348.5,90.0,340.5,98.0,324.5,110.0,308.0,117.5,290.0,127.5,274.0,137.0,276.0,129.5,304.0,113.5,332.0,97.5,348.5,84.0,332.5,98.0,316.5,110.5,300.5,116.0,284.5,126.0,268.5,136.0,252.0,140.0,236.0,146.0,220.0,151.5,204.0,155.5,188.0,161.0,171.5,159.5,155.0,157.5,139.5,153.5,123.5,153.5,107.5,151.5,91.5,145.5,75.5,144.0" stroke="black" stroke-width="2" fill="none" />
<polyline points="76.0,119.5,92.0,91.5,108.0,75.0,124.0,63.0,140.5,55.5,156.5,47.5,172.5,41.0,188.5,35.0,204.5,31.0,220.5,27.5,236.5,23.5,252.5,23.5,268.5,23.5,284.5,23.0,300.5,25.0,316.5,31.0,332.0,39.0,347.5,53.5,363.5,75.5" stroke="black" stroke-width="2" fill="none" />
<polyline points="362.5,62.5,346.5,44.0,330.0,33.5,314.0,23.5,298.5,19.0,283.0,17.5,267.0,17.5,250.5,17.5,234.5,19.5,218.5,21.5,202.5,25.5,187.0,29.5,171.0,36.0,155.0,42.0,139.0,50.5,122.5,60.5,106.5,73.0,90.0,87.0,74.0,109.0" stroke="black" stroke-width="2" fill="none" />
<polyline points="85.0,63.0,69.0,53.0" stroke="black" stroke-width="2" fill="none" />
<polyline points="65.5,50.5,81.0,52.5" stroke="black" stroke-width="2" fill="none" />
<polyline points="82.0,61.5,66.0,45.5" stroke="black" stroke-width="2" fill="none" />
<polyline points="33.0,104.5,17.5,94.0,1.5,88.0" stroke="black" stroke-width="2" fill="none" />
<polyline points="3.5,89.5,31.5,105.5" stroke="black" stroke-width="2" fill="none" />
<polyline points="49.0,105.5,33.0,95.5,17.0,88.0,1.5,80.0" stroke="black" stroke-width="2" fill="none" />
<polyline points="4.0,80.5,29.5,96.0" stroke="black" stroke-width="2" fill="none" />
<polyline points="3.5,178.5,13.5,194.5,29.5,210.5,43.5,226.5,31.5,250.5,17.5,266.0,10.0,282.0,8.0,284.0,24.5,260.0,40.5,240.0" stroke="black" stroke-width="2" fill="none" />
<polyline points="32.0,263.0,20.0,279.0,7.5,295.0,11.5,291.0,27.5,267.0" stroke="black" stroke-width="2" fill="none" />
<polyline points="44.5,289.0,52.5,305.5,46.0,321.5,42.0,337.5,36.0,354.0,30.0,370.0,19.5,386.0" stroke="black" stroke-width="2" fill="none" />
<polyline points="41.0,216.0,29.0,200.5,13.0,184.5" stroke="black" stroke-width="2" fill="none" />
<polyline points="88.5,145.5,76.0,129.5,78.0,113.5,88.0,97.5,102.0,81.5,122.0,65.5,150.0,49.5,192.0,33.0" stroke="black" stroke-width="2" fill="none" />
<polyline points="186.0,29.5,146.0,45.5,119.5,61.5,97.5,77.5,83.5,93.5,74.0,110.0,70.0,125.5,72.0,141.5,72.0,158.0,70.0,174.0,74.0,174.5,78.0,190.5,54.0,204.0" stroke="black" stroke-width="2" fill="none" />
<polyline points="329.0,286.0,351.0,269.5,375.0,254.0,387.0,238.0,393.0,222.5,391.0,206.5,389.0,190.5,387.0,174.5,382.5,158.0,378.5,140.0,376.0,123.5,374.0,107.5,369.5,91.5,361.5,75.5,351.0,59.5,333.5,44.0,301.0,28.0" stroke="black" stroke-width="2" fill="none" />
<polyline points="309.5,23.0,339.5,39.0,357.5,55.0,367.5,71.5,374.0,88.0,378.0,104.5,380.0,120.5,384.0,136.5,378.0,158.5,380.5,174.5,383.0,190.5,387.0,206.5,386.5,222.5,380.5,238.5,366.5,254.5,340.5,270.5,336.5,272.0,352.0,264.0,368.0,252.0,384.0,228.0" stroke="black" stroke-width="2" fill="none" />
</svg>