<svg xmlns="http://www.w3.org/2000/svg" width="512mm" height="512mm" viewBox="0 0 512 512" version="1.1"><polyline points="261.5,62.5,239.5,78.5" stroke="black" stroke-width="2" fill="none" />
<polyline points="257.0,80.5,273.0,70.5,289.0,72.5,305.5,72.5,321.5,74.5,325.5,68.5,335.0,84.5,381.0,106.5" stroke="black" stroke-width="2" fill="none" />
<polyline points="388.0,89.0,380.0,93.5,363.5,82.0,347.0,73.5" stroke="black" stroke-width="2" fill="none" />
<polyline points="343.0,72.0,359.0,71.5,375.0,77.5,391.0,83.5,401.0,89.5,410.5,106.0,414.5,122.5" stroke="black" stroke-width="2" fill="none" />
<polyline points="363.5,104.5,347.0,104.5,330.5,102.5,314.5,109.0" stroke="black" stroke-width="2" fill="none" />
<polyline points="284.0,137.5,300.0,137.5,316.0,135.0,332.0,131.0,348.5,131.5,364.5,131.5,380.5,131.0,396.5,131.0,412.5,129.0,428.5,123.5" stroke="black" stroke-width="2" fill="none" />
<polyline points="371.0,99.0,355.0,91.0,339.0,87.0,323.0,79.0,307.0,95.0,290.5,103.5,274.5,97.0,274.5,89.0,258.5,87.0" stroke="black" stroke-width="2" fill="none" />
<polyline points="255.5,85.0,265.5,69.0" stroke="black" stroke-width="2" fill="none" />
<polyline points="332.5,70.5,348.5,70.0,382.5,75.5,412.5,91.5,420.0,97.0,432.0,111.5,441.5,127.5,445.5,143.5,449.5,160.0,452.0,176.0,452.0,192.0,454.0,208.5,456.0,224.5,454.0,240.5,452.0,256.5,442.0,272.0,430.5,277.5,426.5,289.5,400.5,305.5,384.5,301.5,401.0,293.5,417.0,289.5,422.5,283.5,434.5,279.5,444.5,278.0,460.0,284.0,476.0,306.0,485.5,336.5" stroke="black" stroke-width="2" fill="none" />
<polyline points="481.5,326.5,465.5,304.5,449.5,278.5" stroke="black" stroke-width="2" fill="none" />
<polyline points="452.5,272.5,461.0,288.5,471.0,304.5,483.0,320.5" stroke="black" stroke-width="2" fill="none" />
<polyline points="491.5,300.0,475.5,284.0,459.5,270.0" stroke="black" stroke-width="2" fill="none" />
<polyline points="456.0,265.0,456.5,266.5,471.0,283.0,489.0,299.0,501.5,315.0,502.0,331.5,492.5,347.0,470.5,363.0,431.0,378.5" stroke="black" stroke-width="2" fill="none" />
<polyline points="500.5,353.0,485.0,365.5,467.0,379.5,450.5,387.5,434.5,399.5,418.5,405.5,402.5,409.5,385.0,407.5,369.0,418.0,353.0,420.0,335.0,416.5,318.5,426.5,302.5,427.0,286.0,427.0,270.0,427.0" stroke="black" stroke-width="2" fill="none" />
<polyline points="243.5,420.0,228.0,420.0,212.0,424.5,196.0,422.0" stroke="black" stroke-width="2" fill="none" />
<polyline points="135.0,372.0,137.0,356.0" stroke="black" stroke-width="2" fill="none" />
<polyline points="128.5,379.5,128.5,363.5,128.5,343.5,133.0,327.5,131.0,311.5,119.0,295.5,105.0,280.0,77.5,250.0" stroke="black" stroke-width="2" fill="none" />
<polyline points="81.5,244.0,97.5,268.0,113.0,286.5,129.0,306.5" stroke="black" stroke-width="2" fill="none" />
<polyline points="112.0,313.5,110.0,297.0,92.0,269.0" stroke="black" stroke-width="2" fill="none" />
<polyline points="86.5,240.5,102.5,264.5,118.5,278.0,134.5,288.0,150.5,294.0,166.5,300.0,182.0,304.0,198.0,309.5,214.0,313.5,230.0,316.0,246.0,312.0,262.0,314.0" stroke="black" stroke-width="2" fill="none" />
<polyline points="235.5,318.5,251.0,318.5,267.0,318.5,282.5,314.0,298.0,302.0,316.0,289.5,309.5,295.5,323.5,285.5,311.5,301.5" stroke="black" stroke-width="2" fill="none" />
<polyline points="281.0,300.5,281.0,284.5" stroke="black" stroke-width="2" fill="none" />
<polyline points="277.0,284.5,277.0,300.5,284.5,318.5,300.5,318.5,316.5,318.5,332.5,314.5" stroke="black" stroke-width="2" fill="none" />
<polyline points="346.0,319.0,329.5,325.0,333.5,323.5,339.5,299.5,346.0,297.5,340.0,281.5,356.0,266.0,346.0,280.5" stroke="black" stroke-width="2" fill="none" />
<polyline points="353.5,291.0,370.0,287.0,366.0,282.5" stroke="black" stroke-width="2" fill="none" />
<polyline points="374.0,277.0,390.0,265.0,406.5,261.0,428.0,261.0,422.0,277.0" stroke="black" stroke-width="2" fill="none" />
<polyline points="422.5,253.5,406.5,253.5" stroke="black" stroke-width="2" fill="none" />
<polyline points="394.0,263.5,388.5,269.5,380.5,273.5,382.5,290.0,382.5,296.0,368.5,304.0,384.5,296.0,400.5,288.0,410.0,279.5,399.5,281.5,411.5,291.0,419.5,313.0,429.5,330.0" stroke="black" stroke-width="2" fill="none" />
<polyline points="444.0,333.5,442.0,317.5,442.0,301.5,450.5,291.5,446.5,275.5,456.5,259.5,460.5,251.5,460.5,235.5,460.5,219.5,460.5,203.5,458.5,187.5,456.5,172.0,454.5,156.5,452.0,140.5,446.0,124.5,446.5,120.5,430.5,104.5,414.5,92.5,398.5,82.5,382.5,77.0,367.0,70.5,350.5,66.5,334.5,62.0,318.5,60.5,302.5,58.0,286.0,56.0,270.0,56.0,254.0,58.0,238.5,57.5,222.5,60.0,206.5,62.0,190.0,64.5,174.0,66.5,158.0,72.5,142.0,76.0,126.0,82.0,109.5,94.0,93.5,126.0" stroke="black" stroke-width="2" fill="none" />
<polyline points="101.0,135.5,109.0,115.5,103.0,132.0,93.5,144.5,110.0,114.5,118.5,95.0,134.5,90.5,150.5,84.5,167.0,78.5,183.5,74.5,199.5,74.5" stroke="black" stroke-width="2" fill="none" />
<polyline points="202.5,101.0,234.5,116.5" stroke="black" stroke-width="2" fill="none" />
<polyline points="247.5,138.0,232.0,138.0,230.0,130.5,214.0,130.5,197.5,125.0,181.5,120.5,165.5,116.5,149.5,112.0,133.5,103.0,117.5,99.0" stroke="black" stroke-width="2" fill="none" />
<polyline points="125.5,101.5,131.5,117.5,133.5,133.5" stroke="black" stroke-width="2" fill="none" />
<polyline points="136.5,143.0,140.5,127.0,141.0,120.5,125.0,106.5" stroke="black" stroke-width="2" fill="none" />
<polyline points="133.5,96.0,149.5,94.0,165.5,88.0,182.0,83.5,198.5,83.5,214.5,83.5,230.5,79.5,246.5,75.5,262.0,61.5,277.5,61.5,293.5,61.5" stroke="black" stroke-width="2" fill="none" />
<polyline points="339.0,72.0,369.5,88.0,375.0,115.5,391.5,111.5,409.5,95.5,418.0,109.5,438.0,119.5" stroke="black" stroke-width="2" fill="none" />
<polyline points="391.5,104.0,379.5,106.0,364.0,114.0,348.5,118.0,332.5,119.5,316.5,119.5,300.5,121.5,284.5,119.5,268.5,115.0,252.5,109.0,236.5,105.0,220.5,105.0,204.5,98.5,188.0,92.5,172.0,90.5" stroke="black" stroke-width="2" fill="none" />
<polyline points="160.0,87.5,144.0,109.5,154.0,106.0,170.0,106.0,186.0,113.5,202.5,117.5,218.0,121.5,230.0,123.5,246.0,125.5,262.5,127.5,279.0,127.5,294.5,128.0,311.0,126.0,327.0,126.0,343.0,126.0,359.0,126.0,375.0,126.5,390.5,124.5,406.5,124.5,422.5,121.0" stroke="black" stroke-width="2" fill="none" />
<polyline points="370.0,160.0,367.5,176.0" stroke="black" stroke-width="2" fill="none" />
<polyline points="360.0,180.5,364.0,164.5,364.0,160.5" stroke="black" stroke-width="2" fill="none" />
<polyline points="329.0,160.5,323.0,176.5,321.0,192.0,321.0,208.0,322.5,224.0,330.5,239.5,320.5,255.5,308.5,274.0,306.5,290.0,297.0,306.0,311.0,312.0,327.0,310.0,337.0,289.5,352.5,263.5,356.5,266.0,372.0,260.0,388.5,256.0,390.5,256.0,406.5,248.0,422.5,248.5,444.5,270.5,462.5,252.0,478.5,263.5,494.5,277.5,510.0,297.0,510.0,315.5" stroke="black" stroke-width="2" fill="none" />
<polyline points="506.5,329.0,490.0,353.0,474.5,367.0,458.5,373.5,442.5,379.5,426.5,385.5,411.0,389.5,394.5,394.0,378.5,398.0,362.0,402.0,346.0,404.0,330.5,406.0,314.5,407.5,298.5,407.5,282.0,409.5,266.0,409.0,249.5,407.5,233.5,408.0,217.5,406.0,201.5,404.0,185.5,402.0,169.5,400.0,153.5,396.0,137.0,392.0,121.0,388.0,105.0,382.0,89.0,375.5,73.0,367.5,63.0,349.5,75.5,334.0,66.0,352.0" stroke="black" stroke-width="2" fill="none" />
<polyline points="67.5,341.5,47.5,345.0,31.5,337.0,15.5,305.0" stroke="black" stroke-width="2" fill="none" />
<polyline points="15.0,300.0,21.0,315.5,27.0,331.5,41.0,348.0,55.0,364.5,85.0,374.5,127.0,390.5" stroke="black" stroke-width="2" fill="none" />
<polyline points="106.0,399.5,90.0,393.5" stroke="black" stroke-width="2" fill="none" />
<polyline points="106.0,393.5,90.0,387.0,80.0,389.0,62.0,379.0,56.5,375.5,41.0,365.5,25.0,347.5,9.0,315.5" stroke="black" stroke-width="2" fill="none" />
<polyline points="12.0,311.5,28.0,343.5,44.0,361.0" stroke="black" stroke-width="2" fill="none" />
<polyline points="90.0,356.0,92.0,340.0" stroke="black" stroke-width="2" fill="none" />
<polyline points="87.0,339.5,83.0,355.5" stroke="black" stroke-width="2" fill="none" />
<polyline points="81.0,315.0,83.0,299.0,89.0,282.5,83.0,266.0,77.5,249.5,67.5,249.0,55.5,260.5,39.5,282.0" stroke="black" stroke-width="2" fill="none" />
<polyline points="36.5,279.0,52.0,257.5,64.0,245.5,50.0,262.0,38.5,278.0,34.5,294.5,36.5,321.0,34.0,333.0,51.5,357.0,67.5,360.5,83.5,368.5,99.5,374.5,115.5,380.5,131.5,386.5,147.5,390.0,164.0,394.0,180.5,396.0,196.5,397.5,212.5,400.0,229.0,402.0,245.0,404.0,261.0,404.0,277.0,404.0,293.0,404.0,309.0,404.0,325.0,402.0,341.0,400.0,357.0,398.0,373.0,394.0,389.0,390.0,404.5,386.0,421.0,382.0,437.0,376.0,453.0,370.0,469.0,364.5,485.0,352.5,501.0,332.5,508.5,344.5,494.0,360.5,475.5,374.5,445.5,390.5" stroke="black" stroke-width="2" fill="none" />
<polyline points="451.0,394.0,481.5,378.0,501.5,362.0,513.5,346.0" stroke="black" stroke-width="2" fill="none" />
<polyline points="451.0,338.0,448.5,322.0,447.0,305.5" stroke="black" stroke-width="2" fill="none" />
<polyline points="456.0,290.5,468.0,306.5,478.0,322.0,490.0,338.0" stroke="black" stroke-width="2" fill="none" />
<polyline points="445.0,377.5,483.0,361.5,499.0,345.5,507.0,329.5,509.0,313.5,497.0,297.0,483.0,280.5,462.5,264.5" stroke="black" stroke-width="2" fill="none" />
<polyline points="417.5,297.0,402.0,305.0,386.0,314.5" stroke="black" stroke-width="2" fill="none" />
<polyline points="398.0,273.5,378.0,269.5,374.0,265.5,356.0,297.5,350.0,279.5,362.0,301.5,379.5,285.5,367.5,269.5" stroke="black" stroke-width="2" fill="none" />
<polyline points="366.5,253.5,346.5,269.5,357.5,283.5,334.0,295.5,350.0,305.5,366.0,300.0,382.0,290.0" stroke="black" stroke-width="2" fill="none" />
<polyline points="352.5,238.5,360.5,222.5" stroke="black" stroke-width="2" fill="none" />
<polyline points="357.0,218.5,348.5,234.5,356.5,218.0" stroke="black" stroke-width="2" fill="none" />
<polyline points="332.5,232.5,324.5,254.5,324.5,240.5,318.5,224.5,314.5,208.5" stroke="black" stroke-width="2" fill="none" />
<polyline points="303.5,214.0,309.5,207.5,305.5,223.5,301.5,239.5" stroke="black" stroke-width="2" fill="none" />
<polyline points="257.0,215.0,241.0,231.0" stroke="black" stroke-width="2" fill="none" />
<polyline points="226.5,230.0,234.5,222.0,228.5,227.5,222.0,243.0,220.0,259.0" stroke="black" stroke-width="2" fill="none" />
<polyline points="186.5,257.0,184.5,273.5,190.0,289.5" stroke="black" stroke-width="2" fill="none" />
<polyline points="185.5,283.5,181.5,287.5,179.5,271.0,181.5,255.0" stroke="black" stroke-width="2" fill="none" />
<polyline points="131.5,283.0,115.0,273.0,99.0,254.5,83.0,234.5,61.5,234.0,45.5,239.5,31.5,253.5,15.5,273.5" stroke="black" stroke-width="2" fill="none" />
<polyline points="9.0,280.0,25.0,249.5,41.0,237.0,57.0,225.0,73.0,211.0" stroke="black" stroke-width="2" fill="none" />
<polyline points="74.0,227.0,58.0,243.0,37.5,259.0,25.5,275.0,19.5,291.0,21.5,307.0,27.0,322.5,41.0,340.5,61.5,356.0,93.5,372.0" stroke="black" stroke-width="2" fill="none" />
<polyline points="36.0,306.0,20.0,302.5" stroke="black" stroke-width="2" fill="none" />
<polyline points="19.5,284.0,35.5,260.0,51.5,246.5,67.5,236.5,80.0,237.0,84.0,253.0,96.0,269.5,100.0,285.5,106.0,301.0,106.0,317.0" stroke="black" stroke-width="2" fill="none" />
<polyline points="47.5,322.0,40.0,314.0,40.0,285.5,47.5,269.5,63.5,253.5" stroke="black" stroke-width="2" fill="none" />
<polyline points="83.0,234.0,89.0,249.5,101.5,265.5,122.0,281.5,160.5,297.5" stroke="black" stroke-width="2" fill="none" />
<polyline points="195.0,342.5,205.0,358.0" stroke="black" stroke-width="2" fill="none" />
<polyline points="121.5,276.5,103.5,260.5,93.5,244.5,85.5,228.5" stroke="black" stroke-width="2" fill="none" />
<polyline points="179.0,209.5,185.0,204.0,191.0,188.5,201.0,172.5" stroke="black" stroke-width="2" fill="none" />
<polyline points="197.5,172.5,187.5,188.5,179.5,204.5,173.5,208.5,189.5,182.5" stroke="black" stroke-width="2" fill="none" />
<polyline points="268.5,182.5,265.0,198.5,251.0,214.5,235.0,230.0,229.0,236.0,225.0,251.5,223.0,267.5" stroke="black" stroke-width="2" fill="none" />
<polyline points="272.5,189.5,266.0,205.5,254.0,221.5,240.0,237.0,242.0,221.0,258.5,206.5,270.5,200.5,276.0,186.5" stroke="black" stroke-width="2" fill="none" />
<polyline points="273.5,182.5,285.5,184.5,283.0,200.5,279.0,216.5,270.5,232.0" stroke="black" stroke-width="2" fill="none" />
<polyline points="280.0,230.5,286.0,214.0,290.0,198.0,290.0,182.0" stroke="black" stroke-width="2" fill="none" />
<polyline points="200.5,107.0,171.0,103.0" stroke="black" stroke-width="2" fill="none" />
<polyline points="158.0,79.0,120.0,91.5,108.0,107.5,102.0,123.5,96.0,139.5,92.0,155.5,88.0,171.5,86.5,189.5,86.5,205.5,83.0,221.5,55.0,238.0,37.0,249.5,25.0,265.5,15.0,288.0,11.0,304.5,15.0,320.5,23.0,336.5,34.5,352.5,52.5,368.5,82.5,384.5" stroke="black" stroke-width="2" fill="none" />
<polyline points="126.0,90.5,147.5,106.0,163.5,99.5,179.5,103.5,186.0,100.0,202.0,106.0,218.0,112.0,232.0,112.0,248.5,120.0,264.5,123.5" stroke="black" stroke-width="2" fill="none" />
<polyline points="165.0,67.5,117.0,83.5,105.5,99.5,99.5,115.5,94.0,131.0,88.0,147.5,84.0,163.5,82.0,180.0,80.0,196.0,72.0,212.5,52.0,228.5,30.0,245.0,17.5,261.0,9.5,276.5,5.5,292.5,5.5,308.0,4.0,324.0,13.5,334.0,24.0,350.0,38.0,366.0,64.0,382.0,100.0,398.5,124.0,400.0,131.5,408.0,141.5,409.5,151.5,407.0,153.5,413.5,169.5,411.5,175.5,417.5,191.5,413.5,196.0,415.5,211.5,417.5,235.5,426.0,251.5,426.0,267.5,426.0,284.0,420.5,300.0,420.5,316.0,420.5,334.0,423.0,350.5,415.0,366.5,413.0,384.5,414.5,400.5,404.5,416.0,400.0,431.5,396.0,455.0,392.0,471.5,384.0,487.5,372.0,503.5,356.5" stroke="black" stroke-width="2" fill="none" />
<polyline points="393.5,109.5,384.0,93.5,372.0,77.5" stroke="black" stroke-width="2" fill="none" />
</svg>