<svg xmlns="http://www.w3.org/2000/svg" width="512mm" height="512mm" viewBox="0 0 512 512" version="1.1"><polyline points="135.5,2.5,125.5,18.5,117.5,34.5,113.5,50.5,111.5,67.0,111.5,83.0,103.5,99.0,101.5,115.0,103.0,131.0,109.0,146.5,116.5,162.5,133.0,164.5,143.0,168.5,147.0,142.5,187.5,124.0,203.5,113.5,219.5,111.0,235.5,119.0" stroke="black" stroke-width="2" fill="none" />
<polyline points="226.5,102.5,230.5,120.5,236.5,122.5,240.0,130.5,234.0,146.5,244.5,162.5,248.5,152.0,264.5,147.5,258.5,153.5,240.5,159.5,256.5,155.5,274.5,153.5,292.5,157.5,318.5,173.5,312.5,181.5,302.0,197.5,282.0,213.5,268.0,201.5" stroke="black" stroke-width="2" fill="none" />
<polyline points="265.5,190.0,250.0,190.0" stroke="black" stroke-width="2" fill="none" />
<polyline points="239.0,186.0,255.0,186.0,271.5,184.5" stroke="black" stroke-width="2" fill="none" />
<polyline points="273.0,192.0,285.5,184.0,292.0,168.0,288.5,148.5,264.5,160.5,248.5,163.0" stroke="black" stroke-width="2" fill="none" />
<polyline points="240.5,141.5,240.5,145.5,246.5,127.5,241.0,111.5,232.5,110.0,218.5,98.0,202.0,98.0,186.0,104.0" stroke="black" stroke-width="2" fill="none" />
<polyline points="198.5,90.5,182.5,100.5,198.5,90.5,214.5,90.5,230.5,98.5" stroke="black" stroke-width="2" fill="none" />
<polyline points="209.0,112.0,185.0,127.5,197.5,129.5,200.0,135.5,208.5,127.5,222.5,126.0" stroke="black" stroke-width="2" fill="none" />
<polyline points="220.0,133.0,204.5,135.0" stroke="black" stroke-width="2" fill="none" />
<polyline points="181.0,171.5,197.5,197.5,213.0,209.5,229.0,217.5,244.5,222.0,260.0,226.0,276.0,225.5,292.5,219.0,308.5,209.5,325.0,195.5,341.0,169.5" stroke="black" stroke-width="2" fill="none" />
<polyline points="372.5,156.0,356.5,150.0,340.0,134.0" stroke="black" stroke-width="2" fill="none" />
<polyline points="353.0,113.5,359.0,101.5,345.0,99.5,361.0,79.5,377.0,82.0,387.0,86.5" stroke="black" stroke-width="2" fill="none" />
<polyline points="376.0,93.0,368.0,109.0,361.5,125.0,361.5,141.0,369.5,157.0" stroke="black" stroke-width="2" fill="none" />
<polyline points="358.5,116.5,374.0,88.5,390.0,102.5,393.5,120.5,389.5,137.0,379.5,152.5,360.5,169.0,340.5,185.0,329.0,200.5,327.5,216.5,321.5,220.5,323.0,236.0,323.0,252.0,336.5,252.0" stroke="black" stroke-width="2" fill="none" />
<polyline points="330.0,264.5,347.5,248.5,360.0,232.5,358.0,234.5,342.0,254.5,326.0,268.5,310.0,274.5,294.0,278.5,278.0,276.0,262.5,274.0,246.5,264.0,230.5,244.0" stroke="black" stroke-width="2" fill="none" />
<polyline points="228.0,236.5,232.0,252.5,250.0,268.0" stroke="black" stroke-width="2" fill="none" />
<polyline points="259.0,278.0,235.0,262.0,225.0,246.0,221.0,230.0,219.0,218.0,203.0,210.0,187.0,192.0,171.0,174.0" stroke="black" stroke-width="2" fill="none" />
<polyline points="130.5,159.5,114.5,141.5" stroke="black" stroke-width="2" fill="none" />
<polyline points="107.5,139.0,123.5,165.0,140.0,173.0,156.0,169.5,164.5,148.0" stroke="black" stroke-width="2" fill="none" />
<polyline points="156.5,103.5,140.5,87.0" stroke="black" stroke-width="2" fill="none" />
<polyline points="141.0,90.5,156.5,106.5,164.5,126.0,166.5,142.0,162.0,158.5,172.0,180.5,186.0,196.0,204.0,211.5,231.5,227.0,235.5,242.5,251.5,258.0" stroke="black" stroke-width="2" fill="none" />
<polyline points="253.0,251.5,239.0,236.0" stroke="black" stroke-width="2" fill="none" />
<polyline points="232.0,235.0,248.0,253.0,263.5,262.5,279.5,269.0,295.0,269.5,310.5,265.5" stroke="black" stroke-width="2" fill="none" />
<polyline points="324.0,227.5,340.5,227.5,357.0,225.5,393.5,231.5,425.0,248.0,455.5,264.0,465.5,280.0,471.5,296.0,476.0,312.5,482.5,328.5,488.0,345.0,494.0,361.0,482.0,376.5,485.5,392.5,491.0,408.0,495.0,423.5,501.0,439.5,505.0,455.0,509.0,471.0,509.0,487.0" stroke="black" stroke-width="2" fill="none" />
<polyline points="464.0,430.5,447.5,406.5" stroke="black" stroke-width="2" fill="none" />
<polyline points="447.0,397.5,457.0,413.5,467.0,430.0,469.5,452.5,472.0,454.5" stroke="black" stroke-width="2" fill="none" />
<polyline points="463.0,436.0,461.0,413.5,445.0,397.5" stroke="black" stroke-width="2" fill="none" />
<polyline points="443.5,398.0,451.5,414.0,462.0,430.0,460.0,446.0,470.0,462.5" stroke="black" stroke-width="2" fill="none" />
<polyline points="436.5,465.5,420.5,439.5" stroke="black" stroke-width="2" fill="none" />
<polyline points="418.0,436.5,426.0,452.5,438.5,468.5,436.5,485.0,434.5,501.0" stroke="black" stroke-width="2" fill="none" />
<polyline points="437.0,445.5,421.0,421.5" stroke="black" stroke-width="2" fill="none" />
<polyline points="419.5,421.0,423.5,437.0,433.5,454.0" stroke="black" stroke-width="2" fill="none" />
<polyline points="433.0,468.0,417.0,444.0" stroke="black" stroke-width="2" fill="none" />
<polyline points="414.0,438.5,430.5,448.0" stroke="black" stroke-width="2" fill="none" />
<polyline points="435.0,444.5,425.0,428.5" stroke="black" stroke-width="2" fill="none" />
<polyline points="409.5,438.0,409.5,454.0,407.5,470.0,408.0,485.5,406.5,501.5" stroke="black" stroke-width="2" fill="none" />
<polyline points="358.5,414.5,374.5,366.5,391.0,336.5,405.0,354.5" stroke="black" stroke-width="2" fill="none" />
<polyline points="391.5,338.0,401.5,354.0,405.0,370.5,409.0,386.5,417.5,394.5,433.5,388.5,449.5,380.5,465.5,374.0,481.5,372.0,489.5,370.0" stroke="black" stroke-width="2" fill="none" />
<polyline points="486.5,359.0,482.5,333.0" stroke="black" stroke-width="2" fill="none" />
<polyline points="474.0,375.5,436.0,391.5,416.0,399.5,432.0,393.5,448.0,388.0,464.0,380.0,479.5,384.0" stroke="black" stroke-width="2" fill="none" />
<polyline points="476.0,377.0,482.0,393.0,488.0,409.5,491.5,425.5,495.5,442.0,501.0,458.0,505.0,474.0,505.5,490.5,505.5,506.5" stroke="black" stroke-width="2" fill="none" />
<polyline points="325.5,508.0,331.5,496.0,337.5,480.0,341.5,464.0,347.0,448.0,353.0,432.0,357.0,416.0,363.0,399.5,367.0,383.5,373.0,367.5,381.5,352.0,388.0,336.0" stroke="black" stroke-width="2" fill="none" />
<polyline points="395.5,332.0,407.5,348.5" stroke="black" stroke-width="2" fill="none" />
<polyline points="390.5,325.0,386.0,327.5,378.0,343.5,372.0,360.0,366.5,376.0,360.5,392.5,356.5,409.0,350.0,425.0,345.5,441.0,339.5,456.5,333.5,472.5,327.5,488.5,321.5,504.5,327.5,488.5,343.5,442.0,360.0,392.0,376.5,350.0,392.5,327.5,408.5,348.0,425.0,310.0" stroke="black" stroke-width="2" fill="none" />
<polyline points="438.0,293.5,430.0,309.5,424.0,325.0,416.0,341.0,410.0,357.0,414.0,373.0,408.0,401.0,412.0,417.0,415.5,433.5,417.5,449.5,427.0,465.5,431.5,482.0,430.0,497.5" stroke="black" stroke-width="2" fill="none" />
<polyline points="365.5,319.5,348.5,365.0,332.0,409.0,315.5,450.5,299.5,490.5,293.5,504.0,301.0,487.5,307.0,471.5,312.5,455.0,318.5,439.0,324.5,423.0,331.0,407.0,337.0,391.0,343.5,375.0,350.0,359.5,356.0,343.0,362.0,327.0,366.5,311.5,373.0,295.5,373.0,285.5,357.0,289.5,340.5,295.5,324.5,299.5,309.0,301.5,293.0,301.5,277.0,299.5,261.0,295.5,245.0,289.5,229.0,281.5,212.5,265.5" stroke="black" stroke-width="2" fill="none" />
<polyline points="208.5,256.0,224.5,272.0,240.0,282.0,256.0,289.5,272.0,293.5,288.0,295.5,304.0,295.0,320.5,293.5,336.5,291.5,353.0,285.5,369.0,282.0,369.0,286.0" stroke="black" stroke-width="2" fill="none" />
<polyline points="379.0,288.0,375.0,303.5,371.0,319.0,365.0,335.0,359.0,351.0,352.5,367.0,347.0,383.0,341.0,399.0,335.0,415.5,329.0,431.5,323.0,450.0,317.0,465.5,311.0,481.5,303.0,497.5,299.0,507.5,314.5,468.0,330.5,426.5,346.0,384.5,361.5,338.5" stroke="black" stroke-width="2" fill="none" />
<polyline points="418.0,337.0,412.5,339.5,419.0,323.5,427.0,307.5,435.0,291.5" stroke="black" stroke-width="2" fill="none" />
<polyline points="454.0,260.0,438.0,252.0,422.0,243.5,406.0,236.0,390.0,227.5,374.0,219.5,358.0,221.5,342.0,223.5,326.0,215.5" stroke="black" stroke-width="2" fill="none" />
<polyline points="324.5,203.5,340.5,183.5,357.0,169.0,373.0,161.0,388.5,137.0" stroke="black" stroke-width="2" fill="none" />
<polyline points="333.0,102.5,349.0,78.5" stroke="black" stroke-width="2" fill="none" />
<polyline points="379.0,56.0,363.0,26.0,346.5,10.0" stroke="black" stroke-width="2" fill="none" />
<polyline points="343.5,2.5,359.5,18.5,381.5,34.5,383.5,52.5,383.5,68.5,383.5,84.0,394.0,100.0,388.0,116.0,386.5,132.0,378.5,148.0" stroke="black" stroke-width="2" fill="none" />
<polyline points="341.5,142.5,338.0,126.5,340.0,110.5,348.0,94.5,362.0,78.5,352.0,54.0,352.0,38.0,346.0,25.5,330.0,9.5" stroke="black" stroke-width="2" fill="none" />
<polyline points="337.5,3.5,354.0,9.5,370.0,26.0" stroke="black" stroke-width="2" fill="none" />
<polyline points="374.5,15.0,358.5,3.0" stroke="black" stroke-width="2" fill="none" />
<polyline points="357.0,2.5,367.0,18.5,377.0,38.0" stroke="black" stroke-width="2" fill="none" />
<polyline points="352.5,62.0,336.0,58.0,320.0,38.5,302.0,31.0,277.5,5.0" stroke="black" stroke-width="2" fill="none" />
<polyline points="277.5,3.5,283.5,19.5,299.5,41.5,305.5,41.0,313.5,51.0,325.5,66.5,330.0,82.5,328.5,98.0,325.0,114.0,325.5,130.0,332.0,146.0,344.0,162.0,339.5,178.0,327.0,193.5,308.5,209.5,274.5,218.0,290.0,209.5,306.0,191.5" stroke="black" stroke-width="2" fill="none" />
<polyline points="297.5,153.5,281.0,149.5" stroke="black" stroke-width="2" fill="none" />
<polyline points="267.5,127.5,283.5,123.5,299.5,117.0" stroke="black" stroke-width="2" fill="none" />
<polyline points="290.0,120.0,300.0,110.0,284.0,118.0,268.5,122.5" stroke="black" stroke-width="2" fill="none" />
<polyline points="267.5,110.5,283.0,100.5,299.0,98.5,295.0,106.5,270.5,106.0,268.0,122.0,274.0,114.0,289.5,112.0,305.5,106.0" stroke="black" stroke-width="2" fill="none" />
<polyline points="301.5,81.5,286.0,84.0" stroke="black" stroke-width="2" fill="none" />
<polyline points="267.5,86.5,283.5,80.0,265.5,80.0,273.5,76.5,289.5,72.5,305.5,76.5" stroke="black" stroke-width="2" fill="none" />
<polyline points="328.5,146.0,333.0,132.0,332.5,116.0,339.0,100.5,347.0,84.5,351.5,70.5,358.0,54.0,348.0,54.0,340.5,38.0,348.5,29.5,338.5,17.5,321.0,1.5,321.0,3.5" stroke="black" stroke-width="2" fill="none" />
<polyline points="305.0,2.5,325.0,18.5,327.0,32.0,331.0,34.0" stroke="black" stroke-width="2" fill="none" />
<polyline points="336.0,29.5,320.0,13.5,300.0,17.0,284.0,3.5" stroke="black" stroke-width="2" fill="none" />
<polyline points="284.5,3.0,288.5,18.5,294.5,44.5" stroke="black" stroke-width="2" fill="none" />
<polyline points="289.0,3.0,298.5,19.0,311.0,27.0,324.5,43.0,334.5,58.5,334.0,72.5,346.5,80.5,337.0,96.0,331.5,112.0,331.5,127.5,341.5,146.0,341.5,156.0" stroke="black" stroke-width="2" fill="none" />
<polyline points="317.0,187.0,313.0,215.0,297.0,225.0,281.0,231.0,265.0,233.0,248.5,229.5,232.5,227.0,216.5,223.0,200.5,217.0,184.5,215.0,168.5,216.5,152.5,218.5,137.0,226.5,121.0,240.0,101.0,252.0,83.0,262.0,85.0,266.0,76.5,266.0,59.0,249.5" stroke="black" stroke-width="2" fill="none" />
<polyline points="81.5,252.5,65.5,246.5,49.5,242.5,33.5,244.5" stroke="black" stroke-width="2" fill="none" />
<polyline points="32.5,241.5,48.5,213.5,38.5,230.0,26.5,246.0,18.5,262.0,12.5,278.0,8.5,294.0,4.0,310.0,14.0,328.0,30.0,331.5,46.0,331.5,66.0,311.5,82.0,314.0,100.5,300.0,116.5,304.0,132.5,318.0" stroke="black" stroke-width="2" fill="none" />
<polyline points="149.5,290.5,133.5,274.5,117.5,261.0" stroke="black" stroke-width="2" fill="none" />
<polyline points="120.0,257.0,136.0,270.5,152.5,286.0" stroke="black" stroke-width="2" fill="none" />
<polyline points="158.5,278.0,142.5,268.5,127.0,256.5" stroke="black" stroke-width="2" fill="none" />
<polyline points="126.0,252.0,142.0,260.5,158.0,270.5" stroke="black" stroke-width="2" fill="none" />
<polyline points="156.0,270.0,134.0,254.0" stroke="black" stroke-width="2" fill="none" />
<polyline points="127.0,251.5,143.0,267.5" stroke="black" stroke-width="2" fill="none" />
<polyline points="103.5,295.0,85.5,319.0,75.5,335.0,79.5,351.5,101.5,367.5" stroke="black" stroke-width="2" fill="none" />
<polyline points="100.0,373.0,78.0,357.0,72.0,333.0,81.5,317.0,90.0,297.5,96.0,282.0,99.5,254.0,107.5,232.0,118.0,216.5,114.0,206.5,104.0,206.0,88.0,207.5" stroke="black" stroke-width="2" fill="none" />
<polyline points="91.5,221.5,107.5,221.5,123.5,213.5" stroke="black" stroke-width="2" fill="none" />
<polyline points="104.5,202.0,100.5,189.5" stroke="black" stroke-width="2" fill="none" />
<polyline points="88.5,183.5,78.5,199.5,85.5,223.5,88.0,245.5,104.0,253.5" stroke="black" stroke-width="2" fill="none" />
<polyline points="116.0,212.0,95.5,217.5,81.0,233.5,65.0,233.5,49.0,225.0" stroke="black" stroke-width="2" fill="none" />
<polyline points="52.0,221.5,67.5,229.5,83.5,225.0,89.5,199.0,105.0,195.0,113.5,197.0" stroke="black" stroke-width="2" fill="none" />
<polyline points="148.0,217.5,126.5,233.5,112.5,249.5,108.5,266.0,116.5,254.0,132.5,238.0,148.5,224.0,164.5,222.0,180.0,219.5,195.5,219.5,213.5,225.0,221.5,235.0,231.5,260.0,247.5,272.5,263.5,280.5,279.5,283.0,296.0,282.5,312.0,280.5,328.0,272.0,343.5,260.0,360.0,242.0,376.0,228.0,392.5,235.5,408.5,244.0,425.0,252.0,441.0,260.0,457.0,270.5" stroke="black" stroke-width="2" fill="none" />
<polyline points="377.0,228.5,409.0,244.5,441.0,260.5,459.0,276.0,465.0,292.0,471.0,307.5,477.0,324.0,483.0,340.0,487.0,356.5,471.5,372.5,433.5,388.5,405.0,404.5,409.0,420.5,404.5,436.0,404.0,452.0,404.0,467.5,401.5,483.5,401.5,499.5" stroke="black" stroke-width="2" fill="none" />
<polyline points="179.0,499.5,162.5,487.5,146.5,469.5" stroke="black" stroke-width="2" fill="none" />
<polyline points="144.0,467.0,160.0,477.0,175.5,488.5,191.5,502.5" stroke="black" stroke-width="2" fill="none" />
<polyline points="184.5,504.0,164.5,488.0" stroke="black" stroke-width="2" fill="none" />
<polyline points="168.0,486.0,188.0,502.5" stroke="black" stroke-width="2" fill="none" />
<polyline points="159.5,504.5,156.0,488.0,148.5,472.0,143.0,456.0,141.0,440.0,141.0,424.0,141.0,408.5,141.0,392.5,143.0,376.5,142.5,360.0,144.5,344.0,148.0,328.0,150.0,311.5,151.5,295.5,135.5,279.5,119.0,263.5,100.5,259.5,108.5,243.5,116.5,227.5,125.0,212.0,129.0,196.5,121.5,188.5,105.5,186.5,90.0,185.0,74.0,215.0,58.5,215.0,42.0,225.0,26.0,243.0" stroke="black" stroke-width="2" fill="none" />
<polyline points="32.0,261.0,48.5,266.5,65.0,273.0,81.0,275.0" stroke="black" stroke-width="2" fill="none" />
<polyline points="75.5,273.0,59.5,265.0,44.0,259.0,28.0,262.5" stroke="black" stroke-width="2" fill="none" />
<polyline points="24.0,266.5,40.0,274.5,56.0,282.5,72.0,284.0" stroke="black" stroke-width="2" fill="none" />
<polyline points="52.0,305.5,36.0,298.0,20.0,286.5" stroke="black" stroke-width="2" fill="none" />
<polyline points="21.0,286.0,41.0,302.0" stroke="black" stroke-width="2" fill="none" />
<polyline points="53.0,297.5,37.0,291.5,21.0,278.0" stroke="black" stroke-width="2" fill="none" />
<polyline points="16.5,275.0,32.5,278.5,49.0,284.5" stroke="black" stroke-width="2" fill="none" />
<polyline points="43.5,298.0,25.5,282.0" stroke="black" stroke-width="2" fill="none" />
<polyline points="17.5,295.5,33.5,311.5,55.5,323.5,57.5,336.0,57.0,352.5,57.0,368.5,55.0,385.0,51.5,401.0" stroke="black" stroke-width="2" fill="none" />
<polyline points="71.5,353.0,87.5,362.5" stroke="black" stroke-width="2" fill="none" />
<polyline points="96.0,352.0,80.0,338.0" stroke="black" stroke-width="2" fill="none" />
<polyline points="77.5,336.5,87.5,336.5,103.5,349.0" stroke="black" stroke-width="2" fill="none" />
<polyline points="90.0,358.0,74.0,348.0" stroke="black" stroke-width="2" fill="none" />
<polyline points="63.0,350.0,79.0,338.0,97.5,353.5" stroke="black" stroke-width="2" fill="none" />
<polyline points="103.0,354.0,85.5,338.0" stroke="black" stroke-width="2" fill="none" />
<polyline points="78.0,322.0,62.0,348.0" stroke="black" stroke-width="2" fill="none" />
<polyline points="21.0,357.5,31.5,338.0,24.0,353.5,18.0,369.0,14.5,385.0,4.5,407.0" stroke="black" stroke-width="2" fill="none" />
<polyline points="3.0,433.0,19.0,433.0,35.0,429.0,50.5,418.5,66.0,408.0,82.0,398.0,98.0,385.5,114.0,372.0,128.0,372.0,126.0,388.0,126.0,404.5,124.0,420.5,122.0,436.0,120.0,452.0,118.0,467.5,118.5,483.0,116.5,499.5" stroke="black" stroke-width="2" fill="none" />
<polyline points="59.5,420.5,83.5,404.5,105.5,388.5,123.5,372.5,135.5,357.0,135.5,341.0,135.0,325.0,121.0,303.0,103.0,287.0,89.0,301.0,73.0,305.0,70.5,293.5,52.5,299.0,42.5,283.0,6.5,297.0" stroke="black" stroke-width="2" fill="none" />
<polyline points="10.0,301.0,14.0,291.0,10.5,307.0,4.5,322.5" stroke="black" stroke-width="2" fill="none" />
<polyline points="3.5,316.5,19.0,326.5,35.0,328.5,50.5,324.0,32.0,348.0,26.0,363.5,23.5,367.5" stroke="black" stroke-width="2" fill="none" />
<polyline points="50.5,319.5,34.5,312.0,18.5,302.5" stroke="black" stroke-width="2" fill="none" />
<polyline points="19.5,298.0,47.5,314.0" stroke="black" stroke-width="2" fill="none" />
<polyline points="47.5,311.5,31.5,303.5,15.5,298.0" stroke="black" stroke-width="2" fill="none" />
<polyline points="14.0,269.5,26.0,257.5,42.0,245.0,58.0,249.0,74.5,261.5,90.5,259.5" stroke="black" stroke-width="2" fill="none" />
<polyline points="104.0,239.0,87.5,239.5,83.5,232.0,81.5,220.0,65.5,220.0,49.5,220.0" stroke="black" stroke-width="2" fill="none" />
<polyline points="52.5,217.0,66.5,233.5,84.0,249.5,92.0,261.5,92.0,278.0,86.0,294.0,91.5,278.0,101.5,283.5,117.5,299.5,133.0,313.5" stroke="black" stroke-width="2" fill="none" />
<polyline points="106.0,298.5,126.0,314.0,129.5,330.5,127.5,346.5,124.0,362.5,108.5,378.5,88.5,394.5,64.5,410.0,36.5,426.0" stroke="black" stroke-width="2" fill="none" />
<polyline points="3.0,436.5,19.0,438.5,35.0,434.5,51.5,424.5,67.5,416.5,83.5,404.5,99.0,394.5,115.0,380.5,131.0,364.0" stroke="black" stroke-width="2" fill="none" />
<polyline points="132.5,374.5,132.5,390.5,130.5,406.0,128.5,422.0,126.5,438.0,126.5,454.0,124.0,470.0,122.0,485.5,120.0,501.5" stroke="black" stroke-width="2" fill="none" />
<polyline points="69.0,278.0,39.0,262.5" stroke="black" stroke-width="2" fill="none" />
<polyline points="44.5,226.5,31.0,242.5,23.0,260.5,17.0,276.5,41.5,276.0,71.5,287.5,55.5,299.0,55.5,319.0,61.5,325.0,61.5,340.5,64.0,356.5,62.0,372.5,60.5,388.5,54.5,405.0" stroke="black" stroke-width="2" fill="none" />
<polyline points="168.0,509.5,162.0,493.5,157.5,477.5,145.5,461.5,146.0,445.5,144.5,429.0,144.5,413.0,145.0,396.5,147.0,380.5,146.5,365.0,148.5,349.0,151.0,333.5,155.0,317.5,159.0,301.5,151.0,285.5,135.0,269.5,117.0,253.0,133.0,236.5,154.5,220.5" stroke="black" stroke-width="2" fill="none" />
<polyline points="199.5,215.0,207.5,231.0,209.5,247.5,217.5,265.5,235.5,282.0" stroke="black" stroke-width="2" fill="none" />
<polyline points="234.0,227.0,249.5,249.5,265.5,259.5,281.5,263.5,298.0,266.0" stroke="black" stroke-width="2" fill="none" />
<polyline points="286.5,228.0,316.5,212.0,316.0,188.5,308.0,172.5,292.0,177.0,276.0,193.0,260.0,197.5,244.5,193.0,228.5,187.0" stroke="black" stroke-width="2" fill="none" />
<polyline points="225.5,179.5,217.5,195.5,222.0,187.5,228.0,180.0,243.5,180.0,259.5,176.0,276.0,174.0,292.0,167.5,310.5,165.5" stroke="black" stroke-width="2" fill="none" />
<polyline points="327.0,228.5,327.0,244.5,324.5,260.5" stroke="black" stroke-width="2" fill="none" />
<polyline points="323.5,274.5,345.5,259.0,360.0,243.0,370.0,226.5" stroke="black" stroke-width="2" fill="none" />
<polyline points="372.5,74.5,349.0,74.5,333.0,66.5,319.0,54.5,305.0,50.5,295.0,42.5,278.5,36.5,262.5,46.5,254.5,42.5,234.5,38.5,218.5,54.5,212.5,54.5,224.0,48.5,222.5,20.5,214.5,18.0,208.5,1.5,208.5,3.0,192.0,2.5" stroke="black" stroke-width="2" fill="none" />
<polyline points="191.0,2.0,193.5,18.0,189.0,17.5,189.5,29.5,185.5,33.5" stroke="black" stroke-width="2" fill="none" />
<polyline points="176.5,24.5,172.5,40.5,170.5,62.5,164.5,78.5,156.5,88.5,154.5,96.5,175.0,114.5,178.5,130.0,178.5,146.0,178.5,161.5,180.5,177.0,192.0,193.5,210.0,209.5,254.0,226.0" stroke="black" stroke-width="2" fill="none" />
<polyline points="201.5,221.5,203.5,237.5,206.0,253.5,214.0,269.5,232.0,285.5" stroke="black" stroke-width="2" fill="none" />
<polyline points="136.0,117.5,116.0,99.5,110.0,123.5,108.0,109.5,116.0,93.5,117.5,73.5,123.5,57.5,132.0,42.0,142.5,26.0,134.5,33.5" stroke="black" stroke-width="2" fill="none" />
<polyline points="145.0,17.5,134.5,37.5,118.5,67.5" stroke="black" stroke-width="2" fill="none" />
<polyline points="120.0,82.0,136.0,86.0,152.5,84.0,158.5,98.0" stroke="black" stroke-width="2" fill="none" />
<polyline points="168.0,77.5,182.0,65.5,198.0,58.0,214.5,46.0" stroke="black" stroke-width="2" fill="none" />
<polyline points="203.0,34.0,199.0,17.5,189.5,11.0" stroke="black" stroke-width="2" fill="none" />
<polyline points="180.0,8.0,168.0,10.0,152.0,6.0,140.0,22.5,126.0,42.5,134.0,16.5,157.5,14.5,147.0,30.5,139.0,46.5,135.5,62.0,135.5,78.0,135.5,94.0,151.5,110.5,157.5,126.5,158.0,143.0,154.0,159.0" stroke="black" stroke-width="2" fill="none" />
<polyline points="134.0,153.5,138.0,138.0,132.0,122.0,126.0,116.5,110.0,132.5" stroke="black" stroke-width="2" fill="none" />
<polyline points="107.5,101.5,123.5,87.5,139.5,93.5,155.5,115.5" stroke="black" stroke-width="2" fill="none" />
<polyline points="134.5,103.5,118.5,95.5" stroke="black" stroke-width="2" fill="none" />
<polyline points="113.5,100.5,117.5,116.5,117.5,124.5,111.5,140.5,121.5,156.0" stroke="black" stroke-width="2" fill="none" />
<polyline points="141.5,148.0,139.5,132.0,133.5,116.0,121.5,99.5,102.0,101.5" stroke="black" stroke-width="2" fill="none" />
<polyline points="163.5,72.0,179.5,52.0" stroke="black" stroke-width="2" fill="none" />
<polyline points="190.0,28.5,182.5,12.5,162.5,14.5,146.0,23.0,140.0,45.0,148.0,41.5,156.0,33.5,166.5,17.5" stroke="black" stroke-width="2" fill="none" />
<polyline points="170.0,32.5,166.0,42.0,179.5,37.5,183.5,21.0,185.5,17.0,181.5,1.0" stroke="black" stroke-width="2" fill="none" />
<polyline points="198.0,1.5,204.0,17.5,215.5,43.5,195.5,59.5,173.5,67.5,174.0,76.0,168.0,91.5,170.0,107.5,170.0,124.0,170.0,140.0,160.0,166.5" stroke="black" stroke-width="2" fill="none" />
<polyline points="252.0,42.0,250.0,34.0,234.0,52.0,232.0,54.0,231.5,41.5,243.5,25.5,233.5,6.0,240.0,2.5" stroke="black" stroke-width="2" fill="none" />
<polyline points="238.0,12.0,222.0,8.0,234.0,17.5,226.0,1.5" stroke="black" stroke-width="2" fill="none" />
<polyline points="218.0,1.0,206.0,9.5,210.0,25.5" stroke="black" stroke-width="2" fill="none" />
<polyline points="259.5,8.5,267.5,4.5" stroke="black" stroke-width="2" fill="none" />
<polyline points="338.0,2.0,351.5,18.0,364.0,34.5,374.0,50.5,378.5,66.0,368.5,93.5,363.0,110.0,357.0,126.0,359.0,142.0" stroke="black" stroke-width="2" fill="none" />
<polyline points="371.0,34.5,373.0,18.5,362.5,2.5" stroke="black" stroke-width="2" fill="none" />
<polyline points="141.0,1.5,133.0,17.5,123.5,33.5,117.5,33.5,134.0,5.0" stroke="black" stroke-width="2" fill="none" />
</svg>