<svg xmlns="http://www.w3.org/2000/svg" width="512mm" height="512mm" viewBox="0 0 512 512" version="1.1"><polyline points="273.5,62.5,309.5,78.5,329.5,94.5,337.5,110.5,347.5,127.0,353.5,143.0,355.5,159.0,357.5,175.0,353.0,191.0,357.0,206.5,354.5,222.5,347.0,238.5" stroke="black" stroke-width="2" fill="none" />
<polyline points="333.5,185.5,317.0,206.0,301.0,208.0" stroke="black" stroke-width="2" fill="none" />
<polyline points="299.0,201.0,315.0,189.5,319.0,199.5,311.5,199.5,324.0,204.0" stroke="black" stroke-width="2" fill="none" />
<polyline points="309.5,218.0,293.5,216.0" stroke="black" stroke-width="2" fill="none" />
<polyline points="290.0,211.0,298.5,218.5,297.0,225.0" stroke="black" stroke-width="2" fill="none" />
<polyline points="272.0,219.0,288.0,241.0,304.5,247.0,320.0,243.0" stroke="black" stroke-width="2" fill="none" />
<polyline points="300.0,287.5,315.5,303.5,331.5,315.0,347.5,323.0,363.0,329.0,379.5,337.0,396.0,347.0,402.0,375.0,406.5,391.0,408.5,406.5,408.0,422.5,404.5,439.0,400.5,455.5,390.5,472.0,394.5,478.5" stroke="black" stroke-width="2" fill="none" />
<polyline points="369.0,498.0,373.0,482.0,375.0,466.0,377.0,450.0,379.0,434.0,379.5,418.0,377.5,402.0,380.0,386.0,388.5,370.0,388.5,367.5" stroke="black" stroke-width="2" fill="none" />
<polyline points="393.5,363.5,389.5,379.5,398.0,383.5,384.0,400.0,383.5,416.0,383.5,432.0,384.0,448.0,382.0,463.5,380.5,479.5,376.5,495.5,400.0,489.5,416.0,481.5,432.0,473.5" stroke="black" stroke-width="2" fill="none" />
<polyline points="394.0,461.5,398.0,445.5,402.0,429.5,401.5,413.5,401.5,397.5,385.5,387.5,383.5,397.5" stroke="black" stroke-width="2" fill="none" />
<polyline points="349.5,445.0,333.5,434.5,317.5,428.5" stroke="black" stroke-width="2" fill="none" />
<polyline points="332.0,437.5,348.0,452.0,352.0,474.5" stroke="black" stroke-width="2" fill="none" />
<polyline points="349.0,506.5,325.0,490.0,315.0,470.0,316.5,454.0,334.5,453.5,332.0,438.0,316.0,448.0" stroke="black" stroke-width="2" fill="none" />
<polyline points="311.5,459.0,323.5,440.5,311.5,445.0,291.5,461.0,306.0,477.0,316.0,487.0,334.0,488.5,356.5,492.0" stroke="black" stroke-width="2" fill="none" />
<polyline points="320.0,480.0,318.0,464.0,300.0,460.0" stroke="black" stroke-width="2" fill="none" />
<polyline points="285.5,466.5,301.5,452.5,317.5,440.5,345.5,442.5,353.5,458.0,352.0,474.0,360.5,490.0,366.5,505.5" stroke="black" stroke-width="2" fill="none" />
<polyline points="321.5,507.0,305.5,499.0,290.0,493.0,274.0,480.5" stroke="black" stroke-width="2" fill="none" />
<polyline points="270.0,484.5,286.0,496.5,302.0,502.5,318.0,510.0" stroke="black" stroke-width="2" fill="none" />
<polyline points="282.0,504.0,266.0,494.5" stroke="black" stroke-width="2" fill="none" />
<polyline points="264.5,494.5,261.0,510.5,275.0,508.5,279.0,510.5" stroke="black" stroke-width="2" fill="none" />
<polyline points="265.0,486.0,281.0,471.5,297.0,475.5" stroke="black" stroke-width="2" fill="none" />
<polyline points="278.5,470.5,265.0,486.5,291.0,491.0,325.0,507.5" stroke="black" stroke-width="2" fill="none" />
<polyline points="302.0,505.0,272.0,488.5,262.0,482.5,276.0,466.5,295.5,450.5,315.5,434.5,305.5,442.5,289.0,454.5,272.5,468.5,256.5,487.0" stroke="black" stroke-width="2" fill="none" />
<polyline points="242.0,501.0,245.5,485.5,249.0,469.5,253.5,453.5,257.5,437.5,261.5,421.5,269.5,405.5,253.5,428.0" stroke="black" stroke-width="2" fill="none" />
<polyline points="256.5,423.0,252.5,439.5,248.0,455.5" stroke="black" stroke-width="2" fill="none" />
<polyline points="261.0,375.5,245.0,373.5,229.0,365.5,213.5,344.0,198.0,318.0" stroke="black" stroke-width="2" fill="none" />
<polyline points="204.5,320.5,220.5,344.5,236.5,364.0,252.5,370.0,268.5,368.0,284.5,348.0,300.0,326.0,326.0,329.5,346.0,343.5,346.0,360.0,346.0,376.0,346.0,392.0" stroke="black" stroke-width="2" fill="none" />
<polyline points="341.5,387.5,341.0,371.5,341.0,356.0,343.0,340.5,336.5,325.0,320.5,309.0,300.0,293.5,297.5,277.0,303.0,261.0,279.0,235.0,272.5,224.5,268.0,209.0,270.5,193.0,280.5,177.0,303.0,157.0,287.0,161.0,271.0,158.5,255.0,158.0,239.5,161.5,223.5,163.0,207.5,152.5,191.5,158.0" stroke="black" stroke-width="2" fill="none" />
<polyline points="185.0,155.5,209.0,155.5" stroke="black" stroke-width="2" fill="none" />
<polyline points="228.5,144.0,244.5,152.0" stroke="black" stroke-width="2" fill="none" />
<polyline points="242.0,134.5,226.0,124.0" stroke="black" stroke-width="2" fill="none" />
<polyline points="224.0,118.5,240.0,122.5" stroke="black" stroke-width="2" fill="none" />
<polyline points="233.5,94.5,249.0,102.5,277.0,102.5,298.5,106.0,322.0,116.0,312.0,123.5" stroke="black" stroke-width="2" fill="none" />
<polyline points="328.0,99.0,312.5,83.5,296.5,73.5,280.5,68.0,264.5,64.5" stroke="black" stroke-width="2" fill="none" />
<polyline points="277.0,67.5,309.0,83.5,317.5,99.5,329.5,115.5,340.0,135.0,334.0,151.5,338.0,157.5,334.0,172.0,332.0,188.0,332.0,204.5,334.0,220.5,328.0,237.0,297.5,259.0,283.5,274.5,261.5,290.5" stroke="black" stroke-width="2" fill="none" />
<polyline points="254.5,279.0,239.0,280.5,223.0,280.5" stroke="black" stroke-width="2" fill="none" />
<polyline points="219.0,279.5,235.0,277.5,251.0,276.0" stroke="black" stroke-width="2" fill="none" />
<polyline points="251.0,236.5,235.0,220.5" stroke="black" stroke-width="2" fill="none" />
<polyline points="237.5,222.5,249.5,238.5" stroke="black" stroke-width="2" fill="none" />
<polyline points="267.0,223.5,269.5,238.0,286.0,253.5,306.0,251.0,322.5,247.0,338.5,239.0,354.5,227.0" stroke="black" stroke-width="2" fill="none" />
<polyline points="325.5,253.5,310.0,257.0,294.5,265.0,278.5,279.0,262.5,289.0,246.5,295.5,230.5,295.5,214.5,287.5,198.5,273.5,182.5,247.0,166.5,257.0,152.5,251.0,144.5,235.5,138.5,219.5,138.0,203.0,144.0,187.0,146.0,171.5,150.0,155.5,150.0,139.5,156.0,123.0,164.0,107.5,172.0,91.5,190.5,76.0,224.5,69.5,209.0,75.5,193.5,86.0,178.0,98.0,162.0,126.0" stroke="black" stroke-width="2" fill="none" />
<polyline points="153.0,129.5,168.5,100.0,185.0,82.0,201.0,70.0,217.0,64.0,233.0,60.0,249.0,60.5,264.5,60.5,280.5,64.5,296.5,69.0,312.5,79.0,328.5,93.0,344.5,117.0,348.5,153.5,349.0,169.0,345.0,185.0" stroke="black" stroke-width="2" fill="none" />
<polyline points="309.0,189.0,300.5,205.0,307.0,207.0,314.5,223.0,318.5,224.5,314.0,228.5,318.5,218.5" stroke="black" stroke-width="2" fill="none" />
<polyline points="270.0,250.0,254.0,261.5,238.0,265.5,222.0,263.5,206.0,261.5" stroke="black" stroke-width="2" fill="none" />
<polyline points="209.5,268.0,225.5,270.0,242.0,270.0,258.0,266.0,274.0,270.5" stroke="black" stroke-width="2" fill="none" />
<polyline points="268.0,254.0,268.5,238.5,263.0,223.0,249.0,219.0,233.0,209.0" stroke="black" stroke-width="2" fill="none" />
<polyline points="236.5,201.0,252.5,197.0" stroke="black" stroke-width="2" fill="none" />
<polyline points="258.0,203.0,242.0,205.0" stroke="black" stroke-width="2" fill="none" />
<polyline points="237.0,190.5,231.0,206.5,235.0,222.0,245.0,238.0" stroke="black" stroke-width="2" fill="none" />
<polyline points="203.5,204.0,187.5,206.0" stroke="black" stroke-width="2" fill="none" />
<polyline points="184.0,209.5,200.0,207.5,216.0,207.0,218.0,205.0,222.0,211.0,222.0,227.0,218.0,243.0,222.0,253.0,237.5,251.5" stroke="black" stroke-width="2" fill="none" />
<polyline points="215.0,299.5,197.0,280.0,181.0,256.0" stroke="black" stroke-width="2" fill="none" />
<polyline points="179.0,256.5,185.0,272.5,201.0,288.0,179.0,303.5,145.0,319.5,113.0,335.0,99.5,351.0,94.0,367.5,86.0,383.5,82.0,399.5,76.0,415.5,70.0,431.5,64.0,447.0,58.0,463.0,54.0,479.0,66.0,491.0,58.0,507.0,66.0,485.0,81.5,489.5,97.5,499.5,113.0,509.5" stroke="black" stroke-width="2" fill="none" />
<polyline points="102.5,508.5,86.5,500.5,70.5,494.5,67.0,502.5,57.0,484.5" stroke="black" stroke-width="2" fill="none" />
<polyline points="54.0,476.5,70.0,431.0,85.5,385.0,101.5,348.5,117.5,334.5,133.5,326.0,150.0,320.0,165.5,314.0,182.0,304.0,198.0,294.0,210.0,302.0,226.0,312.5,242.0,316.0,257.5,314.0,273.5,305.5,289.5,295.0,305.5,305.5" stroke="black" stroke-width="2" fill="none" />
<polyline points="298.0,298.0,308.0,314.0,298.0,330.0,286.0,346.5,274.0,362.5,254.0,388.5,253.5,396.5,269.0,374.5,285.0,356.5,301.5,332.0,317.5,314.0,333.5,322.0,349.5,328.5,365.5,336.5,382.0,347.0,398.0,359.0,414.0,395.5,430.0,437.5,446.0,471.0" stroke="black" stroke-width="2" fill="none" />
<polyline points="338.5,498.0,336.5,486.0,340.5,469.5,350.5,457.5,336.0,441.5" stroke="black" stroke-width="2" fill="none" />
<polyline points="332.0,334.0,316.0,322.0" stroke="black" stroke-width="2" fill="none" />
<polyline points="330.5,316.5,368.5,332.5,394.5,348.5,408.5,364.5,412.5,380.5,420.5,396.5,426.0,412.0,432.0,428.0,438.0,443.5,446.0,460.0,436.0,478.0,401.5,494.0,375.0,509.5,379.0,503.5,395.0,495.5,411.0,490.0,427.0,484.0,443.0,474.0" stroke="black" stroke-width="2" fill="none" />
<polyline points="395.0,467.5,383.0,496.0,391.5,492.0,427.5,476.0,437.5,460.0,431.0,444.5,425.0,428.5,419.5,413.0,413.5,397.0,407.5,381.0,401.5,365.0,384.0,349.0,354.0,333.0" stroke="black" stroke-width="2" fill="none" />
<polyline points="294.5,317.5,278.5,323.5" stroke="black" stroke-width="2" fill="none" />
<polyline points="263.0,312.5,286.5,296.5" stroke="black" stroke-width="2" fill="none" />
<polyline points="293.5,296.5,295.5,312.5,307.0,326.5,295.0,342.5,282.5,358.0,268.5,374.0,256.5,389.5,255.0,405.5,251.0,421.5,247.5,437.0,243.5,453.0,239.5,469.0,237.5,485.0" stroke="black" stroke-width="2" fill="none" />
<polyline points="238.0,402.0,222.0,389.5,206.0,375.5,190.5,359.0" stroke="black" stroke-width="2" fill="none" />
<polyline points="193.0,358.0,211.0,373.5,229.5,389.5,242.0,405.5,244.5,421.5,242.5,438.0,239.0,454.0,237.0,470.0,234.5,486.0,232.5,502.0" stroke="black" stroke-width="2" fill="none" />
<polyline points="235.5,394.5,219.5,380.5,204.0,366.0,188.0,356.5" stroke="black" stroke-width="2" fill="none" />
<polyline points="187.5,356.5,199.5,372.5,217.5,388.5,237.5,404.5" stroke="black" stroke-width="2" fill="none" />
<polyline points="137.5,387.0,135.5,403.0,133.5,419.5,129.5,435.5,127.5,452.0,125.5,468.0,123.5,484.0,121.5,499.5" stroke="black" stroke-width="2" fill="none" />
<polyline points="109.5,507.5,83.5,491.5" stroke="black" stroke-width="2" fill="none" />
<polyline points="61.0,474.5,77.0,430.5,93.0,384.5,109.0,350.0,125.0,336.0,141.0,327.5,157.0,324.0,173.0,316.0,189.0,308.5,205.5,300.5,221.5,298.5,237.0,302.5" stroke="black" stroke-width="2" fill="none" />
<polyline points="202.5,301.5,196.0,313.5,202.0,329.5,212.0,345.0,226.0,361.0,238.5,376.5,244.5,392.5" stroke="black" stroke-width="2" fill="none" />
<polyline points="246.5,382.5,242.5,380.5,226.5,354.5,214.5,338.5,204.5,322.5,202.5,306.5" stroke="black" stroke-width="2" fill="none" />
<polyline points="181.0,310.5,144.5,326.5,114.5,342.0,104.5,358.0,96.0,374.5,90.0,390.5,84.0,406.0,80.0,421.5,73.5,437.0,67.5,452.5,61.5,468.0,61.5,484.5,87.5,501.0" stroke="black" stroke-width="2" fill="none" />
<polyline points="118.5,497.5,120.0,482.0,122.0,466.0,124.0,449.5,126.0,433.5,127.5,417.5,130.5,401.5,132.5,385.5" stroke="black" stroke-width="2" fill="none" />
<polyline points="149.5,236.0,147.5,219.5,147.5,203.5,154.0,185.5,150.0,169.5,154.5,153.5,159.0,137.5,163.0,122.0,171.0,106.0,169.0,118.5" stroke="black" stroke-width="2" fill="none" />
<polyline points="171.5,146.0,185.5,162.0,193.5,162.0,177.0,160.0" stroke="black" stroke-width="2" fill="none" />
<polyline points="175.5,161.5,173.5,177.5,175.5,193.5,175.5,209.0,177.5,225.0,179.5,240.5,170.0,256.5,190.5,266.0,207.0,282.0,217.5,296.0,230.0,306.0,246.0,308.0" stroke="black" stroke-width="2" fill="none" />
<polyline points="201.5,197.0,185.5,201.0" stroke="black" stroke-width="2" fill="none" />
<polyline points="183.0,196.0,199.0,191.5,215.0,195.0,237.0,189.0,253.0,187.0,268.5,183.0,285.0,167.0,297.0,161.0" stroke="black" stroke-width="2" fill="none" />
<polyline points="282.5,169.0,268.5,184.5,282.5,176.5,298.5,166.5,314.5,164.5,330.5,168.5,331.0,162.5" stroke="black" stroke-width="2" fill="none" />
<polyline points="342.5,133.0,330.5,113.5,314.5,91.5,298.0,83.0,282.0,75.0,266.0,71.5,250.0,69.5" stroke="black" stroke-width="2" fill="none" />
<polyline points="256.0,81.5,255.5,78.0,239.5,70.0,223.5,74.0" stroke="black" stroke-width="2" fill="none" />
<polyline points="221.5,87.0,237.5,89.0,253.5,98.0,269.5,98.5,285.5,104.5,301.5,99.0,318.0,110.5" stroke="black" stroke-width="2" fill="none" />
<polyline points="287.0,134.0,271.5,134.0,265.5,137.5,240.0,139.5,224.0,135.0,208.0,131.0" stroke="black" stroke-width="2" fill="none" />
<polyline points="185.5,141.5,201.5,141.5,201.5,129.5,217.5,128.0,233.0,136.5,249.0,144.5,267.0,149.0" stroke="black" stroke-width="2" fill="none" />
<polyline points="305.5,110.0,299.5,114.0,283.5,110.5,277.5,118.5,261.5,114.5,245.0,112.5,237.0,112.5,217.5,114.0,201.5,106.0" stroke="black" stroke-width="2" fill="none" />
<polyline points="199.5,100.0,215.0,108.0,233.0,115.5,249.0,123.5,251.0,117.5,260.5,127.5,266.5,119.5" stroke="black" stroke-width="2" fill="none" />
<polyline points="240.0,91.0,268.0,107.5,270.0,121.5,250.0,157.5" stroke="black" stroke-width="2" fill="none" />
<polyline points="192.0,192.0,181.5,208.0,196.0,216.5,212.0,218.5" stroke="black" stroke-width="2" fill="none" />
<polyline points="162.0,246.0,152.5,230.0,152.5,212.0,164.5,192.0,162.5,176.0,161.0,159.5,153.0,159.5" stroke="black" stroke-width="2" fill="none" />
<polyline points="156.0,160.5,155.5,176.0,147.5,191.5,141.5,207.5,144.0,224.0,154.0,252.0" stroke="black" stroke-width="2" fill="none" />
<polyline points="161.0,239.5,145.0,222.0" stroke="black" stroke-width="2" fill="none" />
<polyline points="138.0,202.5,158.0,212.5,168.0,214.0" stroke="black" stroke-width="2" fill="none" />
<polyline points="228.5,145.5,208.0,133.5,228.0,132.0,224.0,116.0,218.0,115.5,200.0,99.5" stroke="black" stroke-width="2" fill="none" />
<polyline points="205.5,71.0,187.5,87.0,177.5,103.0,167.5,119.5,164.0,136.0,164.0,152.5,166.0,168.5,170.0,184.5,186.0,202.5,218.5,218.5,215.0,234.5,215.0,250.5,230.5,246.5,246.5,244.5" stroke="black" stroke-width="2" fill="none" />
<polyline points="276.0,148.0,275.5,125.5,257.5,123.5,243.5,115.5,258.0,107.5,230.0,91.5" stroke="black" stroke-width="2" fill="none" />
<polyline points="277.0,76.0,317.5,90.0,329.0,105.5,337.5,121.5,327.5,147.5,342.0,151.5,352.0,161.5,350.5,178.0" stroke="black" stroke-width="2" fill="none" />
</svg>