<svg xmlns="http://www.w3.org/2000/svg" width="512mm" height="512mm" viewBox="0 0 512 512" version="1.1"><polyline points="95.5,58.5,73.5,74.5,65.5,90.5,45.5,106.5,41.5,123.0,45.5,139.0,41.5,155.0,33.5,171.0,21.0,187.0,7.0,202.5,10.5,198.5,27.0,178.5,43.0,150.5" stroke="black" stroke-width="2" fill="none" />
<polyline points="71.0,141.5,87.0,139.5,103.0,121.5,118.5,109.5,134.0,97.0,128.0,101.0,106.0,117.0,92.0,133.5,80.0,150.0,86.0,166.5,98.0,182.5,102.0,198.0,112.0,205.5,124.0,221.5,129.5,237.5,133.5,253.5,129.5,269.0,126.0,285.0,118.5,301.5,106.5,317.5,86.5,333.5,70.5,354.0,68.0,338.0,67.5,341.5,61.5,357.5,50.0,373.5,36.0,389.5,44.0,379.5,60.0,359.5,78.0,349.5,94.0,335.5,110.0,321.5,126.0,295.5,132.0,263.5,156.0,281.5,172.0,292.0,188.0,303.5,204.0,308.0,210.0,300.0" stroke="black" stroke-width="2" fill="none" />
<polyline points="215.5,297.5,216.0,287.5,218.0,272.0,218.5,256.0,215.0,240.5,213.0,224.5,193.5,224.5" stroke="black" stroke-width="2" fill="none" />
<polyline points="186.5,218.0,192.5,232.0,192.5,247.5,190.0,263.0,188.0,279.0,193.5,289.0" stroke="black" stroke-width="2" fill="none" />
<polyline points="194.0,278.5,172.0,268.0" stroke="black" stroke-width="2" fill="none" />
<polyline points="156.0,272.5,172.0,258.5,182.5,252.5" stroke="black" stroke-width="2" fill="none" />
<polyline points="165.5,239.0,149.5,227.0" stroke="black" stroke-width="2" fill="none" />
<polyline points="153.0,218.5,167.0,226.5,164.5,255.0,172.5,271.0,172.0,285.5,187.5,293.5,203.5,295.5" stroke="black" stroke-width="2" fill="none" />
<polyline points="176.5,291.0,157.0,274.5,154.5,258.5,178.5,244.0,162.5,238.5,148.5,222.0,156.0,216.0,150.0,200.0,138.0,184.0,134.5,185.5,134.5,188.0,130.5,188.0,134.0,172.5,138.0,160.5,144.0,144.5,152.0,128.0,158.0,112.0,147.5,106.0,131.5,104.0" stroke="black" stroke-width="2" fill="none" />
<polyline points="136.5,78.5,120.5,68.5" stroke="black" stroke-width="2" fill="none" />
<polyline points="130.0,67.5,102.5,61.0" stroke="black" stroke-width="2" fill="none" />
<polyline points="93.5,63.0,75.5,79.0,91.5,69.0,95.5,71.5,112.0,68.0,128.0,66.5,144.0,78.5" stroke="black" stroke-width="2" fill="none" />
<polyline points="161.0,92.5,145.0,70.5,128.5,60.0,112.5,58.0,96.0,57.5,80.0,65.5,63.5,91.5,47.5,99.5,47.0,123.5,61.5,120.0,59.0,104.0" stroke="black" stroke-width="2" fill="none" />
<polyline points="57.0,99.5,56.5,104.0,59.0,120.0,59.0,136.0,51.0,152.0,41.0,168.0,31.0,184.5,18.5,200.5,2.5,214.5,18.5,199.0,34.5,179.0,50.5,151.0,66.5,125.0,66.5,125.5,73.0,135.0,65.0,151.0,59.0,167.0,49.0,183.0,37.0,199.0,27.5,215.0,19.5,231.0,9.5,246.5,7.5,262.5,15.5,236.5,31.5,208.5,47.0,186.5,63.0,156.5" stroke="black" stroke-width="2" fill="none" />
<polyline points="80.0,154.5,96.0,166.0,111.5,176.5,121.5,160.5,126.0,170.5,142.5,186.5,158.5,216.5,174.5,234.0" stroke="black" stroke-width="2" fill="none" />
<polyline points="135.0,225.5,127.5,210.0,106.0,186.0" stroke="black" stroke-width="2" fill="none" />
<polyline points="81.0,194.5,107.0,220.5,123.0,232.0" stroke="black" stroke-width="2" fill="none" />
<polyline points="121.0,213.0,101.0,205.0,85.0,193.5,69.0,180.0" stroke="black" stroke-width="2" fill="none" />
<polyline points="67.0,176.0,83.0,162.0,99.0,173.5,116.5,189.5,132.5,206.0" stroke="black" stroke-width="2" fill="none" />
<polyline points="89.5,227.5,73.5,199.5" stroke="black" stroke-width="2" fill="none" />
<polyline points="60.5,187.0,74.5,202.5,86.5,218.5,90.5,234.5,86.5,250.5,84.5,266.5,81.0,270.5,85.0,286.5,83.5,302.0" stroke="black" stroke-width="2" fill="none" />
<polyline points="88.5,300.5,90.5,284.5,88.5,268.5,72.5,256.5,57.0,252.5,41.0,258.5" stroke="black" stroke-width="2" fill="none" />
<polyline points="43.0,264.5,59.0,302.5,75.0,332.5,91.0,332.0,107.0,318.0,123.0,291.5" stroke="black" stroke-width="2" fill="none" />
<polyline points="128.0,308.0,130.0,324.0,136.0,340.0,142.0,356.5,150.0,372.5,156.0,388.5,161.5,404.5,165.0,420.5,145.0,436.5,147.5,452.0,143.5,468.0,133.5,484.0,127.5,500.5,121.5,498.5,128.0,467.0,150.0,433.0" stroke="black" stroke-width="2" fill="none" />
<polyline points="149.5,426.0,134.0,430.0,117.5,430.0,101.5,428.5,85.5,424.5,69.5,419.0,54.0,415.0,38.0,408.5" stroke="black" stroke-width="2" fill="none" />
<polyline points="34.5,402.5,51.0,384.5,67.0,366.5" stroke="black" stroke-width="2" fill="none" />
<polyline points="103.5,342.0,117.5,330.5,119.5,347.0,123.5,363.5,129.0,380.0,135.0,396.5,137.0,413.0" stroke="black" stroke-width="2" fill="none" />
<polyline points="163.0,408.0,147.0,365.5,131.0,325.5" stroke="black" stroke-width="2" fill="none" />
<polyline points="128.0,331.0,144.0,369.0" stroke="black" stroke-width="2" fill="none" />
<polyline points="124.0,341.5,140.0,375.5,142.0,379.5,158.0,407.5" stroke="black" stroke-width="2" fill="none" />
<polyline points="142.5,447.0,140.5,463.5,140.0,485.5,134.0,501.5,128.0,498.0" stroke="black" stroke-width="2" fill="none" />
<polyline points="93.5,480.0,77.5,472.0" stroke="black" stroke-width="2" fill="none" />
<polyline points="75.5,485.0,75.5,469.0,91.5,469.0" stroke="black" stroke-width="2" fill="none" />
<polyline points="88.0,453.5,72.0,457.5" stroke="black" stroke-width="2" fill="none" />
<polyline points="76.0,455.5,76.5,471.5,70.5,475.5,62.5,492.0,68.5,472.0,84.5,464.0,100.5,458.0" stroke="black" stroke-width="2" fill="none" />
<polyline points="91.5,448.0,76.0,450.0,60.0,458.0" stroke="black" stroke-width="2" fill="none" />
<polyline points="51.0,432.0,67.0,435.5,73.0,441.5,53.0,460.0,69.0,444.5,85.0,440.5" stroke="black" stroke-width="2" fill="none" />
<polyline points="53.5,429.5,55.5,445.5,52.0,445.5,52.0,462.0,55.5,466.0,53.5,482.0,56.0,498.0,64.0,497.5,68.5,507.5,76.5,493.5" stroke="black" stroke-width="2" fill="none" />
<polyline points="83.5,506.0,77.5,490.0,61.5,496.0" stroke="black" stroke-width="2" fill="none" />
<polyline points="57.0,489.5,67.0,487.5,82.5,480.0" stroke="black" stroke-width="2" fill="none" />
<polyline points="122.0,437.5,98.0,438.0,82.0,434.0,66.0,428.5,50.0,422.5" stroke="black" stroke-width="2" fill="none" />
<polyline points="49.0,422.0,75.0,425.5,91.5,465.5,98.0,471.5,116.5,457.5,128.5,444.0" stroke="black" stroke-width="2" fill="none" />
<polyline points="136.5,445.5,124.5,461.5,121.5,471.5,108.0,487.5,124.0,495.5,112.0,498.0,120.0,468.0,120.5,449.5" stroke="black" stroke-width="2" fill="none" />
<polyline points="137.5,447.0,133.5,463.0,125.5,479.5" stroke="black" stroke-width="2" fill="none" />
<polyline points="90.5,507.0,97.0,502.5,105.0,486.5,106.5,471.0,118.5,455.0,113.0,445.5,99.0,431.5,83.0,427.5,67.0,421.5,51.0,417.5,35.0,423.0,19.0,420.5,2.5,412.5" stroke="black" stroke-width="2" fill="none" />
<polyline points="8.0,417.0,24.0,433.0" stroke="black" stroke-width="2" fill="none" />
<polyline points="47.5,418.5,45.5,434.5,45.5,450.5,45.5,466.5,47.5,482.0,50.0,498.0" stroke="black" stroke-width="2" fill="none" />
<polyline points="110.5,372.5,110.5,356.5,110.5,340.5" stroke="black" stroke-width="2" fill="none" />
<polyline points="107.0,338.5,104.5,354.5,104.5,370.0,104.5,386.0,116.0,396.5" stroke="black" stroke-width="2" fill="none" />
<polyline points="160.5,416.5,154.5,400.5,150.5,384.5,142.5,368.5,126.5,350.5,122.5,334.5" stroke="black" stroke-width="2" fill="none" />
<polyline points="122.5,313.5,126.0,329.5,132.0,345.5,138.0,361.0,134.0,377.0,140.5,392.5,144.5,408.5" stroke="black" stroke-width="2" fill="none" />
<polyline points="93.0,304.5,95.5,288.5,91.5,272.5" stroke="black" stroke-width="2" fill="none" />
<polyline points="64.0,247.5,47.5,247.5,31.5,253.5" stroke="black" stroke-width="2" fill="none" />
<polyline points="51.0,252.5,41.0,268.5,49.0,284.0,55.0,299.5,63.0,315.5,69.0,331.0" stroke="black" stroke-width="2" fill="none" />
<polyline points="63.5,234.5,47.5,236.5,31.5,248.5,29.5,252.5,45.5,236.5" stroke="black" stroke-width="2" fill="none" />
<polyline points="35.0,214.0,21.0,248.0,14.5,255.5,26.5,240.0,24.0,234.5,36.0,222.5,43.5,206.0,44.0,202.0" stroke="black" stroke-width="2" fill="none" />
<polyline points="35.0,189.0,26.5,205.0,25.0,207.0" stroke="black" stroke-width="2" fill="none" />
<polyline points="61.0,186.5,77.0,196.0,93.0,208.0,109.0,213.5" stroke="black" stroke-width="2" fill="none" />
<polyline points="140.5,258.5,147.0,274.5,165.0,290.5,191.0,306.0" stroke="black" stroke-width="2" fill="none" />
<polyline points="182.5,187.5,168.5,177.5,172.0,163.5,175.5,148.0,171.5,138.0,155.5,142.0" stroke="black" stroke-width="2" fill="none" />
<polyline points="160.0,135.0,154.0,151.5,158.0,167.5,174.0,183.5,190.0,199.5,194.0,215.5,186.0,231.5,186.5,247.5,168.5,263.5,159.0,253.5,173.0,244.0,181.0,247.5" stroke="black" stroke-width="2" fill="none" />
<polyline points="129.5,234.5,115.5,227.0,103.5,211.0,105.5,193.5,109.5,177.5,85.5,161.5" stroke="black" stroke-width="2" fill="none" />
<polyline points="76.0,125.5,76.0,141.5,73.5,157.5,67.5,173.5,75.5,189.5,88.0,206.0,106.0,221.5" stroke="black" stroke-width="2" fill="none" />
<polyline points="113.5,134.0,129.5,136.0,153.0,124.5" stroke="black" stroke-width="2" fill="none" />
<polyline points="145.0,127.5,127.0,126.0,111.5,130.0" stroke="black" stroke-width="2" fill="none" />
<polyline points="168.0,149.5,168.0,165.5,186.0,184.0" stroke="black" stroke-width="2" fill="none" />
<polyline points="176.0,150.5,175.5,166.0,181.5,181.5,195.5,197.5,200.0,214.0,208.0,230.0,210.0,246.0,212.0,262.0,212.5,278.0,206.5,293.5" stroke="black" stroke-width="2" fill="none" />
<polyline points="383.0,191.0,383.0,187.0,399.0,187.0" stroke="black" stroke-width="2" fill="none" />
<polyline points="477.0,186.5,493.0,186.5,509.0,186.5" stroke="black" stroke-width="2" fill="none" />
<polyline points="510.5,191.0,494.5,191.0,478.5,191.0" stroke="black" stroke-width="2" fill="none" />
<polyline points="129.0,61.5,151.0,77.5,159.5,93.5,153.5,109.5,148.0,125.0,140.0,141.5,132.0,157.5,124.0,170.0,114.0,186.0,122.0,202.5,128.0,218.5,140.0,237.0,137.5,261.0,133.5,276.5,127.5,292.5,129.5,304.0,114.0,318.0,95.5,334.0,78.0,350.0,68.0,366.0,54.0,382.0,40.0,398.5,46.0,398.0,33.5,424.0" stroke="black" stroke-width="2" fill="none" />
</svg>