<svg xmlns="http://www.w3.org/2000/svg" width="512mm" height="512mm" viewBox="0 0 512 512" version="1.1"><polyline points="175.5,40.5,145.5,56.5,129.5,72.5,117.5,88.5,107.5,105.0,97.5,121.0,91.5,137.0,87.5,153.0,87.0,171.0,85.0,186.5,86.5,202.5,95.0,218.5,99.0,234.5,111.0,234.5,103.5,238.0,83.5,253.5,59.5,269.0,75.5,253.0,91.5,241.0,103.5,242.5,108.0,238.5,126.0,242.5,142.5,248.5,164.5,251.0,174.5,237.0,174.5,245.0,192.5,265.0,208.5,267.5,224.5,267.5" stroke="black" stroke-width="2" fill="none" />
<polyline points="241.5,267.0,239.5,283.0,241.5,287.0" stroke="black" stroke-width="2" fill="none" />
<polyline points="253.0,331.5,269.0,309.5,284.5,299.5,296.5,305.5,274.5,324.0,290.0,316.0,312.0,324.0,327.5,324.5,335.0,340.5,351.0,338.5,366.5,342.0,383.0,348.0" stroke="black" stroke-width="2" fill="none" />
<polyline points="386.5,330.5,396.5,334.5,412.0,338.5,428.5,348.5,444.5,361.0,460.5,367.0,476.5,378.5,492.5,389.0,508.5,399.0" stroke="black" stroke-width="2" fill="none" />
<polyline points="507.0,405.5,491.0,399.5,481.5,387.0,465.5,375.0,449.5,367.0,427.0,359.5,415.0,343.5,399.0,339.5,383.0,333.5,399.0,316.0,407.0,310.0,415.0,294.5,419.0,284.5,403.0,298.5,387.0,322.5,371.0,332.5,365.0,308.5,367.0,293.0,375.0,277.0,367.5,259.0,352.0,255.0,336.0,255.0,320.5,255.0,304.5,263.0" stroke="black" stroke-width="2" fill="none" />
<polyline points="296.5,263.0,322.5,263.0,315.0,278.5,325.5,294.5,348.0,294.5" stroke="black" stroke-width="2" fill="none" />
<polyline points="353.5,277.5,337.0,277.0" stroke="black" stroke-width="2" fill="none" />
<polyline points="335.5,274.0,351.5,274.0" stroke="black" stroke-width="2" fill="none" />
<polyline points="369.0,262.0,353.5,262.0,337.5,262.0,322.0,264.0,322.0,272.0" stroke="black" stroke-width="2" fill="none" />
<polyline points="317.0,279.5,333.0,285.5,349.5,285.5,365.5,283.5,371.5,297.0,369.5,313.0" stroke="black" stroke-width="2" fill="none" />
<polyline points="396.5,317.0,408.5,297.0" stroke="black" stroke-width="2" fill="none" />
<polyline points="423.0,268.5,407.0,254.5" stroke="black" stroke-width="2" fill="none" />
<polyline points="405.5,256.0,421.5,272.0" stroke="black" stroke-width="2" fill="none" />
<polyline points="435.0,258.5,419.0,246.5,403.0,224.5" stroke="black" stroke-width="2" fill="none" />
<polyline points="403.0,215.5,414.5,232.0,431.0,248.0" stroke="black" stroke-width="2" fill="none" />
<polyline points="446.0,252.0,429.5,238.0,413.0,221.5,397.0,185.5" stroke="black" stroke-width="2" fill="none" />
<polyline points="400.0,182.5,406.0,199.0,413.5,215.0,427.5,230.5,445.5,246.5,451.5,262.0" stroke="black" stroke-width="2" fill="none" />
<polyline points="456.0,246.0,440.5,227.5,424.5,191.5,400.0,155.5" stroke="black" stroke-width="2" fill="none" />
<polyline points="397.5,145.0,401.5,161.0,407.5,177.5,411.5,193.5" stroke="black" stroke-width="2" fill="none" />
<polyline points="423.5,207.5,407.5,163.5" stroke="black" stroke-width="2" fill="none" />
<polyline points="408.0,147.0,428.0,187.0,444.0,221.0,460.0,241.0,476.0,253.5,492.0,259.5,507.5,265.5" stroke="black" stroke-width="2" fill="none" />
<polyline points="443.5,257.0,427.5,245.0,411.0,229.0,395.0,215.0" stroke="black" stroke-width="2" fill="none" />
<polyline points="397.0,214.0,405.0,229.5,409.0,245.5,423.0,262.0,437.0,266.5" stroke="black" stroke-width="2" fill="none" />
<polyline points="460.5,257.0,444.0,245.0,428.0,229.0,412.0,207.0,396.0,181.0" stroke="black" stroke-width="2" fill="none" />
<polyline points="427.5,166.5,443.5,166.0,459.0,166.0,474.5,165.5,490.0,165.0,506.0,165.0" stroke="black" stroke-width="2" fill="none" />
<polyline points="511.5,124.0,511.0,106.0,502.5,90.0,500.5,84.5" stroke="black" stroke-width="2" fill="none" />
<polyline points="489.0,101.5,505.0,110.0" stroke="black" stroke-width="2" fill="none" />
<polyline points="503.5,116.5,488.0,112.5" stroke="black" stroke-width="2" fill="none" />
<polyline points="482.5,110.5,486.5,126.5,488.5,126.5,504.5,126.5" stroke="black" stroke-width="2" fill="none" />
<polyline points="500.5,134.0,485.0,130.5,477.5,122.5,480.0,106.5,482.0,112.0" stroke="black" stroke-width="2" fill="none" />
<polyline points="474.5,111.5,490.5,98.0,507.0,106.0" stroke="black" stroke-width="2" fill="none" />
<polyline points="494.5,104.5,508.5,120.5" stroke="black" stroke-width="2" fill="none" />
<polyline points="508.0,109.5,504.0,119.5,488.5,103.5" stroke="black" stroke-width="2" fill="none" />
<polyline points="415.0,68.5,399.0,52.5,395.0,35.0,395.0,39.0" stroke="black" stroke-width="2" fill="none" />
<polyline points="397.5,42.5,413.0,44.0,417.0,50.0" stroke="black" stroke-width="2" fill="none" />
<polyline points="426.0,44.0,410.0,32.0" stroke="black" stroke-width="2" fill="none" />
<polyline points="383.0,26.5,399.0,28.5,417.0,32.5,435.0,48.0,433.0,64.0" stroke="black" stroke-width="2" fill="none" />
<polyline points="434.0,77.5,417.5,85.5,401.5,71.0,385.5,53.0" stroke="black" stroke-width="2" fill="none" />
<polyline points="383.5,42.5,399.5,52.5,415.5,70.0,431.5,68.0" stroke="black" stroke-width="2" fill="none" />
<polyline points="404.0,77.5,414.5,58.0,426.5,46.0,406.5,30.0,376.5,24.0,360.0,28.0" stroke="black" stroke-width="2" fill="none" />
<polyline points="357.0,26.0,373.0,20.0,353.5,22.0,341.5,38.0,357.5,36.0,373.5,38.0,378.0,48.0,394.0,54.0,410.0,74.5,426.5,78.5" stroke="black" stroke-width="2" fill="none" />
<polyline points="435.0,75.5,441.5,62.0,425.5,36.0,409.5,26.0,393.5,20.0,377.5,14.0,361.5,16.0,345.5,32.0,329.5,40.5,313.5,42.5,297.5,46.5,281.5,56.0,265.5,70.0,249.5,60.5,234.0,54.0,218.0,46.0,202.5,39.5,186.5,39.5,170.5,41.0,154.0,49.5,138.0,64.0,122.0,82.0,106.0,106.5,90.0,140.5" stroke="black" stroke-width="2" fill="none" />
<polyline points="99.5,133.0,115.5,102.5,131.5,80.5,147.5,64.5,163.5,52.5,179.0,46.5,195.0,44.5,210.5,49.0" stroke="black" stroke-width="2" fill="none" />
<polyline points="218.0,65.0,202.5,67.0" stroke="black" stroke-width="2" fill="none" />
<polyline points="208.5,71.0,202.5,72.5,206.5,88.5,232.5,72.5" stroke="black" stroke-width="2" fill="none" />
<polyline points="224.5,81.0,208.5,89.0" stroke="black" stroke-width="2" fill="none" />
<polyline points="177.5,63.5,147.5,79.5,133.5,95.5,127.5,111.0,121.5,127.0,133.5,94.5,150.0,76.5,166.5,68.0,183.0,62.0,199.5,60.0,216.0,58.0,232.0,58.0,247.5,64.0,273.0,73.5,288.5,63.5,304.5,56.0,320.0,51.5,336.0,49.5,352.0,53.0,356.0,45.5,370.0,55.5,386.0,71.5" stroke="black" stroke-width="2" fill="none" />
<polyline points="374.0,82.0,374.0,93.5,357.5,103.5,347.5,109.0,341.5,113.0,367.5,97.0,392.0,97.0,376.0,115.5,359.5,125.5,344.0,131.5,328.0,138.0,312.5,136.0,296.5,134.0,280.5,130.0,264.0,124.0" stroke="black" stroke-width="2" fill="none" />
<polyline points="272.5,118.5,288.0,120.5" stroke="black" stroke-width="2" fill="none" />
<polyline points="258.0,111.5,274.0,111.5,290.0,107.5,306.0,101.5,322.0,95.5,338.0,90.0" stroke="black" stroke-width="2" fill="none" />
<polyline points="329.5,84.5,289.5,100.5,267.5,100.5,257.5,126.5,249.5,142.5,245.5,158.0,258.0,174.0,280.0,186.0,284.5,202.0,290.5,218.0,309.0,233.5,315.0,225.5" stroke="black" stroke-width="2" fill="none" />
<polyline points="298.5,221.5,282.5,195.5" stroke="black" stroke-width="2" fill="none" />
<polyline points="270.5,207.0,286.5,223.0,302.5,235.5,318.5,243.5,335.0,244.0,351.0,232.0,367.0,212.5,379.0,212.5,385.0,229.0,391.0,245.0,399.0,261.0,413.0,277.0,401.0,292.5,391.0,308.5,380.5,324.5,412.5,344.5,426.5,360.5,442.5,372.5,436.0,389.0,412.0,405.0,406.0,421.5,422.0,437.5,430.5,453.5,442.5,469.0,445.0,485.0,449.0,501.0" stroke="black" stroke-width="2" fill="none" />
<polyline points="454.5,496.0,438.5,474.0" stroke="black" stroke-width="2" fill="none" />
<polyline points="441.0,469.5,449.5,486.0,454.0,501.5" stroke="black" stroke-width="2" fill="none" />
<polyline points="464.0,493.0,448.0,477.0" stroke="black" stroke-width="2" fill="none" />
<polyline points="427.5,432.5,443.5,462.5,460.0,480.5,476.0,492.5,492.0,490.0,508.5,474.0,502.5,484.0" stroke="black" stroke-width="2" fill="none" />
<polyline points="512.0,478.5,496.0,495.0" stroke="black" stroke-width="2" fill="none" />
<polyline points="490.5,474.0,502.5,458.5" stroke="black" stroke-width="2" fill="none" />
<polyline points="482.0,444.5,484.0,429.0,486.0,413.0,484.0,396.5,467.5,380.0,443.5,403.5,427.0,417.5,411.0,415.5,409.0,414.0,429.0,402.5,441.0,386.5,447.5,370.5,433.5,354.5,419.5,342.0,385.0,326.0,395.0,309.5,405.0,293.0,419.5,277.0,411.0,265.0,399.0,249.0,391.0,233.0,385.0,217.5,381.0,201.5,377.0,184.0,381.5,168.5,386.0,152.5,388.0,137.0,366.0,141.0" stroke="black" stroke-width="2" fill="none" />
<polyline points="352.5,142.0,365.0,140.0,368.5,156.0,371.0,172.0,373.0,188.0,371.5,204.0,359.5,220.0,345.5,236.0,335.5,248.0,351.5,238.0,367.5,218.0,389.5,242.0,405.5,266.0,421.5,280.0,438.0,280.0,454.0,274.0,470.5,267.5,486.5,264.0,502.5,270.0,498.5,288.0,489.0,304.0,485.0,310.0,501.0,286.0" stroke="black" stroke-width="2" fill="none" />
<polyline points="433.5,270.5,417.5,256.5,401.5,252.5,385.5,216.5" stroke="black" stroke-width="2" fill="none" />
<polyline points="374.0,210.5,362.0,226.5,346.0,242.0,352.0,248.0,368.0,251.5" stroke="black" stroke-width="2" fill="none" />
<polyline points="404.0,245.5,416.0,261.5" stroke="black" stroke-width="2" fill="none" />
<polyline points="429.5,261.5,415.5,245.5" stroke="black" stroke-width="2" fill="none" />
<polyline points="410.0,277.5,394.0,302.0,378.0,328.0,362.0,328.0,346.0,328.0" stroke="black" stroke-width="2" fill="none" />
<polyline points="347.0,343.5,363.0,347.0,378.5,353.0" stroke="black" stroke-width="2" fill="none" />
<polyline points="373.0,381.0,357.0,371.0,341.5,361.0" stroke="black" stroke-width="2" fill="none" />
<polyline points="340.0,363.5,316.0,379.5,306.0,397.5,296.0,413.5,280.0,430.0,274.0,446.0" stroke="black" stroke-width="2" fill="none" />
<polyline points="260.0,429.5,260.0,425.5,276.0,422.0,292.0,410.0,302.0,390.5,320.0,376.5,336.0,382.5,352.0,392.5,367.5,402.5,383.5,404.5,399.5,406.5,417.0,408.5,433.5,398.0" stroke="black" stroke-width="2" fill="none" />
<polyline points="457.5,392.5,441.5,414.5,426.0,426.0" stroke="black" stroke-width="2" fill="none" />
<polyline points="426.0,397.5,410.5,401.0,394.5,399.0,378.5,399.0,364.5,383.0,348.5,373.0,332.5,361.5,316.5,371.5,300.5,386.0,298.0,412.0,278.0,426.5,274.5,462.5,258.0,475.0,238.0,489.0,249.5,487.0,261.5,471.0,271.0,455.0,277.0,455.0,282.5,439.0,276.5,421.0,294.5,404.5,309.0,388.0,311.0,376.0,333.5,360.0,321.5,342.0,306.0,344.0,290.5,350.0,274.0,350.5" stroke="black" stroke-width="2" fill="none" />
<polyline points="272.5,346.5,288.5,344.5,305.0,340.5,321.0,336.5,337.0,336.5,337.0,352.5,345.0,354.5,382.5,370.5" stroke="black" stroke-width="2" fill="none" />
<polyline points="368.0,391.5,352.0,383.5,336.0,371.0" stroke="black" stroke-width="2" fill="none" />
<polyline points="335.0,370.5,341.0,384.5,346.5,401.0,350.5,417.0,350.0,433.5,347.5,449.5,343.5,465.5,340.0,481.5" stroke="black" stroke-width="2" fill="none" />
<polyline points="327.0,495.5,328.5,479.5,332.5,463.5,336.5,447.5,340.0,431.0,342.0,415.0,344.0,393.0" stroke="black" stroke-width="2" fill="none" />
<polyline points="349.5,390.5,377.0,406.5" stroke="black" stroke-width="2" fill="none" />
<polyline points="346.5,413.0,346.5,429.0,342.5,447.0,340.5,463.5,337.0,479.0,333.0,495.0" stroke="black" stroke-width="2" fill="none" />
<polyline points="293.0,507.5,297.0,503.5,285.0,499.5,287.0,483.5,293.0,468.0" stroke="black" stroke-width="2" fill="none" />
<polyline points="268.5,451.5,252.5,457.5,252.5,461.5,235.0,442.0,229.0,425.5,229.0,410.0,238.5,394.0,248.5,378.0,252.0,361.5,254.0,345.5,258.0,329.5,272.0,314.0,294.0,298.0,288.0,310.0,272.0,320.0,302.5,319.5,302.5,303.5,300.5,287.5,304.5,272.0,312.5,256.0,300.5,236.0,280.0,219.5,266.0,203.5,264.0,179.0,248.0,173.5" stroke="black" stroke-width="2" fill="none" />
<polyline points="243.5,181.0,260.0,187.0,276.0,186.5,292.0,208.0" stroke="black" stroke-width="2" fill="none" />
<polyline points="263.0,206.5,279.0,224.5,295.0,238.0,311.0,246.0" stroke="black" stroke-width="2" fill="none" />
<polyline points="322.0,239.0,320.0,228.5,304.5,230.5,296.5,218.0,289.0,202.0,267.5,203.5,252.0,188.0" stroke="black" stroke-width="2" fill="none" />
<polyline points="261.5,173.5,245.0,153.5" stroke="black" stroke-width="2" fill="none" />
<polyline points="239.5,153.5,255.5,135.5,273.5,129.0,284.0,127.0,294.5,128.5" stroke="black" stroke-width="2" fill="none" />
<polyline points="312.5,145.5,290.5,161.5,281.5,169.5,298.0,155.5,314.0,145.5" stroke="black" stroke-width="2" fill="none" />
<polyline points="320.0,147.5,298.5,163.5,288.5,171.5,304.5,158.0" stroke="black" stroke-width="2" fill="none" />
<polyline points="321.0,163.5,305.0,171.0,299.0,174.5,324.5,158.5" stroke="black" stroke-width="2" fill="none" />
<polyline points="327.5,163.5,303.5,179.5,312.0,175.5,328.0,169.5" stroke="black" stroke-width="2" fill="none" />
<polyline points="326.5,170.5,311.0,186.5,313.0,186.5" stroke="black" stroke-width="2" fill="none" />
<polyline points="317.5,108.5,333.5,110.5,349.5,103.0,365.5,95.0,373.5,89.0,341.5,105.0,331.5,119.0,335.5,128.5,352.0,122.5,368.0,114.0,382.0,104.0,356.0,120.0" stroke="black" stroke-width="2" fill="none" />
<polyline points="345.5,118.0,369.5,102.0,379.5,96.0,363.5,106.0,363.0,110.0,347.0,118.0,325.0,120.0,315.5,116.0,322.0,101.5,354.0,83.5,338.5,77.0,322.5,81.0,307.0,85.0,291.0,91.0,274.5,97.5,258.5,103.5" stroke="black" stroke-width="2" fill="none" />
<polyline points="258.0,105.5,274.5,105.5,291.0,99.5,307.5,91.5,323.0,86.0,339.5,82.0,341.5,70.0" stroke="black" stroke-width="2" fill="none" />
<polyline points="336.0,69.0,320.0,71.0,304.0,75.5" stroke="black" stroke-width="2" fill="none" />
<polyline points="291.0,57.5,307.0,49.5,323.0,46.0,339.0,46.0" stroke="black" stroke-width="2" fill="none" />
<polyline points="328.0,56.0,312.0,60.5,296.0,66.5,292.0,72.0,280.0,75.5,263.5,91.5" stroke="black" stroke-width="2" fill="none" />
<polyline points="240.5,116.5,256.0,84.0,272.0,90.0,282.0,86.0,298.0,81.5,314.0,75.5,323.5,59.0,339.5,55.0" stroke="black" stroke-width="2" fill="none" />
<polyline points="320.0,56.5,285.5,72.0,267.5,85.5,257.5,89.5,254.0,106.0,248.0,118.0,248.0,134.0" stroke="black" stroke-width="2" fill="none" />
<polyline points="228.0,146.0,227.5,142.0,227.5,150.0,225.0,166.0" stroke="black" stroke-width="2" fill="none" />
<polyline points="190.0,155.0,174.0,164.5,180.5,161.0,178.5,145.5,162.5,153.0" stroke="black" stroke-width="2" fill="none" />
<polyline points="161.5,137.5,163.5,143.5,150.0,159.5,160.0,166.0,157.5,154.0,173.5,142.0,188.0,152.0" stroke="black" stroke-width="2" fill="none" />
<polyline points="192.5,138.0,176.5,136.0,160.0,140.5,144.0,155.0" stroke="black" stroke-width="2" fill="none" />
<polyline points="140.0,120.0,156.0,114.0,172.5,114.0,188.5,112.0,204.5,112.0,220.5,112.5,240.5,124.0" stroke="black" stroke-width="2" fill="none" />
<polyline points="254.5,77.5,238.0,106.0,210.0,118.5,194.0,118.5,178.0,118.5,162.0,118.5,146.0,118.0" stroke="black" stroke-width="2" fill="none" />
<polyline points="145.0,118.0,143.0,133.5,141.5,149.5,142.0,167.5,152.5,179.5,168.5,180.0,185.0,180.0,201.0,180.0,216.5,178.0" stroke="black" stroke-width="2" fill="none" />
<polyline points="209.0,221.5,221.0,227.5,216.5,244.0,192.5,252.0,192.5,268.0,208.5,256.0" stroke="black" stroke-width="2" fill="none" />
<polyline points="215.5,230.5,199.5,226.0,183.5,228.0" stroke="black" stroke-width="2" fill="none" />
<polyline points="179.0,228.5,173.0,244.0,181.0,254.0,205.0,251.5,212.5,241.5" stroke="black" stroke-width="2" fill="none" />
<polyline points="217.5,239.5,201.0,229.5,184.5,233.5,168.5,233.5" stroke="black" stroke-width="2" fill="none" />
<polyline points="164.0,235.0,180.0,223.0,195.5,220.5,211.5,220.5,222.0,241.0" stroke="black" stroke-width="2" fill="none" />
<polyline points="246.0,241.5,246.0,225.5,246.0,209.5,238.0,205.5,221.5,205.5,205.5,205.5,190.0,206.0,174.5,206.0,158.5,205.5" stroke="black" stroke-width="2" fill="none" />
<polyline points="159.0,206.5,157.0,222.5,157.0,238.5,155.0,256.0,155.0,272.0,157.0,291.5,173.0,292.0,189.0,292.0,205.0,292.5,221.5,292.5,237.5,292.5" stroke="black" stroke-width="2" fill="none" />
<polyline points="264.5,334.0,281.0,328.0,297.0,316.0,267.0,332.0,281.0,362.5,291.0,370.5,307.0,368.5" stroke="black" stroke-width="2" fill="none" />
<polyline points="306.0,372.5,289.5,376.5" stroke="black" stroke-width="2" fill="none" />
<polyline points="281.0,361.5,297.0,363.5,312.5,359.5,328.0,357.0,344.0,357.0,360.0,363.5,375.5,369.0" stroke="black" stroke-width="2" fill="none" />
<polyline points="382.0,367.5,366.0,359.5,350.5,355.0,333.0,353.0,313.0,355.5,297.0,360.0,281.0,358.0" stroke="black" stroke-width="2" fill="none" />
<polyline points="269.0,337.5,285.0,331.5,301.0,325.5,317.0,319.5,333.0,318.0,349.0,322.5,365.0,319.0" stroke="black" stroke-width="2" fill="none" />
<polyline points="341.5,366.0,369.5,382.0" stroke="black" stroke-width="2" fill="none" />
<polyline points="373.0,400.0,361.0,383.5,337.0,367.5" stroke="black" stroke-width="2" fill="none" />
<polyline points="330.0,372.5,338.0,388.5,336.5,404.5,336.5,421.0,334.5,437.0,330.5,453.0,324.5,469.0,322.5,485.5,322.5,501.5" stroke="black" stroke-width="2" fill="none" />
<polyline points="259.5,440.5,261.5,438.0,245.5,448.0,229.5,430.5" stroke="black" stroke-width="2" fill="none" />
<polyline points="224.5,429.0,240.5,454.5,256.5,450.5,272.0,434.0,271.5,434.0,255.0,450.0" stroke="black" stroke-width="2" fill="none" />
<polyline points="240.5,476.0,224.5,456.0,208.5,428.0" stroke="black" stroke-width="2" fill="none" />
<polyline points="208.0,431.0,216.0,447.0,226.5,463.0,240.5,478.5" stroke="black" stroke-width="2" fill="none" />
<polyline points="238.5,482.5,222.5,464.5,206.5,436.5" stroke="black" stroke-width="2" fill="none" />
<polyline points="206.0,435.5,202.0,451.5,210.0,467.0,226.0,483.0" stroke="black" stroke-width="2" fill="none" />
<polyline points="221.0,479.5,204.5,455.5" stroke="black" stroke-width="2" fill="none" />
<polyline points="204.5,451.0,212.5,466.5,229.0,482.5" stroke="black" stroke-width="2" fill="none" />
<polyline points="218.5,470.0,202.5,450.0" stroke="black" stroke-width="2" fill="none" />
<polyline points="198.0,442.0,214.0,410.0,222.5,410.0,222.5,426.0,229.0,441.5,242.5,457.5" stroke="black" stroke-width="2" fill="none" />
<polyline points="216.5,481.0,200.0,460.5" stroke="black" stroke-width="2" fill="none" />
<polyline points="202.0,470.5,220.0,486.0" stroke="black" stroke-width="2" fill="none" />
<polyline points="199.5,483.0,215.0,507.5" stroke="black" stroke-width="2" fill="none" />
<polyline points="202.0,503.0,194.0,487.5,192.5,471.5,192.5,456.0,194.5,440.5,200.0,424.5,210.0,408.5,225.5,392.5,227.0,376.5,214.5,361.0,222.5,345.0,230.5,329.0,241.0,312.5,251.0,296.5,264.5,280.0,294.5,269.5,279.0,267.5,263.5,281.0,247.5,300.5,232.0,327.0,216.0,357.0" stroke="black" stroke-width="2" fill="none" />
<polyline points="218.0,363.0,233.5,335.5,249.5,307.5,265.5,287.5,282.0,274.0,296.0,272.0,294.0,288.0,275.5,304.5,257.5,321.0,251.5,337.0,248.0,353.5,244.0,369.0" stroke="black" stroke-width="2" fill="none" />
<polyline points="245.0,386.5,229.5,404.5" stroke="black" stroke-width="2" fill="none" />
<polyline points="239.0,382.0,223.0,364.0" stroke="black" stroke-width="2" fill="none" />
<polyline points="194.0,437.5,210.0,407.5,220.0,404.0,208.5,420.0,200.5,436.0,198.5,452.0,202.5,468.0,198.5,484.0,206.5,500.0" stroke="black" stroke-width="2" fill="none" />
<polyline points="211.0,510.0,195.0,488.0" stroke="black" stroke-width="2" fill="none" />
<polyline points="200.0,474.5,218.0,490.5" stroke="black" stroke-width="2" fill="none" />
<polyline points="197.0,471.5,213.5,485.5,229.0,493.5,245.0,489.5,260.5,478.0,274.0,476.0,266.0,479.5,252.5,495.0,240.5,511.5,257.0,489.5,273.0,483.5,297.0,469.5,293.0,485.5,289.0,501.5,269.0,506.0,267.0,496.5,267.0,499.0,248.5,509.0,264.5,491.0,252.5,504.5" stroke="black" stroke-width="2" fill="none" />
<polyline points="229.5,475.5,217.5,459.5,209.5,444.0" stroke="black" stroke-width="2" fill="none" />
<polyline points="136.5,371.5,120.5,375.5" stroke="black" stroke-width="2" fill="none" />
<polyline points="116.5,371.5,132.5,363.5,147.0,361.5,147.0,377.5,128.5,377.0,130.0,391.5,138.0,381.5" stroke="black" stroke-width="2" fill="none" />
<polyline points="136.5,388.0,120.5,384.0,116.5,380.5,126.5,364.5" stroke="black" stroke-width="2" fill="none" />
<polyline points="81.5,343.0,65.5,329.0" stroke="black" stroke-width="2" fill="none" />
<polyline points="63.5,325.5,79.5,333.5" stroke="black" stroke-width="2" fill="none" />
<polyline points="73.5,321.5,58.0,323.5" stroke="black" stroke-width="2" fill="none" />
<polyline points="64.5,325.0,80.0,341.5" stroke="black" stroke-width="2" fill="none" />
<polyline points="73.5,355.0,57.5,342.5,41.5,346.5" stroke="black" stroke-width="2" fill="none" />
<polyline points="34.0,348.0,50.0,334.0,66.0,336.0,66.5,342.0" stroke="black" stroke-width="2" fill="none" />
<polyline points="53.5,350.0,47.5,366.0,47.0,382.5,49.0,398.5,51.5,414.5,55.5,430.5,63.5,446.5,77.5,462.0,101.5,478.0,117.5,494.0" stroke="black" stroke-width="2" fill="none" />
<polyline points="117.5,492.0,101.5,476.0,86.0,466.0,70.5,452.0,54.5,419.5" stroke="black" stroke-width="2" fill="none" />
<polyline points="49.5,423.5,65.5,455.5,81.5,469.5,97.5,479.5,114.0,495.5" stroke="black" stroke-width="2" fill="none" />
<polyline points="39.0,392.0,36.5,376.0,38.5,359.5,42.0,344.0,44.0,358.0" stroke="black" stroke-width="2" fill="none" />
<polyline points="49.5,348.0,43.0,364.0,41.0,379.5,43.0,395.5,45.0,411.5,48.5,427.5,54.5,443.5,66.5,459.5,88.5,475.5,109.0,491.5" stroke="black" stroke-width="2" fill="none" />
<polyline points="33.0,397.5,31.0,381.5,31.0,365.5,33.5,350.0,46.0,334.0" stroke="black" stroke-width="2" fill="none" />
<polyline points="65.5,338.5,53.5,336.0,65.5,320.0" stroke="black" stroke-width="2" fill="none" />
<polyline points="68.0,322.5,82.0,338.0,87.5,338.5" stroke="black" stroke-width="2" fill="none" />
<polyline points="66.0,244.0,50.0,231.5" stroke="black" stroke-width="2" fill="none" />
<polyline points="47.0,235.5,59.0,251.5" stroke="black" stroke-width="2" fill="none" />
<polyline points="49.5,238.5,33.5,249.0" stroke="black" stroke-width="2" fill="none" />
<polyline points="28.0,250.0,44.0,228.0,50.0,228.0,64.0,244.0,62.0,260.0" stroke="black" stroke-width="2" fill="none" />
<polyline points="61.5,255.5,45.0,260.0,29.0,254.0" stroke="black" stroke-width="2" fill="none" />
<polyline points="43.0,234.0,35.0,249.5,37.0,259.0,53.0,267.0" stroke="black" stroke-width="2" fill="none" />
<polyline points="35.5,260.0,32.0,244.0,40.0,228.0" stroke="black" stroke-width="2" fill="none" />
<polyline points="0.0,191.0,16.5,190.5,33.0,191.0,49.0,191.0,65.5,191.0,86.0,217.5,102.5,229.0" stroke="black" stroke-width="2" fill="none" />
<polyline points="106.5,223.5,90.5,207.5" stroke="black" stroke-width="2" fill="none" />
<polyline points="153.0,202.5,168.5,200.5,184.5,200.0,201.0,199.5,217.5,199.5,234.0,199.5,246.0,203.5,242.0,219.5,242.0,235.5" stroke="black" stroke-width="2" fill="none" />
<polyline points="211.0,237.5,189.0,248.0,179.0,232.0" stroke="black" stroke-width="2" fill="none" />
<polyline points="193.5,230.0,185.5,234.0,165.5,236.0,175.0,252.0,172.5,265.5" stroke="black" stroke-width="2" fill="none" />
<polyline points="232.5,286.0,216.5,286.0,200.0,286.0,184.0,286.0,168.0,288.0,152.5,290.0,148.5,280.5,150.5,264.5,150.5,248.5,152.5,232.5,153.0,216.5,161.0,200.5" stroke="black" stroke-width="2" fill="none" />
<polyline points="211.5,174.0,195.5,174.0,179.5,174.0,163.5,174.0,148.0,174.0,137.5,178.0,137.5,162.5,137.5,146.5,139.5,130.5,143.5,114.5" stroke="black" stroke-width="2" fill="none" />
<polyline points="182.0,55.5,148.0,71.5,132.0,88.0,124.0,104.0,120.0,119.5,126.5,97.5,142.0,75.5,158.0,65.5,174.0,59.5,190.5,55.5,207.0,53.5,222.5,52.0" stroke="black" stroke-width="2" fill="none" />
<polyline points="171.5,45.0,147.5,61.0,131.5,77.0,119.5,93.5,110.0,110.0,102.0,126.5,96.0,142.5,90.0,158.5,84.0,174.5,82.5,190.5,83.0,206.5,97.0,224.5" stroke="black" stroke-width="2" fill="none" />
<polyline points="62.0,149.5,66.0,133.0,63.5,117.5,51.5,110.0,35.5,96.0,19.5,84.0,3.5,86.0" stroke="black" stroke-width="2" fill="none" />
<polyline points="9.0,87.0,25.0,95.5,25.0,113.5,25.5,107.5,30.0,120.0,22.5,136.0,36.5,129.5,52.5,125.5" stroke="black" stroke-width="2" fill="none" />
<polyline points="37.5,127.0,35.5,109.5,20.0,121.5" stroke="black" stroke-width="2" fill="none" />
<polyline points="15.5,88.5,35.5,104.5,9.0,112.5,7.0,128.5,2.5,144.0,18.5,158.0,40.5,155.5,57.0,143.5" stroke="black" stroke-width="2" fill="none" />
<polyline points="65.5,186.0,49.5,186.5,33.5,186.5,17.5,186.5,1.5,186.5" stroke="black" stroke-width="2" fill="none" />
<polyline points="2.5,159.5,18.5,161.5,34.5,162.0,50.5,160.0,60.5,132.0,56.5,148.0" stroke="black" stroke-width="2" fill="none" />
<polyline points="76.5,86.5,77.0,102.5,77.0,118.5,77.0,134.0,75.0,150.0,75.0,165.5,75.0,181.5,83.0,199.0,87.5,227.0" stroke="black" stroke-width="2" fill="none" />
<polyline points="44.0,113.5,27.5,121.0,17.0,143.0,11.0,133.5,11.0,133.5,13.0,118.0,11.0,102.5,11.0,86.5" stroke="black" stroke-width="2" fill="none" />
<polyline points="9.0,83.0,6.5,99.0,5.0,115.0,10.5,141.0,6.5,156.5,32.0,156.5,38.5,142.5,55.0,134.0" stroke="black" stroke-width="2" fill="none" />
<polyline points="49.0,134.0,41.0,148.0,37.0,154.0,34.5,137.5,42.5,132.0,52.0,128.5,54.0,112.5,37.5,100.0,18.0,84.0" stroke="black" stroke-width="2" fill="none" />
<polyline points="75.0,82.5,75.0,98.5,75.0,114.0,75.0,130.0,72.5,146.0,72.5,161.5,70.5,177.5,74.5,200.0,80.5,216.0,91.0,232.0,85.0,248.0,65.0,264.0,79.0,259.5,94.5,245.5,110.5,232.0,130.0,250.0,146.5,256.0,166.5,258.0,172.5,266.0,174.5,272.5,190.5,272.5,206.5,272.0,222.5,271.5,238.5,271.5" stroke="black" stroke-width="2" fill="none" />
<polyline points="293.5,297.5,277.5,309.0,261.5,322.5,297.5,324.0" stroke="black" stroke-width="2" fill="none" />
<polyline points="326.0,376.0,328.0,392.5,322.0,400.0,319.5,416.0" stroke="black" stroke-width="2" fill="none" />
<polyline points="316.5,411.5,318.5,396.0,322.5,380.0" stroke="black" stroke-width="2" fill="none" />
<polyline points="453.5,369.0,453.5,385.0,445.5,402.0,427.5,418.5,423.5,436.5,439.5,467.0,456.0,484.5,472.0,496.5,488.0,498.0,503.5,488.0" stroke="black" stroke-width="2" fill="none" />
<polyline points="487.5,444.5,491.0,428.5,491.0,412.5,495.0,408.5" stroke="black" stroke-width="2" fill="none" />
<polyline points="491.0,399.0,501.0,415.0,511.0,415.0,510.5,442.5" stroke="black" stroke-width="2" fill="none" />
<polyline points="494.5,461.5,484.5,473.5,496.5,457.5,508.5,433.5,506.0,417.5,499.5,402.0,489.5,388.0,467.5,372.0" stroke="black" stroke-width="2" fill="none" />
<polyline points="454.0,363.0,460.0,379.0,456.0,395.5,445.5,411.5,425.5,428.0,431.0,444.0,441.0,460.0,453.5,476.5,473.5,492.5" stroke="black" stroke-width="2" fill="none" />
<polyline points="499.5,162.5,483.5,162.5,467.5,162.5,451.5,162.0,435.5,162.5,420.0,162.0,406.0,120.0,387.5,131.5,381.5,117.5,366.0,127.5,349.5,135.5,333.5,137.0,363.0,123.5,383.0,107.5,389.5,91.5,401.5,75.5,391.5,54.0,383.0,38.5,377.5,30.5" stroke="black" stroke-width="2" fill="none" />
<polyline points="373.0,46.0,391.5,62.0,395.0,77.5,399.5,97.5,399.5,113.5,406.0,113.5,398.0,123.5,406.5,140.0,404.5,156.0,411.0,172.5,417.0,188.5,423.0,204.5" stroke="black" stroke-width="2" fill="none" />
<polyline points="406.5,145.0,414.5,161.5,420.0,177.5,424.0,193.5,430.0,210.0,438.0,226.0,449.5,242.0,471.5,257.5" stroke="black" stroke-width="2" fill="none" />
<polyline points="437.0,280.0,449.5,262.0,439.5,248.0,421.5,232.0,409.0,216.5,401.0,200.5,395.5,185.0,383.5,179.0,377.5,161.0,381.5,145.0,378.0,129.0,388.0,113.0" stroke="black" stroke-width="2" fill="none" />
<polyline points="406.0,102.0,408.0,118.0,408.0,134.0,414.0,150.5,420.0,166.5,426.0,182.5,431.5,198.5,437.0,214.5,447.0,230.5,461.5,246.0,495.5,262.0,497.5,280.0,485.5,296.5,475.5,312.5,486.0,297.0,502.0,281.0" stroke="black" stroke-width="2" fill="none" />
<polyline points="316.5,130.0,310.5,124.5,319.0,108.5" stroke="black" stroke-width="2" fill="none" />
<polyline points="316.0,51.5,292.0,55.5,275.5,71.5,253.5,87.5,247.5,103.5,244.0,120.0,244.0,135.5,240.0,153.5,244.0,170.0,246.0,186.0,256.0,202.5,270.0,218.5,288.0,234.0,314.0,250.0,298.0,265.5,272.5,281.0,258.5,297.5,246.5,314.0,238.5,330.5,229.0,346.5,223.0,363.0,237.0,379.0,227.0,389.0" stroke="black" stroke-width="2" fill="none" />
<polyline points="391.0,90.0,375.0,77.5,350.5,87.5,334.5,97.5,318.0,103.5,302.0,109.5,316.0,97.5,352.0,81.5,376.0,75.5,384.0,69.5,368.0,53.0" stroke="black" stroke-width="2" fill="none" />
<polyline points="309.0,41.5,279.0,57.5,259.5,73.5,245.5,89.5,238.0,105.0,234.0,121.5,236.0,137.5,220.0,154.0,218.0,170.0" stroke="black" stroke-width="2" fill="none" />
</svg>