<?xml version="1.0" encoding="UTF-8"?>
<svg xmlns="http://www.w3.org/2000/svg" xmlns:xlink="http://www.w3.org/1999/xlink" width="1935.11811" height="1935.11811" viewBox="0 0 1935.11811 1935.11811" version="1.1">
<g id="surface1">
<path style="fill:none;stroke-width:2;stroke-linecap:butt;stroke-linejoin:miter;stroke:rgb(0%,0%,0%);stroke-opacity:1;stroke-miterlimit:4;" d="M 385.499984 2.500106 L 385.499984 18.500163 L 391.499618 32.500342 L 373.499683 48.500399 L 353.49987 64.99965 L 335.499935 80.999707 L 321.499756 96.999764 L 309.500488 110.999943 L 295.000081 127 L 282.99978 142.499829 L 270.500285 158.499886 L 275.000269 174.499943 " transform="matrix(3.779528,0,0,3.779528,0,0)"/>
<path style="fill:none;stroke-width:2;stroke-linecap:butt;stroke-linejoin:miter;stroke:rgb(0%,0%,0%);stroke-opacity:1;stroke-miterlimit:4;" d="M 268.999601 169.499731 L 284.500464 175.999593 L 300.999715 180.000382 L 316.999772 184.000138 L 332.999829 186.000016 L 348.999886 189.999772 L 364.999943 192.499878 L 380.499772 194.499756 L 396.499829 196.499634 L 412.499886 196.999862 L 428.499943 196.999862 L 444.5 198.99974 L 450.499634 205.000407 L 460.500057 221.499658 L 456.999495 236.999487 L 434.999805 246.99991 " transform="matrix(3.779528,0,0,3.779528,0,0)"/>
<path style="fill:none;stroke-width:2;stroke-linecap:butt;stroke-linejoin:miter;stroke:rgb(0%,0%,0%);stroke-opacity:1;stroke-miterlimit:4;" d="M 454.999618 245.50026 L 454.999618 241.500505 L 436.999683 249.500016 L 420.999626 237.999943 L 405.499797 236.000065 " transform="matrix(3.779528,0,0,3.779528,0,0)"/>
<path style="fill:none;stroke-width:2;stroke-linecap:butt;stroke-linejoin:miter;stroke:rgb(0%,0%,0%);stroke-opacity:1;stroke-miterlimit:4;" d="M 409.499552 234.500415 L 413.500342 250.500472 L 413.000114 260.499862 " transform="matrix(3.779528,0,0,3.779528,0,0)"/>
<path style="fill:none;stroke-width:2;stroke-linecap:butt;stroke-linejoin:miter;stroke:rgb(0%,0%,0%);stroke-opacity:1;stroke-miterlimit:4;" d="M 409.99978 268.000179 L 393.999723 242.499927 " transform="matrix(3.779528,0,0,3.779528,0,0)"/>
<path style="fill:none;stroke-width:2;stroke-linecap:butt;stroke-linejoin:miter;stroke:rgb(0%,0%,0%);stroke-opacity:1;stroke-miterlimit:4;" d="M 393.499495 237.999943 L 409.499552 243.999577 " transform="matrix(3.779528,0,0,3.779528,0,0)"/>
<path style="fill:none;stroke-width:2;stroke-linecap:butt;stroke-linejoin:miter;stroke:rgb(0%,0%,0%);stroke-opacity:1;stroke-miterlimit:4;" d="M 402.500496 243.500382 L 409.99978 259.500439 L 423.999959 287.499764 L 423.999959 302.999593 L 438.000138 318.99965 " transform="matrix(3.779528,0,0,3.779528,0,0)"/>
<path style="fill:none;stroke-width:2;stroke-linecap:butt;stroke-linejoin:miter;stroke:rgb(0%,0%,0%);stroke-opacity:1;stroke-miterlimit:4;" d="M 437.49991 316.00035 L 421.499854 293.999626 " transform="matrix(3.779528,0,0,3.779528,0,0)"/>
<path style="fill:none;stroke-width:2;stroke-linecap:butt;stroke-linejoin:miter;stroke:rgb(0%,0%,0%);stroke-opacity:1;stroke-miterlimit:4;" d="M 420.000203 286.999536 L 436.00026 289.000448 L 452.000317 303.499821 " transform="matrix(3.779528,0,0,3.779528,0,0)"/>
<path style="fill:none;stroke-width:2;stroke-linecap:butt;stroke-linejoin:miter;stroke:rgb(0%,0%,0%);stroke-opacity:1;stroke-miterlimit:4;" d="M 445.99965 288.50022 L 445.99965 286.000114 " transform="matrix(3.779528,0,0,3.779528,0,0)"/>
<path style="fill:none;stroke-width:2;stroke-linecap:butt;stroke-linejoin:miter;stroke:rgb(0%,0%,0%);stroke-opacity:1;stroke-miterlimit:4;" d="M 432.499699 288.50022 L 450.499634 304.500277 L 454.500423 320.500334 " transform="matrix(3.779528,0,0,3.779528,0,0)"/>
<path style="fill:none;stroke-width:2;stroke-linecap:butt;stroke-linejoin:miter;stroke:rgb(0%,0%,0%);stroke-opacity:1;stroke-miterlimit:4;" d="M 461.000285 274.500041 L 477.000342 282.499552 L 493.000399 288.50022 L 509.49965 296.499731 " transform="matrix(3.779528,0,0,3.779528,0,0)"/>
<path style="fill:none;stroke-width:2;stroke-linecap:butt;stroke-linejoin:miter;stroke:rgb(0%,0%,0%);stroke-opacity:1;stroke-miterlimit:4;" d="M 508.500228 200.500423 L 493.000399 202.999495 L 461.000285 202.999495 " transform="matrix(3.779528,0,0,3.779528,0,0)"/>
<path style="fill:none;stroke-width:2;stroke-linecap:butt;stroke-linejoin:miter;stroke:rgb(0%,0%,0%);stroke-opacity:1;stroke-miterlimit:4;" d="M 453.499967 206.500057 L 463.000163 228.499748 L 463.000163 244.499805 L 458.500179 259.999634 L 466.000496 275.999691 L 495.999699 291.49952 " transform="matrix(3.779528,0,0,3.779528,0,0)"/>
<path style="fill:none;stroke-width:2;stroke-linecap:butt;stroke-linejoin:miter;stroke:rgb(0%,0%,0%);stroke-opacity:1;stroke-miterlimit:4;" d="M 497.999577 193.000106 L 482.499748 195.500212 L 466.499691 198.000317 L 450.499634 203.999951 " transform="matrix(3.779528,0,0,3.779528,0,0)"/>
<path style="fill:none;stroke-width:2;stroke-linecap:butt;stroke-linejoin:miter;stroke:rgb(0%,0%,0%);stroke-opacity:1;stroke-miterlimit:4;" d="M 426.500065 204.500179 L 427.000293 220.500236 " transform="matrix(3.779528,0,0,3.779528,0,0)"/>
<path style="fill:none;stroke-width:2;stroke-linecap:butt;stroke-linejoin:miter;stroke:rgb(0%,0%,0%);stroke-opacity:1;stroke-miterlimit:4;" d="M 417.500098 223.999764 L 402.000269 223.999764 " transform="matrix(3.779528,0,0,3.779528,0,0)"/>
<path style="fill:none;stroke-width:2;stroke-linecap:butt;stroke-linejoin:miter;stroke:rgb(0%,0%,0%);stroke-opacity:1;stroke-miterlimit:4;" d="M 411.999658 236.000065 L 422.000081 252.000122 " transform="matrix(3.779528,0,0,3.779528,0,0)"/>
<path style="fill:none;stroke-width:2;stroke-linecap:butt;stroke-linejoin:miter;stroke:rgb(0%,0%,0%);stroke-opacity:1;stroke-miterlimit:4;" d="M 397.000057 256.500106 L 396.499829 272.500163 L 384.499528 287.999992 " transform="matrix(3.779528,0,0,3.779528,0,0)"/>
<path style="fill:none;stroke-width:2;stroke-linecap:butt;stroke-linejoin:miter;stroke:rgb(0%,0%,0%);stroke-opacity:1;stroke-miterlimit:4;" d="M 382.49965 296.499731 L 390.500195 288.50022 L 388.500317 270.500285 L 392.500073 254.500228 " transform="matrix(3.779528,0,0,3.779528,0,0)"/>
<path style="fill:none;stroke-width:2;stroke-linecap:butt;stroke-linejoin:miter;stroke:rgb(0%,0%,0%);stroke-opacity:1;stroke-miterlimit:4;" d="M 388.999512 202.500301 L 388.999512 218.500358 L 386.999634 234.000187 L 386.999634 249.500016 L 382.999878 265.500073 L 377.000244 280.999902 L 369.499927 289.000448 L 368.000277 279.500252 L 377.999666 289.499642 L 395.999601 255.49965 L 411.999658 281.50013 L 427.999715 313.500244 L 443.999772 330.999951 L 459.999829 341.000374 L 475.999886 347.000008 L 491.999943 354.99952 L 508 363.000065 " transform="matrix(3.779528,0,0,3.779528,0,0)"/>
<path style="fill:none;stroke-width:2;stroke-linecap:butt;stroke-linejoin:miter;stroke:rgb(0%,0%,0%);stroke-opacity:1;stroke-miterlimit:4;" d="M 499.50026 472.500358 L 483.500203 472.500358 L 467.500146 477.999764 L 451.50009 479.00022 L 435.500033 482.999976 " transform="matrix(3.779528,0,0,3.779528,0,0)"/>
<path style="fill:none;stroke-width:2;stroke-linecap:butt;stroke-linejoin:miter;stroke:rgb(0%,0%,0%);stroke-opacity:1;stroke-miterlimit:4;" d="M 438.999561 481.99952 L 436.999683 497.500382 " transform="matrix(3.779528,0,0,3.779528,0,0)"/>
<path style="fill:none;stroke-width:2;stroke-linecap:butt;stroke-linejoin:miter;stroke:rgb(0%,0%,0%);stroke-opacity:1;stroke-miterlimit:4;" d="M 421.499854 507.499772 L 415.50022 491.499715 " transform="matrix(3.779528,0,0,3.779528,0,0)"/>
<path style="fill:none;stroke-width:2;stroke-linecap:butt;stroke-linejoin:miter;stroke:rgb(0%,0%,0%);stroke-opacity:1;stroke-miterlimit:4;" d="M 409.499552 466.499691 L 393.499495 472.00013 " transform="matrix(3.779528,0,0,3.779528,0,0)"/>
<path style="fill:none;stroke-width:2;stroke-linecap:butt;stroke-linejoin:miter;stroke:rgb(0%,0%,0%);stroke-opacity:1;stroke-miterlimit:4;" d="M 391.499618 466.999919 L 407.499674 463.000163 " transform="matrix(3.779528,0,0,3.779528,0,0)"/>
<path style="fill:none;stroke-width:2;stroke-linecap:butt;stroke-linejoin:miter;stroke:rgb(0%,0%,0%);stroke-opacity:1;stroke-miterlimit:4;" d="M 409.99978 409.499552 L 394.499951 407.00048 " transform="matrix(3.779528,0,0,3.779528,0,0)"/>
<path style="fill:none;stroke-width:2;stroke-linecap:butt;stroke-linejoin:miter;stroke:rgb(0%,0%,0%);stroke-opacity:1;stroke-miterlimit:4;" d="M 391.499618 403.499919 L 407.499674 403.499919 L 423.499731 411.500464 " transform="matrix(3.779528,0,0,3.779528,0,0)"/>
<path style="fill:none;stroke-width:2;stroke-linecap:butt;stroke-linejoin:miter;stroke:rgb(0%,0%,0%);stroke-opacity:1;stroke-miterlimit:4;" d="M 432.000505 414.999992 L 406.000024 420.999626 L 389.999967 425.000415 L 373.99991 414.999992 L 368.000277 405.499797 L 352.00022 407.499674 " transform="matrix(3.779528,0,0,3.779528,0,0)"/>
<path style="fill:none;stroke-width:2;stroke-linecap:butt;stroke-linejoin:miter;stroke:rgb(0%,0%,0%);stroke-opacity:1;stroke-miterlimit:4;" d="M 341.000374 409.499552 L 343.000252 415.50022 L 359.000309 417.500098 L 374.500138 423.499731 L 389.999967 429.000171 L 406.000024 425.000415 L 402.000269 441.000472 L 386.000212 447.500334 L 402.000269 441.999894 " transform="matrix(3.779528,0,0,3.779528,0,0)"/>
<path style="fill:none;stroke-width:2;stroke-linecap:butt;stroke-linejoin:miter;stroke:rgb(0%,0%,0%);stroke-opacity:1;stroke-miterlimit:4;" d="M 382.999878 431.000049 L 366.999821 431.000049 L 361.000187 429.000171 L 345.00013 431.500277 L 329.000073 427.999715 " transform="matrix(3.779528,0,0,3.779528,0,0)"/>
<path style="fill:none;stroke-width:2;stroke-linecap:butt;stroke-linejoin:miter;stroke:rgb(0%,0%,0%);stroke-opacity:1;stroke-miterlimit:4;" d="M 325.000317 422.000081 L 341.000374 425.999837 L 357.000431 425.499609 L 376.500016 417.500098 L 392.500073 434.000382 L 388.00009 450.000439 L 384.499528 457.999951 L 392.500073 481.99952 L 390.500195 500.000488 " transform="matrix(3.779528,0,0,3.779528,0,0)"/>
<path style="fill:none;stroke-width:2;stroke-linecap:butt;stroke-linejoin:miter;stroke:rgb(0%,0%,0%);stroke-opacity:1;stroke-miterlimit:4;" d="M 370.999577 475.999886 L 355.499748 475.999886 L 339.499691 474.000008 L 323.499634 470.000252 " transform="matrix(3.779528,0,0,3.779528,0,0)"/>
<path style="fill:none;stroke-width:2;stroke-linecap:butt;stroke-linejoin:miter;stroke:rgb(0%,0%,0%);stroke-opacity:1;stroke-miterlimit:4;" d="M 321.499756 466.499691 L 329.500301 482.499748 L 341.499569 480.49987 L 343.50048 496.499927 L 359.499504 493.999821 L 375.999788 493.999821 L 393.499495 491.999943 L 409.499552 490.000065 " transform="matrix(3.779528,0,0,3.779528,0,0)"/>
<path style="fill:none;stroke-width:2;stroke-linecap:butt;stroke-linejoin:miter;stroke:rgb(0%,0%,0%);stroke-opacity:1;stroke-miterlimit:4;" d="M 506.000122 465.000041 L 489.499837 465.500269 L 472.999552 465.500269 L 457.499723 461.500513 L 441.499666 459.499601 L 433.500155 451.50009 L 433.500155 435.500033 L 437.49991 420.000203 L 427.499487 406.000024 L 411.500464 399.500163 L 395.500407 397.500285 L 379.999544 399.500163 L 363.999487 401.500041 L 348.499658 403.499919 L 332.999829 413.500342 L 316.999772 418.000326 L 313.000016 429.999593 L 309.00026 434.499577 " transform="matrix(3.779528,0,0,3.779528,0,0)"/>
<path style="fill:none;stroke-width:2;stroke-linecap:butt;stroke-linejoin:miter;stroke:rgb(0%,0%,0%);stroke-opacity:1;stroke-miterlimit:4;" d="M 295.999504 454.000195 L 280.00048 450.000439 " transform="matrix(3.779528,0,0,3.779528,0,0)"/>
<path style="fill:none;stroke-width:2;stroke-linecap:butt;stroke-linejoin:miter;stroke:rgb(0%,0%,0%);stroke-opacity:1;stroke-miterlimit:4;" d="M 268.999601 441.499666 L 273.000391 447.500334 L 276.499919 447.999528 L 262.49974 472.00013 L 268.500407 466.000496 L 284.500464 474.000008 L 300.000293 470.000252 L 314.000472 454.500423 L 329.999495 456.500301 L 334.000285 468.999797 L 350.000342 470.999674 L 366.000399 470.999674 " transform="matrix(3.779528,0,0,3.779528,0,0)"/>
<path style="fill:none;stroke-width:2;stroke-linecap:butt;stroke-linejoin:miter;stroke:rgb(0%,0%,0%);stroke-opacity:1;stroke-miterlimit:4;" d="M 298.999837 464.499813 L 309.00026 456.500301 L 323.000439 456.500301 L 314.999894 445.99965 L 298.999837 441.499666 L 282.99978 435.500033 L 266.999723 434.000382 " transform="matrix(3.779528,0,0,3.779528,0,0)"/>
<path style="fill:none;stroke-width:2;stroke-linecap:butt;stroke-linejoin:miter;stroke:rgb(0%,0%,0%);stroke-opacity:1;stroke-miterlimit:4;" d="M 261.00009 434.499577 L 277.000146 440.500244 L 293.000203 446.499878 L 309.00026 450.000439 L 325.000317 457.999951 L 343.000252 447.500334 L 348.999886 459.999829 L 352.999642 452.000317 L 363.000065 464.499813 L 369.499927 454.500423 L 395.500407 454.500423 " transform="matrix(3.779528,0,0,3.779528,0,0)"/>
<path style="fill:none;stroke-width:2;stroke-linecap:butt;stroke-linejoin:miter;stroke:rgb(0%,0%,0%);stroke-opacity:1;stroke-miterlimit:4;" d="M 275.999691 475.999886 L 270.500285 468.000374 L 302.500399 458.500179 L 302.500399 432.499699 L 300.499487 434.499577 L 284.500464 432.499699 L 268.999601 430.499821 L 252.999544 436.500488 " transform="matrix(3.779528,0,0,3.779528,0,0)"/>
<path style="fill:none;stroke-width:2;stroke-linecap:butt;stroke-linejoin:miter;stroke:rgb(0%,0%,0%);stroke-opacity:1;stroke-miterlimit:4;" d="M 259.999634 431.000049 L 252.000122 436.999683 L 243.500382 452.99974 L 233.499959 468.999797 L 241.500505 484.999854 L 241.500505 500.99991 " transform="matrix(3.779528,0,0,3.779528,0,0)"/>
<path style="fill:none;stroke-width:2;stroke-linecap:butt;stroke-linejoin:miter;stroke:rgb(0%,0%,0%);stroke-opacity:1;stroke-miterlimit:4;" d="M 248.000366 499.000033 L 241.999699 484.499626 " transform="matrix(3.779528,0,0,3.779528,0,0)"/>
<path style="fill:none;stroke-width:2;stroke-linecap:butt;stroke-linejoin:miter;stroke:rgb(0%,0%,0%);stroke-opacity:1;stroke-miterlimit:4;" d="M 240.500049 480.49987 L 257.000334 486.499504 L 273.000391 490.500293 L 289.000448 492.500171 L 305.499699 493.999821 L 321.499756 495.500505 L 337.499813 495.000277 " transform="matrix(3.779528,0,0,3.779528,0,0)"/>
<path style="fill:none;stroke-width:2;stroke-linecap:butt;stroke-linejoin:miter;stroke:rgb(0%,0%,0%);stroke-opacity:1;stroke-miterlimit:4;" d="M 273.999813 505.499894 L 270.000057 501.500138 L 268.000179 479.500448 L 251.499894 475.499658 L 235.499837 471.499902 " transform="matrix(3.779528,0,0,3.779528,0,0)"/>
<path style="fill:none;stroke-width:2;stroke-linecap:butt;stroke-linejoin:miter;stroke:rgb(0%,0%,0%);stroke-opacity:1;stroke-miterlimit:4;" d="M 234.500415 464.499813 L 250.999666 442.500122 L 266.999723 459.000407 L 277.000146 463.500391 L 284.999658 465.500269 L 300.999715 463.500391 " transform="matrix(3.779528,0,0,3.779528,0,0)"/>
<path style="fill:none;stroke-width:2;stroke-linecap:butt;stroke-linejoin:miter;stroke:rgb(0%,0%,0%);stroke-opacity:1;stroke-miterlimit:4;" d="M 490.999487 355.499748 L 454.999618 339.499691 L 434.499577 323.999862 L 422.500309 307.999805 L 413.999536 291.999748 L 406.000024 275.999691 L 409.499552 271.999935 L 399.500163 256.500106 L 399.500163 240.500049 L 397.500285 230.499626 L 399.500163 216.50048 L 401.500041 200.500423 " transform="matrix(3.779528,0,0,3.779528,0,0)"/>
<path style="fill:none;stroke-width:2;stroke-linecap:butt;stroke-linejoin:miter;stroke:rgb(0%,0%,0%);stroke-opacity:1;stroke-miterlimit:4;" d="M 462.499935 128.49965 L 461.999707 126.499772 L 445.99965 110.499715 " transform="matrix(3.779528,0,0,3.779528,0,0)"/>
<path style="fill:none;stroke-width:2;stroke-linecap:butt;stroke-linejoin:miter;stroke:rgb(0%,0%,0%);stroke-opacity:1;stroke-miterlimit:4;" d="M 441.499666 75.999495 L 457.499723 100.000098 L 473.49978 125.999544 L 490.000065 155.499552 L 506.50035 185.499788 " transform="matrix(3.779528,0,0,3.779528,0,0)"/>
<path style="fill:none;stroke-width:2;stroke-linecap:butt;stroke-linejoin:miter;stroke:rgb(0%,0%,0%);stroke-opacity:1;stroke-miterlimit:4;" d="M 508.500228 168.999504 L 500.499683 153.00048 L 498.499805 146.999813 " transform="matrix(3.779528,0,0,3.779528,0,0)"/>
<path style="fill:none;stroke-width:2;stroke-linecap:butt;stroke-linejoin:miter;stroke:rgb(0%,0%,0%);stroke-opacity:1;stroke-miterlimit:4;" d="M 502.000366 165.499976 L 486.499504 137.000423 L 470.50048 107.000187 L 454.999618 82.500391 L 438.999561 66.500334 " transform="matrix(3.779528,0,0,3.779528,0,0)"/>
<path style="fill:none;stroke-width:2;stroke-linecap:butt;stroke-linejoin:miter;stroke:rgb(0%,0%,0%);stroke-opacity:1;stroke-miterlimit:4;" d="M 443.00035 68.500212 L 452.99974 84.500269 L 463.000163 100.000098 L 472.999552 116.000155 L 482.499748 132.000212 L 490.500293 147.500041 L 500.499683 163.500098 L 508.500228 180.000382 " transform="matrix(3.779528,0,0,3.779528,0,0)"/>
<path style="fill:none;stroke-width:2;stroke-linecap:butt;stroke-linejoin:miter;stroke:rgb(0%,0%,0%);stroke-opacity:1;stroke-miterlimit:4;" d="M 504.500472 87.000374 L 488.000187 76.499723 L 471.499902 68.500212 L 454.999618 60.000472 L 438.999561 53.499577 L 422.999504 51.499699 " transform="matrix(3.779528,0,0,3.779528,0,0)"/>
<path style="fill:none;stroke-width:2;stroke-linecap:butt;stroke-linejoin:miter;stroke:rgb(0%,0%,0%);stroke-opacity:1;stroke-miterlimit:4;" d="M 420.000203 41.500309 L 452.000317 53.499577 L 468.000374 57.500366 L 484.000431 66.000106 L 500.000488 75.999495 " transform="matrix(3.779528,0,0,3.779528,0,0)"/>
<path style="fill:none;stroke-width:2;stroke-linecap:butt;stroke-linejoin:miter;stroke:rgb(0%,0%,0%);stroke-opacity:1;stroke-miterlimit:4;" d="M 496.499927 67.999984 L 464.499813 51.999927 L 432.499699 52.500155 L 416.499642 42.499731 " transform="matrix(3.779528,0,0,3.779528,0,0)"/>
<path style="fill:none;stroke-width:2;stroke-linecap:butt;stroke-linejoin:miter;stroke:rgb(0%,0%,0%);stroke-opacity:1;stroke-miterlimit:4;" d="M 413.500342 33.999992 L 429.500399 41.999504 L 445.000228 46.499487 L 461.000285 50.500277 L 477.499536 56.49991 L 493.499593 66.500334 L 509.49965 76.499723 " transform="matrix(3.779528,0,0,3.779528,0,0)"/>
<path style="fill:none;stroke-width:2;stroke-linecap:butt;stroke-linejoin:miter;stroke:rgb(0%,0%,0%);stroke-opacity:1;stroke-miterlimit:4;" d="M 481.500326 75.500301 L 445.500456 59.500244 " transform="matrix(3.779528,0,0,3.779528,0,0)"/>
<path style="fill:none;stroke-width:2;stroke-linecap:butt;stroke-linejoin:miter;stroke:rgb(0%,0%,0%);stroke-opacity:1;stroke-miterlimit:4;" d="M 440.000016 50.500277 L 483.500203 66.000106 " transform="matrix(3.779528,0,0,3.779528,0,0)"/>
<path style="fill:none;stroke-width:2;stroke-linecap:butt;stroke-linejoin:miter;stroke:rgb(0%,0%,0%);stroke-opacity:1;stroke-miterlimit:4;" d="M 409.000358 1.999878 L 409.499552 17.999935 L 413.000114 33.499764 L 417.500098 45.500065 L 431.500277 61.500122 L 443.999772 77.500179 L 452.000317 93.500236 L 462.499935 109.999487 L 472.500358 125.999544 L 475.000464 142.499829 L 484.999854 158.499886 L 500.99991 176.499821 L 509.000456 192.499878 " transform="matrix(3.779528,0,0,3.779528,0,0)"/>
<path style="fill:none;stroke-width:2;stroke-linecap:butt;stroke-linejoin:miter;stroke:rgb(0%,0%,0%);stroke-opacity:1;stroke-miterlimit:4;" d="M 416.99987 202.000073 L 400.999813 200.000195 L 377.500472 198.000317 L 361.500415 195.500212 L 345.999552 193.500334 L 329.999495 191.000228 L 314.000472 187.000472 L 298.000415 182.999683 L 282.499552 179.500155 L 266.499495 175.500399 L 246.000488 166.000203 L 230.000431 159.999536 L 214.000374 151.499797 L 198.000317 145.500163 L 181.500033 135.49974 L 164.49952 125.50035 L 148.500496 121.499561 " transform="matrix(3.779528,0,0,3.779528,0,0)"/>
<path style="fill:none;stroke-width:2;stroke-linecap:butt;stroke-linejoin:miter;stroke:rgb(0%,0%,0%);stroke-opacity:1;stroke-miterlimit:4;" d="M 153.499674 123.000244 L 169.499731 134.999512 L 185.499788 143.500285 L 201.499845 151.499797 L 217.499902 159.999536 L 233.499959 166.000203 L 249.500016 171.999837 " transform="matrix(3.779528,0,0,3.779528,0,0)"/>
<path style="fill:none;stroke-width:2;stroke-linecap:butt;stroke-linejoin:miter;stroke:rgb(0%,0%,0%);stroke-opacity:1;stroke-miterlimit:4;" d="M 261.999512 182.00026 L 252.000122 167.499854 L 259.999634 166.000203 L 270.000057 150.000146 L 282.499552 134.500317 L 295.000081 119.000488 L 323.000439 87.000374 L 339.000496 70.50009 L 356.500203 54.500033 L 378.499894 44.000415 L 362.499837 57.500366 L 346.49978 69.000439 L 329.999495 85.499691 L 314.000472 103.999854 L 298.000415 123.999666 L 282.000358 144.499707 L 266.000301 166.500431 " transform="matrix(3.779528,0,0,3.779528,0,0)"/>
<path style="fill:none;stroke-width:2;stroke-linecap:butt;stroke-linejoin:miter;stroke:rgb(0%,0%,0%);stroke-opacity:1;stroke-miterlimit:4;" d="M 282.000358 160.499764 L 289.99987 142.499829 L 303.499821 125.999544 L 316.00035 109.999487 " transform="matrix(3.779528,0,0,3.779528,0,0)"/>
<path style="fill:none;stroke-width:2;stroke-linecap:butt;stroke-linejoin:miter;stroke:rgb(0%,0%,0%);stroke-opacity:1;stroke-miterlimit:4;" d="M 351.499992 80.000285 L 335.499935 96.000342 L 323.499634 109.500293 L 307.499577 130.000334 L 296.999959 135.999967 L 280.499674 156.500008 L 293.999626 146.499585 L 306.500155 130.499528 L 318.500456 114.999699 L 332.999829 98.999642 L 348.499658 82.999585 L 363.000065 66.999528 " transform="matrix(3.779528,0,0,3.779528,0,0)"/>
<path style="fill:none;stroke-width:2;stroke-linecap:butt;stroke-linejoin:miter;stroke:rgb(0%,0%,0%);stroke-opacity:1;stroke-miterlimit:4;" d="M 362.499837 66.500334 L 346.49978 78.499601 L 344.499902 80.500513 L 360.499959 64.99965 " transform="matrix(3.779528,0,0,3.779528,0,0)"/>
<path style="fill:none;stroke-width:2;stroke-linecap:butt;stroke-linejoin:miter;stroke:rgb(0%,0%,0%);stroke-opacity:1;stroke-miterlimit:4;" d="M 372.50026 32.500342 L 356.500203 32.999536 L 340.500146 32.500342 L 325.000317 32.999536 L 309.500488 37.000326 L 293.500431 37.000326 L 277.500374 38.499976 L 261.500317 40.499854 L 245.50026 46.499487 L 228.999976 50.500277 L 212.499691 58.499788 L 196.499634 66.500334 L 180.499577 78.999829 L 164.000326 92.49978 L 147.500041 106.499959 L 164.999748 103.999854 L 187.000472 87.499569 L 216.999674 71.499512 L 250.999666 55.500488 L 285.499886 47.499943 L 269.499829 49.499821 L 253.499772 55.999683 L 237.999943 62.00035 L 221.999886 69.999862 L 205.999829 77.500179 L 189.999772 87.499569 L 174.499943 97.499992 L 158.499886 110.999943 " transform="matrix(3.779528,0,0,3.779528,0,0)"/>
<path style="fill:none;stroke-width:2;stroke-linecap:butt;stroke-linejoin:miter;stroke:rgb(0%,0%,0%);stroke-opacity:1;stroke-miterlimit:4;" d="M 162.000448 113.500049 L 178.499699 101.499748 L 194.499756 91.500358 L 210.499813 82.000163 L 226.49987 73.999618 L 242.499927 66.000106 L 258.499984 60.000472 L 274.500041 53.999805 " transform="matrix(3.779528,0,0,3.779528,0,0)"/>
<path style="fill:none;stroke-width:2;stroke-linecap:butt;stroke-linejoin:miter;stroke:rgb(0%,0%,0%);stroke-opacity:1;stroke-miterlimit:4;" d="M 286.000114 47.499943 L 246.000488 63.5 L 212.000496 80.000285 L 184.000138 96.000342 L 166.000203 111.500171 L 166.500431 95.500114 L 182.00026 83.499813 L 198.000317 71.499512 L 214.000374 61.500122 L 230.499626 55.500488 L 246.99991 49.499821 L 262.49974 46.000293 L 279.000024 41.999504 L 289.000448 44.000415 L 305.000505 41.999504 L 320.999528 37.999748 L 336.999585 38.499976 L 368.500505 38.499976 L 384.499528 39.000203 " transform="matrix(3.779528,0,0,3.779528,0,0)"/>
<path style="fill:none;stroke-width:2;stroke-linecap:butt;stroke-linejoin:miter;stroke:rgb(0%,0%,0%);stroke-opacity:1;stroke-miterlimit:4;" d="M 368.500505 43.500187 L 352.500448 57.000138 L 336.000163 71.499512 L 320.000106 87.999797 L 304.000049 105.999731 L 287.999992 126.499772 L 271.999935 148.500496 L 252.000122 186.000016 L 239.999821 169.999959 L 202.000073 153.499674 L 171.999837 137.499618 L 146.000391 121.999788 L 147.500041 105.499504 L 165.499976 89.50048 L 183.49991 73.500423 L 209.999585 57.500366 L 252.000122 41.500309 " transform="matrix(3.779528,0,0,3.779528,0,0)"/>
<path style="fill:none;stroke-width:2;stroke-linecap:butt;stroke-linejoin:miter;stroke:rgb(0%,0%,0%);stroke-opacity:1;stroke-miterlimit:4;" d="M 250.000244 46.999715 L 209.999585 63.5 L 186.000016 79.500057 L 166.000203 95.500114 L 152.000024 111.500171 L 166.000203 127.500228 L 193.999528 143.500285 L 228.499748 159.500342 " transform="matrix(3.779528,0,0,3.779528,0,0)"/>
<path style="fill:none;stroke-width:2;stroke-linecap:butt;stroke-linejoin:miter;stroke:rgb(0%,0%,0%);stroke-opacity:1;stroke-miterlimit:4;" d="M 391.000423 1.49965 L 391.000423 17.499707 L 401.500041 37.49952 L 417.500098 53.499577 L 432.000505 69.000439 L 441.999894 85.499691 L 452.000317 101.499748 L 445.99965 116.000155 L 456.000073 132.000212 L 477.999764 138.500073 L 488.000187 154.50013 L 490.000065 171.000415 L 499.50026 187.000472 L 505.499894 208.499935 " transform="matrix(3.779528,0,0,3.779528,0,0)"/>
<path style="fill:none;stroke-width:2;stroke-linecap:butt;stroke-linejoin:miter;stroke:rgb(0%,0%,0%);stroke-opacity:1;stroke-miterlimit:4;" d="M 497.999577 182.500488 L 481.99952 154.50013 L 466.000496 126.499772 L 450.000439 98.500448 L 434.000382 69.999862 L 417.500098 53.499577 L 401.500041 35.000448 L 399.500163 17.000513 L 401.500041 1.000456 " transform="matrix(3.779528,0,0,3.779528,0,0)"/>
</g>
</svg>
