<?xml version="1.0" encoding="UTF-8"?>
<svg xmlns="http://www.w3.org/2000/svg" xmlns:xlink="http://www.w3.org/1999/xlink" width="1935.11811" height="1935.11811" viewBox="0 0 1935.11811 1935.11811" version="1.1">
<g id="surface1">
<path style="fill:none;stroke-width:2;stroke-linecap:butt;stroke-linejoin:miter;stroke:rgb(0%,0%,0%);stroke-opacity:1;stroke-miterlimit:4;" d="M 447.500334 12.499495 L 457.499723 28.499552 L 479.500448 44.499609 " transform="matrix(3.779528,0,0,3.779528,0,0)"/>
<path style="fill:none;stroke-width:2;stroke-linecap:butt;stroke-linejoin:miter;stroke:rgb(0%,0%,0%);stroke-opacity:1;stroke-miterlimit:4;" d="M 468.000374 37.49952 L 452.000317 29.500008 L 436.00026 35.99987 L 420.500431 37.999748 L 404.500374 28.000358 " transform="matrix(3.779528,0,0,3.779528,0,0)"/>
<path style="fill:none;stroke-width:2;stroke-linecap:butt;stroke-linejoin:miter;stroke:rgb(0%,0%,0%);stroke-opacity:1;stroke-miterlimit:4;" d="M 403.499919 23.000146 L 431.500277 21.000269 L 447.500334 19.000391 L 463.500391 29.500008 L 479.999642 41.999504 " transform="matrix(3.779528,0,0,3.779528,0,0)"/>
<path style="fill:none;stroke-width:2;stroke-linecap:butt;stroke-linejoin:miter;stroke:rgb(0%,0%,0%);stroke-opacity:1;stroke-miterlimit:4;" d="M 486.000309 39.500431 L 509.999878 29.500008 L 493.999821 23.500374 L 477.499536 23.500374 L 461.999707 21.000269 L 445.99965 17.000513 L 429.999593 14.999601 L 413.500342 16.500285 L 397.500285 18.500163 L 382.000456 21.000269 L 366.000399 21.000269 " transform="matrix(3.779528,0,0,3.779528,0,0)"/>
<path style="fill:none;stroke-width:2;stroke-linecap:butt;stroke-linejoin:miter;stroke:rgb(0%,0%,0%);stroke-opacity:1;stroke-miterlimit:4;" d="M 368.000277 25.500252 L 384.000334 33.499764 L 400.000391 41.999504 L 416.499642 51.999927 L 432.499699 62.00035 " transform="matrix(3.779528,0,0,3.779528,0,0)"/>
<path style="fill:none;stroke-width:2;stroke-linecap:butt;stroke-linejoin:miter;stroke:rgb(0%,0%,0%);stroke-opacity:1;stroke-miterlimit:4;" d="M 447.500334 64.000228 L 443.999772 48.500399 " transform="matrix(3.779528,0,0,3.779528,0,0)"/>
<path style="fill:none;stroke-width:2;stroke-linecap:butt;stroke-linejoin:miter;stroke:rgb(0%,0%,0%);stroke-opacity:1;stroke-miterlimit:4;" d="M 431.000049 21.500496 L 429.000171 25.500252 L 431.500277 39.500431 L 439.499788 51.499699 L 443.999772 71.000317 L 459.999829 77.500179 L 475.999886 69.499634 " transform="matrix(3.779528,0,0,3.779528,0,0)"/>
<path style="fill:none;stroke-width:2;stroke-linecap:butt;stroke-linejoin:miter;stroke:rgb(0%,0%,0%);stroke-opacity:1;stroke-miterlimit:4;" d="M 472.00013 87.499569 L 456.000073 81.499935 L 440.000016 73.500423 L 423.499731 61.500122 L 407.00048 53.499577 L 390.500195 44.000415 L 374.500138 36.500098 L 359.000309 28.499552 " transform="matrix(3.779528,0,0,3.779528,0,0)"/>
<path style="fill:none;stroke-width:2;stroke-linecap:butt;stroke-linejoin:miter;stroke:rgb(0%,0%,0%);stroke-opacity:1;stroke-miterlimit:4;" d="M 359.999731 27.50013 L 389.999967 43.500187 L 415.50022 59.500244 L 439.499788 75.500301 L 451.50009 83.499813 L 452.000317 100.000098 L 459.999829 89.50048 L 486.000309 83.499813 L 502.000366 67.999984 " transform="matrix(3.779528,0,0,3.779528,0,0)"/>
<path style="fill:none;stroke-width:2;stroke-linecap:butt;stroke-linejoin:miter;stroke:rgb(0%,0%,0%);stroke-opacity:1;stroke-miterlimit:4;" d="M 507.499772 63.5 L 493.499593 79.500057 L 499.50026 93.500236 L 483.500203 103.000431 L 487.499959 123.000244 L 497.500382 124.499894 L 495.999699 144.499707 L 508.500228 159.999536 L 506.999544 153.999902 " transform="matrix(3.779528,0,0,3.779528,0,0)"/>
<path style="fill:none;stroke-width:2;stroke-linecap:butt;stroke-linejoin:miter;stroke:rgb(0%,0%,0%);stroke-opacity:1;stroke-miterlimit:4;" d="M 499.50026 141.999601 L 499.000033 137.999845 L 507.499772 125.50035 L 504.999666 109.500293 L 502.499561 99.49987 L 488.000187 111.500171 " transform="matrix(3.779528,0,0,3.779528,0,0)"/>
<path style="fill:none;stroke-width:2;stroke-linecap:butt;stroke-linejoin:miter;stroke:rgb(0%,0%,0%);stroke-opacity:1;stroke-miterlimit:4;" d="M 490.000065 125.50035 L 506.000122 117.499805 L 508 109.999487 " transform="matrix(3.779528,0,0,3.779528,0,0)"/>
<path style="fill:none;stroke-width:2;stroke-linecap:butt;stroke-linejoin:miter;stroke:rgb(0%,0%,0%);stroke-opacity:1;stroke-miterlimit:4;" d="M 482.499748 133.499862 L 498.499805 147.500041 " transform="matrix(3.779528,0,0,3.779528,0,0)"/>
<path style="fill:none;stroke-width:2;stroke-linecap:butt;stroke-linejoin:miter;stroke:rgb(0%,0%,0%);stroke-opacity:1;stroke-miterlimit:4;" d="M 504.999666 159.500342 L 488.999609 147.500041 L 484.999854 139.499495 L 459.000407 155.499552 L 441.000472 149.499919 L 420.999626 161.50022 L 404.500374 175.500399 " transform="matrix(3.779528,0,0,3.779528,0,0)"/>
<path style="fill:none;stroke-width:2;stroke-linecap:butt;stroke-linejoin:miter;stroke:rgb(0%,0%,0%);stroke-opacity:1;stroke-miterlimit:4;" d="M 406.500252 182.500488 L 422.500309 172.500065 L 438.500366 170.500187 L 459.999829 160.499764 L 459.999829 176.499821 L 462.499935 192.499878 L 452.499512 198.000317 L 444.5 213.500146 L 434.499577 229.500203 L 430.499821 241.500505 L 446.499878 223.499536 L 478.499992 223.499536 L 494.500049 239.499593 " transform="matrix(3.779528,0,0,3.779528,0,0)"/>
<path style="fill:none;stroke-width:2;stroke-linecap:butt;stroke-linejoin:miter;stroke:rgb(0%,0%,0%);stroke-opacity:1;stroke-miterlimit:4;" d="M 506.000122 227.500326 L 500.000488 211.500269 L 495.999699 195.500212 L 484.000431 179.500155 " transform="matrix(3.779528,0,0,3.779528,0,0)"/>
<path style="fill:none;stroke-width:2;stroke-linecap:butt;stroke-linejoin:miter;stroke:rgb(0%,0%,0%);stroke-opacity:1;stroke-miterlimit:4;" d="M 478.499992 151.499797 L 484.499626 167.499854 L 491.499715 183.49991 L 488.000187 199.499967 L 490.000065 215.500024 L 493.999821 232.000309 " transform="matrix(3.779528,0,0,3.779528,0,0)"/>
<path style="fill:none;stroke-width:2;stroke-linecap:butt;stroke-linejoin:miter;stroke:rgb(0%,0%,0%);stroke-opacity:1;stroke-miterlimit:4;" d="M 479.500448 221.499658 L 463.500391 217.499902 " transform="matrix(3.779528,0,0,3.779528,0,0)"/>
<path style="fill:none;stroke-width:2;stroke-linecap:butt;stroke-linejoin:miter;stroke:rgb(0%,0%,0%);stroke-opacity:1;stroke-miterlimit:4;" d="M 462.499935 214.499569 L 477.999764 214.000374 L 500.000488 239.999821 " transform="matrix(3.779528,0,0,3.779528,0,0)"/>
<path style="fill:none;stroke-width:2;stroke-linecap:butt;stroke-linejoin:miter;stroke:rgb(0%,0%,0%);stroke-opacity:1;stroke-miterlimit:4;" d="M 495.999699 252.50035 L 479.999642 241.000277 L 463.500391 234.999609 " transform="matrix(3.779528,0,0,3.779528,0,0)"/>
<path style="fill:none;stroke-width:2;stroke-linecap:butt;stroke-linejoin:miter;stroke:rgb(0%,0%,0%);stroke-opacity:1;stroke-miterlimit:4;" d="M 465.000041 234.500415 L 482.999976 250.500472 L 492.500171 266.499495 L 494.500049 282.499552 L 494.500049 329.999495 L 490.000065 345.999552 L 479.999642 368.000277 L 486.000309 384.000334 L 488.500415 400.000391 L 488.500415 416.000448 L 490.500293 431.500277 L 490.000065 447.000106 L 490.000065 463.000163 L 489.499837 479.00022 L 489.499837 494.500049 " transform="matrix(3.779528,0,0,3.779528,0,0)"/>
<path style="fill:none;stroke-width:2;stroke-linecap:butt;stroke-linejoin:miter;stroke:rgb(0%,0%,0%);stroke-opacity:1;stroke-miterlimit:4;" d="M 473.49978 506.000122 L 457.499723 508.500228 " transform="matrix(3.779528,0,0,3.779528,0,0)"/>
<path style="fill:none;stroke-width:2;stroke-linecap:butt;stroke-linejoin:miter;stroke:rgb(0%,0%,0%);stroke-opacity:1;stroke-miterlimit:4;" d="M 456.000073 504.000244 L 471.499902 500.000488 " transform="matrix(3.779528,0,0,3.779528,0,0)"/>
<path style="fill:none;stroke-width:2;stroke-linecap:butt;stroke-linejoin:miter;stroke:rgb(0%,0%,0%);stroke-opacity:1;stroke-miterlimit:4;" d="M 380.499772 505.499894 L 350.499536 489.499837 L 343.999674 474.000008 L 348.000464 458.500179 L 350.000342 442.500122 L 357.999854 426.500065 L 350.000342 426.500065 L 334.000285 425.999837 " transform="matrix(3.779528,0,0,3.779528,0,0)"/>
<path style="fill:none;stroke-width:2;stroke-linecap:butt;stroke-linejoin:miter;stroke:rgb(0%,0%,0%);stroke-opacity:1;stroke-miterlimit:4;" d="M 371.499805 435.500033 L 367.500049 451.50009 L 359.499504 469.500024 L 347.500236 488.000187 L 363.000065 496.499927 L 379.000122 502.499561 " transform="matrix(3.779528,0,0,3.779528,0,0)"/>
<path style="fill:none;stroke-width:2;stroke-linecap:butt;stroke-linejoin:miter;stroke:rgb(0%,0%,0%);stroke-opacity:1;stroke-miterlimit:4;" d="M 345.500358 499.50026 L 329.000073 491.499715 L 316.999772 497.500382 L 328.499845 495.999699 L 326.499967 479.999642 L 320.000106 460.500057 L 304.000049 459.000407 " transform="matrix(3.779528,0,0,3.779528,0,0)"/>
<path style="fill:none;stroke-width:2;stroke-linecap:butt;stroke-linejoin:miter;stroke:rgb(0%,0%,0%);stroke-opacity:1;stroke-miterlimit:4;" d="M 298.000415 456.000073 L 302.000171 461.999707 L 318.500456 463.999585 L 320.500334 475.999886 L 320.500334 491.999943 L 338.500269 502.499561 L 334.500513 504.000244 " transform="matrix(3.779528,0,0,3.779528,0,0)"/>
<path style="fill:none;stroke-width:2;stroke-linecap:butt;stroke-linejoin:miter;stroke:rgb(0%,0%,0%);stroke-opacity:1;stroke-miterlimit:4;" d="M 304.500277 495.500505 L 288.50022 495.500505 " transform="matrix(3.779528,0,0,3.779528,0,0)"/>
<path style="fill:none;stroke-width:2;stroke-linecap:butt;stroke-linejoin:miter;stroke:rgb(0%,0%,0%);stroke-opacity:1;stroke-miterlimit:4;" d="M 282.499552 495.500505 L 298.499609 489.499837 " transform="matrix(3.779528,0,0,3.779528,0,0)"/>
<path style="fill:none;stroke-width:2;stroke-linecap:butt;stroke-linejoin:miter;stroke:rgb(0%,0%,0%);stroke-opacity:1;stroke-miterlimit:4;" d="M 305.499699 482.499748 L 305.499699 478.499992 L 289.499642 479.00022 " transform="matrix(3.779528,0,0,3.779528,0,0)"/>
<path style="fill:none;stroke-width:2;stroke-linecap:butt;stroke-linejoin:miter;stroke:rgb(0%,0%,0%);stroke-opacity:1;stroke-miterlimit:4;" d="M 236.999487 504.000244 L 250.999666 488.000187 L 268.999601 472.00013 L 288.50022 456.000073 L 309.00026 440.000016 L 329.000073 423.999959 L 350.999764 407.999902 L 361.000187 391.999845 L 364.999943 375.999788 L 370.999577 359.999731 L 375.000366 343.999674 L 368.999699 327.999618 L 366.999821 311.999561 L 368.999699 295.999504 " transform="matrix(3.779528,0,0,3.779528,0,0)"/>
<path style="fill:none;stroke-width:2;stroke-linecap:butt;stroke-linejoin:miter;stroke:rgb(0%,0%,0%);stroke-opacity:1;stroke-miterlimit:4;" d="M 364.499715 295.500309 L 380.499772 291.49952 " transform="matrix(3.779528,0,0,3.779528,0,0)"/>
<path style="fill:none;stroke-width:2;stroke-linecap:butt;stroke-linejoin:miter;stroke:rgb(0%,0%,0%);stroke-opacity:1;stroke-miterlimit:4;" d="M 365.500171 304.000049 L 381.500228 307.999805 L 397.500285 314.499666 L 413.999536 318.500456 L 447.999528 318.500456 " transform="matrix(3.779528,0,0,3.779528,0,0)"/>
<path style="fill:none;stroke-width:2;stroke-linecap:butt;stroke-linejoin:miter;stroke:rgb(0%,0%,0%);stroke-opacity:1;stroke-miterlimit:4;" d="M 469.500024 318.99965 L 453.499967 310.49991 L 438.000138 307.000382 L 422.000081 295.000081 " transform="matrix(3.779528,0,0,3.779528,0,0)"/>
<path style="fill:none;stroke-width:2;stroke-linecap:butt;stroke-linejoin:miter;stroke:rgb(0%,0%,0%);stroke-opacity:1;stroke-miterlimit:4;" d="M 420.500431 289.99987 L 436.500488 270.000057 " transform="matrix(3.779528,0,0,3.779528,0,0)"/>
<path style="fill:none;stroke-width:2;stroke-linecap:butt;stroke-linejoin:miter;stroke:rgb(0%,0%,0%);stroke-opacity:1;stroke-miterlimit:4;" d="M 454.500423 266.999723 L 470.50048 274.500041 " transform="matrix(3.779528,0,0,3.779528,0,0)"/>
<path style="fill:none;stroke-width:2;stroke-linecap:butt;stroke-linejoin:miter;stroke:rgb(0%,0%,0%);stroke-opacity:1;stroke-miterlimit:4;" d="M 472.999552 282.499552 L 457.499723 270.500285 " transform="matrix(3.779528,0,0,3.779528,0,0)"/>
<path style="fill:none;stroke-width:2;stroke-linecap:butt;stroke-linejoin:miter;stroke:rgb(0%,0%,0%);stroke-opacity:1;stroke-miterlimit:4;" d="M 455.499845 266.000301 L 471.499902 282.000358 " transform="matrix(3.779528,0,0,3.779528,0,0)"/>
<path style="fill:none;stroke-width:2;stroke-linecap:butt;stroke-linejoin:miter;stroke:rgb(0%,0%,0%);stroke-opacity:1;stroke-miterlimit:4;" d="M 479.500448 257.499528 L 463.000163 243.500382 " transform="matrix(3.779528,0,0,3.779528,0,0)"/>
<path style="fill:none;stroke-width:2;stroke-linecap:butt;stroke-linejoin:miter;stroke:rgb(0%,0%,0%);stroke-opacity:1;stroke-miterlimit:4;" d="M 459.000407 241.500505 L 481.000098 257.499528 " transform="matrix(3.779528,0,0,3.779528,0,0)"/>
<path style="fill:none;stroke-width:2;stroke-linecap:butt;stroke-linejoin:miter;stroke:rgb(0%,0%,0%);stroke-opacity:1;stroke-miterlimit:4;" d="M 483.500203 266.499495 L 466.999919 254 L 450.999862 243.999577 " transform="matrix(3.779528,0,0,3.779528,0,0)"/>
<path style="fill:none;stroke-width:2;stroke-linecap:butt;stroke-linejoin:miter;stroke:rgb(0%,0%,0%);stroke-opacity:1;stroke-miterlimit:4;" d="M 450.999862 239.499593 L 468.499569 255.999878 " transform="matrix(3.779528,0,0,3.779528,0,0)"/>
<path style="fill:none;stroke-width:2;stroke-linecap:butt;stroke-linejoin:miter;stroke:rgb(0%,0%,0%);stroke-opacity:1;stroke-miterlimit:4;" d="M 481.500326 249.500016 L 465.500269 237.499715 L 450.000439 239.000399 " transform="matrix(3.779528,0,0,3.779528,0,0)"/>
<path style="fill:none;stroke-width:2;stroke-linecap:butt;stroke-linejoin:miter;stroke:rgb(0%,0%,0%);stroke-opacity:1;stroke-miterlimit:4;" d="M 443.999772 224.499992 L 432.000505 241.000277 L 449.500212 200.999618 " transform="matrix(3.779528,0,0,3.779528,0,0)"/>
<path style="fill:none;stroke-width:2;stroke-linecap:butt;stroke-linejoin:miter;stroke:rgb(0%,0%,0%);stroke-opacity:1;stroke-miterlimit:4;" d="M 430.499821 201.499845 L 414.499764 196.999862 L 398.000513 194.499756 " transform="matrix(3.779528,0,0,3.779528,0,0)"/>
<path style="fill:none;stroke-width:2;stroke-linecap:butt;stroke-linejoin:miter;stroke:rgb(0%,0%,0%);stroke-opacity:1;stroke-miterlimit:4;" d="M 399.500163 182.999683 L 414.999992 189.499544 L 431.000049 196.000439 L 446.499878 200.000195 L 438.000138 216.000252 L 423.499731 232.499504 L 425.499609 248.499561 L 421.499854 264.499618 L 411.500464 280.499674 L 420.000203 304.500277 " transform="matrix(3.779528,0,0,3.779528,0,0)"/>
<path style="fill:none;stroke-width:2;stroke-linecap:butt;stroke-linejoin:miter;stroke:rgb(0%,0%,0%);stroke-opacity:1;stroke-miterlimit:4;" d="M 410.500008 291.000326 L 426.500065 275.000269 L 432.000505 267.499951 L 420.000203 282.99978 L 416.000448 273.000391 L 434.000382 272.500163 L 422.000081 288.50022 L 430.499821 304.000049 L 468.499569 320.000106 " transform="matrix(3.779528,0,0,3.779528,0,0)"/>
<path style="fill:none;stroke-width:2;stroke-linecap:butt;stroke-linejoin:miter;stroke:rgb(0%,0%,0%);stroke-opacity:1;stroke-miterlimit:4;" d="M 495.000277 347.500236 L 479.00022 359.499504 " transform="matrix(3.779528,0,0,3.779528,0,0)"/>
<path style="fill:none;stroke-width:2;stroke-linecap:butt;stroke-linejoin:miter;stroke:rgb(0%,0%,0%);stroke-opacity:1;stroke-miterlimit:4;" d="M 474.000008 359.999731 L 489.499837 347.500236 " transform="matrix(3.779528,0,0,3.779528,0,0)"/>
<path style="fill:none;stroke-width:2;stroke-linecap:butt;stroke-linejoin:miter;stroke:rgb(0%,0%,0%);stroke-opacity:1;stroke-miterlimit:4;" d="M 504.500472 264.499618 L 504.000244 225.00022 L 475.999886 205.000407 L 453.499967 193.000106 L 427.499487 223.000342 L 422.999504 228.999976 L 407.00048 228.999976 L 424.500187 225.00022 L 434.499577 209.000163 L 440.500244 192.499878 L 450.999862 175.999593 L 450.999862 159.999536 L 449.500212 144.000513 L 451.50009 139.999723 L 456.000073 128.000456 L 468.499569 121.999788 L 470.000252 110.499715 L 468.499569 104.500081 L 472.500358 96.499536 L 480.49987 94.000464 L 475.999886 71.499512 L 481.99952 55.500488 L 468.000374 39.500431 L 452.000317 31.499886 L 441.999894 21.500496 L 416.000448 26.999902 L 400.499585 23.000146 " transform="matrix(3.779528,0,0,3.779528,0,0)"/>
<path style="fill:none;stroke-width:2;stroke-linecap:butt;stroke-linejoin:miter;stroke:rgb(0%,0%,0%);stroke-opacity:1;stroke-miterlimit:4;" d="M 366.999821 26.00048 L 397.500285 41.999504 L 422.999504 57.500366 L 447.500334 73.500423 L 469.500024 89.50048 L 456.000073 105.499504 L 454.000195 121.499561 L 444.5 123.999666 L 430.499821 148.000269 L 407.00048 168.500309 L 398.999935 198.499512 L 420.999626 204.500179 L 416.99987 210.499813 L 434.999805 221.999886 " transform="matrix(3.779528,0,0,3.779528,0,0)"/>
<path style="fill:none;stroke-width:2;stroke-linecap:butt;stroke-linejoin:miter;stroke:rgb(0%,0%,0%);stroke-opacity:1;stroke-miterlimit:4;" d="M 414.999992 191.500456 L 400.499585 175.999593 L 428.499943 155.99978 L 411.999658 162.000448 L 395.999601 182.00026 " transform="matrix(3.779528,0,0,3.779528,0,0)"/>
<path style="fill:none;stroke-width:2;stroke-linecap:butt;stroke-linejoin:miter;stroke:rgb(0%,0%,0%);stroke-opacity:1;stroke-miterlimit:4;" d="M 391.000423 177.500277 L 407.499674 157.500464 L 422.999504 145.500163 L 438.999561 129.500106 " transform="matrix(3.779528,0,0,3.779528,0,0)"/>
<path style="fill:none;stroke-width:2;stroke-linecap:butt;stroke-linejoin:miter;stroke:rgb(0%,0%,0%);stroke-opacity:1;stroke-miterlimit:4;" d="M 415.50022 114.000277 L 383.500106 114.000277 L 368.000277 116.000155 L 352.500448 116.500382 L 336.500391 118.50026 L 320.500334 121.000366 L 304.500277 123.000244 L 287.999992 125.000122 L 271.999935 126.499772 L 266.000301 112.499593 L 264.000423 108.499837 L 247.500138 107.999609 L 231.500081 109.999487 L 215.500024 112.000399 L 199.499967 113.500049 L 184.000138 117.499805 L 167.499854 121.499561 L 151.499797 129.500106 L 135.49974 133.499862 L 119.499683 135.49974 L 97.499992 121.000366 L 81.499935 133.499862 L 65.499878 125.999544 L 50.000049 118.000033 L 33.999992 112.499593 L 17.999935 105.999731 " transform="matrix(3.779528,0,0,3.779528,0,0)"/>
<path style="fill:none;stroke-width:2;stroke-linecap:butt;stroke-linejoin:miter;stroke:rgb(0%,0%,0%);stroke-opacity:1;stroke-miterlimit:4;" d="M 19.000391 112.499593 L 58.499788 128.49965 L 76.499723 144.000513 L 86.500146 164.000326 L 105.999731 150.500374 " transform="matrix(3.779528,0,0,3.779528,0,0)"/>
<path style="fill:none;stroke-width:2;stroke-linecap:butt;stroke-linejoin:miter;stroke:rgb(0%,0%,0%);stroke-opacity:1;stroke-miterlimit:4;" d="M 129.500106 156.500008 L 145.500163 158.499886 L 177.500277 158.499886 L 193.500334 159.999536 L 209.999585 162.000448 L 226.49987 164.000326 L 242.499927 167.499854 L 258.499984 173.999715 L 275.000269 180.000382 " transform="matrix(3.779528,0,0,3.779528,0,0)"/>
<path style="fill:none;stroke-width:2;stroke-linecap:butt;stroke-linejoin:miter;stroke:rgb(0%,0%,0%);stroke-opacity:1;stroke-miterlimit:4;" d="M 282.000358 158.499886 L 266.000301 136.500195 " transform="matrix(3.779528,0,0,3.779528,0,0)"/>
<path style="fill:none;stroke-width:2;stroke-linecap:butt;stroke-linejoin:miter;stroke:rgb(0%,0%,0%);stroke-opacity:1;stroke-miterlimit:4;" d="M 264.000423 132.999634 L 273.999813 148.999691 L 283.500008 164.999748 L 293.500431 180.999805 L 303.499821 209.000163 L 319.499878 225.00022 L 334.999707 244.499805 L 350.999764 264.499618 " transform="matrix(3.779528,0,0,3.779528,0,0)"/>
<path style="fill:none;stroke-width:2;stroke-linecap:butt;stroke-linejoin:miter;stroke:rgb(0%,0%,0%);stroke-opacity:1;stroke-miterlimit:4;" d="M 364.499715 318.99965 L 372.50026 335.499935 L 368.500505 350.999764 L 359.999731 372.50026 " transform="matrix(3.779528,0,0,3.779528,0,0)"/>
<path style="fill:none;stroke-width:2;stroke-linecap:butt;stroke-linejoin:miter;stroke:rgb(0%,0%,0%);stroke-opacity:1;stroke-miterlimit:4;" d="M 362.499837 365.500171 L 366.499593 341.999797 L 359.999731 357.999854 L 355.499748 379.50035 " transform="matrix(3.779528,0,0,3.779528,0,0)"/>
<path style="fill:none;stroke-width:2;stroke-linecap:butt;stroke-linejoin:miter;stroke:rgb(0%,0%,0%);stroke-opacity:1;stroke-miterlimit:4;" d="M 375.000366 422.000081 L 366.999821 437.49991 L 366.999821 456.999495 L 364.999943 472.999552 L 352.999642 482.999976 L 364.499715 488.999609 L 381 495.000277 " transform="matrix(3.779528,0,0,3.779528,0,0)"/>
<path style="fill:none;stroke-width:2;stroke-linecap:butt;stroke-linejoin:miter;stroke:rgb(0%,0%,0%);stroke-opacity:1;stroke-miterlimit:4;" d="M 386.000212 500.000488 L 352.500448 484.499626 L 352.500448 468.499569 L 354.500326 452.99974 L 356.500203 436.999683 L 354.000098 416.99987 L 336.000163 412.499886 L 320.000106 422.500309 L 304.000049 434.499577 L 287.499764 447.999528 L 255.49965 475.999886 L 239.499593 489.499837 L 223.999764 463.500391 " transform="matrix(3.779528,0,0,3.779528,0,0)"/>
<path style="fill:none;stroke-width:2;stroke-linecap:butt;stroke-linejoin:miter;stroke:rgb(0%,0%,0%);stroke-opacity:1;stroke-miterlimit:4;" d="M 220.000008 468.499569 L 225.999642 484.000431 " transform="matrix(3.779528,0,0,3.779528,0,0)"/>
<path style="fill:none;stroke-width:2;stroke-linecap:butt;stroke-linejoin:miter;stroke:rgb(0%,0%,0%);stroke-opacity:1;stroke-miterlimit:4;" d="M 226.49987 490.000065 L 210.499813 477.499536 " transform="matrix(3.779528,0,0,3.779528,0,0)"/>
<path style="fill:none;stroke-width:2;stroke-linecap:butt;stroke-linejoin:miter;stroke:rgb(0%,0%,0%);stroke-opacity:1;stroke-miterlimit:4;" d="M 207.500513 473.49978 L 223.499536 477.499536 " transform="matrix(3.779528,0,0,3.779528,0,0)"/>
<path style="fill:none;stroke-width:2;stroke-linecap:butt;stroke-linejoin:miter;stroke:rgb(0%,0%,0%);stroke-opacity:1;stroke-miterlimit:4;" d="M 220.000008 491.999943 L 203.999951 479.500448 " transform="matrix(3.779528,0,0,3.779528,0,0)"/>
<path style="fill:none;stroke-width:2;stroke-linecap:butt;stroke-linejoin:miter;stroke:rgb(0%,0%,0%);stroke-opacity:1;stroke-miterlimit:4;" d="M 203.499723 474.500236 L 215.500024 468.499569 L 217.499902 484.999854 " transform="matrix(3.779528,0,0,3.779528,0,0)"/>
<path style="fill:none;stroke-width:2;stroke-linecap:butt;stroke-linejoin:miter;stroke:rgb(0%,0%,0%);stroke-opacity:1;stroke-miterlimit:4;" d="M 207.500513 491.999943 L 209.000163 508 " transform="matrix(3.779528,0,0,3.779528,0,0)"/>
<path style="fill:none;stroke-width:2;stroke-linecap:butt;stroke-linejoin:miter;stroke:rgb(0%,0%,0%);stroke-opacity:1;stroke-miterlimit:4;" d="M 203.999951 497.999577 L 202.000073 491.999943 " transform="matrix(3.779528,0,0,3.779528,0,0)"/>
<path style="fill:none;stroke-width:2;stroke-linecap:butt;stroke-linejoin:miter;stroke:rgb(0%,0%,0%);stroke-opacity:1;stroke-miterlimit:4;" d="M 153.00048 507.499772 L 149.499919 508 L 150.000146 491.999943 " transform="matrix(3.779528,0,0,3.779528,0,0)"/>
<path style="fill:none;stroke-width:2;stroke-linecap:butt;stroke-linejoin:miter;stroke:rgb(0%,0%,0%);stroke-opacity:1;stroke-miterlimit:4;" d="M 145.500163 486.000309 L 127.500228 502.499561 L 129.500106 500.99991 " transform="matrix(3.779528,0,0,3.779528,0,0)"/>
<path style="fill:none;stroke-width:2;stroke-linecap:butt;stroke-linejoin:miter;stroke:rgb(0%,0%,0%);stroke-opacity:1;stroke-miterlimit:4;" d="M 140.499951 484.999854 L 121.999788 501.500138 L 137.999845 488.000187 L 150.500374 508 " transform="matrix(3.779528,0,0,3.779528,0,0)"/>
<path style="fill:none;stroke-width:2;stroke-linecap:butt;stroke-linejoin:miter;stroke:rgb(0%,0%,0%);stroke-opacity:1;stroke-miterlimit:4;" d="M 54.500033 463.000163 L 34.50022 476.500114 L 17.999935 466.499691 L 1.999878 456.500301 " transform="matrix(3.779528,0,0,3.779528,0,0)"/>
<path style="fill:none;stroke-width:2;stroke-linecap:butt;stroke-linejoin:miter;stroke:rgb(0%,0%,0%);stroke-opacity:1;stroke-miterlimit:4;" d="M 1.49965 452.000317 L 17.499707 459.999829 " transform="matrix(3.779528,0,0,3.779528,0,0)"/>
<path style="fill:none;stroke-width:2;stroke-linecap:butt;stroke-linejoin:miter;stroke:rgb(0%,0%,0%);stroke-opacity:1;stroke-miterlimit:4;" d="M 19.000391 450.499634 L 3.000334 430.499821 " transform="matrix(3.779528,0,0,3.779528,0,0)"/>
<path style="fill:none;stroke-width:2;stroke-linecap:butt;stroke-linejoin:miter;stroke:rgb(0%,0%,0%);stroke-opacity:1;stroke-miterlimit:4;" d="M 5.000212 425.499609 L 5.000212 441.499666 L 19.000391 443.499544 L 30.500464 459.499601 L 33.999992 465.000041 " transform="matrix(3.779528,0,0,3.779528,0,0)"/>
<path style="fill:none;stroke-width:2;stroke-linecap:butt;stroke-linejoin:miter;stroke:rgb(0%,0%,0%);stroke-opacity:1;stroke-miterlimit:4;" d="M 17.499707 468.000374 L 3.499528 452.000317 " transform="matrix(3.779528,0,0,3.779528,0,0)"/>
<path style="fill:none;stroke-width:2;stroke-linecap:butt;stroke-linejoin:miter;stroke:rgb(0%,0%,0%);stroke-opacity:1;stroke-miterlimit:4;" d="M 9.500195 441.000472 L 21.500496 456.999495 L 29.500008 468.999797 " transform="matrix(3.779528,0,0,3.779528,0,0)"/>
<path style="fill:none;stroke-width:2;stroke-linecap:butt;stroke-linejoin:miter;stroke:rgb(0%,0%,0%);stroke-opacity:1;stroke-miterlimit:4;" d="M 1.49965 425.000415 L 17.499707 441.000472 L 33.499764 459.999829 L 49.499821 452.499512 L 65.499878 426.500065 L 77.500179 436.999683 L 75.999495 452.499512 L 71.99974 462.499935 L 69.999862 477.999764 L 65.499878 493.999821 L 62.00035 509.999878 " transform="matrix(3.779528,0,0,3.779528,0,0)"/>
<path style="fill:none;stroke-width:2;stroke-linecap:butt;stroke-linejoin:miter;stroke:rgb(0%,0%,0%);stroke-opacity:1;stroke-miterlimit:4;" d="M 60.000472 497.000155 L 67.999984 465.000041 L 69.999862 445.500456 L 73.999618 429.500399 " transform="matrix(3.779528,0,0,3.779528,0,0)"/>
<path style="fill:none;stroke-width:2;stroke-linecap:butt;stroke-linejoin:miter;stroke:rgb(0%,0%,0%);stroke-opacity:1;stroke-miterlimit:4;" d="M 75.000073 341.000374 L 91.00013 334.999707 L 107.000187 334.999707 L 122.500016 334.500513 " transform="matrix(3.779528,0,0,3.779528,0,0)"/>
<path style="fill:none;stroke-width:2;stroke-linecap:butt;stroke-linejoin:miter;stroke:rgb(0%,0%,0%);stroke-opacity:1;stroke-miterlimit:4;" d="M 128.000456 309.00026 L 144.499707 276.499919 " transform="matrix(3.779528,0,0,3.779528,0,0)"/>
<path style="fill:none;stroke-width:2;stroke-linecap:butt;stroke-linejoin:miter;stroke:rgb(0%,0%,0%);stroke-opacity:1;stroke-miterlimit:4;" d="M 124.499894 281.50013 L 146.499585 275.500496 L 138.500073 291.999748 L 130.499528 307.999805 L 152.500252 323.999862 " transform="matrix(3.779528,0,0,3.779528,0,0)"/>
<path style="fill:none;stroke-width:2;stroke-linecap:butt;stroke-linejoin:miter;stroke:rgb(0%,0%,0%);stroke-opacity:1;stroke-miterlimit:4;" d="M 200.000195 359.999731 L 203.999951 379.999544 " transform="matrix(3.779528,0,0,3.779528,0,0)"/>
<path style="fill:none;stroke-width:2;stroke-linecap:butt;stroke-linejoin:miter;stroke:rgb(0%,0%,0%);stroke-opacity:1;stroke-miterlimit:4;" d="M 189.499544 278.499797 L 173.499487 264.999845 " transform="matrix(3.779528,0,0,3.779528,0,0)"/>
<path style="fill:none;stroke-width:2;stroke-linecap:butt;stroke-linejoin:miter;stroke:rgb(0%,0%,0%);stroke-opacity:1;stroke-miterlimit:4;" d="M 177.000049 260.499862 L 193.000106 275.999691 " transform="matrix(3.779528,0,0,3.779528,0,0)"/>
<path style="fill:none;stroke-width:2;stroke-linecap:butt;stroke-linejoin:miter;stroke:rgb(0%,0%,0%);stroke-opacity:1;stroke-miterlimit:4;" d="M 187.000472 270.000057 L 171.000415 257.999756 " transform="matrix(3.779528,0,0,3.779528,0,0)"/>
<path style="fill:none;stroke-width:2;stroke-linecap:butt;stroke-linejoin:miter;stroke:rgb(0%,0%,0%);stroke-opacity:1;stroke-miterlimit:4;" d="M 173.999715 257.999756 L 186.000016 273.999813 " transform="matrix(3.779528,0,0,3.779528,0,0)"/>
<path style="fill:none;stroke-width:2;stroke-linecap:butt;stroke-linejoin:miter;stroke:rgb(0%,0%,0%);stroke-opacity:1;stroke-miterlimit:4;" d="M 189.999772 259.999634 L 173.999715 248.000366 L 157.999658 239.999821 " transform="matrix(3.779528,0,0,3.779528,0,0)"/>
<path style="fill:none;stroke-width:2;stroke-linecap:butt;stroke-linejoin:miter;stroke:rgb(0%,0%,0%);stroke-opacity:1;stroke-miterlimit:4;" d="M 157.000236 236.500293 L 196.999862 268.500407 L 202.999495 284.000236 L 205.000407 300.000293 L 205.000407 315.500122 L 202.999495 332.000407 L 198.99974 348.000464 L 196.999862 364.499715 L 205.499601 380.499772 L 209.500391 396.499829 L 212.999919 412.499886 L 214.999797 428.499943 L 214.499569 443.999772 L 214.000374 459.999829 L 202.000073 475.499658 L 217.499902 491.499715 L 225.500448 509.49965 " transform="matrix(3.779528,0,0,3.779528,0,0)"/>
<path style="fill:none;stroke-width:2;stroke-linecap:butt;stroke-linejoin:miter;stroke:rgb(0%,0%,0%);stroke-opacity:1;stroke-miterlimit:4;" d="M 112.000399 325.499512 L 123.999666 309.500488 L 132.000212 293.500431 L 139.999723 277.500374 L 130.000334 265.500073 L 129.500106 275.500496 L 141.500407 271.499707 L 125.999544 302.000171 L 106.499959 309.999683 L 116.500382 299.500065 L 122.500016 297.500187 L 126.499772 287.499764 L 125.999544 271.000513 L 121.499561 250.999666 L 133.499862 235.499837 L 143.500285 219.49978 L 150.000146 203.499723 L 141.999601 233.499959 L 125.999544 259.999634 L 109.999487 278.499797 " transform="matrix(3.779528,0,0,3.779528,0,0)"/>
<path style="fill:none;stroke-width:2;stroke-linecap:butt;stroke-linejoin:miter;stroke:rgb(0%,0%,0%);stroke-opacity:1;stroke-miterlimit:4;" d="M 112.999821 235.499837 L 96.999764 227.99952 " transform="matrix(3.779528,0,0,3.779528,0,0)"/>
<path style="fill:none;stroke-width:2;stroke-linecap:butt;stroke-linejoin:miter;stroke:rgb(0%,0%,0%);stroke-opacity:1;stroke-miterlimit:4;" d="M 117.499805 223.499536 L 101.499748 221.499658 L 85.499691 209.999585 " transform="matrix(3.779528,0,0,3.779528,0,0)"/>
<path style="fill:none;stroke-width:2;stroke-linecap:butt;stroke-linejoin:miter;stroke:rgb(0%,0%,0%);stroke-opacity:1;stroke-miterlimit:4;" d="M 80.999707 210.499813 L 96.999764 238.500171 L 112.999821 254.500228 L 129.500106 246.499683 L 145.500163 220.500236 L 165.499976 208.499935 L 155.000358 224.499992 L 146.999813 228.499748 L 137.000423 243.999577 L 126.499772 259.500439 L 112.499593 275.500496 L 106.499959 289.499642 L 102.500203 305.499699 L 122.500016 325.99974 L 130.000334 322.500212 L 145.500163 322.500212 L 145.500163 326.499967 L 162.000448 326.499967 " transform="matrix(3.779528,0,0,3.779528,0,0)"/>
<path style="fill:none;stroke-width:2;stroke-linecap:butt;stroke-linejoin:miter;stroke:rgb(0%,0%,0%);stroke-opacity:1;stroke-miterlimit:4;" d="M 207.999707 264.000423 L 197.50009 247.500138 L 180.999805 231.500081 L 168.999504 221.499658 L 153.00048 223.000342 " transform="matrix(3.779528,0,0,3.779528,0,0)"/>
<path style="fill:none;stroke-width:2;stroke-linecap:butt;stroke-linejoin:miter;stroke:rgb(0%,0%,0%);stroke-opacity:1;stroke-miterlimit:4;" d="M 155.99978 225.500448 L 171.499609 227.500326 L 187.499666 232.999731 L 203.499723 257.000334 " transform="matrix(3.779528,0,0,3.779528,0,0)"/>
<path style="fill:none;stroke-width:2;stroke-linecap:butt;stroke-linejoin:miter;stroke:rgb(0%,0%,0%);stroke-opacity:1;stroke-miterlimit:4;" d="M 195.500212 257.999756 L 179.500155 246.000488 L 163.500098 237.999943 L 147.500041 227.99952 " transform="matrix(3.779528,0,0,3.779528,0,0)"/>
<path style="fill:none;stroke-width:2;stroke-linecap:butt;stroke-linejoin:miter;stroke:rgb(0%,0%,0%);stroke-opacity:1;stroke-miterlimit:4;" d="M 162.000448 238.500171 L 187.999894 254.500228 L 205.999829 270.000057 L 207.999707 286.000114 L 207.999707 301.499943 L 208.499935 316.999772 L 208.499935 333.500057 L 204.500179 350.000342 L 202.500301 366.499593 L 211.000041 382.49965 L 214.999797 398.999935 L 218.999552 431.000049 L 220.500236 446.499878 L 221.999886 461.999707 L 227.99952 477.999764 L 232.000309 493.499593 " transform="matrix(3.779528,0,0,3.779528,0,0)"/>
<path style="fill:none;stroke-width:2;stroke-linecap:butt;stroke-linejoin:miter;stroke:rgb(0%,0%,0%);stroke-opacity:1;stroke-miterlimit:4;" d="M 100.500326 320.999528 L 84.000041 323.000439 L 84.000041 316.999772 " transform="matrix(3.779528,0,0,3.779528,0,0)"/>
<path style="fill:none;stroke-width:2;stroke-linecap:butt;stroke-linejoin:miter;stroke:rgb(0%,0%,0%);stroke-opacity:1;stroke-miterlimit:4;" d="M 71.499512 324.50009 L 87.000374 310.49991 L 98.999642 314.499666 " transform="matrix(3.779528,0,0,3.779528,0,0)"/>
<path style="fill:none;stroke-width:2;stroke-linecap:butt;stroke-linejoin:miter;stroke:rgb(0%,0%,0%);stroke-opacity:1;stroke-miterlimit:4;" d="M 76.999951 334.000285 L 76.999951 365.500171 L 78.499601 381.500228 L 78.499601 398.000513 L 78.000407 413.999536 L 70.50009 429.999593 L 60.499666 445.99965 L 48.500399 468.000374 L 64.500456 440.500244 " transform="matrix(3.779528,0,0,3.779528,0,0)"/>
<path style="fill:none;stroke-width:2;stroke-linecap:butt;stroke-linejoin:miter;stroke:rgb(0%,0%,0%);stroke-opacity:1;stroke-miterlimit:4;" d="M 32.500342 275.999691 L 48.500399 237.999943 L 64.500456 209.500391 L 87.999797 191.000228 L 100.000098 184.999561 " transform="matrix(3.779528,0,0,3.779528,0,0)"/>
<path style="fill:none;stroke-width:2;stroke-linecap:butt;stroke-linejoin:miter;stroke:rgb(0%,0%,0%);stroke-opacity:1;stroke-miterlimit:4;" d="M 106.499959 180.999805 L 74.499845 185.499788 L 64.000228 201.499845 L 53.999805 217.499902 L 44.000415 234.000187 L 37.999748 250.000244 L 31.499886 266.000301 L 21.500496 281.50013 L 37.000326 247.500138 L 53.000382 215.500024 L 69.000439 189.499544 L 76.999951 173.999715 L 91.500358 190.5 L 84.000041 206.500057 L 94.499658 223.000342 L 106.499959 238.500171 L 120.500138 228.499748 L 112.999821 248.499561 " transform="matrix(3.779528,0,0,3.779528,0,0)"/>
<path style="fill:none;stroke-width:2;stroke-linecap:butt;stroke-linejoin:miter;stroke:rgb(0%,0%,0%);stroke-opacity:1;stroke-miterlimit:4;" d="M 130.499528 207.500513 L 126.499772 199.499967 L 110.499715 198.000317 L 94.499658 198.499512 " transform="matrix(3.779528,0,0,3.779528,0,0)"/>
<path style="fill:none;stroke-width:2;stroke-linecap:butt;stroke-linejoin:miter;stroke:rgb(0%,0%,0%);stroke-opacity:1;stroke-miterlimit:4;" d="M 76.999951 189.499544 L 66.999528 183.49991 L 51.000505 185.499788 L 35.000448 195.500212 L 19.000391 207.500513 L 3.000334 221.000464 L 19.000391 206.500057 L 38.499976 190.5 " transform="matrix(3.779528,0,0,3.779528,0,0)"/>
<path style="fill:none;stroke-width:2;stroke-linecap:butt;stroke-linejoin:miter;stroke:rgb(0%,0%,0%);stroke-opacity:1;stroke-miterlimit:4;" d="M 78.000407 187.499666 L 68.500212 203.499723 L 58.499788 219.49978 L 50.500277 236.000065 L 42.499731 252.000122 L 30.500464 284.000236 " transform="matrix(3.779528,0,0,3.779528,0,0)"/>
<path style="fill:none;stroke-width:2;stroke-linecap:butt;stroke-linejoin:miter;stroke:rgb(0%,0%,0%);stroke-opacity:1;stroke-miterlimit:4;" d="M 1.000456 155.499552 L 17.000513 157.500464 L 32.999536 157.999658 L 49.499821 160.499764 L 66.000106 160.499764 L 82.500391 155.000358 " transform="matrix(3.779528,0,0,3.779528,0,0)"/>
<path style="fill:none;stroke-width:2;stroke-linecap:butt;stroke-linejoin:miter;stroke:rgb(0%,0%,0%);stroke-opacity:1;stroke-miterlimit:4;" d="M 119.99991 170.500187 L 135.999967 180.499577 L 152.000024 196.499634 L 168.000081 209.999585 L 183.49991 215.500024 L 199.499967 239.499593 " transform="matrix(3.779528,0,0,3.779528,0,0)"/>
<path style="fill:none;stroke-width:2;stroke-linecap:butt;stroke-linejoin:miter;stroke:rgb(0%,0%,0%);stroke-opacity:1;stroke-miterlimit:4;" d="M 205.999829 251.499894 L 196.000439 235.499837 L 187.499666 219.49978 L 163.500098 213.500146 " transform="matrix(3.779528,0,0,3.779528,0,0)"/>
<path style="fill:none;stroke-width:2;stroke-linecap:butt;stroke-linejoin:miter;stroke:rgb(0%,0%,0%);stroke-opacity:1;stroke-miterlimit:4;" d="M 139.999723 193.000106 L 123.999666 182.500488 " transform="matrix(3.779528,0,0,3.779528,0,0)"/>
<path style="fill:none;stroke-width:2;stroke-linecap:butt;stroke-linejoin:miter;stroke:rgb(0%,0%,0%);stroke-opacity:1;stroke-miterlimit:4;" d="M 82.000163 148.500496 L 66.000106 152.500252 L 50.000049 152.000024 L 33.999992 150.000146 L 17.499707 150.000146 L 1.49965 152.000024 " transform="matrix(3.779528,0,0,3.779528,0,0)"/>
<path style="fill:none;stroke-width:2;stroke-linecap:butt;stroke-linejoin:miter;stroke:rgb(0%,0%,0%);stroke-opacity:1;stroke-miterlimit:4;" d="M 1.999878 107.000187 L 17.999935 110.999943 L 33.999992 115.499927 L 49.499821 123.500472 L 65.499878 130.000334 L 80.999707 137.999845 " transform="matrix(3.779528,0,0,3.779528,0,0)"/>
<path style="fill:none;stroke-width:2;stroke-linecap:butt;stroke-linejoin:miter;stroke:rgb(0%,0%,0%);stroke-opacity:1;stroke-miterlimit:4;" d="M 90.499902 108.499837 L 84.500269 92.49978 " transform="matrix(3.779528,0,0,3.779528,0,0)"/>
<path style="fill:none;stroke-width:2;stroke-linecap:butt;stroke-linejoin:miter;stroke:rgb(0%,0%,0%);stroke-opacity:1;stroke-miterlimit:4;" d="M 92.49978 85.000496 L 108.499837 88.500024 L 114.999699 114.500505 L 123.500472 122.500016 L 139.499495 108.499837 L 155.499552 98.500448 L 171.999837 90.499902 L 187.999894 80.500513 " transform="matrix(3.779528,0,0,3.779528,0,0)"/>
<path style="fill:none;stroke-width:2;stroke-linecap:butt;stroke-linejoin:miter;stroke:rgb(0%,0%,0%);stroke-opacity:1;stroke-miterlimit:4;" d="M 187.499666 74.499845 L 159.500342 90.499902 L 133.499862 106.499959 L 111.500171 126.499772 L 127.500228 112.499593 L 143.500285 100.000098 L 159.999536 89.999674 L 175.999593 80.000285 L 204.500179 78.000407 L 220.500236 85.999919 L 236.999487 91.500358 L 252.999544 95.500114 L 268.999601 85.499691 L 284.500464 75.500301 L 298.000415 64.99965 L 314.000472 66.999528 L 329.999495 69.000439 L 377.999666 82.500391 L 393.999723 88.500024 L 409.99978 94.000464 L 427.999715 109.500293 L 432.000505 105.499504 L 445.500456 115.499927 " transform="matrix(3.779528,0,0,3.779528,0,0)"/>
<path style="fill:none;stroke-width:2;stroke-linecap:butt;stroke-linejoin:miter;stroke:rgb(0%,0%,0%);stroke-opacity:1;stroke-miterlimit:4;" d="M 472.00013 113.500049 L 484.000431 107.000187 L 500.000488 91.500358 " transform="matrix(3.779528,0,0,3.779528,0,0)"/>
<path style="fill:none;stroke-width:2;stroke-linecap:butt;stroke-linejoin:miter;stroke:rgb(0%,0%,0%);stroke-opacity:1;stroke-miterlimit:4;" d="M 471.499902 132.500439 L 481.500326 138.500073 L 495.500505 154.50013 L 507.499772 170.500187 " transform="matrix(3.779528,0,0,3.779528,0,0)"/>
<path style="fill:none;stroke-width:2;stroke-linecap:butt;stroke-linejoin:miter;stroke:rgb(0%,0%,0%);stroke-opacity:1;stroke-miterlimit:4;" d="M 477.000342 144.000513 L 477.000342 159.500342 L 481.500326 175.500399 L 481.99952 191.500456 L 492.500171 199.499967 L 496.499927 216.000252 L 502.999788 232.000309 L 513.000212 248.000366 L 498.499805 266.000301 L 500.499683 282.000358 L 500.499683 329.999495 L 496.499927 345.999552 L 474.500236 355.999976 L 476.500114 372.000033 L 479.999642 388.00009 L 481.99952 403.499919 L 484.000431 419.499976 L 484.000431 484.000431 " transform="matrix(3.779528,0,0,3.779528,0,0)"/>
<path style="fill:none;stroke-width:2;stroke-linecap:butt;stroke-linejoin:miter;stroke:rgb(0%,0%,0%);stroke-opacity:1;stroke-miterlimit:4;" d="M 469.500024 325.499512 L 452.99974 319.499878 L 436.999683 311.500366 L 420.999626 303.499821 L 405.499797 295.500309 L 389.999967 283.500008 L 384.000334 277.500374 L 373.99991 279.500252 L 370.500382 273.499585 L 379.000122 257.999756 L 371.499805 271.999935 L 351.499992 255.999878 L 339.999919 239.999821 L 325.499512 223.999764 L 311.500366 207.999707 L 295.000081 191.99965 L 284.500464 175.500399 L 275.999691 159.500342 L 264.000423 143.500285 L 253.499772 127.500228 L 247.500138 111.500171 L 259.500439 121.499561 L 257.499528 117.499805 " transform="matrix(3.779528,0,0,3.779528,0,0)"/>
<path style="fill:none;stroke-width:2;stroke-linecap:butt;stroke-linejoin:miter;stroke:rgb(0%,0%,0%);stroke-opacity:1;stroke-miterlimit:4;" d="M 263.500195 141.000179 L 279.500252 162.99987 " transform="matrix(3.779528,0,0,3.779528,0,0)"/>
<path style="fill:none;stroke-width:2;stroke-linecap:butt;stroke-linejoin:miter;stroke:rgb(0%,0%,0%);stroke-opacity:1;stroke-miterlimit:4;" d="M 247.500138 175.000171 L 285.499886 191.000228 L 303.499821 207.500513 L 317.5 223.499536 L 329.500301 239.999821 L 343.50048 255.999878 L 355.499748 271.999935 L 361.500415 287.499764 L 359.499504 303.499821 L 357.499626 320.000106 L 361.500415 336.000163 L 357.499626 352.00022 L 354.000098 368.000277 L 350.000342 384.000334 L 341.999797 400.499585 L 327.999618 416.499642 L 307.999805 432.499699 L 288.50022 447.999528 L 268.500407 463.999585 L 250.500472 479.500448 L 248.000366 502.000366 L 234.000187 509.999878 L 243.999577 508 L 252.50035 486.000309 L 268.500407 472.500358 L 284.500464 459.999829 L 300.499487 446.499878 L 316.999772 434.499577 L 332.499601 422.999504 L 348.499658 410.500008 L 352.500448 400.499585 " transform="matrix(3.779528,0,0,3.779528,0,0)"/>
<path style="fill:none;stroke-width:2;stroke-linecap:butt;stroke-linejoin:miter;stroke:rgb(0%,0%,0%);stroke-opacity:1;stroke-miterlimit:4;" d="M 387.499862 280.00048 L 395.000179 264.499618 L 398.999935 248.499561 L 409.000358 232.499504 L 398.499707 216.50048 " transform="matrix(3.779528,0,0,3.779528,0,0)"/>
<path style="fill:none;stroke-width:2;stroke-linecap:butt;stroke-linejoin:miter;stroke:rgb(0%,0%,0%);stroke-opacity:1;stroke-miterlimit:4;" d="M 413.000114 206.500057 L 395.000179 216.000252 L 384.999756 239.999821 L 391.000423 223.999764 L 404.999569 220.000008 L 388.999512 214.000374 L 375.000366 249.500016 L 359.000309 265.500073 L 343.50048 245.50026 L 327.000195 225.999642 L 316.999772 214.000374 L 300.999715 198.000317 L 284.999658 191.99965 L 268.999601 184.000138 L 252.999544 178.499699 L 236.999487 172.500065 L 221.000464 168.500309 L 189.499544 168.500309 L 173.499487 166.500431 L 157.999658 166.000203 L 142.499829 164.000326 L 127 164.000326 L 119.000488 153.999902 L 105.000309 153.999902 L 87.000374 168.500309 L 71.000317 172.500065 L 62.999772 172.500065 L 52.500155 175.999593 L 36.500098 187.999894 L 19.999813 200.000195 L 3.999756 213.500146 L 17.499707 201.499845 L 37.49952 185.499788 L 55.00026 169.499731 L 70.50009 161.50022 L 86.500146 143.500285 L 102.500203 139.499495 L 119.000488 130.000334 L 130.999756 114.500505 L 155.499552 98.500448 L 183.49991 82.500391 L 186.000016 69.000439 L 169.999959 73.000195 L 154.50013 73.000195 L 137.999845 69.000439 L 121.999788 60.999894 " transform="matrix(3.779528,0,0,3.779528,0,0)"/>
<path style="fill:none;stroke-width:2;stroke-linecap:butt;stroke-linejoin:miter;stroke:rgb(0%,0%,0%);stroke-opacity:1;stroke-miterlimit:4;" d="M 121.000366 73.000195 L 116.500382 89.000252 L 112.999821 105.000309 L 110.499715 121.000366 L 116.500382 130.499528 L 114.000277 148.500496 L 112.499593 158.499886 L 103.000431 159.999536 L 87.499569 182.00026 L 79.500057 197.50009 L 81.499935 214.000374 L 89.50048 230.000431 L 103.499626 246.000488 L 119.000488 257.999756 L 104.500081 273.499585 L 100.000098 289.99987 L 95.500114 305.999927 L 73.500423 316.499544 L 66.999528 332.999829 L 68.500212 348.999886 L 68.500212 364.999943 L 70.50009 380.499772 L 71.000317 396.499829 L 71.499512 412.499886 L 55.500488 444.5 L 46.000293 460.500057 L 50.000049 464.499813 L 44.000415 476.500114 L 50.000049 481.000098 L 50.000049 472.999552 L 66.000106 462.499935 " transform="matrix(3.779528,0,0,3.779528,0,0)"/>
<path style="fill:none;stroke-width:2;stroke-linecap:butt;stroke-linejoin:miter;stroke:rgb(0%,0%,0%);stroke-opacity:1;stroke-miterlimit:4;" d="M 177.000049 223.499536 L 159.500342 212.000496 L 134.00009 225.999642 L 128.000456 236.000065 L 137.999845 219.49978 L 146.000391 203.999951 L 141.999601 187.999894 L 130.499528 188.500122 L 132.500439 178.499699 L 122.500016 162.499642 L 124.499894 144.499707 L 144.499707 130.499528 L 174.499943 120.500138 " transform="matrix(3.779528,0,0,3.779528,0,0)"/>
<path style="fill:none;stroke-width:2;stroke-linecap:butt;stroke-linejoin:miter;stroke:rgb(0%,0%,0%);stroke-opacity:1;stroke-miterlimit:4;" d="M 148.000269 91.500358 L 131.499984 84.000041 L 114.999699 87.499569 " transform="matrix(3.779528,0,0,3.779528,0,0)"/>
<path style="fill:none;stroke-width:2;stroke-linecap:butt;stroke-linejoin:miter;stroke:rgb(0%,0%,0%);stroke-opacity:1;stroke-miterlimit:4;" d="M 123.999666 73.999618 L 141.500407 89.999674 " transform="matrix(3.779528,0,0,3.779528,0,0)"/>
<path style="fill:none;stroke-width:2;stroke-linecap:butt;stroke-linejoin:miter;stroke:rgb(0%,0%,0%);stroke-opacity:1;stroke-miterlimit:4;" d="M 150.500374 87.499569 L 134.00009 76.999951 L 118.000033 73.000195 L 101.999976 77.500179 L 85.999919 81.499935 " transform="matrix(3.779528,0,0,3.779528,0,0)"/>
<path style="fill:none;stroke-width:2;stroke-linecap:butt;stroke-linejoin:miter;stroke:rgb(0%,0%,0%);stroke-opacity:1;stroke-miterlimit:4;" d="M 82.500391 66.999528 L 98.500448 66.999528 L 114.500505 62.999772 L 142.499829 85.499691 " transform="matrix(3.779528,0,0,3.779528,0,0)"/>
<path style="fill:none;stroke-width:2;stroke-linecap:butt;stroke-linejoin:miter;stroke:rgb(0%,0%,0%);stroke-opacity:1;stroke-miterlimit:4;" d="M 198.99974 78.499601 L 236.999487 94.499658 " transform="matrix(3.779528,0,0,3.779528,0,0)"/>
<path style="fill:none;stroke-width:2;stroke-linecap:butt;stroke-linejoin:miter;stroke:rgb(0%,0%,0%);stroke-opacity:1;stroke-miterlimit:4;" d="M 264.999845 88.500024 L 289.000448 72.499967 " transform="matrix(3.779528,0,0,3.779528,0,0)"/>
<path style="fill:none;stroke-width:2;stroke-linecap:butt;stroke-linejoin:miter;stroke:rgb(0%,0%,0%);stroke-opacity:1;stroke-miterlimit:4;" d="M 273.499585 75.500301 L 283.500008 59.500244 L 311.999561 42.999959 L 342.500024 26.999902 L 366.499593 21.000269 L 346.49978 30.999658 L 330.499723 39.500431 L 314.499666 49.499821 L 298.499609 55.500488 " transform="matrix(3.779528,0,0,3.779528,0,0)"/>
<path style="fill:none;stroke-width:2;stroke-linecap:butt;stroke-linejoin:miter;stroke:rgb(0%,0%,0%);stroke-opacity:1;stroke-miterlimit:4;" d="M 348.000464 28.99978 L 320.000106 45.500065 L 298.000415 61.500122 L 314.000472 61.500122 L 329.999495 65.499878 L 345.999552 67.499756 L 361.999609 71.499512 L 378.499894 75.500301 L 394.499951 81.499935 L 411.000236 87.499569 L 427.000293 94.000464 L 443.00035 99.49987 L 459.000407 95.500114 L 461.000285 118.000033 L 466.999919 130.499528 " transform="matrix(3.779528,0,0,3.779528,0,0)"/>
<path style="fill:none;stroke-width:2;stroke-linecap:butt;stroke-linejoin:miter;stroke:rgb(0%,0%,0%);stroke-opacity:1;stroke-miterlimit:4;" d="M 463.500391 147.500041 L 465.500269 163.500098 L 466.000496 179.500155 L 466.000496 196.000439 L 463.500391 212.000496 L 479.500448 225.999642 L 502.000366 243.999577 " transform="matrix(3.779528,0,0,3.779528,0,0)"/>
<path style="fill:none;stroke-width:2;stroke-linecap:butt;stroke-linejoin:miter;stroke:rgb(0%,0%,0%);stroke-opacity:1;stroke-miterlimit:4;" d="M 497.000155 253.499772 L 475.000464 237.999943 " transform="matrix(3.779528,0,0,3.779528,0,0)"/>
<path style="fill:none;stroke-width:2;stroke-linecap:butt;stroke-linejoin:miter;stroke:rgb(0%,0%,0%);stroke-opacity:1;stroke-miterlimit:4;" d="M 439.499788 143.500285 L 452.000317 131.499984 L 441.999894 125.50035 L 426.500065 119.000488 L 411.000236 119.000488 L 395.000179 117.499805 L 379.000122 119.99991 L 363.000065 119.99991 L 347.000008 125.50035 L 314.499666 125.50035 L 298.000415 127 L 282.000358 129.500106 L 266.000301 131.499984 L 250.000244 119.499683 L 239.999821 114.000277 L 224.499992 116.000155 L 208.499935 118.000033 L 176.499821 125.999544 L 159.999536 130.000334 L 143.500285 141.999601 L 127.500228 153.999902 L 137.499618 137.999845 L 121.499561 146.000391 L 105.499504 143.500285 L 94.999886 128.000456 L 91.00013 141.999601 L 94.999886 130.000334 L 87.499569 123.500472 L 83.499813 107.500415 L 79.500057 91.999552 L 82.000163 84.000041 L 66.000106 85.999919 L 50.000049 89.50048 L 33.999992 95.500114 L 17.999935 99.49987 L 1.999878 101.499748 " transform="matrix(3.779528,0,0,3.779528,0,0)"/>
<path style="fill:none;stroke-width:2;stroke-linecap:butt;stroke-linejoin:miter;stroke:rgb(0%,0%,0%);stroke-opacity:1;stroke-miterlimit:4;" d="M 2.500106 92.49978 L 18.500163 88.500024 L 34.50022 78.000407 L 50.500277 71.99974 L 48.500399 71.99974 L 40.499854 80.000285 L 55.999683 73.999618 L 73.999618 63.5 L 89.999674 61.500122 L 105.999731 60.000472 L 121.999788 55.999683 L 137.999845 64.000228 L 153.999902 66.000106 L 169.999959 66.000106 L 187.999894 73.999618 L 209.500391 75.999495 L 225.999642 84.000041 L 241.999699 89.50048 L 257.999756 85.499691 L 274.500041 75.000073 L 288.50022 59.000016 L 304.000049 46.999715 L 320.000106 39.500431 L 336.000163 31.499886 L 352.00022 21.500496 L 368.000277 17.499707 L 384.000334 15.499829 L 400.499585 14.000179 L 416.499642 14.500407 L 432.499699 10.499618 L 447.999528 12.499495 L 464.499813 16.000057 L 479.999642 17.999935 L 495.500505 19.999813 " transform="matrix(3.779528,0,0,3.779528,0,0)"/>
<path style="fill:none;stroke-width:2;stroke-linecap:butt;stroke-linejoin:miter;stroke:rgb(0%,0%,0%);stroke-opacity:1;stroke-miterlimit:4;" d="M 493.999821 29.500008 L 490.000065 45.500065 L 486.000309 62.00035 L 479.999642 78.000407 L 488.000187 91.500358 L 510.500106 83.499813 " transform="matrix(3.779528,0,0,3.779528,0,0)"/>
<path style="fill:none;stroke-width:2;stroke-linecap:butt;stroke-linejoin:miter;stroke:rgb(0%,0%,0%);stroke-opacity:1;stroke-miterlimit:4;" d="M 420.000203 103.999854 L 393.999723 87.999797 " transform="matrix(3.779528,0,0,3.779528,0,0)"/>
<path style="fill:none;stroke-width:2;stroke-linecap:butt;stroke-linejoin:miter;stroke:rgb(0%,0%,0%);stroke-opacity:1;stroke-miterlimit:4;" d="M 378.499894 78.499601 L 416.99987 94.499658 L 431.000049 106.499959 L 432.999927 123.999666 L 427.000293 139.999723 L 407.00048 155.499552 L 393.000301 171.499609 L 388.999512 187.000472 L 391.499618 202.999495 L 387.499862 218.999552 L 381.500228 235.499837 L 371.499805 257.499528 L 377.500472 269.499829 L 381.500228 273.999813 L 395.000179 290.500098 L 395.000179 300.499487 L 393.000301 302.999593 L 397.500285 309.00026 L 413.500342 313.000016 " transform="matrix(3.779528,0,0,3.779528,0,0)"/>
<path style="fill:none;stroke-width:2;stroke-linecap:butt;stroke-linejoin:miter;stroke:rgb(0%,0%,0%);stroke-opacity:1;stroke-miterlimit:4;" d="M 230.499626 86.500146 L 204.500179 71.000317 " transform="matrix(3.779528,0,0,3.779528,0,0)"/>
<path style="fill:none;stroke-width:2;stroke-linecap:butt;stroke-linejoin:miter;stroke:rgb(0%,0%,0%);stroke-opacity:1;stroke-miterlimit:4;" d="M 80.000285 89.000252 L 64.000228 93.000008 L 48.000171 97.499992 L 32.000114 105.499504 L 58.499788 93.500236 " transform="matrix(3.779528,0,0,3.779528,0,0)"/>
<path style="fill:none;stroke-width:2;stroke-linecap:butt;stroke-linejoin:miter;stroke:rgb(0%,0%,0%);stroke-opacity:1;stroke-miterlimit:4;" d="M 53.499577 88.500024 L 27.50013 110.499715 L 64.99965 126.499772 " transform="matrix(3.779528,0,0,3.779528,0,0)"/>
<path style="fill:none;stroke-width:2;stroke-linecap:butt;stroke-linejoin:miter;stroke:rgb(0%,0%,0%);stroke-opacity:1;stroke-miterlimit:4;" d="M 17.499707 84.000041 L 1.49965 85.999919 " transform="matrix(3.779528,0,0,3.779528,0,0)"/>
</g>
</svg>
