<?xml version="1.0" encoding="UTF-8"?>
<svg xmlns="http://www.w3.org/2000/svg" xmlns:xlink="http://www.w3.org/1999/xlink" width="1935.11811" height="1935.11811" viewBox="0 0 1935.11811 1935.11811" version="1.1">
<g id="surface1">
<path style="fill:none;stroke-width:2;stroke-linecap:butt;stroke-linejoin:miter;stroke:rgb(0%,0%,0%);stroke-opacity:1;stroke-miterlimit:4;" d="M 399.500163 56.49991 L 369.499927 72.499967 L 355.499748 88.500024 L 347.500236 104.500081 L 343.50048 121.000366 L 341.499569 137.000423 L 347.500236 155.000358 L 341.499569 171.000415 L 343.000252 187.000472 L 347.000008 202.500301 L 358.500081 218.500358 L 370.999577 234.500415 " transform="matrix(3.779528,0,0,3.779528,0,0)"/>
<path style="fill:none;stroke-width:2;stroke-linecap:butt;stroke-linejoin:miter;stroke:rgb(0%,0%,0%);stroke-opacity:1;stroke-miterlimit:4;" d="M 384.000334 225.500448 L 407.999902 209.999585 L 417.500098 193.999528 L 411.500464 205.999829 L 395.999601 218.00013 L 379.999544 233.499959 L 363.500293 221.499658 L 347.500236 199.499967 " transform="matrix(3.779528,0,0,3.779528,0,0)"/>
<path style="fill:none;stroke-width:2;stroke-linecap:butt;stroke-linejoin:miter;stroke:rgb(0%,0%,0%);stroke-opacity:1;stroke-miterlimit:4;" d="M 340.500146 174.499943 L 354.500326 134.500317 L 370.500382 128.49965 L 386.500439 120.500138 L 402.500496 114.500505 L 418.49952 110.499715 L 434.000382 105.999731 " transform="matrix(3.779528,0,0,3.779528,0,0)"/>
<path style="fill:none;stroke-width:2;stroke-linecap:butt;stroke-linejoin:miter;stroke:rgb(0%,0%,0%);stroke-opacity:1;stroke-miterlimit:4;" d="M 432.999927 112.000399 L 415.50022 128.000456 L 413.000114 143.500285 L 421.499854 155.499552 L 441.499666 163.500098 L 450.000439 175.500399 L 436.00026 187.499666 L 434.499577 203.999951 L 436.500488 230.000431 L 432.999927 248.499561 L 434.999805 266.499495 L 418.999748 282.499552 L 379.000122 306.500155 L 364.999943 321.999984 L 357.000431 338.000041 L 359.000309 353.49987 L 363.000065 363.999487 L 348.999886 379.999544 L 347.000008 396.499829 L 329.500301 404.500374 L 347.500236 408.50013 L 332.999829 418.49952 L 336.999585 434.499577 L 334.500513 450.000439 L 334.000285 466.000496 L 327.999618 489.499837 L 325.499512 505.499894 L 329.500301 471.499902 L 355.499748 463.500391 L 367.500049 465.000041 L 383.500106 454.999618 L 403.499919 472.999552 L 420.000203 482.999976 L 436.00026 489.499837 L 452.499512 484.000431 " transform="matrix(3.779528,0,0,3.779528,0,0)"/>
<path style="fill:none;stroke-width:2;stroke-linecap:butt;stroke-linejoin:miter;stroke:rgb(0%,0%,0%);stroke-opacity:1;stroke-miterlimit:4;" d="M 432.999927 506.000122 L 426.500065 491.999943 L 411.000236 495.500505 " transform="matrix(3.779528,0,0,3.779528,0,0)"/>
<path style="fill:none;stroke-width:2;stroke-linecap:butt;stroke-linejoin:miter;stroke:rgb(0%,0%,0%);stroke-opacity:1;stroke-miterlimit:4;" d="M 432.000505 508 L 407.999902 506.000122 L 416.499642 491.999943 L 404.500374 476.500114 L 394.499951 460.500057 L 392.500073 444.5 L 394.499951 428.499943 L 398.999935 412.499886 L 375.000366 412.499886 " transform="matrix(3.779528,0,0,3.779528,0,0)"/>
<path style="fill:none;stroke-width:2;stroke-linecap:butt;stroke-linejoin:miter;stroke:rgb(0%,0%,0%);stroke-opacity:1;stroke-miterlimit:4;" d="M 372.50026 399.500163 L 355.999976 413.500342 " transform="matrix(3.779528,0,0,3.779528,0,0)"/>
<path style="fill:none;stroke-width:2;stroke-linecap:butt;stroke-linejoin:miter;stroke:rgb(0%,0%,0%);stroke-opacity:1;stroke-miterlimit:4;" d="M 355.999976 403.499919 L 345.999552 405.499797 L 351.499992 397.500285 L 350.499536 381.500228 " transform="matrix(3.779528,0,0,3.779528,0,0)"/>
<path style="fill:none;stroke-width:2;stroke-linecap:butt;stroke-linejoin:miter;stroke:rgb(0%,0%,0%);stroke-opacity:1;stroke-miterlimit:4;" d="M 366.499593 374.500138 L 366.999821 368.500505 L 373.000488 384.499528 L 370.999577 400.499585 L 355.499748 416.000448 L 359.499504 431.500277 L 351.499992 447.000106 L 355.499748 463.000163 L 343.50048 468.999797 L 347.500236 484.499626 L 341.999797 496.499927 L 343.999674 504.500472 " transform="matrix(3.779528,0,0,3.779528,0,0)"/>
<path style="fill:none;stroke-width:2;stroke-linecap:butt;stroke-linejoin:miter;stroke:rgb(0%,0%,0%);stroke-opacity:1;stroke-miterlimit:4;" d="M 339.000496 502.499561 L 354.500326 500.499683 " transform="matrix(3.779528,0,0,3.779528,0,0)"/>
<path style="fill:none;stroke-width:2;stroke-linecap:butt;stroke-linejoin:miter;stroke:rgb(0%,0%,0%);stroke-opacity:1;stroke-miterlimit:4;" d="M 373.000488 505.499894 L 375.000366 488.999609 L 368.999699 472.500358 L 362.499837 470.50048 " transform="matrix(3.779528,0,0,3.779528,0,0)"/>
<path style="fill:none;stroke-width:2;stroke-linecap:butt;stroke-linejoin:miter;stroke:rgb(0%,0%,0%);stroke-opacity:1;stroke-miterlimit:4;" d="M 388.00009 457.999951 L 384.000334 474.000008 L 379.999544 490.000065 L 377.999666 506.50035 " transform="matrix(3.779528,0,0,3.779528,0,0)"/>
<path style="fill:none;stroke-width:2;stroke-linecap:butt;stroke-linejoin:miter;stroke:rgb(0%,0%,0%);stroke-opacity:1;stroke-miterlimit:4;" d="M 318.99965 496.499927 L 331.500179 481.000098 L 339.499691 465.000041 L 341.499569 448.999984 L 345.500358 427.000293 L 339.999919 427.000293 L 339.999919 422.999504 " transform="matrix(3.779528,0,0,3.779528,0,0)"/>
<path style="fill:none;stroke-width:2;stroke-linecap:butt;stroke-linejoin:miter;stroke:rgb(0%,0%,0%);stroke-opacity:1;stroke-miterlimit:4;" d="M 334.500513 424.500187 L 354.500326 440.500244 L 368.500505 436.500488 " transform="matrix(3.779528,0,0,3.779528,0,0)"/>
<path style="fill:none;stroke-width:2;stroke-linecap:butt;stroke-linejoin:miter;stroke:rgb(0%,0%,0%);stroke-opacity:1;stroke-miterlimit:4;" d="M 399.500163 418.49952 L 423.499731 434.499577 " transform="matrix(3.779528,0,0,3.779528,0,0)"/>
<path style="fill:none;stroke-width:2;stroke-linecap:butt;stroke-linejoin:miter;stroke:rgb(0%,0%,0%);stroke-opacity:1;stroke-miterlimit:4;" d="M 413.000114 413.500342 L 429.000171 425.499609 L 444.5 432.000505 L 460.500057 436.00026 L 486.499504 432.000505 " transform="matrix(3.779528,0,0,3.779528,0,0)"/>
<path style="fill:none;stroke-width:2;stroke-linecap:butt;stroke-linejoin:miter;stroke:rgb(0%,0%,0%);stroke-opacity:1;stroke-miterlimit:4;" d="M 495.500505 413.999536 L 479.500448 404.000146 " transform="matrix(3.779528,0,0,3.779528,0,0)"/>
<path style="fill:none;stroke-width:2;stroke-linecap:butt;stroke-linejoin:miter;stroke:rgb(0%,0%,0%);stroke-opacity:1;stroke-miterlimit:4;" d="M 466.499691 398.499707 L 482.499748 400.499585 L 498.499805 402.000269 " transform="matrix(3.779528,0,0,3.779528,0,0)"/>
<path style="fill:none;stroke-width:2;stroke-linecap:butt;stroke-linejoin:miter;stroke:rgb(0%,0%,0%);stroke-opacity:1;stroke-miterlimit:4;" d="M 507.499772 390.500195 L 499.50026 386.500439 L 497.500382 389.999967 L 507.499772 373.000488 L 509.49965 359.000309 " transform="matrix(3.779528,0,0,3.779528,0,0)"/>
<path style="fill:none;stroke-width:2;stroke-linecap:butt;stroke-linejoin:miter;stroke:rgb(0%,0%,0%);stroke-opacity:1;stroke-miterlimit:4;" d="M 509.999878 299.500065 L 493.999821 291.000326 L 477.999764 277.000146 " transform="matrix(3.779528,0,0,3.779528,0,0)"/>
<path style="fill:none;stroke-width:2;stroke-linecap:butt;stroke-linejoin:miter;stroke:rgb(0%,0%,0%);stroke-opacity:1;stroke-miterlimit:4;" d="M 481.000098 255.49965 L 497.000155 265.500073 " transform="matrix(3.779528,0,0,3.779528,0,0)"/>
<path style="fill:none;stroke-width:2;stroke-linecap:butt;stroke-linejoin:miter;stroke:rgb(0%,0%,0%);stroke-opacity:1;stroke-miterlimit:4;" d="M 508.500228 270.500285 L 488.500415 255.000456 " transform="matrix(3.779528,0,0,3.779528,0,0)"/>
<path style="fill:none;stroke-width:2;stroke-linecap:butt;stroke-linejoin:miter;stroke:rgb(0%,0%,0%);stroke-opacity:1;stroke-miterlimit:4;" d="M 481.500326 253.499772 L 497.500382 269.499829 L 501.500138 285.499886 L 499.50026 293.000203 L 507.499772 309.00026 L 507.499772 322.500212 " transform="matrix(3.779528,0,0,3.779528,0,0)"/>
<path style="fill:none;stroke-width:2;stroke-linecap:butt;stroke-linejoin:miter;stroke:rgb(0%,0%,0%);stroke-opacity:1;stroke-miterlimit:4;" d="M 475.499658 316.00035 L 459.999829 298.000415 " transform="matrix(3.779528,0,0,3.779528,0,0)"/>
<path style="fill:none;stroke-width:2;stroke-linecap:butt;stroke-linejoin:miter;stroke:rgb(0%,0%,0%);stroke-opacity:1;stroke-miterlimit:4;" d="M 466.999919 302.500399 L 463.000163 318.500456 L 479.00022 332.000407 " transform="matrix(3.779528,0,0,3.779528,0,0)"/>
<path style="fill:none;stroke-width:2;stroke-linecap:butt;stroke-linejoin:miter;stroke:rgb(0%,0%,0%);stroke-opacity:1;stroke-miterlimit:4;" d="M 468.000374 307.999805 L 473.49978 323.999862 L 481.99952 326.499967 L 488.000187 336.500391 L 488.500415 352.00022 L 488.500415 367.500049 L 484.999854 384.000334 L 488.999609 404.000146 L 472.999552 416.000448 L 481.000098 432.000505 L 475.000464 457.999951 L 477.000342 473.49978 L 477.000342 488.999609 L 484.999854 497.000155 L 500.99991 495.000277 " transform="matrix(3.779528,0,0,3.779528,0,0)"/>
<path style="fill:none;stroke-width:2;stroke-linecap:butt;stroke-linejoin:miter;stroke:rgb(0%,0%,0%);stroke-opacity:1;stroke-miterlimit:4;" d="M 502.999788 439.499788 L 468.999797 439.499788 L 463.000163 422.000081 L 459.499601 416.000448 " transform="matrix(3.779528,0,0,3.779528,0,0)"/>
<path style="fill:none;stroke-width:2;stroke-linecap:butt;stroke-linejoin:miter;stroke:rgb(0%,0%,0%);stroke-opacity:1;stroke-miterlimit:4;" d="M 447.999528 411.500464 L 443.999772 399.500163 L 444.5 398.999935 " transform="matrix(3.779528,0,0,3.779528,0,0)"/>
<path style="fill:none;stroke-width:2;stroke-linecap:butt;stroke-linejoin:miter;stroke:rgb(0%,0%,0%);stroke-opacity:1;stroke-miterlimit:4;" d="M 418.49952 394.499951 L 409.000358 410.500008 L 425.000415 426.500065 " transform="matrix(3.779528,0,0,3.779528,0,0)"/>
<path style="fill:none;stroke-width:2;stroke-linecap:butt;stroke-linejoin:miter;stroke:rgb(0%,0%,0%);stroke-opacity:1;stroke-miterlimit:4;" d="M 411.000236 409.99978 L 427.000293 395.500407 L 443.00035 397.500285 L 459.000407 393.999723 L 468.999797 406.500252 L 477.000342 418.49952 L 493.000399 418.49952 L 508.500228 420.500431 " transform="matrix(3.779528,0,0,3.779528,0,0)"/>
<path style="fill:none;stroke-width:2;stroke-linecap:butt;stroke-linejoin:miter;stroke:rgb(0%,0%,0%);stroke-opacity:1;stroke-miterlimit:4;" d="M 443.999772 353.49987 L 447.999528 343.000252 L 456.500301 333.500057 L 452.499512 317.5 L 444.5 302.000171 L 426.500065 286.500342 L 438.500366 270.500285 L 464.499813 254 L 486.499504 232.000309 L 476.500114 225.999642 L 463.999585 223.999764 L 482.499748 220.000008 L 474.500236 213.500146 L 459.000407 225.500448 L 443.00035 230.000431 L 427.000293 234.000187 " transform="matrix(3.779528,0,0,3.779528,0,0)"/>
<path style="fill:none;stroke-width:2;stroke-linecap:butt;stroke-linejoin:miter;stroke:rgb(0%,0%,0%);stroke-opacity:1;stroke-miterlimit:4;" d="M 429.000171 237.499715 L 461.000285 233.499959 L 476.500114 231.500081 " transform="matrix(3.779528,0,0,3.779528,0,0)"/>
<path style="fill:none;stroke-width:2;stroke-linecap:butt;stroke-linejoin:miter;stroke:rgb(0%,0%,0%);stroke-opacity:1;stroke-miterlimit:4;" d="M 477.999764 253.499772 L 493.999821 257.499528 L 509.999878 269.499829 " transform="matrix(3.779528,0,0,3.779528,0,0)"/>
<path style="fill:none;stroke-width:2;stroke-linecap:butt;stroke-linejoin:miter;stroke:rgb(0%,0%,0%);stroke-opacity:1;stroke-miterlimit:4;" d="M 500.499683 302.500399 L 500.000488 280.499674 L 483.500203 268.500407 L 467.500146 264.499618 L 452.000317 266.000301 L 436.00026 272.500163 " transform="matrix(3.779528,0,0,3.779528,0,0)"/>
<path style="fill:none;stroke-width:2;stroke-linecap:butt;stroke-linejoin:miter;stroke:rgb(0%,0%,0%);stroke-opacity:1;stroke-miterlimit:4;" d="M 433.500155 266.000301 L 449.500212 261.999512 L 465.500269 254.500228 L 481.500326 248.499561 L 497.999577 245.000033 " transform="matrix(3.779528,0,0,3.779528,0,0)"/>
<path style="fill:none;stroke-width:2;stroke-linecap:butt;stroke-linejoin:miter;stroke:rgb(0%,0%,0%);stroke-opacity:1;stroke-miterlimit:4;" d="M 465.500269 204.500179 L 449.500212 207.999707 " transform="matrix(3.779528,0,0,3.779528,0,0)"/>
<path style="fill:none;stroke-width:2;stroke-linecap:butt;stroke-linejoin:miter;stroke:rgb(0%,0%,0%);stroke-opacity:1;stroke-miterlimit:4;" d="M 453.499967 196.499634 L 465.500269 180.499577 L 468.999797 164.49952 L 472.999552 148.500496 L 473.49978 132.000212 L 461.500513 128.000456 " transform="matrix(3.779528,0,0,3.779528,0,0)"/>
<path style="fill:none;stroke-width:2;stroke-linecap:butt;stroke-linejoin:miter;stroke:rgb(0%,0%,0%);stroke-opacity:1;stroke-miterlimit:4;" d="M 452.000317 115.499927 L 452.000317 131.499984 L 447.500334 147.500041 L 445.500456 169.499731 L 441.499666 189.499544 " transform="matrix(3.779528,0,0,3.779528,0,0)"/>
<path style="fill:none;stroke-width:2;stroke-linecap:butt;stroke-linejoin:miter;stroke:rgb(0%,0%,0%);stroke-opacity:1;stroke-miterlimit:4;" d="M 443.499544 139.999723 L 427.499487 132.000212 " transform="matrix(3.779528,0,0,3.779528,0,0)"/>
<path style="fill:none;stroke-width:2;stroke-linecap:butt;stroke-linejoin:miter;stroke:rgb(0%,0%,0%);stroke-opacity:1;stroke-miterlimit:4;" d="M 429.000171 128.000456 L 445.000228 131.499984 L 429.000171 139.000301 L 429.000171 121.000366 L 445.000228 116.999577 L 458.500179 114.999699 L 475.000464 114.999699 L 490.999487 112.999821 L 511.000334 117.499805 " transform="matrix(3.779528,0,0,3.779528,0,0)"/>
<path style="fill:none;stroke-width:2;stroke-linecap:butt;stroke-linejoin:miter;stroke:rgb(0%,0%,0%);stroke-opacity:1;stroke-miterlimit:4;" d="M 502.000366 114.999699 L 504.000244 131.499984 L 502.000366 147.500041 L 497.999577 163.500098 L 490.000065 179.500155 L 490.000065 189.499544 L 456.000073 213.500146 L 462.499935 211.500269 L 472.500358 201.499845 L 493.000399 185.499788 L 495.000277 171.999837 " transform="matrix(3.779528,0,0,3.779528,0,0)"/>
<path style="fill:none;stroke-width:2;stroke-linecap:butt;stroke-linejoin:miter;stroke:rgb(0%,0%,0%);stroke-opacity:1;stroke-miterlimit:4;" d="M 485.500081 241.999699 L 469.500024 239.499593 L 445.500456 243.500382 L 429.500399 249.500016 " transform="matrix(3.779528,0,0,3.779528,0,0)"/>
<path style="fill:none;stroke-width:2;stroke-linecap:butt;stroke-linejoin:miter;stroke:rgb(0%,0%,0%);stroke-opacity:1;stroke-miterlimit:4;" d="M 431.500277 252.999544 L 447.500334 252.999544 " transform="matrix(3.779528,0,0,3.779528,0,0)"/>
<path style="fill:none;stroke-width:2;stroke-linecap:butt;stroke-linejoin:miter;stroke:rgb(0%,0%,0%);stroke-opacity:1;stroke-miterlimit:4;" d="M 427.999715 287.499764 L 443.999772 301.499943 " transform="matrix(3.779528,0,0,3.779528,0,0)"/>
<path style="fill:none;stroke-width:2;stroke-linecap:butt;stroke-linejoin:miter;stroke:rgb(0%,0%,0%);stroke-opacity:1;stroke-miterlimit:4;" d="M 441.000472 304.000049 L 425.000415 294.499854 " transform="matrix(3.779528,0,0,3.779528,0,0)"/>
<path style="fill:none;stroke-width:2;stroke-linecap:butt;stroke-linejoin:miter;stroke:rgb(0%,0%,0%);stroke-opacity:1;stroke-miterlimit:4;" d="M 425.000415 295.000081 L 442.500122 311.000138 L 448.999984 327.000195 L 434.499577 339.000496 " transform="matrix(3.779528,0,0,3.779528,0,0)"/>
<path style="fill:none;stroke-width:2;stroke-linecap:butt;stroke-linejoin:miter;stroke:rgb(0%,0%,0%);stroke-opacity:1;stroke-miterlimit:4;" d="M 438.000138 332.499601 L 420.000203 330.499723 L 404.500374 342.500024 L 384.499528 372.50026 L 368.000277 368.999699 L 350.000342 377.000244 L 332.000407 397.500285 L 336.000163 391.499618 L 334.500513 403.499919 " transform="matrix(3.779528,0,0,3.779528,0,0)"/>
<path style="fill:none;stroke-width:2;stroke-linecap:butt;stroke-linejoin:miter;stroke:rgb(0%,0%,0%);stroke-opacity:1;stroke-miterlimit:4;" d="M 398.999935 416.499642 L 414.999992 428.499943 L 429.000171 434.499577 L 445.000228 441.999894 L 461.000285 445.99965 L 477.000342 447.500334 L 493.000399 450.000439 L 509.000456 450.000439 " transform="matrix(3.779528,0,0,3.779528,0,0)"/>
<path style="fill:none;stroke-width:2;stroke-linecap:butt;stroke-linejoin:miter;stroke:rgb(0%,0%,0%);stroke-opacity:1;stroke-miterlimit:4;" d="M 506.999544 323.499634 L 500.99991 307.499577 L 490.999487 291.49952 L 473.49978 275.500496 L 467.500146 271.499707 L 451.50009 270.000057 L 436.00026 275.999691 L 420.000203 291.999748 L 404.000146 293.500431 L 388.00009 299.500065 L 372.50026 311.500366 L 356.500203 336.999585 " transform="matrix(3.779528,0,0,3.779528,0,0)"/>
<path style="fill:none;stroke-width:2;stroke-linecap:butt;stroke-linejoin:miter;stroke:rgb(0%,0%,0%);stroke-opacity:1;stroke-miterlimit:4;" d="M 429.000171 320.500334 L 431.000049 336.500391 " transform="matrix(3.779528,0,0,3.779528,0,0)"/>
<path style="fill:none;stroke-width:2;stroke-linecap:butt;stroke-linejoin:miter;stroke:rgb(0%,0%,0%);stroke-opacity:1;stroke-miterlimit:4;" d="M 429.500399 318.500456 L 409.499552 334.500513 L 399.500163 352.500448 L 395.500407 368.500505 L 411.500464 361.999609 L 427.999715 359.999731 " transform="matrix(3.779528,0,0,3.779528,0,0)"/>
<path style="fill:none;stroke-width:2;stroke-linecap:butt;stroke-linejoin:miter;stroke:rgb(0%,0%,0%);stroke-opacity:1;stroke-miterlimit:4;" d="M 454.500423 164.000326 L 456.500301 147.500041 L 459.000407 131.499984 L 453.499967 137.999845 L 438.000138 153.999902 L 422.000081 139.999723 " transform="matrix(3.779528,0,0,3.779528,0,0)"/>
<path style="fill:none;stroke-width:2;stroke-linecap:butt;stroke-linejoin:miter;stroke:rgb(0%,0%,0%);stroke-opacity:1;stroke-miterlimit:4;" d="M 404.000146 122.500016 L 407.999902 128.49965 L 398.000513 144.000513 L 375.999788 152.000024 " transform="matrix(3.779528,0,0,3.779528,0,0)"/>
<path style="fill:none;stroke-width:2;stroke-linecap:butt;stroke-linejoin:miter;stroke:rgb(0%,0%,0%);stroke-opacity:1;stroke-miterlimit:4;" d="M 371.499805 141.000179 L 355.499748 139.000301 " transform="matrix(3.779528,0,0,3.779528,0,0)"/>
<path style="fill:none;stroke-width:2;stroke-linecap:butt;stroke-linejoin:miter;stroke:rgb(0%,0%,0%);stroke-opacity:1;stroke-miterlimit:4;" d="M 345.00013 105.999731 L 366.999821 81.499935 L 381.500228 97.499992 L 386.000212 113.500049 L 350.499536 129.500106 L 344.499902 146.000391 L 339.000496 162.000448 L 334.999707 178.000505 L 342.500024 150.000146 L 358.500081 125.999544 L 374.500138 120.500138 L 390.500195 114.500505 L 406.500252 107.999609 L 422.500309 100.000098 L 438.500366 98.00022 " transform="matrix(3.779528,0,0,3.779528,0,0)"/>
<path style="fill:none;stroke-width:2;stroke-linecap:butt;stroke-linejoin:miter;stroke:rgb(0%,0%,0%);stroke-opacity:1;stroke-miterlimit:4;" d="M 435.500033 82.500391 L 419.499976 82.500391 L 403.499919 89.000252 L 388.00009 96.999764 L 372.000033 76.499723 " transform="matrix(3.779528,0,0,3.779528,0,0)"/>
<path style="fill:none;stroke-width:2;stroke-linecap:butt;stroke-linejoin:miter;stroke:rgb(0%,0%,0%);stroke-opacity:1;stroke-miterlimit:4;" d="M 371.499805 75.000073 L 383.500106 91.00013 L 403.499919 107.000187 L 375.499561 123.500472 L 354.000098 146.000391 L 359.999731 162.499642 L 359.999731 154.50013 L 375.999788 150.500374 L 384.000334 150.500374 L 398.499707 140.499951 L 422.999504 120.500138 L 438.999561 112.499593 L 454.500423 110.499715 L 470.50048 108.499837 L 486.499504 108.499837 " transform="matrix(3.779528,0,0,3.779528,0,0)"/>
<path style="fill:none;stroke-width:2;stroke-linecap:butt;stroke-linejoin:miter;stroke:rgb(0%,0%,0%);stroke-opacity:1;stroke-miterlimit:4;" d="M 491.499715 100.500326 L 475.000464 76.499723 L 459.000407 64.500456 L 443.499544 55.999683 L 427.499487 53.999805 L 411.500464 53.999805 L 395.500407 57.999561 L 379.50035 66.000106 L 363.500293 78.000407 L 350.000342 78.000407 L 339.499691 107.999609 L 337.499813 116.500382 L 345.500358 94.499658 L 357.499626 78.499601 L 343.50048 90.499902 " transform="matrix(3.779528,0,0,3.779528,0,0)"/>
<path style="fill:none;stroke-width:2;stroke-linecap:butt;stroke-linejoin:miter;stroke:rgb(0%,0%,0%);stroke-opacity:1;stroke-miterlimit:4;" d="M 367.500049 79.500057 L 383.500106 97.499992 " transform="matrix(3.779528,0,0,3.779528,0,0)"/>
<path style="fill:none;stroke-width:2;stroke-linecap:butt;stroke-linejoin:miter;stroke:rgb(0%,0%,0%);stroke-opacity:1;stroke-miterlimit:4;" d="M 388.00009 126.499772 L 377.500472 141.999601 L 381.500228 157.500464 L 381.500228 173.499487 L 379.999544 189.999772 L 375.999788 205.999829 L 373.99991 221.999886 " transform="matrix(3.779528,0,0,3.779528,0,0)"/>
<path style="fill:none;stroke-width:2;stroke-linecap:butt;stroke-linejoin:miter;stroke:rgb(0%,0%,0%);stroke-opacity:1;stroke-miterlimit:4;" d="M 445.99965 157.500464 L 425.999837 159.999536 L 423.999959 150.000146 L 420.000203 133.499862 L 434.000382 117.499805 " transform="matrix(3.779528,0,0,3.779528,0,0)"/>
<path style="fill:none;stroke-width:2;stroke-linecap:butt;stroke-linejoin:miter;stroke:rgb(0%,0%,0%);stroke-opacity:1;stroke-miterlimit:4;" d="M 445.000228 57.500366 L 470.999674 73.500423 L 485.500081 89.50048 L 493.499593 105.499504 L 495.999699 114.999699 L 497.999577 131.499984 L 495.999699 147.500041 L 491.999943 164.000326 L 484.000431 180.000382 L 472.00013 196.499634 L 450.000439 210.499813 L 445.99965 212.999919 L 461.500513 202.999495 L 477.499536 188.500122 L 493.499593 156.500008 " transform="matrix(3.779528,0,0,3.779528,0,0)"/>
</g>
</svg>
