<?xml version="1.0" encoding="UTF-8"?>
<svg xmlns="http://www.w3.org/2000/svg" xmlns:xlink="http://www.w3.org/1999/xlink" width="1935.11811" height="1935.11811" viewBox="0 0 1935.11811 1935.11811" version="1.1">
<g id="surface1">
<path style="fill:none;stroke-width:2;stroke-linecap:butt;stroke-linejoin:miter;stroke:rgb(0%,0%,0%);stroke-opacity:1;stroke-miterlimit:4;" d="M 211.500269 18.500163 L 181.500033 34.50022 L 165.499976 42.499731 L 159.500342 58.499788 L 143.500285 75.000073 L 141.500407 91.00013 L 157.500464 107.000187 L 179.500155 123.000244 L 196.999862 139.000301 L 205.000407 154.50013 L 202.500301 170.500187 L 177.000049 190.5 L 148.999691 206.500057 L 146.999813 222.500114 L 149.499919 237.999943 L 149.499919 253.499772 L 151.499797 268.999601 L 153.499674 280.999902 L 157.500464 296.999959 L 165.499976 312.499788 L 178.000505 328.499845 L 193.999528 344.499902 L 200.500423 360.499959 L 198.499512 377.000244 L 186.500244 393.000301 L 202.500301 409.000358 L 204.500179 425.000415 L 206.500057 441.499666 L 204.500179 457.499723 L 198.499512 473.49978 L 190.5 487.499959 " transform="matrix(3.779528,0,0,3.779528,0,0)"/>
<path style="fill:none;stroke-width:2;stroke-linecap:butt;stroke-linejoin:miter;stroke:rgb(0%,0%,0%);stroke-opacity:1;stroke-miterlimit:4;" d="M 202.999495 481.99952 L 207.000285 497.500382 " transform="matrix(3.779528,0,0,3.779528,0,0)"/>
<path style="fill:none;stroke-width:2;stroke-linecap:butt;stroke-linejoin:miter;stroke:rgb(0%,0%,0%);stroke-opacity:1;stroke-miterlimit:4;" d="M 208.499935 497.500382 L 205.000407 481.500326 L 184.999561 491.499715 L 168.999504 495.500505 L 153.00048 490.000065 L 137.499618 481.99952 " transform="matrix(3.779528,0,0,3.779528,0,0)"/>
<path style="fill:none;stroke-width:2;stroke-linecap:butt;stroke-linejoin:miter;stroke:rgb(0%,0%,0%);stroke-opacity:1;stroke-miterlimit:4;" d="M 137.999845 477.999764 L 153.499674 484.000431 " transform="matrix(3.779528,0,0,3.779528,0,0)"/>
<path style="fill:none;stroke-width:2;stroke-linecap:butt;stroke-linejoin:miter;stroke:rgb(0%,0%,0%);stroke-opacity:1;stroke-miterlimit:4;" d="M 148.000269 475.000464 L 141.999601 458.500179 " transform="matrix(3.779528,0,0,3.779528,0,0)"/>
<path style="fill:none;stroke-width:2;stroke-linecap:butt;stroke-linejoin:miter;stroke:rgb(0%,0%,0%);stroke-opacity:1;stroke-miterlimit:4;" d="M 142.499829 450.499634 L 148.999691 466.499691 " transform="matrix(3.779528,0,0,3.779528,0,0)"/>
<path style="fill:none;stroke-width:2;stroke-linecap:butt;stroke-linejoin:miter;stroke:rgb(0%,0%,0%);stroke-opacity:1;stroke-miterlimit:4;" d="M 133.499862 461.999707 L 149.499919 426.500065 L 165.499976 398.999935 L 181.500033 391.499618 L 164.999748 391.999845 L 153.00048 408.50013 L 144.999935 425.000415 L 137.000423 441.000472 L 130.499528 456.999495 L 126.499772 472.999552 L 125.999544 488.999609 L 128.49965 504.500472 " transform="matrix(3.779528,0,0,3.779528,0,0)"/>
<path style="fill:none;stroke-width:2;stroke-linecap:butt;stroke-linejoin:miter;stroke:rgb(0%,0%,0%);stroke-opacity:1;stroke-miterlimit:4;" d="M 130.499528 459.000407 L 146.000391 423.499731 L 162.000448 395.500407 L 178.000505 388.00009 L 194.499756 386.000212 L 212.499691 372.50026 " transform="matrix(3.779528,0,0,3.779528,0,0)"/>
<path style="fill:none;stroke-width:2;stroke-linecap:butt;stroke-linejoin:miter;stroke:rgb(0%,0%,0%);stroke-opacity:1;stroke-miterlimit:4;" d="M 209.999585 410.500008 L 241.999699 409.499552 L 264.000423 399.500163 L 267.499951 415.50022 L 267.499951 431.500277 L 261.500317 447.000106 L 261.999512 454.999618 L 276.499919 465.500269 L 276.499919 481.500326 L 278.499797 497.500382 " transform="matrix(3.779528,0,0,3.779528,0,0)"/>
<path style="fill:none;stroke-width:2;stroke-linecap:butt;stroke-linejoin:miter;stroke:rgb(0%,0%,0%);stroke-opacity:1;stroke-miterlimit:4;" d="M 275.000269 503.500016 L 273.000391 487.499959 " transform="matrix(3.779528,0,0,3.779528,0,0)"/>
<path style="fill:none;stroke-width:2;stroke-linecap:butt;stroke-linejoin:miter;stroke:rgb(0%,0%,0%);stroke-opacity:1;stroke-miterlimit:4;" d="M 268.999601 483.500203 L 268.500407 500.000488 " transform="matrix(3.779528,0,0,3.779528,0,0)"/>
<path style="fill:none;stroke-width:2;stroke-linecap:butt;stroke-linejoin:miter;stroke:rgb(0%,0%,0%);stroke-opacity:1;stroke-miterlimit:4;" d="M 265.500073 490.000065 L 285.499886 484.000431 " transform="matrix(3.779528,0,0,3.779528,0,0)"/>
<path style="fill:none;stroke-width:2;stroke-linecap:butt;stroke-linejoin:miter;stroke:rgb(0%,0%,0%);stroke-opacity:1;stroke-miterlimit:4;" d="M 280.999902 470.50048 L 302.999593 486.499504 " transform="matrix(3.779528,0,0,3.779528,0,0)"/>
<path style="fill:none;stroke-width:2;stroke-linecap:butt;stroke-linejoin:miter;stroke:rgb(0%,0%,0%);stroke-opacity:1;stroke-miterlimit:4;" d="M 273.000391 470.999674 L 289.000448 485.500081 L 305.000505 491.499715 L 321.499756 481.500326 L 339.999919 477.999764 L 342.500024 493.999821 L 342.500024 509.49965 " transform="matrix(3.779528,0,0,3.779528,0,0)"/>
<path style="fill:none;stroke-width:2;stroke-linecap:butt;stroke-linejoin:miter;stroke:rgb(0%,0%,0%);stroke-opacity:1;stroke-miterlimit:4;" d="M 358.500081 428.499943 L 362.499837 412.499886 L 360.499959 397.000057 L 366.499593 380.499772 L 373.000488 364.999943 L 375.499561 348.999886 L 361.500415 339.000496 L 345.500358 344.499902 L 329.500301 354.500326 " transform="matrix(3.779528,0,0,3.779528,0,0)"/>
<path style="fill:none;stroke-width:2;stroke-linecap:butt;stroke-linejoin:miter;stroke:rgb(0%,0%,0%);stroke-opacity:1;stroke-miterlimit:4;" d="M 334.000285 357.999854 L 338.000041 363.999487 L 334.500513 379.50035 " transform="matrix(3.779528,0,0,3.779528,0,0)"/>
<path style="fill:none;stroke-width:2;stroke-linecap:butt;stroke-linejoin:miter;stroke:rgb(0%,0%,0%);stroke-opacity:1;stroke-miterlimit:4;" d="M 336.000163 409.499552 L 352.00022 413.999536 " transform="matrix(3.779528,0,0,3.779528,0,0)"/>
<path style="fill:none;stroke-width:2;stroke-linecap:butt;stroke-linejoin:miter;stroke:rgb(0%,0%,0%);stroke-opacity:1;stroke-miterlimit:4;" d="M 362.499837 403.499919 L 368.500505 388.00009 L 373.99991 372.50026 L 379.999544 357.000431 L 377.999666 341.000374 L 363.500293 325.000317 L 361.500415 309.00026 L 335.499935 312.499788 L 319.499878 316.999772 " transform="matrix(3.779528,0,0,3.779528,0,0)"/>
<path style="fill:none;stroke-width:2;stroke-linecap:butt;stroke-linejoin:miter;stroke:rgb(0%,0%,0%);stroke-opacity:1;stroke-miterlimit:4;" d="M 321.999984 320.000106 L 323.999862 348.000464 L 345.999552 350.000342 L 368.500505 336.000163 " transform="matrix(3.779528,0,0,3.779528,0,0)"/>
<path style="fill:none;stroke-width:2;stroke-linecap:butt;stroke-linejoin:miter;stroke:rgb(0%,0%,0%);stroke-opacity:1;stroke-miterlimit:4;" d="M 375.499561 335.499935 L 359.499504 325.499512 " transform="matrix(3.779528,0,0,3.779528,0,0)"/>
<path style="fill:none;stroke-width:2;stroke-linecap:butt;stroke-linejoin:miter;stroke:rgb(0%,0%,0%);stroke-opacity:1;stroke-miterlimit:4;" d="M 318.99965 268.000179 L 323.000439 261.999512 L 339.499691 257.499528 " transform="matrix(3.779528,0,0,3.779528,0,0)"/>
<path style="fill:none;stroke-width:2;stroke-linecap:butt;stroke-linejoin:miter;stroke:rgb(0%,0%,0%);stroke-opacity:1;stroke-miterlimit:4;" d="M 339.000496 305.999927 L 322.500212 295.999504 L 318.500456 279.500252 L 302.500399 268.000179 L 277.999569 266.000301 L 259.500439 271.999935 L 247.500138 274.500041 L 251.499894 258.499984 L 245.50026 262.49974 L 243.500382 268.500407 " transform="matrix(3.779528,0,0,3.779528,0,0)"/>
<path style="fill:none;stroke-width:2;stroke-linecap:butt;stroke-linejoin:miter;stroke:rgb(0%,0%,0%);stroke-opacity:1;stroke-miterlimit:4;" d="M 237.999943 276.499919 L 254 282.99978 " transform="matrix(3.779528,0,0,3.779528,0,0)"/>
<path style="fill:none;stroke-width:2;stroke-linecap:butt;stroke-linejoin:miter;stroke:rgb(0%,0%,0%);stroke-opacity:1;stroke-miterlimit:4;" d="M 274.500041 273.499585 L 271.999935 289.499642 L 268.000179 305.499699 " transform="matrix(3.779528,0,0,3.779528,0,0)"/>
<path style="fill:none;stroke-width:2;stroke-linecap:butt;stroke-linejoin:miter;stroke:rgb(0%,0%,0%);stroke-opacity:1;stroke-miterlimit:4;" d="M 275.500496 303.499821 L 259.500439 329.500301 L 243.999577 347.500236 L 227.99952 348.000464 L 212.499691 343.999674 L 196.999862 328.499845 L 196.999862 314.499666 L 181.500033 314.499666 " transform="matrix(3.779528,0,0,3.779528,0,0)"/>
<path style="fill:none;stroke-width:2;stroke-linecap:butt;stroke-linejoin:miter;stroke:rgb(0%,0%,0%);stroke-opacity:1;stroke-miterlimit:4;" d="M 177.000049 310.49991 L 192.499878 326.499967 L 208.499935 341.999797 L 212.499691 363.999487 L 212.000496 380.499772 L 212.000496 396.499829 L 221.999886 406.000024 L 237.999943 405.499797 L 253.499772 400.999813 L 261.500317 386.500439 L 277.500374 389.999967 L 293.500431 400.499585 L 309.500488 434.999805 L 325.499512 469.500024 " transform="matrix(3.779528,0,0,3.779528,0,0)"/>
<path style="fill:none;stroke-width:2;stroke-linecap:butt;stroke-linejoin:miter;stroke:rgb(0%,0%,0%);stroke-opacity:1;stroke-miterlimit:4;" d="M 348.999886 434.499577 L 368.999699 424.500187 L 358.500081 434.499577 L 344.499902 436.500488 L 328.499845 424.500187 L 336.500391 410.500008 L 330.499723 390.500195 L 328.499845 374.500138 L 327.999618 358.500081 L 336.500391 340.500146 L 328.499845 323.999862 L 346.49978 313.500244 L 344.499902 296.999959 L 350.000342 300.499487 L 354.500326 284.500464 L 350.499536 268.999601 L 345.999552 252.999544 L 348.000464 236.999487 L 347.500236 221.000464 L 339.000496 205.000407 L 307.499577 198.99974 L 309.500488 198.99974 L 293.500431 199.499967 L 277.999569 189.499544 " transform="matrix(3.779528,0,0,3.779528,0,0)"/>
<path style="fill:none;stroke-width:2;stroke-linecap:butt;stroke-linejoin:miter;stroke:rgb(0%,0%,0%);stroke-opacity:1;stroke-miterlimit:4;" d="M 282.000358 187.999894 L 298.000415 196.000439 L 318.000228 202.000073 L 314.000472 218.00013 L 311.999561 234.000187 L 303.499821 250.000244 L 295.999504 266.000301 L 298.000415 273.499585 L 293.999626 289.499642 L 288.50022 305.000505 L 280.499674 320.999528 L 268.000179 336.999585 L 255.999878 351.499992 L 254 359.499504 L 248.000366 375.499561 L 254 385.499984 L 250.000244 401.500041 L 256.500106 418.000326 " transform="matrix(3.779528,0,0,3.779528,0,0)"/>
<path style="fill:none;stroke-width:2;stroke-linecap:butt;stroke-linejoin:miter;stroke:rgb(0%,0%,0%);stroke-opacity:1;stroke-miterlimit:4;" d="M 264.000423 413.500342 L 264.499618 429.500399 L 254.500228 455.499845 " transform="matrix(3.779528,0,0,3.779528,0,0)"/>
<path style="fill:none;stroke-width:2;stroke-linecap:butt;stroke-linejoin:miter;stroke:rgb(0%,0%,0%);stroke-opacity:1;stroke-miterlimit:4;" d="M 257.000334 470.50048 L 261.00009 486.499504 L 262.49974 502.499561 " transform="matrix(3.779528,0,0,3.779528,0,0)"/>
<path style="fill:none;stroke-width:2;stroke-linecap:butt;stroke-linejoin:miter;stroke:rgb(0%,0%,0%);stroke-opacity:1;stroke-miterlimit:4;" d="M 228.999976 473.49978 L 257.000334 469.500024 L 241.000277 475.499658 L 225.00022 477.499536 L 209.000163 470.000252 " transform="matrix(3.779528,0,0,3.779528,0,0)"/>
<path style="fill:none;stroke-width:2;stroke-linecap:butt;stroke-linejoin:miter;stroke:rgb(0%,0%,0%);stroke-opacity:1;stroke-miterlimit:4;" d="M 207.999707 472.500358 L 236.000065 464.499813 " transform="matrix(3.779528,0,0,3.779528,0,0)"/>
<path style="fill:none;stroke-width:2;stroke-linecap:butt;stroke-linejoin:miter;stroke:rgb(0%,0%,0%);stroke-opacity:1;stroke-miterlimit:4;" d="M 256.500106 437.49991 L 240.500049 445.500456 L 224.499992 443.999772 L 208.499935 428.499943 " transform="matrix(3.779528,0,0,3.779528,0,0)"/>
<path style="fill:none;stroke-width:2;stroke-linecap:butt;stroke-linejoin:miter;stroke:rgb(0%,0%,0%);stroke-opacity:1;stroke-miterlimit:4;" d="M 207.500513 427.499487 L 219.49978 443.499544 L 223.999764 465.500269 L 237.999943 453.499967 " transform="matrix(3.779528,0,0,3.779528,0,0)"/>
<path style="fill:none;stroke-width:2;stroke-linecap:butt;stroke-linejoin:miter;stroke:rgb(0%,0%,0%);stroke-opacity:1;stroke-miterlimit:4;" d="M 291.000326 427.000293 L 289.000448 411.000236 L 278.499797 394.499951 L 254 391.000423 " transform="matrix(3.779528,0,0,3.779528,0,0)"/>
<path style="fill:none;stroke-width:2;stroke-linecap:butt;stroke-linejoin:miter;stroke:rgb(0%,0%,0%);stroke-opacity:1;stroke-miterlimit:4;" d="M 273.000391 386.000212 L 293.000203 401.500041 L 295.500309 417.500098 " transform="matrix(3.779528,0,0,3.779528,0,0)"/>
<path style="fill:none;stroke-width:2;stroke-linecap:butt;stroke-linejoin:miter;stroke:rgb(0%,0%,0%);stroke-opacity:1;stroke-miterlimit:4;" d="M 296.499731 404.999569 L 304.500277 421.499854 L 309.999683 437.49991 L 316.00035 453.499967 L 320.000106 470.000252 " transform="matrix(3.779528,0,0,3.779528,0,0)"/>
<path style="fill:none;stroke-width:2;stroke-linecap:butt;stroke-linejoin:miter;stroke:rgb(0%,0%,0%);stroke-opacity:1;stroke-miterlimit:4;" d="M 325.000317 480.49987 L 318.99965 477.999764 L 302.999593 486.000309 L 286.500342 474.000008 L 270.500285 455.499845 L 243.999577 457.999951 L 227.99952 457.999951 L 225.500448 470.000252 L 209.999585 463.999585 L 193.999528 478.499992 L 178.000505 490.500293 L 165.499976 490.999487 L 161.50022 474.500236 L 165.499976 458.500179 L 165.499976 441.999894 L 163.500098 425.000415 L 159.500342 416.99987 " transform="matrix(3.779528,0,0,3.779528,0,0)"/>
<path style="fill:none;stroke-width:2;stroke-linecap:butt;stroke-linejoin:miter;stroke:rgb(0%,0%,0%);stroke-opacity:1;stroke-miterlimit:4;" d="M 158.499886 420.500431 L 162.99987 436.500488 L 160.999992 452.99974 L 159.000114 469.500024 L 157.000236 473.49978 " transform="matrix(3.779528,0,0,3.779528,0,0)"/>
<path style="fill:none;stroke-width:2;stroke-linecap:butt;stroke-linejoin:miter;stroke:rgb(0%,0%,0%);stroke-opacity:1;stroke-miterlimit:4;" d="M 172.500065 422.500309 L 168.000081 406.500252 L 166.000203 404.500374 " transform="matrix(3.779528,0,0,3.779528,0,0)"/>
<path style="fill:none;stroke-width:2;stroke-linecap:butt;stroke-linejoin:miter;stroke:rgb(0%,0%,0%);stroke-opacity:1;stroke-miterlimit:4;" d="M 171.499609 404.999569 L 175.500399 420.999626 " transform="matrix(3.779528,0,0,3.779528,0,0)"/>
<path style="fill:none;stroke-width:2;stroke-linecap:butt;stroke-linejoin:miter;stroke:rgb(0%,0%,0%);stroke-opacity:1;stroke-miterlimit:4;" d="M 177.500277 391.499618 L 159.500342 407.499674 L 152.000024 423.499731 L 144.000513 440.000016 L 137.499618 456.000073 L 133.499862 472.00013 L 132.000212 488.000187 L 135.999967 503.500016 " transform="matrix(3.779528,0,0,3.779528,0,0)"/>
<path style="fill:none;stroke-width:2;stroke-linecap:butt;stroke-linejoin:miter;stroke:rgb(0%,0%,0%);stroke-opacity:1;stroke-miterlimit:4;" d="M 76.999951 395.999601 L 93.000008 377.999666 L 109.000065 355.499748 " transform="matrix(3.779528,0,0,3.779528,0,0)"/>
<path style="fill:none;stroke-width:2;stroke-linecap:butt;stroke-linejoin:miter;stroke:rgb(0%,0%,0%);stroke-opacity:1;stroke-miterlimit:4;" d="M 102.500203 355.499748 L 87.000374 377.500472 L 71.000317 395.999601 L 55.00026 389.999967 L 39.000203 400.499585 " transform="matrix(3.779528,0,0,3.779528,0,0)"/>
<path style="fill:none;stroke-width:2;stroke-linecap:butt;stroke-linejoin:miter;stroke:rgb(0%,0%,0%);stroke-opacity:1;stroke-miterlimit:4;" d="M 48.000171 404.000146 L 32.000114 409.99978 " transform="matrix(3.779528,0,0,3.779528,0,0)"/>
<path style="fill:none;stroke-width:2;stroke-linecap:butt;stroke-linejoin:miter;stroke:rgb(0%,0%,0%);stroke-opacity:1;stroke-miterlimit:4;" d="M 57.500366 368.000277 L 73.500423 338.000041 L 71.499512 345.999552 L 60.999894 361.999609 L 62.499544 347.500236 L 67.999984 332.000407 L 83.499813 304.000049 L 93.500236 264.499618 L 114.999699 264.999845 L 130.499528 266.999723 " transform="matrix(3.779528,0,0,3.779528,0,0)"/>
<path style="fill:none;stroke-width:2;stroke-linecap:butt;stroke-linejoin:miter;stroke:rgb(0%,0%,0%);stroke-opacity:1;stroke-miterlimit:4;" d="M 130.000334 262.49974 L 113.500049 256.500106 L 85.499691 270.000057 L 69.499634 323.999862 L 53.499577 336.000163 L 37.000326 375.999788 L 25.000024 404.000146 L 23.500374 420.000203 L 37.999748 406.000024 L 37.999748 394.499951 L 43.500187 379.000122 L 47.499943 363.000065 L 53.999805 347.000008 L 69.999862 330.499723 L 80.000285 314.999894 L 94.000464 311.000138 L 84.000041 301.499943 L 87.999797 285.499886 L 94.000464 268.999601 L 100.000098 252.999544 L 97.499992 236.500293 L 103.499626 220.500236 L 111.500171 203.999951 L 103.499626 216.000252 " transform="matrix(3.779528,0,0,3.779528,0,0)"/>
<path style="fill:none;stroke-width:2;stroke-linecap:butt;stroke-linejoin:miter;stroke:rgb(0%,0%,0%);stroke-opacity:1;stroke-miterlimit:4;" d="M 112.000399 204.500179 L 128.000456 191.99965 L 143.500285 196.499634 L 159.500342 196.499634 L 175.999593 192.499878 L 170.500187 198.499512 " transform="matrix(3.779528,0,0,3.779528,0,0)"/>
<path style="fill:none;stroke-width:2;stroke-linecap:butt;stroke-linejoin:miter;stroke:rgb(0%,0%,0%);stroke-opacity:1;stroke-miterlimit:4;" d="M 180.000382 193.999528 L 163.500098 200.000195 L 147.500041 209.999585 " transform="matrix(3.779528,0,0,3.779528,0,0)"/>
<path style="fill:none;stroke-width:2;stroke-linecap:butt;stroke-linejoin:miter;stroke:rgb(0%,0%,0%);stroke-opacity:1;stroke-miterlimit:4;" d="M 144.499707 180.499577 L 160.499764 180.499577 L 176.499821 184.000138 L 190.5 184.000138 L 206.500057 186.000016 L 237.999943 186.000016 L 254 183.49991 L 270.000057 183.49991 L 286.000114 182.00026 L 302.000171 180.000382 L 318.000228 191.99965 L 334.000285 200.000195 " transform="matrix(3.779528,0,0,3.779528,0,0)"/>
<path style="fill:none;stroke-width:2;stroke-linecap:butt;stroke-linejoin:miter;stroke:rgb(0%,0%,0%);stroke-opacity:1;stroke-miterlimit:4;" d="M 350.000342 207.000285 L 333.500057 193.000106 L 317.5 184.999561 L 301.499943 173.499487 L 285.499886 177.500277 L 270.000057 180.000382 L 254 178.499699 L 237.999943 182.500488 L 221.999886 182.500488 " transform="matrix(3.779528,0,0,3.779528,0,0)"/>
<path style="fill:none;stroke-width:2;stroke-linecap:butt;stroke-linejoin:miter;stroke:rgb(0%,0%,0%);stroke-opacity:1;stroke-miterlimit:4;" d="M 216.999674 169.499731 L 233.499959 169.999959 " transform="matrix(3.779528,0,0,3.779528,0,0)"/>
<path style="fill:none;stroke-width:2;stroke-linecap:butt;stroke-linejoin:miter;stroke:rgb(0%,0%,0%);stroke-opacity:1;stroke-miterlimit:4;" d="M 239.000399 176.499821 L 222.500114 178.499699 L 206.500057 178.999927 " transform="matrix(3.779528,0,0,3.779528,0,0)"/>
<path style="fill:none;stroke-width:2;stroke-linecap:butt;stroke-linejoin:miter;stroke:rgb(0%,0%,0%);stroke-opacity:1;stroke-miterlimit:4;" d="M 195.500212 133.499862 L 180.000382 119.499683 L 164.000326 105.000309 L 148.000269 96.999764 " transform="matrix(3.779528,0,0,3.779528,0,0)"/>
<path style="fill:none;stroke-width:2;stroke-linecap:butt;stroke-linejoin:miter;stroke:rgb(0%,0%,0%);stroke-opacity:1;stroke-miterlimit:4;" d="M 165.499976 94.499658 L 169.499731 90.499902 L 169.499731 74.499845 L 166.999626 56.49991 L 173.000293 56.49991 L 157.500464 60.000472 L 141.500407 78.000407 " transform="matrix(3.779528,0,0,3.779528,0,0)"/>
<path style="fill:none;stroke-width:2;stroke-linecap:butt;stroke-linejoin:miter;stroke:rgb(0%,0%,0%);stroke-opacity:1;stroke-miterlimit:4;" d="M 148.000269 75.500301 L 164.000326 67.499756 " transform="matrix(3.779528,0,0,3.779528,0,0)"/>
<path style="fill:none;stroke-width:2;stroke-linecap:butt;stroke-linejoin:miter;stroke:rgb(0%,0%,0%);stroke-opacity:1;stroke-miterlimit:4;" d="M 153.499674 69.499634 L 147.500041 85.499691 L 147.500041 95.500114 L 163.500098 91.00013 " transform="matrix(3.779528,0,0,3.779528,0,0)"/>
<path style="fill:none;stroke-width:2;stroke-linecap:butt;stroke-linejoin:miter;stroke:rgb(0%,0%,0%);stroke-opacity:1;stroke-miterlimit:4;" d="M 180.499577 107.999609 L 196.499634 128.000456 L 212.499691 135.49974 L 227.99952 139.000301 L 243.999577 137.000423 L 259.500439 128.999878 L 275.500496 118.50026 " transform="matrix(3.779528,0,0,3.779528,0,0)"/>
<path style="fill:none;stroke-width:2;stroke-linecap:butt;stroke-linejoin:miter;stroke:rgb(0%,0%,0%);stroke-opacity:1;stroke-miterlimit:4;" d="M 243.999577 109.000065 L 227.99952 109.000065 " transform="matrix(3.779528,0,0,3.779528,0,0)"/>
<path style="fill:none;stroke-width:2;stroke-linecap:butt;stroke-linejoin:miter;stroke:rgb(0%,0%,0%);stroke-opacity:1;stroke-miterlimit:4;" d="M 242.499927 67.499756 L 258.499984 55.500488 L 274.500041 64.000228 " transform="matrix(3.779528,0,0,3.779528,0,0)"/>
<path style="fill:none;stroke-width:2;stroke-linecap:butt;stroke-linejoin:miter;stroke:rgb(0%,0%,0%);stroke-opacity:1;stroke-miterlimit:4;" d="M 264.000423 57.500366 L 273.999813 73.500423 L 273.999813 85.999919 " transform="matrix(3.779528,0,0,3.779528,0,0)"/>
<path style="fill:none;stroke-width:2;stroke-linecap:butt;stroke-linejoin:miter;stroke:rgb(0%,0%,0%);stroke-opacity:1;stroke-miterlimit:4;" d="M 293.999626 75.999495 L 277.999569 39.500431 L 261.999512 28.000358 L 246.000488 23.999569 L 230.499626 22.499919 L 214.999797 25.000024 L 198.99974 30.999658 L 182.999683 42.999959 " transform="matrix(3.779528,0,0,3.779528,0,0)"/>
<path style="fill:none;stroke-width:2;stroke-linecap:butt;stroke-linejoin:miter;stroke:rgb(0%,0%,0%);stroke-opacity:1;stroke-miterlimit:4;" d="M 173.999715 41.999504 L 173.999715 34.50022 L 189.999772 28.000358 L 205.499601 19.999813 L 221.499658 17.499707 L 237.499715 17.000513 L 253.499772 19.499585 L 269.499829 27.50013 L 285.499886 39.500431 " transform="matrix(3.779528,0,0,3.779528,0,0)"/>
<path style="fill:none;stroke-width:2;stroke-linecap:butt;stroke-linejoin:miter;stroke:rgb(0%,0%,0%);stroke-opacity:1;stroke-miterlimit:4;" d="M 259.999634 62.499544 L 267.499951 78.000407 " transform="matrix(3.779528,0,0,3.779528,0,0)"/>
<path style="fill:none;stroke-width:2;stroke-linecap:butt;stroke-linejoin:miter;stroke:rgb(0%,0%,0%);stroke-opacity:1;stroke-miterlimit:4;" d="M 264.000423 93.500236 L 250.000244 87.499569 L 241.999699 71.499512 L 254 55.00026 " transform="matrix(3.779528,0,0,3.779528,0,0)"/>
<path style="fill:none;stroke-width:2;stroke-linecap:butt;stroke-linejoin:miter;stroke:rgb(0%,0%,0%);stroke-opacity:1;stroke-miterlimit:4;" d="M 264.000423 66.000106 L 257.999756 71.99974 L 255.999878 85.499691 L 236.000065 83.499813 L 214.000374 73.999618 L 207.500513 63.5 L 201.499845 83.499813 L 195.500212 87.499569 L 189.999772 71.499512 L 202.000073 55.500488 " transform="matrix(3.779528,0,0,3.779528,0,0)"/>
<path style="fill:none;stroke-width:2;stroke-linecap:butt;stroke-linejoin:miter;stroke:rgb(0%,0%,0%);stroke-opacity:1;stroke-miterlimit:4;" d="M 191.000228 72.499967 L 207.000285 56.49991 L 223.000342 62.499544 L 221.499658 68.500212 L 217.499902 72.499967 L 225.500448 82.500391 L 209.000163 92.49978 L 225.00022 80.500513 " transform="matrix(3.779528,0,0,3.779528,0,0)"/>
<path style="fill:none;stroke-width:2;stroke-linecap:butt;stroke-linejoin:miter;stroke:rgb(0%,0%,0%);stroke-opacity:1;stroke-miterlimit:4;" d="M 203.999951 134.500317 L 184.000138 118.50026 L 178.000505 102.500203 L 178.000505 85.999919 L 175.500399 69.499634 L 177.500277 53.000382 L 185.499788 37.000326 L 215.500024 21.000269 " transform="matrix(3.779528,0,0,3.779528,0,0)"/>
<path style="fill:none;stroke-width:2;stroke-linecap:butt;stroke-linejoin:miter;stroke:rgb(0%,0%,0%);stroke-opacity:1;stroke-miterlimit:4;" d="M 248.999788 19.499585 L 279.000024 35.499642 L 289.499642 51.499699 L 293.500431 67.499756 L 300.000293 82.999585 L 295.999504 99.49987 L 286.000114 115.499927 L 268.000179 132.000212 L 246.000488 148.000269 L 248.000366 164.49952 " transform="matrix(3.779528,0,0,3.779528,0,0)"/>
<path style="fill:none;stroke-width:2;stroke-linecap:butt;stroke-linejoin:miter;stroke:rgb(0%,0%,0%);stroke-opacity:1;stroke-miterlimit:4;" d="M 232.000309 164.999748 L 216.000252 164.999748 L 207.999707 170.500187 L 189.999772 180.000382 L 173.499487 177.500277 L 157.500464 175.500399 L 141.500407 175.500399 L 125.50035 184.999561 L 109.500293 198.99974 L 93.500236 228.999976 " transform="matrix(3.779528,0,0,3.779528,0,0)"/>
<path style="fill:none;stroke-width:2;stroke-linecap:butt;stroke-linejoin:miter;stroke:rgb(0%,0%,0%);stroke-opacity:1;stroke-miterlimit:4;" d="M 113.500049 256.500106 L 135.49974 282.499552 L 127 298.499609 L 119.000488 314.499666 L 110.499715 329.999495 " transform="matrix(3.779528,0,0,3.779528,0,0)"/>
<path style="fill:none;stroke-width:2;stroke-linecap:butt;stroke-linejoin:miter;stroke:rgb(0%,0%,0%);stroke-opacity:1;stroke-miterlimit:4;" d="M 101.999976 303.499821 L 85.999919 303.499821 " transform="matrix(3.779528,0,0,3.779528,0,0)"/>
<path style="fill:none;stroke-width:2;stroke-linecap:butt;stroke-linejoin:miter;stroke:rgb(0%,0%,0%);stroke-opacity:1;stroke-miterlimit:4;" d="M 91.500358 297.500187 L 107.500415 299.500065 " transform="matrix(3.779528,0,0,3.779528,0,0)"/>
<path style="fill:none;stroke-width:2;stroke-linecap:butt;stroke-linejoin:miter;stroke:rgb(0%,0%,0%);stroke-opacity:1;stroke-miterlimit:4;" d="M 127 286.999536 L 110.999943 320.999528 L 94.999886 339.499691 L 78.999829 332.000407 " transform="matrix(3.779528,0,0,3.779528,0,0)"/>
<path style="fill:none;stroke-width:2;stroke-linecap:butt;stroke-linejoin:miter;stroke:rgb(0%,0%,0%);stroke-opacity:1;stroke-miterlimit:4;" d="M 80.999707 335.499935 L 96.999764 345.500358 L 112.999821 329.500301 L 128.49965 295.500309 L 144.000513 271.000513 L 159.999536 273.000391 L 175.999593 261.00009 L 191.99965 255.49965 L 207.999707 252.000122 L 223.999764 250.500472 L 239.999821 250.500472 L 271.999935 253.499772 L 287.999992 261.500317 L 305.499699 275.500496 L 311.500366 291.49952 L 319.499878 307.000382 L 321.999984 323.000439 L 328.499845 339.499691 L 324.50009 355.499748 L 324.50009 371.499805 L 326.499967 388.00009 L 325.99974 404.000146 L 319.499878 419.499976 L 335.499935 435.500033 " transform="matrix(3.779528,0,0,3.779528,0,0)"/>
<path style="fill:none;stroke-width:2;stroke-linecap:butt;stroke-linejoin:miter;stroke:rgb(0%,0%,0%);stroke-opacity:1;stroke-miterlimit:4;" d="M 298.499609 401.500041 L 306.500155 417.500098 L 313.500244 433.500155 L 320.000106 449.500212 L 327.999618 465.500269 L 336.000163 481.99952 L 338.000041 497.999577 " transform="matrix(3.779528,0,0,3.779528,0,0)"/>
<path style="fill:none;stroke-width:2;stroke-linecap:butt;stroke-linejoin:miter;stroke:rgb(0%,0%,0%);stroke-opacity:1;stroke-miterlimit:4;" d="M 329.500301 459.999829 L 314.000472 432.000505 L 297.500187 398.000513 L 281.50013 388.500317 L 265.500073 384.499528 L 255.49965 380.499772 L 255.49965 364.499715 " transform="matrix(3.779528,0,0,3.779528,0,0)"/>
<path style="fill:none;stroke-width:2;stroke-linecap:butt;stroke-linejoin:miter;stroke:rgb(0%,0%,0%);stroke-opacity:1;stroke-miterlimit:4;" d="M 221.499658 305.499699 L 205.499601 291.999748 " transform="matrix(3.779528,0,0,3.779528,0,0)"/>
<path style="fill:none;stroke-width:2;stroke-linecap:butt;stroke-linejoin:miter;stroke:rgb(0%,0%,0%);stroke-opacity:1;stroke-miterlimit:4;" d="M 202.000073 277.500374 L 202.000073 271.499707 L 207.999707 289.000448 L 218.00013 305.000505 " transform="matrix(3.779528,0,0,3.779528,0,0)"/>
<path style="fill:none;stroke-width:2;stroke-linecap:butt;stroke-linejoin:miter;stroke:rgb(0%,0%,0%);stroke-opacity:1;stroke-miterlimit:4;" d="M 200.000195 266.999723 L 216.000252 262.999967 L 242.499927 257.000334 L 258.499984 256.500106 " transform="matrix(3.779528,0,0,3.779528,0,0)"/>
<path style="fill:none;stroke-width:2;stroke-linecap:butt;stroke-linejoin:miter;stroke:rgb(0%,0%,0%);stroke-opacity:1;stroke-miterlimit:4;" d="M 266.499495 254.500228 L 280.999902 270.500285 L 282.99978 286.500342 L 277.000146 302.000171 L 268.999601 318.000228 L 257.000334 333.500057 L 257.000334 345.500358 L 266.999723 329.000073 L 283.500008 296.999959 " transform="matrix(3.779528,0,0,3.779528,0,0)"/>
<path style="fill:none;stroke-width:2;stroke-linecap:butt;stroke-linejoin:miter;stroke:rgb(0%,0%,0%);stroke-opacity:1;stroke-miterlimit:4;" d="M 286.500342 296.499731 L 280.499674 312.499788 L 270.500285 328.499845 L 276.499919 328.499845 L 292.499976 292.499976 " transform="matrix(3.779528,0,0,3.779528,0,0)"/>
<path style="fill:none;stroke-width:2;stroke-linecap:butt;stroke-linejoin:miter;stroke:rgb(0%,0%,0%);stroke-opacity:1;stroke-miterlimit:4;" d="M 214.499569 266.999723 L 208.499935 259.000212 L 192.499878 264.999845 " transform="matrix(3.779528,0,0,3.779528,0,0)"/>
<path style="fill:none;stroke-width:2;stroke-linecap:butt;stroke-linejoin:miter;stroke:rgb(0%,0%,0%);stroke-opacity:1;stroke-miterlimit:4;" d="M 193.000106 254.500228 L 162.99987 270.500285 L 162.99987 299.500065 L 171.000415 305.499699 L 177.000049 320.999528 L 191.500456 336.999585 L 207.999707 357.499626 L 203.999951 375.499561 L 207.999707 391.499618 L 193.999528 397.500285 L 203.999951 397.500285 L 202.000073 407.00048 L 218.00013 427.000293 L 234.000187 432.999927 L 250.000244 425.000415 " transform="matrix(3.779528,0,0,3.779528,0,0)"/>
<path style="fill:none;stroke-width:2;stroke-linecap:butt;stroke-linejoin:miter;stroke:rgb(0%,0%,0%);stroke-opacity:1;stroke-miterlimit:4;" d="M 202.000073 311.500366 L 185.499788 298.000415 L 181.500033 302.000171 L 165.499976 289.99987 " transform="matrix(3.779528,0,0,3.779528,0,0)"/>
<path style="fill:none;stroke-width:2;stroke-linecap:butt;stroke-linejoin:miter;stroke:rgb(0%,0%,0%);stroke-opacity:1;stroke-miterlimit:4;" d="M 157.000236 293.500431 L 173.000293 313.500244 L 189.00035 334.000285 L 205.499601 348.499658 L 216.000252 356.500203 L 232.499504 354.99952 L 248.499561 356.500203 " transform="matrix(3.779528,0,0,3.779528,0,0)"/>
<path style="fill:none;stroke-width:2;stroke-linecap:butt;stroke-linejoin:miter;stroke:rgb(0%,0%,0%);stroke-opacity:1;stroke-miterlimit:4;" d="M 194.499756 343.000252 L 178.999927 326.499967 L 162.99987 302.500399 " transform="matrix(3.779528,0,0,3.779528,0,0)"/>
<path style="fill:none;stroke-width:2;stroke-linecap:butt;stroke-linejoin:miter;stroke:rgb(0%,0%,0%);stroke-opacity:1;stroke-miterlimit:4;" d="M 202.000073 257.999756 L 191.99965 273.999813 L 198.000317 286.000114 L 184.000138 296.499731 L 193.999528 306.500155 L 187.999894 314.499666 L 203.499723 316.499544 L 200.999618 318.500456 L 211.000041 320.500334 L 237.499715 307.999805 " transform="matrix(3.779528,0,0,3.779528,0,0)"/>
<path style="fill:none;stroke-width:2;stroke-linecap:butt;stroke-linejoin:miter;stroke:rgb(0%,0%,0%);stroke-opacity:1;stroke-miterlimit:4;" d="M 346.49978 302.000171 L 324.50009 302.000171 L 323.999862 304.000049 L 316.00035 287.999992 L 309.500488 271.999935 L 317.5 260.499862 L 319.499878 244.499805 L 315.500122 240.500049 L 319.499878 224.499992 L 317.5 208.499935 " transform="matrix(3.779528,0,0,3.779528,0,0)"/>
<path style="fill:none;stroke-width:2;stroke-linecap:butt;stroke-linejoin:miter;stroke:rgb(0%,0%,0%);stroke-opacity:1;stroke-miterlimit:4;" d="M 289.000448 198.499512 L 284.999658 182.500488 " transform="matrix(3.779528,0,0,3.779528,0,0)"/>
<path style="fill:none;stroke-width:2;stroke-linecap:butt;stroke-linejoin:miter;stroke:rgb(0%,0%,0%);stroke-opacity:1;stroke-miterlimit:4;" d="M 298.499609 175.000171 L 314.499666 190.5 L 330.499723 192.499878 L 348.499658 208.499935 L 354.500326 224.499992 L 352.500448 240.500049 L 352.999642 258.499984 L 357.000431 274.500041 L 359.499504 289.99987 L 357.000431 305.999927 L 359.000309 322.500212 L 357.000431 336.000163 L 348.999886 348.000464 L 339.000496 375.499561 L 334.500513 401.500041 L 350.000342 401.500041 L 366.000399 391.499618 L 369.499927 365.500171 " transform="matrix(3.779528,0,0,3.779528,0,0)"/>
<path style="fill:none;stroke-width:2;stroke-linecap:butt;stroke-linejoin:miter;stroke:rgb(0%,0%,0%);stroke-opacity:1;stroke-miterlimit:4;" d="M 146.999813 178.999927 L 142.499829 194.999984 L 144.999935 211.000041 L 144.499707 227.000098 L 142.499829 242.499927 L 139.999723 258.499984 L 136.500195 272.500163 L 127 287.999992 L 121.499561 304.000049 L 113.500049 319.499878 L 103.499626 336.000163 L 111.500171 354.000098 L 99.49987 370.000155 L 87.000374 386.000212 L 72.499967 401.500041 L 66.000106 418.000326 " transform="matrix(3.779528,0,0,3.779528,0,0)"/>
<path style="fill:none;stroke-width:2;stroke-linecap:butt;stroke-linejoin:miter;stroke:rgb(0%,0%,0%);stroke-opacity:1;stroke-miterlimit:4;" d="M 57.000138 418.49952 L 59.500244 400.999813 L 75.500301 388.999512 L 89.50048 373.000488 L 101.499748 357.000431 L 91.999552 341.000374 L 80.000285 339.000496 " transform="matrix(3.779528,0,0,3.779528,0,0)"/>
<path style="fill:none;stroke-width:2;stroke-linecap:butt;stroke-linejoin:miter;stroke:rgb(0%,0%,0%);stroke-opacity:1;stroke-miterlimit:4;" d="M 68.500212 338.500269 L 58.499788 354.500326 L 52.500155 370.500382 " transform="matrix(3.779528,0,0,3.779528,0,0)"/>
<path style="fill:none;stroke-width:2;stroke-linecap:butt;stroke-linejoin:miter;stroke:rgb(0%,0%,0%);stroke-opacity:1;stroke-miterlimit:4;" d="M 60.999894 425.499609 L 44.999837 425.499609 L 28.99978 431.000049 L 23.000146 416.99987 L 16.500285 425.000415 L 23.000146 409.000358 L 35.000448 393.000301 L 39.000203 377.000244 L 44.999837 361.500415 L 48.999593 345.999552 L 60.999894 329.999495 L 75.000073 314.000472 L 82.999585 282.000358 L 88.500024 265.500073 L 94.499658 250.000244 L 94.000464 234.500415 L 98.00022 218.500358 L 107.500415 202.000073 L 125.999544 186.000016 " transform="matrix(3.779528,0,0,3.779528,0,0)"/>
<path style="fill:none;stroke-width:2;stroke-linecap:butt;stroke-linejoin:miter;stroke:rgb(0%,0%,0%);stroke-opacity:1;stroke-miterlimit:4;" d="M 296.999959 100.500326 L 280.999902 124.499894 L 264.499618 134.00009 L 248.499561 141.999601 L 271.999935 121.499561 L 286.000114 105.499504 L 289.499642 89.50048 L 291.49952 73.500423 L 284.999658 57.500366 L 277.500374 41.999504 L 250.999666 26.00048 " transform="matrix(3.779528,0,0,3.779528,0,0)"/>
</g>
</svg>
