<?xml version="1.0" encoding="UTF-8"?>
<svg xmlns="http://www.w3.org/2000/svg" xmlns:xlink="http://www.w3.org/1999/xlink" width="1935.11811" height="1935.11811" viewBox="0 0 1935.11811 1935.11811" version="1.1">
<g id="surface1">
<path style="fill:none;stroke-width:2;stroke-linecap:butt;stroke-linejoin:miter;stroke:rgb(0%,0%,0%);stroke-opacity:1;stroke-miterlimit:4;" d="M 345.500358 8.49974 L 313.500244 24.499797 L 307.499577 40.499854 L 309.500488 60.499666 L 301.499943 76.999951 L 307.499577 93.000008 " transform="matrix(3.779528,0,0,3.779528,0,0)"/>
<path style="fill:none;stroke-width:2;stroke-linecap:butt;stroke-linejoin:miter;stroke:rgb(0%,0%,0%);stroke-opacity:1;stroke-miterlimit:4;" d="M 309.00026 89.999674 L 325.000317 101.499748 L 341.000374 99.49987 L 357.000431 91.500358 L 373.000488 75.500301 L 388.500317 50.000049 " transform="matrix(3.779528,0,0,3.779528,0,0)"/>
<path style="fill:none;stroke-width:2;stroke-linecap:butt;stroke-linejoin:miter;stroke:rgb(0%,0%,0%);stroke-opacity:1;stroke-miterlimit:4;" d="M 375.499561 53.000382 L 359.499504 41.000081 " transform="matrix(3.779528,0,0,3.779528,0,0)"/>
<path style="fill:none;stroke-width:2;stroke-linecap:butt;stroke-linejoin:miter;stroke:rgb(0%,0%,0%);stroke-opacity:1;stroke-miterlimit:4;" d="M 347.500236 33.499764 L 363.500293 29.500008 L 371.499805 21.500496 L 359.499504 37.49952 L 368.000277 53.499577 L 370.000155 69.499634 L 354.500326 85.499691 " transform="matrix(3.779528,0,0,3.779528,0,0)"/>
<path style="fill:none;stroke-width:2;stroke-linecap:butt;stroke-linejoin:miter;stroke:rgb(0%,0%,0%);stroke-opacity:1;stroke-miterlimit:4;" d="M 343.999674 73.000195 L 343.50048 57.000138 L 311.500366 41.000081 L 321.499756 24.499797 L 339.499691 26.999902 " transform="matrix(3.779528,0,0,3.779528,0,0)"/>
<path style="fill:none;stroke-width:2;stroke-linecap:butt;stroke-linejoin:miter;stroke:rgb(0%,0%,0%);stroke-opacity:1;stroke-miterlimit:4;" d="M 345.999552 25.000024 L 339.999919 25.500252 L 338.000041 41.500309 L 354.000098 43.500187 L 370.000155 53.499577 " transform="matrix(3.779528,0,0,3.779528,0,0)"/>
<path style="fill:none;stroke-width:2;stroke-linecap:butt;stroke-linejoin:miter;stroke:rgb(0%,0%,0%);stroke-opacity:1;stroke-miterlimit:4;" d="M 343.999674 53.499577 L 327.999618 51.999927 L 311.999561 38.499976 " transform="matrix(3.779528,0,0,3.779528,0,0)"/>
<path style="fill:none;stroke-width:2;stroke-linecap:butt;stroke-linejoin:miter;stroke:rgb(0%,0%,0%);stroke-opacity:1;stroke-miterlimit:4;" d="M 313.000016 31.499886 L 329.500301 19.999813 L 345.999552 15.499829 L 361.999609 10.999845 L 388.500317 5.000212 L 412.499886 21.000269 L 414.499764 37.000326 L 407.00048 53.499577 L 397.000057 69.499634 L 376.500016 85.000496 L 348.499658 94.999886 " transform="matrix(3.779528,0,0,3.779528,0,0)"/>
<path style="fill:none;stroke-width:2;stroke-linecap:butt;stroke-linejoin:miter;stroke:rgb(0%,0%,0%);stroke-opacity:1;stroke-miterlimit:4;" d="M 324.50009 62.00035 L 308.500033 66.500334 " transform="matrix(3.779528,0,0,3.779528,0,0)"/>
<path style="fill:none;stroke-width:2;stroke-linecap:butt;stroke-linejoin:miter;stroke:rgb(0%,0%,0%);stroke-opacity:1;stroke-miterlimit:4;" d="M 307.000382 66.500334 L 307.000382 82.500391 L 325.000317 98.00022 " transform="matrix(3.779528,0,0,3.779528,0,0)"/>
<path style="fill:none;stroke-width:2;stroke-linecap:butt;stroke-linejoin:miter;stroke:rgb(0%,0%,0%);stroke-opacity:1;stroke-miterlimit:4;" d="M 303.499821 82.000163 L 319.499878 93.500236 L 335.499935 95.500114 L 351.499992 87.499569 L 367.500049 71.499512 " transform="matrix(3.779528,0,0,3.779528,0,0)"/>
<path style="fill:none;stroke-width:2;stroke-linecap:butt;stroke-linejoin:miter;stroke:rgb(0%,0%,0%);stroke-opacity:1;stroke-miterlimit:4;" d="M 338.000041 80.999707 L 338.000041 64.99965 L 318.000228 57.500366 L 302.000171 65.499878 " transform="matrix(3.779528,0,0,3.779528,0,0)"/>
<path style="fill:none;stroke-width:2;stroke-linecap:butt;stroke-linejoin:miter;stroke:rgb(0%,0%,0%);stroke-opacity:1;stroke-miterlimit:4;" d="M 306.500155 32.999536 L 322.500212 18.500163 L 339.000496 10.499618 L 355.499748 8.49974 L 371.499805 6.499862 L 387.499862 6.499862 L 400.000391 2.500106 L 409.99978 4.499984 L 416.000448 12.499495 " transform="matrix(3.779528,0,0,3.779528,0,0)"/>
<path style="fill:none;stroke-width:2;stroke-linecap:butt;stroke-linejoin:miter;stroke:rgb(0%,0%,0%);stroke-opacity:1;stroke-miterlimit:4;" d="M 408.50013 23.999569 L 391.999845 12.000301 L 375.999788 10.000423 " transform="matrix(3.779528,0,0,3.779528,0,0)"/>
<path style="fill:none;stroke-width:2;stroke-linecap:butt;stroke-linejoin:miter;stroke:rgb(0%,0%,0%);stroke-opacity:1;stroke-miterlimit:4;" d="M 377.500472 12.999723 L 385.499984 28.99978 L 383.500106 44.999837 L 371.499805 49.499821 L 375.999788 67.999984 L 366.000399 84.500269 L 382.000456 74.499845 L 398.000513 58.499788 " transform="matrix(3.779528,0,0,3.779528,0,0)"/>
<path style="fill:none;stroke-width:2;stroke-linecap:butt;stroke-linejoin:miter;stroke:rgb(0%,0%,0%);stroke-opacity:1;stroke-miterlimit:4;" d="M 413.000114 54.500033 L 411.000236 70.50009 L 409.000358 85.999919 " transform="matrix(3.779528,0,0,3.779528,0,0)"/>
<path style="fill:none;stroke-width:2;stroke-linecap:butt;stroke-linejoin:miter;stroke:rgb(0%,0%,0%);stroke-opacity:1;stroke-miterlimit:4;" d="M 416.000448 53.000382 L 432.000505 46.999715 L 433.500155 54.500033 L 427.499487 70.50009 L 425.999837 82.999585 L 420.000203 87.000374 L 436.00026 76.999951 L 451.50009 81.499935 L 468.000374 69.499634 L 481.99952 57.500366 L 488.000187 45.500065 L 504.000244 43.500187 L 493.999821 60.000472 L 493.999821 75.999495 L 500.000488 76.499723 " transform="matrix(3.779528,0,0,3.779528,0,0)"/>
<path style="fill:none;stroke-width:2;stroke-linecap:butt;stroke-linejoin:miter;stroke:rgb(0%,0%,0%);stroke-opacity:1;stroke-miterlimit:4;" d="M 497.500382 76.499723 L 497.500382 60.499666 " transform="matrix(3.779528,0,0,3.779528,0,0)"/>
<path style="fill:none;stroke-width:2;stroke-linecap:butt;stroke-linejoin:miter;stroke:rgb(0%,0%,0%);stroke-opacity:1;stroke-miterlimit:4;" d="M 490.000065 55.999683 L 483.500203 71.99974 " transform="matrix(3.779528,0,0,3.779528,0,0)"/>
<path style="fill:none;stroke-width:2;stroke-linecap:butt;stroke-linejoin:miter;stroke:rgb(0%,0%,0%);stroke-opacity:1;stroke-miterlimit:4;" d="M 480.49987 76.499723 L 480.49987 66.500334 L 488.500415 51.000505 " transform="matrix(3.779528,0,0,3.779528,0,0)"/>
<path style="fill:none;stroke-width:2;stroke-linecap:butt;stroke-linejoin:miter;stroke:rgb(0%,0%,0%);stroke-opacity:1;stroke-miterlimit:4;" d="M 490.999487 50.000049 L 462.499935 52.500155 L 445.99965 48.500399 L 426.500065 60.499666 L 432.499699 62.999772 L 441.000472 75.000073 L 440.500244 59.000016 L 450.999862 53.000382 " transform="matrix(3.779528,0,0,3.779528,0,0)"/>
<path style="fill:none;stroke-width:2;stroke-linecap:butt;stroke-linejoin:miter;stroke:rgb(0%,0%,0%);stroke-opacity:1;stroke-miterlimit:4;" d="M 450.000439 51.999927 L 441.999894 66.000106 L 440.000016 64.000228 L 423.499731 79.500057 L 413.500342 77.500179 L 413.500342 62.00035 L 418.000326 46.499487 " transform="matrix(3.779528,0,0,3.779528,0,0)"/>
<path style="fill:none;stroke-width:2;stroke-linecap:butt;stroke-linejoin:miter;stroke:rgb(0%,0%,0%);stroke-opacity:1;stroke-miterlimit:4;" d="M 385.499984 55.500488 L 391.999845 39.500431 L 388.00009 23.500374 " transform="matrix(3.779528,0,0,3.779528,0,0)"/>
<path style="fill:none;stroke-width:2;stroke-linecap:butt;stroke-linejoin:miter;stroke:rgb(0%,0%,0%);stroke-opacity:1;stroke-miterlimit:4;" d="M 389.49974 25.500252 L 373.000488 29.500008 L 357.499626 39.999626 L 375.000366 21.999691 " transform="matrix(3.779528,0,0,3.779528,0,0)"/>
<path style="fill:none;stroke-width:2;stroke-linecap:butt;stroke-linejoin:miter;stroke:rgb(0%,0%,0%);stroke-opacity:1;stroke-miterlimit:4;" d="M 388.999512 11.500073 L 409.000358 27.50013 L 405.499797 43.500187 L 395.500407 59.500244 L 379.999544 75.000073 L 359.999731 97.499992 L 375.999788 85.499691 L 391.999845 73.999618 L 407.999902 51.999927 L 420.000203 46.499487 L 436.00026 50.500277 L 452.000317 42.999959 L 467.500146 53.000382 L 481.500326 48.500399 L 497.500382 38.499976 " transform="matrix(3.779528,0,0,3.779528,0,0)"/>
<path style="fill:none;stroke-width:2;stroke-linecap:butt;stroke-linejoin:miter;stroke:rgb(0%,0%,0%);stroke-opacity:1;stroke-miterlimit:4;" d="M 465.500269 51.499699 L 469.500024 67.499756 L 451.50009 83.499813 " transform="matrix(3.779528,0,0,3.779528,0,0)"/>
<path style="fill:none;stroke-width:2;stroke-linecap:butt;stroke-linejoin:miter;stroke:rgb(0%,0%,0%);stroke-opacity:1;stroke-miterlimit:4;" d="M 454.000195 75.999495 L 452.000317 75.999495 L 466.000496 59.500244 L 456.000073 43.500187 " transform="matrix(3.779528,0,0,3.779528,0,0)"/>
<path style="fill:none;stroke-width:2;stroke-linecap:butt;stroke-linejoin:miter;stroke:rgb(0%,0%,0%);stroke-opacity:1;stroke-miterlimit:4;" d="M 502.000366 179.500155 L 486.000309 177.500277 L 453.499967 177.500277 L 436.999683 179.500155 L 420.500431 193.999528 L 410.500008 186.500244 L 395.000179 184.500366 " transform="matrix(3.779528,0,0,3.779528,0,0)"/>
<path style="fill:none;stroke-width:2;stroke-linecap:butt;stroke-linejoin:miter;stroke:rgb(0%,0%,0%);stroke-opacity:1;stroke-miterlimit:4;" d="M 400.499585 187.499666 L 416.499642 193.999528 " transform="matrix(3.779528,0,0,3.779528,0,0)"/>
<path style="fill:none;stroke-width:2;stroke-linecap:butt;stroke-linejoin:miter;stroke:rgb(0%,0%,0%);stroke-opacity:1;stroke-miterlimit:4;" d="M 431.500277 193.999528 L 447.500334 193.999528 L 463.500391 194.499756 L 479.999642 194.499756 L 495.999699 192.499878 L 510.500106 192.499878 L 506.50035 208.499935 L 504.500472 223.999764 L 488.500415 250.000244 L 488.000187 255.49965 L 493.499593 247.500138 L 493.999821 263.500195 " transform="matrix(3.779528,0,0,3.779528,0,0)"/>
<path style="fill:none;stroke-width:2;stroke-linecap:butt;stroke-linejoin:miter;stroke:rgb(0%,0%,0%);stroke-opacity:1;stroke-miterlimit:4;" d="M 474.000008 263.500195 L 457.999951 261.500317 " transform="matrix(3.779528,0,0,3.779528,0,0)"/>
<path style="fill:none;stroke-width:2;stroke-linecap:butt;stroke-linejoin:miter;stroke:rgb(0%,0%,0%);stroke-opacity:1;stroke-miterlimit:4;" d="M 428.499943 221.499658 L 479.500448 221.499658 L 497.500382 223.499536 " transform="matrix(3.779528,0,0,3.779528,0,0)"/>
<path style="fill:none;stroke-width:2;stroke-linecap:butt;stroke-linejoin:miter;stroke:rgb(0%,0%,0%);stroke-opacity:1;stroke-miterlimit:4;" d="M 498.499805 209.500391 L 500.499683 193.500334 " transform="matrix(3.779528,0,0,3.779528,0,0)"/>
<path style="fill:none;stroke-width:2;stroke-linecap:butt;stroke-linejoin:miter;stroke:rgb(0%,0%,0%);stroke-opacity:1;stroke-miterlimit:4;" d="M 506.50035 265.500073 L 496.499927 250.000244 L 504.000244 234.000187 L 509.999878 210.499813 L 491.999943 218.999552 L 475.499658 216.999674 L 459.999829 218.999552 L 444.5 216.50048 L 428.499943 212.000496 L 427.999715 215.500024 L 425.999837 207.500513 L 424.500187 191.000228 L 413.000114 187.499666 L 407.00048 199.499967 L 374.500138 199.499967 " transform="matrix(3.779528,0,0,3.779528,0,0)"/>
<path style="fill:none;stroke-width:2;stroke-linecap:butt;stroke-linejoin:miter;stroke:rgb(0%,0%,0%);stroke-opacity:1;stroke-miterlimit:4;" d="M 371.499805 200.999618 L 371.499805 194.499756 L 373.499683 192.499878 L 361.500415 198.499512 L 361.500415 214.499569 L 364.999943 214.499569 L 354.99952 220.500236 L 342.500024 234.999609 L 330.499723 259.500439 L 336.000163 237.499715 L 339.499691 247.500138 L 355.499748 247.500138 L 371.499805 246.99991 L 379.999544 261.00009 L 394.499951 246.499683 L 411.000236 246.000488 L 426.500065 251.499894 L 434.000382 261.500317 L 447.500334 247.500138 L 445.500456 257.499528 L 448.999984 268.999601 L 465.500269 269.499829 L 497.999577 269.499829 " transform="matrix(3.779528,0,0,3.779528,0,0)"/>
<path style="fill:none;stroke-width:2;stroke-linecap:butt;stroke-linejoin:miter;stroke:rgb(0%,0%,0%);stroke-opacity:1;stroke-miterlimit:4;" d="M 508 252.999544 L 488.000187 241.000277 L 471.499902 241.000277 L 456.000073 243.500382 L 440.000016 243.999577 L 423.499731 243.999577 L 407.499674 241.999699 L 391.999845 242.499927 L 375.999788 242.499927 L 359.999731 241.999699 L 343.999674 241.500505 " transform="matrix(3.779528,0,0,3.779528,0,0)"/>
<path style="fill:none;stroke-width:2;stroke-linecap:butt;stroke-linejoin:miter;stroke:rgb(0%,0%,0%);stroke-opacity:1;stroke-miterlimit:4;" d="M 343.999674 234.000187 L 343.999674 237.999943 L 360.499959 235.499837 L 376.500016 236.000065 " transform="matrix(3.779528,0,0,3.779528,0,0)"/>
<path style="fill:none;stroke-width:2;stroke-linecap:butt;stroke-linejoin:miter;stroke:rgb(0%,0%,0%);stroke-opacity:1;stroke-miterlimit:4;" d="M 418.000326 263.500195 L 401.500041 262.999967 L 384.999756 259.000212 L 359.000309 261.00009 L 342.500024 260.499862 L 325.99974 255.000456 " transform="matrix(3.779528,0,0,3.779528,0,0)"/>
<path style="fill:none;stroke-width:2;stroke-linecap:butt;stroke-linejoin:miter;stroke:rgb(0%,0%,0%);stroke-opacity:1;stroke-miterlimit:4;" d="M 325.99974 264.499618 L 341.999797 264.999845 L 357.499626 266.999723 L 373.499683 266.999723 L 389.999967 268.500407 L 406.000024 270.000057 L 421.499854 268.000179 L 436.999683 268.000179 L 452.99974 261.999512 L 461.500513 248.000366 L 471.499902 252.000122 " transform="matrix(3.779528,0,0,3.779528,0,0)"/>
<path style="fill:none;stroke-width:2;stroke-linecap:butt;stroke-linejoin:miter;stroke:rgb(0%,0%,0%);stroke-opacity:1;stroke-miterlimit:4;" d="M 479.00022 311.999561 L 463.000163 311.999561 L 450.999862 327.999618 L 434.999805 327.999618 L 422.999504 311.999561 L 407.499674 309.999683 L 391.499618 307.999805 L 375.999788 307.999805 L 360.499959 304.000049 L 344.499902 305.499699 " transform="matrix(3.779528,0,0,3.779528,0,0)"/>
<path style="fill:none;stroke-width:2;stroke-linecap:butt;stroke-linejoin:miter;stroke:rgb(0%,0%,0%);stroke-opacity:1;stroke-miterlimit:4;" d="M 343.50048 297.500187 L 359.499504 295.500309 L 375.499561 295.500309 L 391.499618 297.500187 L 407.999902 291.49952 L 423.999959 285.499886 L 413.999536 287.499764 L 411.500464 298.999837 L 427.000293 298.999837 L 443.499544 300.999715 L 459.999829 300.999715 L 475.499658 303.499821 L 491.499715 305.499699 L 507.499772 289.499642 L 500.000488 289.99987 L 495.999699 305.999927 L 491.999943 321.999984 L 483.500203 342.500024 L 485.500081 359.000309 L 481.500326 373.000488 L 486.000309 379.50035 L 481.99952 395.000179 L 484.000431 411.000236 L 483.500203 427.000293 L 485.500081 443.00035 L 485.500081 458.500179 L 487.499959 474.500236 " transform="matrix(3.779528,0,0,3.779528,0,0)"/>
<path style="fill:none;stroke-width:2;stroke-linecap:butt;stroke-linejoin:miter;stroke:rgb(0%,0%,0%);stroke-opacity:1;stroke-miterlimit:4;" d="M 511.000334 420.000203 L 509.000456 404.000146 L 509.000456 375.999788 " transform="matrix(3.779528,0,0,3.779528,0,0)"/>
<path style="fill:none;stroke-width:2;stroke-linecap:butt;stroke-linejoin:miter;stroke:rgb(0%,0%,0%);stroke-opacity:1;stroke-miterlimit:4;" d="M 479.999642 361.000187 L 463.999585 358.500081 L 447.999528 356.500203 L 425.999837 358.500081 L 409.499552 357.999854 L 393.499495 355.999976 L 375.499561 354.000098 L 359.499504 351.499992 L 343.999674 349.500114 " transform="matrix(3.779528,0,0,3.779528,0,0)"/>
<path style="fill:none;stroke-width:2;stroke-linecap:butt;stroke-linejoin:miter;stroke:rgb(0%,0%,0%);stroke-opacity:1;stroke-miterlimit:4;" d="M 329.000073 361.000187 L 345.00013 365.500171 L 361.000187 367.500049 L 377.500472 367.500049 L 393.999723 368.000277 L 410.500008 372.000033 L 426.500065 373.499683 " transform="matrix(3.779528,0,0,3.779528,0,0)"/>
<path style="fill:none;stroke-width:2;stroke-linecap:butt;stroke-linejoin:miter;stroke:rgb(0%,0%,0%);stroke-opacity:1;stroke-miterlimit:4;" d="M 431.000049 359.499504 L 432.499699 361.999609 L 448.999984 373.99991 L 465.000041 375.999788 L 481.000098 373.99991 " transform="matrix(3.779528,0,0,3.779528,0,0)"/>
<path style="fill:none;stroke-width:2;stroke-linecap:butt;stroke-linejoin:miter;stroke:rgb(0%,0%,0%);stroke-opacity:1;stroke-miterlimit:4;" d="M 424.500187 397.000057 L 422.500309 395.000179 L 406.500252 389.49974 L 390.500195 393.499495 L 374.500138 419.499976 " transform="matrix(3.779528,0,0,3.779528,0,0)"/>
<path style="fill:none;stroke-width:2;stroke-linecap:butt;stroke-linejoin:miter;stroke:rgb(0%,0%,0%);stroke-opacity:1;stroke-miterlimit:4;" d="M 382.000456 413.000114 L 398.000513 428.499943 " transform="matrix(3.779528,0,0,3.779528,0,0)"/>
<path style="fill:none;stroke-width:2;stroke-linecap:butt;stroke-linejoin:miter;stroke:rgb(0%,0%,0%);stroke-opacity:1;stroke-miterlimit:4;" d="M 386.999634 413.999536 L 402.999691 429.500399 L 434.999805 432.999927 " transform="matrix(3.779528,0,0,3.779528,0,0)"/>
<path style="fill:none;stroke-width:2;stroke-linecap:butt;stroke-linejoin:miter;stroke:rgb(0%,0%,0%);stroke-opacity:1;stroke-miterlimit:4;" d="M 420.000203 402.500496 L 404.000146 394.499951 L 388.00009 402.000269 " transform="matrix(3.779528,0,0,3.779528,0,0)"/>
<path style="fill:none;stroke-width:2;stroke-linecap:butt;stroke-linejoin:miter;stroke:rgb(0%,0%,0%);stroke-opacity:1;stroke-miterlimit:4;" d="M 395.500407 395.999601 L 393.499495 411.999658 L 397.500285 440.000016 L 391.000423 452.000317 L 406.500252 449.500212 L 432.000505 454.000195 " transform="matrix(3.779528,0,0,3.779528,0,0)"/>
<path style="fill:none;stroke-width:2;stroke-linecap:butt;stroke-linejoin:miter;stroke:rgb(0%,0%,0%);stroke-opacity:1;stroke-miterlimit:4;" d="M 407.999902 445.99965 L 392.500073 447.999528 L 386.500439 445.500456 L 382.999878 435.500033 L 381 427.999715 L 382.999878 411.999658 " transform="matrix(3.779528,0,0,3.779528,0,0)"/>
<path style="fill:none;stroke-width:2;stroke-linecap:butt;stroke-linejoin:miter;stroke:rgb(0%,0%,0%);stroke-opacity:1;stroke-miterlimit:4;" d="M 400.999813 394.499951 L 429.000171 409.99978 L 418.999748 425.999837 L 409.000358 439.499788 L 406.500252 453.499967 L 422.000081 445.500456 L 420.000203 423.499731 " transform="matrix(3.779528,0,0,3.779528,0,0)"/>
<path style="fill:none;stroke-width:2;stroke-linecap:butt;stroke-linejoin:miter;stroke:rgb(0%,0%,0%);stroke-opacity:1;stroke-miterlimit:4;" d="M 440.500244 441.499666 L 436.999683 431.500277 L 429.500399 423.999959 L 436.00026 407.999902 L 413.999536 391.999845 " transform="matrix(3.779528,0,0,3.779528,0,0)"/>
<path style="fill:none;stroke-width:2;stroke-linecap:butt;stroke-linejoin:miter;stroke:rgb(0%,0%,0%);stroke-opacity:1;stroke-miterlimit:4;" d="M 395.000179 389.49974 L 381 405.499797 L 374.500138 422.000081 L 374.500138 438.000138 L 372.50026 454.000195 L 378.499894 432.000505 L 393.999723 432.000505 L 404.000146 436.500488 L 416.000448 436.500488 L 432.000505 420.999626 " transform="matrix(3.779528,0,0,3.779528,0,0)"/>
<path style="fill:none;stroke-width:2;stroke-linecap:butt;stroke-linejoin:miter;stroke:rgb(0%,0%,0%);stroke-opacity:1;stroke-miterlimit:4;" d="M 439.499788 340.500146 L 423.999959 350.499536 L 416.499642 341.999797 L 400.499585 345.500358 L 384.499528 345.500358 L 368.500505 341.499569 " transform="matrix(3.779528,0,0,3.779528,0,0)"/>
<path style="fill:none;stroke-width:2;stroke-linecap:butt;stroke-linejoin:miter;stroke:rgb(0%,0%,0%);stroke-opacity:1;stroke-miterlimit:4;" d="M 359.999731 324.50009 L 375.999788 324.50009 L 391.999845 325.99974 L 407.999902 325.99974 L 423.999959 327.500423 L 434.499577 314.999894 L 450.499634 313.500244 " transform="matrix(3.779528,0,0,3.779528,0,0)"/>
<path style="fill:none;stroke-width:2;stroke-linecap:butt;stroke-linejoin:miter;stroke:rgb(0%,0%,0%);stroke-opacity:1;stroke-miterlimit:4;" d="M 450.999862 314.000472 L 436.999683 317.5 L 445.000228 323.499634 L 465.000041 338.000041 L 468.999797 352.500448 L 484.999854 354.500326 " transform="matrix(3.779528,0,0,3.779528,0,0)"/>
<path style="fill:none;stroke-width:2;stroke-linecap:butt;stroke-linejoin:miter;stroke:rgb(0%,0%,0%);stroke-opacity:1;stroke-miterlimit:4;" d="M 481.000098 336.999585 L 465.000041 334.999707 L 454.999618 350.999764 L 436.999683 336.500391 L 420.500431 342.500024 L 404.500374 341.999797 L 388.500317 329.500301 L 372.50026 330.999951 L 370.000155 337.499813 L 354.000098 341.999797 L 338.000041 339.999919 L 339.999919 328.499845 L 338.000041 312.499788 " transform="matrix(3.779528,0,0,3.779528,0,0)"/>
<path style="fill:none;stroke-width:2;stroke-linecap:butt;stroke-linejoin:miter;stroke:rgb(0%,0%,0%);stroke-opacity:1;stroke-miterlimit:4;" d="M 348.999886 296.499731 L 354.99952 312.499788 L 348.499658 314.499666 L 354.500326 326.499967 L 348.499658 332.499601 L 336.500391 346.49978 L 330.499723 373.99991 L 329.999495 389.999967 L 327.999618 406.000024 L 327.999618 422.000081 L 326.499967 438.000138 L 326.499967 467.500146 L 341.999797 466.999919 L 357.999854 468.999797 L 373.499683 470.999674 L 389.49974 472.500358 L 404.999569 475.000464 L 420.999626 477.000342 L 437.49991 479.00022 L 453.499967 481.500326 L 469.500024 481.500326 L 485.500081 483.500203 " transform="matrix(3.779528,0,0,3.779528,0,0)"/>
<path style="fill:none;stroke-width:2;stroke-linecap:butt;stroke-linejoin:miter;stroke:rgb(0%,0%,0%);stroke-opacity:1;stroke-miterlimit:4;" d="M 492.500171 486.499504 L 491.999943 470.50048 L 492.500171 454.500423 L 490.500293 438.000138 L 490.500293 421.499854 L 488.500415 404.999569 L 486.000309 388.500317 L 474.500236 380.499772 L 458.500179 379.000122 L 441.999894 379.000122 L 425.999837 381 L 409.499552 377.000244 L 393.000301 373.000488 L 377.500472 373.000488 L 361.500415 370.999577 L 345.500358 371.499805 L 329.999495 373.499683 " transform="matrix(3.779528,0,0,3.779528,0,0)"/>
<path style="fill:none;stroke-width:2;stroke-linecap:butt;stroke-linejoin:miter;stroke:rgb(0%,0%,0%);stroke-opacity:1;stroke-miterlimit:4;" d="M 402.500496 313.000016 L 418.49952 315.500122 " transform="matrix(3.779528,0,0,3.779528,0,0)"/>
<path style="fill:none;stroke-width:2;stroke-linecap:butt;stroke-linejoin:miter;stroke:rgb(0%,0%,0%);stroke-opacity:1;stroke-miterlimit:4;" d="M 499.000033 310.49991 L 497.000155 326.499967 L 490.999487 342.500024 L 500.99991 345.999552 L 499.000033 354.000098 " transform="matrix(3.779528,0,0,3.779528,0,0)"/>
<path style="fill:none;stroke-width:2;stroke-linecap:butt;stroke-linejoin:miter;stroke:rgb(0%,0%,0%);stroke-opacity:1;stroke-miterlimit:4;" d="M 502.499561 171.000415 L 486.499504 171.000415 L 470.50048 172.500065 L 454.500423 172.500065 L 438.500366 173.000293 L 422.500309 172.500065 L 407.00048 173.000293 L 391.499618 175.000171 L 375.499561 177.000049 L 359.499504 176.499821 L 343.50048 182.500488 " transform="matrix(3.779528,0,0,3.779528,0,0)"/>
<path style="fill:none;stroke-width:2;stroke-linecap:butt;stroke-linejoin:miter;stroke:rgb(0%,0%,0%);stroke-opacity:1;stroke-miterlimit:4;" d="M 348.499658 176.499821 L 342.500024 192.499878 L 338.500269 224.499992 L 334.500513 240.500049 L 324.50009 256.500106 L 323.000439 280.499674 L 330.499723 287.999992 L 334.500513 304.000049 L 332.499601 319.499878 L 332.499601 334.999707 L 329.999495 351.499992 L 325.99974 367.500049 L 325.99974 384.000334 L 324.50009 400.000391 L 324.50009 416.499642 L 322.500212 432.999927 L 321.499756 465.000041 L 321.499756 480.49987 L 329.500301 496.499927 " transform="matrix(3.779528,0,0,3.779528,0,0)"/>
<path style="fill:none;stroke-width:2;stroke-linecap:butt;stroke-linejoin:miter;stroke:rgb(0%,0%,0%);stroke-opacity:1;stroke-miterlimit:4;" d="M 326.499967 507.499772 L 342.500024 507.499772 " transform="matrix(3.779528,0,0,3.779528,0,0)"/>
<path style="fill:none;stroke-width:2;stroke-linecap:butt;stroke-linejoin:miter;stroke:rgb(0%,0%,0%);stroke-opacity:1;stroke-miterlimit:4;" d="M 327.500423 470.000252 L 343.50048 474.000008 L 359.499504 475.999886 L 375.499561 477.999764 L 391.499618 479.500448 L 407.999902 481.000098 L 423.999959 483.500203 L 440.500244 485.500081 L 456.500301 487.499959 L 472.500358 488.000187 L 488.000187 488.000187 " transform="matrix(3.779528,0,0,3.779528,0,0)"/>
<path style="fill:none;stroke-width:2;stroke-linecap:butt;stroke-linejoin:miter;stroke:rgb(0%,0%,0%);stroke-opacity:1;stroke-miterlimit:4;" d="M 357.000431 508 L 341.000374 500.000488 L 325.000317 480.49987 L 308.500033 472.500358 L 292.499976 465.000041 L 275.999691 465.000041 L 259.999634 468.999797 " transform="matrix(3.779528,0,0,3.779528,0,0)"/>
<path style="fill:none;stroke-width:2;stroke-linecap:butt;stroke-linejoin:miter;stroke:rgb(0%,0%,0%);stroke-opacity:1;stroke-miterlimit:4;" d="M 252.50035 472.999552 L 266.499495 479.00022 " transform="matrix(3.779528,0,0,3.779528,0,0)"/>
<path style="fill:none;stroke-width:2;stroke-linecap:butt;stroke-linejoin:miter;stroke:rgb(0%,0%,0%);stroke-opacity:1;stroke-miterlimit:4;" d="M 279.000024 479.999642 L 275.000269 490.000065 L 261.00009 471.499902 L 270.500285 447.500334 L 282.499552 431.500277 L 289.99987 414.999992 L 311.999561 391.499618 L 311.999561 375.499561 L 314.000472 359.499504 L 314.000472 343.999674 L 316.499544 327.999618 L 316.499544 311.999561 L 318.500456 295.999504 L 318.500456 280.00048 L 317.5 248.000366 L 323.499634 200.000195 L 325.499512 183.49991 L 327.000195 168.000081 L 332.999829 159.999536 " transform="matrix(3.779528,0,0,3.779528,0,0)"/>
<path style="fill:none;stroke-width:2;stroke-linecap:butt;stroke-linejoin:miter;stroke:rgb(0%,0%,0%);stroke-opacity:1;stroke-miterlimit:4;" d="M 327.500423 162.499642 L 343.50048 156.500008 L 359.499504 156.500008 L 375.499561 154.50013 L 391.499618 153.999902 L 407.999902 152.000024 L 424.500187 152.000024 L 440.500244 149.499919 L 456.500301 150.000146 L 472.999552 148.000269 L 488.999609 148.000269 L 504.999666 146.000391 " transform="matrix(3.779528,0,0,3.779528,0,0)"/>
<path style="fill:none;stroke-width:2;stroke-linecap:butt;stroke-linejoin:miter;stroke:rgb(0%,0%,0%);stroke-opacity:1;stroke-miterlimit:4;" d="M 500.499683 152.500252 L 484.499626 154.50013 L 468.499569 155.000358 L 452.99974 154.50013 L 436.500488 156.500008 L 420.500431 157.999658 L 404.500374 158.499886 L 388.500317 157.999658 L 372.000033 157.999658 L 355.999976 162.000448 L 339.999919 164.000326 " transform="matrix(3.779528,0,0,3.779528,0,0)"/>
<path style="fill:none;stroke-width:2;stroke-linecap:butt;stroke-linejoin:miter;stroke:rgb(0%,0%,0%);stroke-opacity:1;stroke-miterlimit:4;" d="M 325.99974 148.999691 L 341.999797 134.999512 L 358.500081 132.999634 L 373.99991 132.999634 L 389.999967 130.999756 L 405.499797 130.499528 L 421.499854 130.499528 L 436.999683 128.49965 L 452.99974 128.000456 L 468.499569 125.50035 L 484.499626 125.50035 L 500.499683 123.500472 " transform="matrix(3.779528,0,0,3.779528,0,0)"/>
<path style="fill:none;stroke-width:2;stroke-linecap:butt;stroke-linejoin:miter;stroke:rgb(0%,0%,0%);stroke-opacity:1;stroke-miterlimit:4;" d="M 509.999878 128.999878 L 478.499992 128.999878 L 461.999707 131.499984 L 445.99965 133.499862 L 429.999593 134.00009 L 413.500342 134.00009 L 398.000513 135.999967 L 382.000456 135.999967 L 366.000399 137.999845 L 350.000342 137.999845 L 334.000285 141.999601 " transform="matrix(3.779528,0,0,3.779528,0,0)"/>
<path style="fill:none;stroke-width:2;stroke-linecap:butt;stroke-linejoin:miter;stroke:rgb(0%,0%,0%);stroke-opacity:1;stroke-miterlimit:4;" d="M 334.500513 134.500317 L 325.000317 150.500374 L 323.000439 166.500431 L 320.999528 182.00026 L 318.99965 198.000317 L 316.999772 213.500146 L 314.999894 229.500203 L 313.000016 245.000033 L 313.500244 261.00009 L 313.500244 277.000146 L 311.500366 293.500431 L 311.500366 309.500488 L 309.500488 325.499512 L 309.500488 341.999797 L 307.000382 358.500081 L 307.000382 374.500138 L 305.000505 391.000423 " transform="matrix(3.779528,0,0,3.779528,0,0)"/>
<path style="fill:none;stroke-width:2;stroke-linecap:butt;stroke-linejoin:miter;stroke:rgb(0%,0%,0%);stroke-opacity:1;stroke-miterlimit:4;" d="M 305.999927 427.499487 L 309.999683 422.999504 L 305.499699 416.99987 L 303.499821 404.999569 L 287.499764 418.999748 L 271.499707 445.500456 L 255.49965 451.50009 L 251.499894 447.500334 L 255.999878 431.500277 L 271.999935 416.000448 L 290.500098 400.000391 L 273.000391 408.50013 L 257.000334 414.499764 L 241.500505 412.499886 " transform="matrix(3.779528,0,0,3.779528,0,0)"/>
<path style="fill:none;stroke-width:2;stroke-linecap:butt;stroke-linejoin:miter;stroke:rgb(0%,0%,0%);stroke-opacity:1;stroke-miterlimit:4;" d="M 262.49974 411.500464 L 246.499683 407.999902 L 230.499626 388.00009 " transform="matrix(3.779528,0,0,3.779528,0,0)"/>
<path style="fill:none;stroke-width:2;stroke-linecap:butt;stroke-linejoin:miter;stroke:rgb(0%,0%,0%);stroke-opacity:1;stroke-miterlimit:4;" d="M 223.499536 386.999634 L 239.499593 429.000171 " transform="matrix(3.779528,0,0,3.779528,0,0)"/>
<path style="fill:none;stroke-width:2;stroke-linecap:butt;stroke-linejoin:miter;stroke:rgb(0%,0%,0%);stroke-opacity:1;stroke-miterlimit:4;" d="M 223.000342 377.500472 L 239.000399 383.500106 L 255.000456 388.00009 L 271.499707 392.500073 L 284.000236 394.499951 L 270.500285 411.000236 L 254.500228 426.500065 L 260.499862 428.499943 L 277.000146 412.499886 L 293.500431 398.499707 L 309.500488 398.499707 L 309.500488 416.499642 L 297.500187 418.999748 L 311.500366 436.999683 L 311.000138 452.99974 L 312.499788 468.499569 L 312.499788 484.999854 L 298.499609 500.499683 L 296.499731 504.500472 L 312.499788 484.999854 L 314.499666 493.000399 L 302.500399 509.000456 L 309.999683 497.500382 L 321.999984 499.000033 L 325.99974 509.000456 " transform="matrix(3.779528,0,0,3.779528,0,0)"/>
<path style="fill:none;stroke-width:2;stroke-linecap:butt;stroke-linejoin:miter;stroke:rgb(0%,0%,0%);stroke-opacity:1;stroke-miterlimit:4;" d="M 293.000203 489.499837 L 273.000391 505.499894 L 282.99978 499.50026 " transform="matrix(3.779528,0,0,3.779528,0,0)"/>
<path style="fill:none;stroke-width:2;stroke-linecap:butt;stroke-linejoin:miter;stroke:rgb(0%,0%,0%);stroke-opacity:1;stroke-miterlimit:4;" d="M 321.999984 276.499919 L 338.000041 276.499919 L 354.000098 278.499797 L 370.000155 277.999569 L 385.499984 279.500252 L 401.500041 279.500252 L 417.500098 279.000024 L 433.500155 280.999902 L 466.000496 280.999902 L 481.99952 282.99978 L 497.999577 282.99978 " transform="matrix(3.779528,0,0,3.779528,0,0)"/>
<path style="fill:none;stroke-width:2;stroke-linecap:butt;stroke-linejoin:miter;stroke:rgb(0%,0%,0%);stroke-opacity:1;stroke-miterlimit:4;" d="M 495.999699 187.999894 L 447.500334 187.999894 L 431.500277 189.499544 L 411.500464 213.500146 L 409.499552 220.000008 L 383.500106 220.000008 L 367.500049 219.49978 L 343.50048 217.499902 L 347.500236 211.000041 L 347.500236 194.999984 " transform="matrix(3.779528,0,0,3.779528,0,0)"/>
<path style="fill:none;stroke-width:2;stroke-linecap:butt;stroke-linejoin:miter;stroke:rgb(0%,0%,0%);stroke-opacity:1;stroke-miterlimit:4;" d="M 275.000269 212.999919 L 259.000212 202.999495 L 243.000155 205.000407 " transform="matrix(3.779528,0,0,3.779528,0,0)"/>
<path style="fill:none;stroke-width:2;stroke-linecap:butt;stroke-linejoin:miter;stroke:rgb(0%,0%,0%);stroke-opacity:1;stroke-miterlimit:4;" d="M 241.500505 203.499723 L 241.500505 219.49978 L 243.999577 231.500081 L 259.999634 233.499959 " transform="matrix(3.779528,0,0,3.779528,0,0)"/>
<path style="fill:none;stroke-width:2;stroke-linecap:butt;stroke-linejoin:miter;stroke:rgb(0%,0%,0%);stroke-opacity:1;stroke-miterlimit:4;" d="M 267.499951 248.499561 L 275.000269 232.499504 L 252.999544 208.499935 L 248.999788 216.50048 " transform="matrix(3.779528,0,0,3.779528,0,0)"/>
<path style="fill:none;stroke-width:2;stroke-linecap:butt;stroke-linejoin:miter;stroke:rgb(0%,0%,0%);stroke-opacity:1;stroke-miterlimit:4;" d="M 230.000431 212.000496 L 246.000488 198.499512 L 261.999512 193.999528 " transform="matrix(3.779528,0,0,3.779528,0,0)"/>
<path style="fill:none;stroke-width:2;stroke-linecap:butt;stroke-linejoin:miter;stroke:rgb(0%,0%,0%);stroke-opacity:1;stroke-miterlimit:4;" d="M 262.999967 187.999894 L 275.000269 203.499723 L 263.500195 207.500513 L 246.000488 211.500269 L 250.500472 221.499658 L 266.499495 223.999764 L 277.000146 216.000252 " transform="matrix(3.779528,0,0,3.779528,0,0)"/>
<path style="fill:none;stroke-width:2;stroke-linecap:butt;stroke-linejoin:miter;stroke:rgb(0%,0%,0%);stroke-opacity:1;stroke-miterlimit:4;" d="M 271.999935 249.500016 L 279.500252 233.499959 L 271.499707 217.499902 L 282.000358 201.499845 L 274.500041 191.000228 L 258.499984 189.00035 L 243.000155 192.499878 L 227.000098 204.500179 " transform="matrix(3.779528,0,0,3.779528,0,0)"/>
<path style="fill:none;stroke-width:2;stroke-linecap:butt;stroke-linejoin:miter;stroke:rgb(0%,0%,0%);stroke-opacity:1;stroke-miterlimit:4;" d="M 225.00022 193.500334 L 202.999495 215.500024 L 187.000472 249.500016 L 196.999862 234.999609 L 202.999495 218.500358 L 208.499935 202.500301 " transform="matrix(3.779528,0,0,3.779528,0,0)"/>
<path style="fill:none;stroke-width:2;stroke-linecap:butt;stroke-linejoin:miter;stroke:rgb(0%,0%,0%);stroke-opacity:1;stroke-miterlimit:4;" d="M 213.500146 188.500122 L 201.499845 204.500179 L 195.500212 220.500236 L 193.500334 224.499992 L 215.500024 198.000317 L 232.000309 187.999894 " transform="matrix(3.779528,0,0,3.779528,0,0)"/>
<path style="fill:none;stroke-width:2;stroke-linecap:butt;stroke-linejoin:miter;stroke:rgb(0%,0%,0%);stroke-opacity:1;stroke-miterlimit:4;" d="M 223.999764 187.000472 L 216.000252 202.999495 L 209.500391 218.999552 L 209.500391 234.999609 L 219.49978 250.999666 " transform="matrix(3.779528,0,0,3.779528,0,0)"/>
<path style="fill:none;stroke-width:2;stroke-linecap:butt;stroke-linejoin:miter;stroke:rgb(0%,0%,0%);stroke-opacity:1;stroke-miterlimit:4;" d="M 211.500269 237.999943 L 227.500326 254 L 243.000155 260.499862 L 259.000212 258.499984 L 275.500496 246.499683 " transform="matrix(3.779528,0,0,3.779528,0,0)"/>
<path style="fill:none;stroke-width:2;stroke-linecap:butt;stroke-linejoin:miter;stroke:rgb(0%,0%,0%);stroke-opacity:1;stroke-miterlimit:4;" d="M 241.999699 240.500049 L 225.999642 228.499748 " transform="matrix(3.779528,0,0,3.779528,0,0)"/>
<path style="fill:none;stroke-width:2;stroke-linecap:butt;stroke-linejoin:miter;stroke:rgb(0%,0%,0%);stroke-opacity:1;stroke-miterlimit:4;" d="M 225.500448 225.999642 L 241.500505 237.999943 " transform="matrix(3.779528,0,0,3.779528,0,0)"/>
<path style="fill:none;stroke-width:2;stroke-linecap:butt;stroke-linejoin:miter;stroke:rgb(0%,0%,0%);stroke-opacity:1;stroke-miterlimit:4;" d="M 248.499561 246.000488 L 232.499504 246.499683 L 216.50048 232.499504 " transform="matrix(3.779528,0,0,3.779528,0,0)"/>
<path style="fill:none;stroke-width:2;stroke-linecap:butt;stroke-linejoin:miter;stroke:rgb(0%,0%,0%);stroke-opacity:1;stroke-miterlimit:4;" d="M 243.999577 239.999821 L 230.000431 237.499715 L 236.000065 229.500203 L 230.499626 213.500146 L 244.499805 196.999862 " transform="matrix(3.779528,0,0,3.779528,0,0)"/>
<path style="fill:none;stroke-width:2;stroke-linecap:butt;stroke-linejoin:miter;stroke:rgb(0%,0%,0%);stroke-opacity:1;stroke-miterlimit:4;" d="M 251.499894 189.499544 L 225.500448 205.499601 L 223.999764 221.499658 L 223.999764 237.999943 L 227.500326 250.000244 L 243.500382 254 L 259.999634 252.000122 L 275.999691 235.499837 " transform="matrix(3.779528,0,0,3.779528,0,0)"/>
<path style="fill:none;stroke-width:2;stroke-linecap:butt;stroke-linejoin:miter;stroke:rgb(0%,0%,0%);stroke-opacity:1;stroke-miterlimit:4;" d="M 238.500171 254.500228 L 218.00013 239.000399 L 214.000374 223.000342 L 220.000008 207.500513 L 227.99952 191.500456 L 236.500293 175.500399 " transform="matrix(3.779528,0,0,3.779528,0,0)"/>
<path style="fill:none;stroke-width:2;stroke-linecap:butt;stroke-linejoin:miter;stroke:rgb(0%,0%,0%);stroke-opacity:1;stroke-miterlimit:4;" d="M 221.499658 84.000041 L 237.499715 75.999495 " transform="matrix(3.779528,0,0,3.779528,0,0)"/>
<path style="fill:none;stroke-width:2;stroke-linecap:butt;stroke-linejoin:miter;stroke:rgb(0%,0%,0%);stroke-opacity:1;stroke-miterlimit:4;" d="M 220.000008 77.500179 L 223.999764 61.500122 L 243.999577 65.499878 L 236.000065 81.499935 L 218.00013 100.000098 L 216.000252 103.999854 L 233.499959 96.000342 L 237.499715 63.5 L 231.500081 65.499878 L 221.000464 87.999797 L 218.999552 91.999552 L 223.000342 105.999731 " transform="matrix(3.779528,0,0,3.779528,0,0)"/>
<path style="fill:none;stroke-width:2;stroke-linecap:butt;stroke-linejoin:miter;stroke:rgb(0%,0%,0%);stroke-opacity:1;stroke-miterlimit:4;" d="M 229.500203 112.499593 L 221.000464 96.000342 L 211.000041 89.999674 L 215.500024 73.999618 L 215.500024 57.500366 L 239.999821 55.500488 L 237.999943 51.000505 L 221.999886 51.000505 " transform="matrix(3.779528,0,0,3.779528,0,0)"/>
<path style="fill:none;stroke-width:2;stroke-linecap:butt;stroke-linejoin:miter;stroke:rgb(0%,0%,0%);stroke-opacity:1;stroke-miterlimit:4;" d="M 195.500212 53.999805 L 211.000041 50.000049 L 227.000098 43.500187 L 243.000155 49.499821 L 246.99991 61.500122 L 242.499927 77.500179 L 234.500415 93.500236 L 234.500415 109.500293 L 236.500293 125.50035 L 232.999731 141.500407 L 221.000464 157.000236 L 228.999976 145.500163 " transform="matrix(3.779528,0,0,3.779528,0,0)"/>
<path style="fill:none;stroke-width:2;stroke-linecap:butt;stroke-linejoin:miter;stroke:rgb(0%,0%,0%);stroke-opacity:1;stroke-miterlimit:4;" d="M 209.500391 336.000163 L 193.500334 320.000106 L 177.500277 311.999561 L 161.50022 298.000415 L 145.500163 275.999691 L 128.999878 261.999512 L 112.999821 248.000366 L 96.999764 237.999943 L 80.999707 227.500326 L 64.99965 217.499902 L 48.999593 207.500513 L 33.499764 198.000317 L 17.999935 184.000138 " transform="matrix(3.779528,0,0,3.779528,0,0)"/>
<path style="fill:none;stroke-width:2;stroke-linecap:butt;stroke-linejoin:miter;stroke:rgb(0%,0%,0%);stroke-opacity:1;stroke-miterlimit:4;" d="M 19.000391 180.499577 L 30.500464 196.499634 L 54.500033 212.000496 L 80.500513 227.99952 L 103.999854 244.499805 L 125.999544 260.499862 L 144.000513 275.999691 L 157.999658 291.49952 L 169.499731 307.000382 L 197.50009 322.500212 L 211.500269 338.000041 L 217.499902 354.500326 L 221.499658 370.999577 L 223.499536 387.499862 L 228.999976 404.000146 L 232.999731 420.500431 L 241.000277 436.999683 L 245.000033 452.99974 L 248.499561 468.999797 L 256.500106 484.999854 L 257.999756 500.99991 L 270.500285 498.499805 L 286.999536 488.999609 " transform="matrix(3.779528,0,0,3.779528,0,0)"/>
<path style="fill:none;stroke-width:2;stroke-linecap:butt;stroke-linejoin:miter;stroke:rgb(0%,0%,0%);stroke-opacity:1;stroke-miterlimit:4;" d="M 305.000505 392.500073 L 288.50022 391.000423 L 272.500163 386.999634 L 255.999878 385.499984 L 239.499593 381 L 223.000342 352.999642 L 207.000285 325.000317 L 190.5 312.499788 L 173.999715 305.000505 L 158.499886 284.999658 L 142.499829 266.999723 L 127 252.999544 L 110.999943 241.000277 L 94.999886 230.499626 L 78.999829 220.000008 L 63.5 209.500391 L 47.499943 198.99974 L 31.499886 186.500244 L 15.499829 180.000382 " transform="matrix(3.779528,0,0,3.779528,0,0)"/>
<path style="fill:none;stroke-width:2;stroke-linecap:butt;stroke-linejoin:miter;stroke:rgb(0%,0%,0%);stroke-opacity:1;stroke-miterlimit:4;" d="M 22.499919 182.500488 L 44.499609 198.499512 L 70.50009 214.499569 L 94.499658 230.499626 L 118.50026 246.499683 L 138.500073 262.49974 L 153.999902 277.999569 L 166.000203 293.999626 L 184.000138 309.500488 L 207.999707 325.99974 L 220.000008 341.999797 L 225.500448 357.999854 L 228.999976 373.499683 L 230.999854 391.499618 L 239.000399 411.500464 L 243.000155 427.999715 L 250.999666 427.999715 " transform="matrix(3.779528,0,0,3.779528,0,0)"/>
<path style="fill:none;stroke-width:2;stroke-linecap:butt;stroke-linejoin:miter;stroke:rgb(0%,0%,0%);stroke-opacity:1;stroke-miterlimit:4;" d="M 17.999935 237.499715 L 2.500106 227.000098 " transform="matrix(3.779528,0,0,3.779528,0,0)"/>
<path style="fill:none;stroke-width:2;stroke-linecap:butt;stroke-linejoin:miter;stroke:rgb(0%,0%,0%);stroke-opacity:1;stroke-miterlimit:4;" d="M 1.999878 222.500114 L 17.999935 232.000309 " transform="matrix(3.779528,0,0,3.779528,0,0)"/>
<path style="fill:none;stroke-width:2;stroke-linecap:butt;stroke-linejoin:miter;stroke:rgb(0%,0%,0%);stroke-opacity:1;stroke-miterlimit:4;" d="M 14.000179 239.000399 L 3.999756 222.500114 " transform="matrix(3.779528,0,0,3.779528,0,0)"/>
<path style="fill:none;stroke-width:2;stroke-linecap:butt;stroke-linejoin:miter;stroke:rgb(0%,0%,0%);stroke-opacity:1;stroke-miterlimit:4;" d="M 1.49965 212.000496 L 17.499707 221.999886 L 33.499764 232.499504 L 49.499821 242.499927 L 66.000106 252.999544 L 82.000163 264.999845 L 98.00022 275.500496 L 114.000277 287.499764 L 130.000334 296.999959 L 146.000391 311.000138 " transform="matrix(3.779528,0,0,3.779528,0,0)"/>
<path style="fill:none;stroke-width:2;stroke-linecap:butt;stroke-linejoin:miter;stroke:rgb(0%,0%,0%);stroke-opacity:1;stroke-miterlimit:4;" d="M 146.000391 302.999593 L 130.000334 291.000326 L 114.000277 278.499797 L 98.00022 268.000179 L 81.499935 255.49965 L 65.499878 245.50026 L 49.499821 233.499959 L 33.499764 223.000342 L 1.49965 202.999495 " transform="matrix(3.779528,0,0,3.779528,0,0)"/>
<path style="fill:none;stroke-width:2;stroke-linecap:butt;stroke-linejoin:miter;stroke:rgb(0%,0%,0%);stroke-opacity:1;stroke-miterlimit:4;" d="M 3.999756 203.499723 L 14.500407 219.49978 L 38.499976 235.499837 L 62.499544 252.000122 L 86.500146 268.000179 L 110.499715 284.000236 L 132.500439 300.000293 " transform="matrix(3.779528,0,0,3.779528,0,0)"/>
<path style="fill:none;stroke-width:2;stroke-linecap:butt;stroke-linejoin:miter;stroke:rgb(0%,0%,0%);stroke-opacity:1;stroke-miterlimit:4;" d="M 149.499919 307.000382 L 129.500106 291.49952 L 107.500415 275.999691 L 85.000496 260.499862 L 60.999894 244.499805 L 35.000448 228.499748 L 12.499495 212.499691 " transform="matrix(3.779528,0,0,3.779528,0,0)"/>
<path style="fill:none;stroke-width:2;stroke-linecap:butt;stroke-linejoin:miter;stroke:rgb(0%,0%,0%);stroke-opacity:1;stroke-miterlimit:4;" d="M 17.499707 155.499552 L 1.49965 143.500285 " transform="matrix(3.779528,0,0,3.779528,0,0)"/>
<path style="fill:none;stroke-width:2;stroke-linecap:butt;stroke-linejoin:miter;stroke:rgb(0%,0%,0%);stroke-opacity:1;stroke-miterlimit:4;" d="M 3.499528 138.500073 L 13.499951 154.50013 " transform="matrix(3.779528,0,0,3.779528,0,0)"/>
<path style="fill:none;stroke-width:2;stroke-linecap:butt;stroke-linejoin:miter;stroke:rgb(0%,0%,0%);stroke-opacity:1;stroke-miterlimit:4;" d="M 17.999935 149.499919 L 1.999878 137.499618 " transform="matrix(3.779528,0,0,3.779528,0,0)"/>
<path style="fill:none;stroke-width:2;stroke-linecap:butt;stroke-linejoin:miter;stroke:rgb(0%,0%,0%);stroke-opacity:1;stroke-miterlimit:4;" d="M 10.000423 144.000513 L 28.000358 159.999536 " transform="matrix(3.779528,0,0,3.779528,0,0)"/>
</g>
</svg>
