<svg xmlns="http://www.w3.org/2000/svg" width="512mm" height="512mm" viewBox="0 0 512 512" version="1.1"><polyline points="213.5,2.5,213.5,18.5,237.5,30.5,219.5,46.5,209.5,49.0,207.5,65.0,201.5,81.0,199.5,97.0,191.0,109.0,195.0,124.5,208.5,140.5,217.0,156.5,227.0,156.5,235.0,160.5,251.5,180.0,271.5,195.5,289.5,205.0,307.5,211.0,297.5,219.0,303.5,218.5,310.0,234.5,308.0,250.5,298.5,270.5,310.5,285.0,304.5,293.0,312.5,297.0,318.5,307.0,334.5,311.5,350.5,313.5,366.5,315.5,382.5,313.5,398.5,312.0,414.0,312.0" stroke="black" stroke-width="2" fill="none" />
<polyline points="384.0,317.0,400.0,317.5,416.0,315.5,426.0,321.5,442.5,312.0,458.0,300.0,474.5,288.0" stroke="black" stroke-width="2" fill="none" />
<polyline points="478.0,281.0,460.0,297.0,438.0,313.5" stroke="black" stroke-width="2" fill="none" />
<polyline points="463.5,304.5,447.5,318.5,431.5,330.5,416.0,330.5,404.0,330.5,388.0,330.5,372.0,330.5,356.0,332.0,340.0,330.0,324.0,331.5,308.0,331.5" stroke="black" stroke-width="2" fill="none" />
<polyline points="298.0,339.5,314.0,341.0,330.0,339.5" stroke="black" stroke-width="2" fill="none" />
<polyline points="359.5,340.5,376.0,342.5,392.0,340.5" stroke="black" stroke-width="2" fill="none" />
<polyline points="386.0,355.0,402.0,357.0" stroke="black" stroke-width="2" fill="none" />
<polyline points="388.5,391.0,372.5,393.0" stroke="black" stroke-width="2" fill="none" />
<polyline points="381.5,418.0,397.5,418.0,413.5,414.0" stroke="black" stroke-width="2" fill="none" />
<polyline points="423.5,411.0,437.0,395.0,445.0,379.0,461.0,363.0,471.0,347.5,477.0,331.5,483.0,316.0,489.5,300.5,494.0,284.5,498.0,269.0,502.0,263.0" stroke="black" stroke-width="2" fill="none" />
<polyline points="487.5,258.0,485.5,274.0,481.0,290.5,477.0,306.5,465.5,322.5,453.5,338.5,447.5,362.5,423.5,386.0,391.5,388.0,397.5,394.0,396.0,395.5,411.5,385.5,433.5,385.0,449.5,367.0,465.0,345.0,481.5,305.0" stroke="black" stroke-width="2" fill="none" />
<polyline points="472.5,305.0,455.5,318.5,439.5,335.0,423.5,334.5,400.0,330.5,384.0,326.5,372.5,334.5,364.0,322.5,347.5,322.5,331.5,318.5,315.5,312.5,299.5,308.5,284.0,304.0,264.5,290.0,249.0,286.0,233.0,273.5,217.5,261.0,201.5,251.5,197.0,259.5,180.5,247.5,164.5,241.5,148.5,236.0,132.0,226.0,115.5,213.5,99.0,201.5,83.0,187.5,67.0,169.0" stroke="black" stroke-width="2" fill="none" />
<polyline points="67.0,167.5,72.5,184.0,83.0,200.0,101.0,216.0,129.0,232.0" stroke="black" stroke-width="2" fill="none" />
<polyline points="115.5,229.0,99.5,221.0,83.5,207.5,68.0,185.5" stroke="black" stroke-width="2" fill="none" />
<polyline points="75.0,180.0,91.0,196.0,111.0,211.5,132.5,227.5,166.5,244.0" stroke="black" stroke-width="2" fill="none" />
<polyline points="141.5,250.0,183.0,266.0,221.0,289.5,233.0,305.5,239.0,307.5,224.5,315.5,240.5,329.5,256.5,335.5,272.5,339.5,289.0,345.5,305.0,349.0,321.0,347.5,337.0,345.5,353.5,345.5,370.0,348.0,386.5,348.0,402.5,345.5,402.5,341.5,419.0,343.5" stroke="black" stroke-width="2" fill="none" />
<polyline points="426.0,401.5,436.0,398.0,420.0,416.0,404.0,422.0,388.0,424.0" stroke="black" stroke-width="2" fill="none" />
<polyline points="390.5,422.0,392.5,438.0,400.5,453.5,400.0,469.0,404.0,475.0,391.5,491.0,393.5,506.5" stroke="black" stroke-width="2" fill="none" />
<polyline points="405.0,465.0,389.0,429.5" stroke="black" stroke-width="2" fill="none" />
<polyline points="383.0,427.0,399.5,461.5" stroke="black" stroke-width="2" fill="none" />
<polyline points="380.5,457.5,364.5,449.5,348.5,447.5" stroke="black" stroke-width="2" fill="none" />
<polyline points="345.0,447.5,361.0,435.5,376.5,431.5,384.0,429.0,390.0,445.0,398.0,461.5,393.5,463.0,381.0,479.0,389.0,473.0,384.5,489.0" stroke="black" stroke-width="2" fill="none" />
<polyline points="381.0,454.0,363.0,438.0,372.5,431.5,360.5,413.5,344.5,409.0,328.5,407.0" stroke="black" stroke-width="2" fill="none" />
<polyline points="334.5,412.5,350.5,416.5" stroke="black" stroke-width="2" fill="none" />
<polyline points="367.0,428.5,367.0,420.0,351.0,422.0,343.0,430.0,326.5,422.0" stroke="black" stroke-width="2" fill="none" />
<polyline points="302.0,415.5,322.5,451.5,339.0,457.5,347.5,453.5,363.0,458.0" stroke="black" stroke-width="2" fill="none" />
<polyline points="392.5,460.0,377.0,468.0,360.5,464.0,343.0,474.5,339.0,484.5,333.5,470.5,326.0,460.0,330.0,450.0,324.5,434.0,326.5,423.5,320.5,415.5,311.0,411.5,301.0,385.5" stroke="black" stroke-width="2" fill="none" />
<polyline points="300.5,399.5,322.5,409.5,335.0,411.0,343.0,431.0,334.5,439.0,348.5,455.0,372.0,471.5,380.0,487.5,381.5,510.0" stroke="black" stroke-width="2" fill="none" />
<polyline points="384.0,503.0,368.0,500.5,352.5,498.5,336.5,488.0,321.0,468.0,315.5,455.5,300.0,414.0" stroke="black" stroke-width="2" fill="none" />
<polyline points="315.5,397.5,318.0,403.5,334.0,402.0,350.0,404.5,364.0,410.5,372.0,404.0,388.0,402.0,403.5,400.5,419.5,390.5" stroke="black" stroke-width="2" fill="none" />
<polyline points="418.5,405.0,401.5,412.5,385.5,413.0,375.5,416.5,370.0,396.5,346.0,396.5,330.5,390.5" stroke="black" stroke-width="2" fill="none" />
<polyline points="334.0,359.5,318.0,363.5,302.0,359.5" stroke="black" stroke-width="2" fill="none" />
<polyline points="291.5,367.0,308.0,369.0,318.0,366.5,332.0,392.0,362.5,410.0,362.5,425.5,360.5,435.5,361.0,447.5,369.0,449.5,377.5,459.0,373.5,467.0,343.0,477.0,367.0,477.0" stroke="black" stroke-width="2" fill="none" />
<polyline points="378.0,450.0,380.0,438.5,376.0,422.0" stroke="black" stroke-width="2" fill="none" />
<polyline points="400.0,369.5,384.0,375.0,368.0,369.0,352.0,369.0,347.5,365.0,331.5,375.0,310.0,377.5,308.0,383.5,294.0,368.0,292.0,360.0,288.0,368.0,272.5,368.5" stroke="black" stroke-width="2" fill="none" />
<polyline points="295.0,371.5,311.5,373.5,327.5,373.5,337.5,350.0,353.5,350.0,369.5,351.5,386.0,351.5,402.0,349.0,418.0,347.0,428.0,357.0" stroke="black" stroke-width="2" fill="none" />
<polyline points="409.0,408.0,414.5,383.5,438.0,375.5,458.0,359.5,468.0,344.0,474.0,328.0,480.5,311.5,486.5,295.5,490.0,279.0,492.0,263.0,498.0,247.0,506.5,231.5,499.0,224.0,497.5,208.0,493.5,192.5,487.0,176.0,476.5,160.0,468.0,143.5,459.5,127.5,447.5,111.0,433.5,95.0,417.5,79.5,397.5,59.5,387.0,55.5,363.0,39.5,351.0,23.5,345.5,23.5,330.0,29.5,314.0,23.5,298.0,17.5,282.5,19.5,267.0,16.0,251.5,18.0,235.5,20.0,220.0,20.0" stroke="black" stroke-width="2" fill="none" />
<polyline points="218.5,17.0,234.5,16.5,250.5,14.5,266.0,12.0" stroke="black" stroke-width="2" fill="none" />
<polyline points="270.0,29.0,260.0,31.5,256.0,47.5,250.0,63.5,244.0,79.5,236.0,95.5,214.0,103.5,212.5,113.5,212.5,129.5,211.0,139.5,227.0,148.0,241.0,155.5,241.0,163.5,261.0,178.0,277.0,192.5,293.0,182.5,309.0,196.5,302.5,214.5,318.5,204.5,334.5,192.5,351.0,176.5,367.0,160.5,377.0,142.5,393.5,126.5,419.5,104.5,443.5,132.5,453.0,140.5,455.0,156.5,447.0,172.0,452.5,173.5,442.5,189.5,436.5,205.5,418.5,221.5,398.5,238.0,380.0,254.5,361.5,270.5,351.5,270.5,360.0,278.5,376.0,266.5,384.5,266.5,400.5,254.5,416.0,244.0,432.0,234.0,448.0,224.0,452.0,211.5" stroke="black" stroke-width="2" fill="none" />
<polyline points="439.5,192.0,425.0,196.0,409.0,200.0" stroke="black" stroke-width="2" fill="none" />
<polyline points="397.0,184.0,387.0,199.5,371.0,215.0,353.0,225.0,337.0,241.0,324.5,257.0,305.0,273.0,297.0,279.0,313.0,265.5,329.0,255.5,343.0,246.0,359.0,239.5,375.0,231.5,391.0,215.5,407.0,201.5,422.5,180.0" stroke="black" stroke-width="2" fill="none" />
<polyline points="441.5,176.0,445.5,160.0,447.5,144.0,445.0,128.0,427.0,118.0,420.5,102.0,407.0,86.0,396.5,86.0" stroke="black" stroke-width="2" fill="none" />
<polyline points="397.0,86.0,405.0,101.5,397.5,117.5,384.0,133.5,378.5,149.5,360.5,166.0,353.0,182.0,327.0,198.0,316.5,214.0,318.5,230.0,308.5,246.5,310.5,250.5,314.5,254.0" stroke="black" stroke-width="2" fill="none" />
<polyline points="320.0,270.0,338.5,256.0,356.5,246.0" stroke="black" stroke-width="2" fill="none" />
<polyline points="356.0,256.5,359.5,254.5,355.5,251.0,379.5,235.0,397.5,219.0,413.5,203.0,405.5,209.0,389.5,226.5,373.5,238.5" stroke="black" stroke-width="2" fill="none" />
<polyline points="387.5,251.0,403.0,241.0,419.0,229.0,435.0,215.5,450.5,207.5,469.0,185.5,463.0,202.0" stroke="black" stroke-width="2" fill="none" />
<polyline points="486.0,208.5,488.0,224.0,489.5,240.5,479.5,256.5,484.0,258.5,470.5,274.5,440.5,286.5,406.5,308.0,422.5,304.0,438.5,297.5,454.5,285.5" stroke="black" stroke-width="2" fill="none" />
<polyline points="444.5,292.5,464.5,276.5" stroke="black" stroke-width="2" fill="none" />
<polyline points="473.0,280.0,457.0,294.0,441.5,306.0,425.5,316.0,410.0,324.0,394.5,322.0,378.0,326.5,362.5,326.5,334.5,324.5,318.5,322.0,302.0,329.5,286.0,329.5,270.0,325.5,264.0,317.5,248.0,309.5,220.0,313.0,204.5,307.0" stroke="black" stroke-width="2" fill="none" />
<polyline points="205.0,313.5,219.0,329.5,223.0,346.0" stroke="black" stroke-width="2" fill="none" />
<polyline points="222.5,356.0,206.5,358.0" stroke="black" stroke-width="2" fill="none" />
<polyline points="202.0,362.5,218.5,361.0,234.5,357.5,250.5,360.0,266.5,366.5" stroke="black" stroke-width="2" fill="none" />
<polyline points="242.0,354.5,226.5,338.0,210.5,323.5,194.5,321.5,178.5,317.5,162.5,313.5,147.0,310.0,131.0,306.5,115.0,298.5,99.5,290.5,83.5,280.5,67.5,264.5,51.0,242.5,31.0,254.5,15.0,258.5" stroke="black" stroke-width="2" fill="none" />
<polyline points="16.5,263.0,32.5,259.0,48.5,255.0,64.5,271.5,81.0,287.0,97.0,297.0,113.0,305.0,129.0,311.0,145.0,315.0,161.5,319.0,177.5,323.0,193.5,326.5,209.5,330.5,225.5,344.5,247.5,346.5,251.0,340.5" stroke="black" stroke-width="2" fill="none" />
<polyline points="271.0,338.5,275.0,354.5,284.5,373.0,302.5,381.0,300.0,405.5,305.5,421.5,311.5,437.5,318.0,453.5,326.0,469.5,340.0,485.5,360.0,485.5,376.0,488.0" stroke="black" stroke-width="2" fill="none" />
<polyline points="400.5,387.5,384.5,385.5,368.5,387.5,352.5,397.5,362.0,391.5,351.5,384.0,339.5,372.0,355.5,356.0" stroke="black" stroke-width="2" fill="none" />
<polyline points="367.0,299.5,351.0,297.5" stroke="black" stroke-width="2" fill="none" />
<polyline points="339.5,270.0,347.5,266.0,342.0,240.0,354.5,230.0,338.0,242.5" stroke="black" stroke-width="2" fill="none" />
<polyline points="366.0,167.5,382.0,155.0,398.0,147.0" stroke="black" stroke-width="2" fill="none" />
<polyline points="382.0,144.0,398.0,128.0,419.5,106.0,421.5,122.0,417.0,138.0,421.0,138.0,417.0,158.0,407.5,174.5,377.5,190.5,361.5,206.0,350.0,222.0,339.5,214.5,331.5,222.5,348.0,230.5,372.0,214.5,388.0,194.5,406.0,190.0,422.5,170.0" stroke="black" stroke-width="2" fill="none" />
<polyline points="462.0,166.5,464.0,182.5,458.0,198.0,460.0,216.0,446.0,231.5,426.5,247.0,402.5,263.5,402.5,264.0,418.5,256.5,429.0,244.5,445.0,235.0" stroke="black" stroke-width="2" fill="none" />
<polyline points="459.0,242.5,443.0,254.5,427.0,262.0,411.0,266.0,395.0,272.0,378.5,282.0,365.0,288.0,349.0,296.0,333.0,298.0,317.0,302.0,301.0,302.0,285.0,298.0,269.0,300.0,253.0,302.0,235.0,302.0,229.0,282.0,211.0,270.0,208.5,278.0,206.5,277.5,188.5,262.0,146.0,246.0,123.5,228.0,107.5,220.5,91.5,206.5,75.5,188.5,59.5,172.5" stroke="black" stroke-width="2" fill="none" />
<polyline points="52.0,172.0,60.0,188.0" stroke="black" stroke-width="2" fill="none" />
<polyline points="63.5,196.0,47.0,167.5" stroke="black" stroke-width="2" fill="none" />
<polyline points="45.0,168.0,51.0,183.5,61.0,199.5,67.0,218.0,81.0,236.5,103.0,238.5,121.0,260.5,158.5,286.5" stroke="black" stroke-width="2" fill="none" />
<polyline points="203.5,281.0,219.0,287.5,235.0,294.0,250.5,296.0,266.0,314.0" stroke="black" stroke-width="2" fill="none" />
<polyline points="226.0,302.0,210.5,303.5,192.5,283.5,184.5,263.0,168.0,257.5,152.0,254.0,136.0,248.0,120.0,246.5,104.0,238.5" stroke="black" stroke-width="2" fill="none" />
<polyline points="99.5,253.0,115.5,261.0,132.0,267.0,148.0,273.5,164.5,280.0,181.0,282.0,197.0,284.0,213.0,290.0" stroke="black" stroke-width="2" fill="none" />
<polyline points="216.0,297.5,200.0,307.5,184.0,304.0,168.0,302.0,152.5,300.0,136.5,294.0,120.5,292.0,104.5,282.0,88.5,274.0,72.5,261.5,56.5,241.5" stroke="black" stroke-width="2" fill="none" />
<polyline points="62.0,236.0,83.5,252.0,101.0,267.5" stroke="black" stroke-width="2" fill="none" />
<polyline points="98.0,298.5,74.0,282.5,58.0,266.5,46.0,248.5,40.0,232.0,36.0,216.0,34.0,199.5,34.0,183.5,38.0,167.5,48.0,151.5,53.5,135.5,62.0,119.0,72.0,103.0,84.0,87.0,105.5,70.5,133.5,54.5,166.0,41.0,162.0,49.0" stroke="black" stroke-width="2" fill="none" />
<polyline points="160.5,43.0,176.5,37.5,192.5,33.0,210.0,28.5,204.0,45.0,204.0,61.0,197.5,77.0,203.0,85.0,204.5,101.0,198.5,117.5,200.0,123.5,198.5,139.5,211.0,155.5,205.5,171.5,197.0,188.0,219.5,198.0,239.5,200.0,251.5,216.0,272.0,232.5,286.5,248.5,290.0,277.0,292.0,287.0,284.0,286.5,293.5,286.5,309.0,282.0,319.0,285.5,335.0,285.5,345.0,281.0,357.0,271.0,373.0,259.0,389.5,243.0,405.0,231.0,421.0,219.5,437.0,210.0,453.5,182.0,453.5,152.5,457.5,162.5,455.0,178.5,445.0,194.5,437.0,210.0,449.0,221.5,425.0,237.5,397.5,253.5,379.5,268.0,364.0,274.5,374.0,285.0,368.0,293.0,384.0,290.5,400.0,294.0,416.5,287.5,432.5,281.5,448.0,273.5,464.0,262.0,473.5,238.5,502.0,236.5" stroke="black" stroke-width="2" fill="none" />
<polyline points="470.0,244.0,454.0,264.0,438.0,272.0,422.0,282.0,406.0,286.0,390.0,286.0,430.0,260.0,456.0,244.0,470.0,228.0,476.0,212.0,476.0,195.5,478.5,170.0,462.5,142.0,446.5,118.0,430.5,98.0,414.0,82.0" stroke="black" stroke-width="2" fill="none" />
<polyline points="409.5,93.5,407.5,109.5,400.0,125.5,384.0,142.0,387.5,150.0,365.5,166.0,356.0,180.0,372.0,173.5,388.5,165.5,404.5,159.5,420.0,149.5,436.0,141.5" stroke="black" stroke-width="2" fill="none" />
<polyline points="432.5,128.5,441.0,144.5,433.0,160.5,423.0,176.5,411.5,192.0,393.5,197.5,379.5,213.0,371.5,221.0,387.5,205.0" stroke="black" stroke-width="2" fill="none" />
<polyline points="426.5,221.0,406.0,237.5,388.0,253.5,374.0,278.0" stroke="black" stroke-width="2" fill="none" />
<polyline points="288.5,256.0,273.0,238.5,257.0,226.5,241.0,206.5,225.5,196.5" stroke="black" stroke-width="2" fill="none" />
<polyline points="211.5,199.5,209.5,203.5,221.5,219.5,229.5,220.0,235.0,210.5,251.0,232.5,267.0,247.0,283.5,265.0,299.5,269.0" stroke="black" stroke-width="2" fill="none" />
<polyline points="294.0,240.0,278.0,224.0,261.5,209.5,245.5,195.5,229.5,183.5,214.0,177.0" stroke="black" stroke-width="2" fill="none" />
<polyline points="209.5,178.0,203.5,194.0,195.5,210.0,187.0,226.0,178.5,241.5,218.0,258.0,237.5,274.0" stroke="black" stroke-width="2" fill="none" />
<polyline points="274.0,263.0,258.0,245.0,242.0,229.5,226.5,223.0,210.5,203.0" stroke="black" stroke-width="2" fill="none" />
<polyline points="208.5,198.5,230.5,198.5,244.5,214.5,260.0,230.5,276.0,246.5" stroke="black" stroke-width="2" fill="none" />
<polyline points="299.0,245.5,285.0,229.5,265.0,213.5,247.0,197.5,223.0,181.5,208.5,191.5" stroke="black" stroke-width="2" fill="none" />
<polyline points="201.5,208.0,219.5,224.0,235.5,246.5,239.5,248.5,258.0,265.0,272.0,281.0" stroke="black" stroke-width="2" fill="none" />
<polyline points="259.0,259.5,242.5,248.0,226.5,238.0,210.0,232.0,194.0,230.0" stroke="black" stroke-width="2" fill="none" />
<polyline points="195.0,217.5,211.5,221.5" stroke="black" stroke-width="2" fill="none" />
<polyline points="247.5,226.0,265.5,242.5,277.5,259.0" stroke="black" stroke-width="2" fill="none" />
<polyline points="278.0,184.0,280.0,178.0,276.5,162.0,280.5,146.0,291.0,136.5,289.0,120.5,295.5,100.0,305.5,88.0,301.5,86.0,300.0,70.0,301.5,54.0,305.5,38.0,295.0,46.0,276.5,38.5,266.5,44.5,242.0,86.5,226.0,108.5,209.5,132.5,222.0,122.5,234.0,106.5,246.0,90.5,252.0,74.5,258.0,58.5,264.0,42.5,260.0,50.0,244.5,92.0,228.5,114.0,212.5,134.0" stroke="black" stroke-width="2" fill="none" />
<polyline points="217.0,106.0,195.0,98.0,189.0,80.0,195.0,64.0,197.0,48.0,195.0,40.0" stroke="black" stroke-width="2" fill="none" />
<polyline points="181.0,43.0,182.5,59.0,179.0,75.0,176.5,91.0,180.5,106.5,176.0,122.5,194.5,138.5,203.0,154.0,213.5,174.0,235.5,181.5,255.5,198.0,275.5,214.0,293.5,230.0,303.0,246.0,294.5,261.5,280.0,278.0,269.5,294.0,261.5,310.5,263.0,339.0,256.5,355.0,264.5,371.0,268.5,386.5,279.0,386.5,277.5,404.5,293.5,402.5,297.5,418.5,304.0,434.5,312.0,450.5,318.0,466.5,330.0,483.0,350.0,499.0,358.0,482.5,368.5,496.0,384.5,492.0,393.0,489.5" stroke="black" stroke-width="2" fill="none" />
<polyline points="272.5,393.0,256.5,396.5,240.0,406.5,254.0,396.5" stroke="black" stroke-width="2" fill="none" />
<polyline points="221.5,331.0,231.5,347.0,251.5,350.0,263.5,352.5,279.5,348.5,281.5,359.0,298.0,354.5,314.0,356.5,328.0,354.0,343.5,358.0,360.0,356.0,362.0,362.0,378.5,359.5,394.5,364.0,411.0,364.0,427.0,366.0" stroke="black" stroke-width="2" fill="none" />
<polyline points="447.5,326.0,463.5,310.5,464.0,324.0,450.0,340.0,437.5,347.5,435.5,353.5,464.0,337.5,457.5,345.5,439.5,369.0,423.0,371.5,407.0,375.5,393.5,379.5,381.5,381.5,375.5,370.0,375.0,364.5,367.5,380.5,347.5,384.5,331.5,382.5,318.0,388.5,302.0,396.5,286.0,394.5,296.0,390.5,280.0,396.0,262.0,392.0,246.0,397.5,230.0,403.5,228.0,409.5,240.0,399.5,265.5,383.5,262.0,367.0,250.0,339.0,254.0,313.0,255.5,288.5,231.5,274.5,220.0,265.0,204.0,259.0,194.0,257.0,158.0,235.0,131.5,219.0,109.5,203.0,89.5,187.5,73.5,171.5,66.0,156.0,76.0,152.5,66.0,140.5,50.0,158.5" stroke="black" stroke-width="2" fill="none" />
<polyline points="54.0,158.5,70.0,165.0,85.5,163.0,115.5,173.0,132.0,188.5,152.0,208.0,167.5,216.0,183.0,216.0,201.0,208.0,217.5,222.0,235.5,216.0,235.5,212.0,239.5,228.5,256.0,244.5,270.0,260.5" stroke="black" stroke-width="2" fill="none" />
<polyline points="279.0,203.5,263.0,189.5,247.5,175.5,231.5,167.5,226.0,161.0,208.5,161.0,198.5,155.0,182.5,149.0,166.5,143.5,150.5,131.5,134.5,113.5" stroke="black" stroke-width="2" fill="none" />
<polyline points="142.0,119.0,158.0,130.5,174.5,144.0,190.5,148.0" stroke="black" stroke-width="2" fill="none" />
<polyline points="188.5,122.0,186.5,114.0,190.5,98.0,184.5,82.0,190.0,60.0,190.0,43.5,180.0,41.5" stroke="black" stroke-width="2" fill="none" />
<polyline points="169.5,52.0,161.5,50.0,151.5,54.5,132.0,70.5,106.0,80.5,86.5,96.5,74.5,112.5,84.5,120.0,88.5,122.0,82.0,137.5,79.5,153.5,98.0,169.5,116.0,186.0,138.0,204.5" stroke="black" stroke-width="2" fill="none" />
<polyline points="162.0,197.5,145.5,193.5,129.5,191.5,113.5,183.5,97.5,165.5" stroke="black" stroke-width="2" fill="none" />
<polyline points="94.0,172.0,110.0,188.0,126.0,196.0,142.5,210.0,158.5,216.5,174.5,222.0,198.5,202.5,215.0,174.5,230.5,179.0,246.5,190.5,262.5,204.5,278.5,216.5,294.5,230.5" stroke="black" stroke-width="2" fill="none" />
<polyline points="276.0,273.5,260.0,253.0,244.5,243.0,228.5,233.0,212.0,227.5,196.0,225.5,168.0,238.0,151.5,232.0,136.0,222.0,120.0,210.0,104.0,198.0,88.0,186.0,72.0,168.0" stroke="black" stroke-width="2" fill="none" />
<polyline points="63.5,144.0,75.5,156.0,91.5,172.0,109.5,188.0,129.5,203.5,164.0,219.0,176.0,231.5,184.5,227.5,194.5,247.5,210.5,250.0,226.0,264.0,242.0,276.0,258.5,284.0,272.5,290.0,301.0,289.5,308.5,289.5,324.5,293.5,334.5,301.5,350.5,301.0,366.0,303.0,382.5,297.0,394.5,281.0,408.5,277.5,424.5,273.5,441.0,266.0,453.0,256.0,469.0,238.5,473.0,240.5,465.0,257.0,439.0,273.0" stroke="black" stroke-width="2" fill="none" />
<polyline points="474.0,279.5,454.0,295.5,432.0,311.5,398.0,327.5,386.0,352.0,394.0,364.0,415.5,378.0,409.5,383.5,425.5,391.5,445.0,380.0,461.0,362.0,477.0,332.0" stroke="black" stroke-width="2" fill="none" />
<polyline points="467.5,300.0,449.5,316.0,454.0,332.0,438.0,348.0,420.0,352.5,402.0,358.5,422.0,352.5,438.5,344.0" stroke="black" stroke-width="2" fill="none" />
<polyline points="480.0,161.5,464.0,133.5,447.5,111.5,431.0,91.0,415.5,75.5,399.5,69.5,396.0,63.5,380.5,55.5,365.0,46.0,348.5,26.5,336.0,43.0,319.5,31.0,303.5,27.5,287.5,23.5" stroke="black" stroke-width="2" fill="none" />
<polyline points="303.0,26.0,335.5,42.0,353.0,45.5,341.5,53.5,337.5,69.5,350.0,71.5,354.0,75.5,350.5,104.0,334.5,120.0,321.0,142.5,323.0,158.5,325.0,174.5,321.0,190.5" stroke="black" stroke-width="2" fill="none" />
<polyline points="299.5,188.5,299.5,186.5,291.5,183.0,292.0,167.0,288.0,150.5" stroke="black" stroke-width="2" fill="none" />
<polyline points="267.0,152.5,265.0,168.5" stroke="black" stroke-width="2" fill="none" />
<polyline points="266.5,105.0,240.5,109.0,232.5,133.0,227.0,144.5,227.0,128.5,230.5,122.0,218.5,113.5,217.0,97.5,215.5,81.0,221.5,64.5,224.0,49.0,214.0,51.0" stroke="black" stroke-width="2" fill="none" />
<polyline points="215.0,58.0,237.0,34.0,235.5,50.5,231.5,50.5,232.0,67.0,238.0,83.0" stroke="black" stroke-width="2" fill="none" />
<polyline points="224.5,73.5,220.0,89.5,224.0,105.5,238.0,123.0,248.0,135.0,248.5,150.5,262.5,156.5,248.0,170.5,266.0,186.5,282.0,202.5,288.0,212.5" stroke="black" stroke-width="2" fill="none" />
<polyline points="317.0,130.5,333.0,114.5,349.0,96.0,365.0,76.0,371.0,74.0,362.5,90.0,360.0,106.0,371.5,108.5,387.5,90.5,385.0,106.5,379.0,122.5" stroke="black" stroke-width="2" fill="none" />
<polyline points="393.0,143.5,377.0,149.5" stroke="black" stroke-width="2" fill="none" />
<polyline points="378.0,103.0,356.0,145.0,340.0,157.5,328.5,175.5,338.5,160.0,358.5,144.5,368.0,122.5,374.0,106.5,379.5,90.5,379.0,74.5,376.5,73.0,360.5,91.0" stroke="black" stroke-width="2" fill="none" />
<polyline points="357.0,117.5,357.0,101.5,345.0,109.5,329.0,123.5" stroke="black" stroke-width="2" fill="none" />
<polyline points="295.5,107.0,298.0,97.0,296.0,81.0" stroke="black" stroke-width="2" fill="none" />
<polyline points="293.0,78.5,294.5,94.5,284.5,100.0,284.5,116.0,298.0,130.5,314.0,106.5" stroke="black" stroke-width="2" fill="none" />
<polyline points="270.5,99.5,276.5,115.5,277.5,131.5,274.0,147.5,270.0,163.5" stroke="black" stroke-width="2" fill="none" />
<polyline points="227.0,154.0,211.0,144.0,195.0,138.5,185.0,136.5,165.0,126.5,170.5,116.0,164.5,114.0,160.0,98.0,172.0,91.5,173.5,75.5,167.5,69.5,171.0,57.5,168.5,53.5,164.5,59.5" stroke="black" stroke-width="2" fill="none" />
<polyline points="136.0,64.0,152.0,54.0,148.5,68.0,138.5,74.0,126.5,90.0,132.5,92.5,124.5,108.0,136.5,110.0,146.0,125.5,170.0,141.5" stroke="black" stroke-width="2" fill="none" />
<polyline points="188.0,138.0,168.5,122.0,152.5,101.5" stroke="black" stroke-width="2" fill="none" />
<polyline points="147.0,96.5,148.5,86.5,160.5,88.0,163.0,103.5,173.5,103.5,172.0,111.5,182.0,123.5,198.0,131.5" stroke="black" stroke-width="2" fill="none" />
<polyline points="190.5,163.0,175.0,157.5,159.0,145.5,142.5,137.5,126.5,125.5" stroke="black" stroke-width="2" fill="none" />
<polyline points="110.5,115.5,138.5,135.5,144.5,139.5,144.5,156.0,168.0,166.5,189.5,172.5,189.5,178.5" stroke="black" stroke-width="2" fill="none" />
<polyline points="168.0,180.5,162.0,178.5,146.0,170.0" stroke="black" stroke-width="2" fill="none" />
<polyline points="153.0,172.5,175.0,188.0,191.0,204.0,201.0,211.5,222.5,231.5,250.0,247.5,264.0,263.5,281.5,275.5,297.5,257.5" stroke="black" stroke-width="2" fill="none" />
<polyline points="178.0,172.5,161.5,164.0,145.5,164.0,129.5,166.0,113.5,161.5,98.0,153.5" stroke="black" stroke-width="2" fill="none" />
<polyline points="96.0,150.0,112.0,156.0,128.5,157.5,144.5,160.0,161.0,154.0,177.0,164.0,193.0,170.5" stroke="black" stroke-width="2" fill="none" />
<polyline points="157.5,110.5,153.5,94.5,139.5,86.5,121.5,93.0" stroke="black" stroke-width="2" fill="none" />
<polyline points="97.5,85.5,113.5,73.5,117.5,83.5,107.5,85.5,108.0,101.5,112.0,103.5,116.0,119.5,127.5,135.0,133.0,151.0,141.5,175.0,148.0,191.0,149.5,199.5,165.5,205.5" stroke="black" stroke-width="2" fill="none" />
<polyline points="118.0,144.0,110.5,128.0,98.5,111.5" stroke="black" stroke-width="2" fill="none" />
<polyline points="97.5,108.5,95.5,100.5,101.5,121.0,95.5,137.0,89.0,145.0,92.5,160.5,96.5,163.0,136.5,170.5,146.5,178.5,154.5,195.0" stroke="black" stroke-width="2" fill="none" />
<polyline points="182.0,190.0,165.5,184.0,149.5,176.0,134.0,172.5,128.0,184.5,112.0,166.0,96.0,157.5" stroke="black" stroke-width="2" fill="none" />
<polyline points="93.5,143.0,109.5,150.5,125.5,155.0,143.5,151.0" stroke="black" stroke-width="2" fill="none" />
<polyline points="103.0,126.0,87.0,122.0" stroke="black" stroke-width="2" fill="none" />
<polyline points="101.5,123.5,109.5,139.5" stroke="black" stroke-width="2" fill="none" />
<polyline points="151.0,148.5,134.5,139.0,126.5,145.0,118.0,129.5,107.5,113.0,101.0,105.0,101.0,89.0,78.5,104.5,62.0,127.0" stroke="black" stroke-width="2" fill="none" />
<polyline points="72.5,115.0,62.5,131.5,76.0,131.5,60.0,143.5,58.0,160.0,48.0,168.0,57.5,172.0,69.5,187.5,77.5,203.5,97.0,219.5" stroke="black" stroke-width="2" fill="none" />
<polyline points="50.0,223.0,66.0,239.0,82.5,249.0,98.0,265.0,114.0,275.0" stroke="black" stroke-width="2" fill="none" />
<polyline points="156.0,284.5,140.0,280.5,123.5,278.5,107.5,278.5,91.5,270.5,75.0,260.5,58.5,240.5,42.5,225.0" stroke="black" stroke-width="2" fill="none" />
<polyline points="40.0,227.5,56.0,243.5,68.0,259.0,88.0,275.0,118.5,291.5" stroke="black" stroke-width="2" fill="none" />
<polyline points="222.5,276.0,206.5,277.5,190.5,277.5,174.5,275.5,158.0,271.0,141.5,265.0,125.5,261.5,109.5,253.5,94.0,251.5,78.0,239.5,62.0,228.0,46.0,210.5" stroke="black" stroke-width="2" fill="none" />
<polyline points="47.5,201.0,51.5,217.0,67.5,233.0,91.5,249.5,127.5,267.5" stroke="black" stroke-width="2" fill="none" />
<polyline points="63.0,199.5,47.0,176.0" stroke="black" stroke-width="2" fill="none" />
<polyline points="39.0,169.5,39.0,185.5,40.5,202.0,42.5,218.0,46.5,234.0,52.5,250.0,66.0,266.0,82.0,282.5,110.0,298.5,130.0,297.0,146.0,305.0,162.0,307.0,178.5,309.0,194.5,312.5,211.0,314.5,227.0,320.0,243.0,320.0,247.0,325.5,260.5,327.5,276.5,331.5,292.5,335.5,308.5,335.5,325.0,335.5,341.0,335.5,356.5,335.0,372.0,337.5,388.0,335.5,404.5,338.0,420.5,340.5,436.0,339.0,451.5,335.0" stroke="black" stroke-width="2" fill="none" />
<polyline points="333.5,280.0,317.5,282.0,315.5,272.0,337.5,256.0,355.5,240.0,381.5,224.0,397.5,208.0,405.0,192.0,417.0,176.0,426.5,160.0,423.0,154.0,402.5,170.0,387.0,180.5,371.0,188.5,355.5,204.5,340.0,210.0,324.0,222.0,308.5,246.0,290.5,249.5,274.5,231.5,259.0,219.5,243.0,199.5,226.5,189.5,210.5,187.5,192.5,189.5,176.5,181.5,194.0,168.0,164.0,152.5,158.0,138.5,138.0,122.5,142.0,114.5,140.0,98.0,158.0,88.0,155.5,72.0,155.5,55.5,141.5,51.5,126.0,59.5,110.0,69.0,94.5,81.5,78.5,95.5,62.5,120.0,46.5,154.5" stroke="black" stroke-width="2" fill="none" />
<polyline points="19.0,162.5,3.5,168.5" stroke="black" stroke-width="2" fill="none" />
<polyline points="3.0,175.0,19.0,169.0,35.0,167.0,50.5,126.5,66.0,98.0,82.0,80.0,98.0,65.5,114.0,54.0,130.0,46.0,146.0,40.0,162.0,34.5,178.0,28.5,194.0,24.0,210.0,22.0,224.0,33.5,226.5,39.0" stroke="black" stroke-width="2" fill="none" />
<polyline points="227.0,48.5,227.0,64.5,229.0,80.0" stroke="black" stroke-width="2" fill="none" />
<polyline points="207.5,86.5,209.5,102.5" stroke="black" stroke-width="2" fill="none" />
<polyline points="241.5,109.0,241.5,125.0,243.5,141.5,245.5,157.5" stroke="black" stroke-width="2" fill="none" />
<polyline points="239.5,54.5,241.5,38.0,247.5,38.0,247.5,30.5" stroke="black" stroke-width="2" fill="none" />
<polyline points="265.5,44.5,267.5,60.5" stroke="black" stroke-width="2" fill="none" />
<polyline points="262.0,70.0,266.0,70.0,273.5,70.0,267.0,64.0,268.5,70.0,294.0,68.5,295.5,52.5,287.5,51.0,283.5,49.0,285.5,33.5,301.5,33.5,299.5,37.5" stroke="black" stroke-width="2" fill="none" />
<polyline points="310.0,33.5,306.0,49.5,306.0,66.0,318.0,76.0,316.0,91.5,308.5,107.5,296.0,123.5,296.0,123.5,312.0,99.5" stroke="black" stroke-width="2" fill="none" />
<polyline points="344.0,82.0,346.0,66.0" stroke="black" stroke-width="2" fill="none" />
<polyline points="351.5,58.5,359.5,60.5,371.0,60.5,363.0,76.5,350.5,92.0,336.5,108.0,320.5,123.5,313.0,139.5,315.0,153.5,317.5,169.0,315.5,185.0,323.5,205.0,339.5,195.0,355.5,185.5,371.5,179.5,387.5,171.5,404.0,164.0,416.0,120.5,434.0,113.0,428.0,129.0,426.0,145.0,400.0,161.0,376.5,177.0,350.0,191.0,324.0,207.0,305.5,220.5,325.5,226.5,349.0,208.5,361.0,206.0,376.5,189.5" stroke="black" stroke-width="2" fill="none" />
<polyline points="407.0,153.0,413.0,136.5,414.5,120.5" stroke="black" stroke-width="2" fill="none" />
<polyline points="412.0,115.5,408.5,131.5,404.5,147.5,402.5,172.0,372.5,188.0,356.5,204.0,334.5,212.0,324.5,228.0" stroke="black" stroke-width="2" fill="none" />
<polyline points="208.5,259.5,194.5,265.5,178.5,255.5,162.5,251.5,147.0,245.5,131.0,242.0,115.0,238.0,99.0,240.5,82.5,230.5,72.5,215.0,56.0,203.0,40.0,199.0" stroke="black" stroke-width="2" fill="none" />
<polyline points="43.5,194.0,59.5,211.5,75.5,223.5,89.5,241.5,99.5,259.5,115.0,269.5" stroke="black" stroke-width="2" fill="none" />
<polyline points="124.0,287.0,86.0,267.0,68.0,251.0,56.0,235.0,50.0,223.0,44.0,207.5,42.0,191.5" stroke="black" stroke-width="2" fill="none" />
<polyline points="45.0,187.5,59.0,203.5,77.0,219.5,100.5,241.5,102.0,261.0,124.0,281.0,140.0,283.0,156.0,289.5" stroke="black" stroke-width="2" fill="none" />
<polyline points="364.0,143.5,348.0,160.0,332.0,176.0,342.5,164.5,360.5,148.5,368.5,132.5,376.5,110.5,382.5,94.5,386.5,78.5" stroke="black" stroke-width="2" fill="none" />
<polyline points="392.5,74.5,394.5,90.5,390.5,106.5,384.5,108.5" stroke="black" stroke-width="2" fill="none" />
<polyline points="391.0,55.0,375.0,45.5,359.0,30.0,343.0,16.0" stroke="black" stroke-width="2" fill="none" />
<polyline points="326.0,42.0,321.5,58.0,324.0,66.5,328.0,68.5,322.5,84.0,318.5,99.5,311.0,116.0,297.0,132.0,285.0,158.0,289.0,174.0,285.0,190.0,297.0,207.5" stroke="black" stroke-width="2" fill="none" />
<polyline points="439.0,266.0,461.0,248.0,475.0,231.5,481.0,216.0,483.0,200.0,477.0,184.5,469.0,168.5,461.0,152.5" stroke="black" stroke-width="2" fill="none" />
<polyline points="331.0,86.5,333.0,70.5,330.5,54.5" stroke="black" stroke-width="2" fill="none" />
<polyline points="319.0,42.5,317.0,58.5,313.0,74.0,313.0,90.0,302.5,74.0" stroke="black" stroke-width="2" fill="none" />
<polyline points="310.5,54.5,314.5,39.0" stroke="black" stroke-width="2" fill="none" />
<polyline points="307.0,21.5,351.0,33.5,367.5,49.5,393.5,65.5,412.0,81.0,428.0,97.5,442.0,113.5,454.0,130.0,462.0,146.0,472.0,162.5,480.0,178.5,486.0,195.0,491.5,211.0,493.5,226.5,481.5,234.5,473.5,250.0,460.0,266.0,429.5,282.0,406.0,302.0,388.0,308.0,394.0,302.0,410.0,298.5,426.0,292.0,441.5,286.0,457.5,275.5,477.5,265.0,479.5,247.5,489.5,247.5,501.5,257.5,505.5,239.5" stroke="black" stroke-width="2" fill="none" />
<polyline points="271.5,52.0,272.0,36.5" stroke="black" stroke-width="2" fill="none" />
<polyline points="170.0,29.5,130.0,45.5,103.5,59.5,85.5,75.5,71.5,91.5,60.0,108.0,52.0,123.5,44.0,139.5,38.0,156.0,6.0,172.0,14.0,158.5" stroke="black" stroke-width="2" fill="none" />
<polyline points="165.5,25.0,125.5,41.0,99.5,57.0,79.5,73.5,66.0,90.0,54.0,106.5,46.0,122.5,40.0,138.5,34.0,154.5,6.5,154.5,23.0,154.5,39.0,142.5,54.5,106.5,70.5,86.5,86.5,70.5,102.5,54.5,118.5,46.0,134.0,40.0,150.0,34.0,166.0,26.0,182.5,22.0,198.5,20.0,210.5,29.5,226.0,27.0,242.0,25.0,257.5,25.0,273.5,24.5,289.0,27.0,305.0,31.0,331.5,43.0,349.5,47.5,353.5,43.5,371.5,57.5,387.5,71.5,404.0,81.5,420.0,95.5,436.5,113.5,453.0,136.0,469.5,166.0,473.5,186.0" stroke="black" stroke-width="2" fill="none" />
</svg>