<svg xmlns="http://www.w3.org/2000/svg" width="512mm" height="512mm" viewBox="0 0 512 512" version="1.1"><polyline points="209.5,30.5,197.5,46.5,191.5,62.5,185.5,78.5,179.5,95.0,175.5,111.0,175.5,127.0,173.5,143.0,169.0,159.0,167.0,174.5,184.5,168.5,201.0,138.5,211.0,100.5" stroke="black" stroke-width="2" fill="none" />
<polyline points="208.5,132.5,224.5,132.5,230.5,150.5,204.0,166.5,202.0,182.5,200.5,198.5,210.5,208.0,208.5,235.5,202.5,251.5,198.5,267.5,192.5,283.5,184.5,299.5,206.5,273.5,208.5,261.5,224.5,257.5,240.0,257.5,256.0,259.5,272.0,263.5,288.0,265.5,304.0,267.5,320.0,271.5,336.5,275.5,352.5,279.5,368.0,280.0,384.0,268.0,399.5,258.0,415.5,264.0,432.0,278.5" stroke="black" stroke-width="2" fill="none" />
<polyline points="441.5,266.5,425.5,258.5" stroke="black" stroke-width="2" fill="none" />
<polyline points="422.0,259.5,436.0,255.0,456.0,271.0,453.5,287.0,435.5,303.0,405.5,322.5,379.5,338.5,345.5,354.0,324.0,369.5,319.5,385.5,333.5,401.5,357.5,423.5,344.0,439.5,326.0,455.5,326.0,456.0,342.0,442.0" stroke="black" stroke-width="2" fill="none" />
<polyline points="373.0,434.0,357.5,446.0,341.5,458.5,363.0,450.0,378.5,448.0,382.0,441.5,391.5,435.5,401.5,419.0,409.5,409.0,427.5,393.5,433.5,377.5,439.0,361.5,435.0,387.5" stroke="black" stroke-width="2" fill="none" />
<polyline points="458.0,385.0,460.0,369.0,476.0,345.0,480.5,357.5,496.5,353.5,506.5,349.5,505.0,363.5" stroke="black" stroke-width="2" fill="none" />
<polyline points="508.5,371.5,506.5,393.5,498.5,380.0,490.0,394.0,481.5,416.0,461.0,426.0,468.5,430.0,482.5,414.5,477.0,408.0,483.0,392.0,501.0,388.5,502.5,380.0,506.5,368.5,504.5,352.5,494.5,337.0,496.5,329.0,503.0,313.0,501.0,323.5" stroke="black" stroke-width="2" fill="none" />
<polyline points="512.0,311.5,506.0,331.5,506.0,343.5" stroke="black" stroke-width="2" fill="none" />
<polyline points="496.0,372.0,494.0,364.0,478.0,370.0" stroke="black" stroke-width="2" fill="none" />
<polyline points="457.5,357.0,467.0,361.0,455.0,377.0,449.0,395.5,466.5,411.5,479.0,427.5,489.0,414.0,487.0,420.0" stroke="black" stroke-width="2" fill="none" />
<polyline points="494.0,405.5,500.0,421.5,490.0,437.0" stroke="black" stroke-width="2" fill="none" />
<polyline points="448.5,437.5,455.0,427.5,454.5,411.5,464.5,403.5,474.0,387.5,484.0,383.5,469.5,391.5,453.0,405.0" stroke="black" stroke-width="2" fill="none" />
<polyline points="437.5,418.0,431.5,433.5,431.5,441.5,415.5,441.5" stroke="black" stroke-width="2" fill="none" />
<polyline points="437.5,418.0,453.5,442.0,469.5,448.0,485.0,441.5,505.5,413.5" stroke="black" stroke-width="2" fill="none" />
<polyline points="506.5,397.0,508.5,413.0,502.5,429.0,492.5,445.5" stroke="black" stroke-width="2" fill="none" />
<polyline points="420.5,371.5,404.5,373.5" stroke="black" stroke-width="2" fill="none" />
<polyline points="384.0,352.5,400.5,352.0,416.0,344.0,431.5,334.0,447.5,324.0,463.0,316.0,479.0,306.0" stroke="black" stroke-width="2" fill="none" />
<polyline points="488.0,287.0,480.0,285.0,464.5,282.5,448.0,300.5,431.5,312.0,415.5,316.0,399.5,328.0,383.0,336.0,367.5,343.5,351.0,351.5,334.5,357.5,318.0,375.5" stroke="black" stroke-width="2" fill="none" />
<polyline points="311.0,337.5,327.0,337.5" stroke="black" stroke-width="2" fill="none" />
<polyline points="316.0,329.5,332.0,327.5,348.0,325.5,364.0,323.5,380.0,307.5,394.0,298.0" stroke="black" stroke-width="2" fill="none" />
<polyline points="411.0,295.5,395.0,273.5" stroke="black" stroke-width="2" fill="none" />
<polyline points="397.5,272.0,409.5,288.0" stroke="black" stroke-width="2" fill="none" />
<polyline points="405.0,276.0,389.0,272.0" stroke="black" stroke-width="2" fill="none" />
<polyline points="391.5,267.0,401.5,283.0,399.5,301.0,401.5,317.5,375.5,333.5,341.5,349.5,320.0,366.0,310.0,382.5,324.0,399.0,332.0,415.0,330.0,431.0,318.0,447.0" stroke="black" stroke-width="2" fill="none" />
<polyline points="325.5,446.0,335.5,430.5,319.5,444.5,303.5,456.5,287.5,462.0,271.5,458.0,255.5,446.5" stroke="black" stroke-width="2" fill="none" />
<polyline points="268.5,390.0,271.0,382.5,277.0,380.5,261.0,392.5,245.5,384.5" stroke="black" stroke-width="2" fill="none" />
<polyline points="249.0,377.0,253.0,393.0,257.0,409.0,252.5,424.5,246.0,440.0" stroke="black" stroke-width="2" fill="none" />
<polyline points="256.0,449.0,242.0,435.0,225.5,444.5,209.5,446.5,193.0,446.0,177.0,446.0,161.0,442.0,145.0,440.0,129.0,432.0,113.0,418.0,97.0,418.0,81.5,418.0,65.5,426.0,50.0,430.0,34.5,440.0,18.5,441.5" stroke="black" stroke-width="2" fill="none" />
<polyline points="13.5,441.5,29.5,435.5" stroke="black" stroke-width="2" fill="none" />
<polyline points="72.5,425.5,88.5,423.5,105.0,423.5,121.0,429.5" stroke="black" stroke-width="2" fill="none" />
<polyline points="116.5,438.0,100.0,434.0,84.0,428.0" stroke="black" stroke-width="2" fill="none" />
<polyline points="113.0,390.5,111.5,374.5" stroke="black" stroke-width="2" fill="none" />
<polyline points="123.5,360.0,119.5,376.0,117.5,392.0,124.0,409.5,140.5,403.5,156.5,397.5,172.5,393.5,188.5,391.5,204.0,389.5,219.5,389.5,235.5,385.5,251.5,397.5,267.5,389.5" stroke="black" stroke-width="2" fill="none" />
<polyline points="240.0,376.0,255.5,370.0,271.5,368.0,287.0,368.0,302.5,371.5,318.0,369.5,334.0,353.5,350.0,345.5,365.5,337.5,381.0,331.5,397.0,321.5" stroke="black" stroke-width="2" fill="none" />
<polyline points="366.5,300.0,350.5,296.0,334.0,292.0" stroke="black" stroke-width="2" fill="none" />
<polyline points="327.0,298.5,343.0,302.5,359.0,306.0" stroke="black" stroke-width="2" fill="none" />
<polyline points="358.0,310.0,342.0,305.5,325.5,301.5" stroke="black" stroke-width="2" fill="none" />
<polyline points="324.0,285.5,340.0,287.5,356.0,292.0,372.0,294.0,396.0,294.5,412.0,306.5,428.0,306.5,444.0,296.5" stroke="black" stroke-width="2" fill="none" />
<polyline points="427.5,311.0,451.5,294.5,465.5,278.0" stroke="black" stroke-width="2" fill="none" />
<polyline points="472.0,273.5,456.0,259.5,440.0,245.0" stroke="black" stroke-width="2" fill="none" />
<polyline points="426.5,243.0,442.5,243.0,458.0,249.0,474.0,253.0,489.5,241.0" stroke="black" stroke-width="2" fill="none" />
<polyline points="463.5,256.0,437.5,230.0,452.0,214.0,438.0,228.0" stroke="black" stroke-width="2" fill="none" />
<polyline points="436.5,179.0,420.5,161.0" stroke="black" stroke-width="2" fill="none" />
<polyline points="418.5,156.5,425.0,172.5,431.0,180.5" stroke="black" stroke-width="2" fill="none" />
<polyline points="435.0,178.5,427.0,162.5" stroke="black" stroke-width="2" fill="none" />
<polyline points="415.5,148.5,432.0,152.5,448.0,154.5,464.5,158.5,480.5,164.5,497.0,178.0" stroke="black" stroke-width="2" fill="none" />
<polyline points="491.0,180.5,475.0,168.5,459.0,162.0,443.0,158.0,427.0,155.5,411.0,153.5" stroke="black" stroke-width="2" fill="none" />
<polyline points="407.5,142.0,392.0,147.5,376.0,161.5,360.0,161.5,344.0,149.5,330.0,131.5,312.0,145.5,296.0,151.5,285.5,163.5,301.5,147.5" stroke="black" stroke-width="2" fill="none" />
<polyline points="304.0,141.5,282.5,157.5,282.5,173.5,286.5,190.0,296.5,180.0,312.5,164.0,322.5,170.0" stroke="black" stroke-width="2" fill="none" />
<polyline points="319.0,169.5,308.5,174.0,297.0,190.0,295.0,206.0,315.0,222.0" stroke="black" stroke-width="2" fill="none" />
<polyline points="295.5,215.0,273.5,214.5,268.0,218.0,268.0,204.0,252.0,204.0,235.5,193.5,225.5,195.5,223.5,179.5,220.0,171.0" stroke="black" stroke-width="2" fill="none" />
<polyline points="208.5,170.0,224.5,158.0,222.5,170.0,220.0,186.0,234.0,204.5,260.0,218.5,286.0,234.5" stroke="black" stroke-width="2" fill="none" />
<polyline points="283.0,237.5,295.0,253.5" stroke="black" stroke-width="2" fill="none" />
<polyline points="298.0,255.0,282.0,243.5" stroke="black" stroke-width="2" fill="none" />
<polyline points="279.5,243.0,296.0,249.0,312.0,264.5,328.0,270.0,344.5,272.0,360.5,275.5,376.5,273.5,393.0,253.5,385.0,269.5,387.5,285.0,409.5,301.0" stroke="black" stroke-width="2" fill="none" />
<polyline points="376.5,305.0,361.0,317.0,345.0,315.0,328.5,311.5,312.5,315.5" stroke="black" stroke-width="2" fill="none" />
<polyline points="338.5,320.5,322.5,318.5,320.5,305.0,324.5,289.0,302.0,279.0,286.0,277.0,269.5,272.5,253.5,268.5,237.0,264.0,221.0,266.0" stroke="black" stroke-width="2" fill="none" />
<polyline points="206.5,265.5,223.0,265.5,227.0,273.5,217.0,287.5,225.0,277.5,229.0,269.5,233.0,283.5,248.5,289.5,264.5,279.5,261.0,293.5,277.0,289.5,269.0,279.5,258.5,283.5,256.0,273.0,236.0,281.0,220.0,297.5,235.5,299.0,251.0,301.0" stroke="black" stroke-width="2" fill="none" />
<polyline points="262.5,327.5,240.5,309.5,224.0,315.0,206.0,315.0,190.0,313.0,174.0,313.0,158.0,315.0,142.0,315.0,126.0,311.5,123.5,303.5,123.5,288.0,115.5,272.0,121.5,255.5,115.5,241.5,105.0,225.5,99.0,203.5,99.5,187.5,101.5,171.5,102.0,155.0,102.5,139.0,100.5,123.0,100.5,107.0,96.5,91.5,100.5,85.5,84.5,71.5" stroke="black" stroke-width="2" fill="none" />
<polyline points="87.5,69.0,83.5,85.0,83.5,101.0,83.5,117.5,86.0,134.0,84.0,150.5,82.0,166.5,82.0,182.5,82.0,198.5,82.5,214.5,89.0,234.5,77.0,246.5,66.5,262.5,92.5,256.5,88.5,272.5,100.5,270.5,108.5,270.0,110.0,274.0" stroke="black" stroke-width="2" fill="none" />
<polyline points="111.5,282.5,95.5,284.5,79.5,286.5,63.5,265.0" stroke="black" stroke-width="2" fill="none" />
<polyline points="50.0,274.5,70.0,276.0,75.5,292.5,77.5,308.5" stroke="black" stroke-width="2" fill="none" />
<polyline points="98.0,301.5,90.0,292.0,76.0,302.0,60.0,288.5,44.0,276.5" stroke="black" stroke-width="2" fill="none" />
<polyline points="25.5,262.5,9.5,257.0" stroke="black" stroke-width="2" fill="none" />
<polyline points="16.5,238.5,0.0,233.0" stroke="black" stroke-width="2" fill="none" />
<polyline points="5.0,232.0,11.0,257.5,15.0,259.0,3.0,269.0,15.0,269.0,30.5,269.0,45.0,269.0,61.0,279.0,81.0,271.5,91.0,275.5" stroke="black" stroke-width="2" fill="none" />
<polyline points="96.0,288.0,91.5,304.0,97.0,309.5,107.0,317.5" stroke="black" stroke-width="2" fill="none" />
<polyline points="152.0,298.0,168.0,300.0,184.5,300.0,208.5,286.0" stroke="black" stroke-width="2" fill="none" />
<polyline points="208.0,255.0,224.0,253.0,239.5,252.5,255.5,255.0,271.0,257.5,286.5,261.5,302.5,264.0" stroke="black" stroke-width="2" fill="none" />
<polyline points="286.5,275.0,284.0,291.5,312.0,281.5,310.0,298.0,308.5,320.0,294.5,336.5,258.5,353.0,230.0,369.0,209.5,385.0,225.5,384.5,241.5,380.5,257.5,374.5,273.5,372.5,289.5,374.5,305.5,378.0,322.0,386.0,338.5,404.0,354.5,415.5,370.5,412.0,387.0,398.0,403.0,368.0,419.0,360.0,435.0,354.0,447.0,348.0,463.0,332.0,479.0,324.0,495.0,308.0,511.0,294.0" stroke="black" stroke-width="2" fill="none" />
<polyline points="511.5,298.0,503.5,298.0,497.0,312.5,467.0,328.5,449.5,344.5,435.5,344.5,401.5,360.5,381.5,376.0,383.5,372.0,405.5,358.0,422.0,349.5,437.5,343.5" stroke="black" stroke-width="2" fill="none" />
<polyline points="427.0,352.5,403.0,368.5,398.5,393.0,382.5,409.0,364.0,425.5,347.5,441.5,335.5,457.5,344.0,461.5,360.0,451.5,376.0,445.5,392.0,441.5,394.0,434.0,410.0,428.5,426.0,426.5" stroke="black" stroke-width="2" fill="none" />
<polyline points="399.5,401.5,405.5,384.0,393.5,400.0,377.5,414.0,362.0,428.5,346.0,444.5,330.5,459.0,362.5,443.0,374.5,427.0,384.0,401.0,394.0,385.0,394.0,369.0,404.0,351.0,432.0,335.0,458.5,318.5,486.5,302.5,495.0,298.5,483.0,280.5,461.0,266.5,443.0,250.5,411.0,244.5,394.5,234.5,378.5,224.5" stroke="black" stroke-width="2" fill="none" />
<polyline points="379.0,216.0,393.0,232.0,403.0,247.5,416.5,265.5" stroke="black" stroke-width="2" fill="none" />
<polyline points="455.0,266.5,439.0,254.0,423.0,250.0,410.5,253.5,404.5,231.5,388.5,221.0,372.5,215.0" stroke="black" stroke-width="2" fill="none" />
<polyline points="392.0,196.5,376.5,184.5" stroke="black" stroke-width="2" fill="none" />
<polyline points="354.5,200.5,338.5,206.0,323.0,218.0,307.5,213.5,292.0,202.0" stroke="black" stroke-width="2" fill="none" />
<polyline points="295.5,214.0,309.5,230.0" stroke="black" stroke-width="2" fill="none" />
<polyline points="291.5,230.0,285.5,224.0,277.0,218.0,279.5,202.0,280.0,186.0,278.5,170.5,254.5,158.5,238.5,159.0" stroke="black" stroke-width="2" fill="none" />
<polyline points="260.5,160.5,276.0,166.0" stroke="black" stroke-width="2" fill="none" />
<polyline points="306.5,176.5,290.5,196.5,299.0,178.5,311.0,162.5" stroke="black" stroke-width="2" fill="none" />
<polyline points="314.5,142.0,298.0,145.5,282.0,157.5,266.0,157.5,250.0,151.5,234.0,149.5,218.0,155.0,202.5,169.0" stroke="black" stroke-width="2" fill="none" />
<polyline points="208.0,193.0,206.0,177.0,220.0,161.5,224.5,137.0,208.5,137.0" stroke="black" stroke-width="2" fill="none" />
<polyline points="211.0,116.5,189.0,156.5,173.0,180.5,169.0,196.5,173.0,180.5,182.5,164.5,192.5,148.5,200.5,132.5,204.5,116.5,212.5,100.5,218.5,84.5,222.0,68.5,226.5,52.5,230.5,36.0,218.5,31.5,202.5,37.0,186.0,72.5" stroke="black" stroke-width="2" fill="none" />
<polyline points="183.5,83.0,199.0,59.5,215.0,36.0,210.5,38.0,200.0,54.0,193.5,70.5,187.5,86.5,181.5,102.5,179.5,118.5,180.0,136.5,176.5,152.5" stroke="black" stroke-width="2" fill="none" />
<polyline points="151.5,171.5,150.0,155.0,150.0,139.0,148.0,123.0,145.5,106.5,145.5,90.5,156.0,79.0,140.0,75.0" stroke="black" stroke-width="2" fill="none" />
<polyline points="140.5,77.5,150.5,83.5,153.0,99.5" stroke="black" stroke-width="2" fill="none" />
<polyline points="161.0,106.0,159.0,90.5,147.0,74.5" stroke="black" stroke-width="2" fill="none" />
<polyline points="125.0,76.5,129.0,92.5,129.0,108.0,131.0,123.5,133.0,139.5,135.0,155.0,137.5,171.0,138.0,187.5,138.0,203.5,154.0,207.5" stroke="black" stroke-width="2" fill="none" />
<polyline points="150.0,241.5,166.0,241.5,182.0,240.0,196.5,242.0,184.5,248.0,182.5,258.0" stroke="black" stroke-width="2" fill="none" />
<polyline points="206.5,254.0,214.5,234.0,208.0,250.0,186.0,259.5,190.0,269.5,198.0,295.5,214.0,289.0,210.5,277.5,226.5,291.5,243.0,287.5,245.0,274.0,265.0,276.0,281.0,283.5,285.0,291.0,300.5,285.0" stroke="black" stroke-width="2" fill="none" />
<polyline points="306.0,257.5,286.0,241.5" stroke="black" stroke-width="2" fill="none" />
<polyline points="317.0,228.0,337.0,212.5" stroke="black" stroke-width="2" fill="none" />
<polyline points="344.0,202.0,322.0,218.0" stroke="black" stroke-width="2" fill="none" />
<polyline points="269.0,217.5,251.0,201.5" stroke="black" stroke-width="2" fill="none" />
<polyline points="169.5,253.5,153.0,249.5" stroke="black" stroke-width="2" fill="none" />
<polyline points="151.0,254.0,167.0,258.0,183.0,262.0" stroke="black" stroke-width="2" fill="none" />
<polyline points="179.5,248.5,163.5,248.0,147.5,252.0" stroke="black" stroke-width="2" fill="none" />
<polyline points="136.5,253.0,152.5,263.5" stroke="black" stroke-width="2" fill="none" />
<polyline points="132.5,257.5,148.5,268.0,172.0,282.0" stroke="black" stroke-width="2" fill="none" />
<polyline points="192.0,327.0,172.0,343.0,156.0,359.5,141.5,375.5,129.5,392.0,107.0,408.0,125.0,402.0,141.5,398.5,157.5,392.5,173.5,388.5,189.5,387.0,205.5,386.5,221.5,373.0,237.5,365.0,254.0,355.0,270.0,349.0,286.0,342.5,302.5,330.0,318.5,323.5,334.5,323.5" stroke="black" stroke-width="2" fill="none" />
<polyline points="328.5,342.0,312.5,346.5,296.5,350.5,280.5,353.0,264.5,357.0,249.0,365.0,233.0,373.5,217.0,381.0,245.0,367.0,263.0,339.0,252.0,323.0,238.0,304.5,222.5,302.5,206.5,302.0,191.0,304.0,175.5,305.5,160.0,306.0,151.5,295.5,159.5,279.5,151.5,263.5,133.5,241.5,129.0,239.5,135.0,215.5,128.5,200.0,124.5,184.0,122.0,168.5,104.0,161.0" stroke="black" stroke-width="2" fill="none" />
<polyline points="127.0,166.0,129.0,181.5,133.0,197.5" stroke="black" stroke-width="2" fill="none" />
<polyline points="148.0,189.5,148.0,173.5,146.0,157.5,146.0,141.5,143.5,125.5,141.0,109.5,138.5,94.0,140.5,78.5,121.0,74.5" stroke="black" stroke-width="2" fill="none" />
<polyline points="123.0,75.0,124.5,91.0,125.0,107.0,126.5,123.0,128.5,138.5,130.0,154.5,132.5,170.5,135.0,186.0,143.5,212.0,157.5,229.5,173.5,222.0,189.5,220.0" stroke="black" stroke-width="2" fill="none" />
<polyline points="124.0,228.5,108.0,214.0" stroke="black" stroke-width="2" fill="none" />
<polyline points="123.5,263.5,121.5,279.5,117.5,295.5" stroke="black" stroke-width="2" fill="none" />
<polyline points="115.0,307.5,98.5,307.5,98.5,313.5,82.5,324.0,66.0,328.0,49.5,331.5,33.0,327.5,17.0,311.5,1.0,301.0" stroke="black" stroke-width="2" fill="none" />
<polyline points="1.5,298.0,17.5,304.0,33.5,320.0,49.5,316.0,57.5,309.5,54.0,325.0,68.0,321.5" stroke="black" stroke-width="2" fill="none" />
<polyline points="47.5,349.0,37.5,365.0,33.5,382.0,37.5,366.5,47.5,364.5,63.5,369.0,80.0,370.5,96.0,366.5,112.0,368.0,127.5,360.0,144.0,360.0,160.0,348.0,176.5,335.5,192.5,328.0" stroke="black" stroke-width="2" fill="none" />
<polyline points="183.5,330.0,161.5,346.0,146.0,364.0,134.0,380.0,132.0,398.5,116.0,414.5,130.0,434.5" stroke="black" stroke-width="2" fill="none" />
<polyline points="138.5,375.0,123.0,394.5,106.5,410.5,90.5,412.0,74.5,412.5,58.5,412.0,42.0,408.0,26.0,402.0,10.0,384.0" stroke="black" stroke-width="2" fill="none" />
<polyline points="14.0,379.5,30.0,398.0" stroke="black" stroke-width="2" fill="none" />
<polyline points="50.0,370.0,38.0,386.5,44.0,374.0,59.5,372.0,75.5,381.5,91.5,371.0,107.5,371.5,131.5,363.5" stroke="black" stroke-width="2" fill="none" />
<polyline points="62.0,366.5,82.0,376.5,78.5,392.5,76.5,417.0,104.5,435.0" stroke="black" stroke-width="2" fill="none" />
<polyline points="68.5,403.5,72.5,388.0,56.5,372.0" stroke="black" stroke-width="2" fill="none" />
<polyline points="30.0,340.0,14.0,358.0" stroke="black" stroke-width="2" fill="none" />
<polyline points="7.0,362.0,23.0,338.0" stroke="black" stroke-width="2" fill="none" />
<polyline points="36.5,336.0,26.5,320.5,4.5,304.5" stroke="black" stroke-width="2" fill="none" />
<polyline points="3.5,298.0,27.0,314.0,39.0,329.5,15.0,353.5,11.0,369.5,12.5,385.5,32.5,397.5,48.5,403.5,64.5,405.5,91.0,405.5,107.0,395.0,123.0,397.5,139.0,379.5,153.5,361.5,170.0,346.0,186.5,336.0" stroke="black" stroke-width="2" fill="none" />
<polyline points="215.5,321.0,231.5,309.0,221.5,313.0,205.5,323.0,189.5,320.5,173.5,320.5,157.5,320.5,141.5,322.5,125.5,322.0,109.5,324.0,93.0,324.0,81.5,314.0,78.0,298.0,66.5,278.5,60.5,262.5,60.5,247.0,58.5,231.0,56.0,215.0,56.0,198.5,54.0,182.5,50.0,166.5,59.5,150.0,57.5,134.0,53.5,118.0,47.5,93.5,32.0,71.5" stroke="black" stroke-width="2" fill="none" />
<polyline points="31.0,72.0,27.5,88.0,29.0,103.5,29.5,119.5,37.5,119.5,40.0,135.5,36.0,151.5,40.5,168.0,44.5,184.0,47.0,200.5,47.0,216.5,43.0,224.5,43.0,240.5,43.0,256.0,45.0,270.0,59.0,285.5,55.0,302.0,51.0,318.0,45.0,334.5,17.5,346.5,9.5,362.5,9.0,378.5,15.0,394.5,48.5,410.0,44.0,432.0,48.0,435.5,63.5,431.5,79.5,429.5,95.5,437.5,111.5,443.0,127.5,443.0,143.5,443.0,160.0,447.0,176.0,449.5,192.5,452.0,209.0,452.0,225.0,450.0,241.0,444.0,255.5,444.0,271.5,450.0,287.5,456.5,305.0,462.5,321.0,452.5,337.0,418.5,352.5,422.0,376.0,426.0,386.0,428.0,395.5,406.0,411.5,406.0,428.0,392.0,450.0,352.0,466.0,336.0,481.5,330.0,495.5,320.0,501.0,308.0" stroke="black" stroke-width="2" fill="none" />
<polyline points="469.0,331.5,453.0,347.5,443.0,364.0,439.5,380.5,436.0,396.5,436.5,413.0,420.5,428.5,416.5,432.5,407.0,434.5,401.5,450.5,389.5,448.5,411.5,450.5,427.5,447.0,443.5,447.0,459.0,451.0,474.5,452.5,490.5,447.0" stroke="black" stroke-width="2" fill="none" />
<polyline points="437.0,428.5,424.5,434.5,400.5,439.0,394.0,421.0,394.0,405.0" stroke="black" stroke-width="2" fill="none" />
<polyline points="243.5,434.5,249.0,418.5,253.0,402.5,235.0,386.5" stroke="black" stroke-width="2" fill="none" />
<polyline points="31.5,211.0,21.5,194.5,13.5,196.5" stroke="black" stroke-width="2" fill="none" />
<polyline points="2.5,197.5,18.5,191.5,34.5,210.0" stroke="black" stroke-width="2" fill="none" />
<polyline points="20.0,232.0,4.0,224.0" stroke="black" stroke-width="2" fill="none" />
<polyline points="4.0,219.5,19.5,227.5" stroke="black" stroke-width="2" fill="none" />
<polyline points="19.5,234.0,3.5,212.5,15.5,200.5,9.5,200.5,1.5,208.5" stroke="black" stroke-width="2" fill="none" />
<polyline points="2.0,182.5,18.0,187.0,33.5,201.0" stroke="black" stroke-width="2" fill="none" />
<polyline points="18.0,179.0,2.0,177.0" stroke="black" stroke-width="2" fill="none" />
<polyline points="2.0,172.5,18.0,174.5,34.0,192.5" stroke="black" stroke-width="2" fill="none" />
<polyline points="17.5,146.0,1.0,137.5" stroke="black" stroke-width="2" fill="none" />
<polyline points="2.0,130.5,18.0,142.0" stroke="black" stroke-width="2" fill="none" />
<polyline points="21.0,153.5,19.0,133.5,3.0,124.0" stroke="black" stroke-width="2" fill="none" />
<polyline points="3.5,123.0,15.5,139.0,27.5,155.5" stroke="black" stroke-width="2" fill="none" />
<polyline points="18.5,114.0,2.5,112.5" stroke="black" stroke-width="2" fill="none" />
<polyline points="0.5,107.0,16.5,108.5" stroke="black" stroke-width="2" fill="none" />
<polyline points="33.5,93.0,49.5,107.0" stroke="black" stroke-width="2" fill="none" />
<polyline points="72.5,117.5,62.5,99.5,46.5,77.5" stroke="black" stroke-width="2" fill="none" />
<polyline points="35.5,75.5,43.5,91.5,63.5,111.5,67.5,127.0,73.5,143.0,73.5,158.5,72.0,174.5,72.5,190.0,73.0,206.0,67.5,230.0,74.0,238.0,80.0,242.0,95.5,230.0,97.0,235.5,102.5,241.5" stroke="black" stroke-width="2" fill="none" />
<polyline points="75.5,123.5,55.5,103.5,53.5,87.5,33.5,77.5" stroke="black" stroke-width="2" fill="none" />
<polyline points="32.0,74.5,39.5,90.0,47.5,103.5,49.5,119.5,54.0,136.0,44.0,144.0,42.0,160.0,46.0,176.0,50.5,192.0,50.5,207.5,51.0,223.5,75.0,221.5,92.5,220.0,108.5,228.0,124.5,238.0,140.5,226.0,152.0,228.0,168.0,208.5,192.0,204.5,202.0,209.0,210.0,195.0,212.0,199.0,214.5,203.0,216.5,206.5,233.0,206.5,249.0,206.0,265.0,220.0,281.0,229.5,296.5,237.5,312.5,231.5,328.5,219.5,344.5,207.5,361.0,205.5,377.0,207.5,392.5,219.0,408.0,227.5,424.0,231.5,440.5,236.0,456.5,242.5,472.0,245.0,487.5,235.0,510.0,183.0" stroke="black" stroke-width="2" fill="none" />
<polyline points="491.5,228.0,497.5,212.5,501.5,196.5,511.5,181.0,490.0,175.0,462.0,158.5" stroke="black" stroke-width="2" fill="none" />
<polyline points="458.0,162.5,488.0,178.5,506.0,196.0,502.0,212.0,498.0,227.5,488.5,243.0" stroke="black" stroke-width="2" fill="none" />
<polyline points="396.0,200.0,376.0,183.5,384.0,161.5,408.5,145.5,424.5,129.0" stroke="black" stroke-width="2" fill="none" />
<polyline points="421.0,109.5,405.0,93.5,389.0,85.5,373.0,85.5" stroke="black" stroke-width="2" fill="none" />
<polyline points="368.5,90.5,402.5,106.5" stroke="black" stroke-width="2" fill="none" />
<polyline points="415.0,112.0,399.0,104.0,383.0,96.0,366.5,88.0" stroke="black" stroke-width="2" fill="none" />
<polyline points="364.5,88.5,342.5,104.5,332.5,120.5,342.5,136.5,346.5,152.5,364.5,168.5,367.0,184.5,372.5,204.0,392.5,220.0,406.5,235.5,414.5,247.0,426.0,263.5,438.0,263.5,434.0,272.0" stroke="black" stroke-width="2" fill="none" />
<polyline points="386.5,142.5,371.0,158.5,379.0,169.0,395.0,155.5,411.0,145.5,427.0,123.5" stroke="black" stroke-width="2" fill="none" />
<polyline points="415.5,95.5,399.5,85.5,384.0,81.5,368.5,81.5,353.0,88.0,336.5,100.5,320.0,105.0,303.5,93.0,287.5,87.5,271.5,87.5" stroke="black" stroke-width="2" fill="none" />
<polyline points="281.0,89.5,297.5,93.5,313.5,105.5" stroke="black" stroke-width="2" fill="none" />
<polyline points="294.5,89.5,318.0,105.5,338.0,129.5,354.0,151.0,370.0,151.0,386.5,138.5,402.5,128.5" stroke="black" stroke-width="2" fill="none" />
<polyline points="378.5,107.5,372.5,123.5,363.5,137.5" stroke="black" stroke-width="2" fill="none" />
<polyline points="372.0,114.0,358.0,137.5,367.5,121.5,375.5,105.5" stroke="black" stroke-width="2" fill="none" />
<polyline points="361.5,92.5,395.5,108.5" stroke="black" stroke-width="2" fill="none" />
<polyline points="391.0,88.5,416.5,104.5,424.5,120.0,416.5,124.0,396.0,136.5,388.0,136.5,368.0,152.0,380.0,149.5,395.5,135.0" stroke="black" stroke-width="2" fill="none" />
<polyline points="409.0,124.5,399.5,110.5,384.0,102.5,368.0,94.5,352.0,94.5,336.0,110.0,336.0,102.0,354.0,86.0" stroke="black" stroke-width="2" fill="none" />
<polyline points="393.5,84.5,417.5,100.5,429.0,116.5,415.0,132.5,392.5,146.0,374.5,162.0,368.5,189.5,365.0,205.5,373.0,221.5,389.5,237.0,391.5,253.0,377.5,269.0,379.5,291.0,381.5,303.5,387.5,313.5" stroke="black" stroke-width="2" fill="none" />
<polyline points="333.5,145.0,329.5,141.0,323.5,141.0,325.5,125.0,314.0,109.0,290.0,93.0" stroke="black" stroke-width="2" fill="none" />
<polyline points="247.5,97.5,233.0,113.5,245.0,98.0" stroke="black" stroke-width="2" fill="none" />
<polyline points="231.0,39.5,229.0,55.5,225.5,71.5,221.5,87.5,216.0,103.0,210.0,119.5,204.0,135.5,196.0,152.0,186.0,168.0,178.0,184.5,172.0,200.5,160.0,217.0,145.5,227.0,141.5,242.5,145.5,252.5,167.5,260.0,166.0,270.0,167.5,280.0,180.0,286.0,182.0,268.0,176.0,270.0,192.0,262.5,186.0,244.0,211.5,224.0" stroke="black" stroke-width="2" fill="none" />
<polyline points="63.5,223.0,61.5,207.0,59.0,191.0,55.0,175.5,53.0,159.5,47.0,144.0,43.0,128.0,39.0,112.5,33.0,96.5,28.5,80.5" stroke="black" stroke-width="2" fill="none" />
<polyline points="20.0,76.0,21.5,92.0,24.0,108.5,26.0,124.5,28.5,140.0,32.5,155.5,35.0,172.0,33.0,190.0,25.0,206.0,13.0,210.0,15.0,208.0" stroke="black" stroke-width="2" fill="none" />
<polyline points="88.5,220.0,88.5,204.0,88.0,188.0,88.0,172.0,87.5,156.0,89.5,140.5,89.5,124.5,87.5,108.5,87.5,92.5,87.5,76.5" stroke="black" stroke-width="2" fill="none" />
<polyline points="90.0,71.0,100.0,87.5,104.0,103.5,106.0,119.5,106.0,135.5,106.0,151.5,106.0,173.5,106.5,189.5,106.5,205.5,115.0,223.5,125.0,240.0,131.0,255.5,155.0,271.5,149.0,288.0,149.0,304.5" stroke="black" stroke-width="2" fill="none" />
<polyline points="80.5,138.5,80.5,122.5,76.5,106.5,80.5,90.5,80.5,75.0" stroke="black" stroke-width="2" fill="none" />
<polyline points="76.0,71.5,72.0,87.5,55.5,93.5,57.5,109.5,61.5,125.5,68.0,142.0,68.0,157.5,68.0,173.5,66.0,190.0,68.0,206.0,64.0,232.5,66.0,248.5,80.0,254.0,84.0,252.0,100.0,247.5,114.5,237.0,134.5,249.5,150.5,236.0,166.5,230.5,183.0,226.5,199.0,225.0" stroke="black" stroke-width="2" fill="none" />
<polyline points="31.0,214.0,20.5,218.0,37.0,215.5,40.5,199.5,36.0,183.5,26.0,173.5,20.0,163.5,16.5,151.5,18.0,135.5,22.0,126.0,20.0,106.0,18.0,89.5,16.0,73.5" stroke="black" stroke-width="2" fill="none" />
</svg>