<svg xmlns="http://www.w3.org/2000/svg" width="512mm" height="512mm" viewBox="0 0 512 512" version="1.1"><polyline points="281.5,2.5,287.5,18.5,295.5,34.5,305.5,50.5,313.5,67.0" stroke="black" stroke-width="2" fill="none" />
<polyline points="356.5,95.5,372.5,100.0,388.0,106.0,403.5,109.5,413.5,103.5" stroke="black" stroke-width="2" fill="none" />
<polyline points="408.0,114.5,392.5,111.0,376.5,105.5,360.5,101.0" stroke="black" stroke-width="2" fill="none" />
<polyline points="362.0,87.0,378.0,91.0,393.5,96.5,409.5,100.5,426.0,107.0,442.0,111.0,458.0,115.0,473.5,121.5,490.0,125.5,506.0,123.5" stroke="black" stroke-width="2" fill="none" />
<polyline points="502.5,146.5,504.0,164.0,512.0,164.0,510.0,168.0,508.0,177.5" stroke="black" stroke-width="2" fill="none" />
<polyline points="509.5,176.0,494.0,160.0" stroke="black" stroke-width="2" fill="none" />
<polyline points="490.5,160.5,497.0,176.5,497.0,192.5,505.0,200.5,499.5,232.0" stroke="black" stroke-width="2" fill="none" />
<polyline points="480.5,231.0,480.5,238.5,492.5,254.5" stroke="black" stroke-width="2" fill="none" />
<polyline points="495.5,280.5,511.0,276.5" stroke="black" stroke-width="2" fill="none" />
<polyline points="492.0,327.5,476.5,323.0,460.5,317.0" stroke="black" stroke-width="2" fill="none" />
<polyline points="448.5,282.0,432.5,274.0" stroke="black" stroke-width="2" fill="none" />
<polyline points="436.0,263.5,452.0,279.5,452.0,291.0,448.0,303.0,464.0,321.0,480.0,327.0,496.0,331.0" stroke="black" stroke-width="2" fill="none" />
<polyline points="497.5,374.5,509.5,352.0,505.5,368.0,501.5,384.5,497.5,400.5,489.5,416.5" stroke="black" stroke-width="2" fill="none" />
<polyline points="476.0,506.5,483.5,500.0,493.5,484.0,494.0,468.0,494.0,452.0,494.5,435.5,494.5,419.5,494.0,397.5,496.0,381.5,502.0,365.5,506.0,349.5,510.0,349.5,486.0,325.5,460.5,309.5,486.5,293.5,496.5,273.5,510.5,261.5,494.5,275.5,492.5,267.5,496.5,249.5,480.5,237.5,466.5,252.0,454.5,254.5,460.0,238.5,472.0,220.5,486.5,236.5,474.5,246.5,458.5,248.5" stroke="black" stroke-width="2" fill="none" />
<polyline points="442.5,249.5,459.0,239.5,475.0,229.5,495.0,239.5" stroke="black" stroke-width="2" fill="none" />
<polyline points="477.0,224.0,493.0,214.0,509.5,214.5" stroke="black" stroke-width="2" fill="none" />
<polyline points="507.5,183.5,491.5,163.5,476.0,163.0" stroke="black" stroke-width="2" fill="none" />
<polyline points="486.0,162.5,484.0,179.0,483.5,185.0,473.5,188.5,483.5,200.5,495.5,204.0,510.0,218.0" stroke="black" stroke-width="2" fill="none" />
<polyline points="484.0,177.0,468.0,177.0" stroke="black" stroke-width="2" fill="none" />
<polyline points="463.0,180.5,473.0,196.5,491.0,194.5,501.0,192.0" stroke="black" stroke-width="2" fill="none" />
<polyline points="502.5,234.5,486.5,228.5,476.0,218.5,460.5,230.5,444.5,244.0,428.5,257.5,412.5,269.0,396.0,284.5" stroke="black" stroke-width="2" fill="none" />
<polyline points="400.5,289.0,416.0,297.0" stroke="black" stroke-width="2" fill="none" />
<polyline points="399.0,273.5,382.5,298.0,366.5,302.5,351.0,298.5" stroke="black" stroke-width="2" fill="none" />
<polyline points="387.5,258.5,373.5,238.5,357.5,226.5,341.5,215.0" stroke="black" stroke-width="2" fill="none" />
<polyline points="339.5,220.0,359.5,236.0,359.5,252.0,351.0,268.0,342.5,283.5" stroke="black" stroke-width="2" fill="none" />
<polyline points="342.0,246.5,326.0,250.0,310.0,245.5" stroke="black" stroke-width="2" fill="none" />
<polyline points="338.5,209.5,354.5,217.5,370.5,223.5" stroke="black" stroke-width="2" fill="none" />
<polyline points="350.0,208.0,366.0,216.5,382.0,226.5,398.0,246.5" stroke="black" stroke-width="2" fill="none" />
<polyline points="397.5,231.0,411.0,231.5,421.0,220.0" stroke="black" stroke-width="2" fill="none" />
<polyline points="431.0,204.5,437.0,220.0,431.0,236.0,439.0,257.5,422.5,273.5,428.0,261.5,444.0,257.5,459.5,255.5,475.5,261.5,491.5,254.0" stroke="black" stroke-width="2" fill="none" />
<polyline points="422.0,240.0,406.0,256.0,390.5,253.5,386.5,259.5,378.5,243.0,372.0,237.5,362.0,222.0,338.0,206.0,344.0,190.5,338.0,206.5" stroke="black" stroke-width="2" fill="none" />
<polyline points="350.0,205.0,366.0,210.5,382.5,220.0" stroke="black" stroke-width="2" fill="none" />
<polyline points="386.5,204.5,380.5,182.0,384.5,166.0,372.5,150.0,348.0,140.0,344.0,152.0" stroke="black" stroke-width="2" fill="none" />
<polyline points="342.5,143.5,358.5,145.5" stroke="black" stroke-width="2" fill="none" />
<polyline points="348.5,122.5,358.5,138.5,374.5,144.5,396.5,162.5,398.5,150.5,414.5,142.5,419.0,148.5,440.5,164.0,456.5,158.0,472.5,149.5,488.5,139.0,494.0,129.5,500.0,133.5" stroke="black" stroke-width="2" fill="none" />
<polyline points="482.5,134.0,466.5,148.0" stroke="black" stroke-width="2" fill="none" />
<polyline points="428.5,142.5,419.0,158.5,419.0,167.0" stroke="black" stroke-width="2" fill="none" />
<polyline points="397.5,156.0,371.5,148.0,355.5,132.0,339.5,129.5,324.0,137.5" stroke="black" stroke-width="2" fill="none" />
<polyline points="320.5,139.5,336.5,164.0,362.0,178.0,377.5,184.0,399.5,180.0,415.0,182.0,431.0,174.0" stroke="black" stroke-width="2" fill="none" />
<polyline points="442.0,186.5,452.0,202.5,452.0,218.0,452.0,236.0,434.0,251.5,414.5,267.0,400.5,283.5,388.5,300.0,408.5,300.5,405.0,310.5,421.0,307.0,445.0,315.0,461.0,311.0,476.5,300.5,492.0,292.0,508.0,286.0" stroke="black" stroke-width="2" fill="none" />
<polyline points="478.5,327.5,434.5,311.5,432.5,295.5,432.5,279.5,424.5,253.5,442.5,237.5,458.5,219.5,462.5,196.0,454.5,180.5,460.0,166.5,468.0,156.5,484.5,130.5,468.5,138.5,452.5,150.5,436.5,156.5,420.5,139.0,405.0,138.5,388.5,152.5,372.5,140.0,356.5,124.5,340.5,124.0,324.0,130.0,308.0,130.0,292.0,132.0" stroke="black" stroke-width="2" fill="none" />
<polyline points="304.5,139.0,302.5,155.5,304.0,171.5,294.0,187.5,322.0,196.0,338.0,212.0,357.5,228.0,363.5,243.5,367.5,259.5,365.0,265.5,353.0,281.5,349.0,295.5,365.0,296.0,393.5,302.5,410.0,306.5" stroke="black" stroke-width="2" fill="none" />
<polyline points="419.5,405.5,403.0,407.5,386.5,409.5,370.5,413.5" stroke="black" stroke-width="2" fill="none" />
<polyline points="375.5,414.0,391.5,414.0,407.5,414.5,424.0,408.5,440.0,408.5,456.5,412.5,472.5,416.5,488.5,420.0,504.5,410.0,500.0,419.5,499.5,435.5,500.0,451.5,500.0,468.0,498.0,484.5,498.0,500.5,482.0,508.0,484.0,508.0" stroke="black" stroke-width="2" fill="none" />
<polyline points="397.0,508.0,381.0,492.0" stroke="black" stroke-width="2" fill="none" />
<polyline points="381.5,488.0,397.0,504.0" stroke="black" stroke-width="2" fill="none" />
<polyline points="394.0,497.5,378.0,485.5" stroke="black" stroke-width="2" fill="none" />
<polyline points="378.0,486.0,387.5,502.0" stroke="black" stroke-width="2" fill="none" />
<polyline points="298.0,440.0,282.0,438.0" stroke="black" stroke-width="2" fill="none" />
<polyline points="282.0,433.5,297.5,433.5" stroke="black" stroke-width="2" fill="none" />
<polyline points="268.5,405.0,252.0,401.0,236.0,399.0" stroke="black" stroke-width="2" fill="none" />
<polyline points="231.0,397.5,247.5,394.0,264.0,397.5" stroke="black" stroke-width="2" fill="none" />
<polyline points="263.5,371.0,255.5,365.5,239.5,365.5,223.5,361.5,208.0,357.5,192.0,352.0,176.5,348.0,161.0,344.5,145.0,342.5,137.5,348.5" stroke="black" stroke-width="2" fill="none" />
<polyline points="107.5,340.0,123.5,346.0,127.5,338.0,130.0,355.5,146.5,365.5,162.5,369.5,178.5,373.5,194.5,373.5,210.0,377.5,225.5,379.5,241.5,381.5,257.5,373.5,273.5,367.5,291.5,383.5,308.0,385.5,324.0,385.5,340.0,391.5,355.5,393.0,371.0,393.0" stroke="black" stroke-width="2" fill="none" />
<polyline points="347.5,396.0,343.5,412.5,343.5,429.0,345.5,445.5,347.0,462.0,349.0,478.5,349.0,495.0,343.0,511.0" stroke="black" stroke-width="2" fill="none" />
<polyline points="339.5,505.0,338.0,497.0,346.5,481.0,344.5,464.5,342.5,448.0,340.0,432.0,340.0,415.5,338.0,399.5,326.5,387.0" stroke="black" stroke-width="2" fill="none" />
<polyline points="275.5,372.0,257.5,396.0,285.5,388.5,301.5,390.5,318.0,393.0,334.0,395.0,352.0,401.5,368.0,399.5,384.0,397.0,400.0,399.0,416.0,402.5" stroke="black" stroke-width="2" fill="none" />
<polyline points="348.5,238.0,330.5,221.5,322.0,196.0,306.0,186.0" stroke="black" stroke-width="2" fill="none" />
<polyline points="311.0,201.5,289.0,203.5,273.0,199.0" stroke="black" stroke-width="2" fill="none" />
<polyline points="268.0,204.0,258.0,220.0,247.5,220.0,259.0,225.5,244.5,229.5,256.5,232.0,280.0,227.5" stroke="black" stroke-width="2" fill="none" />
<polyline points="329.5,229.5,313.0,227.5,309.0,226.0,313.0,208.5,296.5,205.0,298.5,199.0,312.0,197.5,297.5,177.0,295.0,161.0,297.0,145.0,278.5,132.5,262.0,123.0" stroke="black" stroke-width="2" fill="none" />
<polyline points="265.5,124.0,281.5,142.0" stroke="black" stroke-width="2" fill="none" />
<polyline points="271.5,158.5,255.5,128.5" stroke="black" stroke-width="2" fill="none" />
<polyline points="255.5,128.5,257.5,144.5,255.5,160.5,269.5,176.5" stroke="black" stroke-width="2" fill="none" />
<polyline points="246.5,149.5,262.5,179.5,278.5,188.0,302.5,188.0,318.5,198.0,338.5,198.0,354.5,188.0,372.0,198.0,388.0,188.0,404.0,195.5,420.0,187.5,436.0,179.5,452.0,176.0,464.5,186.0,480.5,190.0" stroke="black" stroke-width="2" fill="none" />
<polyline points="459.0,203.5,449.0,188.0" stroke="black" stroke-width="2" fill="none" />
<polyline points="419.0,199.5,425.0,215.5,408.5,232.0,416.5,234.0,418.5,248.0,394.5,264.0" stroke="black" stroke-width="2" fill="none" />
<polyline points="405.0,244.0,401.0,238.0,403.0,222.0,398.5,214.0,413.0,197.5" stroke="black" stroke-width="2" fill="none" />
<polyline points="377.5,163.5,357.5,161.5,341.5,159.5,325.5,141.5" stroke="black" stroke-width="2" fill="none" />
<polyline points="335.0,130.0,327.0,145.5,341.5,161.5,360.0,177.5,374.5,195.5,370.5,214.0,393.0,210.0,403.0,212.0,408.5,200.0,424.5,200.0,440.5,216.5" stroke="black" stroke-width="2" fill="none" />
<polyline points="505.0,259.0,489.5,275.5,473.5,283.5,457.5,289.5,440.5,289.0,448.0,305.0,443.5,298.5,427.5,306.5,399.5,294.0,383.0,301.5,389.0,285.5,402.5,269.0,396.5,247.0,386.5,231.0,379.0,225.0,393.0,207.0,395.5,191.0,424.0,183.5,438.0,165.0,466.0,149.0,482.5,133.5,495.0,129.5,499.0,119.5,483.0,117.5,466.5,113.5,450.5,103.5,431.0,101.5,415.0,97.5,399.0,93.5,383.0,87.5,367.0,81.5,351.0,83.5,332.5,73.5,316.5,69.5,300.5,65.5,284.5,60.0,268.0,54.5,252.0,57.0,236.0,53.0,219.5,49.0,203.5,45.0,195.5,26.5,217.5,11.0,215.5,12.5,199.5,22.5,183.5,32.5,167.0,28.0,151.0,58.0,135.5,94.0,119.5,123.5,104.0,119.5,88.0,121.0,72.0,129.0" stroke="black" stroke-width="2" fill="none" />
<polyline points="77.5,130.0,93.5,126.0,110.0,126.0" stroke="black" stroke-width="2" fill="none" />
<polyline points="126.0,150.5,124.0,158.5,108.5,174.5,96.5,191.0,86.5,207.0,82.5,223.0,102.5,239.0,108.5,233.5,110.5,239.5,124.5,219.5,140.5,217.5,158.5,212.0,186.0,220.0,201.5,222.0,209.5,230.0,225.0,232.0" stroke="black" stroke-width="2" fill="none" />
<polyline points="198.5,263.0,214.5,266.5,231.0,262.5,247.5,266.5,263.5,270.5,279.5,268.5" stroke="black" stroke-width="2" fill="none" />
<polyline points="256.0,183.0,240.0,152.5" stroke="black" stroke-width="2" fill="none" />
<polyline points="226.0,156.5,248.0,158.0,258.0,173.5,274.0,199.5,279.5,211.5,287.5,231.5,289.5,247.0,284.0,263.0" stroke="black" stroke-width="2" fill="none" />
<polyline points="231.0,169.5,229.0,153.5,227.0,139.5,223.0,152.0" stroke="black" stroke-width="2" fill="none" />
<polyline points="224.0,177.0,208.0,177.5,192.0,177.5" stroke="black" stroke-width="2" fill="none" />
<polyline points="193.5,184.0,209.5,181.5" stroke="black" stroke-width="2" fill="none" />
<polyline points="208.0,173.0,192.0,163.0" stroke="black" stroke-width="2" fill="none" />
<polyline points="189.5,159.5,191.5,177.5,200.0,193.5,202.0,203.5,218.0,189.5" stroke="black" stroke-width="2" fill="none" />
<polyline points="202.0,162.0,186.5,156.5,177.0,163.0,159.0,143.0,143.0,143.0" stroke="black" stroke-width="2" fill="none" />
<polyline points="128.5,154.0,144.5,148.0,160.5,147.5,164.0,155.0,180.0,165.0,181.5,181.0,181.5,196.5,185.0,213.0,191.0,213.0" stroke="black" stroke-width="2" fill="none" />
<polyline points="189.5,231.5,173.5,232.0,158.0,228.0,142.0,232.5,126.0,234.0" stroke="black" stroke-width="2" fill="none" />
<polyline points="123.0,225.5,139.0,241.5,147.0,233.5,158.5,233.5" stroke="black" stroke-width="2" fill="none" />
<polyline points="115.0,226.0,127.0,241.5,159.0,251.0,175.0,241.0,191.0,241.0,212.5,221.0,229.0,213.0,245.0,213.0,261.0,203.5" stroke="black" stroke-width="2" fill="none" />
<polyline points="328.0,187.0,312.0,183.0,296.0,185.5,280.5,193.0,262.5,191.0,246.5,189.0,230.5,168.5,204.5,164.5,206.5,143.0,192.5,144.5,169.0,151.0,153.5,155.0,137.5,157.0,121.5,164.5,105.5,180.5,89.5,204.5,79.0,216.5,84.5,200.5,94.5,184.5,106.5,169.0,120.0,152.5,125.5,152.5,111.0,162.0,95.0,181.5,79.0,207.5" stroke="black" stroke-width="2" fill="none" />
<polyline points="91.5,219.0,99.5,211.0" stroke="black" stroke-width="2" fill="none" />
<polyline points="56.0,205.5,72.0,187.5,88.0,173.5,104.0,157.5,120.0,138.0,136.0,106.0,151.5,70.0,167.5,33.5,183.5,37.5,199.0,30.0,215.0,18.0,231.0,10.0" stroke="black" stroke-width="2" fill="none" />
<polyline points="220.5,10.5,226.5,12.0,202.5,27.5,202.5,37.5,218.0,41.0,234.0,45.5,249.5,49.5,267.5,59.5,283.5,66.0,300.0,72.0,316.0,76.0,332.0,80.5" stroke="black" stroke-width="2" fill="none" />
<polyline points="362.0,61.5,366.0,45.5,359.5,35.5,343.5,49.5,327.5,37.5,311.5,13.5" stroke="black" stroke-width="2" fill="none" />
<polyline points="307.5,4.5,323.5,18.5,339.5,41.0" stroke="black" stroke-width="2" fill="none" />
<polyline points="344.5,25.5,342.5,9.5" stroke="black" stroke-width="2" fill="none" />
<polyline points="342.0,1.0,354.0,17.5,368.0,35.5,374.0,51.5,366.0,67.5,368.0,83.5" stroke="black" stroke-width="2" fill="none" />
<polyline points="341.5,65.0,325.5,51.0,303.5,34.5,287.5,5.0" stroke="black" stroke-width="2" fill="none" />
<polyline points="287.0,1.5,293.0,17.5,301.5,33.5,311.5,49.5,318.0,65.0,340.0,69.5,358.0,67.5,382.0,46.0" stroke="black" stroke-width="2" fill="none" />
<polyline points="368.0,33.0,351.5,11.0,335.5,3.0" stroke="black" stroke-width="2" fill="none" />
<polyline points="336.0,1.5,348.0,17.5,339.5,33.5,349.5,41.5" stroke="black" stroke-width="2" fill="none" />
<polyline points="301.0,42.0,285.0,12.0" stroke="black" stroke-width="2" fill="none" />
<polyline points="305.5,1.0,311.5,17.0,323.5,33.0,335.5,49.5,336.0,66.0,362.0,88.5,412.0,114.5" stroke="black" stroke-width="2" fill="none" />
<polyline points="424.0,139.5,396.5,143.5,388.5,159.5,394.5,176.0" stroke="black" stroke-width="2" fill="none" />
<polyline points="340.0,184.0,332.0,198.5,342.0,182.5,336.5,166.0,324.5,150.0,316.5,134.5,339.0,124.5" stroke="black" stroke-width="2" fill="none" />
<polyline points="270.5,123.5,284.0,139.5,292.0,155.5,294.0,171.0,314.0,187.0,326.5,206.5,306.5,220.5,302.0,236.5,296.0,252.5,294.0,268.5,298.0,274.5,314.0,282.0,329.5,286.5,345.5,280.5,362.0,264.5,390.5,270.5,398.5,268.5,416.5,260.0,430.5,248.0,444.5,235.5,446.5,223.5,462.5,215.5" stroke="black" stroke-width="2" fill="none" />
<polyline points="428.5,38.0,412.0,18.0,396.0,8.0" stroke="black" stroke-width="2" fill="none" />
<polyline points="396.5,11.0,420.5,26.5,430.5,42.5,434.5,58.5,438.5,74.5,440.5,90.5,451.0,114.5,469.0,138.5,445.5,154.0,435.0,164.0,421.0,180.5,447.0,186.0,451.0,198.0" stroke="black" stroke-width="2" fill="none" />
<polyline points="421.0,15.5,405.5,5.5,389.0,7.5" stroke="black" stroke-width="2" fill="none" />
<polyline points="387.5,9.5,391.5,25.5,383.5,41.5,381.5,57.0" stroke="black" stroke-width="2" fill="none" />
<polyline points="372.5,73.5,370.0,71.5,378.0,50.0,380.0,34.0,384.0,17.5,384.0,1.5" stroke="black" stroke-width="2" fill="none" />
<polyline points="396.0,2.5,419.5,18.0,431.5,33.5,435.5,49.5,442.0,66.0,444.0,82.0,448.0,98.0,464.0,114.0" stroke="black" stroke-width="2" fill="none" />
<polyline points="283.0,83.0,267.0,79.0,251.0,73.0,235.0,69.0,218.5,63.5,202.5,59.0,186.5,53.0,170.5,47.0" stroke="black" stroke-width="2" fill="none" />
<polyline points="169.0,46.5,185.0,46.5,201.0,52.5,217.5,58.5,233.5,62.5,249.5,68.5,265.0,72.5,281.0,76.5" stroke="black" stroke-width="2" fill="none" />
<polyline points="266.5,118.5,273.0,134.5,283.0,150.5,287.0,166.0,285.0,182.0,269.0,199.5,257.0,205.5,237.0,209.0,233.5,225.0,239.5,227.0,229.5,243.5,229.5,259.5,239.5,269.5,255.5,274.0,271.0,278.5,287.0,280.5,303.0,285.0,319.5,289.0,335.5,293.0,352.0,284.5,354.0,262.5" stroke="black" stroke-width="2" fill="none" />
<polyline points="221.5,241.0,205.5,237.5,190.0,245.5,173.5,254.0,155.5,246.0,139.5,248.0,123.5,240.5,103.5,228.5,87.5,234.5,75.0,232.5,59.0,228.5,49.5,242.0,29.5,258.0" stroke="black" stroke-width="2" fill="none" />
<polyline points="55.0,226.0,53.0,240.0,43.0,257.5,36.5,273.5,48.5,228.0,56.0,198.0,72.5,180.0" stroke="black" stroke-width="2" fill="none" />
<polyline points="54.5,220.5,70.5,226.5" stroke="black" stroke-width="2" fill="none" />
<polyline points="124.5,170.0,122.5,180.5,114.5,180.5,106.5,200.5,108.5,186.5,117.0,186.5,129.0,170.5" stroke="black" stroke-width="2" fill="none" />
<polyline points="80.0,129.0,76.0,145.0,77.5,161.0,77.5,177.0,67.5,193.0,55.5,209.0,49.0,224.5,43.0,240.5,37.5,256.0,31.5,272.0,39.5,274.0,33.0,290.0,35.0,305.5,45.0,317.5,61.0,319.5,76.5,323.5,92.5,329.5,108.5,351.5,124.5,359.5,141.0,369.5,157.0,373.0,177.0,379.5,193.0,379.5,209.5,381.5,226.0,386.0,242.5,388.0,258.5,379.5,274.5,373.5,291.0,373.5,309.5,377.5,327.5,381.0,343.0,385.5,359.0,390.0" stroke="black" stroke-width="2" fill="none" />
<polyline points="178.0,380.5,176.0,396.0,173.5,412.5,175.5,428.5,176.0,444.5,178.5,460.5,180.5,476.5,182.5,492.0,184.5,508.0" stroke="black" stroke-width="2" fill="none" />
<polyline points="176.0,501.0,176.0,484.5,174.0,468.0,171.5,451.5,169.5,435.5,169.5,419.5,169.5,403.0,171.5,387.0,173.5,371.0" stroke="black" stroke-width="2" fill="none" />
<polyline points="126.0,353.5,124.5,345.0,116.5,349.0,105.0,332.5,105.0,330.5" stroke="black" stroke-width="2" fill="none" />
<polyline points="79.5,319.5,95.5,333.5,105.5,349.5,131.5,366.0" stroke="black" stroke-width="2" fill="none" />
<polyline points="193.5,139.0,193.5,155.0,225.5,179.5,199.5,187.5,201.5,204.0,205.5,206.0,221.5,210.0,237.5,197.5,247.5,195.5,263.5,208.0,279.5,210.0,295.5,224.0,314.0,214.0,334.0,228.0" stroke="black" stroke-width="2" fill="none" />
<polyline points="379.5,261.0,377.5,242.5,361.5,233.0,343.5,222.5,321.5,218.5,305.5,230.5,295.0,242.0,289.0,226.0,275.5,222.0,259.5,223.5,238.0,229.5,214.0,253.0,198.0,259.0,184.0,251.0,196.5,245.5,184.5,235.5,184.0,220.0,172.0,204.0,178.0,187.5,172.0,171.5,179.5,155.5,186.5,139.5,196.5,135.5" stroke="black" stroke-width="2" fill="none" />
<polyline points="246.5,126.5,244.5,142.5,242.5,158.5,252.5,174.5,246.5,190.5,232.5,206.5,204.0,220.0,200.0,232.0,218.0,233.5,220.0,260.0" stroke="black" stroke-width="2" fill="none" />
<polyline points="276.0,163.5,265.5,147.5,255.5,131.5" stroke="black" stroke-width="2" fill="none" />
<polyline points="245.5,120.5,235.5,142.5,221.0,154.5,223.0,170.5,236.5,188.0,210.5,194.0,226.5,191.5" stroke="black" stroke-width="2" fill="none" />
<polyline points="203.0,54.5,177.0,50.5" stroke="black" stroke-width="2" fill="none" />
<polyline points="167.5,34.5,161.5,50.5,153.5,66.5,147.5,82.5,139.5,98.5,131.5,114.0,126.0,130.0,114.0,146.0,100.5,162.0" stroke="black" stroke-width="2" fill="none" />
<polyline points="80.0,122.0,72.0,138.0,72.0,154.0,74.0,170.5,66.0,186.5,52.0,202.5,45.5,218.5,41.0,234.5,35.0,250.5,27.5,266.0,27.5,282.0,29.5,298.0,31.5,314.5,41.5,312.5,58.0,315.0,74.0,319.0,90.0,323.5,106.0,329.5,122.0,331.0,138.0,335.0,154.0,338.5,170.0,343.0,185.5,347.0,201.5,351.0,218.0,356.5,234.0,358.0,249.5,360.0,265.0,362.0,281.0,366.0,297.5,370.0,313.5,374.0,329.5,378.0,345.5,382.5,362.0,384.5,378.0,388.5,394.5,392.5,410.5,394.5,426.5,398.0,442.5,402.0,458.0,405.5,473.5,409.5,490.0,407.5" stroke="black" stroke-width="2" fill="none" />
<polyline points="250.0,36.5,234.0,20.5" stroke="black" stroke-width="2" fill="none" />
<polyline points="239.0,19.0,242.5,35.0,269.0,57.0" stroke="black" stroke-width="2" fill="none" />
<polyline points="257.0,58.0,251.0,38.5,241.0,22.5" stroke="black" stroke-width="2" fill="none" />
<polyline points="311.0,2.0,319.5,18.0,331.0,33.5,339.5,55.5,345.5,71.5,368.0,61.5" stroke="black" stroke-width="2" fill="none" />
<polyline points="269.0,163.5,267.0,156.0,247.0,119.5,231.0,135.5,217.0,133.0,201.0,135.0,184.5,143.0,169.0,141.0,153.0,135.0,137.0,139.0,117.0,133.5,101.0,154.0,85.0,170.0,99.0,156.0,113.0,140.0,119.0,124.0,130.5,107.5,138.5,92.0,144.0,76.5,150.0,60.5,157.5,44.0,166.0,28.0" stroke="black" stroke-width="2" fill="none" />
</svg>