<svg xmlns="http://www.w3.org/2000/svg" width="512mm" height="512mm" viewBox="0 0 512 512" version="1.1"><polyline points="199.5,52.5,177.5,68.5,169.5,84.5,159.5,100.5,153.5,117.0,153.5,133.0,143.5,149.0,123.5,165.0,105.0,181.0,83.0,196.5,64.5,212.5,17.0,228.5,9.0,232.5,25.0,226.5,41.5,220.0,57.5,217.5,73.5,203.0,89.5,193.0,105.5,179.0,121.5,164.5,138.0,150.5,154.0,140.5,176.5,134.5" stroke="black" stroke-width="2" fill="none" />
<polyline points="180.5,129.0,165.0,134.5,149.0,158.5,132.5,173.0,120.5,183.0,105.0,191.5,89.0,205.5,73.0,217.5,57.0,223.5,41.0,225.5,25.0,231.0,9.0,236.5,26.5,228.5" stroke="black" stroke-width="2" fill="none" />
<polyline points="27.0,275.5,33.0,267.5,19.0,284.0,31.5,270.5,48.0,270.5,64.5,265.0,80.5,232.5,88.5,222.5,105.0,208.5,121.5,194.5,137.5,180.5,153.5,166.5,169.5,151.0,185.5,141.0,201.0,139.0,216.5,134.5,232.5,135.0,248.5,136.5,264.5,148.5" stroke="black" stroke-width="2" fill="none" />
<polyline points="247.5,136.5,263.5,152.5,261.0,168.5,259.0,184.5,254.5,200.0,250.5,216.0" stroke="black" stroke-width="2" fill="none" />
<polyline points="257.5,258.5,241.5,258.5" stroke="black" stroke-width="2" fill="none" />
<polyline points="228.5,255.5,244.5,261.5,260.5,264.0" stroke="black" stroke-width="2" fill="none" />
<polyline points="258.5,253.0,242.0,251.0,226.0,253.0" stroke="black" stroke-width="2" fill="none" />
<polyline points="249.5,206.0,252.0,190.0,254.0,174.5,257.5,159.0,247.5,143.0,244.0,141.0,228.0,142.5" stroke="black" stroke-width="2" fill="none" />
<polyline points="228.5,147.5,226.0,163.5,226.0,179.5,224.0,195.0,224.0,211.0" stroke="black" stroke-width="2" fill="none" />
<polyline points="251.0,216.5,235.5,226.5,218.0,214.5,220.5,198.5,220.5,182.0,221.0,165.5,223.0,149.5,219.0,143.5,203.0,143.5,187.0,156.0" stroke="black" stroke-width="2" fill="none" />
<polyline points="192.0,144.0,186.0,160.0,184.0,176.0,172.0,192.5,178.0,202.5,176.0,218.5,177.5,228.5,193.0,226.5,209.0,228.5,225.5,222.0,241.5,218.0" stroke="black" stroke-width="2" fill="none" />
<polyline points="219.0,282.0,203.0,280.0,187.0,276.5,170.5,276.5,154.5,275.0,138.0,269.0,122.0,241.0" stroke="black" stroke-width="2" fill="none" />
<polyline points="120.5,237.0,136.5,231.0,152.5,231.0,168.5,231.5" stroke="black" stroke-width="2" fill="none" />
<polyline points="162.0,223.0,146.0,223.5,130.0,215.5" stroke="black" stroke-width="2" fill="none" />
<polyline points="111.0,216.5,127.0,220.5,137.0,204.5,153.5,196.5,169.5,188.5,171.5,194.5" stroke="black" stroke-width="2" fill="none" />
<polyline points="180.5,187.5,182.5,203.5,185.5,215.5,202.0,219.5,218.0,213.5" stroke="black" stroke-width="2" fill="none" />
<polyline points="170.5,166.5,178.5,182.5,148.5,198.5,124.5,220.5,122.5,242.5,128.5,252.5,137.0,268.5,138.5,290.0,154.5,286.0,170.5,281.5,180.5,283.0,196.0,281.5,214.0,299.5" stroke="black" stroke-width="2" fill="none" />
<polyline points="219.0,308.5,241.0,324.5" stroke="black" stroke-width="2" fill="none" />
<polyline points="228.0,334.5,212.0,328.5" stroke="black" stroke-width="2" fill="none" />
<polyline points="207.0,321.5,223.5,326.0" stroke="black" stroke-width="2" fill="none" />
<polyline points="267.5,325.5,251.5,325.5,236.0,319.5,220.0,307.5,202.0,300.0,186.0,296.5" stroke="black" stroke-width="2" fill="none" />
<polyline points="260.0,363.0,276.5,362.5" stroke="black" stroke-width="2" fill="none" />
<polyline points="279.5,366.0,263.5,366.0" stroke="black" stroke-width="2" fill="none" />
<polyline points="298.0,330.0,314.0,330.0,330.0,330.0,346.0,330.0,362.0,330.0,377.5,330.0,394.0,330.0,410.0,329.5,426.0,329.5,442.5,329.0,452.5,331.0,436.0,347.0,428.0,363.5,424.0,379.5,406.0,395.5,432.0,411.5" stroke="black" stroke-width="2" fill="none" />
<polyline points="438.0,395.5,454.0,413.5,470.0,424.0" stroke="black" stroke-width="2" fill="none" />
<polyline points="476.5,410.5,460.5,396.5,460.5,382.5" stroke="black" stroke-width="2" fill="none" />
<polyline points="454.5,383.0,470.0,363.0,486.0,349.5,468.0,359.5,458.0,361.5,464.0,371.5,454.0,383.5,464.5,400.0,474.5,402.5,490.5,410.5,506.0,398.5,504.5,380.0,498.0,396.0,485.5,398.0,489.5,392.0,493.0,400.0" stroke="black" stroke-width="2" fill="none" />
<polyline points="475.0,415.5,459.5,401.5,443.0,387.5" stroke="black" stroke-width="2" fill="none" />
<polyline points="435.5,390.0,451.5,368.0,467.5,352.5,460.0,350.5,444.0,374.5,436.5,390.5,444.5,406.5,454.5,422.0" stroke="black" stroke-width="2" fill="none" />
<polyline points="430.5,385.5,446.5,353.5,463.0,337.5,479.5,331.5,495.5,329.5" stroke="black" stroke-width="2" fill="none" />
<polyline points="501.5,323.0,485.5,322.5,470.0,324.0,454.0,326.0,438.0,324.0,421.5,323.5,405.5,323.5,389.5,323.5,374.0,323.0,357.5,323.0,341.0,323.0,325.5,323.0,310.0,323.5,294.0,329.5,278.0,331.5,259.5,329.5,243.5,329.5,227.5,319.5,211.5,309.5,195.5,311.5,180.0,313.5,164.5,315.5,148.5,317.5,132.5,319.5,116.5,309.5,100.0,295.5,83.5,282.0,67.5,292.0,51.5,304.0" stroke="black" stroke-width="2" fill="none" />
<polyline points="56.0,306.5,72.0,320.5" stroke="black" stroke-width="2" fill="none" />
<polyline points="52.5,335.0,48.5,331.0,51.0,326.5,35.0,322.5" stroke="black" stroke-width="2" fill="none" />
<polyline points="26.0,320.5,44.0,336.5,58.0,352.0,68.0,368.0,64.0,383.5,46.5,395.0" stroke="black" stroke-width="2" fill="none" />
<polyline points="60.0,353.5,44.0,333.5,28.0,327.5,12.0,321.5" stroke="black" stroke-width="2" fill="none" />
<polyline points="19.0,322.0,35.0,337.5" stroke="black" stroke-width="2" fill="none" />
<polyline points="39.5,344.0,23.5,330.0" stroke="black" stroke-width="2" fill="none" />
<polyline points="21.0,337.5,45.0,353.5,52.5,370.0,58.5,394.0,38.5,410.0" stroke="black" stroke-width="2" fill="none" />
<polyline points="34.0,394.0,18.5,400.0,2.5,396.0,10.5,388.0,30.5,372.0,20.5,356.5,10.5,366.5" stroke="black" stroke-width="2" fill="none" />
<polyline points="2.5,359.0,18.0,353.5,34.0,367.5" stroke="black" stroke-width="2" fill="none" />
<polyline points="41.0,360.5,25.5,346.0,9.5,342.0" stroke="black" stroke-width="2" fill="none" />
<polyline points="1.5,344.0,17.5,336.0,33.5,346.5,49.5,362.5" stroke="black" stroke-width="2" fill="none" />
<polyline points="65.0,379.5,49.0,401.5,33.0,413.5,17.5,418.0,2.0,418.0" stroke="black" stroke-width="2" fill="none" />
<polyline points="1.5,424.0,17.0,424.0,33.0,421.5,49.0,411.5,65.0,391.5,80.5,383.5,96.5,395.5,112.5,395.5,128.5,393.5,145.0,393.5,161.0,393.0,177.0,393.5,193.0,393.5,209.5,385.5,226.0,392.0,242.5,392.0,258.5,391.5,274.5,391.5" stroke="black" stroke-width="2" fill="none" />
<polyline points="430.5,371.0,450.5,337.5,438.5,353.0,432.0,368.5,442.0,387.0,452.0,403.0,463.5,421.0,489.0,433.0,504.5,427.0,486.5,425.5" stroke="black" stroke-width="2" fill="none" />
<polyline points="470.0,377.0,486.0,363.0,493.5,362.5" stroke="black" stroke-width="2" fill="none" />
<polyline points="496.0,358.0,511.5,370.0" stroke="black" stroke-width="2" fill="none" />
<polyline points="502.5,370.5,486.5,361.0" stroke="black" stroke-width="2" fill="none" />
<polyline points="487.0,360.0,501.0,376.0,509.0,395.5" stroke="black" stroke-width="2" fill="none" />
<polyline points="487.0,373.5,483.0,373.5,477.0,389.5" stroke="black" stroke-width="2" fill="none" />
<polyline points="468.5,374.0,494.5,352.0,510.5,364.0" stroke="black" stroke-width="2" fill="none" />
<polyline points="507.5,361.5,491.5,355.5,476.0,359.0" stroke="black" stroke-width="2" fill="none" />
<polyline points="475.5,360.0,463.5,388.0,475.5,404.0" stroke="black" stroke-width="2" fill="none" />
<polyline points="466.5,363.0,500.5,363.0" stroke="black" stroke-width="2" fill="none" />
<polyline points="481.0,362.0,469.0,377.5,473.0,393.0,483.0,393.0,483.0,373.0" stroke="black" stroke-width="2" fill="none" />
<polyline points="454.0,354.5,470.5,341.0,486.5,335.5,502.5,342.0" stroke="black" stroke-width="2" fill="none" />
<polyline points="483.0,329.5,454.5,346.0,445.0,362.0,437.0,378.0,449.0,392.0,461.0,408.0" stroke="black" stroke-width="2" fill="none" />
<polyline points="451.5,283.0,467.0,283.5,483.0,284.0,484.5,274.0" stroke="black" stroke-width="2" fill="none" />
<polyline points="473.0,271.5,456.5,273.5" stroke="black" stroke-width="2" fill="none" />
<polyline points="450.0,270.0,464.0,278.0,448.5,270.0,452.5,264.0,469.0,265.5,488.5,269.5,504.5,269.5,508.5,279.5,494.5,275.0" stroke="black" stroke-width="2" fill="none" />
<polyline points="496.0,226.0,500.5,210.0,503.0,216.5,507.0,208.5,511.0,204.5,499.5,202.5" stroke="black" stroke-width="2" fill="none" />
<polyline points="482.0,202.0,472.5,194.0,456.5,194.0" stroke="black" stroke-width="2" fill="none" />
<polyline points="455.5,193.0,455.5,209.0" stroke="black" stroke-width="2" fill="none" />
<polyline points="462.5,225.5,476.5,221.5,476.5,204.0,480.0,188.0,464.0,206.5,468.0,223.0,451.5,233.0,446.0,233.0,438.5,234.5,438.5,218.0,438.0,205.5,440.0,189.5,420.5,161.0,411.0,145.5,409.0,129.5,424.5,117.5,408.5,125.5" stroke="black" stroke-width="2" fill="none" />
<polyline points="412.0,130.0,428.0,122.0" stroke="black" stroke-width="2" fill="none" />
<polyline points="419.0,122.5,411.0,138.5,419.0,154.0,439.0,155.5,443.0,149.5,459.0,149.0,475.5,147.0" stroke="black" stroke-width="2" fill="none" />
<polyline points="483.0,154.0,474.5,134.0,475.0,128.0,459.0,126.0,449.0,122.0,431.0,134.0,423.0,132.0,431.0,116.0,435.0,100.0,449.0,100.0,457.0,94.0,441.0,96.0" stroke="black" stroke-width="2" fill="none" />
<polyline points="443.0,94.5,439.0,110.5,449.0,126.0" stroke="black" stroke-width="2" fill="none" />
<polyline points="438.5,134.0,422.5,129.5" stroke="black" stroke-width="2" fill="none" />
<polyline points="414.0,139.0,430.0,162.5" stroke="black" stroke-width="2" fill="none" />
<polyline points="423.0,186.0,421.0,201.5,425.5,223.5" stroke="black" stroke-width="2" fill="none" />
<polyline points="418.0,260.0,434.0,260.5,450.0,260.5,466.0,258.5" stroke="black" stroke-width="2" fill="none" />
<polyline points="426.5,278.0,428.5,268.5,419.0,266.5" stroke="black" stroke-width="2" fill="none" />
<polyline points="415.5,282.5,399.5,283.0" stroke="black" stroke-width="2" fill="none" />
<polyline points="392.5,273.5,394.5,279.5,400.5,269.5,416.5,270.0,422.0,270.5,423.5,278.5,417.5,286.5,434.0,288.5,450.0,278.5,440.5,288.5,456.5,288.5,472.0,288.0,488.0,288.0,504.0,288.0" stroke="black" stroke-width="2" fill="none" />
<polyline points="507.5,230.5,505.5,216.5,503.5,212.0,493.5,208.0,495.5,192.5,502.0,192.0,504.0,194.0,506.5,179.5,482.5,187.5,466.5,185.0,450.0,185.5,426.0,186.0,410.0,196.0,388.0,196.5,380.0,192.5" stroke="black" stroke-width="2" fill="none" />
<polyline points="377.5,189.0,393.5,193.0" stroke="black" stroke-width="2" fill="none" />
<polyline points="389.5,183.5,373.5,185.5" stroke="black" stroke-width="2" fill="none" />
<polyline points="372.0,189.5,387.5,203.5,403.5,208.0" stroke="black" stroke-width="2" fill="none" />
<polyline points="392.0,222.5,376.0,216.0,360.0,215.5" stroke="black" stroke-width="2" fill="none" />
<polyline points="362.0,213.5,364.5,229.5,372.5,231.5,388.5,234.0,404.5,230.0" stroke="black" stroke-width="2" fill="none" />
<polyline points="386.0,209.5,380.0,211.5,374.5,221.5,374.5,205.0" stroke="black" stroke-width="2" fill="none" />
<polyline points="365.5,217.5,363.5,219.5" stroke="black" stroke-width="2" fill="none" />
<polyline points="368.5,185.5,384.5,178.0,400.0,184.0,415.5,180.0,431.5,180.0,447.0,182.0,463.0,180.0,479.0,182.0,487.0,188.0,487.0,204.0,485.0,220.0" stroke="black" stroke-width="2" fill="none" />
<polyline points="467.5,232.0,451.5,236.0,448.0,222.0,448.0,217.5,449.5,201.5,449.5,185.5" stroke="black" stroke-width="2" fill="none" />
<polyline points="437.5,204.0,434.0,200.0,417.5,226.0,421.5,218.5,415.5,216.5,415.5,200.5,415.5,184.5" stroke="black" stroke-width="2" fill="none" />
<polyline points="390.5,180.5,408.5,196.5,410.5,208.5,406.5,224.5" stroke="black" stroke-width="2" fill="none" />
<polyline points="378.0,183.0,376.0,199.0,391.5,215.0,397.5,217.0,415.5,233.0,431.5,215.0,449.0,218.5,465.0,214.5,465.5,210.0,469.5,226.0,475.5,228.0,485.0,226.0,501.0,225.5" stroke="black" stroke-width="2" fill="none" />
<polyline points="488.5,155.0,472.5,157.0,456.5,153.0,442.5,165.5,426.5,165.5,410.5,141.5" stroke="black" stroke-width="2" fill="none" />
<polyline points="432.0,101.0,448.0,85.0,463.5,90.5,479.5,84.5,496.0,85.0" stroke="black" stroke-width="2" fill="none" />
<polyline points="495.0,90.0,479.0,90.0" stroke="black" stroke-width="2" fill="none" />
<polyline points="466.0,96.0,461.5,112.0,468.0,114.5,466.0,122.5,462.5,130.0,478.5,145.5,471.0,158.0" stroke="black" stroke-width="2" fill="none" />
<polyline points="481.0,160.5,487.0,144.5,470.5,128.5" stroke="black" stroke-width="2" fill="none" />
<polyline points="465.5,126.5,461.5,112.5,449.5,114.5,449.5,114.5,461.5,98.5" stroke="black" stroke-width="2" fill="none" />
<polyline points="382.5,93.5,366.0,92.0,350.0,96.0" stroke="black" stroke-width="2" fill="none" />
<polyline points="355.0,93.0,350.5,109.0,349.0,125.0,348.5,141.0,348.5,156.5,350.0,172.5,350.5,188.5,351.0,204.0,349.5,220.0,349.5,235.5,351.5,252.0,351.5,268.0,353.5,284.0,351.0,288.0" stroke="black" stroke-width="2" fill="none" />
<polyline points="291.5,372.5,281.5,352.5,283.5,336.5,291.5,314.5,294.0,298.0,294.5,282.0,293.0,266.0,295.0,249.5,295.5,233.0,295.5,217.5,295.0,201.5,294.5,185.5,294.5,169.5,294.5,154.0,294.0,138.0,293.5,121.5,295.0,105.5,291.0,89.5,283.0,87.0" stroke="black" stroke-width="2" fill="none" />
<polyline points="288.5,93.0,288.5,108.5,288.5,124.5,288.5,140.5,288.5,156.5,288.5,172.5,289.0,188.5,287.0,204.5,287.5,220.0,287.0,236.0,289.0,252.5,287.0,268.0,287.0,284.0,287.0,299.5,286.5,315.5,288.0,331.5,288.0,347.5,283.5,363.5,287.5,381.5" stroke="black" stroke-width="2" fill="none" />
<polyline points="284.5,377.5,292.5,353.5,292.5,338.0,280.5,318.0,280.5,302.0,282.0,285.5,282.0,269.5,282.0,253.0,282.0,237.5,282.0,221.5,282.0,205.5,282.5,190.0,282.5,174.0,284.5,158.5,284.5,142.0,282.5,126.0,284.5,110.0,284.0,94.0,284.0,78.0,288.0,61.5,278.0,61.5,262.0,61.0,245.5,61.5,229.0,61.5,213.5,61.5,197.5,61.5,181.5,71.5,165.5,99.5,159.5,126.0" stroke="black" stroke-width="2" fill="none" />
<polyline points="162.5,115.0,178.5,84.5" stroke="black" stroke-width="2" fill="none" />
<polyline points="190.0,75.5,180.0,91.5,172.0,108.0,162.0,124.0,166.0,87.5,182.5,63.5,198.0,53.5,214.0,51.5,230.0,51.5,246.5,51.5,263.0,51.5,278.5,52.0,295.0,50.0,311.0,50.0,327.0,52.0,343.0,50.0,359.0,52.5,374.5,52.5,390.5,52.5,406.5,53.0,422.5,53.0,438.5,53.0,454.5,53.0,470.5,51.5,487.0,53.0,503.0,53.0" stroke="black" stroke-width="2" fill="none" />
<polyline points="395.5,91.0,379.5,91.0,363.5,88.5,347.5,90.5" stroke="black" stroke-width="2" fill="none" />
<polyline points="347.5,89.5,343.5,105.5,343.5,121.5,343.5,137.0,343.5,153.0,343.5,168.5,344.0,184.5,344.5,200.0,345.0,216.0,345.5,232.0,346.0,248.0,346.0,264.0,347.5,280.0,343.0,295.5,358.5,301.5,374.5,302.0,390.0,301.5,406.0,301.5,422.0,301.0,438.0,301.5,454.0,301.5,470.0,301.5,486.0,301.0,502.0,301.0" stroke="black" stroke-width="2" fill="none" />
<polyline points="498.5,422.5,482.5,428.5,466.5,429.0,450.5,419.0,434.0,413.0,418.0,402.5,402.0,394.5,386.0,396.5,363.5,392.0,347.5,392.0,331.5,392.0,315.5,391.5,300.0,391.5,283.5,395.5,267.5,395.5,251.5,397.5,235.5,397.5,219.5,397.0,203.5,395.5,189.5,388.0,174.0,388.0,158.0,388.5,142.0,388.0,126.0,388.0,110.0,388.0,97.5,386.0,100.0,370.0,87.5,362.0,83.5,346.5,77.5,330.5,63.5,315.0,64.0,297.0,78.0,280.5" stroke="black" stroke-width="2" fill="none" />
<polyline points="80.5,274.5,99.0,290.5,117.0,306.5" stroke="black" stroke-width="2" fill="none" />
<polyline points="127.5,279.5,119.5,263.0,111.5,247.5,131.5,232.0,118.0,232.0,102.0,236.5,86.0,240.0" stroke="black" stroke-width="2" fill="none" />
<polyline points="91.5,240.5,107.0,240.5,121.0,262.5" stroke="black" stroke-width="2" fill="none" />
<polyline points="85.0,282.5,103.0,298.5,120.5,314.5" stroke="black" stroke-width="2" fill="none" />
<polyline points="88.5,358.0,104.5,358.0,120.5,357.5,136.0,357.0,152.0,357.0,167.5,357.0,183.5,356.5,203.0,361.0,211.0,377.0" stroke="black" stroke-width="2" fill="none" />
<polyline points="206.0,380.0,212.0,372.0,196.0,363.5,180.0,364.0,164.0,364.0,148.5,364.5,133.0,365.0,117.0,363.0,101.0,369.0" stroke="black" stroke-width="2" fill="none" />
<polyline points="65.5,322.0,49.5,309.0,33.5,305.0" stroke="black" stroke-width="2" fill="none" />
<polyline points="22.0,283.0,38.0,285.0,54.0,279.5,69.5,263.5,85.5,232.0,101.0,216.0,117.0,202.0,133.5,188.5,149.5,174.5,165.5,166.5,181.5,151.0,163.5,152.5,147.5,169.0,129.5,185.0,112.0,201.0,94.0,217.0,80.0,232.5,74.5,248.0,64.5,263.5" stroke="black" stroke-width="2" fill="none" />
<polyline points="77.5,271.5,63.5,287.5,56.0,307.5,66.0,323.5,78.0,339.5,82.0,355.5,86.0,371.5,68.0,389.5,56.0,405.5,35.5,406.0,51.5,386.0" stroke="black" stroke-width="2" fill="none" />
<polyline points="17.5,404.5,1.5,400.0" stroke="black" stroke-width="2" fill="none" />
<polyline points="2.0,356.5,18.0,348.0,33.5,360.5" stroke="black" stroke-width="2" fill="none" />
<polyline points="19.0,350.5,39.0,366.0,37.0,382.0,23.0,381.5" stroke="black" stroke-width="2" fill="none" />
<polyline points="24.5,388.0,20.5,391.5,37.0,391.5,47.5,376.0,42.0,360.0,24.0,344.0" stroke="black" stroke-width="2" fill="none" />
<polyline points="1.5,319.0,17.5,317.0,33.5,319.0,57.5,329.5,65.5,339.5,71.5,355.5,78.0,372.0,92.0,394.5" stroke="black" stroke-width="2" fill="none" />
<polyline points="49.5,282.0,67.5,265.5,79.5,249.5,86.0,233.5,100.0,217.0,118.5,201.5,136.5,185.5,156.5,170.0,170.5,164.5" stroke="black" stroke-width="2" fill="none" />
<polyline points="193.5,61.0,177.5,77.0,169.5,93.0,161.5,109.5,160.0,126.0,164.0,136.5,150.0,152.5,144.0,164.5,130.0,168.5,110.5,184.5,97.0,200.5,75.0,216.5" stroke="black" stroke-width="2" fill="none" />
<polyline points="2.0,297.5,18.0,297.5,34.0,299.0,50.0,299.0,66.0,283.0,82.0,271.0,98.0,285.0,114.0,299.0,129.5,311.5,145.5,313.5,161.0,311.5,177.5,310.0,194.0,305.5,210.0,299.0,200.5,295.0,208.5,307.0,232.5,323.0" stroke="black" stroke-width="2" fill="none" />
<polyline points="81.0,374.5,65.0,338.5,49.5,322.0,33.5,313.5,17.5,311.5,1.5,311.5" stroke="black" stroke-width="2" fill="none" />
<polyline points="299.0,96.0,315.0,90.0" stroke="black" stroke-width="2" fill="none" />
<polyline points="335.5,87.0,351.5,74.5,367.5,75.0,383.5,75.0" stroke="black" stroke-width="2" fill="none" />
<polyline points="388.5,78.0,372.0,78.0,356.0,78.0,340.0,90.0" stroke="black" stroke-width="2" fill="none" />
<polyline points="352.0,78.5,339.5,94.0,337.5,109.5,337.5,125.5,338.0,142.0,338.0,158.0,338.0,174.0,338.0,190.0,338.5,206.0,338.5,221.5,339.0,237.5,339.0,253.5,338.5,270.0,340.5,286.0" stroke="black" stroke-width="2" fill="none" />
<polyline points="394.0,207.5,392.0,226.0,376.0,228.5,404.0,216.5,402.5,200.0,380.5,194.0,368.5,194.5,377.0,178.5" stroke="black" stroke-width="2" fill="none" />
<polyline points="348.0,73.0,336.0,89.5,334.0,105.5,334.0,121.5,334.0,137.5,334.0,153.5,334.0,169.5,334.5,185.5,334.5,201.5,335.0,217.5,335.0,234.0,335.0,249.5,335.0,265.5,335.0,282.0,343.0,298.5,359.0,298.5,375.0,298.5,390.5,298.5,406.5,296.5,422.5,298.5,439.0,298.5,455.0,298.5,471.0,298.5,487.5,298.5,503.5,298.5" stroke="black" stroke-width="2" fill="none" />
<polyline points="448.0,56.5,432.5,56.5,416.5,57.0,400.0,57.0,384.0,57.0,367.5,57.0,351.0,57.0,335.5,55.0,319.5,55.0,303.5,55.5,288.0,59.5" stroke="black" stroke-width="2" fill="none" />
<polyline points="299.0,62.0,305.5,78.0,301.0,67.5,327.5,69.5,343.5,63.5,360.0,63.5,376.0,63.5,392.5,64.0,408.5,64.0,425.0,64.5,441.0,64.5,457.0,64.5,473.0,64.5,485.0,64.0,501.0,64.0" stroke="black" stroke-width="2" fill="none" />
<polyline points="341.0,57.5,317.0,73.5,327.5,63.5" stroke="black" stroke-width="2" fill="none" />
<polyline points="334.0,65.5,320.0,81.5,299.5,97.5,299.5,113.5,299.5,129.5,298.0,146.0,298.0,161.5,298.0,177.5,300.0,194.0,298.0,210.0,298.0,226.5,298.0,242.5,298.0,258.0,298.0,274.0,300.0,289.5,298.5,305.0,296.5,321.5,296.5,346.0,294.5,362.5,297.0,378.5,299.0,397.0,315.0,399.0,331.0,397.0,346.5,396.5,362.0,396.0,378.0,390.0,394.0,389.5,410.0,390.0,426.0,366.0,442.0,340.0,452.0,338.5,468.0,330.5" stroke="black" stroke-width="2" fill="none" />
</svg>