<?xml version="1.0" encoding="UTF-8"?>
<svg xmlns="http://www.w3.org/2000/svg" xmlns:xlink="http://www.w3.org/1999/xlink" width="1935.11811" height="1935.11811" viewBox="0 0 1935.11811 1935.11811" version="1.1">
<g id="surface1">
<path style="fill:none;stroke-width:2;stroke-linecap:butt;stroke-linejoin:miter;stroke:rgb(0%,0%,0%);stroke-opacity:1;stroke-miterlimit:4;" d="M 15.499829 180.499577 L 13.499951 196.499634 L 13.499951 228.499748 " transform="matrix(3.779528,0,0,3.779528,0,0)"/>
<path style="fill:none;stroke-width:2;stroke-linecap:butt;stroke-linejoin:miter;stroke:rgb(0%,0%,0%);stroke-opacity:1;stroke-miterlimit:4;" d="M 8.999967 234.000187 L 8.999967 186.500244 L 8.49974 178.499699 " transform="matrix(3.779528,0,0,3.779528,0,0)"/>
<path style="fill:none;stroke-width:2;stroke-linecap:butt;stroke-linejoin:miter;stroke:rgb(0%,0%,0%);stroke-opacity:1;stroke-miterlimit:4;" d="M 35.499642 307.000382 L 29.500008 323.000439 L 21.500496 339.000496 L 15.499829 355.499748 L 10.000423 372.000033 L 7.999512 384.499528 L 3.999756 416.499642 L 5.999634 432.499699 L 10.499618 446.499878 L 10.999845 462.499935 L 12.999723 478.499992 L 24.499797 482.499748 L 56.49991 486.499504 L 72.499967 488.500415 L 88.500024 490.000065 L 103.999854 488.000187 L 119.99991 490.000065 L 135.999967 495.999699 L 152.500252 500.000488 L 168.500309 502.000366 L 184.500366 507.499772 L 198.000317 506.999544 L 205.999829 502.999788 L 221.499658 506.999544 L 237.499715 506.50035 L 252.999544 506.999544 L 268.999601 506.999544 L 285.499886 509.000456 L 301.499943 509.49965 L 333.500057 509.49965 L 349.500114 507.499772 L 382.000456 507.499772 L 398.499707 505.499894 L 414.999992 504.000244 L 423.499731 509.999878 L 439.499788 502.000366 L 445.99965 477.999764 " transform="matrix(3.779528,0,0,3.779528,0,0)"/>
<path style="fill:none;stroke-width:2;stroke-linecap:butt;stroke-linejoin:miter;stroke:rgb(0%,0%,0%);stroke-opacity:1;stroke-miterlimit:4;" d="M 450.999862 488.500415 L 445.000228 504.500472 " transform="matrix(3.779528,0,0,3.779528,0,0)"/>
<path style="fill:none;stroke-width:2;stroke-linecap:butt;stroke-linejoin:miter;stroke:rgb(0%,0%,0%);stroke-opacity:1;stroke-miterlimit:4;" d="M 438.000138 462.499935 L 422.000081 447.999528 L 406.000024 439.499788 L 389.999967 434.999805 L 373.99991 432.999927 L 357.999854 429.000171 L 342.500024 421.499854 L 327.000195 409.499552 L 307.000382 409.499552 L 291.000326 403.499919 " transform="matrix(3.779528,0,0,3.779528,0,0)"/>
<path style="fill:none;stroke-width:2;stroke-linecap:butt;stroke-linejoin:miter;stroke:rgb(0%,0%,0%);stroke-opacity:1;stroke-miterlimit:4;" d="M 280.999902 404.000146 L 309.00026 411.500464 " transform="matrix(3.779528,0,0,3.779528,0,0)"/>
<path style="fill:none;stroke-width:2;stroke-linecap:butt;stroke-linejoin:miter;stroke:rgb(0%,0%,0%);stroke-opacity:1;stroke-miterlimit:4;" d="M 300.000293 429.500399 L 316.00035 433.500155 L 332.000407 432.999927 L 348.000464 434.999805 " transform="matrix(3.779528,0,0,3.779528,0,0)"/>
<path style="fill:none;stroke-width:2;stroke-linecap:butt;stroke-linejoin:miter;stroke:rgb(0%,0%,0%);stroke-opacity:1;stroke-miterlimit:4;" d="M 351.499992 445.000228 L 335.499935 447.000106 " transform="matrix(3.779528,0,0,3.779528,0,0)"/>
<path style="fill:none;stroke-width:2;stroke-linecap:butt;stroke-linejoin:miter;stroke:rgb(0%,0%,0%);stroke-opacity:1;stroke-miterlimit:4;" d="M 335.499935 452.000317 L 351.499992 456.000073 " transform="matrix(3.779528,0,0,3.779528,0,0)"/>
<path style="fill:none;stroke-width:2;stroke-linecap:butt;stroke-linejoin:miter;stroke:rgb(0%,0%,0%);stroke-opacity:1;stroke-miterlimit:4;" d="M 329.500301 449.500212 L 345.500358 441.499666 L 373.499683 439.499788 L 393.499495 441.999894 " transform="matrix(3.779528,0,0,3.779528,0,0)"/>
<path style="fill:none;stroke-width:2;stroke-linecap:butt;stroke-linejoin:miter;stroke:rgb(0%,0%,0%);stroke-opacity:1;stroke-miterlimit:4;" d="M 414.999992 460.500057 L 431.000049 476.500114 " transform="matrix(3.779528,0,0,3.779528,0,0)"/>
<path style="fill:none;stroke-width:2;stroke-linecap:butt;stroke-linejoin:miter;stroke:rgb(0%,0%,0%);stroke-opacity:1;stroke-miterlimit:4;" d="M 432.999927 476.500114 L 416.99987 460.500057 L 404.999569 445.99965 L 400.999813 452.000317 L 384.499528 451.50009 L 368.500505 459.499601 L 354.500326 432.999927 L 332.499601 416.99987 L 318.000228 400.999813 L 314.499666 384.999756 L 306.500155 383.500106 L 302.500399 367.500049 L 276.499919 349.500114 L 261.00009 351.499992 L 254.500228 341.999797 L 226.49987 343.999674 L 227.99952 359.999731 L 246.000488 354.000098 L 270.500285 341.999797 L 250.500472 337.499813 L 240.500049 325.499512 L 223.999764 331.500179 L 207.999707 348.999886 L 211.500269 345.500358 L 225.500448 329.999495 L 237.499715 321.999984 L 221.499658 325.99974 L 205.499601 341.999797 L 203.499723 345.999552 L 213.500146 329.999495 L 212.999919 314.000472 L 225.00022 318.000228 L 211.000041 316.00035 L 193.000106 321.499756 L 177.000049 339.499691 L 168.999504 353.49987 L 153.499674 363.999487 L 135.999967 361.999609 L 119.99991 368.000277 L 103.999854 375.499561 L 89.999674 382.000456 L 85.999919 379.999544 L 76.499723 364.499715 L 60.499666 358.500081 L 48.500399 342.500024 L 42.499731 326.499967 L 44.499609 322.500212 L 44.499609 318.500456 " transform="matrix(3.779528,0,0,3.779528,0,0)"/>
<path style="fill:none;stroke-width:2;stroke-linecap:butt;stroke-linejoin:miter;stroke:rgb(0%,0%,0%);stroke-opacity:1;stroke-miterlimit:4;" d="M 46.000293 323.000439 L 62.00035 318.99965 L 79.500057 318.99965 L 87.499569 334.999707 L 107.500415 336.999585 L 109.500293 352.999642 L 94.999886 354.500326 L 119.000488 350.499536 L 135.49974 350.000342 L 151.499797 348.000464 L 175.500399 345.999552 L 191.000228 334.000285 L 205.000407 331.500179 L 200.999618 321.499756 L 184.999561 337.499813 L 192.499878 341.499569 " transform="matrix(3.779528,0,0,3.779528,0,0)"/>
<path style="fill:none;stroke-width:2;stroke-linecap:butt;stroke-linejoin:miter;stroke:rgb(0%,0%,0%);stroke-opacity:1;stroke-miterlimit:4;" d="M 207.000285 311.999561 L 187.499666 327.999618 L 171.000415 343.50048 L 147.500041 359.499504 L 119.499683 375.499561 L 119.99991 385.499984 L 130.000334 403.499919 L 120.500138 413.999536 L 114.500505 423.999959 L 130.999756 408.50013 L 144.999935 412.499886 " transform="matrix(3.779528,0,0,3.779528,0,0)"/>
<path style="fill:none;stroke-width:2;stroke-linecap:butt;stroke-linejoin:miter;stroke:rgb(0%,0%,0%);stroke-opacity:1;stroke-miterlimit:4;" d="M 126.499772 390.500195 L 143.000057 396.499829 L 159.000114 404.500374 L 171.000415 412.499886 L 173.499487 416.000448 L 189.499544 423.499731 L 199.499967 427.000293 " transform="matrix(3.779528,0,0,3.779528,0,0)"/>
<path style="fill:none;stroke-width:2;stroke-linecap:butt;stroke-linejoin:miter;stroke:rgb(0%,0%,0%);stroke-opacity:1;stroke-miterlimit:4;" d="M 211.000041 419.499976 L 194.999984 407.999902 " transform="matrix(3.779528,0,0,3.779528,0,0)"/>
<path style="fill:none;stroke-width:2;stroke-linecap:butt;stroke-linejoin:miter;stroke:rgb(0%,0%,0%);stroke-opacity:1;stroke-miterlimit:4;" d="M 175.999593 418.49952 L 186.000016 436.500488 L 191.99965 440.000016 L 207.999707 447.999528 L 223.999764 445.500456 " transform="matrix(3.779528,0,0,3.779528,0,0)"/>
<path style="fill:none;stroke-width:2;stroke-linecap:butt;stroke-linejoin:miter;stroke:rgb(0%,0%,0%);stroke-opacity:1;stroke-miterlimit:4;" d="M 227.99952 443.999772 L 230.499626 422.000081 L 242.499927 400.000391 L 242.499927 386.000212 L 254.500228 372.000033 L 255.000456 355.499748 L 246.99991 367.500049 " transform="matrix(3.779528,0,0,3.779528,0,0)"/>
<path style="fill:none;stroke-width:2;stroke-linecap:butt;stroke-linejoin:miter;stroke:rgb(0%,0%,0%);stroke-opacity:1;stroke-miterlimit:4;" d="M 246.000488 355.499748 L 248.000366 371.499805 L 241.999699 386.000212 L 257.999756 384.000334 L 259.999634 369.499927 L 276.499919 365.500171 " transform="matrix(3.779528,0,0,3.779528,0,0)"/>
<path style="fill:none;stroke-width:2;stroke-linecap:butt;stroke-linejoin:miter;stroke:rgb(0%,0%,0%);stroke-opacity:1;stroke-miterlimit:4;" d="M 275.999691 355.999976 L 259.999634 359.999731 " transform="matrix(3.779528,0,0,3.779528,0,0)"/>
<path style="fill:none;stroke-width:2;stroke-linecap:butt;stroke-linejoin:miter;stroke:rgb(0%,0%,0%);stroke-opacity:1;stroke-miterlimit:4;" d="M 257.000334 345.999552 L 240.500049 352.00022 L 225.00022 363.500293 " transform="matrix(3.779528,0,0,3.779528,0,0)"/>
<path style="fill:none;stroke-width:2;stroke-linecap:butt;stroke-linejoin:miter;stroke:rgb(0%,0%,0%);stroke-opacity:1;stroke-miterlimit:4;" d="M 227.99952 345.00013 L 221.999886 361.500415 L 234.000187 347.500236 L 250.000244 335.499935 " transform="matrix(3.779528,0,0,3.779528,0,0)"/>
<path style="fill:none;stroke-width:2;stroke-linecap:butt;stroke-linejoin:miter;stroke:rgb(0%,0%,0%);stroke-opacity:1;stroke-miterlimit:4;" d="M 277.500374 379.50035 L 273.499585 395.500407 L 267.499951 411.500464 L 259.500439 429.000171 L 241.500505 445.000228 L 237.499715 464.499813 " transform="matrix(3.779528,0,0,3.779528,0,0)"/>
<path style="fill:none;stroke-width:2;stroke-linecap:butt;stroke-linejoin:miter;stroke:rgb(0%,0%,0%);stroke-opacity:1;stroke-miterlimit:4;" d="M 264.999845 406.500252 L 279.000024 375.999788 L 259.000212 391.999845 L 252.999544 407.499674 L 234.500415 423.499731 L 234.000187 443.499544 L 209.999585 459.499601 L 209.500391 459.499601 L 225.500448 449.500212 L 239.499593 427.999715 L 255.49965 416.000448 L 261.500317 401.500041 L 281.50013 373.499683 L 297.500187 387.499862 L 311.500366 401.500041 L 327.000195 421.499854 " transform="matrix(3.779528,0,0,3.779528,0,0)"/>
<path style="fill:none;stroke-width:2;stroke-linecap:butt;stroke-linejoin:miter;stroke:rgb(0%,0%,0%);stroke-opacity:1;stroke-miterlimit:4;" d="M 295.000081 409.99978 L 279.000024 407.999902 " transform="matrix(3.779528,0,0,3.779528,0,0)"/>
<path style="fill:none;stroke-width:2;stroke-linecap:butt;stroke-linejoin:miter;stroke:rgb(0%,0%,0%);stroke-opacity:1;stroke-miterlimit:4;" d="M 277.500374 402.000269 L 293.500431 393.999723 L 313.500244 404.000146 L 327.000195 420.000203 " transform="matrix(3.779528,0,0,3.779528,0,0)"/>
<path style="fill:none;stroke-width:2;stroke-linecap:butt;stroke-linejoin:miter;stroke:rgb(0%,0%,0%);stroke-opacity:1;stroke-miterlimit:4;" d="M 305.000505 424.500187 L 289.000448 427.999715 L 283.500008 418.000326 L 266.999723 418.49952 L 250.999666 436.500488 L 236.500293 430.499821 L 258.499984 414.499764 L 266.499495 398.499707 L 280.499674 398.499707 L 296.499731 394.499951 L 282.499552 379.000122 " transform="matrix(3.779528,0,0,3.779528,0,0)"/>
<path style="fill:none;stroke-width:2;stroke-linecap:butt;stroke-linejoin:miter;stroke:rgb(0%,0%,0%);stroke-opacity:1;stroke-miterlimit:4;" d="M 236.999487 407.999902 L 223.000342 432.000505 L 207.000285 440.500244 L 191.000228 432.499699 L 175.000171 430.499821 " transform="matrix(3.779528,0,0,3.779528,0,0)"/>
<path style="fill:none;stroke-width:2;stroke-linecap:butt;stroke-linejoin:miter;stroke:rgb(0%,0%,0%);stroke-opacity:1;stroke-miterlimit:4;" d="M 153.00048 454.500423 L 168.999504 468.499569 L 184.500366 474.500236 " transform="matrix(3.779528,0,0,3.779528,0,0)"/>
<path style="fill:none;stroke-width:2;stroke-linecap:butt;stroke-linejoin:miter;stroke:rgb(0%,0%,0%);stroke-opacity:1;stroke-miterlimit:4;" d="M 162.000448 472.999552 L 146.000391 464.499813 " transform="matrix(3.779528,0,0,3.779528,0,0)"/>
<path style="fill:none;stroke-width:2;stroke-linecap:butt;stroke-linejoin:miter;stroke:rgb(0%,0%,0%);stroke-opacity:1;stroke-miterlimit:4;" d="M 144.000513 472.00013 L 171.499609 488.000187 L 191.99965 504.500472 " transform="matrix(3.779528,0,0,3.779528,0,0)"/>
<path style="fill:none;stroke-width:2;stroke-linecap:butt;stroke-linejoin:miter;stroke:rgb(0%,0%,0%);stroke-opacity:1;stroke-miterlimit:4;" d="M 169.999959 473.49978 L 153.999902 457.499723 L 125.50035 457.499723 L 109.500293 451.50009 " transform="matrix(3.779528,0,0,3.779528,0,0)"/>
<path style="fill:none;stroke-width:2;stroke-linecap:butt;stroke-linejoin:miter;stroke:rgb(0%,0%,0%);stroke-opacity:1;stroke-miterlimit:4;" d="M 139.499495 476.500114 L 167.499854 492.500171 L 189.499544 510.500106 " transform="matrix(3.779528,0,0,3.779528,0,0)"/>
<path style="fill:none;stroke-width:2;stroke-linecap:butt;stroke-linejoin:miter;stroke:rgb(0%,0%,0%);stroke-opacity:1;stroke-miterlimit:4;" d="M 173.000293 463.500391 L 166.999626 447.500334 L 166.999626 431.500277 L 157.000236 411.500464 L 141.000179 405.499797 L 125.000122 400.999813 L 109.000065 400.499585 L 92.49978 402.500496 " transform="matrix(3.779528,0,0,3.779528,0,0)"/>
<path style="fill:none;stroke-width:2;stroke-linecap:butt;stroke-linejoin:miter;stroke:rgb(0%,0%,0%);stroke-opacity:1;stroke-miterlimit:4;" d="M 101.999976 359.499504 L 85.499691 343.50048 L 75.000073 329.500301 L 59.000016 323.999862 " transform="matrix(3.779528,0,0,3.779528,0,0)"/>
<path style="fill:none;stroke-width:2;stroke-linecap:butt;stroke-linejoin:miter;stroke:rgb(0%,0%,0%);stroke-opacity:1;stroke-miterlimit:4;" d="M 64.500456 315.500122 L 80.500513 323.499634 L 97.499992 333.500057 L 114.000277 345.500358 L 132.000212 355.499748 " transform="matrix(3.779528,0,0,3.779528,0,0)"/>
<path style="fill:none;stroke-width:2;stroke-linecap:butt;stroke-linejoin:miter;stroke:rgb(0%,0%,0%);stroke-opacity:1;stroke-miterlimit:4;" d="M 130.000334 362.499837 L 119.499683 384.000334 L 131.499984 375.499561 L 133.499862 379.50035 L 144.000513 384.000334 L 155.99978 389.999967 L 171.999837 391.999845 " transform="matrix(3.779528,0,0,3.779528,0,0)"/>
<path style="fill:none;stroke-width:2;stroke-linecap:butt;stroke-linejoin:miter;stroke:rgb(0%,0%,0%);stroke-opacity:1;stroke-miterlimit:4;" d="M 102.500203 345.500358 L 85.999919 329.500301 " transform="matrix(3.779528,0,0,3.779528,0,0)"/>
<path style="fill:none;stroke-width:2;stroke-linecap:butt;stroke-linejoin:miter;stroke:rgb(0%,0%,0%);stroke-opacity:1;stroke-miterlimit:4;" d="M 74.499845 332.999829 L 90.499902 345.500358 " transform="matrix(3.779528,0,0,3.779528,0,0)"/>
<path style="fill:none;stroke-width:2;stroke-linecap:butt;stroke-linejoin:miter;stroke:rgb(0%,0%,0%);stroke-opacity:1;stroke-miterlimit:4;" d="M 97.499992 341.499569 L 99.49987 334.999707 L 73.500423 323.000439 " transform="matrix(3.779528,0,0,3.779528,0,0)"/>
<path style="fill:none;stroke-width:2;stroke-linecap:butt;stroke-linejoin:miter;stroke:rgb(0%,0%,0%);stroke-opacity:1;stroke-miterlimit:4;" d="M 42.999959 326.499967 L 58.499788 354.500326 L 74.499845 359.999731 L 90.499902 368.000277 " transform="matrix(3.779528,0,0,3.779528,0,0)"/>
<path style="fill:none;stroke-width:2;stroke-linecap:butt;stroke-linejoin:miter;stroke:rgb(0%,0%,0%);stroke-opacity:1;stroke-miterlimit:4;" d="M 150.500374 357.999854 L 134.999512 368.500505 L 118.50026 378.499894 L 102.500203 382.49965 L 86.500146 374.500138 L 70.50009 372.50026 L 54.500033 358.500081 L 38.499976 330.499723 " transform="matrix(3.779528,0,0,3.779528,0,0)"/>
<path style="fill:none;stroke-width:2;stroke-linecap:butt;stroke-linejoin:miter;stroke:rgb(0%,0%,0%);stroke-opacity:1;stroke-miterlimit:4;" d="M 33.999992 333.500057 L 30.000236 349.500114 L 27.50013 365.500171 L 25.500252 381.500228 L 21.500496 397.500285 L 17.999935 413.999536 L 12.000301 427.499487 " transform="matrix(3.779528,0,0,3.779528,0,0)"/>
<path style="fill:none;stroke-width:2;stroke-linecap:butt;stroke-linejoin:miter;stroke:rgb(0%,0%,0%);stroke-opacity:1;stroke-miterlimit:4;" d="M 25.500252 441.999894 L 25.500252 445.99965 L 17.000513 446.499878 L 10.999845 430.499821 L 9.500195 414.499764 L 10.000423 398.499707 L 17.999935 366.499593 L 23.999569 350.000342 L 30.000236 334.000285 L 16.000057 370.000155 " transform="matrix(3.779528,0,0,3.779528,0,0)"/>
<path style="fill:none;stroke-width:2;stroke-linecap:butt;stroke-linejoin:miter;stroke:rgb(0%,0%,0%);stroke-opacity:1;stroke-miterlimit:4;" d="M 9.500195 370.500382 L 25.500252 330.499723 L 35.000448 324.50009 L 39.000203 340.500146 L 48.500399 355.999976 L 66.500334 372.000033 " transform="matrix(3.779528,0,0,3.779528,0,0)"/>
<path style="fill:none;stroke-width:2;stroke-linecap:butt;stroke-linejoin:miter;stroke:rgb(0%,0%,0%);stroke-opacity:1;stroke-miterlimit:4;" d="M 30.500464 321.499756 L 46.000293 309.500488 L 62.00035 311.500366 L 78.000407 316.999772 L 94.000464 325.000317 L 110.499715 336.500391 L 126.499772 340.500146 L 157.999658 340.500146 L 173.999715 336.500391 L 189.999772 318.500456 L 205.999829 305.999927 L 221.499658 308.500033 L 237.499715 316.499544 L 254 324.50009 L 270.500285 342.500024 L 286.500342 354.500326 L 302.500399 363.999487 " transform="matrix(3.779528,0,0,3.779528,0,0)"/>
<path style="fill:none;stroke-width:2;stroke-linecap:butt;stroke-linejoin:miter;stroke:rgb(0%,0%,0%);stroke-opacity:1;stroke-miterlimit:4;" d="M 287.499764 368.000277 L 271.999935 372.000033 L 255.49965 377.999666 L 251.499894 406.500252 L 235.499837 422.500309 L 229.500203 443.00035 L 216.000252 443.00035 L 202.000073 436.500488 L 193.999528 436.500488 L 184.000138 420.000203 L 173.999715 416.000448 L 150.000146 399.500163 L 139.999723 383.500106 L 150.000146 375.000366 L 161.50022 359.499504 L 167.499854 337.499813 L 184.999561 321.499756 L 202.999495 305.499699 " transform="matrix(3.779528,0,0,3.779528,0,0)"/>
<path style="fill:none;stroke-width:2;stroke-linecap:butt;stroke-linejoin:miter;stroke:rgb(0%,0%,0%);stroke-opacity:1;stroke-miterlimit:4;" d="M 208.499935 485.500081 L 192.499878 495.500505 L 175.999593 487.499959 L 159.999536 477.999764 L 143.500285 472.00013 L 127.500228 468.000374 L 112.000399 463.999585 L 96.000342 459.499601 L 77.500179 463.500391 L 61.500122 463.500391 " transform="matrix(3.779528,0,0,3.779528,0,0)"/>
<path style="fill:none;stroke-width:2;stroke-linecap:butt;stroke-linejoin:miter;stroke:rgb(0%,0%,0%);stroke-opacity:1;stroke-miterlimit:4;" d="M 57.500366 462.499935 L 73.500423 458.500179 L 99.49987 472.500358 L 117.499805 470.000252 L 134.00009 474.000008 L 149.499919 479.999642 L 165.499976 490.000065 L 181.500033 497.999577 L 205.499601 497.999577 L 221.499658 500.000488 " transform="matrix(3.779528,0,0,3.779528,0,0)"/>
<path style="fill:none;stroke-width:2;stroke-linecap:butt;stroke-linejoin:miter;stroke:rgb(0%,0%,0%);stroke-opacity:1;stroke-miterlimit:4;" d="M 420.999626 448.999984 L 434.499577 461.000285 L 438.999561 477.000342 L 442.500122 477.000342 L 446.499878 492.500171 L 440.000016 508.500228 L 446.499878 504.500472 " transform="matrix(3.779528,0,0,3.779528,0,0)"/>
<path style="fill:none;stroke-width:2;stroke-linecap:butt;stroke-linejoin:miter;stroke:rgb(0%,0%,0%);stroke-opacity:1;stroke-miterlimit:4;" d="M 509.999878 431.500277 L 510.500106 416.99987 " transform="matrix(3.779528,0,0,3.779528,0,0)"/>
<path style="fill:none;stroke-width:2;stroke-linecap:butt;stroke-linejoin:miter;stroke:rgb(0%,0%,0%);stroke-opacity:1;stroke-miterlimit:4;" d="M 506.50035 429.500399 L 506.50035 366.499593 L 506.000122 350.499536 L 505.499894 334.500513 L 505.499894 318.500456 L 508 302.000171 L 506.000122 306.500155 " transform="matrix(3.779528,0,0,3.779528,0,0)"/>
</g>
</svg>
