<svg xmlns="http://www.w3.org/2000/svg" width="512mm" height="512mm" viewBox="0 0 512 512" version="1.1"><polyline points="15.5,180.5,13.5,196.5,13.5,212.5,13.5,228.5" stroke="black" stroke-width="2" fill="none" />
<polyline points="9.0,234.0,9.0,218.0,9.0,202.5,9.0,186.5,8.5,178.5" stroke="black" stroke-width="2" fill="none" />
<polyline points="35.5,307.0,29.5,323.0,21.5,339.0,15.5,355.5,10.0,372.0,8.0,384.5,6.0,400.5,4.0,416.5,6.0,432.5,10.5,446.5,11.0,462.5,13.0,478.5,24.5,482.5,40.5,484.5,56.5,486.5,72.5,488.5,88.5,490.0,104.0,488.0,120.0,490.0,136.0,496.0,152.5,500.0,168.5,502.0,184.5,507.5,198.0,507.0,206.0,503.0,221.5,507.0,237.5,506.5,253.0,507.0,269.0,507.0,285.5,509.0,301.5,509.5,317.5,509.5,333.5,509.5,349.5,507.5,366.0,507.5,382.0,507.5,398.5,505.5,415.0,504.0,423.5,510.0,439.5,502.0,446.0,478.0" stroke="black" stroke-width="2" fill="none" />
<polyline points="451.0,488.5,445.0,504.5" stroke="black" stroke-width="2" fill="none" />
<polyline points="438.0,462.5,422.0,448.0,406.0,439.5,390.0,435.0,374.0,433.0,358.0,429.0,342.5,421.5,327.0,409.5,307.0,409.5,291.0,403.5" stroke="black" stroke-width="2" fill="none" />
<polyline points="281.0,404.0,309.0,411.5" stroke="black" stroke-width="2" fill="none" />
<polyline points="300.0,429.5,316.0,433.5,332.0,433.0,348.0,435.0" stroke="black" stroke-width="2" fill="none" />
<polyline points="351.5,445.0,335.5,447.0" stroke="black" stroke-width="2" fill="none" />
<polyline points="335.5,452.0,351.5,456.0" stroke="black" stroke-width="2" fill="none" />
<polyline points="329.5,449.5,345.5,441.5,373.5,439.5,393.5,442.0" stroke="black" stroke-width="2" fill="none" />
<polyline points="415.0,460.5,431.0,476.5" stroke="black" stroke-width="2" fill="none" />
<polyline points="433.0,476.5,417.0,460.5,405.0,446.0,401.0,452.0,384.5,451.5,368.5,459.5,354.5,433.0,332.5,417.0,318.0,401.0,314.5,385.0,306.5,383.5,302.5,367.5,276.5,349.5,261.0,351.5,254.5,342.0,226.5,344.0,228.0,360.0,246.0,354.0,270.5,342.0,250.5,337.5,240.5,325.5,224.0,331.5,208.0,349.0,211.5,345.5,225.5,330.0,237.5,322.0,221.5,326.0,205.5,342.0,203.5,346.0,213.5,330.0,213.0,314.0,225.0,318.0,211.0,316.0,193.0,321.5,177.0,339.5,169.0,353.5,153.5,364.0,136.0,362.0,120.0,368.0,104.0,375.5,90.0,382.0,86.0,380.0,76.5,364.5,60.5,358.5,48.5,342.5,42.5,326.5,44.5,322.5,44.5,318.5" stroke="black" stroke-width="2" fill="none" />
<polyline points="46.0,323.0,62.0,319.0,79.5,319.0,87.5,335.0,107.5,337.0,109.5,353.0,95.0,354.5,119.0,350.5,135.5,350.0,151.5,348.0,175.5,346.0,191.0,334.0,205.0,331.5,201.0,321.5,185.0,337.5,192.5,341.5" stroke="black" stroke-width="2" fill="none" />
<polyline points="207.0,312.0,187.5,328.0,171.0,343.5,147.5,359.5,119.5,375.5,120.0,385.5,130.0,403.5,120.5,414.0,114.5,424.0,131.0,408.5,145.0,412.5" stroke="black" stroke-width="2" fill="none" />
<polyline points="126.5,390.5,143.0,396.5,159.0,404.5,171.0,412.5,173.5,416.0,189.5,423.5,199.5,427.0" stroke="black" stroke-width="2" fill="none" />
<polyline points="211.0,419.5,195.0,408.0" stroke="black" stroke-width="2" fill="none" />
<polyline points="176.0,418.5,186.0,436.5,192.0,440.0,208.0,448.0,224.0,445.5" stroke="black" stroke-width="2" fill="none" />
<polyline points="228.0,444.0,230.5,422.0,242.5,400.0,242.5,386.0,254.5,372.0,255.0,355.5,247.0,367.5" stroke="black" stroke-width="2" fill="none" />
<polyline points="246.0,355.5,248.0,371.5,242.0,386.0,258.0,384.0,260.0,369.5,276.5,365.5" stroke="black" stroke-width="2" fill="none" />
<polyline points="276.0,356.0,260.0,360.0" stroke="black" stroke-width="2" fill="none" />
<polyline points="257.0,346.0,240.5,352.0,225.0,363.5" stroke="black" stroke-width="2" fill="none" />
<polyline points="228.0,345.0,222.0,361.5,234.0,347.5,250.0,335.5" stroke="black" stroke-width="2" fill="none" />
<polyline points="277.5,379.5,273.5,395.5,267.5,411.5,259.5,429.0,241.5,445.0,237.5,464.5" stroke="black" stroke-width="2" fill="none" />
<polyline points="265.0,406.5,279.0,376.0,259.0,392.0,253.0,407.5,234.5,423.5,234.0,443.5,210.0,459.5,209.5,459.5,225.5,449.5,239.5,428.0,255.5,416.0,261.5,401.5,281.5,373.5,297.5,387.5,311.5,401.5,327.0,421.5" stroke="black" stroke-width="2" fill="none" />
<polyline points="295.0,410.0,279.0,408.0" stroke="black" stroke-width="2" fill="none" />
<polyline points="277.5,402.0,293.5,394.0,313.5,404.0,327.0,420.0" stroke="black" stroke-width="2" fill="none" />
<polyline points="305.0,424.5,289.0,428.0,283.5,418.0,267.0,418.5,251.0,436.5,236.5,430.5,258.5,414.5,266.5,398.5,280.5,398.5,296.5,394.5,282.5,379.0" stroke="black" stroke-width="2" fill="none" />
<polyline points="237.0,408.0,223.0,432.0,207.0,440.5,191.0,432.5,175.0,430.5" stroke="black" stroke-width="2" fill="none" />
<polyline points="153.0,454.5,169.0,468.5,184.5,474.5" stroke="black" stroke-width="2" fill="none" />
<polyline points="162.0,473.0,146.0,464.5" stroke="black" stroke-width="2" fill="none" />
<polyline points="144.0,472.0,171.5,488.0,192.0,504.5" stroke="black" stroke-width="2" fill="none" />
<polyline points="170.0,473.5,154.0,457.5,142.0,457.5,142.0,457.5,125.5,457.5,109.5,451.5" stroke="black" stroke-width="2" fill="none" />
<polyline points="139.5,476.5,167.5,492.5,189.5,510.5" stroke="black" stroke-width="2" fill="none" />
<polyline points="173.0,463.5,167.0,447.5,167.0,431.5,157.0,411.5,141.0,405.5,125.0,401.0,109.0,400.5,92.5,402.5" stroke="black" stroke-width="2" fill="none" />
<polyline points="102.0,359.5,85.5,343.5,75.0,329.5,59.0,324.0" stroke="black" stroke-width="2" fill="none" />
<polyline points="64.5,315.5,80.5,323.5,97.5,333.5,114.0,345.5,132.0,355.5" stroke="black" stroke-width="2" fill="none" />
<polyline points="130.0,362.5,119.5,384.0,131.5,375.5,133.5,379.5,144.0,384.0,156.0,390.0,172.0,392.0" stroke="black" stroke-width="2" fill="none" />
<polyline points="102.5,345.5,86.0,329.5" stroke="black" stroke-width="2" fill="none" />
<polyline points="74.5,333.0,90.5,345.5" stroke="black" stroke-width="2" fill="none" />
<polyline points="97.5,341.5,99.5,335.0,73.5,323.0" stroke="black" stroke-width="2" fill="none" />
<polyline points="43.0,326.5,58.5,354.5,74.5,360.0,90.5,368.0" stroke="black" stroke-width="2" fill="none" />
<polyline points="150.5,358.0,135.0,368.5,118.5,378.5,102.5,382.5,86.5,374.5,70.5,372.5,54.5,358.5,38.5,330.5" stroke="black" stroke-width="2" fill="none" />
<polyline points="34.0,333.5,30.0,349.5,27.5,365.5,25.5,381.5,21.5,397.5,18.0,414.0,12.0,427.5" stroke="black" stroke-width="2" fill="none" />
<polyline points="25.5,442.0,25.5,446.0,17.0,446.5,11.0,430.5,9.5,414.5,10.0,398.5,14.0,382.5,18.0,366.5,24.0,350.0,30.0,334.0,16.0,370.0" stroke="black" stroke-width="2" fill="none" />
<polyline points="9.5,370.5,25.5,330.5,35.0,324.5,39.0,340.5,48.5,356.0,66.5,372.0" stroke="black" stroke-width="2" fill="none" />
<polyline points="30.5,321.5,46.0,309.5,62.0,311.5,78.0,317.0,94.0,325.0,110.5,336.5,126.5,340.5,142.0,340.5,158.0,340.5,174.0,336.5,190.0,318.5,206.0,306.0,221.5,308.5,237.5,316.5,254.0,324.5,270.5,342.5,286.5,354.5,302.5,364.0" stroke="black" stroke-width="2" fill="none" />
<polyline points="287.5,368.0,272.0,372.0,255.5,378.0,251.5,406.5,235.5,422.5,229.5,443.0,216.0,443.0,202.0,436.5,194.0,436.5,184.0,420.0,174.0,416.0,150.0,399.5,140.0,383.5,150.0,375.0,161.5,359.5,167.5,337.5,185.0,321.5,203.0,305.5" stroke="black" stroke-width="2" fill="none" />
<polyline points="208.5,485.5,192.5,495.5,176.0,487.5,160.0,478.0,143.5,472.0,127.5,468.0,112.0,464.0,96.0,459.5,77.5,463.5,61.5,463.5" stroke="black" stroke-width="2" fill="none" />
<polyline points="57.5,462.5,73.5,458.5,99.5,472.5,99.5,472.5,117.5,470.0,134.0,474.0,149.5,480.0,165.5,490.0,181.5,498.0,205.5,498.0,221.5,500.0" stroke="black" stroke-width="2" fill="none" />
<polyline points="421.0,449.0,434.5,461.0,439.0,477.0,442.5,477.0,446.5,492.5,440.0,508.5,446.5,504.5" stroke="black" stroke-width="2" fill="none" />
<polyline points="510.0,431.5,510.5,417.0" stroke="black" stroke-width="2" fill="none" />
<polyline points="506.5,429.5,506.5,414.0,506.5,398.0,506.5,382.5,506.5,366.5,506.0,350.5,505.5,334.5,505.5,318.5,508.0,302.0,506.0,306.5" stroke="black" stroke-width="2" fill="none" />
</svg>