<?xml version="1.0" encoding="UTF-8"?>
<svg xmlns="http://www.w3.org/2000/svg" xmlns:xlink="http://www.w3.org/1999/xlink" width="1935.11811" height="1935.11811" viewBox="0 0 1935.11811 1935.11811" version="1.1">
<g id="surface1">
<path style="fill:none;stroke-width:2;stroke-linecap:butt;stroke-linejoin:miter;stroke:rgb(0%,0%,0%);stroke-opacity:1;stroke-miterlimit:4;" d="M 239.499593 2.500106 L 227.500326 18.500163 L 223.499536 36.500098 L 225.500448 52.500155 L 239.499593 59.000016 L 241.500505 64.99965 L 235.499837 73.000195 L 257.499528 71.000317 L 255.000456 60.999894 L 271.000513 54.500033 L 272.500163 58.499788 L 282.99978 48.500399 L 284.999658 52.500155 L 300.999715 52.500155 L 301.499943 57.999561 L 317.5 55.500488 L 329.500301 60.999894 L 345.500358 59.000016 L 361.500415 59.000016 L 377.500472 62.499544 L 393.999723 64.500456 L 409.99978 70.50009 " transform="matrix(3.779528,0,0,3.779528,0,0)"/>
<path style="fill:none;stroke-width:2;stroke-linecap:butt;stroke-linejoin:miter;stroke:rgb(0%,0%,0%);stroke-opacity:1;stroke-miterlimit:4;" d="M 409.000358 61.500122 L 393.000301 57.500366 " transform="matrix(3.779528,0,0,3.779528,0,0)"/>
<path style="fill:none;stroke-width:2;stroke-linecap:butt;stroke-linejoin:miter;stroke:rgb(0%,0%,0%);stroke-opacity:1;stroke-miterlimit:4;" d="M 373.000488 67.999984 L 388.999512 71.499512 L 404.999569 76.999951 " transform="matrix(3.779528,0,0,3.779528,0,0)"/>
<path style="fill:none;stroke-width:2;stroke-linecap:butt;stroke-linejoin:miter;stroke:rgb(0%,0%,0%);stroke-opacity:1;stroke-miterlimit:4;" d="M 387.499862 100.000098 L 371.499805 91.999552 L 355.499748 82.000163 " transform="matrix(3.779528,0,0,3.779528,0,0)"/>
<path style="fill:none;stroke-width:2;stroke-linecap:butt;stroke-linejoin:miter;stroke:rgb(0%,0%,0%);stroke-opacity:1;stroke-miterlimit:4;" d="M 357.499626 80.500513 L 377.500472 82.500391 " transform="matrix(3.779528,0,0,3.779528,0,0)"/>
<path style="fill:none;stroke-width:2;stroke-linecap:butt;stroke-linejoin:miter;stroke:rgb(0%,0%,0%);stroke-opacity:1;stroke-miterlimit:4;" d="M 386.500439 79.500057 L 370.999577 77.500179 L 354.99952 73.999618 L 339.000496 69.999862 L 323.000439 66.500334 " transform="matrix(3.779528,0,0,3.779528,0,0)"/>
<path style="fill:none;stroke-width:2;stroke-linecap:butt;stroke-linejoin:miter;stroke:rgb(0%,0%,0%);stroke-opacity:1;stroke-miterlimit:4;" d="M 354.99952 87.999797 L 370.999577 98.00022 L 386.999634 105.499504 L 402.500496 115.499927 L 418.49952 128.000456 L 434.000382 144.000513 L 450.499634 159.999536 L 466.499691 180.000382 L 482.499748 202.000073 L 498.499805 216.50048 L 500.499683 220.500236 L 508.500228 236.000065 " transform="matrix(3.779528,0,0,3.779528,0,0)"/>
<path style="fill:none;stroke-width:2;stroke-linecap:butt;stroke-linejoin:miter;stroke:rgb(0%,0%,0%);stroke-opacity:1;stroke-miterlimit:4;" d="M 432.000505 148.999691 L 416.000448 135.49974 L 400.000391 121.499561 " transform="matrix(3.779528,0,0,3.779528,0,0)"/>
<path style="fill:none;stroke-width:2;stroke-linecap:butt;stroke-linejoin:miter;stroke:rgb(0%,0%,0%);stroke-opacity:1;stroke-miterlimit:4;" d="M 409.99978 121.999788 L 441.999894 153.999902 L 456.000073 170.500187 L 470.000252 186.500244 L 479.999642 202.500301 L 491.499715 218.500358 L 490.999487 244.499805 L 506.999544 236.500293 " transform="matrix(3.779528,0,0,3.779528,0,0)"/>
<path style="fill:none;stroke-width:2;stroke-linecap:butt;stroke-linejoin:miter;stroke:rgb(0%,0%,0%);stroke-opacity:1;stroke-miterlimit:4;" d="M 432.499699 152.500252 L 414.499764 136.500195 L 407.00048 120.500138 L 382.999878 104.500081 L 354.99952 88.500024 L 313.000016 84.000041 L 307.000382 77.500179 L 291.000326 75.500301 L 275.000269 71.99974 " transform="matrix(3.779528,0,0,3.779528,0,0)"/>
<path style="fill:none;stroke-width:2;stroke-linecap:butt;stroke-linejoin:miter;stroke:rgb(0%,0%,0%);stroke-opacity:1;stroke-miterlimit:4;" d="M 272.500163 71.000317 L 284.500464 86.500146 " transform="matrix(3.779528,0,0,3.779528,0,0)"/>
<path style="fill:none;stroke-width:2;stroke-linecap:butt;stroke-linejoin:miter;stroke:rgb(0%,0%,0%);stroke-opacity:1;stroke-miterlimit:4;" d="M 279.000024 75.500301 L 295.000081 99.49987 " transform="matrix(3.779528,0,0,3.779528,0,0)"/>
<path style="fill:none;stroke-width:2;stroke-linecap:butt;stroke-linejoin:miter;stroke:rgb(0%,0%,0%);stroke-opacity:1;stroke-miterlimit:4;" d="M 270.000057 76.499723 L 286.000114 98.500448 L 302.000171 123.999666 L 318.000228 159.999536 " transform="matrix(3.779528,0,0,3.779528,0,0)"/>
<path style="fill:none;stroke-width:2;stroke-linecap:butt;stroke-linejoin:miter;stroke:rgb(0%,0%,0%);stroke-opacity:1;stroke-miterlimit:4;" d="M 382.49965 100.000098 L 355.999976 84.000041 L 343.999674 71.99974 L 314.000472 71.99974 L 280.499674 60.000472 L 272.500163 50.500277 L 258.499984 38.499976 L 270.500285 36.500098 L 282.499552 24.499797 L 266.999723 22.499919 L 250.999666 14.500407 " transform="matrix(3.779528,0,0,3.779528,0,0)"/>
<path style="fill:none;stroke-width:2;stroke-linecap:butt;stroke-linejoin:miter;stroke:rgb(0%,0%,0%);stroke-opacity:1;stroke-miterlimit:4;" d="M 246.99991 1.49965 L 248.999788 17.499707 L 247.500138 33.499764 L 255.49965 49.499821 L 250.000244 64.99965 L 252.000122 81.499935 L 254 97.499992 L 254 114.000277 L 255.999878 130.000334 L 255.999878 178.999927 L 255.49965 194.999984 L 255.49965 241.999699 L 252.000122 257.999756 L 251.499894 273.999813 L 250.000244 293.999626 L 248.000366 309.999683 L 248.000366 357.999854 L 247.500138 373.99991 L 247.500138 389.49974 L 245.50026 404.999569 L 247.500138 421.499854 L 259.500439 437.49991 L 257.499528 453.499967 L 249.500016 469.500024 L 250.000244 485.500081 L 249.500016 501.500138 L 267.499951 506.000122 L 299.500065 506.000122 L 316.00035 506.50035 L 348.000464 506.50035 L 363.999487 506.999544 L 396.499829 506.999544 L 412.499886 508.500228 L 428.499943 506.50035 L 443.999772 506.000122 L 459.499601 506.000122 L 475.000464 508 L 491.499715 508 " transform="matrix(3.779528,0,0,3.779528,0,0)"/>
<path style="fill:none;stroke-width:2;stroke-linecap:butt;stroke-linejoin:miter;stroke:rgb(0%,0%,0%);stroke-opacity:1;stroke-miterlimit:4;" d="M 358.500081 292.499976 L 388.500317 276.499919 " transform="matrix(3.779528,0,0,3.779528,0,0)"/>
<path style="fill:none;stroke-width:2;stroke-linecap:butt;stroke-linejoin:miter;stroke:rgb(0%,0%,0%);stroke-opacity:1;stroke-miterlimit:4;" d="M 341.000374 282.000358 L 325.499512 280.00048 L 309.999683 277.999569 L 294.499854 276.499919 L 278.499797 276.499919 L 262.49974 277.000146 L 221.999886 277.000146 L 205.999829 276.499919 L 189.999772 276.499919 L 173.999715 278.499797 L 157.500464 277.999569 L 141.500407 280.00048 L 125.50035 275.999691 L 109.500293 269.499829 L 94.000464 269.499829 L 77.500179 265.500073 L 61.500122 263.500195 L 45.500065 259.500439 L 29.500008 259.500439 L 13.499951 257.000334 L 5.500439 263.500195 L 5.500439 243.999577 L 3.999756 236.000065 L 19.999813 220.500236 L 28.000358 203.999951 L 39.999626 187.999894 L 50.000049 171.999837 L 61.500122 155.99978 L 75.999495 139.999723 L 95.500114 116.000155 L 115.499927 100.500326 L 121.499561 84.500269 L 155.499552 75.000073 L 196.000439 71.000317 L 207.999707 88.500024 " transform="matrix(3.779528,0,0,3.779528,0,0)"/>
<path style="fill:none;stroke-width:2;stroke-linecap:butt;stroke-linejoin:miter;stroke:rgb(0%,0%,0%);stroke-opacity:1;stroke-miterlimit:4;" d="M 221.999886 101.499748 L 205.499601 131.499984 L 189.499544 157.500464 " transform="matrix(3.779528,0,0,3.779528,0,0)"/>
<path style="fill:none;stroke-width:2;stroke-linecap:butt;stroke-linejoin:miter;stroke:rgb(0%,0%,0%);stroke-opacity:1;stroke-miterlimit:4;" d="M 172.500065 179.500155 L 157.999658 205.499601 " transform="matrix(3.779528,0,0,3.779528,0,0)"/>
<path style="fill:none;stroke-width:2;stroke-linecap:butt;stroke-linejoin:miter;stroke:rgb(0%,0%,0%);stroke-opacity:1;stroke-miterlimit:4;" d="M 150.500374 191.000228 L 166.500431 159.500342 L 162.000448 167.499854 L 155.99978 183.49991 L 150.000146 200.000195 L 144.000513 216.000252 " transform="matrix(3.779528,0,0,3.779528,0,0)"/>
<path style="fill:none;stroke-width:2;stroke-linecap:butt;stroke-linejoin:miter;stroke:rgb(0%,0%,0%);stroke-opacity:1;stroke-miterlimit:4;" d="M 139.499495 239.000399 L 155.499552 194.999984 L 171.499609 161.50022 L 187.499666 131.499984 L 203.499723 103.999854 L 219.49978 78.000407 " transform="matrix(3.779528,0,0,3.779528,0,0)"/>
<path style="fill:none;stroke-width:2;stroke-linecap:butt;stroke-linejoin:miter;stroke:rgb(0%,0%,0%);stroke-opacity:1;stroke-miterlimit:4;" d="M 225.00022 73.000195 L 214.499569 89.000252 L 205.000407 105.000309 L 196.499634 121.000366 L 186.500244 136.500195 L 178.000505 152.500252 L 170.500187 168.500309 L 162.99987 184.000138 L 157.500464 200.000195 L 151.499797 215.500024 L 145.500163 232.000309 L 139.499495 248.000366 L 135.49974 264.000423 L 116.999577 271.999935 " transform="matrix(3.779528,0,0,3.779528,0,0)"/>
<path style="fill:none;stroke-width:2;stroke-linecap:butt;stroke-linejoin:miter;stroke:rgb(0%,0%,0%);stroke-opacity:1;stroke-miterlimit:4;" d="M 128.000456 295.500309 L 135.999967 273.499585 L 139.999723 267.499951 L 147.500041 241.500505 L 153.499674 225.500448 L 157.999658 211.500269 L 164.49952 200.999618 L 170.500187 184.999561 L 177.000049 172.500065 L 196.999862 148.500496 L 204.500179 132.999634 L 216.50048 116.999577 L 212.999919 111.500171 L 225.00022 95.500114 L 230.999854 79.500057 L 228.999976 63.5 L 212.999919 65.499878 L 196.999862 69.000439 L 180.999805 76.499723 L 164.49952 82.500391 " transform="matrix(3.779528,0,0,3.779528,0,0)"/>
<path style="fill:none;stroke-width:2;stroke-linecap:butt;stroke-linejoin:miter;stroke:rgb(0%,0%,0%);stroke-opacity:1;stroke-miterlimit:4;" d="M 137.000423 82.500391 L 112.999821 98.500448 L 128.999878 85.999919 L 144.999935 79.500057 L 160.999992 73.500423 L 177.000049 64.99965 L 191.500456 60.999894 L 196.000439 53.499577 L 212.000496 57.500366 " transform="matrix(3.779528,0,0,3.779528,0,0)"/>
<path style="fill:none;stroke-width:2;stroke-linecap:butt;stroke-linejoin:miter;stroke:rgb(0%,0%,0%);stroke-opacity:1;stroke-miterlimit:4;" d="M 216.000252 53.499577 L 220.000008 69.499634 L 209.999585 85.999919 L 205.999829 114.000277 L 200.000195 129.500106 " transform="matrix(3.779528,0,0,3.779528,0,0)"/>
<path style="fill:none;stroke-width:2;stroke-linecap:butt;stroke-linejoin:miter;stroke:rgb(0%,0%,0%);stroke-opacity:1;stroke-miterlimit:4;" d="M 202.999495 116.500382 L 182.999683 126.499772 L 190.5 110.499715 " transform="matrix(3.779528,0,0,3.779528,0,0)"/>
<path style="fill:none;stroke-width:2;stroke-linecap:butt;stroke-linejoin:miter;stroke:rgb(0%,0%,0%);stroke-opacity:1;stroke-miterlimit:4;" d="M 236.000065 78.000407 L 241.500505 94.000464 L 241.999699 110.499715 L 241.999699 126.499772 L 240.500049 141.999601 L 240.500049 157.500464 L 241.000277 173.999715 L 239.000399 189.999772 L 239.000399 205.999829 L 236.999487 221.999886 L 234.999609 237.999943 L 234.999609 253.499772 L 241.000277 268.999601 L 243.000155 293.000203 L 241.000277 309.00026 L 242.499927 325.000317 L 243.000155 341.000374 L 243.000155 373.499683 L 241.000277 389.49974 L 241.000277 406.000024 L 227.000098 421.499854 L 223.000342 437.49991 L 225.00022 453.499967 L 234.999609 469.500024 L 234.500415 486.000309 L 234.500415 502.499561 " transform="matrix(3.779528,0,0,3.779528,0,0)"/>
<path style="fill:none;stroke-width:2;stroke-linecap:butt;stroke-linejoin:miter;stroke:rgb(0%,0%,0%);stroke-opacity:1;stroke-miterlimit:4;" d="M 165.499976 511.499528 L 132.500439 511.499528 " transform="matrix(3.779528,0,0,3.779528,0,0)"/>
<path style="fill:none;stroke-width:2;stroke-linecap:butt;stroke-linejoin:miter;stroke:rgb(0%,0%,0%);stroke-opacity:1;stroke-miterlimit:4;" d="M 186.500244 508.500228 L 170.500187 506.000122 L 123.000244 506.000122 L 106.499959 508 L 90.499902 507.499772 L 73.999618 507.499772 L 57.500366 505.499894 L 41.000081 505.499894 L 25.000024 508 " transform="matrix(3.779528,0,0,3.779528,0,0)"/>
<path style="fill:none;stroke-width:2;stroke-linecap:butt;stroke-linejoin:miter;stroke:rgb(0%,0%,0%);stroke-opacity:1;stroke-miterlimit:4;" d="M 7.999512 250.999666 L 21.999691 250.999666 L 37.49952 255.000456 L 69.499634 259.000212 L 85.499691 262.999967 L 103.000431 274.500041 L 119.000488 278.499797 L 135.49974 286.000114 L 151.499797 284.000236 L 167.499854 284.000236 L 182.999683 282.000358 L 198.99974 281.50013 L 288.50022 281.50013 L 304.500277 283.500008 L 320.999528 283.500008 L 336.999585 284.999658 L 352.999642 293.500431 L 368.999699 281.50013 L 385.499984 277.500374 L 402.000269 271.999935 L 418.49952 268.000179 L 434.499577 263.500195 L 450.499634 259.500439 L 466.999919 257.499528 L 483.500203 253.499772 L 499.50026 250.999666 " transform="matrix(3.779528,0,0,3.779528,0,0)"/>
<path style="fill:none;stroke-width:2;stroke-linecap:butt;stroke-linejoin:miter;stroke:rgb(0%,0%,0%);stroke-opacity:1;stroke-miterlimit:4;" d="M 393.499495 94.499658 L 377.500472 86.500146 L 361.000187 80.500513 L 345.00013 82.000163 L 336.999585 75.999495 L 320.999528 73.500423 L 305.000505 67.999984 L 289.000448 67.999984 L 282.99978 66.500334 L 250.999666 74.499845 " transform="matrix(3.779528,0,0,3.779528,0,0)"/>
<path style="fill:none;stroke-width:2;stroke-linecap:butt;stroke-linejoin:miter;stroke:rgb(0%,0%,0%);stroke-opacity:1;stroke-miterlimit:4;" d="M 271.499707 67.499756 L 269.499829 79.500057 L 281.50013 95.500114 L 291.49952 110.999943 L 301.499943 127 L 309.500488 142.499829 L 316.00035 158.499886 L 322.500212 173.999715 L 327.000195 189.999772 L 333.500057 205.999829 L 338.000041 221.999886 L 341.999797 237.999943 L 345.500358 254 L 348.999886 269.499829 L 352.500448 291.49952 " transform="matrix(3.779528,0,0,3.779528,0,0)"/>
<path style="fill:none;stroke-width:2;stroke-linecap:butt;stroke-linejoin:miter;stroke:rgb(0%,0%,0%);stroke-opacity:1;stroke-miterlimit:4;" d="M 244.499805 242.499927 L 245.000033 226.49987 " transform="matrix(3.779528,0,0,3.779528,0,0)"/>
<path style="fill:none;stroke-width:2;stroke-linecap:butt;stroke-linejoin:miter;stroke:rgb(0%,0%,0%);stroke-opacity:1;stroke-miterlimit:4;" d="M 240.500049 222.500114 L 240.500049 254.500228 " transform="matrix(3.779528,0,0,3.779528,0,0)"/>
<path style="fill:none;stroke-width:2;stroke-linecap:butt;stroke-linejoin:miter;stroke:rgb(0%,0%,0%);stroke-opacity:1;stroke-miterlimit:4;" d="M 64.500456 163.500098 L 57.999561 179.500155 L 46.000293 195.500212 L 35.99987 211.000041 L 26.00048 227.000098 L 2.500106 246.499683 L 18.500163 222.500114 L 33.999992 196.499634 " transform="matrix(3.779528,0,0,3.779528,0,0)"/>
<path style="fill:none;stroke-width:2;stroke-linecap:butt;stroke-linejoin:miter;stroke:rgb(0%,0%,0%);stroke-opacity:1;stroke-miterlimit:4;" d="M 23.500374 198.499512 L 39.500431 178.499699 L 55.500488 156.500008 " transform="matrix(3.779528,0,0,3.779528,0,0)"/>
<path style="fill:none;stroke-width:2;stroke-linecap:butt;stroke-linejoin:miter;stroke:rgb(0%,0%,0%);stroke-opacity:1;stroke-miterlimit:4;" d="M 63.5 161.50022 L 79.500057 145.500163 L 78.000407 149.499919 L 57.999561 152.000024 L 47.499943 168.000081 L 35.499642 184.000138 L 23.999569 200.000195 L 32.000114 209.500391 L 30.500464 219.49978 L 38.499976 199.499967 L 48.000171 189.499544 L 64.000228 167.499854 L 67.999984 147.500041 L 84.000041 129.500106 L 105.999731 105.999731 L 121.999788 84.000041 " transform="matrix(3.779528,0,0,3.779528,0,0)"/>
<path style="fill:none;stroke-width:2;stroke-linecap:butt;stroke-linejoin:miter;stroke:rgb(0%,0%,0%);stroke-opacity:1;stroke-miterlimit:4;" d="M 139.999723 64.500456 L 111.500171 78.000407 L 127.500228 69.499634 L 147.500041 61.500122 L 166.000203 50.000049 L 186.000016 55.999683 L 202.000073 50.000049 L 218.00013 53.999805 L 224.499992 60.000472 " transform="matrix(3.779528,0,0,3.779528,0,0)"/>
<path style="fill:none;stroke-width:2;stroke-linecap:butt;stroke-linejoin:miter;stroke:rgb(0%,0%,0%);stroke-opacity:1;stroke-miterlimit:4;" d="M 204.500179 46.499487 L 221.000464 42.499731 L 236.999487 30.500464 " transform="matrix(3.779528,0,0,3.779528,0,0)"/>
<path style="fill:none;stroke-width:2;stroke-linecap:butt;stroke-linejoin:miter;stroke:rgb(0%,0%,0%);stroke-opacity:1;stroke-miterlimit:4;" d="M 279.000024 39.500431 L 296.499731 33.999992 " transform="matrix(3.779528,0,0,3.779528,0,0)"/>
<path style="fill:none;stroke-width:2;stroke-linecap:butt;stroke-linejoin:miter;stroke:rgb(0%,0%,0%);stroke-opacity:1;stroke-miterlimit:4;" d="M 313.500244 37.999748 L 298.000415 41.999504 L 282.000358 44.000415 " transform="matrix(3.779528,0,0,3.779528,0,0)"/>
<path style="fill:none;stroke-width:2;stroke-linecap:butt;stroke-linejoin:miter;stroke:rgb(0%,0%,0%);stroke-opacity:1;stroke-miterlimit:4;" d="M 348.999886 35.99987 L 397.500285 51.999927 L 404.999569 65.499878 L 419.499976 65.499878 L 437.49991 81.499935 L 459.999829 97.499992 L 477.999764 113.500049 L 510.500106 146.000391 " transform="matrix(3.779528,0,0,3.779528,0,0)"/>
<path style="fill:none;stroke-width:2;stroke-linecap:butt;stroke-linejoin:miter;stroke:rgb(0%,0%,0%);stroke-opacity:1;stroke-miterlimit:4;" d="M 377.000244 76.499723 L 361.000187 76.499723 " transform="matrix(3.779528,0,0,3.779528,0,0)"/>
<path style="fill:none;stroke-width:2;stroke-linecap:butt;stroke-linejoin:miter;stroke:rgb(0%,0%,0%);stroke-opacity:1;stroke-miterlimit:4;" d="M 509.999878 144.499707 L 494.500049 128.000456 L 478.499992 111.500171 L 462.499935 97.499992 L 446.499878 85.499691 L 430.499821 75.500301 L 414.999992 60.000472 L 398.999935 52.500155 L 382.999878 46.499487 L 367.500049 42.499731 L 351.499992 36.500098 L 335.499935 36.500098 L 318.99965 34.50022 L 302.999593 30.500464 L 286.999536 30.500464 L 282.499552 28.499552 L 272.500163 40.499854 L 254.500228 26.499674 L 232.999731 24.499797 L 225.00022 22.499919 L 209.000163 28.499552 L 193.000106 32.000114 L 177.000049 31.499886 L 160.999992 29.500008 L 144.999935 30.000236 L 128.999878 35.499642 L 112.499593 43.500187 L 96.499536 53.499577 L 80.000285 65.499878 L 64.000228 81.499935 L 69.999862 89.50048 L 141.999601 57.500366 L 166.000203 41.500309 L 182.00026 39.000203 " transform="matrix(3.779528,0,0,3.779528,0,0)"/>
<path style="fill:none;stroke-width:2;stroke-linecap:butt;stroke-linejoin:miter;stroke:rgb(0%,0%,0%);stroke-opacity:1;stroke-miterlimit:4;" d="M 164.000326 35.99987 L 146.000391 33.999992 L 130.000334 41.500309 L 114.000277 49.499821 L 98.00022 60.000472 L 81.499935 71.499512 L 67.499756 85.499691 L 83.499813 69.499634 L 105.999731 53.499577 L 135.999967 37.49952 " transform="matrix(3.779528,0,0,3.779528,0,0)"/>
<path style="fill:none;stroke-width:2;stroke-linecap:butt;stroke-linejoin:miter;stroke:rgb(0%,0%,0%);stroke-opacity:1;stroke-miterlimit:4;" d="M 141.500407 28.99978 L 107.500415 44.999837 L 83.499813 60.999894 L 67.499756 77.500179 L 55.999683 94.000464 L 46.000293 110.499715 L 30.000236 126.499772 L 16.000057 142.499829 L 3.999756 158.499886 L 14.500407 146.499585 L 30.999658 126.499772 L 46.999715 110.499715 L 62.499544 98.500448 L 78.499601 86.500146 L 94.499658 78.499601 L 110.499715 72.499967 L 126.499772 66.000106 L 141.999601 57.999561 L 157.999658 50.000049 L 173.999715 39.999626 L 186.500244 39.999626 L 194.499756 44.000415 L 210.499813 39.500431 L 223.999764 46.999715 " transform="matrix(3.779528,0,0,3.779528,0,0)"/>
<path style="fill:none;stroke-width:2;stroke-linecap:butt;stroke-linejoin:miter;stroke:rgb(0%,0%,0%);stroke-opacity:1;stroke-miterlimit:4;" d="M 49.499821 122.500016 L 31.499886 134.500317 L 26.999902 144.499707 L 19.000391 156.500008 L 16.500285 157.999658 L 30.500464 134.00009 L 44.499609 125.50035 L 46.999715 117.499805 " transform="matrix(3.779528,0,0,3.779528,0,0)"/>
</g>
</svg>
