<?xml version="1.0" encoding="UTF-8"?>
<svg xmlns="http://www.w3.org/2000/svg" xmlns:xlink="http://www.w3.org/1999/xlink" width="1935.11811" height="1935.11811" viewBox="0 0 1935.11811 1935.11811" version="1.1">
<g id="surface1">
<path style="fill:none;stroke-width:2;stroke-linecap:butt;stroke-linejoin:miter;stroke:rgb(0%,0%,0%);stroke-opacity:1;stroke-miterlimit:4;" d="M 159.500342 2.500106 L 157.500464 18.500163 L 153.499674 34.50022 L 147.500041 50.500277 L 133.499862 66.999528 L 101.499748 82.999585 L 79.500057 98.999642 L 61.500122 114.999699 L 48.999593 130.999756 L 41.000081 146.499585 L 34.50022 162.499642 L 28.99978 178.499699 L 25.000024 194.499756 L 23.000146 210.499813 L 21.500496 225.999642 L 21.500496 241.500505 L 17.499707 257.000334 L 13.499951 289.000448 L 9.500195 304.500277 L 7.999512 320.500334 L 3.999756 336.500391 " transform="matrix(3.779528,0,0,3.779528,0,0)"/>
<path style="fill:none;stroke-width:2;stroke-linecap:butt;stroke-linejoin:miter;stroke:rgb(0%,0%,0%);stroke-opacity:1;stroke-miterlimit:4;" d="M 12.999723 325.000317 L 10.499618 341.000374 L 8.999967 357.000431 L 6.499862 373.000488 L 14.500407 388.500317 L 23.999569 404.500374 L 34.50022 420.500431 L 44.999837 436.00026 L 63.5 452.000317 L 89.50048 467.500146 L 107.500415 484.000431 L 135.49974 500.000488 " transform="matrix(3.779528,0,0,3.779528,0,0)"/>
<path style="fill:none;stroke-width:2;stroke-linecap:butt;stroke-linejoin:miter;stroke:rgb(0%,0%,0%);stroke-opacity:1;stroke-miterlimit:4;" d="M 107.500415 484.499626 L 123.500472 496.499927 L 139.499495 502.499561 L 155.499552 504.500472 L 171.499609 506.000122 L 187.999894 508 L 251.499894 508 L 267.499951 506.000122 L 283.500008 506.000122 L 298.999837 504.500472 L 314.999894 504.500472 L 331.500179 502.499561 L 347.500236 502.499561 L 363.500293 500.499683 L 379.50035 495.999699 L 395.500407 488.000187 L 411.500464 479.999642 L 427.999715 469.500024 L 443.499544 457.499723 L 459.499601 443.00035 L 475.499658 422.999504 L 490.999487 388.999512 " transform="matrix(3.779528,0,0,3.779528,0,0)"/>
<path style="fill:none;stroke-width:2;stroke-linecap:butt;stroke-linejoin:miter;stroke:rgb(0%,0%,0%);stroke-opacity:1;stroke-miterlimit:4;" d="M 493.000399 376.500016 L 484.999854 392.500073 L 479.00022 407.999902 L 468.999797 423.499731 L 452.99974 441.499666 L 432.999927 456.999495 L 411.500464 472.999552 L 377.999666 489.499837 " transform="matrix(3.779528,0,0,3.779528,0,0)"/>
<path style="fill:none;stroke-width:2;stroke-linecap:butt;stroke-linejoin:miter;stroke:rgb(0%,0%,0%);stroke-opacity:1;stroke-miterlimit:4;" d="M 490.000065 370.000155 L 479.500448 386.000212 L 474.000008 402.500496 L 463.999585 418.49952 L 454.500423 434.000382 L 432.499699 449.500212 L 413.000114 466.000496 L 382.999878 481.99952 L 391.000423 486.000309 L 407.00048 477.999764 L 422.999504 466.000496 L 441.000472 453.499967 L 456.999495 441.000472 L 472.999552 418.999748 L 488.999609 384.999756 L 508.500228 348.999886 " transform="matrix(3.779528,0,0,3.779528,0,0)"/>
<path style="fill:none;stroke-width:2;stroke-linecap:butt;stroke-linejoin:miter;stroke:rgb(0%,0%,0%);stroke-opacity:1;stroke-miterlimit:4;" d="M 456.999495 152.500252 L 441.499666 139.999723 L 439.499788 119.99991 " transform="matrix(3.779528,0,0,3.779528,0,0)"/>
<path style="fill:none;stroke-width:2;stroke-linecap:butt;stroke-linejoin:miter;stroke:rgb(0%,0%,0%);stroke-opacity:1;stroke-miterlimit:4;" d="M 447.999528 110.999943 L 459.999829 127.500228 L 470.000252 143.500285 L 475.999886 159.500342 L 479.999642 175.500399 L 486.000309 191.500456 L 488.000187 207.500513 L 490.500293 223.499536 L 492.500171 239.499593 L 495.000277 255.49965 L 490.999487 271.999935 L 497.000155 273.499585 L 499.000033 279.500252 L 500.99991 295.999504 L 502.999788 312.499788 L 504.999666 320.500334 L 500.99991 336.500391 L 502.499561 344.499902 L 502.499561 360.499959 L 500.499683 364.499715 L 506.999544 370.500382 L 495.000277 386.500439 L 488.999609 402.500496 L 481.500326 418.49952 L 471.499902 434.499577 L 455.499845 450.499634 L 432.999927 466.499691 L 407.00048 482.499748 L 368.999699 486.000309 L 384.499528 481.500326 L 400.499585 473.49978 L 416.499642 461.500513 L 432.499699 449.500212 L 448.499756 438.000138 L 463.999585 416.499642 L 479.500448 384.499528 " transform="matrix(3.779528,0,0,3.779528,0,0)"/>
<path style="fill:none;stroke-width:2;stroke-linecap:butt;stroke-linejoin:miter;stroke:rgb(0%,0%,0%);stroke-opacity:1;stroke-miterlimit:4;" d="M 402.999691 171.499609 L 387.499862 159.999536 L 379.999544 153.999902 " transform="matrix(3.779528,0,0,3.779528,0,0)"/>
<path style="fill:none;stroke-width:2;stroke-linecap:butt;stroke-linejoin:miter;stroke:rgb(0%,0%,0%);stroke-opacity:1;stroke-miterlimit:4;" d="M 381.500228 159.999536 L 397.000057 150.000146 " transform="matrix(3.779528,0,0,3.779528,0,0)"/>
<path style="fill:none;stroke-width:2;stroke-linecap:butt;stroke-linejoin:miter;stroke:rgb(0%,0%,0%);stroke-opacity:1;stroke-miterlimit:4;" d="M 385.499984 165.499976 L 385.499984 132.500439 L 369.499927 141.999601 " transform="matrix(3.779528,0,0,3.779528,0,0)"/>
<path style="fill:none;stroke-width:2;stroke-linecap:butt;stroke-linejoin:miter;stroke:rgb(0%,0%,0%);stroke-opacity:1;stroke-miterlimit:4;" d="M 363.500293 134.00009 L 369.499927 144.000513 L 363.500293 148.500496 L 363.500293 170.500187 L 368.000277 173.000293 L 375.999788 175.000171 L 388.00009 187.499666 L 404.000146 187.499666 " transform="matrix(3.779528,0,0,3.779528,0,0)"/>
<path style="fill:none;stroke-width:2;stroke-linecap:butt;stroke-linejoin:miter;stroke:rgb(0%,0%,0%);stroke-opacity:1;stroke-miterlimit:4;" d="M 406.500252 200.500423 L 424.500187 184.500366 L 407.999902 168.500309 L 405.499797 152.500252 L 401.500041 136.500195 L 382.000456 141.999601 L 366.000399 156.500008 " transform="matrix(3.779528,0,0,3.779528,0,0)"/>
<path style="fill:none;stroke-width:2;stroke-linecap:butt;stroke-linejoin:miter;stroke:rgb(0%,0%,0%);stroke-opacity:1;stroke-miterlimit:4;" d="M 341.999797 168.000081 L 342.500024 151.499797 L 347.000008 139.999723 L 347.500236 135.999967 L 331.500179 130.000334 L 315.500122 128.000456 " transform="matrix(3.779528,0,0,3.779528,0,0)"/>
<path style="fill:none;stroke-width:2;stroke-linecap:butt;stroke-linejoin:miter;stroke:rgb(0%,0%,0%);stroke-opacity:1;stroke-miterlimit:4;" d="M 318.99965 139.999723 L 334.999707 137.999845 " transform="matrix(3.779528,0,0,3.779528,0,0)"/>
<path style="fill:none;stroke-width:2;stroke-linecap:butt;stroke-linejoin:miter;stroke:rgb(0%,0%,0%);stroke-opacity:1;stroke-miterlimit:4;" d="M 336.999585 143.500285 L 320.999528 144.000513 " transform="matrix(3.779528,0,0,3.779528,0,0)"/>
<path style="fill:none;stroke-width:2;stroke-linecap:butt;stroke-linejoin:miter;stroke:rgb(0%,0%,0%);stroke-opacity:1;stroke-miterlimit:4;" d="M 318.99965 161.50022 L 318.99965 153.999902 L 291.000326 148.000269 L 275.000269 144.499707 " transform="matrix(3.779528,0,0,3.779528,0,0)"/>
<path style="fill:none;stroke-width:2;stroke-linecap:butt;stroke-linejoin:miter;stroke:rgb(0%,0%,0%);stroke-opacity:1;stroke-miterlimit:4;" d="M 273.999813 139.999723 L 289.99987 139.999723 L 307.499577 134.00009 L 305.000505 149.499919 L 306.500155 165.499976 L 302.500399 178.000505 L 314.000472 179.500155 L 329.999495 177.500277 " transform="matrix(3.779528,0,0,3.779528,0,0)"/>
<path style="fill:none;stroke-width:2;stroke-linecap:butt;stroke-linejoin:miter;stroke:rgb(0%,0%,0%);stroke-opacity:1;stroke-miterlimit:4;" d="M 354.000098 185.499788 L 354.000098 179.500155 L 386.000212 184.999561 " transform="matrix(3.779528,0,0,3.779528,0,0)"/>
<path style="fill:none;stroke-width:2;stroke-linecap:butt;stroke-linejoin:miter;stroke:rgb(0%,0%,0%);stroke-opacity:1;stroke-miterlimit:4;" d="M 416.000448 173.999715 L 391.499618 181.500033 L 375.499561 171.499609 L 367.500049 151.499797 L 379.50035 134.999512 L 373.499683 127 L 357.499626 127 " transform="matrix(3.779528,0,0,3.779528,0,0)"/>
<path style="fill:none;stroke-width:2;stroke-linecap:butt;stroke-linejoin:miter;stroke:rgb(0%,0%,0%);stroke-opacity:1;stroke-miterlimit:4;" d="M 355.999976 128.49965 L 351.499992 144.000513 L 349.500114 159.500342 L 347.500236 173.499487 L 341.999797 175.999593 " transform="matrix(3.779528,0,0,3.779528,0,0)"/>
<path style="fill:none;stroke-width:2;stroke-linecap:butt;stroke-linejoin:miter;stroke:rgb(0%,0%,0%);stroke-opacity:1;stroke-miterlimit:4;" d="M 277.999569 171.999837 L 294.499854 171.999837 L 298.499609 155.99978 L 300.499487 139.999723 L 300.499487 128.000456 L 284.999658 129.500106 L 268.999601 129.500106 " transform="matrix(3.779528,0,0,3.779528,0,0)"/>
<path style="fill:none;stroke-width:2;stroke-linecap:butt;stroke-linejoin:miter;stroke:rgb(0%,0%,0%);stroke-opacity:1;stroke-miterlimit:4;" d="M 259.000212 164.49952 L 252.999544 148.000269 L 252.999544 131.499984 L 246.99991 129.500106 L 230.999854 130.000334 " transform="matrix(3.779528,0,0,3.779528,0,0)"/>
<path style="fill:none;stroke-width:2;stroke-linecap:butt;stroke-linejoin:miter;stroke:rgb(0%,0%,0%);stroke-opacity:1;stroke-miterlimit:4;" d="M 215.500024 148.999691 L 205.999829 148.999691 L 189.999772 144.499707 " transform="matrix(3.779528,0,0,3.779528,0,0)"/>
<path style="fill:none;stroke-width:2;stroke-linecap:butt;stroke-linejoin:miter;stroke:rgb(0%,0%,0%);stroke-opacity:1;stroke-miterlimit:4;" d="M 186.500244 140.499951 L 202.999495 140.499951 L 221.000464 134.500317 L 221.000464 150.500374 L 219.49978 166.000203 L 217.499902 181.500033 L 199.499967 182.999683 L 219.49978 182.999683 L 235.499837 178.999927 L 251.499894 172.500065 L 277.999569 156.500008 " transform="matrix(3.779528,0,0,3.779528,0,0)"/>
<path style="fill:none;stroke-width:2;stroke-linecap:butt;stroke-linejoin:miter;stroke:rgb(0%,0%,0%);stroke-opacity:1;stroke-miterlimit:4;" d="M 266.999723 183.49991 L 282.499552 186.000016 " transform="matrix(3.779528,0,0,3.779528,0,0)"/>
<path style="fill:none;stroke-width:2;stroke-linecap:butt;stroke-linejoin:miter;stroke:rgb(0%,0%,0%);stroke-opacity:1;stroke-miterlimit:4;" d="M 225.00022 186.500244 L 241.000277 186.500244 L 257.000334 178.499699 L 264.999845 196.000439 L 275.000269 202.000073 L 291.000326 199.499967 L 307.000382 200.000195 L 323.000439 200.000195 L 339.000496 200.500423 L 386.999634 200.500423 L 402.999691 202.500301 L 418.49952 193.999528 " transform="matrix(3.779528,0,0,3.779528,0,0)"/>
<path style="fill:none;stroke-width:2;stroke-linecap:butt;stroke-linejoin:miter;stroke:rgb(0%,0%,0%);stroke-opacity:1;stroke-miterlimit:4;" d="M 459.999829 139.000301 L 450.499634 123.000244 L 440.500244 106.499959 L 430.499821 98.00022 L 404.000146 82.000163 L 384.000334 81.499935 L 368.000277 77.500179 L 368.500505 64.99965 " transform="matrix(3.779528,0,0,3.779528,0,0)"/>
<path style="fill:none;stroke-width:2;stroke-linecap:butt;stroke-linejoin:miter;stroke:rgb(0%,0%,0%);stroke-opacity:1;stroke-miterlimit:4;" d="M 357.499626 49.499821 L 373.499683 61.500122 L 389.49974 71.499512 L 405.499797 82.000163 L 420.999626 92.49978 L 436.999683 102.500203 L 452.99974 116.999577 L 469.500024 143.000057 " transform="matrix(3.779528,0,0,3.779528,0,0)"/>
<path style="fill:none;stroke-width:2;stroke-linecap:butt;stroke-linejoin:miter;stroke:rgb(0%,0%,0%);stroke-opacity:1;stroke-miterlimit:4;" d="M 452.000317 123.999666 L 436.00026 115.499927 L 425.999837 107.000187 L 411.999658 98.999642 L 402.000269 91.00013 L 392.500073 87.499569 L 363.000065 75.500301 L 347.000008 59.500244 L 330.999951 61.500122 " transform="matrix(3.779528,0,0,3.779528,0,0)"/>
<path style="fill:none;stroke-width:2;stroke-linecap:butt;stroke-linejoin:miter;stroke:rgb(0%,0%,0%);stroke-opacity:1;stroke-miterlimit:4;" d="M 349.500114 1.000456 L 349.500114 17.000513 L 353.49987 32.999536 L 357.499626 49.499821 L 368.000277 66.000106 L 386.000212 72.499967 L 406.000024 88.500024 L 418.000326 104.500081 L 438.000138 120.500138 L 438.500366 134.500317 L 454.999618 150.500374 L 466.999919 166.500431 " transform="matrix(3.779528,0,0,3.779528,0,0)"/>
<path style="fill:none;stroke-width:2;stroke-linecap:butt;stroke-linejoin:miter;stroke:rgb(0%,0%,0%);stroke-opacity:1;stroke-miterlimit:4;" d="M 392.500073 127.500228 L 376.500016 113.500049 L 360.499959 111.500171 L 296.999959 111.500171 L 280.999902 112.000399 L 269.499829 105.999731 L 251.499894 112.000399 L 235.499837 112.000399 L 218.999552 112.499593 L 202.999495 112.499593 L 187.499666 112.999821 L 139.499495 112.999821 L 123.999666 127 L 107.999609 137.000423 " transform="matrix(3.779528,0,0,3.779528,0,0)"/>
<path style="fill:none;stroke-width:2;stroke-linecap:butt;stroke-linejoin:miter;stroke:rgb(0%,0%,0%);stroke-opacity:1;stroke-miterlimit:4;" d="M 106.499959 156.500008 L 122.500016 178.499699 " transform="matrix(3.779528,0,0,3.779528,0,0)"/>
<path style="fill:none;stroke-width:2;stroke-linecap:butt;stroke-linejoin:miter;stroke:rgb(0%,0%,0%);stroke-opacity:1;stroke-miterlimit:4;" d="M 134.500317 161.50022 L 150.500374 165.499976 " transform="matrix(3.779528,0,0,3.779528,0,0)"/>
<path style="fill:none;stroke-width:2;stroke-linecap:butt;stroke-linejoin:miter;stroke:rgb(0%,0%,0%);stroke-opacity:1;stroke-miterlimit:4;" d="M 158.499886 155.499552 L 142.499829 144.999935 " transform="matrix(3.779528,0,0,3.779528,0,0)"/>
<path style="fill:none;stroke-width:2;stroke-linecap:butt;stroke-linejoin:miter;stroke:rgb(0%,0%,0%);stroke-opacity:1;stroke-miterlimit:4;" d="M 139.499495 141.500407 L 153.499674 157.500464 " transform="matrix(3.779528,0,0,3.779528,0,0)"/>
<path style="fill:none;stroke-width:2;stroke-linecap:butt;stroke-linejoin:miter;stroke:rgb(0%,0%,0%);stroke-opacity:1;stroke-miterlimit:4;" d="M 135.49974 147.500041 L 141.500407 161.50022 L 141.999601 177.500277 " transform="matrix(3.779528,0,0,3.779528,0,0)"/>
<path style="fill:none;stroke-width:2;stroke-linecap:butt;stroke-linejoin:miter;stroke:rgb(0%,0%,0%);stroke-opacity:1;stroke-miterlimit:4;" d="M 132.999634 139.999723 L 148.999691 123.500472 L 133.499862 141.500407 L 137.999845 157.500464 L 136.500195 173.499487 L 146.499585 180.000382 L 162.99987 175.999593 L 175.000171 155.99978 L 196.499634 155.99978 L 196.499634 168.000081 " transform="matrix(3.779528,0,0,3.779528,0,0)"/>
<path style="fill:none;stroke-width:2;stroke-linecap:butt;stroke-linejoin:miter;stroke:rgb(0%,0%,0%);stroke-opacity:1;stroke-miterlimit:4;" d="M 207.500513 173.499487 L 191.99965 179.500155 L 176.499821 184.000138 L 170.500187 175.999593 L 176.499821 168.000081 L 176.499821 152.000024 L 178.499699 135.999967 L 186.500244 123.500472 L 170.500187 125.50035 L 153.999902 127.500228 " transform="matrix(3.779528,0,0,3.779528,0,0)"/>
<path style="fill:none;stroke-width:2;stroke-linecap:butt;stroke-linejoin:miter;stroke:rgb(0%,0%,0%);stroke-opacity:1;stroke-miterlimit:4;" d="M 154.50013 134.500317 L 159.000114 142.499829 L 166.999626 139.000301 " transform="matrix(3.779528,0,0,3.779528,0,0)"/>
<path style="fill:none;stroke-width:2;stroke-linecap:butt;stroke-linejoin:miter;stroke:rgb(0%,0%,0%);stroke-opacity:1;stroke-miterlimit:4;" d="M 183.49991 129.500106 L 199.499967 125.50035 L 205.999829 129.500106 L 220.000008 125.50035 L 252.000122 125.50035 L 271.999935 123.500472 L 304.000049 123.500472 L 317.5 123.999666 L 333.500057 123.999666 L 349.500114 128.000456 L 365.500171 123.999666 " transform="matrix(3.779528,0,0,3.779528,0,0)"/>
<path style="fill:none;stroke-width:2;stroke-linecap:butt;stroke-linejoin:miter;stroke:rgb(0%,0%,0%);stroke-opacity:1;stroke-miterlimit:4;" d="M 375.999788 113.500049 L 393.999723 129.500106 L 398.000513 144.000513 L 388.00009 159.999536 L 406.000024 175.500399 " transform="matrix(3.779528,0,0,3.779528,0,0)"/>
<path style="fill:none;stroke-width:2;stroke-linecap:butt;stroke-linejoin:miter;stroke:rgb(0%,0%,0%);stroke-opacity:1;stroke-miterlimit:4;" d="M 341.000374 178.499699 L 324.50009 186.500244 L 308.500033 186.000016 L 300.499487 165.499976 L 284.500464 178.999927 L 268.000179 179.500155 L 246.000488 200.000195 L 230.000431 200.000195 L 214.000374 200.500423 L 198.000317 200.500423 L 182.00026 200.000195 L 166.000203 200.000195 L 150.000146 199.499967 L 134.00009 199.499967 L 125.999544 191.99965 L 117.499805 175.500399 L 105.499504 159.500342 L 105.499504 143.500285 L 121.999788 127.500228 L 137.999845 111.500171 " transform="matrix(3.779528,0,0,3.779528,0,0)"/>
<path style="fill:none;stroke-width:2;stroke-linecap:butt;stroke-linejoin:miter;stroke:rgb(0%,0%,0%);stroke-opacity:1;stroke-miterlimit:4;" d="M 139.499495 137.000423 L 155.499552 121.000366 L 149.499919 133.499862 L 165.499976 149.499919 L 171.499609 166.000203 L 145.500163 184.000138 L 163.500098 182.00026 L 179.500155 185.499788 L 195.500212 185.499788 " transform="matrix(3.779528,0,0,3.779528,0,0)"/>
<path style="fill:none;stroke-width:2;stroke-linecap:butt;stroke-linejoin:miter;stroke:rgb(0%,0%,0%);stroke-opacity:1;stroke-miterlimit:4;" d="M 202.500301 178.499699 L 216.50048 162.499642 L 198.499512 146.999813 " transform="matrix(3.779528,0,0,3.779528,0,0)"/>
<path style="fill:none;stroke-width:2;stroke-linecap:butt;stroke-linejoin:miter;stroke:rgb(0%,0%,0%);stroke-opacity:1;stroke-miterlimit:4;" d="M 258.499984 186.000016 L 259.999634 175.500399 L 264.000423 159.500342 L 263.500195 143.500285 L 265.500073 127.500228 L 266.999723 111.500171 L 263.500195 101.999976 L 262.999967 85.999919 " transform="matrix(3.779528,0,0,3.779528,0,0)"/>
<path style="fill:none;stroke-width:2;stroke-linecap:butt;stroke-linejoin:miter;stroke:rgb(0%,0%,0%);stroke-opacity:1;stroke-miterlimit:4;" d="M 284.000236 5.500439 L 268.000179 10.000423 L 261.999512 10.000423 L 246.000488 12.499495 L 230.000431 8.49974 " transform="matrix(3.779528,0,0,3.779528,0,0)"/>
<path style="fill:none;stroke-width:2;stroke-linecap:butt;stroke-linejoin:miter;stroke:rgb(0%,0%,0%);stroke-opacity:1;stroke-miterlimit:4;" d="M 248.499561 4.499984 L 232.499504 4.499984 L 227.000098 14.500407 L 211.000041 10.499618 " transform="matrix(3.779528,0,0,3.779528,0,0)"/>
<path style="fill:none;stroke-width:2;stroke-linecap:butt;stroke-linejoin:miter;stroke:rgb(0%,0%,0%);stroke-opacity:1;stroke-miterlimit:4;" d="M 164.999748 1.49965 L 162.99987 17.499707 L 159.500342 37.49952 L 157.500464 55.500488 L 141.999601 71.000317 L 109.999487 87.499569 L 87.999797 103.499626 L 69.999862 119.99991 L 57.999561 135.999967 L 50.000049 152.500252 L 44.000415 168.500309 L 39.999626 184.999561 L 31.499886 193.000106 " transform="matrix(3.779528,0,0,3.779528,0,0)"/>
<path style="fill:none;stroke-width:2;stroke-linecap:butt;stroke-linejoin:miter;stroke:rgb(0%,0%,0%);stroke-opacity:1;stroke-miterlimit:4;" d="M 36.500098 174.499943 L 52.500155 138.500073 L 66.500334 126.499772 L 82.500391 110.499715 L 98.500448 100.500326 L 114.500505 86.500146 L 132.999634 80.500513 L 148.500496 66.000106 " transform="matrix(3.779528,0,0,3.779528,0,0)"/>
<path style="fill:none;stroke-width:2;stroke-linecap:butt;stroke-linejoin:miter;stroke:rgb(0%,0%,0%);stroke-opacity:1;stroke-miterlimit:4;" d="M 151.499797 42.499731 L 135.49974 62.00035 L 119.499683 72.499967 L 103.499626 80.999707 L 87.999797 91.500358 L 71.99974 103.999854 L 55.999683 120.500138 L 39.999626 148.500496 L 34.50022 184.000138 L 40.499854 166.000203 L 46.499487 148.500496 L 44.999837 166.500431 " transform="matrix(3.779528,0,0,3.779528,0,0)"/>
<path style="fill:none;stroke-width:2;stroke-linecap:butt;stroke-linejoin:miter;stroke:rgb(0%,0%,0%);stroke-opacity:1;stroke-miterlimit:4;" d="M 10.000423 361.999609 L 26.00048 395.999601 L 41.999504 422.000081 L 57.999561 430.499821 L 73.999618 444.5 L 89.999674 454.500423 L 105.499504 468.499569 L 121.000366 478.499992 L 137.000423 490.500293 " transform="matrix(3.779528,0,0,3.779528,0,0)"/>
<path style="fill:none;stroke-width:2;stroke-linecap:butt;stroke-linejoin:miter;stroke:rgb(0%,0%,0%);stroke-opacity:1;stroke-miterlimit:4;" d="M 80.500513 456.000073 L 64.500456 452.000317 L 48.999593 440.500244 L 32.999536 418.49952 L 17.499707 392.500073 L 1.49965 368.500505 " transform="matrix(3.779528,0,0,3.779528,0,0)"/>
<path style="fill:none;stroke-width:2;stroke-linecap:butt;stroke-linejoin:miter;stroke:rgb(0%,0%,0%);stroke-opacity:1;stroke-miterlimit:4;" d="M 10.999845 366.499593 L 19.000391 382.49965 L 37.000326 400.000391 L 39.000203 416.000448 L 60.499666 441.999894 L 78.499601 459.499601 L 92.49978 461.500513 L 98.500448 472.00013 L 114.500505 481.99952 L 130.999756 491.999943 " transform="matrix(3.779528,0,0,3.779528,0,0)"/>
<path style="fill:none;stroke-width:2;stroke-linecap:butt;stroke-linejoin:miter;stroke:rgb(0%,0%,0%);stroke-opacity:1;stroke-miterlimit:4;" d="M 110.999943 479.999642 L 100.99952 464.499813 L 76.999951 448.499756 L 60.499666 432.499699 " transform="matrix(3.779528,0,0,3.779528,0,0)"/>
<path style="fill:none;stroke-width:2;stroke-linecap:butt;stroke-linejoin:miter;stroke:rgb(0%,0%,0%);stroke-opacity:1;stroke-miterlimit:4;" d="M 51.999927 423.499731 L 37.999748 401.500041 L 22.499919 373.499683 " transform="matrix(3.779528,0,0,3.779528,0,0)"/>
<path style="fill:none;stroke-width:2;stroke-linecap:butt;stroke-linejoin:miter;stroke:rgb(0%,0%,0%);stroke-opacity:1;stroke-miterlimit:4;" d="M 21.500496 372.50026 L 29.500008 388.500317 L 37.49952 406.500252 L 49.499821 422.500309 L 55.500488 438.500366 L 77.500179 454.000195 " transform="matrix(3.779528,0,0,3.779528,0,0)"/>
</g>
</svg>
