<?xml version="1.0" encoding="UTF-8"?>
<svg xmlns="http://www.w3.org/2000/svg" xmlns:xlink="http://www.w3.org/1999/xlink" width="1935.11811" height="1935.11811" viewBox="0 0 1935.11811 1935.11811" version="1.1">
<g id="surface1">
<path style="fill:none;stroke-width:2;stroke-linecap:butt;stroke-linejoin:miter;stroke:rgb(0%,0%,0%);stroke-opacity:1;stroke-miterlimit:4;" d="M 97.499992 60.499666 L 91.500358 76.499723 L 91.500358 125.000122 L 93.500236 141.000179 L 93.500236 173.000293 L 93.000008 189.00035 L 93.000008 204.500179 L 92.49978 220.500236 L 93.000008 236.500293 L 93.000008 252.50035 L 107.000187 254.500228 L 123.500472 254 L 139.499495 255.49965 L 155.499552 255.000456 L 187.499666 255.000456 L 203.499723 254.500228 L 252.50035 254.500228 L 270.500285 252.999544 L 286.500342 255.000456 L 318.500456 255.000456 L 334.500513 255.49965 L 350.499536 253.499772 L 390.500195 253.499772 " transform="matrix(3.779528,0,0,3.779528,0,0)"/>
<path style="fill:none;stroke-width:2;stroke-linecap:butt;stroke-linejoin:miter;stroke:rgb(0%,0%,0%);stroke-opacity:1;stroke-miterlimit:4;" d="M 372.000033 255.000456 L 373.99991 271.499707 L 372.000033 287.499764 " transform="matrix(3.779528,0,0,3.779528,0,0)"/>
<path style="fill:none;stroke-width:2;stroke-linecap:butt;stroke-linejoin:miter;stroke:rgb(0%,0%,0%);stroke-opacity:1;stroke-miterlimit:4;" d="M 363.500293 300.499487 L 347.500236 298.000415 L 331.500179 298.000415 " transform="matrix(3.779528,0,0,3.779528,0,0)"/>
<path style="fill:none;stroke-width:2;stroke-linecap:butt;stroke-linejoin:miter;stroke:rgb(0%,0%,0%);stroke-opacity:1;stroke-miterlimit:4;" d="M 334.000285 301.499943 L 350.000342 303.499821 L 366.000399 305.999927 " transform="matrix(3.779528,0,0,3.779528,0,0)"/>
<path style="fill:none;stroke-width:2;stroke-linecap:butt;stroke-linejoin:miter;stroke:rgb(0%,0%,0%);stroke-opacity:1;stroke-miterlimit:4;" d="M 376.500016 307.000382 L 372.50026 305.000505 L 384.499528 293.000203 L 384.000334 277.000146 L 384.000334 261.00009 L 402.000269 243.000155 L 402.000269 211.000041 L 402.500496 194.499756 L 402.500496 178.499699 L 402.999691 162.499642 L 402.999691 98.500448 L 402.500496 82.500391 L 406.500252 66.500334 L 396.499829 60.499666 L 380.499772 60.499666 L 364.499715 62.499544 L 316.499544 62.499544 L 300.499487 62.00035 L 284.500464 61.500122 L 268.500407 60.999894 L 252.000122 60.499666 L 236.500293 60.499666 L 220.500236 60.999894 L 123.500472 60.999894 L 107.500415 61.500122 L 91.999552 65.499878 " transform="matrix(3.779528,0,0,3.779528,0,0)"/>
<path style="fill:none;stroke-width:2;stroke-linecap:butt;stroke-linejoin:miter;stroke:rgb(0%,0%,0%);stroke-opacity:1;stroke-miterlimit:4;" d="M 96.999764 65.499878 L 96.999764 81.499935 L 97.499992 97.499992 L 97.499992 113.500049 L 98.00022 128.999878 L 98.00022 226.49987 L 100.000098 243.000155 L 105.499504 248.999788 L 121.499561 250.500472 L 137.499618 250.500472 L 153.499674 250.000244 L 169.999959 250.000244 L 185.499788 248.000366 L 202.000073 237.999943 L 218.00013 230.000431 L 234.000187 221.999886 L 250.000244 214.499569 L 266.000301 205.999829 " transform="matrix(3.779528,0,0,3.779528,0,0)"/>
<path style="fill:none;stroke-width:2;stroke-linecap:butt;stroke-linejoin:miter;stroke:rgb(0%,0%,0%);stroke-opacity:1;stroke-miterlimit:4;" d="M 271.000513 207.999707 L 241.500505 223.999764 L 207.000285 239.499593 L 211.500269 239.499593 L 227.500326 229.500203 L 243.999577 223.499536 L 259.999634 215.500024 " transform="matrix(3.779528,0,0,3.779528,0,0)"/>
<path style="fill:none;stroke-width:2;stroke-linecap:butt;stroke-linejoin:miter;stroke:rgb(0%,0%,0%);stroke-opacity:1;stroke-miterlimit:4;" d="M 275.500496 198.99974 L 211.500269 230.999854 L 193.500334 249.500016 L 209.999585 250.000244 L 225.999642 250.500472 L 370.500382 250.500472 L 386.500439 248.499561 " transform="matrix(3.779528,0,0,3.779528,0,0)"/>
<path style="fill:none;stroke-width:2;stroke-linecap:butt;stroke-linejoin:miter;stroke:rgb(0%,0%,0%);stroke-opacity:1;stroke-miterlimit:4;" d="M 404.500374 241.000277 L 404.500374 225.00022 L 404.999569 209.000163 L 404.999569 193.000106 L 405.499797 177.000049 L 406.000024 161.50022 L 406.000024 128.999878 L 406.500252 113.500049 L 407.00048 97.499992 L 407.00048 81.499935 L 402.999691 65.499878 L 226.49987 65.499878 L 210.499813 66.000106 L 193.999528 66.500334 L 178.000505 66.999528 L 129.500106 66.999528 L 113.500049 66.500334 L 97.499992 66.999528 " transform="matrix(3.779528,0,0,3.779528,0,0)"/>
<path style="fill:none;stroke-width:2;stroke-linecap:butt;stroke-linejoin:miter;stroke:rgb(0%,0%,0%);stroke-opacity:1;stroke-miterlimit:4;" d="M 132.000212 255.49965 L 134.00009 271.499707 L 133.499862 287.499764 L 127.500228 305.499699 L 103.499626 321.499756 L 91.999552 338.000041 L 85.999919 353.49987 L 84.000041 369.499927 L 85.999919 386.000212 L 91.999552 402.000269 L 103.999854 410.500008 L 109.999487 426.500065 L 96.000342 441.999894 L 62.00035 468.000374 L 78.000407 455.499845 L 94.499658 447.000106 L 110.499715 451.50009 L 126.499772 454.000195 L 142.499829 454.500423 L 159.000114 448.499756 L 175.000171 456.999495 L 191.000228 456.999495 L 207.000285 459.000407 L 214.499569 456.500301 L 230.000431 443.999772 L 246.000488 441.999894 L 261.999512 443.499544 L 271.999935 416.000448 L 287.999992 389.999967 " transform="matrix(3.779528,0,0,3.779528,0,0)"/>
<path style="fill:none;stroke-width:2;stroke-linecap:butt;stroke-linejoin:miter;stroke:rgb(0%,0%,0%);stroke-opacity:1;stroke-miterlimit:4;" d="M 289.000448 390.500195 L 279.000024 406.500252 L 271.000513 422.500309 L 264.999845 438.000138 L 282.99978 457.999951 L 311.000138 473.49978 L 316.999772 490.000065 L 314.999894 506.000122 " transform="matrix(3.779528,0,0,3.779528,0,0)"/>
<path style="fill:none;stroke-width:2;stroke-linecap:butt;stroke-linejoin:miter;stroke:rgb(0%,0%,0%);stroke-opacity:1;stroke-miterlimit:4;" d="M 350.000342 500.000488 L 352.00022 483.500203 L 357.499626 467.500146 L 345.500358 459.499601 L 312.499788 459.499601 L 296.499731 457.499723 " transform="matrix(3.779528,0,0,3.779528,0,0)"/>
<path style="fill:none;stroke-width:2;stroke-linecap:butt;stroke-linejoin:miter;stroke:rgb(0%,0%,0%);stroke-opacity:1;stroke-miterlimit:4;" d="M 304.500277 466.999919 L 288.50022 459.499601 L 272.500163 448.999984 " transform="matrix(3.779528,0,0,3.779528,0,0)"/>
<path style="fill:none;stroke-width:2;stroke-linecap:butt;stroke-linejoin:miter;stroke:rgb(0%,0%,0%);stroke-opacity:1;stroke-miterlimit:4;" d="M 254.500228 451.50009 L 238.500171 451.50009 " transform="matrix(3.779528,0,0,3.779528,0,0)"/>
<path style="fill:none;stroke-width:2;stroke-linecap:butt;stroke-linejoin:miter;stroke:rgb(0%,0%,0%);stroke-opacity:1;stroke-miterlimit:4;" d="M 216.000252 469.500024 L 207.999707 497.500382 " transform="matrix(3.779528,0,0,3.779528,0,0)"/>
<path style="fill:none;stroke-width:2;stroke-linecap:butt;stroke-linejoin:miter;stroke:rgb(0%,0%,0%);stroke-opacity:1;stroke-miterlimit:4;" d="M 221.499658 508 L 225.500448 500.000488 " transform="matrix(3.779528,0,0,3.779528,0,0)"/>
<path style="fill:none;stroke-width:2;stroke-linecap:butt;stroke-linejoin:miter;stroke:rgb(0%,0%,0%);stroke-opacity:1;stroke-miterlimit:4;" d="M 202.500301 502.999788 L 177.000049 508.500228 L 159.000114 492.500171 " transform="matrix(3.779528,0,0,3.779528,0,0)"/>
<path style="fill:none;stroke-width:2;stroke-linecap:butt;stroke-linejoin:miter;stroke:rgb(0%,0%,0%);stroke-opacity:1;stroke-miterlimit:4;" d="M 159.000114 489.499837 L 187.000472 487.499959 " transform="matrix(3.779528,0,0,3.779528,0,0)"/>
<path style="fill:none;stroke-width:2;stroke-linecap:butt;stroke-linejoin:miter;stroke:rgb(0%,0%,0%);stroke-opacity:1;stroke-miterlimit:4;" d="M 193.500334 465.500269 L 219.49978 447.500334 L 221.999886 431.500277 L 210.499813 423.499731 L 200.500423 407.00048 L 198.99974 390.500195 L 205.000407 374.500138 L 205.499601 358.500081 L 213.500146 342.500024 L 229.500203 326.499967 L 249.500016 320.500334 L 233.499959 330.999951 " transform="matrix(3.779528,0,0,3.779528,0,0)"/>
<path style="fill:none;stroke-width:2;stroke-linecap:butt;stroke-linejoin:miter;stroke:rgb(0%,0%,0%);stroke-opacity:1;stroke-miterlimit:4;" d="M 221.499658 339.000496 L 209.500391 354.99952 L 211.500269 371.499805 L 211.500269 387.499862 L 219.49978 404.000146 L 229.500203 425.999837 L 223.499536 441.999894 L 233.499959 449.500212 L 249.500016 445.500456 L 265.500073 447.999528 L 281.50013 452.000317 L 297.500187 454.000195 L 329.999495 454.000195 L 345.999552 454.500423 L 361.999609 428.499943 L 377.999666 418.49952 L 394.499951 422.000081 L 410.500008 423.999959 L 426.500065 417.500098 L 441.999894 406.000024 L 457.999951 413.999536 L 474.000008 416.000448 L 490.500293 416.000448 L 506.50035 436.500488 " transform="matrix(3.779528,0,0,3.779528,0,0)"/>
<path style="fill:none;stroke-width:2;stroke-linecap:butt;stroke-linejoin:miter;stroke:rgb(0%,0%,0%);stroke-opacity:1;stroke-miterlimit:4;" d="M 500.499683 439.499788 L 492.500171 425.499609 L 490.000065 416.99987 L 506.000122 388.999512 L 504.000244 375.000366 L 504.000244 363.000065 L 495.999699 332.999829 L 484.000431 334.999707 L 479.999642 357.499626 L 475.499658 341.499569 L 477.499536 336.000163 L 491.499715 320.000106 L 507.499772 317.5 L 485.500081 325.499512 L 468.999797 339.499691 " transform="matrix(3.779528,0,0,3.779528,0,0)"/>
<path style="fill:none;stroke-width:2;stroke-linecap:butt;stroke-linejoin:miter;stroke:rgb(0%,0%,0%);stroke-opacity:1;stroke-miterlimit:4;" d="M 459.499601 330.499723 L 475.499658 318.000228 L 491.499715 302.000171 L 457.499723 290.500098 L 443.499544 306.500155 L 425.499609 306.500155 L 421.499854 321.999984 L 421.499854 339.999919 L 417.500098 355.999976 L 429.500399 361.999609 L 441.499666 384.000334 L 457.499723 400.000391 " transform="matrix(3.779528,0,0,3.779528,0,0)"/>
<path style="fill:none;stroke-width:2;stroke-linecap:butt;stroke-linejoin:miter;stroke:rgb(0%,0%,0%);stroke-opacity:1;stroke-miterlimit:4;" d="M 441.000472 405.499797 L 420.999626 421.499854 L 448.499756 416.000448 L 464.499813 420.000203 L 480.49987 422.000081 L 482.499748 438.000138 L 497.999577 443.999772 " transform="matrix(3.779528,0,0,3.779528,0,0)"/>
<path style="fill:none;stroke-width:2;stroke-linecap:butt;stroke-linejoin:miter;stroke:rgb(0%,0%,0%);stroke-opacity:1;stroke-miterlimit:4;" d="M 495.500505 436.999683 L 479.500448 433.500155 L 463.500391 431.500277 " transform="matrix(3.779528,0,0,3.779528,0,0)"/>
<path style="fill:none;stroke-width:2;stroke-linecap:butt;stroke-linejoin:miter;stroke:rgb(0%,0%,0%);stroke-opacity:1;stroke-miterlimit:4;" d="M 462.499935 424.500187 L 477.999764 427.999715 " transform="matrix(3.779528,0,0,3.779528,0,0)"/>
<path style="fill:none;stroke-width:2;stroke-linecap:butt;stroke-linejoin:miter;stroke:rgb(0%,0%,0%);stroke-opacity:1;stroke-miterlimit:4;" d="M 498.499805 450.000439 L 482.999976 442.500122 L 466.999919 436.500488 L 450.999862 432.499699 L 435.500033 428.499943 " transform="matrix(3.779528,0,0,3.779528,0,0)"/>
<path style="fill:none;stroke-width:2;stroke-linecap:butt;stroke-linejoin:miter;stroke:rgb(0%,0%,0%);stroke-opacity:1;stroke-miterlimit:4;" d="M 427.499487 461.999707 L 451.50009 478.499992 " transform="matrix(3.779528,0,0,3.779528,0,0)"/>
<path style="fill:none;stroke-width:2;stroke-linecap:butt;stroke-linejoin:miter;stroke:rgb(0%,0%,0%);stroke-opacity:1;stroke-miterlimit:4;" d="M 467.500146 490.999487 L 491.499715 506.999544 " transform="matrix(3.779528,0,0,3.779528,0,0)"/>
<path style="fill:none;stroke-width:2;stroke-linecap:butt;stroke-linejoin:miter;stroke:rgb(0%,0%,0%);stroke-opacity:1;stroke-miterlimit:4;" d="M 484.000431 506.999544 L 467.500146 497.000155 " transform="matrix(3.779528,0,0,3.779528,0,0)"/>
<path style="fill:none;stroke-width:2;stroke-linecap:butt;stroke-linejoin:miter;stroke:rgb(0%,0%,0%);stroke-opacity:1;stroke-miterlimit:4;" d="M 508 477.000342 L 491.999943 482.999976 L 475.499658 482.499748 L 459.499601 482.499748 L 443.00035 475.999886 L 427.000293 468.000374 " transform="matrix(3.779528,0,0,3.779528,0,0)"/>
<path style="fill:none;stroke-width:2;stroke-linecap:butt;stroke-linejoin:miter;stroke:rgb(0%,0%,0%);stroke-opacity:1;stroke-miterlimit:4;" d="M 422.000081 470.999674 L 437.49991 481.500326 L 453.499967 487.499959 L 469.500024 487.499959 L 486.000309 493.999821 L 502.000366 486.000309 L 500.000488 488.000187 " transform="matrix(3.779528,0,0,3.779528,0,0)"/>
<path style="fill:none;stroke-width:2;stroke-linecap:butt;stroke-linejoin:miter;stroke:rgb(0%,0%,0%);stroke-opacity:1;stroke-miterlimit:4;" d="M 504.000244 392.500073 L 488.000187 406.500252 L 472.00013 406.500252 L 456.000073 404.500374 L 440.000016 392.500073 L 429.999593 368.000277 L 426.500065 352.00022 L 422.500309 352.00022 L 416.499642 345.999552 " transform="matrix(3.779528,0,0,3.779528,0,0)"/>
<path style="fill:none;stroke-width:2;stroke-linecap:butt;stroke-linejoin:miter;stroke:rgb(0%,0%,0%);stroke-opacity:1;stroke-miterlimit:4;" d="M 414.499764 357.000431 L 430.499821 382.999878 L 445.99965 391.499618 L 461.999707 400.999813 L 477.999764 400.999813 L 493.999821 394.499951 " transform="matrix(3.779528,0,0,3.779528,0,0)"/>
<path style="fill:none;stroke-width:2;stroke-linecap:butt;stroke-linejoin:miter;stroke:rgb(0%,0%,0%);stroke-opacity:1;stroke-miterlimit:4;" d="M 500.499683 366.000399 L 502.999788 350.000342 L 511.499528 337.499813 L 509.999878 332.000407 " transform="matrix(3.779528,0,0,3.779528,0,0)"/>
<path style="fill:none;stroke-width:2;stroke-linecap:butt;stroke-linejoin:miter;stroke:rgb(0%,0%,0%);stroke-opacity:1;stroke-miterlimit:4;" d="M 500.000488 317.5 L 495.999699 320.999528 L 504.000244 337.499813 L 509.999878 353.49987 L 510.500106 370.000155 " transform="matrix(3.779528,0,0,3.779528,0,0)"/>
<path style="fill:none;stroke-width:2;stroke-linecap:butt;stroke-linejoin:miter;stroke:rgb(0%,0%,0%);stroke-opacity:1;stroke-miterlimit:4;" d="M 493.000399 364.499715 L 492.500171 348.499658 " transform="matrix(3.779528,0,0,3.779528,0,0)"/>
<path style="fill:none;stroke-width:2;stroke-linecap:butt;stroke-linejoin:miter;stroke:rgb(0%,0%,0%);stroke-opacity:1;stroke-miterlimit:4;" d="M 492.500171 329.500301 L 494.500049 345.500358 L 495.500505 361.500415 L 495.999699 377.500472 " transform="matrix(3.779528,0,0,3.779528,0,0)"/>
<path style="fill:none;stroke-width:2;stroke-linecap:butt;stroke-linejoin:miter;stroke:rgb(0%,0%,0%);stroke-opacity:1;stroke-miterlimit:4;" d="M 488.000187 363.999487 L 488.000187 347.500236 L 487.499959 343.50048 L 491.499715 327.500423 " transform="matrix(3.779528,0,0,3.779528,0,0)"/>
<path style="fill:none;stroke-width:2;stroke-linecap:butt;stroke-linejoin:miter;stroke:rgb(0%,0%,0%);stroke-opacity:1;stroke-miterlimit:4;" d="M 484.999854 318.500456 L 468.499569 334.500513 L 460.500057 350.000342 L 464.499813 352.00022 L 468.000374 334.500513 L 484.000431 318.500456 " transform="matrix(3.779528,0,0,3.779528,0,0)"/>
<path style="fill:none;stroke-width:2;stroke-linecap:butt;stroke-linejoin:miter;stroke:rgb(0%,0%,0%);stroke-opacity:1;stroke-miterlimit:4;" d="M 467.500146 314.000472 L 451.50009 323.999862 L 436.00026 311.999561 " transform="matrix(3.779528,0,0,3.779528,0,0)"/>
<path style="fill:none;stroke-width:2;stroke-linecap:butt;stroke-linejoin:miter;stroke:rgb(0%,0%,0%);stroke-opacity:1;stroke-miterlimit:4;" d="M 432.499699 305.000505 L 438.500366 288.50022 L 444.5 290.500098 L 459.999829 280.00048 L 475.499658 275.999691 " transform="matrix(3.779528,0,0,3.779528,0,0)"/>
<path style="fill:none;stroke-width:2;stroke-linecap:butt;stroke-linejoin:miter;stroke:rgb(0%,0%,0%);stroke-opacity:1;stroke-miterlimit:4;" d="M 481.500326 269.499829 L 465.500269 285.499886 L 437.49991 289.499642 L 437.49991 296.999959 L 431.500277 313.000016 L 453.499967 326.499967 L 459.999829 308.500033 L 462.499935 302.000171 L 479.00022 291.999748 L 495.500505 287.999992 L 502.000366 293.999626 L 509.999878 291.999748 " transform="matrix(3.779528,0,0,3.779528,0,0)"/>
<path style="fill:none;stroke-width:2;stroke-linecap:butt;stroke-linejoin:miter;stroke:rgb(0%,0%,0%);stroke-opacity:1;stroke-miterlimit:4;" d="M 498.499805 275.500496 L 482.999976 267.499951 L 467.500146 266.999723 L 451.50009 270.500285 L 436.00026 280.999902 L 420.000203 305.000505 " transform="matrix(3.779528,0,0,3.779528,0,0)"/>
<path style="fill:none;stroke-width:2;stroke-linecap:butt;stroke-linejoin:miter;stroke:rgb(0%,0%,0%);stroke-opacity:1;stroke-miterlimit:4;" d="M 378.499894 288.50022 L 378.499894 273.000391 " transform="matrix(3.779528,0,0,3.779528,0,0)"/>
<path style="fill:none;stroke-width:2;stroke-linecap:butt;stroke-linejoin:miter;stroke:rgb(0%,0%,0%);stroke-opacity:1;stroke-miterlimit:4;" d="M 461.999707 268.500407 L 433.500155 284.000236 L 423.499731 299.500065 L 417.500098 315.500122 L 418.000326 332.000407 L 411.999658 348.000464 L 416.000448 363.999487 L 425.999837 379.999544 L 442.500122 395.999601 L 442.500122 411.500464 L 461.000285 419.499976 L 477.000342 435.500033 L 500.499683 463.999585 L 476.500114 490.000065 L 496.499927 506.000122 " transform="matrix(3.779528,0,0,3.779528,0,0)"/>
<path style="fill:none;stroke-width:2;stroke-linecap:butt;stroke-linejoin:miter;stroke:rgb(0%,0%,0%);stroke-opacity:1;stroke-miterlimit:4;" d="M 468.499569 504.500472 L 452.000317 502.499561 L 436.00026 500.499683 L 420.500431 494.500049 L 404.500374 484.499626 L 388.500317 466.499691 " transform="matrix(3.779528,0,0,3.779528,0,0)"/>
<path style="fill:none;stroke-width:2;stroke-linecap:butt;stroke-linejoin:miter;stroke:rgb(0%,0%,0%);stroke-opacity:1;stroke-miterlimit:4;" d="M 393.499495 459.999829 L 415.50022 475.999886 L 445.500456 492.500171 L 471.499902 494.500049 L 488.000187 502.999788 " transform="matrix(3.779528,0,0,3.779528,0,0)"/>
<path style="fill:none;stroke-width:2;stroke-linecap:butt;stroke-linejoin:miter;stroke:rgb(0%,0%,0%);stroke-opacity:1;stroke-miterlimit:4;" d="M 398.999935 445.500456 L 382.49965 435.500033 " transform="matrix(3.779528,0,0,3.779528,0,0)"/>
<path style="fill:none;stroke-width:2;stroke-linecap:butt;stroke-linejoin:miter;stroke:rgb(0%,0%,0%);stroke-opacity:1;stroke-miterlimit:4;" d="M 380.499772 429.000171 L 379.999544 432.999927 L 400.000391 441.499666 L 402.000269 443.499544 " transform="matrix(3.779528,0,0,3.779528,0,0)"/>
<path style="fill:none;stroke-width:2;stroke-linecap:butt;stroke-linejoin:miter;stroke:rgb(0%,0%,0%);stroke-opacity:1;stroke-miterlimit:4;" d="M 377.000244 445.500456 L 391.000423 461.500513 L 407.00048 477.499536 L 434.499577 493.499593 " transform="matrix(3.779528,0,0,3.779528,0,0)"/>
<path style="fill:none;stroke-width:2;stroke-linecap:butt;stroke-linejoin:miter;stroke:rgb(0%,0%,0%);stroke-opacity:1;stroke-miterlimit:4;" d="M 396.499829 508 L 380.499772 495.999699 " transform="matrix(3.779528,0,0,3.779528,0,0)"/>
<path style="fill:none;stroke-width:2;stroke-linecap:butt;stroke-linejoin:miter;stroke:rgb(0%,0%,0%);stroke-opacity:1;stroke-miterlimit:4;" d="M 404.500374 504.000244 L 388.00009 488.000187 L 372.000033 457.999951 " transform="matrix(3.779528,0,0,3.779528,0,0)"/>
<path style="fill:none;stroke-width:2;stroke-linecap:butt;stroke-linejoin:miter;stroke:rgb(0%,0%,0%);stroke-opacity:1;stroke-miterlimit:4;" d="M 377.999666 458.500179 L 394.499951 484.999854 L 410.500008 501.500138 " transform="matrix(3.779528,0,0,3.779528,0,0)"/>
<path style="fill:none;stroke-width:2;stroke-linecap:butt;stroke-linejoin:miter;stroke:rgb(0%,0%,0%);stroke-opacity:1;stroke-miterlimit:4;" d="M 438.000138 493.999821 L 422.500309 486.000309 L 407.00048 475.999886 L 391.000423 461.500513 L 375.499561 448.999984 " transform="matrix(3.779528,0,0,3.779528,0,0)"/>
<path style="fill:none;stroke-width:2;stroke-linecap:butt;stroke-linejoin:miter;stroke:rgb(0%,0%,0%);stroke-opacity:1;stroke-miterlimit:4;" d="M 377.500472 450.999862 L 387.499862 466.999919 L 399.500163 482.999976 " transform="matrix(3.779528,0,0,3.779528,0,0)"/>
<path style="fill:none;stroke-width:2;stroke-linecap:butt;stroke-linejoin:miter;stroke:rgb(0%,0%,0%);stroke-opacity:1;stroke-miterlimit:4;" d="M 398.499707 500.000488 L 384.499528 484.499626 L 376.500016 468.499569 " transform="matrix(3.779528,0,0,3.779528,0,0)"/>
<path style="fill:none;stroke-width:2;stroke-linecap:butt;stroke-linejoin:miter;stroke:rgb(0%,0%,0%);stroke-opacity:1;stroke-miterlimit:4;" d="M 365.500171 468.000374 L 363.500293 484.000431 L 370.999577 446.499878 L 386.999634 454.500423 L 403.499919 466.499691 L 419.499976 478.499992 L 435.500033 486.499504 " transform="matrix(3.779528,0,0,3.779528,0,0)"/>
<path style="fill:none;stroke-width:2;stroke-linecap:butt;stroke-linejoin:miter;stroke:rgb(0%,0%,0%);stroke-opacity:1;stroke-miterlimit:4;" d="M 498.499805 465.500269 L 482.499748 475.000464 L 466.000496 477.499536 L 450.000439 474.000008 L 434.499577 466.000496 L 418.999748 469.500024 L 402.999691 457.499723 L 387.499862 445.500456 L 370.999577 435.500033 " transform="matrix(3.779528,0,0,3.779528,0,0)"/>
<path style="fill:none;stroke-width:2;stroke-linecap:butt;stroke-linejoin:miter;stroke:rgb(0%,0%,0%);stroke-opacity:1;stroke-miterlimit:4;" d="M 373.000488 434.000382 L 375.000366 450.000439 L 381 465.500269 L 390.500195 481.500326 L 402.500496 497.999577 " transform="matrix(3.779528,0,0,3.779528,0,0)"/>
<path style="fill:none;stroke-width:2;stroke-linecap:butt;stroke-linejoin:miter;stroke:rgb(0%,0%,0%);stroke-opacity:1;stroke-miterlimit:4;" d="M 375.000366 436.00026 L 393.000301 451.50009 L 413.000114 466.999919 L 443.00035 482.999976 L 472.999552 499.000033 " transform="matrix(3.779528,0,0,3.779528,0,0)"/>
<path style="fill:none;stroke-width:2;stroke-linecap:butt;stroke-linejoin:miter;stroke:rgb(0%,0%,0%);stroke-opacity:1;stroke-miterlimit:4;" d="M 500.99991 452.000317 L 463.000163 436.00026 L 447.000106 425.999837 L 431.000049 425.999837 L 414.999992 429.999593 L 398.999935 427.999715 L 382.999878 423.999959 L 366.999821 432.000505 " transform="matrix(3.779528,0,0,3.779528,0,0)"/>
<path style="fill:none;stroke-width:2;stroke-linecap:butt;stroke-linejoin:miter;stroke:rgb(0%,0%,0%);stroke-opacity:1;stroke-miterlimit:4;" d="M 377.000244 424.500187 L 364.999943 440.000016 L 363.000065 456.000073 L 350.999764 471.499902 L 344.499902 487.499959 L 345.999552 503.500016 " transform="matrix(3.779528,0,0,3.779528,0,0)"/>
<path style="fill:none;stroke-width:2;stroke-linecap:butt;stroke-linejoin:miter;stroke:rgb(0%,0%,0%);stroke-opacity:1;stroke-miterlimit:4;" d="M 280.00048 499.000033 L 275.999691 493.000399 " transform="matrix(3.779528,0,0,3.779528,0,0)"/>
<path style="fill:none;stroke-width:2;stroke-linecap:butt;stroke-linejoin:miter;stroke:rgb(0%,0%,0%);stroke-opacity:1;stroke-miterlimit:4;" d="M 270.500285 491.499715 L 286.500342 491.999943 L 302.000171 491.999943 " transform="matrix(3.779528,0,0,3.779528,0,0)"/>
<path style="fill:none;stroke-width:2;stroke-linecap:butt;stroke-linejoin:miter;stroke:rgb(0%,0%,0%);stroke-opacity:1;stroke-miterlimit:4;" d="M 293.500431 500.000488 L 269.499829 484.000431 " transform="matrix(3.779528,0,0,3.779528,0,0)"/>
<path style="fill:none;stroke-width:2;stroke-linecap:butt;stroke-linejoin:miter;stroke:rgb(0%,0%,0%);stroke-opacity:1;stroke-miterlimit:4;" d="M 280.00048 470.999674 L 295.999504 486.999731 L 305.999927 501.500138 " transform="matrix(3.779528,0,0,3.779528,0,0)"/>
<path style="fill:none;stroke-width:2;stroke-linecap:butt;stroke-linejoin:miter;stroke:rgb(0%,0%,0%);stroke-opacity:1;stroke-miterlimit:4;" d="M 309.00026 497.500382 L 300.999715 481.99952 L 283.500008 468.000374 " transform="matrix(3.779528,0,0,3.779528,0,0)"/>
<path style="fill:none;stroke-width:2;stroke-linecap:butt;stroke-linejoin:miter;stroke:rgb(0%,0%,0%);stroke-opacity:1;stroke-miterlimit:4;" d="M 255.49965 420.000203 L 239.999821 425.999837 L 216.50048 422.000081 L 200.500423 403.499919 " transform="matrix(3.779528,0,0,3.779528,0,0)"/>
<path style="fill:none;stroke-width:2;stroke-linecap:butt;stroke-linejoin:miter;stroke:rgb(0%,0%,0%);stroke-opacity:1;stroke-miterlimit:4;" d="M 202.000073 393.499495 L 217.499902 399.500163 L 233.499959 418.000326 " transform="matrix(3.779528,0,0,3.779528,0,0)"/>
<path style="fill:none;stroke-width:2;stroke-linecap:butt;stroke-linejoin:miter;stroke:rgb(0%,0%,0%);stroke-opacity:1;stroke-miterlimit:4;" d="M 240.500049 391.999845 L 242.499927 379.999544 L 256.500106 370.000155 L 264.000423 361.999609 L 248.000366 373.99991 " transform="matrix(3.779528,0,0,3.779528,0,0)"/>
<path style="fill:none;stroke-width:2;stroke-linecap:butt;stroke-linejoin:miter;stroke:rgb(0%,0%,0%);stroke-opacity:1;stroke-miterlimit:4;" d="M 248.999788 385.499984 L 250.500472 369.499927 L 234.500415 361.500415 " transform="matrix(3.779528,0,0,3.779528,0,0)"/>
<path style="fill:none;stroke-width:2;stroke-linecap:butt;stroke-linejoin:miter;stroke:rgb(0%,0%,0%);stroke-opacity:1;stroke-miterlimit:4;" d="M 224.499992 369.499927 L 218.500358 387.499862 L 230.499626 403.499919 " transform="matrix(3.779528,0,0,3.779528,0,0)"/>
<path style="fill:none;stroke-width:2;stroke-linecap:butt;stroke-linejoin:miter;stroke:rgb(0%,0%,0%);stroke-opacity:1;stroke-miterlimit:4;" d="M 230.000431 402.500496 L 214.000374 374.500138 " transform="matrix(3.779528,0,0,3.779528,0,0)"/>
<path style="fill:none;stroke-width:2;stroke-linecap:butt;stroke-linejoin:miter;stroke:rgb(0%,0%,0%);stroke-opacity:1;stroke-miterlimit:4;" d="M 203.499723 357.499626 L 219.49978 331.500179 L 235.499837 319.499878 L 251.499894 313.500244 L 268.000179 317.5 L 284.000236 329.500301 L 300.499487 351.499992 " transform="matrix(3.779528,0,0,3.779528,0,0)"/>
<path style="fill:none;stroke-width:2;stroke-linecap:butt;stroke-linejoin:miter;stroke:rgb(0%,0%,0%);stroke-opacity:1;stroke-miterlimit:4;" d="M 282.499552 356.500203 L 266.999723 342.500024 " transform="matrix(3.779528,0,0,3.779528,0,0)"/>
<path style="fill:none;stroke-width:2;stroke-linecap:butt;stroke-linejoin:miter;stroke:rgb(0%,0%,0%);stroke-opacity:1;stroke-miterlimit:4;" d="M 266.000301 338.000041 L 273.999813 336.500391 L 289.99987 354.500326 " transform="matrix(3.779528,0,0,3.779528,0,0)"/>
<path style="fill:none;stroke-width:2;stroke-linecap:butt;stroke-linejoin:miter;stroke:rgb(0%,0%,0%);stroke-opacity:1;stroke-miterlimit:4;" d="M 290.500098 343.999674 L 273.999813 328.499845 L 257.999756 325.000317 " transform="matrix(3.779528,0,0,3.779528,0,0)"/>
<path style="fill:none;stroke-width:2;stroke-linecap:butt;stroke-linejoin:miter;stroke:rgb(0%,0%,0%);stroke-opacity:1;stroke-miterlimit:4;" d="M 268.000179 320.999528 L 271.999935 336.999585 L 273.499585 339.000496 L 287.499764 352.999642 L 277.500374 373.000488 L 247.500138 391.000423 L 246.99991 406.500252 L 261.00009 424.500187 L 275.500496 395.999601 L 291.49952 379.999544 " transform="matrix(3.779528,0,0,3.779528,0,0)"/>
<path style="fill:none;stroke-width:2;stroke-linecap:butt;stroke-linejoin:miter;stroke:rgb(0%,0%,0%);stroke-opacity:1;stroke-miterlimit:4;" d="M 280.499674 370.000155 L 264.999845 382.49965 L 257.000334 406.500252 L 234.999609 400.499585 L 245.50026 402.500496 L 233.499959 395.999601 L 231.500081 379.999544 L 223.000342 363.999487 L 216.999674 354.000098 L 228.999976 338.000041 L 242.499927 327.999618 L 257.999756 319.499878 L 241.999699 327.000195 L 225.500448 332.999829 L 209.500391 354.99952 " transform="matrix(3.779528,0,0,3.779528,0,0)"/>
<path style="fill:none;stroke-width:2;stroke-linecap:butt;stroke-linejoin:miter;stroke:rgb(0%,0%,0%);stroke-opacity:1;stroke-miterlimit:4;" d="M 182.00026 370.500382 L 184.000138 386.999634 L 179.500155 402.999691 L 173.499487 402.500496 " transform="matrix(3.779528,0,0,3.779528,0,0)"/>
<path style="fill:none;stroke-width:2;stroke-linecap:butt;stroke-linejoin:miter;stroke:rgb(0%,0%,0%);stroke-opacity:1;stroke-miterlimit:4;" d="M 153.499674 419.499976 L 169.499731 387.499862 L 167.499854 379.50035 L 159.500342 395.500407 L 153.999902 411.500464 L 148.000269 427.499487 " transform="matrix(3.779528,0,0,3.779528,0,0)"/>
<path style="fill:none;stroke-width:2;stroke-linecap:butt;stroke-linejoin:miter;stroke:rgb(0%,0%,0%);stroke-opacity:1;stroke-miterlimit:4;" d="M 148.000269 421.499854 L 164.000326 388.00009 " transform="matrix(3.779528,0,0,3.779528,0,0)"/>
<path style="fill:none;stroke-width:2;stroke-linecap:butt;stroke-linejoin:miter;stroke:rgb(0%,0%,0%);stroke-opacity:1;stroke-miterlimit:4;" d="M 162.499642 379.50035 L 170.500187 363.999487 L 153.999902 388.00009 L 137.499618 385.499984 L 121.000366 381.500228 L 105.000309 377.500472 L 89.000252 377.000244 " transform="matrix(3.779528,0,0,3.779528,0,0)"/>
<path style="fill:none;stroke-width:2;stroke-linecap:butt;stroke-linejoin:miter;stroke:rgb(0%,0%,0%);stroke-opacity:1;stroke-miterlimit:4;" d="M 91.999552 350.000342 L 118.000033 323.999862 L 134.00009 314.000472 L 150.000146 311.999561 L 159.500342 320.000106 " transform="matrix(3.779528,0,0,3.779528,0,0)"/>
<path style="fill:none;stroke-width:2;stroke-linecap:butt;stroke-linejoin:miter;stroke:rgb(0%,0%,0%);stroke-opacity:1;stroke-miterlimit:4;" d="M 158.499886 313.500244 L 173.999715 329.500301 L 175.999593 345.500358 L 173.999715 361.000187 L 155.99978 370.999577 L 140.499951 372.50026 L 138.500073 364.499715 L 153.999902 358.500081 " transform="matrix(3.779528,0,0,3.779528,0,0)"/>
<path style="fill:none;stroke-width:2;stroke-linecap:butt;stroke-linejoin:miter;stroke:rgb(0%,0%,0%);stroke-opacity:1;stroke-miterlimit:4;" d="M 141.000179 354.500326 L 130.999756 372.50026 L 140.499951 356.500203 " transform="matrix(3.779528,0,0,3.779528,0,0)"/>
<path style="fill:none;stroke-width:2;stroke-linecap:butt;stroke-linejoin:miter;stroke:rgb(0%,0%,0%);stroke-opacity:1;stroke-miterlimit:4;" d="M 130.000334 357.499626 L 117.499805 367.500049 L 127.500228 351.499992 " transform="matrix(3.779528,0,0,3.779528,0,0)"/>
<path style="fill:none;stroke-width:2;stroke-linecap:butt;stroke-linejoin:miter;stroke:rgb(0%,0%,0%);stroke-opacity:1;stroke-miterlimit:4;" d="M 118.50026 353.49987 L 114.500505 361.500415 L 119.99991 345.500358 " transform="matrix(3.779528,0,0,3.779528,0,0)"/>
<path style="fill:none;stroke-width:2;stroke-linecap:butt;stroke-linejoin:miter;stroke:rgb(0%,0%,0%);stroke-opacity:1;stroke-miterlimit:4;" d="M 142.499829 341.000374 L 130.499528 357.499626 L 116.000155 379.50035 L 144.000513 369.499927 L 159.999536 368.000277 " transform="matrix(3.779528,0,0,3.779528,0,0)"/>
<path style="fill:none;stroke-width:2;stroke-linecap:butt;stroke-linejoin:miter;stroke:rgb(0%,0%,0%);stroke-opacity:1;stroke-miterlimit:4;" d="M 180.999805 374.500138 L 178.999927 390.500195 L 172.500065 406.500252 " transform="matrix(3.779528,0,0,3.779528,0,0)"/>
<path style="fill:none;stroke-width:2;stroke-linecap:butt;stroke-linejoin:miter;stroke:rgb(0%,0%,0%);stroke-opacity:1;stroke-miterlimit:4;" d="M 205.999829 408.50013 L 203.999951 392.500073 " transform="matrix(3.779528,0,0,3.779528,0,0)"/>
<path style="fill:none;stroke-width:2;stroke-linecap:butt;stroke-linejoin:miter;stroke:rgb(0%,0%,0%);stroke-opacity:1;stroke-miterlimit:4;" d="M 209.000163 393.999723 L 216.999674 409.499552 " transform="matrix(3.779528,0,0,3.779528,0,0)"/>
<path style="fill:none;stroke-width:2;stroke-linecap:butt;stroke-linejoin:miter;stroke:rgb(0%,0%,0%);stroke-opacity:1;stroke-miterlimit:4;" d="M 212.000496 466.000496 L 185.499788 481.99952 L 182.999683 505.499894 L 198.99974 491.499715 L 212.999919 487.499959 L 230.999854 488.000187 L 230.999854 491.999943 L 263.500195 491.999943 L 275.500496 486.000309 L 291.49952 490.000065 " transform="matrix(3.779528,0,0,3.779528,0,0)"/>
<path style="fill:none;stroke-width:2;stroke-linecap:butt;stroke-linejoin:miter;stroke:rgb(0%,0%,0%);stroke-opacity:1;stroke-miterlimit:4;" d="M 302.500399 479.999642 L 286.500342 474.000008 L 270.500285 468.499569 L 254.500228 468.499569 L 237.999943 470.50048 L 221.499658 470.50048 L 205.499601 474.500236 L 182.00026 477.999764 L 164.000326 462.499935 " transform="matrix(3.779528,0,0,3.779528,0,0)"/>
<path style="fill:none;stroke-width:2;stroke-linecap:butt;stroke-linejoin:miter;stroke:rgb(0%,0%,0%);stroke-opacity:1;stroke-miterlimit:4;" d="M 176.499821 465.500269 L 160.499764 459.999829 L 127.500228 459.999829 L 111.500171 460.500057 L 95.500114 458.500179 L 79.500057 474.500236 L 63.5 488.500415 " transform="matrix(3.779528,0,0,3.779528,0,0)"/>
<path style="fill:none;stroke-width:2;stroke-linecap:butt;stroke-linejoin:miter;stroke:rgb(0%,0%,0%);stroke-opacity:1;stroke-miterlimit:4;" d="M 64.000228 493.000399 L 80.500513 482.499748 L 85.000496 465.000041 L 75.000073 481.000098 L 57.500366 484.999854 L 51.999927 501.500138 L 58.499788 502.999788 L 58.499788 513.000212 " transform="matrix(3.779528,0,0,3.779528,0,0)"/>
<path style="fill:none;stroke-width:2;stroke-linecap:butt;stroke-linejoin:miter;stroke:rgb(0%,0%,0%);stroke-opacity:1;stroke-miterlimit:4;" d="M 29.500008 497.999577 L 12.999723 493.499593 " transform="matrix(3.779528,0,0,3.779528,0,0)"/>
<path style="fill:none;stroke-width:2;stroke-linecap:butt;stroke-linejoin:miter;stroke:rgb(0%,0%,0%);stroke-opacity:1;stroke-miterlimit:4;" d="M 14.000179 484.499626 L 30.000236 484.000431 L 57.999561 499.50026 L 85.999919 507.499772 L 117.499805 507.499772 L 133.499862 509.000456 " transform="matrix(3.779528,0,0,3.779528,0,0)"/>
<path style="fill:none;stroke-width:2;stroke-linecap:butt;stroke-linejoin:miter;stroke:rgb(0%,0%,0%);stroke-opacity:1;stroke-miterlimit:4;" d="M 118.000033 493.999821 L 134.00009 495.999699 L 150.500374 491.499715 L 166.500431 495.999699 " transform="matrix(3.779528,0,0,3.779528,0,0)"/>
<path style="fill:none;stroke-width:2;stroke-linecap:butt;stroke-linejoin:miter;stroke:rgb(0%,0%,0%);stroke-opacity:1;stroke-miterlimit:4;" d="M 152.500252 508 L 136.500195 506.000122 L 103.499626 502.000366 L 87.499569 504.000244 L 67.499756 509.999878 L 59.500244 493.999821 L 79.500057 483.500203 L 89.000252 468.000374 L 91.00013 461.999707 " transform="matrix(3.779528,0,0,3.779528,0,0)"/>
<path style="fill:none;stroke-width:2;stroke-linecap:butt;stroke-linejoin:miter;stroke:rgb(0%,0%,0%);stroke-opacity:1;stroke-miterlimit:4;" d="M 100.500326 463.000163 L 100.000098 479.500448 " transform="matrix(3.779528,0,0,3.779528,0,0)"/>
<path style="fill:none;stroke-width:2;stroke-linecap:butt;stroke-linejoin:miter;stroke:rgb(0%,0%,0%);stroke-opacity:1;stroke-miterlimit:4;" d="M 94.000464 447.500334 L 64.000228 463.500391 L 62.00035 479.00022 L 66.000106 495.000277 L 69.999862 499.000033 L 85.999919 490.999487 L 105.999731 486.999731 L 118.000033 486.999731 L 119.499683 483.500203 L 135.49974 485.500081 L 150.999569 487.499959 L 167.499854 491.999943 L 184.000138 485.500081 L 200.000195 470.999674 L 216.50048 465.000041 L 232.499504 463.000163 L 248.499561 463.000163 L 264.999845 461.500513 L 280.999902 465.500269 L 296.499731 470.999674 " transform="matrix(3.779528,0,0,3.779528,0,0)"/>
<path style="fill:none;stroke-width:2;stroke-linecap:butt;stroke-linejoin:miter;stroke:rgb(0%,0%,0%);stroke-opacity:1;stroke-miterlimit:4;" d="M 241.000277 484.999854 L 225.00022 484.499626 L 209.000163 484.499626 L 193.500334 490.000065 L 189.499544 493.499593 L 185.499788 465.500269 L 161.50022 449.500212 " transform="matrix(3.779528,0,0,3.779528,0,0)"/>
<path style="fill:none;stroke-width:2;stroke-linecap:butt;stroke-linejoin:miter;stroke:rgb(0%,0%,0%);stroke-opacity:1;stroke-miterlimit:4;" d="M 171.000415 448.999984 L 155.499552 445.000228 L 139.499495 450.999862 L 123.500472 448.499756 L 107.500415 444.5 " transform="matrix(3.779528,0,0,3.779528,0,0)"/>
<path style="fill:none;stroke-width:2;stroke-linecap:butt;stroke-linejoin:miter;stroke:rgb(0%,0%,0%);stroke-opacity:1;stroke-miterlimit:4;" d="M 102.500203 404.500374 L 96.499536 386.999634 L 96.999764 388.500317 L 90.499902 384.499528 L 98.500448 368.000277 L 100.500326 352.500448 L 104.500081 338.000041 L 119.99991 321.999984 L 121.999788 314.000472 L 105.999731 325.99974 " transform="matrix(3.779528,0,0,3.779528,0,0)"/>
<path style="fill:none;stroke-width:2;stroke-linecap:butt;stroke-linejoin:miter;stroke:rgb(0%,0%,0%);stroke-opacity:1;stroke-miterlimit:4;" d="M 87.499569 345.999552 L 103.499626 321.999984 L 119.499683 309.999683 L 135.49974 304.000049 " transform="matrix(3.779528,0,0,3.779528,0,0)"/>
<path style="fill:none;stroke-width:2;stroke-linecap:butt;stroke-linejoin:miter;stroke:rgb(0%,0%,0%);stroke-opacity:1;stroke-miterlimit:4;" d="M 144.499707 316.499544 L 162.499642 332.499601 L 170.500187 348.499658 L 136.500195 358.500081 L 126.499772 374.500138 L 128.49965 352.500448 L 139.000301 338.500269 L 136.500195 309.999683 L 144.499707 305.999927 L 160.499764 311.500366 L 176.499821 327.000195 " transform="matrix(3.779528,0,0,3.779528,0,0)"/>
<path style="fill:none;stroke-width:2;stroke-linecap:butt;stroke-linejoin:miter;stroke:rgb(0%,0%,0%);stroke-opacity:1;stroke-miterlimit:4;" d="M 134.500317 320.500334 L 126.499772 330.499723 L 114.500505 346.49978 L 106.499959 362.499837 L 120.500138 342.500024 L 128.49965 328.499845 L 125.999544 336.000163 " transform="matrix(3.779528,0,0,3.779528,0,0)"/>
<path style="fill:none;stroke-width:2;stroke-linecap:butt;stroke-linejoin:miter;stroke:rgb(0%,0%,0%);stroke-opacity:1;stroke-miterlimit:4;" d="M 146.999813 275.000269 L 146.499585 291.000326 L 127 313.000016 L 106.499959 329.000073 L 94.499658 344.499902 L 91.999552 360.499959 L 98.500448 378.499894 L 105.000309 393.999723 L 113.500049 416.000448 L 115.499927 431.500277 L 103.499626 447.999528 L 105.499504 472.00013 L 113.500049 474.000008 L 100.99952 490.000065 L 96.499536 485.500081 L 103.999854 463.999585 L 119.499683 463.999585 L 135.49974 464.499813 L 150.999569 465.000041 L 166.500431 468.999797 L 182.500488 477.000342 L 194.499756 462.499935 " transform="matrix(3.779528,0,0,3.779528,0,0)"/>
<path style="fill:none;stroke-width:2;stroke-linecap:butt;stroke-linejoin:miter;stroke:rgb(0%,0%,0%);stroke-opacity:1;stroke-miterlimit:4;" d="M 110.499715 438.000138 L 101.999976 436.00026 L 85.999919 447.999528 L 70.50009 454.000195 L 48.500399 488.000187 L 36.500098 500.000488 L 20.500041 500.000488 L 4.499984 495.999699 L 22.499919 508 L 41.999504 500.000488 L 50.000049 483.500203 L 55.999683 467.500146 L 67.999984 443.499544 L 64.000228 427.999715 L 30.000236 423.999959 L 32.500342 422.000081 L 30.500464 407.999902 L 32.500342 391.999845 L 46.499487 375.999788 L 56.49991 359.999731 L 50.500277 359.499504 L 34.50022 377.500472 " transform="matrix(3.779528,0,0,3.779528,0,0)"/>
<path style="fill:none;stroke-width:2;stroke-linecap:butt;stroke-linejoin:miter;stroke:rgb(0%,0%,0%);stroke-opacity:1;stroke-miterlimit:4;" d="M 21.999691 370.999577 L 37.999748 357.000431 " transform="matrix(3.779528,0,0,3.779528,0,0)"/>
<path style="fill:none;stroke-width:2;stroke-linecap:butt;stroke-linejoin:miter;stroke:rgb(0%,0%,0%);stroke-opacity:1;stroke-miterlimit:4;" d="M 20.500041 332.000407 L 4.499984 330.499723 " transform="matrix(3.779528,0,0,3.779528,0,0)"/>
<path style="fill:none;stroke-width:2;stroke-linecap:butt;stroke-linejoin:miter;stroke:rgb(0%,0%,0%);stroke-opacity:1;stroke-miterlimit:4;" d="M 2.500106 309.00026 L 24.499797 304.500277 L 46.999715 320.500334 L 33.499764 332.499601 L 19.499585 348.499658 L 7.500317 342.500024 L 23.999569 346.49978 L 39.999626 330.499723 " transform="matrix(3.779528,0,0,3.779528,0,0)"/>
<path style="fill:none;stroke-width:2;stroke-linecap:butt;stroke-linejoin:miter;stroke:rgb(0%,0%,0%);stroke-opacity:1;stroke-miterlimit:4;" d="M 35.99987 308.500033 L 19.999813 300.499487 " transform="matrix(3.779528,0,0,3.779528,0,0)"/>
<path style="fill:none;stroke-width:2;stroke-linecap:butt;stroke-linejoin:miter;stroke:rgb(0%,0%,0%);stroke-opacity:1;stroke-miterlimit:4;" d="M 34.50022 297.500187 L 18.500163 289.99987 L 2.500106 282.000358 " transform="matrix(3.779528,0,0,3.779528,0,0)"/>
<path style="fill:none;stroke-width:2;stroke-linecap:butt;stroke-linejoin:miter;stroke:rgb(0%,0%,0%);stroke-opacity:1;stroke-miterlimit:4;" d="M 2.500106 282.499552 L 30.999658 298.499609 " transform="matrix(3.779528,0,0,3.779528,0,0)"/>
<path style="fill:none;stroke-width:2;stroke-linecap:butt;stroke-linejoin:miter;stroke:rgb(0%,0%,0%);stroke-opacity:1;stroke-miterlimit:4;" d="M 35.000448 314.499666 L 19.000391 304.500277 L 3.499528 298.499609 " transform="matrix(3.779528,0,0,3.779528,0,0)"/>
<path style="fill:none;stroke-width:2;stroke-linecap:butt;stroke-linejoin:miter;stroke:rgb(0%,0%,0%);stroke-opacity:1;stroke-miterlimit:4;" d="M 3.999756 298.000415 L 30.000236 314.000472 L 37.999748 336.000163 L 33.999992 352.500448 L 10.000423 376.500016 L 7.500317 392.500073 " transform="matrix(3.779528,0,0,3.779528,0,0)"/>
<path style="fill:none;stroke-width:2;stroke-linecap:butt;stroke-linejoin:miter;stroke:rgb(0%,0%,0%);stroke-opacity:1;stroke-miterlimit:4;" d="M 30.000236 396.499829 L 46.000293 377.000244 L 53.499577 350.999764 L 45.500065 366.999821 L 30.000236 382.49965 L 26.00048 398.000513 L 25.500252 413.999536 L 5.000212 425.999837 L 21.000269 422.000081 L 35.499642 413.999536 L 51.499699 422.000081 L 67.499756 427.999715 " transform="matrix(3.779528,0,0,3.779528,0,0)"/>
<path style="fill:none;stroke-width:2;stroke-linecap:butt;stroke-linejoin:miter;stroke:rgb(0%,0%,0%);stroke-opacity:1;stroke-miterlimit:4;" d="M 66.999528 434.999805 L 50.500277 427.499487 L 34.50022 432.999927 L 18.500163 441.000472 L 2.500106 443.00035 " transform="matrix(3.779528,0,0,3.779528,0,0)"/>
<path style="fill:none;stroke-width:2;stroke-linecap:butt;stroke-linejoin:miter;stroke:rgb(0%,0%,0%);stroke-opacity:1;stroke-miterlimit:4;" d="M 3.000334 436.500488 L 19.000391 434.499577 L 42.999959 426.500065 L 17.499707 452.499512 L 29.500008 468.499569 L 43.500187 466.499691 " transform="matrix(3.779528,0,0,3.779528,0,0)"/>
<path style="fill:none;stroke-width:2;stroke-linecap:butt;stroke-linejoin:miter;stroke:rgb(0%,0%,0%);stroke-opacity:1;stroke-miterlimit:4;" d="M 26.999902 465.500269 L 10.999845 454.000195 " transform="matrix(3.779528,0,0,3.779528,0,0)"/>
<path style="fill:none;stroke-width:2;stroke-linecap:butt;stroke-linejoin:miter;stroke:rgb(0%,0%,0%);stroke-opacity:1;stroke-miterlimit:4;" d="M 17.999935 452.99974 L 1.999878 450.999862 " transform="matrix(3.779528,0,0,3.779528,0,0)"/>
<path style="fill:none;stroke-width:2;stroke-linecap:butt;stroke-linejoin:miter;stroke:rgb(0%,0%,0%);stroke-opacity:1;stroke-miterlimit:4;" d="M 1.999878 479.500448 L 17.999935 475.499658 L 33.999992 477.000342 L 50.000049 468.999797 " transform="matrix(3.779528,0,0,3.779528,0,0)"/>
<path style="fill:none;stroke-width:2;stroke-linecap:butt;stroke-linejoin:miter;stroke:rgb(0%,0%,0%);stroke-opacity:1;stroke-miterlimit:4;" d="M 33.499764 491.499715 L 17.499707 487.499959 L 1.49965 491.999943 " transform="matrix(3.779528,0,0,3.779528,0,0)"/>
<path style="fill:none;stroke-width:2;stroke-linecap:butt;stroke-linejoin:miter;stroke:rgb(0%,0%,0%);stroke-opacity:1;stroke-miterlimit:4;" d="M 40.499854 491.499715 L 48.999593 475.999886 L 55.500488 459.999829 L 63.5 443.999772 L 53.499577 427.999715 " transform="matrix(3.779528,0,0,3.779528,0,0)"/>
<path style="fill:none;stroke-width:2;stroke-linecap:butt;stroke-linejoin:miter;stroke:rgb(0%,0%,0%);stroke-opacity:1;stroke-miterlimit:4;" d="M 3.000334 366.999821 L 7.00009 354.99952 " transform="matrix(3.779528,0,0,3.779528,0,0)"/>
<path style="fill:none;stroke-width:2;stroke-linecap:butt;stroke-linejoin:miter;stroke:rgb(0%,0%,0%);stroke-opacity:1;stroke-miterlimit:4;" d="M 49.499821 305.999927 L 33.999992 289.99987 L 17.999935 282.499552 L 1.999878 277.999569 " transform="matrix(3.779528,0,0,3.779528,0,0)"/>
<path style="fill:none;stroke-width:2;stroke-linecap:butt;stroke-linejoin:miter;stroke:rgb(0%,0%,0%);stroke-opacity:1;stroke-miterlimit:4;" d="M 1.999878 272.500163 L 17.999935 274.500041 L 34.50022 280.499674 L 50.500277 295.000081 " transform="matrix(3.779528,0,0,3.779528,0,0)"/>
<path style="fill:none;stroke-width:2;stroke-linecap:butt;stroke-linejoin:miter;stroke:rgb(0%,0%,0%);stroke-opacity:1;stroke-miterlimit:4;" d="M 17.000513 276.499919 L 44.999837 292.499976 L 57.000138 307.999805 L 59.000016 323.999862 L 54.500033 339.999919 L 46.499487 355.499748 L 30.500464 371.499805 L 10.499618 388.00009 L 20.500041 379.999544 L 37.000326 368.000277 L 53.000382 341.999797 " transform="matrix(3.779528,0,0,3.779528,0,0)"/>
<path style="fill:none;stroke-width:2;stroke-linecap:butt;stroke-linejoin:miter;stroke:rgb(0%,0%,0%);stroke-opacity:1;stroke-miterlimit:4;" d="M 33.999992 341.999797 L 23.999569 361.999609 L 33.499764 359.999731 L 45.500065 344.499902 L 51.499699 328.499845 L 51.499699 312.499788 L 41.500309 296.499731 L 11.500073 280.499674 " transform="matrix(3.779528,0,0,3.779528,0,0)"/>
<path style="fill:none;stroke-width:2;stroke-linecap:butt;stroke-linejoin:miter;stroke:rgb(0%,0%,0%);stroke-opacity:1;stroke-miterlimit:4;" d="M 144.000513 257.499528 L 141.999601 273.499585 L 141.999601 289.99987 L 155.99978 316.00035 L 171.999837 331.500179 L 180.499577 351.499992 L 178.000505 367.500049 L 173.999715 383.500106 L 164.000326 399.500163 L 156.500008 415.50022 L 153.00048 431.500277 L 178.499699 454.000195 L 194.999984 479.999642 L 184.999561 495.999699 L 184.999561 506.000122 L 194.999984 504.000244 L 214.999797 504.500472 L 220.500236 492.500171 L 226.49987 500.499683 L 242.499927 497.000155 L 258.499984 497.000155 L 274.500041 499.000033 L 290.500098 502.999788 L 306.500155 507.499772 L 300.999715 499.000033 " transform="matrix(3.779528,0,0,3.779528,0,0)"/>
<path style="fill:none;stroke-width:2;stroke-linecap:butt;stroke-linejoin:miter;stroke:rgb(0%,0%,0%);stroke-opacity:1;stroke-miterlimit:4;" d="M 384.000334 497.500382 L 380.499772 495.999699 L 370.500382 471.499902 L 370.999577 455.499845 L 357.499626 450.000439 L 361.999609 434.000382 L 379.999544 418.000326 " transform="matrix(3.779528,0,0,3.779528,0,0)"/>
<path style="fill:none;stroke-width:2;stroke-linecap:butt;stroke-linejoin:miter;stroke:rgb(0%,0%,0%);stroke-opacity:1;stroke-miterlimit:4;" d="M 291.000326 405.499797 L 282.499552 422.000081 " transform="matrix(3.779528,0,0,3.779528,0,0)"/>
<path style="fill:none;stroke-width:2;stroke-linecap:butt;stroke-linejoin:miter;stroke:rgb(0%,0%,0%);stroke-opacity:1;stroke-miterlimit:4;" d="M 284.999658 406.000024 L 275.000269 422.000081 L 266.499495 409.99978 L 278.499797 393.499495 L 287.999992 377.500472 L 295.500309 357.499626 L 286.999536 341.499569 L 268.999601 325.99974 " transform="matrix(3.779528,0,0,3.779528,0,0)"/>
<path style="fill:none;stroke-width:2;stroke-linecap:butt;stroke-linejoin:miter;stroke:rgb(0%,0%,0%);stroke-opacity:1;stroke-miterlimit:4;" d="M 275.500496 324.50009 L 291.49952 340.500146 L 299.500065 356.500203 L 299.500065 372.50026 L 293.500431 388.00009 L 286.000114 404.000146 L 275.500496 420.000203 L 269.499829 436.00026 L 279.500252 450.000439 L 305.499699 463.999585 L 309.500488 466.000496 " transform="matrix(3.779528,0,0,3.779528,0,0)"/>
<path style="fill:none;stroke-width:2;stroke-linecap:butt;stroke-linejoin:miter;stroke:rgb(0%,0%,0%);stroke-opacity:1;stroke-miterlimit:4;" d="M 479.500448 296.499731 L 461.500513 302.500399 L 459.000407 312.499788 L 475.000464 298.499609 L 488.500415 309.999683 L 504.500472 298.000415 " transform="matrix(3.779528,0,0,3.779528,0,0)"/>
<path style="fill:none;stroke-width:2;stroke-linecap:butt;stroke-linejoin:miter;stroke:rgb(0%,0%,0%);stroke-opacity:1;stroke-miterlimit:4;" d="M 491.999943 277.999569 L 503.500016 302.000171 L 479.999642 314.499666 L 461.999707 316.499544 L 456.500301 332.000407 L 460.500057 329.500301 L 472.999552 348.000464 L 468.999797 352.00022 L 470.999674 368.000277 L 479.00022 366.000399 L 484.999854 382.000456 L 486.999731 385.499984 L 504.999666 375.000366 " transform="matrix(3.779528,0,0,3.779528,0,0)"/>
<path style="fill:none;stroke-width:2;stroke-linecap:butt;stroke-linejoin:miter;stroke:rgb(0%,0%,0%);stroke-opacity:1;stroke-miterlimit:4;" d="M 484.999854 280.499674 L 499.000033 296.499731 L 488.999609 298.000415 L 470.999674 313.500244 L 441.000472 307.499577 L 456.999495 289.000448 L 463.500391 273.000391 L 479.999642 279.500252 L 486.000309 273.499585 " transform="matrix(3.779528,0,0,3.779528,0,0)"/>
</g>
</svg>
