<?xml version="1.0" encoding="UTF-8"?>
<svg xmlns="http://www.w3.org/2000/svg" xmlns:xlink="http://www.w3.org/1999/xlink" width="1935.11811" height="1935.11811" viewBox="0 0 1935.11811 1935.11811" version="1.1">
<g id="surface1">
<path style="fill:none;stroke-width:2;stroke-linecap:butt;stroke-linejoin:miter;stroke:rgb(0%,0%,0%);stroke-opacity:1;stroke-miterlimit:4;" d="M 29.500008 10.499618 L 29.500008 26.499674 L 33.499764 58.499788 L 33.499764 75.000073 L 37.49952 107.000187 L 39.500431 123.000244 L 39.000203 139.000301 L 41.000081 154.50013 L 40.499854 170.500187 L 42.999959 186.500244 L 44.999837 202.500301 L 14.999601 218.500358 L 7.500317 223.999764 L 23.500374 213.500146 L 39.500431 207.000285 L 53.499577 218.999552 L 69.499634 221.000464 L 85.499691 226.49987 L 89.999674 224.499992 L 105.999731 230.499626 L 110.499715 248.499561 L 116.500382 268.999601 " transform="matrix(3.779528,0,0,3.779528,0,0)"/>
<path style="fill:none;stroke-width:2;stroke-linecap:butt;stroke-linejoin:miter;stroke:rgb(0%,0%,0%);stroke-opacity:1;stroke-miterlimit:4;" d="M 98.00022 280.00048 L 82.000163 268.000179 " transform="matrix(3.779528,0,0,3.779528,0,0)"/>
<path style="fill:none;stroke-width:2;stroke-linecap:butt;stroke-linejoin:miter;stroke:rgb(0%,0%,0%);stroke-opacity:1;stroke-miterlimit:4;" d="M 79.500057 273.000391 L 83.499813 278.499797 L 93.500236 295.000081 L 91.500358 311.000138 " transform="matrix(3.779528,0,0,3.779528,0,0)"/>
<path style="fill:none;stroke-width:2;stroke-linecap:butt;stroke-linejoin:miter;stroke:rgb(0%,0%,0%);stroke-opacity:1;stroke-miterlimit:4;" d="M 87.999797 289.99987 L 71.99974 275.999691 " transform="matrix(3.779528,0,0,3.779528,0,0)"/>
<path style="fill:none;stroke-width:2;stroke-linecap:butt;stroke-linejoin:miter;stroke:rgb(0%,0%,0%);stroke-opacity:1;stroke-miterlimit:4;" d="M 61.500122 277.999569 L 71.499512 270.000057 L 77.500179 286.000114 L 85.499691 302.000171 " transform="matrix(3.779528,0,0,3.779528,0,0)"/>
<path style="fill:none;stroke-width:2;stroke-linecap:butt;stroke-linejoin:miter;stroke:rgb(0%,0%,0%);stroke-opacity:1;stroke-miterlimit:4;" d="M 68.500212 290.500098 L 57.999561 289.000448 " transform="matrix(3.779528,0,0,3.779528,0,0)"/>
<path style="fill:none;stroke-width:2;stroke-linecap:butt;stroke-linejoin:miter;stroke:rgb(0%,0%,0%);stroke-opacity:1;stroke-miterlimit:4;" d="M 53.999805 284.500464 L 78.000407 268.999601 L 83.499813 284.999658 L 89.50048 300.999715 L 87.999797 318.500456 L 84.000041 334.000285 L 65.499878 350.000342 " transform="matrix(3.779528,0,0,3.779528,0,0)"/>
<path style="fill:none;stroke-width:2;stroke-linecap:butt;stroke-linejoin:miter;stroke:rgb(0%,0%,0%);stroke-opacity:1;stroke-miterlimit:4;" d="M 87.499569 380.499772 L 103.499626 350.499536 L 119.499683 334.999707 L 135.49974 323.000439 L 150.999569 325.000317 L 166.500431 328.499845 L 182.500488 330.999951 L 198.499512 330.499723 L 214.499569 332.499601 L 210.499813 336.999585 L 198.499512 352.999642 L 210.499813 336.999585 L 218.00013 335.499935 L 234.000187 332.999829 L 250.000244 332.999829 L 266.000301 330.499723 L 282.000358 330.499723 L 298.499609 329.999495 L 314.499666 329.999495 L 330.499723 327.500423 L 347.000008 321.499756 L 363.000065 319.499878 L 379.000122 318.000228 " transform="matrix(3.779528,0,0,3.779528,0,0)"/>
<path style="fill:none;stroke-width:2;stroke-linecap:butt;stroke-linejoin:miter;stroke:rgb(0%,0%,0%);stroke-opacity:1;stroke-miterlimit:4;" d="M 378.499894 296.499731 L 362.499837 298.499609 L 314.499666 298.499609 L 298.000415 300.499487 L 282.499552 300.499487 L 266.499495 300.000293 L 250.500472 299.500065 L 234.500415 298.999837 L 218.00013 298.499609 L 202.500301 298.499609 L 186.500244 298.999837 L 169.999959 296.999959 L 153.999902 296.999959 L 137.499618 295.000081 L 119.000488 302.999593 L 99.49987 307.000382 L 99.49987 291.000326 L 89.50048 275.500496 L 69.999862 251.499894 " transform="matrix(3.779528,0,0,3.779528,0,0)"/>
<path style="fill:none;stroke-width:2;stroke-linecap:butt;stroke-linejoin:miter;stroke:rgb(0%,0%,0%);stroke-opacity:1;stroke-miterlimit:4;" d="M 66.999528 248.999788 L 82.999585 249.500016 L 87.000374 263.500195 L 103.499626 265.500073 L 105.999731 277.999569 " transform="matrix(3.779528,0,0,3.779528,0,0)"/>
<path style="fill:none;stroke-width:2;stroke-linecap:butt;stroke-linejoin:miter;stroke:rgb(0%,0%,0%);stroke-opacity:1;stroke-miterlimit:4;" d="M 119.000488 301.499943 L 109.000065 317.5 L 108.499837 334.000285 " transform="matrix(3.779528,0,0,3.779528,0,0)"/>
<path style="fill:none;stroke-width:2;stroke-linecap:butt;stroke-linejoin:miter;stroke:rgb(0%,0%,0%);stroke-opacity:1;stroke-miterlimit:4;" d="M 123.500472 335.499935 L 107.500415 351.499992 L 91.500358 377.500472 " transform="matrix(3.779528,0,0,3.779528,0,0)"/>
<path style="fill:none;stroke-width:2;stroke-linecap:butt;stroke-linejoin:miter;stroke:rgb(0%,0%,0%);stroke-opacity:1;stroke-miterlimit:4;" d="M 90.499902 393.499495 L 96.000342 395.999601 L 89.999674 406.000024 " transform="matrix(3.779528,0,0,3.779528,0,0)"/>
<path style="fill:none;stroke-width:2;stroke-linecap:butt;stroke-linejoin:miter;stroke:rgb(0%,0%,0%);stroke-opacity:1;stroke-miterlimit:4;" d="M 137.999845 400.499585 L 159.999536 416.000448 L 177.500277 412.499886 L 193.500334 406.500252 L 209.999585 406.500252 " transform="matrix(3.779528,0,0,3.779528,0,0)"/>
<path style="fill:none;stroke-width:2;stroke-linecap:butt;stroke-linejoin:miter;stroke:rgb(0%,0%,0%);stroke-opacity:1;stroke-miterlimit:4;" d="M 184.000138 406.000024 L 167.499854 422.000081 L 175.000171 437.49991 L 178.999927 453.499967 L 180.999805 469.500024 L 184.999561 486.000309 L 191.000228 502.000366 L 198.99974 504.000244 " transform="matrix(3.779528,0,0,3.779528,0,0)"/>
<path style="fill:none;stroke-width:2;stroke-linecap:butt;stroke-linejoin:miter;stroke:rgb(0%,0%,0%);stroke-opacity:1;stroke-miterlimit:4;" d="M 214.499569 495.999699 L 206.500057 479.999642 L 212.499691 463.999585 L 232.499504 461.999707 L 240.500049 456.000073 L 216.000252 447.999528 L 200.000195 459.499601 L 184.000138 479.500448 " transform="matrix(3.779528,0,0,3.779528,0,0)"/>
<path style="fill:none;stroke-width:2;stroke-linecap:butt;stroke-linejoin:miter;stroke:rgb(0%,0%,0%);stroke-opacity:1;stroke-miterlimit:4;" d="M 179.500155 484.000431 L 195.500212 475.999886 L 213.500146 478.499992 L 216.000252 496.499927 " transform="matrix(3.779528,0,0,3.779528,0,0)"/>
<path style="fill:none;stroke-width:2;stroke-linecap:butt;stroke-linejoin:miter;stroke:rgb(0%,0%,0%);stroke-opacity:1;stroke-miterlimit:4;" d="M 205.000407 473.49978 L 221.499658 475.499658 L 236.999487 477.499536 " transform="matrix(3.779528,0,0,3.779528,0,0)"/>
<path style="fill:none;stroke-width:2;stroke-linecap:butt;stroke-linejoin:miter;stroke:rgb(0%,0%,0%);stroke-opacity:1;stroke-miterlimit:4;" d="M 244.499805 450.999862 L 227.99952 426.500065 " transform="matrix(3.779528,0,0,3.779528,0,0)"/>
<path style="fill:none;stroke-width:2;stroke-linecap:butt;stroke-linejoin:miter;stroke:rgb(0%,0%,0%);stroke-opacity:1;stroke-miterlimit:4;" d="M 221.499658 381 L 236.999487 355.499748 L 252.999544 341.999797 L 268.500407 336.000163 L 284.000236 336.000163 L 299.500065 340.500146 L 315.500122 352.500448 L 331.500179 358.500081 L 347.500236 360.499959 L 363.999487 360.499959 L 380.499772 358.500081 L 395.999601 358.500081 L 407.999902 376.500016 L 399.500163 388.500317 L 391.499618 391.000423 L 375.499561 406.500252 L 366.499593 422.999504 L 362.499837 438.999561 L 359.000309 454.500423 L 355.499748 470.50048 L 355.499748 486.499504 L 357.000431 504.000244 L 361.000187 506.000122 L 364.499715 508 L 377.999666 494.500049 L 393.999723 495.999699 " transform="matrix(3.779528,0,0,3.779528,0,0)"/>
<path style="fill:none;stroke-width:2;stroke-linecap:butt;stroke-linejoin:miter;stroke:rgb(0%,0%,0%);stroke-opacity:1;stroke-miterlimit:4;" d="M 395.000179 455.499845 L 379.000122 439.499788 " transform="matrix(3.779528,0,0,3.779528,0,0)"/>
<path style="fill:none;stroke-width:2;stroke-linecap:butt;stroke-linejoin:miter;stroke:rgb(0%,0%,0%);stroke-opacity:1;stroke-miterlimit:4;" d="M 377.999666 434.000382 L 381.500228 435.500033 L 391.000423 452.000317 " transform="matrix(3.779528,0,0,3.779528,0,0)"/>
<path style="fill:none;stroke-width:2;stroke-linecap:butt;stroke-linejoin:miter;stroke:rgb(0%,0%,0%);stroke-opacity:1;stroke-miterlimit:4;" d="M 377.500472 432.000505 L 381.500228 447.999528 L 391.999845 463.999585 L 409.99978 450.000439 L 425.999837 432.499699 " transform="matrix(3.779528,0,0,3.779528,0,0)"/>
<path style="fill:none;stroke-width:2;stroke-linecap:butt;stroke-linejoin:miter;stroke:rgb(0%,0%,0%);stroke-opacity:1;stroke-miterlimit:4;" d="M 434.000382 429.000171 L 420.000203 445.000228 L 407.999902 461.500513 L 401.500041 477.499536 " transform="matrix(3.779528,0,0,3.779528,0,0)"/>
<path style="fill:none;stroke-width:2;stroke-linecap:butt;stroke-linejoin:miter;stroke:rgb(0%,0%,0%);stroke-opacity:1;stroke-miterlimit:4;" d="M 386.000212 489.499837 L 370.000155 487.499959 L 354.000098 482.999976 L 352.00022 489.499837 " transform="matrix(3.779528,0,0,3.779528,0,0)"/>
<path style="fill:none;stroke-width:2;stroke-linecap:butt;stroke-linejoin:miter;stroke:rgb(0%,0%,0%);stroke-opacity:1;stroke-miterlimit:4;" d="M 346.49978 489.499837 L 347.000008 473.49978 L 330.999951 461.500513 L 318.99965 447.500334 L 313.000016 451.50009 L 305.000505 467.500146 L 293.000203 495.500505 L 276.499919 477.499536 " transform="matrix(3.779528,0,0,3.779528,0,0)"/>
<path style="fill:none;stroke-width:2;stroke-linecap:butt;stroke-linejoin:miter;stroke:rgb(0%,0%,0%);stroke-opacity:1;stroke-miterlimit:4;" d="M 275.500496 477.000342 L 283.500008 493.000399 L 293.500431 509.999878 " transform="matrix(3.779528,0,0,3.779528,0,0)"/>
<path style="fill:none;stroke-width:2;stroke-linecap:butt;stroke-linejoin:miter;stroke:rgb(0%,0%,0%);stroke-opacity:1;stroke-miterlimit:4;" d="M 278.499797 484.499626 L 294.499854 506.50035 L 302.500399 478.499992 L 318.000228 474.500236 L 318.000228 460.500057 " transform="matrix(3.779528,0,0,3.779528,0,0)"/>
<path style="fill:none;stroke-width:2;stroke-linecap:butt;stroke-linejoin:miter;stroke:rgb(0%,0%,0%);stroke-opacity:1;stroke-miterlimit:4;" d="M 318.99965 449.500212 L 305.000505 465.500269 L 298.999837 459.999829 L 315.500122 436.500488 " transform="matrix(3.779528,0,0,3.779528,0,0)"/>
<path style="fill:none;stroke-width:2;stroke-linecap:butt;stroke-linejoin:miter;stroke:rgb(0%,0%,0%);stroke-opacity:1;stroke-miterlimit:4;" d="M 334.500513 438.500366 L 350.000342 436.00026 " transform="matrix(3.779528,0,0,3.779528,0,0)"/>
<path style="fill:none;stroke-width:2;stroke-linecap:butt;stroke-linejoin:miter;stroke:rgb(0%,0%,0%);stroke-opacity:1;stroke-miterlimit:4;" d="M 354.000098 445.000228 L 337.499813 438.999561 " transform="matrix(3.779528,0,0,3.779528,0,0)"/>
<path style="fill:none;stroke-width:2;stroke-linecap:butt;stroke-linejoin:miter;stroke:rgb(0%,0%,0%);stroke-opacity:1;stroke-miterlimit:4;" d="M 355.499748 413.500342 L 339.000496 405.499797 " transform="matrix(3.779528,0,0,3.779528,0,0)"/>
<path style="fill:none;stroke-width:2;stroke-linecap:butt;stroke-linejoin:miter;stroke:rgb(0%,0%,0%);stroke-opacity:1;stroke-miterlimit:4;" d="M 337.499813 403.499919 L 353.49987 405.499797 L 369.499927 402.999691 L 386.000212 388.999512 L 402.500496 374.500138 L 418.999748 359.999731 " transform="matrix(3.779528,0,0,3.779528,0,0)"/>
<path style="fill:none;stroke-width:2;stroke-linecap:butt;stroke-linejoin:miter;stroke:rgb(0%,0%,0%);stroke-opacity:1;stroke-miterlimit:4;" d="M 400.999813 388.500317 L 416.99987 382.49965 L 432.999927 382.000456 L 448.999984 379.999544 L 465.000041 377.999666 " transform="matrix(3.779528,0,0,3.779528,0,0)"/>
<path style="fill:none;stroke-width:2;stroke-linecap:butt;stroke-linejoin:miter;stroke:rgb(0%,0%,0%);stroke-opacity:1;stroke-miterlimit:4;" d="M 447.999528 384.499528 L 432.000505 386.000212 L 416.000448 385.499984 L 399.500163 393.499495 " transform="matrix(3.779528,0,0,3.779528,0,0)"/>
<path style="fill:none;stroke-width:2;stroke-linecap:butt;stroke-linejoin:miter;stroke:rgb(0%,0%,0%);stroke-opacity:1;stroke-miterlimit:4;" d="M 403.499919 418.000326 L 397.500285 434.000382 L 393.000301 450.499634 L 404.999569 418.49952 " transform="matrix(3.779528,0,0,3.779528,0,0)"/>
<path style="fill:none;stroke-width:2;stroke-linecap:butt;stroke-linejoin:miter;stroke:rgb(0%,0%,0%);stroke-opacity:1;stroke-miterlimit:4;" d="M 408.50013 420.500431 L 404.500374 436.500488 L 400.499585 452.000317 L 422.500309 443.999772 " transform="matrix(3.779528,0,0,3.779528,0,0)"/>
<path style="fill:none;stroke-width:2;stroke-linecap:butt;stroke-linejoin:miter;stroke:rgb(0%,0%,0%);stroke-opacity:1;stroke-miterlimit:4;" d="M 432.000505 425.499609 L 416.000448 441.499666 L 404.000146 457.499723 L 398.000513 473.49978 L 400.000391 491.999943 L 398.000513 508 L 391.499618 508 " transform="matrix(3.779528,0,0,3.779528,0,0)"/>
<path style="fill:none;stroke-width:2;stroke-linecap:butt;stroke-linejoin:miter;stroke:rgb(0%,0%,0%);stroke-opacity:1;stroke-miterlimit:4;" d="M 341.999797 505.499894 L 335.499935 506.000122 L 331.500179 504.000244 L 333.500057 488.000187 " transform="matrix(3.779528,0,0,3.779528,0,0)"/>
<path style="fill:none;stroke-width:2;stroke-linecap:butt;stroke-linejoin:miter;stroke:rgb(0%,0%,0%);stroke-opacity:1;stroke-miterlimit:4;" d="M 329.999495 506.999544 L 345.999552 506.50035 L 350.000342 502.499561 L 344.499902 486.499504 L 344.499902 480.49987 L 346.49978 475.000464 L 350.499536 459.000407 L 356.500203 442.500122 L 359.999731 426.500065 L 357.999854 409.99978 L 370.000155 402.000269 L 387.499862 386.000212 L 405.499797 370.000155 L 417.500098 354.000098 L 415.50022 338.000041 L 404.999569 321.999984 L 386.999634 302.000171 L 373.000488 291.999748 L 357.499626 291.999748 L 341.999797 293.500431 L 325.99974 293.500431 L 310.49991 293.000203 L 262.999967 293.000203 L 246.499683 293.500431 L 182.00026 293.500431 L 166.000203 291.49952 L 150.000146 291.49952 L 133.499862 289.499642 L 121.000366 293.500431 L 104.500081 305.999927 L 92.49978 316.499544 L 75.000073 328.499845 L 80.999707 322.500212 L 77.500179 306.500155 L 71.99974 300.499487 L 68.500212 284.500464 L 66.500334 268.000179 L 71.000317 251.499894 L 78.999829 245.50026 L 71.000317 229.500203 L 42.999959 219.49978 L 46.999715 202.000073 " transform="matrix(3.779528,0,0,3.779528,0,0)"/>
<path style="fill:none;stroke-width:2;stroke-linecap:butt;stroke-linejoin:miter;stroke:rgb(0%,0%,0%);stroke-opacity:1;stroke-miterlimit:4;" d="M 51.999927 207.000285 L 67.999984 205.000407 L 84.500269 211.000041 L 100.000098 221.000464 L 116.000155 239.000399 " transform="matrix(3.779528,0,0,3.779528,0,0)"/>
<path style="fill:none;stroke-width:2;stroke-linecap:butt;stroke-linejoin:miter;stroke:rgb(0%,0%,0%);stroke-opacity:1;stroke-miterlimit:4;" d="M 94.999886 236.000065 L 78.999829 237.999943 " transform="matrix(3.779528,0,0,3.779528,0,0)"/>
<path style="fill:none;stroke-width:2;stroke-linecap:butt;stroke-linejoin:miter;stroke:rgb(0%,0%,0%);stroke-opacity:1;stroke-miterlimit:4;" d="M 63.5 213.500146 L 87.499569 229.500203 L 89.999674 237.499715 L 87.999797 248.000366 L 97.499992 259.999634 L 109.500293 275.999691 L 101.999976 277.999569 L 96.000342 283.500008 L 104.500081 281.50013 " transform="matrix(3.779528,0,0,3.779528,0,0)"/>
<path style="fill:none;stroke-width:2;stroke-linecap:butt;stroke-linejoin:miter;stroke:rgb(0%,0%,0%);stroke-opacity:1;stroke-miterlimit:4;" d="M 81.499935 306.500155 L 75.500301 290.500098 L 59.500244 282.499552 " transform="matrix(3.779528,0,0,3.779528,0,0)"/>
<path style="fill:none;stroke-width:2;stroke-linecap:butt;stroke-linejoin:miter;stroke:rgb(0%,0%,0%);stroke-opacity:1;stroke-miterlimit:4;" d="M 46.000293 290.500098 L 62.00035 293.999626 L 66.000106 305.499699 L 78.000407 321.499756 " transform="matrix(3.779528,0,0,3.779528,0,0)"/>
<path style="fill:none;stroke-width:2;stroke-linecap:butt;stroke-linejoin:miter;stroke:rgb(0%,0%,0%);stroke-opacity:1;stroke-miterlimit:4;" d="M 75.999495 327.999618 L 64.000228 312.499788 L 50.000049 296.499731 L 48.000171 294.499854 " transform="matrix(3.779528,0,0,3.779528,0,0)"/>
<path style="fill:none;stroke-width:2;stroke-linecap:butt;stroke-linejoin:miter;stroke:rgb(0%,0%,0%);stroke-opacity:1;stroke-miterlimit:4;" d="M 46.000293 298.499609 L 53.999805 314.499666 L 62.00035 329.999495 " transform="matrix(3.779528,0,0,3.779528,0,0)"/>
<path style="fill:none;stroke-width:2;stroke-linecap:butt;stroke-linejoin:miter;stroke:rgb(0%,0%,0%);stroke-opacity:1;stroke-miterlimit:4;" d="M 61.500122 325.99974 L 44.999837 303.499821 " transform="matrix(3.779528,0,0,3.779528,0,0)"/>
<path style="fill:none;stroke-width:2;stroke-linecap:butt;stroke-linejoin:miter;stroke:rgb(0%,0%,0%);stroke-opacity:1;stroke-miterlimit:4;" d="M 44.499609 308.500033 L 60.499666 314.000472 " transform="matrix(3.779528,0,0,3.779528,0,0)"/>
<path style="fill:none;stroke-width:2;stroke-linecap:butt;stroke-linejoin:miter;stroke:rgb(0%,0%,0%);stroke-opacity:1;stroke-miterlimit:4;" d="M 51.999927 332.999829 L 35.99987 307.000382 " transform="matrix(3.779528,0,0,3.779528,0,0)"/>
<path style="fill:none;stroke-width:2;stroke-linecap:butt;stroke-linejoin:miter;stroke:rgb(0%,0%,0%);stroke-opacity:1;stroke-miterlimit:4;" d="M 34.50022 300.999715 L 50.500277 302.999593 L 66.500334 325.000317 " transform="matrix(3.779528,0,0,3.779528,0,0)"/>
<path style="fill:none;stroke-width:2;stroke-linecap:butt;stroke-linejoin:miter;stroke:rgb(0%,0%,0%);stroke-opacity:1;stroke-miterlimit:4;" d="M 89.999674 332.000407 L 74.499845 350.000342 L 59.000016 362.499837 L 42.999959 366.499593 L 27.50013 364.499715 " transform="matrix(3.779528,0,0,3.779528,0,0)"/>
<path style="fill:none;stroke-width:2;stroke-linecap:butt;stroke-linejoin:miter;stroke:rgb(0%,0%,0%);stroke-opacity:1;stroke-miterlimit:4;" d="M 1.999878 359.999731 L 17.999935 366.499593 L 14.000179 393.999723 L 9.500195 402.000269 L 25.500252 405.499797 L 41.500309 407.00048 L 57.500366 405.499797 L 73.500423 401.500041 L 89.50048 393.499495 L 105.499504 387.499862 L 121.999788 395.500407 L 137.499618 397.500285 L 153.499674 407.999902 L 169.499731 411.999658 L 185.499788 402.000269 L 202.000073 402.500496 L 221.999886 394.499951 L 237.999943 364.499715 L 254 348.999886 L 270.500285 343.000252 L 286.500342 341.000374 L 302.500399 348.499658 L 318.500456 364.499715 L 332.000407 379.999544 " transform="matrix(3.779528,0,0,3.779528,0,0)"/>
<path style="fill:none;stroke-width:2;stroke-linecap:butt;stroke-linejoin:miter;stroke:rgb(0%,0%,0%);stroke-opacity:1;stroke-miterlimit:4;" d="M 344.499902 398.999935 L 355.999976 415.50022 L 377.999666 401.500041 L 393.999723 388.00009 L 404.500374 379.999544 L 420.500431 372.50026 L 436.500488 375.000366 L 452.000317 377.000244 L 463.500391 388.999512 L 479.500448 386.500439 " transform="matrix(3.779528,0,0,3.779528,0,0)"/>
<path style="fill:none;stroke-width:2;stroke-linecap:butt;stroke-linejoin:miter;stroke:rgb(0%,0%,0%);stroke-opacity:1;stroke-miterlimit:4;" d="M 494.500049 395.500407 L 478.499992 405.499797 L 462.499935 413.500342 L 446.499878 425.499609 L 431.000049 451.50009 L 434.999805 457.499723 L 443.00035 441.499666 L 454.999618 425.999837 L 481.500326 409.99978 " transform="matrix(3.779528,0,0,3.779528,0,0)"/>
<path style="fill:none;stroke-width:2;stroke-linecap:butt;stroke-linejoin:miter;stroke:rgb(0%,0%,0%);stroke-opacity:1;stroke-miterlimit:4;" d="M 484.999854 419.499976 L 500.99991 421.499854 " transform="matrix(3.779528,0,0,3.779528,0,0)"/>
<path style="fill:none;stroke-width:2;stroke-linecap:butt;stroke-linejoin:miter;stroke:rgb(0%,0%,0%);stroke-opacity:1;stroke-miterlimit:4;" d="M 468.499569 318.99965 L 452.499512 323.000439 L 436.999683 325.000317 L 420.999626 314.999894 L 404.500374 297.500187 L 388.500317 283.500008 " transform="matrix(3.779528,0,0,3.779528,0,0)"/>
<path style="fill:none;stroke-width:2;stroke-linecap:butt;stroke-linejoin:miter;stroke:rgb(0%,0%,0%);stroke-opacity:1;stroke-miterlimit:4;" d="M 386.500439 286.500342 L 404.999569 302.500399 L 418.999748 318.500456 " transform="matrix(3.779528,0,0,3.779528,0,0)"/>
<path style="fill:none;stroke-width:2;stroke-linecap:butt;stroke-linejoin:miter;stroke:rgb(0%,0%,0%);stroke-opacity:1;stroke-miterlimit:4;" d="M 414.999992 321.999984 L 420.999626 338.000041 L 425.000415 353.49987 L 430.499821 367.500049 L 446.499878 372.000033 L 461.999707 370.000155 L 478.499992 361.999609 L 488.500415 350.000342 L 504.500472 359.999731 " transform="matrix(3.779528,0,0,3.779528,0,0)"/>
<path style="fill:none;stroke-width:2;stroke-linecap:butt;stroke-linejoin:miter;stroke:rgb(0%,0%,0%);stroke-opacity:1;stroke-miterlimit:4;" d="M 499.000033 409.99978 L 482.999976 409.99978 L 466.999919 418.000326 L 450.499634 431.500277 L 434.000382 461.500513 L 425.499609 470.999674 L 431.000049 454.999618 L 436.999683 438.500366 L 448.999984 422.500309 L 472.999552 406.500252 L 499.000033 390.500195 L 497.500382 376.500016 L 481.000098 384.999756 L 502.999788 375.000366 L 498.499805 367.500049 L 500.499683 379.999544 L 484.999854 389.999967 L 469.500024 394.499951 L 454.000195 397.000057 L 448.499756 395.000179 L 456.999495 386.999634 L 475.000464 370.999577 L 499.000033 368.500505 L 489.499837 352.500448 L 483.500203 336.500391 L 487.499959 320.500334 L 493.499593 304.500277 L 505.499894 288.50022 L 505.499894 276.499919 L 507.499772 260.499862 L 491.499715 246.499683 L 495.999699 234.500415 L 490.000065 232.499504 L 477.499536 216.000252 L 461.500513 200.000195 L 454.999618 183.49991 L 454.500423 167.499854 L 456.500301 151.499797 L 456.500301 135.49974 L 457.999951 119.000488 L 459.999829 103.000431 L 459.999829 71.000317 L 463.999585 39.000203 L 463.999585 23.500374 L 441.499666 21.500496 L 425.499609 21.999691 L 409.499552 21.999691 L 393.499495 21.500496 L 361.000187 21.500496 L 345.00013 19.499585 L 313.500244 19.499585 L 298.000415 19.000391 L 250.500472 19.000391 L 234.500415 19.499585 L 186.500244 19.499585 L 170.500187 19.000391 L 138.500073 19.000391 L 122.500016 19.499585 L 106.499959 19.499585 L 89.999674 19.000391 L 73.999618 19.000391 L 57.999561 19.499585 L 41.999504 17.499707 " transform="matrix(3.779528,0,0,3.779528,0,0)"/>
<path style="fill:none;stroke-width:2;stroke-linecap:butt;stroke-linejoin:miter;stroke:rgb(0%,0%,0%);stroke-opacity:1;stroke-miterlimit:4;" d="M 42.499731 23.000146 L 58.499788 36.500098 L 75.000073 38.499976 L 139.999723 38.499976 L 157.999658 44.499609 L 173.999715 40.499854 L 189.999772 41.000081 L 205.999829 41.000081 L 221.999886 40.499854 L 238.500171 39.999626 L 254.500228 39.999626 L 271.000513 39.500431 L 335.499935 39.500431 L 355.499748 45.500065 L 372.000033 46.000293 L 387.499862 45.500065 L 402.999691 46.000293 L 418.49952 48.000171 L 434.499577 48.500399 " transform="matrix(3.779528,0,0,3.779528,0,0)"/>
<path style="fill:none;stroke-width:2;stroke-linecap:butt;stroke-linejoin:miter;stroke:rgb(0%,0%,0%);stroke-opacity:1;stroke-miterlimit:4;" d="M 434.999805 50.000049 L 435.500033 66.000106 L 434.999805 81.499935 L 433.500155 97.499992 L 433.500155 113.500049 L 432.000505 129.500106 L 432.000505 145.500163 L 432.499699 162.000448 L 430.499821 178.000505 L 429.000171 194.499756 L 409.000358 210.499813 L 395.000179 226.49987 L 384.999756 242.499927 L 382.999878 257.999756 L 384.999756 273.999813 L 381 289.499642 L 384.999756 305.999927 L 407.00048 320.000106 " transform="matrix(3.779528,0,0,3.779528,0,0)"/>
<path style="fill:none;stroke-width:2;stroke-linecap:butt;stroke-linejoin:miter;stroke:rgb(0%,0%,0%);stroke-opacity:1;stroke-miterlimit:4;" d="M 418.49952 307.999805 L 404.500374 291.999748 L 390.500195 275.999691 L 388.00009 259.999634 L 389.999967 242.499927 L 400.000391 226.49987 L 417.500098 210.499813 L 435.500033 196.499634 L 435.500033 180.499577 L 436.999683 164.000326 L 436.999683 132.000212 L 439.499788 115.499927 L 439.499788 99.49987 L 441.000472 83.499813 L 443.499544 67.999984 L 447.500334 51.999927 L 447.500334 28.000358 L 463.500391 21.999691 L 461.500513 10.000423 L 445.500456 12.000301 L 429.500399 14.500407 L 397.500285 14.500407 L 381.500228 16.000057 L 365.500171 16.000057 L 349.500114 16.500285 L 334.000285 16.000057 L 318.000228 14.000179 L 302.500399 13.499951 L 286.500342 13.499951 L 270.500285 12.999723 L 254 13.499951 L 237.999943 14.000179 L 221.999886 14.000179 L 205.999829 14.500407 L 189.999772 14.500407 L 173.999715 14.000179 L 141.999601 14.000179 L 125.999544 13.499951 L 109.999487 14.000179 L 94.000464 14.000179 L 78.499601 14.500407 L 62.999772 14.999601 L 30.999658 10.999845 " transform="matrix(3.779528,0,0,3.779528,0,0)"/>
<path style="fill:none;stroke-width:2;stroke-linecap:butt;stroke-linejoin:miter;stroke:rgb(0%,0%,0%);stroke-opacity:1;stroke-miterlimit:4;" d="M 32.999536 19.499585 L 35.000448 35.499642 L 37.49952 51.499699 L 37.49952 67.499756 L 39.999626 82.999585 L 41.999504 99.49987 L 44.000415 115.499927 L 46.000293 132.000212 L 46.000293 164.49952 L 48.000171 184.500366 L 50.000049 200.999618 L 89.50048 221.000464 L 95.500114 232.499504 L 103.499626 244.499805 L 113.500049 259.999634 L 114.000277 280.00048 L 127.500228 300.000293 L 119.99991 316.00035 L 112.000399 332.000407 L 118.000033 323.999862 L 146.000391 318.500456 L 162.000448 321.999984 L 177.500277 323.999862 L 193.500334 323.499634 L 209.500391 325.000317 L 225.500448 325.499512 L 273.499585 325.499512 L 289.99987 323.499634 L 305.499699 323.499634 L 321.499756 323.999862 L 339.499691 327.999618 L 355.499748 325.99974 L 372.000033 324.50009 L 388.00009 322.500212 L 404.000146 314.499666 L 420.000203 334.999707 " transform="matrix(3.779528,0,0,3.779528,0,0)"/>
<path style="fill:none;stroke-width:2;stroke-linecap:butt;stroke-linejoin:miter;stroke:rgb(0%,0%,0%);stroke-opacity:1;stroke-miterlimit:4;" d="M 406.000024 357.999854 L 390.500195 354.000098 L 375.000366 354.500326 L 327.500423 354.500326 " transform="matrix(3.779528,0,0,3.779528,0,0)"/>
<path style="fill:none;stroke-width:2;stroke-linecap:butt;stroke-linejoin:miter;stroke:rgb(0%,0%,0%);stroke-opacity:1;stroke-miterlimit:4;" d="M 296.499731 353.49987 L 280.00048 354.99952 L 264.000423 357.499626 L 248.000366 371.499805 L 243.999577 375.499561 L 257.999756 359.999731 L 276.499919 357.999854 L 272.500163 361.999609 " transform="matrix(3.779528,0,0,3.779528,0,0)"/>
<path style="fill:none;stroke-width:2;stroke-linecap:butt;stroke-linejoin:miter;stroke:rgb(0%,0%,0%);stroke-opacity:1;stroke-miterlimit:4;" d="M 273.999813 348.999886 L 257.499528 354.500326 L 241.500505 366.499593 L 241.500505 370.000155 L 253.499772 354.000098 " transform="matrix(3.779528,0,0,3.779528,0,0)"/>
<path style="fill:none;stroke-width:2;stroke-linecap:butt;stroke-linejoin:miter;stroke:rgb(0%,0%,0%);stroke-opacity:1;stroke-miterlimit:4;" d="M 261.00009 338.000041 L 239.000399 353.49987 L 227.000098 368.999699 L 221.000464 384.999756 L 223.000342 402.999691 L 218.500358 418.999748 L 218.999552 434.999805 L 211.000041 450.999862 L 194.999984 467.500146 L 198.99974 471.499902 L 191.000228 488.000187 L 184.999561 503.500016 L 178.999927 501.500138 L 194.999984 491.499715 L 196.999862 505.499894 " transform="matrix(3.779528,0,0,3.779528,0,0)"/>
<path style="fill:none;stroke-width:2;stroke-linecap:butt;stroke-linejoin:miter;stroke:rgb(0%,0%,0%);stroke-opacity:1;stroke-miterlimit:4;" d="M 211.000041 475.999886 L 202.999495 472.00013 " transform="matrix(3.779528,0,0,3.779528,0,0)"/>
<path style="fill:none;stroke-width:2;stroke-linecap:butt;stroke-linejoin:miter;stroke:rgb(0%,0%,0%);stroke-opacity:1;stroke-miterlimit:4;" d="M 169.499731 507.499772 L 181.500033 491.499715 L 177.500277 475.499658 L 173.499487 459.000407 L 173.000293 443.00035 L 160.999992 427.000293 L 149.499919 410.500008 L 107.500415 395.000179 L 80.000285 393.000301 L 64.000228 398.999935 L 48.500399 401.500041 L 32.500342 402.000269 L 16.500285 398.000513 " transform="matrix(3.779528,0,0,3.779528,0,0)"/>
<path style="fill:none;stroke-width:2;stroke-linecap:butt;stroke-linejoin:miter;stroke:rgb(0%,0%,0%);stroke-opacity:1;stroke-miterlimit:4;" d="M 15.499829 379.50035 L 3.499528 397.500285 L 13.499951 381 L 13.499951 364.999943 L 3.499528 352.999642 " transform="matrix(3.779528,0,0,3.779528,0,0)"/>
<path style="fill:none;stroke-width:2;stroke-linecap:butt;stroke-linejoin:miter;stroke:rgb(0%,0%,0%);stroke-opacity:1;stroke-miterlimit:4;" d="M 1.999878 352.500448 L 17.999935 360.499959 L 34.50022 360.499959 L 50.500277 357.000431 L 66.500334 348.999886 L 82.500391 334.999707 " transform="matrix(3.779528,0,0,3.779528,0,0)"/>
<path style="fill:none;stroke-width:2;stroke-linecap:butt;stroke-linejoin:miter;stroke:rgb(0%,0%,0%);stroke-opacity:1;stroke-miterlimit:4;" d="M 131.499984 320.000106 L 125.50035 336.000163 L 107.500415 352.00022 L 96.999764 368.000277 L 92.49978 383.500106 L 119.99991 395.999601 L 121.499561 402.000269 L 137.499618 404.500374 L 153.00048 416.99987 L 168.500309 438.999561 L 182.500488 438.999561 " transform="matrix(3.779528,0,0,3.779528,0,0)"/>
<path style="fill:none;stroke-width:2;stroke-linecap:butt;stroke-linejoin:miter;stroke:rgb(0%,0%,0%);stroke-opacity:1;stroke-miterlimit:4;" d="M 165.499976 416.499642 L 179.500155 400.000391 " transform="matrix(3.779528,0,0,3.779528,0,0)"/>
<path style="fill:none;stroke-width:2;stroke-linecap:butt;stroke-linejoin:miter;stroke:rgb(0%,0%,0%);stroke-opacity:1;stroke-miterlimit:4;" d="M 165.499976 303.499821 L 149.499919 301.499943 " transform="matrix(3.779528,0,0,3.779528,0,0)"/>
<path style="fill:none;stroke-width:2;stroke-linecap:butt;stroke-linejoin:miter;stroke:rgb(0%,0%,0%);stroke-opacity:1;stroke-miterlimit:4;" d="M 130.999756 310.49991 L 125.000122 325.99974 L 110.999943 341.999797 L 94.999886 357.499626 L 88.500024 373.499683 L 84.000041 389.49974 " transform="matrix(3.779528,0,0,3.779528,0,0)"/>
<path style="fill:none;stroke-width:2;stroke-linecap:butt;stroke-linejoin:miter;stroke:rgb(0%,0%,0%);stroke-opacity:1;stroke-miterlimit:4;" d="M 50.500277 318.000228 L 39.000203 301.499943 " transform="matrix(3.779528,0,0,3.779528,0,0)"/>
<path style="fill:none;stroke-width:2;stroke-linecap:butt;stroke-linejoin:miter;stroke:rgb(0%,0%,0%);stroke-opacity:1;stroke-miterlimit:4;" d="M 35.000448 300.000293 L 42.999959 315.500122 L 51.000505 331.500179 " transform="matrix(3.779528,0,0,3.779528,0,0)"/>
<path style="fill:none;stroke-width:2;stroke-linecap:butt;stroke-linejoin:miter;stroke:rgb(0%,0%,0%);stroke-opacity:1;stroke-miterlimit:4;" d="M 156.500008 225.500448 L 172.500065 243.500382 L 188.500122 255.49965 " transform="matrix(3.779528,0,0,3.779528,0,0)"/>
<path style="fill:none;stroke-width:2;stroke-linecap:butt;stroke-linejoin:miter;stroke:rgb(0%,0%,0%);stroke-opacity:1;stroke-miterlimit:4;" d="M 220.000008 248.499561 L 204.500179 241.000277 L 188.500122 229.500203 L 172.500065 209.000163 " transform="matrix(3.779528,0,0,3.779528,0,0)"/>
<path style="fill:none;stroke-width:2;stroke-linecap:butt;stroke-linejoin:miter;stroke:rgb(0%,0%,0%);stroke-opacity:1;stroke-miterlimit:4;" d="M 168.000081 214.000374 L 184.000138 234.500415 L 200.000195 246.499683 L 216.000252 254.500228 " transform="matrix(3.779528,0,0,3.779528,0,0)"/>
<path style="fill:none;stroke-width:2;stroke-linecap:butt;stroke-linejoin:miter;stroke:rgb(0%,0%,0%);stroke-opacity:1;stroke-miterlimit:4;" d="M 205.000407 259.500439 L 189.00035 249.500016 L 172.500065 235.499837 L 156.500008 217.499902 " transform="matrix(3.779528,0,0,3.779528,0,0)"/>
<path style="fill:none;stroke-width:2;stroke-linecap:butt;stroke-linejoin:miter;stroke:rgb(0%,0%,0%);stroke-opacity:1;stroke-miterlimit:4;" d="M 154.50013 217.499902 L 160.499764 233.499959 L 177.500277 249.500016 " transform="matrix(3.779528,0,0,3.779528,0,0)"/>
<path style="fill:none;stroke-width:2;stroke-linecap:butt;stroke-linejoin:miter;stroke:rgb(0%,0%,0%);stroke-opacity:1;stroke-miterlimit:4;" d="M 166.500431 230.499626 L 184.999561 246.499683 L 209.000163 262.999967 " transform="matrix(3.779528,0,0,3.779528,0,0)"/>
<path style="fill:none;stroke-width:2;stroke-linecap:butt;stroke-linejoin:miter;stroke:rgb(0%,0%,0%);stroke-opacity:1;stroke-miterlimit:4;" d="M 184.500366 182.500488 L 168.999504 176.499821 " transform="matrix(3.779528,0,0,3.779528,0,0)"/>
<path style="fill:none;stroke-width:2;stroke-linecap:butt;stroke-linejoin:miter;stroke:rgb(0%,0%,0%);stroke-opacity:1;stroke-miterlimit:4;" d="M 162.499642 174.499943 L 176.499821 190.5 " transform="matrix(3.779528,0,0,3.779528,0,0)"/>
<path style="fill:none;stroke-width:2;stroke-linecap:butt;stroke-linejoin:miter;stroke:rgb(0%,0%,0%);stroke-opacity:1;stroke-miterlimit:4;" d="M 173.999715 188.500122 L 157.999658 173.000293 " transform="matrix(3.779528,0,0,3.779528,0,0)"/>
<path style="fill:none;stroke-width:2;stroke-linecap:butt;stroke-linejoin:miter;stroke:rgb(0%,0%,0%);stroke-opacity:1;stroke-miterlimit:4;" d="M 157.500464 175.000171 L 173.499487 192.499878 L 189.499544 198.499512 L 205.499601 190.5 " transform="matrix(3.779528,0,0,3.779528,0,0)"/>
<path style="fill:none;stroke-width:2;stroke-linecap:butt;stroke-linejoin:miter;stroke:rgb(0%,0%,0%);stroke-opacity:1;stroke-miterlimit:4;" d="M 194.499756 171.499609 L 178.499699 165.499976 " transform="matrix(3.779528,0,0,3.779528,0,0)"/>
<path style="fill:none;stroke-width:2;stroke-linecap:butt;stroke-linejoin:miter;stroke:rgb(0%,0%,0%);stroke-opacity:1;stroke-miterlimit:4;" d="M 178.000505 153.00048 L 193.999528 159.000114 " transform="matrix(3.779528,0,0,3.779528,0,0)"/>
<path style="fill:none;stroke-width:2;stroke-linecap:butt;stroke-linejoin:miter;stroke:rgb(0%,0%,0%);stroke-opacity:1;stroke-miterlimit:4;" d="M 188.500122 153.999902 L 172.500065 153.499674 " transform="matrix(3.779528,0,0,3.779528,0,0)"/>
<path style="fill:none;stroke-width:2;stroke-linecap:butt;stroke-linejoin:miter;stroke:rgb(0%,0%,0%);stroke-opacity:1;stroke-miterlimit:4;" d="M 175.999593 148.000269 L 175.999593 164.000326 L 191.99965 164.49952 L 207.999707 176.499821 L 236.000065 176.499821 L 239.499593 182.500488 " transform="matrix(3.779528,0,0,3.779528,0,0)"/>
<path style="fill:none;stroke-width:2;stroke-linecap:butt;stroke-linejoin:miter;stroke:rgb(0%,0%,0%);stroke-opacity:1;stroke-miterlimit:4;" d="M 238.500171 186.000016 L 226.49987 192.499878 L 228.999976 176.499821 " transform="matrix(3.779528,0,0,3.779528,0,0)"/>
<path style="fill:none;stroke-width:2;stroke-linecap:butt;stroke-linejoin:miter;stroke:rgb(0%,0%,0%);stroke-opacity:1;stroke-miterlimit:4;" d="M 241.000277 161.50022 L 236.500293 155.99978 L 234.500415 152.000024 L 232.000309 144.000513 L 216.000252 141.999601 " transform="matrix(3.779528,0,0,3.779528,0,0)"/>
<path style="fill:none;stroke-width:2;stroke-linecap:butt;stroke-linejoin:miter;stroke:rgb(0%,0%,0%);stroke-opacity:1;stroke-miterlimit:4;" d="M 210.499813 142.499829 L 211.000041 158.499886 L 209.000163 174.499943 " transform="matrix(3.779528,0,0,3.779528,0,0)"/>
<path style="fill:none;stroke-width:2;stroke-linecap:butt;stroke-linejoin:miter;stroke:rgb(0%,0%,0%);stroke-opacity:1;stroke-miterlimit:4;" d="M 190.5 180.000382 L 173.999715 171.999837 L 157.999658 162.000448 " transform="matrix(3.779528,0,0,3.779528,0,0)"/>
<path style="fill:none;stroke-width:2;stroke-linecap:butt;stroke-linejoin:miter;stroke:rgb(0%,0%,0%);stroke-opacity:1;stroke-miterlimit:4;" d="M 156.500008 153.499674 L 172.500065 139.499495 L 188.500122 143.500285 L 212.499691 137.999845 L 227.99952 138.500073 L 243.500382 140.499951 L 259.500439 138.500073 L 295.999504 138.500073 L 312.499788 136.500195 L 328.499845 142.499829 " transform="matrix(3.779528,0,0,3.779528,0,0)"/>
<path style="fill:none;stroke-width:2;stroke-linecap:butt;stroke-linejoin:miter;stroke:rgb(0%,0%,0%);stroke-opacity:1;stroke-miterlimit:4;" d="M 311.999561 155.99978 L 315.500122 150.000146 L 307.499577 157.999658 L 307.000382 175.999593 L 310.49991 181.500033 L 314.000472 185.499788 " transform="matrix(3.779528,0,0,3.779528,0,0)"/>
<path style="fill:none;stroke-width:2;stroke-linecap:butt;stroke-linejoin:miter;stroke:rgb(0%,0%,0%);stroke-opacity:1;stroke-miterlimit:4;" d="M 306.500155 173.000293 L 322.500212 188.500122 L 338.500269 194.499756 " transform="matrix(3.779528,0,0,3.779528,0,0)"/>
<path style="fill:none;stroke-width:2;stroke-linecap:butt;stroke-linejoin:miter;stroke:rgb(0%,0%,0%);stroke-opacity:1;stroke-miterlimit:4;" d="M 345.500358 189.999772 L 329.500301 172.500065 " transform="matrix(3.779528,0,0,3.779528,0,0)"/>
<path style="fill:none;stroke-width:2;stroke-linecap:butt;stroke-linejoin:miter;stroke:rgb(0%,0%,0%);stroke-opacity:1;stroke-miterlimit:4;" d="M 323.499634 192.499878 L 309.00026 175.999593 L 305.000505 168.000081 " transform="matrix(3.779528,0,0,3.779528,0,0)"/>
<path style="fill:none;stroke-width:2;stroke-linecap:butt;stroke-linejoin:miter;stroke:rgb(0%,0%,0%);stroke-opacity:1;stroke-miterlimit:4;" d="M 292.499976 141.999601 L 308.500033 141.999601 L 324.50009 146.000391 L 334.000285 152.000024 L 329.999495 168.500309 L 339.999919 184.500366 L 336.000163 208.499935 L 325.99974 224.499992 L 311.999561 240.500049 L 298.000415 250.500472 L 313.500244 238.500171 L 329.999495 218.500358 " transform="matrix(3.779528,0,0,3.779528,0,0)"/>
<path style="fill:none;stroke-width:2;stroke-linecap:butt;stroke-linejoin:miter;stroke:rgb(0%,0%,0%);stroke-opacity:1;stroke-miterlimit:4;" d="M 286.000114 191.500456 L 287.999992 175.500399 L 287.999992 143.500285 L 268.000179 143.000057 L 252.50035 141.000179 " transform="matrix(3.779528,0,0,3.779528,0,0)"/>
<path style="fill:none;stroke-width:2;stroke-linecap:butt;stroke-linejoin:miter;stroke:rgb(0%,0%,0%);stroke-opacity:1;stroke-miterlimit:4;" d="M 291.49952 142.499829 L 291.49952 158.499886 L 291.000326 174.499943 L 291.000326 190.5 " transform="matrix(3.779528,0,0,3.779528,0,0)"/>
<path style="fill:none;stroke-width:2;stroke-linecap:butt;stroke-linejoin:miter;stroke:rgb(0%,0%,0%);stroke-opacity:1;stroke-miterlimit:4;" d="M 277.000146 205.999829 L 259.000212 221.499658 L 263.500195 217.499902 " transform="matrix(3.779528,0,0,3.779528,0,0)"/>
<path style="fill:none;stroke-width:2;stroke-linecap:butt;stroke-linejoin:miter;stroke:rgb(0%,0%,0%);stroke-opacity:1;stroke-miterlimit:4;" d="M 271.499707 204.500179 L 253.499772 220.500236 L 257.499528 216.50048 L 273.499585 204.500179 L 275.500496 193.999528 " transform="matrix(3.779528,0,0,3.779528,0,0)"/>
<path style="fill:none;stroke-width:2;stroke-linecap:butt;stroke-linejoin:miter;stroke:rgb(0%,0%,0%);stroke-opacity:1;stroke-miterlimit:4;" d="M 317.5 127.500228 L 302.000171 116.999577 " transform="matrix(3.779528,0,0,3.779528,0,0)"/>
<path style="fill:none;stroke-width:2;stroke-linecap:butt;stroke-linejoin:miter;stroke:rgb(0%,0%,0%);stroke-opacity:1;stroke-miterlimit:4;" d="M 306.500155 114.999699 L 312.499788 130.499528 L 318.500456 138.500073 L 330.499723 154.50013 L 316.499544 158.499886 L 322.500212 170.500187 L 334.999707 186.500244 L 330.999951 210.499813 L 319.499878 225.999642 L 300.999715 241.999699 L 296.999959 246.499683 L 313.000016 232.000309 L 329.000073 212.000496 " transform="matrix(3.779528,0,0,3.779528,0,0)"/>
<path style="fill:none;stroke-width:2;stroke-linecap:butt;stroke-linejoin:miter;stroke:rgb(0%,0%,0%);stroke-opacity:1;stroke-miterlimit:4;" d="M 393.999723 241.500505 L 410.500008 221.499658 L 427.000293 207.500513 " transform="matrix(3.779528,0,0,3.779528,0,0)"/>
<path style="fill:none;stroke-width:2;stroke-linecap:butt;stroke-linejoin:miter;stroke:rgb(0%,0%,0%);stroke-opacity:1;stroke-miterlimit:4;" d="M 407.999902 218.00013 L 392.500073 237.999943 L 408.50013 236.000065 L 436.500488 220.000008 L 420.000203 230.000431 " transform="matrix(3.779528,0,0,3.779528,0,0)"/>
<path style="fill:none;stroke-width:2;stroke-linecap:butt;stroke-linejoin:miter;stroke:rgb(0%,0%,0%);stroke-opacity:1;stroke-miterlimit:4;" d="M 400.000391 245.50026 L 416.000448 227.500326 L 416.000448 218.00013 L 402.000269 234.000187 L 382.000456 248.499561 L 398.000513 220.500236 L 413.999536 206.500057 L 429.999593 206.500057 L 445.500456 200.500423 L 463.500391 208.499935 L 471.499902 212.499691 L 486.999731 216.50048 " transform="matrix(3.779528,0,0,3.779528,0,0)"/>
<path style="fill:none;stroke-width:2;stroke-linecap:butt;stroke-linejoin:miter;stroke:rgb(0%,0%,0%);stroke-opacity:1;stroke-miterlimit:4;" d="M 482.499748 218.00013 L 499.000033 230.000431 " transform="matrix(3.779528,0,0,3.779528,0,0)"/>
<path style="fill:none;stroke-width:2;stroke-linecap:butt;stroke-linejoin:miter;stroke:rgb(0%,0%,0%);stroke-opacity:1;stroke-miterlimit:4;" d="M 486.499504 252.000122 L 470.50048 236.000065 L 454.500423 227.500326 L 438.500366 243.500382 L 450.000439 227.500326 " transform="matrix(3.779528,0,0,3.779528,0,0)"/>
<path style="fill:none;stroke-width:2;stroke-linecap:butt;stroke-linejoin:miter;stroke:rgb(0%,0%,0%);stroke-opacity:1;stroke-miterlimit:4;" d="M 446.499878 223.000342 L 436.500488 239.499593 L 441.999894 231.500081 L 452.000317 219.49978 L 468.000374 218.00013 L 470.000252 225.999642 L 473.49978 232.000309 L 477.499536 229.500203 L 493.499593 233.499959 L 499.000033 239.499593 L 499.000033 247.500138 " transform="matrix(3.779528,0,0,3.779528,0,0)"/>
<path style="fill:none;stroke-width:2;stroke-linecap:butt;stroke-linejoin:miter;stroke:rgb(0%,0%,0%);stroke-opacity:1;stroke-miterlimit:4;" d="M 485.500081 283.500008 L 473.49978 299.500065 L 472.00013 317.5 L 481.99952 313.500244 L 497.999577 293.500431 L 509.999878 289.499642 " transform="matrix(3.779528,0,0,3.779528,0,0)"/>
<path style="fill:none;stroke-width:2;stroke-linecap:butt;stroke-linejoin:miter;stroke:rgb(0%,0%,0%);stroke-opacity:1;stroke-miterlimit:4;" d="M 511.000334 296.499731 L 502.999788 312.499788 L 495.000277 312.499788 L 490.999487 327.999618 L 495.000277 309.999683 " transform="matrix(3.779528,0,0,3.779528,0,0)"/>
<path style="fill:none;stroke-width:2;stroke-linecap:butt;stroke-linejoin:miter;stroke:rgb(0%,0%,0%);stroke-opacity:1;stroke-miterlimit:4;" d="M 509.000456 309.500488 L 493.499593 329.999495 L 504.000244 320.000106 L 513.999634 304.000049 " transform="matrix(3.779528,0,0,3.779528,0,0)"/>
<path style="fill:none;stroke-width:2;stroke-linecap:butt;stroke-linejoin:miter;stroke:rgb(0%,0%,0%);stroke-opacity:1;stroke-miterlimit:4;" d="M 504.999666 296.499731 L 488.999609 300.499487 L 482.499748 316.499544 L 480.49987 332.499601 L 480.49987 348.499658 L 474.500236 364.499715 L 474.500236 377.999666 L 475.999886 370.000155 L 491.999943 359.999731 L 477.999764 372.000033 L 484.499626 373.99991 " transform="matrix(3.779528,0,0,3.779528,0,0)"/>
<path style="fill:none;stroke-width:2;stroke-linecap:butt;stroke-linejoin:miter;stroke:rgb(0%,0%,0%);stroke-opacity:1;stroke-miterlimit:4;" d="M 475.999886 289.499642 L 472.00013 309.999683 L 456.000073 319.499878 L 440.000016 321.499756 L 423.999959 311.500366 L 407.999902 295.500309 L 391.999845 277.500374 " transform="matrix(3.779528,0,0,3.779528,0,0)"/>
<path style="fill:none;stroke-width:2;stroke-linecap:butt;stroke-linejoin:miter;stroke:rgb(0%,0%,0%);stroke-opacity:1;stroke-miterlimit:4;" d="M 386.000212 296.499731 L 391.999845 313.000016 " transform="matrix(3.779528,0,0,3.779528,0,0)"/>
<path style="fill:none;stroke-width:2;stroke-linecap:butt;stroke-linejoin:miter;stroke:rgb(0%,0%,0%);stroke-opacity:1;stroke-miterlimit:4;" d="M 293.000203 337.499813 L 316.999772 353.49987 L 329.000073 369.499927 L 332.499601 385.499984 L 332.000407 400.999813 L 336.000163 416.99987 L 329.999495 432.999927 L 329.999495 439.499788 L 323.999862 456.000073 L 327.999618 472.500358 L 325.99974 480.49987 L 316.00035 495.999699 L 316.00035 503.500016 L 321.999984 509.49965 " transform="matrix(3.779528,0,0,3.779528,0,0)"/>
<path style="fill:none;stroke-width:2;stroke-linecap:butt;stroke-linejoin:miter;stroke:rgb(0%,0%,0%);stroke-opacity:1;stroke-miterlimit:4;" d="M 293.000203 494.500049 L 280.999902 478.499992 " transform="matrix(3.779528,0,0,3.779528,0,0)"/>
<path style="fill:none;stroke-width:2;stroke-linecap:butt;stroke-linejoin:miter;stroke:rgb(0%,0%,0%);stroke-opacity:1;stroke-miterlimit:4;" d="M 293.999626 506.50035 L 304.000049 490.500293 L 298.000415 486.499504 L 299.500065 470.999674 L 303.499821 454.999618 L 314.999894 438.999561 L 327.000195 422.500309 L 325.000317 406.500252 L 327.500423 389.999967 L 323.499634 373.499683 L 311.500366 357.499626 L 287.499764 341.499569 " transform="matrix(3.779528,0,0,3.779528,0,0)"/>
<path style="fill:none;stroke-width:2;stroke-linecap:butt;stroke-linejoin:miter;stroke:rgb(0%,0%,0%);stroke-opacity:1;stroke-miterlimit:4;" d="M 266.000301 341.499569 L 241.999699 357.499626 L 232.000309 373.000488 L 223.999764 388.999512 L 223.999764 407.00048 L 225.999642 422.999504 L 227.99952 438.999561 L 239.999821 445.000228 L 243.500382 461.500513 L 235.499837 477.499536 L 221.000464 487.499959 L 223.499536 504.000244 " transform="matrix(3.779528,0,0,3.779528,0,0)"/>
<path style="fill:none;stroke-width:2;stroke-linecap:butt;stroke-linejoin:miter;stroke:rgb(0%,0%,0%);stroke-opacity:1;stroke-miterlimit:4;" d="M 202.000073 203.999951 L 186.000016 202.000073 L 169.999959 198.499512 L 153.999902 184.500366 " transform="matrix(3.779528,0,0,3.779528,0,0)"/>
<path style="fill:none;stroke-width:2;stroke-linecap:butt;stroke-linejoin:miter;stroke:rgb(0%,0%,0%);stroke-opacity:1;stroke-miterlimit:4;" d="M 151.499797 173.000293 L 155.499552 177.000049 L 171.999837 193.000106 L 173.999715 213.500146 L 186.500244 230.000431 L 209.000163 246.000488 " transform="matrix(3.779528,0,0,3.779528,0,0)"/>
<path style="fill:none;stroke-width:2;stroke-linecap:butt;stroke-linejoin:miter;stroke:rgb(0%,0%,0%);stroke-opacity:1;stroke-miterlimit:4;" d="M 150.000146 155.499552 L 165.499976 137.499618 L 181.500033 135.999967 L 197.50009 146.000391 L 205.499601 148.000269 L 205.999829 164.49952 L 207.999707 178.499699 L 209.999585 194.499756 L 212.000496 205.000407 L 244.499805 205.000407 L 262.49974 200.500423 L 278.499797 198.499512 L 293.999626 191.99965 L 297.500187 198.000317 L 316.999772 191.99965 L 333.500057 198.000317 " transform="matrix(3.779528,0,0,3.779528,0,0)"/>
<path style="fill:none;stroke-width:2;stroke-linecap:butt;stroke-linejoin:miter;stroke:rgb(0%,0%,0%);stroke-opacity:1;stroke-miterlimit:4;" d="M 325.499512 114.500505 L 309.999683 100.99952 L 293.999626 93.000008 " transform="matrix(3.779528,0,0,3.779528,0,0)"/>
<path style="fill:none;stroke-width:2;stroke-linecap:butt;stroke-linejoin:miter;stroke:rgb(0%,0%,0%);stroke-opacity:1;stroke-miterlimit:4;" d="M 293.500431 91.500358 L 321.499756 107.500415 " transform="matrix(3.779528,0,0,3.779528,0,0)"/>
<path style="fill:none;stroke-width:2;stroke-linecap:butt;stroke-linejoin:miter;stroke:rgb(0%,0%,0%);stroke-opacity:1;stroke-miterlimit:4;" d="M 327.999618 110.999943 L 311.999561 99.49987 L 296.499731 91.00013 L 280.499674 89.000252 " transform="matrix(3.779528,0,0,3.779528,0,0)"/>
<path style="fill:none;stroke-width:2;stroke-linecap:butt;stroke-linejoin:miter;stroke:rgb(0%,0%,0%);stroke-opacity:1;stroke-miterlimit:4;" d="M 280.00048 88.500024 L 309.500488 103.999854 L 327.500423 119.499683 " transform="matrix(3.779528,0,0,3.779528,0,0)"/>
<path style="fill:none;stroke-width:2;stroke-linecap:butt;stroke-linejoin:miter;stroke:rgb(0%,0%,0%);stroke-opacity:1;stroke-miterlimit:4;" d="M 282.99978 187.000472 L 275.000269 181.500033 L 264.999845 180.000382 L 252.999544 196.000439 L 236.999487 196.000439 L 221.000464 198.000317 L 216.999674 193.999528 L 200.500423 195.500212 L 200.500423 189.999772 L 198.000317 174.499943 L 202.000073 152.500252 L 185.499788 152.000024 L 178.000505 135.999967 " transform="matrix(3.779528,0,0,3.779528,0,0)"/>
<path style="fill:none;stroke-width:2;stroke-linecap:butt;stroke-linejoin:miter;stroke:rgb(0%,0%,0%);stroke-opacity:1;stroke-miterlimit:4;" d="M 173.000293 134.500317 L 153.00048 150.500374 L 150.999569 166.000203 L 153.00048 182.00026 L 168.500309 198.000317 L 166.500431 211.500269 L 176.499821 227.500326 L 194.499756 243.999577 " transform="matrix(3.779528,0,0,3.779528,0,0)"/>
<path style="fill:none;stroke-width:2;stroke-linecap:butt;stroke-linejoin:miter;stroke:rgb(0%,0%,0%);stroke-opacity:1;stroke-miterlimit:4;" d="M 109.999487 237.499715 L 91.999552 219.49978 L 76.499723 218.00013 L 64.500456 214.000374 L 48.500399 216.50048 L 32.500342 216.000252 L 16.500285 225.999642 L 4.499984 232.000309 L 32.000114 216.000252 L 53.999805 191.99965 L 53.999805 175.500399 L 57.999561 159.500342 L 57.999561 143.000057 L 57.500366 127.500228 L 57.000138 111.500171 L 57.500366 95.500114 L 55.500488 79.500057 L 55.500488 47.499943 L 41.500309 33.999992 " transform="matrix(3.779528,0,0,3.779528,0,0)"/>
<path style="fill:none;stroke-width:2;stroke-linecap:butt;stroke-linejoin:miter;stroke:rgb(0%,0%,0%);stroke-opacity:1;stroke-miterlimit:4;" d="M 35.000448 20.500041 L 46.999715 26.499674 L 42.999959 34.50022 L 51.499699 50.500277 L 51.499699 82.500391 L 53.000382 98.500448 L 53.000382 114.500505 " transform="matrix(3.779528,0,0,3.779528,0,0)"/>
<path style="fill:none;stroke-width:2;stroke-linecap:butt;stroke-linejoin:miter;stroke:rgb(0%,0%,0%);stroke-opacity:1;stroke-miterlimit:4;" d="M 91.999552 139.499495 L 107.999609 150.000146 L 123.999666 130.499528 L 109.999487 138.500073 L 97.499992 144.000513 L 95.500114 150.000146 L 112.000399 135.999967 L 125.999544 125.50035 L 113.500049 141.000179 " transform="matrix(3.779528,0,0,3.779528,0,0)"/>
<path style="fill:none;stroke-width:2;stroke-linecap:butt;stroke-linejoin:miter;stroke:rgb(0%,0%,0%);stroke-opacity:1;stroke-miterlimit:4;" d="M 99.49987 156.500008 L 91.500358 140.499951 " transform="matrix(3.779528,0,0,3.779528,0,0)"/>
<path style="fill:none;stroke-width:2;stroke-linecap:butt;stroke-linejoin:miter;stroke:rgb(0%,0%,0%);stroke-opacity:1;stroke-miterlimit:4;" d="M 60.499666 175.500399 L 60.000472 191.500456 L 71.99974 207.500513 L 100.000098 223.000342 L 109.999487 239.000399 L 114.500505 248.499561 L 120.500138 264.499618 L 121.999788 280.499674 L 109.999487 300.499487 L 100.000098 316.499544 L 89.999674 332.499601 L 78.000407 348.000464 L 49.499821 364.499715 " transform="matrix(3.779528,0,0,3.779528,0,0)"/>
<path style="fill:none;stroke-width:2;stroke-linecap:butt;stroke-linejoin:miter;stroke:rgb(0%,0%,0%);stroke-opacity:1;stroke-miterlimit:4;" d="M 189.00035 189.00035 L 189.00035 189.499544 L 177.000049 185.499788 L 164.999748 169.999959 L 155.000358 156.500008 L 171.000415 140.499951 " transform="matrix(3.779528,0,0,3.779528,0,0)"/>
<path style="fill:none;stroke-width:2;stroke-linecap:butt;stroke-linejoin:miter;stroke:rgb(0%,0%,0%);stroke-opacity:1;stroke-miterlimit:4;" d="M 198.000317 87.499569 L 182.500488 97.499992 L 166.000203 113.500049 L 155.99978 134.00009 L 169.999959 118.000033 L 186.000016 101.499748 L 209.999585 85.499691 " transform="matrix(3.779528,0,0,3.779528,0,0)"/>
<path style="fill:none;stroke-width:2;stroke-linecap:butt;stroke-linejoin:miter;stroke:rgb(0%,0%,0%);stroke-opacity:1;stroke-miterlimit:4;" d="M 208.499935 87.499569 L 192.499878 97.499992 L 175.999593 109.500293 L 159.999536 129.500106 L 146.000391 145.500163 L 152.000024 129.500106 L 166.000203 113.500049 L 182.00026 97.499992 L 207.999707 80.999707 " transform="matrix(3.779528,0,0,3.779528,0,0)"/>
<path style="fill:none;stroke-width:2;stroke-linecap:butt;stroke-linejoin:miter;stroke:rgb(0%,0%,0%);stroke-opacity:1;stroke-miterlimit:4;" d="M 159.500342 83.499813 L 155.499552 73.500423 L 159.999536 87.499569 L 150.000146 71.499512 " transform="matrix(3.779528,0,0,3.779528,0,0)"/>
<path style="fill:none;stroke-width:2;stroke-linecap:butt;stroke-linejoin:miter;stroke:rgb(0%,0%,0%);stroke-opacity:1;stroke-miterlimit:4;" d="M 123.500472 75.999495 L 123.999666 85.999919 L 130.499528 69.999862 L 122.500016 83.499813 " transform="matrix(3.779528,0,0,3.779528,0,0)"/>
<path style="fill:none;stroke-width:2;stroke-linecap:butt;stroke-linejoin:miter;stroke:rgb(0%,0%,0%);stroke-opacity:1;stroke-miterlimit:4;" d="M 56.49991 41.500309 L 72.499967 41.500309 L 88.500024 44.000415 L 136.500195 44.000415 L 152.500252 37.999748 L 169.999959 46.000293 L 186.000016 46.000293 L 202.000073 45.500065 L 234.000187 45.500065 L 250.000244 46.000293 L 346.49978 46.000293 L 361.999609 41.999504 L 426.500065 41.999504 L 441.999894 33.999992 L 456.000073 27.50013 " transform="matrix(3.779528,0,0,3.779528,0,0)"/>
<path style="fill:none;stroke-width:2;stroke-linecap:butt;stroke-linejoin:miter;stroke:rgb(0%,0%,0%);stroke-opacity:1;stroke-miterlimit:4;" d="M 459.499601 26.999902 L 455.499845 59.000016 L 455.499845 75.500301 L 454.000195 91.999552 L 454.000195 108.499837 L 450.000439 140.499951 L 445.99965 156.500008 L 447.000106 188.500122 L 456.999495 192.499878 L 472.500358 200.500423 L 488.500415 210.499813 L 504.500472 222.500114 " transform="matrix(3.779528,0,0,3.779528,0,0)"/>
<path style="fill:none;stroke-width:2;stroke-linecap:butt;stroke-linejoin:miter;stroke:rgb(0%,0%,0%);stroke-opacity:1;stroke-miterlimit:4;" d="M 483.500203 251.499894 L 467.500146 234.999609 L 451.50009 218.999552 " transform="matrix(3.779528,0,0,3.779528,0,0)"/>
<path style="fill:none;stroke-width:2;stroke-linecap:butt;stroke-linejoin:miter;stroke:rgb(0%,0%,0%);stroke-opacity:1;stroke-miterlimit:4;" d="M 463.999585 202.999495 L 490.000065 218.999552 " transform="matrix(3.779528,0,0,3.779528,0,0)"/>
<path style="fill:none;stroke-width:2;stroke-linecap:butt;stroke-linejoin:miter;stroke:rgb(0%,0%,0%);stroke-opacity:1;stroke-miterlimit:4;" d="M 470.50048 200.500423 L 494.500049 216.50048 L 504.500472 232.499504 L 500.499683 242.499927 L 500.499683 256.500106 L 492.500171 272.500163 L 481.99952 280.00048 L 470.000252 295.999504 L 477.999764 303.499821 L 468.000374 305.999927 L 484.000431 287.999992 L 501.500138 277.999569 L 506.999544 263.500195 " transform="matrix(3.779528,0,0,3.779528,0,0)"/>
<path style="fill:none;stroke-width:2;stroke-linecap:butt;stroke-linejoin:miter;stroke:rgb(0%,0%,0%);stroke-opacity:1;stroke-miterlimit:4;" d="M 444.5 137.000423 L 447.000106 121.000366 " transform="matrix(3.779528,0,0,3.779528,0,0)"/>
</g>
</svg>
