<?xml version="1.0" encoding="UTF-8"?>
<svg xmlns="http://www.w3.org/2000/svg" xmlns:xlink="http://www.w3.org/1999/xlink" width="1935.11811" height="1935.11811" viewBox="0 0 1935.11811 1935.11811" version="1.1">
<g id="surface1">
<path style="fill:none;stroke-width:2;stroke-linecap:butt;stroke-linejoin:miter;stroke:rgb(0%,0%,0%);stroke-opacity:1;stroke-miterlimit:4;" d="M 17.499707 2.500106 L 17.499707 18.500163 L 21.500496 34.50022 L 27.50013 50.500277 L 37.49952 66.999528 L 47.499943 82.999585 L 45.500065 98.999642 L 41.500309 114.999699 L 39.000203 130.999756 L 37.000326 146.499585 L 34.50022 162.499642 L 35.000448 178.499699 L 35.000448 210.499813 L 35.499642 225.999642 L 35.499642 304.500277 L 37.999748 320.500334 L 37.999748 336.500391 L 38.499976 352.500448 L 42.499731 368.999699 L 46.499487 384.999756 L 66.500334 416.99987 L 64.500456 433.500155 L 58.499788 449.500212 L 50.500277 465.500269 L 42.499731 481.500326 L 30.500464 497.999577 L 21.999691 508 L 37.49952 488.000187 L 53.499577 456.000073 " transform="matrix(3.779528,0,0,3.779528,0,0)"/>
<path style="fill:none;stroke-width:2;stroke-linecap:butt;stroke-linejoin:miter;stroke:rgb(0%,0%,0%);stroke-opacity:1;stroke-miterlimit:4;" d="M 69.000439 440.000016 L 53.000382 473.49978 L 37.000326 499.50026 L 30.999658 504.999666 L 44.999837 488.999609 L 52.500155 472.999552 L 60.999894 456.999495 L 69.000439 441.000472 L 73.000195 425.000415 L 60.999894 403.499919 L 44.999837 377.999666 " transform="matrix(3.779528,0,0,3.779528,0,0)"/>
<path style="fill:none;stroke-width:2;stroke-linecap:butt;stroke-linejoin:miter;stroke:rgb(0%,0%,0%);stroke-opacity:1;stroke-miterlimit:4;" d="M 48.000171 373.499683 L 64.000228 399.500163 L 80.000285 414.999992 L 96.000342 425.000415 " transform="matrix(3.779528,0,0,3.779528,0,0)"/>
<path style="fill:none;stroke-width:2;stroke-linecap:butt;stroke-linejoin:miter;stroke:rgb(0%,0%,0%);stroke-opacity:1;stroke-miterlimit:4;" d="M 87.999797 427.999715 L 71.99974 418.49952 " transform="matrix(3.779528,0,0,3.779528,0,0)"/>
<path style="fill:none;stroke-width:2;stroke-linecap:butt;stroke-linejoin:miter;stroke:rgb(0%,0%,0%);stroke-opacity:1;stroke-miterlimit:4;" d="M 78.999829 457.999951 L 69.000439 473.49978 L 62.999772 489.499837 L 75.000073 463.999585 " transform="matrix(3.779528,0,0,3.779528,0,0)"/>
<path style="fill:none;stroke-width:2;stroke-linecap:butt;stroke-linejoin:miter;stroke:rgb(0%,0%,0%);stroke-opacity:1;stroke-miterlimit:4;" d="M 80.999707 465.500269 L 71.000317 481.500326 " transform="matrix(3.779528,0,0,3.779528,0,0)"/>
<path style="fill:none;stroke-width:2;stroke-linecap:butt;stroke-linejoin:miter;stroke:rgb(0%,0%,0%);stroke-opacity:1;stroke-miterlimit:4;" d="M 100.000098 479.999642 L 89.999674 495.999699 L 89.50048 508 " transform="matrix(3.779528,0,0,3.779528,0,0)"/>
<path style="fill:none;stroke-width:2;stroke-linecap:butt;stroke-linejoin:miter;stroke:rgb(0%,0%,0%);stroke-opacity:1;stroke-miterlimit:4;" d="M 157.500464 445.99965 L 173.499487 436.00026 L 189.999772 432.000505 " transform="matrix(3.779528,0,0,3.779528,0,0)"/>
<path style="fill:none;stroke-width:2;stroke-linecap:butt;stroke-linejoin:miter;stroke:rgb(0%,0%,0%);stroke-opacity:1;stroke-miterlimit:4;" d="M 182.00026 416.499642 L 155.99978 432.999927 L 145.500163 448.999984 L 141.500407 464.499813 L 143.500285 480.49987 L 149.499919 495.999699 L 164.000326 506.000122 " transform="matrix(3.779528,0,0,3.779528,0,0)"/>
<path style="fill:none;stroke-width:2;stroke-linecap:butt;stroke-linejoin:miter;stroke:rgb(0%,0%,0%);stroke-opacity:1;stroke-miterlimit:4;" d="M 157.999658 438.999561 L 168.000081 436.999683 L 159.999536 437.49991 L 147.500041 441.499666 L 163.500098 425.999837 L 178.999927 418.000326 L 194.999984 413.999536 " transform="matrix(3.779528,0,0,3.779528,0,0)"/>
<path style="fill:none;stroke-width:2;stroke-linecap:butt;stroke-linejoin:miter;stroke:rgb(0%,0%,0%);stroke-opacity:1;stroke-miterlimit:4;" d="M 221.000464 398.999935 L 205.000407 384.999756 L 189.00035 354.99952 " transform="matrix(3.779528,0,0,3.779528,0,0)"/>
<path style="fill:none;stroke-width:2;stroke-linecap:butt;stroke-linejoin:miter;stroke:rgb(0%,0%,0%);stroke-opacity:1;stroke-miterlimit:4;" d="M 192.499878 354.500326 L 198.99974 370.500382 L 211.000041 386.500439 L 232.999731 402.500496 " transform="matrix(3.779528,0,0,3.779528,0,0)"/>
<path style="fill:none;stroke-width:2;stroke-linecap:butt;stroke-linejoin:miter;stroke:rgb(0%,0%,0%);stroke-opacity:1;stroke-miterlimit:4;" d="M 243.999577 430.499821 L 248.000366 446.499878 L 246.000488 461.999707 L 250.000244 479.999642 L 248.000366 489.499837 L 238.500171 504.999666 L 230.499626 505.499894 L 238.500171 495.999699 " transform="matrix(3.779528,0,0,3.779528,0,0)"/>
<path style="fill:none;stroke-width:2;stroke-linecap:butt;stroke-linejoin:miter;stroke:rgb(0%,0%,0%);stroke-opacity:1;stroke-miterlimit:4;" d="M 252.000122 510.500106 L 268.000179 504.999666 L 289.499642 511.000334 " transform="matrix(3.779528,0,0,3.779528,0,0)"/>
<path style="fill:none;stroke-width:2;stroke-linecap:butt;stroke-linejoin:miter;stroke:rgb(0%,0%,0%);stroke-opacity:1;stroke-miterlimit:4;" d="M 252.50035 474.000008 L 252.999544 457.499723 " transform="matrix(3.779528,0,0,3.779528,0,0)"/>
<path style="fill:none;stroke-width:2;stroke-linecap:butt;stroke-linejoin:miter;stroke:rgb(0%,0%,0%);stroke-opacity:1;stroke-miterlimit:4;" d="M 243.999577 431.000049 L 259.999634 432.999927 L 276.499919 432.999927 " transform="matrix(3.779528,0,0,3.779528,0,0)"/>
<path style="fill:none;stroke-width:2;stroke-linecap:butt;stroke-linejoin:miter;stroke:rgb(0%,0%,0%);stroke-opacity:1;stroke-miterlimit:4;" d="M 289.499642 445.000228 L 305.499699 440.500244 L 321.499756 432.999927 L 337.499813 427.000293 L 355.999976 427.000293 L 370.000155 438.999561 L 375.999788 454.500423 L 378.499894 470.000252 L 370.500382 485.500081 L 366.499593 503.500016 L 356.500203 507.499772 L 379.000122 471.499902 L 375.000366 487.499959 L 364.999943 505.499894 " transform="matrix(3.779528,0,0,3.779528,0,0)"/>
<path style="fill:none;stroke-width:2;stroke-linecap:butt;stroke-linejoin:miter;stroke:rgb(0%,0%,0%);stroke-opacity:1;stroke-miterlimit:4;" d="M 420.999626 480.49987 L 404.999569 495.999699 L 397.000057 509.999878 L 413.000114 485.500081 L 428.499943 481.500326 " transform="matrix(3.779528,0,0,3.779528,0,0)"/>
<path style="fill:none;stroke-width:2;stroke-linecap:butt;stroke-linejoin:miter;stroke:rgb(0%,0%,0%);stroke-opacity:1;stroke-miterlimit:4;" d="M 455.499845 438.999561 L 471.499902 464.499813 L 487.499959 486.499504 " transform="matrix(3.779528,0,0,3.779528,0,0)"/>
<path style="fill:none;stroke-width:2;stroke-linecap:butt;stroke-linejoin:miter;stroke:rgb(0%,0%,0%);stroke-opacity:1;stroke-miterlimit:4;" d="M 488.999609 503.500016 L 481.000098 488.000187 L 468.999797 472.00013 L 456.999495 456.500301 L 448.999984 440.500244 L 448.999984 424.500187 " transform="matrix(3.779528,0,0,3.779528,0,0)"/>
<path style="fill:none;stroke-width:2;stroke-linecap:butt;stroke-linejoin:miter;stroke:rgb(0%,0%,0%);stroke-opacity:1;stroke-miterlimit:4;" d="M 447.000106 422.500309 L 434.999805 434.499577 L 446.499878 432.499699 L 462.499935 462.499935 L 478.499992 486.499504 " transform="matrix(3.779528,0,0,3.779528,0,0)"/>
<path style="fill:none;stroke-width:2;stroke-linecap:butt;stroke-linejoin:miter;stroke:rgb(0%,0%,0%);stroke-opacity:1;stroke-miterlimit:4;" d="M 456.500301 403.499919 L 472.500358 373.499683 " transform="matrix(3.779528,0,0,3.779528,0,0)"/>
<path style="fill:none;stroke-width:2;stroke-linecap:butt;stroke-linejoin:miter;stroke:rgb(0%,0%,0%);stroke-opacity:1;stroke-miterlimit:4;" d="M 429.000171 318.000228 L 445.000228 293.999626 L 446.499878 277.999569 L 447.999528 261.500317 L 438.000138 245.000033 L 407.499674 228.999976 L 391.499618 232.999731 " transform="matrix(3.779528,0,0,3.779528,0,0)"/>
<path style="fill:none;stroke-width:2;stroke-linecap:butt;stroke-linejoin:miter;stroke:rgb(0%,0%,0%);stroke-opacity:1;stroke-miterlimit:4;" d="M 388.500317 244.499805 L 360.499959 260.499862 " transform="matrix(3.779528,0,0,3.779528,0,0)"/>
<path style="fill:none;stroke-width:2;stroke-linecap:butt;stroke-linejoin:miter;stroke:rgb(0%,0%,0%);stroke-opacity:1;stroke-miterlimit:4;" d="M 377.500472 239.499593 L 373.499683 233.499959 L 351.499992 249.500016 L 349.500114 265.500073 L 366.000399 255.49965 L 382.000456 245.50026 L 398.499707 241.500505 L 414.999992 243.999577 L 431.500277 252.000122 " transform="matrix(3.779528,0,0,3.779528,0,0)"/>
<path style="fill:none;stroke-width:2;stroke-linecap:butt;stroke-linejoin:miter;stroke:rgb(0%,0%,0%);stroke-opacity:1;stroke-miterlimit:4;" d="M 422.000081 250.500472 L 409.99978 236.500293 " transform="matrix(3.779528,0,0,3.779528,0,0)"/>
<path style="fill:none;stroke-width:2;stroke-linecap:butt;stroke-linejoin:miter;stroke:rgb(0%,0%,0%);stroke-opacity:1;stroke-miterlimit:4;" d="M 451.50009 273.499585 L 449.500212 289.499642 L 443.999772 305.499699 L 429.999593 321.999984 L 403.499919 338.000041 " transform="matrix(3.779528,0,0,3.779528,0,0)"/>
<path style="fill:none;stroke-width:2;stroke-linecap:butt;stroke-linejoin:miter;stroke:rgb(0%,0%,0%);stroke-opacity:1;stroke-miterlimit:4;" d="M 363.999487 335.499935 L 379.50035 339.499691 L 395.500407 339.999919 L 411.500464 329.999495 L 437.49991 304.000049 " transform="matrix(3.779528,0,0,3.779528,0,0)"/>
<path style="fill:none;stroke-width:2;stroke-linecap:butt;stroke-linejoin:miter;stroke:rgb(0%,0%,0%);stroke-opacity:1;stroke-miterlimit:4;" d="M 439.499788 309.999683 L 423.999959 327.999618 L 406.000024 332.000407 L 389.999967 334.000285 L 357.499626 334.000285 L 341.999797 372.000033 L 325.99974 395.999601 L 310.49991 413.999536 L 289.000448 408.50013 L 307.000382 392.500073 L 316.999772 376.500016 L 313.500244 382.49965 L 297.500187 402.000269 L 287.499764 409.99978 L 271.000513 413.999536 L 255.000456 413.999536 L 218.999552 398.000513 L 202.500301 382.000456 L 191.99965 365.500171 L 191.99965 348.999886 L 189.499544 332.999829 L 189.499544 316.999772 L 195.500212 300.999715 L 207.500513 283.500008 L 207.500513 271.499707 L 211.500269 261.500317 L 212.000496 245.50026 L 214.000374 230.000431 L 218.500358 230.000431 L 218.999552 212.499691 L 202.999495 210.499813 L 187.499666 196.499634 " transform="matrix(3.779528,0,0,3.779528,0,0)"/>
<path style="fill:none;stroke-width:2;stroke-linecap:butt;stroke-linejoin:miter;stroke:rgb(0%,0%,0%);stroke-opacity:1;stroke-miterlimit:4;" d="M 184.000138 187.999894 L 200.000195 182.500488 L 216.000252 191.99965 L 231.500081 191.99965 L 247.500138 193.500334 " transform="matrix(3.779528,0,0,3.779528,0,0)"/>
<path style="fill:none;stroke-width:2;stroke-linecap:butt;stroke-linejoin:miter;stroke:rgb(0%,0%,0%);stroke-opacity:1;stroke-miterlimit:4;" d="M 269.499829 203.999951 L 285.499886 209.999585 L 301.499943 207.999707 " transform="matrix(3.779528,0,0,3.779528,0,0)"/>
<path style="fill:none;stroke-width:2;stroke-linecap:butt;stroke-linejoin:miter;stroke:rgb(0%,0%,0%);stroke-opacity:1;stroke-miterlimit:4;" d="M 305.499699 202.000073 L 295.500309 196.000439 L 304.000049 168.500309 L 311.999561 152.500252 L 314.000472 135.999967 L 304.000049 131.499984 " transform="matrix(3.779528,0,0,3.779528,0,0)"/>
<path style="fill:none;stroke-width:2;stroke-linecap:butt;stroke-linejoin:miter;stroke:rgb(0%,0%,0%);stroke-opacity:1;stroke-miterlimit:4;" d="M 297.500187 130.499528 L 313.500244 124.499894 L 305.499699 137.000423 L 307.499577 153.00048 L 295.000081 168.999504 L 280.499674 186.500244 L 286.500342 177.000049 L 302.500399 158.499886 L 312.499788 152.500252 " transform="matrix(3.779528,0,0,3.779528,0,0)"/>
<path style="fill:none;stroke-width:2;stroke-linecap:butt;stroke-linejoin:miter;stroke:rgb(0%,0%,0%);stroke-opacity:1;stroke-miterlimit:4;" d="M 338.000041 148.000269 L 338.000041 180.000382 L 334.000285 196.499634 L 332.000407 212.499691 L 332.000407 228.499748 L 335.499935 244.499805 L 339.000496 260.499862 L 350.999764 250.500472 L 367.500049 237.999943 L 383.500106 230.000431 L 399.500163 227.99952 L 415.50022 232.499504 L 431.500277 240.500049 L 447.999528 261.00009 " transform="matrix(3.779528,0,0,3.779528,0,0)"/>
<path style="fill:none;stroke-width:2;stroke-linecap:butt;stroke-linejoin:miter;stroke:rgb(0%,0%,0%);stroke-opacity:1;stroke-miterlimit:4;" d="M 357.999854 333.500057 L 352.500448 349.500114 L 344.499902 365.500171 L 336.500391 382.000456 L 324.50009 398.000513 L 310.49991 413.999536 L 324.50009 416.000448 L 340.500146 418.000326 L 355.999976 423.499731 L 371.499805 437.49991 " transform="matrix(3.779528,0,0,3.779528,0,0)"/>
<path style="fill:none;stroke-width:2;stroke-linecap:butt;stroke-linejoin:miter;stroke:rgb(0%,0%,0%);stroke-opacity:1;stroke-miterlimit:4;" d="M 354.500326 438.000138 L 338.500269 431.500277 " transform="matrix(3.779528,0,0,3.779528,0,0)"/>
<path style="fill:none;stroke-width:2;stroke-linecap:butt;stroke-linejoin:miter;stroke:rgb(0%,0%,0%);stroke-opacity:1;stroke-miterlimit:4;" d="M 321.499756 437.49991 L 337.499813 437.49991 L 353.49987 441.499666 " transform="matrix(3.779528,0,0,3.779528,0,0)"/>
<path style="fill:none;stroke-width:2;stroke-linecap:butt;stroke-linejoin:miter;stroke:rgb(0%,0%,0%);stroke-opacity:1;stroke-miterlimit:4;" d="M 304.500277 382.999878 L 288.50022 400.999813 L 272.500163 407.499674 L 256.500106 407.499674 L 239.999821 402.999691 L 223.999764 393.000301 L 207.999707 377.500472 L 191.99965 345.500358 " transform="matrix(3.779528,0,0,3.779528,0,0)"/>
<path style="fill:none;stroke-width:2;stroke-linecap:butt;stroke-linejoin:miter;stroke:rgb(0%,0%,0%);stroke-opacity:1;stroke-miterlimit:4;" d="M 168.500309 338.500269 L 175.000171 354.500326 L 182.999683 370.999577 L 194.999984 387.499862 L 207.000285 403.499919 " transform="matrix(3.779528,0,0,3.779528,0,0)"/>
<path style="fill:none;stroke-width:2;stroke-linecap:butt;stroke-linejoin:miter;stroke:rgb(0%,0%,0%);stroke-opacity:1;stroke-miterlimit:4;" d="M 199.499967 393.999723 L 183.49991 373.000488 L 167.499854 339.000496 " transform="matrix(3.779528,0,0,3.779528,0,0)"/>
<path style="fill:none;stroke-width:2;stroke-linecap:butt;stroke-linejoin:miter;stroke:rgb(0%,0%,0%);stroke-opacity:1;stroke-miterlimit:4;" d="M 190.5 316.999772 L 206.500057 296.999959 L 222.500114 296.999959 L 238.500171 293.500431 " transform="matrix(3.779528,0,0,3.779528,0,0)"/>
<path style="fill:none;stroke-width:2;stroke-linecap:butt;stroke-linejoin:miter;stroke:rgb(0%,0%,0%);stroke-opacity:1;stroke-miterlimit:4;" d="M 234.000187 302.500399 L 218.00013 306.500155 " transform="matrix(3.779528,0,0,3.779528,0,0)"/>
<path style="fill:none;stroke-width:2;stroke-linecap:butt;stroke-linejoin:miter;stroke:rgb(0%,0%,0%);stroke-opacity:1;stroke-miterlimit:4;" d="M 224.499992 298.999837 L 220.500236 315.500122 L 236.000065 325.499512 L 252.000122 325.499512 L 268.000179 325.99974 L 284.000236 316.00035 L 299.500065 314.000472 " transform="matrix(3.779528,0,0,3.779528,0,0)"/>
<path style="fill:none;stroke-width:2;stroke-linecap:butt;stroke-linejoin:miter;stroke:rgb(0%,0%,0%);stroke-opacity:1;stroke-miterlimit:4;" d="M 307.999805 289.99987 L 291.999748 286.000114 " transform="matrix(3.779528,0,0,3.779528,0,0)"/>
<path style="fill:none;stroke-width:2;stroke-linecap:butt;stroke-linejoin:miter;stroke:rgb(0%,0%,0%);stroke-opacity:1;stroke-miterlimit:4;" d="M 286.999536 282.000358 L 302.999593 282.000358 " transform="matrix(3.779528,0,0,3.779528,0,0)"/>
<path style="fill:none;stroke-width:2;stroke-linecap:butt;stroke-linejoin:miter;stroke:rgb(0%,0%,0%);stroke-opacity:1;stroke-miterlimit:4;" d="M 285.499886 263.500195 L 270.000057 271.499707 L 259.999634 261.00009 L 234.500415 271.499707 L 218.500358 269.499829 L 214.499569 266.000301 L 200.500423 284.500464 " transform="matrix(3.779528,0,0,3.779528,0,0)"/>
<path style="fill:none;stroke-width:2;stroke-linecap:butt;stroke-linejoin:miter;stroke:rgb(0%,0%,0%);stroke-opacity:1;stroke-miterlimit:4;" d="M 205.999829 286.500342 L 221.999886 282.000358 L 237.999943 283.500008 L 239.999821 273.499585 " transform="matrix(3.779528,0,0,3.779528,0,0)"/>
<path style="fill:none;stroke-width:2;stroke-linecap:butt;stroke-linejoin:miter;stroke:rgb(0%,0%,0%);stroke-opacity:1;stroke-miterlimit:4;" d="M 257.000334 261.999512 L 264.999845 261.500317 L 283.500008 265.500073 L 286.000114 271.499707 L 304.500277 263.500195 " transform="matrix(3.779528,0,0,3.779528,0,0)"/>
<path style="fill:none;stroke-width:2;stroke-linecap:butt;stroke-linejoin:miter;stroke:rgb(0%,0%,0%);stroke-opacity:1;stroke-miterlimit:4;" d="M 299.500065 256.500106 L 305.499699 272.500163 L 303.499821 288.50022 L 317.5 304.500277 L 307.499577 320.000106 L 321.999984 329.999495 L 319.499878 345.999552 L 315.500122 361.999609 L 307.499577 377.999666 L 295.500309 393.999723 " transform="matrix(3.779528,0,0,3.779528,0,0)"/>
<path style="fill:none;stroke-width:2;stroke-linecap:butt;stroke-linejoin:miter;stroke:rgb(0%,0%,0%);stroke-opacity:1;stroke-miterlimit:4;" d="M 345.500358 349.500114 L 337.499813 365.500171 L 327.999618 381.500228 L 318.000228 397.500285 L 300.000293 413.500342 L 273.999813 437.49991 L 270.000057 453.499967 L 270.000057 469.500024 L 273.999813 485.500081 L 279.500252 502.000366 L 295.500309 509.999878 " transform="matrix(3.779528,0,0,3.779528,0,0)"/>
<path style="fill:none;stroke-width:2;stroke-linecap:butt;stroke-linejoin:miter;stroke:rgb(0%,0%,0%);stroke-opacity:1;stroke-miterlimit:4;" d="M 260.499862 303.499821 L 276.499919 289.499642 " transform="matrix(3.779528,0,0,3.779528,0,0)"/>
<path style="fill:none;stroke-width:2;stroke-linecap:butt;stroke-linejoin:miter;stroke:rgb(0%,0%,0%);stroke-opacity:1;stroke-miterlimit:4;" d="M 268.500407 289.499642 L 258.499984 305.499699 " transform="matrix(3.779528,0,0,3.779528,0,0)"/>
<path style="fill:none;stroke-width:2;stroke-linecap:butt;stroke-linejoin:miter;stroke:rgb(0%,0%,0%);stroke-opacity:1;stroke-miterlimit:4;" d="M 265.500073 302.500399 L 281.50013 300.499487 " transform="matrix(3.779528,0,0,3.779528,0,0)"/>
<path style="fill:none;stroke-width:2;stroke-linecap:butt;stroke-linejoin:miter;stroke:rgb(0%,0%,0%);stroke-opacity:1;stroke-miterlimit:4;" d="M 284.000236 314.999894 L 282.000358 306.500155 L 268.500407 318.99965 L 252.50035 319.499878 L 236.500293 316.999772 L 220.500236 314.999894 L 239.000399 305.499699 L 230.999854 273.499585 L 244.499805 271.000513 L 246.499683 259.000212 L 258.499984 241.000277 L 257.999756 225.00022 L 250.000244 213.500146 L 233.499959 218.00013 L 216.999674 227.500326 " transform="matrix(3.779528,0,0,3.779528,0,0)"/>
<path style="fill:none;stroke-width:2;stroke-linecap:butt;stroke-linejoin:miter;stroke:rgb(0%,0%,0%);stroke-opacity:1;stroke-miterlimit:4;" d="M 234.999609 187.499666 L 218.999552 185.499788 L 202.999495 175.999593 " transform="matrix(3.779528,0,0,3.779528,0,0)"/>
<path style="fill:none;stroke-width:2;stroke-linecap:butt;stroke-linejoin:miter;stroke:rgb(0%,0%,0%);stroke-opacity:1;stroke-miterlimit:4;" d="M 206.500057 167.499854 L 234.000187 183.49991 L 243.999577 181.500033 L 259.999634 180.999805 L 270.000057 184.999561 " transform="matrix(3.779528,0,0,3.779528,0,0)"/>
<path style="fill:none;stroke-width:2;stroke-linecap:butt;stroke-linejoin:miter;stroke:rgb(0%,0%,0%);stroke-opacity:1;stroke-miterlimit:4;" d="M 273.000391 189.999772 L 257.000334 188.500122 L 240.500049 186.500244 L 224.499992 177.000049 L 207.999707 166.999626 L 191.99965 153.00048 " transform="matrix(3.779528,0,0,3.779528,0,0)"/>
<path style="fill:none;stroke-width:2;stroke-linecap:butt;stroke-linejoin:miter;stroke:rgb(0%,0%,0%);stroke-opacity:1;stroke-miterlimit:4;" d="M 191.000228 148.500496 L 207.000285 158.499886 L 223.000342 166.500431 L 239.499593 168.500309 L 271.499707 168.500309 L 286.999536 164.49952 " transform="matrix(3.779528,0,0,3.779528,0,0)"/>
<path style="fill:none;stroke-width:2;stroke-linecap:butt;stroke-linejoin:miter;stroke:rgb(0%,0%,0%);stroke-opacity:1;stroke-miterlimit:4;" d="M 318.99965 147.500041 L 302.999593 175.500399 L 286.500342 183.49991 L 274.500041 173.999715 L 258.499984 175.999593 L 243.000155 174.499943 L 239.000399 180.499577 L 213.500146 164.49952 L 193.500334 148.500496 " transform="matrix(3.779528,0,0,3.779528,0,0)"/>
<path style="fill:none;stroke-width:2;stroke-linecap:butt;stroke-linejoin:miter;stroke:rgb(0%,0%,0%);stroke-opacity:1;stroke-miterlimit:4;" d="M 190.5 146.499585 L 198.99974 162.499642 L 200.999618 178.499699 L 236.999487 196.000439 L 250.999666 198.000317 L 262.999967 195.500212 L 279.000024 191.500456 L 295.000081 182.999683 L 301.499943 168.999504 " transform="matrix(3.779528,0,0,3.779528,0,0)"/>
<path style="fill:none;stroke-width:2;stroke-linecap:butt;stroke-linejoin:miter;stroke:rgb(0%,0%,0%);stroke-opacity:1;stroke-miterlimit:4;" d="M 320.500334 105.499504 L 304.500277 89.50048 L 294.499854 114.000277 L 284.000236 98.00022 L 295.500309 111.500171 L 293.000203 95.500114 L 286.999536 93.500236 L 271.000513 89.000252 " transform="matrix(3.779528,0,0,3.779528,0,0)"/>
<path style="fill:none;stroke-width:2;stroke-linecap:butt;stroke-linejoin:miter;stroke:rgb(0%,0%,0%);stroke-opacity:1;stroke-miterlimit:4;" d="M 282.99978 98.500448 L 284.999658 114.500505 " transform="matrix(3.779528,0,0,3.779528,0,0)"/>
<path style="fill:none;stroke-width:2;stroke-linecap:butt;stroke-linejoin:miter;stroke:rgb(0%,0%,0%);stroke-opacity:1;stroke-miterlimit:4;" d="M 284.000236 80.000285 L 300.000293 87.999797 L 316.00035 60.000472 " transform="matrix(3.779528,0,0,3.779528,0,0)"/>
<path style="fill:none;stroke-width:2;stroke-linecap:butt;stroke-linejoin:miter;stroke:rgb(0%,0%,0%);stroke-opacity:1;stroke-miterlimit:4;" d="M 304.000049 84.000041 L 320.000106 96.000342 " transform="matrix(3.779528,0,0,3.779528,0,0)"/>
<path style="fill:none;stroke-width:2;stroke-linecap:butt;stroke-linejoin:miter;stroke:rgb(0%,0%,0%);stroke-opacity:1;stroke-miterlimit:4;" d="M 266.499495 66.999528 L 268.000179 51.000505 L 270.000057 35.000448 L 277.500374 19.000391 L 284.999658 3.000334 L 305.499699 3.000334 L 289.499642 15.499829 L 273.999813 37.49952 " transform="matrix(3.779528,0,0,3.779528,0,0)"/>
<path style="fill:none;stroke-width:2;stroke-linecap:butt;stroke-linejoin:miter;stroke:rgb(0%,0%,0%);stroke-opacity:1;stroke-miterlimit:4;" d="M 268.000179 35.000448 L 284.500464 20.500041 L 275.000269 37.000326 L 271.000513 53.000382 " transform="matrix(3.779528,0,0,3.779528,0,0)"/>
<path style="fill:none;stroke-width:2;stroke-linecap:butt;stroke-linejoin:miter;stroke:rgb(0%,0%,0%);stroke-opacity:1;stroke-miterlimit:4;" d="M 214.499569 32.500342 L 198.499512 10.999845 " transform="matrix(3.779528,0,0,3.779528,0,0)"/>
<path style="fill:none;stroke-width:2;stroke-linecap:butt;stroke-linejoin:miter;stroke:rgb(0%,0%,0%);stroke-opacity:1;stroke-miterlimit:4;" d="M 193.500334 3.999756 L 209.500391 11.500073 " transform="matrix(3.779528,0,0,3.779528,0,0)"/>
<path style="fill:none;stroke-width:2;stroke-linecap:butt;stroke-linejoin:miter;stroke:rgb(0%,0%,0%);stroke-opacity:1;stroke-miterlimit:4;" d="M 204.500179 21.000269 L 189.00035 8.49974 L 173.000293 6.499862 " transform="matrix(3.779528,0,0,3.779528,0,0)"/>
<path style="fill:none;stroke-width:2;stroke-linecap:butt;stroke-linejoin:miter;stroke:rgb(0%,0%,0%);stroke-opacity:1;stroke-miterlimit:4;" d="M 175.999593 8.49974 L 191.99965 18.500163 L 208.499935 36.500098 " transform="matrix(3.779528,0,0,3.779528,0,0)"/>
<path style="fill:none;stroke-width:2;stroke-linecap:butt;stroke-linejoin:miter;stroke:rgb(0%,0%,0%);stroke-opacity:1;stroke-miterlimit:4;" d="M 218.500358 53.000382 L 212.999919 37.000326 L 200.500423 21.000269 L 177.000049 5.000212 " transform="matrix(3.779528,0,0,3.779528,0,0)"/>
<path style="fill:none;stroke-width:2;stroke-linecap:butt;stroke-linejoin:miter;stroke:rgb(0%,0%,0%);stroke-opacity:1;stroke-miterlimit:4;" d="M 162.99987 3.499528 L 171.000415 7.500317 L 194.999984 23.999569 L 207.500513 40.499854 L 214.000374 56.49991 L 220.500236 73.000195 L 206.500057 88.500024 " transform="matrix(3.779528,0,0,3.779528,0,0)"/>
<path style="fill:none;stroke-width:2;stroke-linecap:butt;stroke-linejoin:miter;stroke:rgb(0%,0%,0%);stroke-opacity:1;stroke-miterlimit:4;" d="M 187.499666 101.999976 L 171.499609 134.00009 " transform="matrix(3.779528,0,0,3.779528,0,0)"/>
<path style="fill:none;stroke-width:2;stroke-linecap:butt;stroke-linejoin:miter;stroke:rgb(0%,0%,0%);stroke-opacity:1;stroke-miterlimit:4;" d="M 186.500244 173.999715 L 202.500301 168.000081 L 218.500358 177.500277 " transform="matrix(3.779528,0,0,3.779528,0,0)"/>
<path style="fill:none;stroke-width:2;stroke-linecap:butt;stroke-linejoin:miter;stroke:rgb(0%,0%,0%);stroke-opacity:1;stroke-miterlimit:4;" d="M 188.500122 180.499577 L 186.500244 196.499634 " transform="matrix(3.779528,0,0,3.779528,0,0)"/>
<path style="fill:none;stroke-width:2;stroke-linecap:butt;stroke-linejoin:miter;stroke:rgb(0%,0%,0%);stroke-opacity:1;stroke-miterlimit:4;" d="M 159.500342 250.000244 L 143.000057 239.999821 L 127 234.000187 L 110.999943 234.000187 L 94.999886 235.499837 L 78.999829 247.500138 L 62.999772 273.499585 L 85.499691 257.999756 L 80.000285 255.999878 " transform="matrix(3.779528,0,0,3.779528,0,0)"/>
<path style="fill:none;stroke-width:2;stroke-linecap:butt;stroke-linejoin:miter;stroke:rgb(0%,0%,0%);stroke-opacity:1;stroke-miterlimit:4;" d="M 89.50048 248.000366 L 105.000309 239.999821 L 80.999707 245.50026 L 66.999528 261.500317 L 62.999772 277.500374 L 62.499544 293.500431 L 68.500212 309.500488 L 80.500513 325.499512 L 92.49978 331.500179 L 109.000065 333.500057 L 125.000122 332.999829 L 141.000179 331.500179 " transform="matrix(3.779528,0,0,3.779528,0,0)"/>
<path style="fill:none;stroke-width:2;stroke-linecap:butt;stroke-linejoin:miter;stroke:rgb(0%,0%,0%);stroke-opacity:1;stroke-miterlimit:4;" d="M 93.500236 324.50009 L 77.500179 318.000228 " transform="matrix(3.779528,0,0,3.779528,0,0)"/>
<path style="fill:none;stroke-width:2;stroke-linecap:butt;stroke-linejoin:miter;stroke:rgb(0%,0%,0%);stroke-opacity:1;stroke-miterlimit:4;" d="M 95.500114 318.99965 L 81.499935 314.999894 L 65.499878 296.999959 " transform="matrix(3.779528,0,0,3.779528,0,0)"/>
<path style="fill:none;stroke-width:2;stroke-linecap:butt;stroke-linejoin:miter;stroke:rgb(0%,0%,0%);stroke-opacity:1;stroke-miterlimit:4;" d="M 75.500301 293.000203 L 83.499813 309.00026 L 93.500236 325.499512 L 115.499927 339.499691 L 131.499984 339.999919 L 147.500041 336.000163 L 163.500098 348.000464 L 179.500155 377.500472 L 195.500212 399.500163 L 215.500024 411.999658 L 231.500081 420.000203 L 247.500138 425.999837 L 280.00048 425.999837 L 295.999504 416.499642 L 311.999561 404.500374 L 327.999618 382.49965 L 344.499902 354.000098 " transform="matrix(3.779528,0,0,3.779528,0,0)"/>
<path style="fill:none;stroke-width:2;stroke-linecap:butt;stroke-linejoin:miter;stroke:rgb(0%,0%,0%);stroke-opacity:1;stroke-miterlimit:4;" d="M 193.500334 400.499585 L 181.500033 384.999756 L 171.999837 368.999699 L 166.500431 352.999642 L 160.499764 336.500391 L 140.499951 325.99974 L 123.999666 329.999495 L 107.999609 325.499512 L 91.999552 315.500122 L 76.499723 293.000203 " transform="matrix(3.779528,0,0,3.779528,0,0)"/>
<path style="fill:none;stroke-width:2;stroke-linecap:butt;stroke-linejoin:miter;stroke:rgb(0%,0%,0%);stroke-opacity:1;stroke-miterlimit:4;" d="M 100.99952 240.500049 L 80.500513 256.500106 L 90.499902 255.999878 L 106.499959 250.000244 L 121.999788 250.500472 L 137.999845 252.50035 L 153.999902 259.999634 " transform="matrix(3.779528,0,0,3.779528,0,0)"/>
<path style="fill:none;stroke-width:2;stroke-linecap:butt;stroke-linejoin:miter;stroke:rgb(0%,0%,0%);stroke-opacity:1;stroke-miterlimit:4;" d="M 162.000448 252.999544 L 134.00009 252.999544 " transform="matrix(3.779528,0,0,3.779528,0,0)"/>
<path style="fill:none;stroke-width:2;stroke-linecap:butt;stroke-linejoin:miter;stroke:rgb(0%,0%,0%);stroke-opacity:1;stroke-miterlimit:4;" d="M 87.499569 101.499748 L 71.499512 103.499626 L 55.500488 101.499748 " transform="matrix(3.779528,0,0,3.779528,0,0)"/>
<path style="fill:none;stroke-width:2;stroke-linecap:butt;stroke-linejoin:miter;stroke:rgb(0%,0%,0%);stroke-opacity:1;stroke-miterlimit:4;" d="M 48.999593 107.500415 L 64.99965 97.499992 L 100.500326 97.499992 " transform="matrix(3.779528,0,0,3.779528,0,0)"/>
<path style="fill:none;stroke-width:2;stroke-linecap:butt;stroke-linejoin:miter;stroke:rgb(0%,0%,0%);stroke-opacity:1;stroke-miterlimit:4;" d="M 168.000081 57.500366 L 152.000024 23.500374 " transform="matrix(3.779528,0,0,3.779528,0,0)"/>
<path style="fill:none;stroke-width:2;stroke-linecap:butt;stroke-linejoin:miter;stroke:rgb(0%,0%,0%);stroke-opacity:1;stroke-miterlimit:4;" d="M 157.999658 23.999569 L 163.500098 39.999626 " transform="matrix(3.779528,0,0,3.779528,0,0)"/>
<path style="fill:none;stroke-width:2;stroke-linecap:butt;stroke-linejoin:miter;stroke:rgb(0%,0%,0%);stroke-opacity:1;stroke-miterlimit:4;" d="M 148.500496 30.500464 L 164.49952 60.499666 L 180.499577 69.999862 " transform="matrix(3.779528,0,0,3.779528,0,0)"/>
<path style="fill:none;stroke-width:2;stroke-linecap:butt;stroke-linejoin:miter;stroke:rgb(0%,0%,0%);stroke-opacity:1;stroke-miterlimit:4;" d="M 194.999984 84.500269 L 178.999927 78.499601 L 163.500098 39.999626 L 147.500041 3.999756 " transform="matrix(3.779528,0,0,3.779528,0,0)"/>
<path style="fill:none;stroke-width:2;stroke-linecap:butt;stroke-linejoin:miter;stroke:rgb(0%,0%,0%);stroke-opacity:1;stroke-miterlimit:4;" d="M 146.999813 1.999878 L 153.499674 17.999935 L 155.000358 33.499764 L 163.500098 49.499821 L 181.500033 71.499512 L 202.000073 87.499569 L 202.000073 91.500358 L 218.500358 80.000285 L 240.500049 69.999862 L 257.000334 68.500212 L 273.000391 70.50009 L 289.000448 76.499723 L 305.000505 68.500212 L 320.999528 37.999748 L 336.999585 3.999756 L 341.000374 5.500439 " transform="matrix(3.779528,0,0,3.779528,0,0)"/>
<path style="fill:none;stroke-width:2;stroke-linecap:butt;stroke-linejoin:miter;stroke:rgb(0%,0%,0%);stroke-opacity:1;stroke-miterlimit:4;" d="M 341.999797 2.500106 L 333.500057 17.999935 L 325.499512 33.499764 L 319.499878 49.499821 L 311.999561 66.000106 L 302.000171 82.000163 L 320.000106 98.00022 L 329.999495 114.000277 L 336.500391 130.000334 L 320.500334 149.499919 L 314.999894 165.499976 L 293.000203 175.500399 L 280.499674 191.99965 L 284.500464 218.00013 L 294.499854 234.000187 L 294.499854 250.000244 L 289.99987 268.000179 L 289.99987 284.500464 L 284.000236 304.500277 L 291.999748 320.999528 " transform="matrix(3.779528,0,0,3.779528,0,0)"/>
<path style="fill:none;stroke-width:2;stroke-linecap:butt;stroke-linejoin:miter;stroke:rgb(0%,0%,0%);stroke-opacity:1;stroke-miterlimit:4;" d="M 447.500334 88.500024 L 432.000505 92.49978 L 424.500187 96.000342 L 418.49952 79.500057 L 422.500309 63.5 L 420.500431 67.499756 " transform="matrix(3.779528,0,0,3.779528,0,0)"/>
<path style="fill:none;stroke-width:2;stroke-linecap:butt;stroke-linejoin:miter;stroke:rgb(0%,0%,0%);stroke-opacity:1;stroke-miterlimit:4;" d="M 427.499487 60.499666 L 423.499731 76.499723 L 427.499487 92.49978 " transform="matrix(3.779528,0,0,3.779528,0,0)"/>
<path style="fill:none;stroke-width:2;stroke-linecap:butt;stroke-linejoin:miter;stroke:rgb(0%,0%,0%);stroke-opacity:1;stroke-miterlimit:4;" d="M 466.000496 69.999862 L 481.99952 37.999748 " transform="matrix(3.779528,0,0,3.779528,0,0)"/>
<path style="fill:none;stroke-width:2;stroke-linecap:butt;stroke-linejoin:miter;stroke:rgb(0%,0%,0%);stroke-opacity:1;stroke-miterlimit:4;" d="M 478.499992 33.499764 L 462.499935 63.5 " transform="matrix(3.779528,0,0,3.779528,0,0)"/>
<path style="fill:none;stroke-width:2;stroke-linecap:butt;stroke-linejoin:miter;stroke:rgb(0%,0%,0%);stroke-opacity:1;stroke-miterlimit:4;" d="M 487.499959 3.499528 L 483.500203 19.499585 L 477.499536 35.499642 L 469.500024 51.000505 L 461.500513 66.999528 L 461.500513 82.500391 L 466.000496 98.500448 L 468.499569 114.000277 L 470.999674 130.000334 L 471.499902 146.000391 L 474.000008 162.000448 L 474.000008 178.000505 L 475.499658 193.999528 L 475.000464 209.500391 L 472.500358 225.500448 L 472.500358 241.999699 L 474.000008 257.499528 L 474.000008 273.499585 L 472.00013 289.000448 L 472.00013 352.999642 L 468.000374 368.999699 L 462.499935 385.499984 L 452.499512 401.500041 L 442.500122 416.99987 L 430.499821 432.999927 L 440.500244 418.999748 L 456.500301 395.500407 " transform="matrix(3.779528,0,0,3.779528,0,0)"/>
<path style="fill:none;stroke-width:2;stroke-linecap:butt;stroke-linejoin:miter;stroke:rgb(0%,0%,0%);stroke-opacity:1;stroke-miterlimit:4;" d="M 330.499723 39.500431 L 318.500456 69.999862 L 323.000439 57.999561 L 330.999951 48.000171 L 339.000496 26.499674 L 343.000252 10.499618 " transform="matrix(3.779528,0,0,3.779528,0,0)"/>
<path style="fill:none;stroke-width:2;stroke-linecap:butt;stroke-linejoin:miter;stroke:rgb(0%,0%,0%);stroke-opacity:1;stroke-miterlimit:4;" d="M 336.000163 1.49965 L 327.999618 17.499707 L 321.999984 33.999992 L 316.00035 50.000049 L 305.999927 65.499878 L 288.50022 81.499935 L 311.999561 97.499992 L 323.999862 113.500049 L 329.999495 129.500106 L 334.500513 147.500041 L 332.999829 163.500098 L 314.499666 175.999593 L 325.000317 168.000081 " transform="matrix(3.779528,0,0,3.779528,0,0)"/>
<path style="fill:none;stroke-width:2;stroke-linecap:butt;stroke-linejoin:miter;stroke:rgb(0%,0%,0%);stroke-opacity:1;stroke-miterlimit:4;" d="M 214.000374 17.499707 L 200.000195 1.000456 " transform="matrix(3.779528,0,0,3.779528,0,0)"/>
<path style="fill:none;stroke-width:2;stroke-linecap:butt;stroke-linejoin:miter;stroke:rgb(0%,0%,0%);stroke-opacity:1;stroke-miterlimit:4;" d="M 193.999528 1.49965 L 207.999707 17.499707 L 219.49978 29.500008 L 223.499536 45.500065 L 223.499536 61.500122 L 227.99952 80.000285 L 243.999577 75.500301 " transform="matrix(3.779528,0,0,3.779528,0,0)"/>
<path style="fill:none;stroke-width:2;stroke-linecap:butt;stroke-linejoin:miter;stroke:rgb(0%,0%,0%);stroke-opacity:1;stroke-miterlimit:4;" d="M 141.500407 1.000456 L 143.500285 17.000513 L 147.500041 32.999536 L 155.499552 49.499821 L 168.000081 66.000106 L 184.000138 82.500391 L 191.99965 98.500448 L 180.000382 114.500505 L 173.999715 130.499528 L 170.500187 146.499585 L 173.000293 162.499642 L 175.000171 178.499699 L 178.499699 194.499756 L 180.499577 210.499813 L 182.500488 226.49987 L 178.499699 242.499927 L 174.499943 257.999756 " transform="matrix(3.779528,0,0,3.779528,0,0)"/>
<path style="fill:none;stroke-width:2;stroke-linecap:butt;stroke-linejoin:miter;stroke:rgb(0%,0%,0%);stroke-opacity:1;stroke-miterlimit:4;" d="M 69.499634 17.999935 L 85.499691 3.999756 " transform="matrix(3.779528,0,0,3.779528,0,0)"/>
<path style="fill:none;stroke-width:2;stroke-linecap:butt;stroke-linejoin:miter;stroke:rgb(0%,0%,0%);stroke-opacity:1;stroke-miterlimit:4;" d="M 21.000269 1.49965 L 23.000146 17.499707 L 25.500252 33.499764 L 33.499764 49.499821 L 44.000415 64.99965 L 53.999805 81.499935 L 53.999805 97.499992 L 46.000293 116.000155 L 44.000415 132.000212 L 41.999504 148.500496 L 41.999504 164.49952 L 39.999626 180.999805 L 39.500431 196.999862 L 39.500431 243.999577 L 39.999626 259.999634 L 41.500309 275.999691 L 41.999504 291.999748 L 41.999504 340.500146 L 44.000415 355.999976 L 45.500065 372.000033 L 53.499577 387.499862 L 67.499756 402.999691 L 83.499813 419.499976 " transform="matrix(3.779528,0,0,3.779528,0,0)"/>
<path style="fill:none;stroke-width:2;stroke-linecap:butt;stroke-linejoin:miter;stroke:rgb(0%,0%,0%);stroke-opacity:1;stroke-miterlimit:4;" d="M 44.999837 64.000228 L 28.99978 35.99987 " transform="matrix(3.779528,0,0,3.779528,0,0)"/>
<path style="fill:none;stroke-width:2;stroke-linecap:butt;stroke-linejoin:miter;stroke:rgb(0%,0%,0%);stroke-opacity:1;stroke-miterlimit:4;" d="M 25.500252 39.999626 L 41.500309 67.999984 " transform="matrix(3.779528,0,0,3.779528,0,0)"/>
<path style="fill:none;stroke-width:2;stroke-linecap:butt;stroke-linejoin:miter;stroke:rgb(0%,0%,0%);stroke-opacity:1;stroke-miterlimit:4;" d="M 492.500171 3.000334 L 490.500293 18.500163 L 484.499626 34.50022 L 476.500114 50.500277 L 468.499569 66.500334 L 466.499691 82.500391 L 470.999674 98.500448 L 475.000464 114.500505 L 475.499658 130.000334 L 477.000342 146.000391 L 479.00022 162.499642 L 479.00022 209.500391 L 477.999764 241.500505 L 477.999764 257.499528 L 477.499536 273.499585 L 477.499536 321.999984 L 475.499658 337.499813 L 475.499658 353.49987 L 473.49978 369.499927 L 467.500146 385.499984 L 456.999495 401.500041 L 451.50009 417.500098 L 452.000317 432.999927 L 457.999951 449.500212 L 470.000252 465.500269 L 479.999642 481.99952 L 491.999943 497.999577 " transform="matrix(3.779528,0,0,3.779528,0,0)"/>
</g>
</svg>
