<?xml version="1.0" encoding="UTF-8"?>
<svg xmlns="http://www.w3.org/2000/svg" xmlns:xlink="http://www.w3.org/1999/xlink" width="1935.11811" height="1935.11811" viewBox="0 0 1935.11811 1935.11811" version="1.1">
<g id="surface1">
<path style="fill:none;stroke-width:2;stroke-linecap:butt;stroke-linejoin:miter;stroke:rgb(0%,0%,0%);stroke-opacity:1;stroke-miterlimit:4;" d="M 21.500496 62.499544 L 19.499585 78.499601 L 19.499585 98.500448 L 35.499642 86.500146 L 41.500309 91.00013 L 55.500488 76.999951 L 81.499935 64.99965 " transform="matrix(3.779528,0,0,3.779528,0,0)"/>
<path style="fill:none;stroke-width:2;stroke-linecap:butt;stroke-linejoin:miter;stroke:rgb(0%,0%,0%);stroke-opacity:1;stroke-miterlimit:4;" d="M 82.000163 64.99965 L 85.999919 81.499935 L 85.999919 97.499992 L 98.00022 101.499748 " transform="matrix(3.779528,0,0,3.779528,0,0)"/>
<path style="fill:none;stroke-width:2;stroke-linecap:butt;stroke-linejoin:miter;stroke:rgb(0%,0%,0%);stroke-opacity:1;stroke-miterlimit:4;" d="M 108.499837 113.500049 L 92.49978 123.500472 L 76.499723 137.499618 L 66.500334 139.499495 L 50.000049 153.499674 L 33.499764 155.99978 L 17.499707 141.999601 L 1.49965 128.000456 " transform="matrix(3.779528,0,0,3.779528,0,0)"/>
<path style="fill:none;stroke-width:2;stroke-linecap:butt;stroke-linejoin:miter;stroke:rgb(0%,0%,0%);stroke-opacity:1;stroke-miterlimit:4;" d="M 3.999756 130.000334 L 19.499585 146.000391 L 26.00048 162.499642 L 53.999805 178.499699 L 42.499731 200.000195 L 56.49991 211.500269 L 51.000505 225.999642 L 46.999715 241.999699 L 41.000081 257.999756 L 41.000081 273.999813 L 21.000269 282.000358 L 21.000269 297.500187 L 26.999902 309.00026 L 42.999959 305.000505 L 66.999528 307.000382 L 82.500391 295.000081 " transform="matrix(3.779528,0,0,3.779528,0,0)"/>
<path style="fill:none;stroke-width:2;stroke-linecap:butt;stroke-linejoin:miter;stroke:rgb(0%,0%,0%);stroke-opacity:1;stroke-miterlimit:4;" d="M 87.499569 311.999561 L 87.000374 316.00035 L 82.999585 300.000293 L 87.000374 284.000236 L 88.500024 268.000179 L 101.999976 255.49965 L 100.000098 239.000399 L 101.499748 223.000342 L 85.499691 234.999609 " transform="matrix(3.779528,0,0,3.779528,0,0)"/>
<path style="fill:none;stroke-width:2;stroke-linecap:butt;stroke-linejoin:miter;stroke:rgb(0%,0%,0%);stroke-opacity:1;stroke-miterlimit:4;" d="M 96.000342 237.499715 L 96.499536 253.499772 L 92.49978 269.499829 L 92.49978 286.000114 L 116.500382 286.000114 L 118.50026 293.999626 L 134.500317 289.99987 L 148.000269 323.499634 " transform="matrix(3.779528,0,0,3.779528,0,0)"/>
<path style="fill:none;stroke-width:2;stroke-linecap:butt;stroke-linejoin:miter;stroke:rgb(0%,0%,0%);stroke-opacity:1;stroke-miterlimit:4;" d="M 169.499731 325.499512 L 164.999748 309.500488 L 166.500431 291.49952 L 150.500374 281.50013 " transform="matrix(3.779528,0,0,3.779528,0,0)"/>
<path style="fill:none;stroke-width:2;stroke-linecap:butt;stroke-linejoin:miter;stroke:rgb(0%,0%,0%);stroke-opacity:1;stroke-miterlimit:4;" d="M 148.000269 271.000513 L 168.000081 293.000203 L 171.499609 308.500033 L 175.500399 324.50009 " transform="matrix(3.779528,0,0,3.779528,0,0)"/>
<path style="fill:none;stroke-width:2;stroke-linecap:butt;stroke-linejoin:miter;stroke:rgb(0%,0%,0%);stroke-opacity:1;stroke-miterlimit:4;" d="M 185.499788 343.999674 L 185.499788 359.999731 L 181.500033 375.999788 L 171.000415 391.999845 L 154.50013 407.499674 L 141.999601 400.000391 L 157.500464 386.000212 " transform="matrix(3.779528,0,0,3.779528,0,0)"/>
<path style="fill:none;stroke-width:2;stroke-linecap:butt;stroke-linejoin:miter;stroke:rgb(0%,0%,0%);stroke-opacity:1;stroke-miterlimit:4;" d="M 171.999837 402.000269 L 198.499512 402.000269 " transform="matrix(3.779528,0,0,3.779528,0,0)"/>
<path style="fill:none;stroke-width:2;stroke-linecap:butt;stroke-linejoin:miter;stroke:rgb(0%,0%,0%);stroke-opacity:1;stroke-miterlimit:4;" d="M 178.000505 411.999658 L 173.499487 427.999715 L 182.999683 443.499544 L 162.99987 459.499601 L 162.99987 471.499902 L 178.999927 454.000195 " transform="matrix(3.779528,0,0,3.779528,0,0)"/>
<path style="fill:none;stroke-width:2;stroke-linecap:butt;stroke-linejoin:miter;stroke:rgb(0%,0%,0%);stroke-opacity:1;stroke-miterlimit:4;" d="M 192.499878 468.000374 L 208.499935 440.000016 L 224.499992 443.999772 L 239.999821 447.999528 L 255.999878 442.500122 L 271.999935 440.500244 L 287.999992 430.499821 L 268.000179 440.500244 " transform="matrix(3.779528,0,0,3.779528,0,0)"/>
<path style="fill:none;stroke-width:2;stroke-linecap:butt;stroke-linejoin:miter;stroke:rgb(0%,0%,0%);stroke-opacity:1;stroke-miterlimit:4;" d="M 289.99987 439.499788 L 305.999927 448.999984 " transform="matrix(3.779528,0,0,3.779528,0,0)"/>
<path style="fill:none;stroke-width:2;stroke-linecap:butt;stroke-linejoin:miter;stroke:rgb(0%,0%,0%);stroke-opacity:1;stroke-miterlimit:4;" d="M 310.49991 456.500301 L 294.499854 448.499756 L 286.500342 438.500366 L 270.000057 446.499878 L 254.500228 448.499756 L 232.499504 441.999894 L 216.50048 435.500033 L 190.5 431.000049 L 173.999715 420.500431 " transform="matrix(3.779528,0,0,3.779528,0,0)"/>
<path style="fill:none;stroke-width:2;stroke-linecap:butt;stroke-linejoin:miter;stroke:rgb(0%,0%,0%);stroke-opacity:1;stroke-miterlimit:4;" d="M 169.499731 425.999837 L 164.999748 441.999894 " transform="matrix(3.779528,0,0,3.779528,0,0)"/>
<path style="fill:none;stroke-width:2;stroke-linecap:butt;stroke-linejoin:miter;stroke:rgb(0%,0%,0%);stroke-opacity:1;stroke-miterlimit:4;" d="M 164.999748 427.499487 L 173.499487 405.499797 L 166.999626 421.499854 L 162.99987 437.49991 L 144.499707 456.000073 L 146.000391 479.999642 L 157.999658 487.499959 L 160.499764 506.999544 L 168.500309 503.500016 L 184.999561 505.499894 L 191.000228 499.50026 L 207.000285 497.500382 " transform="matrix(3.779528,0,0,3.779528,0,0)"/>
<path style="fill:none;stroke-width:2;stroke-linecap:butt;stroke-linejoin:miter;stroke:rgb(0%,0%,0%);stroke-opacity:1;stroke-miterlimit:4;" d="M 196.999862 511.999756 L 212.999919 508 L 229.500203 506.50035 " transform="matrix(3.779528,0,0,3.779528,0,0)"/>
<path style="fill:none;stroke-width:2;stroke-linecap:butt;stroke-linejoin:miter;stroke:rgb(0%,0%,0%);stroke-opacity:1;stroke-miterlimit:4;" d="M 255.000456 491.999943 L 238.500171 490.000065 L 222.500114 493.999821 L 214.499569 491.999943 L 198.000317 491.999943 L 189.999772 488.500415 L 173.999715 486.499504 L 157.500464 488.500415 L 139.499495 502.499561 L 131.499984 500.499683 L 137.000423 491.999943 L 128.999878 475.999886 L 121.000366 459.999829 L 105.499504 453.499967 L 113.500049 443.499544 L 116.999577 433.500155 L 133.499862 409.99978 L 147.500041 393.999723 L 163.500098 377.999666 L 171.499609 361.999609 L 177.500277 345.999552 L 185.499788 329.999495 L 177.500277 314.000472 L 175.500399 298.499609 L 169.499731 282.499552 L 161.50022 274.500041 L 155.499552 271.999935 L 159.500342 257.999756 L 167.499854 252.50035 L 150.000146 250.000244 L 139.999723 234.000187 L 134.500317 217.499902 L 130.499528 203.499723 L 124.499894 187.000472 L 128.000456 171.499609 L 132.000212 155.99978 L 123.999666 137.999845 L 107.999609 114.500505 L 100.000098 74.499845 " transform="matrix(3.779528,0,0,3.779528,0,0)"/>
<path style="fill:none;stroke-width:2;stroke-linecap:butt;stroke-linejoin:miter;stroke:rgb(0%,0%,0%);stroke-opacity:1;stroke-miterlimit:4;" d="M 100.000098 74.499845 L 105.499504 89.999674 L 109.500293 105.499504 L 117.499805 121.499561 L 103.999854 146.000391 L 119.99991 162.000448 L 119.99991 178.000505 " transform="matrix(3.779528,0,0,3.779528,0,0)"/>
<path style="fill:none;stroke-width:2;stroke-linecap:butt;stroke-linejoin:miter;stroke:rgb(0%,0%,0%);stroke-opacity:1;stroke-miterlimit:4;" d="M 142.499829 162.499642 L 153.00048 166.500431 L 146.999813 188.500122 L 155.000358 207.999707 L 157.000236 223.999764 L 155.000358 227.500326 L 162.99987 233.499959 L 171.000415 248.999788 L 165.499976 261.00009 L 173.499487 277.000146 L 179.500155 295.500309 L 181.500033 313.500244 L 197.50009 329.500301 L 215.500024 316.00035 " transform="matrix(3.779528,0,0,3.779528,0,0)"/>
<path style="fill:none;stroke-width:2;stroke-linecap:butt;stroke-linejoin:miter;stroke:rgb(0%,0%,0%);stroke-opacity:1;stroke-miterlimit:4;" d="M 207.999707 298.000415 L 211.500269 302.000171 L 233.499959 300.000293 L 223.000342 316.00035 L 204.500179 331.500179 L 232.000309 319.499878 L 246.000488 315.500122 L 266.000301 297.500187 " transform="matrix(3.779528,0,0,3.779528,0,0)"/>
<path style="fill:none;stroke-width:2;stroke-linecap:butt;stroke-linejoin:miter;stroke:rgb(0%,0%,0%);stroke-opacity:1;stroke-miterlimit:4;" d="M 255.999878 305.499699 L 264.000423 289.99987 L 250.000244 286.000114 L 234.000187 287.999992 L 218.500358 292.499976 " transform="matrix(3.779528,0,0,3.779528,0,0)"/>
<path style="fill:none;stroke-width:2;stroke-linecap:butt;stroke-linejoin:miter;stroke:rgb(0%,0%,0%);stroke-opacity:1;stroke-miterlimit:4;" d="M 180.499577 295.500309 L 196.999862 295.500309 L 212.999919 293.500431 L 218.999552 311.500366 L 200.999618 327.500423 " transform="matrix(3.779528,0,0,3.779528,0,0)"/>
<path style="fill:none;stroke-width:2;stroke-linecap:butt;stroke-linejoin:miter;stroke:rgb(0%,0%,0%);stroke-opacity:1;stroke-miterlimit:4;" d="M 208.499935 345.00013 L 192.499878 345.00013 " transform="matrix(3.779528,0,0,3.779528,0,0)"/>
<path style="fill:none;stroke-width:2;stroke-linecap:butt;stroke-linejoin:miter;stroke:rgb(0%,0%,0%);stroke-opacity:1;stroke-miterlimit:4;" d="M 189.499544 354.99952 L 197.50009 370.999577 L 187.499666 386.999634 L 193.500334 395.500407 L 219.49978 389.49974 L 235.499837 383.500106 L 252.000122 373.99991 L 268.000179 356.500203 " transform="matrix(3.779528,0,0,3.779528,0,0)"/>
<path style="fill:none;stroke-width:2;stroke-linecap:butt;stroke-linejoin:miter;stroke:rgb(0%,0%,0%);stroke-opacity:1;stroke-miterlimit:4;" d="M 269.499829 353.49987 L 255.49965 369.499927 L 251.499894 385.499984 L 249.500016 395.999601 " transform="matrix(3.779528,0,0,3.779528,0,0)"/>
<path style="fill:none;stroke-width:2;stroke-linecap:butt;stroke-linejoin:miter;stroke:rgb(0%,0%,0%);stroke-opacity:1;stroke-miterlimit:4;" d="M 261.500317 370.999577 L 237.499715 395.500407 L 221.499658 399.500163 " transform="matrix(3.779528,0,0,3.779528,0,0)"/>
<path style="fill:none;stroke-width:2;stroke-linecap:butt;stroke-linejoin:miter;stroke:rgb(0%,0%,0%);stroke-opacity:1;stroke-miterlimit:4;" d="M 225.500448 369.499927 L 223.499536 354.000098 L 221.499658 343.999674 L 227.500326 329.500301 L 235.499837 313.500244 L 227.000098 333.500057 " transform="matrix(3.779528,0,0,3.779528,0,0)"/>
<path style="fill:none;stroke-width:2;stroke-linecap:butt;stroke-linejoin:miter;stroke:rgb(0%,0%,0%);stroke-opacity:1;stroke-miterlimit:4;" d="M 198.000317 361.000187 L 196.000439 381 L 201.499845 384.499528 L 205.499601 388.999512 L 207.000285 407.499674 L 222.500114 409.499552 L 238.500171 407.999902 L 255.000456 410.500008 L 271.000513 410.500008 " transform="matrix(3.779528,0,0,3.779528,0,0)"/>
<path style="fill:none;stroke-width:2;stroke-linecap:butt;stroke-linejoin:miter;stroke:rgb(0%,0%,0%);stroke-opacity:1;stroke-miterlimit:4;" d="M 279.000024 407.00048 L 262.999967 400.999813 L 268.500407 386.999634 L 252.50035 390.500195 L 244.499805 398.499707 L 238.500171 402.000269 L 216.50048 413.999536 L 208.499935 409.99978 L 208.499935 388.00009 L 216.50048 375.999788 L 221.999886 373.99991 L 220.500236 357.999854 L 234.000187 329.999495 L 244.499805 327.999618 L 257.999756 311.500366 L 268.000179 295.500309 L 270.000057 279.500252 L 255.999878 295.000081 L 243.999577 298.999837 L 227.99952 293.000203 L 227.500326 313.000016 L 211.500269 334.999707 L 196.000439 339.499691 L 182.00026 337.499813 L 166.000203 338.000041 L 150.000146 336.000163 L 146.000391 321.999984 L 130.499528 320.500334 L 118.50026 304.500277 L 116.000155 288.50022 L 137.999845 280.499674 L 141.500407 264.499618 L 121.499561 262.49974 L 128.000456 246.499683 L 122.500016 230.000431 L 134.500317 211.500269 L 102.500203 219.49978 " transform="matrix(3.779528,0,0,3.779528,0,0)"/>
<path style="fill:none;stroke-width:2;stroke-linecap:butt;stroke-linejoin:miter;stroke:rgb(0%,0%,0%);stroke-opacity:1;stroke-miterlimit:4;" d="M 107.500415 219.49978 L 107.500415 235.499837 L 107.999609 251.499894 L 100.000098 266.000301 L 119.499683 266.000301 L 127.500228 273.999813 L 130.000334 277.999569 L 141.999601 277.500374 L 146.499585 297.500187 " transform="matrix(3.779528,0,0,3.779528,0,0)"/>
<path style="fill:none;stroke-width:2;stroke-linecap:butt;stroke-linejoin:miter;stroke:rgb(0%,0%,0%);stroke-opacity:1;stroke-miterlimit:4;" d="M 144.000513 294.499854 L 150.000146 298.499609 L 153.999902 314.000472 " transform="matrix(3.779528,0,0,3.779528,0,0)"/>
<path style="fill:none;stroke-width:2;stroke-linecap:butt;stroke-linejoin:miter;stroke:rgb(0%,0%,0%);stroke-opacity:1;stroke-miterlimit:4;" d="M 137.999845 328.499845 L 121.999788 311.000138 " transform="matrix(3.779528,0,0,3.779528,0,0)"/>
<path style="fill:none;stroke-width:2;stroke-linecap:butt;stroke-linejoin:miter;stroke:rgb(0%,0%,0%);stroke-opacity:1;stroke-miterlimit:4;" d="M 120.500138 305.499699 L 124.499894 305.499699 L 138.500073 321.499756 " transform="matrix(3.779528,0,0,3.779528,0,0)"/>
<path style="fill:none;stroke-width:2;stroke-linecap:butt;stroke-linejoin:miter;stroke:rgb(0%,0%,0%);stroke-opacity:1;stroke-miterlimit:4;" d="M 142.499829 334.999707 L 126.499772 332.999829 L 109.999487 333.500057 L 93.500236 334.999707 L 76.999951 336.999585 L 60.999894 341.000374 L 44.499609 344.499902 L 28.000358 347.000008 " transform="matrix(3.779528,0,0,3.779528,0,0)"/>
<path style="fill:none;stroke-width:2;stroke-linecap:butt;stroke-linejoin:miter;stroke:rgb(0%,0%,0%);stroke-opacity:1;stroke-miterlimit:4;" d="M 14.500407 350.499536 L 22.499919 352.00022 L 14.500407 351.499992 L 12.499495 367.500049 L 21.999691 379.000122 L 37.999748 395.500407 L 49.499821 411.500464 L 85.499691 429.500399 L 89.50048 432.000505 L 105.999731 436.00026 L 118.000033 425.999837 L 125.999544 410.500008 L 141.999601 392.500073 " transform="matrix(3.779528,0,0,3.779528,0,0)"/>
<path style="fill:none;stroke-width:2;stroke-linecap:butt;stroke-linejoin:miter;stroke:rgb(0%,0%,0%);stroke-opacity:1;stroke-miterlimit:4;" d="M 112.000399 395.500407 L 96.000342 398.999935 L 79.500057 395.500407 L 63.5 400.000391 L 37.49952 395.999601 L 37.49952 373.99991 " transform="matrix(3.779528,0,0,3.779528,0,0)"/>
<path style="fill:none;stroke-width:2;stroke-linecap:butt;stroke-linejoin:miter;stroke:rgb(0%,0%,0%);stroke-opacity:1;stroke-miterlimit:4;" d="M 25.500252 384.499528 L 37.49952 374.500138 L 37.49952 380.499772 L 43.500187 396.499829 L 57.500366 411.999658 L 69.999862 411.999658 L 90.499902 423.999959 L 106.499959 423.499731 L 122.500016 411.999658 L 143.000057 418.000326 L 159.000114 404.000146 L 175.000171 384.000334 L 196.999862 375.999788 L 211.000041 375.999788 " transform="matrix(3.779528,0,0,3.779528,0,0)"/>
<path style="fill:none;stroke-width:2;stroke-linecap:butt;stroke-linejoin:miter;stroke:rgb(0%,0%,0%);stroke-opacity:1;stroke-miterlimit:4;" d="M 180.000382 353.49987 L 175.999593 369.499927 L 168.000081 384.999756 L 153.999902 400.999813 L 132.000212 416.99987 L 112.000399 414.999992 L 134.00009 409.000358 L 150.000146 402.999691 L 165.499976 387.499862 " transform="matrix(3.779528,0,0,3.779528,0,0)"/>
<path style="fill:none;stroke-width:2;stroke-linecap:butt;stroke-linejoin:miter;stroke:rgb(0%,0%,0%);stroke-opacity:1;stroke-miterlimit:4;" d="M 153.999902 381.500228 L 166.500431 364.999943 " transform="matrix(3.779528,0,0,3.779528,0,0)"/>
<path style="fill:none;stroke-width:2;stroke-linecap:butt;stroke-linejoin:miter;stroke:rgb(0%,0%,0%);stroke-opacity:1;stroke-miterlimit:4;" d="M 150.000146 362.499837 L 150.000146 377.999666 L 139.499495 394.499951 L 125.50035 410.500008 " transform="matrix(3.779528,0,0,3.779528,0,0)"/>
<path style="fill:none;stroke-width:2;stroke-linecap:butt;stroke-linejoin:miter;stroke:rgb(0%,0%,0%);stroke-opacity:1;stroke-miterlimit:4;" d="M 119.99991 457.999951 L 135.999967 470.000252 L 148.500496 459.999829 L 164.49952 459.999829 L 180.499577 447.999528 L 186.500244 436.500488 " transform="matrix(3.779528,0,0,3.779528,0,0)"/>
<path style="fill:none;stroke-width:2;stroke-linecap:butt;stroke-linejoin:miter;stroke:rgb(0%,0%,0%);stroke-opacity:1;stroke-miterlimit:4;" d="M 207.500513 429.999593 L 207.500513 441.999894 L 200.999618 458.500179 L 189.00035 464.499813 L 181.500033 484.499626 L 187.499666 504.500472 L 177.500277 502.499561 L 195.500212 504.000244 L 211.500269 504.000244 L 227.500326 497.999577 L 243.999577 495.500505 L 259.500439 499.50026 " transform="matrix(3.779528,0,0,3.779528,0,0)"/>
<path style="fill:none;stroke-width:2;stroke-linecap:butt;stroke-linejoin:miter;stroke:rgb(0%,0%,0%);stroke-opacity:1;stroke-miterlimit:4;" d="M 277.999569 490.000065 L 261.999512 479.999642 L 245.50026 475.499658 L 229.500203 473.49978 L 213.500146 467.500146 L 198.000317 468.999797 " transform="matrix(3.779528,0,0,3.779528,0,0)"/>
<path style="fill:none;stroke-width:2;stroke-linecap:butt;stroke-linejoin:miter;stroke:rgb(0%,0%,0%);stroke-opacity:1;stroke-miterlimit:4;" d="M 205.999829 456.999495 L 214.000374 472.999552 " transform="matrix(3.779528,0,0,3.779528,0,0)"/>
<path style="fill:none;stroke-width:2;stroke-linecap:butt;stroke-linejoin:miter;stroke:rgb(0%,0%,0%);stroke-opacity:1;stroke-miterlimit:4;" d="M 245.50026 481.000098 L 269.499829 497.000155 " transform="matrix(3.779528,0,0,3.779528,0,0)"/>
<path style="fill:none;stroke-width:2;stroke-linecap:butt;stroke-linejoin:miter;stroke:rgb(0%,0%,0%);stroke-opacity:1;stroke-miterlimit:4;" d="M 242.499927 504.999666 L 232.499504 511.000334 L 210.499813 508.500228 L 223.000342 479.999642 L 207.000285 479.999642 L 191.500456 475.999886 L 175.500399 479.999642 L 159.999536 484.000431 L 144.499707 493.999821 L 128.000456 482.499748 L 120.500138 482.499748 L 110.499715 466.499691 L 98.500448 450.000439 L 82.000163 433.500155 L 73.999618 417.500098 L 57.999561 401.500041 L 64.000228 385.499984 L 67.999984 369.499927 L 64.000228 350.999764 L 70.50009 334.999707 L 80.500513 316.999772 L 53.999805 301.499943 L 39.999626 285.499886 L 48.000171 282.000358 L 47.499943 266.000301 L 66.000106 255.999878 L 69.999862 239.999821 L 71.99974 223.999764 L 66.000106 220.000008 L 50.000049 216.000252 " transform="matrix(3.779528,0,0,3.779528,0,0)"/>
<path style="fill:none;stroke-width:2;stroke-linecap:butt;stroke-linejoin:miter;stroke:rgb(0%,0%,0%);stroke-opacity:1;stroke-miterlimit:4;" d="M 51.000505 207.999707 L 66.999528 198.000317 " transform="matrix(3.779528,0,0,3.779528,0,0)"/>
<path style="fill:none;stroke-width:2;stroke-linecap:butt;stroke-linejoin:miter;stroke:rgb(0%,0%,0%);stroke-opacity:1;stroke-miterlimit:4;" d="M 39.000203 212.999919 L 53.000382 231.500081 L 48.999593 247.500138 L 53.499577 273.499585 L 53.999805 289.99987 L 42.499731 305.999927 " transform="matrix(3.779528,0,0,3.779528,0,0)"/>
<path style="fill:none;stroke-width:2;stroke-linecap:butt;stroke-linejoin:miter;stroke:rgb(0%,0%,0%);stroke-opacity:1;stroke-miterlimit:4;" d="M 60.000472 295.500309 L 62.00035 293.999626 " transform="matrix(3.779528,0,0,3.779528,0,0)"/>
<path style="fill:none;stroke-width:2;stroke-linecap:butt;stroke-linejoin:miter;stroke:rgb(0%,0%,0%);stroke-opacity:1;stroke-miterlimit:4;" d="M 76.999951 321.499756 L 60.499666 323.499634 L 50.500277 319.499878 L 44.499609 325.499512 L 60.499666 298.000415 L 66.000106 282.499552 L 71.99974 284.999658 L 73.999618 268.999601 L 71.499512 252.999544 L 73.500423 236.999487 L 69.499634 228.499748 L 53.499577 228.999976 " transform="matrix(3.779528,0,0,3.779528,0,0)"/>
<path style="fill:none;stroke-width:2;stroke-linecap:butt;stroke-linejoin:miter;stroke:rgb(0%,0%,0%);stroke-opacity:1;stroke-miterlimit:4;" d="M 32.500342 246.000488 L 24.499797 255.999878 L 38.499976 239.999821 L 44.499609 223.499536 L 26.499674 247.500138 " transform="matrix(3.779528,0,0,3.779528,0,0)"/>
<path style="fill:none;stroke-width:2;stroke-linecap:butt;stroke-linejoin:miter;stroke:rgb(0%,0%,0%);stroke-opacity:1;stroke-miterlimit:4;" d="M 51.499699 259.999634 L 31.499886 259.999634 L 14.999601 266.000301 L 5.000212 257.999756 L 11.500073 255.999878 L 17.999935 239.999821 L 21.999691 224.499992 L 27.50013 209.000163 L 31.499886 193.000106 L 37.999748 177.000049 L 23.999569 170.500187 " transform="matrix(3.779528,0,0,3.779528,0,0)"/>
<path style="fill:none;stroke-width:2;stroke-linecap:butt;stroke-linejoin:miter;stroke:rgb(0%,0%,0%);stroke-opacity:1;stroke-miterlimit:4;" d="M 10.499618 182.999683 L 26.499674 162.499642 L 42.999959 168.500309 L 59.500244 172.500065 " transform="matrix(3.779528,0,0,3.779528,0,0)"/>
<path style="fill:none;stroke-width:2;stroke-linecap:butt;stroke-linejoin:miter;stroke:rgb(0%,0%,0%);stroke-opacity:1;stroke-miterlimit:4;" d="M 60.000472 157.999658 L 75.999495 164.000326 " transform="matrix(3.779528,0,0,3.779528,0,0)"/>
<path style="fill:none;stroke-width:2;stroke-linecap:butt;stroke-linejoin:miter;stroke:rgb(0%,0%,0%);stroke-opacity:1;stroke-miterlimit:4;" d="M 59.500244 156.500008 L 75.500301 152.500252 L 91.500358 146.999813 L 117.499805 137.000423 L 132.999634 148.999691 L 148.500496 148.500496 L 164.49952 150.999569 L 180.499577 148.500496 L 196.499634 148.500496 L 212.499691 150.999569 L 228.499748 150.999569 L 244.499805 153.00048 L 259.999634 155.499552 " transform="matrix(3.779528,0,0,3.779528,0,0)"/>
<path style="fill:none;stroke-width:2;stroke-linecap:butt;stroke-linejoin:miter;stroke:rgb(0%,0%,0%);stroke-opacity:1;stroke-miterlimit:4;" d="M 239.999821 164.000326 L 246.000488 180.000382 L 248.000366 196.000439 L 250.000244 212.499691 L 257.999756 244.499805 L 263.500195 260.499862 " transform="matrix(3.779528,0,0,3.779528,0,0)"/>
<path style="fill:none;stroke-width:2;stroke-linecap:butt;stroke-linejoin:miter;stroke:rgb(0%,0%,0%);stroke-opacity:1;stroke-miterlimit:4;" d="M 241.999699 221.999886 L 230.000431 191.000228 L 227.500326 168.999504 " transform="matrix(3.779528,0,0,3.779528,0,0)"/>
<path style="fill:none;stroke-width:2;stroke-linecap:butt;stroke-linejoin:miter;stroke:rgb(0%,0%,0%);stroke-opacity:1;stroke-miterlimit:4;" d="M 225.500448 164.49952 L 231.500081 180.499577 L 236.999487 196.499634 L 243.000155 212.499691 L 252.50035 214.000374 " transform="matrix(3.779528,0,0,3.779528,0,0)"/>
<path style="fill:none;stroke-width:2;stroke-linecap:butt;stroke-linejoin:miter;stroke:rgb(0%,0%,0%);stroke-opacity:1;stroke-miterlimit:4;" d="M 239.499593 254 L 241.500505 250.000244 L 227.500326 257.999756 L 223.499536 278.499797 L 211.500269 272.500163 L 207.500513 268.500407 L 217.499902 252.000122 L 233.499959 246.000488 L 215.500024 246.499683 " transform="matrix(3.779528,0,0,3.779528,0,0)"/>
<path style="fill:none;stroke-width:2;stroke-linecap:butt;stroke-linejoin:miter;stroke:rgb(0%,0%,0%);stroke-opacity:1;stroke-miterlimit:4;" d="M 219.49978 216.000252 L 218.00013 200.000195 L 218.500358 184.500366 L 218.500358 166.500431 L 202.500301 175.000171 " transform="matrix(3.779528,0,0,3.779528,0,0)"/>
<path style="fill:none;stroke-width:2;stroke-linecap:butt;stroke-linejoin:miter;stroke:rgb(0%,0%,0%);stroke-opacity:1;stroke-miterlimit:4;" d="M 186.500244 168.500309 L 196.499634 170.500187 L 188.500122 186.500244 " transform="matrix(3.779528,0,0,3.779528,0,0)"/>
<path style="fill:none;stroke-width:2;stroke-linecap:butt;stroke-linejoin:miter;stroke:rgb(0%,0%,0%);stroke-opacity:1;stroke-miterlimit:4;" d="M 164.999748 189.999772 L 164.999748 193.999528 L 159.000114 220.000008 L 175.000171 216.000252 " transform="matrix(3.779528,0,0,3.779528,0,0)"/>
<path style="fill:none;stroke-width:2;stroke-linecap:butt;stroke-linejoin:miter;stroke:rgb(0%,0%,0%);stroke-opacity:1;stroke-miterlimit:4;" d="M 178.499699 218.00013 L 168.500309 196.000439 L 182.500488 191.99965 L 186.000016 175.999593 L 178.000505 161.50022 L 162.000448 161.50022 " transform="matrix(3.779528,0,0,3.779528,0,0)"/>
<path style="fill:none;stroke-width:2;stroke-linecap:butt;stroke-linejoin:miter;stroke:rgb(0%,0%,0%);stroke-opacity:1;stroke-miterlimit:4;" d="M 152.500252 182.500488 L 156.500008 198.499512 L 144.499707 222.500114 L 158.499886 238.500171 L 144.499707 250.500472 L 160.499764 254.500228 " transform="matrix(3.779528,0,0,3.779528,0,0)"/>
<path style="fill:none;stroke-width:2;stroke-linecap:butt;stroke-linejoin:miter;stroke:rgb(0%,0%,0%);stroke-opacity:1;stroke-miterlimit:4;" d="M 180.499577 273.000391 L 196.000439 273.000391 L 218.00013 269.499829 " transform="matrix(3.779528,0,0,3.779528,0,0)"/>
<path style="fill:none;stroke-width:2;stroke-linecap:butt;stroke-linejoin:miter;stroke:rgb(0%,0%,0%);stroke-opacity:1;stroke-miterlimit:4;" d="M 250.000244 269.499829 L 234.000187 273.499585 L 212.000496 271.999935 L 196.499634 280.00048 L 180.499577 277.999569 " transform="matrix(3.779528,0,0,3.779528,0,0)"/>
<path style="fill:none;stroke-width:2;stroke-linecap:butt;stroke-linejoin:miter;stroke:rgb(0%,0%,0%);stroke-opacity:1;stroke-miterlimit:4;" d="M 135.999967 255.49965 L 130.499528 239.499593 L 126.499772 223.000342 " transform="matrix(3.779528,0,0,3.779528,0,0)"/>
<path style="fill:none;stroke-width:2;stroke-linecap:butt;stroke-linejoin:miter;stroke:rgb(0%,0%,0%);stroke-opacity:1;stroke-miterlimit:4;" d="M 128.999878 218.00013 L 134.999512 233.499959 L 141.500407 249.500016 L 148.000269 265.500073 L 148.500496 273.499585 L 148.500496 289.99987 L 143.000057 305.999927 L 160.999992 314.000472 L 154.50013 329.999495 L 170.500187 329.999495 L 190.5 334.500513 L 206.500057 332.499601 L 222.500114 316.00035 " transform="matrix(3.779528,0,0,3.779528,0,0)"/>
<path style="fill:none;stroke-width:2;stroke-linecap:butt;stroke-linejoin:miter;stroke:rgb(0%,0%,0%);stroke-opacity:1;stroke-miterlimit:4;" d="M 258.499984 273.499585 L 242.499927 277.500374 L 226.49987 283.500008 L 210.499813 285.499886 L 193.999528 287.999992 L 178.000505 288.50022 L 171.999837 284.500464 L 162.000448 250.500472 L 146.000391 244.499805 L 130.000334 218.00013 " transform="matrix(3.779528,0,0,3.779528,0,0)"/>
<path style="fill:none;stroke-width:2;stroke-linecap:butt;stroke-linejoin:miter;stroke:rgb(0%,0%,0%);stroke-opacity:1;stroke-miterlimit:4;" d="M 111.500171 223.000342 L 111.500171 239.000399 L 119.499683 255.49965 L 121.499561 271.499707 L 127.500228 293.999626 L 133.499862 302.000171 L 125.50035 307.999805 " transform="matrix(3.779528,0,0,3.779528,0,0)"/>
<path style="fill:none;stroke-width:2;stroke-linecap:butt;stroke-linejoin:miter;stroke:rgb(0%,0%,0%);stroke-opacity:1;stroke-miterlimit:4;" d="M 119.000488 340.500146 L 114.999699 355.999976 L 112.999821 372.000033 L 123.000244 365.500171 L 126.499772 359.499504 L 139.999723 363.500293 L 148.000269 387.499862 L 147.500041 365.500171 L 165.499976 353.49987 L 171.499609 352.00022 L 193.500334 355.999976 L 209.500391 349.500114 L 225.500448 341.499569 L 241.500505 329.500301 " transform="matrix(3.779528,0,0,3.779528,0,0)"/>
<path style="fill:none;stroke-width:2;stroke-linecap:butt;stroke-linejoin:miter;stroke:rgb(0%,0%,0%);stroke-opacity:1;stroke-miterlimit:4;" d="M 273.499585 355.999976 L 261.500317 372.000033 L 255.49965 386.500439 L 271.499707 378.499894 " transform="matrix(3.779528,0,0,3.779528,0,0)"/>
<path style="fill:none;stroke-width:2;stroke-linecap:butt;stroke-linejoin:miter;stroke:rgb(0%,0%,0%);stroke-opacity:1;stroke-miterlimit:4;" d="M 290.500098 434.499577 L 288.50022 446.499878 " transform="matrix(3.779528,0,0,3.779528,0,0)"/>
<path style="fill:none;stroke-width:2;stroke-linecap:butt;stroke-linejoin:miter;stroke:rgb(0%,0%,0%);stroke-opacity:1;stroke-miterlimit:4;" d="M 248.999788 477.499536 L 277.000146 493.499593 L 262.999967 509.999878 " transform="matrix(3.779528,0,0,3.779528,0,0)"/>
<path style="fill:none;stroke-width:2;stroke-linecap:butt;stroke-linejoin:miter;stroke:rgb(0%,0%,0%);stroke-opacity:1;stroke-miterlimit:4;" d="M 175.500399 509.999878 L 159.500342 508 " transform="matrix(3.779528,0,0,3.779528,0,0)"/>
<path style="fill:none;stroke-width:2;stroke-linecap:butt;stroke-linejoin:miter;stroke:rgb(0%,0%,0%);stroke-opacity:1;stroke-miterlimit:4;" d="M 171.499609 460.500057 L 193.999528 454.000195 L 196.499634 438.000138 L 200.999618 422.000081 L 191.000228 413.500342 L 175.500399 411.000236 " transform="matrix(3.779528,0,0,3.779528,0,0)"/>
<path style="fill:none;stroke-width:2;stroke-linecap:butt;stroke-linejoin:miter;stroke:rgb(0%,0%,0%);stroke-opacity:1;stroke-miterlimit:4;" d="M 160.499764 457.499723 L 144.499707 454.999618 " transform="matrix(3.779528,0,0,3.779528,0,0)"/>
<path style="fill:none;stroke-width:2;stroke-linecap:butt;stroke-linejoin:miter;stroke:rgb(0%,0%,0%);stroke-opacity:1;stroke-miterlimit:4;" d="M 146.999813 477.499536 L 128.49965 477.499536 L 112.499593 459.499601 " transform="matrix(3.779528,0,0,3.779528,0,0)"/>
<path style="fill:none;stroke-width:2;stroke-linecap:butt;stroke-linejoin:miter;stroke:rgb(0%,0%,0%);stroke-opacity:1;stroke-miterlimit:4;" d="M 111.500171 456.999495 L 111.500171 448.499756 L 113.500049 466.499691 L 129.500106 490.500293 " transform="matrix(3.779528,0,0,3.779528,0,0)"/>
<path style="fill:none;stroke-width:2;stroke-linecap:butt;stroke-linejoin:miter;stroke:rgb(0%,0%,0%);stroke-opacity:1;stroke-miterlimit:4;" d="M 87.499569 403.499919 L 71.99974 401.500041 " transform="matrix(3.779528,0,0,3.779528,0,0)"/>
<path style="fill:none;stroke-width:2;stroke-linecap:butt;stroke-linejoin:miter;stroke:rgb(0%,0%,0%);stroke-opacity:1;stroke-miterlimit:4;" d="M 59.500244 393.499495 L 75.500301 387.499862 L 91.500358 383.500106 " transform="matrix(3.779528,0,0,3.779528,0,0)"/>
<path style="fill:none;stroke-width:2;stroke-linecap:butt;stroke-linejoin:miter;stroke:rgb(0%,0%,0%);stroke-opacity:1;stroke-miterlimit:4;" d="M 68.500212 367.500049 L 62.499544 391.999845 L 71.99974 407.999902 L 91.500358 407.999902 L 99.49987 416.000448 L 110.999943 406.000024 " transform="matrix(3.779528,0,0,3.779528,0,0)"/>
<path style="fill:none;stroke-width:2;stroke-linecap:butt;stroke-linejoin:miter;stroke:rgb(0%,0%,0%);stroke-opacity:1;stroke-miterlimit:4;" d="M 104.500081 402.500496 L 102.500203 382.000456 L 85.999919 377.999666 L 69.999862 384.000334 L 53.999805 391.999845 " transform="matrix(3.779528,0,0,3.779528,0,0)"/>
<path style="fill:none;stroke-width:2;stroke-linecap:butt;stroke-linejoin:miter;stroke:rgb(0%,0%,0%);stroke-opacity:1;stroke-miterlimit:4;" d="M 41.999504 391.499618 L 57.500366 409.499552 L 81.499935 416.99987 L 97.499992 411.000236 " transform="matrix(3.779528,0,0,3.779528,0,0)"/>
<path style="fill:none;stroke-width:2;stroke-linecap:butt;stroke-linejoin:miter;stroke:rgb(0%,0%,0%);stroke-opacity:1;stroke-miterlimit:4;" d="M 107.999609 441.000472 L 91.999552 438.999561 L 75.999495 427.000293 L 61.500122 420.500431 L 57.500366 418.49952 L 51.999927 411.000236 L 35.99987 404.999569 L 19.999813 388.999512 L 10.000423 413.000114 L 5.500439 425.000415 L 21.500496 409.000358 L 35.499642 401.500041 L 21.500496 385.499984 L 23.999569 370.000155 L 41.999504 350.499536 L 26.00048 352.500448 L 19.999813 360.499959 " transform="matrix(3.779528,0,0,3.779528,0,0)"/>
<path style="fill:none;stroke-width:2;stroke-linecap:butt;stroke-linejoin:miter;stroke:rgb(0%,0%,0%);stroke-opacity:1;stroke-miterlimit:4;" d="M 3.499528 352.500448 L 19.000391 344.499902 L 35.000448 342.500024 L 50.500277 338.000041 L 66.000106 332.000407 " transform="matrix(3.779528,0,0,3.779528,0,0)"/>
<path style="fill:none;stroke-width:2;stroke-linecap:butt;stroke-linejoin:miter;stroke:rgb(0%,0%,0%);stroke-opacity:1;stroke-miterlimit:4;" d="M 122.500016 347.500236 L 108.499837 337.499813 L 93.000008 339.499691 L 78.999829 352.00022 L 73.000195 343.999674 L 62.999772 348.499658 L 42.499731 336.500391 L 26.499674 339.000496 L 10.000423 341.000374 L 5.999634 329.000073 " transform="matrix(3.779528,0,0,3.779528,0,0)"/>
<path style="fill:none;stroke-width:2;stroke-linecap:butt;stroke-linejoin:miter;stroke:rgb(0%,0%,0%);stroke-opacity:1;stroke-miterlimit:4;" d="M 14.999601 382.000456 L 25.000024 387.499862 L 41.000081 403.499919 " transform="matrix(3.779528,0,0,3.779528,0,0)"/>
<path style="fill:none;stroke-width:2;stroke-linecap:butt;stroke-linejoin:miter;stroke:rgb(0%,0%,0%);stroke-opacity:1;stroke-miterlimit:4;" d="M 50.500277 439.499788 L 34.50022 448.999984 L 2.500106 448.999984 " transform="matrix(3.779528,0,0,3.779528,0,0)"/>
<path style="fill:none;stroke-width:2;stroke-linecap:butt;stroke-linejoin:miter;stroke:rgb(0%,0%,0%);stroke-opacity:1;stroke-miterlimit:4;" d="M 3.000334 442.500122 L 35.000448 442.500122 L 51.499699 432.499699 L 61.500122 432.499699 " transform="matrix(3.779528,0,0,3.779528,0,0)"/>
<path style="fill:none;stroke-width:2;stroke-linecap:butt;stroke-linejoin:miter;stroke:rgb(0%,0%,0%);stroke-opacity:1;stroke-miterlimit:4;" d="M 37.999748 440.000016 L 53.999805 420.000203 L 32.000114 403.499919 L 14.000179 418.000326 L 3.999756 420.000203 L 20.500041 404.500374 L 21.000269 393.000301 L 8.999967 381 L 3.000334 384.999756 " transform="matrix(3.779528,0,0,3.779528,0,0)"/>
<path style="fill:none;stroke-width:2;stroke-linecap:butt;stroke-linejoin:miter;stroke:rgb(0%,0%,0%);stroke-opacity:1;stroke-miterlimit:4;" d="M 35.499642 298.000415 L 11.500073 309.999683 L 11.500073 293.500431 L 14.000179 277.500374 L 5.500439 259.500439 L 9.500195 243.500382 L 15.499829 227.500326 L 19.499585 211.500269 L 25.500252 194.999984 L 27.50013 179.500155 L 13.499951 178.000505 L 19.999813 178.000505 L 17.999935 160.499764 L 1.999878 159.999536 " transform="matrix(3.779528,0,0,3.779528,0,0)"/>
<path style="fill:none;stroke-width:2;stroke-linecap:butt;stroke-linejoin:miter;stroke:rgb(0%,0%,0%);stroke-opacity:1;stroke-miterlimit:4;" d="M 1.999878 148.500496 L 17.999935 152.500252 L 34.50022 158.499886 L 50.500277 162.99987 L 66.500334 168.999504 " transform="matrix(3.779528,0,0,3.779528,0,0)"/>
<path style="fill:none;stroke-width:2;stroke-linecap:butt;stroke-linejoin:miter;stroke:rgb(0%,0%,0%);stroke-opacity:1;stroke-miterlimit:4;" d="M 75.500301 141.500407 L 91.500358 139.499495 L 117.499805 151.499797 L 119.499683 145.500163 L 132.000212 153.499674 L 148.000269 151.499797 L 150.500374 163.500098 L 159.000114 153.999902 L 175.500399 152.000024 L 191.500456 152.000024 L 196.000439 164.000326 L 211.500269 162.000448 L 227.500326 162.000448 L 243.000155 164.000326 L 238.500171 195.500212 " transform="matrix(3.779528,0,0,3.779528,0,0)"/>
<path style="fill:none;stroke-width:2;stroke-linecap:butt;stroke-linejoin:miter;stroke:rgb(0%,0%,0%);stroke-opacity:1;stroke-miterlimit:4;" d="M 244.499805 198.499512 L 242.499927 182.500488 L 236.500293 166.500431 " transform="matrix(3.779528,0,0,3.779528,0,0)"/>
<path style="fill:none;stroke-width:2;stroke-linecap:butt;stroke-linejoin:miter;stroke:rgb(0%,0%,0%);stroke-opacity:1;stroke-miterlimit:4;" d="M 236.999487 160.499764 L 248.999788 166.500431 L 252.999544 182.00026 L 255.000456 197.50009 L 259.000212 213.500146 L 262.999967 228.999976 L 259.500439 232.999731 L 266.000301 249.500016 L 259.999634 261.500317 L 259.999634 271.499707 L 255.999878 283.500008 L 254 299.500065 L 239.999821 302.999593 L 227.99952 313.000016 L 220.000008 329.000073 L 214.000374 343.000252 L 212.000496 363.000065 L 212.000496 379.000122 L 209.500391 395.500407 L 191.500456 407.499674 L 193.000106 423.499731 L 203.499723 429.999593 L 200.000195 445.500456 L 196.000439 461.000285 L 190.5 477.000342 L 224.499992 475.000464 L 230.499626 481.000098 L 209.000163 487.499959 L 221.000464 485.500081 L 246.499683 481.000098 L 262.49974 484.999854 L 266.499495 495.500505 L 248.499561 509.000456 L 252.000122 504.500472 L 264.000423 509.000456 " transform="matrix(3.779528,0,0,3.779528,0,0)"/>
<path style="fill:none;stroke-width:2;stroke-linecap:butt;stroke-linejoin:miter;stroke:rgb(0%,0%,0%);stroke-opacity:1;stroke-miterlimit:4;" d="M 385.499984 509.49965 L 391.999845 505.499894 L 407.999902 502.000366 " transform="matrix(3.779528,0,0,3.779528,0,0)"/>
<path style="fill:none;stroke-width:2;stroke-linecap:butt;stroke-linejoin:miter;stroke:rgb(0%,0%,0%);stroke-opacity:1;stroke-miterlimit:4;" d="M 416.499642 504.000244 L 400.000391 509.999878 " transform="matrix(3.779528,0,0,3.779528,0,0)"/>
<path style="fill:none;stroke-width:2;stroke-linecap:butt;stroke-linejoin:miter;stroke:rgb(0%,0%,0%);stroke-opacity:1;stroke-miterlimit:4;" d="M 397.500285 466.000496 L 381.500228 481.99952 L 393.999723 470.000252 L 409.99978 457.999951 L 425.999837 456.500301 " transform="matrix(3.779528,0,0,3.779528,0,0)"/>
<path style="fill:none;stroke-width:2;stroke-linecap:butt;stroke-linejoin:miter;stroke:rgb(0%,0%,0%);stroke-opacity:1;stroke-miterlimit:4;" d="M 432.999927 450.000439 L 438.999561 434.000382 L 438.999561 418.000326 L 414.499764 416.000448 " transform="matrix(3.779528,0,0,3.779528,0,0)"/>
<path style="fill:none;stroke-width:2;stroke-linecap:butt;stroke-linejoin:miter;stroke:rgb(0%,0%,0%);stroke-opacity:1;stroke-miterlimit:4;" d="M 422.999504 407.999902 L 397.000057 393.999723 L 381 374.500138 L 364.999943 350.499536 " transform="matrix(3.779528,0,0,3.779528,0,0)"/>
<path style="fill:none;stroke-width:2;stroke-linecap:butt;stroke-linejoin:miter;stroke:rgb(0%,0%,0%);stroke-opacity:1;stroke-miterlimit:4;" d="M 366.999821 345.999552 L 379.000122 361.500415 L 388.999512 377.000244 L 391.000423 393.000301 L 395.000179 400.999813 L 420.500431 400.999813 L 436.999683 411.000236 " transform="matrix(3.779528,0,0,3.779528,0,0)"/>
<path style="fill:none;stroke-width:2;stroke-linecap:butt;stroke-linejoin:miter;stroke:rgb(0%,0%,0%);stroke-opacity:1;stroke-miterlimit:4;" d="M 452.000317 391.499618 L 468.000374 391.000423 L 484.000431 388.999512 L 499.50026 393.000301 " transform="matrix(3.779528,0,0,3.779528,0,0)"/>
<path style="fill:none;stroke-width:2;stroke-linecap:butt;stroke-linejoin:miter;stroke:rgb(0%,0%,0%);stroke-opacity:1;stroke-miterlimit:4;" d="M 495.500505 386.000212 L 507.499772 402.500496 " transform="matrix(3.779528,0,0,3.779528,0,0)"/>
<path style="fill:none;stroke-width:2;stroke-linecap:butt;stroke-linejoin:miter;stroke:rgb(0%,0%,0%);stroke-opacity:1;stroke-miterlimit:4;" d="M 509.49965 349.500114 L 493.499593 343.50048 L 477.000342 333.500057 L 461.000285 325.499512 " transform="matrix(3.779528,0,0,3.779528,0,0)"/>
<path style="fill:none;stroke-width:2;stroke-linecap:butt;stroke-linejoin:miter;stroke:rgb(0%,0%,0%);stroke-opacity:1;stroke-miterlimit:4;" d="M 466.000496 321.999984 L 481.99952 329.999495 L 497.500382 339.999919 " transform="matrix(3.779528,0,0,3.779528,0,0)"/>
<path style="fill:none;stroke-width:2;stroke-linecap:butt;stroke-linejoin:miter;stroke:rgb(0%,0%,0%);stroke-opacity:1;stroke-miterlimit:4;" d="M 506.999544 316.999772 L 490.999487 311.500366 " transform="matrix(3.779528,0,0,3.779528,0,0)"/>
<path style="fill:none;stroke-width:2;stroke-linecap:butt;stroke-linejoin:miter;stroke:rgb(0%,0%,0%);stroke-opacity:1;stroke-miterlimit:4;" d="M 493.000399 309.500488 L 504.500472 325.99974 " transform="matrix(3.779528,0,0,3.779528,0,0)"/>
<path style="fill:none;stroke-width:2;stroke-linecap:butt;stroke-linejoin:miter;stroke:rgb(0%,0%,0%);stroke-opacity:1;stroke-miterlimit:4;" d="M 501.500138 321.499756 L 484.999854 311.000138 " transform="matrix(3.779528,0,0,3.779528,0,0)"/>
<path style="fill:none;stroke-width:2;stroke-linecap:butt;stroke-linejoin:miter;stroke:rgb(0%,0%,0%);stroke-opacity:1;stroke-miterlimit:4;" d="M 481.99952 316.00035 L 504.000244 332.000407 " transform="matrix(3.779528,0,0,3.779528,0,0)"/>
<path style="fill:none;stroke-width:2;stroke-linecap:butt;stroke-linejoin:miter;stroke:rgb(0%,0%,0%);stroke-opacity:1;stroke-miterlimit:4;" d="M 502.000366 330.999951 L 486.000309 318.99965 L 470.50048 316.999772 L 454.500423 320.999528 " transform="matrix(3.779528,0,0,3.779528,0,0)"/>
<path style="fill:none;stroke-width:2;stroke-linecap:butt;stroke-linejoin:miter;stroke:rgb(0%,0%,0%);stroke-opacity:1;stroke-miterlimit:4;" d="M 472.999552 313.500244 L 481.000098 329.500301 " transform="matrix(3.779528,0,0,3.779528,0,0)"/>
<path style="fill:none;stroke-width:2;stroke-linecap:butt;stroke-linejoin:miter;stroke:rgb(0%,0%,0%);stroke-opacity:1;stroke-miterlimit:4;" d="M 484.999854 339.499691 L 459.000407 323.499634 L 475.000464 307.999805 " transform="matrix(3.779528,0,0,3.779528,0,0)"/>
<path style="fill:none;stroke-width:2;stroke-linecap:butt;stroke-linejoin:miter;stroke:rgb(0%,0%,0%);stroke-opacity:1;stroke-miterlimit:4;" d="M 508.500228 282.499552 L 486.499504 286.500342 L 470.000252 292.499976 L 454.000195 302.500399 L 437.49991 288.50022 " transform="matrix(3.779528,0,0,3.779528,0,0)"/>
<path style="fill:none;stroke-width:2;stroke-linecap:butt;stroke-linejoin:miter;stroke:rgb(0%,0%,0%);stroke-opacity:1;stroke-miterlimit:4;" d="M 434.999805 285.499886 L 450.999862 293.500431 L 466.999919 287.999992 L 482.999976 282.000358 " transform="matrix(3.779528,0,0,3.779528,0,0)"/>
<path style="fill:none;stroke-width:2;stroke-linecap:butt;stroke-linejoin:miter;stroke:rgb(0%,0%,0%);stroke-opacity:1;stroke-miterlimit:4;" d="M 473.49978 291.000326 L 497.999577 275.000269 L 500.000488 258.499984 " transform="matrix(3.779528,0,0,3.779528,0,0)"/>
<path style="fill:none;stroke-width:2;stroke-linecap:butt;stroke-linejoin:miter;stroke:rgb(0%,0%,0%);stroke-opacity:1;stroke-miterlimit:4;" d="M 494.500049 254.500228 L 490.999487 270.500285 L 466.999919 286.500342 L 459.000407 298.499609 " transform="matrix(3.779528,0,0,3.779528,0,0)"/>
<path style="fill:none;stroke-width:2;stroke-linecap:butt;stroke-linejoin:miter;stroke:rgb(0%,0%,0%);stroke-opacity:1;stroke-miterlimit:4;" d="M 438.999561 282.499552 L 445.000228 298.499609 L 463.000163 312.499788 L 479.00022 307.999805 L 495.000277 305.999927 L 511.000334 303.499821 " transform="matrix(3.779528,0,0,3.779528,0,0)"/>
<path style="fill:none;stroke-width:2;stroke-linecap:butt;stroke-linejoin:miter;stroke:rgb(0%,0%,0%);stroke-opacity:1;stroke-miterlimit:4;" d="M 465.500269 253.499772 L 451.50009 269.499829 " transform="matrix(3.779528,0,0,3.779528,0,0)"/>
<path style="fill:none;stroke-width:2;stroke-linecap:butt;stroke-linejoin:miter;stroke:rgb(0%,0%,0%);stroke-opacity:1;stroke-miterlimit:4;" d="M 461.000285 252.999544 L 450.999862 266.499495 L 462.499935 250.500472 " transform="matrix(3.779528,0,0,3.779528,0,0)"/>
<path style="fill:none;stroke-width:2;stroke-linecap:butt;stroke-linejoin:miter;stroke:rgb(0%,0%,0%);stroke-opacity:1;stroke-miterlimit:4;" d="M 457.499723 204.500179 L 473.49978 196.499634 L 489.499837 182.999683 L 477.499536 175.000171 " transform="matrix(3.779528,0,0,3.779528,0,0)"/>
<path style="fill:none;stroke-width:2;stroke-linecap:butt;stroke-linejoin:miter;stroke:rgb(0%,0%,0%);stroke-opacity:1;stroke-miterlimit:4;" d="M 466.999919 178.499699 L 438.500366 166.500431 L 422.500309 166.500431 " transform="matrix(3.779528,0,0,3.779528,0,0)"/>
<path style="fill:none;stroke-width:2;stroke-linecap:butt;stroke-linejoin:miter;stroke:rgb(0%,0%,0%);stroke-opacity:1;stroke-miterlimit:4;" d="M 418.49952 164.49952 L 434.000382 162.499642 L 450.000439 168.500309 L 465.500269 170.500187 L 481.500326 164.999748 L 483.500203 162.499642 " transform="matrix(3.779528,0,0,3.779528,0,0)"/>
<path style="fill:none;stroke-width:2;stroke-linecap:butt;stroke-linejoin:miter;stroke:rgb(0%,0%,0%);stroke-opacity:1;stroke-miterlimit:4;" d="M 483.500203 150.000146 L 499.50026 162.000448 " transform="matrix(3.779528,0,0,3.779528,0,0)"/>
<path style="fill:none;stroke-width:2;stroke-linecap:butt;stroke-linejoin:miter;stroke:rgb(0%,0%,0%);stroke-opacity:1;stroke-miterlimit:4;" d="M 495.000277 168.500309 L 486.499504 184.500366 L 470.50048 200.000195 L 474.500236 216.000252 L 477.999764 200.500423 L 493.999821 186.500244 L 509.999878 184.000138 " transform="matrix(3.779528,0,0,3.779528,0,0)"/>
<path style="fill:none;stroke-width:2;stroke-linecap:butt;stroke-linejoin:miter;stroke:rgb(0%,0%,0%);stroke-opacity:1;stroke-miterlimit:4;" d="M 506.000122 155.99978 L 490.000065 144.000513 " transform="matrix(3.779528,0,0,3.779528,0,0)"/>
<path style="fill:none;stroke-width:2;stroke-linecap:butt;stroke-linejoin:miter;stroke:rgb(0%,0%,0%);stroke-opacity:1;stroke-miterlimit:4;" d="M 487.499959 138.500073 L 489.499837 154.50013 L 503.500016 170.500187 L 493.499593 186.500244 L 475.499658 202.500301 L 481.500326 216.000252 L 481.99952 207.999707 " transform="matrix(3.779528,0,0,3.779528,0,0)"/>
<path style="fill:none;stroke-width:2;stroke-linecap:butt;stroke-linejoin:miter;stroke:rgb(0%,0%,0%);stroke-opacity:1;stroke-miterlimit:4;" d="M 428.499943 213.500146 L 430.499821 201.499845 L 434.499577 199.499967 L 424.500187 215.500024 L 432.499699 231.500081 " transform="matrix(3.779528,0,0,3.779528,0,0)"/>
<path style="fill:none;stroke-width:2;stroke-linecap:butt;stroke-linejoin:miter;stroke:rgb(0%,0%,0%);stroke-opacity:1;stroke-miterlimit:4;" d="M 434.000382 225.00022 L 430.499821 209.500391 L 436.999683 193.500334 L 429.000171 191.500456 " transform="matrix(3.779528,0,0,3.779528,0,0)"/>
<path style="fill:none;stroke-width:2;stroke-linecap:butt;stroke-linejoin:miter;stroke:rgb(0%,0%,0%);stroke-opacity:1;stroke-miterlimit:4;" d="M 461.000285 157.500464 L 445.000228 148.000269 L 429.000171 132.000212 " transform="matrix(3.779528,0,0,3.779528,0,0)"/>
<path style="fill:none;stroke-width:2;stroke-linecap:butt;stroke-linejoin:miter;stroke:rgb(0%,0%,0%);stroke-opacity:1;stroke-miterlimit:4;" d="M 425.999837 130.499528 L 442.500122 130.000334 L 457.999951 130.000334 L 473.49978 128.000456 L 504.999666 128.000456 " transform="matrix(3.779528,0,0,3.779528,0,0)"/>
<path style="fill:none;stroke-width:2;stroke-linecap:butt;stroke-linejoin:miter;stroke:rgb(0%,0%,0%);stroke-opacity:1;stroke-miterlimit:4;" d="M 504.000244 146.999813 L 488.000187 137.000423 " transform="matrix(3.779528,0,0,3.779528,0,0)"/>
<path style="fill:none;stroke-width:2;stroke-linecap:butt;stroke-linejoin:miter;stroke:rgb(0%,0%,0%);stroke-opacity:1;stroke-miterlimit:4;" d="M 489.499837 100.99952 L 504.999666 105.000309 " transform="matrix(3.779528,0,0,3.779528,0,0)"/>
<path style="fill:none;stroke-width:2;stroke-linecap:butt;stroke-linejoin:miter;stroke:rgb(0%,0%,0%);stroke-opacity:1;stroke-miterlimit:4;" d="M 508 109.500293 L 502.000366 97.499992 L 486.000309 96.999764 " transform="matrix(3.779528,0,0,3.779528,0,0)"/>
<path style="fill:none;stroke-width:2;stroke-linecap:butt;stroke-linejoin:miter;stroke:rgb(0%,0%,0%);stroke-opacity:1;stroke-miterlimit:4;" d="M 497.000155 122.500016 L 481.000098 123.999666 L 465.000041 121.499561 L 448.999984 125.50035 L 432.999927 119.499683 L 416.99987 127.500228 " transform="matrix(3.779528,0,0,3.779528,0,0)"/>
<path style="fill:none;stroke-width:2;stroke-linecap:butt;stroke-linejoin:miter;stroke:rgb(0%,0%,0%);stroke-opacity:1;stroke-miterlimit:4;" d="M 418.49952 130.999756 L 434.499577 146.999813 L 450.499634 157.500464 " transform="matrix(3.779528,0,0,3.779528,0,0)"/>
<path style="fill:none;stroke-width:2;stroke-linecap:butt;stroke-linejoin:miter;stroke:rgb(0%,0%,0%);stroke-opacity:1;stroke-miterlimit:4;" d="M 459.000407 157.999658 L 436.999683 142.499829 L 431.000049 126.499772 " transform="matrix(3.779528,0,0,3.779528,0,0)"/>
<path style="fill:none;stroke-width:2;stroke-linecap:butt;stroke-linejoin:miter;stroke:rgb(0%,0%,0%);stroke-opacity:1;stroke-miterlimit:4;" d="M 427.000293 119.000488 L 418.49952 134.999512 L 434.999805 150.999569 L 454.500423 166.999626 L 464.499813 176.499821 L 479.999642 172.500065 L 496.499927 168.500309 " transform="matrix(3.779528,0,0,3.779528,0,0)"/>
<path style="fill:none;stroke-width:2;stroke-linecap:butt;stroke-linejoin:miter;stroke:rgb(0%,0%,0%);stroke-opacity:1;stroke-miterlimit:4;" d="M 363.999487 268.999601 L 348.000464 277.000146 L 334.500513 300.499487 L 325.99974 300.499487 L 309.500488 321.999984 L 303.499821 339.999919 L 309.500488 321.999984 L 318.99965 305.999927 L 335.499935 289.499642 L 339.000496 273.499585 L 354.500326 267.499951 L 338.000041 271.499707 " transform="matrix(3.779528,0,0,3.779528,0,0)"/>
<path style="fill:none;stroke-width:2;stroke-linecap:butt;stroke-linejoin:miter;stroke:rgb(0%,0%,0%);stroke-opacity:1;stroke-miterlimit:4;" d="M 345.00013 276.499919 L 343.000252 292.499976 L 326.499967 308.500033 L 316.499544 324.50009 L 304.500277 340.500146 " transform="matrix(3.779528,0,0,3.779528,0,0)"/>
<path style="fill:none;stroke-width:2;stroke-linecap:butt;stroke-linejoin:miter;stroke:rgb(0%,0%,0%);stroke-opacity:1;stroke-miterlimit:4;" d="M 361.999609 345.500358 L 377.999666 359.499504 L 377.999666 379.999544 L 384.000334 393.999723 " transform="matrix(3.779528,0,0,3.779528,0,0)"/>
<path style="fill:none;stroke-width:2;stroke-linecap:butt;stroke-linejoin:miter;stroke:rgb(0%,0%,0%);stroke-opacity:1;stroke-miterlimit:4;" d="M 364.999943 343.999674 L 370.999577 359.999731 L 375.000366 375.499561 L 380.499772 391.499618 L 410.500008 402.000269 L 429.999593 411.999658 L 434.499577 427.999715 L 430.499821 443.999772 L 398.499707 459.999829 L 380.499772 476.500114 L 384.499528 472.500358 L 400.499585 457.999951 L 416.499642 449.500212 L 432.499699 441.499666 " transform="matrix(3.779528,0,0,3.779528,0,0)"/>
<path style="fill:none;stroke-width:2;stroke-linecap:butt;stroke-linejoin:miter;stroke:rgb(0%,0%,0%);stroke-opacity:1;stroke-miterlimit:4;" d="M 400.000391 447.500334 L 384.000334 451.50009 L 368.000277 461.500513 L 391.999845 447.500334 " transform="matrix(3.779528,0,0,3.779528,0,0)"/>
<path style="fill:none;stroke-width:2;stroke-linecap:butt;stroke-linejoin:miter;stroke:rgb(0%,0%,0%);stroke-opacity:1;stroke-miterlimit:4;" d="M 448.499756 386.999634 L 464.499813 386.999634 L 481.000098 384.499528 L 497.500382 376.500016 L 506.000122 368.500505 L 477.999764 384.499528 " transform="matrix(3.779528,0,0,3.779528,0,0)"/>
<path style="fill:none;stroke-width:2;stroke-linecap:butt;stroke-linejoin:miter;stroke:rgb(0%,0%,0%);stroke-opacity:1;stroke-miterlimit:4;" d="M 339.999919 207.500513 L 323.999862 197.50009 " transform="matrix(3.779528,0,0,3.779528,0,0)"/>
<path style="fill:none;stroke-width:2;stroke-linecap:butt;stroke-linejoin:miter;stroke:rgb(0%,0%,0%);stroke-opacity:1;stroke-miterlimit:4;" d="M 321.999984 194.999984 L 341.999797 211.000041 L 341.499569 227.000098 " transform="matrix(3.779528,0,0,3.779528,0,0)"/>
<path style="fill:none;stroke-width:2;stroke-linecap:butt;stroke-linejoin:miter;stroke:rgb(0%,0%,0%);stroke-opacity:1;stroke-miterlimit:4;" d="M 346.49978 227.000098 L 348.999886 211.000041 L 348.999886 194.999984 L 340.500146 183.49991 L 324.50009 181.500033 " transform="matrix(3.779528,0,0,3.779528,0,0)"/>
<path style="fill:none;stroke-width:2;stroke-linecap:butt;stroke-linejoin:miter;stroke:rgb(0%,0%,0%);stroke-opacity:1;stroke-miterlimit:4;" d="M 323.999862 178.000505 L 339.499691 177.500277 L 348.999886 182.00026 L 344.499902 198.000317 " transform="matrix(3.779528,0,0,3.779528,0,0)"/>
<path style="fill:none;stroke-width:2;stroke-linecap:butt;stroke-linejoin:miter;stroke:rgb(0%,0%,0%);stroke-opacity:1;stroke-miterlimit:4;" d="M 339.000496 199.499967 L 323.000439 193.500334 " transform="matrix(3.779528,0,0,3.779528,0,0)"/>
<path style="fill:none;stroke-width:2;stroke-linecap:butt;stroke-linejoin:miter;stroke:rgb(0%,0%,0%);stroke-opacity:1;stroke-miterlimit:4;" d="M 265.500073 221.999886 L 264.000423 205.999829 L 259.999634 189.999772 L 258.499984 173.999715 L 252.999544 158.499886 L 243.000155 156.500008 L 227.000098 154.50013 L 211.500269 154.50013 " transform="matrix(3.779528,0,0,3.779528,0,0)"/>
<path style="fill:none;stroke-width:2;stroke-linecap:butt;stroke-linejoin:miter;stroke:rgb(0%,0%,0%);stroke-opacity:1;stroke-miterlimit:4;" d="M 218.500358 167.499854 L 221.999886 183.49991 L 221.999886 199.499967 L 223.999764 214.999797 L 234.000187 218.999552 L 228.499748 212.499691 " transform="matrix(3.779528,0,0,3.779528,0,0)"/>
<path style="fill:none;stroke-width:2;stroke-linecap:butt;stroke-linejoin:miter;stroke:rgb(0%,0%,0%);stroke-opacity:1;stroke-miterlimit:4;" d="M 207.500513 222.500114 L 203.499723 206.500057 " transform="matrix(3.779528,0,0,3.779528,0,0)"/>
<path style="fill:none;stroke-width:2;stroke-linecap:butt;stroke-linejoin:miter;stroke:rgb(0%,0%,0%);stroke-opacity:1;stroke-miterlimit:4;" d="M 195.500212 101.499748 L 179.500155 101.499748 L 164.000326 103.999854 L 148.500496 103.999854 L 132.500439 101.499748 " transform="matrix(3.779528,0,0,3.779528,0,0)"/>
<path style="fill:none;stroke-width:2;stroke-linecap:butt;stroke-linejoin:miter;stroke:rgb(0%,0%,0%);stroke-opacity:1;stroke-miterlimit:4;" d="M 130.999756 98.500448 L 146.499585 98.500448 L 162.499642 98.00022 L 178.999927 97.499992 L 195.500212 97.499992 " transform="matrix(3.779528,0,0,3.779528,0,0)"/>
<path style="fill:none;stroke-width:2;stroke-linecap:butt;stroke-linejoin:miter;stroke:rgb(0%,0%,0%);stroke-opacity:1;stroke-miterlimit:4;" d="M 94.000464 71.499512 L 98.00022 87.499569 L 98.00022 116.000155 L 85.999919 131.499984 L 64.500456 141.500407 L 57.999561 155.499552 L 78.000407 171.499609 L 78.000407 187.499666 L 64.500456 203.499723 L 87.000374 199.499967 L 102.500203 200.000195 L 119.000488 200.000195 L 132.999634 205.999829 L 144.999935 216.000252 L 160.999992 225.999642 L 160.999992 238.500171 L 178.499699 250.500472 L 194.499756 252.50035 L 210.499813 252.999544 L 214.499569 255.000456 L 218.500358 243.000155 L 234.500415 245.000033 L 244.499805 245.50026 L 239.000399 264.999845 " transform="matrix(3.779528,0,0,3.779528,0,0)"/>
<path style="fill:none;stroke-width:2;stroke-linecap:butt;stroke-linejoin:miter;stroke:rgb(0%,0%,0%);stroke-opacity:1;stroke-miterlimit:4;" d="M 127 349.500114 L 134.999512 365.500171 L 144.999935 377.500472 " transform="matrix(3.779528,0,0,3.779528,0,0)"/>
<path style="fill:none;stroke-width:2;stroke-linecap:butt;stroke-linejoin:miter;stroke:rgb(0%,0%,0%);stroke-opacity:1;stroke-miterlimit:4;" d="M 69.999862 304.000049 L 75.999495 287.499764 L 82.000163 271.499707 L 85.499691 255.49965 L 84.500269 239.499593 L 88.500024 223.499536 " transform="matrix(3.779528,0,0,3.779528,0,0)"/>
<path style="fill:none;stroke-width:2;stroke-linecap:butt;stroke-linejoin:miter;stroke:rgb(0%,0%,0%);stroke-opacity:1;stroke-miterlimit:4;" d="M 57.000138 178.999927 L 35.000448 180.999805 L 21.500496 200.500423 L 7.500317 209.000163 L 3.999756 223.000342 L 14.000179 207.000285 L 4.499984 205.499601 L 4.499984 189.999772 L 2.500106 187.999894 " transform="matrix(3.779528,0,0,3.779528,0,0)"/>
<path style="fill:none;stroke-width:2;stroke-linecap:butt;stroke-linejoin:miter;stroke:rgb(0%,0%,0%);stroke-opacity:1;stroke-miterlimit:4;" d="M 9.500195 121.999788 L 25.500252 141.500407 L 41.500309 141.500407 L 57.500366 131.499984 " transform="matrix(3.779528,0,0,3.779528,0,0)"/>
<path style="fill:none;stroke-width:2;stroke-linecap:butt;stroke-linejoin:miter;stroke:rgb(0%,0%,0%);stroke-opacity:1;stroke-miterlimit:4;" d="M 62.00035 113.500049 L 46.499487 109.000065 L 30.500464 105.000309 L 14.999601 106.499959 L 3.000334 110.499715 " transform="matrix(3.779528,0,0,3.779528,0,0)"/>
<path style="fill:none;stroke-width:2;stroke-linecap:butt;stroke-linejoin:miter;stroke:rgb(0%,0%,0%);stroke-opacity:1;stroke-miterlimit:4;" d="M 7.999512 117.499805 L 23.999569 119.499683 " transform="matrix(3.779528,0,0,3.779528,0,0)"/>
<path style="fill:none;stroke-width:2;stroke-linecap:butt;stroke-linejoin:miter;stroke:rgb(0%,0%,0%);stroke-opacity:1;stroke-miterlimit:4;" d="M 31.499886 118.000033 L 14.999601 111.500171 " transform="matrix(3.779528,0,0,3.779528,0,0)"/>
<path style="fill:none;stroke-width:2;stroke-linecap:butt;stroke-linejoin:miter;stroke:rgb(0%,0%,0%);stroke-opacity:1;stroke-miterlimit:4;" d="M 13.499951 111.500171 L 10.000423 101.499748 L 14.000179 83.499813 L 16.000057 67.999984 L 16.000057 66.500334 " transform="matrix(3.779528,0,0,3.779528,0,0)"/>
<path style="fill:none;stroke-width:2;stroke-linecap:butt;stroke-linejoin:miter;stroke:rgb(0%,0%,0%);stroke-opacity:1;stroke-miterlimit:4;" d="M 45.500065 62.999772 L 43.500187 78.999829 " transform="matrix(3.779528,0,0,3.779528,0,0)"/>
<path style="fill:none;stroke-width:2;stroke-linecap:butt;stroke-linejoin:miter;stroke:rgb(0%,0%,0%);stroke-opacity:1;stroke-miterlimit:4;" d="M 48.999593 66.000106 L 59.500244 69.999862 L 60.999894 85.499691 L 81.499935 101.499748 L 83.499813 117.499805 L 62.00035 135.49974 L 41.999504 157.500464 L 58.499788 162.000448 L 74.499845 168.000081 L 85.000496 172.500065 L 82.999585 188.500122 L 78.999829 198.499512 L 96.999764 194.499756 L 112.999821 193.999528 L 132.999634 196.000439 L 137.000423 205.499601 L 141.000179 209.999585 L 155.000358 209.999585 L 171.000415 212.499691 " transform="matrix(3.779528,0,0,3.779528,0,0)"/>
<path style="fill:none;stroke-width:2;stroke-linecap:butt;stroke-linejoin:miter;stroke:rgb(0%,0%,0%);stroke-opacity:1;stroke-miterlimit:4;" d="M 69.999862 107.000187 L 54.500033 107.000187 L 37.999748 103.000431 L 21.999691 100.99952 " transform="matrix(3.779528,0,0,3.779528,0,0)"/>
<path style="fill:none;stroke-width:2;stroke-linecap:butt;stroke-linejoin:miter;stroke:rgb(0%,0%,0%);stroke-opacity:1;stroke-miterlimit:4;" d="M 10.499618 116.999577 L 16.500285 132.500439 L 30.500464 148.500496 L 70.50009 172.500065 L 62.499544 180.499577 L 56.49991 196.499634 L 48.999593 212.499691 L 30.999658 214.499569 L 39.500431 227.99952 L 28.99978 243.999577 L 21.000269 230.499626 L 35.000448 218.00013 L 42.999959 200.000195 L 46.999715 207.500513 L 40.499854 205.499601 L 55.999683 195.500212 " transform="matrix(3.779528,0,0,3.779528,0,0)"/>
<path style="fill:none;stroke-width:2;stroke-linecap:butt;stroke-linejoin:miter;stroke:rgb(0%,0%,0%);stroke-opacity:1;stroke-miterlimit:4;" d="M 51.499699 113.500049 L 63.5 129.500106 L 41.500309 149.499919 L 57.500366 139.000301 L 67.499756 125.000122 L 67.499756 114.500505 L 84.000041 114.500505 " transform="matrix(3.779528,0,0,3.779528,0,0)"/>
<path style="fill:none;stroke-width:2;stroke-linecap:butt;stroke-linejoin:miter;stroke:rgb(0%,0%,0%);stroke-opacity:1;stroke-miterlimit:4;" d="M 67.999984 81.499935 L 66.000106 65.499878 " transform="matrix(3.779528,0,0,3.779528,0,0)"/>
<path style="fill:none;stroke-width:2;stroke-linecap:butt;stroke-linejoin:miter;stroke:rgb(0%,0%,0%);stroke-opacity:1;stroke-miterlimit:4;" d="M 78.999829 61.500122 L 78.999829 77.500179 L 63.5 85.499691 L 75.500301 91.500358 " transform="matrix(3.779528,0,0,3.779528,0,0)"/>
</g>
</svg>
