<?xml version="1.0" encoding="UTF-8"?>
<svg xmlns="http://www.w3.org/2000/svg" xmlns:xlink="http://www.w3.org/1999/xlink" width="1935.11811" height="1935.11811" viewBox="0 0 1935.11811 1935.11811" version="1.1">
<g id="surface1">
<path style="fill:none;stroke-width:2;stroke-linecap:butt;stroke-linejoin:miter;stroke:rgb(0%,0%,0%);stroke-opacity:1;stroke-miterlimit:4;" d="M 299.500065 134.500317 L 295.500309 150.500374 L 293.500431 166.500431 L 291.49952 182.500488 L 289.499642 198.99974 L 289.499642 232.999731 L 291.49952 248.999788 L 298.999837 264.999845 L 318.99965 280.499674 L 334.500513 296.499731 L 332.999829 312.499788 L 336.999585 326.499967 L 334.999707 342.500024 L 339.499691 345.999552 L 349.500114 353.49987 L 341.499569 368.999699 L 331.500179 379.000122 " transform="matrix(3.779528,0,0,3.779528,0,0)"/>
<path style="fill:none;stroke-width:2;stroke-linecap:butt;stroke-linejoin:miter;stroke:rgb(0%,0%,0%);stroke-opacity:1;stroke-miterlimit:4;" d="M 325.99974 382.000456 L 310.49991 382.000456 L 294.499854 389.999967 " transform="matrix(3.779528,0,0,3.779528,0,0)"/>
<path style="fill:none;stroke-width:2;stroke-linecap:butt;stroke-linejoin:miter;stroke:rgb(0%,0%,0%);stroke-opacity:1;stroke-miterlimit:4;" d="M 298.000415 391.000423 L 314.000472 393.000301 L 329.500301 390.500195 L 345.500358 386.999634 L 361.000187 381.500228 L 376.500016 391.499618 L 392.500073 400.000391 L 409.000358 404.500374 L 425.000415 412.499886 L 440.500244 420.999626 " transform="matrix(3.779528,0,0,3.779528,0,0)"/>
<path style="fill:none;stroke-width:2;stroke-linecap:butt;stroke-linejoin:miter;stroke:rgb(0%,0%,0%);stroke-opacity:1;stroke-miterlimit:4;" d="M 422.000081 419.499976 L 413.999536 415.50022 L 410.500008 422.999504 L 409.000358 407.00048 L 393.000301 411.500464 L 388.999512 402.000269 L 373.000488 398.000513 " transform="matrix(3.779528,0,0,3.779528,0,0)"/>
<path style="fill:none;stroke-width:2;stroke-linecap:butt;stroke-linejoin:miter;stroke:rgb(0%,0%,0%);stroke-opacity:1;stroke-miterlimit:4;" d="M 364.499715 402.999691 L 380.499772 414.999992 L 396.499829 415.50022 " transform="matrix(3.779528,0,0,3.779528,0,0)"/>
<path style="fill:none;stroke-width:2;stroke-linecap:butt;stroke-linejoin:miter;stroke:rgb(0%,0%,0%);stroke-opacity:1;stroke-miterlimit:4;" d="M 413.000114 422.000081 L 397.000057 429.500399 L 381 431.500277 " transform="matrix(3.779528,0,0,3.779528,0,0)"/>
<path style="fill:none;stroke-width:2;stroke-linecap:butt;stroke-linejoin:miter;stroke:rgb(0%,0%,0%);stroke-opacity:1;stroke-miterlimit:4;" d="M 381.500228 446.499878 L 398.000513 442.500122 L 413.999536 438.500366 L 430.499821 434.499577 L 446.499878 432.499699 L 463.000163 434.000382 L 479.500448 441.999894 L 495.500505 454.000195 L 511.999756 466.000496 " transform="matrix(3.779528,0,0,3.779528,0,0)"/>
<path style="fill:none;stroke-width:2;stroke-linecap:butt;stroke-linejoin:miter;stroke:rgb(0%,0%,0%);stroke-opacity:1;stroke-miterlimit:4;" d="M 506.000122 504.000244 L 490.000065 511.999756 " transform="matrix(3.779528,0,0,3.779528,0,0)"/>
<path style="fill:none;stroke-width:2;stroke-linecap:butt;stroke-linejoin:miter;stroke:rgb(0%,0%,0%);stroke-opacity:1;stroke-miterlimit:4;" d="M 486.499504 483.500203 L 470.50048 483.500203 L 468.000374 490.999487 L 452.000317 495.000277 L 436.00026 484.999854 " transform="matrix(3.779528,0,0,3.779528,0,0)"/>
<path style="fill:none;stroke-width:2;stroke-linecap:butt;stroke-linejoin:miter;stroke:rgb(0%,0%,0%);stroke-opacity:1;stroke-miterlimit:4;" d="M 436.999683 484.499626 L 461.000285 500.499683 " transform="matrix(3.779528,0,0,3.779528,0,0)"/>
<path style="fill:none;stroke-width:2;stroke-linecap:butt;stroke-linejoin:miter;stroke:rgb(0%,0%,0%);stroke-opacity:1;stroke-miterlimit:4;" d="M 462.499935 501.500138 L 457.999951 505.499894 L 441.999894 495.500505 L 425.499609 487.499959 L 400.999813 493.000399 L 405.499797 485.500081 L 405.499797 469.500024 L 391.999845 479.500448 L 382.49965 463.500391 L 359.000309 486.000309 L 368.500505 476.500114 L 366.000399 461.000285 L 357.499626 441.000472 L 341.499569 433.500155 L 325.499512 421.499854 " transform="matrix(3.779528,0,0,3.779528,0,0)"/>
<path style="fill:none;stroke-width:2;stroke-linecap:butt;stroke-linejoin:miter;stroke:rgb(0%,0%,0%);stroke-opacity:1;stroke-miterlimit:4;" d="M 323.499634 416.499642 L 339.499691 406.000024 L 355.499748 395.999601 L 377.500472 396.499829 L 401.500041 396.499829 L 433.500155 412.499886 " transform="matrix(3.779528,0,0,3.779528,0,0)"/>
<path style="fill:none;stroke-width:2;stroke-linecap:butt;stroke-linejoin:miter;stroke:rgb(0%,0%,0%);stroke-opacity:1;stroke-miterlimit:4;" d="M 432.999927 398.499707 L 463.000163 413.999536 L 484.999854 429.999593 " transform="matrix(3.779528,0,0,3.779528,0,0)"/>
<path style="fill:none;stroke-width:2;stroke-linecap:butt;stroke-linejoin:miter;stroke:rgb(0%,0%,0%);stroke-opacity:1;stroke-miterlimit:4;" d="M 479.00022 417.500098 L 463.500391 407.999902 L 447.500334 398.000513 L 431.500277 393.999723 " transform="matrix(3.779528,0,0,3.779528,0,0)"/>
<path style="fill:none;stroke-width:2;stroke-linecap:butt;stroke-linejoin:miter;stroke:rgb(0%,0%,0%);stroke-opacity:1;stroke-miterlimit:4;" d="M 443.00035 395.500407 L 468.999797 411.500464 L 486.499504 427.999715 " transform="matrix(3.779528,0,0,3.779528,0,0)"/>
<path style="fill:none;stroke-width:2;stroke-linecap:butt;stroke-linejoin:miter;stroke:rgb(0%,0%,0%);stroke-opacity:1;stroke-miterlimit:4;" d="M 482.499748 430.499821 L 466.999919 418.000326 L 450.999862 406.000024 L 435.500033 398.000513 L 419.499976 398.000513 L 404.000146 389.999967 L 388.500317 382.000456 L 372.000033 368.500505 " transform="matrix(3.779528,0,0,3.779528,0,0)"/>
<path style="fill:none;stroke-width:2;stroke-linecap:butt;stroke-linejoin:miter;stroke:rgb(0%,0%,0%);stroke-opacity:1;stroke-miterlimit:4;" d="M 380.499772 366.000399 L 361.999609 357.999854 " transform="matrix(3.779528,0,0,3.779528,0,0)"/>
<path style="fill:none;stroke-width:2;stroke-linecap:butt;stroke-linejoin:miter;stroke:rgb(0%,0%,0%);stroke-opacity:1;stroke-miterlimit:4;" d="M 364.999943 349.500114 L 381 363.500293 L 397.000057 373.499683 " transform="matrix(3.779528,0,0,3.779528,0,0)"/>
<path style="fill:none;stroke-width:2;stroke-linecap:butt;stroke-linejoin:miter;stroke:rgb(0%,0%,0%);stroke-opacity:1;stroke-miterlimit:4;" d="M 379.000122 376.500016 L 407.00048 392.500073 L 436.999683 408.50013 L 454.999618 423.999959 L 482.999976 440.000016 L 504.999666 455.499845 L 506.999544 479.999642 L 490.999487 495.999699 L 477.000342 504.500472 L 493.499593 486.499504 L 505.499894 482.499748 " transform="matrix(3.779528,0,0,3.779528,0,0)"/>
<path style="fill:none;stroke-width:2;stroke-linecap:butt;stroke-linejoin:miter;stroke:rgb(0%,0%,0%);stroke-opacity:1;stroke-miterlimit:4;" d="M 484.999854 467.500146 L 468.999797 459.000407 L 452.99974 452.99974 L 437.49991 443.00035 " transform="matrix(3.779528,0,0,3.779528,0,0)"/>
<path style="fill:none;stroke-width:2;stroke-linecap:butt;stroke-linejoin:miter;stroke:rgb(0%,0%,0%);stroke-opacity:1;stroke-miterlimit:4;" d="M 439.499788 440.000016 L 471.499902 456.500301 " transform="matrix(3.779528,0,0,3.779528,0,0)"/>
<path style="fill:none;stroke-width:2;stroke-linecap:butt;stroke-linejoin:miter;stroke:rgb(0%,0%,0%);stroke-opacity:1;stroke-miterlimit:4;" d="M 481.99952 461.500513 L 466.000496 453.499967 L 449.500212 445.500456 L 432.999927 438.999561 " transform="matrix(3.779528,0,0,3.779528,0,0)"/>
<path style="fill:none;stroke-width:2;stroke-linecap:butt;stroke-linejoin:miter;stroke:rgb(0%,0%,0%);stroke-opacity:1;stroke-miterlimit:4;" d="M 465.500269 436.00026 L 487.499959 452.000317 L 509.49965 468.499569 " transform="matrix(3.779528,0,0,3.779528,0,0)"/>
<path style="fill:none;stroke-width:2;stroke-linecap:butt;stroke-linejoin:miter;stroke:rgb(0%,0%,0%);stroke-opacity:1;stroke-miterlimit:4;" d="M 508.500228 400.000391 L 491.999943 389.999967 L 506.000122 368.500505 L 500.000488 374.500138 L 484.000431 382.49965 L 499.50026 366.499593 L 503.500016 364.499715 L 488.000187 377.999666 L 471.499902 373.99991 L 473.49978 344.499902 L 487.499959 328.499845 L 497.000155 311.999561 L 509.000456 295.999504 L 495.000277 316.00035 L 479.500448 338.000041 L 463.500391 352.00022 L 447.999528 341.999797 L 432.000505 321.999984 " transform="matrix(3.779528,0,0,3.779528,0,0)"/>
<path style="fill:none;stroke-width:2;stroke-linecap:butt;stroke-linejoin:miter;stroke:rgb(0%,0%,0%);stroke-opacity:1;stroke-miterlimit:4;" d="M 427.499487 326.499967 L 443.499544 346.49978 L 459.499601 364.999943 L 475.499658 386.999634 L 491.499715 398.999935 L 507.499772 407.00048 " transform="matrix(3.779528,0,0,3.779528,0,0)"/>
<path style="fill:none;stroke-width:2;stroke-linecap:butt;stroke-linejoin:miter;stroke:rgb(0%,0%,0%);stroke-opacity:1;stroke-miterlimit:4;" d="M 492.500171 392.500073 L 474.000008 378.499894 L 463.500391 362.499837 L 479.500448 346.49978 L 491.499715 330.499723 L 501.500138 316.499544 L 509.49965 312.499788 L 503.500016 312.499788 L 487.499959 336.500391 L 471.499902 354.500326 L 451.50009 348.499658 L 435.500033 332.499601 L 429.500399 316.499544 L 425.499609 300.499487 L 415.50022 284.500464 L 389.49974 268.500407 L 372.000033 250.500472 L 378.499894 234.500415 L 375.000366 232.499504 L 382.999878 214.499569 L 381 198.499512 L 379.000122 182.00026 L 375.000366 150.000146 L 364.499715 139.999723 " transform="matrix(3.779528,0,0,3.779528,0,0)"/>
<path style="fill:none;stroke-width:2;stroke-linecap:butt;stroke-linejoin:miter;stroke:rgb(0%,0%,0%);stroke-opacity:1;stroke-miterlimit:4;" d="M 348.999886 156.500008 L 332.999829 158.499886 L 317.5 166.500431 " transform="matrix(3.779528,0,0,3.779528,0,0)"/>
<path style="fill:none;stroke-width:2;stroke-linecap:butt;stroke-linejoin:miter;stroke:rgb(0%,0%,0%);stroke-opacity:1;stroke-miterlimit:4;" d="M 321.999984 157.000236 L 314.000472 173.499487 L 314.000472 189.499544 " transform="matrix(3.779528,0,0,3.779528,0,0)"/>
<path style="fill:none;stroke-width:2;stroke-linecap:butt;stroke-linejoin:miter;stroke:rgb(0%,0%,0%);stroke-opacity:1;stroke-miterlimit:4;" d="M 326.499967 204.500179 L 338.000041 180.000382 L 329.999495 196.000439 L 325.99974 212.000496 L 329.999495 229.500203 L 336.000163 245.50026 L 349.500114 261.00009 L 353.49987 279.000024 L 354.000098 295.000081 L 343.999674 302.999593 L 343.999674 313.000016 L 359.999731 321.499756 L 375.999788 337.499813 L 400.000391 353.49987 " transform="matrix(3.779528,0,0,3.779528,0,0)"/>
<path style="fill:none;stroke-width:2;stroke-linecap:butt;stroke-linejoin:miter;stroke:rgb(0%,0%,0%);stroke-opacity:1;stroke-miterlimit:4;" d="M 398.000513 330.499723 L 382.000456 320.500334 L 366.499593 308.500033 " transform="matrix(3.779528,0,0,3.779528,0,0)"/>
<path style="fill:none;stroke-width:2;stroke-linecap:butt;stroke-linejoin:miter;stroke:rgb(0%,0%,0%);stroke-opacity:1;stroke-miterlimit:4;" d="M 359.999731 317.5 L 375.999788 321.499756 L 391.999845 334.000285 " transform="matrix(3.779528,0,0,3.779528,0,0)"/>
<path style="fill:none;stroke-width:2;stroke-linecap:butt;stroke-linejoin:miter;stroke:rgb(0%,0%,0%);stroke-opacity:1;stroke-miterlimit:4;" d="M 389.49974 352.999642 L 365.500171 336.999585 " transform="matrix(3.779528,0,0,3.779528,0,0)"/>
<path style="fill:none;stroke-width:2;stroke-linecap:butt;stroke-linejoin:miter;stroke:rgb(0%,0%,0%);stroke-opacity:1;stroke-miterlimit:4;" d="M 361.500415 335.499935 L 377.999666 343.50048 L 393.999723 354.000098 L 409.99978 358.500081 " transform="matrix(3.779528,0,0,3.779528,0,0)"/>
<path style="fill:none;stroke-width:2;stroke-linecap:butt;stroke-linejoin:miter;stroke:rgb(0%,0%,0%);stroke-opacity:1;stroke-miterlimit:4;" d="M 433.500155 366.000399 L 416.99987 355.999976 L 401.500041 351.499992 L 384.999756 343.50048 L 368.500505 331.500179 L 352.00022 327.500423 " transform="matrix(3.779528,0,0,3.779528,0,0)"/>
<path style="fill:none;stroke-width:2;stroke-linecap:butt;stroke-linejoin:miter;stroke:rgb(0%,0%,0%);stroke-opacity:1;stroke-miterlimit:4;" d="M 344.499902 337.499813 L 354.500326 353.49987 L 353.49987 363.500293 L 345.999552 375.499561 " transform="matrix(3.779528,0,0,3.779528,0,0)"/>
<path style="fill:none;stroke-width:2;stroke-linecap:butt;stroke-linejoin:miter;stroke:rgb(0%,0%,0%);stroke-opacity:1;stroke-miterlimit:4;" d="M 316.00035 378.499894 L 282.000358 398.499707 L 241.999699 413.999536 L 239.999821 429.999593 L 248.000366 429.500399 L 246.499683 441.000472 L 256.500106 423.499731 L 272.500163 432.000505 L 296.499731 438.500366 L 313.000016 442.500122 L 329.000073 447.000106 L 345.00013 454.999618 L 361.000187 447.000106 L 376.500016 450.499634 L 391.999845 459.999829 L 407.999902 463.999585 " transform="matrix(3.779528,0,0,3.779528,0,0)"/>
<path style="fill:none;stroke-width:2;stroke-linecap:butt;stroke-linejoin:miter;stroke:rgb(0%,0%,0%);stroke-opacity:1;stroke-miterlimit:4;" d="M 415.50022 477.000342 L 417.500098 493.000399 L 417.500098 509.999878 " transform="matrix(3.779528,0,0,3.779528,0,0)"/>
<path style="fill:none;stroke-width:2;stroke-linecap:butt;stroke-linejoin:miter;stroke:rgb(0%,0%,0%);stroke-opacity:1;stroke-miterlimit:4;" d="M 411.999658 510.500106 L 388.00009 504.500472 L 393.499495 496.499927 L 409.000358 480.49987 L 396.499829 470.999674 L 380.499772 461.000285 " transform="matrix(3.779528,0,0,3.779528,0,0)"/>
<path style="fill:none;stroke-width:2;stroke-linecap:butt;stroke-linejoin:miter;stroke:rgb(0%,0%,0%);stroke-opacity:1;stroke-miterlimit:4;" d="M 361.999609 456.999495 L 350.000342 472.999552 L 357.999854 461.500513 " transform="matrix(3.779528,0,0,3.779528,0,0)"/>
<path style="fill:none;stroke-width:2;stroke-linecap:butt;stroke-linejoin:miter;stroke:rgb(0%,0%,0%);stroke-opacity:1;stroke-miterlimit:4;" d="M 343.999674 493.499593 L 359.999731 497.500382 L 382.000456 503.500016 L 406.000024 511.499528 " transform="matrix(3.779528,0,0,3.779528,0,0)"/>
<path style="fill:none;stroke-width:2;stroke-linecap:butt;stroke-linejoin:miter;stroke:rgb(0%,0%,0%);stroke-opacity:1;stroke-miterlimit:4;" d="M 398.999935 506.50035 L 387.499862 504.500472 L 379.50035 498.499805 L 363.999487 490.000065 L 372.50026 479.999642 L 377.000244 463.999585 L 384.999756 456.000073 L 377.000244 443.999772 L 354.99952 428.499943 L 332.999829 428.499943 L 327.000195 412.499886 L 356.500203 395.999601 L 354.500326 389.999967 L 338.000041 393.999723 L 321.999984 397.500285 L 289.499642 397.500285 L 273.000391 401.500041 L 256.500106 407.499674 L 240.500049 411.500464 " transform="matrix(3.779528,0,0,3.779528,0,0)"/>
<path style="fill:none;stroke-width:2;stroke-linecap:butt;stroke-linejoin:miter;stroke:rgb(0%,0%,0%);stroke-opacity:1;stroke-miterlimit:4;" d="M 245.000033 422.000081 L 275.000269 427.999715 L 271.000513 443.999772 " transform="matrix(3.779528,0,0,3.779528,0,0)"/>
<path style="fill:none;stroke-width:2;stroke-linecap:butt;stroke-linejoin:miter;stroke:rgb(0%,0%,0%);stroke-opacity:1;stroke-miterlimit:4;" d="M 268.000179 436.999683 L 261.999512 440.500244 L 262.49974 427.000293 L 252.50035 425.499609 L 236.500293 425.000415 " transform="matrix(3.779528,0,0,3.779528,0,0)"/>
<path style="fill:none;stroke-width:2;stroke-linecap:butt;stroke-linejoin:miter;stroke:rgb(0%,0%,0%);stroke-opacity:1;stroke-miterlimit:4;" d="M 251.499894 445.500456 L 234.999609 445.500456 L 218.500358 447.999528 L 222.500114 436.500488 L 209.000163 442.500122 " transform="matrix(3.779528,0,0,3.779528,0,0)"/>
<path style="fill:none;stroke-width:2;stroke-linecap:butt;stroke-linejoin:miter;stroke:rgb(0%,0%,0%);stroke-opacity:1;stroke-miterlimit:4;" d="M 203.999951 454.000195 L 209.999585 466.499691 L 216.000252 482.499748 L 218.00013 498.499805 " transform="matrix(3.779528,0,0,3.779528,0,0)"/>
<path style="fill:none;stroke-width:2;stroke-linecap:butt;stroke-linejoin:miter;stroke:rgb(0%,0%,0%);stroke-opacity:1;stroke-miterlimit:4;" d="M 261.500317 511.000334 L 280.999902 499.50026 L 257.000334 502.000366 L 254.500228 504.000244 L 270.000057 495.999699 L 285.499886 494.500049 L 301.499943 492.500171 L 317.5 498.499805 " transform="matrix(3.779528,0,0,3.779528,0,0)"/>
<path style="fill:none;stroke-width:2;stroke-linecap:butt;stroke-linejoin:miter;stroke:rgb(0%,0%,0%);stroke-opacity:1;stroke-miterlimit:4;" d="M 327.999618 511.499528 L 311.999561 501.500138 L 295.999504 499.000033 L 280.499674 499.000033 " transform="matrix(3.779528,0,0,3.779528,0,0)"/>
<path style="fill:none;stroke-width:2;stroke-linecap:butt;stroke-linejoin:miter;stroke:rgb(0%,0%,0%);stroke-opacity:1;stroke-miterlimit:4;" d="M 271.999935 510.500106 L 288.50022 504.999666 L 304.500277 505.499894 " transform="matrix(3.779528,0,0,3.779528,0,0)"/>
<path style="fill:none;stroke-width:2;stroke-linecap:butt;stroke-linejoin:miter;stroke:rgb(0%,0%,0%);stroke-opacity:1;stroke-miterlimit:4;" d="M 301.499943 492.500171 L 323.000439 508.500228 " transform="matrix(3.779528,0,0,3.779528,0,0)"/>
<path style="fill:none;stroke-width:2;stroke-linecap:butt;stroke-linejoin:miter;stroke:rgb(0%,0%,0%);stroke-opacity:1;stroke-miterlimit:4;" d="M 340.500146 460.500057 L 322.500212 448.499756 L 310.49991 452.99974 " transform="matrix(3.779528,0,0,3.779528,0,0)"/>
<path style="fill:none;stroke-width:2;stroke-linecap:butt;stroke-linejoin:miter;stroke:rgb(0%,0%,0%);stroke-opacity:1;stroke-miterlimit:4;" d="M 310.49991 452.499512 L 324.50009 468.499569 L 326.499967 468.000374 L 344.499902 484.000431 L 346.49978 486.000309 L 362.499837 493.999821 " transform="matrix(3.779528,0,0,3.779528,0,0)"/>
<path style="fill:none;stroke-width:2;stroke-linecap:butt;stroke-linejoin:miter;stroke:rgb(0%,0%,0%);stroke-opacity:1;stroke-miterlimit:4;" d="M 356.500203 434.000382 L 339.999919 426.500065 L 325.99974 438.500366 L 320.000106 434.999805 L 304.000049 436.999683 L 287.999992 433.500155 L 272.500163 427.000293 L 256.500106 418.999748 L 240.500049 420.999626 L 224.499992 422.500309 L 208.499935 430.499821 L 190.5 434.999805 L 174.499943 438.500366 L 159.000114 445.000228 L 143.500285 454.999618 L 115.499927 456.999495 L 107.500415 478.499992 L 91.500358 482.499748 " transform="matrix(3.779528,0,0,3.779528,0,0)"/>
<path style="fill:none;stroke-width:2;stroke-linecap:butt;stroke-linejoin:miter;stroke:rgb(0%,0%,0%);stroke-opacity:1;stroke-miterlimit:4;" d="M 91.999552 486.000309 L 107.999609 486.000309 " transform="matrix(3.779528,0,0,3.779528,0,0)"/>
<path style="fill:none;stroke-width:2;stroke-linecap:butt;stroke-linejoin:miter;stroke:rgb(0%,0%,0%);stroke-opacity:1;stroke-miterlimit:4;" d="M 89.999674 485.500081 L 89.999674 473.49978 L 94.000464 457.499723 " transform="matrix(3.779528,0,0,3.779528,0,0)"/>
<path style="fill:none;stroke-width:2;stroke-linecap:butt;stroke-linejoin:miter;stroke:rgb(0%,0%,0%);stroke-opacity:1;stroke-miterlimit:4;" d="M 91.500358 425.999837 L 75.500301 423.999959 L 71.499512 429.999593 " transform="matrix(3.779528,0,0,3.779528,0,0)"/>
<path style="fill:none;stroke-width:2;stroke-linecap:butt;stroke-linejoin:miter;stroke:rgb(0%,0%,0%);stroke-opacity:1;stroke-miterlimit:4;" d="M 78.000407 417.500098 L 93.500236 415.50022 " transform="matrix(3.779528,0,0,3.779528,0,0)"/>
<path style="fill:none;stroke-width:2;stroke-linecap:butt;stroke-linejoin:miter;stroke:rgb(0%,0%,0%);stroke-opacity:1;stroke-miterlimit:4;" d="M 105.499504 413.999536 L 87.499569 409.499552 L 91.00013 406.000024 L 82.999585 406.000024 " transform="matrix(3.779528,0,0,3.779528,0,0)"/>
<path style="fill:none;stroke-width:2;stroke-linecap:butt;stroke-linejoin:miter;stroke:rgb(0%,0%,0%);stroke-opacity:1;stroke-miterlimit:4;" d="M 68.500212 395.500407 L 70.50009 389.49974 L 86.500146 377.999666 L 68.500212 377.999666 " transform="matrix(3.779528,0,0,3.779528,0,0)"/>
<path style="fill:none;stroke-width:2;stroke-linecap:butt;stroke-linejoin:miter;stroke:rgb(0%,0%,0%);stroke-opacity:1;stroke-miterlimit:4;" d="M 93.000008 376.500016 L 89.000252 392.500073 L 68.500212 408.50013 L 70.50009 428.499943 L 76.499723 436.500488 L 70.50009 462.499935 L 74.499845 466.000496 L 84.000041 488.000187 L 66.000106 497.999577 L 51.999927 508 L 74.499845 500.000488 L 88.500024 491.999943 L 104.500081 489.499837 L 119.99991 488.999609 L 135.999967 477.000342 " transform="matrix(3.779528,0,0,3.779528,0,0)"/>
<path style="fill:none;stroke-width:2;stroke-linecap:butt;stroke-linejoin:miter;stroke:rgb(0%,0%,0%);stroke-opacity:1;stroke-miterlimit:4;" d="M 150.000146 488.500415 L 150.000146 504.500472 " transform="matrix(3.779528,0,0,3.779528,0,0)"/>
<path style="fill:none;stroke-width:2;stroke-linecap:butt;stroke-linejoin:miter;stroke:rgb(0%,0%,0%);stroke-opacity:1;stroke-miterlimit:4;" d="M 153.999902 506.50035 L 153.999902 490.000065 " transform="matrix(3.779528,0,0,3.779528,0,0)"/>
<path style="fill:none;stroke-width:2;stroke-linecap:butt;stroke-linejoin:miter;stroke:rgb(0%,0%,0%);stroke-opacity:1;stroke-miterlimit:4;" d="M 184.000138 502.000366 L 184.500366 486.000309 L 186.500244 470.000252 L 198.499512 454.000195 L 206.500057 438.000138 L 220.500236 423.999959 L 236.500293 404.000146 L 255.999878 388.00009 L 254 371.499805 L 243.999577 367.500049 " transform="matrix(3.779528,0,0,3.779528,0,0)"/>
<path style="fill:none;stroke-width:2;stroke-linecap:butt;stroke-linejoin:miter;stroke:rgb(0%,0%,0%);stroke-opacity:1;stroke-miterlimit:4;" d="M 241.500505 363.500293 L 247.500138 379.50035 L 239.999821 387.499862 " transform="matrix(3.779528,0,0,3.779528,0,0)"/>
<path style="fill:none;stroke-width:2;stroke-linecap:butt;stroke-linejoin:miter;stroke:rgb(0%,0%,0%);stroke-opacity:1;stroke-miterlimit:4;" d="M 257.999756 379.000122 L 241.999699 363.000065 " transform="matrix(3.779528,0,0,3.779528,0,0)"/>
<path style="fill:none;stroke-width:2;stroke-linecap:butt;stroke-linejoin:miter;stroke:rgb(0%,0%,0%);stroke-opacity:1;stroke-miterlimit:4;" d="M 229.500203 375.499561 L 237.499715 377.500472 L 227.99952 372.000033 L 212.499691 372.000033 L 212.499691 371.499805 " transform="matrix(3.779528,0,0,3.779528,0,0)"/>
<path style="fill:none;stroke-width:2;stroke-linecap:butt;stroke-linejoin:miter;stroke:rgb(0%,0%,0%);stroke-opacity:1;stroke-miterlimit:4;" d="M 202.000073 381 L 218.00013 388.500317 " transform="matrix(3.779528,0,0,3.779528,0,0)"/>
<path style="fill:none;stroke-width:2;stroke-linecap:butt;stroke-linejoin:miter;stroke:rgb(0%,0%,0%);stroke-opacity:1;stroke-miterlimit:4;" d="M 242.499927 379.000122 L 227.000098 369.499927 L 211.000041 363.500293 L 194.499756 369.499927 L 178.499699 357.499626 " transform="matrix(3.779528,0,0,3.779528,0,0)"/>
<path style="fill:none;stroke-width:2;stroke-linecap:butt;stroke-linejoin:miter;stroke:rgb(0%,0%,0%);stroke-opacity:1;stroke-miterlimit:4;" d="M 175.500399 363.000065 L 191.500456 376.500016 L 213.500146 394.499951 L 225.500448 396.499829 " transform="matrix(3.779528,0,0,3.779528,0,0)"/>
<path style="fill:none;stroke-width:2;stroke-linecap:butt;stroke-linejoin:miter;stroke:rgb(0%,0%,0%);stroke-opacity:1;stroke-miterlimit:4;" d="M 182.500488 423.499731 L 166.500431 421.499854 " transform="matrix(3.779528,0,0,3.779528,0,0)"/>
<path style="fill:none;stroke-width:2;stroke-linecap:butt;stroke-linejoin:miter;stroke:rgb(0%,0%,0%);stroke-opacity:1;stroke-miterlimit:4;" d="M 153.999902 438.500366 L 134.00009 454.000195 L 133.499862 470.50048 " transform="matrix(3.779528,0,0,3.779528,0,0)"/>
<path style="fill:none;stroke-width:2;stroke-linecap:butt;stroke-linejoin:miter;stroke:rgb(0%,0%,0%);stroke-opacity:1;stroke-miterlimit:4;" d="M 137.000423 475.499658 L 139.000301 459.999829 L 151.499797 443.999772 " transform="matrix(3.779528,0,0,3.779528,0,0)"/>
<path style="fill:none;stroke-width:2;stroke-linecap:butt;stroke-linejoin:miter;stroke:rgb(0%,0%,0%);stroke-opacity:1;stroke-miterlimit:4;" d="M 136.500195 436.500488 L 120.500138 447.999528 L 100.99952 459.499601 L 82.999585 457.499723 L 78.999829 471.499902 L 60.999894 471.499902 L 44.999837 477.999764 " transform="matrix(3.779528,0,0,3.779528,0,0)"/>
<path style="fill:none;stroke-width:2;stroke-linecap:butt;stroke-linejoin:miter;stroke:rgb(0%,0%,0%);stroke-opacity:1;stroke-miterlimit:4;" d="M 44.999837 479.500448 L 61.500122 486.000309 L 46.000293 479.500448 L 46.000293 495.000277 " transform="matrix(3.779528,0,0,3.779528,0,0)"/>
<path style="fill:none;stroke-width:2;stroke-linecap:butt;stroke-linejoin:miter;stroke:rgb(0%,0%,0%);stroke-opacity:1;stroke-miterlimit:4;" d="M 53.499577 504.000244 L 63.5 488.000187 " transform="matrix(3.779528,0,0,3.779528,0,0)"/>
<path style="fill:none;stroke-width:2;stroke-linecap:butt;stroke-linejoin:miter;stroke:rgb(0%,0%,0%);stroke-opacity:1;stroke-miterlimit:4;" d="M 64.000228 466.999919 L 48.000171 468.999797 " transform="matrix(3.779528,0,0,3.779528,0,0)"/>
<path style="fill:none;stroke-width:2;stroke-linecap:butt;stroke-linejoin:miter;stroke:rgb(0%,0%,0%);stroke-opacity:1;stroke-miterlimit:4;" d="M 41.500309 466.000496 L 37.49952 466.000496 L 28.000358 481.99952 L 21.999691 481.99952 L 37.999748 458.500179 L 53.999805 464.499813 L 69.999862 460.500057 L 86.500146 452.000317 L 102.500203 450.000439 L 118.50026 443.499544 L 134.00009 432.000505 " transform="matrix(3.779528,0,0,3.779528,0,0)"/>
<path style="fill:none;stroke-width:2;stroke-linecap:butt;stroke-linejoin:miter;stroke:rgb(0%,0%,0%);stroke-opacity:1;stroke-miterlimit:4;" d="M 139.499495 425.499609 L 119.499683 441.499666 L 87.499569 459.499601 L 73.500423 475.999886 L 76.999951 492.500171 L 82.999585 500.499683 " transform="matrix(3.779528,0,0,3.779528,0,0)"/>
<path style="fill:none;stroke-width:2;stroke-linecap:butt;stroke-linejoin:miter;stroke:rgb(0%,0%,0%);stroke-opacity:1;stroke-miterlimit:4;" d="M 63.5 502.499561 L 39.000203 500.000488 L 37.000326 483.500203 L 37.000326 467.500146 " transform="matrix(3.779528,0,0,3.779528,0,0)"/>
<path style="fill:none;stroke-width:2;stroke-linecap:butt;stroke-linejoin:miter;stroke:rgb(0%,0%,0%);stroke-opacity:1;stroke-miterlimit:4;" d="M 41.999504 443.999772 L 17.499707 459.999829 L 8.999967 457.499723 L 25.000024 449.500212 L 41.000081 437.49991 " transform="matrix(3.779528,0,0,3.779528,0,0)"/>
<path style="fill:none;stroke-width:2;stroke-linecap:butt;stroke-linejoin:miter;stroke:rgb(0%,0%,0%);stroke-opacity:1;stroke-miterlimit:4;" d="M 48.000171 423.499731 L 32.000114 439.499788 L 12.000301 454.999618 L 1.999878 465.000041 L 17.999935 459.000407 L 33.999992 450.999862 L 53.999805 438.999561 L 69.999862 443.00035 L 85.499691 443.499544 L 101.499748 441.499666 L 116.999577 435.500033 L 133.499862 420.000203 L 155.99978 409.499552 L 171.999837 404.999569 " transform="matrix(3.779528,0,0,3.779528,0,0)"/>
<path style="fill:none;stroke-width:2;stroke-linecap:butt;stroke-linejoin:miter;stroke:rgb(0%,0%,0%);stroke-opacity:1;stroke-miterlimit:4;" d="M 149.499919 401.500041 L 134.00009 395.500407 " transform="matrix(3.779528,0,0,3.779528,0,0)"/>
<path style="fill:none;stroke-width:2;stroke-linecap:butt;stroke-linejoin:miter;stroke:rgb(0%,0%,0%);stroke-opacity:1;stroke-miterlimit:4;" d="M 134.999512 395.500407 L 132.500439 411.999658 L 125.000122 413.999536 L 116.999577 429.999593 L 107.000187 420.000203 L 110.999943 404.000146 L 123.000244 402.500496 L 124.499894 412.499886 L 140.499951 410.500008 L 156.500008 407.00048 L 162.499642 400.999813 " transform="matrix(3.779528,0,0,3.779528,0,0)"/>
<path style="fill:none;stroke-width:2;stroke-linecap:butt;stroke-linejoin:miter;stroke:rgb(0%,0%,0%);stroke-opacity:1;stroke-miterlimit:4;" d="M 140.499951 388.500317 L 124.499894 390.500195 L 109.000065 398.499707 L 93.000008 398.499707 L 76.999951 408.50013 L 60.999894 416.000448 L 78.999829 405.499797 L 109.000065 397.500285 L 132.999634 391.999845 " transform="matrix(3.779528,0,0,3.779528,0,0)"/>
<path style="fill:none;stroke-width:2;stroke-linecap:butt;stroke-linejoin:miter;stroke:rgb(0%,0%,0%);stroke-opacity:1;stroke-miterlimit:4;" d="M 121.999788 398.000513 L 103.999854 413.999536 " transform="matrix(3.779528,0,0,3.779528,0,0)"/>
<path style="fill:none;stroke-width:2;stroke-linecap:butt;stroke-linejoin:miter;stroke:rgb(0%,0%,0%);stroke-opacity:1;stroke-miterlimit:4;" d="M 143.500285 427.000293 L 125.50035 443.00035 L 115.499927 465.000041 " transform="matrix(3.779528,0,0,3.779528,0,0)"/>
<path style="fill:none;stroke-width:2;stroke-linecap:butt;stroke-linejoin:miter;stroke:rgb(0%,0%,0%);stroke-opacity:1;stroke-miterlimit:4;" d="M 180.499577 467.500146 L 196.499634 447.500334 L 230.499626 449.500212 L 246.499683 450.999862 L 262.49974 447.000106 L 278.499797 434.999805 " transform="matrix(3.779528,0,0,3.779528,0,0)"/>
<path style="fill:none;stroke-width:2;stroke-linecap:butt;stroke-linejoin:miter;stroke:rgb(0%,0%,0%);stroke-opacity:1;stroke-miterlimit:4;" d="M 322.500212 436.999683 L 323.999862 453.499967 L 329.999495 469.500024 L 339.999919 490.000065 L 340.500146 506.000122 " transform="matrix(3.779528,0,0,3.779528,0,0)"/>
<path style="fill:none;stroke-width:2;stroke-linecap:butt;stroke-linejoin:miter;stroke:rgb(0%,0%,0%);stroke-opacity:1;stroke-miterlimit:4;" d="M 345.00013 506.50035 L 348.999886 490.500293 L 333.500057 461.999707 L 323.499634 443.999772 " transform="matrix(3.779528,0,0,3.779528,0,0)"/>
<path style="fill:none;stroke-width:2;stroke-linecap:butt;stroke-linejoin:miter;stroke:rgb(0%,0%,0%);stroke-opacity:1;stroke-miterlimit:4;" d="M 334.000285 420.000203 L 349.500114 423.499731 L 364.999943 427.999715 L 380.499772 443.999772 L 396.499829 438.500366 L 411.999658 434.499577 L 427.999715 429.000171 L 434.999805 447.000106 L 468.999797 463.000163 L 488.999609 488.999609 L 475.000464 505.499894 L 482.999976 502.999788 L 490.500293 502.999788 L 506.50035 499.000033 " transform="matrix(3.779528,0,0,3.779528,0,0)"/>
<path style="fill:none;stroke-width:2;stroke-linecap:butt;stroke-linejoin:miter;stroke:rgb(0%,0%,0%);stroke-opacity:1;stroke-miterlimit:4;" d="M 499.000033 452.99974 L 482.999976 438.999561 L 466.999919 430.499821 L 450.999862 420.500431 L 434.999805 406.000024 L 425.000415 404.000146 L 408.50013 397.500285 L 392.500073 389.49974 L 376.500016 381 L 356.500203 375.000366 L 355.999976 363.000065 L 338.500269 347.000008 L 322.500212 353.49987 L 290.500098 353.49987 L 273.000391 341.499569 L 252.50035 341.999797 L 262.49974 339.999919 L 270.000057 323.999862 L 254 321.999984 " transform="matrix(3.779528,0,0,3.779528,0,0)"/>
<path style="fill:none;stroke-width:2;stroke-linecap:butt;stroke-linejoin:miter;stroke:rgb(0%,0%,0%);stroke-opacity:1;stroke-miterlimit:4;" d="M 248.999788 313.500244 L 305.000505 313.500244 L 322.500212 314.000472 " transform="matrix(3.779528,0,0,3.779528,0,0)"/>
<path style="fill:none;stroke-width:2;stroke-linecap:butt;stroke-linejoin:miter;stroke:rgb(0%,0%,0%);stroke-opacity:1;stroke-miterlimit:4;" d="M 330.499723 277.999569 L 314.499666 268.000179 L 298.499609 259.999634 " transform="matrix(3.779528,0,0,3.779528,0,0)"/>
<path style="fill:none;stroke-width:2;stroke-linecap:butt;stroke-linejoin:miter;stroke:rgb(0%,0%,0%);stroke-opacity:1;stroke-miterlimit:4;" d="M 303.499821 254.500228 L 327.500423 270.500285 L 345.00013 292.499976 L 361.000187 306.500155 L 376.500016 295.999504 L 392.500073 302.000171 L 408.50013 311.500366 " transform="matrix(3.779528,0,0,3.779528,0,0)"/>
<path style="fill:none;stroke-width:2;stroke-linecap:butt;stroke-linejoin:miter;stroke:rgb(0%,0%,0%);stroke-opacity:1;stroke-miterlimit:4;" d="M 422.000081 298.999837 L 406.500252 281.50013 L 391.000423 273.499585 L 375.000366 261.500317 " transform="matrix(3.779528,0,0,3.779528,0,0)"/>
<path style="fill:none;stroke-width:2;stroke-linecap:butt;stroke-linejoin:miter;stroke:rgb(0%,0%,0%);stroke-opacity:1;stroke-miterlimit:4;" d="M 370.500382 260.499862 L 386.500439 264.499618 L 402.999691 274.500041 L 418.999748 284.500464 L 436.999683 282.499552 L 452.99974 282.499552 L 468.999797 286.500342 " transform="matrix(3.779528,0,0,3.779528,0,0)"/>
<path style="fill:none;stroke-width:2;stroke-linecap:butt;stroke-linejoin:miter;stroke:rgb(0%,0%,0%);stroke-opacity:1;stroke-miterlimit:4;" d="M 461.500513 285.499886 L 429.000171 285.499886 " transform="matrix(3.779528,0,0,3.779528,0,0)"/>
<path style="fill:none;stroke-width:2;stroke-linecap:butt;stroke-linejoin:miter;stroke:rgb(0%,0%,0%);stroke-opacity:1;stroke-miterlimit:4;" d="M 434.000382 264.999845 L 450.000439 265.500073 L 466.000496 263.500195 L 481.99952 259.500439 L 498.499805 257.999756 " transform="matrix(3.779528,0,0,3.779528,0,0)"/>
<path style="fill:none;stroke-width:2;stroke-linecap:butt;stroke-linejoin:miter;stroke:rgb(0%,0%,0%);stroke-opacity:1;stroke-miterlimit:4;" d="M 500.99991 252.000122 L 484.999854 252.50035 L 468.999797 258.499984 L 480.49987 244.499805 " transform="matrix(3.779528,0,0,3.779528,0,0)"/>
<path style="fill:none;stroke-width:2;stroke-linecap:butt;stroke-linejoin:miter;stroke:rgb(0%,0%,0%);stroke-opacity:1;stroke-miterlimit:4;" d="M 479.500448 238.500171 L 457.499723 252.50035 L 469.500024 250.500472 L 485.500081 244.499805 L 501.500138 244.499805 " transform="matrix(3.779528,0,0,3.779528,0,0)"/>
<path style="fill:none;stroke-width:2;stroke-linecap:butt;stroke-linejoin:miter;stroke:rgb(0%,0%,0%);stroke-opacity:1;stroke-miterlimit:4;" d="M 428.499943 252.999544 L 428.499943 248.999788 L 418.000326 250.999666 L 402.000269 250.999666 " transform="matrix(3.779528,0,0,3.779528,0,0)"/>
<path style="fill:none;stroke-width:2;stroke-linecap:butt;stroke-linejoin:miter;stroke:rgb(0%,0%,0%);stroke-opacity:1;stroke-miterlimit:4;" d="M 389.999967 257.499528 L 406.000024 259.000212 L 422.000081 261.00009 L 437.49991 259.000212 L 439.499788 262.999967 L 455.499845 258.499984 " transform="matrix(3.779528,0,0,3.779528,0,0)"/>
<path style="fill:none;stroke-width:2;stroke-linecap:butt;stroke-linejoin:miter;stroke:rgb(0%,0%,0%);stroke-opacity:1;stroke-miterlimit:4;" d="M 395.000179 284.000236 L 379.000122 274.500041 L 363.000065 266.499495 " transform="matrix(3.779528,0,0,3.779528,0,0)"/>
<path style="fill:none;stroke-width:2;stroke-linecap:butt;stroke-linejoin:miter;stroke:rgb(0%,0%,0%);stroke-opacity:1;stroke-miterlimit:4;" d="M 360.499959 275.500496 L 366.000399 291.49952 L 354.000098 307.499577 L 343.999674 325.000317 L 352.00022 336.999585 L 362.499837 344.499902 L 382.49965 360.499959 " transform="matrix(3.779528,0,0,3.779528,0,0)"/>
<path style="fill:none;stroke-width:2;stroke-linecap:butt;stroke-linejoin:miter;stroke:rgb(0%,0%,0%);stroke-opacity:1;stroke-miterlimit:4;" d="M 357.999854 345.500358 L 372.50026 361.500415 L 368.500505 371.499805 L 370.500382 388.00009 L 364.499715 404.000146 L 344.499902 407.999902 L 348.499658 416.000448 L 352.500448 418.000326 L 357.999854 399.500163 L 359.499504 419.499976 L 363.500293 407.00048 L 377.500472 422.999504 L 379.50035 427.999715 L 395.500407 426.500065 L 415.50022 412.499886 L 431.500277 420.999626 " transform="matrix(3.779528,0,0,3.779528,0,0)"/>
<path style="fill:none;stroke-width:2;stroke-linecap:butt;stroke-linejoin:miter;stroke:rgb(0%,0%,0%);stroke-opacity:1;stroke-miterlimit:4;" d="M 396.499829 411.500464 L 380.499772 405.499797 " transform="matrix(3.779528,0,0,3.779528,0,0)"/>
<path style="fill:none;stroke-width:2;stroke-linecap:butt;stroke-linejoin:miter;stroke:rgb(0%,0%,0%);stroke-opacity:1;stroke-miterlimit:4;" d="M 352.500448 417.500098 L 336.500391 411.500464 " transform="matrix(3.779528,0,0,3.779528,0,0)"/>
<path style="fill:none;stroke-width:2;stroke-linecap:butt;stroke-linejoin:miter;stroke:rgb(0%,0%,0%);stroke-opacity:1;stroke-miterlimit:4;" d="M 330.999951 416.000448 L 352.999642 432.000505 L 348.999886 451.50009 L 344.499902 467.500146 L 352.500448 484.000431 L 373.99991 491.999943 L 390.500195 491.999943 L 406.500252 486.000309 L 432.499699 484.000431 L 448.499756 480.49987 L 464.499813 480.49987 L 480.49987 477.999764 L 496.499927 477.499536 " transform="matrix(3.779528,0,0,3.779528,0,0)"/>
<path style="fill:none;stroke-width:2;stroke-linecap:butt;stroke-linejoin:miter;stroke:rgb(0%,0%,0%);stroke-opacity:1;stroke-miterlimit:4;" d="M 456.500301 506.000122 L 430.499821 490.000065 " transform="matrix(3.779528,0,0,3.779528,0,0)"/>
<path style="fill:none;stroke-width:2;stroke-linecap:butt;stroke-linejoin:miter;stroke:rgb(0%,0%,0%);stroke-opacity:1;stroke-miterlimit:4;" d="M 425.000415 495.000277 L 422.999504 511.000334 " transform="matrix(3.779528,0,0,3.779528,0,0)"/>
<path style="fill:none;stroke-width:2;stroke-linecap:butt;stroke-linejoin:miter;stroke:rgb(0%,0%,0%);stroke-opacity:1;stroke-miterlimit:4;" d="M 416.000448 355.499748 L 391.499618 333.500057 L 370.000155 317.5 L 364.499715 302.000171 L 356.500203 302.000171 L 340.500146 318.500456 L 324.50009 310.49991 L 307.999805 308.500033 L 291.999748 310.49991 L 275.500496 308.500033 L 259.500439 307.999805 L 243.500382 309.999683 " transform="matrix(3.779528,0,0,3.779528,0,0)"/>
<path style="fill:none;stroke-width:2;stroke-linecap:butt;stroke-linejoin:miter;stroke:rgb(0%,0%,0%);stroke-opacity:1;stroke-miterlimit:4;" d="M 223.999764 339.499691 L 239.999821 336.000163 L 240.500049 334.000285 L 225.00022 331.500179 L 198.99974 319.499878 L 183.49991 321.499756 L 164.999748 319.499878 L 148.999691 320.000106 L 132.999634 322.500212 L 116.500382 323.000439 L 100.500326 329.000073 L 84.000041 341.499569 L 83.499813 341.000374 L 103.000431 325.000317 L 100.99952 311.000138 L 84.500269 314.499666 L 67.999984 313.000016 " transform="matrix(3.779528,0,0,3.779528,0,0)"/>
<path style="fill:none;stroke-width:2;stroke-linecap:butt;stroke-linejoin:miter;stroke:rgb(0%,0%,0%);stroke-opacity:1;stroke-miterlimit:4;" d="M 44.499609 330.499723 L 60.499666 302.000171 L 62.499544 281.50013 L 88.500024 281.50013 L 94.000464 298.999837 L 112.000399 287.499764 L 113.500049 293.500431 L 129.500106 287.499764 L 145.500163 266.000301 " transform="matrix(3.779528,0,0,3.779528,0,0)"/>
<path style="fill:none;stroke-width:2;stroke-linecap:butt;stroke-linejoin:miter;stroke:rgb(0%,0%,0%);stroke-opacity:1;stroke-miterlimit:4;" d="M 145.500163 284.999658 L 161.50022 284.999658 L 178.000505 282.99978 L 193.999528 283.500008 L 210.499813 284.000236 L 243.000155 284.000236 L 259.000212 282.000358 L 275.500496 282.000358 L 291.49952 284.000236 L 307.499577 284.500464 " transform="matrix(3.779528,0,0,3.779528,0,0)"/>
<path style="fill:none;stroke-width:2;stroke-linecap:butt;stroke-linejoin:miter;stroke:rgb(0%,0%,0%);stroke-opacity:1;stroke-miterlimit:4;" d="M 329.000073 249.500016 L 345.500358 259.500439 " transform="matrix(3.779528,0,0,3.779528,0,0)"/>
<path style="fill:none;stroke-width:2;stroke-linecap:butt;stroke-linejoin:miter;stroke:rgb(0%,0%,0%);stroke-opacity:1;stroke-miterlimit:4;" d="M 354.500326 233.499959 L 350.999764 245.50026 L 334.999707 227.500326 " transform="matrix(3.779528,0,0,3.779528,0,0)"/>
<path style="fill:none;stroke-width:2;stroke-linecap:butt;stroke-linejoin:miter;stroke:rgb(0%,0%,0%);stroke-opacity:1;stroke-miterlimit:4;" d="M 329.500301 230.999854 L 332.000407 257.000334 " transform="matrix(3.779528,0,0,3.779528,0,0)"/>
<path style="fill:none;stroke-width:2;stroke-linecap:butt;stroke-linejoin:miter;stroke:rgb(0%,0%,0%);stroke-opacity:1;stroke-miterlimit:4;" d="M 329.999495 265.500073 L 314.499666 255.000456 L 298.499609 243.000155 " transform="matrix(3.779528,0,0,3.779528,0,0)"/>
<path style="fill:none;stroke-width:2;stroke-linecap:butt;stroke-linejoin:miter;stroke:rgb(0%,0%,0%);stroke-opacity:1;stroke-miterlimit:4;" d="M 300.000293 227.000098 L 315.500122 229.500203 L 331.500179 239.499593 L 357.499626 247.500138 L 373.99991 230.000431 " transform="matrix(3.779528,0,0,3.779528,0,0)"/>
<path style="fill:none;stroke-width:2;stroke-linecap:butt;stroke-linejoin:miter;stroke:rgb(0%,0%,0%);stroke-opacity:1;stroke-miterlimit:4;" d="M 368.000277 209.500391 L 366.000399 193.500334 L 364.499715 177.500277 L 363.000065 162.000448 L 347.500236 152.000024 L 331.500179 153.999902 L 316.00035 155.99978 " transform="matrix(3.779528,0,0,3.779528,0,0)"/>
<path style="fill:none;stroke-width:2;stroke-linecap:butt;stroke-linejoin:miter;stroke:rgb(0%,0%,0%);stroke-opacity:1;stroke-miterlimit:4;" d="M 314.999894 153.999902 L 309.500488 169.999959 L 307.000382 185.499788 " transform="matrix(3.779528,0,0,3.779528,0,0)"/>
<path style="fill:none;stroke-width:2;stroke-linecap:butt;stroke-linejoin:miter;stroke:rgb(0%,0%,0%);stroke-opacity:1;stroke-miterlimit:4;" d="M 332.000407 199.499967 L 339.999919 182.999683 L 332.000407 199.499967 L 329.999495 215.500024 L 340.500146 237.999943 L 342.500024 257.999756 L 370.500382 255.999878 L 382.49965 249.500016 L 398.499707 243.500382 L 414.499764 241.500505 L 413.999536 252.000122 L 429.999593 239.999821 L 445.99965 246.000488 L 461.999707 250.000244 L 477.999764 239.499593 L 493.999821 241.500505 L 509.999878 237.499715 " transform="matrix(3.779528,0,0,3.779528,0,0)"/>
<path style="fill:none;stroke-width:2;stroke-linecap:butt;stroke-linejoin:miter;stroke:rgb(0%,0%,0%);stroke-opacity:1;stroke-miterlimit:4;" d="M 503.500016 324.50009 L 489.499837 344.499902 L 497.500382 328.499845 " transform="matrix(3.779528,0,0,3.779528,0,0)"/>
<path style="fill:none;stroke-width:2;stroke-linecap:butt;stroke-linejoin:miter;stroke:rgb(0%,0%,0%);stroke-opacity:1;stroke-miterlimit:4;" d="M 409.000358 309.00026 L 391.499618 293.000203 L 377.999666 277.000146 L 377.999666 261.00009 L 358.500081 257.000334 L 362.499837 241.000277 L 358.500081 216.50048 L 356.500203 200.500423 L 360.499959 184.999561 L 358.500081 168.999504 L 350.000342 160.999992 L 361.999609 146.999813 L 357.499626 140.499951 L 341.499569 144.499707 L 325.000317 144.000513 L 309.00026 150.000146 " transform="matrix(3.779528,0,0,3.779528,0,0)"/>
<path style="fill:none;stroke-width:2;stroke-linecap:butt;stroke-linejoin:miter;stroke:rgb(0%,0%,0%);stroke-opacity:1;stroke-miterlimit:4;" d="M 307.000382 141.500407 L 300.999715 143.500285 L 299.500065 159.500342 L 297.500187 175.500399 L 295.999504 191.000228 L 293.999626 207.500513 L 293.999626 223.499536 L 295.999504 239.999821 L 316.00035 255.999878 L 334.000285 258.499984 L 359.999731 274.500041 L 361.999609 286.999536 L 377.500472 284.999658 L 401.500041 300.499487 L 411.500464 292.499976 L 419.499976 295.999504 L 423.999959 311.999561 L 427.499487 327.999618 L 440.000016 343.999674 L 456.000073 359.999731 L 466.000496 375.999788 L 481.99952 392.500073 " transform="matrix(3.779528,0,0,3.779528,0,0)"/>
<path style="fill:none;stroke-width:2;stroke-linecap:butt;stroke-linejoin:miter;stroke:rgb(0%,0%,0%);stroke-opacity:1;stroke-miterlimit:4;" d="M 403.499919 300.999715 L 386.000212 299.500065 L 373.99991 279.000024 L 357.999854 262.999967 L 354.500326 245.50026 L 357.000431 231.500081 L 379.000122 215.500024 L 377.000244 199.499967 L 374.500138 183.49991 L 372.50026 167.499854 L 370.999577 151.499797 L 373.000488 135.49974 L 361.000187 133.499862 L 313.000016 133.499862 L 296.499731 141.500407 " transform="matrix(3.779528,0,0,3.779528,0,0)"/>
<path style="fill:none;stroke-width:2;stroke-linecap:butt;stroke-linejoin:miter;stroke:rgb(0%,0%,0%);stroke-opacity:1;stroke-miterlimit:4;" d="M 298.499609 224.499992 L 345.999552 224.499992 L 361.999609 226.49987 L 378.499894 224.499992 " transform="matrix(3.779528,0,0,3.779528,0,0)"/>
<path style="fill:none;stroke-width:2;stroke-linecap:butt;stroke-linejoin:miter;stroke:rgb(0%,0%,0%);stroke-opacity:1;stroke-miterlimit:4;" d="M 364.999943 212.499691 L 363.000065 196.499634 " transform="matrix(3.779528,0,0,3.779528,0,0)"/>
<path style="fill:none;stroke-width:2;stroke-linecap:butt;stroke-linejoin:miter;stroke:rgb(0%,0%,0%);stroke-opacity:1;stroke-miterlimit:4;" d="M 379.999544 268.000179 L 391.999845 284.000236 L 406.000024 295.999504 " transform="matrix(3.779528,0,0,3.779528,0,0)"/>
<path style="fill:none;stroke-width:2;stroke-linecap:butt;stroke-linejoin:miter;stroke:rgb(0%,0%,0%);stroke-opacity:1;stroke-miterlimit:4;" d="M 378.499894 318.500456 L 402.500496 334.500513 " transform="matrix(3.779528,0,0,3.779528,0,0)"/>
<path style="fill:none;stroke-width:2;stroke-linecap:butt;stroke-linejoin:miter;stroke:rgb(0%,0%,0%);stroke-opacity:1;stroke-miterlimit:4;" d="M 329.500301 282.000358 L 313.500244 273.999813 L 305.999927 280.00048 L 289.499642 277.999569 L 257.000334 277.999569 L 240.500049 277.500374 L 207.999707 277.500374 L 191.500456 279.500252 L 159.500342 279.500252 L 143.500285 285.499886 " transform="matrix(3.779528,0,0,3.779528,0,0)"/>
<path style="fill:none;stroke-width:2;stroke-linecap:butt;stroke-linejoin:miter;stroke:rgb(0%,0%,0%);stroke-opacity:1;stroke-miterlimit:4;" d="M 147.500041 305.499699 L 131.499984 305.499699 " transform="matrix(3.779528,0,0,3.779528,0,0)"/>
<path style="fill:none;stroke-width:2;stroke-linecap:butt;stroke-linejoin:miter;stroke:rgb(0%,0%,0%);stroke-opacity:1;stroke-miterlimit:4;" d="M 132.500439 309.500488 L 148.500496 309.999683 L 164.000326 309.999683 " transform="matrix(3.779528,0,0,3.779528,0,0)"/>
<path style="fill:none;stroke-width:2;stroke-linecap:butt;stroke-linejoin:miter;stroke:rgb(0%,0%,0%);stroke-opacity:1;stroke-miterlimit:4;" d="M 186.500244 314.499666 L 178.499699 324.50009 L 172.500065 344.499902 L 172.500065 354.500326 L 182.500488 370.500382 L 182.500488 384.499528 L 177.000049 402.500496 L 162.499642 384.000334 L 172.500065 400.000391 L 188.500122 387.499862 L 198.499512 382.999878 L 214.000374 401.500041 " transform="matrix(3.779528,0,0,3.779528,0,0)"/>
<path style="fill:none;stroke-width:2;stroke-linecap:butt;stroke-linejoin:miter;stroke:rgb(0%,0%,0%);stroke-opacity:1;stroke-miterlimit:4;" d="M 243.999577 399.500163 L 227.99952 407.499674 L 212.499691 407.999902 L 196.499634 413.999536 L 178.499699 432.499699 L 162.499642 436.00026 L 146.499585 441.999894 L 136.500195 466.000496 L 119.99991 484.000431 L 109.999487 475.999886 L 105.999731 459.499601 L 121.999788 431.500277 L 135.999967 414.999992 L 121.499561 425.499609 L 105.000309 435.500033 L 89.50048 431.500277 L 73.500423 437.49991 L 57.500366 435.500033 L 41.500309 431.500277 L 25.500252 441.999894 " transform="matrix(3.779528,0,0,3.779528,0,0)"/>
<path style="fill:none;stroke-width:2;stroke-linecap:butt;stroke-linejoin:miter;stroke:rgb(0%,0%,0%);stroke-opacity:1;stroke-miterlimit:4;" d="M 35.000448 429.500399 L 26.999902 437.49991 L 44.999837 421.499854 " transform="matrix(3.779528,0,0,3.779528,0,0)"/>
<path style="fill:none;stroke-width:2;stroke-linecap:butt;stroke-linejoin:miter;stroke:rgb(0%,0%,0%);stroke-opacity:1;stroke-miterlimit:4;" d="M 19.000391 418.000326 L 5.000212 433.500155 L 17.000513 420.999626 L 32.999536 416.99987 L 48.999593 414.999992 L 64.500456 409.000358 L 80.999707 397.000057 L 94.999886 377.000244 " transform="matrix(3.779528,0,0,3.779528,0,0)"/>
<path style="fill:none;stroke-width:2;stroke-linecap:butt;stroke-linejoin:miter;stroke:rgb(0%,0%,0%);stroke-opacity:1;stroke-miterlimit:4;" d="M 108.499837 352.500448 L 96.999764 368.500505 L 76.999951 384.999756 L 71.000317 375.499561 L 87.000374 361.500415 L 103.000431 345.500358 L 119.000488 335.499935 L 134.999512 335.499935 L 150.500374 334.999707 L 166.500431 334.999707 L 182.999683 334.500513 " transform="matrix(3.779528,0,0,3.779528,0,0)"/>
<path style="fill:none;stroke-width:2;stroke-linecap:butt;stroke-linejoin:miter;stroke:rgb(0%,0%,0%);stroke-opacity:1;stroke-miterlimit:4;" d="M 191.000228 334.000285 L 189.00035 349.500114 L 185.499788 367.500049 L 198.000317 387.499862 L 208.499935 403.499919 L 190.5 416.000448 L 198.99974 443.999772 L 184.999561 459.999829 L 180.499577 475.999886 L 180.499577 491.999943 L 178.499699 508.500228 " transform="matrix(3.779528,0,0,3.779528,0,0)"/>
<path style="fill:none;stroke-width:2;stroke-linecap:butt;stroke-linejoin:miter;stroke:rgb(0%,0%,0%);stroke-opacity:1;stroke-miterlimit:4;" d="M 214.499569 497.999577 L 210.499813 481.99952 L 206.500057 466.000496 L 202.000073 450.000439 L 186.000016 466.000496 " transform="matrix(3.779528,0,0,3.779528,0,0)"/>
<path style="fill:none;stroke-width:2;stroke-linecap:butt;stroke-linejoin:miter;stroke:rgb(0%,0%,0%);stroke-opacity:1;stroke-miterlimit:4;" d="M 171.499609 374.500138 L 155.499552 379.000122 L 152.000024 391.000423 L 166.000203 374.500138 " transform="matrix(3.779528,0,0,3.779528,0,0)"/>
<path style="fill:none;stroke-width:2;stroke-linecap:butt;stroke-linejoin:miter;stroke:rgb(0%,0%,0%);stroke-opacity:1;stroke-miterlimit:4;" d="M 125.999544 341.999797 L 109.999487 339.499691 " transform="matrix(3.779528,0,0,3.779528,0,0)"/>
<path style="fill:none;stroke-width:2;stroke-linecap:butt;stroke-linejoin:miter;stroke:rgb(0%,0%,0%);stroke-opacity:1;stroke-miterlimit:4;" d="M 110.499715 339.000496 L 92.49978 355.499748 L 85.999919 371.499805 L 64.000228 387.499862 L 66.000106 388.00009 L 82.000163 373.99991 L 91.500358 373.99991 L 107.500415 353.49987 L 123.500472 353.49987 L 139.000301 351.499992 L 171.000415 351.499992 L 187.000472 352.00022 L 203.499723 352.500448 " transform="matrix(3.779528,0,0,3.779528,0,0)"/>
<path style="fill:none;stroke-width:2;stroke-linecap:butt;stroke-linejoin:miter;stroke:rgb(0%,0%,0%);stroke-opacity:1;stroke-miterlimit:4;" d="M 216.000252 339.000496 L 205.999829 323.000439 " transform="matrix(3.779528,0,0,3.779528,0,0)"/>
<path style="fill:none;stroke-width:2;stroke-linecap:butt;stroke-linejoin:miter;stroke:rgb(0%,0%,0%);stroke-opacity:1;stroke-miterlimit:4;" d="M 200.999618 316.499544 L 206.500057 332.499601 L 214.499569 348.000464 L 196.499634 368.000277 L 187.999894 390.500195 L 196.000439 408.50013 L 175.999593 432.000505 L 178.000505 415.50022 L 193.500334 409.000358 L 209.500391 402.500496 " transform="matrix(3.779528,0,0,3.779528,0,0)"/>
<path style="fill:none;stroke-width:2;stroke-linecap:butt;stroke-linejoin:miter;stroke:rgb(0%,0%,0%);stroke-opacity:1;stroke-miterlimit:4;" d="M 263.500195 353.49987 L 267.499951 337.499813 " transform="matrix(3.779528,0,0,3.779528,0,0)"/>
<path style="fill:none;stroke-width:2;stroke-linecap:butt;stroke-linejoin:miter;stroke:rgb(0%,0%,0%);stroke-opacity:1;stroke-miterlimit:4;" d="M 314.499666 372.50026 L 284.999658 388.500317 L 248.999788 404.500374 L 214.999797 420.500431 L 199.499967 422.000081 L 215.500024 419.499976 L 231.500081 409.000358 L 247.500138 404.999569 L 263.500195 398.999935 L 279.500252 390.500195 L 295.999504 380.499772 L 311.999561 372.50026 L 328.499845 374.500138 L 344.499902 373.000488 " transform="matrix(3.779528,0,0,3.779528,0,0)"/>
<path style="fill:none;stroke-width:2;stroke-linecap:butt;stroke-linejoin:miter;stroke:rgb(0%,0%,0%);stroke-opacity:1;stroke-miterlimit:4;" d="M 311.999561 268.000179 L 298.000415 252.000122 L 272.500163 249.500016 L 256.500106 249.500016 L 240.500049 246.99991 L 223.999764 247.500138 L 207.999707 248.000366 L 191.99965 250.000244 L 175.999593 250.500472 L 159.999536 250.500472 " transform="matrix(3.779528,0,0,3.779528,0,0)"/>
<path style="fill:none;stroke-width:2;stroke-linecap:butt;stroke-linejoin:miter;stroke:rgb(0%,0%,0%);stroke-opacity:1;stroke-miterlimit:4;" d="M 146.999813 240.500049 L 144.999935 256.500106 L 137.000423 271.999935 L 121.000366 287.499764 L 130.999756 277.500374 " transform="matrix(3.779528,0,0,3.779528,0,0)"/>
<path style="fill:none;stroke-width:2;stroke-linecap:butt;stroke-linejoin:miter;stroke:rgb(0%,0%,0%);stroke-opacity:1;stroke-miterlimit:4;" d="M 122.500016 272.500163 L 130.000334 272.500163 L 135.999967 256.500106 L 143.500285 244.499805 L 139.499495 227.99952 L 153.499674 221.999886 L 153.499674 205.999829 L 150.999569 189.999772 L 148.999691 173.999715 L 145.500163 157.999658 L 134.00009 141.999601 L 130.000334 140.499951 L 113.500049 139.000301 L 82.000163 139.000301 L 66.000106 144.499707 " transform="matrix(3.779528,0,0,3.779528,0,0)"/>
<path style="fill:none;stroke-width:2;stroke-linecap:butt;stroke-linejoin:miter;stroke:rgb(0%,0%,0%);stroke-opacity:1;stroke-miterlimit:4;" d="M 69.499634 150.500374 L 85.499691 144.499707 L 65.499878 152.500252 L 61.500122 168.500309 L 57.500366 184.000138 L 55.999683 200.000195 L 54.500033 216.000252 L 56.49991 231.500081 L 60.499666 248.000366 L 48.999593 264.000423 L 25.000024 280.00048 L 10.999845 295.999504 L 10.999845 307.999805 L 7.00009 323.999862 L 10.999845 327.999618 L 5.000212 343.999674 L 10.999845 341.999797 L 26.999902 334.000285 L 35.000448 304.000049 L 51.000505 295.999504 L 66.500334 289.99987 L 69.000439 298.000415 L 60.999894 302.000171 L 53.000382 318.000228 L 44.999837 334.500513 L 44.999837 350.499536 L 53.000382 350.499536 L 60.499666 348.499658 " transform="matrix(3.779528,0,0,3.779528,0,0)"/>
<path style="fill:none;stroke-width:2;stroke-linecap:butt;stroke-linejoin:miter;stroke:rgb(0%,0%,0%);stroke-opacity:1;stroke-miterlimit:4;" d="M 48.000171 334.500513 L 64.000228 306.500155 L 80.000285 284.500464 " transform="matrix(3.779528,0,0,3.779528,0,0)"/>
<path style="fill:none;stroke-width:2;stroke-linecap:butt;stroke-linejoin:miter;stroke:rgb(0%,0%,0%);stroke-opacity:1;stroke-miterlimit:4;" d="M 69.999862 257.000334 L 80.000285 234.999609 L 83.499813 218.999552 L 87.499569 202.999495 L 103.499626 194.499756 L 87.499569 198.99974 " transform="matrix(3.779528,0,0,3.779528,0,0)"/>
<path style="fill:none;stroke-width:2;stroke-linecap:butt;stroke-linejoin:miter;stroke:rgb(0%,0%,0%);stroke-opacity:1;stroke-miterlimit:4;" d="M 102.500203 189.00035 L 106.499959 204.500179 L 104.500081 220.500236 L 108.499837 238.500171 L 124.499894 236.500293 " transform="matrix(3.779528,0,0,3.779528,0,0)"/>
<path style="fill:none;stroke-width:2;stroke-linecap:butt;stroke-linejoin:miter;stroke:rgb(0%,0%,0%);stroke-opacity:1;stroke-miterlimit:4;" d="M 132.000212 237.999943 L 129.500106 254 L 123.999666 270.500285 L 105.999731 286.500342 L 92.49978 298.000415 L 106.499959 307.499577 L 96.999764 323.999862 L 73.000195 339.999919 L 73.000195 352.00022 L 51.000505 366.000399 L 32.999536 382.000456 L 41.000081 371.499805 L 57.000138 361.000187 L 73.000195 350.999764 L 89.000252 345.00013 L 106.499959 348.999886 L 123.000244 347.000008 L 139.000301 347.000008 L 153.00048 339.499691 L 153.00048 345.500358 L 168.999504 345.999552 L 189.00035 345.500358 L 205.000407 337.499813 L 205.000407 345.500358 " transform="matrix(3.779528,0,0,3.779528,0,0)"/>
<path style="fill:none;stroke-width:2;stroke-linecap:butt;stroke-linejoin:miter;stroke:rgb(0%,0%,0%);stroke-opacity:1;stroke-miterlimit:4;" d="M 134.00009 207.999707 L 135.49974 191.99965 L 130.000334 175.999593 L 128.000456 159.999536 L 116.000155 157.999658 L 100.000098 155.99978 L 84.000041 152.000024 " transform="matrix(3.779528,0,0,3.779528,0,0)"/>
<path style="fill:none;stroke-width:2;stroke-linecap:butt;stroke-linejoin:miter;stroke:rgb(0%,0%,0%);stroke-opacity:1;stroke-miterlimit:4;" d="M 89.999674 150.000146 L 105.999731 152.000024 L 121.999788 152.000024 " transform="matrix(3.779528,0,0,3.779528,0,0)"/>
<path style="fill:none;stroke-width:2;stroke-linecap:butt;stroke-linejoin:miter;stroke:rgb(0%,0%,0%);stroke-opacity:1;stroke-miterlimit:4;" d="M 93.500236 167.499854 L 97.499992 183.49991 L 99.49987 199.499967 L 99.49987 214.999797 L 103.499626 236.999487 " transform="matrix(3.779528,0,0,3.779528,0,0)"/>
<path style="fill:none;stroke-width:2;stroke-linecap:butt;stroke-linejoin:miter;stroke:rgb(0%,0%,0%);stroke-opacity:1;stroke-miterlimit:4;" d="M 62.00035 266.000301 L 46.000293 278.499797 " transform="matrix(3.779528,0,0,3.779528,0,0)"/>
<path style="fill:none;stroke-width:2;stroke-linecap:butt;stroke-linejoin:miter;stroke:rgb(0%,0%,0%);stroke-opacity:1;stroke-miterlimit:4;" d="M 32.500342 295.000081 L 48.500399 284.500464 L 59.000016 274.500041 L 45.500065 278.499797 L 47.499943 296.499731 L 27.50013 312.499788 L 28.000358 328.499845 L 21.999691 344.499902 " transform="matrix(3.779528,0,0,3.779528,0,0)"/>
<path style="fill:none;stroke-width:2;stroke-linecap:butt;stroke-linejoin:miter;stroke:rgb(0%,0%,0%);stroke-opacity:1;stroke-miterlimit:4;" d="M 18.500163 341.499569 L 24.499797 325.499512 L 24.499797 309.500488 L 28.99978 293.500431 L 42.999959 291.999748 L 69.000439 275.999691 L 73.000195 268.500407 L 56.49991 264.499618 L 40.499854 277.000146 L 23.999569 286.999536 L 7.999512 307.000382 " transform="matrix(3.779528,0,0,3.779528,0,0)"/>
<path style="fill:none;stroke-width:2;stroke-linecap:butt;stroke-linejoin:miter;stroke:rgb(0%,0%,0%);stroke-opacity:1;stroke-miterlimit:4;" d="M 6.499862 300.999715 L 22.499919 282.99978 L 38.499976 271.000513 L 54.500033 261.500317 L 57.000138 264.999845 L 35.000448 280.999902 L 17.000513 296.999959 L 17.000513 323.000439 L 12.999723 339.000496 L 7.500317 354.99952 " transform="matrix(3.779528,0,0,3.779528,0,0)"/>
<path style="fill:none;stroke-width:2;stroke-linecap:butt;stroke-linejoin:miter;stroke:rgb(0%,0%,0%);stroke-opacity:1;stroke-miterlimit:4;" d="M 19.499585 411.999658 L 3.499528 427.999715 L 19.499585 411.999658 L 35.000448 411.999658 L 50.500277 411.500464 " transform="matrix(3.779528,0,0,3.779528,0,0)"/>
<path style="fill:none;stroke-width:2;stroke-linecap:butt;stroke-linejoin:miter;stroke:rgb(0%,0%,0%);stroke-opacity:1;stroke-miterlimit:4;" d="M 6.499862 479.500448 L 26.499674 473.49978 L 14.000179 466.999919 L 17.999935 470.999674 L 33.999992 467.500146 L 17.999935 491.499715 " transform="matrix(3.779528,0,0,3.779528,0,0)"/>
<path style="fill:none;stroke-width:2;stroke-linecap:butt;stroke-linejoin:miter;stroke:rgb(0%,0%,0%);stroke-opacity:1;stroke-miterlimit:4;" d="M 3.000334 238.500171 L 19.000391 238.500171 L 35.000448 236.500293 L 51.499699 236.500293 L 77.500179 226.49987 " transform="matrix(3.779528,0,0,3.779528,0,0)"/>
<path style="fill:none;stroke-width:2;stroke-linecap:butt;stroke-linejoin:miter;stroke:rgb(0%,0%,0%);stroke-opacity:1;stroke-miterlimit:4;" d="M 138.500073 211.000041 L 137.000423 194.999984 " transform="matrix(3.779528,0,0,3.779528,0,0)"/>
<path style="fill:none;stroke-width:2;stroke-linecap:butt;stroke-linejoin:miter;stroke:rgb(0%,0%,0%);stroke-opacity:1;stroke-miterlimit:4;" d="M 142.499829 227.99952 L 127 229.500203 L 110.999943 231.500081 L 94.499658 243.500382 L 88.500024 236.000065 L 85.999919 230.000431 L 75.999495 252.000122 L 82.000163 248.000366 L 84.000041 232.000309 L 81.499935 211.500269 L 83.499813 195.500212 L 89.50048 180.000382 L 89.999674 164.49952 " transform="matrix(3.779528,0,0,3.779528,0,0)"/>
<path style="fill:none;stroke-width:2;stroke-linecap:butt;stroke-linejoin:miter;stroke:rgb(0%,0%,0%);stroke-opacity:1;stroke-miterlimit:4;" d="M 82.000163 159.500342 L 82.000163 175.500399 L 80.000285 191.99965 L 89.999674 180.000382 " transform="matrix(3.779528,0,0,3.779528,0,0)"/>
<path style="fill:none;stroke-width:2;stroke-linecap:butt;stroke-linejoin:miter;stroke:rgb(0%,0%,0%);stroke-opacity:1;stroke-miterlimit:4;" d="M 78.000407 157.500464 L 78.000407 173.499487 L 75.500301 189.499544 L 73.500423 205.499601 " transform="matrix(3.779528,0,0,3.779528,0,0)"/>
<path style="fill:none;stroke-width:2;stroke-linecap:butt;stroke-linejoin:miter;stroke:rgb(0%,0%,0%);stroke-opacity:1;stroke-miterlimit:4;" d="M 75.000073 148.999691 L 91.00013 145.500163 L 107.000187 145.500163 L 123.500472 143.500285 L 139.999723 150.000146 L 142.499829 159.999536 L 144.499707 175.500399 L 146.499585 191.500456 L 148.999691 207.500513 L 151.499797 223.499536 L 155.499552 241.000277 L 150.999569 257.499528 L 143.000057 273.999813 L 120.500138 284.000236 L 135.999967 254 L 159.500342 246.499683 L 175.500399 244.499805 L 271.999935 244.499805 L 293.500431 250.500472 L 309.500488 257.000334 L 325.499512 268.500407 " transform="matrix(3.779528,0,0,3.779528,0,0)"/>
<path style="fill:none;stroke-width:2;stroke-linecap:butt;stroke-linejoin:miter;stroke:rgb(0%,0%,0%);stroke-opacity:1;stroke-miterlimit:4;" d="M 398.000513 365.500171 L 382.49965 357.499626 L 366.999821 345.999552 L 351.499992 352.00022 L 347.500236 336.000163 L 339.999919 336.000163 L 323.499634 348.000464 L 307.499577 350.000342 L 291.000326 348.000464 L 272.500163 353.49987 L 277.999569 345.500358 L 271.999935 329.500301 L 259.500439 325.499512 L 251.499894 337.499813 L 245.50026 353.49987 L 229.500203 353.49987 L 213.500146 330.999951 L 196.999862 313.000016 L 180.999805 314.999894 L 161.50022 324.50009 L 145.500163 325.000317 L 114.000277 325.000317 L 98.500448 321.499756 L 82.500391 334.000285 L 68.500212 350.000342 L 51.999927 357.999854 L 35.99987 370.000155 L 26.00048 384.000334 L 38.499976 368.000277 L 50.500277 352.500448 L 50.500277 338.500269 L 56.49991 322.500212 L 68.500212 312.499788 L 82.999585 296.499731 L 87.000374 280.499674 L 80.500513 264.499618 L 73.999618 250.500472 L 69.999862 244.499805 L 66.000106 234.500415 L 60.000472 214.499569 L 62.00035 198.000317 L 63.5 181.500033 L 65.499878 164.999748 L 69.499634 148.999691 L 83.499813 143.000057 " transform="matrix(3.779528,0,0,3.779528,0,0)"/>
</g>
</svg>
