<?xml version="1.0" encoding="UTF-8"?>
<svg xmlns="http://www.w3.org/2000/svg" xmlns:xlink="http://www.w3.org/1999/xlink" width="1935.11811" height="1935.11811" viewBox="0 0 1935.11811 1935.11811" version="1.1">
<g id="surface1">
<path style="fill:none;stroke-width:2;stroke-linecap:butt;stroke-linejoin:miter;stroke:rgb(0%,0%,0%);stroke-opacity:1;stroke-miterlimit:4;" d="M 23.500374 2.500106 L 27.50013 18.500163 " transform="matrix(3.779528,0,0,3.779528,0,0)"/>
<path style="fill:none;stroke-width:2;stroke-linecap:butt;stroke-linejoin:miter;stroke:rgb(0%,0%,0%);stroke-opacity:1;stroke-miterlimit:4;" d="M 25.500252 19.499585 L 19.499585 3.499528 L 12.999723 9.500195 L 30.999658 1.49965 " transform="matrix(3.779528,0,0,3.779528,0,0)"/>
<path style="fill:none;stroke-width:2;stroke-linecap:butt;stroke-linejoin:miter;stroke:rgb(0%,0%,0%);stroke-opacity:1;stroke-miterlimit:4;" d="M 12.999723 115.499927 L 28.99978 117.499805 L 44.499609 121.999788 L 76.499723 121.999788 " transform="matrix(3.779528,0,0,3.779528,0,0)"/>
<path style="fill:none;stroke-width:2;stroke-linecap:butt;stroke-linejoin:miter;stroke:rgb(0%,0%,0%);stroke-opacity:1;stroke-miterlimit:4;" d="M 78.999829 125.000122 L 62.999772 125.000122 L 46.999715 127.500228 L 30.999658 125.999544 " transform="matrix(3.779528,0,0,3.779528,0,0)"/>
<path style="fill:none;stroke-width:2;stroke-linecap:butt;stroke-linejoin:miter;stroke:rgb(0%,0%,0%);stroke-opacity:1;stroke-miterlimit:4;" d="M 25.500252 137.999845 L 57.500366 137.999845 L 73.000195 134.00009 L 88.500024 133.499862 L 103.999854 134.00009 L 119.499683 135.999967 L 123.500472 144.499707 L 132.999634 160.999992 L 160.499764 164.999748 L 176.499821 157.000236 L 194.499756 162.499642 L 198.99974 178.499699 L 203.499723 204.500179 L 195.500212 220.500236 L 189.499544 218.500358 " transform="matrix(3.779528,0,0,3.779528,0,0)"/>
<path style="fill:none;stroke-width:2;stroke-linecap:butt;stroke-linejoin:miter;stroke:rgb(0%,0%,0%);stroke-opacity:1;stroke-miterlimit:4;" d="M 171.999837 250.500472 L 187.999894 205.999829 L 199.499967 188.500122 L 215.500024 192.499878 L 216.000252 184.500366 L 222.500114 170.500187 L 222.500114 180.499577 L 238.500171 186.000016 L 266.499495 186.000016 L 282.499552 191.500456 L 314.499666 203.499723 L 336.500391 187.999894 L 352.500448 173.999715 L 368.500505 171.999837 L 384.499528 162.000448 " transform="matrix(3.779528,0,0,3.779528,0,0)"/>
<path style="fill:none;stroke-width:2;stroke-linecap:butt;stroke-linejoin:miter;stroke:rgb(0%,0%,0%);stroke-opacity:1;stroke-miterlimit:4;" d="M 389.49974 152.500252 L 373.499683 168.500309 L 357.499626 182.500488 L 373.499683 182.500488 L 389.49974 180.000382 L 409.99978 186.000016 L 425.499609 187.999894 L 505.499894 187.999894 " transform="matrix(3.779528,0,0,3.779528,0,0)"/>
<path style="fill:none;stroke-width:2;stroke-linecap:butt;stroke-linejoin:miter;stroke:rgb(0%,0%,0%);stroke-opacity:1;stroke-miterlimit:4;" d="M 499.000033 210.499813 L 467.500146 210.499813 L 452.000317 211.000041 L 388.00009 211.000041 " transform="matrix(3.779528,0,0,3.779528,0,0)"/>
<path style="fill:none;stroke-width:2;stroke-linecap:butt;stroke-linejoin:miter;stroke:rgb(0%,0%,0%);stroke-opacity:1;stroke-miterlimit:4;" d="M 386.000212 216.50048 L 402.000269 216.50048 L 418.000326 214.499569 L 434.000382 216.000252 L 449.500212 215.500024 L 465.500269 213.500146 L 481.500326 214.999797 L 497.500382 214.999797 " transform="matrix(3.779528,0,0,3.779528,0,0)"/>
<path style="fill:none;stroke-width:2;stroke-linecap:butt;stroke-linejoin:miter;stroke:rgb(0%,0%,0%);stroke-opacity:1;stroke-miterlimit:4;" d="M 498.499805 141.500407 L 481.99952 141.999601 L 466.000496 142.499829 L 418.000326 142.499829 L 402.000269 141.999601 L 386.000212 146.000391 L 369.499927 150.000146 L 353.49987 155.499552 L 337.499813 151.499797 L 325.99974 139.499495 L 311.999561 146.999813 L 320.500334 131.499984 L 322.500212 115.499927 L 314.499666 112.000399 L 308.500033 128.49965 " transform="matrix(3.779528,0,0,3.779528,0,0)"/>
<path style="fill:none;stroke-width:2;stroke-linecap:butt;stroke-linejoin:miter;stroke:rgb(0%,0%,0%);stroke-opacity:1;stroke-miterlimit:4;" d="M 313.500244 94.000464 L 298.000415 87.999797 L 291.999748 74.499845 L 275.999691 109.999487 " transform="matrix(3.779528,0,0,3.779528,0,0)"/>
<path style="fill:none;stroke-width:2;stroke-linecap:butt;stroke-linejoin:miter;stroke:rgb(0%,0%,0%);stroke-opacity:1;stroke-miterlimit:4;" d="M 264.999845 155.99978 L 268.999601 171.499609 L 287.499764 197.50009 L 298.000415 199.499967 L 304.500277 215.500024 L 314.499666 232.000309 " transform="matrix(3.779528,0,0,3.779528,0,0)"/>
<path style="fill:none;stroke-width:2;stroke-linecap:butt;stroke-linejoin:miter;stroke:rgb(0%,0%,0%);stroke-opacity:1;stroke-miterlimit:4;" d="M 305.999927 231.500081 L 289.99987 209.500391 " transform="matrix(3.779528,0,0,3.779528,0,0)"/>
<path style="fill:none;stroke-width:2;stroke-linecap:butt;stroke-linejoin:miter;stroke:rgb(0%,0%,0%);stroke-opacity:1;stroke-miterlimit:4;" d="M 284.999658 222.500114 L 286.999536 238.500171 L 291.000326 254.500228 L 297.500187 270.500285 L 305.499699 286.500342 L 313.500244 290.500098 L 318.99965 306.500155 L 323.000439 322.500212 L 325.000317 338.000041 L 326.499967 353.49987 L 326.499967 369.499927 L 330.499723 401.500041 L 332.499601 418.000326 " transform="matrix(3.779528,0,0,3.779528,0,0)"/>
<path style="fill:none;stroke-width:2;stroke-linecap:butt;stroke-linejoin:miter;stroke:rgb(0%,0%,0%);stroke-opacity:1;stroke-miterlimit:4;" d="M 305.000505 459.000407 L 295.000081 472.999552 L 279.000024 477.000342 " transform="matrix(3.779528,0,0,3.779528,0,0)"/>
<path style="fill:none;stroke-width:2;stroke-linecap:butt;stroke-linejoin:miter;stroke:rgb(0%,0%,0%);stroke-opacity:1;stroke-miterlimit:4;" d="M 263.500195 470.000252 L 269.499829 461.999707 L 271.499707 486.000309 L 277.999569 491.499715 L 276.499919 507.499772 L 268.500407 503.500016 L 270.500285 499.50026 " transform="matrix(3.779528,0,0,3.779528,0,0)"/>
<path style="fill:none;stroke-width:2;stroke-linecap:butt;stroke-linejoin:miter;stroke:rgb(0%,0%,0%);stroke-opacity:1;stroke-miterlimit:4;" d="M 293.000203 394.499951 L 277.500374 390.500195 " transform="matrix(3.779528,0,0,3.779528,0,0)"/>
<path style="fill:none;stroke-width:2;stroke-linecap:butt;stroke-linejoin:miter;stroke:rgb(0%,0%,0%);stroke-opacity:1;stroke-miterlimit:4;" d="M 246.000488 367.500049 L 230.000431 373.499683 " transform="matrix(3.779528,0,0,3.779528,0,0)"/>
<path style="fill:none;stroke-width:2;stroke-linecap:butt;stroke-linejoin:miter;stroke:rgb(0%,0%,0%);stroke-opacity:1;stroke-miterlimit:4;" d="M 234.000187 350.999764 L 236.000065 336.999585 " transform="matrix(3.779528,0,0,3.779528,0,0)"/>
<path style="fill:none;stroke-width:2;stroke-linecap:butt;stroke-linejoin:miter;stroke:rgb(0%,0%,0%);stroke-opacity:1;stroke-miterlimit:4;" d="M 236.000065 277.999569 L 225.999642 271.999935 L 230.000431 259.500439 L 234.000187 265.500073 L 227.99952 273.999813 L 236.500293 259.999634 L 238.500171 243.999577 L 242.499927 227.99952 L 246.499683 212.000496 L 242.499927 190.5 L 226.49987 190.5 " transform="matrix(3.779528,0,0,3.779528,0,0)"/>
<path style="fill:none;stroke-width:2;stroke-linecap:butt;stroke-linejoin:miter;stroke:rgb(0%,0%,0%);stroke-opacity:1;stroke-miterlimit:4;" d="M 234.500415 198.000317 L 218.00013 196.000439 L 202.000073 197.50009 L 191.99965 211.500269 L 176.499821 255.000456 " transform="matrix(3.779528,0,0,3.779528,0,0)"/>
<path style="fill:none;stroke-width:2;stroke-linecap:butt;stroke-linejoin:miter;stroke:rgb(0%,0%,0%);stroke-opacity:1;stroke-miterlimit:4;" d="M 189.499544 284.000236 L 189.499544 278.499797 L 197.50009 280.999902 L 199.499967 271.499707 L 214.999797 282.000358 " transform="matrix(3.779528,0,0,3.779528,0,0)"/>
<path style="fill:none;stroke-width:2;stroke-linecap:butt;stroke-linejoin:miter;stroke:rgb(0%,0%,0%);stroke-opacity:1;stroke-miterlimit:4;" d="M 273.499585 265.500073 L 271.499707 281.50013 L 270.000057 299.500065 L 270.000057 315.500122 L 273.999813 329.500301 L 284.000236 329.500301 L 271.999935 339.499691 L 271.999935 371.499805 L 261.500317 388.00009 L 269.499829 389.999967 L 267.499951 418.000326 " transform="matrix(3.779528,0,0,3.779528,0,0)"/>
<path style="fill:none;stroke-width:2;stroke-linecap:butt;stroke-linejoin:miter;stroke:rgb(0%,0%,0%);stroke-opacity:1;stroke-miterlimit:4;" d="M 341.499569 420.000203 L 345.500358 404.500374 L 343.50048 388.500317 L 335.499935 370.999577 L 339.999919 354.99952 L 339.999919 338.500269 " transform="matrix(3.779528,0,0,3.779528,0,0)"/>
<path style="fill:none;stroke-width:2;stroke-linecap:butt;stroke-linejoin:miter;stroke:rgb(0%,0%,0%);stroke-opacity:1;stroke-miterlimit:4;" d="M 329.000073 298.499609 L 330.999951 282.499552 L 328.499845 266.499495 " transform="matrix(3.779528,0,0,3.779528,0,0)"/>
<path style="fill:none;stroke-width:2;stroke-linecap:butt;stroke-linejoin:miter;stroke:rgb(0%,0%,0%);stroke-opacity:1;stroke-miterlimit:4;" d="M 302.000171 264.999845 L 286.000114 236.999487 " transform="matrix(3.779528,0,0,3.779528,0,0)"/>
<path style="fill:none;stroke-width:2;stroke-linecap:butt;stroke-linejoin:miter;stroke:rgb(0%,0%,0%);stroke-opacity:1;stroke-miterlimit:4;" d="M 284.500464 230.999854 L 300.499487 236.999487 " transform="matrix(3.779528,0,0,3.779528,0,0)"/>
<path style="fill:none;stroke-width:2;stroke-linecap:butt;stroke-linejoin:miter;stroke:rgb(0%,0%,0%);stroke-opacity:1;stroke-miterlimit:4;" d="M 307.999805 236.500293 L 295.999504 220.500236 L 283.500008 218.999552 L 287.499764 216.50048 L 281.50013 200.500423 L 265.500073 175.999593 L 261.500317 159.000114 L 259.500439 157.000236 " transform="matrix(3.779528,0,0,3.779528,0,0)"/>
<path style="fill:none;stroke-width:2;stroke-linecap:butt;stroke-linejoin:miter;stroke:rgb(0%,0%,0%);stroke-opacity:1;stroke-miterlimit:4;" d="M 273.999813 176.499821 L 289.99987 172.500065 L 296.499731 186.500244 L 312.499788 193.000106 " transform="matrix(3.779528,0,0,3.779528,0,0)"/>
<path style="fill:none;stroke-width:2;stroke-linecap:butt;stroke-linejoin:miter;stroke:rgb(0%,0%,0%);stroke-opacity:1;stroke-miterlimit:4;" d="M 337.499813 178.999927 L 321.999984 189.00035 L 305.999927 180.999805 L 300.499487 167.499854 L 292.499976 180.000382 L 276.499919 178.000505 " transform="matrix(3.779528,0,0,3.779528,0,0)"/>
<path style="fill:none;stroke-width:2;stroke-linecap:butt;stroke-linejoin:miter;stroke:rgb(0%,0%,0%);stroke-opacity:1;stroke-miterlimit:4;" d="M 264.999845 192.499878 L 280.999902 196.499634 L 292.499976 198.99974 L 308.500033 218.999552 " transform="matrix(3.779528,0,0,3.779528,0,0)"/>
<path style="fill:none;stroke-width:2;stroke-linecap:butt;stroke-linejoin:miter;stroke:rgb(0%,0%,0%);stroke-opacity:1;stroke-miterlimit:4;" d="M 294.499854 250.500472 L 305.000505 266.499495 L 302.999593 280.999902 L 311.000138 295.500309 " transform="matrix(3.779528,0,0,3.779528,0,0)"/>
<path style="fill:none;stroke-width:2;stroke-linecap:butt;stroke-linejoin:miter;stroke:rgb(0%,0%,0%);stroke-opacity:1;stroke-miterlimit:4;" d="M 251.499894 352.999642 L 235.499837 365.500171 L 243.999577 361.500415 L 256.500106 345.999552 L 256.500106 282.000358 L 254.500228 265.500073 L 254.500228 249.500016 L 254 233.499959 " transform="matrix(3.779528,0,0,3.779528,0,0)"/>
<path style="fill:none;stroke-width:2;stroke-linecap:butt;stroke-linejoin:miter;stroke:rgb(0%,0%,0%);stroke-opacity:1;stroke-miterlimit:4;" d="M 248.499561 228.999976 L 244.499805 245.50026 L 241.999699 261.500317 L 234.000187 277.500374 " transform="matrix(3.779528,0,0,3.779528,0,0)"/>
<path style="fill:none;stroke-width:2;stroke-linecap:butt;stroke-linejoin:miter;stroke:rgb(0%,0%,0%);stroke-opacity:1;stroke-miterlimit:4;" d="M 262.49974 193.500334 L 262.49974 209.500391 L 261.500317 225.500448 L 261.999512 241.500505 L 261.999512 273.999813 L 259.999634 289.99987 L 260.499862 305.499699 L 260.499862 321.499756 L 261.999512 336.999585 L 259.999634 352.999642 L 259.999634 368.999699 L 254 369.499927 L 269.499829 389.49974 L 283.500008 398.000513 L 271.000513 406.000024 L 271.000513 427.999715 L 261.500317 442.500122 L 269.499829 454.500423 L 289.499642 450.499634 L 305.499699 459.000407 " transform="matrix(3.779528,0,0,3.779528,0,0)"/>
<path style="fill:none;stroke-width:2;stroke-linecap:butt;stroke-linejoin:miter;stroke:rgb(0%,0%,0%);stroke-opacity:1;stroke-miterlimit:4;" d="M 153.999902 500.000488 L 156.500008 484.000431 L 156.500008 468.499569 L 158.499886 452.499512 L 152.500252 426.500065 L 154.50013 408.50013 L 157.000236 388.500317 L 159.000114 372.50026 " transform="matrix(3.779528,0,0,3.779528,0,0)"/>
<path style="fill:none;stroke-width:2;stroke-linecap:butt;stroke-linejoin:miter;stroke:rgb(0%,0%,0%);stroke-opacity:1;stroke-miterlimit:4;" d="M 32.000114 447.999528 L 16.000057 443.999772 " transform="matrix(3.779528,0,0,3.779528,0,0)"/>
<path style="fill:none;stroke-width:2;stroke-linecap:butt;stroke-linejoin:miter;stroke:rgb(0%,0%,0%);stroke-opacity:1;stroke-miterlimit:4;" d="M 39.000203 243.999577 L 23.000146 240.500049 " transform="matrix(3.779528,0,0,3.779528,0,0)"/>
<path style="fill:none;stroke-width:2;stroke-linecap:butt;stroke-linejoin:miter;stroke:rgb(0%,0%,0%);stroke-opacity:1;stroke-miterlimit:4;" d="M 3.000334 197.50009 L 18.500163 198.000317 L 35.000448 198.000317 L 51.000505 200.000195 L 66.999528 198.000317 L 82.999585 198.000317 L 98.999642 198.499512 L 130.499528 198.499512 L 146.499585 200.999618 L 162.499642 200.999618 " transform="matrix(3.779528,0,0,3.779528,0,0)"/>
<path style="fill:none;stroke-width:2;stroke-linecap:butt;stroke-linejoin:miter;stroke:rgb(0%,0%,0%);stroke-opacity:1;stroke-miterlimit:4;" d="M 174.499943 141.500407 L 158.499886 151.499797 L 172.500065 157.500464 L 171.000415 153.999902 L 182.999683 144.499707 L 167.499854 156.500008 L 151.499797 166.500431 L 135.999967 160.999992 L 130.000334 157.000236 L 130.499528 144.999935 L 130.000334 128.999878 L 125.999544 116.999577 L 132.000212 100.99952 L 141.999601 85.000496 L 150.000146 68.500212 L 159.999536 51.999927 L 163.500098 35.499642 L 177.500277 19.499585 L 199.499967 9.500195 L 195.500212 23.000146 L 179.500155 19.000391 L 163.500098 28.99978 " transform="matrix(3.779528,0,0,3.779528,0,0)"/>
<path style="fill:none;stroke-width:2;stroke-linecap:butt;stroke-linejoin:miter;stroke:rgb(0%,0%,0%);stroke-opacity:1;stroke-miterlimit:4;" d="M 171.499609 35.99987 L 187.499666 37.999748 L 203.499723 42.499731 L 219.49978 44.499609 " transform="matrix(3.779528,0,0,3.779528,0,0)"/>
<path style="fill:none;stroke-width:2;stroke-linecap:butt;stroke-linejoin:miter;stroke:rgb(0%,0%,0%);stroke-opacity:1;stroke-miterlimit:4;" d="M 225.00022 39.999626 L 209.500391 32.000114 " transform="matrix(3.779528,0,0,3.779528,0,0)"/>
<path style="fill:none;stroke-width:2;stroke-linecap:butt;stroke-linejoin:miter;stroke:rgb(0%,0%,0%);stroke-opacity:1;stroke-miterlimit:4;" d="M 202.000073 23.500374 L 225.999642 39.500431 L 223.999764 55.999683 L 223.999764 71.99974 L 230.000431 87.499569 L 238.500171 103.499626 " transform="matrix(3.779528,0,0,3.779528,0,0)"/>
<path style="fill:none;stroke-width:2;stroke-linecap:butt;stroke-linejoin:miter;stroke:rgb(0%,0%,0%);stroke-opacity:1;stroke-miterlimit:4;" d="M 220.500236 78.499601 L 226.49987 94.499658 L 234.500415 110.499715 L 240.500049 126.499772 L 244.499805 142.499829 L 246.499683 158.499886 L 248.999788 178.499699 L 238.500171 173.999715 " transform="matrix(3.779528,0,0,3.779528,0,0)"/>
<path style="fill:none;stroke-width:2;stroke-linecap:butt;stroke-linejoin:miter;stroke:rgb(0%,0%,0%);stroke-opacity:1;stroke-miterlimit:4;" d="M 267.499951 194.999984 L 275.500496 211.000041 L 269.499829 227.500326 L 267.499951 243.500382 L 267.499951 259.999634 L 265.500073 275.999691 L 265.500073 372.000033 L 275.999691 389.999967 L 261.999512 406.000024 L 264.000423 422.500309 L 264.000423 438.500366 L 268.000179 438.500366 " transform="matrix(3.779528,0,0,3.779528,0,0)"/>
<path style="fill:none;stroke-width:2;stroke-linecap:butt;stroke-linejoin:miter;stroke:rgb(0%,0%,0%);stroke-opacity:1;stroke-miterlimit:4;" d="M 162.99987 196.499634 L 146.499585 194.499756 L 66.999528 194.499756 L 51.000505 193.999528 L 35.000448 193.500334 L 19.000391 193.500334 L 3.000334 193.999528 " transform="matrix(3.779528,0,0,3.779528,0,0)"/>
<path style="fill:none;stroke-width:2;stroke-linecap:butt;stroke-linejoin:miter;stroke:rgb(0%,0%,0%);stroke-opacity:1;stroke-miterlimit:4;" d="M 1.999878 174.499943 L 17.999935 174.499943 L 33.999992 173.999715 L 50.000049 173.999715 L 66.000106 173.499487 L 82.500391 173.000293 L 98.500448 173.499487 L 114.500505 173.999715 L 130.499528 174.499943 L 146.999813 176.499821 " transform="matrix(3.779528,0,0,3.779528,0,0)"/>
<path style="fill:none;stroke-width:2;stroke-linecap:butt;stroke-linejoin:miter;stroke:rgb(0%,0%,0%);stroke-opacity:1;stroke-miterlimit:4;" d="M 132.999634 113.500049 L 148.999691 99.49987 L 164.999748 81.499935 L 180.499577 63.5 L 173.999715 55.00026 L 159.999536 71.000317 L 148.000269 82.999585 L 139.999723 97.499992 L 155.99978 67.999984 L 171.999837 44.499609 L 187.999894 42.499731 L 203.999951 50.000049 L 223.999764 53.499577 " transform="matrix(3.779528,0,0,3.779528,0,0)"/>
<path style="fill:none;stroke-width:2;stroke-linecap:butt;stroke-linejoin:miter;stroke:rgb(0%,0%,0%);stroke-opacity:1;stroke-miterlimit:4;" d="M 216.50048 77.500179 L 207.999707 93.500236 L 187.999894 111.500171 L 162.000448 127 L 144.000513 143.000057 L 150.500374 132.500439 L 166.500431 118.50026 L 182.00026 106.499959 L 198.000317 90.499902 L 214.000374 64.500456 L 237.999943 102.500203 " transform="matrix(3.779528,0,0,3.779528,0,0)"/>
<path style="fill:none;stroke-width:2;stroke-linecap:butt;stroke-linejoin:miter;stroke:rgb(0%,0%,0%);stroke-opacity:1;stroke-miterlimit:4;" d="M 198.499512 114.500505 L 190.5 130.499528 L 184.500366 150.500374 L 190.5 160.499764 L 194.499756 176.499821 L 196.499634 192.499878 L 187.999894 207.999707 L 182.00026 223.999764 L 175.999593 239.499593 L 171.999837 255.999878 L 168.000081 271.999935 L 165.499976 287.999992 L 160.999992 303.499821 L 157.000236 335.499935 L 155.000358 352.00022 L 153.00048 368.000277 L 150.999569 384.000334 L 149.499919 400.000391 L 145.500163 416.000448 L 143.500285 432.000505 L 141.500407 447.999528 L 141.500407 463.999585 L 137.499618 479.999642 L 135.49974 495.500505 " transform="matrix(3.779528,0,0,3.779528,0,0)"/>
<path style="fill:none;stroke-width:2;stroke-linecap:butt;stroke-linejoin:miter;stroke:rgb(0%,0%,0%);stroke-opacity:1;stroke-miterlimit:4;" d="M 147.500041 170.500187 L 130.999756 170.500187 L 114.999699 169.999959 L 98.999642 169.999959 L 82.999585 169.499731 L 66.999528 169.999959 L 51.000505 169.999959 L 35.000448 170.500187 L 3.000334 170.500187 " transform="matrix(3.779528,0,0,3.779528,0,0)"/>
<path style="fill:none;stroke-width:2;stroke-linecap:butt;stroke-linejoin:miter;stroke:rgb(0%,0%,0%);stroke-opacity:1;stroke-miterlimit:4;" d="M 28.99978 141.999601 L 44.999837 141.999601 L 60.999894 141.500407 L 76.499723 141.500407 L 78.499601 137.999845 L 85.999919 130.000334 L 118.50026 130.000334 " transform="matrix(3.779528,0,0,3.779528,0,0)"/>
<path style="fill:none;stroke-width:2;stroke-linecap:butt;stroke-linejoin:miter;stroke:rgb(0%,0%,0%);stroke-opacity:1;stroke-miterlimit:4;" d="M 152.000024 111.500171 L 168.000081 109.500293 " transform="matrix(3.779528,0,0,3.779528,0,0)"/>
<path style="fill:none;stroke-width:2;stroke-linecap:butt;stroke-linejoin:miter;stroke:rgb(0%,0%,0%);stroke-opacity:1;stroke-miterlimit:4;" d="M 184.000138 121.499561 L 168.000081 135.999967 L 159.999536 138.500073 L 148.000269 148.500496 L 158.499886 159.999536 L 160.499764 144.000513 L 178.499699 128.49965 L 191.000228 112.499593 " transform="matrix(3.779528,0,0,3.779528,0,0)"/>
<path style="fill:none;stroke-width:2;stroke-linecap:butt;stroke-linejoin:miter;stroke:rgb(0%,0%,0%);stroke-opacity:1;stroke-miterlimit:4;" d="M 184.000138 66.000106 L 159.999536 98.00022 L 139.999723 114.500505 L 155.99978 102.500203 L 171.999837 82.500391 L 187.499666 64.500456 " transform="matrix(3.779528,0,0,3.779528,0,0)"/>
<path style="fill:none;stroke-width:2;stroke-linecap:butt;stroke-linejoin:miter;stroke:rgb(0%,0%,0%);stroke-opacity:1;stroke-miterlimit:4;" d="M 159.500342 69.499634 L 175.500399 53.499577 L 191.500456 51.499699 L 183.49991 60.000472 L 168.999504 76.499723 L 155.000358 92.49978 L 139.000301 109.000065 L 125.50035 114.999699 L 141.500407 82.999585 L 157.999658 54.500033 L 178.000505 28.499552 L 193.999528 30.500464 L 209.999585 36.500098 L 214.000374 28.000358 L 241.500505 29.500008 L 253.499772 21.500496 L 259.500439 30.999658 L 275.500496 25.000024 L 291.999748 32.999536 L 307.999805 23.000146 L 323.999862 35.000448 L 339.999919 57.000138 L 359.499504 80.500513 L 375.499561 108.499837 L 391.999845 132.999634 L 407.999902 137.000423 L 423.999959 137.000423 L 439.499788 137.499618 L 504.000244 137.499618 " transform="matrix(3.779528,0,0,3.779528,0,0)"/>
<path style="fill:none;stroke-width:2;stroke-linecap:butt;stroke-linejoin:miter;stroke:rgb(0%,0%,0%);stroke-opacity:1;stroke-miterlimit:4;" d="M 496.499927 194.999984 L 447.999528 194.999984 L 432.000505 193.000106 L 400.000391 193.000106 L 384.499528 210.499813 L 368.500505 226.49987 L 352.999642 240.500049 L 336.999585 252.50035 L 339.000496 244.499805 L 348.999886 228.499748 L 366.999821 212.499691 L 360.499959 216.50048 L 344.499902 236.500293 L 328.499845 242.499927 L 318.500456 248.499561 L 332.499601 238.500171 L 346.49978 216.50048 L 339.999919 200.500423 L 316.499544 192.499878 L 316.499544 175.999593 L 320.500334 159.500342 L 332.499601 139.000301 L 338.000041 122.500016 L 344.499902 106.499959 L 336.500391 105.000309 L 334.000285 103.000431 L 320.000106 91.00013 L 305.499699 80.999707 L 282.99978 76.999951 L 267.499951 110.999943 L 257.499528 123.000244 L 257.499528 107.500415 L 254 91.500358 L 249.500016 75.999495 L 245.50026 60.000472 L 241.500505 44.000415 L 243.500382 28.499552 L 231.500081 24.499797 L 239.499593 12.499495 L 221.000464 4.499984 L 234.999609 8.49974 L 237.499715 3.999756 L 221.499658 3.999756 " transform="matrix(3.779528,0,0,3.779528,0,0)"/>
<path style="fill:none;stroke-width:2;stroke-linecap:butt;stroke-linejoin:miter;stroke:rgb(0%,0%,0%);stroke-opacity:1;stroke-miterlimit:4;" d="M 198.000317 7.999512 L 213.500146 7.999512 L 205.000407 21.500496 L 221.000464 15.499829 L 236.999487 29.500008 " transform="matrix(3.779528,0,0,3.779528,0,0)"/>
<path style="fill:none;stroke-width:2;stroke-linecap:butt;stroke-linejoin:miter;stroke:rgb(0%,0%,0%);stroke-opacity:1;stroke-miterlimit:4;" d="M 259.000212 30.500464 L 264.999845 34.50022 L 252.999544 33.999992 L 255.000456 41.999504 L 254.500228 57.999561 L 246.499683 65.499878 L 272.500163 49.499821 L 282.499552 53.999805 L 304.500277 55.999683 L 320.999528 57.999561 L 336.999585 67.999984 L 339.000496 78.000407 L 352.999642 73.500423 L 350.499536 89.50048 L 360.499959 100.000098 L 377.999666 118.000033 L 390.500195 134.00009 L 360.499959 159.999536 L 352.500448 175.999593 L 346.49978 206.500057 " transform="matrix(3.779528,0,0,3.779528,0,0)"/>
<path style="fill:none;stroke-width:2;stroke-linecap:butt;stroke-linejoin:miter;stroke:rgb(0%,0%,0%);stroke-opacity:1;stroke-miterlimit:4;" d="M 377.500472 207.999707 L 361.500415 223.999764 L 345.999552 237.999943 L 372.000033 221.499658 L 385.499984 207.500513 L 391.499618 191.500456 " transform="matrix(3.779528,0,0,3.779528,0,0)"/>
<path style="fill:none;stroke-width:2;stroke-linecap:butt;stroke-linejoin:miter;stroke:rgb(0%,0%,0%);stroke-opacity:1;stroke-miterlimit:4;" d="M 385.499984 150.999569 L 369.499927 157.000236 L 354.000098 164.999748 L 379.999544 146.999813 " transform="matrix(3.779528,0,0,3.779528,0,0)"/>
<path style="fill:none;stroke-width:2;stroke-linecap:butt;stroke-linejoin:miter;stroke:rgb(0%,0%,0%);stroke-opacity:1;stroke-miterlimit:4;" d="M 311.000138 67.499756 L 317.5 66.000106 L 320.000106 59.500244 " transform="matrix(3.779528,0,0,3.779528,0,0)"/>
<path style="fill:none;stroke-width:2;stroke-linecap:butt;stroke-linejoin:miter;stroke:rgb(0%,0%,0%);stroke-opacity:1;stroke-miterlimit:4;" d="M 327.999618 55.999683 L 311.999561 42.499731 " transform="matrix(3.779528,0,0,3.779528,0,0)"/>
<path style="fill:none;stroke-width:2;stroke-linecap:butt;stroke-linejoin:miter;stroke:rgb(0%,0%,0%);stroke-opacity:1;stroke-miterlimit:4;" d="M 313.000016 36.500098 L 329.000073 52.500155 " transform="matrix(3.779528,0,0,3.779528,0,0)"/>
<path style="fill:none;stroke-width:2;stroke-linecap:butt;stroke-linejoin:miter;stroke:rgb(0%,0%,0%);stroke-opacity:1;stroke-miterlimit:4;" d="M 323.000439 51.499699 L 311.000138 35.499642 L 311.000138 35.99987 " transform="matrix(3.779528,0,0,3.779528,0,0)"/>
<path style="fill:none;stroke-width:2;stroke-linecap:butt;stroke-linejoin:miter;stroke:rgb(0%,0%,0%);stroke-opacity:1;stroke-miterlimit:4;" d="M 302.000171 24.499797 L 297.500187 39.999626 L 297.500187 55.500488 L 293.500431 71.499512 L 286.000114 87.999797 L 277.999569 103.999854 L 284.000236 119.99991 L 268.000179 130.000334 L 268.500407 128.000456 L 284.500464 125.50035 " transform="matrix(3.779528,0,0,3.779528,0,0)"/>
<path style="fill:none;stroke-width:2;stroke-linecap:butt;stroke-linejoin:miter;stroke:rgb(0%,0%,0%);stroke-opacity:1;stroke-miterlimit:4;" d="M 301.499943 66.000106 L 317.5 79.500057 L 333.500057 85.499691 " transform="matrix(3.779528,0,0,3.779528,0,0)"/>
<path style="fill:none;stroke-width:2;stroke-linecap:butt;stroke-linejoin:miter;stroke:rgb(0%,0%,0%);stroke-opacity:1;stroke-miterlimit:4;" d="M 336.999585 46.499487 L 320.500334 22.499919 L 304.500277 17.000513 " transform="matrix(3.779528,0,0,3.779528,0,0)"/>
<path style="fill:none;stroke-width:2;stroke-linecap:butt;stroke-linejoin:miter;stroke:rgb(0%,0%,0%);stroke-opacity:1;stroke-miterlimit:4;" d="M 282.499552 28.99978 L 288.50022 44.499609 L 292.499976 46.499487 L 278.499797 56.49991 " transform="matrix(3.779528,0,0,3.779528,0,0)"/>
<path style="fill:none;stroke-width:2;stroke-linecap:butt;stroke-linejoin:miter;stroke:rgb(0%,0%,0%);stroke-opacity:1;stroke-miterlimit:4;" d="M 288.50022 54.500033 L 282.99978 60.499666 L 284.999658 76.499723 L 277.000146 91.999552 L 268.999601 107.999609 L 262.999967 123.500472 " transform="matrix(3.779528,0,0,3.779528,0,0)"/>
<path style="fill:none;stroke-width:2;stroke-linecap:butt;stroke-linejoin:miter;stroke:rgb(0%,0%,0%);stroke-opacity:1;stroke-miterlimit:4;" d="M 299.500065 58.499788 L 307.499577 74.499845 L 314.999894 90.499902 L 330.999951 106.499959 L 326.499967 121.999788 L 326.499967 137.999845 L 332.499601 149.499919 L 343.000252 165.499976 L 330.999951 181.500033 L 325.499512 196.999862 L 345.500358 202.999495 " transform="matrix(3.779528,0,0,3.779528,0,0)"/>
<path style="fill:none;stroke-width:2;stroke-linecap:butt;stroke-linejoin:miter;stroke:rgb(0%,0%,0%);stroke-opacity:1;stroke-miterlimit:4;" d="M 271.499707 76.499723 L 271.499707 60.499666 L 269.499829 48.500399 L 267.499951 32.500342 " transform="matrix(3.779528,0,0,3.779528,0,0)"/>
<path style="fill:none;stroke-width:2;stroke-linecap:butt;stroke-linejoin:miter;stroke:rgb(0%,0%,0%);stroke-opacity:1;stroke-miterlimit:4;" d="M 259.999634 32.000114 L 257.499528 48.000171 " transform="matrix(3.779528,0,0,3.779528,0,0)"/>
<path style="fill:none;stroke-width:2;stroke-linecap:butt;stroke-linejoin:miter;stroke:rgb(0%,0%,0%);stroke-opacity:1;stroke-miterlimit:4;" d="M 275.500496 29.500008 L 275.500496 45.500065 L 277.500374 49.499821 L 261.500317 62.999772 L 267.499951 66.999528 L 279.500252 72.499967 L 307.999805 88.500024 L 322.500212 103.999854 L 316.999772 107.999609 L 307.499577 123.999666 L 320.000106 152.000024 L 320.000106 137.999845 L 345.500358 105.999731 " transform="matrix(3.779528,0,0,3.779528,0,0)"/>
<path style="fill:none;stroke-width:2;stroke-linecap:butt;stroke-linejoin:miter;stroke:rgb(0%,0%,0%);stroke-opacity:1;stroke-miterlimit:4;" d="M 352.00022 33.499764 L 352.00022 1.000456 " transform="matrix(3.779528,0,0,3.779528,0,0)"/>
<path style="fill:none;stroke-width:2;stroke-linecap:butt;stroke-linejoin:miter;stroke:rgb(0%,0%,0%);stroke-opacity:1;stroke-miterlimit:4;" d="M 348.000464 1.49965 L 348.000464 17.499707 L 347.500236 33.499764 L 347.500236 49.499821 " transform="matrix(3.779528,0,0,3.779528,0,0)"/>
<path style="fill:none;stroke-width:2;stroke-linecap:butt;stroke-linejoin:miter;stroke:rgb(0%,0%,0%);stroke-opacity:1;stroke-miterlimit:4;" d="M 336.999585 1.999878 L 335.499935 17.999935 L 332.999829 41.500309 L 339.499691 57.500366 L 327.500423 77.500179 L 338.000041 79.500057 L 348.000464 89.50048 L 352.500448 103.999854 L 368.500505 109.999487 L 384.999756 136.500195 " transform="matrix(3.779528,0,0,3.779528,0,0)"/>
<path style="fill:none;stroke-width:2;stroke-linecap:butt;stroke-linejoin:miter;stroke:rgb(0%,0%,0%);stroke-opacity:1;stroke-miterlimit:4;" d="M 331.500179 1.000456 L 331.500179 17.000513 L 325.499512 28.99978 L 329.500301 45.500065 L 350.000342 64.000228 L 345.999552 68.500212 L 361.999609 88.500024 L 370.000155 98.500448 L 361.999609 110.499715 L 372.50026 116.500382 L 382.999878 132.500439 L 395.000179 148.500496 L 398.499707 164.49952 L 396.499829 180.499577 L 386.500439 190.5 L 380.499772 206.500057 L 364.499715 221.999886 L 354.000098 237.999943 L 332.000407 254 L 323.999862 270.000057 L 328.499845 286.000114 L 332.499601 304.000049 L 336.500391 303.499821 L 338.000041 318.99965 L 338.000041 320.999528 L 335.499935 336.999585 L 335.499935 352.500448 L 341.000374 377.000244 L 336.999585 393.000301 L 345.500358 411.000236 L 349.500114 427.499487 L 349.500114 443.499544 L 353.49987 459.499601 L 351.499992 475.499658 L 357.999854 477.499536 L 361.999609 493.499593 L 364.499715 509.49965 " transform="matrix(3.779528,0,0,3.779528,0,0)"/>
<path style="fill:none;stroke-width:2;stroke-linecap:butt;stroke-linejoin:miter;stroke:rgb(0%,0%,0%);stroke-opacity:1;stroke-miterlimit:4;" d="M 266.999723 11.500073 L 250.999666 11.500073 " transform="matrix(3.779528,0,0,3.779528,0,0)"/>
<path style="fill:none;stroke-width:2;stroke-linecap:butt;stroke-linejoin:miter;stroke:rgb(0%,0%,0%);stroke-opacity:1;stroke-miterlimit:4;" d="M 247.500138 3.999756 L 263.500195 7.999512 L 270.000057 16.000057 " transform="matrix(3.779528,0,0,3.779528,0,0)"/>
<path style="fill:none;stroke-width:2;stroke-linecap:butt;stroke-linejoin:miter;stroke:rgb(0%,0%,0%);stroke-opacity:1;stroke-miterlimit:4;" d="M 194.999984 30.999658 L 214.499569 59.000016 L 211.000041 75.000073 L 198.499512 91.00013 L 182.500488 106.499959 L 159.999536 122.500016 L 140.499951 138.500073 L 150.999569 146.000391 L 143.500285 144.000513 L 159.500342 129.500106 L 175.500399 118.000033 L 191.500456 112.000399 L 203.499723 107.999609 L 211.000041 84.000041 L 226.49987 89.50048 " transform="matrix(3.779528,0,0,3.779528,0,0)"/>
</g>
</svg>
