<?xml version="1.0" encoding="UTF-8"?>
<svg xmlns="http://www.w3.org/2000/svg" xmlns:xlink="http://www.w3.org/1999/xlink" width="1935.11811" height="1935.11811" viewBox="0 0 1935.11811 1935.11811" version="1.1">
<g id="surface1">
<path style="fill:none;stroke-width:2;stroke-linecap:butt;stroke-linejoin:miter;stroke:rgb(0%,0%,0%);stroke-opacity:1;stroke-miterlimit:4;" d="M 175.500399 12.499495 L 163.500098 16.500285 L 165.499976 20.500041 L 175.500399 12.499495 L 179.500155 25.000024 L 197.50009 32.999536 L 213.500146 42.999959 L 215.500024 55.00026 L 230.999854 48.999593 L 246.99991 48.500399 L 262.49974 48.500399 L 279.000024 44.499609 L 298.999837 50.500277 L 305.000505 44.499609 " transform="matrix(3.779528,0,0,3.779528,0,0)"/>
<path style="fill:none;stroke-width:2;stroke-linecap:butt;stroke-linejoin:miter;stroke:rgb(0%,0%,0%);stroke-opacity:1;stroke-miterlimit:4;" d="M 277.999569 55.500488 L 275.999691 62.999772 L 265.500073 59.500244 L 293.500431 35.499642 L 325.000317 31.499886 L 318.99965 15.499829 " transform="matrix(3.779528,0,0,3.779528,0,0)"/>
<path style="fill:none;stroke-width:2;stroke-linecap:butt;stroke-linejoin:miter;stroke:rgb(0%,0%,0%);stroke-opacity:1;stroke-miterlimit:4;" d="M 325.499512 3.999756 L 341.499569 3.999756 " transform="matrix(3.779528,0,0,3.779528,0,0)"/>
<path style="fill:none;stroke-width:2;stroke-linecap:butt;stroke-linejoin:miter;stroke:rgb(0%,0%,0%);stroke-opacity:1;stroke-miterlimit:4;" d="M 345.500358 30.000236 L 365.500171 37.999748 L 363.500293 53.999805 L 366.000399 69.499634 L 362.499837 85.499691 L 354.500326 117.499805 L 348.499658 133.499862 L 350.000342 151.499797 L 345.500358 167.499854 L 339.499691 183.49991 L 313.500244 195.500212 L 321.499756 199.499967 L 337.499813 195.500212 L 355.999976 213.500146 L 372.000033 231.500081 L 388.00009 253.499772 L 403.499919 279.000024 L 418.999748 313.000016 L 435.500033 347.000008 L 452.000317 382.999878 L 467.500146 425.499609 " transform="matrix(3.779528,0,0,3.779528,0,0)"/>
<path style="fill:none;stroke-width:2;stroke-linecap:butt;stroke-linejoin:miter;stroke:rgb(0%,0%,0%);stroke-opacity:1;stroke-miterlimit:4;" d="M 454.999618 404.500374 L 439.499788 368.500505 " transform="matrix(3.779528,0,0,3.779528,0,0)"/>
<path style="fill:none;stroke-width:2;stroke-linecap:butt;stroke-linejoin:miter;stroke:rgb(0%,0%,0%);stroke-opacity:1;stroke-miterlimit:4;" d="M 454.500423 388.999512 L 460.500057 405.499797 L 459.999829 421.499854 L 466.000496 437.49991 " transform="matrix(3.779528,0,0,3.779528,0,0)"/>
<path style="fill:none;stroke-width:2;stroke-linecap:butt;stroke-linejoin:miter;stroke:rgb(0%,0%,0%);stroke-opacity:1;stroke-miterlimit:4;" d="M 388.500317 325.499512 L 372.50026 307.999805 L 356.500203 270.000057 " transform="matrix(3.779528,0,0,3.779528,0,0)"/>
<path style="fill:none;stroke-width:2;stroke-linecap:butt;stroke-linejoin:miter;stroke:rgb(0%,0%,0%);stroke-opacity:1;stroke-miterlimit:4;" d="M 332.000407 243.999577 L 336.000163 227.500326 L 345.999552 219.49978 L 321.999984 209.500391 L 305.999927 199.499967 " transform="matrix(3.779528,0,0,3.779528,0,0)"/>
<path style="fill:none;stroke-width:2;stroke-linecap:butt;stroke-linejoin:miter;stroke:rgb(0%,0%,0%);stroke-opacity:1;stroke-miterlimit:4;" d="M 293.999626 223.499536 L 278.499797 214.999797 " transform="matrix(3.779528,0,0,3.779528,0,0)"/>
<path style="fill:none;stroke-width:2;stroke-linecap:butt;stroke-linejoin:miter;stroke:rgb(0%,0%,0%);stroke-opacity:1;stroke-miterlimit:4;" d="M 269.499829 218.999552 L 287.499764 227.000098 " transform="matrix(3.779528,0,0,3.779528,0,0)"/>
<path style="fill:none;stroke-width:2;stroke-linecap:butt;stroke-linejoin:miter;stroke:rgb(0%,0%,0%);stroke-opacity:1;stroke-miterlimit:4;" d="M 283.500008 230.000431 L 298.999837 237.999943 " transform="matrix(3.779528,0,0,3.779528,0,0)"/>
<path style="fill:none;stroke-width:2;stroke-linecap:butt;stroke-linejoin:miter;stroke:rgb(0%,0%,0%);stroke-opacity:1;stroke-miterlimit:4;" d="M 286.500342 246.499683 L 304.500277 282.499552 " transform="matrix(3.779528,0,0,3.779528,0,0)"/>
<path style="fill:none;stroke-width:2;stroke-linecap:butt;stroke-linejoin:miter;stroke:rgb(0%,0%,0%);stroke-opacity:1;stroke-miterlimit:4;" d="M 285.499886 246.99991 L 291.49952 262.999967 L 295.500309 279.500252 L 301.499943 295.500309 L 303.499821 311.999561 L 305.499699 327.999618 L 309.500488 343.999674 L 311.500366 359.499504 L 315.500122 375.499561 L 317.5 391.999845 L 319.499878 407.999902 L 319.499878 423.999959 L 318.000228 440.000016 L 320.000106 456.000073 L 320.000106 472.500358 L 325.99974 490.500293 L 321.999984 506.50035 " transform="matrix(3.779528,0,0,3.779528,0,0)"/>
<path style="fill:none;stroke-width:2;stroke-linecap:butt;stroke-linejoin:miter;stroke:rgb(0%,0%,0%);stroke-opacity:1;stroke-miterlimit:4;" d="M 348.000464 511.999756 L 363.999487 510.500106 L 379.999544 506.000122 L 395.500407 497.999577 L 401.500041 501.500138 L 417.500098 495.000277 L 433.500155 485.500081 " transform="matrix(3.779528,0,0,3.779528,0,0)"/>
<path style="fill:none;stroke-width:2;stroke-linecap:butt;stroke-linejoin:miter;stroke:rgb(0%,0%,0%);stroke-opacity:1;stroke-miterlimit:4;" d="M 470.000252 445.500456 L 466.000496 443.999772 L 449.500212 457.999951 L 445.500456 443.999772 L 438.000138 428.499943 L 434.000382 412.499886 L 429.999593 395.999601 L 425.999837 379.50035 L 418.000326 347.500236 L 413.999536 331.500179 L 407.499674 315.500122 L 401.500041 299.500065 L 393.999723 283.500008 L 384.499528 266.999723 L 372.50026 250.999666 L 359.000309 234.500415 L 339.000496 228.499748 " transform="matrix(3.779528,0,0,3.779528,0,0)"/>
<path style="fill:none;stroke-width:2;stroke-linecap:butt;stroke-linejoin:miter;stroke:rgb(0%,0%,0%);stroke-opacity:1;stroke-miterlimit:4;" d="M 336.999585 230.000431 L 348.999886 245.50026 L 357.999854 277.500374 L 366.499593 293.500431 L 372.50026 309.999683 L 386.999634 325.99974 " transform="matrix(3.779528,0,0,3.779528,0,0)"/>
<path style="fill:none;stroke-width:2;stroke-linecap:butt;stroke-linejoin:miter;stroke:rgb(0%,0%,0%);stroke-opacity:1;stroke-miterlimit:4;" d="M 367.500049 316.00035 L 351.499992 273.000391 L 335.499935 232.999731 " transform="matrix(3.779528,0,0,3.779528,0,0)"/>
<path style="fill:none;stroke-width:2;stroke-linecap:butt;stroke-linejoin:miter;stroke:rgb(0%,0%,0%);stroke-opacity:1;stroke-miterlimit:4;" d="M 329.000073 229.500203 L 345.00013 229.500203 L 361.000187 248.000366 L 377.500472 266.499495 L 393.999723 292.499976 " transform="matrix(3.779528,0,0,3.779528,0,0)"/>
<path style="fill:none;stroke-width:2;stroke-linecap:butt;stroke-linejoin:miter;stroke:rgb(0%,0%,0%);stroke-opacity:1;stroke-miterlimit:4;" d="M 406.000024 298.000415 L 398.000513 281.50013 L 377.999666 249.500016 L 363.999487 233.499959 L 352.00022 217.499902 L 332.000407 207.500513 L 338.000041 205.499601 L 343.999674 189.499544 L 343.999674 147.500041 L 353.49987 131.499984 L 347.500236 113.500049 L 354.000098 98.00022 L 358.500081 82.000163 L 350.499536 65.499878 L 368.500505 55.500488 L 372.50026 39.500431 L 373.99991 23.000146 L 367.500049 17.000513 L 351.499992 11.500073 L 337.499813 23.500374 L 321.999984 27.50013 L 307.999805 29.500008 L 291.999748 37.999748 L 304.000049 24.499797 L 318.000228 8.49974 L 311.999561 16.000057 L 295.999504 29.500008 L 280.00048 37.000326 L 264.000423 41.000081 L 248.000366 42.999959 L 232.499504 41.500309 L 216.999674 35.499642 L 200.999618 25.500252 L 184.999561 3.499528 " transform="matrix(3.779528,0,0,3.779528,0,0)"/>
<path style="fill:none;stroke-width:2;stroke-linecap:butt;stroke-linejoin:miter;stroke:rgb(0%,0%,0%);stroke-opacity:1;stroke-miterlimit:4;" d="M 196.000439 3.499528 L 184.000138 1.49965 L 189.999772 17.000513 L 193.999528 21.000269 L 203.999951 37.000326 L 214.000374 46.999715 L 203.999951 75.000073 L 203.999951 71.000317 L 205.499601 77.500179 L 231.500081 85.499691 L 232.999731 97.499992 L 261.500317 87.999797 L 266.000301 99.49987 L 255.999878 98.999642 " transform="matrix(3.779528,0,0,3.779528,0,0)"/>
<path style="fill:none;stroke-width:2;stroke-linecap:butt;stroke-linejoin:miter;stroke:rgb(0%,0%,0%);stroke-opacity:1;stroke-miterlimit:4;" d="M 285.499886 112.000399 L 301.499943 112.000399 " transform="matrix(3.779528,0,0,3.779528,0,0)"/>
<path style="fill:none;stroke-width:2;stroke-linecap:butt;stroke-linejoin:miter;stroke:rgb(0%,0%,0%);stroke-opacity:1;stroke-miterlimit:4;" d="M 323.000439 137.999845 L 314.999894 155.499552 L 298.999837 149.499919 L 282.99978 148.999691 L 266.999723 164.999748 L 250.500472 168.999504 L 234.999609 168.999504 L 218.999552 175.000171 L 202.999495 175.000171 L 187.000472 175.500399 L 171.000415 162.000448 " transform="matrix(3.779528,0,0,3.779528,0,0)"/>
<path style="fill:none;stroke-width:2;stroke-linecap:butt;stroke-linejoin:miter;stroke:rgb(0%,0%,0%);stroke-opacity:1;stroke-miterlimit:4;" d="M 176.499821 164.000326 L 174.499943 148.000269 L 170.500187 132.000212 L 164.49952 116.000155 L 162.99987 99.49987 L 148.999691 69.499634 " transform="matrix(3.779528,0,0,3.779528,0,0)"/>
<path style="fill:none;stroke-width:2;stroke-linecap:butt;stroke-linejoin:miter;stroke:rgb(0%,0%,0%);stroke-opacity:1;stroke-miterlimit:4;" d="M 153.999902 66.000106 L 169.999959 85.999919 " transform="matrix(3.779528,0,0,3.779528,0,0)"/>
<path style="fill:none;stroke-width:2;stroke-linecap:butt;stroke-linejoin:miter;stroke:rgb(0%,0%,0%);stroke-opacity:1;stroke-miterlimit:4;" d="M 186.000016 100.500326 L 184.000138 92.49978 L 178.000505 91.999552 L 159.500342 89.50048 L 153.499674 73.000195 L 145.500163 41.000081 " transform="matrix(3.779528,0,0,3.779528,0,0)"/>
<path style="fill:none;stroke-width:2;stroke-linecap:butt;stroke-linejoin:miter;stroke:rgb(0%,0%,0%);stroke-opacity:1;stroke-miterlimit:4;" d="M 139.000301 23.999569 L 155.000358 17.499707 L 171.000415 9.500195 L 173.000293 7.999512 L 139.000301 24.499797 L 141.000179 40.499854 L 144.999935 56.49991 L 148.500496 72.499967 L 154.50013 88.500024 L 158.499886 104.500081 L 160.999992 120.500138 L 166.999626 136.500195 L 168.999504 152.500252 L 173.499487 168.500309 L 173.499487 184.500366 L 177.500277 164.49952 L 193.000106 172.500065 L 209.000163 172.500065 L 225.00022 171.999837 L 244.499805 175.500399 L 260.499862 173.499487 L 276.499919 165.499976 L 290.500098 151.499797 L 306.500155 157.999658 L 321.999984 170.500187 L 337.499813 164.49952 " transform="matrix(3.779528,0,0,3.779528,0,0)"/>
<path style="fill:none;stroke-width:2;stroke-linecap:butt;stroke-linejoin:miter;stroke:rgb(0%,0%,0%);stroke-opacity:1;stroke-miterlimit:4;" d="M 336.999585 171.499609 L 313.000016 173.499487 L 297.500187 164.000326 L 282.000358 173.999715 " transform="matrix(3.779528,0,0,3.779528,0,0)"/>
<path style="fill:none;stroke-width:2;stroke-linecap:butt;stroke-linejoin:miter;stroke:rgb(0%,0%,0%);stroke-opacity:1;stroke-miterlimit:4;" d="M 287.999992 166.500431 L 283.500008 182.00026 L 293.500431 181.500033 L 287.499764 195.500212 L 289.99987 198.000317 L 302.000171 189.999772 L 311.999561 189.999772 L 325.99974 187.999894 L 328.499845 191.99965 " transform="matrix(3.779528,0,0,3.779528,0,0)"/>
<path style="fill:none;stroke-width:2;stroke-linecap:butt;stroke-linejoin:miter;stroke:rgb(0%,0%,0%);stroke-opacity:1;stroke-miterlimit:4;" d="M 304.000049 215.500024 L 287.499764 205.499601 L 271.499707 213.500146 L 255.999878 213.500146 L 240.500049 212.999919 L 224.499992 212.999919 L 209.000163 212.499691 L 193.000106 210.499813 L 176.499821 211.000041 L 160.499764 225.00022 L 144.999935 243.500382 L 128.999878 265.500073 L 112.999821 289.499642 L 96.999764 317.5 L 80.999707 343.50048 L 64.99965 375.000366 L 48.999593 400.499585 L 32.500342 424.500187 " transform="matrix(3.779528,0,0,3.779528,0,0)"/>
<path style="fill:none;stroke-width:2;stroke-linecap:butt;stroke-linejoin:miter;stroke:rgb(0%,0%,0%);stroke-opacity:1;stroke-miterlimit:4;" d="M 57.500366 405.499797 L 73.500423 379.50035 L 89.999674 349.500114 L 105.999731 323.499634 L 100.000098 323.499634 L 85.999919 345.500358 L 73.999618 369.499927 L 64.000228 387.499862 L 53.999805 405.499797 L 41.500309 422.000081 L 35.499642 432.000505 L 51.499699 407.999902 L 67.499756 379.999544 L 84.000041 349.500114 L 100.500326 321.499756 L 116.500382 295.500309 L 130.499528 279.500252 L 144.499707 257.499528 L 159.999536 243.500382 " transform="matrix(3.779528,0,0,3.779528,0,0)"/>
<path style="fill:none;stroke-width:2;stroke-linecap:butt;stroke-linejoin:miter;stroke:rgb(0%,0%,0%);stroke-opacity:1;stroke-miterlimit:4;" d="M 177.000049 231.500081 L 160.999992 253.499772 L 144.999935 279.500252 L 128.999878 316.00035 L 112.999821 353.49987 L 96.999764 387.499862 L 80.999707 418.999748 L 64.99965 452.99974 L 48.500399 454.999618 L 55.00026 445.000228 L 55.00026 425.000415 L 62.999772 409.000358 L 66.999528 393.499495 L 76.999951 377.999666 L 85.000496 361.999609 L 94.999886 345.999552 L 103.000431 329.999495 L 110.999943 314.000472 L 120.500138 297.500187 L 130.499528 282.000358 L 139.999723 266.499495 L 152.000024 250.500472 L 167.499854 234.000187 L 180.000382 218.00013 " transform="matrix(3.779528,0,0,3.779528,0,0)"/>
<path style="fill:none;stroke-width:2;stroke-linecap:butt;stroke-linejoin:miter;stroke:rgb(0%,0%,0%);stroke-opacity:1;stroke-miterlimit:4;" d="M 178.999927 216.999674 L 162.499642 232.999731 L 173.000293 223.000342 L 184.500366 223.000342 L 198.499512 226.49987 L 225.999642 228.499748 " transform="matrix(3.779528,0,0,3.779528,0,0)"/>
<path style="fill:none;stroke-width:2;stroke-linecap:butt;stroke-linejoin:miter;stroke:rgb(0%,0%,0%);stroke-opacity:1;stroke-miterlimit:4;" d="M 227.500326 231.500081 L 221.499658 247.500138 L 220.000008 261.500317 " transform="matrix(3.779528,0,0,3.779528,0,0)"/>
<path style="fill:none;stroke-width:2;stroke-linecap:butt;stroke-linejoin:miter;stroke:rgb(0%,0%,0%);stroke-opacity:1;stroke-miterlimit:4;" d="M 248.499561 254.500228 L 248.499561 238.500171 L 244.499805 222.500114 " transform="matrix(3.779528,0,0,3.779528,0,0)"/>
<path style="fill:none;stroke-width:2;stroke-linecap:butt;stroke-linejoin:miter;stroke:rgb(0%,0%,0%);stroke-opacity:1;stroke-miterlimit:4;" d="M 242.499927 220.500236 L 240.500049 236.500293 L 244.499805 238.500171 L 244.499805 254.500228 " transform="matrix(3.779528,0,0,3.779528,0,0)"/>
<path style="fill:none;stroke-width:2;stroke-linecap:butt;stroke-linejoin:miter;stroke:rgb(0%,0%,0%);stroke-opacity:1;stroke-miterlimit:4;" d="M 257.499528 228.499748 L 259.500439 244.499805 L 257.499528 260.499862 L 257.499528 291.999748 L 255.999878 307.999805 L 253.499772 323.999862 L 253.499772 355.999976 L 251.499894 372.000033 L 251.499894 404.000146 L 250.999666 420.500431 L 250.999666 436.500488 L 251.499894 452.499512 L 251.499894 484.499626 L 239.499593 504.000244 L 245.50026 508 " transform="matrix(3.779528,0,0,3.779528,0,0)"/>
<path style="fill:none;stroke-width:2;stroke-linecap:butt;stroke-linejoin:miter;stroke:rgb(0%,0%,0%);stroke-opacity:1;stroke-miterlimit:4;" d="M 243.999577 495.999699 L 228.499748 495.999699 L 212.499691 495.500505 L 196.999862 493.499593 L 180.999805 491.999943 L 164.999748 486.000309 " transform="matrix(3.779528,0,0,3.779528,0,0)"/>
<path style="fill:none;stroke-width:2;stroke-linecap:butt;stroke-linejoin:miter;stroke:rgb(0%,0%,0%);stroke-opacity:1;stroke-miterlimit:4;" d="M 155.000358 488.500415 L 171.000415 493.999821 L 187.000472 508 " transform="matrix(3.779528,0,0,3.779528,0,0)"/>
<path style="fill:none;stroke-width:2;stroke-linecap:butt;stroke-linejoin:miter;stroke:rgb(0%,0%,0%);stroke-opacity:1;stroke-miterlimit:4;" d="M 137.000423 472.00013 L 121.000366 466.499691 L 89.000252 454.500423 " transform="matrix(3.779528,0,0,3.779528,0,0)"/>
<path style="fill:none;stroke-width:2;stroke-linecap:butt;stroke-linejoin:miter;stroke:rgb(0%,0%,0%);stroke-opacity:1;stroke-miterlimit:4;" d="M 85.999919 452.499512 L 101.999976 409.000358 " transform="matrix(3.779528,0,0,3.779528,0,0)"/>
<path style="fill:none;stroke-width:2;stroke-linecap:butt;stroke-linejoin:miter;stroke:rgb(0%,0%,0%);stroke-opacity:1;stroke-miterlimit:4;" d="M 118.000033 352.500448 L 134.00009 324.50009 " transform="matrix(3.779528,0,0,3.779528,0,0)"/>
<path style="fill:none;stroke-width:2;stroke-linecap:butt;stroke-linejoin:miter;stroke:rgb(0%,0%,0%);stroke-opacity:1;stroke-miterlimit:4;" d="M 163.500098 318.000228 L 179.500155 277.999569 " transform="matrix(3.779528,0,0,3.779528,0,0)"/>
<path style="fill:none;stroke-width:2;stroke-linecap:butt;stroke-linejoin:miter;stroke:rgb(0%,0%,0%);stroke-opacity:1;stroke-miterlimit:4;" d="M 144.999935 291.49952 L 154.50013 277.999569 L 148.999691 293.999626 L 143.000057 309.999683 L 137.000423 311.999561 L 128.999878 329.999495 L 130.999756 338.500269 L 122.500016 354.500326 L 116.500382 370.500382 L 110.499715 386.999634 L 98.500448 418.999748 L 94.499658 434.999805 L 88.500024 451.50009 L 121.000366 466.999919 " transform="matrix(3.779528,0,0,3.779528,0,0)"/>
<path style="fill:none;stroke-width:2;stroke-linecap:butt;stroke-linejoin:miter;stroke:rgb(0%,0%,0%);stroke-opacity:1;stroke-miterlimit:4;" d="M 87.000374 466.499691 L 103.000431 468.499569 L 118.50026 470.50048 L 134.500317 476.500114 L 150.500374 480.49987 L 166.500431 478.499992 " transform="matrix(3.779528,0,0,3.779528,0,0)"/>
<path style="fill:none;stroke-width:2;stroke-linecap:butt;stroke-linejoin:miter;stroke:rgb(0%,0%,0%);stroke-opacity:1;stroke-miterlimit:4;" d="M 157.999658 441.499666 L 154.50013 457.499723 L 148.500496 473.49978 L 160.499764 486.000309 L 166.500431 502.000366 L 188.500122 504.000244 L 194.499756 508 " transform="matrix(3.779528,0,0,3.779528,0,0)"/>
<path style="fill:none;stroke-width:2;stroke-linecap:butt;stroke-linejoin:miter;stroke:rgb(0%,0%,0%);stroke-opacity:1;stroke-miterlimit:4;" d="M 323.999862 477.000342 L 339.999919 475.000464 L 355.999976 473.49978 L 371.499805 471.499902 L 387.499862 470.000252 " transform="matrix(3.779528,0,0,3.779528,0,0)"/>
<path style="fill:none;stroke-width:2;stroke-linecap:butt;stroke-linejoin:miter;stroke:rgb(0%,0%,0%);stroke-opacity:1;stroke-miterlimit:4;" d="M 397.000057 466.499691 L 394.499951 450.999862 L 392.500073 434.999805 L 388.00009 419.499976 L 385.499984 402.999691 L 381 386.999634 L 379.000122 370.999577 L 374.500138 354.500326 L 372.000033 339.000496 L 368.500505 323.000439 L 362.499837 307.000382 L 357.000431 291.000326 L 348.999886 275.000269 L 345.00013 258.499984 L 339.000496 241.999699 L 325.499512 251.499894 L 309.500488 248.999788 L 293.500431 238.500171 L 277.500374 227.99952 " transform="matrix(3.779528,0,0,3.779528,0,0)"/>
<path style="fill:none;stroke-width:2;stroke-linecap:butt;stroke-linejoin:miter;stroke:rgb(0%,0%,0%);stroke-opacity:1;stroke-miterlimit:4;" d="M 280.00048 227.000098 L 273.999813 243.000155 L 271.499707 259.000212 L 265.500073 275.000269 L 261.500317 307.000382 L 261.00009 322.500212 L 259.000212 338.500269 L 259.500439 354.000098 L 259.500439 370.000155 L 257.499528 386.000212 L 257.000334 402.000269 L 257.000334 449.500212 L 256.500106 465.500269 L 258.499984 481.500326 L 268.500407 485.500081 L 300.999715 485.500081 L 316.999772 490.999487 L 332.999829 483.500203 L 348.999886 481.500326 L 365.500171 479.500448 " transform="matrix(3.779528,0,0,3.779528,0,0)"/>
<path style="fill:none;stroke-width:2;stroke-linecap:butt;stroke-linejoin:miter;stroke:rgb(0%,0%,0%);stroke-opacity:1;stroke-miterlimit:4;" d="M 293.999626 241.999699 L 275.999691 234.500415 " transform="matrix(3.779528,0,0,3.779528,0,0)"/>
<path style="fill:none;stroke-width:2;stroke-linecap:butt;stroke-linejoin:miter;stroke:rgb(0%,0%,0%);stroke-opacity:1;stroke-miterlimit:4;" d="M 269.499829 232.000309 L 285.499886 225.999642 L 301.499943 234.500415 " transform="matrix(3.779528,0,0,3.779528,0,0)"/>
<path style="fill:none;stroke-width:2;stroke-linecap:butt;stroke-linejoin:miter;stroke:rgb(0%,0%,0%);stroke-opacity:1;stroke-miterlimit:4;" d="M 259.500439 218.500358 L 251.499894 234.500415 L 250.999666 250.500472 " transform="matrix(3.779528,0,0,3.779528,0,0)"/>
<path style="fill:none;stroke-width:2;stroke-linecap:butt;stroke-linejoin:miter;stroke:rgb(0%,0%,0%);stroke-opacity:1;stroke-miterlimit:4;" d="M 218.500358 255.999878 L 226.49987 254 L 232.499504 238.500171 L 232.999731 222.500114 " transform="matrix(3.779528,0,0,3.779528,0,0)"/>
<path style="fill:none;stroke-width:2;stroke-linecap:butt;stroke-linejoin:miter;stroke:rgb(0%,0%,0%);stroke-opacity:1;stroke-miterlimit:4;" d="M 222.500114 218.500358 L 216.999674 234.500415 L 205.000407 244.499805 L 200.999618 259.999634 L 194.999984 275.999691 L 193.000106 291.49952 L 189.00035 307.499577 L 184.999561 323.000439 L 181.500033 339.000496 L 177.500277 354.99952 L 173.499487 371.499805 L 169.499731 387.499862 L 161.50022 403.499919 L 165.499976 413.999536 L 155.000358 430.499821 L 159.000114 434.499577 L 148.999691 450.999862 L 145.500163 466.999919 L 137.499618 484.999854 L 157.999658 502.499561 L 182.00026 506.50035 " transform="matrix(3.779528,0,0,3.779528,0,0)"/>
<path style="fill:none;stroke-width:2;stroke-linecap:butt;stroke-linejoin:miter;stroke:rgb(0%,0%,0%);stroke-opacity:1;stroke-miterlimit:4;" d="M 102.500203 472.500358 L 98.00022 460.500057 L 84.000041 464.499813 L 75.500301 446.499878 L 85.499691 431.000049 L 91.500358 414.999992 L 97.499992 398.999935 L 105.499504 383.500106 L 111.500171 368.000277 L 114.999699 358.500081 L 98.999642 394.499951 L 82.999585 434.499577 L 66.500334 456.500301 " transform="matrix(3.779528,0,0,3.779528,0,0)"/>
<path style="fill:none;stroke-width:2;stroke-linecap:butt;stroke-linejoin:miter;stroke:rgb(0%,0%,0%);stroke-opacity:1;stroke-miterlimit:4;" d="M 207.999707 237.499715 L 214.499569 221.499658 " transform="matrix(3.779528,0,0,3.779528,0,0)"/>
<path style="fill:none;stroke-width:2;stroke-linecap:butt;stroke-linejoin:miter;stroke:rgb(0%,0%,0%);stroke-opacity:1;stroke-miterlimit:4;" d="M 205.999829 220.000008 L 203.999951 236.000065 L 198.000317 246.000488 " transform="matrix(3.779528,0,0,3.779528,0,0)"/>
<path style="fill:none;stroke-width:2;stroke-linecap:butt;stroke-linejoin:miter;stroke:rgb(0%,0%,0%);stroke-opacity:1;stroke-miterlimit:4;" d="M 196.999862 267.499951 L 191.000228 250.000244 L 194.999984 234.500415 L 200.999618 218.500358 " transform="matrix(3.779528,0,0,3.779528,0,0)"/>
<path style="fill:none;stroke-width:2;stroke-linecap:butt;stroke-linejoin:miter;stroke:rgb(0%,0%,0%);stroke-opacity:1;stroke-miterlimit:4;" d="M 193.500334 218.500358 L 189.499544 234.500415 L 185.499788 250.500472 L 181.500033 266.499495 L 175.500399 282.499552 L 169.499731 298.000415 L 164.000326 314.000472 L 159.999536 329.999495 L 154.50013 345.999552 L 150.500374 361.999609 L 146.999813 377.500472 L 143.000057 393.499495 L 137.000423 409.499552 " transform="matrix(3.779528,0,0,3.779528,0,0)"/>
<path style="fill:none;stroke-width:2;stroke-linecap:butt;stroke-linejoin:miter;stroke:rgb(0%,0%,0%);stroke-opacity:1;stroke-miterlimit:4;" d="M 219.49978 501.500138 L 199.499967 501.500138 L 184.000138 497.500382 L 171.999837 509.000456 L 156.500008 503.500016 L 140.499951 491.499715 L 124.499894 491.999943 L 108.499837 490.500293 L 92.49978 478.499992 L 76.499723 472.00013 L 64.500456 463.999585 L 58.499788 456.000073 L 57.999561 450.000439 L 72.499967 440.000016 L 80.500513 423.499731 L 89.000252 407.499674 L 94.999886 391.999845 L 103.000431 375.999788 L 110.999943 359.999731 L 118.50026 343.999674 L 124.499894 327.999618 L 130.499528 311.500366 L 138.500073 295.500309 L 144.499707 280.00048 L 155.000358 264.000423 L 164.999748 248.000366 L 177.000049 232.499504 L 187.000472 216.50048 " transform="matrix(3.779528,0,0,3.779528,0,0)"/>
<path style="fill:none;stroke-width:2;stroke-linecap:butt;stroke-linejoin:miter;stroke:rgb(0%,0%,0%);stroke-opacity:1;stroke-miterlimit:4;" d="M 177.500277 211.500269 L 159.500342 227.500326 L 145.500163 243.500382 L 133.499862 259.000212 L 121.499561 275.000269 L 111.500171 290.500098 L 101.999976 306.500155 L 94.499658 321.999984 L 85.000496 338.000041 L 69.999862 370.000155 L 60.000472 386.000212 L 49.499821 402.000269 L 39.000203 417.500098 L 36.500098 433.500155 L 44.499609 450.000439 L 67.999984 465.500269 L 91.999552 481.500326 L 105.999731 477.000342 L 121.999788 479.500448 L 112.000399 485.500081 L 128.000456 485.500081 " transform="matrix(3.779528,0,0,3.779528,0,0)"/>
<path style="fill:none;stroke-width:2;stroke-linecap:butt;stroke-linejoin:miter;stroke:rgb(0%,0%,0%);stroke-opacity:1;stroke-miterlimit:4;" d="M 429.500399 506.50035 L 436.999683 490.000065 L 441.000472 472.00013 L 439.499788 456.000073 L 435.500033 439.499788 L 429.999593 423.499731 L 425.999837 407.00048 L 422.000081 391.000423 L 420.000203 375.000366 L 414.499764 359.499504 L 410.500008 343.50048 L 406.000024 327.999618 L 402.000269 311.999561 L 395.999601 295.500309 L 386.000212 279.500252 L 373.499683 263.500195 L 360.499959 247.500138 L 346.49978 231.500081 " transform="matrix(3.779528,0,0,3.779528,0,0)"/>
<path style="fill:none;stroke-width:2;stroke-linecap:butt;stroke-linejoin:miter;stroke:rgb(0%,0%,0%);stroke-opacity:1;stroke-miterlimit:4;" d="M 354.500326 214.999797 L 368.500505 230.499626 L 380.499772 246.499683 L 392.500073 262.49974 L 402.500496 278.499797 L 410.500008 294.499854 L 416.99987 310.49991 L 425.000415 326.499967 L 433.500155 341.999797 L 441.000472 357.999854 L 441.000472 374.500138 L 448.999984 377.999666 L 452.99974 388.00009 L 454.999618 403.499919 L 466.499691 421.499854 L 472.00013 437.49991 L 457.999951 453.499967 L 447.500334 469.500024 L 433.500155 485.500081 L 423.499731 488.000187 L 437.49991 490.000065 " transform="matrix(3.779528,0,0,3.779528,0,0)"/>
<path style="fill:none;stroke-width:2;stroke-linecap:butt;stroke-linejoin:miter;stroke:rgb(0%,0%,0%);stroke-opacity:1;stroke-miterlimit:4;" d="M 295.999504 211.500269 L 280.00048 205.999829 L 271.999935 189.999772 L 266.000301 173.499487 L 284.000236 157.500464 " transform="matrix(3.779528,0,0,3.779528,0,0)"/>
<path style="fill:none;stroke-width:2;stroke-linecap:butt;stroke-linejoin:miter;stroke:rgb(0%,0%,0%);stroke-opacity:1;stroke-miterlimit:4;" d="M 293.999626 153.00048 L 295.999504 167.499854 L 287.999992 179.500155 L 298.000415 195.500212 L 311.999561 211.500269 L 348.000464 221.499658 L 364.499715 239.499593 L 380.499772 259.500439 L 397.000057 285.499886 L 413.000114 321.999984 " transform="matrix(3.779528,0,0,3.779528,0,0)"/>
<path style="fill:none;stroke-width:2;stroke-linecap:butt;stroke-linejoin:miter;stroke:rgb(0%,0%,0%);stroke-opacity:1;stroke-miterlimit:4;" d="M 400.000391 284.500464 L 384.000334 258.499984 L 368.000277 236.000065 L 352.00022 218.00013 L 336.000163 207.500513 L 320.000106 223.499536 L 304.000049 227.99952 L 317.5 217.499902 L 305.499699 195.500212 L 319.499878 179.500155 L 325.99974 163.500098 L 293.999626 147.500041 " transform="matrix(3.779528,0,0,3.779528,0,0)"/>
<path style="fill:none;stroke-width:2;stroke-linecap:butt;stroke-linejoin:miter;stroke:rgb(0%,0%,0%);stroke-opacity:1;stroke-miterlimit:4;" d="M 286.999536 146.000391 L 271.499707 162.000448 L 262.999967 181.500033 L 269.499829 197.50009 L 263.500195 219.49978 L 266.000301 235.499837 L 270.000057 237.499715 L 278.499797 237.999943 L 288.50022 241.999699 L 296.999959 258.499984 L 300.999715 274.500041 L 307.000382 290.500098 L 309.00026 306.500155 L 313.000016 321.999984 L 316.999772 338.000041 L 318.99965 353.49987 L 320.999528 370.000155 L 323.000439 386.000212 L 325.000317 402.500496 " transform="matrix(3.779528,0,0,3.779528,0,0)"/>
<path style="fill:none;stroke-width:2;stroke-linecap:butt;stroke-linejoin:miter;stroke:rgb(0%,0%,0%);stroke-opacity:1;stroke-miterlimit:4;" d="M 363.999487 34.50022 L 348.000464 30.500464 " transform="matrix(3.779528,0,0,3.779528,0,0)"/>
<path style="fill:none;stroke-width:2;stroke-linecap:butt;stroke-linejoin:miter;stroke:rgb(0%,0%,0%);stroke-opacity:1;stroke-miterlimit:4;" d="M 215.500024 47.499943 L 199.499967 41.500309 " transform="matrix(3.779528,0,0,3.779528,0,0)"/>
</g>
</svg>
