<?xml version="1.0" encoding="UTF-8"?>
<svg xmlns="http://www.w3.org/2000/svg" xmlns:xlink="http://www.w3.org/1999/xlink" width="1935.11811" height="1935.11811" viewBox="0 0 1935.11811 1935.11811" version="1.1">
<g id="surface1">
<path style="fill:none;stroke-width:2;stroke-linecap:butt;stroke-linejoin:miter;stroke:rgb(0%,0%,0%);stroke-opacity:1;stroke-miterlimit:4;" d="M 261.500317 62.499544 L 239.499593 78.499601 " transform="matrix(3.779528,0,0,3.779528,0,0)"/>
<path style="fill:none;stroke-width:2;stroke-linecap:butt;stroke-linejoin:miter;stroke:rgb(0%,0%,0%);stroke-opacity:1;stroke-miterlimit:4;" d="M 257.000334 80.500513 L 273.000391 70.50009 L 289.000448 72.499967 L 305.499699 72.499967 L 321.499756 74.499845 L 325.499512 68.500212 L 334.999707 84.500269 L 381 106.499959 " transform="matrix(3.779528,0,0,3.779528,0,0)"/>
<path style="fill:none;stroke-width:2;stroke-linecap:butt;stroke-linejoin:miter;stroke:rgb(0%,0%,0%);stroke-opacity:1;stroke-miterlimit:4;" d="M 388.00009 89.000252 L 379.999544 93.500236 L 363.500293 82.000163 L 347.000008 73.500423 " transform="matrix(3.779528,0,0,3.779528,0,0)"/>
<path style="fill:none;stroke-width:2;stroke-linecap:butt;stroke-linejoin:miter;stroke:rgb(0%,0%,0%);stroke-opacity:1;stroke-miterlimit:4;" d="M 343.000252 71.99974 L 359.000309 71.499512 L 375.000366 77.500179 L 391.000423 83.499813 L 400.999813 89.50048 L 410.500008 105.999731 L 414.499764 122.500016 " transform="matrix(3.779528,0,0,3.779528,0,0)"/>
<path style="fill:none;stroke-width:2;stroke-linecap:butt;stroke-linejoin:miter;stroke:rgb(0%,0%,0%);stroke-opacity:1;stroke-miterlimit:4;" d="M 363.500293 104.500081 L 347.000008 104.500081 L 330.499723 102.500203 L 314.499666 109.000065 " transform="matrix(3.779528,0,0,3.779528,0,0)"/>
<path style="fill:none;stroke-width:2;stroke-linecap:butt;stroke-linejoin:miter;stroke:rgb(0%,0%,0%);stroke-opacity:1;stroke-miterlimit:4;" d="M 284.000236 137.499618 L 300.000293 137.499618 L 316.00035 134.999512 L 332.000407 130.999756 L 348.499658 131.499984 L 364.499715 131.499984 L 380.499772 130.999756 L 396.499829 130.999756 L 412.499886 128.999878 L 428.499943 123.500472 " transform="matrix(3.779528,0,0,3.779528,0,0)"/>
<path style="fill:none;stroke-width:2;stroke-linecap:butt;stroke-linejoin:miter;stroke:rgb(0%,0%,0%);stroke-opacity:1;stroke-miterlimit:4;" d="M 370.999577 98.999642 L 354.99952 91.00013 L 339.000496 87.000374 L 323.000439 78.999829 L 307.000382 94.999886 L 290.500098 103.499626 L 274.500041 96.999764 L 274.500041 89.000252 L 258.499984 87.000374 " transform="matrix(3.779528,0,0,3.779528,0,0)"/>
<path style="fill:none;stroke-width:2;stroke-linecap:butt;stroke-linejoin:miter;stroke:rgb(0%,0%,0%);stroke-opacity:1;stroke-miterlimit:4;" d="M 255.49965 85.000496 L 265.500073 69.000439 " transform="matrix(3.779528,0,0,3.779528,0,0)"/>
<path style="fill:none;stroke-width:2;stroke-linecap:butt;stroke-linejoin:miter;stroke:rgb(0%,0%,0%);stroke-opacity:1;stroke-miterlimit:4;" d="M 332.499601 70.50009 L 348.499658 69.999862 L 382.49965 75.500301 L 412.499886 91.500358 L 420.000203 96.999764 L 432.000505 111.500171 L 441.499666 127.500228 L 445.500456 143.500285 L 449.500212 159.999536 L 452.000317 175.999593 L 452.000317 191.99965 L 454.000195 208.499935 L 456.000073 224.499992 L 452.000317 256.500106 L 441.999894 271.999935 L 430.499821 277.500374 L 426.500065 289.499642 L 400.499585 305.499699 L 384.499528 301.499943 L 400.999813 293.500431 L 416.99987 289.499642 L 422.500309 283.500008 L 434.499577 279.500252 L 444.5 277.999569 L 459.999829 284.000236 L 475.999886 305.999927 L 485.500081 336.500391 " transform="matrix(3.779528,0,0,3.779528,0,0)"/>
<path style="fill:none;stroke-width:2;stroke-linecap:butt;stroke-linejoin:miter;stroke:rgb(0%,0%,0%);stroke-opacity:1;stroke-miterlimit:4;" d="M 481.500326 326.499967 L 465.500269 304.500277 L 449.500212 278.499797 " transform="matrix(3.779528,0,0,3.779528,0,0)"/>
<path style="fill:none;stroke-width:2;stroke-linecap:butt;stroke-linejoin:miter;stroke:rgb(0%,0%,0%);stroke-opacity:1;stroke-miterlimit:4;" d="M 452.499512 272.500163 L 461.000285 288.50022 L 470.999674 304.500277 L 482.999976 320.500334 " transform="matrix(3.779528,0,0,3.779528,0,0)"/>
<path style="fill:none;stroke-width:2;stroke-linecap:butt;stroke-linejoin:miter;stroke:rgb(0%,0%,0%);stroke-opacity:1;stroke-miterlimit:4;" d="M 491.499715 300.000293 L 475.499658 284.000236 L 459.499601 270.000057 " transform="matrix(3.779528,0,0,3.779528,0,0)"/>
<path style="fill:none;stroke-width:2;stroke-linecap:butt;stroke-linejoin:miter;stroke:rgb(0%,0%,0%);stroke-opacity:1;stroke-miterlimit:4;" d="M 456.000073 264.999845 L 456.500301 266.499495 L 470.999674 282.99978 L 488.999609 298.999837 L 501.500138 314.999894 L 502.000366 331.500179 L 492.500171 347.000008 L 470.50048 363.000065 L 431.000049 378.499894 " transform="matrix(3.779528,0,0,3.779528,0,0)"/>
<path style="fill:none;stroke-width:2;stroke-linecap:butt;stroke-linejoin:miter;stroke:rgb(0%,0%,0%);stroke-opacity:1;stroke-miterlimit:4;" d="M 500.499683 352.999642 L 484.999854 365.500171 L 466.999919 379.50035 L 450.499634 387.499862 L 434.499577 399.500163 L 418.49952 405.499797 L 402.500496 409.499552 L 384.999756 407.499674 L 368.999699 418.000326 L 352.999642 420.000203 L 334.999707 416.499642 L 318.500456 426.500065 L 302.500399 427.000293 L 270.000057 427.000293 " transform="matrix(3.779528,0,0,3.779528,0,0)"/>
<path style="fill:none;stroke-width:2;stroke-linecap:butt;stroke-linejoin:miter;stroke:rgb(0%,0%,0%);stroke-opacity:1;stroke-miterlimit:4;" d="M 243.500382 420.000203 L 227.99952 420.000203 L 212.000496 424.500187 L 196.000439 422.000081 " transform="matrix(3.779528,0,0,3.779528,0,0)"/>
<path style="fill:none;stroke-width:2;stroke-linecap:butt;stroke-linejoin:miter;stroke:rgb(0%,0%,0%);stroke-opacity:1;stroke-miterlimit:4;" d="M 134.999512 372.000033 L 137.000423 355.999976 " transform="matrix(3.779528,0,0,3.779528,0,0)"/>
<path style="fill:none;stroke-width:2;stroke-linecap:butt;stroke-linejoin:miter;stroke:rgb(0%,0%,0%);stroke-opacity:1;stroke-miterlimit:4;" d="M 128.49965 379.50035 L 128.49965 343.50048 L 132.999634 327.500423 L 130.999756 311.500366 L 119.000488 295.500309 L 105.000309 280.00048 L 77.500179 250.000244 " transform="matrix(3.779528,0,0,3.779528,0,0)"/>
<path style="fill:none;stroke-width:2;stroke-linecap:butt;stroke-linejoin:miter;stroke:rgb(0%,0%,0%);stroke-opacity:1;stroke-miterlimit:4;" d="M 81.499935 243.999577 L 97.499992 268.000179 L 112.999821 286.500342 L 128.999878 306.500155 " transform="matrix(3.779528,0,0,3.779528,0,0)"/>
<path style="fill:none;stroke-width:2;stroke-linecap:butt;stroke-linejoin:miter;stroke:rgb(0%,0%,0%);stroke-opacity:1;stroke-miterlimit:4;" d="M 112.000399 313.500244 L 109.999487 296.999959 L 91.999552 268.999601 " transform="matrix(3.779528,0,0,3.779528,0,0)"/>
<path style="fill:none;stroke-width:2;stroke-linecap:butt;stroke-linejoin:miter;stroke:rgb(0%,0%,0%);stroke-opacity:1;stroke-miterlimit:4;" d="M 86.500146 240.500049 L 102.500203 264.499618 L 118.50026 277.999569 L 134.500317 287.999992 L 150.500374 293.999626 L 166.500431 300.000293 L 182.00026 304.000049 L 198.000317 309.500488 L 214.000374 313.500244 L 230.000431 316.00035 L 246.000488 311.999561 L 261.999512 314.000472 " transform="matrix(3.779528,0,0,3.779528,0,0)"/>
<path style="fill:none;stroke-width:2;stroke-linecap:butt;stroke-linejoin:miter;stroke:rgb(0%,0%,0%);stroke-opacity:1;stroke-miterlimit:4;" d="M 235.499837 318.500456 L 266.999723 318.500456 L 282.499552 314.000472 L 298.000415 302.000171 L 316.00035 289.499642 L 309.500488 295.500309 L 323.499634 285.499886 L 311.500366 301.499943 " transform="matrix(3.779528,0,0,3.779528,0,0)"/>
<path style="fill:none;stroke-width:2;stroke-linecap:butt;stroke-linejoin:miter;stroke:rgb(0%,0%,0%);stroke-opacity:1;stroke-miterlimit:4;" d="M 280.999902 300.499487 L 280.999902 284.500464 " transform="matrix(3.779528,0,0,3.779528,0,0)"/>
<path style="fill:none;stroke-width:2;stroke-linecap:butt;stroke-linejoin:miter;stroke:rgb(0%,0%,0%);stroke-opacity:1;stroke-miterlimit:4;" d="M 277.000146 284.500464 L 277.000146 300.499487 L 284.500464 318.500456 L 316.499544 318.500456 L 332.499601 314.499666 " transform="matrix(3.779528,0,0,3.779528,0,0)"/>
<path style="fill:none;stroke-width:2;stroke-linecap:butt;stroke-linejoin:miter;stroke:rgb(0%,0%,0%);stroke-opacity:1;stroke-miterlimit:4;" d="M 345.999552 318.99965 L 329.500301 325.000317 L 333.500057 323.499634 L 339.499691 299.500065 L 345.999552 297.500187 L 339.999919 281.50013 L 355.999976 266.000301 L 345.999552 280.499674 " transform="matrix(3.779528,0,0,3.779528,0,0)"/>
<path style="fill:none;stroke-width:2;stroke-linecap:butt;stroke-linejoin:miter;stroke:rgb(0%,0%,0%);stroke-opacity:1;stroke-miterlimit:4;" d="M 353.49987 291.000326 L 370.000155 286.999536 L 366.000399 282.499552 " transform="matrix(3.779528,0,0,3.779528,0,0)"/>
<path style="fill:none;stroke-width:2;stroke-linecap:butt;stroke-linejoin:miter;stroke:rgb(0%,0%,0%);stroke-opacity:1;stroke-miterlimit:4;" d="M 373.99991 277.000146 L 389.999967 264.999845 L 406.500252 261.00009 L 427.999715 261.00009 L 422.000081 277.000146 " transform="matrix(3.779528,0,0,3.779528,0,0)"/>
<path style="fill:none;stroke-width:2;stroke-linecap:butt;stroke-linejoin:miter;stroke:rgb(0%,0%,0%);stroke-opacity:1;stroke-miterlimit:4;" d="M 422.500309 253.499772 L 406.500252 253.499772 " transform="matrix(3.779528,0,0,3.779528,0,0)"/>
<path style="fill:none;stroke-width:2;stroke-linecap:butt;stroke-linejoin:miter;stroke:rgb(0%,0%,0%);stroke-opacity:1;stroke-miterlimit:4;" d="M 393.999723 263.500195 L 388.500317 269.499829 L 380.499772 273.499585 L 382.49965 289.99987 L 382.49965 295.999504 L 368.500505 304.000049 L 384.499528 295.999504 L 400.499585 287.999992 L 409.99978 279.500252 L 399.500163 281.50013 L 411.500464 291.000326 L 419.499976 313.000016 L 429.500399 329.999495 " transform="matrix(3.779528,0,0,3.779528,0,0)"/>
<path style="fill:none;stroke-width:2;stroke-linecap:butt;stroke-linejoin:miter;stroke:rgb(0%,0%,0%);stroke-opacity:1;stroke-miterlimit:4;" d="M 443.999772 333.500057 L 441.999894 317.5 L 441.999894 301.499943 L 450.499634 291.49952 L 446.499878 275.500496 L 456.500301 259.500439 L 460.500057 251.499894 L 460.500057 203.499723 L 458.500179 187.499666 L 454.500423 156.500008 L 452.000317 140.499951 L 445.99965 124.499894 L 446.499878 120.500138 L 430.499821 104.500081 L 414.499764 92.49978 L 398.499707 82.500391 L 382.49965 76.999951 L 366.999821 70.50009 L 350.499536 66.500334 L 334.500513 62.00035 L 318.500456 60.499666 L 302.500399 57.999561 L 286.000114 55.999683 L 270.000057 55.999683 L 254 57.999561 L 238.500171 57.500366 L 222.500114 60.000472 L 206.500057 62.00035 L 189.999772 64.500456 L 173.999715 66.500334 L 157.999658 72.499967 L 141.999601 75.999495 L 125.999544 82.000163 L 109.500293 94.000464 L 93.500236 125.999544 " transform="matrix(3.779528,0,0,3.779528,0,0)"/>
<path style="fill:none;stroke-width:2;stroke-linecap:butt;stroke-linejoin:miter;stroke:rgb(0%,0%,0%);stroke-opacity:1;stroke-miterlimit:4;" d="M 100.99952 135.49974 L 109.000065 115.499927 L 103.000431 132.000212 L 93.500236 144.499707 L 109.999487 114.500505 L 118.50026 94.999886 L 134.500317 90.499902 L 150.500374 84.500269 L 166.999626 78.499601 L 183.49991 74.499845 L 199.499967 74.499845 " transform="matrix(3.779528,0,0,3.779528,0,0)"/>
<path style="fill:none;stroke-width:2;stroke-linecap:butt;stroke-linejoin:miter;stroke:rgb(0%,0%,0%);stroke-opacity:1;stroke-miterlimit:4;" d="M 202.500301 100.99952 L 234.500415 116.500382 " transform="matrix(3.779528,0,0,3.779528,0,0)"/>
<path style="fill:none;stroke-width:2;stroke-linecap:butt;stroke-linejoin:miter;stroke:rgb(0%,0%,0%);stroke-opacity:1;stroke-miterlimit:4;" d="M 247.500138 137.999845 L 232.000309 137.999845 L 230.000431 130.499528 L 214.000374 130.499528 L 197.50009 125.000122 L 181.500033 120.500138 L 165.499976 116.500382 L 149.499919 112.000399 L 133.499862 103.000431 L 117.499805 98.999642 " transform="matrix(3.779528,0,0,3.779528,0,0)"/>
<path style="fill:none;stroke-width:2;stroke-linecap:butt;stroke-linejoin:miter;stroke:rgb(0%,0%,0%);stroke-opacity:1;stroke-miterlimit:4;" d="M 125.50035 101.499748 L 131.499984 117.499805 L 133.499862 133.499862 " transform="matrix(3.779528,0,0,3.779528,0,0)"/>
<path style="fill:none;stroke-width:2;stroke-linecap:butt;stroke-linejoin:miter;stroke:rgb(0%,0%,0%);stroke-opacity:1;stroke-miterlimit:4;" d="M 136.500195 143.000057 L 140.499951 127 L 141.000179 120.500138 L 125.000122 106.499959 " transform="matrix(3.779528,0,0,3.779528,0,0)"/>
<path style="fill:none;stroke-width:2;stroke-linecap:butt;stroke-linejoin:miter;stroke:rgb(0%,0%,0%);stroke-opacity:1;stroke-miterlimit:4;" d="M 133.499862 96.000342 L 149.499919 94.000464 L 165.499976 87.999797 L 182.00026 83.499813 L 214.499569 83.499813 L 246.499683 75.500301 L 261.999512 61.500122 L 293.500431 61.500122 " transform="matrix(3.779528,0,0,3.779528,0,0)"/>
<path style="fill:none;stroke-width:2;stroke-linecap:butt;stroke-linejoin:miter;stroke:rgb(0%,0%,0%);stroke-opacity:1;stroke-miterlimit:4;" d="M 339.000496 71.99974 L 369.499927 87.999797 L 375.000366 115.499927 L 391.499618 111.500171 L 409.499552 95.500114 L 418.000326 109.500293 L 438.000138 119.499683 " transform="matrix(3.779528,0,0,3.779528,0,0)"/>
<path style="fill:none;stroke-width:2;stroke-linecap:butt;stroke-linejoin:miter;stroke:rgb(0%,0%,0%);stroke-opacity:1;stroke-miterlimit:4;" d="M 391.499618 103.999854 L 379.50035 105.999731 L 363.999487 114.000277 L 348.499658 118.000033 L 332.499601 119.499683 L 316.499544 119.499683 L 300.499487 121.499561 L 284.500464 119.499683 L 268.500407 114.999699 L 252.50035 109.000065 L 236.500293 105.000309 L 220.500236 105.000309 L 204.500179 98.500448 L 187.999894 92.49978 L 171.999837 90.499902 " transform="matrix(3.779528,0,0,3.779528,0,0)"/>
<path style="fill:none;stroke-width:2;stroke-linecap:butt;stroke-linejoin:miter;stroke:rgb(0%,0%,0%);stroke-opacity:1;stroke-miterlimit:4;" d="M 159.999536 87.499569 L 144.000513 109.500293 L 153.999902 105.999731 L 169.999959 105.999731 L 186.000016 113.500049 L 202.500301 117.499805 L 218.00013 121.499561 L 230.000431 123.500472 L 246.000488 125.50035 L 262.49974 127.500228 L 279.000024 127.500228 L 294.499854 128.000456 L 311.000138 125.999544 L 359.000309 125.999544 L 375.000366 126.499772 L 390.500195 124.499894 L 406.500252 124.499894 L 422.500309 121.000366 " transform="matrix(3.779528,0,0,3.779528,0,0)"/>
<path style="fill:none;stroke-width:2;stroke-linecap:butt;stroke-linejoin:miter;stroke:rgb(0%,0%,0%);stroke-opacity:1;stroke-miterlimit:4;" d="M 370.000155 159.999536 L 367.500049 175.999593 " transform="matrix(3.779528,0,0,3.779528,0,0)"/>
<path style="fill:none;stroke-width:2;stroke-linecap:butt;stroke-linejoin:miter;stroke:rgb(0%,0%,0%);stroke-opacity:1;stroke-miterlimit:4;" d="M 359.999731 180.499577 L 363.999487 164.49952 L 363.999487 160.499764 " transform="matrix(3.779528,0,0,3.779528,0,0)"/>
<path style="fill:none;stroke-width:2;stroke-linecap:butt;stroke-linejoin:miter;stroke:rgb(0%,0%,0%);stroke-opacity:1;stroke-miterlimit:4;" d="M 329.000073 160.499764 L 323.000439 176.499821 L 320.999528 191.99965 L 320.999528 207.999707 L 322.500212 223.999764 L 330.499723 239.499593 L 320.500334 255.49965 L 308.500033 273.999813 L 306.500155 289.99987 L 296.999959 305.999927 L 311.000138 311.999561 L 327.000195 309.999683 L 336.999585 289.499642 L 352.500448 263.500195 L 356.500203 266.000301 L 372.000033 259.999634 L 388.500317 255.999878 L 390.500195 255.999878 L 406.500252 248.000366 L 422.500309 248.499561 L 444.5 270.500285 L 462.499935 252.000122 L 478.499992 263.500195 L 494.500049 277.500374 L 509.999878 296.999959 L 509.999878 315.500122 " transform="matrix(3.779528,0,0,3.779528,0,0)"/>
<path style="fill:none;stroke-width:2;stroke-linecap:butt;stroke-linejoin:miter;stroke:rgb(0%,0%,0%);stroke-opacity:1;stroke-miterlimit:4;" d="M 506.50035 329.000073 L 490.000065 352.999642 L 474.500236 366.999821 L 458.500179 373.499683 L 442.500122 379.50035 L 426.500065 385.499984 L 411.000236 389.49974 L 394.499951 393.999723 L 378.499894 398.000513 L 361.999609 402.000269 L 345.999552 404.000146 L 330.499723 406.000024 L 314.499666 407.499674 L 298.499609 407.499674 L 282.000358 409.499552 L 266.000301 409.000358 L 249.500016 407.499674 L 233.499959 407.999902 L 169.499731 400.000391 L 153.499674 395.999601 L 137.000423 391.999845 L 121.000366 388.00009 L 105.000309 382.000456 L 89.000252 375.499561 L 73.000195 367.500049 L 62.999772 349.500114 L 75.500301 334.000285 L 66.000106 352.00022 " transform="matrix(3.779528,0,0,3.779528,0,0)"/>
<path style="fill:none;stroke-width:2;stroke-linecap:butt;stroke-linejoin:miter;stroke:rgb(0%,0%,0%);stroke-opacity:1;stroke-miterlimit:4;" d="M 67.499756 341.499569 L 47.499943 345.00013 L 31.499886 336.999585 L 15.499829 305.000505 " transform="matrix(3.779528,0,0,3.779528,0,0)"/>
<path style="fill:none;stroke-width:2;stroke-linecap:butt;stroke-linejoin:miter;stroke:rgb(0%,0%,0%);stroke-opacity:1;stroke-miterlimit:4;" d="M 14.999601 300.000293 L 21.000269 315.500122 L 26.999902 331.500179 L 41.000081 348.000464 L 55.00026 364.499715 L 85.000496 374.500138 L 127 390.500195 " transform="matrix(3.779528,0,0,3.779528,0,0)"/>
<path style="fill:none;stroke-width:2;stroke-linecap:butt;stroke-linejoin:miter;stroke:rgb(0%,0%,0%);stroke-opacity:1;stroke-miterlimit:4;" d="M 105.999731 399.500163 L 89.999674 393.499495 " transform="matrix(3.779528,0,0,3.779528,0,0)"/>
<path style="fill:none;stroke-width:2;stroke-linecap:butt;stroke-linejoin:miter;stroke:rgb(0%,0%,0%);stroke-opacity:1;stroke-miterlimit:4;" d="M 105.999731 393.499495 L 89.999674 386.999634 L 80.000285 388.999512 L 62.00035 379.000122 L 56.49991 375.499561 L 41.000081 365.500171 L 25.000024 347.500236 L 8.999967 315.500122 " transform="matrix(3.779528,0,0,3.779528,0,0)"/>
<path style="fill:none;stroke-width:2;stroke-linecap:butt;stroke-linejoin:miter;stroke:rgb(0%,0%,0%);stroke-opacity:1;stroke-miterlimit:4;" d="M 12.000301 311.500366 L 28.000358 343.50048 L 44.000415 361.000187 " transform="matrix(3.779528,0,0,3.779528,0,0)"/>
<path style="fill:none;stroke-width:2;stroke-linecap:butt;stroke-linejoin:miter;stroke:rgb(0%,0%,0%);stroke-opacity:1;stroke-miterlimit:4;" d="M 89.999674 355.999976 L 91.999552 339.999919 " transform="matrix(3.779528,0,0,3.779528,0,0)"/>
<path style="fill:none;stroke-width:2;stroke-linecap:butt;stroke-linejoin:miter;stroke:rgb(0%,0%,0%);stroke-opacity:1;stroke-miterlimit:4;" d="M 87.000374 339.499691 L 82.999585 355.499748 " transform="matrix(3.779528,0,0,3.779528,0,0)"/>
<path style="fill:none;stroke-width:2;stroke-linecap:butt;stroke-linejoin:miter;stroke:rgb(0%,0%,0%);stroke-opacity:1;stroke-miterlimit:4;" d="M 80.999707 314.999894 L 82.999585 298.999837 L 89.000252 282.499552 L 82.999585 266.000301 L 77.500179 249.500016 L 67.499756 248.999788 L 55.500488 260.499862 L 39.500431 282.000358 " transform="matrix(3.779528,0,0,3.779528,0,0)"/>
<path style="fill:none;stroke-width:2;stroke-linecap:butt;stroke-linejoin:miter;stroke:rgb(0%,0%,0%);stroke-opacity:1;stroke-miterlimit:4;" d="M 36.500098 279.000024 L 51.999927 257.499528 L 64.000228 245.50026 L 50.000049 261.999512 L 38.499976 277.999569 L 34.50022 294.499854 L 36.500098 320.999528 L 33.999992 332.999829 L 51.499699 357.000431 L 67.499756 360.499959 L 83.499813 368.500505 L 115.499927 380.499772 L 131.499984 386.500439 L 147.500041 389.999967 L 164.000326 393.999723 L 180.499577 395.999601 L 196.499634 397.500285 L 212.499691 400.000391 L 228.999976 402.000269 L 245.000033 404.000146 L 309.00026 404.000146 L 357.000431 398.000513 L 373.000488 393.999723 L 388.999512 389.999967 L 404.500374 386.000212 L 420.999626 382.000456 L 436.999683 375.999788 L 452.99974 370.000155 L 468.999797 364.499715 L 484.999854 352.500448 L 500.99991 332.499601 L 508.500228 344.499902 L 493.999821 360.499959 L 475.499658 374.500138 L 445.500456 390.500195 " transform="matrix(3.779528,0,0,3.779528,0,0)"/>
<path style="fill:none;stroke-width:2;stroke-linecap:butt;stroke-linejoin:miter;stroke:rgb(0%,0%,0%);stroke-opacity:1;stroke-miterlimit:4;" d="M 450.999862 393.999723 L 481.500326 377.999666 L 501.500138 361.999609 L 513.500439 345.999552 " transform="matrix(3.779528,0,0,3.779528,0,0)"/>
<path style="fill:none;stroke-width:2;stroke-linecap:butt;stroke-linejoin:miter;stroke:rgb(0%,0%,0%);stroke-opacity:1;stroke-miterlimit:4;" d="M 450.999862 338.000041 L 448.499756 321.999984 L 447.000106 305.499699 " transform="matrix(3.779528,0,0,3.779528,0,0)"/>
<path style="fill:none;stroke-width:2;stroke-linecap:butt;stroke-linejoin:miter;stroke:rgb(0%,0%,0%);stroke-opacity:1;stroke-miterlimit:4;" d="M 456.000073 290.500098 L 468.000374 306.500155 L 477.999764 321.999984 L 490.000065 338.000041 " transform="matrix(3.779528,0,0,3.779528,0,0)"/>
<path style="fill:none;stroke-width:2;stroke-linecap:butt;stroke-linejoin:miter;stroke:rgb(0%,0%,0%);stroke-opacity:1;stroke-miterlimit:4;" d="M 445.000228 377.500472 L 482.999976 361.500415 L 499.000033 345.500358 L 506.999544 329.500301 L 509.000456 313.500244 L 497.000155 296.999959 L 482.999976 280.499674 L 462.499935 264.499618 " transform="matrix(3.779528,0,0,3.779528,0,0)"/>
<path style="fill:none;stroke-width:2;stroke-linecap:butt;stroke-linejoin:miter;stroke:rgb(0%,0%,0%);stroke-opacity:1;stroke-miterlimit:4;" d="M 417.500098 296.999959 L 402.000269 305.000505 L 386.000212 314.499666 " transform="matrix(3.779528,0,0,3.779528,0,0)"/>
<path style="fill:none;stroke-width:2;stroke-linecap:butt;stroke-linejoin:miter;stroke:rgb(0%,0%,0%);stroke-opacity:1;stroke-miterlimit:4;" d="M 398.000513 273.499585 L 377.999666 269.499829 L 373.99991 265.500073 L 355.999976 297.500187 L 350.000342 279.500252 L 361.999609 301.499943 L 379.50035 285.499886 L 367.500049 269.499829 " transform="matrix(3.779528,0,0,3.779528,0,0)"/>
<path style="fill:none;stroke-width:2;stroke-linecap:butt;stroke-linejoin:miter;stroke:rgb(0%,0%,0%);stroke-opacity:1;stroke-miterlimit:4;" d="M 366.499593 253.499772 L 346.49978 269.499829 L 357.499626 283.500008 L 334.000285 295.500309 L 350.000342 305.499699 L 366.000399 300.000293 L 382.000456 289.99987 " transform="matrix(3.779528,0,0,3.779528,0,0)"/>
<path style="fill:none;stroke-width:2;stroke-linecap:butt;stroke-linejoin:miter;stroke:rgb(0%,0%,0%);stroke-opacity:1;stroke-miterlimit:4;" d="M 352.500448 238.500171 L 360.499959 222.500114 " transform="matrix(3.779528,0,0,3.779528,0,0)"/>
<path style="fill:none;stroke-width:2;stroke-linecap:butt;stroke-linejoin:miter;stroke:rgb(0%,0%,0%);stroke-opacity:1;stroke-miterlimit:4;" d="M 357.000431 218.500358 L 348.499658 234.500415 L 356.500203 218.00013 " transform="matrix(3.779528,0,0,3.779528,0,0)"/>
<path style="fill:none;stroke-width:2;stroke-linecap:butt;stroke-linejoin:miter;stroke:rgb(0%,0%,0%);stroke-opacity:1;stroke-miterlimit:4;" d="M 332.499601 232.499504 L 324.50009 254.500228 L 324.50009 240.500049 L 318.500456 224.499992 L 314.499666 208.499935 " transform="matrix(3.779528,0,0,3.779528,0,0)"/>
<path style="fill:none;stroke-width:2;stroke-linecap:butt;stroke-linejoin:miter;stroke:rgb(0%,0%,0%);stroke-opacity:1;stroke-miterlimit:4;" d="M 303.499821 214.000374 L 309.500488 207.500513 L 305.499699 223.499536 L 301.499943 239.499593 " transform="matrix(3.779528,0,0,3.779528,0,0)"/>
<path style="fill:none;stroke-width:2;stroke-linecap:butt;stroke-linejoin:miter;stroke:rgb(0%,0%,0%);stroke-opacity:1;stroke-miterlimit:4;" d="M 257.000334 214.999797 L 241.000277 230.999854 " transform="matrix(3.779528,0,0,3.779528,0,0)"/>
<path style="fill:none;stroke-width:2;stroke-linecap:butt;stroke-linejoin:miter;stroke:rgb(0%,0%,0%);stroke-opacity:1;stroke-miterlimit:4;" d="M 226.49987 230.000431 L 234.500415 221.999886 L 228.499748 227.500326 L 221.999886 243.000155 L 220.000008 259.000212 " transform="matrix(3.779528,0,0,3.779528,0,0)"/>
<path style="fill:none;stroke-width:2;stroke-linecap:butt;stroke-linejoin:miter;stroke:rgb(0%,0%,0%);stroke-opacity:1;stroke-miterlimit:4;" d="M 186.500244 257.000334 L 184.500366 273.499585 L 189.999772 289.499642 " transform="matrix(3.779528,0,0,3.779528,0,0)"/>
<path style="fill:none;stroke-width:2;stroke-linecap:butt;stroke-linejoin:miter;stroke:rgb(0%,0%,0%);stroke-opacity:1;stroke-miterlimit:4;" d="M 185.499788 283.500008 L 181.500033 287.499764 L 179.500155 271.000513 L 181.500033 255.000456 " transform="matrix(3.779528,0,0,3.779528,0,0)"/>
<path style="fill:none;stroke-width:2;stroke-linecap:butt;stroke-linejoin:miter;stroke:rgb(0%,0%,0%);stroke-opacity:1;stroke-miterlimit:4;" d="M 131.499984 282.99978 L 114.999699 273.000391 L 98.999642 254.500228 L 82.999585 234.500415 L 61.500122 234.000187 L 45.500065 239.499593 L 31.499886 253.499772 L 15.499829 273.499585 " transform="matrix(3.779528,0,0,3.779528,0,0)"/>
<path style="fill:none;stroke-width:2;stroke-linecap:butt;stroke-linejoin:miter;stroke:rgb(0%,0%,0%);stroke-opacity:1;stroke-miterlimit:4;" d="M 8.999967 280.00048 L 25.000024 249.500016 L 41.000081 236.999487 L 57.000138 225.00022 L 73.000195 211.000041 " transform="matrix(3.779528,0,0,3.779528,0,0)"/>
<path style="fill:none;stroke-width:2;stroke-linecap:butt;stroke-linejoin:miter;stroke:rgb(0%,0%,0%);stroke-opacity:1;stroke-miterlimit:4;" d="M 73.999618 227.000098 L 57.999561 243.000155 L 37.49952 259.000212 L 25.500252 275.000269 L 19.499585 291.000326 L 21.500496 307.000382 L 26.999902 322.500212 L 41.000081 340.500146 L 61.500122 355.999976 L 93.500236 372.000033 " transform="matrix(3.779528,0,0,3.779528,0,0)"/>
<path style="fill:none;stroke-width:2;stroke-linecap:butt;stroke-linejoin:miter;stroke:rgb(0%,0%,0%);stroke-opacity:1;stroke-miterlimit:4;" d="M 35.99987 305.999927 L 19.999813 302.500399 " transform="matrix(3.779528,0,0,3.779528,0,0)"/>
<path style="fill:none;stroke-width:2;stroke-linecap:butt;stroke-linejoin:miter;stroke:rgb(0%,0%,0%);stroke-opacity:1;stroke-miterlimit:4;" d="M 19.499585 284.000236 L 35.499642 259.999634 L 51.499699 246.499683 L 67.499756 236.500293 L 80.000285 236.999487 L 84.000041 252.999544 L 96.000342 269.499829 L 100.000098 285.499886 L 105.999731 300.999715 L 105.999731 316.999772 " transform="matrix(3.779528,0,0,3.779528,0,0)"/>
<path style="fill:none;stroke-width:2;stroke-linecap:butt;stroke-linejoin:miter;stroke:rgb(0%,0%,0%);stroke-opacity:1;stroke-miterlimit:4;" d="M 47.499943 321.999984 L 39.999626 314.000472 L 39.999626 285.499886 L 47.499943 269.499829 L 63.5 253.499772 " transform="matrix(3.779528,0,0,3.779528,0,0)"/>
<path style="fill:none;stroke-width:2;stroke-linecap:butt;stroke-linejoin:miter;stroke:rgb(0%,0%,0%);stroke-opacity:1;stroke-miterlimit:4;" d="M 82.999585 234.000187 L 89.000252 249.500016 L 101.499748 265.500073 L 121.999788 281.50013 L 160.499764 297.500187 " transform="matrix(3.779528,0,0,3.779528,0,0)"/>
<path style="fill:none;stroke-width:2;stroke-linecap:butt;stroke-linejoin:miter;stroke:rgb(0%,0%,0%);stroke-opacity:1;stroke-miterlimit:4;" d="M 194.999984 342.500024 L 205.000407 357.999854 " transform="matrix(3.779528,0,0,3.779528,0,0)"/>
<path style="fill:none;stroke-width:2;stroke-linecap:butt;stroke-linejoin:miter;stroke:rgb(0%,0%,0%);stroke-opacity:1;stroke-miterlimit:4;" d="M 121.499561 276.499919 L 103.499626 260.499862 L 93.500236 244.499805 L 85.499691 228.499748 " transform="matrix(3.779528,0,0,3.779528,0,0)"/>
<path style="fill:none;stroke-width:2;stroke-linecap:butt;stroke-linejoin:miter;stroke:rgb(0%,0%,0%);stroke-opacity:1;stroke-miterlimit:4;" d="M 178.999927 209.500391 L 184.999561 203.999951 L 191.000228 188.500122 L 200.999618 172.500065 " transform="matrix(3.779528,0,0,3.779528,0,0)"/>
<path style="fill:none;stroke-width:2;stroke-linecap:butt;stroke-linejoin:miter;stroke:rgb(0%,0%,0%);stroke-opacity:1;stroke-miterlimit:4;" d="M 197.50009 172.500065 L 187.499666 188.500122 L 179.500155 204.500179 L 173.499487 208.499935 L 189.499544 182.500488 " transform="matrix(3.779528,0,0,3.779528,0,0)"/>
<path style="fill:none;stroke-width:2;stroke-linecap:butt;stroke-linejoin:miter;stroke:rgb(0%,0%,0%);stroke-opacity:1;stroke-miterlimit:4;" d="M 268.500407 182.500488 L 264.999845 198.499512 L 250.999666 214.499569 L 234.999609 230.000431 L 228.999976 236.000065 L 225.00022 251.499894 L 223.000342 267.499951 " transform="matrix(3.779528,0,0,3.779528,0,0)"/>
<path style="fill:none;stroke-width:2;stroke-linecap:butt;stroke-linejoin:miter;stroke:rgb(0%,0%,0%);stroke-opacity:1;stroke-miterlimit:4;" d="M 272.500163 189.499544 L 266.000301 205.499601 L 254 221.499658 L 239.999821 236.999487 L 241.999699 221.000464 L 258.499984 206.500057 L 270.500285 200.500423 L 275.999691 186.500244 " transform="matrix(3.779528,0,0,3.779528,0,0)"/>
<path style="fill:none;stroke-width:2;stroke-linecap:butt;stroke-linejoin:miter;stroke:rgb(0%,0%,0%);stroke-opacity:1;stroke-miterlimit:4;" d="M 273.499585 182.500488 L 285.499886 184.500366 L 282.99978 200.500423 L 279.000024 216.50048 L 270.500285 232.000309 " transform="matrix(3.779528,0,0,3.779528,0,0)"/>
<path style="fill:none;stroke-width:2;stroke-linecap:butt;stroke-linejoin:miter;stroke:rgb(0%,0%,0%);stroke-opacity:1;stroke-miterlimit:4;" d="M 280.00048 230.499626 L 286.000114 214.000374 L 289.99987 198.000317 L 289.99987 182.00026 " transform="matrix(3.779528,0,0,3.779528,0,0)"/>
<path style="fill:none;stroke-width:2;stroke-linecap:butt;stroke-linejoin:miter;stroke:rgb(0%,0%,0%);stroke-opacity:1;stroke-miterlimit:4;" d="M 200.500423 107.000187 L 171.000415 103.000431 " transform="matrix(3.779528,0,0,3.779528,0,0)"/>
<path style="fill:none;stroke-width:2;stroke-linecap:butt;stroke-linejoin:miter;stroke:rgb(0%,0%,0%);stroke-opacity:1;stroke-miterlimit:4;" d="M 157.999658 78.999829 L 119.99991 91.500358 L 107.999609 107.500415 L 101.999976 123.500472 L 96.000342 139.499495 L 91.999552 155.499552 L 87.999797 171.499609 L 86.500146 189.499544 L 86.500146 205.499601 L 82.999585 221.499658 L 55.00026 237.999943 L 37.000326 249.500016 L 25.000024 265.500073 L 14.999601 287.999992 L 10.999845 304.500277 L 14.999601 320.500334 L 23.000146 336.500391 L 34.50022 352.500448 L 52.500155 368.500505 L 82.500391 384.499528 " transform="matrix(3.779528,0,0,3.779528,0,0)"/>
<path style="fill:none;stroke-width:2;stroke-linecap:butt;stroke-linejoin:miter;stroke:rgb(0%,0%,0%);stroke-opacity:1;stroke-miterlimit:4;" d="M 125.999544 90.499902 L 147.500041 105.999731 L 163.500098 99.49987 L 179.500155 103.499626 L 186.000016 100.000098 L 202.000073 105.999731 L 218.00013 112.000399 L 232.000309 112.000399 L 248.499561 119.99991 L 264.499618 123.500472 " transform="matrix(3.779528,0,0,3.779528,0,0)"/>
<path style="fill:none;stroke-width:2;stroke-linecap:butt;stroke-linejoin:miter;stroke:rgb(0%,0%,0%);stroke-opacity:1;stroke-miterlimit:4;" d="M 164.999748 67.499756 L 116.999577 83.499813 L 105.499504 99.49987 L 99.49987 115.499927 L 94.000464 130.999756 L 87.999797 147.500041 L 84.000041 163.500098 L 82.000163 180.000382 L 80.000285 196.000439 L 71.99974 212.499691 L 51.999927 228.499748 L 30.000236 245.000033 L 17.499707 261.00009 L 9.500195 276.499919 L 5.500439 292.499976 L 5.500439 307.999805 L 3.999756 323.999862 L 13.499951 334.000285 L 23.999569 350.000342 L 37.999748 366.000399 L 64.000228 382.000456 L 100.000098 398.499707 L 123.999666 400.000391 L 131.499984 407.999902 L 141.500407 409.499552 L 151.499797 407.00048 L 153.499674 413.500342 L 169.499731 411.500464 L 175.500399 417.500098 L 191.500456 413.500342 L 196.000439 415.50022 L 211.500269 417.500098 L 235.499837 425.999837 L 267.499951 425.999837 L 284.000236 420.500431 L 316.00035 420.500431 L 334.000285 422.999504 L 350.499536 414.999992 L 366.499593 413.000114 L 384.499528 414.499764 L 400.499585 404.500374 L 416.000448 400.000391 L 431.500277 395.999601 L 454.999618 391.999845 L 471.499902 384.000334 L 487.499959 372.000033 L 503.500016 356.500203 " transform="matrix(3.779528,0,0,3.779528,0,0)"/>
<path style="fill:none;stroke-width:2;stroke-linecap:butt;stroke-linejoin:miter;stroke:rgb(0%,0%,0%);stroke-opacity:1;stroke-miterlimit:4;" d="M 393.499495 109.500293 L 384.000334 93.500236 L 372.000033 77.500179 " transform="matrix(3.779528,0,0,3.779528,0,0)"/>
</g>
</svg>
