<?xml version="1.0" encoding="UTF-8"?>
<svg xmlns="http://www.w3.org/2000/svg" xmlns:xlink="http://www.w3.org/1999/xlink" width="1935.11811" height="1935.11811" viewBox="0 0 1935.11811 1935.11811" version="1.1">
<g id="surface1">
<path style="fill:none;stroke-width:2;stroke-linecap:butt;stroke-linejoin:miter;stroke:rgb(0%,0%,0%);stroke-opacity:1;stroke-miterlimit:4;" d="M 349.500114 82.500391 L 323.499634 98.500448 L 289.499642 114.500505 L 255.49965 130.499528 L 225.500448 146.999813 L 191.500456 162.99987 L 155.499552 178.999927 L 115.499927 194.999984 L 80.999707 211.000041 L 82.999585 220.500236 L 100.500326 234.500415 L 51.000505 250.500472 L 17.000513 258.499984 L 5.000212 264.499618 L 21.500496 257.999756 L 37.49952 251.499894 L 53.499577 243.000155 L 69.499634 236.999487 L 85.499691 232.999731 L 101.499748 218.500358 L 118.000033 224.499992 L 134.00009 232.499504 L 150.500374 226.49987 L 166.500431 198.99974 L 172.500065 196.999862 " transform="matrix(3.779528,0,0,3.779528,0,0)"/>
<path style="fill:none;stroke-width:2;stroke-linecap:butt;stroke-linejoin:miter;stroke:rgb(0%,0%,0%);stroke-opacity:1;stroke-miterlimit:4;" d="M 158.499886 199.499967 L 116.000155 215.500024 L 121.999788 231.500081 L 144.000513 236.999487 L 146.000391 241.000277 L 162.499642 236.500293 L 178.499699 232.499504 L 193.999528 228.499748 L 207.999707 230.499626 L 218.00013 222.500114 L 225.999642 208.499935 L 241.999699 202.000073 L 257.499528 196.499634 L 273.499585 190.5 L 298.000415 182.500488 L 314.499666 174.499943 L 330.499723 168.500309 L 346.49978 168.000081 L 362.499837 175.999593 L 378.499894 183.49991 L 396.499829 191.500456 L 412.499886 199.499967 L 430.499821 207.999707 L 446.499878 220.000008 L 464.499813 221.999886 L 484.499626 234.000187 " transform="matrix(3.779528,0,0,3.779528,0,0)"/>
<path style="fill:none;stroke-width:2;stroke-linecap:butt;stroke-linejoin:miter;stroke:rgb(0%,0%,0%);stroke-opacity:1;stroke-miterlimit:4;" d="M 481.000098 239.999821 L 500.99991 255.49965 L 502.000366 287.499764 L 500.499683 303.499821 L 498.499805 320.000106 L 499.000033 336.000163 L 499.000033 352.00022 L 498.499805 368.000277 L 500.499683 384.000334 " transform="matrix(3.779528,0,0,3.779528,0,0)"/>
<path style="fill:none;stroke-width:2;stroke-linecap:butt;stroke-linejoin:miter;stroke:rgb(0%,0%,0%);stroke-opacity:1;stroke-miterlimit:4;" d="M 500.000488 423.999959 L 484.499626 422.000081 L 468.499569 420.000203 " transform="matrix(3.779528,0,0,3.779528,0,0)"/>
<path style="fill:none;stroke-width:2;stroke-linecap:butt;stroke-linejoin:miter;stroke:rgb(0%,0%,0%);stroke-opacity:1;stroke-miterlimit:4;" d="M 456.000073 422.500309 L 481.99952 440.500244 L 466.000496 441.999894 L 481.99952 436.00026 " transform="matrix(3.779528,0,0,3.779528,0,0)"/>
<path style="fill:none;stroke-width:2;stroke-linecap:butt;stroke-linejoin:miter;stroke:rgb(0%,0%,0%);stroke-opacity:1;stroke-miterlimit:4;" d="M 472.500358 384.499528 L 472.500358 336.500391 L 472.00013 320.500334 L 470.50048 304.500277 L 470.50048 271.499707 L 462.499935 255.000456 L 450.000439 258.499984 " transform="matrix(3.779528,0,0,3.779528,0,0)"/>
<path style="fill:none;stroke-width:2;stroke-linecap:butt;stroke-linejoin:miter;stroke:rgb(0%,0%,0%);stroke-opacity:1;stroke-miterlimit:4;" d="M 445.500456 266.999723 L 445.500456 332.000407 L 453.499967 352.00022 L 461.500513 373.99991 L 461.500513 389.49974 " transform="matrix(3.779528,0,0,3.779528,0,0)"/>
<path style="fill:none;stroke-width:2;stroke-linecap:butt;stroke-linejoin:miter;stroke:rgb(0%,0%,0%);stroke-opacity:1;stroke-miterlimit:4;" d="M 438.999561 391.499618 L 447.000106 375.499561 L 448.999984 359.499504 L 459.000407 339.499691 L 458.500179 323.499634 L 458.500179 307.000382 L 457.999951 291.49952 L 457.999951 275.999691 L 450.499634 259.999634 L 447.000106 243.500382 L 434.999805 227.500326 L 413.500342 207.500513 L 397.000057 197.50009 " transform="matrix(3.779528,0,0,3.779528,0,0)"/>
<path style="fill:none;stroke-width:2;stroke-linecap:butt;stroke-linejoin:miter;stroke:rgb(0%,0%,0%);stroke-opacity:1;stroke-miterlimit:4;" d="M 400.000391 193.999528 L 425.999837 209.999585 L 445.99965 220.000008 L 452.000317 236.500293 L 461.999707 232.499504 L 484.000431 228.499748 L 499.50026 238.500171 " transform="matrix(3.779528,0,0,3.779528,0,0)"/>
<path style="fill:none;stroke-width:2;stroke-linecap:butt;stroke-linejoin:miter;stroke:rgb(0%,0%,0%);stroke-opacity:1;stroke-miterlimit:4;" d="M 504.000244 248.999788 L 488.500415 243.000155 L 466.499691 255.49965 L 456.500301 249.500016 L 454.500423 245.50026 L 445.000228 231.500081 L 444.5 227.99952 L 428.499943 223.999764 L 411.999658 214.000374 L 395.999601 207.999707 " transform="matrix(3.779528,0,0,3.779528,0,0)"/>
<path style="fill:none;stroke-width:2;stroke-linecap:butt;stroke-linejoin:miter;stroke:rgb(0%,0%,0%);stroke-opacity:1;stroke-miterlimit:4;" d="M 404.999569 212.499691 L 424.500187 228.499748 L 426.500065 243.999577 L 426.500065 259.999634 L 423.999959 276.499919 L 422.000081 292.499976 L 420.000203 307.999805 L 422.000081 323.499634 L 421.499854 339.000496 L 419.499976 354.500326 L 419.499976 386.500439 " transform="matrix(3.779528,0,0,3.779528,0,0)"/>
<path style="fill:none;stroke-width:2;stroke-linecap:butt;stroke-linejoin:miter;stroke:rgb(0%,0%,0%);stroke-opacity:1;stroke-miterlimit:4;" d="M 400.000391 389.49974 L 400.000391 293.500431 L 404.000146 277.500374 L 406.000024 261.500317 L 406.000024 249.500016 L 395.999601 257.499528 L 398.000513 241.500505 L 397.500285 225.500448 L 395.500407 209.500391 L 373.99991 200.000195 L 358.500081 191.99965 L 342.500024 187.499666 " transform="matrix(3.779528,0,0,3.779528,0,0)"/>
<path style="fill:none;stroke-width:2;stroke-linecap:butt;stroke-linejoin:miter;stroke:rgb(0%,0%,0%);stroke-opacity:1;stroke-miterlimit:4;" d="M 354.500326 198.499512 L 354.500326 246.499683 L 352.500448 262.49974 L 352.500448 278.499797 L 354.99952 294.499854 L 352.500448 309.999683 L 354.500326 325.99974 L 354.500326 341.499569 L 352.500448 357.000431 L 354.000098 373.499683 L 354.000098 389.49974 L 363.999487 398.000513 L 380.499772 398.000513 L 408.50013 398.499707 L 432.499699 402.999691 L 447.999528 397.000057 L 469.500024 395.000179 " transform="matrix(3.779528,0,0,3.779528,0,0)"/>
<path style="fill:none;stroke-width:2;stroke-linecap:butt;stroke-linejoin:miter;stroke:rgb(0%,0%,0%);stroke-opacity:1;stroke-miterlimit:4;" d="M 504.999666 403.499919 L 504.500472 385.499984 L 504.500472 354.000098 L 504.000244 338.000041 L 504.000244 307.000382 L 505.499894 291.000326 L 508 275.000269 L 506.50035 258.499984 L 504.500472 239.999821 L 475.999886 229.500203 L 457.999951 213.500146 L 418.49952 196.999862 L 386.999634 181.500033 L 350.999764 165.499976 L 334.500513 145.500163 L 318.500456 135.49974 " transform="matrix(3.779528,0,0,3.779528,0,0)"/>
<path style="fill:none;stroke-width:2;stroke-linecap:butt;stroke-linejoin:miter;stroke:rgb(0%,0%,0%);stroke-opacity:1;stroke-miterlimit:4;" d="M 320.500334 131.499984 L 334.500513 127.500228 L 338.500269 143.500285 L 358.500081 144.999935 " transform="matrix(3.779528,0,0,3.779528,0,0)"/>
<path style="fill:none;stroke-width:2;stroke-linecap:butt;stroke-linejoin:miter;stroke:rgb(0%,0%,0%);stroke-opacity:1;stroke-miterlimit:4;" d="M 361.999609 139.000301 L 345.999552 130.999756 " transform="matrix(3.779528,0,0,3.779528,0,0)"/>
<path style="fill:none;stroke-width:2;stroke-linecap:butt;stroke-linejoin:miter;stroke:rgb(0%,0%,0%);stroke-opacity:1;stroke-miterlimit:4;" d="M 350.499536 135.49974 L 346.49978 123.000244 " transform="matrix(3.779528,0,0,3.779528,0,0)"/>
<path style="fill:none;stroke-width:2;stroke-linecap:butt;stroke-linejoin:miter;stroke:rgb(0%,0%,0%);stroke-opacity:1;stroke-miterlimit:4;" d="M 339.999919 114.500505 L 309.500488 130.000334 L 273.499585 145.500163 L 239.499593 161.50022 L 227.99952 171.999837 L 254 175.999593 " transform="matrix(3.779528,0,0,3.779528,0,0)"/>
<path style="fill:none;stroke-width:2;stroke-linecap:butt;stroke-linejoin:miter;stroke:rgb(0%,0%,0%);stroke-opacity:1;stroke-miterlimit:4;" d="M 241.999699 169.999959 L 237.999943 168.000081 " transform="matrix(3.779528,0,0,3.779528,0,0)"/>
<path style="fill:none;stroke-width:2;stroke-linecap:butt;stroke-linejoin:miter;stroke:rgb(0%,0%,0%);stroke-opacity:1;stroke-miterlimit:4;" d="M 227.000098 171.999837 L 243.000155 175.999593 L 259.500439 181.500033 " transform="matrix(3.779528,0,0,3.779528,0,0)"/>
<path style="fill:none;stroke-width:2;stroke-linecap:butt;stroke-linejoin:miter;stroke:rgb(0%,0%,0%);stroke-opacity:1;stroke-miterlimit:4;" d="M 264.000423 207.999707 L 295.999504 198.000317 L 309.999683 188.500122 L 293.999626 200.500423 " transform="matrix(3.779528,0,0,3.779528,0,0)"/>
<path style="fill:none;stroke-width:2;stroke-linecap:butt;stroke-linejoin:miter;stroke:rgb(0%,0%,0%);stroke-opacity:1;stroke-miterlimit:4;" d="M 300.499487 197.50009 L 316.499544 191.500456 L 332.499601 187.499666 L 350.499536 198.000317 L 350.000342 214.499569 L 347.500236 230.499626 L 347.500236 246.499683 L 348.000464 262.49974 L 348.000464 278.499797 L 348.499658 294.499854 L 348.499658 310.49991 L 348.000464 325.99974 L 348.000464 389.49974 L 339.499691 414.999992 L 339.499691 431.000049 L 341.999797 427.000293 L 373.99991 427.000293 L 389.999967 431.500277 L 406.000024 425.499609 L 422.000081 425.499609 L 434.499577 422.000081 L 450.000439 422.000081 L 466.499691 420.000203 L 481.99952 413.999536 L 498.499805 418.000326 " transform="matrix(3.779528,0,0,3.779528,0,0)"/>
<path style="fill:none;stroke-width:2;stroke-linecap:butt;stroke-linejoin:miter;stroke:rgb(0%,0%,0%);stroke-opacity:1;stroke-miterlimit:4;" d="M 439.499788 472.500358 L 423.999959 479.999642 L 422.500309 488.000187 L 425.000415 479.999642 L 434.999805 477.499536 L 419.499976 490.999487 " transform="matrix(3.779528,0,0,3.779528,0,0)"/>
<path style="fill:none;stroke-width:2;stroke-linecap:butt;stroke-linejoin:miter;stroke:rgb(0%,0%,0%);stroke-opacity:1;stroke-miterlimit:4;" d="M 393.999723 441.499666 L 378.499894 443.499544 L 366.499593 438.999561 L 350.999764 442.500122 L 336.999585 440.500244 L 319.499878 444.5 L 313.500244 436.500488 L 325.499512 440.500244 L 329.500301 434.499577 L 329.500301 427.000293 L 311.500366 432.999927 L 279.000024 432.999927 L 262.999967 431.000049 L 246.99991 434.999805 L 230.999854 434.999805 L 214.499569 435.500033 L 198.499512 436.999683 L 166.500431 436.999683 " transform="matrix(3.779528,0,0,3.779528,0,0)"/>
<path style="fill:none;stroke-width:2;stroke-linecap:butt;stroke-linejoin:miter;stroke:rgb(0%,0%,0%);stroke-opacity:1;stroke-miterlimit:4;" d="M 168.000081 441.000472 L 200.500423 441.000472 L 216.50048 440.500244 L 232.999731 440.500244 L 248.999788 440.000016 L 277.000146 445.99965 L 293.000203 437.49991 " transform="matrix(3.779528,0,0,3.779528,0,0)"/>
<path style="fill:none;stroke-width:2;stroke-linecap:butt;stroke-linejoin:miter;stroke:rgb(0%,0%,0%);stroke-opacity:1;stroke-miterlimit:4;" d="M 285.499886 451.50009 L 270.000057 449.500212 " transform="matrix(3.779528,0,0,3.779528,0,0)"/>
<path style="fill:none;stroke-width:2;stroke-linecap:butt;stroke-linejoin:miter;stroke:rgb(0%,0%,0%);stroke-opacity:1;stroke-miterlimit:4;" d="M 248.499561 391.000423 L 260.499862 373.000488 L 260.499862 352.999642 L 262.49974 336.500391 L 262.49974 320.500334 L 266.499495 302.999593 L 266.499495 296.499731 L 264.999845 280.999902 L 267.499951 264.999845 L 267.499951 248.999788 L 261.500317 246.499683 L 245.50026 248.499561 " transform="matrix(3.779528,0,0,3.779528,0,0)"/>
<path style="fill:none;stroke-width:2;stroke-linecap:butt;stroke-linejoin:miter;stroke:rgb(0%,0%,0%);stroke-opacity:1;stroke-miterlimit:4;" d="M 248.000366 254 L 248.000366 246.000488 L 244.499805 261.500317 L 242.499927 277.999569 L 245.000033 295.999504 L 246.99991 311.999561 L 245.000033 322.500212 L 242.499927 338.500269 L 246.000488 355.999976 L 246.000488 372.000033 L 244.499805 388.00009 " transform="matrix(3.779528,0,0,3.779528,0,0)"/>
<path style="fill:none;stroke-width:2;stroke-linecap:butt;stroke-linejoin:miter;stroke:rgb(0%,0%,0%);stroke-opacity:1;stroke-miterlimit:4;" d="M 265.500073 413.999536 L 217.499902 413.999536 " transform="matrix(3.779528,0,0,3.779528,0,0)"/>
<path style="fill:none;stroke-width:2;stroke-linecap:butt;stroke-linejoin:miter;stroke:rgb(0%,0%,0%);stroke-opacity:1;stroke-miterlimit:4;" d="M 200.000195 384.999756 L 184.000138 382.999878 " transform="matrix(3.779528,0,0,3.779528,0,0)"/>
<path style="fill:none;stroke-width:2;stroke-linecap:butt;stroke-linejoin:miter;stroke:rgb(0%,0%,0%);stroke-opacity:1;stroke-miterlimit:4;" d="M 184.000138 372.50026 L 200.000195 372.50026 " transform="matrix(3.779528,0,0,3.779528,0,0)"/>
<path style="fill:none;stroke-width:2;stroke-linecap:butt;stroke-linejoin:miter;stroke:rgb(0%,0%,0%);stroke-opacity:1;stroke-miterlimit:4;" d="M 199.499967 354.000098 L 182.999683 353.49987 " transform="matrix(3.779528,0,0,3.779528,0,0)"/>
<path style="fill:none;stroke-width:2;stroke-linecap:butt;stroke-linejoin:miter;stroke:rgb(0%,0%,0%);stroke-opacity:1;stroke-miterlimit:4;" d="M 198.99974 328.499845 L 177.000049 332.499601 L 160.999992 332.499601 " transform="matrix(3.779528,0,0,3.779528,0,0)"/>
<path style="fill:none;stroke-width:2;stroke-linecap:butt;stroke-linejoin:miter;stroke:rgb(0%,0%,0%);stroke-opacity:1;stroke-miterlimit:4;" d="M 152.000024 332.000407 L 168.000081 328.499845 L 182.00026 339.999919 L 181.500033 357.999854 L 185.499788 349.500114 L 201.499845 347.000008 " transform="matrix(3.779528,0,0,3.779528,0,0)"/>
<path style="fill:none;stroke-width:2;stroke-linecap:butt;stroke-linejoin:miter;stroke:rgb(0%,0%,0%);stroke-opacity:1;stroke-miterlimit:4;" d="M 225.999642 325.499512 L 200.000195 318.000228 L 184.000138 318.500456 " transform="matrix(3.779528,0,0,3.779528,0,0)"/>
<path style="fill:none;stroke-width:2;stroke-linecap:butt;stroke-linejoin:miter;stroke:rgb(0%,0%,0%);stroke-opacity:1;stroke-miterlimit:4;" d="M 184.999561 298.000415 L 200.999618 295.500309 " transform="matrix(3.779528,0,0,3.779528,0,0)"/>
<path style="fill:none;stroke-width:2;stroke-linecap:butt;stroke-linejoin:miter;stroke:rgb(0%,0%,0%);stroke-opacity:1;stroke-miterlimit:4;" d="M 197.50009 289.499642 L 181.500033 298.000415 " transform="matrix(3.779528,0,0,3.779528,0,0)"/>
<path style="fill:none;stroke-width:2;stroke-linecap:butt;stroke-linejoin:miter;stroke:rgb(0%,0%,0%);stroke-opacity:1;stroke-miterlimit:4;" d="M 202.500301 313.500244 L 204.500179 297.500187 L 202.000073 273.000391 L 203.999951 255.000456 L 198.000317 253.499772 L 182.00026 253.499772 " transform="matrix(3.779528,0,0,3.779528,0,0)"/>
<path style="fill:none;stroke-width:2;stroke-linecap:butt;stroke-linejoin:miter;stroke:rgb(0%,0%,0%);stroke-opacity:1;stroke-miterlimit:4;" d="M 182.500488 246.99991 L 198.499512 244.499805 L 211.000041 242.499927 " transform="matrix(3.779528,0,0,3.779528,0,0)"/>
<path style="fill:none;stroke-width:2;stroke-linecap:butt;stroke-linejoin:miter;stroke:rgb(0%,0%,0%);stroke-opacity:1;stroke-miterlimit:4;" d="M 221.999886 223.499536 L 237.499715 217.499902 L 253.499772 211.000041 L 269.499829 205.000407 L 280.999902 184.999561 L 239.499593 200.999618 L 216.000252 216.999674 L 202.000073 223.000342 L 176.499821 225.00022 L 152.500252 248.499561 L 150.000146 264.499618 L 148.500496 280.999902 L 152.500252 314.000472 L 138.500073 324.50009 L 132.000212 340.500146 L 130.499528 356.500203 L 132.500439 372.50026 L 132.500439 388.500317 " transform="matrix(3.779528,0,0,3.779528,0,0)"/>
<path style="fill:none;stroke-width:2;stroke-linecap:butt;stroke-linejoin:miter;stroke:rgb(0%,0%,0%);stroke-opacity:1;stroke-miterlimit:4;" d="M 157.999658 385.499984 L 160.499764 368.999699 L 158.499886 352.999642 L 159.000114 336.500391 L 139.000301 322.500212 " transform="matrix(3.779528,0,0,3.779528,0,0)"/>
<path style="fill:none;stroke-width:2;stroke-linecap:butt;stroke-linejoin:miter;stroke:rgb(0%,0%,0%);stroke-opacity:1;stroke-miterlimit:4;" d="M 133.499862 329.000073 L 137.499618 339.000496 L 133.499862 355.999976 L 137.499618 372.50026 L 135.49974 388.500317 " transform="matrix(3.779528,0,0,3.779528,0,0)"/>
<path style="fill:none;stroke-width:2;stroke-linecap:butt;stroke-linejoin:miter;stroke:rgb(0%,0%,0%);stroke-opacity:1;stroke-miterlimit:4;" d="M 119.99991 388.00009 L 107.500415 372.000033 L 105.499504 377.999666 " transform="matrix(3.779528,0,0,3.779528,0,0)"/>
<path style="fill:none;stroke-width:2;stroke-linecap:butt;stroke-linejoin:miter;stroke:rgb(0%,0%,0%);stroke-opacity:1;stroke-miterlimit:4;" d="M 74.499845 427.000293 L 89.999674 425.499609 L 105.999731 427.499487 L 121.999788 427.999715 L 138.500073 427.999715 L 154.50013 426.500065 L 170.500187 427.000293 L 201.499845 427.000293 L 217.499902 426.500065 L 233.499959 428.499943 L 249.500016 424.500187 " transform="matrix(3.779528,0,0,3.779528,0,0)"/>
<path style="fill:none;stroke-width:2;stroke-linecap:butt;stroke-linejoin:miter;stroke:rgb(0%,0%,0%);stroke-opacity:1;stroke-miterlimit:4;" d="M 287.999992 386.999634 L 286.999536 354.99952 L 291.49952 332.999829 L 289.99987 329.500301 L 286.000114 311.500366 L 286.000114 295.500309 L 285.499886 279.500252 L 259.500439 275.500496 L 259.500439 259.500439 L 267.499951 251.499894 " transform="matrix(3.779528,0,0,3.779528,0,0)"/>
<path style="fill:none;stroke-width:2;stroke-linecap:butt;stroke-linejoin:miter;stroke:rgb(0%,0%,0%);stroke-opacity:1;stroke-miterlimit:4;" d="M 253.499772 249.500016 L 247.500138 265.500073 L 268.000179 267.499951 L 268.000179 271.999935 L 283.500008 277.999569 " transform="matrix(3.779528,0,0,3.779528,0,0)"/>
<path style="fill:none;stroke-width:2;stroke-linecap:butt;stroke-linejoin:miter;stroke:rgb(0%,0%,0%);stroke-opacity:1;stroke-miterlimit:4;" d="M 288.50022 271.999935 L 287.999992 255.49965 L 293.999626 232.999731 L 293.500431 216.999674 L 283.500008 200.999618 " transform="matrix(3.779528,0,0,3.779528,0,0)"/>
<path style="fill:none;stroke-width:2;stroke-linecap:butt;stroke-linejoin:miter;stroke:rgb(0%,0%,0%);stroke-opacity:1;stroke-miterlimit:4;" d="M 284.500464 196.000439 L 296.499731 187.999894 L 318.000228 171.999837 L 325.99974 173.999715 " transform="matrix(3.779528,0,0,3.779528,0,0)"/>
<path style="fill:none;stroke-width:2;stroke-linecap:butt;stroke-linejoin:miter;stroke:rgb(0%,0%,0%);stroke-opacity:1;stroke-miterlimit:4;" d="M 334.999707 168.500309 L 350.499536 180.499577 L 366.499593 191.99965 L 382.999878 199.499967 L 373.499683 217.499902 L 373.99991 233.499959 L 373.99991 249.500016 L 384.000334 239.499593 " transform="matrix(3.779528,0,0,3.779528,0,0)"/>
<path style="fill:none;stroke-width:2;stroke-linecap:butt;stroke-linejoin:miter;stroke:rgb(0%,0%,0%);stroke-opacity:1;stroke-miterlimit:4;" d="M 428.499943 228.499748 L 430.499821 244.499805 L 430.499821 260.499862 L 426.500065 292.499976 L 426.500065 308.500033 L 425.999837 323.999862 L 425.999837 388.00009 " transform="matrix(3.779528,0,0,3.779528,0,0)"/>
<path style="fill:none;stroke-width:2;stroke-linecap:butt;stroke-linejoin:miter;stroke:rgb(0%,0%,0%);stroke-opacity:1;stroke-miterlimit:4;" d="M 416.99987 423.999959 L 429.000171 425.499609 " transform="matrix(3.779528,0,0,3.779528,0,0)"/>
<path style="fill:none;stroke-width:2;stroke-linecap:butt;stroke-linejoin:miter;stroke:rgb(0%,0%,0%);stroke-opacity:1;stroke-miterlimit:4;" d="M 511.000334 309.500488 L 511.000334 297.500187 L 510.500106 283.500008 " transform="matrix(3.779528,0,0,3.779528,0,0)"/>
<path style="fill:none;stroke-width:2;stroke-linecap:butt;stroke-linejoin:miter;stroke:rgb(0%,0%,0%);stroke-opacity:1;stroke-miterlimit:4;" d="M 503.500016 231.500081 L 487.499959 223.499536 L 472.00013 216.999674 L 438.999561 205.000407 L 423.499731 196.999862 L 407.999902 191.500456 L 391.999845 183.49991 L 375.999788 177.500277 L 359.499504 169.499731 L 343.50048 161.50022 L 327.500423 161.50022 L 311.500366 167.499854 L 295.500309 175.500399 L 280.00048 181.500033 L 264.499618 185.499788 L 248.499561 193.500334 L 232.499504 199.499967 L 216.50048 205.499601 L 200.000195 211.500269 L 183.49991 218.00013 L 167.499854 223.999764 L 151.499797 227.99952 " transform="matrix(3.779528,0,0,3.779528,0,0)"/>
<path style="fill:none;stroke-width:2;stroke-linecap:butt;stroke-linejoin:miter;stroke:rgb(0%,0%,0%);stroke-opacity:1;stroke-miterlimit:4;" d="M 159.500342 232.499504 L 175.000171 228.499748 L 191.000228 222.500114 " transform="matrix(3.779528,0,0,3.779528,0,0)"/>
<path style="fill:none;stroke-width:2;stroke-linecap:butt;stroke-linejoin:miter;stroke:rgb(0%,0%,0%);stroke-opacity:1;stroke-miterlimit:4;" d="M 180.000382 239.000399 L 178.000505 255.000456 L 175.500399 271.000513 L 177.500277 286.999536 L 177.500277 318.99965 L 182.999683 330.499723 L 175.000171 346.49978 L 177.500277 361.999609 L 177.500277 377.999666 L 181.500033 384.000334 L 180.999805 389.999967 L 189.00035 397.500285 L 205.000407 397.500285 L 227.000098 409.499552 L 258.499984 409.499552 L 272.500163 421.499854 L 274.500041 425.499609 L 293.000203 423.499731 L 309.00026 422.999504 " transform="matrix(3.779528,0,0,3.779528,0,0)"/>
<path style="fill:none;stroke-width:2;stroke-linecap:butt;stroke-linejoin:miter;stroke:rgb(0%,0%,0%);stroke-opacity:1;stroke-miterlimit:4;" d="M 266.499495 386.000212 L 258.499984 377.500472 L 250.500472 368.000277 L 246.000488 348.000464 L 247.500138 332.000407 L 249.500016 312.499788 L 247.500138 296.499731 L 229.500203 284.500464 L 213.500146 274.500041 " transform="matrix(3.779528,0,0,3.779528,0,0)"/>
<path style="fill:none;stroke-width:2;stroke-linecap:butt;stroke-linejoin:miter;stroke:rgb(0%,0%,0%);stroke-opacity:1;stroke-miterlimit:4;" d="M 223.999764 273.999813 L 239.999821 273.999813 " transform="matrix(3.779528,0,0,3.779528,0,0)"/>
<path style="fill:none;stroke-width:2;stroke-linecap:butt;stroke-linejoin:miter;stroke:rgb(0%,0%,0%);stroke-opacity:1;stroke-miterlimit:4;" d="M 184.500366 262.49974 L 200.500423 264.000423 L 208.499935 281.50013 L 212.499691 299.500065 L 207.999707 314.999894 L 209.999585 335.499935 L 217.499902 339.499691 L 215.500024 355.499748 L 221.499658 359.999731 L 220.000008 372.000033 L 218.00013 382.000456 L 218.00013 394.499951 L 223.999764 396.499829 L 239.999821 398.499707 " transform="matrix(3.779528,0,0,3.779528,0,0)"/>
<path style="fill:none;stroke-width:2;stroke-linecap:butt;stroke-linejoin:miter;stroke:rgb(0%,0%,0%);stroke-opacity:1;stroke-miterlimit:4;" d="M 250.500472 470.000252 L 226.49987 469.500024 L 210.499813 469.500024 " transform="matrix(3.779528,0,0,3.779528,0,0)"/>
<path style="fill:none;stroke-width:2;stroke-linecap:butt;stroke-linejoin:miter;stroke:rgb(0%,0%,0%);stroke-opacity:1;stroke-miterlimit:4;" d="M 207.999707 468.499569 L 223.999764 466.999919 L 253.499772 466.999919 L 273.999813 458.500179 " transform="matrix(3.779528,0,0,3.779528,0,0)"/>
<path style="fill:none;stroke-width:2;stroke-linecap:butt;stroke-linejoin:miter;stroke:rgb(0%,0%,0%);stroke-opacity:1;stroke-miterlimit:4;" d="M 291.999748 387.499862 L 294.499854 371.499805 L 293.000203 355.999976 L 281.50013 348.000464 L 281.50013 343.999674 L 266.000301 354.000098 L 243.500382 354.000098 L 241.000277 350.000342 L 224.499992 353.49987 L 207.999707 365.500171 L 203.999951 369.499927 L 201.499845 355.499748 L 203.499723 337.499813 L 203.499723 321.499756 L 219.49978 311.500366 L 221.499658 295.000081 L 216.999674 284.999658 L 221.000464 268.999601 L 209.500391 260.499862 L 215.500024 259.000212 L 220.000008 243.000155 L 214.000374 227.000098 L 188.500122 235.499837 L 172.500065 239.999821 L 156.500008 243.999577 " transform="matrix(3.779528,0,0,3.779528,0,0)"/>
<path style="fill:none;stroke-width:2;stroke-linecap:butt;stroke-linejoin:miter;stroke:rgb(0%,0%,0%);stroke-opacity:1;stroke-miterlimit:4;" d="M 159.000114 271.000513 L 175.000171 268.999601 L 194.999984 271.000513 " transform="matrix(3.779528,0,0,3.779528,0,0)"/>
<path style="fill:none;stroke-width:2;stroke-linecap:butt;stroke-linejoin:miter;stroke:rgb(0%,0%,0%);stroke-opacity:1;stroke-miterlimit:4;" d="M 152.000024 276.499919 L 168.000081 272.500163 L 182.500488 276.499919 L 182.500488 309.00026 L 190.5 323.000439 L 208.499935 329.000073 L 232.499504 317.5 L 254.500228 313.500244 L 270.500285 315.500122 L 272.500163 319.499878 L 284.500464 327.999618 L 277.999569 343.999674 " transform="matrix(3.779528,0,0,3.779528,0,0)"/>
<path style="fill:none;stroke-width:2;stroke-linecap:butt;stroke-linejoin:miter;stroke:rgb(0%,0%,0%);stroke-opacity:1;stroke-miterlimit:4;" d="M 318.99965 332.499601 L 318.99965 379.999544 " transform="matrix(3.779528,0,0,3.779528,0,0)"/>
<path style="fill:none;stroke-width:2;stroke-linecap:butt;stroke-linejoin:miter;stroke:rgb(0%,0%,0%);stroke-opacity:1;stroke-miterlimit:4;" d="M 314.499666 386.000212 L 314.499666 338.000041 L 316.499544 319.499878 L 320.500334 295.500309 L 320.000106 279.500252 " transform="matrix(3.779528,0,0,3.779528,0,0)"/>
<path style="fill:none;stroke-width:2;stroke-linecap:butt;stroke-linejoin:miter;stroke:rgb(0%,0%,0%);stroke-opacity:1;stroke-miterlimit:4;" d="M 368.500505 257.999756 L 368.999699 242.499927 L 368.999699 226.49987 L 369.499927 210.499813 L 357.499626 194.499756 " transform="matrix(3.779528,0,0,3.779528,0,0)"/>
<path style="fill:none;stroke-width:2;stroke-linecap:butt;stroke-linejoin:miter;stroke:rgb(0%,0%,0%);stroke-opacity:1;stroke-miterlimit:4;" d="M 339.000496 166.500431 L 368.999699 182.500488 L 386.999634 198.000317 L 395.000179 199.499967 L 420.999626 215.500024 L 434.999805 221.000464 L 449.500212 223.000342 L 459.999829 225.500448 L 466.000496 239.499593 L 452.000317 243.500382 L 456.000073 259.500439 L 461.999707 275.500496 L 461.999707 330.999951 L 459.999829 352.999642 L 461.999707 368.999699 L 457.999951 384.999756 L 445.500456 389.49974 " transform="matrix(3.779528,0,0,3.779528,0,0)"/>
<path style="fill:none;stroke-width:2;stroke-linecap:butt;stroke-linejoin:miter;stroke:rgb(0%,0%,0%);stroke-opacity:1;stroke-miterlimit:4;" d="M 474.500236 402.999691 L 458.500179 404.999569 L 442.500122 407.00048 L 427.000293 407.00048 L 411.000236 409.000358 L 395.500407 409.000358 L 379.999544 409.499552 L 373.99991 416.99987 L 357.999854 416.99987 L 346.49978 399.500163 L 300.999715 399.500163 L 284.500464 403.499919 L 268.500407 403.499919 L 257.000334 391.499618 L 264.999845 375.499561 L 264.999845 359.499504 L 266.999723 341.499569 L 266.999723 325.499512 L 286.999536 315.500122 L 292.499976 299.500065 L 292.499976 283.500008 L 296.499731 265.500073 L 284.500464 261.999512 L 282.000358 246.499683 L 287.999992 234.999609 L 289.99987 218.999552 L 279.500252 198.99974 L 263.500195 202.999495 L 247.500138 208.499935 L 231.500081 214.999797 " transform="matrix(3.779528,0,0,3.779528,0,0)"/>
<path style="fill:none;stroke-width:2;stroke-linecap:butt;stroke-linejoin:miter;stroke:rgb(0%,0%,0%);stroke-opacity:1;stroke-miterlimit:4;" d="M 246.99991 189.00035 L 230.499626 184.500366 L 214.000374 180.999805 " transform="matrix(3.779528,0,0,3.779528,0,0)"/>
<path style="fill:none;stroke-width:2;stroke-linecap:butt;stroke-linejoin:miter;stroke:rgb(0%,0%,0%);stroke-opacity:1;stroke-miterlimit:4;" d="M 218.999552 175.000171 L 234.999609 179.500155 L 245.000033 169.499731 L 261.500317 177.500277 " transform="matrix(3.779528,0,0,3.779528,0,0)"/>
<path style="fill:none;stroke-width:2;stroke-linecap:butt;stroke-linejoin:miter;stroke:rgb(0%,0%,0%);stroke-opacity:1;stroke-miterlimit:4;" d="M 266.000301 153.499674 L 282.000358 162.000448 " transform="matrix(3.779528,0,0,3.779528,0,0)"/>
<path style="fill:none;stroke-width:2;stroke-linecap:butt;stroke-linejoin:miter;stroke:rgb(0%,0%,0%);stroke-opacity:1;stroke-miterlimit:4;" d="M 286.500342 159.999536 L 270.500285 151.499797 " transform="matrix(3.779528,0,0,3.779528,0,0)"/>
<path style="fill:none;stroke-width:2;stroke-linecap:butt;stroke-linejoin:miter;stroke:rgb(0%,0%,0%);stroke-opacity:1;stroke-miterlimit:4;" d="M 269.499829 152.500252 L 277.500374 156.500008 L 293.500431 150.500374 L 309.500488 146.499585 " transform="matrix(3.779528,0,0,3.779528,0,0)"/>
<path style="fill:none;stroke-width:2;stroke-linecap:butt;stroke-linejoin:miter;stroke:rgb(0%,0%,0%);stroke-opacity:1;stroke-miterlimit:4;" d="M 313.000016 152.000024 L 302.999593 154.50013 L 277.000146 148.500496 " transform="matrix(3.779528,0,0,3.779528,0,0)"/>
<path style="fill:none;stroke-width:2;stroke-linecap:butt;stroke-linejoin:miter;stroke:rgb(0%,0%,0%);stroke-opacity:1;stroke-miterlimit:4;" d="M 277.500374 143.500285 L 293.500431 137.499618 L 309.500488 129.500106 L 325.499512 123.500472 L 341.999797 113.500049 L 357.999854 117.499805 L 374.500138 125.50035 L 391.000423 134.00009 L 407.499674 141.999601 L 423.499731 152.000024 " transform="matrix(3.779528,0,0,3.779528,0,0)"/>
<path style="fill:none;stroke-width:2;stroke-linecap:butt;stroke-linejoin:miter;stroke:rgb(0%,0%,0%);stroke-opacity:1;stroke-miterlimit:4;" d="M 407.00048 162.000448 L 391.000423 152.000024 " transform="matrix(3.779528,0,0,3.779528,0,0)"/>
<path style="fill:none;stroke-width:2;stroke-linecap:butt;stroke-linejoin:miter;stroke:rgb(0%,0%,0%);stroke-opacity:1;stroke-miterlimit:4;" d="M 388.00009 151.499797 L 404.000146 155.499552 " transform="matrix(3.779528,0,0,3.779528,0,0)"/>
<path style="fill:none;stroke-width:2;stroke-linecap:butt;stroke-linejoin:miter;stroke:rgb(0%,0%,0%);stroke-opacity:1;stroke-miterlimit:4;" d="M 397.500285 152.000024 L 389.999967 148.000269 " transform="matrix(3.779528,0,0,3.779528,0,0)"/>
<path style="fill:none;stroke-width:2;stroke-linecap:butt;stroke-linejoin:miter;stroke:rgb(0%,0%,0%);stroke-opacity:1;stroke-miterlimit:4;" d="M 413.500342 139.499495 L 397.500285 129.500106 L 381 121.499561 L 364.499715 109.500293 L 348.499658 97.499992 " transform="matrix(3.779528,0,0,3.779528,0,0)"/>
<path style="fill:none;stroke-width:2;stroke-linecap:butt;stroke-linejoin:miter;stroke:rgb(0%,0%,0%);stroke-opacity:1;stroke-miterlimit:4;" d="M 345.999552 93.000008 L 348.000464 109.500293 L 372.000033 125.50035 L 402.000269 141.500407 L 436.00026 157.500464 L 468.000374 173.499487 L 500.000488 189.499544 " transform="matrix(3.779528,0,0,3.779528,0,0)"/>
<path style="fill:none;stroke-width:2;stroke-linecap:butt;stroke-linejoin:miter;stroke:rgb(0%,0%,0%);stroke-opacity:1;stroke-miterlimit:4;" d="M 468.000374 228.999976 L 452.499512 221.000464 " transform="matrix(3.779528,0,0,3.779528,0,0)"/>
<path style="fill:none;stroke-width:2;stroke-linecap:butt;stroke-linejoin:miter;stroke:rgb(0%,0%,0%);stroke-opacity:1;stroke-miterlimit:4;" d="M 475.499658 238.500171 L 477.499536 254.500228 L 479.500448 270.500285 L 477.499536 286.500342 L 477.499536 302.000171 L 479.999642 318.000228 L 477.499536 334.000285 L 477.499536 350.000342 L 479.500448 366.000399 L 481.500326 382.000456 " transform="matrix(3.779528,0,0,3.779528,0,0)"/>
<path style="fill:none;stroke-width:2;stroke-linecap:butt;stroke-linejoin:miter;stroke:rgb(0%,0%,0%);stroke-opacity:1;stroke-miterlimit:4;" d="M 497.500382 448.499756 L 501.500138 438.000138 L 500.99991 437.49991 L 486.999731 437.49991 L 470.50048 445.000228 L 466.499691 456.999495 L 468.499569 461.000285 L 466.999919 456.999495 L 477.000342 434.999805 L 473.49978 427.000293 L 457.999951 421.499854 L 447.999528 431.000049 L 443.999772 425.000415 L 428.499943 423.499731 L 416.99987 435.500033 L 400.999813 433.500155 L 395.000179 429.500399 L 388.500317 393.499495 L 386.500439 377.500472 L 386.999634 361.500415 L 386.999634 345.500358 L 384.999756 323.499634 L 384.999756 307.499577 L 386.999634 291.49952 L 381 275.500496 L 384.499528 257.499528 L 386.500439 235.499837 L 386.500439 219.49978 L 378.499894 203.999951 L 355.999976 186.500244 L 336.000163 171.000415 L 327.999618 171.000415 L 313.500244 162.99987 L 297.500187 159.000114 L 281.50013 152.500252 L 265.500073 150.999569 L 249.500016 158.499886 L 233.499959 166.500431 L 217.499902 172.500065 L 200.999618 180.000382 L 184.999561 186.000016 L 169.499731 193.999528 L 153.499674 199.499967 L 137.999845 205.499601 L 121.999788 211.000041 L 105.999731 216.999674 " transform="matrix(3.779528,0,0,3.779528,0,0)"/>
<path style="fill:none;stroke-width:2;stroke-linecap:butt;stroke-linejoin:miter;stroke:rgb(0%,0%,0%);stroke-opacity:1;stroke-miterlimit:4;" d="M 114.999699 232.499504 L 99.49987 225.999642 L 83.499813 220.000008 " transform="matrix(3.779528,0,0,3.779528,0,0)"/>
<path style="fill:none;stroke-width:2;stroke-linecap:butt;stroke-linejoin:miter;stroke:rgb(0%,0%,0%);stroke-opacity:1;stroke-miterlimit:4;" d="M 73.999618 218.500358 L 89.999674 205.999829 L 105.499504 198.499512 L 121.499561 192.499878 L 137.999845 186.500244 L 154.50013 180.499577 L 170.500187 172.500065 L 186.500244 164.000326 L 202.500301 157.999658 L 218.500358 149.499919 L 234.500415 141.500407 L 250.500472 133.499862 L 266.499495 123.999666 L 282.499552 118.000033 L 298.499609 109.999487 L 330.499723 94.000464 L 345.999552 85.999919 L 361.999609 84.000041 L 377.999666 95.500114 L 393.999723 105.499504 L 409.99978 115.499927 L 425.999837 128.000456 L 442.500122 137.999845 L 458.500179 146.000391 L 474.500236 155.99978 L 490.500293 166.000203 L 506.50035 178.000505 " transform="matrix(3.779528,0,0,3.779528,0,0)"/>
<path style="fill:none;stroke-width:2;stroke-linecap:butt;stroke-linejoin:miter;stroke:rgb(0%,0%,0%);stroke-opacity:1;stroke-miterlimit:4;" d="M 482.499748 173.999715 L 466.499691 164.000326 L 450.499634 154.50013 L 434.499577 146.499585 L 418.000326 136.500195 L 402.000269 126.499772 L 385.499984 114.500505 L 369.499927 107.999609 L 353.49987 94.000464 " transform="matrix(3.779528,0,0,3.779528,0,0)"/>
<path style="fill:none;stroke-width:2;stroke-linecap:butt;stroke-linejoin:miter;stroke:rgb(0%,0%,0%);stroke-opacity:1;stroke-miterlimit:4;" d="M 354.99952 87.999797 L 377.500472 103.999854 L 391.000423 119.499683 L 409.499552 131.499984 L 435.500033 147.500041 L 457.999951 163.500098 L 490.000065 183.49991 L 506.50035 191.99965 " transform="matrix(3.779528,0,0,3.779528,0,0)"/>
<path style="fill:none;stroke-width:2;stroke-linecap:butt;stroke-linejoin:miter;stroke:rgb(0%,0%,0%);stroke-opacity:1;stroke-miterlimit:4;" d="M 503.500016 197.50009 L 475.000464 181.500033 L 441.000472 165.499976 L 406.500252 150.000146 L 374.500138 134.00009 L 345.999552 128.49965 L 329.999495 127 " transform="matrix(3.779528,0,0,3.779528,0,0)"/>
<path style="fill:none;stroke-width:2;stroke-linecap:butt;stroke-linejoin:miter;stroke:rgb(0%,0%,0%);stroke-opacity:1;stroke-miterlimit:4;" d="M 336.000163 132.000212 L 352.00022 142.499829 L 368.000277 150.500374 " transform="matrix(3.779528,0,0,3.779528,0,0)"/>
<path style="fill:none;stroke-width:2;stroke-linecap:butt;stroke-linejoin:miter;stroke:rgb(0%,0%,0%);stroke-opacity:1;stroke-miterlimit:4;" d="M 354.000098 101.499748 L 372.000033 117.499805 L 404.000146 134.00009 L 432.000505 150.000146 L 445.99965 157.500464 L 458.500179 167.499854 L 474.000008 175.500399 L 490.000065 177.500277 " transform="matrix(3.779528,0,0,3.779528,0,0)"/>
<path style="fill:none;stroke-width:2;stroke-linecap:butt;stroke-linejoin:miter;stroke:rgb(0%,0%,0%);stroke-opacity:1;stroke-miterlimit:4;" d="M 501.500138 180.999805 L 485.500081 171.499609 L 469.500024 161.50022 L 454.000195 151.499797 L 438.500366 143.500285 L 422.500309 132.999634 L 407.00048 120.500138 L 391.000423 110.499715 L 375.499561 100.500326 L 359.499504 88.500024 L 343.50048 94.499658 L 327.500423 102.500203 L 311.500366 110.999943 " transform="matrix(3.779528,0,0,3.779528,0,0)"/>
<path style="fill:none;stroke-width:2;stroke-linecap:butt;stroke-linejoin:miter;stroke:rgb(0%,0%,0%);stroke-opacity:1;stroke-miterlimit:4;" d="M 313.500244 131.499984 L 331.500179 147.500041 L 311.500366 169.499731 L 269.499829 184.999561 L 227.500326 200.999618 L 185.499788 216.50048 L 159.999536 218.500358 L 124.499894 248.000366 L 119.000488 264.000423 L 117.499805 280.00048 L 114.000277 298.000415 L 118.000033 309.999683 L 123.500472 336.000163 L 116.999577 351.499992 L 104.500081 357.499626 L 104.500081 375.999788 L 103.999854 391.499618 L 112.000399 401.500041 L 134.00009 397.000057 L 150.000146 397.500285 L 168.000081 403.499919 L 184.000138 403.499919 L 200.000195 402.999691 L 216.000252 402.999691 L 232.499504 403.499919 L 246.499683 403.499919 L 248.499561 388.999512 L 264.499618 400.999813 L 280.499674 397.000057 L 300.499487 405.499797 L 348.499658 405.499797 L 364.499715 404.999569 L 380.499772 402.999691 L 396.499829 402.999691 L 411.999658 400.999813 L 427.499487 395.500407 L 447.500334 401.500041 L 463.000163 399.500163 L 479.00022 391.499618 L 495.500505 393.499495 L 507.499772 385.499984 " transform="matrix(3.779528,0,0,3.779528,0,0)"/>
<path style="fill:none;stroke-width:2;stroke-linecap:butt;stroke-linejoin:miter;stroke:rgb(0%,0%,0%);stroke-opacity:1;stroke-miterlimit:4;" d="M 507.499772 405.499797 L 491.999943 404.999569 L 475.999886 407.00048 L 459.999829 409.000358 L 443.499544 410.500008 L 427.499487 412.499886 L 411.999658 413.000114 L 395.999601 414.999992 L 388.00009 422.999504 L 372.000033 420.999626 L 355.499748 420.999626 L 339.499691 422.999504 L 311.500366 417.500098 L 295.500309 417.500098 L 280.00048 418.000326 L 264.000423 418.49952 L 246.000488 420.500431 L 230.000431 422.500309 L 214.000374 422.500309 L 197.50009 422.999504 L 164.999748 422.999504 L 148.999691 422.500309 L 132.999634 422.500309 L 117.499805 422.000081 L 101.499748 421.499854 L 85.499691 421.499854 L 69.499634 423.499731 " transform="matrix(3.779528,0,0,3.779528,0,0)"/>
<path style="fill:none;stroke-width:2;stroke-linecap:butt;stroke-linejoin:miter;stroke:rgb(0%,0%,0%);stroke-opacity:1;stroke-miterlimit:4;" d="M 73.500423 429.999593 L 89.50048 440.500244 L 85.499691 441.000472 L 69.499634 457.499723 L 78.999829 474.000008 " transform="matrix(3.779528,0,0,3.779528,0,0)"/>
<path style="fill:none;stroke-width:2;stroke-linecap:butt;stroke-linejoin:miter;stroke:rgb(0%,0%,0%);stroke-opacity:1;stroke-miterlimit:4;" d="M 77.500179 470.000252 L 93.000008 481.99952 L 109.000065 485.500081 L 132.999634 485.500081 " transform="matrix(3.779528,0,0,3.779528,0,0)"/>
<path style="fill:none;stroke-width:2;stroke-linecap:butt;stroke-linejoin:miter;stroke:rgb(0%,0%,0%);stroke-opacity:1;stroke-miterlimit:4;" d="M 152.000024 486.999731 L 135.999967 482.999976 L 119.499683 482.499748 L 103.499626 478.499992 L 87.499569 472.00013 L 71.499512 463.999585 " transform="matrix(3.779528,0,0,3.779528,0,0)"/>
<path style="fill:none;stroke-width:2;stroke-linecap:butt;stroke-linejoin:miter;stroke:rgb(0%,0%,0%);stroke-opacity:1;stroke-miterlimit:4;" d="M 69.499634 456.999495 L 81.499935 450.999862 L 95.500114 456.999495 L 113.500049 457.499723 " transform="matrix(3.779528,0,0,3.779528,0,0)"/>
<path style="fill:none;stroke-width:2;stroke-linecap:butt;stroke-linejoin:miter;stroke:rgb(0%,0%,0%);stroke-opacity:1;stroke-miterlimit:4;" d="M 89.999674 472.999552 L 75.999495 456.999495 L 73.999618 432.999927 L 80.000285 431.500277 L 55.999683 421.499854 " transform="matrix(3.779528,0,0,3.779528,0,0)"/>
<path style="fill:none;stroke-width:2;stroke-linecap:butt;stroke-linejoin:miter;stroke:rgb(0%,0%,0%);stroke-opacity:1;stroke-miterlimit:4;" d="M 30.999658 441.499666 L 21.000269 434.000382 L 5.000212 434.000382 " transform="matrix(3.779528,0,0,3.779528,0,0)"/>
<path style="fill:none;stroke-width:2;stroke-linecap:butt;stroke-linejoin:miter;stroke:rgb(0%,0%,0%);stroke-opacity:1;stroke-miterlimit:4;" d="M 47.499943 406.500252 L 42.999959 398.499707 L 36.500098 406.500252 L 20.500041 413.000114 L 4.499984 413.000114 L 5.000212 397.000057 L 5.500439 380.499772 L 5.500439 363.999487 L 5.999634 348.000464 L 6.499862 331.500179 L 12.999723 316.00035 L 15.499829 300.000293 L 19.499585 293.999626 L 3.499528 295.999504 " transform="matrix(3.779528,0,0,3.779528,0,0)"/>
<path style="fill:none;stroke-width:2;stroke-linecap:butt;stroke-linejoin:miter;stroke:rgb(0%,0%,0%);stroke-opacity:1;stroke-miterlimit:4;" d="M 3.499528 295.500309 L 7.500317 311.500366 L 12.000301 329.500301 L 10.000423 345.500358 L 12.000301 361.500415 L 12.000301 393.499495 L 16.000057 405.499797 " transform="matrix(3.779528,0,0,3.779528,0,0)"/>
<path style="fill:none;stroke-width:2;stroke-linecap:butt;stroke-linejoin:miter;stroke:rgb(0%,0%,0%);stroke-opacity:1;stroke-miterlimit:4;" d="M 98.500448 393.000301 L 98.500448 361.500415 L 98.00022 345.00013 L 121.999788 330.999951 L 121.999788 315.500122 L 119.99991 299.500065 L 121.999788 283.500008 L 123.999666 266.999723 L 114.000277 249.500016 L 98.00022 253.499772 L 82.500391 257.999756 L 66.500334 263.500195 L 51.000505 267.499951 L 35.499642 273.999813 L 19.999813 277.999569 L 3.999756 282.000358 " transform="matrix(3.779528,0,0,3.779528,0,0)"/>
<path style="fill:none;stroke-width:2;stroke-linecap:butt;stroke-linejoin:miter;stroke:rgb(0%,0%,0%);stroke-opacity:1;stroke-miterlimit:4;" d="M 3.000334 275.500496 L 19.000391 271.499707 L 34.50022 268.000179 L 50.500277 261.999512 L 82.500391 254 L 98.00022 248.000366 L 114.000277 244.499805 " transform="matrix(3.779528,0,0,3.779528,0,0)"/>
<path style="fill:none;stroke-width:2;stroke-linecap:butt;stroke-linejoin:miter;stroke:rgb(0%,0%,0%);stroke-opacity:1;stroke-miterlimit:4;" d="M 116.999577 257.499528 L 132.999634 249.500016 L 148.999691 246.000488 L 155.499552 262.49974 L 155.99978 278.499797 L 152.500252 279.000024 L 156.500008 304.500277 L 158.499886 320.500334 L 153.00048 334.500513 L 155.499552 350.499536 L 155.499552 382.49965 L 161.50022 397.000057 L 177.500277 398.999935 " transform="matrix(3.779528,0,0,3.779528,0,0)"/>
<path style="fill:none;stroke-width:2;stroke-linecap:butt;stroke-linejoin:miter;stroke:rgb(0%,0%,0%);stroke-opacity:1;stroke-miterlimit:4;" d="M 105.999731 291.999748 L 98.500448 318.000228 L 90.499902 314.000472 L 94.499658 295.999504 L 88.500024 289.99987 L 88.500024 282.499552 L 86.500146 280.499674 " transform="matrix(3.779528,0,0,3.779528,0,0)"/>
<path style="fill:none;stroke-width:2;stroke-linecap:butt;stroke-linejoin:miter;stroke:rgb(0%,0%,0%);stroke-opacity:1;stroke-miterlimit:4;" d="M 75.999495 271.999935 L 91.500358 277.999569 L 107.000187 279.500252 L 109.000065 287.499764 " transform="matrix(3.779528,0,0,3.779528,0,0)"/>
<path style="fill:none;stroke-width:2;stroke-linecap:butt;stroke-linejoin:miter;stroke:rgb(0%,0%,0%);stroke-opacity:1;stroke-miterlimit:4;" d="M 90.499902 250.500472 L 98.999642 236.500293 L 82.999585 239.999821 L 66.999528 246.000488 L 51.000505 252.000122 L 35.000448 257.999756 L 18.500163 264.000423 L 3.000334 267.499951 " transform="matrix(3.779528,0,0,3.779528,0,0)"/>
<path style="fill:none;stroke-width:2;stroke-linecap:butt;stroke-linejoin:miter;stroke:rgb(0%,0%,0%);stroke-opacity:1;stroke-miterlimit:4;" d="M 3.000334 288.50022 L 19.000391 287.999992 L 35.000448 287.999992 L 51.000505 283.500008 L 66.500334 279.500252 L 75.999495 275.500496 L 78.000407 291.49952 L 97.499992 299.500065 L 97.499992 311.500366 L 103.499626 325.99974 L 87.499569 341.999797 L 95.500114 333.500057 L 103.499626 333.500057 L 121.499561 341.499569 L 121.499561 357.499626 L 121.000366 361.500415 L 119.499683 377.500472 L 116.000155 393.000301 " transform="matrix(3.779528,0,0,3.779528,0,0)"/>
<path style="fill:none;stroke-width:2;stroke-linecap:butt;stroke-linejoin:miter;stroke:rgb(0%,0%,0%);stroke-opacity:1;stroke-miterlimit:4;" d="M 44.499609 398.499707 L 46.499487 382.49965 L 44.499609 366.499593 L 44.499609 350.499536 L 44.999837 334.500513 L 32.999536 318.500456 " transform="matrix(3.779528,0,0,3.779528,0,0)"/>
<path style="fill:none;stroke-width:2;stroke-linecap:butt;stroke-linejoin:miter;stroke:rgb(0%,0%,0%);stroke-opacity:1;stroke-miterlimit:4;" d="M 18.500163 296.499731 L 25.000024 312.499788 L 25.000024 344.499902 L 25.500252 359.999731 L 25.500252 391.000423 L 31.499886 398.999935 L 51.499699 409.000358 L 67.499756 406.500252 L 100.000098 406.500252 L 116.500382 404.500374 L 132.500439 402.999691 L 148.500496 402.999691 L 170.500187 384.999756 L 188.500122 375.000366 L 204.500179 379.50035 " transform="matrix(3.779528,0,0,3.779528,0,0)"/>
<path style="fill:none;stroke-width:2;stroke-linecap:butt;stroke-linejoin:miter;stroke:rgb(0%,0%,0%);stroke-opacity:1;stroke-miterlimit:4;" d="M 62.00035 391.999845 L 61.500122 375.999788 L 61.500122 329.000073 L 60.000472 313.000016 L 60.000472 296.499731 " transform="matrix(3.779528,0,0,3.779528,0,0)"/>
<path style="fill:none;stroke-width:2;stroke-linecap:butt;stroke-linejoin:miter;stroke:rgb(0%,0%,0%);stroke-opacity:1;stroke-miterlimit:4;" d="M 59.000016 293.500431 L 42.999959 311.500366 L 37.000326 316.999772 L 46.999715 308.500033 L 54.500033 292.499976 " transform="matrix(3.779528,0,0,3.779528,0,0)"/>
<path style="fill:none;stroke-width:2;stroke-linecap:butt;stroke-linejoin:miter;stroke:rgb(0%,0%,0%);stroke-opacity:1;stroke-miterlimit:4;" d="M 66.500334 279.000024 L 68.500212 295.500309 L 66.000106 311.500366 L 67.999984 327.500423 L 67.999984 359.999731 L 67.499756 375.999788 L 67.499756 391.499618 L 73.500423 401.500041 L 89.000252 401.500041 " transform="matrix(3.779528,0,0,3.779528,0,0)"/>
<path style="fill:none;stroke-width:2;stroke-linecap:butt;stroke-linejoin:miter;stroke:rgb(0%,0%,0%);stroke-opacity:1;stroke-miterlimit:4;" d="M 35.000448 163.500098 L 19.000391 147.500041 " transform="matrix(3.779528,0,0,3.779528,0,0)"/>
<path style="fill:none;stroke-width:2;stroke-linecap:butt;stroke-linejoin:miter;stroke:rgb(0%,0%,0%);stroke-opacity:1;stroke-miterlimit:4;" d="M 16.500285 144.999935 L 28.499552 160.499764 " transform="matrix(3.779528,0,0,3.779528,0,0)"/>
<path style="fill:none;stroke-width:2;stroke-linecap:butt;stroke-linejoin:miter;stroke:rgb(0%,0%,0%);stroke-opacity:1;stroke-miterlimit:4;" d="M 32.999536 153.499674 L 17.000513 144.000513 " transform="matrix(3.779528,0,0,3.779528,0,0)"/>
<path style="fill:none;stroke-width:2;stroke-linecap:butt;stroke-linejoin:miter;stroke:rgb(0%,0%,0%);stroke-opacity:1;stroke-miterlimit:4;" d="M 23.000146 146.999813 L 38.499976 162.99987 " transform="matrix(3.779528,0,0,3.779528,0,0)"/>
<path style="fill:none;stroke-width:2;stroke-linecap:butt;stroke-linejoin:miter;stroke:rgb(0%,0%,0%);stroke-opacity:1;stroke-miterlimit:4;" d="M 89.999674 73.500423 L 89.999674 61.500122 L 94.000464 53.499577 L 91.999552 65.499878 L 78.000407 75.999495 L 84.000041 75.999495 L 99.49987 60.000472 " transform="matrix(3.779528,0,0,3.779528,0,0)"/>
<path style="fill:none;stroke-width:2;stroke-linecap:butt;stroke-linejoin:miter;stroke:rgb(0%,0%,0%);stroke-opacity:1;stroke-miterlimit:4;" d="M 166.999626 194.499756 L 204.500179 178.499699 " transform="matrix(3.779528,0,0,3.779528,0,0)"/>
<path style="fill:none;stroke-width:2;stroke-linecap:butt;stroke-linejoin:miter;stroke:rgb(0%,0%,0%);stroke-opacity:1;stroke-miterlimit:4;" d="M 343.999674 91.500358 L 314.000472 107.500415 L 279.500252 123.500472 L 247.500138 139.499495 L 215.500024 155.499552 L 182.00026 171.999837 L 144.000513 187.499666 L 105.999731 203.499723 L 82.000163 216.000252 L 98.00022 218.00013 L 114.000277 210.499813 L 130.000334 204.500179 L 146.000391 198.000317 L 162.000448 191.99965 L 178.000505 183.49991 L 194.499756 177.000049 L 210.499813 169.499731 L 226.49987 164.000326 L 242.499927 156.500008 L 259.000212 148.500496 L 275.000269 141.000179 L 291.000326 132.999634 L 307.000382 127 L 322.500212 118.50026 L 336.000163 105.999731 L 338.000041 109.999487 L 352.00022 105.499504 L 352.00022 119.99991 L 368.000277 128.000456 L 384.000334 137.999845 L 400.000391 146.499585 L 416.000448 154.50013 L 432.000505 159.999536 L 447.999528 168.000081 L 463.999585 175.500399 L 480.49987 182.999683 L 496.499927 191.500456 " transform="matrix(3.779528,0,0,3.779528,0,0)"/>
<path style="fill:none;stroke-width:2;stroke-linecap:butt;stroke-linejoin:miter;stroke:rgb(0%,0%,0%);stroke-opacity:1;stroke-miterlimit:4;" d="M 440.500244 267.499951 L 440.500244 283.500008 L 441.499666 299.500065 L 440.000016 315.500122 L 440.000016 331.500179 L 441.999894 348.000464 L 441.999894 363.999487 L 446.499878 365.500171 L 454.500423 351.499992 " transform="matrix(3.779528,0,0,3.779528,0,0)"/>
<path style="fill:none;stroke-width:2;stroke-linecap:butt;stroke-linejoin:miter;stroke:rgb(0%,0%,0%);stroke-opacity:1;stroke-miterlimit:4;" d="M 493.999821 176.499821 L 468.000374 160.499764 L 441.999894 144.000513 L 413.500342 127.500228 L 389.49974 110.999943 L 361.500415 100.99952 L 353.49987 85.000496 " transform="matrix(3.779528,0,0,3.779528,0,0)"/>
<path style="fill:none;stroke-width:2;stroke-linecap:butt;stroke-linejoin:miter;stroke:rgb(0%,0%,0%);stroke-opacity:1;stroke-miterlimit:4;" d="M 359.000309 83.499813 L 381 99.49987 L 405.499797 115.499927 L 431.500277 131.499984 L 457.999951 146.999813 L 484.000431 163.500098 L 508 179.500155 " transform="matrix(3.779528,0,0,3.779528,0,0)"/>
</g>
</svg>
