<?xml version="1.0" encoding="UTF-8"?>
<svg xmlns="http://www.w3.org/2000/svg" xmlns:xlink="http://www.w3.org/1999/xlink" width="1935.11811" height="1935.11811" viewBox="0 0 1935.11811 1935.11811" version="1.1">
<g id="surface1">
<path style="fill:none;stroke-width:2;stroke-linecap:butt;stroke-linejoin:miter;stroke:rgb(0%,0%,0%);stroke-opacity:1;stroke-miterlimit:4;" d="M 7.500317 130.499528 L 5.500439 146.499585 L 5.500439 178.499699 L 9.500195 194.999984 L 15.499829 200.999618 L 31.499886 205.000407 L 47.499943 209.000163 L 62.999772 211.000041 L 78.999829 214.499569 L 94.499658 216.50048 L 110.999943 220.500236 L 127 222.500114 L 143.000057 226.49987 " transform="matrix(3.779528,0,0,3.779528,0,0)"/>
<path style="fill:none;stroke-width:2;stroke-linecap:butt;stroke-linejoin:miter;stroke:rgb(0%,0%,0%);stroke-opacity:1;stroke-miterlimit:4;" d="M 148.000269 249.500016 L 153.999902 265.500073 L 151.499797 281.50013 L 149.499919 297.500187 L 149.499919 313.500244 L 148.000269 329.999495 L 146.000391 345.500358 L 146.000391 361.500415 L 144.000513 377.999666 " transform="matrix(3.779528,0,0,3.779528,0,0)"/>
<path style="fill:none;stroke-width:2;stroke-linecap:butt;stroke-linejoin:miter;stroke:rgb(0%,0%,0%);stroke-opacity:1;stroke-miterlimit:4;" d="M 212.999919 318.500456 L 207.000285 302.500399 " transform="matrix(3.779528,0,0,3.779528,0,0)"/>
<path style="fill:none;stroke-width:2;stroke-linecap:butt;stroke-linejoin:miter;stroke:rgb(0%,0%,0%);stroke-opacity:1;stroke-miterlimit:4;" d="M 210.499813 305.000505 L 220.500236 320.500334 " transform="matrix(3.779528,0,0,3.779528,0,0)"/>
<path style="fill:none;stroke-width:2;stroke-linecap:butt;stroke-linejoin:miter;stroke:rgb(0%,0%,0%);stroke-opacity:1;stroke-miterlimit:4;" d="M 236.999487 316.00035 L 236.999487 302.000171 " transform="matrix(3.779528,0,0,3.779528,0,0)"/>
<path style="fill:none;stroke-width:2;stroke-linecap:butt;stroke-linejoin:miter;stroke:rgb(0%,0%,0%);stroke-opacity:1;stroke-miterlimit:4;" d="M 232.000309 298.000415 L 248.000366 300.000293 L 261.500317 305.999927 L 261.00009 321.499756 L 274.500041 337.499813 L 280.499674 354.000098 " transform="matrix(3.779528,0,0,3.779528,0,0)"/>
<path style="fill:none;stroke-width:2;stroke-linecap:butt;stroke-linejoin:miter;stroke:rgb(0%,0%,0%);stroke-opacity:1;stroke-miterlimit:4;" d="M 271.000513 336.999585 L 264.999845 314.999894 L 271.000513 311.500366 L 261.00009 325.99974 " transform="matrix(3.779528,0,0,3.779528,0,0)"/>
<path style="fill:none;stroke-width:2;stroke-linecap:butt;stroke-linejoin:miter;stroke:rgb(0%,0%,0%);stroke-opacity:1;stroke-miterlimit:4;" d="M 261.500317 345.999552 L 257.999756 334.000285 L 233.499959 329.999495 L 229.500203 328.499845 L 229.500203 312.499788 L 223.499536 309.00026 L 216.000252 293.000203 L 200.000195 292.499976 " transform="matrix(3.779528,0,0,3.779528,0,0)"/>
<path style="fill:none;stroke-width:2;stroke-linecap:butt;stroke-linejoin:miter;stroke:rgb(0%,0%,0%);stroke-opacity:1;stroke-miterlimit:4;" d="M 205.999829 292.499976 L 199.499967 293.999626 L 201.499845 309.500488 L 209.500391 321.499756 L 203.999951 336.000163 L 220.000008 334.000285 L 241.999699 327.999618 L 260.499862 336.000163 L 276.499919 341.499569 " transform="matrix(3.779528,0,0,3.779528,0,0)"/>
<path style="fill:none;stroke-width:2;stroke-linecap:butt;stroke-linejoin:miter;stroke:rgb(0%,0%,0%);stroke-opacity:1;stroke-miterlimit:4;" d="M 271.999935 352.00022 L 246.499683 339.499691 L 257.000334 323.999862 L 255.49965 307.999805 L 237.499715 307.999805 L 235.499837 311.999561 " transform="matrix(3.779528,0,0,3.779528,0,0)"/>
<path style="fill:none;stroke-width:2;stroke-linecap:butt;stroke-linejoin:miter;stroke:rgb(0%,0%,0%);stroke-opacity:1;stroke-miterlimit:4;" d="M 222.500114 336.500391 L 222.500114 312.499788 L 221.000464 296.499731 L 207.000285 296.499731 " transform="matrix(3.779528,0,0,3.779528,0,0)"/>
<path style="fill:none;stroke-width:2;stroke-linecap:butt;stroke-linejoin:miter;stroke:rgb(0%,0%,0%);stroke-opacity:1;stroke-miterlimit:4;" d="M 275.000269 309.00026 L 270.500285 325.000317 L 266.999723 341.000374 " transform="matrix(3.779528,0,0,3.779528,0,0)"/>
<path style="fill:none;stroke-width:2;stroke-linecap:butt;stroke-linejoin:miter;stroke:rgb(0%,0%,0%);stroke-opacity:1;stroke-miterlimit:4;" d="M 331.500179 325.499512 L 347.500236 329.500301 L 349.500114 333.500057 L 345.500358 352.00022 " transform="matrix(3.779528,0,0,3.779528,0,0)"/>
<path style="fill:none;stroke-width:2;stroke-linecap:butt;stroke-linejoin:miter;stroke:rgb(0%,0%,0%);stroke-opacity:1;stroke-miterlimit:4;" d="M 351.499992 348.999886 L 335.499935 343.000252 " transform="matrix(3.779528,0,0,3.779528,0,0)"/>
<path style="fill:none;stroke-width:2;stroke-linecap:butt;stroke-linejoin:miter;stroke:rgb(0%,0%,0%);stroke-opacity:1;stroke-miterlimit:4;" d="M 335.499935 344.499902 L 343.50048 360.499959 " transform="matrix(3.779528,0,0,3.779528,0,0)"/>
<path style="fill:none;stroke-width:2;stroke-linecap:butt;stroke-linejoin:miter;stroke:rgb(0%,0%,0%);stroke-opacity:1;stroke-miterlimit:4;" d="M 369.499927 350.000342 L 385.499984 359.999731 " transform="matrix(3.779528,0,0,3.779528,0,0)"/>
<path style="fill:none;stroke-width:2;stroke-linecap:butt;stroke-linejoin:miter;stroke:rgb(0%,0%,0%);stroke-opacity:1;stroke-miterlimit:4;" d="M 382.49965 355.499748 L 388.00009 371.499805 " transform="matrix(3.779528,0,0,3.779528,0,0)"/>
<path style="fill:none;stroke-width:2;stroke-linecap:butt;stroke-linejoin:miter;stroke:rgb(0%,0%,0%);stroke-opacity:1;stroke-miterlimit:4;" d="M 402.999691 373.499683 L 400.999813 371.499805 L 395.000179 355.499748 L 399.500163 339.999919 L 413.999536 338.000041 " transform="matrix(3.779528,0,0,3.779528,0,0)"/>
<path style="fill:none;stroke-width:2;stroke-linecap:butt;stroke-linejoin:miter;stroke:rgb(0%,0%,0%);stroke-opacity:1;stroke-miterlimit:4;" d="M 399.500163 334.000285 L 419.499976 336.500391 L 417.500098 352.999642 L 417.500098 369.499927 " transform="matrix(3.779528,0,0,3.779528,0,0)"/>
<path style="fill:none;stroke-width:2;stroke-linecap:butt;stroke-linejoin:miter;stroke:rgb(0%,0%,0%);stroke-opacity:1;stroke-miterlimit:4;" d="M 441.499666 343.999674 L 441.000472 345.999552 L 438.999561 361.500415 L 438.999561 377.500472 L 447.000106 371.499805 L 466.499691 391.499618 " transform="matrix(3.779528,0,0,3.779528,0,0)"/>
<path style="fill:none;stroke-width:2;stroke-linecap:butt;stroke-linejoin:miter;stroke:rgb(0%,0%,0%);stroke-opacity:1;stroke-miterlimit:4;" d="M 474.500236 392.500073 L 458.500179 360.499959 " transform="matrix(3.779528,0,0,3.779528,0,0)"/>
<path style="fill:none;stroke-width:2;stroke-linecap:butt;stroke-linejoin:miter;stroke:rgb(0%,0%,0%);stroke-opacity:1;stroke-miterlimit:4;" d="M 451.50009 354.000098 L 461.500513 343.999674 L 450.999862 360.499959 L 459.000407 376.500016 L 465.500269 392.500073 " transform="matrix(3.779528,0,0,3.779528,0,0)"/>
<path style="fill:none;stroke-width:2;stroke-linecap:butt;stroke-linejoin:miter;stroke:rgb(0%,0%,0%);stroke-opacity:1;stroke-miterlimit:4;" d="M 475.999886 398.499707 L 468.000374 382.000456 L 459.999829 366.000399 L 459.999829 350.000342 " transform="matrix(3.779528,0,0,3.779528,0,0)"/>
<path style="fill:none;stroke-width:2;stroke-linecap:butt;stroke-linejoin:miter;stroke:rgb(0%,0%,0%);stroke-opacity:1;stroke-miterlimit:4;" d="M 446.499878 342.500024 L 445.000228 358.500081 L 447.000106 374.500138 " transform="matrix(3.779528,0,0,3.779528,0,0)"/>
<path style="fill:none;stroke-width:2;stroke-linecap:butt;stroke-linejoin:miter;stroke:rgb(0%,0%,0%);stroke-opacity:1;stroke-miterlimit:4;" d="M 416.499642 377.000244 L 414.499764 372.50026 L 402.500496 366.000399 L 402.000269 355.999976 L 391.999845 353.49987 L 391.999845 337.499813 L 388.500317 330.999951 " transform="matrix(3.779528,0,0,3.779528,0,0)"/>
<path style="fill:none;stroke-width:2;stroke-linecap:butt;stroke-linejoin:miter;stroke:rgb(0%,0%,0%);stroke-opacity:1;stroke-miterlimit:4;" d="M 375.999788 330.499723 L 388.00009 338.000041 L 379.50035 342.500024 L 373.499683 358.500081 " transform="matrix(3.779528,0,0,3.779528,0,0)"/>
<path style="fill:none;stroke-width:2;stroke-linecap:butt;stroke-linejoin:miter;stroke:rgb(0%,0%,0%);stroke-opacity:1;stroke-miterlimit:4;" d="M 361.000187 361.500415 L 364.999943 345.999552 L 370.999577 330.499723 L 375.000366 330.499723 " transform="matrix(3.779528,0,0,3.779528,0,0)"/>
<path style="fill:none;stroke-width:2;stroke-linecap:butt;stroke-linejoin:miter;stroke:rgb(0%,0%,0%);stroke-opacity:1;stroke-miterlimit:4;" d="M 351.499992 346.49978 L 341.499569 330.499723 " transform="matrix(3.779528,0,0,3.779528,0,0)"/>
<path style="fill:none;stroke-width:2;stroke-linecap:butt;stroke-linejoin:miter;stroke:rgb(0%,0%,0%);stroke-opacity:1;stroke-miterlimit:4;" d="M 338.000041 327.999618 L 345.500358 343.999674 L 352.00022 360.499959 " transform="matrix(3.779528,0,0,3.779528,0,0)"/>
<path style="fill:none;stroke-width:2;stroke-linecap:butt;stroke-linejoin:miter;stroke:rgb(0%,0%,0%);stroke-opacity:1;stroke-miterlimit:4;" d="M 348.499658 351.499992 L 340.500146 354.000098 L 339.000496 361.999609 L 330.999951 355.999976 L 332.999829 340.500146 L 334.999707 324.50009 " transform="matrix(3.779528,0,0,3.779528,0,0)"/>
<path style="fill:none;stroke-width:2;stroke-linecap:butt;stroke-linejoin:miter;stroke:rgb(0%,0%,0%);stroke-opacity:1;stroke-miterlimit:4;" d="M 368.500505 436.500488 L 386.500439 440.500244 L 416.499642 448.499756 L 424.500187 446.499878 " transform="matrix(3.779528,0,0,3.779528,0,0)"/>
<path style="fill:none;stroke-width:2;stroke-linecap:butt;stroke-linejoin:miter;stroke:rgb(0%,0%,0%);stroke-opacity:1;stroke-miterlimit:4;" d="M 503.500016 447.999528 L 503.500016 415.50022 L 502.999788 400.000391 L 502.999788 384.000334 L 500.99991 368.000277 L 501.500138 351.499992 L 501.500138 320.000106 L 502.000366 304.000049 L 491.999943 287.999992 L 506.000122 263.500195 L 506.000122 231.500081 L 509.999878 229.500203 " transform="matrix(3.779528,0,0,3.779528,0,0)"/>
<path style="fill:none;stroke-width:2;stroke-linecap:butt;stroke-linejoin:miter;stroke:rgb(0%,0%,0%);stroke-opacity:1;stroke-miterlimit:4;" d="M 495.999699 212.999919 L 479.999642 208.499935 L 464.499813 211.000041 L 448.499756 207.500513 L 432.499699 202.999495 L 416.499642 200.999618 L 400.999813 197.50009 L 384.999756 195.500212 L 368.500505 191.000228 L 352.500448 187.000472 L 336.500391 182.999683 L 320.000106 180.999805 L 304.000049 179.500155 L 287.499764 184.000138 L 271.000513 195.500212 L 255.49965 199.499967 L 239.499593 205.499601 L 223.999764 212.999919 L 221.999886 205.000407 L 220.000008 194.999984 L 252.000122 173.000293 L 287.999992 166.999626 L 302.000171 155.000358 L 323.999862 153.499674 L 307.999805 157.500464 " transform="matrix(3.779528,0,0,3.779528,0,0)"/>
<path style="fill:none;stroke-width:2;stroke-linecap:butt;stroke-linejoin:miter;stroke:rgb(0%,0%,0%);stroke-opacity:1;stroke-miterlimit:4;" d="M 298.999837 171.499609 L 314.999894 175.500399 L 330.999951 177.500277 L 346.49978 181.500033 L 361.999609 182.999683 L 377.999666 187.000472 L 393.999723 189.00035 L 441.999894 202.500301 L 457.999951 204.500179 L 474.000008 205.999829 L 490.000065 205.499601 L 506.000122 209.500391 L 505.499894 223.499536 L 501.500138 227.500326 L 499.50026 243.000155 L 500.000488 259.000212 L 500.499683 275.500496 L 506.50035 291.49952 L 506.50035 323.999862 L 506.000122 339.999919 L 507.499772 355.499748 L 507.499772 371.499805 L 508 387.499862 L 508 435.500033 " transform="matrix(3.779528,0,0,3.779528,0,0)"/>
<path style="fill:none;stroke-width:2;stroke-linecap:butt;stroke-linejoin:miter;stroke:rgb(0%,0%,0%);stroke-opacity:1;stroke-miterlimit:4;" d="M 445.500456 153.499674 L 429.500399 147.500041 L 397.500285 143.500285 L 381.500228 147.500041 L 366.000399 151.499797 L 350.499536 155.499552 L 334.500513 157.500464 L 318.500456 163.500098 L 302.500399 167.499854 L 298.000415 161.50022 L 281.50013 171.999837 L 281.50013 175.999593 L 265.500073 182.00026 L 249.500016 196.000439 L 234.000187 203.499723 L 230.000431 199.499967 L 218.00013 209.500391 L 214.000374 193.500334 L 214.000374 177.500277 L 209.999585 161.50022 L 200.000195 155.499552 L 183.49991 153.499674 L 167.499854 151.499797 " transform="matrix(3.779528,0,0,3.779528,0,0)"/>
<path style="fill:none;stroke-width:2;stroke-linecap:butt;stroke-linejoin:miter;stroke:rgb(0%,0%,0%);stroke-opacity:1;stroke-miterlimit:4;" d="M 180.499577 150.500374 L 196.999862 152.500252 L 212.999919 154.50013 L 228.999976 160.499764 L 245.50026 155.99978 L 261.500317 151.499797 L 277.500374 150.999569 L 293.500431 148.999691 L 309.500488 143.000057 L 325.499512 142.499829 L 341.999797 142.499829 L 357.999854 138.500073 L 374.500138 134.500317 " transform="matrix(3.779528,0,0,3.779528,0,0)"/>
<path style="fill:none;stroke-width:2;stroke-linecap:butt;stroke-linejoin:miter;stroke:rgb(0%,0%,0%);stroke-opacity:1;stroke-miterlimit:4;" d="M 340.500146 134.500317 L 325.000317 136.500195 L 309.00026 135.999967 L 293.000203 135.999967 L 277.000146 137.999845 L 261.00009 137.999845 L 244.499805 141.999601 L 228.999976 143.500285 " transform="matrix(3.779528,0,0,3.779528,0,0)"/>
<path style="fill:none;stroke-width:2;stroke-linecap:butt;stroke-linejoin:miter;stroke:rgb(0%,0%,0%);stroke-opacity:1;stroke-miterlimit:4;" d="M 230.999854 149.499919 L 246.99991 149.499919 L 262.49974 148.000269 " transform="matrix(3.779528,0,0,3.779528,0,0)"/>
<path style="fill:none;stroke-width:2;stroke-linecap:butt;stroke-linejoin:miter;stroke:rgb(0%,0%,0%);stroke-opacity:1;stroke-miterlimit:4;" d="M 259.000212 182.00026 L 248.999788 186.000016 L 232.999731 192.499878 " transform="matrix(3.779528,0,0,3.779528,0,0)"/>
<path style="fill:none;stroke-width:2;stroke-linecap:butt;stroke-linejoin:miter;stroke:rgb(0%,0%,0%);stroke-opacity:1;stroke-miterlimit:4;" d="M 227.000098 186.000016 L 243.000155 177.500277 L 259.000212 171.499609 L 275.000269 166.000203 L 298.999837 172.500065 L 284.999658 188.500122 L 252.999544 192.499878 L 242.499927 204.500179 " transform="matrix(3.779528,0,0,3.779528,0,0)"/>
<path style="fill:none;stroke-width:2;stroke-linecap:butt;stroke-linejoin:miter;stroke:rgb(0%,0%,0%);stroke-opacity:1;stroke-miterlimit:4;" d="M 221.999886 182.500488 L 237.999943 172.500065 L 237.999943 171.999837 L 218.00013 171.999837 L 234.000187 167.499854 L 252.50035 166.999626 L 266.499495 157.500464 L 282.499552 157.999658 L 298.499609 158.499886 L 314.999894 152.500252 L 314.999894 148.999691 L 330.999951 148.999691 L 347.000008 150.999569 L 362.499837 148.500496 L 377.999666 144.000513 " transform="matrix(3.779528,0,0,3.779528,0,0)"/>
<path style="fill:none;stroke-width:2;stroke-linecap:butt;stroke-linejoin:miter;stroke:rgb(0%,0%,0%);stroke-opacity:1;stroke-miterlimit:4;" d="M 341.999797 130.499528 L 325.99974 128.999878 L 309.999683 125.000122 L 293.500431 123.000244 L 277.500374 121.000366 L 261.500317 116.500382 L 245.50026 123.000244 L 229.500203 128.49965 L 213.500146 134.500317 L 197.50009 142.499829 L 180.999805 146.000391 L 218.999552 132.000212 L 257.499528 116.000155 L 229.500203 121.499561 L 214.000374 129.500106 L 198.000317 134.999512 L 182.00026 141.000179 L 166.000203 146.999813 L 150.500374 145.500163 L 134.500317 143.500285 L 118.000033 141.999601 L 101.999976 139.999723 L 85.999919 137.499618 L 69.999862 133.499862 L 53.499577 131.499984 L 36.500098 129.500106 L 20.500041 127.500228 " transform="matrix(3.779528,0,0,3.779528,0,0)"/>
<path style="fill:none;stroke-width:2;stroke-linecap:butt;stroke-linejoin:miter;stroke:rgb(0%,0%,0%);stroke-opacity:1;stroke-miterlimit:4;" d="M 19.499585 123.500472 L 35.499642 121.499561 L 51.999927 119.499683 L 67.999984 116.000155 L 83.499813 112.000399 L 99.49987 109.999487 L 116.000155 105.999731 L 132.000212 103.499626 L 148.500496 99.49987 L 164.49952 105.499504 L 180.000382 107.500415 L 196.000439 109.500293 L 212.000496 109.500293 L 227.99952 111.500171 L 243.999577 112.000399 L 223.999764 123.999666 L 183.49991 139.999723 L 167.499854 159.500342 L 165.499976 175.500399 L 164.999748 191.99965 L 164.999748 223.999764 L 163.500098 239.499593 L 159.500342 255.999878 L 159.500342 271.999935 L 157.500464 287.999992 L 155.499552 304.000049 L 155.99978 320.000106 L 154.50013 336.000163 L 152.500252 352.00022 L 152.500252 368.000277 L 158.499886 384.000334 L 168.000081 386.000212 L 184.000138 389.49974 L 200.000195 391.499618 L 216.000252 395.500407 L 232.000309 398.999935 L 248.499561 401.500041 L 264.499618 405.499797 L 280.999902 407.499674 L 296.999959 411.999658 L 313.000016 413.999536 L 329.000073 415.50022 L 345.00013 418.999748 L 360.499959 420.999626 L 375.999788 425.499609 L 391.999845 427.499487 L 407.499674 429.500399 L 423.499731 433.500155 L 438.999561 435.500033 L 470.999674 443.499544 L 487.499959 445.99965 L 490.000065 457.999951 L 506.50035 459.999829 " transform="matrix(3.779528,0,0,3.779528,0,0)"/>
<path style="fill:none;stroke-width:2;stroke-linecap:butt;stroke-linejoin:miter;stroke:rgb(0%,0%,0%);stroke-opacity:1;stroke-miterlimit:4;" d="M 486.000309 279.500252 L 470.000252 275.500496 L 454.000195 275.500496 L 438.000138 271.499707 L 421.499854 269.499829 L 405.499797 265.500073 L 389.999967 263.500195 L 374.500138 261.00009 L 358.500081 259.000212 L 343.000252 256.500106 L 327.000195 252.50035 L 310.49991 250.999666 L 294.499854 248.999788 L 279.000024 245.50026 L 246.99991 241.500505 L 230.999854 239.499593 L 214.999797 235.499837 L 198.99974 234.999609 L 182.999683 230.499626 L 166.500431 220.500236 " transform="matrix(3.779528,0,0,3.779528,0,0)"/>
<path style="fill:none;stroke-width:2;stroke-linecap:butt;stroke-linejoin:miter;stroke:rgb(0%,0%,0%);stroke-opacity:1;stroke-miterlimit:4;" d="M 105.999731 280.999902 L 105.999731 361.500415 L 107.999609 367.500049 L 124.499894 375.499561 L 140.499951 379.50035 " transform="matrix(3.779528,0,0,3.779528,0,0)"/>
<path style="fill:none;stroke-width:2;stroke-linecap:butt;stroke-linejoin:miter;stroke:rgb(0%,0%,0%);stroke-opacity:1;stroke-miterlimit:4;" d="M 98.500448 368.000277 L 82.500391 365.500171 L 66.000106 361.500415 L 49.499821 357.499626 L 32.999536 353.49987 L 17.000513 352.00022 " transform="matrix(3.779528,0,0,3.779528,0,0)"/>
<path style="fill:none;stroke-width:2;stroke-linecap:butt;stroke-linejoin:miter;stroke:rgb(0%,0%,0%);stroke-opacity:1;stroke-miterlimit:4;" d="M 4.499984 382.49965 L 20.500041 378.499894 L 36.500098 382.49965 L 40.499854 390.500195 L 20.500041 392.500073 L 34.50022 388.500317 L 50.000049 386.000212 L 62.00035 389.999967 L 78.000407 389.49974 L 82.000163 395.999601 L 98.00022 388.00009 L 111.500171 391.999845 L 119.000488 397.500285 L 121.000366 399.500163 L 139.000301 397.500285 L 155.000358 404.000146 L 171.000415 406.000024 L 187.000472 409.99978 L 203.499723 411.999658 L 219.49978 413.999536 L 235.499837 416.000448 L 251.499894 416.000448 L 267.499951 420.000203 L 283.500008 429.999593 L 297.500187 429.500399 L 314.000472 425.000415 L 329.999495 431.500277 L 346.49978 433.500155 L 364.499715 435.500033 L 380.499772 443.999772 L 407.999902 443.999772 L 420.500431 440.000016 L 436.500488 445.99965 L 452.99974 449.500212 L 466.499691 447.500334 L 476.500114 449.500212 L 488.500415 453.499967 " transform="matrix(3.779528,0,0,3.779528,0,0)"/>
<path style="fill:none;stroke-width:2;stroke-linecap:butt;stroke-linejoin:miter;stroke:rgb(0%,0%,0%);stroke-opacity:1;stroke-miterlimit:4;" d="M 509.999878 279.000024 L 493.999821 289.000448 L 478.499992 284.500464 L 462.499935 282.499552 L 447.000106 280.499674 L 431.000049 276.499919 L 398.999935 272.500163 L 382.999878 268.500407 L 366.499593 266.499495 L 350.499536 264.499618 L 334.500513 260.499862 L 286.500342 254.500228 L 270.000057 250.500472 L 254.500228 250.500472 L 238.500171 246.000488 L 206.500057 241.000277 L 189.999772 236.500293 L 174.499943 234.500415 L 152.500252 241.000277 L 139.999723 248.999788 L 123.999666 262.999967 L 107.500415 275.000269 L 89.000252 295.000081 L 73.500423 309.00026 L 57.500366 325.000317 L 57.500366 313.500244 L 41.999504 323.499634 L 25.500252 336.000163 L 9.500195 345.999552 L 11.500073 343.999674 L 35.499642 328.499845 L 49.499821 312.499788 L 69.499634 300.499487 L 85.000496 284.500464 L 105.000309 268.500407 L 129.500106 252.000122 L 143.500285 236.000065 L 151.499797 220.000008 L 135.49974 218.00013 L 119.499683 214.000374 L 103.499626 212.000496 L 87.999797 207.999707 L 71.499512 205.999829 L 55.500488 204.500179 L 39.500431 200.500423 L 23.500374 198.499512 L 7.500317 190.5 " transform="matrix(3.779528,0,0,3.779528,0,0)"/>
<path style="fill:none;stroke-width:2;stroke-linecap:butt;stroke-linejoin:miter;stroke:rgb(0%,0%,0%);stroke-opacity:1;stroke-miterlimit:4;" d="M 5.999634 132.999634 L 21.999691 132.999634 L 37.49952 137.000423 L 53.499577 137.000423 L 69.499634 141.000179 L 85.499691 143.000057 L 100.99952 144.499707 L 116.999577 146.499585 L 133.499862 148.000269 L 149.499919 152.000024 L 159.500342 157.999658 L 159.000114 173.999715 L 159.000114 189.499544 L 157.000236 205.499601 L 153.00048 225.500448 L 144.499707 241.500505 L 124.499894 261.500317 L 106.499959 277.500374 L 92.49978 291.49952 L 75.000073 307.499577 L 59.000016 323.000439 L 53.000382 327.500423 L 66.999528 309.500488 L 89.50048 297.500187 L 78.000407 314.000472 " transform="matrix(3.779528,0,0,3.779528,0,0)"/>
<path style="fill:none;stroke-width:2;stroke-linecap:butt;stroke-linejoin:miter;stroke:rgb(0%,0%,0%);stroke-opacity:1;stroke-miterlimit:4;" d="M 82.500391 309.999683 L 66.000106 326.499967 L 49.499821 334.500513 L 33.499764 339.000496 L 17.499707 348.999886 L 47.499943 331.500179 L 79.500057 299.500065 " transform="matrix(3.779528,0,0,3.779528,0,0)"/>
<path style="fill:none;stroke-width:2;stroke-linecap:butt;stroke-linejoin:miter;stroke:rgb(0%,0%,0%);stroke-opacity:1;stroke-miterlimit:4;" d="M 60.499666 286.500342 L 44.499609 298.499609 L 42.499731 300.999715 L 62.00035 284.500464 L 75.500301 270.500285 L 59.000016 277.999569 L 42.999959 287.499764 L 37.000326 297.500187 L 51.000505 281.50013 L 63.5 273.499585 L 71.499512 283.500008 L 55.500488 295.999504 L 39.999626 302.000171 L 64.000228 289.99987 L 82.000163 273.499585 L 82.000163 257.499528 L 62.499544 263.500195 L 46.499487 271.000513 " transform="matrix(3.779528,0,0,3.779528,0,0)"/>
<path style="fill:none;stroke-width:2;stroke-linecap:butt;stroke-linejoin:miter;stroke:rgb(0%,0%,0%);stroke-opacity:1;stroke-miterlimit:4;" d="M 53.499577 257.499528 L 51.499699 277.000146 L 35.499642 284.999658 " transform="matrix(3.779528,0,0,3.779528,0,0)"/>
<path style="fill:none;stroke-width:2;stroke-linecap:butt;stroke-linejoin:miter;stroke:rgb(0%,0%,0%);stroke-opacity:1;stroke-miterlimit:4;" d="M 60.999894 246.000488 L 39.500431 261.999512 L 32.999536 277.500374 L 29.500008 293.500431 L 31.499886 309.500488 L 41.999504 315.500122 L 64.000228 305.499699 L 80.500513 289.99987 L 96.499536 275.999691 L 112.999821 266.499495 L 128.999878 254.500228 L 144.999935 234.500415 " transform="matrix(3.779528,0,0,3.779528,0,0)"/>
<path style="fill:none;stroke-width:2;stroke-linecap:butt;stroke-linejoin:miter;stroke:rgb(0%,0%,0%);stroke-opacity:1;stroke-miterlimit:4;" d="M 100.000098 283.500008 L 100.000098 347.500236 L 100.500326 363.500293 " transform="matrix(3.779528,0,0,3.779528,0,0)"/>
<path style="fill:none;stroke-width:2;stroke-linecap:butt;stroke-linejoin:miter;stroke:rgb(0%,0%,0%);stroke-opacity:1;stroke-miterlimit:4;" d="M 141.999601 109.500293 L 158.499886 111.500171 L 174.499943 113.500049 " transform="matrix(3.779528,0,0,3.779528,0,0)"/>
<path style="fill:none;stroke-width:2;stroke-linecap:butt;stroke-linejoin:miter;stroke:rgb(0%,0%,0%);stroke-opacity:1;stroke-miterlimit:4;" d="M 273.499585 187.000472 L 281.50013 175.000171 L 287.499764 173.000293 " transform="matrix(3.779528,0,0,3.779528,0,0)"/>
<path style="fill:none;stroke-width:2;stroke-linecap:butt;stroke-linejoin:miter;stroke:rgb(0%,0%,0%);stroke-opacity:1;stroke-miterlimit:4;" d="M 438.999561 151.499797 L 459.000407 153.499674 L 459.499601 161.50022 L 475.499658 157.500464 L 479.999642 160.999992 L 495.999699 165.499976 " transform="matrix(3.779528,0,0,3.779528,0,0)"/>
<path style="fill:none;stroke-width:2;stroke-linecap:butt;stroke-linejoin:miter;stroke:rgb(0%,0%,0%);stroke-opacity:1;stroke-miterlimit:4;" d="M 499.50026 151.499797 L 482.999976 149.499919 L 466.999919 148.000269 L 450.999862 144.499707 L 434.499577 144.999935 L 418.49952 141.000179 L 402.000269 139.499495 L 385.499984 134.999512 L 368.999699 130.999756 L 352.999642 127 L 336.500391 124.499894 L 320.000106 123.000244 L 304.500277 119.000488 L 288.50022 116.999577 L 273.000391 112.999821 L 257.000334 110.999943 L 225.00022 105.999731 L 209.500391 103.499626 L 193.500334 100.99952 L 177.500277 98.500448 L 161.50022 96.000342 L 145.500163 92.49978 L 129.500106 96.999764 L 114.000277 101.499748 L 98.00022 103.999854 L 82.000163 108.499837 L 66.000106 112.499593 L 50.500277 114.000277 L 34.50022 118.000033 L 18.500163 120.500138 L 3.000334 122.500016 " transform="matrix(3.779528,0,0,3.779528,0,0)"/>
</g>
</svg>
