<?xml version="1.0" encoding="UTF-8"?>
<svg xmlns="http://www.w3.org/2000/svg" xmlns:xlink="http://www.w3.org/1999/xlink" width="1935.11811" height="1935.11811" viewBox="0 0 1935.11811 1935.11811" version="1.1">
<g id="surface1">
<path style="fill:none;stroke-width:2;stroke-linecap:butt;stroke-linejoin:miter;stroke:rgb(0%,0%,0%);stroke-opacity:1;stroke-miterlimit:4;" d="M 125.50035 54.500033 L 107.500415 70.50009 L 99.49987 86.500146 L 95.500114 102.500203 L 101.499748 119.000488 L 81.499935 134.999512 L 87.499569 150.999569 L 99.49987 166.999626 L 112.999821 184.999561 L 114.999699 200.500423 L 126.499772 212.499691 L 143.000057 216.50048 L 175.000171 220.500236 L 191.500456 223.999764 L 193.500334 229.500203 L 217.499902 225.00022 L 233.499959 225.00022 L 249.500016 218.999552 L 263.500195 208.499935 L 280.00048 194.499756 L 293.999626 184.500366 L 310.49991 168.500309 " transform="matrix(3.779528,0,0,3.779528,0,0)"/>
<path style="fill:none;stroke-width:2;stroke-linecap:butt;stroke-linejoin:miter;stroke:rgb(0%,0%,0%);stroke-opacity:1;stroke-miterlimit:4;" d="M 317.5 162.499642 L 301.499943 178.499699 L 289.499642 192.499878 L 265.500073 208.499935 L 265.500073 224.499992 L 259.500439 239.999821 L 259.999634 255.999878 L 259.999634 271.999935 L 260.499862 287.999992 L 260.499862 304.000049 L 252.999544 317.5 " transform="matrix(3.779528,0,0,3.779528,0,0)"/>
<path style="fill:none;stroke-width:2;stroke-linecap:butt;stroke-linejoin:miter;stroke:rgb(0%,0%,0%);stroke-opacity:1;stroke-miterlimit:4;" d="M 196.499634 245.50026 L 180.000382 243.999577 L 164.000326 241.999699 L 148.000269 239.499593 L 132.000212 237.499715 L 115.499927 235.499837 L 98.500448 233.499959 L 82.500391 229.500203 " transform="matrix(3.779528,0,0,3.779528,0,0)"/>
<path style="fill:none;stroke-width:2;stroke-linecap:butt;stroke-linejoin:miter;stroke:rgb(0%,0%,0%);stroke-opacity:1;stroke-miterlimit:4;" d="M 81.499935 237.499715 L 97.499992 239.499593 L 114.000277 243.500382 L 130.000334 246.000488 L 145.500163 248.000366 L 161.50022 248.000366 L 178.000505 250.000244 L 193.999528 253.499772 L 212.499691 257.499528 L 212.499691 273.499585 L 214.000374 289.499642 L 212.000496 305.499699 L 209.999585 321.499756 L 214.000374 337.499813 L 221.999886 343.999674 L 237.999943 341.999797 " transform="matrix(3.779528,0,0,3.779528,0,0)"/>
<path style="fill:none;stroke-width:2;stroke-linecap:butt;stroke-linejoin:miter;stroke:rgb(0%,0%,0%);stroke-opacity:1;stroke-miterlimit:4;" d="M 193.000106 345.500358 L 177.500277 345.999552 L 162.000448 348.000464 L 146.000391 348.000464 L 130.000334 349.500114 L 114.000277 352.00022 L 98.00022 354.000098 L 82.500391 356.500203 L 66.500334 356.500203 L 18.500163 362.499837 L 2.500106 362.499837 " transform="matrix(3.779528,0,0,3.779528,0,0)"/>
<path style="fill:none;stroke-width:2;stroke-linecap:butt;stroke-linejoin:miter;stroke:rgb(0%,0%,0%);stroke-opacity:1;stroke-miterlimit:4;" d="M 82.000163 302.500399 L 82.500391 286.000114 L 82.500391 254.500228 L 82.999585 238.500171 " transform="matrix(3.779528,0,0,3.779528,0,0)"/>
<path style="fill:none;stroke-width:2;stroke-linecap:butt;stroke-linejoin:miter;stroke:rgb(0%,0%,0%);stroke-opacity:1;stroke-miterlimit:4;" d="M 78.000407 205.000407 L 94.000464 202.999495 L 109.500293 207.000285 L 149.499919 207.000285 L 165.499976 205.000407 L 180.999805 200.500423 L 196.999862 192.499878 " transform="matrix(3.779528,0,0,3.779528,0,0)"/>
<path style="fill:none;stroke-width:2;stroke-linecap:butt;stroke-linejoin:miter;stroke:rgb(0%,0%,0%);stroke-opacity:1;stroke-miterlimit:4;" d="M 194.499756 196.499634 L 204.500179 198.499512 L 188.500122 204.500179 L 173.000293 208.499935 L 157.000236 210.499813 " transform="matrix(3.779528,0,0,3.779528,0,0)"/>
<path style="fill:none;stroke-width:2;stroke-linecap:butt;stroke-linejoin:miter;stroke:rgb(0%,0%,0%);stroke-opacity:1;stroke-miterlimit:4;" d="M 159.000114 214.499569 L 175.000171 214.499569 L 191.000228 218.500358 L 207.000285 220.000008 L 223.000342 220.000008 L 239.000399 217.499902 L 255.000456 214.000374 L 264.999845 220.000008 L 280.999902 224.499992 L 297.500187 232.499504 L 315.500122 248.499561 L 330.999951 260.499862 L 347.000008 270.500285 L 362.499837 257.999756 L 377.999666 243.999577 L 393.999723 229.500203 L 409.499552 215.500024 L 425.499609 203.499723 " transform="matrix(3.779528,0,0,3.779528,0,0)"/>
<path style="fill:none;stroke-width:2;stroke-linecap:butt;stroke-linejoin:miter;stroke:rgb(0%,0%,0%);stroke-opacity:1;stroke-miterlimit:4;" d="M 410.500008 209.500391 L 395.000179 221.499658 L 379.000122 236.000065 L 363.000065 248.000366 " transform="matrix(3.779528,0,0,3.779528,0,0)"/>
<path style="fill:none;stroke-width:2;stroke-linecap:butt;stroke-linejoin:miter;stroke:rgb(0%,0%,0%);stroke-opacity:1;stroke-miterlimit:4;" d="M 363.500293 250.000244 L 350.000342 264.000423 L 334.000285 254 " transform="matrix(3.779528,0,0,3.779528,0,0)"/>
<path style="fill:none;stroke-width:2;stroke-linecap:butt;stroke-linejoin:miter;stroke:rgb(0%,0%,0%);stroke-opacity:1;stroke-miterlimit:4;" d="M 288.50022 221.999886 L 273.000391 219.49978 " transform="matrix(3.779528,0,0,3.779528,0,0)"/>
<path style="fill:none;stroke-width:2;stroke-linecap:butt;stroke-linejoin:miter;stroke:rgb(0%,0%,0%);stroke-opacity:1;stroke-miterlimit:4;" d="M 269.499829 220.500236 L 301.499943 236.500293 L 327.000195 252.50035 " transform="matrix(3.779528,0,0,3.779528,0,0)"/>
<path style="fill:none;stroke-width:2;stroke-linecap:butt;stroke-linejoin:miter;stroke:rgb(0%,0%,0%);stroke-opacity:1;stroke-miterlimit:4;" d="M 326.499967 258.499984 L 300.499487 242.499927 L 272.500163 226.49987 " transform="matrix(3.779528,0,0,3.779528,0,0)"/>
<path style="fill:none;stroke-width:2;stroke-linecap:butt;stroke-linejoin:miter;stroke:rgb(0%,0%,0%);stroke-opacity:1;stroke-miterlimit:4;" d="M 274.500041 204.500179 L 280.999902 220.500236 L 286.999536 234.500415 L 302.999593 243.999577 L 318.99965 246.000488 L 334.999707 251.499894 L 350.999764 251.499894 L 366.999821 236.999487 L 383.500106 223.000342 L 401.500041 209.000163 L 417.500098 197.50009 " transform="matrix(3.779528,0,0,3.779528,0,0)"/>
<path style="fill:none;stroke-width:2;stroke-linecap:butt;stroke-linejoin:miter;stroke:rgb(0%,0%,0%);stroke-opacity:1;stroke-miterlimit:4;" d="M 365.500171 159.999536 L 349.500114 152.000024 " transform="matrix(3.779528,0,0,3.779528,0,0)"/>
<path style="fill:none;stroke-width:2;stroke-linecap:butt;stroke-linejoin:miter;stroke:rgb(0%,0%,0%);stroke-opacity:1;stroke-miterlimit:4;" d="M 347.000008 148.500496 L 373.000488 164.49952 " transform="matrix(3.779528,0,0,3.779528,0,0)"/>
<path style="fill:none;stroke-width:2;stroke-linecap:butt;stroke-linejoin:miter;stroke:rgb(0%,0%,0%);stroke-opacity:1;stroke-miterlimit:4;" d="M 364.499715 153.999902 L 348.999886 147.500041 L 332.999829 141.500407 " transform="matrix(3.779528,0,0,3.779528,0,0)"/>
<path style="fill:none;stroke-width:2;stroke-linecap:butt;stroke-linejoin:miter;stroke:rgb(0%,0%,0%);stroke-opacity:1;stroke-miterlimit:4;" d="M 334.999707 144.499707 L 325.000317 139.999723 L 309.00026 155.99978 L 295.000081 171.499609 L 278.499797 187.499666 L 259.999634 203.499723 L 252.000122 227.500326 L 265.500073 245.50026 L 265.500073 309.500488 L 259.500439 325.499512 L 249.500016 337.499813 L 265.500073 333.500057 L 280.999902 331.500179 L 297.500187 329.500301 L 314.000472 327.000195 L 329.999495 327.500423 L 345.999552 325.499512 L 361.999609 323.999862 L 377.999666 321.999984 L 394.499951 320.000106 L 410.500008 320.000106 L 426.500065 318.000228 L 442.500122 316.499544 L 458.500179 316.00035 L 474.500236 314.000472 L 490.000065 311.500366 L 506.000122 311.500366 " transform="matrix(3.779528,0,0,3.779528,0,0)"/>
<path style="fill:none;stroke-width:2;stroke-linecap:butt;stroke-linejoin:miter;stroke:rgb(0%,0%,0%);stroke-opacity:1;stroke-miterlimit:4;" d="M 352.999642 252.000122 L 370.500382 235.499837 L 390.500195 220.000008 L 409.99978 204.500179 L 413.999536 188.500122 L 377.500472 171.999837 L 343.999674 155.99978 " transform="matrix(3.779528,0,0,3.779528,0,0)"/>
<path style="fill:none;stroke-width:2;stroke-linecap:butt;stroke-linejoin:miter;stroke:rgb(0%,0%,0%);stroke-opacity:1;stroke-miterlimit:4;" d="M 338.500269 141.000179 L 332.499601 142.499829 L 316.499544 158.499886 L 306.500155 168.500309 L 322.500212 150.500374 L 338.500269 152.500252 L 354.99952 162.499642 L 370.999577 168.500309 L 387.499862 173.999715 L 391.000423 175.999593 L 407.00048 184.500366 L 422.999504 191.99965 L 402.999691 216.000252 " transform="matrix(3.779528,0,0,3.779528,0,0)"/>
<path style="fill:none;stroke-width:2;stroke-linecap:butt;stroke-linejoin:miter;stroke:rgb(0%,0%,0%);stroke-opacity:1;stroke-miterlimit:4;" d="M 351.499992 268.000179 L 368.999699 252.000122 L 378.499894 236.000065 L 391.999845 232.499504 L 409.499552 216.50048 L 431.500277 200.999618 L 417.500098 184.999561 L 389.49974 171.499609 L 371.499805 155.499552 L 343.50048 139.499495 " transform="matrix(3.779528,0,0,3.779528,0,0)"/>
<path style="fill:none;stroke-width:2;stroke-linecap:butt;stroke-linejoin:miter;stroke:rgb(0%,0%,0%);stroke-opacity:1;stroke-miterlimit:4;" d="M 211.000041 109.500293 L 194.999984 111.500171 L 178.999927 114.000277 " transform="matrix(3.779528,0,0,3.779528,0,0)"/>
<path style="fill:none;stroke-width:2;stroke-linecap:butt;stroke-linejoin:miter;stroke:rgb(0%,0%,0%);stroke-opacity:1;stroke-miterlimit:4;" d="M 189.999772 109.500293 L 180.000382 125.50035 L 173.999715 132.000212 " transform="matrix(3.779528,0,0,3.779528,0,0)"/>
<path style="fill:none;stroke-width:2;stroke-linecap:butt;stroke-linejoin:miter;stroke:rgb(0%,0%,0%);stroke-opacity:1;stroke-miterlimit:4;" d="M 191.99965 150.000146 L 198.000317 134.00009 L 193.500334 132.000212 L 186.000016 125.999544 L 185.499788 137.999845 L 169.499731 138.500073 L 161.50022 130.499528 L 159.500342 125.000122 L 166.000203 109.000065 L 155.99978 106.499959 " transform="matrix(3.779528,0,0,3.779528,0,0)"/>
<path style="fill:none;stroke-width:2;stroke-linecap:butt;stroke-linejoin:miter;stroke:rgb(0%,0%,0%);stroke-opacity:1;stroke-miterlimit:4;" d="M 152.000024 105.499504 L 150.000146 121.499561 L 149.499919 137.499618 L 149.499919 157.500464 L 157.500464 163.500098 L 173.999715 168.000081 L 186.000016 157.500464 " transform="matrix(3.779528,0,0,3.779528,0,0)"/>
<path style="fill:none;stroke-width:2;stroke-linecap:butt;stroke-linejoin:miter;stroke:rgb(0%,0%,0%);stroke-opacity:1;stroke-miterlimit:4;" d="M 193.999528 103.499626 L 178.000505 107.999609 L 159.999536 119.99991 L 171.999837 118.50026 L 159.999536 100.500326 " transform="matrix(3.779528,0,0,3.779528,0,0)"/>
<path style="fill:none;stroke-width:2;stroke-linecap:butt;stroke-linejoin:miter;stroke:rgb(0%,0%,0%);stroke-opacity:1;stroke-miterlimit:4;" d="M 144.000513 109.000065 L 144.000513 125.50035 " transform="matrix(3.779528,0,0,3.779528,0,0)"/>
<path style="fill:none;stroke-width:2;stroke-linecap:butt;stroke-linejoin:miter;stroke:rgb(0%,0%,0%);stroke-opacity:1;stroke-miterlimit:4;" d="M 132.500439 110.499715 L 114.999699 110.499715 L 110.999943 122.500016 L 109.000065 138.500073 L 99.49987 153.999902 L 111.500171 169.499731 L 135.49974 184.999561 L 167.499854 184.999561 L 191.500456 170.500187 L 203.999951 152.500252 L 196.000439 168.500309 " transform="matrix(3.779528,0,0,3.779528,0,0)"/>
<path style="fill:none;stroke-width:2;stroke-linecap:butt;stroke-linejoin:miter;stroke:rgb(0%,0%,0%);stroke-opacity:1;stroke-miterlimit:4;" d="M 193.000106 147.500041 L 177.000049 161.50022 L 160.999992 159.500342 L 143.000057 157.000236 L 127 150.500374 L 110.499715 134.500317 " transform="matrix(3.779528,0,0,3.779528,0,0)"/>
<path style="fill:none;stroke-width:2;stroke-linecap:butt;stroke-linejoin:miter;stroke:rgb(0%,0%,0%);stroke-opacity:1;stroke-miterlimit:4;" d="M 107.999609 131.499984 L 114.500505 111.500171 L 130.499528 103.499626 L 146.499585 100.000098 L 134.500317 112.000399 L 130.499528 116.000155 " transform="matrix(3.779528,0,0,3.779528,0,0)"/>
<path style="fill:none;stroke-width:2;stroke-linecap:butt;stroke-linejoin:miter;stroke:rgb(0%,0%,0%);stroke-opacity:1;stroke-miterlimit:4;" d="M 128.000456 114.500505 L 135.49974 130.000334 L 143.500285 145.500163 L 133.499862 157.500464 L 150.000146 169.999959 L 166.000203 175.999593 L 182.00026 173.999715 " transform="matrix(3.779528,0,0,3.779528,0,0)"/>
<path style="fill:none;stroke-width:2;stroke-linecap:butt;stroke-linejoin:miter;stroke:rgb(0%,0%,0%);stroke-opacity:1;stroke-miterlimit:4;" d="M 150.000146 179.500155 L 134.00009 179.500155 L 118.50026 171.499609 L 102.500203 157.000236 " transform="matrix(3.779528,0,0,3.779528,0,0)"/>
<path style="fill:none;stroke-width:2;stroke-linecap:butt;stroke-linejoin:miter;stroke:rgb(0%,0%,0%);stroke-opacity:1;stroke-miterlimit:4;" d="M 99.49987 153.00048 L 115.499927 148.999691 L 131.499984 163.500098 L 147.500041 173.499487 " transform="matrix(3.779528,0,0,3.779528,0,0)"/>
<path style="fill:none;stroke-width:2;stroke-linecap:butt;stroke-linejoin:miter;stroke:rgb(0%,0%,0%);stroke-opacity:1;stroke-miterlimit:4;" d="M 136.500195 167.499854 L 116.000155 151.499797 L 97.499992 139.499495 L 96.999764 121.499561 L 80.999707 134.00009 " transform="matrix(3.779528,0,0,3.779528,0,0)"/>
<path style="fill:none;stroke-width:2;stroke-linecap:butt;stroke-linejoin:miter;stroke:rgb(0%,0%,0%);stroke-opacity:1;stroke-miterlimit:4;" d="M 79.500057 142.499829 L 95.500114 158.499886 L 111.500171 176.499821 L 117.499805 182.500488 " transform="matrix(3.779528,0,0,3.779528,0,0)"/>
<path style="fill:none;stroke-width:2;stroke-linecap:butt;stroke-linejoin:miter;stroke:rgb(0%,0%,0%);stroke-opacity:1;stroke-miterlimit:4;" d="M 116.999577 144.999935 L 134.500317 160.999992 L 162.99987 177.000049 " transform="matrix(3.779528,0,0,3.779528,0,0)"/>
<path style="fill:none;stroke-width:2;stroke-linecap:butt;stroke-linejoin:miter;stroke:rgb(0%,0%,0%);stroke-opacity:1;stroke-miterlimit:4;" d="M 200.000195 225.999642 L 207.999707 241.999699 L 200.000195 261.999512 L 200.000195 294.499854 " transform="matrix(3.779528,0,0,3.779528,0,0)"/>
<path style="fill:none;stroke-width:2;stroke-linecap:butt;stroke-linejoin:miter;stroke:rgb(0%,0%,0%);stroke-opacity:1;stroke-miterlimit:4;" d="M 204.500179 322.500212 L 204.500179 306.500155 L 205.999829 291.000326 L 205.999829 259.500439 L 212.000496 243.500382 L 214.499569 227.500326 " transform="matrix(3.779528,0,0,3.779528,0,0)"/>
<path style="fill:none;stroke-width:2;stroke-linecap:butt;stroke-linejoin:miter;stroke:rgb(0%,0%,0%);stroke-opacity:1;stroke-miterlimit:4;" d="M 220.000008 97.499992 L 203.499723 78.000407 L 171.499609 57.999561 L 155.499552 53.999805 L 139.999723 51.499699 L 123.999666 55.500488 L 107.999609 67.499756 L 105.999731 93.500236 L 114.000277 77.500179 L 109.999487 77.500179 L 103.999854 97.499992 L 127.500228 111.500171 L 111.500171 117.499805 " transform="matrix(3.779528,0,0,3.779528,0,0)"/>
<path style="fill:none;stroke-width:2;stroke-linecap:butt;stroke-linejoin:miter;stroke:rgb(0%,0%,0%);stroke-opacity:1;stroke-miterlimit:4;" d="M 109.500293 76.999951 L 101.499748 93.000008 L 107.500415 107.000187 L 123.500472 101.499748 L 139.999723 98.00022 L 155.99978 94.499658 L 171.999837 96.499536 L 209.999585 96.499536 " transform="matrix(3.779528,0,0,3.779528,0,0)"/>
<path style="fill:none;stroke-width:2;stroke-linecap:butt;stroke-linejoin:miter;stroke:rgb(0%,0%,0%);stroke-opacity:1;stroke-miterlimit:4;" d="M 219.49978 100.000098 L 209.000163 84.000041 " transform="matrix(3.779528,0,0,3.779528,0,0)"/>
<path style="fill:none;stroke-width:2;stroke-linecap:butt;stroke-linejoin:miter;stroke:rgb(0%,0%,0%);stroke-opacity:1;stroke-miterlimit:4;" d="M 162.99987 55.500488 L 189.00035 71.499512 L 201.499845 87.499569 L 207.500513 115.499927 L 209.999585 123.000244 L 205.999829 139.499495 L 198.000317 155.499552 L 184.000138 171.999837 L 187.999894 175.999593 L 186.000016 184.500366 L 202.000073 186.500244 L 218.00013 196.999862 L 233.499959 200.999618 L 249.500016 202.500301 L 265.500073 202.500301 L 281.50013 184.000138 L 298.000415 168.000081 L 313.500244 150.000146 L 329.999495 135.999967 L 345.999552 137.999845 L 361.999609 148.000269 L 377.999666 156.500008 L 393.999723 166.000203 L 409.499552 178.000505 L 425.499609 187.499666 " transform="matrix(3.779528,0,0,3.779528,0,0)"/>
<path style="fill:none;stroke-width:2;stroke-linecap:butt;stroke-linejoin:miter;stroke:rgb(0%,0%,0%);stroke-opacity:1;stroke-miterlimit:4;" d="M 255.49965 327.500423 L 239.499593 333.500057 L 223.999764 336.999585 L 202.000073 341.000374 L 186.000016 339.000496 L 169.999959 339.000496 L 153.999902 336.999585 L 137.999845 334.999707 L 121.999788 333.500057 L 105.999731 331.500179 L 89.999674 331.500179 L 82.000163 329.500301 L 75.999495 313.500244 L 75.500301 296.999959 L 75.000073 280.999902 L 75.000073 218.500358 L 78.999829 202.500301 " transform="matrix(3.779528,0,0,3.779528,0,0)"/>
</g>
</svg>
