<?xml version="1.0" encoding="UTF-8"?>
<svg xmlns="http://www.w3.org/2000/svg" xmlns:xlink="http://www.w3.org/1999/xlink" width="1935.11811" height="1935.11811" viewBox="0 0 1935.11811 1935.11811" version="1.1">
<g id="surface1">
<path style="fill:none;stroke-width:2;stroke-linecap:butt;stroke-linejoin:miter;stroke:rgb(0%,0%,0%);stroke-opacity:1;stroke-miterlimit:4;" d="M 179.500155 6.499862 L 169.499731 22.499919 L 185.499788 38.499976 L 187.499666 54.500033 L 171.499609 71.000317 L 157.500464 87.000374 L 149.499919 103.000431 L 143.500285 119.000488 L 141.000179 134.999512 L 144.999935 110.499715 L 160.499764 80.500513 L 182.999683 76.499723 L 198.99974 62.499544 L 214.999797 60.499666 L 231.500081 66.000106 L 255.49965 87.499569 L 271.499707 64.99965 L 287.499764 59.000016 L 303.499821 60.999894 L 319.499878 74.499845 " transform="matrix(3.779528,0,0,3.779528,0,0)"/>
<path style="fill:none;stroke-width:2;stroke-linecap:butt;stroke-linejoin:miter;stroke:rgb(0%,0%,0%);stroke-opacity:1;stroke-miterlimit:4;" d="M 343.50048 61.500122 L 327.500423 47.499943 " transform="matrix(3.779528,0,0,3.779528,0,0)"/>
<path style="fill:none;stroke-width:2;stroke-linecap:butt;stroke-linejoin:miter;stroke:rgb(0%,0%,0%);stroke-opacity:1;stroke-miterlimit:4;" d="M 331.500179 42.999959 L 347.500236 48.999593 L 363.999487 55.00026 L 379.999544 61.500122 L 388.500317 82.000163 L 382.999878 98.00022 L 379.000122 114.000277 L 377.000244 130.000334 L 373.499683 146.000391 L 365.500171 162.000448 L 361.500415 178.499699 L 361.000187 194.499756 L 352.999642 210.499813 L 377.000244 226.49987 L 388.500317 241.999699 " transform="matrix(3.779528,0,0,3.779528,0,0)"/>
<path style="fill:none;stroke-width:2;stroke-linecap:butt;stroke-linejoin:miter;stroke:rgb(0%,0%,0%);stroke-opacity:1;stroke-miterlimit:4;" d="M 406.500252 232.499504 L 396.499829 216.50048 L 393.999723 200.500423 L 393.999723 184.500366 L 397.500285 168.500309 L 407.499674 152.000024 L 393.499495 164.000326 " transform="matrix(3.779528,0,0,3.779528,0,0)"/>
<path style="fill:none;stroke-width:2;stroke-linecap:butt;stroke-linejoin:miter;stroke:rgb(0%,0%,0%);stroke-opacity:1;stroke-miterlimit:4;" d="M 392.500073 151.499797 L 398.499707 139.499495 L 382.999878 155.499552 L 377.500472 171.499609 L 375.499561 187.499666 L 375.999788 203.499723 L 372.000033 214.000374 L 388.500317 239.999821 L 404.500374 246.000488 L 420.999626 246.499683 L 436.999683 262.49974 " transform="matrix(3.779528,0,0,3.779528,0,0)"/>
<path style="fill:none;stroke-width:2;stroke-linecap:butt;stroke-linejoin:miter;stroke:rgb(0%,0%,0%);stroke-opacity:1;stroke-miterlimit:4;" d="M 454.500423 255.49965 L 438.500366 253.499772 L 422.500309 237.499715 L 408.50013 221.499658 L 406.500252 205.499601 L 406.500252 189.999772 L 408.50013 174.499943 L 416.000448 158.499886 L 427.999715 142.499829 L 428.499943 126.499772 L 430.499821 110.499715 L 434.499577 96.499536 " transform="matrix(3.779528,0,0,3.779528,0,0)"/>
<path style="fill:none;stroke-width:2;stroke-linecap:butt;stroke-linejoin:miter;stroke:rgb(0%,0%,0%);stroke-opacity:1;stroke-miterlimit:4;" d="M 441.999894 98.999642 L 426.500065 114.999699 " transform="matrix(3.779528,0,0,3.779528,0,0)"/>
<path style="fill:none;stroke-width:2;stroke-linecap:butt;stroke-linejoin:miter;stroke:rgb(0%,0%,0%);stroke-opacity:1;stroke-miterlimit:4;" d="M 420.000203 118.50026 L 436.500488 132.999634 " transform="matrix(3.779528,0,0,3.779528,0,0)"/>
<path style="fill:none;stroke-width:2;stroke-linecap:butt;stroke-linejoin:miter;stroke:rgb(0%,0%,0%);stroke-opacity:1;stroke-miterlimit:4;" d="M 422.000081 149.499919 L 406.000024 177.500277 " transform="matrix(3.779528,0,0,3.779528,0,0)"/>
<path style="fill:none;stroke-width:2;stroke-linecap:butt;stroke-linejoin:miter;stroke:rgb(0%,0%,0%);stroke-opacity:1;stroke-miterlimit:4;" d="M 418.000326 175.999593 L 434.000382 157.999658 L 450.499634 148.000269 L 466.499691 155.99978 L 482.999976 171.499609 " transform="matrix(3.779528,0,0,3.779528,0,0)"/>
<path style="fill:none;stroke-width:2;stroke-linecap:butt;stroke-linejoin:miter;stroke:rgb(0%,0%,0%);stroke-opacity:1;stroke-miterlimit:4;" d="M 450.499634 173.000293 L 434.499577 182.999683 " transform="matrix(3.779528,0,0,3.779528,0,0)"/>
<path style="fill:none;stroke-width:2;stroke-linecap:butt;stroke-linejoin:miter;stroke:rgb(0%,0%,0%);stroke-opacity:1;stroke-miterlimit:4;" d="M 432.000505 180.000382 L 432.000505 196.000439 L 427.999715 212.000496 L 434.000382 236.500293 L 450.000439 246.499683 L 466.000496 232.499504 " transform="matrix(3.779528,0,0,3.779528,0,0)"/>
<path style="fill:none;stroke-width:2;stroke-linecap:butt;stroke-linejoin:miter;stroke:rgb(0%,0%,0%);stroke-opacity:1;stroke-miterlimit:4;" d="M 461.000285 249.500016 L 461.000285 243.500382 L 445.000228 249.500016 L 428.499943 235.499837 " transform="matrix(3.779528,0,0,3.779528,0,0)"/>
<path style="fill:none;stroke-width:2;stroke-linecap:butt;stroke-linejoin:miter;stroke:rgb(0%,0%,0%);stroke-opacity:1;stroke-miterlimit:4;" d="M 434.499577 235.499837 L 425.999837 218.999552 L 423.999959 203.499723 L 425.999837 187.499666 L 429.999593 171.499609 L 438.000138 169.999959 L 446.499878 169.999959 L 426.500065 182.00026 " transform="matrix(3.779528,0,0,3.779528,0,0)"/>
<path style="fill:none;stroke-width:2;stroke-linecap:butt;stroke-linejoin:miter;stroke:rgb(0%,0%,0%);stroke-opacity:1;stroke-miterlimit:4;" d="M 416.99987 194.499756 L 416.499642 210.499813 " transform="matrix(3.779528,0,0,3.779528,0,0)"/>
<path style="fill:none;stroke-width:2;stroke-linecap:butt;stroke-linejoin:miter;stroke:rgb(0%,0%,0%);stroke-opacity:1;stroke-miterlimit:4;" d="M 377.999666 168.999504 L 382.000456 148.999691 L 397.500285 140.499951 L 413.500342 136.500195 L 429.999593 139.000301 L 432.000505 159.000114 L 422.000081 175.000171 L 415.50022 185.499788 L 420.000203 199.499967 L 420.000203 215.500024 L 423.999959 231.500081 L 438.000138 247.500138 L 422.000081 261.999512 L 411.999658 277.999569 " transform="matrix(3.779528,0,0,3.779528,0,0)"/>
<path style="fill:none;stroke-width:2;stroke-linecap:butt;stroke-linejoin:miter;stroke:rgb(0%,0%,0%);stroke-opacity:1;stroke-miterlimit:4;" d="M 407.999902 280.499674 L 423.999959 296.499731 L 420.000203 311.999561 " transform="matrix(3.779528,0,0,3.779528,0,0)"/>
<path style="fill:none;stroke-width:2;stroke-linecap:butt;stroke-linejoin:miter;stroke:rgb(0%,0%,0%);stroke-opacity:1;stroke-miterlimit:4;" d="M 422.999504 318.500456 L 407.499674 328.499845 L 391.499618 326.499967 L 375.499561 312.499788 L 359.499504 304.500277 L 341.499569 286.999536 " transform="matrix(3.779528,0,0,3.779528,0,0)"/>
<path style="fill:none;stroke-width:2;stroke-linecap:butt;stroke-linejoin:miter;stroke:rgb(0%,0%,0%);stroke-opacity:1;stroke-miterlimit:4;" d="M 345.999552 284.999658 L 361.999609 296.499731 L 378.499894 284.000236 L 394.499951 280.00048 L 411.000236 263.500195 L 414.999992 267.499951 " transform="matrix(3.779528,0,0,3.779528,0,0)"/>
<path style="fill:none;stroke-width:2;stroke-linecap:butt;stroke-linejoin:miter;stroke:rgb(0%,0%,0%);stroke-opacity:1;stroke-miterlimit:4;" d="M 404.999569 278.499797 L 393.000301 294.499854 L 370.999577 302.500399 L 381 309.999683 L 397.000057 311.999561 L 413.000114 319.499878 " transform="matrix(3.779528,0,0,3.779528,0,0)"/>
<path style="fill:none;stroke-width:2;stroke-linecap:butt;stroke-linejoin:miter;stroke:rgb(0%,0%,0%);stroke-opacity:1;stroke-miterlimit:4;" d="M 443.499544 280.499674 L 421.499854 290.500098 L 437.49991 278.499797 L 434.000382 262.49974 L 456.500301 248.499561 L 459.000407 240.500049 L 475.000464 232.499504 L 481.000098 216.50048 L 475.000464 203.999951 L 481.000098 189.999772 L 479.00022 173.999715 L 474.500236 166.000203 L 472.999552 155.99978 L 461.000285 139.999723 L 456.999495 123.999666 L 454.999618 107.999609 L 450.999862 91.999552 L 445.000228 73.999618 L 418.999748 55.999683 L 447.000106 48.000171 L 431.000049 39.999626 L 414.999992 51.999927 " transform="matrix(3.779528,0,0,3.779528,0,0)"/>
<path style="fill:none;stroke-width:2;stroke-linecap:butt;stroke-linejoin:miter;stroke:rgb(0%,0%,0%);stroke-opacity:1;stroke-miterlimit:4;" d="M 421.499854 57.000138 L 436.999683 59.500244 L 441.000472 55.999683 L 450.499634 71.99974 L 425.999837 87.999797 L 441.499666 82.500391 L 445.500456 64.500456 " transform="matrix(3.779528,0,0,3.779528,0,0)"/>
<path style="fill:none;stroke-width:2;stroke-linecap:butt;stroke-linejoin:miter;stroke:rgb(0%,0%,0%);stroke-opacity:1;stroke-miterlimit:4;" d="M 418.999748 63.5 L 423.499731 49.499821 L 438.999561 47.499943 L 447.000106 53.499577 L 432.499699 69.999862 L 432.000505 87.999797 L 445.99965 103.499626 L 452.499512 119.000488 L 458.500179 143.500285 L 475.000464 157.500464 " transform="matrix(3.779528,0,0,3.779528,0,0)"/>
<path style="fill:none;stroke-width:2;stroke-linecap:butt;stroke-linejoin:miter;stroke:rgb(0%,0%,0%);stroke-opacity:1;stroke-miterlimit:4;" d="M 479.999642 155.499552 L 463.999585 139.499495 L 447.999528 139.499495 L 431.500277 145.500163 L 416.99987 145.500163 L 408.50013 144.000513 L 386.500439 142.499829 L 361.000187 168.500309 " transform="matrix(3.779528,0,0,3.779528,0,0)"/>
<path style="fill:none;stroke-width:2;stroke-linecap:butt;stroke-linejoin:miter;stroke:rgb(0%,0%,0%);stroke-opacity:1;stroke-miterlimit:4;" d="M 368.500505 165.499976 L 384.499528 135.999967 L 409.99978 137.999845 L 401.500041 153.499674 L 393.499495 169.499731 L 389.999967 185.499788 L 389.999967 217.499902 L 400.000391 233.499959 " transform="matrix(3.779528,0,0,3.779528,0,0)"/>
<path style="fill:none;stroke-width:2;stroke-linecap:butt;stroke-linejoin:miter;stroke:rgb(0%,0%,0%);stroke-opacity:1;stroke-miterlimit:4;" d="M 394.499951 235.499837 L 378.499894 215.500024 L 370.999577 193.500334 L 373.000488 177.500277 L 376.500016 161.50022 L 386.500439 145.500163 L 394.499951 121.499561 L 382.49965 125.50035 L 386.000212 109.999487 L 389.999967 94.499658 L 398.000513 68.500212 L 382.000456 70.50009 L 366.000399 86.500146 L 350.000342 118.000033 " transform="matrix(3.779528,0,0,3.779528,0,0)"/>
<path style="fill:none;stroke-width:2;stroke-linecap:butt;stroke-linejoin:miter;stroke:rgb(0%,0%,0%);stroke-opacity:1;stroke-miterlimit:4;" d="M 344.499902 119.499683 L 360.499959 83.499813 L 376.500016 67.499756 " transform="matrix(3.779528,0,0,3.779528,0,0)"/>
<path style="fill:none;stroke-width:2;stroke-linecap:butt;stroke-linejoin:miter;stroke:rgb(0%,0%,0%);stroke-opacity:1;stroke-miterlimit:4;" d="M 343.50048 62.00035 L 327.500423 57.999561 L 321.499756 45.500065 L 305.999927 45.500065 " transform="matrix(3.779528,0,0,3.779528,0,0)"/>
<path style="fill:none;stroke-width:2;stroke-linecap:butt;stroke-linejoin:miter;stroke:rgb(0%,0%,0%);stroke-opacity:1;stroke-miterlimit:4;" d="M 306.500155 35.499642 L 322.500212 35.99987 L 321.999984 46.000293 L 307.499577 66.000106 L 321.499756 82.000163 L 325.000317 98.00022 L 318.99965 114.000277 L 307.000382 130.000334 " transform="matrix(3.779528,0,0,3.779528,0,0)"/>
<path style="fill:none;stroke-width:2;stroke-linecap:butt;stroke-linejoin:miter;stroke:rgb(0%,0%,0%);stroke-opacity:1;stroke-miterlimit:4;" d="M 310.49991 126.499772 L 294.499854 139.000301 L 279.000024 138.500073 L 266.499495 130.499528 L 256.500106 114.000277 L 254.500228 98.500448 L 258.499984 82.000163 L 271.999935 66.000106 L 286.000114 64.000228 " transform="matrix(3.779528,0,0,3.779528,0,0)"/>
<path style="fill:none;stroke-width:2;stroke-linecap:butt;stroke-linejoin:miter;stroke:rgb(0%,0%,0%);stroke-opacity:1;stroke-miterlimit:4;" d="M 277.500374 75.000073 L 293.500431 68.500212 L 309.500488 75.000073 " transform="matrix(3.779528,0,0,3.779528,0,0)"/>
<path style="fill:none;stroke-width:2;stroke-linecap:butt;stroke-linejoin:miter;stroke:rgb(0%,0%,0%);stroke-opacity:1;stroke-miterlimit:4;" d="M 273.999813 71.99974 L 304.000049 64.000228 L 316.00035 80.000285 L 320.000106 96.000342 L 314.000472 112.000399 L 299.500065 128.000456 L 293.999626 114.000277 " transform="matrix(3.779528,0,0,3.779528,0,0)"/>
<path style="fill:none;stroke-width:2;stroke-linecap:butt;stroke-linejoin:miter;stroke:rgb(0%,0%,0%);stroke-opacity:1;stroke-miterlimit:4;" d="M 287.499764 112.000399 L 295.500309 112.000399 L 307.499577 96.000342 L 307.499577 79.500057 L 289.000448 75.999495 L 273.000391 82.000163 " transform="matrix(3.779528,0,0,3.779528,0,0)"/>
<path style="fill:none;stroke-width:2;stroke-linecap:butt;stroke-linejoin:miter;stroke:rgb(0%,0%,0%);stroke-opacity:1;stroke-miterlimit:4;" d="M 262.999967 94.999886 L 291.000326 79.500057 L 293.000203 95.500114 L 273.499585 107.500415 L 289.99987 100.000098 L 302.500399 91.999552 L 292.499976 107.500415 " transform="matrix(3.779528,0,0,3.779528,0,0)"/>
<path style="fill:none;stroke-width:2;stroke-linecap:butt;stroke-linejoin:miter;stroke:rgb(0%,0%,0%);stroke-opacity:1;stroke-miterlimit:4;" d="M 309.500488 118.000033 L 293.500431 132.000212 L 277.500374 132.000212 L 261.500317 123.999666 " transform="matrix(3.779528,0,0,3.779528,0,0)"/>
<path style="fill:none;stroke-width:2;stroke-linecap:butt;stroke-linejoin:miter;stroke:rgb(0%,0%,0%);stroke-opacity:1;stroke-miterlimit:4;" d="M 269.499829 123.000244 L 262.999967 110.999943 L 264.999845 94.999886 L 276.499919 78.499601 L 257.999756 93.000008 " transform="matrix(3.779528,0,0,3.779528,0,0)"/>
<path style="fill:none;stroke-width:2;stroke-linecap:butt;stroke-linejoin:miter;stroke:rgb(0%,0%,0%);stroke-opacity:1;stroke-miterlimit:4;" d="M 255.49965 112.499593 L 271.499707 122.500016 L 287.499764 128.49965 L 303.499821 112.499593 L 313.500244 89.999674 L 307.999805 105.999731 L 296.499731 121.999788 " transform="matrix(3.779528,0,0,3.779528,0,0)"/>
<path style="fill:none;stroke-width:2;stroke-linecap:butt;stroke-linejoin:miter;stroke:rgb(0%,0%,0%);stroke-opacity:1;stroke-miterlimit:4;" d="M 338.000041 170.500187 L 336.000163 186.000016 " transform="matrix(3.779528,0,0,3.779528,0,0)"/>
<path style="fill:none;stroke-width:2;stroke-linecap:butt;stroke-linejoin:miter;stroke:rgb(0%,0%,0%);stroke-opacity:1;stroke-miterlimit:4;" d="M 341.000374 184.500366 L 342.500024 168.500309 " transform="matrix(3.779528,0,0,3.779528,0,0)"/>
<path style="fill:none;stroke-width:2;stroke-linecap:butt;stroke-linejoin:miter;stroke:rgb(0%,0%,0%);stroke-opacity:1;stroke-miterlimit:4;" d="M 336.000163 150.500374 L 320.500334 168.500309 L 304.500277 171.000415 L 287.999992 173.000293 L 271.999935 171.000415 L 255.49965 168.999504 L 239.000399 168.999504 L 223.499536 166.999626 L 207.500513 164.999748 L 191.500456 161.50022 L 175.999593 157.500464 L 159.500342 164.000326 L 153.499674 166.000203 L 153.499674 150.000146 L 161.50022 134.500317 L 169.499731 102.500203 L 184.999561 94.499658 L 193.000106 78.499601 L 199.499967 71.99974 L 183.49991 87.999797 " transform="matrix(3.779528,0,0,3.779528,0,0)"/>
<path style="fill:none;stroke-width:2;stroke-linecap:butt;stroke-linejoin:miter;stroke:rgb(0%,0%,0%);stroke-opacity:1;stroke-miterlimit:4;" d="M 191.500456 89.999674 L 207.500513 80.000285 L 209.999585 78.000407 L 191.99965 94.000464 L 184.000138 100.500326 L 180.000382 108.499837 L 189.999772 112.499593 L 188.500122 125.999544 L 192.499878 135.999967 L 208.499935 137.499618 L 223.999764 128.000456 L 239.999821 103.999854 " transform="matrix(3.779528,0,0,3.779528,0,0)"/>
<path style="fill:none;stroke-width:2;stroke-linecap:butt;stroke-linejoin:miter;stroke:rgb(0%,0%,0%);stroke-opacity:1;stroke-miterlimit:4;" d="M 232.999731 82.500391 L 216.999674 68.500212 L 201.499845 68.500212 " transform="matrix(3.779528,0,0,3.779528,0,0)"/>
<path style="fill:none;stroke-width:2;stroke-linecap:butt;stroke-linejoin:miter;stroke:rgb(0%,0%,0%);stroke-opacity:1;stroke-miterlimit:4;" d="M 209.500391 64.000228 L 225.500448 67.499756 " transform="matrix(3.779528,0,0,3.779528,0,0)"/>
<path style="fill:none;stroke-width:2;stroke-linecap:butt;stroke-linejoin:miter;stroke:rgb(0%,0%,0%);stroke-opacity:1;stroke-miterlimit:4;" d="M 230.499626 66.999528 L 242.499927 82.500391 L 244.499805 98.500448 L 236.500293 114.500505 L 222.500114 130.499528 " transform="matrix(3.779528,0,0,3.779528,0,0)"/>
<path style="fill:none;stroke-width:2;stroke-linecap:butt;stroke-linejoin:miter;stroke:rgb(0%,0%,0%);stroke-opacity:1;stroke-miterlimit:4;" d="M 194.999984 156.500008 L 211.000041 160.499764 L 226.49987 162.99987 L 242.499927 162.99987 L 257.999756 165.499976 L 273.499585 167.499854 " transform="matrix(3.779528,0,0,3.779528,0,0)"/>
<path style="fill:none;stroke-width:2;stroke-linecap:butt;stroke-linejoin:miter;stroke:rgb(0%,0%,0%);stroke-opacity:1;stroke-miterlimit:4;" d="M 270.000057 207.500513 L 291.49952 213.500146 " transform="matrix(3.779528,0,0,3.779528,0,0)"/>
<path style="fill:none;stroke-width:2;stroke-linecap:butt;stroke-linejoin:miter;stroke:rgb(0%,0%,0%);stroke-opacity:1;stroke-miterlimit:4;" d="M 303.499821 245.50026 L 321.499756 261.500317 L 321.999984 277.500374 L 321.999984 309.500488 L 320.000106 325.499512 L 320.000106 341.499569 " transform="matrix(3.779528,0,0,3.779528,0,0)"/>
<path style="fill:none;stroke-width:2;stroke-linecap:butt;stroke-linejoin:miter;stroke:rgb(0%,0%,0%);stroke-opacity:1;stroke-miterlimit:4;" d="M 280.499674 323.000439 L 264.000423 323.000439 L 248.000366 323.499634 L 231.500081 323.999862 L 214.999797 323.499634 " transform="matrix(3.779528,0,0,3.779528,0,0)"/>
<path style="fill:none;stroke-width:2;stroke-linecap:butt;stroke-linejoin:miter;stroke:rgb(0%,0%,0%);stroke-opacity:1;stroke-miterlimit:4;" d="M 212.999919 321.999984 L 228.999976 319.499878 L 245.000033 319.499878 L 261.00009 317.5 L 277.000146 317.5 " transform="matrix(3.779528,0,0,3.779528,0,0)"/>
<path style="fill:none;stroke-width:2;stroke-linecap:butt;stroke-linejoin:miter;stroke:rgb(0%,0%,0%);stroke-opacity:1;stroke-miterlimit:4;" d="M 250.500472 313.000016 L 218.00013 313.000016 " transform="matrix(3.779528,0,0,3.779528,0,0)"/>
<path style="fill:none;stroke-width:2;stroke-linecap:butt;stroke-linejoin:miter;stroke:rgb(0%,0%,0%);stroke-opacity:1;stroke-miterlimit:4;" d="M 214.000374 306.500155 L 246.000488 305.499699 L 261.999512 307.499577 L 277.500374 309.500488 " transform="matrix(3.779528,0,0,3.779528,0,0)"/>
<path style="fill:none;stroke-width:2;stroke-linecap:butt;stroke-linejoin:miter;stroke:rgb(0%,0%,0%);stroke-opacity:1;stroke-miterlimit:4;" d="M 281.50013 285.499886 L 266.000301 287.999992 L 250.000244 290.500098 L 234.000187 292.499976 L 218.00013 290.500098 " transform="matrix(3.779528,0,0,3.779528,0,0)"/>
<path style="fill:none;stroke-width:2;stroke-linecap:butt;stroke-linejoin:miter;stroke:rgb(0%,0%,0%);stroke-opacity:1;stroke-miterlimit:4;" d="M 216.999674 287.999992 L 211.000041 303.499821 L 216.999674 317.5 L 225.00022 298.000415 L 241.000277 298.499609 L 257.000334 302.500399 L 273.000391 304.500277 L 288.50022 304.500277 " transform="matrix(3.779528,0,0,3.779528,0,0)"/>
<path style="fill:none;stroke-width:2;stroke-linecap:butt;stroke-linejoin:miter;stroke:rgb(0%,0%,0%);stroke-opacity:1;stroke-miterlimit:4;" d="M 277.999569 293.000203 L 262.49974 293.500431 L 244.499805 285.499886 L 212.499691 286.500342 " transform="matrix(3.779528,0,0,3.779528,0,0)"/>
<path style="fill:none;stroke-width:2;stroke-linecap:butt;stroke-linejoin:miter;stroke:rgb(0%,0%,0%);stroke-opacity:1;stroke-miterlimit:4;" d="M 210.499813 280.999902 L 226.49987 278.499797 L 230.999854 282.499552 L 247.500138 280.499674 L 279.500252 280.499674 " transform="matrix(3.779528,0,0,3.779528,0,0)"/>
<path style="fill:none;stroke-width:2;stroke-linecap:butt;stroke-linejoin:miter;stroke:rgb(0%,0%,0%);stroke-opacity:1;stroke-miterlimit:4;" d="M 300.499487 250.500472 L 316.999772 266.499495 L 316.999772 298.499609 L 315.500122 314.000472 L 315.500122 329.500301 L 313.500244 345.00013 L 313.500244 361.000187 " transform="matrix(3.779528,0,0,3.779528,0,0)"/>
<path style="fill:none;stroke-width:2;stroke-linecap:butt;stroke-linejoin:miter;stroke:rgb(0%,0%,0%);stroke-opacity:1;stroke-miterlimit:4;" d="M 301.499943 370.500382 L 284.999658 370.000155 L 268.999601 370.000155 L 253.499772 368.000277 L 237.499715 367.500049 L 221.999886 365.500171 L 205.999829 363.000065 L 189.999772 359.000309 " transform="matrix(3.779528,0,0,3.779528,0,0)"/>
<path style="fill:none;stroke-width:2;stroke-linecap:butt;stroke-linejoin:miter;stroke:rgb(0%,0%,0%);stroke-opacity:1;stroke-miterlimit:4;" d="M 186.000016 365.500171 L 234.000187 371.499805 L 250.000244 373.99991 L 266.000301 373.99991 L 289.499642 375.999788 " transform="matrix(3.779528,0,0,3.779528,0,0)"/>
<path style="fill:none;stroke-width:2;stroke-linecap:butt;stroke-linejoin:miter;stroke:rgb(0%,0%,0%);stroke-opacity:1;stroke-miterlimit:4;" d="M 316.999772 391.499618 L 316.499544 407.999902 L 307.000382 423.999959 L 295.000081 440.000016 L 295.000081 456.000073 L 293.000203 472.00013 L 293.000203 488.500415 L 298.499609 486.499504 L 314.499666 486.499504 L 330.499723 488.999609 L 346.49978 488.999609 " transform="matrix(3.779528,0,0,3.779528,0,0)"/>
<path style="fill:none;stroke-width:2;stroke-linecap:butt;stroke-linejoin:miter;stroke:rgb(0%,0%,0%);stroke-opacity:1;stroke-miterlimit:4;" d="M 359.999731 463.999585 L 343.999674 457.999951 " transform="matrix(3.779528,0,0,3.779528,0,0)"/>
<path style="fill:none;stroke-width:2;stroke-linecap:butt;stroke-linejoin:miter;stroke:rgb(0%,0%,0%);stroke-opacity:1;stroke-miterlimit:4;" d="M 340.500146 453.499967 L 356.500203 453.499967 " transform="matrix(3.779528,0,0,3.779528,0,0)"/>
<path style="fill:none;stroke-width:2;stroke-linecap:butt;stroke-linejoin:miter;stroke:rgb(0%,0%,0%);stroke-opacity:1;stroke-miterlimit:4;" d="M 349.500114 427.999715 L 334.000285 422.500309 L 329.999495 416.499642 L 314.000472 425.999837 L 298.000415 441.499666 " transform="matrix(3.779528,0,0,3.779528,0,0)"/>
<path style="fill:none;stroke-width:2;stroke-linecap:butt;stroke-linejoin:miter;stroke:rgb(0%,0%,0%);stroke-opacity:1;stroke-miterlimit:4;" d="M 293.500431 444.5 L 309.500488 424.500187 L 327.500423 413.000114 " transform="matrix(3.779528,0,0,3.779528,0,0)"/>
<path style="fill:none;stroke-width:2;stroke-linecap:butt;stroke-linejoin:miter;stroke:rgb(0%,0%,0%);stroke-opacity:1;stroke-miterlimit:4;" d="M 352.999642 424.500187 L 366.999821 440.000016 L 364.999943 456.000073 L 366.999821 471.499902 L 366.499593 487.499959 L 370.000155 495.500505 " transform="matrix(3.779528,0,0,3.779528,0,0)"/>
<path style="fill:none;stroke-width:2;stroke-linecap:butt;stroke-linejoin:miter;stroke:rgb(0%,0%,0%);stroke-opacity:1;stroke-miterlimit:4;" d="M 352.00022 497.500382 L 361.999609 475.999886 L 355.999976 459.999829 L 361.999609 438.000138 L 348.499658 422.500309 L 330.499723 402.500496 L 343.999674 374.500138 L 343.999674 358.500081 L 339.499691 342.500024 L 343.50048 326.499967 L 348.000464 310.49991 L 344.499902 293.999626 L 344.499902 277.500374 L 358.500081 261.500317 L 338.500269 275.500496 " transform="matrix(3.779528,0,0,3.779528,0,0)"/>
<path style="fill:none;stroke-width:2;stroke-linecap:butt;stroke-linejoin:miter;stroke:rgb(0%,0%,0%);stroke-opacity:1;stroke-miterlimit:4;" d="M 371.499805 259.500439 L 355.999976 237.499715 L 339.499691 231.500081 L 323.499634 227.500326 L 307.499577 227.500326 L 291.49952 229.500203 L 275.500496 230.999854 L 259.500439 231.500081 L 243.500382 234.000187 L 227.99952 234.000187 L 212.000496 236.500293 L 196.000439 237.999943 " transform="matrix(3.779528,0,0,3.779528,0,0)"/>
<path style="fill:none;stroke-width:2;stroke-linecap:butt;stroke-linejoin:miter;stroke:rgb(0%,0%,0%);stroke-opacity:1;stroke-miterlimit:4;" d="M 193.500334 248.000366 L 209.500391 246.000488 L 225.500448 246.000488 L 241.999699 245.50026 L 274.500041 245.50026 L 306.500155 249.500016 " transform="matrix(3.779528,0,0,3.779528,0,0)"/>
<path style="fill:none;stroke-width:2;stroke-linecap:butt;stroke-linejoin:miter;stroke:rgb(0%,0%,0%);stroke-opacity:1;stroke-miterlimit:4;" d="M 332.499601 235.499837 L 328.499845 251.499894 L 327.500423 267.499951 L 325.99974 283.500008 L 325.99974 332.000407 L 324.50009 347.500236 " transform="matrix(3.779528,0,0,3.779528,0,0)"/>
<path style="fill:none;stroke-width:2;stroke-linecap:butt;stroke-linejoin:miter;stroke:rgb(0%,0%,0%);stroke-opacity:1;stroke-miterlimit:4;" d="M 368.500505 296.999959 L 384.499528 291.49952 " transform="matrix(3.779528,0,0,3.779528,0,0)"/>
<path style="fill:none;stroke-width:2;stroke-linecap:butt;stroke-linejoin:miter;stroke:rgb(0%,0%,0%);stroke-opacity:1;stroke-miterlimit:4;" d="M 387.499862 318.500456 L 387.499862 311.000138 L 384.000334 293.000203 L 373.99991 264.499618 " transform="matrix(3.779528,0,0,3.779528,0,0)"/>
<path style="fill:none;stroke-width:2;stroke-linecap:butt;stroke-linejoin:miter;stroke:rgb(0%,0%,0%);stroke-opacity:1;stroke-miterlimit:4;" d="M 345.999552 239.499593 L 360.499959 255.49965 L 340.500146 271.499707 L 348.499658 289.99987 L 354.500326 309.999683 L 350.499536 325.99974 L 346.49978 341.999797 L 348.499658 357.999854 L 350.000342 373.499683 L 337.499813 389.49974 L 335.499935 404.999569 L 319.499878 416.99987 L 299.500065 438.000138 L 299.500065 454.500423 L 297.500187 470.50048 L 295.500309 490.999487 L 298.000415 496.499927 L 314.000472 498.499805 L 329.999495 497.999577 L 345.500358 497.999577 L 352.00022 504.000244 L 368.000277 500.000488 " transform="matrix(3.779528,0,0,3.779528,0,0)"/>
<path style="fill:none;stroke-width:2;stroke-linecap:butt;stroke-linejoin:miter;stroke:rgb(0%,0%,0%);stroke-opacity:1;stroke-miterlimit:4;" d="M 345.500358 503.500016 L 329.500301 501.500138 L 313.500244 501.500138 L 297.500187 499.50026 " transform="matrix(3.779528,0,0,3.779528,0,0)"/>
<path style="fill:none;stroke-width:2;stroke-linecap:butt;stroke-linejoin:miter;stroke:rgb(0%,0%,0%);stroke-opacity:1;stroke-miterlimit:4;" d="M 295.999504 474.000008 L 311.999561 481.99952 L 328.499845 481.500326 L 344.499902 481.99952 L 361.000187 481.99952 " transform="matrix(3.779528,0,0,3.779528,0,0)"/>
<path style="fill:none;stroke-width:2;stroke-linecap:butt;stroke-linejoin:miter;stroke:rgb(0%,0%,0%);stroke-opacity:1;stroke-miterlimit:4;" d="M 262.49974 453.499967 L 246.499683 453.499967 " transform="matrix(3.779528,0,0,3.779528,0,0)"/>
<path style="fill:none;stroke-width:2;stroke-linecap:butt;stroke-linejoin:miter;stroke:rgb(0%,0%,0%);stroke-opacity:1;stroke-miterlimit:4;" d="M 261.500317 427.000293 L 246.000488 404.999569 L 230.000431 404.500374 " transform="matrix(3.779528,0,0,3.779528,0,0)"/>
<path style="fill:none;stroke-width:2;stroke-linecap:butt;stroke-linejoin:miter;stroke:rgb(0%,0%,0%);stroke-opacity:1;stroke-miterlimit:4;" d="M 245.000033 403.499919 L 250.999666 419.499976 L 262.49974 436.00026 L 266.499495 452.000317 L 270.500285 475.999886 L 270.500285 490.000065 " transform="matrix(3.779528,0,0,3.779528,0,0)"/>
<path style="fill:none;stroke-width:2;stroke-linecap:butt;stroke-linejoin:miter;stroke:rgb(0%,0%,0%);stroke-opacity:1;stroke-miterlimit:4;" d="M 262.49974 433.500155 L 246.000488 420.999626 L 230.000431 420.999626 L 223.999764 423.499731 L 207.999707 431.500277 " transform="matrix(3.779528,0,0,3.779528,0,0)"/>
<path style="fill:none;stroke-width:2;stroke-linecap:butt;stroke-linejoin:miter;stroke:rgb(0%,0%,0%);stroke-opacity:1;stroke-miterlimit:4;" d="M 198.499512 440.000016 L 214.499569 422.000081 L 214.499569 427.499487 L 203.999951 443.00035 L 205.999829 461.000285 L 199.499967 477.000342 L 197.50009 492.500171 L 211.000041 500.99991 L 227.000098 497.000155 L 243.500382 495.000277 L 259.500439 495.500505 " transform="matrix(3.779528,0,0,3.779528,0,0)"/>
<path style="fill:none;stroke-width:2;stroke-linecap:butt;stroke-linejoin:miter;stroke:rgb(0%,0%,0%);stroke-opacity:1;stroke-miterlimit:4;" d="M 254.500228 503.500016 L 238.500171 502.999788 L 218.500358 486.999731 L 202.500301 484.999854 " transform="matrix(3.779528,0,0,3.779528,0,0)"/>
<path style="fill:none;stroke-width:2;stroke-linecap:butt;stroke-linejoin:miter;stroke:rgb(0%,0%,0%);stroke-opacity:1;stroke-miterlimit:4;" d="M 202.999495 480.49987 L 218.999552 480.49987 L 234.999609 482.499748 L 251.499894 480.49987 " transform="matrix(3.779528,0,0,3.779528,0,0)"/>
<path style="fill:none;stroke-width:2;stroke-linecap:butt;stroke-linejoin:miter;stroke:rgb(0%,0%,0%);stroke-opacity:1;stroke-miterlimit:4;" d="M 216.999674 459.000407 L 200.999618 472.999552 " transform="matrix(3.779528,0,0,3.779528,0,0)"/>
<path style="fill:none;stroke-width:2;stroke-linecap:butt;stroke-linejoin:miter;stroke:rgb(0%,0%,0%);stroke-opacity:1;stroke-miterlimit:4;" d="M 193.999528 472.500358 L 205.999829 446.499878 " transform="matrix(3.779528,0,0,3.779528,0,0)"/>
<path style="fill:none;stroke-width:2;stroke-linecap:butt;stroke-linejoin:miter;stroke:rgb(0%,0%,0%);stroke-opacity:1;stroke-miterlimit:4;" d="M 257.999756 423.999959 L 273.999813 440.000016 L 269.499829 456.000073 L 264.999845 471.499902 " transform="matrix(3.779528,0,0,3.779528,0,0)"/>
<path style="fill:none;stroke-width:2;stroke-linecap:butt;stroke-linejoin:miter;stroke:rgb(0%,0%,0%);stroke-opacity:1;stroke-miterlimit:4;" d="M 361.500415 428.499943 L 345.500358 420.500431 L 325.499512 396.499829 L 307.000382 390.500195 L 290.500098 388.500317 L 274.500041 388.500317 L 258.499984 386.999634 L 241.999699 384.499528 L 229.500203 396.499829 L 223.000342 382.000456 L 207.000285 379.50035 L 191.000228 371.499805 " transform="matrix(3.779528,0,0,3.779528,0,0)"/>
<path style="fill:none;stroke-width:2;stroke-linecap:butt;stroke-linejoin:miter;stroke:rgb(0%,0%,0%);stroke-opacity:1;stroke-miterlimit:4;" d="M 207.999707 271.000513 L 223.999764 268.999601 L 240.500049 271.000513 L 256.500106 270.500285 L 273.000391 272.500163 L 289.000448 271.999935 L 295.000081 289.99987 L 289.000448 305.499699 L 292.499976 317.5 L 286.500342 333.500057 " transform="matrix(3.779528,0,0,3.779528,0,0)"/>
<path style="fill:none;stroke-width:2;stroke-linecap:butt;stroke-linejoin:miter;stroke:rgb(0%,0%,0%);stroke-opacity:1;stroke-miterlimit:4;" d="M 339.999919 382.000456 L 323.999862 386.000212 L 308.500033 384.000334 L 292.499976 383.500106 L 276.499919 381.500228 L 261.00009 381.500228 L 245.000033 377.500472 L 228.499748 377.500472 L 212.499691 375.499561 L 196.499634 369.499927 L 190.5 363.500293 L 187.999894 348.000464 L 187.999894 298.499609 L 180.000382 274.500041 L 164.000326 282.000358 L 153.999902 284.000236 L 135.49974 268.000179 L 131.499984 251.499894 L 143.500285 231.500081 L 134.00009 215.500024 L 125.999544 212.999919 L 110.499715 219.49978 L 98.500448 225.500448 L 82.500391 220.000008 L 72.499967 196.499634 L 60.499666 190.5 L 32.500342 168.000081 L 26.499674 166.000203 L 42.499731 150.000146 L 78.000407 144.000513 L 82.500391 148.000269 L 66.500334 139.499495 L 51.000505 145.500163 L 35.000448 157.999658 L 30.999658 164.000326 " transform="matrix(3.779528,0,0,3.779528,0,0)"/>
<path style="fill:none;stroke-width:2;stroke-linecap:butt;stroke-linejoin:miter;stroke:rgb(0%,0%,0%);stroke-opacity:1;stroke-miterlimit:4;" d="M 29.500008 169.999959 L 45.500065 169.999959 L 61.500122 171.999837 L 76.999951 153.999902 L 72.499967 159.500342 L 64.000228 175.999593 L 79.500057 169.999959 L 91.500358 186.500244 L 107.000187 191.000228 L 122.500016 209.000163 L 138.500073 221.000464 L 154.50013 234.500415 L 171.000415 234.500415 L 187.499666 238.500171 L 203.499723 232.499504 L 219.49978 230.499626 L 236.000065 230.499626 L 252.000122 228.499748 L 268.000179 224.499992 L 286.000114 221.000464 L 302.000171 211.000041 L 318.000228 204.500179 L 334.500513 205.999829 L 352.500448 214.000374 " transform="matrix(3.779528,0,0,3.779528,0,0)"/>
<path style="fill:none;stroke-width:2;stroke-linecap:butt;stroke-linejoin:miter;stroke:rgb(0%,0%,0%);stroke-opacity:1;stroke-miterlimit:4;" d="M 343.999674 214.999797 L 327.999618 210.499813 L 305.999927 207.000285 L 289.99987 205.000407 L 273.999813 205.499601 L 257.999756 203.499723 L 241.999699 198.99974 L 225.999642 196.999862 L 209.500391 194.499756 L 193.500334 192.499878 L 177.500277 187.999894 L 161.50022 169.999959 " transform="matrix(3.779528,0,0,3.779528,0,0)"/>
<path style="fill:none;stroke-width:2;stroke-linecap:butt;stroke-linejoin:miter;stroke:rgb(0%,0%,0%);stroke-opacity:1;stroke-miterlimit:4;" d="M 167.499854 159.999536 L 183.49991 164.49952 L 201.499845 153.00048 L 217.499902 155.499552 L 232.999731 155.99978 L 264.999845 160.999992 L 280.999902 160.999992 L 300.499487 177.000049 L 316.499544 177.000049 L 332.000407 166.999626 " transform="matrix(3.779528,0,0,3.779528,0,0)"/>
<path style="fill:none;stroke-width:2;stroke-linecap:butt;stroke-linejoin:miter;stroke:rgb(0%,0%,0%);stroke-opacity:1;stroke-miterlimit:4;" d="M 320.999528 173.999715 L 341.000374 157.999658 L 348.999886 125.999544 L 354.99952 109.999487 L 361.000187 94.000464 L 372.50026 78.000407 L 390.500195 61.500122 L 374.500138 53.999805 L 357.999854 48.000171 L 341.499569 41.999504 L 325.499512 30.500464 L 309.500488 26.499674 L 293.500431 36.500098 L 261.500317 36.500098 L 245.50026 25.000024 L 230.000431 37.000326 L 214.499569 42.999959 L 198.499512 32.500342 L 180.499577 32.000114 L 175.999593 23.999569 L 189.999772 7.500317 L 184.000138 5.500439 L 168.500309 17.000513 " transform="matrix(3.779528,0,0,3.779528,0,0)"/>
<path style="fill:none;stroke-width:2;stroke-linecap:butt;stroke-linejoin:miter;stroke:rgb(0%,0%,0%);stroke-opacity:1;stroke-miterlimit:4;" d="M 173.999715 17.999935 L 189.499544 14.000179 L 196.999862 19.499585 L 189.00035 35.499642 L 191.000228 55.500488 L 177.000049 71.99974 L 162.99987 87.999797 L 155.000358 103.999854 L 149.499919 119.99991 L 159.500342 123.999666 L 159.500342 141.999601 L 157.500464 157.999658 L 161.50022 173.999715 L 171.499609 186.000016 " transform="matrix(3.779528,0,0,3.779528,0,0)"/>
<path style="fill:none;stroke-width:2;stroke-linecap:butt;stroke-linejoin:miter;stroke:rgb(0%,0%,0%);stroke-opacity:1;stroke-miterlimit:4;" d="M 146.000391 191.000228 L 130.000334 175.000171 L 125.999544 159.000114 L 125.999544 125.999544 L 129.500106 109.500293 L 135.49974 93.500236 L 145.500163 77.500179 L 157.500464 73.000195 L 165.499976 69.000439 L 149.499919 78.999829 " transform="matrix(3.779528,0,0,3.779528,0,0)"/>
<path style="fill:none;stroke-width:2;stroke-linecap:butt;stroke-linejoin:miter;stroke:rgb(0%,0%,0%);stroke-opacity:1;stroke-miterlimit:4;" d="M 155.000358 76.999951 L 144.499707 93.000008 L 137.000423 109.000065 L 132.500439 125.000122 L 132.500439 102.500203 L 148.000269 76.499723 L 164.49952 64.500456 L 180.999805 62.00035 L 199.499967 46.000293 " transform="matrix(3.779528,0,0,3.779528,0,0)"/>
<path style="fill:none;stroke-width:2;stroke-linecap:butt;stroke-linejoin:miter;stroke:rgb(0%,0%,0%);stroke-opacity:1;stroke-miterlimit:4;" d="M 221.499658 63.5 L 233.499959 79.500057 L 237.499715 95.500114 L 231.500081 110.999943 L 217.499902 127 " transform="matrix(3.779528,0,0,3.779528,0,0)"/>
<path style="fill:none;stroke-width:2;stroke-linecap:butt;stroke-linejoin:miter;stroke:rgb(0%,0%,0%);stroke-opacity:1;stroke-miterlimit:4;" d="M 215.500024 120.500138 L 229.500203 104.500081 L 233.499959 87.999797 L 209.500391 105.000309 L 193.500334 103.000431 " transform="matrix(3.779528,0,0,3.779528,0,0)"/>
<path style="fill:none;stroke-width:2;stroke-linecap:butt;stroke-linejoin:miter;stroke:rgb(0%,0%,0%);stroke-opacity:1;stroke-miterlimit:4;" d="M 186.500244 116.500382 L 202.500301 126.499772 L 218.500358 119.99991 L 230.499626 80.000285 L 222.500114 87.999797 L 212.499691 103.999854 L 200.000195 118.000033 " transform="matrix(3.779528,0,0,3.779528,0,0)"/>
<path style="fill:none;stroke-width:2;stroke-linecap:butt;stroke-linejoin:miter;stroke:rgb(0%,0%,0%);stroke-opacity:1;stroke-miterlimit:4;" d="M 179.500155 121.999788 L 194.999984 132.000212 L 211.000041 129.500106 L 227.000098 117.499805 " transform="matrix(3.779528,0,0,3.779528,0,0)"/>
<path style="fill:none;stroke-width:2;stroke-linecap:butt;stroke-linejoin:miter;stroke:rgb(0%,0%,0%);stroke-opacity:1;stroke-miterlimit:4;" d="M 164.000326 100.500326 L 171.999837 85.999919 L 163.500098 102.500203 L 161.50022 118.50026 L 166.000203 86.500146 L 182.500488 68.500212 L 198.499512 52.500155 L 214.499569 46.000293 L 230.499626 41.999504 L 246.499683 39.500431 " transform="matrix(3.779528,0,0,3.779528,0,0)"/>
<path style="fill:none;stroke-width:2;stroke-linecap:butt;stroke-linejoin:miter;stroke:rgb(0%,0%,0%);stroke-opacity:1;stroke-miterlimit:4;" d="M 232.999731 37.999748 L 197.50009 51.999927 L 184.999561 73.500423 L 179.500155 83.499813 L 175.500399 99.49987 L 175.999593 115.499927 L 186.000016 131.499984 L 186.500244 155.99978 L 196.499634 159.999536 L 202.999495 148.500496 L 218.999552 150.500374 L 234.999609 150.500374 L 250.999666 152.500252 L 266.999723 153.999902 L 282.99978 153.999902 " transform="matrix(3.779528,0,0,3.779528,0,0)"/>
<path style="fill:none;stroke-width:2;stroke-linecap:butt;stroke-linejoin:miter;stroke:rgb(0%,0%,0%);stroke-opacity:1;stroke-miterlimit:4;" d="M 339.499691 232.499504 L 337.499813 248.499561 L 333.500057 264.499618 L 331.500179 280.499674 L 331.500179 295.999504 L 332.000407 311.999561 L 329.500301 327.999618 L 327.500423 343.999674 L 327.500423 359.999731 L 301.499943 373.99991 L 319.499878 368.000277 " transform="matrix(3.779528,0,0,3.779528,0,0)"/>
<path style="fill:none;stroke-width:2;stroke-linecap:butt;stroke-linejoin:miter;stroke:rgb(0%,0%,0%);stroke-opacity:1;stroke-miterlimit:4;" d="M 277.999569 332.000407 L 261.999512 332.000407 L 246.000488 329.999495 L 230.499626 329.999495 L 214.499569 330.499723 L 210.499813 316.499544 L 206.500057 316.499544 L 206.500057 300.499487 L 207.000285 284.500464 L 212.999919 268.500407 " transform="matrix(3.779528,0,0,3.779528,0,0)"/>
<path style="fill:none;stroke-width:2;stroke-linecap:butt;stroke-linejoin:miter;stroke:rgb(0%,0%,0%);stroke-opacity:1;stroke-miterlimit:4;" d="M 175.000171 283.500008 L 159.000114 283.500008 L 127 255.49965 L 109.000065 246.000488 L 93.000008 231.500081 L 89.000252 231.500081 L 73.000195 214.999797 L 75.000073 198.99974 L 68.500212 189.00035 L 69.000439 173.000293 L 80.999707 157.000236 L 73.000195 143.000057 L 57.000138 147.500041 L 41.000081 159.999536 " transform="matrix(3.779528,0,0,3.779528,0,0)"/>
<path style="fill:none;stroke-width:2;stroke-linecap:butt;stroke-linejoin:miter;stroke:rgb(0%,0%,0%);stroke-opacity:1;stroke-miterlimit:4;" d="M 55.999683 148.000269 L 39.500431 164.000326 L 46.000293 176.499821 L 62.00035 190.5 L 78.499601 186.000016 " transform="matrix(3.779528,0,0,3.779528,0,0)"/>
<path style="fill:none;stroke-width:2;stroke-linecap:butt;stroke-linejoin:miter;stroke:rgb(0%,0%,0%);stroke-opacity:1;stroke-miterlimit:4;" d="M 90.499902 192.499878 L 76.499723 208.499935 L 86.500146 224.499992 " transform="matrix(3.779528,0,0,3.779528,0,0)"/>
<path style="fill:none;stroke-width:2;stroke-linecap:butt;stroke-linejoin:miter;stroke:rgb(0%,0%,0%);stroke-opacity:1;stroke-miterlimit:4;" d="M 109.000065 235.499837 L 125.000122 251.499894 L 141.000179 233.499959 " transform="matrix(3.779528,0,0,3.779528,0,0)"/>
<path style="fill:none;stroke-width:2;stroke-linecap:butt;stroke-linejoin:miter;stroke:rgb(0%,0%,0%);stroke-opacity:1;stroke-miterlimit:4;" d="M 159.500342 235.499837 L 159.500342 251.499894 L 139.999723 253.499772 L 144.000513 255.999878 " transform="matrix(3.779528,0,0,3.779528,0,0)"/>
<path style="fill:none;stroke-width:2;stroke-linecap:butt;stroke-linejoin:miter;stroke:rgb(0%,0%,0%);stroke-opacity:1;stroke-miterlimit:4;" d="M 150.999569 273.000391 L 162.99987 256.500106 L 160.499764 240.500049 " transform="matrix(3.779528,0,0,3.779528,0,0)"/>
<path style="fill:none;stroke-width:2;stroke-linecap:butt;stroke-linejoin:miter;stroke:rgb(0%,0%,0%);stroke-opacity:1;stroke-miterlimit:4;" d="M 166.500431 236.999487 L 182.500488 253.499772 L 182.00026 269.499829 " transform="matrix(3.779528,0,0,3.779528,0,0)"/>
<path style="fill:none;stroke-width:2;stroke-linecap:butt;stroke-linejoin:miter;stroke:rgb(0%,0%,0%);stroke-opacity:1;stroke-miterlimit:4;" d="M 168.999504 234.000187 L 187.000472 249.500016 L 187.499666 265.500073 L 187.999894 281.50013 L 184.500366 297.500187 L 182.500488 314.000472 L 182.999683 329.999495 L 184.999561 345.999552 L 184.500366 361.999609 L 198.499512 377.999666 L 226.49987 394.499951 L 224.499992 410.500008 L 208.499935 425.999837 L 198.499512 441.999894 L 204.500179 457.999951 L 194.499756 474.000008 L 191.99965 490.000065 L 193.999528 501.500138 L 209.999585 497.500382 L 227.99952 486.000309 L 259.999634 486.000309 " transform="matrix(3.779528,0,0,3.779528,0,0)"/>
<path style="fill:none;stroke-width:2;stroke-linecap:butt;stroke-linejoin:miter;stroke:rgb(0%,0%,0%);stroke-opacity:1;stroke-miterlimit:4;" d="M 397.500285 321.999984 L 391.499618 321.999984 L 373.499683 305.999927 L 377.500472 289.499642 L 371.499805 267.499951 L 365.500171 250.999666 L 349.500114 234.999609 " transform="matrix(3.779528,0,0,3.779528,0,0)"/>
<path style="fill:none;stroke-width:2;stroke-linecap:butt;stroke-linejoin:miter;stroke:rgb(0%,0%,0%);stroke-opacity:1;stroke-miterlimit:4;" d="M 479.500448 228.499748 L 463.500391 250.500472 L 447.999528 261.00009 L 432.000505 280.999902 L 416.000448 279.000024 L 400.000391 280.999902 L 375.499561 271.000513 L 359.499504 261.00009 L 351.499992 243.500382 L 331.500179 233.499959 L 316.00035 232.000309 L 300.000293 232.499504 L 284.000236 238.500171 L 268.000179 234.500415 L 261.999512 220.500236 L 259.500439 207.000285 L 243.500382 205.000407 L 227.000098 202.999495 L 211.000041 198.499512 L 194.999984 198.499512 L 179.500155 193.999528 L 163.500098 189.499544 L 147.500041 181.500033 L 131.499984 159.500342 " transform="matrix(3.779528,0,0,3.779528,0,0)"/>
<path style="fill:none;stroke-width:2;stroke-linecap:butt;stroke-linejoin:miter;stroke:rgb(0%,0%,0%);stroke-opacity:1;stroke-miterlimit:4;" d="M 128.000456 165.499976 L 144.000513 187.499666 L 159.999536 189.00035 " transform="matrix(3.779528,0,0,3.779528,0,0)"/>
<path style="fill:none;stroke-width:2;stroke-linecap:butt;stroke-linejoin:miter;stroke:rgb(0%,0%,0%);stroke-opacity:1;stroke-miterlimit:4;" d="M 128.49965 210.499813 L 138.500073 226.49987 L 134.500317 242.499927 L 138.500073 246.499683 L 154.50013 242.499927 L 166.500431 236.500293 L 182.00026 248.000366 L 205.999829 239.999821 L 221.999886 239.499593 L 237.999943 239.999821 L 254 241.999699 L 269.499829 241.999699 L 284.999658 241.500505 L 300.999715 243.500382 L 316.999772 251.499894 " transform="matrix(3.779528,0,0,3.779528,0,0)"/>
<path style="fill:none;stroke-width:2;stroke-linecap:butt;stroke-linejoin:miter;stroke:rgb(0%,0%,0%);stroke-opacity:1;stroke-miterlimit:4;" d="M 158.499886 254.500228 L 142.499829 264.499618 L 135.999967 261.00009 L 109.999487 243.000155 L 103.999854 221.499658 L 109.999487 205.499601 L 102.500203 189.499544 " transform="matrix(3.779528,0,0,3.779528,0,0)"/>
<path style="fill:none;stroke-width:2;stroke-linecap:butt;stroke-linejoin:miter;stroke:rgb(0%,0%,0%);stroke-opacity:1;stroke-miterlimit:4;" d="M 119.99991 212.999919 L 105.999731 228.999976 L 103.499626 245.000033 " transform="matrix(3.779528,0,0,3.779528,0,0)"/>
<path style="fill:none;stroke-width:2;stroke-linecap:butt;stroke-linejoin:miter;stroke:rgb(0%,0%,0%);stroke-opacity:1;stroke-miterlimit:4;" d="M 98.500448 191.99965 L 82.999585 196.499634 L 73.000195 188.500122 L 85.499691 186.500244 L 77.500179 170.500187 " transform="matrix(3.779528,0,0,3.779528,0,0)"/>
<path style="fill:none;stroke-width:2;stroke-linecap:butt;stroke-linejoin:miter;stroke:rgb(0%,0%,0%);stroke-opacity:1;stroke-miterlimit:4;" d="M 129.500106 150.500374 L 133.499862 166.500431 L 145.500163 182.500488 " transform="matrix(3.779528,0,0,3.779528,0,0)"/>
<path style="fill:none;stroke-width:2;stroke-linecap:butt;stroke-linejoin:miter;stroke:rgb(0%,0%,0%);stroke-opacity:1;stroke-miterlimit:4;" d="M 234.999609 21.500496 L 223.000342 37.49952 L 251.499894 31.499886 " transform="matrix(3.779528,0,0,3.779528,0,0)"/>
<path style="fill:none;stroke-width:2;stroke-linecap:butt;stroke-linejoin:miter;stroke:rgb(0%,0%,0%);stroke-opacity:1;stroke-miterlimit:4;" d="M 245.50026 25.000024 L 251.499894 41.000081 L 239.499593 46.999715 L 255.49965 41.500309 L 271.999935 39.999626 L 287.999992 40.499854 L 304.000049 42.499731 L 320.000106 42.499731 " transform="matrix(3.779528,0,0,3.779528,0,0)"/>
<path style="fill:none;stroke-width:2;stroke-linecap:butt;stroke-linejoin:miter;stroke:rgb(0%,0%,0%);stroke-opacity:1;stroke-miterlimit:4;" d="M 339.999919 41.500309 L 379.999544 57.500366 L 400.000391 71.99974 L 400.000391 87.999797 L 398.000513 103.499626 L 398.499707 119.499683 L 395.999601 129.500106 L 375.999788 145.500163 L 370.000155 161.50022 L 366.499593 177.500277 L 364.999943 193.500334 L 376.500016 212.000496 L 384.999756 227.99952 " transform="matrix(3.779528,0,0,3.779528,0,0)"/>
<path style="fill:none;stroke-width:2;stroke-linecap:butt;stroke-linejoin:miter;stroke:rgb(0%,0%,0%);stroke-opacity:1;stroke-miterlimit:4;" d="M 477.000342 185.499788 L 463.000163 182.00026 L 461.000285 166.500431 L 454.999618 150.500374 " transform="matrix(3.779528,0,0,3.779528,0,0)"/>
<path style="fill:none;stroke-width:2;stroke-linecap:butt;stroke-linejoin:miter;stroke:rgb(0%,0%,0%);stroke-opacity:1;stroke-miterlimit:4;" d="M 465.000041 142.499829 L 481.000098 158.499886 L 486.999731 180.000382 L 488.999609 196.000439 L 486.499504 212.000496 L 482.499748 227.500326 L 472.500358 243.500382 L 454.500423 259.999634 L 446.499878 275.999691 L 431.000049 291.999748 L 431.000049 307.999805 L 416.99987 323.999862 " transform="matrix(3.779528,0,0,3.779528,0,0)"/>
<path style="fill:none;stroke-width:2;stroke-linecap:butt;stroke-linejoin:miter;stroke:rgb(0%,0%,0%);stroke-opacity:1;stroke-miterlimit:4;" d="M 332.000407 159.999536 L 339.999919 144.000513 L 343.999674 128.000456 L 348.000464 112.000399 L 353.49987 95.500114 L 363.500293 79.500057 L 379.50035 64.000228 L 343.999674 48.500399 " transform="matrix(3.779528,0,0,3.779528,0,0)"/>
<path style="fill:none;stroke-width:2;stroke-linecap:butt;stroke-linejoin:miter;stroke:rgb(0%,0%,0%);stroke-opacity:1;stroke-miterlimit:4;" d="M 348.000464 67.499756 L 332.000407 59.500244 L 316.00035 57.500366 L 309.999683 57.500366 L 293.999626 41.000081 " transform="matrix(3.779528,0,0,3.779528,0,0)"/>
<path style="fill:none;stroke-width:2;stroke-linecap:butt;stroke-linejoin:miter;stroke:rgb(0%,0%,0%);stroke-opacity:1;stroke-miterlimit:4;" d="M 427.999715 39.500431 L 413.999536 55.500488 L 425.499609 71.499512 L 425.499609 103.499626 L 420.000203 119.99991 L 429.999593 135.49974 L 422.000081 159.500342 L 413.999536 175.999593 L 411.999658 191.99965 L 409.99978 208.499935 L 413.999536 224.499992 L 422.000081 239.999821 L 423.999959 254 L 406.000024 269.499829 L 390.500195 284.999658 L 360.499959 301.499943 L 378.499894 318.000228 " transform="matrix(3.779528,0,0,3.779528,0,0)"/>
</g>
</svg>
