<svg xmlns="http://www.w3.org/2000/svg" width="512mm" height="512mm" viewBox="0 0 512 512" version="1.1"><polyline points="179.5,6.5,169.5,22.5,185.5,38.5,187.5,54.5,171.5,71.0,157.5,87.0,149.5,103.0,143.5,119.0,141.0,135.0,145.0,110.5,160.5,80.5,183.0,76.5,199.0,62.5,215.0,60.5,231.5,66.0,255.5,87.5,271.5,65.0,287.5,59.0,303.5,61.0,319.5,74.5" stroke="black" stroke-width="2" fill="none" />
<polyline points="343.5,61.5,327.5,47.5" stroke="black" stroke-width="2" fill="none" />
<polyline points="331.5,43.0,347.5,49.0,364.0,55.0,380.0,61.5,388.5,82.0,383.0,98.0,379.0,114.0,377.0,130.0,373.5,146.0,365.5,162.0,361.5,178.5,361.0,194.5,353.0,210.5,377.0,226.5,388.5,242.0" stroke="black" stroke-width="2" fill="none" />
<polyline points="406.5,232.5,396.5,216.5,394.0,200.5,394.0,184.5,397.5,168.5,407.5,152.0,393.5,164.0" stroke="black" stroke-width="2" fill="none" />
<polyline points="392.5,151.5,398.5,139.5,383.0,155.5,377.5,171.5,375.5,187.5,376.0,203.5,372.0,214.0,388.5,240.0,404.5,246.0,421.0,246.5,437.0,262.5" stroke="black" stroke-width="2" fill="none" />
<polyline points="454.5,255.5,438.5,253.5,422.5,237.5,408.5,221.5,406.5,205.5,406.5,190.0,408.5,174.5,416.0,158.5,428.0,142.5,428.5,126.5,430.5,110.5,434.5,96.5" stroke="black" stroke-width="2" fill="none" />
<polyline points="442.0,99.0,426.5,115.0" stroke="black" stroke-width="2" fill="none" />
<polyline points="420.0,118.5,436.5,133.0" stroke="black" stroke-width="2" fill="none" />
<polyline points="422.0,149.5,406.0,177.5" stroke="black" stroke-width="2" fill="none" />
<polyline points="418.0,176.0,434.0,158.0,450.5,148.0,466.5,156.0,483.0,171.5" stroke="black" stroke-width="2" fill="none" />
<polyline points="450.5,173.0,434.5,183.0" stroke="black" stroke-width="2" fill="none" />
<polyline points="432.0,180.0,432.0,196.0,428.0,212.0,434.0,236.5,450.0,246.5,466.0,232.5" stroke="black" stroke-width="2" fill="none" />
<polyline points="461.0,249.5,461.0,243.5,445.0,249.5,428.5,235.5" stroke="black" stroke-width="2" fill="none" />
<polyline points="434.5,235.5,426.0,219.0,424.0,203.5,426.0,187.5,430.0,171.5,438.0,170.0,446.5,170.0,426.5,182.0" stroke="black" stroke-width="2" fill="none" />
<polyline points="417.0,194.5,416.5,210.5" stroke="black" stroke-width="2" fill="none" />
<polyline points="378.0,169.0,382.0,149.0,397.5,140.5,413.5,136.5,430.0,139.0,432.0,159.0,422.0,175.0,415.5,185.5,420.0,199.5,420.0,215.5,424.0,231.5,438.0,247.5,422.0,262.0,412.0,278.0" stroke="black" stroke-width="2" fill="none" />
<polyline points="408.0,280.5,424.0,296.5,420.0,312.0" stroke="black" stroke-width="2" fill="none" />
<polyline points="423.0,318.5,407.5,328.5,391.5,326.5,375.5,312.5,359.5,304.5,341.5,287.0" stroke="black" stroke-width="2" fill="none" />
<polyline points="346.0,285.0,362.0,296.5,378.5,284.0,394.5,280.0,411.0,263.5,415.0,267.5" stroke="black" stroke-width="2" fill="none" />
<polyline points="405.0,278.5,393.0,294.5,371.0,302.5,381.0,310.0,397.0,312.0,413.0,319.5" stroke="black" stroke-width="2" fill="none" />
<polyline points="443.5,280.5,421.5,290.5,437.5,278.5,434.0,262.5,456.5,248.5,459.0,240.5,475.0,232.5,481.0,216.5,475.0,204.0,481.0,190.0,479.0,174.0,474.5,166.0,473.0,156.0,461.0,140.0,457.0,124.0,455.0,108.0,451.0,92.0,445.0,74.0,419.0,56.0,447.0,48.0,431.0,40.0,415.0,52.0" stroke="black" stroke-width="2" fill="none" />
<polyline points="421.5,57.0,437.0,59.5,441.0,56.0,450.5,72.0,426.0,88.0,441.5,82.5,445.5,64.5" stroke="black" stroke-width="2" fill="none" />
<polyline points="419.0,63.5,423.5,49.5,439.0,47.5,447.0,53.5,432.5,70.0,432.0,88.0,446.0,103.5,452.5,119.0,458.5,143.5,475.0,157.5" stroke="black" stroke-width="2" fill="none" />
<polyline points="480.0,155.5,464.0,139.5,448.0,139.5,431.5,145.5,417.0,145.5,408.5,144.0,386.5,142.5,361.0,168.5" stroke="black" stroke-width="2" fill="none" />
<polyline points="368.5,165.5,384.5,136.0,410.0,138.0,401.5,153.5,393.5,169.5,390.0,185.5,390.0,201.5,390.0,217.5,400.0,233.5" stroke="black" stroke-width="2" fill="none" />
<polyline points="394.5,235.5,378.5,215.5,371.0,193.5,373.0,177.5,376.5,161.5,386.5,145.5,394.5,121.5,382.5,125.5,386.0,110.0,390.0,94.5,398.0,68.5,382.0,70.5,366.0,86.5,350.0,118.0" stroke="black" stroke-width="2" fill="none" />
<polyline points="344.5,119.5,360.5,83.5,376.5,67.5" stroke="black" stroke-width="2" fill="none" />
<polyline points="343.5,62.0,327.5,58.0,321.5,45.5,306.0,45.5" stroke="black" stroke-width="2" fill="none" />
<polyline points="306.5,35.5,322.5,36.0,322.0,46.0,307.5,66.0,321.5,82.0,325.0,98.0,319.0,114.0,307.0,130.0" stroke="black" stroke-width="2" fill="none" />
<polyline points="310.5,126.5,294.5,139.0,279.0,138.5,266.5,130.5,256.5,114.0,254.5,98.5,258.5,82.0,272.0,66.0,286.0,64.0,286.0,64.0" stroke="black" stroke-width="2" fill="none" />
<polyline points="277.5,75.0,293.5,68.5,309.5,75.0" stroke="black" stroke-width="2" fill="none" />
<polyline points="274.0,72.0,304.0,64.0,316.0,80.0,320.0,96.0,314.0,112.0,299.5,128.0,294.0,114.0" stroke="black" stroke-width="2" fill="none" />
<polyline points="287.5,112.0,295.5,112.0,307.5,96.0,307.5,79.5,289.0,76.0,273.0,82.0" stroke="black" stroke-width="2" fill="none" />
<polyline points="263.0,95.0,291.0,79.5,293.0,95.5,273.5,107.5,290.0,100.0,302.5,92.0,292.5,107.5" stroke="black" stroke-width="2" fill="none" />
<polyline points="309.5,118.0,293.5,132.0,277.5,132.0,261.5,124.0" stroke="black" stroke-width="2" fill="none" />
<polyline points="269.5,123.0,263.0,111.0,265.0,95.0,276.5,78.5,258.0,93.0" stroke="black" stroke-width="2" fill="none" />
<polyline points="255.5,112.5,271.5,122.5,287.5,128.5,303.5,112.5,313.5,90.0,308.0,106.0,296.5,122.0" stroke="black" stroke-width="2" fill="none" />
<polyline points="338.0,170.5,338.0,170.5,336.0,186.0" stroke="black" stroke-width="2" fill="none" />
<polyline points="341.0,184.5,342.5,168.5" stroke="black" stroke-width="2" fill="none" />
<polyline points="336.0,150.5,320.5,168.5,304.5,171.0,288.0,173.0,272.0,171.0,255.5,169.0,239.0,169.0,223.5,167.0,207.5,165.0,191.5,161.5,176.0,157.5,159.5,164.0,153.5,166.0,153.5,150.0,161.5,134.5,165.5,118.5,169.5,102.5,185.0,94.5,193.0,78.5,199.5,72.0,183.5,88.0" stroke="black" stroke-width="2" fill="none" />
<polyline points="191.5,90.0,207.5,80.0,210.0,78.0,192.0,94.0,184.0,100.5,180.0,108.5,190.0,112.5,188.5,126.0,192.5,136.0,208.5,137.5,224.0,128.0,240.0,104.0" stroke="black" stroke-width="2" fill="none" />
<polyline points="233.0,82.5,217.0,68.5,201.5,68.5" stroke="black" stroke-width="2" fill="none" />
<polyline points="209.5,64.0,225.5,67.5" stroke="black" stroke-width="2" fill="none" />
<polyline points="230.5,67.0,242.5,82.5,244.5,98.5,236.5,114.5,222.5,130.5" stroke="black" stroke-width="2" fill="none" />
<polyline points="195.0,156.5,211.0,160.5,226.5,163.0,242.5,163.0,258.0,165.5,273.5,167.5" stroke="black" stroke-width="2" fill="none" />
<polyline points="270.0,207.5,291.5,213.5" stroke="black" stroke-width="2" fill="none" />
<polyline points="303.5,245.5,321.5,261.5,322.0,277.5,322.0,293.5,322.0,309.5,320.0,325.5,320.0,341.5" stroke="black" stroke-width="2" fill="none" />
<polyline points="280.5,323.0,264.0,323.0,248.0,323.5,231.5,324.0,215.0,323.5" stroke="black" stroke-width="2" fill="none" />
<polyline points="213.0,322.0,229.0,319.5,245.0,319.5,261.0,317.5,277.0,317.5" stroke="black" stroke-width="2" fill="none" />
<polyline points="250.5,313.0,234.0,313.0,218.0,313.0" stroke="black" stroke-width="2" fill="none" />
<polyline points="214.0,306.5,230.0,306.0,246.0,305.5,262.0,307.5,277.5,309.5" stroke="black" stroke-width="2" fill="none" />
<polyline points="281.5,285.5,266.0,288.0,250.0,290.5,234.0,292.5,218.0,290.5" stroke="black" stroke-width="2" fill="none" />
<polyline points="217.0,288.0,211.0,303.5,217.0,317.5,225.0,298.0,241.0,298.5,257.0,302.5,273.0,304.5,288.5,304.5" stroke="black" stroke-width="2" fill="none" />
<polyline points="278.0,293.0,262.5,293.5,244.5,285.5,228.5,286.0,212.5,286.5" stroke="black" stroke-width="2" fill="none" />
<polyline points="210.5,281.0,226.5,278.5,231.0,282.5,247.5,280.5,263.5,280.5,279.5,280.5" stroke="black" stroke-width="2" fill="none" />
<polyline points="300.5,250.5,317.0,266.5,317.0,282.5,317.0,298.5,315.5,314.0,315.5,329.5,313.5,345.0,313.5,361.0" stroke="black" stroke-width="2" fill="none" />
<polyline points="301.5,370.5,285.0,370.0,269.0,370.0,253.5,368.0,237.5,367.5,222.0,365.5,206.0,363.0,190.0,359.0" stroke="black" stroke-width="2" fill="none" />
<polyline points="186.0,365.5,202.0,367.5,218.0,369.5,234.0,371.5,250.0,374.0,266.0,374.0,289.5,376.0" stroke="black" stroke-width="2" fill="none" />
<polyline points="317.0,391.5,316.5,408.0,307.0,424.0,295.0,440.0,295.0,456.0,293.0,472.0,293.0,488.5,298.5,486.5,314.5,486.5,330.5,489.0,346.5,489.0" stroke="black" stroke-width="2" fill="none" />
<polyline points="360.0,464.0,344.0,458.0" stroke="black" stroke-width="2" fill="none" />
<polyline points="340.5,453.5,356.5,453.5" stroke="black" stroke-width="2" fill="none" />
<polyline points="349.5,428.0,334.0,422.5,330.0,416.5,314.0,426.0,298.0,441.5" stroke="black" stroke-width="2" fill="none" />
<polyline points="293.5,444.5,309.5,424.5,327.5,413.0" stroke="black" stroke-width="2" fill="none" />
<polyline points="353.0,424.5,367.0,440.0,365.0,456.0,367.0,471.5,366.5,487.5,370.0,495.5" stroke="black" stroke-width="2" fill="none" />
<polyline points="352.0,497.5,362.0,476.0,356.0,460.0,362.0,438.0,348.5,422.5,330.5,402.5,344.0,374.5,344.0,358.5,339.5,342.5,343.5,326.5,348.0,310.5,344.5,294.0,344.5,277.5,358.5,261.5,338.5,275.5" stroke="black" stroke-width="2" fill="none" />
<polyline points="371.5,259.5,356.0,237.5,339.5,231.5,323.5,227.5,307.5,227.5,291.5,229.5,275.5,231.0,259.5,231.5,243.5,234.0,228.0,234.0,212.0,236.5,196.0,238.0" stroke="black" stroke-width="2" fill="none" />
<polyline points="193.5,248.0,209.5,246.0,225.5,246.0,242.0,245.5,258.5,245.5,274.5,245.5,290.5,247.5,306.5,249.5" stroke="black" stroke-width="2" fill="none" />
<polyline points="332.5,235.5,328.5,251.5,327.5,267.5,326.0,283.5,326.0,299.5,326.0,316.0,326.0,332.0,324.5,347.5" stroke="black" stroke-width="2" fill="none" />
<polyline points="368.5,297.0,384.5,291.5" stroke="black" stroke-width="2" fill="none" />
<polyline points="387.5,318.5,387.5,311.0,384.0,293.0,374.0,264.5" stroke="black" stroke-width="2" fill="none" />
<polyline points="346.0,239.5,360.5,255.5,340.5,271.5,348.5,290.0,354.5,310.0,350.5,326.0,346.5,342.0,348.5,358.0,350.0,373.5,337.5,389.5,335.5,405.0,319.5,417.0,299.5,438.0,299.5,454.5,297.5,470.5,295.5,491.0,298.0,496.5,314.0,498.5,330.0,498.0,345.5,498.0,352.0,504.0,368.0,500.0" stroke="black" stroke-width="2" fill="none" />
<polyline points="345.5,503.5,329.5,501.5,313.5,501.5,297.5,499.5" stroke="black" stroke-width="2" fill="none" />
<polyline points="296.0,474.0,312.0,482.0,328.5,481.5,344.5,482.0,361.0,482.0" stroke="black" stroke-width="2" fill="none" />
<polyline points="262.5,453.5,246.5,453.5" stroke="black" stroke-width="2" fill="none" />
<polyline points="261.5,427.0,246.0,405.0,230.0,404.5" stroke="black" stroke-width="2" fill="none" />
<polyline points="245.0,403.5,251.0,419.5,262.5,436.0,266.5,452.0,270.5,476.0,270.5,490.0" stroke="black" stroke-width="2" fill="none" />
<polyline points="262.5,433.5,246.0,421.0,230.0,421.0,224.0,423.5,208.0,431.5" stroke="black" stroke-width="2" fill="none" />
<polyline points="198.5,440.0,214.5,422.0,214.5,427.5,204.0,443.0,206.0,461.0,199.5,477.0,197.5,492.5,211.0,501.0,227.0,497.0,243.5,495.0,259.5,495.5" stroke="black" stroke-width="2" fill="none" />
<polyline points="254.5,503.5,238.5,503.0,218.5,487.0,202.5,485.0" stroke="black" stroke-width="2" fill="none" />
<polyline points="203.0,480.5,219.0,480.5,235.0,482.5,251.5,480.5" stroke="black" stroke-width="2" fill="none" />
<polyline points="217.0,459.0,201.0,473.0" stroke="black" stroke-width="2" fill="none" />
<polyline points="194.0,472.5,206.0,446.5" stroke="black" stroke-width="2" fill="none" />
<polyline points="258.0,424.0,274.0,440.0,269.5,456.0,265.0,471.5" stroke="black" stroke-width="2" fill="none" />
<polyline points="361.5,428.5,345.5,420.5,325.5,396.5,307.0,390.5,290.5,388.5,274.5,388.5,258.5,387.0,242.0,384.5,229.5,396.5,223.0,382.0,207.0,379.5,191.0,371.5" stroke="black" stroke-width="2" fill="none" />
<polyline points="208.0,271.0,224.0,269.0,240.5,271.0,256.5,270.5,273.0,272.5,289.0,272.0,295.0,290.0,289.0,305.5,292.5,317.5,286.5,333.5" stroke="black" stroke-width="2" fill="none" />
<polyline points="340.0,382.0,324.0,386.0,308.5,384.0,292.5,383.5,276.5,381.5,261.0,381.5,245.0,377.5,228.5,377.5,212.5,375.5,196.5,369.5,190.5,363.5,188.0,348.0,188.0,332.5,188.0,316.5,188.0,298.5,180.0,274.5,164.0,282.0,154.0,284.0,135.5,268.0,131.5,251.5,143.5,231.5,134.0,215.5,126.0,213.0,110.5,219.5,98.5,225.5,82.5,220.0,72.5,196.5,60.5,190.5,32.5,168.0,26.5,166.0,42.5,150.0,78.0,144.0,82.5,148.0,66.5,139.5,51.0,145.5,35.0,158.0,31.0,164.0" stroke="black" stroke-width="2" fill="none" />
<polyline points="29.5,170.0,45.5,170.0,61.5,172.0,77.0,154.0,72.5,159.5,64.0,176.0,79.5,170.0,91.5,186.5,107.0,191.0,122.5,209.0,138.5,221.0,154.5,234.5,171.0,234.5,187.5,238.5,203.5,232.5,219.5,230.5,236.0,230.5,252.0,228.5,268.0,224.5,286.0,221.0,302.0,211.0,318.0,204.5,334.5,206.0,352.5,214.0" stroke="black" stroke-width="2" fill="none" />
<polyline points="344.0,215.0,328.0,210.5,306.0,207.0,290.0,205.0,274.0,205.5,258.0,203.5,242.0,199.0,226.0,197.0,209.5,194.5,193.5,192.5,177.5,188.0,161.5,170.0" stroke="black" stroke-width="2" fill="none" />
<polyline points="167.5,160.0,183.5,164.5,201.5,153.0,217.5,155.5,233.0,156.0,249.0,158.5,265.0,161.0,281.0,161.0,300.5,177.0,316.5,177.0,332.0,167.0" stroke="black" stroke-width="2" fill="none" />
<polyline points="321.0,174.0,341.0,158.0,345.0,142.0,349.0,126.0,355.0,110.0,361.0,94.0,372.5,78.0,390.5,61.5,374.5,54.0,358.0,48.0,341.5,42.0,325.5,30.5,309.5,26.5,293.5,36.5,277.5,36.5,261.5,36.5,245.5,25.0,230.0,37.0,214.5,43.0,198.5,32.5,180.5,32.0,176.0,24.0,190.0,7.5,184.0,5.5,168.5,17.0" stroke="black" stroke-width="2" fill="none" />
<polyline points="174.0,18.0,189.5,14.0,197.0,19.5,189.0,35.5,191.0,55.5,177.0,72.0,163.0,88.0,155.0,104.0,149.5,120.0,159.5,124.0,159.5,142.0,157.5,158.0,161.5,174.0,171.5,186.0" stroke="black" stroke-width="2" fill="none" />
<polyline points="146.0,191.0,130.0,175.0,126.0,159.0,126.0,142.5,126.0,126.0,129.5,109.5,135.5,93.5,145.5,77.5,157.5,73.0,165.5,69.0,149.5,79.0" stroke="black" stroke-width="2" fill="none" />
<polyline points="155.0,77.0,144.5,93.0,137.0,109.0,132.5,125.0,132.5,102.5,148.0,76.5,164.5,64.5,181.0,62.0,199.5,46.0" stroke="black" stroke-width="2" fill="none" />
<polyline points="221.5,63.5,233.5,79.5,237.5,95.5,231.5,111.0,217.5,127.0" stroke="black" stroke-width="2" fill="none" />
<polyline points="215.5,120.5,229.5,104.5,233.5,88.0,209.5,105.0,193.5,103.0" stroke="black" stroke-width="2" fill="none" />
<polyline points="186.5,116.5,202.5,126.5,218.5,120.0,230.5,80.0,222.5,88.0,212.5,104.0,200.0,118.0" stroke="black" stroke-width="2" fill="none" />
<polyline points="179.5,122.0,195.0,132.0,211.0,129.5,227.0,117.5" stroke="black" stroke-width="2" fill="none" />
<polyline points="164.0,100.5,172.0,86.0,163.5,102.5,161.5,118.5,166.0,86.5,182.5,68.5,198.5,52.5,214.5,46.0,230.5,42.0,246.5,39.5" stroke="black" stroke-width="2" fill="none" />
<polyline points="233.0,38.0,197.5,52.0,185.0,73.5,179.5,83.5,175.5,99.5,176.0,115.5,186.0,131.5,186.5,156.0,196.5,160.0,203.0,148.5,219.0,150.5,235.0,150.5,251.0,152.5,267.0,154.0,283.0,154.0" stroke="black" stroke-width="2" fill="none" />
<polyline points="339.5,232.5,337.5,248.5,333.5,264.5,331.5,280.5,331.5,296.0,332.0,312.0,329.5,328.0,327.5,344.0,327.5,360.0,301.5,374.0,319.5,368.0" stroke="black" stroke-width="2" fill="none" />
<polyline points="278.0,332.0,262.0,332.0,246.0,330.0,230.5,330.0,214.5,330.5,210.5,316.5,206.5,316.5,206.5,300.5,207.0,284.5,213.0,268.5" stroke="black" stroke-width="2" fill="none" />
<polyline points="175.0,283.5,159.0,283.5,143.0,269.5,127.0,255.5,109.0,246.0,93.0,231.5,89.0,231.5,73.0,215.0,75.0,199.0,68.5,189.0,69.0,173.0,81.0,157.0,73.0,143.0,57.0,147.5,41.0,160.0" stroke="black" stroke-width="2" fill="none" />
<polyline points="56.0,148.0,39.5,164.0,46.0,176.5,62.0,190.5,78.5,186.0" stroke="black" stroke-width="2" fill="none" />
<polyline points="90.5,192.5,76.5,208.5,86.5,224.5" stroke="black" stroke-width="2" fill="none" />
<polyline points="109.0,235.5,125.0,251.5,141.0,233.5" stroke="black" stroke-width="2" fill="none" />
<polyline points="159.5,235.5,159.5,251.5,140.0,253.5,144.0,256.0" stroke="black" stroke-width="2" fill="none" />
<polyline points="151.0,273.0,163.0,256.5,160.5,240.5" stroke="black" stroke-width="2" fill="none" />
<polyline points="166.5,237.0,182.5,253.5,182.0,269.5" stroke="black" stroke-width="2" fill="none" />
<polyline points="169.0,234.0,187.0,249.5,187.5,265.5,188.0,281.5,184.5,297.5,182.5,314.0,183.0,330.0,185.0,346.0,184.5,362.0,198.5,378.0,226.5,394.5,224.5,410.5,208.5,426.0,198.5,442.0,204.5,458.0,194.5,474.0,192.0,490.0,194.0,501.5,210.0,497.5,228.0,486.0,244.0,486.0,260.0,486.0" stroke="black" stroke-width="2" fill="none" />
<polyline points="397.5,322.0,391.5,322.0,373.5,306.0,377.5,289.5,371.5,267.5,365.5,251.0,349.5,235.0" stroke="black" stroke-width="2" fill="none" />
<polyline points="479.5,228.5,463.5,250.5,448.0,261.0,432.0,281.0,416.0,279.0,400.0,281.0,375.5,271.0,359.5,261.0,351.5,243.5,331.5,233.5,316.0,232.0,300.0,232.5,284.0,238.5,268.0,234.5,262.0,220.5,259.5,207.0,243.5,205.0,227.0,203.0,211.0,198.5,195.0,198.5,179.5,194.0,163.5,189.5,147.5,181.5,131.5,159.5" stroke="black" stroke-width="2" fill="none" />
<polyline points="128.0,165.5,144.0,187.5,160.0,189.0" stroke="black" stroke-width="2" fill="none" />
<polyline points="128.5,210.5,138.5,226.5,134.5,242.5,138.5,246.5,154.5,242.5,166.5,236.5,182.0,248.0,206.0,240.0,222.0,239.5,238.0,240.0,254.0,242.0,269.5,242.0,285.0,241.5,301.0,243.5,317.0,251.5" stroke="black" stroke-width="2" fill="none" />
<polyline points="158.5,254.5,142.5,264.5,136.0,261.0,110.0,243.0,104.0,221.5,110.0,205.5,102.5,189.5" stroke="black" stroke-width="2" fill="none" />
<polyline points="120.0,213.0,106.0,229.0,103.5,245.0" stroke="black" stroke-width="2" fill="none" />
<polyline points="98.5,192.0,83.0,196.5,73.0,188.5,85.5,186.5,77.5,170.5" stroke="black" stroke-width="2" fill="none" />
<polyline points="129.5,150.5,133.5,166.5,145.5,182.5" stroke="black" stroke-width="2" fill="none" />
<polyline points="235.0,21.5,223.0,37.5,251.5,31.5" stroke="black" stroke-width="2" fill="none" />
<polyline points="245.5,25.0,251.5,41.0,239.5,47.0,255.5,41.5,272.0,40.0,288.0,40.5,304.0,42.5,320.0,42.5" stroke="black" stroke-width="2" fill="none" />
<polyline points="340.0,41.5,380.0,57.5,400.0,72.0,400.0,88.0,398.0,103.5,398.5,119.5,396.0,129.5,376.0,145.5,370.0,161.5,366.5,177.5,365.0,193.5,376.5,212.0,385.0,228.0" stroke="black" stroke-width="2" fill="none" />
<polyline points="477.0,185.5,463.0,182.0,461.0,166.5,455.0,150.5" stroke="black" stroke-width="2" fill="none" />
<polyline points="465.0,142.5,481.0,158.5,487.0,180.0,489.0,196.0,486.5,212.0,482.5,227.5,472.5,243.5,454.5,260.0,446.5,276.0,431.0,292.0,431.0,308.0,417.0,324.0" stroke="black" stroke-width="2" fill="none" />
<polyline points="332.0,160.0,340.0,144.0,344.0,128.0,348.0,112.0,353.5,95.5,363.5,79.5,379.5,64.0,344.0,48.5" stroke="black" stroke-width="2" fill="none" />
<polyline points="348.0,67.5,332.0,59.5,316.0,57.5,310.0,57.5,294.0,41.0" stroke="black" stroke-width="2" fill="none" />
<polyline points="428.0,39.5,414.0,55.5,425.5,71.5,425.5,87.5,425.5,103.5,420.0,120.0,430.0,135.5,422.0,159.5,414.0,176.0,412.0,192.0,410.0,208.5,414.0,224.5,422.0,240.0,424.0,254.0,406.0,269.5,390.5,285.0,360.5,301.5,378.5,318.0" stroke="black" stroke-width="2" fill="none" />
</svg>