<svg xmlns="http://www.w3.org/2000/svg" width="512mm" height="512mm" viewBox="0 0 512 512" version="1.1"><polyline points="125.5,2.5,125.5,18.5,125.5,34.5,125.5,50.5,125.5,67.0,125.5,83.0,125.5,99.0,125.5,115.0,125.0,131.0,123.0,146.5,122.5,162.5,99.0,174.5,91.0,190.5,95.0,206.5,87.5,222.0,105.5,239.5,103.5,255.0,95.5,271.0,77.5,287.0,61.5,302.5" stroke="black" stroke-width="2" fill="none" />
<polyline points="92.5,266.0,100.5,250.0,98.5,234.0,92.5,218.0,74.5,201.5,68.5,199.5" stroke="black" stroke-width="2" fill="none" />
<polyline points="73.5,200.5,89.5,216.5" stroke="black" stroke-width="2" fill="none" />
<polyline points="90.0,187.0,106.5,170.5,129.0,179.0,129.0,195.0,125.5,211.0,128.0,227.5,130.5,243.0,130.5,259.0,133.0,274.5,135.0,290.0,135.0,305.5,137.5,321.5,139.0,337.5,145.0,353.5,162.5,370.0" stroke="black" stroke-width="2" fill="none" />
<polyline points="190.5,377.0,192.5,373.5,192.5,381.0,194.0,384.5,200.0,389.0,202.0,393.0,191.5,405.0" stroke="black" stroke-width="2" fill="none" />
<polyline points="212.0,408.0,204.0,424.5,212.0,426.0,219.5,442.0,233.5,457.5,237.5,473.0,237.5,489.5,237.5,505.5" stroke="black" stroke-width="2" fill="none" />
<polyline points="274.0,497.5,274.0,481.5,274.5,465.5,285.0,450.0,309.5,430.0,311.5,414.0,298.0,416.0" stroke="black" stroke-width="2" fill="none" />
<polyline points="311.5,386.5,317.5,376.0,319.5,372.0,329.5,382.5,331.5,392.5,331.5,408.5,331.5,426.0,355.5,442.0,361.5,458.0,365.5,474.0,369.5,490.0,375.5,506.0" stroke="black" stroke-width="2" fill="none" />
<polyline points="352.5,447.5,337.0,439.5,323.5,439.0,305.5,438.5,290.0,443.0,274.0,463.0" stroke="black" stroke-width="2" fill="none" />
<polyline points="268.5,464.5,284.5,440.5,300.5,432.5,320.0,434.5,320.0,424.5,346.5,436.5" stroke="black" stroke-width="2" fill="none" />
<polyline points="347.0,443.0,357.0,459.0,361.0,475.0,364.5,490.5,370.0,506.0" stroke="black" stroke-width="2" fill="none" />
<polyline points="330.5,370.5,346.0,370.0,362.0,364.0" stroke="black" stroke-width="2" fill="none" />
<polyline points="362.5,335.0,346.5,335.0,330.0,335.0,314.0,335.0,317.5,318.5,309.5,302.5,301.0,302.0,285.0,310.0" stroke="black" stroke-width="2" fill="none" />
<polyline points="290.0,304.5,286.0,320.5" stroke="black" stroke-width="2" fill="none" />
<polyline points="282.0,321.0,297.5,329.5" stroke="black" stroke-width="2" fill="none" />
<polyline points="306.0,337.0,290.0,337.0,273.5,337.0,258.0,337.5,242.0,338.0,225.5,338.0,209.5,338.0,194.0,338.5,178.0,338.5,162.0,340.0,146.0,337.5" stroke="black" stroke-width="2" fill="none" />
<polyline points="145.5,343.5,161.5,361.5,177.5,365.5,193.5,365.5,210.0,365.5,226.0,363.5,242.0,363.5,257.5,363.0,273.0,363.0,289.5,363.0,306.0,365.0,321.5,365.5,337.5,365.5,353.5,361.5" stroke="black" stroke-width="2" fill="none" />
<polyline points="362.0,337.5,346.0,337.5,330.0,337.5,314.0,337.5,286.0,333.5,270.0,333.5,254.0,333.5,238.0,333.5,228.0,323.5,220.0,325.5,221.5,309.5,217.5,305.5,222.0,302.0,206.5,298.0,190.5,311.5" stroke="black" stroke-width="2" fill="none" />
<polyline points="202.5,303.5,218.5,305.5,229.0,311.5,225.5,327.5" stroke="black" stroke-width="2" fill="none" />
<polyline points="207.0,335.0,191.5,335.0,175.5,335.0,159.5,334.5,143.5,326.5" stroke="black" stroke-width="2" fill="none" />
<polyline points="139.5,345.0,155.5,366.5,171.5,371.0,191.5,387.0,192.0,403.0,194.0,419.0,192.0,434.5,206.5,428.0,216.5,433.5,232.5,443.5" stroke="black" stroke-width="2" fill="none" />
<polyline points="229.5,442.5,241.0,458.5,243.0,474.5,242.5,490.0,242.0,506.0" stroke="black" stroke-width="2" fill="none" />
<polyline points="270.0,500.5,270.0,484.5,268.0,468.0,276.0,451.5,289.5,435.5,296.0,419.5,300.5,404.0,298.5,388.0,304.5,372.5,290.5,370.5,274.0,370.5,258.0,370.5,241.5,370.5,225.5,370.0,209.5,370.0" stroke="black" stroke-width="2" fill="none" />
<polyline points="196.5,319.0,203.0,316.5,207.0,300.5" stroke="black" stroke-width="2" fill="none" />
<polyline points="201.0,297.5,189.0,313.5,191.0,320.0,201.5,326.5,218.0,328.5" stroke="black" stroke-width="2" fill="none" />
<polyline points="210.5,284.0,194.0,284.5,178.0,285.0" stroke="black" stroke-width="2" fill="none" />
<polyline points="174.5,245.5,190.5,241.5,207.0,241.5,223.0,241.5,246.5,241.0,262.0,243.5,278.0,241.5,294.5,244.0,310.5,244.5,326.0,245.0,341.5,245.0" stroke="black" stroke-width="2" fill="none" />
<polyline points="352.0,245.0,352.0,261.0" stroke="black" stroke-width="2" fill="none" />
<polyline points="334.0,285.0,318.0,285.0,302.0,285.5,286.5,285.0,270.5,285.0" stroke="black" stroke-width="2" fill="none" />
<polyline points="293.5,297.0,279.5,313.0,279.5,314.0,295.5,298.5,311.5,302.5" stroke="black" stroke-width="2" fill="none" />
<polyline points="303.5,304.0,313.5,320.0" stroke="black" stroke-width="2" fill="none" />
<polyline points="342.5,205.5,326.5,217.5,311.0,211.5,284.5,202.0,268.5,220.0,252.0,224.0,236.0,210.0" stroke="black" stroke-width="2" fill="none" />
<polyline points="248.0,215.5,234.0,200.0,236.5,184.0,237.0,175.5,253.0,173.5,251.5,175.5,235.0,185.5" stroke="black" stroke-width="2" fill="none" />
<polyline points="254.0,166.5,270.5,173.0" stroke="black" stroke-width="2" fill="none" />
<polyline points="271.5,169.5,287.5,185.5,283.5,201.5,269.5,218.0" stroke="black" stroke-width="2" fill="none" />
<polyline points="249.5,224.5,232.0,208.5,218.5,208.0,202.5,221.5,186.5,219.5,170.5,207.5" stroke="black" stroke-width="2" fill="none" />
<polyline points="165.5,201.0,181.5,211.0,198.0,215.0,214.0,203.5,220.5,194.0,211.0,210.0" stroke="black" stroke-width="2" fill="none" />
<polyline points="200.0,201.0,212.0,185.5,198.0,169.5" stroke="black" stroke-width="2" fill="none" />
<polyline points="203.0,166.0,177.0,182.0,169.0,195.5,182.5,211.5,204.5,200.0" stroke="black" stroke-width="2" fill="none" />
<polyline points="210.5,215.5,225.0,199.5,227.0,183.5,207.0,167.5" stroke="black" stroke-width="2" fill="none" />
<polyline points="191.0,161.5,168.5,178.0,165.0,194.0,171.0,210.0" stroke="black" stroke-width="2" fill="none" />
<polyline points="163.5,187.5,179.5,167.5,195.5,163.5,211.5,169.5,228.0,185.5,244.0,167.5,260.5,163.5,277.0,172.0,295.5,182.0,311.5,166.0,328.0,162.0,343.5,164.0,353.5,180.0" stroke="black" stroke-width="2" fill="none" />
<polyline points="351.0,186.5,335.0,172.5,319.0,174.5,303.5,180.5" stroke="black" stroke-width="2" fill="none" />
<polyline points="319.5,172.0,301.5,184.0,297.5,200.5,313.5,216.5" stroke="black" stroke-width="2" fill="none" />
<polyline points="345.5,211.5,330.0,223.5,314.5,223.5,298.5,209.0,271.0,212.5,255.0,218.5,239.5,204.5,221.5,184.5,205.5,172.5,189.5,174.5,173.5,183.0" stroke="black" stroke-width="2" fill="none" />
<polyline points="147.5,155.5,132.0,155.5" stroke="black" stroke-width="2" fill="none" />
<polyline points="131.0,156.0,131.0,171.5,125.0,187.5,133.0,212.0,135.0,228.5,135.0,244.5,137.0,260.5,136.5,276.5,138.5,292.5,138.5,308.5,141.0,324.5,145.0,340.5,153.0,356.5,183.5,376.5,181.5,392.5,183.5,408.5,183.0,424.5,161.0,440.5,153.0,456.0,146.5,471.5,140.5,487.5,132.5,503.5,138.5,491.5,154.5,450.0,170.0,436.5,195.5,414.5,199.5,410.5,204.0,418.5" stroke="black" stroke-width="2" fill="none" />
<polyline points="223.5,443.5,207.5,439.0,191.0,439.0,175.0,439.0,159.5,448.5,143.5,491.0,140.0,503.0,146.0,487.0,152.5,471.5,158.5,456.0,174.5,440.0" stroke="black" stroke-width="2" fill="none" />
<polyline points="168.0,246.5,184.0,238.5,200.0,238.0,216.0,238.0,232.0,237.5,248.5,237.0,264.5,237.5,280.5,237.5,296.0,238.0,312.0,238.0,327.5,238.5,343.5,238.0,345.5,246.0,347.5,262.5" stroke="black" stroke-width="2" fill="none" />
<polyline points="387.0,197.5,387.5,207.5,403.5,201.5,419.5,186.0,421.5,190.0,415.5,211.5,420.0,227.5" stroke="black" stroke-width="2" fill="none" />
<polyline points="436.0,255.5,452.0,269.5,468.0,277.5,484.0,277.5,500.0,267.5,508.0,258.0,488.0,273.5" stroke="black" stroke-width="2" fill="none" />
<polyline points="461.0,269.0,441.0,253.0,435.5,237.0,437.5,221.0,433.0,203.5,435.0,187.5,424.5,173.5,440.5,157.5,452.5,148.0,436.0,160.0,420.0,174.5,404.0,171.0,387.5,177.0" stroke="black" stroke-width="2" fill="none" />
<polyline points="402.0,176.5,386.0,192.0,385.5,210.5,383.5,226.5,384.0,242.5,382.5,258.5,382.5,274.5,380.5,290.0,380.5,306.0,378.5,321.5,376.5,339.5,368.5,355.5" stroke="black" stroke-width="2" fill="none" />
<polyline points="337.5,277.5,321.0,278.0,305.0,278.0,289.0,278.0,273.5,277.5,257.5,277.5,241.5,278.0,226.0,278.0,210.0,278.0,194.0,277.5,178.0,277.5,174.0,259.5,176.0,243.5" stroke="black" stroke-width="2" fill="none" />
<polyline points="174.5,238.5,168.5,254.5,168.5,270.0,176.5,272.0,192.5,274.0,208.5,274.0,224.0,274.0,240.0,273.5,256.0,273.5,272.0,274.0,288.0,274.0,304.0,274.0,320.0,274.0,336.0,272.0" stroke="black" stroke-width="2" fill="none" />
<polyline points="255.5,219.5,277.5,203.0,281.5,187.0,263.5,171.0" stroke="black" stroke-width="2" fill="none" />
<polyline points="288.5,137.0,304.5,136.5" stroke="black" stroke-width="2" fill="none" />
<polyline points="321.0,161.5,299.0,177.5,292.5,194.0,298.5,210.0" stroke="black" stroke-width="2" fill="none" />
<polyline points="343.0,213.0,355.0,197.0,353.0,181.5,331.0,166.0" stroke="black" stroke-width="2" fill="none" />
<polyline points="330.0,164.0,346.0,180.0,349.5,196.0,337.0,211.5" stroke="black" stroke-width="2" fill="none" />
<polyline points="383.5,123.5,367.5,105.5" stroke="black" stroke-width="2" fill="none" />
<polyline points="371.0,114.5,381.0,130.5" stroke="black" stroke-width="2" fill="none" />
<polyline points="329.5,96.5,314.0,108.0,298.5,108.0,283.0,108.0,267.0,105.5,251.5,87.0" stroke="black" stroke-width="2" fill="none" />
<polyline points="251.5,97.5,269.5,113.5" stroke="black" stroke-width="2" fill="none" />
<polyline points="264.5,74.0,280.5,90.0,296.0,88.0,312.0,73.5,314.0,69.5,298.0,85.5" stroke="black" stroke-width="2" fill="none" />
<polyline points="304.5,68.0,288.5,76.0,272.5,64.0" stroke="black" stroke-width="2" fill="none" />
<polyline points="266.5,65.5,283.0,47.5,299.0,45.5,315.0,57.5" stroke="black" stroke-width="2" fill="none" />
<polyline points="308.5,45.0,322.5,61.5,316.0,77.5" stroke="black" stroke-width="2" fill="none" />
<polyline points="342.0,86.0,336.5,98.0,320.5,112.0,304.5,114.0,288.0,114.0,272.0,114.0,256.5,104.5,241.0,106.5,225.0,114.0,209.0,114.0,192.5,114.0,176.5,113.5,160.0,98.0,144.0,94.0" stroke="black" stroke-width="2" fill="none" />
<polyline points="140.5,104.5,143.0,120.5" stroke="black" stroke-width="2" fill="none" />
<polyline points="139.0,112.0,155.0,128.0" stroke="black" stroke-width="2" fill="none" />
<polyline points="161.0,126.5,145.0,110.5" stroke="black" stroke-width="2" fill="none" />
<polyline points="138.0,108.0,154.0,120.0,170.0,130.0,186.0,132.0,202.0,132.0,217.5,132.0,234.0,132.0,250.0,131.5,266.0,131.5,282.5,131.0,298.5,129.0,314.0,129.0,330.0,125.5,346.0,107.5,344.0,111.5,324.0,127.5,326.0,133.5,342.5,124.0,352.5,110.5,340.5,126.5" stroke="black" stroke-width="2" fill="none" />
<polyline points="264.0,105.5,252.0,89.5,256.0,75.5,256.0,59.5,256.0,43.5,266.0,27.0,264.5,45.0" stroke="black" stroke-width="2" fill="none" />
<polyline points="276.5,38.5,264.5,58.5,280.5,42.5,296.5,40.5,312.5,48.5" stroke="black" stroke-width="2" fill="none" />
<polyline points="295.0,40.0,311.0,55.5,299.5,71.5" stroke="black" stroke-width="2" fill="none" />
<polyline points="289.5,43.0,269.5,59.0,269.5,75.5" stroke="black" stroke-width="2" fill="none" />
<polyline points="229.0,82.0,239.0,66.0,227.0,50.0,231.0,40.0,221.0,38.0" stroke="black" stroke-width="2" fill="none" />
<polyline points="218.0,41.5,234.0,53.5" stroke="black" stroke-width="2" fill="none" />
<polyline points="229.0,57.5,212.5,46.0,196.5,48.5,181.0,62.5" stroke="black" stroke-width="2" fill="none" />
<polyline points="176.5,63.5,192.5,43.5,208.5,37.5,224.5,35.0" stroke="black" stroke-width="2" fill="none" />
<polyline points="228.5,27.5,244.0,43.5,246.0,59.5,244.0,75.0,246.0,91.0,232.5,106.5" stroke="black" stroke-width="2" fill="none" />
<polyline points="210.0,73.0,214.0,57.0,204.0,75.0,193.5,72.5,201.5,56.5,208.0,55.0,192.0,65.0" stroke="black" stroke-width="2" fill="none" />
<polyline points="178.0,76.0,194.0,86.0,210.5,90.0,226.5,76.0" stroke="black" stroke-width="2" fill="none" />
<polyline points="228.0,82.5,212.0,94.5,196.0,92.5,180.0,80.0" stroke="black" stroke-width="2" fill="none" />
<polyline points="162.0,87.5,177.5,107.5,193.5,108.0,209.5,108.0,225.5,108.0,242.0,96.5,240.0,106.5" stroke="black" stroke-width="2" fill="none" />
<polyline points="183.5,75.5,182.5,59.5,200.5,43.5" stroke="black" stroke-width="2" fill="none" />
<polyline points="203.0,38.5,180.5,54.5,176.5,70.0,184.5,86.0" stroke="black" stroke-width="2" fill="none" />
<polyline points="211.5,88.5,227.5,72.5,225.5,56.5,211.5,40.5" stroke="black" stroke-width="2" fill="none" />
<polyline points="230.5,22.5,247.0,38.5" stroke="black" stroke-width="2" fill="none" />
<polyline points="290.0,39.0,268.0,55.0,261.5,71.0,271.5,87.0,291.5,95.0,307.5,89.0" stroke="black" stroke-width="2" fill="none" />
<polyline points="334.5,32.5,318.5,22.5,302.5,20.5,286.5,20.5,270.5,23.0,255.0,30.5,238.5,24.5,222.5,20.0,206.5,20.5,190.5,18.0,174.0,22.0,158.0,38.0,142.0,26.0" stroke="black" stroke-width="2" fill="none" />
<polyline points="152.0,6.5,141.5,22.0,149.5,37.5,157.5,37.5,156.0,54.0,156.0,70.0,156.0,86.0,172.0,106.0" stroke="black" stroke-width="2" fill="none" />
<polyline points="145.0,149.5,129.0,155.0" stroke="black" stroke-width="2" fill="none" />
<polyline points="129.5,138.0,145.5,136.0,161.5,148.0,177.5,150.0,193.5,149.5,210.0,149.0,226.0,149.5,242.5,149.5,258.5,149.5,274.5,150.0,290.0,150.0,306.0,150.0,322.5,150.0,338.5,148.0,355.0,131.5,366.5,119.5,358.5,135.5,352.5,149.5,368.5,149.0,386.0,159.0,386.5,175.0,400.5,177.0,416.5,179.5,432.5,173.5,449.0,160.0,465.0,154.0" stroke="black" stroke-width="2" fill="none" />
<polyline points="452.0,154.5,446.0,170.5,440.0,186.0,438.0,202.0,430.0,217.5,424.5,233.0,426.5,241.5,442.5,254.0,458.5,268.5,475.0,274.5" stroke="black" stroke-width="2" fill="none" />
<polyline points="505.5,252.0,511.5,236.0" stroke="black" stroke-width="2" fill="none" />
<polyline points="491.0,172.5,507.0,168.5" stroke="black" stroke-width="2" fill="none" />
<polyline points="510.0,163.5,493.5,157.5" stroke="black" stroke-width="2" fill="none" />
<polyline points="495.5,164.0,491.5,180.0,489.5,196.0,487.0,212.0,486.5,227.5,486.0,244.0,485.5,260.0" stroke="black" stroke-width="2" fill="none" />
<polyline points="444.0,265.5,432.0,249.5,416.5,233.5,413.0,217.5,413.0,196.0,425.0,180.0,441.0,164.5" stroke="black" stroke-width="2" fill="none" />
<polyline points="464.0,135.5,480.0,133.5,500.0,128.0" stroke="black" stroke-width="2" fill="none" />
<polyline points="503.0,114.0,495.0,110.0,501.5,94.0,504.0,101.5,502.0,79.5,510.5,63.0,496.5,91.0,481.0,93.0,465.0,89.0,448.5,79.5,432.5,57.5" stroke="black" stroke-width="2" fill="none" />
<polyline points="429.0,61.5,445.0,83.5,460.5,93.5,458.5,109.5" stroke="black" stroke-width="2" fill="none" />
<polyline points="455.5,49.5,463.0,33.5,460.5,17.5,448.0,3.5" stroke="black" stroke-width="2" fill="none" />
<polyline points="455.0,2.0,451.5,10.0,457.0,25.5,455.5,41.5" stroke="black" stroke-width="2" fill="none" />
<polyline points="451.0,52.0,435.5,25.5,420.0,16.0" stroke="black" stroke-width="2" fill="none" />
<polyline points="419.0,16.5,425.0,32.5,429.0,48.0,435.0,64.0,446.5,80.0,468.5,107.5" stroke="black" stroke-width="2" fill="none" />
<polyline points="510.5,74.5,505.0,90.5,495.0,107.0,493.0,123.5,489.0,143.5,497.0,155.5,487.0,171.5,485.0,187.5,482.5,203.0,482.5,219.0,483.0,234.5,483.0,250.5,482.5,267.0,498.5,261.0" stroke="black" stroke-width="2" fill="none" />
<polyline points="486.5,44.0,460.0,29.5,444.0,35.5,428.0,11.0,412.0,13.5" stroke="black" stroke-width="2" fill="none" />
<polyline points="417.5,11.5,413.5,27.5,421.5,43.5,425.5,59.0,433.5,75.0,449.5,90.5,456.0,106.5,452.5,122.0,453.0,138.0,465.5,150.0,472.0,144.0,474.0,156.0,489.5,160.0,497.0,143.5,494.5,131.5,510.5,114.0" stroke="black" stroke-width="2" fill="none" />
<polyline points="441.5,34.5,433.5,18.5" stroke="black" stroke-width="2" fill="none" />
<polyline points="427.0,13.0,434.5,29.0,443.0,45.0" stroke="black" stroke-width="2" fill="none" />
<polyline points="478.5,26.5,474.5,11.0" stroke="black" stroke-width="2" fill="none" />
<polyline points="472.0,1.5,470.0,17.5,473.5,33.5" stroke="black" stroke-width="2" fill="none" />
<polyline points="494.0,34.0,498.0,17.5,498.0,1.5" stroke="black" stroke-width="2" fill="none" />
<polyline points="494.0,1.0,492.0,17.5,488.0,33.5,490.0,25.5" stroke="black" stroke-width="2" fill="none" />
<polyline points="366.0,18.0,365.5,34.0,366.0,50.5,360.0,66.5,362.5,82.0,360.5,97.5,363.0,114.0,357.0,130.0,343.0,146.0,357.0,140.0,373.0,114.0" stroke="black" stroke-width="2" fill="none" />
<polyline points="326.5,108.5,350.5,92.5,342.5,76.5,342.5,60.5,340.5,44.5,328.5,28.5" stroke="black" stroke-width="2" fill="none" />
<polyline points="317.5,22.5,331.5,38.5,335.0,54.5,335.0,70.5,334.5,86.0,322.5,102.0,324.5,117.5,339.0,103.5" stroke="black" stroke-width="2" fill="none" />
<polyline points="311.0,6.0,295.0,6.0,279.0,6.0,263.0,6.0,247.0,6.0,231.0,6.0,215.5,6.0,199.5,6.0,184.0,6.0,168.5,6.0,152.5,5.5" stroke="black" stroke-width="2" fill="none" />
<polyline points="131.0,1.5,131.0,17.5,129.5,33.5,131.5,49.5,132.0,65.0,132.0,81.5,132.0,97.5,132.0,114.0,134.0,130.0,140.0,140.5,160.0,148.5,160.0,155.0,175.5,157.0,191.5,156.5,207.5,156.5,223.5,156.0,240.0,156.0,255.5,156.0,272.0,156.0,288.0,156.0,304.0,156.0,320.0,156.5,336.0,156.0,351.5,156.0,367.5,155.5,383.5,151.0" stroke="black" stroke-width="2" fill="none" />
<polyline points="324.0,29.5,308.0,23.5,292.0,23.5,276.0,25.5,260.0,31.5,233.5,27.0,217.0,23.0,201.0,23.5,185.0,23.5,169.0,30.0,159.0,36.5,177.0,20.5" stroke="black" stroke-width="2" fill="none" />
<polyline points="182.0,24.0,164.0,40.0,162.0,56.0,162.0,72.5,162.0,88.5,164.0,104.5" stroke="black" stroke-width="2" fill="none" />
<polyline points="88.5,80.0,72.5,110.0,56.5,124.0,58.5,116.0,74.5,100.0,82.5,83.5,88.5,67.5,94.0,51.5" stroke="black" stroke-width="2" fill="none" />
<polyline points="64.0,30.5,74.0,7.0,69.5,23.0,61.5,39.0,56.0,54.5,56.0,70.0,65.5,68.0,81.0,46.0,97.0,46.0,75.5,62.0,67.5,78.0" stroke="black" stroke-width="2" fill="none" />
<polyline points="56.0,35.0,68.0,5.0,64.5,21.0,56.0,37.0,52.0,53.0,49.5,68.5,51.5,70.5,67.0,78.5,83.0,52.0,98.5,49.5,92.5,65.5,86.5,81.5,79.0,97.5,67.5,113.5,47.5,129.5,52.0,151.5,50.0,168.0,52.5,180.0,56.5,170.0,67.0,182.5,83.0,194.5,97.0,204.5,113.0,202.0,117.0,208.0" stroke="black" stroke-width="2" fill="none" />
<polyline points="109.5,198.5,105.5,182.0" stroke="black" stroke-width="2" fill="none" />
<polyline points="100.5,183.0,100.0,199.5" stroke="black" stroke-width="2" fill="none" />
<polyline points="45.5,170.0,29.0,171.5" stroke="black" stroke-width="2" fill="none" />
<polyline points="26.0,188.0,19.5,204.0,23.0,219.5,23.0,235.5,25.0,251.5,25.0,268.0,25.0,284.0" stroke="black" stroke-width="2" fill="none" />
<polyline points="22.5,300.0,6.5,276.5" stroke="black" stroke-width="2" fill="none" />
<polyline points="3.5,266.0,7.5,282.0,10.0,298.0" stroke="black" stroke-width="2" fill="none" />
<polyline points="2.5,287.0,18.5,304.5,35.0,306.5,51.5,304.5,67.5,292.5" stroke="black" stroke-width="2" fill="none" />
<polyline points="96.0,260.0,84.0,269.5,82.0,253.5,82.0,237.0,77.5,221.5,87.0,201.5,65.5,191.5,49.5,185.5,33.5,187.5,17.5,195.5,1.5,200.0" stroke="black" stroke-width="2" fill="none" />
<polyline points="23.5,198.0,27.0,214.0,29.0,229.5,29.0,245.5,29.0,261.5,30.5,277.5,30.5,293.5,38.5,311.5,54.5,307.5,71.0,295.5,87.0,277.0" stroke="black" stroke-width="2" fill="none" />
<polyline points="50.5,160.5,30.5,164.0,15.0,189.5,11.0,195.5,21.0,179.5,27.0,177.5,15.0,160.0" stroke="black" stroke-width="2" fill="none" />
<polyline points="28.0,150.5,44.0,142.0" stroke="black" stroke-width="2" fill="none" />
<polyline points="2.0,113.5,18.0,127.5,20.0,141.0,12.0,155.0,44.5,163.5,38.5,167.5,44.5,179.0,62.5,187.0,68.5,203.0,74.5,219.5,76.5,235.5,76.5,251.5,78.5,267.5,74.5,283.0,58.5,299.0" stroke="black" stroke-width="2" fill="none" />
<polyline points="54.0,144.0,48.0,140.0,35.5,146.0,38.0,130.0,15.5,136.0,11.5,146.5,3.5,146.5,11.5,131.0,6.0,123.0,4.0,106.5" stroke="black" stroke-width="2" fill="none" />
<polyline points="2.0,107.0,18.0,123.0,34.5,125.0,50.5,122.5,67.0,108.5,83.0,80.0,81.0,48.0,69.0,63.5" stroke="black" stroke-width="2" fill="none" />
<polyline points="46.0,30.5,56.0,2.5,46.0,18.5,40.0,34.0,35.5,49.5,29.5,65.5,29.5,73.0,41.5,25.0,62.0,1.0,54.0,17.0,46.0,33.0,42.0,49.0,35.5,64.5,25.5,66.5" stroke="black" stroke-width="2" fill="none" />
<polyline points="17.5,62.5,13.5,46.5,23.5,30.5,17.0,28.5,19.0,14.5,3.0,18.5" stroke="black" stroke-width="2" fill="none" />
<polyline points="2.5,25.0,18.5,23.0" stroke="black" stroke-width="2" fill="none" />
<polyline points="17.5,43.5,19.5,59.5" stroke="black" stroke-width="2" fill="none" />
<polyline points="365.5,1.0,361.5,17.0,359.5,33.0,365.5,53.5,366.0,70.0,366.0,86.5,366.0,102.5,380.0,118.5,386.0,134.5,386.5,138.5,389.0,152.5,383.0,168.5,382.5,184.5,382.5,200.5,380.5,216.5,380.5,232.5,378.5,248.0,378.0,264.0,376.0,280.0,376.0,296.0,374.5,312.0,372.5,328.0,368.5,345.5,354.0,361.0" stroke="black" stroke-width="2" fill="none" />
</svg>