<?xml version="1.0" encoding="UTF-8"?>
<svg xmlns="http://www.w3.org/2000/svg" xmlns:xlink="http://www.w3.org/1999/xlink" width="1935.11811" height="1935.11811" viewBox="0 0 1935.11811 1935.11811" version="1.1">
<g id="surface1">
<path style="fill:none;stroke-width:2;stroke-linecap:butt;stroke-linejoin:miter;stroke:rgb(0%,0%,0%);stroke-opacity:1;stroke-miterlimit:4;" d="M 125.50035 2.500106 L 125.50035 114.999699 L 125.000122 130.999756 L 123.000244 146.499585 L 122.500016 162.499642 L 98.999642 174.499943 L 91.00013 190.5 L 94.999886 206.500057 L 87.499569 221.999886 L 105.499504 239.499593 L 103.499626 255.000456 L 95.500114 271.000513 L 77.500179 286.999536 L 61.500122 302.500399 " transform="matrix(3.779528,0,0,3.779528,0,0)"/>
<path style="fill:none;stroke-width:2;stroke-linecap:butt;stroke-linejoin:miter;stroke:rgb(0%,0%,0%);stroke-opacity:1;stroke-miterlimit:4;" d="M 92.49978 266.000301 L 100.500326 250.000244 L 98.500448 234.000187 L 92.49978 218.00013 L 74.499845 201.499845 L 68.500212 199.499967 " transform="matrix(3.779528,0,0,3.779528,0,0)"/>
<path style="fill:none;stroke-width:2;stroke-linecap:butt;stroke-linejoin:miter;stroke:rgb(0%,0%,0%);stroke-opacity:1;stroke-miterlimit:4;" d="M 73.500423 200.500423 L 89.50048 216.50048 " transform="matrix(3.779528,0,0,3.779528,0,0)"/>
<path style="fill:none;stroke-width:2;stroke-linecap:butt;stroke-linejoin:miter;stroke:rgb(0%,0%,0%);stroke-opacity:1;stroke-miterlimit:4;" d="M 89.999674 187.000472 L 106.499959 170.500187 L 128.999878 178.999927 L 128.999878 194.999984 L 125.50035 211.000041 L 128.000456 227.500326 L 130.499528 243.000155 L 130.499528 259.000212 L 132.999634 274.500041 L 134.999512 289.99987 L 134.999512 305.499699 L 137.499618 321.499756 L 139.000301 337.499813 L 144.999935 353.49987 L 162.499642 370.000155 " transform="matrix(3.779528,0,0,3.779528,0,0)"/>
<path style="fill:none;stroke-width:2;stroke-linecap:butt;stroke-linejoin:miter;stroke:rgb(0%,0%,0%);stroke-opacity:1;stroke-miterlimit:4;" d="M 190.5 377.000244 L 192.499878 373.499683 L 192.499878 381 L 193.999528 384.499528 L 200.000195 388.999512 L 202.000073 393.000301 L 191.500456 404.999569 " transform="matrix(3.779528,0,0,3.779528,0,0)"/>
<path style="fill:none;stroke-width:2;stroke-linecap:butt;stroke-linejoin:miter;stroke:rgb(0%,0%,0%);stroke-opacity:1;stroke-miterlimit:4;" d="M 212.000496 407.999902 L 203.999951 424.500187 L 212.000496 425.999837 L 219.49978 441.999894 L 233.499959 457.499723 L 237.499715 472.999552 L 237.499715 505.499894 " transform="matrix(3.779528,0,0,3.779528,0,0)"/>
<path style="fill:none;stroke-width:2;stroke-linecap:butt;stroke-linejoin:miter;stroke:rgb(0%,0%,0%);stroke-opacity:1;stroke-miterlimit:4;" d="M 273.999813 497.500382 L 273.999813 481.500326 L 274.500041 465.500269 L 284.999658 450.000439 L 309.500488 429.999593 L 311.500366 413.999536 L 298.000415 416.000448 " transform="matrix(3.779528,0,0,3.779528,0,0)"/>
<path style="fill:none;stroke-width:2;stroke-linecap:butt;stroke-linejoin:miter;stroke:rgb(0%,0%,0%);stroke-opacity:1;stroke-miterlimit:4;" d="M 311.500366 386.500439 L 317.5 375.999788 L 319.499878 372.000033 L 329.500301 382.49965 L 331.500179 392.500073 L 331.500179 425.999837 L 355.499748 441.999894 L 361.500415 457.999951 L 369.499927 490.000065 L 375.499561 506.000122 " transform="matrix(3.779528,0,0,3.779528,0,0)"/>
<path style="fill:none;stroke-width:2;stroke-linecap:butt;stroke-linejoin:miter;stroke:rgb(0%,0%,0%);stroke-opacity:1;stroke-miterlimit:4;" d="M 352.500448 447.500334 L 336.999585 439.499788 L 323.499634 438.999561 L 305.499699 438.500366 L 289.99987 443.00035 L 273.999813 463.000163 " transform="matrix(3.779528,0,0,3.779528,0,0)"/>
<path style="fill:none;stroke-width:2;stroke-linecap:butt;stroke-linejoin:miter;stroke:rgb(0%,0%,0%);stroke-opacity:1;stroke-miterlimit:4;" d="M 268.500407 464.499813 L 284.500464 440.500244 L 300.499487 432.499699 L 320.000106 434.499577 L 320.000106 424.500187 L 346.49978 436.500488 " transform="matrix(3.779528,0,0,3.779528,0,0)"/>
<path style="fill:none;stroke-width:2;stroke-linecap:butt;stroke-linejoin:miter;stroke:rgb(0%,0%,0%);stroke-opacity:1;stroke-miterlimit:4;" d="M 347.000008 443.00035 L 357.000431 459.000407 L 361.000187 475.000464 L 364.499715 490.500293 L 370.000155 506.000122 " transform="matrix(3.779528,0,0,3.779528,0,0)"/>
<path style="fill:none;stroke-width:2;stroke-linecap:butt;stroke-linejoin:miter;stroke:rgb(0%,0%,0%);stroke-opacity:1;stroke-miterlimit:4;" d="M 330.499723 370.500382 L 345.999552 370.000155 L 361.999609 363.999487 " transform="matrix(3.779528,0,0,3.779528,0,0)"/>
<path style="fill:none;stroke-width:2;stroke-linecap:butt;stroke-linejoin:miter;stroke:rgb(0%,0%,0%);stroke-opacity:1;stroke-miterlimit:4;" d="M 362.499837 334.999707 L 314.000472 334.999707 L 317.5 318.500456 L 309.500488 302.500399 L 300.999715 302.000171 L 284.999658 309.999683 " transform="matrix(3.779528,0,0,3.779528,0,0)"/>
<path style="fill:none;stroke-width:2;stroke-linecap:butt;stroke-linejoin:miter;stroke:rgb(0%,0%,0%);stroke-opacity:1;stroke-miterlimit:4;" d="M 289.99987 304.500277 L 286.000114 320.500334 " transform="matrix(3.779528,0,0,3.779528,0,0)"/>
<path style="fill:none;stroke-width:2;stroke-linecap:butt;stroke-linejoin:miter;stroke:rgb(0%,0%,0%);stroke-opacity:1;stroke-miterlimit:4;" d="M 282.000358 320.999528 L 297.500187 329.500301 " transform="matrix(3.779528,0,0,3.779528,0,0)"/>
<path style="fill:none;stroke-width:2;stroke-linecap:butt;stroke-linejoin:miter;stroke:rgb(0%,0%,0%);stroke-opacity:1;stroke-miterlimit:4;" d="M 305.999927 336.999585 L 273.499585 336.999585 L 257.999756 337.499813 L 241.999699 338.000041 L 209.500391 338.000041 L 193.999528 338.500269 L 178.000505 338.500269 L 162.000448 339.999919 L 146.000391 337.499813 " transform="matrix(3.779528,0,0,3.779528,0,0)"/>
<path style="fill:none;stroke-width:2;stroke-linecap:butt;stroke-linejoin:miter;stroke:rgb(0%,0%,0%);stroke-opacity:1;stroke-miterlimit:4;" d="M 145.500163 343.50048 L 161.50022 361.500415 L 177.500277 365.500171 L 209.999585 365.500171 L 225.999642 363.500293 L 241.999699 363.500293 L 257.499528 363.000065 L 289.499642 363.000065 L 305.999927 364.999943 L 321.499756 365.500171 L 337.499813 365.500171 L 353.49987 361.500415 " transform="matrix(3.779528,0,0,3.779528,0,0)"/>
<path style="fill:none;stroke-width:2;stroke-linecap:butt;stroke-linejoin:miter;stroke:rgb(0%,0%,0%);stroke-opacity:1;stroke-miterlimit:4;" d="M 361.999609 337.499813 L 314.000472 337.499813 L 286.000114 333.500057 L 237.999943 333.500057 L 227.99952 323.499634 L 220.000008 325.499512 L 221.499658 309.500488 L 217.499902 305.499699 L 221.999886 302.000171 L 206.500057 298.000415 L 190.5 311.500366 " transform="matrix(3.779528,0,0,3.779528,0,0)"/>
<path style="fill:none;stroke-width:2;stroke-linecap:butt;stroke-linejoin:miter;stroke:rgb(0%,0%,0%);stroke-opacity:1;stroke-miterlimit:4;" d="M 202.500301 303.499821 L 218.500358 305.499699 L 228.999976 311.500366 L 225.500448 327.500423 " transform="matrix(3.779528,0,0,3.779528,0,0)"/>
<path style="fill:none;stroke-width:2;stroke-linecap:butt;stroke-linejoin:miter;stroke:rgb(0%,0%,0%);stroke-opacity:1;stroke-miterlimit:4;" d="M 207.000285 334.999707 L 175.500399 334.999707 L 159.500342 334.500513 L 143.500285 326.499967 " transform="matrix(3.779528,0,0,3.779528,0,0)"/>
<path style="fill:none;stroke-width:2;stroke-linecap:butt;stroke-linejoin:miter;stroke:rgb(0%,0%,0%);stroke-opacity:1;stroke-miterlimit:4;" d="M 139.499495 345.00013 L 155.499552 366.499593 L 171.499609 370.999577 L 191.500456 386.999634 L 191.99965 402.999691 L 193.999528 418.999748 L 191.99965 434.499577 L 206.500057 427.999715 L 216.50048 433.500155 L 232.499504 443.499544 " transform="matrix(3.779528,0,0,3.779528,0,0)"/>
<path style="fill:none;stroke-width:2;stroke-linecap:butt;stroke-linejoin:miter;stroke:rgb(0%,0%,0%);stroke-opacity:1;stroke-miterlimit:4;" d="M 229.500203 442.500122 L 241.000277 458.500179 L 243.000155 474.500236 L 242.499927 490.000065 L 241.999699 506.000122 " transform="matrix(3.779528,0,0,3.779528,0,0)"/>
<path style="fill:none;stroke-width:2;stroke-linecap:butt;stroke-linejoin:miter;stroke:rgb(0%,0%,0%);stroke-opacity:1;stroke-miterlimit:4;" d="M 270.000057 500.499683 L 270.000057 484.499626 L 268.000179 468.000374 L 275.999691 451.50009 L 289.499642 435.500033 L 295.999504 419.499976 L 300.499487 404.000146 L 298.499609 388.00009 L 304.500277 372.50026 L 290.500098 370.500382 L 241.500505 370.500382 L 225.500448 370.000155 L 209.500391 370.000155 " transform="matrix(3.779528,0,0,3.779528,0,0)"/>
<path style="fill:none;stroke-width:2;stroke-linecap:butt;stroke-linejoin:miter;stroke:rgb(0%,0%,0%);stroke-opacity:1;stroke-miterlimit:4;" d="M 196.499634 318.99965 L 202.999495 316.499544 L 207.000285 300.499487 " transform="matrix(3.779528,0,0,3.779528,0,0)"/>
<path style="fill:none;stroke-width:2;stroke-linecap:butt;stroke-linejoin:miter;stroke:rgb(0%,0%,0%);stroke-opacity:1;stroke-miterlimit:4;" d="M 200.999618 297.500187 L 189.00035 313.500244 L 191.000228 320.000106 L 201.499845 326.499967 L 218.00013 328.499845 " transform="matrix(3.779528,0,0,3.779528,0,0)"/>
<path style="fill:none;stroke-width:2;stroke-linecap:butt;stroke-linejoin:miter;stroke:rgb(0%,0%,0%);stroke-opacity:1;stroke-miterlimit:4;" d="M 210.499813 284.000236 L 193.999528 284.500464 L 178.000505 284.999658 " transform="matrix(3.779528,0,0,3.779528,0,0)"/>
<path style="fill:none;stroke-width:2;stroke-linecap:butt;stroke-linejoin:miter;stroke:rgb(0%,0%,0%);stroke-opacity:1;stroke-miterlimit:4;" d="M 174.499943 245.50026 L 190.5 241.500505 L 223.000342 241.500505 L 246.499683 241.000277 L 261.999512 243.500382 L 277.999569 241.500505 L 294.499854 243.999577 L 310.49991 244.499805 L 325.99974 245.000033 L 341.499569 245.000033 " transform="matrix(3.779528,0,0,3.779528,0,0)"/>
<path style="fill:none;stroke-width:2;stroke-linecap:butt;stroke-linejoin:miter;stroke:rgb(0%,0%,0%);stroke-opacity:1;stroke-miterlimit:4;" d="M 352.00022 245.000033 L 352.00022 261.00009 " transform="matrix(3.779528,0,0,3.779528,0,0)"/>
<path style="fill:none;stroke-width:2;stroke-linecap:butt;stroke-linejoin:miter;stroke:rgb(0%,0%,0%);stroke-opacity:1;stroke-miterlimit:4;" d="M 334.000285 284.999658 L 318.000228 284.999658 L 302.000171 285.499886 L 286.500342 284.999658 L 270.500285 284.999658 " transform="matrix(3.779528,0,0,3.779528,0,0)"/>
<path style="fill:none;stroke-width:2;stroke-linecap:butt;stroke-linejoin:miter;stroke:rgb(0%,0%,0%);stroke-opacity:1;stroke-miterlimit:4;" d="M 293.500431 296.999959 L 279.500252 313.000016 L 279.500252 314.000472 L 295.500309 298.499609 L 311.500366 302.500399 " transform="matrix(3.779528,0,0,3.779528,0,0)"/>
<path style="fill:none;stroke-width:2;stroke-linecap:butt;stroke-linejoin:miter;stroke:rgb(0%,0%,0%);stroke-opacity:1;stroke-miterlimit:4;" d="M 303.499821 304.000049 L 313.500244 320.000106 " transform="matrix(3.779528,0,0,3.779528,0,0)"/>
<path style="fill:none;stroke-width:2;stroke-linecap:butt;stroke-linejoin:miter;stroke:rgb(0%,0%,0%);stroke-opacity:1;stroke-miterlimit:4;" d="M 342.500024 205.499601 L 326.499967 217.499902 L 311.000138 211.500269 L 284.500464 202.000073 L 268.500407 220.000008 L 252.000122 223.999764 L 236.000065 209.999585 " transform="matrix(3.779528,0,0,3.779528,0,0)"/>
<path style="fill:none;stroke-width:2;stroke-linecap:butt;stroke-linejoin:miter;stroke:rgb(0%,0%,0%);stroke-opacity:1;stroke-miterlimit:4;" d="M 248.000366 215.500024 L 234.000187 200.000195 L 236.500293 184.000138 L 236.999487 175.500399 L 252.999544 173.499487 L 251.499894 175.500399 L 234.999609 185.499788 " transform="matrix(3.779528,0,0,3.779528,0,0)"/>
<path style="fill:none;stroke-width:2;stroke-linecap:butt;stroke-linejoin:miter;stroke:rgb(0%,0%,0%);stroke-opacity:1;stroke-miterlimit:4;" d="M 254 166.500431 L 270.500285 173.000293 " transform="matrix(3.779528,0,0,3.779528,0,0)"/>
<path style="fill:none;stroke-width:2;stroke-linecap:butt;stroke-linejoin:miter;stroke:rgb(0%,0%,0%);stroke-opacity:1;stroke-miterlimit:4;" d="M 271.499707 169.499731 L 287.499764 185.499788 L 283.500008 201.499845 L 269.499829 218.00013 " transform="matrix(3.779528,0,0,3.779528,0,0)"/>
<path style="fill:none;stroke-width:2;stroke-linecap:butt;stroke-linejoin:miter;stroke:rgb(0%,0%,0%);stroke-opacity:1;stroke-miterlimit:4;" d="M 249.500016 224.499992 L 232.000309 208.499935 L 218.500358 207.999707 L 202.500301 221.499658 L 186.500244 219.49978 L 170.500187 207.500513 " transform="matrix(3.779528,0,0,3.779528,0,0)"/>
<path style="fill:none;stroke-width:2;stroke-linecap:butt;stroke-linejoin:miter;stroke:rgb(0%,0%,0%);stroke-opacity:1;stroke-miterlimit:4;" d="M 165.499976 200.999618 L 181.500033 211.000041 L 198.000317 214.999797 L 214.000374 203.499723 L 220.500236 193.999528 L 211.000041 209.999585 " transform="matrix(3.779528,0,0,3.779528,0,0)"/>
<path style="fill:none;stroke-width:2;stroke-linecap:butt;stroke-linejoin:miter;stroke:rgb(0%,0%,0%);stroke-opacity:1;stroke-miterlimit:4;" d="M 200.000195 200.999618 L 212.000496 185.499788 L 198.000317 169.499731 " transform="matrix(3.779528,0,0,3.779528,0,0)"/>
<path style="fill:none;stroke-width:2;stroke-linecap:butt;stroke-linejoin:miter;stroke:rgb(0%,0%,0%);stroke-opacity:1;stroke-miterlimit:4;" d="M 202.999495 166.000203 L 177.000049 182.00026 L 168.999504 195.500212 L 182.500488 211.500269 L 204.500179 200.000195 " transform="matrix(3.779528,0,0,3.779528,0,0)"/>
<path style="fill:none;stroke-width:2;stroke-linecap:butt;stroke-linejoin:miter;stroke:rgb(0%,0%,0%);stroke-opacity:1;stroke-miterlimit:4;" d="M 210.499813 215.500024 L 225.00022 199.499967 L 227.000098 183.49991 L 207.000285 167.499854 " transform="matrix(3.779528,0,0,3.779528,0,0)"/>
<path style="fill:none;stroke-width:2;stroke-linecap:butt;stroke-linejoin:miter;stroke:rgb(0%,0%,0%);stroke-opacity:1;stroke-miterlimit:4;" d="M 191.000228 161.50022 L 168.500309 178.000505 L 164.999748 193.999528 L 171.000415 209.999585 " transform="matrix(3.779528,0,0,3.779528,0,0)"/>
<path style="fill:none;stroke-width:2;stroke-linecap:butt;stroke-linejoin:miter;stroke:rgb(0%,0%,0%);stroke-opacity:1;stroke-miterlimit:4;" d="M 163.500098 187.499666 L 179.500155 167.499854 L 195.500212 163.500098 L 211.500269 169.499731 L 227.99952 185.499788 L 243.999577 167.499854 L 260.499862 163.500098 L 277.000146 171.999837 L 295.500309 182.00026 L 311.500366 166.000203 L 327.999618 162.000448 L 343.50048 164.000326 L 353.49987 180.000382 " transform="matrix(3.779528,0,0,3.779528,0,0)"/>
<path style="fill:none;stroke-width:2;stroke-linecap:butt;stroke-linejoin:miter;stroke:rgb(0%,0%,0%);stroke-opacity:1;stroke-miterlimit:4;" d="M 350.999764 186.500244 L 334.999707 172.500065 L 318.99965 174.499943 L 303.499821 180.499577 " transform="matrix(3.779528,0,0,3.779528,0,0)"/>
<path style="fill:none;stroke-width:2;stroke-linecap:butt;stroke-linejoin:miter;stroke:rgb(0%,0%,0%);stroke-opacity:1;stroke-miterlimit:4;" d="M 319.499878 171.999837 L 301.499943 184.000138 L 297.500187 200.500423 L 313.500244 216.50048 " transform="matrix(3.779528,0,0,3.779528,0,0)"/>
<path style="fill:none;stroke-width:2;stroke-linecap:butt;stroke-linejoin:miter;stroke:rgb(0%,0%,0%);stroke-opacity:1;stroke-miterlimit:4;" d="M 345.500358 211.500269 L 329.999495 223.499536 L 314.499666 223.499536 L 298.499609 209.000163 L 271.000513 212.499691 L 255.000456 218.500358 L 239.499593 204.500179 L 221.499658 184.500366 L 205.499601 172.500065 L 189.499544 174.499943 L 173.499487 182.999683 " transform="matrix(3.779528,0,0,3.779528,0,0)"/>
<path style="fill:none;stroke-width:2;stroke-linecap:butt;stroke-linejoin:miter;stroke:rgb(0%,0%,0%);stroke-opacity:1;stroke-miterlimit:4;" d="M 147.500041 155.499552 L 132.000212 155.499552 " transform="matrix(3.779528,0,0,3.779528,0,0)"/>
<path style="fill:none;stroke-width:2;stroke-linecap:butt;stroke-linejoin:miter;stroke:rgb(0%,0%,0%);stroke-opacity:1;stroke-miterlimit:4;" d="M 130.999756 155.99978 L 130.999756 171.499609 L 125.000122 187.499666 L 132.999634 212.000496 L 134.999512 228.499748 L 134.999512 244.499805 L 137.000423 260.499862 L 136.500195 276.499919 L 138.500073 292.499976 L 138.500073 308.500033 L 141.000179 324.50009 L 144.999935 340.500146 L 153.00048 356.500203 L 183.49991 376.500016 L 181.500033 392.500073 L 183.49991 408.50013 L 182.999683 424.500187 L 160.999992 440.500244 L 153.00048 456.000073 L 146.499585 471.499902 L 140.499951 487.499959 L 132.500439 503.500016 L 138.500073 491.499715 L 154.50013 450.000439 L 169.999959 436.500488 L 195.500212 414.499764 L 199.499967 410.500008 L 203.999951 418.49952 " transform="matrix(3.779528,0,0,3.779528,0,0)"/>
<path style="fill:none;stroke-width:2;stroke-linecap:butt;stroke-linejoin:miter;stroke:rgb(0%,0%,0%);stroke-opacity:1;stroke-miterlimit:4;" d="M 223.499536 443.499544 L 207.500513 438.999561 L 175.000171 438.999561 L 159.500342 448.499756 L 143.500285 490.999487 L 139.999723 502.999788 L 146.000391 486.999731 L 152.500252 471.499902 L 158.499886 456.000073 L 174.499943 440.000016 " transform="matrix(3.779528,0,0,3.779528,0,0)"/>
<path style="fill:none;stroke-width:2;stroke-linecap:butt;stroke-linejoin:miter;stroke:rgb(0%,0%,0%);stroke-opacity:1;stroke-miterlimit:4;" d="M 168.000081 246.499683 L 184.000138 238.500171 L 200.000195 237.999943 L 216.000252 237.999943 L 232.000309 237.499715 L 248.499561 236.999487 L 264.499618 237.499715 L 280.499674 237.499715 L 295.999504 237.999943 L 311.999561 237.999943 L 327.500423 238.500171 L 343.50048 237.999943 L 345.500358 246.000488 L 347.500236 262.49974 " transform="matrix(3.779528,0,0,3.779528,0,0)"/>
<path style="fill:none;stroke-width:2;stroke-linecap:butt;stroke-linejoin:miter;stroke:rgb(0%,0%,0%);stroke-opacity:1;stroke-miterlimit:4;" d="M 386.999634 197.50009 L 387.499862 207.500513 L 403.499919 201.499845 L 419.499976 186.000016 L 421.499854 189.999772 L 415.50022 211.500269 L 420.000203 227.500326 " transform="matrix(3.779528,0,0,3.779528,0,0)"/>
<path style="fill:none;stroke-width:2;stroke-linecap:butt;stroke-linejoin:miter;stroke:rgb(0%,0%,0%);stroke-opacity:1;stroke-miterlimit:4;" d="M 436.00026 255.49965 L 452.000317 269.499829 L 468.000374 277.500374 L 484.000431 277.500374 L 500.000488 267.499951 L 508 257.999756 L 488.000187 273.499585 " transform="matrix(3.779528,0,0,3.779528,0,0)"/>
<path style="fill:none;stroke-width:2;stroke-linecap:butt;stroke-linejoin:miter;stroke:rgb(0%,0%,0%);stroke-opacity:1;stroke-miterlimit:4;" d="M 461.000285 268.999601 L 441.000472 252.999544 L 435.500033 236.999487 L 437.49991 221.000464 L 432.999927 203.499723 L 434.999805 187.499666 L 424.500187 173.499487 L 440.500244 157.500464 L 452.499512 148.000269 L 436.00026 159.999536 L 420.000203 174.499943 L 404.000146 171.000415 L 387.499862 177.000049 " transform="matrix(3.779528,0,0,3.779528,0,0)"/>
<path style="fill:none;stroke-width:2;stroke-linecap:butt;stroke-linejoin:miter;stroke:rgb(0%,0%,0%);stroke-opacity:1;stroke-miterlimit:4;" d="M 402.000269 176.499821 L 386.000212 191.99965 L 385.499984 210.499813 L 383.500106 226.49987 L 384.000334 242.499927 L 382.49965 258.499984 L 382.49965 274.500041 L 380.499772 289.99987 L 380.499772 305.999927 L 378.499894 321.499756 L 376.500016 339.499691 L 368.500505 355.499748 " transform="matrix(3.779528,0,0,3.779528,0,0)"/>
<path style="fill:none;stroke-width:2;stroke-linecap:butt;stroke-linejoin:miter;stroke:rgb(0%,0%,0%);stroke-opacity:1;stroke-miterlimit:4;" d="M 337.499813 277.500374 L 320.999528 277.999569 L 289.000448 277.999569 L 273.499585 277.500374 L 257.499528 277.500374 L 241.500505 277.999569 L 209.999585 277.999569 L 193.999528 277.500374 L 178.000505 277.500374 L 173.999715 259.500439 L 175.999593 243.500382 " transform="matrix(3.779528,0,0,3.779528,0,0)"/>
<path style="fill:none;stroke-width:2;stroke-linecap:butt;stroke-linejoin:miter;stroke:rgb(0%,0%,0%);stroke-opacity:1;stroke-miterlimit:4;" d="M 174.499943 238.500171 L 168.500309 254.500228 L 168.500309 270.000057 L 176.499821 271.999935 L 192.499878 273.999813 L 223.999764 273.999813 L 239.999821 273.499585 L 255.999878 273.499585 L 271.999935 273.999813 L 320.000106 273.999813 L 336.000163 271.999935 " transform="matrix(3.779528,0,0,3.779528,0,0)"/>
<path style="fill:none;stroke-width:2;stroke-linecap:butt;stroke-linejoin:miter;stroke:rgb(0%,0%,0%);stroke-opacity:1;stroke-miterlimit:4;" d="M 255.49965 219.49978 L 277.500374 202.999495 L 281.50013 187.000472 L 263.500195 171.000415 " transform="matrix(3.779528,0,0,3.779528,0,0)"/>
<path style="fill:none;stroke-width:2;stroke-linecap:butt;stroke-linejoin:miter;stroke:rgb(0%,0%,0%);stroke-opacity:1;stroke-miterlimit:4;" d="M 288.50022 137.000423 L 304.500277 136.500195 " transform="matrix(3.779528,0,0,3.779528,0,0)"/>
<path style="fill:none;stroke-width:2;stroke-linecap:butt;stroke-linejoin:miter;stroke:rgb(0%,0%,0%);stroke-opacity:1;stroke-miterlimit:4;" d="M 320.999528 161.50022 L 298.999837 177.500277 L 292.499976 193.999528 L 298.499609 209.999585 " transform="matrix(3.779528,0,0,3.779528,0,0)"/>
<path style="fill:none;stroke-width:2;stroke-linecap:butt;stroke-linejoin:miter;stroke:rgb(0%,0%,0%);stroke-opacity:1;stroke-miterlimit:4;" d="M 343.000252 212.999919 L 354.99952 196.999862 L 352.999642 181.500033 L 330.999951 166.000203 " transform="matrix(3.779528,0,0,3.779528,0,0)"/>
<path style="fill:none;stroke-width:2;stroke-linecap:butt;stroke-linejoin:miter;stroke:rgb(0%,0%,0%);stroke-opacity:1;stroke-miterlimit:4;" d="M 329.999495 164.000326 L 345.999552 180.000382 L 349.500114 196.000439 L 336.999585 211.500269 " transform="matrix(3.779528,0,0,3.779528,0,0)"/>
<path style="fill:none;stroke-width:2;stroke-linecap:butt;stroke-linejoin:miter;stroke:rgb(0%,0%,0%);stroke-opacity:1;stroke-miterlimit:4;" d="M 383.500106 123.500472 L 367.500049 105.499504 " transform="matrix(3.779528,0,0,3.779528,0,0)"/>
<path style="fill:none;stroke-width:2;stroke-linecap:butt;stroke-linejoin:miter;stroke:rgb(0%,0%,0%);stroke-opacity:1;stroke-miterlimit:4;" d="M 370.999577 114.500505 L 381 130.499528 " transform="matrix(3.779528,0,0,3.779528,0,0)"/>
<path style="fill:none;stroke-width:2;stroke-linecap:butt;stroke-linejoin:miter;stroke:rgb(0%,0%,0%);stroke-opacity:1;stroke-miterlimit:4;" d="M 329.500301 96.499536 L 314.000472 107.999609 L 282.99978 107.999609 L 266.999723 105.499504 L 251.499894 87.000374 " transform="matrix(3.779528,0,0,3.779528,0,0)"/>
<path style="fill:none;stroke-width:2;stroke-linecap:butt;stroke-linejoin:miter;stroke:rgb(0%,0%,0%);stroke-opacity:1;stroke-miterlimit:4;" d="M 251.499894 97.499992 L 269.499829 113.500049 " transform="matrix(3.779528,0,0,3.779528,0,0)"/>
<path style="fill:none;stroke-width:2;stroke-linecap:butt;stroke-linejoin:miter;stroke:rgb(0%,0%,0%);stroke-opacity:1;stroke-miterlimit:4;" d="M 264.499618 73.999618 L 280.499674 89.999674 L 295.999504 87.999797 L 311.999561 73.500423 L 314.000472 69.499634 L 298.000415 85.499691 " transform="matrix(3.779528,0,0,3.779528,0,0)"/>
<path style="fill:none;stroke-width:2;stroke-linecap:butt;stroke-linejoin:miter;stroke:rgb(0%,0%,0%);stroke-opacity:1;stroke-miterlimit:4;" d="M 304.500277 67.999984 L 288.50022 75.999495 L 272.500163 64.000228 " transform="matrix(3.779528,0,0,3.779528,0,0)"/>
<path style="fill:none;stroke-width:2;stroke-linecap:butt;stroke-linejoin:miter;stroke:rgb(0%,0%,0%);stroke-opacity:1;stroke-miterlimit:4;" d="M 266.499495 65.499878 L 282.99978 47.499943 L 298.999837 45.500065 L 314.999894 57.500366 " transform="matrix(3.779528,0,0,3.779528,0,0)"/>
<path style="fill:none;stroke-width:2;stroke-linecap:butt;stroke-linejoin:miter;stroke:rgb(0%,0%,0%);stroke-opacity:1;stroke-miterlimit:4;" d="M 308.500033 44.999837 L 322.500212 61.500122 L 316.00035 77.500179 " transform="matrix(3.779528,0,0,3.779528,0,0)"/>
<path style="fill:none;stroke-width:2;stroke-linecap:butt;stroke-linejoin:miter;stroke:rgb(0%,0%,0%);stroke-opacity:1;stroke-miterlimit:4;" d="M 341.999797 85.999919 L 336.500391 98.00022 L 320.500334 112.000399 L 304.500277 114.000277 L 271.999935 114.000277 L 256.500106 104.500081 L 241.000277 106.499959 L 225.00022 114.000277 L 192.499878 114.000277 L 176.499821 113.500049 L 159.999536 98.00022 L 144.000513 94.000464 " transform="matrix(3.779528,0,0,3.779528,0,0)"/>
<path style="fill:none;stroke-width:2;stroke-linecap:butt;stroke-linejoin:miter;stroke:rgb(0%,0%,0%);stroke-opacity:1;stroke-miterlimit:4;" d="M 140.499951 104.500081 L 143.000057 120.500138 " transform="matrix(3.779528,0,0,3.779528,0,0)"/>
<path style="fill:none;stroke-width:2;stroke-linecap:butt;stroke-linejoin:miter;stroke:rgb(0%,0%,0%);stroke-opacity:1;stroke-miterlimit:4;" d="M 139.000301 112.000399 L 155.000358 128.000456 " transform="matrix(3.779528,0,0,3.779528,0,0)"/>
<path style="fill:none;stroke-width:2;stroke-linecap:butt;stroke-linejoin:miter;stroke:rgb(0%,0%,0%);stroke-opacity:1;stroke-miterlimit:4;" d="M 160.999992 126.499772 L 144.999935 110.499715 " transform="matrix(3.779528,0,0,3.779528,0,0)"/>
<path style="fill:none;stroke-width:2;stroke-linecap:butt;stroke-linejoin:miter;stroke:rgb(0%,0%,0%);stroke-opacity:1;stroke-miterlimit:4;" d="M 137.999845 107.999609 L 153.999902 119.99991 L 169.999959 130.000334 L 186.000016 132.000212 L 234.000187 132.000212 L 250.000244 131.499984 L 266.000301 131.499984 L 282.499552 130.999756 L 298.499609 128.999878 L 314.000472 128.999878 L 329.999495 125.50035 L 345.999552 107.500415 L 343.999674 111.500171 L 323.999862 127.500228 L 325.99974 133.499862 L 342.500024 123.999666 L 352.500448 110.499715 L 340.500146 126.499772 " transform="matrix(3.779528,0,0,3.779528,0,0)"/>
<path style="fill:none;stroke-width:2;stroke-linecap:butt;stroke-linejoin:miter;stroke:rgb(0%,0%,0%);stroke-opacity:1;stroke-miterlimit:4;" d="M 264.000423 105.499504 L 252.000122 89.50048 L 255.999878 75.500301 L 255.999878 43.500187 L 266.000301 26.999902 L 264.499618 44.999837 " transform="matrix(3.779528,0,0,3.779528,0,0)"/>
<path style="fill:none;stroke-width:2;stroke-linecap:butt;stroke-linejoin:miter;stroke:rgb(0%,0%,0%);stroke-opacity:1;stroke-miterlimit:4;" d="M 276.499919 38.499976 L 264.499618 58.499788 L 280.499674 42.499731 L 296.499731 40.499854 L 312.499788 48.500399 " transform="matrix(3.779528,0,0,3.779528,0,0)"/>
<path style="fill:none;stroke-width:2;stroke-linecap:butt;stroke-linejoin:miter;stroke:rgb(0%,0%,0%);stroke-opacity:1;stroke-miterlimit:4;" d="M 295.000081 39.999626 L 311.000138 55.500488 L 299.500065 71.499512 " transform="matrix(3.779528,0,0,3.779528,0,0)"/>
<path style="fill:none;stroke-width:2;stroke-linecap:butt;stroke-linejoin:miter;stroke:rgb(0%,0%,0%);stroke-opacity:1;stroke-miterlimit:4;" d="M 289.499642 42.999959 L 269.499829 59.000016 L 269.499829 75.500301 " transform="matrix(3.779528,0,0,3.779528,0,0)"/>
<path style="fill:none;stroke-width:2;stroke-linecap:butt;stroke-linejoin:miter;stroke:rgb(0%,0%,0%);stroke-opacity:1;stroke-miterlimit:4;" d="M 228.999976 82.000163 L 239.000399 66.000106 L 227.000098 50.000049 L 230.999854 39.999626 L 221.000464 37.999748 " transform="matrix(3.779528,0,0,3.779528,0,0)"/>
<path style="fill:none;stroke-width:2;stroke-linecap:butt;stroke-linejoin:miter;stroke:rgb(0%,0%,0%);stroke-opacity:1;stroke-miterlimit:4;" d="M 218.00013 41.500309 L 234.000187 53.499577 " transform="matrix(3.779528,0,0,3.779528,0,0)"/>
<path style="fill:none;stroke-width:2;stroke-linecap:butt;stroke-linejoin:miter;stroke:rgb(0%,0%,0%);stroke-opacity:1;stroke-miterlimit:4;" d="M 228.999976 57.500366 L 212.499691 46.000293 L 196.499634 48.500399 L 180.999805 62.499544 " transform="matrix(3.779528,0,0,3.779528,0,0)"/>
<path style="fill:none;stroke-width:2;stroke-linecap:butt;stroke-linejoin:miter;stroke:rgb(0%,0%,0%);stroke-opacity:1;stroke-miterlimit:4;" d="M 176.499821 63.5 L 192.499878 43.500187 L 208.499935 37.49952 L 224.499992 35.000448 " transform="matrix(3.779528,0,0,3.779528,0,0)"/>
<path style="fill:none;stroke-width:2;stroke-linecap:butt;stroke-linejoin:miter;stroke:rgb(0%,0%,0%);stroke-opacity:1;stroke-miterlimit:4;" d="M 228.499748 27.50013 L 243.999577 43.500187 L 246.000488 59.500244 L 243.999577 75.000073 L 246.000488 91.00013 L 232.499504 106.499959 " transform="matrix(3.779528,0,0,3.779528,0,0)"/>
<path style="fill:none;stroke-width:2;stroke-linecap:butt;stroke-linejoin:miter;stroke:rgb(0%,0%,0%);stroke-opacity:1;stroke-miterlimit:4;" d="M 209.999585 73.000195 L 214.000374 57.000138 L 203.999951 75.000073 L 193.500334 72.499967 L 201.499845 56.49991 L 207.999707 55.00026 L 191.99965 64.99965 " transform="matrix(3.779528,0,0,3.779528,0,0)"/>
<path style="fill:none;stroke-width:2;stroke-linecap:butt;stroke-linejoin:miter;stroke:rgb(0%,0%,0%);stroke-opacity:1;stroke-miterlimit:4;" d="M 178.000505 75.999495 L 193.999528 85.999919 L 210.499813 89.999674 L 226.49987 75.999495 " transform="matrix(3.779528,0,0,3.779528,0,0)"/>
<path style="fill:none;stroke-width:2;stroke-linecap:butt;stroke-linejoin:miter;stroke:rgb(0%,0%,0%);stroke-opacity:1;stroke-miterlimit:4;" d="M 227.99952 82.500391 L 212.000496 94.499658 L 196.000439 92.49978 L 180.000382 80.000285 " transform="matrix(3.779528,0,0,3.779528,0,0)"/>
<path style="fill:none;stroke-width:2;stroke-linecap:butt;stroke-linejoin:miter;stroke:rgb(0%,0%,0%);stroke-opacity:1;stroke-miterlimit:4;" d="M 162.000448 87.499569 L 177.500277 107.500415 L 193.500334 107.999609 L 225.500448 107.999609 L 241.999699 96.499536 L 239.999821 106.499959 " transform="matrix(3.779528,0,0,3.779528,0,0)"/>
<path style="fill:none;stroke-width:2;stroke-linecap:butt;stroke-linejoin:miter;stroke:rgb(0%,0%,0%);stroke-opacity:1;stroke-miterlimit:4;" d="M 183.49991 75.500301 L 182.500488 59.500244 L 200.500423 43.500187 " transform="matrix(3.779528,0,0,3.779528,0,0)"/>
<path style="fill:none;stroke-width:2;stroke-linecap:butt;stroke-linejoin:miter;stroke:rgb(0%,0%,0%);stroke-opacity:1;stroke-miterlimit:4;" d="M 202.999495 38.499976 L 180.499577 54.500033 L 176.499821 69.999862 L 184.500366 85.999919 " transform="matrix(3.779528,0,0,3.779528,0,0)"/>
<path style="fill:none;stroke-width:2;stroke-linecap:butt;stroke-linejoin:miter;stroke:rgb(0%,0%,0%);stroke-opacity:1;stroke-miterlimit:4;" d="M 211.500269 88.500024 L 227.500326 72.499967 L 225.500448 56.49991 L 211.500269 40.499854 " transform="matrix(3.779528,0,0,3.779528,0,0)"/>
<path style="fill:none;stroke-width:2;stroke-linecap:butt;stroke-linejoin:miter;stroke:rgb(0%,0%,0%);stroke-opacity:1;stroke-miterlimit:4;" d="M 230.499626 22.499919 L 246.99991 38.499976 " transform="matrix(3.779528,0,0,3.779528,0,0)"/>
<path style="fill:none;stroke-width:2;stroke-linecap:butt;stroke-linejoin:miter;stroke:rgb(0%,0%,0%);stroke-opacity:1;stroke-miterlimit:4;" d="M 289.99987 39.000203 L 268.000179 55.00026 L 261.500317 71.000317 L 271.499707 87.000374 L 291.49952 94.999886 L 307.499577 89.000252 " transform="matrix(3.779528,0,0,3.779528,0,0)"/>
<path style="fill:none;stroke-width:2;stroke-linecap:butt;stroke-linejoin:miter;stroke:rgb(0%,0%,0%);stroke-opacity:1;stroke-miterlimit:4;" d="M 334.500513 32.500342 L 318.500456 22.499919 L 302.500399 20.500041 L 286.500342 20.500041 L 270.500285 23.000146 L 255.000456 30.500464 L 238.500171 24.499797 L 222.500114 19.999813 L 206.500057 20.500041 L 190.5 17.999935 L 173.999715 21.999691 L 157.999658 37.999748 L 141.999601 26.00048 " transform="matrix(3.779528,0,0,3.779528,0,0)"/>
<path style="fill:none;stroke-width:2;stroke-linecap:butt;stroke-linejoin:miter;stroke:rgb(0%,0%,0%);stroke-opacity:1;stroke-miterlimit:4;" d="M 152.000024 6.499862 L 141.500407 21.999691 L 149.499919 37.49952 L 157.500464 37.49952 L 155.99978 53.999805 L 155.99978 85.999919 L 171.999837 105.999731 " transform="matrix(3.779528,0,0,3.779528,0,0)"/>
<path style="fill:none;stroke-width:2;stroke-linecap:butt;stroke-linejoin:miter;stroke:rgb(0%,0%,0%);stroke-opacity:1;stroke-miterlimit:4;" d="M 144.999935 149.499919 L 128.999878 155.000358 " transform="matrix(3.779528,0,0,3.779528,0,0)"/>
<path style="fill:none;stroke-width:2;stroke-linecap:butt;stroke-linejoin:miter;stroke:rgb(0%,0%,0%);stroke-opacity:1;stroke-miterlimit:4;" d="M 129.500106 137.999845 L 145.500163 135.999967 L 161.50022 148.000269 L 177.500277 150.000146 L 193.500334 149.499919 L 209.999585 148.999691 L 225.999642 149.499919 L 258.499984 149.499919 L 274.500041 150.000146 L 322.500212 150.000146 L 338.500269 148.000269 L 354.99952 131.499984 L 366.499593 119.499683 L 358.500081 135.49974 L 352.500448 149.499919 L 368.500505 148.999691 L 386.000212 159.000114 L 386.500439 175.000171 L 400.499585 177.000049 L 416.499642 179.500155 L 432.499699 173.499487 L 448.999984 159.999536 L 465.000041 153.999902 " transform="matrix(3.779528,0,0,3.779528,0,0)"/>
<path style="fill:none;stroke-width:2;stroke-linecap:butt;stroke-linejoin:miter;stroke:rgb(0%,0%,0%);stroke-opacity:1;stroke-miterlimit:4;" d="M 452.000317 154.50013 L 445.99965 170.500187 L 440.000016 186.000016 L 438.000138 202.000073 L 429.999593 217.499902 L 424.500187 232.999731 L 426.500065 241.500505 L 442.500122 254 L 458.500179 268.500407 L 475.000464 274.500041 " transform="matrix(3.779528,0,0,3.779528,0,0)"/>
<path style="fill:none;stroke-width:2;stroke-linecap:butt;stroke-linejoin:miter;stroke:rgb(0%,0%,0%);stroke-opacity:1;stroke-miterlimit:4;" d="M 505.499894 252.000122 L 511.499528 236.000065 " transform="matrix(3.779528,0,0,3.779528,0,0)"/>
<path style="fill:none;stroke-width:2;stroke-linecap:butt;stroke-linejoin:miter;stroke:rgb(0%,0%,0%);stroke-opacity:1;stroke-miterlimit:4;" d="M 490.999487 172.500065 L 506.999544 168.500309 " transform="matrix(3.779528,0,0,3.779528,0,0)"/>
<path style="fill:none;stroke-width:2;stroke-linecap:butt;stroke-linejoin:miter;stroke:rgb(0%,0%,0%);stroke-opacity:1;stroke-miterlimit:4;" d="M 509.999878 163.500098 L 493.499593 157.500464 " transform="matrix(3.779528,0,0,3.779528,0,0)"/>
<path style="fill:none;stroke-width:2;stroke-linecap:butt;stroke-linejoin:miter;stroke:rgb(0%,0%,0%);stroke-opacity:1;stroke-miterlimit:4;" d="M 495.500505 164.000326 L 491.499715 180.000382 L 489.499837 196.000439 L 486.999731 212.000496 L 486.499504 227.500326 L 486.000309 243.999577 L 485.500081 259.999634 " transform="matrix(3.779528,0,0,3.779528,0,0)"/>
<path style="fill:none;stroke-width:2;stroke-linecap:butt;stroke-linejoin:miter;stroke:rgb(0%,0%,0%);stroke-opacity:1;stroke-miterlimit:4;" d="M 443.999772 265.500073 L 432.000505 249.500016 L 416.499642 233.499959 L 413.000114 217.499902 L 413.000114 196.000439 L 425.000415 180.000382 L 441.000472 164.49952 " transform="matrix(3.779528,0,0,3.779528,0,0)"/>
<path style="fill:none;stroke-width:2;stroke-linecap:butt;stroke-linejoin:miter;stroke:rgb(0%,0%,0%);stroke-opacity:1;stroke-miterlimit:4;" d="M 463.999585 135.49974 L 479.999642 133.499862 L 500.000488 128.000456 " transform="matrix(3.779528,0,0,3.779528,0,0)"/>
<path style="fill:none;stroke-width:2;stroke-linecap:butt;stroke-linejoin:miter;stroke:rgb(0%,0%,0%);stroke-opacity:1;stroke-miterlimit:4;" d="M 502.999788 114.000277 L 495.000277 109.999487 L 501.500138 94.000464 L 504.000244 101.499748 L 502.000366 79.500057 L 510.500106 62.999772 L 496.499927 91.00013 L 481.000098 93.000008 L 465.000041 89.000252 L 448.499756 79.500057 L 432.499699 57.500366 " transform="matrix(3.779528,0,0,3.779528,0,0)"/>
<path style="fill:none;stroke-width:2;stroke-linecap:butt;stroke-linejoin:miter;stroke:rgb(0%,0%,0%);stroke-opacity:1;stroke-miterlimit:4;" d="M 429.000171 61.500122 L 445.000228 83.499813 L 460.500057 93.500236 L 458.500179 109.500293 " transform="matrix(3.779528,0,0,3.779528,0,0)"/>
<path style="fill:none;stroke-width:2;stroke-linecap:butt;stroke-linejoin:miter;stroke:rgb(0%,0%,0%);stroke-opacity:1;stroke-miterlimit:4;" d="M 455.499845 49.499821 L 463.000163 33.499764 L 460.500057 17.499707 L 447.999528 3.499528 " transform="matrix(3.779528,0,0,3.779528,0,0)"/>
<path style="fill:none;stroke-width:2;stroke-linecap:butt;stroke-linejoin:miter;stroke:rgb(0%,0%,0%);stroke-opacity:1;stroke-miterlimit:4;" d="M 454.999618 1.999878 L 451.50009 10.000423 L 456.999495 25.500252 L 455.499845 41.500309 " transform="matrix(3.779528,0,0,3.779528,0,0)"/>
<path style="fill:none;stroke-width:2;stroke-linecap:butt;stroke-linejoin:miter;stroke:rgb(0%,0%,0%);stroke-opacity:1;stroke-miterlimit:4;" d="M 450.999862 51.999927 L 435.500033 25.500252 L 420.000203 16.000057 " transform="matrix(3.779528,0,0,3.779528,0,0)"/>
<path style="fill:none;stroke-width:2;stroke-linecap:butt;stroke-linejoin:miter;stroke:rgb(0%,0%,0%);stroke-opacity:1;stroke-miterlimit:4;" d="M 418.999748 16.500285 L 425.000415 32.500342 L 429.000171 48.000171 L 434.999805 64.000228 L 446.499878 80.000285 L 468.499569 107.500415 " transform="matrix(3.779528,0,0,3.779528,0,0)"/>
<path style="fill:none;stroke-width:2;stroke-linecap:butt;stroke-linejoin:miter;stroke:rgb(0%,0%,0%);stroke-opacity:1;stroke-miterlimit:4;" d="M 510.500106 74.499845 L 504.999666 90.499902 L 495.000277 107.000187 L 493.000399 123.500472 L 488.999609 143.500285 L 497.000155 155.499552 L 486.999731 171.499609 L 484.999854 187.499666 L 482.499748 202.999495 L 482.499748 218.999552 L 482.999976 234.500415 L 482.999976 250.500472 L 482.499748 266.999723 L 498.499805 261.00009 " transform="matrix(3.779528,0,0,3.779528,0,0)"/>
<path style="fill:none;stroke-width:2;stroke-linecap:butt;stroke-linejoin:miter;stroke:rgb(0%,0%,0%);stroke-opacity:1;stroke-miterlimit:4;" d="M 486.499504 44.000415 L 459.999829 29.500008 L 443.999772 35.499642 L 427.999715 10.999845 L 411.999658 13.499951 " transform="matrix(3.779528,0,0,3.779528,0,0)"/>
<path style="fill:none;stroke-width:2;stroke-linecap:butt;stroke-linejoin:miter;stroke:rgb(0%,0%,0%);stroke-opacity:1;stroke-miterlimit:4;" d="M 417.500098 11.500073 L 413.500342 27.50013 L 421.499854 43.500187 L 425.499609 59.000016 L 433.500155 75.000073 L 449.500212 90.499902 L 456.000073 106.499959 L 452.499512 121.999788 L 452.99974 137.999845 L 465.500269 150.000146 L 472.00013 144.000513 L 474.000008 155.99978 L 489.499837 159.999536 L 497.000155 143.500285 L 494.500049 131.499984 L 510.500106 114.000277 " transform="matrix(3.779528,0,0,3.779528,0,0)"/>
<path style="fill:none;stroke-width:2;stroke-linecap:butt;stroke-linejoin:miter;stroke:rgb(0%,0%,0%);stroke-opacity:1;stroke-miterlimit:4;" d="M 441.499666 34.50022 L 433.500155 18.500163 " transform="matrix(3.779528,0,0,3.779528,0,0)"/>
<path style="fill:none;stroke-width:2;stroke-linecap:butt;stroke-linejoin:miter;stroke:rgb(0%,0%,0%);stroke-opacity:1;stroke-miterlimit:4;" d="M 427.000293 12.999723 L 434.499577 28.99978 L 443.00035 44.999837 " transform="matrix(3.779528,0,0,3.779528,0,0)"/>
<path style="fill:none;stroke-width:2;stroke-linecap:butt;stroke-linejoin:miter;stroke:rgb(0%,0%,0%);stroke-opacity:1;stroke-miterlimit:4;" d="M 478.499992 26.499674 L 474.500236 10.999845 " transform="matrix(3.779528,0,0,3.779528,0,0)"/>
<path style="fill:none;stroke-width:2;stroke-linecap:butt;stroke-linejoin:miter;stroke:rgb(0%,0%,0%);stroke-opacity:1;stroke-miterlimit:4;" d="M 472.00013 1.49965 L 470.000252 17.499707 L 473.49978 33.499764 " transform="matrix(3.779528,0,0,3.779528,0,0)"/>
<path style="fill:none;stroke-width:2;stroke-linecap:butt;stroke-linejoin:miter;stroke:rgb(0%,0%,0%);stroke-opacity:1;stroke-miterlimit:4;" d="M 493.999821 33.999992 L 497.999577 17.499707 L 497.999577 1.49965 " transform="matrix(3.779528,0,0,3.779528,0,0)"/>
<path style="fill:none;stroke-width:2;stroke-linecap:butt;stroke-linejoin:miter;stroke:rgb(0%,0%,0%);stroke-opacity:1;stroke-miterlimit:4;" d="M 493.999821 1.000456 L 491.999943 17.499707 L 488.000187 33.499764 L 490.000065 25.500252 " transform="matrix(3.779528,0,0,3.779528,0,0)"/>
<path style="fill:none;stroke-width:2;stroke-linecap:butt;stroke-linejoin:miter;stroke:rgb(0%,0%,0%);stroke-opacity:1;stroke-miterlimit:4;" d="M 366.000399 17.999935 L 365.500171 33.999992 L 366.000399 50.500277 L 359.999731 66.500334 L 362.499837 82.000163 L 360.499959 97.499992 L 363.000065 114.000277 L 357.000431 130.000334 L 343.000252 146.000391 L 357.000431 139.999723 L 373.000488 114.000277 " transform="matrix(3.779528,0,0,3.779528,0,0)"/>
<path style="fill:none;stroke-width:2;stroke-linecap:butt;stroke-linejoin:miter;stroke:rgb(0%,0%,0%);stroke-opacity:1;stroke-miterlimit:4;" d="M 326.499967 108.499837 L 350.499536 92.49978 L 342.500024 76.499723 L 342.500024 60.499666 L 340.500146 44.499609 L 328.499845 28.499552 " transform="matrix(3.779528,0,0,3.779528,0,0)"/>
<path style="fill:none;stroke-width:2;stroke-linecap:butt;stroke-linejoin:miter;stroke:rgb(0%,0%,0%);stroke-opacity:1;stroke-miterlimit:4;" d="M 317.5 22.499919 L 331.500179 38.499976 L 334.999707 54.500033 L 334.999707 70.50009 L 334.500513 85.999919 L 322.500212 101.999976 L 324.50009 117.499805 L 339.000496 103.499626 " transform="matrix(3.779528,0,0,3.779528,0,0)"/>
<path style="fill:none;stroke-width:2;stroke-linecap:butt;stroke-linejoin:miter;stroke:rgb(0%,0%,0%);stroke-opacity:1;stroke-miterlimit:4;" d="M 311.000138 5.999634 L 168.500309 5.999634 L 152.500252 5.500439 " transform="matrix(3.779528,0,0,3.779528,0,0)"/>
<path style="fill:none;stroke-width:2;stroke-linecap:butt;stroke-linejoin:miter;stroke:rgb(0%,0%,0%);stroke-opacity:1;stroke-miterlimit:4;" d="M 130.999756 1.49965 L 130.999756 17.499707 L 129.500106 33.499764 L 131.499984 49.499821 L 132.000212 64.99965 L 132.000212 114.000277 L 134.00009 130.000334 L 139.999723 140.499951 L 159.999536 148.500496 L 159.999536 155.000358 L 175.500399 157.000236 L 191.500456 156.500008 L 207.500513 156.500008 L 223.499536 155.99978 L 304.000049 155.99978 L 320.000106 156.500008 L 336.000163 155.99978 L 351.499992 155.99978 L 367.500049 155.499552 L 383.500106 150.999569 " transform="matrix(3.779528,0,0,3.779528,0,0)"/>
<path style="fill:none;stroke-width:2;stroke-linecap:butt;stroke-linejoin:miter;stroke:rgb(0%,0%,0%);stroke-opacity:1;stroke-miterlimit:4;" d="M 323.999862 29.500008 L 307.999805 23.500374 L 291.999748 23.500374 L 275.999691 25.500252 L 259.999634 31.499886 L 233.499959 26.999902 L 216.999674 23.000146 L 200.999618 23.500374 L 184.999561 23.500374 L 168.999504 30.000236 L 159.000114 36.500098 L 177.000049 20.500041 " transform="matrix(3.779528,0,0,3.779528,0,0)"/>
<path style="fill:none;stroke-width:2;stroke-linecap:butt;stroke-linejoin:miter;stroke:rgb(0%,0%,0%);stroke-opacity:1;stroke-miterlimit:4;" d="M 182.00026 23.999569 L 164.000326 39.999626 L 162.000448 55.999683 L 162.000448 88.500024 L 164.000326 104.500081 " transform="matrix(3.779528,0,0,3.779528,0,0)"/>
<path style="fill:none;stroke-width:2;stroke-linecap:butt;stroke-linejoin:miter;stroke:rgb(0%,0%,0%);stroke-opacity:1;stroke-miterlimit:4;" d="M 88.500024 80.000285 L 72.499967 109.999487 L 56.49991 123.999666 L 58.499788 116.000155 L 74.499845 100.000098 L 82.500391 83.499813 L 88.500024 67.499756 L 94.000464 51.499699 " transform="matrix(3.779528,0,0,3.779528,0,0)"/>
<path style="fill:none;stroke-width:2;stroke-linecap:butt;stroke-linejoin:miter;stroke:rgb(0%,0%,0%);stroke-opacity:1;stroke-miterlimit:4;" d="M 64.000228 30.500464 L 73.999618 7.00009 L 69.499634 23.000146 L 61.500122 39.000203 L 55.999683 54.500033 L 55.999683 69.999862 L 65.499878 67.999984 L 80.999707 46.000293 L 96.999764 46.000293 L 75.500301 62.00035 L 67.499756 78.000407 " transform="matrix(3.779528,0,0,3.779528,0,0)"/>
<path style="fill:none;stroke-width:2;stroke-linecap:butt;stroke-linejoin:miter;stroke:rgb(0%,0%,0%);stroke-opacity:1;stroke-miterlimit:4;" d="M 55.999683 35.000448 L 67.999984 5.000212 L 64.500456 21.000269 L 55.999683 37.000326 L 51.999927 53.000382 L 49.499821 68.500212 L 51.499699 70.50009 L 66.999528 78.499601 L 82.999585 51.999927 L 98.500448 49.499821 L 92.49978 65.499878 L 86.500146 81.499935 L 78.999829 97.499992 L 67.499756 113.500049 L 47.499943 129.500106 L 51.999927 151.499797 L 50.000049 168.000081 L 52.500155 180.000382 L 56.49991 169.999959 L 66.999528 182.500488 L 82.999585 194.499756 L 96.999764 204.500179 L 112.999821 202.000073 L 116.999577 207.999707 " transform="matrix(3.779528,0,0,3.779528,0,0)"/>
<path style="fill:none;stroke-width:2;stroke-linecap:butt;stroke-linejoin:miter;stroke:rgb(0%,0%,0%);stroke-opacity:1;stroke-miterlimit:4;" d="M 109.500293 198.499512 L 105.499504 182.00026 " transform="matrix(3.779528,0,0,3.779528,0,0)"/>
<path style="fill:none;stroke-width:2;stroke-linecap:butt;stroke-linejoin:miter;stroke:rgb(0%,0%,0%);stroke-opacity:1;stroke-miterlimit:4;" d="M 100.500326 182.999683 L 100.000098 199.499967 " transform="matrix(3.779528,0,0,3.779528,0,0)"/>
<path style="fill:none;stroke-width:2;stroke-linecap:butt;stroke-linejoin:miter;stroke:rgb(0%,0%,0%);stroke-opacity:1;stroke-miterlimit:4;" d="M 45.500065 169.999959 L 28.99978 171.499609 " transform="matrix(3.779528,0,0,3.779528,0,0)"/>
<path style="fill:none;stroke-width:2;stroke-linecap:butt;stroke-linejoin:miter;stroke:rgb(0%,0%,0%);stroke-opacity:1;stroke-miterlimit:4;" d="M 26.00048 187.999894 L 19.499585 203.999951 L 23.000146 219.49978 L 23.000146 235.499837 L 25.000024 251.499894 L 25.000024 284.000236 " transform="matrix(3.779528,0,0,3.779528,0,0)"/>
<path style="fill:none;stroke-width:2;stroke-linecap:butt;stroke-linejoin:miter;stroke:rgb(0%,0%,0%);stroke-opacity:1;stroke-miterlimit:4;" d="M 22.499919 300.000293 L 6.499862 276.499919 " transform="matrix(3.779528,0,0,3.779528,0,0)"/>
<path style="fill:none;stroke-width:2;stroke-linecap:butt;stroke-linejoin:miter;stroke:rgb(0%,0%,0%);stroke-opacity:1;stroke-miterlimit:4;" d="M 3.499528 266.000301 L 7.500317 282.000358 L 10.000423 298.000415 " transform="matrix(3.779528,0,0,3.779528,0,0)"/>
<path style="fill:none;stroke-width:2;stroke-linecap:butt;stroke-linejoin:miter;stroke:rgb(0%,0%,0%);stroke-opacity:1;stroke-miterlimit:4;" d="M 2.500106 286.999536 L 18.500163 304.500277 L 35.000448 306.500155 L 51.499699 304.500277 L 67.499756 292.499976 " transform="matrix(3.779528,0,0,3.779528,0,0)"/>
<path style="fill:none;stroke-width:2;stroke-linecap:butt;stroke-linejoin:miter;stroke:rgb(0%,0%,0%);stroke-opacity:1;stroke-miterlimit:4;" d="M 96.000342 259.999634 L 84.000041 269.499829 L 82.000163 253.499772 L 82.000163 236.999487 L 77.500179 221.499658 L 87.000374 201.499845 L 65.499878 191.500456 L 49.499821 185.499788 L 33.499764 187.499666 L 17.499707 195.500212 L 1.49965 200.000195 " transform="matrix(3.779528,0,0,3.779528,0,0)"/>
<path style="fill:none;stroke-width:2;stroke-linecap:butt;stroke-linejoin:miter;stroke:rgb(0%,0%,0%);stroke-opacity:1;stroke-miterlimit:4;" d="M 23.500374 198.000317 L 26.999902 214.000374 L 28.99978 229.500203 L 28.99978 261.500317 L 30.500464 277.500374 L 30.500464 293.500431 L 38.499976 311.500366 L 54.500033 307.499577 L 71.000317 295.500309 L 87.000374 277.000146 " transform="matrix(3.779528,0,0,3.779528,0,0)"/>
<path style="fill:none;stroke-width:2;stroke-linecap:butt;stroke-linejoin:miter;stroke:rgb(0%,0%,0%);stroke-opacity:1;stroke-miterlimit:4;" d="M 50.500277 160.499764 L 30.500464 164.000326 L 14.999601 189.499544 L 10.999845 195.500212 L 21.000269 179.500155 L 26.999902 177.500277 L 14.999601 159.999536 " transform="matrix(3.779528,0,0,3.779528,0,0)"/>
<path style="fill:none;stroke-width:2;stroke-linecap:butt;stroke-linejoin:miter;stroke:rgb(0%,0%,0%);stroke-opacity:1;stroke-miterlimit:4;" d="M 28.000358 150.500374 L 44.000415 141.999601 " transform="matrix(3.779528,0,0,3.779528,0,0)"/>
<path style="fill:none;stroke-width:2;stroke-linecap:butt;stroke-linejoin:miter;stroke:rgb(0%,0%,0%);stroke-opacity:1;stroke-miterlimit:4;" d="M 1.999878 113.500049 L 17.999935 127.500228 L 19.999813 141.000179 L 12.000301 155.000358 L 44.499609 163.500098 L 38.499976 167.499854 L 44.499609 178.999927 L 62.499544 187.000472 L 68.500212 202.999495 L 74.499845 219.49978 L 76.499723 235.499837 L 76.499723 251.499894 L 78.499601 267.499951 L 74.499845 282.99978 L 58.499788 298.999837 " transform="matrix(3.779528,0,0,3.779528,0,0)"/>
<path style="fill:none;stroke-width:2;stroke-linecap:butt;stroke-linejoin:miter;stroke:rgb(0%,0%,0%);stroke-opacity:1;stroke-miterlimit:4;" d="M 53.999805 144.000513 L 48.000171 139.999723 L 35.499642 146.000391 L 37.999748 130.000334 L 15.499829 135.999967 L 11.500073 146.499585 L 3.499528 146.499585 L 11.500073 130.999756 L 5.999634 123.000244 L 3.999756 106.499959 " transform="matrix(3.779528,0,0,3.779528,0,0)"/>
<path style="fill:none;stroke-width:2;stroke-linecap:butt;stroke-linejoin:miter;stroke:rgb(0%,0%,0%);stroke-opacity:1;stroke-miterlimit:4;" d="M 1.999878 107.000187 L 17.999935 123.000244 L 34.50022 125.000122 L 50.500277 122.500016 L 66.999528 108.499837 L 82.999585 80.000285 L 80.999707 48.000171 L 69.000439 63.5 " transform="matrix(3.779528,0,0,3.779528,0,0)"/>
<path style="fill:none;stroke-width:2;stroke-linecap:butt;stroke-linejoin:miter;stroke:rgb(0%,0%,0%);stroke-opacity:1;stroke-miterlimit:4;" d="M 46.000293 30.500464 L 55.999683 2.500106 L 46.000293 18.500163 L 39.999626 33.999992 L 35.499642 49.499821 L 29.500008 65.499878 L 29.500008 73.000195 L 41.500309 25.000024 L 62.00035 1.000456 L 53.999805 17.000513 L 46.000293 32.999536 L 41.999504 48.999593 L 35.499642 64.500456 L 25.500252 66.500334 " transform="matrix(3.779528,0,0,3.779528,0,0)"/>
<path style="fill:none;stroke-width:2;stroke-linecap:butt;stroke-linejoin:miter;stroke:rgb(0%,0%,0%);stroke-opacity:1;stroke-miterlimit:4;" d="M 17.499707 62.499544 L 13.499951 46.499487 L 23.500374 30.500464 L 17.000513 28.499552 L 19.000391 14.500407 L 3.000334 18.500163 " transform="matrix(3.779528,0,0,3.779528,0,0)"/>
<path style="fill:none;stroke-width:2;stroke-linecap:butt;stroke-linejoin:miter;stroke:rgb(0%,0%,0%);stroke-opacity:1;stroke-miterlimit:4;" d="M 2.500106 25.000024 L 18.500163 23.000146 " transform="matrix(3.779528,0,0,3.779528,0,0)"/>
<path style="fill:none;stroke-width:2;stroke-linecap:butt;stroke-linejoin:miter;stroke:rgb(0%,0%,0%);stroke-opacity:1;stroke-miterlimit:4;" d="M 17.499707 43.500187 L 19.499585 59.500244 " transform="matrix(3.779528,0,0,3.779528,0,0)"/>
<path style="fill:none;stroke-width:2;stroke-linecap:butt;stroke-linejoin:miter;stroke:rgb(0%,0%,0%);stroke-opacity:1;stroke-miterlimit:4;" d="M 365.500171 1.000456 L 361.500415 17.000513 L 359.499504 32.999536 L 365.500171 53.499577 L 366.000399 69.999862 L 366.000399 102.500203 L 379.999544 118.50026 L 386.000212 134.500317 L 386.500439 138.500073 L 388.999512 152.500252 L 382.999878 168.500309 L 382.49965 184.500366 L 382.49965 200.500423 L 380.499772 216.50048 L 380.499772 232.499504 L 378.499894 248.000366 L 377.999666 264.000423 L 375.999788 280.00048 L 375.999788 295.999504 L 374.500138 311.999561 L 372.50026 327.999618 L 368.500505 345.500358 L 354.000098 361.000187 " transform="matrix(3.779528,0,0,3.779528,0,0)"/>
</g>
</svg>
