<?xml version="1.0" encoding="UTF-8"?>
<svg xmlns="http://www.w3.org/2000/svg" xmlns:xlink="http://www.w3.org/1999/xlink" width="1935.11811" height="1935.11811" viewBox="0 0 1935.11811 1935.11811" version="1.1">
<g id="surface1">
<path style="fill:none;stroke-width:2;stroke-linecap:butt;stroke-linejoin:miter;stroke:rgb(0%,0%,0%);stroke-opacity:1;stroke-miterlimit:4;" d="M 335.499935 36.500098 L 329.500301 52.500155 L 341.499569 72.499967 L 355.499748 82.500391 L 363.500293 103.000431 L 355.499748 123.000244 L 363.500293 125.000122 L 385.499984 141.000179 L 398.999935 130.999756 L 416.99987 132.500439 L 432.499699 146.499585 L 445.000228 146.499585 L 461.000285 142.499829 L 477.000342 136.500195 L 495.500505 141.999601 " transform="matrix(3.779528,0,0,3.779528,0,0)"/>
<path style="fill:none;stroke-width:2;stroke-linecap:butt;stroke-linejoin:miter;stroke:rgb(0%,0%,0%);stroke-opacity:1;stroke-miterlimit:4;" d="M 477.000342 119.99991 L 470.999674 116.000155 " transform="matrix(3.779528,0,0,3.779528,0,0)"/>
<path style="fill:none;stroke-width:2;stroke-linecap:butt;stroke-linejoin:miter;stroke:rgb(0%,0%,0%);stroke-opacity:1;stroke-miterlimit:4;" d="M 477.000342 101.499748 L 493.000399 95.500114 L 509.000456 103.999854 " transform="matrix(3.779528,0,0,3.779528,0,0)"/>
<path style="fill:none;stroke-width:2;stroke-linecap:butt;stroke-linejoin:miter;stroke:rgb(0%,0%,0%);stroke-opacity:1;stroke-miterlimit:4;" d="M 496.499927 137.000423 L 480.49987 143.000057 L 472.999552 125.000122 L 475.000464 98.500448 L 465.000041 73.999618 L 454.999618 49.499821 L 456.999495 33.499764 L 472.999552 31.499886 L 456.999495 29.500008 " transform="matrix(3.779528,0,0,3.779528,0,0)"/>
<path style="fill:none;stroke-width:2;stroke-linecap:butt;stroke-linejoin:miter;stroke:rgb(0%,0%,0%);stroke-opacity:1;stroke-miterlimit:4;" d="M 470.999674 37.49952 L 481.000098 53.499577 L 485.500081 69.499634 L 483.500203 85.499691 L 509.999878 87.000374 " transform="matrix(3.779528,0,0,3.779528,0,0)"/>
<path style="fill:none;stroke-width:2;stroke-linecap:butt;stroke-linejoin:miter;stroke:rgb(0%,0%,0%);stroke-opacity:1;stroke-miterlimit:4;" d="M 497.000155 100.000098 L 470.999674 85.999919 L 454.999618 82.500391 L 438.999561 78.499601 " transform="matrix(3.779528,0,0,3.779528,0,0)"/>
<path style="fill:none;stroke-width:2;stroke-linecap:butt;stroke-linejoin:miter;stroke:rgb(0%,0%,0%);stroke-opacity:1;stroke-miterlimit:4;" d="M 436.00026 75.500301 L 452.000317 73.500423 L 468.000374 75.999495 L 491.999943 69.999862 L 508 74.499845 L 509.999878 84.500269 " transform="matrix(3.779528,0,0,3.779528,0,0)"/>
<path style="fill:none;stroke-width:2;stroke-linecap:butt;stroke-linejoin:miter;stroke:rgb(0%,0%,0%);stroke-opacity:1;stroke-miterlimit:4;" d="M 470.999674 60.499666 L 446.499878 55.00026 L 430.499821 57.000138 L 416.499642 62.999772 L 400.999813 54.500033 L 384.999756 48.500399 L 366.499593 46.000293 L 350.499536 41.500309 L 334.999707 41.500309 L 319.499878 42.999959 L 313.500244 54.500033 L 298.000415 51.000505 L 282.000358 46.999715 " transform="matrix(3.779528,0,0,3.779528,0,0)"/>
<path style="fill:none;stroke-width:2;stroke-linecap:butt;stroke-linejoin:miter;stroke:rgb(0%,0%,0%);stroke-opacity:1;stroke-miterlimit:4;" d="M 280.499674 44.999837 L 296.499731 42.999959 L 320.000106 47.499943 L 332.000407 62.999772 L 343.999674 89.000252 L 354.000098 100.500326 L 363.999487 122.500016 L 380.499772 123.999666 L 384.499528 137.999845 L 402.500496 135.49974 L 418.999748 143.500285 L 434.999805 151.499797 " transform="matrix(3.779528,0,0,3.779528,0,0)"/>
<path style="fill:none;stroke-width:2;stroke-linecap:butt;stroke-linejoin:miter;stroke:rgb(0%,0%,0%);stroke-opacity:1;stroke-miterlimit:4;" d="M 439.499788 139.499495 L 456.000073 137.499618 L 472.00013 137.999845 " transform="matrix(3.779528,0,0,3.779528,0,0)"/>
<path style="fill:none;stroke-width:2;stroke-linecap:butt;stroke-linejoin:miter;stroke:rgb(0%,0%,0%);stroke-opacity:1;stroke-miterlimit:4;" d="M 441.499666 168.500309 L 440.000016 152.000024 L 420.000203 135.999967 L 416.499642 119.99991 L 404.500374 101.499748 L 404.500374 85.499691 L 386.999634 93.500236 L 382.999878 97.499992 " transform="matrix(3.779528,0,0,3.779528,0,0)"/>
<path style="fill:none;stroke-width:2;stroke-linecap:butt;stroke-linejoin:miter;stroke:rgb(0%,0%,0%);stroke-opacity:1;stroke-miterlimit:4;" d="M 373.000488 94.499658 L 375.000366 110.499715 L 381 132.000212 " transform="matrix(3.779528,0,0,3.779528,0,0)"/>
<path style="fill:none;stroke-width:2;stroke-linecap:butt;stroke-linejoin:miter;stroke:rgb(0%,0%,0%);stroke-opacity:1;stroke-miterlimit:4;" d="M 386.500439 157.999658 L 373.99991 155.99978 L 372.000033 170.500187 L 355.999976 162.99987 L 339.499691 155.000358 " transform="matrix(3.779528,0,0,3.779528,0,0)"/>
<path style="fill:none;stroke-width:2;stroke-linecap:butt;stroke-linejoin:miter;stroke:rgb(0%,0%,0%);stroke-opacity:1;stroke-miterlimit:4;" d="M 349.500114 108.499837 L 333.500057 101.999976 L 329.500301 91.999552 L 313.500244 94.499658 " transform="matrix(3.779528,0,0,3.779528,0,0)"/>
<path style="fill:none;stroke-width:2;stroke-linecap:butt;stroke-linejoin:miter;stroke:rgb(0%,0%,0%);stroke-opacity:1;stroke-miterlimit:4;" d="M 311.500366 108.499837 L 327.000195 96.499536 L 343.000252 100.500326 " transform="matrix(3.779528,0,0,3.779528,0,0)"/>
<path style="fill:none;stroke-width:2;stroke-linecap:butt;stroke-linejoin:miter;stroke:rgb(0%,0%,0%);stroke-opacity:1;stroke-miterlimit:4;" d="M 329.999495 112.499593 L 321.999984 128.000456 L 306.500155 114.000277 L 296.499731 100.000098 L 280.499674 80.000285 " transform="matrix(3.779528,0,0,3.779528,0,0)"/>
<path style="fill:none;stroke-width:2;stroke-linecap:butt;stroke-linejoin:miter;stroke:rgb(0%,0%,0%);stroke-opacity:1;stroke-miterlimit:4;" d="M 264.000423 68.500212 L 280.499674 87.000374 L 312.499788 128.000456 L 328.499845 146.499585 L 343.999674 150.500374 L 364.499715 170.500187 L 354.500326 178.499699 " transform="matrix(3.779528,0,0,3.779528,0,0)"/>
<path style="fill:none;stroke-width:2;stroke-linecap:butt;stroke-linejoin:miter;stroke:rgb(0%,0%,0%);stroke-opacity:1;stroke-miterlimit:4;" d="M 372.50026 188.500122 L 357.000431 190.5 L 370.999577 194.499756 L 388.999512 178.499699 L 391.000423 162.000448 L 366.999821 162.000448 L 350.999764 146.000391 L 334.500513 144.000513 L 329.000073 128.000456 L 334.999707 118.000033 L 327.000195 101.999976 L 314.999894 100.000098 L 307.000382 98.00022 L 307.000382 82.000163 L 280.999902 75.999495 L 284.999658 60.000472 L 273.000391 57.999561 L 259.000212 46.000293 " transform="matrix(3.779528,0,0,3.779528,0,0)"/>
<path style="fill:none;stroke-width:2;stroke-linecap:butt;stroke-linejoin:miter;stroke:rgb(0%,0%,0%);stroke-opacity:1;stroke-miterlimit:4;" d="M 265.500073 44.999837 L 280.999902 45.500065 L 275.000269 46.000293 L 256.500106 46.000293 L 259.999634 62.00035 L 269.499829 78.499601 L 283.500008 94.499658 L 295.500309 110.499715 L 307.499577 126.499772 L 321.999984 142.499829 L 342.500024 158.499886 L 350.000342 174.499943 L 359.999731 194.499756 L 373.499683 198.499512 L 373.499683 198.99974 L 389.49974 188.500122 L 404.500374 184.999561 L 404.500374 189.00035 L 420.999626 188.500122 L 445.500456 182.500488 L 461.500513 186.500244 L 479.00022 186.000016 L 510.500106 186.000016 " transform="matrix(3.779528,0,0,3.779528,0,0)"/>
<path style="fill:none;stroke-width:2;stroke-linecap:butt;stroke-linejoin:miter;stroke:rgb(0%,0%,0%);stroke-opacity:1;stroke-miterlimit:4;" d="M 481.500326 210.499813 L 497.999577 222.500114 " transform="matrix(3.779528,0,0,3.779528,0,0)"/>
<path style="fill:none;stroke-width:2;stroke-linecap:butt;stroke-linejoin:miter;stroke:rgb(0%,0%,0%);stroke-opacity:1;stroke-miterlimit:4;" d="M 509.000456 246.99991 L 493.000399 255.000456 L 495.500505 232.999731 L 490.000065 241.500505 L 484.000431 248.999788 L 466.000496 232.999731 L 482.499748 227.500326 L 488.999609 221.499658 L 472.999552 237.499715 " transform="matrix(3.779528,0,0,3.779528,0,0)"/>
<path style="fill:none;stroke-width:2;stroke-linecap:butt;stroke-linejoin:miter;stroke:rgb(0%,0%,0%);stroke-opacity:1;stroke-miterlimit:4;" d="M 464.499813 238.500171 L 480.49987 254.500228 L 497.000155 264.499618 " transform="matrix(3.779528,0,0,3.779528,0,0)"/>
<path style="fill:none;stroke-width:2;stroke-linecap:butt;stroke-linejoin:miter;stroke:rgb(0%,0%,0%);stroke-opacity:1;stroke-miterlimit:4;" d="M 502.999788 264.000423 L 506.999544 237.999943 L 491.499715 252.000122 L 495.500505 243.999577 L 502.000366 227.99952 L 486.499504 212.000496 L 466.000496 230.499626 " transform="matrix(3.779528,0,0,3.779528,0,0)"/>
<path style="fill:none;stroke-width:2;stroke-linecap:butt;stroke-linejoin:miter;stroke:rgb(0%,0%,0%);stroke-opacity:1;stroke-miterlimit:4;" d="M 453.499967 245.000033 L 469.500024 261.00009 L 485.500081 277.500374 L 501.500138 293.500431 " transform="matrix(3.779528,0,0,3.779528,0,0)"/>
<path style="fill:none;stroke-width:2;stroke-linecap:butt;stroke-linejoin:miter;stroke:rgb(0%,0%,0%);stroke-opacity:1;stroke-miterlimit:4;" d="M 509.000456 276.499919 L 486.999731 259.999634 L 468.999797 243.999577 L 472.500358 233.499959 L 482.499748 217.499902 L 472.500358 209.000163 L 456.500301 209.000163 " transform="matrix(3.779528,0,0,3.779528,0,0)"/>
<path style="fill:none;stroke-width:2;stroke-linecap:butt;stroke-linejoin:miter;stroke:rgb(0%,0%,0%);stroke-opacity:1;stroke-miterlimit:4;" d="M 448.499756 243.500382 L 458.500179 259.500439 L 475.499658 275.500496 L 491.999943 291.49952 L 509.999878 307.499577 " transform="matrix(3.779528,0,0,3.779528,0,0)"/>
<path style="fill:none;stroke-width:2;stroke-linecap:butt;stroke-linejoin:miter;stroke:rgb(0%,0%,0%);stroke-opacity:1;stroke-miterlimit:4;" d="M 500.99991 298.000415 L 468.999797 266.000301 L 452.499512 250.000244 " transform="matrix(3.779528,0,0,3.779528,0,0)"/>
<path style="fill:none;stroke-width:2;stroke-linecap:butt;stroke-linejoin:miter;stroke:rgb(0%,0%,0%);stroke-opacity:1;stroke-miterlimit:4;" d="M 450.000439 243.999577 L 466.499691 255.999878 L 498.499805 287.999992 " transform="matrix(3.779528,0,0,3.779528,0,0)"/>
<path style="fill:none;stroke-width:2;stroke-linecap:butt;stroke-linejoin:miter;stroke:rgb(0%,0%,0%);stroke-opacity:1;stroke-miterlimit:4;" d="M 416.000448 381.500228 L 422.999504 381.500228 L 429.500399 399.500163 L 409.000358 420.000203 L 415.50022 436.00026 L 391.499618 432.000505 L 397.500285 450.000439 L 375.999788 456.500301 L 354.500326 464.499813 L 368.000277 454.999618 L 384.000334 448.999984 L 404.000146 430.499821 " transform="matrix(3.779528,0,0,3.779528,0,0)"/>
<path style="fill:none;stroke-width:2;stroke-linecap:butt;stroke-linejoin:miter;stroke:rgb(0%,0%,0%);stroke-opacity:1;stroke-miterlimit:4;" d="M 410.500008 439.499788 L 394.499951 445.500456 " transform="matrix(3.779528,0,0,3.779528,0,0)"/>
<path style="fill:none;stroke-width:2;stroke-linecap:butt;stroke-linejoin:miter;stroke:rgb(0%,0%,0%);stroke-opacity:1;stroke-miterlimit:4;" d="M 388.500317 427.000293 L 388.00009 443.499544 L 355.999976 451.50009 L 325.99974 463.999585 L 342.500024 459.999829 L 358.500081 450.499634 L 370.500382 432.999927 L 372.000033 438.999561 L 387.499862 429.000171 L 403.499919 426.500065 " transform="matrix(3.779528,0,0,3.779528,0,0)"/>
<path style="fill:none;stroke-width:2;stroke-linecap:butt;stroke-linejoin:miter;stroke:rgb(0%,0%,0%);stroke-opacity:1;stroke-miterlimit:4;" d="M 429.999593 418.000326 L 436.00026 402.500496 " transform="matrix(3.779528,0,0,3.779528,0,0)"/>
<path style="fill:none;stroke-width:2;stroke-linecap:butt;stroke-linejoin:miter;stroke:rgb(0%,0%,0%);stroke-opacity:1;stroke-miterlimit:4;" d="M 458.500179 432.499699 L 474.000008 424.500187 L 490.000065 416.499642 " transform="matrix(3.779528,0,0,3.779528,0,0)"/>
<path style="fill:none;stroke-width:2;stroke-linecap:butt;stroke-linejoin:miter;stroke:rgb(0%,0%,0%);stroke-opacity:1;stroke-miterlimit:4;" d="M 506.999544 384.999756 L 490.999487 388.999512 L 475.000464 377.000244 L 459.999829 361.000187 L 443.999772 344.499902 L 428.499943 326.499967 L 412.499886 309.999683 L 397.000057 289.99987 L 381.500228 273.499585 L 366.000399 257.999756 " transform="matrix(3.779528,0,0,3.779528,0,0)"/>
<path style="fill:none;stroke-width:2;stroke-linecap:butt;stroke-linejoin:miter;stroke:rgb(0%,0%,0%);stroke-opacity:1;stroke-miterlimit:4;" d="M 366.000399 253.499772 L 384.499528 269.499829 L 398.499707 285.499886 L 412.499886 302.000171 L 426.500065 318.000228 L 442.500122 334.000285 L 456.500301 350.000342 L 472.500358 366.000399 L 486.000309 381.500228 L 503.500016 401.500041 L 495.500505 416.99987 L 487.499959 416.99987 L 453.499967 423.999959 L 439.499788 440.500244 " transform="matrix(3.779528,0,0,3.779528,0,0)"/>
<path style="fill:none;stroke-width:2;stroke-linecap:butt;stroke-linejoin:miter;stroke:rgb(0%,0%,0%);stroke-opacity:1;stroke-miterlimit:4;" d="M 397.000057 486.499504 L 381.500228 492.500171 L 365.500171 494.500049 L 349.500114 498.499805 L 332.999829 504.500472 L 316.999772 508.500228 L 327.000195 504.500472 " transform="matrix(3.779528,0,0,3.779528,0,0)"/>
<path style="fill:none;stroke-width:2;stroke-linecap:butt;stroke-linejoin:miter;stroke:rgb(0%,0%,0%);stroke-opacity:1;stroke-miterlimit:4;" d="M 327.500423 498.499805 L 295.000081 508.500228 L 311.000138 504.500472 L 326.499967 497.999577 L 341.999797 493.999821 L 357.999854 489.499837 L 373.499683 487.499959 L 389.49974 481.500326 L 405.499797 479.500448 L 421.499854 475.000464 L 437.49991 470.999674 L 453.499967 466.999919 L 470.000252 465.000041 L 486.000309 459.499601 L 502.499561 452.000317 " transform="matrix(3.779528,0,0,3.779528,0,0)"/>
<path style="fill:none;stroke-width:2;stroke-linecap:butt;stroke-linejoin:miter;stroke:rgb(0%,0%,0%);stroke-opacity:1;stroke-miterlimit:4;" d="M 507.499772 454.000195 L 471.499902 470.000252 " transform="matrix(3.779528,0,0,3.779528,0,0)"/>
<path style="fill:none;stroke-width:2;stroke-linecap:butt;stroke-linejoin:miter;stroke:rgb(0%,0%,0%);stroke-opacity:1;stroke-miterlimit:4;" d="M 506.000122 465.500269 L 491.999943 473.49978 L 511.999756 457.499723 " transform="matrix(3.779528,0,0,3.779528,0,0)"/>
<path style="fill:none;stroke-width:2;stroke-linecap:butt;stroke-linejoin:miter;stroke:rgb(0%,0%,0%);stroke-opacity:1;stroke-miterlimit:4;" d="M 507.499772 459.499601 L 495.000277 459.499601 L 479.00022 467.500146 L 463.000163 472.999552 L 447.000106 475.499658 L 430.499821 481.500326 L 414.499764 485.500081 L 398.499707 497.500382 L 380.499772 499.50026 L 364.999943 507.499772 L 398.999935 497.500382 L 420.999626 481.500326 L 470.999674 463.999585 L 509.49965 447.999528 " transform="matrix(3.779528,0,0,3.779528,0,0)"/>
<path style="fill:none;stroke-width:2;stroke-linecap:butt;stroke-linejoin:miter;stroke:rgb(0%,0%,0%);stroke-opacity:1;stroke-miterlimit:4;" d="M 508 407.999902 L 502.000366 416.000448 L 509.999878 400.000391 L 506.50035 377.500472 L 490.500293 381.500228 L 474.500236 365.500171 L 458.500179 350.000342 L 442.500122 334.000285 L 426.500065 316.00035 L 409.99978 297.500187 L 393.999723 279.500252 L 377.999666 262.999967 L 361.999609 251.499894 " transform="matrix(3.779528,0,0,3.779528,0,0)"/>
<path style="fill:none;stroke-width:2;stroke-linecap:butt;stroke-linejoin:miter;stroke:rgb(0%,0%,0%);stroke-opacity:1;stroke-miterlimit:4;" d="M 362.499837 250.999666 L 372.50026 267.499951 L 388.00009 283.500008 L 402.000269 299.500065 L 416.000448 316.00035 L 432.000505 332.000407 L 445.500456 348.000464 L 461.500513 363.500293 L 477.499536 379.50035 L 465.000041 389.49974 L 463.000163 417.500098 L 450.999862 417.500098 L 438.999561 434.000382 L 433.500155 436.500488 L 441.999894 418.49952 L 444.5 431.000049 L 460.500057 412.499886 L 476.500114 392.500073 L 495.000277 394.499951 " transform="matrix(3.779528,0,0,3.779528,0,0)"/>
<path style="fill:none;stroke-width:2;stroke-linecap:butt;stroke-linejoin:miter;stroke:rgb(0%,0%,0%);stroke-opacity:1;stroke-miterlimit:4;" d="M 359.499504 351.499992 L 343.000252 333.500057 " transform="matrix(3.779528,0,0,3.779528,0,0)"/>
<path style="fill:none;stroke-width:2;stroke-linecap:butt;stroke-linejoin:miter;stroke:rgb(0%,0%,0%);stroke-opacity:1;stroke-miterlimit:4;" d="M 345.00013 333.500057 L 357.000431 349.500114 L 381 347.500236 L 396.499829 355.499748 " transform="matrix(3.779528,0,0,3.779528,0,0)"/>
<path style="fill:none;stroke-width:2;stroke-linecap:butt;stroke-linejoin:miter;stroke:rgb(0%,0%,0%);stroke-opacity:1;stroke-miterlimit:4;" d="M 395.999601 343.50048 L 379.999544 327.999618 L 363.999487 305.999927 L 348.000464 287.999992 L 332.499601 272.500163 " transform="matrix(3.779528,0,0,3.779528,0,0)"/>
<path style="fill:none;stroke-width:2;stroke-linecap:butt;stroke-linejoin:miter;stroke:rgb(0%,0%,0%);stroke-opacity:1;stroke-miterlimit:4;" d="M 336.000163 270.500285 L 352.00022 286.500342 L 366.000399 302.000171 L 375.999788 318.000228 L 391.999845 333.500057 L 404.500374 348.999886 " transform="matrix(3.779528,0,0,3.779528,0,0)"/>
<path style="fill:none;stroke-width:2;stroke-linecap:butt;stroke-linejoin:miter;stroke:rgb(0%,0%,0%);stroke-opacity:1;stroke-miterlimit:4;" d="M 350.999764 379.999544 L 335.499935 375.999788 L 319.499878 345.999552 L 304.000049 332.000407 " transform="matrix(3.779528,0,0,3.779528,0,0)"/>
<path style="fill:none;stroke-width:2;stroke-linecap:butt;stroke-linejoin:miter;stroke:rgb(0%,0%,0%);stroke-opacity:1;stroke-miterlimit:4;" d="M 305.000505 327.999618 L 316.999772 343.50048 L 327.000195 359.000309 L 334.999707 375.000366 L 347.000008 391.000423 L 356.500203 398.999935 L 381 386.999634 L 397.000057 393.000301 " transform="matrix(3.779528,0,0,3.779528,0,0)"/>
<path style="fill:none;stroke-width:2;stroke-linecap:butt;stroke-linejoin:miter;stroke:rgb(0%,0%,0%);stroke-opacity:1;stroke-miterlimit:4;" d="M 331.500179 443.499544 L 347.500236 443.499544 L 347.500236 463.000163 " transform="matrix(3.779528,0,0,3.779528,0,0)"/>
<path style="fill:none;stroke-width:2;stroke-linecap:butt;stroke-linejoin:miter;stroke:rgb(0%,0%,0%);stroke-opacity:1;stroke-miterlimit:4;" d="M 346.49978 438.500366 L 340.500146 434.499577 L 316.499544 440.500244 L 300.499487 442.500122 L 284.500464 420.500431 L 268.000179 388.500317 L 252.50035 358.500081 L 238.500171 325.99974 L 222.500114 311.500366 L 206.500057 298.999837 L 189.999772 300.499487 L 174.499943 302.500399 L 158.499886 305.000505 L 141.999601 307.000382 L 125.999544 309.00026 L 109.500293 311.000138 L 93.000008 313.000016 L 77.500179 313.000016 L 55.500488 323.000439 L 39.500431 327.500423 L 23.999569 331.500179 " transform="matrix(3.779528,0,0,3.779528,0,0)"/>
<path style="fill:none;stroke-width:2;stroke-linecap:butt;stroke-linejoin:miter;stroke:rgb(0%,0%,0%);stroke-opacity:1;stroke-miterlimit:4;" d="M 19.499585 329.999495 L 35.499642 323.999862 L 51.499699 320.000106 L 67.499756 309.999683 L 69.499634 335.499935 L 73.999618 350.999764 L 75.999495 367.500049 L 78.499601 383.500106 L 80.500513 399.500163 L 82.500391 416.000448 L 85.999919 432.000505 L 85.999919 447.999528 L 88.500024 463.999585 L 92.49978 479.999642 L 93.000008 495.500505 " transform="matrix(3.779528,0,0,3.779528,0,0)"/>
<path style="fill:none;stroke-width:2;stroke-linecap:butt;stroke-linejoin:miter;stroke:rgb(0%,0%,0%);stroke-opacity:1;stroke-miterlimit:4;" d="M 67.999984 497.999577 L 60.499666 490.000065 L 60.499666 472.00013 L 78.499601 463.999585 L 60.499666 466.000496 L 44.499609 474.000008 L 28.499552 477.499536 L 12.499495 479.500448 " transform="matrix(3.779528,0,0,3.779528,0,0)"/>
<path style="fill:none;stroke-width:2;stroke-linecap:butt;stroke-linejoin:miter;stroke:rgb(0%,0%,0%);stroke-opacity:1;stroke-miterlimit:4;" d="M 12.000301 478.499992 L 14.000179 494.500049 " transform="matrix(3.779528,0,0,3.779528,0,0)"/>
<path style="fill:none;stroke-width:2;stroke-linecap:butt;stroke-linejoin:miter;stroke:rgb(0%,0%,0%);stroke-opacity:1;stroke-miterlimit:4;" d="M 16.000057 488.999609 L 18.500163 482.499748 L 21.000269 499.000033 " transform="matrix(3.779528,0,0,3.779528,0,0)"/>
<path style="fill:none;stroke-width:2;stroke-linecap:butt;stroke-linejoin:miter;stroke:rgb(0%,0%,0%);stroke-opacity:1;stroke-miterlimit:4;" d="M 7.999512 476.500114 L 23.999569 475.000464 L 39.500431 470.999674 " transform="matrix(3.779528,0,0,3.779528,0,0)"/>
<path style="fill:none;stroke-width:2;stroke-linecap:butt;stroke-linejoin:miter;stroke:rgb(0%,0%,0%);stroke-opacity:1;stroke-miterlimit:4;" d="M 48.999593 452.000317 L 55.00026 434.000382 L 71.499512 415.50022 " transform="matrix(3.779528,0,0,3.779528,0,0)"/>
<path style="fill:none;stroke-width:2;stroke-linecap:butt;stroke-linejoin:miter;stroke:rgb(0%,0%,0%);stroke-opacity:1;stroke-miterlimit:4;" d="M 61.500122 382.999878 L 69.499634 378.499894 L 67.499756 395.000179 L 73.500423 414.999992 L 60.000472 431.000049 L 50.000049 447.000106 L 55.999683 472.500358 L 56.49991 488.000187 L 50.500277 487.499959 L 56.49991 503.500016 " transform="matrix(3.779528,0,0,3.779528,0,0)"/>
<path style="fill:none;stroke-width:2;stroke-linecap:butt;stroke-linejoin:miter;stroke:rgb(0%,0%,0%);stroke-opacity:1;stroke-miterlimit:4;" d="M 87.499569 486.000309 L 81.499935 470.000252 " transform="matrix(3.779528,0,0,3.779528,0,0)"/>
<path style="fill:none;stroke-width:2;stroke-linecap:butt;stroke-linejoin:miter;stroke:rgb(0%,0%,0%);stroke-opacity:1;stroke-miterlimit:4;" d="M 82.000163 465.000041 L 71.99974 481.000098 L 75.999495 489.499837 L 85.499691 495.500505 " transform="matrix(3.779528,0,0,3.779528,0,0)"/>
<path style="fill:none;stroke-width:2;stroke-linecap:butt;stroke-linejoin:miter;stroke:rgb(0%,0%,0%);stroke-opacity:1;stroke-miterlimit:4;" d="M 153.999902 493.999821 L 139.999723 498.499805 L 162.000448 481.99952 " transform="matrix(3.779528,0,0,3.779528,0,0)"/>
<path style="fill:none;stroke-width:2;stroke-linecap:butt;stroke-linejoin:miter;stroke:rgb(0%,0%,0%);stroke-opacity:1;stroke-miterlimit:4;" d="M 162.499642 486.000309 L 144.499707 502.000366 L 158.499886 505.499894 L 173.999715 497.000155 L 189.999772 481.000098 L 205.499601 470.999674 " transform="matrix(3.779528,0,0,3.779528,0,0)"/>
<path style="fill:none;stroke-width:2;stroke-linecap:butt;stroke-linejoin:miter;stroke:rgb(0%,0%,0%);stroke-opacity:1;stroke-miterlimit:4;" d="M 207.000285 469.500024 L 184.999561 485.500081 L 162.99987 502.000366 L 143.500285 494.500049 L 159.999536 484.499626 L 176.499821 482.999976 " transform="matrix(3.779528,0,0,3.779528,0,0)"/>
<path style="fill:none;stroke-width:2;stroke-linecap:butt;stroke-linejoin:miter;stroke:rgb(0%,0%,0%);stroke-opacity:1;stroke-miterlimit:4;" d="M 201.499845 493.999821 L 223.499536 477.999764 " transform="matrix(3.779528,0,0,3.779528,0,0)"/>
<path style="fill:none;stroke-width:2;stroke-linecap:butt;stroke-linejoin:miter;stroke:rgb(0%,0%,0%);stroke-opacity:1;stroke-miterlimit:4;" d="M 207.000285 472.500358 L 194.999984 488.500415 L 194.499756 500.99991 L 198.499512 500.99991 L 214.000374 493.499593 " transform="matrix(3.779528,0,0,3.779528,0,0)"/>
<path style="fill:none;stroke-width:2;stroke-linecap:butt;stroke-linejoin:miter;stroke:rgb(0%,0%,0%);stroke-opacity:1;stroke-miterlimit:4;" d="M 298.499609 456.500301 L 294.499854 462.499935 L 282.499552 468.000374 L 262.49974 484.000431 L 228.499748 488.000187 L 220.500236 497.999577 L 236.000065 490.000065 L 257.999756 479.500448 L 273.999813 467.500146 L 293.999626 447.999528 L 309.999683 470.000252 " transform="matrix(3.779528,0,0,3.779528,0,0)"/>
<path style="fill:none;stroke-width:2;stroke-linecap:butt;stroke-linejoin:miter;stroke:rgb(0%,0%,0%);stroke-opacity:1;stroke-miterlimit:4;" d="M 319.499878 459.999829 L 320.000106 443.999772 " transform="matrix(3.779528,0,0,3.779528,0,0)"/>
<path style="fill:none;stroke-width:2;stroke-linecap:butt;stroke-linejoin:miter;stroke:rgb(0%,0%,0%);stroke-opacity:1;stroke-miterlimit:4;" d="M 317.5 440.000016 L 315.500122 456.500301 " transform="matrix(3.779528,0,0,3.779528,0,0)"/>
<path style="fill:none;stroke-width:2;stroke-linecap:butt;stroke-linejoin:miter;stroke:rgb(0%,0%,0%);stroke-opacity:1;stroke-miterlimit:4;" d="M 330.499723 378.499894 L 314.499666 348.499658 L 298.499609 334.999707 " transform="matrix(3.779528,0,0,3.779528,0,0)"/>
<path style="fill:none;stroke-width:2;stroke-linecap:butt;stroke-linejoin:miter;stroke:rgb(0%,0%,0%);stroke-opacity:1;stroke-miterlimit:4;" d="M 300.999715 325.99974 L 307.000382 341.999797 L 318.99965 357.499626 L 326.499967 373.499683 L 334.500513 389.999967 L 338.000041 406.000024 L 350.499536 409.99978 L 366.499593 411.999658 L 382.49965 411.999658 L 398.499707 410.500008 L 414.499764 408.50013 L 430.499821 400.000391 " transform="matrix(3.779528,0,0,3.779528,0,0)"/>
<path style="fill:none;stroke-width:2;stroke-linecap:butt;stroke-linejoin:miter;stroke:rgb(0%,0%,0%);stroke-opacity:1;stroke-miterlimit:4;" d="M 322.500212 395.999601 L 316.499544 380.499772 L 309.999683 364.499715 L 302.000171 348.499658 L 296.499731 332.499601 L 286.500342 316.499544 L 278.499797 316.499544 " transform="matrix(3.779528,0,0,3.779528,0,0)"/>
<path style="fill:none;stroke-width:2;stroke-linecap:butt;stroke-linejoin:miter;stroke:rgb(0%,0%,0%);stroke-opacity:1;stroke-miterlimit:4;" d="M 265.500073 316.00035 L 257.499528 332.000407 L 257.499528 348.000464 L 271.000513 366.000399 L 280.499674 381.500228 L 286.000114 398.000513 L 291.49952 413.999536 L 299.500065 430.499821 " transform="matrix(3.779528,0,0,3.779528,0,0)"/>
<path style="fill:none;stroke-width:2;stroke-linecap:butt;stroke-linejoin:miter;stroke:rgb(0%,0%,0%);stroke-opacity:1;stroke-miterlimit:4;" d="M 294.499854 425.999837 L 277.999569 388.00009 L 261.999512 361.999609 " transform="matrix(3.779528,0,0,3.779528,0,0)"/>
<path style="fill:none;stroke-width:2;stroke-linecap:butt;stroke-linejoin:miter;stroke:rgb(0%,0%,0%);stroke-opacity:1;stroke-miterlimit:4;" d="M 248.499561 363.500293 L 264.499618 395.500407 L 280.999902 429.500399 " transform="matrix(3.779528,0,0,3.779528,0,0)"/>
<path style="fill:none;stroke-width:2;stroke-linecap:butt;stroke-linejoin:miter;stroke:rgb(0%,0%,0%);stroke-opacity:1;stroke-miterlimit:4;" d="M 327.500423 348.499658 L 311.000138 329.999495 L 295.000081 314.000472 " transform="matrix(3.779528,0,0,3.779528,0,0)"/>
<path style="fill:none;stroke-width:2;stroke-linecap:butt;stroke-linejoin:miter;stroke:rgb(0%,0%,0%);stroke-opacity:1;stroke-miterlimit:4;" d="M 295.000081 300.499487 L 305.000505 316.00035 L 320.999528 332.000407 L 334.999707 347.500236 L 342.500024 363.500293 L 341.999797 385.499984 L 357.999854 385.499984 L 373.499683 379.50035 L 389.49974 365.500171 " transform="matrix(3.779528,0,0,3.779528,0,0)"/>
<path style="fill:none;stroke-width:2;stroke-linecap:butt;stroke-linejoin:miter;stroke:rgb(0%,0%,0%);stroke-opacity:1;stroke-miterlimit:4;" d="M 374.500138 336.999585 L 357.999854 325.499512 L 341.999797 314.000472 L 326.499967 304.000049 L 311.000138 297.500187 L 295.000081 293.500431 L 275.500496 277.500374 L 259.000212 267.499951 " transform="matrix(3.779528,0,0,3.779528,0,0)"/>
<path style="fill:none;stroke-width:2;stroke-linecap:butt;stroke-linejoin:miter;stroke:rgb(0%,0%,0%);stroke-opacity:1;stroke-miterlimit:4;" d="M 246.99991 275.999691 L 232.999731 291.49952 L 228.999976 311.500366 " transform="matrix(3.779528,0,0,3.779528,0,0)"/>
<path style="fill:none;stroke-width:2;stroke-linecap:butt;stroke-linejoin:miter;stroke:rgb(0%,0%,0%);stroke-opacity:1;stroke-miterlimit:4;" d="M 230.000431 286.000114 L 239.999821 276.499919 L 221.999886 292.499976 L 237.999943 292.499976 L 254 278.499797 L 270.000057 282.000358 L 296.499731 289.499642 L 312.499788 293.500431 L 328.499845 299.500065 L 344.499902 307.499577 L 361.000187 321.499756 L 377.000244 333.500057 " transform="matrix(3.779528,0,0,3.779528,0,0)"/>
<path style="fill:none;stroke-width:2;stroke-linecap:butt;stroke-linejoin:miter;stroke:rgb(0%,0%,0%);stroke-opacity:1;stroke-miterlimit:4;" d="M 400.999813 341.499569 L 384.499528 323.499634 L 368.500505 303.499821 L 352.500448 286.000114 L 336.000163 268.000179 L 323.999862 258.499984 L 323.999862 252.999544 L 303.499821 259.000212 L 287.999992 264.999845 L 272.500163 268.500407 L 292.499976 255.999878 L 300.000293 253.499772 L 284.000236 259.500439 L 268.500407 262.999967 L 252.999544 265.500073 L 236.999487 261.500317 L 220.500236 265.500073 L 204.500179 267.499951 " transform="matrix(3.779528,0,0,3.779528,0,0)"/>
<path style="fill:none;stroke-width:2;stroke-linecap:butt;stroke-linejoin:miter;stroke:rgb(0%,0%,0%);stroke-opacity:1;stroke-miterlimit:4;" d="M 209.500391 261.500317 L 203.499723 277.500374 L 202.000073 293.500431 L 225.999642 307.499577 L 243.999577 349.500114 L 259.999634 359.499504 L 275.999691 371.499805 L 291.999748 409.499552 " transform="matrix(3.779528,0,0,3.779528,0,0)"/>
<path style="fill:none;stroke-width:2;stroke-linecap:butt;stroke-linejoin:miter;stroke:rgb(0%,0%,0%);stroke-opacity:1;stroke-miterlimit:4;" d="M 322.500212 407.999902 L 314.499666 391.999845 L 310.49991 375.999788 L 302.500399 359.999731 L 296.499731 343.999674 L 289.99987 327.999618 L 275.999691 311.500366 L 255.999878 323.499634 " transform="matrix(3.779528,0,0,3.779528,0,0)"/>
<path style="fill:none;stroke-width:2;stroke-linecap:butt;stroke-linejoin:miter;stroke:rgb(0%,0%,0%);stroke-opacity:1;stroke-miterlimit:4;" d="M 236.000065 284.999658 L 252.000122 273.000391 L 273.499585 286.500342 L 255.49965 294.499854 L 248.000366 318.99965 L 250.000244 332.999829 L 252.000122 348.999886 L 265.500073 369.499927 L 273.999813 383.500106 L 282.000358 399.500163 L 287.999992 415.50022 " transform="matrix(3.779528,0,0,3.779528,0,0)"/>
<path style="fill:none;stroke-width:2;stroke-linecap:butt;stroke-linejoin:miter;stroke:rgb(0%,0%,0%);stroke-opacity:1;stroke-miterlimit:4;" d="M 311.999561 381.500228 L 307.999805 357.000431 L 291.999748 331.500179 L 286.000114 313.500244 L 268.000179 309.500488 L 252.50035 321.999984 L 250.500472 307.999805 L 252.50035 306.500155 L 240.500049 300.000293 L 246.499683 284.000236 L 256.500106 268.000179 L 237.999943 268.000179 L 221.999886 273.999813 " transform="matrix(3.779528,0,0,3.779528,0,0)"/>
<path style="fill:none;stroke-width:2;stroke-linecap:butt;stroke-linejoin:miter;stroke:rgb(0%,0%,0%);stroke-opacity:1;stroke-miterlimit:4;" d="M 227.000098 268.500407 L 225.00022 284.500464 L 232.999731 300.499487 L 243.000155 316.00035 L 241.000277 332.000407 L 248.999788 347.500236 L 257.000334 366.000399 L 264.999845 382.000456 L 273.000391 398.499707 L 279.500252 414.499764 L 289.499642 430.499821 L 295.000081 440.500244 L 293.000203 456.500301 L 284.500464 472.00013 L 280.00048 481.99952 L 280.00048 481.500326 L 281.50013 473.49978 " transform="matrix(3.779528,0,0,3.779528,0,0)"/>
<path style="fill:none;stroke-width:2;stroke-linecap:butt;stroke-linejoin:miter;stroke:rgb(0%,0%,0%);stroke-opacity:1;stroke-miterlimit:4;" d="M 386.999634 499.000033 L 375.000366 511.000334 L 391.000423 504.999666 " transform="matrix(3.779528,0,0,3.779528,0,0)"/>
<path style="fill:none;stroke-width:2;stroke-linecap:butt;stroke-linejoin:miter;stroke:rgb(0%,0%,0%);stroke-opacity:1;stroke-miterlimit:4;" d="M 462.499935 391.000423 L 440.500244 407.499674 L 428.499943 407.499674 L 427.999715 418.999748 L 407.999902 413.000114 L 391.999845 415.50022 L 375.999788 417.500098 L 359.999731 415.50022 L 343.999674 413.000114 L 341.999797 409.499552 L 368.000277 391.499618 L 378.499894 375.999788 L 392.500073 359.499504 L 373.000488 343.50048 L 359.499504 327.999618 L 339.999919 311.999561 L 302.000171 295.999504 " transform="matrix(3.779528,0,0,3.779528,0,0)"/>
<path style="fill:none;stroke-width:2;stroke-linecap:butt;stroke-linejoin:miter;stroke:rgb(0%,0%,0%);stroke-opacity:1;stroke-miterlimit:4;" d="M 305.000505 291.49952 L 341.000374 307.499577 L 362.499837 323.999862 L 382.49965 339.999919 L 394.499951 354.000098 " transform="matrix(3.779528,0,0,3.779528,0,0)"/>
<path style="fill:none;stroke-width:2;stroke-linecap:butt;stroke-linejoin:miter;stroke:rgb(0%,0%,0%);stroke-opacity:1;stroke-miterlimit:4;" d="M 382.000456 379.999544 L 404.500374 361.999609 L 396.499829 346.49978 L 380.499772 330.499723 L 368.500505 314.499666 L 354.500326 298.499609 L 341.000374 282.499552 L 334.999707 266.499495 " transform="matrix(3.779528,0,0,3.779528,0,0)"/>
<path style="fill:none;stroke-width:2;stroke-linecap:butt;stroke-linejoin:miter;stroke:rgb(0%,0%,0%);stroke-opacity:1;stroke-miterlimit:4;" d="M 300.499487 256.500106 L 280.999902 284.500464 L 289.000448 300.999715 L 282.99978 303.499821 L 300.999715 319.499878 L 316.999772 335.499935 L 330.999951 351.499992 L 341.000374 367.500049 L 358.500081 377.000244 L 370.500382 388.999512 L 386.999634 394.499951 " transform="matrix(3.779528,0,0,3.779528,0,0)"/>
<path style="fill:none;stroke-width:2;stroke-linecap:butt;stroke-linejoin:miter;stroke:rgb(0%,0%,0%);stroke-opacity:1;stroke-miterlimit:4;" d="M 501.500138 406.500252 L 485.500081 410.500008 L 469.500024 420.500431 L 453.499967 432.499699 L 441.499666 440.000016 L 425.499609 445.99965 L 407.00048 445.99965 L 391.499618 454.000195 L 375.999788 456.000073 L 360.499959 466.499691 L 350.499536 462.499935 L 334.500513 468.999797 L 318.500456 475.000464 L 304.000049 477.000342 L 289.99987 474.500236 L 280.00048 470.50048 L 264.000423 482.499748 L 247.500138 490.000065 L 243.500382 479.999642 L 227.500326 488.000187 L 217.499902 483.500203 L 202.000073 493.499593 L 187.499666 491.499715 L 171.499609 503.500016 L 159.500342 509.49965 L 185.499788 493.499593 L 215.500024 490.999487 L 239.499593 481.500326 L 269.499829 472.00013 L 282.000358 456.000073 L 284.000236 440.500244 L 277.999569 423.999959 L 270.000057 407.999902 L 261.999512 391.999845 L 253.499772 375.999788 L 248.000366 359.999731 L 239.499593 343.999674 L 229.500203 328.499845 L 219.49978 312.499788 L 217.499902 296.999959 L 209.999585 280.999902 L 216.000252 264.499618 " transform="matrix(3.779528,0,0,3.779528,0,0)"/>
<path style="fill:none;stroke-width:2;stroke-linecap:butt;stroke-linejoin:miter;stroke:rgb(0%,0%,0%);stroke-opacity:1;stroke-miterlimit:4;" d="M 224.499992 262.49974 L 214.999797 278.499797 L 221.000464 294.499854 L 230.999854 310.49991 L 241.500505 309.999683 L 257.499528 297.500187 L 277.500374 296.999959 L 283.500008 302.999593 L 299.500065 311.000138 L 315.500122 324.50009 L 332.000407 342.500024 L 348.000464 368.500505 L 364.499715 376.500016 L 384.499528 377.000244 L 392.500073 357.000431 " transform="matrix(3.779528,0,0,3.779528,0,0)"/>
<path style="fill:none;stroke-width:2;stroke-linecap:butt;stroke-linejoin:miter;stroke:rgb(0%,0%,0%);stroke-opacity:1;stroke-miterlimit:4;" d="M 303.499821 187.499666 L 287.999992 184.999561 " transform="matrix(3.779528,0,0,3.779528,0,0)"/>
<path style="fill:none;stroke-width:2;stroke-linecap:butt;stroke-linejoin:miter;stroke:rgb(0%,0%,0%);stroke-opacity:1;stroke-miterlimit:4;" d="M 287.499764 150.500374 L 271.499707 150.000146 L 255.49965 148.000269 " transform="matrix(3.779528,0,0,3.779528,0,0)"/>
<path style="fill:none;stroke-width:2;stroke-linecap:butt;stroke-linejoin:miter;stroke:rgb(0%,0%,0%);stroke-opacity:1;stroke-miterlimit:4;" d="M 230.000431 159.000114 L 246.000488 156.500008 L 250.500472 168.000081 L 268.500407 166.000203 L 286.999536 165.499976 L 302.999593 161.50022 " transform="matrix(3.779528,0,0,3.779528,0,0)"/>
<path style="fill:none;stroke-width:2;stroke-linecap:butt;stroke-linejoin:miter;stroke:rgb(0%,0%,0%);stroke-opacity:1;stroke-miterlimit:4;" d="M 319.499878 171.000415 L 316.00035 155.000358 L 300.000293 144.999935 L 284.000236 124.499894 L 268.500407 100.99952 L 252.50035 81.499935 L 236.500293 57.000138 " transform="matrix(3.779528,0,0,3.779528,0,0)"/>
<path style="fill:none;stroke-width:2;stroke-linecap:butt;stroke-linejoin:miter;stroke:rgb(0%,0%,0%);stroke-opacity:1;stroke-miterlimit:4;" d="M 232.999731 50.500277 L 248.499561 40.499854 L 234.500415 57.999561 L 245.000033 73.500423 L 249.500016 81.499935 L 261.999512 97.499992 L 271.999935 113.500049 L 277.999569 119.499683 L 286.000114 131.499984 L 300.000293 147.500041 L 314.499666 163.500098 L 314.499666 179.500155 L 307.000382 180.999805 " transform="matrix(3.779528,0,0,3.779528,0,0)"/>
<path style="fill:none;stroke-width:2;stroke-linecap:butt;stroke-linejoin:miter;stroke:rgb(0%,0%,0%);stroke-opacity:1;stroke-miterlimit:4;" d="M 297.500187 157.500464 L 281.50013 159.500342 L 266.000301 162.000448 L 250.500472 162.000448 L 234.500415 167.499854 " transform="matrix(3.779528,0,0,3.779528,0,0)"/>
<path style="fill:none;stroke-width:2;stroke-linecap:butt;stroke-linejoin:miter;stroke:rgb(0%,0%,0%);stroke-opacity:1;stroke-miterlimit:4;" d="M 232.999731 168.000081 L 234.999609 183.49991 " transform="matrix(3.779528,0,0,3.779528,0,0)"/>
<path style="fill:none;stroke-width:2;stroke-linecap:butt;stroke-linejoin:miter;stroke:rgb(0%,0%,0%);stroke-opacity:1;stroke-miterlimit:4;" d="M 230.000431 180.999805 L 230.000431 164.999748 " transform="matrix(3.779528,0,0,3.779528,0,0)"/>
<path style="fill:none;stroke-width:2;stroke-linecap:butt;stroke-linejoin:miter;stroke:rgb(0%,0%,0%);stroke-opacity:1;stroke-miterlimit:4;" d="M 197.50009 169.499731 L 201.499845 169.499731 L 205.999829 185.499788 L 216.000252 200.000195 L 231.500081 198.000317 L 247.500138 196.000439 L 264.000423 193.999528 L 280.00048 191.500456 L 296.499731 193.500334 L 312.499788 191.500456 L 327.999618 189.499544 " transform="matrix(3.779528,0,0,3.779528,0,0)"/>
<path style="fill:none;stroke-width:2;stroke-linecap:butt;stroke-linejoin:miter;stroke:rgb(0%,0%,0%);stroke-opacity:1;stroke-miterlimit:4;" d="M 379.50035 182.500488 L 363.500293 184.500366 L 347.500236 190.5 L 321.999984 172.500065 L 294.499854 180.499577 L 279.000024 186.500244 L 262.999967 182.500488 L 246.99991 186.500244 L 228.999976 191.99965 L 212.999919 196.000439 L 198.99974 198.000317 L 182.500488 200.000195 L 166.999626 202.000073 L 150.999569 202.000073 L 134.999512 203.999951 L 119.000488 205.999829 L 89.000252 205.999829 L 73.000195 203.999951 L 53.000382 184.000138 L 44.999837 196.000439 L 55.00026 180.000382 L 41.000081 171.999837 L 44.499609 155.99978 L 44.499609 139.499495 L 46.499487 123.999666 L 44.000415 107.999609 L 43.500187 91.999552 L 45.500065 76.499723 L 41.500309 60.499666 L 29.500008 48.500399 L 13.499951 50.500277 " transform="matrix(3.779528,0,0,3.779528,0,0)"/>
<path style="fill:none;stroke-width:2;stroke-linecap:butt;stroke-linejoin:miter;stroke:rgb(0%,0%,0%);stroke-opacity:1;stroke-miterlimit:4;" d="M 2.500106 42.999959 L 18.500163 42.999959 L 34.50022 44.999837 L 34.50022 55.500488 L 41.000081 71.000317 L 26.999902 87.000374 L 25.000024 103.000431 L 32.999536 116.999577 L 35.000448 132.999634 L 33.499764 134.999512 " transform="matrix(3.779528,0,0,3.779528,0,0)"/>
<path style="fill:none;stroke-width:2;stroke-linecap:butt;stroke-linejoin:miter;stroke:rgb(0%,0%,0%);stroke-opacity:1;stroke-miterlimit:4;" d="M 14.000179 137.000423 L 26.00048 116.999577 L 17.999935 109.500293 L 1.999878 109.500293 " transform="matrix(3.779528,0,0,3.779528,0,0)"/>
<path style="fill:none;stroke-width:2;stroke-linecap:butt;stroke-linejoin:miter;stroke:rgb(0%,0%,0%);stroke-opacity:1;stroke-miterlimit:4;" d="M 1.999878 105.000309 L 17.999935 105.000309 L 40.499854 116.999577 L 38.499976 132.500439 L 53.000382 150.500374 L 57.000138 164.000326 L 66.999528 173.999715 L 60.999894 185.499788 L 46.499487 201.499845 L 46.499487 213.500146 " transform="matrix(3.779528,0,0,3.779528,0,0)"/>
<path style="fill:none;stroke-width:2;stroke-linecap:butt;stroke-linejoin:miter;stroke:rgb(0%,0%,0%);stroke-opacity:1;stroke-miterlimit:4;" d="M 41.999504 182.00026 L 26.00048 180.000382 " transform="matrix(3.779528,0,0,3.779528,0,0)"/>
<path style="fill:none;stroke-width:2;stroke-linecap:butt;stroke-linejoin:miter;stroke:rgb(0%,0%,0%);stroke-opacity:1;stroke-miterlimit:4;" d="M 21.000269 175.000171 L 37.000326 175.500399 " transform="matrix(3.779528,0,0,3.779528,0,0)"/>
<path style="fill:none;stroke-width:2;stroke-linecap:butt;stroke-linejoin:miter;stroke:rgb(0%,0%,0%);stroke-opacity:1;stroke-miterlimit:4;" d="M 65.499878 187.499666 L 50.000049 197.50009 L 33.999992 203.499723 L 17.999935 214.000374 L 1.999878 214.499569 " transform="matrix(3.779528,0,0,3.779528,0,0)"/>
<path style="fill:none;stroke-width:2;stroke-linecap:butt;stroke-linejoin:miter;stroke:rgb(0%,0%,0%);stroke-opacity:1;stroke-miterlimit:4;" d="M 3.000334 209.999585 L 19.000391 207.500513 " transform="matrix(3.779528,0,0,3.779528,0,0)"/>
<path style="fill:none;stroke-width:2;stroke-linecap:butt;stroke-linejoin:miter;stroke:rgb(0%,0%,0%);stroke-opacity:1;stroke-miterlimit:4;" d="M 17.999935 238.500171 L 1.999878 238.500171 " transform="matrix(3.779528,0,0,3.779528,0,0)"/>
<path style="fill:none;stroke-width:2;stroke-linecap:butt;stroke-linejoin:miter;stroke:rgb(0%,0%,0%);stroke-opacity:1;stroke-miterlimit:4;" d="M 1.000456 233.499959 L 17.499707 234.000187 " transform="matrix(3.779528,0,0,3.779528,0,0)"/>
<path style="fill:none;stroke-width:2;stroke-linecap:butt;stroke-linejoin:miter;stroke:rgb(0%,0%,0%);stroke-opacity:1;stroke-miterlimit:4;" d="M 40.499854 185.499788 L 34.50022 169.499731 L 18.500163 169.999959 L 2.500106 174.499943 " transform="matrix(3.779528,0,0,3.779528,0,0)"/>
<path style="fill:none;stroke-width:2;stroke-linecap:butt;stroke-linejoin:miter;stroke:rgb(0%,0%,0%);stroke-opacity:1;stroke-miterlimit:4;" d="M 0.500228 171.000415 L 6.499862 156.500008 L 39.500431 156.500008 L 47.499943 162.499642 L 61.500122 168.500309 " transform="matrix(3.779528,0,0,3.779528,0,0)"/>
<path style="fill:none;stroke-width:2;stroke-linecap:butt;stroke-linejoin:miter;stroke:rgb(0%,0%,0%);stroke-opacity:1;stroke-miterlimit:4;" d="M 76.499723 160.499764 L 72.499967 176.499821 L 86.500146 196.499634 L 102.500203 194.499756 L 118.50026 190.5 L 134.500317 188.500122 L 153.00048 186.500244 L 168.500309 186.000016 L 184.500366 186.000016 " transform="matrix(3.779528,0,0,3.779528,0,0)"/>
<path style="fill:none;stroke-width:2;stroke-linecap:butt;stroke-linejoin:miter;stroke:rgb(0%,0%,0%);stroke-opacity:1;stroke-miterlimit:4;" d="M 166.000203 194.999984 L 141.500407 196.999862 L 125.50035 198.99974 " transform="matrix(3.779528,0,0,3.779528,0,0)"/>
<path style="fill:none;stroke-width:2;stroke-linecap:butt;stroke-linejoin:miter;stroke:rgb(0%,0%,0%);stroke-opacity:1;stroke-miterlimit:4;" d="M 115.499927 199.499967 L 121.499561 195.500212 L 137.499618 191.500456 L 157.500464 173.499487 " transform="matrix(3.779528,0,0,3.779528,0,0)"/>
<path style="fill:none;stroke-width:2;stroke-linecap:butt;stroke-linejoin:miter;stroke:rgb(0%,0%,0%);stroke-opacity:1;stroke-miterlimit:4;" d="M 168.500309 178.499699 L 162.499642 190.5 L 152.500252 196.499634 L 148.500496 178.499699 L 144.499707 162.499642 " transform="matrix(3.779528,0,0,3.779528,0,0)"/>
<path style="fill:none;stroke-width:2;stroke-linecap:butt;stroke-linejoin:miter;stroke:rgb(0%,0%,0%);stroke-opacity:1;stroke-miterlimit:4;" d="M 189.499544 130.999756 L 205.499601 132.500439 L 221.499658 130.499528 L 237.499715 124.499894 " transform="matrix(3.779528,0,0,3.779528,0,0)"/>
<path style="fill:none;stroke-width:2;stroke-linecap:butt;stroke-linejoin:miter;stroke:rgb(0%,0%,0%);stroke-opacity:1;stroke-miterlimit:4;" d="M 237.499715 112.499593 L 239.499593 96.499536 L 234.000187 80.500513 L 218.500358 80.000285 L 202.500301 79.500057 L 186.500244 87.499569 L 170.500187 101.499748 " transform="matrix(3.779528,0,0,3.779528,0,0)"/>
<path style="fill:none;stroke-width:2;stroke-linecap:butt;stroke-linejoin:miter;stroke:rgb(0%,0%,0%);stroke-opacity:1;stroke-miterlimit:4;" d="M 168.000081 92.49978 L 184.000138 78.499601 L 200.000195 67.999984 L 220.000008 66.000106 L 234.000187 65.499878 L 240.500049 89.000252 L 246.499683 105.499504 L 246.499683 121.499561 L 230.000431 118.000033 L 246.000488 103.999854 L 247.500138 110.499715 L 267.499951 114.000277 L 263.500195 121.999788 " transform="matrix(3.779528,0,0,3.779528,0,0)"/>
<path style="fill:none;stroke-width:2;stroke-linecap:butt;stroke-linejoin:miter;stroke:rgb(0%,0%,0%);stroke-opacity:1;stroke-miterlimit:4;" d="M 266.499495 62.999772 L 282.000358 66.999528 L 298.000415 71.499512 L 314.000472 77.500179 L 329.999495 81.499935 L 345.999552 93.500236 " transform="matrix(3.779528,0,0,3.779528,0,0)"/>
<path style="fill:none;stroke-width:2;stroke-linecap:butt;stroke-linejoin:miter;stroke:rgb(0%,0%,0%);stroke-opacity:1;stroke-miterlimit:4;" d="M 354.99952 89.50048 L 330.999951 87.499569 L 314.999894 81.499935 L 295.000081 63.5 L 278.499797 59.500244 " transform="matrix(3.779528,0,0,3.779528,0,0)"/>
<path style="fill:none;stroke-width:2;stroke-linecap:butt;stroke-linejoin:miter;stroke:rgb(0%,0%,0%);stroke-opacity:1;stroke-miterlimit:4;" d="M 274.500041 57.999561 L 290.500098 53.999805 L 305.999927 64.000228 L 329.999495 59.500244 " transform="matrix(3.779528,0,0,3.779528,0,0)"/>
<path style="fill:none;stroke-width:2;stroke-linecap:butt;stroke-linejoin:miter;stroke:rgb(0%,0%,0%);stroke-opacity:1;stroke-miterlimit:4;" d="M 287.999992 53.000382 L 320.000106 57.500366 L 321.999984 73.500423 L 338.000041 79.500057 L 354.000098 77.500179 L 377.999666 111.500171 L 393.999723 113.500049 L 396.499829 119.499683 L 412.499886 111.500171 L 418.999748 97.499992 L 427.000293 98.00022 " transform="matrix(3.779528,0,0,3.779528,0,0)"/>
<path style="fill:none;stroke-width:2;stroke-linecap:butt;stroke-linejoin:miter;stroke:rgb(0%,0%,0%);stroke-opacity:1;stroke-miterlimit:4;" d="M 416.000448 105.499504 L 425.999837 89.50048 L 420.000203 83.499813 L 404.000146 85.499691 " transform="matrix(3.779528,0,0,3.779528,0,0)"/>
<path style="fill:none;stroke-width:2;stroke-linecap:butt;stroke-linejoin:miter;stroke:rgb(0%,0%,0%);stroke-opacity:1;stroke-miterlimit:4;" d="M 369.499927 92.49978 L 371.499805 108.499837 L 371.499805 124.499894 L 389.49974 132.500439 " transform="matrix(3.779528,0,0,3.779528,0,0)"/>
<path style="fill:none;stroke-width:2;stroke-linecap:butt;stroke-linejoin:miter;stroke:rgb(0%,0%,0%);stroke-opacity:1;stroke-miterlimit:4;" d="M 409.99978 155.99978 L 411.999658 171.999837 " transform="matrix(3.779528,0,0,3.779528,0,0)"/>
<path style="fill:none;stroke-width:2;stroke-linecap:butt;stroke-linejoin:miter;stroke:rgb(0%,0%,0%);stroke-opacity:1;stroke-miterlimit:4;" d="M 418.000326 173.499487 L 414.499764 157.500464 " transform="matrix(3.779528,0,0,3.779528,0,0)"/>
<path style="fill:none;stroke-width:2;stroke-linecap:butt;stroke-linejoin:miter;stroke:rgb(0%,0%,0%);stroke-opacity:1;stroke-miterlimit:4;" d="M 391.499618 164.49952 L 393.499495 180.499577 " transform="matrix(3.779528,0,0,3.779528,0,0)"/>
<path style="fill:none;stroke-width:2;stroke-linecap:butt;stroke-linejoin:miter;stroke:rgb(0%,0%,0%);stroke-opacity:1;stroke-miterlimit:4;" d="M 291.49952 146.499585 L 275.500496 144.000513 L 275.999691 139.999723 L 260.499862 139.499495 L 245.000033 141.999601 L 245.50026 148.000269 L 229.500203 153.999902 L 213.500146 157.999658 L 211.500269 151.499797 L 189.499544 152.000024 L 173.000293 123.999666 L 174.499943 112.499593 L 169.999959 96.499536 L 160.499764 78.499601 L 166.500431 75.000073 L 178.999927 75.000073 L 184.500366 73.000195 L 207.000285 66.999528 " transform="matrix(3.779528,0,0,3.779528,0,0)"/>
<path style="fill:none;stroke-width:2;stroke-linecap:butt;stroke-linejoin:miter;stroke:rgb(0%,0%,0%);stroke-opacity:1;stroke-miterlimit:4;" d="M 206.500057 73.500423 L 222.500114 67.499756 " transform="matrix(3.779528,0,0,3.779528,0,0)"/>
<path style="fill:none;stroke-width:2;stroke-linecap:butt;stroke-linejoin:miter;stroke:rgb(0%,0%,0%);stroke-opacity:1;stroke-miterlimit:4;" d="M 230.499626 67.499756 L 226.49987 57.500366 L 208.499935 57.999561 L 193.000106 62.00035 L 177.000049 67.999984 L 178.999927 84.500269 L 196.999862 68.500212 " transform="matrix(3.779528,0,0,3.779528,0,0)"/>
<path style="fill:none;stroke-width:2;stroke-linecap:butt;stroke-linejoin:miter;stroke:rgb(0%,0%,0%);stroke-opacity:1;stroke-miterlimit:4;" d="M 198.000317 80.000285 L 175.500399 96.000342 L 182.00026 120.500138 L 180.000382 108.499837 L 196.499634 101.999976 L 212.499691 93.500236 L 228.999976 91.999552 L 245.000033 87.999797 " transform="matrix(3.779528,0,0,3.779528,0,0)"/>
<path style="fill:none;stroke-width:2;stroke-linecap:butt;stroke-linejoin:miter;stroke:rgb(0%,0%,0%);stroke-opacity:1;stroke-miterlimit:4;" d="M 261.00009 103.499626 L 245.000033 93.500236 L 228.999976 101.999976 L 212.999919 100.000098 L 196.999862 108.499837 L 187.000472 112.499593 L 202.500301 96.499536 " transform="matrix(3.779528,0,0,3.779528,0,0)"/>
<path style="fill:none;stroke-width:2;stroke-linecap:butt;stroke-linejoin:miter;stroke:rgb(0%,0%,0%);stroke-opacity:1;stroke-miterlimit:4;" d="M 201.499845 102.500203 L 189.499544 118.50026 L 193.000106 142.499829 L 194.999984 158.499886 L 192.499878 173.999715 L 192.499878 189.999772 " transform="matrix(3.779528,0,0,3.779528,0,0)"/>
<path style="fill:none;stroke-width:2;stroke-linecap:butt;stroke-linejoin:miter;stroke:rgb(0%,0%,0%);stroke-opacity:1;stroke-miterlimit:4;" d="M 166.000203 101.499748 L 149.499919 67.499756 L 117.499805 59.500244 L 101.499748 61.500122 " transform="matrix(3.779528,0,0,3.779528,0,0)"/>
<path style="fill:none;stroke-width:2;stroke-linecap:butt;stroke-linejoin:miter;stroke:rgb(0%,0%,0%);stroke-opacity:1;stroke-miterlimit:4;" d="M 103.499626 61.500122 L 101.499748 77.500179 L 105.499504 93.500236 L 109.500293 109.000065 L 113.500049 125.000122 L 117.499805 140.499951 L 119.99991 158.499886 L 136.500195 155.99978 L 153.00048 153.999902 L 169.499731 152.000024 L 191.99965 144.000513 L 207.999707 141.999601 L 223.499536 135.999967 L 239.000399 133.499862 L 254.500228 131.499984 L 270.500285 130.000334 L 286.000114 137.499618 L 302.000171 153.499674 " transform="matrix(3.779528,0,0,3.779528,0,0)"/>
<path style="fill:none;stroke-width:2;stroke-linecap:butt;stroke-linejoin:miter;stroke:rgb(0%,0%,0%);stroke-opacity:1;stroke-miterlimit:4;" d="M 402.500496 144.000513 L 386.999634 143.500285 L 370.999577 143.500285 L 364.499715 131.499984 L 360.499959 139.999723 L 343.999674 137.999845 L 341.999797 125.999544 L 325.99974 130.000334 L 311.999561 121.999788 L 299.500065 105.499504 L 285.499886 89.50048 L 273.499585 73.999618 L 266.000301 58.499788 " transform="matrix(3.779528,0,0,3.779528,0,0)"/>
<path style="fill:none;stroke-width:2;stroke-linecap:butt;stroke-linejoin:miter;stroke:rgb(0%,0%,0%);stroke-opacity:1;stroke-miterlimit:4;" d="M 178.499699 66.999528 L 166.500431 82.500391 L 174.499943 64.500456 L 190.5 56.49991 L 206.500057 54.500033 L 222.500114 54.500033 L 239.000399 42.499731 L 262.999967 36.500098 L 267.499951 39.999626 L 282.99978 33.999992 L 298.999837 38.499976 L 314.999894 37.999748 L 330.999951 39.999626 L 347.000008 37.49952 L 362.499837 37.49952 L 377.999666 41.500309 L 393.999723 43.500187 L 409.499552 51.499699 L 425.499609 61.500122 L 439.499788 50.000049 L 453.499967 50.000049 L 463.500391 35.499642 L 473.49978 45.500065 L 477.499536 53.499577 L 497.500382 65.499878 " transform="matrix(3.779528,0,0,3.779528,0,0)"/>
<path style="fill:none;stroke-width:2;stroke-linecap:butt;stroke-linejoin:miter;stroke:rgb(0%,0%,0%);stroke-opacity:1;stroke-miterlimit:4;" d="M 472.00013 51.499699 L 481.99952 67.499756 L 487.499959 85.499691 L 503.500016 95.500114 " transform="matrix(3.779528,0,0,3.779528,0,0)"/>
<path style="fill:none;stroke-width:2;stroke-linecap:butt;stroke-linejoin:miter;stroke:rgb(0%,0%,0%);stroke-opacity:1;stroke-miterlimit:4;" d="M 504.500472 10.999845 L 488.500415 8.999967 " transform="matrix(3.779528,0,0,3.779528,0,0)"/>
<path style="fill:none;stroke-width:2;stroke-linecap:butt;stroke-linejoin:miter;stroke:rgb(0%,0%,0%);stroke-opacity:1;stroke-miterlimit:4;" d="M 476.500114 3.499528 L 508.500228 3.499528 " transform="matrix(3.779528,0,0,3.779528,0,0)"/>
<path style="fill:none;stroke-width:2;stroke-linecap:butt;stroke-linejoin:miter;stroke:rgb(0%,0%,0%);stroke-opacity:1;stroke-miterlimit:4;" d="M 439.499788 99.49987 L 441.000472 83.499813 L 417.500098 64.000228 L 384.999756 48.000171 " transform="matrix(3.779528,0,0,3.779528,0,0)"/>
<path style="fill:none;stroke-width:2;stroke-linecap:butt;stroke-linejoin:miter;stroke:rgb(0%,0%,0%);stroke-opacity:1;stroke-miterlimit:4;" d="M 389.49974 42.999959 L 421.499854 59.000016 L 427.499487 59.000016 L 433.500155 67.499756 L 438.000138 84.000041 L 436.00026 100.500326 L 432.000505 104.500081 L 427.999715 110.499715 L 409.99978 120.500138 L 408.50013 138.500073 L 436.999683 154.50013 L 436.999683 170.500187 L 448.499756 174.499943 L 464.499813 182.500488 L 480.49987 182.500488 L 496.499927 180.499577 " transform="matrix(3.779528,0,0,3.779528,0,0)"/>
<path style="fill:none;stroke-width:2;stroke-linecap:butt;stroke-linejoin:miter;stroke:rgb(0%,0%,0%);stroke-opacity:1;stroke-miterlimit:4;" d="M 123.500472 79.500057 L 107.999609 73.500423 " transform="matrix(3.779528,0,0,3.779528,0,0)"/>
<path style="fill:none;stroke-width:2;stroke-linecap:butt;stroke-linejoin:miter;stroke:rgb(0%,0%,0%);stroke-opacity:1;stroke-miterlimit:4;" d="M 108.499837 69.499634 L 124.499894 73.999618 " transform="matrix(3.779528,0,0,3.779528,0,0)"/>
<path style="fill:none;stroke-width:2;stroke-linecap:butt;stroke-linejoin:miter;stroke:rgb(0%,0%,0%);stroke-opacity:1;stroke-miterlimit:4;" d="M 98.00022 55.500488 L 98.00022 71.499512 L 100.000098 87.999797 L 103.999854 103.999854 L 101.999976 121.499561 L 112.499593 137.499618 L 116.000155 159.500342 L 107.999609 169.499731 L 118.000033 173.499487 L 136.500195 163.500098 L 155.000358 157.500464 L 170.500187 157.999658 L 196.999862 157.999658 L 196.999862 182.00026 " transform="matrix(3.779528,0,0,3.779528,0,0)"/>
<path style="fill:none;stroke-width:2;stroke-linecap:butt;stroke-linejoin:miter;stroke:rgb(0%,0%,0%);stroke-opacity:1;stroke-miterlimit:4;" d="M 181.500033 190.5 L 187.999894 175.000171 L 189.999772 159.000114 L 180.000382 143.000057 L 171.499609 127 L 168.000081 111.500171 L 162.000448 96.000342 L 153.499674 80.000285 L 149.499919 64.000228 L 146.000391 62.499544 L 130.000334 58.499788 L 114.000277 55.999683 L 98.00022 55.500488 " transform="matrix(3.779528,0,0,3.779528,0,0)"/>
<path style="fill:none;stroke-width:2;stroke-linecap:butt;stroke-linejoin:miter;stroke:rgb(0%,0%,0%);stroke-opacity:1;stroke-miterlimit:4;" d="M 82.000163 62.00035 L 80.000285 57.999561 L 64.000228 62.00035 " transform="matrix(3.779528,0,0,3.779528,0,0)"/>
<path style="fill:none;stroke-width:2;stroke-linecap:butt;stroke-linejoin:miter;stroke:rgb(0%,0%,0%);stroke-opacity:1;stroke-miterlimit:4;" d="M 80.999707 162.499642 L 80.500513 178.499699 L 78.499601 193.999528 " transform="matrix(3.779528,0,0,3.779528,0,0)"/>
<path style="fill:none;stroke-width:2;stroke-linecap:butt;stroke-linejoin:miter;stroke:rgb(0%,0%,0%);stroke-opacity:1;stroke-miterlimit:4;" d="M 53.000382 209.500391 L 37.49952 209.500391 L 27.50013 205.499601 L 19.499585 195.500212 L 17.499707 179.500155 L 1.49965 162.000448 " transform="matrix(3.779528,0,0,3.779528,0,0)"/>
<path style="fill:none;stroke-width:2;stroke-linecap:butt;stroke-linejoin:miter;stroke:rgb(0%,0%,0%);stroke-opacity:1;stroke-miterlimit:4;" d="M 67.499756 288.50022 L 67.499756 307.000382 L 65.499878 320.999528 L 41.000081 336.999585 L 18.500163 352.500448 L 4.499984 368.999699 L 16.500285 354.500326 L 32.500342 344.499902 L 48.500399 330.999951 " transform="matrix(3.779528,0,0,3.779528,0,0)"/>
<path style="fill:none;stroke-width:2;stroke-linecap:butt;stroke-linejoin:miter;stroke:rgb(0%,0%,0%);stroke-opacity:1;stroke-miterlimit:4;" d="M 46.000293 336.999585 L 30.000236 350.999764 L 14.000179 359.000309 L 14.000179 359.499504 L 37.999748 343.50048 " transform="matrix(3.779528,0,0,3.779528,0,0)"/>
<path style="fill:none;stroke-width:2;stroke-linecap:butt;stroke-linejoin:miter;stroke:rgb(0%,0%,0%);stroke-opacity:1;stroke-miterlimit:4;" d="M 43.500187 361.500415 L 37.49952 361.500415 L 23.500374 377.500472 L 7.500317 393.999723 L 3.000334 404.500374 L 12.999723 388.500317 L 28.99978 373.000488 L 45.500065 361.000187 L 65.499878 375.000366 L 62.00035 390.500195 L 69.999862 406.500252 L 62.00035 422.500309 L 48.000171 438.500366 L 41.999504 454.000195 L 39.500431 473.49978 L 45.500065 489.499837 L 43.500187 504.999666 L 41.500309 506.999544 L 60.000472 481.000098 L 75.999495 466.999919 " transform="matrix(3.779528,0,0,3.779528,0,0)"/>
<path style="fill:none;stroke-width:2;stroke-linecap:butt;stroke-linejoin:miter;stroke:rgb(0%,0%,0%);stroke-opacity:1;stroke-miterlimit:4;" d="M 13.499951 472.999552 L 7.500317 488.999609 L 3.499528 506.000122 L 9.500195 508.500228 " transform="matrix(3.779528,0,0,3.779528,0,0)"/>
<path style="fill:none;stroke-width:2;stroke-linecap:butt;stroke-linejoin:miter;stroke:rgb(0%,0%,0%);stroke-opacity:1;stroke-miterlimit:4;" d="M 1.999878 414.999992 L 17.999935 400.999813 L 34.50022 384.999756 L 21.999691 386.999634 L 16.000057 413.000114 L 3.499528 428.499943 L 11.500073 444.5 L 8.999967 452.499512 L 1.000456 447.999528 L 10.499618 443.499544 L 42.499731 443.499544 L 58.499788 423.499731 L 71.000317 401.500041 " transform="matrix(3.779528,0,0,3.779528,0,0)"/>
<path style="fill:none;stroke-width:2;stroke-linecap:butt;stroke-linejoin:miter;stroke:rgb(0%,0%,0%);stroke-opacity:1;stroke-miterlimit:4;" d="M 37.49952 386.000212 L 25.500252 402.000269 L 17.499707 418.49952 L 3.499528 434.499577 L 14.000179 414.999992 L 30.000236 413.000114 " transform="matrix(3.779528,0,0,3.779528,0,0)"/>
<path style="fill:none;stroke-width:2;stroke-linecap:butt;stroke-linejoin:miter;stroke:rgb(0%,0%,0%);stroke-opacity:1;stroke-miterlimit:4;" d="M 33.499764 382.999878 L 17.499707 398.999935 L 1.49965 404.999569 L 17.499707 391.499618 L 33.499764 375.499561 " transform="matrix(3.779528,0,0,3.779528,0,0)"/>
<path style="fill:none;stroke-width:2;stroke-linecap:butt;stroke-linejoin:miter;stroke:rgb(0%,0%,0%);stroke-opacity:1;stroke-miterlimit:4;" d="M 71.99974 302.000171 L 87.999797 307.999805 L 104.500081 305.499699 L 120.500138 305.999927 L 137.000423 304.000049 L 153.00048 302.000171 L 168.999504 300.499487 L 184.500366 298.499609 L 200.000195 295.999504 " transform="matrix(3.779528,0,0,3.779528,0,0)"/>
<path style="fill:none;stroke-width:2;stroke-linecap:butt;stroke-linejoin:miter;stroke:rgb(0%,0%,0%);stroke-opacity:1;stroke-miterlimit:4;" d="M 75.000073 285.499886 L 72.499967 302.000171 L 76.999951 320.000106 L 76.999951 336.000163 L 78.999829 352.00022 L 82.999585 368.000277 L 85.000496 384.499528 L 86.500146 400.499585 L 88.500024 416.499642 L 90.499902 432.999927 L 96.499536 481.000098 L 98.500448 497.500382 L 93.000008 500.99991 L 73.000195 506.999544 L 76.999951 511.000334 L 64.99965 509.000456 L 71.000317 484.999854 L 83.499813 499.000033 " transform="matrix(3.779528,0,0,3.779528,0,0)"/>
</g>
</svg>
