<svg xmlns="http://www.w3.org/2000/svg" width="512mm" height="512mm" viewBox="0 0 512 512" version="1.1"><polyline points="85.5,2.5,67.5,18.5,45.5,36.5,45.5,42.5,13.5,53.0,7.5,75.0,11.5,61.0,27.5,49.0,35.0,61.0" stroke="black" stroke-width="2" fill="none" />
<polyline points="28.0,54.5,44.0,58.0,60.0,59.5,82.0,43.5,89.5,23.5,105.5,27.5,121.5,31.0" stroke="black" stroke-width="2" fill="none" />
<polyline points="131.5,40.0,115.5,35.5,99.0,44.0,83.0,54.0" stroke="black" stroke-width="2" fill="none" />
<polyline points="80.0,51.5,95.5,39.5" stroke="black" stroke-width="2" fill="none" />
<polyline points="91.0,61.5,75.0,55.0" stroke="black" stroke-width="2" fill="none" />
<polyline points="84.5,64.5,72.5,80.5,68.5,84.5,84.5,74.5" stroke="black" stroke-width="2" fill="none" />
<polyline points="102.0,83.0,66.0,99.0,49.5,123.0,9.5,143.0,11.5,143.0,27.5,137.0,45.0,124.5,61.0,118.5" stroke="black" stroke-width="2" fill="none" />
<polyline points="76.5,114.0,60.5,127.5,44.5,133.5" stroke="black" stroke-width="2" fill="none" />
<polyline points="41.0,134.5,39.0,150.5,39.0,166.5,39.0,182.0,41.0,198.0,41.0,213.5,39.0,230.0,53.0,246.0,73.0,262.5,79.5,258.5,103.5,264.5,119.0,270.5,135.0,258.5,140.5,266.0,156.0,266.0,162.0,275.5" stroke="black" stroke-width="2" fill="none" />
<polyline points="190.5,271.5,206.5,273.5,226.5,275.5,238.5,273.0,254.5,277.0,280.5,277.0" stroke="black" stroke-width="2" fill="none" />
<polyline points="298.5,283.5,315.0,281.5" stroke="black" stroke-width="2" fill="none" />
<polyline points="327.0,282.0,329.0,264.0,345.5,264.5,361.5,254.5,382.0,247.0" stroke="black" stroke-width="2" fill="none" />
<polyline points="374.5,234.0,358.5,236.5,358.0,240.5,342.0,240.5,326.5,240.5,318.5,248.5,302.5,252.5" stroke="black" stroke-width="2" fill="none" />
<polyline points="295.5,258.0,297.5,274.0,297.5,292.5,297.5,308.5,296.0,327.0,298.0,343.0,308.0,337.5,322.0,343.5,338.0,345.0,362.0,355.0" stroke="black" stroke-width="2" fill="none" />
<polyline points="330.0,360.0,345.5,368.0,361.5,374.0,377.0,380.0,392.5,383.5,408.0,387.5,424.0,391.5,440.0,395.5,455.5,399.5,477.0,401.5,493.0,407.5,509.0,411.5" stroke="black" stroke-width="2" fill="none" />
<polyline points="476.5,311.5,460.5,309.5" stroke="black" stroke-width="2" fill="none" />
<polyline points="457.0,295.5,473.0,299.5,494.5,299.5,510.0,299.0" stroke="black" stroke-width="2" fill="none" />
<polyline points="507.0,295.0,483.0,293.5,467.0,292.0,451.0,288.0" stroke="black" stroke-width="2" fill="none" />
<polyline points="448.0,300.5,464.5,306.0" stroke="black" stroke-width="2" fill="none" />
<polyline points="456.5,263.0,454.0,279.5,454.0,303.5,452.0,320.0,452.5,330.0,468.5,330.5,468.5,337.0,482.0,337.0,501.5,331.0" stroke="black" stroke-width="2" fill="none" />
<polyline points="506.0,347.5,496.0,334.0,472.5,326.0,456.5,322.0,438.5,334.0,422.0,338.0" stroke="black" stroke-width="2" fill="none" />
<polyline points="424.0,335.0,420.0,351.0,420.0,367.5,431.5,373.5,447.5,376.0,463.0,362.0,479.0,366.0,501.5,366.5" stroke="black" stroke-width="2" fill="none" />
<polyline points="450.0,364.5,450.0,356.5,446.0,340.0,438.0,325.5,421.5,323.5" stroke="black" stroke-width="2" fill="none" />
<polyline points="418.0,323.5,416.0,339.5,416.0,355.5,410.0,371.5,402.0,364.0,408.0,374.0,433.5,370.0,451.5,355.5,467.5,357.5,483.0,362.0,503.0,362.0" stroke="black" stroke-width="2" fill="none" />
<polyline points="483.0,376.0,485.0,358.0,485.0,342.0,485.5,328.0,486.0,311.5,486.0,287.5,486.5,271.0,486.5,247.0,467.0,247.0,451.0,257.0,434.5,261.5,418.5,259.5" stroke="black" stroke-width="2" fill="none" />
<polyline points="442.0,264.5,448.0,280.0,447.5,296.5,447.5,314.5,450.0,334.5,452.5,350.5" stroke="black" stroke-width="2" fill="none" />
<polyline points="510.0,278.0,506.0,264.0,485.5,264.0,469.5,264.0,453.5,266.0,429.5,256.0,407.5,252.0,405.5,252.0,391.5,244.0,389.5,234.0,395.5,218.0,393.0,202.0,393.0,186.0,392.5,170.0,393.0,154.0,392.5,138.0,393.0,122.5,393.0,106.5,393.5,90.5,394.0,74.0,392.0,58.0,392.5,42.0,394.5,25.5,400.5,9.5,417.0,7.5,401.0,17.5" stroke="black" stroke-width="2" fill="none" />
<polyline points="410.5,5.0,394.5,15.0,375.0,21.0,367.0,19.0,351.0,28.5,335.0,34.0,319.5,39.5,303.5,45.0,289.5,36.5,273.5,42.0,257.5,52.5,241.5,61.0,226.0,67.5,210.0,74.0,194.0,82.5,178.0,88.5,158.5,96.0,170.5,88.0,182.5,84.5,203.0,68.5" stroke="black" stroke-width="2" fill="none" />
<polyline points="191.5,82.5,191.5,98.5,189.5,114.5,189.5,130.5,187.5,146.0,190.0,162.0,189.5,178.0,191.5,194.0,191.5,210.0,189.5,232.0,185.5,248.0" stroke="black" stroke-width="2" fill="none" />
<polyline points="207.0,226.5,222.5,224.5,238.5,224.0,255.0,223.5,277.5,219.5,294.0,219.5,310.0,217.5,328.0,215.5,344.0,215.5,360.0,213.5,376.5,213.5,404.5,205.5,421.0,203.0,437.0,201.0,452.5,201.0,468.5,199.0,484.0,199.5,500.0,197.5" stroke="black" stroke-width="2" fill="none" />
<polyline points="502.0,137.0,486.0,127.5" stroke="black" stroke-width="2" fill="none" />
<polyline points="480.5,123.0,496.5,129.0" stroke="black" stroke-width="2" fill="none" />
<polyline points="479.5,66.5,496.0,60.5" stroke="black" stroke-width="2" fill="none" />
<polyline points="490.0,34.0,475.5,50.0,470.0,66.5,458.0,70.5,460.5,86.0,476.5,101.5,479.0,118.0,469.0,134.0" stroke="black" stroke-width="2" fill="none" />
<polyline points="473.0,94.5,460.5,76.5,444.5,76.5" stroke="black" stroke-width="2" fill="none" />
<polyline points="442.5,70.5,458.0,68.5" stroke="black" stroke-width="2" fill="none" />
<polyline points="459.0,53.5,443.0,47.5,427.0,67.5" stroke="black" stroke-width="2" fill="none" />
<polyline points="420.0,69.5,436.0,45.5,452.0,43.5,468.0,49.5,484.0,31.5,500.0,30.0" stroke="black" stroke-width="2" fill="none" />
<polyline points="487.0,30.5,473.0,46.5,479.0,46.0,495.0,34.0,510.5,42.0" stroke="black" stroke-width="2" fill="none" />
<polyline points="448.0,48.0,464.0,64.0,442.0,74.0,456.0,90.5,472.0,106.5,470.0,122.5,455.5,138.5" stroke="black" stroke-width="2" fill="none" />
<polyline points="424.5,134.0,441.0,146.0,457.0,144.0,473.0,128.0,505.0,132.5" stroke="black" stroke-width="2" fill="none" />
<polyline points="444.5,97.0,428.5,85.0" stroke="black" stroke-width="2" fill="none" />
<polyline points="420.0,77.5,436.5,87.5,453.0,99.5,469.5,101.5" stroke="black" stroke-width="2" fill="none" />
<polyline points="495.0,132.0,471.0,120.0,455.0,140.0,439.0,138.5,423.0,124.5" stroke="black" stroke-width="2" fill="none" />
<polyline points="422.0,97.5,438.0,101.5" stroke="black" stroke-width="2" fill="none" />
<polyline points="421.5,97.5,421.5,113.5,424.0,135.5" stroke="black" stroke-width="2" fill="none" />
<polyline points="385.5,143.5,370.0,124.0" stroke="black" stroke-width="2" fill="none" />
<polyline points="366.0,129.5,382.0,149.0" stroke="black" stroke-width="2" fill="none" />
<polyline points="381.0,140.0,368.5,124.5,374.0,109.0,375.5,93.0,371.5,87.5,355.5,81.5" stroke="black" stroke-width="2" fill="none" />
<polyline points="363.0,82.0,373.0,97.5,363.5,113.5,366.0,129.5,378.5,145.5" stroke="black" stroke-width="2" fill="none" />
<polyline points="368.0,154.0,352.5,138.5" stroke="black" stroke-width="2" fill="none" />
<polyline points="361.5,140.0,345.5,130.5" stroke="black" stroke-width="2" fill="none" />
<polyline points="345.5,122.5,357.0,118.5,355.0,134.5,371.0,150.5" stroke="black" stroke-width="2" fill="none" />
<polyline points="360.5,147.5,346.5,132.0,344.5,116.0,348.0,104.5,340.0,94.5,316.0,105.0,300.0,117.0,308.0,113.5,322.5,127.0,306.5,133.0" stroke="black" stroke-width="2" fill="none" />
<polyline points="279.0,131.5,263.5,139.0" stroke="black" stroke-width="2" fill="none" />
<polyline points="265.5,133.5,249.0,133.5" stroke="black" stroke-width="2" fill="none" />
<polyline points="234.5,129.5,258.5,117.5,243.0,123.5,237.5,139.5,233.5,163.5" stroke="black" stroke-width="2" fill="none" />
<polyline points="276.0,165.0,274.5,169.0,282.5,153.5,274.5,159.5,274.5,161.5,275.0,145.5,280.5,130.0,286.5,114.0,276.0,108.0,260.0,104.0" stroke="black" stroke-width="2" fill="none" />
<polyline points="264.5,95.0,256.5,111.5,248.0,127.5,254.0,137.5,246.0,154.0,242.0,170.0,239.5,164.0,251.5,143.5,257.5,115.5,261.0,97.5,277.0,101.5,301.0,101.5" stroke="black" stroke-width="2" fill="none" />
<polyline points="311.5,91.0,297.5,107.0,299.5,117.5,299.5,133.5,299.5,150.0" stroke="black" stroke-width="2" fill="none" />
<polyline points="258.5,157.0,253.0,153.5,253.0,167.5,261.0,153.5,259.0,165.5,265.0,149.5,275.0,129.0,281.0,112.5,268.5,96.5" stroke="black" stroke-width="2" fill="none" />
<polyline points="306.5,87.5,292.5,103.5,293.5,103.5,310.0,87.5" stroke="black" stroke-width="2" fill="none" />
<polyline points="341.5,85.5,325.5,101.5,320.0,117.5,306.0,138.0,291.5,156.0,297.5,156.0" stroke="black" stroke-width="2" fill="none" />
<polyline points="325.0,216.5,321.0,232.0,327.0,234.0,327.0,247.5,322.5,261.5,322.0,277.5,322.0,293.5,325.5,295.5,327.5,311.5,321.5,328.0,325.5,332.0,321.5,347.5,335.5,363.5,371.5,379.5" stroke="black" stroke-width="2" fill="none" />
<polyline points="358.5,340.5,344.5,342.5,328.5,335.0" stroke="black" stroke-width="2" fill="none" />
<polyline points="325.5,342.0,335.5,358.0,370.0,374.0" stroke="black" stroke-width="2" fill="none" />
<polyline points="324.5,356.0,340.5,360.0,356.5,368.0,372.0,374.0,388.0,378.5,404.0,382.5,420.0,386.5,436.0,390.5,452.0,394.5,468.0,398.5,483.5,400.5,500.0,404.5" stroke="black" stroke-width="2" fill="none" />
<polyline points="497.5,413.0,481.5,409.0,465.0,405.5,449.0,403.5,432.5,399.5,416.5,395.5,400.5,392.0,384.0,388.0,368.0,386.5,352.0,381.0,335.5,379.0,320.0,373.0,304.5,370.5,288.5,366.0,272.0,361.5,256.0,355.5,240.5,353.0,225.0,347.5,209.0,337.5,192.5,329.5,176.5,321.5" stroke="black" stroke-width="2" fill="none" />
<polyline points="196.0,320.0,200.0,316.0,216.5,324.0,236.5,324.0,252.5,326.0,278.5,328.5,300.5,332.0,316.5,330.0,336.0,317.5,356.0,323.5,372.0,331.5" stroke="black" stroke-width="2" fill="none" />
<polyline points="371.5,305.5,355.0,303.5" stroke="black" stroke-width="2" fill="none" />
<polyline points="355.5,295.0,372.0,301.0" stroke="black" stroke-width="2" fill="none" />
<polyline points="370.0,284.0,354.0,284.0,334.0,278.0,341.5,289.5,325.5,289.5,325.5,269.5,328.0,259.0" stroke="black" stroke-width="2" fill="none" />
<polyline points="328.0,253.0,346.0,245.0,343.5,260.5" stroke="black" stroke-width="2" fill="none" />
<polyline points="371.0,234.0,371.0,241.5,351.0,257.0,341.0,279.0,351.0,289.0,340.5,301.0,359.0,325.0,377.0,325.0,379.0,341.5,367.0,347.5" stroke="black" stroke-width="2" fill="none" />
<polyline points="360.5,354.0,350.5,338.5,346.5,322.5" stroke="black" stroke-width="2" fill="none" />
<polyline points="286.5,336.0,270.5,332.0" stroke="black" stroke-width="2" fill="none" />
<polyline points="270.5,305.0,286.0,309.0,304.0,309.5,320.0,311.5,346.0,307.5,362.0,315.5" stroke="black" stroke-width="2" fill="none" />
<polyline points="463.0,257.5,479.0,257.5,505.0,258.0" stroke="black" stroke-width="2" fill="none" />
<polyline points="506.0,274.0,499.5,276.0" stroke="black" stroke-width="2" fill="none" />
<polyline points="292.5,340.5,292.5,320.5,292.5,300.5,294.0,284.5,292.5,268.5,298.5,252.0,304.5,243.5,286.5,233.0,270.0,228.5" stroke="black" stroke-width="2" fill="none" />
<polyline points="251.5,258.0,235.5,262.0" stroke="black" stroke-width="2" fill="none" />
<polyline points="237.5,272.0,233.5,288.5,233.5,305.0,233.5,321.5,235.0,338.0,265.0,336.5,275.0,349.0" stroke="black" stroke-width="2" fill="none" />
<polyline points="283.0,352.0,267.0,336.0,253.0,326.0,239.0,310.0,241.0,298.0,241.0,282.0,241.0,280.0" stroke="black" stroke-width="2" fill="none" />
<polyline points="212.5,295.5,228.5,300.0,234.0,304.0,249.5,299.5,273.5,301.5,290.0,303.5,314.0,305.5,332.0,311.5,338.0,297.5,356.0,289.5,372.0,291.5" stroke="black" stroke-width="2" fill="none" />
<polyline points="284.5,358.0,268.0,348.0,252.0,343.5,236.0,335.5" stroke="black" stroke-width="2" fill="none" />
<polyline points="246.5,335.0,228.5,321.5,212.5,315.0" stroke="black" stroke-width="2" fill="none" />
<polyline points="202.5,333.5,182.5,329.5,156.5,327.5" stroke="black" stroke-width="2" fill="none" />
<polyline points="145.5,333.0,161.5,339.0,178.0,343.0,194.0,345.5,210.5,350.0,227.0,354.0,243.0,360.0,259.0,362.0,275.5,368.0,291.5,372.0,307.5,376.5,323.0,378.5,339.0,384.5,355.0,386.5,370.5,392.0,386.0,394.0,402.0,398.0,417.5,402.0,433.5,406.0,450.0,408.0,466.0,412.0,482.0,416.0,497.5,420.0" stroke="black" stroke-width="2" fill="none" />
<polyline points="240.0,241.0,224.0,243.0" stroke="black" stroke-width="2" fill="none" />
<polyline points="206.5,175.5,200.0,172.0,198.0,156.5,198.0,140.5,204.0,124.5,218.0,108.5,206.0,130.0" stroke="black" stroke-width="2" fill="none" />
<polyline points="198.0,137.0,214.0,112.5,230.5,116.0,212.5,122.0,205.0,137.5,203.0,153.5,205.5,169.5" stroke="black" stroke-width="2" fill="none" />
<polyline points="167.5,172.5,167.5,156.5,167.5,140.5,165.5,124.5,165.5,121.0" stroke="black" stroke-width="2" fill="none" />
<polyline points="170.0,120.5,172.0,137.0,169.5,153.0,169.5,168.5,169.5,184.5" stroke="black" stroke-width="2" fill="none" />
<polyline points="175.5,228.0,159.5,228.0,143.5,229.5,128.0,229.5" stroke="black" stroke-width="2" fill="none" />
<polyline points="129.5,247.5,145.5,247.5,161.5,245.5,163.5,253.5,180.0,255.5,196.0,253.5,214.5,237.5,231.0,238.0,247.5,238.0,263.5,236.0,266.0,256.0,279.5,246.0,287.5,256.0,287.0,250.0,310.5,239.5,326.0,231.5,342.0,233.5,358.0,227.5,373.5,227.5,389.0,227.5" stroke="black" stroke-width="2" fill="none" />
<polyline points="502.5,205.0,486.5,205.0,471.0,207.0,455.0,206.5,439.0,208.0,423.0,207.5,407.0,209.5,381.0,207.5,365.0,209.5,349.0,209.5,332.5,211.5,316.5,211.0,300.0,213.5,284.0,216.0,268.5,216.0,253.0,217.5,237.0,217.5,221.5,219.5,205.0,219.5,183.0,222.0,167.0,222.5,150.5,225.0,134.5,225.0,118.0,227.5,101.5,227.0,95.0,239.0,81.0,225.0,64.5,230.5,60.0,235.0" stroke="black" stroke-width="2" fill="none" />
<polyline points="73.0,248.5,76.5,236.5,82.5,226.0,84.5,210.5,84.5,194.0,84.0,178.0,86.0,162.0,88.0,168.0" stroke="black" stroke-width="2" fill="none" />
<polyline points="107.5,174.5,91.5,192.5" stroke="black" stroke-width="2" fill="none" />
<polyline points="63.5,178.0,79.5,172.0,75.5,188.0,55.5,190.0,47.5,191.5,46.0,207.0,44.0,223.5,50.5,239.5,48.5,241.5,64.5,246.0" stroke="black" stroke-width="2" fill="none" />
<polyline points="94.0,232.0,110.0,232.0,122.5,235.5,122.5,252.0,129.0,256.0,139.0,264.0,131.0,274.5,146.5,280.5,146.0,294.0,150.0,310.0,152.5,326.0,168.5,342.0" stroke="black" stroke-width="2" fill="none" />
<polyline points="119.5,333.0,104.0,341.5,110.0,335.5,124.0,319.5,117.5,299.5,81.5,283.5,109.5,273.5,103.5,281.5" stroke="black" stroke-width="2" fill="none" />
<polyline points="83.5,285.0,99.5,290.5,115.5,299.0,123.5,307.0,136.0,297.0,150.0,291.0" stroke="black" stroke-width="2" fill="none" />
<polyline points="115.5,319.0,100.0,337.5,100.0,338.0,113.5,322.0,125.5,300.0,128.0,284.5,122.0,274.5,114.0,248.0,98.0,247.5" stroke="black" stroke-width="2" fill="none" />
<polyline points="82.0,280.0,98.0,280.0,114.0,274.0,130.0,284.0,136.0,270.0,147.5,282.0,150.0,298.0" stroke="black" stroke-width="2" fill="none" />
<polyline points="75.5,340.5,59.5,322.5,43.5,318.5" stroke="black" stroke-width="2" fill="none" />
<polyline points="40.0,322.5,56.0,313.0,63.5,339.0,59.5,355.0" stroke="black" stroke-width="2" fill="none" />
<polyline points="84.0,367.0,78.0,347.0,66.5,331.0,54.0,329.0,38.0,335.0" stroke="black" stroke-width="2" fill="none" />
<polyline points="33.0,341.5,37.5,318.0,32.0,315.5,24.0,331.0,26.5,347.0,36.5,351.0,42.5,357.0,41.0,351.5,57.0,361.5,60.5,343.0,86.5,359.0,102.5,359.5,124.5,343.0,140.0,336.5,156.0,321.0,160.0,333.0,175.5,337.0,191.0,339.0,206.5,345.0" stroke="black" stroke-width="2" fill="none" />
<polyline points="73.0,319.5,57.0,305.5,41.0,307.5,25.0,332.0" stroke="black" stroke-width="2" fill="none" />
<polyline points="45.5,312.0,41.5,320.0,39.0,336.5,49.0,342.5,49.5,358.5,57.5,360.5" stroke="black" stroke-width="2" fill="none" />
<polyline points="99.0,364.0,83.0,368.0,67.0,374.5,50.5,374.5,34.5,373.0,18.0,361.0,2.0,359.0" stroke="black" stroke-width="2" fill="none" />
<polyline points="2.5,355.0,18.5,355.0,28.5,369.0" stroke="black" stroke-width="2" fill="none" />
<polyline points="64.5,359.5,61.0,349.5,79.0,339.5,73.0,323.5,65.0,322.0,51.5,306.0" stroke="black" stroke-width="2" fill="none" />
<polyline points="36.5,248.0,20.5,236.5" stroke="black" stroke-width="2" fill="none" />
<polyline points="27.0,234.0,37.0,250.0" stroke="black" stroke-width="2" fill="none" />
<polyline points="35.0,256.5,19.0,242.5,3.5,232.5" stroke="black" stroke-width="2" fill="none" />
<polyline points="5.5,232.0,7.5,248.0,5.5,264.0,17.0,270.0,2.5,275.5,18.0,278.0" stroke="black" stroke-width="2" fill="none" />
<polyline points="19.0,264.5,3.0,244.5" stroke="black" stroke-width="2" fill="none" />
<polyline points="3.0,237.0,19.0,251.0,35.0,267.0,50.5,266.5" stroke="black" stroke-width="2" fill="none" />
<polyline points="57.5,263.5,53.5,255.5,37.5,241.0,21.5,231.5,11.5,208.0,10.0,192.0,14.0,176.5,2.0,170.0" stroke="black" stroke-width="2" fill="none" />
<polyline points="2.5,176.0,6.5,190.0,4.5,205.5" stroke="black" stroke-width="2" fill="none" />
<polyline points="15.5,201.5,19.5,201.5,15.5,186.0" stroke="black" stroke-width="2" fill="none" />
<polyline points="18.5,187.0,32.5,200.5" stroke="black" stroke-width="2" fill="none" />
<polyline points="16.0,175.5,20.0,167.5,44.0,171.0" stroke="black" stroke-width="2" fill="none" />
<polyline points="59.0,167.5,53.0,183.5,52.5,200.0,52.5,224.0,58.5,250.0,74.5,262.0,90.0,262.0,106.0,260.5" stroke="black" stroke-width="2" fill="none" />
<polyline points="48.0,251.5,30.0,235.5" stroke="black" stroke-width="2" fill="none" />
<polyline points="29.0,251.5,13.0,235.5" stroke="black" stroke-width="2" fill="none" />
<polyline points="11.5,243.5,25.5,259.5" stroke="black" stroke-width="2" fill="none" />
<polyline points="19.5,267.0,9.5,251.0" stroke="black" stroke-width="2" fill="none" />
<polyline points="68.5,254.0,58.5,237.5,59.0,221.5,59.5,206.0,64.0,190.0,62.0,174.0" stroke="black" stroke-width="2" fill="none" />
<polyline points="70.5,190.5,69.0,204.5,73.0,204.5,81.0,188.5,89.0,184.0,89.0,167.5,105.0,161.5,101.0,146.0" stroke="black" stroke-width="2" fill="none" />
<polyline points="112.0,136.5,114.0,152.5,112.0,168.0,104.0,184.0,96.0,199.5,100.5,193.0" stroke="black" stroke-width="2" fill="none" />
<polyline points="133.0,179.5,145.0,168.0,141.0,190.0,127.0,178.5,135.0,162.5,127.0,146.5,127.0,130.5,111.0,134.5,95.0,142.5,83.0,165.0,67.0,165.0,67.5,159.0,50.0,161.0,54.0,179.0,34.5,189.0,30.5,209.0,14.5,214.5,24.5,196.5,30.5,197.0,30.5,183.0,46.0,171.0,52.0,163.0,43.5,148.5,45.5,132.5,83.0,116.0,115.0,100.0,141.0,96.0,151.0,84.0,179.0,68.0,205.0,68.0,189.0,74.0,173.5,82.0,157.5,88.0,142.0,96.0,126.5,106.0,110.5,111.5" stroke="black" stroke-width="2" fill="none" />
<polyline points="118.5,112.5,117.0,128.5,125.0,128.5,121.0,144.5,121.5,160.0,117.5,175.5,111.5,179.0,107.5,187.0,115.5,189.0,127.5,186.5,128.0,162.5,138.0,162.5,148.5,156.5" stroke="black" stroke-width="2" fill="none" />
<polyline points="133.0,172.0,122.5,180.0,127.0,163.5" stroke="black" stroke-width="2" fill="none" />
<polyline points="109.0,132.5,109.0,148.5,108.5,164.5,94.5,174.5,98.5,174.5,96.5,190.5,88.5,212.0,88.0,228.0,88.0,232.0,84.0,248.0,90.5,250.0,94.5,244.0,104.5,243.5,126.0,247.0,142.0,241.0,157.5,241.0,173.5,240.5" stroke="black" stroke-width="2" fill="none" />
<polyline points="152.0,38.5,168.0,34.5,184.0,24.0,158.0,24.0,144.0,33.5,160.5,21.0,176.5,13.5,192.5,15.5,208.0,20.0,170.0,38.0,171.5,38.5,187.5,28.0,203.5,24.0" stroke="black" stroke-width="2" fill="none" />
<polyline points="189.0,21.0,162.5,37.0,165.0,27.0,180.5,19.0" stroke="black" stroke-width="2" fill="none" />
<polyline points="178.5,19.0,152.5,34.5,152.5,42.5,168.5,48.5,184.5,38.5" stroke="black" stroke-width="2" fill="none" />
<polyline points="229.5,50.5,253.5,42.5" stroke="black" stroke-width="2" fill="none" />
<polyline points="278.0,33.5,324.0,17.5,354.0,1.0" stroke="black" stroke-width="2" fill="none" />
<polyline points="338.5,11.5,323.0,17.5,307.5,23.0,291.5,26.5,276.0,35.0,260.0,41.0,244.0,49.0,227.5,51.0,212.0,57.5,196.0,62.0,179.5,68.0,163.5,74.0,148.0,86.5,132.0,90.5,116.0,94.0,100.0,101.5,92.0,85.5,76.0,93.5,60.0,99.5,43.5,107.5,25.5,105.5,10.0,113.5,18.5,115.0,34.5,95.0,19.0,92.5,3.0,88.5" stroke="black" stroke-width="2" fill="none" />
<polyline points="1.5,94.0,9.5,86.0,25.5,90.0,42.0,93.5" stroke="black" stroke-width="2" fill="none" />
<polyline points="34.5,72.5,18.5,80.5,46.5,70.5" stroke="black" stroke-width="2" fill="none" />
<polyline points="44.5,59.5,30.0,75.5,10.0,81.5,12.0,69.0,28.0,71.0,38.5,76.5,54.5,66.5,70.0,66.5,74.0,44.5,78.0,22.5,94.0,14.5" stroke="black" stroke-width="2" fill="none" />
<polyline points="80.0,14.5,54.0,36.5,38.0,48.5" stroke="black" stroke-width="2" fill="none" />
<polyline points="30.5,44.5,11.0,60.5,11.0,54.5,27.0,42.0,43.0,38.0,59.0,25.5,77.0,25.5,93.0,31.0,99.5,15.0" stroke="black" stroke-width="2" fill="none" />
<polyline points="105.0,1.5,87.0,17.5,75.5,19.5,51.5,37.5" stroke="black" stroke-width="2" fill="none" />
<polyline points="77.5,11.0,61.5,18.5,45.5,14.5,29.5,12.0,17.5,9.0,1.5,9.0" stroke="black" stroke-width="2" fill="none" />
<polyline points="1.0,5.5,17.0,3.5,31.0,16.0,47.5,20.5" stroke="black" stroke-width="2" fill="none" />
<polyline points="113.5,1.0,97.5,17.0,101.5,33.0,75.5,41.5,66.0,58.0,76.0,64.5,66.0,78.5,70.0,76.5,80.0,70.5,96.5,68.5,111.0,82.5,127.0,78.5,142.5,70.5,158.5,64.5,174.5,58.5,190.5,52.5,206.5,46.0,222.0,38.0,238.0,32.0,254.0,26.0,270.5,20.0,286.5,12.0" stroke="black" stroke-width="2" fill="none" />
<polyline points="287.0,2.0,257.5,18.0,213.0,33.5,177.5,49.5,137.5,65.5,96.0,77.5,62.0,93.5,44.5,108.0,4.5,116.0,11.0,98.5,37.0,108.5,53.0,100.5,69.0,92.5,85.0,84.0,101.0,78.0,117.0,75.5,133.0,70.0,149.0,62.0,165.0,56.5,181.5,48.5,197.5,42.5,213.0,36.5,229.0,32.5,244.5,24.0,260.0,18.0,276.0,9.5" stroke="black" stroke-width="2" fill="none" />
<polyline points="300.0,1.5,272.0,17.5,233.5,33.5,191.5,49.5,151.5,65.5,116.0,94.0,92.0,105.5,60.0,109.5,26.0,124.0,4.0,140.0,16.0,132.5,32.0,122.5,48.0,118.0,64.0,108.0,80.0,117.5,96.5,109.0,112.5,101.5,128.5,96.0" stroke="black" stroke-width="2" fill="none" />
<polyline points="18.0,114.5,2.0,120.5" stroke="black" stroke-width="2" fill="none" />
<polyline points="346.0,95.5,356.5,97.5,334.5,99.5,326.5,116.0,308.5,126.0,324.5,108.0,340.5,88.0,356.5,96.0" stroke="black" stroke-width="2" fill="none" />
<polyline points="443.0,94.5,427.0,78.5,429.5,62.5,443.5,46.5" stroke="black" stroke-width="2" fill="none" />
<polyline points="439.0,42.5,425.0,58.5,419.0,74.0,429.0,89.5,439.0,105.5,431.0,105.0,439.5,109.0" stroke="black" stroke-width="2" fill="none" />
<polyline points="421.5,3.5,399.5,19.5,397.5,35.5,397.5,51.0,397.5,67.0,397.5,82.5,400.0,98.5,400.5,114.0,401.0,130.0,401.5,146.0,400.0,162.0,402.0,178.0,399.5,194.0,403.0,209.5,400.5,225.5,398.5,246.0,402.0,237.5,426.0,235.5,442.0,235.0,458.0,237.5,474.0,237.5,496.0,237.5" stroke="black" stroke-width="2" fill="none" />
<polyline points="390.0,2.5,377.5,18.0,349.5,27.5,363.5,13.5" stroke="black" stroke-width="2" fill="none" />
<polyline points="384.0,1.5,372.0,5.5,352.0,22.0,318.0,36.0,300.0,41.5,264.5,57.5,280.0,51.5,296.0,43.5,312.0,31.5,328.5,25.5,345.0,17.5,360.5,8.0,381.0,2.0,367.0,2.0,345.0,18.0,311.0,34.0,279.0,42.5,250.5,58.5,210.5,74.5,196.5,91.0,196.5,107.0,196.5,123.0,194.5,139.0,194.5,155.5,195.0,171.0,197.0,187.0,197.0,203.0,197.0,219.0,201.0,237.0,199.5,253.0,185.5,247.0,209.5,254.5,211.5,244.5,219.5,256.5,233.5,252.5,249.0,252.5,261.0,240.5,276.5,241.0,292.5,241.5,300.0,235.5,315.5,235.5,335.5,249.5,353.5,251.0,376.0,239.0,392.5,238.5,409.0,236.0,424.5,229.5,440.0,227.5,455.5,227.5,471.5,231.5,487.0,233.0,503.5,231.5,494.0,245.5,494.0,263.5,492.5,279.5,494.5,299.5,493.0,315.5,494.5,335.5,492.5,351.5,490.5,370.0" stroke="black" stroke-width="2" fill="none" />
</svg>