<?xml version="1.0" encoding="UTF-8"?>
<svg xmlns="http://www.w3.org/2000/svg" xmlns:xlink="http://www.w3.org/1999/xlink" width="1935.11811" height="1935.11811" viewBox="0 0 1935.11811 1935.11811" version="1.1">
<g id="surface1">
<path style="fill:none;stroke-width:2;stroke-linecap:butt;stroke-linejoin:miter;stroke:rgb(0%,0%,0%);stroke-opacity:1;stroke-miterlimit:4;" d="M 107.500415 70.50009 L 145.500163 84.500269 " transform="matrix(3.779528,0,0,3.779528,0,0)"/>
<path style="fill:none;stroke-width:2;stroke-linecap:butt;stroke-linejoin:miter;stroke:rgb(0%,0%,0%);stroke-opacity:1;stroke-miterlimit:4;" d="M 123.000244 95.500114 L 107.000187 95.500114 L 91.500358 96.000342 L 75.999495 98.00022 " transform="matrix(3.779528,0,0,3.779528,0,0)"/>
<path style="fill:none;stroke-width:2;stroke-linecap:butt;stroke-linejoin:miter;stroke:rgb(0%,0%,0%);stroke-opacity:1;stroke-miterlimit:4;" d="M 73.999618 97.499992 L 96.000342 105.499504 L 78.000407 125.999544 " transform="matrix(3.779528,0,0,3.779528,0,0)"/>
<path style="fill:none;stroke-width:2;stroke-linecap:butt;stroke-linejoin:miter;stroke:rgb(0%,0%,0%);stroke-opacity:1;stroke-miterlimit:4;" d="M 57.500366 125.50035 L 41.500309 119.499683 L 25.500252 113.500049 " transform="matrix(3.779528,0,0,3.779528,0,0)"/>
<path style="fill:none;stroke-width:2;stroke-linecap:butt;stroke-linejoin:miter;stroke:rgb(0%,0%,0%);stroke-opacity:1;stroke-miterlimit:4;" d="M 23.999569 109.500293 L 39.999626 113.500049 L 55.999683 119.000488 L 71.99974 119.000488 L 87.999797 112.999821 L 103.999854 107.000187 L 119.99991 100.99952 L 135.999967 98.999642 L 151.499797 95.500114 L 157.500464 97.499992 L 114.999699 113.500049 " transform="matrix(3.779528,0,0,3.779528,0,0)"/>
<path style="fill:none;stroke-width:2;stroke-linecap:butt;stroke-linejoin:miter;stroke:rgb(0%,0%,0%);stroke-opacity:1;stroke-miterlimit:4;" d="M 121.000366 144.499707 L 105.499504 148.000269 L 89.50048 150.000146 " transform="matrix(3.779528,0,0,3.779528,0,0)"/>
<path style="fill:none;stroke-width:2;stroke-linecap:butt;stroke-linejoin:miter;stroke:rgb(0%,0%,0%);stroke-opacity:1;stroke-miterlimit:4;" d="M 89.50048 150.500374 L 89.50048 166.500431 L 91.500358 182.500488 L 93.500236 198.499512 L 93.500236 230.000431 L 96.000342 246.000488 L 96.000342 261.999512 L 96.499536 277.999569 L 98.500448 293.999626 L 107.000187 309.500488 L 123.000244 319.499878 L 139.000301 329.500301 L 154.50013 339.499691 L 169.999959 348.999886 L 186.000016 357.000431 L 202.000073 366.999821 L 218.00013 379.50035 L 234.000187 388.00009 L 250.000244 398.499707 L 273.999813 400.499585 L 289.99987 409.99978 L 305.999927 417.500098 L 321.999984 425.499609 L 337.499813 435.500033 L 353.49987 443.499544 L 369.499927 452.99974 L 386.000212 463.000163 L 402.500496 473.49978 " transform="matrix(3.779528,0,0,3.779528,0,0)"/>
<path style="fill:none;stroke-width:2;stroke-linecap:butt;stroke-linejoin:miter;stroke:rgb(0%,0%,0%);stroke-opacity:1;stroke-miterlimit:4;" d="M 420.999626 474.500236 L 436.999683 458.500179 L 456.999495 443.00035 L 475.000464 427.000293 L 493.000399 411.000236 L 506.999544 400.999813 L 490.999487 412.499886 L 475.000464 426.500065 L 459.000407 440.000016 L 443.00035 454.000195 L 426.500065 467.500146 L 410.500008 469.500024 L 410.500008 452.99974 L 408.50013 436.999683 L 406.000024 420.999626 L 404.500374 404.999569 L 404.500374 357.499626 L 404.999569 341.499569 L 404.500374 325.99974 L 404.500374 309.999683 L 404.000146 293.999626 L 404.000146 277.999569 L 406.500252 261.999512 L 408.50013 241.500505 L 368.500505 225.500448 L 379.999544 209.500391 L 404.000146 193.000106 L 425.499609 171.499609 L 409.499552 169.999959 L 393.499495 168.000081 L 377.500472 166.000203 L 361.500415 171.999837 " transform="matrix(3.779528,0,0,3.779528,0,0)"/>
<path style="fill:none;stroke-width:2;stroke-linecap:butt;stroke-linejoin:miter;stroke:rgb(0%,0%,0%);stroke-opacity:1;stroke-miterlimit:4;" d="M 366.000399 171.999837 L 382.000456 180.000382 L 398.000513 184.000138 L 413.999536 180.000382 L 429.999593 173.999715 L 429.500399 168.000081 " transform="matrix(3.779528,0,0,3.779528,0,0)"/>
<path style="fill:none;stroke-width:2;stroke-linecap:butt;stroke-linejoin:miter;stroke:rgb(0%,0%,0%);stroke-opacity:1;stroke-miterlimit:4;" d="M 440.000016 162.000448 L 423.999959 162.000448 L 407.999902 153.999902 " transform="matrix(3.779528,0,0,3.779528,0,0)"/>
<path style="fill:none;stroke-width:2;stroke-linecap:butt;stroke-linejoin:miter;stroke:rgb(0%,0%,0%);stroke-opacity:1;stroke-miterlimit:4;" d="M 405.499797 150.999569 L 421.499854 150.500374 L 437.49991 155.000358 L 453.499967 157.000236 " transform="matrix(3.779528,0,0,3.779528,0,0)"/>
<path style="fill:none;stroke-width:2;stroke-linecap:butt;stroke-linejoin:miter;stroke:rgb(0%,0%,0%);stroke-opacity:1;stroke-miterlimit:4;" d="M 472.00013 169.499731 L 504.000244 178.499699 " transform="matrix(3.779528,0,0,3.779528,0,0)"/>
<path style="fill:none;stroke-width:2;stroke-linecap:butt;stroke-linejoin:miter;stroke:rgb(0%,0%,0%);stroke-opacity:1;stroke-miterlimit:4;" d="M 500.499683 160.999992 L 484.499626 159.000114 L 468.000374 155.000358 L 452.000317 150.500374 L 436.00026 148.500496 L 420.000203 144.499707 L 403.499919 139.999723 L 387.499862 141.999601 L 371.499805 150.000146 L 363.500293 145.500163 L 348.000464 163.500098 L 331.500179 173.499487 L 315.500122 181.500033 L 299.500065 187.499666 L 283.500008 195.500212 L 267.499951 202.999495 L 261.500317 195.500212 L 245.50026 198.000317 L 230.000431 187.999894 L 214.000374 182.500488 L 198.000317 189.999772 " transform="matrix(3.779528,0,0,3.779528,0,0)"/>
<path style="fill:none;stroke-width:2;stroke-linecap:butt;stroke-linejoin:miter;stroke:rgb(0%,0%,0%);stroke-opacity:1;stroke-miterlimit:4;" d="M 205.999829 180.000382 L 198.000317 196.000439 L 193.999528 212.000496 L 187.999894 226.49987 L 189.999772 242.499927 L 189.999772 258.499984 L 183.49991 268.500407 " transform="matrix(3.779528,0,0,3.779528,0,0)"/>
<path style="fill:none;stroke-width:2;stroke-linecap:butt;stroke-linejoin:miter;stroke:rgb(0%,0%,0%);stroke-opacity:1;stroke-miterlimit:4;" d="M 189.999772 270.000057 L 173.999715 257.999756 L 157.500464 248.000366 L 141.500407 236.000065 " transform="matrix(3.779528,0,0,3.779528,0,0)"/>
<path style="fill:none;stroke-width:2;stroke-linecap:butt;stroke-linejoin:miter;stroke:rgb(0%,0%,0%);stroke-opacity:1;stroke-miterlimit:4;" d="M 141.500407 234.999609 L 161.50022 250.999666 L 173.499487 265.500073 " transform="matrix(3.779528,0,0,3.779528,0,0)"/>
<path style="fill:none;stroke-width:2;stroke-linecap:butt;stroke-linejoin:miter;stroke:rgb(0%,0%,0%);stroke-opacity:1;stroke-miterlimit:4;" d="M 149.499919 265.500073 L 163.500098 281.50013 L 180.000382 297.500187 " transform="matrix(3.779528,0,0,3.779528,0,0)"/>
<path style="fill:none;stroke-width:2;stroke-linecap:butt;stroke-linejoin:miter;stroke:rgb(0%,0%,0%);stroke-opacity:1;stroke-miterlimit:4;" d="M 153.999902 310.49991 L 169.999959 322.500212 L 186.500244 332.499601 L 202.500301 341.000374 " transform="matrix(3.779528,0,0,3.779528,0,0)"/>
<path style="fill:none;stroke-width:2;stroke-linecap:butt;stroke-linejoin:miter;stroke:rgb(0%,0%,0%);stroke-opacity:1;stroke-miterlimit:4;" d="M 198.000317 333.500057 L 181.500033 325.99974 L 165.499976 314.000472 L 149.499919 307.999805 " transform="matrix(3.779528,0,0,3.779528,0,0)"/>
<path style="fill:none;stroke-width:2;stroke-linecap:butt;stroke-linejoin:miter;stroke:rgb(0%,0%,0%);stroke-opacity:1;stroke-miterlimit:4;" d="M 109.000065 312.499788 L 132.999634 328.499845 L 159.000114 344.499902 L 187.000472 359.999731 L 211.000041 375.999788 L 239.000399 391.499618 " transform="matrix(3.779528,0,0,3.779528,0,0)"/>
<path style="fill:none;stroke-width:2;stroke-linecap:butt;stroke-linejoin:miter;stroke:rgb(0%,0%,0%);stroke-opacity:1;stroke-miterlimit:4;" d="M 294.499854 372.50026 L 310.49991 382.000456 " transform="matrix(3.779528,0,0,3.779528,0,0)"/>
<path style="fill:none;stroke-width:2;stroke-linecap:butt;stroke-linejoin:miter;stroke:rgb(0%,0%,0%);stroke-opacity:1;stroke-miterlimit:4;" d="M 307.999805 392.500073 L 323.999862 402.500496 L 339.999919 408.50013 L 355.999976 416.000448 " transform="matrix(3.779528,0,0,3.779528,0,0)"/>
<path style="fill:none;stroke-width:2;stroke-linecap:butt;stroke-linejoin:miter;stroke:rgb(0%,0%,0%);stroke-opacity:1;stroke-miterlimit:4;" d="M 350.000342 391.499618 L 334.000285 381.500228 L 302.000171 362.499837 " transform="matrix(3.779528,0,0,3.779528,0,0)"/>
<path style="fill:none;stroke-width:2;stroke-linecap:butt;stroke-linejoin:miter;stroke:rgb(0%,0%,0%);stroke-opacity:1;stroke-miterlimit:4;" d="M 296.999959 345.999552 L 313.000016 339.499691 L 323.000439 351.499992 " transform="matrix(3.779528,0,0,3.779528,0,0)"/>
<path style="fill:none;stroke-width:2;stroke-linecap:butt;stroke-linejoin:miter;stroke:rgb(0%,0%,0%);stroke-opacity:1;stroke-miterlimit:4;" d="M 305.999927 344.499902 L 304.000049 360.499959 L 302.000171 375.999788 L 307.999805 384.000334 L 339.999919 387.499862 L 360.499959 402.999691 " transform="matrix(3.779528,0,0,3.779528,0,0)"/>
<path style="fill:none;stroke-width:2;stroke-linecap:butt;stroke-linejoin:miter;stroke:rgb(0%,0%,0%);stroke-opacity:1;stroke-miterlimit:4;" d="M 352.00022 364.999943 L 336.000163 357.499626 L 321.499756 343.999674 L 305.000505 343.50048 " transform="matrix(3.779528,0,0,3.779528,0,0)"/>
<path style="fill:none;stroke-width:2;stroke-linecap:butt;stroke-linejoin:miter;stroke:rgb(0%,0%,0%);stroke-opacity:1;stroke-miterlimit:4;" d="M 348.499658 337.499813 L 332.000407 325.000317 L 316.00035 313.000016 L 300.000293 303.499821 L 284.000236 299.500065 " transform="matrix(3.779528,0,0,3.779528,0,0)"/>
<path style="fill:none;stroke-width:2;stroke-linecap:butt;stroke-linejoin:miter;stroke:rgb(0%,0%,0%);stroke-opacity:1;stroke-miterlimit:4;" d="M 286.000114 296.499731 L 286.000114 313.000016 L 287.499764 329.000073 L 289.499642 344.499902 L 289.499642 360.499959 L 293.500431 375.999788 L 305.999927 391.999845 L 335.499935 406.000024 " transform="matrix(3.779528,0,0,3.779528,0,0)"/>
<path style="fill:none;stroke-width:2;stroke-linecap:butt;stroke-linejoin:miter;stroke:rgb(0%,0%,0%);stroke-opacity:1;stroke-miterlimit:4;" d="M 327.999618 429.999593 L 355.999976 445.99965 L 383.500106 461.999707 L 398.999935 477.499536 " transform="matrix(3.779528,0,0,3.779528,0,0)"/>
<path style="fill:none;stroke-width:2;stroke-linecap:butt;stroke-linejoin:miter;stroke:rgb(0%,0%,0%);stroke-opacity:1;stroke-miterlimit:4;" d="M 363.500293 465.000041 L 347.500236 456.999495 L 332.000407 448.999984 L 316.00035 436.500488 " transform="matrix(3.779528,0,0,3.779528,0,0)"/>
<path style="fill:none;stroke-width:2;stroke-linecap:butt;stroke-linejoin:miter;stroke:rgb(0%,0%,0%);stroke-opacity:1;stroke-miterlimit:4;" d="M 395.500407 484.000431 L 367.500049 468.000374 L 339.000496 452.000317 L 313.000016 436.00026 L 298.999837 420.000203 L 278.499797 404.000146 L 271.999935 387.499862 L 270.000057 370.999577 L 269.499829 354.99952 L 267.499951 339.000496 L 265.500073 323.000439 L 263.500195 307.499577 L 263.500195 291.49952 L 261.500317 275.500496 L 257.999756 259.500439 L 255.999878 243.999577 L 254.500228 227.99952 L 250.999666 206.500057 L 234.999609 196.499634 L 219.49978 186.500244 " transform="matrix(3.779528,0,0,3.779528,0,0)"/>
<path style="fill:none;stroke-width:2;stroke-linecap:butt;stroke-linejoin:miter;stroke:rgb(0%,0%,0%);stroke-opacity:1;stroke-miterlimit:4;" d="M 212.499691 183.49991 L 234.000187 199.499967 L 248.000366 215.500024 L 248.000366 230.999854 L 250.000244 246.99991 L 254.500228 262.49974 L 256.500106 278.499797 L 257.999756 294.499854 L 259.999634 310.49991 L 259.999634 326.499967 L 261.999512 342.500024 L 264.000423 357.999854 L 265.500073 374.500138 L 263.500195 390.500195 L 257.999756 404.500374 L 280.499674 412.499886 L 310.49991 422.500309 L 330.499723 438.000138 L 358.500081 454.000195 L 372.50026 469.500024 L 388.500317 477.499536 " transform="matrix(3.779528,0,0,3.779528,0,0)"/>
<path style="fill:none;stroke-width:2;stroke-linecap:butt;stroke-linejoin:miter;stroke:rgb(0%,0%,0%);stroke-opacity:1;stroke-miterlimit:4;" d="M 432.499699 470.000252 L 448.499756 454.000195 L 468.499569 438.000138 L 484.999854 421.499854 L 506.999544 405.499797 " transform="matrix(3.779528,0,0,3.779528,0,0)"/>
<path style="fill:none;stroke-width:2;stroke-linecap:butt;stroke-linejoin:miter;stroke:rgb(0%,0%,0%);stroke-opacity:1;stroke-miterlimit:4;" d="M 482.499748 398.499707 L 466.999919 404.500374 L 448.999984 416.000448 L 432.999927 432.000505 L 427.000293 443.999772 L 436.999683 427.999715 L 450.499634 411.999658 L 479.00022 397.500285 " transform="matrix(3.779528,0,0,3.779528,0,0)"/>
<path style="fill:none;stroke-width:2;stroke-linecap:butt;stroke-linejoin:miter;stroke:rgb(0%,0%,0%);stroke-opacity:1;stroke-miterlimit:4;" d="M 504.999666 355.999976 L 509.000456 345.999552 L 506.999544 338.000041 L 495.000277 339.999919 L 479.00022 359.999731 L 477.000342 366.000399 L 487.499959 350.000342 L 493.499593 334.000285 L 504.000244 318.000228 L 506.50035 302.000171 L 510.500106 303.499821 " transform="matrix(3.779528,0,0,3.779528,0,0)"/>
<path style="fill:none;stroke-width:2;stroke-linecap:butt;stroke-linejoin:miter;stroke:rgb(0%,0%,0%);stroke-opacity:1;stroke-miterlimit:4;" d="M 507.499772 317.5 L 507.499772 319.499878 L 503.500016 351.499992 " transform="matrix(3.779528,0,0,3.779528,0,0)"/>
<path style="fill:none;stroke-width:2;stroke-linecap:butt;stroke-linejoin:miter;stroke:rgb(0%,0%,0%);stroke-opacity:1;stroke-miterlimit:4;" d="M 508.500228 278.499797 L 502.999788 294.499854 L 500.99991 304.500277 L 493.000399 320.500334 L 489.499837 329.999495 L 483.500203 345.500358 L 473.49978 361.000187 L 467.500146 370.999577 L 483.500203 343.000252 L 493.499593 316.499544 L 509.999878 276.499919 " transform="matrix(3.779528,0,0,3.779528,0,0)"/>
<path style="fill:none;stroke-width:2;stroke-linecap:butt;stroke-linejoin:miter;stroke:rgb(0%,0%,0%);stroke-opacity:1;stroke-miterlimit:4;" d="M 500.499683 223.499536 L 484.000431 230.000431 L 468.000374 236.000065 " transform="matrix(3.779528,0,0,3.779528,0,0)"/>
<path style="fill:none;stroke-width:2;stroke-linecap:butt;stroke-linejoin:miter;stroke:rgb(0%,0%,0%);stroke-opacity:1;stroke-miterlimit:4;" d="M 469.500024 233.499959 L 439.499788 249.500016 L 416.000448 265.500073 " transform="matrix(3.779528,0,0,3.779528,0,0)"/>
<path style="fill:none;stroke-width:2;stroke-linecap:butt;stroke-linejoin:miter;stroke:rgb(0%,0%,0%);stroke-opacity:1;stroke-miterlimit:4;" d="M 420.500431 254.500228 L 422.500309 245.000033 L 452.499512 228.499748 L 479.00022 212.999919 L 507.499772 196.999862 L 499.50026 182.999683 L 483.500203 178.499699 L 467.500146 174.499943 " transform="matrix(3.779528,0,0,3.779528,0,0)"/>
<path style="fill:none;stroke-width:2;stroke-linecap:butt;stroke-linejoin:miter;stroke:rgb(0%,0%,0%);stroke-opacity:1;stroke-miterlimit:4;" d="M 504.500472 198.000317 L 488.500415 205.999829 L 472.999552 216.000252 L 456.999495 225.999642 L 454.500423 241.999699 L 438.500366 251.499894 L 422.000081 259.500439 L 399.500163 265.500073 L 381 249.500016 L 361.000187 234.000187 " transform="matrix(3.779528,0,0,3.779528,0,0)"/>
<path style="fill:none;stroke-width:2;stroke-linecap:butt;stroke-linejoin:miter;stroke:rgb(0%,0%,0%);stroke-opacity:1;stroke-miterlimit:4;" d="M 361.000187 232.999731 L 377.000244 239.499593 L 393.000301 249.500016 " transform="matrix(3.779528,0,0,3.779528,0,0)"/>
<path style="fill:none;stroke-width:2;stroke-linecap:butt;stroke-linejoin:miter;stroke:rgb(0%,0%,0%);stroke-opacity:1;stroke-miterlimit:4;" d="M 395.500407 255.000456 L 379.50035 247.500138 L 363.999487 237.499715 " transform="matrix(3.779528,0,0,3.779528,0,0)"/>
<path style="fill:none;stroke-width:2;stroke-linecap:butt;stroke-linejoin:miter;stroke:rgb(0%,0%,0%);stroke-opacity:1;stroke-miterlimit:4;" d="M 368.500505 234.999609 L 400.499585 251.499894 " transform="matrix(3.779528,0,0,3.779528,0,0)"/>
<path style="fill:none;stroke-width:2;stroke-linecap:butt;stroke-linejoin:miter;stroke:rgb(0%,0%,0%);stroke-opacity:1;stroke-miterlimit:4;" d="M 422.000081 237.999943 L 448.499756 221.999886 L 476.500114 205.999829 L 506.50035 189.999772 L 498.499805 193.999528 L 481.99952 202.000073 L 465.500269 212.000496 L 449.500212 221.999886 L 433.500155 230.000431 L 417.500098 239.999821 L 401.500041 237.499715 L 384.999756 232.000309 L 368.999699 225.999642 " transform="matrix(3.779528,0,0,3.779528,0,0)"/>
<path style="fill:none;stroke-width:2;stroke-linecap:butt;stroke-linejoin:miter;stroke:rgb(0%,0%,0%);stroke-opacity:1;stroke-miterlimit:4;" d="M 369.499927 232.499504 L 405.499797 248.499561 " transform="matrix(3.779528,0,0,3.779528,0,0)"/>
<path style="fill:none;stroke-width:2;stroke-linecap:butt;stroke-linejoin:miter;stroke:rgb(0%,0%,0%);stroke-opacity:1;stroke-miterlimit:4;" d="M 391.000423 271.000513 L 375.000366 266.999723 L 358.500081 260.499862 L 341.999797 252.999544 " transform="matrix(3.779528,0,0,3.779528,0,0)"/>
<path style="fill:none;stroke-width:2;stroke-linecap:butt;stroke-linejoin:miter;stroke:rgb(0%,0%,0%);stroke-opacity:1;stroke-miterlimit:4;" d="M 341.499569 248.499561 L 357.499626 252.50035 L 373.499683 260.499862 L 389.49974 264.499618 L 405.499797 255.999878 " transform="matrix(3.779528,0,0,3.779528,0,0)"/>
<path style="fill:none;stroke-width:2;stroke-linecap:butt;stroke-linejoin:miter;stroke:rgb(0%,0%,0%);stroke-opacity:1;stroke-miterlimit:4;" d="M 372.50026 263.500195 L 341.999797 247.500138 " transform="matrix(3.779528,0,0,3.779528,0,0)"/>
<path style="fill:none;stroke-width:2;stroke-linecap:butt;stroke-linejoin:miter;stroke:rgb(0%,0%,0%);stroke-opacity:1;stroke-miterlimit:4;" d="M 323.000439 222.500114 L 306.500155 216.50048 L 290.500098 209.000163 " transform="matrix(3.779528,0,0,3.779528,0,0)"/>
<path style="fill:none;stroke-width:2;stroke-linecap:butt;stroke-linejoin:miter;stroke:rgb(0%,0%,0%);stroke-opacity:1;stroke-miterlimit:4;" d="M 289.499642 205.999829 L 305.499699 207.500513 L 321.499756 215.500024 L 337.499813 219.49978 L 353.49987 205.499601 " transform="matrix(3.779528,0,0,3.779528,0,0)"/>
<path style="fill:none;stroke-width:2;stroke-linecap:butt;stroke-linejoin:miter;stroke:rgb(0%,0%,0%);stroke-opacity:1;stroke-miterlimit:4;" d="M 334.999707 223.000342 L 352.999642 207.000285 L 363.000065 196.999862 L 330.999951 193.000106 L 314.499666 193.500334 L 298.499609 196.999862 L 282.499552 205.000407 L 266.499495 211.000041 " transform="matrix(3.779528,0,0,3.779528,0,0)"/>
<path style="fill:none;stroke-width:2;stroke-linecap:butt;stroke-linejoin:miter;stroke:rgb(0%,0%,0%);stroke-opacity:1;stroke-miterlimit:4;" d="M 270.000057 221.000464 L 286.000114 227.000098 L 302.500399 232.999731 L 318.500456 240.500049 " transform="matrix(3.779528,0,0,3.779528,0,0)"/>
<path style="fill:none;stroke-width:2;stroke-linecap:butt;stroke-linejoin:miter;stroke:rgb(0%,0%,0%);stroke-opacity:1;stroke-miterlimit:4;" d="M 319.499878 234.500415 L 303.499821 228.499748 L 286.999536 222.500114 L 271.000513 214.499569 L 255.000456 214.499569 " transform="matrix(3.779528,0,0,3.779528,0,0)"/>
<path style="fill:none;stroke-width:2;stroke-linecap:butt;stroke-linejoin:miter;stroke:rgb(0%,0%,0%);stroke-opacity:1;stroke-miterlimit:4;" d="M 216.50048 173.999715 L 232.499504 166.000203 L 248.499561 153.499674 L 264.000423 146.999813 L 280.00048 139.000301 L 295.500309 130.999756 L 311.500366 120.500138 L 336.999585 123.000244 L 352.999642 127 L 369.499927 130.999756 L 385.499984 131.499984 L 379.50035 149.499919 " transform="matrix(3.779528,0,0,3.779528,0,0)"/>
<path style="fill:none;stroke-width:2;stroke-linecap:butt;stroke-linejoin:miter;stroke:rgb(0%,0%,0%);stroke-opacity:1;stroke-miterlimit:4;" d="M 394.499951 139.000301 L 366.499593 154.50013 L 356.500203 154.50013 L 340.500146 170.500187 L 304.500277 186.500244 L 270.500285 202.500301 L 309.00026 230.499626 L 332.999829 232.499504 L 343.50048 232.000309 L 359.000309 230.000431 L 375.000366 234.500415 L 391.000423 239.999821 L 407.00048 246.000488 L 425.000415 243.500382 L 432.499699 247.500138 L 441.999894 233.499959 L 452.000317 237.499715 L 467.500146 229.500203 L 483.500203 221.499658 L 499.50026 214.000374 " transform="matrix(3.779528,0,0,3.779528,0,0)"/>
<path style="fill:none;stroke-width:2;stroke-linecap:butt;stroke-linejoin:miter;stroke:rgb(0%,0%,0%);stroke-opacity:1;stroke-miterlimit:4;" d="M 510.500106 208.499935 L 446.499878 240.500049 " transform="matrix(3.779528,0,0,3.779528,0,0)"/>
<path style="fill:none;stroke-width:2;stroke-linecap:butt;stroke-linejoin:miter;stroke:rgb(0%,0%,0%);stroke-opacity:1;stroke-miterlimit:4;" d="M 501.500138 165.499976 L 485.500081 162.99987 L 469.500024 164.49952 L 457.499723 169.999959 L 447.500334 172.500065 L 431.500277 180.999805 L 416.000448 189.499544 L 400.000391 196.000439 L 384.000334 208.499935 L 368.000277 222.500114 L 336.500391 230.000431 L 322.500212 221.999886 L 290.500098 206.500057 L 309.00026 192.499878 " transform="matrix(3.779528,0,0,3.779528,0,0)"/>
<path style="fill:none;stroke-width:2;stroke-linecap:butt;stroke-linejoin:miter;stroke:rgb(0%,0%,0%);stroke-opacity:1;stroke-miterlimit:4;" d="M 309.999683 173.000293 L 325.99974 166.999626 L 320.500334 168.999504 L 300.000293 177.000049 L 291.999748 178.999927 L 299.500065 172.500065 L 315.500122 164.49952 L 330.999951 158.499886 " transform="matrix(3.779528,0,0,3.779528,0,0)"/>
<path style="fill:none;stroke-width:2;stroke-linecap:butt;stroke-linejoin:miter;stroke:rgb(0%,0%,0%);stroke-opacity:1;stroke-miterlimit:4;" d="M 332.499601 125.50035 L 348.499658 131.499984 L 364.499715 135.999967 " transform="matrix(3.779528,0,0,3.779528,0,0)"/>
<path style="fill:none;stroke-width:2;stroke-linecap:butt;stroke-linejoin:miter;stroke:rgb(0%,0%,0%);stroke-opacity:1;stroke-miterlimit:4;" d="M 409.99978 148.000269 L 423.499731 164.000326 L 418.000326 178.499699 " transform="matrix(3.779528,0,0,3.779528,0,0)"/>
<path style="fill:none;stroke-width:2;stroke-linecap:butt;stroke-linejoin:miter;stroke:rgb(0%,0%,0%);stroke-opacity:1;stroke-miterlimit:4;" d="M 304.000049 119.99991 L 287.999992 123.999666 L 272.500163 128.49965 L 257.000334 139.000301 L 241.000277 139.000301 L 225.00022 132.999634 " transform="matrix(3.779528,0,0,3.779528,0,0)"/>
<path style="fill:none;stroke-width:2;stroke-linecap:butt;stroke-linejoin:miter;stroke:rgb(0%,0%,0%);stroke-opacity:1;stroke-miterlimit:4;" d="M 230.000431 144.000513 L 213.500146 139.499495 L 197.50009 137.499618 L 219.49978 114.000277 L 239.999821 98.500448 " transform="matrix(3.779528,0,0,3.779528,0,0)"/>
<path style="fill:none;stroke-width:2;stroke-linecap:butt;stroke-linejoin:miter;stroke:rgb(0%,0%,0%);stroke-opacity:1;stroke-miterlimit:4;" d="M 241.999699 93.000008 L 205.999829 109.500293 L 173.999715 131.499984 L 141.999601 147.500041 L 157.999658 163.500098 L 180.000382 179.500155 L 164.000326 201.499845 L 170.500187 211.500269 L 186.500244 215.500024 " transform="matrix(3.779528,0,0,3.779528,0,0)"/>
<path style="fill:none;stroke-width:2;stroke-linecap:butt;stroke-linejoin:miter;stroke:rgb(0%,0%,0%);stroke-opacity:1;stroke-miterlimit:4;" d="M 191.99965 221.000464 L 193.999528 236.999487 L 195.500212 255.000456 L 197.50009 271.000513 L 197.50009 286.999536 L 195.500212 302.999593 " transform="matrix(3.779528,0,0,3.779528,0,0)"/>
<path style="fill:none;stroke-width:2;stroke-linecap:butt;stroke-linejoin:miter;stroke:rgb(0%,0%,0%);stroke-opacity:1;stroke-miterlimit:4;" d="M 193.500334 304.500277 L 177.500277 293.999626 L 161.50022 277.000146 L 145.500163 262.999967 " transform="matrix(3.779528,0,0,3.779528,0,0)"/>
<path style="fill:none;stroke-width:2;stroke-linecap:butt;stroke-linejoin:miter;stroke:rgb(0%,0%,0%);stroke-opacity:1;stroke-miterlimit:4;" d="M 146.499585 262.49974 L 150.999569 278.499797 L 153.00048 295.000081 L 164.999748 313.500244 L 189.00035 329.500301 " transform="matrix(3.779528,0,0,3.779528,0,0)"/>
<path style="fill:none;stroke-width:2;stroke-linecap:butt;stroke-linejoin:miter;stroke:rgb(0%,0%,0%);stroke-opacity:1;stroke-miterlimit:4;" d="M 180.000382 332.000407 L 157.999658 316.00035 L 144.000513 299.500065 L 141.999601 283.500008 L 139.499495 267.499951 L 136.500195 251.499894 L 136.500195 235.499837 " transform="matrix(3.779528,0,0,3.779528,0,0)"/>
<path style="fill:none;stroke-width:2;stroke-linecap:butt;stroke-linejoin:miter;stroke:rgb(0%,0%,0%);stroke-opacity:1;stroke-miterlimit:4;" d="M 153.999902 207.500513 L 137.999845 199.499967 " transform="matrix(3.779528,0,0,3.779528,0,0)"/>
<path style="fill:none;stroke-width:2;stroke-linecap:butt;stroke-linejoin:miter;stroke:rgb(0%,0%,0%);stroke-opacity:1;stroke-miterlimit:4;" d="M 136.500195 170.500187 L 171.000415 186.500244 " transform="matrix(3.779528,0,0,3.779528,0,0)"/>
<path style="fill:none;stroke-width:2;stroke-linecap:butt;stroke-linejoin:miter;stroke:rgb(0%,0%,0%);stroke-opacity:1;stroke-miterlimit:4;" d="M 200.000195 165.499976 L 233.499959 149.499919 L 227.500326 153.499674 L 212.000496 161.50022 L 196.499634 168.999504 L 180.499577 164.999748 L 164.999748 158.499886 L 148.999691 152.500252 " transform="matrix(3.779528,0,0,3.779528,0,0)"/>
<path style="fill:none;stroke-width:2;stroke-linecap:butt;stroke-linejoin:miter;stroke:rgb(0%,0%,0%);stroke-opacity:1;stroke-miterlimit:4;" d="M 144.999935 151.499797 L 160.999992 141.500407 L 177.000049 135.999967 L 193.500334 136.500195 L 209.999585 130.499528 L 228.499748 128.999878 L 244.499805 124.499894 L 260.499862 124.499894 L 277.000146 120.500138 " transform="matrix(3.779528,0,0,3.779528,0,0)"/>
<path style="fill:none;stroke-width:2;stroke-linecap:butt;stroke-linejoin:miter;stroke:rgb(0%,0%,0%);stroke-opacity:1;stroke-miterlimit:4;" d="M 194.499756 109.500293 L 162.499642 121.499561 L 146.999813 125.50035 L 130.999756 131.499984 L 114.999699 141.500407 L 98.999642 144.000513 L 83.499813 150.000146 " transform="matrix(3.779528,0,0,3.779528,0,0)"/>
<path style="fill:none;stroke-width:2;stroke-linecap:butt;stroke-linejoin:miter;stroke:rgb(0%,0%,0%);stroke-opacity:1;stroke-miterlimit:4;" d="M 87.000374 144.499707 L 85.000496 160.499764 L 87.000374 175.999593 L 89.000252 191.99965 L 88.500024 207.999707 L 88.500024 223.499536 L 90.499902 239.499593 L 92.49978 255.999878 L 92.49978 271.999935 L 93.000008 287.999992 L 100.99952 311.999561 L 116.999577 321.999984 L 132.999634 331.500179 L 148.500496 341.499569 L 164.49952 352.00022 L 180.000382 361.999609 L 196.499634 372.000033 L 212.499691 382.000456 L 228.499748 391.999845 L 244.499805 400.499585 L 260.499862 402.500496 L 276.499919 407.999902 L 292.499976 419.499976 L 308.500033 427.499487 L 323.999862 432.999927 L 339.999919 441.499666 L 355.499748 451.50009 L 371.499805 461.500513 L 387.499862 474.000008 L 411.999658 486.000309 L 427.999715 474.000008 L 443.999772 458.500179 L 459.999829 446.499878 L 475.999886 430.499821 L 491.999943 416.499642 L 508 406.000024 " transform="matrix(3.779528,0,0,3.779528,0,0)"/>
<path style="fill:none;stroke-width:2;stroke-linecap:butt;stroke-linejoin:miter;stroke:rgb(0%,0%,0%);stroke-opacity:1;stroke-miterlimit:4;" d="M 411.000236 370.000155 L 411.000236 401.500041 L 413.000114 418.000326 L 414.999992 434.499577 L 414.999992 450.499634 L 416.99987 466.499691 " transform="matrix(3.779528,0,0,3.779528,0,0)"/>
<path style="fill:none;stroke-width:2;stroke-linecap:butt;stroke-linejoin:miter;stroke:rgb(0%,0%,0%);stroke-opacity:1;stroke-miterlimit:4;" d="M 358.500081 362.499837 L 354.500326 346.49978 L 334.500513 330.499723 L 313.000016 314.499666 L 293.000203 298.499609 " transform="matrix(3.779528,0,0,3.779528,0,0)"/>
<path style="fill:none;stroke-width:2;stroke-linecap:butt;stroke-linejoin:miter;stroke:rgb(0%,0%,0%);stroke-opacity:1;stroke-miterlimit:4;" d="M 171.999837 169.499731 L 155.99978 160.999992 L 139.999723 153.00048 " transform="matrix(3.779528,0,0,3.779528,0,0)"/>
<path style="fill:none;stroke-width:2;stroke-linecap:butt;stroke-linejoin:miter;stroke:rgb(0%,0%,0%);stroke-opacity:1;stroke-miterlimit:4;" d="M 132.500439 168.500309 L 148.500496 176.499821 L 164.49952 182.00026 L 180.499577 180.000382 " transform="matrix(3.779528,0,0,3.779528,0,0)"/>
<path style="fill:none;stroke-width:2;stroke-linecap:butt;stroke-linejoin:miter;stroke:rgb(0%,0%,0%);stroke-opacity:1;stroke-miterlimit:4;" d="M 160.999992 203.499723 L 134.999512 200.000195 L 137.000423 184.500366 L 130.999756 168.500309 " transform="matrix(3.779528,0,0,3.779528,0,0)"/>
<path style="fill:none;stroke-width:2;stroke-linecap:butt;stroke-linejoin:miter;stroke:rgb(0%,0%,0%);stroke-opacity:1;stroke-miterlimit:4;" d="M 158.499886 159.000114 L 162.99987 143.000057 " transform="matrix(3.779528,0,0,3.779528,0,0)"/>
<path style="fill:none;stroke-width:2;stroke-linecap:butt;stroke-linejoin:miter;stroke:rgb(0%,0%,0%);stroke-opacity:1;stroke-miterlimit:4;" d="M 157.500464 129.500106 L 135.49974 137.499618 L 133.499862 139.499495 L 153.499674 130.999756 L 169.499731 127 L 185.499788 120.500138 L 202.000073 112.499593 L 218.500358 105.999731 L 234.999609 98.00022 L 251.499894 107.999609 L 268.000179 103.999854 L 280.00048 107.999609 L 295.500309 112.000399 L 311.000138 117.499805 " transform="matrix(3.779528,0,0,3.779528,0,0)"/>
<path style="fill:none;stroke-width:2;stroke-linecap:butt;stroke-linejoin:miter;stroke:rgb(0%,0%,0%);stroke-opacity:1;stroke-miterlimit:4;" d="M 287.999992 227.500326 L 266.499495 212.000496 L 256.500106 200.000195 L 236.500293 192.499878 L 216.50048 175.999593 L 240.500049 159.999536 L 270.500285 144.000513 L 302.000171 128.000456 L 311.999561 112.000399 L 305.999927 109.500293 L 289.99987 105.499504 L 273.999813 100.99952 L 257.499528 97.499992 L 241.000277 91.500358 L 225.500448 97.499992 L 209.500391 99.49987 L 193.500334 93.500236 L 177.500277 87.499569 L 161.50022 82.000163 L 145.500163 78.000407 L 129.500106 77.500179 L 113.500049 71.499512 L 98.00022 71.499512 L 82.000163 77.500179 L 66.500334 83.499813 L 51.000505 89.50048 L 35.000448 96.000342 L 19.000391 101.999976 L 3.000334 108.499837 " transform="matrix(3.779528,0,0,3.779528,0,0)"/>
<path style="fill:none;stroke-width:2;stroke-linecap:butt;stroke-linejoin:miter;stroke:rgb(0%,0%,0%);stroke-opacity:1;stroke-miterlimit:4;" d="M 3.499528 114.000277 L 19.499585 107.999609 " transform="matrix(3.779528,0,0,3.779528,0,0)"/>
<path style="fill:none;stroke-width:2;stroke-linecap:butt;stroke-linejoin:miter;stroke:rgb(0%,0%,0%);stroke-opacity:1;stroke-miterlimit:4;" d="M 25.000024 105.499504 L 57.000138 93.500236 L 72.499967 87.499569 L 87.999797 80.999707 L 103.999854 75.000073 L 119.99991 78.999829 " transform="matrix(3.779528,0,0,3.779528,0,0)"/>
<path style="fill:none;stroke-width:2;stroke-linecap:butt;stroke-linejoin:miter;stroke:rgb(0%,0%,0%);stroke-opacity:1;stroke-miterlimit:4;" d="M 105.000309 73.500423 L 60.999894 89.50048 L 23.500374 105.499504 L 47.499943 123.500472 L 67.999984 128.999878 L 84.000041 125.50035 L 100.000098 119.499683 L 116.000155 114.000277 L 132.000212 107.999609 L 148.000269 102.500203 L 164.000326 96.499536 L 180.000382 94.999886 L 195.500212 100.99952 " transform="matrix(3.779528,0,0,3.779528,0,0)"/>
<path style="fill:none;stroke-width:2;stroke-linecap:butt;stroke-linejoin:miter;stroke:rgb(0%,0%,0%);stroke-opacity:1;stroke-miterlimit:4;" d="M 178.000505 93.500236 L 191.99965 109.500293 L 147.500041 125.50035 L 129.500106 143.500285 L 119.499683 153.499674 L 130.000334 150.000146 L 146.000391 139.499495 L 150.000146 143.500285 L 166.000203 135.999967 L 182.00026 130.000334 L 198.000317 124.499894 L 214.000374 118.50026 L 230.000431 109.999487 " transform="matrix(3.779528,0,0,3.779528,0,0)"/>
<path style="fill:none;stroke-width:2;stroke-linecap:butt;stroke-linejoin:miter;stroke:rgb(0%,0%,0%);stroke-opacity:1;stroke-miterlimit:4;" d="M 137.999845 89.50048 L 121.999788 85.499691 L 105.499504 89.50048 L 89.50048 91.500358 L 73.000195 95.500114 L 57.500366 101.999976 L 69.000439 94.000464 " transform="matrix(3.779528,0,0,3.779528,0,0)"/>
<path style="fill:none;stroke-width:2;stroke-linecap:butt;stroke-linejoin:miter;stroke:rgb(0%,0%,0%);stroke-opacity:1;stroke-miterlimit:4;" d="M 77.500179 76.999951 L 37.49952 93.000008 L 15.499829 109.000065 L 5.500439 125.50035 L 3.999756 141.999601 L 3.999756 158.499886 L 5.999634 174.499943 L 3.999756 190.5 L 3.999756 206.500057 L 6.499862 222.500114 L 8.999967 234.500415 L 5.000212 250.500472 L 24.499797 274.500041 L 60.499666 290.500098 L 76.499723 298.499609 L 102.500203 304.500277 L 110.499715 320.000106 L 134.00009 336.000163 L 159.999536 352.00022 L 187.999894 368.000277 L 212.499691 384.000334 L 244.499805 400.000391 " transform="matrix(3.779528,0,0,3.779528,0,0)"/>
<path style="fill:none;stroke-width:2;stroke-linecap:butt;stroke-linejoin:miter;stroke:rgb(0%,0%,0%);stroke-opacity:1;stroke-miterlimit:4;" d="M 67.499756 222.500114 L 51.499699 214.000374 " transform="matrix(3.779528,0,0,3.779528,0,0)"/>
<path style="fill:none;stroke-width:2;stroke-linecap:butt;stroke-linejoin:miter;stroke:rgb(0%,0%,0%);stroke-opacity:1;stroke-miterlimit:4;" d="M 45.500065 212.000496 L 61.500122 212.000496 " transform="matrix(3.779528,0,0,3.779528,0,0)"/>
<path style="fill:none;stroke-width:2;stroke-linecap:butt;stroke-linejoin:miter;stroke:rgb(0%,0%,0%);stroke-opacity:1;stroke-miterlimit:4;" d="M 67.999984 201.499845 L 52.500155 191.000228 " transform="matrix(3.779528,0,0,3.779528,0,0)"/>
<path style="fill:none;stroke-width:2;stroke-linecap:butt;stroke-linejoin:miter;stroke:rgb(0%,0%,0%);stroke-opacity:1;stroke-miterlimit:4;" d="M 45.500065 172.500065 L 49.499821 188.500122 L 66.999528 204.500179 L 73.000195 230.499626 " transform="matrix(3.779528,0,0,3.779528,0,0)"/>
<path style="fill:none;stroke-width:2;stroke-linecap:butt;stroke-linejoin:miter;stroke:rgb(0%,0%,0%);stroke-opacity:1;stroke-miterlimit:4;" d="M 63.5 240.500049 L 51.499699 240.500049 L 57.999561 220.000008 L 46.000293 222.500114 " transform="matrix(3.779528,0,0,3.779528,0,0)"/>
<path style="fill:none;stroke-width:2;stroke-linecap:butt;stroke-linejoin:miter;stroke:rgb(0%,0%,0%);stroke-opacity:1;stroke-miterlimit:4;" d="M 69.999862 243.000155 L 53.999805 232.499504 L 46.000293 250.000244 L 39.500431 233.499959 L 39.500431 217.499902 L 37.49952 201.499845 L 37.49952 184.999561 L 35.499642 168.999504 " transform="matrix(3.779528,0,0,3.779528,0,0)"/>
<path style="fill:none;stroke-width:2;stroke-linecap:butt;stroke-linejoin:miter;stroke:rgb(0%,0%,0%);stroke-opacity:1;stroke-miterlimit:4;" d="M 8.49974 186.500244 L 12.499495 218.500358 L 12.499495 234.500415 L 14.500407 250.500472 L 24.499797 266.499495 L 57.000138 282.499552 L 86.500146 298.000415 " transform="matrix(3.779528,0,0,3.779528,0,0)"/>
<path style="fill:none;stroke-width:2;stroke-linecap:butt;stroke-linejoin:miter;stroke:rgb(0%,0%,0%);stroke-opacity:1;stroke-miterlimit:4;" d="M 80.999707 291.000326 L 64.99965 282.99978 L 48.999593 277.000146 L 32.999536 267.499951 L 17.000513 257.999756 " transform="matrix(3.779528,0,0,3.779528,0,0)"/>
<path style="fill:none;stroke-width:2;stroke-linecap:butt;stroke-linejoin:miter;stroke:rgb(0%,0%,0%);stroke-opacity:1;stroke-miterlimit:4;" d="M 3.000334 264.000423 L 19.000391 268.000179 L 35.000448 277.500374 L 50.500277 285.499886 L 66.500334 291.999748 L 82.000163 300.000293 " transform="matrix(3.779528,0,0,3.779528,0,0)"/>
</g>
</svg>
