<?xml version="1.0" encoding="UTF-8"?>
<svg xmlns="http://www.w3.org/2000/svg" xmlns:xlink="http://www.w3.org/1999/xlink" width="1935.11811" height="1935.11811" viewBox="0 0 1935.11811 1935.11811" version="1.1">
<g id="surface1">
<path style="fill:none;stroke-width:2;stroke-linecap:butt;stroke-linejoin:miter;stroke:rgb(0%,0%,0%);stroke-opacity:1;stroke-miterlimit:4;" d="M 133.499862 2.500106 L 133.499862 18.500163 L 141.500407 34.50022 " transform="matrix(3.779528,0,0,3.779528,0,0)"/>
<path style="fill:none;stroke-width:2;stroke-linecap:butt;stroke-linejoin:miter;stroke:rgb(0%,0%,0%);stroke-opacity:1;stroke-miterlimit:4;" d="M 137.499618 37.000326 L 129.500106 21.000269 " transform="matrix(3.779528,0,0,3.779528,0,0)"/>
<path style="fill:none;stroke-width:2;stroke-linecap:butt;stroke-linejoin:miter;stroke:rgb(0%,0%,0%);stroke-opacity:1;stroke-miterlimit:4;" d="M 127 19.499585 L 112.999821 35.499642 L 111.500171 37.49952 L 127.500228 19.499585 L 144.000513 39.000203 L 159.999536 47.499943 " transform="matrix(3.779528,0,0,3.779528,0,0)"/>
<path style="fill:none;stroke-width:2;stroke-linecap:butt;stroke-linejoin:miter;stroke:rgb(0%,0%,0%);stroke-opacity:1;stroke-miterlimit:4;" d="M 166.500431 43.500187 L 150.500374 37.000326 L 134.00009 16.500285 " transform="matrix(3.779528,0,0,3.779528,0,0)"/>
<path style="fill:none;stroke-width:2;stroke-linecap:butt;stroke-linejoin:miter;stroke:rgb(0%,0%,0%);stroke-opacity:1;stroke-miterlimit:4;" d="M 125.999544 62.499544 L 109.999487 54.500033 L 94.000464 52.500155 L 77.500179 48.000171 L 61.500122 44.000415 L 45.500065 39.999626 L 29.500008 41.500309 L 14.000179 55.500488 " transform="matrix(3.779528,0,0,3.779528,0,0)"/>
<path style="fill:none;stroke-width:2;stroke-linecap:butt;stroke-linejoin:miter;stroke:rgb(0%,0%,0%);stroke-opacity:1;stroke-miterlimit:4;" d="M 15.499829 61.500122 L 31.499886 79.500057 L 47.499943 89.50048 L 63.5 95.500114 L 80.000285 99.49987 L 96.000342 97.499992 L 112.499593 99.49987 L 128.999878 98.00022 L 153.499674 78.000407 " transform="matrix(3.779528,0,0,3.779528,0,0)"/>
<path style="fill:none;stroke-width:2;stroke-linecap:butt;stroke-linejoin:miter;stroke:rgb(0%,0%,0%);stroke-opacity:1;stroke-miterlimit:4;" d="M 153.00048 78.499601 L 141.000179 94.499658 L 137.000423 109.999487 L 143.000057 125.999544 L 154.50013 141.999601 L 170.500187 157.500464 L 188.500122 167.499854 L 190.5 184.000138 L 200.500423 200.000195 L 200.999618 216.000252 L 191.000228 232.000309 " transform="matrix(3.779528,0,0,3.779528,0,0)"/>
<path style="fill:none;stroke-width:2;stroke-linecap:butt;stroke-linejoin:miter;stroke:rgb(0%,0%,0%);stroke-opacity:1;stroke-miterlimit:4;" d="M 209.999585 255.000456 L 225.999642 232.999731 L 217.499902 240.500049 L 209.500391 257.000334 L 209.000163 273.499585 L 214.499569 289.499642 L 216.50048 305.999927 L 207.000285 322.500212 L 198.99974 338.500269 L 196.499634 354.99952 L 202.500301 359.000309 L 198.499512 373.000488 L 212.999919 388.500317 L 195.500212 414.499764 L 175.999593 430.499821 L 152.000024 446.499878 L 134.500317 462.499935 L 130.499528 477.999764 L 136.500195 501.500138 " transform="matrix(3.779528,0,0,3.779528,0,0)"/>
<path style="fill:none;stroke-width:2;stroke-linecap:butt;stroke-linejoin:miter;stroke:rgb(0%,0%,0%);stroke-opacity:1;stroke-miterlimit:4;" d="M 154.50013 504.000244 L 170.500187 506.000122 " transform="matrix(3.779528,0,0,3.779528,0,0)"/>
<path style="fill:none;stroke-width:2;stroke-linecap:butt;stroke-linejoin:miter;stroke:rgb(0%,0%,0%);stroke-opacity:1;stroke-miterlimit:4;" d="M 130.999756 503.500016 L 119.000488 487.499959 L 105.000309 471.499902 L 73.000195 439.499788 L 68.500212 423.499731 L 72.499967 407.00048 L 84.000041 391.499618 L 98.00022 375.999788 L 110.499715 359.999731 L 127 343.50048 L 144.999935 343.50048 L 129.500106 357.499626 L 112.999821 373.499683 " transform="matrix(3.779528,0,0,3.779528,0,0)"/>
<path style="fill:none;stroke-width:2;stroke-linecap:butt;stroke-linejoin:miter;stroke:rgb(0%,0%,0%);stroke-opacity:1;stroke-miterlimit:4;" d="M 132.000212 359.999731 L 116.500382 375.999788 L 100.99952 386.500439 L 121.000366 372.50026 L 137.499618 356.500203 " transform="matrix(3.779528,0,0,3.779528,0,0)"/>
<path style="fill:none;stroke-width:2;stroke-linecap:butt;stroke-linejoin:miter;stroke:rgb(0%,0%,0%);stroke-opacity:1;stroke-miterlimit:4;" d="M 146.000391 344.499902 L 135.999967 348.499658 L 120.500138 364.499715 L 108.499837 368.999699 L 140.499951 336.999585 L 156.500008 330.999951 L 172.500065 323.499634 L 188.500122 321.499756 " transform="matrix(3.779528,0,0,3.779528,0,0)"/>
<path style="fill:none;stroke-width:2;stroke-linecap:butt;stroke-linejoin:miter;stroke:rgb(0%,0%,0%);stroke-opacity:1;stroke-miterlimit:4;" d="M 170.500187 311.999561 L 154.50013 307.999805 L 137.999845 309.999683 L 121.999788 309.999683 " transform="matrix(3.779528,0,0,3.779528,0,0)"/>
<path style="fill:none;stroke-width:2;stroke-linecap:butt;stroke-linejoin:miter;stroke:rgb(0%,0%,0%);stroke-opacity:1;stroke-miterlimit:4;" d="M 129.500106 296.999959 L 144.999935 301.499943 " transform="matrix(3.779528,0,0,3.779528,0,0)"/>
<path style="fill:none;stroke-width:2;stroke-linecap:butt;stroke-linejoin:miter;stroke:rgb(0%,0%,0%);stroke-opacity:1;stroke-miterlimit:4;" d="M 173.999715 297.500187 L 157.500464 289.499642 L 141.500407 283.500008 L 125.000122 277.500374 L 108.499837 277.500374 L 92.49978 271.499707 " transform="matrix(3.779528,0,0,3.779528,0,0)"/>
<path style="fill:none;stroke-width:2;stroke-linecap:butt;stroke-linejoin:miter;stroke:rgb(0%,0%,0%);stroke-opacity:1;stroke-miterlimit:4;" d="M 88.500024 275.000269 L 104.500081 283.500008 L 120.500138 289.000448 L 135.999967 292.499976 L 152.000024 296.999959 " transform="matrix(3.779528,0,0,3.779528,0,0)"/>
<path style="fill:none;stroke-width:2;stroke-linecap:butt;stroke-linejoin:miter;stroke:rgb(0%,0%,0%);stroke-opacity:1;stroke-miterlimit:4;" d="M 168.000081 274.500041 L 196.000439 289.99987 L 203.499723 306.500155 L 199.499967 322.500212 L 202.000073 332.499601 L 218.500358 306.500155 L 234.500415 304.500277 L 250.500472 305.999927 " transform="matrix(3.779528,0,0,3.779528,0,0)"/>
<path style="fill:none;stroke-width:2;stroke-linecap:butt;stroke-linejoin:miter;stroke:rgb(0%,0%,0%);stroke-opacity:1;stroke-miterlimit:4;" d="M 231.500081 318.000228 L 231.500081 334.000285 L 216.999674 342.500024 L 218.999552 350.499536 L 215.500024 334.500513 L 227.500326 328.499845 L 235.499837 350.499536 L 243.500382 354.000098 " transform="matrix(3.779528,0,0,3.779528,0,0)"/>
<path style="fill:none;stroke-width:2;stroke-linecap:butt;stroke-linejoin:miter;stroke:rgb(0%,0%,0%);stroke-opacity:1;stroke-miterlimit:4;" d="M 253.499772 348.000464 L 237.499715 345.999552 L 221.499658 356.500203 " transform="matrix(3.779528,0,0,3.779528,0,0)"/>
<path style="fill:none;stroke-width:2;stroke-linecap:butt;stroke-linejoin:miter;stroke:rgb(0%,0%,0%);stroke-opacity:1;stroke-miterlimit:4;" d="M 203.999951 370.000155 L 211.500269 363.999487 L 205.499601 348.000464 L 209.999585 332.000407 L 220.000008 316.00035 L 224.499992 291.999748 L 216.999674 276.499919 L 216.999674 260.499862 L 223.000342 244.499805 L 219.49978 250.500472 " transform="matrix(3.779528,0,0,3.779528,0,0)"/>
<path style="fill:none;stroke-width:2;stroke-linecap:butt;stroke-linejoin:miter;stroke:rgb(0%,0%,0%);stroke-opacity:1;stroke-miterlimit:4;" d="M 218.00013 275.999691 L 233.499959 295.999504 L 249.500016 298.000415 L 264.999845 289.99987 L 280.499674 277.500374 L 295.999504 255.49965 L 311.999561 235.499837 L 327.999618 227.500326 L 345.500358 229.500203 L 361.000187 215.500024 " transform="matrix(3.779528,0,0,3.779528,0,0)"/>
<path style="fill:none;stroke-width:2;stroke-linecap:butt;stroke-linejoin:miter;stroke:rgb(0%,0%,0%);stroke-opacity:1;stroke-miterlimit:4;" d="M 381 221.999886 L 418.999748 237.499715 L 431.000049 251.499894 L 448.999984 266.000301 L 463.000163 282.499552 L 481.000098 282.499552 L 472.999552 282.499552 L 488.500415 272.500163 L 490.500293 278.499797 L 506.50035 268.500407 L 511.000334 258.499984 " transform="matrix(3.779528,0,0,3.779528,0,0)"/>
<path style="fill:none;stroke-width:2;stroke-linecap:butt;stroke-linejoin:miter;stroke:rgb(0%,0%,0%);stroke-opacity:1;stroke-miterlimit:4;" d="M 510.500106 249.500016 L 494.500049 249.500016 L 477.999764 247.500138 L 445.500456 247.500138 L 443.00035 257.000334 " transform="matrix(3.779528,0,0,3.779528,0,0)"/>
<path style="fill:none;stroke-width:2;stroke-linecap:butt;stroke-linejoin:miter;stroke:rgb(0%,0%,0%);stroke-opacity:1;stroke-miterlimit:4;" d="M 447.500334 261.00009 L 454.999618 264.999845 L 470.999674 257.000334 L 493.000399 257.499528 " transform="matrix(3.779528,0,0,3.779528,0,0)"/>
<path style="fill:none;stroke-width:2;stroke-linecap:butt;stroke-linejoin:miter;stroke:rgb(0%,0%,0%);stroke-opacity:1;stroke-miterlimit:4;" d="M 500.99991 263.500195 L 488.999609 263.500195 L 479.00022 269.499829 " transform="matrix(3.779528,0,0,3.779528,0,0)"/>
<path style="fill:none;stroke-width:2;stroke-linecap:butt;stroke-linejoin:miter;stroke:rgb(0%,0%,0%);stroke-opacity:1;stroke-miterlimit:4;" d="M 465.000041 299.500065 L 481.000098 307.000382 L 496.499927 307.000382 " transform="matrix(3.779528,0,0,3.779528,0,0)"/>
<path style="fill:none;stroke-width:2;stroke-linecap:butt;stroke-linejoin:miter;stroke:rgb(0%,0%,0%);stroke-opacity:1;stroke-miterlimit:4;" d="M 495.999699 311.999561 L 479.999642 311.999561 L 463.999585 302.000171 " transform="matrix(3.779528,0,0,3.779528,0,0)"/>
<path style="fill:none;stroke-width:2;stroke-linecap:butt;stroke-linejoin:miter;stroke:rgb(0%,0%,0%);stroke-opacity:1;stroke-miterlimit:4;" d="M 463.999585 250.999666 L 447.999528 250.999666 " transform="matrix(3.779528,0,0,3.779528,0,0)"/>
<path style="fill:none;stroke-width:2;stroke-linecap:butt;stroke-linejoin:miter;stroke:rgb(0%,0%,0%);stroke-opacity:1;stroke-miterlimit:4;" d="M 454.999618 229.500203 L 444.5 250.000244 L 454.999618 268.000179 L 461.000285 270.000057 L 459.000407 277.999569 L 475.000464 268.000179 L 490.999487 254.500228 L 506.50035 254.500228 " transform="matrix(3.779528,0,0,3.779528,0,0)"/>
<path style="fill:none;stroke-width:2;stroke-linecap:butt;stroke-linejoin:miter;stroke:rgb(0%,0%,0%);stroke-opacity:1;stroke-miterlimit:4;" d="M 508.500228 187.999894 L 492.500171 173.999715 L 475.999886 168.000081 " transform="matrix(3.779528,0,0,3.779528,0,0)"/>
<path style="fill:none;stroke-width:2;stroke-linecap:butt;stroke-linejoin:miter;stroke:rgb(0%,0%,0%);stroke-opacity:1;stroke-miterlimit:4;" d="M 472.999552 168.000081 L 488.999609 166.000203 L 505.499894 180.000382 " transform="matrix(3.779528,0,0,3.779528,0,0)"/>
<path style="fill:none;stroke-width:2;stroke-linecap:butt;stroke-linejoin:miter;stroke:rgb(0%,0%,0%);stroke-opacity:1;stroke-miterlimit:4;" d="M 499.50026 181.500033 L 485.500081 165.499976 " transform="matrix(3.779528,0,0,3.779528,0,0)"/>
<path style="fill:none;stroke-width:2;stroke-linecap:butt;stroke-linejoin:miter;stroke:rgb(0%,0%,0%);stroke-opacity:1;stroke-miterlimit:4;" d="M 500.99991 153.999902 L 486.999731 150.000146 L 493.000399 134.00009 L 497.000155 118.000033 L 497.000155 86.500146 L 500.99991 80.500513 L 499.000033 74.499845 " transform="matrix(3.779528,0,0,3.779528,0,0)"/>
<path style="fill:none;stroke-width:2;stroke-linecap:butt;stroke-linejoin:miter;stroke:rgb(0%,0%,0%);stroke-opacity:1;stroke-miterlimit:4;" d="M 491.499715 68.500212 L 506.999544 68.500212 L 497.500382 73.999618 L 491.499715 73.500423 L 493.499593 89.50048 L 493.000399 105.499504 L 490.999487 121.499561 L 485.500081 137.000423 L 491.499715 139.499495 " transform="matrix(3.779528,0,0,3.779528,0,0)"/>
<path style="fill:none;stroke-width:2;stroke-linecap:butt;stroke-linejoin:miter;stroke:rgb(0%,0%,0%);stroke-opacity:1;stroke-miterlimit:4;" d="M 473.49978 150.000146 L 457.499723 150.000146 L 441.999894 152.000024 L 425.999837 125.999544 " transform="matrix(3.779528,0,0,3.779528,0,0)"/>
<path style="fill:none;stroke-width:2;stroke-linecap:butt;stroke-linejoin:miter;stroke:rgb(0%,0%,0%);stroke-opacity:1;stroke-miterlimit:4;" d="M 420.999626 131.499984 L 436.999683 157.500464 " transform="matrix(3.779528,0,0,3.779528,0,0)"/>
<path style="fill:none;stroke-width:2;stroke-linecap:butt;stroke-linejoin:miter;stroke:rgb(0%,0%,0%);stroke-opacity:1;stroke-miterlimit:4;" d="M 443.999772 182.999683 L 459.999829 207.500513 L 475.999886 221.499658 L 491.999943 231.500081 L 508.500228 234.000187 " transform="matrix(3.779528,0,0,3.779528,0,0)"/>
<path style="fill:none;stroke-width:2;stroke-linecap:butt;stroke-linejoin:miter;stroke:rgb(0%,0%,0%);stroke-opacity:1;stroke-miterlimit:4;" d="M 504.999666 209.999585 L 488.500415 205.999829 L 482.999976 196.000439 L 466.499691 191.99965 " transform="matrix(3.779528,0,0,3.779528,0,0)"/>
<path style="fill:none;stroke-width:2;stroke-linecap:butt;stroke-linejoin:miter;stroke:rgb(0%,0%,0%);stroke-opacity:1;stroke-miterlimit:4;" d="M 472.500358 194.499756 L 486.999731 210.499813 L 493.000399 226.49987 L 506.999544 220.500236 " transform="matrix(3.779528,0,0,3.779528,0,0)"/>
<path style="fill:none;stroke-width:2;stroke-linecap:butt;stroke-linejoin:miter;stroke:rgb(0%,0%,0%);stroke-opacity:1;stroke-miterlimit:4;" d="M 475.999886 227.000098 L 459.999829 215.500024 L 443.499544 197.50009 L 427.999715 211.500269 L 411.999658 225.999642 L 396.499829 221.999886 L 380.499772 216.000252 L 364.499715 202.000073 L 348.000464 187.999894 " transform="matrix(3.779528,0,0,3.779528,0,0)"/>
<path style="fill:none;stroke-width:2;stroke-linecap:butt;stroke-linejoin:miter;stroke:rgb(0%,0%,0%);stroke-opacity:1;stroke-miterlimit:4;" d="M 350.499536 184.999561 L 356.500203 201.499845 L 357.999854 217.499902 L 343.999674 233.499959 L 339.999919 250.000244 L 338.000041 266.000301 L 353.49987 287.999992 L 365.500171 309.500488 L 371.499805 329.500301 L 357.000431 345.500358 L 332.999829 377.500472 L 334.999707 391.999845 L 351.499992 364.499715 L 368.000277 344.499902 L 384.499528 334.999707 L 394.499951 346.49978 " transform="matrix(3.779528,0,0,3.779528,0,0)"/>
<path style="fill:none;stroke-width:2;stroke-linecap:butt;stroke-linejoin:miter;stroke:rgb(0%,0%,0%);stroke-opacity:1;stroke-miterlimit:4;" d="M 400.499585 352.00022 L 422.500309 368.000277 L 426.500065 389.49974 L 413.999536 404.999569 L 400.000391 420.999626 L 383.500106 436.999683 " transform="matrix(3.779528,0,0,3.779528,0,0)"/>
<path style="fill:none;stroke-width:2;stroke-linecap:butt;stroke-linejoin:miter;stroke:rgb(0%,0%,0%);stroke-opacity:1;stroke-miterlimit:4;" d="M 373.000488 461.999707 L 404.999569 477.499536 " transform="matrix(3.779528,0,0,3.779528,0,0)"/>
<path style="fill:none;stroke-width:2;stroke-linecap:butt;stroke-linejoin:miter;stroke:rgb(0%,0%,0%);stroke-opacity:1;stroke-miterlimit:4;" d="M 413.500342 452.499512 L 429.500399 430.499821 L 445.500456 413.000114 L 461.500513 404.999569 L 439.499788 418.999748 L 425.499609 434.999805 L 415.50022 450.999862 L 413.500342 466.499691 L 418.000326 482.499748 L 438.000138 497.999577 L 438.000138 502.000366 L 454.000195 506.000122 L 470.000252 501.500138 " transform="matrix(3.779528,0,0,3.779528,0,0)"/>
<path style="fill:none;stroke-width:2;stroke-linecap:butt;stroke-linejoin:miter;stroke:rgb(0%,0%,0%);stroke-opacity:1;stroke-miterlimit:4;" d="M 481.500326 484.999854 L 466.000496 497.000155 L 484.000431 482.499748 " transform="matrix(3.779528,0,0,3.779528,0,0)"/>
<path style="fill:none;stroke-width:2;stroke-linecap:butt;stroke-linejoin:miter;stroke:rgb(0%,0%,0%);stroke-opacity:1;stroke-miterlimit:4;" d="M 431.500277 434.000382 L 447.500334 416.000448 " transform="matrix(3.779528,0,0,3.779528,0,0)"/>
<path style="fill:none;stroke-width:2;stroke-linecap:butt;stroke-linejoin:miter;stroke:rgb(0%,0%,0%);stroke-opacity:1;stroke-miterlimit:4;" d="M 458.500179 407.00048 L 444.5 422.999504 L 430.499821 438.999561 L 420.500431 455.499845 L 418.999748 470.999674 " transform="matrix(3.779528,0,0,3.779528,0,0)"/>
<path style="fill:none;stroke-width:2;stroke-linecap:butt;stroke-linejoin:miter;stroke:rgb(0%,0%,0%);stroke-opacity:1;stroke-miterlimit:4;" d="M 429.999593 500.499683 L 402.000269 484.499626 L 373.99991 468.499569 " transform="matrix(3.779528,0,0,3.779528,0,0)"/>
<path style="fill:none;stroke-width:2;stroke-linecap:butt;stroke-linejoin:miter;stroke:rgb(0%,0%,0%);stroke-opacity:1;stroke-miterlimit:4;" d="M 338.000041 464.499813 L 320.000106 468.000374 L 309.999683 481.500326 L 320.000106 467.500146 L 335.499935 459.499601 L 351.499992 457.499723 L 367.500049 459.000407 L 384.000334 465.000041 L 400.499585 473.49978 L 416.499642 477.499536 " transform="matrix(3.779528,0,0,3.779528,0,0)"/>
<path style="fill:none;stroke-width:2;stroke-linecap:butt;stroke-linejoin:miter;stroke:rgb(0%,0%,0%);stroke-opacity:1;stroke-miterlimit:4;" d="M 336.000163 431.000049 L 332.000407 414.999992 L 334.000285 398.999935 L 342.500024 382.49965 L 352.500448 366.499593 L 364.999943 350.499536 L 379.000122 334.500513 L 381 324.50009 L 370.999577 308.500033 L 366.999821 292.499976 L 364.499715 276.499919 " transform="matrix(3.779528,0,0,3.779528,0,0)"/>
<path style="fill:none;stroke-width:2;stroke-linecap:butt;stroke-linejoin:miter;stroke:rgb(0%,0%,0%);stroke-opacity:1;stroke-miterlimit:4;" d="M 360.499959 272.500163 L 375.999788 250.500472 L 391.999845 260.499862 L 407.499674 274.500041 L 423.499731 286.999536 L 439.499788 298.499609 L 456.500301 314.999894 " transform="matrix(3.779528,0,0,3.779528,0,0)"/>
<path style="fill:none;stroke-width:2;stroke-linecap:butt;stroke-linejoin:miter;stroke:rgb(0%,0%,0%);stroke-opacity:1;stroke-miterlimit:4;" d="M 461.999707 340.500146 L 445.99965 330.499723 L 429.500399 312.499788 L 413.000114 298.499609 L 396.499829 286.999536 L 380.499772 275.000269 " transform="matrix(3.779528,0,0,3.779528,0,0)"/>
<path style="fill:none;stroke-width:2;stroke-linecap:butt;stroke-linejoin:miter;stroke:rgb(0%,0%,0%);stroke-opacity:1;stroke-miterlimit:4;" d="M 385.499984 268.999601 L 395.500407 284.999658 L 417.500098 300.999715 L 433.500155 317.5 L 447.500334 333.500057 " transform="matrix(3.779528,0,0,3.779528,0,0)"/>
<path style="fill:none;stroke-width:2;stroke-linecap:butt;stroke-linejoin:miter;stroke:rgb(0%,0%,0%);stroke-opacity:1;stroke-miterlimit:4;" d="M 450.000439 325.499512 L 434.000382 307.000382 L 418.000326 293.000203 L 402.500496 281.50013 L 386.999634 269.499829 L 370.999577 265.500073 " transform="matrix(3.779528,0,0,3.779528,0,0)"/>
<path style="fill:none;stroke-width:2;stroke-linecap:butt;stroke-linejoin:miter;stroke:rgb(0%,0%,0%);stroke-opacity:1;stroke-miterlimit:4;" d="M 368.999699 264.000423 L 384.999756 259.999634 L 400.999813 273.499585 L 416.99987 284.999658 L 432.499699 296.999959 L 447.999528 313.500244 L 463.999585 325.499512 " transform="matrix(3.779528,0,0,3.779528,0,0)"/>
<path style="fill:none;stroke-width:2;stroke-linecap:butt;stroke-linejoin:miter;stroke:rgb(0%,0%,0%);stroke-opacity:1;stroke-miterlimit:4;" d="M 486.000309 295.500309 L 470.000252 291.49952 L 454.000195 291.49952 L 438.500366 275.500496 L 422.500309 261.500317 L 406.500252 249.500016 L 390.500195 245.50026 L 374.500138 239.499593 " transform="matrix(3.779528,0,0,3.779528,0,0)"/>
<path style="fill:none;stroke-width:2;stroke-linecap:butt;stroke-linejoin:miter;stroke:rgb(0%,0%,0%);stroke-opacity:1;stroke-miterlimit:4;" d="M 375.999788 239.999821 L 422.000081 252.000122 L 425.499609 255.999878 L 445.000228 273.499585 L 458.500179 289.499642 L 474.500236 277.999569 L 491.999943 289.499642 L 491.999943 285.499886 L 508 284.999658 " transform="matrix(3.779528,0,0,3.779528,0,0)"/>
<path style="fill:none;stroke-width:2;stroke-linecap:butt;stroke-linejoin:miter;stroke:rgb(0%,0%,0%);stroke-opacity:1;stroke-miterlimit:4;" d="M 510.500106 326.499967 L 490.500293 338.500269 L 506.50035 327.999618 " transform="matrix(3.779528,0,0,3.779528,0,0)"/>
<path style="fill:none;stroke-width:2;stroke-linecap:butt;stroke-linejoin:miter;stroke:rgb(0%,0%,0%);stroke-opacity:1;stroke-miterlimit:4;" d="M 509.49965 332.499601 L 493.499593 340.500146 L 471.499902 356.500203 L 456.000073 368.500505 L 440.000016 368.500505 L 423.999959 362.499837 L 407.999902 350.499536 L 391.999845 334.000285 L 375.999788 316.00035 L 354.000098 313.500244 L 334.000285 353.49987 " transform="matrix(3.779528,0,0,3.779528,0,0)"/>
<path style="fill:none;stroke-width:2;stroke-linecap:butt;stroke-linejoin:miter;stroke:rgb(0%,0%,0%);stroke-opacity:1;stroke-miterlimit:4;" d="M 355.999976 377.500472 L 357.499626 375.999788 L 369.499927 359.999731 L 385.499984 343.999674 " transform="matrix(3.779528,0,0,3.779528,0,0)"/>
<path style="fill:none;stroke-width:2;stroke-linecap:butt;stroke-linejoin:miter;stroke:rgb(0%,0%,0%);stroke-opacity:1;stroke-miterlimit:4;" d="M 375.000366 342.500024 L 364.999943 358.500081 L 352.500448 375.000366 L 368.000277 353.49987 L 375.499561 353.49987 " transform="matrix(3.779528,0,0,3.779528,0,0)"/>
<path style="fill:none;stroke-width:2;stroke-linecap:butt;stroke-linejoin:miter;stroke:rgb(0%,0%,0%);stroke-opacity:1;stroke-miterlimit:4;" d="M 393.000301 357.000431 L 382.999878 373.000488 L 373.000488 388.999512 L 366.499593 398.499707 L 382.000456 370.000155 L 398.000513 350.000342 L 413.999536 361.500415 L 429.999593 372.000033 L 445.99965 373.99991 L 461.999707 372.000033 L 477.999764 358.500081 L 493.999821 394.499951 L 509.999878 406.000024 " transform="matrix(3.779528,0,0,3.779528,0,0)"/>
<path style="fill:none;stroke-width:2;stroke-linecap:butt;stroke-linejoin:miter;stroke:rgb(0%,0%,0%);stroke-opacity:1;stroke-miterlimit:4;" d="M 504.000244 397.000057 L 488.000187 368.999699 " transform="matrix(3.779528,0,0,3.779528,0,0)"/>
<path style="fill:none;stroke-width:2;stroke-linecap:butt;stroke-linejoin:miter;stroke:rgb(0%,0%,0%);stroke-opacity:1;stroke-miterlimit:4;" d="M 481.000098 362.499837 L 484.999854 378.499894 L 495.000277 394.499951 L 509.49965 410.500008 L 501.500138 442.500122 L 495.000277 458.500179 L 484.999854 474.500236 L 465.000041 490.000065 L 462.499935 505.499894 L 478.499992 507.499772 " transform="matrix(3.779528,0,0,3.779528,0,0)"/>
<path style="fill:none;stroke-width:2;stroke-linecap:butt;stroke-linejoin:miter;stroke:rgb(0%,0%,0%);stroke-opacity:1;stroke-miterlimit:4;" d="M 429.999593 377.999666 L 414.499764 395.999601 L 398.999935 416.000448 L 382.999878 434.000382 L 366.999821 441.999894 L 350.999764 442.500122 L 334.999707 420.500431 " transform="matrix(3.779528,0,0,3.779528,0,0)"/>
<path style="fill:none;stroke-width:2;stroke-linecap:butt;stroke-linejoin:miter;stroke:rgb(0%,0%,0%);stroke-opacity:1;stroke-miterlimit:4;" d="M 325.499512 416.000448 L 331.500179 431.500277 " transform="matrix(3.779528,0,0,3.779528,0,0)"/>
<path style="fill:none;stroke-width:2;stroke-linecap:butt;stroke-linejoin:miter;stroke:rgb(0%,0%,0%);stroke-opacity:1;stroke-miterlimit:4;" d="M 323.999862 414.999992 L 309.999683 431.000049 " transform="matrix(3.779528,0,0,3.779528,0,0)"/>
<path style="fill:none;stroke-width:2;stroke-linecap:butt;stroke-linejoin:miter;stroke:rgb(0%,0%,0%);stroke-opacity:1;stroke-miterlimit:4;" d="M 307.499577 424.500187 L 319.499878 408.50013 L 325.499512 392.500073 L 327.500423 376.500016 L 333.500057 360.499959 L 337.499813 344.499902 L 350.499536 312.499788 L 350.999764 296.499731 L 341.000374 280.499674 L 345.00013 264.499618 L 347.000008 248.000366 L 352.999642 232.000309 L 366.999821 214.000374 L 350.499536 193.999528 " transform="matrix(3.779528,0,0,3.779528,0,0)"/>
<path style="fill:none;stroke-width:2;stroke-linecap:butt;stroke-linejoin:miter;stroke:rgb(0%,0%,0%);stroke-opacity:1;stroke-miterlimit:4;" d="M 352.00022 189.499544 L 366.499593 205.499601 L 396.499829 221.499658 L 426.500065 236.000065 L 442.500122 236.000065 L 458.500179 230.000431 " transform="matrix(3.779528,0,0,3.779528,0,0)"/>
<path style="fill:none;stroke-width:2;stroke-linecap:butt;stroke-linejoin:miter;stroke:rgb(0%,0%,0%);stroke-opacity:1;stroke-miterlimit:4;" d="M 482.499748 230.499626 L 465.000041 214.499569 L 450.999862 198.499512 " transform="matrix(3.779528,0,0,3.779528,0,0)"/>
<path style="fill:none;stroke-width:2;stroke-linecap:butt;stroke-linejoin:miter;stroke:rgb(0%,0%,0%);stroke-opacity:1;stroke-miterlimit:4;" d="M 440.000016 198.499512 L 434.000382 214.999797 L 431.500277 216.999674 " transform="matrix(3.779528,0,0,3.779528,0,0)"/>
<path style="fill:none;stroke-width:2;stroke-linecap:butt;stroke-linejoin:miter;stroke:rgb(0%,0%,0%);stroke-opacity:1;stroke-miterlimit:4;" d="M 404.000146 193.000106 L 388.00009 197.50009 " transform="matrix(3.779528,0,0,3.779528,0,0)"/>
<path style="fill:none;stroke-width:2;stroke-linecap:butt;stroke-linejoin:miter;stroke:rgb(0%,0%,0%);stroke-opacity:1;stroke-miterlimit:4;" d="M 366.000399 240.500049 L 382.49965 237.999943 L 398.000513 241.999699 L 413.500342 248.000366 " transform="matrix(3.779528,0,0,3.779528,0,0)"/>
<path style="fill:none;stroke-width:2;stroke-linecap:butt;stroke-linejoin:miter;stroke:rgb(0%,0%,0%);stroke-opacity:1;stroke-miterlimit:4;" d="M 400.999813 248.499561 L 425.000415 264.000423 L 441.000472 280.00048 L 456.999495 295.500309 L 472.500358 311.500366 L 479.999642 327.500423 L 479.999642 343.50048 L 467.500146 359.499504 " transform="matrix(3.779528,0,0,3.779528,0,0)"/>
<path style="fill:none;stroke-width:2;stroke-linecap:butt;stroke-linejoin:miter;stroke:rgb(0%,0%,0%);stroke-opacity:1;stroke-miterlimit:4;" d="M 406.000024 350.000342 L 427.999715 366.499593 L 420.000203 389.999967 L 407.499674 406.000024 L 391.499618 421.499854 L 373.499683 436.999683 " transform="matrix(3.779528,0,0,3.779528,0,0)"/>
<path style="fill:none;stroke-width:2;stroke-linecap:butt;stroke-linejoin:miter;stroke:rgb(0%,0%,0%);stroke-opacity:1;stroke-miterlimit:4;" d="M 291.000326 467.500146 L 274.500041 466.999919 L 258.499984 468.999797 L 242.499927 477.000342 L 225.999642 493.000399 L 223.999764 499.50026 L 233.499959 484.000431 L 261.00009 467.500146 " transform="matrix(3.779528,0,0,3.779528,0,0)"/>
<path style="fill:none;stroke-width:2;stroke-linecap:butt;stroke-linejoin:miter;stroke:rgb(0%,0%,0%);stroke-opacity:1;stroke-miterlimit:4;" d="M 259.999634 475.000464 L 236.000065 490.999487 L 226.49987 506.999544 L 237.999943 488.999609 L 254 477.000342 L 269.499829 474.500236 L 285.499886 472.500358 L 300.999715 476.500114 L 320.999528 472.00013 L 336.500391 463.500391 L 352.500448 463.500391 L 368.500505 465.500269 L 384.999756 471.499902 L 401.500041 481.500326 L 417.500098 491.499715 L 434.000382 495.500505 L 450.000439 500.000488 L 466.499691 490.000065 L 482.499748 475.999886 L 495.000277 466.499691 L 511.000334 450.499634 " transform="matrix(3.779528,0,0,3.779528,0,0)"/>
<path style="fill:none;stroke-width:2;stroke-linecap:butt;stroke-linejoin:miter;stroke:rgb(0%,0%,0%);stroke-opacity:1;stroke-miterlimit:4;" d="M 509.49965 238.500171 L 493.000399 238.500171 L 477.499536 236.500293 L 461.500513 236.500293 L 445.99965 239.999821 L 423.999959 241.999699 L 407.999902 232.499504 L 391.999845 226.49987 L 375.999788 220.000008 L 359.999731 223.499536 L 343.50048 249.500016 " transform="matrix(3.779528,0,0,3.779528,0,0)"/>
<path style="fill:none;stroke-width:2;stroke-linecap:butt;stroke-linejoin:miter;stroke:rgb(0%,0%,0%);stroke-opacity:1;stroke-miterlimit:4;" d="M 330.499723 267.499951 L 314.999894 265.500073 L 298.999837 265.500073 " transform="matrix(3.779528,0,0,3.779528,0,0)"/>
<path style="fill:none;stroke-width:2;stroke-linecap:butt;stroke-linejoin:miter;stroke:rgb(0%,0%,0%);stroke-opacity:1;stroke-miterlimit:4;" d="M 298.000415 266.000301 L 313.500244 243.500382 L 329.000073 232.000309 L 314.499666 234.000187 L 300.499487 250.500472 L 289.99987 266.499495 L 275.999691 282.99978 L 246.99991 307.000382 L 261.00009 323.000439 L 257.000334 339.000496 L 250.999666 355.499748 L 246.99991 368.999699 L 232.499504 384.999756 " transform="matrix(3.779528,0,0,3.779528,0,0)"/>
<path style="fill:none;stroke-width:2;stroke-linecap:butt;stroke-linejoin:miter;stroke:rgb(0%,0%,0%);stroke-opacity:1;stroke-miterlimit:4;" d="M 237.999943 387.499862 L 222.500114 389.999967 L 206.500057 382.000456 L 190.5 374.500138 L 174.499943 392.500073 L 157.999658 410.500008 L 141.999601 426.500065 L 125.50035 442.500122 L 109.500293 447.999528 L 93.500236 445.99965 " transform="matrix(3.779528,0,0,3.779528,0,0)"/>
<path style="fill:none;stroke-width:2;stroke-linecap:butt;stroke-linejoin:miter;stroke:rgb(0%,0%,0%);stroke-opacity:1;stroke-miterlimit:4;" d="M 89.999674 448.999984 L 121.499561 480.49987 L 137.499618 464.499813 L 153.999902 448.999984 L 169.999959 438.999561 L 186.000016 427.000293 L 201.499845 415.50022 L 218.00013 407.499674 L 234.000187 407.499674 " transform="matrix(3.779528,0,0,3.779528,0,0)"/>
<path style="fill:none;stroke-width:2;stroke-linecap:butt;stroke-linejoin:miter;stroke:rgb(0%,0%,0%);stroke-opacity:1;stroke-miterlimit:4;" d="M 252.50035 436.999683 L 236.500293 452.499512 L 218.999552 468.499569 L 203.499723 484.499626 L 185.499788 500.499683 L 197.50009 490.500293 L 214.000374 474.500236 L 230.000431 460.500057 L 246.000488 444.5 L 261.999512 436.999683 L 277.999569 438.999561 L 293.999626 436.500488 L 310.49991 422.000081 L 326.499967 398.000513 " transform="matrix(3.779528,0,0,3.779528,0,0)"/>
<path style="fill:none;stroke-width:2;stroke-linecap:butt;stroke-linejoin:miter;stroke:rgb(0%,0%,0%);stroke-opacity:1;stroke-miterlimit:4;" d="M 287.999992 351.499992 L 289.99987 335.499935 L 293.999626 319.499878 L 298.000415 303.499821 L 304.000049 305.499699 " transform="matrix(3.779528,0,0,3.779528,0,0)"/>
<path style="fill:none;stroke-width:2;stroke-linecap:butt;stroke-linejoin:miter;stroke:rgb(0%,0%,0%);stroke-opacity:1;stroke-miterlimit:4;" d="M 293.999626 301.499943 L 291.999748 296.999959 L 286.000114 313.500244 L 282.000358 329.500301 " transform="matrix(3.779528,0,0,3.779528,0,0)"/>
<path style="fill:none;stroke-width:2;stroke-linecap:butt;stroke-linejoin:miter;stroke:rgb(0%,0%,0%);stroke-opacity:1;stroke-miterlimit:4;" d="M 285.499886 313.000016 L 300.000293 291.000326 L 289.99987 292.499976 L 284.000236 307.999805 L 278.499797 323.999862 L 286.500342 299.500065 L 302.500399 281.50013 L 318.99965 281.50013 " transform="matrix(3.779528,0,0,3.779528,0,0)"/>
<path style="fill:none;stroke-width:2;stroke-linecap:butt;stroke-linejoin:miter;stroke:rgb(0%,0%,0%);stroke-opacity:1;stroke-miterlimit:4;" d="M 293.500431 302.000171 L 289.000448 318.000228 L 284.999658 333.500057 L 282.99978 349.500114 " transform="matrix(3.779528,0,0,3.779528,0,0)"/>
<path style="fill:none;stroke-width:2;stroke-linecap:butt;stroke-linejoin:miter;stroke:rgb(0%,0%,0%);stroke-opacity:1;stroke-miterlimit:4;" d="M 259.999634 327.999618 L 254 366.499593 L 232.000309 386.999634 L 215.500024 382.999878 L 200.000195 359.000309 L 188.500122 336.500391 L 172.500065 327.999618 L 153.999902 325.499512 L 137.999845 321.499756 L 122.500016 320.999528 L 107.000187 319.499878 L 91.00013 315.500122 L 94.499658 303.499821 L 62.499544 297.500187 " transform="matrix(3.779528,0,0,3.779528,0,0)"/>
<path style="fill:none;stroke-width:2;stroke-linecap:butt;stroke-linejoin:miter;stroke:rgb(0%,0%,0%);stroke-opacity:1;stroke-miterlimit:4;" d="M 75.999495 295.999504 L 91.999552 302.500399 " transform="matrix(3.779528,0,0,3.779528,0,0)"/>
<path style="fill:none;stroke-width:2;stroke-linecap:butt;stroke-linejoin:miter;stroke:rgb(0%,0%,0%);stroke-opacity:1;stroke-miterlimit:4;" d="M 76.999951 290.500098 L 92.49978 292.499976 L 116.500382 293.999626 L 130.999756 305.499699 L 155.499552 303.499821 L 171.999837 305.499699 L 187.999894 309.500488 " transform="matrix(3.779528,0,0,3.779528,0,0)"/>
<path style="fill:none;stroke-width:2;stroke-linecap:butt;stroke-linejoin:miter;stroke:rgb(0%,0%,0%);stroke-opacity:1;stroke-miterlimit:4;" d="M 180.000382 289.499642 L 164.000326 285.499886 L 147.500041 279.500252 L 131.499984 273.499585 L 116.000155 270.000057 L 100.500326 268.000179 L 84.500269 265.500073 " transform="matrix(3.779528,0,0,3.779528,0,0)"/>
<path style="fill:none;stroke-width:2;stroke-linecap:butt;stroke-linejoin:miter;stroke:rgb(0%,0%,0%);stroke-opacity:1;stroke-miterlimit:4;" d="M 87.999797 267.499951 L 114.000277 269.499829 L 146.000391 284.999658 L 182.00026 291.000326 " transform="matrix(3.779528,0,0,3.779528,0,0)"/>
<path style="fill:none;stroke-width:2;stroke-linecap:butt;stroke-linejoin:miter;stroke:rgb(0%,0%,0%);stroke-opacity:1;stroke-miterlimit:4;" d="M 204.500179 302.500399 L 188.500122 282.499552 L 171.999837 274.500041 L 155.99978 270.500285 L 139.499495 266.499495 L 123.500472 262.49974 L 107.999609 260.499862 L 92.49978 259.999634 L 76.499723 261.500317 L 60.499666 283.500008 L 36.500098 275.500496 " transform="matrix(3.779528,0,0,3.779528,0,0)"/>
<path style="fill:none;stroke-width:2;stroke-linecap:butt;stroke-linejoin:miter;stroke:rgb(0%,0%,0%);stroke-opacity:1;stroke-miterlimit:4;" d="M 28.000358 274.500041 L 44.000415 270.500285 " transform="matrix(3.779528,0,0,3.779528,0,0)"/>
<path style="fill:none;stroke-width:2;stroke-linecap:butt;stroke-linejoin:miter;stroke:rgb(0%,0%,0%);stroke-opacity:1;stroke-miterlimit:4;" d="M 33.499764 282.99978 L 17.499707 278.499797 L 1.49965 279.000024 " transform="matrix(3.779528,0,0,3.779528,0,0)"/>
<path style="fill:none;stroke-width:2;stroke-linecap:butt;stroke-linejoin:miter;stroke:rgb(0%,0%,0%);stroke-opacity:1;stroke-miterlimit:4;" d="M 1.000456 271.999935 L 17.000513 271.999935 L 33.499764 265.500073 L 49.499821 261.999512 L 65.499878 259.999634 L 81.499935 243.999577 L 91.500358 254 L 107.999609 254 L 124.499894 255.999878 L 140.499951 259.999634 L 156.500008 264.000423 L 172.500065 270.000057 L 187.999894 275.999691 L 203.999951 289.499642 " transform="matrix(3.779528,0,0,3.779528,0,0)"/>
<path style="fill:none;stroke-width:2;stroke-linecap:butt;stroke-linejoin:miter;stroke:rgb(0%,0%,0%);stroke-opacity:1;stroke-miterlimit:4;" d="M 218.00013 317.5 L 216.000252 348.999886 L 216.000252 332.999829 " transform="matrix(3.779528,0,0,3.779528,0,0)"/>
<path style="fill:none;stroke-width:2;stroke-linecap:butt;stroke-linejoin:miter;stroke:rgb(0%,0%,0%);stroke-opacity:1;stroke-miterlimit:4;" d="M 168.000081 327.500423 L 191.99965 343.50048 L 189.999772 359.499504 L 180.000382 375.499561 L 166.000203 391.999845 L 152.000024 407.999902 L 135.49974 423.999959 L 117.499805 439.499788 " transform="matrix(3.779528,0,0,3.779528,0,0)"/>
<path style="fill:none;stroke-width:2;stroke-linecap:butt;stroke-linejoin:miter;stroke:rgb(0%,0%,0%);stroke-opacity:1;stroke-miterlimit:4;" d="M 132.999634 438.000138 L 147.500041 421.499854 L 164.000326 406.000024 L 177.500277 389.49974 L 191.500456 373.499683 L 185.499788 371.499805 L 169.499731 389.49974 L 153.00048 407.499674 L 120.500138 440.000016 L 104.500081 441.999894 L 87.999797 446.499878 L 71.99974 427.000293 " transform="matrix(3.779528,0,0,3.779528,0,0)"/>
<path style="fill:none;stroke-width:2;stroke-linecap:butt;stroke-linejoin:miter;stroke:rgb(0%,0%,0%);stroke-opacity:1;stroke-miterlimit:4;" d="M 74.499845 359.999731 L 58.499788 373.99991 L 41.999504 385.499984 L 26.00048 395.500407 L 10.000423 402.999691 L 26.00048 401.500041 L 51.999927 385.499984 L 71.99974 369.499927 L 86.500146 352.00022 L 92.49978 336.000163 L 88.500024 316.499544 L 78.499601 300.000293 L 70.50009 298.000415 L 68.500212 282.000358 L 84.000041 266.000301 L 67.999984 282.000358 " transform="matrix(3.779528,0,0,3.779528,0,0)"/>
<path style="fill:none;stroke-width:2;stroke-linecap:butt;stroke-linejoin:miter;stroke:rgb(0%,0%,0%);stroke-opacity:1;stroke-miterlimit:4;" d="M 37.49952 305.000505 L 21.500496 305.000505 " transform="matrix(3.779528,0,0,3.779528,0,0)"/>
<path style="fill:none;stroke-width:2;stroke-linecap:butt;stroke-linejoin:miter;stroke:rgb(0%,0%,0%);stroke-opacity:1;stroke-miterlimit:4;" d="M 39.500431 300.999715 L 23.500374 293.000203 L 7.500317 290.500098 L 3.499528 300.499487 " transform="matrix(3.779528,0,0,3.779528,0,0)"/>
<path style="fill:none;stroke-width:2;stroke-linecap:butt;stroke-linejoin:miter;stroke:rgb(0%,0%,0%);stroke-opacity:1;stroke-miterlimit:4;" d="M 1.999878 293.999626 L 17.999935 295.999504 L 3.999756 309.999683 L 6.499862 325.99974 " transform="matrix(3.779528,0,0,3.779528,0,0)"/>
<path style="fill:none;stroke-width:2;stroke-linecap:butt;stroke-linejoin:miter;stroke:rgb(0%,0%,0%);stroke-opacity:1;stroke-miterlimit:4;" d="M 7.500317 353.49987 L 23.500374 343.50048 L 39.500431 333.500057 L 55.500488 327.500423 L 80.000285 319.499878 L 85.999919 335.499935 L 80.000285 351.499992 L 65.499878 366.999821 L 44.999837 382.999878 L 17.499707 398.999935 L 10.000423 409.000358 L 25.500252 401.500041 L 41.500309 393.499495 L 57.500366 381.500228 L 73.999618 368.000277 L 89.999674 341.999797 " transform="matrix(3.779528,0,0,3.779528,0,0)"/>
<path style="fill:none;stroke-width:2;stroke-linecap:butt;stroke-linejoin:miter;stroke:rgb(0%,0%,0%);stroke-opacity:1;stroke-miterlimit:4;" d="M 130.000334 339.999919 L 114.500505 356.500203 L 98.999642 374.500138 L 82.999585 393.999723 L 66.999528 427.999715 L 50.500277 422.000081 L 34.50022 419.499976 L 17.999935 422.000081 L 1.999878 423.999959 " transform="matrix(3.779528,0,0,3.779528,0,0)"/>
<path style="fill:none;stroke-width:2;stroke-linecap:butt;stroke-linejoin:miter;stroke:rgb(0%,0%,0%);stroke-opacity:1;stroke-miterlimit:4;" d="M 1.999878 429.500399 L 17.999935 425.999837 L 33.999992 426.500065 L 50.000049 428.499943 L 65.499878 434.000382 L 81.499935 447.999528 L 98.00022 466.000496 L 114.000277 479.500448 L 129.500106 500.99991 " transform="matrix(3.779528,0,0,3.779528,0,0)"/>
<path style="fill:none;stroke-width:2;stroke-linecap:butt;stroke-linejoin:miter;stroke:rgb(0%,0%,0%);stroke-opacity:1;stroke-miterlimit:4;" d="M 200.000195 415.50022 L 180.000382 431.500277 L 157.999658 447.000106 L 139.999723 463.000163 L 134.500317 479.500448 L 140.499951 455.499845 L 156.500008 443.00035 L 188.500122 418.999748 L 204.500179 407.499674 L 220.500236 401.500041 L 236.500293 403.499919 " transform="matrix(3.779528,0,0,3.779528,0,0)"/>
<path style="fill:none;stroke-width:2;stroke-linecap:butt;stroke-linejoin:miter;stroke:rgb(0%,0%,0%);stroke-opacity:1;stroke-miterlimit:4;" d="M 256.500106 442.500122 L 224.499992 473.49978 L 206.500057 489.499837 L 193.999528 499.000033 L 209.999585 485.500081 L 225.500448 471.499902 L 241.500505 455.499845 L 257.499528 441.999894 L 273.999813 443.999772 L 289.99987 441.999894 L 305.999927 434.499577 L 321.999984 416.499642 L 338.000041 440.500244 L 354.000098 446.499878 L 370.000155 445.99965 L 386.500439 437.49991 L 402.500496 419.499976 L 418.49952 401.500041 " transform="matrix(3.779528,0,0,3.779528,0,0)"/>
<path style="fill:none;stroke-width:2;stroke-linecap:butt;stroke-linejoin:miter;stroke:rgb(0%,0%,0%);stroke-opacity:1;stroke-miterlimit:4;" d="M 443.999772 321.999984 L 429.999593 305.499699 L 409.99978 289.499642 L 392.500073 273.000391 " transform="matrix(3.779528,0,0,3.779528,0,0)"/>
<path style="fill:none;stroke-width:2;stroke-linecap:butt;stroke-linejoin:miter;stroke:rgb(0%,0%,0%);stroke-opacity:1;stroke-miterlimit:4;" d="M 381 257.999756 L 375.000366 257.499528 L 379.000122 273.000391 L 409.000358 280.999902 L 431.000049 296.999959 L 448.499756 313.000016 L 465.000041 329.000073 " transform="matrix(3.779528,0,0,3.779528,0,0)"/>
<path style="fill:none;stroke-width:2;stroke-linecap:butt;stroke-linejoin:miter;stroke:rgb(0%,0%,0%);stroke-opacity:1;stroke-miterlimit:4;" d="M 470.000252 332.000407 L 458.500179 316.00035 L 440.500244 299.500065 L 420.999626 283.500008 L 400.999813 268.000179 L 381 252.000122 " transform="matrix(3.779528,0,0,3.779528,0,0)"/>
<path style="fill:none;stroke-width:2;stroke-linecap:butt;stroke-linejoin:miter;stroke:rgb(0%,0%,0%);stroke-opacity:1;stroke-miterlimit:4;" d="M 377.500472 250.000244 L 363.500293 266.000301 L 361.500415 282.000358 L 357.000431 298.000415 L 360.499959 311.500366 L 350.000342 327.999618 L 343.50048 343.999674 L 339.499691 360.499959 L 334.999707 381 L 350.499536 354.99952 L 366.499593 334.999707 " transform="matrix(3.779528,0,0,3.779528,0,0)"/>
<path style="fill:none;stroke-width:2;stroke-linecap:butt;stroke-linejoin:miter;stroke:rgb(0%,0%,0%);stroke-opacity:1;stroke-miterlimit:4;" d="M 275.999691 295.999504 L 269.499829 311.999561 L 264.999845 327.500423 L 261.00009 343.50048 L 255.000456 359.499504 L 250.999666 375.999788 L 243.000155 391.999845 L 248.999788 393.999723 L 249.500016 409.99978 " transform="matrix(3.779528,0,0,3.779528,0,0)"/>
<path style="fill:none;stroke-width:2;stroke-linecap:butt;stroke-linejoin:miter;stroke:rgb(0%,0%,0%);stroke-opacity:1;stroke-miterlimit:4;" d="M 148.000269 364.499715 L 131.499984 382.999878 L 115.499927 402.500496 L 127.500228 388.500317 L 141.500407 372.000033 L 153.499674 354.99952 L 163.500098 339.000496 " transform="matrix(3.779528,0,0,3.779528,0,0)"/>
<path style="fill:none;stroke-width:2;stroke-linecap:butt;stroke-linejoin:miter;stroke:rgb(0%,0%,0%);stroke-opacity:1;stroke-miterlimit:4;" d="M 165.499976 338.500269 L 149.499919 354.500326 L 132.999634 374.500138 L 116.500382 392.500073 L 100.500326 412.499886 L 90.499902 418.999748 L 109.999487 402.500496 L 121.499561 386.500439 L 134.999512 370.000155 L 146.999813 353.49987 L 159.000114 337.499813 " transform="matrix(3.779528,0,0,3.779528,0,0)"/>
<path style="fill:none;stroke-width:2;stroke-linecap:butt;stroke-linejoin:miter;stroke:rgb(0%,0%,0%);stroke-opacity:1;stroke-miterlimit:4;" d="M 139.499495 338.000041 L 123.500472 354.000098 L 107.999609 370.000155 L 96.000342 386.000212 L 82.000163 402.500496 L 73.999618 418.49952 L 73.999618 434.499577 L 90.499902 450.000439 L 106.499959 466.000496 L 122.500016 481.500326 L 132.000212 497.999577 " transform="matrix(3.779528,0,0,3.779528,0,0)"/>
<path style="fill:none;stroke-width:2;stroke-linecap:butt;stroke-linejoin:miter;stroke:rgb(0%,0%,0%);stroke-opacity:1;stroke-miterlimit:4;" d="M 41.000081 316.499544 L 25.000024 314.000472 L 9.500195 317.5 L 45.500065 311.000138 L 43.500187 294.499854 L 27.50013 277.999569 " transform="matrix(3.779528,0,0,3.779528,0,0)"/>
<path style="fill:none;stroke-width:2;stroke-linecap:butt;stroke-linejoin:miter;stroke:rgb(0%,0%,0%);stroke-opacity:1;stroke-miterlimit:4;" d="M 27.50013 273.999813 L 47.499943 289.99987 L 53.499577 306.500155 L 33.499764 338.500269 L 1.999878 352.999642 L 17.999935 343.000252 L 33.999992 333.500057 L 50.000049 325.499512 " transform="matrix(3.779528,0,0,3.779528,0,0)"/>
<path style="fill:none;stroke-width:2;stroke-linecap:butt;stroke-linejoin:miter;stroke:rgb(0%,0%,0%);stroke-opacity:1;stroke-miterlimit:4;" d="M 1.999878 255.999878 L 10.000423 252.000122 L 26.00048 248.000366 L 41.999504 241.999699 L 57.999561 237.999943 L 43.500187 225.999642 " transform="matrix(3.779528,0,0,3.779528,0,0)"/>
<path style="fill:none;stroke-width:2;stroke-linecap:butt;stroke-linejoin:miter;stroke:rgb(0%,0%,0%);stroke-opacity:1;stroke-miterlimit:4;" d="M 50.000049 223.499536 L 33.999992 230.000431 L 17.999935 236.000065 L 1.999878 242.499927 L 51.999927 218.500358 " transform="matrix(3.779528,0,0,3.779528,0,0)"/>
<path style="fill:none;stroke-width:2;stroke-linecap:butt;stroke-linejoin:miter;stroke:rgb(0%,0%,0%);stroke-opacity:1;stroke-miterlimit:4;" d="M 64.99965 200.500423 L 82.999585 216.50048 L 82.999585 232.499504 L 76.999951 248.000366 L 64.99965 273.999813 L 60.999894 289.499642 L 66.999528 305.999927 L 42.999959 327.999618 L 14.999601 344.499902 L 7.500317 338.500269 L 23.500374 332.499601 L 39.000203 322.500212 L 55.00026 312.499788 L 70.50009 311.999561 L 85.999919 327.999618 L 101.999976 323.499634 L 117.499805 327.500423 L 133.499862 327.500423 " transform="matrix(3.779528,0,0,3.779528,0,0)"/>
<path style="fill:none;stroke-width:2;stroke-linecap:butt;stroke-linejoin:miter;stroke:rgb(0%,0%,0%);stroke-opacity:1;stroke-miterlimit:4;" d="M 165.499976 267.499951 L 197.50009 283.500008 L 209.500391 299.500065 " transform="matrix(3.779528,0,0,3.779528,0,0)"/>
<path style="fill:none;stroke-width:2;stroke-linecap:butt;stroke-linejoin:miter;stroke:rgb(0%,0%,0%);stroke-opacity:1;stroke-miterlimit:4;" d="M 192.499878 196.499634 L 182.00026 154.50013 L 180.000382 150.500374 L 178.499699 134.500317 L 182.500488 118.50026 L 174.499943 120.500138 " transform="matrix(3.779528,0,0,3.779528,0,0)"/>
<path style="fill:none;stroke-width:2;stroke-linecap:butt;stroke-linejoin:miter;stroke:rgb(0%,0%,0%);stroke-opacity:1;stroke-miterlimit:4;" d="M 178.499699 127 L 180.499577 112.999821 L 173.999715 129.500106 L 173.999715 144.999935 L 178.000505 160.999992 " transform="matrix(3.779528,0,0,3.779528,0,0)"/>
<path style="fill:none;stroke-width:2;stroke-linecap:butt;stroke-linejoin:miter;stroke:rgb(0%,0%,0%);stroke-opacity:1;stroke-miterlimit:4;" d="M 173.000293 201.499845 L 156.500008 197.50009 " transform="matrix(3.779528,0,0,3.779528,0,0)"/>
<path style="fill:none;stroke-width:2;stroke-linecap:butt;stroke-linejoin:miter;stroke:rgb(0%,0%,0%);stroke-opacity:1;stroke-miterlimit:4;" d="M 128.999878 186.000016 L 112.999821 171.999837 " transform="matrix(3.779528,0,0,3.779528,0,0)"/>
<path style="fill:none;stroke-width:2;stroke-linecap:butt;stroke-linejoin:miter;stroke:rgb(0%,0%,0%);stroke-opacity:1;stroke-miterlimit:4;" d="M 110.499715 171.499609 L 118.50026 187.499666 " transform="matrix(3.779528,0,0,3.779528,0,0)"/>
<path style="fill:none;stroke-width:2;stroke-linecap:butt;stroke-linejoin:miter;stroke:rgb(0%,0%,0%);stroke-opacity:1;stroke-miterlimit:4;" d="M 117.499805 177.000049 L 133.499862 193.000106 " transform="matrix(3.779528,0,0,3.779528,0,0)"/>
<path style="fill:none;stroke-width:2;stroke-linecap:butt;stroke-linejoin:miter;stroke:rgb(0%,0%,0%);stroke-opacity:1;stroke-miterlimit:4;" d="M 138.500073 128.999878 L 153.999902 148.999691 L 169.999959 165.499976 L 186.000016 177.500277 L 202.000073 201.499845 L 218.00013 211.500269 L 234.000187 213.500146 L 250.500472 198.000317 " transform="matrix(3.779528,0,0,3.779528,0,0)"/>
<path style="fill:none;stroke-width:2;stroke-linecap:butt;stroke-linejoin:miter;stroke:rgb(0%,0%,0%);stroke-opacity:1;stroke-miterlimit:4;" d="M 247.500138 131.499984 L 231.500081 109.500293 " transform="matrix(3.779528,0,0,3.779528,0,0)"/>
<path style="fill:none;stroke-width:2;stroke-linecap:butt;stroke-linejoin:miter;stroke:rgb(0%,0%,0%);stroke-opacity:1;stroke-miterlimit:4;" d="M 228.499748 112.499593 L 243.999577 134.00009 " transform="matrix(3.779528,0,0,3.779528,0,0)"/>
<path style="fill:none;stroke-width:2;stroke-linecap:butt;stroke-linejoin:miter;stroke:rgb(0%,0%,0%);stroke-opacity:1;stroke-miterlimit:4;" d="M 229.500203 147.500041 L 214.000374 125.000122 " transform="matrix(3.779528,0,0,3.779528,0,0)"/>
<path style="fill:none;stroke-width:2;stroke-linecap:butt;stroke-linejoin:miter;stroke:rgb(0%,0%,0%);stroke-opacity:1;stroke-miterlimit:4;" d="M 215.500024 124.499894 L 217.499902 140.499951 L 225.00022 156.500008 L 232.999731 172.500065 L 216.50048 178.000505 " transform="matrix(3.779528,0,0,3.779528,0,0)"/>
<path style="fill:none;stroke-width:2;stroke-linecap:butt;stroke-linejoin:miter;stroke:rgb(0%,0%,0%);stroke-opacity:1;stroke-miterlimit:4;" d="M 232.499504 166.500431 L 216.50048 132.999634 " transform="matrix(3.779528,0,0,3.779528,0,0)"/>
<path style="fill:none;stroke-width:2;stroke-linecap:butt;stroke-linejoin:miter;stroke:rgb(0%,0%,0%);stroke-opacity:1;stroke-miterlimit:4;" d="M 218.00013 125.999544 L 225.999642 141.999601 L 234.000187 157.999658 L 237.999943 174.499943 " transform="matrix(3.779528,0,0,3.779528,0,0)"/>
<path style="fill:none;stroke-width:2;stroke-linecap:butt;stroke-linejoin:miter;stroke:rgb(0%,0%,0%);stroke-opacity:1;stroke-miterlimit:4;" d="M 305.999927 149.499919 L 322.500212 151.499797 " transform="matrix(3.779528,0,0,3.779528,0,0)"/>
<path style="fill:none;stroke-width:2;stroke-linecap:butt;stroke-linejoin:miter;stroke:rgb(0%,0%,0%);stroke-opacity:1;stroke-miterlimit:4;" d="M 304.500277 145.500163 L 320.500334 145.500163 L 336.999585 137.000423 L 352.999642 128.999878 L 368.500505 121.000366 L 384.499528 105.000309 L 400.000391 85.499691 L 409.99978 75.500301 L 403.499919 91.999552 L 388.999512 107.999609 L 382.999878 123.999666 L 404.999569 139.999723 L 421.499854 155.99978 " transform="matrix(3.779528,0,0,3.779528,0,0)"/>
<path style="fill:none;stroke-width:2;stroke-linecap:butt;stroke-linejoin:miter;stroke:rgb(0%,0%,0%);stroke-opacity:1;stroke-miterlimit:4;" d="M 430.499821 162.499642 L 413.999536 148.500496 L 398.000513 132.500439 L 381.500228 122.500016 " transform="matrix(3.779528,0,0,3.779528,0,0)"/>
<path style="fill:none;stroke-width:2;stroke-linecap:butt;stroke-linejoin:miter;stroke:rgb(0%,0%,0%);stroke-opacity:1;stroke-miterlimit:4;" d="M 381 119.499683 L 397.000057 101.499748 " transform="matrix(3.779528,0,0,3.779528,0,0)"/>
<path style="fill:none;stroke-width:2;stroke-linecap:butt;stroke-linejoin:miter;stroke:rgb(0%,0%,0%);stroke-opacity:1;stroke-miterlimit:4;" d="M 376.500016 129.500106 L 400.000391 145.500163 L 418.000326 161.50022 L 434.000382 177.000049 L 438.000138 193.000106 L 432.499699 208.499935 L 416.499642 224.499992 L 429.999593 242.499927 L 438.000138 252.50035 L 436.00026 268.500407 L 452.000317 284.500464 L 463.999585 295.999504 L 481.500326 316.499544 L 485.500081 332.499601 L 491.999943 344.499902 L 486.499504 360.499959 L 490.500293 376.500016 L 500.499683 391.999845 L 510.500106 418.000326 L 506.50035 433.500155 L 502.499561 449.500212 L 494.500049 469.500024 L 490.500293 486.000309 L 488.500415 502.000366 " transform="matrix(3.779528,0,0,3.779528,0,0)"/>
<path style="fill:none;stroke-width:2;stroke-linecap:butt;stroke-linejoin:miter;stroke:rgb(0%,0%,0%);stroke-opacity:1;stroke-miterlimit:4;" d="M 366.000399 309.00026 L 348.000464 279.000024 L 334.000285 277.000146 L 318.000228 272.500163 L 302.000171 272.500163 L 286.000114 280.00048 L 270.500285 309.999683 L 262.49974 305.999927 L 278.499797 289.99987 L 292.499976 273.999813 L 311.000138 247.500138 L 323.000439 231.500081 " transform="matrix(3.779528,0,0,3.779528,0,0)"/>
<path style="fill:none;stroke-width:2;stroke-linecap:butt;stroke-linejoin:miter;stroke:rgb(0%,0%,0%);stroke-opacity:1;stroke-miterlimit:4;" d="M 392.500073 169.499731 L 376.500016 155.000358 L 360.499959 144.999935 " transform="matrix(3.779528,0,0,3.779528,0,0)"/>
<path style="fill:none;stroke-width:2;stroke-linecap:butt;stroke-linejoin:miter;stroke:rgb(0%,0%,0%);stroke-opacity:1;stroke-miterlimit:4;" d="M 359.000309 145.500163 L 375.000366 147.500041 L 391.000423 159.500342 L 407.00048 177.500277 " transform="matrix(3.779528,0,0,3.779528,0,0)"/>
<path style="fill:none;stroke-width:2;stroke-linecap:butt;stroke-linejoin:miter;stroke:rgb(0%,0%,0%);stroke-opacity:1;stroke-miterlimit:4;" d="M 405.499797 178.999927 L 389.999967 162.99987 L 368.000277 146.999813 " transform="matrix(3.779528,0,0,3.779528,0,0)"/>
<path style="fill:none;stroke-width:2;stroke-linecap:butt;stroke-linejoin:miter;stroke:rgb(0%,0%,0%);stroke-opacity:1;stroke-miterlimit:4;" d="M 360.499959 142.499829 L 376.500016 158.499886 L 394.499951 174.499943 L 404.500374 192.499878 " transform="matrix(3.779528,0,0,3.779528,0,0)"/>
<path style="fill:none;stroke-width:2;stroke-linecap:butt;stroke-linejoin:miter;stroke:rgb(0%,0%,0%);stroke-opacity:1;stroke-miterlimit:4;" d="M 472.500358 188.500122 L 481.000098 204.500179 L 486.999731 212.999919 L 502.999788 213.500146 " transform="matrix(3.779528,0,0,3.779528,0,0)"/>
<path style="fill:none;stroke-width:2;stroke-linecap:butt;stroke-linejoin:miter;stroke:rgb(0%,0%,0%);stroke-opacity:1;stroke-miterlimit:4;" d="M 495.000277 157.500464 L 479.00022 155.499552 L 463.000163 155.499552 L 447.000106 162.000448 L 429.000171 169.999959 L 413.000114 156.500008 L 397.000057 140.499951 L 381 130.499528 L 364.999943 130.499528 L 348.999886 136.500195 L 332.999829 146.499585 L 336.999585 137.000423 L 368.999699 121.000366 L 385.499984 105.000309 L 398.000513 89.000252 L 406.000024 73.000195 L 410.500008 57.000138 L 410.500008 53.000382 " transform="matrix(3.779528,0,0,3.779528,0,0)"/>
<path style="fill:none;stroke-width:2;stroke-linecap:butt;stroke-linejoin:miter;stroke:rgb(0%,0%,0%);stroke-opacity:1;stroke-miterlimit:4;" d="M 413.999536 56.49991 L 415.50022 71.99974 L 415.50022 103.499626 L 418.000326 119.99991 L 422.000081 135.999967 L 432.000505 152.000024 " transform="matrix(3.779528,0,0,3.779528,0,0)"/>
<path style="fill:none;stroke-width:2;stroke-linecap:butt;stroke-linejoin:miter;stroke:rgb(0%,0%,0%);stroke-opacity:1;stroke-miterlimit:4;" d="M 366.499593 130.499528 L 332.499601 146.499585 " transform="matrix(3.779528,0,0,3.779528,0,0)"/>
<path style="fill:none;stroke-width:2;stroke-linecap:butt;stroke-linejoin:miter;stroke:rgb(0%,0%,0%);stroke-opacity:1;stroke-miterlimit:4;" d="M 293.000203 95.500114 L 309.500488 81.499935 L 325.499512 69.499634 L 341.499569 48.000171 L 327.500423 63.5 L 341.999797 55.500488 L 352.00022 42.999959 L 338.000041 59.000016 L 318.000228 75.000073 L 298.000415 85.000496 L 284.000236 100.99952 L 282.000358 116.999577 L 294.499854 89.50048 L 310.49991 75.500301 " transform="matrix(3.779528,0,0,3.779528,0,0)"/>
<path style="fill:none;stroke-width:2;stroke-linecap:butt;stroke-linejoin:miter;stroke:rgb(0%,0%,0%);stroke-opacity:1;stroke-miterlimit:4;" d="M 300.000293 89.999674 L 289.499642 105.999731 " transform="matrix(3.779528,0,0,3.779528,0,0)"/>
<path style="fill:none;stroke-width:2;stroke-linecap:butt;stroke-linejoin:miter;stroke:rgb(0%,0%,0%);stroke-opacity:1;stroke-miterlimit:4;" d="M 230.999854 75.999495 L 214.999797 64.000228 " transform="matrix(3.779528,0,0,3.779528,0,0)"/>
<path style="fill:none;stroke-width:2;stroke-linecap:butt;stroke-linejoin:miter;stroke:rgb(0%,0%,0%);stroke-opacity:1;stroke-miterlimit:4;" d="M 217.499902 61.500122 L 225.500448 77.500179 L 229.500203 93.500236 L 225.500448 109.000065 L 233.499959 125.000122 L 245.50026 140.499951 L 254 156.500008 L 256.500106 171.999837 L 255.000456 187.999894 L 249.500016 203.999951 " transform="matrix(3.779528,0,0,3.779528,0,0)"/>
<path style="fill:none;stroke-width:2;stroke-linecap:butt;stroke-linejoin:miter;stroke:rgb(0%,0%,0%);stroke-opacity:1;stroke-miterlimit:4;" d="M 280.00048 74.499845 L 264.000423 74.499845 L 248.000366 66.000106 L 232.499504 48.000171 L 216.50048 50.000049 L 200.500423 50.000049 " transform="matrix(3.779528,0,0,3.779528,0,0)"/>
<path style="fill:none;stroke-width:2;stroke-linecap:butt;stroke-linejoin:miter;stroke:rgb(0%,0%,0%);stroke-opacity:1;stroke-miterlimit:4;" d="M 222.500114 62.999772 L 232.499504 78.499601 L 234.500415 94.499658 L 236.500293 116.500382 L 248.499561 132.500439 L 256.500106 148.500496 L 261.00009 164.49952 L 261.00009 180.499577 L 257.499528 196.000439 L 248.999788 212.000496 " transform="matrix(3.779528,0,0,3.779528,0,0)"/>
<path style="fill:none;stroke-width:2;stroke-linecap:butt;stroke-linejoin:miter;stroke:rgb(0%,0%,0%);stroke-opacity:1;stroke-miterlimit:4;" d="M 170.500187 189.999772 L 154.50013 171.999837 L 137.999845 155.99978 L 121.999788 141.500407 L 105.999731 125.50035 " transform="matrix(3.779528,0,0,3.779528,0,0)"/>
<path style="fill:none;stroke-width:2;stroke-linecap:butt;stroke-linejoin:miter;stroke:rgb(0%,0%,0%);stroke-opacity:1;stroke-miterlimit:4;" d="M 108.499837 124.499894 L 127 140.499951 L 143.000057 156.500008 L 159.000114 171.999837 L 173.000293 187.999894 " transform="matrix(3.779528,0,0,3.779528,0,0)"/>
<path style="fill:none;stroke-width:2;stroke-linecap:butt;stroke-linejoin:miter;stroke:rgb(0%,0%,0%);stroke-opacity:1;stroke-miterlimit:4;" d="M 171.000415 183.49991 L 155.000358 165.499976 L 139.499495 149.499919 L 123.500472 135.49974 L 107.999609 121.000366 L 82.500391 123.000244 L 66.500334 139.000301 L 68.500212 137.000423 L 84.500269 121.499561 L 84.500269 129.500106 L 68.500212 145.500163 " transform="matrix(3.779528,0,0,3.779528,0,0)"/>
<path style="fill:none;stroke-width:2;stroke-linecap:butt;stroke-linejoin:miter;stroke:rgb(0%,0%,0%);stroke-opacity:1;stroke-miterlimit:4;" d="M 78.999829 134.500317 L 64.500456 150.500374 L 80.500513 168.000081 L 96.499536 184.000138 L 112.000399 202.500301 L 128.000456 218.500358 L 144.000513 234.000187 L 159.999536 239.499593 L 175.500399 236.999487 L 191.500456 216.50048 " transform="matrix(3.779528,0,0,3.779528,0,0)"/>
<path style="fill:none;stroke-width:2;stroke-linecap:butt;stroke-linejoin:miter;stroke:rgb(0%,0%,0%);stroke-opacity:1;stroke-miterlimit:4;" d="M 172.500065 160.999992 L 157.000236 142.499829 L 141.000179 122.500016 L 125.50035 114.500505 L 109.500293 104.500081 L 93.500236 104.500081 L 77.500179 108.499837 L 61.500122 125.000122 " transform="matrix(3.779528,0,0,3.779528,0,0)"/>
<path style="fill:none;stroke-width:2;stroke-linecap:butt;stroke-linejoin:miter;stroke:rgb(0%,0%,0%);stroke-opacity:1;stroke-miterlimit:4;" d="M 55.500488 165.499976 L 39.000203 169.499731 L 17.000513 179.500155 L 1.000456 160.999992 " transform="matrix(3.779528,0,0,3.779528,0,0)"/>
<path style="fill:none;stroke-width:2;stroke-linecap:butt;stroke-linejoin:miter;stroke:rgb(0%,0%,0%);stroke-opacity:1;stroke-miterlimit:4;" d="M 1.49965 155.99978 L 17.499707 166.000203 L 49.499821 162.000448 L 65.499878 161.50022 L 82.000163 178.999927 L 98.00022 195.500212 L 114.500505 211.500269 L 130.499528 229.500203 L 146.499585 239.999821 L 162.000448 246.000488 L 178.000505 241.999699 L 194.499756 225.999642 L 210.499813 214.000374 L 227.000098 219.49978 L 242.499927 215.500024 L 258.499984 189.499544 " transform="matrix(3.779528,0,0,3.779528,0,0)"/>
<path style="fill:none;stroke-width:2;stroke-linecap:butt;stroke-linejoin:miter;stroke:rgb(0%,0%,0%);stroke-opacity:1;stroke-miterlimit:4;" d="M 150.000146 237.999943 L 130.499528 221.999886 L 114.500505 205.999829 L 100.500326 189.999772 L 84.500269 173.999715 L 70.50009 157.999658 L 58.499788 141.999601 L 60.000472 125.999544 L 69.999862 109.500293 L 57.999561 97.499992 L 41.999504 91.500358 L 26.00048 84.000041 L 14.000179 101.999976 L 16.500285 85.999919 L 12.499495 69.999862 L 8.49974 53.999805 L 24.499797 37.999748 L 34.50022 17.999935 L 18.500163 17.499707 L 2.500106 17.499707 " transform="matrix(3.779528,0,0,3.779528,0,0)"/>
<path style="fill:none;stroke-width:2;stroke-linecap:butt;stroke-linejoin:miter;stroke:rgb(0%,0%,0%);stroke-opacity:1;stroke-miterlimit:4;" d="M 1.49965 22.499919 L 17.499707 22.499919 L 33.499764 24.499797 " transform="matrix(3.779528,0,0,3.779528,0,0)"/>
<path style="fill:none;stroke-width:2;stroke-linecap:butt;stroke-linejoin:miter;stroke:rgb(0%,0%,0%);stroke-opacity:1;stroke-miterlimit:4;" d="M 32.999536 39.999626 L 13.499951 55.999683 L 19.000391 71.499512 L 41.500309 87.499569 L 65.499878 101.499748 L 57.999561 117.499805 L 53.999805 133.499862 L 56.49991 150.000146 L 64.500456 159.999536 L 73.000195 170.500187 L 89.000252 186.500244 L 103.000431 202.500301 L 119.000488 218.500358 L 134.999512 234.000187 " transform="matrix(3.779528,0,0,3.779528,0,0)"/>
<path style="fill:none;stroke-width:2;stroke-linecap:butt;stroke-linejoin:miter;stroke:rgb(0%,0%,0%);stroke-opacity:1;stroke-miterlimit:4;" d="M 81.499935 212.999919 L 64.99965 198.99974 L 49.499821 196.999862 L 33.499764 200.999618 L 17.499707 207.500513 L 1.999878 211.500269 " transform="matrix(3.779528,0,0,3.779528,0,0)"/>
<path style="fill:none;stroke-width:2;stroke-linecap:butt;stroke-linejoin:miter;stroke:rgb(0%,0%,0%);stroke-opacity:1;stroke-miterlimit:4;" d="M 8.999967 162.000448 L 21.000269 177.500277 L 25.500252 193.500334 L 5.999634 205.499601 L 30.500464 195.500212 L 46.499487 191.99965 L 62.999772 191.99965 L 78.999829 200.000195 L 104.500081 218.00013 " transform="matrix(3.779528,0,0,3.779528,0,0)"/>
<path style="fill:none;stroke-width:2;stroke-linecap:butt;stroke-linejoin:miter;stroke:rgb(0%,0%,0%);stroke-opacity:1;stroke-miterlimit:4;" d="M 63.5 193.500334 L 85.499691 209.500391 L 87.999797 225.500448 L 84.000041 241.500505 L 64.000228 261.500317 L 55.999683 277.500374 L 53.999805 293.500431 L 66.000106 317.5 L 33.999992 323.499634 L 15.499829 327.999618 L 3.499528 327.999618 L 9.500195 332.000407 L 25.500252 323.999862 " transform="matrix(3.779528,0,0,3.779528,0,0)"/>
<path style="fill:none;stroke-width:2;stroke-linecap:butt;stroke-linejoin:miter;stroke:rgb(0%,0%,0%);stroke-opacity:1;stroke-miterlimit:4;" d="M 57.500366 218.00013 L 41.500309 221.999886 L 25.500252 227.99952 L 9.500195 234.000187 L 3.999756 227.99952 L 3.499528 232.000309 L 11.500073 204.500179 L 19.499585 188.500122 L 11.500073 172.500065 L 3.499528 156.500008 " transform="matrix(3.779528,0,0,3.779528,0,0)"/>
<path style="fill:none;stroke-width:2;stroke-linecap:butt;stroke-linejoin:miter;stroke:rgb(0%,0%,0%);stroke-opacity:1;stroke-miterlimit:4;" d="M 20.500041 91.999552 L 10.499618 61.500122 " transform="matrix(3.779528,0,0,3.779528,0,0)"/>
<path style="fill:none;stroke-width:2;stroke-linecap:butt;stroke-linejoin:miter;stroke:rgb(0%,0%,0%);stroke-opacity:1;stroke-miterlimit:4;" d="M 0 60.999894 L 16.500285 42.499731 L 32.999536 35.000448 L 48.999593 35.000448 L 65.499878 39.000203 L 82.000163 45.500065 L 98.500448 46.999715 L 114.500505 28.99978 L 127 6.499862 L 119.000488 21.999691 L 103.000431 37.49952 " transform="matrix(3.779528,0,0,3.779528,0,0)"/>
<path style="fill:none;stroke-width:2;stroke-linecap:butt;stroke-linejoin:miter;stroke:rgb(0%,0%,0%);stroke-opacity:1;stroke-miterlimit:4;" d="M 109.500293 106.499959 L 129.500106 122.500016 L 141.500407 138.500073 L 155.499552 154.50013 L 171.499609 170.500187 L 185.499788 186.000016 L 193.999528 202.000073 L 191.99965 218.00013 L 180.499577 234.000187 " transform="matrix(3.779528,0,0,3.779528,0,0)"/>
<path style="fill:none;stroke-width:2;stroke-linecap:butt;stroke-linejoin:miter;stroke:rgb(0%,0%,0%);stroke-opacity:1;stroke-miterlimit:4;" d="M 164.999748 185.499788 L 148.999691 169.499731 L 116.999577 138.500073 L 103.000431 122.500016 " transform="matrix(3.779528,0,0,3.779528,0,0)"/>
<path style="fill:none;stroke-width:2;stroke-linecap:butt;stroke-linejoin:miter;stroke:rgb(0%,0%,0%);stroke-opacity:1;stroke-miterlimit:4;" d="M 171.000415 66.999528 L 154.50013 71.000317 L 139.000301 87.000374 L 132.500439 100.99952 L 126.499772 108.499837 L 141.999601 82.500391 L 158.499886 68.500212 L 175.000171 66.000106 L 191.500456 64.000228 L 207.500513 63.5 L 213.500146 53.999805 L 229.500203 53.999805 L 245.50026 69.999862 L 261.00009 78.000407 L 276.499919 77.500179 " transform="matrix(3.779528,0,0,3.779528,0,0)"/>
<path style="fill:none;stroke-width:2;stroke-linecap:butt;stroke-linejoin:miter;stroke:rgb(0%,0%,0%);stroke-opacity:1;stroke-miterlimit:4;" d="M 255.999878 71.499512 L 237.999943 55.500488 " transform="matrix(3.779528,0,0,3.779528,0,0)"/>
<path style="fill:none;stroke-width:2;stroke-linecap:butt;stroke-linejoin:miter;stroke:rgb(0%,0%,0%);stroke-opacity:1;stroke-miterlimit:4;" d="M 232.000309 49.499821 L 239.999821 65.499878 " transform="matrix(3.779528,0,0,3.779528,0,0)"/>
<path style="fill:none;stroke-width:2;stroke-linecap:butt;stroke-linejoin:miter;stroke:rgb(0%,0%,0%);stroke-opacity:1;stroke-miterlimit:4;" d="M 420.000203 53.000382 L 422.000081 69.499634 L 422.000081 101.499748 L 423.999959 117.499805 L 427.999715 133.499862 L 438.000138 149.499919 L 444.5 165.499976 L 442.500122 181.500033 L 445.000228 197.50009 L 456.999495 214.000374 L 479.00022 215.500024 L 495.000277 223.499536 L 511.000334 225.999642 " transform="matrix(3.779528,0,0,3.779528,0,0)"/>
</g>
</svg>
