<svg xmlns="http://www.w3.org/2000/svg" width="512mm" height="512mm" viewBox="0 0 512 512" version="1.1"><polyline points="133.5,2.5,133.5,18.5,141.5,34.5" stroke="black" stroke-width="2" fill="none" />
<polyline points="137.5,37.0,129.5,21.0" stroke="black" stroke-width="2" fill="none" />
<polyline points="127.0,19.5,113.0,35.5,111.5,37.5,127.5,19.5,144.0,39.0,160.0,47.5" stroke="black" stroke-width="2" fill="none" />
<polyline points="166.5,43.5,150.5,37.0,134.0,16.5" stroke="black" stroke-width="2" fill="none" />
<polyline points="126.0,62.5,110.0,54.5,94.0,52.5,77.5,48.0,61.5,44.0,45.5,40.0,29.5,41.5,14.0,55.5" stroke="black" stroke-width="2" fill="none" />
<polyline points="15.5,61.5,31.5,79.5,47.5,89.5,63.5,95.5,80.0,99.5,96.0,97.5,112.5,99.5,129.0,98.0,153.5,78.0" stroke="black" stroke-width="2" fill="none" />
<polyline points="153.0,78.5,141.0,94.5,137.0,110.0,143.0,126.0,154.5,142.0,170.5,157.5,188.5,167.5,190.5,184.0,200.5,200.0,201.0,216.0,191.0,232.0" stroke="black" stroke-width="2" fill="none" />
<polyline points="210.0,255.0,226.0,233.0,217.5,240.5,209.5,257.0,209.0,273.5,214.5,289.5,216.5,306.0,207.0,322.5,199.0,338.5,196.5,355.0,202.5,359.0,198.5,373.0,213.0,388.5,195.5,414.5,176.0,430.5,152.0,446.5,134.5,462.5,130.5,478.0,136.5,501.5" stroke="black" stroke-width="2" fill="none" />
<polyline points="154.5,504.0,170.5,506.0" stroke="black" stroke-width="2" fill="none" />
<polyline points="131.0,503.5,119.0,487.5,105.0,471.5,89.0,455.5,73.0,439.5,68.5,423.5,72.5,407.0,84.0,391.5,98.0,376.0,110.5,360.0,127.0,343.5,145.0,343.5,129.5,357.5,113.0,373.5" stroke="black" stroke-width="2" fill="none" />
<polyline points="132.0,360.0,116.5,376.0,101.0,386.5,121.0,372.5,137.5,356.5" stroke="black" stroke-width="2" fill="none" />
<polyline points="146.0,344.5,136.0,348.5,120.5,364.5,108.5,369.0,124.5,353.0,140.5,337.0,156.5,331.0,172.5,323.5,188.5,321.5" stroke="black" stroke-width="2" fill="none" />
<polyline points="170.5,312.0,154.5,308.0,138.0,310.0,122.0,310.0" stroke="black" stroke-width="2" fill="none" />
<polyline points="129.5,297.0,145.0,301.5" stroke="black" stroke-width="2" fill="none" />
<polyline points="174.0,297.5,157.5,289.5,141.5,283.5,125.0,277.5,108.5,277.5,92.5,271.5" stroke="black" stroke-width="2" fill="none" />
<polyline points="88.5,275.0,104.5,283.5,120.5,289.0,136.0,292.5,152.0,297.0" stroke="black" stroke-width="2" fill="none" />
<polyline points="168.0,274.5,196.0,290.0,203.5,306.5,199.5,322.5,202.0,332.5,218.5,306.5,234.5,304.5,250.5,306.0" stroke="black" stroke-width="2" fill="none" />
<polyline points="231.5,318.0,231.5,334.0,217.0,342.5,219.0,350.5,215.5,334.5,227.5,328.5,235.5,350.5,243.5,354.0" stroke="black" stroke-width="2" fill="none" />
<polyline points="253.5,348.0,237.5,346.0,221.5,356.5" stroke="black" stroke-width="2" fill="none" />
<polyline points="204.0,370.0,211.5,364.0,205.5,348.0,210.0,332.0,220.0,316.0,224.5,292.0,217.0,276.5,217.0,260.5,223.0,244.5,219.5,250.5" stroke="black" stroke-width="2" fill="none" />
<polyline points="218.0,276.0,233.5,296.0,249.5,298.0,265.0,290.0,280.5,277.5,296.0,255.5,312.0,235.5,328.0,227.5,345.5,229.5,361.0,215.5" stroke="black" stroke-width="2" fill="none" />
<polyline points="381.0,222.0,419.0,237.5,431.0,251.5,449.0,266.0,463.0,282.5,481.0,282.5,473.0,282.5,488.5,272.5,490.5,278.5,506.5,268.5,511.0,258.5" stroke="black" stroke-width="2" fill="none" />
<polyline points="510.5,249.5,494.5,249.5,478.0,247.5,462.0,247.5,445.5,247.5,443.0,257.0" stroke="black" stroke-width="2" fill="none" />
<polyline points="447.5,261.0,455.0,265.0,471.0,257.0,493.0,257.5" stroke="black" stroke-width="2" fill="none" />
<polyline points="501.0,263.5,489.0,263.5,479.0,269.5" stroke="black" stroke-width="2" fill="none" />
<polyline points="465.0,299.5,481.0,307.0,496.5,307.0" stroke="black" stroke-width="2" fill="none" />
<polyline points="496.0,312.0,480.0,312.0,464.0,302.0" stroke="black" stroke-width="2" fill="none" />
<polyline points="464.0,251.0,448.0,251.0" stroke="black" stroke-width="2" fill="none" />
<polyline points="455.0,229.5,444.5,250.0,455.0,268.0,461.0,270.0,459.0,278.0,475.0,268.0,491.0,254.5,506.5,254.5" stroke="black" stroke-width="2" fill="none" />
<polyline points="508.5,188.0,492.5,174.0,476.0,168.0" stroke="black" stroke-width="2" fill="none" />
<polyline points="473.0,168.0,489.0,166.0,505.5,180.0" stroke="black" stroke-width="2" fill="none" />
<polyline points="499.5,181.5,485.5,165.5" stroke="black" stroke-width="2" fill="none" />
<polyline points="501.0,154.0,487.0,150.0,493.0,134.0,497.0,118.0,497.0,102.0,497.0,86.5,501.0,80.5,499.0,74.5" stroke="black" stroke-width="2" fill="none" />
<polyline points="491.5,68.5,507.0,68.5,497.5,74.0,491.5,73.5,493.5,89.5,493.0,105.5,491.0,121.5,485.5,137.0,491.5,139.5" stroke="black" stroke-width="2" fill="none" />
<polyline points="473.5,150.0,457.5,150.0,442.0,152.0,426.0,126.0" stroke="black" stroke-width="2" fill="none" />
<polyline points="421.0,131.5,437.0,157.5" stroke="black" stroke-width="2" fill="none" />
<polyline points="444.0,183.0,460.0,207.5,476.0,221.5,492.0,231.5,508.5,234.0" stroke="black" stroke-width="2" fill="none" />
<polyline points="505.0,210.0,488.5,206.0,483.0,196.0,466.5,192.0" stroke="black" stroke-width="2" fill="none" />
<polyline points="472.5,194.5,487.0,210.5,493.0,226.5,507.0,220.5" stroke="black" stroke-width="2" fill="none" />
<polyline points="476.0,227.0,460.0,215.5,443.5,197.5,428.0,211.5,412.0,226.0,396.5,222.0,380.5,216.0,364.5,202.0,348.0,188.0" stroke="black" stroke-width="2" fill="none" />
<polyline points="350.5,185.0,356.5,201.5,358.0,217.5,344.0,233.5,340.0,250.0,338.0,266.0,353.5,288.0,365.5,309.5,371.5,329.5,357.0,345.5,345.0,361.5,333.0,377.5,335.0,392.0,351.5,364.5,368.0,344.5,384.5,335.0,394.5,346.5" stroke="black" stroke-width="2" fill="none" />
<polyline points="400.5,352.0,422.5,368.0,426.5,389.5,414.0,405.0,400.0,421.0,383.5,437.0" stroke="black" stroke-width="2" fill="none" />
<polyline points="373.0,462.0,405.0,477.5" stroke="black" stroke-width="2" fill="none" />
<polyline points="413.5,452.5,429.5,430.5,445.5,413.0,461.5,405.0,439.5,419.0,425.5,435.0,415.5,451.0,413.5,466.5,418.0,482.5,438.0,498.0,438.0,502.0,454.0,506.0,470.0,501.5" stroke="black" stroke-width="2" fill="none" />
<polyline points="481.5,485.0,466.0,497.0,484.0,482.5" stroke="black" stroke-width="2" fill="none" />
<polyline points="431.5,434.0,447.5,416.0" stroke="black" stroke-width="2" fill="none" />
<polyline points="458.5,407.0,444.5,423.0,430.5,439.0,420.5,455.5,419.0,471.0" stroke="black" stroke-width="2" fill="none" />
<polyline points="430.0,500.5,402.0,484.5,374.0,468.5" stroke="black" stroke-width="2" fill="none" />
<polyline points="338.0,464.5,320.0,468.0,310.0,481.5,320.0,467.5,335.5,459.5,351.5,457.5,367.5,459.0,384.0,465.0,400.5,473.5,416.5,477.5" stroke="black" stroke-width="2" fill="none" />
<polyline points="336.0,431.0,332.0,415.0,334.0,399.0,342.5,382.5,352.5,366.5,365.0,350.5,379.0,334.5,381.0,324.5,371.0,308.5,367.0,292.5,364.5,276.5,364.5,276.5" stroke="black" stroke-width="2" fill="none" />
<polyline points="360.5,272.5,376.0,250.5,392.0,260.5,407.5,274.5,423.5,287.0,439.5,298.5,456.5,315.0" stroke="black" stroke-width="2" fill="none" />
<polyline points="462.0,340.5,446.0,330.5,429.5,312.5,413.0,298.5,396.5,287.0,380.5,275.0" stroke="black" stroke-width="2" fill="none" />
<polyline points="385.5,269.0,395.5,285.0,417.5,301.0,433.5,317.5,447.5,333.5" stroke="black" stroke-width="2" fill="none" />
<polyline points="450.0,325.5,434.0,307.0,418.0,293.0,402.5,281.5,387.0,269.5,371.0,265.5" stroke="black" stroke-width="2" fill="none" />
<polyline points="369.0,264.0,385.0,260.0,401.0,273.5,417.0,285.0,432.5,297.0,448.0,313.5,464.0,325.5" stroke="black" stroke-width="2" fill="none" />
<polyline points="486.0,295.5,470.0,291.5,454.0,291.5,438.5,275.5,422.5,261.5,406.5,249.5,390.5,245.5,374.5,239.5" stroke="black" stroke-width="2" fill="none" />
<polyline points="376.0,240.0,422.0,252.0,425.5,256.0,445.0,273.5,458.5,289.5,474.5,278.0,492.0,289.5,492.0,285.5,508.0,285.0" stroke="black" stroke-width="2" fill="none" />
<polyline points="510.5,326.5,490.5,338.5,506.5,328.0" stroke="black" stroke-width="2" fill="none" />
<polyline points="509.5,332.5,493.5,340.5,471.5,356.5,456.0,368.5,440.0,368.5,424.0,362.5,408.0,350.5,392.0,334.0,376.0,316.0,354.0,313.5,334.0,353.5" stroke="black" stroke-width="2" fill="none" />
<polyline points="356.0,377.5,357.5,376.0,369.5,360.0,385.5,344.0" stroke="black" stroke-width="2" fill="none" />
<polyline points="375.0,342.5,365.0,358.5,352.5,375.0,352.5,375.0,368.0,353.5,375.5,353.5" stroke="black" stroke-width="2" fill="none" />
<polyline points="393.0,357.0,383.0,373.0,373.0,389.0,366.5,398.5,382.0,370.0,398.0,350.0,414.0,361.5,430.0,372.0,446.0,374.0,462.0,372.0,478.0,358.5,494.0,394.5,510.0,406.0" stroke="black" stroke-width="2" fill="none" />
<polyline points="504.0,397.0,488.0,369.0" stroke="black" stroke-width="2" fill="none" />
<polyline points="481.0,362.5,485.0,378.5,495.0,394.5,509.5,410.5,505.5,426.5,501.5,442.5,495.0,458.5,485.0,474.5,465.0,490.0,462.5,505.5,478.5,507.5" stroke="black" stroke-width="2" fill="none" />
<polyline points="430.0,378.0,414.5,396.0,399.0,416.0,383.0,434.0,367.0,442.0,351.0,442.5,335.0,420.5" stroke="black" stroke-width="2" fill="none" />
<polyline points="325.5,416.0,331.5,431.5" stroke="black" stroke-width="2" fill="none" />
<polyline points="324.0,415.0,310.0,431.0" stroke="black" stroke-width="2" fill="none" />
<polyline points="307.5,424.5,319.5,408.5,325.5,392.5,327.5,376.5,333.5,360.5,337.5,344.5,344.0,328.5,350.5,312.5,351.0,296.5,341.0,280.5,345.0,264.5,347.0,248.0,353.0,232.0,367.0,214.0,350.5,194.0" stroke="black" stroke-width="2" fill="none" />
<polyline points="352.0,189.5,366.5,205.5,396.5,221.5,426.5,236.0,442.5,236.0,458.5,230.0" stroke="black" stroke-width="2" fill="none" />
<polyline points="482.5,230.5,465.0,214.5,451.0,198.5" stroke="black" stroke-width="2" fill="none" />
<polyline points="440.0,198.5,434.0,215.0,431.5,217.0" stroke="black" stroke-width="2" fill="none" />
<polyline points="404.0,193.0,388.0,197.5" stroke="black" stroke-width="2" fill="none" />
<polyline points="366.0,240.5,382.5,238.0,398.0,242.0,413.5,248.0" stroke="black" stroke-width="2" fill="none" />
<polyline points="401.0,248.5,425.0,264.0,441.0,280.0,457.0,295.5,472.5,311.5,480.0,327.5,480.0,343.5,467.5,359.5" stroke="black" stroke-width="2" fill="none" />
<polyline points="406.0,350.0,428.0,366.5,420.0,390.0,407.5,406.0,391.5,421.5,373.5,437.0" stroke="black" stroke-width="2" fill="none" />
<polyline points="291.0,467.5,274.5,467.0,258.5,469.0,242.5,477.0,226.0,493.0,224.0,499.5,233.5,484.0,261.0,467.5" stroke="black" stroke-width="2" fill="none" />
<polyline points="260.0,475.0,236.0,491.0,226.5,507.0,238.0,489.0,254.0,477.0,269.5,474.5,285.5,472.5,301.0,476.5,321.0,472.0,336.5,463.5,352.5,463.5,368.5,465.5,385.0,471.5,401.5,481.5,417.5,491.5,434.0,495.5,450.0,500.0,466.5,490.0,482.5,476.0,495.0,466.5,511.0,450.5" stroke="black" stroke-width="2" fill="none" />
<polyline points="509.5,238.5,493.0,238.5,477.5,236.5,461.5,236.5,446.0,240.0,424.0,242.0,408.0,232.5,392.0,226.5,376.0,220.0,360.0,223.5,343.5,249.5" stroke="black" stroke-width="2" fill="none" />
<polyline points="330.5,267.5,315.0,265.5,299.0,265.5" stroke="black" stroke-width="2" fill="none" />
<polyline points="298.0,266.0,313.5,243.5,329.0,232.0,314.5,234.0,300.5,250.5,290.0,266.5,276.0,283.0,247.0,307.0,261.0,323.0,257.0,339.0,251.0,355.5,247.0,369.0,232.5,385.0" stroke="black" stroke-width="2" fill="none" />
<polyline points="238.0,387.5,222.5,390.0,206.5,382.0,190.5,374.5,174.5,392.5,158.0,410.5,142.0,426.5,125.5,442.5,109.5,448.0,93.5,446.0" stroke="black" stroke-width="2" fill="none" />
<polyline points="90.0,449.0,106.0,465.0,121.5,480.5,137.5,464.5,154.0,449.0,170.0,439.0,186.0,427.0,201.5,415.5,218.0,407.5,234.0,407.5" stroke="black" stroke-width="2" fill="none" />
<polyline points="252.5,437.0,236.5,452.5,219.0,468.5,203.5,484.5,185.5,500.5,197.5,490.5,214.0,474.5,230.0,460.5,246.0,444.5,262.0,437.0,278.0,439.0,294.0,436.5,310.5,422.0,326.5,398.0" stroke="black" stroke-width="2" fill="none" />
<polyline points="288.0,351.5,290.0,335.5,294.0,319.5,298.0,303.5,304.0,305.5" stroke="black" stroke-width="2" fill="none" />
<polyline points="294.0,301.5,292.0,297.0,286.0,313.5,282.0,329.5" stroke="black" stroke-width="2" fill="none" />
<polyline points="285.5,313.0,300.0,291.0,290.0,292.5,284.0,308.0,278.5,324.0,286.5,299.5,302.5,281.5,319.0,281.5" stroke="black" stroke-width="2" fill="none" />
<polyline points="293.5,302.0,289.0,318.0,285.0,333.5,283.0,349.5" stroke="black" stroke-width="2" fill="none" />
<polyline points="260.0,328.0,254.0,366.5,232.0,387.0,215.5,383.0,200.0,359.0,188.5,336.5,172.5,328.0,154.0,325.5,138.0,321.5,122.5,321.0,107.0,319.5,91.0,315.5,94.5,303.5,62.5,297.5" stroke="black" stroke-width="2" fill="none" />
<polyline points="76.0,296.0,92.0,302.5" stroke="black" stroke-width="2" fill="none" />
<polyline points="77.0,290.5,92.5,292.5,116.5,294.0,131.0,305.5,155.5,303.5,172.0,305.5,188.0,309.5" stroke="black" stroke-width="2" fill="none" />
<polyline points="180.0,289.5,164.0,285.5,147.5,279.5,131.5,273.5,116.0,270.0,100.5,268.0,84.5,265.5" stroke="black" stroke-width="2" fill="none" />
<polyline points="88.0,267.5,114.0,269.5,146.0,285.0,182.0,291.0" stroke="black" stroke-width="2" fill="none" />
<polyline points="204.5,302.5,188.5,282.5,172.0,274.5,156.0,270.5,139.5,266.5,123.5,262.5,108.0,260.5,92.5,260.0,76.5,261.5,60.5,283.5,36.5,275.5" stroke="black" stroke-width="2" fill="none" />
<polyline points="28.0,274.5,44.0,270.5" stroke="black" stroke-width="2" fill="none" />
<polyline points="33.5,283.0,17.5,278.5,1.5,279.0" stroke="black" stroke-width="2" fill="none" />
<polyline points="1.0,272.0,17.0,272.0,33.5,265.5,49.5,262.0,65.5,260.0,81.5,244.0,91.5,254.0,108.0,254.0,124.5,256.0,140.5,260.0,156.5,264.0,172.5,270.0,188.0,276.0,204.0,289.5" stroke="black" stroke-width="2" fill="none" />
<polyline points="218.0,317.5,216.0,349.0,216.0,333.0" stroke="black" stroke-width="2" fill="none" />
<polyline points="168.0,327.5,192.0,343.5,190.0,359.5,180.0,375.5,166.0,392.0,152.0,408.0,135.5,424.0,117.5,439.5" stroke="black" stroke-width="2" fill="none" />
<polyline points="133.0,438.0,147.5,421.5,164.0,406.0,177.5,389.5,191.5,373.5,185.5,371.5,169.5,389.5,153.0,407.5,137.0,423.5,120.5,440.0,104.5,442.0,88.0,446.5,72.0,427.0" stroke="black" stroke-width="2" fill="none" />
<polyline points="74.5,360.0,58.5,374.0,42.0,385.5,26.0,395.5,10.0,403.0,26.0,401.5,52.0,385.5,72.0,369.5,86.5,352.0,92.5,336.0,88.5,316.5,78.5,300.0,70.5,298.0,68.5,282.0,84.0,266.0,68.0,282.0" stroke="black" stroke-width="2" fill="none" />
<polyline points="37.5,305.0,21.5,305.0" stroke="black" stroke-width="2" fill="none" />
<polyline points="39.5,301.0,23.5,293.0,7.5,290.5,3.5,300.5" stroke="black" stroke-width="2" fill="none" />
<polyline points="2.0,294.0,18.0,296.0,4.0,310.0,6.5,326.0" stroke="black" stroke-width="2" fill="none" />
<polyline points="7.5,353.5,23.5,343.5,39.5,333.5,55.5,327.5,80.0,319.5,86.0,335.5,80.0,351.5,65.5,367.0,45.0,383.0,17.5,399.0,10.0,409.0,25.5,401.5,41.5,393.5,57.5,381.5,74.0,368.0,90.0,342.0" stroke="black" stroke-width="2" fill="none" />
<polyline points="130.0,340.0,114.5,356.5,99.0,374.5,83.0,394.0,67.0,428.0,50.5,422.0,34.5,419.5,18.0,422.0,2.0,424.0" stroke="black" stroke-width="2" fill="none" />
<polyline points="2.0,429.5,18.0,426.0,34.0,426.5,50.0,428.5,65.5,434.0,81.5,448.0,98.0,466.0,114.0,479.5,129.5,501.0" stroke="black" stroke-width="2" fill="none" />
<polyline points="200.0,415.5,180.0,431.5,158.0,447.0,140.0,463.0,134.5,479.5,140.5,455.5,156.5,443.0,172.5,431.0,188.5,419.0,204.5,407.5,220.5,401.5,236.5,403.5" stroke="black" stroke-width="2" fill="none" />
<polyline points="256.5,442.5,240.5,458.0,224.5,473.5,206.5,489.5,194.0,499.0,210.0,485.5,225.5,471.5,241.5,455.5,257.5,442.0,274.0,444.0,290.0,442.0,306.0,434.5,322.0,416.5,338.0,440.5,354.0,446.5,370.0,446.0,386.5,437.5,402.5,419.5,418.5,401.5" stroke="black" stroke-width="2" fill="none" />
<polyline points="444.0,322.0,430.0,305.5,410.0,289.5,392.5,273.0" stroke="black" stroke-width="2" fill="none" />
<polyline points="381.0,258.0,375.0,257.5,379.0,273.0,409.0,281.0,431.0,297.0,448.5,313.0,465.0,329.0" stroke="black" stroke-width="2" fill="none" />
<polyline points="470.0,332.0,458.5,316.0,440.5,299.5,421.0,283.5,401.0,268.0,381.0,252.0" stroke="black" stroke-width="2" fill="none" />
<polyline points="377.5,250.0,363.5,266.0,361.5,282.0,357.0,298.0,360.5,311.5,350.0,328.0,343.5,344.0,339.5,360.5,335.0,381.0,350.5,355.0,366.5,335.0" stroke="black" stroke-width="2" fill="none" />
<polyline points="276.0,296.0,269.5,312.0,265.0,327.5,261.0,343.5,255.0,359.5,251.0,376.0,243.0,392.0,249.0,394.0,249.5,410.0" stroke="black" stroke-width="2" fill="none" />
<polyline points="148.0,364.5,131.5,383.0,115.5,402.5,127.5,388.5,141.5,372.0,153.5,355.0,163.5,339.0" stroke="black" stroke-width="2" fill="none" />
<polyline points="165.5,338.5,149.5,354.5,133.0,374.5,116.5,392.5,100.5,412.5,90.5,419.0,110.0,402.5,121.5,386.5,135.0,370.0,147.0,353.5,159.0,337.5" stroke="black" stroke-width="2" fill="none" />
<polyline points="139.5,338.0,123.5,354.0,108.0,370.0,96.0,386.0,82.0,402.5,74.0,418.5,74.0,434.5,90.5,450.0,106.5,466.0,122.5,481.5,132.0,498.0" stroke="black" stroke-width="2" fill="none" />
<polyline points="41.0,316.5,25.0,314.0,9.5,317.5,45.5,311.0,43.5,294.5,27.5,278.0" stroke="black" stroke-width="2" fill="none" />
<polyline points="27.5,274.0,47.5,290.0,53.5,306.5,33.5,338.5,2.0,353.0,18.0,343.0,34.0,333.5,50.0,325.5" stroke="black" stroke-width="2" fill="none" />
<polyline points="2.0,256.0,10.0,252.0,26.0,248.0,42.0,242.0,58.0,238.0,43.5,226.0" stroke="black" stroke-width="2" fill="none" />
<polyline points="50.0,223.5,34.0,230.0,18.0,236.0,2.0,242.5,52.0,218.5" stroke="black" stroke-width="2" fill="none" />
<polyline points="65.0,200.5,83.0,216.5,83.0,232.5,77.0,248.0,65.0,274.0,61.0,289.5,67.0,306.0,43.0,328.0,15.0,344.5,7.5,338.5,23.5,332.5,39.0,322.5,55.0,312.5,70.5,312.0,86.0,328.0,102.0,323.5,117.5,327.5,133.5,327.5" stroke="black" stroke-width="2" fill="none" />
<polyline points="165.5,267.5,197.5,283.5,209.5,299.5" stroke="black" stroke-width="2" fill="none" />
<polyline points="192.5,196.5,182.0,154.5,180.0,150.5,178.5,134.5,182.5,118.5,174.5,120.5" stroke="black" stroke-width="2" fill="none" />
<polyline points="178.5,127.0,180.5,113.0,174.0,129.5,174.0,145.0,178.0,161.0" stroke="black" stroke-width="2" fill="none" />
<polyline points="173.0,201.5,156.5,197.5" stroke="black" stroke-width="2" fill="none" />
<polyline points="129.0,186.0,113.0,172.0" stroke="black" stroke-width="2" fill="none" />
<polyline points="110.5,171.5,118.5,187.5" stroke="black" stroke-width="2" fill="none" />
<polyline points="117.5,177.0,133.5,193.0" stroke="black" stroke-width="2" fill="none" />
<polyline points="138.5,129.0,154.0,149.0,170.0,165.5,186.0,177.5,202.0,201.5,218.0,211.5,234.0,213.5,250.5,198.0" stroke="black" stroke-width="2" fill="none" />
<polyline points="247.5,131.5,231.5,109.5" stroke="black" stroke-width="2" fill="none" />
<polyline points="228.5,112.5,244.0,134.0" stroke="black" stroke-width="2" fill="none" />
<polyline points="229.5,147.5,214.0,125.0" stroke="black" stroke-width="2" fill="none" />
<polyline points="215.5,124.5,217.5,140.5,225.0,156.5,233.0,172.5,216.5,178.0" stroke="black" stroke-width="2" fill="none" />
<polyline points="232.5,166.5,216.5,133.0" stroke="black" stroke-width="2" fill="none" />
<polyline points="218.0,126.0,226.0,142.0,234.0,158.0,238.0,174.5" stroke="black" stroke-width="2" fill="none" />
<polyline points="306.0,149.5,322.5,151.5" stroke="black" stroke-width="2" fill="none" />
<polyline points="304.5,145.5,320.5,145.5,337.0,137.0,353.0,129.0,368.5,121.0,384.5,105.0,400.0,85.5,410.0,75.5,403.5,92.0,389.0,108.0,383.0,124.0,405.0,140.0,421.5,156.0" stroke="black" stroke-width="2" fill="none" />
<polyline points="430.5,162.5,414.0,148.5,398.0,132.5,381.5,122.5" stroke="black" stroke-width="2" fill="none" />
<polyline points="381.0,119.5,397.0,101.5" stroke="black" stroke-width="2" fill="none" />
<polyline points="376.5,129.5,400.0,145.5,418.0,161.5,434.0,177.0,438.0,193.0,432.5,208.5,416.5,224.5,430.0,242.5,438.0,252.5,436.0,268.5,452.0,284.5,464.0,296.0,481.5,316.5,485.5,332.5,492.0,344.5,486.5,360.5,490.5,376.5,500.5,392.0,510.5,418.0,506.5,433.5,502.5,449.5,494.5,469.5,490.5,486.0,488.5,502.0" stroke="black" stroke-width="2" fill="none" />
<polyline points="366.0,309.0,348.0,279.0,334.0,277.0,318.0,272.5,302.0,272.5,286.0,280.0,270.5,310.0,262.5,306.0,278.5,290.0,292.5,274.0,311.0,247.5,323.0,231.5" stroke="black" stroke-width="2" fill="none" />
<polyline points="392.5,169.5,376.5,155.0,360.5,145.0" stroke="black" stroke-width="2" fill="none" />
<polyline points="359.0,145.5,375.0,147.5,391.0,159.5,407.0,177.5" stroke="black" stroke-width="2" fill="none" />
<polyline points="405.5,179.0,390.0,163.0,368.0,147.0" stroke="black" stroke-width="2" fill="none" />
<polyline points="360.5,142.5,376.5,158.5,394.5,174.5,404.5,192.5" stroke="black" stroke-width="2" fill="none" />
<polyline points="472.5,188.5,481.0,204.5,487.0,213.0,503.0,213.5" stroke="black" stroke-width="2" fill="none" />
<polyline points="495.0,157.5,479.0,155.5,463.0,155.5,447.0,162.0,429.0,170.0,413.0,156.5,397.0,140.5,381.0,130.5,365.0,130.5,349.0,136.5,333.0,146.5,337.0,137.0,369.0,121.0,385.5,105.0,398.0,89.0,406.0,73.0,410.5,57.0,410.5,53.0" stroke="black" stroke-width="2" fill="none" />
<polyline points="414.0,56.5,415.5,72.0,415.5,87.5,415.5,103.5,418.0,120.0,422.0,136.0,432.0,152.0" stroke="black" stroke-width="2" fill="none" />
<polyline points="366.5,130.5,332.5,146.5" stroke="black" stroke-width="2" fill="none" />
<polyline points="293.0,95.5,309.5,81.5,325.5,69.5,341.5,48.0,341.5,48.0,327.5,63.5,342.0,55.5,352.0,43.0,338.0,59.0,318.0,75.0,298.0,85.0,284.0,101.0,282.0,117.0,294.5,89.5,310.5,75.5" stroke="black" stroke-width="2" fill="none" />
<polyline points="300.0,90.0,289.5,106.0" stroke="black" stroke-width="2" fill="none" />
<polyline points="231.0,76.0,215.0,64.0" stroke="black" stroke-width="2" fill="none" />
<polyline points="217.5,61.5,225.5,77.5,229.5,93.5,225.5,109.0,233.5,125.0,245.5,140.5,254.0,156.5,256.5,172.0,255.0,188.0,249.5,204.0" stroke="black" stroke-width="2" fill="none" />
<polyline points="280.0,74.5,264.0,74.5,248.0,66.0,232.5,48.0,216.5,50.0,200.5,50.0" stroke="black" stroke-width="2" fill="none" />
<polyline points="222.5,63.0,232.5,78.5,234.5,94.5,236.5,116.5,248.5,132.5,256.5,148.5,261.0,164.5,261.0,180.5,257.5,196.0,249.0,212.0" stroke="black" stroke-width="2" fill="none" />
<polyline points="170.5,190.0,154.5,172.0,138.0,156.0,122.0,141.5,106.0,125.5" stroke="black" stroke-width="2" fill="none" />
<polyline points="108.5,124.5,127.0,140.5,143.0,156.5,159.0,172.0,173.0,188.0" stroke="black" stroke-width="2" fill="none" />
<polyline points="171.0,183.5,155.0,165.5,139.5,149.5,123.5,135.5,108.0,121.0,82.5,123.0,66.5,139.0,68.5,137.0,84.5,121.5,84.5,129.5,68.5,145.5" stroke="black" stroke-width="2" fill="none" />
<polyline points="79.0,134.5,64.5,150.5,80.5,168.0,96.5,184.0,112.0,202.5,128.0,218.5,144.0,234.0,160.0,239.5,175.5,237.0,191.5,216.5" stroke="black" stroke-width="2" fill="none" />
<polyline points="172.5,161.0,157.0,142.5,141.0,122.5,125.5,114.5,109.5,104.5,93.5,104.5,77.5,108.5,61.5,125.0" stroke="black" stroke-width="2" fill="none" />
<polyline points="55.5,165.5,39.0,169.5,17.0,179.5,1.0,161.0" stroke="black" stroke-width="2" fill="none" />
<polyline points="1.5,156.0,17.5,166.0,33.5,164.0,49.5,162.0,65.5,161.5,82.0,179.0,98.0,195.5,114.5,211.5,130.5,229.5,146.5,240.0,162.0,246.0,178.0,242.0,194.5,226.0,210.5,214.0,227.0,219.5,242.5,215.5,258.5,189.5" stroke="black" stroke-width="2" fill="none" />
<polyline points="150.0,238.0,130.5,222.0,114.5,206.0,100.5,190.0,84.5,174.0,70.5,158.0,58.5,142.0,60.0,126.0,70.0,109.5,58.0,97.5,42.0,91.5,26.0,84.0,14.0,102.0,16.5,86.0,12.5,70.0,8.5,54.0,24.5,38.0,34.5,18.0,18.5,17.5,2.5,17.5" stroke="black" stroke-width="2" fill="none" />
<polyline points="1.5,22.5,17.5,22.5,33.5,24.5" stroke="black" stroke-width="2" fill="none" />
<polyline points="33.0,40.0,13.5,56.0,19.0,71.5,41.5,87.5,65.5,101.5,58.0,117.5,54.0,133.5,56.5,150.0,64.5,160.0,73.0,170.5,89.0,186.5,103.0,202.5,119.0,218.5,135.0,234.0" stroke="black" stroke-width="2" fill="none" />
<polyline points="81.5,213.0,65.0,199.0,49.5,197.0,33.5,201.0,17.5,207.5,2.0,211.5" stroke="black" stroke-width="2" fill="none" />
<polyline points="9.0,162.0,21.0,177.5,25.5,193.5,6.0,205.5,30.5,195.5,46.5,192.0,63.0,192.0,79.0,200.0,104.5,218.0" stroke="black" stroke-width="2" fill="none" />
<polyline points="63.5,193.5,85.5,209.5,88.0,225.5,84.0,241.5,64.0,261.5,56.0,277.5,54.0,293.5,66.0,317.5,34.0,323.5,15.5,328.0,3.5,328.0,9.5,332.0,25.5,324.0" stroke="black" stroke-width="2" fill="none" />
<polyline points="57.5,218.0,41.5,222.0,25.5,228.0,9.5,234.0,4.0,228.0,3.5,232.0,11.5,204.5,19.5,188.5,11.5,172.5,3.5,156.5" stroke="black" stroke-width="2" fill="none" />
<polyline points="20.5,92.0,10.5,61.5" stroke="black" stroke-width="2" fill="none" />
<polyline points="0.0,61.0,16.5,42.5,33.0,35.0,49.0,35.0,65.5,39.0,82.0,45.5,98.5,47.0,114.5,29.0,127.0,6.5,119.0,22.0,103.0,37.5" stroke="black" stroke-width="2" fill="none" />
<polyline points="109.5,106.5,129.5,122.5,141.5,138.5,155.5,154.5,171.5,170.5,185.5,186.0,194.0,202.0,192.0,218.0,180.5,234.0" stroke="black" stroke-width="2" fill="none" />
<polyline points="165.0,185.5,149.0,169.5,133.0,154.0,117.0,138.5,103.0,122.5" stroke="black" stroke-width="2" fill="none" />
<polyline points="171.0,67.0,154.5,71.0,139.0,87.0,132.5,101.0,126.5,108.5,142.0,82.5,158.5,68.5,175.0,66.0,191.5,64.0,207.5,63.5,213.5,54.0,229.5,54.0,245.5,70.0,261.0,78.0,276.5,77.5" stroke="black" stroke-width="2" fill="none" />
<polyline points="256.0,71.5,238.0,55.5" stroke="black" stroke-width="2" fill="none" />
<polyline points="232.0,49.5,240.0,65.5" stroke="black" stroke-width="2" fill="none" />
<polyline points="420.0,53.0,422.0,69.5,422.0,85.5,422.0,101.5,424.0,117.5,428.0,133.5,438.0,149.5,444.5,165.5,442.5,181.5,445.0,197.5,457.0,214.0,479.0,215.5,495.0,223.5,511.0,226.0" stroke="black" stroke-width="2" fill="none" />
</svg>