<?xml version="1.0" encoding="UTF-8"?>
<svg xmlns="http://www.w3.org/2000/svg" xmlns:xlink="http://www.w3.org/1999/xlink" width="1935.11811" height="1935.11811" viewBox="0 0 1935.11811 1935.11811" version="1.1">
<g id="surface1">
<path style="fill:none;stroke-width:2;stroke-linecap:butt;stroke-linejoin:miter;stroke:rgb(0%,0%,0%);stroke-opacity:1;stroke-miterlimit:4;" d="M 297.500187 34.50022 L 271.499707 50.500277 L 257.499528 66.500334 L 249.500016 82.500391 L 243.500382 98.999642 L 239.499593 114.999699 L 237.499715 130.999756 L 237.499715 146.999813 L 236.999487 162.99987 L 236.999487 178.499699 L 240.500049 194.499756 L 252.999544 210.499813 L 271.000513 226.49987 L 246.99991 234.500415 L 227.500326 250.000244 L 217.499902 265.500073 L 211.500269 280.999902 L 211.500269 296.999959 L 209.500391 313.000016 L 207.500513 328.499845 L 205.999829 344.499902 L 203.999951 360.499959 L 202.500301 380.499772 L 190.5 393.000301 L 166.500431 414.999992 L 148.500496 431.000049 L 156.500008 427.000293 L 178.499699 429.500399 L 182.500488 439.499788 L 184.500366 435.500033 " transform="matrix(3.779528,0,0,3.779528,0,0)"/>
<path style="fill:none;stroke-width:2;stroke-linecap:butt;stroke-linejoin:miter;stroke:rgb(0%,0%,0%);stroke-opacity:1;stroke-miterlimit:4;" d="M 171.999837 434.499577 L 155.99978 426.500065 " transform="matrix(3.779528,0,0,3.779528,0,0)"/>
<path style="fill:none;stroke-width:2;stroke-linecap:butt;stroke-linejoin:miter;stroke:rgb(0%,0%,0%);stroke-opacity:1;stroke-miterlimit:4;" d="M 153.499674 420.000203 L 169.499731 416.000448 " transform="matrix(3.779528,0,0,3.779528,0,0)"/>
<path style="fill:none;stroke-width:2;stroke-linecap:butt;stroke-linejoin:miter;stroke:rgb(0%,0%,0%);stroke-opacity:1;stroke-miterlimit:4;" d="M 159.000114 422.500309 L 143.000057 424.500187 " transform="matrix(3.779528,0,0,3.779528,0,0)"/>
<path style="fill:none;stroke-width:2;stroke-linecap:butt;stroke-linejoin:miter;stroke:rgb(0%,0%,0%);stroke-opacity:1;stroke-miterlimit:4;" d="M 129.500106 427.000293 L 145.500163 434.999805 L 161.50022 443.999772 " transform="matrix(3.779528,0,0,3.779528,0,0)"/>
<path style="fill:none;stroke-width:2;stroke-linecap:butt;stroke-linejoin:miter;stroke:rgb(0%,0%,0%);stroke-opacity:1;stroke-miterlimit:4;" d="M 171.999837 450.000439 L 155.99978 445.99965 L 139.499495 438.000138 L 123.500472 429.999593 " transform="matrix(3.779528,0,0,3.779528,0,0)"/>
<path style="fill:none;stroke-width:2;stroke-linecap:butt;stroke-linejoin:miter;stroke:rgb(0%,0%,0%);stroke-opacity:1;stroke-miterlimit:4;" d="M 123.500472 423.499731 L 153.499674 439.499788 L 173.999715 455.499845 " transform="matrix(3.779528,0,0,3.779528,0,0)"/>
<path style="fill:none;stroke-width:2;stroke-linecap:butt;stroke-linejoin:miter;stroke:rgb(0%,0%,0%);stroke-opacity:1;stroke-miterlimit:4;" d="M 152.000024 465.500269 L 135.999967 456.999495 L 119.99991 448.999984 " transform="matrix(3.779528,0,0,3.779528,0,0)"/>
<path style="fill:none;stroke-width:2;stroke-linecap:butt;stroke-linejoin:miter;stroke:rgb(0%,0%,0%);stroke-opacity:1;stroke-miterlimit:4;" d="M 110.499715 436.500488 L 126.499772 444.5 L 142.499829 452.000317 L 158.499886 459.999829 L 174.499943 461.999707 L 190.5 457.999951 L 205.999829 452.000317 L 221.999886 447.500334 L 237.999943 443.499544 L 254 438.000138 L 270.000057 434.000382 L 286.000114 427.999715 L 302.000171 420.000203 L 275.999691 438.000138 L 266.000301 454.000195 L 277.500374 454.000195 L 293.999626 456.000073 L 309.999683 453.499967 L 325.99974 451.50009 L 342.500024 445.000228 L 368.500505 443.00035 L 384.000334 445.000228 L 400.000391 445.500456 L 432.000505 445.500456 L 447.999528 443.499544 " transform="matrix(3.779528,0,0,3.779528,0,0)"/>
<path style="fill:none;stroke-width:2;stroke-linecap:butt;stroke-linejoin:miter;stroke:rgb(0%,0%,0%);stroke-opacity:1;stroke-miterlimit:4;" d="M 447.999528 469.500024 L 456.000073 453.499967 L 447.999528 437.49991 L 459.999829 421.499854 L 455.499845 405.499797 L 453.499967 389.49974 L 452.000317 382.000456 L 436.500488 382.000456 L 420.500431 375.499561 " transform="matrix(3.779528,0,0,3.779528,0,0)"/>
<path style="fill:none;stroke-width:2;stroke-linecap:butt;stroke-linejoin:miter;stroke:rgb(0%,0%,0%);stroke-opacity:1;stroke-miterlimit:4;" d="M 398.499707 345.500358 L 382.49965 353.49987 L 366.499593 335.499935 " transform="matrix(3.779528,0,0,3.779528,0,0)"/>
<path style="fill:none;stroke-width:2;stroke-linecap:butt;stroke-linejoin:miter;stroke:rgb(0%,0%,0%);stroke-opacity:1;stroke-miterlimit:4;" d="M 385.499984 369.499927 L 367.500049 370.999577 L 347.000008 368.999699 L 330.999951 368.999699 L 307.499577 368.500505 L 291.49952 368.999699 L 275.999691 370.999577 L 259.999634 368.999699 L 244.499805 369.499927 L 228.499748 370.000155 L 212.499691 370.000155 " transform="matrix(3.779528,0,0,3.779528,0,0)"/>
<path style="fill:none;stroke-width:2;stroke-linecap:butt;stroke-linejoin:miter;stroke:rgb(0%,0%,0%);stroke-opacity:1;stroke-miterlimit:4;" d="M 218.500358 379.50035 L 252.50035 395.500407 L 281.50013 411.500464 L 273.999813 425.499609 L 289.99987 419.499976 " transform="matrix(3.779528,0,0,3.779528,0,0)"/>
<path style="fill:none;stroke-width:2;stroke-linecap:butt;stroke-linejoin:miter;stroke:rgb(0%,0%,0%);stroke-opacity:1;stroke-miterlimit:4;" d="M 280.00048 416.000448 L 264.499618 408.50013 L 248.999788 398.999935 L 232.999731 395.000179 L 216.999674 388.999512 " transform="matrix(3.779528,0,0,3.779528,0,0)"/>
<path style="fill:none;stroke-width:2;stroke-linecap:butt;stroke-linejoin:miter;stroke:rgb(0%,0%,0%);stroke-opacity:1;stroke-miterlimit:4;" d="M 220.000008 401.500041 L 238.500171 417.500098 " transform="matrix(3.779528,0,0,3.779528,0,0)"/>
<path style="fill:none;stroke-width:2;stroke-linecap:butt;stroke-linejoin:miter;stroke:rgb(0%,0%,0%);stroke-opacity:1;stroke-miterlimit:4;" d="M 242.499927 418.999748 L 226.49987 411.000236 " transform="matrix(3.779528,0,0,3.779528,0,0)"/>
<path style="fill:none;stroke-width:2;stroke-linecap:butt;stroke-linejoin:miter;stroke:rgb(0%,0%,0%);stroke-opacity:1;stroke-miterlimit:4;" d="M 221.000464 416.499642 L 236.999487 422.500309 " transform="matrix(3.779528,0,0,3.779528,0,0)"/>
<path style="fill:none;stroke-width:2;stroke-linecap:butt;stroke-linejoin:miter;stroke:rgb(0%,0%,0%);stroke-opacity:1;stroke-miterlimit:4;" d="M 239.999821 401.500041 L 252.000122 401.500041 " transform="matrix(3.779528,0,0,3.779528,0,0)"/>
<path style="fill:none;stroke-width:2;stroke-linecap:butt;stroke-linejoin:miter;stroke:rgb(0%,0%,0%);stroke-opacity:1;stroke-miterlimit:4;" d="M 283.500008 411.000236 L 267.499951 401.500041 L 251.499894 393.999723 L 236.000065 386.000212 L 220.000008 380.499772 L 203.999951 388.00009 " transform="matrix(3.779528,0,0,3.779528,0,0)"/>
<path style="fill:none;stroke-width:2;stroke-linecap:butt;stroke-linejoin:miter;stroke:rgb(0%,0%,0%);stroke-opacity:1;stroke-miterlimit:4;" d="M 227.500326 377.500472 L 261.500317 393.499495 L 287.999992 409.499552 L 311.999561 418.000326 L 289.499642 425.999837 L 271.499707 452.000317 L 277.999569 436.00026 L 293.999626 429.500399 " transform="matrix(3.779528,0,0,3.779528,0,0)"/>
<path style="fill:none;stroke-width:2;stroke-linecap:butt;stroke-linejoin:miter;stroke:rgb(0%,0%,0%);stroke-opacity:1;stroke-miterlimit:4;" d="M 304.000049 428.499943 L 277.999569 445.000228 L 283.500008 441.000472 L 299.500065 432.499699 L 315.500122 422.500309 L 331.500179 418.000326 L 348.000464 411.999658 L 363.500293 400.000391 L 379.999544 395.999601 L 395.999601 391.999845 L 418.000326 386.000212 L 434.000382 388.500317 L 450.000439 388.00009 " transform="matrix(3.779528,0,0,3.779528,0,0)"/>
<path style="fill:none;stroke-width:2;stroke-linecap:butt;stroke-linejoin:miter;stroke:rgb(0%,0%,0%);stroke-opacity:1;stroke-miterlimit:4;" d="M 457.499723 388.999512 L 461.500513 404.999569 L 461.500513 427.499487 L 451.50009 449.500212 L 443.499544 466.000496 " transform="matrix(3.779528,0,0,3.779528,0,0)"/>
<path style="fill:none;stroke-width:2;stroke-linecap:butt;stroke-linejoin:miter;stroke:rgb(0%,0%,0%);stroke-opacity:1;stroke-miterlimit:4;" d="M 456.500301 431.000049 L 441.000472 440.500244 L 425.000415 440.500244 L 409.499552 442.500122 L 393.499495 440.500244 L 377.500472 440.500244 L 361.500415 432.499699 L 345.500358 425.000415 " transform="matrix(3.779528,0,0,3.779528,0,0)"/>
<path style="fill:none;stroke-width:2;stroke-linecap:butt;stroke-linejoin:miter;stroke:rgb(0%,0%,0%);stroke-opacity:1;stroke-miterlimit:4;" d="M 349.500114 441.000472 L 336.999585 450.999862 L 321.499756 456.999495 L 305.499699 459.000407 L 289.499642 459.499601 L 273.999813 457.499723 " transform="matrix(3.779528,0,0,3.779528,0,0)"/>
<path style="fill:none;stroke-width:2;stroke-linecap:butt;stroke-linejoin:miter;stroke:rgb(0%,0%,0%);stroke-opacity:1;stroke-miterlimit:4;" d="M 256.500106 420.500431 L 239.999821 414.999992 L 224.499992 404.999569 L 208.499935 402.999691 L 193.000106 402.999691 L 177.000049 409.000358 L 160.999992 412.499886 L 144.999935 422.000081 L 129.500106 423.499731 L 113.500049 429.000171 L 97.499992 430.499821 L 81.499935 418.000326 " transform="matrix(3.779528,0,0,3.779528,0,0)"/>
<path style="fill:none;stroke-width:2;stroke-linecap:butt;stroke-linejoin:miter;stroke:rgb(0%,0%,0%);stroke-opacity:1;stroke-miterlimit:4;" d="M 85.499691 420.000203 L 100.99952 427.999715 L 107.000187 439.499788 L 107.000187 443.499544 L 123.000244 447.500334 L 138.500073 455.499845 L 154.50013 463.500391 " transform="matrix(3.779528,0,0,3.779528,0,0)"/>
<path style="fill:none;stroke-width:2;stroke-linecap:butt;stroke-linejoin:miter;stroke:rgb(0%,0%,0%);stroke-opacity:1;stroke-miterlimit:4;" d="M 162.000448 455.499845 L 146.000391 447.500334 L 130.000334 439.499788 L 114.000277 433.500155 " transform="matrix(3.779528,0,0,3.779528,0,0)"/>
<path style="fill:none;stroke-width:2;stroke-linecap:butt;stroke-linejoin:miter;stroke:rgb(0%,0%,0%);stroke-opacity:1;stroke-miterlimit:4;" d="M 88.500024 428.499943 L 114.999699 444.5 L 137.000423 460.500057 " transform="matrix(3.779528,0,0,3.779528,0,0)"/>
<path style="fill:none;stroke-width:2;stroke-linecap:butt;stroke-linejoin:miter;stroke:rgb(0%,0%,0%);stroke-opacity:1;stroke-miterlimit:4;" d="M 166.999626 463.500391 L 143.000057 447.500334 L 109.000065 431.500277 L 85.499691 429.999593 L 84.000041 434.000382 " transform="matrix(3.779528,0,0,3.779528,0,0)"/>
<path style="fill:none;stroke-width:2;stroke-linecap:butt;stroke-linejoin:miter;stroke:rgb(0%,0%,0%);stroke-opacity:1;stroke-miterlimit:4;" d="M 74.499845 420.999626 L 89.999674 421.499854 L 123.999666 429.500399 L 152.000024 445.99965 L 172.500065 454.000195 " transform="matrix(3.779528,0,0,3.779528,0,0)"/>
<path style="fill:none;stroke-width:2;stroke-linecap:butt;stroke-linejoin:miter;stroke:rgb(0%,0%,0%);stroke-opacity:1;stroke-miterlimit:4;" d="M 144.999935 367.500049 L 128.999878 369.499927 " transform="matrix(3.779528,0,0,3.779528,0,0)"/>
<path style="fill:none;stroke-width:2;stroke-linecap:butt;stroke-linejoin:miter;stroke:rgb(0%,0%,0%);stroke-opacity:1;stroke-miterlimit:4;" d="M 123.000244 357.999854 L 94.999886 371.499805 L 111.500171 371.499805 L 114.000277 361.500415 L 130.499528 351.499992 L 146.499585 352.00022 L 162.99987 348.000464 " transform="matrix(3.779528,0,0,3.779528,0,0)"/>
<path style="fill:none;stroke-width:2;stroke-linecap:butt;stroke-linejoin:miter;stroke:rgb(0%,0%,0%);stroke-opacity:1;stroke-miterlimit:4;" d="M 127 328.499845 L 110.999943 332.499601 L 105.499504 327.999618 L 89.50048 329.999495 " transform="matrix(3.779528,0,0,3.779528,0,0)"/>
<path style="fill:none;stroke-width:2;stroke-linecap:butt;stroke-linejoin:miter;stroke:rgb(0%,0%,0%);stroke-opacity:1;stroke-miterlimit:4;" d="M 99.49987 366.000399 L 83.499813 363.500293 L 67.499756 373.499683 L 51.499699 377.500472 " transform="matrix(3.779528,0,0,3.779528,0,0)"/>
<path style="fill:none;stroke-width:2;stroke-linecap:butt;stroke-linejoin:miter;stroke:rgb(0%,0%,0%);stroke-opacity:1;stroke-miterlimit:4;" d="M 51.000505 373.99991 L 66.999528 370.000155 L 85.000496 375.499561 " transform="matrix(3.779528,0,0,3.779528,0,0)"/>
<path style="fill:none;stroke-width:2;stroke-linecap:butt;stroke-linejoin:miter;stroke:rgb(0%,0%,0%);stroke-opacity:1;stroke-miterlimit:4;" d="M 71.499512 382.999878 L 55.500488 386.999634 " transform="matrix(3.779528,0,0,3.779528,0,0)"/>
<path style="fill:none;stroke-width:2;stroke-linecap:butt;stroke-linejoin:miter;stroke:rgb(0%,0%,0%);stroke-opacity:1;stroke-miterlimit:4;" d="M 57.500366 395.999601 L 73.500423 395.999601 L 89.50048 392.500073 L 105.499504 388.500317 L 121.999788 384.999756 L 137.999845 379.000122 L 153.999902 375.499561 L 169.999959 369.499927 " transform="matrix(3.779528,0,0,3.779528,0,0)"/>
<path style="fill:none;stroke-width:2;stroke-linecap:butt;stroke-linejoin:miter;stroke:rgb(0%,0%,0%);stroke-opacity:1;stroke-miterlimit:4;" d="M 258.499984 327.000195 L 258.499984 295.000081 L 257.999756 279.000024 L 259.999634 263.500195 L 275.500496 254 L 259.000212 263.500195 " transform="matrix(3.779528,0,0,3.779528,0,0)"/>
<path style="fill:none;stroke-width:2;stroke-linecap:butt;stroke-linejoin:miter;stroke:rgb(0%,0%,0%);stroke-opacity:1;stroke-miterlimit:4;" d="M 250.999666 270.000057 L 266.999723 245.50026 L 293.000203 225.500448 L 311.000138 215.500024 L 327.000195 217.499902 L 342.500024 216.000252 " transform="matrix(3.779528,0,0,3.779528,0,0)"/>
<path style="fill:none;stroke-width:2;stroke-linecap:butt;stroke-linejoin:miter;stroke:rgb(0%,0%,0%);stroke-opacity:1;stroke-miterlimit:4;" d="M 359.499504 229.500203 L 353.49987 245.50026 L 345.500358 261.500317 L 341.499569 277.000146 L 335.499935 293.000203 L 329.500301 308.500033 " transform="matrix(3.779528,0,0,3.779528,0,0)"/>
<path style="fill:none;stroke-width:2;stroke-linecap:butt;stroke-linejoin:miter;stroke:rgb(0%,0%,0%);stroke-opacity:1;stroke-miterlimit:4;" d="M 338.000041 286.500342 L 321.999984 291.999748 L 305.999927 259.500439 " transform="matrix(3.779528,0,0,3.779528,0,0)"/>
<path style="fill:none;stroke-width:2;stroke-linecap:butt;stroke-linejoin:miter;stroke:rgb(0%,0%,0%);stroke-opacity:1;stroke-miterlimit:4;" d="M 299.500065 254.500228 L 315.500122 286.500342 " transform="matrix(3.779528,0,0,3.779528,0,0)"/>
<path style="fill:none;stroke-width:2;stroke-linecap:butt;stroke-linejoin:miter;stroke:rgb(0%,0%,0%);stroke-opacity:1;stroke-miterlimit:4;" d="M 286.999536 270.500285 L 294.499854 286.500342 L 302.500399 302.000171 L 312.499788 318.000228 L 321.999984 334.500513 " transform="matrix(3.779528,0,0,3.779528,0,0)"/>
<path style="fill:none;stroke-width:2;stroke-linecap:butt;stroke-linejoin:miter;stroke:rgb(0%,0%,0%);stroke-opacity:1;stroke-miterlimit:4;" d="M 319.499878 319.499878 L 302.999593 293.999626 L 286.999536 264.000423 " transform="matrix(3.779528,0,0,3.779528,0,0)"/>
<path style="fill:none;stroke-width:2;stroke-linecap:butt;stroke-linejoin:miter;stroke:rgb(0%,0%,0%);stroke-opacity:1;stroke-miterlimit:4;" d="M 282.499552 268.500407 L 274.500041 284.500464 L 272.500163 300.499487 L 278.499797 316.499544 L 304.500277 332.499601 " transform="matrix(3.779528,0,0,3.779528,0,0)"/>
<path style="fill:none;stroke-width:2;stroke-linecap:butt;stroke-linejoin:miter;stroke:rgb(0%,0%,0%);stroke-opacity:1;stroke-miterlimit:4;" d="M 305.000505 331.500179 L 289.000448 323.499634 L 273.000391 305.000505 " transform="matrix(3.779528,0,0,3.779528,0,0)"/>
<path style="fill:none;stroke-width:2;stroke-linecap:butt;stroke-linejoin:miter;stroke:rgb(0%,0%,0%);stroke-opacity:1;stroke-miterlimit:4;" d="M 267.499951 308.500033 L 283.500008 326.499967 L 299.500065 336.500391 L 315.500122 344.499902 " transform="matrix(3.779528,0,0,3.779528,0,0)"/>
<path style="fill:none;stroke-width:2;stroke-linecap:butt;stroke-linejoin:miter;stroke:rgb(0%,0%,0%);stroke-opacity:1;stroke-miterlimit:4;" d="M 321.499756 334.000285 L 289.499642 277.999569 L 273.499585 284.000236 " transform="matrix(3.779528,0,0,3.779528,0,0)"/>
<path style="fill:none;stroke-width:2;stroke-linecap:butt;stroke-linejoin:miter;stroke:rgb(0%,0%,0%);stroke-opacity:1;stroke-miterlimit:4;" d="M 266.000301 280.499674 L 277.999569 258.499984 L 270.000057 274.500041 L 266.000301 289.99987 L 265.500073 305.499699 L 275.500496 321.499756 L 301.499943 336.999585 " transform="matrix(3.779528,0,0,3.779528,0,0)"/>
<path style="fill:none;stroke-width:2;stroke-linecap:butt;stroke-linejoin:miter;stroke:rgb(0%,0%,0%);stroke-opacity:1;stroke-miterlimit:4;" d="M 254.500228 339.499691 L 250.500472 325.499512 L 250.500472 293.500431 L 250.999666 277.500374 L 255.000456 261.999512 L 266.999723 246.000488 L 275.000269 246.499683 L 284.500464 246.499683 L 262.49974 236.999487 L 246.000488 243.000155 L 230.000431 255.000456 " transform="matrix(3.779528,0,0,3.779528,0,0)"/>
<path style="fill:none;stroke-width:2;stroke-linecap:butt;stroke-linejoin:miter;stroke:rgb(0%,0%,0%);stroke-opacity:1;stroke-miterlimit:4;" d="M 215.500024 274.500041 L 230.999854 248.499561 L 246.99991 236.500293 L 262.49974 230.000431 L 243.999577 241.999699 L 227.99952 257.499528 L 219.49978 273.499585 L 215.500024 305.499699 L 213.500146 320.999528 L 209.500391 352.999642 L 209.999585 368.999699 L 225.999642 363.500293 L 242.499927 366.000399 L 323.499634 366.000399 L 339.499691 366.499593 L 386.999634 366.499593 L 402.500496 366.000399 L 434.000382 366.000399 " transform="matrix(3.779528,0,0,3.779528,0,0)"/>
<path style="fill:none;stroke-width:2;stroke-linecap:butt;stroke-linejoin:miter;stroke:rgb(0%,0%,0%);stroke-opacity:1;stroke-miterlimit:4;" d="M 454.000195 352.00022 L 450.000439 336.000163 L 448.499756 320.000106 L 446.499878 303.499821 L 442.500122 287.499764 L 441.000472 271.499707 L 432.999927 255.49965 L 410.500008 239.499593 L 378.499894 225.500448 L 394.499951 209.500391 L 402.500496 193.500334 L 407.999902 178.000505 L 409.99978 162.499642 L 409.99978 146.499585 L 407.999902 130.499528 L 406.000024 114.500505 L 402.000269 98.00022 L 395.999601 82.000163 L 389.49974 69.999862 L 383.500106 63.5 L 365.500171 47.499943 L 327.999618 37.49952 L 311.999561 37.000326 L 296.499731 41.500309 L 280.499674 51.499699 L 264.499618 67.999984 L 248.499561 100.500326 " transform="matrix(3.779528,0,0,3.779528,0,0)"/>
<path style="fill:none;stroke-width:2;stroke-linecap:butt;stroke-linejoin:miter;stroke:rgb(0%,0%,0%);stroke-opacity:1;stroke-miterlimit:4;" d="M 268.000179 109.000065 L 284.000236 93.000008 L 288.50022 96.999764 L 270.000057 123.000244 L 268.000179 141.000179 L 281.50013 150.500374 L 301.499943 150.500374 " transform="matrix(3.779528,0,0,3.779528,0,0)"/>
<path style="fill:none;stroke-width:2;stroke-linecap:butt;stroke-linejoin:miter;stroke:rgb(0%,0%,0%);stroke-opacity:1;stroke-miterlimit:4;" d="M 298.000415 144.000513 L 282.000358 150.000146 " transform="matrix(3.779528,0,0,3.779528,0,0)"/>
<path style="fill:none;stroke-width:2;stroke-linecap:butt;stroke-linejoin:miter;stroke:rgb(0%,0%,0%);stroke-opacity:1;stroke-miterlimit:4;" d="M 268.500407 143.500285 L 268.500407 137.499618 L 284.500464 132.000212 L 300.499487 137.999845 " transform="matrix(3.779528,0,0,3.779528,0,0)"/>
<path style="fill:none;stroke-width:2;stroke-linecap:butt;stroke-linejoin:miter;stroke:rgb(0%,0%,0%);stroke-opacity:1;stroke-miterlimit:4;" d="M 300.999715 132.999634 L 284.500464 126.499772 L 268.000179 128.999878 " transform="matrix(3.779528,0,0,3.779528,0,0)"/>
<path style="fill:none;stroke-width:2;stroke-linecap:butt;stroke-linejoin:miter;stroke:rgb(0%,0%,0%);stroke-opacity:1;stroke-miterlimit:4;" d="M 268.000179 126.499772 L 284.000236 121.000366 L 299.500065 125.000122 " transform="matrix(3.779528,0,0,3.779528,0,0)"/>
<path style="fill:none;stroke-width:2;stroke-linecap:butt;stroke-linejoin:miter;stroke:rgb(0%,0%,0%);stroke-opacity:1;stroke-miterlimit:4;" d="M 286.000114 89.50048 L 270.000057 105.499504 L 264.000423 121.999788 L 259.999634 137.999845 L 243.999577 149.499919 L 260.499862 159.500342 L 266.000301 175.500399 L 277.999569 191.500456 L 298.000415 207.500513 L 294.499854 223.499536 L 289.000448 239.499593 L 288.50022 255.999878 L 293.000203 271.999935 L 300.999715 287.999992 L 311.000138 304.000049 L 318.99965 320.000106 L 327.000195 336.500391 L 336.500391 344.499902 L 352.500448 314.499666 " transform="matrix(3.779528,0,0,3.779528,0,0)"/>
<path style="fill:none;stroke-width:2;stroke-linecap:butt;stroke-linejoin:miter;stroke:rgb(0%,0%,0%);stroke-opacity:1;stroke-miterlimit:4;" d="M 359.499504 296.499731 L 353.49987 312.499788 L 345.500358 328.499845 L 335.499935 344.499902 " transform="matrix(3.779528,0,0,3.779528,0,0)"/>
<path style="fill:none;stroke-width:2;stroke-linecap:butt;stroke-linejoin:miter;stroke:rgb(0%,0%,0%);stroke-opacity:1;stroke-miterlimit:4;" d="M 368.500505 397.000057 L 354.500326 399.500163 L 348.000464 411.500464 L 354.000098 431.500277 L 355.999976 445.99965 L 355.999976 461.999707 L 353.49987 474.000008 L 369.499927 473.49978 L 416.99987 473.49978 L 432.999927 471.499902 L 448.999984 452.000317 " transform="matrix(3.779528,0,0,3.779528,0,0)"/>
<path style="fill:none;stroke-width:2;stroke-linecap:butt;stroke-linejoin:miter;stroke:rgb(0%,0%,0%);stroke-opacity:1;stroke-miterlimit:4;" d="M 456.000073 452.000317 L 440.000016 475.999886 L 424.500187 477.999764 L 408.50013 478.499992 L 360.499959 478.499992 L 350.999764 466.499691 L 352.999642 450.499634 " transform="matrix(3.779528,0,0,3.779528,0,0)"/>
<path style="fill:none;stroke-width:2;stroke-linecap:butt;stroke-linejoin:miter;stroke:rgb(0%,0%,0%);stroke-opacity:1;stroke-miterlimit:4;" d="M 371.499805 350.999764 L 363.500293 334.999707 L 363.500293 318.99965 L 363.999487 302.999593 L 363.999487 286.999536 " transform="matrix(3.779528,0,0,3.779528,0,0)"/>
<path style="fill:none;stroke-width:2;stroke-linecap:butt;stroke-linejoin:miter;stroke:rgb(0%,0%,0%);stroke-opacity:1;stroke-miterlimit:4;" d="M 376.500016 267.499951 L 375.999788 283.500008 L 377.999666 299.500065 L 382.000456 314.999894 L 391.999845 330.999951 L 388.500317 346.49978 " transform="matrix(3.779528,0,0,3.779528,0,0)"/>
<path style="fill:none;stroke-width:2;stroke-linecap:butt;stroke-linejoin:miter;stroke:rgb(0%,0%,0%);stroke-opacity:1;stroke-miterlimit:4;" d="M 381 266.499495 L 396.499829 260.499862 " transform="matrix(3.779528,0,0,3.779528,0,0)"/>
<path style="fill:none;stroke-width:2;stroke-linecap:butt;stroke-linejoin:miter;stroke:rgb(0%,0%,0%);stroke-opacity:1;stroke-miterlimit:4;" d="M 392.500073 258.499984 L 402.999691 274.500041 L 404.999569 290.500098 L 402.999691 305.999927 L 398.999935 321.999984 L 400.999813 315.500122 " transform="matrix(3.779528,0,0,3.779528,0,0)"/>
<path style="fill:none;stroke-width:2;stroke-linecap:butt;stroke-linejoin:miter;stroke:rgb(0%,0%,0%);stroke-opacity:1;stroke-miterlimit:4;" d="M 402.500496 255.999878 L 386.000212 241.999699 L 382.000456 250.000244 L 375.999788 241.500505 L 355.999976 235.499837 L 343.999674 246.99991 L 327.500423 249.500016 L 311.000138 247.500138 L 297.500187 241.500505 L 275.500496 247.500138 L 273.499585 225.500448 L 257.499528 211.500269 L 241.500505 187.999894 " transform="matrix(3.779528,0,0,3.779528,0,0)"/>
<path style="fill:none;stroke-width:2;stroke-linecap:butt;stroke-linejoin:miter;stroke:rgb(0%,0%,0%);stroke-opacity:1;stroke-miterlimit:4;" d="M 244.499805 150.999569 L 260.499862 162.499642 L 277.000146 190.5 L 293.500431 204.500179 L 309.500488 210.499813 L 325.499512 214.499569 L 341.999797 210.499813 L 361.999609 196.499634 L 377.999666 176.499821 " transform="matrix(3.779528,0,0,3.779528,0,0)"/>
<path style="fill:none;stroke-width:2;stroke-linecap:butt;stroke-linejoin:miter;stroke:rgb(0%,0%,0%);stroke-opacity:1;stroke-miterlimit:4;" d="M 396.499829 193.999528 L 390.500195 205.999829 L 398.499707 189.999772 L 389.999967 214.000374 L 373.99991 232.000309 " transform="matrix(3.779528,0,0,3.779528,0,0)"/>
<path style="fill:none;stroke-width:2;stroke-linecap:butt;stroke-linejoin:miter;stroke:rgb(0%,0%,0%);stroke-opacity:1;stroke-miterlimit:4;" d="M 375.000366 232.499504 L 373.000488 248.499561 L 377.000244 257.999756 L 382.999878 270.000057 L 382.49965 286.000114 L 386.500439 307.499577 L 394.499951 323.499634 L 396.499829 329.999495 " transform="matrix(3.779528,0,0,3.779528,0,0)"/>
<path style="fill:none;stroke-width:2;stroke-linecap:butt;stroke-linejoin:miter;stroke:rgb(0%,0%,0%);stroke-opacity:1;stroke-miterlimit:4;" d="M 450.499634 369.499927 L 434.999805 369.499927 L 418.49952 370.000155 L 404.500374 372.000033 L 393.999723 388.00009 L 377.999666 389.999967 L 362.499837 395.999601 L 346.49978 407.499674 L 330.499723 411.500464 L 314.000472 417.500098 L 298.000415 413.000114 L 281.50013 405.499797 L 265.500073 395.999601 L 249.500016 386.000212 L 233.499959 379.999544 L 217.499902 375.999788 L 201.499845 382.000456 L 187.499666 386.000212 L 171.000415 393.999723 L 155.000358 400.000391 L 139.000301 404.000146 L 123.000244 407.499674 L 107.000187 411.500464 L 91.00013 415.50022 L 75.500301 418.000326 L 60.000472 422.000081 L 55.999683 413.999536 L 55.999683 393.499495 L 51.999927 377.999666 L 48.000171 357.999854 L 46.499487 342.500024 L 44.499609 326.499967 L 36.500098 316.499544 L 30.500464 308.500033 L 26.499674 290.500098 L 28.499552 274.500041 " transform="matrix(3.779528,0,0,3.779528,0,0)"/>
<path style="fill:none;stroke-width:2;stroke-linecap:butt;stroke-linejoin:miter;stroke:rgb(0%,0%,0%);stroke-opacity:1;stroke-miterlimit:4;" d="M 23.999569 276.499919 L 39.999626 276.499919 L 55.999683 270.000057 L 71.99974 264.000423 L 87.999797 259.500439 L 104.500081 257.000334 L 120.500138 253.499772 L 136.500195 250.000244 L 152.500252 246.499683 L 157.000236 256.500106 L 160.999992 273.000391 L 144.999935 277.000146 " transform="matrix(3.779528,0,0,3.779528,0,0)"/>
<path style="fill:none;stroke-width:2;stroke-linecap:butt;stroke-linejoin:miter;stroke:rgb(0%,0%,0%);stroke-opacity:1;stroke-miterlimit:4;" d="M 148.500496 284.500464 L 132.500439 288.50022 L 116.000155 292.499976 L 99.49987 294.499854 L 83.499813 286.500342 L 82.000163 282.000358 L 66.000106 288.50022 " transform="matrix(3.779528,0,0,3.779528,0,0)"/>
<path style="fill:none;stroke-width:2;stroke-linecap:butt;stroke-linejoin:miter;stroke:rgb(0%,0%,0%);stroke-opacity:1;stroke-miterlimit:4;" d="M 44.999837 293.500431 L 56.49991 280.00048 L 57.000138 295.999504 L 37.000326 309.999683 L 53.000382 305.999927 L 57.000138 302.000171 L 73.000195 302.500399 L 88.500024 298.499609 L 102.500203 278.499797 L 118.50026 286.999536 L 122.500016 275.000269 L 130.499528 275.000269 L 146.499585 266.999723 " transform="matrix(3.779528,0,0,3.779528,0,0)"/>
<path style="fill:none;stroke-width:2;stroke-linecap:butt;stroke-linejoin:miter;stroke:rgb(0%,0%,0%);stroke-opacity:1;stroke-miterlimit:4;" d="M 148.000269 341.000374 L 132.000212 345.00013 L 116.000155 350.999764 L 100.000098 352.999642 L 84.000041 357.000431 L 67.999984 361.500415 L 51.999927 363.500293 " transform="matrix(3.779528,0,0,3.779528,0,0)"/>
<path style="fill:none;stroke-width:2;stroke-linecap:butt;stroke-linejoin:miter;stroke:rgb(0%,0%,0%);stroke-opacity:1;stroke-miterlimit:4;" d="M 51.499699 359.999731 L 67.499756 352.00022 " transform="matrix(3.779528,0,0,3.779528,0,0)"/>
<path style="fill:none;stroke-width:2;stroke-linecap:butt;stroke-linejoin:miter;stroke:rgb(0%,0%,0%);stroke-opacity:1;stroke-miterlimit:4;" d="M 69.000439 345.500358 L 53.000382 349.500114 " transform="matrix(3.779528,0,0,3.779528,0,0)"/>
<path style="fill:none;stroke-width:2;stroke-linecap:butt;stroke-linejoin:miter;stroke:rgb(0%,0%,0%);stroke-opacity:1;stroke-miterlimit:4;" d="M 53.000382 343.999674 L 69.000439 341.499569 L 85.000496 334.999707 L 105.000309 327.000195 L 73.000195 334.999707 " transform="matrix(3.779528,0,0,3.779528,0,0)"/>
<path style="fill:none;stroke-width:2;stroke-linecap:butt;stroke-linejoin:miter;stroke:rgb(0%,0%,0%);stroke-opacity:1;stroke-miterlimit:4;" d="M 66.999528 338.000041 L 51.000505 340.500146 " transform="matrix(3.779528,0,0,3.779528,0,0)"/>
<path style="fill:none;stroke-width:2;stroke-linecap:butt;stroke-linejoin:miter;stroke:rgb(0%,0%,0%);stroke-opacity:1;stroke-miterlimit:4;" d="M 51.999927 332.000407 L 67.999984 334.000285 L 83.499813 327.999618 L 98.999642 323.499634 L 114.500505 321.499756 " transform="matrix(3.779528,0,0,3.779528,0,0)"/>
<path style="fill:none;stroke-width:2;stroke-linecap:butt;stroke-linejoin:miter;stroke:rgb(0%,0%,0%);stroke-opacity:1;stroke-miterlimit:4;" d="M 128.49965 314.000472 L 112.499593 314.000472 L 96.499536 316.00035 L 80.500513 320.000106 L 64.99965 323.499634 L 48.999593 325.499512 " transform="matrix(3.779528,0,0,3.779528,0,0)"/>
<path style="fill:none;stroke-width:2;stroke-linecap:butt;stroke-linejoin:miter;stroke:rgb(0%,0%,0%);stroke-opacity:1;stroke-miterlimit:4;" d="M 42.999959 318.000228 L 59.000016 311.500366 L 75.000073 307.499577 L 91.00013 304.000049 L 107.000187 300.499487 L 139.000301 292.499976 L 154.50013 290.500098 L 160.499764 302.500399 L 162.499642 318.500456 L 166.999626 334.500513 L 168.999504 350.499536 L 173.000293 366.499593 " transform="matrix(3.779528,0,0,3.779528,0,0)"/>
<path style="fill:none;stroke-width:2;stroke-linecap:butt;stroke-linejoin:miter;stroke:rgb(0%,0%,0%);stroke-opacity:1;stroke-miterlimit:4;" d="M 169.499731 393.000301 L 187.499666 377.500472 L 179.500155 345.500358 L 178.000505 329.500301 L 173.999715 314.000472 L 170.500187 298.000415 L 168.999504 282.499552 L 166.999626 274.500041 L 163.500098 258.499984 L 155.499552 242.499927 L 146.999813 240.500049 L 130.999756 243.999577 L 114.999699 248.000366 L 98.999642 251.499894 L 82.999585 255.999878 L 66.999528 259.999634 L 51.000505 264.499618 L 35.000448 266.499495 L 19.000391 272.500163 " transform="matrix(3.779528,0,0,3.779528,0,0)"/>
<path style="fill:none;stroke-width:2;stroke-linecap:butt;stroke-linejoin:miter;stroke:rgb(0%,0%,0%);stroke-opacity:1;stroke-miterlimit:4;" d="M 26.00048 266.000301 L 17.999935 282.000358 L 21.999691 298.000415 L 26.00048 314.499666 L 30.000236 330.499723 L 32.000114 346.49978 L 35.499642 362.499837 L 37.000326 378.499894 L 41.000081 394.499951 L 45.500065 409.99978 " transform="matrix(3.779528,0,0,3.779528,0,0)"/>
<path style="fill:none;stroke-width:2;stroke-linecap:butt;stroke-linejoin:miter;stroke:rgb(0%,0%,0%);stroke-opacity:1;stroke-miterlimit:4;" d="M 74.499845 420.500431 L 93.000008 436.500488 L 127 452.99974 L 155.000358 457.499723 " transform="matrix(3.779528,0,0,3.779528,0,0)"/>
<path style="fill:none;stroke-width:2;stroke-linecap:butt;stroke-linejoin:miter;stroke:rgb(0%,0%,0%);stroke-opacity:1;stroke-miterlimit:4;" d="M 380.499772 347.500236 L 372.50026 341.999797 L 370.500382 325.99974 L 370.999577 310.49991 L 368.999699 294.499854 L 369.499927 278.499797 L 371.499805 262.49974 " transform="matrix(3.779528,0,0,3.779528,0,0)"/>
<path style="fill:none;stroke-width:2;stroke-linecap:butt;stroke-linejoin:miter;stroke:rgb(0%,0%,0%);stroke-opacity:1;stroke-miterlimit:4;" d="M 389.49974 248.499561 L 405.499797 264.499618 L 411.500464 280.499674 L 411.500464 312.499788 L 405.499797 327.999618 L 400.000391 343.999674 " transform="matrix(3.779528,0,0,3.779528,0,0)"/>
<path style="fill:none;stroke-width:2;stroke-linecap:butt;stroke-linejoin:miter;stroke:rgb(0%,0%,0%);stroke-opacity:1;stroke-miterlimit:4;" d="M 429.999593 254.500228 L 413.999536 242.499927 L 398.000513 234.500415 L 382.000456 227.99952 " transform="matrix(3.779528,0,0,3.779528,0,0)"/>
<path style="fill:none;stroke-width:2;stroke-linecap:butt;stroke-linejoin:miter;stroke:rgb(0%,0%,0%);stroke-opacity:1;stroke-miterlimit:4;" d="M 379.999544 234.000187 L 413.500342 250.000244 L 432.000505 266.499495 L 436.00026 282.499552 L 438.500366 298.000415 L 442.500122 313.500244 L 445.000228 329.999495 L 448.999984 345.999552 L 450.999862 361.999609 " transform="matrix(3.779528,0,0,3.779528,0,0)"/>
<path style="fill:none;stroke-width:2;stroke-linecap:butt;stroke-linejoin:miter;stroke:rgb(0%,0%,0%);stroke-opacity:1;stroke-miterlimit:4;" d="M 424.500187 254 L 408.50013 243.999577 L 391.999845 238.500171 L 375.999788 232.999731 " transform="matrix(3.779528,0,0,3.779528,0,0)"/>
<path style="fill:none;stroke-width:2;stroke-linecap:butt;stroke-linejoin:miter;stroke:rgb(0%,0%,0%);stroke-opacity:1;stroke-miterlimit:4;" d="M 363.000065 230.999854 L 366.499593 246.99991 L 366.999821 262.999967 L 362.499837 279.000024 L 356.500203 294.499854 L 348.000464 310.49991 L 340.500146 326.499967 " transform="matrix(3.779528,0,0,3.779528,0,0)"/>
<path style="fill:none;stroke-width:2;stroke-linecap:butt;stroke-linejoin:miter;stroke:rgb(0%,0%,0%);stroke-opacity:1;stroke-miterlimit:4;" d="M 334.500513 253.499772 L 318.000228 254 L 302.000171 252.000122 " transform="matrix(3.779528,0,0,3.779528,0,0)"/>
<path style="fill:none;stroke-width:2;stroke-linecap:butt;stroke-linejoin:miter;stroke:rgb(0%,0%,0%);stroke-opacity:1;stroke-miterlimit:4;" d="M 300.999715 252.50035 L 309.00026 268.500407 L 316.999772 284.000236 L 325.000317 299.500065 " transform="matrix(3.779528,0,0,3.779528,0,0)"/>
<path style="fill:none;stroke-width:2;stroke-linecap:butt;stroke-linejoin:miter;stroke:rgb(0%,0%,0%);stroke-opacity:1;stroke-miterlimit:4;" d="M 330.999951 328.499845 L 327.000195 312.499788 L 318.500456 296.499731 L 310.49991 280.499674 L 302.500399 264.499618 L 294.499854 248.499561 L 300.499487 246.499683 L 294.499854 230.999854 " transform="matrix(3.779528,0,0,3.779528,0,0)"/>
<path style="fill:none;stroke-width:2;stroke-linecap:butt;stroke-linejoin:miter;stroke:rgb(0%,0%,0%);stroke-opacity:1;stroke-miterlimit:4;" d="M 293.500431 178.999927 L 309.500488 182.500488 L 325.499512 184.999561 L 341.499569 178.999927 L 338.000041 187.000472 " transform="matrix(3.779528,0,0,3.779528,0,0)"/>
<path style="fill:none;stroke-width:2;stroke-linecap:butt;stroke-linejoin:miter;stroke:rgb(0%,0%,0%);stroke-opacity:1;stroke-miterlimit:4;" d="M 344.499902 147.500041 L 360.499959 153.499674 " transform="matrix(3.779528,0,0,3.779528,0,0)"/>
<path style="fill:none;stroke-width:2;stroke-linecap:butt;stroke-linejoin:miter;stroke:rgb(0%,0%,0%);stroke-opacity:1;stroke-miterlimit:4;" d="M 339.999919 144.499707 L 355.999976 134.500317 L 372.000033 135.999967 L 388.00009 134.00009 " transform="matrix(3.779528,0,0,3.779528,0,0)"/>
<path style="fill:none;stroke-width:2;stroke-linecap:butt;stroke-linejoin:miter;stroke:rgb(0%,0%,0%);stroke-opacity:1;stroke-miterlimit:4;" d="M 366.000399 151.499797 L 372.000033 127 L 355.499748 127 L 339.499691 132.999634 " transform="matrix(3.779528,0,0,3.779528,0,0)"/>
<path style="fill:none;stroke-width:2;stroke-linecap:butt;stroke-linejoin:miter;stroke:rgb(0%,0%,0%);stroke-opacity:1;stroke-miterlimit:4;" d="M 337.499813 131.499984 L 353.49987 123.500472 " transform="matrix(3.779528,0,0,3.779528,0,0)"/>
<path style="fill:none;stroke-width:2;stroke-linecap:butt;stroke-linejoin:miter;stroke:rgb(0%,0%,0%);stroke-opacity:1;stroke-miterlimit:4;" d="M 381.500228 116.000155 L 365.500171 116.000155 L 350.000342 107.999609 L 334.500513 98.00022 L 318.500456 83.499813 " transform="matrix(3.779528,0,0,3.779528,0,0)"/>
<path style="fill:none;stroke-width:2;stroke-linecap:butt;stroke-linejoin:miter;stroke:rgb(0%,0%,0%);stroke-opacity:1;stroke-miterlimit:4;" d="M 325.99974 83.499813 L 352.00022 99.49987 " transform="matrix(3.779528,0,0,3.779528,0,0)"/>
<path style="fill:none;stroke-width:2;stroke-linecap:butt;stroke-linejoin:miter;stroke:rgb(0%,0%,0%);stroke-opacity:1;stroke-miterlimit:4;" d="M 372.000033 109.500293 L 355.499748 101.499748 L 339.499691 91.500358 L 323.499634 79.500057 L 307.499577 77.500179 " transform="matrix(3.779528,0,0,3.779528,0,0)"/>
<path style="fill:none;stroke-width:2;stroke-linecap:butt;stroke-linejoin:miter;stroke:rgb(0%,0%,0%);stroke-opacity:1;stroke-miterlimit:4;" d="M 304.000049 85.000496 L 316.00035 101.499748 L 338.000041 117.499805 L 345.999552 137.499618 L 339.999919 153.499674 L 348.000464 153.499674 L 345.999552 157.500464 L 350.499536 153.499674 L 374.500138 141.500407 L 395.000179 143.500285 " transform="matrix(3.779528,0,0,3.779528,0,0)"/>
<path style="fill:none;stroke-width:2;stroke-linecap:butt;stroke-linejoin:miter;stroke:rgb(0%,0%,0%);stroke-opacity:1;stroke-miterlimit:4;" d="M 374.500138 59.500244 L 358.500081 47.499943 " transform="matrix(3.779528,0,0,3.779528,0,0)"/>
<path style="fill:none;stroke-width:2;stroke-linecap:butt;stroke-linejoin:miter;stroke:rgb(0%,0%,0%);stroke-opacity:1;stroke-miterlimit:4;" d="M 363.500293 51.999927 L 349.500114 43.500187 L 334.000285 39.500431 " transform="matrix(3.779528,0,0,3.779528,0,0)"/>
<path style="fill:none;stroke-width:2;stroke-linecap:butt;stroke-linejoin:miter;stroke:rgb(0%,0%,0%);stroke-opacity:1;stroke-miterlimit:4;" d="M 316.999772 71.99974 L 341.499569 87.999797 L 368.999699 103.499626 L 377.500472 123.500472 " transform="matrix(3.779528,0,0,3.779528,0,0)"/>
<path style="fill:none;stroke-width:2;stroke-linecap:butt;stroke-linejoin:miter;stroke:rgb(0%,0%,0%);stroke-opacity:1;stroke-miterlimit:4;" d="M 378.499894 107.999609 L 362.499837 98.500448 L 346.49978 89.999674 L 329.999495 78.000407 L 314.000472 69.999862 L 298.000415 80.000285 " transform="matrix(3.779528,0,0,3.779528,0,0)"/>
<path style="fill:none;stroke-width:2;stroke-linecap:butt;stroke-linejoin:miter;stroke:rgb(0%,0%,0%);stroke-opacity:1;stroke-miterlimit:4;" d="M 311.500366 69.000439 L 307.499577 78.999829 L 317.5 82.999585 L 335.499935 99.49987 L 363.999487 116.000155 L 384.000334 120.500138 L 379.999544 136.500195 L 393.999723 136.500195 L 389.999967 152.500252 L 382.49965 168.500309 L 373.000488 184.500366 L 359.000309 200.500423 L 354.500326 216.50048 L 352.500448 232.499504 L 354.500326 250.500472 L 350.499536 266.499495 L 346.49978 282.000358 L 339.999919 298.000415 L 336.000163 314.000472 L 334.000285 329.999495 L 336.500391 334.000285 L 352.500448 300.000293 " transform="matrix(3.779528,0,0,3.779528,0,0)"/>
<path style="fill:none;stroke-width:2;stroke-linecap:butt;stroke-linejoin:miter;stroke:rgb(0%,0%,0%);stroke-opacity:1;stroke-miterlimit:4;" d="M 341.999797 184.000138 L 325.499512 197.50009 L 315.500122 189.499544 L 299.500065 184.000138 L 293.999626 178.499699 " transform="matrix(3.779528,0,0,3.779528,0,0)"/>
<path style="fill:none;stroke-width:2;stroke-linecap:butt;stroke-linejoin:miter;stroke:rgb(0%,0%,0%);stroke-opacity:1;stroke-miterlimit:4;" d="M 259.999634 130.499528 L 275.999691 107.999609 L 291.999748 91.500358 L 307.999805 89.50048 L 323.499634 107.500415 L 339.499691 117.499805 L 345.500358 119.000488 " transform="matrix(3.779528,0,0,3.779528,0,0)"/>
<path style="fill:none;stroke-width:2;stroke-linecap:butt;stroke-linejoin:miter;stroke:rgb(0%,0%,0%);stroke-opacity:1;stroke-miterlimit:4;" d="M 397.500285 82.500391 L 381.500228 60.499666 L 365.500171 46.999715 L 350.000342 39.000203 L 334.000285 34.50022 L 318.000228 32.500342 L 302.000171 33.999992 L 286.000114 39.999626 L 270.000057 51.499699 L 254 71.499512 L 248.000366 103.000431 L 251.499894 87.499569 L 261.500317 71.499512 L 273.000391 55.500488 L 296.999959 39.500431 " transform="matrix(3.779528,0,0,3.779528,0,0)"/>
</g>
</svg>
