<?xml version="1.0" encoding="UTF-8"?>
<svg xmlns="http://www.w3.org/2000/svg" xmlns:xlink="http://www.w3.org/1999/xlink" width="1935.11811" height="1935.11811" viewBox="0 0 1935.11811 1935.11811" version="1.1">
<g id="surface1">
<path style="fill:none;stroke-width:2;stroke-linecap:butt;stroke-linejoin:miter;stroke:rgb(0%,0%,0%);stroke-opacity:1;stroke-miterlimit:4;" d="M 351.499992 22.499919 L 323.499634 38.499976 L 311.500366 54.500033 L 305.499699 70.50009 L 305.499699 87.000374 L 309.500488 103.000431 L 319.499878 119.000488 L 319.499878 134.999512 L 314.999894 150.999569 L 313.000016 166.500431 L 310.49991 182.500488 L 313.000016 198.499512 L 316.999772 214.499569 L 329.000073 230.499626 L 341.499569 246.000488 L 357.499626 261.500317 L 375.499561 279.000024 L 355.499748 295.000081 L 347.500236 311.000138 L 343.50048 326.499967 L 341.999797 342.500024 L 338.000041 358.500081 L 336.500391 374.500138 L 334.500513 391.000423 L 330.499723 407.00048 L 334.500513 416.99987 L 344.499902 432.999927 L 350.499536 443.499544 L 366.499593 477.499536 L 386.500439 493.499593 L 402.500496 495.500505 L 418.49952 495.999699 L 434.000382 497.999577 L 449.500212 504.000244 L 457.499723 502.000366 L 466.999919 470.000252 " transform="matrix(3.779528,0,0,3.779528,0,0)"/>
<path style="fill:none;stroke-width:2;stroke-linecap:butt;stroke-linejoin:miter;stroke:rgb(0%,0%,0%);stroke-opacity:1;stroke-miterlimit:4;" d="M 469.500024 467.500146 L 463.500391 483.500203 L 455.499845 499.50026 " transform="matrix(3.779528,0,0,3.779528,0,0)"/>
<path style="fill:none;stroke-width:2;stroke-linecap:butt;stroke-linejoin:miter;stroke:rgb(0%,0%,0%);stroke-opacity:1;stroke-miterlimit:4;" d="M 452.000317 509.49965 L 436.500488 502.999788 L 418.49952 497.000155 L 414.499764 465.000041 L 416.499642 448.999984 L 418.49952 433.500155 L 422.500309 417.500098 L 426.500065 402.000269 L 429.999593 386.000212 L 436.00026 370.500382 L 444.5 354.500326 L 452.000317 339.000496 L 461.999707 323.000439 L 469.500024 307.000382 L 477.499536 291.000326 L 484.999854 275.000269 L 488.999609 259.000212 L 478.499992 243.000155 L 476.500114 227.000098 L 478.499992 210.499813 L 482.999976 193.999528 L 486.999731 178.000505 L 491.499715 162.000448 L 487.499959 146.000391 L 456.000073 130.000334 L 434.499577 128.000456 L 418.000326 134.500317 " transform="matrix(3.779528,0,0,3.779528,0,0)"/>
<path style="fill:none;stroke-width:2;stroke-linecap:butt;stroke-linejoin:miter;stroke:rgb(0%,0%,0%);stroke-opacity:1;stroke-miterlimit:4;" d="M 418.999748 144.000513 L 434.999805 134.00009 L 450.999862 131.499984 " transform="matrix(3.779528,0,0,3.779528,0,0)"/>
<path style="fill:none;stroke-width:2;stroke-linecap:butt;stroke-linejoin:miter;stroke:rgb(0%,0%,0%);stroke-opacity:1;stroke-miterlimit:4;" d="M 456.000073 144.999935 L 440.000016 147.500041 " transform="matrix(3.779528,0,0,3.779528,0,0)"/>
<path style="fill:none;stroke-width:2;stroke-linecap:butt;stroke-linejoin:miter;stroke:rgb(0%,0%,0%);stroke-opacity:1;stroke-miterlimit:4;" d="M 434.499577 139.000301 L 454.500423 137.000423 L 479.00022 140.499951 " transform="matrix(3.779528,0,0,3.779528,0,0)"/>
<path style="fill:none;stroke-width:2;stroke-linecap:butt;stroke-linejoin:miter;stroke:rgb(0%,0%,0%);stroke-opacity:1;stroke-miterlimit:4;" d="M 493.000399 132.500439 L 477.000342 125.999544 L 461.000285 116.000155 L 445.000228 103.499626 L 429.000171 91.500358 " transform="matrix(3.779528,0,0,3.779528,0,0)"/>
<path style="fill:none;stroke-width:2;stroke-linecap:butt;stroke-linejoin:miter;stroke:rgb(0%,0%,0%);stroke-opacity:1;stroke-miterlimit:4;" d="M 431.000049 89.000252 L 450.499634 105.000309 L 477.000342 121.000366 " transform="matrix(3.779528,0,0,3.779528,0,0)"/>
<path style="fill:none;stroke-width:2;stroke-linecap:butt;stroke-linejoin:miter;stroke:rgb(0%,0%,0%);stroke-opacity:1;stroke-miterlimit:4;" d="M 440.500244 111.500171 L 424.500187 97.499992 " transform="matrix(3.779528,0,0,3.779528,0,0)"/>
<path style="fill:none;stroke-width:2;stroke-linecap:butt;stroke-linejoin:miter;stroke:rgb(0%,0%,0%);stroke-opacity:1;stroke-miterlimit:4;" d="M 428.499943 87.000374 L 438.500366 102.500203 L 460.500057 118.50026 " transform="matrix(3.779528,0,0,3.779528,0,0)"/>
<path style="fill:none;stroke-width:2;stroke-linecap:butt;stroke-linejoin:miter;stroke:rgb(0%,0%,0%);stroke-opacity:1;stroke-miterlimit:4;" d="M 422.999504 143.500285 L 436.999683 139.499495 L 420.500431 139.499495 L 422.000081 160.999992 L 443.999772 184.999561 L 423.999959 193.500334 L 413.500342 202.999495 L 429.000171 196.999862 L 445.000228 189.00035 L 430.499821 200.999618 " transform="matrix(3.779528,0,0,3.779528,0,0)"/>
<path style="fill:none;stroke-width:2;stroke-linecap:butt;stroke-linejoin:miter;stroke:rgb(0%,0%,0%);stroke-opacity:1;stroke-miterlimit:4;" d="M 416.499642 191.000228 L 400.499585 191.000228 " transform="matrix(3.779528,0,0,3.779528,0,0)"/>
<path style="fill:none;stroke-width:2;stroke-linecap:butt;stroke-linejoin:miter;stroke:rgb(0%,0%,0%);stroke-opacity:1;stroke-miterlimit:4;" d="M 395.500407 189.499544 L 401.500041 203.499723 L 418.000326 209.500391 L 434.000382 202.000073 " transform="matrix(3.779528,0,0,3.779528,0,0)"/>
<path style="fill:none;stroke-width:2;stroke-linecap:butt;stroke-linejoin:miter;stroke:rgb(0%,0%,0%);stroke-opacity:1;stroke-miterlimit:4;" d="M 416.99987 177.500277 L 400.999813 177.500277 " transform="matrix(3.779528,0,0,3.779528,0,0)"/>
<path style="fill:none;stroke-width:2;stroke-linecap:butt;stroke-linejoin:miter;stroke:rgb(0%,0%,0%);stroke-opacity:1;stroke-miterlimit:4;" d="M 398.499707 173.999715 L 414.999992 171.999837 L 429.000171 159.999536 " transform="matrix(3.779528,0,0,3.779528,0,0)"/>
<path style="fill:none;stroke-width:2;stroke-linecap:butt;stroke-linejoin:miter;stroke:rgb(0%,0%,0%);stroke-opacity:1;stroke-miterlimit:4;" d="M 432.499699 166.500431 L 416.499642 158.499886 " transform="matrix(3.779528,0,0,3.779528,0,0)"/>
<path style="fill:none;stroke-width:2;stroke-linecap:butt;stroke-linejoin:miter;stroke:rgb(0%,0%,0%);stroke-opacity:1;stroke-miterlimit:4;" d="M 414.499764 154.50013 L 429.999593 160.499764 L 445.99965 170.500187 " transform="matrix(3.779528,0,0,3.779528,0,0)"/>
<path style="fill:none;stroke-width:2;stroke-linecap:butt;stroke-linejoin:miter;stroke:rgb(0%,0%,0%);stroke-opacity:1;stroke-miterlimit:4;" d="M 434.000382 189.999772 L 418.000326 200.000195 L 402.000269 197.50009 L 386.000212 191.500456 " transform="matrix(3.779528,0,0,3.779528,0,0)"/>
<path style="fill:none;stroke-width:2;stroke-linecap:butt;stroke-linejoin:miter;stroke:rgb(0%,0%,0%);stroke-opacity:1;stroke-miterlimit:4;" d="M 382.49965 191.500456 L 406.500252 207.500513 " transform="matrix(3.779528,0,0,3.779528,0,0)"/>
<path style="fill:none;stroke-width:2;stroke-linecap:butt;stroke-linejoin:miter;stroke:rgb(0%,0%,0%);stroke-opacity:1;stroke-miterlimit:4;" d="M 382.000456 191.500456 L 398.499707 187.499666 L 414.999992 187.499666 L 431.500277 183.49991 L 447.000106 182.00026 " transform="matrix(3.779528,0,0,3.779528,0,0)"/>
<path style="fill:none;stroke-width:2;stroke-linecap:butt;stroke-linejoin:miter;stroke:rgb(0%,0%,0%);stroke-opacity:1;stroke-miterlimit:4;" d="M 465.500269 202.999495 L 443.499544 218.999552 L 433.500155 243.500382 L 431.500277 269.499829 L 429.500399 286.000114 L 425.499609 302.000171 L 419.499976 318.000228 L 413.500342 333.500057 L 409.499552 349.500114 L 407.499674 366.000399 L 405.499797 382.000456 L 397.500285 398.000513 L 389.999967 413.999536 L 384.000334 429.999593 L 382.000456 446.499878 L 386.000212 462.499935 L 384.000334 478.499992 L 386.500439 486.000309 L 394.499951 497.999577 L 410.500008 501.500138 " transform="matrix(3.779528,0,0,3.779528,0,0)"/>
<path style="fill:none;stroke-width:2;stroke-linecap:butt;stroke-linejoin:miter;stroke:rgb(0%,0%,0%);stroke-opacity:1;stroke-miterlimit:4;" d="M 370.000155 477.499536 L 363.500293 461.500513 L 354.99952 445.000228 L 351.499992 429.500399 L 357.499626 413.500342 L 366.000399 397.500285 L 374.500138 381.500228 L 381 366.000399 L 382.49965 350.499536 L 372.000033 330.999951 L 371.499805 314.999894 L 375.499561 291.49952 L 359.499504 301.499943 " transform="matrix(3.779528,0,0,3.779528,0,0)"/>
<path style="fill:none;stroke-width:2;stroke-linecap:butt;stroke-linejoin:miter;stroke:rgb(0%,0%,0%);stroke-opacity:1;stroke-miterlimit:4;" d="M 351.499992 304.500277 L 366.999821 286.500342 L 382.999878 278.499797 L 398.999935 272.500163 L 414.499764 261.999512 L 427.999715 268.000179 L 425.999837 284.000236 L 419.499976 300.000293 L 415.50022 316.00035 L 409.99978 332.000407 L 404.000146 348.000464 L 404.000146 363.999487 L 399.500163 379.999544 L 393.499495 395.999601 L 384.999756 411.999658 L 377.000244 427.999715 L 375.000366 443.999772 L 379.50035 460.500057 " transform="matrix(3.779528,0,0,3.779528,0,0)"/>
<path style="fill:none;stroke-width:2;stroke-linecap:butt;stroke-linejoin:miter;stroke:rgb(0%,0%,0%);stroke-opacity:1;stroke-miterlimit:4;" d="M 377.999666 425.499609 L 393.999723 395.500407 " transform="matrix(3.779528,0,0,3.779528,0,0)"/>
<path style="fill:none;stroke-width:2;stroke-linecap:butt;stroke-linejoin:miter;stroke:rgb(0%,0%,0%);stroke-opacity:1;stroke-miterlimit:4;" d="M 402.999691 390.500195 L 386.999634 420.500431 " transform="matrix(3.779528,0,0,3.779528,0,0)"/>
<path style="fill:none;stroke-width:2;stroke-linecap:butt;stroke-linejoin:miter;stroke:rgb(0%,0%,0%);stroke-opacity:1;stroke-miterlimit:4;" d="M 429.500399 398.499707 L 445.99965 362.499837 L 461.999707 332.499601 L 478.499992 300.499487 L 494.500049 270.500285 L 511.000334 270.000057 " transform="matrix(3.779528,0,0,3.779528,0,0)"/>
<path style="fill:none;stroke-width:2;stroke-linecap:butt;stroke-linejoin:miter;stroke:rgb(0%,0%,0%);stroke-opacity:1;stroke-miterlimit:4;" d="M 512.499984 243.999577 L 502.000366 227.500326 L 506.000122 223.499536 L 508 217.499902 L 508 214.999797 " transform="matrix(3.779528,0,0,3.779528,0,0)"/>
<path style="fill:none;stroke-width:2;stroke-linecap:butt;stroke-linejoin:miter;stroke:rgb(0%,0%,0%);stroke-opacity:1;stroke-miterlimit:4;" d="M 501.500138 212.000496 L 503.500016 241.999699 " transform="matrix(3.779528,0,0,3.779528,0,0)"/>
<path style="fill:none;stroke-width:2;stroke-linecap:butt;stroke-linejoin:miter;stroke:rgb(0%,0%,0%);stroke-opacity:1;stroke-miterlimit:4;" d="M 503.500016 241.999699 L 495.500505 225.999642 L 500.000488 209.999585 L 500.000488 202.000073 " transform="matrix(3.779528,0,0,3.779528,0,0)"/>
<path style="fill:none;stroke-width:2;stroke-linecap:butt;stroke-linejoin:miter;stroke:rgb(0%,0%,0%);stroke-opacity:1;stroke-miterlimit:4;" d="M 482.999976 237.499715 L 499.000033 259.500439 " transform="matrix(3.779528,0,0,3.779528,0,0)"/>
<path style="fill:none;stroke-width:2;stroke-linecap:butt;stroke-linejoin:miter;stroke:rgb(0%,0%,0%);stroke-opacity:1;stroke-miterlimit:4;" d="M 460.500057 357.000431 L 476.500114 345.00013 L 491.999943 334.999707 L 508 318.99965 L 497.500382 329.000073 L 475.000464 345.00013 L 461.000285 361.000187 L 459.000407 376.500016 L 456.999495 392.500073 L 450.999862 408.50013 L 443.00035 424.500187 L 432.999927 440.500244 L 431.000049 442.500122 L 447.000106 413.999536 " transform="matrix(3.779528,0,0,3.779528,0,0)"/>
<path style="fill:none;stroke-width:2;stroke-linecap:butt;stroke-linejoin:miter;stroke:rgb(0%,0%,0%);stroke-opacity:1;stroke-miterlimit:4;" d="M 450.000439 421.499854 L 434.000382 450.000439 L 441.999894 436.00026 L 452.000317 420.000203 L 459.999829 404.500374 L 465.500269 388.500317 L 465.500269 373.000488 L 473.49978 352.999642 L 497.500382 336.999585 L 509.49965 325.000317 L 493.499593 341.000374 L 477.499536 350.499536 L 461.500513 358.500081 " transform="matrix(3.779528,0,0,3.779528,0,0)"/>
<path style="fill:none;stroke-width:2;stroke-linecap:butt;stroke-linejoin:miter;stroke:rgb(0%,0%,0%);stroke-opacity:1;stroke-miterlimit:4;" d="M 425.000415 349.500114 L 430.499821 366.000399 L 441.000472 363.999487 L 456.999495 332.000407 L 472.999552 302.000171 L 488.999609 270.000057 " transform="matrix(3.779528,0,0,3.779528,0,0)"/>
<path style="fill:none;stroke-width:2;stroke-linecap:butt;stroke-linejoin:miter;stroke:rgb(0%,0%,0%);stroke-opacity:1;stroke-miterlimit:4;" d="M 489.499837 255.49965 L 463.500391 239.499593 L 447.500334 233.499959 L 431.500277 239.499593 L 423.499731 261.999512 L 407.499674 271.499707 L 399.500163 270.000057 L 427.499487 254 L 425.499609 244.499805 L 401.500041 222.500114 L 382.999878 206.500057 L 371.499805 190.5 L 357.499626 172.500065 L 354.000098 155.99978 L 354.000098 139.999723 L 363.999487 120.500138 L 375.999788 104.500081 L 393.999723 96.000342 L 406.000024 91.500358 L 389.49974 103.499626 " transform="matrix(3.779528,0,0,3.779528,0,0)"/>
<path style="fill:none;stroke-width:2;stroke-linecap:butt;stroke-linejoin:miter;stroke:rgb(0%,0%,0%);stroke-opacity:1;stroke-miterlimit:4;" d="M 393.999723 96.000342 L 412.499886 94.000464 L 428.499943 109.999487 L 438.500366 125.999544 L 416.000448 130.000334 L 423.999959 125.50035 L 443.499544 119.499683 L 457.999951 129.500106 L 466.000496 132.999634 L 481.500326 134.999512 L 497.500382 143.000057 " transform="matrix(3.779528,0,0,3.779528,0,0)"/>
<path style="fill:none;stroke-width:2;stroke-linecap:butt;stroke-linejoin:miter;stroke:rgb(0%,0%,0%);stroke-opacity:1;stroke-miterlimit:4;" d="M 395.500407 131.499984 L 379.50035 133.499862 L 363.000065 137.499618 " transform="matrix(3.779528,0,0,3.779528,0,0)"/>
<path style="fill:none;stroke-width:2;stroke-linecap:butt;stroke-linejoin:miter;stroke:rgb(0%,0%,0%);stroke-opacity:1;stroke-miterlimit:4;" d="M 360.499959 132.500439 L 375.999788 121.999788 L 391.999845 125.999544 " transform="matrix(3.779528,0,0,3.779528,0,0)"/>
<path style="fill:none;stroke-width:2;stroke-linecap:butt;stroke-linejoin:miter;stroke:rgb(0%,0%,0%);stroke-opacity:1;stroke-miterlimit:4;" d="M 389.999967 148.500496 L 388.500317 146.499585 L 392.500073 144.000513 L 398.999935 128.000456 L 383.500106 127.500228 L 368.000277 125.999544 " transform="matrix(3.779528,0,0,3.779528,0,0)"/>
<path style="fill:none;stroke-width:2;stroke-linecap:butt;stroke-linejoin:miter;stroke:rgb(0%,0%,0%);stroke-opacity:1;stroke-miterlimit:4;" d="M 370.500382 135.49974 L 359.999731 151.499797 L 361.999609 167.499854 L 368.000277 182.999683 L 370.000155 198.99974 L 384.499528 214.499569 L 406.500252 230.499626 L 438.000138 222.500114 L 454.000195 214.499569 " transform="matrix(3.779528,0,0,3.779528,0,0)"/>
<path style="fill:none;stroke-width:2;stroke-linecap:butt;stroke-linejoin:miter;stroke:rgb(0%,0%,0%);stroke-opacity:1;stroke-miterlimit:4;" d="M 413.999536 231.500081 L 398.000513 225.500448 L 379.999544 209.000163 L 363.999487 187.499666 " transform="matrix(3.779528,0,0,3.779528,0,0)"/>
<path style="fill:none;stroke-width:2;stroke-linecap:butt;stroke-linejoin:miter;stroke:rgb(0%,0%,0%);stroke-opacity:1;stroke-miterlimit:4;" d="M 361.500415 164.999748 L 377.999666 198.99974 L 393.999723 216.50048 L 409.99978 223.999764 L 426.500065 221.999886 L 442.500122 215.500024 L 458.500179 203.499723 L 456.999495 205.499601 L 425.000415 221.499658 L 419.499976 236.999487 " transform="matrix(3.779528,0,0,3.779528,0,0)"/>
<path style="fill:none;stroke-width:2;stroke-linecap:butt;stroke-linejoin:miter;stroke:rgb(0%,0%,0%);stroke-opacity:1;stroke-miterlimit:4;" d="M 397.500285 282.499552 L 381.500228 291.999748 L 365.500171 302.000171 L 349.500114 322.500212 " transform="matrix(3.779528,0,0,3.779528,0,0)"/>
<path style="fill:none;stroke-width:2;stroke-linecap:butt;stroke-linejoin:miter;stroke:rgb(0%,0%,0%);stroke-opacity:1;stroke-miterlimit:4;" d="M 376.500016 315.500122 L 376.500016 305.499699 L 393.000301 298.999837 L 377.000244 314.999894 L 378.499894 330.999951 L 376.500016 347.000008 L 373.99991 363.500293 L 370.000155 379.50035 L 361.500415 395.999601 L 350.999764 411.999658 L 345.00013 427.999715 L 361.000187 406.000024 " transform="matrix(3.779528,0,0,3.779528,0,0)"/>
<path style="fill:none;stroke-width:2;stroke-linecap:butt;stroke-linejoin:miter;stroke:rgb(0%,0%,0%);stroke-opacity:1;stroke-miterlimit:4;" d="M 367.500049 383.500106 L 351.499992 411.999658 L 337.499813 402.000269 L 339.499691 386.000212 L 341.999797 368.500505 L 343.999674 352.500448 L 348.499658 336.999585 L 352.500448 320.999528 L 364.499715 305.000505 L 368.000277 295.000081 L 388.00009 286.999536 L 389.999967 275.000269 L 361.999609 259.000212 L 345.999552 243.000155 L 336.500391 226.49987 L 324.50009 210.499813 L 318.99965 194.499756 L 316.999772 178.499699 L 323.000439 164.49952 L 327.000195 148.500496 L 323.000439 142.499829 L 330.499723 126.499772 L 334.500513 110.499715 L 340.500146 94.499658 L 338.500269 82.500391 L 348.499658 66.500334 L 360.499959 50.500277 L 377.999666 34.50022 L 374.500138 30.500464 L 358.500081 28.000358 L 342.500024 31.499886 L 326.499967 42.999959 L 309.999683 70.50009 " transform="matrix(3.779528,0,0,3.779528,0,0)"/>
<path style="fill:none;stroke-width:2;stroke-linecap:butt;stroke-linejoin:miter;stroke:rgb(0%,0%,0%);stroke-opacity:1;stroke-miterlimit:4;" d="M 307.499577 66.999528 L 323.000439 39.500431 L 339.000496 28.000358 L 354.500326 21.999691 L 370.000155 23.999569 L 385.499984 32.500342 L 401.500041 30.500464 L 417.500098 28.499552 L 433.500155 22.499919 L 450.000439 22.499919 L 466.499691 28.499552 L 481.99952 36.500098 L 497.999577 50.500277 " transform="matrix(3.779528,0,0,3.779528,0,0)"/>
<path style="fill:none;stroke-width:2;stroke-linecap:butt;stroke-linejoin:miter;stroke:rgb(0%,0%,0%);stroke-opacity:1;stroke-miterlimit:4;" d="M 502.499561 64.99965 L 486.499504 48.500399 L 470.50048 36.500098 L 452.499512 28.99978 L 436.500488 28.99978 L 418.000326 37.000326 L 400.000391 37.000326 L 383.500106 40.499854 L 367.500049 52.500155 L 357.000431 62.00035 L 341.000374 84.000041 " transform="matrix(3.779528,0,0,3.779528,0,0)"/>
<path style="fill:none;stroke-width:2;stroke-linecap:butt;stroke-linejoin:miter;stroke:rgb(0%,0%,0%);stroke-opacity:1;stroke-miterlimit:4;" d="M 318.500456 80.500513 L 318.500456 82.500391 L 310.49991 100.500326 " transform="matrix(3.779528,0,0,3.779528,0,0)"/>
<path style="fill:none;stroke-width:2;stroke-linecap:butt;stroke-linejoin:miter;stroke:rgb(0%,0%,0%);stroke-opacity:1;stroke-miterlimit:4;" d="M 314.499666 94.999886 L 329.999495 105.000309 L 332.000407 95.500114 L 336.000163 87.499569 L 352.00022 59.500244 L 368.000277 43.500187 " transform="matrix(3.779528,0,0,3.779528,0,0)"/>
<path style="fill:none;stroke-width:2;stroke-linecap:butt;stroke-linejoin:miter;stroke:rgb(0%,0%,0%);stroke-opacity:1;stroke-miterlimit:4;" d="M 350.999764 28.000358 L 325.499512 44.000415 L 314.999894 59.500244 L 309.500488 75.500301 L 311.500366 91.500358 L 320.000106 107.500415 " transform="matrix(3.779528,0,0,3.779528,0,0)"/>
<path style="fill:none;stroke-width:2;stroke-linecap:butt;stroke-linejoin:miter;stroke:rgb(0%,0%,0%);stroke-opacity:1;stroke-miterlimit:4;" d="M 344.499902 118.50026 L 342.500024 146.999813 " transform="matrix(3.779528,0,0,3.779528,0,0)"/>
<path style="fill:none;stroke-width:2;stroke-linecap:butt;stroke-linejoin:miter;stroke:rgb(0%,0%,0%);stroke-opacity:1;stroke-miterlimit:4;" d="M 336.000163 144.999935 L 352.00022 114.999699 L 369.499927 106.499959 L 385.499984 93.000008 L 400.999813 79.500057 L 416.499642 97.499992 L 432.499699 114.000277 L 448.999984 118.50026 " transform="matrix(3.779528,0,0,3.779528,0,0)"/>
<path style="fill:none;stroke-width:2;stroke-linecap:butt;stroke-linejoin:miter;stroke:rgb(0%,0%,0%);stroke-opacity:1;stroke-miterlimit:4;" d="M 486.999731 123.999666 L 470.999674 116.000155 L 454.500423 105.499504 L 438.500366 94.000464 L 422.000081 94.499658 L 400.000391 68.500212 L 383.500106 89.999674 L 404.000146 91.999552 " transform="matrix(3.779528,0,0,3.779528,0,0)"/>
<path style="fill:none;stroke-width:2;stroke-linecap:butt;stroke-linejoin:miter;stroke:rgb(0%,0%,0%);stroke-opacity:1;stroke-miterlimit:4;" d="M 393.499495 67.499756 L 379.50035 83.499813 L 363.500293 99.49987 L 353.49987 114.999699 L 343.50048 130.999756 L 335.499935 146.499585 L 336.000163 162.499642 L 338.500269 178.000505 L 343.000252 193.999528 L 349.500114 209.999585 L 361.999609 225.999642 L 372.000033 241.999699 " transform="matrix(3.779528,0,0,3.779528,0,0)"/>
<path style="fill:none;stroke-width:2;stroke-linecap:butt;stroke-linejoin:miter;stroke:rgb(0%,0%,0%);stroke-opacity:1;stroke-miterlimit:4;" d="M 350.000342 205.999829 L 363.500293 230.000431 L 379.50035 246.000488 L 395.000179 252.000122 L 410.500008 249.500016 L 436.00026 243.500382 L 452.000317 239.499593 L 468.000374 249.500016 " transform="matrix(3.779528,0,0,3.779528,0,0)"/>
<path style="fill:none;stroke-width:2;stroke-linecap:butt;stroke-linejoin:miter;stroke:rgb(0%,0%,0%);stroke-opacity:1;stroke-miterlimit:4;" d="M 404.000146 246.000488 L 387.499862 245.50026 L 371.499805 233.499959 L 355.499748 207.500513 L 339.999919 187.000472 " transform="matrix(3.779528,0,0,3.779528,0,0)"/>
<path style="fill:none;stroke-width:2;stroke-linecap:butt;stroke-linejoin:miter;stroke:rgb(0%,0%,0%);stroke-opacity:1;stroke-miterlimit:4;" d="M 320.500334 200.999618 L 336.500391 227.000098 L 352.00022 249.500016 L 368.000277 262.999967 L 384.000334 271.000513 " transform="matrix(3.779528,0,0,3.779528,0,0)"/>
<path style="fill:none;stroke-width:2;stroke-linecap:butt;stroke-linejoin:miter;stroke:rgb(0%,0%,0%);stroke-opacity:1;stroke-miterlimit:4;" d="M 372.000033 236.500293 L 363.999487 220.500236 L 350.000342 202.500301 L 343.999674 186.500244 L 341.999797 169.999959 L 342.500024 153.999902 L 346.49978 137.999845 L 328.499845 153.999902 " transform="matrix(3.779528,0,0,3.779528,0,0)"/>
<path style="fill:none;stroke-width:2;stroke-linecap:butt;stroke-linejoin:miter;stroke:rgb(0%,0%,0%);stroke-opacity:1;stroke-miterlimit:4;" d="M 318.99965 150.000146 L 316.999772 165.499976 " transform="matrix(3.779528,0,0,3.779528,0,0)"/>
<path style="fill:none;stroke-width:2;stroke-linecap:butt;stroke-linejoin:miter;stroke:rgb(0%,0%,0%);stroke-opacity:1;stroke-miterlimit:4;" d="M 314.499666 152.000024 L 328.499845 128.000456 L 341.999797 112.000399 L 357.999854 93.500236 L 389.999967 65.499878 " transform="matrix(3.779528,0,0,3.779528,0,0)"/>
<path style="fill:none;stroke-width:2;stroke-linecap:butt;stroke-linejoin:miter;stroke:rgb(0%,0%,0%);stroke-opacity:1;stroke-miterlimit:4;" d="M 391.999845 64.500456 L 373.499683 80.000285 L 355.499748 95.500114 L 341.499569 111.500171 L 334.000285 128.000456 L 338.000041 132.000212 L 329.999495 148.000269 L 325.99974 164.000326 " transform="matrix(3.779528,0,0,3.779528,0,0)"/>
<path style="fill:none;stroke-width:2;stroke-linecap:butt;stroke-linejoin:miter;stroke:rgb(0%,0%,0%);stroke-opacity:1;stroke-miterlimit:4;" d="M 316.499544 205.499601 L 332.999829 229.500203 L 348.999886 249.500016 L 364.999943 265.500073 L 381 273.499585 " transform="matrix(3.779528,0,0,3.779528,0,0)"/>
<path style="fill:none;stroke-width:2;stroke-linecap:butt;stroke-linejoin:miter;stroke:rgb(0%,0%,0%);stroke-opacity:1;stroke-miterlimit:4;" d="M 420.999626 334.000285 L 420.999626 349.500114 L 422.999504 365.500171 L 432.999927 370.000155 " transform="matrix(3.779528,0,0,3.779528,0,0)"/>
<path style="fill:none;stroke-width:2;stroke-linecap:butt;stroke-linejoin:miter;stroke:rgb(0%,0%,0%);stroke-opacity:1;stroke-miterlimit:4;" d="M 357.000431 443.499544 L 332.999829 429.500399 L 317.5 421.499854 L 300.999715 411.500464 " transform="matrix(3.779528,0,0,3.779528,0,0)"/>
<path style="fill:none;stroke-width:2;stroke-linecap:butt;stroke-linejoin:miter;stroke:rgb(0%,0%,0%);stroke-opacity:1;stroke-miterlimit:4;" d="M 268.000179 418.999748 L 284.000236 432.999927 L 299.500065 450.499634 L 315.500122 460.500057 L 332.000407 468.999797 L 348.000464 472.999552 L 359.999731 482.999976 " transform="matrix(3.779528,0,0,3.779528,0,0)"/>
<path style="fill:none;stroke-width:2;stroke-linecap:butt;stroke-linejoin:miter;stroke:rgb(0%,0%,0%);stroke-opacity:1;stroke-miterlimit:4;" d="M 334.500513 504.000244 L 318.000228 490.000065 L 302.000171 479.999642 " transform="matrix(3.779528,0,0,3.779528,0,0)"/>
<path style="fill:none;stroke-width:2;stroke-linecap:butt;stroke-linejoin:miter;stroke:rgb(0%,0%,0%);stroke-opacity:1;stroke-miterlimit:4;" d="M 306.500155 479.00022 L 321.999984 495.500505 " transform="matrix(3.779528,0,0,3.779528,0,0)"/>
<path style="fill:none;stroke-width:2;stroke-linecap:butt;stroke-linejoin:miter;stroke:rgb(0%,0%,0%);stroke-opacity:1;stroke-miterlimit:4;" d="M 330.999951 481.99952 L 314.999894 479.999642 L 298.999837 466.000496 " transform="matrix(3.779528,0,0,3.779528,0,0)"/>
<path style="fill:none;stroke-width:2;stroke-linecap:butt;stroke-linejoin:miter;stroke:rgb(0%,0%,0%);stroke-opacity:1;stroke-miterlimit:4;" d="M 302.000171 467.500146 L 302.000171 483.500203 L 316.00035 499.000033 L 320.000106 509.000456 " transform="matrix(3.779528,0,0,3.779528,0,0)"/>
<path style="fill:none;stroke-width:2;stroke-linecap:butt;stroke-linejoin:miter;stroke:rgb(0%,0%,0%);stroke-opacity:1;stroke-miterlimit:4;" d="M 316.499544 506.000122 L 300.499487 508.500228 L 293.000203 506.000122 L 289.000448 493.999821 L 289.000448 486.499504 L 288.50022 470.000252 L 288.50022 454.500423 L 284.500464 438.500366 L 272.500163 422.999504 L 276.499919 407.00048 L 293.000203 388.999512 L 293.000203 325.000317 L 295.999504 302.999593 L 295.999504 286.500342 L 296.499731 270.500285 L 276.499919 252.000122 L 282.99978 236.000065 L 293.500431 219.49978 L 287.999992 198.000317 L 283.500008 187.499666 L 267.499951 199.499967 L 255.49965 221.499658 L 263.500195 233.499959 L 255.000456 211.500269 L 246.99991 195.500212 L 256.500106 168.000081 L 258.499984 152.000024 L 246.000488 154.50013 L 230.000431 157.000236 " transform="matrix(3.779528,0,0,3.779528,0,0)"/>
<path style="fill:none;stroke-width:2;stroke-linecap:butt;stroke-linejoin:miter;stroke:rgb(0%,0%,0%);stroke-opacity:1;stroke-miterlimit:4;" d="M 225.999642 144.999935 L 225.999642 160.999992 L 221.499658 160.999992 L 231.500081 171.000415 L 247.500138 162.99987 L 249.500016 171.000415 " transform="matrix(3.779528,0,0,3.779528,0,0)"/>
<path style="fill:none;stroke-width:2;stroke-linecap:butt;stroke-linejoin:miter;stroke:rgb(0%,0%,0%);stroke-opacity:1;stroke-miterlimit:4;" d="M 250.500472 189.00035 L 266.499495 193.500334 " transform="matrix(3.779528,0,0,3.779528,0,0)"/>
<path style="fill:none;stroke-width:2;stroke-linecap:butt;stroke-linejoin:miter;stroke:rgb(0%,0%,0%);stroke-opacity:1;stroke-miterlimit:4;" d="M 270.000057 184.000138 L 254.500228 184.000138 L 248.499561 197.50009 " transform="matrix(3.779528,0,0,3.779528,0,0)"/>
<path style="fill:none;stroke-width:2;stroke-linecap:butt;stroke-linejoin:miter;stroke:rgb(0%,0%,0%);stroke-opacity:1;stroke-miterlimit:4;" d="M 290.500098 219.49978 L 274.500041 245.50026 " transform="matrix(3.779528,0,0,3.779528,0,0)"/>
<path style="fill:none;stroke-width:2;stroke-linecap:butt;stroke-linejoin:miter;stroke:rgb(0%,0%,0%);stroke-opacity:1;stroke-miterlimit:4;" d="M 277.500374 255.999878 L 293.500431 261.999512 " transform="matrix(3.779528,0,0,3.779528,0,0)"/>
<path style="fill:none;stroke-width:2;stroke-linecap:butt;stroke-linejoin:miter;stroke:rgb(0%,0%,0%);stroke-opacity:1;stroke-miterlimit:4;" d="M 254.500228 250.500472 L 239.000399 254.500228 " transform="matrix(3.779528,0,0,3.779528,0,0)"/>
<path style="fill:none;stroke-width:2;stroke-linecap:butt;stroke-linejoin:miter;stroke:rgb(0%,0%,0%);stroke-opacity:1;stroke-miterlimit:4;" d="M 207.999707 220.500236 L 191.99965 220.500236 " transform="matrix(3.779528,0,0,3.779528,0,0)"/>
<path style="fill:none;stroke-width:2;stroke-linecap:butt;stroke-linejoin:miter;stroke:rgb(0%,0%,0%);stroke-opacity:1;stroke-miterlimit:4;" d="M 189.499544 198.99974 L 205.499601 202.999495 L 209.999585 198.99974 " transform="matrix(3.779528,0,0,3.779528,0,0)"/>
<path style="fill:none;stroke-width:2;stroke-linecap:butt;stroke-linejoin:miter;stroke:rgb(0%,0%,0%);stroke-opacity:1;stroke-miterlimit:4;" d="M 184.000138 175.500399 L 187.499666 187.499666 L 187.499666 216.000252 L 183.49991 232.000309 " transform="matrix(3.779528,0,0,3.779528,0,0)"/>
<path style="fill:none;stroke-width:2;stroke-linecap:butt;stroke-linejoin:miter;stroke:rgb(0%,0%,0%);stroke-opacity:1;stroke-miterlimit:4;" d="M 172.500065 233.499959 L 169.999959 218.00013 L 152.000024 218.00013 " transform="matrix(3.779528,0,0,3.779528,0,0)"/>
<path style="fill:none;stroke-width:2;stroke-linecap:butt;stroke-linejoin:miter;stroke:rgb(0%,0%,0%);stroke-opacity:1;stroke-miterlimit:4;" d="M 134.00009 218.00013 L 150.000146 243.999577 L 166.000203 250.000244 L 182.500488 250.000244 " transform="matrix(3.779528,0,0,3.779528,0,0)"/>
<path style="fill:none;stroke-width:2;stroke-linecap:butt;stroke-linejoin:miter;stroke:rgb(0%,0%,0%);stroke-opacity:1;stroke-miterlimit:4;" d="M 211.500269 205.000407 L 209.000163 200.999618 L 205.499601 184.999561 L 209.999585 179.500155 L 214.000374 157.500464 L 214.000374 141.500407 L 217.499902 143.500285 L 201.499845 137.499618 L 185.499788 141.500407 L 169.499731 147.500041 " transform="matrix(3.779528,0,0,3.779528,0,0)"/>
<path style="fill:none;stroke-width:2;stroke-linecap:butt;stroke-linejoin:miter;stroke:rgb(0%,0%,0%);stroke-opacity:1;stroke-miterlimit:4;" d="M 177.000049 138.500073 L 170.500187 154.50013 L 172.500065 169.999959 L 172.500065 182.00026 L 152.000024 190.5 L 150.000146 210.499813 L 146.000391 214.000374 L 164.000326 229.500203 L 171.499609 230.999854 L 173.499487 236.500293 L 189.499544 225.999642 L 199.499967 214.499569 " transform="matrix(3.779528,0,0,3.779528,0,0)"/>
<path style="fill:none;stroke-width:2;stroke-linecap:butt;stroke-linejoin:miter;stroke:rgb(0%,0%,0%);stroke-opacity:1;stroke-miterlimit:4;" d="M 153.999902 199.499967 L 164.000326 182.00026 L 180.000382 178.499699 L 186.000016 166.500431 " transform="matrix(3.779528,0,0,3.779528,0,0)"/>
<path style="fill:none;stroke-width:2;stroke-linecap:butt;stroke-linejoin:miter;stroke:rgb(0%,0%,0%);stroke-opacity:1;stroke-miterlimit:4;" d="M 182.500488 155.499552 L 198.499512 155.99978 L 205.999829 144.000513 " transform="matrix(3.779528,0,0,3.779528,0,0)"/>
<path style="fill:none;stroke-width:2;stroke-linecap:butt;stroke-linejoin:miter;stroke:rgb(0%,0%,0%);stroke-opacity:1;stroke-miterlimit:4;" d="M 217.499902 146.499585 L 217.499902 162.499642 L 205.499601 178.499699 L 199.499967 180.499577 L 215.500024 171.999837 " transform="matrix(3.779528,0,0,3.779528,0,0)"/>
<path style="fill:none;stroke-width:2;stroke-linecap:butt;stroke-linejoin:miter;stroke:rgb(0%,0%,0%);stroke-opacity:1;stroke-miterlimit:4;" d="M 232.000309 144.000513 L 248.000366 144.499707 L 261.999512 146.499585 L 261.999512 162.499642 L 270.000057 184.500366 L 273.999813 198.000317 L 260.499862 199.499967 L 264.499618 207.500513 L 254.500228 223.499536 L 256.500106 239.499593 L 261.00009 253.499772 L 277.000146 255.49965 L 292.499976 255.49965 L 300.499487 275.500496 L 300.499487 291.999748 L 300.000293 307.999805 L 300.000293 323.999862 L 299.500065 340.500146 L 298.999837 356.500203 L 298.999837 372.50026 L 296.499731 388.00009 L 298.999837 404.000146 L 318.500456 420.000203 " transform="matrix(3.779528,0,0,3.779528,0,0)"/>
<path style="fill:none;stroke-width:2;stroke-linecap:butt;stroke-linejoin:miter;stroke:rgb(0%,0%,0%);stroke-opacity:1;stroke-miterlimit:4;" d="M 298.999837 452.000317 L 327.000195 467.500146 " transform="matrix(3.779528,0,0,3.779528,0,0)"/>
<path style="fill:none;stroke-width:2;stroke-linecap:butt;stroke-linejoin:miter;stroke:rgb(0%,0%,0%);stroke-opacity:1;stroke-miterlimit:4;" d="M 309.999683 478.499992 L 329.999495 493.999821 L 347.500236 510.500106 " transform="matrix(3.779528,0,0,3.779528,0,0)"/>
<path style="fill:none;stroke-width:2;stroke-linecap:butt;stroke-linejoin:miter;stroke:rgb(0%,0%,0%);stroke-opacity:1;stroke-miterlimit:4;" d="M 384.499528 488.000187 L 368.500505 486.000309 L 352.500448 479.999642 L 336.500391 475.999886 L 320.000106 470.000252 L 304.000049 461.500513 L 287.999992 455.499845 " transform="matrix(3.779528,0,0,3.779528,0,0)"/>
<path style="fill:none;stroke-width:2;stroke-linecap:butt;stroke-linejoin:miter;stroke:rgb(0%,0%,0%);stroke-opacity:1;stroke-miterlimit:4;" d="M 307.000382 463.500391 L 327.000195 489.499837 L 343.000252 503.500016 " transform="matrix(3.779528,0,0,3.779528,0,0)"/>
<path style="fill:none;stroke-width:2;stroke-linecap:butt;stroke-linejoin:miter;stroke:rgb(0%,0%,0%);stroke-opacity:1;stroke-miterlimit:4;" d="M 328.499845 508 L 311.999561 495.999699 L 300.000293 491.999943 L 274.500041 504.500472 L 259.000212 506.50035 L 243.000155 506.000122 L 227.000098 506.000122 L 210.499813 504.000244 L 194.499756 503.500016 L 178.000505 504.000244 L 130.000334 504.000244 L 114.000277 504.500472 L 98.00022 504.500472 L 81.499935 504.999666 L 65.499878 504.500472 L 49.499821 504.500472 L 33.499764 504.000244 L 17.499707 502.999788 L 1.49965 502.999788 " transform="matrix(3.779528,0,0,3.779528,0,0)"/>
<path style="fill:none;stroke-width:2;stroke-linecap:butt;stroke-linejoin:miter;stroke:rgb(0%,0%,0%);stroke-opacity:1;stroke-miterlimit:4;" d="M 1.000456 497.500382 L 17.000513 497.500382 L 32.999536 497.999577 L 49.499821 498.499805 L 66.000106 498.499805 L 82.500391 499.000033 L 98.500448 500.499683 L 114.500505 500.499683 L 130.999756 498.499805 L 179.500155 498.499805 L 195.500212 500.99991 L 227.000098 500.99991 L 242.499927 500.499683 L 258.499984 500.99991 L 274.500041 498.499805 " transform="matrix(3.779528,0,0,3.779528,0,0)"/>
<path style="fill:none;stroke-width:2;stroke-linecap:butt;stroke-linejoin:miter;stroke:rgb(0%,0%,0%);stroke-opacity:1;stroke-miterlimit:4;" d="M 281.50013 486.999731 L 266.000301 487.499959 L 57.999561 487.499959 L 41.500309 488.000187 L 9.500195 488.000187 " transform="matrix(3.779528,0,0,3.779528,0,0)"/>
<path style="fill:none;stroke-width:2;stroke-linecap:butt;stroke-linejoin:miter;stroke:rgb(0%,0%,0%);stroke-opacity:1;stroke-miterlimit:4;" d="M 16.500285 411.999658 L 32.500342 440.000016 L 48.500399 453.499967 L 64.000228 461.000285 L 80.000285 465.000041 L 95.500114 465.000041 L 111.500171 460.500057 L 127 450.999862 L 143.000057 438.999561 L 159.500342 411.000236 " transform="matrix(3.779528,0,0,3.779528,0,0)"/>
<path style="fill:none;stroke-width:2;stroke-linecap:butt;stroke-linejoin:miter;stroke:rgb(0%,0%,0%);stroke-opacity:1;stroke-miterlimit:4;" d="M 194.499756 411.500464 L 210.499813 407.499674 L 227.000098 405.499797 " transform="matrix(3.779528,0,0,3.779528,0,0)"/>
<path style="fill:none;stroke-width:2;stroke-linecap:butt;stroke-linejoin:miter;stroke:rgb(0%,0%,0%);stroke-opacity:1;stroke-miterlimit:4;" d="M 234.500415 411.999658 L 218.00013 413.999536 L 202.000073 413.999536 " transform="matrix(3.779528,0,0,3.779528,0,0)"/>
<path style="fill:none;stroke-width:2;stroke-linecap:butt;stroke-linejoin:miter;stroke:rgb(0%,0%,0%);stroke-opacity:1;stroke-miterlimit:4;" d="M 195.500212 395.000179 L 211.500269 386.500439 L 213.500146 394.499951 L 217.499902 398.499707 L 225.500448 402.500496 " transform="matrix(3.779528,0,0,3.779528,0,0)"/>
<path style="fill:none;stroke-width:2;stroke-linecap:butt;stroke-linejoin:miter;stroke:rgb(0%,0%,0%);stroke-opacity:1;stroke-miterlimit:4;" d="M 234.000187 404.500374 L 224.499992 395.999601 L 220.500236 385.499984 L 208.499935 375.499561 L 192.499878 383.500106 " transform="matrix(3.779528,0,0,3.779528,0,0)"/>
<path style="fill:none;stroke-width:2;stroke-linecap:butt;stroke-linejoin:miter;stroke:rgb(0%,0%,0%);stroke-opacity:1;stroke-miterlimit:4;" d="M 200.500423 367.500049 L 232.499504 367.500049 L 248.499561 373.000488 L 264.499618 382.999878 L 280.499674 393.000301 " transform="matrix(3.779528,0,0,3.779528,0,0)"/>
<path style="fill:none;stroke-width:2;stroke-linecap:butt;stroke-linejoin:miter;stroke:rgb(0%,0%,0%);stroke-opacity:1;stroke-miterlimit:4;" d="M 266.000301 377.500472 L 250.000244 367.500049 L 233.499959 359.499504 L 201.499845 359.499504 L 185.499788 363.500293 " transform="matrix(3.779528,0,0,3.779528,0,0)"/>
<path style="fill:none;stroke-width:2;stroke-linecap:butt;stroke-linejoin:miter;stroke:rgb(0%,0%,0%);stroke-opacity:1;stroke-miterlimit:4;" d="M 193.000106 357.499626 L 189.00035 373.499683 L 188.500122 389.999967 L 188.500122 406.000024 L 192.499878 407.999902 L 192.499878 418.000326 L 207.999707 420.000203 L 223.999764 420.500431 L 239.999821 420.500431 L 257.999756 416.99987 L 273.999813 411.000236 L 287.999992 400.999813 L 300.499487 404.999569 L 316.499544 416.499642 " transform="matrix(3.779528,0,0,3.779528,0,0)"/>
<path style="fill:none;stroke-width:2;stroke-linecap:butt;stroke-linejoin:miter;stroke:rgb(0%,0%,0%);stroke-opacity:1;stroke-miterlimit:4;" d="M 282.99978 383.500106 L 282.99978 367.500049 L 282.499552 351.499992 L 282.499552 303.499821 L 280.00048 287.999992 L 268.000179 286.500342 L 220.000008 286.500342 L 203.999951 286.000114 L 171.499609 286.000114 L 155.499552 285.499886 L 123.999666 285.499886 L 107.999609 284.999658 L 92.49978 285.499886 L 76.499723 285.499886 L 44.499609 286.500342 " transform="matrix(3.779528,0,0,3.779528,0,0)"/>
<path style="fill:none;stroke-width:2;stroke-linecap:butt;stroke-linejoin:miter;stroke:rgb(0%,0%,0%);stroke-opacity:1;stroke-miterlimit:4;" d="M 18.500163 254.500228 L 2.500106 254.500228 " transform="matrix(3.779528,0,0,3.779528,0,0)"/>
<path style="fill:none;stroke-width:2;stroke-linecap:butt;stroke-linejoin:miter;stroke:rgb(0%,0%,0%);stroke-opacity:1;stroke-miterlimit:4;" d="M 1.49965 250.000244 L 17.499707 250.000244 " transform="matrix(3.779528,0,0,3.779528,0,0)"/>
<path style="fill:none;stroke-width:2;stroke-linecap:butt;stroke-linejoin:miter;stroke:rgb(0%,0%,0%);stroke-opacity:1;stroke-miterlimit:4;" d="M 1.999878 263.500195 L 50.000049 263.500195 L 66.000106 264.000423 L 97.499992 264.000423 L 113.500049 263.500195 L 129.500106 263.500195 L 144.999935 261.999512 L 177.000049 261.999512 L 193.500334 261.500317 L 209.500391 261.999512 L 257.499528 261.999512 L 273.999813 264.000423 L 290.500098 273.999813 L 290.500098 280.00048 L 288.50022 295.999504 L 288.50022 311.999561 L 287.999992 327.999618 L 287.999992 400.999813 L 308.500033 417.500098 L 336.500391 433.500155 L 352.999642 449.500212 L 361.000187 466.000496 L 366.999821 481.99952 " transform="matrix(3.779528,0,0,3.779528,0,0)"/>
<path style="fill:none;stroke-width:2;stroke-linecap:butt;stroke-linejoin:miter;stroke:rgb(0%,0%,0%);stroke-opacity:1;stroke-miterlimit:4;" d="M 297.500187 475.999886 L 297.500187 491.999943 L 291.49952 508.500228 " transform="matrix(3.779528,0,0,3.779528,0,0)"/>
<path style="fill:none;stroke-width:2;stroke-linecap:butt;stroke-linejoin:miter;stroke:rgb(0%,0%,0%);stroke-opacity:1;stroke-miterlimit:4;" d="M 280.499674 481.99952 L 282.499552 466.000496 L 282.000358 450.000439 L 274.500041 434.000382 L 266.499495 417.500098 L 275.000269 401.500041 L 266.999723 386.000212 L 241.000277 370.000155 " transform="matrix(3.779528,0,0,3.779528,0,0)"/>
<path style="fill:none;stroke-width:2;stroke-linecap:butt;stroke-linejoin:miter;stroke:rgb(0%,0%,0%);stroke-opacity:1;stroke-miterlimit:4;" d="M 246.99991 362.499837 L 262.999967 377.999666 L 289.000448 393.999723 " transform="matrix(3.779528,0,0,3.779528,0,0)"/>
<path style="fill:none;stroke-width:2;stroke-linecap:butt;stroke-linejoin:miter;stroke:rgb(0%,0%,0%);stroke-opacity:1;stroke-miterlimit:4;" d="M 141.000179 389.999967 L 125.000122 389.999967 " transform="matrix(3.779528,0,0,3.779528,0,0)"/>
<path style="fill:none;stroke-width:2;stroke-linecap:butt;stroke-linejoin:miter;stroke:rgb(0%,0%,0%);stroke-opacity:1;stroke-miterlimit:4;" d="M 121.000366 393.000301 L 137.000423 395.500407 " transform="matrix(3.779528,0,0,3.779528,0,0)"/>
<path style="fill:none;stroke-width:2;stroke-linecap:butt;stroke-linejoin:miter;stroke:rgb(0%,0%,0%);stroke-opacity:1;stroke-miterlimit:4;" d="M 135.49974 386.000212 L 119.499683 388.00009 " transform="matrix(3.779528,0,0,3.779528,0,0)"/>
<path style="fill:none;stroke-width:2;stroke-linecap:butt;stroke-linejoin:miter;stroke:rgb(0%,0%,0%);stroke-opacity:1;stroke-miterlimit:4;" d="M 103.499626 416.499642 L 87.499569 418.49952 L 71.499512 418.49952 " transform="matrix(3.779528,0,0,3.779528,0,0)"/>
<path style="fill:none;stroke-width:2;stroke-linecap:butt;stroke-linejoin:miter;stroke:rgb(0%,0%,0%);stroke-opacity:1;stroke-miterlimit:4;" d="M 68.500212 423.499731 L 84.500269 423.499731 L 100.500326 423.999959 " transform="matrix(3.779528,0,0,3.779528,0,0)"/>
<path style="fill:none;stroke-width:2;stroke-linecap:butt;stroke-linejoin:miter;stroke:rgb(0%,0%,0%);stroke-opacity:1;stroke-miterlimit:4;" d="M 84.000041 395.000179 L 67.999984 394.499951 " transform="matrix(3.779528,0,0,3.779528,0,0)"/>
<path style="fill:none;stroke-width:2;stroke-linecap:butt;stroke-linejoin:miter;stroke:rgb(0%,0%,0%);stroke-opacity:1;stroke-miterlimit:4;" d="M 64.000228 392.500073 L 80.000285 384.499528 L 96.000342 384.499528 " transform="matrix(3.779528,0,0,3.779528,0,0)"/>
<path style="fill:none;stroke-width:2;stroke-linecap:butt;stroke-linejoin:miter;stroke:rgb(0%,0%,0%);stroke-opacity:1;stroke-miterlimit:4;" d="M 106.499959 407.00048 L 100.500326 402.999691 L 105.999731 386.999634 L 94.000464 401.500041 L 77.500179 400.000391 L 60.999894 399.500163 " transform="matrix(3.779528,0,0,3.779528,0,0)"/>
<path style="fill:none;stroke-width:2;stroke-linecap:butt;stroke-linejoin:miter;stroke:rgb(0%,0%,0%);stroke-opacity:1;stroke-miterlimit:4;" d="M 44.000415 399.500163 L 28.000358 395.500407 " transform="matrix(3.779528,0,0,3.779528,0,0)"/>
<path style="fill:none;stroke-width:2;stroke-linecap:butt;stroke-linejoin:miter;stroke:rgb(0%,0%,0%);stroke-opacity:1;stroke-miterlimit:4;" d="M 26.00048 391.000423 L 41.999504 386.999634 L 68.500212 379.000122 L 84.500269 378.499894 L 100.99952 378.499894 " transform="matrix(3.779528,0,0,3.779528,0,0)"/>
<path style="fill:none;stroke-width:2;stroke-linecap:butt;stroke-linejoin:miter;stroke:rgb(0%,0%,0%);stroke-opacity:1;stroke-miterlimit:4;" d="M 112.000399 412.499886 L 112.499593 396.499829 L 112.499593 379.999544 L 116.999577 363.500293 L 105.000309 359.499504 L 73.000195 359.499504 L 57.000138 361.999609 " transform="matrix(3.779528,0,0,3.779528,0,0)"/>
<path style="fill:none;stroke-width:2;stroke-linecap:butt;stroke-linejoin:miter;stroke:rgb(0%,0%,0%);stroke-opacity:1;stroke-miterlimit:4;" d="M 60.000472 359.999731 L 57.999561 375.999788 L 57.500366 391.999845 L 57.000138 407.499674 L 56.49991 423.499731 L 66.500334 423.999959 L 82.000163 413.500342 L 98.00022 411.500464 " transform="matrix(3.779528,0,0,3.779528,0,0)"/>
<path style="fill:none;stroke-width:2;stroke-linecap:butt;stroke-linejoin:miter;stroke:rgb(0%,0%,0%);stroke-opacity:1;stroke-miterlimit:4;" d="M 109.999487 427.000293 L 115.499927 411.000236 L 115.499927 379.50035 L 109.999487 365.500171 L 94.000464 365.500171 L 78.000407 366.000399 L 62.00035 364.499715 " transform="matrix(3.779528,0,0,3.779528,0,0)"/>
<path style="fill:none;stroke-width:2;stroke-linecap:butt;stroke-linejoin:miter;stroke:rgb(0%,0%,0%);stroke-opacity:1;stroke-miterlimit:4;" d="M 63.5 363.999487 L 61.500122 379.999544 L 71.499512 384.000334 L 62.999772 407.999902 L 62.499544 423.499731 L 78.000407 429.999593 L 93.500236 429.999593 L 109.500293 428.499943 " transform="matrix(3.779528,0,0,3.779528,0,0)"/>
<path style="fill:none;stroke-width:2;stroke-linecap:butt;stroke-linejoin:miter;stroke:rgb(0%,0%,0%);stroke-opacity:1;stroke-miterlimit:4;" d="M 148.999691 427.999715 L 132.999634 444.5 L 116.999577 454.500423 L 101.499748 460.500057 L 85.499691 460.500057 L 69.499634 458.500179 L 53.000382 450.499634 L 37.000326 436.500488 L 21.000269 408.50013 " transform="matrix(3.779528,0,0,3.779528,0,0)"/>
<path style="fill:none;stroke-width:2;stroke-linecap:butt;stroke-linejoin:miter;stroke:rgb(0%,0%,0%);stroke-opacity:1;stroke-miterlimit:4;" d="M 19.000391 379.000122 L 35.000448 352.999642 L 51.000505 339.000496 L 66.500334 330.499723 L 82.000163 325.99974 L 98.00022 327.999618 L 114.000277 331.500179 L 130.000334 341.999797 L 146.000391 355.999976 " transform="matrix(3.779528,0,0,3.779528,0,0)"/>
<path style="fill:none;stroke-width:2;stroke-linecap:butt;stroke-linejoin:miter;stroke:rgb(0%,0%,0%);stroke-opacity:1;stroke-miterlimit:4;" d="M 158.499886 363.500293 L 142.499829 343.50048 L 126.499772 331.500179 L 110.499715 325.000317 L 94.499658 320.999528 L 78.499601 320.999528 L 62.499544 325.000317 L 46.499487 332.499601 L 30.000236 346.49978 L 14.000179 372.50026 " transform="matrix(3.779528,0,0,3.779528,0,0)"/>
<path style="fill:none;stroke-width:2;stroke-linecap:butt;stroke-linejoin:miter;stroke:rgb(0%,0%,0%);stroke-opacity:1;stroke-miterlimit:4;" d="M 66.000106 324.50009 L 37.999748 341.000374 L 21.500496 357.000431 L 15.499829 372.50026 L 11.500073 388.500317 L 13.499951 404.000146 L 17.999935 420.000203 L 27.50013 436.00026 L 44.000415 452.000317 " transform="matrix(3.779528,0,0,3.779528,0,0)"/>
<path style="fill:none;stroke-width:2;stroke-linecap:butt;stroke-linejoin:miter;stroke:rgb(0%,0%,0%);stroke-opacity:1;stroke-miterlimit:4;" d="M 104.500081 458.500179 L 134.500317 441.999894 L 150.500374 425.499609 L 156.500008 409.000358 L 157.999658 393.499495 L 155.99978 377.999666 L 150.000146 361.999609 L 135.999967 346.49978 L 105.999731 330.499723 " transform="matrix(3.779528,0,0,3.779528,0,0)"/>
<path style="fill:none;stroke-width:2;stroke-linecap:butt;stroke-linejoin:miter;stroke:rgb(0%,0%,0%);stroke-opacity:1;stroke-miterlimit:4;" d="M 105.000309 324.50009 L 137.000423 340.500146 L 152.500252 356.500203 L 160.499764 372.50026 L 164.49952 388.500317 L 162.499642 404.500374 L 158.499886 420.000203 L 148.000269 436.00026 L 128.000456 452.000317 " transform="matrix(3.779528,0,0,3.779528,0,0)"/>
<path style="fill:none;stroke-width:2;stroke-linecap:butt;stroke-linejoin:miter;stroke:rgb(0%,0%,0%);stroke-opacity:1;stroke-miterlimit:4;" d="M 59.000016 454.500423 L 37.000326 438.000138 L 25.000024 422.000081 L 19.000391 405.499797 L 19.000391 389.999967 L 21.000269 373.99991 L 28.99978 358.500081 L 44.999837 342.500024 L 76.999951 326.499967 " transform="matrix(3.779528,0,0,3.779528,0,0)"/>
<path style="fill:none;stroke-width:2;stroke-linecap:butt;stroke-linejoin:miter;stroke:rgb(0%,0%,0%);stroke-opacity:1;stroke-miterlimit:4;" d="M 84.000041 250.000244 L 67.499756 249.500016 L 51.000505 249.500016 L 35.000448 253.499772 L 35.000448 239.000399 L 26.999902 223.499536 L 26.499674 207.500513 L 26.499674 185.499788 L 6.499862 193.500334 L 14.500407 177.500277 L 14.999601 159.500342 L 12.999723 153.499674 L 8.999967 159.500342 L 5.000212 171.999837 L 1.49965 178.000505 " transform="matrix(3.779528,0,0,3.779528,0,0)"/>
<path style="fill:none;stroke-width:2;stroke-linecap:butt;stroke-linejoin:miter;stroke:rgb(0%,0%,0%);stroke-opacity:1;stroke-miterlimit:4;" d="M 16.000057 175.999593 L 32.000114 152.500252 " transform="matrix(3.779528,0,0,3.779528,0,0)"/>
<path style="fill:none;stroke-width:2;stroke-linecap:butt;stroke-linejoin:miter;stroke:rgb(0%,0%,0%);stroke-opacity:1;stroke-miterlimit:4;" d="M 35.000448 170.500187 L 19.499585 176.499821 " transform="matrix(3.779528,0,0,3.779528,0,0)"/>
<path style="fill:none;stroke-width:2;stroke-linecap:butt;stroke-linejoin:miter;stroke:rgb(0%,0%,0%);stroke-opacity:1;stroke-miterlimit:4;" d="M 10.999845 144.499707 L 26.999902 136.500195 L 36.500098 143.000057 L 42.499731 159.000114 L 30.000236 175.500399 L 19.499585 181.500033 L 5.500439 191.500456 L 5.999634 217.499902 L 12.000301 225.500448 L 5.999634 233.499959 L 28.000358 207.500513 L 35.99987 198.000317 L 51.999927 164.49952 " transform="matrix(3.779528,0,0,3.779528,0,0)"/>
<path style="fill:none;stroke-width:2;stroke-linecap:butt;stroke-linejoin:miter;stroke:rgb(0%,0%,0%);stroke-opacity:1;stroke-miterlimit:4;" d="M 49.499821 133.499862 L 33.499764 109.000065 L 17.499707 96.499536 L 1.49965 89.999674 " transform="matrix(3.779528,0,0,3.779528,0,0)"/>
<path style="fill:none;stroke-width:2;stroke-linecap:butt;stroke-linejoin:miter;stroke:rgb(0%,0%,0%);stroke-opacity:1;stroke-miterlimit:4;" d="M 5.000212 92.49978 L 23.000146 108.499837 L 39.000203 123.999666 L 46.999715 139.999723 L 48.500399 155.99978 L 44.499609 171.499609 L 38.499976 187.499666 L 16.500285 198.000317 L 32.500342 196.000439 L 41.000081 169.999959 " transform="matrix(3.779528,0,0,3.779528,0,0)"/>
<path style="fill:none;stroke-width:2;stroke-linecap:butt;stroke-linejoin:miter;stroke:rgb(0%,0%,0%);stroke-opacity:1;stroke-miterlimit:4;" d="M 38.499976 207.000285 L 64.500456 223.499536 L 84.000041 239.499593 " transform="matrix(3.779528,0,0,3.779528,0,0)"/>
<path style="fill:none;stroke-width:2;stroke-linecap:butt;stroke-linejoin:miter;stroke:rgb(0%,0%,0%);stroke-opacity:1;stroke-miterlimit:4;" d="M 88.500024 238.500171 L 71.99974 227.000098 " transform="matrix(3.779528,0,0,3.779528,0,0)"/>
<path style="fill:none;stroke-width:2;stroke-linecap:butt;stroke-linejoin:miter;stroke:rgb(0%,0%,0%);stroke-opacity:1;stroke-miterlimit:4;" d="M 67.999984 227.000098 L 84.000041 239.000399 " transform="matrix(3.779528,0,0,3.779528,0,0)"/>
<path style="fill:none;stroke-width:2;stroke-linecap:butt;stroke-linejoin:miter;stroke:rgb(0%,0%,0%);stroke-opacity:1;stroke-miterlimit:4;" d="M 101.499748 235.499837 L 81.499935 219.49978 " transform="matrix(3.779528,0,0,3.779528,0,0)"/>
<path style="fill:none;stroke-width:2;stroke-linecap:butt;stroke-linejoin:miter;stroke:rgb(0%,0%,0%);stroke-opacity:1;stroke-miterlimit:4;" d="M 73.999618 215.500024 L 90.499902 231.500081 " transform="matrix(3.779528,0,0,3.779528,0,0)"/>
<path style="fill:none;stroke-width:2;stroke-linecap:butt;stroke-linejoin:miter;stroke:rgb(0%,0%,0%);stroke-opacity:1;stroke-miterlimit:4;" d="M 103.499626 244.499805 L 87.499569 230.499626 L 71.000317 224.499992 L 54.500033 216.50048 L 38.499976 209.000163 " transform="matrix(3.779528,0,0,3.779528,0,0)"/>
<path style="fill:none;stroke-width:2;stroke-linecap:butt;stroke-linejoin:miter;stroke:rgb(0%,0%,0%);stroke-opacity:1;stroke-miterlimit:4;" d="M 37.49952 207.999707 L 53.499577 207.500513 L 69.499634 211.500269 L 85.499691 221.499658 L 101.499748 235.499837 L 116.999577 249.500016 L 133.499862 249.500016 " transform="matrix(3.779528,0,0,3.779528,0,0)"/>
<path style="fill:none;stroke-width:2;stroke-linecap:butt;stroke-linejoin:miter;stroke:rgb(0%,0%,0%);stroke-opacity:1;stroke-miterlimit:4;" d="M 143.500285 244.499805 L 127.500228 216.999674 " transform="matrix(3.779528,0,0,3.779528,0,0)"/>
<path style="fill:none;stroke-width:2;stroke-linecap:butt;stroke-linejoin:miter;stroke:rgb(0%,0%,0%);stroke-opacity:1;stroke-miterlimit:4;" d="M 125.999544 202.000073 L 141.999601 198.000317 L 144.000513 202.000073 L 159.999536 214.000374 " transform="matrix(3.779528,0,0,3.779528,0,0)"/>
<path style="fill:none;stroke-width:2;stroke-linecap:butt;stroke-linejoin:miter;stroke:rgb(0%,0%,0%);stroke-opacity:1;stroke-miterlimit:4;" d="M 139.499495 184.500366 L 141.500407 180.499577 L 145.500163 148.999691 L 161.50022 130.999756 L 177.000049 121.000366 L 192.499878 112.499593 L 208.499935 109.000065 L 224.499992 108.499837 L 240.500049 112.499593 L 256.500106 121.000366 L 272.500163 134.999512 L 288.50022 153.00048 " transform="matrix(3.779528,0,0,3.779528,0,0)"/>
<path style="fill:none;stroke-width:2;stroke-linecap:butt;stroke-linejoin:miter;stroke:rgb(0%,0%,0%);stroke-opacity:1;stroke-miterlimit:4;" d="M 286.000114 138.500073 L 270.500285 122.500016 L 254.500228 112.999821 L 237.999943 105.000309 L 221.999886 103.000431 L 205.499601 103.000431 L 189.00035 107.000187 L 173.499487 112.999821 L 157.500464 123.000244 L 141.500407 141.500407 L 125.999544 173.499487 " transform="matrix(3.779528,0,0,3.779528,0,0)"/>
<path style="fill:none;stroke-width:2;stroke-linecap:butt;stroke-linejoin:miter;stroke:rgb(0%,0%,0%);stroke-opacity:1;stroke-miterlimit:4;" d="M 182.500488 140.499951 L 176.499821 156.500008 L 170.500187 184.500366 L 186.500244 184.500366 L 198.499512 172.500065 L 224.499992 174.499943 L 234.000187 175.999593 L 250.000244 173.999715 L 259.999634 177.500277 L 275.999691 184.000138 " transform="matrix(3.779528,0,0,3.779528,0,0)"/>
<path style="fill:none;stroke-width:2;stroke-linecap:butt;stroke-linejoin:miter;stroke:rgb(0%,0%,0%);stroke-opacity:1;stroke-miterlimit:4;" d="M 261.500317 225.999642 L 261.500317 243.999577 L 263.500195 239.999821 L 271.000513 224.499992 L 275.000269 212.499691 L 289.499642 192.499878 L 295.999504 192.499878 L 295.999504 176.499821 L 289.99987 160.499764 L 282.000358 144.000513 L 266.000301 128.000456 L 236.000065 112.000399 " transform="matrix(3.779528,0,0,3.779528,0,0)"/>
<path style="fill:none;stroke-width:2;stroke-linecap:butt;stroke-linejoin:miter;stroke:rgb(0%,0%,0%);stroke-opacity:1;stroke-miterlimit:4;" d="M 238.500171 108.499837 L 266.999723 124.499894 L 282.99978 140.499951 L 293.000203 155.99978 L 298.999837 171.999837 L 300.999715 187.499666 L 296.999959 203.499723 L 284.999658 218.999552 L 275.500496 234.999609 L 261.500317 248.999788 L 277.500374 233.499959 " transform="matrix(3.779528,0,0,3.779528,0,0)"/>
<path style="fill:none;stroke-width:2;stroke-linecap:butt;stroke-linejoin:miter;stroke:rgb(0%,0%,0%);stroke-opacity:1;stroke-miterlimit:4;" d="M 366.999821 143.500285 L 382.999878 149.499919 " transform="matrix(3.779528,0,0,3.779528,0,0)"/>
<path style="fill:none;stroke-width:2;stroke-linecap:butt;stroke-linejoin:miter;stroke:rgb(0%,0%,0%);stroke-opacity:1;stroke-miterlimit:4;" d="M 334.000285 99.49987 L 341.999797 84.000041 L 352.00022 67.999984 L 368.000277 51.499699 L 391.999845 35.499642 " transform="matrix(3.779528,0,0,3.779528,0,0)"/>
<path style="fill:none;stroke-width:2;stroke-linecap:butt;stroke-linejoin:miter;stroke:rgb(0%,0%,0%);stroke-opacity:1;stroke-miterlimit:4;" d="M 432.000505 27.50013 L 411.999658 43.500187 L 407.499674 59.500244 L 405.499797 75.500301 L 417.500098 91.500358 L 436.00026 107.999609 L 459.999829 123.500472 L 488.000187 139.499495 L 497.999577 155.99978 L 493.999821 171.999837 L 490.000065 188.500122 L 486.000309 204.500179 L 481.99952 220.000008 L 481.99952 236.000065 L 491.999943 251.499894 L 498.499805 264.999845 L 488.500415 281.50013 L 480.49987 298.000415 L 472.500358 314.499666 L 465.000041 330.499723 L 454.999618 347.000008 L 447.000106 363.000065 L 438.999561 379.000122 L 432.499699 394.499951 L 429.999593 409.99978 L 425.999837 425.999837 L 422.000081 441.499666 L 420.000203 457.999951 L 420.000203 474.000008 L 422.000081 490.000065 L 454.000195 506.50035 " transform="matrix(3.779528,0,0,3.779528,0,0)"/>
<path style="fill:none;stroke-width:2;stroke-linecap:butt;stroke-linejoin:miter;stroke:rgb(0%,0%,0%);stroke-opacity:1;stroke-miterlimit:4;" d="M 467.500146 488.999609 L 469.500024 472.999552 " transform="matrix(3.779528,0,0,3.779528,0,0)"/>
<path style="fill:none;stroke-width:2;stroke-linecap:butt;stroke-linejoin:miter;stroke:rgb(0%,0%,0%);stroke-opacity:1;stroke-miterlimit:4;" d="M 191.500456 254.500228 L 175.500399 254.500228 L 159.500342 255.000456 L 127 255.000456 L 110.999943 252.999544 L 94.999886 255.000456 L 62.999772 255.000456 L 46.499487 255.49965 L 30.500464 245.000033 L 26.499674 228.999976 L 26.499674 216.999674 " transform="matrix(3.779528,0,0,3.779528,0,0)"/>
<path style="fill:none;stroke-width:2;stroke-linecap:butt;stroke-linejoin:miter;stroke:rgb(0%,0%,0%);stroke-opacity:1;stroke-miterlimit:4;" d="M 68.500212 218.500358 L 89.000252 234.500415 " transform="matrix(3.779528,0,0,3.779528,0,0)"/>
<path style="fill:none;stroke-width:2;stroke-linecap:butt;stroke-linejoin:miter;stroke:rgb(0%,0%,0%);stroke-opacity:1;stroke-miterlimit:4;" d="M 1.999878 268.999601 L 17.999935 268.999601 L 33.999992 267.499951 L 49.499821 267.499951 L 69.499634 268.000179 L 100.99952 268.000179 L 117.499805 268.500407 L 149.499919 268.500407 L 165.499976 268.999601 L 181.500033 268.500407 L 197.50009 268.999601 L 246.000488 268.999601 L 261.999512 268.500407 L 278.499797 271.999935 " transform="matrix(3.779528,0,0,3.779528,0,0)"/>
<path style="fill:none;stroke-width:2;stroke-linecap:butt;stroke-linejoin:miter;stroke:rgb(0%,0%,0%);stroke-opacity:1;stroke-miterlimit:4;" d="M 244.499805 280.499674 L 228.499748 280.00048 L 212.499691 280.499674 L 196.499634 280.00048 L 148.000269 280.00048 L 132.500439 279.500252 L 116.500382 280.00048 L 100.500326 280.00048 L 84.000041 280.499674 L 51.999927 280.499674 L 35.99987 286.000114 L 23.999569 286.000114 L 17.499707 282.000358 L 1.49965 284.000236 " transform="matrix(3.779528,0,0,3.779528,0,0)"/>
<path style="fill:none;stroke-width:2;stroke-linecap:butt;stroke-linejoin:miter;stroke:rgb(0%,0%,0%);stroke-opacity:1;stroke-miterlimit:4;" d="M 2.500106 284.500464 L 5.000212 300.499487 L 3.000334 316.499544 L 3.000334 332.499601 L 3.499528 348.000464 L 3.499528 379.000122 L 5.500439 395.000179 L 5.500439 426.500065 L 5.999634 442.500122 L 3.999756 458.500179 L 6.499862 474.500236 L 10.499618 481.000098 L 58.499788 481.000098 L 74.499845 481.500326 L 90.499902 481.500326 L 106.499959 483.500203 L 122.500016 483.500203 L 138.500073 484.000431 L 264.999845 484.000431 L 280.999902 481.99952 " transform="matrix(3.779528,0,0,3.779528,0,0)"/>
<path style="fill:none;stroke-width:2;stroke-linecap:butt;stroke-linejoin:miter;stroke:rgb(0%,0%,0%);stroke-opacity:1;stroke-miterlimit:4;" d="M 146.999813 241.500505 L 137.000423 225.500448 L 130.499528 209.500391 L 128.49965 189.999772 L 130.499528 173.999715 L 137.000423 158.499886 L 148.999691 142.499829 L 165.499976 126.499772 L 197.50009 110.499715 " transform="matrix(3.779528,0,0,3.779528,0,0)"/>
<path style="fill:none;stroke-width:2;stroke-linecap:butt;stroke-linejoin:miter;stroke:rgb(0%,0%,0%);stroke-opacity:1;stroke-miterlimit:4;" d="M 198.99974 104.500081 L 162.99987 120.500138 L 144.999935 135.999967 L 134.999512 151.499797 L 127 167.499854 L 125.000122 182.999683 L 123.500472 198.99974 L 128.000456 215.500024 L 134.00009 231.500081 " transform="matrix(3.779528,0,0,3.779528,0,0)"/>
<path style="fill:none;stroke-width:2;stroke-linecap:butt;stroke-linejoin:miter;stroke:rgb(0%,0%,0%);stroke-opacity:1;stroke-miterlimit:4;" d="M 32.999536 119.499683 L 17.499707 103.999854 L 1.999878 96.000342 " transform="matrix(3.779528,0,0,3.779528,0,0)"/>
<path style="fill:none;stroke-width:2;stroke-linecap:butt;stroke-linejoin:miter;stroke:rgb(0%,0%,0%);stroke-opacity:1;stroke-miterlimit:4;" d="M 11.500073 96.499536 L 33.499764 112.499593 L 45.500065 128.49965 L 51.499699 144.499707 L 53.499577 160.499764 L 47.499943 175.999593 L 39.999626 191.99965 L 14.000179 205.999829 L 10.499618 221.999886 L 8.49974 223.999764 L 23.000146 219.49978 " transform="matrix(3.779528,0,0,3.779528,0,0)"/>
<path style="fill:none;stroke-width:2;stroke-linecap:butt;stroke-linejoin:miter;stroke:rgb(0%,0%,0%);stroke-opacity:1;stroke-miterlimit:4;" d="M 42.499731 157.999658 L 32.999536 158.499886 L 32.500342 162.499642 L 20.500041 166.500431 L 4.499984 164.49952 L 16.500285 146.499585 L 14.500407 154.50013 L 14.500407 138.500073 " transform="matrix(3.779528,0,0,3.779528,0,0)"/>
<path style="fill:none;stroke-width:2;stroke-linecap:butt;stroke-linejoin:miter;stroke:rgb(0%,0%,0%);stroke-opacity:1;stroke-miterlimit:4;" d="M 389.999967 73.999618 L 373.99991 87.499569 L 357.999854 103.499626 L 384.000334 89.000252 L 397.500285 73.500423 L 403.499919 57.500366 L 404.999569 41.500309 L 431.000049 21.500496 " transform="matrix(3.779528,0,0,3.779528,0,0)"/>
<path style="fill:none;stroke-width:2;stroke-linecap:butt;stroke-linejoin:miter;stroke:rgb(0%,0%,0%);stroke-opacity:1;stroke-miterlimit:4;" d="M 456.000073 28.99978 L 484.000431 45.500065 L 500.000488 61.500122 " transform="matrix(3.779528,0,0,3.779528,0,0)"/>
<path style="fill:none;stroke-width:2;stroke-linecap:butt;stroke-linejoin:miter;stroke:rgb(0%,0%,0%);stroke-opacity:1;stroke-miterlimit:4;" d="M 503.500016 57.000138 L 487.499959 41.000081 L 459.499601 25.000024 " transform="matrix(3.779528,0,0,3.779528,0,0)"/>
</g>
</svg>
