<svg xmlns="http://www.w3.org/2000/svg" width="512mm" height="512mm" viewBox="0 0 512 512" version="1.1"><polyline points="235.5,26.5,227.5,42.5,231.5,58.5,235.5,74.5,217.5,91.0,217.5,111.0,219.5,127.0,227.5,151.0,223.0,167.0,221.0,182.5,218.5,198.5,217.0,214.5,213.0,230.5,221.0,250.5,227.5,266.0,211.5,271.5,217.5,273.0,217.5,279.0,219.5,265.0,235.5,256.5" stroke="black" stroke-width="2" fill="none" />
<polyline points="236.5,255.5,244.5,241.0,229.0,239.0,213.5,229.0,210.0,237.0,212.0,221.0,214.0,204.5,216.5,189.0,218.5,173.5,220.5,157.0,224.5,141.0,239.0,125.5,239.0,109.5,238.5,93.0,230.5,79.0,214.5,93.0,198.0,101.0,182.0,93.5,165.5,104.0,149.0,115.5" stroke="black" stroke-width="2" fill="none" />
<polyline points="152.0,120.5,168.0,118.5,184.0,110.5,198.0,124.0" stroke="black" stroke-width="2" fill="none" />
<polyline points="196.0,128.0,212.0,138.0" stroke="black" stroke-width="2" fill="none" />
<polyline points="221.0,133.5,205.0,127.0,191.0,119.5,176.5,117.5,162.5,129.5,146.5,135.5,130.5,119.5,115.0,101.5,115.0,87.5,101.0,83.5,85.0,84.0,69.5,100.0" stroke="black" stroke-width="2" fill="none" />
<polyline points="76.0,99.5,92.0,87.5,106.0,95.5,122.0,99.5" stroke="black" stroke-width="2" fill="none" />
<polyline points="127.0,116.5,131.0,132.5" stroke="black" stroke-width="2" fill="none" />
<polyline points="121.0,137.0,105.0,121.0" stroke="black" stroke-width="2" fill="none" />
<polyline points="103.5,110.5,103.0,102.5,119.0,106.5,112.5,122.0,130.0,126.0,146.0,139.5,161.5,135.5" stroke="black" stroke-width="2" fill="none" />
<polyline points="167.0,107.0,183.0,99.5,199.0,107.5,215.5,99.5,232.0,84.0,248.5,84.0,252.5,63.5" stroke="black" stroke-width="2" fill="none" />
<polyline points="249.5,69.5,233.5,63.5" stroke="black" stroke-width="2" fill="none" />
<polyline points="232.0,54.0,238.0,48.0,254.5,53.5" stroke="black" stroke-width="2" fill="none" />
<polyline points="249.0,33.5,261.0,49.5,253.5,57.5,247.5,71.5,266.0,93.0,276.0,109.5,278.0,125.5,274.0,130.0,268.0,146.0,274.0,146.5,278.0,160.5,272.0,177.0,273.5,193.0,273.5,208.5,273.5,224.5,275.5,240.0,270.0,254.0,269.5,270.0" stroke="black" stroke-width="2" fill="none" />
<polyline points="261.5,283.5,246.0,283.5" stroke="black" stroke-width="2" fill="none" />
<polyline points="264.5,289.0,265.0,274.5,265.0,258.5,264.5,242.0,268.5,225.5,269.0,209.5,269.5,193.0,267.5,176.5,268.0,161.0,262.0,145.0,262.0,129.0,251.5,125.0,252.0,109.5,252.0,94.0,257.5,78.0,257.5,68.0,268.0,46.5,254.0,30.5,250.0,34.0,234.0,35.5" stroke="black" stroke-width="2" fill="none" />
<polyline points="231.5,32.5,247.5,28.5,263.5,33.0" stroke="black" stroke-width="2" fill="none" />
<polyline points="263.5,89.0,261.5,105.0,258.0,121.0,274.0,125.5,290.5,132.0,307.0,116.0,323.0,98.0,339.0,88.0,351.5,86.0,367.5,86.0,377.5,92.5,393.0,102.5" stroke="black" stroke-width="2" fill="none" />
<polyline points="402.5,103.5,386.5,91.5,370.5,95.0,354.0,93.5,338.0,94.0,322.0,106.0,306.0,124.5,290.0,140.5" stroke="black" stroke-width="2" fill="none" />
<polyline points="292.5,143.5,308.5,163.5,324.5,173.5,340.5,172.0" stroke="black" stroke-width="2" fill="none" />
<polyline points="369.0,170.0,369.0,154.0,373.0,138.0,375.0,122.0,353.0,106.0" stroke="black" stroke-width="2" fill="none" />
<polyline points="347.5,106.5,343.5,122.5,347.5,138.5,345.5,154.5,345.5,170.5,345.5,186.0,362.0,190.0" stroke="black" stroke-width="2" fill="none" />
<polyline points="372.0,188.5,372.0,172.5,372.0,156.0,362.0,150.0,352.0,157.5,366.0,135.5,368.0,119.5,376.0,103.5,375.5,91.5,366.0,85.0,362.0,75.0,378.0,59.0,375.5,42.5,371.5,38.5,364.0,39.0,348.0,43.0" stroke="black" stroke-width="2" fill="none" />
<polyline points="342.0,49.5,346.0,65.5,365.5,59.5,365.5,69.5,361.5,65.5,370.0,62.0" stroke="black" stroke-width="2" fill="none" />
<polyline points="360.5,57.5,344.5,57.0" stroke="black" stroke-width="2" fill="none" />
<polyline points="341.0,50.5,356.5,52.5" stroke="black" stroke-width="2" fill="none" />
<polyline points="336.5,51.5,352.5,33.5,368.5,35.5" stroke="black" stroke-width="2" fill="none" />
<polyline points="351.5,33.0,337.5,49.0,339.5,65.0,345.5,81.5,322.0,98.0,308.0,114.5,292.0,130.5,286.0,146.5,298.0,162.5,314.5,178.5,323.0,194.5,321.0,210.5,324.5,226.5,322.5,242.5,322.5,258.5,322.5,274.5,322.5,290.0,322.0,306.0,328.0,322.0,332.0,332.0,332.5,322.0" stroke="black" stroke-width="2" fill="none" />
<polyline points="365.0,317.5,363.0,301.5,361.5,285.5,355.0,283.5" stroke="black" stroke-width="2" fill="none" />
<polyline points="355.0,284.5,355.0,300.5,352.5,316.5" stroke="black" stroke-width="2" fill="none" />
<polyline points="380.0,335.0,388.5,331.0,386.5,313.0,386.5,296.5,386.5,280.5,386.5,265.0,386.5,249.0,392.0,233.0,390.0,217.0,391.5,200.5,393.5,184.5,389.0,168.0,387.0,160.0" stroke="black" stroke-width="2" fill="none" />
<polyline points="391.5,162.5,397.5,178.5,403.0,194.5,399.0,198.5,402.5,218.0,410.5,234.0,430.5,249.5,421.0,267.5,431.0,283.5,441.5,299.0,445.5,317.0,461.5,329.0,477.5,309.0,493.5,291.5" stroke="black" stroke-width="2" fill="none" />
<polyline points="493.0,292.5,481.0,308.5,467.0,324.5,463.0,340.0,459.0,354.0,465.0,359.5" stroke="black" stroke-width="2" fill="none" />
<polyline points="466.0,329.5,482.5,309.5" stroke="black" stroke-width="2" fill="none" />
<polyline points="484.5,293.5,460.5,315.5,445.0,291.5,429.0,267.5" stroke="black" stroke-width="2" fill="none" />
<polyline points="428.0,264.0,443.5,271.5" stroke="black" stroke-width="2" fill="none" />
<polyline points="435.5,261.5,419.0,261.5" stroke="black" stroke-width="2" fill="none" />
<polyline points="426.0,264.5,434.0,281.0,445.5,297.0,455.5,312.5" stroke="black" stroke-width="2" fill="none" />
<polyline points="440.0,295.0,424.0,271.5" stroke="black" stroke-width="2" fill="none" />
<polyline points="454.5,249.5,438.5,229.5" stroke="black" stroke-width="2" fill="none" />
<polyline points="411.5,227.0,428.0,241.0,442.0,238.5,458.0,270.0,474.5,248.0" stroke="black" stroke-width="2" fill="none" />
<polyline points="470.5,262.0,484.0,246.0,498.0,230.0,504.0,226.0,488.0,242.0,472.0,259.5,456.0,258.0,452.0,247.5,442.0,231.5,454.0,211.5,458.0,195.5,458.0,191.5" stroke="black" stroke-width="2" fill="none" />
<polyline points="464.5,189.5,460.0,205.5,458.0,221.5,458.0,237.0" stroke="black" stroke-width="2" fill="none" />
<polyline points="437.5,255.0,421.5,243.5,405.5,225.5" stroke="black" stroke-width="2" fill="none" />
<polyline points="407.5,219.5,421.5,235.5,430.0,259.5,456.0,276.0" stroke="black" stroke-width="2" fill="none" />
<polyline points="456.0,232.0,440.0,224.0,420.0,222.0,404.5,218.5" stroke="black" stroke-width="2" fill="none" />
<polyline points="411.5,218.5,425.5,234.5,433.5,228.5,441.5,240.5,449.5,256.0,458.0,272.0,451.5,292.0,455.5,292.0,455.5,302.0,471.5,286.0,487.5,260.0" stroke="black" stroke-width="2" fill="none" />
<polyline points="498.5,254.0,482.5,280.0,466.5,316.0,472.5,300.0,480.5,284.0,490.5,267.5,500.5,251.5,512.0,235.5" stroke="black" stroke-width="2" fill="none" />
<polyline points="510.5,229.0,498.5,245.5,486.0,261.5,476.0,277.5,470.0,294.0,464.0,310.0,457.5,322.0,453.5,327.5,455.5,343.5,465.0,353.5,471.0,373.5,471.0,389.5,471.0,406.0,471.5,422.5,472.0,438.5,458.5,455.0,460.5,466.5" stroke="black" stroke-width="2" fill="none" />
<polyline points="406.5,464.5,390.5,465.0" stroke="black" stroke-width="2" fill="none" />
<polyline points="381.5,425.5,366.0,427.0" stroke="black" stroke-width="2" fill="none" />
<polyline points="364.5,423.5,381.0,421.5" stroke="black" stroke-width="2" fill="none" />
<polyline points="366.0,417.0,382.0,417.0,397.5,416.5" stroke="black" stroke-width="2" fill="none" />
<polyline points="366.5,410.0,364.5,408.0,358.5,410.0,358.0,426.0,356.0,446.5,372.0,446.5,388.0,446.5,404.0,448.5,420.0,446.5,436.0,446.5,451.5,446.5,468.0,446.5" stroke="black" stroke-width="2" fill="none" />
<polyline points="463.5,374.5,447.5,372.5,431.5,372.0,413.5,372.0,397.5,372.5" stroke="black" stroke-width="2" fill="none" />
<polyline points="398.5,402.5,382.5,402.5,366.5,402.5" stroke="black" stroke-width="2" fill="none" />
<polyline points="364.5,401.0,380.0,397.0,380.0,393.5" stroke="black" stroke-width="2" fill="none" />
<polyline points="364.0,388.5,380.5,389.0,396.5,389.5,412.5,390.0" stroke="black" stroke-width="2" fill="none" />
<polyline points="414.0,409.0,398.0,407.5,382.5,407.0,366.5,407.0" stroke="black" stroke-width="2" fill="none" />
<polyline points="364.5,418.0,380.5,414.0,396.0,414.0,410.0,401.5" stroke="black" stroke-width="2" fill="none" />
<polyline points="400.5,422.0,391.0,432.0,375.0,431.5,359.5,433.0" stroke="black" stroke-width="2" fill="none" />
<polyline points="347.5,452.0,363.5,452.0,379.5,452.5,396.0,452.5,412.0,452.5,432.5,456.5,448.5,456.5" stroke="black" stroke-width="2" fill="none" />
<polyline points="423.0,385.5,406.5,386.0,390.5,386.0,374.0,386.0,358.0,388.0" stroke="black" stroke-width="2" fill="none" />
<polyline points="342.5,373.5,358.5,372.0,374.0,372.0" stroke="black" stroke-width="2" fill="none" />
<polyline points="339.5,377.0,341.5,393.0,341.5,409.0,341.5,425.5,337.5,441.5,337.5,457.5,350.0,474.0,354.0,468.5,370.0,469.0,386.0,469.0,402.0,469.0,418.0,469.0,434.5,469.0,450.0,469.0,466.0,463.0" stroke="black" stroke-width="2" fill="none" />
<polyline points="444.5,452.0,428.5,452.0,412.5,458.0,396.5,458.0,382.0,456.0,366.0,455.5,350.0,453.5" stroke="black" stroke-width="2" fill="none" />
<polyline points="340.0,446.0,356.0,442.5,372.0,442.5,388.0,442.5,404.0,442.5,420.0,442.0,436.5,441.5,452.5,441.5" stroke="black" stroke-width="2" fill="none" />
<polyline points="468.0,470.0,451.5,473.5,435.5,473.5,419.5,473.5,403.5,473.5,387.0,473.5,371.0,473.5,354.5,474.0,344.5,464.0,342.0,448.5,338.0,443.0" stroke="black" stroke-width="2" fill="none" />
<polyline points="338.0,370.0,354.0,368.0,370.5,368.0,386.5,368.0,402.5,368.0,418.5,368.5,434.5,368.0,450.5,368.0,466.0,367.5,466.0,381.5,468.0,397.5,466.0,413.0,466.0,429.5,474.0,449.5,470.5,466.0" stroke="black" stroke-width="2" fill="none" />
<polyline points="468.0,342.0,470.0,326.0,484.0,310.5,496.0,294.5" stroke="black" stroke-width="2" fill="none" />
<polyline points="463.5,275.5,479.5,259.5,491.5,243.0,505.5,227.0" stroke="black" stroke-width="2" fill="none" />
<polyline points="484.5,219.5,476.5,235.5,471.5,251.5,462.0,267.5" stroke="black" stroke-width="2" fill="none" />
<polyline points="461.5,226.5,463.5,210.5,438.0,214.0,426.5,232.0,421.0,210.0,413.0,210.0,417.0,182.0,413.0,166.5,411.0,150.5,407.0,134.5,402.5,118.0,390.5,102.0,376.0,102.0,362.0,99.5,339.5,109.5,333.5,105.5,343.0,97.5,352.5,69.5,346.5,73.5" stroke="black" stroke-width="2" fill="none" />
<polyline points="344.0,90.5,321.5,106.0,307.5,121.5,291.5,137.5,298.0,154.0,312.0,170.0,326.0,192.0,324.0,208.0,326.5,230.0,326.5,245.5,327.0,261.5,327.0,277.5,326.5,294.0,328.5,310.0" stroke="black" stroke-width="2" fill="none" />
<polyline points="339.0,231.5,338.5,225.5,322.5,227.5" stroke="black" stroke-width="2" fill="none" />
<polyline points="355.0,208.5,354.5,224.5,354.5,240.0,354.5,256.0,350.0,272.5,350.0,288.5,348.0,304.0,344.0,319.5" stroke="black" stroke-width="2" fill="none" />
<polyline points="245.0,351.0,229.5,361.0,213.5,361.0,197.5,361.5,182.0,361.5" stroke="black" stroke-width="2" fill="none" />
<polyline points="185.0,356.0,201.0,356.0,217.5,355.5,233.5,356.0" stroke="black" stroke-width="2" fill="none" />
<polyline points="238.5,395.5,240.5,414.0,236.0,424.0" stroke="black" stroke-width="2" fill="none" />
<polyline points="256.0,419.0,248.0,413.0,235.5,397.0,223.5,379.0,207.5,378.5,191.5,379.0" stroke="black" stroke-width="2" fill="none" />
<polyline points="182.0,378.0,192.0,388.0,182.0,390.0,180.0,406.0,208.0,406.0,221.5,436.0" stroke="black" stroke-width="2" fill="none" />
<polyline points="241.0,372.5,230.5,395.0,214.5,405.0,198.0,401.5,173.5,409.0,165.0,417.0,175.0,393.0,174.5,382.5,158.0,383.0" stroke="black" stroke-width="2" fill="none" />
<polyline points="159.5,382.0,159.5,398.0,161.5,412.5" stroke="black" stroke-width="2" fill="none" />
<polyline points="156.5,419.5,162.5,403.5" stroke="black" stroke-width="2" fill="none" />
<polyline points="154.0,380.5,170.0,377.0,185.5,373.0,201.5,373.0,218.0,372.5,234.0,372.0" stroke="black" stroke-width="2" fill="none" />
<polyline points="242.0,343.0,225.5,341.5,209.5,342.0,193.5,336.0,177.5,340.0,161.5,340.0" stroke="black" stroke-width="2" fill="none" />
<polyline points="159.5,336.5,175.5,336.5" stroke="black" stroke-width="2" fill="none" />
<polyline points="157.0,331.5,157.0,347.5,161.0,363.5,168.5,353.5,174.0,361.0,186.0,349.0,202.0,349.0" stroke="black" stroke-width="2" fill="none" />
<polyline points="219.0,312.0,245.0,328.0,259.0,343.5,264.5,359.5" stroke="black" stroke-width="2" fill="none" />
<polyline points="266.5,421.5,250.0,443.0,233.5,455.0,217.5,461.5,201.5,465.5,186.0,463.5,170.0,459.5,154.0,452.0,138.0,440.5" stroke="black" stroke-width="2" fill="none" />
<polyline points="132.5,440.5,148.5,456.0,164.5,463.5,180.5,467.5,196.0,469.0,212.0,469.5,227.5,463.5,243.5,455.5,259.5,442.0,270.0,410.0,264.0,426.0,252.0,442.5,228.0,458.5" stroke="black" stroke-width="2" fill="none" />
<polyline points="214.5,431.5,208.5,415.5,214.5,399.5,231.0,382.0,241.0,360.5,247.5,344.5,233.5,338.5,218.0,339.0,202.0,339.0,186.5,331.0,170.0,331.0,154.0,335.0" stroke="black" stroke-width="2" fill="none" />
<polyline points="183.5,310.0,153.5,326.0,137.5,342.0,127.0,356.0,142.5,333.5,158.0,322.0,175.5,312.0,191.5,308.5,207.0,309.0,222.5,315.0,238.5,325.0,254.5,340.5" stroke="black" stroke-width="2" fill="none" />
<polyline points="261.0,321.5,245.0,307.5,229.0,297.5,213.5,293.5,198.0,293.5,182.0,295.5,166.0,299.5,150.5,305.5,135.0,318.0,117.5,306.0,115.5,286.0,116.0,270.0,117.5,254.0,117.5,238.0,119.0,222.0,118.5,205.5,118.0,189.5,122.0,173.5,117.5,167.5,135.5,151.5,127.5,137.5,127.5,129.5,115.5,119.0,119.0,117.0,127.0,99.0,119.5,98.5,105.5,87.0,114.0,71.0,94.0,67.0,88.5,65.5,92.5,50.0,94.5,54.0" stroke="black" stroke-width="2" fill="none" />
<polyline points="92.0,56.5,108.0,56.5" stroke="black" stroke-width="2" fill="none" />
<polyline points="101.5,47.0,85.5,55.0" stroke="black" stroke-width="2" fill="none" />
<polyline points="77.5,50.0,93.5,40.0,110.0,42.0,110.0,70.0,98.0,86.5,94.0,94.5,102.0,110.5,108.5,126.0,116.5,142.0,128.5,145.5,142.0,146.0,158.0,148.0" stroke="black" stroke-width="2" fill="none" />
<polyline points="162.5,152.5,146.5,162.5,130.5,165.0,126.0,160.5,111.5,180.5,109.0,174.0,93.0,161.5,77.0,151.5" stroke="black" stroke-width="2" fill="none" />
<polyline points="78.5,148.5,83.0,152.5" stroke="black" stroke-width="2" fill="none" />
<polyline points="92.0,155.0,76.0,145.0" stroke="black" stroke-width="2" fill="none" />
<polyline points="81.0,96.5,75.0,112.5,75.0,128.0,75.0,144.0,72.5,160.0,68.5,175.5,68.5,197.5,66.5,214.0,64.5,230.0,65.0,246.0,63.0,262.0,59.0,278.0,55.0,293.5,60.5,305.5,60.5,314.0,76.0,302.0,92.5,290.0,110.5,300.0" stroke="black" stroke-width="2" fill="none" />
<polyline points="93.0,320.0,91.0,335.5,89.0,355.0,77.0,373.0,71.0,389.0,68.5,405.0,61.0,425.0,57.0,441.0,53.0,457.5,61.0,459.5,79.0,464.0" stroke="black" stroke-width="2" fill="none" />
<polyline points="105.0,464.5,121.0,464.5" stroke="black" stroke-width="2" fill="none" />
<polyline points="125.5,442.0,149.5,443.5" stroke="black" stroke-width="2" fill="none" />
<polyline points="137.0,434.0,153.0,443.5,169.0,451.5,185.0,455.5,201.0,457.5,216.5,456.0,232.5,448.5,248.0,436.5,263.5,414.5" stroke="black" stroke-width="2" fill="none" />
<polyline points="226.0,446.5,209.5,452.5,193.5,454.5,177.5,450.5,161.0,444.5,144.5,430.5,128.5,407.0" stroke="black" stroke-width="2" fill="none" />
<polyline points="126.0,419.5,134.0,425.5,138.0,441.0,162.0,457.0" stroke="black" stroke-width="2" fill="none" />
<polyline points="153.0,438.5,138.5,422.5,130.5,407.0,122.0,389.0,122.0,393.0" stroke="black" stroke-width="2" fill="none" />
<polyline points="112.5,389.0,124.5,399.0,126.5,415.0,126.5,431.5,127.0,447.0,139.0,449.0,165.0,465.0" stroke="black" stroke-width="2" fill="none" />
<polyline points="85.5,449.5,85.5,433.5,96.0,417.5,96.5,401.5,96.5,385.5,100.5,369.5,100.5,357.5,110.0,333.5,113.5,318.0,105.5,322.0,89.5,324.0" stroke="black" stroke-width="2" fill="none" />
<polyline points="92.0,346.0,108.0,342.5" stroke="black" stroke-width="2" fill="none" />
<polyline points="89.0,354.5,105.0,358.5,120.5,367.0" stroke="black" stroke-width="2" fill="none" />
<polyline points="159.5,375.5,153.5,391.5,155.5,407.5,149.5,424.0,157.0,428.5,167.0,436.5,153.0,431.0,169.5,437.0" stroke="black" stroke-width="2" fill="none" />
<polyline points="66.0,450.0,64.0,434.5" stroke="black" stroke-width="2" fill="none" />
<polyline points="63.0,420.0,75.0,408.0,77.0,391.5,79.0,375.5,91.0,359.5,75.5,360.0,60.0,380.0" stroke="black" stroke-width="2" fill="none" />
<polyline points="45.5,362.0,61.5,338.5,61.5,339.0,49.5,355.5,43.0,372.0,43.0,388.5,45.0,405.0,43.0,421.0,40.5,437.0" stroke="black" stroke-width="2" fill="none" />
<polyline points="39.5,462.5,49.5,446.5,53.5,431.0,58.0,415.0,58.5,399.0,60.5,382.5,66.5,366.0,68.0,350.0,72.0,333.5,56.0,339.5,40.5,365.0" stroke="black" stroke-width="2" fill="none" />
<polyline points="76.0,359.5,68.0,375.5,64.0,391.0,66.0,409.0" stroke="black" stroke-width="2" fill="none" />
<polyline points="74.0,301.5,78.0,288.0,82.5,272.0,88.5,256.0,92.5,240.0,94.5,224.0,94.5,208.5,72.5,202.5" stroke="black" stroke-width="2" fill="none" />
<polyline points="71.5,198.0,87.5,200.0,89.0,210.5,87.0,226.5,85.5,242.5,81.5,258.5,77.5,274.5,73.5,290.0" stroke="black" stroke-width="2" fill="none" />
<polyline points="91.0,274.5,90.5,258.5" stroke="black" stroke-width="2" fill="none" />
<polyline points="94.5,248.5,99.0,264.5,99.0,281.0,111.0,301.5,123.0,317.5,119.0,333.5,117.0,349.5,123.0,365.5,110.5,377.0,104.5,377.0,103.0,392.5,103.0,408.5,102.5,425.0,98.5,441.0,92.0,447.5,103.5,451.5,105.5,459.5,122.0,459.5" stroke="black" stroke-width="2" fill="none" />
<polyline points="211.5,456.0,243.5,439.5,257.5,423.5,266.0,407.5,272.0,395.5,270.5,369.5,267.0,353.5,261.0,338.0,245.0,322.0,217.0,306.5" stroke="black" stroke-width="2" fill="none" />
<polyline points="223.0,301.5,249.0,317.5,264.5,334.0,270.5,350.0,274.5,366.0,274.5,382.0,266.0,398.0,258.0,414.5,244.0,422.5" stroke="black" stroke-width="2" fill="none" />
<polyline points="260.0,335.0,244.0,319.5,228.0,309.5,212.0,303.5,196.0,303.0,180.0,305.5,164.0,311.5,148.5,322.0,132.5,337.5,117.0,345.5,133.5,338.0,150.0,322.0,180.0,306.0" stroke="black" stroke-width="2" fill="none" />
<polyline points="175.0,296.0,143.0,311.5,143.0,317.5,141.0,320.0,157.0,308.5,173.0,302.5,189.0,300.5,204.5,298.5,220.5,300.5,236.5,308.5,253.0,320.5,269.0,340.5" stroke="black" stroke-width="2" fill="none" />
<polyline points="227.0,297.5,252.5,314.0,269.0,330.0,275.0,346.0,279.0,362.0,279.0,378.0,277.0,394.5,274.5,410.5,270.5,426.5,260.5,443.0,242.5,459.0" stroke="black" stroke-width="2" fill="none" />
<polyline points="268.0,293.5,252.0,289.5,246.0,283.5,245.5,267.5,245.5,251.5" stroke="black" stroke-width="2" fill="none" />
<polyline points="358.0,211.0,358.0,227.0,357.5,243.0,359.5,259.0,361.5,275.0,365.5,291.0,367.0,306.5,377.0,322.5,379.5,322.0" stroke="black" stroke-width="2" fill="none" />
<polyline points="393.0,312.5,390.5,294.5,390.5,278.5,390.5,262.5,396.5,236.5,396.5,220.5,396.5,204.5" stroke="black" stroke-width="2" fill="none" />
<polyline points="413.0,194.5,397.5,172.5" stroke="black" stroke-width="2" fill="none" />
<polyline points="394.0,176.0,409.5,206.0,419.5,194.0" stroke="black" stroke-width="2" fill="none" />
<polyline points="468.5,208.5,468.5,224.5,466.5,240.5,490.5,230.5,510.5,238.5" stroke="black" stroke-width="2" fill="none" />
<polyline points="486.5,251.5,470.0,269.5,467.5,249.5,471.0,233.5,481.0,218.0" stroke="black" stroke-width="2" fill="none" />
<polyline points="367.5,186.0,352.0,190.0,327.5,184.0,311.5,174.0,295.0,156.0,272.5,163.5,270.0,153.5,276.0,137.5,281.5,127.5,279.5,111.5,275.5,95.5,249.5,97.5" stroke="black" stroke-width="2" fill="none" />
<polyline points="232.0,87.5,232.0,103.5,234.0,120.0" stroke="black" stroke-width="2" fill="none" />
<polyline points="228.0,85.0,214.0,101.5,224.0,117.5,228.0,129.5,238.0,121.5,258.0,93.5,268.0,85.5" stroke="black" stroke-width="2" fill="none" />
<polyline points="319.5,142.5,319.5,136.5,319.5,143.0" stroke="black" stroke-width="2" fill="none" />
<polyline points="358.5,144.5,352.5,135.0,349.0,117.0,364.5,111.0,351.0,95.0" stroke="black" stroke-width="2" fill="none" />
<polyline points="383.5,93.5,403.5,109.5,409.5,125.5,411.5,141.0,415.5,157.0,417.5,172.5,422.0,188.5,412.5,200.0,433.0,218.0,445.5,222.0,448.0,230.0,454.0,236.0,473.5,234.0,489.0,221.5" stroke="black" stroke-width="2" fill="none" />
<polyline points="200.0,132.5,189.5,116.0,186.0,96.0" stroke="black" stroke-width="2" fill="none" />
<polyline points="182.5,95.0,158.5,110.5,160.5,116.5,162.5,136.5,164.5,146.5,146.5,152.5" stroke="black" stroke-width="2" fill="none" />
<polyline points="122.0,182.0,122.0,198.0,122.0,214.0,122.0,230.5,122.0,246.5,120.0,262.5,119.5,278.5,117.0,294.5" stroke="black" stroke-width="2" fill="none" />
<polyline points="91.5,435.0,85.5,457.0,69.5,457.5,45.5,459.5,43.5,455.5,44.0,459.5,38.0,434.0,40.5,418.0,41.0,402.5,41.0,386.5,41.5,370.5,47.5,354.5,59.0,338.5,69.0,322.0,53.0,306.0,53.0,281.5,57.0,266.0,59.0,250.0,61.0,234.5,61.0,218.5,63.0,202.5,63.0,184.5,64.5,168.0,68.5,152.0,68.0,135.5,68.0,119.5,69.5,103.5,81.5,87.5,83.0,71.5,77.5,56.0,91.0,40.0" stroke="black" stroke-width="2" fill="none" />
</svg>