<svg xmlns="http://www.w3.org/2000/svg" width="512mm" height="512mm" viewBox="0 0 512 512" version="1.1"><polyline points="165.5,54.5,139.5,70.5,125.5,86.5,129.5,80.5,145.5,67.0,161.5,57.0,177.5,59.0" stroke="black" stroke-width="2" fill="none" />
<polyline points="174.0,61.5,158.0,63.0,141.5,75.5,125.5,91.5,141.0,75.5,165.0,59.5" stroke="black" stroke-width="2" fill="none" />
<polyline points="173.5,73.0,165.5,89.0,171.5,105.0,173.5,121.5,172.0,138.0,174.0,154.5,174.0,170.5,174.0,186.5,174.0,202.5,170.5,218.5,187.0,228.5,193.0,244.5,196.5,260.5,200.5,276.5,210.5,280.5,226.5,280.5,242.5,280.0,258.0,280.0,274.0,280.0,290.0,280.0,306.5,280.0,322.5,282.0,338.5,279.5,354.0,279.0,370.0,277.0,395.5,261.0" stroke="black" stroke-width="2" fill="none" />
<polyline points="395.5,246.0,411.5,236.0,427.5,230.0,439.5,240.0,429.5,255.5,420.0,271.0,412.0,287.5,418.5,285.5,434.5,257.5,450.5,234.0,460.0,226.0" stroke="black" stroke-width="2" fill="none" />
<polyline points="452.0,229.5,435.5,237.0,419.0,239.0,401.0,229.0,396.5,222.5,380.0,249.0" stroke="black" stroke-width="2" fill="none" />
<polyline points="372.5,270.5,376.5,254.5,382.5,238.0,394.0,227.5,408.0,211.5,446.0,201.5,442.0,187.5,452.0,171.5,462.0,155.0,464.5,139.0,456.5,123.0,432.0,107.5,424.0,91.5,422.0,78.0,405.5,76.0,390.0,76.0,374.0,76.0,358.0,76.0,342.0,76.0,326.0,76.0,310.0,76.0,294.0,75.5,278.0,75.5,262.0,76.0,246.5,76.0,230.5,76.0,214.5,76.0,198.5,76.0,182.5,76.5,166.5,80.5" stroke="black" stroke-width="2" fill="none" />
<polyline points="169.5,84.0,185.5,82.0,202.0,82.0,218.0,82.0,234.0,82.5,250.0,82.5,266.0,82.5,282.5,82.0,298.5,82.0,314.5,81.5,330.0,82.0,346.0,82.0,362.0,82.0,378.5,82.0,394.5,82.5,410.5,82.0" stroke="black" stroke-width="2" fill="none" />
<polyline points="404.0,113.5,382.0,129.5,369.5,157.5,381.5,161.5,419.5,177.5" stroke="black" stroke-width="2" fill="none" />
<polyline points="379.5,181.0,373.5,181.0,380.0,171.0,370.0,166.5" stroke="black" stroke-width="2" fill="none" />
<polyline points="364.0,154.5,380.0,160.5,396.0,166.5,412.0,174.0,427.5,187.5,443.5,181.5,459.5,159.0" stroke="black" stroke-width="2" fill="none" />
<polyline points="462.0,166.0,446.0,190.0,424.5,172.0,382.5,156.0,368.5,142.0,380.5,124.0,406.5,116.0,390.5,123.5,374.5,137.5" stroke="black" stroke-width="2" fill="none" />
<polyline points="375.5,142.5,391.5,130.5" stroke="black" stroke-width="2" fill="none" />
<polyline points="406.0,117.0,386.0,133.5,380.0,123.5,396.0,111.5,416.0,105.5,432.0,101.5,448.0,109.5,464.5,123.5" stroke="black" stroke-width="2" fill="none" />
<polyline points="434.0,187.0,418.0,171.0,402.5,165.0,386.0,157.0,370.0,151.0" stroke="black" stroke-width="2" fill="none" />
<polyline points="361.0,137.5,377.5,118.0,394.0,105.5,410.0,101.0,438.5,109.0,454.5,121.0" stroke="black" stroke-width="2" fill="none" />
<polyline points="446.5,211.0,426.5,220.5,444.5,212.5,460.5,220.5,476.5,236.5" stroke="black" stroke-width="2" fill="none" />
<polyline points="485.5,242.5,489.5,258.5,487.0,274.5,479.0,290.5,466.5,306.0,456.5,322.0" stroke="black" stroke-width="2" fill="none" />
<polyline points="419.5,311.0,427.5,316.5,445.5,323.0,449.5,339.0,440.0,355.0,440.0,363.0" stroke="black" stroke-width="2" fill="none" />
<polyline points="433.5,359.0,417.5,349.5,402.0,333.5" stroke="black" stroke-width="2" fill="none" />
<polyline points="399.0,329.0,415.0,335.5,431.0,345.5" stroke="black" stroke-width="2" fill="none" />
<polyline points="426.5,360.5,408.5,344.5" stroke="black" stroke-width="2" fill="none" />
<polyline points="407.0,330.5,428.5,346.5" stroke="black" stroke-width="2" fill="none" />
<polyline points="406.0,320.0,422.0,302.0,438.0,314.0,454.0,318.0,470.0,294.0,483.5,292.0,484.0,308.0,484.0,323.5,484.0,339.5,484.5,355.0,484.5,371.0,484.0,387.0,484.0,403.5,484.0,419.5,484.0,435.5,484.0,451.5,484.0,467.5,484.5,484.0,484.5,500.5" stroke="black" stroke-width="2" fill="none" />
<polyline points="359.0,506.5,359.0,490.5,361.5,474.5,362.0,458.5,364.5,442.5,364.5,426.0,367.0,409.5,367.0,407.5,351.0,407.5,335.0,409.5,319.0,408.0" stroke="black" stroke-width="2" fill="none" />
<polyline points="332.0,392.5,348.0,392.0,364.0,387.5" stroke="black" stroke-width="2" fill="none" />
<polyline points="355.5,401.0,339.0,403.0,323.0,403.0,307.5,402.5,291.5,403.0,276.0,401.0,260.0,401.0,244.5,397.5,228.5,394.0,212.5,372.0" stroke="black" stroke-width="2" fill="none" />
<polyline points="217.0,369.0,233.0,389.0,249.0,391.0,264.5,394.5,280.0,396.0" stroke="black" stroke-width="2" fill="none" />
<polyline points="287.5,391.5,271.5,382.0" stroke="black" stroke-width="2" fill="none" />
<polyline points="274.5,373.0,290.5,372.5" stroke="black" stroke-width="2" fill="none" />
<polyline points="286.0,367.5,270.0,369.5" stroke="black" stroke-width="2" fill="none" />
<polyline points="273.5,366.5,277.5,382.5,291.5,388.5" stroke="black" stroke-width="2" fill="none" />
<polyline points="294.0,381.5,278.0,382.0,262.5,370.0,247.0,368.5,231.0,366.5,215.5,366.5" stroke="black" stroke-width="2" fill="none" />
<polyline points="220.0,363.0,220.0,379.0" stroke="black" stroke-width="2" fill="none" />
<polyline points="231.5,414.0,215.5,417.5,200.0,413.5,184.0,405.0,168.0,395.0" stroke="black" stroke-width="2" fill="none" />
<polyline points="171.5,393.0,201.5,409.0" stroke="black" stroke-width="2" fill="none" />
<polyline points="166.0,391.5,182.0,399.5,198.0,407.5,214.0,413.5,230.0,410.0,246.0,404.0" stroke="black" stroke-width="2" fill="none" />
<polyline points="273.0,385.5,259.0,370.0" stroke="black" stroke-width="2" fill="none" />
<polyline points="316.5,302.5,332.5,298.0,348.5,297.5,364.5,297.5,384.0,293.0,400.0,277.5" stroke="black" stroke-width="2" fill="none" />
<polyline points="417.0,294.0,433.0,268.0" stroke="black" stroke-width="2" fill="none" />
<polyline points="401.0,234.5,395.0,250.5,395.0,266.0,395.0,281.5,379.0,297.5,371.0,313.0,369.5,329.0,370.0,345.5,370.0,355.5,386.0,345.5,400.0,343.5,416.0,357.5,434.0,367.0" stroke="black" stroke-width="2" fill="none" />
<polyline points="426.5,376.5,410.5,393.0,394.5,399.0,378.0,395.0,354.0,394.5,334.0,386.5,318.0,390.5,297.5,394.0,293.5,378.0,287.5,372.0,309.5,365.5,308.0,349.5,307.5,333.5,307.5,317.5,307.5,301.5,299.5,297.5,283.5,297.0,267.5,297.5,251.5,298.0,236.0,298.0,220.0,298.5,204.0,298.0" stroke="black" stroke-width="2" fill="none" />
<polyline points="204.0,298.0,206.0,314.0,210.0,330.0,214.0,346.5" stroke="black" stroke-width="2" fill="none" />
<polyline points="164.5,391.5,184.5,407.5" stroke="black" stroke-width="2" fill="none" />
<polyline points="132.5,401.0,136.5,417.5,138.0,433.5,142.0,449.5,144.0,466.0,144.0,482.0" stroke="black" stroke-width="2" fill="none" />
<polyline points="122.0,465.5,122.0,449.5,121.5,433.5,119.5,417.5,120.0,402.0,112.5,394.0,108.5,399.5,86.5,403.5,74.5,387.5,74.0,367.0,67.5,351.0,59.5,335.5,59.5,319.5,60.0,303.5,60.0,287.5,68.0,272.0,66.0,256.5,56.0,240.5,68.0,238.0,74.0,221.5,72.0,205.0,62.0,189.0,58.0,171.0,62.5,153.5,77.0,137.5,83.0,143.5,67.0,155.5" stroke="black" stroke-width="2" fill="none" />
<polyline points="63.5,152.0,79.5,136.0,95.5,130.0,73.0,134.0,58.5,149.5,52.0,166.0,53.5,182.0,59.5,198.5,73.0,215.0,50.5,231.0,36.5,247.0,34.5,262.5,33.0,278.5,33.5,294.5,33.5,310.5,35.5,326.5,38.0,342.5,46.0,358.5,36.0,372.5,34.0,389.0,32.0,405.0,30.0,420.5,48.5,436.0,46.5,452.0,45.0,467.5,47.0,483.5,61.5,477.5,63.5,483.5,77.5,477.5,93.5,477.5,110.0,478.0,133.5,483.5" stroke="black" stroke-width="2" fill="none" />
<polyline points="101.5,423.5,103.5,407.5,103.5,388.0,89.5,372.0,75.5,355.5,67.5,339.5,66.0,323.5,66.0,307.5,66.5,291.5,79.0,275.5,75.0,260.0,67.0,244.0,61.0,236.5" stroke="black" stroke-width="2" fill="none" />
<polyline points="59.0,231.5,81.0,241.5,96.5,258.0" stroke="black" stroke-width="2" fill="none" />
<polyline points="101.5,263.0,85.5,247.0" stroke="black" stroke-width="2" fill="none" />
<polyline points="103.5,230.0,119.5,240.0,133.5,234.5,149.5,232.5,166.0,229.0,182.0,233.0,198.0,227.5,214.0,227.5,230.0,227.0,246.0,227.0,262.0,226.5,278.0,227.0,293.5,227.0,309.5,227.0,326.0,226.5,342.0,226.0,357.5,226.0,373.0,226.0,381.0,212.0" stroke="black" stroke-width="2" fill="none" />
<polyline points="403.5,210.0,387.5,204.0,372.0,204.0,356.5,204.0,340.5,203.5,324.5,203.5,308.5,203.5,292.5,203.5,276.5,203.0,260.5,203.0,244.5,203.0,228.5,203.0,212.5,202.5,196.0,204.5,180.0,200.5" stroke="black" stroke-width="2" fill="none" />
<polyline points="177.0,226.5,187.0,242.5,191.0,258.0,195.0,274.0,196.5,290.0,198.5,305.5,202.5,321.5,208.5,338.0,204.5,348.0,211.0,362.0,215.0,378.0,229.0,394.0,231.0,409.5" stroke="black" stroke-width="2" fill="none" />
<polyline points="141.5,346.0,125.5,344.0" stroke="black" stroke-width="2" fill="none" />
<polyline points="135.0,340.0,119.5,334.0" stroke="black" stroke-width="2" fill="none" />
<polyline points="120.5,324.5,128.5,342.5,126.5,358.5,124.5,374.5,128.5,390.5,128.5,408.5,131.0,424.5,134.5,440.0,136.5,456.0,140.5,471.5" stroke="black" stroke-width="2" fill="none" />
<polyline points="128.5,480.5,113.0,484.5,97.0,484.0,81.0,484.0,67.0,470.0,67.0,454.0,66.5,438.0,55.0,433.5" stroke="black" stroke-width="2" fill="none" />
<polyline points="38.0,430.5,54.0,439.0,51.5,455.0,49.5,470.5" stroke="black" stroke-width="2" fill="none" />
<polyline points="71.0,469.0,73.0,452.5,72.5,436.5" stroke="black" stroke-width="2" fill="none" />
<polyline points="87.5,405.5,71.5,385.5" stroke="black" stroke-width="2" fill="none" />
<polyline points="75.5,381.5,89.5,397.5" stroke="black" stroke-width="2" fill="none" />
<polyline points="100.0,375.0,84.0,367.5,68.0,337.5" stroke="black" stroke-width="2" fill="none" />
<polyline points="45.0,338.0,61.0,365.5,77.0,375.5,93.0,380.0,99.0,388.5,99.0,404.5" stroke="black" stroke-width="2" fill="none" />
<polyline points="111.5,326.0,121.5,322.5,137.5,323.0" stroke="black" stroke-width="2" fill="none" />
<polyline points="114.0,320.0,129.5,296.0,139.0,303.5,143.0,319.5,147.0,335.5,145.0,352.0,155.0,364.0,171.0,362.0,187.5,358.0,211.5,360.0,227.5,358.0,243.5,360.0,259.5,364.0,275.5,360.0,291.5,359.5,306.0,365.0,322.0,359.5,338.5,359.5,354.5,355.5" stroke="black" stroke-width="2" fill="none" />
<polyline points="370.5,356.0,392.5,340.0,393.0,332.5,403.0,316.5,413.5,300.0,425.5,284.0,435.5,268.0,446.0,252.0,463.5,236.0,461.5,238.0,443.0,238.0,426.5,260.5,410.5,290.5,402.0,316.5,386.0,338.5,377.5,336.5,378.0,320.5,380.0,304.5,390.0,276.5,384.0,276.5,378.0,274.5,382.0,254.5,388.0,246.0,398.5,230.0,410.5,214.0,374.5,184.0,370.0,168.0,362.0,152.0,364.5,136.5,375.0,120.5,399.0,104.0,403.0,96.0,386.5,96.0,370.5,95.5,354.0,96.0,338.0,96.0,321.5,96.0,306.0,96.0,290.0,96.5,274.0,96.5,257.5,97.0,241.5,96.5,225.5,96.5,209.5,96.0,193.5,95.0,177.5,99.0" stroke="black" stroke-width="2" fill="none" />
<polyline points="179.0,96.0,177.5,112.0,177.0,127.5,177.5,143.5,179.5,159.5,178.0,175.5,178.0,191.5,176.5,216.0,192.5,212.0,209.0,210.5,225.0,210.5,241.0,210.5,257.0,210.5,273.0,210.0,289.0,210.0,305.0,209.5,321.0,210.0" stroke="black" stroke-width="2" fill="none" />
<polyline points="260.5,151.0,248.0,135.0,242.0,147.0" stroke="black" stroke-width="2" fill="none" />
<polyline points="240.5,131.0,254.5,135.0,244.5,135.0,264.5,137.5,269.0,153.0,263.0,169.0,259.0,181.0" stroke="black" stroke-width="2" fill="none" />
<polyline points="251.0,186.5,235.0,186.5" stroke="black" stroke-width="2" fill="none" />
<polyline points="240.0,179.5,231.5,177.5,225.5,177.5,212.0,167.5,212.5,151.0,210.5,139.0,197.0,148.5,181.0,146.5" stroke="black" stroke-width="2" fill="none" />
<polyline points="179.5,156.0,195.5,156.0,215.5,136.0,232.0,123.5,248.5,123.5,264.5,129.5" stroke="black" stroke-width="2" fill="none" />
<polyline points="217.5,141.5,215.5,157.5,217.5,165.5,217.5,171.0" stroke="black" stroke-width="2" fill="none" />
<polyline points="171.0,87.5,187.0,89.5,203.0,90.0,219.5,90.5,236.0,90.5,252.5,91.0,268.5,90.5,284.5,90.5,301.0,90.5,317.5,90.5,333.5,90.5,349.5,90.5,365.5,91.0,381.5,91.0,397.0,89.0,412.5,90.5,430.5,103.0,456.5,118.5,468.5,134.5,470.5,151.0,462.5,167.0,452.5,183.0,448.0,199.5,462.0,215.0,476.0,231.0,482.0,246.5,484.0,262.5,480.5,278.0,470.5,294.0,460.5,309.5,455.0,327.5,471.0,301.5,491.0,290.0,491.0,306.0,491.0,322.5,491.0,338.5,491.0,354.5,491.5,370.5,491.5,386.5,491.5,402.5,491.0,418.5,491.0,434.5,491.0,450.5,491.0,466.5,491.0,483.0,490.5,499.0" stroke="black" stroke-width="2" fill="none" />
<polyline points="364.5,506.0,366.5,490.0,366.5,474.0,368.5,458.0,368.5,441.5,370.5,425.5,372.0,409.5" stroke="black" stroke-width="2" fill="none" />
<polyline points="316.0,347.0,316.0,331.5,316.0,315.5,318.5,299.5" stroke="black" stroke-width="2" fill="none" />
<polyline points="204.0,347.0,196.5,347.5,181.0,353.5,165.0,355.5,149.0,355.5,152.5,348.0,132.5,328.0,126.0,316.0,122.0,314.0,133.5,314.0,133.5,298.5,135.5,282.5,131.5,266.5,127.5,250.5,127.5,234.5" stroke="black" stroke-width="2" fill="none" />
<polyline points="114.0,234.0,123.5,250.0,126.0,266.5,130.0,282.5,124.5,298.0,118.5,313.5,113.0,330.0,121.0,346.0,119.0,362.0,119.0,378.0,125.0,396.0,117.0,411.5,117.0,427.0,117.0,443.0,117.0,459.0,116.5,475.0" stroke="black" stroke-width="2" fill="none" />
<polyline points="89.5,395.5,73.5,380.0,57.0,372.5,41.0,370.5,39.0,362.5,36.5,336.5" stroke="black" stroke-width="2" fill="none" />
<polyline points="41.0,286.5,57.0,284.5,72.5,286.5" stroke="black" stroke-width="2" fill="none" />
<polyline points="58.0,278.5,42.0,278.5" stroke="black" stroke-width="2" fill="none" />
<polyline points="43.0,256.5,59.0,242.5,75.0,272.5" stroke="black" stroke-width="2" fill="none" />
<polyline points="110.5,270.5,118.5,254.5,112.0,238.5,105.5,222.5,123.5,198.5,122.0,200.0,106.0,214.5" stroke="black" stroke-width="2" fill="none" />
<polyline points="120.5,193.5,105.0,209.5,89.0,216.0,63.0,200.0" stroke="black" stroke-width="2" fill="none" />
<polyline points="65.0,192.0,81.0,209.5,105.0,217.0,121.0,229.0,137.0,225.0,152.5,223.0,169.0,219.0,189.0,217.0,205.0,219.5,221.0,219.5,237.0,218.0,253.0,217.5,269.0,217.5,285.0,217.5,301.0,217.5,316.5,218.0,332.5,218.5,348.0,218.5,363.5,218.5,379.0,218.5,395.0,216.5,408.5,222.5,424.5,214.0,441.0,205.5,457.5,207.5,474.0,225.5,490.0,247.5" stroke="black" stroke-width="2" fill="none" />
<polyline points="453.0,213.0,462.5,229.0,445.0,245.0,434.5,261.0,424.5,276.5,414.0,292.5,414.5,312.5,403.0,328.0,401.5,344.0,419.5,359.5,425.5,378.0,405.5,394.0,431.5,380.0" stroke="black" stroke-width="2" fill="none" />
<polyline points="118.0,170.0,102.0,185.5,96.0,181.5,112.5,163.0" stroke="black" stroke-width="2" fill="none" />
<polyline points="116.0,134.0,100.0,126.0,83.5,125.5,67.5,135.5,65.5,156.0,86.0,140.5" stroke="black" stroke-width="2" fill="none" />
<polyline points="110.0,131.5,122.0,147.5,130.0,156.0,130.0,172.0,124.0,179.5,118.5,195.5,102.0,211.5,86.0,221.5,86.0,239.5,102.5,255.5" stroke="black" stroke-width="2" fill="none" />
<polyline points="112.0,249.0,92.0,237.5,102.0,221.5,96.5,188.0,114.5,171.5,95.0,183.5,79.5,188.0,64.0,190.0,62.0,180.0" stroke="black" stroke-width="2" fill="none" />
<polyline points="46.5,240.5,41.0,256.5,39.0,272.5,39.0,292.0,39.0,308.0,39.0,323.5,43.0,339.5,51.0,355.0,41.5,373.0,37.5,389.0,37.5,405.5,35.5,421.5,41.5,425.5,57.5,428.0,73.0,432.5,77.0,438.5,93.0,441.0" stroke="black" stroke-width="2" fill="none" />
<polyline points="106.0,259.5,100.0,235.5,84.0,245.5,74.0,227.5,70.0,217.5,53.5,227.5,37.5,245.5" stroke="black" stroke-width="2" fill="none" />
</svg>