<?xml version="1.0" encoding="UTF-8"?>
<svg xmlns="http://www.w3.org/2000/svg" xmlns:xlink="http://www.w3.org/1999/xlink" width="1935.11811" height="1935.11811" viewBox="0 0 1935.11811 1935.11811" version="1.1">
<g id="surface1">
<path style="fill:none;stroke-width:2;stroke-linecap:butt;stroke-linejoin:miter;stroke:rgb(0%,0%,0%);stroke-opacity:1;stroke-miterlimit:4;" d="M 225.500448 38.499976 L 191.500456 54.500033 L 173.499487 70.50009 L 161.50022 86.500146 L 155.499552 103.000431 L 151.499797 119.000488 L 149.499919 134.999512 L 149.499919 150.999569 L 146.999813 166.999626 L 141.000179 182.500488 L 146.499585 198.499512 L 157.000236 214.499569 L 168.999504 246.499683 L 181.500033 261.999512 L 203.499723 277.500374 L 195.500212 293.000203 L 177.500277 309.00026 L 151.499797 325.000317 L 119.499683 340.500146 L 87.999797 356.500203 L 66.000106 372.50026 L 52.500155 388.500317 L 42.499731 404.999569 L 34.50022 420.999626 L 28.499552 436.999683 L 24.499797 452.99974 L 20.500041 469.500024 L 16.500285 485.500081 L 14.500407 501.500138 " transform="matrix(3.779528,0,0,3.779528,0,0)"/>
<path style="fill:none;stroke-width:2;stroke-linecap:butt;stroke-linejoin:miter;stroke:rgb(0%,0%,0%);stroke-opacity:1;stroke-miterlimit:4;" d="M 19.499585 495.999699 L 21.500496 479.999642 L 25.500252 463.999585 L 30.000236 445.500456 L 35.99987 429.500399 L 50.000049 403.499919 L 64.000228 385.499984 L 82.000163 369.499927 L 107.999609 353.49987 L 141.999601 337.499813 L 169.499731 321.499756 L 165.499976 325.499512 " transform="matrix(3.779528,0,0,3.779528,0,0)"/>
<path style="fill:none;stroke-width:2;stroke-linecap:butt;stroke-linejoin:miter;stroke:rgb(0%,0%,0%);stroke-opacity:1;stroke-miterlimit:4;" d="M 200.999618 298.000415 L 212.999919 298.000415 L 216.999674 313.500244 L 234.500415 329.500301 L 252.50035 355.999976 L 236.000065 373.99991 L 250.500472 357.999854 " transform="matrix(3.779528,0,0,3.779528,0,0)"/>
<path style="fill:none;stroke-width:2;stroke-linecap:butt;stroke-linejoin:miter;stroke:rgb(0%,0%,0%);stroke-opacity:1;stroke-miterlimit:4;" d="M 284.000236 343.000252 L 289.99987 327.500423 L 295.999504 311.500366 L 302.000171 295.000081 L 284.000236 316.999772 L 267.499951 332.499601 L 251.499894 336.500391 L 235.499837 329.999495 L 219.49978 318.000228 " transform="matrix(3.779528,0,0,3.779528,0,0)"/>
<path style="fill:none;stroke-width:2;stroke-linecap:butt;stroke-linejoin:miter;stroke:rgb(0%,0%,0%);stroke-opacity:1;stroke-miterlimit:4;" d="M 214.000374 307.499577 L 230.000431 319.499878 L 246.000488 329.000073 L 261.999512 327.000195 L 277.999569 313.000016 " transform="matrix(3.779528,0,0,3.779528,0,0)"/>
<path style="fill:none;stroke-width:2;stroke-linecap:butt;stroke-linejoin:miter;stroke:rgb(0%,0%,0%);stroke-opacity:1;stroke-miterlimit:4;" d="M 297.500187 320.500334 L 299.500065 316.499544 L 305.499699 300.499487 " transform="matrix(3.779528,0,0,3.779528,0,0)"/>
<path style="fill:none;stroke-width:2;stroke-linecap:butt;stroke-linejoin:miter;stroke:rgb(0%,0%,0%);stroke-opacity:1;stroke-miterlimit:4;" d="M 307.999805 295.999504 L 329.500301 311.999561 L 354.000098 328.499845 L 384.000334 344.499902 L 418.49952 359.999731 L 444.5 375.499561 L 461.000285 391.999845 L 470.999674 407.999902 L 477.000342 423.999959 L 482.999976 440.000016 L 482.999976 456.000073 L 486.999731 473.49978 L 493.000399 481.000098 L 495.000277 488.999609 L 490.999487 504.999666 L 496.499927 506.999544 " transform="matrix(3.779528,0,0,3.779528,0,0)"/>
<path style="fill:none;stroke-width:2;stroke-linecap:butt;stroke-linejoin:miter;stroke:rgb(0%,0%,0%);stroke-opacity:1;stroke-miterlimit:4;" d="M 309.500488 441.000472 L 289.000448 429.000171 L 291.000326 413.000114 L 287.499764 406.500252 L 295.500309 391.000423 L 302.000171 375.000366 L 323.999862 361.000187 L 314.499666 353.49987 L 316.499544 338.000041 L 322.500212 336.000163 " transform="matrix(3.779528,0,0,3.779528,0,0)"/>
<path style="fill:none;stroke-width:2;stroke-linecap:butt;stroke-linejoin:miter;stroke:rgb(0%,0%,0%);stroke-opacity:1;stroke-miterlimit:4;" d="M 321.999984 332.000407 L 327.999618 340.500146 L 332.000407 355.999976 L 323.499634 373.99991 L 329.500301 375.499561 L 325.499512 391.000423 L 317.5 409.499552 L 333.500057 383.500106 " transform="matrix(3.779528,0,0,3.779528,0,0)"/>
<path style="fill:none;stroke-width:2;stroke-linecap:butt;stroke-linejoin:miter;stroke:rgb(0%,0%,0%);stroke-opacity:1;stroke-miterlimit:4;" d="M 319.499878 400.000391 L 331.500179 404.000146 L 327.500423 420.000203 L 323.999862 437.49991 " transform="matrix(3.779528,0,0,3.779528,0,0)"/>
<path style="fill:none;stroke-width:2;stroke-linecap:butt;stroke-linejoin:miter;stroke:rgb(0%,0%,0%);stroke-opacity:1;stroke-miterlimit:4;" d="M 332.000407 419.499976 L 323.999862 417.500098 L 321.499756 411.500464 L 329.500301 395.500407 L 336.000163 379.50035 L 342.500024 377.000244 L 342.500024 361.000187 L 341.000374 344.499902 L 320.999528 350.499536 " transform="matrix(3.779528,0,0,3.779528,0,0)"/>
<path style="fill:none;stroke-width:2;stroke-linecap:butt;stroke-linejoin:miter;stroke:rgb(0%,0%,0%);stroke-opacity:1;stroke-miterlimit:4;" d="M 317.5 330.999951 L 331.500179 327.000195 L 333.500057 343.999674 L 321.499756 348.499658 L 319.499878 364.499715 L 313.500244 381 L 314.000472 396.499829 L 314.000472 412.499886 L 304.000049 427.999715 L 313.500244 432.000505 L 318.000228 434.000382 L 325.99974 436.00026 " transform="matrix(3.779528,0,0,3.779528,0,0)"/>
<path style="fill:none;stroke-width:2;stroke-linecap:butt;stroke-linejoin:miter;stroke:rgb(0%,0%,0%);stroke-opacity:1;stroke-miterlimit:4;" d="M 309.999683 418.999748 L 293.999626 420.999626 " transform="matrix(3.779528,0,0,3.779528,0,0)"/>
<path style="fill:none;stroke-width:2;stroke-linecap:butt;stroke-linejoin:miter;stroke:rgb(0%,0%,0%);stroke-opacity:1;stroke-miterlimit:4;" d="M 288.50022 420.500431 L 304.500277 436.500488 L 320.500334 443.999772 " transform="matrix(3.779528,0,0,3.779528,0,0)"/>
<path style="fill:none;stroke-width:2;stroke-linecap:butt;stroke-linejoin:miter;stroke:rgb(0%,0%,0%);stroke-opacity:1;stroke-miterlimit:4;" d="M 297.500187 384.000334 L 313.500244 363.999487 L 298.000415 372.000033 L 291.999748 388.00009 L 295.999504 376.500016 " transform="matrix(3.779528,0,0,3.779528,0,0)"/>
<path style="fill:none;stroke-width:2;stroke-linecap:butt;stroke-linejoin:miter;stroke:rgb(0%,0%,0%);stroke-opacity:1;stroke-miterlimit:4;" d="M 239.999821 406.000024 L 224.499992 391.999845 L 230.999854 371.499805 L 245.000033 355.499748 L 257.499528 339.499691 L 280.999902 319.499878 L 293.000203 304.000049 L 298.999837 288.50022 L 316.499544 273.000391 L 334.500513 257.000334 L 345.999552 241.500505 L 351.499992 225.00022 L 366.999821 209.000163 L 368.999699 193.000106 L 364.499715 176.499821 L 368.000277 160.999992 L 368.500505 144.999935 L 368.500505 128.999878 L 364.999943 112.999821 L 359.000309 96.999764 L 348.999886 82.500391 L 334.999707 66.000106 L 311.500366 49.499821 L 281.50013 46.999715 L 265.500073 46.499487 L 249.500016 41.999504 " transform="matrix(3.779528,0,0,3.779528,0,0)"/>
<path style="fill:none;stroke-width:2;stroke-linecap:butt;stroke-linejoin:miter;stroke:rgb(0%,0%,0%);stroke-opacity:1;stroke-miterlimit:4;" d="M 246.499683 39.000203 L 261.999512 41.500309 L 277.999569 43.500187 L 302.000171 57.999561 L 322.500212 73.999618 L 332.499601 90.499902 " transform="matrix(3.779528,0,0,3.779528,0,0)"/>
<path style="fill:none;stroke-width:2;stroke-linecap:butt;stroke-linejoin:miter;stroke:rgb(0%,0%,0%);stroke-opacity:1;stroke-miterlimit:4;" d="M 347.000008 93.500236 L 334.999707 77.500179 L 316.999772 77.500179 L 293.000203 62.00035 L 281.50013 67.999984 " transform="matrix(3.779528,0,0,3.779528,0,0)"/>
<path style="fill:none;stroke-width:2;stroke-linecap:butt;stroke-linejoin:miter;stroke:rgb(0%,0%,0%);stroke-opacity:1;stroke-miterlimit:4;" d="M 287.499764 53.999805 L 303.499821 57.999561 " transform="matrix(3.779528,0,0,3.779528,0,0)"/>
<path style="fill:none;stroke-width:2;stroke-linecap:butt;stroke-linejoin:miter;stroke:rgb(0%,0%,0%);stroke-opacity:1;stroke-miterlimit:4;" d="M 305.999927 51.499699 L 289.99987 49.499821 " transform="matrix(3.779528,0,0,3.779528,0,0)"/>
<path style="fill:none;stroke-width:2;stroke-linecap:butt;stroke-linejoin:miter;stroke:rgb(0%,0%,0%);stroke-opacity:1;stroke-miterlimit:4;" d="M 332.999829 87.499569 L 316.999772 75.500301 L 320.999528 59.000016 L 307.000382 62.999772 L 292.499976 55.00026 L 268.999601 60.999894 L 252.999544 57.000138 L 236.999487 57.000138 L 221.000464 57.500366 L 205.000407 62.00035 " transform="matrix(3.779528,0,0,3.779528,0,0)"/>
<path style="fill:none;stroke-width:2;stroke-linecap:butt;stroke-linejoin:miter;stroke:rgb(0%,0%,0%);stroke-opacity:1;stroke-miterlimit:4;" d="M 223.000342 45.500065 L 198.99974 59.500244 L 183.49991 75.500301 L 169.499731 91.500358 L 169.999959 103.000431 L 178.000505 95.500114 L 180.000382 71.499512 L 196.000439 62.00035 L 209.999585 51.999927 L 225.999642 46.499487 L 227.99952 50.500277 L 243.999577 53.000382 L 249.500016 48.999593 L 265.500073 54.500033 L 281.50013 60.499666 L 285.499886 57.999561 L 302.000171 66.000106 L 317.5 69.999862 L 334.000285 75.999495 L 350.000342 94.000464 " transform="matrix(3.779528,0,0,3.779528,0,0)"/>
<path style="fill:none;stroke-width:2;stroke-linecap:butt;stroke-linejoin:miter;stroke:rgb(0%,0%,0%);stroke-opacity:1;stroke-miterlimit:4;" d="M 359.999731 93.500236 L 343.999674 71.499512 L 327.999618 57.500366 L 311.999561 47.499943 L 296.499731 41.500309 L 280.499674 37.49952 L 264.000423 35.499642 L 248.000366 35.99987 L 231.500081 37.999748 L 215.500024 41.999504 L 200.000195 48.000171 L 184.000138 59.500244 L 167.499854 75.500301 L 151.499797 109.500293 " transform="matrix(3.779528,0,0,3.779528,0,0)"/>
<path style="fill:none;stroke-width:2;stroke-linecap:butt;stroke-linejoin:miter;stroke:rgb(0%,0%,0%);stroke-opacity:1;stroke-miterlimit:4;" d="M 181.500033 107.000187 L 171.499609 116.999577 L 187.499666 100.99952 " transform="matrix(3.779528,0,0,3.779528,0,0)"/>
<path style="fill:none;stroke-width:2;stroke-linecap:butt;stroke-linejoin:miter;stroke:rgb(0%,0%,0%);stroke-opacity:1;stroke-miterlimit:4;" d="M 207.000285 105.999731 L 193.500334 121.999788 L 182.999683 137.499618 L 175.500399 153.499674 L 165.499976 169.499731 L 171.999837 185.499788 L 166.000203 201.499845 L 166.500431 214.000374 L 170.500187 216.000252 L 180.999805 240.500049 L 187.000472 256.500106 L 205.000407 272.500163 L 230.999854 282.499552 L 216.999674 298.000415 L 223.000342 314.000472 L 245.000033 329.500301 " transform="matrix(3.779528,0,0,3.779528,0,0)"/>
<path style="fill:none;stroke-width:2;stroke-linecap:butt;stroke-linejoin:miter;stroke:rgb(0%,0%,0%);stroke-opacity:1;stroke-miterlimit:4;" d="M 230.499626 394.499951 L 239.000399 410.500008 L 241.000277 426.500065 L 228.999976 441.999894 L 209.000163 457.999951 L 227.000098 443.499544 " transform="matrix(3.779528,0,0,3.779528,0,0)"/>
<path style="fill:none;stroke-width:2;stroke-linecap:butt;stroke-linejoin:miter;stroke:rgb(0%,0%,0%);stroke-opacity:1;stroke-miterlimit:4;" d="M 229.500203 404.000146 L 209.500391 407.999902 L 193.500334 407.999902 " transform="matrix(3.779528,0,0,3.779528,0,0)"/>
<path style="fill:none;stroke-width:2;stroke-linecap:butt;stroke-linejoin:miter;stroke:rgb(0%,0%,0%);stroke-opacity:1;stroke-miterlimit:4;" d="M 180.999805 401.500041 L 180.499577 388.00009 L 196.999862 393.999723 L 211.000041 416.000448 L 207.000285 429.999593 " transform="matrix(3.779528,0,0,3.779528,0,0)"/>
<path style="fill:none;stroke-width:2;stroke-linecap:butt;stroke-linejoin:miter;stroke:rgb(0%,0%,0%);stroke-opacity:1;stroke-miterlimit:4;" d="M 187.000472 429.999593 L 187.000472 413.500342 L 178.999927 399.500163 L 178.999927 406.000024 " transform="matrix(3.779528,0,0,3.779528,0,0)"/>
<path style="fill:none;stroke-width:2;stroke-linecap:butt;stroke-linejoin:miter;stroke:rgb(0%,0%,0%);stroke-opacity:1;stroke-miterlimit:4;" d="M 171.999837 398.499707 L 196.000439 395.000179 L 191.500456 411.000236 L 191.500456 426.500065 " transform="matrix(3.779528,0,0,3.779528,0,0)"/>
<path style="fill:none;stroke-width:2;stroke-linecap:butt;stroke-linejoin:miter;stroke:rgb(0%,0%,0%);stroke-opacity:1;stroke-miterlimit:4;" d="M 180.999805 434.499577 L 164.49952 438.500366 " transform="matrix(3.779528,0,0,3.779528,0,0)"/>
<path style="fill:none;stroke-width:2;stroke-linecap:butt;stroke-linejoin:miter;stroke:rgb(0%,0%,0%);stroke-opacity:1;stroke-miterlimit:4;" d="M 178.499699 440.000016 L 174.499943 425.999837 L 168.500309 423.499731 L 166.500431 407.499674 L 157.999658 401.500041 " transform="matrix(3.779528,0,0,3.779528,0,0)"/>
<path style="fill:none;stroke-width:2;stroke-linecap:butt;stroke-linejoin:miter;stroke:rgb(0%,0%,0%);stroke-opacity:1;stroke-miterlimit:4;" d="M 162.499642 394.499951 L 178.999927 380.499772 L 194.999984 384.999756 L 196.999862 387.499862 L 211.000041 403.499919 L 214.999797 419.499976 L 211.000041 435.500033 L 196.999862 445.500456 L 200.500423 447.000106 L 204.500179 441.000472 " transform="matrix(3.779528,0,0,3.779528,0,0)"/>
<path style="fill:none;stroke-width:2;stroke-linecap:butt;stroke-linejoin:miter;stroke:rgb(0%,0%,0%);stroke-opacity:1;stroke-miterlimit:4;" d="M 180.000382 422.000081 L 164.000326 413.999536 L 157.999658 407.499674 L 159.999536 391.499618 L 168.500309 389.49974 L 158.499886 393.000301 " transform="matrix(3.779528,0,0,3.779528,0,0)"/>
<path style="fill:none;stroke-width:2;stroke-linecap:butt;stroke-linejoin:miter;stroke:rgb(0%,0%,0%);stroke-opacity:1;stroke-miterlimit:4;" d="M 148.999691 391.999845 L 150.999569 389.49974 L 143.500285 405.499797 L 141.999601 421.499854 L 146.499585 437.49991 L 158.499886 454.000195 L 187.000472 450.000439 L 193.000106 443.999772 L 208.499935 425.999837 " transform="matrix(3.779528,0,0,3.779528,0,0)"/>
<path style="fill:none;stroke-width:2;stroke-linecap:butt;stroke-linejoin:miter;stroke:rgb(0%,0%,0%);stroke-opacity:1;stroke-miterlimit:4;" d="M 191.99965 373.99991 L 207.999707 379.999544 L 221.499658 384.000334 L 236.999487 363.500293 L 252.50035 343.50048 L 268.500407 348.000464 L 284.000236 341.499569 L 300.000293 299.500065 L 316.00035 298.999837 L 332.000407 311.500366 L 348.000464 321.499756 L 363.999487 331.500179 L 379.999544 339.000496 L 395.999601 347.000008 L 412.499886 355.499748 L 428.499943 363.500293 L 444.5 373.000488 L 460.500057 388.999512 L 476.500114 420.999626 " transform="matrix(3.779528,0,0,3.779528,0,0)"/>
<path style="fill:none;stroke-width:2;stroke-linecap:butt;stroke-linejoin:miter;stroke:rgb(0%,0%,0%);stroke-opacity:1;stroke-miterlimit:4;" d="M 470.50048 421.499854 L 454.500423 391.499618 L 436.500488 375.000366 L 412.499886 361.000187 L 394.499951 350.999764 L 372.50026 341.000374 L 354.500326 332.499601 L 338.000041 320.500334 L 321.999984 310.49991 " transform="matrix(3.779528,0,0,3.779528,0,0)"/>
<path style="fill:none;stroke-width:2;stroke-linecap:butt;stroke-linejoin:miter;stroke:rgb(0%,0%,0%);stroke-opacity:1;stroke-miterlimit:4;" d="M 309.00026 304.500277 L 330.999951 320.500334 L 357.000431 336.000163 L 388.999512 351.499992 L 422.999504 367.500049 L 445.000228 382.999878 L 457.499723 398.999935 L 468.000374 415.50022 L 474.000008 431.500277 L 484.000431 449.500212 L 484.000431 465.500269 " transform="matrix(3.779528,0,0,3.779528,0,0)"/>
<path style="fill:none;stroke-width:2;stroke-linecap:butt;stroke-linejoin:miter;stroke:rgb(0%,0%,0%);stroke-opacity:1;stroke-miterlimit:4;" d="M 330.999951 252.50035 L 312.499788 268.500407 L 296.499731 273.999813 L 280.499674 279.500252 L 264.499618 280.999902 L 248.000366 283.500008 L 232.000309 282.000358 L 209.999585 280.00048 L 193.999528 270.500285 L 178.000505 256.500106 " transform="matrix(3.779528,0,0,3.779528,0,0)"/>
<path style="fill:none;stroke-width:2;stroke-linecap:butt;stroke-linejoin:miter;stroke:rgb(0%,0%,0%);stroke-opacity:1;stroke-miterlimit:4;" d="M 193.000106 242.499927 L 209.000163 254 L 225.00022 255.999878 L 241.000277 259.500439 L 256.500106 261.500317 L 271.999935 259.500439 " transform="matrix(3.779528,0,0,3.779528,0,0)"/>
<path style="fill:none;stroke-width:2;stroke-linecap:butt;stroke-linejoin:miter;stroke:rgb(0%,0%,0%);stroke-opacity:1;stroke-miterlimit:4;" d="M 267.499951 214.499569 L 252.000122 216.000252 L 236.000065 210.499813 " transform="matrix(3.779528,0,0,3.779528,0,0)"/>
<path style="fill:none;stroke-width:2;stroke-linecap:butt;stroke-linejoin:miter;stroke:rgb(0%,0%,0%);stroke-opacity:1;stroke-miterlimit:4;" d="M 215.500024 237.499715 L 231.500081 239.499593 L 247.500138 243.500382 L 263.500195 243.999577 L 279.000024 242.499927 L 295.000081 240.500049 " transform="matrix(3.779528,0,0,3.779528,0,0)"/>
<path style="fill:none;stroke-width:2;stroke-linecap:butt;stroke-linejoin:miter;stroke:rgb(0%,0%,0%);stroke-opacity:1;stroke-miterlimit:4;" d="M 297.500187 243.500382 L 281.50013 247.500138 L 265.500073 249.500016 L 249.500016 248.999788 L 217.499902 241.000277 " transform="matrix(3.779528,0,0,3.779528,0,0)"/>
<path style="fill:none;stroke-width:2;stroke-linecap:butt;stroke-linejoin:miter;stroke:rgb(0%,0%,0%);stroke-opacity:1;stroke-miterlimit:4;" d="M 191.000228 223.499536 L 207.000285 209.500391 L 222.500114 200.000195 L 234.500415 200.000195 " transform="matrix(3.779528,0,0,3.779528,0,0)"/>
<path style="fill:none;stroke-width:2;stroke-linecap:butt;stroke-linejoin:miter;stroke:rgb(0%,0%,0%);stroke-opacity:1;stroke-miterlimit:4;" d="M 257.999756 178.000505 L 273.499585 186.000016 " transform="matrix(3.779528,0,0,3.779528,0,0)"/>
<path style="fill:none;stroke-width:2;stroke-linecap:butt;stroke-linejoin:miter;stroke:rgb(0%,0%,0%);stroke-opacity:1;stroke-miterlimit:4;" d="M 302.999593 181.500033 L 313.000016 179.500155 L 302.999593 184.000138 L 287.499764 184.500366 L 291.999748 198.499512 L 308.500033 202.999495 L 324.50009 200.500423 L 340.500146 194.499756 L 357.000431 186.500244 L 365.500171 190.5 L 365.500171 206.500057 L 347.500236 222.500114 " transform="matrix(3.779528,0,0,3.779528,0,0)"/>
<path style="fill:none;stroke-width:2;stroke-linecap:butt;stroke-linejoin:miter;stroke:rgb(0%,0%,0%);stroke-opacity:1;stroke-miterlimit:4;" d="M 332.999829 250.500472 L 314.999894 266.499495 L 293.000203 286.000114 L 286.999536 302.000171 L 276.499919 318.000228 L 260.499862 341.499569 L 270.500285 357.499626 L 278.499797 361.999609 " transform="matrix(3.779528,0,0,3.779528,0,0)"/>
<path style="fill:none;stroke-width:2;stroke-linecap:butt;stroke-linejoin:miter;stroke:rgb(0%,0%,0%);stroke-opacity:1;stroke-miterlimit:4;" d="M 293.999626 257.000334 L 277.500374 266.999723 L 281.50013 259.500439 L 295.500309 255.49965 L 284.000236 253.499772 L 271.999935 265.500073 L 266.000301 255.999878 L 250.000244 256.500106 L 234.000187 254.500228 L 218.00013 250.000244 L 207.999707 245.50026 L 191.99965 243.000155 L 189.999772 227.000098 L 202.000073 211.000041 L 232.499504 195.500212 L 241.000277 179.500155 L 225.00022 163.500098 L 205.000407 175.500399 " transform="matrix(3.779528,0,0,3.779528,0,0)"/>
<path style="fill:none;stroke-width:2;stroke-linecap:butt;stroke-linejoin:miter;stroke:rgb(0%,0%,0%);stroke-opacity:1;stroke-miterlimit:4;" d="M 214.499569 168.999504 L 224.499992 168.500309 L 230.499626 184.500366 L 240.500049 208.499935 L 238.500171 216.50048 L 254.500228 222.500114 L 271.000513 220.500236 " transform="matrix(3.779528,0,0,3.779528,0,0)"/>
<path style="fill:none;stroke-width:2;stroke-linecap:butt;stroke-linejoin:miter;stroke:rgb(0%,0%,0%);stroke-opacity:1;stroke-miterlimit:4;" d="M 219.49978 189.999772 L 203.499723 192.499878 L 187.499666 186.500244 L 163.500098 168.500309 L 147.500041 176.499821 " transform="matrix(3.779528,0,0,3.779528,0,0)"/>
<path style="fill:none;stroke-width:2;stroke-linecap:butt;stroke-linejoin:miter;stroke:rgb(0%,0%,0%);stroke-opacity:1;stroke-miterlimit:4;" d="M 143.000057 176.499821 L 148.500496 176.499821 L 150.500374 191.99965 L 160.499764 207.999707 " transform="matrix(3.779528,0,0,3.779528,0,0)"/>
<path style="fill:none;stroke-width:2;stroke-linecap:butt;stroke-linejoin:miter;stroke:rgb(0%,0%,0%);stroke-opacity:1;stroke-miterlimit:4;" d="M 150.500374 193.500334 L 166.500431 193.500334 L 189.499544 163.500098 L 205.999829 159.500342 L 230.000431 159.500342 L 246.000488 164.000326 L 261.999512 166.000203 L 278.499797 163.500098 L 294.499854 161.50022 L 314.000472 173.000293 L 325.99974 173.000293 L 341.999797 184.999561 " transform="matrix(3.779528,0,0,3.779528,0,0)"/>
<path style="fill:none;stroke-width:2;stroke-linecap:butt;stroke-linejoin:miter;stroke:rgb(0%,0%,0%);stroke-opacity:1;stroke-miterlimit:4;" d="M 345.00013 180.499577 L 329.000073 172.500065 L 325.499512 160.499764 L 315.500122 170.500187 L 302.999593 166.500431 L 286.999536 175.999593 L 262.999967 198.000317 L 255.000456 197.50009 L 246.99991 182.00026 L 227.000098 193.999528 L 211.000041 198.499512 L 178.999927 194.499756 " transform="matrix(3.779528,0,0,3.779528,0,0)"/>
<path style="fill:none;stroke-width:2;stroke-linecap:butt;stroke-linejoin:miter;stroke:rgb(0%,0%,0%);stroke-opacity:1;stroke-miterlimit:4;" d="M 162.499642 216.50048 L 146.499585 194.499756 " transform="matrix(3.779528,0,0,3.779528,0,0)"/>
<path style="fill:none;stroke-width:2;stroke-linecap:butt;stroke-linejoin:miter;stroke:rgb(0%,0%,0%);stroke-opacity:1;stroke-miterlimit:4;" d="M 175.000171 156.500008 L 191.000228 128.49965 L 206.500057 108.499837 L 222.500114 112.499593 L 238.500171 118.50026 L 254.500228 122.500016 L 270.500285 123.999666 L 286.000114 121.999788 L 302.000171 119.99991 L 318.000228 123.999666 L 334.500513 141.999601 " transform="matrix(3.779528,0,0,3.779528,0,0)"/>
<path style="fill:none;stroke-width:2;stroke-linecap:butt;stroke-linejoin:miter;stroke:rgb(0%,0%,0%);stroke-opacity:1;stroke-miterlimit:4;" d="M 316.00035 158.499886 L 303.499821 164.000326 L 283.500008 179.500155 L 283.500008 195.500212 L 273.999813 205.999829 " transform="matrix(3.779528,0,0,3.779528,0,0)"/>
<path style="fill:none;stroke-width:2;stroke-linecap:butt;stroke-linejoin:miter;stroke:rgb(0%,0%,0%);stroke-opacity:1;stroke-miterlimit:4;" d="M 334.500513 189.00035 L 329.000073 173.000293 " transform="matrix(3.779528,0,0,3.779528,0,0)"/>
<path style="fill:none;stroke-width:2;stroke-linecap:butt;stroke-linejoin:miter;stroke:rgb(0%,0%,0%);stroke-opacity:1;stroke-miterlimit:4;" d="M 366.000399 213.500146 L 350.000342 225.00022 L 348.000464 233.499959 L 332.000407 257.499528 L 316.499544 271.999935 L 300.499487 279.500252 L 280.999902 285.499886 L 265.500073 287.999992 L 234.000187 287.999992 L 217.499902 284.000236 L 212.999919 268.000179 L 196.499634 266.000301 L 180.000382 240.500049 L 171.499609 238.500171 L 173.499487 225.00022 L 175.500399 209.000163 L 179.500155 193.500334 L 183.49991 177.500277 L 197.50009 161.50022 " transform="matrix(3.779528,0,0,3.779528,0,0)"/>
<path style="fill:none;stroke-width:2;stroke-linecap:butt;stroke-linejoin:miter;stroke:rgb(0%,0%,0%);stroke-opacity:1;stroke-miterlimit:4;" d="M 193.999528 153.00048 L 178.000505 169.499731 L 186.000016 157.500464 L 202.000073 151.499797 L 218.00013 151.499797 L 234.000187 155.499552 L 250.000244 157.500464 L 266.499495 157.500464 L 282.499552 155.499552 L 298.999837 151.499797 L 314.999894 150.000146 L 330.999951 159.500342 " transform="matrix(3.779528,0,0,3.779528,0,0)"/>
<path style="fill:none;stroke-width:2;stroke-linecap:butt;stroke-linejoin:miter;stroke:rgb(0%,0%,0%);stroke-opacity:1;stroke-miterlimit:4;" d="M 330.999951 189.999772 L 314.499666 193.999528 L 298.999837 183.49991 L 290.500098 179.500155 L 282.000358 191.500456 L 266.000301 187.499666 L 257.999756 193.500334 L 236.500293 171.499609 L 220.000008 165.499976 L 209.999585 171.999837 L 207.999707 168.000081 L 202.000073 173.499487 L 221.999886 157.500464 " transform="matrix(3.779528,0,0,3.779528,0,0)"/>
<path style="fill:none;stroke-width:2;stroke-linecap:butt;stroke-linejoin:miter;stroke:rgb(0%,0%,0%);stroke-opacity:1;stroke-miterlimit:4;" d="M 311.999561 119.499683 L 327.999618 135.49974 L 337.499813 151.499797 L 343.50048 167.499854 L 353.49987 185.499788 " transform="matrix(3.779528,0,0,3.779528,0,0)"/>
<path style="fill:none;stroke-width:2;stroke-linecap:butt;stroke-linejoin:miter;stroke:rgb(0%,0%,0%);stroke-opacity:1;stroke-miterlimit:4;" d="M 157.500464 381 L 173.499487 375.000366 L 189.499544 369.499927 L 187.499666 383.500106 L 177.500277 400.000391 L 171.499609 398.000513 L 161.50022 407.999902 L 161.50022 423.499731 L 169.499731 435.500033 L 181.500033 447.999528 " transform="matrix(3.779528,0,0,3.779528,0,0)"/>
<path style="fill:none;stroke-width:2;stroke-linecap:butt;stroke-linejoin:miter;stroke:rgb(0%,0%,0%);stroke-opacity:1;stroke-miterlimit:4;" d="M 146.000391 448.999984 L 162.000448 463.000163 L 177.500277 472.999552 L 193.500334 468.999797 L 209.500391 459.000407 L 215.500024 461.000285 " transform="matrix(3.779528,0,0,3.779528,0,0)"/>
<path style="fill:none;stroke-width:2;stroke-linecap:butt;stroke-linejoin:miter;stroke:rgb(0%,0%,0%);stroke-opacity:1;stroke-miterlimit:4;" d="M 172.500065 460.500057 L 156.500008 452.499512 L 140.499951 434.499577 " transform="matrix(3.779528,0,0,3.779528,0,0)"/>
<path style="fill:none;stroke-width:2;stroke-linecap:butt;stroke-linejoin:miter;stroke:rgb(0%,0%,0%);stroke-opacity:1;stroke-miterlimit:4;" d="M 136.500195 413.500342 L 152.000024 383.500106 L 153.999902 381.500228 L 141.999601 397.000057 L 135.999967 413.000114 L 138.500073 428.499943 L 142.499829 444.5 L 155.99978 460.500057 L 182.00026 476.500114 L 184.000138 476.500114 L 196.000439 468.499569 L 212.000496 461.999707 L 221.499658 464.499813 L 223.499536 456.500301 L 239.999821 432.499699 L 230.499626 450.499634 L 232.499504 456.500301 L 198.499512 472.00013 " transform="matrix(3.779528,0,0,3.779528,0,0)"/>
<path style="fill:none;stroke-width:2;stroke-linecap:butt;stroke-linejoin:miter;stroke:rgb(0%,0%,0%);stroke-opacity:1;stroke-miterlimit:4;" d="M 121.999788 348.499658 L 105.999731 356.500203 L 78.000407 372.50026 L 62.00035 388.00009 L 46.000293 409.99978 L 30.000236 445.99965 " transform="matrix(3.779528,0,0,3.779528,0,0)"/>
<path style="fill:none;stroke-width:2;stroke-linecap:butt;stroke-linejoin:miter;stroke:rgb(0%,0%,0%);stroke-opacity:1;stroke-miterlimit:4;" d="M 25.500252 442.500122 L 41.500309 404.500374 L 57.000138 382.49965 L 73.000195 368.500505 L 88.500024 357.999854 L 104.500081 348.000464 L 120.500138 341.499569 L 137.000423 333.500057 L 153.00048 323.499634 L 169.499731 314.999894 L 185.499788 302.999593 L 201.499845 289.000448 L 199.499967 300.999715 L 195.500212 317.5 L 201.499845 319.499878 L 205.499601 335.499935 L 212.000496 352.00022 L 218.00013 368.500505 L 218.00013 384.999756 L 230.000431 400.999813 L 234.000187 404.999569 " transform="matrix(3.779528,0,0,3.779528,0,0)"/>
</g>
</svg>
