<?xml version="1.0" encoding="UTF-8"?>
<svg xmlns="http://www.w3.org/2000/svg" xmlns:xlink="http://www.w3.org/1999/xlink" width="1935.11811" height="1935.11811" viewBox="0 0 1935.11811 1935.11811" version="1.1">
<g id="surface1">
<path style="fill:none;stroke-width:2;stroke-linecap:butt;stroke-linejoin:miter;stroke:rgb(0%,0%,0%);stroke-opacity:1;stroke-miterlimit:4;" d="M 365.500171 24.499797 L 349.500114 40.499854 L 345.500358 56.49991 L 351.499992 64.500456 L 357.499626 80.999707 L 345.500358 93.000008 L 329.500301 109.000065 L 323.499634 114.999699 L 339.000496 96.999764 L 357.000431 96.499536 L 372.50026 96.499536 L 388.999512 92.49978 L 397.000057 90.499902 L 413.000114 94.499658 L 429.500399 103.999854 L 429.500399 127.500228 L 445.500456 132.999634 L 449.500212 123.000244 L 459.499601 132.999634 L 475.499658 130.499528 " transform="matrix(3.779528,0,0,3.779528,0,0)"/>
<path style="fill:none;stroke-width:2;stroke-linecap:butt;stroke-linejoin:miter;stroke:rgb(0%,0%,0%);stroke-opacity:1;stroke-miterlimit:4;" d="M 441.499666 141.500407 L 425.499609 133.499862 " transform="matrix(3.779528,0,0,3.779528,0,0)"/>
<path style="fill:none;stroke-width:2;stroke-linecap:butt;stroke-linejoin:miter;stroke:rgb(0%,0%,0%);stroke-opacity:1;stroke-miterlimit:4;" d="M 414.499764 150.500374 L 402.500496 166.500431 " transform="matrix(3.779528,0,0,3.779528,0,0)"/>
<path style="fill:none;stroke-width:2;stroke-linecap:butt;stroke-linejoin:miter;stroke:rgb(0%,0%,0%);stroke-opacity:1;stroke-miterlimit:4;" d="M 395.999601 168.000081 L 411.500464 168.000081 L 413.500342 184.000138 L 413.000114 200.000195 L 414.499764 215.500024 L 413.999536 231.500081 L 416.000448 247.500138 L 416.000448 263.500195 L 417.500098 279.500252 L 414.999992 303.499821 L 416.99987 319.499878 L 416.99987 335.499935 L 417.500098 351.499992 L 417.500098 367.500049 " transform="matrix(3.779528,0,0,3.779528,0,0)"/>
<path style="fill:none;stroke-width:2;stroke-linecap:butt;stroke-linejoin:miter;stroke:rgb(0%,0%,0%);stroke-opacity:1;stroke-miterlimit:4;" d="M 422.000081 357.000431 L 422.000081 341.000374 L 421.499854 324.50009 L 421.499854 308.500033 L 407.00048 295.999504 L 391.000423 293.999626 " transform="matrix(3.779528,0,0,3.779528,0,0)"/>
<path style="fill:none;stroke-width:2;stroke-linecap:butt;stroke-linejoin:miter;stroke:rgb(0%,0%,0%);stroke-opacity:1;stroke-miterlimit:4;" d="M 391.999845 294.499854 L 391.999845 311.000138 L 391.499618 327.000195 L 391.499618 358.500081 " transform="matrix(3.779528,0,0,3.779528,0,0)"/>
<path style="fill:none;stroke-width:2;stroke-linecap:butt;stroke-linejoin:miter;stroke:rgb(0%,0%,0%);stroke-opacity:1;stroke-miterlimit:4;" d="M 386.000212 311.500366 L 386.500439 295.000081 L 391.000423 279.000024 L 391.000423 243.999577 L 388.999512 227.99952 L 386.999634 211.500269 L 384.499528 193.500334 L 384.499528 177.500277 L 382.000456 160.999992 L 372.000033 145.500163 L 359.999731 143.500285 L 357.999854 127.500228 L 350.000342 112.000399 L 364.499715 107.999609 L 356.500203 107.999609 " transform="matrix(3.779528,0,0,3.779528,0,0)"/>
<path style="fill:none;stroke-width:2;stroke-linecap:butt;stroke-linejoin:miter;stroke:rgb(0%,0%,0%);stroke-opacity:1;stroke-miterlimit:4;" d="M 350.000342 108.499837 L 366.499593 109.000065 L 382.49965 113.500049 L 382.49965 135.999967 " transform="matrix(3.779528,0,0,3.779528,0,0)"/>
<path style="fill:none;stroke-width:2;stroke-linecap:butt;stroke-linejoin:miter;stroke:rgb(0%,0%,0%);stroke-opacity:1;stroke-miterlimit:4;" d="M 394.499951 141.000179 L 410.500008 126.499772 L 408.50013 142.499829 L 404.000146 155.99978 L 425.499609 164.000326 " transform="matrix(3.779528,0,0,3.779528,0,0)"/>
<path style="fill:none;stroke-width:2;stroke-linecap:butt;stroke-linejoin:miter;stroke:rgb(0%,0%,0%);stroke-opacity:1;stroke-miterlimit:4;" d="M 414.499764 164.49952 L 416.000448 171.999837 L 418.000326 189.999772 L 418.000326 221.499658 L 420.000203 241.500505 L 421.499854 259.000212 L 421.499854 275.000269 " transform="matrix(3.779528,0,0,3.779528,0,0)"/>
<path style="fill:none;stroke-width:2;stroke-linecap:butt;stroke-linejoin:miter;stroke:rgb(0%,0%,0%);stroke-opacity:1;stroke-miterlimit:4;" d="M 441.000472 293.500431 L 457.499723 291.49952 L 473.49978 313.500244 " transform="matrix(3.779528,0,0,3.779528,0,0)"/>
<path style="fill:none;stroke-width:2;stroke-linecap:butt;stroke-linejoin:miter;stroke:rgb(0%,0%,0%);stroke-opacity:1;stroke-miterlimit:4;" d="M 474.000008 327.999618 L 470.000252 314.499666 L 454.000195 309.00026 L 437.49991 305.000505 " transform="matrix(3.779528,0,0,3.779528,0,0)"/>
<path style="fill:none;stroke-width:2;stroke-linecap:butt;stroke-linejoin:miter;stroke:rgb(0%,0%,0%);stroke-opacity:1;stroke-miterlimit:4;" d="M 434.000382 322.500212 L 429.999593 338.500269 " transform="matrix(3.779528,0,0,3.779528,0,0)"/>
<path style="fill:none;stroke-width:2;stroke-linecap:butt;stroke-linejoin:miter;stroke:rgb(0%,0%,0%);stroke-opacity:1;stroke-miterlimit:4;" d="M 436.500488 377.999666 L 420.500431 378.499894 L 404.500374 376.500016 L 388.00009 378.499894 L 372.000033 378.499894 L 355.499748 384.499528 L 339.499691 382.000456 L 323.499634 382.000456 " transform="matrix(3.779528,0,0,3.779528,0,0)"/>
<path style="fill:none;stroke-width:2;stroke-linecap:butt;stroke-linejoin:miter;stroke:rgb(0%,0%,0%);stroke-opacity:1;stroke-miterlimit:4;" d="M 320.500334 381.500228 L 336.500391 377.500472 L 352.999642 377.500472 " transform="matrix(3.779528,0,0,3.779528,0,0)"/>
<path style="fill:none;stroke-width:2;stroke-linecap:butt;stroke-linejoin:miter;stroke:rgb(0%,0%,0%);stroke-opacity:1;stroke-miterlimit:4;" d="M 321.999984 304.500277 L 305.999927 304.500277 L 289.99987 302.500399 L 286.000114 305.999927 " transform="matrix(3.779528,0,0,3.779528,0,0)"/>
<path style="fill:none;stroke-width:2;stroke-linecap:butt;stroke-linejoin:miter;stroke:rgb(0%,0%,0%);stroke-opacity:1;stroke-miterlimit:4;" d="M 278.499797 289.499642 L 294.499854 297.500187 L 310.49991 299.500065 " transform="matrix(3.779528,0,0,3.779528,0,0)"/>
<path style="fill:none;stroke-width:2;stroke-linecap:butt;stroke-linejoin:miter;stroke:rgb(0%,0%,0%);stroke-opacity:1;stroke-miterlimit:4;" d="M 331.500179 277.999569 L 331.500179 284.000236 L 339.499691 261.999512 L 343.000252 246.000488 L 347.500236 229.500203 L 341.000374 217.499902 L 334.500513 221.499658 L 327.999618 205.499601 L 338.500269 199.499967 L 330.499723 182.999683 L 316.999772 166.999626 L 317.5 150.999569 L 321.999984 134.999512 L 327.999618 119.000488 L 339.999919 102.500203 L 352.500448 98.999642 L 336.500391 117.499805 L 320.500334 157.000236 " transform="matrix(3.779528,0,0,3.779528,0,0)"/>
<path style="fill:none;stroke-width:2;stroke-linecap:butt;stroke-linejoin:miter;stroke:rgb(0%,0%,0%);stroke-opacity:1;stroke-miterlimit:4;" d="M 321.999984 160.999992 L 338.000041 178.999927 L 353.49987 200.500423 " transform="matrix(3.779528,0,0,3.779528,0,0)"/>
<path style="fill:none;stroke-width:2;stroke-linecap:butt;stroke-linejoin:miter;stroke:rgb(0%,0%,0%);stroke-opacity:1;stroke-miterlimit:4;" d="M 372.000033 191.99965 L 355.999976 177.500277 L 339.999919 161.50022 " transform="matrix(3.779528,0,0,3.779528,0,0)"/>
<path style="fill:none;stroke-width:2;stroke-linecap:butt;stroke-linejoin:miter;stroke:rgb(0%,0%,0%);stroke-opacity:1;stroke-miterlimit:4;" d="M 345.00013 153.999902 L 347.000008 152.000024 L 352.999642 168.000081 " transform="matrix(3.779528,0,0,3.779528,0,0)"/>
<path style="fill:none;stroke-width:2;stroke-linecap:butt;stroke-linejoin:miter;stroke:rgb(0%,0%,0%);stroke-opacity:1;stroke-miterlimit:4;" d="M 372.000033 168.999504 L 359.999731 175.000171 L 370.000155 143.500285 L 362.499837 127 L 364.499715 119.000488 " transform="matrix(3.779528,0,0,3.779528,0,0)"/>
<path style="fill:none;stroke-width:2;stroke-linecap:butt;stroke-linejoin:miter;stroke:rgb(0%,0%,0%);stroke-opacity:1;stroke-miterlimit:4;" d="M 358.500081 119.499683 L 373.000488 133.499862 " transform="matrix(3.779528,0,0,3.779528,0,0)"/>
<path style="fill:none;stroke-width:2;stroke-linecap:butt;stroke-linejoin:miter;stroke:rgb(0%,0%,0%);stroke-opacity:1;stroke-miterlimit:4;" d="M 371.499805 124.499894 L 367.500049 126.499772 L 373.000488 142.499829 L 368.999699 150.500374 L 382.49965 153.999902 " transform="matrix(3.779528,0,0,3.779528,0,0)"/>
<path style="fill:none;stroke-width:2;stroke-linecap:butt;stroke-linejoin:miter;stroke:rgb(0%,0%,0%);stroke-opacity:1;stroke-miterlimit:4;" d="M 409.499552 160.499764 L 425.499609 169.999959 L 441.499666 169.999959 L 457.499723 162.499642 " transform="matrix(3.779528,0,0,3.779528,0,0)"/>
<path style="fill:none;stroke-width:2;stroke-linecap:butt;stroke-linejoin:miter;stroke:rgb(0%,0%,0%);stroke-opacity:1;stroke-miterlimit:4;" d="M 456.999495 114.500505 L 441.000472 114.500505 L 422.999504 106.499959 L 407.499674 96.499536 " transform="matrix(3.779528,0,0,3.779528,0,0)"/>
<path style="fill:none;stroke-width:2;stroke-linecap:butt;stroke-linejoin:miter;stroke:rgb(0%,0%,0%);stroke-opacity:1;stroke-miterlimit:4;" d="M 409.499552 98.500448 L 429.500399 118.50026 L 437.49991 124.499894 " transform="matrix(3.779528,0,0,3.779528,0,0)"/>
<path style="fill:none;stroke-width:2;stroke-linecap:butt;stroke-linejoin:miter;stroke:rgb(0%,0%,0%);stroke-opacity:1;stroke-miterlimit:4;" d="M 462.499935 111.500171 L 447.000106 101.499748 L 437.49991 107.000187 L 411.500464 102.500203 L 395.999601 110.999943 L 379.999544 121.000366 " transform="matrix(3.779528,0,0,3.779528,0,0)"/>
<path style="fill:none;stroke-width:2;stroke-linecap:butt;stroke-linejoin:miter;stroke:rgb(0%,0%,0%);stroke-opacity:1;stroke-miterlimit:4;" d="M 391.999845 123.000244 L 403.499919 113.500049 L 405.499797 129.500106 L 397.500285 145.500163 L 391.999845 159.999536 L 389.999967 166.000203 L 406.000024 162.000448 L 407.499674 138.500073 L 423.499731 160.999992 L 439.499788 164.999748 L 461.999707 153.499674 L 443.999772 168.999504 " transform="matrix(3.779528,0,0,3.779528,0,0)"/>
<path style="fill:none;stroke-width:2;stroke-linecap:butt;stroke-linejoin:miter;stroke:rgb(0%,0%,0%);stroke-opacity:1;stroke-miterlimit:4;" d="M 475.999886 137.999845 L 460.500057 148.000269 L 441.999894 146.499585 L 454.500423 140.499951 L 432.499699 142.499829 L 426.500065 125.999544 L 418.000326 109.500293 L 402.000269 93.500236 L 391.999845 77.500179 L 400.000391 61.500122 L 384.000334 81.499935 L 368.000277 78.999829 L 352.500448 60.999894 " transform="matrix(3.779528,0,0,3.779528,0,0)"/>
<path style="fill:none;stroke-width:2;stroke-linecap:butt;stroke-linejoin:miter;stroke:rgb(0%,0%,0%);stroke-opacity:1;stroke-miterlimit:4;" d="M 353.49987 64.99965 L 367.500049 80.999707 L 359.499504 100.99952 L 349.500114 101.499748 L 336.000163 118.000033 L 327.999618 134.500317 L 323.999862 150.500374 L 321.999984 166.500431 L 338.000041 182.500488 L 352.500448 198.499512 L 348.999886 206.500057 L 330.999951 198.499512 L 334.500513 204.500179 L 338.500269 224.499992 L 350.499536 218.500358 L 366.499593 214.499569 L 378.499894 203.999951 " transform="matrix(3.779528,0,0,3.779528,0,0)"/>
<path style="fill:none;stroke-width:2;stroke-linecap:butt;stroke-linejoin:miter;stroke:rgb(0%,0%,0%);stroke-opacity:1;stroke-miterlimit:4;" d="M 379.000122 212.000496 L 381 227.500326 L 377.500472 233.499959 L 377.999666 249.500016 L 378.499894 265.500073 L 372.50026 266.000301 L 373.000488 282.000358 L 370.999577 300.000293 L 368.500505 318.000228 L 366.499593 334.000285 L 374.500138 356.500203 " transform="matrix(3.779528,0,0,3.779528,0,0)"/>
<path style="fill:none;stroke-width:2;stroke-linecap:butt;stroke-linejoin:miter;stroke:rgb(0%,0%,0%);stroke-opacity:1;stroke-miterlimit:4;" d="M 372.50026 275.999691 L 380.499772 271.999935 " transform="matrix(3.779528,0,0,3.779528,0,0)"/>
<path style="fill:none;stroke-width:2;stroke-linecap:butt;stroke-linejoin:miter;stroke:rgb(0%,0%,0%);stroke-opacity:1;stroke-miterlimit:4;" d="M 361.500415 239.499593 L 345.00013 245.50026 " transform="matrix(3.779528,0,0,3.779528,0,0)"/>
<path style="fill:none;stroke-width:2;stroke-linecap:butt;stroke-linejoin:miter;stroke:rgb(0%,0%,0%);stroke-opacity:1;stroke-miterlimit:4;" d="M 373.499683 215.500024 L 373.499683 231.500081 L 372.000033 247.500138 L 368.000277 266.000301 L 367.500049 282.000358 L 369.499927 291.999748 L 391.999845 289.99987 L 407.999902 289.499642 " transform="matrix(3.779528,0,0,3.779528,0,0)"/>
<path style="fill:none;stroke-width:2;stroke-linecap:butt;stroke-linejoin:miter;stroke:rgb(0%,0%,0%);stroke-opacity:1;stroke-miterlimit:4;" d="M 447.500334 289.499642 L 443.499544 305.499699 L 450.000439 283.500008 L 466.000496 291.49952 " transform="matrix(3.779528,0,0,3.779528,0,0)"/>
<path style="fill:none;stroke-width:2;stroke-linecap:butt;stroke-linejoin:miter;stroke:rgb(0%,0%,0%);stroke-opacity:1;stroke-miterlimit:4;" d="M 454.500423 284.500464 L 472.999552 300.499487 L 466.999919 318.99965 L 465.000041 335.499935 L 468.999797 343.50048 L 484.999854 341.499569 " transform="matrix(3.779528,0,0,3.779528,0,0)"/>
<path style="fill:none;stroke-width:2;stroke-linecap:butt;stroke-linejoin:miter;stroke:rgb(0%,0%,0%);stroke-opacity:1;stroke-miterlimit:4;" d="M 485.500081 336.000163 L 470.999674 342.500024 L 470.999674 326.499967 L 468.999797 308.500033 L 452.499512 292.499976 " transform="matrix(3.779528,0,0,3.779528,0,0)"/>
<path style="fill:none;stroke-width:2;stroke-linecap:butt;stroke-linejoin:miter;stroke:rgb(0%,0%,0%);stroke-opacity:1;stroke-miterlimit:4;" d="M 450.000439 283.500008 L 436.500488 299.500065 L 454.500423 307.499577 L 436.500488 323.999862 L 434.499577 327.999618 L 436.500488 323.999862 L 438.500366 339.999919 " transform="matrix(3.779528,0,0,3.779528,0,0)"/>
<path style="fill:none;stroke-width:2;stroke-linecap:butt;stroke-linejoin:miter;stroke:rgb(0%,0%,0%);stroke-opacity:1;stroke-miterlimit:4;" d="M 328.499845 284.500464 L 324.50009 268.000179 L 320.500334 252.000122 L 314.499666 254 L 282.000358 254 " transform="matrix(3.779528,0,0,3.779528,0,0)"/>
<path style="fill:none;stroke-width:2;stroke-linecap:butt;stroke-linejoin:miter;stroke:rgb(0%,0%,0%);stroke-opacity:1;stroke-miterlimit:4;" d="M 261.999512 256.500106 L 282.000358 258.499984 L 275.999691 257.999756 L 271.999935 271.999935 " transform="matrix(3.779528,0,0,3.779528,0,0)"/>
<path style="fill:none;stroke-width:2;stroke-linecap:butt;stroke-linejoin:miter;stroke:rgb(0%,0%,0%);stroke-opacity:1;stroke-miterlimit:4;" d="M 260.499862 275.000269 L 260.499862 291.49952 L 252.000122 307.499577 L 259.999634 323.499634 " transform="matrix(3.779528,0,0,3.779528,0,0)"/>
<path style="fill:none;stroke-width:2;stroke-linecap:butt;stroke-linejoin:miter;stroke:rgb(0%,0%,0%);stroke-opacity:1;stroke-miterlimit:4;" d="M 289.000448 339.499691 L 288.50022 345.500358 L 284.999658 355.499748 L 284.999658 350.999764 L 289.000448 341.000374 L 279.500252 341.000374 L 279.500252 329.000073 L 282.99978 313.500244 L 277.000146 297.500187 L 284.500464 281.50013 L 270.500285 279.500252 L 272.500163 264.000423 L 284.000236 248.000366 L 282.000358 242.499927 L 282.000358 227.000098 L 277.500374 218.999552 L 268.000179 191.000228 L 270.500285 174.499943 L 276.499919 157.999658 L 282.000358 141.500407 L 286.000114 125.50035 L 288.50022 109.000065 L 284.999658 93.500236 L 286.999536 77.500179 L 288.50022 63.5 L 272.500163 65.499878 " transform="matrix(3.779528,0,0,3.779528,0,0)"/>
<path style="fill:none;stroke-width:2;stroke-linecap:butt;stroke-linejoin:miter;stroke:rgb(0%,0%,0%);stroke-opacity:1;stroke-miterlimit:4;" d="M 269.499829 62.999772 L 293.500431 52.500155 L 275.500496 58.499788 L 273.499585 46.499487 L 267.499951 62.499544 L 268.999601 78.499601 L 255.000456 94.499658 L 270.500285 116.999577 L 270.500285 133.499862 L 270.000057 149.499919 L 281.50013 155.499552 L 277.500374 171.499609 L 273.499585 187.000472 L 268.000179 212.999919 L 282.499552 210.499813 L 271.000513 227.99952 L 254.500228 235.499837 L 250.000244 261.500317 L 263.500195 249.500016 L 279.500252 249.500016 L 295.000081 246.99991 L 301.499943 245.50026 L 318.000228 249.500016 L 327.999618 257.499528 L 328.499845 273.499585 L 326.499967 289.499642 L 329.000073 297.500187 L 332.499601 303.499821 " transform="matrix(3.779528,0,0,3.779528,0,0)"/>
<path style="fill:none;stroke-width:2;stroke-linecap:butt;stroke-linejoin:miter;stroke:rgb(0%,0%,0%);stroke-opacity:1;stroke-miterlimit:4;" d="M 280.00048 320.000106 L 265.500073 320.000106 L 259.000212 316.00035 L 246.499683 297.500187 L 243.999577 287.499764 L 255.999878 285.499886 L 253.499772 269.499829 L 263.500195 253.499772 L 275.500496 231.500081 L 257.499528 229.500203 " transform="matrix(3.779528,0,0,3.779528,0,0)"/>
<path style="fill:none;stroke-width:2;stroke-linecap:butt;stroke-linejoin:miter;stroke:rgb(0%,0%,0%);stroke-opacity:1;stroke-miterlimit:4;" d="M 266.499495 207.500513 L 282.499552 207.500513 " transform="matrix(3.779528,0,0,3.779528,0,0)"/>
<path style="fill:none;stroke-width:2;stroke-linecap:butt;stroke-linejoin:miter;stroke:rgb(0%,0%,0%);stroke-opacity:1;stroke-miterlimit:4;" d="M 271.999935 224.499992 L 255.999878 226.49987 L 239.999821 241.999699 L 223.999764 249.500016 " transform="matrix(3.779528,0,0,3.779528,0,0)"/>
<path style="fill:none;stroke-width:2;stroke-linecap:butt;stroke-linejoin:miter;stroke:rgb(0%,0%,0%);stroke-opacity:1;stroke-miterlimit:4;" d="M 227.500326 237.499715 L 229.500203 233.499959 L 221.499658 247.500138 L 225.500448 251.499894 L 223.999764 267.499951 L 236.000065 281.50013 L 239.999821 297.500187 L 253.499772 302.999593 L 268.999601 279.000024 L 277.500374 284.999658 L 286.000114 268.999601 " transform="matrix(3.779528,0,0,3.779528,0,0)"/>
<path style="fill:none;stroke-width:2;stroke-linecap:butt;stroke-linejoin:miter;stroke:rgb(0%,0%,0%);stroke-opacity:1;stroke-miterlimit:4;" d="M 242.499927 271.499707 L 242.499927 275.999691 L 234.000187 286.000114 L 249.500016 304.000049 " transform="matrix(3.779528,0,0,3.779528,0,0)"/>
<path style="fill:none;stroke-width:2;stroke-linecap:butt;stroke-linejoin:miter;stroke:rgb(0%,0%,0%);stroke-opacity:1;stroke-miterlimit:4;" d="M 258.499984 234.999609 L 255.999878 245.50026 L 239.499593 250.999666 L 228.999976 255.000456 L 225.00022 271.000513 L 202.500301 262.49974 L 186.000016 250.999666 " transform="matrix(3.779528,0,0,3.779528,0,0)"/>
<path style="fill:none;stroke-width:2;stroke-linecap:butt;stroke-linejoin:miter;stroke:rgb(0%,0%,0%);stroke-opacity:1;stroke-miterlimit:4;" d="M 178.000505 248.499561 L 193.999528 261.00009 " transform="matrix(3.779528,0,0,3.779528,0,0)"/>
<path style="fill:none;stroke-width:2;stroke-linecap:butt;stroke-linejoin:miter;stroke:rgb(0%,0%,0%);stroke-opacity:1;stroke-miterlimit:4;" d="M 171.999837 284.500464 L 187.999894 280.499674 L 175.999593 278.499797 L 171.999837 293.999626 L 171.499609 309.500488 L 183.49991 325.499512 L 199.499967 313.000016 L 203.499723 327.000195 L 205.999829 343.000252 L 209.999585 359.000309 L 212.000496 375.000366 L 205.999829 397.000057 L 207.500513 414.499764 " transform="matrix(3.779528,0,0,3.779528,0,0)"/>
<path style="fill:none;stroke-width:2;stroke-linecap:butt;stroke-linejoin:miter;stroke:rgb(0%,0%,0%);stroke-opacity:1;stroke-miterlimit:4;" d="M 196.000439 400.999813 L 204.500179 386.999634 L 187.999894 379.000122 L 171.999837 381 " transform="matrix(3.779528,0,0,3.779528,0,0)"/>
<path style="fill:none;stroke-width:2;stroke-linecap:butt;stroke-linejoin:miter;stroke:rgb(0%,0%,0%);stroke-opacity:1;stroke-miterlimit:4;" d="M 166.999626 395.500407 L 183.49991 400.000391 L 187.999894 385.499984 L 187.999894 395.000179 " transform="matrix(3.779528,0,0,3.779528,0,0)"/>
<path style="fill:none;stroke-width:2;stroke-linecap:butt;stroke-linejoin:miter;stroke:rgb(0%,0%,0%);stroke-opacity:1;stroke-miterlimit:4;" d="M 191.99965 398.999935 L 180.499577 382.999878 L 166.500431 375.000366 L 166.500431 359.000309 L 164.49952 343.50048 L 164.49952 311.500366 L 168.500309 309.500488 L 166.500431 293.000203 L 170.500187 277.000146 L 182.500488 261.00009 L 182.500488 245.50026 L 180.499577 229.500203 L 186.000016 212.999919 L 169.999959 207.000285 L 153.999902 211.500269 L 137.999845 213.500146 " transform="matrix(3.779528,0,0,3.779528,0,0)"/>
<path style="fill:none;stroke-width:2;stroke-linecap:butt;stroke-linejoin:miter;stroke:rgb(0%,0%,0%);stroke-opacity:1;stroke-miterlimit:4;" d="M 136.500195 219.49978 L 146.499585 235.499837 L 153.499674 251.499894 L 132.000212 265.500073 L 123.999666 281.50013 L 123.999666 314.000472 L 118.50026 329.500301 L 112.499593 345.500358 L 105.999731 361.000187 L 96.000342 370.999577 " transform="matrix(3.779528,0,0,3.779528,0,0)"/>
<path style="fill:none;stroke-width:2;stroke-linecap:butt;stroke-linejoin:miter;stroke:rgb(0%,0%,0%);stroke-opacity:1;stroke-miterlimit:4;" d="M 91.999552 361.500415 L 107.999609 355.499748 L 123.999666 325.499512 L 118.000033 341.499569 L 114.000277 357.999854 " transform="matrix(3.779528,0,0,3.779528,0,0)"/>
<path style="fill:none;stroke-width:2;stroke-linecap:butt;stroke-linejoin:miter;stroke:rgb(0%,0%,0%);stroke-opacity:1;stroke-miterlimit:4;" d="M 141.500407 336.500391 L 155.499552 330.499723 L 157.500464 314.499666 L 151.499797 298.499609 L 161.50022 296.999959 L 159.500342 280.999902 L 168.999504 264.999845 L 160.999992 255.000456 L 168.999504 239.000399 L 180.999805 223.000342 L 182.999683 207.000285 L 170.500187 191.500456 L 168.500309 189.00035 L 152.500252 187.000472 L 136.500195 205.000407 " transform="matrix(3.779528,0,0,3.779528,0,0)"/>
<path style="fill:none;stroke-width:2;stroke-linecap:butt;stroke-linejoin:miter;stroke:rgb(0%,0%,0%);stroke-opacity:1;stroke-miterlimit:4;" d="M 134.999512 221.000464 L 159.000114 252.999544 L 173.000293 250.999666 L 188.500122 242.499927 L 203.999951 254 " transform="matrix(3.779528,0,0,3.779528,0,0)"/>
<path style="fill:none;stroke-width:2;stroke-linecap:butt;stroke-linejoin:miter;stroke:rgb(0%,0%,0%);stroke-opacity:1;stroke-miterlimit:4;" d="M 157.999658 278.499797 L 173.999715 270.000057 L 196.000439 263.500195 L 207.999707 279.500252 L 213.500146 295.500309 L 215.500024 311.500366 L 219.49978 327.000195 L 221.999886 343.000252 L 226.49987 359.499504 L 214.499569 375.499561 " transform="matrix(3.779528,0,0,3.779528,0,0)"/>
<path style="fill:none;stroke-width:2;stroke-linecap:butt;stroke-linejoin:miter;stroke:rgb(0%,0%,0%);stroke-opacity:1;stroke-miterlimit:4;" d="M 216.50048 382.49965 L 228.999976 376.500016 L 227.000098 348.499658 L 225.500448 332.499601 L 223.999764 316.499544 L 220.500236 298.499609 L 218.500358 277.999569 L 205.000407 261.500317 L 200.999618 251.499894 L 177.000049 247.500138 L 164.999748 259.500439 L 148.999691 261.999512 " transform="matrix(3.779528,0,0,3.779528,0,0)"/>
<path style="fill:none;stroke-width:2;stroke-linecap:butt;stroke-linejoin:miter;stroke:rgb(0%,0%,0%);stroke-opacity:1;stroke-miterlimit:4;" d="M 121.999788 282.499552 L 137.999845 258.499984 L 136.500195 270.500285 L 132.500439 286.999536 L 146.499585 302.999593 L 148.500496 318.99965 L 136.500195 323.000439 L 132.500439 337.499813 L 148.500496 337.499813 " transform="matrix(3.779528,0,0,3.779528,0,0)"/>
<path style="fill:none;stroke-width:2;stroke-linecap:butt;stroke-linejoin:miter;stroke:rgb(0%,0%,0%);stroke-opacity:1;stroke-miterlimit:4;" d="M 168.999504 314.499666 L 171.000415 330.499723 L 170.500187 346.49978 L 170.500187 378.499894 L 172.500065 390.500195 L 168.500309 406.000024 L 168.000081 422.000081 L 166.000203 438.000138 L 166.000203 454.000195 L 166.500431 470.000252 L 180.499577 481.99952 L 196.499634 481.500326 " transform="matrix(3.779528,0,0,3.779528,0,0)"/>
<path style="fill:none;stroke-width:2;stroke-linecap:butt;stroke-linejoin:miter;stroke:rgb(0%,0%,0%);stroke-opacity:1;stroke-miterlimit:4;" d="M 216.50048 488.000187 L 206.500057 474.000008 L 206.500057 441.999894 L 204.500179 425.999837 L 202.000073 409.99978 L 200.000195 393.499495 L 207.999707 379.50035 L 203.999951 363.500293 L 202.000073 348.000464 L 200.000195 332.000407 L 196.499634 316.00035 L 178.499699 311.999561 L 188.500122 295.999504 L 186.500244 280.00048 L 182.500488 282.000358 L 182.500488 285.499886 L 178.499699 303.499821 " transform="matrix(3.779528,0,0,3.779528,0,0)"/>
<path style="fill:none;stroke-width:2;stroke-linecap:butt;stroke-linejoin:miter;stroke:rgb(0%,0%,0%);stroke-opacity:1;stroke-miterlimit:4;" d="M 150.999569 306.500155 L 134.999512 306.500155 " transform="matrix(3.779528,0,0,3.779528,0,0)"/>
<path style="fill:none;stroke-width:2;stroke-linecap:butt;stroke-linejoin:miter;stroke:rgb(0%,0%,0%);stroke-opacity:1;stroke-miterlimit:4;" d="M 133.499862 302.500399 L 150.999569 296.499731 " transform="matrix(3.779528,0,0,3.779528,0,0)"/>
<path style="fill:none;stroke-width:2;stroke-linecap:butt;stroke-linejoin:miter;stroke:rgb(0%,0%,0%);stroke-opacity:1;stroke-miterlimit:4;" d="M 111.500171 279.000024 L 127.500228 261.00009 L 143.500285 252.000122 L 149.499919 260.499862 L 141.500407 276.499919 L 145.500163 293.000203 L 134.00009 314.499666 L 128.000456 330.499723 L 132.000212 345.999552 L 129.500106 361.999609 L 128.000456 377.999666 L 128.000456 393.999723 L 130.499528 409.499552 L 130.499528 425.999837 L 130.999756 441.999894 L 130.999756 457.999951 L 125.000122 474.500236 L 134.500317 488.500415 L 150.000146 488.000187 L 198.499512 488.000187 L 214.499569 484.000431 " transform="matrix(3.779528,0,0,3.779528,0,0)"/>
<path style="fill:none;stroke-width:2;stroke-linecap:butt;stroke-linejoin:miter;stroke:rgb(0%,0%,0%);stroke-opacity:1;stroke-miterlimit:4;" d="M 214.499569 495.500505 L 198.499512 497.500382 L 182.500488 499.50026 L 166.000203 499.50026 L 149.499919 500.000488 L 133.499862 497.999577 L 117.499805 495.999699 " transform="matrix(3.779528,0,0,3.779528,0,0)"/>
<path style="fill:none;stroke-width:2;stroke-linecap:butt;stroke-linejoin:miter;stroke:rgb(0%,0%,0%);stroke-opacity:1;stroke-miterlimit:4;" d="M 101.499748 493.999821 L 117.499805 491.999943 L 134.00009 493.999821 L 150.000146 493.999821 L 166.000203 494.500049 L 198.000317 494.500049 " transform="matrix(3.779528,0,0,3.779528,0,0)"/>
<path style="fill:none;stroke-width:2;stroke-linecap:butt;stroke-linejoin:miter;stroke:rgb(0%,0%,0%);stroke-opacity:1;stroke-miterlimit:4;" d="M 159.000114 481.99952 L 143.500285 481.99952 L 127.500228 481.500326 L 130.000334 463.500391 L 118.000033 484.999854 L 101.999976 488.999609 " transform="matrix(3.779528,0,0,3.779528,0,0)"/>
<path style="fill:none;stroke-width:2;stroke-linecap:butt;stroke-linejoin:miter;stroke:rgb(0%,0%,0%);stroke-opacity:1;stroke-miterlimit:4;" d="M 76.499723 470.999674 L 78.499601 454.999618 L 78.499601 438.999561 L 80.500513 422.500309 L 80.500513 391.000423 L 78.499601 374.500138 L 94.999886 350.999764 L 99.49987 334.999707 L 103.499626 318.99965 L 107.500415 302.500399 L 111.500171 286.500342 L 121.499561 270.500285 L 137.000423 254.500228 L 120.500138 252.50035 L 104.500081 270.500285 L 98.500448 277.000146 L 112.000399 260.499862 L 129.500106 244.499805 L 134.999512 248.000366 L 119.000488 261.500317 L 103.000431 283.500008 " transform="matrix(3.779528,0,0,3.779528,0,0)"/>
<path style="fill:none;stroke-width:2;stroke-linecap:butt;stroke-linejoin:miter;stroke:rgb(0%,0%,0%);stroke-opacity:1;stroke-miterlimit:4;" d="M 95.500114 251.499894 L 79.500057 248.999788 L 63.5 257.000334 L 47.499943 257.000334 " transform="matrix(3.779528,0,0,3.779528,0,0)"/>
<path style="fill:none;stroke-width:2;stroke-linecap:butt;stroke-linejoin:miter;stroke:rgb(0%,0%,0%);stroke-opacity:1;stroke-miterlimit:4;" d="M 50.000049 234.500415 L 66.000106 234.000187 " transform="matrix(3.779528,0,0,3.779528,0,0)"/>
<path style="fill:none;stroke-width:2;stroke-linecap:butt;stroke-linejoin:miter;stroke:rgb(0%,0%,0%);stroke-opacity:1;stroke-miterlimit:4;" d="M 49.499821 232.999731 L 37.49952 248.999788 L 33.499764 263.500195 L 33.499764 273.499585 L 41.500309 273.999813 L 47.499943 250.000244 L 63.5 252.000122 " transform="matrix(3.779528,0,0,3.779528,0,0)"/>
<path style="fill:none;stroke-width:2;stroke-linecap:butt;stroke-linejoin:miter;stroke:rgb(0%,0%,0%);stroke-opacity:1;stroke-miterlimit:4;" d="M 89.000252 258.499984 L 78.999829 244.499805 L 75.500301 243.999577 L 77.500179 229.500203 L 61.500122 227.500326 L 45.500065 229.500203 " transform="matrix(3.779528,0,0,3.779528,0,0)"/>
<path style="fill:none;stroke-width:2;stroke-linecap:butt;stroke-linejoin:miter;stroke:rgb(0%,0%,0%);stroke-opacity:1;stroke-miterlimit:4;" d="M 28.99978 289.99987 L 44.999837 289.99987 L 44.999837 295.500309 " transform="matrix(3.779528,0,0,3.779528,0,0)"/>
<path style="fill:none;stroke-width:2;stroke-linecap:butt;stroke-linejoin:miter;stroke:rgb(0%,0%,0%);stroke-opacity:1;stroke-miterlimit:4;" d="M 50.500277 299.500065 L 48.999593 284.000236 L 33.499764 284.000236 L 33.499764 300.000293 L 27.50013 293.999626 " transform="matrix(3.779528,0,0,3.779528,0,0)"/>
<path style="fill:none;stroke-width:2;stroke-linecap:butt;stroke-linejoin:miter;stroke:rgb(0%,0%,0%);stroke-opacity:1;stroke-miterlimit:4;" d="M 66.999528 322.500212 L 53.000382 338.500269 L 48.999593 354.500326 L 32.999536 370.000155 L 26.999902 386.000212 L 35.000448 367.500049 L 46.999715 345.999552 L 62.999772 325.99974 L 71.000317 326.499967 " transform="matrix(3.779528,0,0,3.779528,0,0)"/>
<path style="fill:none;stroke-width:2;stroke-linecap:butt;stroke-linejoin:miter;stroke:rgb(0%,0%,0%);stroke-opacity:1;stroke-miterlimit:4;" d="M 57.500366 338.000041 L 62.999772 332.000407 L 60.999894 347.500236 L 46.999715 363.500293 L 41.000081 379.50035 L 44.499609 381.500228 L 46.499487 403.499919 L 46.499487 435.500033 " transform="matrix(3.779528,0,0,3.779528,0,0)"/>
<path style="fill:none;stroke-width:2;stroke-linecap:butt;stroke-linejoin:miter;stroke:rgb(0%,0%,0%);stroke-opacity:1;stroke-miterlimit:4;" d="M 64.000228 431.000049 L 71.99974 398.999935 L 66.500334 395.500407 L 66.999528 379.50035 L 62.999772 363.500293 L 35.000448 373.499683 " transform="matrix(3.779528,0,0,3.779528,0,0)"/>
<path style="fill:none;stroke-width:2;stroke-linecap:butt;stroke-linejoin:miter;stroke:rgb(0%,0%,0%);stroke-opacity:1;stroke-miterlimit:4;" d="M 41.999504 373.499683 L 62.00035 369.499927 L 62.00035 384.999756 " transform="matrix(3.779528,0,0,3.779528,0,0)"/>
<path style="fill:none;stroke-width:2;stroke-linecap:butt;stroke-linejoin:miter;stroke:rgb(0%,0%,0%);stroke-opacity:1;stroke-miterlimit:4;" d="M 56.49991 388.00009 L 55.00026 371.499805 " transform="matrix(3.779528,0,0,3.779528,0,0)"/>
<path style="fill:none;stroke-width:2;stroke-linecap:butt;stroke-linejoin:miter;stroke:rgb(0%,0%,0%);stroke-opacity:1;stroke-miterlimit:4;" d="M 48.999593 373.499683 L 51.000505 389.49974 L 42.499731 406.000024 L 34.50022 411.999658 L 40.499854 427.999715 " transform="matrix(3.779528,0,0,3.779528,0,0)"/>
<path style="fill:none;stroke-width:2;stroke-linecap:butt;stroke-linejoin:miter;stroke:rgb(0%,0%,0%);stroke-opacity:1;stroke-miterlimit:4;" d="M 32.999536 407.999902 L 32.999536 421.499854 L 35.000448 436.999683 L 39.000203 468.999797 " transform="matrix(3.779528,0,0,3.779528,0,0)"/>
<path style="fill:none;stroke-width:2;stroke-linecap:butt;stroke-linejoin:miter;stroke:rgb(0%,0%,0%);stroke-opacity:1;stroke-miterlimit:4;" d="M 82.000163 470.999674 L 82.000163 455.499845 L 84.000041 439.499788 L 84.000041 407.00048 L 83.499813 390.500195 L 85.499691 374.500138 L 63.5 357.999854 L 47.499943 363.999487 " transform="matrix(3.779528,0,0,3.779528,0,0)"/>
<path style="fill:none;stroke-width:2;stroke-linecap:butt;stroke-linejoin:miter;stroke:rgb(0%,0%,0%);stroke-opacity:1;stroke-miterlimit:4;" d="M 41.000081 368.000277 L 32.999536 383.500106 L 30.999658 399.500163 L 28.99978 416.000448 L 28.99978 432.499699 L 32.999536 464.499813 " transform="matrix(3.779528,0,0,3.779528,0,0)"/>
<path style="fill:none;stroke-width:2;stroke-linecap:butt;stroke-linejoin:miter;stroke:rgb(0%,0%,0%);stroke-opacity:1;stroke-miterlimit:4;" d="M 76.999951 402.500496 L 75.000073 418.000326 L 69.000439 434.000382 L 75.000073 399.500163 " transform="matrix(3.779528,0,0,3.779528,0,0)"/>
<path style="fill:none;stroke-width:2;stroke-linecap:butt;stroke-linejoin:miter;stroke:rgb(0%,0%,0%);stroke-opacity:1;stroke-miterlimit:4;" d="M 83.499813 359.000309 L 71.499512 360.499959 L 55.500488 355.999976 " transform="matrix(3.779528,0,0,3.779528,0,0)"/>
<path style="fill:none;stroke-width:2;stroke-linecap:butt;stroke-linejoin:miter;stroke:rgb(0%,0%,0%);stroke-opacity:1;stroke-miterlimit:4;" d="M 189.999772 379.999544 L 187.999894 395.999601 L 173.499487 407.999902 L 173.000293 423.499731 L 172.500065 439.499788 L 174.499943 456.000073 L 173.999715 471.499902 " transform="matrix(3.779528,0,0,3.779528,0,0)"/>
<path style="fill:none;stroke-width:2;stroke-linecap:butt;stroke-linejoin:miter;stroke:rgb(0%,0%,0%);stroke-opacity:1;stroke-miterlimit:4;" d="M 171.000415 232.499504 L 154.50013 242.499927 L 138.500073 223.000342 " transform="matrix(3.779528,0,0,3.779528,0,0)"/>
<path style="fill:none;stroke-width:2;stroke-linecap:butt;stroke-linejoin:miter;stroke:rgb(0%,0%,0%);stroke-opacity:1;stroke-miterlimit:4;" d="M 151.499797 186.500244 L 137.499618 202.500301 L 137.499618 216.50048 L 139.499495 232.499504 L 135.49974 248.000366 L 118.000033 264.000423 L 105.499504 280.00048 L 101.499748 295.999504 L 89.50048 343.999674 L 89.50048 361.999609 L 89.000252 358.500081 " transform="matrix(3.779528,0,0,3.779528,0,0)"/>
<path style="fill:none;stroke-width:2;stroke-linecap:butt;stroke-linejoin:miter;stroke:rgb(0%,0%,0%);stroke-opacity:1;stroke-miterlimit:4;" d="M 236.500293 184.000138 L 236.500293 167.499854 L 241.999699 152.000024 L 221.999886 153.999902 " transform="matrix(3.779528,0,0,3.779528,0,0)"/>
<path style="fill:none;stroke-width:2;stroke-linecap:butt;stroke-linejoin:miter;stroke:rgb(0%,0%,0%);stroke-opacity:1;stroke-miterlimit:4;" d="M 242.499927 156.500008 L 242.499927 172.500065 L 240.500049 188.500122 " transform="matrix(3.779528,0,0,3.779528,0,0)"/>
<path style="fill:none;stroke-width:2;stroke-linecap:butt;stroke-linejoin:miter;stroke:rgb(0%,0%,0%);stroke-opacity:1;stroke-miterlimit:4;" d="M 200.500423 194.999984 L 196.499634 193.000106 L 207.999707 177.500277 L 207.999707 161.50022 L 212.000496 146.000391 L 203.499723 128.000456 L 214.000374 112.000399 L 209.999585 96.000342 L 223.999764 80.000285 L 223.999764 64.000228 L 214.000374 67.999984 " transform="matrix(3.779528,0,0,3.779528,0,0)"/>
<path style="fill:none;stroke-width:2;stroke-linecap:butt;stroke-linejoin:miter;stroke:rgb(0%,0%,0%);stroke-opacity:1;stroke-miterlimit:4;" d="M 215.500024 60.999894 L 231.500081 58.499788 " transform="matrix(3.779528,0,0,3.779528,0,0)"/>
<path style="fill:none;stroke-width:2;stroke-linecap:butt;stroke-linejoin:miter;stroke:rgb(0%,0%,0%);stroke-opacity:1;stroke-miterlimit:4;" d="M 218.00013 48.000171 L 218.00013 41.999504 L 203.999951 57.999561 L 206.500057 73.999618 L 210.499813 86.500146 L 186.500244 101.999976 L 186.500244 118.50026 L 184.999561 134.500317 L 190.5 128.999878 L 194.499756 132.500439 L 218.500358 106.499959 L 242.499927 84.500269 " transform="matrix(3.779528,0,0,3.779528,0,0)"/>
<path style="fill:none;stroke-width:2;stroke-linecap:butt;stroke-linejoin:miter;stroke:rgb(0%,0%,0%);stroke-opacity:1;stroke-miterlimit:4;" d="M 239.499593 92.49978 L 223.499536 90.499902 " transform="matrix(3.779528,0,0,3.779528,0,0)"/>
<path style="fill:none;stroke-width:2;stroke-linecap:butt;stroke-linejoin:miter;stroke:rgb(0%,0%,0%);stroke-opacity:1;stroke-miterlimit:4;" d="M 220.500236 114.500505 L 223.000342 130.499528 L 228.999976 132.500439 L 221.000464 153.999902 L 214.999797 134.00009 L 230.999854 143.500285 L 236.999487 147.500041 " transform="matrix(3.779528,0,0,3.779528,0,0)"/>
<path style="fill:none;stroke-width:2;stroke-linecap:butt;stroke-linejoin:miter;stroke:rgb(0%,0%,0%);stroke-opacity:1;stroke-miterlimit:4;" d="M 212.999919 123.999666 L 228.999976 101.999976 L 253.499772 93.500236 L 273.499585 75.999495 L 289.499642 73.999618 L 305.499699 84.000041 " transform="matrix(3.779528,0,0,3.779528,0,0)"/>
<path style="fill:none;stroke-width:2;stroke-linecap:butt;stroke-linejoin:miter;stroke:rgb(0%,0%,0%);stroke-opacity:1;stroke-miterlimit:4;" d="M 286.000114 85.000496 L 300.000293 86.500146 L 306.500155 87.999797 L 298.499609 103.999854 L 291.000326 117.499805 " transform="matrix(3.779528,0,0,3.779528,0,0)"/>
<path style="fill:none;stroke-width:2;stroke-linecap:butt;stroke-linejoin:miter;stroke:rgb(0%,0%,0%);stroke-opacity:1;stroke-miterlimit:4;" d="M 275.500496 105.000309 L 259.500439 98.999642 " transform="matrix(3.779528,0,0,3.779528,0,0)"/>
<path style="fill:none;stroke-width:2;stroke-linecap:butt;stroke-linejoin:miter;stroke:rgb(0%,0%,0%);stroke-opacity:1;stroke-miterlimit:4;" d="M 255.999878 103.499626 L 271.499707 111.500171 L 285.499886 105.999731 L 289.499642 94.000464 L 297.500187 103.999854 " transform="matrix(3.779528,0,0,3.779528,0,0)"/>
<path style="fill:none;stroke-width:2;stroke-linecap:butt;stroke-linejoin:miter;stroke:rgb(0%,0%,0%);stroke-opacity:1;stroke-miterlimit:4;" d="M 270.000057 85.499691 L 254 99.49987 L 252.000122 103.499626 L 266.000301 87.499569 L 271.999935 71.000317 " transform="matrix(3.779528,0,0,3.779528,0,0)"/>
<path style="fill:none;stroke-width:2;stroke-linecap:butt;stroke-linejoin:miter;stroke:rgb(0%,0%,0%);stroke-opacity:1;stroke-miterlimit:4;" d="M 209.999585 55.500488 L 225.500448 49.499821 L 227.500326 41.000081 L 229.500203 57.000138 L 239.000399 53.000382 L 235.499837 66.999528 L 232.000309 73.000195 L 232.000309 87.000374 L 226.49987 103.000431 L 218.500358 112.499593 L 214.000374 128.49965 L 206.500057 144.999935 L 202.500301 178.000505 L 190.5 196.499634 L 202.000073 200.500423 " transform="matrix(3.779528,0,0,3.779528,0,0)"/>
<path style="fill:none;stroke-width:2;stroke-linecap:butt;stroke-linejoin:miter;stroke:rgb(0%,0%,0%);stroke-opacity:1;stroke-miterlimit:4;" d="M 189.499544 119.99991 L 191.500456 103.999854 L 207.500513 94.000464 L 191.500456 100.000098 " transform="matrix(3.779528,0,0,3.779528,0,0)"/>
<path style="fill:none;stroke-width:2;stroke-linecap:butt;stroke-linejoin:miter;stroke:rgb(0%,0%,0%);stroke-opacity:1;stroke-miterlimit:4;" d="M 185.499788 102.500203 L 201.499845 90.499902 L 203.499723 76.499723 L 211.500269 78.499601 L 217.499902 75.999495 L 227.99952 82.000163 L 240.500049 71.99974 " transform="matrix(3.779528,0,0,3.779528,0,0)"/>
<path style="fill:none;stroke-width:2;stroke-linecap:butt;stroke-linejoin:miter;stroke:rgb(0%,0%,0%);stroke-opacity:1;stroke-miterlimit:4;" d="M 202.999495 55.00026 L 218.999552 41.500309 L 234.999609 43.500187 L 251.499894 57.500366 L 280.00048 44.000415 " transform="matrix(3.779528,0,0,3.779528,0,0)"/>
<path style="fill:none;stroke-width:2;stroke-linecap:butt;stroke-linejoin:miter;stroke:rgb(0%,0%,0%);stroke-opacity:1;stroke-miterlimit:4;" d="M 348.000464 66.000106 L 363.999487 48.000171 L 378.499894 51.999927 L 394.499951 51.999927 " transform="matrix(3.779528,0,0,3.779528,0,0)"/>
<path style="fill:none;stroke-width:2;stroke-linecap:butt;stroke-linejoin:miter;stroke:rgb(0%,0%,0%);stroke-opacity:1;stroke-miterlimit:4;" d="M 398.499707 33.999992 L 382.999878 26.00048 L 366.999821 23.500374 L 351.499992 37.000326 " transform="matrix(3.779528,0,0,3.779528,0,0)"/>
<path style="fill:none;stroke-width:2;stroke-linecap:butt;stroke-linejoin:miter;stroke:rgb(0%,0%,0%);stroke-opacity:1;stroke-miterlimit:4;" d="M 377.000244 25.500252 L 397.000057 43.500187 L 393.499495 59.500244 L 387.499862 75.500301 L 395.999601 96.999764 L 400.000391 101.499748 L 386.000212 115.499927 L 389.999967 118.000033 L 389.999967 134.00009 L 388.00009 150.500374 L 372.000033 154.50013 L 366.000399 171.000415 L 375.499561 175.000171 L 373.499683 190.5 L 379.50035 194.499756 L 371.499805 202.000073 L 375.999788 209.999585 L 365.500171 225.999642 L 357.999854 241.999699 L 345.999552 250.000244 L 345.999552 266.000301 L 343.999674 282.499552 L 345.999552 293.999626 L 339.499691 295.999504 L 345.500358 319.499878 L 345.500358 367.500049 " transform="matrix(3.779528,0,0,3.779528,0,0)"/>
<path style="fill:none;stroke-width:2;stroke-linecap:butt;stroke-linejoin:miter;stroke:rgb(0%,0%,0%);stroke-opacity:1;stroke-miterlimit:4;" d="M 334.500513 184.000138 L 318.500456 167.499854 " transform="matrix(3.779528,0,0,3.779528,0,0)"/>
<path style="fill:none;stroke-width:2;stroke-linecap:butt;stroke-linejoin:miter;stroke:rgb(0%,0%,0%);stroke-opacity:1;stroke-miterlimit:4;" d="M 314.999894 154.50013 L 330.499723 114.500505 L 346.49978 98.00022 " transform="matrix(3.779528,0,0,3.779528,0,0)"/>
<path style="fill:none;stroke-width:2;stroke-linecap:butt;stroke-linejoin:miter;stroke:rgb(0%,0%,0%);stroke-opacity:1;stroke-miterlimit:4;" d="M 364.499715 104.500081 L 380.499772 108.499837 " transform="matrix(3.779528,0,0,3.779528,0,0)"/>
<path style="fill:none;stroke-width:2;stroke-linecap:butt;stroke-linejoin:miter;stroke:rgb(0%,0%,0%);stroke-opacity:1;stroke-miterlimit:4;" d="M 405.499797 89.50048 L 427.499487 105.499504 L 445.500456 123.500472 L 467.500146 125.000122 L 455.499845 127 " transform="matrix(3.779528,0,0,3.779528,0,0)"/>
<path style="fill:none;stroke-width:2;stroke-linecap:butt;stroke-linejoin:miter;stroke:rgb(0%,0%,0%);stroke-opacity:1;stroke-miterlimit:4;" d="M 456.500301 152.500252 L 478.499992 137.000423 L 472.999552 121.000366 L 450.499634 107.000187 L 452.99974 91.00013 " transform="matrix(3.779528,0,0,3.779528,0,0)"/>
<path style="fill:none;stroke-width:2;stroke-linecap:butt;stroke-linejoin:miter;stroke:rgb(0%,0%,0%);stroke-opacity:1;stroke-miterlimit:4;" d="M 350.499536 133.499862 L 354.000098 149.499919 L 350.000342 155.499552 L 348.000464 162.99987 " transform="matrix(3.779528,0,0,3.779528,0,0)"/>
<path style="fill:none;stroke-width:2;stroke-linecap:butt;stroke-linejoin:miter;stroke:rgb(0%,0%,0%);stroke-opacity:1;stroke-miterlimit:4;" d="M 345.999552 130.000334 L 338.000041 162.000448 L 354.000098 178.499699 L 363.999487 194.499756 L 370.000155 218.500358 L 367.500049 234.500415 L 363.000065 250.500472 L 363.000065 266.499495 L 361.500415 282.000358 L 363.500293 298.000415 L 361.500415 314.000472 L 361.500415 330.499723 L 367.500049 348.499658 L 370.000155 364.999943 L 372.000033 384.999756 L 388.00009 385.499984 L 404.000146 385.499984 L 420.000203 384.999756 L 436.00026 382.999878 " transform="matrix(3.779528,0,0,3.779528,0,0)"/>
<path style="fill:none;stroke-width:2;stroke-linecap:butt;stroke-linejoin:miter;stroke:rgb(0%,0%,0%);stroke-opacity:1;stroke-miterlimit:4;" d="M 285.499886 189.00035 L 282.000358 173.000293 L 284.000236 157.000236 " transform="matrix(3.779528,0,0,3.779528,0,0)"/>
<path style="fill:none;stroke-width:2;stroke-linecap:butt;stroke-linejoin:miter;stroke:rgb(0%,0%,0%);stroke-opacity:1;stroke-miterlimit:4;" d="M 291.000326 152.500252 L 288.50022 168.500309 L 288.50022 184.000138 " transform="matrix(3.779528,0,0,3.779528,0,0)"/>
<path style="fill:none;stroke-width:2;stroke-linecap:butt;stroke-linejoin:miter;stroke:rgb(0%,0%,0%);stroke-opacity:1;stroke-miterlimit:4;" d="M 165.499976 146.999813 L 166.999626 130.999756 L 171.000415 114.999699 L 171.499609 96.499536 L 167.499854 96.999764 L 159.999536 94.999886 L 159.999536 78.999829 L 156.500008 79.500057 L 142.499829 66.000106 L 126.499772 78.000407 " transform="matrix(3.779528,0,0,3.779528,0,0)"/>
<path style="fill:none;stroke-width:2;stroke-linecap:butt;stroke-linejoin:miter;stroke:rgb(0%,0%,0%);stroke-opacity:1;stroke-miterlimit:4;" d="M 134.00009 75.500301 L 132.000212 91.500358 L 137.999845 91.999552 L 144.000513 107.999609 L 137.999845 123.500472 L 136.500195 139.499495 L 135.999967 155.499552 L 135.999967 185.499788 " transform="matrix(3.779528,0,0,3.779528,0,0)"/>
<path style="fill:none;stroke-width:2;stroke-linecap:butt;stroke-linejoin:miter;stroke:rgb(0%,0%,0%);stroke-opacity:1;stroke-miterlimit:4;" d="M 130.499528 157.999658 L 125.999544 157.999658 L 119.99991 141.999601 L 116.000155 141.500407 L 116.000155 125.50035 L 123.999666 109.000065 L 113.500049 99.49987 L 116.999577 83.499813 L 129.500106 67.499756 L 133.499862 51.499699 L 139.499495 49.499821 L 141.500407 41.500309 L 139.499495 48.000171 " transform="matrix(3.779528,0,0,3.779528,0,0)"/>
<path style="fill:none;stroke-width:2;stroke-linecap:butt;stroke-linejoin:miter;stroke:rgb(0%,0%,0%);stroke-opacity:1;stroke-miterlimit:4;" d="M 141.500407 59.000016 L 141.500407 53.499577 L 125.999544 71.499512 L 97.499992 98.00022 L 97.499992 112.000399 L 85.499691 150.000146 L 73.500423 126.499772 L 53.499577 140.499951 L 53.499577 124.499894 L 57.000138 108.499837 L 64.99965 92.49978 L 63.5 75.999495 L 59.500244 71.99974 " transform="matrix(3.779528,0,0,3.779528,0,0)"/>
<path style="fill:none;stroke-width:2;stroke-linecap:butt;stroke-linejoin:miter;stroke:rgb(0%,0%,0%);stroke-opacity:1;stroke-miterlimit:4;" d="M 57.999561 67.999984 L 73.500423 67.999984 L 69.000439 79.500057 L 69.000439 95.500114 L 64.99965 109.500293 L 62.999772 121.999788 " transform="matrix(3.779528,0,0,3.779528,0,0)"/>
<path style="fill:none;stroke-width:2;stroke-linecap:butt;stroke-linejoin:miter;stroke:rgb(0%,0%,0%);stroke-opacity:1;stroke-miterlimit:4;" d="M 54.500033 112.999821 L 69.999862 103.499626 L 78.000407 93.500236 L 94.000464 85.999919 " transform="matrix(3.779528,0,0,3.779528,0,0)"/>
<path style="fill:none;stroke-width:2;stroke-linecap:butt;stroke-linejoin:miter;stroke:rgb(0%,0%,0%);stroke-opacity:1;stroke-miterlimit:4;" d="M 92.49978 91.00013 L 80.500513 106.499959 L 84.500269 122.500016 L 68.500212 122.500016 L 84.500269 130.499528 L 78.499601 136.500195 L 89.000252 152.500252 L 87.000374 170.500187 " transform="matrix(3.779528,0,0,3.779528,0,0)"/>
<path style="fill:none;stroke-width:2;stroke-linecap:butt;stroke-linejoin:miter;stroke:rgb(0%,0%,0%);stroke-opacity:1;stroke-miterlimit:4;" d="M 139.499495 171.499609 L 139.999723 155.499552 L 144.499707 139.000301 L 144.499707 123.000244 L 132.999634 112.499593 L 116.999577 124.499894 " transform="matrix(3.779528,0,0,3.779528,0,0)"/>
<path style="fill:none;stroke-width:2;stroke-linecap:butt;stroke-linejoin:miter;stroke:rgb(0%,0%,0%);stroke-opacity:1;stroke-miterlimit:4;" d="M 123.999666 91.999552 L 139.999723 94.499658 L 168.000081 107.999609 " transform="matrix(3.779528,0,0,3.779528,0,0)"/>
<path style="fill:none;stroke-width:2;stroke-linecap:butt;stroke-linejoin:miter;stroke:rgb(0%,0%,0%);stroke-opacity:1;stroke-miterlimit:4;" d="M 175.000171 110.499715 L 175.000171 126.499772 L 162.99987 134.00009 " transform="matrix(3.779528,0,0,3.779528,0,0)"/>
<path style="fill:none;stroke-width:2;stroke-linecap:butt;stroke-linejoin:miter;stroke:rgb(0%,0%,0%);stroke-opacity:1;stroke-miterlimit:4;" d="M 164.49952 92.49978 L 156.500008 75.000073 L 139.999723 78.999829 L 137.999845 85.000496 " transform="matrix(3.779528,0,0,3.779528,0,0)"/>
<path style="fill:none;stroke-width:2;stroke-linecap:butt;stroke-linejoin:miter;stroke:rgb(0%,0%,0%);stroke-opacity:1;stroke-miterlimit:4;" d="M 142.499829 72.499967 L 158.499886 69.999862 " transform="matrix(3.779528,0,0,3.779528,0,0)"/>
<path style="fill:none;stroke-width:2;stroke-linecap:butt;stroke-linejoin:miter;stroke:rgb(0%,0%,0%);stroke-opacity:1;stroke-miterlimit:4;" d="M 134.999512 69.999862 L 143.500285 85.999919 L 153.00048 101.499748 L 161.50022 111.500171 L 157.500464 127.500228 L 159.999536 143.500285 L 159.999536 159.500342 " transform="matrix(3.779528,0,0,3.779528,0,0)"/>
<path style="fill:none;stroke-width:2;stroke-linecap:butt;stroke-linejoin:miter;stroke:rgb(0%,0%,0%);stroke-opacity:1;stroke-miterlimit:4;" d="M 84.000041 180.000382 L 84.000041 163.500098 L 101.999976 159.500342 L 94.000464 155.99978 L 90.499902 141.999601 L 98.500448 125.999544 L 104.500081 109.999487 L 108.499837 94.000464 L 96.499536 90.499902 L 80.500513 100.500326 " transform="matrix(3.779528,0,0,3.779528,0,0)"/>
<path style="fill:none;stroke-width:2;stroke-linecap:butt;stroke-linejoin:miter;stroke:rgb(0%,0%,0%);stroke-opacity:1;stroke-miterlimit:4;" d="M 96.000342 98.00022 L 89.50048 114.000277 " transform="matrix(3.779528,0,0,3.779528,0,0)"/>
<path style="fill:none;stroke-width:2;stroke-linecap:butt;stroke-linejoin:miter;stroke:rgb(0%,0%,0%);stroke-opacity:1;stroke-miterlimit:4;" d="M 98.999642 92.49978 L 100.99952 108.499837 L 93.000008 123.999666 L 87.000374 139.999723 L 104.500081 109.999487 L 128.49965 109.500293 " transform="matrix(3.779528,0,0,3.779528,0,0)"/>
<path style="fill:none;stroke-width:2;stroke-linecap:butt;stroke-linejoin:miter;stroke:rgb(0%,0%,0%);stroke-opacity:1;stroke-miterlimit:4;" d="M 127.500228 135.49974 L 123.500472 119.499683 L 119.499683 103.499626 L 121.999788 87.499569 L 132.000212 71.499512 " transform="matrix(3.779528,0,0,3.779528,0,0)"/>
<path style="fill:none;stroke-width:2;stroke-linecap:butt;stroke-linejoin:miter;stroke:rgb(0%,0%,0%);stroke-opacity:1;stroke-miterlimit:4;" d="M 87.999797 86.500146 L 73.500423 101.999976 L 77.500179 117.499805 L 57.500366 129.500106 " transform="matrix(3.779528,0,0,3.779528,0,0)"/>
</g>
</svg>
