<?xml version="1.0" encoding="UTF-8"?>
<svg xmlns="http://www.w3.org/2000/svg" xmlns:xlink="http://www.w3.org/1999/xlink" width="1935.11811" height="1935.11811" viewBox="0 0 1935.11811 1935.11811" version="1.1">
<g id="surface1">
<path style="fill:none;stroke-width:2;stroke-linecap:butt;stroke-linejoin:miter;stroke:rgb(0%,0%,0%);stroke-opacity:1;stroke-miterlimit:4;" d="M 101.499748 2.500106 L 103.499626 18.500163 L 107.500415 34.50022 L 111.500171 50.500277 L 117.499805 66.999528 L 121.499561 82.999585 L 125.50035 98.999642 L 129.500106 114.999699 " transform="matrix(3.779528,0,0,3.779528,0,0)"/>
<path style="fill:none;stroke-width:2;stroke-linecap:butt;stroke-linejoin:miter;stroke:rgb(0%,0%,0%);stroke-opacity:1;stroke-miterlimit:4;" d="M 144.000513 141.500407 L 151.499797 171.499609 L 155.499552 187.999894 " transform="matrix(3.779528,0,0,3.779528,0,0)"/>
<path style="fill:none;stroke-width:2;stroke-linecap:butt;stroke-linejoin:miter;stroke:rgb(0%,0%,0%);stroke-opacity:1;stroke-miterlimit:4;" d="M 148.999691 215.500024 L 178.999927 231.500081 L 200.500423 246.000488 " transform="matrix(3.779528,0,0,3.779528,0,0)"/>
<path style="fill:none;stroke-width:2;stroke-linecap:butt;stroke-linejoin:miter;stroke:rgb(0%,0%,0%);stroke-opacity:1;stroke-miterlimit:4;" d="M 232.499504 275.000269 L 248.000366 279.000024 L 264.000423 287.499764 L 280.00048 295.500309 L 295.999504 303.499821 L 311.999561 311.500366 L 336.000163 323.499634 L 352.500448 320.000106 L 368.500505 310.49991 L 384.499528 300.499487 L 400.000391 288.50022 L 416.499642 280.00048 L 434.000382 275.999691 L 449.500212 268.000179 L 465.500269 257.999756 L 481.000098 248.000366 L 497.000155 239.999821 " transform="matrix(3.779528,0,0,3.779528,0,0)"/>
<path style="fill:none;stroke-width:2;stroke-linecap:butt;stroke-linejoin:miter;stroke:rgb(0%,0%,0%);stroke-opacity:1;stroke-miterlimit:4;" d="M 511.499528 234.000187 L 481.500326 250.000244 L 453.499967 266.000301 L 420.999626 282.000358 L 394.499951 297.500187 L 372.000033 314.000472 L 363.500293 323.999862 L 379.50035 334.500513 " transform="matrix(3.779528,0,0,3.779528,0,0)"/>
<path style="fill:none;stroke-width:2;stroke-linecap:butt;stroke-linejoin:miter;stroke:rgb(0%,0%,0%);stroke-opacity:1;stroke-miterlimit:4;" d="M 377.000244 334.000285 L 354.99952 318.000228 L 381 302.000171 L 402.999691 286.000114 L 431.000049 270.500285 L 461.000285 254.500228 L 490.999487 238.500171 L 504.999666 230.499626 L 489.499837 240.500049 L 473.49978 248.499561 L 457.999951 257.999756 L 442.500122 266.000301 L 427.000293 273.999813 L 411.000236 287.999992 L 395.000179 298.000415 L 379.000122 310.49991 L 363.000065 320.500334 " transform="matrix(3.779528,0,0,3.779528,0,0)"/>
<path style="fill:none;stroke-width:2;stroke-linecap:butt;stroke-linejoin:miter;stroke:rgb(0%,0%,0%);stroke-opacity:1;stroke-miterlimit:4;" d="M 373.000488 334.000285 L 357.499626 325.499512 L 341.999797 325.99974 " transform="matrix(3.779528,0,0,3.779528,0,0)"/>
<path style="fill:none;stroke-width:2;stroke-linecap:butt;stroke-linejoin:miter;stroke:rgb(0%,0%,0%);stroke-opacity:1;stroke-miterlimit:4;" d="M 365.500171 284.000236 L 379.50035 268.000179 L 381.500228 257.999756 L 391.000423 241.999699 L 403.499919 225.500448 L 386.999634 219.49978 L 370.500382 217.499902 L 354.000098 217.499902 " transform="matrix(3.779528,0,0,3.779528,0,0)"/>
<path style="fill:none;stroke-width:2;stroke-linecap:butt;stroke-linejoin:miter;stroke:rgb(0%,0%,0%);stroke-opacity:1;stroke-miterlimit:4;" d="M 355.999976 193.500334 L 372.000033 211.500269 L 388.00009 213.500146 L 404.000146 221.499658 L 395.999601 229.500203 L 384.000334 246.000488 L 370.000155 261.500317 L 361.999609 273.999813 L 366.000399 271.999935 L 382.000456 257.999756 L 406.000024 236.000065 L 402.500496 252.000122 " transform="matrix(3.779528,0,0,3.779528,0,0)"/>
<path style="fill:none;stroke-width:2;stroke-linecap:butt;stroke-linejoin:miter;stroke:rgb(0%,0%,0%);stroke-opacity:1;stroke-miterlimit:4;" d="M 402.999691 236.000065 L 397.000057 252.000122 L 384.999756 267.499951 L 376.500016 283.500008 L 360.499959 300.000293 L 334.000285 316.00035 L 328.499845 332.000407 L 318.500456 348.000464 L 308.500033 363.999487 L 298.499609 380.499772 L 290.500098 396.499829 L 280.499674 411.999658 L 266.499495 437.49991 L 260.499862 453.499967 L 275.999691 466.999919 L 291.999748 487.499959 L 279.500252 503.500016 L 283.500008 497.500382 " transform="matrix(3.779528,0,0,3.779528,0,0)"/>
<path style="fill:none;stroke-width:2;stroke-linecap:butt;stroke-linejoin:miter;stroke:rgb(0%,0%,0%);stroke-opacity:1;stroke-miterlimit:4;" d="M 313.000016 468.000374 L 297.500187 481.99952 L 281.50013 470.000252 L 266.000301 452.000317 " transform="matrix(3.779528,0,0,3.779528,0,0)"/>
<path style="fill:none;stroke-width:2;stroke-linecap:butt;stroke-linejoin:miter;stroke:rgb(0%,0%,0%);stroke-opacity:1;stroke-miterlimit:4;" d="M 259.000212 445.99965 L 275.000269 434.000382 L 291.49952 436.500488 L 307.499577 432.499699 L 323.999862 431.000049 " transform="matrix(3.779528,0,0,3.779528,0,0)"/>
<path style="fill:none;stroke-width:2;stroke-linecap:butt;stroke-linejoin:miter;stroke:rgb(0%,0%,0%);stroke-opacity:1;stroke-miterlimit:4;" d="M 315.500122 426.500065 L 299.500065 427.999715 L 283.500008 429.999593 L 267.499951 426.500065 " transform="matrix(3.779528,0,0,3.779528,0,0)"/>
<path style="fill:none;stroke-width:2;stroke-linecap:butt;stroke-linejoin:miter;stroke:rgb(0%,0%,0%);stroke-opacity:1;stroke-miterlimit:4;" d="M 269.499829 422.500309 L 284.999658 406.500252 L 300.999715 376.500016 L 316.999772 352.500448 L 332.499601 320.000106 L 348.000464 305.999927 L 363.999487 286.000114 L 379.50035 268.000179 " transform="matrix(3.779528,0,0,3.779528,0,0)"/>
<path style="fill:none;stroke-width:2;stroke-linecap:butt;stroke-linejoin:miter;stroke:rgb(0%,0%,0%);stroke-opacity:1;stroke-miterlimit:4;" d="M 336.500391 273.000391 L 334.000285 289.499642 " transform="matrix(3.779528,0,0,3.779528,0,0)"/>
<path style="fill:none;stroke-width:2;stroke-linecap:butt;stroke-linejoin:miter;stroke:rgb(0%,0%,0%);stroke-opacity:1;stroke-miterlimit:4;" d="M 319.499878 228.999976 L 303.499821 221.499658 L 287.499764 213.500146 " transform="matrix(3.779528,0,0,3.779528,0,0)"/>
<path style="fill:none;stroke-width:2;stroke-linecap:butt;stroke-linejoin:miter;stroke:rgb(0%,0%,0%);stroke-opacity:1;stroke-miterlimit:4;" d="M 286.500342 208.499935 L 302.000171 214.000374 L 318.000228 220.000008 " transform="matrix(3.779528,0,0,3.779528,0,0)"/>
<path style="fill:none;stroke-width:2;stroke-linecap:butt;stroke-linejoin:miter;stroke:rgb(0%,0%,0%);stroke-opacity:1;stroke-miterlimit:4;" d="M 305.499699 195.500212 L 289.000448 189.499544 " transform="matrix(3.779528,0,0,3.779528,0,0)"/>
<path style="fill:none;stroke-width:2;stroke-linecap:butt;stroke-linejoin:miter;stroke:rgb(0%,0%,0%);stroke-opacity:1;stroke-miterlimit:4;" d="M 289.499642 187.000472 L 305.999927 193.000106 " transform="matrix(3.779528,0,0,3.779528,0,0)"/>
<path style="fill:none;stroke-width:2;stroke-linecap:butt;stroke-linejoin:miter;stroke:rgb(0%,0%,0%);stroke-opacity:1;stroke-miterlimit:4;" d="M 300.999715 190.5 L 291.000326 186.500244 " transform="matrix(3.779528,0,0,3.779528,0,0)"/>
<path style="fill:none;stroke-width:2;stroke-linecap:butt;stroke-linejoin:miter;stroke:rgb(0%,0%,0%);stroke-opacity:1;stroke-miterlimit:4;" d="M 274.500041 189.999772 L 274.500041 173.999715 L 270.500285 170.500187 L 276.499919 154.50013 L 277.999569 138.500073 L 277.999569 122.500016 L 259.500439 106.499959 L 223.499536 89.999674 L 205.499601 89.999674 " transform="matrix(3.779528,0,0,3.779528,0,0)"/>
<path style="fill:none;stroke-width:2;stroke-linecap:butt;stroke-linejoin:miter;stroke:rgb(0%,0%,0%);stroke-opacity:1;stroke-miterlimit:4;" d="M 207.999707 99.49987 L 223.999764 103.499626 L 239.999821 105.999731 L 252.50035 118.000033 L 254.500228 134.00009 L 266.499495 125.999544 L 272.500163 128.000456 L 272.500163 144.000513 " transform="matrix(3.779528,0,0,3.779528,0,0)"/>
<path style="fill:none;stroke-width:2;stroke-linecap:butt;stroke-linejoin:miter;stroke:rgb(0%,0%,0%);stroke-opacity:1;stroke-miterlimit:4;" d="M 262.49974 178.999927 L 246.499683 177.000049 " transform="matrix(3.779528,0,0,3.779528,0,0)"/>
<path style="fill:none;stroke-width:2;stroke-linecap:butt;stroke-linejoin:miter;stroke:rgb(0%,0%,0%);stroke-opacity:1;stroke-miterlimit:4;" d="M 248.999788 172.500065 L 250.999666 188.500122 " transform="matrix(3.779528,0,0,3.779528,0,0)"/>
<path style="fill:none;stroke-width:2;stroke-linecap:butt;stroke-linejoin:miter;stroke:rgb(0%,0%,0%);stroke-opacity:1;stroke-miterlimit:4;" d="M 248.499561 191.99965 L 264.499618 200.000195 " transform="matrix(3.779528,0,0,3.779528,0,0)"/>
<path style="fill:none;stroke-width:2;stroke-linecap:butt;stroke-linejoin:miter;stroke:rgb(0%,0%,0%);stroke-opacity:1;stroke-miterlimit:4;" d="M 268.500407 191.99965 L 257.000334 184.000138 L 267.499951 185.499788 L 252.000122 186.000016 L 235.499837 183.49991 L 223.499536 177.500277 L 215.500024 169.499731 L 211.500269 153.499674 L 209.000163 137.499618 L 209.000163 121.499561 L 194.499756 112.000399 L 204.500179 109.999487 L 220.000008 106.499959 L 193.999528 103.000431 " transform="matrix(3.779528,0,0,3.779528,0,0)"/>
<path style="fill:none;stroke-width:2;stroke-linecap:butt;stroke-linejoin:miter;stroke:rgb(0%,0%,0%);stroke-opacity:1;stroke-miterlimit:4;" d="M 193.999528 109.999487 L 198.000317 118.50026 L 214.000374 120.500138 L 234.000187 110.499715 L 234.000187 126.499772 L 232.000309 141.999601 L 232.499504 155.499552 L 232.499504 171.499609 L 256.500106 167.499854 L 258.499984 175.500399 " transform="matrix(3.779528,0,0,3.779528,0,0)"/>
<path style="fill:none;stroke-width:2;stroke-linecap:butt;stroke-linejoin:miter;stroke:rgb(0%,0%,0%);stroke-opacity:1;stroke-miterlimit:4;" d="M 224.499992 173.499487 L 208.499935 171.499609 L 192.499878 161.50022 " transform="matrix(3.779528,0,0,3.779528,0,0)"/>
<path style="fill:none;stroke-width:2;stroke-linecap:butt;stroke-linejoin:miter;stroke:rgb(0%,0%,0%);stroke-opacity:1;stroke-miterlimit:4;" d="M 218.999552 152.000024 L 227.000098 148.000269 L 211.000041 141.999601 L 209.000163 128.000456 " transform="matrix(3.779528,0,0,3.779528,0,0)"/>
<path style="fill:none;stroke-width:2;stroke-linecap:butt;stroke-linejoin:miter;stroke:rgb(0%,0%,0%);stroke-opacity:1;stroke-miterlimit:4;" d="M 211.000041 123.500472 L 227.500326 129.500106 " transform="matrix(3.779528,0,0,3.779528,0,0)"/>
<path style="fill:none;stroke-width:2;stroke-linecap:butt;stroke-linejoin:miter;stroke:rgb(0%,0%,0%);stroke-opacity:1;stroke-miterlimit:4;" d="M 223.499536 103.499626 L 229.500203 119.499683 L 227.99952 135.49974 L 214.000374 149.499919 L 225.999642 165.499976 " transform="matrix(3.779528,0,0,3.779528,0,0)"/>
<path style="fill:none;stroke-width:2;stroke-linecap:butt;stroke-linejoin:miter;stroke:rgb(0%,0%,0%);stroke-opacity:1;stroke-miterlimit:4;" d="M 228.499748 98.500448 L 245.000033 112.499593 L 246.99991 128.999878 L 250.999666 135.49974 L 261.00009 139.499495 L 280.999902 113.500049 L 296.999959 119.499683 " transform="matrix(3.779528,0,0,3.779528,0,0)"/>
<path style="fill:none;stroke-width:2;stroke-linecap:butt;stroke-linejoin:miter;stroke:rgb(0%,0%,0%);stroke-opacity:1;stroke-miterlimit:4;" d="M 344.499902 128.000456 L 341.999797 117.499805 L 332.000407 103.499626 L 329.999495 87.000374 L 338.000041 79.500057 " transform="matrix(3.779528,0,0,3.779528,0,0)"/>
<path style="fill:none;stroke-width:2;stroke-linecap:butt;stroke-linejoin:miter;stroke:rgb(0%,0%,0%);stroke-opacity:1;stroke-miterlimit:4;" d="M 342.500024 80.999707 L 342.500024 97.499992 L 350.000342 113.500049 " transform="matrix(3.779528,0,0,3.779528,0,0)"/>
<path style="fill:none;stroke-width:2;stroke-linecap:butt;stroke-linejoin:miter;stroke:rgb(0%,0%,0%);stroke-opacity:1;stroke-miterlimit:4;" d="M 322.500212 116.500382 L 305.999927 108.499837 L 289.99987 100.500326 L 273.499585 92.49978 L 257.499528 84.500269 L 241.999699 76.499723 L 226.49987 69.999862 L 210.499813 61.500122 L 194.499756 53.499577 L 178.499699 53.499577 " transform="matrix(3.779528,0,0,3.779528,0,0)"/>
<path style="fill:none;stroke-width:2;stroke-linecap:butt;stroke-linejoin:miter;stroke:rgb(0%,0%,0%);stroke-opacity:1;stroke-miterlimit:4;" d="M 180.999805 46.999715 L 172.500065 62.999772 L 173.000293 78.999829 L 170.500187 94.999886 L 170.500187 110.499715 L 171.999837 126.499772 L 172.500065 142.499829 L 173.000293 157.999658 L 175.500399 173.999715 L 177.500277 189.499544 L 179.500155 205.999829 L 179.500155 221.999886 L 191.500456 220.000008 L 207.000285 232.000309 L 222.500114 251.499894 L 239.999821 270.000057 L 255.49965 277.999569 L 271.499707 286.500342 L 286.999536 295.000081 L 302.500399 302.999593 L 318.500456 311.000138 L 334.500513 306.500155 L 357.000431 280.499674 L 365.500171 264.499618 L 381.500228 248.499561 L 395.500407 236.500293 " transform="matrix(3.779528,0,0,3.779528,0,0)"/>
<path style="fill:none;stroke-width:2;stroke-linecap:butt;stroke-linejoin:miter;stroke:rgb(0%,0%,0%);stroke-opacity:1;stroke-miterlimit:4;" d="M 474.500236 275.000269 L 490.500293 282.99978 L 506.000122 307.000382 " transform="matrix(3.779528,0,0,3.779528,0,0)"/>
<path style="fill:none;stroke-width:2;stroke-linecap:butt;stroke-linejoin:miter;stroke:rgb(0%,0%,0%);stroke-opacity:1;stroke-miterlimit:4;" d="M 509.49965 323.999862 L 493.999821 300.000293 L 477.999764 277.999569 " transform="matrix(3.779528,0,0,3.779528,0,0)"/>
<path style="fill:none;stroke-width:2;stroke-linecap:butt;stroke-linejoin:miter;stroke:rgb(0%,0%,0%);stroke-opacity:1;stroke-miterlimit:4;" d="M 475.999886 272.500163 L 486.000309 287.999992 L 495.500505 304.500277 L 505.499894 320.500334 " transform="matrix(3.779528,0,0,3.779528,0,0)"/>
<path style="fill:none;stroke-width:2;stroke-linecap:butt;stroke-linejoin:miter;stroke:rgb(0%,0%,0%);stroke-opacity:1;stroke-miterlimit:4;" d="M 505.499894 361.000187 L 489.499837 362.499837 L 473.49978 362.499837 " transform="matrix(3.779528,0,0,3.779528,0,0)"/>
<path style="fill:none;stroke-width:2;stroke-linecap:butt;stroke-linejoin:miter;stroke:rgb(0%,0%,0%);stroke-opacity:1;stroke-miterlimit:4;" d="M 461.999707 361.500415 L 477.999764 359.000309 L 493.999821 357.000431 L 509.49965 357.000431 " transform="matrix(3.779528,0,0,3.779528,0,0)"/>
<path style="fill:none;stroke-width:2;stroke-linecap:butt;stroke-linejoin:miter;stroke:rgb(0%,0%,0%);stroke-opacity:1;stroke-miterlimit:4;" d="M 509.49965 311.500366 L 503.500016 305.000505 L 491.499715 288.50022 L 483.500203 271.999935 " transform="matrix(3.779528,0,0,3.779528,0,0)"/>
<path style="fill:none;stroke-width:2;stroke-linecap:butt;stroke-linejoin:miter;stroke:rgb(0%,0%,0%);stroke-opacity:1;stroke-miterlimit:4;" d="M 509.999878 145.500163 L 505.499894 129.500106 L 509.000456 119.000488 " transform="matrix(3.779528,0,0,3.779528,0,0)"/>
<path style="fill:none;stroke-width:2;stroke-linecap:butt;stroke-linejoin:miter;stroke:rgb(0%,0%,0%);stroke-opacity:1;stroke-miterlimit:4;" d="M 506.000122 127 L 500.000488 143.500285 L 502.000366 159.500342 L 506.000122 177.500277 " transform="matrix(3.779528,0,0,3.779528,0,0)"/>
<path style="fill:none;stroke-width:2;stroke-linecap:butt;stroke-linejoin:miter;stroke:rgb(0%,0%,0%);stroke-opacity:1;stroke-miterlimit:4;" d="M 492.500171 204.500179 L 477.000342 209.999585 L 461.500513 219.49978 L 445.500456 229.500203 L 429.000171 239.999821 L 413.000114 250.500472 L 401.500041 264.499618 L 425.499609 248.499561 L 451.50009 232.000309 L 479.500448 215.500024 L 509.000456 197.50009 L 500.499683 205.000407 L 484.499626 213.500146 L 468.000374 221.499658 L 452.000317 232.000309 L 436.00026 242.499927 L 419.499976 252.50035 L 403.499919 262.49974 L 389.49974 266.499495 L 391.499618 274.500041 L 413.500342 248.000366 L 439.499788 231.500081 L 466.000496 215.500024 L 497.999577 199.499967 L 502.000366 182.999683 L 497.999577 164.999748 L 493.999821 148.999691 L 495.999699 132.999634 L 506.000122 117.499805 L 510.500106 101.499748 L 498.499805 91.999552 L 506.50035 76.499723 L 500.000488 74.499845 L 493.999821 58.499788 L 493.499593 48.500399 L 477.000342 32.500342 L 472.500358 39.000203 L 456.500301 37.000326 " transform="matrix(3.779528,0,0,3.779528,0,0)"/>
<path style="fill:none;stroke-width:2;stroke-linecap:butt;stroke-linejoin:miter;stroke:rgb(0%,0%,0%);stroke-opacity:1;stroke-miterlimit:4;" d="M 455.499845 40.499854 L 472.00013 48.500399 L 472.00013 52.500155 L 478.499992 46.499487 L 494.500049 56.49991 L 511.000334 84.000041 " transform="matrix(3.779528,0,0,3.779528,0,0)"/>
<path style="fill:none;stroke-width:2;stroke-linecap:butt;stroke-linejoin:miter;stroke:rgb(0%,0%,0%);stroke-opacity:1;stroke-miterlimit:4;" d="M 505.499894 64.000228 L 489.499837 44.000415 " transform="matrix(3.779528,0,0,3.779528,0,0)"/>
<path style="fill:none;stroke-width:2;stroke-linecap:butt;stroke-linejoin:miter;stroke:rgb(0%,0%,0%);stroke-opacity:1;stroke-miterlimit:4;" d="M 483.500203 37.49952 L 503.500016 53.499577 L 497.500382 79.500057 " transform="matrix(3.779528,0,0,3.779528,0,0)"/>
<path style="fill:none;stroke-width:2;stroke-linecap:butt;stroke-linejoin:miter;stroke:rgb(0%,0%,0%);stroke-opacity:1;stroke-miterlimit:4;" d="M 503.500016 81.499935 L 487.499959 63.5 L 475.000464 63.5 L 475.000464 55.500488 " transform="matrix(3.779528,0,0,3.779528,0,0)"/>
<path style="fill:none;stroke-width:2;stroke-linecap:butt;stroke-linejoin:miter;stroke:rgb(0%,0%,0%);stroke-opacity:1;stroke-miterlimit:4;" d="M 452.99974 47.499943 L 448.999984 45.500065 L 434.999805 62.00035 L 436.999683 78.000407 L 438.999561 94.499658 " transform="matrix(3.779528,0,0,3.779528,0,0)"/>
<path style="fill:none;stroke-width:2;stroke-linecap:butt;stroke-linejoin:miter;stroke:rgb(0%,0%,0%);stroke-opacity:1;stroke-miterlimit:4;" d="M 450.499634 110.499715 L 452.99974 126.499772 " transform="matrix(3.779528,0,0,3.779528,0,0)"/>
<path style="fill:none;stroke-width:2;stroke-linecap:butt;stroke-linejoin:miter;stroke:rgb(0%,0%,0%);stroke-opacity:1;stroke-miterlimit:4;" d="M 462.499935 83.499813 L 446.499878 65.499878 " transform="matrix(3.779528,0,0,3.779528,0,0)"/>
<path style="fill:none;stroke-width:2;stroke-linecap:butt;stroke-linejoin:miter;stroke:rgb(0%,0%,0%);stroke-opacity:1;stroke-miterlimit:4;" d="M 442.500122 59.500244 L 452.000317 75.500301 L 454.000195 91.500358 L 461.999707 107.000187 L 459.999829 123.000244 " transform="matrix(3.779528,0,0,3.779528,0,0)"/>
<path style="fill:none;stroke-width:2;stroke-linecap:butt;stroke-linejoin:miter;stroke:rgb(0%,0%,0%);stroke-opacity:1;stroke-miterlimit:4;" d="M 475.000464 81.499935 L 459.000407 57.999561 L 443.00035 48.000171 " transform="matrix(3.779528,0,0,3.779528,0,0)"/>
<path style="fill:none;stroke-width:2;stroke-linecap:butt;stroke-linejoin:miter;stroke:rgb(0%,0%,0%);stroke-opacity:1;stroke-miterlimit:4;" d="M 445.000228 50.500277 L 465.000041 64.500456 L 470.999674 80.000285 L 479.00022 95.500114 L 481.000098 111.500171 L 481.000098 127 " transform="matrix(3.779528,0,0,3.779528,0,0)"/>
<path style="fill:none;stroke-width:2;stroke-linecap:butt;stroke-linejoin:miter;stroke:rgb(0%,0%,0%);stroke-opacity:1;stroke-miterlimit:4;" d="M 504.000244 136.500195 L 506.000122 153.00048 L 509.49965 168.999504 " transform="matrix(3.779528,0,0,3.779528,0,0)"/>
<path style="fill:none;stroke-width:2;stroke-linecap:butt;stroke-linejoin:miter;stroke:rgb(0%,0%,0%);stroke-opacity:1;stroke-miterlimit:4;" d="M 508 55.00026 L 491.999943 37.000326 L 476.500114 27.50013 L 461.000285 27.50013 L 445.000228 33.499764 " transform="matrix(3.779528,0,0,3.779528,0,0)"/>
<path style="fill:none;stroke-width:2;stroke-linecap:butt;stroke-linejoin:miter;stroke:rgb(0%,0%,0%);stroke-opacity:1;stroke-miterlimit:4;" d="M 438.500366 44.499609 L 466.499691 40.499854 L 484.999854 56.49991 L 481.000098 60.499666 L 488.999609 66.500334 L 499.000033 82.500391 L 490.999487 88.500024 " transform="matrix(3.779528,0,0,3.779528,0,0)"/>
<path style="fill:none;stroke-width:2;stroke-linecap:butt;stroke-linejoin:miter;stroke:rgb(0%,0%,0%);stroke-opacity:1;stroke-miterlimit:4;" d="M 461.500513 96.000342 L 457.999951 73.999618 L 454.500423 62.00035 L 438.000138 50.500277 " transform="matrix(3.779528,0,0,3.779528,0,0)"/>
<path style="fill:none;stroke-width:2;stroke-linecap:butt;stroke-linejoin:miter;stroke:rgb(0%,0%,0%);stroke-opacity:1;stroke-miterlimit:4;" d="M 443.499544 54.500033 L 459.499601 70.50009 L 465.000041 92.49978 L 470.999674 108.499837 L 470.50048 119.99991 " transform="matrix(3.779528,0,0,3.779528,0,0)"/>
<path style="fill:none;stroke-width:2;stroke-linecap:butt;stroke-linejoin:miter;stroke:rgb(0%,0%,0%);stroke-opacity:1;stroke-miterlimit:4;" d="M 425.499609 152.000024 L 415.50022 135.999967 L 423.499731 121.499561 L 431.500277 99.49987 L 427.499487 82.999585 L 419.499976 78.999829 " transform="matrix(3.779528,0,0,3.779528,0,0)"/>
<path style="fill:none;stroke-width:2;stroke-linecap:butt;stroke-linejoin:miter;stroke:rgb(0%,0%,0%);stroke-opacity:1;stroke-miterlimit:4;" d="M 414.499764 82.999585 L 418.49952 62.999772 L 410.500008 79.500057 L 400.499585 95.500114 L 384.999756 103.999854 L 393.000301 125.999544 L 413.000114 142.499829 L 413.000114 158.499886 L 404.999569 175.000171 " transform="matrix(3.779528,0,0,3.779528,0,0)"/>
<path style="fill:none;stroke-width:2;stroke-linecap:butt;stroke-linejoin:miter;stroke:rgb(0%,0%,0%);stroke-opacity:1;stroke-miterlimit:4;" d="M 358.500081 103.499626 L 366.499593 87.499569 L 370.000155 87.499569 " transform="matrix(3.779528,0,0,3.779528,0,0)"/>
<path style="fill:none;stroke-width:2;stroke-linecap:butt;stroke-linejoin:miter;stroke:rgb(0%,0%,0%);stroke-opacity:1;stroke-miterlimit:4;" d="M 370.500382 73.500423 L 354.500326 77.500179 " transform="matrix(3.779528,0,0,3.779528,0,0)"/>
<path style="fill:none;stroke-width:2;stroke-linecap:butt;stroke-linejoin:miter;stroke:rgb(0%,0%,0%);stroke-opacity:1;stroke-miterlimit:4;" d="M 359.000309 75.999495 L 354.99952 91.500358 " transform="matrix(3.779528,0,0,3.779528,0,0)"/>
<path style="fill:none;stroke-width:2;stroke-linecap:butt;stroke-linejoin:miter;stroke:rgb(0%,0%,0%);stroke-opacity:1;stroke-miterlimit:4;" d="M 348.999886 71.499512 L 361.000187 63.5 L 354.500326 79.500057 L 350.499536 95.500114 L 354.500326 109.999487 L 370.000155 87.999797 L 393.999723 75.999495 L 409.499552 54.500033 " transform="matrix(3.779528,0,0,3.779528,0,0)"/>
<path style="fill:none;stroke-width:2;stroke-linecap:butt;stroke-linejoin:miter;stroke:rgb(0%,0%,0%);stroke-opacity:1;stroke-miterlimit:4;" d="M 412.499886 60.499666 L 406.500252 60.499666 L 390.500195 78.499601 L 382.49965 94.499658 L 380.499772 110.499715 L 386.500439 126.499772 L 391.000423 134.500317 L 390.500195 150.000146 L 392.500073 166.000203 L 404.500374 161.50022 L 406.500252 148.999691 L 422.000081 157.500464 L 404.000146 161.50022 " transform="matrix(3.779528,0,0,3.779528,0,0)"/>
<path style="fill:none;stroke-width:2;stroke-linecap:butt;stroke-linejoin:miter;stroke:rgb(0%,0%,0%);stroke-opacity:1;stroke-miterlimit:4;" d="M 392.500073 79.500057 L 392.500073 95.500114 L 403.499919 87.499569 L 420.000203 59.500244 L 443.999772 59.500244 L 459.999829 75.999495 L 475.999886 75.999495 L 490.500293 83.499813 " transform="matrix(3.779528,0,0,3.779528,0,0)"/>
<path style="fill:none;stroke-width:2;stroke-linecap:butt;stroke-linejoin:miter;stroke:rgb(0%,0%,0%);stroke-opacity:1;stroke-miterlimit:4;" d="M 468.000374 108.499837 L 466.499691 103.999854 L 448.499756 91.999552 L 440.500244 76.499723 L 438.999561 60.499666 " transform="matrix(3.779528,0,0,3.779528,0,0)"/>
<path style="fill:none;stroke-width:2;stroke-linecap:butt;stroke-linejoin:miter;stroke:rgb(0%,0%,0%);stroke-opacity:1;stroke-miterlimit:4;" d="M 424.500187 62.499544 L 416.499642 78.499601 L 416.499642 94.499658 L 424.500187 110.499715 " transform="matrix(3.779528,0,0,3.779528,0,0)"/>
<path style="fill:none;stroke-width:2;stroke-linecap:butt;stroke-linejoin:miter;stroke:rgb(0%,0%,0%);stroke-opacity:1;stroke-miterlimit:4;" d="M 415.50022 143.500285 L 399.500163 127 L 383.500106 127 L 366.999821 121.000366 L 354.99952 127.500228 L 339.000496 133.499862 L 325.000317 103.999854 L 291.000326 101.999976 L 259.000212 86.500146 L 223.000342 70.50009 L 188.500122 54.500033 " transform="matrix(3.779528,0,0,3.779528,0,0)"/>
<path style="fill:none;stroke-width:2;stroke-linecap:butt;stroke-linejoin:miter;stroke:rgb(0%,0%,0%);stroke-opacity:1;stroke-miterlimit:4;" d="M 189.00035 48.500399 L 225.00022 64.500456 L 250.999666 71.99974 L 277.000146 87.999797 L 306.500155 103.999854 L 330.499723 123.500472 L 336.500391 139.499495 L 338.500269 155.99978 L 344.499902 171.999837 L 348.999886 187.999894 L 352.999642 203.999951 L 350.999764 220.000008 L 348.999886 235.499837 L 346.49978 251.499894 L 344.499902 268.000179 L 343.999674 284.000236 L 342.500024 300.000293 " transform="matrix(3.779528,0,0,3.779528,0,0)"/>
<path style="fill:none;stroke-width:2;stroke-linecap:butt;stroke-linejoin:miter;stroke:rgb(0%,0%,0%);stroke-opacity:1;stroke-miterlimit:4;" d="M 320.000106 336.000163 L 303.499821 359.499504 L 287.499764 387.499862 L 271.499707 413.500342 L 255.999878 427.000293 " transform="matrix(3.779528,0,0,3.779528,0,0)"/>
<path style="fill:none;stroke-width:2;stroke-linecap:butt;stroke-linejoin:miter;stroke:rgb(0%,0%,0%);stroke-opacity:1;stroke-miterlimit:4;" d="M 241.999699 427.999715 L 216.000252 444.5 " transform="matrix(3.779528,0,0,3.779528,0,0)"/>
<path style="fill:none;stroke-width:2;stroke-linecap:butt;stroke-linejoin:miter;stroke:rgb(0%,0%,0%);stroke-opacity:1;stroke-miterlimit:4;" d="M 218.00013 474.000008 L 234.000187 477.999764 " transform="matrix(3.779528,0,0,3.779528,0,0)"/>
<path style="fill:none;stroke-width:2;stroke-linecap:butt;stroke-linejoin:miter;stroke:rgb(0%,0%,0%);stroke-opacity:1;stroke-miterlimit:4;" d="M 236.500293 486.999731 L 220.000008 476.500114 " transform="matrix(3.779528,0,0,3.779528,0,0)"/>
<path style="fill:none;stroke-width:2;stroke-linecap:butt;stroke-linejoin:miter;stroke:rgb(0%,0%,0%);stroke-opacity:1;stroke-miterlimit:4;" d="M 218.999552 474.500236 L 236.999487 490.500293 L 241.000277 506.50035 " transform="matrix(3.779528,0,0,3.779528,0,0)"/>
<path style="fill:none;stroke-width:2;stroke-linecap:butt;stroke-linejoin:miter;stroke:rgb(0%,0%,0%);stroke-opacity:1;stroke-miterlimit:4;" d="M 246.000488 500.499683 L 248.499561 484.499626 L 258.499984 468.499569 L 242.499927 458.500179 " transform="matrix(3.779528,0,0,3.779528,0,0)"/>
<path style="fill:none;stroke-width:2;stroke-linecap:butt;stroke-linejoin:miter;stroke:rgb(0%,0%,0%);stroke-opacity:1;stroke-miterlimit:4;" d="M 216.999674 438.500366 L 243.500382 426.500065 L 227.500326 434.499577 L 211.500269 442.500122 L 195.500212 452.499512 L 179.500155 456.999495 " transform="matrix(3.779528,0,0,3.779528,0,0)"/>
<path style="fill:none;stroke-width:2;stroke-linecap:butt;stroke-linejoin:miter;stroke:rgb(0%,0%,0%);stroke-opacity:1;stroke-miterlimit:4;" d="M 202.999495 425.999837 L 232.999731 409.99978 L 234.500415 393.999723 L 236.000065 365.500171 L 212.000496 348.999886 L 183.49991 341.000374 L 167.499854 347.000008 " transform="matrix(3.779528,0,0,3.779528,0,0)"/>
<path style="fill:none;stroke-width:2;stroke-linecap:butt;stroke-linejoin:miter;stroke:rgb(0%,0%,0%);stroke-opacity:1;stroke-miterlimit:4;" d="M 165.499976 355.499748 L 181.500033 349.500114 L 197.50009 351.499992 L 213.500146 363.500293 " transform="matrix(3.779528,0,0,3.779528,0,0)"/>
<path style="fill:none;stroke-width:2;stroke-linecap:butt;stroke-linejoin:miter;stroke:rgb(0%,0%,0%);stroke-opacity:1;stroke-miterlimit:4;" d="M 228.499748 366.999821 L 212.499691 355.499748 L 196.499634 345.00013 " transform="matrix(3.779528,0,0,3.779528,0,0)"/>
<path style="fill:none;stroke-width:2;stroke-linecap:butt;stroke-linejoin:miter;stroke:rgb(0%,0%,0%);stroke-opacity:1;stroke-miterlimit:4;" d="M 198.000317 341.000374 L 214.000374 348.999886 L 229.500203 360.499959 L 247.500138 360.499959 " transform="matrix(3.779528,0,0,3.779528,0,0)"/>
<path style="fill:none;stroke-width:2;stroke-linecap:butt;stroke-linejoin:miter;stroke:rgb(0%,0%,0%);stroke-opacity:1;stroke-miterlimit:4;" d="M 252.999544 359.499504 L 236.500293 347.500236 " transform="matrix(3.779528,0,0,3.779528,0,0)"/>
<path style="fill:none;stroke-width:2;stroke-linecap:butt;stroke-linejoin:miter;stroke:rgb(0%,0%,0%);stroke-opacity:1;stroke-miterlimit:4;" d="M 221.999886 327.500423 L 225.999642 311.500366 L 230.000431 295.999504 L 232.499504 280.00048 L 234.500415 286.000114 " transform="matrix(3.779528,0,0,3.779528,0,0)"/>
<path style="fill:none;stroke-width:2;stroke-linecap:butt;stroke-linejoin:miter;stroke:rgb(0%,0%,0%);stroke-opacity:1;stroke-miterlimit:4;" d="M 239.999821 277.999569 L 271.499707 293.999626 L 302.999593 309.500488 L 323.000439 325.499512 L 314.999894 341.499569 L 305.000505 357.999854 L 284.999658 389.999967 L 277.500374 406.000024 L 259.500439 422.000081 L 253.499772 438.000138 L 253.499772 454.000195 L 241.500505 470.000252 L 241.500505 481.99952 L 247.500138 465.500269 L 264.000423 481.000098 L 280.00048 485.500081 L 296.499731 487.499959 L 312.499788 483.500203 L 328.499845 470.000252 L 343.999674 463.999585 " transform="matrix(3.779528,0,0,3.779528,0,0)"/>
<path style="fill:none;stroke-width:2;stroke-linecap:butt;stroke-linejoin:miter;stroke:rgb(0%,0%,0%);stroke-opacity:1;stroke-miterlimit:4;" d="M 336.999585 465.000041 L 311.000138 482.999976 L 318.99965 472.999552 L 334.500513 460.500057 " transform="matrix(3.779528,0,0,3.779528,0,0)"/>
<path style="fill:none;stroke-width:2;stroke-linecap:butt;stroke-linejoin:miter;stroke:rgb(0%,0%,0%);stroke-opacity:1;stroke-miterlimit:4;" d="M 337.499813 458.500179 L 316.999772 474.500236 L 298.999837 480.49987 L 296.499731 488.000187 L 287.999992 504.000244 L 289.99987 499.50026 " transform="matrix(3.779528,0,0,3.779528,0,0)"/>
<path style="fill:none;stroke-width:2;stroke-linecap:butt;stroke-linejoin:miter;stroke:rgb(0%,0%,0%);stroke-opacity:1;stroke-miterlimit:4;" d="M 377.000244 423.499731 L 393.000301 419.499976 " transform="matrix(3.779528,0,0,3.779528,0,0)"/>
<path style="fill:none;stroke-width:2;stroke-linecap:butt;stroke-linejoin:miter;stroke:rgb(0%,0%,0%);stroke-opacity:1;stroke-miterlimit:4;" d="M 391.000423 416.000448 L 374.500138 420.000203 " transform="matrix(3.779528,0,0,3.779528,0,0)"/>
<path style="fill:none;stroke-width:2;stroke-linecap:butt;stroke-linejoin:miter;stroke:rgb(0%,0%,0%);stroke-opacity:1;stroke-miterlimit:4;" d="M 372.000033 406.000024 L 388.500317 402.000269 " transform="matrix(3.779528,0,0,3.779528,0,0)"/>
<path style="fill:none;stroke-width:2;stroke-linecap:butt;stroke-linejoin:miter;stroke:rgb(0%,0%,0%);stroke-opacity:1;stroke-miterlimit:4;" d="M 375.000366 380.499772 L 350.999764 390.500195 L 366.499593 384.999756 L 382.49965 381 L 398.000513 375.499561 " transform="matrix(3.779528,0,0,3.779528,0,0)"/>
<path style="fill:none;stroke-width:2;stroke-linecap:butt;stroke-linejoin:miter;stroke:rgb(0%,0%,0%);stroke-opacity:1;stroke-miterlimit:4;" d="M 404.000146 379.999544 L 388.00009 386.000212 L 372.000033 389.49974 L 355.999976 393.499495 " transform="matrix(3.779528,0,0,3.779528,0,0)"/>
<path style="fill:none;stroke-width:2;stroke-linecap:butt;stroke-linejoin:miter;stroke:rgb(0%,0%,0%);stroke-opacity:1;stroke-miterlimit:4;" d="M 418.49952 496.499927 L 434.000382 492.500171 L 418.000326 496.499927 L 427.499487 488.500415 L 447.500334 493.000399 L 425.499609 508.500228 L 438.500366 497.000155 L 454.500423 493.000399 L 470.999674 490.500293 " transform="matrix(3.779528,0,0,3.779528,0,0)"/>
<path style="fill:none;stroke-width:2;stroke-linecap:butt;stroke-linejoin:miter;stroke:rgb(0%,0%,0%);stroke-opacity:1;stroke-miterlimit:4;" d="M 466.499691 494.500049 L 450.499634 499.000033 L 434.000382 504.999666 L 445.99965 499.000033 " transform="matrix(3.779528,0,0,3.779528,0,0)"/>
<path style="fill:none;stroke-width:2;stroke-linecap:butt;stroke-linejoin:miter;stroke:rgb(0%,0%,0%);stroke-opacity:1;stroke-miterlimit:4;" d="M 212.499691 336.000163 L 196.499634 329.500301 " transform="matrix(3.779528,0,0,3.779528,0,0)"/>
<path style="fill:none;stroke-width:2;stroke-linecap:butt;stroke-linejoin:miter;stroke:rgb(0%,0%,0%);stroke-opacity:1;stroke-miterlimit:4;" d="M 194.999984 326.499967 L 210.499813 330.499723 " transform="matrix(3.779528,0,0,3.779528,0,0)"/>
<path style="fill:none;stroke-width:2;stroke-linecap:butt;stroke-linejoin:miter;stroke:rgb(0%,0%,0%);stroke-opacity:1;stroke-miterlimit:4;" d="M 189.499544 341.999797 L 213.500146 357.999854 L 237.999943 373.99991 L 255.999878 391.999845 " transform="matrix(3.779528,0,0,3.779528,0,0)"/>
<path style="fill:none;stroke-width:2;stroke-linecap:butt;stroke-linejoin:miter;stroke:rgb(0%,0%,0%);stroke-opacity:1;stroke-miterlimit:4;" d="M 198.000317 391.499618 L 216.000252 375.999788 L 200.000195 386.000212 L 184.000138 382.49965 L 168.000081 360.499959 " transform="matrix(3.779528,0,0,3.779528,0,0)"/>
<path style="fill:none;stroke-width:2;stroke-linecap:butt;stroke-linejoin:miter;stroke:rgb(0%,0%,0%);stroke-opacity:1;stroke-miterlimit:4;" d="M 159.500342 363.000065 L 175.500399 379.000122 L 185.499788 395.999601 " transform="matrix(3.779528,0,0,3.779528,0,0)"/>
<path style="fill:none;stroke-width:2;stroke-linecap:butt;stroke-linejoin:miter;stroke:rgb(0%,0%,0%);stroke-opacity:1;stroke-miterlimit:4;" d="M 207.000285 379.999544 L 211.000041 363.500293 L 189.00035 347.500236 " transform="matrix(3.779528,0,0,3.779528,0,0)"/>
<path style="fill:none;stroke-width:2;stroke-linecap:butt;stroke-linejoin:miter;stroke:rgb(0%,0%,0%);stroke-opacity:1;stroke-miterlimit:4;" d="M 178.000505 341.000374 L 166.000203 357.000431 L 180.000382 373.499683 " transform="matrix(3.779528,0,0,3.779528,0,0)"/>
<path style="fill:none;stroke-width:2;stroke-linecap:butt;stroke-linejoin:miter;stroke:rgb(0%,0%,0%);stroke-opacity:1;stroke-miterlimit:4;" d="M 142.499829 343.999674 L 126.499772 352.500448 L 110.499715 359.999731 L 94.000464 363.999487 L 78.000407 355.999976 L 62.00035 334.000285 " transform="matrix(3.779528,0,0,3.779528,0,0)"/>
<path style="fill:none;stroke-width:2;stroke-linecap:butt;stroke-linejoin:miter;stroke:rgb(0%,0%,0%);stroke-opacity:1;stroke-miterlimit:4;" d="M 51.000505 323.999862 L 66.999528 355.999976 L 83.499813 367.500049 " transform="matrix(3.779528,0,0,3.779528,0,0)"/>
<path style="fill:none;stroke-width:2;stroke-linecap:butt;stroke-linejoin:miter;stroke:rgb(0%,0%,0%);stroke-opacity:1;stroke-miterlimit:4;" d="M 118.50026 355.499748 L 146.499585 339.499691 L 150.500374 323.999862 L 150.000146 308.500033 L 135.999967 286.999536 L 119.99991 295.000081 L 103.499626 298.999837 L 87.499569 307.000382 L 71.499512 310.49991 L 55.500488 309.00026 " transform="matrix(3.779528,0,0,3.779528,0,0)"/>
<path style="fill:none;stroke-width:2;stroke-linecap:butt;stroke-linejoin:miter;stroke:rgb(0%,0%,0%);stroke-opacity:1;stroke-miterlimit:4;" d="M 50.000049 314.000472 L 55.999683 321.999984 L 62.00035 338.000041 L 73.999618 354.000098 " transform="matrix(3.779528,0,0,3.779528,0,0)"/>
<path style="fill:none;stroke-width:2;stroke-linecap:butt;stroke-linejoin:miter;stroke:rgb(0%,0%,0%);stroke-opacity:1;stroke-miterlimit:4;" d="M 18.500163 354.000098 L 2.500106 344.499902 " transform="matrix(3.779528,0,0,3.779528,0,0)"/>
<path style="fill:none;stroke-width:2;stroke-linecap:butt;stroke-linejoin:miter;stroke:rgb(0%,0%,0%);stroke-opacity:1;stroke-miterlimit:4;" d="M 3.999756 339.499691 L 10.000423 343.50048 " transform="matrix(3.779528,0,0,3.779528,0,0)"/>
<path style="fill:none;stroke-width:2;stroke-linecap:butt;stroke-linejoin:miter;stroke:rgb(0%,0%,0%);stroke-opacity:1;stroke-miterlimit:4;" d="M 0.500228 339.000496 L 16.500285 348.499658 L 32.999536 362.499837 " transform="matrix(3.779528,0,0,3.779528,0,0)"/>
<path style="fill:none;stroke-width:2;stroke-linecap:butt;stroke-linejoin:miter;stroke:rgb(0%,0%,0%);stroke-opacity:1;stroke-miterlimit:4;" d="M 17.999935 382.000456 L 1.999878 376.500016 " transform="matrix(3.779528,0,0,3.779528,0,0)"/>
<path style="fill:none;stroke-width:2;stroke-linecap:butt;stroke-linejoin:miter;stroke:rgb(0%,0%,0%);stroke-opacity:1;stroke-miterlimit:4;" d="M 3.000334 372.000033 L 19.000391 375.499561 " transform="matrix(3.779528,0,0,3.779528,0,0)"/>
<path style="fill:none;stroke-width:2;stroke-linecap:butt;stroke-linejoin:miter;stroke:rgb(0%,0%,0%);stroke-opacity:1;stroke-miterlimit:4;" d="M 17.499707 400.000391 L 1.000456 395.500407 " transform="matrix(3.779528,0,0,3.779528,0,0)"/>
<path style="fill:none;stroke-width:2;stroke-linecap:butt;stroke-linejoin:miter;stroke:rgb(0%,0%,0%);stroke-opacity:1;stroke-miterlimit:4;" d="M 1.999878 400.499585 L 17.999935 406.500252 " transform="matrix(3.779528,0,0,3.779528,0,0)"/>
<path style="fill:none;stroke-width:2;stroke-linecap:butt;stroke-linejoin:miter;stroke:rgb(0%,0%,0%);stroke-opacity:1;stroke-miterlimit:4;" d="M 3.999756 410.500008 L 10.000423 426.500065 L 20.500041 432.499699 L 40.499854 448.999984 L 24.499797 461.000285 L 6.499862 468.999797 L 22.499919 463.000163 L 38.499976 455.499845 " transform="matrix(3.779528,0,0,3.779528,0,0)"/>
<path style="fill:none;stroke-width:2;stroke-linecap:butt;stroke-linejoin:miter;stroke:rgb(0%,0%,0%);stroke-opacity:1;stroke-miterlimit:4;" d="M 43.500187 463.999585 L 27.50013 470.000252 " transform="matrix(3.779528,0,0,3.779528,0,0)"/>
<path style="fill:none;stroke-width:2;stroke-linecap:butt;stroke-linejoin:miter;stroke:rgb(0%,0%,0%);stroke-opacity:1;stroke-miterlimit:4;" d="M 17.499707 478.499992 L 33.499764 472.500358 L 49.499821 466.499691 L 65.499878 472.500358 L 81.499935 484.000431 L 98.00022 486.000309 L 114.500505 481.99952 L 130.499528 479.500448 L 146.499585 491.999943 L 162.99987 506.000122 " transform="matrix(3.779528,0,0,3.779528,0,0)"/>
<path style="fill:none;stroke-width:2;stroke-linecap:butt;stroke-linejoin:miter;stroke:rgb(0%,0%,0%);stroke-opacity:1;stroke-miterlimit:4;" d="M 168.500309 504.500472 L 148.999691 488.999609 L 117.499805 472.999552 L 101.499748 477.000342 L 85.499691 476.500114 L 69.499634 468.499569 " transform="matrix(3.779528,0,0,3.779528,0,0)"/>
<path style="fill:none;stroke-width:2;stroke-linecap:butt;stroke-linejoin:miter;stroke:rgb(0%,0%,0%);stroke-opacity:1;stroke-miterlimit:4;" d="M 91.500358 472.999552 L 75.000073 465.000041 L 59.000016 461.000285 L 42.499731 444.5 L 26.00048 432.999927 " transform="matrix(3.779528,0,0,3.779528,0,0)"/>
<path style="fill:none;stroke-width:2;stroke-linecap:butt;stroke-linejoin:miter;stroke:rgb(0%,0%,0%);stroke-opacity:1;stroke-miterlimit:4;" d="M 42.999959 436.999683 L 59.000016 443.499544 L 75.000073 447.500334 L 95.500114 447.500334 L 114.000277 463.999585 L 116.500382 479.999642 " transform="matrix(3.779528,0,0,3.779528,0,0)"/>
<path style="fill:none;stroke-width:2;stroke-linecap:butt;stroke-linejoin:miter;stroke:rgb(0%,0%,0%);stroke-opacity:1;stroke-miterlimit:4;" d="M 126.499772 481.000098 L 148.500496 497.000155 " transform="matrix(3.779528,0,0,3.779528,0,0)"/>
<path style="fill:none;stroke-width:2;stroke-linecap:butt;stroke-linejoin:miter;stroke:rgb(0%,0%,0%);stroke-opacity:1;stroke-miterlimit:4;" d="M 108.499837 466.000496 L 92.49978 450.000439 L 76.499723 440.000016 L 60.499666 434.000382 L 44.499609 432.000505 L 28.499552 427.499487 L 12.499495 421.499854 " transform="matrix(3.779528,0,0,3.779528,0,0)"/>
<path style="fill:none;stroke-width:2;stroke-linecap:butt;stroke-linejoin:miter;stroke:rgb(0%,0%,0%);stroke-opacity:1;stroke-miterlimit:4;" d="M 1.999878 420.500431 L 17.999935 432.999927 L 33.499764 445.000228 L 29.500008 465.000041 L 3.999756 478.499992 L 19.999813 470.000252 L 35.499642 461.999707 L 51.000505 443.999772 L 78.999829 468.000374 " transform="matrix(3.779528,0,0,3.779528,0,0)"/>
<path style="fill:none;stroke-width:2;stroke-linecap:butt;stroke-linejoin:miter;stroke:rgb(0%,0%,0%);stroke-opacity:1;stroke-miterlimit:4;" d="M 104.500081 461.500513 L 84.500269 445.99965 L 68.500212 429.999593 " transform="matrix(3.779528,0,0,3.779528,0,0)"/>
<path style="fill:none;stroke-width:2;stroke-linecap:butt;stroke-linejoin:miter;stroke:rgb(0%,0%,0%);stroke-opacity:1;stroke-miterlimit:4;" d="M 1.999878 413.000114 L 17.999935 418.999748 L 34.50022 425.000415 L 50.000049 429.000171 L 66.000106 429.000171 L 81.499935 436.500488 L 97.499992 448.499756 L 112.999821 462.499935 L 128.999878 474.000008 L 144.499707 483.500203 L 160.499764 497.500382 " transform="matrix(3.779528,0,0,3.779528,0,0)"/>
<path style="fill:none;stroke-width:2;stroke-linecap:butt;stroke-linejoin:miter;stroke:rgb(0%,0%,0%);stroke-opacity:1;stroke-miterlimit:4;" d="M 258.499984 392.500073 L 248.499561 402.500496 L 232.499504 410.500008 L 216.50048 420.500431 L 200.000195 428.499943 L 184.500366 434.499577 L 168.500309 441.999894 L 152.500252 433.500155 L 136.500195 422.999504 L 119.99991 412.499886 L 104.500081 402.500496 L 88.500024 393.000301 L 80.000285 364.999943 L 64.000228 348.999886 L 53.499577 332.999829 L 48.999593 316.999772 L 47.499943 300.999715 L 53.499577 284.999658 L 63.5 269.499829 L 48.000171 301.499943 " transform="matrix(3.779528,0,0,3.779528,0,0)"/>
<path style="fill:none;stroke-width:2;stroke-linecap:butt;stroke-linejoin:miter;stroke:rgb(0%,0%,0%);stroke-opacity:1;stroke-miterlimit:4;" d="M 45.500065 270.000057 L 5.500439 284.000236 L 21.500496 278.499797 L 37.49952 274.500041 L 53.999805 268.999601 L 69.999862 271.000513 L 85.999919 261.500317 L 101.999976 255.49965 L 118.000033 248.999788 L 134.00009 250.999666 L 150.000146 274.500041 " transform="matrix(3.779528,0,0,3.779528,0,0)"/>
<path style="fill:none;stroke-width:2;stroke-linecap:butt;stroke-linejoin:miter;stroke:rgb(0%,0%,0%);stroke-opacity:1;stroke-miterlimit:4;" d="M 133.499862 271.499707 L 117.499805 259.500439 " transform="matrix(3.779528,0,0,3.779528,0,0)"/>
<path style="fill:none;stroke-width:2;stroke-linecap:butt;stroke-linejoin:miter;stroke:rgb(0%,0%,0%);stroke-opacity:1;stroke-miterlimit:4;" d="M 109.999487 255.49965 L 125.999544 257.999756 L 141.999601 274.500041 " transform="matrix(3.779528,0,0,3.779528,0,0)"/>
<path style="fill:none;stroke-width:2;stroke-linecap:butt;stroke-linejoin:miter;stroke:rgb(0%,0%,0%);stroke-opacity:1;stroke-miterlimit:4;" d="M 157.999658 277.000146 L 141.999601 250.999666 L 125.999544 241.000277 L 109.999487 245.000033 L 94.000464 250.500472 L 78.000407 255.999878 L 61.500122 259.500439 L 45.500065 265.500073 L 29.500008 269.499829 L 13.499951 275.000269 L 9.500195 280.999902 L 39.500431 264.999845 " transform="matrix(3.779528,0,0,3.779528,0,0)"/>
<path style="fill:none;stroke-width:2;stroke-linecap:butt;stroke-linejoin:miter;stroke:rgb(0%,0%,0%);stroke-opacity:1;stroke-miterlimit:4;" d="M 48.999593 226.49987 L 41.000081 230.000431 L 57.000138 223.999764 L 73.000195 219.49978 L 88.500024 213.500146 L 103.999854 209.500391 L 119.99991 209.500391 L 135.49974 207.500513 L 151.499797 211.500269 L 167.499854 218.00013 " transform="matrix(3.779528,0,0,3.779528,0,0)"/>
<path style="fill:none;stroke-width:2;stroke-linecap:butt;stroke-linejoin:miter;stroke:rgb(0%,0%,0%);stroke-opacity:1;stroke-miterlimit:4;" d="M 196.000439 238.500171 L 178.000505 230.000431 L 162.499642 220.000008 L 146.499585 214.000374 L 130.499528 214.000374 L 114.000277 216.000252 L 94.000464 221.999886 L 106.499959 216.50048 L 114.999699 216.50048 L 127 227.99952 L 110.999943 236.000065 L 124.499894 221.999886 L 132.500439 221.499658 L 112.000399 230.000431 L 96.000342 230.000431 " transform="matrix(3.779528,0,0,3.779528,0,0)"/>
<path style="fill:none;stroke-width:2;stroke-linecap:butt;stroke-linejoin:miter;stroke:rgb(0%,0%,0%);stroke-opacity:1;stroke-miterlimit:4;" d="M 105.000309 211.500269 L 94.499658 227.99952 L 93.000008 250.000244 L 76.999951 264.000423 L 64.99965 280.00048 L 57.000138 295.999504 L 57.000138 312.499788 L 68.500212 314.499666 L 72.499967 320.500334 L 76.499723 316.999772 L 98.500448 314.999894 L 112.499593 311.000138 L 130.499528 307.000382 L 144.499707 289.499642 " transform="matrix(3.779528,0,0,3.779528,0,0)"/>
<path style="fill:none;stroke-width:2;stroke-linecap:butt;stroke-linejoin:miter;stroke:rgb(0%,0%,0%);stroke-opacity:1;stroke-miterlimit:4;" d="M 107.500415 305.999927 L 107.000187 295.999504 L 82.999585 311.500366 L 89.000252 315.500122 " transform="matrix(3.779528,0,0,3.779528,0,0)"/>
<path style="fill:none;stroke-width:2;stroke-linecap:butt;stroke-linejoin:miter;stroke:rgb(0%,0%,0%);stroke-opacity:1;stroke-miterlimit:4;" d="M 82.500391 369.499927 L 66.500334 369.499927 L 50.000049 350.999764 L 33.999992 345.00013 L 17.999935 333.500057 L 1.999878 325.499512 " transform="matrix(3.779528,0,0,3.779528,0,0)"/>
<path style="fill:none;stroke-width:2;stroke-linecap:butt;stroke-linejoin:miter;stroke:rgb(0%,0%,0%);stroke-opacity:1;stroke-miterlimit:4;" d="M 3.499528 325.99974 L 17.499707 341.999797 L 48.999593 352.500448 L 62.999772 368.500505 L 83.499813 398.499707 L 99.49987 408.50013 L 115.499927 418.49952 L 131.499984 427.999715 L 147.500041 438.000138 L 163.500098 447.999528 L 180.000382 441.499666 L 195.500212 433.500155 L 211.500269 427.000293 L 227.500326 418.999748 L 243.000155 409.000358 L 259.500439 398.999935 " transform="matrix(3.779528,0,0,3.779528,0,0)"/>
<path style="fill:none;stroke-width:2;stroke-linecap:butt;stroke-linejoin:miter;stroke:rgb(0%,0%,0%);stroke-opacity:1;stroke-miterlimit:4;" d="M 302.999593 304.000049 L 273.000391 287.999992 L 241.000277 271.999935 L 227.000098 254 L 218.999552 237.999943 L 201.499845 221.999886 L 169.499731 212.000496 L 153.999902 205.999829 L 138.500073 203.999951 L 122.500016 203.499723 " transform="matrix(3.779528,0,0,3.779528,0,0)"/>
<path style="fill:none;stroke-width:2;stroke-linecap:butt;stroke-linejoin:miter;stroke:rgb(0%,0%,0%);stroke-opacity:1;stroke-miterlimit:4;" d="M 132.999634 241.999699 L 141.000179 257.499528 L 150.999569 275.000269 L 146.999813 291.000326 L 128.999878 295.000081 " transform="matrix(3.779528,0,0,3.779528,0,0)"/>
<path style="fill:none;stroke-width:2;stroke-linecap:butt;stroke-linejoin:miter;stroke:rgb(0%,0%,0%);stroke-opacity:1;stroke-miterlimit:4;" d="M 121.499561 298.000415 L 141.500407 287.499764 L 131.499984 271.499707 L 107.500415 255.49965 " transform="matrix(3.779528,0,0,3.779528,0,0)"/>
<path style="fill:none;stroke-width:2;stroke-linecap:butt;stroke-linejoin:miter;stroke:rgb(0%,0%,0%);stroke-opacity:1;stroke-miterlimit:4;" d="M 114.000277 251.499894 L 135.999967 267.499951 L 146.000391 282.99978 L 153.999902 298.999837 L 155.99978 314.999894 L 159.999536 325.000317 L 146.000391 350.999764 L 121.999788 366.999821 L 83.499813 383.500106 L 85.499691 399.500163 L 110.999943 415.50022 L 137.499618 432.000505 L 162.000448 447.500334 " transform="matrix(3.779528,0,0,3.779528,0,0)"/>
<path style="fill:none;stroke-width:2;stroke-linecap:butt;stroke-linejoin:miter;stroke:rgb(0%,0%,0%);stroke-opacity:1;stroke-miterlimit:4;" d="M 158.499886 438.000138 L 132.500439 422.000081 L 106.499959 406.000024 L 84.000041 389.999967 L 119.99991 373.99991 L 146.000391 351.499992 L 130.000334 355.499748 L 114.000277 363.000065 L 97.499992 369.499927 L 80.999707 375.499561 L 65.499878 375.499561 L 49.499821 357.499626 L 33.499764 351.499992 L 17.499707 339.499691 L 1.49965 329.999495 " transform="matrix(3.779528,0,0,3.779528,0,0)"/>
<path style="fill:none;stroke-width:2;stroke-linecap:butt;stroke-linejoin:miter;stroke:rgb(0%,0%,0%);stroke-opacity:1;stroke-miterlimit:4;" d="M 12.499495 332.499601 L 34.50022 348.499658 L 52.500155 361.999609 L 66.500334 377.999666 L 98.500448 384.000334 L 114.500505 377.999666 L 130.000334 370.000155 L 146.000391 363.500293 L 159.999536 363.500293 L 175.999593 375.999788 L 191.99965 393.999723 L 207.999707 386.000212 L 223.999764 377.999666 L 236.000065 372.000033 L 252.000122 382.000456 " transform="matrix(3.779528,0,0,3.779528,0,0)"/>
<path style="fill:none;stroke-width:2;stroke-linecap:butt;stroke-linejoin:miter;stroke:rgb(0%,0%,0%);stroke-opacity:1;stroke-miterlimit:4;" d="M 112.499593 475.499658 L 96.499536 481.500326 L 80.500513 477.499536 L 68.500212 475.499658 L 57.999561 459.499601 L 41.500309 443.999772 L 31.499886 423.999959 L 3.499528 402.000269 " transform="matrix(3.779528,0,0,3.779528,0,0)"/>
<path style="fill:none;stroke-width:2;stroke-linecap:butt;stroke-linejoin:miter;stroke:rgb(0%,0%,0%);stroke-opacity:1;stroke-miterlimit:4;" d="M 46.000293 221.999886 L 3.999756 239.999821 L 9.500195 239.999821 L 25.000024 229.500203 L 28.499552 233.499959 L 44.499609 221.999886 L 60.000472 217.499902 L 75.999495 213.500146 L 91.999552 207.000285 L 107.999609 203.499723 L 123.999666 199.499967 L 139.999723 197.50009 L 155.99978 198.99974 L 171.999837 205.000407 L 190.5 213.500146 L 206.500057 223.499536 L 222.500114 239.000399 " transform="matrix(3.779528,0,0,3.779528,0,0)"/>
<path style="fill:none;stroke-width:2;stroke-linecap:butt;stroke-linejoin:miter;stroke:rgb(0%,0%,0%);stroke-opacity:1;stroke-miterlimit:4;" d="M 287.999992 206.500057 L 305.999927 222.500114 " transform="matrix(3.779528,0,0,3.779528,0,0)"/>
<path style="fill:none;stroke-width:2;stroke-linecap:butt;stroke-linejoin:miter;stroke:rgb(0%,0%,0%);stroke-opacity:1;stroke-miterlimit:4;" d="M 323.000439 223.499536 L 291.000326 207.999707 " transform="matrix(3.779528,0,0,3.779528,0,0)"/>
<path style="fill:none;stroke-width:2;stroke-linecap:butt;stroke-linejoin:miter;stroke:rgb(0%,0%,0%);stroke-opacity:1;stroke-miterlimit:4;" d="M 311.999561 105.999731 L 296.499731 96.499536 L 280.499674 88.500024 L 264.499618 82.999585 " transform="matrix(3.779528,0,0,3.779528,0,0)"/>
<path style="fill:none;stroke-width:2;stroke-linecap:butt;stroke-linejoin:miter;stroke:rgb(0%,0%,0%);stroke-opacity:1;stroke-miterlimit:4;" d="M 250.000244 75.000073 L 266.000301 76.999951 L 281.50013 82.500391 L 297.500187 85.000496 L 313.000016 81.499935 L 318.500456 69.499634 " transform="matrix(3.779528,0,0,3.779528,0,0)"/>
<path style="fill:none;stroke-width:2;stroke-linecap:butt;stroke-linejoin:miter;stroke:rgb(0%,0%,0%);stroke-opacity:1;stroke-miterlimit:4;" d="M 325.499512 77.500179 L 323.499634 93.500236 L 327.999618 109.500293 L 338.000041 123.999666 L 341.499569 148.000269 L 347.500236 169.999959 L 354.000098 186.000016 L 357.999854 201.499845 L 358.500081 215.500024 L 356.500203 231.500081 L 352.00022 247.500138 L 350.000342 263.500195 L 350.000342 279.500252 L 348.000464 295.500309 L 359.999731 298.000415 L 375.999788 284.000236 " transform="matrix(3.779528,0,0,3.779528,0,0)"/>
<path style="fill:none;stroke-width:2;stroke-linecap:butt;stroke-linejoin:miter;stroke:rgb(0%,0%,0%);stroke-opacity:1;stroke-miterlimit:4;" d="M 363.500293 51.499699 L 379.999544 43.500187 " transform="matrix(3.779528,0,0,3.779528,0,0)"/>
<path style="fill:none;stroke-width:2;stroke-linecap:butt;stroke-linejoin:miter;stroke:rgb(0%,0%,0%);stroke-opacity:1;stroke-miterlimit:4;" d="M 374.500138 44.999837 L 356.500203 60.499666 L 340.500146 76.499723 L 338.500269 92.49978 L 342.500024 108.499837 L 354.500326 126.499772 L 359.000309 136.500195 L 364.999943 140.499951 L 381.500228 144.000513 L 398.999935 134.00009 L 400.999813 158.499886 " transform="matrix(3.779528,0,0,3.779528,0,0)"/>
<path style="fill:none;stroke-width:2;stroke-linecap:butt;stroke-linejoin:miter;stroke:rgb(0%,0%,0%);stroke-opacity:1;stroke-miterlimit:4;" d="M 314.000472 81.499935 L 323.999862 65.499878 L 306.500155 80.000285 L 290.500098 82.000163 L 274.500041 78.499601 L 258.499984 69.999862 L 242.499927 71.99974 L 226.49987 64.000228 L 209.999585 55.999683 L 193.999528 50.000049 " transform="matrix(3.779528,0,0,3.779528,0,0)"/>
<path style="fill:none;stroke-width:2;stroke-linecap:butt;stroke-linejoin:miter;stroke:rgb(0%,0%,0%);stroke-opacity:1;stroke-miterlimit:4;" d="M 198.499512 39.500431 L 230.999854 39.500431 L 251.499894 47.499943 L 267.499951 55.500488 L 284.000236 59.500244 " transform="matrix(3.779528,0,0,3.779528,0,0)"/>
<path style="fill:none;stroke-width:2;stroke-linecap:butt;stroke-linejoin:miter;stroke:rgb(0%,0%,0%);stroke-opacity:1;stroke-miterlimit:4;" d="M 268.000179 80.000285 L 254 55.999683 " transform="matrix(3.779528,0,0,3.779528,0,0)"/>
<path style="fill:none;stroke-width:2;stroke-linecap:butt;stroke-linejoin:miter;stroke:rgb(0%,0%,0%);stroke-opacity:1;stroke-miterlimit:4;" d="M 250.000244 48.000171 L 295.500309 50.000049 L 295.999504 50.500277 L 305.999927 60.499666 L 322.500212 64.000228 " transform="matrix(3.779528,0,0,3.779528,0,0)"/>
<path style="fill:none;stroke-width:2;stroke-linecap:butt;stroke-linejoin:miter;stroke:rgb(0%,0%,0%);stroke-opacity:1;stroke-miterlimit:4;" d="M 271.999935 116.000155 L 256.500106 118.000033 L 252.999544 101.999976 L 236.999487 93.500236 L 221.499658 87.000374 " transform="matrix(3.779528,0,0,3.779528,0,0)"/>
<path style="fill:none;stroke-width:2;stroke-linecap:butt;stroke-linejoin:miter;stroke:rgb(0%,0%,0%);stroke-opacity:1;stroke-miterlimit:4;" d="M 190.5 67.499756 L 206.500057 75.500301 L 223.000342 81.499935 L 239.000399 87.499569 L 254.500228 94.999886 L 270.000057 103.499626 L 286.000114 109.500293 L 302.500399 118.000033 " transform="matrix(3.779528,0,0,3.779528,0,0)"/>
<path style="fill:none;stroke-width:2;stroke-linecap:butt;stroke-linejoin:miter;stroke:rgb(0%,0%,0%);stroke-opacity:1;stroke-miterlimit:4;" d="M 307.499577 121.999788 L 271.499707 116.500382 L 259.500439 100.500326 L 223.499536 84.500269 L 189.499544 68.500212 " transform="matrix(3.779528,0,0,3.779528,0,0)"/>
<path style="fill:none;stroke-width:2;stroke-linecap:butt;stroke-linejoin:miter;stroke:rgb(0%,0%,0%);stroke-opacity:1;stroke-miterlimit:4;" d="M 186.000016 69.000439 L 186.000016 85.000496 L 187.499666 100.99952 L 187.499666 148.999691 L 191.000228 164.49952 L 223.000342 180.499577 L 253.499772 196.000439 " transform="matrix(3.779528,0,0,3.779528,0,0)"/>
<path style="fill:none;stroke-width:2;stroke-linecap:butt;stroke-linejoin:miter;stroke:rgb(0%,0%,0%);stroke-opacity:1;stroke-miterlimit:4;" d="M 139.000301 247.500138 L 150.999569 263.500195 L 160.999992 281.50013 L 158.499886 297.500187 L 159.999536 305.000505 L 166.000203 311.000138 L 166.000203 327.000195 L 152.000024 335.499935 L 139.999723 352.00022 L 100.000098 368.500505 L 85.999919 384.499528 L 101.999976 375.999788 L 118.000033 369.499927 L 134.00009 363.500293 L 151.499797 345.500358 L 169.499731 339.499691 L 185.499788 336.999585 L 202.000073 334.999707 L 218.500358 345.500358 L 234.500415 357.499626 L 248.499561 367.500049 L 264.499618 375.999788 " transform="matrix(3.779528,0,0,3.779528,0,0)"/>
<path style="fill:none;stroke-width:2;stroke-linecap:butt;stroke-linejoin:miter;stroke:rgb(0%,0%,0%);stroke-opacity:1;stroke-miterlimit:4;" d="M 471.499902 128.000456 L 477.499536 120.500138 L 475.499658 104.500081 L 477.499536 80.500513 L 475.499658 64.500456 L 451.50009 48.500399 " transform="matrix(3.779528,0,0,3.779528,0,0)"/>
<path style="fill:none;stroke-width:2;stroke-linecap:butt;stroke-linejoin:miter;stroke:rgb(0%,0%,0%);stroke-opacity:1;stroke-miterlimit:4;" d="M 223.999764 17.499707 L 223.999764 1.49965 " transform="matrix(3.779528,0,0,3.779528,0,0)"/>
<path style="fill:none;stroke-width:2;stroke-linecap:butt;stroke-linejoin:miter;stroke:rgb(0%,0%,0%);stroke-opacity:1;stroke-miterlimit:4;" d="M 218.00013 1.000456 L 220.000008 17.499707 " transform="matrix(3.779528,0,0,3.779528,0,0)"/>
<path style="fill:none;stroke-width:2;stroke-linecap:butt;stroke-linejoin:miter;stroke:rgb(0%,0%,0%);stroke-opacity:1;stroke-miterlimit:4;" d="M 166.000203 1.49965 L 166.000203 17.499707 L 165.499976 33.499764 L 167.499854 49.499821 L 167.499854 65.499878 L 175.999593 48.000171 L 191.99965 47.499943 L 207.999707 35.499642 L 223.999764 33.999992 L 239.999821 33.999992 L 243.999577 40.499854 L 252.000122 54.500033 L 268.000179 64.000228 L 284.000236 69.999862 L 300.000293 67.499756 L 316.499544 66.999528 " transform="matrix(3.779528,0,0,3.779528,0,0)"/>
<path style="fill:none;stroke-width:2;stroke-linecap:butt;stroke-linejoin:miter;stroke:rgb(0%,0%,0%);stroke-opacity:1;stroke-miterlimit:4;" d="M 153.499674 41.500309 L 149.499919 26.00048 L 146.000391 10.499618 " transform="matrix(3.779528,0,0,3.779528,0,0)"/>
<path style="fill:none;stroke-width:2;stroke-linecap:butt;stroke-linejoin:miter;stroke:rgb(0%,0%,0%);stroke-opacity:1;stroke-miterlimit:4;" d="M 143.500285 1.000456 L 143.500285 17.000513 L 147.500041 32.999536 L 151.499797 49.499821 " transform="matrix(3.779528,0,0,3.779528,0,0)"/>
<path style="fill:none;stroke-width:2;stroke-linecap:butt;stroke-linejoin:miter;stroke:rgb(0%,0%,0%);stroke-opacity:1;stroke-miterlimit:4;" d="M 159.000114 1.999878 L 159.500342 17.999935 L 160.999992 33.499764 L 163.500098 49.499821 L 163.500098 65.499878 L 175.999593 81.499935 L 175.999593 97.499992 L 176.499821 114.000277 L 176.499821 130.000334 L 178.999927 146.499585 L 178.999927 162.499642 L 182.999683 194.499756 L 184.999561 209.999585 L 194.999984 223.999764 L 214.999797 239.499593 L 223.000342 255.999878 L 227.000098 271.999935 L 227.000098 288.50022 L 223.499536 304.500277 L 219.49978 320.500334 L 214.999797 344.499902 L 236.999487 360.499959 L 262.49974 375.999788 L 264.000423 389.999967 L 261.999512 397.500285 L 235.499837 413.500342 L 171.499609 445.500456 L 195.500212 456.999495 L 189.499544 463.000163 L 207.500513 448.999984 L 223.999764 438.999561 L 239.999821 431.500277 " transform="matrix(3.779528,0,0,3.779528,0,0)"/>
<path style="fill:none;stroke-width:2;stroke-linecap:butt;stroke-linejoin:miter;stroke:rgb(0%,0%,0%);stroke-opacity:1;stroke-miterlimit:4;" d="M 197.50009 246.000488 L 183.49991 232.499504 L 179.500155 216.50048 L 153.499674 194.999984 L 148.000269 178.999927 L 150.000146 162.499642 L 144.000513 146.499585 L 139.999723 130.000334 L 135.999967 114.000277 L 132.000212 97.499992 L 125.999544 81.499935 L 121.999788 64.99965 L 117.499805 49.499821 L 111.500171 33.499764 L 107.000187 17.499707 L 105.000309 1.49965 " transform="matrix(3.779528,0,0,3.779528,0,0)"/>
</g>
</svg>
