<svg xmlns="http://www.w3.org/2000/svg" width="512mm" height="512mm" viewBox="0 0 512 512" version="1.1"><polyline points="345.5,56.5,327.5,72.5,323.5,88.5,327.5,104.5,327.5,121.0,327.5,137.0,327.5,153.0,327.5,169.0,327.0,185.0,327.0,200.5,326.5,216.5,327.0,232.5,327.0,248.5,327.0,264.5,327.5,280.0,327.5,295.5,327.5,311.0,327.5,327.0,327.5,343.0,327.5,358.5,348.0,366.5,348.0,370.5,370.5,376.5,386.5,377.0,402.5,373.0,418.5,373.0,434.5,373.0,450.5,373.5,466.5,367.5,482.5,367.5,498.5,367.5" stroke="black" stroke-width="2" fill="none" />
<polyline points="506.0,371.5,490.0,373.5,474.0,374.0,458.0,374.5" stroke="black" stroke-width="2" fill="none" />
<polyline points="442.5,378.5,458.5,378.0,474.5,377.5,490.5,377.5,506.0,377.0" stroke="black" stroke-width="2" fill="none" />
<polyline points="474.5,321.0,458.5,321.5,442.5,321.5,426.0,321.0,410.0,321.0,394.0,321.5,378.0,319.5" stroke="black" stroke-width="2" fill="none" />
<polyline points="337.0,376.5,353.0,378.5,369.0,372.5,385.5,372.5,403.5,378.5,419.5,378.5" stroke="black" stroke-width="2" fill="none" />
<polyline points="422.5,380.5,422.5,396.5,422.5,412.5,428.5,422.5,444.5,420.5" stroke="black" stroke-width="2" fill="none" />
<polyline points="433.0,417.0,417.0,425.0,401.0,425.0,384.5,429.5,368.5,429.0,352.5,429.0,336.5,417.0" stroke="black" stroke-width="2" fill="none" />
<polyline points="332.0,420.0,348.0,436.5,364.0,440.0,379.5,440.0,395.5,439.5,411.5,439.0,427.5,439.5,443.5,439.5,459.5,439.5,475.5,439.5,492.0,439.5,507.5,437.5" stroke="black" stroke-width="2" fill="none" />
<polyline points="500.0,428.5,484.0,428.0,468.0,428.0,452.0,428.0,436.0,427.5,420.0,428.0,404.0,428.0,382.5,422.5,367.0,423.0,351.0,423.0,335.0,411.0" stroke="black" stroke-width="2" fill="none" />
<polyline points="335.5,386.5,335.0,388.5,335.0,404.5,332.5,420.0,338.0,436.0" stroke="black" stroke-width="2" fill="none" />
<polyline points="280.0,407.5,286.0,392.0,285.5,376.0,287.5,360.0,286.0,346.5,284.0,330.5,272.0,306.0,286.0,299.5,286.0,289.5,294.0,285.5,294.0,259.5,283.5,253.5,287.5,237.5,288.0,221.5,290.5,205.0,290.5,189.0,271.0,184.5,255.0,184.5" stroke="black" stroke-width="2" fill="none" />
<polyline points="252.5,193.0,252.5,208.5" stroke="black" stroke-width="2" fill="none" />
<polyline points="246.0,205.5,246.0,189.5,230.0,189.5" stroke="black" stroke-width="2" fill="none" />
<polyline points="229.5,191.5,229.5,207.5" stroke="black" stroke-width="2" fill="none" />
<polyline points="230.5,174.5,246.5,174.5,262.5,174.0,278.5,168.0,290.5,182.0,296.5,198.0,292.0,224.0,294.0,239.5,290.0,259.5,290.0,276.0,278.0,292.0,254.0,306.0,260.0,308.0,270.0,324.0,280.0,340.0,263.5,346.0" stroke="black" stroke-width="2" fill="none" />
<polyline points="263.0,363.5,247.0,353.5" stroke="black" stroke-width="2" fill="none" />
<polyline points="246.0,337.0,262.0,341.0,278.0,349.5" stroke="black" stroke-width="2" fill="none" />
<polyline points="277.0,327.5,269.0,321.5,243.0,321.5,227.5,322.0,212.0,322.0" stroke="black" stroke-width="2" fill="none" />
<polyline points="219.5,290.0,235.0,296.0" stroke="black" stroke-width="2" fill="none" />
<polyline points="243.5,296.0,227.5,280.0" stroke="black" stroke-width="2" fill="none" />
<polyline points="247.5,276.0,263.5,280.0" stroke="black" stroke-width="2" fill="none" />
<polyline points="249.5,265.0,249.5,265.0,241.5,274.0,247.5,284.5,263.5,292.5,279.5,283.0,282.0,272.5,276.0,288.5,266.0,304.0" stroke="black" stroke-width="2" fill="none" />
<polyline points="249.5,299.5,231.5,283.0,205.5,280.5,189.5,276.0" stroke="black" stroke-width="2" fill="none" />
<polyline points="190.5,269.0,192.0,257.5,208.0,255.5" stroke="black" stroke-width="2" fill="none" />
<polyline points="186.0,240.5,202.0,248.0,205.5,260.5,219.5,260.5,236.0,236.5" stroke="black" stroke-width="2" fill="none" />
<polyline points="237.5,242.5,227.5,258.5,219.5,280.5,207.5,296.5,209.5,302.5,205.5,320.0,220.0,316.0,236.0,316.0" stroke="black" stroke-width="2" fill="none" />
<polyline points="193.5,319.5,177.5,329.5" stroke="black" stroke-width="2" fill="none" />
<polyline points="163.0,322.5,179.0,308.0,195.0,306.0" stroke="black" stroke-width="2" fill="none" />
<polyline points="188.0,315.5,172.0,327.0,176.0,325.0,192.0,309.0,182.5,293.5,177.0,277.5,189.0,261.5,177.0,271.5" stroke="black" stroke-width="2" fill="none" />
<polyline points="169.0,272.0,185.0,258.0,205.0,243.5,214.5,259.5,210.5,280.0,228.0,290.0,248.5,306.0,258.5,306.0,268.5,296.0,280.5,306.5,284.5,292.5,290.5,312.0,292.5,327.5,292.5,343.5,292.0,359.0,294.0,375.5,295.5,391.5,293.5,407.5,275.5,424.0,292.0,426.0,294.0,418.0" stroke="black" stroke-width="2" fill="none" />
<polyline points="280.0,417.5,264.0,419.0,248.0,419.0,231.5,418.5,215.5,418.5,199.5,418.0,183.5,418.0" stroke="black" stroke-width="2" fill="none" />
<polyline points="176.0,355.5,192.0,355.5" stroke="black" stroke-width="2" fill="none" />
<polyline points="271.0,353.5,255.0,351.5,239.0,351.5,223.0,349.5,207.0,352.0,191.0,349.5,175.0,355.5,175.0,343.0,171.0,327.0,172.5,311.0,187.0,287.0,177.0,263.0,191.0,247.0,191.0,247.5,175.0,248.0" stroke="black" stroke-width="2" fill="none" />
<polyline points="167.5,254.0,179.5,250.0,175.5,250.0,169.0,266.0,170.5,281.5,174.0,288.0" stroke="black" stroke-width="2" fill="none" />
<polyline points="151.0,283.5,156.5,264.0,173.0,244.0,189.0,230.0,171.0,246.0,165.0,262.0,163.0,278.5,168.5,294.5,166.5,310.5,154.5,327.0,150.5,343.0,150.5,363.0,150.5,379.0,146.5,395.5,143.0,411.0,151.0,413.0,167.0,413.0,175.0,419.0,191.0,413.0,207.5,413.0,223.5,413.0,239.5,412.5,255.5,412.5,271.5,412.5" stroke="black" stroke-width="2" fill="none" />
<polyline points="303.5,422.5,288.0,434.0,288.0,434.0,292.5,425.5,290.5,413.5,274.5,425.0,258.0,425.5,242.0,426.0,226.0,426.0,210.0,426.5,194.0,426.5,178.0,426.0,162.0,424.0,156.0,420.0,154.0,409.5,150.0,394.0,144.0,382.0,144.5,366.5,147.0,351.0,149.0,335.0,151.0,319.0,151.0,302.5,150.5,286.5,148.5,270.0,152.5,253.5,152.5,237.0,152.0,221.5,140.0,202.0,144.0,186.0,158.0,170.5,140.0,194.5" stroke="black" stroke-width="2" fill="none" />
<polyline points="149.0,188.0,165.0,173.5,181.0,173.5,197.0,174.0,213.0,174.5,229.0,174.5,245.0,170.5" stroke="black" stroke-width="2" fill="none" />
<polyline points="263.5,174.0,279.5,176.0,295.5,190.0" stroke="black" stroke-width="2" fill="none" />
<polyline points="284.0,182.5,268.0,180.5,252.0,182.0,236.5,184.0,220.5,182.0,204.5,180.0,188.5,180.0,173.0,179.5,157.0,183.5" stroke="black" stroke-width="2" fill="none" />
<polyline points="156.0,184.5,149.5,200.0,143.5,215.5,145.5,231.5,146.0,248.0,144.0,264.0,144.0,280.0,146.0,296.0,144.5,312.0,152.5,327.5,169.0,305.5,163.0,295.5,174.5,294.0,186.5,288.0,186.5,296.0,200.5,304.0,210.0,302.0,222.0,278.5,238.0,272.5,242.0,263.0,258.0,261.0,272.0,263.0" stroke="black" stroke-width="2" fill="none" />
<polyline points="269.0,260.0,254.5,273.5,248.5,278.0,270.0,272.5,272.0,264.5,261.5,256.0,268.0,240.0" stroke="black" stroke-width="2" fill="none" />
<polyline points="262.0,239.0,246.0,244.5,230.0,250.0,213.5,263.5,191.5,273.5,207.5,267.5,201.5,251.0,199.5,239.0,183.5,235.0" stroke="black" stroke-width="2" fill="none" />
<polyline points="163.0,248.5,155.0,264.5,155.0,280.0,161.0,295.5" stroke="black" stroke-width="2" fill="none" />
<polyline points="164.0,188.0,180.0,186.0,195.5,186.0,211.0,185.5,224.5,199.5,224.5,216.0,240.0,217.5" stroke="black" stroke-width="2" fill="none" />
<polyline points="158.0,175.5,148.0,191.5,146.0,208.0" stroke="black" stroke-width="2" fill="none" />
<polyline points="57.0,272.5,41.0,258.5" stroke="black" stroke-width="2" fill="none" />
<polyline points="44.5,254.5,59.0,270.5,65.0,288.5,57.0,308.0,55.0,324.0,49.0,325.5,39.0,341.5,29.0,357.0,41.5,385.0" stroke="black" stroke-width="2" fill="none" />
<polyline points="50.5,338.0,30.5,355.5,24.5,327.5,8.0,335.5" stroke="black" stroke-width="2" fill="none" />
<polyline points="2.5,327.0,18.5,325.5,34.0,315.5" stroke="black" stroke-width="2" fill="none" />
<polyline points="50.0,289.0,34.0,278.5" stroke="black" stroke-width="2" fill="none" />
<polyline points="24.5,282.5,41.0,286.5,47.0,296.5" stroke="black" stroke-width="2" fill="none" />
<polyline points="70.5,280.5,55.0,260.5,39.0,246.5" stroke="black" stroke-width="2" fill="none" />
<polyline points="13.5,267.5,37.5,269.5,48.0,285.5,56.0,301.5,54.0,317.5" stroke="black" stroke-width="2" fill="none" />
<polyline points="49.5,297.5,37.5,295.5,17.5,295.0,1.5,295.0" stroke="black" stroke-width="2" fill="none" />
<polyline points="0.5,279.5,16.5,283.5,33.5,301.5,36.0,309.5,14.0,333.5,20.0,336.0,16.0,352.0,4.5,363.5,8.5,381.5,26.0,377.0,34.0,359.0,44.0,359.0,60.0,337.5,73.5,341.5,61.5,358.0,47.0,364.0,59.0,360.0" stroke="black" stroke-width="2" fill="none" />
<polyline points="40.0,336.0,41.5,310.0,33.5,294.0,26.0,278.0,34.0,271.5,17.5,277.5,1.5,275.5" stroke="black" stroke-width="2" fill="none" />
<polyline points="1.0,264.0,17.0,263.5,25.5,261.5,42.0,265.5,56.5,281.5,64.5,298.0,67.0,314.0,65.0,330.0,56.5,346.0,52.5,360.0,46.5,382.5,44.5,398.5,42.5,414.0,38.5,430.0,36.5,446.0,48.5,452.0" stroke="black" stroke-width="2" fill="none" />
<polyline points="39.0,445.0,29.0,450.5,12.5,446.5" stroke="black" stroke-width="2" fill="none" />
<polyline points="13.0,438.5,4.5,454.5,12.5,438.0,28.5,444.0" stroke="black" stroke-width="2" fill="none" />
<polyline points="65.5,301.0,49.5,273.0,33.5,261.0,18.0,255.0,2.0,255.0" stroke="black" stroke-width="2" fill="none" />
<polyline points="1.5,258.5,17.5,258.5,33.5,266.5,49.5,280.5" stroke="black" stroke-width="2" fill="none" />
<polyline points="15.5,284.5,23.5,300.5,29.0,316.5,3.0,330.5,6.5,346.0,10.5,352.0,10.5,367.5,7.0,373.5,15.0,389.5,1.5,403.0" stroke="black" stroke-width="2" fill="none" />
<polyline points="35.0,395.5,23.0,397.5,23.0,381.5,35.5,366.0,46.0,350.0,46.0,344.0,60.0,327.5,62.0,312.0,60.0,296.0,64.5,284.5,52.5,268.5,44.5,252.5,34.5,254.5,18.5,248.5,2.5,248.5" stroke="black" stroke-width="2" fill="none" />
<polyline points="290.0,370.0,290.0,386.0,290.0,402.0" stroke="black" stroke-width="2" fill="none" />
<polyline points="442.0,407.5,442.0,391.5,440.5,375.5" stroke="black" stroke-width="2" fill="none" />
<polyline points="449.0,200.0,465.0,197.5" stroke="black" stroke-width="2" fill="none" />
<polyline points="451.0,199.0,448.5,215.0,449.0,231.0,442.5,247.0" stroke="black" stroke-width="2" fill="none" />
<polyline points="440.5,244.0,425.0,244.0,421.0,232.0,421.0,216.5,419.0,200.5" stroke="black" stroke-width="2" fill="none" />
<polyline points="407.5,165.5,391.5,166.0" stroke="black" stroke-width="2" fill="none" />
<polyline points="392.0,165.0,392.0,181.5,398.0,197.5,406.0,197.5" stroke="black" stroke-width="2" fill="none" />
<polyline points="476.0,182.5,476.0,168.5,459.5,166.5,447.5,162.5,447.5,146.5,447.0,130.5,434.5,126.5,418.5,127.0" stroke="black" stroke-width="2" fill="none" />
<polyline points="420.0,125.5,420.0,141.5,419.5,157.5" stroke="black" stroke-width="2" fill="none" />
<polyline points="385.0,110.0,371.5,126.0,371.0,141.5,371.5,157.5,371.5,173.5,372.0,189.5,372.0,205.5,372.5,222.0,372.5,238.0,373.0,254.5,373.0,270.5,373.0,286.5,373.0,302.5,375.0,310.0,391.0,316.0,407.0,315.5,423.0,316.0,439.0,316.0,455.0,316.5,471.5,316.5,487.5,314.5" stroke="black" stroke-width="2" fill="none" />
<polyline points="489.5,311.0,494.0,295.0,494.5,278.5,494.5,262.0,494.0,245.5,494.0,229.5,494.5,213.0,495.0,197.5,495.0,181.5,494.5,165.5,494.5,149.5,494.5,133.5,490.5,117.5,485.0,111.5,469.0,112.0,453.0,112.0,437.0,112.5,420.5,112.5,404.5,113.0,388.0,111.0,372.0,121.0" stroke="black" stroke-width="2" fill="none" />
<polyline points="341.5,69.0,331.5,85.0,333.5,101.0,333.5,117.5,334.0,134.0,334.0,150.5,334.0,166.5,334.0,182.5,334.0,198.5,334.5,214.5,335.0,230.5,335.0,246.5,332.5,262.5,334.5,278.5,334.5,294.5,334.5,310.5,334.5,326.0,334.0,342.0,334.0,358.0,334.0,374.0,330.5,390.0,328.5,406.0,340.5,423.5,354.0,443.0" stroke="black" stroke-width="2" fill="none" />
<polyline points="330.0,76.5,346.0,68.5,362.5,66.5,378.5,67.0,394.5,67.0,410.5,67.0,426.5,67.0,442.5,67.5,458.5,67.5,474.5,67.5,490.5,67.5,506.5,68.0" stroke="black" stroke-width="2" fill="none" />
<polyline points="509.5,61.5,493.5,61.5,477.5,61.0,461.0,61.0,445.0,61.0,429.5,60.5,413.5,61.0,398.0,61.0,382.0,61.0,366.5,61.5,350.5,62.0,334.5,70.0" stroke="black" stroke-width="2" fill="none" />
<polyline points="337.0,65.5,329.0,81.5,329.5,67.5,345.5,55.5,362.0,55.0,378.0,55.5,394.0,55.5,410.0,56.0,426.0,56.0,442.0,56.5,458.0,56.5,474.0,57.0,489.5,57.0,505.5,56.5" stroke="black" stroke-width="2" fill="none" />
</svg>