<svg xmlns="http://www.w3.org/2000/svg" width="512mm" height="512mm" viewBox="0 0 512 512" version="1.1"><polyline points="125.5,82.5,121.5,98.5,117.5,114.5,109.5,130.5,97.5,139.0,113.5,123.0" stroke="black" stroke-width="2" fill="none" />
<polyline points="105.5,116.5,89.5,116.5,73.5,116.5" stroke="black" stroke-width="2" fill="none" />
<polyline points="58.0,118.5,74.0,110.5,90.0,110.5,106.0,110.0" stroke="black" stroke-width="2" fill="none" />
<polyline points="92.5,137.0,76.0,133.0,60.0,125.0" stroke="black" stroke-width="2" fill="none" />
<polyline points="69.0,136.5,53.5,140.5,38.0,142.5,14.5,150.5,20.5,134.0,27.0,117.5,33.0,101.5,39.0,85.5,49.0,85.5,33.0,114.0" stroke="black" stroke-width="2" fill="none" />
<polyline points="22.5,124.5,38.5,86.0,54.5,77.5,70.5,77.5,86.0,75.0,102.0,75.5,117.5,75.5,133.5,87.5,137.5,102.0,142.0,118.0,148.0,130.0,164.0,130.5,180.0,130.5,196.0,154.5,212.0,174.5" stroke="black" stroke-width="2" fill="none" />
<polyline points="206.5,166.5,216.5,182.5,224.5,198.5" stroke="black" stroke-width="2" fill="none" />
<polyline points="236.0,173.5,252.0,205.5,268.0,208.0" stroke="black" stroke-width="2" fill="none" />
<polyline points="307.0,199.5,323.5,205.5,339.5,207.5,389.5,230.0,413.5,246.0,413.5,253.5" stroke="black" stroke-width="2" fill="none" />
<polyline points="418.0,255.5,402.0,242.0,386.0,233.5,370.0,231.5,354.0,227.5,330.0,229.5,314.0,223.5" stroke="black" stroke-width="2" fill="none" />
<polyline points="313.0,217.5,329.0,221.5,344.5,225.5,360.5,223.5,406.5,232.0,424.0,244.0,432.0,260.0" stroke="black" stroke-width="2" fill="none" />
<polyline points="462.0,270.5,448.0,270.5,456.0,286.0,454.0,284.0,470.0,279.5,476.5,267.0,492.5,269.5,480.5,272.0,462.5,278.5,477.0,286.5" stroke="black" stroke-width="2" fill="none" />
<polyline points="473.5,305.5,453.5,321.5,437.5,337.5,423.5,354.0,417.0,370.5,421.0,378.5,437.0,383.0,453.5,383.0,469.5,379.0,486.0,376.5,502.0,376.5" stroke="black" stroke-width="2" fill="none" />
<polyline points="507.0,388.0,491.0,389.5,475.0,391.5" stroke="black" stroke-width="2" fill="none" />
<polyline points="456.0,386.5,472.5,386.0,488.0,384.0,503.5,384.0" stroke="black" stroke-width="2" fill="none" />
<polyline points="500.5,361.5,485.0,361.5,469.0,359.5" stroke="black" stroke-width="2" fill="none" />
<polyline points="470.5,337.5,486.5,337.5,504.5,339.5" stroke="black" stroke-width="2" fill="none" />
<polyline points="499.0,307.5,483.0,312.0,467.0,336.0" stroke="black" stroke-width="2" fill="none" />
<polyline points="456.0,334.0,445.5,336.0,445.0,343.5,451.0,337.5,469.0,315.5" stroke="black" stroke-width="2" fill="none" />
<polyline points="477.5,308.0,465.5,324.0,459.5,340.5,461.5,356.5,470.0,357.0,486.0,359.0,502.0,359.5" stroke="black" stroke-width="2" fill="none" />
<polyline points="506.0,370.0,490.0,368.5,474.5,370.0,459.0,372.0,443.0,376.0,427.5,374.5,415.5,374.5,417.0,358.5,426.5,343.0,440.5,327.0,457.5,310.5,475.5,303.0,459.5,308.5,444.0,324.5,428.0,340.5,412.5,366.5" stroke="black" stroke-width="2" fill="none" />
<polyline points="418.5,366.5,434.5,342.5,451.0,326.5,467.0,312.5,483.0,306.5,499.0,302.5" stroke="black" stroke-width="2" fill="none" />
<polyline points="490.0,308.5,472.0,324.0,465.5,340.5,467.5,356.5,480.0,342.5,496.5,336.5" stroke="black" stroke-width="2" fill="none" />
<polyline points="505.5,404.5,501.0,400.5,489.5,406.5,467.5,396.5,444.0,388.0,428.0,390.0,412.0,392.5,396.0,394.5,380.0,392.0,364.0,393.5,347.5,395.5" stroke="black" stroke-width="2" fill="none" />
<polyline points="371.0,364.5,373.0,348.5,375.0,332.0,377.0,316.0,381.0,300.0,376.5,302.0" stroke="black" stroke-width="2" fill="none" />
<polyline points="382.0,301.5,390.0,317.5,386.0,333.0,382.0,349.0,378.0,365.0" stroke="black" stroke-width="2" fill="none" />
<polyline points="377.5,335.0,379.5,323.0,381.5,307.0" stroke="black" stroke-width="2" fill="none" />
<polyline points="334.0,320.5,318.0,301.0,301.5,289.0" stroke="black" stroke-width="2" fill="none" />
<polyline points="287.0,296.0,301.0,312.0,317.0,327.5" stroke="black" stroke-width="2" fill="none" />
<polyline points="285.0,362.0,279.0,352.0,279.0,336.0,269.0,328.0,253.0,324.0,237.0,336.0" stroke="black" stroke-width="2" fill="none" />
<polyline points="241.5,337.0,245.0,339.5,233.0,356.0,246.5,362.0,236.0,360.0,235.5,372.5,235.5,388.5,241.5,378.5" stroke="black" stroke-width="2" fill="none" />
<polyline points="244.5,400.0,262.5,394.0,258.0,410.0" stroke="black" stroke-width="2" fill="none" />
<polyline points="250.5,406.0,266.5,386.0,270.5,404.0,270.0,420.0" stroke="black" stroke-width="2" fill="none" />
<polyline points="278.0,405.5,275.5,421.0,287.5,409.0,281.5,392.5,280.0,376.0,268.0,370.0,278.0,364.0,289.5,357.5,285.5,341.5,273.5,325.5,254.0,331.0" stroke="black" stroke-width="2" fill="none" />
<polyline points="249.5,340.0,253.0,356.0,237.0,361.5,247.0,361.5,263.0,363.5,282.5,351.5" stroke="black" stroke-width="2" fill="none" />
<polyline points="280.5,376.5,284.0,388.0,294.0,394.0,292.0,410.0" stroke="black" stroke-width="2" fill="none" />
<polyline points="282.0,424.5,265.5,438.5,249.5,430.0,233.5,406.0" stroke="black" stroke-width="2" fill="none" />
<polyline points="223.0,410.5,238.5,432.5,254.5,442.0,271.0,441.5,287.5,425.5" stroke="black" stroke-width="2" fill="none" />
<polyline points="262.5,430.5,246.5,414.5" stroke="black" stroke-width="2" fill="none" />
<polyline points="230.5,429.5,246.5,449.5,263.0,459.5,279.5,461.5,295.5,459.5,312.0,451.5,328.0,446.0,344.5,428.0,366.5,400.0,383.0,398.5,399.0,398.5,415.0,398.5,431.0,396.0,447.0,394.0,463.0,390.0,478.5,402.0" stroke="black" stroke-width="2" fill="none" />
<polyline points="505.0,280.5,503.0,264.5" stroke="black" stroke-width="2" fill="none" />
<polyline points="499.0,264.5,497.0,280.5,500.5,268.5,488.5,272.5,490.5,280.5,504.5,286.5" stroke="black" stroke-width="2" fill="none" />
<polyline points="444.5,215.5,428.5,205.0,412.5,195.0" stroke="black" stroke-width="2" fill="none" />
<polyline points="411.5,192.5,439.5,208.5" stroke="black" stroke-width="2" fill="none" />
<polyline points="433.0,169.5,417.0,151.5,401.0,143.5" stroke="black" stroke-width="2" fill="none" />
<polyline points="408.0,156.5,388.0,140.5,372.0,138.0,348.0,148.0,338.0,137.5,322.0,141.5" stroke="black" stroke-width="2" fill="none" />
<polyline points="327.0,144.5,343.0,142.5" stroke="black" stroke-width="2" fill="none" />
<polyline points="370.0,144.0,386.5,146.0,400.5,150.0,398.5,166.0,398.0,182.0,428.0,205.5,449.5,221.5" stroke="black" stroke-width="2" fill="none" />
<polyline points="505.5,236.0,489.0,236.0,473.0,236.0,457.0,238.0,441.5,240.0,426.0,243.5,410.0,233.5,394.5,223.0,378.5,217.0,363.0,213.0,347.0,209.0,330.5,203.5,314.5,197.5" stroke="black" stroke-width="2" fill="none" />
<polyline points="313.0,198.0,343.0,213.5,335.5,231.5,346.0,243.5,370.5,259.5,370.5,264.0,393.0,270.0,409.0,266.0,424.5,260.0" stroke="black" stroke-width="2" fill="none" />
<polyline points="407.5,270.5,397.5,261.0,378.0,259.0,384.0,242.5" stroke="black" stroke-width="2" fill="none" />
<polyline points="369.5,237.5,359.5,239.5,358.0,255.5,366.0,245.5,388.0,243.5,392.0,259.5,400.0,253.5" stroke="black" stroke-width="2" fill="none" />
<polyline points="330.5,251.5,314.0,237.5" stroke="black" stroke-width="2" fill="none" />
<polyline points="324.0,231.5,342.5,257.5" stroke="black" stroke-width="2" fill="none" />
<polyline points="358.5,236.5,352.5,246.0,345.0,222.0,329.5,217.5,314.0,214.0" stroke="black" stroke-width="2" fill="none" />
<polyline points="310.5,217.5,316.5,233.5,337.5,249.5,324.0,265.5,302.0,281.5,312.0,298.0,328.0,314.0,338.5,329.5,344.5,345.5,348.0,361.0,350.0,377.0,356.0,393.0,352.0,409.5,345.5,425.5,331.5,442.0" stroke="black" stroke-width="2" fill="none" />
<polyline points="343.0,439.5,327.0,453.5,311.0,457.5,293.0,455.5,277.0,455.5,261.0,451.5,244.5,437.5" stroke="black" stroke-width="2" fill="none" />
<polyline points="256.0,449.5,240.0,433.5,230.0,415.5,226.0,399.5,223.5,383.5,223.5,367.5,228.0,352.0,236.5,336.0,226.5,353.5" stroke="black" stroke-width="2" fill="none" />
<polyline points="222.0,350.0,238.0,328.5,254.0,318.5,270.0,322.5,286.0,338.5,294.0,354.0,298.5,369.5,294.5,385.5,300.5,385.5,298.5,401.5,295.0,417.5,283.0,433.5" stroke="black" stroke-width="2" fill="none" />
<polyline points="278.5,430.0,290.5,414.0,280.5,398.5,274.5,396.5" stroke="black" stroke-width="2" fill="none" />
<polyline points="265.5,396.0,263.5,412.0" stroke="black" stroke-width="2" fill="none" />
<polyline points="284.5,387.0,284.0,381.5,258.0,382.0,250.5,358.0,259.0,349.5,265.0,345.5,253.5,345.5,237.0,349.5" stroke="black" stroke-width="2" fill="none" />
<polyline points="216.5,339.5,232.5,317.5,248.5,305.5,264.5,297.0,280.5,301.0,296.5,313.0,312.0,329.0" stroke="black" stroke-width="2" fill="none" />
<polyline points="263.5,324.0,269.5,340.5,273.5,345.0,269.5,357.5,261.0,374.0,257.0,390.5,249.0,407.0,253.0,427.0" stroke="black" stroke-width="2" fill="none" />
<polyline points="244.0,447.5,231.5,431.5,225.5,415.0,219.5,399.0,217.5,383.5,211.5,369.5,187.0,373.5,197.0,357.5,189.0,335.5,189.5,319.5,190.0,303.5,190.0,287.5,190.0,271.5,190.5,255.5,191.0,240.0,195.5,224.0,219.5,204.0,214.0,190.0,205.5,174.0,199.5,158.0,191.0,142.0,196.5,127.5,190.0,125.5,194.0,109.5,205.5,93.5,227.5,77.5,215.5,91.5,199.5,109.5" stroke="black" stroke-width="2" fill="none" />
<polyline points="206.0,128.5,222.0,116.5,240.0,124.0,226.0,140.0,226.0,129.5,244.5,105.0,260.5,99.5,276.5,99.5" stroke="black" stroke-width="2" fill="none" />
<polyline points="286.0,93.5,296.0,109.5,286.0,114.0,270.0,122.0,246.0,137.5,242.5,153.5,248.0,169.5,260.0,185.5,270.0,203.5,278.5,215.5,295.0,219.5,310.5,232.0,327.0,240.0,343.0,250.0,347.0,258.0,363.0,260.0,379.0,262.5,384.5,272.5,400.5,274.5,416.5,275.0,432.5,269.0,460.5,267.0,476.5,263.0,492.5,261.5,509.0,259.0" stroke="black" stroke-width="2" fill="none" />
<polyline points="504.0,204.0,488.0,194.0,472.0,186.0,456.5,179.5,440.5,165.5,424.5,147.5,408.5,132.0,392.5,120.0,376.5,116.0,360.0,113.5,344.0,113.5,328.0,115.0,312.0,115.5" stroke="black" stroke-width="2" fill="none" />
<polyline points="276.0,142.0,291.5,136.0,307.5,130.0,299.0,132.0,260.5,147.5,276.0,157.5,292.0,161.5,308.0,167.5,323.5,169.5,339.0,169.5,355.0,167.5,371.0,169.5,387.5,173.5,403.5,187.5,419.5,187.0,435.5,187.0" stroke="black" stroke-width="2" fill="none" />
<polyline points="423.5,174.0,405.5,172.0,403.5,178.0,393.5,168.0,393.5,152.0,391.5,136.0,375.5,130.0,359.5,126.5,343.5,128.5,327.5,130.5,311.5,140.0,295.5,144.0,279.5,152.5" stroke="black" stroke-width="2" fill="none" />
<polyline points="277.5,146.5,293.0,140.5,309.0,136.5,283.0,144.5,276.5,158.0,300.0,172.0" stroke="black" stroke-width="2" fill="none" />
<polyline points="281.5,165.5,297.5,171.5,313.5,175.0,330.0,177.0,346.5,174.5,363.0,174.0,378.5,175.5" stroke="black" stroke-width="2" fill="none" />
<polyline points="376.5,184.0,360.5,184.0,344.0,186.5,328.0,188.5,312.0,191.0,296.0,193.0,280.0,195.5,264.5,181.0,248.5,155.0" stroke="black" stroke-width="2" fill="none" />
<polyline points="244.5,159.0,260.0,183.0,276.0,197.5,292.0,197.5,308.0,195.5,324.0,193.5,340.0,191.5,356.5,190.0,372.5,190.5,388.5,188.5,414.0,192.5,430.5,200.0,446.0,210.0" stroke="black" stroke-width="2" fill="none" />
<polyline points="441.5,174.5,425.5,156.5,409.5,140.5,393.5,132.5,377.5,126.0,361.5,122.0,345.0,122.0,329.5,124.0,314.0,124.0,298.5,126.5,282.5,134.5,266.5,137.0" stroke="black" stroke-width="2" fill="none" />
<polyline points="263.0,132.0,279.0,124.0,295.5,118.5,309.5,116.5,326.0,111.0,342.0,109.0,358.5,109.0,374.5,111.0,390.5,114.5,406.5,122.5,422.5,139.0,438.5,155.0,454.0,173.0,470.0,181.0,485.5,187.0,501.0,197.0" stroke="black" stroke-width="2" fill="none" />
<polyline points="496.5,239.5,480.0,239.5,464.0,241.5,447.5,243.5,431.0,247.0,415.5,247.5,399.5,233.5,384.0,225.5,368.5,219.5,353.0,216.0,336.5,210.5,320.0,211.0,303.5,215.0,287.5,213.5,271.5,215.5,256.0,215.5,240.5,211.5,224.5,211.0,209.0,216.5,193.0,216.5,185.5,214.5,175.5,224.5,159.5,218.5,143.5,220.5,127.5,219.0,111.5,217.0,95.0,215.0,81.0,213.0,59.0,203.0,59.0,187.0,59.0,171.0,56.5,159.5,40.5,161.0,24.5,163.0,8.5,165.0" stroke="black" stroke-width="2" fill="none" />
<polyline points="8.5,167.5,8.0,183.5,8.0,199.5,16.0,205.0,32.0,207.0,48.5,208.5,64.5,210.5" stroke="black" stroke-width="2" fill="none" />
<polyline points="85.0,233.0,101.0,225.5,117.0,231.5,133.5,237.5" stroke="black" stroke-width="2" fill="none" />
<polyline points="142.0,216.0,160.0,230.0,168.0,246.0" stroke="black" stroke-width="2" fill="none" />
<polyline points="166.0,228.0,182.0,230.0" stroke="black" stroke-width="2" fill="none" />
<polyline points="169.5,242.5,153.5,222.5" stroke="black" stroke-width="2" fill="none" />
<polyline points="169.5,237.0,159.5,215.0,143.5,212.5,127.5,213.0" stroke="black" stroke-width="2" fill="none" />
<polyline points="106.5,227.0,140.5,241.5,136.0,249.5" stroke="black" stroke-width="2" fill="none" />
<polyline points="113.0,234.0,97.0,230.0" stroke="black" stroke-width="2" fill="none" />
<polyline points="92.0,240.0,108.0,244.0,124.0,248.0" stroke="black" stroke-width="2" fill="none" />
<polyline points="119.5,241.0,103.5,235.5,88.0,237.5" stroke="black" stroke-width="2" fill="none" />
<polyline points="97.5,194.0,95.5,182.0,79.5,172.0" stroke="black" stroke-width="2" fill="none" />
<polyline points="76.0,161.0,92.5,160.5,109.0,161.0,125.0,163.0,141.5,167.0,158.0,165.5,174.5,169.0,190.5,175.0,207.0,202.5" stroke="black" stroke-width="2" fill="none" />
<polyline points="191.5,201.5,175.5,195.5" stroke="black" stroke-width="2" fill="none" />
<polyline points="174.0,191.5,190.0,192.0" stroke="black" stroke-width="2" fill="none" />
<polyline points="209.5,185.0,193.5,167.0,177.5,160.5,161.5,159.0,145.5,156.5,129.5,154.5,113.5,154.5,97.0,154.0,81.0,154.0,65.5,154.0,49.5,153.5,34.0,153.5,18.0,155.0,2.0,159.0" stroke="black" stroke-width="2" fill="none" />
<polyline points="2.0,147.5,18.0,141.5" stroke="black" stroke-width="2" fill="none" />
<polyline points="62.0,160.5,62.0,161.0,61.5,177.0,63.5,193.0" stroke="black" stroke-width="2" fill="none" />
<polyline points="56.5,204.5,40.5,203.0,24.0,201.0,8.0,197.0" stroke="black" stroke-width="2" fill="none" />
<polyline points="1.5,218.0,17.5,220.0,34.0,222.0,50.0,228.0" stroke="black" stroke-width="2" fill="none" />
<polyline points="45.0,240.5,28.5,240.5,12.5,237.0" stroke="black" stroke-width="2" fill="none" />
<polyline points="10.5,234.5,9.0,250.5,19.0,267.0,31.0,283.5,43.0,309.5,49.0,325.5,53.0,343.5,53.0,359.5,64.5,379.0,58.5,395.0,47.0,410.5,31.0,418.5,46.5,411.0,62.5,385.0,70.0,371.5,85.5,373.5,101.5,373.5,118.0,375.5,134.0,375.5,150.0,377.5,166.0,379.5,182.0,382.0,198.0,370.5,214.0,376.5" stroke="black" stroke-width="2" fill="none" />
<polyline points="201.5,325.0,217.5,293.0,234.0,279.0,250.0,271.5,266.5,274.0,283.0,278.0,299.0,278.0,315.0,266.0,331.5,256.0" stroke="black" stroke-width="2" fill="none" />
<polyline points="325.5,265.0,310.0,275.0,290.0,267.0,276.0,264.5,260.5,263.0,244.5,265.5,228.5,277.0" stroke="black" stroke-width="2" fill="none" />
<polyline points="220.0,283.0,236.0,266.5,252.5,260.0,268.5,260.0,285.0,263.5" stroke="black" stroke-width="2" fill="none" />
<polyline points="265.0,277.0,248.5,279.0,233.0,287.0,217.0,307.0,223.0,331.0,235.0,315.5,257.0,300.0" stroke="black" stroke-width="2" fill="none" />
<polyline points="255.0,292.0,241.5,304.0,237.5,306.0,253.5,290.0" stroke="black" stroke-width="2" fill="none" />
<polyline points="254.0,284.0,232.0,300.0,231.5,310.0,219.0,325.5,218.5,341.5,228.5,312.0,234.0,295.5,250.0,285.5,266.0,283.0,272.0,285.5,286.0,295.5,302.0,311.5" stroke="black" stroke-width="2" fill="none" />
<polyline points="297.0,315.5,273.0,299.5" stroke="black" stroke-width="2" fill="none" />
<polyline points="269.0,286.5,291.0,288.0,313.0,304.0,327.0,319.5,334.5,335.5,340.0,351.5,344.0,367.5,345.5,383.5,359.5,401.5,353.5,418.0,345.5,434.0,329.5,449.5" stroke="black" stroke-width="2" fill="none" />
<polyline points="255.5,436.5,245.5,434.5,237.5,419.0,246.0,409.0,250.5,393.0,248.5,386.5,240.5,370.0,220.0,366.0,222.0,349.5,232.0,333.5,254.5,317.0" stroke="black" stroke-width="2" fill="none" />
<polyline points="251.0,277.5,227.0,293.5,214.5,310.0,208.5,326.0,206.5,342.0,202.5,358.0,196.0,374.0" stroke="black" stroke-width="2" fill="none" />
<polyline points="213.5,253.5,198.0,249.5" stroke="black" stroke-width="2" fill="none" />
<polyline points="194.5,251.5,210.5,244.0,226.0,244.0,235.5,248.0,219.5,264.0,209.0,280.0,203.0,296.0,207.0,290.0,223.0,266.0,235.0,252.0,223.0,268.0,211.0,284.0,209.5,278.5,225.5,254.5,230.0,271.0,230.0,277.0,220.5,293.0,210.5,309.0,204.5,324.5,200.5,340.5,198.5,357.0" stroke="black" stroke-width="2" fill="none" />
<polyline points="181.0,359.5,165.0,357.5,148.5,355.0,132.5,353.0,116.5,351.0,100.0,349.0,84.0,349.5,67.5,348.0,51.0,341.5" stroke="black" stroke-width="2" fill="none" />
<polyline points="48.0,362.5,64.0,368.0,80.0,367.5,96.0,367.5,111.5,369.5,127.5,371.5,143.5,371.0,160.0,373.0,176.5,375.5,192.5,367.5" stroke="black" stroke-width="2" fill="none" />
<polyline points="51.5,398.5,35.0,414.5,19.0,420.5,3.0,420.5" stroke="black" stroke-width="2" fill="none" />
<polyline points="3.0,417.0,19.0,417.0" stroke="black" stroke-width="2" fill="none" />
<polyline points="3.5,385.5,13.5,381.5,9.5,377.5,14.0,361.5,4.0,360.0,10.5,346.0,9.0,338.5,5.0,322.5,3.5,320.5" stroke="black" stroke-width="2" fill="none" />
<polyline points="2.5,314.0,18.5,334.0,18.5,335.5,20.0,353.0,18.0,369.0,5.5,371.0" stroke="black" stroke-width="2" fill="none" />
<polyline points="18.0,302.5,2.0,292.0" stroke="black" stroke-width="2" fill="none" />
<polyline points="2.0,286.5,18.0,292.5,34.5,302.5,56.5,337.0,72.5,343.0,88.5,345.0,104.5,345.0,120.5,347.5,136.5,349.5,152.5,351.5,168.5,353.5,184.5,354.0" stroke="black" stroke-width="2" fill="none" />
<polyline points="193.5,347.5,193.5,331.5,193.5,316.0,193.5,300.0,193.5,284.0,193.5,267.5,193.5,251.5,195.5,239.0,199.5,223.0" stroke="black" stroke-width="2" fill="none" />
<polyline points="234.0,182.0,218.0,152.0" stroke="black" stroke-width="2" fill="none" />
<polyline points="210.5,147.5,226.5,139.5,241.0,113.5,257.0,113.5" stroke="black" stroke-width="2" fill="none" />
<polyline points="251.5,103.5,239.5,119.5,231.5,127.5,211.5,129.0,215.5,147.0,223.5,160.5,230.0,176.5,244.5,194.0,251.0,206.0" stroke="black" stroke-width="2" fill="none" />
<polyline points="265.5,183.0,255.5,166.5,246.0,151.0,252.0,139.0" stroke="black" stroke-width="2" fill="none" />
<polyline points="240.0,144.0,256.0,132.0,272.5,116.0" stroke="black" stroke-width="2" fill="none" />
<polyline points="242.0,84.5,258.5,83.0,274.5,81.5,290.5,84.0,308.5,90.5,304.0,106.5,310.5,108.5,278.5,134.5,258.5,144.5,266.5,160.5,298.5,166.5" stroke="black" stroke-width="2" fill="none" />
<polyline points="307.5,217.5,309.5,233.5,328.0,249.5,312.0,268.0,283.5,284.0,299.5,294.0,316.0,308.0,332.0,329.5" stroke="black" stroke-width="2" fill="none" />
<polyline points="238.0,181.0,232.0,165.0,228.0,149.0,239.5,132.5,259.5,116.5,246.0,129.0,230.0,143.0" stroke="black" stroke-width="2" fill="none" />
<polyline points="209.5,133.0,215.5,118.5,207.5,134.5,205.5,150.5,215.5,166.5,223.0,182.5,235.0,198.5" stroke="black" stroke-width="2" fill="none" />
<polyline points="238.5,201.5,222.5,179.5,206.5,151.5" stroke="black" stroke-width="2" fill="none" />
<polyline points="190.0,164.0,200.0,180.0,206.0,196.0" stroke="black" stroke-width="2" fill="none" />
<polyline points="206.5,202.0,198.5,186.5,185.0,170.5" stroke="black" stroke-width="2" fill="none" />
<polyline points="154.5,162.5,159.0,178.5,163.0,188.5,171.0,204.0" stroke="black" stroke-width="2" fill="none" />
<polyline points="166.5,208.5,150.5,202.5,134.5,206.5,118.5,210.5,108.5,190.5,126.5,174.5" stroke="black" stroke-width="2" fill="none" />
<polyline points="126.0,181.0,110.0,197.0" stroke="black" stroke-width="2" fill="none" />
<polyline points="149.5,180.5,149.5,164.5" stroke="black" stroke-width="2" fill="none" />
<polyline points="162.0,145.5,138.0,145.5,122.0,145.5,106.0,146.0,92.0,136.0,108.5,120.0,116.5,104.0,118.5,88.0,118.5,82.0,102.5,80.0,86.5,81.5,70.5,81.5" stroke="black" stroke-width="2" fill="none" />
<polyline points="57.5,83.0,59.5,99.0,57.5,117.0,75.5,133.5,106.0,140.0,122.0,142.5,138.0,142.5,154.0,148.5" stroke="black" stroke-width="2" fill="none" />
<polyline points="185.0,185.5,168.5,182.0,154.5,174.0,138.0,174.0,122.0,176.0,105.5,192.0,93.5,200.5,79.5,200.5,73.5,192.5,73.5,176.5,71.5,160.5" stroke="black" stroke-width="2" fill="none" />
<polyline points="77.0,160.5,83.0,176.5,89.0,192.0,97.0,201.5,115.0,187.5,131.0,179.0,147.5,177.0,164.0,185.5,180.0,205.5,196.0,207.5" stroke="black" stroke-width="2" fill="none" />
<polyline points="230.0,98.5,207.5,114.0,199.5,129.5,211.5,109.5,228.0,100.0,244.0,96.0,260.0,94.0,276.0,92.0,292.5,96.0" stroke="black" stroke-width="2" fill="none" />
<polyline points="306.0,86.0,290.0,78.0,274.0,75.5,258.0,77.5,242.0,82.0,225.5,79.5,209.5,89.5,193.5,109.5,208.0,99.5,228.0,83.5" stroke="black" stroke-width="2" fill="none" />
<polyline points="149.5,141.5,139.5,131.5,137.0,115.5,131.5,100.0,127.0,84.0" stroke="black" stroke-width="2" fill="none" />
<polyline points="54.0,85.0,54.0,101.5,54.0,117.5,62.0,133.5" stroke="black" stroke-width="2" fill="none" />
<polyline points="78.0,144.0,62.0,143.5,46.0,145.5,30.0,145.0,25.5,131.5,31.5,115.5,37.0,99.5,49.0,83.5" stroke="black" stroke-width="2" fill="none" />
<polyline points="11.5,226.0,27.5,229.5" stroke="black" stroke-width="2" fill="none" />
<polyline points="10.0,241.5,26.0,267.5" stroke="black" stroke-width="2" fill="none" />
<polyline points="17.5,265.0,1.5,239.0" stroke="black" stroke-width="2" fill="none" />
<polyline points="1.0,233.5,17.0,231.5,33.0,236.0,33.5,230.5" stroke="black" stroke-width="2" fill="none" />
<polyline points="8.5,242.5,17.0,258.5,27.0,274.5" stroke="black" stroke-width="2" fill="none" />
<polyline points="13.0,277.5,32.5,294.0,37.0,310.0,45.0,326.0,47.0,342.0,47.0,358.0,61.0,374.5,54.5,390.5,44.5,406.5" stroke="black" stroke-width="2" fill="none" />
<polyline points="17.5,288.0,1.5,278.0" stroke="black" stroke-width="2" fill="none" />
<polyline points="5.0,272.0,19.0,287.5" stroke="black" stroke-width="2" fill="none" />
<polyline points="34.5,293.0,19.0,278.5,3.0,270.5" stroke="black" stroke-width="2" fill="none" />
<polyline points="371.0,124.5,409.0,140.5,419.0,156.0,417.0,170.0,432.5,178.0" stroke="black" stroke-width="2" fill="none" />
<polyline points="444.0,178.5,429.5,162.0,416.0,146.0" stroke="black" stroke-width="2" fill="none" />
<polyline points="385.0,119.0,410.5,135.0,427.0,151.0,448.5,169.0,478.5,184.5,506.0,200.5" stroke="black" stroke-width="2" fill="none" />
<polyline points="511.0,210.5,486.5,194.5,450.5,178.5,436.5,162.5,428.5,146.5,412.5,130.5,388.5,115.0" stroke="black" stroke-width="2" fill="none" />
</svg>