<svg xmlns="http://www.w3.org/2000/svg" width="512mm" height="512mm" viewBox="0 0 512 512" version="1.1"><polyline points="111.5,6.5,117.5,12.5,133.5,18.5,149.5,22.5" stroke="black" stroke-width="2" fill="none" />
<polyline points="131.0,51.5,115.0,45.0" stroke="black" stroke-width="2" fill="none" />
<polyline points="112.0,42.5,128.0,46.5,144.0,50.5" stroke="black" stroke-width="2" fill="none" />
<polyline points="131.5,34.0,115.5,30.0" stroke="black" stroke-width="2" fill="none" />
<polyline points="114.0,27.0,130.5,28.5,147.0,33.0" stroke="black" stroke-width="2" fill="none" />
<polyline points="130.5,67.5,114.5,63.5" stroke="black" stroke-width="2" fill="none" />
<polyline points="112.0,61.0,128.0,65.0" stroke="black" stroke-width="2" fill="none" />
<polyline points="127.5,83.0,112.0,79.0,112.0,82.5" stroke="black" stroke-width="2" fill="none" />
<polyline points="124.5,151.0,100.5,166.5,84.5,182.5,70.5,198.5,58.5,214.5,48.5,230.5,61.0,200.5,77.0,182.5" stroke="black" stroke-width="2" fill="none" />
<polyline points="84.5,175.5,68.0,191.5,56.0,207.5,40.0,223.0,54.0,219.0,70.5,198.5,86.5,180.5,102.0,166.5,118.0,154.5,132.0,150.5" stroke="black" stroke-width="2" fill="none" />
<polyline points="132.0,169.5,148.0,170.0,164.0,182.5" stroke="black" stroke-width="2" fill="none" />
<polyline points="154.0,194.0,138.0,186.0,122.0,196.0" stroke="black" stroke-width="2" fill="none" />
<polyline points="123.0,198.0,139.0,192.0,155.5,203.5" stroke="black" stroke-width="2" fill="none" />
<polyline points="162.5,211.5,146.0,206.0,130.0,198.0" stroke="black" stroke-width="2" fill="none" />
<polyline points="133.0,192.5,149.0,208.5,168.5,224.5" stroke="black" stroke-width="2" fill="none" />
<polyline points="191.5,229.0,207.5,250.5,223.5,254.5,239.5,252.5,255.5,244.5,275.0,228.5" stroke="black" stroke-width="2" fill="none" />
<polyline points="290.5,233.0,306.5,215.0,322.0,213.5" stroke="black" stroke-width="2" fill="none" />
<polyline points="318.0,199.0,302.0,201.0" stroke="black" stroke-width="2" fill="none" />
<polyline points="300.5,196.0,316.5,190.0,316.5,202.0,302.0,192.0,298.0,216.5,290.0,232.5,284.0,248.5" stroke="black" stroke-width="2" fill="none" />
<polyline points="268.5,247.0,284.0,247.0,300.0,223.5,316.0,219.5,332.0,213.5" stroke="black" stroke-width="2" fill="none" />
<polyline points="302.0,220.5,296.0,236.5,288.0,252.0" stroke="black" stroke-width="2" fill="none" />
<polyline points="243.0,204.0,227.0,206.0" stroke="black" stroke-width="2" fill="none" />
<polyline points="224.0,209.5,240.0,207.5,256.0,208.0" stroke="black" stroke-width="2" fill="none" />
<polyline points="249.5,230.5,233.5,232.0,217.5,230.0" stroke="black" stroke-width="2" fill="none" />
<polyline points="215.0,222.0,221.0,237.5,217.0,227.5,233.0,226.0,249.0,224.5,265.0,224.5" stroke="black" stroke-width="2" fill="none" />
<polyline points="257.5,218.5,241.5,218.5,226.0,219.0,210.0,225.0" stroke="black" stroke-width="2" fill="none" />
<polyline points="196.5,225.5,212.5,211.5,228.5,199.5,244.5,199.0" stroke="black" stroke-width="2" fill="none" />
<polyline points="250.0,196.5,234.0,194.5,218.0,200.5,202.0,210.0" stroke="black" stroke-width="2" fill="none" />
<polyline points="198.0,204.0,214.0,190.0,230.5,184.0,246.5,184.0,262.5,198.0,268.5,214.5,254.5,238.0" stroke="black" stroke-width="2" fill="none" />
<polyline points="246.5,244.0,230.5,250.0,214.0,248.5,198.0,235.0" stroke="black" stroke-width="2" fill="none" />
<polyline points="161.5,219.0,145.5,212.5,129.5,204.5" stroke="black" stroke-width="2" fill="none" />
<polyline points="113.5,206.5,129.5,224.5,145.5,230.5" stroke="black" stroke-width="2" fill="none" />
<polyline points="146.5,267.0,164.0,251.0,170.0,234.5,178.0,220.5,184.0,204.5,187.5,188.0,193.5,172.0,195.5,156.0,185.5,147.5,170.0,143.5" stroke="black" stroke-width="2" fill="none" />
<polyline points="157.5,145.5,129.5,161.5,115.5,177.5,97.5,177.0,81.5,193.0,69.5,208.5,68.0,224.5,72.5,238.0,89.0,242.0,109.5,230.0" stroke="black" stroke-width="2" fill="none" />
<polyline points="111.0,210.0,127.0,227.5,143.0,233.5" stroke="black" stroke-width="2" fill="none" />
<polyline points="162.5,202.5,166.5,186.0,160.0,184.0,144.0,176.0,128.0,176.0" stroke="black" stroke-width="2" fill="none" />
<polyline points="129.5,185.5,123.5,201.5,158.0,217.5,166.0,233.5,158.0,249.5,132.0,265.5" stroke="black" stroke-width="2" fill="none" />
<polyline points="138.0,249.0,122.5,253.5,106.5,253.5,90.5,252.0,74.5,252.5" stroke="black" stroke-width="2" fill="none" />
<polyline points="57.0,249.5,49.0,265.5" stroke="black" stroke-width="2" fill="none" />
<polyline points="47.5,264.5,63.0,272.5,79.0,278.5,94.5,278.0,110.0,276.0,126.0,273.5,141.5,267.5,157.5,257.5" stroke="black" stroke-width="2" fill="none" />
<polyline points="165.0,236.5,149.0,260.5,133.5,266.5,117.5,270.5,101.5,272.5,85.0,274.5,69.0,270.5,53.0,260.5" stroke="black" stroke-width="2" fill="none" />
<polyline points="78.5,232.5,62.5,221.0" stroke="black" stroke-width="2" fill="none" />
<polyline points="61.5,218.0,77.5,195.5,93.5,179.5,109.5,165.5,113.5,171.5,101.0,181.5,87.5,197.5,88.0,207.0,80.0,221.5,92.0,193.5,108.0,174.0,124.0,166.0,140.5,152.0,156.5,146.0,172.5,140.0,188.5,138.5,204.5,138.0,220.5,136.0,236.0,131.5,252.0,115.5,268.0,101.5,284.0,91.0,300.0,83.5,316.0,75.5" stroke="black" stroke-width="2" fill="none" />
<polyline points="307.5,77.0,279.5,93.0,259.5,109.0,239.5,125.5,254.0,122.0,270.0,108.5,286.0,96.5,302.0,88.5" stroke="black" stroke-width="2" fill="none" />
<polyline points="296.0,89.5,272.0,105.5,253.5,121.5,253.5,131.5,269.5,131.5,286.0,132.0,302.0,129.5,318.0,131.5,334.0,132.0,350.0,132.0,366.0,134.5,382.0,134.5,398.0,136.0,414.0,140.0,432.0,149.5,448.5,161.0" stroke="black" stroke-width="2" fill="none" />
<polyline points="453.0,160.5,463.0,176.5,475.0,192.0,485.0,207.5,489.0,223.5,499.0,243.0,491.5,259.0,500.0,275.5" stroke="black" stroke-width="2" fill="none" />
<polyline points="488.0,256.5,472.5,236.5" stroke="black" stroke-width="2" fill="none" />
<polyline points="460.5,216.0,477.0,252.0,493.0,260.0" stroke="black" stroke-width="2" fill="none" />
<polyline points="495.5,304.0,481.5,320.0,473.5,336.0,467.0,352.0,444.5,371.5,454.0,368.0,469.5,384.0,469.5,400.5,461.0,417.0,418.5,429.0,408.5,441.0" stroke="black" stroke-width="2" fill="none" />
<polyline points="413.5,442.0,423.5,458.0,443.0,474.5" stroke="black" stroke-width="2" fill="none" />
<polyline points="448.0,471.0,430.5,454.5,422.5,438.5,447.0,422.5,465.0,402.5,467.0,386.5,473.0,370.5,473.0,356.5,476.5,340.5,474.5,344.5" stroke="black" stroke-width="2" fill="none" />
<polyline points="470.5,337.0,486.5,311.0,502.5,303.5" stroke="black" stroke-width="2" fill="none" />
<polyline points="507.0,328.0,491.0,328.0" stroke="black" stroke-width="2" fill="none" />
<polyline points="508.5,361.5,502.5,373.5,498.5,389.5,496.5,405.5,510.5,401.5,506.0,417.5,502.0,433.5,502.0,449.5,494.0,475.5" stroke="black" stroke-width="2" fill="none" />
<polyline points="477.5,476.5,505.0,460.5,499.0,446.5,499.0,430.5,503.0,414.0,507.0,398.0,509.0,377.5,509.0,371.5" stroke="black" stroke-width="2" fill="none" />
<polyline points="504.5,460.0,489.0,472.0,473.0,478.0,457.0,476.0,441.0,464.5,425.0,446.5" stroke="black" stroke-width="2" fill="none" />
<polyline points="422.0,433.5,438.0,425.5,454.0,422.0" stroke="black" stroke-width="2" fill="none" />
<polyline points="402.0,393.5,392.0,383.5,404.0,367.5,408.0,349.5,392.0,349.5" stroke="black" stroke-width="2" fill="none" />
<polyline points="391.0,323.5,411.0,339.5,423.0,355.5,424.5,363.5,440.0,365.0,456.0,375.0,458.0,365.0,462.0,369.5" stroke="black" stroke-width="2" fill="none" />
<polyline points="509.5,462.0,494.0,475.5,478.0,481.5,462.5,483.0,446.5,483.0,431.0,485.0,415.0,487.0,398.5,487.5,382.5,485.5" stroke="black" stroke-width="2" fill="none" />
<polyline points="400.0,396.0,384.5,395.5,368.5,395.5,352.5,397.5,336.5,402.0,332.5,392.0,332.5,376.0,340.0,359.5,338.0,345.5,352.0,329.0,366.0,329.5" stroke="black" stroke-width="2" fill="none" />
<polyline points="351.5,362.5,355.5,356.0,371.5,356.0,387.5,358.5,403.5,356.5,411.5,364.5,409.5,380.0,407.5,396.0" stroke="black" stroke-width="2" fill="none" />
<polyline points="388.0,383.0,375.5,375.0,369.5,377.5,353.5,369.5" stroke="black" stroke-width="2" fill="none" />
<polyline points="342.5,359.0,352.5,368.5,342.5,382.5,350.0,372.0,357.5,386.0" stroke="black" stroke-width="2" fill="none" />
<polyline points="370.0,381.0,352.0,377.5,348.0,361.5,320.0,363.5,304.0,364.0,288.5,364.0,272.5,362.0" stroke="black" stroke-width="2" fill="none" />
<polyline points="272.0,370.5,274.0,386.0,273.5,402.5,275.5,418.5,290.0,434.5" stroke="black" stroke-width="2" fill="none" />
<polyline points="266.0,436.5,282.5,437.0,308.5,451.5" stroke="black" stroke-width="2" fill="none" />
<polyline points="265.5,431.0,281.0,421.5,297.0,438.0,312.5,446.0,328.0,446.0,343.5,446.5,359.5,446.5,375.5,444.5,391.5,444.5,408.0,436.5,424.5,426.5,440.0,420.5,456.0,414.5" stroke="black" stroke-width="2" fill="none" />
<polyline points="398.5,379.0,388.5,365.0,380.0,383.0,386.0,369.0,385.5,352.5,369.5,352.5,353.0,352.0,337.0,364.0" stroke="black" stroke-width="2" fill="none" />
<polyline points="337.5,366.0,337.5,382.0,337.5,398.5,353.5,404.5,370.0,403.0,386.0,403.0,402.0,403.5" stroke="black" stroke-width="2" fill="none" />
<polyline points="437.0,469.0,421.0,453.5,405.0,443.5,389.0,450.0,373.5,450.5,358.0,450.5,342.0,451.0,326.0,451.0,310.5,452.5,294.0,444.5,277.5,428.0,257.5,430.0,241.5,456.0,225.0,468.0,209.5,473.5,193.0,467.5,176.5,457.5,196.0,437.5,206.5,421.5,214.5,405.0,213.0,389.0,211.5,373.0,202.0,373.0,198.0,359.0,206.0,356.5,196.5,341.0,188.5,325.5,208.5,319.0" stroke="black" stroke-width="2" fill="none" />
<polyline points="209.0,320.0,221.0,335.5,233.0,351.0,231.0,357.0,231.0,373.0,234.5,375.0" stroke="black" stroke-width="2" fill="none" />
<polyline points="232.0,368.0,220.5,350.0,204.5,337.5" stroke="black" stroke-width="2" fill="none" />
<polyline points="194.5,327.5,210.5,331.5,227.0,333.5,233.0,359.5" stroke="black" stroke-width="2" fill="none" />
<polyline points="261.5,343.5,255.0,321.5,240.5,306.0,218.5,300.5,203.0,296.5" stroke="black" stroke-width="2" fill="none" />
<polyline points="194.0,288.0,172.0,304.0,161.5,320.0,155.0,335.5,150.5,351.5,158.5,356.0,150.0,371.5,148.0,387.5,148.0,403.0,154.0,427.5,168.0,445.5,182.0,461.5" stroke="black" stroke-width="2" fill="none" />
<polyline points="219.0,422.0,203.0,442.0,197.0,450.5,209.0,434.5,217.0,418.5,222.5,402.0,224.5,386.0,220.0,366.0,242.0,365.5,235.5,349.5,221.5,345.5,225.0,335.5,218.5,319.5,212.5,313.5" stroke="black" stroke-width="2" fill="none" />
<polyline points="195.0,312.0,177.0,328.0,167.0,331.5,170.5,345.5,162.5,362.0,156.0,366.0,152.5,382.0,152.5,398.0,152.5,414.0" stroke="black" stroke-width="2" fill="none" />
<polyline points="155.5,410.0,156.0,394.0" stroke="black" stroke-width="2" fill="none" />
<polyline points="169.5,373.5,185.5,355.5,171.5,369.5,167.5,385.5,168.0,401.5,178.0,405.5" stroke="black" stroke-width="2" fill="none" />
<polyline points="205.0,420.0,207.0,404.0,207.0,388.0,218.5,374.0,214.0,357.5,206.0,345.0,189.5,335.0,173.5,335.0" stroke="black" stroke-width="2" fill="none" />
<polyline points="181.5,339.5,191.5,355.5,191.5,371.5,183.5,388.0,183.0,406.5,187.0,408.5,189.0,425.0,193.5,429.0" stroke="black" stroke-width="2" fill="none" />
<polyline points="173.5,467.5,158.0,465.5,142.0,465.5,126.0,468.0,110.0,470.5" stroke="black" stroke-width="2" fill="none" />
<polyline points="125.5,473.0,141.5,472.5,157.5,473.0,173.5,475.0" stroke="black" stroke-width="2" fill="none" />
<polyline points="206.5,425.5,190.5,447.5,175.0,451.5,149.0,434.0,133.0,434.0,117.0,434.5,100.5,434.5,84.5,435.0,68.0,435.0,52.0,437.0" stroke="black" stroke-width="2" fill="none" />
<polyline points="56.0,437.5,72.0,437.5,88.0,437.0,104.0,437.0,120.5,437.5,136.5,439.5,152.5,439.0,168.5,453.0,184.5,469.0,200.5,477.5,216.5,481.5,232.5,483.5,248.5,485.5,264.5,485.0,280.5,485.0,296.5,487.0,312.0,487.0,327.5,487.5,343.5,487.5,359.0,487.5" stroke="black" stroke-width="2" fill="none" />
<polyline points="430.5,480.0,414.0,482.0,397.5,481.5,381.0,481.5,365.0,481.5,349.0,481.0,333.0,481.5,316.5,481.5,300.5,481.5,284.5,481.5,268.5,481.5,253.0,479.5,237.0,479.5,225.0,473.5,247.0,458.0,259.5,442.0" stroke="black" stroke-width="2" fill="none" />
<polyline points="246.5,363.0,240.0,347.5,234.0,332.0,226.0,316.0,198.0,322.5,182.0,330.5" stroke="black" stroke-width="2" fill="none" />
<polyline points="182.5,339.5,198.5,353.5,204.5,363.5,202.5,384.0,218.0,354.5,227.5,346.5,243.5,356.5" stroke="black" stroke-width="2" fill="none" />
<polyline points="234.0,322.0,218.0,310.5,202.0,312.5,186.0,318.0,170.0,334.0,166.0,352.0,144.0,361.5,128.0,362.0,112.0,360.0,96.5,360.5,81.0,361.0,65.0,361.0,49.0,361.0" stroke="black" stroke-width="2" fill="none" />
<polyline points="52.5,365.0,52.5,355.0,68.5,355.0,84.5,355.5,101.0,355.0,117.0,357.0,133.0,357.0,149.0,357.0" stroke="black" stroke-width="2" fill="none" />
<polyline points="167.5,359.0,163.5,375.0,161.5,391.0,161.5,407.5,167.5,423.5,157.5,439.5,168.0,456.0,184.0,472.5" stroke="black" stroke-width="2" fill="none" />
<polyline points="206.5,404.0,192.5,418.0,176.5,430.0,160.5,430.0,140.0,422.0,123.5,422.0,107.5,420.0,91.5,420.0,75.5,420.0,59.5,419.5,43.0,438.0,27.0,450.0,35.0,438.0,49.5,421.5,47.5,405.5,45.5,390.0,42.0,374.0,40.0,358.0,38.0,341.5,30.0,325.5,16.0,309.5,2.0,305.5" stroke="black" stroke-width="2" fill="none" />
<polyline points="2.5,300.5,18.5,310.5,34.5,330.0,44.5,358.0,48.5,374.0,50.5,390.0,54.0,406.0,52.0,427.5,38.0,443.5,32.0,454.0,48.0,456.0,64.0,456.0,80.0,458.0,96.0,458.0,112.0,458.0,127.5,460.0" stroke="black" stroke-width="2" fill="none" />
<polyline points="81.5,461.5,66.0,461.5,50.5,461.0,34.5,459.0,19.0,458.5,3.0,456.5" stroke="black" stroke-width="2" fill="none" />
<polyline points="17.5,355.0,1.5,339.0" stroke="black" stroke-width="2" fill="none" />
<polyline points="1.0,333.5,17.0,347.5" stroke="black" stroke-width="2" fill="none" />
<polyline points="17.5,340.0,1.5,328.0" stroke="black" stroke-width="2" fill="none" />
<polyline points="4.0,329.5,8.0,345.5,4.0,361.0,6.0,377.0,16.0,391.0,14.0,407.0,12.0,423.0,4.0,439.0,13.5,451.5,29.5,441.5,45.0,425.5,63.5,412.0,80.0,413.5,96.0,413.0,112.5,415.0,128.5,415.0,144.5,415.0" stroke="black" stroke-width="2" fill="none" />
<polyline points="199.5,419.5,201.5,403.0,197.5,386.5,201.5,382.0" stroke="black" stroke-width="2" fill="none" />
<polyline points="192.5,373.0,188.0,389.5,176.0,405.5" stroke="black" stroke-width="2" fill="none" />
<polyline points="160.5,335.5,176.5,318.0" stroke="black" stroke-width="2" fill="none" />
<polyline points="153.5,335.5,169.5,303.5,185.5,291.5,201.5,285.5,218.0,289.5,234.0,297.5,250.0,311.5,265.5,339.0,281.0,357.0,297.5,359.0,314.0,359.0,329.5,357.5,345.5,335.5,361.5,323.5,378.0,320.0,394.0,324.0,410.0,336.0,425.5,358.5,441.5,361.0,457.5,363.0" stroke="black" stroke-width="2" fill="none" />
<polyline points="372.0,234.0,387.5,227.5,403.0,218.0" stroke="black" stroke-width="2" fill="none" />
<polyline points="378.5,211.5,372.5,205.5,389.0,195.5,373.0,199.5" stroke="black" stroke-width="2" fill="none" />
<polyline points="384.5,180.5,405.0,196.5,399.0,213.0,367.0,229.5,363.0,245.5" stroke="black" stroke-width="2" fill="none" />
<polyline points="365.0,229.5,381.5,223.5,397.5,213.5" stroke="black" stroke-width="2" fill="none" />
<polyline points="392.0,184.5,376.0,181.0,359.5,181.0" stroke="black" stroke-width="2" fill="none" />
<polyline points="360.5,179.0,356.5,195.5,354.0,211.5,350.0,227.5,346.0,244.0,348.0,254.0" stroke="black" stroke-width="2" fill="none" />
<polyline points="354.5,178.5,370.0,174.0,386.0,176.0,402.0,184.0" stroke="black" stroke-width="2" fill="none" />
<polyline points="381.5,176.5,405.5,192.5,407.5,208.5,395.5,224.5,369.5,240.0,364.0,256.0" stroke="black" stroke-width="2" fill="none" />
<polyline points="326.0,209.5,335.5,193.5,315.5,177.5" stroke="black" stroke-width="2" fill="none" />
<polyline points="320.5,174.5,340.5,190.5,338.5,206.5" stroke="black" stroke-width="2" fill="none" />
<polyline points="322.5,180.5,306.5,176.5,290.5,176.5" stroke="black" stroke-width="2" fill="none" />
<polyline points="290.5,176.5,286.5,192.5,282.5,208.5,276.5,224.5,270.5,240.5,266.5,254.5,282.0,254.0" stroke="black" stroke-width="2" fill="none" />
<polyline points="217.0,290.5,221.0,300.0,235.0,316.0,247.0,331.5,256.5,333.5,262.0,345.5,268.0,349.5,265.5,365.5,267.5,375.5,267.5,392.0,269.5,408.0,261.5,423.5,253.5,439.5,241.5,455.5,215.5,471.5,239.0,463.5,255.5,445.5,272.0,443.0,288.0,443.5" stroke="black" stroke-width="2" fill="none" />
<polyline points="259.0,240.0,249.0,234.0,233.0,237.5,217.0,234.0,199.0,234.0,201.0,218.5,217.0,202.5,229.0,200.5" stroke="black" stroke-width="2" fill="none" />
<polyline points="216.5,186.5,199.0,202.5,197.0,208.5,207.0,186.5,223.5,180.0,239.5,177.5,255.5,183.0" stroke="black" stroke-width="2" fill="none" />
<polyline points="243.5,179.0,259.5,195.0" stroke="black" stroke-width="2" fill="none" />
<polyline points="284.5,175.5,301.0,169.5,317.0,171.5,333.0,177.5" stroke="black" stroke-width="2" fill="none" />
<polyline points="356.0,177.0,352.0,193.0,347.5,209.0,345.5,225.0,341.5,241.0,339.5,257.0,349.0,258.5,365.0,250.5" stroke="black" stroke-width="2" fill="none" />
<polyline points="269.5,222.5,260.0,250.5,266.0,234.5,272.0,218.5,278.0,202.0,282.0,186.0,288.0,170.0" stroke="black" stroke-width="2" fill="none" />
<polyline points="262.0,122.0,278.0,120.0,294.5,120.0,310.5,106.0,327.0,91.5,342.5,89.5,358.5,97.5,374.5,119.5,390.5,121.0" stroke="black" stroke-width="2" fill="none" />
<polyline points="400.0,97.5,416.5,99.5,421.0,105.5" stroke="black" stroke-width="2" fill="none" />
<polyline points="395.0,108.5,379.0,90.5,363.0,80.5,347.5,76.5" stroke="black" stroke-width="2" fill="none" />
<polyline points="353.0,78.0,379.5,94.0,393.0,109.5,405.5,131.5,421.5,133.5,438.0,147.5,454.0,157.5,470.5,160.0,486.5,172.0,503.0,198.5" stroke="black" stroke-width="2" fill="none" />
<polyline points="499.0,199.5,483.0,175.5,467.0,161.5" stroke="black" stroke-width="2" fill="none" />
<polyline points="468.5,160.5,487.0,176.5,497.0,192.5,507.0,208.0" stroke="black" stroke-width="2" fill="none" />
<polyline points="492.5,208.0,476.5,180.0,460.0,164.0" stroke="black" stroke-width="2" fill="none" />
<polyline points="459.5,166.5,475.5,182.5,485.0,198.5,493.0,214.5,496.5,230.0,492.5,246.0,498.5,267.5" stroke="black" stroke-width="2" fill="none" />
<polyline points="482.0,200.0,466.0,177.5,449.5,165.5" stroke="black" stroke-width="2" fill="none" />
<polyline points="450.0,156.0,451.5,172.0,458.0,188.5,462.0,204.5,466.5,220.0,472.5,235.5,485.0,254.0,503.0,276.0" stroke="black" stroke-width="2" fill="none" />
<polyline points="507.5,220.5,497.5,204.5,487.5,188.5,475.5,172.5,459.5,156.5" stroke="black" stroke-width="2" fill="none" />
<polyline points="496.0,141.5,496.0,125.0,494.0,109.0,494.5,93.5,501.0,77.5,495.0,85.5" stroke="black" stroke-width="2" fill="none" />
<polyline points="490.0,82.5,506.5,72.0,492.0,80.0,489.5,96.0,489.5,112.0,489.0,128.0,491.0,144.0" stroke="black" stroke-width="2" fill="none" />
<polyline points="410.5,121.5,395.0,98.0,379.5,84.0,363.5,74.0,348.0,70.0" stroke="black" stroke-width="2" fill="none" />
<polyline points="357.0,73.5,383.0,89.5,397.5,105.5,409.5,121.5,414.0,135.0,424.0,141.5,434.0,153.5,436.0,170.0,446.0,172.0,452.0,188.5,456.0,204.5,460.0,221.0,465.5,237.0,473.5,252.5,499.5,270.5" stroke="black" stroke-width="2" fill="none" />
<polyline points="354.0,102.0,338.0,96.0,321.5,99.5,305.5,113.5,315.5,97.5,336.0,99.0" stroke="black" stroke-width="2" fill="none" />
<polyline points="344.0,91.0,364.0,107.5" stroke="black" stroke-width="2" fill="none" />
<polyline points="361.5,116.0,350.0,100.5" stroke="black" stroke-width="2" fill="none" />
<polyline points="356.0,119.5,340.0,118.0,324.0,118.0,312.0,113.5,324.0,97.5" stroke="black" stroke-width="2" fill="none" />
<polyline points="255.0,125.5,271.5,125.5,287.0,125.5,303.0,125.5,318.5,124.0,334.0,124.0,350.0,123.5,366.5,123.0,382.5,125.5,399.0,129.5" stroke="black" stroke-width="2" fill="none" />
<polyline points="421.0,148.5,404.5,142.5,388.5,140.5,372.5,140.5,356.5,138.5,340.5,138.5,324.5,136.5,308.0,136.5,292.5,136.5,276.5,136.0,260.5,135.5,244.5,135.0,228.0,138.5,212.5,140.5,196.5,143.0,180.0,155.0,170.0,165.0,189.5,149.0,179.0,149.0,163.5,149.0,147.5,153.0,131.5,165.5,116.0,183.5" stroke="black" stroke-width="2" fill="none" />
<polyline points="106.0,181.5,106.5,197.5,110.5,213.5,108.5,230.0,142.5,240.0" stroke="black" stroke-width="2" fill="none" />
<polyline points="131.0,246.0,115.0,250.0,99.0,248.0,83.5,246.0,67.5,250.0,52.0,256.0,36.5,256.0,22.5,275.5,30.5,259.5,20.5,243.5,4.5,249.5,8.5,253.0,12.5,237.0,12.5,221.0,30.5,195.0,48.5,186.5,32.0,192.5,16.0,202.5" stroke="black" stroke-width="2" fill="none" />
<polyline points="20.5,208.0,36.5,198.0,40.5,195.5,30.0,223.0,22.0,225.0,27.5,253.0,17.5,268.5,21.0,259.0" stroke="black" stroke-width="2" fill="none" />
<polyline points="16.0,226.0,32.0,224.5" stroke="black" stroke-width="2" fill="none" />
<polyline points="43.5,228.0,27.5,216.0,11.5,222.0" stroke="black" stroke-width="2" fill="none" />
<polyline points="19.0,223.5,26.5,240.0,33.0,238.0" stroke="black" stroke-width="2" fill="none" />
<polyline points="2.0,317.0,4.0,317.0,20.0,333.5,17.5,341.5,21.5,354.0,13.0,362.0,13.0,378.0,9.5,394.5,7.5,410.5,5.5,426.5,9.5,431.0" stroke="black" stroke-width="2" fill="none" />
<polyline points="93.5,185.5,82.5,195.5,96.5,179.5" stroke="black" stroke-width="2" fill="none" />
<polyline points="142.0,188.5,154.0,205.0" stroke="black" stroke-width="2" fill="none" />
<polyline points="160.5,192.5,145.0,176.5" stroke="black" stroke-width="2" fill="none" />
<polyline points="159.0,151.0,132.5,167.0,119.0,183.0,112.5,199.0,118.5,214.5,146.0,230.5,144.5,246.5" stroke="black" stroke-width="2" fill="none" />
<polyline points="194.5,241.5,192.0,225.5,193.5,209.5,199.0,193.5,225.0,178.0" stroke="black" stroke-width="2" fill="none" />
<polyline points="191.0,156.5,189.0,172.5,183.0,188.0,179.0,204.0,174.5,220.0,182.5,207.5" stroke="black" stroke-width="2" fill="none" />
<polyline points="144.0,15.5,127.5,10.0,111.0,5.5" stroke="black" stroke-width="2" fill="none" />
</svg>