<svg xmlns="http://www.w3.org/2000/svg" width="512mm" height="512mm" viewBox="0 0 512 512" version="1.1"><polyline points="227.5,58.5,179.5,74.5,143.5,90.5,123.5,106.5,105.5,123.0,91.5,139.0,79.5,155.0,77.5,171.0,85.0,179.0,101.0,180.5,116.5,182.5,133.0,182.5,149.0,182.5,165.0,180.5,181.5,178.0,199.5,177.5,215.5,169.0,231.5,159.0,247.5,145.0,263.5,126.5,280.0,102.5" stroke="black" stroke-width="2" fill="none" />
<polyline points="217.5,66.0,233.5,62.0,249.5,60.0,266.0,57.5,282.5,55.5,298.5,53.5,314.5,55.5,330.5,57.5,346.0,61.5,375.5,67.5,391.5,83.5,409.5,99.5,423.5,115.5,423.5,123.5,432.0,139.5,442.0,139.5,438.0,155.5,443.5,157.0,443.0,163.0,439.5,179.0,426.0,179.0,433.5,181.5,431.5,193.5" stroke="black" stroke-width="2" fill="none" />
<polyline points="416.5,194.0,400.5,183.5" stroke="black" stroke-width="2" fill="none" />
<polyline points="395.5,180.5,411.5,180.5" stroke="black" stroke-width="2" fill="none" />
<polyline points="390.0,182.0,406.0,194.0,422.0,200.0,438.5,186.0" stroke="black" stroke-width="2" fill="none" />
<polyline points="413.5,173.0,397.5,171.0,381.5,158.5,365.5,127.0" stroke="black" stroke-width="2" fill="none" />
<polyline points="360.0,124.0,376.0,160.0,392.0,176.0,408.0,176.0,424.0,178.0" stroke="black" stroke-width="2" fill="none" />
<polyline points="395.5,125.5,379.0,118.0,363.0,118.0" stroke="black" stroke-width="2" fill="none" />
<polyline points="355.5,114.0,371.5,108.0" stroke="black" stroke-width="2" fill="none" />
<polyline points="357.5,93.5,359.5,109.5,373.5,119.5,401.5,135.0" stroke="black" stroke-width="2" fill="none" />
<polyline points="429.0,131.0,413.5,109.0,397.5,95.0,375.5,73.5,360.0,65.5" stroke="black" stroke-width="2" fill="none" />
<polyline points="359.5,65.0,401.5,77.0,441.5,93.0,461.5,109.5,474.0,126.0,484.0,142.5,490.0,158.5,492.0,174.5,494.0,190.5,494.5,206.5,495.0,222.5,495.0,238.5,498.5,250.5,508.5,266.5,510.5,290.5,500.5,314.5,494.5,330.0,500.0,346.0,510.0,358.0,504.0,374.0,492.5,390.0" stroke="black" stroke-width="2" fill="none" />
<polyline points="504.0,356.5,504.0,340.5,508.0,338.0" stroke="black" stroke-width="2" fill="none" />
<polyline points="510.0,335.5,508.5,351.5" stroke="black" stroke-width="2" fill="none" />
<polyline points="497.0,354.5,494.5,338.5" stroke="black" stroke-width="2" fill="none" />
<polyline points="484.5,335.0,480.5,351.5" stroke="black" stroke-width="2" fill="none" />
<polyline points="471.5,359.5,469.5,343.5,467.0,327.5,469.0,311.5,470.5,296.0,472.5,280.0,484.0,264.5,474.0,289.0" stroke="black" stroke-width="2" fill="none" />
<polyline points="477.5,280.5,485.5,296.5,485.0,308.5,499.0,298.5,504.5,286.0" stroke="black" stroke-width="2" fill="none" />
<polyline points="511.0,265.5,495.0,257.5,478.5,255.5,462.5,271.5" stroke="black" stroke-width="2" fill="none" />
<polyline points="472.0,280.0,488.0,264.0,504.5,274.0,496.5,286.0,492.5,302.0,482.5,318.5,490.5,342.0,490.5,358.0,502.0,361.5,496.0,377.5" stroke="black" stroke-width="2" fill="none" />
<polyline points="487.5,382.5,467.5,366.5,459.5,350.5,451.5,334.5,453.5,343.0" stroke="black" stroke-width="2" fill="none" />
<polyline points="446.0,354.5,462.0,370.5" stroke="black" stroke-width="2" fill="none" />
<polyline points="469.5,382.5,456.0,366.5,444.5,350.0,446.5,333.5,446.5,317.5,452.5,313.5" stroke="black" stroke-width="2" fill="none" />
<polyline points="470.5,311.5,486.5,311.5" stroke="black" stroke-width="2" fill="none" />
<polyline points="509.5,275.5,495.5,259.5,487.5,237.5,471.5,237.5,455.5,253.5,439.5,277.5,423.5,285.5,407.5,294.0,391.5,299.5,375.5,306.0,359.5,284.0,343.5,276.5,327.5,274.5,311.0,278.5,295.5,284.5,279.5,294.5,264.0,310.0,248.0,334.0,232.0,352.5,216.0,352.5,200.0,352.0,184.0,349.5,167.5,349.5,152.0,349.5,136.5,348.0,120.5,348.0,104.5,348.5,88.5,346.5,72.0,346.5,56.0,342.5,39.5,338.5,29.5,330.0,25.5,314.0,23.5,298.0,23.0,272.0,23.0,256.0,21.5,240.0,22.0,224.0,24.0,208.5,27.5,193.0,33.5,177.0,42.0,161.0,54.0,144.5,72.0,129.0,96.0,113.0,124.0,97.5,130.0,95.5,114.0,103.0,98.0,113.0,81.5,120.5,65.5,132.5,49.5,148.0,33.5,172.0" stroke="black" stroke-width="2" fill="none" />
<polyline points="23.5,183.0,39.5,151.0,55.5,133.0,71.5,119.5,87.5,109.5,103.5,101.5,120.0,92.0,136.0,86.5,114.0,97.0,86.0,113.0,62.0,129.0,46.0,145.0,34.5,161.0,28.0,177.0,22.0,193.0,19.5,208.5,17.5,224.5,17.0,240.5,19.0,256.0,24.5,283.5,28.5,299.5,30.5,315.5,35.0,331.5,35.5,345.5,39.5,361.5,44.0,377.5,32.0,398.0,46.5,394.0" stroke="black" stroke-width="2" fill="none" />
<polyline points="48.5,373.0,64.0,381.5,80.0,381.5,80.0,390.0,66.5,406.0,54.5,422.5,58.5,415.0,74.0,399.0,89.5,389.0,105.5,384.5,121.5,386.5,139.5,392.5,155.5,394.5,171.5,394.5,187.5,396.0,204.0,396.0,220.5,398.0,236.5,393.5" stroke="black" stroke-width="2" fill="none" />
<polyline points="223.5,392.0,207.5,392.0,191.5,390.5,175.5,390.5,159.5,388.5,143.0,388.5,127.0,392.5,111.5,390.0,95.5,388.0" stroke="black" stroke-width="2" fill="none" />
<polyline points="118.0,373.0,134.0,375.0,150.0,373.5,165.5,373.5,181.5,374.0,197.0,374.0,213.0,374.0" stroke="black" stroke-width="2" fill="none" />
<polyline points="213.5,370.0,198.0,370.0,182.0,370.0,166.0,369.5,150.0,369.5,134.0,369.5,118.0,369.5" stroke="black" stroke-width="2" fill="none" />
<polyline points="89.5,421.0,87.5,416.5,71.5,416.0" stroke="black" stroke-width="2" fill="none" />
<polyline points="49.5,424.0,33.5,427.5,17.5,427.5,1.5,427.5" stroke="black" stroke-width="2" fill="none" />
<polyline points="2.0,421.5,18.0,421.5,34.0,419.0,50.0,413.0,76.0,409.0,92.0,407.0,108.0,405.0,124.0,403.0,139.5,403.5,155.5,403.5,171.0,403.5" stroke="black" stroke-width="2" fill="none" />
<polyline points="183.0,429.5,199.0,425.5,215.0,426.0,239.5,420.5,256.0,422.5,270.5,437.0,286.5,434.5,302.5,446.5,319.0,460.5,335.5,466.5,351.5,456.5,367.5,442.5" stroke="black" stroke-width="2" fill="none" />
<polyline points="399.5,407.5,415.5,403.5,431.5,401.5,447.5,397.5,464.0,395.5,480.0,395.5" stroke="black" stroke-width="2" fill="none" />
<polyline points="476.0,387.5,460.0,389.0,443.5,381.0,427.5,367.0" stroke="black" stroke-width="2" fill="none" />
<polyline points="421.0,368.5,437.0,384.5" stroke="black" stroke-width="2" fill="none" />
<polyline points="441.5,380.0,425.5,364.0,433.5,348.0,415.5,365.5,400.0,373.5" stroke="black" stroke-width="2" fill="none" />
<polyline points="414.0,366.5,380.0,383.0,375.5,399.0,375.5,414.5,369.5,426.5,361.5,442.0,350.0,458.0" stroke="black" stroke-width="2" fill="none" />
<polyline points="360.0,430.5,363.5,415.0,365.5,399.0,360.0,391.0,344.0,390.5" stroke="black" stroke-width="2" fill="none" />
<polyline points="336.0,376.5,352.0,368.5" stroke="black" stroke-width="2" fill="none" />
<polyline points="353.5,365.0,350.0,377.0,332.5,402.5,316.5,422.0,300.0,427.5,302.0,413.5,322.5,411.0,329.0,393.5,347.0,379.5,360.5,363.5,364.5,347.5,352.5,331.5,348.5,333.5,333.0,327.5,313.0,314.0,297.0,320.0,287.0,328.5,270.5,334.5,256.5,351.0,266.0,337.0,268.0,341.0" stroke="black" stroke-width="2" fill="none" />
<polyline points="268.5,323.0,284.5,309.0,300.5,299.0,276.5,309.5,261.0,327.0,263.0,325.0,279.0,307.0,293.0,311.0,309.0,303.0,325.5,303.0,341.5,307.0,357.5,318.5" stroke="black" stroke-width="2" fill="none" />
<polyline points="354.0,297.0,338.0,285.0" stroke="black" stroke-width="2" fill="none" />
<polyline points="336.0,284.0,360.0,300.0" stroke="black" stroke-width="2" fill="none" />
<polyline points="358.0,305.5,341.5,294.0,325.0,287.5" stroke="black" stroke-width="2" fill="none" />
<polyline points="326.5,288.5,354.5,304.5" stroke="black" stroke-width="2" fill="none" />
<polyline points="356.0,311.5,340.0,299.5,324.0,292.0,308.0,290.5" stroke="black" stroke-width="2" fill="none" />
<polyline points="307.0,286.0,323.0,285.5,339.0,279.5,349.0,277.5,367.0,293.5" stroke="black" stroke-width="2" fill="none" />
<polyline points="331.5,304.5,355.5,320.5,367.5,336.5,371.5,352.5,375.5,368.0,388.0,386.0,403.5,386.0,419.5,386.0" stroke="black" stroke-width="2" fill="none" />
<polyline points="443.5,393.5,427.5,395.5,411.5,395.5,395.5,403.5" stroke="black" stroke-width="2" fill="none" />
<polyline points="368.0,427.0,352.5,445.5,336.5,459.5,320.5,456.0,304.5,436.5" stroke="black" stroke-width="2" fill="none" />
<polyline points="290.0,436.5,306.0,452.5" stroke="black" stroke-width="2" fill="none" />
<polyline points="329.0,445.5,332.5,440.0,336.5,424.0,334.0,408.5,340.0,393.0,336.0,385.0,340.0,366.5,346.0,350.5,342.0,360.5,327.5,372.5,311.5,382.5,293.5,372.5,277.0,366.5,282.5,344.5,290.5,343.0" stroke="black" stroke-width="2" fill="none" />
<polyline points="275.5,376.0,291.5,375.5,311.5,393.5,309.5,409.5,313.5,405.5,329.0,409.5,327.5,425.5,322.0,441.0" stroke="black" stroke-width="2" fill="none" />
<polyline points="290.0,397.5,274.0,393.5" stroke="black" stroke-width="2" fill="none" />
<polyline points="257.0,366.5,273.0,362.5,273.0,356.5,287.5,352.5,289.5,356.5,315.5,350.5,331.0,332.5" stroke="black" stroke-width="2" fill="none" />
<polyline points="333.5,333.0,333.5,349.0,329.5,365.5,321.5,381.5,315.5,390.0" stroke="black" stroke-width="2" fill="none" />
<polyline points="288.5,419.0,272.5,414.5,256.0,420.5,240.0,428.5" stroke="black" stroke-width="2" fill="none" />
<polyline points="244.5,438.0,260.5,448.0,276.5,457.5,292.0,467.0,308.0,469.0" stroke="black" stroke-width="2" fill="none" />
<polyline points="279.0,449.0,265.0,447.0,249.0,435.0" stroke="black" stroke-width="2" fill="none" />
<polyline points="253.0,444.0,265.0,459.5,297.0,475.5" stroke="black" stroke-width="2" fill="none" />
<polyline points="247.5,450.5,263.0,464.5,279.0,474.5,294.5,482.0,310.0,484.0,326.0,481.5,341.5,473.5,357.5,455.5" stroke="black" stroke-width="2" fill="none" />
<polyline points="289.5,474.0,274.0,466.0,258.0,454.5,242.0,446.0" stroke="black" stroke-width="2" fill="none" />
<polyline points="288.0,414.5,272.0,410.5,265.5,409.0,249.5,414.5,241.5,422.5,219.5,430.0,203.5,429.0,187.5,429.0" stroke="black" stroke-width="2" fill="none" />
<polyline points="239.0,370.5,237.0,386.5,243.0,372.5,259.0,380.0,259.0,388.0,275.0,387.5,291.0,394.0,313.0,392.0" stroke="black" stroke-width="2" fill="none" />
<polyline points="326.5,331.5,314.5,347.5,311.5,337.5,328.0,323.5,344.0,323.5,360.0,338.0" stroke="black" stroke-width="2" fill="none" />
<polyline points="353.5,341.5,349.5,357.5,356.0,361.5,344.0,389.5,346.0,405.5,354.0,421.5,358.0,437.5,344.0,453.5" stroke="black" stroke-width="2" fill="none" />
<polyline points="324.5,435.5,312.5,449.5,302.0,433.5,298.0,418.0,297.5,402.0,297.5,386.0,302.0,370.0,306.0,353.5,311.5,337.5,329.5,321.5" stroke="black" stroke-width="2" fill="none" />
<polyline points="329.0,294.5,354.5,310.5" stroke="black" stroke-width="2" fill="none" />
<polyline points="308.0,303.0,310.0,315.0,291.5,331.0,277.5,347.0,275.5,359.0,269.5,373.0,257.0,376.5,267.0,400.5,267.5,420.0,275.5,436.0,273.5,446.0" stroke="black" stroke-width="2" fill="none" />
<polyline points="294.5,314.0,286.5,340.0,270.5,350.0,248.5,346.0,248.5,364.0,228.5,357.5,212.5,357.5,194.5,355.5,178.5,356.0,162.5,356.0,146.5,354.5,130.5,354.5,102.0,352.5,85.5,352.5,69.5,350.5,54.0,346.0,38.0,346.5" stroke="black" stroke-width="2" fill="none" />
<polyline points="40.5,344.5,43.0,360.5,47.0,376.5,53.0,392.5,33.5,408.0" stroke="black" stroke-width="2" fill="none" />
<polyline points="50.5,397.5,35.0,407.5,19.0,409.5,3.0,409.5" stroke="black" stroke-width="2" fill="none" />
<polyline points="3.0,404.0,19.0,403.5,35.0,401.0" stroke="black" stroke-width="2" fill="none" />
<polyline points="19.0,400.0,3.0,400.0" stroke="black" stroke-width="2" fill="none" />
<polyline points="3.5,394.0,19.5,394.0,35.5,392.0,47.0,382.0,62.5,387.5" stroke="black" stroke-width="2" fill="none" />
<polyline points="19.0,318.0,19.0,294.0,3.0,298.5" stroke="black" stroke-width="2" fill="none" />
<polyline points="4.0,290.0,20.0,286.0" stroke="black" stroke-width="2" fill="none" />
<polyline points="19.0,279.5,3.0,281.5" stroke="black" stroke-width="2" fill="none" />
<polyline points="3.0,271.5,4.5,266.0" stroke="black" stroke-width="2" fill="none" />
<polyline points="11.0,310.0,11.0,325.5" stroke="black" stroke-width="2" fill="none" />
<polyline points="80.0,172.0,95.5,178.0" stroke="black" stroke-width="2" fill="none" />
<polyline points="83.5,166.0,99.0,152.0,101.0,141.5,117.0,125.5" stroke="black" stroke-width="2" fill="none" />
<polyline points="126.5,119.0,110.5,134.5,96.5,150.5,88.5,150.5,104.5,132.5,120.5,118.5,137.0,104.5,153.0,94.5,171.5,92.0,187.0,82.0" stroke="black" stroke-width="2" fill="none" />
<polyline points="210.0,77.0,188.0,85.5,200.0,81.5,212.0,77.5,228.0,75.5,244.0,75.5,260.0,77.5,268.5,83.5" stroke="black" stroke-width="2" fill="none" />
<polyline points="215.0,68.5,231.0,66.5,246.5,67.0,262.5,67.0,278.0,73.5,283.5,97.5,273.5,113.5,262.0,129.5,248.0,145.5,230.0,161.5" stroke="black" stroke-width="2" fill="none" />
<polyline points="194.5,173.5,226.5,157.5,244.5,142.0,258.5,126.5,270.0,110.5,280.0,94.5,280.5,78.5,280.5,92.5,264.5,118.5,248.5,138.5,232.5,155.0,217.0,164.5,200.5,172.5,184.5,182.0,168.5,186.5,152.5,188.0,136.0,188.0,120.0,188.0,104.0,186.0,84.5,169.5,90.5,148.0,104.5,132.0,122.0,116.5,142.0,100.5,168.0,92.5,206.0,76.0,200.0,86.0,183.5,92.0,167.5,98.0" stroke="black" stroke-width="2" fill="none" />
<polyline points="102.5,148.5,118.5,132.5,134.5,116.0,150.5,104.0,154.5,98.0,138.5,114.0,120.0,130.0,104.0,145.5,90.0,161.5,90.0,140.0,106.0,122.0,122.0,108.0,138.0,94.0,154.0,84.0,170.0,78.0,185.5,72.0,202.0,68.0,218.0,61.5,234.0,57.5,250.5,53.0,266.5,51.0,282.0,49.0,298.0,49.5,314.0,49.5,330.0,51.5,346.0,55.5,362.0,61.5,378.5,68.0,394.5,78.5,410.5,74.5,426.0,80.5,442.5,88.0,458.0,98.0,473.5,114.0,489.5,140.0" stroke="black" stroke-width="2" fill="none" />
<polyline points="428.0,110.5,412.0,92.0,396.0,79.5" stroke="black" stroke-width="2" fill="none" />
<polyline points="396.0,76.0,412.0,80.0,428.5,85.5,444.5,94.0,461.0,106.0,477.0,126.0" stroke="black" stroke-width="2" fill="none" />
<polyline points="395.5,117.5,379.0,101.5,373.0,89.5,357.0,83.0" stroke="black" stroke-width="2" fill="none" />
<polyline points="355.5,80.5,371.5,84.5,387.5,96.5,403.5,114.5,419.5,130.0" stroke="black" stroke-width="2" fill="none" />
<polyline points="424.0,157.5,419.5,141.0,409.0,125.0,387.0,109.0,370.5,96.5,354.0,95.0" stroke="black" stroke-width="2" fill="none" />
<polyline points="366.0,81.5,390.0,97.5,396.0,112.0,404.0,128.0,416.0,133.5" stroke="black" stroke-width="2" fill="none" />
<polyline points="436.5,138.0,420.5,110.0,404.5,94.0,388.5,86.0,372.5,77.5,356.5,67.5" stroke="black" stroke-width="2" fill="none" />
<polyline points="366.0,75.5,392.0,91.5,407.5,107.5,415.5,123.5,423.5,139.5,430.0,156.0,430.0,171.5" stroke="black" stroke-width="2" fill="none" />
<polyline points="424.5,188.5,408.5,185.0,397.0,183.0,382.5,159.0,373.0,143.0" stroke="black" stroke-width="2" fill="none" />
<polyline points="431.5,129.5,429.5,115.5,415.5,100.0,400.0,84.5" stroke="black" stroke-width="2" fill="none" />
<polyline points="405.0,74.0,443.5,90.0,465.0,105.5,477.5,121.5,487.5,137.5,494.0,153.5,498.0,169.5,498.5,186.0,498.5,202.0,499.0,218.5,499.0,234.5,493.0,250.5,469.0,266.5,459.0,282.0,479.0,292.0,485.0,307.5,481.0,322.0,481.0,338.0,475.0,354.5,481.5,370.5,497.5,372.5,511.0,372.5" stroke="black" stroke-width="2" fill="none" />
<polyline points="440.0,386.0,424.0,372.5,406.0,364.5,390.0,378.5,382.0,380.5,380.5,368.5,402.5,366.5,428.0,351.0,432.0,335.0,434.0,319.5,438.0,303.5,442.5,287.5" stroke="black" stroke-width="2" fill="none" />
<polyline points="470.0,248.0,455.5,264.0,454.0,280.5,424.0,292.5,384.5,308.0,374.5,323.5,375.0,340.0,367.0,354.0,371.0,370.0,369.0,386.0,371.0,402.0,373.0,417.5,371.0,433.0,363.0,449.0,351.0,465.0,322.5,481.0" stroke="black" stroke-width="2" fill="none" />
<polyline points="285.0,465.5,259.5,450.0,254.0,440.0,256.0,430.0,248.0,413.5,254.0,400.0,250.0,400.0,248.5,384.5,256.5,368.5,252.5,346.5,264.5,330.5,278.5,314.5,296.5,298.5" stroke="black" stroke-width="2" fill="none" />
<polyline points="304.5,278.5,279.0,294.5,263.0,310.5,251.0,326.0,243.0,342.0,247.0,351.5,231.0,359.5,231.0,375.0,235.5,393.0,231.5,409.0,239.5,431.5,243.5,447.5,259.5,463.5,287.5,480.0" stroke="black" stroke-width="2" fill="none" />
<polyline points="500.0,391.5,490.0,381.5,474.0,373.5,457.5,347.0,471.0,333.0,483.0,323.5,493.0,313.5,499.0,298.0,501.0,282.5,491.0,266.5" stroke="black" stroke-width="2" fill="none" />
<polyline points="510.0,274.0,485.5,248.0,483.5,242.5,463.5,260.5,459.5,258.5,459.5,266.5,473.5,250.5" stroke="black" stroke-width="2" fill="none" />
<polyline points="473.0,238.5,457.0,254.5,447.0,270.0,423.0,286.0,382.5,302.0,376.5,311.5,392.5,303.5,408.5,298.0,426.5,292.0" stroke="black" stroke-width="2" fill="none" />
<polyline points="396.0,190.0,384.0,174.0,374.0,157.5,366.0,141.5,360.0,125.0,353.5,109.5,351.5,93.5,349.0,77.5,345.0,61.5" stroke="black" stroke-width="2" fill="none" />
</svg>