<svg xmlns="http://www.w3.org/2000/svg" width="512mm" height="512mm" viewBox="0 0 512 512" version="1.1"><polyline points="251.5,38.5,213.5,54.5,181.5,70.5,157.5,86.5,135.5,103.0,115.5,119.0,99.5,135.0,81.5,151.0,65.0,167.0,53.0,182.5,48.5,198.5,47.0,214.5,49.0,230.5,51.0,246.5,53.5,262.0,57.5,277.5,59.5,293.0,61.5,309.0,59.5,321.0,61.5,336.5,90.0,352.5,134.0,368.5" stroke="black" stroke-width="2" fill="none" />
<polyline points="175.0,384.5,173.0,368.0,171.5,351.5,171.5,335.0,179.5,318.5,171.5,334.0" stroke="black" stroke-width="2" fill="none" />
<polyline points="168.5,331.0,184.0,315.5,172.0,325.5,166.0,342.0,166.5,358.0,168.5,374.5,188.5,393.0,206.0,357.0,221.5,359.0,221.5,372.5,223.5,368.5,215.5,372.5,217.5,388.5,225.5,398.5,241.5,376.0,252.0,404.0,246.5,414.0,254.5,419.5,248.5,424.0,249.0,436.0,251.0,452.0,243.0,468.0,229.0,478.0,245.0,476.0" stroke="black" stroke-width="2" fill="none" />
<polyline points="242.5,455.0,233.0,438.5,229.0,428.5" stroke="black" stroke-width="2" fill="none" />
<polyline points="231.5,429.5,239.5,445.5,254.0,451.5,250.0,467.5" stroke="black" stroke-width="2" fill="none" />
<polyline points="250.0,440.5,234.0,430.5" stroke="black" stroke-width="2" fill="none" />
<polyline points="231.5,426.0,247.5,434.0" stroke="black" stroke-width="2" fill="none" />
<polyline points="228.0,436.5,232.0,453.0,235.5,469.0" stroke="black" stroke-width="2" fill="none" />
<polyline points="223.0,489.5,239.0,497.5,255.0,502.0,271.5,504.5,288.0,506.5,304.5,505.0,320.5,504.5,336.5,504.5" stroke="black" stroke-width="2" fill="none" />
<polyline points="341.5,482.5,325.0,482.5,309.0,480.5,293.0,464.5" stroke="black" stroke-width="2" fill="none" />
<polyline points="219.5,466.0,219.5,449.5,216.0,449.5,228.0,433.0,216.0,445.0" stroke="black" stroke-width="2" fill="none" />
<polyline points="217.5,494.0,233.5,502.0,250.0,506.0,266.0,510.0,282.0,510.5,298.0,510.5,314.0,510.5,330.5,510.0,346.5,508.0,362.5,507.5,378.0,504.0,394.0,500.0,410.0,498.0,426.5,494.0,442.5,488.5,458.5,482.0,474.5,476.5,491.0,468.5,506.5,463.0,486.5,470.5,446.5,486.5" stroke="black" stroke-width="2" fill="none" />
<polyline points="475.0,448.5,510.5,432.5" stroke="black" stroke-width="2" fill="none" />
<polyline points="433.5,240.5,433.5,234.5,449.5,232.5" stroke="black" stroke-width="2" fill="none" />
<polyline points="454.5,236.0,448.5,226.0,430.5,222.0,414.5,228.0,414.5,234.0,432.5,229.5,420.5,239.5" stroke="black" stroke-width="2" fill="none" />
<polyline points="418.0,230.5,434.0,227.0,449.5,221.0" stroke="black" stroke-width="2" fill="none" />
<polyline points="483.0,214.5,486.5,230.5,490.5,246.0,494.5,262.0,492.0,278.5,494.0,294.5" stroke="black" stroke-width="2" fill="none" />
<polyline points="501.0,175.0,484.5,156.5,468.0,139.0" stroke="black" stroke-width="2" fill="none" />
<polyline points="466.5,132.5,475.0,148.5,489.0,164.5,503.0,180.0" stroke="black" stroke-width="2" fill="none" />
<polyline points="512.0,176.0,495.5,157.5,479.5,139.5,459.5,111.5,443.5,85.5,427.0,71.5,411.0,61.5,394.5,52.0,378.5,46.0,362.0,40.5,346.0,37.0,330.0,35.0,314.0,32.5,298.0,32.5,282.0,32.5,265.5,34.5,249.5,40.5,233.5,46.5,217.0,52.5,200.5,60.5,184.5,69.0,168.5,79.0,153.0,91.0,137.5,100.5,121.5,114.0,106.0,128.0,90.5,141.5,75.0,158.0,59.5,174.0,41.5,186.0,19.5,212.0" stroke="black" stroke-width="2" fill="none" />
<polyline points="21.0,218.0,37.0,233.5" stroke="black" stroke-width="2" fill="none" />
<polyline points="41.0,244.0,19.0,230.0" stroke="black" stroke-width="2" fill="none" />
<polyline points="13.0,215.5,29.0,191.5,44.5,176.0,60.5,164.0,70.5,152.0,58.5,168.0,40.0,180.0,24.0,196.5,14.0,212.5,16.0,229.0,4.0,257.0,18.0,259.0,18.5,275.0,14.5,290.5,31.0,294.5,33.0,310.0,19.0,322.0,17.0,337.5,22.5,343.5,24.5,355.5,6.5,369.5,14.5,365.5,31.0,355.5" stroke="black" stroke-width="2" fill="none" />
<polyline points="26.0,370.0,10.0,370.5,2.0,374.5" stroke="black" stroke-width="2" fill="none" />
<polyline points="3.0,380.0,19.0,377.5,35.0,381.5,51.0,386.0,67.0,392.5,83.0,398.5,99.0,406.5,114.5,412.5,130.5,420.5,146.5,426.5,159.0,448.5,175.0,462.5" stroke="black" stroke-width="2" fill="none" />
<polyline points="239.5,399.0,229.5,408.5,221.5,390.5,227.5,374.0,235.5,371.0,225.5,385.0" stroke="black" stroke-width="2" fill="none" />
<polyline points="225.5,397.0,237.5,381.0" stroke="black" stroke-width="2" fill="none" />
<polyline points="242.5,383.0,250.5,399.5,244.0,415.5" stroke="black" stroke-width="2" fill="none" />
<polyline points="274.0,380.0,258.0,350.5,242.0,330.0" stroke="black" stroke-width="2" fill="none" />
<polyline points="248.5,329.5,260.5,345.5,269.5,361.5,280.0,377.5,286.0,393.5,290.0,410.0,294.0,426.0,294.5,441.5,296.5,457.5,308.0,473.0,312.0,473.0,328.0,475.0,344.0,475.5,359.5,473.5,375.5,472.0,391.0,470.0,407.0,468.0,423.5,464.5,439.5,460.5,455.5,456.5,471.5,451.0,487.5,444.5,503.5,437.0" stroke="black" stroke-width="2" fill="none" />
<polyline points="485.0,307.5,468.5,309.0,452.5,299.0,436.5,279.0,420.0,257.0,404.0,233.5,387.5,214.0,371.0,195.5" stroke="black" stroke-width="2" fill="none" />
<polyline points="369.0,192.0,385.0,187.5,401.0,185.5,417.0,183.5" stroke="black" stroke-width="2" fill="none" />
<polyline points="428.0,165.0,412.0,157.0" stroke="black" stroke-width="2" fill="none" />
<polyline points="412.5,156.5,418.5,158.5,428.5,182.5,444.5,180.5,460.5,176.5" stroke="black" stroke-width="2" fill="none" />
<polyline points="454.0,170.5,437.5,174.5,421.5,178.5,405.5,180.5,389.0,182.5,372.5,184.5,356.5,181.0" stroke="black" stroke-width="2" fill="none" />
<polyline points="392.0,134.5,376.0,124.5" stroke="black" stroke-width="2" fill="none" />
<polyline points="377.5,120.5,395.5,136.5" stroke="black" stroke-width="2" fill="none" />
<polyline points="388.0,126.0,372.0,118.5" stroke="black" stroke-width="2" fill="none" />
<polyline points="372.0,118.0,389.5,134.0" stroke="black" stroke-width="2" fill="none" />
<polyline points="414.5,107.0,426.5,122.5,436.5,138.5,444.5,154.5" stroke="black" stroke-width="2" fill="none" />
<polyline points="444.0,134.0,450.0,150.0,456.0,166.0,470.0,184.5" stroke="black" stroke-width="2" fill="none" />
<polyline points="504.0,171.5,490.0,155.5,476.5,139.5" stroke="black" stroke-width="2" fill="none" />
<polyline points="424.0,77.0,408.5,67.5,392.5,57.5,376.5,52.0,360.5,46.5" stroke="black" stroke-width="2" fill="none" />
<polyline points="347.5,52.0,363.5,53.5,379.5,59.5,395.5,65.5,411.5,75.5" stroke="black" stroke-width="2" fill="none" />
<polyline points="412.0,82.0,396.0,72.0,380.0,63.5,364.0,60.0,348.0,56.0,332.5,54.5,317.0,55.0,301.0,55.0,285.0,55.0" stroke="black" stroke-width="2" fill="none" />
<polyline points="278.5,50.0,294.5,50.0,310.5,49.5,326.0,49.0,342.0,49.0,347.5,41.0,389.5,56.5,415.0,73.0,441.0,99.0" stroke="black" stroke-width="2" fill="none" />
<polyline points="441.5,97.0,425.0,93.0,409.5,91.0,393.5,91.0,377.5,93.5,362.0,95.5,345.5,100.0,329.5,106.0,313.5,112.0,297.5,114.5,281.5,106.5,265.5,96.5,249.0,88.5,233.0,82.5,217.5,76.0,201.5,72.0" stroke="black" stroke-width="2" fill="none" />
<polyline points="193.5,70.0,209.0,62.0,225.0,53.5,241.0,49.5,257.0,43.5,272.5,41.5,288.5,41.5,304.5,41.5,320.5,41.5,337.0,45.5,373.0,45.0,407.0,61.5,431.0,77.5,445.5,93.5,454.0,110.0,462.5,126.0,466.5,141.5,470.5,157.5,475.0,173.5,479.5,189.5,481.5,197.0,483.0,205.5,481.0,222.0,484.5,238.0,486.0,254.0,489.5,270.5,497.5,288.5,495.5,304.5" stroke="black" stroke-width="2" fill="none" />
<polyline points="362.5,171.5,346.5,167.0,330.5,149.0,314.5,135.0" stroke="black" stroke-width="2" fill="none" />
<polyline points="313.5,134.5,329.5,150.5,343.0,166.5,357.0,182.5,380.5,206.0,394.5,224.0,406.5,239.5,417.0,255.5,429.0,273.5,441.5,289.0,455.5,305.0" stroke="black" stroke-width="2" fill="none" />
<polyline points="508.5,386.0,492.0,389.5,476.0,393.0,459.5,397.0,443.5,401.0,427.5,405.0,411.5,407.5,395.5,411.5,379.5,413.5,364.0,413.5,348.0,414.0,332.5,412.0,317.0,410.5,299.0,396.5,283.5,370.5" stroke="black" stroke-width="2" fill="none" />
<polyline points="204.0,373.5,208.0,365.5,208.0,381.5,204.0,399.5,204.0,416.0,204.0,434.0,207.5,450.0" stroke="black" stroke-width="2" fill="none" />
<polyline points="246.0,484.0,254.0,468.0,258.0,452.0,234.0,474.0,218.0,471.5,202.0,447.5,194.0,436.0,190.5,420.0,188.5,404.0,192.5,388.0,196.5,372.0,206.5,356.5,202.5,370.5" stroke="black" stroke-width="2" fill="none" />
<polyline points="178.0,340.0,193.5,314.0,209.0,309.5,225.0,313.5,241.0,321.5,257.0,340.0,273.0,366.0,299.0,390.0,319.5,406.0,311.5,424.0" stroke="black" stroke-width="2" fill="none" />
<polyline points="242.0,315.0,226.0,293.0,209.5,272.5,193.5,258.5,177.5,250.0,161.5,244.0" stroke="black" stroke-width="2" fill="none" />
<polyline points="166.0,242.5,182.0,246.0,197.5,254.5,213.5,268.5,230.0,288.5,246.5,310.5,262.5,330.5,278.5,352.0,294.5,376.0,310.5,401.5,326.5,405.5,342.5,407.5,358.5,410.0,374.5,408.0,390.5,408.0,406.5,404.0,422.5,402.0,438.0,398.0,454.0,394.0,470.0,389.5,486.0,385.5,502.0,381.5" stroke="black" stroke-width="2" fill="none" />
<polyline points="248.5,479.5,232.5,485.5,216.0,493.0,200.0,483.0,184.0,475.5,168.0,465.5,152.0,449.5,140.0,427.0,124.0,421.5,108.0,415.5,92.5,408.0,76.5,401.5,61.0,395.5,45.5,390.0,30.0,386.0,14.0,382.0" stroke="black" stroke-width="2" fill="none" />
<polyline points="19.0,360.5,3.0,356.5" stroke="black" stroke-width="2" fill="none" />
<polyline points="17.0,328.5,23.0,326.0" stroke="black" stroke-width="2" fill="none" />
<polyline points="21.5,317.5,35.5,333.5,34.0,349.5" stroke="black" stroke-width="2" fill="none" />
<polyline points="57.5,343.5,73.5,347.5,89.5,353.5,105.5,358.0,121.0,364.5,137.0,370.5,153.0,377.0,169.5,377.0" stroke="black" stroke-width="2" fill="none" />
<polyline points="212.0,413.0,218.0,409.0,200.0,401.0,200.0,385.0,176.0,390.5,160.0,384.0,143.5,377.5,127.5,371.5,111.5,365.5,95.5,359.0,79.5,355.0,63.5,349.0" stroke="black" stroke-width="2" fill="none" />
<polyline points="30.5,368.0,38.5,352.0,38.0,324.0,38.0,308.0,34.0,292.0,34.5,286.0,30.5,294.5,18.5,298.5,22.5,282.5,24.5,266.5,11.0,252.5,3.0,254.5" stroke="black" stroke-width="2" fill="none" />
<polyline points="10.5,266.0,7.0,279.5" stroke="black" stroke-width="2" fill="none" />
<polyline points="54.0,195.5,70.0,169.5,86.0,153.0,102.0,139.0,118.0,123.0,134.0,109.0,150.0,99.0,166.0,89.0,181.5,81.5,197.5,75.5,213.0,79.5,229.5,84.0,246.0,91.5,262.0,99.0,278.5,109.0" stroke="black" stroke-width="2" fill="none" />
<polyline points="273.0,123.0,257.0,133.5,241.0,147.5,235.0,160.0,255.0,144.5,283.0,128.5" stroke="black" stroke-width="2" fill="none" />
<polyline points="336.0,102.5,309.5,124.0,325.5,119.5,341.5,113.5,358.0,110.0,374.0,106.0,390.0,104.0" stroke="black" stroke-width="2" fill="none" />
<polyline points="353.0,111.0,306.5,127.0,287.0,143.0,264.5,159.0,244.5,174.5,220.0,190.5,196.5,206.5,175.0,222.0,157.5,238.0,139.5,253.5,121.5,270.0,103.5,286.0,85.5,302.0,75.0,312.0,90.5,295.5,106.0,282.0,121.5,268.0,137.5,254.5,153.0,241.0,168.5,227.0,184.5,215.0,200.5,202.5,217.0,192.5,233.5,180.5,249.5,170.5,265.5,156.5,282.0,144.5,298.0,132.5,324.0,150.5,340.0,169.0,356.0,187.0,372.0,204.5,388.5,222.0,404.5,244.0,421.0,267.5,437.0,289.5,453.5,309.5,469.5,315.5,485.5,313.5,501.5,293.5" stroke="black" stroke-width="2" fill="none" />
<polyline points="451.0,307.5,437.0,292.0,425.0,276.0,415.0,260.0,402.5,244.0,390.5,228.0,378.5,211.5,364.5,195.5,350.5,180.0,337.0,164.0,321.0,148.0,311.0,132.5,353.0,116.5" stroke="black" stroke-width="2" fill="none" />
<polyline points="339.5,107.5,301.5,123.5,281.5,151.5,261.5,167.0,231.5,189.0,207.5,204.5,186.0,220.5,166.5,236.0,153.0,248.0,135.5,264.0,118.0,280.0,100.0,296.0" stroke="black" stroke-width="2" fill="none" />
<polyline points="118.0,369.5,74.0,353.5,56.0,338.0,54.0,322.5,58.0,306.5,54.0,290.0,50.0,273.5,46.0,257.0,38.0,241.0,28.0,225.0,20.5,209.5,33.0,193.5,49.0,177.5,51.0,191.5" stroke="black" stroke-width="2" fill="none" />
<polyline points="176.5,244.5,204.5,260.5,218.5,276.5,232.5,292.5,244.5,308.5,256.5,324.5,268.0,340.0,278.0,356.0,288.0,369.5,290.0,382.0,296.0,392.0,307.5,408.0,307.0,423.5" stroke="black" stroke-width="2" fill="none" />
<polyline points="239.0,503.5,205.0,487.5,177.0,471.5,157.0,455.5,143.0,439.5,127.0,423.0,89.0,406.5,50.5,390.5" stroke="black" stroke-width="2" fill="none" />
<polyline points="54.0,387.5,92.5,403.5,130.5,419.5,152.5,436.0,160.5,452.0,182.5,468.0" stroke="black" stroke-width="2" fill="none" />
<polyline points="294.5,472.5,290.5,456.0,290.5,440.0,287.0,424.0,285.0,408.0,278.5,392.0,272.5,375.5,262.0,359.5,251.5,343.5,247.0,327.5,219.0,312.0" stroke="black" stroke-width="2" fill="none" />
<polyline points="201.5,310.5,183.5,326.5,177.5,342.5,177.5,358.5,181.5,374.0,192.0,400.0,193.5,416.0,197.5,432.0,201.5,448.0,207.5,464.0,227.5,480.0,251.5,508.0" stroke="black" stroke-width="2" fill="none" />
<polyline points="241.5,315.0,229.5,299.0,217.5,283.0,202.0,267.0,178.0,251.0" stroke="black" stroke-width="2" fill="none" />
<polyline points="254.0,95.5,214.0,79.5" stroke="black" stroke-width="2" fill="none" />
<polyline points="218.0,75.0,258.0,91.5,284.0,107.5,270.0,125.5,248.0,141.5,230.0,157.5,224.0,171.5,210.5,187.5,220.5,177.5,237.0,159.5,253.0,148.0,269.0,135.5,285.0,127.5,301.0,126.0,317.0,116.5,333.0,110.5,349.0,104.5,364.5,102.5,380.5,100.5,396.5,98.5,413.0,98.5,427.0,102.5,435.0,114.5,451.5,148.5" stroke="black" stroke-width="2" fill="none" />
<polyline points="403.5,78.0,369.0,62.0" stroke="black" stroke-width="2" fill="none" />
<polyline points="379.5,59.0,409.5,75.0" stroke="black" stroke-width="2" fill="none" />
<polyline points="346.0,77.5,330.0,69.5" stroke="black" stroke-width="2" fill="none" />
<polyline points="326.0,65.0,342.0,71.0,358.5,79.0" stroke="black" stroke-width="2" fill="none" />
<polyline points="348.0,79.5,326.0,63.5" stroke="black" stroke-width="2" fill="none" />
<polyline points="255.0,43.5,213.0,59.5,193.5,73.5,163.5,89.5,140.0,105.0,120.0,121.5,104.0,137.5,86.0,154.0,70.0,170.0,58.0,186.5,54.0,202.5,54.0,219.0,55.5,235.0,57.5,250.5,59.5,266.5,63.5,288.0,68.0,304.0,79.5,312.0,72.0,320.0,88.0,306.0,104.0,292.0,120.0,276.5,136.0,264.0,151.5,248.0,167.5,235.5,183.5,221.0,199.5,209.5,215.5,197.5,231.5,187.5,247.5,175.5,264.0,163.5,279.5,151.5,295.5,140.0,311.5,130.0,327.5,124.0,344.0,120.5,360.0,114.5,376.0,112.5,392.0,109.0,408.5,109.0,424.5,117.0,430.5,126.5" stroke="black" stroke-width="2" fill="none" />
</svg>