<svg xmlns="http://www.w3.org/2000/svg" width="512mm" height="512mm" viewBox="0 0 512 512" version="1.1"><polyline points="139.5,42.5,123.5,58.5,123.5,74.5,119.5,90.5,113.5,107.0,113.5,123.0,121.5,139.0,105.5,157.0,97.0,173.0,119.0,170.5,118.5,186.5,119.0,204.5,109.0,216.5,91.0,232.5,105.5,236.0,99.5,247.5,87.5,263.0,73.5,279.0,79.5,285.0,71.5,302.5,64.0,304.5,72.0,318.5,88.5,326.5,100.5,331.0,100.5,337.0,118.5,353.0,134.5,333.0,150.5,315.5,166.5,301.5,184.5,325.5,200.5,335.5,218.5,356.0,234.0,356.0,249.5,368.0,265.5,350.0,281.0,384.0,297.0,396.0,313.0,404.0,329.0,406.0,345.0,404.0,361.0,396.0,377.0,374.0,393.5,360.5,403.5,360.5,426.0,363.0,438.0,349.0,454.5,329.0" stroke="black" stroke-width="2" fill="none" />
<polyline points="481.0,340.5,497.0,344.5,499.0,352.0" stroke="black" stroke-width="2" fill="none" />
<polyline points="484.0,358.5,482.0,358.0,480.0,341.5,481.5,341.5" stroke="black" stroke-width="2" fill="none" />
<polyline points="440.0,361.5,456.0,385.5,472.0,397.5,488.0,395.5,504.0,385.5,494.0,392.0,496.0,409.5,484.0,422.0,484.0,438.0,488.0,434.0,496.0,444.0" stroke="black" stroke-width="2" fill="none" />
<polyline points="510.5,426.0,510.5,426.0,500.5,410.0,494.0,402.0" stroke="black" stroke-width="2" fill="none" />
<polyline points="460.0,437.5,476.5,407.5,493.0,397.5,509.5,389.5,485.0,402.0,469.5,418.0,463.5,434.0,463.5,450.0,470.0,466.5,494.5,482.5" stroke="black" stroke-width="2" fill="none" />
<polyline points="500.0,488.0,484.0,483.5,468.0,469.5" stroke="black" stroke-width="2" fill="none" />
<polyline points="490.0,485.5,466.0,469.5,460.0,453.5,458.0,437.5" stroke="black" stroke-width="2" fill="none" />
<polyline points="456.5,436.5,444.5,452.5,424.5,468.0" stroke="black" stroke-width="2" fill="none" />
<polyline points="430.0,413.5,422.0,405.5,428.5,395.0,426.5,409.0,435.0,401.0,439.0,401.0,434.5,393.5,418.5,391.5" stroke="black" stroke-width="2" fill="none" />
<polyline points="426.0,367.5,446.0,383.5,456.0,399.0,458.0,415.0,452.0,431.0,442.0,447.0,420.0,463.0" stroke="black" stroke-width="2" fill="none" />
<polyline points="461.0,411.0,459.0,395.5,447.0,379.0,433.0,361.0,439.0,345.0,452.0,329.0,434.0,332.5,418.5,330.5,402.5,330.0,387.0,328.0,371.5,325.5,356.0,314.0" stroke="black" stroke-width="2" fill="none" />
<polyline points="360.0,314.5,380.0,333.0,385.5,349.0,389.5,364.5" stroke="black" stroke-width="2" fill="none" />
<polyline points="405.0,365.5,379.0,381.5,369.0,397.5,366.5,413.5,370.0,429.0,378.0,445.0,396.0,461.0" stroke="black" stroke-width="2" fill="none" />
<polyline points="356.0,430.0,351.5,446.0,339.0,461.5,345.0,443.5,371.0,433.5,387.0,456.0,403.0,464.0,419.0,464.0,435.5,454.0,451.5,432.0" stroke="black" stroke-width="2" fill="none" />
<polyline points="465.0,400.5,447.0,381.0,430.5,367.5,414.5,365.5,398.5,368.0,382.0,378.0,365.5,402.0,345.0,408.0,328.5,412.0,312.5,408.5,297.0,404.0,279.0,390.0,259.0,388.5,242.5,370.0,216.5,350.5,200.5,344.5,184.5,335.0,168.5,329.0,153.0,345.0,147.0,331.5,131.0,347.0,111.0,371.0,95.0,389.0,80.0,405.0,64.0,418.5,48.5,434.5,44.5,438.0,61.0,422.0,79.5,405.5,96.0,390.0,109.5,373.5,111.5,357.5,133.5,337.5,145.5,321.5,159.0,305.5,173.0,289.5,174.5,274.0,176.5,258.0,178.0,242.5,166.0,237.0" stroke="black" stroke-width="2" fill="none" />
<polyline points="156.5,233.5,172.5,233.5,197.0,243.5,221.0,259.5" stroke="black" stroke-width="2" fill="none" />
<polyline points="216.5,266.0,200.5,262.0" stroke="black" stroke-width="2" fill="none" />
<polyline points="205.0,253.5,189.5,241.0" stroke="black" stroke-width="2" fill="none" />
<polyline points="187.0,244.0,197.0,259.5,219.5,275.5,220.0,291.5,218.5,307.5,226.5,320.0,233.0,336.0" stroke="black" stroke-width="2" fill="none" />
<polyline points="246.0,326.5,258.0,338.5,264.0,354.0,266.0,366.0,262.0,363.5,272.5,379.0" stroke="black" stroke-width="2" fill="none" />
<polyline points="261.5,415.5,277.5,421.5" stroke="black" stroke-width="2" fill="none" />
<polyline points="280.0,433.0,263.5,419.0" stroke="black" stroke-width="2" fill="none" />
<polyline points="255.5,416.5,271.5,432.0" stroke="black" stroke-width="2" fill="none" />
<polyline points="255.0,442.5,239.5,436.5" stroke="black" stroke-width="2" fill="none" />
<polyline points="245.5,432.0,257.0,448.0,263.0,447.5,257.0,463.5" stroke="black" stroke-width="2" fill="none" />
<polyline points="242.5,448.5,226.5,445.0" stroke="black" stroke-width="2" fill="none" />
<polyline points="219.0,454.0,235.0,460.0" stroke="black" stroke-width="2" fill="none" />
<polyline points="200.0,414.0,184.0,412.0" stroke="black" stroke-width="2" fill="none" />
<polyline points="174.0,402.5,180.0,418.0,171.5,426.5,169.5,434.5,180.0,450.5,176.5,440.5,192.5,446.5" stroke="black" stroke-width="2" fill="none" />
<polyline points="199.5,436.5,183.5,414.5,178.0,399.0,172.0,385.0" stroke="black" stroke-width="2" fill="none" />
<polyline points="176.5,377.5,192.5,385.5" stroke="black" stroke-width="2" fill="none" />
<polyline points="198.5,391.0,182.5,383.5,174.5,369.5,158.5,371.5" stroke="black" stroke-width="2" fill="none" />
<polyline points="140.5,391.5,156.5,364.0,136.0,368.0,127.5,384.0,119.5,400.0,115.0,416.0,129.0,428.0" stroke="black" stroke-width="2" fill="none" />
<polyline points="134.5,426.0,142.5,409.5,140.0,400.0,124.0,412.0" stroke="black" stroke-width="2" fill="none" />
<polyline points="122.0,410.0,138.0,384.0,154.0,354.0,170.5,362.0,178.5,374.5,194.5,376.0" stroke="black" stroke-width="2" fill="none" />
<polyline points="169.5,400.0,165.5,416.0,151.5,420.5,149.5,436.5" stroke="black" stroke-width="2" fill="none" />
<polyline points="162.0,440.0,170.5,420.0,170.5,429.5" stroke="black" stroke-width="2" fill="none" />
<polyline points="142.0,393.5,157.5,371.5,155.5,388.0,163.5,404.0,159.5,420.0,156.0,436.5,152.0,452.5,140.0,476.5,148.0,473.0,164.5,471.0,180.5,471.0,196.5,472.5,212.5,474.5" stroke="black" stroke-width="2" fill="none" />
<polyline points="248.5,464.5,230.0,451.0,215.5,445.0,229.5,429.5,233.5,413.5,232.0,397.5,228.5,379.5,212.5,379.0,197.0,372.5,193.0,366.5,189.5,354.5,197.5,334.5,161.5,324.5,153.5,322.5,153.5,323.0" stroke="black" stroke-width="2" fill="none" />
<polyline points="166.0,334.0,182.0,342.5,198.0,350.5,214.0,358.5,230.0,368.5,246.0,384.0,262.5,399.5" stroke="black" stroke-width="2" fill="none" />
<polyline points="240.5,413.5,224.5,441.5,212.5,455.5,208.5,440.0,204.5,424.5,206.0,406.5,210.0,390.5,228.5,374.5,224.5,348.5,224.5,332.5,208.5,326.5,192.5,315.0,165.0,298.5,148.5,286.5,128.5,270.0,112.5,290.5,88.5,282.0,86.0,288.0,82.0,308.0,66.0,314.0,50.5,315.5,34.5,310.0,20.5,286.0,24.0,270.5,34.0,254.5,20.0,238.5,14.0,222.0,22.0,214.0,17.5,202.0,1.5,204.0" stroke="black" stroke-width="2" fill="none" />
<polyline points="1.0,207.5,17.0,207.5,29.0,212.0,45.5,196.5,60.0,178.5,64.5,169.0" stroke="black" stroke-width="2" fill="none" />
<polyline points="56.5,153.5,72.5,157.5,88.5,174.0,118.5,174.0,102.5,192.0,80.5,202.0,68.5,210.0,66.0,238.0,62.0,238.0,70.0,233.5,86.0,219.5,86.0,209.5,100.0,194.0,116.5,194.0,128.5,206.0,146.5,202.0,162.5,188.0,178.5,180.0,194.5,176.0" stroke="black" stroke-width="2" fill="none" />
<polyline points="180.5,178.5,151.0,182.5,149.0,198.5,141.0,214.0,115.0,224.0,121.0,249.5,105.0,249.5,97.0,265.0,109.5,269.0,109.5,263.0" stroke="black" stroke-width="2" fill="none" />
<polyline points="133.5,247.5,131.5,263.5,118.0,277.5,100.0,294.0,95.5,306.0,89.5,322.0,90.0,330.0,102.0,345.5" stroke="black" stroke-width="2" fill="none" />
<polyline points="103.0,322.0,119.0,314.0,135.5,303.5,151.5,296.0,147.5,296.0,121.5,312.0,119.5,320.0,104.0,322.0,104.5,338.0,106.5,354.0,86.5,370.0,66.5,386.0,50.0,402.0,38.0,417.5,30.0,433.5,38.0,459.5,56.0,475.0,72.5,471.5,78.5,455.5,87.0,453.5,95.0,464.0,97.0,452.0,119.0,461.5,135.0,449.0,150.5,453.0,170.0,449.5,194.0,449.5,207.5,435.5,223.5,433.5,243.0,429.5,259.0,439.5" stroke="black" stroke-width="2" fill="none" />
<polyline points="212.0,477.5,195.5,475.5,179.5,473.5,163.5,473.5,147.5,477.5" stroke="black" stroke-width="2" fill="none" />
<polyline points="135.5,469.5,151.5,457.5,167.5,455.5,183.5,457.5,200.0,455.5,216.0,457.5,232.0,463.5,247.5,469.0" stroke="black" stroke-width="2" fill="none" />
<polyline points="298.5,440.5,284.5,417.0,287.0,401.0,281.0,400.5,281.0,384.5,263.0,380.5,243.0,362.5,231.5,346.5,239.5,338.5,233.5,322.5,225.0,306.5,227.0,290.5,225.0,274.5,227.0,260.0,231.0,244.0,243.0,227.5,253.0,211.5,250.5,195.5,242.5,186.0,262.5,170.0,270.0,154.5,276.0,132.5,278.0,117.0,280.0,101.0,290.0,85.5,288.5,69.0,284.5,61.0,268.5,55.0,252.5,62.5,236.5,50.5,220.5,43.0,204.5,40.5,189.0,41.0,173.5,45.0,157.5,45.0,141.5,42.5,125.5,58.5" stroke="black" stroke-width="2" fill="none" />
<polyline points="134.0,67.5,150.0,52.0,140.0,60.5,130.0,60.5,149.5,58.0,137.5,74.0,142.0,66.0,158.0,55.5" stroke="black" stroke-width="2" fill="none" />
<polyline points="139.5,47.0,127.5,63.0,129.5,81.0,123.5,97.5,118.0,114.0,124.0,130.5,122.0,146.5,138.0,150.5,156.0,142.5,168.5,138.5,185.0,146.5,201.0,150.5,214.5,164.5,230.5,152.5" stroke="black" stroke-width="2" fill="none" />
<polyline points="229.5,119.5,214.0,109.0" stroke="black" stroke-width="2" fill="none" />
<polyline points="208.0,127.0,192.5,119.0" stroke="black" stroke-width="2" fill="none" />
<polyline points="185.0,114.0,201.0,112.0,217.0,124.0,219.0,128.0" stroke="black" stroke-width="2" fill="none" />
<polyline points="209.0,156.0,193.5,153.5,177.0,149.5,154.5,149.5,138.0,169.5,126.5,183.5,128.5,181.0,135.0,165.0,155.5,149.0,150.0,133.0,150.0,117.0,160.0,100.5,174.5,81.0,188.5,79.5,172.5,87.0" stroke="black" stroke-width="2" fill="none" />
<polyline points="169.0,86.5,184.5,76.5" stroke="black" stroke-width="2" fill="none" />
<polyline points="192.0,101.0,226.0,117.5,234.0,133.5,232.0,149.5" stroke="black" stroke-width="2" fill="none" />
<polyline points="228.5,112.5,224.5,104.0,208.5,108.0,192.5,102.0,176.0,100.0,160.0,108.0" stroke="black" stroke-width="2" fill="none" />
<polyline points="166.0,101.5,156.0,117.5,155.5,133.5,165.5,149.5,201.5,169.5,216.0,174.0,232.0,171.5,248.0,175.5,264.0,156.0" stroke="black" stroke-width="2" fill="none" />
<polyline points="231.5,164.0,237.5,152.0,239.0,136.0,237.0,120.0,233.0,108.0,208.5,102.0,198.0,97.5,182.0,93.0,165.5,95.0,149.5,117.0" stroke="black" stroke-width="2" fill="none" />
<polyline points="168.0,138.5,171.5,152.0,187.5,161.5" stroke="black" stroke-width="2" fill="none" />
<polyline points="173.5,188.5,151.5,204.5,133.0,216.5,131.0,218.5,138.5,222.0,148.5,222.0,160.5,193.5,177.0,187.5,193.0,185.5,209.5,181.0,225.5,177.0" stroke="black" stroke-width="2" fill="none" />
<polyline points="243.0,215.5,227.0,219.5,227.0,209.5,211.0,211.5,194.5,211.5" stroke="black" stroke-width="2" fill="none" />
<polyline points="190.5,209.5,186.0,225.5,184.0,241.5,182.0,257.0,184.0,273.0,192.5,288.5,212.5,304.5,220.0,326.5,216.0,342.5,210.0,362.5,234.0,374.5,242.0,390.0,251.5,406.5,259.5,422.5,278.0,438.5" stroke="black" stroke-width="2" fill="none" />
<polyline points="336.0,439.0,324.0,455.0,318.0,469.5,327.5,449.5,343.5,436.0" stroke="black" stroke-width="2" fill="none" />
<polyline points="351.5,436.0,339.5,452.0,321.0,464.5,343.0,456.5" stroke="black" stroke-width="2" fill="none" />
<polyline points="347.5,424.0,327.5,440.5,315.5,457.0,315.5,455.5,331.0,438.0,347.0,426.5,367.0,439.0,383.0,461.0,398.5,469.0,414.5,471.0,430.0,465.0,446.5,448.5,469.0,465.0,485.0,479.0,501.5,483.0" stroke="black" stroke-width="2" fill="none" />
<polyline points="503.0,328.5,487.0,320.5,471.5,320.5,456.0,326.0,440.0,320.0,424.5,320.0,408.5,317.5,392.5,317.5,377.0,315.5,361.0,313.5" stroke="black" stroke-width="2" fill="none" />
<polyline points="347.0,318.5,371.0,334.5,383.0,350.5,385.0,366.0,373.0,382.0,359.0,397.5,363.0,416.0,365.0,432.0,373.0,448.5,389.5,464.5" stroke="black" stroke-width="2" fill="none" />
<polyline points="358.0,341.0,342.0,335.5" stroke="black" stroke-width="2" fill="none" />
<polyline points="339.0,333.5,355.5,335.5,371.5,345.5" stroke="black" stroke-width="2" fill="none" />
<polyline points="349.0,334.5,381.0,336.0,397.0,356.0,413.0,351.5,428.5,353.5" stroke="black" stroke-width="2" fill="none" />
<polyline points="362.5,346.0,343.0,329.5" stroke="black" stroke-width="2" fill="none" />
<polyline points="309.0,318.5,287.0,334.5,272.5,350.5,260.5,366.5,276.5,376.5,290.5,394.5" stroke="black" stroke-width="2" fill="none" />
<polyline points="231.5,381.0,237.5,397.0,239.5,413.0,235.5,429.5,221.5,445.5,237.5,447.5,256.0,458.0" stroke="black" stroke-width="2" fill="none" />
<polyline points="278.0,333.5,296.0,317.5,292.5,313.5,277.0,312.0,261.5,310.0,245.5,306.0,230.0,304.0" stroke="black" stroke-width="2" fill="none" />
<polyline points="217.0,255.5,201.5,245.5,185.0,237.5" stroke="black" stroke-width="2" fill="none" />
<polyline points="196.5,234.5,198.5,226.5,214.5,232.5,222.0,224.5" stroke="black" stroke-width="2" fill="none" />
<polyline points="210.0,243.0,198.0,227.5,200.5,215.0,198.5,223.0" stroke="black" stroke-width="2" fill="none" />
<polyline points="192.5,224.0,220.5,218.0,230.0,234.0,222.0,249.5" stroke="black" stroke-width="2" fill="none" />
<polyline points="215.5,262.5,201.5,242.5,180.0,232.5,184.5,216.0,184.5,205.5,168.5,207.5,152.5,215.5" stroke="black" stroke-width="2" fill="none" />
<polyline points="150.0,212.5,166.0,204.5,182.0,200.0,198.0,196.0,214.0,191.5,230.5,183.0,244.5,189.5,246.5,205.5,238.0,222.0,246.0,232.0,245.5,230.5,259.5,216.0,275.5,208.0,291.5,216.5,307.5,230.5,323.5,230.5,339.5,230.0,355.5,230.0,371.5,230.0,387.5,230.0,403.5,232.0,419.5,234.0,435.5,234.0,451.0,235.5,467.5,235.5,483.5,237.5,499.0,240.0" stroke="black" stroke-width="2" fill="none" />
<polyline points="504.0,245.0,488.0,245.0,472.0,243.0,456.0,241.0,440.0,241.0,422.5,238.5,406.5,238.5,391.0,236.5,375.0,234.5,359.0,234.5,343.0,234.5,327.0,234.5,310.5,234.5,294.5,232.5,278.5,234.5,262.5,232.5,248.5,216.5,232.5,242.5,230.0,234.5,214.5,236.5,224.5,236.0,202.5,219.5,206.5,205.0,190.0,202.5" stroke="black" stroke-width="2" fill="none" />
<polyline points="168.0,208.0,140.0,224.0,142.0,238.0,138.0,254.5,136.0,270.5,126.0,280.5,101.5,290.5,117.0,278.5,139.0,282.5,155.5,282.0,171.5,302.0,187.5,306.0,203.5,316.5,223.5,316.5,240.0,343.0,248.0,335.0,264.0,341.5,280.0,341.5,296.0,325.0,312.0,319.0,328.0,316.5,344.0,317.0,359.5,325.0,375.5,339.0,392.0,334.5,408.0,336.0,423.5,336.0" stroke="black" stroke-width="2" fill="none" />
<polyline points="278.0,228.0,262.5,226.5" stroke="black" stroke-width="2" fill="none" />
<polyline points="256.0,215.0,256.0,231.0,261.5,223.0,277.5,213.0" stroke="black" stroke-width="2" fill="none" />
<polyline points="286.5,210.5,296.5,226.5" stroke="black" stroke-width="2" fill="none" />
<polyline points="294.5,320.0,278.5,334.0,262.5,332.0,246.5,324.0,214.0,304.0,198.0,291.5,182.0,275.5" stroke="black" stroke-width="2" fill="none" />
<polyline points="178.5,275.0,176.5,291.5,192.0,307.5,214.0,323.5,210.0,340.0,198.0,364.0,193.5,378.0,207.5,391.5,217.5,371.5,229.0,375.5,245.0,393.5,261.0,407.5,277.0,408.0" stroke="black" stroke-width="2" fill="none" />
<polyline points="165.0,353.5,139.0,351.5,139.0,363.5,123.0,368.0,107.0,385.5,87.0,383.5,71.0,393.0,59.0,407.0,40.5,407.0,31.0,399.0,43.0,395.0,35.0,383.0,23.0,367.5,5.0,352.0" stroke="black" stroke-width="2" fill="none" />
<polyline points="2.0,350.5,18.0,356.5" stroke="black" stroke-width="2" fill="none" />
<polyline points="2.0,356.0,18.0,364.5,34.0,382.0" stroke="black" stroke-width="2" fill="none" />
<polyline points="10.5,395.0,26.5,408.5" stroke="black" stroke-width="2" fill="none" />
<polyline points="31.5,413.5,15.5,397.5,5.5,380.0" stroke="black" stroke-width="2" fill="none" />
<polyline points="3.5,374.5,7.0,394.5,21.0,410.5,40.5,416.0,56.0,394.0,72.0,379.5,87.5,369.5,103.5,357.5" stroke="black" stroke-width="2" fill="none" />
<polyline points="87.5,381.5,63.5,395.5,59.5,405.5" stroke="black" stroke-width="2" fill="none" />
<polyline points="63.5,426.5,79.5,414.5,95.5,406.5,111.5,396.5,127.5,372.0,128.0,374.0,116.5,390.0,96.5,405.5,110.5,426.0,127.0,442.0,109.0,446.0,105.0,452.0,107.0,462.0" stroke="black" stroke-width="2" fill="none" />
<polyline points="107.5,443.5,92.0,419.5" stroke="black" stroke-width="2" fill="none" />
<polyline points="87.5,416.0,103.5,414.0,115.5,432.0" stroke="black" stroke-width="2" fill="none" />
<polyline points="64.0,433.0,80.5,432.5,65.0,435.0,51.0,447.0,55.5,469.0" stroke="black" stroke-width="2" fill="none" />
<polyline points="58.0,477.0,34.0,457.0,18.0,455.5,2.0,455.5" stroke="black" stroke-width="2" fill="none" />
<polyline points="2.0,453.0,18.0,453.0,34.5,455.0,50.5,448.5" stroke="black" stroke-width="2" fill="none" />
<polyline points="34.5,449.0,18.5,429.0,2.5,425.0" stroke="black" stroke-width="2" fill="none" />
<polyline points="14.5,425.0,2.0,439.5" stroke="black" stroke-width="2" fill="none" />
<polyline points="3.0,412.5,19.0,416.5,25.0,434.5,33.5,436.5,55.5,442.5,63.5,444.5,41.0,460.5,57.0,454.5,59.0,454.0" stroke="black" stroke-width="2" fill="none" />
<polyline points="19.0,409.0,3.0,391.0" stroke="black" stroke-width="2" fill="none" />
<polyline points="2.5,370.0,18.5,378.0,26.5,391.5" stroke="black" stroke-width="2" fill="none" />
<polyline points="28.0,342.5,44.0,326.0,60.0,325.5,76.0,329.5" stroke="black" stroke-width="2" fill="none" />
<polyline points="74.0,346.0,58.0,346.5,62.0,338.5,46.0,336.5" stroke="black" stroke-width="2" fill="none" />
<polyline points="15.5,350.0,1.5,342.0" stroke="black" stroke-width="2" fill="none" />
<polyline points="3.0,332.5,19.0,332.5,34.5,325.0,32.5,335.0,30.0,351.5,33.5,365.5" stroke="black" stroke-width="2" fill="none" />
<polyline points="33.0,287.5,35.0,271.5,27.0,276.0" stroke="black" stroke-width="2" fill="none" />
<polyline points="43.5,273.0,43.5,289.0,67.5,293.5" stroke="black" stroke-width="2" fill="none" />
<polyline points="68.0,273.0,52.0,270.5" stroke="black" stroke-width="2" fill="none" />
<polyline points="54.5,265.5,50.5,281.5,49.5,297.5,48.0,301.5,58.0,299.5" stroke="black" stroke-width="2" fill="none" />
<polyline points="66.0,257.0,50.0,241.0" stroke="black" stroke-width="2" fill="none" />
<polyline points="32.5,228.0,16.5,232.5" stroke="black" stroke-width="2" fill="none" />
<polyline points="3.5,222.5,3.5,238.5,13.5,250.5,13.5,266.5,13.5,282.0,16.0,298.0,1.5,308.0,15.5,310.0,23.5,270.0,33.5,248.0,45.5,248.0,51.5,228.0,57.0,214.5,91.0,206.5,101.5,204.5" stroke="black" stroke-width="2" fill="none" />
<polyline points="105.0,217.5,89.0,227.0" stroke="black" stroke-width="2" fill="none" />
<polyline points="86.5,214.5,84.5,230.5,74.5,262.5,90.5,260.5,106.5,244.5,122.5,242.5" stroke="black" stroke-width="2" fill="none" />
<polyline points="120.0,222.0,104.0,226.0" stroke="black" stroke-width="2" fill="none" />
<polyline points="57.5,206.0,41.0,213.5" stroke="black" stroke-width="2" fill="none" />
<polyline points="43.0,214.5,52.5,230.5,42.5,236.0,60.5,246.0,68.0,262.5,64.0,276.5,56.0,276.0,68.0,293.5" stroke="black" stroke-width="2" fill="none" />
<polyline points="70.5,373.5,90.0,358.0,84.0,342.0,85.5,340.0,78.0,344.0,62.0,338.5,46.0,332.5,27.5,315.0,3.5,298.5,5.5,282.5,7.5,266.0,7.5,249.0,1.5,221.0" stroke="black" stroke-width="2" fill="none" />
<polyline points="29.5,166.5,43.5,182.5,39.5,198.5,25.5,214.5,23.5,230.5,31.5,236.0,36.0,240.0,48.0,246.0,36.5,262.0,26.5,278.0,31.0,279.5,25.0,297.5,31.0,295.5,36.5,311.5,34.0,325.0,12.0,347.0,32.0,361.0,48.0,375.5,64.0,378.0,80.0,366.5,96.0,352.5" stroke="black" stroke-width="2" fill="none" />
<polyline points="139.5,340.0,125.5,356.0,125.5,366.0,111.0,382.0,94.5,397.5,80.0,410.0,91.5,422.0,99.5,438.5,87.0,453.0,74.5,469.0,76.5,475.0,64.5,478.5,83.0,464.5,99.5,468.5,115.5,458.5" stroke="black" stroke-width="2" fill="none" />
<polyline points="180.5,430.0,176.5,406.5,160.5,394.5,144.5,416.0,128.5,422.0,124.5,434.0,130.0,420.0,124.5,406.0,134.5,389.5,145.0,373.5,153.0,358.0,143.0,342.0" stroke="black" stroke-width="2" fill="none" />
<polyline points="167.0,333.5,167.0,349.5,172.5,374.0,174.5,390.0,194.5,392.0,202.5,408.0,184.0,424.0,184.0,440.5,190.0,430.5" stroke="black" stroke-width="2" fill="none" />
<polyline points="212.5,361.5,203.0,365.5,187.5,358.0,182.0,350.0,176.0,334.0" stroke="black" stroke-width="2" fill="none" />
<polyline points="177.0,330.0,203.0,345.5,231.0,361.5,251.0,378.0,261.0,394.5,261.0,408.5,273.0,426.5,282.5,428.5" stroke="black" stroke-width="2" fill="none" />
<polyline points="211.5,296.5,195.5,282.0,179.5,262.0" stroke="black" stroke-width="2" fill="none" />
<polyline points="188.0,275.5,206.5,291.5,230.5,299.5,246.5,302.0,262.5,304.0,278.5,308.0,294.5,308.0,310.5,310.0,326.0,309.5,341.5,311.5,357.5,309.0,373.5,309.0,389.5,312.0,405.5,314.5,421.5,314.5,437.5,317.0,454.0,318.5,470.0,316.5,486.0,314.0,501.5,320.0" stroke="black" stroke-width="2" fill="none" />
<polyline points="199.0,320.5,174.5,304.5" stroke="black" stroke-width="2" fill="none" />
<polyline points="171.5,301.5,169.5,317.5,160.0,333.5,158.0,349.5,154.0,369.5,144.0,385.5,156.0,395.5,146.0,411.5,142.0,427.5,141.5,444.0,141.5,460.0,135.5,476.0" stroke="black" stroke-width="2" fill="none" />
<polyline points="141.0,307.5,125.0,317.0,127.0,314.5,152.5,298.5" stroke="black" stroke-width="2" fill="none" />
<polyline points="133.0,184.5,141.0,168.5" stroke="black" stroke-width="2" fill="none" />
<polyline points="123.5,140.5,119.5,119.0" stroke="black" stroke-width="2" fill="none" />
<polyline points="74.0,154.0,87.5,170.0" stroke="black" stroke-width="2" fill="none" />
<polyline points="70.5,163.5,54.5,159.5,32.5,166.0,17.0,172.0,9.0,170.0,23.0,168.5,41.0,152.5" stroke="black" stroke-width="2" fill="none" />
<polyline points="37.0,151.0,4.5,163.0,9.0,163.0,24.5,159.0,40.5,150.5,40.0,176.5,50.5,152.5,67.0,146.0,83.5,160.0,99.5,161.5,115.5,152.0,135.5,156.0,155.5,172.0,171.0,160.0,186.5,165.5,202.0,168.0" stroke="black" stroke-width="2" fill="none" />
<polyline points="204.0,140.0,188.0,134.0,184.0,125.5,186.0,109.5" stroke="black" stroke-width="2" fill="none" />
<polyline points="208.0,45.0,224.0,47.0,239.5,56.5,257.5,75.0" stroke="black" stroke-width="2" fill="none" />
<polyline points="277.0,56.0,283.5,72.0,289.0,91.5,283.5,107.5,281.5,123.5,270.0,141.5,262.0,157.5,252.5,174.0,216.5,190.0,217.0,198.5,233.0,192.5,249.0,182.5,265.0,164.5" stroke="black" stroke-width="2" fill="none" />
<polyline points="268.0,57.0,257.5,67.5,243.5,61.5,237.0,57.5,219.0,41.5" stroke="black" stroke-width="2" fill="none" />
<polyline points="117.5,174.5,115.5,167.0,109.5,171.0,89.5,179.5,75.5,163.5,63.5,147.5" stroke="black" stroke-width="2" fill="none" />
<polyline points="56.5,149.0,42.5,164.5,58.5,168.5,50.5,184.5,64.5,188.5,60.5,204.5,47.0,196.5,57.0,212.5,63.5,216.0,57.0,232.0,69.0,248.5,75.0,264.0,83.0,274.0,105.0,261.5,112.5,249.5,122.0,259.5" stroke="black" stroke-width="2" fill="none" />
</svg>