<svg xmlns="http://www.w3.org/2000/svg" width="512mm" height="512mm" viewBox="0 0 512 512" version="1.1"><polyline points="303.5,2.5,309.5,18.5,317.5,34.5,329.5,50.5,353.5,67.0,347.5,93.0,345.5,103.0,333.5,119.0,319.0,135.0,303.0,152.5,278.5,172.5,279.0,188.5,281.0,204.5,285.0,202.5,295.5,196.0,311.5,193.5,331.5,191.0,347.5,195.0,363.5,195.0" stroke="black" stroke-width="2" fill="none" />
<polyline points="364.0,186.5,348.0,170.5" stroke="black" stroke-width="2" fill="none" />
<polyline points="353.5,165.0,369.5,182.5,385.5,194.5,401.5,200.5" stroke="black" stroke-width="2" fill="none" />
<polyline points="434.5,207.0,418.5,175.0,402.5,153.5,386.5,139.5,370.5,125.5" stroke="black" stroke-width="2" fill="none" />
<polyline points="372.5,123.5,390.5,139.5,407.5,155.5,424.0,171.5" stroke="black" stroke-width="2" fill="none" />
<polyline points="410.0,155.0,426.0,171.0,441.5,182.5,457.5,172.5" stroke="black" stroke-width="2" fill="none" />
<polyline points="484.5,170.0,468.5,140.0" stroke="black" stroke-width="2" fill="none" />
<polyline points="465.5,133.0,481.0,149.5" stroke="black" stroke-width="2" fill="none" />
<polyline points="470.0,131.5,478.5,147.5,486.5,163.5,494.5,180.0" stroke="black" stroke-width="2" fill="none" />
<polyline points="504.5,127.0,488.5,105.0" stroke="black" stroke-width="2" fill="none" />
<polyline points="482.5,105.5,499.0,127.5" stroke="black" stroke-width="2" fill="none" />
<polyline points="500.0,107.5,484.0,99.0,468.5,79.0" stroke="black" stroke-width="2" fill="none" />
<polyline points="475.0,62.5,507.0,78.5" stroke="black" stroke-width="2" fill="none" />
<polyline points="498.5,77.5,482.5,69.0,466.0,60.5" stroke="black" stroke-width="2" fill="none" />
<polyline points="466.5,57.0,484.5,72.5,500.5,88.5,508.5,104.5" stroke="black" stroke-width="2" fill="none" />
<polyline points="502.0,114.0,488.0,98.0" stroke="black" stroke-width="2" fill="none" />
<polyline points="466.0,100.0,450.0,75.5,426.0,39.5" stroke="black" stroke-width="2" fill="none" />
<polyline points="433.0,40.0,449.0,50.0,465.0,58.0,481.0,64.0,497.0,70.0" stroke="black" stroke-width="2" fill="none" />
<polyline points="454.0,64.0,470.0,98.0,486.5,122.0,502.5,146.0" stroke="black" stroke-width="2" fill="none" />
<polyline points="508.0,147.5,500.0,132.0,488.5,116.0,477.0,99.5,469.0,83.5,465.5,67.5,437.0,49.5" stroke="black" stroke-width="2" fill="none" />
<polyline points="414.0,42.5,411.5,58.0,407.5,73.5,399.5,89.5,382.0,114.0,408.0,130.0,438.0,150.0" stroke="black" stroke-width="2" fill="none" />
<polyline points="458.0,160.5,442.5,133.0,426.5,119.5,410.5,107.0" stroke="black" stroke-width="2" fill="none" />
<polyline points="405.0,106.5,420.5,110.5" stroke="black" stroke-width="2" fill="none" />
<polyline points="412.5,101.5,428.5,109.5,445.0,113.5,461.5,103.5,477.5,125.5,490.0,135.5,502.0,154.0" stroke="black" stroke-width="2" fill="none" />
<polyline points="510.5,138.5,500.5,122.5,488.0,106.5,466.0,102.5,455.5,86.5,433.5,90.0,417.5,98.0" stroke="black" stroke-width="2" fill="none" />
<polyline points="406.0,98.0,422.0,82.5,432.0,66.5,422.0,82.5,414.0,98.5,426.0,114.0,452.5,143.5" stroke="black" stroke-width="2" fill="none" />
<polyline points="438.0,147.5,422.5,145.0,417.0,141.5,401.0,145.5,384.5,131.5,368.5,121.5" stroke="black" stroke-width="2" fill="none" />
<polyline points="367.5,122.5,381.5,138.5,399.5,154.5,413.5,170.5,421.5,186.0,424.0,202.0,429.5,210.0,429.5,224.0,429.5,240.0,431.5,256.0,429.5,282.0,433.5,298.0,431.0,314.5,431.0,330.5,431.5,346.5,429.5,362.5,431.5,378.5,431.5,394.0,431.5,410.0,429.5,426.0,416.0,435.5,415.5,451.5" stroke="black" stroke-width="2" fill="none" />
<polyline points="474.5,442.0,482.0,436.0,465.5,448.0,449.0,456.0,438.5,458.0,462.5,442.5,473.0,420.0,457.0,436.0,461.0,434.5,474.5,418.0,474.5,402.5,474.5,386.5,474.5,371.0,474.5,355.0,475.0,339.0,475.0,323.5,473.0,307.0,473.0,291.0,471.0,275.0,470.0,259.0,466.0,242.5,466.5,226.5,476.5,210.0,467.0,226.0,447.5,213.5,442.0,198.0,459.5,181.5,467.5,165.5,455.5,149.5,449.5,133.5,431.0,111.5,433.0,91.5,440.5,76.0,434.5,60.0,418.0,78.5,402.0,99.0" stroke="black" stroke-width="2" fill="none" />
<polyline points="395.5,97.5,397.5,79.5,406.0,64.0,408.5,48.0,408.5,43.5" stroke="black" stroke-width="2" fill="none" />
<polyline points="387.5,50.0,371.5,68.0,356.0,66.0,340.5,54.0,324.5,45.5" stroke="black" stroke-width="2" fill="none" />
<polyline points="320.0,39.5,336.0,46.0,352.0,52.5,368.0,58.5" stroke="black" stroke-width="2" fill="none" />
<polyline points="358.5,60.0,374.5,56.0,382.5,58.5,390.5,32.0,392.5,16.0,376.5,12.0,382.0,12.0,380.0,4.0" stroke="black" stroke-width="2" fill="none" />
<polyline points="392.0,13.5,396.0,23.5,404.0,7.0" stroke="black" stroke-width="2" fill="none" />
<polyline points="425.0,2.0,425.5,18.0,423.0,33.5,429.5,49.5,425.5,65.5,416.0,81.5,402.0,97.5,416.5,114.0,436.5,130.0,447.0,146.5,457.0,162.5,455.0,178.5,459.0,182.5" stroke="black" stroke-width="2" fill="none" />
<polyline points="440.0,156.0,424.0,146.0,418.5,128.5,403.0,120.5,387.0,110.0,371.0,106.0,354.5,118.0,338.5,135.5,322.0,154.0,318.0,176.0" stroke="black" stroke-width="2" fill="none" />
<polyline points="324.0,161.5,333.5,147.5,323.5,164.0,323.5,178.0,331.5,194.0,338.0,210.5" stroke="black" stroke-width="2" fill="none" />
<polyline points="368.0,199.5,368.0,189.5,347.5,173.5,345.5,157.5,335.5,155.5,331.5,159.5" stroke="black" stroke-width="2" fill="none" />
<polyline points="335.5,143.0,351.5,127.0,368.0,111.0,384.0,113.5,400.5,124.0,417.0,134.0" stroke="black" stroke-width="2" fill="none" />
<polyline points="424.5,148.5,414.5,144.5,414.5,128.5,388.5,112.5" stroke="black" stroke-width="2" fill="none" />
<polyline points="371.0,110.5,354.5,126.5,358.5,142.0,380.5,158.0,398.0,174.5,414.0,190.5,410.0,206.0,426.0,233.5,413.5,249.0,411.5,264.5,409.5,288.0,409.5,304.5,409.5,321.0,409.5,337.5,409.0,354.0,409.0,370.5,413.0,377.0,417.0,393.0,416.5,409.0,416.5,425.0,426.0,439.0,420.5,454.5" stroke="black" stroke-width="2" fill="none" />
<polyline points="414.5,465.5,398.5,463.5,382.5,464.0,366.0,462.0,349.5,461.5,333.0,461.5,317.0,461.5,301.0,461.0" stroke="black" stroke-width="2" fill="none" />
<polyline points="314.0,474.0,303.5,490.0,307.0,479.5" stroke="black" stroke-width="2" fill="none" />
<polyline points="313.5,476.0,307.0,492.0" stroke="black" stroke-width="2" fill="none" />
<polyline points="288.0,493.5,286.0,509.5" stroke="black" stroke-width="2" fill="none" />
<polyline points="276.5,500.5,288.5,484.5" stroke="black" stroke-width="2" fill="none" />
<polyline points="291.5,480.0,271.5,496.0,261.0,510.5,283.0,490.5" stroke="black" stroke-width="2" fill="none" />
<polyline points="278.5,461.5,262.5,457.5" stroke="black" stroke-width="2" fill="none" />
<polyline points="258.0,460.5,274.0,472.5,284.0,458.5,278.0,474.0,265.5,489.5,251.5,505.5" stroke="black" stroke-width="2" fill="none" />
<polyline points="220.0,507.5,182.5,500.0,146.5,484.0,142.5,468.0,142.5,452.0,130.0,444.0,114.0,442.0,108.0,438.0,108.0,422.0,106.0,405.5,108.0,390.0,108.0,373.5,112.0,357.5,112.0,341.5,112.0,325.5,112.0,309.5,112.0,293.5,114.0,277.5,118.0,261.5,102.0,251.5,102.0,235.5,111.5,217.5,125.5,201.5,136.0,186.0,142.5,170.0,150.5,153.5,158.5,137.5,168.5,121.5,184.0,105.0,211.5,89.0,249.5,73.5,245.5,81.5,230.0,87.5,214.0,95.5,198.0,104.0,182.0,116.5" stroke="black" stroke-width="2" fill="none" />
<polyline points="183.0,117.5,209.5,136.0,226.0,165.5" stroke="black" stroke-width="2" fill="none" />
<polyline points="210.5,159.5,190.5,156.0,174.5,132.5" stroke="black" stroke-width="2" fill="none" />
<polyline points="174.5,131.0,172.5,147.5,182.0,153.5,186.0,169.5" stroke="black" stroke-width="2" fill="none" />
<polyline points="184.5,160.5,168.5,141.0" stroke="black" stroke-width="2" fill="none" />
<polyline points="163.0,152.0,173.0,167.5,181.0,183.5" stroke="black" stroke-width="2" fill="none" />
<polyline points="179.5,181.5,163.5,156.0" stroke="black" stroke-width="2" fill="none" />
<polyline points="162.0,153.0,178.0,169.0,194.5,189.0" stroke="black" stroke-width="2" fill="none" />
<polyline points="181.0,197.0,165.0,183.0,149.0,181.0" stroke="black" stroke-width="2" fill="none" />
<polyline points="147.5,176.5,163.0,142.5,179.0,122.5,194.5,140.0,210.0,136.0,210.0,151.5,215.5,157.5,225.5,185.5" stroke="black" stroke-width="2" fill="none" />
<polyline points="251.0,182.5,249.0,198.0" stroke="black" stroke-width="2" fill="none" />
<polyline points="272.0,167.0,288.5,154.5,305.0,145.0,321.0,133.0,337.5,113.0,354.0,95.5,370.5,91.0" stroke="black" stroke-width="2" fill="none" />
<polyline points="398.5,80.5,383.0,95.0,367.5,85.0,351.5,93.0,335.5,92.5,319.5,78.5" stroke="black" stroke-width="2" fill="none" />
<polyline points="326.0,71.0,309.5,55.0,293.5,67.0,277.5,72.5,261.5,75.0,245.5,76.5,229.5,82.5,213.5,90.5,197.0,98.0,181.0,108.0,165.5,126.0,149.5,151.5,134.0,187.5,118.0,211.0,102.0,229.0" stroke="black" stroke-width="2" fill="none" />
<polyline points="105.5,234.0,121.5,234.0,138.0,234.0,154.0,234.0,170.0,234.5,186.0,234.5,202.0,234.5,218.5,234.0,234.5,234.0,250.5,233.5,266.0,234.0,282.0,234.0,298.0,236.0,314.5,236.0,330.5,238.5,346.5,238.0,362.5,238.5,379.0,240.5,394.5,241.0,410.5,240.5,424.5,236.5" stroke="black" stroke-width="2" fill="none" />
<polyline points="435.0,239.5,439.0,255.5,441.0,271.5,440.5,287.5,440.0,303.0,438.0,319.0,438.0,335.0,438.0,351.5,434.0,368.0,438.0,384.5,438.0,400.5,438.0,416.0,436.0,431.5,430.0,447.5,417.5,463.5" stroke="black" stroke-width="2" fill="none" />
<polyline points="407.0,385.0,391.5,385.0,376.0,383.5,360.0,383.5,344.0,381.5,327.5,381.5,311.5,381.5,295.5,381.5,279.5,379.5,263.5,379.5,248.0,379.5,232.5,379.5,216.5,377.5,200.5,377.5,184.5,377.5,168.0,377.5,151.5,376.0,135.5,376.0,119.5,374.0" stroke="black" stroke-width="2" fill="none" />
<polyline points="107.0,371.5,123.0,365.5,139.0,368.0,155.5,368.5,172.0,368.5,188.5,371.0,204.5,370.5,220.5,370.5,237.0,372.5,253.5,372.5,269.5,372.5,285.5,372.5,301.5,373.0,317.5,375.0,333.0,375.0,348.5,374.5,364.5,375.0,380.5,376.5,396.5,376.5,408.5,387.0,412.5,403.0,412.5,419.0,412.0,435.5,410.0,451.0" stroke="black" stroke-width="2" fill="none" />
<polyline points="286.5,480.5,274.0,494.5,249.5,500.5,261.5,484.5,266.0,468.0,258.0,452.5" stroke="black" stroke-width="2" fill="none" />
<polyline points="197.0,457.5,181.0,454.0" stroke="black" stroke-width="2" fill="none" />
<polyline points="187.5,452.0,201.5,468.5,217.5,481.0,233.5,497.5,249.0,500.0" stroke="black" stroke-width="2" fill="none" />
<polyline points="178.0,463.5,162.0,451.5" stroke="black" stroke-width="2" fill="none" />
<polyline points="156.5,453.0,170.0,469.5,190.0,461.5,206.0,476.0,218.5,468.0,234.5,470.5,250.5,481.0" stroke="black" stroke-width="2" fill="none" />
<polyline points="176.5,475.0,160.5,457.0" stroke="black" stroke-width="2" fill="none" />
<polyline points="153.5,450.0,149.5,466.0,155.5,482.5" stroke="black" stroke-width="2" fill="none" />
<polyline points="153.0,476.5,169.0,488.5,185.0,492.5" stroke="black" stroke-width="2" fill="none" />
<polyline points="211.5,501.0,208.0,507.0,192.0,501.0,176.5,497.5,160.5,492.0,144.5,474.0" stroke="black" stroke-width="2" fill="none" />
<polyline points="161.5,445.0,171.5,461.0,179.5,465.0,193.5,471.5,219.5,483.5,233.5,499.5,254.0,504.0" stroke="black" stroke-width="2" fill="none" />
<polyline points="117.5,277.0,133.5,269.0,149.5,270.0,165.5,270.5,181.5,270.5,197.5,273.0,214.0,272.5,230.0,272.5,246.0,272.0,261.5,272.0,278.0,272.0,294.0,272.0,310.5,273.5,326.5,274.0,343.0,274.0,359.0,274.0,375.0,274.5,390.5,276.5,406.0,276.0,430.0,266.0" stroke="black" stroke-width="2" fill="none" />
<polyline points="486.5,266.5,486.5,274.5,484.5,290.5" stroke="black" stroke-width="2" fill="none" />
<polyline points="487.5,289.5,491.5,273.5" stroke="black" stroke-width="2" fill="none" />
<polyline points="498.5,316.0,506.5,304.0,500.5,318.0" stroke="black" stroke-width="2" fill="none" />
<polyline points="463.5,220.5,471.5,204.0,467.5,214.0,451.0,218.0,433.5,222.0,426.0,230.0,406.5,234.5,390.5,234.5,374.5,235.0,358.5,235.0,342.0,235.0,326.0,232.5,310.0,232.5,294.0,230.5,277.5,230.0,261.5,230.0,245.5,230.0,229.5,229.5,214.0,229.5,197.5,229.5,181.5,229.5,165.5,229.5,149.5,227.5,133.5,227.0,117.5,227.5,117.5,220.0,130.0,204.0,142.0,188.5,136.0,206.0" stroke="black" stroke-width="2" fill="none" />
<polyline points="145.5,196.0,133.5,212.0,117.5,222.0,133.0,202.0,148.5,187.5,164.0,192.0" stroke="black" stroke-width="2" fill="none" />
<polyline points="158.5,200.5,142.0,206.5,126.0,216.5" stroke="black" stroke-width="2" fill="none" />
<polyline points="121.0,222.5,137.0,216.5,152.5,211.0,168.5,205.0,184.0,203.5,199.5,203.5,215.5,203.5,232.0,203.5,248.0,205.5,264.0,205.5,280.0,197.5,296.0,202.0,312.0,206.5,328.0,208.5,343.5,210.0,359.5,216.0,376.0,214.0,392.0,211.5,407.5,221.0,440.0,207.0,456.0,201.0" stroke="black" stroke-width="2" fill="none" />
<polyline points="435.0,208.0,449.0,224.0,461.0,239.5,466.5,255.5,468.5,272.0,470.0,288.0,470.5,304.0,470.5,320.0,470.5,336.0,470.5,352.5,470.5,368.5,470.5,384.0,472.5,399.5,470.5,415.5,452.0,431.0,446.0,443.5,435.5,449.5,447.5,451.5,463.5,442.0,480.0,430.0" stroke="black" stroke-width="2" fill="none" />
<polyline points="398.5,180.0,382.5,165.5,366.5,151.5,350.5,137.5" stroke="black" stroke-width="2" fill="none" />
<polyline points="346.5,140.5,367.0,156.5,387.0,172.5,403.0,188.5,413.5,208.0,439.5,213.5,455.5,229.0,469.5,249.0" stroke="black" stroke-width="2" fill="none" />
<polyline points="426.5,276.0,408.5,268.5,393.0,268.5,377.0,268.5,361.5,266.5,346.0,266.5,330.5,264.5,314.5,264.0,299.0,263.5,283.0,263.5,267.0,263.5,251.0,263.5,235.0,262.0,219.0,261.5,203.0,261.5,187.0,261.0,171.0,261.0,154.5,261.0,139.0,261.0,123.0,261.0,107.0,265.0,107.0,249.5,107.0,234.0" stroke="black" stroke-width="2" fill="none" />
<polyline points="124.0,269.5,118.0,285.5,118.0,301.0,118.0,317.0,118.0,333.0,118.0,349.0,118.0,365.0,112.0,385.0,111.5,401.5,111.5,417.5,111.0,433.5,119.5,448.0,136.0,449.5,152.0,447.0,168.5,447.0,184.5,447.0,200.5,449.0,217.0,451.5,233.0,451.5,248.5,453.0,264.5,453.0,280.5,453.5,296.5,455.0,312.0,454.5,328.0,455.0,344.0,457.0,359.5,457.0,375.0,457.0,390.5,457.0,406.5,459.5,422.0,447.5,442.5,437.5,459.0,427.5" stroke="black" stroke-width="2" fill="none" />
<polyline points="305.0,195.5,316.5,179.5,316.5,163.5,324.5,147.5,341.0,132.0,355.0,116.5,351.5,110.5,331.5,102.5,324.0,87.0,310.0,71.0,294.5,75.0,278.0,79.0,262.0,81.0" stroke="black" stroke-width="2" fill="none" />
<polyline points="262.0,90.5,278.0,109.0,293.5,133.0" stroke="black" stroke-width="2" fill="none" />
<polyline points="319.5,105.5,304.0,87.5" stroke="black" stroke-width="2" fill="none" />
<polyline points="306.0,84.0,322.0,100.0" stroke="black" stroke-width="2" fill="none" />
<polyline points="331.5,100.0,315.5,86.0,299.5,82.0" stroke="black" stroke-width="2" fill="none" />
<polyline points="306.0,76.0,311.5,92.0,332.0,108.5" stroke="black" stroke-width="2" fill="none" />
<polyline points="339.5,123.5,325.5,139.5,306.0,155.5,300.0,156.0,303.5,158.0,319.5,146.0,336.0,130.0,362.0,143.5,378.5,155.5,394.5,169.5,410.0,183.5" stroke="black" stroke-width="2" fill="none" />
<polyline points="350.0,150.5,352.0,166.5,366.0,182.0,388.0,198.0,410.0,225.5,418.5,241.0,418.5,257.5,416.5,282.0,416.5,298.5,417.0,314.5,417.0,331.0,417.0,347.0,417.0,363.0,424.5,370.5" stroke="black" stroke-width="2" fill="none" />
<polyline points="485.5,177.5,479.5,161.5,469.5,145.0,465.5,129.0" stroke="black" stroke-width="2" fill="none" />
<polyline points="460.5,104.5,470.5,120.5,482.5,136.5,494.5,152.5,504.5,168.5" stroke="black" stroke-width="2" fill="none" />
<polyline points="442.0,119.5,456.5,103.5" stroke="black" stroke-width="2" fill="none" />
<polyline points="384.5,44.0,400.5,28.0,410.0,12.0,403.5,24.0,387.5,40.0,371.5,44.0,355.5,40.0,339.5,35.5,323.0,28.0,307.0,12.0" stroke="black" stroke-width="2" fill="none" />
<polyline points="309.5,5.0,325.5,16.5,341.5,19.0,353.5,21.0" stroke="black" stroke-width="2" fill="none" />
<polyline points="339.5,5.5,323.5,3.5" stroke="black" stroke-width="2" fill="none" />
<polyline points="323.5,1.0,335.5,5.0,347.5,11.0,341.5,19.5,350.0,6.0" stroke="black" stroke-width="2" fill="none" />
<polyline points="324.0,35.5,348.0,51.5" stroke="black" stroke-width="2" fill="none" />
<polyline points="315.0,59.0,320.5,75.0" stroke="black" stroke-width="2" fill="none" />
<polyline points="309.5,80.5,325.5,96.5" stroke="black" stroke-width="2" fill="none" />
<polyline points="342.0,86.0,326.0,76.0,310.0,68.0" stroke="black" stroke-width="2" fill="none" />
<polyline points="309.5,55.5,299.5,71.5,299.5,87.5,313.5,103.0,325.5,119.0,309.5,134.5,296.0,150.5,274.5,166.0,273.0,182.0" stroke="black" stroke-width="2" fill="none" />
<polyline points="262.0,158.0,250.0,174.0,235.5,190.0" stroke="black" stroke-width="2" fill="none" />
<polyline points="237.0,169.5,257.0,153.5" stroke="black" stroke-width="2" fill="none" />
<polyline points="254.5,164.5,239.0,164.5,241.0,148.5" stroke="black" stroke-width="2" fill="none" />
<polyline points="236.0,148.5,234.0,165.0,237.5,195.0,245.5,196.5" stroke="black" stroke-width="2" fill="none" />
<polyline points="189.0,186.0,178.5,170.0,169.0,153.5" stroke="black" stroke-width="2" fill="none" />
<polyline points="178.5,132.5,187.0,148.5,195.0,165.0" stroke="black" stroke-width="2" fill="none" />
<polyline points="207.0,150.5,213.0,166.5,217.0,168.5" stroke="black" stroke-width="2" fill="none" />
<polyline points="213.5,135.5,219.5,151.5,226.0,167.5,216.0,183.5,244.0,177.5,260.0,169.5,278.0,155.5,294.0,137.5" stroke="black" stroke-width="2" fill="none" />
<polyline points="281.5,132.5,265.5,98.5" stroke="black" stroke-width="2" fill="none" />
<polyline points="265.5,90.5,273.5,106.5,283.0,122.5,293.0,138.5,296.5,144.0,312.5,132.0" stroke="black" stroke-width="2" fill="none" />
<polyline points="260.5,90.5,269.0,106.5,277.0,122.5,281.0,138.0,279.0,154.0,267.0,169.5,263.0,185.5,255.0,191.0,255.5,183.0" stroke="black" stroke-width="2" fill="none" />
<polyline points="204.0,171.5,197.5,155.5,191.0,139.5,179.0,124.0" stroke="black" stroke-width="2" fill="none" />
<polyline points="186.0,123.0,198.0,139.0,203.5,155.0,207.5,171.0,199.5,189.0,199.5,199.0,215.0,196.5,231.0,180.5,247.5,162.0" stroke="black" stroke-width="2" fill="none" />
<polyline points="224.0,175.5,208.0,183.5,182.0,197.5,159.5,181.0,149.0,165.0,157.0,149.5,167.0,133.5,181.0,118.0,199.0,102.5,231.0,86.5" stroke="black" stroke-width="2" fill="none" />
<polyline points="331.5,33.5,317.0,17.5,309.0,1.5" stroke="black" stroke-width="2" fill="none" />
<polyline points="430.0,1.5,430.0,17.5,429.5,33.5,445.5,49.5,455.5,65.5,462.0,82.0,470.0,97.5,474.0,113.5,484.0,120.0,492.0,132.0,500.0,144.5,504.0,160.5,510.0,162.0,510.0,176.0" stroke="black" stroke-width="2" fill="none" />
</svg>