<svg xmlns="http://www.w3.org/2000/svg" width="512mm" height="512mm" viewBox="0 0 512 512" version="1.1"><polyline points="9.5,2.5,9.5,18.5" stroke="black" stroke-width="2" fill="none" />
<polyline points="15.0,17.5,15.0,1.5" stroke="black" stroke-width="2" fill="none" />
<polyline points="107.5,68.5,77.5,84.5,59.5,100.5,39.5,116.5,19.5,132.5,3.5,148.0,14.0,138.0,30.0,124.0,46.5,112.0,62.5,98.0,79.0,83.5,95.0,73.5,111.0,67.5,126.5,65.5,150.0,51.0,166.0,45.0,182.0,45.0,198.0,45.5,214.0,50.0,230.0,56.5,246.0,62.5" stroke="black" stroke-width="2" fill="none" />
<polyline points="250.5,57.5,234.5,51.5,218.5,45.5,202.5,41.5,186.5,39.5,170.5,39.5,154.5,44.0,138.5,54.5,122.0,72.5,106.0,74.5,90.5,82.5,74.5,94.5,58.5,110.5,42.5,122.5,26.5,135.0,11.0,150.5,10.5,150.5,26.5,134.0,46.5,118.5,66.5,102.0,86.0,96.0,88.0,90.0,86.0,96.0" stroke="black" stroke-width="2" fill="none" />
<polyline points="89.5,116.5,73.5,117.0" stroke="black" stroke-width="2" fill="none" />
<polyline points="43.5,126.5,37.5,142.5,35.0,158.5,39.0,174.5,44.5,190.0,62.5,206.0,68.5,223.5,85.0,219.5,101.0,209.5,117.5,209.0,133.5,211.0,149.5,213.0,173.5,227.0,189.5,237.5,205.5,249.5,221.5,239.5,238.0,232.0,254.0,228.5,270.0,227.0,286.0,227.0,302.0,231.0,318.0,239.0,334.5,217.0" stroke="black" stroke-width="2" fill="none" />
<polyline points="337.5,222.5,325.5,238.5,339.5,254.5" stroke="black" stroke-width="2" fill="none" />
<polyline points="345.5,252.5,347.5,236.5,344.0,220.0,344.5,204.0,345.0,188.0,343.0,172.0,349.0,156.0,363.0,140.5,371.0,124.5,351.0,108.5,332.5,116.0,316.5,114.0,300.0,116.0,284.0,119.5,267.5,121.5,251.5,121.5,235.0,123.5,218.5,125.5,202.5,121.5" stroke="black" stroke-width="2" fill="none" />
<polyline points="204.0,103.0,220.0,97.0,235.5,80.5,235.5,80.5,220.0,97.0,212.0,109.0,228.0,109.0,243.5,103.5,248.0,91.5,252.0,75.5,244.0,91.5,254.0,99.5,238.0,100.0" stroke="black" stroke-width="2" fill="none" />
<polyline points="261.0,80.5,263.0,96.5,275.0,106.0,291.0,103.5,307.0,103.5,323.0,105.0,339.5,109.0,356.0,115.5,362.0,131.5,386.0,129.5,402.0,127.5,418.0,129.5,434.0,135.0,450.0,145.0,466.0,159.0" stroke="black" stroke-width="2" fill="none" />
<polyline points="491.5,188.5,507.5,186.5" stroke="black" stroke-width="2" fill="none" />
<polyline points="507.0,191.5,491.0,191.5" stroke="black" stroke-width="2" fill="none" />
<polyline points="506.0,203.0,490.5,204.5,474.0,212.5,457.5,220.0,441.5,224.0,425.5,232.0,409.0,228.0,393.5,229.5,377.0,237.5,360.5,245.5,344.0,259.5,328.5,251.5,312.5,239.0,297.0,233.0,281.5,229.0,266.0,231.0,250.0,233.0,234.0,236.5,218.5,247.0,202.5,263.5,202.5,277.0" stroke="black" stroke-width="2" fill="none" />
<polyline points="194.0,247.5,178.0,237.0,162.5,225.0,146.5,219.0,130.0,215.5,114.0,213.5,86.0,210.0,57.5,194.0,46.0,178.0,42.0,162.0,42.0,146.0,48.0,130.0,42.0,128.0" stroke="black" stroke-width="2" fill="none" />
<polyline points="43.0,170.0,59.0,194.0,75.5,203.5,91.5,212.0" stroke="black" stroke-width="2" fill="none" />
<polyline points="71.5,209.0,55.5,199.5,40.0,173.5" stroke="black" stroke-width="2" fill="none" />
<polyline points="29.0,198.5,56.5,214.5,36.5,236.0,20.5,252.0,10.0,268.5,4.0,284.5,4.0,300.0,6.0,315.5,11.5,331.0,29.5,346.5,39.5,360.0,55.5,358.5,71.5,357.0,87.5,355.5,103.0,354.0,119.0,352.5,135.0,343.0,151.0,331.0,160.5,329.0,168.5,327.0,174.0,333.0,190.5,334.5,207.0,337.0,223.0,341.0,239.5,349.0,256.0,361.5,276.5,367.0" stroke="black" stroke-width="2" fill="none" />
<polyline points="296.0,386.0,282.0,402.5,286.0,418.0,305.5,402.0,315.5,383.5,331.5,389.0" stroke="black" stroke-width="2" fill="none" />
<polyline points="328.0,395.5,334.0,411.5" stroke="black" stroke-width="2" fill="none" />
<polyline points="317.5,406.0,311.5,421.5,321.5,437.5,327.5,437.5,343.5,437.5,359.0,437.5,375.5,433.5" stroke="black" stroke-width="2" fill="none" />
<polyline points="371.5,450.0,355.5,450.0,340.0,450.0" stroke="black" stroke-width="2" fill="none" />
<polyline points="324.0,445.0,340.0,445.0,355.5,444.5,371.5,443.0,387.0,441.5,402.5,437.5,418.5,422.0,435.0,438.5,451.0,442.5,466.5,443.0,482.5,435.0,498.5,423.0,503.0,434.5" stroke="black" stroke-width="2" fill="none" />
<polyline points="508.0,373.5,506.0,357.0" stroke="black" stroke-width="2" fill="none" />
<polyline points="505.5,354.0,505.5,370.0,505.5,374.0,507.0,387.5,507.5,403.5,501.5,419.5,479.0,436.0,469.0,432.0,485.0,422.0,487.5,410.5,495.5,400.5,493.5,416.5,470.0,432.5" stroke="black" stroke-width="2" fill="none" />
<polyline points="509.5,406.5,494.0,436.0,477.5,448.0,481.5,446.5,499.5,430.5,497.0,412.0,503.0,406.0,503.0,390.0,495.5,384.0,499.5,380.0,498.0,364.0,504.0,346.0" stroke="black" stroke-width="2" fill="none" />
<polyline points="484.5,375.0,484.5,377.0,494.0,393.0,490.0,409.0,477.5,415.0,469.0,425.0" stroke="black" stroke-width="2" fill="none" />
<polyline points="460.5,385.5,476.5,395.5,486.5,377.5" stroke="black" stroke-width="2" fill="none" />
<polyline points="480.0,399.0,474.5,397.5,467.0,395.5,451.0,383.5" stroke="black" stroke-width="2" fill="none" />
<polyline points="447.0,388.0,463.0,406.0" stroke="black" stroke-width="2" fill="none" />
<polyline points="463.5,400.0,460.0,398.0,460.5,382.0,444.0,378.5" stroke="black" stroke-width="2" fill="none" />
<polyline points="436.0,382.5,438.0,398.5,452.5,414.5,456.5,431.0" stroke="black" stroke-width="2" fill="none" />
<polyline points="452.5,405.0,436.5,397.0" stroke="black" stroke-width="2" fill="none" />
<polyline points="439.0,388.5,449.0,404.5,459.0,420.5,463.5,436.5" stroke="black" stroke-width="2" fill="none" />
<polyline points="474.0,424.0,458.5,404.0,446.5,388.0,434.5,382.0,418.0,390.0" stroke="black" stroke-width="2" fill="none" />
<polyline points="422.0,341.5,422.0,325.5,410.0,309.5,398.0,293.5,388.0,289.5" stroke="black" stroke-width="2" fill="none" />
<polyline points="391.0,284.5,399.0,300.0,405.0,308.0" stroke="black" stroke-width="2" fill="none" />
<polyline points="391.0,297.5,399.0,313.5,405.0,329.5" stroke="black" stroke-width="2" fill="none" />
<polyline points="439.0,312.0,425.0,306.0,421.0,294.5,405.0,278.5" stroke="black" stroke-width="2" fill="none" />
<polyline points="402.0,273.5,418.0,271.5,418.0,284.0,422.0,290.0,438.0,300.5,454.0,296.5" stroke="black" stroke-width="2" fill="none" />
<polyline points="456.0,288.5,440.5,270.5" stroke="black" stroke-width="2" fill="none" />
<polyline points="442.5,258.5,458.5,272.5,471.0,286.5" stroke="black" stroke-width="2" fill="none" />
<polyline points="480.0,271.5,496.0,275.0,510.0,297.0,499.5,313.0,477.5,329.0" stroke="black" stroke-width="2" fill="none" />
<polyline points="485.5,310.0,497.5,292.0,501.0,276.0,502.5,284.5,502.5,268.5,508.0,250.5,492.0,234.5,475.5,234.5" stroke="black" stroke-width="2" fill="none" />
<polyline points="476.5,232.5,485.0,248.5,491.0,249.0,483.0,255.5,495.0,261.5,491.0,277.5,485.0,293.5,481.0,309.5,468.5,311.0,468.5,327.0,465.0,328.5,449.0,332.5,452.5,343.0,434.5,345.0,438.0,351.5,453.5,343.5,471.5,333.5,488.0,319.5,504.0,305.5" stroke="black" stroke-width="2" fill="none" />
<polyline points="503.0,260.5,492.5,251.0,476.5,241.0" stroke="black" stroke-width="2" fill="none" />
<polyline points="463.0,267.5,479.0,259.5,479.0,262.0,487.0,278.0,479.0,282.5,481.0,292.5,493.0,290.5" stroke="black" stroke-width="2" fill="none" />
<polyline points="465.0,300.5,475.0,290.5,471.0,274.5,475.0,252.0,459.0,248.0,443.0,252.0,426.5,254.0" stroke="black" stroke-width="2" fill="none" />
<polyline points="415.5,265.5,432.0,269.5,442.0,266.0,442.0,280.5,448.0,286.5" stroke="black" stroke-width="2" fill="none" />
<polyline points="454.0,268.5,464.0,285.0,445.5,303.0,463.5,310.5" stroke="black" stroke-width="2" fill="none" />
<polyline points="453.5,315.5,453.5,331.5" stroke="black" stroke-width="2" fill="none" />
<polyline points="472.0,324.5,475.5,308.0,453.5,308.0,431.5,300.0,437.0,284.0,449.5,267.5,427.0,261.5,410.5,257.5,394.0,257.5" stroke="black" stroke-width="2" fill="none" />
<polyline points="389.0,265.5,391.0,271.5,400.5,287.5,410.5,289.5,416.5,302.0,416.0,308.0,428.0,312.0,425.5,322.5,425.0,338.5,419.0,362.5,408.5,374.0" stroke="black" stroke-width="2" fill="none" />
<polyline points="410.5,337.0,416.5,329.0,411.0,319.0,423.0,289.0,404.5,283.5,388.5,275.5" stroke="black" stroke-width="2" fill="none" />
<polyline points="382.0,284.0,397.5,289.5,413.0,310.0,440.5,318.0,438.5,334.5" stroke="black" stroke-width="2" fill="none" />
<polyline points="395.5,387.5,379.5,375.5,363.0,367.5" stroke="black" stroke-width="2" fill="none" />
<polyline points="364.5,368.5,382.5,384.5,398.5,400.0,404.5,416.0,408.5,434.0,422.5,438.0" stroke="black" stroke-width="2" fill="none" />
<polyline points="398.0,399.5,382.0,383.0,366.0,371.5" stroke="black" stroke-width="2" fill="none" />
<polyline points="369.5,370.0,391.5,386.0,404.0,402.0,424.0,414.0,440.0,430.5,456.0,430.5" stroke="black" stroke-width="2" fill="none" />
<polyline points="429.0,437.0,432.5,431.0,424.5,415.0,420.5,398.5,418.5,382.5,434.5,366.0,458.5,350.0,482.5,334.0,500.5,318.0,510.5,308.0,494.0,324.0,478.5,336.0,462.0,348.0,446.5,358.0,430.0,367.5,412.0,389.5,406.0,369.5,408.0,349.0,384.0,341.0,402.0,335.0,393.5,327.0,391.5,323.0,392.0,311.5,386.0,295.5,380.0,288.0,388.0,282.0,372.0,276.0,356.5,282.5" stroke="black" stroke-width="2" fill="none" />
<polyline points="357.5,289.5,373.5,313.5" stroke="black" stroke-width="2" fill="none" />
<polyline points="386.5,320.0,372.0,304.0,364.0,288.5,372.0,285.0,363.5,289.0" stroke="black" stroke-width="2" fill="none" />
<polyline points="363.0,278.0,363.0,293.5,373.0,309.5,385.0,298.0,389.0,304.5,405.0,308.5,407.0,332.5" stroke="black" stroke-width="2" fill="none" />
<polyline points="420.0,362.0,404.5,368.0,389.0,364.5,373.0,358.5,357.0,356.5,341.5,354.5" stroke="black" stroke-width="2" fill="none" />
<polyline points="360.0,345.0,350.0,335.0,349.5,318.5,353.5,302.5,333.0,298.0,329.0,286.0" stroke="black" stroke-width="2" fill="none" />
<polyline points="326.0,291.0,341.5,291.5,349.5,297.5,357.5,299.5,372.0,316.0,366.0,324.0,370.0,332.0" stroke="black" stroke-width="2" fill="none" />
<polyline points="354.5,328.5,354.5,312.5,330.5,297.0" stroke="black" stroke-width="2" fill="none" />
<polyline points="321.0,296.0,313.0,311.5,303.0,327.0,303.0,343.0,305.0,359.0,280.5,375.0,269.0,391.0,261.0,407.0,259.0,423.5,277.0,441.5" stroke="black" stroke-width="2" fill="none" />
<polyline points="282.0,434.0,266.0,428.0" stroke="black" stroke-width="2" fill="none" />
<polyline points="261.0,424.0,277.0,424.0" stroke="black" stroke-width="2" fill="none" />
<polyline points="277.0,416.0,279.0,407.5,275.5,401.0" stroke="black" stroke-width="2" fill="none" />
<polyline points="267.0,405.5,283.5,385.5,299.0,379.5,315.0,379.5,330.5,384.0,346.0,394.0,362.0,407.5,378.5,423.0,384.5,423.5" stroke="black" stroke-width="2" fill="none" />
<polyline points="378.0,417.0,362.0,401.0,346.0,389.5,330.5,377.0,314.5,373.0" stroke="black" stroke-width="2" fill="none" />
<polyline points="314.5,368.5,330.5,372.5,346.5,380.5,362.0,394.5,378.0,408.5,394.5,426.5,410.5,420.0" stroke="black" stroke-width="2" fill="none" />
<polyline points="365.0,414.0,347.0,408.0,331.0,395.5,318.5,401.5,300.5,425.5,292.0,437.0,284.0,425.5,274.0,415.5,264.0,415.5,270.0,400.0,286.5,384.0,296.5,386.0" stroke="black" stroke-width="2" fill="none" />
<polyline points="297.0,389.0,297.0,405.0,297.0,421.0" stroke="black" stroke-width="2" fill="none" />
<polyline points="296.0,444.5,279.5,442.5,263.5,436.0,247.5,436.0" stroke="black" stroke-width="2" fill="none" />
<polyline points="258.0,411.5,274.0,379.5,290.0,368.0,306.5,356.0,320.5,356.0,336.5,350.0,338.5,354.0,354.5,350.0,370.5,352.0,386.0,358.0,402.0,360.0,418.5,354.0" stroke="black" stroke-width="2" fill="none" />
<polyline points="368.0,358.5,400.0,374.0,411.5,390.5,413.5,406.5,408.0,422.5,400.5,446.5,416.5,448.5,432.5,450.0,448.5,450.0,464.5,447.5" stroke="black" stroke-width="2" fill="none" />
<polyline points="337.0,413.0,329.0,407.0,312.5,417.5,308.5,415.0,300.5,407.0,306.5,391.0" stroke="black" stroke-width="2" fill="none" />
<polyline points="315.5,384.0,307.5,400.0,299.5,416.0,300.0,441.5,308.5,451.5,324.5,453.5,340.5,453.5,356.5,453.5,372.0,453.5,387.5,451.5,403.5,451.5,419.5,453.5,435.5,455.5,451.5,455.5,468.0,451.5,494.0,441.5,510.0,429.5" stroke="black" stroke-width="2" fill="none" />
<polyline points="344.5,413.5,344.5,402.0,320.5,386.0" stroke="black" stroke-width="2" fill="none" />
<polyline points="325.0,380.5,349.0,396.5,360.5,413.0,374.5,429.0" stroke="black" stroke-width="2" fill="none" />
<polyline points="375.5,424.5,369.0,408.0,349.0,391.5,325.0,375.5" stroke="black" stroke-width="2" fill="none" />
<polyline points="322.0,369.0,352.0,385.0,370.0,401.5,385.5,417.5" stroke="black" stroke-width="2" fill="none" />
<polyline points="290.0,409.0,290.0,393.0" stroke="black" stroke-width="2" fill="none" />
<polyline points="300.5,333.5,311.0,321.5,327.0,321.5,333.0,311.5,353.0,307.5,369.0,317.5" stroke="black" stroke-width="2" fill="none" />
<polyline points="356.0,318.5,332.0,318.5,330.0,320.0,346.5,316.0,336.5,308.0,320.5,294.0" stroke="black" stroke-width="2" fill="none" />
<polyline points="326.5,249.5,294.0,233.5" stroke="black" stroke-width="2" fill="none" />
<polyline points="298.5,229.0,336.5,249.5,352.0,245.5" stroke="black" stroke-width="2" fill="none" />
<polyline points="361.5,239.5,345.5,223.5" stroke="black" stroke-width="2" fill="none" />
<polyline points="398.5,227.5,362.5,243.5,345.5,259.5,322.0,287.5,310.0,303.5,300.0,320.0,294.0,336.0,296.5,351.5,272.5,371.5" stroke="black" stroke-width="2" fill="none" />
<polyline points="227.5,342.0,251.5,358.0,263.5,374.5,261.5,390.5,254.0,407.0,250.0,423.0,262.0,447.5,264.0,447.5" stroke="black" stroke-width="2" fill="none" />
<polyline points="216.5,412.0,200.5,397.5" stroke="black" stroke-width="2" fill="none" />
<polyline points="207.5,388.5,221.0,404.5,229.0,420.5,242.5,444.0" stroke="black" stroke-width="2" fill="none" />
<polyline points="244.5,494.0,228.5,494.0,212.0,494.5,196.0,495.0" stroke="black" stroke-width="2" fill="none" />
<polyline points="192.0,490.0,208.0,490.0,224.5,490.0,240.5,490.0" stroke="black" stroke-width="2" fill="none" />
<polyline points="210.0,414.0,194.0,400.0,172.0,392.5,156.0,390.5" stroke="black" stroke-width="2" fill="none" />
<polyline points="147.5,409.0,163.5,421.0,180.0,423.0,196.0,427.5,212.5,428.0" stroke="black" stroke-width="2" fill="none" />
<polyline points="221.5,403.0,206.0,383.5,190.0,371.5,174.0,363.5,157.5,357.5,141.5,355.5,125.5,357.5,109.5,373.5" stroke="black" stroke-width="2" fill="none" />
<polyline points="114.0,377.5,119.5,367.5,113.5,384.0,109.5,400.0" stroke="black" stroke-width="2" fill="none" />
<polyline points="113.0,432.0,97.5,426.0,82.0,422.0,66.0,418.5,49.5,419.0,33.5,419.0,18.0,419.0,2.0,418.5" stroke="black" stroke-width="2" fill="none" />
<polyline points="2.5,423.5,18.5,423.5,34.5,424.0,50.5,424.0,66.5,424.0,82.5,426.0,98.5,434.0,114.0,438.0,130.0,438.0,146.0,437.5,162.0,439.5,178.0,439.5,194.0,436.0,210.5,438.0,226.5,440.0,242.5,444.0,258.5,450.0,274.5,452.0" stroke="black" stroke-width="2" fill="none" />
<polyline points="215.5,412.0,207.5,395.0,199.5,379.0" stroke="black" stroke-width="2" fill="none" />
<polyline points="211.0,409.5,195.0,393.5,195.0,378.0,167.5,362.0" stroke="black" stroke-width="2" fill="none" />
<polyline points="164.5,359.0,184.0,375.5,178.0,391.5,194.0,402.0,220.5,414.0,234.5,428.5,250.5,421.0" stroke="black" stroke-width="2" fill="none" />
<polyline points="166.5,433.5,150.5,433.5,129.0,422.0,113.0,410.5,97.5,406.5,81.5,406.5,66.0,409.0,50.0,409.0,34.5,409.0,18.0,409.0,2.0,409.0" stroke="black" stroke-width="2" fill="none" />
<polyline points="2.0,402.5,18.0,402.5,34.0,402.5,50.0,402.0,65.5,401.5,81.5,401.5,97.5,399.0" stroke="black" stroke-width="2" fill="none" />
<polyline points="95.0,381.5,107.0,365.5,98.5,373.0,82.5,387.0,66.5,389.0,50.0,389.0,34.0,389.5,17.5,390.0,1.0,389.5" stroke="black" stroke-width="2" fill="none" />
<polyline points="2.0,364.5,18.0,364.0,34.0,355.5" stroke="black" stroke-width="2" fill="none" />
<polyline points="41.5,346.0,25.5,338.0,9.5,312.0" stroke="black" stroke-width="2" fill="none" />
<polyline points="4.0,317.0,20.5,342.5,37.0,351.0" stroke="black" stroke-width="2" fill="none" />
<polyline points="19.0,357.5,3.0,358.0" stroke="black" stroke-width="2" fill="none" />
<polyline points="3.5,284.5,19.5,252.5,35.5,236.5" stroke="black" stroke-width="2" fill="none" />
<polyline points="45.0,235.5,29.0,249.5,13.0,269.0" stroke="black" stroke-width="2" fill="none" />
<polyline points="36.0,278.5,18.0,294.5,28.0,284.0,44.0,280.0,60.0,291.5,76.5,305.0,92.5,319.5,108.5,330.0,124.5,334.5,141.0,332.5,143.0,309.0,161.0,301.0" stroke="black" stroke-width="2" fill="none" />
<polyline points="160.0,299.5,160.0,315.5,150.0,331.0,132.0,347.0,122.0,371.0,116.0,387.0,116.0,411.0,130.0,427.0,135.5,425.5,151.5,421.5,167.0,427.5,183.5,432.0" stroke="black" stroke-width="2" fill="none" />
<polyline points="122.0,401.5,128.0,385.5,130.0,369.5" stroke="black" stroke-width="2" fill="none" />
<polyline points="145.5,366.0,141.5,382.0,133.0,398.5,135.0,414.5,129.5,404.5" stroke="black" stroke-width="2" fill="none" />
<polyline points="145.0,409.5,145.0,393.5,149.5,378.0,154.0,362.0" stroke="black" stroke-width="2" fill="none" />
<polyline points="145.5,360.0,135.5,376.5,141.5,363.0,167.5,365.5,185.0,376.0,205.0,394.5,221.0,419.0" stroke="black" stroke-width="2" fill="none" />
<polyline points="253.5,351.0,227.5,335.0" stroke="black" stroke-width="2" fill="none" />
<polyline points="128.5,298.0,112.5,275.5" stroke="black" stroke-width="2" fill="none" />
<polyline points="115.0,270.5,123.0,286.5" stroke="black" stroke-width="2" fill="none" />
<polyline points="110.0,265.5,126.0,292.0,142.0,282.5,154.0,308.5" stroke="black" stroke-width="2" fill="none" />
<polyline points="122.5,325.5,106.0,302.0,90.0,286.0" stroke="black" stroke-width="2" fill="none" />
<polyline points="93.0,281.5,109.0,297.5,120.5,314.0" stroke="black" stroke-width="2" fill="none" />
<polyline points="121.5,313.0,105.5,292.5,89.5,280.5" stroke="black" stroke-width="2" fill="none" />
<polyline points="89.0,279.5,98.5,296.0,113.0,312.0,123.0,328.0" stroke="black" stroke-width="2" fill="none" />
<polyline points="101.0,327.5,81.0,312.0,63.0,296.0" stroke="black" stroke-width="2" fill="none" />
<polyline points="57.5,288.0,65.5,304.0,83.5,320.0" stroke="black" stroke-width="2" fill="none" />
<polyline points="122.0,337.5,106.0,333.5,90.5,326.0,74.5,311.5,59.0,297.5,39.5,284.0,24.0,298.0,38.0,284.0" stroke="black" stroke-width="2" fill="none" />
<polyline points="50.5,215.5,34.5,205.5,18.5,200.0,2.5,198.5" stroke="black" stroke-width="2" fill="none" />
<polyline points="0.5,193.0,16.5,194.5,33.0,200.5,51.5,216.5,67.5,218.5" stroke="black" stroke-width="2" fill="none" />
<polyline points="24.5,202.5,52.5,218.5,42.5,238.5,26.5,254.5,14.5,270.5,10.5,286.5,8.0,302.0,12.0,318.0,20.0,333.5,52.0,354.0,68.0,352.0,83.5,350.0,99.0,347.5,115.0,345.5" stroke="black" stroke-width="2" fill="none" />
<polyline points="105.5,393.0,109.5,377.0,117.5,361.0,143.5,329.5,145.5,314.0,129.0,302.5,121.0,298.5,113.0,282.5,108.5,266.5" stroke="black" stroke-width="2" fill="none" />
<polyline points="142.0,221.0,174.0,237.0,195.5,253.0,193.5,269.0,185.5,285.0,181.5,301.0,179.0,316.5" stroke="black" stroke-width="2" fill="none" />
<polyline points="211.5,245.0,241.5,229.0" stroke="black" stroke-width="2" fill="none" />
<polyline points="212.5,176.5,197.0,172.5" stroke="black" stroke-width="2" fill="none" />
<polyline points="198.0,166.0,214.0,170.5" stroke="black" stroke-width="2" fill="none" />
<polyline points="188.5,153.5,196.5,137.5,174.5,147.5,170.5,163.0,162.5,179.0,160.5,195.0,154.0,211.0" stroke="black" stroke-width="2" fill="none" />
<polyline points="175.5,191.0,191.5,162.5,197.5,164.5,187.5,180.5,171.5,174.5,181.0,150.5,197.0,138.5,210.5,133.0,226.5,131.5,242.0,129.5,257.5,127.5,273.5,127.5,289.5,129.0,306.0,139.0,322.5,140.5,339.0,138.0,354.5,137.5" stroke="black" stroke-width="2" fill="none" />
<polyline points="357.5,144.0,341.5,166.5" stroke="black" stroke-width="2" fill="none" />
<polyline points="352.0,143.5,336.0,143.5,320.0,145.5,304.0,141.0,288.5,133.0" stroke="black" stroke-width="2" fill="none" />
<polyline points="288.0,122.5,298.5,119.0,302.5,135.5" stroke="black" stroke-width="2" fill="none" />
<polyline points="304.0,145.5,276.5,129.5" stroke="black" stroke-width="2" fill="none" />
<polyline points="338.5,110.5,365.0,126.5,349.0,144.5,339.0,160.0,337.0,176.0,339.0,191.5,337.0,207.5,331.0,223.0,325.5,237.0,343.5,217.0,359.5,237.5,375.5,231.5,391.5,225.5,407.5,222.0,423.0,226.5,439.0,218.5,455.0,217.0,479.5,213.0,495.5,211.0" stroke="black" stroke-width="2" fill="none" />
<polyline points="445.5,249.5,441.5,265.5,426.0,271.5,448.0,291.5,444.0,297.5,438.0,313.5,448.0,311.5,448.0,327.5,440.0,343.5" stroke="black" stroke-width="2" fill="none" />
<polyline points="469.0,284.5,463.0,268.5" stroke="black" stroke-width="2" fill="none" />
<polyline points="401.0,222.0,365.0,237.5" stroke="black" stroke-width="2" fill="none" />
<polyline points="410.5,234.0,420.5,232.0,429.0,230.5,472.5,210.5,474.5,194.5,474.5,178.5,466.5,162.5,448.5,146.5,414.5,130.5" stroke="black" stroke-width="2" fill="none" />
<polyline points="418.0,126.0,452.0,142.0,470.0,158.0,478.0,174.5,480.0,192.5,480.0,208.5" stroke="black" stroke-width="2" fill="none" />
<polyline points="451.0,13.5,435.0,13.5" stroke="black" stroke-width="2" fill="none" />
<polyline points="229.0,63.0,222.5,79.0,203.0,79.0" stroke="black" stroke-width="2" fill="none" />
<polyline points="208.0,66.0,191.5,82.0,186.0,90.5,200.0,90.5,216.5,74.0" stroke="black" stroke-width="2" fill="none" />
<polyline points="220.5,63.0,212.5,78.5,194.5,94.5,198.5,110.5,210.5,98.5,226.5,86.5,243.0,70.5" stroke="black" stroke-width="2" fill="none" />
<polyline points="213.5,61.5,203.5,77.5,191.5,83.5,207.5,67.0" stroke="black" stroke-width="2" fill="none" />
<polyline points="212.0,58.5,191.5,74.0,173.5,87.5,189.5,101.5,206.0,118.0,222.0,116.0,238.0,114.0,254.0,106.0,270.5,102.0,286.5,99.5,303.0,99.5,319.0,99.5,334.5,102.0,350.5,108.0,366.5,116.0,382.5,126.0,398.0,124.0,414.0,124.5,430.0,130.5,446.0,139.0,462.0,149.0,478.0,175.0" stroke="black" stroke-width="2" fill="none" />
<polyline points="196.5,163.5,180.5,189.5" stroke="black" stroke-width="2" fill="none" />
<polyline points="164.0,200.5,168.5,184.0,174.5,167.5,178.5,153.5,162.5,179.5" stroke="black" stroke-width="2" fill="none" />
<polyline points="155.5,65.5,139.5,65.5" stroke="black" stroke-width="2" fill="none" />
<polyline points="154.0,47.5,138.0,63.5,165.5,83.5,185.5,99.5,195.5,115.5,208.0,132.0,202.0,139.5,196.0,153.5,186.0,170.0,176.0,186.0,166.0,210.5,170.0,226.5,192.0,242.0,210.0,254.0,198.0,269.5,190.5,285.0,188.5,301.5,188.5,318.0,192.5,326.5,209.0,332.5,225.0,335.0,241.0,341.0,257.0,355.0,272.5,362.5,288.0,360.0,298.0,324.0,314.0,297.5,330.0,282.0,342.0,284.0,358.0,298.0,374.0,316.5,382.0,312.5,386.0,328.0,388.0,338.0,390.0,349.5,400.5,351.0,408.5,339.5,432.5,329.5" stroke="black" stroke-width="2" fill="none" />
<polyline points="197.0,70.0,181.0,84.0,165.0,82.5,185.0,64.5" stroke="black" stroke-width="2" fill="none" />
<polyline points="182.0,68.0,176.0,84.0,164.0,73.5,182.0,57.5" stroke="black" stroke-width="2" fill="none" />
<polyline points="155.5,41.0,135.5,57.0,135.5,69.0,151.5,75.5,168.0,72.0,184.0,58.5,194.0,64.5,206.0,62.5,222.0,62.5" stroke="black" stroke-width="2" fill="none" />
<polyline points="226.0,69.5,210.0,87.5,194.0,99.5,214.0,87.5,232.0,77.5,252.0,67.5,218.0,51.0" stroke="black" stroke-width="2" fill="none" />
<polyline points="215.0,46.0,251.5,62.0,259.0,77.5,239.5,83.5,241.5,99.5,234.0,95.5,244.0,89.5" stroke="black" stroke-width="2" fill="none" />
</svg>