<svg xmlns="http://www.w3.org/2000/svg" width="512mm" height="512mm" viewBox="0 0 512 512" version="1.1"><polyline points="253.5,6.5,237.5,22.5,229.5,28.5,217.5,44.5,213.5,43.0,225.5,41.0,241.5,27.0,257.5,11.0,273.0,15.0,291.0,24.5,300.5,40.5,315.0,48.5,331.0,48.5,351.0,68.5,367.5,80.0" stroke="black" stroke-width="2" fill="none" />
<polyline points="364.5,80.5,367.0,96.5,359.0,112.5,355.0,128.0,345.0,144.0,359.0,121.5" stroke="black" stroke-width="2" fill="none" />
<polyline points="362.0,121.0,378.0,119.0,394.0,119.0,410.5,121.5,414.5,133.5,410.5,149.5,407.0,165.5,427.5,172.0,443.5,170.0,460.0,160.5,476.0,156.5,491.5,162.5,507.5,178.5" stroke="black" stroke-width="2" fill="none" />
<polyline points="504.5,170.5,484.0,155.0,490.0,139.0,469.5,133.0,453.5,129.0,437.0,129.0,421.0,127.0" stroke="black" stroke-width="2" fill="none" />
<polyline points="419.5,122.5,435.0,122.0,451.0,124.0,466.5,126.0,482.0,122.5,484.0,138.0,456.0,154.5,442.0,171.0,430.0,187.0,428.0,203.0,410.0,213.0,410.0,229.0,420.5,229.0,437.0,229.0,447.0,225.0,463.0,241.0,479.5,246.5,495.5,244.0,511.5,230.0,493.5,248.0,480.0,264.0,475.5,280.0,477.5,294.0,477.0,282.0,492.5,299.5,508.5,305.5" stroke="black" stroke-width="2" fill="none" />
<polyline points="504.5,310.0,488.5,304.0,472.0,304.0,455.5,306.0,439.0,305.5,427.0,309.5,411.0,311.5,395.5,315.5,379.5,319.5,364.0,325.5,348.0,331.5,332.5,339.0,317.0,349.0,301.0,361.5,301.0,370.0,285.0,374.0" stroke="black" stroke-width="2" fill="none" />
<polyline points="285.0,381.5,301.0,381.5,310.5,379.5,326.0,377.0,342.0,375.0,358.0,369.5,373.5,363.0,389.0,361.0,405.0,359.0,420.5,357.0,436.5,351.0" stroke="black" stroke-width="2" fill="none" />
<polyline points="445.5,370.0,461.5,370.0" stroke="black" stroke-width="2" fill="none" />
<polyline points="480.0,372.0,495.5,378.5" stroke="black" stroke-width="2" fill="none" />
<polyline points="488.5,365.5,504.5,364.0" stroke="black" stroke-width="2" fill="none" />
<polyline points="498.5,374.0,482.5,368.0" stroke="black" stroke-width="2" fill="none" />
<polyline points="479.5,396.5,495.5,406.0,511.0,406.0,486.5,425.5,490.0,441.0,496.0,457.0,502.0,473.0,506.5,489.5,510.5,503.5" stroke="black" stroke-width="2" fill="none" />
<polyline points="512.5,492.0,508.0,476.0,502.0,460.5,496.0,444.5,491.5,428.5,479.5,410.5" stroke="black" stroke-width="2" fill="none" />
<polyline points="475.0,424.0,475.0,439.5" stroke="black" stroke-width="2" fill="none" />
<polyline points="470.5,433.0,472.5,417.0,466.0,405.0,450.0,401.0,434.0,395.0,418.0,389.0" stroke="black" stroke-width="2" fill="none" />
<polyline points="421.0,383.5,437.0,389.5,453.5,396.0,478.0,384.0,494.5,390.0,510.5,394.0" stroke="black" stroke-width="2" fill="none" />
<polyline points="500.0,399.0,484.0,393.0,460.0,385.0,444.0,379.0" stroke="black" stroke-width="2" fill="none" />
<polyline points="434.0,377.5,450.5,373.5,478.5,377.5,494.0,384.0,510.0,390.0" stroke="black" stroke-width="2" fill="none" />
<polyline points="497.0,391.5,459.0,389.5,442.5,385.0,426.5,379.0" stroke="black" stroke-width="2" fill="none" />
<polyline points="428.0,380.0,470.0,406.5,460.0,422.0,443.5,436.0,443.5,451.5,443.5,467.0,443.5,483.5,447.5,497.5,437.5,503.5" stroke="black" stroke-width="2" fill="none" />
<polyline points="439.0,492.0,423.5,490.5,408.0,488.5,392.0,485.0,376.0,481.0" stroke="black" stroke-width="2" fill="none" />
<polyline points="374.0,478.0,390.5,480.0,406.5,482.0,422.5,484.0,438.5,486.0,456.0,491.5" stroke="black" stroke-width="2" fill="none" />
<polyline points="463.5,495.0,469.5,479.5,474.0,479.5" stroke="black" stroke-width="2" fill="none" />
<polyline points="482.0,473.0,484.5,488.5,479.0,511.0,493.0,505.0,509.5,499.0" stroke="black" stroke-width="2" fill="none" />
<polyline points="497.5,498.5,482.0,498.0,468.0,500.0,455.5,507.5,451.5,505.5,442.0,503.5,449.5,481.5,449.5,465.0,449.0,449.5,447.0,433.5,429.5,417.5,413.5,415.5,397.5,416.0,381.0,406.5,379.5,402.5" stroke="black" stroke-width="2" fill="none" />
<polyline points="395.5,401.0,411.5,409.0,427.5,411.5,444.0,413.5" stroke="black" stroke-width="2" fill="none" />
<polyline points="459.0,414.5,443.0,404.5,427.0,399.0,411.0,393.0" stroke="black" stroke-width="2" fill="none" />
<polyline points="407.0,397.0,433.0,401.0" stroke="black" stroke-width="2" fill="none" />
<polyline points="431.5,408.5,415.5,406.5,399.5,400.5" stroke="black" stroke-width="2" fill="none" />
<polyline points="379.5,412.0,383.5,382.0,379.0,376.0,373.0,368.0" stroke="black" stroke-width="2" fill="none" />
<polyline points="391.5,366.5,407.5,366.5,423.5,362.0,441.5,348.0,433.5,363.5,411.5,380.0,401.5,379.5,391.5,393.5,387.5,409.5,427.5,421.5" stroke="black" stroke-width="2" fill="none" />
<polyline points="428.5,404.0,412.5,398.5,396.5,396.5,396.5,409.0,376.5,393.0,361.0,391.0,361.0,395.5" stroke="black" stroke-width="2" fill="none" />
<polyline points="359.5,423.0,375.0,433.0,385.0,445.0" stroke="black" stroke-width="2" fill="none" />
<polyline points="377.0,440.0,360.5,438.0" stroke="black" stroke-width="2" fill="none" />
<polyline points="372.0,420.5,363.5,434.5,347.0,434.5,330.5,431.0,314.5,425.0" stroke="black" stroke-width="2" fill="none" />
<polyline points="314.5,421.0,340.5,414.5,357.0,414.5,373.5,420.5,389.5,424.5,405.5,428.5,422.0,430.5,438.0,426.5,454.0,422.5" stroke="black" stroke-width="2" fill="none" />
<polyline points="490.0,413.0,480.0,401.0,460.5,415.5,462.5,400.0,422.5,384.0" stroke="black" stroke-width="2" fill="none" />
<polyline points="449.0,350.5,443.0,354.5,457.0,336.5,441.0,318.5" stroke="black" stroke-width="2" fill="none" />
<polyline points="445.0,315.5,459.0,331.5,469.0,347.5,446.5,363.5,422.0,379.0,424.0,389.0,444.0,405.0" stroke="black" stroke-width="2" fill="none" />
<polyline points="404.0,433.0,388.0,429.0,371.5,425.0,355.5,419.0,341.0,429.0,325.0,425.0,308.5,421.0,292.5,429.0,278.5,422.5,279.0,422.0,295.0,420.0,323.5,404.0,325.5,404.0,310.0,412.0,294.5,422.0,278.0,430.5" stroke="black" stroke-width="2" fill="none" />
<polyline points="292.5,431.5,308.5,441.5,324.5,447.5,340.5,465.5,340.5,481.5,342.0,497.5" stroke="black" stroke-width="2" fill="none" />
<polyline points="319.0,463.5,303.0,467.5" stroke="black" stroke-width="2" fill="none" />
<polyline points="300.5,465.5,298.5,481.5,298.5,498.0" stroke="black" stroke-width="2" fill="none" />
<polyline points="266.5,447.0,282.5,465.0,298.5,463.5,314.5,457.5,331.0,458.0,347.0,452.0" stroke="black" stroke-width="2" fill="none" />
<polyline points="326.0,451.5,310.0,448.0,294.5,440.0,278.5,434.0,268.5,436.0,252.0,418.0" stroke="black" stroke-width="2" fill="none" />
<polyline points="251.5,401.5,268.0,425.5,284.0,414.0,286.0,410.5,302.0,410.5" stroke="black" stroke-width="2" fill="none" />
<polyline points="304.0,404.5,288.0,406.5,272.5,402.5" stroke="black" stroke-width="2" fill="none" />
<polyline points="278.5,390.5,294.5,396.5,311.0,402.5,327.0,392.5,341.0,390.5,323.0,394.5,323.0,412.5,338.5,402.5,356.5,398.5,360.0,411.0,376.0,411.0,392.0,419.0,408.0,421.0,422.0,439.0,438.5,433.0,458.5,427.0,478.5,409.0,494.0,410.5,506.0,422.5,509.5,438.0,495.5,458.0,509.5,468.0" stroke="black" stroke-width="2" fill="none" />
<polyline points="487.5,472.0,489.5,488.0" stroke="black" stroke-width="2" fill="none" />
<polyline points="345.5,505.5,345.5,489.5,346.0,474.0,344.0,458.5,336.0,452.5,296.0,436.5" stroke="black" stroke-width="2" fill="none" />
<polyline points="310.5,422.5,338.5,420.0,348.5,407.5,364.5,403.5,380.0,395.0,396.0,391.5,411.5,379.5,427.5,367.5,443.5,358.0,460.0,352.0,486.0,362.0,502.0,360.5" stroke="black" stroke-width="2" fill="none" />
<polyline points="497.0,374.5,479.5,352.0,511.5,336.0" stroke="black" stroke-width="2" fill="none" />
<polyline points="509.5,332.0,475.0,348.0,473.0,369.5,475.0,385.5,467.0,401.5,476.5,395.5,488.5,397.5,500.5,419.5,502.5,435.5,505.0,451.5,509.0,467.0" stroke="black" stroke-width="2" fill="none" />
<polyline points="468.5,301.0,452.5,300.5,436.0,294.5,420.5,292.5,404.5,274.5" stroke="black" stroke-width="2" fill="none" />
<polyline points="403.0,284.0,429.0,299.5,427.0,309.0,449.0,327.0,461.0,343.0,466.5,359.0,471.0,375.0,483.0,379.0" stroke="black" stroke-width="2" fill="none" />
<polyline points="474.0,272.0,490.0,250.0,506.0,241.5" stroke="black" stroke-width="2" fill="none" />
<polyline points="466.0,244.0,448.0,228.5,436.0,212.5" stroke="black" stroke-width="2" fill="none" />
<polyline points="431.5,216.5,415.0,208.5,413.0,202.5,385.0,210.5,383.0,202.0,367.0,210.0,351.0,209.5,335.0,211.5,318.5,209.5,302.5,208.0,286.5,198.0,270.0,178.5,252.0,166.5,236.0,161.0,212.0,159.0,196.0,149.5,180.5,147.0,164.5,165.0" stroke="black" stroke-width="2" fill="none" />
<polyline points="169.0,162.0,185.0,154.0,201.5,156.5,211.5,182.5,208.0,199.0,200.0,215.0,212.5,215.0,228.5,203.0,252.5,196.5" stroke="black" stroke-width="2" fill="none" />
<polyline points="262.0,183.5,246.0,175.5,230.0,166.0,214.0,164.0,198.0,164.0,182.5,166.5" stroke="black" stroke-width="2" fill="none" />
<polyline points="188.5,168.5,207.0,184.5,205.0,201.0,227.0,185.5" stroke="black" stroke-width="2" fill="none" />
<polyline points="220.0,176.5,218.0,193.0,221.5,193.0,207.5,212.5" stroke="black" stroke-width="2" fill="none" />
<polyline points="195.0,214.5,179.5,224.5" stroke="black" stroke-width="2" fill="none" />
<polyline points="179.5,230.5,195.5,218.0,211.5,202.0,227.5,198.5,243.5,190.5" stroke="black" stroke-width="2" fill="none" />
<polyline points="260.0,190.5,240.0,180.5,224.0,170.5,216.0,176.0,198.5,172.0,182.5,172.0,166.5,172.0" stroke="black" stroke-width="2" fill="none" />
<polyline points="174.0,166.0,189.5,158.0" stroke="black" stroke-width="2" fill="none" />
<polyline points="177.5,145.5,165.5,161.5,168.0,177.5,172.0,194.0,195.5,212.0,177.5,228.0,188.0,238.0,160.0,253.5,150.5,261.5,140.5,277.5,128.0,289.5" stroke="black" stroke-width="2" fill="none" />
<polyline points="147.0,278.0,159.0,294.0,177.0,309.5,192.5,325.5,204.5,342.0,214.0,358.0,220.5,374.0,224.5,390.0,226.5,406.0,224.5,422.5,220.5,438.5,214.5,454.0,202.5,469.5,188.5,485.5,170.0,501.0,164.0,505.5,179.5,493.5,195.5,477.5,211.5,456.0" stroke="black" stroke-width="2" fill="none" />
<polyline points="201.5,463.0,185.5,475.5,169.0,481.5,152.5,491.5,136.5,499.5,120.5,504.0,104.0,504.0,87.5,501.5,71.0,497.5,69.0,491.5,55.0,475.0" stroke="black" stroke-width="2" fill="none" />
<polyline points="54.5,485.0,70.5,491.5,86.5,491.0,102.0,486.5" stroke="black" stroke-width="2" fill="none" />
<polyline points="76.0,501.0,51.5,485.0,59.5,463.5,59.5,447.5,18.0,431.5,12.5,415.5,14.5,399.0,37.0,382.5,29.0,366.5,25.5,364.5,33.5,348.5,43.5,332.5,37.5,340.5,21.5,373.0" stroke="black" stroke-width="2" fill="none" />
<polyline points="28.5,365.5,44.5,381.5" stroke="black" stroke-width="2" fill="none" />
<polyline points="72.5,379.5,88.5,385.5" stroke="black" stroke-width="2" fill="none" />
<polyline points="79.0,372.5,91.0,388.5,98.5,409.0,92.5,425.0,80.0,441.5,65.5,451.5,81.5,441.5,100.0,445.5,116.0,443.5,132.0,425.5,148.0,417.5,164.0,432.0,184.0,432.5,200.0,430.5" stroke="black" stroke-width="2" fill="none" />
<polyline points="197.0,423.5,181.0,425.5,165.0,421.5,148.5,407.5" stroke="black" stroke-width="2" fill="none" />
<polyline points="147.5,420.0,163.5,435.5,153.5,451.5,161.5,459.5,149.5,475.5,125.0,489.5,125.5,489.5,142.0,489.0,158.0,481.5" stroke="black" stroke-width="2" fill="none" />
<polyline points="148.0,457.0,132.0,471.0,116.5,477.0,110.0,467.0,114.0,451.0" stroke="black" stroke-width="2" fill="none" />
<polyline points="126.5,419.5,110.5,413.5,94.5,411.0,74.0,387.5,68.0,378.0,50.0,388.0,34.0,390.5,18.0,404.5" stroke="black" stroke-width="2" fill="none" />
<polyline points="15.5,411.0,31.5,431.0,48.0,437.0,64.0,439.5,80.5,434.0" stroke="black" stroke-width="2" fill="none" />
<polyline points="61.5,446.0,45.5,444.0,29.5,435.5,14.0,421.5" stroke="black" stroke-width="2" fill="none" />
<polyline points="4.0,420.0,20.0,458.0,36.5,497.5" stroke="black" stroke-width="2" fill="none" />
<polyline points="44.0,438.0,20.0,422.0,18.0,406.0,34.5,390.5,32.5,386.5,16.0,396.5,14.0,382.5,17.5,366.5,23.5,350.5,34.0,334.5,48.5,318.0,52.5,313.5,36.5,329.5,20.5,353.5" stroke="black" stroke-width="2" fill="none" />
<polyline points="14.5,347.5,30.5,324.0,46.0,308.0,61.5,298.0,77.5,292.0,93.0,288.0,109.0,276.0" stroke="black" stroke-width="2" fill="none" />
<polyline points="115.5,284.0,120.0,268.0,124.0,252.0" stroke="black" stroke-width="2" fill="none" />
<polyline points="113.0,239.5,138.5,256.0,133.0,270.0,127.0,286.0" stroke="black" stroke-width="2" fill="none" />
<polyline points="139.0,260.5,137.0,276.0,163.0,288.0,179.0,303.5,194.5,319.5,208.0,335.5,218.0,351.5,223.5,367.5,227.5,383.5,229.5,400.0,229.5,416.0,225.5,431.5,221.5,447.5,213.5,463.5,201.5,479.5,185.0,495.5,179.5,505.5,176.0,505.0,192.0,489.5,208.0,471.5,224.0,440.0" stroke="black" stroke-width="2" fill="none" />
<polyline points="215.0,435.5,209.5,452.0,196.0,467.5,164.0,483.0,132.5,499.0" stroke="black" stroke-width="2" fill="none" />
<polyline points="140.0,419.0,124.0,435.0,110.5,451.0,106.5,466.5,107.0,482.5,115.0,490.0,123.0,482.0,139.0,481.5,154.5,471.5,160.5,461.5,184.5,465.5,200.5,455.5" stroke="black" stroke-width="2" fill="none" />
<polyline points="226.0,462.5,226.0,479.0,225.5,495.0,225.5,511.0" stroke="black" stroke-width="2" fill="none" />
<polyline points="229.5,500.5,229.5,484.5,229.5,468.5" stroke="black" stroke-width="2" fill="none" />
<polyline points="247.0,390.5,263.0,374.5,279.0,370.0,295.0,360.0,311.0,348.0,326.5,338.0,342.0,330.0,357.5,322.5,373.5,316.5,389.0,312.5,405.0,308.5,421.0,306.5,445.0,316.5,461.0,336.0,477.0,348.0,493.0,340.0,509.0,332.0" stroke="black" stroke-width="2" fill="none" />
<polyline points="409.5,285.0,389.5,281.0,373.5,293.5,357.5,293.5,341.0,285.5,325.0,265.5" stroke="black" stroke-width="2" fill="none" />
<polyline points="320.5,265.0,336.5,291.0,352.0,299.0,368.0,301.0,383.5,295.0,399.0,283.0,415.0,295.0" stroke="black" stroke-width="2" fill="none" />
<polyline points="378.0,319.5,340.0,335.5,314.0,351.0,294.0,367.0,310.0,375.0,310.0,383.0,326.0,383.0,342.0,385.0,353.5,381.5,363.5,373.5,375.0,385.5,383.5,372.0,400.0,371.5" stroke="black" stroke-width="2" fill="none" />
<polyline points="345.5,350.0,329.5,356.0,313.0,362.0,312.5,370.5,330.5,354.5,340.0,352.5,328.0,362.5,311.5,374.5" stroke="black" stroke-width="2" fill="none" />
<polyline points="305.0,394.5,289.0,388.0,287.0,378.0,271.0,378.0,254.5,386.0" stroke="black" stroke-width="2" fill="none" />
<polyline points="261.5,378.0,249.5,394.0,253.5,410.0,262.0,425.5,266.5,459.5" stroke="black" stroke-width="2" fill="none" />
<polyline points="295.0,500.5,293.5,484.5,293.5,468.5,311.5,448.5,291.0,432.5,319.0,414.5,333.0,408.5" stroke="black" stroke-width="2" fill="none" />
<polyline points="279.5,390.5,309.0,406.5,275.0,420.5,268.5,436.0,266.0,452.0,280.0,467.5,287.5,483.5,287.5,499.5" stroke="black" stroke-width="2" fill="none" />
<polyline points="202.5,427.0,212.5,427.0,214.5,410.5,208.0,394.5,178.0,378.5" stroke="black" stroke-width="2" fill="none" />
<polyline points="181.5,381.5,197.5,389.5" stroke="black" stroke-width="2" fill="none" />
<polyline points="213.5,386.0,208.0,370.0,200.5,354.5,186.5,352.5,170.5,367.0" stroke="black" stroke-width="2" fill="none" />
<polyline points="178.0,353.5,170.0,369.5,204.0,385.5" stroke="black" stroke-width="2" fill="none" />
<polyline points="210.5,359.5,194.0,335.5,178.0,323.5,162.0,333.5,146.0,329.5,130.0,321.5,113.5,319.5,97.0,323.5,80.5,326.0,64.5,326.5,49.0,330.5" stroke="black" stroke-width="2" fill="none" />
<polyline points="52.5,333.5,68.5,332.0,84.0,330.0,99.5,327.5,115.5,325.5,132.0,327.5" stroke="black" stroke-width="2" fill="none" />
<polyline points="128.5,327.0,146.0,343.5,124.0,355.5" stroke="black" stroke-width="2" fill="none" />
<polyline points="129.5,358.0,105.5,374.0,94.0,390.0,104.0,404.0,120.0,400.5,146.0,404.5,162.0,384.5,190.5,378.0,206.5,386.0" stroke="black" stroke-width="2" fill="none" />
<polyline points="263.5,371.0,247.5,387.0,245.5,404.0,251.5,420.5,257.5,436.5,261.5,453.0,272.0,468.5,282.0,478.5,282.0,494.0,283.5,510.0" stroke="black" stroke-width="2" fill="none" />
<polyline points="108.5,429.0,120.5,431.0,108.5,415.0" stroke="black" stroke-width="2" fill="none" />
<polyline points="122.5,428.5,106.5,437.0,78.0,436.5,85.5,420.5,83.0,404.0,71.0,387.5,73.0,371.5" stroke="black" stroke-width="2" fill="none" />
<polyline points="91.0,357.5,99.5,359.5" stroke="black" stroke-width="2" fill="none" />
<polyline points="90.5,350.5,96.5,366.5,92.5,382.0,100.5,380.0,116.5,368.0,132.5,358.0,148.0,366.0" stroke="black" stroke-width="2" fill="none" />
<polyline points="136.0,355.0,150.0,371.0,150.0,387.5,133.5,403.5,117.5,408.0,133.0,404.0,149.0,386.0" stroke="black" stroke-width="2" fill="none" />
<polyline points="137.0,348.0,121.0,358.0,105.0,364.0,89.0,352.0" stroke="black" stroke-width="2" fill="none" />
<polyline points="131.5,323.0,149.5,339.0,171.5,331.0,187.5,339.5,207.5,367.5" stroke="black" stroke-width="2" fill="none" />
<polyline points="177.0,347.5,161.0,375.5,165.0,363.5,177.5,348.0,180.0,332.0" stroke="black" stroke-width="2" fill="none" />
<polyline points="180.0,326.5,196.0,342.0,201.5,350.5,211.5,366.5,218.0,382.5,220.5,398.5,218.5,414.5,216.5,430.0,208.5,446.0,194.5,461.5" stroke="black" stroke-width="2" fill="none" />
<polyline points="160.5,479.0,170.5,463.0,169.0,447.0,169.0,427.0,147.0,410.5,151.0,394.0,161.5,377.5,157.5,361.0,161.5,344.5,173.5,328.0" stroke="black" stroke-width="2" fill="none" />
<polyline points="171.5,324.0,155.5,340.0" stroke="black" stroke-width="2" fill="none" />
<polyline points="189.0,263.5,205.5,291.5,221.5,303.5,237.5,312.0,253.5,312.0,269.5,303.5,286.0,287.5" stroke="black" stroke-width="2" fill="none" />
<polyline points="318.0,247.5,334.0,221.0,332.0,231.0,323.5,247.0,323.5,263.0,331.5,278.5,353.5,294.5" stroke="black" stroke-width="2" fill="none" />
<polyline points="345.5,297.0,325.5,281.0,319.5,265.0,317.5,249.0,323.5,233.0,339.5,222.5,323.5,246.5" stroke="black" stroke-width="2" fill="none" />
<polyline points="346.0,252.0,348.0,260.0,347.5,256.0,357.5,252.0,369.0,242.0" stroke="black" stroke-width="2" fill="none" />
<polyline points="366.0,235.5,350.0,239.0" stroke="black" stroke-width="2" fill="none" />
<polyline points="347.5,234.0,363.5,230.0" stroke="black" stroke-width="2" fill="none" />
<polyline points="389.0,218.5,405.0,232.5" stroke="black" stroke-width="2" fill="none" />
<polyline points="403.5,242.5,387.5,222.5,371.5,214.5,356.0,214.5,340.0,218.5,322.0,216.5,306.0,214.5,286.0,208.0,270.0,186.0,254.0,171.5,238.0,163.5" stroke="black" stroke-width="2" fill="none" />
<polyline points="232.0,167.5,246.5,183.5,264.5,187.5,260.5,190.0" stroke="black" stroke-width="2" fill="none" />
<polyline points="223.5,169.5,239.5,185.5,226.0,201.5,208.0,217.5,198.0,233.5,186.0,249.5,190.0,265.5,196.0,281.5,210.0,297.5" stroke="black" stroke-width="2" fill="none" />
<polyline points="196.0,265.5,212.0,289.0,228.0,301.5,244.0,305.5,260.5,304.0,276.5,292.0" stroke="black" stroke-width="2" fill="none" />
<polyline points="272.5,295.5,284.5,279.5,290.5,263.5,292.5,247.5,292.5,231.5,290.5,215.5,280.5,199.5,268.5,183.5,244.5,168.0,230.5,152.5,224.0,142.5,208.0,150.5,192.5,142.5,176.5,142.5,160.5,158.5" stroke="black" stroke-width="2" fill="none" />
<polyline points="173.0,142.0,159.0,157.5,159.5,173.5,164.0,189.5,180.5,205.5" stroke="black" stroke-width="2" fill="none" />
<polyline points="197.5,204.5,182.0,205.0,166.0,191.0" stroke="black" stroke-width="2" fill="none" />
<polyline points="168.0,183.0,183.5,201.5,199.5,197.5" stroke="black" stroke-width="2" fill="none" />
<polyline points="194.5,238.0,168.5,256.0,153.0,261.5,179.0,247.5" stroke="black" stroke-width="2" fill="none" />
<polyline points="226.5,301.0,206.0,285.0,196.5,269.0,192.5,253.5,188.5,237.5,172.5,245.5,157.0,255.5,140.5,256.0,124.5,246.0,108.0,234.0,92.0,204.0" stroke="black" stroke-width="2" fill="none" />
<polyline points="99.0,222.0,111.0,237.5,103.0,253.5" stroke="black" stroke-width="2" fill="none" />
<polyline points="69.5,274.0,55.5,290.0,61.5,284.0" stroke="black" stroke-width="2" fill="none" />
<polyline points="69.5,290.0,54.0,296.5,38.0,308.5,22.0,326.0,6.0,351.5" stroke="black" stroke-width="2" fill="none" />
<polyline points="2.0,304.0,18.0,302.0,34.0,296.0,50.5,286.0,66.5,272.5,82.5,268.0,54.5,282.5,29.0,298.5" stroke="black" stroke-width="2" fill="none" />
<polyline points="73.0,189.5,57.0,193.5,40.5,181.5,24.5,179.5" stroke="black" stroke-width="2" fill="none" />
<polyline points="31.0,178.5,53.0,194.5,62.5,210.5,72.5,226.5,82.5,242.5,90.5,258.5,88.5,274.0,68.0,290.0,40.0,306.0,26.0,322.0,14.5,338.0,6.5,354.0" stroke="black" stroke-width="2" fill="none" />
<polyline points="4.0,419.5,4.0,435.5,10.0,451.0,18.0,467.0,22.5,483.5,30.5,499.5" stroke="black" stroke-width="2" fill="none" />
<polyline points="35.5,503.0,19.5,466.5,3.5,430.5" stroke="black" stroke-width="2" fill="none" />
<polyline points="8.0,432.5,14.0,448.0,22.0,463.5,26.0,479.5,33.5,495.5" stroke="black" stroke-width="2" fill="none" />
<polyline points="99.5,234.0,75.0,220.5,65.0,204.5,55.0,190.5,38.5,174.5" stroke="black" stroke-width="2" fill="none" />
<polyline points="32.0,142.0,48.0,142.0" stroke="black" stroke-width="2" fill="none" />
<polyline points="44.0,136.0,60.0,138.5" stroke="black" stroke-width="2" fill="none" />
<polyline points="42.0,133.0,56.0,120.5,72.5,124.0,88.5,128.0" stroke="black" stroke-width="2" fill="none" />
<polyline points="97.5,147.0,113.0,123.5,129.0,116.0,144.5,108.0,160.0,100.0,175.5,94.5,153.5,112.5,131.5,128.5,111.5,146.5,110.0,148.5,114.5,152.5,134.0,126.5,150.0,114.5,165.5,104.5,159.5,115.0,137.5,130.5,144.5,125.0,160.5,115.0" stroke="black" stroke-width="2" fill="none" />
<polyline points="142.5,96.0,126.5,94.0" stroke="black" stroke-width="2" fill="none" />
<polyline points="102.0,129.5,86.0,159.5" stroke="black" stroke-width="2" fill="none" />
<polyline points="91.5,112.0,75.5,102.0" stroke="black" stroke-width="2" fill="none" />
<polyline points="67.0,102.5,52.5,118.5,42.5,134.0,40.5,156.0" stroke="black" stroke-width="2" fill="none" />
<polyline points="15.5,121.5,31.5,123.5,47.5,113.5,63.5,99.5,78.0,103.5,92.0,119.5" stroke="black" stroke-width="2" fill="none" />
<polyline points="97.5,110.5,82.0,99.0,66.0,101.0" stroke="black" stroke-width="2" fill="none" />
<polyline points="58.5,93.5,62.0,99.5,48.0,115.5,38.0,131.0,38.0,149.0,24.5,174.5,10.5,184.5,16.0,182.5,32.0,172.5,48.0,182.5,62.0,208.5,78.0,234.0,95.5,258.5,111.5,246.5,130.0,256.5,150.5,282.5,166.5,300.5,182.5,314.0,198.5,330.0,214.5,355.5" stroke="black" stroke-width="2" fill="none" />
<polyline points="355.5,321.5,323.5,337.5,301.5,353.5,277.5,370.0,285.0,388.5,325.0,398.5,335.0,399.0,351.5,391.0,367.5,379.0,384.0,382.5,400.0,382.5,402.0,376.5,416.0,386.5,432.0,374.0,447.5,361.5,473.5,355.5,489.5,345.0,505.5,339.0" stroke="black" stroke-width="2" fill="none" />
<polyline points="461.0,246.0,445.0,230.0,431.0,222.5,425.0,224.5,415.0,208.5" stroke="black" stroke-width="2" fill="none" />
<polyline points="414.0,153.5,418.0,137.5,410.0,126.0,394.0,126.0,378.0,126.0,362.0,126.0" stroke="black" stroke-width="2" fill="none" />
<polyline points="351.0,149.0,367.5,155.5,384.0,165.5,400.0,167.5" stroke="black" stroke-width="2" fill="none" />
<polyline points="355.5,157.0,383.5,173.0,391.5,189.5,387.5,205.5,387.5,224.0,401.5,240.0,403.5,256.0,397.5,271.5,383.5,287.5" stroke="black" stroke-width="2" fill="none" />
<polyline points="512.0,309.0,482.0,293.0,464.5,287.5,470.5,271.5,474.0,256.0,452.0,240.0,432.0,223.5,432.0,211.5,433.5,195.5,436.5,179.5,464.5,155.5" stroke="black" stroke-width="2" fill="none" />
<polyline points="480.5,157.0,500.5,173.5" stroke="black" stroke-width="2" fill="none" />
<polyline points="471.0,112.5,455.0,102.5" stroke="black" stroke-width="2" fill="none" />
<polyline points="453.5,101.5,469.5,103.5,486.0,113.5" stroke="black" stroke-width="2" fill="none" />
<polyline points="488.5,130.5,474.5,114.5,456.5,98.5" stroke="black" stroke-width="2" fill="none" />
<polyline points="505.5,170.0,489.5,156.0,481.5,148.0,471.0,146.0,455.0,154.0,439.0,166.0,423.0,167.5,407.0,171.5,391.0,173.5,377.5,168.0,362.0,160.0,346.0,154.0,330.0,151.5,314.0,150.0,298.0,148.0,282.5,148.5,266.5,148.5,254.5,168.5,264.5,152.5,264.5,130.5,270.5,114.5" stroke="black" stroke-width="2" fill="none" />
<polyline points="276.0,117.0,274.0,133.0" stroke="black" stroke-width="2" fill="none" />
<polyline points="277.5,124.5,279.5,140.5" stroke="black" stroke-width="2" fill="none" />
<polyline points="255.0,123.5,238.5,117.5,222.5,105.5,206.5,98.0,190.0,90.0,190.0,60.5,202.0,45.0,185.5,57.0" stroke="black" stroke-width="2" fill="none" />
<polyline points="201.0,65.5,217.0,59.5,230.5,45.5,238.5,51.5,250.5,42.0,262.0,26.0,268.0,32.0,283.5,34.5" stroke="black" stroke-width="2" fill="none" />
<polyline points="283.0,39.5,257.0,29.5" stroke="black" stroke-width="2" fill="none" />
<polyline points="270.5,18.5,254.5,20.0,233.0,28.0,217.5,35.5,202.0,46.0" stroke="black" stroke-width="2" fill="none" />
<polyline points="210.0,69.5,226.0,75.5,242.0,71.5,248.0,61.5,264.0,63.5" stroke="black" stroke-width="2" fill="none" />
<polyline points="266.5,68.5,260.5,92.5,264.5,76.5,272.5,61.0" stroke="black" stroke-width="2" fill="none" />
<polyline points="291.0,61.0,276.5,77.0,273.0,81.0" stroke="black" stroke-width="2" fill="none" />
<polyline points="313.0,80.5,301.0,96.5,317.0,92.0,341.0,83.5" stroke="black" stroke-width="2" fill="none" />
<polyline points="334.0,88.0,326.0,90.0,324.0,104.0,318.0,100.5,332.0,102.5,348.0,96.5,343.5,88.5,347.0,104.5,325.0,108.5" stroke="black" stroke-width="2" fill="none" />
<polyline points="337.5,72.5,321.5,88.5,297.5,102.5,313.5,80.5,323.5,94.5,339.5,72.0" stroke="black" stroke-width="2" fill="none" />
<polyline points="334.0,67.5,318.0,73.5,302.5,85.5,298.0,93.5,310.0,78.0,332.0,70.0,338.0,53.5,328.0,47.5" stroke="black" stroke-width="2" fill="none" />
<polyline points="299.0,46.0,283.5,40.5,268.0,38.5,262.0,53.0,246.0,59.0,244.5,78.5,230.0,94.5,229.5,78.0,245.5,70.0,231.5,68.0,237.0,52.0,257.5,47.5,263.0,43.5,246.5,51.5,230.0,59.5" stroke="black" stroke-width="2" fill="none" />
<polyline points="200.5,77.5,202.5,71.5,205.0,49.0,201.0,65.0,202.5,71.0,192.5,83.0,208.0,93.5" stroke="black" stroke-width="2" fill="none" />
<polyline points="208.0,31.5,192.0,45.5,166.0,53.5,150.0,53.5,134.0,49.5,118.0,47.0,102.5,45.0" stroke="black" stroke-width="2" fill="none" />
<polyline points="100.0,44.5,116.5,43.0,132.5,45.5,148.5,48.0,164.5,50.5,182.0,46.5,198.5,32.5,214.5,20.5,230.5,18.5,248.5,10.5,264.5,6.5,280.5,10.5,297.0,18.5" stroke="black" stroke-width="2" fill="none" />
<polyline points="271.0,7.5,269.0,23.5,299.5,25.5,301.5,41.5,308.0,43.0,286.0,57.5,272.0,73.5,254.0,82.0,258.0,76.0,268.0,78.5,284.0,60.5,288.0,51.0,305.5,59.0,323.5,52.5" stroke="black" stroke-width="2" fill="none" />
<polyline points="369.5,84.5,371.5,100.5,361.0,116.5,357.0,138.5,358.5,154.0,390.5,174.0,396.5,189.5,393.0,205.5,391.0,219.5,415.5,229.0,407.5,245.0,407.5,263.0,405.5,279.0,381.5,295.5" stroke="black" stroke-width="2" fill="none" />
<polyline points="211.0,337.5,195.0,320.0,179.0,303.5,163.0,287.5,147.0,271.0,131.0,279.0,112.5,287.0,111.0,279.0,115.0,263.0,115.0,247.0,99.0,245.5,97.0,230.0,95.0,214.0,91.0,198.0,83.0,180.0,87.0,164.0,90.5,147.5,100.5,132.0,112.0,116.5,110.0,100.5,87.5,84.0,46.0,68.0" stroke="black" stroke-width="2" fill="none" />
<polyline points="39.5,61.5,83.5,77.5,113.5,95.5,117.5,107.0,107.5,131.0,97.5,146.5,92.0,162.5,88.5,178.0,85.0,194.0,89.5,210.0,86.0,226.0,90.0,230.0,93.5,250.0,93.0,271.5,82.5,289.5,50.5,306.0,32.0,321.5,20.0,337.5,12.0,353.0,8.0,369.5" stroke="black" stroke-width="2" fill="none" />
<polyline points="92.0,120.0,75.5,119.5,59.5,115.5,53.5,101.5,46.0,107.0,53.5,91.0,71.0,83.0,55.5,85.0,40.0,85.5,24.0,93.5,12.0,107.5,23.5,93.5,45.5,89.5,29.5,95.5,13.5,105.5" stroke="black" stroke-width="2" fill="none" />
<polyline points="35.0,66.5,17.0,82.5,7.0,98.0,11.0,90.0,26.5,70.0,42.5,65.5,58.5,71.5,74.5,78.0,90.5,84.0,105.0,86.0,117.0,92.0,127.0,104.0,143.0,103.5" stroke="black" stroke-width="2" fill="none" />
<polyline points="133.0,105.5,123.0,111.5,145.0,107.5,179.0,87.5,162.5,91.5,146.5,89.5,130.5,85.5,114.5,82.0,98.0,78.5,82.0,75.0,66.0,69.0,49.5,63.0,33.5,59.0,17.5,52.5,1.5,53.0" stroke="black" stroke-width="2" fill="none" />
<polyline points="4.0,52.5,17.5,68.0,7.5,83.5,5.5,87.5,10.0,56.0" stroke="black" stroke-width="2" fill="none" />
<polyline points="17.0,24.0,1.0,16.0" stroke="black" stroke-width="2" fill="none" />
<polyline points="2.0,10.0,18.0,18.0" stroke="black" stroke-width="2" fill="none" />
<polyline points="23.5,25.0,3.5,9.0" stroke="black" stroke-width="2" fill="none" />
<polyline points="214.0,19.5,194.0,35.5,173.5,51.5,177.5,65.5,181.5,81.5,200.0,96.0,230.0,111.5,256.0,127.5,260.0,144.0,256.0,160.0,260.0,172.5,278.0,188.5,290.0,204.0,296.0,222.0,298.0,237.5,296.5,253.0,294.5,269.5,288.5,286.0,274.5,302.5" stroke="black" stroke-width="2" fill="none" />
<polyline points="266.5,115.5,250.0,117.5,234.0,107.5,206.0,91.5,186.0,75.5,184.0,59.5,196.0,41.5,216.0,25.0" stroke="black" stroke-width="2" fill="none" />
<polyline points="257.0,10.0,245.5,22.0,237.0,37.5,225.5,53.5,219.5,69.5,224.0,85.5,232.0,105.5,264.5,122.0,268.5,142.0,285.0,142.5,301.0,142.5,317.0,146.5,333.0,148.5,349.0,142.0,365.0,100.0" stroke="black" stroke-width="2" fill="none" />
</svg>