<?xml version="1.0" encoding="UTF-8"?>
<svg xmlns="http://www.w3.org/2000/svg" xmlns:xlink="http://www.w3.org/1999/xlink" width="1935.11811" height="1935.11811" viewBox="0 0 1935.11811 1935.11811" version="1.1">
<g id="surface1">
<path style="fill:none;stroke-width:2;stroke-linecap:butt;stroke-linejoin:miter;stroke:rgb(0%,0%,0%);stroke-opacity:1;stroke-miterlimit:4;" d="M 187.499666 66.500334 L 161.50022 82.500391 L 125.50035 98.500448 L 91.500358 114.500505 L 59.500244 130.999756 L 33.499764 146.999813 L 25.500252 162.99987 L 15.499829 178.999927 L 3.000334 194.999984 L 12.999723 180.499577 L 28.499552 152.500252 L 44.999837 136.500195 L 60.999894 130.499528 L 76.999951 122.500016 L 93.500236 114.000277 L 109.500293 105.499504 L 125.50035 96.999764 L 141.500407 91.00013 L 157.500464 82.999585 L 173.499487 74.499845 L 189.999772 64.500456 L 205.999829 70.50009 L 222.500114 76.499723 L 238.500171 80.999707 L 254.500228 85.000496 L 270.500285 91.00013 L 286.500342 94.999886 L 302.500399 99.49987 L 318.500456 103.499626 L 336.500391 111.500171 L 352.500448 119.499683 L 368.500505 125.999544 L 399.500163 150.000146 L 415.50022 164.000326 L 431.000049 180.000382 L 447.000106 196.000439 L 463.000163 209.999585 L 465.000041 221.999886 L 481.000098 236.000065 " transform="matrix(3.779528,0,0,3.779528,0,0)"/>
<path style="fill:none;stroke-width:2;stroke-linecap:butt;stroke-linejoin:miter;stroke:rgb(0%,0%,0%);stroke-opacity:1;stroke-miterlimit:4;" d="M 508.500228 234.500415 L 509.000456 240.500049 L 509.000456 266.499495 L 495.000277 268.500407 L 491.499715 268.000179 " transform="matrix(3.779528,0,0,3.779528,0,0)"/>
<path style="fill:none;stroke-width:2;stroke-linecap:butt;stroke-linejoin:miter;stroke:rgb(0%,0%,0%);stroke-opacity:1;stroke-miterlimit:4;" d="M 457.499723 258.499984 L 475.499658 256.500106 L 486.999731 240.500049 L 501.500138 228.499748 L 509.49965 228.499748 L 497.999577 248.000366 L 479.999642 257.999756 L 454.000195 246.499683 L 452.000317 240.500049 L 434.000382 234.000187 L 425.999837 217.499902 L 423.499731 221.499658 " transform="matrix(3.779528,0,0,3.779528,0,0)"/>
<path style="fill:none;stroke-width:2;stroke-linecap:butt;stroke-linejoin:miter;stroke:rgb(0%,0%,0%);stroke-opacity:1;stroke-miterlimit:4;" d="M 418.000326 255.49965 L 434.000382 245.50026 L 450.000439 227.99952 L 440.000016 250.000244 L 434.000382 256.500106 " transform="matrix(3.779528,0,0,3.779528,0,0)"/>
<path style="fill:none;stroke-width:2;stroke-linecap:butt;stroke-linejoin:miter;stroke:rgb(0%,0%,0%);stroke-opacity:1;stroke-miterlimit:4;" d="M 418.999748 270.500285 L 434.999805 270.500285 L 450.999862 270.000057 L 475.000464 270.000057 L 484.999854 275.999691 L 496.499927 259.999634 " transform="matrix(3.779528,0,0,3.779528,0,0)"/>
<path style="fill:none;stroke-width:2;stroke-linecap:butt;stroke-linejoin:miter;stroke:rgb(0%,0%,0%);stroke-opacity:1;stroke-miterlimit:4;" d="M 493.499593 275.999691 L 493.499593 280.00048 L 477.000342 280.00048 L 461.500513 275.500496 L 445.000228 273.499585 L 428.499943 275.500496 L 411.999658 279.500252 " transform="matrix(3.779528,0,0,3.779528,0,0)"/>
<path style="fill:none;stroke-width:2;stroke-linecap:butt;stroke-linejoin:miter;stroke:rgb(0%,0%,0%);stroke-opacity:1;stroke-miterlimit:4;" d="M 400.999813 225.500448 L 384.999756 221.499658 " transform="matrix(3.779528,0,0,3.779528,0,0)"/>
<path style="fill:none;stroke-width:2;stroke-linecap:butt;stroke-linejoin:miter;stroke:rgb(0%,0%,0%);stroke-opacity:1;stroke-miterlimit:4;" d="M 404.500374 203.999951 L 404.999569 187.999894 L 397.500285 179.500155 L 382.000456 175.999593 " transform="matrix(3.779528,0,0,3.779528,0,0)"/>
<path style="fill:none;stroke-width:2;stroke-linecap:butt;stroke-linejoin:miter;stroke:rgb(0%,0%,0%);stroke-opacity:1;stroke-miterlimit:4;" d="M 378.499894 174.499943 L 379.000122 190.5 " transform="matrix(3.779528,0,0,3.779528,0,0)"/>
<path style="fill:none;stroke-width:2;stroke-linecap:butt;stroke-linejoin:miter;stroke:rgb(0%,0%,0%);stroke-opacity:1;stroke-miterlimit:4;" d="M 390.500195 205.999829 L 374.500138 203.999951 L 368.000277 203.499723 L 372.000033 197.50009 L 372.000033 180.999805 L 368.000277 159.500342 " transform="matrix(3.779528,0,0,3.779528,0,0)"/>
<path style="fill:none;stroke-width:2;stroke-linecap:butt;stroke-linejoin:miter;stroke:rgb(0%,0%,0%);stroke-opacity:1;stroke-miterlimit:4;" d="M 354.500326 141.500407 L 338.500269 135.999967 L 321.999984 130.000334 L 305.999927 124.499894 L 289.99987 119.000488 L 273.499585 114.999699 L 252.000122 119.000488 L 236.500293 116.500382 L 220.500236 107.999609 L 203.999951 99.49987 L 187.999894 97.499992 L 172.500065 109.000065 L 157.000236 117.499805 L 141.000179 125.50035 L 124.499894 135.49974 L 108.499837 139.499495 " transform="matrix(3.779528,0,0,3.779528,0,0)"/>
<path style="fill:none;stroke-width:2;stroke-linecap:butt;stroke-linejoin:miter;stroke:rgb(0%,0%,0%);stroke-opacity:1;stroke-miterlimit:4;" d="M 106.499959 155.499552 L 84.500269 171.499609 L 79.500057 187.499666 L 80.000285 203.499723 L 71.99974 219.49978 L 73.999618 234.000187 L 98.00022 236.000065 " transform="matrix(3.779528,0,0,3.779528,0,0)"/>
<path style="fill:none;stroke-width:2;stroke-linecap:butt;stroke-linejoin:miter;stroke:rgb(0%,0%,0%);stroke-opacity:1;stroke-miterlimit:4;" d="M 89.000252 254.500228 L 82.999585 270.500285 L 82.999585 302.000171 L 85.000496 314.000472 L 103.000431 315.500122 L 110.999943 316.00035 " transform="matrix(3.779528,0,0,3.779528,0,0)"/>
<path style="fill:none;stroke-width:2;stroke-linecap:butt;stroke-linejoin:miter;stroke:rgb(0%,0%,0%);stroke-opacity:1;stroke-miterlimit:4;" d="M 134.00009 311.999561 L 150.000146 316.00035 " transform="matrix(3.779528,0,0,3.779528,0,0)"/>
<path style="fill:none;stroke-width:2;stroke-linecap:butt;stroke-linejoin:miter;stroke:rgb(0%,0%,0%);stroke-opacity:1;stroke-miterlimit:4;" d="M 154.50013 293.999626 L 138.500073 295.500309 " transform="matrix(3.779528,0,0,3.779528,0,0)"/>
<path style="fill:none;stroke-width:2;stroke-linecap:butt;stroke-linejoin:miter;stroke:rgb(0%,0%,0%);stroke-opacity:1;stroke-miterlimit:4;" d="M 137.000423 290.500098 L 152.500252 290.500098 " transform="matrix(3.779528,0,0,3.779528,0,0)"/>
<path style="fill:none;stroke-width:2;stroke-linecap:butt;stroke-linejoin:miter;stroke:rgb(0%,0%,0%);stroke-opacity:1;stroke-miterlimit:4;" d="M 160.499764 314.000472 L 160.499764 298.000415 L 160.999992 279.500252 L 160.999992 263.500195 " transform="matrix(3.779528,0,0,3.779528,0,0)"/>
<path style="fill:none;stroke-width:2;stroke-linecap:butt;stroke-linejoin:miter;stroke:rgb(0%,0%,0%);stroke-opacity:1;stroke-miterlimit:4;" d="M 159.999536 262.999967 L 175.999593 262.999967 L 183.49991 272.500163 L 183.49991 288.50022 L 186.000016 305.000505 L 184.000138 323.000439 L 178.000505 339.000496 " transform="matrix(3.779528,0,0,3.779528,0,0)"/>
<path style="fill:none;stroke-width:2;stroke-linecap:butt;stroke-linejoin:miter;stroke:rgb(0%,0%,0%);stroke-opacity:1;stroke-miterlimit:4;" d="M 184.999561 302.000171 L 200.999618 293.999626 " transform="matrix(3.779528,0,0,3.779528,0,0)"/>
<path style="fill:none;stroke-width:2;stroke-linecap:butt;stroke-linejoin:miter;stroke:rgb(0%,0%,0%);stroke-opacity:1;stroke-miterlimit:4;" d="M 202.000073 300.000293 L 186.000016 300.000293 " transform="matrix(3.779528,0,0,3.779528,0,0)"/>
<path style="fill:none;stroke-width:2;stroke-linecap:butt;stroke-linejoin:miter;stroke:rgb(0%,0%,0%);stroke-opacity:1;stroke-miterlimit:4;" d="M 208.499935 320.000106 L 208.499935 284.000236 L 207.999707 268.000179 L 200.000195 261.500317 L 184.000138 261.500317 " transform="matrix(3.779528,0,0,3.779528,0,0)"/>
<path style="fill:none;stroke-width:2;stroke-linecap:butt;stroke-linejoin:miter;stroke:rgb(0%,0%,0%);stroke-opacity:1;stroke-miterlimit:4;" d="M 178.000505 264.000423 L 180.000382 280.00048 L 179.500155 295.999504 L 180.999805 311.500366 L 182.500488 331.500179 " transform="matrix(3.779528,0,0,3.779528,0,0)"/>
<path style="fill:none;stroke-width:2;stroke-linecap:butt;stroke-linejoin:miter;stroke:rgb(0%,0%,0%);stroke-opacity:1;stroke-miterlimit:4;" d="M 227.500326 327.500423 L 203.499723 321.499756 L 187.499666 325.499512 L 171.000415 325.499512 L 157.000236 307.499577 L 156.500008 287.999992 L 156.500008 271.999935 L 152.000024 262.49974 L 135.999967 262.999967 " transform="matrix(3.779528,0,0,3.779528,0,0)"/>
<path style="fill:none;stroke-width:2;stroke-linecap:butt;stroke-linejoin:miter;stroke:rgb(0%,0%,0%);stroke-opacity:1;stroke-miterlimit:4;" d="M 137.000423 261.500317 L 136.500195 277.999569 L 137.000423 293.999626 L 137.000423 309.999683 L 127 325.99974 " transform="matrix(3.779528,0,0,3.779528,0,0)"/>
<path style="fill:none;stroke-width:2;stroke-linecap:butt;stroke-linejoin:miter;stroke:rgb(0%,0%,0%);stroke-opacity:1;stroke-miterlimit:4;" d="M 98.999642 311.999561 L 98.999642 295.999504 L 98.500448 280.00048 L 98.00022 263.500195 L 114.000277 255.000456 L 97.499992 255.000456 L 81.499935 257.000334 " transform="matrix(3.779528,0,0,3.779528,0,0)"/>
<path style="fill:none;stroke-width:2;stroke-linecap:butt;stroke-linejoin:miter;stroke:rgb(0%,0%,0%);stroke-opacity:1;stroke-miterlimit:4;" d="M 89.000252 259.999634 L 87.000374 275.500496 L 87.000374 307.999805 " transform="matrix(3.779528,0,0,3.779528,0,0)"/>
<path style="fill:none;stroke-width:2;stroke-linecap:butt;stroke-linejoin:miter;stroke:rgb(0%,0%,0%);stroke-opacity:1;stroke-miterlimit:4;" d="M 60.000472 302.000171 L 57.500366 314.000472 L 59.500244 311.999561 L 48.000171 306.500155 L 48.000171 265.500073 " transform="matrix(3.779528,0,0,3.779528,0,0)"/>
<path style="fill:none;stroke-width:2;stroke-linecap:butt;stroke-linejoin:miter;stroke:rgb(0%,0%,0%);stroke-opacity:1;stroke-miterlimit:4;" d="M 44.000415 261.999512 L 60.000472 259.999634 L 44.499609 271.499707 L 44.499609 287.999992 L 44.999837 304.000049 L 44.999837 329.999495 L 60.999894 332.499601 L 76.499723 334.500513 L 91.999552 336.000163 L 107.999609 338.000041 " transform="matrix(3.779528,0,0,3.779528,0,0)"/>
<path style="fill:none;stroke-width:2;stroke-linecap:butt;stroke-linejoin:miter;stroke:rgb(0%,0%,0%);stroke-opacity:1;stroke-miterlimit:4;" d="M 101.999976 343.999674 L 86.500146 341.999797 L 70.50009 341.499569 " transform="matrix(3.779528,0,0,3.779528,0,0)"/>
<path style="fill:none;stroke-width:2;stroke-linecap:butt;stroke-linejoin:miter;stroke:rgb(0%,0%,0%);stroke-opacity:1;stroke-miterlimit:4;" d="M 73.999618 339.499691 L 71.99974 355.499748 " transform="matrix(3.779528,0,0,3.779528,0,0)"/>
<path style="fill:none;stroke-width:2;stroke-linecap:butt;stroke-linejoin:miter;stroke:rgb(0%,0%,0%);stroke-opacity:1;stroke-miterlimit:4;" d="M 75.500301 351.499992 L 91.500358 361.500415 L 107.500415 365.500171 L 123.500472 367.500049 L 139.999723 369.499927 L 155.99978 371.499805 L 172.500065 373.499683 L 189.00035 375.999788 L 205.499601 375.999788 L 221.499658 377.999666 " transform="matrix(3.779528,0,0,3.779528,0,0)"/>
<path style="fill:none;stroke-width:2;stroke-linecap:butt;stroke-linejoin:miter;stroke:rgb(0%,0%,0%);stroke-opacity:1;stroke-miterlimit:4;" d="M 252.999544 373.499683 L 252.999544 357.499626 L 257.000334 357.499626 L 260.499862 347.500236 " transform="matrix(3.779528,0,0,3.779528,0,0)"/>
<path style="fill:none;stroke-width:2;stroke-linecap:butt;stroke-linejoin:miter;stroke:rgb(0%,0%,0%);stroke-opacity:1;stroke-miterlimit:4;" d="M 260.499862 343.999674 L 276.499919 343.999674 L 275.999691 357.999854 L 271.999935 357.499626 L 284.000236 361.500415 L 282.000358 383.500106 " transform="matrix(3.779528,0,0,3.779528,0,0)"/>
<path style="fill:none;stroke-width:2;stroke-linecap:butt;stroke-linejoin:miter;stroke:rgb(0%,0%,0%);stroke-opacity:1;stroke-miterlimit:4;" d="M 267.499951 381.500228 L 247.500138 373.99991 L 247.500138 357.999854 L 245.50026 329.500301 L 245.50026 313.500244 L 245.000033 297.500187 L 245.000033 281.50013 L 247.500138 265.500073 L 237.499715 255.49965 L 221.999886 255.000456 L 206.500057 257.000334 L 190.5 255.000456 L 174.499943 257.000334 L 158.499886 257.499528 L 126.499772 257.499528 " transform="matrix(3.779528,0,0,3.779528,0,0)"/>
<path style="fill:none;stroke-width:2;stroke-linecap:butt;stroke-linejoin:miter;stroke:rgb(0%,0%,0%);stroke-opacity:1;stroke-miterlimit:4;" d="M 107.500415 266.499495 L 105.499504 260.499862 L 89.50048 261.00009 " transform="matrix(3.779528,0,0,3.779528,0,0)"/>
<path style="fill:none;stroke-width:2;stroke-linecap:butt;stroke-linejoin:miter;stroke:rgb(0%,0%,0%);stroke-opacity:1;stroke-miterlimit:4;" d="M 103.000431 273.499585 L 103.000431 305.499699 " transform="matrix(3.779528,0,0,3.779528,0,0)"/>
<path style="fill:none;stroke-width:2;stroke-linecap:butt;stroke-linejoin:miter;stroke:rgb(0%,0%,0%);stroke-opacity:1;stroke-miterlimit:4;" d="M 73.999618 343.50048 L 89.50048 347.500236 L 105.499504 348.000464 L 121.499561 350.000342 L 137.499618 350.000342 L 153.999902 350.499536 L 169.999959 348.499658 L 186.000016 342.500024 L 202.000073 343.000252 L 234.500415 343.000252 L 236.500293 364.499715 L 224.499992 370.500382 " transform="matrix(3.779528,0,0,3.779528,0,0)"/>
<path style="fill:none;stroke-width:2;stroke-linecap:butt;stroke-linejoin:miter;stroke:rgb(0%,0%,0%);stroke-opacity:1;stroke-miterlimit:4;" d="M 230.499626 382.000456 L 214.000374 382.000456 L 198.000317 381.500228 L 166.000203 377.500472 L 150.000146 375.999788 L 134.00009 373.99991 L 118.50026 372.000033 L 102.500203 370.000155 L 86.500146 366.000399 L 60.499666 359.999731 L 34.50022 334.000285 L 18.500163 331.500179 L 2.500106 333.500057 " transform="matrix(3.779528,0,0,3.779528,0,0)"/>
<path style="fill:none;stroke-width:2;stroke-linecap:butt;stroke-linejoin:miter;stroke:rgb(0%,0%,0%);stroke-opacity:1;stroke-miterlimit:4;" d="M 1.999878 328.499845 L 17.999935 327.000195 " transform="matrix(3.779528,0,0,3.779528,0,0)"/>
<path style="fill:none;stroke-width:2;stroke-linecap:butt;stroke-linejoin:miter;stroke:rgb(0%,0%,0%);stroke-opacity:1;stroke-miterlimit:4;" d="M 37.999748 343.999674 L 53.999805 352.00022 L 73.999618 345.999552 L 88.500024 361.999609 " transform="matrix(3.779528,0,0,3.779528,0,0)"/>
<path style="fill:none;stroke-width:2;stroke-linecap:butt;stroke-linejoin:miter;stroke:rgb(0%,0%,0%);stroke-opacity:1;stroke-miterlimit:4;" d="M 55.500488 358.500081 L 39.500431 350.499536 " transform="matrix(3.779528,0,0,3.779528,0,0)"/>
<path style="fill:none;stroke-width:2;stroke-linecap:butt;stroke-linejoin:miter;stroke:rgb(0%,0%,0%);stroke-opacity:1;stroke-miterlimit:4;" d="M 1.49965 388.500317 L 17.499707 392.500073 L 33.499764 394.499951 L 49.499821 398.499707 L 65.499878 400.000391 L 98.500448 407.999902 L 114.500505 409.499552 L 130.499528 411.999658 L 146.999813 413.999536 L 162.99987 416.000448 L 178.999927 420.000203 L 194.999984 422.000081 L 211.000041 422.000081 L 243.000155 425.999837 " transform="matrix(3.779528,0,0,3.779528,0,0)"/>
<path style="fill:none;stroke-width:2;stroke-linecap:butt;stroke-linejoin:miter;stroke:rgb(0%,0%,0%);stroke-opacity:1;stroke-miterlimit:4;" d="M 241.999699 429.999593 L 226.49987 427.999715 L 211.000041 427.499487 L 194.999984 425.499609 L 179.500155 423.499731 L 162.99987 421.499854 L 146.999813 420.000203 L 130.999756 416.499642 L 114.500505 414.999992 L 98.500448 413.000114 L 82.000163 411.500464 L 65.499878 407.00048 L 48.999593 402.999691 L 32.999536 400.999813 L 16.500285 396.499829 L 0 393.000301 " transform="matrix(3.779528,0,0,3.779528,0,0)"/>
<path style="fill:none;stroke-width:2;stroke-linecap:butt;stroke-linejoin:miter;stroke:rgb(0%,0%,0%);stroke-opacity:1;stroke-miterlimit:4;" d="M 56.49991 463.000163 L 30.500464 477.000342 L 14.500407 482.499748 L 26.00048 476.500114 L 67.999984 456.500301 " transform="matrix(3.779528,0,0,3.779528,0,0)"/>
<path style="fill:none;stroke-width:2;stroke-linecap:butt;stroke-linejoin:miter;stroke:rgb(0%,0%,0%);stroke-opacity:1;stroke-miterlimit:4;" d="M 71.499512 462.499935 L 57.000138 470.50048 " transform="matrix(3.779528,0,0,3.779528,0,0)"/>
<path style="fill:none;stroke-width:2;stroke-linecap:butt;stroke-linejoin:miter;stroke:rgb(0%,0%,0%);stroke-opacity:1;stroke-miterlimit:4;" d="M 28.99978 481.500326 L 12.999723 488.999609 " transform="matrix(3.779528,0,0,3.779528,0,0)"/>
<path style="fill:none;stroke-width:2;stroke-linecap:butt;stroke-linejoin:miter;stroke:rgb(0%,0%,0%);stroke-opacity:1;stroke-miterlimit:4;" d="M 189.499544 456.000073 L 175.500399 466.000496 L 191.500456 456.000073 " transform="matrix(3.779528,0,0,3.779528,0,0)"/>
<path style="fill:none;stroke-width:2;stroke-linecap:butt;stroke-linejoin:miter;stroke:rgb(0%,0%,0%);stroke-opacity:1;stroke-miterlimit:4;" d="M 191.99965 459.999829 L 178.000505 472.500358 L 193.999528 459.999829 " transform="matrix(3.779528,0,0,3.779528,0,0)"/>
<path style="fill:none;stroke-width:2;stroke-linecap:butt;stroke-linejoin:miter;stroke:rgb(0%,0%,0%);stroke-opacity:1;stroke-miterlimit:4;" d="M 207.500513 477.999764 L 189.499544 493.499593 L 173.499487 509.49965 L 187.499666 495.500505 L 203.499723 481.500326 " transform="matrix(3.779528,0,0,3.779528,0,0)"/>
<path style="fill:none;stroke-width:2;stroke-linecap:butt;stroke-linejoin:miter;stroke:rgb(0%,0%,0%);stroke-opacity:1;stroke-miterlimit:4;" d="M 210.499813 482.499748 L 194.499756 497.999577 L 180.499577 509.49965 L 196.499634 495.500505 " transform="matrix(3.779528,0,0,3.779528,0,0)"/>
<path style="fill:none;stroke-width:2;stroke-linecap:butt;stroke-linejoin:miter;stroke:rgb(0%,0%,0%);stroke-opacity:1;stroke-miterlimit:4;" d="M 234.000187 503.500016 L 235.499837 502.000366 L 246.99991 485.500081 " transform="matrix(3.779528,0,0,3.779528,0,0)"/>
<path style="fill:none;stroke-width:2;stroke-linecap:butt;stroke-linejoin:miter;stroke:rgb(0%,0%,0%);stroke-opacity:1;stroke-miterlimit:4;" d="M 246.499683 481.000098 L 232.499504 496.499927 L 221.000464 508.500228 L 237.499715 490.500293 " transform="matrix(3.779528,0,0,3.779528,0,0)"/>
<path style="fill:none;stroke-width:2;stroke-linecap:butt;stroke-linejoin:miter;stroke:rgb(0%,0%,0%);stroke-opacity:1;stroke-miterlimit:4;" d="M 286.000114 488.999609 L 301.499943 477.499536 L 317.5 465.500269 L 335.499935 473.49978 L 323.999862 490.000065 L 305.999927 504.000244 " transform="matrix(3.779528,0,0,3.779528,0,0)"/>
<path style="fill:none;stroke-width:2;stroke-linecap:butt;stroke-linejoin:miter;stroke:rgb(0%,0%,0%);stroke-opacity:1;stroke-miterlimit:4;" d="M 300.000293 502.999788 L 307.999805 487.499959 L 318.000228 471.499902 " transform="matrix(3.779528,0,0,3.779528,0,0)"/>
<path style="fill:none;stroke-width:2;stroke-linecap:butt;stroke-linejoin:miter;stroke:rgb(0%,0%,0%);stroke-opacity:1;stroke-miterlimit:4;" d="M 315.500122 457.499723 L 331.500179 445.500456 L 311.500366 452.99974 L 320.000106 443.00035 L 332.499601 452.499512 L 343.000252 452.000317 L 358.500081 443.499544 L 377.999666 451.50009 L 401.500041 459.499601 L 407.499674 461.500513 L 409.000358 479.00022 L 421.499854 481.500326 L 443.999772 489.499837 L 452.000317 495.500505 L 458.500179 491.499715 L 452.499512 501.500138 L 456.999495 509.49965 " transform="matrix(3.779528,0,0,3.779528,0,0)"/>
<path style="fill:none;stroke-width:2;stroke-linecap:butt;stroke-linejoin:miter;stroke:rgb(0%,0%,0%);stroke-opacity:1;stroke-miterlimit:4;" d="M 440.000016 508.500228 L 443.999772 492.500171 L 447.999528 492.500171 " transform="matrix(3.779528,0,0,3.779528,0,0)"/>
<path style="fill:none;stroke-width:2;stroke-linecap:butt;stroke-linejoin:miter;stroke:rgb(0%,0%,0%);stroke-opacity:1;stroke-miterlimit:4;" d="M 447.999528 505.499894 L 432.000505 509.49965 L 425.999837 500.000488 L 425.999837 484.499626 " transform="matrix(3.779528,0,0,3.779528,0,0)"/>
<path style="fill:none;stroke-width:2;stroke-linecap:butt;stroke-linejoin:miter;stroke:rgb(0%,0%,0%);stroke-opacity:1;stroke-miterlimit:4;" d="M 422.999504 481.99952 L 420.999626 497.500382 L 413.000114 505.499894 " transform="matrix(3.779528,0,0,3.779528,0,0)"/>
<path style="fill:none;stroke-width:2;stroke-linecap:butt;stroke-linejoin:miter;stroke:rgb(0%,0%,0%);stroke-opacity:1;stroke-miterlimit:4;" d="M 388.00009 481.000098 L 366.000399 477.000342 L 350.000342 488.999609 L 327.999618 493.000399 L 318.000228 497.000155 L 327.999618 499.50026 L 317.5 489.499837 L 321.499756 474.000008 L 331.500179 468.000374 L 347.500236 457.499723 L 351.499992 457.499723 L 339.000496 469.500024 " transform="matrix(3.779528,0,0,3.779528,0,0)"/>
<path style="fill:none;stroke-width:2;stroke-linecap:butt;stroke-linejoin:miter;stroke:rgb(0%,0%,0%);stroke-opacity:1;stroke-miterlimit:4;" d="M 364.999943 470.000252 L 348.999886 486.499504 L 332.499601 500.499683 L 338.500269 502.999788 L 354.000098 486.999731 L 368.000277 470.999674 " transform="matrix(3.779528,0,0,3.779528,0,0)"/>
<path style="fill:none;stroke-width:2;stroke-linecap:butt;stroke-linejoin:miter;stroke:rgb(0%,0%,0%);stroke-opacity:1;stroke-miterlimit:4;" d="M 368.999699 468.499569 L 350.999764 484.499626 L 341.000374 492.500171 L 329.500301 494.500049 L 321.499756 510.500106 L 299.500065 508.500228 L 314.999894 482.499748 " transform="matrix(3.779528,0,0,3.779528,0,0)"/>
<path style="fill:none;stroke-width:2;stroke-linecap:butt;stroke-linejoin:miter;stroke:rgb(0%,0%,0%);stroke-opacity:1;stroke-miterlimit:4;" d="M 288.50022 470.999674 L 276.499919 486.999731 L 272.500163 506.999544 " transform="matrix(3.779528,0,0,3.779528,0,0)"/>
<path style="fill:none;stroke-width:2;stroke-linecap:butt;stroke-linejoin:miter;stroke:rgb(0%,0%,0%);stroke-opacity:1;stroke-miterlimit:4;" d="M 277.999569 481.500326 L 275.500496 499.50026 L 261.500317 509.49965 L 280.00048 489.499837 L 302.500399 481.000098 L 318.500456 465.000041 L 327.000195 448.499756 L 329.000073 440.500244 " transform="matrix(3.779528,0,0,3.779528,0,0)"/>
<path style="fill:none;stroke-width:2;stroke-linecap:butt;stroke-linejoin:miter;stroke:rgb(0%,0%,0%);stroke-opacity:1;stroke-miterlimit:4;" d="M 379.50035 477.000342 L 363.999487 495.000277 L 357.999854 506.999544 L 366.499593 491.499715 L 382.49965 475.999886 L 392.500073 459.999829 " transform="matrix(3.779528,0,0,3.779528,0,0)"/>
<path style="fill:none;stroke-width:2;stroke-linecap:butt;stroke-linejoin:miter;stroke:rgb(0%,0%,0%);stroke-opacity:1;stroke-miterlimit:4;" d="M 422.999504 466.999919 L 416.99987 470.999674 L 400.999813 463.000163 L 384.000334 493.999821 L 370.000155 509.999878 L 372.000033 507.499772 L 377.999666 488.000187 " transform="matrix(3.779528,0,0,3.779528,0,0)"/>
<path style="fill:none;stroke-width:2;stroke-linecap:butt;stroke-linejoin:miter;stroke:rgb(0%,0%,0%);stroke-opacity:1;stroke-miterlimit:4;" d="M 477.000342 504.500472 L 486.999731 500.499683 L 488.500415 494.500049 L 484.499626 492.500171 " transform="matrix(3.779528,0,0,3.779528,0,0)"/>
<path style="fill:none;stroke-width:2;stroke-linecap:butt;stroke-linejoin:miter;stroke:rgb(0%,0%,0%);stroke-opacity:1;stroke-miterlimit:4;" d="M 495.999699 493.000399 L 488.000187 509.000456 " transform="matrix(3.779528,0,0,3.779528,0,0)"/>
<path style="fill:none;stroke-width:2;stroke-linecap:butt;stroke-linejoin:miter;stroke:rgb(0%,0%,0%);stroke-opacity:1;stroke-miterlimit:4;" d="M 509.000456 441.999894 L 493.000399 413.999536 " transform="matrix(3.779528,0,0,3.779528,0,0)"/>
<path style="fill:none;stroke-width:2;stroke-linecap:butt;stroke-linejoin:miter;stroke:rgb(0%,0%,0%);stroke-opacity:1;stroke-miterlimit:4;" d="M 491.999943 410.500008 L 508.500228 432.000505 " transform="matrix(3.779528,0,0,3.779528,0,0)"/>
<path style="fill:none;stroke-width:2;stroke-linecap:butt;stroke-linejoin:miter;stroke:rgb(0%,0%,0%);stroke-opacity:1;stroke-miterlimit:4;" d="M 505.499894 429.999593 L 497.500382 413.999536 " transform="matrix(3.779528,0,0,3.779528,0,0)"/>
<path style="fill:none;stroke-width:2;stroke-linecap:butt;stroke-linejoin:miter;stroke:rgb(0%,0%,0%);stroke-opacity:1;stroke-miterlimit:4;" d="M 491.999943 409.000358 L 497.999577 425.000415 L 506.000122 441.499666 " transform="matrix(3.779528,0,0,3.779528,0,0)"/>
<path style="fill:none;stroke-width:2;stroke-linecap:butt;stroke-linejoin:miter;stroke:rgb(0%,0%,0%);stroke-opacity:1;stroke-miterlimit:4;" d="M 488.000187 425.499609 L 481.99952 409.499552 " transform="matrix(3.779528,0,0,3.779528,0,0)"/>
<path style="fill:none;stroke-width:2;stroke-linecap:butt;stroke-linejoin:miter;stroke:rgb(0%,0%,0%);stroke-opacity:1;stroke-miterlimit:4;" d="M 477.499536 407.999902 L 481.500326 423.999959 " transform="matrix(3.779528,0,0,3.779528,0,0)"/>
<path style="fill:none;stroke-width:2;stroke-linecap:butt;stroke-linejoin:miter;stroke:rgb(0%,0%,0%);stroke-opacity:1;stroke-miterlimit:4;" d="M 486.499504 432.000505 L 462.499935 411.999658 L 466.499691 426.500065 L 460.500057 410.500008 " transform="matrix(3.779528,0,0,3.779528,0,0)"/>
<path style="fill:none;stroke-width:2;stroke-linecap:butt;stroke-linejoin:miter;stroke:rgb(0%,0%,0%);stroke-opacity:1;stroke-miterlimit:4;" d="M 440.000016 382.000456 L 456.500301 379.999544 L 472.500358 368.000277 " transform="matrix(3.779528,0,0,3.779528,0,0)"/>
<path style="fill:none;stroke-width:2;stroke-linecap:butt;stroke-linejoin:miter;stroke:rgb(0%,0%,0%);stroke-opacity:1;stroke-miterlimit:4;" d="M 477.000342 355.499748 L 461.000285 351.499992 " transform="matrix(3.779528,0,0,3.779528,0,0)"/>
<path style="fill:none;stroke-width:2;stroke-linecap:butt;stroke-linejoin:miter;stroke:rgb(0%,0%,0%);stroke-opacity:1;stroke-miterlimit:4;" d="M 442.500122 339.999919 L 459.000407 341.999797 L 475.000464 343.999674 L 490.999487 345.999552 L 506.999544 350.499536 " transform="matrix(3.779528,0,0,3.779528,0,0)"/>
<path style="fill:none;stroke-width:2;stroke-linecap:butt;stroke-linejoin:miter;stroke:rgb(0%,0%,0%);stroke-opacity:1;stroke-miterlimit:4;" d="M 456.000073 379.999544 L 475.999886 363.999487 L 474.000008 373.499683 L 475.999886 372.000033 L 475.999886 359.499504 L 459.999829 357.499626 L 427.999715 349.500114 L 411.999658 343.50048 " transform="matrix(3.779528,0,0,3.779528,0,0)"/>
<path style="fill:none;stroke-width:2;stroke-linecap:butt;stroke-linejoin:miter;stroke:rgb(0%,0%,0%);stroke-opacity:1;stroke-miterlimit:4;" d="M 396.499829 357.499626 L 410.500008 349.500114 L 411.000236 364.999943 " transform="matrix(3.779528,0,0,3.779528,0,0)"/>
<path style="fill:none;stroke-width:2;stroke-linecap:butt;stroke-linejoin:miter;stroke:rgb(0%,0%,0%);stroke-opacity:1;stroke-miterlimit:4;" d="M 404.500374 335.499935 L 388.500317 341.999797 L 372.000033 341.999797 L 355.999976 348.499658 L 339.999919 348.999886 L 323.499634 350.999764 " transform="matrix(3.779528,0,0,3.779528,0,0)"/>
<path style="fill:none;stroke-width:2;stroke-linecap:butt;stroke-linejoin:miter;stroke:rgb(0%,0%,0%);stroke-opacity:1;stroke-miterlimit:4;" d="M 316.499544 350.999764 L 314.000472 367.500049 L 305.999927 367.500049 " transform="matrix(3.779528,0,0,3.779528,0,0)"/>
<path style="fill:none;stroke-width:2;stroke-linecap:butt;stroke-linejoin:miter;stroke:rgb(0%,0%,0%);stroke-opacity:1;stroke-miterlimit:4;" d="M 301.499943 350.499536 L 325.000317 350.499536 L 325.000317 366.499593 L 336.999585 368.500505 L 344.499902 372.000033 L 368.000277 373.99991 L 373.99991 377.999666 L 389.49974 375.999788 L 405.499797 368.000277 L 402.000269 361.999609 L 372.000033 368.000277 " transform="matrix(3.779528,0,0,3.779528,0,0)"/>
<path style="fill:none;stroke-width:2;stroke-linecap:butt;stroke-linejoin:miter;stroke:rgb(0%,0%,0%);stroke-opacity:1;stroke-miterlimit:4;" d="M 369.499927 348.000464 L 367.500049 355.499748 L 359.499504 363.500293 L 365.500171 347.500236 " transform="matrix(3.779528,0,0,3.779528,0,0)"/>
<path style="fill:none;stroke-width:2;stroke-linecap:butt;stroke-linejoin:miter;stroke:rgb(0%,0%,0%);stroke-opacity:1;stroke-miterlimit:4;" d="M 381 335.499935 L 365.500171 339.499691 L 350.000342 341.499569 L 345.999552 323.499634 L 348.000464 307.499577 L 348.499658 291.49952 L 347.000008 275.999691 L 339.499691 259.999634 L 313.500244 246.000488 L 298.000415 237.999943 " transform="matrix(3.779528,0,0,3.779528,0,0)"/>
<path style="fill:none;stroke-width:2;stroke-linecap:butt;stroke-linejoin:miter;stroke:rgb(0%,0%,0%);stroke-opacity:1;stroke-miterlimit:4;" d="M 296.999959 238.500171 L 323.000439 254.500228 L 322.500212 272.500163 L 322.500212 314.499666 " transform="matrix(3.779528,0,0,3.779528,0,0)"/>
<path style="fill:none;stroke-width:2;stroke-linecap:butt;stroke-linejoin:miter;stroke:rgb(0%,0%,0%);stroke-opacity:1;stroke-miterlimit:4;" d="M 325.99974 313.000016 L 325.99974 296.999959 L 327.500423 280.499674 L 325.499512 264.499618 L 309.00026 261.999512 L 293.000203 261.999512 " transform="matrix(3.779528,0,0,3.779528,0,0)"/>
<path style="fill:none;stroke-width:2;stroke-linecap:butt;stroke-linejoin:miter;stroke:rgb(0%,0%,0%);stroke-opacity:1;stroke-miterlimit:4;" d="M 293.000203 266.000301 L 293.000203 282.000358 L 295.000081 297.500187 L 294.499854 313.500244 L 312.499788 323.999862 L 327.999618 316.00035 " transform="matrix(3.779528,0,0,3.779528,0,0)"/>
<path style="fill:none;stroke-width:2;stroke-linecap:butt;stroke-linejoin:miter;stroke:rgb(0%,0%,0%);stroke-opacity:1;stroke-miterlimit:4;" d="M 318.000228 318.000228 L 302.500399 318.000228 L 286.500342 323.999862 L 270.500285 321.999984 " transform="matrix(3.779528,0,0,3.779528,0,0)"/>
<path style="fill:none;stroke-width:2;stroke-linecap:butt;stroke-linejoin:miter;stroke:rgb(0%,0%,0%);stroke-opacity:1;stroke-miterlimit:4;" d="M 259.500439 352.00022 L 259.500439 368.500505 " transform="matrix(3.779528,0,0,3.779528,0,0)"/>
<path style="fill:none;stroke-width:2;stroke-linecap:butt;stroke-linejoin:miter;stroke:rgb(0%,0%,0%);stroke-opacity:1;stroke-miterlimit:4;" d="M 262.999967 369.499927 L 263.500195 354.000098 L 268.000179 354.000098 " transform="matrix(3.779528,0,0,3.779528,0,0)"/>
<path style="fill:none;stroke-width:2;stroke-linecap:butt;stroke-linejoin:miter;stroke:rgb(0%,0%,0%);stroke-opacity:1;stroke-miterlimit:4;" d="M 279.500252 354.000098 L 284.999658 370.000155 " transform="matrix(3.779528,0,0,3.779528,0,0)"/>
<path style="fill:none;stroke-width:2;stroke-linecap:butt;stroke-linejoin:miter;stroke:rgb(0%,0%,0%);stroke-opacity:1;stroke-miterlimit:4;" d="M 291.999748 368.000277 L 291.999748 352.500448 " transform="matrix(3.779528,0,0,3.779528,0,0)"/>
<path style="fill:none;stroke-width:2;stroke-linecap:butt;stroke-linejoin:miter;stroke:rgb(0%,0%,0%);stroke-opacity:1;stroke-miterlimit:4;" d="M 295.500309 348.999886 L 295.500309 364.999943 L 305.499699 382.999878 L 321.499756 383.500106 " transform="matrix(3.779528,0,0,3.779528,0,0)"/>
<path style="fill:none;stroke-width:2;stroke-linecap:butt;stroke-linejoin:miter;stroke:rgb(0%,0%,0%);stroke-opacity:1;stroke-miterlimit:4;" d="M 299.500065 366.000399 L 299.500065 350.000342 " transform="matrix(3.779528,0,0,3.779528,0,0)"/>
<path style="fill:none;stroke-width:2;stroke-linecap:butt;stroke-linejoin:miter;stroke:rgb(0%,0%,0%);stroke-opacity:1;stroke-miterlimit:4;" d="M 306.500155 305.999927 L 288.50022 310.49991 L 287.999992 294.499854 L 287.999992 278.499797 L 294.499854 262.49974 L 282.499552 264.499618 L 266.499495 264.499618 " transform="matrix(3.779528,0,0,3.779528,0,0)"/>
<path style="fill:none;stroke-width:2;stroke-linecap:butt;stroke-linejoin:miter;stroke:rgb(0%,0%,0%);stroke-opacity:1;stroke-miterlimit:4;" d="M 267.499951 264.000423 L 265.500073 280.00048 L 265.500073 295.999504 L 266.999723 311.999561 L 270.500285 337.499813 L 286.000114 339.999919 L 301.499943 339.999919 L 317.5 340.500146 L 332.999829 341.000374 " transform="matrix(3.779528,0,0,3.779528,0,0)"/>
<path style="fill:none;stroke-width:2;stroke-linecap:butt;stroke-linejoin:miter;stroke:rgb(0%,0%,0%);stroke-opacity:1;stroke-miterlimit:4;" d="M 333.500057 255.999878 L 317.5 241.999699 L 301.499943 234.500415 " transform="matrix(3.779528,0,0,3.779528,0,0)"/>
<path style="fill:none;stroke-width:2;stroke-linecap:butt;stroke-linejoin:miter;stroke:rgb(0%,0%,0%);stroke-opacity:1;stroke-miterlimit:4;" d="M 304.000049 236.500293 L 327.999618 252.999544 L 337.499813 268.999601 L 341.499569 284.500464 L 343.50048 300.499487 L 341.499569 316.00035 L 341.999797 332.000407 L 335.499935 357.999854 L 327.999618 359.999731 L 327.999618 375.999788 " transform="matrix(3.779528,0,0,3.779528,0,0)"/>
<path style="fill:none;stroke-width:2;stroke-linecap:butt;stroke-linejoin:miter;stroke:rgb(0%,0%,0%);stroke-opacity:1;stroke-miterlimit:4;" d="M 336.500391 264.499618 L 318.500456 258.499984 L 286.500342 258.499984 L 270.500285 257.999756 L 246.499683 247.500138 L 228.499748 261.00009 L 212.000496 260.499862 " transform="matrix(3.779528,0,0,3.779528,0,0)"/>
<path style="fill:none;stroke-width:2;stroke-linecap:butt;stroke-linejoin:miter;stroke:rgb(0%,0%,0%);stroke-opacity:1;stroke-miterlimit:4;" d="M 214.999797 264.499618 L 212.999919 280.00048 L 212.999919 295.999504 L 214.999797 313.500244 " transform="matrix(3.779528,0,0,3.779528,0,0)"/>
<path style="fill:none;stroke-width:2;stroke-linecap:butt;stroke-linejoin:miter;stroke:rgb(0%,0%,0%);stroke-opacity:1;stroke-miterlimit:4;" d="M 266.000301 258.499984 L 259.999634 274.500041 L 259.999634 305.999927 L 264.000423 321.499756 L 262.49974 327.000195 L 262.49974 319.499878 L 278.499797 318.000228 L 304.500277 310.49991 " transform="matrix(3.779528,0,0,3.779528,0,0)"/>
<path style="fill:none;stroke-width:2;stroke-linecap:butt;stroke-linejoin:miter;stroke:rgb(0%,0%,0%);stroke-opacity:1;stroke-miterlimit:4;" d="M 296.499731 234.999609 L 312.499788 226.49987 L 328.499845 226.49987 " transform="matrix(3.779528,0,0,3.779528,0,0)"/>
<path style="fill:none;stroke-width:2;stroke-linecap:butt;stroke-linejoin:miter;stroke:rgb(0%,0%,0%);stroke-opacity:1;stroke-miterlimit:4;" d="M 321.999984 230.000431 L 306.500155 230.499626 " transform="matrix(3.779528,0,0,3.779528,0,0)"/>
<path style="fill:none;stroke-width:2;stroke-linecap:butt;stroke-linejoin:miter;stroke:rgb(0%,0%,0%);stroke-opacity:1;stroke-miterlimit:4;" d="M 354.99952 220.500236 L 354.500326 203.999951 L 352.500448 187.499666 L 352.999642 171.499609 L 345.500358 157.000236 L 325.499512 140.499951 L 295.999504 128.999878 L 280.00048 116.999577 " transform="matrix(3.779528,0,0,3.779528,0,0)"/>
<path style="fill:none;stroke-width:2;stroke-linecap:butt;stroke-linejoin:miter;stroke:rgb(0%,0%,0%);stroke-opacity:1;stroke-miterlimit:4;" d="M 280.999902 110.999943 L 306.500155 127 L 318.99965 143.000057 L 336.500391 157.000236 L 346.49978 170.500187 L 343.999674 186.500244 L 342.500024 202.500301 L 343.000252 218.00013 L 335.499935 230.000431 L 347.500236 233.499959 L 367.500049 227.99952 L 383.500106 230.000431 L 399.500163 232.000309 L 418.999748 230.000431 L 428.499943 233.499959 L 434.000382 234.000187 L 435.500033 225.999642 " transform="matrix(3.779528,0,0,3.779528,0,0)"/>
<path style="fill:none;stroke-width:2;stroke-linecap:butt;stroke-linejoin:miter;stroke:rgb(0%,0%,0%);stroke-opacity:1;stroke-miterlimit:4;" d="M 486.000309 162.499642 L 470.50048 148.500496 " transform="matrix(3.779528,0,0,3.779528,0,0)"/>
<path style="fill:none;stroke-width:2;stroke-linecap:butt;stroke-linejoin:miter;stroke:rgb(0%,0%,0%);stroke-opacity:1;stroke-miterlimit:4;" d="M 467.500146 140.499951 L 477.499536 156.500008 L 493.000399 160.499764 L 500.99991 166.500431 L 506.50035 180.000382 " transform="matrix(3.779528,0,0,3.779528,0,0)"/>
<path style="fill:none;stroke-width:2;stroke-linecap:butt;stroke-linejoin:miter;stroke:rgb(0%,0%,0%);stroke-opacity:1;stroke-miterlimit:4;" d="M 510.500106 157.500464 L 500.499683 169.499731 L 484.499626 150.999569 L 468.499569 139.000301 " transform="matrix(3.779528,0,0,3.779528,0,0)"/>
<path style="fill:none;stroke-width:2;stroke-linecap:butt;stroke-linejoin:miter;stroke:rgb(0%,0%,0%);stroke-opacity:1;stroke-miterlimit:4;" d="M 413.500342 177.500277 L 397.500285 163.500098 L 382.000456 152.000024 L 366.000399 140.499951 L 350.000342 134.500317 L 334.000285 126.499772 L 318.000228 122.500016 L 301.499943 119.000488 L 285.499886 112.999821 L 268.999601 112.999821 L 252.999544 104.500081 L 236.999487 98.500448 L 221.499658 94.000464 L 205.499601 87.499569 L 189.499544 81.499935 L 169.499731 95.500114 L 153.499674 100.99952 L 137.499618 109.000065 L 121.000366 116.999577 L 105.000309 123.500472 L 89.000252 131.499984 L 73.000195 139.999723 L 57.000138 148.000269 L 41.000081 164.49952 L 60.999894 152.500252 L 86.500146 132.500439 " transform="matrix(3.779528,0,0,3.779528,0,0)"/>
<path style="fill:none;stroke-width:2;stroke-linecap:butt;stroke-linejoin:miter;stroke:rgb(0%,0%,0%);stroke-opacity:1;stroke-miterlimit:4;" d="M 72.499967 148.000269 L 56.49991 155.99978 L 67.999984 159.999536 L 93.500236 144.000513 L 99.49987 144.000513 L 97.499992 141.999601 L 81.499935 152.000024 L 65.499878 161.50022 L 48.999593 169.999959 L 32.999536 184.000138 " transform="matrix(3.779528,0,0,3.779528,0,0)"/>
<path style="fill:none;stroke-width:2;stroke-linecap:butt;stroke-linejoin:miter;stroke:rgb(0%,0%,0%);stroke-opacity:1;stroke-miterlimit:4;" d="M 35.499642 187.000472 L 51.499699 176.499821 L 67.499756 168.999504 L 83.499813 159.000114 L 82.000163 160.999992 L 50.000049 177.000049 L 23.999569 192.499878 L 12.499495 207.999707 L 16.500285 223.499536 L 16.500285 239.499593 L 20.500041 247.500138 L 41.000081 231.500081 L 57.000138 229.500203 L 76.999951 233.499959 L 91.00013 229.500203 L 107.000187 229.500203 L 127 237.499715 L 142.499829 231.500081 L 175.000171 231.500081 " transform="matrix(3.779528,0,0,3.779528,0,0)"/>
<path style="fill:none;stroke-width:2;stroke-linecap:butt;stroke-linejoin:miter;stroke:rgb(0%,0%,0%);stroke-opacity:1;stroke-miterlimit:4;" d="M 183.49991 168.000081 L 199.499967 169.999959 " transform="matrix(3.779528,0,0,3.779528,0,0)"/>
<path style="fill:none;stroke-width:2;stroke-linecap:butt;stroke-linejoin:miter;stroke:rgb(0%,0%,0%);stroke-opacity:1;stroke-miterlimit:4;" d="M 193.999528 175.000171 L 186.000016 168.999504 L 186.000016 152.500252 L 174.499943 137.000423 L 158.499886 137.499618 L 142.499829 139.000301 " transform="matrix(3.779528,0,0,3.779528,0,0)"/>
<path style="fill:none;stroke-width:2;stroke-linecap:butt;stroke-linejoin:miter;stroke:rgb(0%,0%,0%);stroke-opacity:1;stroke-miterlimit:4;" d="M 137.999845 146.000391 L 153.999902 144.499707 L 169.999959 142.499829 L 180.000382 148.500496 L 180.000382 164.49952 L 182.00026 180.000382 L 182.500488 195.500212 L 180.499577 211.500269 L 178.499699 227.500326 L 198.499512 235.499837 L 230.999854 235.499837 " transform="matrix(3.779528,0,0,3.779528,0,0)"/>
<path style="fill:none;stroke-width:2;stroke-linecap:butt;stroke-linejoin:miter;stroke:rgb(0%,0%,0%);stroke-opacity:1;stroke-miterlimit:4;" d="M 227.500326 187.499666 L 235.499837 181.500033 " transform="matrix(3.779528,0,0,3.779528,0,0)"/>
<path style="fill:none;stroke-width:2;stroke-linecap:butt;stroke-linejoin:miter;stroke:rgb(0%,0%,0%);stroke-opacity:1;stroke-miterlimit:4;" d="M 268.500407 164.999748 L 284.500464 155.000358 L 300.000293 155.499552 L 298.000415 171.000415 L 300.000293 187.000472 " transform="matrix(3.779528,0,0,3.779528,0,0)"/>
<path style="fill:none;stroke-width:2;stroke-linecap:butt;stroke-linejoin:miter;stroke:rgb(0%,0%,0%);stroke-opacity:1;stroke-miterlimit:4;" d="M 328.499845 200.000195 L 311.999561 202.500301 L 296.499731 206.500057 L 280.499674 208.499935 L 266.499495 200.000195 L 268.000179 183.49991 L 268.000179 167.499854 L 286.000114 151.499797 L 287.999992 131.499984 L 264.000423 115.499927 L 239.999821 110.999943 L 224.499992 103.000431 " transform="matrix(3.779528,0,0,3.779528,0,0)"/>
<path style="fill:none;stroke-width:2;stroke-linecap:butt;stroke-linejoin:miter;stroke:rgb(0%,0%,0%);stroke-opacity:1;stroke-miterlimit:4;" d="M 232.999731 119.99991 L 216.999674 111.500171 L 201.499845 103.000431 " transform="matrix(3.779528,0,0,3.779528,0,0)"/>
<path style="fill:none;stroke-width:2;stroke-linecap:butt;stroke-linejoin:miter;stroke:rgb(0%,0%,0%);stroke-opacity:1;stroke-miterlimit:4;" d="M 200.000195 98.500448 L 229.500203 114.000277 L 261.500317 129.500106 L 259.500439 147.500041 L 261.999512 164.000326 L 261.999512 180.000382 L 259.999634 196.000439 L 264.000423 205.999829 L 280.499674 202.000073 L 296.499731 201.499845 L 318.99965 205.499601 " transform="matrix(3.779528,0,0,3.779528,0,0)"/>
<path style="fill:none;stroke-width:2;stroke-linecap:butt;stroke-linejoin:miter;stroke:rgb(0%,0%,0%);stroke-opacity:1;stroke-miterlimit:4;" d="M 334.000285 223.999764 L 333.500057 207.999707 L 337.499813 196.499634 L 337.499813 180.499577 L 333.500057 164.49952 L 311.500366 148.500496 " transform="matrix(3.779528,0,0,3.779528,0,0)"/>
<path style="fill:none;stroke-width:2;stroke-linecap:butt;stroke-linejoin:miter;stroke:rgb(0%,0%,0%);stroke-opacity:1;stroke-miterlimit:4;" d="M 304.000049 148.999691 L 304.000049 164.999748 L 303.499821 187.000472 L 303.499821 202.999495 " transform="matrix(3.779528,0,0,3.779528,0,0)"/>
<path style="fill:none;stroke-width:2;stroke-linecap:butt;stroke-linejoin:miter;stroke:rgb(0%,0%,0%);stroke-opacity:1;stroke-miterlimit:4;" d="M 265.500073 135.49974 L 227.500326 131.499984 L 194.499756 135.49974 L 178.499699 139.499495 " transform="matrix(3.779528,0,0,3.779528,0,0)"/>
<path style="fill:none;stroke-width:2;stroke-linecap:butt;stroke-linejoin:miter;stroke:rgb(0%,0%,0%);stroke-opacity:1;stroke-miterlimit:4;" d="M 187.000472 141.500407 L 203.499723 139.499495 L 218.999552 137.499618 L 234.999609 135.49974 L 248.499561 144.000513 L 248.000366 159.999536 L 246.000488 175.500399 L 246.499683 191.000228 L 248.499561 207.500513 L 246.99991 223.499536 L 245.000033 251.499894 L 243.000155 265.500073 L 243.000155 281.50013 L 241.000277 297.500187 L 243.000155 314.000472 L 243.000155 347.000008 L 244.499805 363.000065 L 240.500049 366.999821 L 244.499805 382.49965 L 262.49974 378.499894 L 276.499919 374.500138 L 300.000293 384.499528 L 310.49991 370.500382 L 320.500334 373.000488 L 338.500269 377.000244 L 346.49978 382.49965 L 356.500203 382.999878 L 370.500382 363.000065 L 386.500439 363.000065 L 388.500317 368.500505 L 404.500374 362.499837 L 416.000448 340.500146 L 432.499699 345.00013 L 448.499756 350.999764 L 464.499813 348.999886 L 496.499927 352.999642 " transform="matrix(3.779528,0,0,3.779528,0,0)"/>
<path style="fill:none;stroke-width:2;stroke-linecap:butt;stroke-linejoin:miter;stroke:rgb(0%,0%,0%);stroke-opacity:1;stroke-miterlimit:4;" d="M 407.999902 314.999894 L 407.999902 299.500065 L 409.99978 283.500008 L 409.99978 235.499837 L 409.499552 221.000464 L 407.00048 198.99974 L 409.000358 183.49991 L 404.999569 171.499609 L 361.000187 140.499951 L 325.000317 124.499894 " transform="matrix(3.779528,0,0,3.779528,0,0)"/>
<path style="fill:none;stroke-width:2;stroke-linecap:butt;stroke-linejoin:miter;stroke:rgb(0%,0%,0%);stroke-opacity:1;stroke-miterlimit:4;" d="M 298.000415 137.000423 L 282.499552 127 L 266.499495 115.499927 L 250.500472 107.500415 L 234.500415 101.499748 L 218.999552 97.499992 L 202.500301 91.999552 L 180.499577 84.000041 L 164.000326 91.999552 L 148.000269 100.000098 L 132.500439 107.999609 L 116.500382 113.500049 L 100.500326 121.499561 L 84.000041 129.500106 L 67.999984 137.000423 L 51.499699 145.500163 L 35.499642 164.000326 L 19.499585 187.999894 L 7.500317 203.999951 L 3.499528 214.000374 " transform="matrix(3.779528,0,0,3.779528,0,0)"/>
<path style="fill:none;stroke-width:2;stroke-linecap:butt;stroke-linejoin:miter;stroke:rgb(0%,0%,0%);stroke-opacity:1;stroke-miterlimit:4;" d="M 28.000358 214.000374 L 44.000415 209.999585 L 51.999927 214.000374 L 67.999984 209.999585 L 91.999552 207.999707 " transform="matrix(3.779528,0,0,3.779528,0,0)"/>
<path style="fill:none;stroke-width:2;stroke-linecap:butt;stroke-linejoin:miter;stroke:rgb(0%,0%,0%);stroke-opacity:1;stroke-miterlimit:4;" d="M 88.500024 211.500269 L 104.500081 211.500269 " transform="matrix(3.779528,0,0,3.779528,0,0)"/>
<path style="fill:none;stroke-width:2;stroke-linecap:butt;stroke-linejoin:miter;stroke:rgb(0%,0%,0%);stroke-opacity:1;stroke-miterlimit:4;" d="M 109.999487 205.499601 L 112.000399 189.999772 L 112.000399 173.999715 L 101.999976 174.499943 L 85.999919 180.499577 " transform="matrix(3.779528,0,0,3.779528,0,0)"/>
<path style="fill:none;stroke-width:2;stroke-linecap:butt;stroke-linejoin:miter;stroke:rgb(0%,0%,0%);stroke-opacity:1;stroke-miterlimit:4;" d="M 93.500236 173.000293 L 85.499691 189.00035 L 85.499691 205.499601 L 77.500179 223.499536 " transform="matrix(3.779528,0,0,3.779528,0,0)"/>
<path style="fill:none;stroke-width:2;stroke-linecap:butt;stroke-linejoin:miter;stroke:rgb(0%,0%,0%);stroke-opacity:1;stroke-miterlimit:4;" d="M 49.499821 181.500033 L 65.499878 181.500033 L 89.50048 169.499731 L 105.499504 159.500342 " transform="matrix(3.779528,0,0,3.779528,0,0)"/>
<path style="fill:none;stroke-width:2;stroke-linecap:butt;stroke-linejoin:miter;stroke:rgb(0%,0%,0%);stroke-opacity:1;stroke-miterlimit:4;" d="M 91.500358 155.499552 L 77.500179 171.499609 L 64.000228 177.500277 L 80.000285 169.999959 L 95.500114 157.999658 L 111.500171 144.000513 L 130.000334 139.999723 L 146.000391 131.499984 L 162.499642 123.500472 L 166.500431 127.500228 L 182.00026 119.499683 L 198.000317 111.500171 L 214.000374 115.499927 L 230.000431 125.50035 L 254 125.999544 " transform="matrix(3.779528,0,0,3.779528,0,0)"/>
<path style="fill:none;stroke-width:2;stroke-linecap:butt;stroke-linejoin:miter;stroke:rgb(0%,0%,0%);stroke-opacity:1;stroke-miterlimit:4;" d="M 289.499642 114.500505 L 331.500179 116.500382 L 363.500293 132.500439 L 385.499984 148.500496 L 403.499919 164.49952 L 421.499854 180.000382 L 438.000138 196.000439 L 452.000317 212.000496 L 454.500423 218.00013 L 446.499878 234.000187 L 425.000415 249.500016 L 416.99987 251.499894 L 416.99987 267.499951 L 414.499764 287.499764 L 413.999536 302.999593 L 416.000448 323.000439 L 391.999845 339.000496 " transform="matrix(3.779528,0,0,3.779528,0,0)"/>
<path style="fill:none;stroke-width:2;stroke-linecap:butt;stroke-linejoin:miter;stroke:rgb(0%,0%,0%);stroke-opacity:1;stroke-miterlimit:4;" d="M 195.500212 436.999683 L 179.500155 452.99974 L 149.499919 470.000252 L 125.50035 486.499504 L 101.499748 502.499561 L 109.500293 497.000155 L 125.999544 486.499504 L 141.999601 476.500114 L 157.999658 466.000496 L 173.499487 457.999951 L 189.999772 443.999772 " transform="matrix(3.779528,0,0,3.779528,0,0)"/>
<path style="fill:none;stroke-width:2;stroke-linecap:butt;stroke-linejoin:miter;stroke:rgb(0%,0%,0%);stroke-opacity:1;stroke-miterlimit:4;" d="M 197.50009 436.500488 L 181.500033 446.499878 L 165.499976 458.500179 L 148.999691 466.499691 L 132.500439 476.500114 L 116.500382 486.499504 L 100.500326 499.000033 L 98.00022 498.499805 L 121.499561 482.499748 L 144.999935 466.000496 L 175.000171 449.500212 L 193.000106 433.500155 " transform="matrix(3.779528,0,0,3.779528,0,0)"/>
<path style="fill:none;stroke-width:2;stroke-linecap:butt;stroke-linejoin:miter;stroke:rgb(0%,0%,0%);stroke-opacity:1;stroke-miterlimit:4;" d="M 55.00026 357.000431 L 28.499552 348.999886 L 37.000326 330.999951 L 32.999536 314.999894 L 32.999536 298.999837 L 30.999658 283.500008 L 30.999658 268.000179 " transform="matrix(3.779528,0,0,3.779528,0,0)"/>
<path style="fill:none;stroke-width:2;stroke-linecap:butt;stroke-linejoin:miter;stroke:rgb(0%,0%,0%);stroke-opacity:1;stroke-miterlimit:4;" d="M 27.50013 225.00022 L 41.500309 209.000163 L 45.500065 193.500334 L 23.999569 189.499544 " transform="matrix(3.779528,0,0,3.779528,0,0)"/>
<path style="fill:none;stroke-width:2;stroke-linecap:butt;stroke-linejoin:miter;stroke:rgb(0%,0%,0%);stroke-opacity:1;stroke-miterlimit:4;" d="M 55.999683 141.999601 L 39.999626 157.999658 L 30.000236 173.999715 L 19.999813 190.5 L 5.999634 206.500057 L 10.000423 218.500358 L 7.500317 234.500415 L 3.000334 250.500472 L 14.999601 264.499618 " transform="matrix(3.779528,0,0,3.779528,0,0)"/>
<path style="fill:none;stroke-width:2;stroke-linecap:butt;stroke-linejoin:miter;stroke:rgb(0%,0%,0%);stroke-opacity:1;stroke-miterlimit:4;" d="M 106.499959 191.500456 L 103.999854 175.500399 " transform="matrix(3.779528,0,0,3.779528,0,0)"/>
<path style="fill:none;stroke-width:2;stroke-linecap:butt;stroke-linejoin:miter;stroke:rgb(0%,0%,0%);stroke-opacity:1;stroke-miterlimit:4;" d="M 128.49965 173.000293 L 128.49965 189.499544 L 128.000456 205.499601 L 125.999544 221.499658 L 132.000212 237.999943 L 148.000269 237.999943 L 163.500098 236.000065 L 179.500155 235.499837 L 195.500212 229.500203 L 211.000041 231.500081 L 227.000098 229.500203 " transform="matrix(3.779528,0,0,3.779528,0,0)"/>
<path style="fill:none;stroke-width:2;stroke-linecap:butt;stroke-linejoin:miter;stroke:rgb(0%,0%,0%);stroke-opacity:1;stroke-miterlimit:4;" d="M 158.499886 196.499634 L 152.500252 178.499699 L 158.499886 162.499642 L 158.499886 146.499585 " transform="matrix(3.779528,0,0,3.779528,0,0)"/>
<path style="fill:none;stroke-width:2;stroke-linecap:butt;stroke-linejoin:miter;stroke:rgb(0%,0%,0%);stroke-opacity:1;stroke-miterlimit:4;" d="M 155.000358 146.499585 L 154.50013 162.499642 L 154.50013 198.000317 " transform="matrix(3.779528,0,0,3.779528,0,0)"/>
<path style="fill:none;stroke-width:2;stroke-linecap:butt;stroke-linejoin:miter;stroke:rgb(0%,0%,0%);stroke-opacity:1;stroke-miterlimit:4;" d="M 132.000212 197.50009 L 131.499984 181.500033 L 128.999878 165.499976 L 128.999878 150.000146 " transform="matrix(3.779528,0,0,3.779528,0,0)"/>
<path style="fill:none;stroke-width:2;stroke-linecap:butt;stroke-linejoin:miter;stroke:rgb(0%,0%,0%);stroke-opacity:1;stroke-miterlimit:4;" d="M 138.500073 191.500456 L 138.500073 159.999536 L 132.999634 144.000513 L 144.999935 132.000212 L 175.000171 116.500382 L 196.999862 112.499593 " transform="matrix(3.779528,0,0,3.779528,0,0)"/>
<path style="fill:none;stroke-width:2;stroke-linecap:butt;stroke-linejoin:miter;stroke:rgb(0%,0%,0%);stroke-opacity:1;stroke-miterlimit:4;" d="M 205.999829 114.000277 L 239.499593 123.999666 L 255.999878 132.500439 L 275.999691 138.500073 L 292.499976 139.999723 L 312.499788 131.499984 L 318.99965 139.999723 L 334.999707 148.000269 L 350.999764 159.999536 L 370.999577 169.999959 L 381 169.999959 L 397.000057 175.500399 " transform="matrix(3.779528,0,0,3.779528,0,0)"/>
<path style="fill:none;stroke-width:2;stroke-linecap:butt;stroke-linejoin:miter;stroke:rgb(0%,0%,0%);stroke-opacity:1;stroke-miterlimit:4;" d="M 300.499487 100.99952 L 326.499967 106.499959 L 354.500326 122.500016 L 382.49965 138.500073 L 402.500496 154.50013 L 420.500431 170.500187 L 438.999561 186.500244 L 452.99974 202.500301 L 463.500391 216.000252 L 475.000464 221.999886 L 475.000464 238.500171 L 452.99974 243.999577 L 452.99974 259.999634 L 454.999618 261.500317 L 468.499569 255.49965 L 484.000431 249.500016 L 500.000488 229.500203 L 507.499772 229.500203 " transform="matrix(3.779528,0,0,3.779528,0,0)"/>
<path style="fill:none;stroke-width:2;stroke-linecap:butt;stroke-linejoin:miter;stroke:rgb(0%,0%,0%);stroke-opacity:1;stroke-miterlimit:4;" d="M 234.500415 196.499634 L 218.500358 202.500301 L 212.499691 190.5 L 212.499691 174.499943 L 210.499813 158.499886 L 212.499691 142.499829 " transform="matrix(3.779528,0,0,3.779528,0,0)"/>
<path style="fill:none;stroke-width:2;stroke-linecap:butt;stroke-linejoin:miter;stroke:rgb(0%,0%,0%);stroke-opacity:1;stroke-miterlimit:4;" d="M 206.500057 143.500285 L 205.999829 159.500342 L 205.999829 194.999984 L 193.999528 202.999495 L 184.500366 216.50048 " transform="matrix(3.779528,0,0,3.779528,0,0)"/>
<path style="fill:none;stroke-width:2;stroke-linecap:butt;stroke-linejoin:miter;stroke:rgb(0%,0%,0%);stroke-opacity:1;stroke-miterlimit:4;" d="M 241.000277 227.99952 L 242.499927 212.000496 L 241.999699 196.499634 L 241.500505 180.499577 L 241.500505 133.499862 L 221.499658 117.499805 L 189.499544 101.499748 " transform="matrix(3.779528,0,0,3.779528,0,0)"/>
<path style="fill:none;stroke-width:2;stroke-linecap:butt;stroke-linejoin:miter;stroke:rgb(0%,0%,0%);stroke-opacity:1;stroke-miterlimit:4;" d="M 186.000016 97.499992 L 164.000326 113.500049 L 134.00009 130.000334 L 116.000155 146.000391 L 123.999666 161.50022 L 124.499894 177.500277 L 123.999666 193.500334 L 119.99991 225.500448 L 118.50026 241.500505 L 132.999634 265.500073 L 130.499528 282.000358 L 130.999756 298.000415 L 128.999878 314.000472 L 123.000244 329.999495 L 141.000179 339.999919 L 157.000236 342.500024 L 172.500065 344.499902 L 194.499756 350.499536 L 210.499813 352.999642 L 226.49987 352.999642 L 246.499683 350.999764 L 248.499561 336.999585 L 254.500228 353.49987 L 271.000513 352.999642 L 286.999536 347.000008 L 302.999593 347.000008 L 318.99965 345.00013 L 334.999707 345.00013 L 351.499992 334.999707 L 367.500049 332.999829 L 383.500106 328.499845 L 399.500163 326.499967 " transform="matrix(3.779528,0,0,3.779528,0,0)"/>
<path style="fill:none;stroke-width:2;stroke-linecap:butt;stroke-linejoin:miter;stroke:rgb(0%,0%,0%);stroke-opacity:1;stroke-miterlimit:4;" d="M 436.500488 211.000041 L 420.000203 211.500269 L 404.000146 216.000252 L 388.00009 212.000496 L 382.000456 216.50048 L 373.99991 212.499691 L 361.999609 212.000496 L 357.999854 196.000439 L 359.999731 179.500155 L 361.999609 163.500098 L 355.999976 148.000269 L 325.499512 131.499984 L 295.500309 131.499984 L 273.499585 115.499927 L 241.999699 99.49987 L 198.000317 83.499813 " transform="matrix(3.779528,0,0,3.779528,0,0)"/>
<path style="fill:none;stroke-width:2;stroke-linecap:butt;stroke-linejoin:miter;stroke:rgb(0%,0%,0%);stroke-opacity:1;stroke-miterlimit:4;" d="M 189.499544 80.999707 L 215.500024 96.999764 L 243.500382 112.999821 L 269.499829 129.500106 L 268.000179 148.000269 L 275.999691 142.499829 L 291.999748 148.500496 L 307.999805 146.499585 L 323.999862 156.500008 L 330.499723 150.500374 L 339.000496 168.500309 L 354.99952 170.500187 L 374.500138 168.500309 L 378.499894 158.499886 L 394.499951 170.500187 " transform="matrix(3.779528,0,0,3.779528,0,0)"/>
<path style="fill:none;stroke-width:2;stroke-linecap:butt;stroke-linejoin:miter;stroke:rgb(0%,0%,0%);stroke-opacity:1;stroke-miterlimit:4;" d="M 182.00026 87.000374 L 152.000024 103.499626 " transform="matrix(3.779528,0,0,3.779528,0,0)"/>
<path style="fill:none;stroke-width:2;stroke-linecap:butt;stroke-linejoin:miter;stroke:rgb(0%,0%,0%);stroke-opacity:1;stroke-miterlimit:4;" d="M 178.999927 84.000041 L 145.500163 100.000098 L 110.999943 115.499927 L 97.499992 127.500228 L 73.500423 133.499862 L 53.999805 149.499919 L 39.999626 165.499976 L 38.499976 178.000505 L 52.500155 186.000016 L 53.000382 202.500301 L 25.000024 242.499927 L 30.999658 248.499561 L 30.999658 264.000423 L 26.999902 280.00048 L 26.999902 295.500309 L 28.99978 311.999561 L 37.000326 325.99974 L 53.000382 326.499967 L 69.499634 328.499845 L 85.499691 330.499723 L 100.99952 332.499601 L 116.999577 334.500513 L 132.500439 320.000106 L 148.000269 321.999984 L 162.000448 315.500122 L 177.500277 319.499878 L 201.499845 325.499512 L 215.500024 321.499756 L 231.500081 320.999528 " transform="matrix(3.779528,0,0,3.779528,0,0)"/>
<path style="fill:none;stroke-width:2;stroke-linecap:butt;stroke-linejoin:miter;stroke:rgb(0%,0%,0%);stroke-opacity:1;stroke-miterlimit:4;" d="M 454.000195 214.499569 L 438.000138 194.499756 L 421.499854 178.000505 L 389.49974 150.000146 L 373.499683 137.499618 L 357.999854 127.500228 L 341.499569 119.499683 L 325.499512 111.500171 L 301.499943 103.499626 L 285.499886 99.49987 L 269.499829 94.999886 L 253.499772 91.500358 L 237.499715 87.999797 L 221.999886 84.000041 L 205.999829 78.499601 L 189.999772 71.99974 L 173.999715 82.000163 L 157.999658 89.999674 L 141.500407 96.000342 L 125.999544 103.999854 L 109.500293 112.000399 L 93.500236 120.500138 L 77.500179 128.49965 L 61.500122 137.000423 L 46.000293 143.000057 L 30.000236 164.49952 L 14.000179 190.5 L 5.999634 200.000195 L 17.999935 184.000138 L 28.000358 167.499854 L 37.999748 151.499797 L 57.999561 134.999512 L 91.500358 119.499683 L 125.50035 103.499626 L 160.999992 87.499569 L 187.000472 71.499512 " transform="matrix(3.779528,0,0,3.779528,0,0)"/>
</g>
</svg>
