<svg xmlns="http://www.w3.org/2000/svg" width="512mm" height="512mm" viewBox="0 0 512 512" version="1.1"><polyline points="235.5,66.5,227.5,82.5,239.5,102.5,235.5,120.5,235.5,137.0,235.5,153.0,235.5,169.0,235.5,185.0,235.0,201.0,233.0,216.5,228.5,232.5,223.0,248.5,215.0,264.5,205.0,280.5,193.5,296.0,183.5,311.5,175.5,327.0,167.5,343.0,171.5,347.0,167.5,364.5,174.0,380.5,182.0,396.5,186.5,412.5,216.5,423.0,210.5,425.0,226.5,431.0,242.5,435.0" stroke="black" stroke-width="2" fill="none" />
<polyline points="276.5,436.5,292.5,430.5,308.5,420.0,298.5,436.0" stroke="black" stroke-width="2" fill="none" />
<polyline points="323.5,427.5,355.5,443.5" stroke="black" stroke-width="2" fill="none" />
<polyline points="327.0,378.5,343.0,406.5,358.5,419.0,374.5,429.0,390.0,431.5,405.5,427.5,421.5,419.5,438.0,409.5,454.0,401.5,470.0,393.5" stroke="black" stroke-width="2" fill="none" />
<polyline points="488.0,385.0,472.0,412.5,456.5,429.0,440.5,441.5,424.5,443.0,408.5,443.0,393.0,443.5,377.0,445.5,360.5,443.0,344.5,439.0,328.5,429.0,312.0,429.0,296.0,441.5,279.5,444.0,263.0,443.5,247.5,443.5,231.5,441.5,216.0,437.0,200.0,425.0,184.0,427.0,178.0,421.0,170.0,439.0,188.0,423.0,188.0,403.5,172.0,375.5" stroke="black" stroke-width="2" fill="none" />
<polyline points="175.5,371.5,185.5,379.5,193.5,395.5,209.5,412.0" stroke="black" stroke-width="2" fill="none" />
<polyline points="208.0,393.5,192.5,375.0" stroke="black" stroke-width="2" fill="none" />
<polyline points="190.0,388.5,206.0,408.0" stroke="black" stroke-width="2" fill="none" />
<polyline points="203.0,421.5,189.0,405.5,165.0,373.5" stroke="black" stroke-width="2" fill="none" />
<polyline points="179.5,337.0,195.5,307.0,211.5,283.0,227.5,261.5" stroke="black" stroke-width="2" fill="none" />
<polyline points="221.5,282.5,205.5,300.0,189.5,338.0" stroke="black" stroke-width="2" fill="none" />
<polyline points="165.0,322.0,179.0,310.0,167.0,294.5,150.5,278.5,140.5,263.0,138.0,247.0,134.0,231.0,136.0,215.0,136.0,198.5,136.0,182.5,134.0,166.0,136.5,150.0,136.5,134.0,126.5,116.0,110.5,116.0,95.0,113.5,91.0,119.5" stroke="black" stroke-width="2" fill="none" />
<polyline points="103.0,120.5,119.0,120.0,135.0,122.0,157.0,121.5" stroke="black" stroke-width="2" fill="none" />
<polyline points="123.5,110.0,107.5,110.0" stroke="black" stroke-width="2" fill="none" />
<polyline points="83.0,98.5,67.0,102.5" stroke="black" stroke-width="2" fill="none" />
<polyline points="69.0,120.5,85.0,126.5,99.0,146.5,99.0,162.0,99.0,178.0,99.0,193.5,97.0,210.0,99.0,226.0,97.0,242.5,93.5,258.5,85.5,274.5,73.0,290.5,67.0,306.5,58.5,322.0,56.0,338.0" stroke="black" stroke-width="2" fill="none" />
<polyline points="54.5,326.5,71.0,296.5,73.0,304.5,65.0,320.5,61.5,336.0,61.5,351.5,59.5,367.0,63.5,383.0,55.5,399.0,63.5,414.5,94.0,414.5" stroke="black" stroke-width="2" fill="none" />
<polyline points="118.5,435.0,103.0,436.5,87.0,434.5,71.5,440.5,51.5,424.5,37.5,408.5,29.5,392.5,25.5,377.0,23.5,361.0,25.0,345.0,31.0,329.0,39.0,313.0,53.0,297.0,67.0,281.0,78.5,265.5,82.5,249.0,84.5,233.0,82.5,217.0,82.5,201.0,82.5,184.5,84.5,168.5,83.0,152.5,85.0,136.0,67.0,120.0,67.0,104.0,83.0,88.0,84.5,72.0,91.0,75.5" stroke="black" stroke-width="2" fill="none" />
<polyline points="91.5,73.0,89.5,89.0,87.5,107.0,103.5,109.5,120.0,106.0" stroke="black" stroke-width="2" fill="none" />
<polyline points="137.0,89.5,135.5,76.0,120.0,74.0,104.0,74.0" stroke="black" stroke-width="2" fill="none" />
<polyline points="103.0,76.0,103.5,92.0,101.0,119.5,101.5,135.5,101.5,151.5,102.0,167.5,102.0,183.5,102.5,200.0,102.5,216.0,103.0,232.5,101.0,248.5" stroke="black" stroke-width="2" fill="none" />
<polyline points="141.0,256.0,157.0,282.0,173.0,299.5" stroke="black" stroke-width="2" fill="none" />
<polyline points="180.5,299.5,166.5,283.5,151.0,268.0,145.0,252.5,145.0,236.5,145.5,220.5,145.5,204.5,145.5,188.5,145.0,172.5,145.0,156.5,145.0,140.5,144.5,124.5,162.5,110.5,158.5,100.5,145.0,98.5,145.0,82.5,135.0,66.5,131.0,64.0,115.0,63.5,99.0,65.5,83.0,76.0" stroke="black" stroke-width="2" fill="none" />
<polyline points="107.0,71.5,97.0,87.5,93.5,103.5,89.5,125.5,90.0,141.0,88.0,157.5,88.0,173.5,88.0,190.0,88.0,206.0,88.0,222.5,90.0,238.5,86.0,255.0,79.5,271.0,67.5,286.5,53.5,302.5,41.5,318.0,34.0,334.0,29.5,350.0,30.0,366.0,32.0,382.0,36.0,398.0,50.0,414.5,74.0,430.0" stroke="black" stroke-width="2" fill="none" />
<polyline points="72.0,417.5,59.5,411.5,43.5,407.5" stroke="black" stroke-width="2" fill="none" />
<polyline points="36.0,395.5,52.5,401.5,68.5,409.5,84.5,416.0,100.5,422.0,116.5,424.0" stroke="black" stroke-width="2" fill="none" />
<polyline points="62.0,397.5,48.5,393.5,32.5,377.0" stroke="black" stroke-width="2" fill="none" />
<polyline points="26.5,391.5,42.5,415.5,59.5,431.5,76.0,441.5,92.0,443.5,108.0,444.0,124.0,444.0,140.5,443.5,156.5,441.5" stroke="black" stroke-width="2" fill="none" />
<polyline points="173.5,418.5,157.5,432.5,141.5,436.5,179.5,420.5" stroke="black" stroke-width="2" fill="none" />
<polyline points="195.0,424.0,217.0,439.5" stroke="black" stroke-width="2" fill="none" />
<polyline points="298.5,406.5,302.5,390.0,298.5,373.5,300.5,357.0,306.0,340.5,316.5,324.5,328.5,309.0,328.0,295.0,314.0,279.0,303.5,263.0,295.0,247.0,289.5,231.0,287.5,215.0,287.5,199.5,288.0,183.5,287.5,168.0,287.5,152.0,287.5,136.0,287.5,120.5,303.5,108.5,287.5,92.5,287.0,76.5,267.0,74.5,251.5,74.0,235.5,74.0" stroke="black" stroke-width="2" fill="none" />
<polyline points="227.5,74.0,243.0,64.0,259.0,63.5,275.0,65.5,281.0,67.5,280.5,83.5,290.5,95.5" stroke="black" stroke-width="2" fill="none" />
<polyline points="279.0,113.5,263.0,113.5,247.0,113.5,227.5,116.0,212.0,114.0" stroke="black" stroke-width="2" fill="none" />
<polyline points="209.5,96.0,225.5,94.5,235.5,83.0,237.5,103.5,253.0,98.0,269.0,98.5" stroke="black" stroke-width="2" fill="none" />
<polyline points="280.5,117.0,280.5,132.5" stroke="black" stroke-width="2" fill="none" />
<polyline points="251.5,117.5,251.5,133.5,249.5,149.5" stroke="black" stroke-width="2" fill="none" />
<polyline points="249.5,182.5,249.5,198.5,249.0,214.5,245.0,230.5,232.5,264.0" stroke="black" stroke-width="2" fill="none" />
<polyline points="211.0,263.0,195.0,287.0,179.0,295.0,163.0,279.5,147.0,254.0" stroke="black" stroke-width="2" fill="none" />
<polyline points="90.0,262.5,74.0,286.5" stroke="black" stroke-width="2" fill="none" />
<polyline points="77.0,265.5,61.0,285.5,45.0,303.5,29.0,331.0,45.0,322.5,38.5,334.5" stroke="black" stroke-width="2" fill="none" />
<polyline points="31.5,337.0,47.5,309.0,63.5,291.5,79.5,269.5" stroke="black" stroke-width="2" fill="none" />
<polyline points="71.0,318.5,72.5,334.5,72.5,350.0,68.5,366.0" stroke="black" stroke-width="2" fill="none" />
<polyline points="62.0,326.5,74.0,311.0,75.5,327.0,75.5,342.5,75.5,358.5,69.5,374.0,68.0,390.0,67.5,406.0,84.0,412.0,100.0,416.0,116.0,418.0,132.0,416.5,148.0,410.0,163.5,404.0,183.5,411.5,209.5,419.0,223.5,425.5" stroke="black" stroke-width="2" fill="none" />
<polyline points="299.5,356.0,315.5,334.0,322.0,340.0,342.0,332.0,346.0,322.5,362.0,306.5,378.0,294.5,392.5,278.0,404.5,274.0,420.5,271.5,436.0,294.0,452.0,308.0" stroke="black" stroke-width="2" fill="none" />
<polyline points="434.5,287.0,450.5,296.5,467.0,308.5,483.5,330.5" stroke="black" stroke-width="2" fill="none" />
<polyline points="439.5,325.5,431.5,309.5,431.5,301.5,415.5,298.0" stroke="black" stroke-width="2" fill="none" />
<polyline points="402.0,301.0,418.0,305.0,434.5,321.0" stroke="black" stroke-width="2" fill="none" />
<polyline points="398.5,299.0,414.5,297.0,422.5,303.0,430.5,319.5,447.0,327.0,463.0,327.0,479.0,343.0,483.0,359.0,483.0,375.0,477.5,391.0,447.5,407.0,419.5,422.5,417.5,432.5,431.5,434.5,447.5,424.5,463.0,412.5,451.0,410.5,426.5,425.0,442.5,415.5,446.0,419.5,459.5,417.5,437.5,433.5" stroke="black" stroke-width="2" fill="none" />
<polyline points="440.0,427.0,454.0,411.0" stroke="black" stroke-width="2" fill="none" />
<polyline points="481.5,352.5,465.5,332.5,450.0,332.5,434.5,334.0,418.5,333.5,402.5,333.5,386.5,333.5,370.5,333.5,355.0,334.0,343.0,368.5,347.0,352.5,351.5,336.5,371.5,308.5,389.5,292.5,389.0,292.5,373.0,306.5,357.0,320.5" stroke="black" stroke-width="2" fill="none" />
<polyline points="353.0,323.0,369.0,327.0,385.0,327.0,400.5,324.5,416.0,324.0,432.0,326.0" stroke="black" stroke-width="2" fill="none" />
<polyline points="422.0,265.5,406.0,263.5" stroke="black" stroke-width="2" fill="none" />
<polyline points="439.5,153.5,424.0,157.5,408.0,160.0,392.5,162.0,377.0,162.5,361.0,162.5,345.5,158.5" stroke="black" stroke-width="2" fill="none" />
<polyline points="346.5,156.5,371.0,172.5,381.0,190.5,385.0,216.0" stroke="black" stroke-width="2" fill="none" />
<polyline points="354.5,184.0,338.5,164.0" stroke="black" stroke-width="2" fill="none" />
<polyline points="339.0,154.5,361.0,170.5,375.0,186.0,379.0,201.5,381.0,217.5" stroke="black" stroke-width="2" fill="none" />
<polyline points="332.0,156.5,348.0,164.5,364.5,168.5,380.5,165.0,396.5,167.0,416.5,165.0,432.5,159.0,440.5,167.5,454.5,159.5" stroke="black" stroke-width="2" fill="none" />
<polyline points="416.0,146.0,423.5,162.0,406.0,178.5,402.0,194.5,400.5,210.0,398.5,225.5,399.0,242.0" stroke="black" stroke-width="2" fill="none" />
<polyline points="456.0,300.5,434.0,284.5,433.5,268.0,433.5,252.0,433.5,236.0,433.5,219.5,436.0,203.5,439.5,187.5,445.5,171.5,457.5,155.5,431.5,147.5,415.5,145.0,399.5,143.5,383.5,146.0,368.0,148.0,352.0,150.5,336.0,152.0" stroke="black" stroke-width="2" fill="none" />
<polyline points="335.5,152.5,347.5,168.5,359.5,184.5,367.5,200.5,371.5,216.5,373.5,232.0,372.0,248.0,372.0,264.0,372.5,280.0,358.5,296.0,337.0,311.5,327.0,327.5,309.0,347.5,304.5,363.5,304.0,379.0,310.0,395.0,320.0,411.0,336.0,427.5,348.0,434.0,364.0,438.5,380.0,436.5" stroke="black" stroke-width="2" fill="none" />
<polyline points="468.0,429.5,477.5,419.0,461.5,435.0,441.5,440.5,464.0,424.0,478.0,408.0,486.0,392.0,489.5,375.5,489.5,359.5,487.5,343.5,480.0,327.0,469.5,323.0,449.0,307.0,429.5,291.0,426.0,275.5,428.0,253.5,428.0,237.5,427.5,221.5,427.5,205.5,431.5,189.5,437.5,173.5,449.5,157.5,458.0,149.5,442.5,141.5,426.5,139.5,410.5,135.5,394.5,135.5,378.0,135.5,361.5,138.0,345.5,142.0,329.5,150.0" stroke="black" stroke-width="2" fill="none" />
<polyline points="343.0,143.0,330.5,159.0,347.0,175.0,356.5,191.0,362.5,206.5,366.0,222.5,364.5,238.5,365.0,254.0,365.5,270.0,363.5,285.5,343.5,312.0,321.5,332.0,331.5,334.0,327.0,350.0,322.5,365.5,326.0,382.0,333.5,398.0,347.5,414.5,373.0,431.0" stroke="black" stroke-width="2" fill="none" />
<polyline points="375.5,434.5,359.5,428.5,343.5,416.0,327.5,397.0,311.5,367.0" stroke="black" stroke-width="2" fill="none" />
<polyline points="307.0,335.5,323.0,313.5,333.0,314.0,349.5,302.5,366.0,290.5" stroke="black" stroke-width="2" fill="none" />
<polyline points="355.5,290.0,339.5,299.5,324.0,289.5,308.0,267.0,292.0,235.0" stroke="black" stroke-width="2" fill="none" />
<polyline points="286.0,235.5,302.0,269.5,318.0,291.5" stroke="black" stroke-width="2" fill="none" />
<polyline points="222.5,288.5,216.5,304.5,216.5,320.5,214.5,336.5,214.5,352.5,214.5,368.5,213.0,384.5,212.5,406.0,228.5,414.0,244.5,415.5,260.5,417.0,276.0,413.5,292.0,409.5,312.0,398.0,328.5,420.0,342.5,424.5" stroke="black" stroke-width="2" fill="none" />
<polyline points="210.5,402.5,216.5,386.5,220.5,370.5,218.5,354.5,218.5,338.5,220.5,322.5" stroke="black" stroke-width="2" fill="none" />
<polyline points="222.5,283.5,208.0,299.5,200.0,315.5,194.0,331.0,188.0,347.0,188.5,362.5,178.5,368.5,190.0,372.5,196.0,388.5,210.0,410.5,226.0,418.5,242.0,422.0" stroke="black" stroke-width="2" fill="none" />
<polyline points="362.0,431.5,338.0,423.0,332.0,409.0,321.5,392.5,313.5,376.5,309.5,358.0,319.5,350.0,303.5,332.0,315.0,316.5,321.0,300.5,309.5,284.5,298.0,268.5,290.0,252.5,284.0,236.5,282.0,220.0,280.0,204.0,280.0,188.0" stroke="black" stroke-width="2" fill="none" />
<polyline points="246.0,114.5,245.5,130.0,245.5,145.5,245.5,161.5,246.0,178.0,246.0,194.0,246.0,210.0,242.0,226.0,238.5,242.0,230.5,257.5,221.0,273.5,209.0,289.5,198.5,306.0,190.5,322.0,180.5,338.0,172.5,334.0,188.0,306.0,204.0,284.5,220.0,256.5" stroke="black" stroke-width="2" fill="none" />
<polyline points="212.0,95.5,210.0,111.5,230.0,124.0,230.0,140.0,230.0,155.5,230.5,171.5,230.0,187.5,230.0,203.5,228.0,219.5,224.5,235.5,217.0,251.5,208.5,268.0,197.0,284.0,187.0,300.0,171.0,326.0,165.0,342.0,161.0,358.5,164.5,374.5,168.5,390.5,158.5,407.0" stroke="black" stroke-width="2" fill="none" />
<polyline points="338.5,394.0,336.0,378.0,338.5,362.0,342.5,345.5,347.0,321.5,363.0,306.0,383.0,290.0,381.0,286.0,390.5,270.0,396.5,254.0,394.5,237.5,394.5,221.5,396.5,206.0,401.0,190.0,405.0,174.0,409.0,160.5,415.0,144.5" stroke="black" stroke-width="2" fill="none" />
<polyline points="278.0,101.5,262.0,101.5,252.0,91.5,250.0,75.0" stroke="black" stroke-width="2" fill="none" />
<polyline points="246.0,75.5,246.0,91.5,249.5,107.5,265.5,107.5,281.5,107.5,298.0,116.0" stroke="black" stroke-width="2" fill="none" />
</svg>