<svg xmlns="http://www.w3.org/2000/svg" width="512mm" height="512mm" viewBox="0 0 512 512" version="1.1"><polyline points="139.5,2.5,105.5,18.5,81.5,34.5,63.5,50.5,47.5,67.0,35.5,83.0,25.5,99.0,15.5,115.0,3.0,131.0,13.0,136.5,14.5,114.5,31.0,88.5,47.0,66.5,63.0,50.5,79.5,36.0,95.5,23.5,111.5,13.0,127.5,7.0" stroke="black" stroke-width="2" fill="none" />
<polyline points="135.5,24.0,151.5,17.5,117.5,17.5,91.5,33.5,75.5,51.5,53.0,67.5,39.5,87.5,30.0,103.0,20.0,119.5,6.0,135.5,22.0,116.0,38.0,90.0,56.5,66.0,70.5,58.0,80.5,50.0,84.5,58.5,98.5,42.0,106.5,36.0" stroke="black" stroke-width="2" fill="none" />
<polyline points="84.0,38.5,100.0,26.5,118.5,16.5,134.5,9.0,150.5,3.0" stroke="black" stroke-width="2" fill="none" />
<polyline points="168.0,27.0,168.0,23.0,184.5,23.0" stroke="black" stroke-width="2" fill="none" />
<polyline points="182.0,17.5,166.0,17.5,149.5,29.5,141.5,53.5,128.0,47.5,112.5,61.0,96.5,83.0,81.0,106.5,65.0,128.5" stroke="black" stroke-width="2" fill="none" />
<polyline points="67.5,153.5,43.5,169.5,58.0,161.5,86.0,152.0" stroke="black" stroke-width="2" fill="none" />
<polyline points="98.5,142.5,82.0,142.5,65.5,144.5,49.5,146.5,28.0,140.0,12.0,142.5" stroke="black" stroke-width="2" fill="none" />
<polyline points="1.5,149.5,17.5,145.5,33.5,143.5,49.5,140.0,65.0,120.5,81.0,96.5,97.0,73.0,113.5,53.0,129.5,37.0,146.0,26.5,160.0,16.5,138.0,32.5,118.0,48.5,104.0,64.0,91.5,79.5,81.5,95.5,71.5,111.0,59.5,127.0,40.0,149.0,32.0,165.0,24.0,181.0,22.0,197.0,21.5,212.5,17.5,228.5,10.0,245.0,4.0,261.0,8.0,269.0,25.5,271.5,40.0,255.5,54.0,247.5,70.0,245.5,70.0,239.5,86.0,230.0,102.0,226.0,118.0,226.5,134.0,234.5,150.0,234.5" stroke="black" stroke-width="2" fill="none" />
<polyline points="146.5,243.0,166.5,259.5,190.0,283.5,186.0,299.5" stroke="black" stroke-width="2" fill="none" />
<polyline points="200.0,316.0,216.0,356.0,238.0,356.0,248.0,372.0,266.0,388.0,269.5,406.0,264.0,422.0,258.0,437.5,250.0,453.5,240.5,469.0,224.5,485.0,226.0,501.0" stroke="black" stroke-width="2" fill="none" />
<polyline points="220.0,500.0,218.0,484.0,232.0,468.5,246.0,452.5,252.0,436.0,258.0,419.5,263.5,403.5,272.0,387.5,278.5,372.0,276.5,354.0,264.5,338.5,246.5,308.5,264.0,308.5,278.0,292.5,299.5,290.5,283.5,298.0,267.5,316.0" stroke="black" stroke-width="2" fill="none" />
<polyline points="273.0,325.5,262.5,331.5,246.5,323.5" stroke="black" stroke-width="2" fill="none" />
<polyline points="242.5,307.5,246.5,320.0,262.0,310.0,277.5,291.5,293.5,283.5" stroke="black" stroke-width="2" fill="none" />
<polyline points="296.0,290.5,276.0,307.0,269.5,323.0,259.5,336.5,275.5,342.5,297.5,304.0" stroke="black" stroke-width="2" fill="none" />
<polyline points="303.0,292.5,299.0,308.5,290.5,324.5,286.5,340.5,282.5,356.5,272.5,374.5,268.5,380.0" stroke="black" stroke-width="2" fill="none" />
<polyline points="259.5,388.5,244.0,373.0,244.0,359.0" stroke="black" stroke-width="2" fill="none" />
<polyline points="238.0,356.0,254.0,354.0,254.5,370.0" stroke="black" stroke-width="2" fill="none" />
<polyline points="254.5,378.5,239.0,372.5" stroke="black" stroke-width="2" fill="none" />
<polyline points="235.5,378.0,235.5,394.0" stroke="black" stroke-width="2" fill="none" />
<polyline points="247.0,395.5,231.0,389.5,222.5,373.5,218.5,361.5,233.0,355.5,239.0,339.5,243.0,323.5,237.0,307.5,255.0,291.5,253.0,275.5,250.5,259.5,248.5,243.5,246.5,227.5,244.5,212.0,240.0,196.5,238.0,181.0,236.0,165.0,233.5,149.0,231.5,133.0,217.5,128.5,201.5,151.0" stroke="black" stroke-width="2" fill="none" />
<polyline points="176.5,153.5,178.5,149.5,172.5,166.0" stroke="black" stroke-width="2" fill="none" />
<polyline points="176.0,161.0,192.5,148.5,189.0,159.0,179.0,159.0,199.5,167.0,216.0,173.5,204.5,195.0,204.5,217.0" stroke="black" stroke-width="2" fill="none" />
<polyline points="204.0,192.0,220.0,190.0" stroke="black" stroke-width="2" fill="none" />
<polyline points="198.0,236.0,182.0,226.5,166.0,222.5,150.0,214.5" stroke="black" stroke-width="2" fill="none" />
<polyline points="138.5,202.5,160.5,214.0,186.5,229.5" stroke="black" stroke-width="2" fill="none" />
<polyline points="181.0,267.0,195.0,295.5,197.0,311.5,197.5,327.5,210.0,356.0" stroke="black" stroke-width="2" fill="none" />
<polyline points="221.5,373.0,237.5,377.0,254.0,391.0" stroke="black" stroke-width="2" fill="none" />
<polyline points="229.5,400.0,206.0,412.0,200.0,410.5,189.5,409.0,197.5,393.0,184.0,391.0,168.0,394.5" stroke="black" stroke-width="2" fill="none" />
<polyline points="199.0,404.0,213.0,392.0,219.5,397.5,221.5,414.0,217.5,430.0" stroke="black" stroke-width="2" fill="none" />
<polyline points="250.0,442.0,234.5,468.0,218.5,473.5" stroke="black" stroke-width="2" fill="none" />
<polyline points="224.0,478.5,240.0,470.5,256.0,442.0" stroke="black" stroke-width="2" fill="none" />
<polyline points="236.0,385.5,220.0,383.5,200.0,374.0,184.5,384.0,168.5,390.0,186.5,382.0,206.5,366.0,208.0,352.0,207.5,338.0,203.5,330.0,189.5,316.0,191.5,300.0,181.5,291.5,155.0,282.0,149.0,286.0,169.0,272.0,169.5,249.5,171.5,225.5,137.5,210.0,118.0,198.0,102.0,196.0,86.0,195.5,70.0,197.5,54.0,199.5,38.0,201.5" stroke="black" stroke-width="2" fill="none" />
<polyline points="28.5,196.5,34.5,214.5,24.5,230.0,16.5,246.0,14.5,264.0,32.5,280.0,28.0,300.0,28.0,299.5,44.0,287.5,46.0,272.0,62.0,262.0,78.0,256.0,94.0,252.0,110.0,252.0,122.0,268.0,137.5,268.0,154.0,264.0,164.0,273.5,174.0,255.5,190.5,253.0,206.5,243.0" stroke="black" stroke-width="2" fill="none" />
<polyline points="167.0,252.5,150.5,246.5,134.5,237.0" stroke="black" stroke-width="2" fill="none" />
<polyline points="123.5,227.0,135.5,243.0,163.5,245.5,157.5,265.5" stroke="black" stroke-width="2" fill="none" />
<polyline points="154.0,268.0,138.5,274.0,123.0,286.5,107.0,290.5,91.5,294.5" stroke="black" stroke-width="2" fill="none" />
<polyline points="97.0,295.0,113.0,297.0,129.0,297.0,144.5,300.5,160.0,300.0,164.0,308.0" stroke="black" stroke-width="2" fill="none" />
<polyline points="172.5,319.5,156.5,313.0,140.5,307.0,124.5,299.0" stroke="black" stroke-width="2" fill="none" />
<polyline points="121.0,300.5,137.0,310.5,153.0,316.5,169.5,322.5" stroke="black" stroke-width="2" fill="none" />
<polyline points="178.0,345.0,162.0,347.0,146.0,343.5,130.0,337.5" stroke="black" stroke-width="2" fill="none" />
<polyline points="128.0,335.0,144.0,339.0,160.5,343.0,176.5,342.5" stroke="black" stroke-width="2" fill="none" />
<polyline points="176.0,369.5,159.5,370.0,143.0,363.5" stroke="black" stroke-width="2" fill="none" />
<polyline points="143.0,360.0,159.0,363.5,175.0,365.5,191.0,357.5,171.0,371.5" stroke="black" stroke-width="2" fill="none" />
<polyline points="217.0,382.0,201.0,398.0,193.0,401.5,204.5,389.5,220.5,388.0,226.0,386.0,242.5,398.0" stroke="black" stroke-width="2" fill="none" />
<polyline points="222.0,391.5,226.0,407.5,230.0,423.0,222.0,451.0,224.0,447.0" stroke="black" stroke-width="2" fill="none" />
<polyline points="149.5,472.5,147.5,474.5,127.5,476.5,155.5,464.5,139.5,472.5,109.5,477.0,86.0,461.0,58.5,441.0,76.5,440.5,76.5,426.0,60.0,434.0,44.0,437.5,28.0,439.5,12.5,439.0" stroke="black" stroke-width="2" fill="none" />
<polyline points="19.5,434.0,35.0,430.0,51.0,425.5,67.0,423.5" stroke="black" stroke-width="2" fill="none" />
<polyline points="76.0,402.0,59.5,406.0,43.5,406.0" stroke="black" stroke-width="2" fill="none" />
<polyline points="42.0,401.0,58.0,399.0,74.0,397.5" stroke="black" stroke-width="2" fill="none" />
<polyline points="67.5,389.0,51.5,393.0" stroke="black" stroke-width="2" fill="none" />
<polyline points="51.0,389.5,67.0,385.5" stroke="black" stroke-width="2" fill="none" />
<polyline points="21.0,370.5,15.0,386.0,15.0,402.0,15.0,417.5,12.5,433.5,10.0,453.5,10.0,469.5,9.5,485.5,11.5,501.5" stroke="black" stroke-width="2" fill="none" />
<polyline points="9.5,448.0,25.5,446.0,41.5,444.5,57.5,440.5,74.0,435.0,60.0,435.0" stroke="black" stroke-width="2" fill="none" />
<polyline points="65.5,454.0,67.5,450.0,93.5,462.0,124.0,477.5" stroke="black" stroke-width="2" fill="none" />
<polyline points="120.5,479.5,104.5,472.0,88.5,462.0" stroke="black" stroke-width="2" fill="none" />
<polyline points="86.0,458.0,102.0,466.5,118.0,472.0" stroke="black" stroke-width="2" fill="none" />
<polyline points="6.0,501.0,4.0,485.0,4.0,468.5,4.0,452.0,3.5,435.5,9.5,419.5,5.5,403.5,7.5,387.0,13.5,371.0,9.5,361.0" stroke="black" stroke-width="2" fill="none" />
<polyline points="36.5,320.5,21.0,338.5,17.0,366.5,5.0,370.5,7.0,354.0,21.0,337.5,35.0,321.5,43.0,306.0" stroke="black" stroke-width="2" fill="none" />
<polyline points="38.0,306.5,26.0,322.5,10.0,338.0,6.0,344.0,22.0,325.5,38.5,309.0" stroke="black" stroke-width="2" fill="none" />
<polyline points="16.0,250.0,31.5,248.0,47.0,239.5,63.0,229.5,79.0,225.5,95.0,222.0,111.0,220.0,127.0,220.0,143.5,224.0,159.5,230.0,175.5,234.0" stroke="black" stroke-width="2" fill="none" />
<polyline points="184.5,236.5,166.0,217.0,150.5,211.0,134.5,209.0,125.0,207.0,109.0,203.0,93.0,202.5,77.0,202.0,61.5,203.5,45.5,205.0,29.5,216.5,13.5,246.0" stroke="black" stroke-width="2" fill="none" />
<polyline points="27.5,186.0,31.5,166.0" stroke="black" stroke-width="2" fill="none" />
<polyline points="80.5,223.5,44.5,239.5,33.5,263.5,48.0,263.5,64.0,253.5,80.0,248.0,96.0,246.0,112.5,245.5,128.5,241.5,134.0,249.0,150.0,253.0,166.0,267.0,190.0,295.5" stroke="black" stroke-width="2" fill="none" />
<polyline points="240.0,298.5,240.0,306.0" stroke="black" stroke-width="2" fill="none" />
<polyline points="244.5,341.0,260.5,351.5" stroke="black" stroke-width="2" fill="none" />
<polyline points="242.0,366.0,252.0,382.0" stroke="black" stroke-width="2" fill="none" />
<polyline points="276.0,269.5,278.0,265.5" stroke="black" stroke-width="2" fill="none" />
<polyline points="175.0,314.5,135.0,298.5" stroke="black" stroke-width="2" fill="none" />
<polyline points="118.5,260.5,105.0,268.5" stroke="black" stroke-width="2" fill="none" />
<polyline points="81.5,253.5,49.5,269.5,42.0,293.5,20.0,309.5,34.0,301.5,42.0,305.5" stroke="black" stroke-width="2" fill="none" />
<polyline points="54.5,259.5,86.0,245.5" stroke="black" stroke-width="2" fill="none" />
<polyline points="142.5,250.5,137.0,266.5,125.0,283.0,127.0,305.5,139.0,305.5" stroke="black" stroke-width="2" fill="none" />
<polyline points="127.0,138.0,113.0,149.5,121.5,147.5,138.0,137.5,154.5,135.5" stroke="black" stroke-width="2" fill="none" />
<polyline points="184.0,111.5,199.5,109.5" stroke="black" stroke-width="2" fill="none" />
<polyline points="211.0,110.0,208.5,94.0,206.5,77.5,212.0,76.0,208.0,82.0" stroke="black" stroke-width="2" fill="none" />
<polyline points="221.5,81.5,237.5,81.5,253.5,69.5,269.5,65.5,238.0,81.5,258.0,81.5" stroke="black" stroke-width="2" fill="none" />
<polyline points="284.0,68.0,266.0,80.5,264.0,101.0,259.5,105.0,244.0,113.0,236.5,88.5,236.5,94.0,252.0,91.5,268.0,75.5,274.5,59.0,255.0,51.5,245.0,43.5,238.5,41.5,230.5,35.5" stroke="black" stroke-width="2" fill="none" />
<polyline points="240.0,35.0,256.0,34.5" stroke="black" stroke-width="2" fill="none" />
<polyline points="231.5,19.0,247.5,22.5,285.5,32.5,311.5,48.5,335.5,64.5,357.0,80.5,363.0,96.5,366.5,113.0" stroke="black" stroke-width="2" fill="none" />
<polyline points="380.5,84.0,396.5,52.0,412.0,30.0" stroke="black" stroke-width="2" fill="none" />
<polyline points="394.0,17.0,378.5,9.0" stroke="black" stroke-width="2" fill="none" />
<polyline points="378.0,1.5,402.0,17.5,410.0,34.0,398.0,50.0,388.0,65.5,382.5,81.5,380.0,97.5,380.0,115.5" stroke="black" stroke-width="2" fill="none" />
<polyline points="381.0,121.5,365.5,123.5,349.5,121.5,334.0,119.0,318.5,119.0,302.5,119.0,286.5,121.0,270.5,121.5,254.5,123.5,238.5,123.5" stroke="black" stroke-width="2" fill="none" />
<polyline points="235.5,128.5,239.5,144.5,241.5,160.5,243.5,176.5,245.5,192.0,250.0,208.0,251.5,224.0,253.5,240.0,255.5,256.0,257.5,272.0,269.5,276.0,267.5,286.0,283.0,284.5" stroke="black" stroke-width="2" fill="none" />
<polyline points="447.0,382.0,451.0,397.5,457.0,413.0,461.0,429.0,463.0,445.0,470.5,447.0" stroke="black" stroke-width="2" fill="none" />
<polyline points="506.5,414.0,490.5,374.0" stroke="black" stroke-width="2" fill="none" />
<polyline points="451.0,381.5,457.0,397.5,461.0,413.5,464.5,429.5,468.0,445.0" stroke="black" stroke-width="2" fill="none" />
<polyline points="455.0,407.5,450.5,381.5" stroke="black" stroke-width="2" fill="none" />
<polyline points="491.0,333.5,492.5,350.0,497.0,366.0,487.0,380.0,493.0,396.0,501.0,412.0,503.0,428.5,506.5,444.5,510.5,454.5" stroke="black" stroke-width="2" fill="none" />
<polyline points="510.0,438.0,506.5,422.0,502.5,406.0,492.5,384.0,502.5,366.0,497.0,349.5,495.0,333.5" stroke="black" stroke-width="2" fill="none" />
<polyline points="505.5,43.5,509.5,15.5,510.0,15.0" stroke="black" stroke-width="2" fill="none" />
<polyline points="508.0,3.0,498.0,15.0,501.5,30.5,505.5,47.0" stroke="black" stroke-width="2" fill="none" />
<polyline points="486.0,49.0,482.0,33.5,478.5,17.0,478.5,9.0" stroke="black" stroke-width="2" fill="none" />
<polyline points="482.0,10.0,486.0,26.0,490.0,42.0" stroke="black" stroke-width="2" fill="none" />
<polyline points="472.5,44.5,468.5,16.5" stroke="black" stroke-width="2" fill="none" />
<polyline points="463.0,2.5,467.0,18.5,473.0,34.0" stroke="black" stroke-width="2" fill="none" />
<polyline points="507.0,34.5,503.0,18.5,500.5,2.5" stroke="black" stroke-width="2" fill="none" />
<polyline points="459.5,2.5,461.5,18.5,465.5,34.5" stroke="black" stroke-width="2" fill="none" />
<polyline points="458.0,34.5,455.5,18.0,454.0,2.0" stroke="black" stroke-width="2" fill="none" />
<polyline points="449.0,2.5,453.0,18.5,455.0,34.0" stroke="black" stroke-width="2" fill="none" />
<polyline points="445.0,35.0,440.5,19.0,437.0,3.0" stroke="black" stroke-width="2" fill="none" />
<polyline points="430.5,3.0,434.5,18.5,438.5,34.5,446.5,50.5" stroke="black" stroke-width="2" fill="none" />
<polyline points="427.5,51.0,425.5,35.5,423.5,19.5,421.5,3.5" stroke="black" stroke-width="2" fill="none" />
<polyline points="418.0,2.5,419.5,18.0,419.5,33.5,423.5,49.5" stroke="black" stroke-width="2" fill="none" />
<polyline points="388.5,33.5,372.5,49.5,349.0,45.5,332.5,44.0,316.5,44.0,300.0,34.0,284.0,26.0" stroke="black" stroke-width="2" fill="none" />
<polyline points="285.0,13.5,301.5,11.5,313.0,13.5" stroke="black" stroke-width="2" fill="none" />
<polyline points="305.0,13.5,289.5,13.0" stroke="black" stroke-width="2" fill="none" />
<polyline points="283.0,46.0,299.0,54.0" stroke="black" stroke-width="2" fill="none" />
<polyline points="294.5,53.5,284.0,69.5,272.0,85.5,272.0,101.0,254.0,101.0,268.5,110.5,284.5,112.5,304.0,100.5,320.0,98.5,340.0,92.5,346.0,102.5,370.0,114.0" stroke="black" stroke-width="2" fill="none" />
<polyline points="350.0,105.0,335.5,101.0,323.0,93.0,333.5,77.0,322.0,63.5,296.0,47.5,278.0,35.5,261.5,27.5,245.5,25.5,229.5,25.5,213.5,25.5" stroke="black" stroke-width="2" fill="none" />
<polyline points="209.5,14.5,225.5,12.5,241.5,15.0,257.5,19.0,273.0,27.0,288.5,34.5,304.5,43.0,320.5,52.5,336.5,64.5,352.5,77.0" stroke="black" stroke-width="2" fill="none" />
<polyline points="354.0,72.5,333.5,56.0,307.5,40.0,277.5,24.0,237.5,3.5,222.0,7.5" stroke="black" stroke-width="2" fill="none" />
<polyline points="228.5,7.5,244.5,9.5,260.5,15.5,276.5,22.0,292.0,22.5,299.5,20.5,315.5,18.5,324.0,12.5,336.0,10.5,354.5,18.5" stroke="black" stroke-width="2" fill="none" />
<polyline points="366.5,27.5,348.5,38.0,344.5,42.0,337.0,28.5,321.0,32.5,327.5,20.5,333.5,4.5" stroke="black" stroke-width="2" fill="none" />
<polyline points="331.0,2.0,323.5,18.0,313.0,27.5,327.5,45.5,333.5,47.5,356.0,65.5,360.0,75.5" stroke="black" stroke-width="2" fill="none" />
<polyline points="340.0,83.0,356.0,99.0,359.5,111.0" stroke="black" stroke-width="2" fill="none" />
<polyline points="342.5,61.5,340.5,53.0,324.0,46.5" stroke="black" stroke-width="2" fill="none" />
<polyline points="326.0,77.0,318.0,65.0,309.5,73.0,292.0,57.5,276.0,58.0,255.5,58.0,239.5,56.0,234.0,74.5,228.0,70.5,226.0,66.0,210.0,59.5" stroke="black" stroke-width="2" fill="none" />
<polyline points="193.5,50.5,177.5,48.5" stroke="black" stroke-width="2" fill="none" />
<polyline points="144.0,38.5,168.0,26.0,146.0,31.5,144.0,45.5,135.5,53.5,131.5,69.5,143.5,69.0,154.0,71.0,164.5,51.5,182.5,43.5,206.5,49.5,222.5,52.0,238.0,50.0,241.5,37.5,253.5,49.5,272.0,41.5,276.0,49.5,280.0,45.5,296.0,45.5,312.0,55.5,328.0,65.5,344.0,75.5,360.0,89.5,370.0,97.5" stroke="black" stroke-width="2" fill="none" />
<polyline points="344.5,117.0,342.5,105.0,340.0,117.5,323.5,117.0,307.0,117.0,291.0,117.0,274.5,118.5,270.0,111.0,266.5,99.0,264.5,119.0,249.0,121.0,233.0,123.0,219.0,122.5,197.0,126.0,181.5,127.5,165.5,129.0,149.5,128.5,133.5,130.0,117.5,132.5,101.5,135.0,86.0,135.5,70.0,138.0,66.0,128.5,78.0,112.5,88.5,96.0,98.5,80.0,110.5,64.5,119.0,62.5" stroke="black" stroke-width="2" fill="none" />
<polyline points="74.5,62.5,60.5,76.5,68.5,60.5" stroke="black" stroke-width="2" fill="none" />
<polyline points="181.5,108.0,197.5,106.0" stroke="black" stroke-width="2" fill="none" />
<polyline points="222.5,106.5,222.5,98.5,222.5,82.5" stroke="black" stroke-width="2" fill="none" />
<polyline points="199.5,1.0,201.5,17.0,201.5,33.0,203.5,49.5,206.0,66.0,202.0,82.5,204.0,98.5,206.0,114.5,210.0,132.5,204.5,148.5,207.0,164.5,223.0,180.5,214.5,196.5,214.5,212.5,214.5,228.5,206.5,244.5,184.5,260.0,186.0,276.0,174.0,292.0,174.0,308.0,176.5,314.0" stroke="black" stroke-width="2" fill="none" />
<polyline points="376.5,119.5,372.5,103.5,362.0,87.5,366.0,81.5,364.0,65.5,372.0,49.5,388.0,33.5,392.0,17.5,368.0,1.0" stroke="black" stroke-width="2" fill="none" />
<polyline points="358.0,1.5,352.0,3.5,365.5,19.5,363.5,29.5,349.5,31.5,328.0,38.0,344.0,35.5,360.0,25.5,376.0,18.0,380.0,4.0,396.0,14.5,402.0,28.5,396.0,36.0" stroke="black" stroke-width="2" fill="none" />
<polyline points="362.0,118.0,358.0,100.0,341.5,82.0,326.0,72.0,309.5,70.0,291.5,66.5,275.5,64.5,259.5,63.0,244.0,63.0,228.0,58.5,212.0,54.5,198.0,70.0,174.0,70.0,182.0,77.5,172.0,77.5,160.0,69.0,183.5,45.5,197.5,33.5,195.0,17.5,195.0,1.5" stroke="black" stroke-width="2" fill="none" />
</svg>