<svg xmlns="http://www.w3.org/2000/svg" width="512mm" height="512mm" viewBox="0 0 512 512" version="1.1"><polyline points="115.5,82.5,125.5,98.5,133.5,102.5,143.5,122.5,161.5,131.0,177.5,143.0,185.5,153.0,201.5,169.0,217.0,199.0,241.0,222.5,256.5,206.5,273.0,192.5" stroke="black" stroke-width="2" fill="none" />
<polyline points="214.5,215.5,210.5,205.5,208.5,205.0,204.0,201.5,182.0,184.0,190.0,182.0,182.0,184.5,192.0,198.5" stroke="black" stroke-width="2" fill="none" />
<polyline points="196.5,236.5,194.5,252.5,198.5,268.5" stroke="black" stroke-width="2" fill="none" />
<polyline points="206.5,285.5,222.5,275.5,236.5,291.5,236.5,308.0,236.0,324.5,239.5,330.5,227.5,344.5" stroke="black" stroke-width="2" fill="none" />
<polyline points="248.5,340.5,254.5,336.0,256.0,319.5,256.0,303.5,264.5,287.0,267.0,275.5,251.0,273.5,246.5,273.5,230.5,277.5" stroke="black" stroke-width="2" fill="none" />
<polyline points="221.5,283.5,211.5,299.5,210.0,315.5" stroke="black" stroke-width="2" fill="none" />
<polyline points="207.5,334.5,207.5,318.5,207.5,302.5,207.5,286.5,213.5,293.0" stroke="black" stroke-width="2" fill="none" />
<polyline points="233.0,288.5,231.0,304.5,228.5,320.5,226.5,336.5" stroke="black" stroke-width="2" fill="none" />
<polyline points="253.5,376.0,251.5,392.5,253.5,405.0,269.5,401.5" stroke="black" stroke-width="2" fill="none" />
<polyline points="280.5,398.0,286.0,382.0,276.0,382.0" stroke="black" stroke-width="2" fill="none" />
<polyline points="277.0,386.5,287.0,382.5" stroke="black" stroke-width="2" fill="none" />
<polyline points="292.5,379.5,292.5,388.0,290.0,404.0,287.5,419.5" stroke="black" stroke-width="2" fill="none" />
<polyline points="323.5,414.5,323.5,398.5,324.0,383.0,312.0,383.0" stroke="black" stroke-width="2" fill="none" />
<polyline points="320.0,381.5,316.0,381.5,318.0,397.5,312.0,397.5,312.0,414.0" stroke="black" stroke-width="2" fill="none" />
<polyline points="279.0,415.5,262.5,415.5,246.5,415.5,230.5,418.0,214.0,412.0,197.5,401.5,181.0,387.5,165.0,371.5,149.0,363.0" stroke="black" stroke-width="2" fill="none" />
<polyline points="156.0,369.5,171.5,387.5,189.5,409.0" stroke="black" stroke-width="2" fill="none" />
<polyline points="183.5,403.0,199.5,409.0" stroke="black" stroke-width="2" fill="none" />
<polyline points="193.5,419.5,178.0,405.5" stroke="black" stroke-width="2" fill="none" />
<polyline points="170.0,412.0,186.0,426.0" stroke="black" stroke-width="2" fill="none" />
<polyline points="164.0,450.0,180.0,448.0,196.0,448.0,212.5,448.0,228.5,446.5,244.5,444.0,260.5,442.5,277.0,442.5,292.5,443.0" stroke="black" stroke-width="2" fill="none" />
<polyline points="289.0,464.5,304.5,464.5,320.5,464.0,337.0,463.5,353.5,461.5,370.0,463.5,386.0,463.5,402.0,463.5,418.0,463.5,434.0,463.5,450.5,461.5,466.5,461.5,483.0,461.0,499.0,461.0" stroke="black" stroke-width="2" fill="none" />
<polyline points="509.5,430.0,509.5,414.0,510.0,404.0" stroke="black" stroke-width="2" fill="none" />
<polyline points="505.0,406.5,505.0,422.5" stroke="black" stroke-width="2" fill="none" />
<polyline points="505.0,400.0,495.0,406.0,495.5,422.5,479.5,422.5" stroke="black" stroke-width="2" fill="none" />
<polyline points="465.0,436.0,449.0,438.0,424.5,432.0,409.0,438.0,383.0,438.0,367.0,436.0,369.0,424.0,377.0,422.0,383.0,406.0,389.0,388.0,381.0,386.0,365.0,380.0,349.0,390.0" stroke="black" stroke-width="2" fill="none" />
<polyline points="339.5,382.0,349.5,384.0,336.0,386.0,336.0,402.0,358.0,404.5,354.0,420.5,352.0,432.5" stroke="black" stroke-width="2" fill="none" />
<polyline points="392.0,437.5,396.0,421.5,400.0,406.0,404.5,390.0,404.5,384.0" stroke="black" stroke-width="2" fill="none" />
<polyline points="393.5,381.0,397.5,397.0" stroke="black" stroke-width="2" fill="none" />
<polyline points="389.5,380.0,391.5,396.0,383.0,414.5,383.0,430.5" stroke="black" stroke-width="2" fill="none" />
<polyline points="415.0,433.5,401.0,429.5,404.5,413.5,408.5,397.5,425.0,391.5,429.0,375.5,427.0,359.5,429.0,343.5,429.0,327.5,429.0,311.5,412.5,307.5" stroke="black" stroke-width="2" fill="none" />
<polyline points="415.5,309.0,419.5,311.0,419.5,327.0" stroke="black" stroke-width="2" fill="none" />
<polyline points="420.5,338.5,412.5,334.5,424.5,328.5,424.0,312.5,428.5,296.5,416.5,292.0,400.5,291.5,384.5,293.0,368.0,298.5" stroke="black" stroke-width="2" fill="none" />
<polyline points="372.0,294.0,370.0,310.0,367.5,326.0" stroke="black" stroke-width="2" fill="none" />
<polyline points="376.0,345.5,378.0,329.5,384.5,313.0" stroke="black" stroke-width="2" fill="none" />
<polyline points="388.0,309.5,388.0,325.5,382.0,341.0,386.0,343.0" stroke="black" stroke-width="2" fill="none" />
<polyline points="396.0,328.0,396.0,312.5" stroke="black" stroke-width="2" fill="none" />
<polyline points="391.5,309.5,391.5,325.5,391.5,341.5,391.5,338.0" stroke="black" stroke-width="2" fill="none" />
<polyline points="413.0,327.5,405.0,323.5,405.0,307.5" stroke="black" stroke-width="2" fill="none" />
<polyline points="401.0,296.5,401.0,312.0,401.0,328.0,405.0,345.5,418.5,335.5" stroke="black" stroke-width="2" fill="none" />
<polyline points="435.5,296.0,433.5,312.0,433.5,328.0,433.0,344.0,432.5,359.5,434.0,376.0,429.5,392.0,431.5,408.5,439.0,423.0,442.5,425.0,434.5,433.0,432.5,438.5,447.0,434.5,463.5,424.5" stroke="black" stroke-width="2" fill="none" />
<polyline points="465.0,425.0,469.0,409.0,473.0,403.0" stroke="black" stroke-width="2" fill="none" />
<polyline points="486.0,394.0,484.0,410.5,470.0,424.0" stroke="black" stroke-width="2" fill="none" />
<polyline points="499.5,431.5,499.5,415.5,501.5,399.5,502.0,393.0" stroke="black" stroke-width="2" fill="none" />
<polyline points="494.5,394.0,492.5,410.0,484.5,425.5,476.0,427.0,486.0,437.0,491.5,437.0,505.5,436.5" stroke="black" stroke-width="2" fill="none" />
<polyline points="430.5,425.0,426.5,417.0" stroke="black" stroke-width="2" fill="none" />
<polyline points="416.0,417.0,416.0,433.0" stroke="black" stroke-width="2" fill="none" />
<polyline points="392.0,419.5,394.0,409.5,384.0,391.5,398.0,379.0,382.5,377.0" stroke="black" stroke-width="2" fill="none" />
<polyline points="375.0,381.5,377.0,397.5" stroke="black" stroke-width="2" fill="none" />
<polyline points="363.5,380.0,367.0,396.0,365.0,411.5,363.0,427.5" stroke="black" stroke-width="2" fill="none" />
<polyline points="408.0,424.0,414.0,408.0,392.5,412.0,378.5,418.0,372.5,410.0,364.5,390.0,352.5,406.0,350.5,412.0,356.0,396.0,356.0,379.5,332.0,385.5" stroke="black" stroke-width="2" fill="none" />
<polyline points="334.0,381.0,332.0,397.0" stroke="black" stroke-width="2" fill="none" />
<polyline points="328.0,398.5,328.0,382.5" stroke="black" stroke-width="2" fill="none" />
<polyline points="338.0,360.0,338.0,343.5,337.5,327.5,337.5,311.5,339.0,295.5,342.5,291.5,326.5,289.5" stroke="black" stroke-width="2" fill="none" />
<polyline points="328.0,290.5,328.0,306.5,328.0,322.0,326.0,338.0" stroke="black" stroke-width="2" fill="none" />
<polyline points="344.5,344.5,342.0,328.5,344.0,312.5,343.5,296.5,345.5,284.0,329.5,282.0" stroke="black" stroke-width="2" fill="none" />
<polyline points="312.5,287.0,324.5,289.5,324.5,305.0,322.0,320.5,318.0,337.0" stroke="black" stroke-width="2" fill="none" />
<polyline points="286.0,326.0,292.0,330.5,296.0,314.5,296.0,298.5,304.0,290.5,282.0,286.0" stroke="black" stroke-width="2" fill="none" />
<polyline points="278.0,283.0,284.0,290.5,292.5,294.0,290.5,310.0,301.0,329.5" stroke="black" stroke-width="2" fill="none" />
<polyline points="279.5,344.5,275.5,328.0,275.5,312.0" stroke="black" stroke-width="2" fill="none" />
<polyline points="283.0,306.0,281.0,322.0,281.0,337.5" stroke="black" stroke-width="2" fill="none" />
<polyline points="323.5,349.5,311.5,337.5,312.0,321.0,312.5,305.0,312.5,289.0,310.5,281.0,294.5,271.5,278.5,269.5,262.5,269.5" stroke="black" stroke-width="2" fill="none" />
<polyline points="260.5,278.5,259.0,294.5,245.0,305.0,245.0,321.5" stroke="black" stroke-width="2" fill="none" />
<polyline points="263.0,340.0,265.0,323.5,269.0,307.5,271.0,292.0" stroke="black" stroke-width="2" fill="none" />
<polyline points="277.5,269.0,271.5,273.0,275.5,289.5,277.5,293.5,273.5,310.0,267.5,326.0,265.5,342.0" stroke="black" stroke-width="2" fill="none" />
<polyline points="258.5,382.5,256.5,398.5,268.5,406.0" stroke="black" stroke-width="2" fill="none" />
<polyline points="293.5,416.0,293.5,400.0,295.5,384.0" stroke="black" stroke-width="2" fill="none" />
<polyline points="302.0,380.0,307.5,380.0,307.0,395.5,307.0,411.5,297.0,423.5,319.0,432.0,331.0,426.0" stroke="black" stroke-width="2" fill="none" />
<polyline points="353.0,505.5,369.5,501.5,377.0,497.5" stroke="black" stroke-width="2" fill="none" />
<polyline points="370.0,510.0,354.0,510.0" stroke="black" stroke-width="2" fill="none" />
<polyline points="448.0,374.5,448.0,358.5,448.0,342.5,448.0,326.0,450.5,310.0,450.5,296.0,434.5,292.0" stroke="black" stroke-width="2" fill="none" />
<polyline points="426.5,292.5,442.5,288.5,454.5,284.5,456.0,300.5,456.0,316.5,454.5,332.5,454.5,348.0,454.5,363.5" stroke="black" stroke-width="2" fill="none" />
<polyline points="489.5,346.5,489.5,330.0,501.5,330.0,501.0,314.0,499.5,298.0,500.0,282.0,508.5,280.5,504.5,278.5,508.5,281.0" stroke="black" stroke-width="2" fill="none" />
<polyline points="490.5,275.0,486.5,291.5,484.0,307.5,480.0,329.5,470.0,346.0" stroke="black" stroke-width="2" fill="none" />
<polyline points="503.0,336.5,508.5,330.0,504.5,325.5,491.0,305.5,479.5,301.0,481.5,284.5,494.0,271.0,478.0,273.0" stroke="black" stroke-width="2" fill="none" />
<polyline points="483.0,236.5,482.5,252.5,496.5,274.0,492.5,290.0,488.0,306.5,490.0,322.5,486.0,338.0" stroke="black" stroke-width="2" fill="none" />
<polyline points="432.0,274.0,414.5,270.0,399.0,270.0,383.0,267.5,367.5,267.0" stroke="black" stroke-width="2" fill="none" />
<polyline points="365.5,267.5,365.5,283.5,364.0,299.5,360.0,316.0,359.5,332.0,357.5,348.0" stroke="black" stroke-width="2" fill="none" />
<polyline points="354.5,342.0,356.5,326.0,357.0,309.5,355.0,293.5" stroke="black" stroke-width="2" fill="none" />
<polyline points="351.0,293.5,350.5,310.0" stroke="black" stroke-width="2" fill="none" />
<polyline points="309.0,290.5,309.0,306.5,309.0,322.5,309.0,338.0" stroke="black" stroke-width="2" fill="none" />
<polyline points="239.0,316.5,239.0,300.5,240.5,284.5" stroke="black" stroke-width="2" fill="none" />
<polyline points="248.0,279.5,248.5,295.5,248.5,311.5,244.5,328.0" stroke="black" stroke-width="2" fill="none" />
<polyline points="220.5,348.0,220.5,331.5,224.0,315.5,225.5,299.5,229.0,283.5,237.0,268.0" stroke="black" stroke-width="2" fill="none" />
<polyline points="230.5,223.0,214.5,225.0,199.0,223.0,183.0,227.0,158.5,239.5,142.5,231.5,124.0,241.5,108.0,241.5,100.0,245.5,96.0,219.5,104.0,203.5,109.5,187.5,115.0,171.5,120.5,156.0,128.5,140.5,123.0,132.5,139.0,116.5,135.5,114.5,120.0,112.5,104.5,110.5,88.5,112.0,73.0,119.5,57.0,127.5,41.0,137.5,25.0,149.5,9.0,162.0" stroke="black" stroke-width="2" fill="none" />
<polyline points="10.0,166.5,26.0,180.0,42.0,187.5,58.0,171.5,73.5,155.5,89.5,139.5,105.5,129.0,122.0,121.0" stroke="black" stroke-width="2" fill="none" />
<polyline points="116.5,132.5,105.0,148.5,97.0,164.5,87.0,180.0,79.0,196.0,73.0,211.5,89.0,221.5,105.0,195.0,121.5,155.0,137.5,135.0,147.5,111.5,159.5,101.5,175.5,89.5,191.5,90.0,207.0,100.5,223.0,112.5,239.0,127.0,255.5,147.0,271.5,177.0" stroke="black" stroke-width="2" fill="none" />
<polyline points="262.0,193.5,246.0,209.5,229.5,211.5,213.5,177.5,197.5,151.5,181.5,121.5" stroke="black" stroke-width="2" fill="none" />
<polyline points="191.0,119.0,214.5,135.0,235.0,151.0,250.5,167.0" stroke="black" stroke-width="2" fill="none" />
<polyline points="256.0,169.5,240.0,153.5,223.5,139.5,207.5,127.5,191.5,117.5,175.5,113.5" stroke="black" stroke-width="2" fill="none" />
<polyline points="172.0,109.5,204.0,120.0,226.0,136.5,244.0,152.5" stroke="black" stroke-width="2" fill="none" />
<polyline points="177.5,136.5,161.5,127.0" stroke="black" stroke-width="2" fill="none" />
<polyline points="165.0,128.0,159.0,116.0" stroke="black" stroke-width="2" fill="none" />
<polyline points="160.0,110.0,174.0,120.0,184.0,136.0" stroke="black" stroke-width="2" fill="none" />
<polyline points="161.5,132.5,181.5,148.5,197.0,164.5,207.0,180.5,214.5,196.0,220.5,212.0" stroke="black" stroke-width="2" fill="none" />
<polyline points="164.0,231.5,148.5,229.5,132.5,225.0,117.0,223.0,101.5,229.0,86.0,227.0,70.0,229.0,54.0,242.5,38.5,247.0,24.5,275.5,26.5,273.0,30.5,257.0,41.0,265.5,31.0,309.5,2.5,323.0,16.5,309.0,16.5,293.0,18.0,277.0,18.0,261.5,19.5,246.0,21.0,255.5" stroke="black" stroke-width="2" fill="none" />
<polyline points="40.0,238.5,36.0,258.5,30.0,274.5,26.0,290.0" stroke="black" stroke-width="2" fill="none" />
<polyline points="25.0,308.0,23.0,323.5,29.0,339.0" stroke="black" stroke-width="2" fill="none" />
<polyline points="0.5,343.0,8.5,348.5,7.0,364.5,15.5,380.5,9.5,396.5,3.5,412.5,10.0,392.5,26.0,368.5,36.0,364.5,24.0,381.0,16.0,397.0,10.0,412.5,8.5,428.0,4.5,444.0" stroke="black" stroke-width="2" fill="none" />
<polyline points="6.5,502.0,2.5,506.5" stroke="black" stroke-width="2" fill="none" />
<polyline points="139.5,414.0,155.5,416.0,171.5,424.0,187.5,432.0,203.5,429.5" stroke="black" stroke-width="2" fill="none" />
<polyline points="167.5,454.5,183.5,454.5,199.5,455.0,215.5,455.0,231.0,457.0,246.5,454.5,262.5,455.0,270.5,448.5,274.5,460.5,290.5,459.0,306.5,459.0,322.5,459.0,338.0,459.5,354.0,457.0,370.0,459.0,386.0,458.5,402.0,458.5,418.5,458.0,434.5,458.0,450.5,455.5,467.0,455.5,483.0,455.5,499.0,454.0,503.0,462.0" stroke="black" stroke-width="2" fill="none" />
<polyline points="372.0,342.0,376.0,325.5,380.0,309.5,391.5,305.5,394.5,283.5,388.5,267.5" stroke="black" stroke-width="2" fill="none" />
<polyline points="478.5,235.5,476.0,251.5,480.0,273.5,476.0,289.0,472.0,305.0,468.5,320.5,466.5,336.5,464.0,344.5,480.0,328.5" stroke="black" stroke-width="2" fill="none" />
<polyline points="199.5,417.0,179.0,415.0,169.0,409.0,152.5,410.5,136.0,401.0" stroke="black" stroke-width="2" fill="none" />
<polyline points="139.5,400.5,137.0,416.5,135.0,432.5,134.5,448.0,132.0,464.0,130.0,479.5,121.5,495.5,121.5,495.5" stroke="black" stroke-width="2" fill="none" />
<polyline points="129.0,505.0,135.0,489.0,137.0,473.0,138.5,457.5,138.5,441.0,140.5,425.0,140.5,409.0" stroke="black" stroke-width="2" fill="none" />
<polyline points="171.5,324.0,172.0,308.0,174.5,292.0,176.5,279.5" stroke="black" stroke-width="2" fill="none" />
<polyline points="184.0,286.5,178.0,303.0,175.5,319.0" stroke="black" stroke-width="2" fill="none" />
<polyline points="164.0,321.5,164.0,306.0,164.0,290.0,164.5,274.0,166.5,258.0,166.5,242.0,136.5,238.0,140.5,236.0,124.5,229.5,108.5,227.5" stroke="black" stroke-width="2" fill="none" />
<polyline points="102.0,234.5,108.0,207.0,123.5,165.0" stroke="black" stroke-width="2" fill="none" />
<polyline points="121.5,178.5,137.5,178.5" stroke="black" stroke-width="2" fill="none" />
<polyline points="120.0,136.0,110.0,152.0,102.0,168.0,92.0,184.5,84.0,200.5,76.0,216.5" stroke="black" stroke-width="2" fill="none" />
<polyline points="142.5,244.5,140.5,260.5,134.5,276.5,140.5,294.5,140.5,310.5,140.5,326.5,142.0,342.0,148.0,358.0,158.0,373.5,172.0,390.0,194.0,406.0,217.5,422.0,211.0,423.5,227.0,421.5,243.0,421.5,259.0,422.0,275.0,422.0,291.0,426.0,307.5,432.0,321.5,426.0,337.5,426.0" stroke="black" stroke-width="2" fill="none" />
<polyline points="168.0,332.0,167.5,316.0,167.5,300.5,167.5,284.5,169.5,268.5,171.5,252.5" stroke="black" stroke-width="2" fill="none" />
<polyline points="142.0,249.0,146.0,265.0,141.5,287.0,145.5,303.0,143.5,319.0,145.5,341.0,153.0,356.5,163.0,372.5,179.5,388.0,197.5,404.0" stroke="black" stroke-width="2" fill="none" />
<polyline points="48.0,233.5,32.0,237.5,22.0,261.5,26.0,245.5,51.5,227.0,57.0,211.0,43.0,195.5,55.0,179.5,71.0,164.0,89.0,148.5,113.0,132.5" stroke="black" stroke-width="2" fill="none" />
<polyline points="99.5,141.5,81.0,155.5,65.5,169.5,49.5,187.5,33.5,195.5,17.5,179.5,1.5,168.0" stroke="black" stroke-width="2" fill="none" />
<polyline points="2.0,159.5,18.0,147.5,34.0,135.0,50.0,125.0,66.5,115.5,82.5,107.5,98.5,105.0,114.5,105.0" stroke="black" stroke-width="2" fill="none" />
<polyline points="128.5,103.0,112.0,101.0,96.0,93.0" stroke="black" stroke-width="2" fill="none" />
<polyline points="94.0,91.5,114.0,91.5,125.5,87.5,141.5,97.5,157.5,87.5,182.0,94.0,198.0,99.5,214.0,111.5,226.0,122.0,242.0,136.0,258.0,160.5" stroke="black" stroke-width="2" fill="none" />
<polyline points="239.0,227.5,222.5,232.0,206.5,230.0,190.0,232.0,170.0,226.0,167.5,210.0,167.5,194.5,165.5,178.5,163.5,162.5,161.5,146.5,157.5,130.5" stroke="black" stroke-width="2" fill="none" />
<polyline points="152.0,126.0,155.5,142.0,158.0,158.5,162.0,174.5,162.5,190.0,164.5,205.5,165.0,222.0" stroke="black" stroke-width="2" fill="none" />
<polyline points="131.0,246.0,115.0,246.0,98.5,244.0,102.5,222.0,108.5,205.5,114.5,189.5,122.5,184.0,121.0,172.0,129.0,156.0,137.0,140.5,147.0,124.5" stroke="black" stroke-width="2" fill="none" />
<polyline points="178.0,125.5,162.5,119.5,149.0,119.5,133.0,128.0,117.0,136.0,101.0,146.5,101.0,158.0,85.5,188.0,69.0,210.5,53.0,200.5,28.5,190.5,10.5,174.5,14.5,158.5,34.5,142.5,58.5,126.5,92.5,111.0" stroke="black" stroke-width="2" fill="none" />
<polyline points="87.5,107.5,53.5,123.5,29.5,139.5,9.5,155.0,21.5,179.0,43.5,202.5,60.0,212.5,76.5,216.0,93.0,184.0,109.5,156.0" stroke="black" stroke-width="2" fill="none" />
<polyline points="125.0,83.5,141.0,99.5,129.5,115.5,101.5,131.5,82.0,147.0,66.0,163.5,50.0,179.5,56.0,204.0,70.0,230.0,50.0,246.5,42.0,262.5,36.0,279.0,41.5,287.0,35.5,302.5,37.5,306.5,29.5,322.0,40.0,330.0,37.5,346.0,26.0,362.0,20.0,368.0,36.0,348.0,48.0,366.5" stroke="black" stroke-width="2" fill="none" />
<polyline points="246.0,218.0,262.0,202.0,276.0,186.0,264.0,162.0,253.5,145.5,241.5,129.5,223.5,114.0,202.0,98.5" stroke="black" stroke-width="2" fill="none" />
<polyline points="196.0,91.0,208.0,107.5,214.0,119.5,238.0,133.5,250.0,149.5,266.0,167.5,268.0,181.5,258.5,197.5,242.5,213.5" stroke="black" stroke-width="2" fill="none" />
<polyline points="249.5,154.5,233.5,140.5,221.0,130.5,205.0,120.0,203.0,118.0,187.0,107.5,179.0,102.0,161.0,92.0,141.0,80.5,125.0,78.5,109.0,80.5,93.0,84.5,76.5,86.0,60.5,88.0,44.0,93.5,28.0,101.5,11.5,127.5,5.5,137.5,15.0,121.5,27.5,106.0,51.0,90.0" stroke="black" stroke-width="2" fill="none" />
<polyline points="56.0,93.5,30.0,109.5,20.0,126.0,10.0,142.0,8.0,143.5,24.5,119.5,40.0,99.5,56.0,93.5,72.0,91.5,88.5,89.5,105.0,85.5,120.5,82.0,137.0,86.0,153.0,88.0" stroke="black" stroke-width="2" fill="none" />
<polyline points="165.5,83.0,149.5,99.0,163.5,111.0,179.5,121.5,190.0,138.0,198.0,154.5,208.0,170.5,216.0,186.5,224.0,202.5,232.5,218.5" stroke="black" stroke-width="2" fill="none" />
</svg>