<svg xmlns="http://www.w3.org/2000/svg" width="512mm" height="512mm" viewBox="0 0 512 512" version="1.1"><polyline points="205.5,28.5,201.5,30.5,195.5,46.5,189.5,62.5,181.5,79.0,181.5,95.0,183.5,111.0,185.5,127.0,185.0,143.0,189.0,154.5,204.5,148.5,221.0,148.5,237.0,146.5,253.0,146.5,269.5,148.0,285.5,145.5,301.5,145.0" stroke="black" stroke-width="2" fill="none" />
<polyline points="274.5,155.5,290.5,171.5,306.5,177.5,322.5,183.0" stroke="black" stroke-width="2" fill="none" />
<polyline points="294.0,197.5,310.0,205.5,318.0,224.0,326.5,228.0,332.5,234.0,338.5,254.0,348.5,264.0,348.5,246.0,342.5,254.0" stroke="black" stroke-width="2" fill="none" />
<polyline points="344.5,237.5,358.0,253.5,380.0,255.5" stroke="black" stroke-width="2" fill="none" />
<polyline points="348.0,215.0,326.0,198.5,320.5,199.0,302.5,185.5,286.5,179.0" stroke="black" stroke-width="2" fill="none" />
<polyline points="291.5,192.0,307.5,198.0,323.5,208.5,340.0,220.5" stroke="black" stroke-width="2" fill="none" />
<polyline points="327.0,233.5,327.5,215.5,311.0,225.5" stroke="black" stroke-width="2" fill="none" />
<polyline points="280.0,218.0,274.0,208.0" stroke="black" stroke-width="2" fill="none" />
<polyline points="289.5,201.5,289.5,217.5,289.5,233.5,289.5,249.0" stroke="black" stroke-width="2" fill="none" />
<polyline points="278.0,272.0,256.0,260.5,240.0,260.5" stroke="black" stroke-width="2" fill="none" />
<polyline points="231.5,274.5,247.5,274.5,263.5,267.0,277.5,263.0" stroke="black" stroke-width="2" fill="none" />
<polyline points="269.5,283.5,259.5,299.5" stroke="black" stroke-width="2" fill="none" />
<polyline points="258.5,302.0,242.5,299.5,238.5,289.5,240.5,285.5" stroke="black" stroke-width="2" fill="none" />
<polyline points="237.5,289.5,253.5,297.5" stroke="black" stroke-width="2" fill="none" />
<polyline points="232.0,287.5,230.0,280.0,236.0,296.5,264.0,288.5,253.5,290.0,259.5,272.0,264.0,282.0,272.0,279.5,283.5,289.0,276.0,305.0,268.0,319.0,282.0,325.0,269.5,340.5" stroke="black" stroke-width="2" fill="none" />
<polyline points="284.5,351.5,300.5,350.0,316.0,350.0" stroke="black" stroke-width="2" fill="none" />
<polyline points="321.0,361.5,304.5,355.5,288.5,355.5" stroke="black" stroke-width="2" fill="none" />
<polyline points="294.0,333.5,288.5,349.5,284.5,367.5,284.5,384.0,284.5,400.0,286.5,416.0,284.5,434.0,284.5,450.0,278.0,465.5,281.5,481.5,291.5,499.0" stroke="black" stroke-width="2" fill="none" />
<polyline points="296.0,504.5,280.0,478.0" stroke="black" stroke-width="2" fill="none" />
<polyline points="286.0,449.0,302.0,443.0,297.5,452.5,289.5,468.5,290.0,467.0,306.0,445.0,324.0,437.0,339.5,439.5" stroke="black" stroke-width="2" fill="none" />
<polyline points="341.0,439.5,352.5,456.0" stroke="black" stroke-width="2" fill="none" />
<polyline points="358.5,469.5,343.0,476.0,327.5,480.0,315.5,490.0,345.5,474.0" stroke="black" stroke-width="2" fill="none" />
<polyline points="350.5,477.5,335.0,485.5,321.0,492.0,355.0,476.0" stroke="black" stroke-width="2" fill="none" />
<polyline points="367.0,486.5,350.5,501.0,334.5,507.0,317.5,510.5,351.5,499.0,369.5,482.5,376.0,470.5,360.0,466.5,344.5,470.5,324.0,468.5,317.5,468.5,313.5,452.5,303.5,458.5,295.5,474.5,304.0,458.0,310.5,442.0,331.0,428.0,333.0,439.5,317.5,443.0" stroke="black" stroke-width="2" fill="none" />
<polyline points="312.0,446.0,328.0,470.0" stroke="black" stroke-width="2" fill="none" />
<polyline points="359.0,453.5,345.0,438.0" stroke="black" stroke-width="2" fill="none" />
<polyline points="351.0,434.0,335.0,416.0,319.0,416.0,303.0,418.0" stroke="black" stroke-width="2" fill="none" />
<polyline points="280.0,423.0,296.0,420.5,298.5,414.0,314.5,412.0,341.0,413.5,357.0,433.5,373.5,455.5" stroke="black" stroke-width="2" fill="none" />
<polyline points="357.5,459.0,341.5,465.0,325.5,475.0,309.5,475.5,311.5,482.0,349.0,462.5,357.0,446.5,345.0,430.5,330.5,414.5" stroke="black" stroke-width="2" fill="none" />
<polyline points="335.0,346.5,319.0,328.5,303.5,328.5,287.5,318.5,273.5,328.5,257.5,326.5,241.5,323.0" stroke="black" stroke-width="2" fill="none" />
<polyline points="262.0,310.5,276.0,295.0,282.0,279.0,271.5,303.0,255.5,315.0,239.5,308.5,223.5,291.0" stroke="black" stroke-width="2" fill="none" />
<polyline points="219.0,296.0,239.0,314.0,255.5,317.5,271.5,310.0" stroke="black" stroke-width="2" fill="none" />
<polyline points="286.5,319.5,280.5,335.5,283.5,351.5,280.0,367.5,278.0,383.5,280.0,400.0,282.0,416.0,278.5,431.5,274.5,447.5,286.0,443.0,302.0,439.0,318.0,433.0,334.0,427.5,349.5,443.5" stroke="black" stroke-width="2" fill="none" />
<polyline points="290.0,506.0,274.5,478.0,258.0,444.5,256.5,436.5,230.5,448.5,210.5,480.0,194.0,505.5,186.0,491.5,206.0,467.5,216.0,451.5,216.0,435.5,214.0,419.0,218.5,403.0,220.5,387.0,222.0,371.5,226.0,355.5,234.0,334.0,231.5,318.0,222.0,302.0,218.0,286.0,222.0,270.0,234.0,258.0,218.0,280.0" stroke="black" stroke-width="2" fill="none" />
<polyline points="223.0,278.0,223.0,293.5,239.5,309.5,240.0,325.5,240.5,337.5,254.5,334.0" stroke="black" stroke-width="2" fill="none" />
<polyline points="214.0,331.5,219.5,329.5,221.5,341.0,219.5,357.0,217.0,373.0,215.5,389.0,214.0,405.0,204.0,421.0,210.5,437.0" stroke="black" stroke-width="2" fill="none" />
<polyline points="191.5,442.0,175.5,438.0,159.5,434.0" stroke="black" stroke-width="2" fill="none" />
<polyline points="159.0,428.5,175.0,430.5,190.5,435.0,206.5,441.0" stroke="black" stroke-width="2" fill="none" />
<polyline points="185.5,447.5,164.0,461.5,148.0,461.0,132.0,461.0" stroke="black" stroke-width="2" fill="none" />
<polyline points="137.5,464.0,153.5,470.0,170.0,474.0" stroke="black" stroke-width="2" fill="none" />
<polyline points="184.0,453.0,200.0,465.0" stroke="black" stroke-width="2" fill="none" />
<polyline points="187.5,477.0,171.5,474.5,129.5,458.5,151.5,442.0,157.5,441.0,143.5,453.0" stroke="black" stroke-width="2" fill="none" />
<polyline points="139.0,451.5,157.0,431.5,173.0,448.0,163.5,464.5,172.0,470.5,186.5,487.0,180.5,502.5" stroke="black" stroke-width="2" fill="none" />
<polyline points="172.0,479.5,156.0,475.5,140.0,469.5,124.0,465.5" stroke="black" stroke-width="2" fill="none" />
<polyline points="122.5,462.5,138.5,442.5,154.5,424.0,170.5,404.0,186.5,410.0,202.5,414.0" stroke="black" stroke-width="2" fill="none" />
<polyline points="185.0,451.5,199.0,467.5,194.5,480.0,210.5,462.0" stroke="black" stroke-width="2" fill="none" />
<polyline points="230.5,456.0,214.5,484.5,200.5,510.5,208.5,494.5,218.5,478.5,227.0,452.5,239.0,436.5" stroke="black" stroke-width="2" fill="none" />
<polyline points="243.0,438.5,233.0,454.5,223.0,470.5,207.0,486.0,197.0,502.0" stroke="black" stroke-width="2" fill="none" />
<polyline points="163.0,508.5,147.0,500.5,131.5,492.0,115.5,482.0" stroke="black" stroke-width="2" fill="none" />
<polyline points="112.0,478.0,127.5,482.0,143.0,491.5,159.0,499.5,175.0,507.5" stroke="black" stroke-width="2" fill="none" />
<polyline points="163.0,481.5,147.0,477.5,131.0,474.0,115.5,468.0" stroke="black" stroke-width="2" fill="none" />
<polyline points="110.5,467.0,126.0,447.5,142.0,427.5,158.0,410.0" stroke="black" stroke-width="2" fill="none" />
<polyline points="166.0,362.0,182.0,330.5,198.0,330.0,213.5,320.0,217.5,329.5,243.5,337.0,259.5,337.5" stroke="black" stroke-width="2" fill="none" />
<polyline points="201.5,357.5,185.5,356.0" stroke="black" stroke-width="2" fill="none" />
<polyline points="185.5,355.5,179.5,371.5,178.0,387.5,178.0,403.5,180.0,413.5,198.0,419.5" stroke="black" stroke-width="2" fill="none" />
<polyline points="254.0,434.5,260.0,451.0,267.5,467.0,273.5,482.5,283.5,498.5" stroke="black" stroke-width="2" fill="none" />
<polyline points="268.0,454.5,258.0,438.5" stroke="black" stroke-width="2" fill="none" />
<polyline points="213.0,354.5,197.0,350.5,181.0,354.5" stroke="black" stroke-width="2" fill="none" />
<polyline points="173.5,360.5,189.0,336.5,205.0,336.5,212.5,332.0,214.0,348.0,222.0,341.5,249.5,343.5,265.5,345.5,281.5,325.5,295.5,333.0,311.5,333.0,327.5,345.0,328.0,349.0,322.0,365.5,326.5,382.0,325.0,398.0" stroke="black" stroke-width="2" fill="none" />
<polyline points="320.5,329.0,334.5,345.5,336.0,361.5,338.0,377.5,336.0,394.0,336.0,410.0,347.5,426.0,359.5,441.5,371.5,457.5,365.0,477.5,341.0,493.5,307.0,509.5,321.0,502.0,337.5,496.5,354.0,488.5,370.5,475.0" stroke="black" stroke-width="2" fill="none" />
<polyline points="418.5,285.5,396.0,271.5,372.0,275.5,345.5,271.5,331.5,255.5,327.5,251.5,339.5,235.5,339.5,219.0,315.0,203.0,281.0,183.0,265.5,180.5,249.5,183.0,234.0,179.0,218.0,179.0,202.5,183.5,186.5,190.0,170.5,202.0" stroke="black" stroke-width="2" fill="none" />
<polyline points="166.0,198.5,182.0,178.5,198.5,172.5,214.5,165.0,176.5,183.0,166.5,199.0,162.5,215.0,162.5,231.5,162.5,245.5,172.5,245.5,166.5,267.5" stroke="black" stroke-width="2" fill="none" />
<polyline points="166.0,276.0,178.0,259.5,182.0,246.0,168.0,234.0,176.5,216.5,193.0,205.0,177.0,213.0,175.0,225.0" stroke="black" stroke-width="2" fill="none" />
<polyline points="156.5,242.5,150.5,258.5,138.5,270.5" stroke="black" stroke-width="2" fill="none" />
<polyline points="127.5,276.5,111.5,274.0" stroke="black" stroke-width="2" fill="none" />
<polyline points="111.5,278.5,99.5,264.5,84.0,258.0,68.0,254.5" stroke="black" stroke-width="2" fill="none" />
<polyline points="69.0,254.5,70.5,270.5" stroke="black" stroke-width="2" fill="none" />
<polyline points="68.0,275.0,56.0,259.0,67.5,242.5,69.5,226.5,63.5,246.0,47.5,250.0" stroke="black" stroke-width="2" fill="none" />
<polyline points="39.5,249.0,55.5,267.0" stroke="black" stroke-width="2" fill="none" />
<polyline points="69.0,273.5,53.0,269.5,37.0,253.5" stroke="black" stroke-width="2" fill="none" />
<polyline points="38.0,235.5,54.0,227.5,70.0,223.0,86.0,231.0" stroke="black" stroke-width="2" fill="none" />
<polyline points="87.5,228.0,71.5,217.5,55.5,219.5,39.5,229.5" stroke="black" stroke-width="2" fill="none" />
<polyline points="33.0,232.0,49.0,217.5,65.0,207.0,81.0,213.0,97.0,227.0,112.5,249.0" stroke="black" stroke-width="2" fill="none" />
<polyline points="80.0,259.0,84.0,275.0" stroke="black" stroke-width="2" fill="none" />
<polyline points="78.5,272.5,74.5,256.5" stroke="black" stroke-width="2" fill="none" />
<polyline points="101.0,250.5,85.5,234.5,69.5,218.5" stroke="black" stroke-width="2" fill="none" />
<polyline points="67.0,214.5,39.0,230.5,37.0,242.0,47.0,259.5,59.0,261.5,79.0,281.0,95.5,275.0,116.0,269.5,132.0,269.5,144.0,263.5,160.0,237.5,174.0,231.5,190.0,223.0,184.0,237.0,190.0,241.0" stroke="black" stroke-width="2" fill="none" />
<polyline points="226.0,224.0,242.0,210.0,258.0,212.0,274.5,214.0,276.5,230.5" stroke="black" stroke-width="2" fill="none" />
<polyline points="258.0,231.0,242.0,236.5,264.0,230.5,258.0,214.5,249.5,214.0,233.5,220.0,231.5,224.0,249.5,223.5,234.0,227.5" stroke="black" stroke-width="2" fill="none" />
<polyline points="248.5,214.5,257.0,230.5" stroke="black" stroke-width="2" fill="none" />
<polyline points="258.5,236.0,243.0,240.0,239.0,240.0,227.0,224.5,245.0,208.5" stroke="black" stroke-width="2" fill="none" />
<polyline points="224.5,207.0,220.5,210.5,204.5,212.5,210.5,214.5,206.5,230.5,212.5,232.5,213.0,238.5,211.0,252.5,227.5,252.0,243.0,254.0,259.0,254.5,277.0,252.0,293.0,252.0,309.0,243.5,338.5,261.5,354.0,277.5,370.0,283.5,385.5,283.5,401.5,281.5,417.5,284.0,427.5,260.0,441.5,261.5,439.5,277.5,431.5,291.5,447.5,281.5,455.0,257.5,461.5,239.5,474.0,241.0,478.0,243.5,468.0,259.5,452.0,274.0,442.0,286.0,440.5,278.0,456.5,262.0,472.5,264.0" stroke="black" stroke-width="2" fill="none" />
<polyline points="456.0,257.5,472.0,241.5,462.0,239.5,458.0,253.0,442.5,239.0" stroke="black" stroke-width="2" fill="none" />
<polyline points="434.0,232.5,450.5,225.0,456.5,235.5,440.5,240.0,446.5,256.5,450.0,276.5,472.5,256.5,482.5,248.5,472.5,264.5" stroke="black" stroke-width="2" fill="none" />
<polyline points="480.0,234.5,464.0,222.5,448.0,212.5,432.0,218.5,416.0,234.5,400.0,256.0,388.5,256.0,372.5,266.0,356.5,248.0,340.0,236.0,324.0,254.0,308.5,250.5,285.0,244.5,287.0,228.0,287.0,212.0,290.5,196.0,272.5,173.5,248.0,168.0,232.0,170.0" stroke="black" stroke-width="2" fill="none" />
<polyline points="239.5,173.0,255.5,175.0,274.0,175.0,288.0,175.5,304.5,182.0,321.0,188.0" stroke="black" stroke-width="2" fill="none" />
<polyline points="305.0,151.5,288.5,151.5,272.5,151.5" stroke="black" stroke-width="2" fill="none" />
<polyline points="272.0,151.5,280.0,167.5,306.0,184.0,326.0,186.0,336.0,201.5" stroke="black" stroke-width="2" fill="none" />
<polyline points="295.0,109.5,298.5,94.0,290.5,94.5,281.0,96.5" stroke="black" stroke-width="2" fill="none" />
<polyline points="282.0,95.0,286.0,95.5,274.0,97.5,286.0,113.5" stroke="black" stroke-width="2" fill="none" />
<polyline points="297.5,116.0,281.5,118.0,266.0,110.0,250.5,110.0,234.5,109.5" stroke="black" stroke-width="2" fill="none" />
<polyline points="221.5,98.5,221.5,88.5,205.5,88.5" stroke="black" stroke-width="2" fill="none" />
<polyline points="204.0,87.5,198.0,103.5,197.5,105.5" stroke="black" stroke-width="2" fill="none" />
<polyline points="194.5,106.5,196.5,90.0,188.5,91.5,188.5,107.5,190.0,123.0,192.0,143.5,199.5,135.5,215.5,135.5,231.5,136.0,248.0,136.0,264.0,136.0,280.0,136.5,296.0,136.5" stroke="black" stroke-width="2" fill="none" />
<polyline points="298.0,90.0,280.0,82.5,263.5,105.0,247.5,107.0,220.0,107.0,204.0,98.5" stroke="black" stroke-width="2" fill="none" />
<polyline points="202.0,91.0,222.0,89.0,228.5,105.0,212.0,121.0,208.0,113.0,219.5,116.5,239.5,98.5,255.0,96.5,281.0,104.0,290.5,85.5,306.5,97.5" stroke="black" stroke-width="2" fill="none" />
<polyline points="299.0,113.5,307.5,98.0,293.0,82.0" stroke="black" stroke-width="2" fill="none" />
<polyline points="302.5,77.0,300.5,71.0,284.5,69.0,266.5,69.5,250.5,71.5,234.0,71.0,218.0,71.0,202.0,71.5,186.0,75.5" stroke="black" stroke-width="2" fill="none" />
<polyline points="182.5,71.0,198.5,43.0,210.5,61.0,226.5,63.5,235.0,57.0,255.0,67.0,277.0,67.0,293.0,67.0,307.0,65.0" stroke="black" stroke-width="2" fill="none" />
<polyline points="304.0,55.5,288.0,61.0,271.5,55.5,255.5,58.0,239.5,58.0,223.5,66.0,207.5,64.0" stroke="black" stroke-width="2" fill="none" />
<polyline points="202.0,48.5,218.0,52.5,234.0,52.5,250.0,52.0,265.5,51.5,281.5,51.5,297.5,51.0" stroke="black" stroke-width="2" fill="none" />
<polyline points="298.0,37.5,281.5,37.5,265.5,37.5,249.5,37.5,233.5,37.5" stroke="black" stroke-width="2" fill="none" />
<polyline points="206.0,35.0,222.5,34.5,239.0,35.0,255.0,33.0,271.5,33.0,288.0,33.5" stroke="black" stroke-width="2" fill="none" />
<polyline points="302.5,28.0,286.5,26.0,270.5,28.0,254.5,28.0,238.5,26.0,222.5,25.5,206.5,27.5" stroke="black" stroke-width="2" fill="none" />
<polyline points="201.0,23.5,217.5,22.0,234.0,21.5,250.0,21.0,266.5,21.0,282.5,21.0,298.5,21.0,309.0,27.5,309.0,41.5,310.5,49.0,318.5,71.0,318.5,87.5,318.5,103.0,316.0,118.5,316.0,129.0,310.0,141.0,311.5,149.0" stroke="black" stroke-width="2" fill="none" />
<polyline points="304.0,130.5,288.0,130.5,271.5,130.5,255.5,132.5,239.5,132.5,223.0,130.5,206.5,130.5,190.5,129.0" stroke="black" stroke-width="2" fill="none" />
<polyline points="195.0,154.0,211.0,153.5" stroke="black" stroke-width="2" fill="none" />
<polyline points="210.0,176.0,194.0,182.5" stroke="black" stroke-width="2" fill="none" />
<polyline points="188.0,182.5,179.5,198.0,167.5,209.5,183.5,201.5,200.0,196.0,216.0,192.0,232.0,190.0,248.0,190.0,264.5,190.0,280.5,189.5,297.0,189.5,313.0,193.5,326.5,200.0,342.5,210.0" stroke="black" stroke-width="2" fill="none" />
<polyline points="315.0,239.5,310.5,233.5,314.5,217.5,300.5,202.0,274.0,198.0,257.5,199.5,241.0,197.5,225.0,197.5,209.0,199.0" stroke="black" stroke-width="2" fill="none" />
<polyline points="181.5,329.0,171.5,345.0,165.5,361.5,161.5,377.5,161.5,394.0,157.5,410.0,143.5,426.0,131.5,441.5,117.5,457.5,109.5,474.0,125.5,490.0,157.5,506.0" stroke="black" stroke-width="2" fill="none" />
<polyline points="173.0,506.0,139.0,490.0,117.0,474.5" stroke="black" stroke-width="2" fill="none" />
<polyline points="122.0,470.0,156.0,476.0" stroke="black" stroke-width="2" fill="none" />
<polyline points="189.0,446.5,170.5,463.0,122.5,463.0,137.0,445.5,151.0,429.5,165.0,413.5,173.0,395.5,169.0,393.5,173.0,367.0,177.0,350.5,186.5,334.5" stroke="black" stroke-width="2" fill="none" />
<polyline points="155.0,258.0,130.5,263.5,114.5,260.0,108.0,244.5,100.0,234.5,85.5,226.0,72.0,210.0" stroke="black" stroke-width="2" fill="none" />
<polyline points="63.0,209.0,40.5,225.0,33.0,241.0,36.5,257.0,52.5,272.5,72.0,288.5,80.5,288.5,97.0,282.0,113.5,282.0,129.5,283.5,145.5,284.0,147.5,276.0,163.5,278.0,179.0,260.0,194.5,249.5,210.0,246.0,227.5,248.0,243.5,248.5,259.0,249.0,274.5,247.0" stroke="black" stroke-width="2" fill="none" />
<polyline points="431.5,260.5,431.5,276.5" stroke="black" stroke-width="2" fill="none" />
<polyline points="456.0,236.5,438.0,222.0,422.0,236.0,442.0,220.0" stroke="black" stroke-width="2" fill="none" />
<polyline points="443.5,212.5,421.5,228.5,407.5,244.5,397.5,260.5,385.5,266.5,383.5,276.0,396.0,278.0" stroke="black" stroke-width="2" fill="none" />
<polyline points="289.5,113.5,275.5,113.0,269.5,95.0,281.5,79.0" stroke="black" stroke-width="2" fill="none" />
<polyline points="309.0,77.5,311.0,93.5,311.5,109.5" stroke="black" stroke-width="2" fill="none" />
</svg>