<svg xmlns="http://www.w3.org/2000/svg" width="512mm" height="512mm" viewBox="0 0 512 512" version="1.1"><polyline points="135.5,102.5,105.5,118.5,93.5,128.5,73.5,144.5,49.5,167.0,65.5,177.0,63.5,193.0,51.5,203.0" stroke="black" stroke-width="2" fill="none" />
<polyline points="53.0,217.0,51.5,201.0,53.5,185.0,57.5,169.5,46.0,183.5" stroke="black" stroke-width="2" fill="none" />
<polyline points="59.0,184.0,59.0,174.0" stroke="black" stroke-width="2" fill="none" />
<polyline points="38.0,171.0,30.0,187.0,17.5,203.0" stroke="black" stroke-width="2" fill="none" />
<polyline points="28.0,173.0,44.5,168.5,53.0,171.0,45.0,187.0,45.5,203.0,46.0,219.5,32.5,237.0,28.5,253.0,27.0,268.5,29.0,276.0" stroke="black" stroke-width="2" fill="none" />
<polyline points="19.5,273.5,23.5,258.0,31.5,252.0,37.5,236.0,31.5,232.0" stroke="black" stroke-width="2" fill="none" />
<polyline points="34.0,252.5,28.0,242.5,12.0,254.5" stroke="black" stroke-width="2" fill="none" />
<polyline points="0.5,293.0,16.5,290.5,33.0,292.5" stroke="black" stroke-width="2" fill="none" />
<polyline points="2.5,296.5,18.5,296.0,34.5,295.5,62.5,289.5,78.0,289.0" stroke="black" stroke-width="2" fill="none" />
<polyline points="94.0,275.5,97.5,259.5,105.5,239.5,105.5,223.5,105.5,215.5" stroke="black" stroke-width="2" fill="none" />
<polyline points="111.5,217.5,109.5,233.5,108.0,249.5,106.0,265.5,106.0,281.5,104.0,297.5,90.0,313.5" stroke="black" stroke-width="2" fill="none" />
<polyline points="118.0,309.5,133.5,325.5,153.5,316.0,169.5,318.0,185.5,288.0" stroke="black" stroke-width="2" fill="none" />
<polyline points="140.0,310.5,124.0,308.5" stroke="black" stroke-width="2" fill="none" />
<polyline points="139.5,335.0,132.0,327.0,116.5,310.5,132.5,294.0,148.0,277.5,148.0,261.5,154.5,245.0,159.0,229.5,161.0,213.5,152.5,193.5,156.5,189.5" stroke="black" stroke-width="2" fill="none" />
<polyline points="156.5,189.0,162.5,205.5,170.0,221.5,176.0,237.5,174.0,254.0,164.0,270.0,159.5,296.0" stroke="black" stroke-width="2" fill="none" />
<polyline points="131.5,225.0,137.5,196.5" stroke="black" stroke-width="2" fill="none" />
<polyline points="151.5,183.0,177.5,199.0,173.5,215.5,177.5,231.5,181.5,248.0,173.5,264.0,163.5,280.0,137.5,303.5,149.5,297.5,159.5,296.0,165.5,308.0,181.5,282.0,204.0,250.0,220.0,234.0,236.0,238.5" stroke="black" stroke-width="2" fill="none" />
<polyline points="229.0,246.0,229.0,262.0,235.0,267.5,244.5,277.5,260.5,272.0,284.0,290.0,290.5,318.0,306.5,344.0,322.5,346.0,338.5,346.5,354.5,348.5,370.5,346.0,386.5,345.5" stroke="black" stroke-width="2" fill="none" />
<polyline points="387.0,338.0,371.5,322.0,352.0,316.0,336.5,304.5,320.5,306.5,304.5,301.0" stroke="black" stroke-width="2" fill="none" />
<polyline points="303.0,286.0,317.0,294.0,325.5,310.5,349.5,314.5,372.0,323.0,388.0,339.0" stroke="black" stroke-width="2" fill="none" />
<polyline points="396.0,340.5,378.0,324.5,368.0,318.5,340.0,302.0,304.5,292.0,308.5,290.0,294.5,288.0" stroke="black" stroke-width="2" fill="none" />
<polyline points="278.0,268.5,296.5,275.0,288.5,279.5,292.5,280.0,298.5,296.5,298.0,312.5,306.5,316.5,324.5,320.5,340.5,314.5" stroke="black" stroke-width="2" fill="none" />
<polyline points="345.0,320.5,329.5,318.5" stroke="black" stroke-width="2" fill="none" />
<polyline points="327.5,376.0,312.0,376.0" stroke="black" stroke-width="2" fill="none" />
<polyline points="327.5,392.0,319.5,408.0,336.0,414.0,352.0,410.0,368.0,410.5" stroke="black" stroke-width="2" fill="none" />
<polyline points="381.0,416.5,379.5,400.0,385.5,384.0" stroke="black" stroke-width="2" fill="none" />
<polyline points="402.5,375.0,396.0,391.5,388.0,407.5" stroke="black" stroke-width="2" fill="none" />
<polyline points="406.0,413.0,414.0,397.0,405.5,395.0,409.5,395.0,402.0,401.5,386.0,409.5,374.0,404.0,380.0,388.0,378.0,376.0,362.5,374.5" stroke="black" stroke-width="2" fill="none" />
<polyline points="361.5,373.0,357.5,389.0" stroke="black" stroke-width="2" fill="none" />
<polyline points="350.0,401.0,352.5,385.5,349.0,385.5,357.0,385.5,361.0,369.5" stroke="black" stroke-width="2" fill="none" />
<polyline points="332.0,403.0,324.0,415.5,308.5,417.0,292.5,415.0" stroke="black" stroke-width="2" fill="none" />
<polyline points="286.5,411.5,303.0,409.5,319.0,395.5,341.0,375.5,321.0,391.5,315.0,407.5,339.0,393.5,342.5,387.5,336.5,387.5,345.0,403.5,357.0,415.5,373.0,413.5,386.5,383.5,402.0,375.0,418.0,375.0,434.0,375.5,453.5,389.0,449.0,405.0" stroke="black" stroke-width="2" fill="none" />
<polyline points="438.5,400.5,442.5,384.5" stroke="black" stroke-width="2" fill="none" />
<polyline points="445.5,374.0,433.5,390.5,429.5,407.0,449.5,375.5,465.0,376.0,481.0,376.5" stroke="black" stroke-width="2" fill="none" />
<polyline points="464.0,378.0,449.5,378.0,447.0,393.5,443.0,409.5,455.0,413.5,471.0,414.0,487.0,414.0,503.0,414.0" stroke="black" stroke-width="2" fill="none" />
<polyline points="507.5,402.5,495.5,406.5,493.5,402.5,483.5,408.5,494.0,392.5,502.5,392.5,509.0,390.5,503.0,370.5,487.0,370.5,471.0,370.0,455.0,370.0,439.0,370.0,422.5,370.0,407.0,370.0,391.0,372.0,375.0,370.0,359.0,372.0,343.0,370.0,327.0,370.0,311.0,370.0,295.0,392.0,279.0,402.0,263.0,416.0" stroke="black" stroke-width="2" fill="none" />
<polyline points="277.5,415.0,277.0,409.5,293.0,402.0,308.5,382.0,304.0,390.0,281.5,406.5,267.5,422.5,269.5,438.5,265.5,454.5,262.0,474.5,256.5,490.5,256.0,506.5,282.0,510.5,297.5,510.5,313.5,511.0,329.5,510.5,346.5,511.0,362.5,511.0,379.0,510.5,395.5,510.5,411.5,510.5,427.0,510.0,443.0,508.0,458.5,508.0,474.0,508.5,490.0,508.0,506.0,508.5" stroke="black" stroke-width="2" fill="none" />
<polyline points="505.5,469.5,501.0,457.5,500.5,441.5,500.0,437.5" stroke="black" stroke-width="2" fill="none" />
<polyline points="509.0,434.5,507.0,450.5" stroke="black" stroke-width="2" fill="none" />
<polyline points="493.5,444.5,491.0,460.5" stroke="black" stroke-width="2" fill="none" />
<polyline points="482.0,469.5,466.0,470.0,450.0,470.0,434.5,470.5,421.0,465.0,415.0,465.0,417.0,449.0" stroke="black" stroke-width="2" fill="none" />
<polyline points="397.5,461.5,381.5,466.0,366.0,466.0,352.0,460.5,354.0,444.0" stroke="black" stroke-width="2" fill="none" />
<polyline points="409.0,419.5,411.0,403.5" stroke="black" stroke-width="2" fill="none" />
<polyline points="440.0,353.5,456.0,351.0,472.0,351.5,488.0,349.5,504.5,346.0" stroke="black" stroke-width="2" fill="none" />
<polyline points="507.5,316.5,495.5,312.5,496.0,296.5,506.0,280.5,492.0,276.5,498.0,260.5,500.0,244.0,504.0,228.0,508.0,211.5,506.0,215.5" stroke="black" stroke-width="2" fill="none" />
<polyline points="511.0,202.5,507.0,200.5,503.0,216.0,499.0,232.0,495.0,248.0,484.5,268.0,478.0,284.0,475.5,300.5,485.5,310.5,489.0,312.5,481.0,338.5,449.0,350.5" stroke="black" stroke-width="2" fill="none" />
<polyline points="476.0,394.0,487.5,379.5,475.0,396.0,482.5,406.0,500.5,390.5,506.0,392.5" stroke="black" stroke-width="2" fill="none" />
<polyline points="481.0,395.5,497.0,377.5,484.5,389.5,476.5,405.5" stroke="black" stroke-width="2" fill="none" />
<polyline points="474.5,444.0,486.5,450.0,488.5,469.5,504.0,463.0" stroke="black" stroke-width="2" fill="none" />
<polyline points="504.0,309.5,500.0,301.5,506.0,285.5,496.0,293.5" stroke="black" stroke-width="2" fill="none" />
<polyline points="498.5,259.5,486.5,264.0,460.5,269.5,444.5,291.5,429.0,309.5,408.5,313.5,414.5,297.5,426.0,273.5,436.0,247.5,419.5,257.5,403.0,257.0,381.5,249.5,383.5,233.5,388.0,217.5,392.5,201.5,409.0,194.0,414.5,178.5,410.0,179.0,403.5,171.0,387.5,195.5,371.5,209.5" stroke="black" stroke-width="2" fill="none" />
<polyline points="355.5,214.0,357.5,198.0,341.5,190.5" stroke="black" stroke-width="2" fill="none" />
<polyline points="346.0,172.5,324.5,186.5,308.5,172.5,292.5,160.5" stroke="black" stroke-width="2" fill="none" />
<polyline points="296.0,157.0,312.0,159.0,327.5,158.5,343.5,159.0,353.0,157.5,338.5,173.5,332.5,190.0,345.0,164.5,363.0,162.5,366.5,167.0,384.5,163.0,390.5,169.0,389.0,178.5,381.5,188.5,398.0,164.5,394.0,180.5,400.5,190.5,422.5,188.0,438.5,163.5,454.0,155.5,456.0,171.0,448.0,187.0,458.0,199.0,456.0,215.0" stroke="black" stroke-width="2" fill="none" />
<polyline points="440.0,228.5,438.0,244.5" stroke="black" stroke-width="2" fill="none" />
<polyline points="433.0,231.5,433.5,233.5,427.5,249.5,429.5,276.0" stroke="black" stroke-width="2" fill="none" />
<polyline points="421.0,292.0,419.0,307.5,415.0,309.0,429.0,315.0,445.0,313.0" stroke="black" stroke-width="2" fill="none" />
<polyline points="402.0,296.5,408.0,281.0,401.5,287.0" stroke="black" stroke-width="2" fill="none" />
<polyline points="391.0,335.0,375.0,319.0,357.0,313.0,342.0,303.0,326.0,292.5,310.5,282.5,294.5,272.0,279.0,264.0,267.5,265.5,250.0,250.0,271.5,233.5,275.5,217.5,279.5,201.5,279.5,185.5,261.0,169.5,241.0,153.5,224.5,144.0,208.5,138.0,192.0,130.5,176.0,121.0" stroke="black" stroke-width="2" fill="none" />
<polyline points="178.0,116.0,194.0,124.5,210.0,134.5,226.0,140.5,242.0,148.5,258.0,160.0,274.5,163.5,290.5,173.5" stroke="black" stroke-width="2" fill="none" />
<polyline points="286.0,178.0,270.0,166.0" stroke="black" stroke-width="2" fill="none" />
<polyline points="268.0,164.0,288.0,180.0,290.0,202.0,290.0,218.5,276.0,234.5,266.0,250.5,257.5,270.5,267.0,284.5,273.0,300.5,281.5,316.0,289.5,332.0,299.5,348.0,305.5,376.5,293.5,392.5,266.0,409.0,264.0,425.0,264.0,441.5,260.0,457.5,258.0,473.0,252.0,489.0,246.0,504.5,238.0,507.0,265.5,473.0,281.5,467.0,298.0,466.5,314.0,466.0,329.5,466.0,345.0,466.0,355.0,444.0" stroke="black" stroke-width="2" fill="none" />
<polyline points="284.0,442.5,282.0,458.5" stroke="black" stroke-width="2" fill="none" />
<polyline points="279.5,444.0,275.5,460.0,287.5,472.0,304.0,471.5,320.5,471.5,336.5,469.5,352.5,471.5,368.5,469.5,384.0,469.5,399.5,469.5,405.5,469.5,421.5,465.5,437.5,465.5,451.5,465.5,468.0,465.5,484.0,463.5" stroke="black" stroke-width="2" fill="none" />
<polyline points="268.0,465.5,252.0,499.5" stroke="black" stroke-width="2" fill="none" />
<polyline points="246.5,505.5,262.5,505.5,279.0,505.5,295.5,503.5,311.5,503.5,328.0,503.5,344.0,506.0,360.5,504.0,376.5,504.0,393.0,504.5,409.0,504.5,425.0,504.5,441.0,504.0,457.0,504.0,473.0,504.0,488.5,502.0,504.0,504.0" stroke="black" stroke-width="2" fill="none" />
<polyline points="448.5,299.5,455.0,284.0,463.5,268.0,455.5,256.0,457.5,240.0" stroke="black" stroke-width="2" fill="none" />
<polyline points="489.0,247.5,491.0,231.5" stroke="black" stroke-width="2" fill="none" />
<polyline points="491.0,229.5,484.5,246.0,483.0,262.0,475.0,278.0,473.0,294.0,471.0,310.0" stroke="black" stroke-width="2" fill="none" />
<polyline points="411.0,245.5,415.0,230.0" stroke="black" stroke-width="2" fill="none" />
<polyline points="411.0,228.5,405.0,244.5" stroke="black" stroke-width="2" fill="none" />
<polyline points="395.0,236.5,387.0,252.0" stroke="black" stroke-width="2" fill="none" />
<polyline points="327.5,243.5,311.5,229.5,296.0,215.0" stroke="black" stroke-width="2" fill="none" />
<polyline points="302.5,218.5,321.0,234.5,341.0,250.5" stroke="black" stroke-width="2" fill="none" />
<polyline points="344.5,250.5,328.0,236.5,311.5,222.0,295.5,210.0,279.5,224.0,275.0,220.0,259.5,249.5,243.0,237.5,232.5,217.5,238.0,201.5,242.5,185.5,246.5,169.0,265.0,155.0,267.5,139.0,276.0,123.0,284.0,107.0,268.0,126.5,252.5,123.0,236.5,123.5,220.5,123.0" stroke="black" stroke-width="2" fill="none" />
<polyline points="224.0,125.0,240.0,133.0,255.5,140.5,273.5,146.5,290.0,159.0,306.0,153.0,322.0,153.0,337.5,153.5,354.0,155.5" stroke="black" stroke-width="2" fill="none" />
<polyline points="351.5,162.5,341.5,178.5,337.0,194.5,341.0,216.5,356.5,224.0,384.5,238.0,410.5,227.5" stroke="black" stroke-width="2" fill="none" />
<polyline points="440.5,195.5,438.5,179.5" stroke="black" stroke-width="2" fill="none" />
<polyline points="436.5,165.5,428.0,181.5,420.0,197.5,418.0,213.0" stroke="black" stroke-width="2" fill="none" />
<polyline points="403.5,191.5,405.5,175.5" stroke="black" stroke-width="2" fill="none" />
<polyline points="377.0,174.0,371.0,189.5,367.5,189.5,352.0,205.5" stroke="black" stroke-width="2" fill="none" />
<polyline points="323.0,241.5,305.0,226.0,293.0,210.0,291.0,194.5,291.0,178.5,270.5,162.5" stroke="black" stroke-width="2" fill="none" />
<polyline points="267.0,167.5,283.5,181.5" stroke="black" stroke-width="2" fill="none" />
<polyline points="288.0,196.5,272.0,180.5,259.5,152.5,243.5,142.5,228.0,132.5,212.5,126.0,196.5,117.5,180.5,111.5,164.5,117.5,148.5,111.5,133.0,108.0,117.0,118.5,99.0,124.5,83.5,122.5,67.5,122.5,51.5,122.5,35.0,122.5,19.0,122.5,3.0,122.5" stroke="black" stroke-width="2" fill="none" />
<polyline points="2.5,129.0,18.5,129.0,34.5,129.0,50.5,129.5,67.0,129.0,83.0,127.0,93.0,135.0,109.0,119.0,125.0,107.0,141.5,105.0,157.5,111.0,173.5,108.5,189.5,110.5,205.5,116.5,221.5,120.5,237.0,118.5,253.0,118.5,268.5,121.0" stroke="black" stroke-width="2" fill="none" />
<polyline points="280.5,127.0,296.0,119.0,312.0,119.5,328.0,119.5,344.0,121.5,360.0,121.5,376.0,121.5" stroke="black" stroke-width="2" fill="none" />
<polyline points="382.0,125.0,366.0,125.5,350.0,125.5,334.0,125.5,318.0,126.0,302.5,126.0,286.5,126.0" stroke="black" stroke-width="2" fill="none" />
<polyline points="283.5,123.5,265.5,131.5,269.5,153.5,285.5,165.0,301.5,175.0,317.5,188.5,334.0,206.5,350.5,196.0,367.0,192.0,371.5,176.0,386.0,158.0,412.0,160.0,417.5,168.0,407.0,167.5,398.5,183.5,382.5,200.0,388.0,207.5,378.0,223.5,374.0,231.0,378.0,245.5,392.0,247.5,388.0,263.5,392.0,279.0,394.0,295.0,400.5,303.5,398.5,319.5,396.5,335.0,408.5,351.0" stroke="black" stroke-width="2" fill="none" />
<polyline points="275.5,318.5,267.5,318.0,249.5,306.0" stroke="black" stroke-width="2" fill="none" />
<polyline points="202.5,382.0,186.5,391.5" stroke="black" stroke-width="2" fill="none" />
<polyline points="181.0,398.5,196.5,394.5,204.5,374.0,181.0,389.5,183.5,385.5,200.0,377.5,216.0,377.5,208.0,387.5,188.0,389.5,188.0,405.5,184.5,421.5,196.5,409.5,205.0,401.0,219.0,385.0,204.5,401.0,192.5,417.0" stroke="black" stroke-width="2" fill="none" />
<polyline points="140.5,381.5,124.5,381.5" stroke="black" stroke-width="2" fill="none" />
<polyline points="119.5,381.0,135.5,377.0" stroke="black" stroke-width="2" fill="none" />
<polyline points="133.5,371.5,117.5,379.5" stroke="black" stroke-width="2" fill="none" />
<polyline points="108.5,395.5,124.5,392.0,140.0,394.0" stroke="black" stroke-width="2" fill="none" />
<polyline points="128.0,350.5,112.0,352.0,96.0,349.5" stroke="black" stroke-width="2" fill="none" />
<polyline points="88.0,372.0,104.0,372.0,120.5,373.5,108.5,382.0,113.0,388.0,125.0,398.0,127.0,386.5,142.5,388.5,158.0,394.0,154.0,404.0" stroke="black" stroke-width="2" fill="none" />
<polyline points="128.5,345.5,112.5,346.0,96.0,346.0,77.5,345.5,57.0,345.5,41.0,345.5,35.0,349.0" stroke="black" stroke-width="2" fill="none" />
<polyline points="46.0,350.0,62.0,350.0" stroke="black" stroke-width="2" fill="none" />
<polyline points="66.0,373.5,62.0,389.5" stroke="black" stroke-width="2" fill="none" />
<polyline points="56.5,401.5,41.0,391.5,21.0,381.5,5.0,409.5,15.0,398.0,21.5,382.0" stroke="black" stroke-width="2" fill="none" />
<polyline points="26.0,385.5,22.0,401.5,24.0,411.5,40.0,413.5,58.0,416.0" stroke="black" stroke-width="2" fill="none" />
<polyline points="44.5,407.0,38.0,399.0,34.0,407.5,17.5,412.0,1.0,415.5" stroke="black" stroke-width="2" fill="none" />
<polyline points="37.5,435.0,31.5,451.0" stroke="black" stroke-width="2" fill="none" />
<polyline points="20.5,469.5,36.5,469.5,52.5,470.0,68.5,470.0,84.5,470.0,100.5,468.0" stroke="black" stroke-width="2" fill="none" />
<polyline points="127.0,497.5,131.0,481.5,132.5,465.5,136.5,449.5,140.5,433.5,142.5,418.0,124.0,408.5,108.0,409.0,92.0,409.0,79.5,397.0,81.5,393.0,83.5,376.5,73.5,375.0" stroke="black" stroke-width="2" fill="none" />
<polyline points="73.5,373.5,71.5,389.5,67.5,405.5" stroke="black" stroke-width="2" fill="none" />
<polyline points="52.0,405.0,38.0,389.0" stroke="black" stroke-width="2" fill="none" />
<polyline points="65.5,392.0,69.5,376.0" stroke="black" stroke-width="2" fill="none" />
<polyline points="88.0,376.5,86.0,392.0" stroke="black" stroke-width="2" fill="none" />
<polyline points="97.0,307.0,99.5,291.0,101.5,275.0,103.5,258.5,87.5,260.5" stroke="black" stroke-width="2" fill="none" />
<polyline points="75.5,268.0,74.0,252.0,76.0,236.0" stroke="black" stroke-width="2" fill="none" />
<polyline points="76.0,228.0,78.0,238.0,78.0,254.0,78.5,270.0,64.5,278.5,64.5,302.0,68.5,320.5,85.0,316.5,100.5,311.0,128.5,298.5,144.5,286.5,166.5,266.5" stroke="black" stroke-width="2" fill="none" />
<polyline points="202.5,226.0,194.0,210.0,174.0,210.0" stroke="black" stroke-width="2" fill="none" />
<polyline points="162.5,205.5,180.5,227.5,196.5,215.5,212.5,225.0" stroke="black" stroke-width="2" fill="none" />
<polyline points="209.0,224.5,207.0,240.5,192.5,256.5,190.5,272.5,178.5,288.5,170.5,304.5" stroke="black" stroke-width="2" fill="none" />
<polyline points="145.0,368.5,129.5,366.5,114.0,366.5,98.5,366.5,82.5,368.0,67.0,367.5,51.0,365.5,35.0,365.5,19.0,365.5,3.0,366.0" stroke="black" stroke-width="2" fill="none" />
<polyline points="2.0,372.5,18.0,372.0,34.0,371.5,50.0,371.5,59.5,373.5,57.5,389.5,57.5,409.0,76.0,411.0,92.5,413.5,108.5,413.5,124.5,413.5,142.5,414.0,134.0,430.0,131.5,445.5,125.5,461.5,126.0,477.5,120.0,493.5" stroke="black" stroke-width="2" fill="none" />
<polyline points="116.5,508.0,100.0,510.0,83.5,510.0,67.5,510.5,51.5,510.5,35.5,510.5,19.5,510.5" stroke="black" stroke-width="2" fill="none" />
<polyline points="18.0,506.5,34.0,507.0,49.5,507.0,65.5,505.0,82.0,506.5,98.0,504.0,113.5,502.0" stroke="black" stroke-width="2" fill="none" />
<polyline points="111.5,470.5,95.5,464.5,80.0,465.0,64.0,465.0,48.5,465.0,32.0,465.0,16.0,471.0" stroke="black" stroke-width="2" fill="none" />
<polyline points="19.5,211.5,17.5,189.5,19.5,173.5,17.5,175.5,1.5,170.0" stroke="black" stroke-width="2" fill="none" />
<polyline points="2.0,159.5,18.0,159.5,34.0,159.0,50.0,163.0,66.5,161.5,82.5,163.5,78.5,147.0,100.5,155.0,118.5,165.0" stroke="black" stroke-width="2" fill="none" />
<polyline points="103.0,158.5,107.0,174.5,113.0,174.0,133.0,178.0,130.5,194.0,128.5,209.5,134.5,233.5,140.5,250.0,136.5,266.0" stroke="black" stroke-width="2" fill="none" />
<polyline points="172.0,316.0,177.5,300.0,187.5,284.5,199.5,268.5,203.5,253.0,216.0,237.0,212.0,220.5" stroke="black" stroke-width="2" fill="none" />
<polyline points="238.0,205.5,222.5,225.0,207.0,213.5,191.0,205.5,174.5,195.5,158.5,185.5,142.5,171.5,126.5,163.5,111.0,155.5,95.0,146.0,83.0,136.0,67.0,152.5,50.5,154.5,34.5,155.0,18.0,155.0,2.0,155.0" stroke="black" stroke-width="2" fill="none" />
<polyline points="32.5,168.5,16.5,170.5,6.5,170.5,8.5,178.5,14.5,194.5,16.5,210.5,4.0,228.0,8.0,234.0,14.0,251.5,12.0,268.0,18.0,278.0,27.5,276.0,41.0,287.5,45.0,289.5" stroke="black" stroke-width="2" fill="none" />
<polyline points="91.0,253.5,83.0,273.5,85.0,257.5,89.0,239.0,75.0,222.5,76.5,206.5" stroke="black" stroke-width="2" fill="none" />
<polyline points="72.0,207.5,70.5,223.5,70.5,239.5,68.5,256.0,58.5,272.0,60.5,292.0,58.5,308.0,58.5,324.0,72.0,313.5,87.5,309.5" stroke="black" stroke-width="2" fill="none" />
<polyline points="145.0,338.5,151.5,330.0,149.5,326.0,139.5,312.0,133.5,300.0,153.5,290.0,155.5,278.0,158.0,262.0,159.5,246.0,153.5,226.5,155.5,210.5,145.5,190.5,141.5,174.5" stroke="black" stroke-width="2" fill="none" />
<polyline points="99.0,157.0,96.5,173.0,91.0,189.0" stroke="black" stroke-width="2" fill="none" />
<polyline points="94.5,149.0,122.5,164.5,136.5,180.5,136.5,196.5,132.5,220.5,130.5,236.5,135.0,252.5,133.0,268.5,143.5,278.0,161.0,282.0,177.0,262.5,203.0,244.0,227.0,242.0,235.0,249.5,248.5,257.5,264.0,279.5,276.0,301.5,291.5,331.5,307.5,353.5,323.5,352.0,339.5,352.0,355.5,353.5,373.5,351.5,389.5,353.5" stroke="black" stroke-width="2" fill="none" />
<polyline points="440.0,307.0,444.5,291.0,454.5,275.0,457.0,259.0,469.0,243.0,479.0,226.5,483.0,210.0,487.5,185.5,491.5,183.0,497.5,166.5,487.5,178.0,479.5,222.5,463.5,251.0,450.0,251.5,462.0,248.0,470.0,232.5,478.0,216.5,482.5,198.0,484.5,182.0,494.5,166.5,481.0,164.5" stroke="black" stroke-width="2" fill="none" />
<polyline points="484.5,159.5,500.5,155.5,503.0,167.0,499.0,183.0,496.5,185.0" stroke="black" stroke-width="2" fill="none" />
<polyline points="472.5,164.5,464.5,166.5,464.5,182.5,454.5,184.5,452.5,200.5,450.5,216.5" stroke="black" stroke-width="2" fill="none" />
<polyline points="448.0,184.0,431.5,180.0,423.5,204.5,427.5,188.5,435.5,182.5,441.5,174.5,455.5,158.5" stroke="black" stroke-width="2" fill="none" />
<polyline points="508.0,125.5,512.0,109.0" stroke="black" stroke-width="2" fill="none" />
<polyline points="509.0,101.5,503.0,117.5,505.5,133.5" stroke="black" stroke-width="2" fill="none" />
<polyline points="370.0,158.0,357.5,174.0,360.0,184.5,364.0,198.5,362.5,214.0,362.5,229.5" stroke="black" stroke-width="2" fill="none" />
<polyline points="277.0,160.5,301.0,176.5,319.0,192.0,333.0,207.5,347.0,223.5,363.0,239.0,377.5,255.0,386.0,271.5,388.0,287.5,392.0,303.5,392.0,319.5,396.0,339.5,412.0,345.0,428.0,347.0,444.0,347.0,460.0,343.0,476.0,343.0,492.0,339.0,507.5,339.5" stroke="black" stroke-width="2" fill="none" />
<polyline points="300.0,336.5,290.0,320.0,282.5,304.0,276.5,288.0,278.5,276.0,274.5,274.0,267.0,267.5,259.0,257.5,248.5,249.5,242.5,238.0,238.0,222.0,244.0,206.0,248.0,190.0,252.0,174.0,245.5,157.5,237.5,153.5,217.5,138.0,186.0,122.5" stroke="black" stroke-width="2" fill="none" />
<polyline points="178.0,115.5,194.0,131.5" stroke="black" stroke-width="2" fill="none" />
<polyline points="142.0,109.5,174.0,117.5,209.5,125.5,241.5,141.5,271.5,155.5,270.0,172.0,286.0,187.5,282.0,203.5" stroke="black" stroke-width="2" fill="none" />
<polyline points="418.5,262.5,402.5,264.5,378.5,252.5,365.0,238.5,347.0,214.5,342.5,210.5,348.0,206.5,342.0,198.5,324.0,188.5,308.0,172.5,284.0,156.0,241.5,135.5,211.5,119.0,169.5,109.0,137.5,103.0" stroke="black" stroke-width="2" fill="none" />
<polyline points="131.0,108.0,99.5,128.0,81.0,143.5,91.5,153.5,89.5,169.5,86.0,185.5" stroke="black" stroke-width="2" fill="none" />
</svg>