<svg xmlns="http://www.w3.org/2000/svg" width="512mm" height="512mm" viewBox="0 0 512 512" version="1.1"><polyline points="313.5,2.5,313.5,18.5,313.5,34.5,313.5,50.5,323.5,69.0,357.5,85.0,357.5,109.0,371.5,125.0,379.0,141.0,381.0,156.5,382.5,172.5,381.0,188.5,379.0,204.5,379.0,222.5,375.5,238.0" stroke="black" stroke-width="2" fill="none" />
<polyline points="365.0,237.5,349.5,237.0" stroke="black" stroke-width="2" fill="none" />
<polyline points="350.0,254.5,336.0,270.5" stroke="black" stroke-width="2" fill="none" />
<polyline points="346.5,265.5,331.0,280.0,315.0,288.5,299.5,292.5,277.5,300.5,262.0,323.0,246.0,325.0,230.5,323.0,214.0,315.0,202.0,313.0,186.0,305.0,170.0,305.0,166.0,312.5,150.0,318.0,119.5,321.5,113.5,343.5,103.5,367.5,101.5,351.0,103.5,335.0,115.5,319.0" stroke="black" stroke-width="2" fill="none" />
<polyline points="119.5,322.0,115.5,338.0,109.5,354.5,117.5,346.5" stroke="black" stroke-width="2" fill="none" />
<polyline points="121.5,346.0,117.0,346.0,111.0,361.5" stroke="black" stroke-width="2" fill="none" />
<polyline points="113.5,368.0,119.5,352.0" stroke="black" stroke-width="2" fill="none" />
<polyline points="97.5,336.0,113.5,313.5,129.5,313.5,145.5,311.5,161.5,301.5,177.0,295.5,193.5,293.5" stroke="black" stroke-width="2" fill="none" />
<polyline points="200.0,288.0,183.5,282.0,167.5,274.5,151.5,264.5,135.5,254.5,119.5,240.5" stroke="black" stroke-width="2" fill="none" />
<polyline points="123.5,236.0,139.5,250.0,155.5,260.0,171.5,270.0,187.5,277.5,204.0,283.0,220.0,291.5" stroke="black" stroke-width="2" fill="none" />
<polyline points="212.0,320.0,228.0,328.0,244.5,334.0,260.5,330.0,282.5,306.0" stroke="black" stroke-width="2" fill="none" />
<polyline points="287.0,295.5,280.5,312.0,283.0,330.0,267.0,338.0,283.0,324.0,299.0,312.0,317.0,304.5,332.5,308.5,348.5,346.5,364.5,369.0,380.5,361.0" stroke="black" stroke-width="2" fill="none" />
<polyline points="364.0,402.5,380.5,407.0,396.5,427.5,412.5,456.0" stroke="black" stroke-width="2" fill="none" />
<polyline points="404.0,458.0,392.5,440.0,386.5,438.0" stroke="black" stroke-width="2" fill="none" />
<polyline points="383.5,437.0,393.5,453.0,375.5,470.0,379.5,488.5,395.5,494.5,393.5,483.0" stroke="black" stroke-width="2" fill="none" />
<polyline points="406.0,491.5,414.0,487.5,404.0,471.5,394.0,455.5,394.0,433.0,366.5,407.0" stroke="black" stroke-width="2" fill="none" />
<polyline points="364.0,403.0,372.0,419.0,368.0,435.5,363.5,445.5,363.5,446.0,367.0,452.0,375.0,458.0,375.5,462.5,399.5,452.5" stroke="black" stroke-width="2" fill="none" />
<polyline points="408.5,477.5,393.0,447.5,392.5,432.0,376.5,434.0,360.0,440.0,344.0,424.0" stroke="black" stroke-width="2" fill="none" />
<polyline points="332.0,437.0,316.0,443.0,299.5,445.0,284.0,443.5,268.0,444.0,251.5,442.0,235.5,442.0,220.0,442.5,204.0,442.5,188.0,432.0,172.0,397.5" stroke="black" stroke-width="2" fill="none" />
<polyline points="171.5,414.5,187.5,440.5,203.5,449.0,219.5,449.0,235.0,449.0,250.5,448.5,266.5,449.0,282.5,452.5" stroke="black" stroke-width="2" fill="none" />
<polyline points="272.5,461.0,256.5,462.5,240.0,468.5,254.0,456.5" stroke="black" stroke-width="2" fill="none" />
<polyline points="252.5,477.5,268.5,477.5,285.0,477.5,301.5,479.5,317.5,483.5,334.0,493.5" stroke="black" stroke-width="2" fill="none" />
<polyline points="339.0,501.0,317.0,485.0" stroke="black" stroke-width="2" fill="none" />
<polyline points="317.5,478.5,341.0,494.5,347.0,510.5" stroke="black" stroke-width="2" fill="none" />
<polyline points="394.5,487.0,392.5,499.0,377.0,497.0,369.0,503.0,363.5,501.0,364.0,485.5,358.0,469.0,356.0,453.0,346.5,431.5,343.0,415.5,339.0,399.5,333.0,383.5,328.5,367.5,324.5,351.5,313.0,315.5,299.0,327.5,285.0,329.5,269.0,333.5,253.0,331.5,271.0,335.5,286.5,319.5,274.5,311.5,280.5,295.5,268.5,294.0,252.0,294.5,236.0,291.0,220.0,287.0,203.5,279.0,187.5,273.0,171.5,264.5,155.5,253.0" stroke="black" stroke-width="2" fill="none" />
<polyline points="172.5,220.5,189.0,236.5,207.0,253.0,233.0,269.5" stroke="black" stroke-width="2" fill="none" />
<polyline points="236.5,253.5,252.5,262.0,268.0,264.0,283.5,261.5" stroke="black" stroke-width="2" fill="none" />
<polyline points="286.0,252.5,270.5,257.0,254.5,257.5,238.5,247.0" stroke="black" stroke-width="2" fill="none" />
<polyline points="232.0,250.0,248.0,240.5,264.0,238.5,280.0,240.5" stroke="black" stroke-width="2" fill="none" />
<polyline points="278.5,236.5,295.0,252.5" stroke="black" stroke-width="2" fill="none" />
<polyline points="322.0,226.0,344.0,209.5,349.5,193.5,354.0,177.5,356.5,162.0,354.5,146.0,348.5,130.5,344.5,110.5,324.0,94.5,292.0,78.5,281.5,88.5,265.5,82.0,261.5,94.0" stroke="black" stroke-width="2" fill="none" />
<polyline points="240.0,67.5,224.0,67.0,207.5,73.0,191.5,77.0" stroke="black" stroke-width="2" fill="none" />
<polyline points="182.0,101.5,197.5,93.5,213.5,94.0,229.5,96.0,245.5,98.0,262.0,88.5,278.0,92.5,302.0,96.5" stroke="black" stroke-width="2" fill="none" />
<polyline points="318.5,108.5,351.0,130.5,357.0,146.5,359.0,162.0,357.0,178.0,355.0,193.5,349.0,209.5,355.0,219.0,345.5,235.0,317.5,253.0,295.5,269.5" stroke="black" stroke-width="2" fill="none" />
<polyline points="284.0,271.0,308.0,255.0,331.5,238.5,349.5,222.5,353.0,200.0,337.0,224.0,321.0,232.0,305.0,234.0,289.0,224.0,273.0,218.0,257.0,218.0,241.5,222.0,225.5,228.0,210.0,232.0,194.5,220.0,178.5,207.5" stroke="black" stroke-width="2" fill="none" />
<polyline points="174.5,207.5,194.5,223.5" stroke="black" stroke-width="2" fill="none" />
<polyline points="201.0,219.5,181.5,203.0,179.5,187.5,181.0,171.5,180.5,155.5,182.5,139.5,184.5,124.0,188.0,108.0,179.5,109.5,163.0,97.5,147.0,95.5,131.0,105.0" stroke="black" stroke-width="2" fill="none" />
<polyline points="136.0,111.5,151.5,101.5,167.5,103.0,179.5,119.0,175.0,135.0,175.5,151.0,176.0,167.0,174.0,183.0,170.5,199.0,160.5,214.5,148.0,230.5,162.5,249.0,178.5,259.5,194.5,268.0,210.5,276.5,226.0,282.5,242.5,286.5,258.5,288.5,274.5,288.5,290.5,288.5,306.5,284.5,322.5,280.5,339.0,268.5,355.0,254.5,361.0,244.5,377.0,236.5" stroke="black" stroke-width="2" fill="none" />
<polyline points="373.5,226.0,383.5,210.0,385.5,194.0,387.5,178.0,387.5,162.5,385.5,146.5,381.5,130.5,369.5,122.0,353.5,118.0,337.5,118.5,322.0,114.0,306.0,110.0,290.5,105.5,274.5,103.5,258.5,101.0,242.0,101.5,226.0,100.0,210.0,100.0,194.0,100.5,192.0,112.5" stroke="black" stroke-width="2" fill="none" />
<polyline points="194.5,105.5,210.5,111.5,226.5,111.5,242.5,112.0,258.0,114.5,273.5,118.5,289.5,120.5,306.0,126.5,322.0,130.5" stroke="black" stroke-width="2" fill="none" />
<polyline points="332.0,140.0,304.0,124.0" stroke="black" stroke-width="2" fill="none" />
<polyline points="275.5,156.5,260.0,151.0,244.0,155.0" stroke="black" stroke-width="2" fill="none" />
<polyline points="248.5,152.5,244.5,168.5" stroke="black" stroke-width="2" fill="none" />
<polyline points="235.0,160.5,250.5,146.5,266.5,150.0,283.0,155.5" stroke="black" stroke-width="2" fill="none" />
<polyline points="284.0,159.0,262.0,155.0" stroke="black" stroke-width="2" fill="none" />
<polyline points="249.0,146.5,236.5,162.5,240.5,170.0" stroke="black" stroke-width="2" fill="none" />
<polyline points="250.0,217.5,218.5,225.5,236.5,237.5,252.5,234.0,268.5,232.0,284.5,236.0,300.5,246.0" stroke="black" stroke-width="2" fill="none" />
<polyline points="328.5,228.0,332.5,238.0,316.0,248.0,300.0,260.0,284.5,270.5,269.0,274.5,253.0,270.0,237.0,264.0,220.5,256.0,204.5,243.5,188.0,228.0,172.0,214.0" stroke="black" stroke-width="2" fill="none" />
<polyline points="174.5,217.0,192.5,233.5,210.0,249.5,236.0,265.5" stroke="black" stroke-width="2" fill="none" />
<polyline points="246.0,255.0,254.0,238.5" stroke="black" stroke-width="2" fill="none" />
<polyline points="245.5,233.5,229.5,249.5" stroke="black" stroke-width="2" fill="none" />
<polyline points="281.5,215.0,311.5,231.0" stroke="black" stroke-width="2" fill="none" />
<polyline points="355.0,256.0,343.0,271.5,315.0,287.5" stroke="black" stroke-width="2" fill="none" />
<polyline points="309.5,304.0,305.5,320.0,307.5,330.0" stroke="black" stroke-width="2" fill="none" />
<polyline points="308.5,346.0,292.0,347.5,276.0,349.5,260.5,353.0,245.0,353.5,229.0,353.5,212.5,355.5,196.5,355.5" stroke="black" stroke-width="2" fill="none" />
<polyline points="181.5,357.5,197.5,351.5,213.5,349.5,229.5,349.5,246.0,347.5,262.0,347.5,280.5,341.5,297.0,340.0" stroke="black" stroke-width="2" fill="none" />
<polyline points="280.0,337.5,256.0,343.5,240.0,341.5,223.5,337.5,207.5,335.5,191.5,335.5,175.5,353.5" stroke="black" stroke-width="2" fill="none" />
<polyline points="195.5,329.0,213.5,320.5,231.5,336.5" stroke="black" stroke-width="2" fill="none" />
<polyline points="246.5,338.0,230.0,334.5,214.0,327.0" stroke="black" stroke-width="2" fill="none" />
<polyline points="209.5,327.5,211.0,311.5,209.0,295.5,190.5,280.0,158.5,264.0,134.0,248.5,122.0,233.0,114.0,217.0,122.0,210.5,118.0,194.5,102.0,192.5,107.5,176.5,109.5,160.5,113.5,144.5,109.0,138.5,118.5,122.5,100.5,137.0" stroke="black" stroke-width="2" fill="none" />
<polyline points="105.0,154.0,109.0,145.5,121.0,131.5,119.0,147.5,117.0,167.5,118.5,184.0,100.5,200.5,114.0,222.5" stroke="black" stroke-width="2" fill="none" />
<polyline points="171.5,205.5,163.5,221.5,150.0,237.5,166.0,254.0,195.5,270.0,233.5,286.0" stroke="black" stroke-width="2" fill="none" />
<polyline points="183.0,304.5,189.0,320.0,183.0,336.0,179.0,351.5,166.5,367.5,156.0,383.5,142.0,391.5,127.5,405.5,123.5,421.5,115.5,438.0,113.5,454.0,99.5,469.5,93.5,485.5,99.5,501.5" stroke="black" stroke-width="2" fill="none" />
<polyline points="105.5,505.5,111.5,489.5,108.0,481.5,126.0,479.5,120.0,476.0,104.0,486.5" stroke="black" stroke-width="2" fill="none" />
<polyline points="112.0,486.5,128.0,486.5,148.0,470.5,166.0,454.0,181.5,465.5,197.5,473.5,213.5,477.0" stroke="black" stroke-width="2" fill="none" />
<polyline points="222.5,465.5,206.5,461.5" stroke="black" stroke-width="2" fill="none" />
<polyline points="192.0,476.0,176.0,468.0,160.0,456.0" stroke="black" stroke-width="2" fill="none" />
<polyline points="161.5,452.0,183.5,468.0,187.5,486.0,168.0,501.5,174.5,505.5,184.5,507.5,198.5,487.5,214.5,483.5,230.0,477.5,245.5,477.5,261.5,471.5,277.5,465.5,299.5,467.5,315.5,457.5,332.0,445.5,348.0,447.5,364.0,465.5,383.5,477.0,399.0,477.0" stroke="black" stroke-width="2" fill="none" />
<polyline points="331.5,484.0,316.0,478.0,300.0,474.5,314.0,458.0" stroke="black" stroke-width="2" fill="none" />
<polyline points="373.5,406.0,389.5,422.0,398.0,430.0,408.0,446.0,414.0,462.5,418.0,478.5,420.0,494.5,414.5,510.0,406.5,504.0,410.5,503.5" stroke="black" stroke-width="2" fill="none" />
<polyline points="456.5,396.5,472.5,390.5,496.5,380.5" stroke="black" stroke-width="2" fill="none" />
<polyline points="498.0,377.5,454.0,391.5,450.0,407.5,450.0,423.5,450.0,440.0,466.0,446.0,481.5,446.0,497.5,445.5" stroke="black" stroke-width="2" fill="none" />
<polyline points="498.5,376.0,482.5,382.0,460.5,390.0,444.5,384.0,444.5,368.5,442.5,352.5" stroke="black" stroke-width="2" fill="none" />
<polyline points="438.0,342.0,437.5,358.0,437.0,373.5,439.0,389.5,453.0,407.5,453.0,424.0,453.0,440.0,465.0,442.0,481.5,442.0,497.5,440.0" stroke="black" stroke-width="2" fill="none" />
<polyline points="425.0,340.5,409.0,364.0,407.5,373.5,419.5,357.0,429.5,340.5,439.5,324.0" stroke="black" stroke-width="2" fill="none" />
<polyline points="438.0,322.5,428.0,338.0,415.5,354.5,403.5,370.5,400.0,386.5,410.5,372.5,426.5,348.5" stroke="black" stroke-width="2" fill="none" />
<polyline points="377.5,364.0,385.5,347.5,381.5,331.5,375.5,315.5" stroke="black" stroke-width="2" fill="none" />
<polyline points="365.0,309.0,365.0,315.0,349.0,319.5,325.0,306.0" stroke="black" stroke-width="2" fill="none" />
<polyline points="311.0,307.5,315.0,323.5,321.0,339.5,320.5,355.5,324.0,371.0,328.0,387.0,334.0,403.0,338.0,419.5,334.0,436.0,320.0,454.5,292.0,466.5" stroke="black" stroke-width="2" fill="none" />
<polyline points="190.0,436.0,179.5,420.0,165.5,412.0,167.5,396.0,171.5,380.0,175.5,363.5,159.0,378.0,143.0,396.0" stroke="black" stroke-width="2" fill="none" />
<polyline points="136.0,408.0,152.0,414.0,174.0,420.0,182.0,436.0" stroke="black" stroke-width="2" fill="none" />
<polyline points="167.0,446.5,189.0,462.5,204.5,485.0,186.5,501.0,170.0,507.5,189.5,499.5,173.5,507.5,174.0,493.5,190.0,485.5" stroke="black" stroke-width="2" fill="none" />
<polyline points="190.5,476.0,164.5,460.0" stroke="black" stroke-width="2" fill="none" />
<polyline points="161.0,429.5,153.0,445.5,159.0,450.0,151.5,466.5,150.0,482.5,142.5,499.0,136.5,508.5" stroke="black" stroke-width="2" fill="none" />
<polyline points="136.5,476.5,120.0,479.0" stroke="black" stroke-width="2" fill="none" />
<polyline points="102.5,474.5,118.5,456.0,134.5,445.5,150.5,421.5,158.0,429.0,174.0,445.5,191.5,463.5,207.5,471.5,209.5,468.0,226.0,474.0" stroke="black" stroke-width="2" fill="none" />
<polyline points="116.5,437.5,116.5,413.5,132.5,396.0,142.5,388.0,158.5,354.0" stroke="black" stroke-width="2" fill="none" />
<polyline points="156.5,345.0,140.5,364.5,124.5,366.0,136.0,370.0,152.0,355.5,158.0,339.5,162.5,323.0" stroke="black" stroke-width="2" fill="none" />
<polyline points="168.0,304.0,170.0,314.0,169.5,328.0,163.0,343.5,156.5,359.5,148.5,376.0,138.0,377.5,136.0,391.5,120.0,407.0,114.0,423.5,126.0,435.5,120.0,441.5,132.0,451.0,144.0,467.0,146.5,473.5,140.5,489.5,114.5,507.0,124.5,507.0,142.5,493.0" stroke="black" stroke-width="2" fill="none" />
<polyline points="132.5,497.0,112.5,509.5,112.5,493.5,102.0,475.0,116.0,459.0,110.0,459.5,94.0,481.5" stroke="black" stroke-width="2" fill="none" />
<polyline points="116.0,424.5,140.0,425.0,129.5,431.0,141.5,433.0,136.0,454.5,144.0,452.0,159.5,442.0,171.0,450.0,187.0,456.0,203.5,464.0,219.5,460.0" stroke="black" stroke-width="2" fill="none" />
<polyline points="138.0,369.0,122.0,381.0,108.0,379.0,104.0,373.0,96.0,357.0,98.0,341.0,104.0,325.5,120.0,309.5" stroke="black" stroke-width="2" fill="none" />
<polyline points="160.5,320.0,144.5,324.0,128.5,326.0,145.0,313.5,169.0,297.5" stroke="black" stroke-width="2" fill="none" />
<polyline points="311.0,307.5,327.5,311.5,343.0,313.5,359.0,303.5,374.5,310.0,372.0,318.0,360.0,319.5,354.5,339.0,366.5,323.5,357.0,315.5,355.0,331.5,357.0,343.5" stroke="black" stroke-width="2" fill="none" />
<polyline points="362.5,368.0,350.5,351.5,345.0,335.5,337.0,320.0,357.0,304.0" stroke="black" stroke-width="2" fill="none" />
<polyline points="407.0,325.5,407.0,310.0,407.0,294.0,407.0,278.5,407.0,262.5,405.0,246.5" stroke="black" stroke-width="2" fill="none" />
<polyline points="401.0,242.5,401.0,258.5,400.5,274.5,400.5,290.5,400.5,306.5,402.5,322.5,402.5,338.0,402.0,354.0" stroke="black" stroke-width="2" fill="none" />
<polyline points="482.5,212.0,508.5,200.0" stroke="black" stroke-width="2" fill="none" />
<polyline points="495.0,196.0,481.0,213.5,491.0,197.5,486.5,177.5,502.5,162.0,504.5,152.0,488.0,168.5,474.0,192.5,480.0,177.0,496.0,161.0,508.0,157.5,492.5,171.0,476.5,193.0" stroke="black" stroke-width="2" fill="none" />
<polyline points="439.5,108.5,439.5,124.5,439.0,140.5,441.0,156.5,438.5,172.0,440.5,188.0,440.5,203.5,441.0,219.5,441.0,235.5,441.5,251.0,441.5,267.0,441.5,283.0" stroke="black" stroke-width="2" fill="none" />
<polyline points="400.5,105.5,401.0,89.5,399.0,73.5,401.0,57.5,401.0,41.5,401.0,25.5,401.0,9.5,398.5,3.5" stroke="black" stroke-width="2" fill="none" />
<polyline points="403.5,25.0,403.5,41.0,403.5,57.0,403.5,73.5,404.0,90.0,404.0,106.5" stroke="black" stroke-width="2" fill="none" />
<polyline points="374.0,118.0,358.0,103.5,341.5,99.5,325.5,85.5,309.0,83.5,292.5,77.5,276.5,73.5,260.5,71.5,245.0,74.0,229.0,74.5,213.5,74.5,195.5,72.5,180.0,83.0,162.0,83.0,146.5,89.0,130.0,95.0,114.0,115.0" stroke="black" stroke-width="2" fill="none" />
<polyline points="107.0,115.5,123.5,92.0,140.0,83.5,156.0,77.0,172.5,61.0,188.5,51.0,204.5,47.0,221.0,47.5,237.0,51.5,252.5,59.0,268.5,67.0,284.5,67.5,300.5,73.0,324.0,90.5,340.0,105.0" stroke="black" stroke-width="2" fill="none" />
<polyline points="359.0,80.0,343.0,74.0,327.0,68.0,311.0,68.0,295.0,62.0,279.0,54.0" stroke="black" stroke-width="2" fill="none" />
<polyline points="278.0,49.5,302.0,65.5,331.5,75.5,353.5,87.5" stroke="black" stroke-width="2" fill="none" />
<polyline points="310.0,62.0,294.0,55.5,278.0,49.5" stroke="black" stroke-width="2" fill="none" />
<polyline points="292.0,72.5,325.5,74.0,341.5,79.5" stroke="black" stroke-width="2" fill="none" />
<polyline points="298.0,97.5,282.0,99.5,266.0,97.5,260.0,85.5,254.0,83.5,250.0,59.5,236.0,51.0" stroke="black" stroke-width="2" fill="none" />
<polyline points="197.0,48.0,169.5,64.0,155.0,79.5,163.5,75.5,179.5,71.5,184.0,67.5,202.0,53.5,218.5,54.0,234.5,56.0,257.0,76.5,273.0,80.5,289.0,84.5,299.0,102.5,315.0,106.0,331.0,110.0,347.0,125.5" stroke="black" stroke-width="2" fill="none" />
<polyline points="334.0,218.5,318.0,228.5,302.0,224.0,286.0,215.5,270.0,211.0,254.0,213.0,238.0,217.0,222.5,223.5,207.0,223.5,191.0,209.5,175.0,205.5,160.5,216.0,144.5,236.0,152.0,214.0,158.0,198.0,157.5,182.0,155.5,166.5,155.5,150.5,151.5,134.5,151.5,118.5,145.5,102.5" stroke="black" stroke-width="2" fill="none" />
<polyline points="142.0,102.0,135.5,118.0,134.0,134.5,132.0,150.5,130.5,166.0,130.5,181.5,131.0,198.0,135.0,214.0,139.0,230.0,137.0,238.0,153.0,236.0,169.0,217.5,185.0,233.0,201.0,247.0,217.0,259.0,232.5,269.0,249.0,275.0,265.0,277.0,281.0,277.5,297.0,269.5,313.0,258.0,329.0,245.5,345.0,241.5,349.0,223.5" stroke="black" stroke-width="2" fill="none" />
<polyline points="437.0,274.0,439.0,258.0,439.0,242.0,438.5,226.0,436.5,210.0,436.5,193.5,436.5,177.5,436.5,162.0,437.0,146.0,437.0,130.0,437.0,114.5,441.0,98.5" stroke="black" stroke-width="2" fill="none" />
<polyline points="344.0,101.5,326.0,85.5,316.0,65.0,319.5,49.5,319.5,33.5,319.0,17.5,319.0,1.5" stroke="black" stroke-width="2" fill="none" />
<polyline points="135.5,85.5,117.5,101.5,107.5,117.5,97.5,133.0,95.5,149.0,95.5,164.5,94.0,180.5,98.5,196.0,111.0,212.0,117.5,228.0,124.0,244.0,144.0,260.0,171.5,276.0,203.0,291.5,200.5,313.5,194.5,330.0,182.0,359.5,178.0,375.5,174.0,391.0,174.0,407.5,170.0,423.5,164.0,439.5,188.0,455.0,220.0,471.0,240.5,465.5,256.5,457.5,272.5,455.0,290.5,467.0,296.5,455.0,312.5,449.5" stroke="black" stroke-width="2" fill="none" />
<polyline points="22.5,360.5,24.5,344.5,24.5,318.0,26.5,302.0,27.0,284.0,27.0,268.0,26.5,252.0,26.5,235.5,26.0,219.5,25.5,203.5,27.0,187.5,25.0,172.0" stroke="black" stroke-width="2" fill="none" />
<polyline points="25.5,162.5,35.5,178.5,41.5,194.5,41.5,210.5,41.5,226.0,42.0,242.0,41.5,258.0,41.5,274.0,41.5,290.0,41.5,306.0,41.5,322.0,41.5,338.0,41.0,354.5,41.0,370.5,41.5,386.5,41.5,402.5,41.5,418.5,45.5,434.0" stroke="black" stroke-width="2" fill="none" />
<polyline points="38.0,173.0,22.0,161.0" stroke="black" stroke-width="2" fill="none" />
<polyline points="14.5,145.0,30.5,159.0,46.5,169.0" stroke="black" stroke-width="2" fill="none" />
<polyline points="45.0,160.5,29.0,150.5,13.0,138.5" stroke="black" stroke-width="2" fill="none" />
<polyline points="12.5,139.5,22.0,155.5,22.0,171.5,22.0,187.0,22.0,203.0,20.5,218.5,20.5,234.5,20.0,250.5,20.0,266.5,20.0,282.5,20.0,298.5,20.0,314.0,19.5,330.5,17.5,346.5,18.0,362.5,20.5,374.5" stroke="black" stroke-width="2" fill="none" />
<polyline points="48.0,415.0,48.5,399.0,46.5,382.5,46.5,366.0,46.0,350.0,46.0,333.5,46.0,317.5,46.5,301.0,46.5,285.5,46.5,270.0,46.5,254.0,47.0,238.5,46.5,222.5,46.5,206.5,46.5,190.5,38.5,174.5,34.5,156.5,16.5,140.5" stroke="black" stroke-width="2" fill="none" />
<polyline points="46.0,85.5,46.0,69.5" stroke="black" stroke-width="2" fill="none" />
<polyline points="134.5,91.0,120.5,106.5,112.5,122.5,102.5,138.5,102.5,156.5,100.5,172.5,105.0,180.5,115.0,194.5" stroke="black" stroke-width="2" fill="none" />
<polyline points="151.0,185.0,149.0,169.5,149.0,153.5,147.0,138.0,143.0,122.5,143.0,106.5" stroke="black" stroke-width="2" fill="none" />
<polyline points="141.0,97.0,132.5,113.0,129.0,129.0,126.5,145.0,126.5,160.5,124.0,176.5,124.5,192.5,127.0,208.0,131.5,224.0,137.5,239.5,155.5,252.0,179.5,268.0,213.5,284.0" stroke="black" stroke-width="2" fill="none" />
</svg>