<svg xmlns="http://www.w3.org/2000/svg" width="512mm" height="512mm" viewBox="0 0 512 512" version="1.1"><polyline points="365.5,26.5,367.5,42.5,367.5,58.5,357.5,78.5,363.5,95.0,355.5,111.0,355.5,111.0" stroke="black" stroke-width="2" fill="none" />
<polyline points="380.0,111.0,395.5,111.5,409.5,91.5,403.5,107.5,424.0,124.0,436.0,140.0,438.0,156.0,435.5,172.5,429.5,189.0" stroke="black" stroke-width="2" fill="none" />
<polyline points="436.0,197.0,444.0,213.0,425.5,229.0,433.5,239.0" stroke="black" stroke-width="2" fill="none" />
<polyline points="446.0,256.0,461.5,233.5" stroke="black" stroke-width="2" fill="none" />
<polyline points="447.5,216.5,461.5,232.5,441.5,240.5,443.5,256.5,441.5,272.0,442.0,280.0,453.5,296.0" stroke="black" stroke-width="2" fill="none" />
<polyline points="452.5,310.0,436.5,320.0,420.5,322.0,404.5,329.5,402.5,329.5,418.0,325.5" stroke="black" stroke-width="2" fill="none" />
<polyline points="444.5,331.5,460.5,309.5,477.0,313.0,493.0,315.0,508.5,315.0" stroke="black" stroke-width="2" fill="none" />
<polyline points="508.5,294.0,492.5,309.5,476.5,309.5,461.0,299.5,445.0,281.5" stroke="black" stroke-width="2" fill="none" />
<polyline points="460.5,309.0,448.5,325.5,444.0,341.5,448.0,357.5,462.0,374.0" stroke="black" stroke-width="2" fill="none" />
<polyline points="455.0,384.5,481.0,400.5,493.0,416.5,499.0,432.0,507.0,448.0,493.0,457.5" stroke="black" stroke-width="2" fill="none" />
<polyline points="505.0,422.5,485.0,404.5,483.5,392.5,455.5,376.5,441.5,360.0,437.0,344.0,441.0,327.5,449.0,311.0,447.5,295.0,435.0,279.0,447.0,271.0,449.0,255.0,459.0,239.5,451.0,213.5,441.0,198.0,439.5,182.5,444.0,166.5,444.0,151.0,442.0,135.0,450.5,108.5,446.0,92.5,439.5,100.0,449.5,84.0,453.5,68.0,461.0,52.0,477.5,35.5,489.0,33.5,472.5,45.5,456.0,67.5" stroke="black" stroke-width="2" fill="none" />
<polyline points="466.0,69.5,470.0,63.5,466.0,80.0,466.0,96.0,468.0,112.5,466.0,108.5,476.0,100.5" stroke="black" stroke-width="2" fill="none" />
<polyline points="457.5,116.0,447.5,102.5,437.5,122.5,427.5,106.5,427.5,90.5,429.5,74.5" stroke="black" stroke-width="2" fill="none" />
<polyline points="433.0,76.5,431.0,92.5,433.0,108.0,431.0,111.5,447.0,85.5,463.0,49.0,479.5,33.0,500.0,21.5,504.0,35.5" stroke="black" stroke-width="2" fill="none" />
<polyline points="505.0,41.5,497.0,25.5" stroke="black" stroke-width="2" fill="none" />
<polyline points="489.0,34.0,469.5,50.0,459.0,65.5,453.5,81.5,459.5,97.5,444.0,105.5,454.0,109.5,452.5,136.0,450.5,152.0,457.0,144.5,467.0,124.5,495.0,120.5,511.0,118.5" stroke="black" stroke-width="2" fill="none" />
<polyline points="489.5,152.5,484.0,138.0,486.5,122.0,489.0,106.0,491.0,90.0,501.0,74.0,489.0,58.5,489.0,58.5" stroke="black" stroke-width="2" fill="none" />
<polyline points="493.5,57.5,510.0,53.5" stroke="black" stroke-width="2" fill="none" />
<polyline points="494.0,57.5,504.0,73.5,499.5,91.5,495.5,107.5,493.5,129.5,496.0,146.0" stroke="black" stroke-width="2" fill="none" />
<polyline points="502.0,151.5,476.0,149.5,460.0,147.0,444.0,157.5" stroke="black" stroke-width="2" fill="none" />
<polyline points="429.5,126.0,414.0,114.0" stroke="black" stroke-width="2" fill="none" />
<polyline points="429.5,120.5,413.5,108.5,397.0,108.0,381.0,108.0" stroke="black" stroke-width="2" fill="none" />
<polyline points="361.0,91.5,349.0,75.5,334.5,61.5" stroke="black" stroke-width="2" fill="none" />
<polyline points="338.5,74.5,354.5,80.5" stroke="black" stroke-width="2" fill="none" />
<polyline points="384.0,100.0,368.0,113.5,351.5,127.5,331.5,141.5,315.0,145.5,298.5,137.5,282.5,123.5" stroke="black" stroke-width="2" fill="none" />
<polyline points="288.0,131.5,304.0,145.5" stroke="black" stroke-width="2" fill="none" />
<polyline points="328.5,154.5,348.5,170.5,356.5,186.5,360.5,202.5,356.5,218.5,348.5,234.5,357.0,230.5,376.5,222.0,392.5,222.0,408.5,229.5,424.5,247.0,444.0,273.5,446.0,293.5" stroke="black" stroke-width="2" fill="none" />
<polyline points="439.5,353.0,456.0,375.0,472.0,384.5,488.0,384.0,504.5,372.0" stroke="black" stroke-width="2" fill="none" />
<polyline points="500.0,370.0,510.0,355.5,494.0,373.5,478.0,379.5,462.0,371.5,446.0,353.5" stroke="black" stroke-width="2" fill="none" />
<polyline points="441.0,389.5,457.5,389.5,473.5,399.5,489.5,420.0" stroke="black" stroke-width="2" fill="none" />
<polyline points="500.5,446.5,484.0,461.0,467.5,467.0,451.5,459.5,435.5,437.5" stroke="black" stroke-width="2" fill="none" />
<polyline points="432.5,440.5,448.0,462.0,464.0,470.0,480.0,470.0,504.0,449.5" stroke="black" stroke-width="2" fill="none" />
<polyline points="457.5,464.0,439.5,448.5,433.5,432.5,435.5,416.5,435.5,400.0,431.5,386.0,415.5,390.5" stroke="black" stroke-width="2" fill="none" />
<polyline points="415.5,388.5,431.0,380.5,441.0,386.5,431.0,402.5,430.5,416.0,430.0,432.0,434.0,448.0,447.5,464.0" stroke="black" stroke-width="2" fill="none" />
<polyline points="427.0,421.5,411.5,424.0,396.0,430.0,404.0,426.0" stroke="black" stroke-width="2" fill="none" />
<polyline points="402.5,411.0,418.5,402.5,420.5,406.5,440.0,386.0,455.5,384.0,471.0,392.0,487.5,398.0,503.5,386.0,509.5,408.5" stroke="black" stroke-width="2" fill="none" />
<polyline points="504.0,409.5,498.0,393.5,505.5,377.5,511.5,361.5" stroke="black" stroke-width="2" fill="none" />
<polyline points="456.0,390.5,478.0,406.5,490.0,422.0,494.0,438.0,488.0,453.5" stroke="black" stroke-width="2" fill="none" />
<polyline points="425.5,325.0,407.5,330.5,380.0,349.0,364.0,363.0" stroke="black" stroke-width="2" fill="none" />
<polyline points="342.5,377.0,342.5,373.0,358.0,371.5,360.0,397.0" stroke="black" stroke-width="2" fill="none" />
<polyline points="334.5,400.0,318.5,380.0" stroke="black" stroke-width="2" fill="none" />
<polyline points="321.0,374.5,331.0,390.5,342.5,406.5" stroke="black" stroke-width="2" fill="none" />
<polyline points="356.0,401.5,352.0,385.5,332.0,391.0,316.5,371.0" stroke="black" stroke-width="2" fill="none" />
<polyline points="314.5,372.5,321.0,388.5,333.0,404.5,323.0,420.5" stroke="black" stroke-width="2" fill="none" />
<polyline points="307.0,435.5,291.5,431.0" stroke="black" stroke-width="2" fill="none" />
<polyline points="289.0,423.5,305.5,423.5" stroke="black" stroke-width="2" fill="none" />
<polyline points="297.0,417.5,297.0,433.5,292.5,462.0,308.5,444.0,324.5,438.0" stroke="black" stroke-width="2" fill="none" />
<polyline points="356.5,400.5,340.5,394.0,328.5,363.5,312.5,355.0,296.0,362.5" stroke="black" stroke-width="2" fill="none" />
<polyline points="300.5,358.5,293.0,374.5,293.0,391.0,293.0,407.5,305.0,423.5,303.0,439.5,311.0,439.5,311.0,449.5,326.5,443.0" stroke="black" stroke-width="2" fill="none" />
<polyline points="322.5,434.0,306.0,416.0,290.0,402.0" stroke="black" stroke-width="2" fill="none" />
<polyline points="289.0,398.0,295.0,360.0,311.0,350.0,327.0,364.0,339.0,380.0,341.0,394.0,341.0,414.0,331.0,434.0" stroke="black" stroke-width="2" fill="none" />
<polyline points="286.0,454.5,270.0,458.5,254.0,458.0" stroke="black" stroke-width="2" fill="none" />
<polyline points="246.0,463.0,262.0,454.5,278.5,450.0" stroke="black" stroke-width="2" fill="none" />
<polyline points="262.5,428.5,242.5,426.5,248.0,412.5,258.0,402.5,241.5,410.5,225.5,418.5,220.0,428.5,230.5,414.0,256.5,407.5,240.5,415.5,224.5,421.5" stroke="black" stroke-width="2" fill="none" />
<polyline points="216.0,424.5,232.0,432.5" stroke="black" stroke-width="2" fill="none" />
<polyline points="169.5,464.0,153.5,470.0,153.5,476.0" stroke="black" stroke-width="2" fill="none" />
<polyline points="142.0,467.0,158.5,462.5,175.0,459.0,191.0,459.0" stroke="black" stroke-width="2" fill="none" />
<polyline points="149.0,406.0,123.0,419.5,139.0,411.5" stroke="black" stroke-width="2" fill="none" />
<polyline points="112.0,421.0,96.0,431.5,79.5,446.0,63.0,453.5" stroke="black" stroke-width="2" fill="none" />
<polyline points="43.5,444.0,29.5,450.0" stroke="black" stroke-width="2" fill="none" />
<polyline points="39.0,430.5,5.0,446.0,17.0,440.0,33.0,431.5,48.5,427.5,64.0,427.5,80.0,419.5,95.5,415.5,111.5,413.5,127.5,408.0,143.5,402.0,159.5,399.5,175.5,393.5,191.5,385.5,207.5,379.5,223.0,379.5,239.5,371.5,256.0,363.0,272.0,355.5" stroke="black" stroke-width="2" fill="none" />
<polyline points="276.5,267.0,292.5,281.5,308.5,285.0,336.0,270.5,352.0,287.0,368.0,301.0,385.5,311.0,401.0,309.0,416.5,297.0" stroke="black" stroke-width="2" fill="none" />
<polyline points="412.0,296.5,396.0,306.0,380.5,304.0,364.5,292.0,348.5,268.0" stroke="black" stroke-width="2" fill="none" />
<polyline points="341.5,269.0,349.5,285.0,365.5,301.5,379.5,317.5,381.5,334.0,373.5,350.0,349.5,366.0,363.5,381.5,349.5,393.5,349.5,416.0" stroke="black" stroke-width="2" fill="none" />
<polyline points="372.0,353.0,356.0,365.0,339.5,366.5,323.5,352.5,307.0,334.0,283.0,350.0,277.0,332.0,261.0,326.0,253.0,336.0,237.0,334.0,221.0,338.0,213.5,344.0,197.5,352.0,208.0,338.0,192.5,354.0,176.5,357.5" stroke="black" stroke-width="2" fill="none" />
<polyline points="179.5,352.5,163.5,357.0" stroke="black" stroke-width="2" fill="none" />
<polyline points="163.0,330.0,179.0,324.0,195.5,321.5,211.5,318.0,227.5,316.0,243.5,312.0" stroke="black" stroke-width="2" fill="none" />
<polyline points="294.0,277.5,277.5,261.5,269.5,251.5,272.0,236.0,290.5,228.0,274.5,245.5" stroke="black" stroke-width="2" fill="none" />
<polyline points="278.5,228.0,266.0,260.0,258.0,241.5,250.0,233.5,234.0,237.5,216.0,228.0,200.0,224.0,184.5,224.0,180.5,228.0,164.5,228.0,148.5,224.0,146.5,216.0,130.5,221.5,114.5,227.5,106.5,229.5,100.5,226.0,92.5,226.0,84.5,238.5,68.5,240.5,52.0,242.5,37.5,236.5,17.5,246.5,2.0,246.0,2.0,252.5" stroke="black" stroke-width="2" fill="none" />
<polyline points="2.5,257.0,18.0,253.5,34.0,251.5,50.0,250.0,66.5,248.0,82.5,248.5,98.5,241.0,114.0,237.0,129.5,237.0,145.5,232.5" stroke="black" stroke-width="2" fill="none" />
<polyline points="171.5,220.5,187.5,218.5,203.5,221.0,219.5,219.0,235.0,219.0,250.5,220.5" stroke="black" stroke-width="2" fill="none" />
<polyline points="245.5,253.5,229.5,253.5,213.5,253.5" stroke="black" stroke-width="2" fill="none" />
<polyline points="209.5,210.0,193.5,209.5,178.0,209.5" stroke="black" stroke-width="2" fill="none" />
<polyline points="175.5,185.5,191.5,187.5,213.5,181.5,229.5,181.5" stroke="black" stroke-width="2" fill="none" />
<polyline points="242.0,134.0,258.0,116.0,274.5,112.0,286.5,100.0" stroke="black" stroke-width="2" fill="none" />
<polyline points="271.0,90.5,286.5,66.5,302.5,60.0,319.0,63.5,335.5,71.5,352.0,71.5,378.0,85.5,402.0,77.5" stroke="black" stroke-width="2" fill="none" />
<polyline points="407.5,63.5,401.5,79.5,387.5,95.5,373.5,111.0" stroke="black" stroke-width="2" fill="none" />
<polyline points="344.0,91.0,327.5,76.5,311.5,64.5,296.0,65.0,280.0,81.0" stroke="black" stroke-width="2" fill="none" />
<polyline points="297.0,66.5,281.0,82.5,279.0,98.0,287.0,100.0,288.5,106.0,282.5,121.5,292.5,137.5,302.5,154.0,290.5,170.0,285.0,186.0,283.0,202.0,293.0,222.0,307.0,237.5,340.5,253.5,330.5,270.0,316.0,292.0,310.5,308.0,296.5,324.0,298.5,326.0,296.5,342.5,284.5,360.5,246.5,374.0,222.5,385.5,180.5,395.5,150.0,411.0,130.0,427.5,115.5,427.5,91.5,435.5" stroke="black" stroke-width="2" fill="none" />
<polyline points="87.0,417.5,60.5,434.0,15.0,446.0,21.0,458.0,17.0,466.0,11.0,472.0,21.0,458.5,36.5,444.5,38.5,448.5,56.5,437.0,74.5,429.0,90.5,427.0,104.5,439.0,124.5,435.5,141.0,421.0,157.0,409.0,173.0,401.0,189.0,395.0,205.0,389.0,219.5,389.0,235.5,383.0,251.5,372.5,267.5,366.5" stroke="black" stroke-width="2" fill="none" />
<polyline points="235.5,298.0,220.0,304.5,204.0,306.5,188.0,304.0,172.0,305.5" stroke="black" stroke-width="2" fill="none" />
<polyline points="170.0,306.0,186.0,300.0,212.5,283.5" stroke="black" stroke-width="2" fill="none" />
<polyline points="232.5,324.5,216.5,326.0,200.0,328.0,184.0,328.0,168.0,330.0" stroke="black" stroke-width="2" fill="none" />
<polyline points="171.5,293.5,156.0,293.5" stroke="black" stroke-width="2" fill="none" />
<polyline points="158.0,282.0,174.0,284.0" stroke="black" stroke-width="2" fill="none" />
<polyline points="155.0,273.0,171.0,273.5,187.0,273.5,203.5,273.5,220.0,274.0,228.5,282.0,244.5,281.5" stroke="black" stroke-width="2" fill="none" />
<polyline points="244.0,289.5,228.0,289.5,222.0,279.5,206.0,278.0,202.0,298.0,186.5,288.0,170.5,290.0,154.5,294.0,138.5,294.0,122.5,292.0,118.5,301.5,102.5,301.5" stroke="black" stroke-width="2" fill="none" />
<polyline points="88.0,330.5,104.0,331.0,119.5,331.0,135.5,331.0" stroke="black" stroke-width="2" fill="none" />
<polyline points="130.0,335.0,114.5,335.0,98.0,335.0,82.0,335.0" stroke="black" stroke-width="2" fill="none" />
<polyline points="76.0,362.0,60.0,362.5" stroke="black" stroke-width="2" fill="none" />
<polyline points="61.0,354.0,77.0,353.5,93.0,353.5,109.0,349.5,125.0,345.5" stroke="black" stroke-width="2" fill="none" />
<polyline points="135.0,350.5,118.5,352.5,102.5,358.5,86.5,361.0,68.0,358.5,51.5,362.5,33.0,362.0,17.0,359.5,1.0,357.5" stroke="black" stroke-width="2" fill="none" />
<polyline points="1.5,361.0,17.5,363.0,33.5,366.0,55.5,366.5,71.5,366.5,99.5,367.0,116.0,366.5,132.0,366.5,148.0,360.0,159.5,342.0,176.0,342.0,192.0,342.0" stroke="black" stroke-width="2" fill="none" />
<polyline points="179.5,364.0,163.5,367.5,148.0,369.5,131.5,373.5,115.5,377.5,99.5,383.5,83.5,387.5,75.5,393.0,55.5,401.5,39.5,404.0,34.0,390.0,18.0,388.5,2.0,390.0" stroke="black" stroke-width="2" fill="none" />
<polyline points="2.0,384.5,18.0,382.5,34.5,384.5,50.5,385.0,66.5,387.0,68.5,377.0,84.5,377.0,100.5,371.5,104.5,361.5,120.5,361.5,136.5,359.5,152.5,352.0,160.0,338.0,175.5,338.0,191.5,336.0" stroke="black" stroke-width="2" fill="none" />
<polyline points="254.5,322.5,230.5,330.0,216.5,322.5,194.5,318.0,176.0,318.0,160.0,318.0,144.0,318.0,128.5,321.5,112.5,324.0,96.5,326.0,80.0,326.5,64.0,326.5,48.0,326.5,36.0,334.0,20.0,334.0,3.5,334.0,1.5,350.0" stroke="black" stroke-width="2" fill="none" />
<polyline points="9.0,350.5,25.0,354.5,41.0,350.5" stroke="black" stroke-width="2" fill="none" />
<polyline points="33.5,376.0,17.5,374.0,1.5,374.0" stroke="black" stroke-width="2" fill="none" />
<polyline points="3.0,368.5,19.0,368.5,34.5,369.0" stroke="black" stroke-width="2" fill="none" />
<polyline points="5.5,396.5,21.0,394.5,37.0,394.5,52.5,398.0,68.0,396.0" stroke="black" stroke-width="2" fill="none" />
<polyline points="106.0,373.5,90.0,380.0,74.0,382.0,64.5,392.5,39.0,399.0,23.0,399.0,7.0,399.0" stroke="black" stroke-width="2" fill="none" />
<polyline points="2.5,452.0,18.5,444.0,34.5,437.5,50.0,431.0" stroke="black" stroke-width="2" fill="none" />
<polyline points="28.0,349.5,18.0,339.0,2.0,337.0" stroke="black" stroke-width="2" fill="none" />
<polyline points="2.0,329.5,18.0,329.5,34.0,329.5,46.0,321.5,62.0,322.0,78.0,322.0,93.5,320.0,109.5,319.5,125.5,315.5,141.0,314.0,157.0,314.0,173.0,312.0,189.5,313.5,205.5,310.0,221.5,308.0,237.5,306.0,253.5,300.0,266.0,312.0,284.5,322.0,300.5,322.0,316.5,306.0,334.5,294.0,342.0,296.0" stroke="black" stroke-width="2" fill="none" />
<polyline points="338.5,267.5,324.5,283.5,319.5,299.5,314.0,315.5,314.0,331.5,320.0,348.0,296.0,358.0,286.5,373.5,286.5,389.5,284.0,405.0,290.0,421.0,292.0,437.0,302.0,457.5" stroke="black" stroke-width="2" fill="none" />
<polyline points="305.5,313.5,290.0,319.5,274.5,313.5,248.5,287.0,233.0,286.5,217.0,286.5,213.5,298.5,213.5,294.5,197.5,294.5,197.5,280.5,181.5,279.0,165.5,279.0,149.0,283.0,133.0,285.0,117.0,289.0,101.0,291.0,85.0,291.0,62.5,303.5,46.5,303.0,30.5,303.0,14.5,307.0" stroke="black" stroke-width="2" fill="none" />
<polyline points="22.5,299.0,38.5,298.5,55.0,298.5" stroke="black" stroke-width="2" fill="none" />
<polyline points="46.5,290.0,30.5,290.5" stroke="black" stroke-width="2" fill="none" />
<polyline points="23.5,286.0,39.5,285.5" stroke="black" stroke-width="2" fill="none" />
<polyline points="36.0,281.5,20.0,285.5" stroke="black" stroke-width="2" fill="none" />
<polyline points="1.5,278.0,17.5,278.0,33.0,278.5,51.0,262.5,67.5,264.5,85.5,278.5,101.5,278.5,99.5,266.0,123.5,272.0,139.5,272.0,156.0,269.5,159.5,257.5,175.5,257.0,191.5,259.0,207.0,265.0,223.5,265.0,240.0,265.0,256.0,263.0" stroke="black" stroke-width="2" fill="none" />
<polyline points="242.5,269.5,226.5,269.5,210.5,270.0,194.0,266.0,177.5,261.5,161.0,261.5,161.0,267.5,145.0,265.0,127.0,267.5,110.5,267.5,94.5,269.5,78.5,273.5,74.5,269.5,49.0,269.5,49.0,265.5,33.0,273.5,17.0,274.0,1.5,274.0" stroke="black" stroke-width="2" fill="none" />
<polyline points="2.0,270.0,17.5,270.0,45.0,277.5,61.0,285.5,65.0,273.5,81.0,264.0,97.0,262.0,113.0,258.0,127.5,262.0,153.5,254.0,169.5,254.0,183.5,254.0,199.5,254.0,215.5,246.0,231.5,243.5,248.0,245.0,274.0,261.5,290.5,273.5,306.5,281.5,322.5,278.0,338.0,256.0" stroke="black" stroke-width="2" fill="none" />
<polyline points="323.0,241.5,301.0,225.5,289.5,209.5,287.5,193.5,290.0,177.0,302.5,161.0,300.5,137.0,288.5,121.0,270.5,105.5,254.5,111.5,238.5,129.5" stroke="black" stroke-width="2" fill="none" />
<polyline points="256.5,117.5,244.0,133.5,242.0,149.5,238.0,163.0,238.0,179.0,246.5,192.5,262.5,204.5,278.0,204.5,302.0,226.5,318.0,238.5,334.0,242.5,350.0,228.0,371.5,216.5,387.5,216.5,404.0,222.5,420.5,230.5,436.5,218.5" stroke="black" stroke-width="2" fill="none" />
<polyline points="393.0,224.0,419.0,239.5,425.5,255.5,424.0,271.5,418.5,287.5,402.5,304.0" stroke="black" stroke-width="2" fill="none" />
<polyline points="328.5,248.0,312.5,242.5,297.0,228.5,281.0,208.5,265.5,214.5,248.0,214.5,232.5,214.5,212.5,206.0,197.0,205.5,187.0,197.5,183.0,201.5,173.0,187.5,157.0,184.0,141.0,185.5,125.0,183.5,109.0,193.0,97.0,189.0,90.5,187.0,73.0,189.0,57.0,185.0,35.0,183.0,19.0,183.5,3.0,184.0" stroke="black" stroke-width="2" fill="none" />
<polyline points="3.0,178.0,19.0,178.0,35.0,177.5,50.5,177.5,66.5,178.0,82.0,178.0,98.5,178.0,114.5,178.0,130.5,178.0,146.5,178.5,162.5,178.5,178.5,178.0,194.5,177.5,210.5,177.5,226.0,177.0" stroke="black" stroke-width="2" fill="none" />
<polyline points="283.5,180.0,299.5,156.0,309.5,154.5,326.0,152.5,342.0,142.5,348.5,162.5,364.5,180.5,380.5,194.0,396.5,202.0,412.0,201.5,427.5,191.5,450.0,209.5,466.0,224.0,482.0,226.5,498.0,222.5" stroke="black" stroke-width="2" fill="none" />
<polyline points="420.0,296.0,428.5,280.5,432.5,264.5,430.5,248.5,420.5,232.5,388.5,206.5,366.5,190.5" stroke="black" stroke-width="2" fill="none" />
<polyline points="285.5,227.5,275.5,243.5,276.0,267.5,294.0,284.0" stroke="black" stroke-width="2" fill="none" />
<polyline points="226.5,193.5,208.5,202.0,192.0,206.0,175.5,206.0,155.5,200.5,143.5,208.5,127.5,210.5,111.5,212.5" stroke="black" stroke-width="2" fill="none" />
<polyline points="90.0,222.5,74.0,222.5" stroke="black" stroke-width="2" fill="none" />
<polyline points="48.5,199.0,32.0,205.0,16.0,209.0" stroke="black" stroke-width="2" fill="none" />
<polyline points="2.0,209.5,18.0,199.5,34.0,199.0" stroke="black" stroke-width="2" fill="none" />
<polyline points="35.0,189.5,19.0,189.5,3.0,191.5" stroke="black" stroke-width="2" fill="none" />
<polyline points="1.5,231.5,7.5,217.5,23.5,215.5,39.5,212.0,55.0,210.5,71.0,210.5,87.0,211.0,103.5,209.0,103.5,203.0,120.0,202.5,136.0,202.5" stroke="black" stroke-width="2" fill="none" />
<polyline points="69.0,184.5,52.5,200.5,62.5,194.0,72.5,200.0,76.0,200.5,92.0,200.5,108.0,198.0,124.0,197.5,139.5,195.0,155.5,194.5,167.5,194.0,171.5,180.5,187.5,181.0,203.5,185.5,205.0,198.0,221.0,198.5,221.0,203.0,237.0,203.0,238.5,195.0,254.5,209.0" stroke="black" stroke-width="2" fill="none" />
<polyline points="241.0,98.0,232.5,84.0,264.0,73.5,248.0,79.0,231.5,83.0,215.5,87.0" stroke="black" stroke-width="2" fill="none" />
<polyline points="230.5,63.5,246.5,57.5,263.0,53.5" stroke="black" stroke-width="2" fill="none" />
<polyline points="261.5,50.5,245.5,54.5,229.5,61.0" stroke="black" stroke-width="2" fill="none" />
<polyline points="246.0,74.0,211.5,90.0,206.0,88.5,224.0,82.5,240.5,76.0,256.5,71.5" stroke="black" stroke-width="2" fill="none" />
<polyline points="296.0,59.0,278.0,75.5,272.0,91.5,272.0,107.5,244.0,121.5,236.0,137.5,234.0,153.5,232.5,169.5,236.5,187.5,243.0,189.5,265.0,206.0,261.0,223.5,251.0,235.5,259.0,242.0,263.0,258.5,261.0,268.5,259.0,278.5,258.5,288.5,254.5,302.5,268.5,308.5,275.0,326.5,277.0,332.5,279.0,342.5,269.5,358.5,237.5,374.5,187.5,388.5,159.0,400.5,117.0,418.5,93.0,422.0,82.5,437.5,76.5,447.5,72.5,445.5,88.5,433.5,102.5,420.0" stroke="black" stroke-width="2" fill="none" />
<polyline points="124.0,374.5,90.0,393.0,105.5,389.0,121.5,380.5,137.5,378.5,153.5,374.0,170.0,372.0,185.5,368.0" stroke="black" stroke-width="2" fill="none" />
<polyline points="132.0,298.0,116.0,298.0,110.0,294.0,94.0,295.5,78.0,293.5,68.0,290.0,54.5,294.0,38.5,294.0,22.5,294.0,6.5,294.0,2.5,298.5,2.5,304.5" stroke="black" stroke-width="2" fill="none" />
<polyline points="1.5,264.0,17.5,264.5,33.5,261.0,49.5,257.5,65.0,256.0,81.0,254.5,101.0,253.0,111.0,251.0,118.5,257.0,134.5,247.0,146.0,247.0,162.5,246.5,177.0,239.0,191.0,249.0,207.5,241.0,228.0,251.5,244.5,251.0" stroke="black" stroke-width="2" fill="none" />
<polyline points="249.5,210.0,233.5,210.0,217.0,214.0,201.0,214.0,185.5,214.0,170.0,216.0,156.0,222.5,147.5,213.0,131.5,215.0,116.0,217.0,100.0,218.5,84.0,219.0,68.0,217.0,52.0,219.5,36.0,221.5,22.0,227.0,10.0,227.0,19.5,232.5,35.5,238.5,17.5,238.0,1.5,242.0" stroke="black" stroke-width="2" fill="none" />
<polyline points="1.5,237.0,17.5,233.0,33.5,229.0,49.5,225.5,49.5,235.5,61.5,229.5,78.0,232.0,92.0,248.5,108.0,247.0,124.0,243.0,140.0,241.0,156.0,243.0,172.5,237.0,188.0,235.0,204.0,233.0,219.5,230.5,227.5,226.5,243.0,226.5" stroke="black" stroke-width="2" fill="none" />
<polyline points="303.0,65.0,328.5,81.0,341.0,97.0,344.5,113.0,344.5,128.5,330.0,144.5,342.5,156.5,357.0,172.0,365.5,188.0,367.5,203.5,363.5,220.0,353.5,236.0,347.5,252.0,349.0,268.0,356.5,283.5,372.0,300.0,387.5,320.0,387.5,336.5,377.0,353.0,362.5,369.0,366.5,385.0,362.5,400.5,357.0,416.5,335.5,432.5,329.5,448.5,325.5,452.5,342.0,430.5,358.0,416.5" stroke="black" stroke-width="2" fill="none" />
<polyline points="499.0,157.5,481.0,145.5,465.0,142.0,451.0,136.0,431.0,124.5,409.0,108.5,412.5,92.5" stroke="black" stroke-width="2" fill="none" />
<polyline points="404.0,62.5,393.5,78.0,379.5,93.5,361.5,109.5,354.0,126.0,350.0,142.0,350.0,158.0,336.0,158.0,352.5,174.0,370.5,193.5,387.0,203.5,403.0,207.5,418.5,206.0,434.5,194.0,450.5,218.0,466.5,230.0,472.0,232.0,488.0,232.5,504.0,226.5" stroke="black" stroke-width="2" fill="none" />
<polyline points="482.5,110.5,480.5,94.5,478.5,78.5,476.5,63.0" stroke="black" stroke-width="2" fill="none" />
<polyline points="400.0,69.5,384.5,89.5,368.0,103.5,352.0,118.0,344.0,94.0,334.0,77.5,312.0,61.5" stroke="black" stroke-width="2" fill="none" />
<polyline points="369.5,27.0,375.5,43.0,373.5,59.0,389.5,67.5,372.0,84.0,374.0,90.5,382.0,74.5,382.0,64.5" stroke="black" stroke-width="2" fill="none" />
<polyline points="40.0,100.0,18.0,116.0,20.0,114.0,36.0,104.5" stroke="black" stroke-width="2" fill="none" />
<polyline points="35.5,98.5,11.5,114.5,9.0,116.5,25.0,104.5" stroke="black" stroke-width="2" fill="none" />
</svg>