<svg xmlns="http://www.w3.org/2000/svg" width="512mm" height="512mm" viewBox="0 0 512 512" version="1.1"><polyline points="93.5,14.5,65.5,30.5,37.5,46.5,27.5,70.5,27.5,87.0,43.5,103.0" stroke="black" stroke-width="2" fill="none" />
<polyline points="44.5,91.5,28.5,83.5" stroke="black" stroke-width="2" fill="none" />
<polyline points="32.5,75.5,42.5,67.5,38.5,83.5,36.5,89.0,52.5,99.0,78.5,97.0,94.0,103.0,109.5,103.5,125.5,103.5" stroke="black" stroke-width="2" fill="none" />
<polyline points="146.0,121.5,162.0,113.0,178.0,113.5,194.0,103.5,210.5,90.0,226.5,78.0,242.5,64.0,258.5,57.5,274.5,57.5,290.5,61.5,306.0,66.0,322.0,70.0,338.0,74.0,354.0,78.0,370.0,81.5,386.0,85.5,402.0,89.5,418.5,100.0,434.5,132.0,451.0,166.0,467.0,195.5,483.0,226.0,498.5,245.5" stroke="black" stroke-width="2" fill="none" />
<polyline points="390.5,342.0,374.5,333.5,358.5,335.5,343.0,325.5,326.5,311.5,310.5,293.5,294.0,279.5,284.0,273.5,267.5,257.5,253.0,247.0,237.5,239.5,221.5,233.5,206.0,227.5,190.5,217.5,173.0,212.0,156.5,214.5,144.0,209.0,127.5,205.0,125.5,189.5,119.5,183.5" stroke="black" stroke-width="2" fill="none" />
<polyline points="107.5,188.5,123.5,210.0" stroke="black" stroke-width="2" fill="none" />
<polyline points="112.0,218.5,95.5,190.5,79.5,160.0,63.5,166.0" stroke="black" stroke-width="2" fill="none" />
<polyline points="71.0,167.5,71.5,161.5,67.0,177.5,71.0,193.5,74.5,210.0,82.0,226.0,88.0,241.5,80.5,259.0,62.5,275.5,37.0,291.5,13.0,307.5,17.0,313.5,19.0,329.5,21.0,345.5,29.0,362.0,37.0,378.5,41.0,395.0,46.5,419.0,62.5,433.0,68.5,448.5,76.5,450.5,90.5,446.5,106.0,432.5,132.5,444.5" stroke="black" stroke-width="2" fill="none" />
<polyline points="121.5,420.0,106.0,386.0" stroke="black" stroke-width="2" fill="none" />
<polyline points="104.5,385.0,104.0,401.5,112.0,417.5,104.0,432.0,88.5,448.0,82.5,464.5,90.5,481.0,98.0,497.0" stroke="black" stroke-width="2" fill="none" />
<polyline points="105.5,497.5,90.0,465.0" stroke="black" stroke-width="2" fill="none" />
<polyline points="88.0,455.0,104.0,439.0,119.5,432.5" stroke="black" stroke-width="2" fill="none" />
<polyline points="105.0,448.5,105.0,464.5" stroke="black" stroke-width="2" fill="none" />
<polyline points="106.0,453.5,116.0,469.5" stroke="black" stroke-width="2" fill="none" />
<polyline points="126.5,408.0,104.5,400.0,88.5,396.0" stroke="black" stroke-width="2" fill="none" />
<polyline points="78.5,391.5,95.0,377.5,111.0,365.5,127.0,351.5,145.0,353.5,155.0,369.5,161.0,385.5,162.5,401.5" stroke="black" stroke-width="2" fill="none" />
<polyline points="184.0,402.5,200.5,402.0,216.0,402.0,231.5,400.0,247.5,400.0,263.0,398.0,279.0,396.0,294.5,396.5,310.5,397.0,326.5,395.0,343.0,395.0,345.0,405.0" stroke="black" stroke-width="2" fill="none" />
<polyline points="353.0,414.5,337.5,416.5" stroke="black" stroke-width="2" fill="none" />
<polyline points="311.0,400.0,294.5,402.0" stroke="black" stroke-width="2" fill="none" />
<polyline points="289.0,421.5,305.0,421.0,320.5,419.0,336.5,411.0,342.5,400.5" stroke="black" stroke-width="2" fill="none" />
<polyline points="322.5,374.0,306.0,348.0" stroke="black" stroke-width="2" fill="none" />
<polyline points="313.5,354.0,309.5,338.0,323.5,332.0,319.0,326.0,303.0,332.0" stroke="black" stroke-width="2" fill="none" />
<polyline points="307.5,326.0,305.5,342.0,309.5,358.0,319.0,374.0" stroke="black" stroke-width="2" fill="none" />
<polyline points="343.0,384.0,327.0,386.0,311.5,387.5,295.5,389.5,279.0,389.5,263.5,392.0,251.5,406.0,235.5,404.0" stroke="black" stroke-width="2" fill="none" />
<polyline points="227.0,378.5,211.0,378.5,194.5,376.5,178.5,378.5" stroke="black" stroke-width="2" fill="none" />
<polyline points="176.5,373.0,192.5,367.0,208.5,365.5,224.5,365.5" stroke="black" stroke-width="2" fill="none" />
<polyline points="224.5,353.0,208.5,355.0" stroke="black" stroke-width="2" fill="none" />
<polyline points="206.0,351.5,222.0,347.0,238.0,349.0" stroke="black" stroke-width="2" fill="none" />
<polyline points="236.0,318.0,252.0,318.0,269.5,334.0,269.5,350.0,283.0,354.0,285.0,356.0" stroke="black" stroke-width="2" fill="none" />
<polyline points="275.5,365.5,275.5,349.5,275.5,333.5" stroke="black" stroke-width="2" fill="none" />
<polyline points="283.0,330.0,281.0,346.0,283.0,361.5,276.5,377.5" stroke="black" stroke-width="2" fill="none" />
<polyline points="270.5,386.0,254.5,388.0,238.0,388.5,226.0,382.5,210.0,383.0,194.0,383.0,178.0,383.5,162.5,385.0,160.5,375.0,154.5,359.0,142.5,342.5,126.5,340.5,110.5,355.0,94.5,366.5,79.0,381.0,63.5,397.0,47.5,413.0,31.5,406.5,15.5,400.5" stroke="black" stroke-width="2" fill="none" />
<polyline points="17.5,400.0,27.5,416.0,37.0,432.5,47.0,448.5,55.5,464.5,67.5,480.5,83.5,496.5" stroke="black" stroke-width="2" fill="none" />
<polyline points="87.0,488.5,71.0,472.5,55.0,446.0,47.0,418.0,52.5,405.5,68.5,389.5,84.5,373.0,102.5,357.0,94.0,351.0,96.5,341.0,90.5,327.5,88.5,311.5,84.5,309.5,81.0,309.5,104.5,300.0,98.5,286.0,88.0,262.0,72.0,276.0" stroke="black" stroke-width="2" fill="none" />
<polyline points="75.5,279.0,91.0,269.5" stroke="black" stroke-width="2" fill="none" />
<polyline points="96.5,276.5,80.5,278.5" stroke="black" stroke-width="2" fill="none" />
<polyline points="74.0,306.5,76.5,311.0,76.5,327.5,76.5,336.0,76.5,342.5" stroke="black" stroke-width="2" fill="none" />
<polyline points="104.5,348.5,114.5,334.5,114.5,325.0,98.5,345.0,104.0,343.0,112.0,327.0,111.5,308.5,103.5,298.5,99.0,304.0,97.0,308.0" stroke="black" stroke-width="2" fill="none" />
<polyline points="128.5,314.0,104.5,293.5,98.5,272.0,82.0,258.0,65.5,272.0,49.5,284.5,33.5,294.5,17.5,302.5,1.5,320.5" stroke="black" stroke-width="2" fill="none" />
<polyline points="6.0,320.0,22.0,326.0,44.0,340.0" stroke="black" stroke-width="2" fill="none" />
<polyline points="46.5,349.5,30.5,329.5" stroke="black" stroke-width="2" fill="none" />
<polyline points="29.5,325.0,45.5,338.5" stroke="black" stroke-width="2" fill="none" />
<polyline points="62.0,354.5,46.0,315.0" stroke="black" stroke-width="2" fill="none" />
<polyline points="61.0,312.5,65.0,328.0,77.0,344.0,75.0,359.5" stroke="black" stroke-width="2" fill="none" />
<polyline points="100.5,379.0,116.5,366.5,132.5,354.5,148.0,358.0,173.5,364.0,189.0,362.0,205.5,362.0,221.5,362.0" stroke="black" stroke-width="2" fill="none" />
<polyline points="250.0,334.5,234.0,336.5,218.0,336.0,196.0,328.0,180.0,329.5,164.0,327.5" stroke="black" stroke-width="2" fill="none" />
<polyline points="167.0,322.5,183.0,324.5,199.0,324.0" stroke="black" stroke-width="2" fill="none" />
<polyline points="189.0,309.5,205.0,309.5,220.5,309.5,236.0,309.0,252.0,305.0,268.0,303.5,281.5,307.0,297.0,305.0" stroke="black" stroke-width="2" fill="none" />
<polyline points="274.0,313.0,290.0,311.0,314.0,309.0,332.5,325.5,356.5,341.5,374.5,357.5,385.0,373.5,407.5,390.0,421.5,392.0,438.0,398.5,454.0,400.5,469.5,410.5,487.5,432.5,503.5,446.5" stroke="black" stroke-width="2" fill="none" />
<polyline points="498.5,425.0,482.5,414.5,466.0,402.5,450.5,392.5,434.5,386.5" stroke="black" stroke-width="2" fill="none" />
<polyline points="425.5,384.5,443.5,410.5,443.5,426.5,443.5,442.5,443.5,458.5,443.5,474.5,443.5,490.5,443.5,506.5" stroke="black" stroke-width="2" fill="none" />
<polyline points="441.0,509.0,440.5,493.0,440.5,477.0,440.5,460.5,440.5,444.5,440.5,428.0,440.5,412.0,420.5,392.0,396.5,376.0,382.5,360.0,368.0,344.0,346.5,328.0,324.0,312.0,310.5,296.0,304.0,295.5,284.0,281.5,264.0,259.5,248.0,263.0" stroke="black" stroke-width="2" fill="none" />
<polyline points="254.0,271.5,234.0,294.0,218.5,290.0,202.5,290.0,186.5,286.0,170.0,290.0" stroke="black" stroke-width="2" fill="none" />
<polyline points="175.0,307.5,191.0,305.5,207.0,303.5,223.0,305.5,239.0,302.0" stroke="black" stroke-width="2" fill="none" />
<polyline points="215.0,316.0,211.5,313.5,195.0,313.5,178.5,315.5,162.0,317.5" stroke="black" stroke-width="2" fill="none" />
<polyline points="167.5,335.5,184.0,335.5,200.0,336.0,216.0,332.5,232.0,330.5,248.0,328.0,264.0,332.0,265.5,348.5,269.5,364.5,273.0,380.5,279.5,386.5,295.5,384.5,311.5,382.0,327.5,380.0,343.5,377.5" stroke="black" stroke-width="2" fill="none" />
<polyline points="325.5,372.5,331.5,356.0,329.5,340.0" stroke="black" stroke-width="2" fill="none" />
<polyline points="329.0,330.0,327.0,345.5,327.0,361.0" stroke="black" stroke-width="2" fill="none" />
<polyline points="361.0,338.5,377.0,352.5,393.0,364.5" stroke="black" stroke-width="2" fill="none" />
<polyline points="387.5,367.0,403.5,381.0,419.5,381.5,436.0,381.5,452.0,386.0,468.0,396.0,484.0,408.0,499.5,420.0" stroke="black" stroke-width="2" fill="none" />
<polyline points="509.5,454.5,491.0,438.0,473.0,421.5,449.0,405.5" stroke="black" stroke-width="2" fill="none" />
<polyline points="452.0,399.5,476.0,415.5,494.0,431.5,512.0,447.5" stroke="black" stroke-width="2" fill="none" />
<polyline points="497.5,419.0,475.5,402.5,451.5,386.0" stroke="black" stroke-width="2" fill="none" />
<polyline points="389.5,348.5,373.5,338.5" stroke="black" stroke-width="2" fill="none" />
<polyline points="371.5,333.0,397.5,349.0" stroke="black" stroke-width="2" fill="none" />
<polyline points="363.0,331.5,387.0,347.5,397.0,367.5,428.5,387.5,450.0,391.0,472.0,407.0,494.0,423.0" stroke="black" stroke-width="2" fill="none" />
<polyline points="364.0,460.5,362.0,476.0,358.0,493.5" stroke="black" stroke-width="2" fill="none" />
<polyline points="333.5,491.5,305.5,497.5,290.0,497.5,284.0,507.0,308.5,499.5,318.5,485.5,324.5,472.0,330.5,456.5" stroke="black" stroke-width="2" fill="none" />
<polyline points="337.0,456.0,331.0,471.5,325.0,487.5,309.0,507.5,319.0,495.5" stroke="black" stroke-width="2" fill="none" />
<polyline points="298.0,504.0,282.0,510.0" stroke="black" stroke-width="2" fill="none" />
<polyline points="251.5,479.5,235.0,481.5,219.0,479.5" stroke="black" stroke-width="2" fill="none" />
<polyline points="215.5,464.5,231.5,458.5,247.5,465.0" stroke="black" stroke-width="2" fill="none" />
<polyline points="235.0,470.0,207.0,479.5,191.0,483.5" stroke="black" stroke-width="2" fill="none" />
<polyline points="188.5,479.5,204.5,473.5,222.5,465.5,216.5,467.5,210.5,483.5,206.0,499.5,216.0,501.5,232.0,495.5,234.0,487.5,250.0,485.5,258.0,479.5,246.5,503.5,238.5,507.5" stroke="black" stroke-width="2" fill="none" />
<polyline points="256.5,473.0,239.5,474.5,235.5,465.0,219.5,468.5,208.0,488.5,192.0,500.5,176.5,512.5" stroke="black" stroke-width="2" fill="none" />
<polyline points="170.5,512.0,187.0,484.0,201.0,456.0,219.0,436.0,235.0,438.5,251.0,438.5,267.0,440.5,282.5,442.5,298.0,444.5,313.5,448.5,329.5,450.5,345.5,452.5" stroke="black" stroke-width="2" fill="none" />
<polyline points="350.0,449.0,354.0,465.0,348.5,481.0,342.5,496.5,351.0,504.5,351.0,488.0,357.0,490.0" stroke="black" stroke-width="2" fill="none" />
<polyline points="359.5,502.5,363.0,486.5,366.5,470.5,362.5,455.0" stroke="black" stroke-width="2" fill="none" />
<polyline points="359.5,454.0,355.5,469.5,351.5,485.5,345.5,501.5,353.5,509.5" stroke="black" stroke-width="2" fill="none" />
<polyline points="332.0,456.0,316.0,474.0,300.0,473.5,284.0,474.0,268.0,486.0,264.5,496.5,271.0,481.0,279.0,461.0,283.0,445.0" stroke="black" stroke-width="2" fill="none" />
<polyline points="282.5,442.0,272.5,458.0,268.5,473.5,260.0,489.0,256.0,505.0" stroke="black" stroke-width="2" fill="none" />
<polyline points="210.0,434.5,202.0,450.5,192.5,466.5,184.5,483.0,176.5,499.0,170.5,499.0,186.5,467.0,202.5,441.5,218.5,429.5,234.5,431.5,250.5,431.5,266.5,434.0,282.0,436.0,297.5,438.0,313.5,442.0,329.0,444.0,345.0,446.0,361.0,452.0" stroke="black" stroke-width="2" fill="none" />
<polyline points="301.0,413.5,285.0,419.5,269.5,419.5,251.5,421.5,250.0,415.5,234.0,423.5,230.5,411.0,237.0,411.0,219.0,405.5,203.0,408.0,187.0,408.0" stroke="black" stroke-width="2" fill="none" />
<polyline points="175.5,434.0,161.5,450.0,149.5,466.0" stroke="black" stroke-width="2" fill="none" />
<polyline points="171.0,471.0,155.0,489.0,139.0,511.0,148.5,497.5,162.5,481.0,174.5,465.0,184.5,449.0" stroke="black" stroke-width="2" fill="none" />
<polyline points="175.5,444.5,163.0,460.5,149.0,476.5,136.5,492.0,122.0,508.0" stroke="black" stroke-width="2" fill="none" />
<polyline points="126.5,496.0,136.5,480.0,132.5,464.0,126.5,448.0,118.5,432.0,96.0,422.0,80.0,401.5,64.0,413.5" stroke="black" stroke-width="2" fill="none" />
<polyline points="54.5,413.0,70.5,399.5,66.5,403.0,76.0,418.5,78.0,433.0" stroke="black" stroke-width="2" fill="none" />
<polyline points="70.5,435.5,54.5,423.5" stroke="black" stroke-width="2" fill="none" />
<polyline points="56.0,407.0,72.0,391.0,87.5,374.5,103.5,362.5" stroke="black" stroke-width="2" fill="none" />
<polyline points="106.0,392.0,111.5,408.0,119.0,423.5,127.0,439.5,135.0,455.5,137.0,472.0,155.0,466.0,171.0,446.0" stroke="black" stroke-width="2" fill="none" />
<polyline points="180.0,438.0,174.0,454.5,162.0,470.0,149.5,486.0,135.5,501.5,137.5,499.0,153.5,479.5,169.5,459.5" stroke="black" stroke-width="2" fill="none" />
<polyline points="211.0,428.5,199.0,444.5,190.5,461.0,182.5,475.0,174.0,491.5,165.5,507.5,199.5,509.5,200.0,507.5,216.0,507.5,232.0,507.5,240.0,491.5,242.0,510.0,264.0,482.5,286.0,480.5,301.5,480.0,317.5,484.0,342.0,488.0" stroke="black" stroke-width="2" fill="none" />
<polyline points="268.5,416.0,258.5,416.5,268.5,400.5" stroke="black" stroke-width="2" fill="none" />
<polyline points="178.0,362.5,166.0,378.0,165.5,394.5,169.5,410.5" stroke="black" stroke-width="2" fill="none" />
<polyline points="127.5,406.0,125.5,422.0,106.0,438.0,90.0,454.0,92.0,470.5,98.0,486.5,108.0,502.5,134.5,494.0" stroke="black" stroke-width="2" fill="none" />
<polyline points="81.5,494.0,65.5,476.0,50.0,450.0,34.5,424.0,18.5,399.5" stroke="black" stroke-width="2" fill="none" />
<polyline points="21.5,398.0,33.0,414.0,43.0,429.5,51.0,445.5,61.0,461.5,72.5,477.5,86.5,493.5,96.5,509.5" stroke="black" stroke-width="2" fill="none" />
<polyline points="25.5,487.0,21.5,467.0" stroke="black" stroke-width="2" fill="none" />
<polyline points="1.0,465.0,17.0,457.5,5.0,469.5,9.5,481.5,28.0,478.0,20.5,494.0,22.5,507.5" stroke="black" stroke-width="2" fill="none" />
<polyline points="33.5,509.0,17.5,505.5,2.0,493.5" stroke="black" stroke-width="2" fill="none" />
<polyline points="3.0,493.5,11.5,510.0,16.0,509.5" stroke="black" stroke-width="2" fill="none" />
<polyline points="55.5,509.0,39.5,485.0,23.5,454.5,7.5,423.0" stroke="black" stroke-width="2" fill="none" />
<polyline points="1.5,428.0,17.5,432.0,27.5,450.0,35.5,468.0,31.5,489.5,30.0,507.0,32.0,499.5,42.5,505.5" stroke="black" stroke-width="2" fill="none" />
<polyline points="80.0,513.5,75.5,499.0,53.0,497.0,37.0,471.0,16.5,430.5,0.0,417.0" stroke="black" stroke-width="2" fill="none" />
<polyline points="3.5,407.0,7.5,423.0,3.5,440.0,15.5,440.5,23.5,456.5,31.5,473.0,26.0,488.5,42.0,492.5,54.0,496.0,49.5,504.0,44.0,504.0" stroke="black" stroke-width="2" fill="none" />
<polyline points="80.0,403.0,82.0,419.0,90.0,407.5,105.5,415.5" stroke="black" stroke-width="2" fill="none" />
<polyline points="150.0,352.0,134.0,314.0,118.5,276.5" stroke="black" stroke-width="2" fill="none" />
<polyline points="119.0,275.5,125.0,291.5,130.5,308.0,138.5,324.0,136.5,342.0,130.5,354.0,120.0,362.0,108.0,366.5,96.0,386.5,88.0,403.0,70.0,409.0,68.0,425.0" stroke="black" stroke-width="2" fill="none" />
<polyline points="65.5,351.5,57.0,335.5,52.5,320.0,56.5,304.5,49.0,294.5" stroke="black" stroke-width="2" fill="none" />
<polyline points="42.0,300.0,48.0,316.0,53.5,332.0,59.0,347.5,66.5,361.5,64.5,370.0" stroke="black" stroke-width="2" fill="none" />
<polyline points="48.0,366.0,32.0,358.0" stroke="black" stroke-width="2" fill="none" />
<polyline points="53.5,365.5,37.5,353.5,21.5,333.5" stroke="black" stroke-width="2" fill="none" />
<polyline points="20.0,333.5,28.0,349.5,34.0,365.0,50.0,371.0" stroke="black" stroke-width="2" fill="none" />
<polyline points="33.5,373.5,17.5,337.5" stroke="black" stroke-width="2" fill="none" />
<polyline points="16.0,312.0,32.0,300.0,32.5,299.5,24.5,316.0,23.0,326.0,35.0,338.0,53.0,354.5,42.5,370.5,58.0,364.0,52.0,380.0,50.5,394.0" stroke="black" stroke-width="2" fill="none" />
<polyline points="37.5,272.0,29.5,256.0,21.5,240.0,11.5,224.0,13.5,206.0,15.5,196.0,23.5,178.5,45.5,162.5,65.5,146.5,87.5,130.0,109.5,114.0,133.5,98.5,140.0,82.0,132.0,66.0,122.5,49.5,110.5,33.5,106.5,17.0,90.0,33.5,74.0,42.0,58.0,52.0,42.0,64.5,26.0,74.5" stroke="black" stroke-width="2" fill="none" />
<polyline points="45.0,71.0,60.5,87.0" stroke="black" stroke-width="2" fill="none" />
<polyline points="68.5,70.0,52.5,59.5" stroke="black" stroke-width="2" fill="none" />
<polyline points="48.0,64.0,64.0,76.5" stroke="black" stroke-width="2" fill="none" />
<polyline points="50.5,69.0,66.5,84.5,50.5,100.5" stroke="black" stroke-width="2" fill="none" />
<polyline points="78.5,102.0,94.5,110.0,110.0,110.0" stroke="black" stroke-width="2" fill="none" />
<polyline points="100.5,93.0,84.5,83.0" stroke="black" stroke-width="2" fill="none" />
<polyline points="89.0,72.5,95.0,88.5,99.0,98.0,115.0,98.0" stroke="black" stroke-width="2" fill="none" />
<polyline points="130.0,108.0,114.0,118.0,98.5,130.0,82.5,142.0,66.5,154.0,50.5,166.0,34.5,178.0,18.5,187.5,2.5,201.5" stroke="black" stroke-width="2" fill="none" />
<polyline points="7.0,212.0,23.0,222.0,39.5,253.5" stroke="black" stroke-width="2" fill="none" />
<polyline points="42.0,268.0,26.0,246.0,12.0,220.0" stroke="black" stroke-width="2" fill="none" />
<polyline points="20.0,214.5,26.0,231.0,33.5,245.0,39.5,266.5" stroke="black" stroke-width="2" fill="none" />
<polyline points="92.0,237.0,76.5,195.0" stroke="black" stroke-width="2" fill="none" />
<polyline points="69.0,188.0,85.0,232.0" stroke="black" stroke-width="2" fill="none" />
<polyline points="115.0,275.5,118.5,292.0,125.0,308.0,133.0,324.0,127.0,340.0,121.0,352.0,99.0,368.5,90.5,382.5,78.5,386.5,62.5,403.0,56.5,419.0,66.5,431.0,68.5,439.0,84.5,467.5,101.0,497.0,119.0,507.0,135.0,487.0,151.0,467.0,167.0,445.0,183.5,439.0" stroke="black" stroke-width="2" fill="none" />
<polyline points="185.5,280.0,183.5,260.0,186.0,252.0,184.0,254.0,174.0,258.0,157.5,264.0,141.5,260.0,140.0,254.0,142.0,238.0,148.5,222.0,133.0,206.5,111.0,196.5,107.0,180.5,107.5,172.5" stroke="black" stroke-width="2" fill="none" />
<polyline points="109.5,173.5,113.5,189.5,136.0,185.5,152.0,153.5,156.0,145.5,174.0,141.5,190.0,145.5,206.0,145.5,222.0,139.5,237.5,128.0" stroke="black" stroke-width="2" fill="none" />
<polyline points="230.5,124.5,238.5,108.5" stroke="black" stroke-width="2" fill="none" />
<polyline points="261.5,114.5,275.5,130.5" stroke="black" stroke-width="2" fill="none" />
<polyline points="265.5,121.0,281.0,129.0,297.0,131.0" stroke="black" stroke-width="2" fill="none" />
<polyline points="263.5,147.0,273.5,163.0,277.5,179.5" stroke="black" stroke-width="2" fill="none" />
<polyline points="275.5,169.5,259.0,145.0" stroke="black" stroke-width="2" fill="none" />
<polyline points="258.5,145.5,262.5,161.5,271.5,177.5" stroke="black" stroke-width="2" fill="none" />
<polyline points="318.0,193.0,334.0,195.0" stroke="black" stroke-width="2" fill="none" />
<polyline points="262.0,180.5,222.0,164.5,191.5,150.5" stroke="black" stroke-width="2" fill="none" />
<polyline points="168.5,151.0,152.5,167.5,152.0,183.5,168.0,199.5,196.0,222.0,230.0,238.0,263.5,254.0,267.5,267.5,249.5,273.5,243.0,289.5,233.0,315.5,243.0,313.5,259.0,312.0,269.5,326.5,272.0,332.5" stroke="black" stroke-width="2" fill="none" />
<polyline points="281.0,270.0,305.0,273.5" stroke="black" stroke-width="2" fill="none" />
<polyline points="244.0,274.5,238.0,258.5" stroke="black" stroke-width="2" fill="none" />
<polyline points="229.0,256.5,225.0,256.5,225.0,272.5" stroke="black" stroke-width="2" fill="none" />
<polyline points="219.0,270.5,225.0,254.5" stroke="black" stroke-width="2" fill="none" />
<polyline points="166.5,197.5,150.5,179.5" stroke="black" stroke-width="2" fill="none" />
<polyline points="148.0,180.0,163.5,155.5,179.0,148.0,182.5,152.0,198.5,154.5,214.0,160.5,230.0,161.0" stroke="black" stroke-width="2" fill="none" />
<polyline points="208.5,123.0,192.5,117.0" stroke="black" stroke-width="2" fill="none" />
<polyline points="200.0,123.5,184.0,119.5,168.0,121.5,152.0,121.5" stroke="black" stroke-width="2" fill="none" />
<polyline points="151.0,127.5,167.0,127.5,182.5,127.5,206.5,125.5" stroke="black" stroke-width="2" fill="none" />
<polyline points="163.5,143.5,147.5,159.5,142.0,175.5,132.0,192.0,137.5,198.0,153.5,214.0,148.0,234.0,144.0,249.5,146.5,261.5,162.5,267.5,178.0,259.5,190.0,279.5,206.0,285.5,222.0,285.5,238.0,288.0,250.0,298.0,265.5,300.0,281.5,297.5,297.5,293.5,301.0,290.0,317.0,312.0,333.0,326.0,349.5,335.5,365.5,348.0,381.5,368.0,397.5,384.0,413.5,394.0,430.0,402.0,446.5,404.0,462.5,412.0,478.5,424.0,494.5,432.0,510.0,444.0" stroke="black" stroke-width="2" fill="none" />
<polyline points="334.5,188.5,324.5,174.5,336.5,158.5,346.5,142.5,354.5,126.5,366.5,110.5" stroke="black" stroke-width="2" fill="none" />
<polyline points="363.0,108.5,350.5,124.5,342.5,140.0,332.5,156.0,328.0,176.5,310.0,184.5,312.0,180.0,328.0,169.5,345.5,139.0" stroke="black" stroke-width="2" fill="none" />
<polyline points="348.5,93.5,332.5,104.0,314.5,102.0,305.0,126.5,309.0,110.5,325.5,94.5,351.5,92.5" stroke="black" stroke-width="2" fill="none" />
<polyline points="344.5,90.5,323.0,90.5,305.0,106.5,301.0,122.0,305.0,144.0" stroke="black" stroke-width="2" fill="none" />
<polyline points="362.0,107.0,346.0,127.0,330.5,157.5,325.0,179.5,309.0,191.5,293.0,189.5,276.5,186.0,260.5,178.0,244.0,172.0,228.0,166.0,221.5,158.0,235.5,136.5,253.5,120.5,259.5,104.5,261.5,88.5,259.5,72.5" stroke="black" stroke-width="2" fill="none" />
<polyline points="256.0,72.0,255.5,88.0,254.0,104.5,246.0,120.5,226.5,136.0" stroke="black" stroke-width="2" fill="none" />
<polyline points="205.0,140.5,189.5,139.0,173.5,139.0,157.5,139.0,145.5,147.0,144.0,131.0,156.0,115.0" stroke="black" stroke-width="2" fill="none" />
<polyline points="146.0,79.0,130.0,51.0,113.5,27.0,97.5,13.0,81.5,19.5,65.5,29.5,50.0,40.0,34.0,48.5,18.0,56.5,2.0,40.5" stroke="black" stroke-width="2" fill="none" />
<polyline points="8.0,39.5,8.0,55.5" stroke="black" stroke-width="2" fill="none" />
<polyline points="18.0,123.5,34.0,138.0" stroke="black" stroke-width="2" fill="none" />
<polyline points="35.5,147.5,20.0,127.5" stroke="black" stroke-width="2" fill="none" />
<polyline points="21.0,124.0,33.0,139.5" stroke="black" stroke-width="2" fill="none" />
<polyline points="34.0,149.0,22.5,133.0,8.0,129.0,2.0,141.0" stroke="black" stroke-width="2" fill="none" />
<polyline points="2.0,162.5,8.0,171.0,7.5,179.0" stroke="black" stroke-width="2" fill="none" />
<polyline points="72.0,165.5,72.5,181.5,76.5,197.5,82.5,214.0,88.5,230.0,94.5,246.0,76.5,272.0,66.5,288.0,66.0,303.5,65.5,319.5,73.5,335.0,79.5,339.0,85.5,356.0,59.5,372.5,41.5,384.5,51.5,393.0,42.0,382.5,60.0,370.5,76.0,370.0" stroke="black" stroke-width="2" fill="none" />
<polyline points="143.0,245.5,159.5,219.5,175.5,221.5" stroke="black" stroke-width="2" fill="none" />
<polyline points="176.0,208.5,160.0,201.0,143.5,189.0" stroke="black" stroke-width="2" fill="none" />
<polyline points="142.5,188.5,163.0,204.5,179.0,228.5,185.0,244.5,179.5,252.0,177.5,267.5,171.5,283.0,161.5,289.0" stroke="black" stroke-width="2" fill="none" />
<polyline points="107.0,213.5,99.0,197.0,93.0,180.5,86.5,164.5" stroke="black" stroke-width="2" fill="none" />
<polyline points="84.0,101.5,80.5,97.5" stroke="black" stroke-width="2" fill="none" />
<polyline points="104.0,84.0,94.0,68.0,88.0,51.5,92.0,51.5" stroke="black" stroke-width="2" fill="none" />
<polyline points="82.0,45.0,84.0,61.5,82.0,77.5,92.0,93.5" stroke="black" stroke-width="2" fill="none" />
<polyline points="118.0,93.5,102.0,79.5,91.5,51.5,85.5,65.5,47.0,59.5,69.5,44.0,97.0,28.0" stroke="black" stroke-width="2" fill="none" />
<polyline points="93.0,19.5,65.0,35.5,37.5,51.5,9.5,67.5,10.0,67.0,26.0,57.5,42.0,49.5,58.0,40.0,74.0,32.0,90.0,22.5,106.0,26.5,122.0,49.0,137.5,75.0" stroke="black" stroke-width="2" fill="none" />
<polyline points="110.0,114.0,94.0,126.0,78.5,138.0,62.5,148.5,46.5,162.5,30.5,174.5,14.5,184.5,5.0,200.5,25.0,184.5,46.5,168.5,68.0,152.5,90.0,136.5,112.0,120.5,136.0,104.5,146.0,86.0,139.5,69.5,129.5,53.0,119.5,37.0,107.5,21.0" stroke="black" stroke-width="2" fill="none" />
<polyline points="250.0,58.5,229.5,74.0,209.5,89.5,191.5,105.5,178.0,124.0,194.0,112.0,210.0,98.0,226.0,86.0,242.5,72.0,258.5,61.5,275.0,63.5,291.0,67.5,306.5,72.0,322.5,76.0,338.5,80.0,356.5,84.0,372.0,88.0,388.0,92.5,404.0,98.5,422.0,121.0,438.0,153.0,454.0,187.0,470.5,217.0,486.5,242.5,503.0,258.5" stroke="black" stroke-width="2" fill="none" />
<polyline points="493.5,244.0,481.0,228.5,471.0,212.5,463.5,196.5,456.0,180.5,448.0,164.5,440.0,148.5,432.0,132.0,418.0,110.0,396.0,94.0" stroke="black" stroke-width="2" fill="none" />
<polyline points="391.0,88.5,419.0,104.5,421.0,120.0,429.0,135.5,437.0,151.5,443.0,167.0,451.5,183.0,460.0,199.5,470.0,215.5,478.0,231.5,492.0,247.5,510.0,263.5" stroke="black" stroke-width="2" fill="none" />
<polyline points="345.0,91.5,329.5,102.0,318.0,96.0,302.0,124.0,285.5,126.0,269.0,118.0,250.5,124.0,234.0,138.5,217.5,146.5,215.5,127.0,195.5,111.0,215.5,95.5,235.5,79.5,253.5,63.5" stroke="black" stroke-width="2" fill="none" />
</svg>