<?xml version="1.0" encoding="UTF-8" standalone="no"?>
<!-- Created with Inkscape (http://www.inkscape.org/) -->

<svg
   width="210mm"
   height="297mm"
   viewBox="0 0 210 297"
   version="1.1"
   id="svg11355"
   inkscape:version="1.2.1 (9c6d41e410, 2022-07-14)"
   sodipodi:docname="СберShop 2.svg"
   xmlns:inkscape="http://www.inkscape.org/namespaces/inkscape"
   xmlns:sodipodi="http://sodipodi.sourceforge.net/DTD/sodipodi-0.dtd"
   xmlns="http://www.w3.org/2000/svg"
   xmlns:svg="http://www.w3.org/2000/svg">
  <sodipodi:namedview
     id="namedview11357"
     pagecolor="#ffffff"
     bordercolor="#000000"
     borderopacity="0.25"
     inkscape:showpageshadow="2"
     inkscape:pageopacity="0.0"
     inkscape:pagecheckerboard="0"
     inkscape:deskcolor="#d1d1d1"
     inkscape:document-units="mm"
     showgrid="false"
     inkscape:zoom="0.35590942"
     inkscape:cx="397.57307"
     inkscape:cy="561.94073"
     inkscape:window-width="1366"
     inkscape:window-height="745"
     inkscape:window-x="-8"
     inkscape:window-y="-8"
     inkscape:window-maximized="1"
     inkscape:current-layer="layer1" />
  <defs
     id="defs11352" />
  <g
     inkscape:label="Слой 1"
     inkscape:groupmode="layer"
     id="layer1">
    <path
       style="fill:#000000;fill-opacity:1;fill-rule:nonzero;stroke:none;stroke-width:0.264583"
       id="path11246"
       d="m 134.49204,169.18266 c -0.22992,-0.34547 -0.34658,-0.74809 -0.45023,-1.14844 -0.16894,-0.62062 0.0453,-1.24354 0.20149,-1.84464 0.25511,-0.94536 0.69372,-1.81556 1.15498,-2.66776 0.45336,-0.82085 0.96031,-1.6084 1.46971,-2.39296 0.44187,-0.69174 0.93796,-1.34292 1.46676,-1.96558 0.38199,-0.4341 0.7713,-0.86114 1.1445,-1.30338 0.30957,-0.38581 0.62664,-0.76409 0.97256,-1.11572 0.32164,-0.32841 0.67657,-0.61731 1.0526,-0.87602 0.3736,-0.24011 0.77406,-0.43104 1.17638,-0.6134 0.47757,-0.21328 0.97418,-0.3735 1.4779,-0.50553 0.57825,-0.1334 1.16887,-0.19984 1.75473,-0.28796 0.80831,-0.1282 1.61487,-0.26762 2.42314,-0.39617 1.09177,-0.17402 2.19133,-0.28727 3.28903,-0.41257 1.05336,-0.12805 2.10858,-0.23889 3.16178,-0.36827 0.77714,-0.0929 1.55363,-0.19169 2.33115,-0.28143 0.87384,-0.10825 1.74824,-0.2117 2.62125,-0.3269 0.64328,-0.0825 1.28311,-0.19012 1.92437,-0.28729 0.40543,-0.0702 0.81602,-0.0747 1.2258,-0.0711 0.33473,0.0159 0.66715,0.0646 0.99481,0.1357 0.0868,0.0198 0.17204,0.0494 0.24112,0.10652 -0.0596,-0.0106 -0.12109,-0.13484 -0.0754,-7.8e-4 0.0462,0.11288 0.0548,0.23172 0.0609,0.35213 -7.5e-4,0.19454 -0.0303,0.39469 -0.0663,0.58763 -0.0546,0.11287 -0.10904,0.23537 -0.16266,0.35163 -0.12082,0.26871 -0.24418,0.53614 -0.38484,0.79443 -0.12291,0.22505 -0.26701,0.43641 -0.41403,0.64506 -0.10904,0.15638 -0.21987,0.31164 -0.34542,0.4544 -0.0526,0.0526 -0.11702,0.0915 -0.17788,0.1334 -0.0888,0.0618 -0.18232,0.11532 -0.2739,0.17239 -0.0112,0.007 -0.0479,0.0292 -0.0356,0.0225 0.34646,-0.1867 0.21376,-0.0773 1.34628,0.13628 -1.26886,-1.15828 -2.85738,0.6921 -1.58852,1.85038 v 0 c 0.80226,0.1713 1.03205,0.43355 1.51959,0.10452 0.1243,-0.0781 0.25157,-0.15127 0.37147,-0.2367 0.22517,-0.15721 0.4448,-0.3249 0.62576,-0.5363 0.17797,-0.20692 0.34354,-0.42431 0.49842,-0.65018 0.20259,-0.28859 0.39921,-0.58216 0.56775,-0.89364 0.16374,-0.30504 0.31408,-0.61712 0.45474,-0.93421 0.14666,-0.31769 0.29337,-0.63776 0.35918,-0.98596 0.064,-0.38983 0.11954,-0.78658 0.0971,-1.18267 -0.0266,-0.36938 -0.0836,-0.73463 -0.21819,-1.08052 -0.18133,-0.46721 -0.43037,-0.88819 -0.84613,-1.17186 -0.33031,-0.21354 -0.68278,-0.38022 -1.06786,-0.45866 -0.48157,-0.10144 -0.96961,-0.17256 -1.46161,-0.1869 -0.53263,-0.004 -1.06604,0.008 -1.59302,0.0974 -0.62652,0.095 -1.25164,0.20017 -1.8801,0.28102 -0.8605,0.11359 -1.72241,0.2154 -2.58371,0.32225 -0.78314,0.0905 -1.5653,0.18972 -2.34805,0.28345 -1.04656,0.12877 -2.09516,0.23844 -3.14184,0.3659 -1.13169,0.1292 -2.2652,0.24658 -3.39071,0.42646 -0.80186,0.12761 -1.60207,0.26556 -2.4039,0.39319 -0.66969,0.10091 -1.34488,0.17705 -2.00405,0.33954 -0.63006,0.16783 -1.2518,0.36881 -1.84893,0.63792 -0.53182,0.2422 -1.05959,0.49918 -1.54888,0.82521 -0.49846,0.34853 -0.97324,0.73123 -1.40061,1.17031 -0.3864,0.3965 -0.74878,0.81515 -1.09443,1.2499 -0.37111,0.44099 -0.76146,0.86394 -1.14003,1.29807 -0.59524,0.7033 -1.15541,1.43728 -1.65396,2.21738 -0.54544,0.84049 -1.0875,1.68467 -1.57167,2.56479 -0.55716,1.03285 -1.07539,2.09266 -1.37835,3.23882 -0.26071,1.02778 -0.49956,2.0793 -0.19617,3.12851 0.18563,0.68848 0.41615,1.36817 0.82606,1.95322 0.99903,1.4115 2.9348,-0.0453 1.93576,-1.45691 z" />
    <path
       style="fill:#000000;fill-opacity:1;fill-rule:nonzero;stroke:none;stroke-width:0.264583"
       id="path11248"
       d="m 163.25495,157.78429 c 0.47667,-0.46165 0.87631,-0.9903 1.21745,-1.56347 0.22712,-0.47492 0.49179,-1.00824 0.47831,-1.55626 -0.004,-0.18476 -0.0419,-0.3671 -0.0628,-0.55066 -0.26395,-0.89177 -0.8245,-1.40591 -1.59015,-1.84216 -0.66961,-0.34933 -1.40097,-0.51136 -2.13449,-0.6413 -0.68457,-0.12963 -1.3785,-0.12298 -2.07026,-0.0833 -0.54952,0.0358 -1.09559,0.10983 -1.63941,0.19667 -0.39683,0.06 -0.78584,0.14178 -1.16159,0.28667 -0.58263,0.28043 -0.87473,0.79814 -1.05465,1.40644 -0.13413,0.51694 -0.13566,1.05409 -0.15306,1.58489 -0.0415,0.66123 -0.0587,1.32373 -0.0942,1.98522 -0.0681,0.87492 -0.0576,1.75274 -0.0528,2.62956 -0.0192,0.83923 -0.0245,1.67965 -0.067,2.51806 -0.0262,0.47469 -0.0905,0.94578 -0.15074,1.4168 -0.0745,0.3929 -0.0546,0.77949 0.0397,1.16625 0.20567,0.63973 0.54189,0.95038 1.16306,1.16565 0.57799,0.12414 1.11914,-0.0552 1.65115,-0.27098 0.36629,-0.14047 0.71335,-0.31738 1.04299,-0.53299 0.37311,-0.27876 0.75305,-0.59787 0.93567,-1.05061 0.062,-0.15376 0.0906,-0.31967 0.13595,-0.47951 0.092,-0.79568 -0.0596,-1.59074 -0.14492,-2.38021 -0.026,-0.46385 -0.055,-0.93572 0.0153,-1.39712 -0.009,0.41579 -0.48645,0.67284 -0.83516,0.725 -0.0814,0.0116 -0.16442,-0.007 -0.24661,-0.0106 -0.0371,-0.008 -0.073,-0.0244 -0.11086,-0.0263 -0.041,-0.001 0.0511,0.0661 0.0793,0.0969 0.0384,0.0421 0.076,0.0851 0.11311,0.12832 0.0506,0.0588 0.40281,0.47809 0.41902,0.49735 0.66838,0.80596 1.45198,1.49384 2.24328,2.16602 0.71463,0.60522 1.43781,1.19937 2.1772,1.77211 0.52544,0.40375 1.0489,0.81068 1.5944,1.18541 0.30015,0.20883 0.62608,0.3707 0.96467,0.50055 0.17269,0.0245 0.34494,0.0945 0.51803,0.0734 0.98719,-0.12025 1.293,-0.86471 1.49195,-1.7228 0.0716,-0.81562 0.0806,-1.66965 -0.0827,-2.47716 -0.0387,-0.19147 -0.0968,-0.37822 -0.14524,-0.56733 -0.32038,-0.99732 -0.96114,-1.78404 -1.68633,-2.49562 -0.59746,-0.55319 -1.21912,-1.07824 -1.85454,-1.58423 -0.42834,-0.33853 -0.89108,-0.62586 -1.34868,-0.91938 -0.20027,-0.13035 -0.40428,-0.25423 -0.61169,-0.37201 -1.48626,-0.83949 -2.63755,1.32794 -1.1513,2.16741 v 0 c 0.16925,0.0949 0.33396,0.19771 0.49719,0.30304 0.38932,0.24972 0.78439,0.49207 1.15055,0.77755 0.57296,0.45537 1.13251,0.929 1.67324,1.42457 0.41491,0.39946 0.81159,0.82306 1.02682,1.37616 0.19409,0.59666 0.18511,1.24623 0.18518,1.86971 -2.6e-4,0.0253 0.001,0.0506 -7.5e-4,0.0757 -0.001,0.018 -0.0288,0.0538 -0.0113,0.0528 0.0251,-0.001 0.0337,-0.039 0.0533,-0.0552 0.0844,-0.0694 0.15877,-0.1585 0.25854,-0.20094 0.44634,-0.18983 0.45943,-0.13237 0.86293,-0.046 -0.16361,-0.0598 -0.31974,-0.13744 -0.46348,-0.23866 -0.50813,-0.34707 -0.99204,-0.72978 -1.48184,-1.10339 -0.71103,-0.55024 -1.40563,-1.12215 -2.09282,-1.70367 -0.68831,-0.58409 -1.37463,-1.17689 -1.95624,-1.87753 -0.48973,-0.58213 -0.96335,-1.20472 -1.69587,-1.46529 -0.15458,-0.0234 -0.30761,-0.0758 -0.46375,-0.0701 -0.7961,0.0296 -1.30657,0.64691 -1.44306,1.40322 -0.0852,0.6674 -0.0806,1.34239 -0.0234,2.01254 0.058,0.53527 0.12571,1.07354 0.17939,1.6072 0.19216,-0.35821 0.20054,-0.2019 -0.0354,-0.0399 -0.1857,0.13859 -0.40699,0.21147 -0.61573,0.30455 -0.21768,0.0903 -0.047,0.0208 -0.24677,0.0989 -0.0301,0.0116 -0.10552,0.007 -0.0899,0.0365 0.0301,0.0559 0.22133,-0.11533 0.18156,0.0433 0.23238,0.10505 0.47112,0.27479 0.52945,0.54613 0.005,0.0653 0.0475,0.2772 -0.007,0.16377 -0.0405,-0.085 0.0706,-0.24438 0.0379,-0.32964 0.0685,-0.53654 0.13986,-1.07335 0.16818,-1.61417 0.0426,-0.88491 0.0528,-1.77152 0.0701,-2.65725 -0.004,-0.82731 -0.0162,-1.65557 0.0493,-2.48104 0.0356,-0.67862 0.0553,-1.35809 0.0964,-2.03647 0.0113,-0.33033 0.005,-0.66485 0.0626,-0.99121 0.003,-0.0156 0.008,-0.0309 0.008,-0.0467 -0.001,-0.0198 -0.0283,0.0269 -0.0418,0.0413 -0.0864,0.0923 -0.17897,0.16501 -0.29966,0.20501 -0.14418,0.024 0.28457,-0.0688 0.42837,-0.0951 0.0614,-0.0116 0.12291,-0.022 0.1843,-0.0329 0.46725,-0.075 0.93639,-0.1396 1.40854,-0.17144 0.51178,-0.0312 1.0248,-0.0454 1.53167,0.0524 0.47892,0.0829 0.95986,0.17245 1.40444,0.38331 0.0693,0.0354 0.14308,0.0616 0.2092,0.10271 0.0419,0.0261 0.14954,0.17965 0.16637,0.0638 0.058,-0.41722 -0.0213,0.26839 -0.12192,0.32869 -0.22537,0.39961 -0.51392,0.75122 -0.83829,1.06996 -1.21294,1.22031 0.46064,2.98918 1.6736,1.76886 z" />
    <path
       style="fill:#000000;fill-opacity:1;fill-rule:nonzero;stroke:none;stroke-width:0.264583"
       id="path11250"
       d="m 145.89788,159.10061 c 0.43941,-0.46404 0.82503,-0.97257 1.17189,-1.51247 0.25387,-0.40127 0.46872,-0.82602 0.64123,-1.27051 0.14993,-0.36228 0.15286,-0.62204 0.14523,-1.0219 -0.21409,-0.7538 -0.69811,-1.06266 -1.42253,-1.07742 -0.42654,-0.0106 -0.85173,0.013 -1.27674,0.0466 -0.41467,0.049 -0.82956,0.0257 -1.2421,-0.0288 -0.4316,-0.0706 -0.85842,-0.16733 -1.29014,-0.23723 -0.60319,-0.11315 -1.18281,0.051 -1.74404,0.26388 -1.58273,0.62444 -0.72634,2.93255 0.85638,2.3081 v 0 c 0.16884,-0.073 0.33617,-0.16753 0.52019,-0.12992 0.45741,0.072 0.90802,0.18347 1.36665,0.24815 0.57169,0.0698 1.14706,0.10314 1.72136,0.0394 0.35297,-0.0288 0.70571,-0.0497 1.06004,-0.0393 0.0146,-2.4e-4 0.0517,0.0116 0.0437,-7.7e-4 -0.008,-0.0144 -0.0327,-0.003 -0.0489,-0.007 -0.0609,-0.0152 -0.12474,-0.0224 -0.18145,-0.0497 -0.39528,-0.19032 -0.61577,-0.45261 -0.72031,-0.89373 5e-5,-0.008 0.0474,-0.64032 -0.016,-0.32889 -0.10791,0.2885 -0.2529,0.55966 -0.41416,0.8201 -0.27045,0.42721 -0.57828,0.82333 -0.92496,1.18826 -1.15424,1.27942 0.60039,2.96269 1.75464,1.68327 z" />
    <path
       style="fill:#000000;fill-opacity:1;fill-rule:nonzero;stroke:none;stroke-width:0.264583"
       id="path11252"
       d="m 137.32109,160.40133 c 0.35737,0.66369 0.90684,1.15801 1.50295,1.58519 0.4869,0.33345 1.02926,0.55612 1.57727,0.75597 0.39113,0.13324 0.78515,0.25639 1.17316,0.39915 0.18875,0.0658 0.36219,0.14929 0.48718,0.31063 0.0457,0.0753 0.29956,0.4478 0.0824,0.13425 -0.0585,0.15415 -0.17482,0.27152 -0.27832,0.39628 -0.1288,0.13483 -0.25041,0.29765 -0.42965,0.3587 -0.10847,0.0404 -0.29917,0.0679 0.22857,-0.0408 -1.69459,-0.007 -1.70486,2.46378 -0.009,2.47127 v 0 c 0.29308,-0.0381 0.52777,-0.0522 0.78683,-0.18707 0.49593,-0.24742 0.92154,-0.59104 1.27392,-1.03042 0.47042,-0.59957 0.82155,-1.25062 0.82432,-2.04404 -0.0113,-0.13902 -0.007,-0.2802 -0.0323,-0.41719 -0.0985,-0.52748 -0.38556,-0.96743 -0.72524,-1.36166 -0.40366,-0.41166 -0.85882,-0.736 -1.40385,-0.91813 -0.39047,-0.14293 -0.78561,-0.27064 -1.17998,-0.40166 -0.35172,-0.12732 -0.70425,-0.25933 -1.02142,-0.46533 -0.28047,-0.19187 -0.55175,-0.4039 -0.73671,-0.69997 -0.79192,-1.54491 -2.91067,-0.39003 -2.11877,1.15487 z" />
    <path
       style="fill:#000000;fill-opacity:1;fill-rule:nonzero;stroke:none;stroke-width:0.264583"
       id="path11254"
       d="m 135.07045,161.55551 c -0.17073,0.56589 -0.24296,1.14061 -0.233,1.73131 0.0933,0.92104 0.41472,1.52275 1.08283,2.12883 0.41028,0.33364 0.89283,0.54292 1.35642,0.78148 0.13481,0.0811 0.28043,0.14833 0.40857,0.24122 0.0265,0.0192 -0.0633,-0.0241 -0.0845,-0.0494 -0.10736,-0.12905 -0.25611,-0.24341 -0.29655,-0.40825 -0.0663,-0.27029 -0.005,-0.55759 -0.008,-0.83638 -0.31159,-0.36728 0.26327,-0.25282 0.28909,-0.42335 7.5e-4,-0.004 -0.0502,0.0148 -0.19122,0.0578 -0.31183,0.0953 0.008,-0.007 -0.37084,0.11635 -0.5139,0.15472 -0.95567,0.43211 -1.3422,0.80826 -0.32923,0.37731 -0.53796,0.81787 -0.54698,1.3342 -0.003,0.12211 0.03,0.2423 0.045,0.36345 0.20651,0.76027 0.75297,1.19341 1.40814,1.5336 0.62288,0.30402 1.2864,0.45037 1.96887,0.505 0.79747,0.0204 1.5782,-0.15204 2.34631,-0.35262 0.82585,-0.23005 1.64539,-0.48332 2.4666,-0.73021 0.72761,-0.20608 1.45404,-0.4132 2.16947,-0.66106 0.61156,-0.20653 1.19538,-0.4733 1.74921,-0.80966 0.43355,-0.27778 0.85271,-0.57825 1.25566,-0.90115 0.32306,-0.25849 0.60804,-0.56088 0.87864,-0.87563 0.22546,-0.28624 0.45125,-0.61817 0.50635,-0.99314 0.0208,-0.14206 0.0219,-0.28636 0.0329,-0.42954 -0.0502,-0.6779 -0.47398,-1.18867 -0.77743,-1.75982 -0.17353,-0.34027 -0.33282,-0.68874 -0.46631,-1.0478 -0.0184,0.12573 -0.1002,-0.39831 -0.079,-0.25429 0.036,0.24342 0.054,0.39441 -0.0154,0.63187 0.17086,-0.16082 0.36015,-0.29781 0.55054,-0.43259 0.23625,-0.16486 0.4767,-0.32321 0.71045,-0.4918 0.28492,-0.20696 0.54066,-0.45223 0.79539,-0.69643 0.3305,-0.31623 0.63712,-0.657 0.91954,-1.01906 0.34011,-0.45863 0.55743,-0.99048 0.74696,-1.52898 0.14394,-0.41933 0.26427,-0.84128 0.33188,-1.28022 -0.0164,-0.17641 -0.007,-0.35746 -0.0494,-0.52922 -0.16917,-0.68562 -0.71764,-1.12193 -1.25762,-1.48982 -0.70722,-0.42789 -1.49513,-0.61624 -2.306,-0.6583 -0.10652,0.001 -0.21313,0.003 -0.3197,0.004 -1.69424,0.0364 -1.64432,2.50715 0.0499,2.47074 v 0 c 0.0591,-10e-4 0.11829,-0.004 0.17748,-0.005 0.38344,0.005 0.75732,0.0918 1.10307,0.26811 0.0703,0.0436 0.26993,0.19144 0.27614,0.18856 0.0226,-0.0106 -0.16999,-0.46769 -0.0573,-0.50673 0.008,-0.0232 0.0302,-0.0935 0.0258,-0.0693 -0.0478,0.26232 -0.16501,0.51114 -0.22873,0.76924 -0.0995,0.28727 -0.20245,0.57731 -0.36995,0.83122 -0.20171,0.26936 -0.43615,0.51074 -0.67442,0.74559 -0.17508,0.1681 -0.34864,0.34002 -0.54261,0.48508 -0.22584,0.16583 -0.46311,0.31464 -0.69082,0.4777 -0.41842,0.29819 -0.8298,0.61371 -1.14255,1.03367 -0.0759,0.12631 -0.1711,0.24241 -0.22768,0.37913 -0.21975,0.53094 -0.17194,1.05643 0.0395,1.5706 0.17507,0.462 0.376,0.91338 0.60365,1.35048 0.10904,0.20192 0.32347,0.65783 0.48021,0.81836 0.007,0.007 0.004,-0.0186 0.005,-0.0279 -0.003,-0.063 -0.005,-0.12617 -0.008,-0.18926 0.0187,-0.1025 0.0472,-0.30708 0.0991,-0.31093 0.003,-1.8e-4 7.4e-4,0.004 10e-4,0.007 -0.014,0.0184 -0.0275,0.0367 -0.0412,0.055 -0.17023,0.20118 -0.34947,0.39498 -0.55369,0.5602 -0.32243,0.26001 -0.65953,0.49943 -1.00543,0.72514 -0.40679,0.25148 -0.84059,0.43936 -1.29153,0.59308 -0.6838,0.23828 -1.37992,0.43128 -2.07515,0.63054 -0.79456,0.23886 -1.58751,0.48365 -2.38621,0.70757 -0.52724,0.13874 -1.06083,0.26997 -1.60785,0.28121 -0.36799,-0.008 -0.72201,-0.11057 -1.06098,-0.25689 -0.27731,-0.13223 -0.16527,-0.0844 -0.11717,0.18477 0.004,0.17242 0.0234,0.43276 -0.13873,0.53786 -0.0809,0.0341 0.31711,-0.22997 0.35855,-0.18743 0.43732,-0.14337 0.98004,-0.24596 1.32666,-0.57906 0.1592,-0.15301 0.27507,-0.34781 0.4126,-0.52173 0.0235,-0.33983 0.13076,-0.68456 0.0703,-1.01952 -0.10861,-0.60255 -0.76061,-0.88662 -1.21177,-1.14719 -0.29886,-0.15257 -0.60649,-0.28932 -0.89137,-0.46926 -0.13132,-0.0749 -0.18995,-0.15704 -0.21949,-0.32648 -0.0406,-0.33281 0.0762,-0.65928 0.14967,-0.97938 0.44795,-1.68531 -1.86333,-2.33857 -2.31128,-0.65326 z" />
    <path
       style="fill:#000000;fill-opacity:1;fill-rule:nonzero;stroke:none;stroke-width:0.264583"
       id="path11256"
       d="m 154.99349,157.46961 c -0.86913,-0.10059 -1.7153,0.16628 -2.52092,0.47076 -0.61519,0.23942 -1.17569,0.56944 -1.62902,1.06212 -0.50221,0.64799 -0.4923,1.54238 0.10029,2.13826 0.39761,0.39973 0.67497,0.40223 1.17107,0.52614 0.79749,0.0869 1.58656,-0.0765 2.36959,-0.20977 0.0684,-0.0106 0.13679,-0.0217 0.20511,-0.0325 1.67486,-0.26592 1.31016,-2.70843 -0.36471,-2.44249 v 0 c -0.077,0.0116 -0.15389,0.0244 -0.23084,0.0366 -0.51922,0.0885 -1.03822,0.19254 -1.56534,0.21386 -0.007,0.13902 -0.005,-0.0618 0.16926,0.22418 0.22552,0.36777 0.25015,0.85774 -0.0668,1.1915 0.0271,-0.1669 0.54444,-0.2982 0.67569,-0.39136 0.45891,-0.17907 0.9499,-0.37703 1.44853,-0.32839 1.68624,0.17358 1.92428,-2.28547 0.23804,-2.45905 z" />
    <path
       style="fill:#000000;fill-opacity:1;fill-rule:nonzero;stroke:none;stroke-width:0.264583"
       id="path11258"
       d="m 133.69986,171.57059 c 0.49869,0.0662 1.001,0.0933 1.50308,0.11272 0.60533,0.0282 1.20955,-0.0241 1.8114,-0.0849 0.69771,-0.0685 1.38218,-0.22798 2.06269,-0.39488 0.68222,-0.17867 1.3594,-0.37696 2.03344,-0.58577 0.69877,-0.2135 1.39037,-0.44918 2.0808,-0.68947 0.80062,-0.28005 1.59694,-0.57298 2.39483,-0.86117 0.78839,-0.2852 1.55824,-0.6196 2.32697,-0.95586 0.67429,-0.30724 1.36817,-0.56232 2.06747,-0.80089 0.64563,-0.22602 1.29428,-0.44226 1.94668,-0.64646 0.57054,-0.17108 1.14043,-0.34445 1.71181,-0.51264 0.3354,-0.099 0.6705,-0.19894 1.00447,-0.303 0.1053,-0.0322 0.27555,-0.0943 0.36131,-0.112 0.0934,-0.004 0.26793,-0.0585 0.38859,-0.10165 1.58783,-0.61047 0.75059,-2.92605 -0.83725,-2.31557 v 0 c 0.0624,-0.0193 0.27058,-0.0562 0.0309,-0.0162 -0.21697,0.0428 -0.42784,0.10723 -0.63709,0.17994 -0.32205,0.10048 -0.64533,0.19666 -0.96879,0.2922 -0.58422,0.17196 -1.16694,0.34917 -1.75028,0.52432 -0.67136,0.21028 -1.33905,0.43242 -2.00346,0.66504 -0.76104,0.25992 -1.51594,0.53859 -2.2502,0.87191 -0.72148,0.31559 -1.44354,0.63062 -2.18337,0.8986 -0.78928,0.28508 -1.57704,0.57487 -2.36899,0.852 -0.66501,0.23145 -1.33093,0.45891 -2.0041,0.66423 -0.62955,0.19515 -1.26206,0.38039 -1.89897,0.54847 -0.5747,0.14134 -1.15221,0.28048 -1.74145,0.33946 -0.49424,0.0501 -0.99041,0.0978 -1.48768,0.0747 -0.42857,-0.0163 -0.85745,-0.038 -1.28322,-0.0938 -1.68042,-0.22574 -1.99,2.22483 -0.30959,2.45057 z" />
    <path
       style="fill:#000000;fill-opacity:1;fill-rule:nonzero;stroke:none;stroke-width:0.264583"
       id="path11260"
       d="m 41.092265,135.91856 c -0.08219,0.61481 -0.110325,1.23461 -0.13017,1.85423 -0.01561,0.57125 -0.0185,1.14274 -0.0194,1.71419 -0.0051,0.53285 0.03149,1.06481 0.09266,1.59355 0.04411,0.46226 0.09118,0.92329 0.155662,1.38315 0.09291,0.6599 0.222483,1.31317 0.35924,1.96463 0.167257,0.76373 0.309062,1.53277 0.481893,2.29521 0.156065,0.69887 0.377982,1.37809 0.63873,2.04203 0.251501,0.62701 0.577029,1.21738 0.916925,1.7969 0.324186,0.55 0.701677,1.06279 1.086898,1.5681 0.315782,0.41295 0.652955,0.80771 0.986735,1.2051 0.342523,0.40638 0.689634,0.80867 1.039556,1.20828 0.373073,0.44075 0.781101,0.84735 1.183413,1.25912 0.488961,0.52159 0.982473,1.03759 1.493971,1.53578 0.571252,0.55866 1.182045,1.07049 1.803211,1.56828 0.567783,0.43208 1.137861,0.85979 1.696016,1.30524 0.638389,0.51571 1.266028,1.04531 1.912124,1.55079 0.512031,0.41529 1.059974,0.77686 1.622282,1.11431 0.593078,0.35049 1.179802,0.71223 1.7708,1.06643 0.606137,0.36721 1.221558,0.71751 1.841968,1.05832 0.680549,0.38202 1.368008,0.7503 2.061996,1.1056 0.791775,0.40623 1.60308,0.76884 2.417207,1.12412 0.880836,0.4032 1.777267,0.76381 2.692621,1.07403 0.909425,0.28937 1.816522,0.58576 2.719005,0.89742 0.67123,0.23282 1.33113,0.49784 1.999441,0.73926 0.698894,0.25357 1.404701,0.48548 2.115012,0.70241 0.816753,0.25069 1.648381,0.44147 2.48167,0.62258 0.814792,0.17527 1.634663,0.3237 2.453584,0.47669 0.731489,0.14206 1.470422,0.23584 2.207031,0.34392 0.762926,0.11302 1.522897,0.24561 2.283242,0.37551 0.793836,0.13801 1.587089,0.27968 2.379917,0.42373 0.907552,0.16713 1.819175,0.30935 2.732782,0.43613 0.956323,0.12832 1.915139,0.23526 2.874908,0.33196 0.855206,0.0845 1.710137,0.17184 2.564824,0.26158 0.914911,0.0882 1.831901,0.15137 2.749851,0.19326 0.97583,0.0402 1.95256,0.036 2.9289,0.0489 1.47101,0.0213 2.94185,0.052 4.41292,0.0704 1.10358,0.013 2.20723,0.0165 3.31087,0.018 0.83096,-0.005 1.66086,-0.0532 2.49135,-0.0785 0.88463,-0.0191 1.76869,-0.0448 2.65218,-0.0954 1.02381,-0.0694 2.04917,-0.10569 3.07339,-0.16669 0.80212,-0.0564 1.60625,-0.0593 2.40928,-0.0905 0.80386,-0.0546 1.6088,-0.0837 2.41351,-0.11981 0.98087,-0.0477 1.95861,-0.14468 2.9357,-0.24263 1.06199,-0.10367 2.12209,-0.22638 3.18162,-0.35359 1.18106,-0.14489 2.35985,-0.30933 3.53689,-0.48564 0.91324,-0.149 1.82696,-0.29314 2.74379,-0.4166 0.87253,-0.10998 1.74499,-0.22096 2.61812,-0.32582 0.78303,-0.0887 1.56476,-0.18618 2.34477,-0.29972 0.8635,-0.11706 1.72062,-0.27464 2.57704,-0.4363 1.00298,-0.19597 2.00846,-0.37775 3.01279,-0.56608 1.01779,-0.18015 2.02306,-0.42351 3.02435,-0.68191 0.9538,-0.25232 1.90445,-0.51695 2.85359,-0.78726 0.71818,-0.20838 1.43892,-0.40736 2.16012,-0.60426 0.70508,-0.18907 1.4157,-0.3548 2.12271,-0.53569 0.74707,-0.18425 1.47801,-0.42772 2.20671,-0.67632 0.61821,-0.21574 1.239,-0.42282 1.86391,-0.61694 0.44409,-0.13484 0.8898,-0.26397 1.33311,-0.40148 0.36052,-0.12168 0.70692,-0.28234 1.0558,-0.43481 0.25174,-0.10651 0.49155,-0.23917 0.72791,-0.37747 0.19612,-0.11576 0.38592,-0.24243 0.57534,-0.3694 0.11899,-0.0781 0.23462,-0.16113 0.34635,-0.24991 0.21205,-0.15152 -0.2386,0.14642 0.0445,-0.0221 0.0589,-0.0252 0.33429,-0.20518 0.34156,-0.20995 0.22887,-0.18354 0.3404,-0.40673 0.44727,-0.67354 0.50846,-1.66694 -1.77766,-2.40844 -2.28612,-0.7415 v 0 c 0.0902,-0.21621 0.1794,-0.39377 0.37054,-0.53808 0.40796,-0.24922 0.022,-0.0219 -0.0748,0.0248 -0.10584,0.0638 -0.21585,0.1227 -0.30958,0.20571 -0.0594,0.048 -0.12235,0.0905 -0.18602,0.13252 -0.14984,0.10049 -0.29947,0.20141 -0.45436,0.29348 -0.15521,0.0915 -0.3118,0.18079 -0.47783,0.24999 -0.26914,0.11764 -0.53648,0.24079 -0.8113,0.34376 -0.44353,0.13773 -0.88966,0.26628 -1.33386,0.40171 -0.64546,0.20058 -1.28685,0.41413 -1.92543,0.63699 -0.67086,0.22895 -1.34337,0.45483 -2.03131,0.62403 -0.71898,0.18422 -1.44184,0.35211 -2.15869,0.5452 -0.7294,0.1992 -1.45833,0.40037 -2.18466,0.61112 -0.93054,0.26503 -1.86256,0.52449 -2.79762,0.77205 -0.95057,0.24552 -1.9048,0.4773 -2.87117,0.64782 -1.00521,0.18855 -2.01162,0.37039 -3.01547,0.56657 -0.8244,0.15563 -1.64935,0.30799 -2.48061,0.42019 -0.76078,0.11085 -1.52324,0.20545 -2.28695,0.29206 -0.88422,0.10622 -1.76775,0.21845 -2.65133,0.33002 -0.92821,0.12516 -1.8534,0.27018 -2.77792,0.42146 -1.15458,0.17307 -2.31096,0.33426 -3.4695,0.47655 -1.04443,0.12545 -2.08943,0.24654 -3.1363,0.3486 -0.93472,0.0938 -1.87002,0.18715 -2.80832,0.23339 -0.80043,0.0361 -1.60117,0.0645 -2.40072,0.11922 -0.81855,0.0328 -1.63835,0.0341 -2.45597,0.0927 -1.02242,0.061 -2.046,0.097 -3.06798,0.16637 -0.86276,0.0496 -1.72609,0.0736 -2.58996,0.0926 -0.80589,0.0245 -1.61124,0.0694 -2.41753,0.0773 -1.09495,-0.001 -2.1899,-0.004 -3.2848,-0.0177 -1.47054,-0.0185 -2.94089,-0.049 -4.41138,-0.0703 -0.9514,-0.013 -1.90319,-0.008 -2.85411,-0.0466 -0.87213,-0.0394 -1.7433,-0.10006 -2.612588,-0.18298 -0.857931,-0.0901 -1.716085,-0.17788 -2.574526,-0.26256 -0.930946,-0.0938 -1.86097,-0.19737 -2.788596,-0.32164 -0.881379,-0.12212 -1.760774,-0.25951 -2.636288,-0.4207 -0.800867,-0.14547 -1.602137,-0.28856 -2.404022,-0.42796 -0.778353,-0.13296 -1.556366,-0.26848 -2.337387,-0.3841 -0.706643,-0.10367 -1.415591,-0.19303 -2.117366,-0.32899 -0.796585,-0.14879 -1.594121,-0.29298 -2.386737,-0.46318 -0.770698,-0.16735 -1.540153,-0.34229 -2.295581,-0.57404 -0.672778,-0.20519 -1.341121,-0.42507 -2.003035,-0.66514 -0.678711,-0.24504 -1.348541,-0.51509 -2.030622,-0.75027 -0.907378,-0.31327 -1.819166,-0.61201 -2.733667,-0.90244 -0.852444,-0.28705 -1.684998,-0.62695 -2.50498,-1.00151 -0.769694,-0.33581 -1.537005,-0.67784 -2.285576,-1.0618 -0.673621,-0.3447 -1.340621,-0.70254 -2.00113,-1.07333 -0.594352,-0.3262 -1.183682,-0.66195 -1.76424,-1.01371 -0.591122,-0.35419 -1.177881,-0.71609 -1.77109,-1.06658 -0.478295,-0.28595 -0.944118,-0.59244 -1.378288,-0.94677 -0.640171,-0.50003 -1.260306,-1.02632 -1.893289,-1.53592 -0.557018,-0.44443 -1.124829,-0.8728 -1.692481,-1.30241 -0.560766,-0.44903 -1.113022,-0.90966 -1.628555,-1.41396 -0.497293,-0.48352 -0.974693,-0.98676 -1.450609,-1.49251 -0.371367,-0.38006 -0.749111,-0.75427 -1.093088,-1.16148 -0.338874,-0.38684 -0.674862,-0.77643 -1.006579,-1.16982 -0.309102,-0.36802 -0.621777,-0.73318 -0.914722,-1.11517 -0.325456,-0.42625 -0.646371,-0.8574 -0.920966,-1.32104 -0.275317,-0.46721 -0.540923,-0.94235 -0.746581,-1.44736 -0.215809,-0.54368 -0.396577,-1.10114 -0.525137,-1.67411 -0.1704,-0.74885 -0.307684,-1.50487 -0.473086,-2.2549 -0.125209,-0.59563 -0.244596,-1.19276 -0.329733,-1.79616 -0.06206,-0.43977 -0.104775,-0.88069 -0.147908,-1.32275 -0.05031,-0.42974 -0.08055,-0.86211 -0.07559,-1.29532 8.54e-4,-0.5458 0.0035,-1.09165 0.01811,-1.63726 0.01699,-0.54035 0.03941,-1.08094 0.111516,-1.61705 0.218095,-1.7329 -2.158515,-2.05096 -2.376607,-0.31805 z" />
    <path
       style="fill:#000000;fill-opacity:1;fill-rule:nonzero;stroke:none;stroke-width:0.264583"
       id="path11262"
       d="m 167.9085,162.47324 c 0.51808,-0.41469 1.06742,-0.78454 1.62068,-1.14663 0.44273,-0.29409 0.90925,-0.54509 1.38341,-0.7799 0.43356,-0.20774 0.85525,-0.43995 1.27172,-0.68163 0.4862,-0.2835 0.9535,-0.59924 1.41757,-0.91924 0.53182,-0.35973 1.03504,-0.7602 1.51383,-1.19133 0.44515,-0.39754 0.78265,-0.89843 1.093,-1.40942 0.28284,-0.47607 0.48149,-0.99738 0.66718,-1.51978 0.126,-0.35393 0.22897,-0.71554 0.32567,-1.07889 0.0937,-0.3349 0.15726,-0.67661 0.19509,-1.02267 0.0337,-0.36139 0.0334,-0.72358 7.3e-4,-1.08476 -0.0287,-0.29988 -0.10101,-0.59069 -0.20349,-0.87211 0.005,0.0144 0.0113,0.0285 0.0162,0.0428 -0.47215,-1.67824 -2.77377,-0.9897 -2.30163,0.68856 v 0 c 0.0156,0.0502 0.0311,0.10059 0.0466,0.15085 0.0299,0.0749 0.0503,0.15117 0.0572,0.23279 0.0208,0.19359 0.0153,0.38754 0.001,0.58188 -0.0184,0.2137 -0.068,0.42238 -0.12306,0.62892 -0.0793,0.29774 -0.16205,0.59448 -0.26547,0.88448 -0.12824,0.36321 -0.25989,0.7288 -0.45114,1.06261 -0.18279,0.30601 -0.37454,0.61561 -0.63719,0.85585 -0.39952,0.3623 -0.82237,0.69512 -1.26735,0.99629 -0.41309,0.28517 -0.82867,0.56717 -1.26133,0.82017 -0.37106,0.21586 -0.7471,0.42273 -1.13383,0.6075 -0.55858,0.27722 -1.10755,0.57489 -1.62956,0.92086 -0.62153,0.40713 -1.23772,0.82443 -1.81898,1.29152 -1.33122,1.0813 0.15172,3.02263 1.48294,1.94134 z" />
    <path
       style="fill:#000000;fill-opacity:1;fill-rule:nonzero;stroke:none;stroke-width:0.264583"
       id="path11264"
       d="m 41.735675,134.99963 c -0.579106,0.19582 -1.12169,0.48314 -1.650455,0.79182 -0.464744,0.28089 -0.889465,0.62344 -1.319629,0.95589 -0.453183,0.36314 -0.888832,0.74831 -1.340406,1.1137 -0.596069,0.47157 -1.203126,0.92814 -1.812566,1.3811 -0.587819,0.41231 -1.133872,0.88088 -1.682334,1.3458 -0.48694,0.40208 -0.971149,0.8074 -1.447213,1.22312 -0.419047,0.37053 -0.834502,0.74524 -1.249095,1.12105 -0.498863,0.44681 -0.981935,0.91125 -1.45607,1.38566 -0.492406,0.5064 -0.995118,1.00198 -1.484811,1.51117 -0.485273,0.49956 -0.950974,1.0186 -1.417015,1.53706 -0.500691,0.55264 -0.986578,1.11864 -1.451487,1.70353 -0.445098,0.57663 -0.862214,1.17537 -1.291551,1.76439 -0.40586,0.54919 -0.828315,1.08489 -1.224824,1.64138 -0.417374,0.60669 -0.768591,1.25749 -1.098457,1.91783 -0.30257,0.60595 -0.5717,1.22844 -0.833689,1.85387 -0.221292,0.53039 -0.454608,1.05527 -0.675309,1.58591 -0.321045,0.7839 -0.56203,1.59751 -0.780334,2.41694 -0.197863,0.73336 -0.348649,1.47802 -0.471634,2.22816 -0.109022,0.71188 -0.175395,1.42936 -0.210329,2.14887 -0.02311,0.72926 -0.02082,1.4591 -0.02084,2.18867 6.32e-4,0.63418 0.0013,1.26837 0.0018,1.90256 -0.0053,0.61485 0.03797,1.22741 0.108364,1.83742 0.08395,0.66407 0.222861,1.31844 0.386896,1.96581 0.156767,0.58759 0.33539,1.16902 0.525818,1.74588 0.185655,0.54121 0.400502,1.07101 0.620019,1.59834 0.199789,0.46788 0.414542,0.9288 0.640366,1.38384 0.249515,0.49738 0.545676,0.96769 0.842222,1.43611 0.291029,0.45458 0.5686,0.91806 0.852469,1.3774 0.296849,0.48292 0.598194,0.96287 0.904658,1.43937 0.28847,0.44529 0.59239,0.8796 0.916421,1.29804 0.377104,0.47695 0.792475,0.9189 1.217433,1.35015 0.338382,0.34594 0.702941,0.66215 1.070388,0.97424 0.324384,0.28904 0.650059,0.57659 0.979064,0.86002 0.336092,0.29483 0.695209,0.55922 1.051295,0.82725 0.391258,0.29659 0.767249,0.61404 1.144532,0.92912 0.388762,0.3351 0.802408,0.63633 1.218025,0.93432 0.43391,0.31932 0.865544,0.64162 1.304888,0.95299 0.49308,0.35077 1.00673,0.66758 1.529711,0.96808 0.449672,0.2539 0.903352,0.49999 1.357026,0.74614 0.493269,0.27342 0.975038,0.56797 1.468225,0.84148 0.404381,0.22357 0.814325,0.43622 1.219443,0.65832 0.311501,0.16954 0.618248,0.34811 0.927968,0.52104 0.329869,0.19112 0.67324,0.3544 1.019462,0.51094 0.355294,0.15607 0.7103,0.31271 1.063306,0.4742 0.399343,0.18487 0.804428,0.35613 1.210117,0.52552 0.370808,0.15003 0.742476,0.29778 1.113919,0.44613 0.340869,0.12992 0.665753,0.29566 0.988165,0.46713 0.329821,0.1782 0.662509,0.35045 0.998535,0.51585 0.416189,0.19547 0.842616,0.36669 1.270503,0.53274 0.440724,0.18459 0.875488,0.38396 1.311797,0.5793 0.848487,0.393 1.751805,0.63129 2.648045,0.8758 0.856244,0.22939 1.718547,0.43321 2.581575,0.63329 0.865536,0.19806 1.727839,0.4105 2.586957,0.63627 0.662635,0.17666 1.315735,0.38813 1.975483,0.5754 0.533475,0.14769 1.07185,0.27476 1.610963,0.39825 0.493103,0.11764 0.979347,0.26263 1.465182,0.40825 0.540118,0.16646 1.081652,0.32755 1.625789,0.47947 0.518921,0.14351 1.03775,0.28741 1.55674,0.43069 0.445819,0.12573 0.884995,0.27427 1.327,0.4131 0.422196,0.11952 0.843332,0.24289 1.266262,0.35965 0.428199,0.11865 0.861773,0.21481 1.292542,0.32284 0.529104,0.13846 1.065219,0.24319 1.603828,0.33303 0.52595,0.0869 1.053608,0.16157 1.581154,0.2371 0.463288,0.0849 0.932945,0.11287 1.400173,0.16213 0.492309,0.0574 0.982341,0.1331 1.473266,0.20154 0.491497,0.0658 0.985419,0.10622 1.477289,0.1691 0.554137,0.0682 1.108939,0.1279 1.662328,0.20269 0.780128,0.10984 1.560956,0.2137 2.342556,0.31165 0.679715,0.0882 1.360662,0.16539 2.041498,0.24367 0.544003,0.0653 1.088711,0.12414 1.63258,0.19054 0.365337,0.043 0.728212,0.10367 1.090018,0.17064 0.533391,0.10824 1.066825,0.21478 1.603504,0.30444 0.714989,0.11171 1.432407,0.20698 2.149867,0.30033 0.838089,0.11446 1.683402,0.14423 2.527049,0.18274 1.075266,0.0464 2.148349,0.12689 3.220085,0.22638 0.785649,0.0799 1.571425,0.15758 2.358155,0.22554 0.67569,0.0477 1.34788,0.13151 2.01917,0.22216 0.73652,0.0978 1.47441,0.18402 2.21217,0.27118 0.70094,0.0894 1.40283,0.16872 2.10775,0.21488 0.84032,0.0434 1.68197,0.0429 2.52311,0.0455 0.86996,0.02 1.73967,0.049 2.60971,0.0658 0.63077,0.013 1.26126,0.0207 1.89163,-0.007 0.71184,-0.034 1.42454,-0.0354 2.13681,-0.053 0.61928,-0.0238 1.23898,-0.0297 1.85846,-0.0457 0.64432,-0.005 1.28541,-0.0765 1.92746,-0.12457 0.63016,-0.0397 1.26131,-0.0478 1.89176,-0.0822 0.78061,-0.0372 1.56031,-0.0922 2.34004,-0.14558 0.99408,-0.0701 1.98769,-0.14727 2.98236,-0.20785 0.99168,-0.0422 1.98174,-0.11851 2.97155,-0.19307 0.83988,-0.0528 1.67691,-0.14206 2.51372,-0.23102 0.82053,-0.0808 1.64209,-0.15036 2.46373,-0.21805 0.56611,-0.0358 1.13116,-0.0799 1.69443,-0.14903 0.53385,-0.0849 1.07178,-0.13123 1.60888,-0.1864 0.68326,-0.0825 1.36541,-0.17343 2.04935,-0.24988 0.6682,-0.0677 1.33604,-0.13904 2.00398,-0.20978 0.88203,-0.0899 1.76318,-0.18838 2.64514,-0.27897 1.0448,-0.0977 2.08814,-0.20877 3.13073,-0.32869 1.05765,-0.10738 2.10995,-0.26085 3.16065,-0.42386 0.7789,-0.12371 1.5581,-0.2454 2.33674,-0.37095 0.68345,-0.10462 1.36199,-0.23863 2.04085,-0.37043 0.71563,-0.14033 1.43019,-0.286 2.14809,-0.41361 0.73126,-0.1253 1.46426,-0.2391 2.19383,-0.37496 0.83347,-0.15795 1.65903,-0.3558 2.48335,-0.55758 0.96404,-0.23487 1.9223,-0.4932 2.87812,-0.76109 0.87913,-0.244 1.75573,-0.49758 2.63131,-0.75483 0.61235,-0.18948 1.23021,-0.35782 1.84977,-0.5201 0.67674,-0.18142 1.35279,-0.3654 2.02533,-0.56284 0.79737,-0.23855 1.56764,-0.56055 2.34627,-0.85534 0.82774,-0.30217 1.64924,-0.62193 2.47093,-0.94105 0.77096,-0.29065 1.53817,-0.59123 2.30329,-0.89784 0.6416,-0.26451 1.26986,-0.56196 1.89656,-0.86163 0.46337,-0.22342 0.92088,-0.45892 1.37304,-0.7055 0.43286,-0.24018 0.86437,-0.48288 1.29813,-0.72133 0.51512,-0.28806 1.03993,-0.557 1.56486,-0.82537 0.56545,-0.289 1.13797,-0.56273 1.7045,-0.84949 0.57187,-0.29424 1.13381,-0.60831 1.69799,-0.91776 0.59009,-0.3214 1.17403,-0.65401 1.74262,-1.01433 0.56375,-0.3712 1.09925,-0.78513 1.62997,-1.20417 0.5122,-0.40814 1.01525,-0.82847 1.51428,-1.25359 0.48908,-0.41839 0.98057,-0.83363 1.4589,-1.26513 0.51564,-0.44152 0.94691,-0.96969 1.36928,-1.50281 0.43213,-0.55064 0.8272,-1.13045 1.21019,-1.71803 0.26989,-0.41479 0.52874,-0.83741 0.77306,-1.26874 0.2116,-0.38138 0.39078,-0.78013 0.54884,-1.18777 0.14971,-0.40729 0.27293,-0.82443 0.40117,-1.23928 0.17,-0.51182 0.26319,-1.04388 0.37304,-1.57133 0.0993,-0.47561 0.19625,-0.95176 0.28154,-1.43029 0.0838,-0.46975 0.14913,-0.94264 0.22637,-1.41355 0.0736,-0.41683 0.12627,-0.83695 0.16681,-1.25841 0.0328,-0.34589 0.0377,-0.69358 0.0406,-1.04083 0.007,-0.53802 -0.0389,-1.07493 -0.0994,-1.60876 -0.0501,-0.50635 -0.18256,-0.99409 -0.35441,-1.46918 -0.14335,-0.38499 -0.3336,-0.74815 -0.53142,-1.10558 -0.20096,-0.33829 -0.38992,-0.68384 -0.58112,-1.02802 -0.21447,-0.38761 -0.44103,-0.76785 -0.66677,-1.14851 -0.2358,-0.39567 -0.46765,-0.79371 -0.71151,-1.18416 -0.27929,-0.41272 -0.54835,-0.83203 -0.804,-1.26068 -0.24737,-0.42224 -0.5189,-0.82842 -0.80171,-1.226 -0.35462,-0.47499 -0.713,-0.94697 -1.06705,-1.42243 -0.3676,-0.49942 -0.74473,-0.99121 -1.10855,-1.49364 -0.34804,-0.50082 -0.70612,-0.9938 -1.07304,-1.48005 -0.26237,-0.3538 -0.54332,-0.69186 -0.83664,-1.01855 -0.28277,-0.30618 -0.5948,-0.58118 -0.9,-0.86285 -0.29488,-0.27673 -0.60163,-0.53944 -0.90701,-0.80366 -0.30067,-0.26122 -0.61027,-0.51099 -0.92123,-0.75896 -0.32529,-0.2561 -0.6541,-0.5074 -0.98119,-0.76108 -0.35914,-0.27898 -0.72046,-0.5548 -1.09274,-0.81491 -0.38451,-0.26233 -0.78604,-0.49637 -1.18458,-0.73491 -0.31078,-0.1924 -0.63474,-0.36022 -0.95256,-0.53949 -0.295,-0.1724 -0.59521,-0.33443 -0.89663,-0.49443 -0.36523,-0.19445 -0.7357,-0.37799 -1.10597,-0.56191 -0.35788,-0.18188 -0.71477,-0.36594 -1.06967,-0.55391 -0.14836,-0.0817 -0.29708,-0.16279 -0.44635,-0.24247 -0.0181,-0.0106 -0.0361,-0.0195 -0.0542,-0.0292 -0.008,-0.004 0.0179,0.008 0.0261,0.0145 0.0385,0.0252 0.0763,0.0516 0.11421,0.0773 -1.34554,-1.06227 -2.80239,0.89997 -1.45683,1.96224 v 0 c 0.0763,0.0533 0.14308,0.10548 0.22491,0.14624 0.16531,0.0912 0.33281,0.17809 0.49755,0.27038 0.37308,0.1975 0.74811,0.39113 1.12443,0.58201 0.35123,0.17445 0.70275,0.34832 1.04919,0.53275 0.28415,0.15078 0.56718,0.30344 0.84509,0.46626 0.29969,0.1684 0.60461,0.32698 0.89774,0.50763 0.35136,0.21032 0.70571,0.41604 1.04594,0.64531 0.33947,0.23566 0.66644,0.48939 0.99396,0.74223 0.31855,0.24706 0.63872,0.49189 0.95569,0.74105 0.28579,0.22785 0.57057,0.45703 0.84684,0.69715 0.28583,0.24727 0.57324,0.49277 0.84912,0.75192 0.25014,0.23086 0.50619,0.45574 0.74178,0.70264 0.24701,0.27349 0.48163,0.55826 0.70191,0.85519 0.35739,0.47339 0.70536,0.95389 1.04446,1.4414 0.37043,0.51091 0.75335,1.01187 1.12768,1.51969 0.34377,0.46148 0.69096,0.92022 1.03641,1.38038 0.24462,0.34265 0.47859,0.69339 0.69191,1.05781 0.26477,0.44356 0.54108,0.87926 0.83142,1.30558 0.23411,0.37321 0.45419,0.7554 0.68067,1.13354 0.21382,0.36054 0.42863,0.72051 0.6318,1.0876 0.19108,0.34399 0.37959,0.68959 0.58079,1.02744 0.1361,0.24409 0.26925,0.49116 0.37017,0.75332 0.10763,0.28466 0.18668,0.57742 0.21542,0.88278 0.0499,0.43057 0.0886,0.86396 0.0829,1.29802 -0.003,0.27356 -0.004,0.54757 -0.0292,0.82015 -0.0346,0.36486 -0.0808,0.72838 -0.14489,1.08909 -0.075,0.45963 -0.13944,0.92105 -0.22058,1.37965 -0.0805,0.45413 -0.17364,0.90573 -0.26744,1.35711 -0.0934,0.44927 -0.16831,0.90345 -0.31317,1.33943 -0.11143,0.36036 -0.21839,0.7227 -0.34517,1.07767 -0.11211,0.29396 -0.242,0.58037 -0.39222,0.85582 -0.2176,0.38635 -0.45092,0.76328 -0.69163,1.13471 -0.34141,0.52427 -0.69288,1.04219 -1.07778,1.53387 -0.3372,0.42679 -0.67631,0.85447 -1.09086,1.20558 -0.46103,0.41637 -0.93582,0.81581 -1.40712,1.21969 -0.47608,0.40584 -0.95622,0.80683 -1.44481,1.1966 -0.4661,0.36822 -0.93567,0.73283 -1.42911,1.06166 -0.52519,0.33409 -1.06661,0.63895 -1.61171,0.93699 -0.5413,0.29688 -1.08038,0.5983 -1.62874,0.88124 -0.56928,0.28824 -1.14486,0.56291 -1.71293,0.85377 -0.54602,0.27921 -1.09182,0.55922 -1.62776,0.85873 -0.43151,0.23728 -0.86095,0.47854 -1.29148,0.7177 -0.41508,0.22664 -0.83524,0.44265 -1.26065,0.64799 -0.58051,0.27777 -1.16237,0.55367 -1.75622,0.80004 -0.75731,0.3035 -1.51672,0.6009 -2.27985,0.88858 -0.81552,0.31673 -1.63085,0.63408 -2.4524,0.93395 -0.72278,0.27376 -1.43769,0.57323 -2.17672,0.79841 -0.65034,0.19116 -1.30432,0.36857 -1.95871,0.54436 -0.64188,0.16811 -1.28198,0.34265 -1.91648,0.53862 -0.86622,0.2545 -1.73344,0.50538 -2.6032,0.74676 -0.93091,0.26093 -1.86415,0.51269 -2.80308,0.74138 -0.78232,0.19153 -1.56564,0.37997 -2.35661,0.53027 -0.72306,0.13527 -1.44996,0.24619 -2.17463,0.37147 -0.72983,0.13006 -1.45648,0.27723 -2.18395,0.42026 -0.65451,0.12704 -1.30864,0.25683 -1.9676,0.35744 -0.77412,0.12487 -1.5488,0.24576 -2.32316,0.36878 -1.02044,0.15841 -2.04243,0.3077 -3.06968,0.41159 -1.03323,0.11878 -2.06719,0.22891 -3.10261,0.32564 -0.88433,0.0909 -1.76786,0.18958 -2.65226,0.27969 -0.67251,0.0713 -1.34495,0.14307 -2.01774,0.21127 -0.67727,0.0757 -1.35292,0.16485 -2.02939,0.24775 -0.55232,0.0573 -1.10567,0.10452 -1.6547,0.19158 -0.53216,0.0659 -1.06624,0.10452 -1.60108,0.13947 -0.83995,0.0693 -1.67979,0.14033 -2.5186,0.22322 -0.8131,0.0865 -1.62634,0.17365 -2.44246,0.22455 -0.97878,0.0737 -1.9578,0.1493 -2.93847,0.19083 -1.00051,0.0611 -1.99996,0.1383 -2.99985,0.20899 -0.76892,0.0528 -1.53783,0.10723 -2.30764,0.14365 -0.64638,0.0353 -1.29363,0.0418 -1.93961,0.0853 -0.60403,0.0456 -1.20712,0.11287 -1.81326,0.11879 -0.61867,0.0161 -1.2376,0.0217 -1.85609,0.0457 -0.72851,0.0182 -1.4575,0.0192 -2.18555,0.0548 -0.57989,0.027 -1.15992,0.0162 -1.74018,0.005 -0.88258,-0.0171 -1.76479,-0.0473 -2.64731,-0.0662 -0.79362,-0.003 -1.5877,-0.001 -2.38062,-0.0408 -0.66392,-0.0422 -1.32457,-0.12068 -1.98475,-0.20365 -0.72502,-0.0857 -1.45017,-0.17023 -2.17396,-0.26635 -0.7082,-0.0955 -1.41742,-0.18346 -2.13018,-0.23444 -0.78179,-0.0675 -1.56261,-0.1449 -2.343349,-0.2242 -1.107984,-0.10272 -2.217356,-0.18584 -3.328955,-0.23391 -0.778799,-0.0356 -1.559325,-0.0606 -2.333087,-0.16575 -0.690014,-0.0898 -1.379975,-0.18136 -2.067699,-0.28814 -0.523115,-0.0867 -1.042541,-0.19301 -1.562603,-0.29726 -0.408645,-0.0754 -0.818555,-0.14351 -1.231115,-0.19228 -0.54933,-0.067 -1.099477,-0.12661 -1.648938,-0.19247 -0.672956,-0.0773 -1.346031,-0.1536 -2.017878,-0.24083 -0.774224,-0.097 -1.547671,-0.20003 -2.320436,-0.30876 -0.559074,-0.0754 -1.119479,-0.13643 -1.67933,-0.20493 -0.482995,-0.0616 -0.967742,-0.10314 -1.450554,-0.16554 -0.518336,-0.0722 -1.035708,-0.15252 -1.555682,-0.21153 -0.437029,-0.0444 -0.87592,-0.0718 -1.309103,-0.1509 -0.510275,-0.073 -1.020672,-0.14516 -1.529411,-0.22911 -0.476649,-0.0789 -0.950955,-0.17161 -1.419017,-0.29454 -0.412833,-0.10346 -0.828266,-0.19587 -1.238845,-0.30871 -0.396821,-0.10955 -0.791801,-0.22582 -1.188292,-0.33668 -0.467969,-0.14674 -0.932831,-0.30424 -1.405109,-0.43612 -0.516833,-0.14265 -1.033489,-0.28598 -1.550257,-0.42888 -0.529926,-0.14787 -1.05718,-0.30512 -1.583197,-0.46716 -0.53511,-0.16033 -1.070916,-0.31915 -1.614266,-0.44761 -0.500481,-0.11461 -1.00038,-0.23209 -1.495741,-0.36876 -0.674303,-0.19066 -1.34116,-0.40863 -2.01875,-0.58721 -0.88108,-0.23142 -1.765353,-0.44947 -2.652989,-0.65261 -0.833873,-0.19329 -1.667104,-0.38994 -2.494491,-0.61131 -0.779519,-0.21249 -1.567877,-0.41248 -2.306294,-0.75348 -0.472886,-0.21174 -0.943901,-0.42839 -1.422714,-0.62561 -0.364312,-0.1412 -0.727395,-0.28655 -1.082782,-0.45038 -0.313695,-0.15399 -0.623725,-0.31548 -0.931548,-0.48158 -0.398096,-0.2116 -0.800935,-0.41298 -1.220911,-0.57511 -0.360167,-0.14381 -0.720492,-0.28726 -1.080183,-0.43234 -0.381395,-0.15917 -0.762254,-0.32001 -1.137629,-0.49385 -0.356329,-0.16294 -0.714494,-0.32143 -1.073218,-0.47869 -0.28547,-0.12891 -0.569106,-0.26208 -0.840506,-0.42077 -0.315203,-0.17586 -0.627193,-0.35781 -0.944292,-0.53006 -0.402311,-0.22028 -0.80896,-0.43201 -1.210662,-0.6535 -0.499457,-0.2757 -0.985242,-0.57685 -1.485592,-0.85099 -0.43697,-0.23705 -0.873957,-0.47405 -1.307201,-0.71832 -0.457571,-0.2624 -0.907029,-0.53876 -1.338191,-0.84563 -0.435774,-0.3087 -0.863211,-0.62921 -1.293992,-0.94523 -0.367636,-0.26359 -0.734657,-0.52842 -1.077876,-0.82578 -0.408457,-0.34109 -0.815887,-0.68422 -1.239868,-1.00475 -0.313909,-0.23626 -0.631577,-0.4679 -0.927879,-0.72781 -0.333297,-0.287 -0.662579,-0.57893 -0.991781,-0.8709 -0.313242,-0.26605 -0.625459,-0.53388 -0.913857,-0.82891 -0.358077,-0.36262 -0.708872,-0.73338 -1.027711,-1.13366 -0.280681,-0.35917 -0.539276,-0.73584 -0.78916,-1.11833 -0.298439,-0.46391 -0.591729,-0.93129 -0.880768,-1.40149 -0.288761,-0.46723 -0.57115,-0.93867 -0.867255,-1.40101 -0.250938,-0.39562 -0.502814,-0.79219 -0.715639,-1.21136 -0.201561,-0.40499 -0.392248,-0.8157 -0.571082,-1.23192 -0.195392,-0.46906 -0.38718,-0.94006 -0.553865,-1.42094 -0.172496,-0.52047 -0.333066,-1.04553 -0.476019,-1.57544 -0.137569,-0.53785 -0.253368,-1.08168 -0.32553,-1.63338 -0.06045,-0.51262 -0.09616,-1.02748 -0.09126,-1.54432 -4.46e-4,-0.63358 -0.0011,-1.26717 -0.0018,-1.90078 2.1e-5,-0.68903 -0.0022,-1.37829 0.01792,-2.06708 0.02921,-0.62285 0.0873,-1.24376 0.179966,-1.86019 0.108644,-0.66842 0.243405,-1.33159 0.419569,-1.98493 0.188609,-0.71059 0.394913,-1.41671 0.671881,-2.09698 0.219567,-0.52868 0.452783,-1.05114 0.672697,-1.57966 0.240621,-0.5747 0.487052,-1.14704 0.764984,-1.70387 0.271072,-0.54513 0.558988,-1.08281 0.899377,-1.58587 0.390148,-0.54946 0.810014,-1.07529 1.208308,-1.61842 0.4093,-0.56171 0.807532,-1.13215 1.229983,-1.68349 0.433244,-0.54628 0.887946,-1.0732 1.354837,-1.58917 0.44787,-0.49824 0.895103,-0.99736 1.361534,-1.47735 0.478488,-0.49815 0.970759,-0.98194 1.451786,-1.47748 0.445738,-0.44625 0.899993,-0.88295 1.369245,-1.30296 0.403565,-0.36585 0.80797,-0.73063 1.215812,-1.09143 0.466987,-0.40802 0.942623,-0.80496 1.42012,-1.19981 0.509265,-0.43173 1.014922,-0.86856 1.561784,-1.25004 0.635997,-0.47277 1.269513,-0.94932 1.891141,-1.44208 0.437367,-0.35426 0.861241,-0.72517 1.297931,-1.08008 0.349233,-0.27002 0.69258,-0.55017 1.066015,-0.78457 0.388723,-0.22879 0.786216,-0.44553 1.212222,-0.5919 1.610505,-0.54369 0.864889,-2.89231 -0.745616,-2.34864 z" />
    <path
       style="fill:#000000;fill-opacity:1;fill-rule:nonzero;stroke:none;stroke-width:0.264583"
       id="path11272"
       d="m 164.09225,97.686623 c 0.37092,0.37918 0.73664,0.76362 1.11065,1.13967 0.3648,0.3559 0.71527,0.72646 1.03997,1.12156 0.25571,0.314667 0.47252,0.656487 0.64904,1.023767 0.19415,0.45885 0.39413,0.91481 0.5986,1.36886 0.26855,0.61267 0.50571,1.23945 0.73135,1.87006 0.25119,0.72661 0.49487,1.45576 0.75629,2.17858 0.23992,0.62975 0.49109,1.25468 0.72668,1.88619 0.25091,0.65082 0.4758,1.31148 0.69749,1.97331 0.20595,0.60589 0.38949,1.21929 0.55555,1.83796 0.16736,0.62344 0.31667,1.2516 0.45939,1.88143 0.13314,0.59873 0.26021,1.19887 0.37771,1.80105 0.12516,0.64668 0.25628,1.29204 0.37787,1.93945 0.12123,0.68867 0.22952,1.37945 0.32245,2.07275 0.12922,0.89028 0.20258,1.78733 0.28195,2.68333 0.089,0.87593 0.16588,1.75303 0.25803,2.62859 0.1075,1.09114 0.2174,2.18205 0.32134,3.27356 0.0867,0.88374 0.16401,1.76841 0.23491,2.65367 0.0474,0.80136 0.10361,1.60221 0.15208,2.40355 0.0426,0.80716 0.074,1.61494 0.12879,2.42135 0.044,0.61861 0.10792,1.23547 0.16189,1.8532 0.0419,0.51058 0.046,1.02326 0.0505,1.53528 0.004,0.65028 0.003,1.30056 0.003,1.95083 -3.6e-4,0.68288 -7.3e-4,1.36576 -7.3e-4,2.04862 -0.005,0.7103 0.0112,1.42038 0.0267,2.13044 0.009,0.44582 0.0146,0.89171 0.0166,1.33762 0.001,0.32585 7.4e-4,0.65169 7.4e-4,0.97752 -1e-4,0.3029 -1.7e-4,0.6058 -2e-4,0.9087 -2e-5,0.2448 -2e-5,0.48958 -2e-5,0.73437 -3.8e-4,0.29508 0.0664,0.58273 0.13285,0.86774 0.0282,0.13497 0.0662,0.26771 0.0928,0.40298 -0.0543,-0.0214 0.0411,0.26727 0.0564,0.33002 0.0317,0.11085 0.0641,0.22146 0.0933,0.33303 0.44503,1.68612 2.75745,1.03714 2.31241,-0.649 v 0 c -0.0287,-0.10852 -0.058,-0.21681 -0.0909,-0.32403 0.0434,0.40071 -0.005,-0.15232 -0.0284,-0.21113 -0.0327,-0.15406 -0.0707,-0.30687 -0.10552,-0.46049 -0.0227,-0.0968 -0.0524,-0.21963 -0.0663,-0.2891 0,-0.2447 0,-0.4894 4e-5,-0.73409 3e-5,-0.30274 9e-5,-0.60547 2.1e-4,-0.90821 9e-5,-0.33 3.2e-4,-0.66 -7.4e-4,-0.99 -0.003,-0.45976 -0.007,-0.9195 -0.0172,-1.37915 -0.0144,-0.69219 -0.0326,-1.38439 -0.0262,-2.07681 1.1e-4,-0.68257 3.1e-4,-1.36511 7.4e-4,-2.04767 3.6e-4,-0.65828 10e-4,-1.31658 -0.003,-1.97487 -0.005,-0.57856 -0.0113,-1.15778 -0.0602,-1.73458 -0.0527,-0.60145 -0.1145,-1.20205 -0.15808,-1.80431 -0.0546,-0.80009 -0.0844,-1.60164 -0.12754,-2.40244 -0.0496,-0.81779 -0.10651,-1.63511 -0.15553,-2.4529 -0.072,-0.8979 -0.1503,-1.79524 -0.23826,-2.69164 -0.10468,-1.09998 -0.21548,-2.19934 -0.32387,-3.29894 -0.0908,-0.86156 -0.16615,-1.72467 -0.25395,-2.58656 -0.0828,-0.9341 -0.16028,-1.86914 -0.29466,-2.79732 -0.0991,-0.73715 -0.21393,-1.47174 -0.34355,-2.20388 -0.12277,-0.65334 -0.25492,-1.30469 -0.38129,-1.95729 -0.12249,-0.62712 -0.25461,-1.25219 -0.39346,-1.87568 -0.1502,-0.66263 -0.30754,-1.32347 -0.48362,-1.97936 -0.17986,-0.66778 -0.37729,-1.3303 -0.59975,-1.98443 -0.23073,-0.68883 -0.46519,-1.37631 -0.72599,-2.05383 -0.23269,-0.62367 -0.4796,-1.24132 -0.71801,-1.86267 -0.26068,-0.72024 -0.50244,-1.44727 -0.75359,-2.17106 -0.24848,-0.69291 -0.50932,-1.3817 -0.80578,-2.05451 -0.21552,-0.47861 -0.42309,-0.96068 -0.63292,-1.441927 -0.26734,-0.53987 -0.58296,-1.04989 -0.96439,-1.51292 -0.37449,-0.45118 -0.77164,-0.88077 -1.19098,-1.28807 -0.39815,-0.400225 -0.78463,-0.812365 -1.18441,-1.210758 -1.26213,-1.166069 -2.86134,0.674524 -1.5992,1.840588 z" />
    <path
       style="fill:#000000;fill-opacity:1;fill-rule:nonzero;stroke:none;stroke-width:0.264583"
       id="path11274"
       d="m 43.509579,136.80006 c 0.174358,-0.46876 0.319963,-0.94753 0.439803,-1.43396 0.112245,-0.47058 0.132679,-0.95462 0.142956,-1.43676 0.0055,-0.49162 0.0028,-0.9833 0.0018,-1.47496 0.0023,-0.61512 -0.01006,-1.23042 0.0077,-1.84534 0.01476,-0.67148 0.06654,-1.34007 0.124732,-2.00869 0.0616,-0.78478 0.09884,-1.571 0.165605,-2.3554 0.04781,-0.68294 0.169634,-1.35562 0.292307,-2.02736 0.148426,-0.74764 0.269192,-1.50043 0.376738,-2.25534 0.09124,-0.78284 0.213585,-1.56086 0.345789,-2.33727 0.136519,-0.79034 0.278204,-1.5797 0.42148,-2.36875 0.153242,-0.82693 0.303135,-1.65451 0.448701,-2.48292 0.164672,-1.00483 0.350691,-2.00548 0.552842,-3.00293 0.217535,-1.11989 0.489905,-2.2264 0.791869,-3.32488 0.268479,-0.96806 0.576211,-1.92394 0.886267,-2.87851 0.278461,-0.84814 0.583913,-1.6866 0.896108,-2.52205 0.280883,-0.74785 0.602624,-1.47811 0.91803,-2.21084 0.278252,-0.67469 0.577381,-1.339067 0.895208,-1.994777 0.333807,-0.66586 0.680299,-1.32467 1.010059,-1.99271 0.274793,-0.561048 0.54162,-1.126196 0.823586,-1.683471 0.257664,-0.500124 0.543655,-0.983244 0.838927,-1.460407 0.282508,-0.444421 0.570098,-0.885521 0.872749,-1.315656 0.302589,-0.421963 0.625525,-0.827789 0.954734,-1.227801 0.273275,-0.325745 0.560548,-0.638734 0.859743,-0.939205 0.182157,-0.18093 0.376099,-0.349793 0.584366,-0.497913 0.115721,-0.08605 0.250515,-0.129113 0.38477,-0.17278 -0.16597,0.07673 -0.346389,0.04337 -0.507834,-0.02903 0.168874,0.251064 0.308025,0.521819 0.451393,0.788961 0.235939,0.464226 0.503904,0.907885 0.799948,1.333505 0.376539,0.532183 0.842943,0.981713 1.330179,1.40321 0.549495,0.474086 1.149887,0.877211 1.757977,1.265332 0.637525,0.412367 1.31613,0.74533 2.0117,1.038062 0.67263,0.273237 1.363466,0.494016 2.052528,0.717957 0.678084,0.209151 1.342047,0.462301 2.010357,0.701643 0.770875,0.271903 1.551978,0.511313 2.334094,0.746053 0.723099,0.21136 1.446197,0.42266 2.172838,0.62074 0.659689,0.17311 1.320499,0.34153 1.982129,0.50653 0.629164,0.1603 1.25325,0.34069 1.878242,0.51723 0.689528,0.1968 1.38198,0.38188 2.069324,0.58671 0.683176,0.20741 1.361802,0.430577 2.035552,0.668457 0.857768,0.30337 1.694147,0.66667 2.532984,1.02085 0.57773,0.24001 1.156447,0.47678 1.723053,0.74374 0.353492,0.1732 0.708425,0.34325 1.062202,0.51583 0.396388,0.20395 0.808831,0.36495 1.235592,0.48563 0.257496,0.0692 0.521217,0.0755 0.785076,0.0747 1.694409,-0.0272 1.657186,-2.49811 -0.03722,-2.47097 v 0 c -0.04422,0.003 -0.08749,0.0107 -0.131764,0.008 -0.288632,-0.0738 -0.559734,-0.19859 -0.82705,-0.33143 -0.363609,-0.1773 -0.728267,-0.35231 -1.091706,-0.529977 -0.595567,-0.28007 -1.202652,-0.53138 -1.810119,-0.78258 -0.882492,-0.37259 -1.76273,-0.75379 -2.665421,-1.07213 -0.710427,-0.25037 -1.425681,-0.48621 -2.146063,-0.70439 -0.698042,-0.20787 -1.401041,-0.39651 -2.101359,-0.596001 -0.648145,-0.183045 -1.295385,-0.369988 -1.947968,-0.535753 -0.645287,-0.160928 -1.289761,-0.325196 -1.933213,-0.493775 -0.707493,-0.192716 -1.41141,-0.398791 -2.115489,-0.604323 -0.742999,-0.222919 -1.485132,-0.449948 -2.2176,-0.707748 -0.690147,-0.24707 -1.375928,-0.508033 -2.076117,-0.724097 -0.627488,-0.203921 -1.256944,-0.403787 -1.870315,-0.650281 -0.572206,-0.238743 -1.1299,-0.511505 -1.653679,-0.850516 -0.511658,-0.326041 -1.018918,-0.661595 -1.481669,-1.059747 -0.335182,-0.287485 -0.660998,-0.589365 -0.922722,-0.951741 -0.242536,-0.344866 -0.455678,-0.708231 -0.64759,-1.085665 -0.258421,-0.481265 -0.511866,-0.972743 -0.885675,-1.372099 -0.588474,-0.530667 -1.108986,-0.74444 -1.891009,-0.54266 -0.362712,0.122249 -0.715819,0.273588 -1.028193,0.50393 -0.310235,0.227634 -0.606657,0.474981 -0.878736,0.750225 -0.352176,0.355269 -0.691893,0.723645 -1.013199,1.108932 -0.368435,0.448161 -0.729701,0.902963 -1.067648,1.376206 -0.329996,0.470075 -0.645113,0.950987 -0.952744,1.436899 -0.332464,0.537782 -0.653797,1.082778 -0.943357,1.646677 -0.285368,0.564652 -0.556619,1.136627 -0.834463,1.705232 -0.332338,0.673573 -0.682785,1.337185 -1.018094,2.009155 -0.33382,0.6894 -0.649106,1.38745 -0.941759,2.09658 -0.331606,0.770387 -0.669138,1.538517 -0.963887,2.325017 -0.324879,0.86974 -0.642664,1.74262 -0.932256,2.62562 -0.322016,0.99146 -0.641138,1.98443 -0.919663,2.99 -0.316669,1.15413 -0.603143,2.3165 -0.831912,3.49293 -0.206329,1.01902 -0.396864,2.04116 -0.565084,3.06766 -0.144707,0.82367 -0.293812,1.64648 -0.446158,2.46868 -0.144948,0.79827 -0.288266,1.59686 -0.426347,2.39643 -0.135917,0.79913 -0.262503,1.59982 -0.356451,2.40554 -0.102676,0.72202 -0.21852,1.44192 -0.360758,2.15692 -0.137261,0.75182 -0.269872,1.50531 -0.324588,2.26941 -0.06609,0.7826 -0.105476,1.56679 -0.165128,2.34984 -0.06251,0.71876 -0.116813,1.43772 -0.13335,2.15949 -0.01676,0.63999 -0.0083,1.28019 -0.0087,1.92037 9.28e-4,0.47251 0.0035,0.94506 -0.0012,1.41755 -0.006,0.29672 -0.0088,0.59582 -0.07126,0.88703 -0.09616,0.4014 -0.221233,0.79417 -0.363838,1.18056 -0.586647,1.63939 1.661705,2.49492 2.248351,0.85551 z" />
    <path
       style="fill:#000000;fill-opacity:1;fill-rule:nonzero;stroke:none;stroke-width:0.264583"
       id="path11276"
       d="m 55.376757,88.913022 c -0.288248,0.532862 -0.512777,1.095479 -0.688518,1.677143 -0.201145,0.649014 -0.178707,1.306979 -0.05408,1.966461 0.203602,0.864635 0.662833,1.615167 1.178303,2.315024 0.551415,0.704451 1.213886,1.29831 1.914577,1.838129 0.774132,0.552094 1.621368,0.981604 2.46918,1.397794 0.798457,0.38455 1.610744,0.73729 2.42203,1.09174 0.757453,0.32399 1.512718,0.65355 2.274694,0.966107 0.870538,0.34317 1.759927,0.63195 2.655558,0.89632 0.82623,0.23954 1.661832,0.44209 2.49761,0.64246 0.618464,0.14922 1.240165,0.28332 1.861374,0.41964 0.656993,0.1436 1.316225,0.27506 1.977183,0.39763 0.827563,0.16066 1.658652,0.30061 2.487121,0.45613 0.728003,0.1405 1.456061,0.27845 2.191379,0.37133 0.588023,0.0698 1.175638,0.13134 1.766871,0.16272 0.6684,0.0296 1.337587,0.0293 2.006463,0.0308 0.673908,7.7e-4 1.347804,-1.8e-4 2.021709,-7.6e-4 0.615653,-0.0177 1.229928,-0.0647 1.845348,-0.0888 0.461003,-0.0308 0.922016,-0.0574 1.383847,-0.0696 0.508703,-0.0123 1.017386,-0.0117 1.526037,3.8e-4 0.570773,0.0322 1.136965,0.11456 1.701292,0.20498 0.823009,0.14333 1.651088,0.25184 2.476527,0.37853 0.712856,0.10937 1.428153,0.20032 2.142318,0.29994 0.7299,0.10187 1.45782,0.21742 2.18706,0.32416 0.89851,0.13609 1.80251,0.22831 2.7073,0.30582 0.91971,0.0517 1.83703,0.13594 2.75487,0.21363 0.93474,0.0763 1.87038,0.13836 2.80519,0.21445 0.98771,0.0801 1.9756,0.15934 2.96474,0.21838 1.01616,0.0369 2.03037,0.10946 3.04502,0.175 1.12582,0.0767 2.25428,0.0874 3.38127,0.1354 0.96548,0.0518 1.93189,0.0771 2.89848,0.0915 1.015,0.0235 2.02965,-0.0171 3.0442,-0.0427 0.99255,-0.0181 1.98507,-0.0361 2.9776,-0.0555 1.22708,-0.0193 2.45427,-0.0159 3.68119,-0.0443 1.14667,-0.0362 2.29393,-0.0422 3.44032,-0.0867 1.087,-0.0585 2.17531,-0.0772 3.26327,-0.10558 1.02334,-0.0349 2.0447,-0.10907 3.06609,-0.17976 0.8474,-0.0569 1.69631,-0.0703 2.54358,-0.12823 0.84428,-0.0677 1.6884,-0.13345 2.53381,-0.18455 0.97142,-0.0717 1.9442,-0.12299 2.91541,-0.19724 0.77404,-0.0654 1.54596,-0.15442 2.31839,-0.237 0.74855,-0.0689 1.49474,-0.16079 2.24115,-0.25033 0.67872,-0.0764 1.3548,-0.17391 2.03209,-0.2618 0.54926,-0.0686 1.10017,-0.11632 1.652,-0.15613 0.59054,-0.0546 1.17991,-0.12001 1.76884,-0.1906 0.5335,-0.0678 1.0662,-0.14176 1.60199,-0.18724 0.49254,-0.0482 0.98419,-0.10689 1.47426,-0.17682 0.44885,-0.0628 0.88839,-0.17799 1.32463,-0.30101 0.39777,-0.11114 0.78842,-0.24178 1.16437,-0.41612 0.48998,-0.23534 0.86774,-0.61378 1.18224,-1.05847 0.34107,-0.53673 0.43141,-1.14637 0.4268,-1.774497 -0.0334,-0.73148 -0.2464,-1.42011 -0.53397,-2.08305 -0.35456,-0.75574 -0.83262,-1.438145 -1.31217,-2.112967 -0.4779,-0.683015 -1.01972,-1.312692 -1.59025,-1.913891 -0.59352,-0.626749 -1.28558,-1.136701 -1.9856,-1.62712 -0.77329,-0.544957 -1.58823,-1.020772 -2.4078,-1.486483 -0.79871,-0.45835 -1.59665,-0.918126 -2.39705,-1.373357 -0.74362,-0.418455 -1.48464,-0.841951 -2.23224,-1.252865 -0.50263,-0.262774 -1.00706,-0.521729 -1.50955,-0.784782 -0.48462,-0.265185 -0.98171,-0.504306 -1.47848,-0.743897 -0.57646,-0.289942 -1.15684,-0.570185 -1.74684,-0.829599 -1.55927,-0.684273 -2.49773,1.589656 -0.93843,2.27393 v 0 c 0.56454,0.247195 1.11827,0.517957 1.66996,0.794211 0.47342,0.228328 0.94735,0.455739 1.40896,0.708942 0.4884,0.255672 0.97841,0.507925 1.46749,0.762226 0.73753,0.405006 1.46809,0.823361 2.20172,1.235797 0.80074,0.455402 1.59897,0.915453 2.39805,1.373924 0.75485,0.428728 1.50642,0.86506 2.21864,1.366931 0.56892,0.397473 1.13644,0.805097 1.62015,1.312511 0.49184,0.515803 0.9577,1.057285 1.36854,1.644759 0.38368,0.53926 0.77155,1.0809 1.06542,1.67943 0.16416,0.356 0.28537,0.72543 0.31777,1.1212 0.009,0.101757 0.005,0.208487 -3.7e-4,0.300227 -0.0385,0.0998 -0.12767,0.1668 -0.21361,0.22133 -0.25363,0.12681 -0.5293,0.19386 -0.79782,0.27846 -0.33647,0.0956 -0.67521,0.18739 -1.0215,0.23663 -0.44598,0.0647 -0.89386,0.11625 -1.34207,0.16166 -0.56177,0.0486 -1.12073,0.12265 -1.68,0.19526 -0.55264,0.0663 -1.10562,0.12769 -1.65968,0.18011 -0.5959,0.0431 -1.19083,0.0953 -1.78395,0.16946 -0.66976,0.0871 -1.33829,0.18356 -2.00946,0.25898 -0.73649,0.0884 -1.47274,0.17901 -2.21135,0.24695 -0.74934,0.0801 -1.49818,0.16646 -2.24899,0.23063 -0.95874,0.0737 -1.91913,0.12346 -2.87807,0.19468 -0.85176,0.0516 -1.7023,0.1174 -2.55288,0.18578 -0.84755,0.0586 -1.697,0.0688 -2.54461,0.1283 -0.98817,0.0684 -1.97629,0.14045 -2.96632,0.175 -1.09799,0.0287 -2.19631,0.0476 -3.29335,0.10655 -1.13414,0.0447 -2.26924,0.049 -3.40366,0.0855 -1.22401,0.0287 -2.44829,0.0242 -3.67244,0.0442 -0.99697,0.0194 -1.99393,0.0376 -2.99092,0.0559 -0.98356,0.0249 -1.96722,0.065 -2.95121,0.0423 -0.94519,-0.0139 -1.89019,-0.0388 -2.83427,-0.0897 -1.10992,-0.0468 -2.22119,-0.0582 -3.32998,-0.13265 -1.01853,-0.0658 -2.03662,-0.13877 -3.05668,-0.17573 -0.97235,-0.0577 -1.9434,-0.13632 -2.91435,-0.21483 -0.93229,-0.0758 -1.86541,-0.13797 -2.79769,-0.21383 -0.91727,-0.0777 -1.834,-0.16213 -2.75317,-0.21348 -0.85834,-0.073 -1.7159,-0.16073 -2.56823,-0.28973 -0.73439,-0.10749 -1.46747,-0.22396 -2.20256,-0.32636 -0.70371,-0.0981 -1.408543,-0.1878 -2.110998,-0.29535 -0.820634,-0.12581 -1.643835,-0.23394 -2.462051,-0.37627 -0.667575,-0.10649 -1.33778,-0.20193 -2.013297,-0.23349 -0.547825,-0.0129 -1.095692,-0.0136 -1.643539,-2.5e-4 -0.471564,0.0129 -0.942461,0.0376 -1.413104,0.0706 -0.585324,0.0233 -1.169672,0.0648 -1.755016,0.087 -0.671701,3.9e-4 -1.343401,10e-4 -2.015096,7.7e-4 -0.630054,-0.002 -1.260392,-7.7e-4 -1.890023,-0.0276 -0.535343,-0.0277 -1.067034,-0.0852 -1.599494,-0.14786 -0.688623,-0.0854 -1.369473,-0.2199 -2.051348,-0.34944 -0.830168,-0.15577 -1.662901,-0.29621 -2.492174,-0.45707 -0.635959,-0.117867 -1.270243,-0.244347 -1.902392,-0.382487 -0.606569,-0.13312 -1.213643,-0.2639 -1.817541,-0.40958 -0.796873,-0.19103 -1.593702,-0.38361 -2.381604,-0.61148 -0.819055,-0.24108 -1.632252,-0.50495 -2.428906,-0.81667 -0.745509,-0.30542 -1.484009,-0.62861 -2.225127,-0.94513 -0.779548,-0.340621 -1.560169,-0.679285 -2.327696,-1.048073 -0.707326,-0.346466 -1.415124,-0.701275 -2.068468,-1.149201 -0.527206,-0.401698 -1.026856,-0.843137 -1.447251,-1.364773 -0.303926,-0.395775 -0.581146,-0.823128 -0.729378,-1.309057 -0.05949,-0.252429 -0.08214,-0.486515 -3.71e-4,-0.739589 0.124705,-0.433368 0.30112,-0.846244 0.513719,-1.241646 0.79443,-1.543536 -1.322443,-2.702069 -2.116872,-1.158533 z" />
    <path
       style="fill:#000000;fill-opacity:1;fill-rule:nonzero;stroke:none;stroke-width:0.264583"
       id="path11278"
       d="m 58.103426,89.225057 c 0.282103,-0.234228 0.574645,-0.453958 0.874129,-0.66378 0.218966,-0.150832 0.446187,-0.288379 0.680884,-0.411391 0.305827,-0.143291 0.621584,-0.263192 0.932775,-0.393585 0.574038,-0.24328 1.154263,-0.470562 1.738687,-0.685814 0.708528,-0.253275 1.40795,-0.532306 2.109991,-0.803803 0.656103,-0.253506 1.319645,-0.485232 1.988528,-0.699983 0.685431,-0.213782 1.374409,-0.415143 2.067668,-0.600104 0.900088,-0.230202 1.79975,-0.462176 2.698121,-0.699417 0.902882,-0.243406 1.805254,-0.488386 2.711008,-0.720275 0.939247,-0.242075 1.876716,-0.490889 2.821376,-0.709759 1.090483,-0.266587 2.18845,-0.497887 3.287087,-0.725322 1.168655,-0.231986 2.332024,-0.490793 3.499448,-0.729043 0.885069,-0.190454 1.779884,-0.320239 2.67699,-0.431467 0.846521,-0.09619 1.695078,-0.171723 2.543009,-0.253162 0.90612,-0.09063 1.811742,-0.186325 2.717702,-0.278458 0.994851,-0.109357 1.994007,-0.162447 2.990916,-0.246296 0.897695,-0.06855 1.796285,-0.123376 2.694275,-0.18794 1.07828,-0.06862 2.15524,-0.154338 3.23159,-0.249336 0.97621,-0.09078 1.9528,-0.176548 2.93002,-0.254712 1.01599,-0.08389 2.03572,-0.0936 3.05431,-0.105053 1.31844,-0.03399 2.63696,-0.06201 3.95569,-0.07931 0.99108,-0.0083 1.98231,-0.02162 2.97337,-0.0085 1.10965,-0.0025 2.21637,0.07274 3.32186,0.163275 1.20634,0.10587 2.40729,0.266607 3.60859,0.419998 1.11725,0.14329 2.23151,0.306284 3.34251,0.493923 1.00728,0.170843 2.01585,0.333465 3.02295,0.505361 1.02797,0.183547 2.05341,0.381867 3.07919,0.578047 1.09922,0.208754 2.19984,0.409416 3.2977,0.625726 0.9547,0.188847 1.90632,0.393723 2.85599,0.607716 0.98957,0.232073 1.98304,0.445787 2.97402,0.671284 0.969,0.225082 1.93635,0.456982 2.89832,0.712238 0.99671,0.26865 1.9932,0.540643 2.96806,0.885383 0.83403,0.322718 1.6693,0.639018 2.51752,0.920053 0.90451,0.289855 1.80516,0.591731 2.69864,0.915986 0.79375,0.29215 1.57957,0.606381 2.36288,0.926928 0.71117,0.289558 1.42335,0.576442 2.13486,0.865064 0.68258,0.275241 1.35434,0.577844 2.0179,0.898439 0.37935,0.187274 0.7472,0.397751 1.1144,0.608839 0.31669,0.189853 0.62203,0.398663 0.92426,0.611823 0.42645,0.296322 0.83647,0.616007 1.24041,0.94383 0.43559,0.348236 0.82152,0.749741 1.18271,1.177198 0.32441,0.390446 0.59841,0.821035 0.8685,1.252102 0.2326,0.372941 0.44846,0.755541 0.64439,1.15012 0.19261,0.422164 0.37591,0.844054 0.61342,1.242006 0.2112,0.307175 0.1007,0.156399 0.33147,0.452157 1.07274,1.35276 2.92798,-0.21163 1.85523,-1.564386 v 0 c -0.11296,-0.137626 -0.0584,-0.06678 -0.16366,-0.212633 -0.21602,-0.32079 -0.31654,-0.707849 -0.50438,-1.045619 -0.23304,-0.467269 -0.48779,-0.921668 -0.76394,-1.363425 -0.33325,-0.531154 -0.67516,-1.058687 -1.07756,-1.537774 -0.46053,-0.540837 -0.95238,-1.049956 -1.50482,-1.492369 -0.44611,-0.361438 -0.8988,-0.714133 -1.36932,-1.041359 -0.36239,-0.255319 -0.72903,-0.504739 -1.10981,-0.730212 -0.41654,-0.23943 -0.83438,-0.477111 -1.2652,-0.688457 -0.7094,-0.342213 -1.42715,-0.66597 -2.1567,-0.960029 -0.70933,-0.287714 -1.41929,-0.573734 -2.12826,-0.862365 -0.81267,-0.332483 -1.62797,-0.658324 -2.45155,-0.961135 -0.91442,-0.331517 -1.8358,-0.641399 -2.76151,-0.937783 -0.83429,-0.275788 -1.65427,-0.590692 -2.47529,-0.905632 -1.03417,-0.362961 -2.08841,-0.657862 -3.14572,-0.940139 -0.98879,-0.26211 -1.98287,-0.501033 -2.9789,-0.732084 -0.99262,-0.225814 -1.98769,-0.440009 -2.97891,-0.672386 -0.97023,-0.218507 -1.94239,-0.427928 -2.91775,-0.620762 -1.10211,-0.217059 -2.20692,-0.418783 -3.31037,-0.628182 -1.04102,-0.199091 -2.08168,-0.400394 -3.12499,-0.586331 -1.00844,-0.172018 -2.01832,-0.335072 -3.02694,-0.50604 -1.14184,-0.192737 -2.28701,-0.360438 -3.43525,-0.507667 -1.23621,-0.157849 -2.4721,-0.322835 -3.71357,-0.43099 -1.15858,-0.09467 -2.31852,-0.1726 -3.4814,-0.170821 -1.01123,-0.01272 -2.0226,-4.21e-4 -3.03384,0.0085 -1.3173,0.0173 -2.63439,0.04492 -3.95137,0.07925 -1.07174,0.01214 -2.14458,0.02372 -3.21351,0.112305 -0.98357,0.07872 -1.96651,0.164916 -2.94905,0.256313 -1.06378,0.09391 -2.12818,0.17856 -3.19386,0.246316 -0.9074,0.06523 -1.81542,0.120456 -2.722501,0.19014 -1.010366,0.08503 -2.023022,0.138667 -3.031257,0.250046 -0.901655,0.09172 -1.802981,0.186917 -2.704774,0.277179 -0.869332,0.08354 -1.739311,0.160843 -2.607126,0.26022 -0.957055,0.118939 -1.911607,0.258322 -2.855947,0.460798 -1.169513,0.238793 -2.335042,0.497791 -3.505779,0.730343 -1.116737,0.23119 -2.23277,0.466446 -3.341265,0.73721 -0.961826,0.223301 -1.916742,0.475287 -2.873018,0.722358 -0.911436,0.233398 -1.819556,0.479628 -2.728079,0.724715 -0.900474,0.237846 -1.802311,0.470119 -2.704457,0.701102 -0.730706,0.195387 -1.457181,0.407021 -2.179566,0.632999 -0.712136,0.22892 -1.418735,0.475475 -2.117294,0.745526 -0.690483,0.267076 -1.37836,0.541628 -2.075255,0.790685 -0.616427,0.227499 -1.22877,0.466693 -1.834342,0.723477 -0.375846,0.157631 -0.758447,0.300173 -1.123425,0.483722 -0.321998,0.171113 -0.635711,0.358375 -0.936059,0.567551 -0.340669,0.239406 -0.674439,0.488779 -0.995912,0.755149 -1.338304,1.071959 0.131824,3.023631 1.470132,1.951672 z" />
    <path
       style="fill:#000000;fill-opacity:1;fill-rule:nonzero;stroke:none;stroke-width:0.264583"
       id="path11280"
       d="m 65.099199,93.687261 c 0.210825,-0.413774 0.487747,-0.78127 0.794155,-1.123165 0.446122,-0.47336 0.948986,-0.880995 1.478834,-1.248836 0.663081,-0.429792 1.419613,-0.661172 2.162044,-0.896729 1.296286,-0.408471 2.617183,-0.71781 3.949951,-0.967197 1.509326,-0.258043 3.029041,-0.44767 4.5529,-0.585094 1.59355,-0.133088 3.188769,-0.243459 4.783751,-0.356389 1.361533,-0.0928 2.722824,-0.189234 4.084379,-0.28176 1.138473,-0.08084 2.276902,-0.165417 3.414525,-0.258304 1.233545,-0.08861 2.462688,-0.228291 3.688363,-0.394996 1.024599,-0.136354 2.040719,-0.327853 3.050239,-0.552522 0.78986,-0.175448 1.56218,-0.420699 2.3245,-0.694475 0.73745,-0.264477 1.44983,-0.5931 2.14163,-0.964929 0.6456,-0.369391 1.2598,-0.792626 1.86815,-1.222926 0.51624,-0.387745 1.05977,-0.732093 1.62154,-1.044365 0.42126,-0.23622 0.86683,-0.412622 1.33412,-0.520403 0.69814,-0.155516 1.41009,-0.151419 2.11952,-0.129027 0.93539,0.0398 1.87139,0.0625 2.80531,0.131642 0.88744,0.08839 1.77633,0.158372 2.66477,0.234527 0.91452,0.06553 1.82108,0.213208 2.7241,0.371324 0.92384,0.180304 1.84959,0.346497 2.7795,0.489899 1.0515,0.156847 2.10324,0.310114 3.15158,0.488246 1.1631,0.220408 2.31822,0.483426 3.47482,0.737155 1.14206,0.251982 2.28312,0.508847 3.42215,0.774881 1.03478,0.24793 2.06509,0.515193 3.09496,0.78386 1.03727,0.266837 2.05373,0.610228 3.06803,0.956439 1.19666,0.396189 2.36165,0.881478 3.51216,1.400837 0.7744,0.359526 1.54791,0.721064 2.31651,1.093621 0.54912,0.259387 1.08035,0.555897 1.61631,0.842389 0.51561,0.268424 1.0306,0.541137 1.50505,0.882341 0.16019,0.121685 0.30929,0.257458 0.43522,0.416387 1.11735,1.313802 2.91915,-0.315638 1.8018,-1.629438 v 0 c -0.26581,-0.305096 -0.55118,-0.58952 -0.87974,-0.823679 -0.55998,-0.393013 -1.15184,-0.731046 -1.75945,-1.039645 -0.56351,-0.301194 -1.12241,-0.612221 -1.69976,-0.884902 -0.7881,-0.381945 -1.58114,-0.752795 -2.37531,-1.121133 -1.21865,-0.549542 -2.45274,-1.062782 -3.71985,-1.482919 -1.0688,-0.364658 -2.14021,-0.725137 -3.23319,-1.006098 -1.04928,-0.27372 -2.09905,-0.545964 -3.15339,-0.798299 -1.14927,-0.268365 -2.30054,-0.527631 -3.45283,-0.781824 -1.19281,-0.261675 -2.38407,-0.533164 -3.58401,-0.758394 -1.06013,-0.179991 -2.12358,-0.335676 -3.18693,-0.493974 -0.91443,-0.140746 -1.82448,-0.30553 -2.73302,-0.482257 -0.97019,-0.169385 -1.94417,-0.326571 -2.92654,-0.397633 -0.8978,-0.07669 -1.79594,-0.148294 -2.69279,-0.236753 -0.96698,-0.07042 -1.93586,-0.0971 -2.90437,-0.136801 -0.91929,-0.02737 -1.84152,-0.01531 -2.7437,0.19466 -0.6691,0.169153 -1.31616,0.405674 -1.92091,0.751123 -0.63518,0.355058 -1.25237,0.742278 -1.83746,1.180417 -0.52971,0.374835 -1.06366,0.74455 -1.62324,1.070974 -0.58726,0.318229 -1.19391,0.595557 -1.82058,0.821464 -0.66922,0.241529 -1.34745,0.457497 -2.04107,0.61221 -0.94563,0.211213 -1.897665,0.390085 -2.857541,0.517981 -1.184391,0.161445 -2.372217,0.296062 -3.564276,0.381479 -1.126913,0.09247 -2.254727,0.175535 -3.382498,0.255905 -1.363741,0.09268 -2.727226,0.189242 -4.090944,0.282217 -1.610158,0.114011 -3.220553,0.22543 -4.829242,0.360058 -1.597233,0.145202 -3.190381,0.342705 -4.772162,0.615521 -1.426651,0.268227 -2.84096,0.599282 -4.228532,1.037442 -0.968064,0.309596 -1.943998,0.632222 -2.798131,1.211484 -0.684648,0.480077 -1.335408,1.01067 -1.907032,1.63114 -0.435479,0.497837 -0.8346,1.027456 -1.136892,1.624144 -0.797559,1.54182 1.31696,2.704915 2.114519,1.163094 z" />
    <path
       style="fill:#000000;fill-opacity:1;fill-rule:nonzero;stroke:none;stroke-width:0.264583"
       id="path11288"
       d="m 122.05539,80.139743 c 0.32462,-0.0359 0.64877,-0.08306 0.97566,-0.06622 0.30632,0.02994 0.61241,0.05816 0.91978,0.07367 0.39836,0.01359 0.79364,0.0831 1.18681,0.147196 0.54902,0.0992 1.09843,0.19588 1.64851,0.28876 0.57718,0.09267 1.14303,0.240447 1.70818,0.389899 0.55934,0.15379 1.11471,0.322104 1.67012,0.49018 0.72132,0.221023 1.4471,0.424605 2.17768,0.610314 0.76716,0.185318 1.52779,0.397841 2.2826,0.630618 0.69277,0.200016 1.34755,0.502409 1.99443,0.821737 0.74372,0.377625 1.49431,0.740579 2.24152,1.110714 0.76689,0.381948 1.53143,0.767969 2.29024,1.166704 0.8788,0.461955 1.76397,0.909819 2.62846,1.399997 0.63154,0.350923 1.23018,0.756924 1.81172,1.188698 0.48193,0.364281 0.9678,0.723062 1.44702,1.091173 0.38282,0.291183 0.74659,0.606756 1.10972,0.923207 0.34031,0.312488 0.67898,0.628116 0.99777,0.96403 0.47306,0.507244 0.84692,1.098587 1.21833,1.685632 0.3727,0.56518 0.68723,1.163942 0.95813,1.786698 0.2424,0.579251 0.43045,1.180449 0.62016,1.779596 0.17809,0.560207 0.33055,1.128457 0.47878,1.697677 0.12739,0.50323 0.25364,1.00702 0.34768,1.51818 0.0581,0.332037 0.0923,0.667557 0.11759,1.003697 0.0161,0.21204 0.0252,0.42453 0.0288,0.63716 0.001,0.15592 0.003,0.31181 0.009,0.46756 0.014,0.37227 0.16366,0.50652 0.3685,0.884 1.19746,1.23648 2.89323,-0.50979 1.69577,-1.74627 v 0 c 0.33121,0.62793 0.28107,0.36813 0.3286,0.72554 -0.008,-0.12511 -0.003,-0.25079 -0.007,-0.37608 -0.004,-0.26192 -0.0157,-0.52368 -0.0357,-0.78488 -0.0327,-0.42724 -0.0776,-0.853597 -0.15297,-1.275367 -0.10651,-0.57012 -0.24295,-1.13335 -0.38698,-1.69455 -0.15931,-0.61158 -0.32375,-1.221936 -0.51514,-1.823837 -0.21654,-0.683626 -0.43347,-1.368744 -0.71355,-2.028197 -0.32399,-0.737985 -0.69504,-1.450695 -1.13634,-2.122207 -0.45918,-0.724381 -0.92927,-1.447394 -1.51793,-2.068995 -0.37196,-0.387235 -0.76036,-0.757692 -1.15784,-1.116944 -0.40071,-0.34916 -0.80314,-0.696157 -1.2253,-1.017776 -0.48995,-0.376068 -0.98624,-0.743246 -1.47903,-1.115332 -0.66056,-0.489408 -1.34076,-0.949439 -2.05717,-1.34842 -0.88663,-0.501743 -1.79274,-0.963422 -2.6942,-1.435874 -0.77555,-0.407507 -1.55695,-0.802049 -2.3407,-1.192453 -0.74842,-0.370659 -1.5001,-0.734299 -2.24503,-1.112442 -0.75946,-0.374324 -1.53078,-0.723219 -2.34282,-0.960328 -0.79229,-0.243647 -1.59018,-0.46783 -2.39528,-0.662259 -0.69654,-0.176672 -1.38824,-0.37139 -2.07588,-0.582 -0.58178,-0.176056 -1.16362,-0.352202 -1.74967,-0.512723 -0.63381,-0.167592 -1.26911,-0.330404 -1.91624,-0.434878 -0.55477,-0.09367 -1.10877,-0.191585 -1.66257,-0.291091 -0.47888,-0.07765 -0.96013,-0.157254 -1.44529,-0.174509 -0.31694,-0.01519 -0.63179,-0.0523 -0.94823,-0.07491 -0.44914,-0.01359 -0.89515,0.02219 -1.3407,0.08141 -1.6831,0.20329 -1.4043,2.657787 0.27879,2.454497 z" />
    <path
       style="fill:#000000;fill-opacity:1;fill-rule:nonzero;stroke:none;stroke-width:0.264583"
       id="path11290"
       d="m 105.98559,86.707512 c 0.41994,-0.317987 0.89142,-0.543488 1.37573,-0.734254 0.53439,-0.199197 1.1214,-0.08585 1.67225,-0.02837 1.18396,0.135892 2.36114,0.325779 3.5265,0.579867 1.28205,0.319461 2.56467,0.636454 3.84715,0.954142 1.14092,0.303377 2.30039,0.515797 3.46351,0.70354 1.21535,0.196224 2.43372,0.371495 3.65099,0.554299 1.34368,0.205782 2.687,0.414121 4.028,0.637836 1.60686,0.280358 3.20516,0.610532 4.80502,0.930143 1.45224,0.296881 2.90894,0.569062 4.36765,0.829672 1.20397,0.203436 2.40625,0.414028 3.60399,0.653484 0.94855,0.188417 1.88715,0.422926 2.82205,0.672442 0.6916,0.169038 1.35514,0.408945 1.9781,0.761026 0.2133,0.160453 0.64738,0.389305 0.73063,0.67467 -0.14797,-0.219491 -0.0432,-0.27762 -0.22098,-0.0056 -0.224,0.368087 -0.55327,0.607588 -0.90918,0.824517 -0.84859,0.496285 -1.76695,0.843806 -2.68342,1.179545 -0.98701,0.360236 -2.00068,0.633137 -3.03328,0.808881 -1.0727,0.168811 -2.14485,0.341241 -3.21746,0.510521 -1.13016,0.18158 -2.26453,0.3322 -3.40023,0.47132 -1.20431,0.14043 -2.40609,0.30192 -3.6068,0.47156 -1.52613,0.22967 -3.05161,0.46404 -4.58196,0.66202 -1.63138,0.19088 -3.26967,0.30653 -4.91122,0.32863 -1.86291,0.0437 -3.69264,-0.26222 -5.49798,-0.70401 -1.87215,-0.48474 -3.66263,-1.23726 -5.45436,-1.96564 -2.18941,-0.911065 -4.40095,-1.761962 -6.63151,-2.559356 -1.82097,-0.662675 -3.68596,-1.173583 -5.55918,-1.649428 -1.645553,-0.417402 -2.218002,1.98234 -0.57244,2.399744 v 0 c 1.80184,0.456342 3.59548,0.947519 5.34682,1.584695 2.19908,0.785715 4.37898,1.625325 6.5374,2.523425 1.89856,0.77177 3.79747,1.563987 5.78278,2.071747 1.99724,0.48366 4.02199,0.81789 6.08148,0.76986 1.73028,-0.0258 3.45737,-0.14372 5.17683,-0.34765 1.53923,-0.19952 3.07376,-0.43401 4.60869,-0.66564 1.18656,-0.16769 2.37418,-0.32724 3.56427,-0.46595 1.16235,-0.142507 2.32333,-0.296687 3.48,-0.482497 1.08365,-0.17105 2.16687,-0.34504 3.25056,-0.51599 1.17052,-0.20439 2.32196,-0.50639 3.44105,-0.91799 1.07288,-0.39429 2.14554,-0.80849 3.13314,-1.4013 0.68908,-0.445119 1.31307,-0.962659 1.73212,-1.696543 0.44177,-0.829387 0.65745,-1.613117 0.19798,-2.503521 -0.41424,-0.665836 -0.97237,-1.192136 -1.64678,-1.575406 -0.79671,-0.437739 -1.63428,-0.765428 -2.51482,-0.978075 -0.98266,-0.262045 -1.9693,-0.508019 -2.96624,-0.706052 -1.2134,-0.242483 -2.43123,-0.45651 -3.65094,-0.662367 -1.44311,-0.257809 -2.88426,-0.527055 -4.32095,-0.820836 -1.62416,-0.324465 -3.24676,-0.659597 -4.87816,-0.943544 -1.35344,-0.225716 -2.70918,-0.436156 -4.06533,-0.643755 -1.20894,-0.181523 -2.41896,-0.355606 -3.626,-0.550408 -1.09954,-0.17719 -2.19574,-0.376922 -3.27407,-0.664864 -1.30426,-0.323082 -2.60848,-0.646326 -3.91273,-0.969391 -1.25075,-0.270976 -2.51346,-0.47727 -3.78416,-0.620909 -0.93282,-0.09379 -1.88277,-0.187036 -2.77543,0.18355 -0.6967,0.281658 -1.37432,0.61534 -1.97435,1.082726 -1.34096,1.06841 0.12432,3.02397 1.46527,1.955557 z" />
    <path
       style="fill:#000000;fill-opacity:1;fill-rule:nonzero;stroke:none;stroke-width:0.264583"
       id="path11302"
       d="m 41.549622,134.44539 c -0.70226,0.32182 -1.415167,0.61812 -2.126607,0.91749 -0.705112,0.29213 -1.419255,0.55965 -2.126501,0.84642 -0.91481,0.35871 -1.793923,0.80223 -2.675719,1.23776 -0.975011,0.47298 -1.945503,0.9547 -2.90344,1.4635 -0.705554,0.39727 -1.391906,0.82981 -2.070328,1.27414 -0.811384,0.52727 -1.604444,1.08289 -2.37817,1.66707 -0.785412,0.5819 -1.502356,1.2518 -2.226055,1.911 -0.619806,0.55875 -1.237404,1.11976 -1.837423,1.7011 -0.518456,0.51222 -1.038432,1.02281 -1.529701,1.563 -0.54529,0.61608 -1.022488,1.29231 -1.496682,1.96682 -0.486595,0.69831 -0.947647,1.41539 -1.405601,2.13389 -0.510485,0.81864 -0.943731,1.68254 -1.351561,2.55894 -0.383944,0.83209 -0.737515,1.67855 -1.08524,2.52725 -0.320342,0.79906 -0.588707,1.6187 -0.856895,2.43747 -0.199766,0.59147 -0.380444,1.18943 -0.550929,1.79049 -0.22516,0.79682 -0.400075,1.60745 -0.561622,2.42013 -0.161356,0.86052 -0.269449,1.731 -0.361564,2.60196 -0.06181,0.73362 -0.113029,1.46829 -0.14449,2.204 -0.01858,0.92499 0.05379,1.8489 0.144499,2.76831 0.09939,0.9938 0.267183,1.9776 0.459282,2.95615 0.241259,1.20586 0.545292,2.3975 0.902133,3.57217 0.305559,0.94464 0.624751,1.88537 1.003347,2.80175 0.335866,0.79401 0.748091,1.54975 1.16421,2.30107 0.387543,0.7326 0.840382,1.42222 1.322637,2.09107 0.538079,0.72202 1.104125,1.42175 1.670285,2.12046 0.618351,0.76474 1.320305,1.44919 2.032196,2.11933 0.636313,0.57411 1.245301,1.17828 1.846913,1.79047 0.659071,0.68434 1.36749,1.31219 2.102056,1.90798 0.722664,0.60862 1.469782,1.18425 2.222504,1.75239 0.797248,0.61954 1.600679,1.22935 2.431564,1.80016 0.759722,0.50926 1.526769,1.0065 2.306874,1.48188 0.919856,0.56102 1.87135,1.06205 2.83354,1.54034 0.894956,0.43804 1.816536,0.81392 2.72904,1.21049 0.903164,0.37599 1.778668,0.81586 2.649602,1.26405 0.807082,0.42628 1.623507,0.83163 2.457667,1.19831 0.756324,0.32417 1.532337,0.59456 2.298838,0.8912 0.58628,0.23302 1.184165,0.43177 1.783298,0.62603 0.640636,0.21582 1.281716,0.43025 1.92277,0.64477 0.735944,0.23156 1.449927,0.52795 2.170981,0.80305 0.813851,0.30371 1.644001,0.55667 2.466075,0.83503 0.671076,0.24118 1.339071,0.48911 2.016255,0.71161 0.710374,0.22708 1.420392,0.45494 2.136028,0.66382 0.815918,0.23405 1.640138,0.43523 2.459909,0.65408 0.768287,0.21123 1.539809,0.40964 2.312208,0.60415 0.881243,0.20283 1.76599,0.38702 2.645068,0.60008 1.15251,0.28981 2.30695,0.57149 3.464028,0.84125 0.999386,0.23112 2.008603,0.41294 3.014536,0.61047 0.954812,0.19448 1.918605,0.33147 2.882598,0.46609 1.023333,0.14477 2.052152,0.23752 3.080729,0.33086 1.065917,0.0937 2.131312,0.19339 3.197112,0.28834 1.173483,0.11634 2.35114,0.16533 3.527959,0.22736 0.862958,0.0521 1.725916,0.1025 2.589989,0.12977 0.823444,0.0502 1.643262,0.147 2.465529,0.21387 0.818864,0.075 1.641746,0.0695 2.461107,0.13223 0.763857,0.0854 1.531594,0.11995 2.29678,0.18802 0.81895,0.0801 1.63389,0.19706 2.44871,0.31238 0.90488,0.13483 1.81448,0.23529 2.72573,0.31085 0.84715,0.0734 1.69184,0.17271 2.53914,0.24416 0.89278,0.0705 1.78867,0.0733 2.68349,0.0792 1.09186,0.0116 2.1832,0.001 3.27468,-0.0279 1.58312,-0.0327 3.16529,-0.0981 4.74817,-0.14048 1.40833,-0.0353 2.81709,-0.0442 4.22576,-0.049 1.22919,-0.0106 2.45625,-0.0925 3.68421,-0.14264 0.88496,-0.0512 1.77085,-0.0797 2.65634,-0.11836 0.93316,-0.0645 1.85924,-0.20127 2.78659,-0.32167 0.75888,-0.0951 1.51856,-0.18593 2.28035,-0.25237 0.81115,-0.089 1.62365,-0.15943 2.43661,-0.22745 0.87647,-0.0591 1.74971,-0.15617 2.62449,-0.23577 1.03244,-0.0809 2.06333,-0.18303 3.09392,-0.286 0.95345,-0.0971 1.90702,-0.19365 2.85869,-0.30796 0.93615,-0.11735 1.86509,-0.28772 2.78918,-0.48005 0.85842,-0.18973 1.71926,-0.36705 2.58356,-0.52583 0.93388,-0.16288 1.86644,-0.33347 2.79843,-0.50747 0.87533,-0.15866 1.74609,-0.3424 2.61607,-0.52939 1.06729,-0.23264 2.12967,-0.48819 3.19476,-0.73123 1.29257,-0.2925 2.57982,-0.60877 3.86694,-0.92557 1.1245,-0.25751 2.23557,-0.57181 3.34502,-0.89003 0.89223,-0.26844 1.78013,-0.55208 2.66667,-0.83984 0.79709,-0.25772 1.59148,-0.5242 2.38519,-0.79279 0.48627,-0.16392 0.9679,-0.34102 1.43636,-0.55326 0.62185,-0.30663 1.23485,-0.62866 1.86947,-0.90691 0.89895,-0.37795 1.81525,-0.70923 2.72804,-1.04935 0.93482,-0.36145 1.86588,-0.73345 2.7854,-1.13459 0.91616,-0.39599 1.81444,-0.83419 2.71241,-1.27175 0.72023,-0.35213 1.44491,-0.69444 2.16552,-1.04572 0.66339,-0.32451 1.30589,-0.69173 1.94048,-1.07191 0.68245,-0.41027 1.33761,-0.86608 1.98931,-1.32574 0.61897,-0.42782 1.21059,-0.89461 1.78567,-1.38266 0.57054,-0.51048 1.14486,-1.01556 1.7382,-1.49771 0.61581,-0.47154 1.22674,-0.94937 1.83042,-1.43733 0.51665,-0.41218 1.00321,-0.86183 1.47921,-1.32249 0.45321,-0.42585 0.88391,-0.87441 1.29074,-1.34726 0.40056,-0.46838 0.7353,-0.98913 1.06256,-1.51289 0.33391,-0.55515 0.64714,-1.12331 0.96074,-1.69085 0.20163,-0.36722 0.40398,-0.73404 0.60513,-1.10154 0.18473,-0.34236 0.39475,-0.66914 0.59189,-1.00387 0.28912,-0.50971 0.56439,-1.02774 0.83745,-1.54677 0.26037,-0.50127 0.49468,-1.01632 0.73435,-1.52829 0.21293,-0.46893 0.42268,-0.93939 0.61739,-1.41668 0.29665,-0.75488 0.51242,-1.53953 0.70611,-2.32803 0.1768,-0.72319 0.29564,-1.45899 0.39827,-2.19663 0.0734,-0.52745 0.1007,-1.0594 0.11296,-1.59154 0.0113,-0.49057 0.0113,-0.97973 -0.0319,-1.4685 -0.0975,-0.74762 -0.2223,-1.49171 -0.35485,-2.2335 -0.12754,-0.70344 -0.29899,-1.39648 -0.51804,-2.07527 -0.16024,-0.47687 -0.35012,-0.94231 -0.55513,-1.40032 -0.17278,-0.39087 -0.38634,-0.75961 -0.61073,-1.12072 -0.31933,-0.504 -0.67545,-0.98195 -1.03473,-1.45601 -0.44326,-0.59627 -0.90405,-1.1782 -1.35262,-1.77017 -0.33583,-0.44744 -0.69068,-0.87898 -1.04622,-1.30974 -0.32557,-0.39365 -0.67326,-0.76703 -1.02118,-1.13956 -0.45563,-0.47013 -0.91511,-0.93637 -1.3868,-1.38939 -0.55361,-0.54239 -1.15705,-1.0246 -1.75473,-1.51303 -0.49657,-0.40324 -0.98406,-0.81792 -1.46978,-1.2349 -0.45729,-0.39494 -0.9161,-0.78801 -1.37834,-1.17677 -0.47012,-0.39856 -0.97617,-0.74914 -1.48414,-1.09368 -0.41403,-0.27926 -0.85188,-0.51714 -1.28846,-0.75589 -0.42548,-0.22609 -0.85511,-0.44371 -1.28254,-0.66585 -0.44555,-0.24199 -0.91582,-0.42436 -1.39457,-0.58202 -0.39913,-0.13181 -0.80922,-0.21941 -1.21743,-0.31455 -0.38994,-0.1 -0.78824,-0.15472 -1.18404,-0.22265 -0.23354,-0.0222 -0.45351,-0.10431 -0.67806,-0.16789 -0.009,-0.004 -0.52252,-0.11996 -0.28152,-0.0689 -0.0294,-0.0176 -0.0545,-0.0358 -0.0832,-0.0552 -0.11675,-0.0828 -0.24799,-0.14871 -0.37102,-0.21393 -0.014,-0.0156 -0.0533,-0.0472 0.0266,0.0166 -1.2202,-1.21262 -2.88323,0.56682 -1.66303,1.77942 v 0 c 0.14527,0.13498 0.29348,0.26456 0.4667,0.36096 0.12278,0.0681 0.14742,0.0741 0.23175,0.12703 0.11802,0.0794 0.23816,0.1557 0.36572,0.21816 0.21735,0.10186 0.4416,0.18045 0.67762,0.2201 0.30261,0.0842 0.6015,0.1873 0.91503,0.22138 0.35062,0.0601 0.7037,0.10681 1.04914,0.19539 0.34192,0.0797 0.68588,0.1502 1.02057,0.25947 0.35801,0.11635 0.70926,0.25058 1.04117,0.43348 0.41262,0.21442 0.82723,0.42479 1.23833,0.64227 0.37039,0.20253 0.743,0.40225 1.09507,0.63782 0.43966,0.29765 0.87869,0.59935 1.28571,0.94363 0.45603,0.38345 0.9085,0.77131 1.3596,1.16087 0.50056,0.4297 1.00307,0.85689 1.51472,1.27252 0.54806,0.44778 1.10297,0.88786 1.61054,1.38531 0.44007,0.42186 0.86754,0.85733 1.29325,1.29452 0.31388,0.33604 0.62825,0.67227 0.92236,1.02704 0.33389,0.40452 0.66759,0.80942 0.98288,1.2297 0.44892,0.59226 0.90977,1.17471 1.35341,1.77123 0.31407,0.41345 0.62549,0.83023 0.90594,1.26897 0.16574,0.26512 0.32495,0.53506 0.452,0.82265 0.16896,0.37545 0.32469,0.7574 0.45787,1.14802 0.18646,0.56813 0.32469,1.1507 0.43383,1.73978 0.12179,0.67464 0.23232,1.35204 0.32688,2.03132 0.0448,0.38614 0.0189,0.77595 0.0204,1.16396 -0.009,0.434 -0.0297,0.86793 -0.0894,1.29818 -0.0902,0.65184 -0.19368,1.30229 -0.34945,1.94145 -0.16346,0.66907 -0.3441,1.33536 -0.59238,1.97705 -0.17769,0.43785 -0.37174,0.8683 -0.56579,1.29864 -0.22328,0.47694 -0.44123,0.95694 -0.68278,1.42445 -0.25462,0.48423 -0.51161,0.96735 -0.78004,1.44362 -0.20962,0.35706 -0.43425,0.70486 -0.62975,1.07062 -0.19955,0.36463 -0.40034,0.72854 -0.60039,1.09287 -0.29211,0.52887 -0.58413,1.05812 -0.89352,1.5765 -0.26083,0.41828 -0.52384,0.83702 -0.84188,1.21247 -0.35696,0.41695 -0.73823,0.80896 -1.13679,1.1838 -0.42387,0.41068 -0.85668,0.81216 -1.31725,1.17912 -0.60546,0.48948 -1.21908,0.96759 -1.83587,1.44176 -0.60645,0.4935 -1.19587,1.00757 -1.77825,1.53096 -0.51951,0.44205 -1.05493,0.86358 -1.61483,1.25025 -0.60327,0.42566 -1.20921,0.84864 -1.84073,1.22898 -0.57565,0.34545 -1.15853,0.67916 -1.76032,0.97418 -0.72037,0.35134 -1.44504,0.6933 -2.16503,1.04548 -0.86838,0.42319 -1.73691,0.84743 -2.62286,1.23042 -0.87972,0.38448 -1.77121,0.73917 -2.66543,1.08609 -0.95518,0.35591 -1.91398,0.70283 -2.85389,1.10041 -0.64453,0.28426 -1.2713,0.60398 -1.90097,0.92106 -0.39337,0.18262 -0.80342,0.3221 -1.21183,0.46416 -0.7845,0.26548 -1.56965,0.52891 -2.35751,0.78361 -0.86088,0.27947 -1.72312,0.55481 -2.58933,0.81622 -1.08096,0.31008 -2.1634,0.61675 -3.25917,0.86714 -1.27429,0.31365 -2.54869,0.62688 -3.8284,0.91644 -1.0555,0.24088 -2.10836,0.49403 -3.16601,0.72485 -0.8493,0.18262 -1.69937,0.36211 -2.55394,0.51693 -0.92987,0.17362 -1.86033,0.34373 -2.79209,0.50629 -0.88239,0.16236 -1.76149,0.34254 -2.6379,0.53649 -0.85864,0.17937 -1.722,0.33773 -2.59186,0.44768 -0.93614,0.11272 -1.87431,0.207 -2.81222,0.30283 -1.02388,0.10229 -2.04804,0.2037 -3.07376,0.28407 -0.86909,0.0794 -1.73668,0.17568 -2.60746,0.23428 -0.81609,0.0683 -1.63182,0.1386 -2.44608,0.22826 -0.79377,0.0702 -1.5856,0.16294 -2.37634,0.26283 -0.8618,0.112 -1.72226,0.23901 -2.58898,0.30452 -0.88313,0.0389 -1.76672,0.0666 -2.64936,0.11792 -1.19895,0.049 -2.39709,0.12978 -3.59721,0.14062 -1.4269,0.004 -2.85386,0.0144 -4.28039,0.0498 -1.58319,0.0426 -3.16568,0.10781 -4.74912,0.14047 -1.06523,0.0292 -2.13033,0.0383 -3.19593,0.0272 -0.83495,-0.005 -1.67095,-0.007 -2.50407,-0.0711 -0.84856,-0.0711 -1.69435,-0.17214 -2.54284,-0.24445 -0.86626,-0.071 -1.73078,-0.1678 -2.59094,-0.29578 -0.85522,-0.12096 -1.71062,-0.24343 -2.57028,-0.32632 -0.775755,-0.068 -1.553779,-0.10537 -2.328197,-0.19058 -0.814622,-0.0594 -1.63181,-0.0617 -2.445996,-0.13107 -0.860455,-0.0697 -1.718197,-0.17368 -2.580285,-0.22033 -0.847761,-0.0266 -1.694377,-0.077 -2.541068,-0.12775 -1.148769,-0.0602 -2.298356,-0.10781 -3.443862,-0.22142 -1.064527,-0.0948 -2.128639,-0.19452 -3.193283,-0.28799 -0.99129,-0.0899 -1.982879,-0.17856 -2.969129,-0.31801 -0.921604,-0.12876 -1.843173,-0.2585 -2.755951,-0.44483 -0.97914,-0.19224 -1.961503,-0.36905 -2.934411,-0.59327 -1.150565,-0.26813 -2.298406,-0.54855 -3.444439,-0.8366 -0.872282,-0.21114 -1.749696,-0.39606 -2.624556,-0.59501 -0.761744,-0.19179 -1.522605,-0.38751 -2.28028,-0.59587 -0.802453,-0.21407 -1.609119,-0.41143 -2.408009,-0.63958 -0.690523,-0.20129 -1.375351,-0.4218 -2.060837,-0.64051 -0.670494,-0.22024 -1.331216,-0.4677 -1.996196,-0.70494 -0.794044,-0.2688 -1.595686,-0.51363 -2.382447,-0.80492 -0.751423,-0.28637 -1.495581,-0.59459 -2.262457,-0.83579 -0.648038,-0.21686 -1.296069,-0.43373 -1.943759,-0.65169 -0.557672,-0.18076 -1.114456,-0.36487 -1.660007,-0.58222 -0.734114,-0.28407 -1.477076,-0.54358 -2.202416,-0.8514 -0.790171,-0.34611 -1.561706,-0.73288 -2.326131,-1.13567 -0.916735,-0.47161 -1.838682,-0.93359 -2.788932,-1.33009 -0.875568,-0.38044 -1.759867,-0.74096 -2.619356,-1.15944 -0.901544,-0.4478 -1.793282,-0.91637 -2.655092,-1.4419 -0.74332,-0.4525 -1.473597,-0.92682 -2.197725,-1.41126 -0.801732,-0.54981 -1.574601,-1.14067 -2.344118,-1.7372 -0.730814,-0.55149 -1.456142,-1.11028 -2.157465,-1.7015 -0.664422,-0.53742 -1.30414,-1.10488 -1.899225,-1.72369 -0.623907,-0.63478 -1.255496,-1.26128 -1.914946,-1.85706 -0.632515,-0.59468 -1.25854,-1.19987 -1.808456,-1.87834 -0.537454,-0.66313 -1.074694,-1.32731 -1.586862,-2.01144 -0.425341,-0.58842 -0.824356,-1.19507 -1.164065,-1.8412 -0.370826,-0.66933 -0.740632,-1.34131 -1.041984,-2.04775 -0.350402,-0.83921 -0.636018,-1.7052 -0.92022,-2.57013 -0.333926,-1.09194 -0.613631,-2.20132 -0.839709,-3.32242 -0.177133,-0.89921 -0.33207,-1.8032 -0.423922,-2.71651 -0.07983,-0.80004 -0.144104,-1.60395 -0.134346,-2.40889 0.02867,-0.68265 0.0772,-1.36417 0.132748,-2.045 0.08338,-0.79435 0.181753,-1.58829 0.326911,-2.37338 0.147891,-0.74626 0.307895,-1.49076 0.514103,-2.22254 0.160896,-0.56841 0.332155,-1.13365 0.521126,-1.69286 0.249246,-0.76106 0.497646,-1.52327 0.793991,-2.26656 0.332894,-0.8127 0.671156,-1.62338 1.038501,-2.4203 0.361119,-0.777 0.742617,-1.54386 1.193562,-2.27054 0.437704,-0.68717 0.878573,-1.37289 1.343391,-2.04096 0.415165,-0.59123 0.831508,-1.18524 1.30579,-1.72815 0.455158,-0.50278 0.941306,-0.97379 1.421347,-1.45103 0.581703,-0.56417 1.181742,-1.10718 1.782568,-1.64954 0.669136,-0.6095 1.330046,-1.23149 2.05607,-1.76984 0.730577,-0.55264 1.480759,-1.0763 2.247186,-1.57479 0.617112,-0.40486 1.241974,-0.79798 1.882254,-1.16286 0.937248,-0.49799 1.887194,-0.96859 2.841143,-1.43158 0.829892,-0.40989 1.656326,-0.82945 2.517471,-1.1667 0.716755,-0.29064 1.440715,-0.56124 2.154997,-0.85818 0.741979,-0.31225 1.48543,-0.62148 2.217469,-0.95802 1.541212,-0.7265 0.544856,-2.97408 -0.996356,-2.24758 z" />
  </g>
</svg>
