<?xml version="1.0" encoding="UTF-8"?>
<svg xmlns="http://www.w3.org/2000/svg" xmlns:xlink="http://www.w3.org/1999/xlink" width="1935.11811" height="1935.11811" viewBox="0 0 1935.11811 1935.11811" version="1.1">
<g id="surface1">
<path style="fill:none;stroke-width:2;stroke-linecap:butt;stroke-linejoin:miter;stroke:rgb(0%,0%,0%);stroke-opacity:1;stroke-miterlimit:4;" d="M 323.499634 2.500106 L 323.499634 66.999528 " transform="matrix(3.779528,0,0,3.779528,0,0)"/>
<path style="fill:none;stroke-width:2;stroke-linecap:butt;stroke-linejoin:miter;stroke:rgb(0%,0%,0%);stroke-opacity:1;stroke-miterlimit:4;" d="M 328.499845 120.500138 L 322.500212 136.500195 L 322.500212 168.500309 " transform="matrix(3.779528,0,0,3.779528,0,0)"/>
<path style="fill:none;stroke-width:2;stroke-linecap:butt;stroke-linejoin:miter;stroke:rgb(0%,0%,0%);stroke-opacity:1;stroke-miterlimit:4;" d="M 325.499512 171.000415 L 327.500423 155.000358 L 327.999618 139.000301 L 327.999618 123.000244 " transform="matrix(3.779528,0,0,3.779528,0,0)"/>
<path style="fill:none;stroke-width:2;stroke-linecap:butt;stroke-linejoin:miter;stroke:rgb(0%,0%,0%);stroke-opacity:1;stroke-miterlimit:4;" d="M 399.500163 118.000033 L 415.50022 96.000342 L 431.500277 114.500505 L 440.000016 130.499528 L 443.999772 146.499585 L 446.499878 162.499642 L 444.5 168.500309 L 460.500057 187.999894 " transform="matrix(3.779528,0,0,3.779528,0,0)"/>
<path style="fill:none;stroke-width:2;stroke-linecap:butt;stroke-linejoin:miter;stroke:rgb(0%,0%,0%);stroke-opacity:1;stroke-miterlimit:4;" d="M 482.999976 166.500431 L 472.999552 164.49952 L 473.49978 142.499829 " transform="matrix(3.779528,0,0,3.779528,0,0)"/>
<path style="fill:none;stroke-width:2;stroke-linecap:butt;stroke-linejoin:miter;stroke:rgb(0%,0%,0%);stroke-opacity:1;stroke-miterlimit:4;" d="M 497.500382 125.000122 L 481.500326 110.499715 L 474.000008 98.999642 L 452.000317 59.000016 " transform="matrix(3.779528,0,0,3.779528,0,0)"/>
<path style="fill:none;stroke-width:2;stroke-linecap:butt;stroke-linejoin:miter;stroke:rgb(0%,0%,0%);stroke-opacity:1;stroke-miterlimit:4;" d="M 461.000285 53.999805 L 477.000342 82.000163 " transform="matrix(3.779528,0,0,3.779528,0,0)"/>
<path style="fill:none;stroke-width:2;stroke-linecap:butt;stroke-linejoin:miter;stroke:rgb(0%,0%,0%);stroke-opacity:1;stroke-miterlimit:4;" d="M 485.500081 82.000163 L 470.000252 50.000049 " transform="matrix(3.779528,0,0,3.779528,0,0)"/>
<path style="fill:none;stroke-width:2;stroke-linecap:butt;stroke-linejoin:miter;stroke:rgb(0%,0%,0%);stroke-opacity:1;stroke-miterlimit:4;" d="M 459.499601 48.500399 L 467.500146 64.500456 L 475.499658 80.500513 L 463.500391 94.499658 L 479.500448 118.50026 L 495.500505 132.000212 " transform="matrix(3.779528,0,0,3.779528,0,0)"/>
<path style="fill:none;stroke-width:2;stroke-linecap:butt;stroke-linejoin:miter;stroke:rgb(0%,0%,0%);stroke-opacity:1;stroke-miterlimit:4;" d="M 488.000187 143.000057 L 468.000374 115.499927 L 452.499512 96.999764 L 436.500488 59.000016 " transform="matrix(3.779528,0,0,3.779528,0,0)"/>
<path style="fill:none;stroke-width:2;stroke-linecap:butt;stroke-linejoin:miter;stroke:rgb(0%,0%,0%);stroke-opacity:1;stroke-miterlimit:4;" d="M 430.499821 61.500122 L 447.000106 97.499992 L 463.000163 123.500472 L 481.000098 131.499984 L 497.000155 145.500163 " transform="matrix(3.779528,0,0,3.779528,0,0)"/>
<path style="fill:none;stroke-width:2;stroke-linecap:butt;stroke-linejoin:miter;stroke:rgb(0%,0%,0%);stroke-opacity:1;stroke-miterlimit:4;" d="M 495.999699 151.499797 L 479.999642 141.500407 L 463.999585 137.499618 L 436.00026 109.000065 L 420.500431 82.999585 " transform="matrix(3.779528,0,0,3.779528,0,0)"/>
<path style="fill:none;stroke-width:2;stroke-linecap:butt;stroke-linejoin:miter;stroke:rgb(0%,0%,0%);stroke-opacity:1;stroke-miterlimit:4;" d="M 419.499976 62.999772 L 429.000171 57.500366 L 436.999683 73.999618 L 442.500122 89.999674 L 447.999528 105.999731 L 459.499601 122.500016 L 483.500203 146.499585 " transform="matrix(3.779528,0,0,3.779528,0,0)"/>
<path style="fill:none;stroke-width:2;stroke-linecap:butt;stroke-linejoin:miter;stroke:rgb(0%,0%,0%);stroke-opacity:1;stroke-miterlimit:4;" d="M 494.500049 175.000171 L 494.500049 191.500456 L 486.000309 207.500513 L 475.999886 223.499536 L 463.999585 239.999821 L 461.999707 261.999512 L 455.499845 277.999569 L 445.500456 293.500431 L 437.49991 309.500488 L 425.000415 325.499512 L 414.999992 341.499569 L 422.999504 321.499756 L 438.999561 293.999626 L 455.499845 262.49974 L 461.999707 242.499927 L 478.499992 221.000464 L 494.500049 190.5 " transform="matrix(3.779528,0,0,3.779528,0,0)"/>
<path style="fill:none;stroke-width:2;stroke-linecap:butt;stroke-linejoin:miter;stroke:rgb(0%,0%,0%);stroke-opacity:1;stroke-miterlimit:4;" d="M 506.000122 186.000016 L 485.500081 187.999894 L 473.49978 189.999772 L 456.999495 205.999829 L 440.500244 206.500057 L 426.500065 198.499512 L 441.999894 196.499634 L 422.000081 194.499756 L 427.499487 178.499699 L 425.999837 162.499642 L 409.99978 146.499585 L 407.999902 130.499528 L 402.000269 114.500505 L 413.999536 98.500448 L 411.999658 82.500391 L 411.999658 66.000106 L 420.500431 50.000049 L 444.5 33.999992 L 448.499756 48.000171 " transform="matrix(3.779528,0,0,3.779528,0,0)"/>
<path style="fill:none;stroke-width:2;stroke-linecap:butt;stroke-linejoin:miter;stroke:rgb(0%,0%,0%);stroke-opacity:1;stroke-miterlimit:4;" d="M 445.000228 42.499731 L 436.999683 58.499788 L 443.00035 73.999618 L 448.999984 89.999674 L 456.500301 105.999731 L 466.499691 121.499561 L 470.50048 137.499618 L 472.500358 153.999902 L 482.499748 169.999959 L 477.000342 186.000016 L 463.000163 202.000073 " transform="matrix(3.779528,0,0,3.779528,0,0)"/>
<path style="fill:none;stroke-width:2;stroke-linecap:butt;stroke-linejoin:miter;stroke:rgb(0%,0%,0%);stroke-opacity:1;stroke-miterlimit:4;" d="M 454.000195 243.000155 L 469.500024 223.499536 L 481.500326 185.499788 L 481.500326 201.499845 L 474.000008 218.00013 L 461.999707 234.000187 L 457.999951 257.999756 L 449.500212 274.500041 L 441.499666 291.000326 L 433.500155 307.000382 L 423.999959 323.499634 L 411.999658 339.000496 L 406.000024 327.000195 L 401.500041 343.000252 L 429.500399 320.999528 " transform="matrix(3.779528,0,0,3.779528,0,0)"/>
<path style="fill:none;stroke-width:2;stroke-linecap:butt;stroke-linejoin:miter;stroke:rgb(0%,0%,0%);stroke-opacity:1;stroke-miterlimit:4;" d="M 416.000448 355.999976 L 432.000505 332.000407 L 448.499756 314.000472 L 460.500057 321.999984 L 452.99974 337.499813 L 444.5 353.49987 L 438.500366 369.499927 " transform="matrix(3.779528,0,0,3.779528,0,0)"/>
<path style="fill:none;stroke-width:2;stroke-linecap:butt;stroke-linejoin:miter;stroke:rgb(0%,0%,0%);stroke-opacity:1;stroke-miterlimit:4;" d="M 418.000326 362.499837 L 434.499577 336.999585 L 450.499634 319.499878 L 450.499634 329.999495 L 442.500122 346.49978 L 436.00026 362.499837 L 438.500366 368.500505 L 454.500423 334.500513 L 452.499512 304.500277 L 468.499569 282.499552 L 488.500415 244.499805 L 504.500472 230.499626 " transform="matrix(3.779528,0,0,3.779528,0,0)"/>
<path style="fill:none;stroke-width:2;stroke-linecap:butt;stroke-linejoin:miter;stroke:rgb(0%,0%,0%);stroke-opacity:1;stroke-miterlimit:4;" d="M 511.499528 229.500203 L 493.499593 245.50026 L 486.000309 261.500317 L 484.000431 277.500374 L 479.999642 293.500431 L 474.000008 309.500488 L 470.000252 325.499512 L 468.000374 341.499569 L 468.000374 357.499626 L 453.499967 384.000334 " transform="matrix(3.779528,0,0,3.779528,0,0)"/>
<path style="fill:none;stroke-width:2;stroke-linecap:butt;stroke-linejoin:miter;stroke:rgb(0%,0%,0%);stroke-opacity:1;stroke-miterlimit:4;" d="M 411.500464 398.000513 L 404.000146 398.000513 L 389.999967 404.000146 L 406.500252 387.499862 L 408.50013 371.499805 L 400.000391 355.499748 L 377.999666 331.500179 L 413.999536 299.500065 L 438.000138 267.499951 L 450.499634 251.499894 L 456.500301 233.499959 L 466.499691 217.499902 L 476.500114 201.499845 L 466.499691 189.499544 L 478.499992 173.499487 L 468.499569 157.500464 L 466.499691 141.500407 L 472.500358 118.000033 L 466.499691 102.500203 L 461.999707 86.500146 L 456.000073 70.50009 L 450.499634 54.500033 L 456.500301 38.499976 L 434.499577 52.500155 " transform="matrix(3.779528,0,0,3.779528,0,0)"/>
<path style="fill:none;stroke-width:2;stroke-linecap:butt;stroke-linejoin:miter;stroke:rgb(0%,0%,0%);stroke-opacity:1;stroke-miterlimit:4;" d="M 420.500431 58.499788 L 416.99987 74.499845 L 420.999626 90.499902 L 414.999992 105.999731 L 409.000358 121.999788 L 418.999748 137.499618 L 431.000049 165.499976 L 431.000049 180.999805 L 449.500212 191.000228 " transform="matrix(3.779528,0,0,3.779528,0,0)"/>
<path style="fill:none;stroke-width:2;stroke-linecap:butt;stroke-linejoin:miter;stroke:rgb(0%,0%,0%);stroke-opacity:1;stroke-miterlimit:4;" d="M 450.000439 194.999984 L 434.000382 185.499788 L 438.000138 165.499976 L 436.00026 149.499919 L 429.999593 134.00009 L 428.499943 118.000033 L 420.500431 118.000033 " transform="matrix(3.779528,0,0,3.779528,0,0)"/>
<path style="fill:none;stroke-width:2;stroke-linecap:butt;stroke-linejoin:miter;stroke:rgb(0%,0%,0%);stroke-opacity:1;stroke-miterlimit:4;" d="M 409.000358 119.99991 L 413.000114 146.000391 L 429.000171 155.99978 L 441.000472 169.999959 L 447.000106 186.000016 " transform="matrix(3.779528,0,0,3.779528,0,0)"/>
<path style="fill:none;stroke-width:2;stroke-linecap:butt;stroke-linejoin:miter;stroke:rgb(0%,0%,0%);stroke-opacity:1;stroke-miterlimit:4;" d="M 452.499512 162.000448 L 436.500488 150.000146 L 434.000382 116.000155 L 418.000326 103.499626 L 402.000269 119.499683 " transform="matrix(3.779528,0,0,3.779528,0,0)"/>
<path style="fill:none;stroke-width:2;stroke-linecap:butt;stroke-linejoin:miter;stroke:rgb(0%,0%,0%);stroke-opacity:1;stroke-miterlimit:4;" d="M 424.500187 103.499626 L 420.000203 119.499683 L 423.999959 135.49974 L 429.999593 150.999569 L 445.99965 173.000293 L 458.500179 188.500122 " transform="matrix(3.779528,0,0,3.779528,0,0)"/>
<path style="fill:none;stroke-width:2;stroke-linecap:butt;stroke-linejoin:miter;stroke:rgb(0%,0%,0%);stroke-opacity:1;stroke-miterlimit:4;" d="M 495.500505 197.50009 L 479.999642 227.000098 L 463.999585 246.99991 L 447.999528 261.00009 L 431.500277 282.499552 L 415.50022 304.500277 L 400.000391 318.99965 L 384.000334 332.999829 " transform="matrix(3.779528,0,0,3.779528,0,0)"/>
<path style="fill:none;stroke-width:2;stroke-linecap:butt;stroke-linejoin:miter;stroke:rgb(0%,0%,0%);stroke-opacity:1;stroke-miterlimit:4;" d="M 384.499528 337.499813 L 400.499585 347.500236 L 416.99987 377.500472 " transform="matrix(3.779528,0,0,3.779528,0,0)"/>
<path style="fill:none;stroke-width:2;stroke-linecap:butt;stroke-linejoin:miter;stroke:rgb(0%,0%,0%);stroke-opacity:1;stroke-miterlimit:4;" d="M 394.499951 386.999634 L 378.499894 391.499618 L 362.499837 381 " transform="matrix(3.779528,0,0,3.779528,0,0)"/>
<path style="fill:none;stroke-width:2;stroke-linecap:butt;stroke-linejoin:miter;stroke:rgb(0%,0%,0%);stroke-opacity:1;stroke-miterlimit:4;" d="M 359.000309 386.500439 L 374.500138 396.499829 L 390.500195 393.999723 " transform="matrix(3.779528,0,0,3.779528,0,0)"/>
<path style="fill:none;stroke-width:2;stroke-linecap:butt;stroke-linejoin:miter;stroke:rgb(0%,0%,0%);stroke-opacity:1;stroke-miterlimit:4;" d="M 372.000033 416.499642 L 355.999976 429.999593 " transform="matrix(3.779528,0,0,3.779528,0,0)"/>
<path style="fill:none;stroke-width:2;stroke-linecap:butt;stroke-linejoin:miter;stroke:rgb(0%,0%,0%);stroke-opacity:1;stroke-miterlimit:4;" d="M 350.499536 434.999805 L 354.000098 451.50009 L 355.999976 461.500513 " transform="matrix(3.779528,0,0,3.779528,0,0)"/>
<path style="fill:none;stroke-width:2;stroke-linecap:butt;stroke-linejoin:miter;stroke:rgb(0%,0%,0%);stroke-opacity:1;stroke-miterlimit:4;" d="M 360.499959 447.500334 L 376.500016 470.000252 " transform="matrix(3.779528,0,0,3.779528,0,0)"/>
<path style="fill:none;stroke-width:2;stroke-linecap:butt;stroke-linejoin:miter;stroke:rgb(0%,0%,0%);stroke-opacity:1;stroke-miterlimit:4;" d="M 379.000122 469.500024 L 352.500448 472.00013 L 336.500391 477.999764 L 320.000106 482.499748 L 304.000049 486.999731 " transform="matrix(3.779528,0,0,3.779528,0,0)"/>
<path style="fill:none;stroke-width:2;stroke-linecap:butt;stroke-linejoin:miter;stroke:rgb(0%,0%,0%);stroke-opacity:1;stroke-miterlimit:4;" d="M 298.000415 486.000309 L 314.000472 477.999764 L 330.499723 474.000008 L 346.49978 466.000496 " transform="matrix(3.779528,0,0,3.779528,0,0)"/>
<path style="fill:none;stroke-width:2;stroke-linecap:butt;stroke-linejoin:miter;stroke:rgb(0%,0%,0%);stroke-opacity:1;stroke-miterlimit:4;" d="M 353.49987 461.999707 L 341.499569 445.99965 " transform="matrix(3.779528,0,0,3.779528,0,0)"/>
<path style="fill:none;stroke-width:2;stroke-linecap:butt;stroke-linejoin:miter;stroke:rgb(0%,0%,0%);stroke-opacity:1;stroke-miterlimit:4;" d="M 318.500456 448.499756 L 302.500399 464.499813 L 294.499854 479.999642 L 262.49974 495.999699 L 270.500285 491.999943 L 286.500342 486.000309 " transform="matrix(3.779528,0,0,3.779528,0,0)"/>
<path style="fill:none;stroke-width:2;stroke-linecap:butt;stroke-linejoin:miter;stroke:rgb(0%,0%,0%);stroke-opacity:1;stroke-miterlimit:4;" d="M 270.000057 459.499601 L 227.99952 475.499658 L 220.000008 485.500081 L 236.000065 479.500448 L 254 474.000008 " transform="matrix(3.779528,0,0,3.779528,0,0)"/>
<path style="fill:none;stroke-width:2;stroke-linecap:butt;stroke-linejoin:miter;stroke:rgb(0%,0%,0%);stroke-opacity:1;stroke-miterlimit:4;" d="M 313.500244 443.999772 L 286.999536 459.999829 L 289.000448 469.500024 L 268.999601 485.500081 L 252.999544 499.50026 L 268.500407 485.500081 L 284.500464 475.499658 L 306.500155 455.499845 L 322.500212 447.500334 " transform="matrix(3.779528,0,0,3.779528,0,0)"/>
<path style="fill:none;stroke-width:2;stroke-linecap:butt;stroke-linejoin:miter;stroke:rgb(0%,0%,0%);stroke-opacity:1;stroke-miterlimit:4;" d="M 296.499731 373.499683 L 312.499788 385.499984 L 328.499845 391.499618 L 344.499902 393.000301 L 360.499959 368.999699 L 386.500439 354.99952 " transform="matrix(3.779528,0,0,3.779528,0,0)"/>
<path style="fill:none;stroke-width:2;stroke-linecap:butt;stroke-linejoin:miter;stroke:rgb(0%,0%,0%);stroke-opacity:1;stroke-miterlimit:4;" d="M 343.50048 333.500057 L 327.500423 325.499512 L 305.000505 317.5 L 289.000448 311.500366 L 273.499585 303.499821 L 257.499528 297.500187 L 241.999699 291.000326 L 226.49987 280.999902 L 194.499756 248.999788 L 178.499699 235.499837 L 154.50013 227.500326 L 162.499642 209.500391 L 146.499585 209.500391 L 130.499528 211.000041 L 98.500448 211.000041 L 82.500391 211.500269 L 66.500334 211.500269 L 50.000049 212.999919 L 33.999992 212.999919 L 17.999935 213.500146 L 1.999878 213.500146 " transform="matrix(3.779528,0,0,3.779528,0,0)"/>
<path style="fill:none;stroke-width:2;stroke-linecap:butt;stroke-linejoin:miter;stroke:rgb(0%,0%,0%);stroke-opacity:1;stroke-miterlimit:4;" d="M 1.999878 198.99974 L 34.50022 198.99974 L 50.500277 198.499512 L 66.999528 196.499634 L 82.999585 196.000439 L 98.999642 196.000439 L 116.999577 197.50009 L 132.500439 197.50009 L 148.500496 199.499967 " transform="matrix(3.779528,0,0,3.779528,0,0)"/>
<path style="fill:none;stroke-width:2;stroke-linecap:butt;stroke-linejoin:miter;stroke:rgb(0%,0%,0%);stroke-opacity:1;stroke-miterlimit:4;" d="M 128.000456 171.499609 L 121.499561 175.500399 L 103.499626 181.500033 L 125.50035 177.500277 L 111.500171 167.499854 " transform="matrix(3.779528,0,0,3.779528,0,0)"/>
<path style="fill:none;stroke-width:2;stroke-linecap:butt;stroke-linejoin:miter;stroke:rgb(0%,0%,0%);stroke-opacity:1;stroke-miterlimit:4;" d="M 91.500358 181.500033 L 79.500057 175.500399 L 75.500301 180.999805 L 75.500301 164.999748 " transform="matrix(3.779528,0,0,3.779528,0,0)"/>
<path style="fill:none;stroke-width:2;stroke-linecap:butt;stroke-linejoin:miter;stroke:rgb(0%,0%,0%);stroke-opacity:1;stroke-miterlimit:4;" d="M 68.500212 163.500098 L 62.499544 169.499731 L 71.499512 175.500399 L 48.000171 173.499487 L 41.999504 175.500399 " transform="matrix(3.779528,0,0,3.779528,0,0)"/>
<path style="fill:none;stroke-width:2;stroke-linecap:butt;stroke-linejoin:miter;stroke:rgb(0%,0%,0%);stroke-opacity:1;stroke-miterlimit:4;" d="M 48.999593 162.000448 L 35.000448 163.500098 L 33.499764 179.500155 L 46.000293 163.500098 L 62.499544 165.499976 L 78.499601 164.000326 L 110.999943 164.000326 L 126.499772 166.000203 " transform="matrix(3.779528,0,0,3.779528,0,0)"/>
<path style="fill:none;stroke-width:2;stroke-linecap:butt;stroke-linejoin:miter;stroke:rgb(0%,0%,0%);stroke-opacity:1;stroke-miterlimit:4;" d="M 160.499764 142.499829 L 144.499707 139.999723 L 126.499772 136.500195 L 110.499715 135.999967 L 91.999552 134.00009 L 71.99974 132.000212 L 55.999683 130.000334 " transform="matrix(3.779528,0,0,3.779528,0,0)"/>
<path style="fill:none;stroke-width:2;stroke-linecap:butt;stroke-linejoin:miter;stroke:rgb(0%,0%,0%);stroke-opacity:1;stroke-miterlimit:4;" d="M 27.50013 128.49965 L 11.500073 127 " transform="matrix(3.779528,0,0,3.779528,0,0)"/>
<path style="fill:none;stroke-width:2;stroke-linecap:butt;stroke-linejoin:miter;stroke:rgb(0%,0%,0%);stroke-opacity:1;stroke-miterlimit:4;" d="M 3.000334 125.000122 L 10.999845 121.000366 L 26.999902 123.000244 L 42.499731 124.499894 L 44.000415 130.000334 L 60.000472 125.999544 L 75.999495 125.50035 L 91.999552 128.000456 L 107.999609 130.000334 L 123.999666 130.000334 L 139.999723 132.500439 L 155.99978 136.500195 " transform="matrix(3.779528,0,0,3.779528,0,0)"/>
<path style="fill:none;stroke-width:2;stroke-linecap:butt;stroke-linejoin:miter;stroke:rgb(0%,0%,0%);stroke-opacity:1;stroke-miterlimit:4;" d="M 165.499976 152.500252 L 149.499919 152.500252 L 149.499919 146.999813 L 133.499862 150.999569 L 130.999756 144.999935 L 114.999699 148.999691 L 98.999642 146.999813 L 66.999528 146.999813 L 50.500277 145.500163 L 34.50022 143.000057 L 18.500163 143.000057 L 2.500106 141.000179 " transform="matrix(3.779528,0,0,3.779528,0,0)"/>
<path style="fill:none;stroke-width:2;stroke-linecap:butt;stroke-linejoin:miter;stroke:rgb(0%,0%,0%);stroke-opacity:1;stroke-miterlimit:4;" d="M 3.000334 134.500317 L 19.000391 136.500195 " transform="matrix(3.779528,0,0,3.779528,0,0)"/>
<path style="fill:none;stroke-width:2;stroke-linecap:butt;stroke-linejoin:miter;stroke:rgb(0%,0%,0%);stroke-opacity:1;stroke-miterlimit:4;" d="M 21.999691 164.000326 L 5.999634 164.000326 " transform="matrix(3.779528,0,0,3.779528,0,0)"/>
<path style="fill:none;stroke-width:2;stroke-linecap:butt;stroke-linejoin:miter;stroke:rgb(0%,0%,0%);stroke-opacity:1;stroke-miterlimit:4;" d="M 5.500439 163.500098 L 3.499528 179.500155 L 10.000423 173.499487 L 10.000423 193.999528 L 41.500309 193.999528 L 57.999561 191.99965 L 73.999618 191.500456 L 86.500146 175.500399 L 100.500326 189.499544 L 114.000277 181.500033 L 119.99991 193.500334 L 135.999967 191.500456 L 152.000024 193.500334 " transform="matrix(3.779528,0,0,3.779528,0,0)"/>
<path style="fill:none;stroke-width:2;stroke-linecap:butt;stroke-linejoin:miter;stroke:rgb(0%,0%,0%);stroke-opacity:1;stroke-miterlimit:4;" d="M 136.500195 218.500358 L 121.000366 218.999552 L 105.499504 221.000464 L 79.500057 227.000098 L 73.500423 220.500236 L 57.500366 222.500114 " transform="matrix(3.779528,0,0,3.779528,0,0)"/>
<path style="fill:none;stroke-width:2;stroke-linecap:butt;stroke-linejoin:miter;stroke:rgb(0%,0%,0%);stroke-opacity:1;stroke-miterlimit:4;" d="M 73.999618 259.500439 L 71.99974 254 L 71.99974 270.500285 L 87.999797 286.500342 L 91.500358 287.999992 L 105.499504 273.999813 L 114.000277 261.999512 L 116.000155 273.499585 L 131.499984 275.000269 L 141.999601 286.999536 L 157.999658 291.000326 L 173.999715 296.999959 L 191.500456 312.499788 L 207.500513 309.00026 L 223.000342 299.500065 L 238.500171 301.499943 " transform="matrix(3.779528,0,0,3.779528,0,0)"/>
<path style="fill:none;stroke-width:2;stroke-linecap:butt;stroke-linejoin:miter;stroke:rgb(0%,0%,0%);stroke-opacity:1;stroke-miterlimit:4;" d="M 224.499992 305.499699 L 234.500415 319.499878 L 264.999845 335.499935 L 291.000326 351.499992 " transform="matrix(3.779528,0,0,3.779528,0,0)"/>
<path style="fill:none;stroke-width:2;stroke-linecap:butt;stroke-linejoin:miter;stroke:rgb(0%,0%,0%);stroke-opacity:1;stroke-miterlimit:4;" d="M 296.999959 350.499536 L 281.50013 346.49978 L 265.500073 336.500391 L 249.500016 328.499845 L 233.499959 318.500456 L 217.499902 311.000138 " transform="matrix(3.779528,0,0,3.779528,0,0)"/>
<path style="fill:none;stroke-width:2;stroke-linecap:butt;stroke-linejoin:miter;stroke:rgb(0%,0%,0%);stroke-opacity:1;stroke-miterlimit:4;" d="M 214.999797 316.00035 L 245.000033 332.000407 L 273.000391 347.500236 L 290.500098 363.500293 L 300.499487 379.999544 L 334.000285 395.999601 " transform="matrix(3.779528,0,0,3.779528,0,0)"/>
<path style="fill:none;stroke-width:2;stroke-linecap:butt;stroke-linejoin:miter;stroke:rgb(0%,0%,0%);stroke-opacity:1;stroke-miterlimit:4;" d="M 407.00048 388.500317 L 390.500195 404.500374 L 374.500138 407.999902 L 358.500081 420.500431 L 342.500024 436.00026 L 325.99974 441.999894 L 309.999683 445.99965 L 293.999626 454.000195 L 278.499797 459.499601 L 262.49974 463.999585 L 246.499683 472.00013 L 230.000431 476.500114 L 214.000374 484.499626 L 198.000317 490.500293 L 182.00026 491.999943 L 166.000203 502.000366 L 159.500342 506.000122 L 187.499666 490.000065 " transform="matrix(3.779528,0,0,3.779528,0,0)"/>
<path style="fill:none;stroke-width:2;stroke-linecap:butt;stroke-linejoin:miter;stroke:rgb(0%,0%,0%);stroke-opacity:1;stroke-miterlimit:4;" d="M 182.999683 497.500382 L 162.99987 509.49965 L 178.999927 500.000488 " transform="matrix(3.779528,0,0,3.779528,0,0)"/>
<path style="fill:none;stroke-width:2;stroke-linecap:butt;stroke-linejoin:miter;stroke:rgb(0%,0%,0%);stroke-opacity:1;stroke-miterlimit:4;" d="M 146.000391 418.49952 L 130.000334 422.500309 " transform="matrix(3.779528,0,0,3.779528,0,0)"/>
<path style="fill:none;stroke-width:2;stroke-linecap:butt;stroke-linejoin:miter;stroke:rgb(0%,0%,0%);stroke-opacity:1;stroke-miterlimit:4;" d="M 166.500431 429.000171 L 154.50013 411.000236 L 162.000448 395.000179 L 162.000448 378.499894 L 168.000081 362.499837 L 168.000081 346.49978 L 169.499731 329.999495 L 151.499797 318.000228 L 135.49974 321.999984 L 119.499683 329.500301 L 103.999854 331.500179 " transform="matrix(3.779528,0,0,3.779528,0,0)"/>
<path style="fill:none;stroke-width:2;stroke-linecap:butt;stroke-linejoin:miter;stroke:rgb(0%,0%,0%);stroke-opacity:1;stroke-miterlimit:4;" d="M 115.499927 363.999487 L 101.999976 368.000277 L 98.500448 359.999731 L 82.500391 371.499805 " transform="matrix(3.779528,0,0,3.779528,0,0)"/>
<path style="fill:none;stroke-width:2;stroke-linecap:butt;stroke-linejoin:miter;stroke:rgb(0%,0%,0%);stroke-opacity:1;stroke-miterlimit:4;" d="M 59.000016 357.499626 L 46.999715 373.499683 L 39.000203 375.499561 L 40.499854 361.500415 L 50.000049 368.999699 L 60.000472 357.000431 L 75.999495 354.99952 L 94.000464 351.499992 L 109.999487 350.000342 L 128.000456 350.499536 " transform="matrix(3.779528,0,0,3.779528,0,0)"/>
<path style="fill:none;stroke-width:2;stroke-linecap:butt;stroke-linejoin:miter;stroke:rgb(0%,0%,0%);stroke-opacity:1;stroke-miterlimit:4;" d="M 163.500098 350.000342 L 164.999748 334.000285 L 171.000415 318.000228 L 184.999561 305.999927 L 160.499764 305.999927 L 153.999902 295.500309 L 137.999845 291.000326 L 121.499561 286.999536 L 117.499805 279.000024 " transform="matrix(3.779528,0,0,3.779528,0,0)"/>
<path style="fill:none;stroke-width:2;stroke-linecap:butt;stroke-linejoin:miter;stroke:rgb(0%,0%,0%);stroke-opacity:1;stroke-miterlimit:4;" d="M 128.000456 271.499707 L 111.500171 283.500008 L 89.50048 279.500252 L 77.500179 263.500195 L 77.500179 261.500317 " transform="matrix(3.779528,0,0,3.779528,0,0)"/>
<path style="fill:none;stroke-width:2;stroke-linecap:butt;stroke-linejoin:miter;stroke:rgb(0%,0%,0%);stroke-opacity:1;stroke-miterlimit:4;" d="M 57.999561 291.999748 L 39.500431 284.000236 L 23.500374 287.999992 L 17.499707 282.000358 L 1.49965 291.999748 L 19.499585 273.499585 L 21.000269 264.000423 L 5.000212 264.000423 " transform="matrix(3.779528,0,0,3.779528,0,0)"/>
<path style="fill:none;stroke-width:2;stroke-linecap:butt;stroke-linejoin:miter;stroke:rgb(0%,0%,0%);stroke-opacity:1;stroke-miterlimit:4;" d="M 1.999878 264.499618 L 17.999935 257.999756 L 33.999992 253.499772 L 65.499878 253.499772 L 81.499935 251.499894 L 97.499992 248.999788 L 105.999731 239.000399 L 122.500016 239.499593 L 146.499585 241.500505 " transform="matrix(3.779528,0,0,3.779528,0,0)"/>
<path style="fill:none;stroke-width:2;stroke-linecap:butt;stroke-linejoin:miter;stroke:rgb(0%,0%,0%);stroke-opacity:1;stroke-miterlimit:4;" d="M 135.999967 250.500472 L 132.000212 266.499495 L 116.000155 264.000423 L 101.999976 280.00048 L 125.999544 281.50013 L 144.499707 275.000269 L 148.500496 281.50013 " transform="matrix(3.779528,0,0,3.779528,0,0)"/>
<path style="fill:none;stroke-width:2;stroke-linecap:butt;stroke-linejoin:miter;stroke:rgb(0%,0%,0%);stroke-opacity:1;stroke-miterlimit:4;" d="M 168.999504 273.499585 L 168.999504 257.999756 " transform="matrix(3.779528,0,0,3.779528,0,0)"/>
<path style="fill:none;stroke-width:2;stroke-linecap:butt;stroke-linejoin:miter;stroke:rgb(0%,0%,0%);stroke-opacity:1;stroke-miterlimit:4;" d="M 176.499821 241.500505 L 192.499878 255.49965 L 208.499935 271.499707 L 224.499992 287.999992 L 239.999821 296.499731 L 255.49965 304.500277 L 271.499707 310.49991 L 287.999992 316.499544 " transform="matrix(3.779528,0,0,3.779528,0,0)"/>
<path style="fill:none;stroke-width:2;stroke-linecap:butt;stroke-linejoin:miter;stroke:rgb(0%,0%,0%);stroke-opacity:1;stroke-miterlimit:4;" d="M 325.000317 320.000106 L 361.000187 329.500301 L 377.000244 339.000496 L 395.000179 348.999886 L 411.000236 375.000366 " transform="matrix(3.779528,0,0,3.779528,0,0)"/>
<path style="fill:none;stroke-width:2;stroke-linecap:butt;stroke-linejoin:miter;stroke:rgb(0%,0%,0%);stroke-opacity:1;stroke-miterlimit:4;" d="M 326.499967 388.999512 L 311.000138 381 L 295.500309 368.500505 L 281.50013 352.00022 L 266.000301 343.999674 L 250.500472 333.500057 L 234.999609 325.99974 L 219.49978 316.00035 L 203.499723 314.000472 L 175.500399 305.999927 " transform="matrix(3.779528,0,0,3.779528,0,0)"/>
<path style="fill:none;stroke-width:2;stroke-linecap:butt;stroke-linejoin:miter;stroke:rgb(0%,0%,0%);stroke-opacity:1;stroke-miterlimit:4;" d="M 164.000326 323.499634 L 148.000269 325.499512 L 132.000212 327.999618 L 114.000277 325.99974 L 98.500448 334.000285 L 66.500334 338.000041 L 50.500277 341.999797 L 34.50022 341.999797 L 18.500163 343.50048 L 2.500106 345.500358 " transform="matrix(3.779528,0,0,3.779528,0,0)"/>
<path style="fill:none;stroke-width:2;stroke-linecap:butt;stroke-linejoin:miter;stroke:rgb(0%,0%,0%);stroke-opacity:1;stroke-miterlimit:4;" d="M 1.49965 360.499959 L 17.499707 358.500081 L 33.499764 358.500081 " transform="matrix(3.779528,0,0,3.779528,0,0)"/>
<path style="fill:none;stroke-width:2;stroke-linecap:butt;stroke-linejoin:miter;stroke:rgb(0%,0%,0%);stroke-opacity:1;stroke-miterlimit:4;" d="M 17.999935 329.000073 L 1.999878 324.50009 " transform="matrix(3.779528,0,0,3.779528,0,0)"/>
<path style="fill:none;stroke-width:2;stroke-linecap:butt;stroke-linejoin:miter;stroke:rgb(0%,0%,0%);stroke-opacity:1;stroke-miterlimit:4;" d="M 1.999878 316.999772 L 17.999935 314.999894 L 32.500342 327.000195 L 48.000171 325.000317 " transform="matrix(3.779528,0,0,3.779528,0,0)"/>
<path style="fill:none;stroke-width:2;stroke-linecap:butt;stroke-linejoin:miter;stroke:rgb(0%,0%,0%);stroke-opacity:1;stroke-miterlimit:4;" d="M 1.999878 310.49991 L 17.999935 308.500033 L 33.999992 310.49991 L 50.000049 309.999683 L 65.499878 303.499821 L 63.5 315.500122 L 79.500057 318.99965 L 95.500114 316.999772 L 112.000399 314.999894 L 128.000456 313.000016 L 144.000513 309.00026 L 159.999536 305.000505 L 171.499609 302.500399 L 187.499666 310.49991 " transform="matrix(3.779528,0,0,3.779528,0,0)"/>
<path style="fill:none;stroke-width:2;stroke-linecap:butt;stroke-linejoin:miter;stroke:rgb(0%,0%,0%);stroke-opacity:1;stroke-miterlimit:4;" d="M 153.00048 366.000399 L 137.000423 368.500505 L 114.500505 379.000122 L 98.500448 381 L 82.000163 381.500228 L 65.499878 384.999756 L 48.999593 388.999512 L 32.999536 391.000423 L 16.500285 394.499951 L 0 397.000057 " transform="matrix(3.779528,0,0,3.779528,0,0)"/>
<path style="fill:none;stroke-width:2;stroke-linecap:butt;stroke-linejoin:miter;stroke:rgb(0%,0%,0%);stroke-opacity:1;stroke-miterlimit:4;" d="M 1.49965 402.000269 L 17.499707 398.000513 L 33.499764 395.999601 L 49.499821 391.999845 L 65.499878 389.49974 L 82.000163 384.999756 L 98.00022 383.500106 L 114.500505 381.500228 L 140.499951 377.500472 L 156.500008 373.99991 " transform="matrix(3.779528,0,0,3.779528,0,0)"/>
<path style="fill:none;stroke-width:2;stroke-linecap:butt;stroke-linejoin:miter;stroke:rgb(0%,0%,0%);stroke-opacity:1;stroke-miterlimit:4;" d="M 168.000081 375.499561 L 168.000081 407.00048 L 162.000448 422.999504 " transform="matrix(3.779528,0,0,3.779528,0,0)"/>
<path style="fill:none;stroke-width:2;stroke-linecap:butt;stroke-linejoin:miter;stroke:rgb(0%,0%,0%);stroke-opacity:1;stroke-miterlimit:4;" d="M 159.500342 431.000049 L 143.500285 436.500488 L 127.500228 440.500244 L 111.500171 442.500122 L 94.999886 445.99965 L 76.999951 447.999528 L 61.500122 456.000073 L 45.500065 461.500513 L 30.000236 465.500269 L 14.000179 470.999674 L 23.999569 472.999552 " transform="matrix(3.779528,0,0,3.779528,0,0)"/>
<path style="fill:none;stroke-width:2;stroke-linecap:butt;stroke-linejoin:miter;stroke:rgb(0%,0%,0%);stroke-opacity:1;stroke-miterlimit:4;" d="M 26.00048 443.999772 L 9.500195 443.999772 " transform="matrix(3.779528,0,0,3.779528,0,0)"/>
<path style="fill:none;stroke-width:2;stroke-linecap:butt;stroke-linejoin:miter;stroke:rgb(0%,0%,0%);stroke-opacity:1;stroke-miterlimit:4;" d="M 1.999878 415.50022 L 17.499707 413.500342 L 29.500008 422.999504 L 45.500065 411.000236 " transform="matrix(3.779528,0,0,3.779528,0,0)"/>
<path style="fill:none;stroke-width:2;stroke-linecap:butt;stroke-linejoin:miter;stroke:rgb(0%,0%,0%);stroke-opacity:1;stroke-miterlimit:4;" d="M 49.499821 403.499919 L 21.500496 419.499976 L 1.49965 427.499487 L 17.499707 423.999959 L 32.999536 410.500008 L 48.999593 404.500374 L 69.000439 407.00048 L 81.499935 416.99987 L 107.500415 409.000358 " transform="matrix(3.779528,0,0,3.779528,0,0)"/>
<path style="fill:none;stroke-width:2;stroke-linecap:butt;stroke-linejoin:miter;stroke:rgb(0%,0%,0%);stroke-opacity:1;stroke-miterlimit:4;" d="M 85.499691 407.00048 L 81.499935 422.999504 L 93.500236 422.999504 L 107.500415 415.50022 L 115.499927 419.499976 L 131.499984 415.50022 L 148.000269 411.999658 " transform="matrix(3.779528,0,0,3.779528,0,0)"/>
<path style="fill:none;stroke-width:2;stroke-linecap:butt;stroke-linejoin:miter;stroke:rgb(0%,0%,0%);stroke-opacity:1;stroke-miterlimit:4;" d="M 159.000114 436.999683 L 142.499829 442.500122 L 125.999544 447.000106 L 110.499715 450.999862 L 94.499658 456.999495 L 78.999829 461.000285 L 62.999772 465.000041 L 46.999715 468.499569 L 30.999658 472.00013 L 15.499829 477.499536 L 7.500317 472.999552 L 53.499577 456.500301 L 85.499691 440.000016 " transform="matrix(3.779528,0,0,3.779528,0,0)"/>
<path style="fill:none;stroke-width:2;stroke-linecap:butt;stroke-linejoin:miter;stroke:rgb(0%,0%,0%);stroke-opacity:1;stroke-miterlimit:4;" d="M 61.500122 429.500399 L 44.999837 435.500033 L 32.500342 445.500456 L 22.499919 435.500033 L 6.499862 432.000505 L 19.999813 436.00026 L 29.500008 435.500033 L 32.999536 419.499976 L 17.000513 409.499552 L 1.000456 411.000236 " transform="matrix(3.779528,0,0,3.779528,0,0)"/>
<path style="fill:none;stroke-width:2;stroke-linecap:butt;stroke-linejoin:miter;stroke:rgb(0%,0%,0%);stroke-opacity:1;stroke-miterlimit:4;" d="M 61.500122 425.999837 L 63.5 409.99978 " transform="matrix(3.779528,0,0,3.779528,0,0)"/>
<path style="fill:none;stroke-width:2;stroke-linecap:butt;stroke-linejoin:miter;stroke:rgb(0%,0%,0%);stroke-opacity:1;stroke-miterlimit:4;" d="M 67.999984 414.499764 L 71.99974 429.999593 " transform="matrix(3.779528,0,0,3.779528,0,0)"/>
<path style="fill:none;stroke-width:2;stroke-linecap:butt;stroke-linejoin:miter;stroke:rgb(0%,0%,0%);stroke-opacity:1;stroke-miterlimit:4;" d="M 1.000456 297.500187 L 17.499707 295.999504 L 33.999992 291.49952 L 50.000049 286.999536 L 66.500334 284.999658 L 78.499601 275.000269 L 94.499658 277.000146 " transform="matrix(3.779528,0,0,3.779528,0,0)"/>
<path style="fill:none;stroke-width:2;stroke-linecap:butt;stroke-linejoin:miter;stroke:rgb(0%,0%,0%);stroke-opacity:1;stroke-miterlimit:4;" d="M 118.000033 257.999756 L 101.999976 251.499894 L 89.999674 267.499951 L 82.000163 241.000277 L 65.499878 241.500505 L 48.999593 241.500505 L 47.499943 221.499658 L 27.50013 229.500203 L 23.500374 223.499536 L 7.500317 223.499536 L 1.49965 230.000431 " transform="matrix(3.779528,0,0,3.779528,0,0)"/>
<path style="fill:none;stroke-width:2;stroke-linecap:butt;stroke-linejoin:miter;stroke:rgb(0%,0%,0%);stroke-opacity:1;stroke-miterlimit:4;" d="M 0.500228 236.999487 L 16.500285 236.500293 L 49.499821 236.500293 L 65.499878 230.499626 L 77.500179 236.500293 L 94.000464 234.500415 L 109.999487 224.499992 L 109.999487 234.500415 L 125.999544 228.999976 L 139.999723 228.999976 L 139.999723 238.500171 L 156.500008 237.999943 L 178.499699 257.999756 L 194.999984 265.500073 " transform="matrix(3.779528,0,0,3.779528,0,0)"/>
<path style="fill:none;stroke-width:2;stroke-linecap:butt;stroke-linejoin:miter;stroke:rgb(0%,0%,0%);stroke-opacity:1;stroke-miterlimit:4;" d="M 173.000293 259.500439 L 174.499943 264.000423 L 182.500488 264.499618 L 168.999504 248.499561 L 144.999935 246.499683 L 129.500106 244.499805 L 114.000277 246.499683 L 98.500448 246.499683 L 82.500391 246.000488 L 66.999528 247.500138 L 19.000391 247.500138 L 3.000334 250.000244 " transform="matrix(3.779528,0,0,3.779528,0,0)"/>
<path style="fill:none;stroke-width:2;stroke-linecap:butt;stroke-linejoin:miter;stroke:rgb(0%,0%,0%);stroke-opacity:1;stroke-miterlimit:4;" d="M 2.500106 244.499805 L 18.500163 243.999577 L 34.50022 243.500382 " transform="matrix(3.779528,0,0,3.779528,0,0)"/>
<path style="fill:none;stroke-width:2;stroke-linecap:butt;stroke-linejoin:miter;stroke:rgb(0%,0%,0%);stroke-opacity:1;stroke-miterlimit:4;" d="M 26.999902 265.500073 L 24.499797 282.000358 " transform="matrix(3.779528,0,0,3.779528,0,0)"/>
<path style="fill:none;stroke-width:2;stroke-linecap:butt;stroke-linejoin:miter;stroke:rgb(0%,0%,0%);stroke-opacity:1;stroke-miterlimit:4;" d="M 176.499821 238.500171 L 180.999805 254.500228 L 193.000106 260.499862 L 198.99974 276.499919 L 213.500146 277.999569 L 233.499959 293.500431 L 269.499829 309.00026 L 305.499699 325.000317 L 299.500065 341.000374 L 303.499821 344.499902 L 325.99974 318.500456 L 341.999797 324.50009 L 364.499715 338.500269 L 380.499772 327.000195 L 396.499829 314.999894 L 412.499886 300.999715 L 428.499943 279.000024 L 444.5 257.499528 L 454.500423 235.499837 L 470.50048 211.500269 " transform="matrix(3.779528,0,0,3.779528,0,0)"/>
<path style="fill:none;stroke-width:2;stroke-linecap:butt;stroke-linejoin:miter;stroke:rgb(0%,0%,0%);stroke-opacity:1;stroke-miterlimit:4;" d="M 508.500228 224.499992 L 490.999487 240.500049 L 482.999976 257.000334 L 479.00022 273.499585 L 477.000342 289.499642 L 470.999674 305.499699 L 463.000163 337.499813 L 464.499813 352.999642 L 456.500301 373.000488 L 452.99974 376.500016 L 463.000163 372.50026 " transform="matrix(3.779528,0,0,3.779528,0,0)"/>
<path style="fill:none;stroke-width:2;stroke-linecap:butt;stroke-linejoin:miter;stroke:rgb(0%,0%,0%);stroke-opacity:1;stroke-miterlimit:4;" d="M 467.500146 295.999504 L 451.50009 316.00035 L 439.499788 349.500114 L 431.500277 385.499984 L 429.999593 377.500472 L 422.000081 361.500415 L 428.499943 345.500358 L 441.000472 329.500301 L 454.999618 314.000472 L 466.999919 298.000415 L 475.000464 282.499552 " transform="matrix(3.779528,0,0,3.779528,0,0)"/>
<path style="fill:none;stroke-width:2;stroke-linecap:butt;stroke-linejoin:miter;stroke:rgb(0%,0%,0%);stroke-opacity:1;stroke-miterlimit:4;" d="M 472.00013 277.999569 L 466.000496 293.999626 L 455.499845 307.999805 L 438.999561 323.499634 L 426.500065 339.499691 L 416.499642 355.999976 L 420.000203 371.499805 L 423.999959 387.499862 " transform="matrix(3.779528,0,0,3.779528,0,0)"/>
<path style="fill:none;stroke-width:2;stroke-linecap:butt;stroke-linejoin:miter;stroke:rgb(0%,0%,0%);stroke-opacity:1;stroke-miterlimit:4;" d="M 446.499878 293.999626 L 424.500187 304.000049 L 436.999683 287.499764 L 447.000106 271.499707 " transform="matrix(3.779528,0,0,3.779528,0,0)"/>
<path style="fill:none;stroke-width:2;stroke-linecap:butt;stroke-linejoin:miter;stroke:rgb(0%,0%,0%);stroke-opacity:1;stroke-miterlimit:4;" d="M 509.000456 244.499805 L 499.000033 264.499618 L 511.000334 248.499561 " transform="matrix(3.779528,0,0,3.779528,0,0)"/>
<path style="fill:none;stroke-width:2;stroke-linecap:butt;stroke-linejoin:miter;stroke:rgb(0%,0%,0%);stroke-opacity:1;stroke-miterlimit:4;" d="M 511.000334 242.499927 L 497.000155 258.499984 L 496.499927 242.499927 " transform="matrix(3.779528,0,0,3.779528,0,0)"/>
<path style="fill:none;stroke-width:2;stroke-linecap:butt;stroke-linejoin:miter;stroke:rgb(0%,0%,0%);stroke-opacity:1;stroke-miterlimit:4;" d="M 497.999577 177.500277 L 508.500228 193.500334 L 494.500049 201.499845 L 486.499504 218.00013 L 476.500114 234.000187 L 460.500057 250.000244 L 446.499878 266.000301 L 434.499577 282.000358 L 422.000081 297.500187 L 407.499674 313.500244 L 387.499862 329.000073 L 395.500407 345.00013 L 407.499674 361.999609 L 415.50022 378.499894 L 407.499674 394.499951 " transform="matrix(3.779528,0,0,3.779528,0,0)"/>
<path style="fill:none;stroke-width:2;stroke-linecap:butt;stroke-linejoin:miter;stroke:rgb(0%,0%,0%);stroke-opacity:1;stroke-miterlimit:4;" d="M 393.499495 361.999609 L 386.000212 354.000098 L 368.000277 366.499593 L 352.00022 391.999845 L 327.999618 388.00009 L 300.000293 372.000033 L 299.500065 354.000098 L 307.999805 338.000041 L 309.500488 321.999984 L 273.499585 306.500155 L 237.499715 290.500098 L 215.500024 275.000269 L 200.000195 259.000212 L 182.00026 242.499927 " transform="matrix(3.779528,0,0,3.779528,0,0)"/>
<path style="fill:none;stroke-width:2;stroke-linecap:butt;stroke-linejoin:miter;stroke:rgb(0%,0%,0%);stroke-opacity:1;stroke-miterlimit:4;" d="M 169.499731 186.500244 L 171.499609 170.500187 L 171.499609 154.50013 " transform="matrix(3.779528,0,0,3.779528,0,0)"/>
<path style="fill:none;stroke-width:2;stroke-linecap:butt;stroke-linejoin:miter;stroke:rgb(0%,0%,0%);stroke-opacity:1;stroke-miterlimit:4;" d="M 166.000203 119.99991 L 168.500309 103.999854 L 168.500309 87.499569 L 146.499585 73.500423 L 130.499528 75.500301 L 114.500505 71.499512 L 98.500448 66.999528 L 50.500277 55.00026 L 34.50022 50.500277 L 17.999935 44.499609 L 1.999878 40.499854 " transform="matrix(3.779528,0,0,3.779528,0,0)"/>
<path style="fill:none;stroke-width:2;stroke-linecap:butt;stroke-linejoin:miter;stroke:rgb(0%,0%,0%);stroke-opacity:1;stroke-miterlimit:4;" d="M 3.499528 37.49952 L 25.500252 55.500488 L 39.500431 77.500179 L 49.499821 73.000195 L 65.499878 76.999951 L 81.499935 80.500513 L 98.00022 84.500269 L 114.500505 82.000163 L 119.000488 94.000464 L 133.499862 107.999609 L 150.000146 114.000277 " transform="matrix(3.779528,0,0,3.779528,0,0)"/>
<path style="fill:none;stroke-width:2;stroke-linecap:butt;stroke-linejoin:miter;stroke:rgb(0%,0%,0%);stroke-opacity:1;stroke-miterlimit:4;" d="M 156.500008 118.000033 L 140.499951 116.000155 L 125.000122 116.500382 L 108.499837 112.499593 L 92.49978 112.499593 L 76.499723 110.499715 L 60.499666 110.499715 L 72.499967 122.500016 L 74.499845 106.499959 " transform="matrix(3.779528,0,0,3.779528,0,0)"/>
<path style="fill:none;stroke-width:2;stroke-linecap:butt;stroke-linejoin:miter;stroke:rgb(0%,0%,0%);stroke-opacity:1;stroke-miterlimit:4;" d="M 57.999561 82.000163 L 73.999618 85.999919 L 90.499902 87.499569 L 108.499837 98.00022 " transform="matrix(3.779528,0,0,3.779528,0,0)"/>
<path style="fill:none;stroke-width:2;stroke-linecap:butt;stroke-linejoin:miter;stroke:rgb(0%,0%,0%);stroke-opacity:1;stroke-miterlimit:4;" d="M 99.49987 105.499504 L 84.000041 101.499748 L 67.999984 100.000098 L 50.500277 107.999609 L 35.000448 106.499959 L 19.000391 104.500081 L 3.499528 100.500326 " transform="matrix(3.779528,0,0,3.779528,0,0)"/>
<path style="fill:none;stroke-width:2;stroke-linecap:butt;stroke-linejoin:miter;stroke:rgb(0%,0%,0%);stroke-opacity:1;stroke-miterlimit:4;" d="M 2.500106 96.000342 L 18.500163 98.00022 L 34.50022 101.499748 L 50.000049 103.000431 L 66.000106 105.000309 L 81.499935 105.000309 L 99.49987 100.500326 L 123.000244 110.999943 " transform="matrix(3.779528,0,0,3.779528,0,0)"/>
<path style="fill:none;stroke-width:2;stroke-linecap:butt;stroke-linejoin:miter;stroke:rgb(0%,0%,0%);stroke-opacity:1;stroke-miterlimit:4;" d="M 113.500049 107.500415 L 97.499992 99.49987 L 81.499935 96.999764 L 65.499878 93.500236 L 49.499821 91.999552 L 33.999992 89.999674 L 17.999935 88.500024 L 1.999878 84.000041 " transform="matrix(3.779528,0,0,3.779528,0,0)"/>
<path style="fill:none;stroke-width:2;stroke-linecap:butt;stroke-linejoin:miter;stroke:rgb(0%,0%,0%);stroke-opacity:1;stroke-miterlimit:4;" d="M 32.500342 56.49991 L 20.500041 57.000138 L 7.00009 53.000382 L 4.499984 53.000382 L 5.000212 42.999959 " transform="matrix(3.779528,0,0,3.779528,0,0)"/>
<path style="fill:none;stroke-width:2;stroke-linecap:butt;stroke-linejoin:miter;stroke:rgb(0%,0%,0%);stroke-opacity:1;stroke-miterlimit:4;" d="M 1.49965 35.99987 L 17.499707 41.999504 L 33.499764 46.000293 L 50.000049 49.499821 L 66.500334 53.499577 L 82.500391 57.500366 L 114.500505 65.499878 L 130.000334 69.499634 L 147.500041 79.500057 L 163.500098 85.499691 " transform="matrix(3.779528,0,0,3.779528,0,0)"/>
<path style="fill:none;stroke-width:2;stroke-linecap:butt;stroke-linejoin:miter;stroke:rgb(0%,0%,0%);stroke-opacity:1;stroke-miterlimit:4;" d="M 155.99978 91.999552 L 153.999902 107.999609 " transform="matrix(3.779528,0,0,3.779528,0,0)"/>
<path style="fill:none;stroke-width:2;stroke-linecap:butt;stroke-linejoin:miter;stroke:rgb(0%,0%,0%);stroke-opacity:1;stroke-miterlimit:4;" d="M 149.499919 106.499959 L 151.499797 90.499902 " transform="matrix(3.779528,0,0,3.779528,0,0)"/>
<path style="fill:none;stroke-width:2;stroke-linecap:butt;stroke-linejoin:miter;stroke:rgb(0%,0%,0%);stroke-opacity:1;stroke-miterlimit:4;" d="M 178.000505 67.999984 L 162.000448 62.00035 L 145.500163 55.999683 L 130.000334 51.999927 L 114.000277 48.500399 L 98.00022 42.499731 L 81.499935 39.000203 L 65.499878 34.50022 L 49.499821 30.500464 L 33.499764 26.00048 L 17.499707 19.000391 L 1.49965 14.999601 " transform="matrix(3.779528,0,0,3.779528,0,0)"/>
<path style="fill:none;stroke-width:2;stroke-linecap:butt;stroke-linejoin:miter;stroke:rgb(0%,0%,0%);stroke-opacity:1;stroke-miterlimit:4;" d="M 3.999756 15.499829 L 21.999691 21.500496 L 45.500065 33.499764 L 61.500122 37.49952 L 77.500179 41.500309 L 94.000464 48.000171 L 109.999487 51.499699 L 125.999544 55.500488 L 141.999601 60.000472 L 157.999658 66.000106 " transform="matrix(3.779528,0,0,3.779528,0,0)"/>
<path style="fill:none;stroke-width:2;stroke-linecap:butt;stroke-linejoin:miter;stroke:rgb(0%,0%,0%);stroke-opacity:1;stroke-miterlimit:4;" d="M 134.999512 54.500033 L 166.999626 70.50009 L 177.000049 73.999618 L 173.000293 89.50048 L 173.000293 105.499504 L 171.000415 121.000366 L 171.499609 137.000423 L 171.999837 149.499919 L 166.000203 165.499976 L 164.000326 181.500033 L 169.999959 199.499967 L 169.999959 223.000342 L 162.000448 239.000399 L 164.000326 248.999788 L 162.000448 264.999845 L 171.999837 275.000269 " transform="matrix(3.779528,0,0,3.779528,0,0)"/>
<path style="fill:none;stroke-width:2;stroke-linecap:butt;stroke-linejoin:miter;stroke:rgb(0%,0%,0%);stroke-opacity:1;stroke-miterlimit:4;" d="M 19.000391 24.499797 L 3.000334 18.500163 " transform="matrix(3.779528,0,0,3.779528,0,0)"/>
<path style="fill:none;stroke-width:2;stroke-linecap:butt;stroke-linejoin:miter;stroke:rgb(0%,0%,0%);stroke-opacity:1;stroke-miterlimit:4;" d="M 327.000195 1.49965 L 327.000195 17.499707 L 327.500423 33.499764 L 327.500423 49.499821 L 327.999618 64.99965 " transform="matrix(3.779528,0,0,3.779528,0,0)"/>
<path style="fill:none;stroke-width:2;stroke-linecap:butt;stroke-linejoin:miter;stroke:rgb(0%,0%,0%);stroke-opacity:1;stroke-miterlimit:4;" d="M 359.499504 1.000456 L 359.499504 49.499821 L 359.999731 66.000106 L 359.999731 82.500391 L 357.999854 98.500448 L 357.999854 130.499528 L 359.000309 162.499642 L 357.000431 178.499699 L 356.500203 194.499756 L 356.500203 257.999756 L 355.999976 273.999813 L 355.999976 305.999927 L 354.500326 321.999984 L 360.499959 338.000041 L 382.49965 347.500236 L 370.000155 363.000065 L 359.999731 379.000122 L 381.500228 395.000179 L 357.499626 418.49952 L 341.000374 434.999805 L 339.000496 450.999862 L 341.499569 466.999919 " transform="matrix(3.779528,0,0,3.779528,0,0)"/>
<path style="fill:none;stroke-width:2;stroke-linecap:butt;stroke-linejoin:miter;stroke:rgb(0%,0%,0%);stroke-opacity:1;stroke-miterlimit:4;" d="M 450.499634 162.000448 L 450.499634 146.000391 L 446.499878 130.499528 L 438.999561 114.500505 " transform="matrix(3.779528,0,0,3.779528,0,0)"/>
<path style="fill:none;stroke-width:2;stroke-linecap:butt;stroke-linejoin:miter;stroke:rgb(0%,0%,0%);stroke-opacity:1;stroke-miterlimit:4;" d="M 413.000114 63.5 L 429.500399 43.500187 L 445.000228 33.499764 L 461.000285 27.50013 L 476.500114 21.999691 L 491.999943 19.999813 L 508 23.500374 L 510.500106 51.000505 " transform="matrix(3.779528,0,0,3.779528,0,0)"/>
<path style="fill:none;stroke-width:2;stroke-linecap:butt;stroke-linejoin:miter;stroke:rgb(0%,0%,0%);stroke-opacity:1;stroke-miterlimit:4;" d="M 509.49965 32.000114 L 493.499593 28.499552 " transform="matrix(3.779528,0,0,3.779528,0,0)"/>
<path style="fill:none;stroke-width:2;stroke-linecap:butt;stroke-linejoin:miter;stroke:rgb(0%,0%,0%);stroke-opacity:1;stroke-miterlimit:4;" d="M 493.999821 26.999902 L 504.000244 43.500187 L 511.999756 59.500244 " transform="matrix(3.779528,0,0,3.779528,0,0)"/>
<path style="fill:none;stroke-width:2;stroke-linecap:butt;stroke-linejoin:miter;stroke:rgb(0%,0%,0%);stroke-opacity:1;stroke-miterlimit:4;" d="M 496.499927 42.499731 L 480.49987 32.500342 L 464.499813 35.000448 " transform="matrix(3.779528,0,0,3.779528,0,0)"/>
<path style="fill:none;stroke-width:2;stroke-linecap:butt;stroke-linejoin:miter;stroke:rgb(0%,0%,0%);stroke-opacity:1;stroke-miterlimit:4;" d="M 470.000252 29.500008 L 466.000496 45.500065 L 472.00013 62.00035 L 481.99952 78.000407 L 484.000431 93.500236 L 480.49987 119.499683 L 500.000488 135.49974 " transform="matrix(3.779528,0,0,3.779528,0,0)"/>
<path style="fill:none;stroke-width:2;stroke-linecap:butt;stroke-linejoin:miter;stroke:rgb(0%,0%,0%);stroke-opacity:1;stroke-miterlimit:4;" d="M 496.499927 125.50035 L 478.499992 109.999487 L 470.000252 94.499658 L 466.000496 78.499601 L 457.499723 62.00035 L 457.999951 46.000293 " transform="matrix(3.779528,0,0,3.779528,0,0)"/>
<path style="fill:none;stroke-width:2;stroke-linecap:butt;stroke-linejoin:miter;stroke:rgb(0%,0%,0%);stroke-opacity:1;stroke-miterlimit:4;" d="M 477.999764 32.500342 L 485.500081 48.000171 L 495.500505 63.5 " transform="matrix(3.779528,0,0,3.779528,0,0)"/>
<path style="fill:none;stroke-width:2;stroke-linecap:butt;stroke-linejoin:miter;stroke:rgb(0%,0%,0%);stroke-opacity:1;stroke-miterlimit:4;" d="M 496.499927 76.499723 L 502.499561 60.499666 L 490.500293 44.499609 L 492.500171 39.000203 " transform="matrix(3.779528,0,0,3.779528,0,0)"/>
<path style="fill:none;stroke-width:2;stroke-linecap:butt;stroke-linejoin:miter;stroke:rgb(0%,0%,0%);stroke-opacity:1;stroke-miterlimit:4;" d="M 363.000065 1.999878 L 363.500293 17.999935 L 363.000065 33.499764 L 363.500293 49.499821 L 363.500293 65.499878 L 363.999487 81.499935 L 363.999487 97.499992 L 362.499837 114.000277 L 362.499837 130.000334 L 363.000065 146.499585 L 363.000065 225.999642 L 361.000187 241.500505 L 361.000187 273.999813 L 363.000065 290.500098 L 363.500293 306.500155 L 361.500415 322.500212 L 370.999577 338.500269 L 364.999943 364.499715 L 354.500326 379.999544 L 354.000098 388.00009 L 370.000155 393.499495 L 369.499927 415.50022 L 355.499748 431.500277 L 359.499504 447.500334 L 367.500049 463.000163 L 329.500301 479.00022 " transform="matrix(3.779528,0,0,3.779528,0,0)"/>
</g>
</svg>
