<?xml version="1.0" encoding="UTF-8"?>
<svg xmlns="http://www.w3.org/2000/svg" xmlns:xlink="http://www.w3.org/1999/xlink" width="1935.11811" height="1935.11811" viewBox="0 0 1935.11811 1935.11811" version="1.1">
<g id="surface1">
<path style="fill:none;stroke-width:2;stroke-linecap:butt;stroke-linejoin:miter;stroke:rgb(0%,0%,0%);stroke-opacity:1;stroke-miterlimit:4;" d="M 71.499512 2.500106 L 73.500423 18.500163 L 81.499935 34.50022 L 83.499813 50.500277 L 79.500057 59.000016 L 89.50048 53.000382 " transform="matrix(3.779528,0,0,3.779528,0,0)"/>
<path style="fill:none;stroke-width:2;stroke-linecap:butt;stroke-linejoin:miter;stroke:rgb(0%,0%,0%);stroke-opacity:1;stroke-miterlimit:4;" d="M 91.00013 51.499699 L 89.50048 35.499642 L 75.000073 13.499951 " transform="matrix(3.779528,0,0,3.779528,0,0)"/>
<path style="fill:none;stroke-width:2;stroke-linecap:butt;stroke-linejoin:miter;stroke:rgb(0%,0%,0%);stroke-opacity:1;stroke-miterlimit:4;" d="M 75.999495 3.999756 L 91.999552 23.999569 L 108.499837 32.000114 L 124.499894 39.999626 " transform="matrix(3.779528,0,0,3.779528,0,0)"/>
<path style="fill:none;stroke-width:2;stroke-linecap:butt;stroke-linejoin:miter;stroke:rgb(0%,0%,0%);stroke-opacity:1;stroke-miterlimit:4;" d="M 134.00009 49.499821 L 118.000033 44.000415 L 102.500203 35.99987 L 86.500146 32.000114 " transform="matrix(3.779528,0,0,3.779528,0,0)"/>
<path style="fill:none;stroke-width:2;stroke-linecap:butt;stroke-linejoin:miter;stroke:rgb(0%,0%,0%);stroke-opacity:1;stroke-miterlimit:4;" d="M 91.999552 32.000114 L 127.500228 48.000171 L 141.999601 72.499967 L 141.999601 88.500024 L 148.500496 100.000098 L 148.500496 117.499805 L 150.999569 134.00009 L 155.000358 134.00009 " transform="matrix(3.779528,0,0,3.779528,0,0)"/>
<path style="fill:none;stroke-width:2;stroke-linecap:butt;stroke-linejoin:miter;stroke:rgb(0%,0%,0%);stroke-opacity:1;stroke-miterlimit:4;" d="M 168.999504 175.999593 L 180.999805 200.000195 L 187.499666 216.50048 " transform="matrix(3.779528,0,0,3.779528,0,0)"/>
<path style="fill:none;stroke-width:2;stroke-linecap:butt;stroke-linejoin:miter;stroke:rgb(0%,0%,0%);stroke-opacity:1;stroke-miterlimit:4;" d="M 192.499878 218.500358 L 176.499821 198.99974 " transform="matrix(3.779528,0,0,3.779528,0,0)"/>
<path style="fill:none;stroke-width:2;stroke-linecap:butt;stroke-linejoin:miter;stroke:rgb(0%,0%,0%);stroke-opacity:1;stroke-miterlimit:4;" d="M 153.499674 194.999984 L 173.499487 211.000041 L 185.499788 227.000098 L 185.499788 263.500195 L 199.499967 257.499528 L 191.99965 273.999813 L 180.000382 307.000382 L 169.999959 314.999894 L 164.000326 330.999951 L 153.999902 347.000008 L 142.499829 363.000065 L 128.000456 379.000122 L 116.000155 395.000179 L 107.500415 410.500008 L 97.499992 430.499821 L 76.999951 444.5 L 78.999829 456.000073 L 68.500212 471.499902 L 58.499788 487.499959 L 50.500277 503.500016 L 55.00026 507.499772 L 61.500122 483.500203 L 71.499512 455.499845 L 87.999797 431.500277 L 103.999854 406.000024 L 120.500138 379.999544 L 136.500195 359.999731 L 153.00048 338.500269 L 178.999927 308.500033 L 194.999984 270.500285 L 221.000464 259.999634 L 236.999487 273.999813 L 255.000456 289.99987 L 270.500285 295.999504 L 286.000114 314.000472 L 293.500431 320.500334 L 301.499943 332.499601 L 316.999772 344.499902 L 332.999829 356.500203 L 348.999886 364.499715 L 364.999943 374.500138 L 381 384.000334 L 397.000057 377.999666 " transform="matrix(3.779528,0,0,3.779528,0,0)"/>
<path style="fill:none;stroke-width:2;stroke-linecap:butt;stroke-linejoin:miter;stroke:rgb(0%,0%,0%);stroke-opacity:1;stroke-miterlimit:4;" d="M 393.499495 392.500073 L 409.499552 386.500439 " transform="matrix(3.779528,0,0,3.779528,0,0)"/>
<path style="fill:none;stroke-width:2;stroke-linecap:butt;stroke-linejoin:miter;stroke:rgb(0%,0%,0%);stroke-opacity:1;stroke-miterlimit:4;" d="M 397.500285 393.999723 L 413.500342 404.000146 L 429.500399 409.99978 L 468.999797 421.499854 L 485.500081 429.500399 " transform="matrix(3.779528,0,0,3.779528,0,0)"/>
<path style="fill:none;stroke-width:2;stroke-linecap:butt;stroke-linejoin:miter;stroke:rgb(0%,0%,0%);stroke-opacity:1;stroke-miterlimit:4;" d="M 470.000252 440.000016 L 486.499504 457.999951 L 502.499561 484.000431 " transform="matrix(3.779528,0,0,3.779528,0,0)"/>
<path style="fill:none;stroke-width:2;stroke-linecap:butt;stroke-linejoin:miter;stroke:rgb(0%,0%,0%);stroke-opacity:1;stroke-miterlimit:4;" d="M 509.000456 457.999951 L 492.500171 450.000439 L 477.000342 440.000016 L 460.500057 440.000016 " transform="matrix(3.779528,0,0,3.779528,0,0)"/>
<path style="fill:none;stroke-width:2;stroke-linecap:butt;stroke-linejoin:miter;stroke:rgb(0%,0%,0%);stroke-opacity:1;stroke-miterlimit:4;" d="M 434.000382 418.000326 L 450.000439 427.999715 L 468.000374 438.000138 L 475.999886 454.000195 L 479.999642 469.500024 L 497.999577 481.500326 " transform="matrix(3.779528,0,0,3.779528,0,0)"/>
<path style="fill:none;stroke-width:2;stroke-linecap:butt;stroke-linejoin:miter;stroke:rgb(0%,0%,0%);stroke-opacity:1;stroke-miterlimit:4;" d="M 504.999666 493.999821 L 493.000399 477.499536 L 488.500415 461.500513 L 479.00022 455.499845 L 463.000163 445.000228 L 447.000106 431.000049 L 431.500277 418.999748 " transform="matrix(3.779528,0,0,3.779528,0,0)"/>
<path style="fill:none;stroke-width:2;stroke-linecap:butt;stroke-linejoin:miter;stroke:rgb(0%,0%,0%);stroke-opacity:1;stroke-miterlimit:4;" d="M 435.500033 414.499764 L 459.499601 430.499821 L 487.499959 432.499699 " transform="matrix(3.779528,0,0,3.779528,0,0)"/>
<path style="fill:none;stroke-width:2;stroke-linecap:butt;stroke-linejoin:miter;stroke:rgb(0%,0%,0%);stroke-opacity:1;stroke-miterlimit:4;" d="M 488.500415 423.499731 L 472.00013 417.500098 L 456.000073 423.499731 L 439.499788 415.50022 L 422.999504 411.000236 " transform="matrix(3.779528,0,0,3.779528,0,0)"/>
<path style="fill:none;stroke-width:2;stroke-linecap:butt;stroke-linejoin:miter;stroke:rgb(0%,0%,0%);stroke-opacity:1;stroke-miterlimit:4;" d="M 395.999601 345.999552 L 411.999658 345.999552 L 427.499487 350.000342 L 443.499544 354.000098 L 454.999618 339.999919 L 475.000464 320.000106 L 490.999487 309.999683 L 507.499772 324.50009 " transform="matrix(3.779528,0,0,3.779528,0,0)"/>
<path style="fill:none;stroke-width:2;stroke-linecap:butt;stroke-linejoin:miter;stroke:rgb(0%,0%,0%);stroke-opacity:1;stroke-miterlimit:4;" d="M 504.500472 327.999618 L 502.499561 316.499544 " transform="matrix(3.779528,0,0,3.779528,0,0)"/>
<path style="fill:none;stroke-width:2;stroke-linecap:butt;stroke-linejoin:miter;stroke:rgb(0%,0%,0%);stroke-opacity:1;stroke-miterlimit:4;" d="M 484.499626 316.999772 L 494.500049 332.499601 L 500.99991 348.499658 L 491.499715 364.499715 " transform="matrix(3.779528,0,0,3.779528,0,0)"/>
<path style="fill:none;stroke-width:2;stroke-linecap:butt;stroke-linejoin:miter;stroke:rgb(0%,0%,0%);stroke-opacity:1;stroke-miterlimit:4;" d="M 477.499536 314.000472 L 465.500269 329.500301 L 451.50009 345.500358 L 447.500334 361.500415 L 451.50009 377.500472 L 452.99974 393.499495 L 457.499723 409.499552 L 463.999585 425.000415 L 479.999642 441.499666 L 508 457.499723 " transform="matrix(3.779528,0,0,3.779528,0,0)"/>
<path style="fill:none;stroke-width:2;stroke-linecap:butt;stroke-linejoin:miter;stroke:rgb(0%,0%,0%);stroke-opacity:1;stroke-miterlimit:4;" d="M 379.000122 323.999862 L 363.000065 317.5 L 347.000008 309.500488 " transform="matrix(3.779528,0,0,3.779528,0,0)"/>
<path style="fill:none;stroke-width:2;stroke-linecap:butt;stroke-linejoin:miter;stroke:rgb(0%,0%,0%);stroke-opacity:1;stroke-miterlimit:4;" d="M 344.499902 307.499577 L 360.499959 307.499577 L 376.500016 305.499699 " transform="matrix(3.779528,0,0,3.779528,0,0)"/>
<path style="fill:none;stroke-width:2;stroke-linecap:butt;stroke-linejoin:miter;stroke:rgb(0%,0%,0%);stroke-opacity:1;stroke-miterlimit:4;" d="M 379.50035 300.499487 L 363.999487 304.000049 L 348.499658 302.000171 L 332.999829 298.000415 L 316.999772 295.999504 L 309.00026 291.999748 L 293.000203 286.500342 L 277.000146 280.499674 " transform="matrix(3.779528,0,0,3.779528,0,0)"/>
<path style="fill:none;stroke-width:2;stroke-linecap:butt;stroke-linejoin:miter;stroke:rgb(0%,0%,0%);stroke-opacity:1;stroke-miterlimit:4;" d="M 276.499919 274.500041 L 298.499609 290.500098 L 286.500342 305.999927 L 292.499976 307.999805 L 294.499854 334.000285 L 292.499976 350.000342 L 300.000293 363.999487 L 314.000472 379.50035 L 327.999618 395.500407 L 341.999797 411.999658 L 359.999731 413.999536 L 361.999609 438.000138 L 393.999723 470.000252 " transform="matrix(3.779528,0,0,3.779528,0,0)"/>
<path style="fill:none;stroke-width:2;stroke-linecap:butt;stroke-linejoin:miter;stroke:rgb(0%,0%,0%);stroke-opacity:1;stroke-miterlimit:4;" d="M 363.000065 394.499951 L 344.499902 386.500439 L 328.499845 368.500505 " transform="matrix(3.779528,0,0,3.779528,0,0)"/>
<path style="fill:none;stroke-width:2;stroke-linecap:butt;stroke-linejoin:miter;stroke:rgb(0%,0%,0%);stroke-opacity:1;stroke-miterlimit:4;" d="M 321.999984 370.500382 L 334.000285 386.500439 L 345.999552 402.500496 L 355.999976 423.999959 " transform="matrix(3.779528,0,0,3.779528,0,0)"/>
<path style="fill:none;stroke-width:2;stroke-linecap:butt;stroke-linejoin:miter;stroke:rgb(0%,0%,0%);stroke-opacity:1;stroke-miterlimit:4;" d="M 338.000041 424.500187 L 322.500212 408.50013 " transform="matrix(3.779528,0,0,3.779528,0,0)"/>
<path style="fill:none;stroke-width:2;stroke-linecap:butt;stroke-linejoin:miter;stroke:rgb(0%,0%,0%);stroke-opacity:1;stroke-miterlimit:4;" d="M 326.499967 405.499797 L 342.500024 421.499854 " transform="matrix(3.779528,0,0,3.779528,0,0)"/>
<path style="fill:none;stroke-width:2;stroke-linecap:butt;stroke-linejoin:miter;stroke:rgb(0%,0%,0%);stroke-opacity:1;stroke-miterlimit:4;" d="M 366.499593 427.499487 L 350.499536 407.499674 L 334.500513 391.000423 L 318.500456 373.000488 " transform="matrix(3.779528,0,0,3.779528,0,0)"/>
<path style="fill:none;stroke-width:2;stroke-linecap:butt;stroke-linejoin:miter;stroke:rgb(0%,0%,0%);stroke-opacity:1;stroke-miterlimit:4;" d="M 298.000415 393.000301 L 309.999683 409.000358 L 316.499544 425.000415 L 325.99974 441.000472 L 334.000285 456.999495 L 339.499691 472.500358 L 349.500114 488.500415 L 361.000187 504.500472 " transform="matrix(3.779528,0,0,3.779528,0,0)"/>
<path style="fill:none;stroke-width:2;stroke-linecap:butt;stroke-linejoin:miter;stroke:rgb(0%,0%,0%);stroke-opacity:1;stroke-miterlimit:4;" d="M 361.000187 507.499772 L 345.00013 485.500081 L 329.000073 453.499967 L 313.000016 423.499731 " transform="matrix(3.779528,0,0,3.779528,0,0)"/>
<path style="fill:none;stroke-width:2;stroke-linecap:butt;stroke-linejoin:miter;stroke:rgb(0%,0%,0%);stroke-opacity:1;stroke-miterlimit:4;" d="M 321.999984 402.500496 L 329.999495 418.999748 L 343.50048 434.999805 " transform="matrix(3.779528,0,0,3.779528,0,0)"/>
<path style="fill:none;stroke-width:2;stroke-linecap:butt;stroke-linejoin:miter;stroke:rgb(0%,0%,0%);stroke-opacity:1;stroke-miterlimit:4;" d="M 286.500342 389.999967 L 302.999593 404.000146 L 318.99965 423.999959 L 334.999707 456.000073 L 350.999764 484.499626 L 366.999821 506.50035 " transform="matrix(3.779528,0,0,3.779528,0,0)"/>
<path style="fill:none;stroke-width:2;stroke-linecap:butt;stroke-linejoin:miter;stroke:rgb(0%,0%,0%);stroke-opacity:1;stroke-miterlimit:4;" d="M 412.499886 345.00013 L 382.999878 329.000073 L 366.999821 323.499634 L 350.999764 318.000228 L 334.999707 309.999683 " transform="matrix(3.779528,0,0,3.779528,0,0)"/>
<path style="fill:none;stroke-width:2;stroke-linecap:butt;stroke-linejoin:miter;stroke:rgb(0%,0%,0%);stroke-opacity:1;stroke-miterlimit:4;" d="M 329.000073 306.500155 L 332.999829 322.500212 L 330.999951 326.499967 L 331.500179 346.49978 L 347.500236 356.500203 L 363.500293 366.499593 L 379.000122 374.500138 L 395.000179 374.500138 " transform="matrix(3.779528,0,0,3.779528,0,0)"/>
<path style="fill:none;stroke-width:2;stroke-linecap:butt;stroke-linejoin:miter;stroke:rgb(0%,0%,0%);stroke-opacity:1;stroke-miterlimit:4;" d="M 364.499715 425.499609 L 344.499902 407.499674 L 332.499601 391.999845 L 318.500456 375.999788 L 304.500277 359.999731 L 284.000236 351.499992 L 270.000057 335.499935 L 255.999878 309.00026 L 239.999821 293.500431 " transform="matrix(3.779528,0,0,3.779528,0,0)"/>
<path style="fill:none;stroke-width:2;stroke-linecap:butt;stroke-linejoin:miter;stroke:rgb(0%,0%,0%);stroke-opacity:1;stroke-miterlimit:4;" d="M 234.999609 289.499642 L 247.500138 283.500008 L 253.499772 297.500187 L 265.500073 314.000472 L 269.499829 321.999984 L 277.500374 337.499813 L 289.99987 361.500415 L 287.999992 381 L 298.000415 388.999512 L 302.000171 404.999569 L 307.999805 420.999626 L 318.000228 436.999683 L 325.99974 452.99974 L 334.500513 469.500024 L 344.499902 485.500081 L 354.500326 501.500138 " transform="matrix(3.779528,0,0,3.779528,0,0)"/>
<path style="fill:none;stroke-width:2;stroke-linecap:butt;stroke-linejoin:miter;stroke:rgb(0%,0%,0%);stroke-opacity:1;stroke-miterlimit:4;" d="M 314.000472 334.500513 L 298.000415 321.999984 L 277.999569 315.500122 L 275.500496 303.499821 " transform="matrix(3.779528,0,0,3.779528,0,0)"/>
<path style="fill:none;stroke-width:2;stroke-linecap:butt;stroke-linejoin:miter;stroke:rgb(0%,0%,0%);stroke-opacity:1;stroke-miterlimit:4;" d="M 246.499683 311.000138 L 258.499984 327.000195 L 264.499618 334.999707 L 272.500163 351.499992 L 282.99978 366.999821 L 291.000326 382.999878 L 307.000382 402.999691 L 329.000073 407.00048 L 345.00013 425.000415 L 357.499626 434.999805 L 377.500472 450.999862 L 393.499495 466.499691 " transform="matrix(3.779528,0,0,3.779528,0,0)"/>
<path style="fill:none;stroke-width:2;stroke-linecap:butt;stroke-linejoin:miter;stroke:rgb(0%,0%,0%);stroke-opacity:1;stroke-miterlimit:4;" d="M 287.999992 353.49987 L 271.999935 337.499813 " transform="matrix(3.779528,0,0,3.779528,0,0)"/>
<path style="fill:none;stroke-width:2;stroke-linecap:butt;stroke-linejoin:miter;stroke:rgb(0%,0%,0%);stroke-opacity:1;stroke-miterlimit:4;" d="M 266.499495 351.499992 L 250.000244 325.499512 " transform="matrix(3.779528,0,0,3.779528,0,0)"/>
<path style="fill:none;stroke-width:2;stroke-linecap:butt;stroke-linejoin:miter;stroke:rgb(0%,0%,0%);stroke-opacity:1;stroke-miterlimit:4;" d="M 241.999699 321.999984 L 257.499528 353.49987 " transform="matrix(3.779528,0,0,3.779528,0,0)"/>
<path style="fill:none;stroke-width:2;stroke-linecap:butt;stroke-linejoin:miter;stroke:rgb(0%,0%,0%);stroke-opacity:1;stroke-miterlimit:4;" d="M 242.499927 313.500244 L 258.499984 325.499512 L 275.000269 350.999764 L 302.999593 363.000065 L 318.500456 381 L 334.500513 400.999813 L 350.000342 423.499731 L 366.000399 433.500155 L 381.500228 447.999528 L 397.000057 466.000496 " transform="matrix(3.779528,0,0,3.779528,0,0)"/>
<path style="fill:none;stroke-width:2;stroke-linecap:butt;stroke-linejoin:miter;stroke:rgb(0%,0%,0%);stroke-opacity:1;stroke-miterlimit:4;" d="M 286.500342 426.500065 L 270.000057 391.000423 L 253.499772 361.000187 L 237.499715 331.500179 L 215.500024 287.499764 " transform="matrix(3.779528,0,0,3.779528,0,0)"/>
<path style="fill:none;stroke-width:2;stroke-linecap:butt;stroke-linejoin:miter;stroke:rgb(0%,0%,0%);stroke-opacity:1;stroke-miterlimit:4;" d="M 209.999585 291.999748 L 214.000374 308.500033 L 220.000008 323.999862 L 221.499658 339.999919 L 223.499536 355.499748 L 229.500203 370.999577 " transform="matrix(3.779528,0,0,3.779528,0,0)"/>
<path style="fill:none;stroke-width:2;stroke-linecap:butt;stroke-linejoin:miter;stroke:rgb(0%,0%,0%);stroke-opacity:1;stroke-miterlimit:4;" d="M 230.499626 389.49974 L 224.499992 373.99991 L 220.000008 357.999854 L 218.00013 342.500024 L 216.50048 326.499967 L 209.999585 311.000138 L 205.999829 295.000081 L 207.500513 279.000024 L 205.499601 262.999967 L 209.000163 261.00009 L 218.999552 239.000399 L 214.499569 216.999674 L 226.49987 200.999618 L 234.500415 184.500366 L 250.999666 168.000081 L 262.999967 152.000024 L 277.500374 135.999967 L 295.500309 119.99991 L 295.999504 119.99991 L 280.499674 134.00009 L 264.000423 152.500252 L 248.499561 172.500065 L 232.499504 192.499878 L 216.50048 216.000252 L 196.000439 227.500326 L 182.00026 219.49978 L 166.000203 203.499723 L 155.99978 195.500212 L 139.999723 173.499487 L 123.999666 159.000114 L 108.499837 143.000057 L 92.49978 125.000122 L 75.999495 113.500049 L 67.999984 103.499626 L 66.000106 87.999797 L 57.500366 84.000041 L 50.000049 67.999984 L 35.99987 51.999927 L 28.000358 35.99987 L 17.999935 19.999813 L 1.999878 32.000114 " transform="matrix(3.779528,0,0,3.779528,0,0)"/>
<path style="fill:none;stroke-width:2;stroke-linecap:butt;stroke-linejoin:miter;stroke:rgb(0%,0%,0%);stroke-opacity:1;stroke-miterlimit:4;" d="M 1.000456 37.999748 L 19.000391 32.000114 L 21.500496 47.499943 L 33.499764 64.000228 L 47.499943 80.000285 L 59.500244 96.000342 L 73.500423 112.000399 L 85.999919 128.000456 L 100.500326 144.000513 L 116.500382 159.999536 L 114.500505 175.999593 L 118.50026 186.000016 L 112.000399 196.000439 L 128.000456 177.500277 L 139.999723 193.500334 L 141.999601 199.499967 L 152.000024 221.000464 L 168.500309 237.499715 L 184.500366 237.499715 L 200.999618 233.499959 L 223.000342 223.999764 L 227.000098 212.000496 L 230.999854 213.500146 L 246.99991 216.999674 L 262.49974 214.999797 L 277.999569 213.500146 L 293.999626 207.500513 L 309.500488 203.499723 L 319.499878 193.500334 L 323.000439 171.499609 L 325.000317 161.50022 L 341.000374 147.500041 L 353.49987 146.000391 L 370.000155 139.999723 L 386.500439 132.000212 L 392.500073 137.999845 L 390.500195 153.999902 L 376.500016 169.999959 L 340.500146 182.00026 L 326.499967 198.000317 L 338.500269 183.49991 L 354.500326 178.000505 L 370.500382 171.999837 L 386.500439 164.000326 L 406.000024 156.500008 L 422.000081 154.50013 " transform="matrix(3.779528,0,0,3.779528,0,0)"/>
<path style="fill:none;stroke-width:2;stroke-linecap:butt;stroke-linejoin:miter;stroke:rgb(0%,0%,0%);stroke-opacity:1;stroke-miterlimit:4;" d="M 434.499577 137.499618 L 440.500244 121.499561 L 450.000439 121.000366 L 450.000439 109.000065 L 434.000382 130.999756 " transform="matrix(3.779528,0,0,3.779528,0,0)"/>
<path style="fill:none;stroke-width:2;stroke-linecap:butt;stroke-linejoin:miter;stroke:rgb(0%,0%,0%);stroke-opacity:1;stroke-miterlimit:4;" d="M 420.000203 107.000187 L 436.00026 95.500114 L 461.999707 89.50048 " transform="matrix(3.779528,0,0,3.779528,0,0)"/>
<path style="fill:none;stroke-width:2;stroke-linecap:butt;stroke-linejoin:miter;stroke:rgb(0%,0%,0%);stroke-opacity:1;stroke-miterlimit:4;" d="M 454.999618 95.500114 L 470.999674 103.000431 " transform="matrix(3.779528,0,0,3.779528,0,0)"/>
<path style="fill:none;stroke-width:2;stroke-linecap:butt;stroke-linejoin:miter;stroke:rgb(0%,0%,0%);stroke-opacity:1;stroke-miterlimit:4;" d="M 497.500382 121.000366 L 457.499723 137.000423 " transform="matrix(3.779528,0,0,3.779528,0,0)"/>
<path style="fill:none;stroke-width:2;stroke-linecap:butt;stroke-linejoin:miter;stroke:rgb(0%,0%,0%);stroke-opacity:1;stroke-miterlimit:4;" d="M 452.99974 146.499585 L 488.500415 130.499528 " transform="matrix(3.779528,0,0,3.779528,0,0)"/>
<path style="fill:none;stroke-width:2;stroke-linecap:butt;stroke-linejoin:miter;stroke:rgb(0%,0%,0%);stroke-opacity:1;stroke-miterlimit:4;" d="M 502.000366 129.500106 L 498.499805 145.500163 L 496.499927 161.50022 L 492.500171 178.000505 L 492.500171 225.999642 L 490.500293 241.999699 L 470.000252 259.500439 L 475.499658 275.500496 L 479.500448 291.000326 L 479.500448 307.000382 L 463.500391 323.999862 L 449.500212 340.500146 L 453.499967 364.499715 L 455.499845 381 L 459.999829 396.499829 L 463.999585 412.499886 L 490.000065 427.999715 " transform="matrix(3.779528,0,0,3.779528,0,0)"/>
<path style="fill:none;stroke-width:2;stroke-linecap:butt;stroke-linejoin:miter;stroke:rgb(0%,0%,0%);stroke-opacity:1;stroke-miterlimit:4;" d="M 484.999854 255.000456 L 468.999797 261.00009 L 453.499967 257.000334 L 438.000138 257.000334 L 422.000081 255.000456 L 390.500195 255.000456 " transform="matrix(3.779528,0,0,3.779528,0,0)"/>
<path style="fill:none;stroke-width:2;stroke-linecap:butt;stroke-linejoin:miter;stroke:rgb(0%,0%,0%);stroke-opacity:1;stroke-miterlimit:4;" d="M 382.000456 248.999788 L 350.000342 248.999788 L 333.500057 246.99991 L 313.500244 230.999854 L 298.000415 235.499837 L 282.000358 235.499837 L 266.000301 234.000187 L 250.000244 234.000187 L 232.000309 239.999821 L 216.50048 242.499927 " transform="matrix(3.779528,0,0,3.779528,0,0)"/>
<path style="fill:none;stroke-width:2;stroke-linecap:butt;stroke-linejoin:miter;stroke:rgb(0%,0%,0%);stroke-opacity:1;stroke-miterlimit:4;" d="M 215.500024 232.499504 L 231.500081 227.99952 L 249.500016 221.999886 L 265.500073 220.500236 L 281.50013 218.500358 L 297.500187 212.499691 L 313.500244 207.999707 " transform="matrix(3.779528,0,0,3.779528,0,0)"/>
<path style="fill:none;stroke-width:2;stroke-linecap:butt;stroke-linejoin:miter;stroke:rgb(0%,0%,0%);stroke-opacity:1;stroke-miterlimit:4;" d="M 312.499788 239.999821 L 280.00048 239.999821 " transform="matrix(3.779528,0,0,3.779528,0,0)"/>
<path style="fill:none;stroke-width:2;stroke-linecap:butt;stroke-linejoin:miter;stroke:rgb(0%,0%,0%);stroke-opacity:1;stroke-miterlimit:4;" d="M 259.999634 265.500073 L 259.999634 255.49965 L 243.999577 253.499772 " transform="matrix(3.779528,0,0,3.779528,0,0)"/>
<path style="fill:none;stroke-width:2;stroke-linecap:butt;stroke-linejoin:miter;stroke:rgb(0%,0%,0%);stroke-opacity:1;stroke-miterlimit:4;" d="M 243.000155 237.499715 L 259.000212 239.499593 L 274.500041 239.499593 L 290.500098 255.49965 L 306.500155 257.999756 L 325.99974 261.999512 L 341.999797 268.000179 L 357.499626 272.500163 L 373.000488 274.500041 " transform="matrix(3.779528,0,0,3.779528,0,0)"/>
<path style="fill:none;stroke-width:2;stroke-linecap:butt;stroke-linejoin:miter;stroke:rgb(0%,0%,0%);stroke-opacity:1;stroke-miterlimit:4;" d="M 379.50035 277.000146 L 363.500293 275.000269 L 347.000008 273.499585 L 330.999951 269.499829 L 314.499666 263.500195 L 298.499609 261.500317 L 282.499552 259.999634 L 264.000423 252.000122 L 248.000366 250.500472 L 232.000309 250.999666 L 227.500326 257.000334 " transform="matrix(3.779528,0,0,3.779528,0,0)"/>
<path style="fill:none;stroke-width:2;stroke-linecap:butt;stroke-linejoin:miter;stroke:rgb(0%,0%,0%);stroke-opacity:1;stroke-miterlimit:4;" d="M 232.999731 279.500252 L 239.000399 295.500309 L 255.000456 311.999561 L 283.500008 320.500334 L 289.99987 336.500391 L 308.500033 339.000496 L 318.500456 354.500326 L 336.500391 358.500081 L 364.999943 374.500138 L 379.50035 390.500195 L 377.500472 396.499829 " transform="matrix(3.779528,0,0,3.779528,0,0)"/>
<path style="fill:none;stroke-width:2;stroke-linecap:butt;stroke-linejoin:miter;stroke:rgb(0%,0%,0%);stroke-opacity:1;stroke-miterlimit:4;" d="M 370.000155 425.999837 L 353.49987 404.000146 L 331.500179 382.000456 L 320.000106 368.000277 L 304.000049 357.999854 L 284.500464 341.999797 L 268.999601 332.499601 L 252.999544 314.499666 L 243.000155 310.49991 L 215.500024 304.500277 " transform="matrix(3.779528,0,0,3.779528,0,0)"/>
<path style="fill:none;stroke-width:2;stroke-linecap:butt;stroke-linejoin:miter;stroke:rgb(0%,0%,0%);stroke-opacity:1;stroke-miterlimit:4;" d="M 202.000073 290.500098 L 200.000195 306.500155 L 196.499634 322.500212 L 190.5 339.000496 L 186.500244 354.99952 L 180.499577 370.999577 L 176.499821 386.999634 " transform="matrix(3.779528,0,0,3.779528,0,0)"/>
<path style="fill:none;stroke-width:2;stroke-linecap:butt;stroke-linejoin:miter;stroke:rgb(0%,0%,0%);stroke-opacity:1;stroke-miterlimit:4;" d="M 164.000326 373.499683 L 157.500464 382.000456 L 166.999626 365.500171 " transform="matrix(3.779528,0,0,3.779528,0,0)"/>
<path style="fill:none;stroke-width:2;stroke-linecap:butt;stroke-linejoin:miter;stroke:rgb(0%,0%,0%);stroke-opacity:1;stroke-miterlimit:4;" d="M 162.000448 364.499715 L 153.999902 379.999544 L 157.999658 373.499683 L 182.00026 347.500236 " transform="matrix(3.779528,0,0,3.779528,0,0)"/>
<path style="fill:none;stroke-width:2;stroke-linecap:butt;stroke-linejoin:miter;stroke:rgb(0%,0%,0%);stroke-opacity:1;stroke-miterlimit:4;" d="M 166.999626 321.499756 L 150.999569 349.500114 L 134.999512 369.499927 L 119.000488 391.499618 L 102.500203 419.499976 " transform="matrix(3.779528,0,0,3.779528,0,0)"/>
<path style="fill:none;stroke-width:2;stroke-linecap:butt;stroke-linejoin:miter;stroke:rgb(0%,0%,0%);stroke-opacity:1;stroke-miterlimit:4;" d="M 43.500187 420.500431 L 26.999902 442.500122 L 42.499731 432.999927 L 56.49991 416.99987 L 82.500391 404.999569 L 78.999829 392.500073 L 89.000252 376.500016 L 94.499658 359.999731 L 100.500326 343.50048 L 116.999577 327.500423 L 135.49974 311.000138 L 149.499919 290.500098 L 139.999723 273.000391 L 123.999666 273.000391 " transform="matrix(3.779528,0,0,3.779528,0,0)"/>
<path style="fill:none;stroke-width:2;stroke-linecap:butt;stroke-linejoin:miter;stroke:rgb(0%,0%,0%);stroke-opacity:1;stroke-miterlimit:4;" d="M 119.499683 268.000179 L 117.499805 284.500464 L 89.50048 300.999715 L 67.499756 317.5 L 60.999894 338.000041 L 60.999894 354.500326 L 62.999772 370.999577 L 46.999715 386.999634 L 28.499552 402.999691 L 14.500407 418.999748 L 17.999935 434.999805 L 22.499919 450.499634 L 10.999845 466.999919 L 12.999723 472.999552 L 3.499528 484.999854 L 14.000179 473.49978 L 32.500342 448.999984 L 48.500399 427.000293 L 59.000016 422.500309 L 76.999951 404.000146 L 93.000008 383.500106 L 109.500293 361.500415 L 125.000122 341.499569 L 156.500008 309.999683 " transform="matrix(3.779528,0,0,3.779528,0,0)"/>
<path style="fill:none;stroke-width:2;stroke-linecap:butt;stroke-linejoin:miter;stroke:rgb(0%,0%,0%);stroke-opacity:1;stroke-miterlimit:4;" d="M 164.000326 313.500244 L 157.999658 329.500301 L 146.000391 345.00013 L 134.00009 361.000187 L 122.500016 377.500472 L 112.499593 393.499495 L 102.500203 409.000358 L 90.499902 434.999805 L 86.500146 450.999862 L 78.499601 467.500146 L 68.500212 483.500203 L 52.500155 485.500081 L 68.500212 449.500212 L 84.500269 422.999504 " transform="matrix(3.779528,0,0,3.779528,0,0)"/>
<path style="fill:none;stroke-width:2;stroke-linecap:butt;stroke-linejoin:miter;stroke:rgb(0%,0%,0%);stroke-opacity:1;stroke-miterlimit:4;" d="M 41.500309 425.499609 L 41.999504 409.99978 L 40.499854 400.000391 L 24.499797 417.500098 " transform="matrix(3.779528,0,0,3.779528,0,0)"/>
<path style="fill:none;stroke-width:2;stroke-linecap:butt;stroke-linejoin:miter;stroke:rgb(0%,0%,0%);stroke-opacity:1;stroke-miterlimit:4;" d="M 3.499528 409.000358 L 7.500317 416.499642 L 7.500317 428.499943 L 11.500073 434.499577 L 5.500439 450.499634 L 5.000212 468.499569 L 21.000269 452.499512 " transform="matrix(3.779528,0,0,3.779528,0,0)"/>
<path style="fill:none;stroke-width:2;stroke-linecap:butt;stroke-linejoin:miter;stroke:rgb(0%,0%,0%);stroke-opacity:1;stroke-miterlimit:4;" d="M 8.49974 454.500423 L 5.999634 438.999561 " transform="matrix(3.779528,0,0,3.779528,0,0)"/>
<path style="fill:none;stroke-width:2;stroke-linecap:butt;stroke-linejoin:miter;stroke:rgb(0%,0%,0%);stroke-opacity:1;stroke-miterlimit:4;" d="M 2.500106 433.500155 L 18.500163 417.500098 L 35.000448 397.500285 L 51.000505 383.500106 L 60.499666 381 L 44.000415 397.500285 L 26.00048 413.500342 L 24.499797 429.999593 L 30.500464 446.499878 L 19.999813 472.999552 " transform="matrix(3.779528,0,0,3.779528,0,0)"/>
<path style="fill:none;stroke-width:2;stroke-linecap:butt;stroke-linejoin:miter;stroke:rgb(0%,0%,0%);stroke-opacity:1;stroke-miterlimit:4;" d="M 23.000146 361.500415 L 28.499552 359.499504 L 16.000057 355.499748 L 22.499919 339.499691 L 50.500277 323.000439 L 59.000016 307.000382 L 59.500244 291.000326 L 66.000106 275.000269 L 44.000415 259.000212 L 35.99987 242.499927 L 46.499487 227.000098 L 42.499731 213.500146 L 26.499674 207.000285 " transform="matrix(3.779528,0,0,3.779528,0,0)"/>
<path style="fill:none;stroke-width:2;stroke-linecap:butt;stroke-linejoin:miter;stroke:rgb(0%,0%,0%);stroke-opacity:1;stroke-miterlimit:4;" d="M 19.999813 200.999618 L 35.99987 206.500057 L 52.500155 214.000374 L 68.500212 218.00013 L 85.000496 223.499536 L 100.99952 231.500081 L 117.499805 235.499837 L 133.499862 237.499715 L 149.499919 241.500505 L 165.499976 241.500505 L 182.00026 241.999699 " transform="matrix(3.779528,0,0,3.779528,0,0)"/>
<path style="fill:none;stroke-width:2;stroke-linecap:butt;stroke-linejoin:miter;stroke:rgb(0%,0%,0%);stroke-opacity:1;stroke-miterlimit:4;" d="M 203.999951 237.999943 L 219.49978 257.999756 L 215.500024 280.00048 L 218.999552 295.999504 L 224.499992 311.500366 L 236.000065 327.500423 L 243.999577 343.50048 L 252.000122 359.499504 L 263.500195 375.499561 L 268.999601 391.499618 L 275.000269 407.499674 L 282.99978 423.499731 L 291.49952 439.499788 " transform="matrix(3.779528,0,0,3.779528,0,0)"/>
<path style="fill:none;stroke-width:2;stroke-linecap:butt;stroke-linejoin:miter;stroke:rgb(0%,0%,0%);stroke-opacity:1;stroke-miterlimit:4;" d="M 327.500423 302.500399 L 311.500366 298.499609 L 295.000081 292.499976 L 278.499797 286.999536 L 260.499862 279.000024 L 257.499528 270.500285 L 253.499772 279.000024 L 237.499715 266.499495 L 221.999886 256.500106 L 205.999829 254.500228 L 194.499756 250.500472 L 171.999837 230.499626 L 169.499731 220.500236 L 165.499976 214.499569 L 143.500285 214.499569 L 135.49974 198.499512 L 130.000334 198.000317 L 134.500317 182.00026 L 121.000366 180.000382 L 127 163.500098 L 113.500049 146.999813 L 97.499992 131.499984 L 80.500513 99.49987 L 78.499601 97.499992 L 68.500212 82.000163 L 55.999683 66.000106 L 41.500309 49.499821 L 30.999658 33.499764 L 21.000269 17.499707 L 1.000456 17.000513 " transform="matrix(3.779528,0,0,3.779528,0,0)"/>
<path style="fill:none;stroke-width:2;stroke-linecap:butt;stroke-linejoin:miter;stroke:rgb(0%,0%,0%);stroke-opacity:1;stroke-miterlimit:4;" d="M 1.49965 14.000179 L 17.499707 14.000179 L 49.499821 57.999561 L 65.499878 77.500179 L 82.000163 98.999642 L 98.00022 117.499805 " transform="matrix(3.779528,0,0,3.779528,0,0)"/>
<path style="fill:none;stroke-width:2;stroke-linecap:butt;stroke-linejoin:miter;stroke:rgb(0%,0%,0%);stroke-opacity:1;stroke-miterlimit:4;" d="M 98.500448 125.000122 L 82.500391 107.000187 L 66.500334 87.000374 L 50.500277 65.499878 L 34.50022 47.499943 L 18.500163 17.499707 " transform="matrix(3.779528,0,0,3.779528,0,0)"/>
<path style="fill:none;stroke-width:2;stroke-linecap:butt;stroke-linejoin:miter;stroke:rgb(0%,0%,0%);stroke-opacity:1;stroke-miterlimit:4;" d="M 19.499585 34.50022 L 29.500008 50.500277 L 41.500309 66.500334 " transform="matrix(3.779528,0,0,3.779528,0,0)"/>
<path style="fill:none;stroke-width:2;stroke-linecap:butt;stroke-linejoin:miter;stroke:rgb(0%,0%,0%);stroke-opacity:1;stroke-miterlimit:4;" d="M 66.000106 96.999764 L 49.499821 82.999585 L 33.499764 62.999772 L 17.499707 38.499976 L 1.49965 44.999837 " transform="matrix(3.779528,0,0,3.779528,0,0)"/>
<path style="fill:none;stroke-width:2;stroke-linecap:butt;stroke-linejoin:miter;stroke:rgb(0%,0%,0%);stroke-opacity:1;stroke-miterlimit:4;" d="M 1.999878 25.500252 L 17.499707 27.50013 L 33.499764 55.00026 L 49.499821 73.000195 " transform="matrix(3.779528,0,0,3.779528,0,0)"/>
<path style="fill:none;stroke-width:2;stroke-linecap:butt;stroke-linejoin:miter;stroke:rgb(0%,0%,0%);stroke-opacity:1;stroke-miterlimit:4;" d="M 4.499984 84.500269 L 6.499862 100.500326 L 14.500407 116.500382 L 34.50022 132.500439 L 46.499487 138.500073 L 54.500033 150.500374 L 76.999951 166.500431 L 96.499536 182.00026 L 92.49978 203.999951 L 114.500505 203.499723 L 140.499951 218.999552 L 164.000326 229.500203 L 157.999658 257.499528 L 152.000024 257.999756 L 136.500195 275.999691 L 128.49965 286.500342 L 120.500138 291.000326 L 109.999487 302.999593 L 107.500415 318.99965 L 99.49987 338.500269 L 115.499927 322.500212 L 131.499984 308.500033 L 131.499984 290.500098 L 153.499674 288.50022 L 153.499674 282.000358 L 173.999715 286.000114 L 174.499943 271.999935 L 180.499577 275.500496 L 200.500423 255.999878 L 214.999797 270.000057 L 234.999609 280.00048 L 250.999666 291.999748 L 262.999967 304.000049 L 279.000024 298.000415 " transform="matrix(3.779528,0,0,3.779528,0,0)"/>
<path style="fill:none;stroke-width:2;stroke-linecap:butt;stroke-linejoin:miter;stroke:rgb(0%,0%,0%);stroke-opacity:1;stroke-miterlimit:4;" d="M 233.499959 282.99978 L 229.500203 282.99978 L 231.500081 300.000293 L 231.500081 316.499544 L 235.499837 316.499544 L 243.500382 332.999829 L 252.000122 348.499658 L 264.000423 364.499715 L 270.000057 379.999544 L 275.500496 395.999601 L 284.000236 411.999658 " transform="matrix(3.779528,0,0,3.779528,0,0)"/>
<path style="fill:none;stroke-width:2;stroke-linecap:butt;stroke-linejoin:miter;stroke:rgb(0%,0%,0%);stroke-opacity:1;stroke-miterlimit:4;" d="M 352.999642 305.000505 L 366.999821 320.999528 L 400.999813 347.000008 L 410.500008 362.499837 L 398.000513 377.999666 L 406.000024 393.999723 L 434.000382 407.499674 L 441.999894 423.999959 L 461.999707 440.000016 L 486.000309 440.000016 " transform="matrix(3.779528,0,0,3.779528,0,0)"/>
<path style="fill:none;stroke-width:2;stroke-linecap:butt;stroke-linejoin:miter;stroke:rgb(0%,0%,0%);stroke-opacity:1;stroke-miterlimit:4;" d="M 280.499674 404.000146 L 275.999691 366.499593 L 264.000423 350.499536 L 255.999878 334.500513 L 243.999577 318.000228 L 227.99952 309.999683 L 223.499536 293.999626 L 217.499902 277.999569 " transform="matrix(3.779528,0,0,3.779528,0,0)"/>
<path style="fill:none;stroke-width:2;stroke-linecap:butt;stroke-linejoin:miter;stroke:rgb(0%,0%,0%);stroke-opacity:1;stroke-miterlimit:4;" d="M 202.000073 275.000269 L 198.000317 291.000326 L 193.999528 307.499577 L 189.499544 323.499634 L 185.499788 339.999919 L 178.999927 355.999976 L 175.000171 372.000033 L 171.499609 388.500317 " transform="matrix(3.779528,0,0,3.779528,0,0)"/>
<path style="fill:none;stroke-width:2;stroke-linecap:butt;stroke-linejoin:miter;stroke:rgb(0%,0%,0%);stroke-opacity:1;stroke-miterlimit:4;" d="M 93.000008 348.000464 L 78.999829 363.500293 L 71.000317 379.50035 L 69.000439 395.500407 L 71.000317 417.500098 L 56.49991 434.000382 L 48.500399 450.499634 L 39.999626 466.499691 L 45.500065 438.500366 " transform="matrix(3.779528,0,0,3.779528,0,0)"/>
<path style="fill:none;stroke-width:2;stroke-linecap:butt;stroke-linejoin:miter;stroke:rgb(0%,0%,0%);stroke-opacity:1;stroke-miterlimit:4;" d="M 2.500106 357.499626 L 18.500163 349.500114 L 34.50022 341.499569 L 50.500277 332.000407 L 71.99974 322.500212 L 87.499569 310.49991 L 105.499504 302.500399 L 123.999666 290.500098 " transform="matrix(3.779528,0,0,3.779528,0,0)"/>
<path style="fill:none;stroke-width:2;stroke-linecap:butt;stroke-linejoin:miter;stroke:rgb(0%,0%,0%);stroke-opacity:1;stroke-miterlimit:4;" d="M 135.999967 307.000382 L 151.499797 301.499943 " transform="matrix(3.779528,0,0,3.779528,0,0)"/>
<path style="fill:none;stroke-width:2;stroke-linecap:butt;stroke-linejoin:miter;stroke:rgb(0%,0%,0%);stroke-opacity:1;stroke-miterlimit:4;" d="M 171.999837 291.49952 L 180.000382 275.500496 " transform="matrix(3.779528,0,0,3.779528,0,0)"/>
<path style="fill:none;stroke-width:2;stroke-linecap:butt;stroke-linejoin:miter;stroke:rgb(0%,0%,0%);stroke-opacity:1;stroke-miterlimit:4;" d="M 177.500277 273.999813 L 167.499854 289.99987 L 155.000358 300.499487 L 159.000114 306.500155 L 143.500285 322.500212 L 127.500228 338.500269 L 113.500049 354.500326 L 101.499748 370.000155 L 89.50048 386.000212 L 77.500179 402.000269 L 69.999862 409.499552 L 55.500488 425.499609 L 43.500187 441.000472 L 39.500431 456.999495 L 28.99978 463.000163 L 29.500008 479.00022 L 37.999748 466.999919 L 53.999805 434.999805 L 70.50009 416.99987 L 86.500146 398.499707 L 87.999797 376.500016 L 116.500382 359.000309 L 132.500439 341.499569 L 148.500496 325.99974 L 164.49952 314.499666 " transform="matrix(3.779528,0,0,3.779528,0,0)"/>
<path style="fill:none;stroke-width:2;stroke-linecap:butt;stroke-linejoin:miter;stroke:rgb(0%,0%,0%);stroke-opacity:1;stroke-miterlimit:4;" d="M 146.499585 259.999634 L 130.499528 264.000423 L 114.500505 259.999634 " transform="matrix(3.779528,0,0,3.779528,0,0)"/>
<path style="fill:none;stroke-width:2;stroke-linecap:butt;stroke-linejoin:miter;stroke:rgb(0%,0%,0%);stroke-opacity:1;stroke-miterlimit:4;" d="M 112.499593 250.999666 L 128.49965 250.999666 L 144.000513 251.499894 " transform="matrix(3.779528,0,0,3.779528,0,0)"/>
<path style="fill:none;stroke-width:2;stroke-linecap:butt;stroke-linejoin:miter;stroke:rgb(0%,0%,0%);stroke-opacity:1;stroke-miterlimit:4;" d="M 155.99978 250.500472 L 140.499951 246.499683 L 124.499894 246.499683 L 108.499837 244.499805 " transform="matrix(3.779528,0,0,3.779528,0,0)"/>
<path style="fill:none;stroke-width:2;stroke-linecap:butt;stroke-linejoin:miter;stroke:rgb(0%,0%,0%);stroke-opacity:1;stroke-miterlimit:4;" d="M 85.000496 205.999829 L 69.000439 200.000195 " transform="matrix(3.779528,0,0,3.779528,0,0)"/>
<path style="fill:none;stroke-width:2;stroke-linecap:butt;stroke-linejoin:miter;stroke:rgb(0%,0%,0%);stroke-opacity:1;stroke-miterlimit:4;" d="M 66.000106 203.499723 L 82.000163 209.500391 L 98.00022 216.000252 L 114.500505 218.00013 L 130.499528 223.999764 " transform="matrix(3.779528,0,0,3.779528,0,0)"/>
<path style="fill:none;stroke-width:2;stroke-linecap:butt;stroke-linejoin:miter;stroke:rgb(0%,0%,0%);stroke-opacity:1;stroke-miterlimit:4;" d="M 150.500374 254 L 134.500317 254.500228 L 118.50026 256.500106 L 101.999976 252.50035 L 85.999919 258.499984 L 69.499634 260.499862 L 53.499577 261.999512 L 37.49952 246.000488 " transform="matrix(3.779528,0,0,3.779528,0,0)"/>
<path style="fill:none;stroke-width:2;stroke-linecap:butt;stroke-linejoin:miter;stroke:rgb(0%,0%,0%);stroke-opacity:1;stroke-miterlimit:4;" d="M 34.50022 239.499593 L 70.50009 225.500448 L 98.999642 241.500505 L 109.500293 261.500317 " transform="matrix(3.779528,0,0,3.779528,0,0)"/>
<path style="fill:none;stroke-width:2;stroke-linecap:butt;stroke-linejoin:miter;stroke:rgb(0%,0%,0%);stroke-opacity:1;stroke-miterlimit:4;" d="M 125.999544 239.000399 L 109.999487 239.000399 L 94.000464 232.999731 L 77.500179 226.49987 L 61.500122 220.500236 L 46.000293 218.999552 L 30.000236 239.000399 " transform="matrix(3.779528,0,0,3.779528,0,0)"/>
<path style="fill:none;stroke-width:2;stroke-linecap:butt;stroke-linejoin:miter;stroke:rgb(0%,0%,0%);stroke-opacity:1;stroke-miterlimit:4;" d="M 33.999992 266.000301 L 17.999935 268.000179 " transform="matrix(3.779528,0,0,3.779528,0,0)"/>
<path style="fill:none;stroke-width:2;stroke-linecap:butt;stroke-linejoin:miter;stroke:rgb(0%,0%,0%);stroke-opacity:1;stroke-miterlimit:4;" d="M 19.999813 271.999935 L 35.99987 270.500285 L 51.999927 266.499495 L 84.000041 262.49974 " transform="matrix(3.779528,0,0,3.779528,0,0)"/>
<path style="fill:none;stroke-width:2;stroke-linecap:butt;stroke-linejoin:miter;stroke:rgb(0%,0%,0%);stroke-opacity:1;stroke-miterlimit:4;" d="M 93.000008 266.000301 L 109.500293 248.000366 L 89.50048 227.99952 L 48.000171 212.000496 L 24.499797 196.000439 L 2.500106 185.499788 " transform="matrix(3.779528,0,0,3.779528,0,0)"/>
<path style="fill:none;stroke-width:2;stroke-linecap:butt;stroke-linejoin:miter;stroke:rgb(0%,0%,0%);stroke-opacity:1;stroke-miterlimit:4;" d="M 21.000269 192.499878 L 36.500098 196.499634 L 52.500155 200.000195 L 69.000439 193.500334 L 85.499691 191.500456 " transform="matrix(3.779528,0,0,3.779528,0,0)"/>
<path style="fill:none;stroke-width:2;stroke-linecap:butt;stroke-linejoin:miter;stroke:rgb(0%,0%,0%);stroke-opacity:1;stroke-miterlimit:4;" d="M 71.99974 187.499666 L 67.999984 199.499967 L 103.999854 218.999552 L 119.99991 225.00022 L 135.999967 230.999854 L 152.000024 230.999854 " transform="matrix(3.779528,0,0,3.779528,0,0)"/>
<path style="fill:none;stroke-width:2;stroke-linecap:butt;stroke-linejoin:miter;stroke:rgb(0%,0%,0%);stroke-opacity:1;stroke-miterlimit:4;" d="M 171.999837 225.00022 L 155.99978 236.999487 L 139.499495 227.000098 L 107.999609 215.500024 L 96.000342 200.000195 L 79.500057 175.999593 L 57.500366 159.999536 L 50.000049 142.499829 L 33.999992 142.499829 L 17.999935 153.999902 L 1.999878 145.500163 " transform="matrix(3.779528,0,0,3.779528,0,0)"/>
<path style="fill:none;stroke-width:2;stroke-linecap:butt;stroke-linejoin:miter;stroke:rgb(0%,0%,0%);stroke-opacity:1;stroke-miterlimit:4;" d="M 1.49965 151.499797 L 19.499585 159.500342 L 35.499642 145.500163 L 51.499699 153.499674 L 67.999984 165.499976 L 84.000041 177.500277 " transform="matrix(3.779528,0,0,3.779528,0,0)"/>
<path style="fill:none;stroke-width:2;stroke-linecap:butt;stroke-linejoin:miter;stroke:rgb(0%,0%,0%);stroke-opacity:1;stroke-miterlimit:4;" d="M 96.499536 153.00048 L 80.000285 140.499951 " transform="matrix(3.779528,0,0,3.779528,0,0)"/>
<path style="fill:none;stroke-width:2;stroke-linecap:butt;stroke-linejoin:miter;stroke:rgb(0%,0%,0%);stroke-opacity:1;stroke-miterlimit:4;" d="M 80.000285 138.500073 L 96.000342 155.000358 L 97.499992 171.000415 L 97.499992 186.500244 L 103.499626 190.5 L 105.499504 178.000505 L 121.999788 168.000081 " transform="matrix(3.779528,0,0,3.779528,0,0)"/>
<path style="fill:none;stroke-width:2;stroke-linecap:butt;stroke-linejoin:miter;stroke:rgb(0%,0%,0%);stroke-opacity:1;stroke-miterlimit:4;" d="M 116.000155 157.500464 L 100.000098 141.000179 L 84.500269 123.000244 " transform="matrix(3.779528,0,0,3.779528,0,0)"/>
<path style="fill:none;stroke-width:2;stroke-linecap:butt;stroke-linejoin:miter;stroke:rgb(0%,0%,0%);stroke-opacity:1;stroke-miterlimit:4;" d="M 89.50048 117.499805 L 105.499504 133.499862 " transform="matrix(3.779528,0,0,3.779528,0,0)"/>
<path style="fill:none;stroke-width:2;stroke-linecap:butt;stroke-linejoin:miter;stroke:rgb(0%,0%,0%);stroke-opacity:1;stroke-miterlimit:4;" d="M 81.499935 137.000423 L 96.999764 145.500163 L 98.999642 150.000146 L 104.500081 166.000203 " transform="matrix(3.779528,0,0,3.779528,0,0)"/>
<path style="fill:none;stroke-width:2;stroke-linecap:butt;stroke-linejoin:miter;stroke:rgb(0%,0%,0%);stroke-opacity:1;stroke-miterlimit:4;" d="M 153.499674 187.499666 L 155.499552 203.499723 L 139.499495 205.499601 L 163.500098 207.999707 L 178.999927 224.499992 " transform="matrix(3.779528,0,0,3.779528,0,0)"/>
<path style="fill:none;stroke-width:2;stroke-linecap:butt;stroke-linejoin:miter;stroke:rgb(0%,0%,0%);stroke-opacity:1;stroke-miterlimit:4;" d="M 178.499699 259.999634 L 162.000448 270.000057 L 145.500163 280.00048 L 129.500106 284.500464 L 117.499805 286.500342 L 101.499748 296.499731 L 85.499691 306.500155 L 69.499634 316.499544 L 51.499699 325.000317 L 35.99987 334.999707 L 20.500041 343.000252 L 4.499984 340.500146 L 16.500285 329.999495 L 14.000179 314.000472 L 17.999935 299.500065 L 14.000179 283.500008 L 4.499984 266.999723 " transform="matrix(3.779528,0,0,3.779528,0,0)"/>
<path style="fill:none;stroke-width:2;stroke-linecap:butt;stroke-linejoin:miter;stroke:rgb(0%,0%,0%);stroke-opacity:1;stroke-miterlimit:4;" d="M 1.999878 265.500073 L 17.499707 277.500374 " transform="matrix(3.779528,0,0,3.779528,0,0)"/>
<path style="fill:none;stroke-width:2;stroke-linecap:butt;stroke-linejoin:miter;stroke:rgb(0%,0%,0%);stroke-opacity:1;stroke-miterlimit:4;" d="M 11.500073 273.999813 L 26.999902 289.99987 L 14.999601 305.499699 L 23.000146 313.500244 L 21.000269 329.500301 L 4.499984 345.500358 L 12.499495 341.499569 " transform="matrix(3.779528,0,0,3.779528,0,0)"/>
<path style="fill:none;stroke-width:2;stroke-linecap:butt;stroke-linejoin:miter;stroke:rgb(0%,0%,0%);stroke-opacity:1;stroke-miterlimit:4;" d="M 17.999935 318.500456 L 1.999878 312.499788 " transform="matrix(3.779528,0,0,3.779528,0,0)"/>
<path style="fill:none;stroke-width:2;stroke-linecap:butt;stroke-linejoin:miter;stroke:rgb(0%,0%,0%);stroke-opacity:1;stroke-miterlimit:4;" d="M 1.49965 305.000505 L 17.499707 298.999837 " transform="matrix(3.779528,0,0,3.779528,0,0)"/>
<path style="fill:none;stroke-width:2;stroke-linecap:butt;stroke-linejoin:miter;stroke:rgb(0%,0%,0%);stroke-opacity:1;stroke-miterlimit:4;" d="M 17.499707 285.499886 L 1.49965 273.499585 " transform="matrix(3.779528,0,0,3.779528,0,0)"/>
<path style="fill:none;stroke-width:2;stroke-linecap:butt;stroke-linejoin:miter;stroke:rgb(0%,0%,0%);stroke-opacity:1;stroke-miterlimit:4;" d="M 55.00026 284.500464 L 35.000448 288.50022 L 50.500277 280.999902 L 60.499666 279.000024 L 75.999495 273.499585 L 91.500358 267.499951 " transform="matrix(3.779528,0,0,3.779528,0,0)"/>
<path style="fill:none;stroke-width:2;stroke-linecap:butt;stroke-linejoin:miter;stroke:rgb(0%,0%,0%);stroke-opacity:1;stroke-miterlimit:4;" d="M 65.499878 287.999992 L 65.499878 304.000049 L 63.5 320.000106 L 32.000114 341.499569 L 4.499984 357.499626 L 16.500285 345.500358 " transform="matrix(3.779528,0,0,3.779528,0,0)"/>
<path style="fill:none;stroke-width:2;stroke-linecap:butt;stroke-linejoin:miter;stroke:rgb(0%,0%,0%);stroke-opacity:1;stroke-miterlimit:4;" d="M 74.499845 334.500513 L 84.500269 330.999951 L 91.999552 330.999951 L 94.000464 314.999894 " transform="matrix(3.779528,0,0,3.779528,0,0)"/>
<path style="fill:none;stroke-width:2;stroke-linecap:butt;stroke-linejoin:miter;stroke:rgb(0%,0%,0%);stroke-opacity:1;stroke-miterlimit:4;" d="M 105.499504 323.499634 L 89.999674 341.499569 L 73.999618 359.999731 L 82.500391 352.00022 L 94.999886 336.500391 L 105.000309 320.500334 L 105.499504 304.500277 " transform="matrix(3.779528,0,0,3.779528,0,0)"/>
<path style="fill:none;stroke-width:2;stroke-linecap:butt;stroke-linejoin:miter;stroke:rgb(0%,0%,0%);stroke-opacity:1;stroke-miterlimit:4;" d="M 100.500326 302.000171 L 76.499723 318.000228 L 66.500334 335.499935 L 67.999984 350.999764 L 69.999862 368.999699 L 85.499691 354.99952 " transform="matrix(3.779528,0,0,3.779528,0,0)"/>
<path style="fill:none;stroke-width:2;stroke-linecap:butt;stroke-linejoin:miter;stroke:rgb(0%,0%,0%);stroke-opacity:1;stroke-miterlimit:4;" d="M 70.50009 481.000098 L 50.500277 490.999487 L 58.499788 475.000464 L 66.000106 459.499601 L 71.499512 443.499544 L 78.999829 427.999715 L 91.00013 411.999658 L 98.999642 395.500407 L 89.000252 413.500342 L 77.500179 420.999626 L 61.500122 451.50009 L 45.500065 487.499959 L 51.499699 475.499658 L 59.500244 459.999829 L 65.499878 443.999772 L 73.500423 427.499487 L 85.000496 411.500464 L 93.500236 395.500407 L 100.000098 381.500228 L 112.000399 366.000399 L 126.499772 350.499536 L 140.499951 334.999707 L 157.000236 318.99965 L 173.000293 302.500399 L 180.999805 286.500342 L 198.99974 272.500163 L 182.999683 312.499788 L 175.500399 322.500212 L 181.500033 318.500456 L 187.499666 302.500399 L 194.999984 286.500342 L 200.999618 270.500285 L 191.000228 264.499618 L 175.000171 255.999878 L 159.000114 266.000301 L 141.000179 267.499951 L 125.000122 269.499829 L 108.499837 271.499707 L 98.500448 275.999691 L 92.49978 277.999569 L 87.999797 276.499919 L 71.99974 280.499674 L 53.999805 286.999536 L 37.999748 295.000081 L 37.999748 289.499642 L 44.499609 273.000391 L 36.500098 257.000334 L 30.500464 241.000277 L 42.499731 224.499992 L 24.499797 208.499935 L 18.500163 193.000106 L 16.500285 180.499577 L 8.999967 160.999992 L 17.499707 157.000236 L 37.49952 141.000179 L 9.500195 124.499894 L 3.499528 92.49978 " transform="matrix(3.779528,0,0,3.779528,0,0)"/>
<path style="fill:none;stroke-width:2;stroke-linecap:butt;stroke-linejoin:miter;stroke:rgb(0%,0%,0%);stroke-opacity:1;stroke-miterlimit:4;" d="M 7.500317 94.499658 L 17.499707 110.499715 L 19.499585 128.49965 L 35.499642 132.500439 L 51.499699 135.999967 L 53.999805 150.000146 L 65.499878 157.999658 L 81.499935 169.999959 L 97.499992 184.000138 L 103.499626 196.000439 L 119.499683 198.000317 L 129.500106 212.000496 L 128.999878 206.500057 L 150.999569 206.500057 L 157.500464 220.500236 " transform="matrix(3.779528,0,0,3.779528,0,0)"/>
<path style="fill:none;stroke-width:2;stroke-linecap:butt;stroke-linejoin:miter;stroke:rgb(0%,0%,0%);stroke-opacity:1;stroke-miterlimit:4;" d="M 184.000138 246.99991 L 167.499854 248.499561 L 135.49974 232.499504 L 93.500236 216.000252 L 53.499577 200.000195 " transform="matrix(3.779528,0,0,3.779528,0,0)"/>
<path style="fill:none;stroke-width:2;stroke-linecap:butt;stroke-linejoin:miter;stroke:rgb(0%,0%,0%);stroke-opacity:1;stroke-miterlimit:4;" d="M 85.999919 186.000016 L 70.50009 189.999772 L 54.500033 194.499756 L 22.499919 186.500244 L 6.499862 178.499699 L 19.000391 162.499642 L 37.000326 146.499585 " transform="matrix(3.779528,0,0,3.779528,0,0)"/>
<path style="fill:none;stroke-width:2;stroke-linecap:butt;stroke-linejoin:miter;stroke:rgb(0%,0%,0%);stroke-opacity:1;stroke-miterlimit:4;" d="M 17.999935 121.999788 L 1.999878 119.99991 " transform="matrix(3.779528,0,0,3.779528,0,0)"/>
<path style="fill:none;stroke-width:2;stroke-linecap:butt;stroke-linejoin:miter;stroke:rgb(0%,0%,0%);stroke-opacity:1;stroke-miterlimit:4;" d="M 33.999992 135.999967 L 17.999935 109.999487 L 1.999878 84.000041 " transform="matrix(3.779528,0,0,3.779528,0,0)"/>
<path style="fill:none;stroke-width:2;stroke-linecap:butt;stroke-linejoin:miter;stroke:rgb(0%,0%,0%);stroke-opacity:1;stroke-miterlimit:4;" d="M 91.00013 114.000277 L 109.000065 129.500106 " transform="matrix(3.779528,0,0,3.779528,0,0)"/>
<path style="fill:none;stroke-width:2;stroke-linecap:butt;stroke-linejoin:miter;stroke:rgb(0%,0%,0%);stroke-opacity:1;stroke-miterlimit:4;" d="M 171.000415 175.500399 L 178.999927 191.500456 L 178.499699 207.999707 " transform="matrix(3.779528,0,0,3.779528,0,0)"/>
<path style="fill:none;stroke-width:2;stroke-linecap:butt;stroke-linejoin:miter;stroke:rgb(0%,0%,0%);stroke-opacity:1;stroke-miterlimit:4;" d="M 205.000407 211.500269 L 209.000163 196.000439 L 209.000163 180.000382 " transform="matrix(3.779528,0,0,3.779528,0,0)"/>
<path style="fill:none;stroke-width:2;stroke-linecap:butt;stroke-linejoin:miter;stroke:rgb(0%,0%,0%);stroke-opacity:1;stroke-miterlimit:4;" d="M 205.999829 178.000505 L 205.999829 193.999528 L 201.499845 200.000195 L 221.000464 169.499731 L 244.499805 119.499683 L 260.499862 130.000334 " transform="matrix(3.779528,0,0,3.779528,0,0)"/>
<path style="fill:none;stroke-width:2;stroke-linecap:butt;stroke-linejoin:miter;stroke:rgb(0%,0%,0%);stroke-opacity:1;stroke-miterlimit:4;" d="M 264.499618 133.499862 L 244.499805 127 " transform="matrix(3.779528,0,0,3.779528,0,0)"/>
<path style="fill:none;stroke-width:2;stroke-linecap:butt;stroke-linejoin:miter;stroke:rgb(0%,0%,0%);stroke-opacity:1;stroke-miterlimit:4;" d="M 239.999821 89.000252 L 241.999699 105.000309 L 237.499715 121.000366 L 233.499959 137.000423 L 227.500326 153.00048 L 221.499658 168.999504 L 216.999674 184.500366 L 211.000041 200.500423 L 207.500513 212.000496 L 199.499967 216.000252 L 197.50009 239.999821 L 166.999626 257.999756 L 168.999504 263.500195 L 171.000415 271.499707 L 148.999691 279.500252 L 140.499951 295.500309 L 130.499528 307.499577 L 112.499593 323.499634 L 98.500448 339.499691 L 89.000252 357.499626 L 82.999585 373.000488 L 75.000073 389.49974 L 62.999772 391.499618 L 57.500366 407.499674 L 46.000293 409.99978 L 54.500033 411.999658 L 68.500212 405.499797 L 68.500212 385.499984 L 85.000496 373.499683 L 105.499504 341.499569 L 121.499561 325.000317 L 137.000423 311.500366 L 153.00048 307.999805 " transform="matrix(3.779528,0,0,3.779528,0,0)"/>
<path style="fill:none;stroke-width:2;stroke-linecap:butt;stroke-linejoin:miter;stroke:rgb(0%,0%,0%);stroke-opacity:1;stroke-miterlimit:4;" d="M 197.50009 212.000496 L 195.500212 196.000439 L 197.50009 180.000382 " transform="matrix(3.779528,0,0,3.779528,0,0)"/>
<path style="fill:none;stroke-width:2;stroke-linecap:butt;stroke-linejoin:miter;stroke:rgb(0%,0%,0%);stroke-opacity:1;stroke-miterlimit:4;" d="M 252.999544 178.499699 L 252.999544 193.999528 L 236.999487 202.000073 L 246.99991 209.500391 " transform="matrix(3.779528,0,0,3.779528,0,0)"/>
<path style="fill:none;stroke-width:2;stroke-linecap:butt;stroke-linejoin:miter;stroke:rgb(0%,0%,0%);stroke-opacity:1;stroke-miterlimit:4;" d="M 271.000513 160.499764 L 266.999723 176.499821 L 257.000334 190.5 L 248.999788 198.000317 L 234.999609 198.000317 L 250.999666 175.500399 L 266.999723 157.999658 L 282.99978 139.999723 L 298.999837 124.499894 " transform="matrix(3.779528,0,0,3.779528,0,0)"/>
<path style="fill:none;stroke-width:2;stroke-linecap:butt;stroke-linejoin:miter;stroke:rgb(0%,0%,0%);stroke-opacity:1;stroke-miterlimit:4;" d="M 302.500399 117.499805 L 286.500342 133.499862 L 271.499707 149.499919 L 257.999756 165.499976 L 243.999577 181.500033 L 234.000187 198.000317 L 239.999821 214.000374 L 234.500415 209.500391 L 230.499626 221.499658 L 241.999699 239.000399 L 234.000187 250.999666 L 230.000431 257.000334 L 223.999764 265.500073 L 245.50026 269.499829 L 255.49965 270.000057 L 255.000456 282.000358 L 259.000212 289.99987 L 267.499951 292.499976 L 271.499707 308.500033 L 297.500187 324.50009 L 319.499878 341.000374 L 323.499634 356.500203 L 327.500423 373.000488 L 343.50048 388.999512 L 352.00022 404.999569 L 352.00022 420.999626 L 354.000098 436.500488 L 382.49965 450.000439 L 398.499707 465.500269 L 412.499886 481.500326 L 402.500496 483.500203 L 409.000358 491.499715 " transform="matrix(3.779528,0,0,3.779528,0,0)"/>
<path style="fill:none;stroke-width:2;stroke-linecap:butt;stroke-linejoin:miter;stroke:rgb(0%,0%,0%);stroke-opacity:1;stroke-miterlimit:4;" d="M 502.000366 490.999487 L 483.500203 473.49978 L 471.499902 472.00013 L 465.500269 463.999585 L 457.499723 447.999528 L 445.500456 432.000505 L 425.499609 416.000448 L 405.499797 400.000391 L 384.999756 382.000456 L 361.000187 366.000399 L 332.999829 350.000342 L 325.000317 329.500301 L 318.99965 323.499634 L 323.000439 307.499577 L 327.500423 286.000114 L 325.99974 270.000057 " transform="matrix(3.779528,0,0,3.779528,0,0)"/>
<path style="fill:none;stroke-width:2;stroke-linecap:butt;stroke-linejoin:miter;stroke:rgb(0%,0%,0%);stroke-opacity:1;stroke-miterlimit:4;" d="M 389.999967 230.499626 L 386.000212 246.000488 L 385.499984 270.500285 L 387.499862 286.500342 L 391.999845 304.500277 L 396.499829 320.500334 L 398.499707 336.500391 " transform="matrix(3.779528,0,0,3.779528,0,0)"/>
<path style="fill:none;stroke-width:2;stroke-linecap:butt;stroke-linejoin:miter;stroke:rgb(0%,0%,0%);stroke-opacity:1;stroke-miterlimit:4;" d="M 411.000236 185.499788 L 395.000179 183.49991 " transform="matrix(3.779528,0,0,3.779528,0,0)"/>
<path style="fill:none;stroke-width:2;stroke-linecap:butt;stroke-linejoin:miter;stroke:rgb(0%,0%,0%);stroke-opacity:1;stroke-miterlimit:4;" d="M 397.000057 184.000138 L 395.000179 199.499967 L 388.999512 216.999674 " transform="matrix(3.779528,0,0,3.779528,0,0)"/>
<path style="fill:none;stroke-width:2;stroke-linecap:butt;stroke-linejoin:miter;stroke:rgb(0%,0%,0%);stroke-opacity:1;stroke-miterlimit:4;" d="M 414.999992 189.999772 L 398.499707 186.000016 L 397.000057 171.499609 " transform="matrix(3.779528,0,0,3.779528,0,0)"/>
<path style="fill:none;stroke-width:2;stroke-linecap:butt;stroke-linejoin:miter;stroke:rgb(0%,0%,0%);stroke-opacity:1;stroke-miterlimit:4;" d="M 397.000057 168.000081 L 391.000423 183.49991 L 391.000423 199.499967 L 393.000301 216.000252 L 384.999756 236.500293 L 382.999878 256.500106 L 379.000122 270.500285 L 384.499528 286.500342 L 386.500439 302.500399 L 390.500195 318.500456 L 407.00048 338.500269 L 422.999504 344.499902 L 438.999561 348.499658 L 455.499845 334.500513 L 471.499902 314.499666 L 477.499536 316.499544 L 488.999609 322.500212 L 495.000277 328.499845 L 511.000334 348.000464 " transform="matrix(3.779528,0,0,3.779528,0,0)"/>
<path style="fill:none;stroke-width:2;stroke-linecap:butt;stroke-linejoin:miter;stroke:rgb(0%,0%,0%);stroke-opacity:1;stroke-miterlimit:4;" d="M 471.499902 174.499943 L 486.999731 162.499642 L 471.499902 168.000081 L 477.499536 163.500098 " transform="matrix(3.779528,0,0,3.779528,0,0)"/>
<path style="fill:none;stroke-width:2;stroke-linecap:butt;stroke-linejoin:miter;stroke:rgb(0%,0%,0%);stroke-opacity:1;stroke-miterlimit:4;" d="M 504.500472 134.500317 L 500.99991 150.500374 L 499.000033 166.500431 L 497.000155 184.500366 L 497.500382 200.000195 L 497.500382 215.500024 L 495.500505 230.999854 L 491.499715 246.99991 L 479.500448 271.000513 L 483.500203 288.50022 L 488.000187 304.500277 L 500.000488 320.500334 L 502.499561 336.500391 L 506.50035 350.999764 L 496.499927 363.000065 L 508.500228 352.999642 " transform="matrix(3.779528,0,0,3.779528,0,0)"/>
<path style="fill:none;stroke-width:2;stroke-linecap:butt;stroke-linejoin:miter;stroke:rgb(0%,0%,0%);stroke-opacity:1;stroke-miterlimit:4;" d="M 487.499959 243.500382 L 472.00013 253.499772 L 456.000073 251.499894 L 440.000016 250.000244 L 423.999959 250.500472 L 407.999902 250.500472 L 391.999845 250.000244 L 379.999544 245.50026 L 363.999487 245.000033 L 348.000464 243.000155 L 332.000407 243.000155 L 314.499666 233.499959 L 318.99965 217.499902 L 330.999951 201.499845 L 345.00013 185.499788 " transform="matrix(3.779528,0,0,3.779528,0,0)"/>
<path style="fill:none;stroke-width:2;stroke-linecap:butt;stroke-linejoin:miter;stroke:rgb(0%,0%,0%);stroke-opacity:1;stroke-miterlimit:4;" d="M 321.999984 162.499642 L 320.000106 178.499699 L 320.000106 193.999528 L 339.999919 187.999894 L 355.999976 181.500033 L 372.50026 177.000049 L 388.500317 169.499731 L 406.500252 162.000448 L 422.500309 158.499886 L 438.999561 150.500374 L 454.999618 141.000179 L 470.999674 134.999512 L 486.999731 128.999878 L 502.499561 122.500016 " transform="matrix(3.779528,0,0,3.779528,0,0)"/>
<path style="fill:none;stroke-width:2;stroke-linecap:butt;stroke-linejoin:miter;stroke:rgb(0%,0%,0%);stroke-opacity:1;stroke-miterlimit:4;" d="M 506.000122 102.500203 L 490.000065 105.999731 L 474.000008 107.999609 L 471.499902 101.999976 L 461.500513 80.000285 L 465.500269 62.00035 L 469.500024 51.999927 L 475.000464 35.99987 L 465.000041 37.999748 " transform="matrix(3.779528,0,0,3.779528,0,0)"/>
<path style="fill:none;stroke-width:2;stroke-linecap:butt;stroke-linejoin:miter;stroke:rgb(0%,0%,0%);stroke-opacity:1;stroke-miterlimit:4;" d="M 472.00013 57.000138 L 488.000187 51.000505 L 504.000244 42.499731 L 491.499715 42.499731 L 475.000464 17.999935 " transform="matrix(3.779528,0,0,3.779528,0,0)"/>
<path style="fill:none;stroke-width:2;stroke-linecap:butt;stroke-linejoin:miter;stroke:rgb(0%,0%,0%);stroke-opacity:1;stroke-miterlimit:4;" d="M 474.500236 3.000334 L 472.500358 18.500163 L 462.499935 34.50022 L 460.500057 46.499487 L 438.500366 56.49991 L 436.500488 72.499967 L 438.999561 88.500024 L 434.999805 96.499536 L 421.499854 101.999976 L 425.000415 109.999487 L 429.000171 126.499772 L 429.000171 141.999601 L 420.999626 157.999658 L 448.999984 149.499919 L 464.499813 141.500407 L 479.999642 135.49974 L 495.999699 131.499984 " transform="matrix(3.779528,0,0,3.779528,0,0)"/>
<path style="fill:none;stroke-width:2;stroke-linecap:butt;stroke-linejoin:miter;stroke:rgb(0%,0%,0%);stroke-opacity:1;stroke-miterlimit:4;" d="M 504.500472 107.000187 L 488.500415 110.999943 L 472.500358 113.500049 L 462.499935 119.499683 L 442.500122 107.999609 L 432.000505 118.000033 L 436.00026 102.500203 L 438.500366 118.50026 L 443.999772 103.000431 L 452.000317 93.000008 L 459.499601 76.999951 L 455.499845 71.000317 L 459.000407 62.999772 L 465.000041 46.999715 L 472.500358 30.999658 L 460.500057 26.999902 L 444.5 40.499854 L 429.000171 57.999561 L 413.000114 46.000293 L 397.500285 35.99987 L 381.500228 23.999569 L 366.000399 10.000423 L 350.499536 16.000057 L 334.000285 36.500098 " transform="matrix(3.779528,0,0,3.779528,0,0)"/>
<path style="fill:none;stroke-width:2;stroke-linecap:butt;stroke-linejoin:miter;stroke:rgb(0%,0%,0%);stroke-opacity:1;stroke-miterlimit:4;" d="M 336.999585 59.500244 L 352.999642 59.500244 " transform="matrix(3.779528,0,0,3.779528,0,0)"/>
<path style="fill:none;stroke-width:2;stroke-linecap:butt;stroke-linejoin:miter;stroke:rgb(0%,0%,0%);stroke-opacity:1;stroke-miterlimit:4;" d="M 334.000285 69.999862 L 323.999862 85.999919 L 307.999805 101.999976 L 291.999748 118.50026 L 286.000114 124.499894 L 302.000171 108.499837 L 317.5 94.499658 " transform="matrix(3.779528,0,0,3.779528,0,0)"/>
<path style="fill:none;stroke-width:2;stroke-linecap:butt;stroke-linejoin:miter;stroke:rgb(0%,0%,0%);stroke-opacity:1;stroke-miterlimit:4;" d="M 313.000016 89.50048 L 296.999959 103.499626 L 280.499674 119.499683 L 264.499618 137.999845 L 270.500285 130.000334 L 286.999536 114.500505 L 302.999593 98.500448 L 321.499756 82.500391 L 331.500179 66.500334 " transform="matrix(3.779528,0,0,3.779528,0,0)"/>
<path style="fill:none;stroke-width:2;stroke-linecap:butt;stroke-linejoin:miter;stroke:rgb(0%,0%,0%);stroke-opacity:1;stroke-miterlimit:4;" d="M 353.49987 110.499715 L 370.000155 98.500448 L 357.999854 104.500081 L 352.500448 120.500138 L 346.49978 136.500195 L 329.000073 152.000024 L 313.500244 159.999536 L 289.499642 175.999593 L 264.000423 191.99965 L 267.499951 196.000439 L 299.500065 175.999593 L 314.999894 166.500431 L 311.000138 168.500309 L 284.500464 184.000138 L 258.499984 191.99965 L 273.999813 184.000138 L 289.99987 173.999715 L 305.999927 164.000326 L 321.499756 157.500464 L 353.49987 129.500106 L 370.000155 113.500049 L 386.000212 101.499748 L 400.000391 85.999919 L 416.000448 62.00035 " transform="matrix(3.779528,0,0,3.779528,0,0)"/>
<path style="fill:none;stroke-width:2;stroke-linecap:butt;stroke-linejoin:miter;stroke:rgb(0%,0%,0%);stroke-opacity:1;stroke-miterlimit:4;" d="M 431.500277 85.000496 L 415.50022 98.999642 L 400.000391 112.999821 L 384.000334 119.000488 L 368.000277 123.500472 " transform="matrix(3.779528,0,0,3.779528,0,0)"/>
<path style="fill:none;stroke-width:2;stroke-linecap:butt;stroke-linejoin:miter;stroke:rgb(0%,0%,0%);stroke-opacity:1;stroke-miterlimit:4;" d="M 356.500203 114.999699 L 372.50026 105.000309 L 388.999512 106.499959 " transform="matrix(3.779528,0,0,3.779528,0,0)"/>
<path style="fill:none;stroke-width:2;stroke-linecap:butt;stroke-linejoin:miter;stroke:rgb(0%,0%,0%);stroke-opacity:1;stroke-miterlimit:4;" d="M 395.500407 133.499862 L 395.500407 149.499919 L 395.999601 165.499976 " transform="matrix(3.779528,0,0,3.779528,0,0)"/>
<path style="fill:none;stroke-width:2;stroke-linecap:butt;stroke-linejoin:miter;stroke:rgb(0%,0%,0%);stroke-opacity:1;stroke-miterlimit:4;" d="M 441.000472 60.499666 L 438.999561 70.50009 L 446.499878 54.500033 " transform="matrix(3.779528,0,0,3.779528,0,0)"/>
<path style="fill:none;stroke-width:2;stroke-linecap:butt;stroke-linejoin:miter;stroke:rgb(0%,0%,0%);stroke-opacity:1;stroke-miterlimit:4;" d="M 498.499805 39.999626 L 482.499748 46.000293 L 466.000496 60.000472 L 448.499756 78.000407 L 432.499699 91.500358 L 416.99987 105.499504 L 404.999569 121.999788 L 398.999935 118.000033 L 386.999634 128.000456 L 370.500382 134.00009 L 354.500326 141.999601 L 370.500382 113.500049 L 390.500195 97.499992 L 408.50013 75.999495 L 422.999504 60.000472 L 398.999935 44.000415 L 379.000122 28.499552 L 361.000187 12.499495 " transform="matrix(3.779528,0,0,3.779528,0,0)"/>
<path style="fill:none;stroke-width:2;stroke-linecap:butt;stroke-linejoin:miter;stroke:rgb(0%,0%,0%);stroke-opacity:1;stroke-miterlimit:4;" d="M 363.000065 8.999967 L 382.49965 25.000024 L 402.999691 41.000081 L 424.500187 57.000138 L 436.500488 78.499601 L 456.000073 86.500146 L 472.500358 70.50009 L 488.999609 62.00035 L 505.499894 53.999805 " transform="matrix(3.779528,0,0,3.779528,0,0)"/>
<path style="fill:none;stroke-width:2;stroke-linecap:butt;stroke-linejoin:miter;stroke:rgb(0%,0%,0%);stroke-opacity:1;stroke-miterlimit:4;" d="M 504.999666 52.500155 L 472.999552 68.500212 L 475.000464 73.999618 L 490.999487 63.5 L 506.999544 57.500366 " transform="matrix(3.779528,0,0,3.779528,0,0)"/>
<path style="fill:none;stroke-width:2;stroke-linecap:butt;stroke-linejoin:miter;stroke:rgb(0%,0%,0%);stroke-opacity:1;stroke-miterlimit:4;" d="M 469.500024 3.499528 L 465.500269 19.499585 L 453.499967 35.499642 L 435.500033 51.000505 L 427.499487 69.000439 L 431.500277 84.500269 L 413.999536 100.500326 L 390.500195 116.000155 L 366.999821 103.999854 L 359.499504 119.99991 L 352.00022 139.999723 L 338.000041 152.000024 L 327.500423 168.000081 L 332.999829 167.499854 L 332.499601 175.500399 L 328.499845 203.999951 L 323.999862 219.49978 L 320.000106 235.499837 L 316.00035 250.999666 L 323.999862 255.49965 L 321.999984 271.499707 L 314.000472 287.499764 L 329.999495 300.999715 L 348.000464 316.999772 L 390.500195 333.500057 L 396.499829 349.500114 L 398.499707 364.999943 L 404.500374 382.999878 L 408.50013 393.000301 L 424.500187 401.500041 L 440.500244 409.499552 L 456.500301 419.499976 L 474.500236 429.500399 L 490.500293 438.999561 L 506.50035 448.999984 " transform="matrix(3.779528,0,0,3.779528,0,0)"/>
<path style="fill:none;stroke-width:2;stroke-linecap:butt;stroke-linejoin:miter;stroke:rgb(0%,0%,0%);stroke-opacity:1;stroke-miterlimit:4;" d="M 257.999756 134.00009 L 242.499927 126.499772 L 234.500415 150.500374 L 242.499927 118.50026 L 248.499561 102.500203 L 244.499805 86.500146 " transform="matrix(3.779528,0,0,3.779528,0,0)"/>
<path style="fill:none;stroke-width:2;stroke-linecap:butt;stroke-linejoin:miter;stroke:rgb(0%,0%,0%);stroke-opacity:1;stroke-miterlimit:4;" d="M 243.000155 84.500269 L 222.500114 100.500326 L 236.500293 87.999797 " transform="matrix(3.779528,0,0,3.779528,0,0)"/>
<path style="fill:none;stroke-width:2;stroke-linecap:butt;stroke-linejoin:miter;stroke:rgb(0%,0%,0%);stroke-opacity:1;stroke-miterlimit:4;" d="M 236.500293 83.499813 L 218.00013 99.49987 L 227.99952 87.499569 L 243.999577 85.000496 " transform="matrix(3.779528,0,0,3.779528,0,0)"/>
<path style="fill:none;stroke-width:2;stroke-linecap:butt;stroke-linejoin:miter;stroke:rgb(0%,0%,0%);stroke-opacity:1;stroke-miterlimit:4;" d="M 323.999862 78.000407 L 320.000106 75.999495 L 333.500057 57.500366 L 335.499935 33.499764 L 347.500236 17.999935 L 359.999731 2.500106 " transform="matrix(3.779528,0,0,3.779528,0,0)"/>
<path style="fill:none;stroke-width:2;stroke-linecap:butt;stroke-linejoin:miter;stroke:rgb(0%,0%,0%);stroke-opacity:1;stroke-miterlimit:4;" d="M 354.000098 1.49965 L 339.999919 17.499707 L 329.999495 33.999992 L 325.99974 51.999927 L 320.000106 67.499756 L 306.500155 83.499813 L 314.000472 81.499935 L 329.999495 69.499634 L 345.999552 65.499878 " transform="matrix(3.779528,0,0,3.779528,0,0)"/>
<path style="fill:none;stroke-width:2;stroke-linecap:butt;stroke-linejoin:miter;stroke:rgb(0%,0%,0%);stroke-opacity:1;stroke-miterlimit:4;" d="M 302.000171 65.499878 L 302.000171 49.499821 L 309.999683 17.499707 L 311.999561 1.000456 " transform="matrix(3.779528,0,0,3.779528,0,0)"/>
<path style="fill:none;stroke-width:2;stroke-linecap:butt;stroke-linejoin:miter;stroke:rgb(0%,0%,0%);stroke-opacity:1;stroke-miterlimit:4;" d="M 307.999805 1.49965 L 304.000049 17.499707 L 299.500065 33.499764 L 297.500187 49.499821 L 297.500187 65.499878 L 302.000171 82.000163 L 320.000106 67.499756 L 332.000407 29.500008 L 348.000464 10.000423 L 366.000399 17.999935 L 382.000456 30.500464 L 398.000513 42.499731 L 413.999536 53.999805 L 429.999593 66.000106 L 445.99965 71.499512 L 462.499935 57.000138 L 450.499634 43.500187 L 466.499691 30.000236 " transform="matrix(3.779528,0,0,3.779528,0,0)"/>
<path style="fill:none;stroke-width:2;stroke-linecap:butt;stroke-linejoin:miter;stroke:rgb(0%,0%,0%);stroke-opacity:1;stroke-miterlimit:4;" d="M 150.999569 104.500081 L 144.999935 110.499715 L 134.500317 121.999788 L 138.500073 119.99991 L 139.999723 103.499626 L 137.999845 87.499569 L 137.499618 71.499512 L 139.499495 49.499821 L 143.000057 33.499764 L 141.500407 17.999935 L 141.000179 1.999878 " transform="matrix(3.779528,0,0,3.779528,0,0)"/>
<path style="fill:none;stroke-width:2;stroke-linecap:butt;stroke-linejoin:miter;stroke:rgb(0%,0%,0%);stroke-opacity:1;stroke-miterlimit:4;" d="M 135.49974 1.000456 L 137.499618 17.000513 L 137.499618 32.999536 " transform="matrix(3.779528,0,0,3.779528,0,0)"/>
<path style="fill:none;stroke-width:2;stroke-linecap:butt;stroke-linejoin:miter;stroke:rgb(0%,0%,0%);stroke-opacity:1;stroke-miterlimit:4;" d="M 107.500415 33.499764 L 80.999707 17.499707 L 75.000073 1.49965 " transform="matrix(3.779528,0,0,3.779528,0,0)"/>
</g>
</svg>
