<?xml version="1.0" encoding="UTF-8"?>
<svg xmlns="http://www.w3.org/2000/svg" xmlns:xlink="http://www.w3.org/1999/xlink" width="1935.11811" height="1935.11811" viewBox="0 0 1935.11811 1935.11811" version="1.1">
<g id="surface1">
<path style="fill:none;stroke-width:2;stroke-linecap:butt;stroke-linejoin:miter;stroke:rgb(0%,0%,0%);stroke-opacity:1;stroke-miterlimit:4;" d="M 213.500146 2.500106 L 213.500146 18.500163 L 237.499715 30.500464 L 219.49978 46.499487 L 209.500391 48.999593 L 207.500513 64.99965 L 201.499845 80.999707 L 199.499967 96.999764 L 191.000228 109.000065 L 194.999984 124.499894 L 208.499935 140.499951 L 216.999674 156.500008 L 227.000098 156.500008 L 234.999609 160.499764 L 251.499894 180.000382 L 271.499707 195.500212 L 289.499642 205.000407 L 307.499577 211.000041 L 297.500187 218.999552 L 303.499821 218.500358 L 309.999683 234.500415 L 307.999805 250.500472 L 298.499609 270.500285 L 310.49991 284.999658 L 304.500277 293.000203 L 312.499788 296.999959 L 318.500456 307.000382 L 334.500513 311.500366 L 350.499536 313.500244 L 366.499593 315.500122 L 382.49965 313.500244 L 398.499707 311.999561 L 413.999536 311.999561 " transform="matrix(3.779528,0,0,3.779528,0,0)"/>
<path style="fill:none;stroke-width:2;stroke-linecap:butt;stroke-linejoin:miter;stroke:rgb(0%,0%,0%);stroke-opacity:1;stroke-miterlimit:4;" d="M 384.000334 316.999772 L 400.000391 317.5 L 416.000448 315.500122 L 425.999837 321.499756 L 442.500122 311.999561 L 457.999951 300.000293 L 474.500236 287.999992 " transform="matrix(3.779528,0,0,3.779528,0,0)"/>
<path style="fill:none;stroke-width:2;stroke-linecap:butt;stroke-linejoin:miter;stroke:rgb(0%,0%,0%);stroke-opacity:1;stroke-miterlimit:4;" d="M 477.999764 280.999902 L 459.999829 296.999959 L 438.000138 313.500244 " transform="matrix(3.779528,0,0,3.779528,0,0)"/>
<path style="fill:none;stroke-width:2;stroke-linecap:butt;stroke-linejoin:miter;stroke:rgb(0%,0%,0%);stroke-opacity:1;stroke-miterlimit:4;" d="M 463.500391 304.500277 L 447.500334 318.500456 L 431.500277 330.499723 L 372.000033 330.499723 L 355.999976 332.000407 L 339.999919 329.999495 L 323.999862 331.500179 L 307.999805 331.500179 " transform="matrix(3.779528,0,0,3.779528,0,0)"/>
<path style="fill:none;stroke-width:2;stroke-linecap:butt;stroke-linejoin:miter;stroke:rgb(0%,0%,0%);stroke-opacity:1;stroke-miterlimit:4;" d="M 298.000415 339.499691 L 314.000472 341.000374 L 329.999495 339.499691 " transform="matrix(3.779528,0,0,3.779528,0,0)"/>
<path style="fill:none;stroke-width:2;stroke-linecap:butt;stroke-linejoin:miter;stroke:rgb(0%,0%,0%);stroke-opacity:1;stroke-miterlimit:4;" d="M 359.499504 340.500146 L 375.999788 342.500024 L 391.999845 340.500146 " transform="matrix(3.779528,0,0,3.779528,0,0)"/>
<path style="fill:none;stroke-width:2;stroke-linecap:butt;stroke-linejoin:miter;stroke:rgb(0%,0%,0%);stroke-opacity:1;stroke-miterlimit:4;" d="M 386.000212 354.99952 L 402.000269 357.000431 " transform="matrix(3.779528,0,0,3.779528,0,0)"/>
<path style="fill:none;stroke-width:2;stroke-linecap:butt;stroke-linejoin:miter;stroke:rgb(0%,0%,0%);stroke-opacity:1;stroke-miterlimit:4;" d="M 388.500317 391.000423 L 372.50026 393.000301 " transform="matrix(3.779528,0,0,3.779528,0,0)"/>
<path style="fill:none;stroke-width:2;stroke-linecap:butt;stroke-linejoin:miter;stroke:rgb(0%,0%,0%);stroke-opacity:1;stroke-miterlimit:4;" d="M 381.500228 418.000326 L 397.500285 418.000326 L 413.500342 413.999536 " transform="matrix(3.779528,0,0,3.779528,0,0)"/>
<path style="fill:none;stroke-width:2;stroke-linecap:butt;stroke-linejoin:miter;stroke:rgb(0%,0%,0%);stroke-opacity:1;stroke-miterlimit:4;" d="M 423.499731 411.000236 L 436.999683 395.000179 L 445.000228 379.000122 L 461.000285 363.000065 L 470.999674 347.500236 L 477.000342 331.500179 L 482.999976 316.00035 L 489.499837 300.499487 L 493.999821 284.500464 L 497.999577 268.999601 L 502.000366 262.999967 " transform="matrix(3.779528,0,0,3.779528,0,0)"/>
<path style="fill:none;stroke-width:2;stroke-linecap:butt;stroke-linejoin:miter;stroke:rgb(0%,0%,0%);stroke-opacity:1;stroke-miterlimit:4;" d="M 487.499959 257.999756 L 485.500081 273.999813 L 481.000098 290.500098 L 477.000342 306.500155 L 465.500269 322.500212 L 453.499967 338.500269 L 447.500334 362.499837 L 423.499731 386.000212 L 391.499618 388.00009 L 397.500285 393.999723 L 395.999601 395.500407 L 411.500464 385.499984 L 433.500155 384.999756 L 449.500212 366.999821 L 465.000041 345.00013 L 481.500326 305.000505 " transform="matrix(3.779528,0,0,3.779528,0,0)"/>
<path style="fill:none;stroke-width:2;stroke-linecap:butt;stroke-linejoin:miter;stroke:rgb(0%,0%,0%);stroke-opacity:1;stroke-miterlimit:4;" d="M 472.500358 305.000505 L 455.499845 318.500456 L 439.499788 334.999707 L 423.499731 334.500513 L 400.000391 330.499723 L 384.000334 326.499967 L 372.50026 334.500513 L 363.999487 322.500212 L 347.500236 322.500212 L 331.500179 318.500456 L 315.500122 312.499788 L 299.500065 308.500033 L 284.000236 304.000049 L 264.499618 289.99987 L 248.999788 286.000114 L 232.999731 273.499585 L 217.499902 261.00009 L 201.499845 251.499894 L 196.999862 259.500439 L 180.499577 247.500138 L 164.49952 241.500505 L 148.500496 236.000065 L 132.000212 225.999642 L 115.499927 213.500146 L 98.999642 201.499845 L 82.999585 187.499666 L 66.999528 168.999504 " transform="matrix(3.779528,0,0,3.779528,0,0)"/>
<path style="fill:none;stroke-width:2;stroke-linecap:butt;stroke-linejoin:miter;stroke:rgb(0%,0%,0%);stroke-opacity:1;stroke-miterlimit:4;" d="M 66.999528 167.499854 L 72.499967 184.000138 L 82.999585 200.000195 L 100.99952 216.000252 L 128.999878 232.000309 " transform="matrix(3.779528,0,0,3.779528,0,0)"/>
<path style="fill:none;stroke-width:2;stroke-linecap:butt;stroke-linejoin:miter;stroke:rgb(0%,0%,0%);stroke-opacity:1;stroke-miterlimit:4;" d="M 115.499927 228.999976 L 99.49987 221.000464 L 83.499813 207.500513 L 67.999984 185.499788 " transform="matrix(3.779528,0,0,3.779528,0,0)"/>
<path style="fill:none;stroke-width:2;stroke-linecap:butt;stroke-linejoin:miter;stroke:rgb(0%,0%,0%);stroke-opacity:1;stroke-miterlimit:4;" d="M 75.000073 180.000382 L 91.00013 196.000439 L 110.999943 211.500269 L 132.500439 227.500326 L 166.500431 243.999577 " transform="matrix(3.779528,0,0,3.779528,0,0)"/>
<path style="fill:none;stroke-width:2;stroke-linecap:butt;stroke-linejoin:miter;stroke:rgb(0%,0%,0%);stroke-opacity:1;stroke-miterlimit:4;" d="M 141.500407 250.000244 L 182.999683 266.000301 L 221.000464 289.499642 L 232.999731 305.499699 L 239.000399 307.499577 L 224.499992 315.500122 L 240.500049 329.500301 L 256.500106 335.499935 L 272.500163 339.499691 L 289.000448 345.500358 L 305.000505 348.999886 L 320.999528 347.500236 L 336.999585 345.500358 L 353.49987 345.500358 L 370.000155 348.000464 L 386.500439 348.000464 L 402.500496 345.500358 L 402.500496 341.499569 L 418.999748 343.50048 " transform="matrix(3.779528,0,0,3.779528,0,0)"/>
<path style="fill:none;stroke-width:2;stroke-linecap:butt;stroke-linejoin:miter;stroke:rgb(0%,0%,0%);stroke-opacity:1;stroke-miterlimit:4;" d="M 425.999837 401.500041 L 436.00026 398.000513 L 420.000203 416.000448 L 404.000146 422.000081 L 388.00009 423.999959 " transform="matrix(3.779528,0,0,3.779528,0,0)"/>
<path style="fill:none;stroke-width:2;stroke-linecap:butt;stroke-linejoin:miter;stroke:rgb(0%,0%,0%);stroke-opacity:1;stroke-miterlimit:4;" d="M 390.500195 422.000081 L 392.500073 438.000138 L 400.499585 453.499967 L 400.000391 468.999797 L 404.000146 475.000464 L 391.499618 490.999487 L 393.499495 506.50035 " transform="matrix(3.779528,0,0,3.779528,0,0)"/>
<path style="fill:none;stroke-width:2;stroke-linecap:butt;stroke-linejoin:miter;stroke:rgb(0%,0%,0%);stroke-opacity:1;stroke-miterlimit:4;" d="M 404.999569 465.000041 L 388.999512 429.500399 " transform="matrix(3.779528,0,0,3.779528,0,0)"/>
<path style="fill:none;stroke-width:2;stroke-linecap:butt;stroke-linejoin:miter;stroke:rgb(0%,0%,0%);stroke-opacity:1;stroke-miterlimit:4;" d="M 382.999878 427.000293 L 399.500163 461.500513 " transform="matrix(3.779528,0,0,3.779528,0,0)"/>
<path style="fill:none;stroke-width:2;stroke-linecap:butt;stroke-linejoin:miter;stroke:rgb(0%,0%,0%);stroke-opacity:1;stroke-miterlimit:4;" d="M 380.499772 457.499723 L 364.499715 449.500212 L 348.499658 447.500334 " transform="matrix(3.779528,0,0,3.779528,0,0)"/>
<path style="fill:none;stroke-width:2;stroke-linecap:butt;stroke-linejoin:miter;stroke:rgb(0%,0%,0%);stroke-opacity:1;stroke-miterlimit:4;" d="M 345.00013 447.500334 L 361.000187 435.500033 L 376.500016 431.500277 L 384.000334 429.000171 L 389.999967 445.000228 L 398.000513 461.500513 L 393.499495 463.000163 L 381 479.00022 L 388.999512 472.999552 L 384.499528 488.999609 " transform="matrix(3.779528,0,0,3.779528,0,0)"/>
<path style="fill:none;stroke-width:2;stroke-linecap:butt;stroke-linejoin:miter;stroke:rgb(0%,0%,0%);stroke-opacity:1;stroke-miterlimit:4;" d="M 381 454.000195 L 363.000065 438.000138 L 372.50026 431.500277 L 360.499959 413.500342 L 344.499902 409.000358 L 328.499845 407.00048 " transform="matrix(3.779528,0,0,3.779528,0,0)"/>
<path style="fill:none;stroke-width:2;stroke-linecap:butt;stroke-linejoin:miter;stroke:rgb(0%,0%,0%);stroke-opacity:1;stroke-miterlimit:4;" d="M 334.500513 412.499886 L 350.499536 416.499642 " transform="matrix(3.779528,0,0,3.779528,0,0)"/>
<path style="fill:none;stroke-width:2;stroke-linecap:butt;stroke-linejoin:miter;stroke:rgb(0%,0%,0%);stroke-opacity:1;stroke-miterlimit:4;" d="M 366.999821 428.499943 L 366.999821 420.000203 L 350.999764 422.000081 L 343.000252 429.999593 L 326.499967 422.000081 " transform="matrix(3.779528,0,0,3.779528,0,0)"/>
<path style="fill:none;stroke-width:2;stroke-linecap:butt;stroke-linejoin:miter;stroke:rgb(0%,0%,0%);stroke-opacity:1;stroke-miterlimit:4;" d="M 302.000171 415.50022 L 322.500212 451.50009 L 339.000496 457.499723 L 347.500236 453.499967 L 363.000065 457.999951 " transform="matrix(3.779528,0,0,3.779528,0,0)"/>
<path style="fill:none;stroke-width:2;stroke-linecap:butt;stroke-linejoin:miter;stroke:rgb(0%,0%,0%);stroke-opacity:1;stroke-miterlimit:4;" d="M 392.500073 459.999829 L 377.000244 468.000374 L 360.499959 463.999585 L 343.000252 474.500236 L 339.000496 484.499626 L 333.500057 470.50048 L 325.99974 459.999829 L 329.999495 450.000439 L 324.50009 434.000382 L 326.499967 423.499731 L 320.500334 415.50022 L 311.000138 411.500464 L 300.999715 385.499984 " transform="matrix(3.779528,0,0,3.779528,0,0)"/>
<path style="fill:none;stroke-width:2;stroke-linecap:butt;stroke-linejoin:miter;stroke:rgb(0%,0%,0%);stroke-opacity:1;stroke-miterlimit:4;" d="M 300.499487 399.500163 L 322.500212 409.499552 L 334.999707 411.000236 L 343.000252 431.000049 L 334.500513 438.999561 L 348.499658 454.999618 L 372.000033 471.499902 L 379.999544 487.499959 L 381.500228 509.999878 " transform="matrix(3.779528,0,0,3.779528,0,0)"/>
<path style="fill:none;stroke-width:2;stroke-linecap:butt;stroke-linejoin:miter;stroke:rgb(0%,0%,0%);stroke-opacity:1;stroke-miterlimit:4;" d="M 384.000334 502.999788 L 368.000277 500.499683 L 352.500448 498.499805 L 336.500391 488.000187 L 320.999528 468.000374 L 315.500122 455.499845 L 300.000293 413.999536 " transform="matrix(3.779528,0,0,3.779528,0,0)"/>
<path style="fill:none;stroke-width:2;stroke-linecap:butt;stroke-linejoin:miter;stroke:rgb(0%,0%,0%);stroke-opacity:1;stroke-miterlimit:4;" d="M 315.500122 397.500285 L 318.000228 403.499919 L 334.000285 402.000269 L 350.000342 404.500374 L 363.999487 410.500008 L 372.000033 404.000146 L 388.00009 402.000269 L 403.499919 400.499585 L 419.499976 390.500195 " transform="matrix(3.779528,0,0,3.779528,0,0)"/>
<path style="fill:none;stroke-width:2;stroke-linecap:butt;stroke-linejoin:miter;stroke:rgb(0%,0%,0%);stroke-opacity:1;stroke-miterlimit:4;" d="M 418.49952 404.999569 L 401.500041 412.499886 L 385.499984 413.000114 L 375.499561 416.499642 L 370.000155 396.499829 L 345.999552 396.499829 L 330.499723 390.500195 " transform="matrix(3.779528,0,0,3.779528,0,0)"/>
<path style="fill:none;stroke-width:2;stroke-linecap:butt;stroke-linejoin:miter;stroke:rgb(0%,0%,0%);stroke-opacity:1;stroke-miterlimit:4;" d="M 334.000285 359.499504 L 318.000228 363.500293 L 302.000171 359.499504 " transform="matrix(3.779528,0,0,3.779528,0,0)"/>
<path style="fill:none;stroke-width:2;stroke-linecap:butt;stroke-linejoin:miter;stroke:rgb(0%,0%,0%);stroke-opacity:1;stroke-miterlimit:4;" d="M 291.49952 366.999821 L 307.999805 368.999699 L 318.000228 366.499593 L 332.000407 391.999845 L 362.499837 409.99978 L 362.499837 425.499609 L 360.499959 435.500033 L 361.000187 447.500334 L 368.999699 449.500212 L 377.500472 459.000407 L 373.499683 466.999919 L 343.000252 477.000342 L 366.999821 477.000342 " transform="matrix(3.779528,0,0,3.779528,0,0)"/>
<path style="fill:none;stroke-width:2;stroke-linecap:butt;stroke-linejoin:miter;stroke:rgb(0%,0%,0%);stroke-opacity:1;stroke-miterlimit:4;" d="M 377.999666 450.000439 L 379.999544 438.500366 L 375.999788 422.000081 " transform="matrix(3.779528,0,0,3.779528,0,0)"/>
<path style="fill:none;stroke-width:2;stroke-linecap:butt;stroke-linejoin:miter;stroke:rgb(0%,0%,0%);stroke-opacity:1;stroke-miterlimit:4;" d="M 400.000391 369.499927 L 384.000334 375.000366 L 368.000277 368.999699 L 352.00022 368.999699 L 347.500236 364.999943 L 331.500179 375.000366 L 309.999683 377.500472 L 307.999805 383.500106 L 293.999626 368.000277 L 291.999748 359.999731 L 287.999992 368.000277 L 272.500163 368.500505 " transform="matrix(3.779528,0,0,3.779528,0,0)"/>
<path style="fill:none;stroke-width:2;stroke-linecap:butt;stroke-linejoin:miter;stroke:rgb(0%,0%,0%);stroke-opacity:1;stroke-miterlimit:4;" d="M 295.000081 371.499805 L 311.500366 373.499683 L 327.500423 373.499683 L 337.499813 350.000342 L 353.49987 350.000342 L 369.499927 351.499992 L 386.000212 351.499992 L 402.000269 348.999886 L 418.000326 347.000008 L 427.999715 357.000431 " transform="matrix(3.779528,0,0,3.779528,0,0)"/>
<path style="fill:none;stroke-width:2;stroke-linecap:butt;stroke-linejoin:miter;stroke:rgb(0%,0%,0%);stroke-opacity:1;stroke-miterlimit:4;" d="M 409.000358 407.999902 L 414.499764 383.500106 L 438.000138 375.499561 L 457.999951 359.499504 L 468.000374 343.999674 L 474.000008 327.999618 L 480.49987 311.500366 L 486.499504 295.500309 L 490.000065 279.000024 L 491.999943 262.999967 L 497.999577 246.99991 L 506.50035 231.500081 L 499.000033 223.999764 L 497.500382 207.999707 L 493.499593 192.499878 L 486.999731 175.999593 L 476.500114 159.999536 L 468.000374 143.500285 L 459.499601 127.500228 L 447.500334 110.999943 L 433.500155 94.999886 L 417.500098 79.500057 L 397.500285 59.500244 L 386.999634 55.500488 L 363.000065 39.500431 L 350.999764 23.500374 L 345.500358 23.500374 L 329.999495 29.500008 L 314.000472 23.500374 L 298.000415 17.499707 L 282.499552 19.499585 L 266.999723 16.000057 L 251.499894 17.999935 L 235.499837 19.999813 L 220.000008 19.999813 " transform="matrix(3.779528,0,0,3.779528,0,0)"/>
<path style="fill:none;stroke-width:2;stroke-linecap:butt;stroke-linejoin:miter;stroke:rgb(0%,0%,0%);stroke-opacity:1;stroke-miterlimit:4;" d="M 218.500358 17.000513 L 234.500415 16.500285 L 250.500472 14.500407 L 266.000301 12.000301 " transform="matrix(3.779528,0,0,3.779528,0,0)"/>
<path style="fill:none;stroke-width:2;stroke-linecap:butt;stroke-linejoin:miter;stroke:rgb(0%,0%,0%);stroke-opacity:1;stroke-miterlimit:4;" d="M 270.000057 28.99978 L 259.999634 31.499886 L 255.999878 47.499943 L 250.000244 63.5 L 243.999577 79.500057 L 236.000065 95.500114 L 214.000374 103.499626 L 212.499691 113.500049 L 212.499691 129.500106 L 211.000041 139.499495 L 227.000098 148.000269 L 241.000277 155.499552 L 241.000277 163.500098 L 261.00009 178.000505 L 277.000146 192.499878 L 293.000203 182.500488 L 309.00026 196.499634 L 302.500399 214.499569 L 318.500456 204.500179 L 334.500513 192.499878 L 350.999764 176.499821 L 366.999821 160.499764 L 377.000244 142.499829 L 393.499495 126.499772 L 419.499976 104.500081 L 443.499544 132.500439 L 452.99974 140.499951 L 454.999618 156.500008 L 447.000106 171.999837 L 452.499512 173.499487 L 442.500122 189.499544 L 436.500488 205.499601 L 418.49952 221.499658 L 398.499707 237.999943 L 379.999544 254.500228 L 361.500415 270.500285 L 351.499992 270.500285 L 359.999731 278.499797 L 375.999788 266.499495 L 384.499528 266.499495 L 400.499585 254.500228 L 416.000448 243.999577 L 432.000505 234.000187 L 447.999528 223.999764 L 452.000317 211.500269 " transform="matrix(3.779528,0,0,3.779528,0,0)"/>
<path style="fill:none;stroke-width:2;stroke-linecap:butt;stroke-linejoin:miter;stroke:rgb(0%,0%,0%);stroke-opacity:1;stroke-miterlimit:4;" d="M 439.499788 191.99965 L 425.000415 196.000439 L 409.000358 200.000195 " transform="matrix(3.779528,0,0,3.779528,0,0)"/>
<path style="fill:none;stroke-width:2;stroke-linecap:butt;stroke-linejoin:miter;stroke:rgb(0%,0%,0%);stroke-opacity:1;stroke-miterlimit:4;" d="M 397.000057 184.000138 L 386.999634 199.499967 L 370.999577 214.999797 L 352.999642 225.00022 L 336.999585 241.000277 L 324.50009 257.000334 L 305.000505 273.000391 L 296.999959 279.000024 L 313.000016 265.500073 L 329.000073 255.49965 L 343.000252 246.000488 L 359.000309 239.499593 L 375.000366 231.500081 L 391.000423 215.500024 L 407.00048 201.499845 L 422.500309 180.000382 " transform="matrix(3.779528,0,0,3.779528,0,0)"/>
<path style="fill:none;stroke-width:2;stroke-linecap:butt;stroke-linejoin:miter;stroke:rgb(0%,0%,0%);stroke-opacity:1;stroke-miterlimit:4;" d="M 441.499666 175.999593 L 445.500456 159.999536 L 447.500334 144.000513 L 445.000228 128.000456 L 427.000293 118.000033 L 420.500431 101.999976 L 407.00048 85.999919 L 396.499829 85.999919 " transform="matrix(3.779528,0,0,3.779528,0,0)"/>
<path style="fill:none;stroke-width:2;stroke-linecap:butt;stroke-linejoin:miter;stroke:rgb(0%,0%,0%);stroke-opacity:1;stroke-miterlimit:4;" d="M 397.000057 85.999919 L 404.999569 101.499748 L 397.500285 117.499805 L 384.000334 133.499862 L 378.499894 149.499919 L 360.499959 166.000203 L 352.999642 182.00026 L 327.000195 198.000317 L 316.499544 214.000374 L 318.500456 230.000431 L 308.500033 246.499683 L 310.49991 250.500472 L 314.499666 254 " transform="matrix(3.779528,0,0,3.779528,0,0)"/>
<path style="fill:none;stroke-width:2;stroke-linecap:butt;stroke-linejoin:miter;stroke:rgb(0%,0%,0%);stroke-opacity:1;stroke-miterlimit:4;" d="M 320.000106 270.000057 L 338.500269 255.999878 L 356.500203 246.000488 " transform="matrix(3.779528,0,0,3.779528,0,0)"/>
<path style="fill:none;stroke-width:2;stroke-linecap:butt;stroke-linejoin:miter;stroke:rgb(0%,0%,0%);stroke-opacity:1;stroke-miterlimit:4;" d="M 355.999976 256.500106 L 359.499504 254.500228 L 355.499748 250.999666 L 379.50035 234.999609 L 397.500285 218.999552 L 413.500342 202.999495 L 405.499797 209.000163 L 389.49974 226.49987 L 373.499683 238.500171 " transform="matrix(3.779528,0,0,3.779528,0,0)"/>
<path style="fill:none;stroke-width:2;stroke-linecap:butt;stroke-linejoin:miter;stroke:rgb(0%,0%,0%);stroke-opacity:1;stroke-miterlimit:4;" d="M 387.499862 250.999666 L 402.999691 241.000277 L 418.999748 228.999976 L 434.999805 215.500024 L 450.499634 207.500513 L 468.999797 185.499788 L 463.000163 202.000073 " transform="matrix(3.779528,0,0,3.779528,0,0)"/>
<path style="fill:none;stroke-width:2;stroke-linecap:butt;stroke-linejoin:miter;stroke:rgb(0%,0%,0%);stroke-opacity:1;stroke-miterlimit:4;" d="M 486.000309 208.499935 L 488.000187 223.999764 L 489.499837 240.500049 L 479.500448 256.500106 L 484.000431 258.499984 L 470.50048 274.500041 L 440.500244 286.500342 L 406.500252 307.999805 L 422.500309 304.000049 L 438.500366 297.500187 L 454.500423 285.499886 " transform="matrix(3.779528,0,0,3.779528,0,0)"/>
<path style="fill:none;stroke-width:2;stroke-linecap:butt;stroke-linejoin:miter;stroke:rgb(0%,0%,0%);stroke-opacity:1;stroke-miterlimit:4;" d="M 444.5 292.499976 L 464.499813 276.499919 " transform="matrix(3.779528,0,0,3.779528,0,0)"/>
<path style="fill:none;stroke-width:2;stroke-linecap:butt;stroke-linejoin:miter;stroke:rgb(0%,0%,0%);stroke-opacity:1;stroke-miterlimit:4;" d="M 472.999552 280.00048 L 456.999495 293.999626 L 441.499666 305.999927 L 425.499609 316.00035 L 409.99978 323.999862 L 394.499951 321.999984 L 377.999666 326.499967 L 362.499837 326.499967 L 334.500513 324.50009 L 318.500456 321.999984 L 302.000171 329.500301 L 286.000114 329.500301 L 270.000057 325.499512 L 264.000423 317.5 L 248.000366 309.500488 L 220.000008 313.000016 L 204.500179 307.000382 " transform="matrix(3.779528,0,0,3.779528,0,0)"/>
<path style="fill:none;stroke-width:2;stroke-linecap:butt;stroke-linejoin:miter;stroke:rgb(0%,0%,0%);stroke-opacity:1;stroke-miterlimit:4;" d="M 205.000407 313.500244 L 218.999552 329.500301 L 223.000342 345.999552 " transform="matrix(3.779528,0,0,3.779528,0,0)"/>
<path style="fill:none;stroke-width:2;stroke-linecap:butt;stroke-linejoin:miter;stroke:rgb(0%,0%,0%);stroke-opacity:1;stroke-miterlimit:4;" d="M 222.500114 355.999976 L 206.500057 357.999854 " transform="matrix(3.779528,0,0,3.779528,0,0)"/>
<path style="fill:none;stroke-width:2;stroke-linecap:butt;stroke-linejoin:miter;stroke:rgb(0%,0%,0%);stroke-opacity:1;stroke-miterlimit:4;" d="M 202.000073 362.499837 L 218.500358 361.000187 L 234.500415 357.499626 L 250.500472 359.999731 L 266.499495 366.499593 " transform="matrix(3.779528,0,0,3.779528,0,0)"/>
<path style="fill:none;stroke-width:2;stroke-linecap:butt;stroke-linejoin:miter;stroke:rgb(0%,0%,0%);stroke-opacity:1;stroke-miterlimit:4;" d="M 241.999699 354.500326 L 226.49987 338.000041 L 210.499813 323.499634 L 194.499756 321.499756 L 162.499642 313.500244 L 146.999813 309.999683 L 130.999756 306.500155 L 114.999699 298.499609 L 99.49987 290.500098 L 83.499813 280.499674 L 67.499756 264.499618 L 51.000505 242.499927 L 30.999658 254.500228 L 14.999601 258.499984 " transform="matrix(3.779528,0,0,3.779528,0,0)"/>
<path style="fill:none;stroke-width:2;stroke-linecap:butt;stroke-linejoin:miter;stroke:rgb(0%,0%,0%);stroke-opacity:1;stroke-miterlimit:4;" d="M 16.500285 262.999967 L 48.500399 255.000456 L 64.500456 271.499707 L 80.999707 286.999536 L 96.999764 296.999959 L 112.999821 305.000505 L 128.999878 311.000138 L 144.999935 314.999894 L 161.50022 318.99965 L 177.500277 323.000439 L 193.500334 326.499967 L 209.500391 330.499723 L 225.500448 344.499902 L 247.500138 346.49978 L 250.999666 340.500146 " transform="matrix(3.779528,0,0,3.779528,0,0)"/>
<path style="fill:none;stroke-width:2;stroke-linecap:butt;stroke-linejoin:miter;stroke:rgb(0%,0%,0%);stroke-opacity:1;stroke-miterlimit:4;" d="M 271.000513 338.500269 L 275.000269 354.500326 L 284.500464 373.000488 L 302.500399 381 L 300.000293 405.499797 L 305.499699 421.499854 L 311.500366 437.49991 L 318.000228 453.499967 L 325.99974 469.500024 L 339.999919 485.500081 L 359.999731 485.500081 L 375.999788 488.000187 " transform="matrix(3.779528,0,0,3.779528,0,0)"/>
<path style="fill:none;stroke-width:2;stroke-linecap:butt;stroke-linejoin:miter;stroke:rgb(0%,0%,0%);stroke-opacity:1;stroke-miterlimit:4;" d="M 400.499585 387.499862 L 384.499528 385.499984 L 368.500505 387.499862 L 352.500448 397.500285 L 361.999609 391.499618 L 351.499992 384.000334 L 339.499691 372.000033 L 355.499748 355.999976 " transform="matrix(3.779528,0,0,3.779528,0,0)"/>
<path style="fill:none;stroke-width:2;stroke-linecap:butt;stroke-linejoin:miter;stroke:rgb(0%,0%,0%);stroke-opacity:1;stroke-miterlimit:4;" d="M 366.999821 299.500065 L 350.999764 297.500187 " transform="matrix(3.779528,0,0,3.779528,0,0)"/>
<path style="fill:none;stroke-width:2;stroke-linecap:butt;stroke-linejoin:miter;stroke:rgb(0%,0%,0%);stroke-opacity:1;stroke-miterlimit:4;" d="M 339.499691 270.000057 L 347.500236 266.000301 L 341.999797 239.999821 L 354.500326 230.000431 L 338.000041 242.499927 " transform="matrix(3.779528,0,0,3.779528,0,0)"/>
<path style="fill:none;stroke-width:2;stroke-linecap:butt;stroke-linejoin:miter;stroke:rgb(0%,0%,0%);stroke-opacity:1;stroke-miterlimit:4;" d="M 366.000399 167.499854 L 382.000456 155.000358 L 398.000513 146.999813 " transform="matrix(3.779528,0,0,3.779528,0,0)"/>
<path style="fill:none;stroke-width:2;stroke-linecap:butt;stroke-linejoin:miter;stroke:rgb(0%,0%,0%);stroke-opacity:1;stroke-miterlimit:4;" d="M 382.000456 144.000513 L 398.000513 128.000456 L 419.499976 105.999731 L 421.499854 121.999788 L 416.99987 137.999845 L 420.999626 137.999845 L 416.99987 157.999658 L 407.499674 174.499943 L 377.500472 190.5 L 361.500415 205.999829 L 350.000342 221.999886 L 339.499691 214.499569 L 331.500179 222.500114 L 348.000464 230.499626 L 372.000033 214.499569 L 388.00009 194.499756 L 406.000024 189.999772 L 422.500309 169.999959 " transform="matrix(3.779528,0,0,3.779528,0,0)"/>
<path style="fill:none;stroke-width:2;stroke-linecap:butt;stroke-linejoin:miter;stroke:rgb(0%,0%,0%);stroke-opacity:1;stroke-miterlimit:4;" d="M 461.999707 166.500431 L 463.999585 182.500488 L 457.999951 198.000317 L 459.999829 216.000252 L 445.99965 231.500081 L 426.500065 246.99991 L 402.500496 263.500195 L 402.500496 264.000423 L 418.49952 256.500106 L 429.000171 244.499805 L 445.000228 234.999609 " transform="matrix(3.779528,0,0,3.779528,0,0)"/>
<path style="fill:none;stroke-width:2;stroke-linecap:butt;stroke-linejoin:miter;stroke:rgb(0%,0%,0%);stroke-opacity:1;stroke-miterlimit:4;" d="M 459.000407 242.499927 L 443.00035 254.500228 L 427.000293 261.999512 L 411.000236 266.000301 L 395.000179 271.999935 L 378.499894 282.000358 L 364.999943 287.999992 L 348.999886 295.999504 L 332.999829 298.000415 L 316.999772 302.000171 L 300.999715 302.000171 L 284.999658 298.000415 L 252.999544 302.000171 L 234.999609 302.000171 L 228.999976 282.000358 L 211.000041 270.000057 L 208.499935 277.999569 L 206.500057 277.500374 L 188.500122 261.999512 L 146.000391 246.000488 L 123.500472 227.99952 L 107.500415 220.500236 L 91.500358 206.500057 L 75.500301 188.500122 L 59.500244 172.500065 " transform="matrix(3.779528,0,0,3.779528,0,0)"/>
<path style="fill:none;stroke-width:2;stroke-linecap:butt;stroke-linejoin:miter;stroke:rgb(0%,0%,0%);stroke-opacity:1;stroke-miterlimit:4;" d="M 51.999927 171.999837 L 60.000472 187.999894 " transform="matrix(3.779528,0,0,3.779528,0,0)"/>
<path style="fill:none;stroke-width:2;stroke-linecap:butt;stroke-linejoin:miter;stroke:rgb(0%,0%,0%);stroke-opacity:1;stroke-miterlimit:4;" d="M 63.5 196.000439 L 46.999715 167.499854 " transform="matrix(3.779528,0,0,3.779528,0,0)"/>
<path style="fill:none;stroke-width:2;stroke-linecap:butt;stroke-linejoin:miter;stroke:rgb(0%,0%,0%);stroke-opacity:1;stroke-miterlimit:4;" d="M 44.999837 168.000081 L 51.000505 183.49991 L 60.999894 199.499967 L 66.999528 218.00013 L 80.999707 236.500293 L 103.000431 238.500171 L 121.000366 260.499862 L 158.499886 286.500342 " transform="matrix(3.779528,0,0,3.779528,0,0)"/>
<path style="fill:none;stroke-width:2;stroke-linecap:butt;stroke-linejoin:miter;stroke:rgb(0%,0%,0%);stroke-opacity:1;stroke-miterlimit:4;" d="M 203.499723 280.999902 L 218.999552 287.499764 L 234.999609 293.999626 L 250.500472 295.999504 L 266.000301 314.000472 " transform="matrix(3.779528,0,0,3.779528,0,0)"/>
<path style="fill:none;stroke-width:2;stroke-linecap:butt;stroke-linejoin:miter;stroke:rgb(0%,0%,0%);stroke-opacity:1;stroke-miterlimit:4;" d="M 225.999642 302.000171 L 210.499813 303.499821 L 192.499878 283.500008 L 184.500366 262.999967 L 168.000081 257.499528 L 152.000024 254 L 135.999967 248.000366 L 119.99991 246.499683 L 103.999854 238.500171 " transform="matrix(3.779528,0,0,3.779528,0,0)"/>
<path style="fill:none;stroke-width:2;stroke-linecap:butt;stroke-linejoin:miter;stroke:rgb(0%,0%,0%);stroke-opacity:1;stroke-miterlimit:4;" d="M 99.49987 252.999544 L 115.499927 261.00009 L 132.000212 266.999723 L 148.000269 273.499585 L 164.49952 280.00048 L 180.999805 282.000358 L 196.999862 284.000236 L 212.999919 289.99987 " transform="matrix(3.779528,0,0,3.779528,0,0)"/>
<path style="fill:none;stroke-width:2;stroke-linecap:butt;stroke-linejoin:miter;stroke:rgb(0%,0%,0%);stroke-opacity:1;stroke-miterlimit:4;" d="M 216.000252 297.500187 L 200.000195 307.499577 L 184.000138 304.000049 L 168.000081 302.000171 L 152.500252 300.000293 L 136.500195 293.999626 L 120.500138 291.999748 L 104.500081 282.000358 L 88.500024 273.999813 L 72.499967 261.500317 L 56.49991 241.500505 " transform="matrix(3.779528,0,0,3.779528,0,0)"/>
<path style="fill:none;stroke-width:2;stroke-linecap:butt;stroke-linejoin:miter;stroke:rgb(0%,0%,0%);stroke-opacity:1;stroke-miterlimit:4;" d="M 62.00035 236.000065 L 83.499813 252.000122 L 100.99952 267.499951 " transform="matrix(3.779528,0,0,3.779528,0,0)"/>
<path style="fill:none;stroke-width:2;stroke-linecap:butt;stroke-linejoin:miter;stroke:rgb(0%,0%,0%);stroke-opacity:1;stroke-miterlimit:4;" d="M 98.00022 298.499609 L 73.999618 282.499552 L 57.999561 266.499495 L 46.000293 248.499561 L 39.999626 232.000309 L 35.99987 216.000252 L 33.999992 199.499967 L 33.999992 183.49991 L 37.999748 167.499854 L 48.000171 151.499797 L 53.499577 135.49974 L 62.00035 119.000488 L 71.99974 103.000431 L 84.000041 87.000374 L 105.499504 70.50009 L 133.499862 54.500033 L 166.000203 41.000081 L 162.000448 48.999593 " transform="matrix(3.779528,0,0,3.779528,0,0)"/>
<path style="fill:none;stroke-width:2;stroke-linecap:butt;stroke-linejoin:miter;stroke:rgb(0%,0%,0%);stroke-opacity:1;stroke-miterlimit:4;" d="M 160.499764 42.999959 L 176.499821 37.49952 L 192.499878 32.999536 L 209.999585 28.499552 L 203.999951 44.999837 L 203.999951 60.999894 L 197.50009 76.999951 L 202.999495 85.000496 L 204.500179 100.99952 L 198.499512 117.499805 L 200.000195 123.500472 L 198.499512 139.499495 L 211.000041 155.499552 L 205.499601 171.499609 L 196.999862 187.999894 L 219.49978 198.000317 L 239.499593 200.000195 L 251.499894 216.000252 L 271.999935 232.499504 L 286.500342 248.499561 L 289.99987 277.000146 L 291.999748 286.999536 L 284.000236 286.500342 L 293.500431 286.500342 L 309.00026 282.000358 L 318.99965 285.499886 L 334.999707 285.499886 L 345.00013 280.999902 L 357.000431 271.000513 L 373.000488 259.000212 L 389.49974 243.000155 L 404.999569 230.999854 L 420.999626 219.49978 L 436.999683 209.999585 L 453.499967 182.00026 L 453.499967 152.500252 L 457.499723 162.499642 L 454.999618 178.499699 L 445.000228 194.499756 L 436.999683 209.999585 L 448.999984 221.499658 L 425.000415 237.499715 L 397.500285 253.499772 L 379.50035 268.000179 L 363.999487 274.500041 L 373.99991 284.999658 L 368.000277 293.000203 L 384.000334 290.500098 L 400.000391 293.999626 L 416.499642 287.499764 L 432.499699 281.50013 L 447.999528 273.499585 L 463.999585 261.999512 L 473.49978 238.500171 L 502.000366 236.500293 " transform="matrix(3.779528,0,0,3.779528,0,0)"/>
<path style="fill:none;stroke-width:2;stroke-linecap:butt;stroke-linejoin:miter;stroke:rgb(0%,0%,0%);stroke-opacity:1;stroke-miterlimit:4;" d="M 470.000252 243.999577 L 454.000195 264.000423 L 438.000138 271.999935 L 422.000081 282.000358 L 406.000024 286.000114 L 389.999967 286.000114 L 429.999593 259.999634 L 456.000073 243.999577 L 470.000252 227.99952 L 475.999886 212.000496 L 475.999886 195.500212 L 478.499992 169.999959 L 462.499935 141.999601 L 446.499878 118.000033 L 430.499821 98.00022 L 413.999536 82.000163 " transform="matrix(3.779528,0,0,3.779528,0,0)"/>
<path style="fill:none;stroke-width:2;stroke-linecap:butt;stroke-linejoin:miter;stroke:rgb(0%,0%,0%);stroke-opacity:1;stroke-miterlimit:4;" d="M 409.499552 93.500236 L 407.499674 109.500293 L 400.000391 125.50035 L 384.000334 141.999601 L 387.499862 150.000146 L 365.500171 166.000203 L 355.999976 180.000382 L 372.000033 173.499487 L 388.500317 165.499976 L 404.500374 159.500342 L 420.000203 149.499919 L 436.00026 141.500407 " transform="matrix(3.779528,0,0,3.779528,0,0)"/>
<path style="fill:none;stroke-width:2;stroke-linecap:butt;stroke-linejoin:miter;stroke:rgb(0%,0%,0%);stroke-opacity:1;stroke-miterlimit:4;" d="M 432.499699 128.49965 L 441.000472 144.499707 L 432.999927 160.499764 L 422.999504 176.499821 L 411.500464 191.99965 L 393.499495 197.50009 L 379.50035 212.999919 L 371.499805 221.000464 L 387.499862 205.000407 " transform="matrix(3.779528,0,0,3.779528,0,0)"/>
<path style="fill:none;stroke-width:2;stroke-linecap:butt;stroke-linejoin:miter;stroke:rgb(0%,0%,0%);stroke-opacity:1;stroke-miterlimit:4;" d="M 426.500065 221.000464 L 406.000024 237.499715 L 388.00009 253.499772 L 373.99991 277.999569 " transform="matrix(3.779528,0,0,3.779528,0,0)"/>
<path style="fill:none;stroke-width:2;stroke-linecap:butt;stroke-linejoin:miter;stroke:rgb(0%,0%,0%);stroke-opacity:1;stroke-miterlimit:4;" d="M 288.50022 255.999878 L 273.000391 238.500171 L 257.000334 226.49987 L 241.000277 206.500057 L 225.500448 196.499634 " transform="matrix(3.779528,0,0,3.779528,0,0)"/>
<path style="fill:none;stroke-width:2;stroke-linecap:butt;stroke-linejoin:miter;stroke:rgb(0%,0%,0%);stroke-opacity:1;stroke-miterlimit:4;" d="M 211.500269 199.499967 L 209.500391 203.499723 L 221.499658 219.49978 L 229.500203 220.000008 L 234.999609 210.499813 L 250.999666 232.499504 L 266.999723 246.99991 L 283.500008 264.999845 L 299.500065 268.999601 " transform="matrix(3.779528,0,0,3.779528,0,0)"/>
<path style="fill:none;stroke-width:2;stroke-linecap:butt;stroke-linejoin:miter;stroke:rgb(0%,0%,0%);stroke-opacity:1;stroke-miterlimit:4;" d="M 293.999626 239.999821 L 277.999569 223.999764 L 261.500317 209.500391 L 245.50026 195.500212 L 229.500203 183.49991 L 214.000374 177.000049 " transform="matrix(3.779528,0,0,3.779528,0,0)"/>
<path style="fill:none;stroke-width:2;stroke-linecap:butt;stroke-linejoin:miter;stroke:rgb(0%,0%,0%);stroke-opacity:1;stroke-miterlimit:4;" d="M 209.500391 178.000505 L 203.499723 193.999528 L 195.500212 209.999585 L 187.000472 225.999642 L 178.499699 241.500505 L 218.00013 257.999756 L 237.499715 273.999813 " transform="matrix(3.779528,0,0,3.779528,0,0)"/>
<path style="fill:none;stroke-width:2;stroke-linecap:butt;stroke-linejoin:miter;stroke:rgb(0%,0%,0%);stroke-opacity:1;stroke-miterlimit:4;" d="M 273.999813 262.999967 L 257.999756 245.000033 L 241.999699 229.500203 L 226.49987 223.000342 L 210.499813 202.999495 " transform="matrix(3.779528,0,0,3.779528,0,0)"/>
<path style="fill:none;stroke-width:2;stroke-linecap:butt;stroke-linejoin:miter;stroke:rgb(0%,0%,0%);stroke-opacity:1;stroke-miterlimit:4;" d="M 208.499935 198.499512 L 230.499626 198.499512 L 244.499805 214.499569 L 259.999634 230.499626 L 275.999691 246.499683 " transform="matrix(3.779528,0,0,3.779528,0,0)"/>
<path style="fill:none;stroke-width:2;stroke-linecap:butt;stroke-linejoin:miter;stroke:rgb(0%,0%,0%);stroke-opacity:1;stroke-miterlimit:4;" d="M 298.999837 245.50026 L 284.999658 229.500203 L 264.999845 213.500146 L 246.99991 197.50009 L 223.000342 181.500033 L 208.499935 191.500456 " transform="matrix(3.779528,0,0,3.779528,0,0)"/>
<path style="fill:none;stroke-width:2;stroke-linecap:butt;stroke-linejoin:miter;stroke:rgb(0%,0%,0%);stroke-opacity:1;stroke-miterlimit:4;" d="M 201.499845 207.999707 L 219.49978 223.999764 L 235.499837 246.499683 L 239.499593 248.499561 L 257.999756 264.999845 L 271.999935 280.999902 " transform="matrix(3.779528,0,0,3.779528,0,0)"/>
<path style="fill:none;stroke-width:2;stroke-linecap:butt;stroke-linejoin:miter;stroke:rgb(0%,0%,0%);stroke-opacity:1;stroke-miterlimit:4;" d="M 259.000212 259.500439 L 242.499927 248.000366 L 226.49987 237.999943 L 209.999585 232.000309 L 193.999528 230.000431 " transform="matrix(3.779528,0,0,3.779528,0,0)"/>
<path style="fill:none;stroke-width:2;stroke-linecap:butt;stroke-linejoin:miter;stroke:rgb(0%,0%,0%);stroke-opacity:1;stroke-miterlimit:4;" d="M 194.999984 217.499902 L 211.500269 221.499658 " transform="matrix(3.779528,0,0,3.779528,0,0)"/>
<path style="fill:none;stroke-width:2;stroke-linecap:butt;stroke-linejoin:miter;stroke:rgb(0%,0%,0%);stroke-opacity:1;stroke-miterlimit:4;" d="M 247.500138 225.999642 L 265.500073 242.499927 L 277.500374 259.000212 " transform="matrix(3.779528,0,0,3.779528,0,0)"/>
<path style="fill:none;stroke-width:2;stroke-linecap:butt;stroke-linejoin:miter;stroke:rgb(0%,0%,0%);stroke-opacity:1;stroke-miterlimit:4;" d="M 277.999569 184.000138 L 280.00048 178.000505 L 276.499919 162.000448 L 280.499674 146.000391 L 291.000326 136.500195 L 289.000448 120.500138 L 295.500309 100.000098 L 305.499699 87.999797 L 301.499943 85.999919 L 300.000293 69.999862 L 301.499943 53.999805 L 305.499699 37.999748 L 295.000081 46.000293 L 276.499919 38.499976 L 266.499495 44.499609 L 241.999699 86.500146 L 225.999642 108.499837 L 209.500391 132.500439 L 221.999886 122.500016 L 246.000488 90.499902 L 257.999756 58.499788 L 264.000423 42.499731 L 259.999634 50.000049 L 244.499805 91.999552 L 228.499748 114.000277 L 212.499691 134.00009 " transform="matrix(3.779528,0,0,3.779528,0,0)"/>
<path style="fill:none;stroke-width:2;stroke-linecap:butt;stroke-linejoin:miter;stroke:rgb(0%,0%,0%);stroke-opacity:1;stroke-miterlimit:4;" d="M 216.999674 105.999731 L 194.999984 98.00022 L 189.00035 80.000285 L 194.999984 64.000228 L 196.999862 48.000171 L 194.999984 39.999626 " transform="matrix(3.779528,0,0,3.779528,0,0)"/>
<path style="fill:none;stroke-width:2;stroke-linecap:butt;stroke-linejoin:miter;stroke:rgb(0%,0%,0%);stroke-opacity:1;stroke-miterlimit:4;" d="M 180.999805 42.999959 L 182.500488 59.000016 L 178.999927 75.000073 L 176.499821 91.00013 L 180.499577 106.499959 L 175.999593 122.500016 L 194.499756 138.500073 L 202.999495 153.999902 L 213.500146 173.999715 L 235.499837 181.500033 L 255.49965 198.000317 L 275.500496 214.000374 L 293.500431 230.000431 L 302.999593 246.000488 L 294.499854 261.500317 L 280.00048 277.999569 L 269.499829 293.999626 L 261.500317 310.49991 L 262.999967 339.000496 L 256.500106 354.99952 L 264.499618 370.999577 L 268.500407 386.500439 L 279.000024 386.500439 L 277.500374 404.500374 L 293.500431 402.500496 L 297.500187 418.49952 L 304.000049 434.499577 L 311.999561 450.499634 L 318.000228 466.499691 L 329.999495 482.999976 L 350.000342 499.000033 L 357.999854 482.499748 L 368.500505 495.999699 L 384.499528 491.999943 L 393.000301 489.499837 " transform="matrix(3.779528,0,0,3.779528,0,0)"/>
<path style="fill:none;stroke-width:2;stroke-linecap:butt;stroke-linejoin:miter;stroke:rgb(0%,0%,0%);stroke-opacity:1;stroke-miterlimit:4;" d="M 272.500163 393.000301 L 256.500106 396.499829 L 239.999821 406.500252 L 254 396.499829 " transform="matrix(3.779528,0,0,3.779528,0,0)"/>
<path style="fill:none;stroke-width:2;stroke-linecap:butt;stroke-linejoin:miter;stroke:rgb(0%,0%,0%);stroke-opacity:1;stroke-miterlimit:4;" d="M 221.499658 330.999951 L 231.500081 347.000008 L 251.499894 350.000342 L 263.500195 352.500448 L 279.500252 348.499658 L 281.50013 359.000309 L 298.000415 354.500326 L 314.000472 356.500203 L 327.999618 354.000098 L 343.50048 357.999854 L 359.999731 355.999976 L 361.999609 361.999609 L 378.499894 359.499504 L 394.499951 363.999487 L 411.000236 363.999487 L 427.000293 366.000399 " transform="matrix(3.779528,0,0,3.779528,0,0)"/>
<path style="fill:none;stroke-width:2;stroke-linecap:butt;stroke-linejoin:miter;stroke:rgb(0%,0%,0%);stroke-opacity:1;stroke-miterlimit:4;" d="M 447.500334 325.99974 L 463.500391 310.49991 L 463.999585 323.999862 L 450.000439 339.999919 L 437.49991 347.500236 L 435.500033 353.49987 L 463.999585 337.499813 L 457.499723 345.500358 L 439.499788 368.999699 L 422.999504 371.499805 L 407.00048 375.499561 L 393.499495 379.50035 L 381.500228 381.500228 L 375.499561 370.000155 L 375.000366 364.499715 L 367.500049 380.499772 L 347.500236 384.499528 L 331.500179 382.49965 L 318.000228 388.500317 L 302.000171 396.499829 L 286.000114 394.499951 L 295.999504 390.500195 L 280.00048 395.999601 L 261.999512 391.999845 L 246.000488 397.500285 L 230.000431 403.499919 L 227.99952 409.499552 L 239.999821 399.500163 L 265.500073 383.500106 L 261.999512 366.999821 L 250.000244 339.000496 L 254 313.000016 L 255.49965 288.50022 L 231.500081 274.500041 L 220.000008 264.999845 L 203.999951 259.000212 L 193.999528 257.000334 L 157.999658 234.999609 L 131.499984 218.999552 L 109.500293 202.999495 L 89.50048 187.499666 L 73.500423 171.499609 L 66.000106 155.99978 L 75.999495 152.500252 L 66.000106 140.499951 L 50.000049 158.499886 " transform="matrix(3.779528,0,0,3.779528,0,0)"/>
<path style="fill:none;stroke-width:2;stroke-linecap:butt;stroke-linejoin:miter;stroke:rgb(0%,0%,0%);stroke-opacity:1;stroke-miterlimit:4;" d="M 53.999805 158.499886 L 69.999862 164.999748 L 85.499691 162.99987 L 115.499927 173.000293 L 132.000212 188.500122 L 152.000024 207.999707 L 167.499854 216.000252 L 182.999683 216.000252 L 200.999618 207.999707 L 217.499902 221.999886 L 235.499837 216.000252 L 235.499837 212.000496 L 239.499593 228.499748 L 255.999878 244.499805 L 270.000057 260.499862 " transform="matrix(3.779528,0,0,3.779528,0,0)"/>
<path style="fill:none;stroke-width:2;stroke-linecap:butt;stroke-linejoin:miter;stroke:rgb(0%,0%,0%);stroke-opacity:1;stroke-miterlimit:4;" d="M 279.000024 203.499723 L 262.999967 189.499544 L 247.500138 175.500399 L 231.500081 167.499854 L 225.999642 160.999992 L 208.499935 160.999992 L 198.499512 155.000358 L 182.500488 148.999691 L 166.500431 143.500285 L 150.500374 131.499984 L 134.500317 113.500049 " transform="matrix(3.779528,0,0,3.779528,0,0)"/>
<path style="fill:none;stroke-width:2;stroke-linecap:butt;stroke-linejoin:miter;stroke:rgb(0%,0%,0%);stroke-opacity:1;stroke-miterlimit:4;" d="M 141.999601 119.000488 L 157.999658 130.499528 L 174.499943 144.000513 L 190.5 148.000269 " transform="matrix(3.779528,0,0,3.779528,0,0)"/>
<path style="fill:none;stroke-width:2;stroke-linecap:butt;stroke-linejoin:miter;stroke:rgb(0%,0%,0%);stroke-opacity:1;stroke-miterlimit:4;" d="M 188.500122 121.999788 L 186.500244 114.000277 L 190.5 98.00022 L 184.500366 82.000163 L 189.999772 60.000472 L 189.999772 43.500187 L 180.000382 41.500309 " transform="matrix(3.779528,0,0,3.779528,0,0)"/>
<path style="fill:none;stroke-width:2;stroke-linecap:butt;stroke-linejoin:miter;stroke:rgb(0%,0%,0%);stroke-opacity:1;stroke-miterlimit:4;" d="M 169.499731 51.999927 L 161.50022 50.000049 L 151.499797 54.500033 L 132.000212 70.50009 L 105.999731 80.500513 L 86.500146 96.499536 L 74.499845 112.499593 L 84.500269 119.99991 L 88.500024 121.999788 L 82.000163 137.499618 L 79.500057 153.499674 L 98.00022 169.499731 L 116.000155 186.000016 L 137.999845 204.500179 " transform="matrix(3.779528,0,0,3.779528,0,0)"/>
<path style="fill:none;stroke-width:2;stroke-linecap:butt;stroke-linejoin:miter;stroke:rgb(0%,0%,0%);stroke-opacity:1;stroke-miterlimit:4;" d="M 162.000448 197.50009 L 145.500163 193.500334 L 129.500106 191.500456 L 113.500049 183.49991 L 97.499992 165.499976 " transform="matrix(3.779528,0,0,3.779528,0,0)"/>
<path style="fill:none;stroke-width:2;stroke-linecap:butt;stroke-linejoin:miter;stroke:rgb(0%,0%,0%);stroke-opacity:1;stroke-miterlimit:4;" d="M 94.000464 171.999837 L 109.999487 187.999894 L 125.999544 196.000439 L 142.499829 209.999585 L 158.499886 216.50048 L 174.499943 221.999886 L 198.499512 202.500301 L 214.999797 174.499943 L 230.499626 178.999927 L 246.499683 190.5 L 262.49974 204.500179 L 278.499797 216.50048 L 294.499854 230.499626 " transform="matrix(3.779528,0,0,3.779528,0,0)"/>
<path style="fill:none;stroke-width:2;stroke-linecap:butt;stroke-linejoin:miter;stroke:rgb(0%,0%,0%);stroke-opacity:1;stroke-miterlimit:4;" d="M 275.999691 273.499585 L 259.999634 252.999544 L 244.499805 243.000155 L 228.499748 232.999731 L 212.000496 227.500326 L 196.000439 225.500448 L 168.000081 237.999943 L 151.499797 232.000309 L 135.999967 221.999886 L 119.99991 209.999585 L 103.999854 198.000317 L 87.999797 186.000016 L 71.99974 168.000081 " transform="matrix(3.779528,0,0,3.779528,0,0)"/>
<path style="fill:none;stroke-width:2;stroke-linecap:butt;stroke-linejoin:miter;stroke:rgb(0%,0%,0%);stroke-opacity:1;stroke-miterlimit:4;" d="M 63.5 144.000513 L 75.500301 155.99978 L 91.500358 171.999837 L 109.500293 187.999894 L 129.500106 203.499723 L 164.000326 218.999552 L 175.999593 231.500081 L 184.500366 227.500326 L 194.499756 247.500138 L 210.499813 250.000244 L 225.999642 264.000423 L 241.999699 275.999691 L 258.499984 284.000236 L 272.500163 289.99987 L 300.999715 289.499642 L 308.500033 289.499642 L 324.50009 293.500431 L 334.500513 301.499943 L 350.499536 300.999715 L 366.000399 302.999593 L 382.49965 296.999959 L 394.499951 280.999902 L 408.50013 277.500374 L 424.500187 273.499585 L 441.000472 266.000301 L 452.99974 255.999878 L 468.999797 238.500171 L 472.999552 240.500049 L 465.000041 257.000334 L 438.999561 273.000391 " transform="matrix(3.779528,0,0,3.779528,0,0)"/>
<path style="fill:none;stroke-width:2;stroke-linecap:butt;stroke-linejoin:miter;stroke:rgb(0%,0%,0%);stroke-opacity:1;stroke-miterlimit:4;" d="M 474.000008 279.500252 L 454.000195 295.500309 L 432.000505 311.500366 L 398.000513 327.500423 L 386.000212 352.00022 L 393.999723 363.999487 L 415.50022 377.999666 L 409.499552 383.500106 L 425.499609 391.499618 L 445.000228 379.999544 L 461.000285 361.999609 L 477.000342 332.000407 " transform="matrix(3.779528,0,0,3.779528,0,0)"/>
<path style="fill:none;stroke-width:2;stroke-linecap:butt;stroke-linejoin:miter;stroke:rgb(0%,0%,0%);stroke-opacity:1;stroke-miterlimit:4;" d="M 467.500146 300.000293 L 449.500212 316.00035 L 454.000195 332.000407 L 438.000138 348.000464 L 420.000203 352.500448 L 402.000269 358.500081 L 422.000081 352.500448 L 438.500366 343.999674 " transform="matrix(3.779528,0,0,3.779528,0,0)"/>
<path style="fill:none;stroke-width:2;stroke-linecap:butt;stroke-linejoin:miter;stroke:rgb(0%,0%,0%);stroke-opacity:1;stroke-miterlimit:4;" d="M 479.999642 161.50022 L 463.999585 133.499862 L 447.500334 111.500171 L 431.000049 91.00013 L 415.50022 75.500301 L 399.500163 69.499634 L 395.999601 63.5 L 380.499772 55.500488 L 364.999943 46.000293 L 348.499658 26.499674 L 336.000163 42.999959 L 319.499878 30.999658 L 303.499821 27.50013 L 287.499764 23.500374 " transform="matrix(3.779528,0,0,3.779528,0,0)"/>
<path style="fill:none;stroke-width:2;stroke-linecap:butt;stroke-linejoin:miter;stroke:rgb(0%,0%,0%);stroke-opacity:1;stroke-miterlimit:4;" d="M 302.999593 26.00048 L 335.499935 41.999504 L 352.999642 45.500065 L 341.499569 53.499577 L 337.499813 69.499634 L 350.000342 71.499512 L 354.000098 75.500301 L 350.499536 103.999854 L 334.500513 119.99991 L 320.999528 142.499829 L 323.000439 158.499886 L 325.000317 174.499943 L 320.999528 190.5 " transform="matrix(3.779528,0,0,3.779528,0,0)"/>
<path style="fill:none;stroke-width:2;stroke-linecap:butt;stroke-linejoin:miter;stroke:rgb(0%,0%,0%);stroke-opacity:1;stroke-miterlimit:4;" d="M 299.500065 188.500122 L 299.500065 186.500244 L 291.49952 182.999683 L 291.999748 166.999626 L 287.999992 150.500374 " transform="matrix(3.779528,0,0,3.779528,0,0)"/>
<path style="fill:none;stroke-width:2;stroke-linecap:butt;stroke-linejoin:miter;stroke:rgb(0%,0%,0%);stroke-opacity:1;stroke-miterlimit:4;" d="M 266.999723 152.500252 L 264.999845 168.500309 " transform="matrix(3.779528,0,0,3.779528,0,0)"/>
<path style="fill:none;stroke-width:2;stroke-linecap:butt;stroke-linejoin:miter;stroke:rgb(0%,0%,0%);stroke-opacity:1;stroke-miterlimit:4;" d="M 266.499495 105.000309 L 240.500049 109.000065 L 232.499504 132.999634 L 227.000098 144.499707 L 227.000098 128.49965 L 230.499626 121.999788 L 218.500358 113.500049 L 216.999674 97.499992 L 215.500024 80.999707 L 221.499658 64.500456 L 223.999764 48.999593 L 214.000374 51.000505 " transform="matrix(3.779528,0,0,3.779528,0,0)"/>
<path style="fill:none;stroke-width:2;stroke-linecap:butt;stroke-linejoin:miter;stroke:rgb(0%,0%,0%);stroke-opacity:1;stroke-miterlimit:4;" d="M 214.999797 57.999561 L 236.999487 33.999992 L 235.499837 50.500277 L 231.500081 50.500277 L 232.000309 66.999528 L 237.999943 82.999585 " transform="matrix(3.779528,0,0,3.779528,0,0)"/>
<path style="fill:none;stroke-width:2;stroke-linecap:butt;stroke-linejoin:miter;stroke:rgb(0%,0%,0%);stroke-opacity:1;stroke-miterlimit:4;" d="M 224.499992 73.500423 L 220.000008 89.50048 L 223.999764 105.499504 L 237.999943 123.000244 L 248.000366 134.999512 L 248.499561 150.500374 L 262.49974 156.500008 L 248.000366 170.500187 L 266.000301 186.500244 L 282.000358 202.500301 L 287.999992 212.499691 " transform="matrix(3.779528,0,0,3.779528,0,0)"/>
<path style="fill:none;stroke-width:2;stroke-linecap:butt;stroke-linejoin:miter;stroke:rgb(0%,0%,0%);stroke-opacity:1;stroke-miterlimit:4;" d="M 316.999772 130.499528 L 332.999829 114.500505 L 348.999886 96.000342 L 364.999943 75.999495 L 370.999577 73.999618 L 362.499837 89.999674 L 359.999731 105.999731 L 371.499805 108.499837 L 387.499862 90.499902 L 384.999756 106.499959 L 379.000122 122.500016 " transform="matrix(3.779528,0,0,3.779528,0,0)"/>
<path style="fill:none;stroke-width:2;stroke-linecap:butt;stroke-linejoin:miter;stroke:rgb(0%,0%,0%);stroke-opacity:1;stroke-miterlimit:4;" d="M 393.000301 143.500285 L 377.000244 149.499919 " transform="matrix(3.779528,0,0,3.779528,0,0)"/>
<path style="fill:none;stroke-width:2;stroke-linecap:butt;stroke-linejoin:miter;stroke:rgb(0%,0%,0%);stroke-opacity:1;stroke-miterlimit:4;" d="M 377.999666 103.000431 L 355.999976 144.999935 L 339.999919 157.500464 L 328.499845 175.500399 L 338.500269 159.999536 L 358.500081 144.499707 L 368.000277 122.500016 L 373.99991 106.499959 L 379.50035 90.499902 L 379.000122 74.499845 L 376.500016 73.000195 L 360.499959 91.00013 " transform="matrix(3.779528,0,0,3.779528,0,0)"/>
<path style="fill:none;stroke-width:2;stroke-linecap:butt;stroke-linejoin:miter;stroke:rgb(0%,0%,0%);stroke-opacity:1;stroke-miterlimit:4;" d="M 357.000431 117.499805 L 357.000431 101.499748 L 345.00013 109.500293 L 329.000073 123.500472 " transform="matrix(3.779528,0,0,3.779528,0,0)"/>
<path style="fill:none;stroke-width:2;stroke-linecap:butt;stroke-linejoin:miter;stroke:rgb(0%,0%,0%);stroke-opacity:1;stroke-miterlimit:4;" d="M 295.500309 107.000187 L 298.000415 96.999764 L 295.999504 80.999707 " transform="matrix(3.779528,0,0,3.779528,0,0)"/>
<path style="fill:none;stroke-width:2;stroke-linecap:butt;stroke-linejoin:miter;stroke:rgb(0%,0%,0%);stroke-opacity:1;stroke-miterlimit:4;" d="M 293.000203 78.499601 L 294.499854 94.499658 L 284.500464 100.000098 L 284.500464 116.000155 L 298.000415 130.499528 L 314.000472 106.499959 " transform="matrix(3.779528,0,0,3.779528,0,0)"/>
<path style="fill:none;stroke-width:2;stroke-linecap:butt;stroke-linejoin:miter;stroke:rgb(0%,0%,0%);stroke-opacity:1;stroke-miterlimit:4;" d="M 270.500285 99.49987 L 276.499919 115.499927 L 277.500374 131.499984 L 273.999813 147.500041 L 270.000057 163.500098 " transform="matrix(3.779528,0,0,3.779528,0,0)"/>
<path style="fill:none;stroke-width:2;stroke-linecap:butt;stroke-linejoin:miter;stroke:rgb(0%,0%,0%);stroke-opacity:1;stroke-miterlimit:4;" d="M 227.000098 153.999902 L 211.000041 144.000513 L 194.999984 138.500073 L 184.999561 136.500195 L 164.999748 126.499772 L 170.500187 116.000155 L 164.49952 114.000277 L 159.999536 98.00022 L 171.999837 91.500358 L 173.499487 75.500301 L 167.499854 69.499634 L 171.000415 57.500366 L 168.500309 53.499577 L 164.49952 59.500244 " transform="matrix(3.779528,0,0,3.779528,0,0)"/>
<path style="fill:none;stroke-width:2;stroke-linecap:butt;stroke-linejoin:miter;stroke:rgb(0%,0%,0%);stroke-opacity:1;stroke-miterlimit:4;" d="M 135.999967 64.000228 L 152.000024 53.999805 L 148.500496 67.999984 L 138.500073 73.999618 L 126.499772 89.999674 L 132.500439 92.49978 L 124.499894 107.999609 L 136.500195 109.999487 L 146.000391 125.50035 L 169.999959 141.500407 " transform="matrix(3.779528,0,0,3.779528,0,0)"/>
<path style="fill:none;stroke-width:2;stroke-linecap:butt;stroke-linejoin:miter;stroke:rgb(0%,0%,0%);stroke-opacity:1;stroke-miterlimit:4;" d="M 187.999894 137.999845 L 168.500309 121.999788 L 152.500252 101.499748 " transform="matrix(3.779528,0,0,3.779528,0,0)"/>
<path style="fill:none;stroke-width:2;stroke-linecap:butt;stroke-linejoin:miter;stroke:rgb(0%,0%,0%);stroke-opacity:1;stroke-miterlimit:4;" d="M 146.999813 96.499536 L 148.500496 86.500146 L 160.499764 87.999797 L 162.99987 103.499626 L 173.499487 103.499626 L 171.999837 111.500171 L 182.00026 123.500472 L 198.000317 131.499984 " transform="matrix(3.779528,0,0,3.779528,0,0)"/>
<path style="fill:none;stroke-width:2;stroke-linecap:butt;stroke-linejoin:miter;stroke:rgb(0%,0%,0%);stroke-opacity:1;stroke-miterlimit:4;" d="M 190.5 162.99987 L 175.000171 157.500464 L 159.000114 145.500163 L 142.499829 137.499618 L 126.499772 125.50035 " transform="matrix(3.779528,0,0,3.779528,0,0)"/>
<path style="fill:none;stroke-width:2;stroke-linecap:butt;stroke-linejoin:miter;stroke:rgb(0%,0%,0%);stroke-opacity:1;stroke-miterlimit:4;" d="M 110.499715 115.499927 L 138.500073 135.49974 L 144.499707 139.499495 L 144.499707 155.99978 L 168.000081 166.500431 L 189.499544 172.500065 L 189.499544 178.499699 " transform="matrix(3.779528,0,0,3.779528,0,0)"/>
<path style="fill:none;stroke-width:2;stroke-linecap:butt;stroke-linejoin:miter;stroke:rgb(0%,0%,0%);stroke-opacity:1;stroke-miterlimit:4;" d="M 168.000081 180.499577 L 162.000448 178.499699 L 146.000391 169.999959 " transform="matrix(3.779528,0,0,3.779528,0,0)"/>
<path style="fill:none;stroke-width:2;stroke-linecap:butt;stroke-linejoin:miter;stroke:rgb(0%,0%,0%);stroke-opacity:1;stroke-miterlimit:4;" d="M 153.00048 172.500065 L 175.000171 187.999894 L 191.000228 203.999951 L 200.999618 211.500269 L 222.500114 231.500081 L 250.000244 247.500138 L 264.000423 263.500195 L 281.50013 275.500496 L 297.500187 257.499528 " transform="matrix(3.779528,0,0,3.779528,0,0)"/>
<path style="fill:none;stroke-width:2;stroke-linecap:butt;stroke-linejoin:miter;stroke:rgb(0%,0%,0%);stroke-opacity:1;stroke-miterlimit:4;" d="M 178.000505 172.500065 L 161.50022 164.000326 L 145.500163 164.000326 L 129.500106 166.000203 L 113.500049 161.50022 L 98.00022 153.499674 " transform="matrix(3.779528,0,0,3.779528,0,0)"/>
<path style="fill:none;stroke-width:2;stroke-linecap:butt;stroke-linejoin:miter;stroke:rgb(0%,0%,0%);stroke-opacity:1;stroke-miterlimit:4;" d="M 96.000342 150.000146 L 112.000399 155.99978 L 128.49965 157.500464 L 144.499707 159.999536 L 160.999992 153.999902 L 177.000049 164.000326 L 193.000106 170.500187 " transform="matrix(3.779528,0,0,3.779528,0,0)"/>
<path style="fill:none;stroke-width:2;stroke-linecap:butt;stroke-linejoin:miter;stroke:rgb(0%,0%,0%);stroke-opacity:1;stroke-miterlimit:4;" d="M 157.500464 110.499715 L 153.499674 94.499658 L 139.499495 86.500146 L 121.499561 93.000008 " transform="matrix(3.779528,0,0,3.779528,0,0)"/>
<path style="fill:none;stroke-width:2;stroke-linecap:butt;stroke-linejoin:miter;stroke:rgb(0%,0%,0%);stroke-opacity:1;stroke-miterlimit:4;" d="M 97.499992 85.499691 L 113.500049 73.500423 L 117.499805 83.499813 L 107.500415 85.499691 L 107.999609 101.499748 L 112.000399 103.499626 L 116.000155 119.499683 L 127.500228 134.999512 L 132.999634 150.999569 L 141.500407 175.000171 L 148.000269 191.000228 L 149.499919 199.499967 L 165.499976 205.499601 " transform="matrix(3.779528,0,0,3.779528,0,0)"/>
<path style="fill:none;stroke-width:2;stroke-linecap:butt;stroke-linejoin:miter;stroke:rgb(0%,0%,0%);stroke-opacity:1;stroke-miterlimit:4;" d="M 118.000033 144.000513 L 110.499715 128.000456 L 98.500448 111.500171 " transform="matrix(3.779528,0,0,3.779528,0,0)"/>
<path style="fill:none;stroke-width:2;stroke-linecap:butt;stroke-linejoin:miter;stroke:rgb(0%,0%,0%);stroke-opacity:1;stroke-miterlimit:4;" d="M 97.499992 108.499837 L 95.500114 100.500326 L 101.499748 121.000366 L 95.500114 137.000423 L 89.000252 144.999935 L 92.49978 160.499764 L 96.499536 162.99987 L 136.500195 170.500187 L 146.499585 178.499699 L 154.50013 194.999984 " transform="matrix(3.779528,0,0,3.779528,0,0)"/>
<path style="fill:none;stroke-width:2;stroke-linecap:butt;stroke-linejoin:miter;stroke:rgb(0%,0%,0%);stroke-opacity:1;stroke-miterlimit:4;" d="M 182.00026 189.999772 L 165.499976 184.000138 L 149.499919 175.999593 L 134.00009 172.500065 L 128.000456 184.500366 L 112.000399 166.000203 L 96.000342 157.500464 " transform="matrix(3.779528,0,0,3.779528,0,0)"/>
<path style="fill:none;stroke-width:2;stroke-linecap:butt;stroke-linejoin:miter;stroke:rgb(0%,0%,0%);stroke-opacity:1;stroke-miterlimit:4;" d="M 93.500236 143.000057 L 109.500293 150.500374 L 125.50035 155.000358 L 143.500285 150.999569 " transform="matrix(3.779528,0,0,3.779528,0,0)"/>
<path style="fill:none;stroke-width:2;stroke-linecap:butt;stroke-linejoin:miter;stroke:rgb(0%,0%,0%);stroke-opacity:1;stroke-miterlimit:4;" d="M 103.000431 125.999544 L 87.000374 121.999788 " transform="matrix(3.779528,0,0,3.779528,0,0)"/>
<path style="fill:none;stroke-width:2;stroke-linecap:butt;stroke-linejoin:miter;stroke:rgb(0%,0%,0%);stroke-opacity:1;stroke-miterlimit:4;" d="M 101.499748 123.500472 L 109.500293 139.499495 " transform="matrix(3.779528,0,0,3.779528,0,0)"/>
<path style="fill:none;stroke-width:2;stroke-linecap:butt;stroke-linejoin:miter;stroke:rgb(0%,0%,0%);stroke-opacity:1;stroke-miterlimit:4;" d="M 150.999569 148.500496 L 134.500317 139.000301 L 126.499772 144.999935 L 118.000033 129.500106 L 107.500415 112.999821 L 100.99952 105.000309 L 100.99952 89.000252 L 78.499601 104.500081 L 62.00035 127 " transform="matrix(3.779528,0,0,3.779528,0,0)"/>
<path style="fill:none;stroke-width:2;stroke-linecap:butt;stroke-linejoin:miter;stroke:rgb(0%,0%,0%);stroke-opacity:1;stroke-miterlimit:4;" d="M 72.499967 114.999699 L 62.499544 131.499984 L 75.999495 131.499984 L 60.000472 143.500285 L 57.999561 159.999536 L 48.000171 168.000081 L 57.500366 171.999837 L 69.499634 187.499666 L 77.500179 203.499723 L 96.999764 219.49978 " transform="matrix(3.779528,0,0,3.779528,0,0)"/>
<path style="fill:none;stroke-width:2;stroke-linecap:butt;stroke-linejoin:miter;stroke:rgb(0%,0%,0%);stroke-opacity:1;stroke-miterlimit:4;" d="M 50.000049 223.000342 L 66.000106 239.000399 L 82.500391 248.999788 L 98.00022 264.999845 L 114.000277 275.000269 " transform="matrix(3.779528,0,0,3.779528,0,0)"/>
<path style="fill:none;stroke-width:2;stroke-linecap:butt;stroke-linejoin:miter;stroke:rgb(0%,0%,0%);stroke-opacity:1;stroke-miterlimit:4;" d="M 155.99978 284.500464 L 139.999723 280.499674 L 123.500472 278.499797 L 107.500415 278.499797 L 91.500358 270.500285 L 75.000073 260.499862 L 58.499788 240.500049 L 42.499731 225.00022 " transform="matrix(3.779528,0,0,3.779528,0,0)"/>
<path style="fill:none;stroke-width:2;stroke-linecap:butt;stroke-linejoin:miter;stroke:rgb(0%,0%,0%);stroke-opacity:1;stroke-miterlimit:4;" d="M 39.999626 227.500326 L 55.999683 243.500382 L 67.999984 259.000212 L 87.999797 275.000269 L 118.50026 291.49952 " transform="matrix(3.779528,0,0,3.779528,0,0)"/>
<path style="fill:none;stroke-width:2;stroke-linecap:butt;stroke-linejoin:miter;stroke:rgb(0%,0%,0%);stroke-opacity:1;stroke-miterlimit:4;" d="M 222.500114 275.999691 L 206.500057 277.500374 L 190.5 277.500374 L 174.499943 275.500496 L 157.999658 271.000513 L 141.500407 264.999845 L 125.50035 261.500317 L 109.500293 253.499772 L 94.000464 251.499894 L 78.000407 239.499593 L 62.00035 227.99952 L 46.000293 210.499813 " transform="matrix(3.779528,0,0,3.779528,0,0)"/>
<path style="fill:none;stroke-width:2;stroke-linecap:butt;stroke-linejoin:miter;stroke:rgb(0%,0%,0%);stroke-opacity:1;stroke-miterlimit:4;" d="M 47.499943 200.999618 L 51.499699 216.999674 L 67.499756 232.999731 L 91.500358 249.500016 L 127.500228 267.499951 " transform="matrix(3.779528,0,0,3.779528,0,0)"/>
<path style="fill:none;stroke-width:2;stroke-linecap:butt;stroke-linejoin:miter;stroke:rgb(0%,0%,0%);stroke-opacity:1;stroke-miterlimit:4;" d="M 62.999772 199.499967 L 46.999715 175.999593 " transform="matrix(3.779528,0,0,3.779528,0,0)"/>
<path style="fill:none;stroke-width:2;stroke-linecap:butt;stroke-linejoin:miter;stroke:rgb(0%,0%,0%);stroke-opacity:1;stroke-miterlimit:4;" d="M 39.000203 169.499731 L 39.000203 185.499788 L 40.499854 202.000073 L 42.499731 218.00013 L 46.499487 234.000187 L 52.500155 250.000244 L 66.000106 266.000301 L 82.000163 282.499552 L 109.999487 298.499609 L 130.000334 296.999959 L 146.000391 305.000505 L 162.000448 307.000382 L 178.499699 309.00026 L 194.499756 312.499788 L 211.000041 314.499666 L 227.000098 320.000106 L 243.000155 320.000106 L 246.99991 325.499512 L 260.499862 327.500423 L 292.499976 335.499935 L 341.000374 335.499935 L 356.500203 334.999707 L 372.000033 337.499813 L 388.00009 335.499935 L 404.500374 338.000041 L 420.500431 340.500146 L 436.00026 339.000496 L 451.50009 334.999707 " transform="matrix(3.779528,0,0,3.779528,0,0)"/>
<path style="fill:none;stroke-width:2;stroke-linecap:butt;stroke-linejoin:miter;stroke:rgb(0%,0%,0%);stroke-opacity:1;stroke-miterlimit:4;" d="M 333.500057 280.00048 L 317.5 282.000358 L 315.500122 271.999935 L 337.499813 255.999878 L 355.499748 239.999821 L 381.500228 223.999764 L 397.500285 207.999707 L 404.999569 191.99965 L 416.99987 175.999593 L 426.500065 159.999536 L 422.999504 153.999902 L 402.500496 169.999959 L 386.999634 180.499577 L 370.999577 188.500122 L 355.499748 204.500179 L 339.999919 209.999585 L 323.999862 221.999886 L 308.500033 246.000488 L 290.500098 249.500016 L 274.500041 231.500081 L 259.000212 219.49978 L 243.000155 199.499967 L 226.49987 189.499544 L 210.499813 187.499666 L 192.499878 189.499544 L 176.499821 181.500033 L 193.999528 168.000081 L 164.000326 152.500252 L 157.999658 138.500073 L 137.999845 122.500016 L 141.999601 114.500505 L 139.999723 98.00022 L 157.999658 87.999797 L 155.499552 71.99974 L 155.499552 55.500488 L 141.500407 51.499699 L 125.999544 59.500244 L 109.999487 69.000439 L 94.499658 81.499935 L 78.499601 95.500114 L 62.499544 119.99991 L 46.499487 154.50013 " transform="matrix(3.779528,0,0,3.779528,0,0)"/>
<path style="fill:none;stroke-width:2;stroke-linecap:butt;stroke-linejoin:miter;stroke:rgb(0%,0%,0%);stroke-opacity:1;stroke-miterlimit:4;" d="M 19.000391 162.499642 L 3.499528 168.500309 " transform="matrix(3.779528,0,0,3.779528,0,0)"/>
<path style="fill:none;stroke-width:2;stroke-linecap:butt;stroke-linejoin:miter;stroke:rgb(0%,0%,0%);stroke-opacity:1;stroke-miterlimit:4;" d="M 3.000334 175.000171 L 19.000391 168.999504 L 35.000448 166.999626 L 50.500277 126.499772 L 66.000106 98.00022 L 82.000163 80.000285 L 98.00022 65.499878 L 114.000277 53.999805 L 130.000334 46.000293 L 146.000391 39.999626 L 162.000448 34.50022 L 178.000505 28.499552 L 193.999528 23.999569 L 209.999585 21.999691 L 223.999764 33.499764 L 226.49987 39.000203 " transform="matrix(3.779528,0,0,3.779528,0,0)"/>
<path style="fill:none;stroke-width:2;stroke-linecap:butt;stroke-linejoin:miter;stroke:rgb(0%,0%,0%);stroke-opacity:1;stroke-miterlimit:4;" d="M 227.000098 48.500399 L 227.000098 64.500456 L 228.999976 80.000285 " transform="matrix(3.779528,0,0,3.779528,0,0)"/>
<path style="fill:none;stroke-width:2;stroke-linecap:butt;stroke-linejoin:miter;stroke:rgb(0%,0%,0%);stroke-opacity:1;stroke-miterlimit:4;" d="M 207.500513 86.500146 L 209.500391 102.500203 " transform="matrix(3.779528,0,0,3.779528,0,0)"/>
<path style="fill:none;stroke-width:2;stroke-linecap:butt;stroke-linejoin:miter;stroke:rgb(0%,0%,0%);stroke-opacity:1;stroke-miterlimit:4;" d="M 241.500505 109.000065 L 241.500505 125.000122 L 243.500382 141.500407 L 245.50026 157.500464 " transform="matrix(3.779528,0,0,3.779528,0,0)"/>
<path style="fill:none;stroke-width:2;stroke-linecap:butt;stroke-linejoin:miter;stroke:rgb(0%,0%,0%);stroke-opacity:1;stroke-miterlimit:4;" d="M 239.499593 54.500033 L 241.500505 37.999748 L 247.500138 37.999748 L 247.500138 30.500464 " transform="matrix(3.779528,0,0,3.779528,0,0)"/>
<path style="fill:none;stroke-width:2;stroke-linecap:butt;stroke-linejoin:miter;stroke:rgb(0%,0%,0%);stroke-opacity:1;stroke-miterlimit:4;" d="M 265.500073 44.499609 L 267.499951 60.499666 " transform="matrix(3.779528,0,0,3.779528,0,0)"/>
<path style="fill:none;stroke-width:2;stroke-linecap:butt;stroke-linejoin:miter;stroke:rgb(0%,0%,0%);stroke-opacity:1;stroke-miterlimit:4;" d="M 261.999512 69.999862 L 273.499585 69.999862 L 266.999723 64.000228 L 268.500407 69.999862 L 293.999626 68.500212 L 295.500309 52.500155 L 287.499764 51.000505 L 283.500008 48.999593 L 285.499886 33.499764 L 301.499943 33.499764 L 299.500065 37.49952 " transform="matrix(3.779528,0,0,3.779528,0,0)"/>
<path style="fill:none;stroke-width:2;stroke-linecap:butt;stroke-linejoin:miter;stroke:rgb(0%,0%,0%);stroke-opacity:1;stroke-miterlimit:4;" d="M 309.999683 33.499764 L 305.999927 49.499821 L 305.999927 66.000106 L 318.000228 75.999495 L 316.00035 91.500358 L 308.500033 107.500415 L 295.999504 123.500472 L 311.999561 99.49987 " transform="matrix(3.779528,0,0,3.779528,0,0)"/>
<path style="fill:none;stroke-width:2;stroke-linecap:butt;stroke-linejoin:miter;stroke:rgb(0%,0%,0%);stroke-opacity:1;stroke-miterlimit:4;" d="M 343.999674 82.000163 L 345.999552 66.000106 " transform="matrix(3.779528,0,0,3.779528,0,0)"/>
<path style="fill:none;stroke-width:2;stroke-linecap:butt;stroke-linejoin:miter;stroke:rgb(0%,0%,0%);stroke-opacity:1;stroke-miterlimit:4;" d="M 351.499992 58.499788 L 359.499504 60.499666 L 370.999577 60.499666 L 363.000065 76.499723 L 350.499536 91.999552 L 336.500391 107.999609 L 320.500334 123.500472 L 313.000016 139.499495 L 314.999894 153.499674 L 317.5 168.999504 L 315.500122 184.999561 L 323.499634 205.000407 L 339.499691 194.999984 L 355.499748 185.499788 L 371.499805 179.500155 L 387.499862 171.499609 L 404.000146 164.000326 L 416.000448 120.500138 L 434.000382 112.999821 L 427.999715 128.999878 L 425.999837 144.999935 L 400.000391 160.999992 L 376.500016 177.000049 L 350.000342 191.000228 L 323.999862 207.000285 L 305.499699 220.500236 L 325.499512 226.49987 L 348.999886 208.499935 L 361.000187 205.999829 L 376.500016 189.499544 " transform="matrix(3.779528,0,0,3.779528,0,0)"/>
<path style="fill:none;stroke-width:2;stroke-linecap:butt;stroke-linejoin:miter;stroke:rgb(0%,0%,0%);stroke-opacity:1;stroke-miterlimit:4;" d="M 407.00048 153.00048 L 413.000114 136.500195 L 414.499764 120.500138 " transform="matrix(3.779528,0,0,3.779528,0,0)"/>
<path style="fill:none;stroke-width:2;stroke-linecap:butt;stroke-linejoin:miter;stroke:rgb(0%,0%,0%);stroke-opacity:1;stroke-miterlimit:4;" d="M 411.999658 115.499927 L 408.50013 131.499984 L 404.500374 147.500041 L 402.500496 171.999837 L 372.50026 187.999894 L 356.500203 203.999951 L 334.500513 212.000496 L 324.50009 227.99952 " transform="matrix(3.779528,0,0,3.779528,0,0)"/>
<path style="fill:none;stroke-width:2;stroke-linecap:butt;stroke-linejoin:miter;stroke:rgb(0%,0%,0%);stroke-opacity:1;stroke-miterlimit:4;" d="M 208.499935 259.500439 L 194.499756 265.500073 L 178.499699 255.49965 L 162.499642 251.499894 L 146.999813 245.50026 L 130.999756 241.999699 L 114.999699 237.999943 L 98.999642 240.500049 L 82.500391 230.499626 L 72.499967 214.999797 L 55.999683 202.999495 L 39.999626 198.99974 " transform="matrix(3.779528,0,0,3.779528,0,0)"/>
<path style="fill:none;stroke-width:2;stroke-linecap:butt;stroke-linejoin:miter;stroke:rgb(0%,0%,0%);stroke-opacity:1;stroke-miterlimit:4;" d="M 43.500187 193.999528 L 59.500244 211.500269 L 75.500301 223.499536 L 89.50048 241.500505 L 99.49987 259.500439 L 114.999699 269.499829 " transform="matrix(3.779528,0,0,3.779528,0,0)"/>
<path style="fill:none;stroke-width:2;stroke-linecap:butt;stroke-linejoin:miter;stroke:rgb(0%,0%,0%);stroke-opacity:1;stroke-miterlimit:4;" d="M 123.999666 286.999536 L 85.999919 266.999723 L 67.999984 250.999666 L 55.999683 234.999609 L 50.000049 223.000342 L 44.000415 207.500513 L 41.999504 191.500456 " transform="matrix(3.779528,0,0,3.779528,0,0)"/>
<path style="fill:none;stroke-width:2;stroke-linecap:butt;stroke-linejoin:miter;stroke:rgb(0%,0%,0%);stroke-opacity:1;stroke-miterlimit:4;" d="M 44.999837 187.499666 L 59.000016 203.499723 L 76.999951 219.49978 L 100.500326 241.500505 L 101.999976 261.00009 L 123.999666 280.999902 L 139.999723 282.99978 L 155.99978 289.499642 " transform="matrix(3.779528,0,0,3.779528,0,0)"/>
<path style="fill:none;stroke-width:2;stroke-linecap:butt;stroke-linejoin:miter;stroke:rgb(0%,0%,0%);stroke-opacity:1;stroke-miterlimit:4;" d="M 363.999487 143.500285 L 348.000464 159.999536 L 332.000407 175.999593 L 342.500024 164.49952 L 360.499959 148.500496 L 368.500505 132.500439 L 376.500016 110.499715 L 382.49965 94.499658 L 386.500439 78.499601 " transform="matrix(3.779528,0,0,3.779528,0,0)"/>
<path style="fill:none;stroke-width:2;stroke-linecap:butt;stroke-linejoin:miter;stroke:rgb(0%,0%,0%);stroke-opacity:1;stroke-miterlimit:4;" d="M 392.500073 74.499845 L 394.499951 90.499902 L 390.500195 106.499959 L 384.499528 108.499837 " transform="matrix(3.779528,0,0,3.779528,0,0)"/>
<path style="fill:none;stroke-width:2;stroke-linecap:butt;stroke-linejoin:miter;stroke:rgb(0%,0%,0%);stroke-opacity:1;stroke-miterlimit:4;" d="M 391.000423 55.00026 L 375.000366 45.500065 L 359.000309 30.000236 L 343.000252 16.000057 " transform="matrix(3.779528,0,0,3.779528,0,0)"/>
<path style="fill:none;stroke-width:2;stroke-linecap:butt;stroke-linejoin:miter;stroke:rgb(0%,0%,0%);stroke-opacity:1;stroke-miterlimit:4;" d="M 325.99974 41.999504 L 321.499756 57.999561 L 323.999862 66.500334 L 327.999618 68.500212 L 322.500212 84.000041 L 318.500456 99.49987 L 311.000138 116.000155 L 296.999959 132.000212 L 284.999658 157.999658 L 289.000448 173.999715 L 284.999658 189.999772 L 296.999959 207.500513 " transform="matrix(3.779528,0,0,3.779528,0,0)"/>
<path style="fill:none;stroke-width:2;stroke-linecap:butt;stroke-linejoin:miter;stroke:rgb(0%,0%,0%);stroke-opacity:1;stroke-miterlimit:4;" d="M 438.999561 266.000301 L 461.000285 248.000366 L 475.000464 231.500081 L 481.000098 216.000252 L 482.999976 200.000195 L 477.000342 184.500366 L 468.999797 168.500309 L 461.000285 152.500252 " transform="matrix(3.779528,0,0,3.779528,0,0)"/>
<path style="fill:none;stroke-width:2;stroke-linecap:butt;stroke-linejoin:miter;stroke:rgb(0%,0%,0%);stroke-opacity:1;stroke-miterlimit:4;" d="M 330.999951 86.500146 L 332.999829 70.50009 L 330.499723 54.500033 " transform="matrix(3.779528,0,0,3.779528,0,0)"/>
<path style="fill:none;stroke-width:2;stroke-linecap:butt;stroke-linejoin:miter;stroke:rgb(0%,0%,0%);stroke-opacity:1;stroke-miterlimit:4;" d="M 318.99965 42.499731 L 316.999772 58.499788 L 313.000016 73.999618 L 313.000016 89.999674 L 302.500399 73.999618 " transform="matrix(3.779528,0,0,3.779528,0,0)"/>
<path style="fill:none;stroke-width:2;stroke-linecap:butt;stroke-linejoin:miter;stroke:rgb(0%,0%,0%);stroke-opacity:1;stroke-miterlimit:4;" d="M 310.49991 54.500033 L 314.499666 39.000203 " transform="matrix(3.779528,0,0,3.779528,0,0)"/>
<path style="fill:none;stroke-width:2;stroke-linecap:butt;stroke-linejoin:miter;stroke:rgb(0%,0%,0%);stroke-opacity:1;stroke-miterlimit:4;" d="M 307.000382 21.500496 L 350.999764 33.499764 L 367.500049 49.499821 L 393.499495 65.499878 L 411.999658 80.999707 L 427.999715 97.499992 L 441.999894 113.500049 L 454.000195 130.000334 L 461.999707 146.000391 L 472.00013 162.499642 L 479.999642 178.499699 L 486.000309 194.999984 L 491.499715 211.000041 L 493.499593 226.49987 L 481.500326 234.500415 L 473.49978 250.000244 L 459.999829 266.000301 L 429.500399 282.000358 L 406.000024 302.000171 L 388.00009 307.999805 L 393.999723 302.000171 L 409.99978 298.499609 L 425.999837 291.999748 L 441.499666 286.000114 L 457.499723 275.500496 L 477.499536 264.999845 L 479.500448 247.500138 L 489.499837 247.500138 L 501.500138 257.499528 L 505.499894 239.499593 " transform="matrix(3.779528,0,0,3.779528,0,0)"/>
<path style="fill:none;stroke-width:2;stroke-linecap:butt;stroke-linejoin:miter;stroke:rgb(0%,0%,0%);stroke-opacity:1;stroke-miterlimit:4;" d="M 271.499707 51.999927 L 271.999935 36.500098 " transform="matrix(3.779528,0,0,3.779528,0,0)"/>
<path style="fill:none;stroke-width:2;stroke-linecap:butt;stroke-linejoin:miter;stroke:rgb(0%,0%,0%);stroke-opacity:1;stroke-miterlimit:4;" d="M 169.999959 29.500008 L 130.000334 45.500065 L 103.499626 59.500244 L 85.499691 75.500301 L 71.499512 91.500358 L 60.000472 107.999609 L 51.999927 123.500472 L 44.000415 139.499495 L 37.999748 155.99978 L 5.999634 171.999837 L 14.000179 158.499886 " transform="matrix(3.779528,0,0,3.779528,0,0)"/>
<path style="fill:none;stroke-width:2;stroke-linecap:butt;stroke-linejoin:miter;stroke:rgb(0%,0%,0%);stroke-opacity:1;stroke-miterlimit:4;" d="M 165.499976 25.000024 L 125.50035 41.000081 L 99.49987 57.000138 L 79.500057 73.500423 L 66.000106 89.999674 L 53.999805 106.499959 L 46.000293 122.500016 L 39.999626 138.500073 L 33.999992 154.50013 L 6.499862 154.50013 L 23.000146 154.50013 L 39.000203 142.499829 L 54.500033 106.499959 L 70.50009 86.500146 L 102.500203 54.500033 L 118.50026 46.000293 L 134.00009 39.999626 L 150.000146 33.999992 L 166.000203 26.00048 L 182.500488 21.999691 L 198.499512 19.999813 L 210.499813 29.500008 L 225.999642 26.999902 L 241.999699 25.000024 L 257.499528 25.000024 L 273.499585 24.499797 L 289.000448 26.999902 L 305.000505 30.999658 L 331.500179 42.999959 L 349.500114 47.499943 L 353.49987 43.500187 L 371.499805 57.500366 L 387.499862 71.499512 L 404.000146 81.499935 L 420.000203 95.500114 L 436.500488 113.500049 L 452.99974 135.999967 L 469.500024 166.000203 L 473.49978 186.000016 " transform="matrix(3.779528,0,0,3.779528,0,0)"/>
</g>
</svg>
