<?xml version="1.0" encoding="UTF-8"?>
<svg xmlns="http://www.w3.org/2000/svg" xmlns:xlink="http://www.w3.org/1999/xlink" width="1935.11811" height="1935.11811" viewBox="0 0 1935.11811 1935.11811" version="1.1">
<g id="surface1">
<path style="fill:none;stroke-width:2;stroke-linecap:butt;stroke-linejoin:miter;stroke:rgb(0%,0%,0%);stroke-opacity:1;stroke-miterlimit:4;" d="M 437.49991 12.499495 L 459.499601 28.499552 L 469.500024 44.499609 L 471.499902 60.499666 L 467.500146 76.999951 L 459.499601 93.000008 L 445.500456 109.000065 L 453.499967 130.999756 L 468.999797 146.999813 L 475.000464 162.499642 L 476.500114 178.499699 L 468.999797 194.499756 L 456.999495 210.499813 L 447.000106 228.499748 L 449.500212 243.999577 L 447.500334 255.49965 L 451.50009 264.999845 L 451.50009 271.000513 L 449.500212 286.999536 L 453.499967 302.500399 L 466.000496 318.500456 L 466.000496 338.500269 L 476.500114 354.500326 L 478.499992 370.999577 L 478.499992 386.999634 L 484.499626 411.000236 L 494.500049 427.000293 L 502.499561 443.499544 L 502.499561 475.499658 L 496.499927 491.499715 L 476.500114 508 L 477.999764 508 L 493.499593 504.000244 " transform="matrix(3.779528,0,0,3.779528,0,0)"/>
<path style="fill:none;stroke-width:2;stroke-linecap:butt;stroke-linejoin:miter;stroke:rgb(0%,0%,0%);stroke-opacity:1;stroke-miterlimit:4;" d="M 494.500049 481.500326 L 477.999764 484.000431 L 461.999707 490.000065 " transform="matrix(3.779528,0,0,3.779528,0,0)"/>
<path style="fill:none;stroke-width:2;stroke-linecap:butt;stroke-linejoin:miter;stroke:rgb(0%,0%,0%);stroke-opacity:1;stroke-miterlimit:4;" d="M 458.500179 497.000155 L 452.499512 481.000098 L 448.499756 465.000041 L 448.499756 449.500212 L 456.500301 433.500155 L 450.499634 423.499731 L 454.500423 407.499674 L 444.5 388.999512 L 440.500244 373.000488 L 438.500366 357.000431 L 438.500366 341.499569 L 434.499577 323.499634 L 434.000382 307.000382 L 438.000138 296.999959 L 422.000081 305.499699 L 406.000024 299.500065 " transform="matrix(3.779528,0,0,3.779528,0,0)"/>
<path style="fill:none;stroke-width:2;stroke-linecap:butt;stroke-linejoin:miter;stroke:rgb(0%,0%,0%);stroke-opacity:1;stroke-miterlimit:4;" d="M 409.000358 291.49952 L 425.499609 293.999626 L 441.999894 289.499642 " transform="matrix(3.779528,0,0,3.779528,0,0)"/>
<path style="fill:none;stroke-width:2;stroke-linecap:butt;stroke-linejoin:miter;stroke:rgb(0%,0%,0%);stroke-opacity:1;stroke-miterlimit:4;" d="M 448.999984 302.999593 L 438.500366 318.99965 L 452.99974 302.999593 L 468.499569 320.999528 " transform="matrix(3.779528,0,0,3.779528,0,0)"/>
<path style="fill:none;stroke-width:2;stroke-linecap:butt;stroke-linejoin:miter;stroke:rgb(0%,0%,0%);stroke-opacity:1;stroke-miterlimit:4;" d="M 469.500024 339.000496 L 453.499967 343.50048 L 438.000138 351.499992 " transform="matrix(3.779528,0,0,3.779528,0,0)"/>
<path style="fill:none;stroke-width:2;stroke-linecap:butt;stroke-linejoin:miter;stroke:rgb(0%,0%,0%);stroke-opacity:1;stroke-miterlimit:4;" d="M 432.499699 348.499658 L 431.000049 364.499715 L 434.999805 380.499772 L 438.999561 395.999601 L 445.000228 411.999658 L 461.000285 409.499552 L 477.000342 407.499674 L 499.000033 434.999805 " transform="matrix(3.779528,0,0,3.779528,0,0)"/>
<path style="fill:none;stroke-width:2;stroke-linecap:butt;stroke-linejoin:miter;stroke:rgb(0%,0%,0%);stroke-opacity:1;stroke-miterlimit:4;" d="M 509.49965 481.000098 L 489.499837 477.000342 L 473.49978 480.49987 L 457.499723 474.500236 " transform="matrix(3.779528,0,0,3.779528,0,0)"/>
<path style="fill:none;stroke-width:2;stroke-linecap:butt;stroke-linejoin:miter;stroke:rgb(0%,0%,0%);stroke-opacity:1;stroke-miterlimit:4;" d="M 475.499658 483.500203 L 463.500391 499.50026 " transform="matrix(3.779528,0,0,3.779528,0,0)"/>
<path style="fill:none;stroke-width:2;stroke-linecap:butt;stroke-linejoin:miter;stroke:rgb(0%,0%,0%);stroke-opacity:1;stroke-miterlimit:4;" d="M 509.000456 506.50035 L 502.499561 500.499683 L 502.499561 484.000431 L 496.499927 460.500057 L 496.499927 443.999772 L 486.000309 427.999715 L 470.000252 418.000326 L 454.000195 418.000326 " transform="matrix(3.779528,0,0,3.779528,0,0)"/>
<path style="fill:none;stroke-width:2;stroke-linecap:butt;stroke-linejoin:miter;stroke:rgb(0%,0%,0%);stroke-opacity:1;stroke-miterlimit:4;" d="M 469.500024 399.500163 L 452.99974 402.000269 L 438.999561 393.999723 " transform="matrix(3.779528,0,0,3.779528,0,0)"/>
<path style="fill:none;stroke-width:2;stroke-linecap:butt;stroke-linejoin:miter;stroke:rgb(0%,0%,0%);stroke-opacity:1;stroke-miterlimit:4;" d="M 440.000016 341.999797 L 456.000073 336.000163 " transform="matrix(3.779528,0,0,3.779528,0,0)"/>
<path style="fill:none;stroke-width:2;stroke-linecap:butt;stroke-linejoin:miter;stroke:rgb(0%,0%,0%);stroke-opacity:1;stroke-miterlimit:4;" d="M 472.500358 316.999772 L 456.999495 298.499609 L 445.000228 310.49991 L 445.500456 320.500334 L 429.500399 328.499845 L 403.499919 324.50009 L 391.499618 308.500033 L 403.499919 289.000448 L 403.499919 273.000391 L 393.000301 255.000456 L 391.000423 239.000399 L 388.999512 223.000342 L 422.999504 202.999495 L 434.999805 187.000472 L 438.500366 171.499609 L 432.499699 155.000358 L 416.499642 139.000301 L 402.500496 125.000122 " transform="matrix(3.779528,0,0,3.779528,0,0)"/>
<path style="fill:none;stroke-width:2;stroke-linecap:butt;stroke-linejoin:miter;stroke:rgb(0%,0%,0%);stroke-opacity:1;stroke-miterlimit:4;" d="M 411.999658 124.499894 L 427.999715 124.499894 L 443.999772 122.500016 L 459.999829 123.999666 L 475.499658 123.500472 L 491.499715 127.500228 " transform="matrix(3.779528,0,0,3.779528,0,0)"/>
<path style="fill:none;stroke-width:2;stroke-linecap:butt;stroke-linejoin:miter;stroke:rgb(0%,0%,0%);stroke-opacity:1;stroke-miterlimit:4;" d="M 486.000309 119.499683 L 508 135.49974 L 491.499715 153.499674 L 497.500382 169.499731 L 483.500203 177.500277 L 477.999764 193.999528 L 468.000374 209.500391 L 468.000374 225.500448 L 466.000496 241.999699 L 461.999707 257.999756 L 456.000073 254.500228 " transform="matrix(3.779528,0,0,3.779528,0,0)"/>
<path style="fill:none;stroke-width:2;stroke-linecap:butt;stroke-linejoin:miter;stroke:rgb(0%,0%,0%);stroke-opacity:1;stroke-miterlimit:4;" d="M 441.499666 246.000488 L 425.499609 243.999577 " transform="matrix(3.779528,0,0,3.779528,0,0)"/>
<path style="fill:none;stroke-width:2;stroke-linecap:butt;stroke-linejoin:miter;stroke:rgb(0%,0%,0%);stroke-opacity:1;stroke-miterlimit:4;" d="M 411.000236 239.999821 L 427.000293 239.499593 L 443.00035 241.500505 " transform="matrix(3.779528,0,0,3.779528,0,0)"/>
<path style="fill:none;stroke-width:2;stroke-linecap:butt;stroke-linejoin:miter;stroke:rgb(0%,0%,0%);stroke-opacity:1;stroke-miterlimit:4;" d="M 416.000448 227.000098 L 432.499699 226.49987 L 448.999984 216.999674 L 465.000041 202.999495 " transform="matrix(3.779528,0,0,3.779528,0,0)"/>
<path style="fill:none;stroke-width:2;stroke-linecap:butt;stroke-linejoin:miter;stroke:rgb(0%,0%,0%);stroke-opacity:1;stroke-miterlimit:4;" d="M 500.499683 203.499723 L 504.500472 193.999528 L 497.999577 193.999528 L 499.50026 205.999829 L 499.50026 216.000252 L 497.000155 232.000309 L 504.999666 248.000366 L 504.999666 254 " transform="matrix(3.779528,0,0,3.779528,0,0)"/>
<path style="fill:none;stroke-width:2;stroke-linecap:butt;stroke-linejoin:miter;stroke:rgb(0%,0%,0%);stroke-opacity:1;stroke-miterlimit:4;" d="M 501.500138 241.500505 L 503.500016 235.499837 L 499.50026 219.49978 " transform="matrix(3.779528,0,0,3.779528,0,0)"/>
<path style="fill:none;stroke-width:2;stroke-linecap:butt;stroke-linejoin:miter;stroke:rgb(0%,0%,0%);stroke-opacity:1;stroke-miterlimit:4;" d="M 493.499593 165.499976 L 509.49965 163.500098 " transform="matrix(3.779528,0,0,3.779528,0,0)"/>
<path style="fill:none;stroke-width:2;stroke-linecap:butt;stroke-linejoin:miter;stroke:rgb(0%,0%,0%);stroke-opacity:1;stroke-miterlimit:4;" d="M 506.000122 132.500439 L 490.000065 119.99991 L 474.000008 117.499805 " transform="matrix(3.779528,0,0,3.779528,0,0)"/>
<path style="fill:none;stroke-width:2;stroke-linecap:butt;stroke-linejoin:miter;stroke:rgb(0%,0%,0%);stroke-opacity:1;stroke-miterlimit:4;" d="M 481.99952 123.000244 L 493.999821 139.499495 L 506.000122 139.499495 " transform="matrix(3.779528,0,0,3.779528,0,0)"/>
<path style="fill:none;stroke-width:2;stroke-linecap:butt;stroke-linejoin:miter;stroke:rgb(0%,0%,0%);stroke-opacity:1;stroke-miterlimit:4;" d="M 433.500155 146.499585 L 417.500098 132.500439 " transform="matrix(3.779528,0,0,3.779528,0,0)"/>
<path style="fill:none;stroke-width:2;stroke-linecap:butt;stroke-linejoin:miter;stroke:rgb(0%,0%,0%);stroke-opacity:1;stroke-miterlimit:4;" d="M 411.999658 134.999512 L 427.999715 148.999691 " transform="matrix(3.779528,0,0,3.779528,0,0)"/>
<path style="fill:none;stroke-width:2;stroke-linecap:butt;stroke-linejoin:miter;stroke:rgb(0%,0%,0%);stroke-opacity:1;stroke-miterlimit:4;" d="M 426.500065 205.999829 L 410.500008 216.50048 " transform="matrix(3.779528,0,0,3.779528,0,0)"/>
<path style="fill:none;stroke-width:2;stroke-linecap:butt;stroke-linejoin:miter;stroke:rgb(0%,0%,0%);stroke-opacity:1;stroke-miterlimit:4;" d="M 400.999813 218.500358 L 416.99987 224.499992 L 432.999927 212.499691 L 449.500212 202.500301 L 455.499845 220.500236 L 433.500155 218.500358 L 448.999984 210.499813 L 463.000163 230.499626 L 461.000285 246.000488 " transform="matrix(3.779528,0,0,3.779528,0,0)"/>
<path style="fill:none;stroke-width:2;stroke-linecap:butt;stroke-linejoin:miter;stroke:rgb(0%,0%,0%);stroke-opacity:1;stroke-miterlimit:4;" d="M 430.499821 275.500496 L 414.499764 273.499585 " transform="matrix(3.779528,0,0,3.779528,0,0)"/>
<path style="fill:none;stroke-width:2;stroke-linecap:butt;stroke-linejoin:miter;stroke:rgb(0%,0%,0%);stroke-opacity:1;stroke-miterlimit:4;" d="M 411.999658 280.499674 L 427.999715 280.999902 " transform="matrix(3.779528,0,0,3.779528,0,0)"/>
<path style="fill:none;stroke-width:2;stroke-linecap:butt;stroke-linejoin:miter;stroke:rgb(0%,0%,0%);stroke-opacity:1;stroke-miterlimit:4;" d="M 441.999894 265.500073 L 425.999837 266.000301 L 409.99978 266.499495 " transform="matrix(3.779528,0,0,3.779528,0,0)"/>
<path style="fill:none;stroke-width:2;stroke-linecap:butt;stroke-linejoin:miter;stroke:rgb(0%,0%,0%);stroke-opacity:1;stroke-miterlimit:4;" d="M 412.499886 264.999845 L 410.500008 280.499674 L 408.50013 306.500155 " transform="matrix(3.779528,0,0,3.779528,0,0)"/>
<path style="fill:none;stroke-width:2;stroke-linecap:butt;stroke-linejoin:miter;stroke:rgb(0%,0%,0%);stroke-opacity:1;stroke-miterlimit:4;" d="M 418.000326 311.000138 L 410.500008 317.5 L 394.499951 304.000049 L 394.499951 309.999683 " transform="matrix(3.779528,0,0,3.779528,0,0)"/>
<path style="fill:none;stroke-width:2;stroke-linecap:butt;stroke-linejoin:miter;stroke:rgb(0%,0%,0%);stroke-opacity:1;stroke-miterlimit:4;" d="M 389.999967 312.499788 L 406.000024 324.50009 " transform="matrix(3.779528,0,0,3.779528,0,0)"/>
<path style="fill:none;stroke-width:2;stroke-linecap:butt;stroke-linejoin:miter;stroke:rgb(0%,0%,0%);stroke-opacity:1;stroke-miterlimit:4;" d="M 403.499919 339.999919 L 387.499862 334.999707 L 371.499805 330.999951 " transform="matrix(3.779528,0,0,3.779528,0,0)"/>
<path style="fill:none;stroke-width:2;stroke-linecap:butt;stroke-linejoin:miter;stroke:rgb(0%,0%,0%);stroke-opacity:1;stroke-miterlimit:4;" d="M 368.999699 325.499512 L 384.999756 303.499821 L 395.000179 305.999927 L 409.499552 322.500212 L 406.000024 338.500269 L 406.500252 354.99952 L 404.500374 370.500382 L 400.499585 386.500439 L 398.999935 402.500496 L 387.499862 418.49952 L 387.499862 428.499943 L 393.499495 444.5 L 395.500407 461.000285 L 391.499618 477.000342 " transform="matrix(3.779528,0,0,3.779528,0,0)"/>
<path style="fill:none;stroke-width:2;stroke-linecap:butt;stroke-linejoin:miter;stroke:rgb(0%,0%,0%);stroke-opacity:1;stroke-miterlimit:4;" d="M 387.499862 501.500138 L 391.000423 486.000309 L 397.000057 470.000252 L 398.999935 454.000195 L 395.500407 437.49991 L 397.500285 421.499854 L 401.500041 406.000024 L 406.000024 389.999967 L 407.999902 373.99991 L 411.999658 357.499626 L 400.000391 345.500358 L 384.000334 341.499569 L 368.000277 341.499569 " transform="matrix(3.779528,0,0,3.779528,0,0)"/>
<path style="fill:none;stroke-width:2;stroke-linecap:butt;stroke-linejoin:miter;stroke:rgb(0%,0%,0%);stroke-opacity:1;stroke-miterlimit:4;" d="M 363.500293 327.999618 L 379.000122 302.000171 L 395.000179 297.500187 L 377.000244 313.500244 L 368.999699 329.500301 L 364.499715 349.500114 L 364.499715 397.500285 L 361.000187 425.499609 L 352.999642 441.000472 L 350.999764 457.499723 L 350.999764 473.49978 L 351.499992 493.499593 " transform="matrix(3.779528,0,0,3.779528,0,0)"/>
<path style="fill:none;stroke-width:2;stroke-linecap:butt;stroke-linejoin:miter;stroke:rgb(0%,0%,0%);stroke-opacity:1;stroke-miterlimit:4;" d="M 352.500448 486.999731 L 368.000277 481.500326 L 384.000334 487.499959 " transform="matrix(3.779528,0,0,3.779528,0,0)"/>
<path style="fill:none;stroke-width:2;stroke-linecap:butt;stroke-linejoin:miter;stroke:rgb(0%,0%,0%);stroke-opacity:1;stroke-miterlimit:4;" d="M 381.500228 502.499561 L 375.499561 486.499504 L 361.000187 466.499691 L 363.000065 450.499634 L 369.499927 434.000382 L 363.500293 445.99965 " transform="matrix(3.779528,0,0,3.779528,0,0)"/>
<path style="fill:none;stroke-width:2;stroke-linecap:butt;stroke-linejoin:miter;stroke:rgb(0%,0%,0%);stroke-opacity:1;stroke-miterlimit:4;" d="M 354.000098 474.000008 L 369.499927 475.999886 L 384.999756 483.500203 " transform="matrix(3.779528,0,0,3.779528,0,0)"/>
<path style="fill:none;stroke-width:2;stroke-linecap:butt;stroke-linejoin:miter;stroke:rgb(0%,0%,0%);stroke-opacity:1;stroke-miterlimit:4;" d="M 383.500106 416.000448 L 367.500049 416.000448 " transform="matrix(3.779528,0,0,3.779528,0,0)"/>
<path style="fill:none;stroke-width:2;stroke-linecap:butt;stroke-linejoin:miter;stroke:rgb(0%,0%,0%);stroke-opacity:1;stroke-miterlimit:4;" d="M 368.000277 397.000057 L 384.000334 397.000057 L 400.000391 407.499674 " transform="matrix(3.779528,0,0,3.779528,0,0)"/>
<path style="fill:none;stroke-width:2;stroke-linecap:butt;stroke-linejoin:miter;stroke:rgb(0%,0%,0%);stroke-opacity:1;stroke-miterlimit:4;" d="M 447.500334 448.999984 L 463.500391 428.499943 L 479.500448 422.999504 L 495.500505 443.00035 " transform="matrix(3.779528,0,0,3.779528,0,0)"/>
<path style="fill:none;stroke-width:2;stroke-linecap:butt;stroke-linejoin:miter;stroke:rgb(0%,0%,0%);stroke-opacity:1;stroke-miterlimit:4;" d="M 505.499894 325.99974 L 507.499772 309.500488 L 508 305.499699 " transform="matrix(3.779528,0,0,3.779528,0,0)"/>
<path style="fill:none;stroke-width:2;stroke-linecap:butt;stroke-linejoin:miter;stroke:rgb(0%,0%,0%);stroke-opacity:1;stroke-miterlimit:4;" d="M 461.000285 304.500277 L 475.000464 320.500334 L 475.000464 336.000163 L 481.000098 352.00022 L 482.499748 368.000277 L 484.499626 383.500106 L 482.499748 399.500163 L 474.500236 416.000448 L 464.499813 427.999715 L 456.999495 443.999772 L 452.99974 459.999829 L 456.999495 475.999886 L 456.999495 489.499837 " transform="matrix(3.779528,0,0,3.779528,0,0)"/>
<path style="fill:none;stroke-width:2;stroke-linecap:butt;stroke-linejoin:miter;stroke:rgb(0%,0%,0%);stroke-opacity:1;stroke-miterlimit:4;" d="M 406.500252 277.000146 L 422.500309 270.500285 L 438.999561 270.500285 " transform="matrix(3.779528,0,0,3.779528,0,0)"/>
<path style="fill:none;stroke-width:2;stroke-linecap:butt;stroke-linejoin:miter;stroke:rgb(0%,0%,0%);stroke-opacity:1;stroke-miterlimit:4;" d="M 438.500366 255.000456 L 422.000081 257.000334 L 406.000024 255.000456 " transform="matrix(3.779528,0,0,3.779528,0,0)"/>
<path style="fill:none;stroke-width:2;stroke-linecap:butt;stroke-linejoin:miter;stroke:rgb(0%,0%,0%);stroke-opacity:1;stroke-miterlimit:4;" d="M 348.999886 285.499886 L 345.500358 296.999959 L 341.499569 286.500342 L 338.000041 284.999658 L 332.000407 268.999601 L 327.999618 252.999544 L 323.499634 236.999487 L 321.999984 221.499658 L 325.99974 205.999829 L 325.499512 189.999772 L 331.500179 173.999715 L 336.000163 158.499886 L 339.999919 142.499829 L 352.00022 125.999544 L 402.000269 117.499805 L 402.000269 101.499748 L 389.999967 85.499691 L 384.000334 69.499634 L 381.500228 53.499577 L 383.500106 37.49952 L 398.000513 21.500496 L 430.499821 3.000334 L 414.499764 10.999845 L 398.999935 20.500041 L 382.999878 38.499976 " transform="matrix(3.779528,0,0,3.779528,0,0)"/>
<path style="fill:none;stroke-width:2;stroke-linecap:butt;stroke-linejoin:miter;stroke:rgb(0%,0%,0%);stroke-opacity:1;stroke-miterlimit:4;" d="M 391.999845 35.99987 L 407.999902 22.499919 L 423.999959 16.000057 L 439.499788 17.999935 L 455.499845 29.500008 L 457.499723 46.999715 L 459.499601 63.5 " transform="matrix(3.779528,0,0,3.779528,0,0)"/>
<path style="fill:none;stroke-width:2;stroke-linecap:butt;stroke-linejoin:miter;stroke:rgb(0%,0%,0%);stroke-opacity:1;stroke-miterlimit:4;" d="M 459.000407 25.500252 L 443.00035 13.499951 L 427.000293 8.999967 " transform="matrix(3.779528,0,0,3.779528,0,0)"/>
<path style="fill:none;stroke-width:2;stroke-linecap:butt;stroke-linejoin:miter;stroke:rgb(0%,0%,0%);stroke-opacity:1;stroke-miterlimit:4;" d="M 435.500033 17.000513 L 457.499723 32.999536 L 465.500269 48.999593 L 465.500269 65.499878 L 459.999829 82.000163 L 445.99965 98.500448 L 463.999585 84.500269 " transform="matrix(3.779528,0,0,3.779528,0,0)"/>
<path style="fill:none;stroke-width:2;stroke-linecap:butt;stroke-linejoin:miter;stroke:rgb(0%,0%,0%);stroke-opacity:1;stroke-miterlimit:4;" d="M 449.500212 75.500301 L 439.499788 75.500301 L 427.499487 67.499756 L 427.499487 51.499699 L 407.499674 60.000472 " transform="matrix(3.779528,0,0,3.779528,0,0)"/>
<path style="fill:none;stroke-width:2;stroke-linecap:butt;stroke-linejoin:miter;stroke:rgb(0%,0%,0%);stroke-opacity:1;stroke-miterlimit:4;" d="M 399.500163 56.49991 L 414.999992 42.499731 L 431.000049 52.500155 L 446.499878 41.999504 L 461.999707 50.000049 " transform="matrix(3.779528,0,0,3.779528,0,0)"/>
<path style="fill:none;stroke-width:2;stroke-linecap:butt;stroke-linejoin:miter;stroke:rgb(0%,0%,0%);stroke-opacity:1;stroke-miterlimit:4;" d="M 443.00035 57.000138 L 416.99987 78.999829 L 400.999813 69.000439 " transform="matrix(3.779528,0,0,3.779528,0,0)"/>
<path style="fill:none;stroke-width:2;stroke-linecap:butt;stroke-linejoin:miter;stroke:rgb(0%,0%,0%);stroke-opacity:1;stroke-miterlimit:4;" d="M 385.499984 73.999618 L 401.500041 101.999976 L 417.500098 107.999609 L 434.000382 107.500415 L 460.500057 123.500472 L 472.500358 139.499495 L 462.499935 145.500163 " transform="matrix(3.779528,0,0,3.779528,0,0)"/>
<path style="fill:none;stroke-width:2;stroke-linecap:butt;stroke-linejoin:miter;stroke:rgb(0%,0%,0%);stroke-opacity:1;stroke-miterlimit:4;" d="M 430.499821 191.99965 L 414.499764 207.999707 L 398.499707 216.000252 L 382.49965 202.500301 L 366.499593 178.499699 " transform="matrix(3.779528,0,0,3.779528,0,0)"/>
<path style="fill:none;stroke-width:2;stroke-linecap:butt;stroke-linejoin:miter;stroke:rgb(0%,0%,0%);stroke-opacity:1;stroke-miterlimit:4;" d="M 347.500236 166.000203 L 347.500236 159.999536 L 341.499569 154.50013 L 363.500293 176.499821 L 372.000033 193.000106 L 386.000212 209.000163 L 398.000513 225.500448 L 398.000513 231.500081 L 409.99978 236.999487 L 425.999837 234.999609 L 441.999894 234.500415 " transform="matrix(3.779528,0,0,3.779528,0,0)"/>
<path style="fill:none;stroke-width:2;stroke-linecap:butt;stroke-linejoin:miter;stroke:rgb(0%,0%,0%);stroke-opacity:1;stroke-miterlimit:4;" d="M 490.999487 144.499707 L 474.500236 141.000179 L 458.500179 127 L 456.000073 117.499805 L 435.500033 119.000488 L 418.999748 119.000488 L 413.000114 112.999821 L 400.499585 114.500505 L 384.000334 119.000488 L 368.500505 125.000122 L 352.500448 125.000122 L 336.999585 144.999935 L 339.000496 193.000106 L 350.999764 176.499821 L 357.000431 162.000448 L 369.499927 145.500163 L 389.49974 128.999878 L 369.499927 126.499772 L 353.49987 128.000456 " transform="matrix(3.779528,0,0,3.779528,0,0)"/>
<path style="fill:none;stroke-width:2;stroke-linecap:butt;stroke-linejoin:miter;stroke:rgb(0%,0%,0%);stroke-opacity:1;stroke-miterlimit:4;" d="M 350.000342 134.500317 L 366.000399 141.999601 L 379.50035 128.49965 L 365.500171 144.499707 L 363.999487 166.500431 L 360.499959 182.500488 L 346.49978 198.499512 L 350.499536 209.999585 L 354.500326 225.999642 L 354.500326 241.500505 L 350.499536 257.499528 L 352.500448 271.499707 L 358.500081 287.999992 " transform="matrix(3.779528,0,0,3.779528,0,0)"/>
<path style="fill:none;stroke-width:2;stroke-linecap:butt;stroke-linejoin:miter;stroke:rgb(0%,0%,0%);stroke-opacity:1;stroke-miterlimit:4;" d="M 349.500114 266.999723 L 345.00013 262.999967 L 341.000374 254.500228 L 345.00013 250.500472 L 349.500114 234.000187 L 347.500236 217.499902 L 341.499569 211.500269 L 325.499512 219.49978 " transform="matrix(3.779528,0,0,3.779528,0,0)"/>
<path style="fill:none;stroke-width:2;stroke-linecap:butt;stroke-linejoin:miter;stroke:rgb(0%,0%,0%);stroke-opacity:1;stroke-miterlimit:4;" d="M 327.999618 216.50048 L 327.500423 232.000309 L 331.500179 247.500138 L 337.499813 275.500496 L 348.000464 271.999935 L 354.000098 287.999992 L 345.999552 287.999992 " transform="matrix(3.779528,0,0,3.779528,0,0)"/>
<path style="fill:none;stroke-width:2;stroke-linecap:butt;stroke-linejoin:miter;stroke:rgb(0%,0%,0%);stroke-opacity:1;stroke-miterlimit:4;" d="M 386.000212 250.999666 L 384.000334 234.999609 L 384.000334 218.999552 L 373.99991 202.999495 L 363.999487 187.000472 L 338.000041 203.499723 L 321.999984 211.500269 " transform="matrix(3.779528,0,0,3.779528,0,0)"/>
<path style="fill:none;stroke-width:2;stroke-linecap:butt;stroke-linejoin:miter;stroke:rgb(0%,0%,0%);stroke-opacity:1;stroke-miterlimit:4;" d="M 343.50048 141.000179 L 359.499504 150.999569 L 379.50035 134.999512 L 395.500407 127.500228 L 427.499487 127.500228 L 443.999772 125.999544 L 463.999585 136.500195 " transform="matrix(3.779528,0,0,3.779528,0,0)"/>
<path style="fill:none;stroke-width:2;stroke-linecap:butt;stroke-linejoin:miter;stroke:rgb(0%,0%,0%);stroke-opacity:1;stroke-miterlimit:4;" d="M 509.000456 190.5 L 500.99991 184.000138 L 486.999731 175.999593 L 470.999674 205.999829 L 452.99974 221.999886 L 436.500488 230.000431 L 420.999626 229.500203 L 404.500374 225.500448 L 388.00009 219.49978 L 372.000033 199.499967 L 355.999976 173.499487 L 340.500146 167.499854 L 339.999919 191.500456 L 329.999495 189.999772 L 336.000163 173.999715 L 350.000342 153.499674 L 348.000464 137.499618 " transform="matrix(3.779528,0,0,3.779528,0,0)"/>
<path style="fill:none;stroke-width:2;stroke-linecap:butt;stroke-linejoin:miter;stroke:rgb(0%,0%,0%);stroke-opacity:1;stroke-miterlimit:4;" d="M 452.000317 93.500236 L 436.00026 101.499748 L 419.499976 101.499748 L 403.499919 95.500114 L 400.999813 73.500423 L 397.500285 57.999561 L 409.000358 41.999504 " transform="matrix(3.779528,0,0,3.779528,0,0)"/>
<path style="fill:none;stroke-width:2;stroke-linecap:butt;stroke-linejoin:miter;stroke:rgb(0%,0%,0%);stroke-opacity:1;stroke-miterlimit:4;" d="M 416.99987 15.499829 L 395.000179 31.499886 L 387.499862 47.499943 L 389.49974 63.5 L 393.999723 78.999829 L 402.000269 95.500114 L 407.999902 125.50035 L 429.999593 141.999601 L 440.000016 157.999658 L 441.999894 174.499943 L 438.000138 190.5 L 425.999837 207.000285 L 401.500041 221.000464 L 397.500285 244.499805 L 401.500041 256.500106 L 397.500285 271.999935 L 395.999601 287.999992 L 379.50035 304.000049 L 368.000277 320.000106 L 363.999487 336.000163 L 361.999609 352.00022 L 359.999731 368.500505 L 359.999731 384.000334 L 361.500415 400.000391 L 359.499504 415.50022 L 351.499992 431.000049 L 345.500358 451.50009 L 345.500358 467.500146 L 347.500236 483.500203 L 347.500236 499.50026 L 355.999976 505.499894 L 371.499805 507.499772 L 389.49974 491.999943 " transform="matrix(3.779528,0,0,3.779528,0,0)"/>
<path style="fill:none;stroke-width:2;stroke-linecap:butt;stroke-linejoin:miter;stroke:rgb(0%,0%,0%);stroke-opacity:1;stroke-miterlimit:4;" d="M 234.999609 465.500269 L 245.000033 453.499967 L 230.999854 469.500024 L 226.49987 485.500081 L 196.000439 500.99991 " transform="matrix(3.779528,0,0,3.779528,0,0)"/>
<path style="fill:none;stroke-width:2;stroke-linecap:butt;stroke-linejoin:miter;stroke:rgb(0%,0%,0%);stroke-opacity:1;stroke-miterlimit:4;" d="M 211.000041 509.999878 L 227.000098 493.499593 L 241.000277 493.000399 " transform="matrix(3.779528,0,0,3.779528,0,0)"/>
<path style="fill:none;stroke-width:2;stroke-linecap:butt;stroke-linejoin:miter;stroke:rgb(0%,0%,0%);stroke-opacity:1;stroke-miterlimit:4;" d="M 178.999927 472.00013 L 194.999984 470.000252 L 211.000041 463.500391 L 226.49987 455.499845 L 242.499927 441.999894 L 257.999756 438.000138 L 274.500041 440.000016 L 290.500098 441.999894 L 306.500155 445.99965 L 322.500212 448.499756 L 338.500269 448.499756 L 358.500081 432.000505 L 374.500138 419.499976 L 390.500195 435.500033 " transform="matrix(3.779528,0,0,3.779528,0,0)"/>
<path style="fill:none;stroke-width:2;stroke-linecap:butt;stroke-linejoin:miter;stroke:rgb(0%,0%,0%);stroke-opacity:1;stroke-miterlimit:4;" d="M 389.999967 407.499674 L 373.499683 407.499674 L 351.499992 431.500277 L 335.499935 441.499666 L 319.499878 441.499666 L 303.499821 438.999561 L 287.499764 435.500033 L 271.499707 434.000382 L 255.999878 432.000505 L 234.000187 410.500008 L 218.00013 382.000456 L 202.000073 366.000399 L 186.000016 354.000098 L 169.499731 343.999674 L 153.999902 341.999797 L 137.499618 341.999797 L 121.499561 344.499902 L 105.499504 346.49978 L 89.50048 348.999886 L 73.999618 352.999642 L 57.999561 356.500203 " transform="matrix(3.779528,0,0,3.779528,0,0)"/>
<path style="fill:none;stroke-width:2;stroke-linecap:butt;stroke-linejoin:miter;stroke:rgb(0%,0%,0%);stroke-opacity:1;stroke-miterlimit:4;" d="M 60.000472 354.000098 L 55.999683 370.000155 L 78.000407 372.000033 L 78.000407 382.49965 L 69.999862 398.499707 L 87.999797 394.499951 " transform="matrix(3.779528,0,0,3.779528,0,0)"/>
<path style="fill:none;stroke-width:2;stroke-linecap:butt;stroke-linejoin:miter;stroke:rgb(0%,0%,0%);stroke-opacity:1;stroke-miterlimit:4;" d="M 60.999894 364.499715 L 62.499544 380.499772 L 62.499544 402.000269 L 69.999862 390.500195 L 85.999919 400.499585 L 101.999976 404.000146 L 118.000033 409.499552 L 133.499862 411.000236 L 165.499976 409.99978 L 189.499544 410.500008 " transform="matrix(3.779528,0,0,3.779528,0,0)"/>
<path style="fill:none;stroke-width:2;stroke-linecap:butt;stroke-linejoin:miter;stroke:rgb(0%,0%,0%);stroke-opacity:1;stroke-miterlimit:4;" d="M 181.500033 423.499731 L 165.499976 449.500212 L 161.50022 455.499845 L 171.499609 438.999561 L 180.999805 422.999504 L 193.000106 407.00048 L 203.499723 398.499707 L 187.499666 425.000415 L 171.999837 448.999984 L 164.000326 470.999674 L 148.500496 471.499902 L 132.500439 472.00013 L 100.000098 472.00013 L 85.999919 468.000374 L 84.000041 452.000317 L 86.500146 436.00026 L 72.499967 426.500065 L 88.500024 420.500431 L 88.500024 408.50013 L 82.500391 394.499951 L 76.999951 376.500016 L 60.999894 364.499715 " transform="matrix(3.779528,0,0,3.779528,0,0)"/>
<path style="fill:none;stroke-width:2;stroke-linecap:butt;stroke-linejoin:miter;stroke:rgb(0%,0%,0%);stroke-opacity:1;stroke-miterlimit:4;" d="M 66.999528 358.500081 L 82.999585 376.500016 L 98.999642 398.499707 L 114.999699 404.000146 L 130.999756 406.000024 L 146.999813 407.499674 L 162.99987 407.999902 L 178.999927 400.000391 L 194.999984 388.500317 " transform="matrix(3.779528,0,0,3.779528,0,0)"/>
<path style="fill:none;stroke-width:2;stroke-linecap:butt;stroke-linejoin:miter;stroke:rgb(0%,0%,0%);stroke-opacity:1;stroke-miterlimit:4;" d="M 197.50009 379.999544 L 181.500033 366.000399 L 165.499976 357.999854 " transform="matrix(3.779528,0,0,3.779528,0,0)"/>
<path style="fill:none;stroke-width:2;stroke-linecap:butt;stroke-linejoin:miter;stroke:rgb(0%,0%,0%);stroke-opacity:1;stroke-miterlimit:4;" d="M 168.500309 361.500415 L 189.999772 377.500472 L 189.999772 393.499495 " transform="matrix(3.779528,0,0,3.779528,0,0)"/>
<path style="fill:none;stroke-width:2;stroke-linecap:butt;stroke-linejoin:miter;stroke:rgb(0%,0%,0%);stroke-opacity:1;stroke-miterlimit:4;" d="M 205.000407 395.999601 L 196.999862 411.500464 L 185.499788 427.499487 L 175.999593 443.499544 L 168.500309 459.499601 L 174.499943 472.00013 L 191.000228 466.000496 L 207.000285 461.999707 L 222.500114 452.000317 L 238.500171 436.00026 " transform="matrix(3.779528,0,0,3.779528,0,0)"/>
<path style="fill:none;stroke-width:2;stroke-linecap:butt;stroke-linejoin:miter;stroke:rgb(0%,0%,0%);stroke-opacity:1;stroke-miterlimit:4;" d="M 157.000236 372.000033 L 141.000179 364.499715 " transform="matrix(3.779528,0,0,3.779528,0,0)"/>
<path style="fill:none;stroke-width:2;stroke-linecap:butt;stroke-linejoin:miter;stroke:rgb(0%,0%,0%);stroke-opacity:1;stroke-miterlimit:4;" d="M 140.499951 364.499715 L 164.49952 380.499772 " transform="matrix(3.779528,0,0,3.779528,0,0)"/>
<path style="fill:none;stroke-width:2;stroke-linecap:butt;stroke-linejoin:miter;stroke:rgb(0%,0%,0%);stroke-opacity:1;stroke-miterlimit:4;" d="M 152.000024 382.000456 L 135.999967 370.000155 " transform="matrix(3.779528,0,0,3.779528,0,0)"/>
<path style="fill:none;stroke-width:2;stroke-linecap:butt;stroke-linejoin:miter;stroke:rgb(0%,0%,0%);stroke-opacity:1;stroke-miterlimit:4;" d="M 135.49974 368.500505 L 161.50022 384.499528 " transform="matrix(3.779528,0,0,3.779528,0,0)"/>
<path style="fill:none;stroke-width:2;stroke-linecap:butt;stroke-linejoin:miter;stroke:rgb(0%,0%,0%);stroke-opacity:1;stroke-miterlimit:4;" d="M 148.999691 373.499683 L 132.999634 365.500171 " transform="matrix(3.779528,0,0,3.779528,0,0)"/>
<path style="fill:none;stroke-width:2;stroke-linecap:butt;stroke-linejoin:miter;stroke:rgb(0%,0%,0%);stroke-opacity:1;stroke-miterlimit:4;" d="M 132.000212 366.999821 L 148.000269 382.999878 " transform="matrix(3.779528,0,0,3.779528,0,0)"/>
<path style="fill:none;stroke-width:2;stroke-linecap:butt;stroke-linejoin:miter;stroke:rgb(0%,0%,0%);stroke-opacity:1;stroke-miterlimit:4;" d="M 160.999992 391.999845 L 144.499707 384.000334 L 128.999878 369.499927 " transform="matrix(3.779528,0,0,3.779528,0,0)"/>
<path style="fill:none;stroke-width:2;stroke-linecap:butt;stroke-linejoin:miter;stroke:rgb(0%,0%,0%);stroke-opacity:1;stroke-miterlimit:4;" d="M 125.999544 364.499715 L 141.999601 358.500081 L 157.999658 357.999854 L 173.999715 355.999976 L 189.999772 367.500049 " transform="matrix(3.779528,0,0,3.779528,0,0)"/>
<path style="fill:none;stroke-width:2;stroke-linecap:butt;stroke-linejoin:miter;stroke:rgb(0%,0%,0%);stroke-opacity:1;stroke-miterlimit:4;" d="M 206.500057 383.500106 L 190.5 398.000513 L 182.500488 411.999658 L 187.000472 400.499585 L 200.999618 384.499528 L 187.499666 368.500505 L 163.500098 352.500448 " transform="matrix(3.779528,0,0,3.779528,0,0)"/>
<path style="fill:none;stroke-width:2;stroke-linecap:butt;stroke-linejoin:miter;stroke:rgb(0%,0%,0%);stroke-opacity:1;stroke-miterlimit:4;" d="M 165.499976 344.499902 L 191.500456 360.499959 L 209.500391 376.500016 L 223.499536 392.500073 L 231.500081 408.50013 L 235.499837 423.999959 L 236.000065 440.000016 L 216.000252 456.000073 " transform="matrix(3.779528,0,0,3.779528,0,0)"/>
<path style="fill:none;stroke-width:2;stroke-linecap:butt;stroke-linejoin:miter;stroke:rgb(0%,0%,0%);stroke-opacity:1;stroke-miterlimit:4;" d="M 143.000057 389.49974 L 127 384.000334 " transform="matrix(3.779528,0,0,3.779528,0,0)"/>
<path style="fill:none;stroke-width:2;stroke-linecap:butt;stroke-linejoin:miter;stroke:rgb(0%,0%,0%);stroke-opacity:1;stroke-miterlimit:4;" d="M 134.500317 378.499894 L 128.49965 362.499837 " transform="matrix(3.779528,0,0,3.779528,0,0)"/>
<path style="fill:none;stroke-width:2;stroke-linecap:butt;stroke-linejoin:miter;stroke:rgb(0%,0%,0%);stroke-opacity:1;stroke-miterlimit:4;" d="M 166.000203 338.000041 L 193.500334 354.000098 L 214.000374 370.500382 L 225.999642 386.500439 L 236.500293 402.000269 L 240.500049 417.500098 L 245.000033 438.000138 L 228.999976 454.000195 " transform="matrix(3.779528,0,0,3.779528,0,0)"/>
<path style="fill:none;stroke-width:2;stroke-linecap:butt;stroke-linejoin:miter;stroke:rgb(0%,0%,0%);stroke-opacity:1;stroke-miterlimit:4;" d="M 227.99952 384.499528 L 212.000496 364.499715 L 195.500212 352.500448 L 179.500155 343.000252 L 163.500098 334.999707 L 147.500041 334.999707 L 115.499927 339.999919 L 98.999642 342.500024 L 82.999585 344.499902 L 66.999528 348.499658 L 50.500277 356.500203 " transform="matrix(3.779528,0,0,3.779528,0,0)"/>
<path style="fill:none;stroke-width:2;stroke-linecap:butt;stroke-linejoin:miter;stroke:rgb(0%,0%,0%);stroke-opacity:1;stroke-miterlimit:4;" d="M 60.999894 348.499658 L 51.000505 364.499715 L 51.000505 379.999544 L 53.000382 395.500407 L 53.000382 411.500464 " transform="matrix(3.779528,0,0,3.779528,0,0)"/>
<path style="fill:none;stroke-width:2;stroke-linecap:butt;stroke-linejoin:miter;stroke:rgb(0%,0%,0%);stroke-opacity:1;stroke-miterlimit:4;" d="M 53.999805 457.499723 L 37.49952 457.499723 L 21.500496 453.499967 " transform="matrix(3.779528,0,0,3.779528,0,0)"/>
<path style="fill:none;stroke-width:2;stroke-linecap:butt;stroke-linejoin:miter;stroke:rgb(0%,0%,0%);stroke-opacity:1;stroke-miterlimit:4;" d="M 2.500106 459.000407 L 18.500163 463.500391 L 33.999992 465.500269 L 50.000049 467.500146 L 66.000106 470.000252 L 82.000163 472.00013 L 97.499992 468.000374 L 113.500049 467.500146 L 144.999935 467.500146 " transform="matrix(3.779528,0,0,3.779528,0,0)"/>
<path style="fill:none;stroke-width:2;stroke-linecap:butt;stroke-linejoin:miter;stroke:rgb(0%,0%,0%);stroke-opacity:1;stroke-miterlimit:4;" d="M 232.000309 509.49965 L 223.999764 503.500016 L 236.000065 487.499959 L 209.500391 509.49965 L 225.500448 493.499593 L 225.999642 483.500203 L 210.499813 495.000277 L 194.499756 502.999788 L 178.999927 504.500472 L 162.99987 506.50035 L 146.499585 509.000456 L 130.499528 509.000456 L 114.999699 509.49965 L 98.999642 509.49965 L 82.999585 507.499772 L 66.999528 507.499772 L 51.000505 505.499894 L 19.000391 496.499927 L 2.500106 494.500049 " transform="matrix(3.779528,0,0,3.779528,0,0)"/>
<path style="fill:none;stroke-width:2;stroke-linecap:butt;stroke-linejoin:miter;stroke:rgb(0%,0%,0%);stroke-opacity:1;stroke-miterlimit:4;" d="M 1.999878 475.499658 L 18.500163 477.499536 L 34.50022 479.500448 L 50.500277 481.99952 L 82.500391 481.99952 L 98.500448 484.000431 L 114.500505 484.000431 L 130.000334 483.500203 L 145.500163 481.500326 L 161.50022 481.000098 L 177.500277 479.00022 L 193.500334 477.999764 L 209.500391 474.500236 L 225.500448 464.499813 L 239.499593 450.999862 L 221.999886 466.499691 " transform="matrix(3.779528,0,0,3.779528,0,0)"/>
<path style="fill:none;stroke-width:2;stroke-linecap:butt;stroke-linejoin:miter;stroke:rgb(0%,0%,0%);stroke-opacity:1;stroke-miterlimit:4;" d="M 55.500488 454.000195 L 39.500431 451.50009 L 23.500374 449.500212 L 5.500439 448.999984 L 1.49965 452.99974 " transform="matrix(3.779528,0,0,3.779528,0,0)"/>
<path style="fill:none;stroke-width:2;stroke-linecap:butt;stroke-linejoin:miter;stroke:rgb(0%,0%,0%);stroke-opacity:1;stroke-miterlimit:4;" d="M 0.500228 425.499609 L 16.500285 423.499731 L 33.499764 421.499854 L 50.000049 417.500098 " transform="matrix(3.779528,0,0,3.779528,0,0)"/>
</g>
</svg>
