<svg xmlns="http://www.w3.org/2000/svg" width="512mm" height="512mm" viewBox="0 0 512 512" version="1.1"><polyline points="185.5,2.5,173.5,18.5,159.5,42.5,139.5,34.5,155.5,13.0" stroke="black" stroke-width="2" fill="none" />
<polyline points="156.0,29.5,172.0,11.5,168.0,7.0,148.0,13.0,136.5,29.5,124.5,45.5,104.5,63.0,84.5,79.0,72.5,95.0,84.5,111.5,96.5,127.5,100.5,143.5,94.5,153.5,110.5,155.0,126.5,157.0,142.5,161.0,158.0,167.0,173.5,175.5,189.5,173.5,205.0,173.5,221.0,179.5,237.5,175.5,253.5,175.5,275.5,176.0,291.5,176.0,307.5,177.5,318.0,179.5,306.0,195.0,294.0,211.0,282.0,231.0,272.0,257.0,258.0,273.0,244.0,289.0,232.5,305.5,238.5,287.5,254.5,267.5,263.0,249.5,279.5,256.0,299.5,236.0,316.0,220.5,340.0,202.5,355.5,206.5,371.5,212.5,387.5,226.5,403.5,246.5,411.5,228.5,429.5,208.5,425.5,198.5,419.5,214.5,427.0,186.5,447.0,169.0" stroke="black" stroke-width="2" fill="none" />
<polyline points="458.0,164.0,442.0,182.0" stroke="black" stroke-width="2" fill="none" />
<polyline points="472.5,207.0,488.0,177.0,504.0,157.5,502.0,159.5,490.0,175.5,478.0,191.5,472.0,207.5,472.5,224.0,480.5,226.5,482.5,198.5,504.0,186.5,504.5,188.0,492.0,204.0,483.5,220.0,483.5,230.0,495.0,230.0,487.0,250.0,486.5,266.5,480.5,283.0,488.5,295.0,483.0,301.0,483.0,317.0,495.5,303.0,509.5,293.0,500.0,297.0" stroke="black" stroke-width="2" fill="none" />
<polyline points="489.5,283.0,498.0,293.0,510.0,276.5" stroke="black" stroke-width="2" fill="none" />
<polyline points="510.5,276.0,494.5,296.0,474.5,298.0,458.0,304.0,442.0,305.5,426.0,293.5" stroke="black" stroke-width="2" fill="none" />
<polyline points="423.5,288.0,439.5,262.0,455.5,252.5" stroke="black" stroke-width="2" fill="none" />
<polyline points="460.5,248.5,439.0,264.5,433.0,283.0,429.0,299.5,419.0,315.5,429.0,323.5,421.0,333.5,441.0,311.5" stroke="black" stroke-width="2" fill="none" />
<polyline points="445.5,309.0,461.0,309.5,477.0,330.0" stroke="black" stroke-width="2" fill="none" />
<polyline points="466.0,304.5,482.5,329.0,498.5,347.5,508.5,318.0,498.5,334.5,494.0,350.5,508.5,318.5,504.5,334.5,502.5,350.5,490.5,366.5,492.5,382.5,494.5,398.5,493.0,414.5" stroke="black" stroke-width="2" fill="none" />
<polyline points="457.5,445.5,441.0,461.5" stroke="black" stroke-width="2" fill="none" />
<polyline points="433.5,476.0,425.5,492.0,411.0,508.5,431.0,496.5" stroke="black" stroke-width="2" fill="none" />
<polyline points="434.5,494.5,422.5,510.5" stroke="black" stroke-width="2" fill="none" />
<polyline points="410.0,473.5,409.5,457.5,409.5,441.5,412.0,426.0,426.5,410.0,412.5,397.5" stroke="black" stroke-width="2" fill="none" />
<polyline points="405.0,400.5,420.5,408.5,410.5,408.0,413.0,423.5,415.5,415.5,436.0,409.5,452.0,417.5" stroke="black" stroke-width="2" fill="none" />
<polyline points="470.0,418.5,454.0,412.5,438.0,406.5,422.0,398.5,406.0,388.0" stroke="black" stroke-width="2" fill="none" />
<polyline points="404.0,358.5,388.0,351.0" stroke="black" stroke-width="2" fill="none" />
<polyline points="384.0,348.0,400.0,346.0" stroke="black" stroke-width="2" fill="none" />
<polyline points="384.5,333.5,386.5,325.5,390.5,321.5,380.5,337.0,386.5,339.0,428.5,363.0" stroke="black" stroke-width="2" fill="none" />
<polyline points="454.0,357.0,450.0,340.5,444.5,325.0,438.5,309.5,414.5,307.0" stroke="black" stroke-width="2" fill="none" />
<polyline points="416.5,311.5,432.5,311.5" stroke="black" stroke-width="2" fill="none" />
<polyline points="427.0,306.0,425.0,321.5,439.0,323.5,445.0,340.0,449.0,356.5" stroke="black" stroke-width="2" fill="none" />
<polyline points="503.0,350.5,491.0,356.5,485.0,340.5,479.0,324.0,481.0,316.0,479.0,299.5,471.0,287.5,472.5,271.5,472.5,260.0,478.5,246.0,484.0,230.5,484.0,212.5,494.0,197.0,490.0,189.0,500.0,173.5,510.5,161.0,494.5,181.0" stroke="black" stroke-width="2" fill="none" />
<polyline points="483.0,198.5,476.5,214.5" stroke="black" stroke-width="2" fill="none" />
<polyline points="465.5,244.5,449.5,246.5,434.0,257.0,418.0,283.0" stroke="black" stroke-width="2" fill="none" />
<polyline points="441.0,282.0,457.0,270.0,443.0,274.0,445.0,272.0,461.0,268.0,481.0,260.0" stroke="black" stroke-width="2" fill="none" />
<polyline points="491.5,251.5,481.5,267.5,476.0,283.5,480.0,285.5,482.0,265.5,490.0,241.5" stroke="black" stroke-width="2" fill="none" />
<polyline points="494.5,270.5,485.0,286.5,469.0,302.5,467.0,318.5,477.5,334.0,481.5,349.5,485.5,365.0,487.5,381.0,487.5,397.0,485.5,412.5,502.0,394.5,504.0,384.5" stroke="black" stroke-width="2" fill="none" />
<polyline points="474.5,424.5,458.5,434.5,442.5,454.5,426.5,472.5,410.5,490.5,418.5,482.5,432.5,466.0,447.0,450.5,457.5,446.5,472.0,430.5,456.0,414.0,421.5,398.5,411.0,382.0,411.0,362.0,409.0,350.0,387.0,349.5,372.5,339.5,381.0,323.5,393.0,307.0,399.0,291.0,401.5,275.0,403.5,259.0,405.0,243.5,403.0,237.5,412.5,221.5,414.5,205.5,422.5,190.0,438.0,184.0,446.0,168.5,450.0,147.0,441.5,131.0,434.0,115.0,424.5,98.5,412.5,82.0,396.0,65.5,366.0,51.5,384.5,33.0,397.0,17.5,411.0,1.5,400.5,21.5,384.5,39.5" stroke="black" stroke-width="2" fill="none" />
<polyline points="409.0,69.5,390.5,53.5,370.5,51.5,354.5,50.0,338.0,52.0,321.5,57.5,305.0,63.5,289.0,49.5,273.0,31.0" stroke="black" stroke-width="2" fill="none" />
<polyline points="267.5,30.0,283.5,50.0,299.5,66.0,317.5,64.0,333.5,57.5,350.0,53.0" stroke="black" stroke-width="2" fill="none" />
<polyline points="334.0,52.0,305.5,68.0,280.0,82.5,296.0,76.5,312.5,80.0,328.5,97.5,345.0,120.0,361.0,148.0" stroke="black" stroke-width="2" fill="none" />
<polyline points="357.5,133.5,341.5,107.5,325.5,87.5,309.5,71.5" stroke="black" stroke-width="2" fill="none" />
<polyline points="282.0,22.0,298.0,24.0,314.0,26.0,330.0,14.0,336.0,8.0,323.5,24.0,338.0,38.0,354.0,43.5,370.0,47.5,386.5,55.0,402.5,69.0,418.0,87.0,434.0,71.5,450.0,59.5,456.0,47.5,472.0,27.5,486.0,7.5,482.5,12.0,472.5,14.5,460.5,30.5,446.0,46.5,434.5,62.0,420.0,78.0,429.5,106.0,445.5,134.0,459.0,122.0,475.0,102.0,480.5,86.5,466.5,103.0,454.5,119.0,455.0,119.0,471.0,99.0,487.5,83.0,487.5,109.0,476.0,125.0,466.0,141.0,460.5,156.5,450.0,172.5,434.0,192.0,430.5,204.0,422.5,219.5" stroke="black" stroke-width="2" fill="none" />
<polyline points="388.0,236.0,372.0,240.0,356.5,244.0,340.5,244.0,324.5,244.0,308.5,246.0,292.5,250.0,268.5,241.5,252.5,237.5" stroke="black" stroke-width="2" fill="none" />
<polyline points="259.5,234.5,255.5,236.5,281.5,258.5,279.5,274.5,283.5,290.0,292.0,306.0,305.5,322.0,319.5,338.0,325.5,350.0,335.5,366.0,345.5,382.0,353.5,398.0,359.0,414.5,359.0,430.5,353.5,446.5,363.5,462.5,373.5,478.5,375.5,494.0,375.5,510.0" stroke="black" stroke-width="2" fill="none" />
<polyline points="371.5,461.5,355.5,453.5" stroke="black" stroke-width="2" fill="none" />
<polyline points="353.5,410.0,337.5,377.5,322.0,353.5" stroke="black" stroke-width="2" fill="none" />
<polyline points="306.0,352.0,322.0,344.0,338.5,367.5,354.5,394.0" stroke="black" stroke-width="2" fill="none" />
<polyline points="368.0,342.5,384.0,354.5,400.0,368.0,416.0,356.0,432.0,365.5,448.5,373.0" stroke="black" stroke-width="2" fill="none" />
<polyline points="451.0,364.5,435.5,360.5,419.5,350.5,407.5,342.5,391.5,338.5,375.5,343.0" stroke="black" stroke-width="2" fill="none" />
<polyline points="372.5,333.5,388.5,313.5" stroke="black" stroke-width="2" fill="none" />
<polyline points="381.5,311.0,365.5,331.0" stroke="black" stroke-width="2" fill="none" />
<polyline points="315.5,329.5,299.0,314.0,283.0,288.0" stroke="black" stroke-width="2" fill="none" />
<polyline points="278.0,285.5,293.5,315.5,309.5,329.0" stroke="black" stroke-width="2" fill="none" />
<polyline points="298.0,352.0,320.0,350.0,330.0,366.0,340.5,382.0,350.5,398.5,354.5,414.0,360.5,432.5,359.0,448.5,372.5,465.0,380.5,480.5,380.5,496.5" stroke="black" stroke-width="2" fill="none" />
<polyline points="418.0,474.5,431.5,458.5,443.5,442.5,458.0,426.0,432.0,410.5" stroke="black" stroke-width="2" fill="none" />
<polyline points="303.5,382.5,287.5,371.0" stroke="black" stroke-width="2" fill="none" />
<polyline points="281.5,375.5,281.5,391.5,279.5,407.5,279.5,424.0,271.0,440.5" stroke="black" stroke-width="2" fill="none" />
<polyline points="266.5,447.5,251.0,451.5,235.0,450.0,219.0,442.0,203.0,432.5,186.5,424.5,170.5,413.0,154.0,403.0,138.0,375.0" stroke="black" stroke-width="2" fill="none" />
<polyline points="133.0,372.5,149.0,402.5,165.0,416.5,181.5,426.5,197.5,436.5,213.5,444.5" stroke="black" stroke-width="2" fill="none" />
<polyline points="243.5,417.0,255.0,401.0,263.0,385.0,274.5,368.5,264.0,389.0" stroke="black" stroke-width="2" fill="none" />
<polyline points="292.5,415.0,284.0,431.5,272.0,447.5" stroke="black" stroke-width="2" fill="none" />
<polyline points="288.5,449.0,272.5,473.0,257.0,493.0,255.0,505.0,255.0,496.5,267.0,480.0,281.5,463.5,289.5,447.0,293.5,430.5,295.5,414.0" stroke="black" stroke-width="2" fill="none" />
<polyline points="303.5,370.5,297.5,353.0,281.5,365.0,265.0,385.0,249.0,417.0,233.0,413.0,217.0,407.0,201.0,399.0,184.5,387.5,168.5,367.0,152.5,361.0,136.5,365.0" stroke="black" stroke-width="2" fill="none" />
<polyline points="137.0,363.5,141.0,379.5,149.0,395.5,166.5,411.5,194.0,427.0,222.0,443.0,220.0,459.0,206.0,475.5,192.0,492.0,178.0,508.5,180.0,498.5,196.0,478.0,212.0,459.5,228.0,451.5,243.5,457.5,259.5,455.5,275.5,443.0,292.0,415.0" stroke="black" stroke-width="2" fill="none" />
<polyline points="304.0,381.5,296.0,365.5" stroke="black" stroke-width="2" fill="none" />
<polyline points="250.0,326.5,270.0,303.0,255.5,319.0,247.5,335.0,240.0,350.5,230.0,366.0,223.5,388.0,221.0,382.0,237.0,354.0,237.5,344.0" stroke="black" stroke-width="2" fill="none" />
<polyline points="222.0,355.0,238.0,329.0,254.5,313.0,270.0,299.0,256.0,311.0,243.5,326.5,227.5,342.5,221.0,358.5,221.0,374.0,208.5,389.5,212.5,399.5,222.5,403.5,239.0,409.5,255.5,387.5,271.5,363.5,288.0,349.5,304.0,330.0" stroke="black" stroke-width="2" fill="none" />
<polyline points="323.0,322.5,325.0,306.5,325.0,290.5" stroke="black" stroke-width="2" fill="none" />
<polyline points="324.0,249.5,324.5,265.5,324.5,281.5,320.5,298.0,318.5,314.0,314.5,336.0,304.5,338.0,298.5,346.0,284.0,365.5,287.5,369.5,307.5,381.0,313.5,397.0,315.5,414.0,315.5,430.5,315.5,446.5,311.5,463.0,306.0,478.5,302.0,494.5,302.0,510.0" stroke="black" stroke-width="2" fill="none" />
<polyline points="212.0,468.0,196.0,488.0,180.5,505.5,178.5,499.5,192.5,483.0,204.0,467.5,220.0,452.0,192.0,434.0,166.0,418.5,146.0,424.5,130.0,444.0,120.0,468.0,120.0,480.0,110.0,475.5,124.0,460.0,132.0,442.0,144.5,426.5,157.0,411.0,147.0,433.0,131.0,451.0" stroke="black" stroke-width="2" fill="none" />
<polyline points="146.0,432.0,131.5,448.0,117.0,473.5" stroke="black" stroke-width="2" fill="none" />
<polyline points="109.5,468.0,95.0,484.0,79.0,499.5,73.0,507.5,89.0,489.5,104.5,471.5" stroke="black" stroke-width="2" fill="none" />
<polyline points="99.5,403.0,83.5,423.0,62.0,451.0,46.0,470.5,30.0,489.0,14.0,509.0,22.0,501.5,34.0,485.5,48.0,469.0,60.0,453.0,71.5,436.5,85.5,420.5,97.5,404.0,111.5,388.0" stroke="black" stroke-width="2" fill="none" />
<polyline points="106.0,389.0,90.0,407.0,74.5,427.0,58.0,447.0,42.0,467.0,26.0,487.0,10.0,505.0,14.0,500.5,28.0,484.0,39.5,467.5,53.5,451.5,65.5,435.5,79.5,419.0,91.5,403.0,105.5,387.0" stroke="black" stroke-width="2" fill="none" />
<polyline points="131.5,362.5,147.0,356.5,163.0,356.5,178.5,366.0,194.0,388.0,210.0,389.5" stroke="black" stroke-width="2" fill="none" />
<polyline points="223.0,409.0,193.0,393.0,181.0,377.5,161.0,362.0" stroke="black" stroke-width="2" fill="none" />
<polyline points="165.0,358.0,183.0,374.0,195.0,389.5" stroke="black" stroke-width="2" fill="none" />
<polyline points="149.5,412.5,133.5,430.5,117.5,450.5,101.0,468.5,84.5,486.5,68.5,505.0,72.5,501.0,87.0,485.0,101.5,468.5,115.5,452.0,130.0,436.0,142.5,419.5,149.0,404.0,139.5,388.0,131.5,372.0,143.5,356.0" stroke="black" stroke-width="2" fill="none" />
<polyline points="146.0,331.5,130.0,349.5,114.0,367.0,97.5,385.5,81.0,401.5,65.5,419.5,49.5,435.5,33.5,453.5,17.5,469.5,1.5,484.0,17.5,470.0,33.5,453.5,47.5,437.5,64.0,421.5,80.0,405.5,94.5,389.5,111.0,373.5,125.0,358.0,137.0,342.0,153.0,326.5" stroke="black" stroke-width="2" fill="none" />
<polyline points="152.5,323.5,136.5,335.0,120.5,353.0,104.5,371.0,88.5,387.5,72.5,405.5,56.0,421.0,40.0,439.0,24.0,457.5,8.0,471.5,12.0,467.5,28.0,451.0,44.0,435.5,58.0,419.5,74.5,404.0,88.5,387.5,105.0,371.5,119.5,356.0,134.0,340.0,148.0,324.0" stroke="black" stroke-width="2" fill="none" />
<polyline points="177.0,309.5,179.0,293.5,185.0,277.5,197.0,261.5,179.0,288.0" stroke="black" stroke-width="2" fill="none" />
<polyline points="174.5,284.5,190.5,262.0,188.5,263.5,176.5,279.5,172.0,295.0,172.0,311.5,185.5,317.5,179.5,321.5" stroke="black" stroke-width="2" fill="none" />
<polyline points="160.0,261.0,162.0,251.0,162.0,235.0,177.5,233.0,179.5,223.0,185.5,207.5,193.5,207.5,206.0,192.0,218.0,176.5,208.0,198.5,192.0,216.5" stroke="black" stroke-width="2" fill="none" />
<polyline points="188.5,196.5,174.5,212.5,160.5,228.5,156.5,244.5,158.5,260.5" stroke="black" stroke-width="2" fill="none" />
<polyline points="134.5,247.0,120.5,263.5,110.0,279.5,104.0,295.5,106.0,312.0" stroke="black" stroke-width="2" fill="none" />
<polyline points="106.5,286.0,122.5,262.0,114.5,287.5,106.0,275.0,122.0,253.0,125.5,255.0" stroke="black" stroke-width="2" fill="none" />
<polyline points="126.5,245.5,112.5,261.5,103.5,277.5,100.0,293.5,100.0,309.5,110.0,314.0" stroke="black" stroke-width="2" fill="none" />
<polyline points="43.0,307.5,28.5,324.0,17.0,340.0,13.0,338.0,29.0,314.0" stroke="black" stroke-width="2" fill="none" />
<polyline points="33.0,323.5,25.0,339.5,18.5,350.0" stroke="black" stroke-width="2" fill="none" />
<polyline points="13.5,346.0,29.5,320.0,32.0,310.0,18.0,326.0,10.0,342.5,8.0,362.5" stroke="black" stroke-width="2" fill="none" />
<polyline points="51.5,263.0,55.5,247.0" stroke="black" stroke-width="2" fill="none" />
<polyline points="54.0,246.0,48.0,265.5,41.5,261.5,51.5,245.5" stroke="black" stroke-width="2" fill="none" />
<polyline points="90.0,230.0,94.0,208.5,110.0,186.0,125.5,172.0,147.5,159.5" stroke="black" stroke-width="2" fill="none" />
<polyline points="136.5,162.5,169.0,178.5" stroke="black" stroke-width="2" fill="none" />
<polyline points="189.5,195.5,173.5,209.5,157.5,232.0" stroke="black" stroke-width="2" fill="none" />
<polyline points="130.0,174.0,114.0,190.0,108.0,206.0,102.0,220.5,96.0,232.5,94.0,248.5" stroke="black" stroke-width="2" fill="none" />
<polyline points="119.5,183.0,103.0,215.5,95.0,231.5,86.5,247.5,86.5,250.0,84.5,234.0,87.0,218.5,97.0,202.5,109.5,186.5,127.5,170.5" stroke="black" stroke-width="2" fill="none" />
<polyline points="96.0,114.5,80.0,94.5" stroke="black" stroke-width="2" fill="none" />
<polyline points="77.5,92.0,93.5,80.0,109.5,68.0,126.0,55.5,142.5,49.5,158.5,43.5,174.5,39.5,190.5,35.5,206.0,31.5,221.5,29.5,237.5,27.5,253.5,27.5,269.5,25.5,285.5,27.5,302.0,29.5,318.0,31.5,336.0,31.5,351.5,37.0,367.0,41.0,383.5,33.0,400.0,13.0" stroke="black" stroke-width="2" fill="none" />
<polyline points="414.0,1.0,404.0,17.5,390.0,33.5,380.0,47.5,394.0,55.5,410.0,71.5,426.0,71.5,442.5,51.5,458.5,31.5,475.0,11.5" stroke="black" stroke-width="2" fill="none" />
<polyline points="490.5,25.5,501.0,23.5,489.0,39.5,477.0,55.5,465.0,71.5,453.0,87.5,433.0,99.5,448.5,125.5" stroke="black" stroke-width="2" fill="none" />
<polyline points="468.0,127.5,478.0,111.5,492.0,95.5,506.0,89.5,504.5,81.5,488.5,101.5,472.5,113.5,458.5,143.5,442.5,117.5,432.5,101.5,422.5,85.5,436.5,69.5,446.5,60.0,456.5,48.5,470.0,32.5,480.0,32.5,494.5,16.5,510.5,16.5,494.5,30.5" stroke="black" stroke-width="2" fill="none" />
<polyline points="490.5,27.0,478.5,42.5,464.5,58.5,452.5,74.5,438.5,90.5,434.5,88.5,461.0,68.5,477.0,56.5,493.5,34.0,509.0,24.0" stroke="black" stroke-width="2" fill="none" />
<polyline points="511.5,21.5,495.5,37.5,485.5,53.5,473.5,69.0,461.5,85.0,449.5,100.5,448.0,78.5,454.5,78.0,461.0,56.0,471.5,50.0,488.0,32.0,488.0,24.0,503.5,6.0" stroke="black" stroke-width="2" fill="none" />
<polyline points="510.0,3.5,498.0,19.5,482.0,22.0,470.0,38.0,468.0,45.5" stroke="black" stroke-width="2" fill="none" />
<polyline points="449.5,68.5,431.5,84.5,431.5,92.5,455.5,90.5,471.5,70.5,487.5,48.0,502.0,54.0" stroke="black" stroke-width="2" fill="none" />
<polyline points="495.0,114.5,495.0,130.5,487.0,132.0,487.0,147.5" stroke="black" stroke-width="2" fill="none" />
<polyline points="482.0,145.5,484.0,130.0,492.5,114.0,484.5,126.0" stroke="black" stroke-width="2" fill="none" />
<polyline points="445.0,162.0,429.0,166.0,413.0,168.0,397.0,172.0,381.0,178.0,365.0,178.0,349.0,178.0,333.5,178.0,317.5,188.0,334.0,200.0,328.5,200.0,312.5,201.5" stroke="black" stroke-width="2" fill="none" />
<polyline points="334.5,204.5,314.5,220.5,298.5,236.5,278.5,258.5,276.5,274.5,278.5,290.5,286.0,306.0,298.0,322.0,296.0,337.5,280.0,354.0,266.0,370.0,257.5,386.0,249.0,401.5" stroke="black" stroke-width="2" fill="none" />
<polyline points="246.0,304.0,244.0,308.5,254.0,292.5" stroke="black" stroke-width="2" fill="none" />
<polyline points="252.5,296.5,238.5,306.5,241.0,304.5,257.0,288.5" stroke="black" stroke-width="2" fill="none" />
<polyline points="277.5,250.5,261.5,244.5" stroke="black" stroke-width="2" fill="none" />
<polyline points="307.5,238.5,323.5,234.5,339.5,233.0,355.5,233.0,371.0,233.0" stroke="black" stroke-width="2" fill="none" />
<polyline points="371.5,236.0,356.0,238.5,340.0,238.5,324.0,238.0,308.0,239.5" stroke="black" stroke-width="2" fill="none" />
<polyline points="342.0,211.0,370.0,215.0,381.5,225.0,395.5,241.0,393.5,249.0,395.5,265.0,395.0,280.5,391.0,296.5,381.5,312.0,369.5,328.0,367.5,344.0,389.0,360.0,401.0,375.5,405.0,391.5,405.0,407.5,406.5,423.5,404.5,439.5,404.5,455.5,404.5,471.5,405.0,487.5,405.0,503.0,419.0,497.5,421.0,483.5,423.5,481.5,412.0,482.0,428.5,462.0,444.5,441.5" stroke="black" stroke-width="2" fill="none" />
<polyline points="432.5,360.0,423.0,344.0,429.0,330.0,414.5,324.0,414.5,307.5,418.0,291.5,429.5,275.5,433.0,259.5,459.0,244.0" stroke="black" stroke-width="2" fill="none" />
<polyline points="358.5,145.0,348.5,129.5,338.5,113.0,326.5,97.0,313.0,81.5,295.0,71.5,278.5,77.0,262.5,83.0,246.5,75.0,230.0,65.0,214.0,57.5,197.5,50.0,181.0,45.5" stroke="black" stroke-width="2" fill="none" />
<polyline points="180.0,42.5,196.0,44.0,212.0,51.5,228.0,59.5,243.5,67.5,259.5,77.5" stroke="black" stroke-width="2" fill="none" />
<polyline points="257.0,82.0,227.0,66.5,195.0,50.5" stroke="black" stroke-width="2" fill="none" />
<polyline points="199.0,47.0,230.5,63.0,261.0,79.0,276.5,99.0,274.5,114.5,274.0,130.5,274.5,146.5,275.0,162.0,267.5,184.0,267.5,199.5,267.5,216.0,251.5,232.0,257.5,248.0,259.0,264.0,244.5,279.5,232.0,296.0,227.5,310.0,243.5,290.5,259.0,271.0" stroke="black" stroke-width="2" fill="none" />
<polyline points="226.5,177.5,214.0,193.5,200.0,209.5,186.0,225.0,168.0,243.0,176.5,232.5,186.5,224.5,198.0,202.5,214.0,182.5" stroke="black" stroke-width="2" fill="none" />
<polyline points="368.5,217.5,352.5,215.5,350.5,210.0,322.0,206.0,305.5,210.0,289.0,222.0,296.5,216.0,312.5,196.5,323.0,180.0,301.0,204.0,285.0,218.5,274.5,226.0,272.5,210.5,272.5,194.5,272.5,179.0,264.5,157.0,265.0,141.0,265.0,125.5,265.0,109.0,263.0,93.0,287.0,75.0,288.0,57.0,272.0,40.5,274.5,18.5,286.5,2.0,287.0,4.0,271.5,19.5,256.0,22.0,245.5,15.5,241.5,11.5,251.5,7.5,237.5,15.5,221.0,25.5,205.0,27.5,196.5,22.0,210.5,6.0,216.0,12.5,206.0,11.0,190.0,31.0,174.0,34.5,158.0,38.5,142.0,44.5,125.5,50.5,149.5,40.5,161.5,22.5,177.0,6.5,174.5,16.5,158.5,33.0" stroke="black" stroke-width="2" fill="none" />
<polyline points="112.0,14.5,97.5,30.0,85.5,45.5,73.5,61.5,76.0,60.0,92.0,40.0,108.0,20.0" stroke="black" stroke-width="2" fill="none" />
<polyline points="71.5,89.0,87.5,75.0,103.5,64.0,119.5,54.5,135.5,30.5,151.5,9.0,156.0,12.5,144.0,28.5,128.0,54.0,105.5,70.0,86.0,86.0,84.0,102.0,96.5,117.5,106.5,134.0,105.0,150.0,119.0,152.0,135.0,154.5,150.5,160.5,166.0,166.0,182.0,170.0,198.5,170.0,214.5,170.0,230.5,170.0,246.0,170.0,262.0,170.5,288.0,172.5,304.0,172.5,320.0,172.5,336.0,172.5,352.0,172.5,367.5,172.5,384.0,172.5,400.0,166.5,416.5,162.5,432.5,160.5,449.0,158.0,465.5,144.0,481.5,118.0,490.0,108.0,505.5,92.0,505.5,82.0,489.5,88.0,475.0,104.5,463.0,120.5,452.5,136.0" stroke="black" stroke-width="2" fill="none" />
<polyline points="349.5,5.5,333.5,25.5,340.0,17.5,352.0,1.5" stroke="black" stroke-width="2" fill="none" />
<polyline points="291.0,2.0,279.5,18.0,277.0,39.5,295.5,55.5,317.5,79.5,332.0,95.5,344.0,111.5,354.5,128.0,362.5,144.0" stroke="black" stroke-width="2" fill="none" />
<polyline points="241.5,17.0,253.5,1.0" stroke="black" stroke-width="2" fill="none" />
<polyline points="225.0,1.5,215.0,17.5,207.5,17.5,219.5,13.5" stroke="black" stroke-width="2" fill="none" />
<polyline points="91.0,116.5,75.0,96.5" stroke="black" stroke-width="2" fill="none" />
<polyline points="47.0,96.5,59.5,80.5,65.5,66.5,77.5,50.5,91.0,34.5,103.0,18.5,105.0,4.5,89.0,26.0,73.0,46.0,57.0,65.5,41.0,85.5,28.5,121.5,38.5,106.0,32.5,102.0,40.0,86.5,54.0,70.5,66.0,55.0,78.0,39.0,92.0,23.5,102.5,7.0,118.5,11.0,114.5,7.0,98.5,22.5,82.5,44.5,66.5,65.0,54.5,86.5,39.0,93.0,27.5,125.0,21.5,117.0,25.5,100.5,37.5,84.5,49.5,68.5,61.0,52.5,74.5,36.5,86.5,20.5,98.5,5.0,86.0,20.5,69.5,40.5,53.0,60.0,37.0,79.5,21.0,103.5" stroke="black" stroke-width="2" fill="none" />
<polyline points="6.0,179.5,22.0,153.5,38.0,137.5,50.0,131.5,38.0,138.0,22.0,154.0,11.5,170.0,5.5,185.5,5.5,201.5,11.0,200.0" stroke="black" stroke-width="2" fill="none" />
<polyline points="9.0,190.0,15.5,174.0,25.5,157.5,40.0,141.5,26.0,157.0,10.0,185.0" stroke="black" stroke-width="2" fill="none" />
</svg>