<?xml version="1.0" encoding="UTF-8"?>
<svg xmlns="http://www.w3.org/2000/svg" xmlns:xlink="http://www.w3.org/1999/xlink" width="1935.11811" height="1935.11811" viewBox="0 0 1935.11811 1935.11811" version="1.1">
<g id="surface1">
<path style="fill:none;stroke-width:2;stroke-linecap:butt;stroke-linejoin:miter;stroke:rgb(0%,0%,0%);stroke-opacity:1;stroke-miterlimit:4;" d="M 205.499601 28.499552 L 201.499845 30.500464 L 195.500212 46.499487 L 189.499544 62.499544 L 181.500033 78.999829 L 181.500033 94.999886 L 185.499788 127 L 184.999561 143.000057 L 189.00035 154.50013 L 204.500179 148.500496 L 221.000464 148.500496 L 236.999487 146.499585 L 252.999544 146.499585 L 269.499829 148.000269 L 285.499886 145.500163 L 301.499943 144.999935 " transform="matrix(3.779528,0,0,3.779528,0,0)"/>
<path style="fill:none;stroke-width:2;stroke-linecap:butt;stroke-linejoin:miter;stroke:rgb(0%,0%,0%);stroke-opacity:1;stroke-miterlimit:4;" d="M 274.500041 155.499552 L 290.500098 171.499609 L 306.500155 177.500277 L 322.500212 182.999683 " transform="matrix(3.779528,0,0,3.779528,0,0)"/>
<path style="fill:none;stroke-width:2;stroke-linecap:butt;stroke-linejoin:miter;stroke:rgb(0%,0%,0%);stroke-opacity:1;stroke-miterlimit:4;" d="M 293.999626 197.50009 L 309.999683 205.499601 L 318.000228 223.999764 L 326.499967 227.99952 L 332.499601 234.000187 L 338.500269 254 L 348.499658 264.000423 L 348.499658 246.000488 L 342.500024 254 " transform="matrix(3.779528,0,0,3.779528,0,0)"/>
<path style="fill:none;stroke-width:2;stroke-linecap:butt;stroke-linejoin:miter;stroke:rgb(0%,0%,0%);stroke-opacity:1;stroke-miterlimit:4;" d="M 344.499902 237.499715 L 357.999854 253.499772 L 379.999544 255.49965 " transform="matrix(3.779528,0,0,3.779528,0,0)"/>
<path style="fill:none;stroke-width:2;stroke-linecap:butt;stroke-linejoin:miter;stroke:rgb(0%,0%,0%);stroke-opacity:1;stroke-miterlimit:4;" d="M 348.000464 214.999797 L 325.99974 198.499512 L 320.500334 198.99974 L 302.500399 185.499788 L 286.500342 178.999927 " transform="matrix(3.779528,0,0,3.779528,0,0)"/>
<path style="fill:none;stroke-width:2;stroke-linecap:butt;stroke-linejoin:miter;stroke:rgb(0%,0%,0%);stroke-opacity:1;stroke-miterlimit:4;" d="M 291.49952 191.99965 L 307.499577 198.000317 L 323.499634 208.499935 L 339.999919 220.500236 " transform="matrix(3.779528,0,0,3.779528,0,0)"/>
<path style="fill:none;stroke-width:2;stroke-linecap:butt;stroke-linejoin:miter;stroke:rgb(0%,0%,0%);stroke-opacity:1;stroke-miterlimit:4;" d="M 327.000195 233.499959 L 327.500423 215.500024 L 311.000138 225.500448 " transform="matrix(3.779528,0,0,3.779528,0,0)"/>
<path style="fill:none;stroke-width:2;stroke-linecap:butt;stroke-linejoin:miter;stroke:rgb(0%,0%,0%);stroke-opacity:1;stroke-miterlimit:4;" d="M 280.00048 218.00013 L 273.999813 207.999707 " transform="matrix(3.779528,0,0,3.779528,0,0)"/>
<path style="fill:none;stroke-width:2;stroke-linecap:butt;stroke-linejoin:miter;stroke:rgb(0%,0%,0%);stroke-opacity:1;stroke-miterlimit:4;" d="M 289.499642 201.499845 L 289.499642 248.999788 " transform="matrix(3.779528,0,0,3.779528,0,0)"/>
<path style="fill:none;stroke-width:2;stroke-linecap:butt;stroke-linejoin:miter;stroke:rgb(0%,0%,0%);stroke-opacity:1;stroke-miterlimit:4;" d="M 277.999569 271.999935 L 255.999878 260.499862 L 239.999821 260.499862 " transform="matrix(3.779528,0,0,3.779528,0,0)"/>
<path style="fill:none;stroke-width:2;stroke-linecap:butt;stroke-linejoin:miter;stroke:rgb(0%,0%,0%);stroke-opacity:1;stroke-miterlimit:4;" d="M 231.500081 274.500041 L 247.500138 274.500041 L 263.500195 266.999723 L 277.500374 262.999967 " transform="matrix(3.779528,0,0,3.779528,0,0)"/>
<path style="fill:none;stroke-width:2;stroke-linecap:butt;stroke-linejoin:miter;stroke:rgb(0%,0%,0%);stroke-opacity:1;stroke-miterlimit:4;" d="M 269.499829 283.500008 L 259.500439 299.500065 " transform="matrix(3.779528,0,0,3.779528,0,0)"/>
<path style="fill:none;stroke-width:2;stroke-linecap:butt;stroke-linejoin:miter;stroke:rgb(0%,0%,0%);stroke-opacity:1;stroke-miterlimit:4;" d="M 258.499984 302.000171 L 242.499927 299.500065 L 238.500171 289.499642 L 240.500049 285.499886 " transform="matrix(3.779528,0,0,3.779528,0,0)"/>
<path style="fill:none;stroke-width:2;stroke-linecap:butt;stroke-linejoin:miter;stroke:rgb(0%,0%,0%);stroke-opacity:1;stroke-miterlimit:4;" d="M 237.499715 289.499642 L 253.499772 297.500187 " transform="matrix(3.779528,0,0,3.779528,0,0)"/>
<path style="fill:none;stroke-width:2;stroke-linecap:butt;stroke-linejoin:miter;stroke:rgb(0%,0%,0%);stroke-opacity:1;stroke-miterlimit:4;" d="M 232.000309 287.499764 L 230.000431 280.00048 L 236.000065 296.499731 L 264.000423 288.50022 L 253.499772 289.99987 L 259.500439 271.999935 L 264.000423 282.000358 L 271.999935 279.500252 L 283.500008 289.000448 L 275.999691 305.000505 L 268.000179 318.99965 L 282.000358 325.000317 L 269.499829 340.500146 " transform="matrix(3.779528,0,0,3.779528,0,0)"/>
<path style="fill:none;stroke-width:2;stroke-linecap:butt;stroke-linejoin:miter;stroke:rgb(0%,0%,0%);stroke-opacity:1;stroke-miterlimit:4;" d="M 284.500464 351.499992 L 300.499487 350.000342 L 316.00035 350.000342 " transform="matrix(3.779528,0,0,3.779528,0,0)"/>
<path style="fill:none;stroke-width:2;stroke-linecap:butt;stroke-linejoin:miter;stroke:rgb(0%,0%,0%);stroke-opacity:1;stroke-miterlimit:4;" d="M 320.999528 361.500415 L 304.500277 355.499748 L 288.50022 355.499748 " transform="matrix(3.779528,0,0,3.779528,0,0)"/>
<path style="fill:none;stroke-width:2;stroke-linecap:butt;stroke-linejoin:miter;stroke:rgb(0%,0%,0%);stroke-opacity:1;stroke-miterlimit:4;" d="M 293.999626 333.500057 L 288.50022 349.500114 L 284.500464 367.500049 L 284.500464 400.000391 L 286.500342 416.000448 L 284.500464 434.000382 L 284.500464 450.000439 L 277.999569 465.500269 L 281.50013 481.500326 L 291.49952 499.000033 " transform="matrix(3.779528,0,0,3.779528,0,0)"/>
<path style="fill:none;stroke-width:2;stroke-linecap:butt;stroke-linejoin:miter;stroke:rgb(0%,0%,0%);stroke-opacity:1;stroke-miterlimit:4;" d="M 295.999504 504.500472 L 280.00048 477.999764 " transform="matrix(3.779528,0,0,3.779528,0,0)"/>
<path style="fill:none;stroke-width:2;stroke-linecap:butt;stroke-linejoin:miter;stroke:rgb(0%,0%,0%);stroke-opacity:1;stroke-miterlimit:4;" d="M 286.000114 448.999984 L 302.000171 443.00035 L 297.500187 452.499512 L 289.499642 468.499569 L 289.99987 466.999919 L 305.999927 445.000228 L 323.999862 436.999683 L 339.499691 439.499788 " transform="matrix(3.779528,0,0,3.779528,0,0)"/>
<path style="fill:none;stroke-width:2;stroke-linecap:butt;stroke-linejoin:miter;stroke:rgb(0%,0%,0%);stroke-opacity:1;stroke-miterlimit:4;" d="M 341.000374 439.499788 L 352.500448 456.000073 " transform="matrix(3.779528,0,0,3.779528,0,0)"/>
<path style="fill:none;stroke-width:2;stroke-linecap:butt;stroke-linejoin:miter;stroke:rgb(0%,0%,0%);stroke-opacity:1;stroke-miterlimit:4;" d="M 358.500081 469.500024 L 343.000252 475.999886 L 327.500423 479.999642 L 315.500122 490.000065 L 345.500358 474.000008 " transform="matrix(3.779528,0,0,3.779528,0,0)"/>
<path style="fill:none;stroke-width:2;stroke-linecap:butt;stroke-linejoin:miter;stroke:rgb(0%,0%,0%);stroke-opacity:1;stroke-miterlimit:4;" d="M 350.499536 477.499536 L 334.999707 485.500081 L 320.999528 491.999943 L 354.99952 475.999886 " transform="matrix(3.779528,0,0,3.779528,0,0)"/>
<path style="fill:none;stroke-width:2;stroke-linecap:butt;stroke-linejoin:miter;stroke:rgb(0%,0%,0%);stroke-opacity:1;stroke-miterlimit:4;" d="M 366.999821 486.499504 L 350.499536 500.99991 L 334.500513 506.999544 L 317.5 510.500106 L 351.499992 499.000033 L 369.499927 482.499748 L 375.999788 470.50048 L 359.999731 466.499691 L 344.499902 470.50048 L 323.999862 468.499569 L 317.5 468.499569 L 313.500244 452.499512 L 303.499821 458.500179 L 295.500309 474.500236 L 304.000049 457.999951 L 310.49991 441.999894 L 330.999951 427.999715 L 332.999829 439.499788 L 317.5 443.00035 " transform="matrix(3.779528,0,0,3.779528,0,0)"/>
<path style="fill:none;stroke-width:2;stroke-linecap:butt;stroke-linejoin:miter;stroke:rgb(0%,0%,0%);stroke-opacity:1;stroke-miterlimit:4;" d="M 311.999561 445.99965 L 327.999618 470.000252 " transform="matrix(3.779528,0,0,3.779528,0,0)"/>
<path style="fill:none;stroke-width:2;stroke-linecap:butt;stroke-linejoin:miter;stroke:rgb(0%,0%,0%);stroke-opacity:1;stroke-miterlimit:4;" d="M 359.000309 453.499967 L 345.00013 438.000138 " transform="matrix(3.779528,0,0,3.779528,0,0)"/>
<path style="fill:none;stroke-width:2;stroke-linecap:butt;stroke-linejoin:miter;stroke:rgb(0%,0%,0%);stroke-opacity:1;stroke-miterlimit:4;" d="M 350.999764 434.000382 L 334.999707 416.000448 L 318.99965 416.000448 L 302.999593 418.000326 " transform="matrix(3.779528,0,0,3.779528,0,0)"/>
<path style="fill:none;stroke-width:2;stroke-linecap:butt;stroke-linejoin:miter;stroke:rgb(0%,0%,0%);stroke-opacity:1;stroke-miterlimit:4;" d="M 280.00048 422.999504 L 295.999504 420.500431 L 298.499609 413.999536 L 314.499666 411.999658 L 341.000374 413.500342 L 357.000431 433.500155 L 373.499683 455.499845 " transform="matrix(3.779528,0,0,3.779528,0,0)"/>
<path style="fill:none;stroke-width:2;stroke-linecap:butt;stroke-linejoin:miter;stroke:rgb(0%,0%,0%);stroke-opacity:1;stroke-miterlimit:4;" d="M 357.499626 459.000407 L 341.499569 465.000041 L 325.499512 475.000464 L 309.500488 475.499658 L 311.500366 481.99952 L 348.999886 462.499935 L 357.000431 446.499878 L 345.00013 430.499821 L 330.499723 414.499764 " transform="matrix(3.779528,0,0,3.779528,0,0)"/>
<path style="fill:none;stroke-width:2;stroke-linecap:butt;stroke-linejoin:miter;stroke:rgb(0%,0%,0%);stroke-opacity:1;stroke-miterlimit:4;" d="M 334.999707 346.49978 L 318.99965 328.499845 L 303.499821 328.499845 L 287.499764 318.500456 L 273.499585 328.499845 L 257.499528 326.499967 L 241.500505 323.000439 " transform="matrix(3.779528,0,0,3.779528,0,0)"/>
<path style="fill:none;stroke-width:2;stroke-linecap:butt;stroke-linejoin:miter;stroke:rgb(0%,0%,0%);stroke-opacity:1;stroke-miterlimit:4;" d="M 261.999512 310.49991 L 275.999691 295.000081 L 282.000358 279.000024 L 271.499707 302.999593 L 255.49965 314.999894 L 239.499593 308.500033 L 223.499536 291.000326 " transform="matrix(3.779528,0,0,3.779528,0,0)"/>
<path style="fill:none;stroke-width:2;stroke-linecap:butt;stroke-linejoin:miter;stroke:rgb(0%,0%,0%);stroke-opacity:1;stroke-miterlimit:4;" d="M 218.999552 295.999504 L 239.000399 314.000472 L 255.49965 317.5 L 271.499707 309.999683 " transform="matrix(3.779528,0,0,3.779528,0,0)"/>
<path style="fill:none;stroke-width:2;stroke-linecap:butt;stroke-linejoin:miter;stroke:rgb(0%,0%,0%);stroke-opacity:1;stroke-miterlimit:4;" d="M 286.500342 319.499878 L 280.499674 335.499935 L 283.500008 351.499992 L 280.00048 367.500049 L 277.999569 383.500106 L 280.00048 400.000391 L 282.000358 416.000448 L 278.499797 431.500277 L 274.500041 447.500334 L 286.000114 443.00035 L 302.000171 438.999561 L 318.000228 432.999927 L 334.000285 427.499487 L 349.500114 443.499544 " transform="matrix(3.779528,0,0,3.779528,0,0)"/>
<path style="fill:none;stroke-width:2;stroke-linecap:butt;stroke-linejoin:miter;stroke:rgb(0%,0%,0%);stroke-opacity:1;stroke-miterlimit:4;" d="M 289.99987 506.000122 L 274.500041 477.999764 L 257.999756 444.5 L 256.500106 436.500488 L 230.499626 448.499756 L 210.499813 479.999642 L 193.999528 505.499894 L 186.000016 491.499715 L 205.999829 467.500146 L 216.000252 451.50009 L 216.000252 435.500033 L 214.000374 418.999748 L 218.500358 402.999691 L 220.500236 386.999634 L 221.999886 371.499805 L 225.999642 355.499748 L 234.000187 334.000285 L 231.500081 318.000228 L 221.999886 302.000171 L 218.00013 286.000114 L 221.999886 270.000057 L 234.000187 257.999756 L 218.00013 280.00048 " transform="matrix(3.779528,0,0,3.779528,0,0)"/>
<path style="fill:none;stroke-width:2;stroke-linecap:butt;stroke-linejoin:miter;stroke:rgb(0%,0%,0%);stroke-opacity:1;stroke-miterlimit:4;" d="M 223.000342 277.999569 L 223.000342 293.500431 L 239.499593 309.500488 L 239.999821 325.499512 L 240.500049 337.499813 L 254.500228 334.000285 " transform="matrix(3.779528,0,0,3.779528,0,0)"/>
<path style="fill:none;stroke-width:2;stroke-linecap:butt;stroke-linejoin:miter;stroke:rgb(0%,0%,0%);stroke-opacity:1;stroke-miterlimit:4;" d="M 214.000374 331.500179 L 219.49978 329.500301 L 221.499658 341.000374 L 219.49978 357.000431 L 216.999674 373.000488 L 215.500024 388.999512 L 214.000374 404.999569 L 203.999951 420.999626 L 210.499813 436.999683 " transform="matrix(3.779528,0,0,3.779528,0,0)"/>
<path style="fill:none;stroke-width:2;stroke-linecap:butt;stroke-linejoin:miter;stroke:rgb(0%,0%,0%);stroke-opacity:1;stroke-miterlimit:4;" d="M 191.500456 441.999894 L 159.500342 434.000382 " transform="matrix(3.779528,0,0,3.779528,0,0)"/>
<path style="fill:none;stroke-width:2;stroke-linecap:butt;stroke-linejoin:miter;stroke:rgb(0%,0%,0%);stroke-opacity:1;stroke-miterlimit:4;" d="M 159.000114 428.499943 L 175.000171 430.499821 L 190.5 434.999805 L 206.500057 441.000472 " transform="matrix(3.779528,0,0,3.779528,0,0)"/>
<path style="fill:none;stroke-width:2;stroke-linecap:butt;stroke-linejoin:miter;stroke:rgb(0%,0%,0%);stroke-opacity:1;stroke-miterlimit:4;" d="M 185.499788 447.500334 L 164.000326 461.500513 L 148.000269 461.000285 L 132.000212 461.000285 " transform="matrix(3.779528,0,0,3.779528,0,0)"/>
<path style="fill:none;stroke-width:2;stroke-linecap:butt;stroke-linejoin:miter;stroke:rgb(0%,0%,0%);stroke-opacity:1;stroke-miterlimit:4;" d="M 137.499618 463.999585 L 153.499674 470.000252 L 169.999959 474.000008 " transform="matrix(3.779528,0,0,3.779528,0,0)"/>
<path style="fill:none;stroke-width:2;stroke-linecap:butt;stroke-linejoin:miter;stroke:rgb(0%,0%,0%);stroke-opacity:1;stroke-miterlimit:4;" d="M 184.000138 452.99974 L 200.000195 465.000041 " transform="matrix(3.779528,0,0,3.779528,0,0)"/>
<path style="fill:none;stroke-width:2;stroke-linecap:butt;stroke-linejoin:miter;stroke:rgb(0%,0%,0%);stroke-opacity:1;stroke-miterlimit:4;" d="M 187.499666 477.000342 L 171.499609 474.500236 L 129.500106 458.500179 L 151.499797 441.999894 L 157.500464 441.000472 L 143.500285 452.99974 " transform="matrix(3.779528,0,0,3.779528,0,0)"/>
<path style="fill:none;stroke-width:2;stroke-linecap:butt;stroke-linejoin:miter;stroke:rgb(0%,0%,0%);stroke-opacity:1;stroke-miterlimit:4;" d="M 139.000301 451.50009 L 157.000236 431.500277 L 173.000293 447.999528 L 163.500098 464.499813 L 171.999837 470.50048 L 186.500244 486.999731 L 180.499577 502.499561 " transform="matrix(3.779528,0,0,3.779528,0,0)"/>
<path style="fill:none;stroke-width:2;stroke-linecap:butt;stroke-linejoin:miter;stroke:rgb(0%,0%,0%);stroke-opacity:1;stroke-miterlimit:4;" d="M 171.999837 479.500448 L 155.99978 475.499658 L 139.999723 469.500024 L 123.999666 465.500269 " transform="matrix(3.779528,0,0,3.779528,0,0)"/>
<path style="fill:none;stroke-width:2;stroke-linecap:butt;stroke-linejoin:miter;stroke:rgb(0%,0%,0%);stroke-opacity:1;stroke-miterlimit:4;" d="M 122.500016 462.499935 L 138.500073 442.500122 L 154.50013 423.999959 L 170.500187 404.000146 L 186.500244 409.99978 L 202.500301 413.999536 " transform="matrix(3.779528,0,0,3.779528,0,0)"/>
<path style="fill:none;stroke-width:2;stroke-linecap:butt;stroke-linejoin:miter;stroke:rgb(0%,0%,0%);stroke-opacity:1;stroke-miterlimit:4;" d="M 184.999561 451.50009 L 198.99974 467.500146 L 194.499756 479.999642 L 210.499813 461.999707 " transform="matrix(3.779528,0,0,3.779528,0,0)"/>
<path style="fill:none;stroke-width:2;stroke-linecap:butt;stroke-linejoin:miter;stroke:rgb(0%,0%,0%);stroke-opacity:1;stroke-miterlimit:4;" d="M 230.499626 456.000073 L 214.499569 484.499626 L 200.500423 510.500106 L 208.499935 494.500049 L 218.500358 478.499992 L 227.000098 452.499512 L 239.000399 436.500488 " transform="matrix(3.779528,0,0,3.779528,0,0)"/>
<path style="fill:none;stroke-width:2;stroke-linecap:butt;stroke-linejoin:miter;stroke:rgb(0%,0%,0%);stroke-opacity:1;stroke-miterlimit:4;" d="M 243.000155 438.500366 L 232.999731 454.500423 L 223.000342 470.50048 L 207.000285 486.000309 L 196.999862 502.000366 " transform="matrix(3.779528,0,0,3.779528,0,0)"/>
<path style="fill:none;stroke-width:2;stroke-linecap:butt;stroke-linejoin:miter;stroke:rgb(0%,0%,0%);stroke-opacity:1;stroke-miterlimit:4;" d="M 162.99987 508.500228 L 146.999813 500.499683 L 131.499984 491.999943 L 115.499927 481.99952 " transform="matrix(3.779528,0,0,3.779528,0,0)"/>
<path style="fill:none;stroke-width:2;stroke-linecap:butt;stroke-linejoin:miter;stroke:rgb(0%,0%,0%);stroke-opacity:1;stroke-miterlimit:4;" d="M 112.000399 477.999764 L 127.500228 481.99952 L 143.000057 491.499715 L 159.000114 499.50026 L 175.000171 507.499772 " transform="matrix(3.779528,0,0,3.779528,0,0)"/>
<path style="fill:none;stroke-width:2;stroke-linecap:butt;stroke-linejoin:miter;stroke:rgb(0%,0%,0%);stroke-opacity:1;stroke-miterlimit:4;" d="M 162.99987 481.500326 L 146.999813 477.499536 L 130.999756 474.000008 L 115.499927 468.000374 " transform="matrix(3.779528,0,0,3.779528,0,0)"/>
<path style="fill:none;stroke-width:2;stroke-linecap:butt;stroke-linejoin:miter;stroke:rgb(0%,0%,0%);stroke-opacity:1;stroke-miterlimit:4;" d="M 110.499715 466.999919 L 125.999544 447.500334 L 141.999601 427.499487 L 157.999658 409.99978 " transform="matrix(3.779528,0,0,3.779528,0,0)"/>
<path style="fill:none;stroke-width:2;stroke-linecap:butt;stroke-linejoin:miter;stroke:rgb(0%,0%,0%);stroke-opacity:1;stroke-miterlimit:4;" d="M 166.000203 361.999609 L 182.00026 330.499723 L 198.000317 329.999495 L 213.500146 320.000106 L 217.499902 329.500301 L 243.500382 336.999585 L 259.500439 337.499813 " transform="matrix(3.779528,0,0,3.779528,0,0)"/>
<path style="fill:none;stroke-width:2;stroke-linecap:butt;stroke-linejoin:miter;stroke:rgb(0%,0%,0%);stroke-opacity:1;stroke-miterlimit:4;" d="M 201.499845 357.499626 L 185.499788 355.999976 " transform="matrix(3.779528,0,0,3.779528,0,0)"/>
<path style="fill:none;stroke-width:2;stroke-linecap:butt;stroke-linejoin:miter;stroke:rgb(0%,0%,0%);stroke-opacity:1;stroke-miterlimit:4;" d="M 185.499788 355.499748 L 179.500155 371.499805 L 178.000505 387.499862 L 178.000505 403.499919 L 180.000382 413.500342 L 198.000317 419.499976 " transform="matrix(3.779528,0,0,3.779528,0,0)"/>
<path style="fill:none;stroke-width:2;stroke-linecap:butt;stroke-linejoin:miter;stroke:rgb(0%,0%,0%);stroke-opacity:1;stroke-miterlimit:4;" d="M 254 434.499577 L 259.999634 450.999862 L 267.499951 466.999919 L 273.499585 482.499748 L 283.500008 498.499805 " transform="matrix(3.779528,0,0,3.779528,0,0)"/>
<path style="fill:none;stroke-width:2;stroke-linecap:butt;stroke-linejoin:miter;stroke:rgb(0%,0%,0%);stroke-opacity:1;stroke-miterlimit:4;" d="M 268.000179 454.500423 L 257.999756 438.500366 " transform="matrix(3.779528,0,0,3.779528,0,0)"/>
<path style="fill:none;stroke-width:2;stroke-linecap:butt;stroke-linejoin:miter;stroke:rgb(0%,0%,0%);stroke-opacity:1;stroke-miterlimit:4;" d="M 212.999919 354.500326 L 196.999862 350.499536 L 180.999805 354.500326 " transform="matrix(3.779528,0,0,3.779528,0,0)"/>
<path style="fill:none;stroke-width:2;stroke-linecap:butt;stroke-linejoin:miter;stroke:rgb(0%,0%,0%);stroke-opacity:1;stroke-miterlimit:4;" d="M 173.499487 360.499959 L 189.00035 336.500391 L 205.000407 336.500391 L 212.499691 332.000407 L 214.000374 348.000464 L 221.999886 341.499569 L 249.500016 343.50048 L 265.500073 345.500358 L 281.50013 325.499512 L 295.500309 332.999829 L 311.500366 332.999829 L 327.500423 345.00013 L 327.999618 348.999886 L 321.999984 365.500171 L 326.499967 382.000456 L 325.000317 398.000513 " transform="matrix(3.779528,0,0,3.779528,0,0)"/>
<path style="fill:none;stroke-width:2;stroke-linecap:butt;stroke-linejoin:miter;stroke:rgb(0%,0%,0%);stroke-opacity:1;stroke-miterlimit:4;" d="M 320.500334 329.000073 L 334.500513 345.500358 L 336.000163 361.500415 L 338.000041 377.500472 L 336.000163 393.999723 L 336.000163 409.99978 L 347.500236 425.999837 L 359.499504 441.499666 L 371.499805 457.499723 L 364.999943 477.499536 L 341.000374 493.499593 L 307.000382 509.49965 L 320.999528 502.000366 L 337.499813 496.499927 L 354.000098 488.500415 L 370.500382 475.000464 " transform="matrix(3.779528,0,0,3.779528,0,0)"/>
<path style="fill:none;stroke-width:2;stroke-linecap:butt;stroke-linejoin:miter;stroke:rgb(0%,0%,0%);stroke-opacity:1;stroke-miterlimit:4;" d="M 418.49952 285.499886 L 395.999601 271.499707 L 372.000033 275.500496 L 345.500358 271.499707 L 331.500179 255.49965 L 327.500423 251.499894 L 339.499691 235.499837 L 339.499691 218.999552 L 314.999894 202.999495 L 280.999902 182.999683 L 265.500073 180.499577 L 249.500016 182.999683 L 234.000187 178.999927 L 218.00013 178.999927 L 202.500301 183.49991 L 186.500244 189.999772 L 170.500187 202.000073 " transform="matrix(3.779528,0,0,3.779528,0,0)"/>
<path style="fill:none;stroke-width:2;stroke-linecap:butt;stroke-linejoin:miter;stroke:rgb(0%,0%,0%);stroke-opacity:1;stroke-miterlimit:4;" d="M 166.000203 198.499512 L 182.00026 178.499699 L 198.499512 172.500065 L 214.499569 164.999748 L 176.499821 182.999683 L 166.500431 198.99974 L 162.499642 214.999797 L 162.499642 245.50026 L 172.500065 245.50026 L 166.500431 267.499951 " transform="matrix(3.779528,0,0,3.779528,0,0)"/>
<path style="fill:none;stroke-width:2;stroke-linecap:butt;stroke-linejoin:miter;stroke:rgb(0%,0%,0%);stroke-opacity:1;stroke-miterlimit:4;" d="M 166.000203 275.999691 L 178.000505 259.500439 L 182.00026 246.000488 L 168.000081 234.000187 L 176.499821 216.50048 L 193.000106 205.000407 L 177.000049 212.999919 L 175.000171 225.00022 " transform="matrix(3.779528,0,0,3.779528,0,0)"/>
<path style="fill:none;stroke-width:2;stroke-linecap:butt;stroke-linejoin:miter;stroke:rgb(0%,0%,0%);stroke-opacity:1;stroke-miterlimit:4;" d="M 156.500008 242.499927 L 150.500374 258.499984 L 138.500073 270.500285 " transform="matrix(3.779528,0,0,3.779528,0,0)"/>
<path style="fill:none;stroke-width:2;stroke-linecap:butt;stroke-linejoin:miter;stroke:rgb(0%,0%,0%);stroke-opacity:1;stroke-miterlimit:4;" d="M 127.500228 276.499919 L 111.500171 273.999813 " transform="matrix(3.779528,0,0,3.779528,0,0)"/>
<path style="fill:none;stroke-width:2;stroke-linecap:butt;stroke-linejoin:miter;stroke:rgb(0%,0%,0%);stroke-opacity:1;stroke-miterlimit:4;" d="M 111.500171 278.499797 L 99.49987 264.499618 L 84.000041 257.999756 L 67.999984 254.500228 " transform="matrix(3.779528,0,0,3.779528,0,0)"/>
<path style="fill:none;stroke-width:2;stroke-linecap:butt;stroke-linejoin:miter;stroke:rgb(0%,0%,0%);stroke-opacity:1;stroke-miterlimit:4;" d="M 69.000439 254.500228 L 70.50009 270.500285 " transform="matrix(3.779528,0,0,3.779528,0,0)"/>
<path style="fill:none;stroke-width:2;stroke-linecap:butt;stroke-linejoin:miter;stroke:rgb(0%,0%,0%);stroke-opacity:1;stroke-miterlimit:4;" d="M 67.999984 275.000269 L 55.999683 259.000212 L 67.499756 242.499927 L 69.499634 226.49987 L 63.5 246.000488 L 47.499943 250.000244 " transform="matrix(3.779528,0,0,3.779528,0,0)"/>
<path style="fill:none;stroke-width:2;stroke-linecap:butt;stroke-linejoin:miter;stroke:rgb(0%,0%,0%);stroke-opacity:1;stroke-miterlimit:4;" d="M 39.500431 248.999788 L 55.500488 266.999723 " transform="matrix(3.779528,0,0,3.779528,0,0)"/>
<path style="fill:none;stroke-width:2;stroke-linecap:butt;stroke-linejoin:miter;stroke:rgb(0%,0%,0%);stroke-opacity:1;stroke-miterlimit:4;" d="M 69.000439 273.499585 L 53.000382 269.499829 L 37.000326 253.499772 " transform="matrix(3.779528,0,0,3.779528,0,0)"/>
<path style="fill:none;stroke-width:2;stroke-linecap:butt;stroke-linejoin:miter;stroke:rgb(0%,0%,0%);stroke-opacity:1;stroke-miterlimit:4;" d="M 37.999748 235.499837 L 53.999805 227.500326 L 69.999862 223.000342 L 85.999919 230.999854 " transform="matrix(3.779528,0,0,3.779528,0,0)"/>
<path style="fill:none;stroke-width:2;stroke-linecap:butt;stroke-linejoin:miter;stroke:rgb(0%,0%,0%);stroke-opacity:1;stroke-miterlimit:4;" d="M 87.499569 227.99952 L 71.499512 217.499902 L 55.500488 219.49978 L 39.500431 229.500203 " transform="matrix(3.779528,0,0,3.779528,0,0)"/>
<path style="fill:none;stroke-width:2;stroke-linecap:butt;stroke-linejoin:miter;stroke:rgb(0%,0%,0%);stroke-opacity:1;stroke-miterlimit:4;" d="M 32.999536 232.000309 L 48.999593 217.499902 L 64.99965 207.000285 L 80.999707 212.999919 L 96.999764 227.000098 L 112.499593 248.999788 " transform="matrix(3.779528,0,0,3.779528,0,0)"/>
<path style="fill:none;stroke-width:2;stroke-linecap:butt;stroke-linejoin:miter;stroke:rgb(0%,0%,0%);stroke-opacity:1;stroke-miterlimit:4;" d="M 80.000285 259.000212 L 84.000041 275.000269 " transform="matrix(3.779528,0,0,3.779528,0,0)"/>
<path style="fill:none;stroke-width:2;stroke-linecap:butt;stroke-linejoin:miter;stroke:rgb(0%,0%,0%);stroke-opacity:1;stroke-miterlimit:4;" d="M 78.499601 272.500163 L 74.499845 256.500106 " transform="matrix(3.779528,0,0,3.779528,0,0)"/>
<path style="fill:none;stroke-width:2;stroke-linecap:butt;stroke-linejoin:miter;stroke:rgb(0%,0%,0%);stroke-opacity:1;stroke-miterlimit:4;" d="M 100.99952 250.500472 L 85.499691 234.500415 L 69.499634 218.500358 " transform="matrix(3.779528,0,0,3.779528,0,0)"/>
<path style="fill:none;stroke-width:2;stroke-linecap:butt;stroke-linejoin:miter;stroke:rgb(0%,0%,0%);stroke-opacity:1;stroke-miterlimit:4;" d="M 66.999528 214.499569 L 39.000203 230.499626 L 37.000326 241.999699 L 46.999715 259.500439 L 59.000016 261.500317 L 78.999829 280.999902 L 95.500114 275.000269 L 116.000155 269.499829 L 132.000212 269.499829 L 144.000513 263.500195 L 159.999536 237.499715 L 173.999715 231.500081 L 189.999772 223.000342 L 184.000138 236.999487 L 189.999772 241.000277 " transform="matrix(3.779528,0,0,3.779528,0,0)"/>
<path style="fill:none;stroke-width:2;stroke-linecap:butt;stroke-linejoin:miter;stroke:rgb(0%,0%,0%);stroke-opacity:1;stroke-miterlimit:4;" d="M 225.999642 223.999764 L 241.999699 209.999585 L 257.999756 212.000496 L 274.500041 214.000374 L 276.499919 230.499626 " transform="matrix(3.779528,0,0,3.779528,0,0)"/>
<path style="fill:none;stroke-width:2;stroke-linecap:butt;stroke-linejoin:miter;stroke:rgb(0%,0%,0%);stroke-opacity:1;stroke-miterlimit:4;" d="M 257.999756 230.999854 L 241.999699 236.500293 L 264.000423 230.499626 L 257.999756 214.499569 L 249.500016 214.000374 L 233.499959 220.000008 L 231.500081 223.999764 L 249.500016 223.499536 L 234.000187 227.500326 " transform="matrix(3.779528,0,0,3.779528,0,0)"/>
<path style="fill:none;stroke-width:2;stroke-linecap:butt;stroke-linejoin:miter;stroke:rgb(0%,0%,0%);stroke-opacity:1;stroke-miterlimit:4;" d="M 248.499561 214.499569 L 257.000334 230.499626 " transform="matrix(3.779528,0,0,3.779528,0,0)"/>
<path style="fill:none;stroke-width:2;stroke-linecap:butt;stroke-linejoin:miter;stroke:rgb(0%,0%,0%);stroke-opacity:1;stroke-miterlimit:4;" d="M 258.499984 236.000065 L 243.000155 239.999821 L 239.000399 239.999821 L 227.000098 224.499992 L 245.000033 208.499935 " transform="matrix(3.779528,0,0,3.779528,0,0)"/>
<path style="fill:none;stroke-width:2;stroke-linecap:butt;stroke-linejoin:miter;stroke:rgb(0%,0%,0%);stroke-opacity:1;stroke-miterlimit:4;" d="M 224.499992 207.000285 L 220.500236 210.499813 L 204.500179 212.499691 L 210.499813 214.499569 L 206.500057 230.499626 L 212.499691 232.499504 L 212.999919 238.500171 L 211.000041 252.50035 L 227.500326 252.000122 L 243.000155 254 L 259.000212 254.500228 L 277.000146 252.000122 L 293.000203 252.000122 L 309.00026 243.500382 L 338.500269 261.500317 L 354.000098 277.500374 L 370.000155 283.500008 L 385.499984 283.500008 L 401.500041 281.50013 L 417.500098 284.000236 L 427.499487 259.999634 L 441.499666 261.500317 L 439.499788 277.500374 L 431.500277 291.49952 L 447.500334 281.50013 L 454.999618 257.499528 L 461.500513 239.499593 L 474.000008 241.000277 L 477.999764 243.500382 L 468.000374 259.500439 L 452.000317 273.999813 L 441.999894 286.000114 L 440.500244 277.999569 L 456.500301 261.999512 L 472.500358 264.000423 " transform="matrix(3.779528,0,0,3.779528,0,0)"/>
<path style="fill:none;stroke-width:2;stroke-linecap:butt;stroke-linejoin:miter;stroke:rgb(0%,0%,0%);stroke-opacity:1;stroke-miterlimit:4;" d="M 456.000073 257.499528 L 472.00013 241.500505 L 461.999707 239.499593 L 457.999951 252.999544 L 442.500122 239.000399 " transform="matrix(3.779528,0,0,3.779528,0,0)"/>
<path style="fill:none;stroke-width:2;stroke-linecap:butt;stroke-linejoin:miter;stroke:rgb(0%,0%,0%);stroke-opacity:1;stroke-miterlimit:4;" d="M 434.000382 232.499504 L 450.499634 225.00022 L 456.500301 235.499837 L 440.500244 239.999821 L 446.499878 256.500106 L 450.000439 276.499919 L 472.500358 256.500106 L 482.499748 248.499561 L 472.500358 264.499618 " transform="matrix(3.779528,0,0,3.779528,0,0)"/>
<path style="fill:none;stroke-width:2;stroke-linecap:butt;stroke-linejoin:miter;stroke:rgb(0%,0%,0%);stroke-opacity:1;stroke-miterlimit:4;" d="M 479.999642 234.500415 L 463.999585 222.500114 L 447.999528 212.499691 L 432.000505 218.500358 L 416.000448 234.500415 L 400.000391 255.999878 L 388.500317 255.999878 L 372.50026 266.000301 L 356.500203 248.000366 L 339.999919 236.000065 L 323.999862 254 L 308.500033 250.500472 L 284.999658 244.499805 L 286.999536 227.99952 L 286.999536 212.000496 L 290.500098 196.000439 L 272.500163 173.499487 L 248.000366 168.000081 L 232.000309 169.999959 " transform="matrix(3.779528,0,0,3.779528,0,0)"/>
<path style="fill:none;stroke-width:2;stroke-linecap:butt;stroke-linejoin:miter;stroke:rgb(0%,0%,0%);stroke-opacity:1;stroke-miterlimit:4;" d="M 239.499593 173.000293 L 255.49965 175.000171 L 273.999813 175.000171 L 287.999992 175.500399 L 304.500277 182.00026 L 320.999528 187.999894 " transform="matrix(3.779528,0,0,3.779528,0,0)"/>
<path style="fill:none;stroke-width:2;stroke-linecap:butt;stroke-linejoin:miter;stroke:rgb(0%,0%,0%);stroke-opacity:1;stroke-miterlimit:4;" d="M 305.000505 151.499797 L 272.500163 151.499797 " transform="matrix(3.779528,0,0,3.779528,0,0)"/>
<path style="fill:none;stroke-width:2;stroke-linecap:butt;stroke-linejoin:miter;stroke:rgb(0%,0%,0%);stroke-opacity:1;stroke-miterlimit:4;" d="M 271.999935 151.499797 L 280.00048 167.499854 L 305.999927 184.000138 L 325.99974 186.000016 L 336.000163 201.499845 " transform="matrix(3.779528,0,0,3.779528,0,0)"/>
<path style="fill:none;stroke-width:2;stroke-linecap:butt;stroke-linejoin:miter;stroke:rgb(0%,0%,0%);stroke-opacity:1;stroke-miterlimit:4;" d="M 295.000081 109.500293 L 298.499609 94.000464 L 290.500098 94.499658 L 280.999902 96.499536 " transform="matrix(3.779528,0,0,3.779528,0,0)"/>
<path style="fill:none;stroke-width:2;stroke-linecap:butt;stroke-linejoin:miter;stroke:rgb(0%,0%,0%);stroke-opacity:1;stroke-miterlimit:4;" d="M 282.000358 94.999886 L 286.000114 95.500114 L 273.999813 97.499992 L 286.000114 113.500049 " transform="matrix(3.779528,0,0,3.779528,0,0)"/>
<path style="fill:none;stroke-width:2;stroke-linecap:butt;stroke-linejoin:miter;stroke:rgb(0%,0%,0%);stroke-opacity:1;stroke-miterlimit:4;" d="M 297.500187 116.000155 L 281.50013 118.000033 L 266.000301 109.999487 L 250.500472 109.999487 L 234.500415 109.500293 " transform="matrix(3.779528,0,0,3.779528,0,0)"/>
<path style="fill:none;stroke-width:2;stroke-linecap:butt;stroke-linejoin:miter;stroke:rgb(0%,0%,0%);stroke-opacity:1;stroke-miterlimit:4;" d="M 221.499658 98.500448 L 221.499658 88.500024 L 205.499601 88.500024 " transform="matrix(3.779528,0,0,3.779528,0,0)"/>
<path style="fill:none;stroke-width:2;stroke-linecap:butt;stroke-linejoin:miter;stroke:rgb(0%,0%,0%);stroke-opacity:1;stroke-miterlimit:4;" d="M 203.999951 87.499569 L 198.000317 103.499626 L 197.50009 105.499504 " transform="matrix(3.779528,0,0,3.779528,0,0)"/>
<path style="fill:none;stroke-width:2;stroke-linecap:butt;stroke-linejoin:miter;stroke:rgb(0%,0%,0%);stroke-opacity:1;stroke-miterlimit:4;" d="M 194.499756 106.499959 L 196.499634 89.999674 L 188.500122 91.500358 L 188.500122 107.500415 L 189.999772 123.000244 L 191.99965 143.500285 L 199.499967 135.49974 L 215.500024 135.49974 L 231.500081 135.999967 L 264.000423 135.999967 L 280.00048 136.500195 L 295.999504 136.500195 " transform="matrix(3.779528,0,0,3.779528,0,0)"/>
<path style="fill:none;stroke-width:2;stroke-linecap:butt;stroke-linejoin:miter;stroke:rgb(0%,0%,0%);stroke-opacity:1;stroke-miterlimit:4;" d="M 298.000415 89.999674 L 280.00048 82.500391 L 263.500195 105.000309 L 247.500138 107.000187 L 220.000008 107.000187 L 203.999951 98.500448 " transform="matrix(3.779528,0,0,3.779528,0,0)"/>
<path style="fill:none;stroke-width:2;stroke-linecap:butt;stroke-linejoin:miter;stroke:rgb(0%,0%,0%);stroke-opacity:1;stroke-miterlimit:4;" d="M 202.000073 91.00013 L 221.999886 89.000252 L 228.499748 105.000309 L 212.000496 121.000366 L 207.999707 112.999821 L 219.49978 116.500382 L 239.499593 98.500448 L 255.000456 96.499536 L 280.999902 103.999854 L 290.500098 85.499691 L 306.500155 97.499992 " transform="matrix(3.779528,0,0,3.779528,0,0)"/>
<path style="fill:none;stroke-width:2;stroke-linecap:butt;stroke-linejoin:miter;stroke:rgb(0%,0%,0%);stroke-opacity:1;stroke-miterlimit:4;" d="M 298.999837 113.500049 L 307.499577 98.00022 L 293.000203 82.000163 " transform="matrix(3.779528,0,0,3.779528,0,0)"/>
<path style="fill:none;stroke-width:2;stroke-linecap:butt;stroke-linejoin:miter;stroke:rgb(0%,0%,0%);stroke-opacity:1;stroke-miterlimit:4;" d="M 302.500399 76.999951 L 300.499487 71.000317 L 284.500464 69.000439 L 266.499495 69.499634 L 250.500472 71.499512 L 234.000187 71.000317 L 218.00013 71.000317 L 202.000073 71.499512 L 186.000016 75.500301 " transform="matrix(3.779528,0,0,3.779528,0,0)"/>
<path style="fill:none;stroke-width:2;stroke-linecap:butt;stroke-linejoin:miter;stroke:rgb(0%,0%,0%);stroke-opacity:1;stroke-miterlimit:4;" d="M 182.500488 71.000317 L 198.499512 42.999959 L 210.499813 60.999894 L 226.49987 63.5 L 234.999609 57.000138 L 255.000456 66.999528 L 293.000203 66.999528 L 307.000382 64.99965 " transform="matrix(3.779528,0,0,3.779528,0,0)"/>
<path style="fill:none;stroke-width:2;stroke-linecap:butt;stroke-linejoin:miter;stroke:rgb(0%,0%,0%);stroke-opacity:1;stroke-miterlimit:4;" d="M 304.000049 55.500488 L 287.999992 60.999894 L 271.499707 55.500488 L 255.49965 57.999561 L 239.499593 57.999561 L 223.499536 66.000106 L 207.500513 64.000228 " transform="matrix(3.779528,0,0,3.779528,0,0)"/>
<path style="fill:none;stroke-width:2;stroke-linecap:butt;stroke-linejoin:miter;stroke:rgb(0%,0%,0%);stroke-opacity:1;stroke-miterlimit:4;" d="M 202.000073 48.500399 L 218.00013 52.500155 L 234.000187 52.500155 L 250.000244 51.999927 L 265.500073 51.499699 L 281.50013 51.499699 L 297.500187 51.000505 " transform="matrix(3.779528,0,0,3.779528,0,0)"/>
<path style="fill:none;stroke-width:2;stroke-linecap:butt;stroke-linejoin:miter;stroke:rgb(0%,0%,0%);stroke-opacity:1;stroke-miterlimit:4;" d="M 298.000415 37.49952 L 233.499959 37.49952 " transform="matrix(3.779528,0,0,3.779528,0,0)"/>
<path style="fill:none;stroke-width:2;stroke-linecap:butt;stroke-linejoin:miter;stroke:rgb(0%,0%,0%);stroke-opacity:1;stroke-miterlimit:4;" d="M 205.999829 35.000448 L 222.500114 34.50022 L 239.000399 35.000448 L 255.000456 32.999536 L 271.499707 32.999536 L 287.999992 33.499764 " transform="matrix(3.779528,0,0,3.779528,0,0)"/>
<path style="fill:none;stroke-width:2;stroke-linecap:butt;stroke-linejoin:miter;stroke:rgb(0%,0%,0%);stroke-opacity:1;stroke-miterlimit:4;" d="M 302.500399 28.000358 L 286.500342 26.00048 L 270.500285 28.000358 L 254.500228 28.000358 L 238.500171 26.00048 L 222.500114 25.500252 L 206.500057 27.50013 " transform="matrix(3.779528,0,0,3.779528,0,0)"/>
<path style="fill:none;stroke-width:2;stroke-linecap:butt;stroke-linejoin:miter;stroke:rgb(0%,0%,0%);stroke-opacity:1;stroke-miterlimit:4;" d="M 200.999618 23.500374 L 217.499902 21.999691 L 234.000187 21.500496 L 250.000244 21.000269 L 298.499609 21.000269 L 309.00026 27.50013 L 309.00026 41.500309 L 310.49991 48.999593 L 318.500456 71.000317 L 318.500456 103.000431 L 316.00035 118.50026 L 316.00035 128.999878 L 309.999683 141.000179 L 311.500366 148.999691 " transform="matrix(3.779528,0,0,3.779528,0,0)"/>
<path style="fill:none;stroke-width:2;stroke-linecap:butt;stroke-linejoin:miter;stroke:rgb(0%,0%,0%);stroke-opacity:1;stroke-miterlimit:4;" d="M 304.000049 130.499528 L 271.499707 130.499528 L 255.49965 132.500439 L 239.499593 132.500439 L 223.000342 130.499528 L 206.500057 130.499528 L 190.5 128.999878 " transform="matrix(3.779528,0,0,3.779528,0,0)"/>
<path style="fill:none;stroke-width:2;stroke-linecap:butt;stroke-linejoin:miter;stroke:rgb(0%,0%,0%);stroke-opacity:1;stroke-miterlimit:4;" d="M 194.999984 153.999902 L 211.000041 153.499674 " transform="matrix(3.779528,0,0,3.779528,0,0)"/>
<path style="fill:none;stroke-width:2;stroke-linecap:butt;stroke-linejoin:miter;stroke:rgb(0%,0%,0%);stroke-opacity:1;stroke-miterlimit:4;" d="M 209.999585 175.999593 L 193.999528 182.500488 " transform="matrix(3.779528,0,0,3.779528,0,0)"/>
<path style="fill:none;stroke-width:2;stroke-linecap:butt;stroke-linejoin:miter;stroke:rgb(0%,0%,0%);stroke-opacity:1;stroke-miterlimit:4;" d="M 187.999894 182.500488 L 179.500155 198.000317 L 167.499854 209.500391 L 183.49991 201.499845 L 200.000195 196.000439 L 216.000252 191.99965 L 232.000309 189.999772 L 264.499618 189.999772 L 280.499674 189.499544 L 296.999959 189.499544 L 313.000016 193.500334 L 326.499967 200.000195 L 342.500024 209.999585 " transform="matrix(3.779528,0,0,3.779528,0,0)"/>
<path style="fill:none;stroke-width:2;stroke-linecap:butt;stroke-linejoin:miter;stroke:rgb(0%,0%,0%);stroke-opacity:1;stroke-miterlimit:4;" d="M 314.999894 239.499593 L 310.49991 233.499959 L 314.499666 217.499902 L 300.499487 202.000073 L 273.999813 198.000317 L 257.499528 199.499967 L 241.000277 197.50009 L 225.00022 197.50009 L 209.000163 198.99974 " transform="matrix(3.779528,0,0,3.779528,0,0)"/>
<path style="fill:none;stroke-width:2;stroke-linecap:butt;stroke-linejoin:miter;stroke:rgb(0%,0%,0%);stroke-opacity:1;stroke-miterlimit:4;" d="M 181.500033 329.000073 L 171.499609 345.00013 L 165.499976 361.500415 L 161.50022 377.500472 L 161.50022 393.999723 L 157.500464 409.99978 L 143.500285 425.999837 L 131.499984 441.499666 L 117.499805 457.499723 L 109.500293 474.000008 L 125.50035 490.000065 L 157.500464 506.000122 " transform="matrix(3.779528,0,0,3.779528,0,0)"/>
<path style="fill:none;stroke-width:2;stroke-linecap:butt;stroke-linejoin:miter;stroke:rgb(0%,0%,0%);stroke-opacity:1;stroke-miterlimit:4;" d="M 173.000293 506.000122 L 139.000301 490.000065 L 116.999577 474.500236 " transform="matrix(3.779528,0,0,3.779528,0,0)"/>
<path style="fill:none;stroke-width:2;stroke-linecap:butt;stroke-linejoin:miter;stroke:rgb(0%,0%,0%);stroke-opacity:1;stroke-miterlimit:4;" d="M 121.999788 470.000252 L 155.99978 475.999886 " transform="matrix(3.779528,0,0,3.779528,0,0)"/>
<path style="fill:none;stroke-width:2;stroke-linecap:butt;stroke-linejoin:miter;stroke:rgb(0%,0%,0%);stroke-opacity:1;stroke-miterlimit:4;" d="M 189.00035 446.499878 L 170.500187 463.000163 L 122.500016 463.000163 L 137.000423 445.500456 L 150.999569 429.500399 L 164.999748 413.500342 L 173.000293 395.500407 L 168.999504 393.499495 L 173.000293 366.999821 L 177.000049 350.499536 L 186.500244 334.500513 " transform="matrix(3.779528,0,0,3.779528,0,0)"/>
<path style="fill:none;stroke-width:2;stroke-linecap:butt;stroke-linejoin:miter;stroke:rgb(0%,0%,0%);stroke-opacity:1;stroke-miterlimit:4;" d="M 155.000358 257.999756 L 130.499528 263.500195 L 114.500505 259.999634 L 107.999609 244.499805 L 100.000098 234.500415 L 85.499691 225.999642 L 71.99974 209.999585 " transform="matrix(3.779528,0,0,3.779528,0,0)"/>
<path style="fill:none;stroke-width:2;stroke-linecap:butt;stroke-linejoin:miter;stroke:rgb(0%,0%,0%);stroke-opacity:1;stroke-miterlimit:4;" d="M 62.999772 209.000163 L 40.499854 225.00022 L 32.999536 241.000277 L 36.500098 257.000334 L 52.500155 272.500163 L 71.99974 288.50022 L 80.500513 288.50022 L 96.999764 282.000358 L 113.500049 282.000358 L 129.500106 283.500008 L 145.500163 284.000236 L 147.500041 275.999691 L 163.500098 277.999569 L 178.999927 259.999634 L 194.499756 249.500016 L 209.999585 246.000488 L 227.500326 248.000366 L 243.500382 248.499561 L 259.000212 248.999788 L 274.500041 246.99991 " transform="matrix(3.779528,0,0,3.779528,0,0)"/>
<path style="fill:none;stroke-width:2;stroke-linecap:butt;stroke-linejoin:miter;stroke:rgb(0%,0%,0%);stroke-opacity:1;stroke-miterlimit:4;" d="M 431.500277 260.499862 L 431.500277 276.499919 " transform="matrix(3.779528,0,0,3.779528,0,0)"/>
<path style="fill:none;stroke-width:2;stroke-linecap:butt;stroke-linejoin:miter;stroke:rgb(0%,0%,0%);stroke-opacity:1;stroke-miterlimit:4;" d="M 456.000073 236.500293 L 438.000138 221.999886 L 422.000081 236.000065 L 441.999894 220.000008 " transform="matrix(3.779528,0,0,3.779528,0,0)"/>
<path style="fill:none;stroke-width:2;stroke-linecap:butt;stroke-linejoin:miter;stroke:rgb(0%,0%,0%);stroke-opacity:1;stroke-miterlimit:4;" d="M 443.499544 212.499691 L 421.499854 228.499748 L 407.499674 244.499805 L 397.500285 260.499862 L 385.499984 266.499495 L 383.500106 275.999691 L 395.999601 277.999569 " transform="matrix(3.779528,0,0,3.779528,0,0)"/>
<path style="fill:none;stroke-width:2;stroke-linecap:butt;stroke-linejoin:miter;stroke:rgb(0%,0%,0%);stroke-opacity:1;stroke-miterlimit:4;" d="M 289.499642 113.500049 L 275.500496 112.999821 L 269.499829 94.999886 L 281.50013 78.999829 " transform="matrix(3.779528,0,0,3.779528,0,0)"/>
<path style="fill:none;stroke-width:2;stroke-linecap:butt;stroke-linejoin:miter;stroke:rgb(0%,0%,0%);stroke-opacity:1;stroke-miterlimit:4;" d="M 309.00026 77.500179 L 311.000138 93.500236 L 311.500366 109.500293 " transform="matrix(3.779528,0,0,3.779528,0,0)"/>
</g>
</svg>
