<?xml version="1.0" encoding="UTF-8"?>
<svg xmlns="http://www.w3.org/2000/svg" xmlns:xlink="http://www.w3.org/1999/xlink" width="1935.11811" height="1935.11811" viewBox="0 0 1935.11811 1935.11811" version="1.1">
<g id="surface1">
<path style="fill:none;stroke-width:2;stroke-linecap:butt;stroke-linejoin:miter;stroke:rgb(0%,0%,0%);stroke-opacity:1;stroke-miterlimit:4;" d="M 285.499886 2.500106 L 285.499886 18.500163 L 283.500008 34.50022 L 289.499642 34.50022 L 283.500008 51.000505 L 287.499764 66.999528 L 261.500317 82.999585 " transform="matrix(3.779528,0,0,3.779528,0,0)"/>
<path style="fill:none;stroke-width:2;stroke-linecap:butt;stroke-linejoin:miter;stroke:rgb(0%,0%,0%);stroke-opacity:1;stroke-miterlimit:4;" d="M 266.999723 91.00013 L 266.499495 107.000187 " transform="matrix(3.779528,0,0,3.779528,0,0)"/>
<path style="fill:none;stroke-width:2;stroke-linecap:butt;stroke-linejoin:miter;stroke:rgb(0%,0%,0%);stroke-opacity:1;stroke-miterlimit:4;" d="M 266.499495 103.000431 L 282.499552 110.499715 L 298.499609 108.499837 L 325.99974 94.000464 " transform="matrix(3.779528,0,0,3.779528,0,0)"/>
<path style="fill:none;stroke-width:2;stroke-linecap:butt;stroke-linejoin:miter;stroke:rgb(0%,0%,0%);stroke-opacity:1;stroke-miterlimit:4;" d="M 311.000138 94.499658 L 302.999593 110.499715 " transform="matrix(3.779528,0,0,3.779528,0,0)"/>
<path style="fill:none;stroke-width:2;stroke-linecap:butt;stroke-linejoin:miter;stroke:rgb(0%,0%,0%);stroke-opacity:1;stroke-miterlimit:4;" d="M 329.999495 119.499683 L 345.999552 114.999699 " transform="matrix(3.779528,0,0,3.779528,0,0)"/>
<path style="fill:none;stroke-width:2;stroke-linecap:butt;stroke-linejoin:miter;stroke:rgb(0%,0%,0%);stroke-opacity:1;stroke-miterlimit:4;" d="M 344.499902 143.500285 L 360.499959 159.500342 L 357.499626 175.500399 " transform="matrix(3.779528,0,0,3.779528,0,0)"/>
<path style="fill:none;stroke-width:2;stroke-linecap:butt;stroke-linejoin:miter;stroke:rgb(0%,0%,0%);stroke-opacity:1;stroke-miterlimit:4;" d="M 350.499536 149.499919 L 334.500513 153.499674 " transform="matrix(3.779528,0,0,3.779528,0,0)"/>
<path style="fill:none;stroke-width:2;stroke-linecap:butt;stroke-linejoin:miter;stroke:rgb(0%,0%,0%);stroke-opacity:1;stroke-miterlimit:4;" d="M 336.500391 150.500374 L 332.999829 166.500431 " transform="matrix(3.779528,0,0,3.779528,0,0)"/>
<path style="fill:none;stroke-width:2;stroke-linecap:butt;stroke-linejoin:miter;stroke:rgb(0%,0%,0%);stroke-opacity:1;stroke-miterlimit:4;" d="M 332.000407 164.000326 L 347.500236 181.500033 L 363.000065 171.999837 " transform="matrix(3.779528,0,0,3.779528,0,0)"/>
<path style="fill:none;stroke-width:2;stroke-linecap:butt;stroke-linejoin:miter;stroke:rgb(0%,0%,0%);stroke-opacity:1;stroke-miterlimit:4;" d="M 398.499707 171.000415 L 414.499764 173.000293 " transform="matrix(3.779528,0,0,3.779528,0,0)"/>
<path style="fill:none;stroke-width:2;stroke-linecap:butt;stroke-linejoin:miter;stroke:rgb(0%,0%,0%);stroke-opacity:1;stroke-miterlimit:4;" d="M 399.500163 169.499731 L 399.500163 185.499788 L 402.000269 201.499845 L 402.000269 217.499902 L 398.000513 217.499902 L 398.000513 233.499959 L 407.999902 245.50026 L 423.999959 257.499528 L 438.000138 265.500073 L 435.500033 284.000236 L 433.500155 305.999927 L 417.500098 325.99974 L 433.500155 341.999797 L 445.99965 357.499626 L 456.500301 373.499683 L 466.499691 389.49974 L 472.500358 405.499797 L 476.500114 421.499854 L 463.999585 437.49991 " transform="matrix(3.779528,0,0,3.779528,0,0)"/>
<path style="fill:none;stroke-width:2;stroke-linecap:butt;stroke-linejoin:miter;stroke:rgb(0%,0%,0%);stroke-opacity:1;stroke-miterlimit:4;" d="M 491.499715 422.500309 L 506.999544 422.500309 " transform="matrix(3.779528,0,0,3.779528,0,0)"/>
<path style="fill:none;stroke-width:2;stroke-linecap:butt;stroke-linejoin:miter;stroke:rgb(0%,0%,0%);stroke-opacity:1;stroke-miterlimit:4;" d="M 510.500106 508 L 494.500049 509.999878 L 477.999764 509.999878 " transform="matrix(3.779528,0,0,3.779528,0,0)"/>
<path style="fill:none;stroke-width:2;stroke-linecap:butt;stroke-linejoin:miter;stroke:rgb(0%,0%,0%);stroke-opacity:1;stroke-miterlimit:4;" d="M 474.000008 506.000122 L 490.000065 506.000122 L 506.000122 504.000244 " transform="matrix(3.779528,0,0,3.779528,0,0)"/>
<path style="fill:none;stroke-width:2;stroke-linecap:butt;stroke-linejoin:miter;stroke:rgb(0%,0%,0%);stroke-opacity:1;stroke-miterlimit:4;" d="M 487.499959 452.000317 L 491.499715 434.499577 L 491.499715 418.49952 L 484.999854 400.000391 L 481.000098 384.000334 L 472.999552 368.000277 L 467.500146 357.999854 L 451.50009 354.000098 L 436.00026 341.999797 L 420.000203 325.99974 " transform="matrix(3.779528,0,0,3.779528,0,0)"/>
<path style="fill:none;stroke-width:2;stroke-linecap:butt;stroke-linejoin:miter;stroke:rgb(0%,0%,0%);stroke-opacity:1;stroke-miterlimit:4;" d="M 423.499731 321.999984 L 439.499788 338.000041 L 455.499845 348.000464 L 465.000041 377.500472 " transform="matrix(3.779528,0,0,3.779528,0,0)"/>
<path style="fill:none;stroke-width:2;stroke-linecap:butt;stroke-linejoin:miter;stroke:rgb(0%,0%,0%);stroke-opacity:1;stroke-miterlimit:4;" d="M 450.999862 334.999707 L 435.500033 323.000439 " transform="matrix(3.779528,0,0,3.779528,0,0)"/>
<path style="fill:none;stroke-width:2;stroke-linecap:butt;stroke-linejoin:miter;stroke:rgb(0%,0%,0%);stroke-opacity:1;stroke-miterlimit:4;" d="M 435.500033 320.000106 L 457.499723 336.000163 L 450.000439 359.999731 L 466.000496 388.00009 " transform="matrix(3.779528,0,0,3.779528,0,0)"/>
<path style="fill:none;stroke-width:2;stroke-linecap:butt;stroke-linejoin:miter;stroke:rgb(0%,0%,0%);stroke-opacity:1;stroke-miterlimit:4;" d="M 477.999764 361.500415 L 461.999707 337.499813 L 445.500456 323.499634 L 429.000171 318.99965 " transform="matrix(3.779528,0,0,3.779528,0,0)"/>
<path style="fill:none;stroke-width:2;stroke-linecap:butt;stroke-linejoin:miter;stroke:rgb(0%,0%,0%);stroke-opacity:1;stroke-miterlimit:4;" d="M 432.000505 316.999772 L 447.999528 332.999829 L 470.000252 351.499992 L 467.500146 367.500049 L 479.500448 368.000277 L 486.999731 384.000334 L 488.999609 400.000391 L 489.499837 416.499642 L 485.500081 432.499699 L 483.500203 448.499756 " transform="matrix(3.779528,0,0,3.779528,0,0)"/>
<path style="fill:none;stroke-width:2;stroke-linecap:butt;stroke-linejoin:miter;stroke:rgb(0%,0%,0%);stroke-opacity:1;stroke-miterlimit:4;" d="M 509.49965 434.499577 L 493.499593 434.499577 L 465.500269 445.000228 L 449.500212 447.000106 L 434.000382 450.999862 L 418.000326 452.99974 L 402.000269 453.499967 " transform="matrix(3.779528,0,0,3.779528,0,0)"/>
<path style="fill:none;stroke-width:2;stroke-linecap:butt;stroke-linejoin:miter;stroke:rgb(0%,0%,0%);stroke-opacity:1;stroke-miterlimit:4;" d="M 415.50022 418.49952 L 400.000391 382.49965 L 384.000334 362.499837 L 368.500505 338.500269 " transform="matrix(3.779528,0,0,3.779528,0,0)"/>
<path style="fill:none;stroke-width:2;stroke-linecap:butt;stroke-linejoin:miter;stroke:rgb(0%,0%,0%);stroke-opacity:1;stroke-miterlimit:4;" d="M 373.99991 338.500269 L 390.500195 359.999731 L 406.000024 379.999544 " transform="matrix(3.779528,0,0,3.779528,0,0)"/>
<path style="fill:none;stroke-width:2;stroke-linecap:butt;stroke-linejoin:miter;stroke:rgb(0%,0%,0%);stroke-opacity:1;stroke-miterlimit:4;" d="M 372.50026 330.499723 L 388.500317 326.499967 L 404.999569 324.50009 L 420.999626 320.500334 L 436.999683 312.499788 L 427.000293 316.499544 L 434.999805 332.499601 L 446.499878 348.499658 L 458.500179 366.499593 L 468.000374 382.999878 L 474.000008 398.999935 L 477.999764 414.999992 L 479.999642 431.000049 L 484.000431 448.999984 L 500.499683 438.999561 " transform="matrix(3.779528,0,0,3.779528,0,0)"/>
<path style="fill:none;stroke-width:2;stroke-linecap:butt;stroke-linejoin:miter;stroke:rgb(0%,0%,0%);stroke-opacity:1;stroke-miterlimit:4;" d="M 475.000464 295.999504 L 490.999487 298.000415 L 507.499772 291.999748 " transform="matrix(3.779528,0,0,3.779528,0,0)"/>
<path style="fill:none;stroke-width:2;stroke-linecap:butt;stroke-linejoin:miter;stroke:rgb(0%,0%,0%);stroke-opacity:1;stroke-miterlimit:4;" d="M 495.999699 293.000203 L 479.999642 293.000203 " transform="matrix(3.779528,0,0,3.779528,0,0)"/>
<path style="fill:none;stroke-width:2;stroke-linecap:butt;stroke-linejoin:miter;stroke:rgb(0%,0%,0%);stroke-opacity:1;stroke-miterlimit:4;" d="M 463.500391 289.000448 L 463.500391 280.999902 L 455.499845 257.499528 L 437.49991 253.499772 L 425.000415 231.500081 L 409.000358 229.500203 " transform="matrix(3.779528,0,0,3.779528,0,0)"/>
<path style="fill:none;stroke-width:2;stroke-linecap:butt;stroke-linejoin:miter;stroke:rgb(0%,0%,0%);stroke-opacity:1;stroke-miterlimit:4;" d="M 406.500252 230.999854 L 422.500309 227.000098 L 438.000138 228.999976 L 454.000195 227.000098 L 469.500024 221.000464 L 484.999854 218.999552 L 500.99991 211.000041 L 502.999788 234.500415 L 504.999666 222.500114 " transform="matrix(3.779528,0,0,3.779528,0,0)"/>
<path style="fill:none;stroke-width:2;stroke-linecap:butt;stroke-linejoin:miter;stroke:rgb(0%,0%,0%);stroke-opacity:1;stroke-miterlimit:4;" d="M 510.500106 214.999797 L 502.499561 225.00022 L 482.999976 223.499536 L 466.999919 225.500448 L 454.500423 234.999609 L 438.500366 234.999609 L 424.500187 239.000399 L 407.999902 241.000277 L 388.00009 249.500016 L 371.499805 266.000301 L 354.99952 259.500439 L 339.499691 255.49965 L 323.499634 255.49965 L 307.999805 257.000334 L 243.999577 257.000334 L 227.99952 261.00009 L 203.999951 277.500374 L 196.000439 261.500317 " transform="matrix(3.779528,0,0,3.779528,0,0)"/>
<path style="fill:none;stroke-width:2;stroke-linecap:butt;stroke-linejoin:miter;stroke:rgb(0%,0%,0%);stroke-opacity:1;stroke-miterlimit:4;" d="M 193.000106 255.999878 L 194.999984 271.999935 L 209.000163 287.499764 L 200.500423 303.499821 L 212.499691 321.999984 L 209.999585 338.000041 L 214.499569 341.999797 L 200.500423 363.999487 L 206.500057 366.000399 " transform="matrix(3.779528,0,0,3.779528,0,0)"/>
<path style="fill:none;stroke-width:2;stroke-linecap:butt;stroke-linejoin:miter;stroke:rgb(0%,0%,0%);stroke-opacity:1;stroke-miterlimit:4;" d="M 246.99991 368.000277 L 262.999967 368.000277 L 279.500252 368.500505 L 295.500309 366.499593 L 314.000472 368.999699 L 329.999495 366.999821 " transform="matrix(3.779528,0,0,3.779528,0,0)"/>
<path style="fill:none;stroke-width:2;stroke-linecap:butt;stroke-linejoin:miter;stroke:rgb(0%,0%,0%);stroke-opacity:1;stroke-miterlimit:4;" d="M 355.999976 353.49987 L 339.499691 337.499813 " transform="matrix(3.779528,0,0,3.779528,0,0)"/>
<path style="fill:none;stroke-width:2;stroke-linecap:butt;stroke-linejoin:miter;stroke:rgb(0%,0%,0%);stroke-opacity:1;stroke-miterlimit:4;" d="M 339.499691 338.000041 L 337.499813 354.000098 L 333.500057 370.000155 L 336.000163 387.499862 L 334.500513 403.499919 L 332.499601 421.499854 L 328.499845 453.499967 " transform="matrix(3.779528,0,0,3.779528,0,0)"/>
<path style="fill:none;stroke-width:2;stroke-linecap:butt;stroke-linejoin:miter;stroke:rgb(0%,0%,0%);stroke-opacity:1;stroke-miterlimit:4;" d="M 332.000407 437.49991 L 364.999943 437.49991 " transform="matrix(3.779528,0,0,3.779528,0,0)"/>
<path style="fill:none;stroke-width:2;stroke-linecap:butt;stroke-linejoin:miter;stroke:rgb(0%,0%,0%);stroke-opacity:1;stroke-miterlimit:4;" d="M 368.999699 422.000081 L 352.999642 422.500309 L 336.999585 422.500309 " transform="matrix(3.779528,0,0,3.779528,0,0)"/>
<path style="fill:none;stroke-width:2;stroke-linecap:butt;stroke-linejoin:miter;stroke:rgb(0%,0%,0%);stroke-opacity:1;stroke-miterlimit:4;" d="M 332.999829 421.499854 L 348.999886 415.50022 L 364.499715 417.500098 " transform="matrix(3.779528,0,0,3.779528,0,0)"/>
<path style="fill:none;stroke-width:2;stroke-linecap:butt;stroke-linejoin:miter;stroke:rgb(0%,0%,0%);stroke-opacity:1;stroke-miterlimit:4;" d="M 425.000415 439.499788 L 421.499854 423.499731 L 415.50022 407.499674 L 409.499552 391.999845 L 400.999813 376.500016 L 387.499862 360.499959 L 375.499561 344.499902 L 373.499683 328.499845 L 372.000033 312.499788 L 402.000269 296.499731 L 416.000448 284.500464 L 400.000391 290.500098 L 384.000334 295.999504 L 368.000277 289.99987 L 352.00022 281.50013 L 336.000163 283.500008 " transform="matrix(3.779528,0,0,3.779528,0,0)"/>
<path style="fill:none;stroke-width:2;stroke-linecap:butt;stroke-linejoin:miter;stroke:rgb(0%,0%,0%);stroke-opacity:1;stroke-miterlimit:4;" d="M 342.500024 287.999992 L 359.000309 289.99987 L 375.000366 302.000171 L 391.000423 302.000171 " transform="matrix(3.779528,0,0,3.779528,0,0)"/>
<path style="fill:none;stroke-width:2;stroke-linecap:butt;stroke-linejoin:miter;stroke:rgb(0%,0%,0%);stroke-opacity:1;stroke-miterlimit:4;" d="M 368.500505 316.999772 L 384.499528 318.99965 L 400.499585 317.5 L 416.499642 315.500122 L 432.999927 307.999805 " transform="matrix(3.779528,0,0,3.779528,0,0)"/>
<path style="fill:none;stroke-width:2;stroke-linecap:butt;stroke-linejoin:miter;stroke:rgb(0%,0%,0%);stroke-opacity:1;stroke-miterlimit:4;" d="M 436.00026 257.000334 L 420.500431 251.499894 L 413.000114 259.500439 L 397.000057 257.499528 " transform="matrix(3.779528,0,0,3.779528,0,0)"/>
<path style="fill:none;stroke-width:2;stroke-linecap:butt;stroke-linejoin:miter;stroke:rgb(0%,0%,0%);stroke-opacity:1;stroke-miterlimit:4;" d="M 397.500285 254.500228 L 413.999536 256.500106 L 425.999837 244.499805 " transform="matrix(3.779528,0,0,3.779528,0,0)"/>
<path style="fill:none;stroke-width:2;stroke-linecap:butt;stroke-linejoin:miter;stroke:rgb(0%,0%,0%);stroke-opacity:1;stroke-miterlimit:4;" d="M 418.000326 237.999943 L 398.000513 268.000179 L 413.500342 268.000179 L 413.000114 271.499707 L 434.499577 269.499829 L 444.5 250.000244 L 459.999829 253.499772 L 468.000374 243.500382 L 468.000374 252.999544 L 472.00013 263.500195 L 488.000187 261.500317 " transform="matrix(3.779528,0,0,3.779528,0,0)"/>
<path style="fill:none;stroke-width:2;stroke-linecap:butt;stroke-linejoin:miter;stroke:rgb(0%,0%,0%);stroke-opacity:1;stroke-miterlimit:4;" d="M 493.499593 262.999967 L 489.499837 280.999902 " transform="matrix(3.779528,0,0,3.779528,0,0)"/>
<path style="fill:none;stroke-width:2;stroke-linecap:butt;stroke-linejoin:miter;stroke:rgb(0%,0%,0%);stroke-opacity:1;stroke-miterlimit:4;" d="M 509.49965 246.499683 L 493.499593 226.49987 " transform="matrix(3.779528,0,0,3.779528,0,0)"/>
<path style="fill:none;stroke-width:2;stroke-linecap:butt;stroke-linejoin:miter;stroke:rgb(0%,0%,0%);stroke-opacity:1;stroke-miterlimit:4;" d="M 493.000399 226.49987 L 484.999854 242.499927 L 490.500293 254.500228 " transform="matrix(3.779528,0,0,3.779528,0,0)"/>
<path style="fill:none;stroke-width:2;stroke-linecap:butt;stroke-linejoin:miter;stroke:rgb(0%,0%,0%);stroke-opacity:1;stroke-miterlimit:4;" d="M 510.500106 252.000122 L 498.499805 248.000366 L 494.500049 234.000187 L 482.499748 232.000309 L 466.499691 234.000187 L 460.500057 232.000309 L 452.000317 205.999829 L 443.499544 189.999772 L 441.000472 173.499487 L 445.000228 153.499674 L 441.000472 137.499618 L 447.500334 123.500472 L 437.49991 107.500415 L 423.999959 97.499992 L 425.999837 81.499935 L 430.499821 64.99965 L 431.000049 48.999593 L 427.000293 39.500431 L 411.000236 35.99987 L 395.000179 39.999626 " transform="matrix(3.779528,0,0,3.779528,0,0)"/>
<path style="fill:none;stroke-width:2;stroke-linecap:butt;stroke-linejoin:miter;stroke:rgb(0%,0%,0%);stroke-opacity:1;stroke-miterlimit:4;" d="M 398.499707 43.500187 L 414.499764 41.500309 L 426.500065 45.500065 L 426.500065 61.500122 L 422.500309 77.500179 L 420.000203 93.500236 L 429.999593 109.500293 L 441.999894 125.50035 L 436.00026 135.49974 L 440.000016 151.499797 L 445.99965 171.499609 L 450.499634 187.499666 L 456.500301 203.499723 L 477.999764 200.000195 L 493.999821 198.000317 L 509.49965 191.99965 " transform="matrix(3.779528,0,0,3.779528,0,0)"/>
<path style="fill:none;stroke-width:2;stroke-linecap:butt;stroke-linejoin:miter;stroke:rgb(0%,0%,0%);stroke-opacity:1;stroke-miterlimit:4;" d="M 486.999731 204.500179 L 461.000285 212.499691 L 438.999561 202.500301 L 435.500033 198.499512 L 435.500033 194.499756 L 419.499976 196.499634 L 409.000358 196.499634 L 425.000415 180.499577 L 411.000236 186.500244 L 411.000236 186.000016 L 420.999626 169.999959 L 414.999992 163.500098 L 398.999935 165.499976 " transform="matrix(3.779528,0,0,3.779528,0,0)"/>
<path style="fill:none;stroke-width:2;stroke-linecap:butt;stroke-linejoin:miter;stroke:rgb(0%,0%,0%);stroke-opacity:1;stroke-miterlimit:4;" d="M 407.499674 206.500057 L 423.499731 210.499813 " transform="matrix(3.779528,0,0,3.779528,0,0)"/>
<path style="fill:none;stroke-width:2;stroke-linecap:butt;stroke-linejoin:miter;stroke:rgb(0%,0%,0%);stroke-opacity:1;stroke-miterlimit:4;" d="M 352.999642 211.500269 L 343.000252 231.500081 L 341.000374 215.500024 L 345.00013 217.499902 " transform="matrix(3.779528,0,0,3.779528,0,0)"/>
<path style="fill:none;stroke-width:2;stroke-linecap:butt;stroke-linejoin:miter;stroke:rgb(0%,0%,0%);stroke-opacity:1;stroke-miterlimit:4;" d="M 341.999797 221.999886 L 358.500081 218.00013 L 352.500448 220.000008 L 348.499658 232.000309 " transform="matrix(3.779528,0,0,3.779528,0,0)"/>
<path style="fill:none;stroke-width:2;stroke-linecap:butt;stroke-linejoin:miter;stroke:rgb(0%,0%,0%);stroke-opacity:1;stroke-miterlimit:4;" d="M 347.500236 263.500195 L 371.499805 279.500252 L 377.500472 277.500374 L 393.499495 275.999691 L 407.00048 278.499797 L 425.000415 284.500464 L 434.999805 282.99978 L 451.50009 296.999959 L 467.500146 275.000269 L 484.000431 272.500163 L 488.000187 274.500041 L 504.000244 280.499674 " transform="matrix(3.779528,0,0,3.779528,0,0)"/>
<path style="fill:none;stroke-width:2;stroke-linecap:butt;stroke-linejoin:miter;stroke:rgb(0%,0%,0%);stroke-opacity:1;stroke-miterlimit:4;" d="M 511.000334 274.500041 L 509.000456 246.499683 L 497.000155 230.499626 " transform="matrix(3.779528,0,0,3.779528,0,0)"/>
<path style="fill:none;stroke-width:2;stroke-linecap:butt;stroke-linejoin:miter;stroke:rgb(0%,0%,0%);stroke-opacity:1;stroke-miterlimit:4;" d="M 490.999487 105.999731 L 474.500236 89.999674 " transform="matrix(3.779528,0,0,3.779528,0,0)"/>
<path style="fill:none;stroke-width:2;stroke-linecap:butt;stroke-linejoin:miter;stroke:rgb(0%,0%,0%);stroke-opacity:1;stroke-miterlimit:4;" d="M 475.000464 87.499569 L 490.999487 98.999642 L 506.50035 127 " transform="matrix(3.779528,0,0,3.779528,0,0)"/>
<path style="fill:none;stroke-width:2;stroke-linecap:butt;stroke-linejoin:miter;stroke:rgb(0%,0%,0%);stroke-opacity:1;stroke-miterlimit:4;" d="M 473.49978 100.500326 L 481.500326 116.500382 L 484.999854 132.500439 L 486.999731 148.500496 L 488.500415 164.000326 L 488.500415 180.000382 " transform="matrix(3.779528,0,0,3.779528,0,0)"/>
<path style="fill:none;stroke-width:2;stroke-linecap:butt;stroke-linejoin:miter;stroke:rgb(0%,0%,0%);stroke-opacity:1;stroke-miterlimit:4;" d="M 445.99965 129.500106 L 429.999593 107.000187 " transform="matrix(3.779528,0,0,3.779528,0,0)"/>
<path style="fill:none;stroke-width:2;stroke-linecap:butt;stroke-linejoin:miter;stroke:rgb(0%,0%,0%);stroke-opacity:1;stroke-miterlimit:4;" d="M 450.000439 98.999642 L 466.000496 96.999764 " transform="matrix(3.779528,0,0,3.779528,0,0)"/>
<path style="fill:none;stroke-width:2;stroke-linecap:butt;stroke-linejoin:miter;stroke:rgb(0%,0%,0%);stroke-opacity:1;stroke-miterlimit:4;" d="M 467.500146 92.49978 L 473.49978 108.499837 L 479.500448 124.499894 L 483.500203 156.500008 L 485.500081 171.999837 L 484.000431 178.000505 " transform="matrix(3.779528,0,0,3.779528,0,0)"/>
<path style="fill:none;stroke-width:2;stroke-linecap:butt;stroke-linejoin:miter;stroke:rgb(0%,0%,0%);stroke-opacity:1;stroke-miterlimit:4;" d="M 477.999764 168.500309 L 472.00013 150.500374 L 468.000374 134.00009 L 463.999585 118.000033 L 456.000073 101.999976 " transform="matrix(3.779528,0,0,3.779528,0,0)"/>
<path style="fill:none;stroke-width:2;stroke-linecap:butt;stroke-linejoin:miter;stroke:rgb(0%,0%,0%);stroke-opacity:1;stroke-miterlimit:4;" d="M 456.500301 98.500448 L 447.000106 114.500505 L 456.999495 120.500138 L 463.000163 135.999967 L 466.999919 152.000024 L 470.999674 167.499854 L 475.000464 183.49991 " transform="matrix(3.779528,0,0,3.779528,0,0)"/>
<path style="fill:none;stroke-width:2;stroke-linecap:butt;stroke-linejoin:miter;stroke:rgb(0%,0%,0%);stroke-opacity:1;stroke-miterlimit:4;" d="M 508.500228 153.999902 L 509.999878 138.500073 L 506.000122 122.500016 L 497.500382 105.999731 L 481.99952 89.999674 " transform="matrix(3.779528,0,0,3.779528,0,0)"/>
<path style="fill:none;stroke-width:2;stroke-linecap:butt;stroke-linejoin:miter;stroke:rgb(0%,0%,0%);stroke-opacity:1;stroke-miterlimit:4;" d="M 476.500114 87.000374 L 488.500415 102.500203 L 498.499805 118.50026 L 504.500472 134.500317 L 508.500228 166.500431 L 511.000334 182.500488 L 504.999666 202.500301 L 505.499894 216.000252 L 511.000334 221.999886 L 482.999976 232.499504 L 488.999609 246.000488 L 511.000334 252.000122 L 506.999544 267.499951 L 494.500049 271.499707 L 502.000366 275.500496 L 502.000366 295.500309 " transform="matrix(3.779528,0,0,3.779528,0,0)"/>
<path style="fill:none;stroke-width:2;stroke-linecap:butt;stroke-linejoin:miter;stroke:rgb(0%,0%,0%);stroke-opacity:1;stroke-miterlimit:4;" d="M 378.499894 289.99987 L 362.499837 277.500374 L 346.49978 273.499585 L 330.999951 275.500496 L 314.999894 275.500496 L 298.499609 279.500252 L 282.499552 279.500252 L 266.499495 277.500374 L 250.500472 277.500374 L 234.000187 277.999569 L 218.00013 284.500464 L 202.000073 272.500163 L 186.000016 254.500228 L 169.999959 252.50035 L 153.999902 241.999699 " transform="matrix(3.779528,0,0,3.779528,0,0)"/>
<path style="fill:none;stroke-width:2;stroke-linecap:butt;stroke-linejoin:miter;stroke:rgb(0%,0%,0%);stroke-opacity:1;stroke-miterlimit:4;" d="M 149.499919 243.000155 L 165.499976 254.500228 L 181.500033 260.499862 L 197.50009 272.500163 L 213.500146 288.50022 L 230.999854 268.500407 L 246.99991 264.499618 L 262.49974 264.999845 L 278.499797 263.500195 L 325.499512 263.500195 L 341.499569 262.999967 L 357.999854 266.999723 L 374.500138 282.499552 L 391.000423 282.000358 " transform="matrix(3.779528,0,0,3.779528,0,0)"/>
<path style="fill:none;stroke-width:2;stroke-linecap:butt;stroke-linejoin:miter;stroke:rgb(0%,0%,0%);stroke-opacity:1;stroke-miterlimit:4;" d="M 351.499992 293.999626 L 359.499504 310.49991 L 365.500171 327.000195 L 369.499927 343.50048 L 381 359.999731 L 395.000179 376.500016 L 404.999569 393.000301 L 411.000236 409.000358 L 416.499642 425.000415 L 386.500439 443.00035 L 382.000456 461.000285 L 372.50026 464.499813 L 388.999512 438.999561 L 404.999569 436.999683 " transform="matrix(3.779528,0,0,3.779528,0,0)"/>
<path style="fill:none;stroke-width:2;stroke-linecap:butt;stroke-linejoin:miter;stroke:rgb(0%,0%,0%);stroke-opacity:1;stroke-miterlimit:4;" d="M 366.000399 361.500415 L 350.000342 331.500179 L 334.000285 335.499935 " transform="matrix(3.779528,0,0,3.779528,0,0)"/>
<path style="fill:none;stroke-width:2;stroke-linecap:butt;stroke-linejoin:miter;stroke:rgb(0%,0%,0%);stroke-opacity:1;stroke-miterlimit:4;" d="M 339.000496 331.500179 L 332.999829 347.500236 L 336.999585 372.000033 L 331.500179 388.500317 L 329.999495 404.500374 L 328.499845 420.999626 L 324.50009 436.500488 " transform="matrix(3.779528,0,0,3.779528,0,0)"/>
<path style="fill:none;stroke-width:2;stroke-linecap:butt;stroke-linejoin:miter;stroke:rgb(0%,0%,0%);stroke-opacity:1;stroke-miterlimit:4;" d="M 293.500431 454.000195 L 277.500374 458.500179 " transform="matrix(3.779528,0,0,3.779528,0,0)"/>
<path style="fill:none;stroke-width:2;stroke-linecap:butt;stroke-linejoin:miter;stroke:rgb(0%,0%,0%);stroke-opacity:1;stroke-miterlimit:4;" d="M 307.499577 448.999984 L 307.499577 432.999927 L 305.499699 416.499642 L 314.000472 400.000391 L 314.000472 384.000334 L 311.999561 357.999854 L 295.500309 361.500415 L 263.500195 361.500415 L 248.000366 359.000309 " transform="matrix(3.779528,0,0,3.779528,0,0)"/>
<path style="fill:none;stroke-width:2;stroke-linecap:butt;stroke-linejoin:miter;stroke:rgb(0%,0%,0%);stroke-opacity:1;stroke-miterlimit:4;" d="M 239.999821 339.999919 L 241.999699 356.500203 L 241.999699 372.000033 L 241.500505 388.00009 L 243.500382 403.499919 " transform="matrix(3.779528,0,0,3.779528,0,0)"/>
<path style="fill:none;stroke-width:2;stroke-linecap:butt;stroke-linejoin:miter;stroke:rgb(0%,0%,0%);stroke-opacity:1;stroke-miterlimit:4;" d="M 232.999731 422.000081 L 216.999674 421.499854 L 201.499845 420.999626 " transform="matrix(3.779528,0,0,3.779528,0,0)"/>
<path style="fill:none;stroke-width:2;stroke-linecap:butt;stroke-linejoin:miter;stroke:rgb(0%,0%,0%);stroke-opacity:1;stroke-miterlimit:4;" d="M 196.999862 416.000448 L 212.999919 418.000326 L 245.000033 418.000326 " transform="matrix(3.779528,0,0,3.779528,0,0)"/>
<path style="fill:none;stroke-width:2;stroke-linecap:butt;stroke-linejoin:miter;stroke:rgb(0%,0%,0%);stroke-opacity:1;stroke-miterlimit:4;" d="M 268.000179 411.000236 L 266.000301 427.000293 L 272.500163 429.000171 L 286.500342 414.499764 L 302.999593 414.499764 " transform="matrix(3.779528,0,0,3.779528,0,0)"/>
<path style="fill:none;stroke-width:2;stroke-linecap:butt;stroke-linejoin:miter;stroke:rgb(0%,0%,0%);stroke-opacity:1;stroke-miterlimit:4;" d="M 301.499943 409.99978 L 270.000057 409.99978 " transform="matrix(3.779528,0,0,3.779528,0,0)"/>
<path style="fill:none;stroke-width:2;stroke-linecap:butt;stroke-linejoin:miter;stroke:rgb(0%,0%,0%);stroke-opacity:1;stroke-miterlimit:4;" d="M 264.499618 451.50009 L 262.999967 447.500334 L 246.499683 438.000138 L 198.000317 438.000138 " transform="matrix(3.779528,0,0,3.779528,0,0)"/>
<path style="fill:none;stroke-width:2;stroke-linecap:butt;stroke-linejoin:miter;stroke:rgb(0%,0%,0%);stroke-opacity:1;stroke-miterlimit:4;" d="M 188.500122 415.50022 L 204.500179 381.500228 L 221.000464 351.499992 L 229.500203 349.500114 L 219.49978 365.500171 L 212.000496 381.500228 L 203.999951 398.000513 L 198.499512 413.999536 L 194.499756 429.999593 L 187.000472 446.499878 L 198.99974 468.499569 " transform="matrix(3.779528,0,0,3.779528,0,0)"/>
<path style="fill:none;stroke-width:2;stroke-linecap:butt;stroke-linejoin:miter;stroke:rgb(0%,0%,0%);stroke-opacity:1;stroke-miterlimit:4;" d="M 198.99974 407.499674 L 215.500024 377.500472 " transform="matrix(3.779528,0,0,3.779528,0,0)"/>
<path style="fill:none;stroke-width:2;stroke-linecap:butt;stroke-linejoin:miter;stroke:rgb(0%,0%,0%);stroke-opacity:1;stroke-miterlimit:4;" d="M 232.000309 330.499723 L 217.499902 312.499788 L 207.500513 323.999862 L 191.500456 318.000228 " transform="matrix(3.779528,0,0,3.779528,0,0)"/>
<path style="fill:none;stroke-width:2;stroke-linecap:butt;stroke-linejoin:miter;stroke:rgb(0%,0%,0%);stroke-opacity:1;stroke-miterlimit:4;" d="M 196.000439 315.500122 L 212.000496 319.499878 " transform="matrix(3.779528,0,0,3.779528,0,0)"/>
<path style="fill:none;stroke-width:2;stroke-linecap:butt;stroke-linejoin:miter;stroke:rgb(0%,0%,0%);stroke-opacity:1;stroke-miterlimit:4;" d="M 230.499626 311.999561 L 246.499683 314.000472 L 264.499618 323.999862 L 268.000179 339.999919 L 270.000057 350.499536 L 286.000114 350.499536 L 302.000171 352.500448 L 318.000228 338.500269 " transform="matrix(3.779528,0,0,3.779528,0,0)"/>
<path style="fill:none;stroke-width:2;stroke-linecap:butt;stroke-linejoin:miter;stroke:rgb(0%,0%,0%);stroke-opacity:1;stroke-miterlimit:4;" d="M 307.499577 345.500358 L 291.49952 345.999552 L 275.500496 345.999552 L 265.500073 343.50048 L 259.500439 327.500423 L 262.999967 311.500366 L 259.000212 311.500366 L 263.500195 295.500309 L 261.500317 283.500008 L 246.000488 282.99978 L 230.499626 282.99978 L 214.499569 300.999715 L 198.499512 311.000138 L 182.500488 313.500244 L 166.500431 319.499878 L 150.500374 329.500301 " transform="matrix(3.779528,0,0,3.779528,0,0)"/>
<path style="fill:none;stroke-width:2;stroke-linecap:butt;stroke-linejoin:miter;stroke:rgb(0%,0%,0%);stroke-opacity:1;stroke-miterlimit:4;" d="M 155.000358 330.499723 L 170.500187 334.500513 L 186.500244 339.999919 L 202.999495 347.500236 L 219.49978 327.500423 L 227.99952 319.499878 L 259.999634 319.499878 " transform="matrix(3.779528,0,0,3.779528,0,0)"/>
<path style="fill:none;stroke-width:2;stroke-linecap:butt;stroke-linejoin:miter;stroke:rgb(0%,0%,0%);stroke-opacity:1;stroke-miterlimit:4;" d="M 232.000309 295.000081 L 248.000366 295.000081 L 263.500195 294.499854 L 279.500252 284.999658 L 295.000081 285.499886 L 310.49991 291.49952 L 326.499967 298.000415 L 343.000252 294.499854 L 345.00013 290.500098 " transform="matrix(3.779528,0,0,3.779528,0,0)"/>
<path style="fill:none;stroke-width:2;stroke-linecap:butt;stroke-linejoin:miter;stroke:rgb(0%,0%,0%);stroke-opacity:1;stroke-miterlimit:4;" d="M 348.000464 286.500342 L 372.000033 302.000171 L 361.500415 304.500277 L 369.499927 314.499666 L 386.000212 310.49991 L 402.500496 296.499731 L 406.500252 302.500399 L 434.499577 300.000293 " transform="matrix(3.779528,0,0,3.779528,0,0)"/>
<path style="fill:none;stroke-width:2;stroke-linecap:butt;stroke-linejoin:miter;stroke:rgb(0%,0%,0%);stroke-opacity:1;stroke-miterlimit:4;" d="M 348.499658 298.499609 L 343.999674 307.000382 L 327.500423 307.000382 L 331.500179 293.500431 L 315.500122 283.500008 " transform="matrix(3.779528,0,0,3.779528,0,0)"/>
<path style="fill:none;stroke-width:2;stroke-linecap:butt;stroke-linejoin:miter;stroke:rgb(0%,0%,0%);stroke-opacity:1;stroke-miterlimit:4;" d="M 318.000228 305.999927 L 315.500122 321.999984 L 313.000016 337.499813 L 316.999772 365.500171 L 309.00026 381.500228 L 307.000382 398.000513 L 313.000016 416.000448 L 313.000016 432.000505 L 311.500366 447.999528 L 331.500179 463.999585 " transform="matrix(3.779528,0,0,3.779528,0,0)"/>
<path style="fill:none;stroke-width:2;stroke-linecap:butt;stroke-linejoin:miter;stroke:rgb(0%,0%,0%);stroke-opacity:1;stroke-miterlimit:4;" d="M 375.499561 418.999748 L 372.000033 402.999691 L 368.000277 386.999634 L 362.499837 371.499805 L 356.500203 355.999976 L 346.49978 339.999919 " transform="matrix(3.779528,0,0,3.779528,0,0)"/>
<path style="fill:none;stroke-width:2;stroke-linecap:butt;stroke-linejoin:miter;stroke:rgb(0%,0%,0%);stroke-opacity:1;stroke-miterlimit:4;" d="M 350.999764 332.499601 L 359.000309 348.499658 L 366.499593 364.999943 L 372.50026 381 L 375.999788 397.500285 L 379.50035 413.500342 L 379.50035 429.500399 L 379.999544 435.500033 L 384.000334 451.50009 L 372.000033 467.500146 L 388.00009 455.499845 L 402.000269 447.999528 L 418.000326 446.499878 " transform="matrix(3.779528,0,0,3.779528,0,0)"/>
<path style="fill:none;stroke-width:2;stroke-linecap:butt;stroke-linejoin:miter;stroke:rgb(0%,0%,0%);stroke-opacity:1;stroke-miterlimit:4;" d="M 329.000073 361.500415 L 313.000016 361.500415 L 316.999772 339.499691 L 320.999528 323.999862 L 321.499756 307.999805 " transform="matrix(3.779528,0,0,3.779528,0,0)"/>
<path style="fill:none;stroke-width:2;stroke-linecap:butt;stroke-linejoin:miter;stroke:rgb(0%,0%,0%);stroke-opacity:1;stroke-miterlimit:4;" d="M 271.999935 301.499943 L 254 289.499642 L 237.499715 289.499642 L 209.000163 295.500309 L 192.499878 307.999805 L 176.499821 308.500033 L 160.999992 314.499666 L 144.999935 328.499845 L 129.500106 340.500146 L 98.500448 384.499528 L 82.500391 416.000448 L 66.999528 415.50022 L 51.000505 415.50022 L 35.000448 417.500098 L 19.000391 417.500098 L 3.000334 418.000326 " transform="matrix(3.779528,0,0,3.779528,0,0)"/>
<path style="fill:none;stroke-width:2;stroke-linecap:butt;stroke-linejoin:miter;stroke:rgb(0%,0%,0%);stroke-opacity:1;stroke-miterlimit:4;" d="M 1.999878 422.500309 L 33.999992 421.499854 L 50.000049 421.499854 L 65.499878 419.499976 L 89.50048 411.500464 L 105.499504 381 L 121.999788 361.000187 L 138.500073 349.500114 L 150.500374 351.499992 L 166.500431 357.499626 L 182.500488 363.999487 " transform="matrix(3.779528,0,0,3.779528,0,0)"/>
<path style="fill:none;stroke-width:2;stroke-linecap:butt;stroke-linejoin:miter;stroke:rgb(0%,0%,0%);stroke-opacity:1;stroke-miterlimit:4;" d="M 191.99965 382.000456 L 176.499821 398.000513 L 160.499764 419.499976 " transform="matrix(3.779528,0,0,3.779528,0,0)"/>
<path style="fill:none;stroke-width:2;stroke-linecap:butt;stroke-linejoin:miter;stroke:rgb(0%,0%,0%);stroke-opacity:1;stroke-miterlimit:4;" d="M 123.500472 453.499967 L 139.499495 455.499845 L 171.499609 455.499845 L 198.000317 465.500269 " transform="matrix(3.779528,0,0,3.779528,0,0)"/>
<path style="fill:none;stroke-width:2;stroke-linecap:butt;stroke-linejoin:miter;stroke:rgb(0%,0%,0%);stroke-opacity:1;stroke-miterlimit:4;" d="M 190.5 466.499691 L 166.500431 452.000317 L 150.500374 452.499512 L 134.500317 450.000439 L 118.000033 454.000195 L 101.999976 452.000317 L 85.999919 452.000317 " transform="matrix(3.779528,0,0,3.779528,0,0)"/>
<path style="fill:none;stroke-width:2;stroke-linecap:butt;stroke-linejoin:miter;stroke:rgb(0%,0%,0%);stroke-opacity:1;stroke-miterlimit:4;" d="M 128.999878 502.000366 L 112.999821 502.000366 L 97.499992 500.000488 L 82.000163 500.000488 L 66.000106 500.499683 L 49.499821 499.000033 L 33.499764 499.000033 L 17.999935 497.000155 L 1.999878 496.499927 " transform="matrix(3.779528,0,0,3.779528,0,0)"/>
<path style="fill:none;stroke-width:2;stroke-linecap:butt;stroke-linejoin:miter;stroke:rgb(0%,0%,0%);stroke-opacity:1;stroke-miterlimit:4;" d="M 1.999878 490.999487 L 17.999935 490.999487 L 34.50022 493.000399 L 50.000049 495.000277 L 66.000106 495.000277 L 81.499935 496.499927 L 112.999821 496.499927 L 128.999878 497.999577 L 144.499707 497.500382 " transform="matrix(3.779528,0,0,3.779528,0,0)"/>
<path style="fill:none;stroke-width:2;stroke-linecap:butt;stroke-linejoin:miter;stroke:rgb(0%,0%,0%);stroke-opacity:1;stroke-miterlimit:4;" d="M 73.500423 425.499609 L 57.999561 425.999837 L 41.999504 426.500065 L 17.999935 430.499821 L 1.999878 430.499821 " transform="matrix(3.779528,0,0,3.779528,0,0)"/>
<path style="fill:none;stroke-width:2;stroke-linecap:butt;stroke-linejoin:miter;stroke:rgb(0%,0%,0%);stroke-opacity:1;stroke-miterlimit:4;" d="M 1.000456 425.499609 L 17.499707 425.999837 L 35.99987 431.500277 L 51.999927 429.000171 L 68.500212 429.000171 L 88.500024 443.00035 L 104.500081 443.00035 L 121.000366 443.499544 L 137.000423 441.499666 L 152.500252 425.000415 L 168.500309 398.999935 L 184.500366 381.500228 L 200.500423 363.000065 " transform="matrix(3.779528,0,0,3.779528,0,0)"/>
<path style="fill:none;stroke-width:2;stroke-linecap:butt;stroke-linejoin:miter;stroke:rgb(0%,0%,0%);stroke-opacity:1;stroke-miterlimit:4;" d="M 230.499626 347.000008 L 225.999642 337.499813 L 205.999829 354.000098 L 189.999772 345.999552 L 173.999715 340.500146 L 157.999658 336.500391 L 141.999601 338.000041 L 130.000334 366.000399 L 114.000277 388.00009 L 98.00022 413.500342 L 82.000163 434.000382 L 96.000342 420.000203 L 104.500081 404.500374 L 114.999699 388.999512 L 125.000122 373.000488 L 139.000301 357.000431 " transform="matrix(3.779528,0,0,3.779528,0,0)"/>
<path style="fill:none;stroke-width:2;stroke-linecap:butt;stroke-linejoin:miter;stroke:rgb(0%,0%,0%);stroke-opacity:1;stroke-miterlimit:4;" d="M 133.499862 354.500326 L 116.999577 370.500382 L 105.000309 386.500439 L 94.499658 402.000269 L 87.999797 418.000326 L 94.000464 435.500033 L 109.500293 403.499919 L 125.50035 379.50035 L 141.500407 359.499504 L 157.500464 359.000309 L 173.499487 364.999943 " transform="matrix(3.779528,0,0,3.779528,0,0)"/>
<path style="fill:none;stroke-width:2;stroke-linecap:butt;stroke-linejoin:miter;stroke:rgb(0%,0%,0%);stroke-opacity:1;stroke-miterlimit:4;" d="M 160.499764 363.000065 L 188.500122 379.000122 L 172.500065 395.000179 L 160.499764 411.500464 L 153.00048 427.000293 L 150.999569 438.999561 L 150.999569 443.00035 L 164.999748 438.999561 L 180.999805 438.999561 " transform="matrix(3.779528,0,0,3.779528,0,0)"/>
<path style="fill:none;stroke-width:2;stroke-linecap:butt;stroke-linejoin:miter;stroke:rgb(0%,0%,0%);stroke-opacity:1;stroke-miterlimit:4;" d="M 144.999935 358.500081 L 130.999756 374.500138 L 121.000366 390.500195 L 111.500171 406.500252 L 101.499748 422.500309 L 91.500358 450.499634 L 89.000252 466.499691 L 94.999886 482.499748 " transform="matrix(3.779528,0,0,3.779528,0,0)"/>
<path style="fill:none;stroke-width:2;stroke-linecap:butt;stroke-linejoin:miter;stroke:rgb(0%,0%,0%);stroke-opacity:1;stroke-miterlimit:4;" d="M 34.50022 337.499813 L 18.500163 345.999552 L 2.500106 346.49978 " transform="matrix(3.779528,0,0,3.779528,0,0)"/>
<path style="fill:none;stroke-width:2;stroke-linecap:butt;stroke-linejoin:miter;stroke:rgb(0%,0%,0%);stroke-opacity:1;stroke-miterlimit:4;" d="M 0.500228 318.99965 L 16.500285 304.500277 L 32.999536 288.50022 L 49.499821 296.499731 " transform="matrix(3.779528,0,0,3.779528,0,0)"/>
<path style="fill:none;stroke-width:2;stroke-linecap:butt;stroke-linejoin:miter;stroke:rgb(0%,0%,0%);stroke-opacity:1;stroke-miterlimit:4;" d="M 53.000382 309.500488 L 37.000326 332.000407 L 17.000513 336.500391 L 28.499552 336.999585 L 38.499976 334.999707 L 48.000171 319.499878 L 53.499577 302.999593 L 59.000016 286.999536 L 53.000382 271.000513 L 36.500098 264.499618 L 19.999813 257.000334 " transform="matrix(3.779528,0,0,3.779528,0,0)"/>
<path style="fill:none;stroke-width:2;stroke-linecap:butt;stroke-linejoin:miter;stroke:rgb(0%,0%,0%);stroke-opacity:1;stroke-miterlimit:4;" d="M 21.500496 250.000244 L 37.49952 250.000244 L 45.500065 257.999756 L 75.000073 266.000301 " transform="matrix(3.779528,0,0,3.779528,0,0)"/>
<path style="fill:none;stroke-width:2;stroke-linecap:butt;stroke-linejoin:miter;stroke:rgb(0%,0%,0%);stroke-opacity:1;stroke-miterlimit:4;" d="M 87.499569 259.000212 L 71.499512 259.500439 L 55.999683 251.499894 " transform="matrix(3.779528,0,0,3.779528,0,0)"/>
<path style="fill:none;stroke-width:2;stroke-linecap:butt;stroke-linejoin:miter;stroke:rgb(0%,0%,0%);stroke-opacity:1;stroke-miterlimit:4;" d="M 48.999593 257.000334 L 64.99965 261.500317 L 80.999707 265.500073 L 97.499992 267.499951 " transform="matrix(3.779528,0,0,3.779528,0,0)"/>
<path style="fill:none;stroke-width:2;stroke-linecap:butt;stroke-linejoin:miter;stroke:rgb(0%,0%,0%);stroke-opacity:1;stroke-miterlimit:4;" d="M 125.999544 257.499528 L 109.999487 261.00009 L 87.499569 253.499772 L 71.499512 250.000244 L 55.500488 246.000488 L 39.500431 252.000122 L 23.500374 243.999577 " transform="matrix(3.779528,0,0,3.779528,0,0)"/>
<path style="fill:none;stroke-width:2;stroke-linecap:butt;stroke-linejoin:miter;stroke:rgb(0%,0%,0%);stroke-opacity:1;stroke-miterlimit:4;" d="M 25.000024 235.499837 L 16.500285 252.000122 L 7.00009 248.000366 L 14.999601 254 L 25.000024 227.99952 L 41.000081 234.000187 L 35.000448 242.499927 L 46.499487 236.500293 L 62.499544 228.499748 L 78.499601 230.999854 L 94.499658 234.999609 L 110.499715 239.000399 " transform="matrix(3.779528,0,0,3.779528,0,0)"/>
<path style="fill:none;stroke-width:2;stroke-linecap:butt;stroke-linejoin:miter;stroke:rgb(0%,0%,0%);stroke-opacity:1;stroke-miterlimit:4;" d="M 121.999788 222.500114 L 130.000334 206.500057 L 134.00009 189.999772 L 121.999788 173.499487 " transform="matrix(3.779528,0,0,3.779528,0,0)"/>
<path style="fill:none;stroke-width:2;stroke-linecap:butt;stroke-linejoin:miter;stroke:rgb(0%,0%,0%);stroke-opacity:1;stroke-miterlimit:4;" d="M 131.499984 179.500155 L 147.500041 173.499487 L 163.500098 169.499731 L 179.500155 169.499731 " transform="matrix(3.779528,0,0,3.779528,0,0)"/>
<path style="fill:none;stroke-width:2;stroke-linecap:butt;stroke-linejoin:miter;stroke:rgb(0%,0%,0%);stroke-opacity:1;stroke-miterlimit:4;" d="M 169.999959 175.999593 L 153.999902 175.999593 " transform="matrix(3.779528,0,0,3.779528,0,0)"/>
<path style="fill:none;stroke-width:2;stroke-linecap:butt;stroke-linejoin:miter;stroke:rgb(0%,0%,0%);stroke-opacity:1;stroke-miterlimit:4;" d="M 153.999902 196.999862 L 169.999959 196.499634 " transform="matrix(3.779528,0,0,3.779528,0,0)"/>
<path style="fill:none;stroke-width:2;stroke-linecap:butt;stroke-linejoin:miter;stroke:rgb(0%,0%,0%);stroke-opacity:1;stroke-miterlimit:4;" d="M 182.999683 207.500513 L 166.500431 207.500513 L 150.500374 205.499601 " transform="matrix(3.779528,0,0,3.779528,0,0)"/>
<path style="fill:none;stroke-width:2;stroke-linecap:butt;stroke-linejoin:miter;stroke:rgb(0%,0%,0%);stroke-opacity:1;stroke-miterlimit:4;" d="M 144.499707 205.499601 L 160.499764 201.499845 L 176.499821 201.499845 " transform="matrix(3.779528,0,0,3.779528,0,0)"/>
<path style="fill:none;stroke-width:2;stroke-linecap:butt;stroke-linejoin:miter;stroke:rgb(0%,0%,0%);stroke-opacity:1;stroke-miterlimit:4;" d="M 214.499569 213.500146 L 230.999854 205.499601 L 239.000399 211.500269 L 230.999854 211.500269 L 225.00022 221.499658 L 227.000098 209.500391 " transform="matrix(3.779528,0,0,3.779528,0,0)"/>
<path style="fill:none;stroke-width:2;stroke-linecap:butt;stroke-linejoin:miter;stroke:rgb(0%,0%,0%);stroke-opacity:1;stroke-miterlimit:4;" d="M 221.999886 206.500057 L 216.000252 223.000342 L 223.499536 228.999976 " transform="matrix(3.779528,0,0,3.779528,0,0)"/>
<path style="fill:none;stroke-width:2;stroke-linecap:butt;stroke-linejoin:miter;stroke:rgb(0%,0%,0%);stroke-opacity:1;stroke-miterlimit:4;" d="M 239.000399 257.999756 L 218.999552 273.499585 L 221.000464 280.999902 L 227.000098 291.000326 L 228.999976 307.000382 L 214.499569 309.00026 L 223.000342 320.999528 L 230.999854 336.999585 L 243.000155 333.500057 L 246.99991 349.500114 L 248.999788 370.000155 L 248.999788 385.499984 L 250.999666 401.500041 L 250.999666 417.500098 L 248.999788 431.500277 L 254.500228 436.00026 L 256.500106 452.499512 L 248.000366 462.499935 L 269.499829 458.500179 L 284.999658 450.499634 L 300.999715 450.499634 L 320.500334 454.500423 L 332.499601 434.000382 L 348.999886 433.500155 L 365.500171 433.500155 L 386.000212 431.500277 L 402.000269 431.500277 L 423.999959 435.500033 L 440.000016 443.499544 L 456.000073 439.499788 L 472.500358 431.500277 L 500.499683 417.500098 " transform="matrix(3.779528,0,0,3.779528,0,0)"/>
<path style="fill:none;stroke-width:2;stroke-linecap:butt;stroke-linejoin:miter;stroke:rgb(0%,0%,0%);stroke-opacity:1;stroke-miterlimit:4;" d="M 359.499504 181.500033 L 343.50048 185.499788 L 327.000195 171.499609 " transform="matrix(3.779528,0,0,3.779528,0,0)"/>
<path style="fill:none;stroke-width:2;stroke-linecap:butt;stroke-linejoin:miter;stroke:rgb(0%,0%,0%);stroke-opacity:1;stroke-miterlimit:4;" d="M 325.499512 160.999992 L 341.999797 146.999813 L 357.999854 146.499585 L 366.000399 155.99978 L 368.500505 171.999837 " transform="matrix(3.779528,0,0,3.779528,0,0)"/>
<path style="fill:none;stroke-width:2;stroke-linecap:butt;stroke-linejoin:miter;stroke:rgb(0%,0%,0%);stroke-opacity:1;stroke-miterlimit:4;" d="M 329.999495 177.500277 L 326.499967 161.50022 L 336.500391 144.999935 " transform="matrix(3.779528,0,0,3.779528,0,0)"/>
<path style="fill:none;stroke-width:2;stroke-linecap:butt;stroke-linejoin:miter;stroke:rgb(0%,0%,0%);stroke-opacity:1;stroke-miterlimit:4;" d="M 385.499984 103.999854 L 370.000155 105.999731 L 354.000098 103.999854 L 338.500269 98.00022 L 323.000439 92.49978 L 307.000382 82.500391 L 291.000326 76.499723 L 275.500496 82.500391 " transform="matrix(3.779528,0,0,3.779528,0,0)"/>
<path style="fill:none;stroke-width:2;stroke-linecap:butt;stroke-linejoin:miter;stroke:rgb(0%,0%,0%);stroke-opacity:1;stroke-miterlimit:4;" d="M 287.999992 76.499723 L 269.499829 91.999552 L 275.500496 107.500415 L 281.50013 115.499927 L 298.000415 114.000277 " transform="matrix(3.779528,0,0,3.779528,0,0)"/>
<path style="fill:none;stroke-width:2;stroke-linecap:butt;stroke-linejoin:miter;stroke:rgb(0%,0%,0%);stroke-opacity:1;stroke-miterlimit:4;" d="M 293.500431 111.500171 L 307.499577 95.500114 L 293.500431 79.500057 " transform="matrix(3.779528,0,0,3.779528,0,0)"/>
<path style="fill:none;stroke-width:2;stroke-linecap:butt;stroke-linejoin:miter;stroke:rgb(0%,0%,0%);stroke-opacity:1;stroke-miterlimit:4;" d="M 295.999504 57.999561 L 291.999748 48.000171 L 280.499674 60.499666 " transform="matrix(3.779528,0,0,3.779528,0,0)"/>
<path style="fill:none;stroke-width:2;stroke-linecap:butt;stroke-linejoin:miter;stroke:rgb(0%,0%,0%);stroke-opacity:1;stroke-miterlimit:4;" d="M 289.000448 1.49965 L 289.000448 17.499707 L 293.500431 33.499764 L 297.500187 49.499821 L 302.000171 64.99965 L 309.999683 79.500057 L 343.999674 95.500114 " transform="matrix(3.779528,0,0,3.779528,0,0)"/>
<path style="fill:none;stroke-width:2;stroke-linecap:butt;stroke-linejoin:miter;stroke:rgb(0%,0%,0%);stroke-opacity:1;stroke-miterlimit:4;" d="M 373.000488 101.499748 L 339.999919 93.500236 L 324.50009 87.499569 L 308.500033 76.999951 L 293.000203 66.999528 L 277.500374 73.000195 L 261.999512 80.999707 L 246.000488 89.000252 L 230.000431 92.49978 L 214.499569 94.999886 L 198.499512 97.499992 L 182.500488 105.000309 " transform="matrix(3.779528,0,0,3.779528,0,0)"/>
<path style="fill:none;stroke-width:2;stroke-linecap:butt;stroke-linejoin:miter;stroke:rgb(0%,0%,0%);stroke-opacity:1;stroke-miterlimit:4;" d="M 184.000138 110.999943 L 200.000195 103.000431 L 215.500024 98.500448 L 231.500081 96.499536 L 248.000366 93.000008 L 264.000423 87.000374 L 252.000122 91.00013 L 217.499902 115.499927 L 223.999764 115.499927 L 243.999577 113.500049 L 225.999642 139.499495 L 205.999829 155.499552 L 205.999829 171.999837 L 220.000008 187.999894 " transform="matrix(3.779528,0,0,3.779528,0,0)"/>
<path style="fill:none;stroke-width:2;stroke-linecap:butt;stroke-linejoin:miter;stroke:rgb(0%,0%,0%);stroke-opacity:1;stroke-miterlimit:4;" d="M 237.999943 187.499666 L 221.999886 187.000472 L 206.500057 171.000415 " transform="matrix(3.779528,0,0,3.779528,0,0)"/>
<path style="fill:none;stroke-width:2;stroke-linecap:butt;stroke-linejoin:miter;stroke:rgb(0%,0%,0%);stroke-opacity:1;stroke-miterlimit:4;" d="M 212.499691 155.99978 L 228.499748 146.000391 L 243.999577 153.999902 " transform="matrix(3.779528,0,0,3.779528,0,0)"/>
<path style="fill:none;stroke-width:2;stroke-linecap:butt;stroke-linejoin:miter;stroke:rgb(0%,0%,0%);stroke-opacity:1;stroke-miterlimit:4;" d="M 254.500228 157.999658 L 238.500171 143.500285 L 222.500114 141.000179 L 205.999829 154.50013 " transform="matrix(3.779528,0,0,3.779528,0,0)"/>
<path style="fill:none;stroke-width:2;stroke-linecap:butt;stroke-linejoin:miter;stroke:rgb(0%,0%,0%);stroke-opacity:1;stroke-miterlimit:4;" d="M 223.499536 144.999935 L 209.500391 160.999992 L 213.500146 177.500277 L 219.49978 179.500155 L 235.499837 184.000138 " transform="matrix(3.779528,0,0,3.779528,0,0)"/>
<path style="fill:none;stroke-width:2;stroke-linecap:butt;stroke-linejoin:miter;stroke:rgb(0%,0%,0%);stroke-opacity:1;stroke-miterlimit:4;" d="M 240.500049 179.500155 L 248.499561 163.500098 L 234.000187 147.500041 " transform="matrix(3.779528,0,0,3.779528,0,0)"/>
<path style="fill:none;stroke-width:2;stroke-linecap:butt;stroke-linejoin:miter;stroke:rgb(0%,0%,0%);stroke-opacity:1;stroke-miterlimit:4;" d="M 231.500081 141.500407 L 251.499894 157.500464 L 252.000122 173.499487 " transform="matrix(3.779528,0,0,3.779528,0,0)"/>
<path style="fill:none;stroke-width:2;stroke-linecap:butt;stroke-linejoin:miter;stroke:rgb(0%,0%,0%);stroke-opacity:1;stroke-miterlimit:4;" d="M 236.500293 127 L 220.500236 123.000244 " transform="matrix(3.779528,0,0,3.779528,0,0)"/>
<path style="fill:none;stroke-width:2;stroke-linecap:butt;stroke-linejoin:miter;stroke:rgb(0%,0%,0%);stroke-opacity:1;stroke-miterlimit:4;" d="M 218.500358 114.500505 L 234.500415 106.499959 L 238.500171 116.500382 " transform="matrix(3.779528,0,0,3.779528,0,0)"/>
<path style="fill:none;stroke-width:2;stroke-linecap:butt;stroke-linejoin:miter;stroke:rgb(0%,0%,0%);stroke-opacity:1;stroke-miterlimit:4;" d="M 181.500033 128.000456 L 184.999561 112.000399 L 191.000228 94.000464 L 184.999561 78.000407 L 180.499577 62.00035 L 175.999593 45.500065 L 168.000081 32.999536 L 151.499797 32.999536 L 135.49974 37.000326 " transform="matrix(3.779528,0,0,3.779528,0,0)"/>
<path style="fill:none;stroke-width:2;stroke-linecap:butt;stroke-linejoin:miter;stroke:rgb(0%,0%,0%);stroke-opacity:1;stroke-miterlimit:4;" d="M 141.999601 39.000203 L 139.999723 55.500488 L 144.000513 71.499512 L 146.000391 87.499569 L 152.000024 103.499626 L 155.99978 119.499683 L 153.999902 135.49974 L 140.499951 155.499552 L 173.000293 155.499552 " transform="matrix(3.779528,0,0,3.779528,0,0)"/>
<path style="fill:none;stroke-width:2;stroke-linecap:butt;stroke-linejoin:miter;stroke:rgb(0%,0%,0%);stroke-opacity:1;stroke-miterlimit:4;" d="M 147.500041 151.499797 L 132.000212 155.499552 " transform="matrix(3.779528,0,0,3.779528,0,0)"/>
<path style="fill:none;stroke-width:2;stroke-linecap:butt;stroke-linejoin:miter;stroke:rgb(0%,0%,0%);stroke-opacity:1;stroke-miterlimit:4;" d="M 130.499528 151.499797 L 146.499585 125.999544 L 162.000448 135.999967 L 177.500277 150.000146 " transform="matrix(3.779528,0,0,3.779528,0,0)"/>
<path style="fill:none;stroke-width:2;stroke-linecap:butt;stroke-linejoin:miter;stroke:rgb(0%,0%,0%);stroke-opacity:1;stroke-miterlimit:4;" d="M 162.99987 141.500407 L 155.000358 125.999544 " transform="matrix(3.779528,0,0,3.779528,0,0)"/>
<path style="fill:none;stroke-width:2;stroke-linecap:butt;stroke-linejoin:miter;stroke:rgb(0%,0%,0%);stroke-opacity:1;stroke-miterlimit:4;" d="M 143.500285 120.500138 L 137.499618 136.500195 L 131.499984 136.500195 " transform="matrix(3.779528,0,0,3.779528,0,0)"/>
<path style="fill:none;stroke-width:2;stroke-linecap:butt;stroke-linejoin:miter;stroke:rgb(0%,0%,0%);stroke-opacity:1;stroke-miterlimit:4;" d="M 114.000277 146.000391 L 109.999487 116.000155 L 104.500081 131.499984 L 100.500326 150.000146 L 100.99952 166.000203 L 96.999764 189.999772 " transform="matrix(3.779528,0,0,3.779528,0,0)"/>
<path style="fill:none;stroke-width:2;stroke-linecap:butt;stroke-linejoin:miter;stroke:rgb(0%,0%,0%);stroke-opacity:1;stroke-miterlimit:4;" d="M 100.500326 190.5 L 106.499959 191.000228 L 110.499715 174.499943 L 112.999821 159.000114 L 117.499805 143.000057 L 123.500472 127 L 119.499683 110.499715 L 107.500415 120.500138 " transform="matrix(3.779528,0,0,3.779528,0,0)"/>
<path style="fill:none;stroke-width:2;stroke-linecap:butt;stroke-linejoin:miter;stroke:rgb(0%,0%,0%);stroke-opacity:1;stroke-miterlimit:4;" d="M 114.000277 114.999699 L 114.000277 130.999756 L 109.500293 146.999813 L 105.499504 162.99987 L 101.499748 178.999927 " transform="matrix(3.779528,0,0,3.779528,0,0)"/>
<path style="fill:none;stroke-width:2;stroke-linecap:butt;stroke-linejoin:miter;stroke:rgb(0%,0%,0%);stroke-opacity:1;stroke-miterlimit:4;" d="M 77.500179 153.00048 L 93.500236 116.500382 L 73.500423 121.000366 L 65.499878 139.000301 L 64.000228 157.000236 L 60.000472 173.000293 L 57.999561 188.500122 L 56.49991 203.999951 L 66.500334 231.500081 L 68.500212 241.500505 L 84.500269 245.50026 L 100.99952 247.500138 L 116.999577 239.499593 L 132.999634 227.500326 L 148.999691 231.500081 L 164.999748 233.499959 L 180.999805 233.499959 " transform="matrix(3.779528,0,0,3.779528,0,0)"/>
<path style="fill:none;stroke-width:2;stroke-linecap:butt;stroke-linejoin:miter;stroke:rgb(0%,0%,0%);stroke-opacity:1;stroke-miterlimit:4;" d="M 180.999805 239.999821 L 164.999748 239.499593 L 148.500496 235.499837 L 132.500439 237.499715 L 118.000033 248.999788 L 100.000098 241.500505 L 84.000041 237.499715 L 67.999984 231.500081 L 50.000049 230.000431 L 42.499731 221.999886 L 50.500277 221.999886 L 48.500399 214.000374 L 50.500277 212.000496 L 53.499577 180.000382 L 55.500488 164.000326 L 59.500244 148.000269 L 61.500122 132.000212 L 69.499634 115.499927 L 89.000252 114.000277 L 73.000195 146.000391 " transform="matrix(3.779528,0,0,3.779528,0,0)"/>
<path style="fill:none;stroke-width:2;stroke-linecap:butt;stroke-linejoin:miter;stroke:rgb(0%,0%,0%);stroke-opacity:1;stroke-miterlimit:4;" d="M 66.500334 114.500505 L 56.49991 130.499528 L 50.500277 146.499585 L 64.500456 116.500382 L 80.500513 112.499593 L 100.500326 122.500016 L 116.000155 107.999609 L 134.00009 112.000399 L 141.999601 117.499805 " transform="matrix(3.779528,0,0,3.779528,0,0)"/>
<path style="fill:none;stroke-width:2;stroke-linecap:butt;stroke-linejoin:miter;stroke:rgb(0%,0%,0%);stroke-opacity:1;stroke-miterlimit:4;" d="M 106.499959 108.499837 L 100.500326 124.499894 L 96.499536 140.499951 L 94.499658 156.500008 L 94.499658 172.500065 L 92.49978 188.500122 L 93.000008 204.500179 " transform="matrix(3.779528,0,0,3.779528,0,0)"/>
<path style="fill:none;stroke-width:2;stroke-linecap:butt;stroke-linejoin:miter;stroke:rgb(0%,0%,0%);stroke-opacity:1;stroke-miterlimit:4;" d="M 71.99974 220.000008 L 103.999854 227.99952 L 119.99991 223.999764 L 135.999967 186.000016 L 151.499797 196.000439 L 168.000081 187.999894 L 184.000138 191.500456 " transform="matrix(3.779528,0,0,3.779528,0,0)"/>
<path style="fill:none;stroke-width:2;stroke-linecap:butt;stroke-linejoin:miter;stroke:rgb(0%,0%,0%);stroke-opacity:1;stroke-miterlimit:4;" d="M 148.999691 235.499837 L 171.000415 251.499894 " transform="matrix(3.779528,0,0,3.779528,0,0)"/>
<path style="fill:none;stroke-width:2;stroke-linecap:butt;stroke-linejoin:miter;stroke:rgb(0%,0%,0%);stroke-opacity:1;stroke-miterlimit:4;" d="M 139.000301 244.499805 L 132.999634 259.999634 L 127 275.999691 L 114.999699 291.49952 L 112.499593 283.500008 " transform="matrix(3.779528,0,0,3.779528,0,0)"/>
<path style="fill:none;stroke-width:2;stroke-linecap:butt;stroke-linejoin:miter;stroke:rgb(0%,0%,0%);stroke-opacity:1;stroke-miterlimit:4;" d="M 121.999788 291.000326 L 106.499959 303.499821 L 123.000244 291.49952 L 132.999634 275.500496 L 139.000301 259.500439 " transform="matrix(3.779528,0,0,3.779528,0,0)"/>
<path style="fill:none;stroke-width:2;stroke-linecap:butt;stroke-linejoin:miter;stroke:rgb(0%,0%,0%);stroke-opacity:1;stroke-miterlimit:4;" d="M 155.000358 249.500016 L 141.000179 234.000187 " transform="matrix(3.779528,0,0,3.779528,0,0)"/>
<path style="fill:none;stroke-width:2;stroke-linecap:butt;stroke-linejoin:miter;stroke:rgb(0%,0%,0%);stroke-opacity:1;stroke-miterlimit:4;" d="M 135.999967 232.499504 L 125.999544 232.499504 L 109.999487 248.000366 L 105.999731 259.999634 L 96.000342 275.500496 L 96.499536 291.000326 L 102.500203 301.499943 L 118.50026 287.999992 L 118.50026 254.500228 L 134.999512 244.499805 L 128.999878 246.99991 L 110.999943 262.999967 L 109.000065 273.000391 L 100.500326 278.499797 L 101.999976 289.99987 L 107.999609 275.999691 L 123.999666 261.500317 " transform="matrix(3.779528,0,0,3.779528,0,0)"/>
<path style="fill:none;stroke-width:2;stroke-linecap:butt;stroke-linejoin:miter;stroke:rgb(0%,0%,0%);stroke-opacity:1;stroke-miterlimit:4;" d="M 169.499731 309.999683 L 147.500041 325.99974 L 127 342.500024 L 116.999577 358.500081 L 105.499504 374.500138 L 93.500236 390.500195 L 85.499691 406.500252 L 81.499935 423.999959 L 79.500057 445.99965 L 81.499935 461.999707 L 85.999919 477.499536 " transform="matrix(3.779528,0,0,3.779528,0,0)"/>
<path style="fill:none;stroke-width:2;stroke-linecap:butt;stroke-linejoin:miter;stroke:rgb(0%,0%,0%);stroke-opacity:1;stroke-miterlimit:4;" d="M 173.999715 338.500269 L 202.000073 354.500326 " transform="matrix(3.779528,0,0,3.779528,0,0)"/>
<path style="fill:none;stroke-width:2;stroke-linecap:butt;stroke-linejoin:miter;stroke:rgb(0%,0%,0%);stroke-opacity:1;stroke-miterlimit:4;" d="M 203.499723 348.999886 L 171.499609 332.999829 " transform="matrix(3.779528,0,0,3.779528,0,0)"/>
<path style="fill:none;stroke-width:2;stroke-linecap:butt;stroke-linejoin:miter;stroke:rgb(0%,0%,0%);stroke-opacity:1;stroke-miterlimit:4;" d="M 176.499821 314.499666 L 142.499829 338.500269 L 150.500374 354.000098 L 188.500122 370.000155 L 188.500122 386.000212 L 174.499943 402.000269 L 162.000448 418.000326 L 168.000081 431.500277 L 180.000382 443.499544 L 189.999772 440.000016 L 207.999707 434.000382 L 239.999821 434.000382 " transform="matrix(3.779528,0,0,3.779528,0,0)"/>
<path style="fill:none;stroke-width:2;stroke-linecap:butt;stroke-linejoin:miter;stroke:rgb(0%,0%,0%);stroke-opacity:1;stroke-miterlimit:4;" d="M 184.999561 463.999585 L 179.500155 447.500334 L 187.499666 431.500277 L 189.499544 416.000448 L 196.000439 400.000391 L 203.999951 384.000334 L 214.000374 367.500049 L 221.999886 351.499992 L 221.999886 335.499935 L 184.000138 315.500122 " transform="matrix(3.779528,0,0,3.779528,0,0)"/>
<path style="fill:none;stroke-width:2;stroke-linecap:butt;stroke-linejoin:miter;stroke:rgb(0%,0%,0%);stroke-opacity:1;stroke-miterlimit:4;" d="M 53.499577 280.499674 L 35.499642 264.499618 L 31.499886 254.500228 L 15.499829 250.500472 " transform="matrix(3.779528,0,0,3.779528,0,0)"/>
<path style="fill:none;stroke-width:2;stroke-linecap:butt;stroke-linejoin:miter;stroke:rgb(0%,0%,0%);stroke-opacity:1;stroke-miterlimit:4;" d="M 14.500407 245.50026 L 30.500464 235.499837 L 10.499618 241.999699 L 6.499862 254 L 30.500464 282.000358 " transform="matrix(3.779528,0,0,3.779528,0,0)"/>
<path style="fill:none;stroke-width:2;stroke-linecap:butt;stroke-linejoin:miter;stroke:rgb(0%,0%,0%);stroke-opacity:1;stroke-miterlimit:4;" d="M 32.500342 286.999536 L 48.000171 303.499821 L 41.999504 319.499878 L 10.000423 341.999797 L 26.499674 338.000041 " transform="matrix(3.779528,0,0,3.779528,0,0)"/>
<path style="fill:none;stroke-width:2;stroke-linecap:butt;stroke-linejoin:miter;stroke:rgb(0%,0%,0%);stroke-opacity:1;stroke-miterlimit:4;" d="M 50.000049 299.500065 L 33.999992 327.500423 L 17.999935 323.000439 L 5.500439 335.499935 L 5.000212 339.499691 L 3.499528 329.500301 L 3.499528 313.500244 L 15.499829 295.500309 L 17.499707 283.500008 L 1.49965 280.00048 " transform="matrix(3.779528,0,0,3.779528,0,0)"/>
<path style="fill:none;stroke-width:2;stroke-linecap:butt;stroke-linejoin:miter;stroke:rgb(0%,0%,0%);stroke-opacity:1;stroke-miterlimit:4;" d="M 1.999878 267.499951 L 17.999935 275.500496 L 33.999992 280.999902 L 50.000049 289.000448 " transform="matrix(3.779528,0,0,3.779528,0,0)"/>
<path style="fill:none;stroke-width:2;stroke-linecap:butt;stroke-linejoin:miter;stroke:rgb(0%,0%,0%);stroke-opacity:1;stroke-miterlimit:4;" d="M 25.500252 286.000114 L 19.499585 302.000171 L 3.499528 308.500033 " transform="matrix(3.779528,0,0,3.779528,0,0)"/>
<path style="fill:none;stroke-width:2;stroke-linecap:butt;stroke-linejoin:miter;stroke:rgb(0%,0%,0%);stroke-opacity:1;stroke-miterlimit:4;" d="M 53.499577 246.000488 L 39.000203 240.500049 L 37.000326 224.499992 L 37.000326 208.499935 L 36.500098 192.499878 " transform="matrix(3.779528,0,0,3.779528,0,0)"/>
<path style="fill:none;stroke-width:2;stroke-linecap:butt;stroke-linejoin:miter;stroke:rgb(0%,0%,0%);stroke-opacity:1;stroke-miterlimit:4;" d="M 121.499561 206.500057 L 105.499504 221.999886 L 89.50048 218.500358 L 73.500423 214.999797 L 50.000049 219.49978 L 62.00035 207.999707 L 66.000106 190.5 L 67.999984 174.499943 L 72.499967 157.999658 L 76.499723 141.999601 L 82.500391 126.499772 L 91.00013 110.499715 " transform="matrix(3.779528,0,0,3.779528,0,0)"/>
<path style="fill:none;stroke-width:2;stroke-linecap:butt;stroke-linejoin:miter;stroke:rgb(0%,0%,0%);stroke-opacity:1;stroke-miterlimit:4;" d="M 72.499967 105.499504 L 62.00035 111.500171 L 51.999927 127.500228 L 46.000293 143.000057 L 60.000472 114.999699 L 70.50009 114.500505 L 86.500146 102.500203 L 98.00022 108.499837 L 89.999674 124.499894 L 78.000407 156.500008 L 73.999618 171.999837 L 69.499634 188.500122 L 67.499756 204.500179 L 66.000106 220.500236 " transform="matrix(3.779528,0,0,3.779528,0,0)"/>
<path style="fill:none;stroke-width:2;stroke-linecap:butt;stroke-linejoin:miter;stroke:rgb(0%,0%,0%);stroke-opacity:1;stroke-miterlimit:4;" d="M 141.999601 40.499854 L 157.999658 38.499976 L 173.999715 53.999805 " transform="matrix(3.779528,0,0,3.779528,0,0)"/>
<path style="fill:none;stroke-width:2;stroke-linecap:butt;stroke-linejoin:miter;stroke:rgb(0%,0%,0%);stroke-opacity:1;stroke-miterlimit:4;" d="M 168.000081 35.499642 L 171.999837 51.499699 L 175.500399 67.499756 L 181.500033 83.499813 L 185.499788 99.49987 L 202.000073 101.999976 L 187.999894 117.499805 L 186.000016 133.499862 L 173.999715 157.999658 L 175.999593 171.999837 L 186.000016 196.499634 " transform="matrix(3.779528,0,0,3.779528,0,0)"/>
<path style="fill:none;stroke-width:2;stroke-linecap:butt;stroke-linejoin:miter;stroke:rgb(0%,0%,0%);stroke-opacity:1;stroke-miterlimit:4;" d="M 118.50026 216.50048 L 126.499772 200.500423 L 130.999756 184.500366 L 132.999634 174.499943 L 138.500073 158.499886 L 132.000212 158.499886 L 130.000334 142.499829 L 135.999967 126.499772 L 150.000146 114.500505 L 144.000513 98.00022 L 139.499495 81.499935 L 137.499618 64.99965 L 135.49974 48.999593 L 143.500285 32.999536 " transform="matrix(3.779528,0,0,3.779528,0,0)"/>
<path style="fill:none;stroke-width:2;stroke-linecap:butt;stroke-linejoin:miter;stroke:rgb(0%,0%,0%);stroke-opacity:1;stroke-miterlimit:4;" d="M 402.000269 39.500431 L 395.999601 55.500488 L 391.999845 71.99974 L 389.999967 87.999797 L 386.000212 103.499626 L 390.500195 117.499805 " transform="matrix(3.779528,0,0,3.779528,0,0)"/>
<path style="fill:none;stroke-width:2;stroke-linecap:butt;stroke-linejoin:miter;stroke:rgb(0%,0%,0%);stroke-opacity:1;stroke-miterlimit:4;" d="M 465.000041 90.499902 L 431.000049 104.500081 L 443.00035 114.000277 L 450.999862 96.000342 L 466.499691 89.999674 L 482.499748 109.500293 " transform="matrix(3.779528,0,0,3.779528,0,0)"/>
<path style="fill:none;stroke-width:2;stroke-linecap:butt;stroke-linejoin:miter;stroke:rgb(0%,0%,0%);stroke-opacity:1;stroke-miterlimit:4;" d="M 493.000399 66.500334 L 497.000155 52.500155 L 493.000399 68.500212 L 497.000155 64.000228 L 502.999788 51.999927 " transform="matrix(3.779528,0,0,3.779528,0,0)"/>
<path style="fill:none;stroke-width:2;stroke-linecap:butt;stroke-linejoin:miter;stroke:rgb(0%,0%,0%);stroke-opacity:1;stroke-miterlimit:4;" d="M 402.999691 33.999992 L 391.499618 50.000049 L 386.999634 65.499878 L 385.499984 81.499935 L 381.500228 97.499992 L 386.000212 123.500472 L 393.999723 137.499618 L 396.499829 155.99978 L 394.499951 171.999837 L 395.000179 188.500122 L 395.000179 220.500236 L 393.000301 236.500293 L 388.999512 252.000122 L 388.999512 264.000423 L 384.999756 285.499886 L 395.000179 298.000415 L 413.000114 305.999927 L 429.000171 304.500277 L 435.500033 296.499731 L 451.50009 300.499487 L 466.999919 290.500098 L 482.999976 288.50022 L 498.499805 287.999992 " transform="matrix(3.779528,0,0,3.779528,0,0)"/>
</g>
</svg>
