<?xml version="1.0" encoding="UTF-8"?>
<svg xmlns="http://www.w3.org/2000/svg" xmlns:xlink="http://www.w3.org/1999/xlink" width="1935.11811" height="1935.11811" viewBox="0 0 1935.11811 1935.11811" version="1.1">
<g id="surface1">
<path style="fill:none;stroke-width:2;stroke-linecap:butt;stroke-linejoin:miter;stroke:rgb(0%,0%,0%);stroke-opacity:1;stroke-miterlimit:4;" d="M 259.500439 2.500106 L 261.500317 18.500163 L 261.500317 34.50022 L 249.500016 50.500277 L 259.500439 59.000016 L 273.499585 62.999772 L 320.999528 62.999772 L 336.999585 78.499601 L 352.500448 108.499837 L 368.999699 110.499715 L 384.999756 106.499959 L 402.999691 108.499837 L 419.499976 114.000277 L 435.500033 121.499561 L 451.50009 134.999512 L 461.500513 162.99987 L 477.499536 198.99974 L 493.499593 222.500114 L 509.999878 230.499626 " transform="matrix(3.779528,0,0,3.779528,0,0)"/>
<path style="fill:none;stroke-width:2;stroke-linecap:butt;stroke-linejoin:miter;stroke:rgb(0%,0%,0%);stroke-opacity:1;stroke-miterlimit:4;" d="M 490.500293 222.500114 L 476.500114 214.499569 " transform="matrix(3.779528,0,0,3.779528,0,0)"/>
<path style="fill:none;stroke-width:2;stroke-linecap:butt;stroke-linejoin:miter;stroke:rgb(0%,0%,0%);stroke-opacity:1;stroke-miterlimit:4;" d="M 455.499845 200.000195 L 470.999674 223.999764 L 486.999731 245.50026 " transform="matrix(3.779528,0,0,3.779528,0,0)"/>
<path style="fill:none;stroke-width:2;stroke-linecap:butt;stroke-linejoin:miter;stroke:rgb(0%,0%,0%);stroke-opacity:1;stroke-miterlimit:4;" d="M 490.999487 250.000244 L 477.000342 234.000187 L 466.999919 217.499902 L 454.999618 201.499845 L 447.000106 185.499788 L 443.499544 169.999959 L 440.000016 162.000448 " transform="matrix(3.779528,0,0,3.779528,0,0)"/>
<path style="fill:none;stroke-width:2;stroke-linecap:butt;stroke-linejoin:miter;stroke:rgb(0%,0%,0%);stroke-opacity:1;stroke-miterlimit:4;" d="M 468.999797 150.500374 L 466.999919 140.499951 L 459.499601 135.999967 L 459.499601 132.000212 " transform="matrix(3.779528,0,0,3.779528,0,0)"/>
<path style="fill:none;stroke-width:2;stroke-linecap:butt;stroke-linejoin:miter;stroke:rgb(0%,0%,0%);stroke-opacity:1;stroke-miterlimit:4;" d="M 447.500334 142.499829 L 431.500277 128.000456 " transform="matrix(3.779528,0,0,3.779528,0,0)"/>
<path style="fill:none;stroke-width:2;stroke-linecap:butt;stroke-linejoin:miter;stroke:rgb(0%,0%,0%);stroke-opacity:1;stroke-miterlimit:4;" d="M 438.999561 126.499772 L 456.999495 142.499829 L 463.000163 157.999658 L 465.000041 173.999715 L 470.50048 189.999772 L 480.49987 205.499601 L 478.499992 217.499902 L 480.49987 220.000008 " transform="matrix(3.779528,0,0,3.779528,0,0)"/>
<path style="fill:none;stroke-width:2;stroke-linecap:butt;stroke-linejoin:miter;stroke:rgb(0%,0%,0%);stroke-opacity:1;stroke-miterlimit:4;" d="M 441.999894 139.999723 L 422.000081 123.500472 L 429.999593 119.499683 L 420.500431 116.999577 " transform="matrix(3.779528,0,0,3.779528,0,0)"/>
<path style="fill:none;stroke-width:2;stroke-linecap:butt;stroke-linejoin:miter;stroke:rgb(0%,0%,0%);stroke-opacity:1;stroke-miterlimit:4;" d="M 361.500415 87.000374 L 345.500358 78.999829 " transform="matrix(3.779528,0,0,3.779528,0,0)"/>
<path style="fill:none;stroke-width:2;stroke-linecap:butt;stroke-linejoin:miter;stroke:rgb(0%,0%,0%);stroke-opacity:1;stroke-miterlimit:4;" d="M 347.000008 80.999707 L 364.499715 93.000008 " transform="matrix(3.779528,0,0,3.779528,0,0)"/>
<path style="fill:none;stroke-width:2;stroke-linecap:butt;stroke-linejoin:miter;stroke:rgb(0%,0%,0%);stroke-opacity:1;stroke-miterlimit:4;" d="M 348.000464 109.000065 L 332.000407 78.999829 L 316.00035 79.500057 L 300.000293 79.500057 " transform="matrix(3.779528,0,0,3.779528,0,0)"/>
<path style="fill:none;stroke-width:2;stroke-linecap:butt;stroke-linejoin:miter;stroke:rgb(0%,0%,0%);stroke-opacity:1;stroke-miterlimit:4;" d="M 327.500423 65.499878 L 331.500179 81.499935 L 339.499691 97.499992 L 339.499691 110.999943 L 319.499878 127 L 305.499699 136.500195 L 321.999984 126.499772 L 338.500269 107.999609 " transform="matrix(3.779528,0,0,3.779528,0,0)"/>
<path style="fill:none;stroke-width:2;stroke-linecap:butt;stroke-linejoin:miter;stroke:rgb(0%,0%,0%);stroke-opacity:1;stroke-miterlimit:4;" d="M 338.500269 80.999707 L 346.49978 96.499536 L 354.500326 112.499593 L 362.499837 116.500382 L 322.500212 148.500496 L 300.999715 164.49952 L 325.000317 156.500008 L 341.499569 141.999601 L 357.000431 128.000456 " transform="matrix(3.779528,0,0,3.779528,0,0)"/>
<path style="fill:none;stroke-width:2;stroke-linecap:butt;stroke-linejoin:miter;stroke:rgb(0%,0%,0%);stroke-opacity:1;stroke-miterlimit:4;" d="M 296.999959 205.499601 L 309.00026 225.500448 L 300.999715 241.500505 L 312.499788 221.499658 L 309.999683 234.999609 " transform="matrix(3.779528,0,0,3.779528,0,0)"/>
<path style="fill:none;stroke-width:2;stroke-linecap:butt;stroke-linejoin:miter;stroke:rgb(0%,0%,0%);stroke-opacity:1;stroke-miterlimit:4;" d="M 288.50022 238.500171 L 272.500163 238.500171 L 256.500106 241.000277 L 239.999821 240.500049 L 223.499536 240.500049 L 198.99974 241.999699 L 182.999683 241.500505 L 166.999626 241.500505 L 150.999569 243.500382 L 129.500106 237.499715 L 113.500049 237.499715 L 97.499992 237.999943 L 82.000163 237.999943 L 66.000106 239.999821 L 50.000049 239.499593 L 18.500163 239.499593 L 2.500106 239.000399 " transform="matrix(3.779528,0,0,3.779528,0,0)"/>
<path style="fill:none;stroke-width:2;stroke-linecap:butt;stroke-linejoin:miter;stroke:rgb(0%,0%,0%);stroke-opacity:1;stroke-miterlimit:4;" d="M 1.999878 245.50026 L 34.50022 245.50026 L 50.500277 246.000488 L 66.500334 243.999577 L 114.500505 243.999577 " transform="matrix(3.779528,0,0,3.779528,0,0)"/>
<path style="fill:none;stroke-width:2;stroke-linecap:butt;stroke-linejoin:miter;stroke:rgb(0%,0%,0%);stroke-opacity:1;stroke-miterlimit:4;" d="M 135.999967 266.000301 L 144.000513 268.000179 L 144.000513 300.499487 L 139.999723 304.500277 L 141.999601 320.500334 L 163.500098 336.500391 L 196.999862 352.500448 " transform="matrix(3.779528,0,0,3.779528,0,0)"/>
<path style="fill:none;stroke-width:2;stroke-linecap:butt;stroke-linejoin:miter;stroke:rgb(0%,0%,0%);stroke-opacity:1;stroke-miterlimit:4;" d="M 144.999935 367.500049 L 160.999992 375.499561 L 178.499699 384.000334 L 210.499813 395.999601 L 226.49987 402.000269 L 241.999699 407.999902 " transform="matrix(3.779528,0,0,3.779528,0,0)"/>
<path style="fill:none;stroke-width:2;stroke-linecap:butt;stroke-linejoin:miter;stroke:rgb(0%,0%,0%);stroke-opacity:1;stroke-miterlimit:4;" d="M 244.499805 403.499919 L 246.499683 419.499976 L 247.500138 435.500033 L 248.000366 451.50009 L 248.000366 500.000488 " transform="matrix(3.779528,0,0,3.779528,0,0)"/>
<path style="fill:none;stroke-width:2;stroke-linecap:butt;stroke-linejoin:miter;stroke:rgb(0%,0%,0%);stroke-opacity:1;stroke-miterlimit:4;" d="M 264.999845 484.000431 L 280.999902 495.500505 " transform="matrix(3.779528,0,0,3.779528,0,0)"/>
<path style="fill:none;stroke-width:2;stroke-linecap:butt;stroke-linejoin:miter;stroke:rgb(0%,0%,0%);stroke-opacity:1;stroke-miterlimit:4;" d="M 263.500195 452.99974 L 263.500195 468.999797 L 255.49965 447.500334 L 271.499707 431.500277 L 287.499764 416.000448 L 303.499821 411.999658 " transform="matrix(3.779528,0,0,3.779528,0,0)"/>
<path style="fill:none;stroke-width:2;stroke-linecap:butt;stroke-linejoin:miter;stroke:rgb(0%,0%,0%);stroke-opacity:1;stroke-miterlimit:4;" d="M 370.000155 354.500326 L 386.000212 348.000464 L 401.500041 336.500391 L 413.500342 324.50009 L 395.999601 340.500146 L 384.499528 340.500146 L 358.500081 356.500203 L 374.500138 338.000041 L 390.500195 327.999618 " transform="matrix(3.779528,0,0,3.779528,0,0)"/>
<path style="fill:none;stroke-width:2;stroke-linecap:butt;stroke-linejoin:miter;stroke:rgb(0%,0%,0%);stroke-opacity:1;stroke-miterlimit:4;" d="M 383.500106 339.999919 L 367.500049 350.000342 " transform="matrix(3.779528,0,0,3.779528,0,0)"/>
<path style="fill:none;stroke-width:2;stroke-linecap:butt;stroke-linejoin:miter;stroke:rgb(0%,0%,0%);stroke-opacity:1;stroke-miterlimit:4;" d="M 413.500342 346.49978 L 407.499674 352.500448 L 419.499976 336.500391 " transform="matrix(3.779528,0,0,3.779528,0,0)"/>
<path style="fill:none;stroke-width:2;stroke-linecap:butt;stroke-linejoin:miter;stroke:rgb(0%,0%,0%);stroke-opacity:1;stroke-miterlimit:4;" d="M 422.000081 323.000439 L 402.000269 325.000317 L 387.499862 329.000073 L 363.500293 345.00013 L 357.499626 361.000187 L 357.499626 377.000244 L 354.99952 392.500073 L 352.999642 408.50013 " transform="matrix(3.779528,0,0,3.779528,0,0)"/>
<path style="fill:none;stroke-width:2;stroke-linecap:butt;stroke-linejoin:miter;stroke:rgb(0%,0%,0%);stroke-opacity:1;stroke-miterlimit:4;" d="M 368.500505 326.499967 L 394.499951 310.49991 " transform="matrix(3.779528,0,0,3.779528,0,0)"/>
<path style="fill:none;stroke-width:2;stroke-linecap:butt;stroke-linejoin:miter;stroke:rgb(0%,0%,0%);stroke-opacity:1;stroke-miterlimit:4;" d="M 341.499569 283.500008 L 325.499512 281.50013 " transform="matrix(3.779528,0,0,3.779528,0,0)"/>
<path style="fill:none;stroke-width:2;stroke-linecap:butt;stroke-linejoin:miter;stroke:rgb(0%,0%,0%);stroke-opacity:1;stroke-miterlimit:4;" d="M 327.000195 260.499862 L 323.000439 276.499919 L 343.000252 287.999992 L 350.999764 303.499821 L 352.999642 319.499878 L 361.000187 325.000317 L 377.500472 320.999528 L 393.999723 309.500488 L 411.999658 315.500122 " transform="matrix(3.779528,0,0,3.779528,0,0)"/>
<path style="fill:none;stroke-width:2;stroke-linecap:butt;stroke-linejoin:miter;stroke:rgb(0%,0%,0%);stroke-opacity:1;stroke-miterlimit:4;" d="M 317.5 169.999959 L 337.499813 153.999902 L 355.499748 137.499618 L 349.500114 123.500472 L 334.000285 139.499495 L 318.000228 151.499797 L 302.500399 161.50022 L 286.999536 159.500342 L 271.000513 132.000212 L 255.000456 101.999976 L 239.000399 70.50009 " transform="matrix(3.779528,0,0,3.779528,0,0)"/>
<path style="fill:none;stroke-width:2;stroke-linecap:butt;stroke-linejoin:miter;stroke:rgb(0%,0%,0%);stroke-opacity:1;stroke-miterlimit:4;" d="M 237.999943 64.000228 L 254 62.00035 L 247.500138 75.999495 L 255.000456 91.500358 L 266.499495 113.500049 L 274.500041 130.000334 L 282.000358 145.500163 L 291.999748 161.50022 L 316.00035 171.000415 L 332.000407 159.500342 L 348.000464 145.500163 L 363.999487 121.499561 L 343.999674 137.000423 L 325.99974 153.00048 L 308.500033 169.499731 " transform="matrix(3.779528,0,0,3.779528,0,0)"/>
<path style="fill:none;stroke-width:2;stroke-linecap:butt;stroke-linejoin:miter;stroke:rgb(0%,0%,0%);stroke-opacity:1;stroke-miterlimit:4;" d="M 284.999658 145.500163 L 268.999601 116.000155 L 252.999544 85.999919 " transform="matrix(3.779528,0,0,3.779528,0,0)"/>
<path style="fill:none;stroke-width:2;stroke-linecap:butt;stroke-linejoin:miter;stroke:rgb(0%,0%,0%);stroke-opacity:1;stroke-miterlimit:4;" d="M 261.500317 80.000285 L 261.500317 67.999984 L 245.50026 67.999984 " transform="matrix(3.779528,0,0,3.779528,0,0)"/>
<path style="fill:none;stroke-width:2;stroke-linecap:butt;stroke-linejoin:miter;stroke:rgb(0%,0%,0%);stroke-opacity:1;stroke-miterlimit:4;" d="M 241.999699 62.499544 L 241.500505 78.000407 L 249.500016 93.500236 L 257.499528 109.500293 L 266.000301 125.999544 L 273.999813 141.999601 L 284.000236 157.999658 L 289.99987 173.999715 L 294.499854 189.999772 L 296.499731 205.499601 L 305.000505 221.499658 L 295.000081 235.499837 L 286.500342 252.000122 L 292.499976 261.999512 L 324.50009 257.999756 " transform="matrix(3.779528,0,0,3.779528,0,0)"/>
<path style="fill:none;stroke-width:2;stroke-linecap:butt;stroke-linejoin:miter;stroke:rgb(0%,0%,0%);stroke-opacity:1;stroke-miterlimit:4;" d="M 248.000366 241.999699 L 241.500505 257.999756 L 241.999699 274.500041 L 239.999821 290.500098 L 240.500049 305.999927 L 240.500049 321.499756 L 241.000277 338.000041 L 241.000277 354.000098 L 250.999666 373.99991 L 266.999723 379.999544 L 282.99978 388.00009 L 298.999837 395.500407 " transform="matrix(3.779528,0,0,3.779528,0,0)"/>
<path style="fill:none;stroke-width:2;stroke-linecap:butt;stroke-linejoin:miter;stroke:rgb(0%,0%,0%);stroke-opacity:1;stroke-miterlimit:4;" d="M 225.00022 361.999609 L 209.000163 355.999976 L 193.000106 354.000098 L 177.000049 348.000464 L 160.499764 339.999919 L 144.999935 331.500179 " transform="matrix(3.779528,0,0,3.779528,0,0)"/>
<path style="fill:none;stroke-width:2;stroke-linecap:butt;stroke-linejoin:miter;stroke:rgb(0%,0%,0%);stroke-opacity:1;stroke-miterlimit:4;" d="M 141.500407 339.499691 L 141.500407 355.499748 L 164.000326 371.499805 L 202.000073 388.00009 " transform="matrix(3.779528,0,0,3.779528,0,0)"/>
<path style="fill:none;stroke-width:2;stroke-linecap:butt;stroke-linejoin:miter;stroke:rgb(0%,0%,0%);stroke-opacity:1;stroke-miterlimit:4;" d="M 132.999634 409.499552 L 116.999577 409.99978 " transform="matrix(3.779528,0,0,3.779528,0,0)"/>
<path style="fill:none;stroke-width:2;stroke-linecap:butt;stroke-linejoin:miter;stroke:rgb(0%,0%,0%);stroke-opacity:1;stroke-miterlimit:4;" d="M 116.000155 386.000212 L 105.999731 375.999788 L 100.000098 370.500382 L 84.000041 372.50026 " transform="matrix(3.779528,0,0,3.779528,0,0)"/>
<path style="fill:none;stroke-width:2;stroke-linecap:butt;stroke-linejoin:miter;stroke:rgb(0%,0%,0%);stroke-opacity:1;stroke-miterlimit:4;" d="M 110.999943 354.500326 L 93.000008 346.49978 L 76.999951 340.500146 " transform="matrix(3.779528,0,0,3.779528,0,0)"/>
<path style="fill:none;stroke-width:2;stroke-linecap:butt;stroke-linejoin:miter;stroke:rgb(0%,0%,0%);stroke-opacity:1;stroke-miterlimit:4;" d="M 33.499764 323.000439 L 17.999935 314.999894 L 1.999878 308.500033 " transform="matrix(3.779528,0,0,3.779528,0,0)"/>
<path style="fill:none;stroke-width:2;stroke-linecap:butt;stroke-linejoin:miter;stroke:rgb(0%,0%,0%);stroke-opacity:1;stroke-miterlimit:4;" d="M 0.500228 304.500277 L 17.000513 308.500033 L 32.999536 316.499544 L 48.999593 322.500212 L 65.499878 329.999495 L 81.499935 335.499935 L 97.499992 343.000252 L 113.500049 348.999886 L 129.500106 357.000431 L 149.499919 362.499837 L 166.000203 370.500382 L 182.00026 378.499894 L 198.499512 384.499528 L 214.499569 391.000423 L 230.499626 397.000057 L 246.499683 400.999813 " transform="matrix(3.779528,0,0,3.779528,0,0)"/>
<path style="fill:none;stroke-width:2;stroke-linecap:butt;stroke-linejoin:miter;stroke:rgb(0%,0%,0%);stroke-opacity:1;stroke-miterlimit:4;" d="M 284.500464 509.999878 L 268.500407 510.500106 L 254.500228 510.500106 L 244.499805 491.999943 L 244.499805 475.999886 L 245.000033 459.999829 L 245.000033 443.999772 L 244.499805 427.999715 L 246.499683 411.500464 L 207.999707 395.500407 L 167.499854 379.50035 L 137.000423 353.49987 L 137.000423 338.000041 " transform="matrix(3.779528,0,0,3.779528,0,0)"/>
<path style="fill:none;stroke-width:2;stroke-linecap:butt;stroke-linejoin:miter;stroke:rgb(0%,0%,0%);stroke-opacity:1;stroke-miterlimit:4;" d="M 116.000155 319.499878 L 100.000098 313.500244 L 84.000041 307.499577 L 67.999984 299.500065 L 51.999927 291.49952 L 33.999992 277.500374 L 17.499707 275.500496 L 1.49965 267.499951 " transform="matrix(3.779528,0,0,3.779528,0,0)"/>
<path style="fill:none;stroke-width:2;stroke-linecap:butt;stroke-linejoin:miter;stroke:rgb(0%,0%,0%);stroke-opacity:1;stroke-miterlimit:4;" d="M 4.499984 269.499829 L 32.000114 285.499886 L 66.000106 301.499943 L 103.999854 316.999772 L 141.999601 332.999829 L 176.499821 348.499658 L 212.499691 364.499715 L 248.000366 380.499772 L 284.000236 396.499829 L 304.000049 412.499886 L 275.999691 428.499943 L 261.999512 443.999772 L 257.499528 460.500057 L 257.499528 476.500114 L 271.999935 492.500171 L 292.499976 504.500472 " transform="matrix(3.779528,0,0,3.779528,0,0)"/>
<path style="fill:none;stroke-width:2;stroke-linecap:butt;stroke-linejoin:miter;stroke:rgb(0%,0%,0%);stroke-opacity:1;stroke-miterlimit:4;" d="M 130.000334 497.999577 L 98.500448 497.999577 L 82.500391 496.499927 L 66.500334 496.499927 L 50.500277 494.500049 L 3.000334 494.500049 " transform="matrix(3.779528,0,0,3.779528,0,0)"/>
<path style="fill:none;stroke-width:2;stroke-linecap:butt;stroke-linejoin:miter;stroke:rgb(0%,0%,0%);stroke-opacity:1;stroke-miterlimit:4;" d="M 135.49974 488.500415 L 135.49974 441.000472 L 135.999967 425.499609 L 141.999601 409.99978 L 141.999601 378.499894 L 124.499894 355.999976 L 88.500024 339.999919 L 52.500155 324.50009 L 14.999601 308.500033 " transform="matrix(3.779528,0,0,3.779528,0,0)"/>
<path style="fill:none;stroke-width:2;stroke-linecap:butt;stroke-linejoin:miter;stroke:rgb(0%,0%,0%);stroke-opacity:1;stroke-miterlimit:4;" d="M 4.499984 304.500277 L 28.499552 320.500334 L 66.500334 336.500391 L 104.500081 352.500448 L 138.500073 368.500505 L 136.500195 384.499528 L 137.000423 400.499585 L 142.499829 418.000326 L 142.499829 465.000041 L 141.999601 481.500326 L 139.999723 497.500382 L 152.000024 500.000488 L 168.500309 500.000488 L 184.500366 500.499683 L 200.500423 502.999788 L 216.000252 504.999666 L 231.500081 504.999666 L 249.500016 506.50035 L 281.50013 506.50035 " transform="matrix(3.779528,0,0,3.779528,0,0)"/>
<path style="fill:none;stroke-width:2;stroke-linecap:butt;stroke-linejoin:miter;stroke:rgb(0%,0%,0%);stroke-opacity:1;stroke-miterlimit:4;" d="M 116.999577 313.500244 L 100.99952 307.499577 L 85.000496 299.500065 L 69.000439 293.500431 L 53.000382 285.499886 L 37.000326 282.99978 L 19.000391 268.500407 L 2.500106 260.499862 " transform="matrix(3.779528,0,0,3.779528,0,0)"/>
<path style="fill:none;stroke-width:2;stroke-linecap:butt;stroke-linejoin:miter;stroke:rgb(0%,0%,0%);stroke-opacity:1;stroke-miterlimit:4;" d="M 2.500106 262.49974 L 32.999536 278.499797 L 64.99965 294.499854 L 103.000431 309.999683 " transform="matrix(3.779528,0,0,3.779528,0,0)"/>
<path style="fill:none;stroke-width:2;stroke-linecap:butt;stroke-linejoin:miter;stroke:rgb(0%,0%,0%);stroke-opacity:1;stroke-miterlimit:4;" d="M 134.999512 312.499788 L 137.000423 296.499731 L 137.499618 280.499674 L 139.499495 264.499618 " transform="matrix(3.779528,0,0,3.779528,0,0)"/>
<path style="fill:none;stroke-width:2;stroke-linecap:butt;stroke-linejoin:miter;stroke:rgb(0%,0%,0%);stroke-opacity:1;stroke-miterlimit:4;" d="M 247.500138 244.499805 L 245.50026 260.499862 L 245.50026 323.999862 L 246.000488 339.999919 L 243.999577 355.999976 L 246.499683 372.000033 L 280.499674 388.00009 L 313.000016 403.499919 L 330.999951 431.500277 L 318.99965 443.499544 L 334.500513 427.499487 " transform="matrix(3.779528,0,0,3.779528,0,0)"/>
<path style="fill:none;stroke-width:2;stroke-linecap:butt;stroke-linejoin:miter;stroke:rgb(0%,0%,0%);stroke-opacity:1;stroke-miterlimit:4;" d="M 292.499976 234.999609 L 244.499805 234.999609 L 228.499748 236.500293 L 196.999862 236.500293 L 180.999805 236.000065 L 164.999748 237.999943 L 148.999691 237.999943 L 143.000057 236.000065 L 142.499829 220.000008 L 143.000057 203.499723 L 141.999601 171.499609 L 141.999601 139.499495 L 142.499829 123.500472 L 141.999601 107.500415 L 141.999601 91.999552 L 144.000513 75.999495 L 144.000513 59.500244 L 146.000391 43.500187 " transform="matrix(3.779528,0,0,3.779528,0,0)"/>
<path style="fill:none;stroke-width:2;stroke-linecap:butt;stroke-linejoin:miter;stroke:rgb(0%,0%,0%);stroke-opacity:1;stroke-miterlimit:4;" d="M 137.999845 31.499886 L 139.999723 47.499943 L 137.499618 63.5 L 137.499618 95.500114 L 137.999845 112.000399 L 137.999845 143.500285 L 135.999967 159.999536 L 135.999967 175.999593 L 137.999845 192.499878 L 137.999845 223.999764 L 135.999967 246.000488 L 144.000513 257.499528 L 134.500317 273.000391 L 134.500317 289.499642 L 132.500439 305.999927 L 120.500138 322.500212 L 137.000423 328.499845 L 153.00048 330.999951 L 168.999504 339.000496 L 184.999561 347.000008 L 202.500301 358.500081 L 218.00013 366.000399 L 234.000187 372.000033 L 250.000244 379.50035 L 266.000301 388.00009 L 282.000358 393.999723 L 298.000415 402.000269 L 304.000049 404.500374 L 320.000106 408.50013 L 336.000163 413.999536 L 352.00022 411.999658 L 370.000155 421.499854 " transform="matrix(3.779528,0,0,3.779528,0,0)"/>
<path style="fill:none;stroke-width:2;stroke-linecap:butt;stroke-linejoin:miter;stroke:rgb(0%,0%,0%);stroke-opacity:1;stroke-miterlimit:4;" d="M 402.000269 95.500114 L 402.000269 30.999658 " transform="matrix(3.779528,0,0,3.779528,0,0)"/>
<path style="fill:none;stroke-width:2;stroke-linecap:butt;stroke-linejoin:miter;stroke:rgb(0%,0%,0%);stroke-opacity:1;stroke-miterlimit:4;" d="M 397.000057 28.000358 L 397.500285 44.000415 L 395.000179 59.500244 L 395.500407 75.500301 L 397.500285 91.500358 L 398.000513 107.500415 " transform="matrix(3.779528,0,0,3.779528,0,0)"/>
<path style="fill:none;stroke-width:2;stroke-linecap:butt;stroke-linejoin:miter;stroke:rgb(0%,0%,0%);stroke-opacity:1;stroke-miterlimit:4;" d="M 271.499707 19.000391 L 273.499585 3.000334 " transform="matrix(3.779528,0,0,3.779528,0,0)"/>
<path style="fill:none;stroke-width:2;stroke-linecap:butt;stroke-linejoin:miter;stroke:rgb(0%,0%,0%);stroke-opacity:1;stroke-miterlimit:4;" d="M 264.999845 1.49965 L 264.999845 17.499707 L 271.499707 25.500252 L 271.499707 41.500309 L 270.000057 57.000138 " transform="matrix(3.779528,0,0,3.779528,0,0)"/>
</g>
</svg>
