<?xml version="1.0" encoding="UTF-8"?>
<svg xmlns="http://www.w3.org/2000/svg" xmlns:xlink="http://www.w3.org/1999/xlink" width="1935.11811" height="1935.11811" viewBox="0 0 1935.11811 1935.11811" version="1.1">
<g id="surface1">
<path style="fill:none;stroke-width:2;stroke-linecap:butt;stroke-linejoin:miter;stroke:rgb(0%,0%,0%);stroke-opacity:1;stroke-miterlimit:4;" d="M 365.500171 2.500106 L 355.499748 8.49974 L 359.499504 10.499618 L 363.500293 20.500041 L 369.499927 26.999902 " transform="matrix(3.779528,0,0,3.779528,0,0)"/>
<path style="fill:none;stroke-width:2;stroke-linecap:butt;stroke-linejoin:miter;stroke:rgb(0%,0%,0%);stroke-opacity:1;stroke-miterlimit:4;" d="M 369.499927 42.999959 L 373.499683 46.999715 L 373.499683 57.000138 L 377.500472 63.5 L 375.999788 80.000285 L 379.999544 74.499845 L 391.999845 52.500155 L 407.999902 46.499487 " transform="matrix(3.779528,0,0,3.779528,0,0)"/>
<path style="fill:none;stroke-width:2;stroke-linecap:butt;stroke-linejoin:miter;stroke:rgb(0%,0%,0%);stroke-opacity:1;stroke-miterlimit:4;" d="M 411.500464 60.499666 L 409.499552 66.000106 L 393.499495 66.000106 " transform="matrix(3.779528,0,0,3.779528,0,0)"/>
<path style="fill:none;stroke-width:2;stroke-linecap:butt;stroke-linejoin:miter;stroke:rgb(0%,0%,0%);stroke-opacity:1;stroke-miterlimit:4;" d="M 404.500374 80.500513 L 388.999512 84.500269 L 366.999821 82.500391 L 350.999764 84.500269 L 348.999886 73.999618 L 332.999829 73.500423 L 316.999772 73.500423 L 300.999715 73.999618 " transform="matrix(3.779528,0,0,3.779528,0,0)"/>
<path style="fill:none;stroke-width:2;stroke-linecap:butt;stroke-linejoin:miter;stroke:rgb(0%,0%,0%);stroke-opacity:1;stroke-miterlimit:4;" d="M 325.99974 85.999919 L 341.999797 85.999919 L 357.499626 89.999674 L 373.000488 89.50048 L 382.49965 103.499626 L 394.499951 105.999731 L 402.000269 105.499504 L 404.000146 129.500106 L 420.000203 128.999878 L 429.999593 145.500163 L 427.999715 165.499976 L 447.999528 177.500277 L 443.999772 193.000106 L 429.999593 198.99974 L 434.499577 199.499967 L 454.500423 201.499845 L 442.500122 216.999674 L 458.500179 227.000098 " transform="matrix(3.779528,0,0,3.779528,0,0)"/>
<path style="fill:none;stroke-width:2;stroke-linecap:butt;stroke-linejoin:miter;stroke:rgb(0%,0%,0%);stroke-opacity:1;stroke-miterlimit:4;" d="M 454.500423 176.499821 L 470.50048 172.500065 " transform="matrix(3.779528,0,0,3.779528,0,0)"/>
<path style="fill:none;stroke-width:2;stroke-linecap:butt;stroke-linejoin:miter;stroke:rgb(0%,0%,0%);stroke-opacity:1;stroke-miterlimit:4;" d="M 472.00013 177.000049 L 456.000073 175.000171 " transform="matrix(3.779528,0,0,3.779528,0,0)"/>
<path style="fill:none;stroke-width:2;stroke-linecap:butt;stroke-linejoin:miter;stroke:rgb(0%,0%,0%);stroke-opacity:1;stroke-miterlimit:4;" d="M 433.500155 156.500008 L 417.500098 155.99978 " transform="matrix(3.779528,0,0,3.779528,0,0)"/>
<path style="fill:none;stroke-width:2;stroke-linecap:butt;stroke-linejoin:miter;stroke:rgb(0%,0%,0%);stroke-opacity:1;stroke-miterlimit:4;" d="M 414.999992 154.50013 L 416.99987 170.500187 L 420.999626 184.000138 L 416.99987 209.500391 " transform="matrix(3.779528,0,0,3.779528,0,0)"/>
<path style="fill:none;stroke-width:2;stroke-linecap:butt;stroke-linejoin:miter;stroke:rgb(0%,0%,0%);stroke-opacity:1;stroke-miterlimit:4;" d="M 427.499487 227.99952 L 411.500464 229.500203 L 391.499618 229.500203 " transform="matrix(3.779528,0,0,3.779528,0,0)"/>
<path style="fill:none;stroke-width:2;stroke-linecap:butt;stroke-linejoin:miter;stroke:rgb(0%,0%,0%);stroke-opacity:1;stroke-miterlimit:4;" d="M 396.499829 250.500472 L 388.999512 256.500106 L 386.999634 272.500163 L 377.000244 287.999992 L 368.999699 304.000049 L 370.999577 309.500488 L 379.000122 295.500309 L 395.000179 280.999902 L 411.500464 279.000024 L 429.500399 252.999544 L 445.500456 249.500016 L 421.499854 261.500317 L 421.499854 271.499707 " transform="matrix(3.779528,0,0,3.779528,0,0)"/>
<path style="fill:none;stroke-width:2;stroke-linecap:butt;stroke-linejoin:miter;stroke:rgb(0%,0%,0%);stroke-opacity:1;stroke-miterlimit:4;" d="M 411.999658 286.000114 L 395.999601 288.50022 " transform="matrix(3.779528,0,0,3.779528,0,0)"/>
<path style="fill:none;stroke-width:2;stroke-linecap:butt;stroke-linejoin:miter;stroke:rgb(0%,0%,0%);stroke-opacity:1;stroke-miterlimit:4;" d="M 407.499674 264.999845 L 391.499618 261.00009 " transform="matrix(3.779528,0,0,3.779528,0,0)"/>
<path style="fill:none;stroke-width:2;stroke-linecap:butt;stroke-linejoin:miter;stroke:rgb(0%,0%,0%);stroke-opacity:1;stroke-miterlimit:4;" d="M 377.000244 316.999772 L 361.000187 317.5 L 345.00013 320.000106 " transform="matrix(3.779528,0,0,3.779528,0,0)"/>
<path style="fill:none;stroke-width:2;stroke-linecap:butt;stroke-linejoin:miter;stroke:rgb(0%,0%,0%);stroke-opacity:1;stroke-miterlimit:4;" d="M 341.000374 316.00035 L 357.000431 305.999927 L 373.000488 295.500309 L 392.500073 271.499707 L 408.50013 270.000057 " transform="matrix(3.779528,0,0,3.779528,0,0)"/>
<path style="fill:none;stroke-width:2;stroke-linecap:butt;stroke-linejoin:miter;stroke:rgb(0%,0%,0%);stroke-opacity:1;stroke-miterlimit:4;" d="M 450.499634 212.999919 L 444.5 210.499813 L 438.500366 193.999528 L 443.999772 178.000505 L 447.999528 161.50022 L 432.000505 149.499919 L 416.499642 153.00048 " transform="matrix(3.779528,0,0,3.779528,0,0)"/>
<path style="fill:none;stroke-width:2;stroke-linecap:butt;stroke-linejoin:miter;stroke:rgb(0%,0%,0%);stroke-opacity:1;stroke-miterlimit:4;" d="M 388.500317 117.499805 L 373.000488 109.500293 L 364.999943 101.499748 L 348.999886 101.499748 " transform="matrix(3.779528,0,0,3.779528,0,0)"/>
<path style="fill:none;stroke-width:2;stroke-linecap:butt;stroke-linejoin:miter;stroke:rgb(0%,0%,0%);stroke-opacity:1;stroke-miterlimit:4;" d="M 352.00022 85.499691 L 368.000277 85.499691 " transform="matrix(3.779528,0,0,3.779528,0,0)"/>
<path style="fill:none;stroke-width:2;stroke-linecap:butt;stroke-linejoin:miter;stroke:rgb(0%,0%,0%);stroke-opacity:1;stroke-miterlimit:4;" d="M 348.000464 63.5 L 345.999552 79.500057 L 351.499992 95.500114 L 367.500049 93.500236 L 383.500106 95.500114 L 384.000334 103.999854 L 393.999723 103.499626 L 409.99978 107.500415 " transform="matrix(3.779528,0,0,3.779528,0,0)"/>
<path style="fill:none;stroke-width:2;stroke-linecap:butt;stroke-linejoin:miter;stroke:rgb(0%,0%,0%);stroke-opacity:1;stroke-miterlimit:4;" d="M 420.000203 91.00013 L 420.000203 107.500415 L 411.999658 111.500171 L 409.99978 125.50035 L 416.000448 121.499561 L 443.999772 113.500049 " transform="matrix(3.779528,0,0,3.779528,0,0)"/>
<path style="fill:none;stroke-width:2;stroke-linecap:butt;stroke-linejoin:miter;stroke:rgb(0%,0%,0%);stroke-opacity:1;stroke-miterlimit:4;" d="M 471.499902 116.000155 L 485.500081 89.999674 L 477.999764 105.999731 L 472.00013 121.999788 L 486.000309 132.500439 L 493.999821 122.500016 " transform="matrix(3.779528,0,0,3.779528,0,0)"/>
<path style="fill:none;stroke-width:2;stroke-linecap:butt;stroke-linejoin:miter;stroke:rgb(0%,0%,0%);stroke-opacity:1;stroke-miterlimit:4;" d="M 472.00013 43.500187 L 456.000073 43.500187 " transform="matrix(3.779528,0,0,3.779528,0,0)"/>
<path style="fill:none;stroke-width:2;stroke-linecap:butt;stroke-linejoin:miter;stroke:rgb(0%,0%,0%);stroke-opacity:1;stroke-miterlimit:4;" d="M 453.499967 39.999626 L 469.500024 37.999748 " transform="matrix(3.779528,0,0,3.779528,0,0)"/>
<path style="fill:none;stroke-width:2;stroke-linecap:butt;stroke-linejoin:miter;stroke:rgb(0%,0%,0%);stroke-opacity:1;stroke-miterlimit:4;" d="M 466.999919 33.999992 L 451.50009 35.99987 " transform="matrix(3.779528,0,0,3.779528,0,0)"/>
<path style="fill:none;stroke-width:2;stroke-linecap:butt;stroke-linejoin:miter;stroke:rgb(0%,0%,0%);stroke-opacity:1;stroke-miterlimit:4;" d="M 453.499967 10.000423 L 438.000138 3.999756 " transform="matrix(3.779528,0,0,3.779528,0,0)"/>
<path style="fill:none;stroke-width:2;stroke-linecap:butt;stroke-linejoin:miter;stroke:rgb(0%,0%,0%);stroke-opacity:1;stroke-miterlimit:4;" d="M 393.000301 46.000293 L 391.499618 62.00035 L 373.000488 57.500366 " transform="matrix(3.779528,0,0,3.779528,0,0)"/>
<path style="fill:none;stroke-width:2;stroke-linecap:butt;stroke-linejoin:miter;stroke:rgb(0%,0%,0%);stroke-opacity:1;stroke-miterlimit:4;" d="M 348.999886 17.999935 L 332.499601 16.000057 L 316.999772 15.499829 " transform="matrix(3.779528,0,0,3.779528,0,0)"/>
<path style="fill:none;stroke-width:2;stroke-linecap:butt;stroke-linejoin:miter;stroke:rgb(0%,0%,0%);stroke-opacity:1;stroke-miterlimit:4;" d="M 316.499544 64.500456 L 300.499487 62.499544 L 296.499731 54.500033 L 264.999845 54.500033 " transform="matrix(3.779528,0,0,3.779528,0,0)"/>
<path style="fill:none;stroke-width:2;stroke-linecap:butt;stroke-linejoin:miter;stroke:rgb(0%,0%,0%);stroke-opacity:1;stroke-miterlimit:4;" d="M 258.499984 54.500033 L 275.000269 50.500277 L 284.999658 58.499788 L 300.999715 58.499788 L 319.499878 67.999984 L 325.499512 69.499634 L 335.499935 57.000138 L 339.499691 60.999894 L 347.500236 46.999715 L 369.499927 42.499731 L 386.000212 46.499487 " transform="matrix(3.779528,0,0,3.779528,0,0)"/>
<path style="fill:none;stroke-width:2;stroke-linecap:butt;stroke-linejoin:miter;stroke:rgb(0%,0%,0%);stroke-opacity:1;stroke-miterlimit:4;" d="M 377.000244 132.000212 L 361.000187 123.999666 L 345.00013 117.499805 L 329.000073 112.000399 L 313.000016 105.999731 L 296.999959 100.500326 L 280.999902 96.499536 L 264.999845 92.49978 " transform="matrix(3.779528,0,0,3.779528,0,0)"/>
<path style="fill:none;stroke-width:2;stroke-linecap:butt;stroke-linejoin:miter;stroke:rgb(0%,0%,0%);stroke-opacity:1;stroke-miterlimit:4;" d="M 246.499683 102.500203 L 262.999967 106.499959 L 264.999845 100.99952 L 311.000138 99.49987 L 352.999642 115.499927 L 388.999512 131.499984 L 395.000179 147.500041 L 391.000423 163.500098 L 384.499528 178.999927 L 380.499772 194.999984 L 377.000244 210.499813 L 370.999577 226.49987 L 362.499837 243.000155 L 356.500203 259.000212 L 345.999552 275.500496 L 335.499935 291.49952 L 321.499756 307.499577 L 304.000049 323.499634 L 282.000358 339.499691 L 264.000423 349.500114 L 261.999512 339.499691 L 270.000057 341.999797 L 286.000114 330.499723 L 302.000171 320.500334 L 315.500122 305.999927 L 331.500179 286.000114 L 348.000464 261.999512 L 363.999487 225.500448 L 387.499862 211.000041 L 407.999902 200.999618 L 418.000326 207.000285 L 425.999837 198.99974 L 403.499919 214.499569 L 411.500464 216.999674 L 402.999691 235.499837 L 414.499764 253.499772 L 416.499642 270.000057 L 416.99987 282.499552 L 429.000171 274.500041 L 430.499821 259.000212 L 446.499878 255.000456 L 458.500179 227.000098 L 461.000285 232.499504 " transform="matrix(3.779528,0,0,3.779528,0,0)"/>
<path style="fill:none;stroke-width:2;stroke-linecap:butt;stroke-linejoin:miter;stroke:rgb(0%,0%,0%);stroke-opacity:1;stroke-miterlimit:4;" d="M 337.499813 302.000171 L 341.499569 316.00035 L 325.499512 332.000407 L 314.999894 348.000464 L 292.499976 359.499504 L 289.99987 361.999609 L 305.499699 352.00022 " transform="matrix(3.779528,0,0,3.779528,0,0)"/>
<path style="fill:none;stroke-width:2;stroke-linecap:butt;stroke-linejoin:miter;stroke:rgb(0%,0%,0%);stroke-opacity:1;stroke-miterlimit:4;" d="M 309.999683 332.000407 L 291.999748 339.999919 L 284.000236 356.500203 L 280.00048 346.49978 " transform="matrix(3.779528,0,0,3.779528,0,0)"/>
<path style="fill:none;stroke-width:2;stroke-linecap:butt;stroke-linejoin:miter;stroke:rgb(0%,0%,0%);stroke-opacity:1;stroke-miterlimit:4;" d="M 336.500391 333.500057 L 327.000195 319.499878 L 345.00013 302.000171 L 339.000496 295.999504 L 334.999707 300.499487 " transform="matrix(3.779528,0,0,3.779528,0,0)"/>
<path style="fill:none;stroke-width:2;stroke-linecap:butt;stroke-linejoin:miter;stroke:rgb(0%,0%,0%);stroke-opacity:1;stroke-miterlimit:4;" d="M 273.000391 339.999919 L 296.999959 323.999862 L 314.999894 308.500033 L 324.50009 296.499731 L 338.500269 280.999902 L 348.000464 264.999845 L 355.999976 248.999788 L 361.999609 232.999731 L 368.000277 216.50048 L 373.99991 200.500423 L 377.999666 184.000138 L 382.49965 168.000081 L 384.499528 150.000146 L 368.500505 144.000513 L 352.500448 137.999845 L 336.999585 131.499984 L 320.999528 125.50035 " transform="matrix(3.779528,0,0,3.779528,0,0)"/>
<path style="fill:none;stroke-width:2;stroke-linecap:butt;stroke-linejoin:miter;stroke:rgb(0%,0%,0%);stroke-opacity:1;stroke-miterlimit:4;" d="M 325.99974 128.000456 L 363.500293 144.000513 " transform="matrix(3.779528,0,0,3.779528,0,0)"/>
<path style="fill:none;stroke-width:2;stroke-linecap:butt;stroke-linejoin:miter;stroke:rgb(0%,0%,0%);stroke-opacity:1;stroke-miterlimit:4;" d="M 336.999585 124.499894 L 373.000488 146.499585 L 379.000122 162.000448 L 375.000366 178.000505 L 370.500382 193.999528 L 364.499715 209.500391 L 358.500081 225.500448 L 352.500448 241.999699 L 342.500024 257.999756 L 334.999707 273.999813 L 320.999528 289.99987 L 305.000505 305.999927 L 289.000448 321.499756 L 250.500472 329.500301 L 248.499561 345.999552 L 248.000366 338.000041 " transform="matrix(3.779528,0,0,3.779528,0,0)"/>
<path style="fill:none;stroke-width:2;stroke-linecap:butt;stroke-linejoin:miter;stroke:rgb(0%,0%,0%);stroke-opacity:1;stroke-miterlimit:4;" d="M 246.499683 417.500098 L 230.499626 417.500098 L 214.000374 413.500342 " transform="matrix(3.779528,0,0,3.779528,0,0)"/>
<path style="fill:none;stroke-width:2;stroke-linecap:butt;stroke-linejoin:miter;stroke:rgb(0%,0%,0%);stroke-opacity:1;stroke-miterlimit:4;" d="M 179.500155 357.000431 L 163.500098 357.000431 " transform="matrix(3.779528,0,0,3.779528,0,0)"/>
<path style="fill:none;stroke-width:2;stroke-linecap:butt;stroke-linejoin:miter;stroke:rgb(0%,0%,0%);stroke-opacity:1;stroke-miterlimit:4;" d="M 160.499764 353.49987 L 176.499821 353.49987 " transform="matrix(3.779528,0,0,3.779528,0,0)"/>
<path style="fill:none;stroke-width:2;stroke-linecap:butt;stroke-linejoin:miter;stroke:rgb(0%,0%,0%);stroke-opacity:1;stroke-miterlimit:4;" d="M 159.500342 259.500439 L 175.500399 285.499886 L 191.99965 307.499577 L 207.999707 321.999984 L 223.499536 336.000163 L 239.499593 345.999552 L 255.999878 355.999976 L 271.999935 345.500358 L 288.50022 335.499935 L 304.500277 323.499634 L 320.000106 309.500488 L 336.000163 289.499642 L 352.00022 265.500073 L 368.000277 231.500081 " transform="matrix(3.779528,0,0,3.779528,0,0)"/>
<path style="fill:none;stroke-width:2;stroke-linecap:butt;stroke-linejoin:miter;stroke:rgb(0%,0%,0%);stroke-opacity:1;stroke-miterlimit:4;" d="M 432.000505 143.000057 L 416.000448 134.999512 L 391.999845 133.499862 L 375.999788 127.500228 L 359.999731 119.000488 L 343.999674 112.999821 L 327.500423 106.499959 L 311.500366 100.500326 L 295.500309 96.000342 L 279.500252 89.999674 L 263.500195 85.999919 L 246.99991 86.500146 L 230.999854 92.49978 L 215.500024 96.499536 L 200.000195 100.500326 L 168.000081 112.499593 L 152.000024 118.000033 L 135.999967 125.999544 L 119.99991 134.00009 " transform="matrix(3.779528,0,0,3.779528,0,0)"/>
<path style="fill:none;stroke-width:2;stroke-linecap:butt;stroke-linejoin:miter;stroke:rgb(0%,0%,0%);stroke-opacity:1;stroke-miterlimit:4;" d="M 124.499894 139.499495 L 123.999666 143.500285 L 128.000456 159.500342 L 132.000212 175.000171 L 135.999967 191.000228 L 142.499829 206.500057 L 146.499585 222.500114 L 153.999902 238.500171 L 162.000448 254.500228 L 169.999959 270.500285 L 182.00026 286.500342 L 193.999528 302.000171 L 209.500391 318.500456 L 229.500203 334.500513 " transform="matrix(3.779528,0,0,3.779528,0,0)"/>
<path style="fill:none;stroke-width:2;stroke-linecap:butt;stroke-linejoin:miter;stroke:rgb(0%,0%,0%);stroke-opacity:1;stroke-miterlimit:4;" d="M 152.500252 232.499504 L 137.000423 188.500122 " transform="matrix(3.779528,0,0,3.779528,0,0)"/>
<path style="fill:none;stroke-width:2;stroke-linecap:butt;stroke-linejoin:miter;stroke:rgb(0%,0%,0%);stroke-opacity:1;stroke-miterlimit:4;" d="M 132.500439 194.499756 L 148.500496 236.500293 L 164.49952 254.500228 L 180.499577 282.499552 L 196.499634 302.500399 L 212.499691 320.500334 L 228.999976 312.499788 L 230.499626 332.000407 L 246.499683 332.000407 L 262.49974 331.500179 " transform="matrix(3.779528,0,0,3.779528,0,0)"/>
<path style="fill:none;stroke-width:2;stroke-linecap:butt;stroke-linejoin:miter;stroke:rgb(0%,0%,0%);stroke-opacity:1;stroke-miterlimit:4;" d="M 194.999984 125.000122 L 152.500252 141.000179 L 155.000358 125.000122 L 170.500187 116.999577 L 186.500244 110.499715 L 202.000073 104.500081 L 218.500358 100.500326 L 234.999609 96.000342 L 249.500016 98.00022 L 265.500073 99.49987 L 281.50013 105.999731 L 307.499577 114.000277 L 323.499634 114.000277 L 332.999829 121.999788 L 348.499658 129.500106 L 363.999487 137.999845 L 381.500228 135.999967 " transform="matrix(3.779528,0,0,3.779528,0,0)"/>
<path style="fill:none;stroke-width:2;stroke-linecap:butt;stroke-linejoin:miter;stroke:rgb(0%,0%,0%);stroke-opacity:1;stroke-miterlimit:4;" d="M 311.500366 107.500415 L 353.49987 123.500472 L 385.499984 139.499495 L 397.500285 157.000236 L 395.500407 173.000293 L 389.49974 190.5 L 389.999967 206.500057 L 378.499894 218.00013 L 382.999878 234.000187 L 393.499495 241.999699 L 407.999902 241.999699 " transform="matrix(3.779528,0,0,3.779528,0,0)"/>
<path style="fill:none;stroke-width:2;stroke-linecap:butt;stroke-linejoin:miter;stroke:rgb(0%,0%,0%);stroke-opacity:1;stroke-miterlimit:4;" d="M 345.500358 62.00035 L 341.999797 78.000407 L 325.499512 78.000407 L 309.500488 80.500513 L 293.500431 76.499723 L 289.499642 73.000195 L 275.999691 62.999772 L 259.999634 62.499544 " transform="matrix(3.779528,0,0,3.779528,0,0)"/>
<path style="fill:none;stroke-width:2;stroke-linecap:butt;stroke-linejoin:miter;stroke:rgb(0%,0%,0%);stroke-opacity:1;stroke-miterlimit:4;" d="M 259.500439 9.500195 L 291.999748 9.500195 " transform="matrix(3.779528,0,0,3.779528,0,0)"/>
<path style="fill:none;stroke-width:2;stroke-linecap:butt;stroke-linejoin:miter;stroke:rgb(0%,0%,0%);stroke-opacity:1;stroke-miterlimit:4;" d="M 275.999691 33.999992 L 259.999634 33.999992 L 243.999577 33.499764 L 227.99952 41.500309 L 212.499691 41.500309 L 196.499634 39.000203 " transform="matrix(3.779528,0,0,3.779528,0,0)"/>
<path style="fill:none;stroke-width:2;stroke-linecap:butt;stroke-linejoin:miter;stroke:rgb(0%,0%,0%);stroke-opacity:1;stroke-miterlimit:4;" d="M 202.000073 31.499886 L 191.500456 23.500374 L 175.000171 29.500008 L 159.000114 32.000114 " transform="matrix(3.779528,0,0,3.779528,0,0)"/>
<path style="fill:none;stroke-width:2;stroke-linecap:butt;stroke-linejoin:miter;stroke:rgb(0%,0%,0%);stroke-opacity:1;stroke-miterlimit:4;" d="M 157.500464 32.500342 L 173.499487 26.499674 " transform="matrix(3.779528,0,0,3.779528,0,0)"/>
<path style="fill:none;stroke-width:2;stroke-linecap:butt;stroke-linejoin:miter;stroke:rgb(0%,0%,0%);stroke-opacity:1;stroke-miterlimit:4;" d="M 150.999569 31.499886 L 130.999756 39.500431 L 111.500171 55.500488 L 101.499748 63.5 L 118.000033 48.999593 L 141.999601 45.500065 L 152.000024 45.500065 L 168.000081 46.000293 L 184.000138 46.000293 L 200.000195 60.499666 L 216.000252 54.500033 " transform="matrix(3.779528,0,0,3.779528,0,0)"/>
<path style="fill:none;stroke-width:2;stroke-linecap:butt;stroke-linejoin:miter;stroke:rgb(0%,0%,0%);stroke-opacity:1;stroke-miterlimit:4;" d="M 202.000073 104.500081 L 159.500342 119.99991 L 127.500228 135.49974 L 133.499862 151.499797 L 139.999723 148.000269 L 155.99978 139.999723 L 171.999837 134.00009 " transform="matrix(3.779528,0,0,3.779528,0,0)"/>
<path style="fill:none;stroke-width:2;stroke-linecap:butt;stroke-linejoin:miter;stroke:rgb(0%,0%,0%);stroke-opacity:1;stroke-miterlimit:4;" d="M 149.499919 134.500317 L 129.500106 140.499951 L 145.500163 138.500073 L 161.50022 130.499528 L 177.500277 126.499772 L 193.500334 123.999666 " transform="matrix(3.779528,0,0,3.779528,0,0)"/>
<path style="fill:none;stroke-width:2;stroke-linecap:butt;stroke-linejoin:miter;stroke:rgb(0%,0%,0%);stroke-opacity:1;stroke-miterlimit:4;" d="M 189.999772 101.499748 L 152.000024 117.499805 L 119.99991 134.00009 L 119.99991 150.000146 L 123.999666 165.499976 L 128.49965 181.500033 L 132.000212 197.50009 L 137.999845 213.500146 L 144.000513 229.500203 L 160.999992 261.500317 L 168.500309 277.999569 L 180.999805 293.999626 L 193.000106 309.999683 L 209.000163 323.999862 L 228.999976 339.999919 L 250.999666 356.500203 L 248.499561 344.499902 L 274.500041 328.499845 L 290.500098 320.999528 L 306.500155 302.999593 L 322.500212 289.000448 L 338.500269 264.999845 L 354.500326 233.499959 " transform="matrix(3.779528,0,0,3.779528,0,0)"/>
<path style="fill:none;stroke-width:2;stroke-linecap:butt;stroke-linejoin:miter;stroke:rgb(0%,0%,0%);stroke-opacity:1;stroke-miterlimit:4;" d="M 314.499666 37.49952 L 298.499609 39.500431 L 282.499552 37.49952 L 266.999723 39.500431 L 250.999666 37.49952 L 248.999788 45.500065 L 245.000033 41.999504 L 229.500203 48.000171 L 213.500146 48.000171 L 205.499601 53.999805 L 189.00035 54.500033 L 202.999495 48.500399 L 189.499544 41.000081 L 209.500391 25.000024 L 199.499967 28.99978 L 183.49991 42.999959 L 152.000024 42.999959 " transform="matrix(3.779528,0,0,3.779528,0,0)"/>
<path style="fill:none;stroke-width:2;stroke-linecap:butt;stroke-linejoin:miter;stroke:rgb(0%,0%,0%);stroke-opacity:1;stroke-miterlimit:4;" d="M 144.499707 16.500285 L 160.499764 14.500407 L 176.499821 14.500407 L 194.499756 20.500041 L 210.499813 16.500285 L 226.49987 16.500285 L 241.999699 14.000179 L 257.999756 14.000179 L 273.999813 13.499951 L 289.99987 14.000179 L 305.999927 16.000057 L 307.499577 3.999756 L 320.999528 9.500195 L 336.999585 9.500195 " transform="matrix(3.779528,0,0,3.779528,0,0)"/>
<path style="fill:none;stroke-width:2;stroke-linecap:butt;stroke-linejoin:miter;stroke:rgb(0%,0%,0%);stroke-opacity:1;stroke-miterlimit:4;" d="M 368.000277 5.000212 L 354.000098 26.999902 L 338.000041 26.499674 L 321.999984 32.000114 L 303.499821 33.499764 L 287.499764 29.500008 L 289.499642 19.499585 L 285.499886 19.000391 L 283.500008 3.000334 L 267.499951 3.000334 L 251.499894 8.999967 L 234.999609 9.500195 L 218.999552 9.500195 L 202.500301 11.500073 L 186.500244 10.000423 L 170.500187 10.000423 L 155.000358 10.499618 L 139.000301 12.499495 L 123.500472 18.500163 L 107.500415 20.500041 " transform="matrix(3.779528,0,0,3.779528,0,0)"/>
<path style="fill:none;stroke-width:2;stroke-linecap:butt;stroke-linejoin:miter;stroke:rgb(0%,0%,0%);stroke-opacity:1;stroke-miterlimit:4;" d="M 88.500024 109.000065 L 84.500269 124.499894 " transform="matrix(3.779528,0,0,3.779528,0,0)"/>
</g>
</svg>
