<?xml version="1.0" encoding="UTF-8"?>
<svg xmlns="http://www.w3.org/2000/svg" xmlns:xlink="http://www.w3.org/1999/xlink" width="1935.11811" height="1935.11811" viewBox="0 0 1935.11811 1935.11811" version="1.1">
<g id="surface1">
<path style="fill:none;stroke-width:2;stroke-linecap:butt;stroke-linejoin:miter;stroke:rgb(0%,0%,0%);stroke-opacity:1;stroke-miterlimit:4;" d="M 269.499829 2.500106 L 289.499642 18.500163 L 303.499821 34.50022 L 311.500366 50.500277 L 315.500122 66.999528 L 325.499512 82.999585 " transform="matrix(3.779528,0,0,3.779528,0,0)"/>
<path style="fill:none;stroke-width:2;stroke-linecap:butt;stroke-linejoin:miter;stroke:rgb(0%,0%,0%);stroke-opacity:1;stroke-miterlimit:4;" d="M 325.000317 80.500513 L 309.500488 76.499723 L 293.500431 76.499723 L 277.999569 75.000073 L 246.499683 75.000073 L 230.000431 76.999951 L 214.000374 78.999829 " transform="matrix(3.779528,0,0,3.779528,0,0)"/>
<path style="fill:none;stroke-width:2;stroke-linecap:butt;stroke-linejoin:miter;stroke:rgb(0%,0%,0%);stroke-opacity:1;stroke-miterlimit:4;" d="M 202.999495 66.000106 L 189.00035 85.999919 L 184.500366 89.999674 L 200.500423 73.500423 L 198.499512 57.999561 L 203.999951 41.999504 L 215.500024 26.00048 L 235.499837 10.499618 L 249.500016 10.499618 L 233.499959 18.500163 L 217.499902 30.500464 " transform="matrix(3.779528,0,0,3.779528,0,0)"/>
<path style="fill:none;stroke-width:2;stroke-linecap:butt;stroke-linejoin:miter;stroke:rgb(0%,0%,0%);stroke-opacity:1;stroke-miterlimit:4;" d="M 218.00013 42.999959 L 234.500415 42.499731 L 250.999666 42.999959 L 283.500008 42.999959 L 300.000293 45.500065 " transform="matrix(3.779528,0,0,3.779528,0,0)"/>
<path style="fill:none;stroke-width:2;stroke-linecap:butt;stroke-linejoin:miter;stroke:rgb(0%,0%,0%);stroke-opacity:1;stroke-miterlimit:4;" d="M 301.499943 37.49952 L 284.999658 19.999813 L 268.999601 10.000423 " transform="matrix(3.779528,0,0,3.779528,0,0)"/>
<path style="fill:none;stroke-width:2;stroke-linecap:butt;stroke-linejoin:miter;stroke:rgb(0%,0%,0%);stroke-opacity:1;stroke-miterlimit:4;" d="M 266.999723 9.500195 L 289.000448 25.500252 L 303.499821 39.500431 L 307.499577 53.499577 L 309.999683 69.000439 L 329.999495 93.500236 " transform="matrix(3.779528,0,0,3.779528,0,0)"/>
<path style="fill:none;stroke-width:2;stroke-linecap:butt;stroke-linejoin:miter;stroke:rgb(0%,0%,0%);stroke-opacity:1;stroke-miterlimit:4;" d="M 327.500423 107.999609 L 311.999561 98.00022 L 295.999504 94.000464 L 280.00048 91.999552 L 264.000423 91.999552 L 248.000366 94.000464 " transform="matrix(3.779528,0,0,3.779528,0,0)"/>
<path style="fill:none;stroke-width:2;stroke-linecap:butt;stroke-linejoin:miter;stroke:rgb(0%,0%,0%);stroke-opacity:1;stroke-miterlimit:4;" d="M 236.000065 93.500236 L 241.999699 109.500293 L 241.500505 125.50035 " transform="matrix(3.779528,0,0,3.779528,0,0)"/>
<path style="fill:none;stroke-width:2;stroke-linecap:butt;stroke-linejoin:miter;stroke:rgb(0%,0%,0%);stroke-opacity:1;stroke-miterlimit:4;" d="M 221.499658 98.00022 L 237.499715 94.000464 L 247.500138 100.000098 L 245.50026 116.000155 L 245.50026 131.499984 L 248.000366 139.000301 L 264.000423 141.500407 L 280.499674 141.500407 L 296.499731 139.499495 " transform="matrix(3.779528,0,0,3.779528,0,0)"/>
<path style="fill:none;stroke-width:2;stroke-linecap:butt;stroke-linejoin:miter;stroke:rgb(0%,0%,0%);stroke-opacity:1;stroke-miterlimit:4;" d="M 293.999626 153.999902 L 277.999569 156.500008 L 261.500317 157.000236 L 230.000431 157.000236 L 214.000374 150.500374 " transform="matrix(3.779528,0,0,3.779528,0,0)"/>
<path style="fill:none;stroke-width:2;stroke-linecap:butt;stroke-linejoin:miter;stroke:rgb(0%,0%,0%);stroke-opacity:1;stroke-miterlimit:4;" d="M 228.999976 142.499829 L 212.499691 140.499951 L 196.499634 123.000244 " transform="matrix(3.779528,0,0,3.779528,0,0)"/>
<path style="fill:none;stroke-width:2;stroke-linecap:butt;stroke-linejoin:miter;stroke:rgb(0%,0%,0%);stroke-opacity:1;stroke-miterlimit:4;" d="M 191.99965 123.000244 L 207.999707 150.999569 L 224.499992 160.999992 L 240.500049 162.499642 L 257.000334 162.499642 L 273.000391 162.000448 L 289.000448 162.000448 L 305.000505 155.499552 L 320.500334 133.499862 " transform="matrix(3.779528,0,0,3.779528,0,0)"/>
<path style="fill:none;stroke-width:2;stroke-linecap:butt;stroke-linejoin:miter;stroke:rgb(0%,0%,0%);stroke-opacity:1;stroke-miterlimit:4;" d="M 329.999495 100.500326 L 314.000472 94.499658 L 298.000415 90.499902 L 282.000358 87.999797 L 249.500016 87.999797 L 233.499959 89.50048 L 217.499902 91.500358 L 202.000073 95.500114 L 187.999894 94.999886 L 202.500301 79.500057 L 212.499691 63.5 L 214.499569 48.000171 L 206.500057 46.499487 " transform="matrix(3.779528,0,0,3.779528,0,0)"/>
<path style="fill:none;stroke-width:2;stroke-linecap:butt;stroke-linejoin:miter;stroke:rgb(0%,0%,0%);stroke-opacity:1;stroke-miterlimit:4;" d="M 214.000374 44.499609 L 230.000431 36.500098 L 246.000488 36.500098 L 261.999512 35.99987 L 277.500374 35.499642 L 293.500431 39.500431 " transform="matrix(3.779528,0,0,3.779528,0,0)"/>
<path style="fill:none;stroke-width:2;stroke-linecap:butt;stroke-linejoin:miter;stroke:rgb(0%,0%,0%);stroke-opacity:1;stroke-miterlimit:4;" d="M 305.000505 91.999552 L 327.500423 107.999609 L 325.000317 123.500472 L 317.5 139.499495 L 303.499821 155.499552 L 314.000472 183.49991 " transform="matrix(3.779528,0,0,3.779528,0,0)"/>
<path style="fill:none;stroke-width:2;stroke-linecap:butt;stroke-linejoin:miter;stroke:rgb(0%,0%,0%);stroke-opacity:1;stroke-miterlimit:4;" d="M 327.999618 198.000317 L 343.999674 200.000195 L 360.499959 205.499601 " transform="matrix(3.779528,0,0,3.779528,0,0)"/>
<path style="fill:none;stroke-width:2;stroke-linecap:butt;stroke-linejoin:miter;stroke:rgb(0%,0%,0%);stroke-opacity:1;stroke-miterlimit:4;" d="M 354.99952 190.5 L 368.999699 206.500057 L 366.999821 221.999886 L 354.99952 237.999943 L 344.499902 254 L 336.500391 255.49965 L 342.500024 273.499585 " transform="matrix(3.779528,0,0,3.779528,0,0)"/>
<path style="fill:none;stroke-width:2;stroke-linecap:butt;stroke-linejoin:miter;stroke:rgb(0%,0%,0%);stroke-opacity:1;stroke-miterlimit:4;" d="M 345.999552 274.500041 L 354.500326 258.499984 L 358.500081 242.499927 L 336.500391 256.500106 L 320.500334 260.499862 L 304.500277 262.999967 L 289.000448 262.49974 L 280.499674 260.499862 L 278.499797 250.000244 L 294.499854 234.500415 L 326.499967 227.99952 L 323.999862 230.000431 L 307.999805 236.000065 L 291.999748 248.000366 " transform="matrix(3.779528,0,0,3.779528,0,0)"/>
<path style="fill:none;stroke-width:2;stroke-linecap:butt;stroke-linejoin:miter;stroke:rgb(0%,0%,0%);stroke-opacity:1;stroke-miterlimit:4;" d="M 283.500008 234.999609 L 299.500065 220.500236 L 315.500122 211.000041 L 331.500179 212.999919 L 339.999919 225.00022 L 338.000041 241.000277 L 311.999561 256.500106 L 328.499845 252.000122 L 350.499536 243.500382 L 370.500382 229.500203 L 386.500439 231.500081 L 402.999691 223.499536 L 418.999748 219.49978 L 388.999512 235.499837 L 384.999756 259.500439 " transform="matrix(3.779528,0,0,3.779528,0,0)"/>
<path style="fill:none;stroke-width:2;stroke-linecap:butt;stroke-linejoin:miter;stroke:rgb(0%,0%,0%);stroke-opacity:1;stroke-miterlimit:4;" d="M 379.50035 247.500138 L 395.500407 253.499772 L 411.500464 249.500016 " transform="matrix(3.779528,0,0,3.779528,0,0)"/>
<path style="fill:none;stroke-width:2;stroke-linecap:butt;stroke-linejoin:miter;stroke:rgb(0%,0%,0%);stroke-opacity:1;stroke-miterlimit:4;" d="M 419.499976 252.000122 L 429.500399 241.999699 L 425.999837 226.49987 L 409.99978 226.49987 L 393.999723 234.000187 L 377.999666 239.499593 " transform="matrix(3.779528,0,0,3.779528,0,0)"/>
<path style="fill:none;stroke-width:2;stroke-linecap:butt;stroke-linejoin:miter;stroke:rgb(0%,0%,0%);stroke-opacity:1;stroke-miterlimit:4;" d="M 366.499593 226.49987 L 368.500505 242.499927 L 362.499837 258.499984 L 360.499959 268.500407 L 362.499837 286.500342 L 356.500203 302.500399 L 348.000464 318.000228 L 336.000163 334.000285 L 325.99974 349.500114 L 314.000472 366.000399 " transform="matrix(3.779528,0,0,3.779528,0,0)"/>
<path style="fill:none;stroke-width:2;stroke-linecap:butt;stroke-linejoin:miter;stroke:rgb(0%,0%,0%);stroke-opacity:1;stroke-miterlimit:4;" d="M 298.000415 368.500505 L 287.999992 384.999756 L 279.500252 400.999813 L 287.499764 404.500374 L 293.500431 420.500431 L 303.499821 436.00026 L 304.000049 441.999894 L 293.500431 457.999951 L 295.999504 472.00013 L 293.999626 488.000187 L 302.000171 509.999878 " transform="matrix(3.779528,0,0,3.779528,0,0)"/>
<path style="fill:none;stroke-width:2;stroke-linecap:butt;stroke-linejoin:miter;stroke:rgb(0%,0%,0%);stroke-opacity:1;stroke-miterlimit:4;" d="M 295.500309 458.500179 L 311.500366 442.500122 L 327.500423 438.999561 L 343.50048 438.999561 L 359.000309 459.000407 L 358.500081 486.499504 " transform="matrix(3.779528,0,0,3.779528,0,0)"/>
<path style="fill:none;stroke-width:2;stroke-linecap:butt;stroke-linejoin:miter;stroke:rgb(0%,0%,0%);stroke-opacity:1;stroke-miterlimit:4;" d="M 368.000277 500.000488 L 362.499837 484.000431 L 364.499715 474.000008 L 354.500326 468.000374 L 356.500203 456.000073 L 348.999886 451.50009 L 339.000496 435.500033 " transform="matrix(3.779528,0,0,3.779528,0,0)"/>
<path style="fill:none;stroke-width:2;stroke-linecap:butt;stroke-linejoin:miter;stroke:rgb(0%,0%,0%);stroke-opacity:1;stroke-miterlimit:4;" d="M 329.000073 433.500155 L 336.500391 450.000439 L 348.999886 466.000496 L 357.000431 481.99952 L 363.000065 497.999577 " transform="matrix(3.779528,0,0,3.779528,0,0)"/>
<path style="fill:none;stroke-width:2;stroke-linecap:butt;stroke-linejoin:miter;stroke:rgb(0%,0%,0%);stroke-opacity:1;stroke-miterlimit:4;" d="M 289.499642 491.499715 L 273.000391 493.499593 L 257.000334 493.499593 L 241.000277 493.000399 L 225.00022 491.499715 L 208.499935 499.50026 L 214.499569 481.500326 L 222.500114 465.500269 L 212.499691 449.500212 L 202.999495 433.500155 L 187.000472 431.500277 L 171.000415 433.500155 L 155.000358 445.99965 L 139.499495 470.000252 " transform="matrix(3.779528,0,0,3.779528,0,0)"/>
<path style="fill:none;stroke-width:2;stroke-linecap:butt;stroke-linejoin:miter;stroke:rgb(0%,0%,0%);stroke-opacity:1;stroke-miterlimit:4;" d="M 151.499797 456.000073 L 167.499854 441.999894 L 157.000236 444.5 L 143.000057 460.500057 L 139.499495 476.500114 L 137.499618 492.500171 L 137.499618 508.500228 " transform="matrix(3.779528,0,0,3.779528,0,0)"/>
<path style="fill:none;stroke-width:2;stroke-linecap:butt;stroke-linejoin:miter;stroke:rgb(0%,0%,0%);stroke-opacity:1;stroke-miterlimit:4;" d="M 144.000513 497.999577 L 146.000391 481.500326 L 148.000269 465.500269 L 157.999658 449.500212 L 157.999658 475.499658 " transform="matrix(3.779528,0,0,3.779528,0,0)"/>
<path style="fill:none;stroke-width:2;stroke-linecap:butt;stroke-linejoin:miter;stroke:rgb(0%,0%,0%);stroke-opacity:1;stroke-miterlimit:4;" d="M 152.500252 484.000431 L 158.499886 468.000374 L 166.500431 452.000317 L 174.499943 446.499878 L 158.499886 456.500301 " transform="matrix(3.779528,0,0,3.779528,0,0)"/>
<path style="fill:none;stroke-width:2;stroke-linecap:butt;stroke-linejoin:miter;stroke:rgb(0%,0%,0%);stroke-opacity:1;stroke-miterlimit:4;" d="M 173.999715 450.000439 L 166.000203 466.000496 L 159.500342 481.99952 " transform="matrix(3.779528,0,0,3.779528,0,0)"/>
<path style="fill:none;stroke-width:2;stroke-linecap:butt;stroke-linejoin:miter;stroke:rgb(0%,0%,0%);stroke-opacity:1;stroke-miterlimit:4;" d="M 175.999593 436.500488 L 191.99965 440.500244 " transform="matrix(3.779528,0,0,3.779528,0,0)"/>
<path style="fill:none;stroke-width:2;stroke-linecap:butt;stroke-linejoin:miter;stroke:rgb(0%,0%,0%);stroke-opacity:1;stroke-miterlimit:4;" d="M 211.000041 417.500098 L 227.500326 411.999658 " transform="matrix(3.779528,0,0,3.779528,0,0)"/>
<path style="fill:none;stroke-width:2;stroke-linecap:butt;stroke-linejoin:miter;stroke:rgb(0%,0%,0%);stroke-opacity:1;stroke-miterlimit:4;" d="M 218.999552 396.499829 L 214.999797 412.499886 L 209.000163 428.499943 L 205.000407 425.999837 L 221.000464 389.999967 L 236.999487 401.500041 L 252.999544 404.000146 L 268.999601 406.000024 L 284.999658 408.50013 " transform="matrix(3.779528,0,0,3.779528,0,0)"/>
<path style="fill:none;stroke-width:2;stroke-linecap:butt;stroke-linejoin:miter;stroke:rgb(0%,0%,0%);stroke-opacity:1;stroke-miterlimit:4;" d="M 316.999772 432.000505 L 307.000382 447.500334 L 302.999593 463.500391 L 302.999593 496.499927 " transform="matrix(3.779528,0,0,3.779528,0,0)"/>
<path style="fill:none;stroke-width:2;stroke-linecap:butt;stroke-linejoin:miter;stroke:rgb(0%,0%,0%);stroke-opacity:1;stroke-miterlimit:4;" d="M 280.499674 472.00013 L 264.499618 474.000008 L 248.499561 474.000008 L 232.499504 471.499902 L 216.50048 469.500024 " transform="matrix(3.779528,0,0,3.779528,0,0)"/>
<path style="fill:none;stroke-width:2;stroke-linecap:butt;stroke-linejoin:miter;stroke:rgb(0%,0%,0%);stroke-opacity:1;stroke-miterlimit:4;" d="M 279.500252 465.500269 L 287.499764 448.999984 L 291.000326 432.999927 L 284.999658 416.99987 L 275.500496 400.499585 L 259.500439 398.999935 L 243.999577 395.000179 L 227.99952 384.999756 L 212.499691 359.499504 L 196.499634 357.999854 L 180.499577 339.999919 " transform="matrix(3.779528,0,0,3.779528,0,0)"/>
<path style="fill:none;stroke-width:2;stroke-linecap:butt;stroke-linejoin:miter;stroke:rgb(0%,0%,0%);stroke-opacity:1;stroke-miterlimit:4;" d="M 185.499788 336.999585 L 169.499731 320.999528 " transform="matrix(3.779528,0,0,3.779528,0,0)"/>
<path style="fill:none;stroke-width:2;stroke-linecap:butt;stroke-linejoin:miter;stroke:rgb(0%,0%,0%);stroke-opacity:1;stroke-miterlimit:4;" d="M 173.499487 314.999894 L 191.500456 330.999951 L 207.500513 347.500236 L 211.500269 373.499683 L 219.49978 389.999967 L 209.500391 406.000024 L 205.499601 422.000081 L 199.499967 437.49991 L 195.500212 447.500334 L 201.499845 463.999585 L 205.499601 495.999699 L 207.999707 508 L 221.999886 497.999577 L 237.999943 498.499805 L 254 498.499805 L 270.000057 500.499683 L 286.500342 500.000488 " transform="matrix(3.779528,0,0,3.779528,0,0)"/>
<path style="fill:none;stroke-width:2;stroke-linecap:butt;stroke-linejoin:miter;stroke:rgb(0%,0%,0%);stroke-opacity:1;stroke-miterlimit:4;" d="M 237.999943 385.499984 L 253.499772 385.499984 L 269.499829 386.999634 L 289.499642 381 L 305.000505 366.999821 L 321.499756 354.99952 L 338.000041 327.000195 L 354.000098 302.999593 " transform="matrix(3.779528,0,0,3.779528,0,0)"/>
<path style="fill:none;stroke-width:2;stroke-linecap:butt;stroke-linejoin:miter;stroke:rgb(0%,0%,0%);stroke-opacity:1;stroke-miterlimit:4;" d="M 364.999943 264.000423 L 361.000187 279.500252 L 351.499992 295.500309 L 345.999552 311.500366 L 332.499601 327.500423 L 324.50009 343.999674 L 314.999894 359.999731 " transform="matrix(3.779528,0,0,3.779528,0,0)"/>
<path style="fill:none;stroke-width:2;stroke-linecap:butt;stroke-linejoin:miter;stroke:rgb(0%,0%,0%);stroke-opacity:1;stroke-miterlimit:4;" d="M 234.999609 381 L 250.999666 381.500228 L 266.999723 381.500228 L 283.500008 379.50035 L 300.000293 361.999609 L 316.499544 355.999976 L 332.499601 327.500423 L 348.499658 305.499699 L 352.999642 259.500439 " transform="matrix(3.779528,0,0,3.779528,0,0)"/>
<path style="fill:none;stroke-width:2;stroke-linecap:butt;stroke-linejoin:miter;stroke:rgb(0%,0%,0%);stroke-opacity:1;stroke-miterlimit:4;" d="M 317.5 246.99991 L 301.499943 259.000212 L 286.000114 257.000334 L 302.000171 234.999609 " transform="matrix(3.779528,0,0,3.779528,0,0)"/>
<path style="fill:none;stroke-width:2;stroke-linecap:butt;stroke-linejoin:miter;stroke:rgb(0%,0%,0%);stroke-opacity:1;stroke-miterlimit:4;" d="M 317.5 222.500114 L 302.000171 228.499748 L 286.000114 240.500049 L 282.000358 254.500228 L 273.999813 241.999699 L 293.999626 225.999642 L 316.00035 209.999585 " transform="matrix(3.779528,0,0,3.779528,0,0)"/>
<path style="fill:none;stroke-width:2;stroke-linecap:butt;stroke-linejoin:miter;stroke:rgb(0%,0%,0%);stroke-opacity:1;stroke-miterlimit:4;" d="M 398.499707 196.499634 L 416.99987 212.499691 L 393.000301 228.499748 L 373.000488 230.000431 L 373.000488 246.000488 L 377.000244 261.500317 L 384.999756 277.500374 L 386.999634 286.999536 L 403.499919 291.000326 L 423.499731 277.000146 L 439.499788 293.500431 L 457.499723 305.499699 L 473.49978 335.499935 " transform="matrix(3.779528,0,0,3.779528,0,0)"/>
<path style="fill:none;stroke-width:2;stroke-linecap:butt;stroke-linejoin:miter;stroke:rgb(0%,0%,0%);stroke-opacity:1;stroke-miterlimit:4;" d="M 459.499601 361.000187 L 475.499658 376.500016 " transform="matrix(3.779528,0,0,3.779528,0,0)"/>
<path style="fill:none;stroke-width:2;stroke-linecap:butt;stroke-linejoin:miter;stroke:rgb(0%,0%,0%);stroke-opacity:1;stroke-miterlimit:4;" d="M 461.999707 395.999601 L 472.500358 379.50035 L 458.500179 363.500293 L 454.500423 347.000008 L 452.000317 331.500179 L 450.000439 318.000228 L 438.000138 314.000472 L 438.000138 294.499854 L 416.000448 296.499731 " transform="matrix(3.779528,0,0,3.779528,0,0)"/>
<path style="fill:none;stroke-width:2;stroke-linecap:butt;stroke-linejoin:miter;stroke:rgb(0%,0%,0%);stroke-opacity:1;stroke-miterlimit:4;" d="M 420.500431 297.500187 L 436.500488 297.500187 L 464.499813 323.499634 " transform="matrix(3.779528,0,0,3.779528,0,0)"/>
<path style="fill:none;stroke-width:2;stroke-linecap:butt;stroke-linejoin:miter;stroke:rgb(0%,0%,0%);stroke-opacity:1;stroke-miterlimit:4;" d="M 455.499845 303.499821 L 467.500146 319.499878 L 472.00013 335.499935 L 475.999886 352.00022 L 477.499536 368.000277 " transform="matrix(3.779528,0,0,3.779528,0,0)"/>
<path style="fill:none;stroke-width:2;stroke-linecap:butt;stroke-linejoin:miter;stroke:rgb(0%,0%,0%);stroke-opacity:1;stroke-miterlimit:4;" d="M 438.000138 323.000439 L 421.499854 323.000439 L 405.499797 329.000073 " transform="matrix(3.779528,0,0,3.779528,0,0)"/>
<path style="fill:none;stroke-width:2;stroke-linecap:butt;stroke-linejoin:miter;stroke:rgb(0%,0%,0%);stroke-opacity:1;stroke-miterlimit:4;" d="M 406.500252 329.000073 L 412.499886 345.500358 L 418.000326 361.500415 " transform="matrix(3.779528,0,0,3.779528,0,0)"/>
<path style="fill:none;stroke-width:2;stroke-linecap:butt;stroke-linejoin:miter;stroke:rgb(0%,0%,0%);stroke-opacity:1;stroke-miterlimit:4;" d="M 409.000358 368.999699 L 404.999569 352.500448 L 400.499585 336.500391 " transform="matrix(3.779528,0,0,3.779528,0,0)"/>
<path style="fill:none;stroke-width:2;stroke-linecap:butt;stroke-linejoin:miter;stroke:rgb(0%,0%,0%);stroke-opacity:1;stroke-miterlimit:4;" d="M 401.500041 327.500423 L 417.500098 313.500244 L 433.500155 315.500122 L 441.499666 327.500423 L 447.999528 343.50048 L 452.000317 359.499504 L 452.499512 375.499561 L 459.000407 395.999601 L 463.500391 411.999658 L 455.499845 425.999837 L 457.999951 434.000382 " transform="matrix(3.779528,0,0,3.779528,0,0)"/>
<path style="fill:none;stroke-width:2;stroke-linecap:butt;stroke-linejoin:miter;stroke:rgb(0%,0%,0%);stroke-opacity:1;stroke-miterlimit:4;" d="M 450.000439 425.999837 L 441.999894 424.500187 L 432.000505 408.50013 " transform="matrix(3.779528,0,0,3.779528,0,0)"/>
<path style="fill:none;stroke-width:2;stroke-linecap:butt;stroke-linejoin:miter;stroke:rgb(0%,0%,0%);stroke-opacity:1;stroke-miterlimit:4;" d="M 472.00013 358.500081 L 468.000374 342.500024 L 463.999585 326.499967 L 453.499967 309.999683 L 447.500334 307.999805 L 431.500277 309.999683 L 415.50022 309.500488 L 400.000391 323.499634 " transform="matrix(3.779528,0,0,3.779528,0,0)"/>
<path style="fill:none;stroke-width:2;stroke-linecap:butt;stroke-linejoin:miter;stroke:rgb(0%,0%,0%);stroke-opacity:1;stroke-miterlimit:4;" d="M 394.499951 323.499634 L 402.500496 320.000106 L 404.000146 336.000163 L 409.499552 352.00022 L 413.500342 368.000277 L 414.999992 377.999666 L 461.000285 377.999666 " transform="matrix(3.779528,0,0,3.779528,0,0)"/>
<path style="fill:none;stroke-width:2;stroke-linecap:butt;stroke-linejoin:miter;stroke:rgb(0%,0%,0%);stroke-opacity:1;stroke-miterlimit:4;" d="M 291.49952 327.500423 L 243.999577 327.500423 L 227.99952 325.99974 L 212.000496 324.50009 " transform="matrix(3.779528,0,0,3.779528,0,0)"/>
<path style="fill:none;stroke-width:2;stroke-linecap:butt;stroke-linejoin:miter;stroke:rgb(0%,0%,0%);stroke-opacity:1;stroke-miterlimit:4;" d="M 207.000285 321.999984 L 223.000342 319.499878 L 239.000399 321.499756 L 271.000513 321.499756 L 286.500342 321.999984 L 302.500399 322.500212 " transform="matrix(3.779528,0,0,3.779528,0,0)"/>
<path style="fill:none;stroke-width:2;stroke-linecap:butt;stroke-linejoin:miter;stroke:rgb(0%,0%,0%);stroke-opacity:1;stroke-miterlimit:4;" d="M 304.000049 336.000163 L 300.499487 329.500301 L 296.499731 350.000342 L 280.499674 350.000342 L 264.000423 350.499536 L 232.000309 350.499536 L 216.000252 343.999674 L 200.000195 339.999919 L 183.49991 320.000106 L 167.499854 314.000472 " transform="matrix(3.779528,0,0,3.779528,0,0)"/>
<path style="fill:none;stroke-width:2;stroke-linecap:butt;stroke-linejoin:miter;stroke:rgb(0%,0%,0%);stroke-opacity:1;stroke-miterlimit:4;" d="M 168.000081 309.00026 L 184.000138 311.000138 L 200.000195 329.500301 L 211.500269 331.500179 " transform="matrix(3.779528,0,0,3.779528,0,0)"/>
<path style="fill:none;stroke-width:2;stroke-linecap:butt;stroke-linejoin:miter;stroke:rgb(0%,0%,0%);stroke-opacity:1;stroke-miterlimit:4;" d="M 192.499878 347.500236 L 180.000382 331.500179 " transform="matrix(3.779528,0,0,3.779528,0,0)"/>
<path style="fill:none;stroke-width:2;stroke-linecap:butt;stroke-linejoin:miter;stroke:rgb(0%,0%,0%);stroke-opacity:1;stroke-miterlimit:4;" d="M 178.499699 311.500366 L 194.499756 327.500423 L 217.499902 339.499691 L 250.000244 339.499691 L 266.000301 339.999919 L 282.000358 339.999919 L 298.499609 333.500057 " transform="matrix(3.779528,0,0,3.779528,0,0)"/>
<path style="fill:none;stroke-width:2;stroke-linecap:butt;stroke-linejoin:miter;stroke:rgb(0%,0%,0%);stroke-opacity:1;stroke-miterlimit:4;" d="M 214.499569 366.499593 L 223.000342 382.49965 L 245.000033 398.499707 L 241.000277 412.499886 L 257.499528 418.000326 " transform="matrix(3.779528,0,0,3.779528,0,0)"/>
<path style="fill:none;stroke-width:2;stroke-linecap:butt;stroke-linejoin:miter;stroke:rgb(0%,0%,0%);stroke-opacity:1;stroke-miterlimit:4;" d="M 221.000464 392.500073 L 232.999731 408.50013 L 220.500236 424.500187 L 224.499992 426.500065 L 214.499569 434.499577 L 208.499935 448.499756 L 206.500057 454.000195 L 220.000008 461.999707 L 236.000065 468.000374 L 252.000122 468.000374 L 268.500407 470.000252 L 284.500464 459.999829 L 302.500399 437.49991 L 309.999683 434.999805 L 325.99974 431.000049 L 341.499569 445.000228 L 347.500236 456.500301 L 359.000309 477.000342 " transform="matrix(3.779528,0,0,3.779528,0,0)"/>
<path style="fill:none;stroke-width:2;stroke-linecap:butt;stroke-linejoin:miter;stroke:rgb(0%,0%,0%);stroke-opacity:1;stroke-miterlimit:4;" d="M 237.499715 244.499805 L 223.000342 228.499748 L 198.99974 228.499748 L 187.000472 230.499626 " transform="matrix(3.779528,0,0,3.779528,0,0)"/>
<path style="fill:none;stroke-width:2;stroke-linecap:butt;stroke-linejoin:miter;stroke:rgb(0%,0%,0%);stroke-opacity:1;stroke-miterlimit:4;" d="M 183.49991 234.500415 L 198.99974 246.499683 L 218.999552 248.499561 " transform="matrix(3.779528,0,0,3.779528,0,0)"/>
<path style="fill:none;stroke-width:2;stroke-linecap:butt;stroke-linejoin:miter;stroke:rgb(0%,0%,0%);stroke-opacity:1;stroke-miterlimit:4;" d="M 223.999764 221.000464 L 209.999585 209.500391 L 193.999528 205.499601 " transform="matrix(3.779528,0,0,3.779528,0,0)"/>
<path style="fill:none;stroke-width:2;stroke-linecap:butt;stroke-linejoin:miter;stroke:rgb(0%,0%,0%);stroke-opacity:1;stroke-miterlimit:4;" d="M 190.5 212.499691 L 190.5 228.499748 L 210.499813 232.499504 L 228.499748 248.499561 " transform="matrix(3.779528,0,0,3.779528,0,0)"/>
<path style="fill:none;stroke-width:2;stroke-linecap:butt;stroke-linejoin:miter;stroke:rgb(0%,0%,0%);stroke-opacity:1;stroke-miterlimit:4;" d="M 232.499504 236.500293 L 216.999674 223.000342 L 200.999618 212.999919 L 184.999561 216.999674 " transform="matrix(3.779528,0,0,3.779528,0,0)"/>
<path style="fill:none;stroke-width:2;stroke-linecap:butt;stroke-linejoin:miter;stroke:rgb(0%,0%,0%);stroke-opacity:1;stroke-miterlimit:4;" d="M 177.500277 210.499813 L 177.500277 226.49987 L 187.000472 242.499927 L 207.000285 236.500293 L 218.500358 248.000366 " transform="matrix(3.779528,0,0,3.779528,0,0)"/>
<path style="fill:none;stroke-width:2;stroke-linecap:butt;stroke-linejoin:miter;stroke:rgb(0%,0%,0%);stroke-opacity:1;stroke-miterlimit:4;" d="M 227.500326 246.000488 L 212.000496 232.000309 L 196.000439 222.500114 L 180.000382 225.999642 " transform="matrix(3.779528,0,0,3.779528,0,0)"/>
<path style="fill:none;stroke-width:2;stroke-linecap:butt;stroke-linejoin:miter;stroke:rgb(0%,0%,0%);stroke-opacity:1;stroke-miterlimit:4;" d="M 166.999626 220.500236 L 166.500431 236.500293 L 166.500431 252.000122 L 168.500309 268.000179 L 168.000081 284.500464 " transform="matrix(3.779528,0,0,3.779528,0,0)"/>
<path style="fill:none;stroke-width:2;stroke-linecap:butt;stroke-linejoin:miter;stroke:rgb(0%,0%,0%);stroke-opacity:1;stroke-miterlimit:4;" d="M 173.499487 261.999512 L 205.499601 261.999512 L 221.999886 261.500317 " transform="matrix(3.779528,0,0,3.779528,0,0)"/>
<path style="fill:none;stroke-width:2;stroke-linecap:butt;stroke-linejoin:miter;stroke:rgb(0%,0%,0%);stroke-opacity:1;stroke-miterlimit:4;" d="M 220.500236 257.000334 L 204.500179 257.000334 L 189.00035 256.500106 L 173.000293 256.500106 " transform="matrix(3.779528,0,0,3.779528,0,0)"/>
<path style="fill:none;stroke-width:2;stroke-linecap:butt;stroke-linejoin:miter;stroke:rgb(0%,0%,0%);stroke-opacity:1;stroke-miterlimit:4;" d="M 139.499495 246.499683 L 139.499495 262.49974 L 141.500407 278.499797 L 145.500163 294.499854 L 149.499919 309.999683 L 164.000326 325.99974 L 173.499487 341.999797 L 185.499788 357.999854 " transform="matrix(3.779528,0,0,3.779528,0,0)"/>
<path style="fill:none;stroke-width:2;stroke-linecap:butt;stroke-linejoin:miter;stroke:rgb(0%,0%,0%);stroke-opacity:1;stroke-miterlimit:4;" d="M 117.499805 345.500358 L 113.500049 361.500415 L 105.999731 377.500472 L 107.999609 375.499561 " transform="matrix(3.779528,0,0,3.779528,0,0)"/>
<path style="fill:none;stroke-width:2;stroke-linecap:butt;stroke-linejoin:miter;stroke:rgb(0%,0%,0%);stroke-opacity:1;stroke-miterlimit:4;" d="M 94.999886 400.499585 L 94.499658 384.999756 L 110.499715 364.999943 L 112.000399 349.500114 L 121.499561 332.999829 L 114.999699 330.999951 L 119.000488 314.999894 L 112.499593 298.499609 L 105.999731 295.000081 L 124.499894 282.99978 L 128.49965 266.999723 L 132.999634 250.999666 L 139.000301 234.999609 L 132.999634 228.499748 L 141.000179 212.000496 L 137.499618 195.500212 L 133.499862 191.000228 L 117.499805 192.499878 L 101.499748 205.999829 " transform="matrix(3.779528,0,0,3.779528,0,0)"/>
<path style="fill:none;stroke-width:2;stroke-linecap:butt;stroke-linejoin:miter;stroke:rgb(0%,0%,0%);stroke-opacity:1;stroke-miterlimit:4;" d="M 98.500448 221.000464 L 100.000098 225.500448 L 109.999487 233.499959 L 100.000098 250.000244 L 96.499536 266.000301 L 78.499601 282.499552 L 68.500212 298.999837 L 64.000228 314.999894 L 61.500122 330.999951 L 55.500488 346.49978 L 39.500431 358.500081 L 55.500488 346.49978 L 69.499634 324.50009 L 79.500057 310.49991 L 95.500114 307.999805 L 112.000399 316.00035 " transform="matrix(3.779528,0,0,3.779528,0,0)"/>
<path style="fill:none;stroke-width:2;stroke-linecap:butt;stroke-linejoin:miter;stroke:rgb(0%,0%,0%);stroke-opacity:1;stroke-miterlimit:4;" d="M 105.999731 298.000415 L 121.499561 287.999992 " transform="matrix(3.779528,0,0,3.779528,0,0)"/>
<path style="fill:none;stroke-width:2;stroke-linecap:butt;stroke-linejoin:miter;stroke:rgb(0%,0%,0%);stroke-opacity:1;stroke-miterlimit:4;" d="M 117.499805 307.000382 L 105.499504 305.000505 L 89.50048 296.999959 " transform="matrix(3.779528,0,0,3.779528,0,0)"/>
<path style="fill:none;stroke-width:2;stroke-linecap:butt;stroke-linejoin:miter;stroke:rgb(0%,0%,0%);stroke-opacity:1;stroke-miterlimit:4;" d="M 78.999829 303.499821 L 82.999585 281.50013 L 98.999642 275.500496 L 88.500024 297.500187 L 116.000155 313.000016 " transform="matrix(3.779528,0,0,3.779528,0,0)"/>
<path style="fill:none;stroke-width:2;stroke-linecap:butt;stroke-linejoin:miter;stroke:rgb(0%,0%,0%);stroke-opacity:1;stroke-miterlimit:4;" d="M 105.499504 320.000106 L 89.50048 320.000106 " transform="matrix(3.779528,0,0,3.779528,0,0)"/>
<path style="fill:none;stroke-width:2;stroke-linecap:butt;stroke-linejoin:miter;stroke:rgb(0%,0%,0%);stroke-opacity:1;stroke-miterlimit:4;" d="M 80.000285 315.500122 L 105.999731 313.500244 L 96.000342 323.000439 L 87.999797 339.000496 L 67.999984 343.000252 L 62.00035 352.999642 L 57.999561 375.000366 L 50.000049 391.000423 L 59.500244 399.500163 L 53.499577 403.499919 L 55.00026 389.49974 " transform="matrix(3.779528,0,0,3.779528,0,0)"/>
<path style="fill:none;stroke-width:2;stroke-linecap:butt;stroke-linejoin:miter;stroke:rgb(0%,0%,0%);stroke-opacity:1;stroke-miterlimit:4;" d="M 75.000073 350.000342 L 94.999886 313.500244 L 87.000374 329.000073 L 78.999829 345.00013 L 73.000195 363.000065 L 88.500024 366.999821 L 105.000309 370.999577 " transform="matrix(3.779528,0,0,3.779528,0,0)"/>
<path style="fill:none;stroke-width:2;stroke-linecap:butt;stroke-linejoin:miter;stroke:rgb(0%,0%,0%);stroke-opacity:1;stroke-miterlimit:4;" d="M 79.500057 351.499992 L 101.499748 317.5 " transform="matrix(3.779528,0,0,3.779528,0,0)"/>
<path style="fill:none;stroke-width:2;stroke-linecap:butt;stroke-linejoin:miter;stroke:rgb(0%,0%,0%);stroke-opacity:1;stroke-miterlimit:4;" d="M 69.000439 289.99987 L 85.000496 273.999813 L 80.999707 285.499886 L 74.499845 301.499943 L 76.499723 318.000228 L 66.000106 334.000285 L 62.499544 350.000342 L 58.499788 361.999609 L 48.500399 377.999666 L 44.499609 394.499951 L 50.500277 410.500008 L 64.500456 407.999902 L 58.499788 413.500342 L 74.499845 405.499797 L 89.999674 404.999569 " transform="matrix(3.779528,0,0,3.779528,0,0)"/>
<path style="fill:none;stroke-width:2;stroke-linecap:butt;stroke-linejoin:miter;stroke:rgb(0%,0%,0%);stroke-opacity:1;stroke-miterlimit:4;" d="M 35.99987 354.000098 L 40.499854 337.499813 L 46.999715 321.999984 L 53.499577 305.999927 L 65.499878 289.99987 L 43.500187 329.999495 " transform="matrix(3.779528,0,0,3.779528,0,0)"/>
<path style="fill:none;stroke-width:2;stroke-linecap:butt;stroke-linejoin:miter;stroke:rgb(0%,0%,0%);stroke-opacity:1;stroke-miterlimit:4;" d="M 37.000326 332.499601 L 53.000382 295.999504 L 60.999894 287.999992 L 48.999593 303.499821 L 40.499854 319.499878 L 35.99987 335.499935 L 32.000114 351.499992 L 47.499943 363.500293 L 71.499512 333.500057 " transform="matrix(3.779528,0,0,3.779528,0,0)"/>
<path style="fill:none;stroke-width:2;stroke-linecap:butt;stroke-linejoin:miter;stroke:rgb(0%,0%,0%);stroke-opacity:1;stroke-miterlimit:4;" d="M 91.999552 246.499683 L 107.999609 236.000065 " transform="matrix(3.779528,0,0,3.779528,0,0)"/>
<path style="fill:none;stroke-width:2;stroke-linecap:butt;stroke-linejoin:miter;stroke:rgb(0%,0%,0%);stroke-opacity:1;stroke-miterlimit:4;" d="M 121.999788 191.99965 L 101.499748 207.999707 L 89.999674 224.499992 L 89.999674 236.500293 L 96.499536 216.000252 L 112.499593 219.49978 L 128.999878 230.000431 L 144.999935 205.999829 L 159.000114 212.000496 L 168.999504 198.000317 L 182.999683 202.000073 L 214.999797 196.999862 L 230.999854 196.999862 L 246.99991 194.999984 L 262.49974 196.999862 L 295.000081 196.999862 L 311.000138 199.499967 L 327.000195 195.500212 L 343.000252 193.999528 L 359.000309 197.50009 L 384.999756 195.500212 L 400.999813 195.500212 L 416.99987 205.499601 " transform="matrix(3.779528,0,0,3.779528,0,0)"/>
<path style="fill:none;stroke-width:2;stroke-linecap:butt;stroke-linejoin:miter;stroke:rgb(0%,0%,0%);stroke-opacity:1;stroke-miterlimit:4;" d="M 402.999691 192.499878 L 420.999626 208.499935 L 420.999626 223.999764 L 425.000415 239.499593 L 414.999992 255.49965 L 420.999626 271.000513 L 413.500342 286.999536 L 406.000024 297.500187 L 400.000391 313.500244 L 395.999601 329.500301 L 395.999601 345.500358 L 398.000513 361.500415 L 402.000269 377.000244 L 402.000269 393.000301 L 406.000024 402.999691 L 422.000081 404.999569 L 438.000138 418.999748 L 454.000195 436.999683 L 453.499967 431.500277 L 469.500024 427.499487 " transform="matrix(3.779528,0,0,3.779528,0,0)"/>
<path style="fill:none;stroke-width:2;stroke-linecap:butt;stroke-linejoin:miter;stroke:rgb(0%,0%,0%);stroke-opacity:1;stroke-miterlimit:4;" d="M 318.500456 125.999544 L 302.000171 144.000513 L 286.000114 146.000391 L 270.000057 147.500041 L 254 147.500041 L 236.000065 146.999813 L 219.49978 145.500163 L 209.000163 153.499674 L 197.50009 137.499618 L 191.500456 121.499561 L 187.499666 105.499504 L 211.500269 99.49987 L 195.500212 107.999609 " transform="matrix(3.779528,0,0,3.779528,0,0)"/>
<path style="fill:none;stroke-width:2;stroke-linecap:butt;stroke-linejoin:miter;stroke:rgb(0%,0%,0%);stroke-opacity:1;stroke-miterlimit:4;" d="M 205.499601 107.500415 L 195.500212 109.500293 L 197.50009 125.50035 L 205.499601 141.000179 L 227.500326 166.999626 L 219.49978 182.500488 L 236.000065 186.500244 L 238.500171 182.00026 L 255.000456 189.999772 L 271.499707 189.999772 L 287.999992 187.999894 L 287.999992 182.00026 " transform="matrix(3.779528,0,0,3.779528,0,0)"/>
<path style="fill:none;stroke-width:2;stroke-linecap:butt;stroke-linejoin:miter;stroke:rgb(0%,0%,0%);stroke-opacity:1;stroke-miterlimit:4;" d="M 216.999674 218.00013 L 184.999561 207.500513 L 168.999504 207.500513 " transform="matrix(3.779528,0,0,3.779528,0,0)"/>
<path style="fill:none;stroke-width:2;stroke-linecap:butt;stroke-linejoin:miter;stroke:rgb(0%,0%,0%);stroke-opacity:1;stroke-miterlimit:4;" d="M 167.499854 192.499878 L 161.50022 208.499935 L 167.499854 214.499569 L 159.500342 230.499626 L 159.500342 246.499683 L 161.50022 261.999512 L 164.000326 277.999569 L 162.000448 293.999626 L 154.50013 304.000049 L 168.500309 320.000106 L 178.999927 335.499935 L 189.00035 351.499992 " transform="matrix(3.779528,0,0,3.779528,0,0)"/>
<path style="fill:none;stroke-width:2;stroke-linecap:butt;stroke-linejoin:miter;stroke:rgb(0%,0%,0%);stroke-opacity:1;stroke-miterlimit:4;" d="M 209.999585 366.499593 L 193.999528 364.499715 L 178.000505 346.49978 L 162.499642 318.500456 L 154.50013 316.499544 L 148.000269 282.99978 L 146.000391 266.999723 L 144.000513 251.499894 L 148.000269 229.500203 L 152.500252 213.500146 " transform="matrix(3.779528,0,0,3.779528,0,0)"/>
<path style="fill:none;stroke-width:2;stroke-linecap:butt;stroke-linejoin:miter;stroke:rgb(0%,0%,0%);stroke-opacity:1;stroke-miterlimit:4;" d="M 132.999634 189.00035 L 150.500374 193.000106 L 162.99987 205.000407 L 164.49952 194.999984 L 180.499577 190.5 " transform="matrix(3.779528,0,0,3.779528,0,0)"/>
<path style="fill:none;stroke-width:2;stroke-linecap:butt;stroke-linejoin:miter;stroke:rgb(0%,0%,0%);stroke-opacity:1;stroke-miterlimit:4;" d="M 124.499894 187.000472 L 100.500326 202.500301 L 88.500024 218.500358 L 82.500391 234.500415 L 86.500146 236.500293 L 90.499902 214.499569 L 107.000187 196.499634 L 123.000244 188.500122 L 139.499495 189.999772 L 155.000358 189.999772 L 171.000415 186.500244 L 187.000472 184.000138 L 202.999495 178.000505 L 218.999552 173.499487 L 234.500415 167.499854 L 281.50013 167.499854 L 297.500187 173.499487 L 313.500244 184.000138 L 329.500301 186.000016 L 345.500358 187.499666 L 361.500415 193.500334 L 377.500472 193.500334 L 393.499495 189.499544 L 409.000358 193.500334 " transform="matrix(3.779528,0,0,3.779528,0,0)"/>
<path style="fill:none;stroke-width:2;stroke-linecap:butt;stroke-linejoin:miter;stroke:rgb(0%,0%,0%);stroke-opacity:1;stroke-miterlimit:4;" d="M 300.000293 152.000024 L 316.00035 132.000212 L 321.999984 115.499927 L 314.000472 99.49987 " transform="matrix(3.779528,0,0,3.779528,0,0)"/>
<path style="fill:none;stroke-width:2;stroke-linecap:butt;stroke-linejoin:miter;stroke:rgb(0%,0%,0%);stroke-opacity:1;stroke-miterlimit:4;" d="M 327.000195 87.000374 L 302.999593 73.000195 L 286.999536 71.000317 L 255.000456 71.000317 L 238.500171 71.499512 L 222.500114 73.000195 L 206.500057 78.999829 L 190.5 91.00013 " transform="matrix(3.779528,0,0,3.779528,0,0)"/>
<path style="fill:none;stroke-width:2;stroke-linecap:butt;stroke-linejoin:miter;stroke:rgb(0%,0%,0%);stroke-opacity:1;stroke-miterlimit:4;" d="M 214.000374 102.500203 L 213.500146 118.000033 " transform="matrix(3.779528,0,0,3.779528,0,0)"/>
<path style="fill:none;stroke-width:2;stroke-linecap:butt;stroke-linejoin:miter;stroke:rgb(0%,0%,0%);stroke-opacity:1;stroke-miterlimit:4;" d="M 220.000008 111.500171 L 225.999642 94.999886 " transform="matrix(3.779528,0,0,3.779528,0,0)"/>
<path style="fill:none;stroke-width:2;stroke-linecap:butt;stroke-linejoin:miter;stroke:rgb(0%,0%,0%);stroke-opacity:1;stroke-miterlimit:4;" d="M 241.500505 10.999845 L 219.49978 26.999902 L 207.500513 42.999959 L 203.499723 59.500244 L 207.999707 62.00035 L 209.999585 32.500342 L 225.999642 16.500285 L 241.999699 8.49974 L 259.999634 8.49974 L 276.499919 6.499862 L 293.000203 18.500163 L 309.00026 36.500098 " transform="matrix(3.779528,0,0,3.779528,0,0)"/>
</g>
</svg>
