<?xml version="1.0" encoding="UTF-8"?>
<svg xmlns="http://www.w3.org/2000/svg" xmlns:xlink="http://www.w3.org/1999/xlink" width="1935.11811" height="1935.11811" viewBox="0 0 1935.11811 1935.11811" version="1.1">
<g id="surface1">
<path style="fill:none;stroke-width:2;stroke-linecap:butt;stroke-linejoin:miter;stroke:rgb(0%,0%,0%);stroke-opacity:1;stroke-miterlimit:4;" d="M 263.500195 2.500106 L 257.499528 10.499618 L 257.499528 16.500285 L 273.499585 14.500407 L 289.499642 14.999601 L 305.499699 17.000513 L 321.499756 19.000391 L 337.499813 23.000146 L 352.999642 26.999902 L 368.999699 30.500464 L 384.499528 36.500098 L 400.999813 40.499854 L 416.99987 48.500399 L 432.999927 58.499788 L 449.500212 67.999984 L 465.500269 81.499935 L 481.500326 96.999764 L 497.500382 119.000488 L 501.500138 139.000301 L 505.499894 146.499585 L 502.000366 150.500374 " transform="matrix(3.779528,0,0,3.779528,0,0)"/>
<path style="fill:none;stroke-width:2;stroke-linecap:butt;stroke-linejoin:miter;stroke:rgb(0%,0%,0%);stroke-opacity:1;stroke-miterlimit:4;" d="M 457.999951 155.499552 L 441.999894 161.50022 L 425.499609 155.499552 L 409.499552 147.500041 " transform="matrix(3.779528,0,0,3.779528,0,0)"/>
<path style="fill:none;stroke-width:2;stroke-linecap:butt;stroke-linejoin:miter;stroke:rgb(0%,0%,0%);stroke-opacity:1;stroke-miterlimit:4;" d="M 410.500008 148.999691 L 440.500244 162.499642 L 426.500065 172.500065 " transform="matrix(3.779528,0,0,3.779528,0,0)"/>
<path style="fill:none;stroke-width:2;stroke-linecap:butt;stroke-linejoin:miter;stroke:rgb(0%,0%,0%);stroke-opacity:1;stroke-miterlimit:4;" d="M 354.99952 36.500098 L 338.500269 32.500342 " transform="matrix(3.779528,0,0,3.779528,0,0)"/>
<path style="fill:none;stroke-width:2;stroke-linecap:butt;stroke-linejoin:miter;stroke:rgb(0%,0%,0%);stroke-opacity:1;stroke-miterlimit:4;" d="M 336.500391 28.99978 L 352.500448 29.500008 " transform="matrix(3.779528,0,0,3.779528,0,0)"/>
<path style="fill:none;stroke-width:2;stroke-linecap:butt;stroke-linejoin:miter;stroke:rgb(0%,0%,0%);stroke-opacity:1;stroke-miterlimit:4;" d="M 343.000252 35.99987 L 385.499984 35.99987 L 420.999626 51.499699 L 445.500456 67.499756 L 465.500269 83.499813 L 481.99952 99.49987 L 493.999821 115.499927 L 504.500472 132.000212 L 494.500049 137.999845 L 497.000155 144.499707 " transform="matrix(3.779528,0,0,3.779528,0,0)"/>
<path style="fill:none;stroke-width:2;stroke-linecap:butt;stroke-linejoin:miter;stroke:rgb(0%,0%,0%);stroke-opacity:1;stroke-miterlimit:4;" d="M 495.500505 132.999634 L 479.500448 147.500041 L 463.999585 151.499797 L 448.499756 155.99978 L 432.499699 119.99991 L 416.499642 96.000342 L 400.499585 75.999495 L 384.499528 62.00035 L 368.500505 51.499699 L 352.500448 43.500187 L 336.000163 39.500431 " transform="matrix(3.779528,0,0,3.779528,0,0)"/>
<path style="fill:none;stroke-width:2;stroke-linecap:butt;stroke-linejoin:miter;stroke:rgb(0%,0%,0%);stroke-opacity:1;stroke-miterlimit:4;" d="M 345.999552 41.000081 L 375.999788 57.500366 L 395.999601 73.500423 L 409.99978 89.50048 L 422.000081 105.499504 L 432.000505 121.499561 L 440.000016 137.499618 L 446.499878 153.499674 L 458.500179 157.500464 " transform="matrix(3.779528,0,0,3.779528,0,0)"/>
<path style="fill:none;stroke-width:2;stroke-linecap:butt;stroke-linejoin:miter;stroke:rgb(0%,0%,0%);stroke-opacity:1;stroke-miterlimit:4;" d="M 432.000505 164.999748 L 416.000448 164.999748 L 400.499585 161.50022 L 384.499528 159.500342 L 368.000277 162.000448 L 352.00022 164.000326 L 336.000163 169.499731 L 320.000106 167.499854 L 303.499821 163.500098 L 286.500342 159.500342 L 270.500285 157.500464 " transform="matrix(3.779528,0,0,3.779528,0,0)"/>
<path style="fill:none;stroke-width:2;stroke-linecap:butt;stroke-linejoin:miter;stroke:rgb(0%,0%,0%);stroke-opacity:1;stroke-miterlimit:4;" d="M 273.000391 158.499886 L 273.000391 174.499943 L 275.000269 189.999772 L 273.000391 205.999829 L 274.500041 221.999886 L 274.500041 253.499772 L 288.50022 270.000057 L 282.499552 286.000114 " transform="matrix(3.779528,0,0,3.779528,0,0)"/>
<path style="fill:none;stroke-width:2;stroke-linecap:butt;stroke-linejoin:miter;stroke:rgb(0%,0%,0%);stroke-opacity:1;stroke-miterlimit:4;" d="M 287.499764 268.999601 L 271.499707 246.99991 " transform="matrix(3.779528,0,0,3.779528,0,0)"/>
<path style="fill:none;stroke-width:2;stroke-linecap:butt;stroke-linejoin:miter;stroke:rgb(0%,0%,0%);stroke-opacity:1;stroke-miterlimit:4;" d="M 259.000212 265.500073 L 243.000155 266.000301 " transform="matrix(3.779528,0,0,3.779528,0,0)"/>
<path style="fill:none;stroke-width:2;stroke-linecap:butt;stroke-linejoin:miter;stroke:rgb(0%,0%,0%);stroke-opacity:1;stroke-miterlimit:4;" d="M 237.499715 256.500106 L 253.499772 262.49974 L 261.500317 280.499674 " transform="matrix(3.779528,0,0,3.779528,0,0)"/>
<path style="fill:none;stroke-width:2;stroke-linecap:butt;stroke-linejoin:miter;stroke:rgb(0%,0%,0%);stroke-opacity:1;stroke-miterlimit:4;" d="M 270.000057 282.000358 L 263.500195 266.000301 L 249.500016 266.000301 L 243.999577 250.000244 L 261.999512 239.499593 L 261.500317 223.499536 L 261.500317 215.500024 " transform="matrix(3.779528,0,0,3.779528,0,0)"/>
<path style="fill:none;stroke-width:2;stroke-linecap:butt;stroke-linejoin:miter;stroke:rgb(0%,0%,0%);stroke-opacity:1;stroke-miterlimit:4;" d="M 268.000179 218.00013 L 267.499951 234.000187 L 268.000179 250.500472 L 271.999935 264.499618 L 274.500041 266.000301 L 278.499797 281.50013 " transform="matrix(3.779528,0,0,3.779528,0,0)"/>
<path style="fill:none;stroke-width:2;stroke-linecap:butt;stroke-linejoin:miter;stroke:rgb(0%,0%,0%);stroke-opacity:1;stroke-miterlimit:4;" d="M 277.500374 268.999601 L 253.499772 250.999666 L 252.000122 243.000155 L 236.000065 255.000456 " transform="matrix(3.779528,0,0,3.779528,0,0)"/>
<path style="fill:none;stroke-width:2;stroke-linecap:butt;stroke-linejoin:miter;stroke:rgb(0%,0%,0%);stroke-opacity:1;stroke-miterlimit:4;" d="M 230.999854 320.500334 L 232.499504 310.49991 L 222.500114 325.99974 L 228.499748 341.999797 L 259.999634 358.500081 L 293.999626 374.500138 L 318.000228 389.999967 L 329.999495 405.499797 L 335.499935 420.999626 L 341.499569 436.500488 L 349.500114 452.000317 L 355.499748 468.499569 L 363.500293 484.999854 L 369.499927 501.500138 " transform="matrix(3.779528,0,0,3.779528,0,0)"/>
<path style="fill:none;stroke-width:2;stroke-linecap:butt;stroke-linejoin:miter;stroke:rgb(0%,0%,0%);stroke-opacity:1;stroke-miterlimit:4;" d="M 363.999487 485.500081 L 348.000464 447.500334 L 332.499601 407.00048 L 316.499544 385.499984 L 300.499487 375.999788 L 284.500464 368.000277 L 268.999601 360.499959 L 252.50035 352.500448 L 236.500293 346.49978 L 238.500171 334.500513 L 230.499626 328.499845 L 242.499927 324.50009 L 226.49987 328.499845 " transform="matrix(3.779528,0,0,3.779528,0,0)"/>
<path style="fill:none;stroke-width:2;stroke-linecap:butt;stroke-linejoin:miter;stroke:rgb(0%,0%,0%);stroke-opacity:1;stroke-miterlimit:4;" d="M 222.500114 325.499512 L 237.999943 309.500488 L 254 315.500122 L 270.000057 320.999528 L 286.000114 325.000317 L 302.500399 326.499967 L 318.500456 326.499967 L 334.000285 322.500212 L 350.000342 330.499723 L 366.000399 346.49978 L 382.000456 372.50026 L 398.000513 395.999601 L 413.500342 420.500431 L 429.500399 440.500244 L 445.99965 452.499512 L 462.499935 460.500057 L 478.499992 466.499691 L 494.500049 466.000496 L 510.500106 461.999707 " transform="matrix(3.779528,0,0,3.779528,0,0)"/>
<path style="fill:none;stroke-width:2;stroke-linecap:butt;stroke-linejoin:miter;stroke:rgb(0%,0%,0%);stroke-opacity:1;stroke-miterlimit:4;" d="M 440.500244 450.000439 L 422.000081 434.000382 L 409.99978 418.000326 L 399.500163 402.000269 L 389.49974 386.500439 L 379.50035 370.500382 L 369.499927 354.500326 L 357.499626 338.500269 L 333.500057 322.500212 " transform="matrix(3.779528,0,0,3.779528,0,0)"/>
<path style="fill:none;stroke-width:2;stroke-linecap:butt;stroke-linejoin:miter;stroke:rgb(0%,0%,0%);stroke-opacity:1;stroke-miterlimit:4;" d="M 248.499561 336.500391 L 232.499504 328.499845 " transform="matrix(3.779528,0,0,3.779528,0,0)"/>
<path style="fill:none;stroke-width:2;stroke-linecap:butt;stroke-linejoin:miter;stroke:rgb(0%,0%,0%);stroke-opacity:1;stroke-miterlimit:4;" d="M 202.000073 169.999959 L 205.999829 155.99978 L 189.999772 157.999658 " transform="matrix(3.779528,0,0,3.779528,0,0)"/>
<path style="fill:none;stroke-width:2;stroke-linecap:butt;stroke-linejoin:miter;stroke:rgb(0%,0%,0%);stroke-opacity:1;stroke-miterlimit:4;" d="M 252.999544 159.000114 L 256.500106 175.000171 L 257.000334 191.000228 L 256.500106 207.000285 L 256.500106 222.500114 L 255.999878 238.500171 L 236.500293 254.500228 L 246.99991 270.000057 L 263.500195 280.00048 L 273.499585 289.499642 " transform="matrix(3.779528,0,0,3.779528,0,0)"/>
<path style="fill:none;stroke-width:2;stroke-linecap:butt;stroke-linejoin:miter;stroke:rgb(0%,0%,0%);stroke-opacity:1;stroke-miterlimit:4;" d="M 77.500179 146.499585 L 93.500236 118.50026 L 109.000065 98.500448 L 123.000244 78.499601 L 138.500073 67.999984 L 154.50013 53.999805 " transform="matrix(3.779528,0,0,3.779528,0,0)"/>
<path style="fill:none;stroke-width:2;stroke-linecap:butt;stroke-linejoin:miter;stroke:rgb(0%,0%,0%);stroke-opacity:1;stroke-miterlimit:4;" d="M 157.999658 52.500155 L 139.499495 67.999984 L 123.500472 81.499935 L 109.500293 97.499992 L 98.00022 114.000277 L 87.999797 130.000334 L 78.000407 146.000391 L 80.000285 162.000448 L 74.499845 175.999593 L 84.500269 171.499609 L 100.99952 163.500098 L 116.999577 161.50022 L 132.500439 159.999536 L 148.500496 159.999536 L 164.49952 162.000448 L 180.499577 168.000081 L 196.000439 175.999593 L 212.000496 166.500431 L 227.99952 162.499642 L 243.999577 160.999992 " transform="matrix(3.779528,0,0,3.779528,0,0)"/>
<path style="fill:none;stroke-width:2;stroke-linecap:butt;stroke-linejoin:miter;stroke:rgb(0%,0%,0%);stroke-opacity:1;stroke-miterlimit:4;" d="M 182.999683 37.999748 L 166.999626 44.000415 L 150.999569 51.999927 L 134.999512 64.000228 L 118.50026 78.000407 L 103.000431 95.500114 L 86.500146 119.499683 L 69.999862 149.499919 L 66.000106 143.500285 L 82.500391 127.500228 L 91.999552 111.500171 L 101.999976 96.000342 L 118.000033 80.000285 L 134.00009 63.5 L 153.999902 47.499943 " transform="matrix(3.779528,0,0,3.779528,0,0)"/>
<path style="fill:none;stroke-width:2;stroke-linecap:butt;stroke-linejoin:miter;stroke:rgb(0%,0%,0%);stroke-opacity:1;stroke-miterlimit:4;" d="M 132.000212 39.500431 L 96.000342 55.500488 L 71.499512 71.499512 L 59.500244 87.499569 L 43.500187 103.499626 L 30.000236 119.99991 L 17.999935 135.49974 L 32.000114 115.499927 L 48.000171 98.00022 L 64.000228 84.000041 L 80.000285 74.499845 " transform="matrix(3.779528,0,0,3.779528,0,0)"/>
<path style="fill:none;stroke-width:2;stroke-linecap:butt;stroke-linejoin:miter;stroke:rgb(0%,0%,0%);stroke-opacity:1;stroke-miterlimit:4;" d="M 67.499756 71.499512 L 49.499821 87.499569 L 33.499764 103.499626 L 21.500496 119.000488 L 11.500073 134.999512 L 1.49965 140.499951 L 17.999935 112.499593 L 34.50022 94.000464 L 51.000505 78.000407 L 67.499756 64.000228 L 84.000041 53.999805 L 100.000098 46.000293 L 115.499927 37.999748 L 130.999756 33.499764 L 146.499585 27.50013 L 162.499642 23.999569 L 178.000505 21.500496 L 193.999528 19.499585 L 209.999585 17.000513 L 225.999642 15.499829 L 241.999699 13.499951 " transform="matrix(3.779528,0,0,3.779528,0,0)"/>
<path style="fill:none;stroke-width:2;stroke-linecap:butt;stroke-linejoin:miter;stroke:rgb(0%,0%,0%);stroke-opacity:1;stroke-miterlimit:4;" d="M 268.999601 1.49965 L 264.999845 17.499707 L 271.499707 25.500252 " transform="matrix(3.779528,0,0,3.779528,0,0)"/>
<path style="fill:none;stroke-width:2;stroke-linecap:butt;stroke-linejoin:miter;stroke:rgb(0%,0%,0%);stroke-opacity:1;stroke-miterlimit:4;" d="M 132.500439 39.999626 L 116.500382 46.499487 L 100.500326 54.500033 L 84.500269 62.499544 L 68.500212 74.499845 L 48.999593 88.500024 L 32.999536 104.500081 L 16.500285 126.499772 L 3.999756 162.499642 L 12.000301 146.499585 L 7.999512 130.499528 L 17.999935 114.500505 L 30.000236 98.00022 L 43.500187 81.499935 L 63.5 64.99965 L 87.499569 48.999593 L 123.500472 32.999536 " transform="matrix(3.779528,0,0,3.779528,0,0)"/>
<path style="fill:none;stroke-width:2;stroke-linecap:butt;stroke-linejoin:miter;stroke:rgb(0%,0%,0%);stroke-opacity:1;stroke-miterlimit:4;" d="M 66.999528 173.999715 L 51.000505 158.499886 L 23.000146 142.499829 L 6.499862 150.500374 " transform="matrix(3.779528,0,0,3.779528,0,0)"/>
<path style="fill:none;stroke-width:2;stroke-linecap:butt;stroke-linejoin:miter;stroke:rgb(0%,0%,0%);stroke-opacity:1;stroke-miterlimit:4;" d="M 1.000456 162.499642 L 17.000513 150.500374 L 32.999536 148.000269 L 48.999593 147.500041 L 64.99965 129.500106 L 64.99965 130.999756 L 49.499821 146.999813 L 51.999927 155.499552 L 67.999984 169.499731 L 85.999919 157.500464 L 101.999976 147.500041 L 91.999552 159.500342 L 87.999797 160.999992 " transform="matrix(3.779528,0,0,3.779528,0,0)"/>
</g>
</svg>
