<?xml version="1.0" encoding="UTF-8"?>
<svg xmlns="http://www.w3.org/2000/svg" xmlns:xlink="http://www.w3.org/1999/xlink" width="1935.11811" height="1935.11811" viewBox="0 0 1935.11811 1935.11811" version="1.1">
<g id="surface1">
<path style="fill:none;stroke-width:2;stroke-linecap:butt;stroke-linejoin:miter;stroke:rgb(0%,0%,0%);stroke-opacity:1;stroke-miterlimit:4;" d="M 253.499772 30.500464 L 227.500326 46.499487 L 211.500269 62.499544 L 203.499723 78.499601 L 201.499845 94.999886 L 201.499845 110.999943 L 195.500212 128.999878 L 197.50009 134.999512 L 202.999495 141.000179 L 191.000228 156.500008 L 190.5 172.500065 L 198.99974 190.5 L 202.999495 206.500057 L 214.999797 210.499813 L 209.500391 223.999764 L 215.500024 239.499593 L 223.499536 255.000456 L 241.500505 273.000391 L 259.500439 277.000146 L 261.500317 302.500399 L 259.999634 318.500456 L 259.999634 334.500513 L 258.499984 350.499536 L 254.500228 366.999821 L 276.499919 379.000122 L 284.500464 381 L 300.499487 377.000244 L 316.499544 375.499561 L 348.499658 375.499561 L 364.499715 365.500171 L 380.499772 370.000155 L 395.999601 373.99991 L 411.500464 377.999666 L 427.499487 379.999544 L 443.00035 386.000212 L 459.000407 389.999967 L 475.000464 409.99978 L 499.000033 404.000146 " transform="matrix(3.779528,0,0,3.779528,0,0)"/>
<path style="fill:none;stroke-width:2;stroke-linecap:butt;stroke-linejoin:miter;stroke:rgb(0%,0%,0%);stroke-opacity:1;stroke-miterlimit:4;" d="M 506.50035 434.499577 L 490.500293 445.000228 " transform="matrix(3.779528,0,0,3.779528,0,0)"/>
<path style="fill:none;stroke-width:2;stroke-linecap:butt;stroke-linejoin:miter;stroke:rgb(0%,0%,0%);stroke-opacity:1;stroke-miterlimit:4;" d="M 485.500081 385.499984 L 469.500024 377.999666 " transform="matrix(3.779528,0,0,3.779528,0,0)"/>
<path style="fill:none;stroke-width:2;stroke-linecap:butt;stroke-linejoin:miter;stroke:rgb(0%,0%,0%);stroke-opacity:1;stroke-miterlimit:4;" d="M 468.000374 385.499984 L 484.000431 391.499618 L 491.999943 393.000301 L 486.000309 409.000358 " transform="matrix(3.779528,0,0,3.779528,0,0)"/>
<path style="fill:none;stroke-width:2;stroke-linecap:butt;stroke-linejoin:miter;stroke:rgb(0%,0%,0%);stroke-opacity:1;stroke-miterlimit:4;" d="M 463.000163 411.000236 L 447.000106 431.000049 L 431.000049 445.000228 L 414.999992 456.999495 L 398.999935 466.999919 L 382.49965 473.49978 L 366.499593 481.000098 L 350.499536 486.999731 L 334.500513 490.999487 L 318.500456 493.000399 L 302.500399 488.500415 L 286.500342 480.49987 L 271.000513 470.50048 L 255.000456 461.999707 L 223.000342 450.000439 L 207.000285 443.999772 L 186.500244 440.000016 L 168.999504 453.499967 " transform="matrix(3.779528,0,0,3.779528,0,0)"/>
<path style="fill:none;stroke-width:2;stroke-linecap:butt;stroke-linejoin:miter;stroke:rgb(0%,0%,0%);stroke-opacity:1;stroke-miterlimit:4;" d="M 153.999902 454.500423 L 164.000326 460.500057 L 159.999536 475.999886 " transform="matrix(3.779528,0,0,3.779528,0,0)"/>
<path style="fill:none;stroke-width:2;stroke-linecap:butt;stroke-linejoin:miter;stroke:rgb(0%,0%,0%);stroke-opacity:1;stroke-miterlimit:4;" d="M 134.500317 434.000382 L 118.50026 450.499634 L 102.500203 484.499626 L 108.499837 470.50048 L 114.500505 454.500423 L 128.999878 438.500366 L 134.999512 410.500008 " transform="matrix(3.779528,0,0,3.779528,0,0)"/>
<path style="fill:none;stroke-width:2;stroke-linecap:butt;stroke-linejoin:miter;stroke:rgb(0%,0%,0%);stroke-opacity:1;stroke-miterlimit:4;" d="M 134.999512 406.000024 L 144.999935 421.499854 " transform="matrix(3.779528,0,0,3.779528,0,0)"/>
<path style="fill:none;stroke-width:2;stroke-linecap:butt;stroke-linejoin:miter;stroke:rgb(0%,0%,0%);stroke-opacity:1;stroke-miterlimit:4;" d="M 148.000269 425.000415 L 132.000212 404.500374 " transform="matrix(3.779528,0,0,3.779528,0,0)"/>
<path style="fill:none;stroke-width:2;stroke-linecap:butt;stroke-linejoin:miter;stroke:rgb(0%,0%,0%);stroke-opacity:1;stroke-miterlimit:4;" d="M 131.499984 404.500374 L 139.499495 420.500431 L 139.499495 436.500488 L 133.499862 452.499512 L 123.500472 468.000374 L 116.000155 484.000431 L 107.500415 500.000488 " transform="matrix(3.779528,0,0,3.779528,0,0)"/>
<path style="fill:none;stroke-width:2;stroke-linecap:butt;stroke-linejoin:miter;stroke:rgb(0%,0%,0%);stroke-opacity:1;stroke-miterlimit:4;" d="M 75.999495 489.499837 L 79.500057 485.500081 L 63.5 491.499715 " transform="matrix(3.779528,0,0,3.779528,0,0)"/>
<path style="fill:none;stroke-width:2;stroke-linecap:butt;stroke-linejoin:miter;stroke:rgb(0%,0%,0%);stroke-opacity:1;stroke-miterlimit:4;" d="M 77.500179 503.500016 L 61.500122 506.000122 L 51.499699 508 L 55.500488 495.999699 L 57.500366 479.500448 L 49.499821 477.499536 L 55.500488 461.000285 L 59.500244 445.000228 " transform="matrix(3.779528,0,0,3.779528,0,0)"/>
<path style="fill:none;stroke-width:2;stroke-linecap:butt;stroke-linejoin:miter;stroke:rgb(0%,0%,0%);stroke-opacity:1;stroke-miterlimit:4;" d="M 56.49991 434.499577 L 73.000195 414.499764 L 89.000252 416.99987 " transform="matrix(3.779528,0,0,3.779528,0,0)"/>
<path style="fill:none;stroke-width:2;stroke-linecap:butt;stroke-linejoin:miter;stroke:rgb(0%,0%,0%);stroke-opacity:1;stroke-miterlimit:4;" d="M 80.500513 413.500342 L 100.500326 429.500399 " transform="matrix(3.779528,0,0,3.779528,0,0)"/>
<path style="fill:none;stroke-width:2;stroke-linecap:butt;stroke-linejoin:miter;stroke:rgb(0%,0%,0%);stroke-opacity:1;stroke-miterlimit:4;" d="M 77.500179 411.500464 L 61.500122 427.499487 L 55.999683 443.499544 L 50.000049 459.999829 L 45.500065 475.999886 L 41.500309 491.999943 L 39.999626 508 " transform="matrix(3.779528,0,0,3.779528,0,0)"/>
<path style="fill:none;stroke-width:2;stroke-linecap:butt;stroke-linejoin:miter;stroke:rgb(0%,0%,0%);stroke-opacity:1;stroke-miterlimit:4;" d="M 28.000358 455.499845 L 44.499609 423.499731 L 60.499666 407.499674 L 76.499723 398.000513 L 92.49978 391.999845 L 108.499837 388.00009 L 124.499894 389.999967 L 140.499951 386.000212 L 155.99978 381.500228 L 171.499609 377.500472 L 187.499666 375.000366 L 203.499723 370.999577 L 219.49978 370.000155 L 235.499837 366.499593 L 253.499772 358.500081 L 261.500317 373.000488 " transform="matrix(3.779528,0,0,3.779528,0,0)"/>
<path style="fill:none;stroke-width:2;stroke-linecap:butt;stroke-linejoin:miter;stroke:rgb(0%,0%,0%);stroke-opacity:1;stroke-miterlimit:4;" d="M 291.999748 381 L 307.999805 382.999878 L 323.999862 379.50035 L 339.499691 379.50035 L 355.499748 377.999666 L 373.000488 361.999609 L 388.999512 366.000399 L 405.499797 370.500382 L 421.499854 374.500138 L 447.500334 374.500138 L 463.500391 370.999577 L 473.49978 368.500505 L 477.499536 373.000488 L 493.499593 366.999821 L 497.999577 368.999699 L 500.000488 375.000366 " transform="matrix(3.779528,0,0,3.779528,0,0)"/>
<path style="fill:none;stroke-width:2;stroke-linecap:butt;stroke-linejoin:miter;stroke:rgb(0%,0%,0%);stroke-opacity:1;stroke-miterlimit:4;" d="M 461.999707 382.999878 L 477.999764 388.999512 L 482.499748 414.999992 L 492.500171 426.500065 L 509.000456 426.500065 L 502.999788 445.99965 L 500.99991 461.999707 L 509.000456 477.499536 " transform="matrix(3.779528,0,0,3.779528,0,0)"/>
<path style="fill:none;stroke-width:2;stroke-linecap:butt;stroke-linejoin:miter;stroke:rgb(0%,0%,0%);stroke-opacity:1;stroke-miterlimit:4;" d="M 472.00013 501.500138 L 474.000008 486.000309 L 477.999764 470.50048 L 481.99952 454.500423 L 482.499748 438.000138 L 478.499992 422.000081 L 474.500236 406.500252 L 461.000285 390.500195 " transform="matrix(3.779528,0,0,3.779528,0,0)"/>
<path style="fill:none;stroke-width:2;stroke-linecap:butt;stroke-linejoin:miter;stroke:rgb(0%,0%,0%);stroke-opacity:1;stroke-miterlimit:4;" d="M 446.499878 381 L 460.500057 381 L 476.500114 397.000057 L 466.499691 415.50022 L 454.999618 431.000049 L 438.999561 447.000106 L 461.000285 422.999504 L 456.999495 418.999748 L 443.00035 434.999805 L 423.499731 450.999862 L 397.500285 466.999919 L 359.499504 482.499748 " transform="matrix(3.779528,0,0,3.779528,0,0)"/>
<path style="fill:none;stroke-width:2;stroke-linecap:butt;stroke-linejoin:miter;stroke:rgb(0%,0%,0%);stroke-opacity:1;stroke-miterlimit:4;" d="M 345.500358 394.499951 L 329.000073 398.000513 L 313.000016 397.500285 L 296.999959 389.49974 " transform="matrix(3.779528,0,0,3.779528,0,0)"/>
<path style="fill:none;stroke-width:2;stroke-linecap:butt;stroke-linejoin:miter;stroke:rgb(0%,0%,0%);stroke-opacity:1;stroke-miterlimit:4;" d="M 295.500309 386.000212 L 311.500366 388.00009 L 329.999495 388.00009 " transform="matrix(3.779528,0,0,3.779528,0,0)"/>
<path style="fill:none;stroke-width:2;stroke-linecap:butt;stroke-linejoin:miter;stroke:rgb(0%,0%,0%);stroke-opacity:1;stroke-miterlimit:4;" d="M 311.999561 330.499723 L 327.999618 308.500033 L 344.499902 304.500277 L 358.500081 291.000326 L 374.500138 277.000146 L 390.500195 257.000334 " transform="matrix(3.779528,0,0,3.779528,0,0)"/>
<path style="fill:none;stroke-width:2;stroke-linecap:butt;stroke-linejoin:miter;stroke:rgb(0%,0%,0%);stroke-opacity:1;stroke-miterlimit:4;" d="M 404.500374 240.500049 L 388.999512 275.000269 L 373.000488 293.000203 L 368.999699 307.000382 " transform="matrix(3.779528,0,0,3.779528,0,0)"/>
<path style="fill:none;stroke-width:2;stroke-linecap:butt;stroke-linejoin:miter;stroke:rgb(0%,0%,0%);stroke-opacity:1;stroke-miterlimit:4;" d="M 359.000309 320.500334 L 359.000309 336.500391 L 361.000187 354.000098 " transform="matrix(3.779528,0,0,3.779528,0,0)"/>
<path style="fill:none;stroke-width:2;stroke-linecap:butt;stroke-linejoin:miter;stroke:rgb(0%,0%,0%);stroke-opacity:1;stroke-miterlimit:4;" d="M 356.500203 273.499585 L 340.500146 261.999512 L 324.50009 259.999634 " transform="matrix(3.779528,0,0,3.779528,0,0)"/>
<path style="fill:none;stroke-width:2;stroke-linecap:butt;stroke-linejoin:miter;stroke:rgb(0%,0%,0%);stroke-opacity:1;stroke-miterlimit:4;" d="M 331.500179 250.000244 L 315.500122 250.999666 L 299.500065 252.999544 " transform="matrix(3.779528,0,0,3.779528,0,0)"/>
<path style="fill:none;stroke-width:2;stroke-linecap:butt;stroke-linejoin:miter;stroke:rgb(0%,0%,0%);stroke-opacity:1;stroke-miterlimit:4;" d="M 291.999748 243.500382 L 307.999805 245.50026 L 323.999862 243.500382 L 339.999919 243.500382 L 338.000041 248.000366 L 359.999731 275.999691 " transform="matrix(3.779528,0,0,3.779528,0,0)"/>
<path style="fill:none;stroke-width:2;stroke-linecap:butt;stroke-linejoin:miter;stroke:rgb(0%,0%,0%);stroke-opacity:1;stroke-miterlimit:4;" d="M 401.500041 276.499919 L 377.500472 292.499976 L 385.499984 292.499976 L 401.500041 276.499919 " transform="matrix(3.779528,0,0,3.779528,0,0)"/>
<path style="fill:none;stroke-width:2;stroke-linecap:butt;stroke-linejoin:miter;stroke:rgb(0%,0%,0%);stroke-opacity:1;stroke-miterlimit:4;" d="M 406.000024 236.000065 L 399.500163 252.000122 L 389.999967 270.500285 L 389.999967 280.499674 L 380.499772 295.999504 L 354.500326 307.499577 L 354.99952 323.999862 L 357.000431 339.999919 L 357.000431 355.999976 L 354.99952 372.000033 L 352.999642 391.999845 " transform="matrix(3.779528,0,0,3.779528,0,0)"/>
<path style="fill:none;stroke-width:2;stroke-linecap:butt;stroke-linejoin:miter;stroke:rgb(0%,0%,0%);stroke-opacity:1;stroke-miterlimit:4;" d="M 254 271.000513 L 237.999943 255.49965 L 223.999764 227.500326 " transform="matrix(3.779528,0,0,3.779528,0,0)"/>
<path style="fill:none;stroke-width:2;stroke-linecap:butt;stroke-linejoin:miter;stroke:rgb(0%,0%,0%);stroke-opacity:1;stroke-miterlimit:4;" d="M 218.999552 225.500448 L 234.999609 259.500439 L 250.999666 279.500252 L 266.499495 295.500309 L 282.000358 307.000382 " transform="matrix(3.779528,0,0,3.779528,0,0)"/>
<path style="fill:none;stroke-width:2;stroke-linecap:butt;stroke-linejoin:miter;stroke:rgb(0%,0%,0%);stroke-opacity:1;stroke-miterlimit:4;" d="M 292.499976 232.499504 L 308.500033 224.499992 L 324.50009 212.000496 L 328.499845 221.999886 L 344.499902 230.000431 " transform="matrix(3.779528,0,0,3.779528,0,0)"/>
<path style="fill:none;stroke-width:2;stroke-linecap:butt;stroke-linejoin:miter;stroke:rgb(0%,0%,0%);stroke-opacity:1;stroke-miterlimit:4;" d="M 338.000041 198.499512 L 321.999984 205.999829 " transform="matrix(3.779528,0,0,3.779528,0,0)"/>
<path style="fill:none;stroke-width:2;stroke-linecap:butt;stroke-linejoin:miter;stroke:rgb(0%,0%,0%);stroke-opacity:1;stroke-miterlimit:4;" d="M 325.499512 227.99952 L 309.500488 227.99952 " transform="matrix(3.779528,0,0,3.779528,0,0)"/>
<path style="fill:none;stroke-width:2;stroke-linecap:butt;stroke-linejoin:miter;stroke:rgb(0%,0%,0%);stroke-opacity:1;stroke-miterlimit:4;" d="M 343.999674 174.499943 L 332.000407 186.500244 L 325.99974 186.000016 L 309.999683 185.499788 L 300.000293 183.49991 L 291.999748 197.50009 L 293.999626 181.500033 L 303.499821 177.500277 L 307.499577 161.50022 L 318.000228 145.500163 L 322.500212 128.999878 L 336.500391 110.999943 L 323.000439 96.499536 L 307.000382 98.500448 " transform="matrix(3.779528,0,0,3.779528,0,0)"/>
<path style="fill:none;stroke-width:2;stroke-linecap:butt;stroke-linejoin:miter;stroke:rgb(0%,0%,0%);stroke-opacity:1;stroke-miterlimit:4;" d="M 281.50013 119.99991 L 265.500073 112.000399 " transform="matrix(3.779528,0,0,3.779528,0,0)"/>
<path style="fill:none;stroke-width:2;stroke-linecap:butt;stroke-linejoin:miter;stroke:rgb(0%,0%,0%);stroke-opacity:1;stroke-miterlimit:4;" d="M 263.500195 107.999609 L 279.000024 112.000399 " transform="matrix(3.779528,0,0,3.779528,0,0)"/>
<path style="fill:none;stroke-width:2;stroke-linecap:butt;stroke-linejoin:miter;stroke:rgb(0%,0%,0%);stroke-opacity:1;stroke-miterlimit:4;" d="M 284.000236 115.499927 L 268.000179 99.49987 " transform="matrix(3.779528,0,0,3.779528,0,0)"/>
<path style="fill:none;stroke-width:2;stroke-linecap:butt;stroke-linejoin:miter;stroke:rgb(0%,0%,0%);stroke-opacity:1;stroke-miterlimit:4;" d="M 271.999935 82.999585 L 293.999626 105.499504 L 291.999748 115.499927 L 304.000049 129.500106 L 300.000293 145.500163 L 286.000114 149.499919 " transform="matrix(3.779528,0,0,3.779528,0,0)"/>
<path style="fill:none;stroke-width:2;stroke-linecap:butt;stroke-linejoin:miter;stroke:rgb(0%,0%,0%);stroke-opacity:1;stroke-miterlimit:4;" d="M 259.500439 150.999569 L 243.500382 143.000057 L 227.500326 137.000423 " transform="matrix(3.779528,0,0,3.779528,0,0)"/>
<path style="fill:none;stroke-width:2;stroke-linecap:butt;stroke-linejoin:miter;stroke:rgb(0%,0%,0%);stroke-opacity:1;stroke-miterlimit:4;" d="M 233.499959 137.999845 L 235.499837 142.499829 L 243.500382 144.999935 " transform="matrix(3.779528,0,0,3.779528,0,0)"/>
<path style="fill:none;stroke-width:2;stroke-linecap:butt;stroke-linejoin:miter;stroke:rgb(0%,0%,0%);stroke-opacity:1;stroke-miterlimit:4;" d="M 248.000366 153.999902 L 232.000309 146.499585 " transform="matrix(3.779528,0,0,3.779528,0,0)"/>
<path style="fill:none;stroke-width:2;stroke-linecap:butt;stroke-linejoin:miter;stroke:rgb(0%,0%,0%);stroke-opacity:1;stroke-miterlimit:4;" d="M 227.500326 117.499805 L 237.499715 105.499504 L 227.500326 121.499561 L 235.499837 125.999544 L 225.00022 134.500317 L 232.999731 150.500374 L 248.999788 160.999992 L 265.500073 162.99987 L 281.50013 153.00048 L 298.000415 140.499951 " transform="matrix(3.779528,0,0,3.779528,0,0)"/>
<path style="fill:none;stroke-width:2;stroke-linecap:butt;stroke-linejoin:miter;stroke:rgb(0%,0%,0%);stroke-opacity:1;stroke-miterlimit:4;" d="M 316.999772 160.499764 L 316.999772 176.499821 L 336.999585 189.999772 L 323.000439 205.999829 L 304.500277 225.999642 L 296.499731 239.499593 L 312.499788 239.499593 L 328.499845 239.999821 L 344.499902 239.999821 " transform="matrix(3.779528,0,0,3.779528,0,0)"/>
<path style="fill:none;stroke-width:2;stroke-linecap:butt;stroke-linejoin:miter;stroke:rgb(0%,0%,0%);stroke-opacity:1;stroke-miterlimit:4;" d="M 423.499731 190.5 L 425.000415 166.500431 L 425.000415 150.500374 L 414.999992 144.499707 " transform="matrix(3.779528,0,0,3.779528,0,0)"/>
<path style="fill:none;stroke-width:2;stroke-linecap:butt;stroke-linejoin:miter;stroke:rgb(0%,0%,0%);stroke-opacity:1;stroke-miterlimit:4;" d="M 411.000236 148.999691 L 412.499886 164.999748 L 413.000114 180.999805 L 410.500008 196.999862 " transform="matrix(3.779528,0,0,3.779528,0,0)"/>
<path style="fill:none;stroke-width:2;stroke-linecap:butt;stroke-linejoin:miter;stroke:rgb(0%,0%,0%);stroke-opacity:1;stroke-miterlimit:4;" d="M 377.500472 150.999569 L 387.499862 135.49974 L 393.499495 119.499683 L 393.499495 127.500228 L 377.999666 147.500041 L 361.999609 148.000269 L 358.500081 134.00009 L 352.999642 130.499528 L 357.000431 114.500505 L 347.500236 130.499528 " transform="matrix(3.779528,0,0,3.779528,0,0)"/>
<path style="fill:none;stroke-width:2;stroke-linecap:butt;stroke-linejoin:miter;stroke:rgb(0%,0%,0%);stroke-opacity:1;stroke-miterlimit:4;" d="M 382.49965 112.999821 L 378.499894 128.49965 L 380.499772 134.500317 L 378.499894 116.500382 L 384.499528 112.499593 " transform="matrix(3.779528,0,0,3.779528,0,0)"/>
<path style="fill:none;stroke-width:2;stroke-linecap:butt;stroke-linejoin:miter;stroke:rgb(0%,0%,0%);stroke-opacity:1;stroke-miterlimit:4;" d="M 385.499984 109.500293 L 397.500285 111.500171 L 401.500041 127.500228 L 397.500285 143.000057 L 377.500472 159.000114 " transform="matrix(3.779528,0,0,3.779528,0,0)"/>
<path style="fill:none;stroke-width:2;stroke-linecap:butt;stroke-linejoin:miter;stroke:rgb(0%,0%,0%);stroke-opacity:1;stroke-miterlimit:4;" d="M 401.500041 116.500382 L 385.499984 100.500326 L 369.499927 98.500448 L 353.49987 107.000187 L 338.000041 127 L 320.500334 119.000488 L 304.500277 114.500505 L 288.50022 100.000098 L 282.000358 105.999731 L 266.000301 97.499992 L 250.000244 99.49987 L 234.500415 103.000431 " transform="matrix(3.779528,0,0,3.779528,0,0)"/>
<path style="fill:none;stroke-width:2;stroke-linecap:butt;stroke-linejoin:miter;stroke:rgb(0%,0%,0%);stroke-opacity:1;stroke-miterlimit:4;" d="M 228.999976 105.499504 L 221.000464 132.000212 L 211.000041 116.000155 " transform="matrix(3.779528,0,0,3.779528,0,0)"/>
<path style="fill:none;stroke-width:2;stroke-linecap:butt;stroke-linejoin:miter;stroke:rgb(0%,0%,0%);stroke-opacity:1;stroke-miterlimit:4;" d="M 196.999862 141.500407 L 198.99974 155.499552 L 198.499512 171.999837 L 194.499756 187.999894 L 198.499512 203.999951 L 216.50048 221.999886 L 221.999886 237.999943 L 227.99952 254.500228 L 234.000187 270.500285 L 227.99952 284.999658 L 255.999878 307.000382 L 255.999878 323.000439 L 254.500228 339.000496 L 252.50035 354.500326 L 239.000399 364.499715 " transform="matrix(3.779528,0,0,3.779528,0,0)"/>
<path style="fill:none;stroke-width:2;stroke-linecap:butt;stroke-linejoin:miter;stroke:rgb(0%,0%,0%);stroke-opacity:1;stroke-miterlimit:4;" d="M 264.999845 378.499894 L 248.999788 372.50026 L 232.999731 372.50026 L 216.999674 375.999788 L 200.999618 379.50035 L 184.999561 381.500228 L 168.999504 384.000334 " transform="matrix(3.779528,0,0,3.779528,0,0)"/>
<path style="fill:none;stroke-width:2;stroke-linecap:butt;stroke-linejoin:miter;stroke:rgb(0%,0%,0%);stroke-opacity:1;stroke-miterlimit:4;" d="M 182.500488 390.500195 L 160.499764 392.500073 L 172.500065 408.50013 L 174.499943 424.500187 L 172.500065 440.500244 L 168.500309 456.500301 L 155.000358 468.499569 L 158.499886 484.000431 L 164.49952 500.000488 " transform="matrix(3.779528,0,0,3.779528,0,0)"/>
<path style="fill:none;stroke-width:2;stroke-linecap:butt;stroke-linejoin:miter;stroke:rgb(0%,0%,0%);stroke-opacity:1;stroke-miterlimit:4;" d="M 162.99987 412.499886 L 146.999813 402.500496 L 130.499528 394.499951 " transform="matrix(3.779528,0,0,3.779528,0,0)"/>
<path style="fill:none;stroke-width:2;stroke-linecap:butt;stroke-linejoin:miter;stroke:rgb(0%,0%,0%);stroke-opacity:1;stroke-miterlimit:4;" d="M 136.500195 391.499618 L 150.000146 407.499674 " transform="matrix(3.779528,0,0,3.779528,0,0)"/>
<path style="fill:none;stroke-width:2;stroke-linecap:butt;stroke-linejoin:miter;stroke:rgb(0%,0%,0%);stroke-opacity:1;stroke-miterlimit:4;" d="M 144.999935 388.500317 L 160.999992 400.499585 L 173.000293 402.500496 L 191.000228 398.000513 L 207.000285 388.00009 L 223.000342 381.500228 L 239.000399 382.000456 L 255.000456 382.000456 " transform="matrix(3.779528,0,0,3.779528,0,0)"/>
<path style="fill:none;stroke-width:2;stroke-linecap:butt;stroke-linejoin:miter;stroke:rgb(0%,0%,0%);stroke-opacity:1;stroke-miterlimit:4;" d="M 191.99965 397.000057 L 198.000317 413.000114 L 195.500212 431.000049 L 195.500212 447.000106 L 237.499715 459.000407 L 271.499707 475.000464 L 300.999715 490.500293 " transform="matrix(3.779528,0,0,3.779528,0,0)"/>
<path style="fill:none;stroke-width:2;stroke-linecap:butt;stroke-linejoin:miter;stroke:rgb(0%,0%,0%);stroke-opacity:1;stroke-miterlimit:4;" d="M 178.000505 502.000366 L 171.999837 485.500081 L 164.000326 486.000309 L 171.999837 477.999764 L 172.500065 462.499935 L 192.499878 444.5 L 184.500366 440.500244 L 194.499756 424.500187 L 194.499756 408.50013 L 186.500244 392.500073 " transform="matrix(3.779528,0,0,3.779528,0,0)"/>
<path style="fill:none;stroke-width:2;stroke-linecap:butt;stroke-linejoin:miter;stroke:rgb(0%,0%,0%);stroke-opacity:1;stroke-miterlimit:4;" d="M 161.50022 405.499797 L 147.500041 389.49974 L 121.499561 382.000456 L 105.999731 382.000456 L 89.999674 388.00009 L 73.999618 393.499495 L 57.999561 403.499919 L 42.499731 417.500098 L 26.499674 441.000472 " transform="matrix(3.779528,0,0,3.779528,0,0)"/>
<path style="fill:none;stroke-width:2;stroke-linecap:butt;stroke-linejoin:miter;stroke:rgb(0%,0%,0%);stroke-opacity:1;stroke-miterlimit:4;" d="M 14.999601 483.500203 L 19.000391 467.500146 L 23.000146 452.000317 L 28.99978 436.00026 L 41.000081 420.500431 L 57.000138 404.500374 L 82.500391 388.500317 " transform="matrix(3.779528,0,0,3.779528,0,0)"/>
<path style="fill:none;stroke-width:2;stroke-linecap:butt;stroke-linejoin:miter;stroke:rgb(0%,0%,0%);stroke-opacity:1;stroke-miterlimit:4;" d="M 97.499992 390.500195 L 63.5 406.500252 L 44.999837 422.500309 L 35.000448 438.500366 L 28.499552 454.000195 L 24.499797 470.000252 L 20.500041 485.500081 L 19.000391 501.500138 L 26.999902 507.499772 L 53.499577 506.999544 L 69.499634 497.000155 L 85.499691 500.99991 L 107.500415 499.000033 L 123.500472 465.500269 " transform="matrix(3.779528,0,0,3.779528,0,0)"/>
<path style="fill:none;stroke-width:2;stroke-linecap:butt;stroke-linejoin:miter;stroke:rgb(0%,0%,0%);stroke-opacity:1;stroke-miterlimit:4;" d="M 152.000024 422.000081 L 141.999601 406.000024 L 123.999666 389.999967 " transform="matrix(3.779528,0,0,3.779528,0,0)"/>
<path style="fill:none;stroke-width:2;stroke-linecap:butt;stroke-linejoin:miter;stroke:rgb(0%,0%,0%);stroke-opacity:1;stroke-miterlimit:4;" d="M 253.499772 259.999634 L 237.999943 225.999642 " transform="matrix(3.779528,0,0,3.779528,0,0)"/>
<path style="fill:none;stroke-width:2;stroke-linecap:butt;stroke-linejoin:miter;stroke:rgb(0%,0%,0%);stroke-opacity:1;stroke-miterlimit:4;" d="M 205.000407 204.500179 L 207.000285 216.000252 L 223.000342 252.000122 L 225.00022 277.500374 L 240.500049 289.499642 L 248.000366 287.499764 " transform="matrix(3.779528,0,0,3.779528,0,0)"/>
<path style="fill:none;stroke-width:2;stroke-linecap:butt;stroke-linejoin:miter;stroke:rgb(0%,0%,0%);stroke-opacity:1;stroke-miterlimit:4;" d="M 254 273.499585 L 237.999943 257.499528 L 230.499626 243.999577 L 224.499992 227.500326 L 212.999919 203.499723 L 211.500269 187.999894 L 205.999829 171.999837 L 202.000073 162.000448 " transform="matrix(3.779528,0,0,3.779528,0,0)"/>
<path style="fill:none;stroke-width:2;stroke-linecap:butt;stroke-linejoin:miter;stroke:rgb(0%,0%,0%);stroke-opacity:1;stroke-miterlimit:4;" d="M 209.500391 82.000163 L 211.500269 64.000228 L 227.500326 48.000171 L 243.000155 35.99987 L 258.499984 29.500008 L 273.999813 26.00048 L 289.499642 23.999569 L 305.499699 22.499919 L 323.000439 30.999658 L 338.500269 32.999536 L 354.500326 39.000203 L 370.500382 46.499487 L 386.999634 56.49991 L 403.499919 74.499845 " transform="matrix(3.779528,0,0,3.779528,0,0)"/>
<path style="fill:none;stroke-width:2;stroke-linecap:butt;stroke-linejoin:miter;stroke:rgb(0%,0%,0%);stroke-opacity:1;stroke-miterlimit:4;" d="M 411.000236 71.499512 L 395.000179 53.499577 L 379.000122 41.999504 L 363.000065 33.499764 L 347.000008 27.50013 L 330.999951 23.000146 L 314.999894 26.999902 L 298.499609 26.999902 L 282.99978 28.99978 L 266.999723 32.999536 L 250.999666 37.000326 L 234.999609 47.499943 L 218.999552 62.00035 " transform="matrix(3.779528,0,0,3.779528,0,0)"/>
<path style="fill:none;stroke-width:2;stroke-linecap:butt;stroke-linejoin:miter;stroke:rgb(0%,0%,0%);stroke-opacity:1;stroke-miterlimit:4;" d="M 231.500081 67.999984 L 235.499837 62.00035 L 229.500203 78.499601 L 225.500448 94.499658 L 230.000431 105.000309 L 220.000008 121.000366 L 207.999707 137.499618 L 209.999585 153.499674 L 225.999642 160.999992 L 239.999821 166.999626 L 255.999878 168.500309 L 271.999935 166.999626 L 295.500309 150.999569 L 311.500366 125.000122 L 327.999618 122.500016 L 350.000342 152.000024 L 365.500171 159.999536 L 381 157.999658 L 397.000057 139.999723 L 405.499797 157.999658 L 405.499797 189.999772 L 403.499919 206.500057 " transform="matrix(3.779528,0,0,3.779528,0,0)"/>
<path style="fill:none;stroke-width:2;stroke-linecap:butt;stroke-linejoin:miter;stroke:rgb(0%,0%,0%);stroke-opacity:1;stroke-miterlimit:4;" d="M 366.000399 153.999902 L 341.999797 148.000269 L 337.499813 131.499984 L 343.50048 115.499927 L 363.500293 100.000098 L 386.000212 100.500326 " transform="matrix(3.779528,0,0,3.779528,0,0)"/>
<path style="fill:none;stroke-width:2;stroke-linecap:butt;stroke-linejoin:miter;stroke:rgb(0%,0%,0%);stroke-opacity:1;stroke-miterlimit:4;" d="M 382.000456 104.500081 L 359.999731 112.000399 L 350.000342 91.999552 L 334.000285 91.500358 L 318.000228 89.50048 L 302.000171 91.999552 L 285.499886 87.499569 L 269.499829 81.499935 L 253.499772 79.500057 L 241.999699 75.500301 L 243.999577 59.500244 " transform="matrix(3.779528,0,0,3.779528,0,0)"/>
<path style="fill:none;stroke-width:2;stroke-linecap:butt;stroke-linejoin:miter;stroke:rgb(0%,0%,0%);stroke-opacity:1;stroke-miterlimit:4;" d="M 261.500317 32.999536 L 231.500081 48.999593 L 215.500024 64.99965 L 207.500513 81.499935 L 207.999707 98.00022 L 207.999707 114.500505 L 216.000252 130.499528 L 214.000374 146.499585 L 214.000374 162.499642 L 210.499813 178.499699 L 216.999674 178.499699 L 228.999976 186.500244 L 232.499504 202.500301 L 236.500293 218.500358 L 240.500049 234.500415 L 246.499683 250.500472 L 252.50035 266.000301 " transform="matrix(3.779528,0,0,3.779528,0,0)"/>
<path style="fill:none;stroke-width:2;stroke-linecap:butt;stroke-linejoin:miter;stroke:rgb(0%,0%,0%);stroke-opacity:1;stroke-miterlimit:4;" d="M 388.500317 146.000391 L 407.999902 129.500106 L 407.999902 113.500049 L 407.499674 97.499992 L 407.499674 81.499935 L 395.000179 65.499878 L 377.500472 50.000049 L 341.000374 33.999992 " transform="matrix(3.779528,0,0,3.779528,0,0)"/>
<path style="fill:none;stroke-width:2;stroke-linecap:butt;stroke-linejoin:miter;stroke:rgb(0%,0%,0%);stroke-opacity:1;stroke-miterlimit:4;" d="M 354.99952 31.499886 L 384.999756 47.499943 L 403.499919 63.5 L 411.500464 79.500057 L 413.999536 94.999886 L 413.999536 111.500171 L 418.000326 127.500228 L 411.999658 130.000334 L 413.999536 146.000391 L 418.000326 162.499642 L 418.000326 178.499699 L 416.000448 194.999984 L 405.499797 211.000041 L 403.499919 226.49987 L 397.500285 242.499927 L 389.49974 257.999756 L 377.999666 273.999813 L 359.499504 289.99987 L 327.999618 309.999683 L 321.999984 325.99974 L 321.999984 339.999919 " transform="matrix(3.779528,0,0,3.779528,0,0)"/>
</g>
</svg>
