<?xml version="1.0" encoding="UTF-8"?>
<svg xmlns="http://www.w3.org/2000/svg" xmlns:xlink="http://www.w3.org/1999/xlink" width="1935.11811" height="1935.11811" viewBox="0 0 1935.11811 1935.11811" version="1.1">
<g id="surface1">
<path style="fill:none;stroke-width:2;stroke-linecap:butt;stroke-linejoin:miter;stroke:rgb(0%,0%,0%);stroke-opacity:1;stroke-miterlimit:4;" d="M 201.499845 30.500464 L 197.50009 46.499487 L 207.500513 62.499544 L 195.500212 76.499723 L 157.500464 93.000008 L 129.500106 109.000065 L 111.500171 125.000122 L 99.49987 141.000179 L 87.000374 159.000114 L 78.999829 174.499943 L 74.499845 164.49952 L 91.00013 140.499951 L 107.000187 120.500138 L 123.000244 106.499959 L 139.499495 96.000342 L 155.499552 87.499569 L 171.499609 78.999829 L 187.499666 73.000195 L 203.499723 66.999528 " transform="matrix(3.779528,0,0,3.779528,0,0)"/>
<path style="fill:none;stroke-width:2;stroke-linecap:butt;stroke-linejoin:miter;stroke:rgb(0%,0%,0%);stroke-opacity:1;stroke-miterlimit:4;" d="M 218.999552 66.500334 L 202.999495 40.499854 " transform="matrix(3.779528,0,0,3.779528,0,0)"/>
<path style="fill:none;stroke-width:2;stroke-linecap:butt;stroke-linejoin:miter;stroke:rgb(0%,0%,0%);stroke-opacity:1;stroke-miterlimit:4;" d="M 202.999495 35.99987 L 215.500024 51.999927 L 225.00022 67.499756 " transform="matrix(3.779528,0,0,3.779528,0,0)"/>
<path style="fill:none;stroke-width:2;stroke-linecap:butt;stroke-linejoin:miter;stroke:rgb(0%,0%,0%);stroke-opacity:1;stroke-miterlimit:4;" d="M 230.999854 42.499731 L 221.000464 56.49991 L 205.000407 34.50022 " transform="matrix(3.779528,0,0,3.779528,0,0)"/>
<path style="fill:none;stroke-width:2;stroke-linecap:butt;stroke-linejoin:miter;stroke:rgb(0%,0%,0%);stroke-opacity:1;stroke-miterlimit:4;" d="M 207.000285 31.499886 L 205.000407 47.499943 L 215.500024 63.5 " transform="matrix(3.779528,0,0,3.779528,0,0)"/>
<path style="fill:none;stroke-width:2;stroke-linecap:butt;stroke-linejoin:miter;stroke:rgb(0%,0%,0%);stroke-opacity:1;stroke-miterlimit:4;" d="M 214.999797 69.999862 L 198.99974 75.999495 L 182.999683 82.000163 L 166.999626 87.999797 L 150.500374 96.000342 L 134.999512 105.499504 L 118.50026 117.499805 L 101.999976 135.49974 L 85.999919 159.500342 L 71.99974 169.499731 L 84.500269 153.499674 L 94.000464 137.499618 L 105.999731 121.999788 L 123.999666 105.999731 L 150.000146 89.50048 L 184.000138 73.500423 " transform="matrix(3.779528,0,0,3.779528,0,0)"/>
<path style="fill:none;stroke-width:2;stroke-linecap:butt;stroke-linejoin:miter;stroke:rgb(0%,0%,0%);stroke-opacity:1;stroke-miterlimit:4;" d="M 175.000171 105.000309 L 136.500195 121.000366 L 114.999699 132.999634 L 108.499837 143.000057 L 92.49978 168.500309 L 96.000342 150.500374 L 112.499593 134.500317 L 128.999878 125.999544 L 145.500163 116.000155 L 161.50022 109.500293 L 177.500277 103.999854 L 193.500334 101.999976 L 209.500391 98.00022 L 225.00022 94.000464 L 240.500049 91.500358 L 255.999878 89.999674 L 271.499707 87.999797 L 287.499764 86.500146 L 302.999593 87.000374 L 318.500456 82.999585 L 326.499967 94.999886 L 342.500024 100.500326 L 359.000309 108.499837 L 375.499561 118.50026 L 391.499618 132.500439 L 407.499674 146.499585 " transform="matrix(3.779528,0,0,3.779528,0,0)"/>
<path style="fill:none;stroke-width:2;stroke-linecap:butt;stroke-linejoin:miter;stroke:rgb(0%,0%,0%);stroke-opacity:1;stroke-miterlimit:4;" d="M 360.499959 125.999544 L 341.999797 118.000033 L 325.99974 111.500171 L 309.999683 107.500415 L 294.499854 100.99952 " transform="matrix(3.779528,0,0,3.779528,0,0)"/>
<path style="fill:none;stroke-width:2;stroke-linecap:butt;stroke-linejoin:miter;stroke:rgb(0%,0%,0%);stroke-opacity:1;stroke-miterlimit:4;" d="M 294.499854 98.999642 L 298.499609 114.500505 L 308.500033 130.499528 L 316.499544 146.499585 " transform="matrix(3.779528,0,0,3.779528,0,0)"/>
<path style="fill:none;stroke-width:2;stroke-linecap:butt;stroke-linejoin:miter;stroke:rgb(0%,0%,0%);stroke-opacity:1;stroke-miterlimit:4;" d="M 305.499699 134.999512 L 289.499642 110.999943 " transform="matrix(3.779528,0,0,3.779528,0,0)"/>
<path style="fill:none;stroke-width:2;stroke-linecap:butt;stroke-linejoin:miter;stroke:rgb(0%,0%,0%);stroke-opacity:1;stroke-miterlimit:4;" d="M 277.000146 106.499959 L 296.999959 122.500016 L 307.000382 137.999845 " transform="matrix(3.779528,0,0,3.779528,0,0)"/>
<path style="fill:none;stroke-width:2;stroke-linecap:butt;stroke-linejoin:miter;stroke:rgb(0%,0%,0%);stroke-opacity:1;stroke-miterlimit:4;" d="M 300.499487 153.499674 L 284.500464 157.500464 L 268.500407 161.50022 L 246.000488 173.499487 L 229.500203 175.999593 L 213.500146 180.000382 L 195.500212 180.000382 L 179.500155 189.999772 L 169.999959 189.499544 L 173.999715 173.499487 L 186.000016 153.499674 L 186.000016 147.500041 L 196.000439 131.499984 L 203.999951 115.499927 L 214.000374 115.499927 L 193.500334 133.499862 L 177.500277 157.500464 " transform="matrix(3.779528,0,0,3.779528,0,0)"/>
<path style="fill:none;stroke-width:2;stroke-linecap:butt;stroke-linejoin:miter;stroke:rgb(0%,0%,0%);stroke-opacity:1;stroke-miterlimit:4;" d="M 174.499943 168.500309 L 178.999927 144.499707 L 194.999984 116.999577 L 205.000407 107.500415 L 191.000228 123.500472 L 180.999805 139.499495 L 175.000171 155.499552 L 171.000415 171.499609 L 164.49952 187.000472 L 156.500008 196.999862 L 173.000293 202.500301 L 189.00035 188.500122 L 204.500179 182.999683 L 220.500236 173.000293 L 236.000065 169.499731 L 259.500439 169.499731 L 275.500496 165.499976 L 291.999748 161.50022 L 307.999805 159.500342 L 323.999862 167.499854 " transform="matrix(3.779528,0,0,3.779528,0,0)"/>
<path style="fill:none;stroke-width:2;stroke-linecap:butt;stroke-linejoin:miter;stroke:rgb(0%,0%,0%);stroke-opacity:1;stroke-miterlimit:4;" d="M 298.999837 189.499544 L 282.99978 185.499788 L 266.999723 199.499967 " transform="matrix(3.779528,0,0,3.779528,0,0)"/>
<path style="fill:none;stroke-width:2;stroke-linecap:butt;stroke-linejoin:miter;stroke:rgb(0%,0%,0%);stroke-opacity:1;stroke-miterlimit:4;" d="M 283.500008 191.500456 L 273.499585 189.499544 L 265.500073 205.499601 L 267.499951 221.999886 L 273.000391 232.499504 L 277.000146 234.500415 " transform="matrix(3.779528,0,0,3.779528,0,0)"/>
<path style="fill:none;stroke-width:2;stroke-linecap:butt;stroke-linejoin:miter;stroke:rgb(0%,0%,0%);stroke-opacity:1;stroke-miterlimit:4;" d="M 290.500098 254.500228 L 296.499731 270.500285 L 302.500399 286.500342 L 306.500155 302.500399 L 312.499788 320.500334 L 302.500399 328.499845 L 302.000171 339.999919 L 305.999927 355.999976 L 305.999927 371.499805 L 304.000049 388.00009 L 300.000293 404.000146 L 293.500431 420.000203 L 286.999536 435.500033 L 298.999837 451.50009 L 289.000448 467.500146 L 296.999959 461.999707 L 305.000505 470.000252 L 320.999528 468.000374 L 337.499813 470.000252 L 353.49987 468.000374 L 369.499927 470.000252 L 385.499984 468.000374 L 417.500098 468.000374 L 433.500155 467.500146 L 450.000439 466.999919 L 466.000496 467.500146 L 482.499748 467.500146 L 498.499805 469.500024 " transform="matrix(3.779528,0,0,3.779528,0,0)"/>
<path style="fill:none;stroke-width:2;stroke-linecap:butt;stroke-linejoin:miter;stroke:rgb(0%,0%,0%);stroke-opacity:1;stroke-miterlimit:4;" d="M 388.500317 496.499927 L 372.50026 500.499683 " transform="matrix(3.779528,0,0,3.779528,0,0)"/>
<path style="fill:none;stroke-width:2;stroke-linecap:butt;stroke-linejoin:miter;stroke:rgb(0%,0%,0%);stroke-opacity:1;stroke-miterlimit:4;" d="M 369.499927 497.999577 L 385.499984 491.999943 " transform="matrix(3.779528,0,0,3.779528,0,0)"/>
<path style="fill:none;stroke-width:2;stroke-linecap:butt;stroke-linejoin:miter;stroke:rgb(0%,0%,0%);stroke-opacity:1;stroke-miterlimit:4;" d="M 348.999886 473.49978 L 332.999829 474.000008 L 317.5 472.00013 " transform="matrix(3.779528,0,0,3.779528,0,0)"/>
<path style="fill:none;stroke-width:2;stroke-linecap:butt;stroke-linejoin:miter;stroke:rgb(0%,0%,0%);stroke-opacity:1;stroke-miterlimit:4;" d="M 318.000228 472.999552 L 320.000106 488.999609 L 305.499699 500.99991 " transform="matrix(3.779528,0,0,3.779528,0,0)"/>
<path style="fill:none;stroke-width:2;stroke-linecap:butt;stroke-linejoin:miter;stroke:rgb(0%,0%,0%);stroke-opacity:1;stroke-miterlimit:4;" d="M 318.500456 493.499593 L 302.999593 495.500505 L 286.999536 479.999642 L 262.999967 472.00013 L 246.99991 474.500236 " transform="matrix(3.779528,0,0,3.779528,0,0)"/>
<path style="fill:none;stroke-width:2;stroke-linecap:butt;stroke-linejoin:miter;stroke:rgb(0%,0%,0%);stroke-opacity:1;stroke-miterlimit:4;" d="M 259.999634 454.000195 L 243.999577 440.000016 " transform="matrix(3.779528,0,0,3.779528,0,0)"/>
<path style="fill:none;stroke-width:2;stroke-linecap:butt;stroke-linejoin:miter;stroke:rgb(0%,0%,0%);stroke-opacity:1;stroke-miterlimit:4;" d="M 241.000277 435.500033 L 257.000334 411.500464 L 278.499797 395.999601 L 272.500163 407.999902 L 270.500285 409.99978 " transform="matrix(3.779528,0,0,3.779528,0,0)"/>
<path style="fill:none;stroke-width:2;stroke-linecap:butt;stroke-linejoin:miter;stroke:rgb(0%,0%,0%);stroke-opacity:1;stroke-miterlimit:4;" d="M 301.499943 336.000163 L 317.5 330.499723 " transform="matrix(3.779528,0,0,3.779528,0,0)"/>
<path style="fill:none;stroke-width:2;stroke-linecap:butt;stroke-linejoin:miter;stroke:rgb(0%,0%,0%);stroke-opacity:1;stroke-miterlimit:4;" d="M 314.000472 304.000049 L 291.999748 264.499618 " transform="matrix(3.779528,0,0,3.779528,0,0)"/>
<path style="fill:none;stroke-width:2;stroke-linecap:butt;stroke-linejoin:miter;stroke:rgb(0%,0%,0%);stroke-opacity:1;stroke-miterlimit:4;" d="M 282.000358 261.500317 L 302.000171 269.499829 L 307.999805 284.999658 L 311.999561 300.999715 L 298.000415 316.999772 L 304.000049 327.000195 L 298.000415 313.000016 " transform="matrix(3.779528,0,0,3.779528,0,0)"/>
<path style="fill:none;stroke-width:2;stroke-linecap:butt;stroke-linejoin:miter;stroke:rgb(0%,0%,0%);stroke-opacity:1;stroke-miterlimit:4;" d="M 301.499943 286.000114 L 291.49952 254 " transform="matrix(3.779528,0,0,3.779528,0,0)"/>
<path style="fill:none;stroke-width:2;stroke-linecap:butt;stroke-linejoin:miter;stroke:rgb(0%,0%,0%);stroke-opacity:1;stroke-miterlimit:4;" d="M 288.50022 198.499512 L 284.999658 192.499878 " transform="matrix(3.779528,0,0,3.779528,0,0)"/>
<path style="fill:none;stroke-width:2;stroke-linecap:butt;stroke-linejoin:miter;stroke:rgb(0%,0%,0%);stroke-opacity:1;stroke-miterlimit:4;" d="M 288.50022 188.500122 L 308.500033 202.500301 L 308.500033 218.500358 L 298.499609 234.500415 L 290.500098 250.500472 L 286.500342 266.499495 L 291.000326 282.499552 L 266.499495 291.999748 L 258.499984 307.999805 L 260.499862 291.49952 " transform="matrix(3.779528,0,0,3.779528,0,0)"/>
<path style="fill:none;stroke-width:2;stroke-linecap:butt;stroke-linejoin:miter;stroke:rgb(0%,0%,0%);stroke-opacity:1;stroke-miterlimit:4;" d="M 264.999845 309.999683 L 280.999902 283.500008 L 293.000203 282.99978 L 277.000146 286.999536 L 268.999601 302.999593 L 264.499618 318.99965 L 273.000391 325.000317 " transform="matrix(3.779528,0,0,3.779528,0,0)"/>
<path style="fill:none;stroke-width:2;stroke-linecap:butt;stroke-linejoin:miter;stroke:rgb(0%,0%,0%);stroke-opacity:1;stroke-miterlimit:4;" d="M 256.500106 339.999919 L 241.000277 329.500301 " transform="matrix(3.779528,0,0,3.779528,0,0)"/>
<path style="fill:none;stroke-width:2;stroke-linecap:butt;stroke-linejoin:miter;stroke:rgb(0%,0%,0%);stroke-opacity:1;stroke-miterlimit:4;" d="M 239.000399 323.999862 L 255.000456 289.499642 L 262.999967 287.499764 L 257.000334 304.000049 L 255.000456 316.499544 " transform="matrix(3.779528,0,0,3.779528,0,0)"/>
<path style="fill:none;stroke-width:2;stroke-linecap:butt;stroke-linejoin:miter;stroke:rgb(0%,0%,0%);stroke-opacity:1;stroke-miterlimit:4;" d="M 159.999536 214.000374 L 150.000146 197.50009 L 134.00009 187.499666 L 117.499805 185.499788 L 100.500326 193.500334 L 84.500269 199.499967 " transform="matrix(3.779528,0,0,3.779528,0,0)"/>
<path style="fill:none;stroke-width:2;stroke-linecap:butt;stroke-linejoin:miter;stroke:rgb(0%,0%,0%);stroke-opacity:1;stroke-miterlimit:4;" d="M 118.000033 157.500464 L 134.500317 145.500163 L 124.499894 145.500163 L 112.499593 162.000448 L 100.500326 178.000505 L 84.500269 200.000195 L 72.499967 200.000195 L 88.500024 173.999715 L 103.999854 167.499854 L 111.500171 153.499674 L 127.500228 132.999634 L 143.500285 121.000366 L 159.500342 114.000277 L 175.500399 110.499715 L 191.500456 106.499959 L 203.499723 114.999699 L 218.00013 104.500081 L 232.000309 106.499959 L 248.000366 96.000342 L 263.500195 94.000464 L 280.00048 91.999552 L 295.999504 94.000464 L 312.499788 97.499992 L 330.499723 107.999609 L 345.00013 112.000399 L 361.000187 119.99991 " transform="matrix(3.779528,0,0,3.779528,0,0)"/>
<path style="fill:none;stroke-width:2;stroke-linecap:butt;stroke-linejoin:miter;stroke:rgb(0%,0%,0%);stroke-opacity:1;stroke-miterlimit:4;" d="M 361.500415 124.499894 L 327.500423 108.499837 " transform="matrix(3.779528,0,0,3.779528,0,0)"/>
<path style="fill:none;stroke-width:2;stroke-linecap:butt;stroke-linejoin:miter;stroke:rgb(0%,0%,0%);stroke-opacity:1;stroke-miterlimit:4;" d="M 343.999674 105.999731 L 371.499805 121.999788 L 379.999544 146.499585 L 384.000334 162.499642 " transform="matrix(3.779528,0,0,3.779528,0,0)"/>
<path style="fill:none;stroke-width:2;stroke-linecap:butt;stroke-linejoin:miter;stroke:rgb(0%,0%,0%);stroke-opacity:1;stroke-miterlimit:4;" d="M 323.499634 87.999797 L 307.999805 89.999674 " transform="matrix(3.779528,0,0,3.779528,0,0)"/>
<path style="fill:none;stroke-width:2;stroke-linecap:butt;stroke-linejoin:miter;stroke:rgb(0%,0%,0%);stroke-opacity:1;stroke-miterlimit:4;" d="M 314.000472 90.499902 L 353.49987 105.999731 L 377.500472 121.499561 L 395.500407 137.499618 L 404.000146 153.999902 L 407.999902 169.999959 " transform="matrix(3.779528,0,0,3.779528,0,0)"/>
<path style="fill:none;stroke-width:2;stroke-linecap:butt;stroke-linejoin:miter;stroke:rgb(0%,0%,0%);stroke-opacity:1;stroke-miterlimit:4;" d="M 412.499886 162.000448 L 406.500252 146.499585 L 392.500073 142.499829 L 376.500016 134.00009 L 360.499959 137.999845 L 344.499902 139.999723 L 327.999618 148.000269 L 312.499788 135.999967 L 296.499731 109.500293 L 280.999902 105.499504 L 264.999845 103.999854 L 248.999788 103.999854 " transform="matrix(3.779528,0,0,3.779528,0,0)"/>
<path style="fill:none;stroke-width:2;stroke-linecap:butt;stroke-linejoin:miter;stroke:rgb(0%,0%,0%);stroke-opacity:1;stroke-miterlimit:4;" d="M 249.500016 100.000098 L 265.500073 98.00022 L 281.50013 100.000098 L 296.999959 98.00022 L 312.499788 101.499748 L 327.999618 101.999976 L 343.50048 105.999731 L 359.499504 114.500505 L 375.000366 127 L 384.499528 150.999569 L 388.500317 166.999626 " transform="matrix(3.779528,0,0,3.779528,0,0)"/>
<path style="fill:none;stroke-width:2;stroke-linecap:butt;stroke-linejoin:miter;stroke:rgb(0%,0%,0%);stroke-opacity:1;stroke-miterlimit:4;" d="M 348.000464 87.999797 L 332.000407 80.000285 L 316.00035 73.999618 L 299.500065 67.999984 L 284.000236 66.000106 L 267.499951 64.000228 L 251.499894 66.500334 L 229.500203 56.49991 L 225.500448 57.000138 L 209.999585 32.999536 L 193.999528 34.50022 " transform="matrix(3.779528,0,0,3.779528,0,0)"/>
<path style="fill:none;stroke-width:2;stroke-linecap:butt;stroke-linejoin:miter;stroke:rgb(0%,0%,0%);stroke-opacity:1;stroke-miterlimit:4;" d="M 209.500391 32.999536 L 219.49978 48.999593 L 237.499715 62.999772 L 253.499772 59.500244 L 270.000057 60.000472 L 286.000114 60.499666 L 302.000171 64.500456 L 334.000285 76.499723 L 350.499536 84.500269 L 366.999821 96.499536 " transform="matrix(3.779528,0,0,3.779528,0,0)"/>
<path style="fill:none;stroke-width:2;stroke-linecap:butt;stroke-linejoin:miter;stroke:rgb(0%,0%,0%);stroke-opacity:1;stroke-miterlimit:4;" d="M 391.499618 144.000513 L 375.000366 141.999601 L 358.500081 141.999601 L 341.999797 148.500496 L 325.499512 158.499886 L 325.499512 164.999748 L 337.499813 148.999691 L 349.500114 139.499495 L 321.499756 113.500049 L 305.499699 97.499992 " transform="matrix(3.779528,0,0,3.779528,0,0)"/>
<path style="fill:none;stroke-width:2;stroke-linecap:butt;stroke-linejoin:miter;stroke:rgb(0%,0%,0%);stroke-opacity:1;stroke-miterlimit:4;" d="M 302.000171 69.000439 L 339.999919 85.499691 " transform="matrix(3.779528,0,0,3.779528,0,0)"/>
<path style="fill:none;stroke-width:2;stroke-linecap:butt;stroke-linejoin:miter;stroke:rgb(0%,0%,0%);stroke-opacity:1;stroke-miterlimit:4;" d="M 363.500293 95.500114 L 339.999919 79.500057 L 302.000171 63.5 " transform="matrix(3.779528,0,0,3.779528,0,0)"/>
<path style="fill:none;stroke-width:2;stroke-linecap:butt;stroke-linejoin:miter;stroke:rgb(0%,0%,0%);stroke-opacity:1;stroke-miterlimit:4;" d="M 246.499683 110.499715 L 245.000033 126.499772 L 248.999788 142.499829 L 252.999544 157.999658 L 261.00009 164.000326 L 248.999788 183.49991 L 250.999666 199.499967 L 252.999544 214.999797 L 255.49965 230.999854 L 253.499772 246.99991 L 259.500439 263.500195 L 257.499528 279.500252 L 251.499894 295.500309 L 243.500382 311.999561 L 236.999487 328.499845 L 264.999845 344.499902 L 268.999601 361.000187 L 271.499707 377.000244 L 267.499951 393.000301 L 257.999756 408.50013 L 250.000244 424.500187 L 241.999699 440.500244 L 264.000423 446.499878 L 268.000179 456.000073 L 271.499707 473.49978 L 265.500073 473.49978 L 265.500073 504.999666 " transform="matrix(3.779528,0,0,3.779528,0,0)"/>
<path style="fill:none;stroke-width:2;stroke-linecap:butt;stroke-linejoin:miter;stroke:rgb(0%,0%,0%);stroke-opacity:1;stroke-miterlimit:4;" d="M 230.999854 494.500049 L 214.999797 502.499561 L 198.99974 502.499561 L 182.500488 494.500049 " transform="matrix(3.779528,0,0,3.779528,0,0)"/>
<path style="fill:none;stroke-width:2;stroke-linecap:butt;stroke-linejoin:miter;stroke:rgb(0%,0%,0%);stroke-opacity:1;stroke-miterlimit:4;" d="M 151.499797 493.499593 L 135.49974 493.499593 L 119.499683 493.000399 L 103.499626 493.000399 " transform="matrix(3.779528,0,0,3.779528,0,0)"/>
<path style="fill:none;stroke-width:2;stroke-linecap:butt;stroke-linejoin:miter;stroke:rgb(0%,0%,0%);stroke-opacity:1;stroke-miterlimit:4;" d="M 1.49965 467.500146 L 33.999992 467.500146 L 50.000049 468.000374 L 98.00022 468.000374 L 114.000277 467.500146 L 130.499528 467.500146 L 146.499585 469.500024 L 162.000448 467.500146 L 209.999585 467.500146 L 225.999642 470.000252 L 241.999699 470.000252 L 257.499528 468.000374 L 279.500252 477.499536 L 297.500187 493.499593 L 291.000326 509.999878 " transform="matrix(3.779528,0,0,3.779528,0,0)"/>
<path style="fill:none;stroke-width:2;stroke-linecap:butt;stroke-linejoin:miter;stroke:rgb(0%,0%,0%);stroke-opacity:1;stroke-miterlimit:4;" d="M 169.999959 209.500391 L 184.000138 193.500334 L 202.500301 179.500155 " transform="matrix(3.779528,0,0,3.779528,0,0)"/>
<path style="fill:none;stroke-width:2;stroke-linecap:butt;stroke-linejoin:miter;stroke:rgb(0%,0%,0%);stroke-opacity:1;stroke-miterlimit:4;" d="M 248.499561 155.000358 L 243.999577 139.499495 L 239.999821 123.999666 L 234.000187 107.999609 L 216.000252 114.500505 L 216.000252 120.500138 " transform="matrix(3.779528,0,0,3.779528,0,0)"/>
<path style="fill:none;stroke-width:2;stroke-linecap:butt;stroke-linejoin:miter;stroke:rgb(0%,0%,0%);stroke-opacity:1;stroke-miterlimit:4;" d="M 171.000415 110.499715 L 137.000423 126.499772 L 119.000488 141.999601 L 119.000488 161.50022 " transform="matrix(3.779528,0,0,3.779528,0,0)"/>
<path style="fill:none;stroke-width:2;stroke-linecap:butt;stroke-linejoin:miter;stroke:rgb(0%,0%,0%);stroke-opacity:1;stroke-miterlimit:4;" d="M 108.499837 146.999813 L 112.499593 143.500285 L 100.000098 159.500342 L 85.999919 175.500399 L 78.000407 191.99965 L 69.999862 207.999707 L 79.500057 203.999951 L 93.500236 185.499788 L 115.499927 191.500456 L 130.999756 191.500456 L 146.999813 195.500212 " transform="matrix(3.779528,0,0,3.779528,0,0)"/>
<path style="fill:none;stroke-width:2;stroke-linecap:butt;stroke-linejoin:miter;stroke:rgb(0%,0%,0%);stroke-opacity:1;stroke-miterlimit:4;" d="M 137.499618 140.499951 L 115.499927 156.500008 L 130.999756 140.499951 L 137.000423 140.499951 " transform="matrix(3.779528,0,0,3.779528,0,0)"/>
<path style="fill:none;stroke-width:2;stroke-linecap:butt;stroke-linejoin:miter;stroke:rgb(0%,0%,0%);stroke-opacity:1;stroke-miterlimit:4;" d="M 255.999878 175.999593 L 259.999634 207.999707 L 259.999634 224.499992 L 261.999512 234.500415 L 266.000301 240.500049 L 269.499829 242.499927 " transform="matrix(3.779528,0,0,3.779528,0,0)"/>
<path style="fill:none;stroke-width:2;stroke-linecap:butt;stroke-linejoin:miter;stroke:rgb(0%,0%,0%);stroke-opacity:1;stroke-miterlimit:4;" d="M 502.000366 21.000269 L 470.50048 21.000269 L 454.000195 21.500496 L 438.000138 21.500496 L 422.000081 21.999691 L 309.999683 21.999691 L 293.999626 21.500496 L 277.999569 21.500496 L 261.999512 21.999691 L 230.499626 21.999691 L 214.499569 19.999813 L 198.499512 19.999813 L 178.499699 20.500041 L 162.499642 22.499919 L 146.499585 21.999691 L 82.500391 21.999691 L 66.500334 21.500496 L 17.000513 21.500496 L 1.000456 21.999691 " transform="matrix(3.779528,0,0,3.779528,0,0)"/>
<path style="fill:none;stroke-width:2;stroke-linecap:butt;stroke-linejoin:miter;stroke:rgb(0%,0%,0%);stroke-opacity:1;stroke-miterlimit:4;" d="M 1.49965 18.500163 L 49.499821 18.500163 L 65.499878 17.999935 L 145.500163 17.999935 L 161.50022 16.000057 L 177.500277 16.000057 L 194.999984 14.500407 L 211.000041 14.500407 L 227.500326 16.500285 L 259.500439 16.500285 L 275.500496 16.000057 L 307.499577 16.000057 L 323.999862 17.499707 L 339.499691 17.499707 L 355.499748 14.999601 L 371.499805 14.999601 L 386.999634 17.000513 L 452.499512 17.000513 L 468.499569 16.500285 L 484.000431 16.500285 L 500.499683 14.999601 " transform="matrix(3.779528,0,0,3.779528,0,0)"/>
</g>
</svg>
