<svg xmlns="http://www.w3.org/2000/svg" width="512mm" height="512mm" viewBox="0 0 512 512" version="1.1"><polyline points="399.5,56.5,369.5,72.5,355.5,88.5,347.5,104.5,343.5,121.0,341.5,137.0,347.5,155.0,341.5,171.0,343.0,187.0,347.0,202.5,358.5,218.5,371.0,234.5" stroke="black" stroke-width="2" fill="none" />
<polyline points="384.0,225.5,408.0,210.0,417.5,194.0,411.5,206.0,396.0,218.0,380.0,233.5,363.5,221.5,347.5,199.5" stroke="black" stroke-width="2" fill="none" />
<polyline points="340.5,174.5,354.5,134.5,370.5,128.5,386.5,120.5,402.5,114.5,418.5,110.5,434.0,106.0" stroke="black" stroke-width="2" fill="none" />
<polyline points="433.0,112.0,415.5,128.0,413.0,143.5,421.5,155.5,441.5,163.5,450.0,175.5,436.0,187.5,434.5,204.0,436.5,230.0,433.0,248.5,435.0,266.5,419.0,282.5,379.0,306.5,365.0,322.0,357.0,338.0,359.0,353.5,363.0,364.0,349.0,380.0,347.0,396.5,329.5,404.5,347.5,408.5,333.0,418.5,337.0,434.5,334.5,450.0,334.0,466.0,328.0,489.5,325.5,505.5,329.5,471.5,355.5,463.5,367.5,465.0,383.5,455.0,403.5,473.0,420.0,483.0,436.0,489.5,452.5,484.0" stroke="black" stroke-width="2" fill="none" />
<polyline points="433.0,506.0,426.5,492.0,411.0,495.5" stroke="black" stroke-width="2" fill="none" />
<polyline points="432.0,508.0,408.0,506.0,416.5,492.0,404.5,476.5,394.5,460.5,392.5,444.5,394.5,428.5,399.0,412.5,375.0,412.5" stroke="black" stroke-width="2" fill="none" />
<polyline points="372.5,399.5,356.0,413.5" stroke="black" stroke-width="2" fill="none" />
<polyline points="356.0,403.5,346.0,405.5,351.5,397.5,350.5,381.5,350.5,381.5" stroke="black" stroke-width="2" fill="none" />
<polyline points="366.5,374.5,367.0,368.5,373.0,384.5,371.0,400.5,355.5,416.0,359.5,431.5,351.5,447.0,355.5,463.0,343.5,469.0,347.5,484.5,342.0,496.5,344.0,504.5" stroke="black" stroke-width="2" fill="none" />
<polyline points="339.0,502.5,354.5,500.5" stroke="black" stroke-width="2" fill="none" />
<polyline points="373.0,505.5,375.0,489.0,369.0,472.5,362.5,470.5" stroke="black" stroke-width="2" fill="none" />
<polyline points="388.0,458.0,384.0,474.0,380.0,490.0,378.0,506.5" stroke="black" stroke-width="2" fill="none" />
<polyline points="319.0,496.5,331.5,481.0,339.5,465.0,341.5,449.0,345.5,427.0,340.0,427.0,340.0,423.0" stroke="black" stroke-width="2" fill="none" />
<polyline points="334.5,424.5,354.5,440.5,368.5,436.5" stroke="black" stroke-width="2" fill="none" />
<polyline points="399.5,418.5,423.5,434.5" stroke="black" stroke-width="2" fill="none" />
<polyline points="413.0,413.5,429.0,425.5,444.5,432.0,460.5,436.0,486.5,432.0" stroke="black" stroke-width="2" fill="none" />
<polyline points="495.5,414.0,479.5,404.0" stroke="black" stroke-width="2" fill="none" />
<polyline points="466.5,398.5,482.5,400.5,498.5,402.0" stroke="black" stroke-width="2" fill="none" />
<polyline points="507.5,390.5,499.5,386.5,497.5,390.0,507.5,373.0,509.5,359.0" stroke="black" stroke-width="2" fill="none" />
<polyline points="510.0,299.5,494.0,291.0,478.0,277.0" stroke="black" stroke-width="2" fill="none" />
<polyline points="481.0,255.5,497.0,265.5" stroke="black" stroke-width="2" fill="none" />
<polyline points="508.5,270.5,488.5,255.0" stroke="black" stroke-width="2" fill="none" />
<polyline points="481.5,253.5,497.5,269.5,501.5,285.5,499.5,293.0,507.5,309.0,507.5,322.5" stroke="black" stroke-width="2" fill="none" />
<polyline points="475.5,316.0,460.0,298.0" stroke="black" stroke-width="2" fill="none" />
<polyline points="467.0,302.5,463.0,318.5,479.0,332.0" stroke="black" stroke-width="2" fill="none" />
<polyline points="468.0,308.0,473.5,324.0,482.0,326.5,488.0,336.5,488.5,352.0,488.5,367.5,485.0,384.0,489.0,404.0,473.0,416.0,481.0,432.0,475.0,458.0,477.0,473.5,477.0,489.0,485.0,497.0,501.0,495.0" stroke="black" stroke-width="2" fill="none" />
<polyline points="503.0,439.5,487.0,439.5,469.0,439.5,463.0,422.0,459.5,416.0" stroke="black" stroke-width="2" fill="none" />
<polyline points="448.0,411.5,444.0,399.5,444.5,399.0" stroke="black" stroke-width="2" fill="none" />
<polyline points="418.5,394.5,409.0,410.5,425.0,426.5" stroke="black" stroke-width="2" fill="none" />
<polyline points="411.0,410.0,427.0,395.5,443.0,397.5,459.0,394.0,469.0,406.5,477.0,418.5,493.0,418.5,508.5,420.5" stroke="black" stroke-width="2" fill="none" />
<polyline points="444.0,353.5,448.0,343.0,456.5,333.5,452.5,317.5,444.5,302.0,426.5,286.5,438.5,270.5,464.5,254.0,486.5,232.0,476.5,226.0,464.0,224.0,482.5,220.0,474.5,213.5,459.0,225.5,443.0,230.0,427.0,234.0" stroke="black" stroke-width="2" fill="none" />
<polyline points="429.0,237.5,445.0,235.5,461.0,233.5,476.5,231.5" stroke="black" stroke-width="2" fill="none" />
<polyline points="478.0,253.5,494.0,257.5,510.0,269.5" stroke="black" stroke-width="2" fill="none" />
<polyline points="500.5,302.5,500.0,280.5,483.5,268.5,467.5,264.5,452.0,266.0,436.0,272.5" stroke="black" stroke-width="2" fill="none" />
<polyline points="433.5,266.0,449.5,262.0,465.5,254.5,481.5,248.5,498.0,245.0" stroke="black" stroke-width="2" fill="none" />
<polyline points="465.5,204.5,449.5,208.0" stroke="black" stroke-width="2" fill="none" />
<polyline points="453.5,196.5,453.5,196.5,465.5,180.5,469.0,164.5,473.0,148.5,473.5,132.0,461.5,128.0" stroke="black" stroke-width="2" fill="none" />
<polyline points="452.0,115.5,452.0,131.5,447.5,147.5,445.5,169.5,441.5,189.5" stroke="black" stroke-width="2" fill="none" />
<polyline points="443.5,140.0,427.5,132.0" stroke="black" stroke-width="2" fill="none" />
<polyline points="429.0,128.0,445.0,131.5,429.0,139.0,429.0,121.0,445.0,117.0,458.5,115.0,475.0,115.0,491.0,113.0,511.0,117.5" stroke="black" stroke-width="2" fill="none" />
<polyline points="502.0,115.0,504.0,131.5,502.0,147.5,498.0,163.5,490.0,179.5,490.0,189.5,456.0,213.5,462.5,211.5,472.5,201.5,493.0,185.5,495.0,172.0" stroke="black" stroke-width="2" fill="none" />
<polyline points="485.5,242.0,469.5,239.5,445.5,243.5,429.5,249.5" stroke="black" stroke-width="2" fill="none" />
<polyline points="431.5,253.0,447.5,253.0" stroke="black" stroke-width="2" fill="none" />
<polyline points="428.0,287.5,444.0,301.5" stroke="black" stroke-width="2" fill="none" />
<polyline points="441.0,304.0,425.0,294.5" stroke="black" stroke-width="2" fill="none" />
<polyline points="425.0,295.0,442.5,311.0,449.0,327.0,434.5,339.0" stroke="black" stroke-width="2" fill="none" />
<polyline points="438.0,332.5,420.0,330.5,404.5,342.5,384.5,372.5,368.0,369.0,350.0,377.0,332.0,397.5,336.0,391.5,334.5,403.5" stroke="black" stroke-width="2" fill="none" />
<polyline points="399.0,416.5,415.0,428.5,429.0,434.5,445.0,442.0,461.0,446.0,477.0,447.5,493.0,450.0,509.0,450.0" stroke="black" stroke-width="2" fill="none" />
<polyline points="507.0,323.5,501.0,307.5,491.0,291.5,473.5,275.5,467.5,271.5,451.5,270.0,436.0,276.0,420.0,292.0,404.0,293.5,388.0,299.5,372.5,311.5,356.5,337.0" stroke="black" stroke-width="2" fill="none" />
<polyline points="429.0,320.5,431.0,336.5" stroke="black" stroke-width="2" fill="none" />
<polyline points="429.5,318.5,409.5,334.5,399.5,352.5,395.5,368.5,395.5,368.5,411.5,362.0,428.0,360.0" stroke="black" stroke-width="2" fill="none" />
<polyline points="454.5,164.0,456.5,147.5,459.0,131.5,453.5,138.0,438.0,154.0,422.0,140.0" stroke="black" stroke-width="2" fill="none" />
<polyline points="404.0,122.5,408.0,128.5,398.0,144.0,376.0,152.0" stroke="black" stroke-width="2" fill="none" />
<polyline points="371.5,141.0,355.5,139.0" stroke="black" stroke-width="2" fill="none" />
<polyline points="345.0,106.0,367.0,81.5,381.5,97.5,386.0,113.5,350.5,129.5,344.5,146.0,339.0,162.0,335.0,178.0,342.5,150.0,358.5,126.0,374.5,120.5,390.5,114.5,406.5,108.0,422.5,100.0,438.5,98.0" stroke="black" stroke-width="2" fill="none" />
<polyline points="435.5,82.5,419.5,82.5,403.5,89.0,388.0,97.0,372.0,76.5" stroke="black" stroke-width="2" fill="none" />
<polyline points="371.5,75.0,383.5,91.0,403.5,107.0,375.5,123.5,354.0,146.0,360.0,162.5,360.0,154.5,376.0,150.5,384.0,150.5,398.5,140.5,423.0,120.5,439.0,112.5,454.5,110.5,470.5,108.5,486.5,108.5" stroke="black" stroke-width="2" fill="none" />
<polyline points="491.5,100.5,475.0,76.5,459.0,64.5,443.5,56.0,427.5,54.0,411.5,54.0,395.5,58.0,379.5,66.0,363.5,78.0,350.0,78.0,339.5,108.0,337.5,116.5,345.5,94.5,357.5,78.5,343.5,90.5" stroke="black" stroke-width="2" fill="none" />
<polyline points="367.5,79.5,383.5,97.5" stroke="black" stroke-width="2" fill="none" />
<polyline points="388.0,126.5,377.5,142.0,381.5,157.5,381.5,173.5,380.0,190.0,376.0,206.0,374.0,222.0" stroke="black" stroke-width="2" fill="none" />
<polyline points="446.0,157.5,426.0,160.0,424.0,150.0,420.0,133.5,434.0,117.5" stroke="black" stroke-width="2" fill="none" />
<polyline points="445.0,57.5,471.0,73.5,485.5,89.5,493.5,105.5,496.0,115.0,498.0,131.5,496.0,147.5,492.0,164.0,484.0,180.0,472.0,196.5,450.0,210.5,446.0,213.0,461.5,203.0,477.5,188.5,493.5,156.5" stroke="black" stroke-width="2" fill="none" />
</svg>