<?xml version="1.0" encoding="UTF-8"?>
<svg xmlns="http://www.w3.org/2000/svg" xmlns:xlink="http://www.w3.org/1999/xlink" width="1935.11811" height="1935.11811" viewBox="0 0 1935.11811 1935.11811" version="1.1">
<g id="surface1">
<path style="fill:none;stroke-width:2;stroke-linecap:butt;stroke-linejoin:miter;stroke:rgb(0%,0%,0%);stroke-opacity:1;stroke-miterlimit:4;" d="M 117.499805 14.500407 L 89.50048 30.500464 L 73.500423 46.499487 L 63.5 62.499544 L 61.500122 78.999829 L 55.500488 94.999886 L 59.500244 110.999943 L 61.500122 127 L 62.999772 143.000057 L 69.000439 158.499886 L 76.499723 174.499943 L 89.000252 190.5 L 103.000431 206.500057 L 100.99952 222.500114 L 101.499748 237.999943 L 97.499992 253.499772 L 95.500114 268.999601 L 81.499935 282.99978 L 65.499878 305.000505 L 77.500179 320.500334 L 73.999618 336.500391 L 67.999984 352.500448 L 56.49991 368.500505 L 40.499854 384.999756 L 20.500041 400.999813 L 16.500285 416.99987 L 14.500407 432.999927 L 8.49974 445.500456 L 24.499797 453.499967 L 26.499674 469.500024 L 38.499976 491.499715 L 44.499609 508 L 55.999683 497.999577 " transform="matrix(3.779528,0,0,3.779528,0,0)"/>
<path style="fill:none;stroke-width:2;stroke-linecap:butt;stroke-linejoin:miter;stroke:rgb(0%,0%,0%);stroke-opacity:1;stroke-miterlimit:4;" d="M 64.000228 491.999943 L 48.000171 486.499504 " transform="matrix(3.779528,0,0,3.779528,0,0)"/>
<path style="fill:none;stroke-width:2;stroke-linecap:butt;stroke-linejoin:miter;stroke:rgb(0%,0%,0%);stroke-opacity:1;stroke-miterlimit:4;" d="M 23.500374 477.999764 L 23.500374 471.499902 L 7.500317 473.49978 L 1.49965 477.499536 " transform="matrix(3.779528,0,0,3.779528,0,0)"/>
<path style="fill:none;stroke-width:2;stroke-linecap:butt;stroke-linejoin:miter;stroke:rgb(0%,0%,0%);stroke-opacity:1;stroke-miterlimit:4;" d="M 17.999935 455.499845 L 1.999878 441.499666 " transform="matrix(3.779528,0,0,3.779528,0,0)"/>
<path style="fill:none;stroke-width:2;stroke-linecap:butt;stroke-linejoin:miter;stroke:rgb(0%,0%,0%);stroke-opacity:1;stroke-miterlimit:4;" d="M 3.000334 435.500033 L 19.000391 437.49991 L 30.999658 461.500513 L 52.500155 509.49965 " transform="matrix(3.779528,0,0,3.779528,0,0)"/>
<path style="fill:none;stroke-width:2;stroke-linecap:butt;stroke-linejoin:miter;stroke:rgb(0%,0%,0%);stroke-opacity:1;stroke-miterlimit:4;" d="M 48.999593 490.000065 L 41.000081 457.999951 L 36.500098 441.999894 L 32.999536 425.499609 " transform="matrix(3.779528,0,0,3.779528,0,0)"/>
<path style="fill:none;stroke-width:2;stroke-linecap:butt;stroke-linejoin:miter;stroke:rgb(0%,0%,0%);stroke-opacity:1;stroke-miterlimit:4;" d="M 26.999902 418.000326 L 30.999658 433.500155 L 35.000448 449.500212 L 39.000203 466.000496 L 42.999959 482.499748 L 46.999715 498.499805 " transform="matrix(3.779528,0,0,3.779528,0,0)"/>
<path style="fill:none;stroke-width:2;stroke-linecap:butt;stroke-linejoin:miter;stroke:rgb(0%,0%,0%);stroke-opacity:1;stroke-miterlimit:4;" d="M 30.500464 495.000277 L 30.000236 479.500448 L 30.000236 463.999585 L 21.999691 440.000016 L 21.999691 424.500187 L 19.999813 408.50013 " transform="matrix(3.779528,0,0,3.779528,0,0)"/>
<path style="fill:none;stroke-width:2;stroke-linecap:butt;stroke-linejoin:miter;stroke:rgb(0%,0%,0%);stroke-opacity:1;stroke-miterlimit:4;" d="M 19.499585 398.000513 L 35.499642 388.00009 L 51.499699 376.500016 L 67.499756 352.500448 " transform="matrix(3.779528,0,0,3.779528,0,0)"/>
<path style="fill:none;stroke-width:2;stroke-linecap:butt;stroke-linejoin:miter;stroke:rgb(0%,0%,0%);stroke-opacity:1;stroke-miterlimit:4;" d="M 55.00026 341.499569 L 61.500122 325.99974 L 62.00035 325.99974 " transform="matrix(3.779528,0,0,3.779528,0,0)"/>
<path style="fill:none;stroke-width:2;stroke-linecap:butt;stroke-linejoin:miter;stroke:rgb(0%,0%,0%);stroke-opacity:1;stroke-miterlimit:4;" d="M 54.500033 305.000505 L 69.999862 325.499512 L 62.00035 333.500057 L 57.999561 350.000342 L 54.500033 352.00022 L 56.49991 362.499837 L 42.499731 377.000244 " transform="matrix(3.779528,0,0,3.779528,0,0)"/>
<path style="fill:none;stroke-width:2;stroke-linecap:butt;stroke-linejoin:miter;stroke:rgb(0%,0%,0%);stroke-opacity:1;stroke-miterlimit:4;" d="M 19.000391 355.499748 L 3.000334 368.000277 " transform="matrix(3.779528,0,0,3.779528,0,0)"/>
<path style="fill:none;stroke-width:2;stroke-linecap:butt;stroke-linejoin:miter;stroke:rgb(0%,0%,0%);stroke-opacity:1;stroke-miterlimit:4;" d="M 3.000334 314.000472 L 7.00009 305.999927 " transform="matrix(3.779528,0,0,3.779528,0,0)"/>
<path style="fill:none;stroke-width:2;stroke-linecap:butt;stroke-linejoin:miter;stroke:rgb(0%,0%,0%);stroke-opacity:1;stroke-miterlimit:4;" d="M 3.999756 289.000448 L 21.999691 313.000016 L 15.499829 329.000073 L 13.499951 352.999642 L 5.500439 348.999886 L 21.500496 329.000073 " transform="matrix(3.779528,0,0,3.779528,0,0)"/>
<path style="fill:none;stroke-width:2;stroke-linecap:butt;stroke-linejoin:miter;stroke:rgb(0%,0%,0%);stroke-opacity:1;stroke-miterlimit:4;" d="M 19.499585 293.999626 L 3.499528 287.999992 " transform="matrix(3.779528,0,0,3.779528,0,0)"/>
<path style="fill:none;stroke-width:2;stroke-linecap:butt;stroke-linejoin:miter;stroke:rgb(0%,0%,0%);stroke-opacity:1;stroke-miterlimit:4;" d="M 3.000334 282.499552 L 21.000269 289.99987 L 17.000513 311.999561 L 5.000212 327.500423 L 14.500407 329.500301 L 17.999935 309.500488 L 23.999569 325.499512 L 11.500073 341.499569 " transform="matrix(3.779528,0,0,3.779528,0,0)"/>
<path style="fill:none;stroke-width:2;stroke-linecap:butt;stroke-linejoin:miter;stroke:rgb(0%,0%,0%);stroke-opacity:1;stroke-miterlimit:4;" d="M 19.999813 286.000114 L 3.999756 273.999813 " transform="matrix(3.779528,0,0,3.779528,0,0)"/>
<path style="fill:none;stroke-width:2;stroke-linecap:butt;stroke-linejoin:miter;stroke:rgb(0%,0%,0%);stroke-opacity:1;stroke-miterlimit:4;" d="M 3.000334 267.499951 L 19.000391 273.499585 L 34.50022 275.999691 L 50.500277 287.999992 L 66.500334 284.000236 L 82.500391 277.999569 " transform="matrix(3.779528,0,0,3.779528,0,0)"/>
<path style="fill:none;stroke-width:2;stroke-linecap:butt;stroke-linejoin:miter;stroke:rgb(0%,0%,0%);stroke-opacity:1;stroke-miterlimit:4;" d="M 87.499569 289.000448 L 103.499626 286.999536 L 119.499683 286.000114 L 135.49974 284.500464 " transform="matrix(3.779528,0,0,3.779528,0,0)"/>
<path style="fill:none;stroke-width:2;stroke-linecap:butt;stroke-linejoin:miter;stroke:rgb(0%,0%,0%);stroke-opacity:1;stroke-miterlimit:4;" d="M 138.500073 302.999593 L 122.500016 296.999959 L 107.000187 292.499976 L 91.00013 288.50022 " transform="matrix(3.779528,0,0,3.779528,0,0)"/>
<path style="fill:none;stroke-width:2;stroke-linecap:butt;stroke-linejoin:miter;stroke:rgb(0%,0%,0%);stroke-opacity:1;stroke-miterlimit:4;" d="M 99.49987 277.500374 L 83.499813 281.50013 L 67.499756 289.499642 L 51.499699 293.000203 L 35.499642 280.999902 L 19.499585 277.000146 " transform="matrix(3.779528,0,0,3.779528,0,0)"/>
<path style="fill:none;stroke-width:2;stroke-linecap:butt;stroke-linejoin:miter;stroke:rgb(0%,0%,0%);stroke-opacity:1;stroke-miterlimit:4;" d="M 26.999902 278.499797 L 46.499487 294.499854 L 66.500334 295.999504 L 82.500391 302.000171 L 98.00022 312.499788 L 114.000277 330.499723 " transform="matrix(3.779528,0,0,3.779528,0,0)"/>
<path style="fill:none;stroke-width:2;stroke-linecap:butt;stroke-linejoin:miter;stroke:rgb(0%,0%,0%);stroke-opacity:1;stroke-miterlimit:4;" d="M 131.499984 370.500382 L 146.999813 402.500496 L 162.99987 422.500309 L 178.499699 445.99965 " transform="matrix(3.779528,0,0,3.779528,0,0)"/>
<path style="fill:none;stroke-width:2;stroke-linecap:butt;stroke-linejoin:miter;stroke:rgb(0%,0%,0%);stroke-opacity:1;stroke-miterlimit:4;" d="M 186.000016 471.499902 L 202.000073 471.499902 L 218.00013 470.999674 L 234.000187 472.999552 " transform="matrix(3.779528,0,0,3.779528,0,0)"/>
<path style="fill:none;stroke-width:2;stroke-linecap:butt;stroke-linejoin:miter;stroke:rgb(0%,0%,0%);stroke-opacity:1;stroke-miterlimit:4;" d="M 252.50035 459.499601 L 268.500407 419.499976 " transform="matrix(3.779528,0,0,3.779528,0,0)"/>
<path style="fill:none;stroke-width:2;stroke-linecap:butt;stroke-linejoin:miter;stroke:rgb(0%,0%,0%);stroke-opacity:1;stroke-miterlimit:4;" d="M 296.999959 393.000301 L 313.000016 395.500407 L 329.000073 397.500285 L 345.500358 399.500163 L 361.999609 402.000269 L 378.499894 406.000024 L 394.499951 407.499674 L 427.000293 407.499674 L 443.499544 403.499919 L 459.499601 402.999691 L 475.000464 403.499919 L 490.999487 393.999723 L 510.500106 352.00022 " transform="matrix(3.779528,0,0,3.779528,0,0)"/>
<path style="fill:none;stroke-width:2;stroke-linecap:butt;stroke-linejoin:miter;stroke:rgb(0%,0%,0%);stroke-opacity:1;stroke-miterlimit:4;" d="M 506.000122 323.999862 L 509.999878 338.000041 L 506.50035 355.999976 L 502.499561 372.000033 L 496.499927 388.00009 " transform="matrix(3.779528,0,0,3.779528,0,0)"/>
<path style="fill:none;stroke-width:2;stroke-linecap:butt;stroke-linejoin:miter;stroke:rgb(0%,0%,0%);stroke-opacity:1;stroke-miterlimit:4;" d="M 479.500448 395.500407 L 493.000399 379.50035 L 499.000033 363.500293 L 502.499561 348.000464 L 506.50035 332.000407 L 509.999878 316.499544 L 509.999878 305.000505 " transform="matrix(3.779528,0,0,3.779528,0,0)"/>
<path style="fill:none;stroke-width:2;stroke-linecap:butt;stroke-linejoin:miter;stroke:rgb(0%,0%,0%);stroke-opacity:1;stroke-miterlimit:4;" d="M 447.999528 344.499902 L 447.999528 361.000187 L 457.499723 377.000244 L 443.499544 392.500073 L 449.500212 398.499707 L 465.500269 398.000513 L 481.99952 393.999723 " transform="matrix(3.779528,0,0,3.779528,0,0)"/>
<path style="fill:none;stroke-width:2;stroke-linecap:butt;stroke-linejoin:miter;stroke:rgb(0%,0%,0%);stroke-opacity:1;stroke-miterlimit:4;" d="M 450.499634 361.500415 L 434.000382 347.000008 L 425.999837 345.00013 L 436.00026 329.000073 L 436.00026 314.999894 L 443.999772 282.99978 L 445.99965 267.499951 L 447.500334 251.499894 L 449.500212 236.000065 L 449.500212 220.000008 L 451.50009 203.499723 L 461.500513 189.499544 L 463.000163 161.50022 L 463.000163 149.499919 L 457.499723 131.499984 L 453.499967 115.499927 L 470.000252 112.999821 L 478.499992 107.000187 L 474.500236 75.000073 L 468.499569 73.500423 L 472.500358 57.500366 L 474.500236 61.500122 " transform="matrix(3.779528,0,0,3.779528,0,0)"/>
<path style="fill:none;stroke-width:2;stroke-linecap:butt;stroke-linejoin:miter;stroke:rgb(0%,0%,0%);stroke-opacity:1;stroke-miterlimit:4;" d="M 463.999585 84.500269 L 469.500024 100.000098 L 461.500513 111.500171 " transform="matrix(3.779528,0,0,3.779528,0,0)"/>
<path style="fill:none;stroke-width:2;stroke-linecap:butt;stroke-linejoin:miter;stroke:rgb(0%,0%,0%);stroke-opacity:1;stroke-miterlimit:4;" d="M 458.500179 125.50035 L 474.500236 127.500228 L 474.500236 143.500285 " transform="matrix(3.779528,0,0,3.779528,0,0)"/>
<path style="fill:none;stroke-width:2;stroke-linecap:butt;stroke-linejoin:miter;stroke:rgb(0%,0%,0%);stroke-opacity:1;stroke-miterlimit:4;" d="M 460.500057 137.499618 L 476.500114 135.49974 L 493.000399 141.500407 " transform="matrix(3.779528,0,0,3.779528,0,0)"/>
<path style="fill:none;stroke-width:2;stroke-linecap:butt;stroke-linejoin:miter;stroke:rgb(0%,0%,0%);stroke-opacity:1;stroke-miterlimit:4;" d="M 507.499772 162.499642 L 475.499658 162.499642 L 459.499601 164.999748 " transform="matrix(3.779528,0,0,3.779528,0,0)"/>
<path style="fill:none;stroke-width:2;stroke-linecap:butt;stroke-linejoin:miter;stroke:rgb(0%,0%,0%);stroke-opacity:1;stroke-miterlimit:4;" d="M 459.999829 196.000439 L 446.499878 175.500399 L 448.499756 149.499919 L 438.500366 134.999512 L 438.000138 117.499805 L 434.000382 101.999976 L 445.99965 91.999552 L 456.000073 76.499723 L 452.000317 84.500269 " transform="matrix(3.779528,0,0,3.779528,0,0)"/>
<path style="fill:none;stroke-width:2;stroke-linecap:butt;stroke-linejoin:miter;stroke:rgb(0%,0%,0%);stroke-opacity:1;stroke-miterlimit:4;" d="M 454.000195 81.499935 L 452.000317 97.499992 L 457.999951 107.999609 L 477.999764 85.999919 L 479.999642 99.49987 L 486.499504 115.499927 L 486.000309 121.499561 " transform="matrix(3.779528,0,0,3.779528,0,0)"/>
<path style="fill:none;stroke-width:2;stroke-linecap:butt;stroke-linejoin:miter;stroke:rgb(0%,0%,0%);stroke-opacity:1;stroke-miterlimit:4;" d="M 459.499601 150.999569 L 443.499544 137.000423 " transform="matrix(3.779528,0,0,3.779528,0,0)"/>
<path style="fill:none;stroke-width:2;stroke-linecap:butt;stroke-linejoin:miter;stroke:rgb(0%,0%,0%);stroke-opacity:1;stroke-miterlimit:4;" d="M 423.499731 129.500106 L 439.499788 157.500464 L 453.499967 183.49991 L 473.49978 187.499666 L 490.000065 189.499544 L 506.000122 191.500456 " transform="matrix(3.779528,0,0,3.779528,0,0)"/>
<path style="fill:none;stroke-width:2;stroke-linecap:butt;stroke-linejoin:miter;stroke:rgb(0%,0%,0%);stroke-opacity:1;stroke-miterlimit:4;" d="M 495.999699 205.000407 L 479.999642 202.500301 L 463.999585 198.499512 L 443.999772 180.499577 L 435.500033 148.000269 L 429.500399 132.000212 L 423.499731 112.000399 L 423.499731 95.500114 L 422.000081 97.499992 " transform="matrix(3.779528,0,0,3.779528,0,0)"/>
<path style="fill:none;stroke-width:2;stroke-linecap:butt;stroke-linejoin:miter;stroke:rgb(0%,0%,0%);stroke-opacity:1;stroke-miterlimit:4;" d="M 421.499854 91.500358 L 415.50022 107.500415 L 421.499854 123.500472 L 425.499609 139.000301 L 433.500155 155.000358 L 437.49991 170.500187 L 445.99965 186.500244 L 446.499878 202.000073 L 447.000106 218.00013 L 445.500456 234.000187 L 443.999772 250.000244 L 443.999772 266.000301 L 439.499788 282.000358 L 436.999683 297.500187 L 432.499699 313.500244 " transform="matrix(3.779528,0,0,3.779528,0,0)"/>
<path style="fill:none;stroke-width:2;stroke-linecap:butt;stroke-linejoin:miter;stroke:rgb(0%,0%,0%);stroke-opacity:1;stroke-miterlimit:4;" d="M 413.999536 350.000342 L 398.000513 348.000464 " transform="matrix(3.779528,0,0,3.779528,0,0)"/>
<path style="fill:none;stroke-width:2;stroke-linecap:butt;stroke-linejoin:miter;stroke:rgb(0%,0%,0%);stroke-opacity:1;stroke-miterlimit:4;" d="M 397.500285 344.499902 L 413.500342 344.499902 L 417.500098 339.000496 " transform="matrix(3.779528,0,0,3.779528,0,0)"/>
<path style="fill:none;stroke-width:2;stroke-linecap:butt;stroke-linejoin:miter;stroke:rgb(0%,0%,0%);stroke-opacity:1;stroke-miterlimit:4;" d="M 418.000326 364.499715 L 413.999536 359.999731 L 398.000513 363.500293 " transform="matrix(3.779528,0,0,3.779528,0,0)"/>
<path style="fill:none;stroke-width:2;stroke-linecap:butt;stroke-linejoin:miter;stroke:rgb(0%,0%,0%);stroke-opacity:1;stroke-miterlimit:4;" d="M 393.999723 359.999731 L 409.99978 354.000098 L 425.999837 357.999854 L 450.499634 372.000033 L 462.499935 388.500317 " transform="matrix(3.779528,0,0,3.779528,0,0)"/>
<path style="fill:none;stroke-width:2;stroke-linecap:butt;stroke-linejoin:miter;stroke:rgb(0%,0%,0%);stroke-opacity:1;stroke-miterlimit:4;" d="M 398.000513 393.000301 L 386.000212 382.999878 L 367.500049 366.999821 L 361.500415 350.999764 L 369.499927 334.500513 L 373.499683 341.000374 " transform="matrix(3.779528,0,0,3.779528,0,0)"/>
<path style="fill:none;stroke-width:2;stroke-linecap:butt;stroke-linejoin:miter;stroke:rgb(0%,0%,0%);stroke-opacity:1;stroke-miterlimit:4;" d="M 364.999943 361.999609 L 381 373.99991 L 397.500285 371.499805 L 413.500342 370.000155 L 429.500399 363.999487 L 445.500456 366.000399 " transform="matrix(3.779528,0,0,3.779528,0,0)"/>
<path style="fill:none;stroke-width:2;stroke-linecap:butt;stroke-linejoin:miter;stroke:rgb(0%,0%,0%);stroke-opacity:1;stroke-miterlimit:4;" d="M 434.000382 327.500423 L 418.000326 323.499634 L 402.000269 325.99974 L 385.499984 318.000228 L 370.000155 316.00035 L 354.000098 320.000106 L 338.000041 302.000171 L 321.999984 293.999626 L 305.999927 289.99987 " transform="matrix(3.779528,0,0,3.779528,0,0)"/>
<path style="fill:none;stroke-width:2;stroke-linecap:butt;stroke-linejoin:miter;stroke:rgb(0%,0%,0%);stroke-opacity:1;stroke-miterlimit:4;" d="M 302.500399 286.500342 L 282.499552 302.500399 L 274.500041 318.500456 L 278.499797 334.500513 L 286.500342 350.499536 L 286.500342 366.499593 L 291.999748 366.000399 L 298.000415 382.000456 L 300.000293 405.499797 L 302.000171 422.000081 L 300.000293 438.000138 L 297.500187 454.000195 L 295.000081 469.500024 L 291.000326 485.500081 L 289.000448 501.500138 " transform="matrix(3.779528,0,0,3.779528,0,0)"/>
<path style="fill:none;stroke-width:2;stroke-linecap:butt;stroke-linejoin:miter;stroke:rgb(0%,0%,0%);stroke-opacity:1;stroke-miterlimit:4;" d="M 277.500374 370.500382 L 261.500317 346.49978 " transform="matrix(3.779528,0,0,3.779528,0,0)"/>
<path style="fill:none;stroke-width:2;stroke-linecap:butt;stroke-linejoin:miter;stroke:rgb(0%,0%,0%);stroke-opacity:1;stroke-miterlimit:4;" d="M 264.999845 350.499536 L 275.000269 366.499593 L 286.999536 382.49965 L 295.000081 398.000513 L 296.999959 413.999536 L 296.999959 429.500399 L 295.000081 445.99965 L 293.000203 461.999707 L 289.000448 478.499992 L 287.499764 494.500049 L 283.500008 510.500106 " transform="matrix(3.779528,0,0,3.779528,0,0)"/>
<path style="fill:none;stroke-width:2;stroke-linecap:butt;stroke-linejoin:miter;stroke:rgb(0%,0%,0%);stroke-opacity:1;stroke-miterlimit:4;" d="M 275.999691 334.999707 L 292.499976 360.499959 L 309.00026 359.000309 L 325.000317 354.99952 L 341.499569 339.000496 " transform="matrix(3.779528,0,0,3.779528,0,0)"/>
<path style="fill:none;stroke-width:2;stroke-linecap:butt;stroke-linejoin:miter;stroke:rgb(0%,0%,0%);stroke-opacity:1;stroke-miterlimit:4;" d="M 333.500057 330.999951 L 316.999772 341.000374 L 301.499943 350.999764 L 321.499756 329.000073 L 317.5 321.499756 L 302.000171 325.499512 " transform="matrix(3.779528,0,0,3.779528,0,0)"/>
<path style="fill:none;stroke-width:2;stroke-linecap:butt;stroke-linejoin:miter;stroke:rgb(0%,0%,0%);stroke-opacity:1;stroke-miterlimit:4;" d="M 314.999894 328.499845 L 296.999959 340.500146 L 320.500334 324.50009 " transform="matrix(3.779528,0,0,3.779528,0,0)"/>
<path style="fill:none;stroke-width:2;stroke-linecap:butt;stroke-linejoin:miter;stroke:rgb(0%,0%,0%);stroke-opacity:1;stroke-miterlimit:4;" d="M 319.499878 305.499699 L 315.500122 307.999805 L 299.500065 307.999805 L 281.50013 302.000171 L 279.500252 318.000228 " transform="matrix(3.779528,0,0,3.779528,0,0)"/>
<path style="fill:none;stroke-width:2;stroke-linecap:butt;stroke-linejoin:miter;stroke:rgb(0%,0%,0%);stroke-opacity:1;stroke-miterlimit:4;" d="M 262.999967 289.99987 L 259.000212 303.499821 L 259.500439 311.500366 L 259.999634 327.500423 L 266.499495 343.50048 L 276.499919 359.999731 " transform="matrix(3.779528,0,0,3.779528,0,0)"/>
<path style="fill:none;stroke-width:2;stroke-linecap:butt;stroke-linejoin:miter;stroke:rgb(0%,0%,0%);stroke-opacity:1;stroke-miterlimit:4;" d="M 268.500407 368.999699 L 252.000122 347.000008 L 236.000065 327.000195 " transform="matrix(3.779528,0,0,3.779528,0,0)"/>
<path style="fill:none;stroke-width:2;stroke-linecap:butt;stroke-linejoin:miter;stroke:rgb(0%,0%,0%);stroke-opacity:1;stroke-miterlimit:4;" d="M 235.499837 356.500203 L 218.999552 352.500448 L 202.500301 350.499536 L 186.500244 348.999886 " transform="matrix(3.779528,0,0,3.779528,0,0)"/>
<path style="fill:none;stroke-width:2;stroke-linecap:butt;stroke-linejoin:miter;stroke:rgb(0%,0%,0%);stroke-opacity:1;stroke-miterlimit:4;" d="M 196.499634 356.500203 L 196.499634 359.999731 L 204.500179 363.500293 L 210.499813 365.500171 L 232.000309 363.000065 L 218.00013 369.499927 L 215.500024 365.500171 L 215.500024 371.499805 " transform="matrix(3.779528,0,0,3.779528,0,0)"/>
<path style="fill:none;stroke-width:2;stroke-linecap:butt;stroke-linejoin:miter;stroke:rgb(0%,0%,0%);stroke-opacity:1;stroke-miterlimit:4;" d="M 259.500439 422.999504 L 243.500382 469.500024 L 227.99952 467.500146 L 211.500269 468.000374 L 195.500212 466.000496 L 175.500399 454.000195 L 159.500342 428.499943 L 143.500285 408.50013 L 127.500228 380.499772 L 110.999943 336.500391 L 94.999886 316.499544 L 79.500057 305.999927 L 63.5 302.000171 " transform="matrix(3.779528,0,0,3.779528,0,0)"/>
<path style="fill:none;stroke-width:2;stroke-linecap:butt;stroke-linejoin:miter;stroke:rgb(0%,0%,0%);stroke-opacity:1;stroke-miterlimit:4;" d="M 68.500212 300.499487 L 96.999764 316.499544 L 110.999943 332.999829 L 119.000488 349.500114 L 125.000122 365.500171 L 128.999878 381.500228 L 137.000423 397.500285 L 148.999691 413.500342 L 160.499764 429.000171 L 170.500187 445.000228 L 178.999927 460.500057 L 182.999683 486.499504 L 178.499699 499.000033 L 178.499699 506.999544 L 175.999593 493.499593 L 191.500456 485.500081 L 207.500513 487.499959 L 230.000431 485.500081 " transform="matrix(3.779528,0,0,3.779528,0,0)"/>
<path style="fill:none;stroke-width:2;stroke-linecap:butt;stroke-linejoin:miter;stroke:rgb(0%,0%,0%);stroke-opacity:1;stroke-miterlimit:4;" d="M 342.500024 358.500081 L 336.999585 362.499837 L 350.999764 346.49978 " transform="matrix(3.779528,0,0,3.779528,0,0)"/>
<path style="fill:none;stroke-width:2;stroke-linecap:butt;stroke-linejoin:miter;stroke:rgb(0%,0%,0%);stroke-opacity:1;stroke-miterlimit:4;" d="M 385.499984 317.5 L 391.499618 333.500057 L 373.99991 347.500236 L 377.999666 327.500423 L 441.999894 335.499935 " transform="matrix(3.779528,0,0,3.779528,0,0)"/>
<path style="fill:none;stroke-width:2;stroke-linecap:butt;stroke-linejoin:miter;stroke:rgb(0%,0%,0%);stroke-opacity:1;stroke-miterlimit:4;" d="M 427.000293 320.000106 L 411.000236 320.000106 L 395.500407 318.000228 L 379.50035 309.999683 L 363.999487 309.999683 L 348.499658 302.000171 L 332.000407 292.499976 L 316.499544 286.500342 L 300.499487 288.50022 L 284.500464 300.000293 L 268.000179 295.500309 L 254 305.499699 L 237.999943 303.499821 L 221.999886 293.500431 L 205.999829 293.500431 L 189.999772 300.999715 L 174.499943 300.999715 L 158.499886 298.999837 L 141.999601 295.500309 L 119.99991 291.49952 L 109.999487 270.000057 L 109.500293 254 L 112.000399 237.999943 L 112.000399 221.999886 L 107.999609 200.000195 L 91.999552 180.000382 L 87.999797 157.999658 L 85.999919 168.000081 L 73.999618 153.499674 L 67.999984 137.499618 L 66.000106 121.999788 L 64.500456 105.999731 L 66.500334 89.999674 L 74.499845 73.999618 L 80.500513 57.999561 L 82.500391 54.500033 L 66.500334 80.500513 " transform="matrix(3.779528,0,0,3.779528,0,0)"/>
<path style="fill:none;stroke-width:2;stroke-linecap:butt;stroke-linejoin:miter;stroke:rgb(0%,0%,0%);stroke-opacity:1;stroke-miterlimit:4;" d="M 77.500179 89.999674 L 93.500236 85.999919 L 96.000342 101.999976 L 94.000464 118.000033 " transform="matrix(3.779528,0,0,3.779528,0,0)"/>
<path style="fill:none;stroke-width:2;stroke-linecap:butt;stroke-linejoin:miter;stroke:rgb(0%,0%,0%);stroke-opacity:1;stroke-miterlimit:4;" d="M 78.999829 116.000155 L 63.5 101.999976 " transform="matrix(3.779528,0,0,3.779528,0,0)"/>
<path style="fill:none;stroke-width:2;stroke-linecap:butt;stroke-linejoin:miter;stroke:rgb(0%,0%,0%);stroke-opacity:1;stroke-miterlimit:4;" d="M 73.000195 100.500326 L 80.999707 116.500382 L 82.999585 132.000212 L 85.000496 148.000269 L 90.499902 164.000326 " transform="matrix(3.779528,0,0,3.779528,0,0)"/>
<path style="fill:none;stroke-width:2;stroke-linecap:butt;stroke-linejoin:miter;stroke:rgb(0%,0%,0%);stroke-opacity:1;stroke-miterlimit:4;" d="M 89.999674 185.499788 L 73.999618 162.99987 L 71.99974 146.999813 " transform="matrix(3.779528,0,0,3.779528,0,0)"/>
<path style="fill:none;stroke-width:2;stroke-linecap:butt;stroke-linejoin:miter;stroke:rgb(0%,0%,0%);stroke-opacity:1;stroke-miterlimit:4;" d="M 76.999951 93.500236 L 93.000008 93.500236 L 114.999699 85.999919 L 137.499618 80.500513 L 153.999902 80.500513 L 170.500187 80.999707 L 186.500244 82.500391 L 202.500301 82.500391 L 218.999552 84.500269 L 235.499837 86.500146 L 251.499894 90.499902 " transform="matrix(3.779528,0,0,3.779528,0,0)"/>
<path style="fill:none;stroke-width:2;stroke-linecap:butt;stroke-linejoin:miter;stroke:rgb(0%,0%,0%);stroke-opacity:1;stroke-miterlimit:4;" d="M 237.999943 106.499959 L 254 112.999821 L 269.499829 128.999878 " transform="matrix(3.779528,0,0,3.779528,0,0)"/>
<path style="fill:none;stroke-width:2;stroke-linecap:butt;stroke-linejoin:miter;stroke:rgb(0%,0%,0%);stroke-opacity:1;stroke-miterlimit:4;" d="M 254 114.500505 L 239.999821 110.499715 L 223.999764 116.500382 " transform="matrix(3.779528,0,0,3.779528,0,0)"/>
<path style="fill:none;stroke-width:2;stroke-linecap:butt;stroke-linejoin:miter;stroke:rgb(0%,0%,0%);stroke-opacity:1;stroke-miterlimit:4;" d="M 242.499927 125.000122 L 226.49987 123.000244 L 227.99952 105.000309 L 243.999577 93.500236 L 227.500326 89.999674 L 211.000041 89.50048 " transform="matrix(3.779528,0,0,3.779528,0,0)"/>
<path style="fill:none;stroke-width:2;stroke-linecap:butt;stroke-linejoin:miter;stroke:rgb(0%,0%,0%);stroke-opacity:1;stroke-miterlimit:4;" d="M 198.000317 109.999487 L 182.500488 94.499658 L 166.999626 91.00013 L 150.999569 94.999886 L 134.999512 93.000008 " transform="matrix(3.779528,0,0,3.779528,0,0)"/>
<path style="fill:none;stroke-width:2;stroke-linecap:butt;stroke-linejoin:miter;stroke:rgb(0%,0%,0%);stroke-opacity:1;stroke-miterlimit:4;" d="M 130.499528 100.000098 L 146.499585 103.999854 L 162.499642 97.499992 L 178.000505 98.999642 " transform="matrix(3.779528,0,0,3.779528,0,0)"/>
<path style="fill:none;stroke-width:2;stroke-linecap:butt;stroke-linejoin:miter;stroke:rgb(0%,0%,0%);stroke-opacity:1;stroke-miterlimit:4;" d="M 175.000171 98.999642 L 182.500488 114.999699 " transform="matrix(3.779528,0,0,3.779528,0,0)"/>
<path style="fill:none;stroke-width:2;stroke-linecap:butt;stroke-linejoin:miter;stroke:rgb(0%,0%,0%);stroke-opacity:1;stroke-miterlimit:4;" d="M 178.499699 114.999699 L 162.499642 116.999577 L 146.499585 110.999943 " transform="matrix(3.779528,0,0,3.779528,0,0)"/>
<path style="fill:none;stroke-width:2;stroke-linecap:butt;stroke-linejoin:miter;stroke:rgb(0%,0%,0%);stroke-opacity:1;stroke-miterlimit:4;" d="M 150.000146 107.000187 L 166.000203 103.000431 L 184.500366 96.999764 L 188.500122 110.499715 L 187.000472 118.50026 L 202.999495 116.000155 L 218.999552 112.000399 L 225.00022 109.500293 L 240.500049 99.49987 L 256.500106 105.499504 " transform="matrix(3.779528,0,0,3.779528,0,0)"/>
<path style="fill:none;stroke-width:2;stroke-linecap:butt;stroke-linejoin:miter;stroke:rgb(0%,0%,0%);stroke-opacity:1;stroke-miterlimit:4;" d="M 218.00013 164.000326 L 202.000073 164.49952 " transform="matrix(3.779528,0,0,3.779528,0,0)"/>
<path style="fill:none;stroke-width:2;stroke-linecap:butt;stroke-linejoin:miter;stroke:rgb(0%,0%,0%);stroke-opacity:1;stroke-miterlimit:4;" d="M 200.999618 157.999658 L 216.999674 155.499552 " transform="matrix(3.779528,0,0,3.779528,0,0)"/>
<path style="fill:none;stroke-width:2;stroke-linecap:butt;stroke-linejoin:miter;stroke:rgb(0%,0%,0%);stroke-opacity:1;stroke-miterlimit:4;" d="M 187.499666 189.999772 L 203.499723 191.500456 L 221.499658 201.499845 " transform="matrix(3.779528,0,0,3.779528,0,0)"/>
<path style="fill:none;stroke-width:2;stroke-linecap:butt;stroke-linejoin:miter;stroke:rgb(0%,0%,0%);stroke-opacity:1;stroke-miterlimit:4;" d="M 237.499715 189.499544 L 221.499658 185.499788 L 205.499601 182.999683 L 189.499544 183.49991 L 171.499609 166.000203 L 155.99978 155.99978 L 139.999723 146.499585 L 123.999666 132.000212 " transform="matrix(3.779528,0,0,3.779528,0,0)"/>
<path style="fill:none;stroke-width:2;stroke-linecap:butt;stroke-linejoin:miter;stroke:rgb(0%,0%,0%);stroke-opacity:1;stroke-miterlimit:4;" d="M 141.000179 154.50013 L 157.000236 162.499642 " transform="matrix(3.779528,0,0,3.779528,0,0)"/>
<path style="fill:none;stroke-width:2;stroke-linecap:butt;stroke-linejoin:miter;stroke:rgb(0%,0%,0%);stroke-opacity:1;stroke-miterlimit:4;" d="M 127.500228 214.499569 L 145.500163 230.499626 L 157.500464 230.499626 L 157.500464 234.500415 L 167.499854 240.500049 L 179.500155 236.000065 L 202.000073 237.999943 L 218.00013 237.999943 L 234.500415 236.000065 L 250.500472 220.000008 L 266.999723 187.499666 " transform="matrix(3.779528,0,0,3.779528,0,0)"/>
<path style="fill:none;stroke-width:2;stroke-linecap:butt;stroke-linejoin:miter;stroke:rgb(0%,0%,0%);stroke-opacity:1;stroke-miterlimit:4;" d="M 256.500106 197.50009 L 240.500049 223.499536 L 224.499992 231.500081 L 208.499935 230.999854 L 176.499821 227.000098 L 160.499764 223.000342 L 144.499707 216.50048 L 128.000456 212.499691 L 112.000399 218.500358 " transform="matrix(3.779528,0,0,3.779528,0,0)"/>
<path style="fill:none;stroke-width:2;stroke-linecap:butt;stroke-linejoin:miter;stroke:rgb(0%,0%,0%);stroke-opacity:1;stroke-miterlimit:4;" d="M 119.99991 212.000496 L 119.499683 227.99952 L 118.000033 244.499805 L 118.000033 260.499862 L 138.500073 273.999813 L 154.50013 275.500496 L 171.000415 280.00048 L 191.000228 287.999992 L 207.000285 289.99987 L 223.000342 287.999992 L 239.000399 298.000415 L 255.000456 297.500187 L 271.000513 289.000448 L 296.999959 296.999959 L 313.000016 293.000203 L 328.499845 300.999715 L 345.00013 313.000016 " transform="matrix(3.779528,0,0,3.779528,0,0)"/>
<path style="fill:none;stroke-width:2;stroke-linecap:butt;stroke-linejoin:miter;stroke:rgb(0%,0%,0%);stroke-opacity:1;stroke-miterlimit:4;" d="M 319.499878 296.999959 L 341.499569 313.000016 L 335.499935 329.500301 L 313.500244 345.500358 L 303.499821 341.999797 L 319.499878 332.000407 " transform="matrix(3.779528,0,0,3.779528,0,0)"/>
<path style="fill:none;stroke-width:2;stroke-linecap:butt;stroke-linejoin:miter;stroke:rgb(0%,0%,0%);stroke-opacity:1;stroke-miterlimit:4;" d="M 341.999797 345.500358 L 325.99974 357.999854 L 309.500488 363.999487 L 329.500301 355.999976 L 348.000464 339.999919 L 354.000098 323.499634 L 343.50048 307.499577 L 315.500122 291.49952 " transform="matrix(3.779528,0,0,3.779528,0,0)"/>
<path style="fill:none;stroke-width:2;stroke-linecap:butt;stroke-linejoin:miter;stroke:rgb(0%,0%,0%);stroke-opacity:1;stroke-miterlimit:4;" d="M 319.499878 288.50022 L 347.500236 304.500277 " transform="matrix(3.779528,0,0,3.779528,0,0)"/>
<path style="fill:none;stroke-width:2;stroke-linecap:butt;stroke-linejoin:miter;stroke:rgb(0%,0%,0%);stroke-opacity:1;stroke-miterlimit:4;" d="M 205.999829 299.500065 L 236.500293 311.500366 L 244.499805 327.500423 L 252.50035 329.999495 L 254.500228 343.999674 L 260.499862 354.000098 L 268.500407 370.000155 L 274.500041 386.000212 L 275.999691 401.500041 L 269.499829 417.500098 L 261.500317 432.999927 L 255.49965 448.999984 L 251.499894 466.000496 " transform="matrix(3.779528,0,0,3.779528,0,0)"/>
<path style="fill:none;stroke-width:2;stroke-linecap:butt;stroke-linejoin:miter;stroke:rgb(0%,0%,0%);stroke-opacity:1;stroke-miterlimit:4;" d="M 255.49965 502.499561 L 245.000033 500.000488 L 239.000399 483.500203 L 246.99991 459.499601 L 250.999666 443.499544 L 259.500439 427.499487 L 265.500073 411.500464 L 271.499707 395.999601 L 266.000301 379.999544 L 259.999634 363.999487 L 252.000122 347.500236 L 239.999821 331.500179 L 224.499992 315.500122 L 202.500301 298.999837 " transform="matrix(3.779528,0,0,3.779528,0,0)"/>
<path style="fill:none;stroke-width:2;stroke-linecap:butt;stroke-linejoin:miter;stroke:rgb(0%,0%,0%);stroke-opacity:1;stroke-miterlimit:4;" d="M 166.500431 291.000326 L 150.000146 289.499642 L 141.500407 280.999902 L 110.999943 280.999902 L 100.500326 264.499618 L 103.999854 248.999788 L 106.499959 232.999731 L 106.499959 216.999674 L 105.000309 200.999618 L 93.000008 184.999561 L 78.999829 168.500309 L 78.999829 152.000024 L 73.500423 135.49974 L 75.500301 119.000488 L 69.499634 102.500203 L 55.500488 91.999552 " transform="matrix(3.779528,0,0,3.779528,0,0)"/>
<path style="fill:none;stroke-width:2;stroke-linecap:butt;stroke-linejoin:miter;stroke:rgb(0%,0%,0%);stroke-opacity:1;stroke-miterlimit:4;" d="M 67.999984 65.499878 L 84.000041 41.500309 L 100.000098 29.500008 L 116.000155 21.500496 L 132.000212 17.999935 L 148.000269 16.000057 L 163.500098 16.000057 L 179.500155 15.499829 L 195.500212 19.499585 L 211.000041 26.00048 L 227.000098 35.99987 L 243.000155 53.999805 L 259.500439 81.499935 " transform="matrix(3.779528,0,0,3.779528,0,0)"/>
<path style="fill:none;stroke-width:2;stroke-linecap:butt;stroke-linejoin:miter;stroke:rgb(0%,0%,0%);stroke-opacity:1;stroke-miterlimit:4;" d="M 200.999618 21.999691 L 227.500326 37.999748 L 241.000277 53.499577 L 251.499894 69.499634 L 259.500439 85.499691 L 257.999756 107.500415 L 264.000423 125.50035 L 268.500407 141.999601 L 270.500285 157.999658 L 266.999723 174.499943 L 261.00009 190.5 L 252.999544 206.500057 L 243.000155 222.500114 " transform="matrix(3.779528,0,0,3.779528,0,0)"/>
<path style="fill:none;stroke-width:2;stroke-linecap:butt;stroke-linejoin:miter;stroke:rgb(0%,0%,0%);stroke-opacity:1;stroke-miterlimit:4;" d="M 217.499902 191.500456 L 217.499902 195.500212 L 213.500146 195.500212 L 195.500212 193.500334 L 175.999593 169.499731 L 156.500008 157.500464 L 146.499585 151.499797 L 124.499894 135.49974 L 128.49965 119.499683 L 134.00009 95.500114 L 127.500228 94.000464 L 131.499984 78.000407 L 105.499504 84.000041 " transform="matrix(3.779528,0,0,3.779528,0,0)"/>
<path style="fill:none;stroke-width:2;stroke-linecap:butt;stroke-linejoin:miter;stroke:rgb(0%,0%,0%);stroke-opacity:1;stroke-miterlimit:4;" d="M 156.500008 98.999642 L 156.500008 114.500505 L 176.499821 112.499593 " transform="matrix(3.779528,0,0,3.779528,0,0)"/>
<path style="fill:none;stroke-width:2;stroke-linecap:butt;stroke-linejoin:miter;stroke:rgb(0%,0%,0%);stroke-opacity:1;stroke-miterlimit:4;" d="M 270.000057 85.999919 L 254.500228 60.000472 L 238.500171 36.500098 L 222.500114 24.499797 L 206.500057 18.500163 L 190.5 12.499495 L 173.000293 4.499984 L 157.000236 10.499618 L 152.500252 4.499984 L 135.999967 10.499618 L 119.99991 14.500407 L 103.999854 22.499919 L 87.999797 32.500342 L 71.99974 48.000171 L 67.499756 69.499634 L 73.500423 53.000382 L 87.499569 37.000326 L 111.500171 21.000269 " transform="matrix(3.779528,0,0,3.779528,0,0)"/>
<path style="fill:none;stroke-width:2;stroke-linecap:butt;stroke-linejoin:miter;stroke:rgb(0%,0%,0%);stroke-opacity:1;stroke-miterlimit:4;" d="M 200.999618 15.499829 L 228.999976 31.499886 L 245.50026 47.499943 L 255.49965 63.5 L 264.000423 78.999829 L 271.999935 95.500114 L 270.000057 111.500171 L 270.000057 128.000456 L 273.999813 144.000513 L 275.999691 160.499764 L 270.000057 176.499821 L 266.000301 193.000106 L 257.499528 209.000163 L 247.500138 224.499992 " transform="matrix(3.779528,0,0,3.779528,0,0)"/>
<path style="fill:none;stroke-width:2;stroke-linecap:butt;stroke-linejoin:miter;stroke:rgb(0%,0%,0%);stroke-opacity:1;stroke-miterlimit:4;" d="M 192.499878 236.500293 L 187.000472 252.50035 L 182.999683 268.500407 L 180.999805 284.000236 L 187.000472 309.999683 L 202.999495 301.499943 L 218.999552 305.499699 L 234.999609 309.00026 L 239.499593 323.000439 L 257.499528 357.000431 " transform="matrix(3.779528,0,0,3.779528,0,0)"/>
<path style="fill:none;stroke-width:2;stroke-linecap:butt;stroke-linejoin:miter;stroke:rgb(0%,0%,0%);stroke-opacity:1;stroke-miterlimit:4;" d="M 249.500016 492.500171 L 233.499959 482.499748 L 217.499902 480.49987 L 200.999618 477.999764 L 184.999561 479.999642 L 169.499731 490.000065 L 167.499854 505.499894 L 166.000203 495.500505 L 182.00026 479.00022 L 182.00026 456.999495 L 173.999715 441.000472 L 164.49952 425.499609 L 152.500252 409.499552 L 139.999723 393.999723 L 132.000212 377.999666 L 128.000456 361.500415 L 121.999788 345.500358 L 113.500049 329.500301 L 98.500448 313.500244 L 68.500212 297.500187 " transform="matrix(3.779528,0,0,3.779528,0,0)"/>
<path style="fill:none;stroke-width:2;stroke-linecap:butt;stroke-linejoin:miter;stroke:rgb(0%,0%,0%);stroke-opacity:1;stroke-miterlimit:4;" d="M 34.50022 276.499919 L 52.500155 300.499487 L 58.499788 316.499544 L 52.500155 332.499601 L 50.500277 348.499658 L 44.499609 364.499715 L 37.000326 380.499772 L 2.500106 395.999601 L 18.500163 391.999845 L 34.50022 381.500228 L 48.500399 364.999943 L 60.000472 343.50048 " transform="matrix(3.779528,0,0,3.779528,0,0)"/>
<path style="fill:none;stroke-width:2;stroke-linecap:butt;stroke-linejoin:miter;stroke:rgb(0%,0%,0%);stroke-opacity:1;stroke-miterlimit:4;" d="M 16.000057 350.499536 L 2.500106 364.499715 L 20.500041 354.500326 L 30.000236 339.000496 L 32.000114 323.000439 L 32.000114 307.499577 L 26.00048 291.49952 L 30.500464 275.500496 " transform="matrix(3.779528,0,0,3.779528,0,0)"/>
<path style="fill:none;stroke-width:2;stroke-linecap:butt;stroke-linejoin:miter;stroke:rgb(0%,0%,0%);stroke-opacity:1;stroke-miterlimit:4;" d="M 130.999756 270.500285 L 129.500106 254.500228 L 131.499984 238.500171 " transform="matrix(3.779528,0,0,3.779528,0,0)"/>
<path style="fill:none;stroke-width:2;stroke-linecap:butt;stroke-linejoin:miter;stroke:rgb(0%,0%,0%);stroke-opacity:1;stroke-miterlimit:4;" d="M 127 234.500415 L 123.000244 250.500472 L 121.000366 266.000301 L 127 289.499642 " transform="matrix(3.779528,0,0,3.779528,0,0)"/>
<path style="fill:none;stroke-width:2;stroke-linecap:butt;stroke-linejoin:miter;stroke:rgb(0%,0%,0%);stroke-opacity:1;stroke-miterlimit:4;" d="M 187.999894 237.999943 L 182.00026 254 L 178.000505 270.000057 L 164.000326 288.50022 L 171.999837 292.499976 L 175.999593 308.500033 L 191.500456 306.500155 L 211.000041 306.500155 L 227.000098 318.500456 L 243.500382 320.000106 L 259.500439 341.999797 L 275.500496 357.999854 L 291.49952 364.499715 L 307.499577 388.500317 L 323.999862 393.000301 L 339.999919 395.000179 L 355.999976 397.500285 L 372.000033 399.500163 L 388.00009 402.999691 L 404.000146 402.999691 L 420.000203 402.500496 L 436.00026 398.999935 L 451.50009 381 L 467.500146 386.999634 L 484.000431 390.500195 L 500.000488 355.999976 " transform="matrix(3.779528,0,0,3.779528,0,0)"/>
<path style="fill:none;stroke-width:2;stroke-linecap:butt;stroke-linejoin:miter;stroke:rgb(0%,0%,0%);stroke-opacity:1;stroke-miterlimit:4;" d="M 434.499577 116.000155 L 418.49952 109.500293 " transform="matrix(3.779528,0,0,3.779528,0,0)"/>
<path style="fill:none;stroke-width:2;stroke-linecap:butt;stroke-linejoin:miter;stroke:rgb(0%,0%,0%);stroke-opacity:1;stroke-miterlimit:4;" d="M 415.50022 99.49987 L 431.500277 89.50048 L 451.50009 77.500179 L 467.500146 61.500122 L 484.000431 57.500366 L 500.000488 59.500244 L 506.000122 61.500122 " transform="matrix(3.779528,0,0,3.779528,0,0)"/>
<path style="fill:none;stroke-width:2;stroke-linecap:butt;stroke-linejoin:miter;stroke:rgb(0%,0%,0%);stroke-opacity:1;stroke-miterlimit:4;" d="M 502.000366 62.999772 L 504.000244 79.500057 L 504.000244 95.500114 L 506.000122 111.500171 " transform="matrix(3.779528,0,0,3.779528,0,0)"/>
<path style="fill:none;stroke-width:2;stroke-linecap:butt;stroke-linejoin:miter;stroke:rgb(0%,0%,0%);stroke-opacity:1;stroke-miterlimit:4;" d="M 509.999878 129.500106 L 493.999821 129.500106 L 491.999943 134.00009 L 497.500382 117.499805 L 491.499715 101.499748 L 483.500203 83.499813 L 484.000431 65.499878 L 502.000366 57.500366 " transform="matrix(3.779528,0,0,3.779528,0,0)"/>
</g>
</svg>
