<svg xmlns="http://www.w3.org/2000/svg" width="512mm" height="512mm" viewBox="0 0 512 512" version="1.1"><polyline points="325.5,98.5,353.5,114.5,363.5,130.5,363.5,146.5,361.5,163.0,363.5,179.0,361.5,195.0,357.5,211.0,347.0,227.0,339.0,240.5,346.5,244.5,357.0,248.5,375.0,252.5,391.0,244.5,407.5,240.0,423.5,241.5,439.5,249.0,455.5,247.0,471.5,241.0,487.5,234.5,504.0,234.5" stroke="black" stroke-width="2" fill="none" />
<polyline points="498.0,252.0,482.0,256.0,466.0,259.5,446.0,260.0,430.0,250.0,414.5,244.5,398.5,248.5,382.5,258.5,366.5,266.5,378.5,274.5,398.5,258.5" stroke="black" stroke-width="2" fill="none" />
<polyline points="404.0,261.0,402.0,277.0,381.5,279.0,383.5,277.0,399.5,265.0,407.5,277.0" stroke="black" stroke-width="2" fill="none" />
<polyline points="410.5,285.0,394.5,301.5,398.0,305.5,396.0,323.5,392.0,336.0,382.0,352.0,397.5,368.0,399.5,377.5,391.5,395.5,403.0,407.5,411.0,423.5,405.0,445.5,415.0,462.0,429.5,488.5,428.0,504.5" stroke="black" stroke-width="2" fill="none" />
<polyline points="434.0,503.5,434.0,487.5,452.0,473.5,470.0,457.5,468.0,442.0,462.0,426.0,462.0,410.0,478.0,402.5,481.5,386.5,485.5,371.0,467.5,357.0,475.5,339.0,481.5,323.0,473.5,325.0,457.5,328.5,441.5,332.5" stroke="black" stroke-width="2" fill="none" />
<polyline points="443.0,335.5,459.0,331.5,475.5,333.5,483.5,339.5,485.5,355.0,479.5,371.0,489.5,393.5,490.0,409.5,492.5,426.0,495.0,442.0,497.5,458.5" stroke="black" stroke-width="2" fill="none" />
<polyline points="506.0,486.0,490.0,488.0" stroke="black" stroke-width="2" fill="none" />
<polyline points="492.5,492.0,509.0,492.0" stroke="black" stroke-width="2" fill="none" />
<polyline points="463.0,455.5,461.5,439.5,445.5,423.5,442.0,415.5,426.0,415.5,410.5,417.0,397.0,399.0,387.0,387.5,387.0,362.0,377.0,360.0" stroke="black" stroke-width="2" fill="none" />
<polyline points="377.0,359.5,389.0,375.5" stroke="black" stroke-width="2" fill="none" />
<polyline points="399.0,373.5,383.0,357.5" stroke="black" stroke-width="2" fill="none" />
<polyline points="376.0,354.5,392.5,360.0,414.0,364.0" stroke="black" stroke-width="2" fill="none" />
<polyline points="426.5,345.0,410.5,329.0" stroke="black" stroke-width="2" fill="none" />
<polyline points="412.0,328.5,422.0,345.0,425.5,361.0,415.5,366.5,435.5,376.5,451.5,392.0,456.0,408.0,457.5,424.0" stroke="black" stroke-width="2" fill="none" />
<polyline points="462.0,406.0,478.0,402.0,505.5,386.0,509.5,396.0" stroke="black" stroke-width="2" fill="none" />
<polyline points="493.0,353.5,509.0,349.0" stroke="black" stroke-width="2" fill="none" />
<polyline points="506.0,339.0,490.0,335.0" stroke="black" stroke-width="2" fill="none" />
<polyline points="502.5,344.0,475.0,348.0,469.0,363.5,455.0,367.5,439.5,375.0,423.5,375.0,407.5,383.0,391.0,383.5,379.0,383.5,363.0,405.5,355.0,383.5,339.0,378.0,323.0,376.0,307.0,378.5,291.0,378.5,275.0,376.5,259.0,382.5,243.0,390.5,235.0,368.5,227.0,353.0,223.0,337.0,231.5,321.0,242.0,309.0,246.0,295.0,246.5,293.0,248.5,277.0,252.5,256.5,286.5,228.5,274.5,213.0,268.5,197.0,266.0,181.0,264.0,165.0,261.5,148.5,261.5,132.5,269.0,116.0,259.0,134.0" stroke="black" stroke-width="2" fill="none" />
<polyline points="254.5,137.0,270.5,109.0,286.0,99.5,302.0,97.0,318.0,97.0,334.0,100.5,350.0,110.5,366.5,132.0" stroke="black" stroke-width="2" fill="none" />
<polyline points="360.5,130.0,344.5,111.5,328.5,101.5,313.0,101.5,297.0,101.5" stroke="black" stroke-width="2" fill="none" />
<polyline points="289.0,104.0,285.5,120.0,289.0,131.5,305.5,127.5" stroke="black" stroke-width="2" fill="none" />
<polyline points="310.0,131.0,294.0,131.5" stroke="black" stroke-width="2" fill="none" />
<polyline points="271.5,113.5,287.5,103.5,269.5,109.0,258.0,125.0,254.5,140.5,261.0,156.0,260.5,171.5,262.0,187.5,265.5,203.5,271.5,219.5,273.0,241.0,253.5,235.5,270.0,231.5" stroke="black" stroke-width="2" fill="none" />
<polyline points="275.0,226.0,259.0,229.5,243.5,239.0" stroke="black" stroke-width="2" fill="none" />
<polyline points="253.0,231.0,242.5,247.0,233.0,263.0,244.5,281.0" stroke="black" stroke-width="2" fill="none" />
<polyline points="248.5,306.0,264.5,306.0,280.0,304.0,296.0,305.5,312.0,303.5,328.0,303.5,344.0,303.0,360.5,303.5" stroke="black" stroke-width="2" fill="none" />
<polyline points="372.5,281.0,388.5,263.0,404.5,259.5,420.5,271.5" stroke="black" stroke-width="2" fill="none" />
<polyline points="409.0,266.0,429.0,281.5,415.5,305.5,406.0,305.5,394.5,319.5,382.5,330.0,375.0,346.0,371.0,362.0,378.5,378.0,376.5,394.0,378.5,404.5,362.5,412.5,364.5,428.0,360.5,444.0,346.5,460.0,334.5,476.0,326.0,466.0,350.0,467.5,360.0,463.5,376.0,454.0,392.0,454.0,408.0,460.0" stroke="black" stroke-width="2" fill="none" />
<polyline points="407.5,450.5,424.0,468.5,440.0,474.5" stroke="black" stroke-width="2" fill="none" />
<polyline points="447.5,493.0,451.5,509.0" stroke="black" stroke-width="2" fill="none" />
<polyline points="447.5,510.0,443.5,494.0,441.5,488.0,426.0,484.5,402.0,484.5,410.5,491.0,412.5,475.0,392.5,461.0,376.0,461.0,360.0,473.0,344.0,477.0,356.0,461.0,366.0,447.0,368.5,430.5,386.5,412.5,401.0,396.5,417.0,380.5,403.0,364.5,385.0,348.5,391.0,326.5,378.5,334.5,376.5,342.5" stroke="black" stroke-width="2" fill="none" />
<polyline points="386.5,347.5,402.5,363.5" stroke="black" stroke-width="2" fill="none" />
<polyline points="388.0,374.5,372.5,368.5" stroke="black" stroke-width="2" fill="none" />
<polyline points="370.5,352.0,387.0,342.0,403.0,326.0,419.0,322.0,435.0,332.5,451.0,346.5,467.0,342.5,480.5,334.5,472.0,350.5,459.5,352.5" stroke="black" stroke-width="2" fill="none" />
<polyline points="481.5,314.0,497.5,312.0" stroke="black" stroke-width="2" fill="none" />
<polyline points="505.0,315.0,489.5,317.0" stroke="black" stroke-width="2" fill="none" />
<polyline points="487.5,317.5,487.5,333.5,490.0,349.5,492.0,365.5,494.0,381.5,494.0,397.5,496.0,413.5,498.0,429.5,500.0,449.5,505.5,460.0,509.5,448.0,505.5,454.0" stroke="black" stroke-width="2" fill="none" />
<polyline points="452.5,453.0,436.5,425.0" stroke="black" stroke-width="2" fill="none" />
<polyline points="435.0,422.0,443.0,438.0,453.0,453.5" stroke="black" stroke-width="2" fill="none" />
<polyline points="444.0,451.0,428.0,425.5" stroke="black" stroke-width="2" fill="none" />
<polyline points="431.5,414.0,419.5,426.0,435.5,434.0,445.0,450.0,454.5,465.5,456.0,470.0" stroke="black" stroke-width="2" fill="none" />
<polyline points="467.0,436.5,451.0,426.0,435.0,420.0,419.0,425.5,403.0,411.5" stroke="black" stroke-width="2" fill="none" />
<polyline points="354.5,402.0,338.0,396.5,322.5,394.5,306.5,394.5,290.5,394.0,274.0,395.5,258.0,399.5,248.0,419.5,242.0,397.5,256.0,381.5,262.0,349.0,246.5,325.0" stroke="black" stroke-width="2" fill="none" />
<polyline points="246.5,316.5,257.0,332.5,267.0,349.0,279.0,365.5" stroke="black" stroke-width="2" fill="none" />
<polyline points="308.5,345.5,309.0,349.5,317.0,335.5,301.0,341.5,299.0,315.5,283.0,317.5,267.0,317.5,250.5,317.5" stroke="black" stroke-width="2" fill="none" />
<polyline points="244.0,310.5,260.5,313.0,276.5,311.5,292.5,312.0" stroke="black" stroke-width="2" fill="none" />
<polyline points="296.5,327.5,312.5,321.5,321.0,335.0" stroke="black" stroke-width="2" fill="none" />
<polyline points="318.0,317.5,334.5,317.5,345.0,323.5" stroke="black" stroke-width="2" fill="none" />
<polyline points="352.0,311.5,336.0,311.5,320.0,309.5" stroke="black" stroke-width="2" fill="none" />
<polyline points="349.5,253.5,366.0,255.5" stroke="black" stroke-width="2" fill="none" />
<polyline points="367.0,228.5,351.0,228.5" stroke="black" stroke-width="2" fill="none" />
<polyline points="327.0,212.0,311.5,211.5,296.0,212.0" stroke="black" stroke-width="2" fill="none" />
<polyline points="291.0,205.5,307.5,205.5,323.5,207.5" stroke="black" stroke-width="2" fill="none" />
<polyline points="352.5,219.5,336.5,236.0,320.0,236.0,304.0,236.5,288.0,229.0,271.5,207.0" stroke="black" stroke-width="2" fill="none" />
<polyline points="256.0,234.0,245.5,250.0,250.0,252.5,266.0,246.5" stroke="black" stroke-width="2" fill="none" />
<polyline points="230.0,289.5,214.0,287.5" stroke="black" stroke-width="2" fill="none" />
<polyline points="191.5,284.0,207.5,282.0,223.5,284.5,240.0,288.5" stroke="black" stroke-width="2" fill="none" />
<polyline points="233.5,267.5,217.0,263.5,200.5,267.5,184.5,279.5" stroke="black" stroke-width="2" fill="none" />
<polyline points="190.5,273.5,178.5,289.5,199.5,295.5,208.0,301.5,216.0,317.5,198.0,332.0,194.0,346.0,180.5,361.5,178.5,363.5,194.0,341.0,210.0,333.0" stroke="black" stroke-width="2" fill="none" />
<polyline points="218.0,334.5,222.0,350.5,228.0,366.0,236.0,382.0" stroke="black" stroke-width="2" fill="none" />
<polyline points="225.0,354.0,241.0,386.0,257.0,376.0,273.0,372.0,289.0,372.0,305.0,374.0,321.0,370.0,337.0,348.0,353.0,330.0,369.0,310.0" stroke="black" stroke-width="2" fill="none" />
<polyline points="419.0,332.5,431.0,348.5,432.5,364.5,436.5,370.5,452.5,374.5,472.5,374.5" stroke="black" stroke-width="2" fill="none" />
<polyline points="487.0,295.0,503.5,295.5" stroke="black" stroke-width="2" fill="none" />
<polyline points="502.0,289.5,486.0,289.0" stroke="black" stroke-width="2" fill="none" />
<polyline points="508.0,281.0,492.5,282.5,476.0,284.5,459.5,290.0,443.5,288.0,427.5,290.0,411.0,286.0,395.5,297.5,379.0,305.5,356.5,299.5,340.0,297.5,324.5,299.5,308.5,299.0,293.0,299.0,277.5,299.0,262.0,299.0,246.0,307.0,230.0,314.5,214.5,307.0,198.5,293.5,182.5,295.0" stroke="black" stroke-width="2" fill="none" />
<polyline points="182.0,301.0,198.0,299.0" stroke="black" stroke-width="2" fill="none" />
<polyline points="200.0,306.0,184.5,306.0,176.5,305.5" stroke="black" stroke-width="2" fill="none" />
<polyline points="179.0,316.0,163.0,310.0,153.0,345.5,137.0,362.0,121.0,368.0,117.0,366.5,113.0,350.5,117.0,334.5" stroke="black" stroke-width="2" fill="none" />
<polyline points="120.5,333.5,130.5,337.5,138.5,353.5,136.5,370.0" stroke="black" stroke-width="2" fill="none" />
<polyline points="129.5,335.5,113.5,339.5" stroke="black" stroke-width="2" fill="none" />
<polyline points="126.5,325.5,142.5,325.5,159.0,309.5,169.0,311.5,180.5,339.0" stroke="black" stroke-width="2" fill="none" />
<polyline points="164.0,315.5,162.5,331.5,150.5,347.5,150.5,358.0" stroke="black" stroke-width="2" fill="none" />
<polyline points="81.0,347.5,65.0,343.5,49.0,341.0" stroke="black" stroke-width="2" fill="none" />
<polyline points="51.0,342.0,51.0,357.5,51.0,373.5,65.0,372.0,81.0,370.5" stroke="black" stroke-width="2" fill="none" />
<polyline points="69.5,349.5,54.0,345.5" stroke="black" stroke-width="2" fill="none" />
<polyline points="57.0,347.5,54.5,364.0,65.0,378.0,81.0,382.0" stroke="black" stroke-width="2" fill="none" />
<polyline points="23.0,393.0,18.5,402.5,2.0,399.0" stroke="black" stroke-width="2" fill="none" />
<polyline points="1.0,403.5,17.5,406.0" stroke="black" stroke-width="2" fill="none" />
<polyline points="21.5,412.0,5.5,410.0" stroke="black" stroke-width="2" fill="none" />
<polyline points="2.0,392.5,2.0,384.0,18.0,383.5,22.0,377.5" stroke="black" stroke-width="2" fill="none" />
<polyline points="23.0,369.5,19.0,373.5,3.0,378.0" stroke="black" stroke-width="2" fill="none" />
<polyline points="2.5,368.5,18.5,366.0,26.5,389.5,22.5,397.5,30.0,413.0,24.0,429.5,21.5,443.5,15.5,455.5,17.5,470.0,12.0,462.0,2.0,476.0,6.0,480.5,14.0,466.5" stroke="black" stroke-width="2" fill="none" />
<polyline points="20.5,456.0,4.5,449.5,2.5,457.5" stroke="black" stroke-width="2" fill="none" />
<polyline points="2.0,454.5,10.0,443.0" stroke="black" stroke-width="2" fill="none" />
<polyline points="2.0,447.0,4.0,439.0,20.5,437.0" stroke="black" stroke-width="2" fill="none" />
<polyline points="2.0,434.5,10.0,420.5,26.0,418.5" stroke="black" stroke-width="2" fill="none" />
<polyline points="16.5,362.5,0.5,363.0" stroke="black" stroke-width="2" fill="none" />
<polyline points="1.5,356.0,3.5,349.5,5.5,343.5,21.5,351.5" stroke="black" stroke-width="2" fill="none" />
<polyline points="18.0,337.5,2.0,337.5" stroke="black" stroke-width="2" fill="none" />
<polyline points="2.0,335.0,18.0,335.0" stroke="black" stroke-width="2" fill="none" />
<polyline points="34.5,335.0,18.5,327.0,2.5,327.0" stroke="black" stroke-width="2" fill="none" />
<polyline points="3.0,318.5,19.0,320.5,35.0,322.5,35.5,334.5,29.5,348.5" stroke="black" stroke-width="2" fill="none" />
<polyline points="3.0,315.0,19.0,315.0,35.0,317.0,40.5,326.5,38.0,342.0,36.0,358.0,26.0,365.5,36.0,370.0,34.0,386.0,28.0,402.0,18.0,418.5,30.0,428.5,28.0,444.0,26.0,460.0,22.0,475.5" stroke="black" stroke-width="2" fill="none" />
<polyline points="17.5,486.5,1.5,486.5" stroke="black" stroke-width="2" fill="none" />
<polyline points="18.0,498.0,2.0,497.5,16.0,503.5,36.0,507.5,40.0,491.5" stroke="black" stroke-width="2" fill="none" />
<polyline points="43.5,494.0,39.5,510.0" stroke="black" stroke-width="2" fill="none" />
<polyline points="78.5,502.0,80.0,486.0,84.0,470.0,84.0,470.0" stroke="black" stroke-width="2" fill="none" />
<polyline points="95.5,470.0,93.5,486.0,91.5,502.5" stroke="black" stroke-width="2" fill="none" />
<polyline points="101.5,480.5,117.5,474.5,133.5,471.0,149.5,471.0,161.0,473.0,158.5,488.5,162.5,489.0,170.5,508.5" stroke="black" stroke-width="2" fill="none" />
<polyline points="138.0,485.0,154.0,482.5,176.5,472.0,192.5,472.0" stroke="black" stroke-width="2" fill="none" />
<polyline points="196.5,466.0,180.5,466.5,165.0,468.5" stroke="black" stroke-width="2" fill="none" />
<polyline points="175.0,500.0,159.0,506.0,143.0,508.0,127.5,508.0,123.5,508.0,132.0,494.0,134.5,478.0,108.5,465.5" stroke="black" stroke-width="2" fill="none" />
<polyline points="102.0,474.5,100.0,490.0,95.5,506.5" stroke="black" stroke-width="2" fill="none" />
<polyline points="81.0,456.0,97.0,456.0,113.5,451.5,129.5,450.0,145.5,450.0,161.5,450.0,177.5,450.0,194.0,450.0,210.5,448.0,216.5,448.0,218.5,464.0,224.5,490.0,252.0,506.0" stroke="black" stroke-width="2" fill="none" />
<polyline points="266.5,502.0,250.0,488.0,234.0,482.0" stroke="black" stroke-width="2" fill="none" />
<polyline points="234.0,482.0,261.5,498.0" stroke="black" stroke-width="2" fill="none" />
<polyline points="258.0,477.0,273.5,467.5,289.5,475.5,305.5,471.5" stroke="black" stroke-width="2" fill="none" />
<polyline points="302.0,476.0,284.0,468.0,268.5,462.5" stroke="black" stroke-width="2" fill="none" />
<polyline points="267.5,454.5,283.5,456.0,299.5,466.0,315.5,464.5" stroke="black" stroke-width="2" fill="none" />
<polyline points="317.0,459.5,319.0,444.0" stroke="black" stroke-width="2" fill="none" />
<polyline points="346.0,448.0,330.5,448.0,315.0,448.5,299.0,446.5,283.0,448.5,267.5,450.5" stroke="black" stroke-width="2" fill="none" />
<polyline points="254.5,454.0,274.5,470.0" stroke="black" stroke-width="2" fill="none" />
<polyline points="253.5,498.0,237.5,487.5,222.0,491.5,206.0,507.0,216.0,491.0" stroke="black" stroke-width="2" fill="none" />
<polyline points="231.5,486.0,257.5,502.0" stroke="black" stroke-width="2" fill="none" />
<polyline points="249.5,499.5,233.0,491.5" stroke="black" stroke-width="2" fill="none" />
<polyline points="238.5,475.0,264.0,491.5" stroke="black" stroke-width="2" fill="none" />
<polyline points="263.5,489.5,256.0,471.0,240.0,477.0,224.0,479.0,208.0,491.0,204.0,501.0,214.0,485.0,222.0,469.5,222.0,453.5" stroke="black" stroke-width="2" fill="none" />
<polyline points="250.5,420.5,266.5,412.5,282.5,410.5,298.0,410.5,314.0,410.5,330.5,412.5,346.5,414.0" stroke="black" stroke-width="2" fill="none" />
<polyline points="346.5,400.0,336.5,401.5,321.0,397.5,305.5,397.0,289.5,396.5,274.0,399.0,258.0,403.0" stroke="black" stroke-width="2" fill="none" />
<polyline points="265.0,402.5,251.0,402.0,251.0,428.0,253.0,443.5,266.5,443.5,282.0,441.5,298.0,441.5,313.5,441.5,327.5,455.5,339.5,456.0,319.5,462.0" stroke="black" stroke-width="2" fill="none" />
<polyline points="344.0,505.5,350.0,501.5,340.0,504.0,336.0,500.0,352.0,486.5,368.0,476.5,384.0,478.5" stroke="black" stroke-width="2" fill="none" />
<polyline points="381.5,476.0,389.5,492.5" stroke="black" stroke-width="2" fill="none" />
<polyline points="387.0,495.5,371.0,485.5" stroke="black" stroke-width="2" fill="none" />
<polyline points="368.5,486.5,392.5,502.5" stroke="black" stroke-width="2" fill="none" />
<polyline points="384.5,502.0,368.0,492.0" stroke="black" stroke-width="2" fill="none" />
<polyline points="371.0,493.5,391.0,509.5" stroke="black" stroke-width="2" fill="none" />
<polyline points="397.5,499.0,397.5,485.0,399.5,469.0,405.5,459.0,401.5,442.5,407.5,426.5,399.5,410.5,387.5,402.5,371.5,410.0,355.5,424.0,339.0,418.0,323.5,416.0,308.0,416.0,292.5,416.5,276.5,416.5,260.5,419.0" stroke="black" stroke-width="2" fill="none" />
<polyline points="212.5,451.5,196.5,454.0,180.0,454.5,164.0,457.0,148.0,457.0,131.5,457.0,115.5,459.0,99.5,450.5,83.5,453.0" stroke="black" stroke-width="2" fill="none" />
<polyline points="78.0,452.0,94.0,446.0,110.0,446.0" stroke="black" stroke-width="2" fill="none" />
<polyline points="85.0,445.5,79.0,461.5,79.0,477.5,74.5,493.5,74.0,509.0" stroke="black" stroke-width="2" fill="none" />
<polyline points="50.5,294.0,35.0,290.5,19.0,286.5,3.5,284.5" stroke="black" stroke-width="2" fill="none" />
<polyline points="2.5,280.0,18.5,282.0,34.5,283.5,50.0,287.0" stroke="black" stroke-width="2" fill="none" />
<polyline points="55.5,267.5,89.5,283.5,116.0,299.5,114.0,316.0,111.5,332.0,107.5,348.0,106.0,364.0" stroke="black" stroke-width="2" fill="none" />
<polyline points="113.5,291.5,97.5,285.5,81.5,279.0,65.5,271.5,49.5,266.0,34.0,262.0,18.0,256.5,2.0,252.0" stroke="black" stroke-width="2" fill="none" />
<polyline points="2.0,244.5,18.0,250.5,34.5,254.5,50.5,259.0,66.5,265.0,82.5,273.0,98.5,281.0,114.5,287.5" stroke="black" stroke-width="2" fill="none" />
<polyline points="114.5,283.5,98.5,275.5,82.5,267.5,66.5,259.5,50.0,253.5,33.5,250.0,17.5,244.0,1.5,236.0" stroke="black" stroke-width="2" fill="none" />
<polyline points="5.0,232.5,29.0,248.5,77.0,260.0,109.0,276.0" stroke="black" stroke-width="2" fill="none" />
<polyline points="130.5,257.5,146.5,257.5,154.5,267.5" stroke="black" stroke-width="2" fill="none" />
<polyline points="160.0,271.5,144.0,273.5,136.0,275.5,114.0,277.5,97.5,269.5,81.5,261.5,66.0,253.5,50.5,247.0,34.5,243.0,19.0,236.5,3.0,228.5" stroke="black" stroke-width="2" fill="none" />
<polyline points="11.5,236.5,53.5,256.5,87.5,272.5" stroke="black" stroke-width="2" fill="none" />
<polyline points="89.5,278.5,53.5,262.5" stroke="black" stroke-width="2" fill="none" />
<polyline points="115.5,223.0,131.5,231.0" stroke="black" stroke-width="2" fill="none" />
<polyline points="123.5,221.0,139.5,224.5,155.5,222.5" stroke="black" stroke-width="2" fill="none" />
<polyline points="172.0,198.0,170.0,216.5,170.0,216.5,166.0,204.5,162.0,188.5,162.0,180.0" stroke="black" stroke-width="2" fill="none" />
<polyline points="165.5,183.5,169.5,199.5,173.5,219.5,161.5,235.0,169.5,247.0,169.5,262.5,170.0,282.5,164.5,298.0,157.0,316.0" stroke="black" stroke-width="2" fill="none" />
<polyline points="135.5,299.0,139.5,283.0" stroke="black" stroke-width="2" fill="none" />
<polyline points="132.5,256.5,126.5,272.5,122.5,288.5,120.5,304.5,118.5,320.5,122.5,336.5,133.0,352.5,130.5,368.0,124.5,374.0,140.5,373.5,156.5,367.0,172.0,349.5,192.0,331.5,216.0,318.0,230.5,322.0,246.5,318.5,262.5,343.0,278.0,365.0" stroke="black" stroke-width="2" fill="none" />
<polyline points="238.5,320.5,249.0,336.5,261.0,352.5,271.0,368.5,241.5,384.0,237.5,399.5,243.5,415.0,245.5,433.0,253.5,449.0,259.5,464.5,264.0,470.5,278.0,478.5,282.5,478.5,298.5,483.0,314.5,483.0,330.5,479.0,346.5,457.0,360.5,455.5" stroke="black" stroke-width="2" fill="none" />
<polyline points="373.5,453.5,355.5,469.5" stroke="black" stroke-width="2" fill="none" />
<polyline points="379.5,457.0,357.5,473.0,345.5,489.0,329.5,505.5,337.5,505.5,351.5,495.5,368.0,486.0,384.0,484.5,400.0,501.0" stroke="black" stroke-width="2" fill="none" />
<polyline points="413.0,500.0,417.5,484.0" stroke="black" stroke-width="2" fill="none" />
<polyline points="372.0,392.0,350.0,376.0" stroke="black" stroke-width="2" fill="none" />
<polyline points="474.0,384.5,458.0,388.5,448.0,360.5,440.0,344.5,428.5,328.5,434.5,314.5,434.0,303.0,434.0,301.0,448.0,279.5,442.0,263.5,416.5,247.5" stroke="black" stroke-width="2" fill="none" />
<polyline points="420.0,242.0,448.0,258.0,460.0,256.0,476.0,252.5,492.0,248.5,508.0,246.5" stroke="black" stroke-width="2" fill="none" />
<polyline points="497.0,230.0,481.0,232.0,465.0,238.5,449.0,244.5,478.5,238.5" stroke="black" stroke-width="2" fill="none" />
<polyline points="467.0,236.5,447.0,252.5,453.0,274.0,445.0,293.5,441.0,309.5,441.0,325.0,441.5,331.0,456.0,349.5,456.0,369.5,460.0,381.5,476.0,377.5" stroke="black" stroke-width="2" fill="none" />
<polyline points="363.5,381.0,347.5,375.0,331.0,371.5,331.0,353.5,342.5,337.5,356.5,322.0,368.5,306.0,361.0,294.5,361.0,278.5,369.5,262.5,395.5,242.5" stroke="black" stroke-width="2" fill="none" />
<polyline points="346.0,161.5,330.5,167.5,315.0,170.0,299.5,170.0,283.5,168.0,268.0,174.0" stroke="black" stroke-width="2" fill="none" />
<polyline points="272.0,163.0,276.0,179.5,282.0,181.5,298.0,175.5,314.0,175.5,330.0,179.5,346.0,173.5" stroke="black" stroke-width="2" fill="none" />
<polyline points="340.0,228.0,348.0,215.5,356.0,199.5,358.0,184.0,357.5,167.5,357.5,151.5,359.5,135.5,352.0,119.5,328.0,103.5" stroke="black" stroke-width="2" fill="none" />
<polyline points="323.5,101.0,319.5,117.0" stroke="black" stroke-width="2" fill="none" />
<polyline points="313.0,115.5,313.0,99.5" stroke="black" stroke-width="2" fill="none" />
<polyline points="168.5,210.0,152.0,186.0,136.0,174.0" stroke="black" stroke-width="2" fill="none" />
<polyline points="142.0,176.5,153.5,192.0,161.5,203.5,157.5,207.5,164.0,216.0,156.0,232.0,166.0,248.0,162.0,264.0,162.5,286.0,158.5,301.5,149.0,317.5" stroke="black" stroke-width="2" fill="none" />
<polyline points="172.0,248.0,153.5,236.0,125.5,224.0,128.0,204.5,122.0,202.5,122.0,194.0,106.0,185.5" stroke="black" stroke-width="2" fill="none" />
<polyline points="104.0,186.0,120.0,176.0,136.5,187.5,140.5,208.0,153.0,214.0" stroke="black" stroke-width="2" fill="none" />
<polyline points="134.0,202.5,118.0,196.5" stroke="black" stroke-width="2" fill="none" />
<polyline points="105.5,191.5,113.5,217.5,129.5,209.5,131.5,217.5,148.0,217.5" stroke="black" stroke-width="2" fill="none" />
<polyline points="145.5,188.0,127.5,191.5,112.0,181.5" stroke="black" stroke-width="2" fill="none" />
<polyline points="118.0,175.5,136.0,175.5,146.0,192.0,146.0,198.0,134.0,209.5,132.5,221.5,140.0,239.5,144.0,247.5,144.0,263.5,140.5,269.5,135.0,291.5,128.5,308.0,137.0,322.0,153.0,312.0,169.0,274.0,187.0,274.0,203.0,262.5,218.5,258.5,234.5,262.5,246.5,269.0,260.5,255.0,276.5,249.0,292.5,239.0,308.5,243.5,325.0,241.0,353.0,233.0,369.0,235.0,379.0,239.0,387.0,255.0,371.5,271.0,367.5,287.0,373.5,302.5,369.5,318.5,357.5,334.5,343.5,350.5,331.0,366.5,335.0,360.5,350.5,341.0,366.5,321.5,382.0,313.5,393.5,321.5,409.5,297.5,427.5,297.0,444.0,297.0,466.5,282.5,483.0,278.0,498.5,275.5" stroke="black" stroke-width="2" fill="none" />
<polyline points="211.0,258.5,186.5,274.5,176.5,290.0,176.5,308.0,194.0,326.5,186.0,342.5,170.0,344.0,166.0,359.5,133.5,375.0,155.5,352.5" stroke="black" stroke-width="2" fill="none" />
<polyline points="171.0,224.0,155.5,244.0,135.0,242.5,119.0,280.5,124.5,264.5,132.5,248.5,132.5,232.5,126.5,218.5,114.5,202.5,104.5,187.0" stroke="black" stroke-width="2" fill="none" />
</svg>