<?xml version="1.0" encoding="UTF-8"?>
<svg xmlns="http://www.w3.org/2000/svg" xmlns:xlink="http://www.w3.org/1999/xlink" width="1935.11811" height="1935.11811" viewBox="0 0 1935.11811 1935.11811" version="1.1">
<g id="surface1">
<path style="fill:none;stroke-width:2;stroke-linecap:butt;stroke-linejoin:miter;stroke:rgb(0%,0%,0%);stroke-opacity:1;stroke-miterlimit:4;" d="M 313.500244 2.500106 L 313.500244 50.500277 L 323.499634 69.000439 L 357.499626 85.000496 L 357.499626 109.000065 L 371.499805 125.000122 L 379.000122 141.000179 L 381 156.500008 L 382.49965 172.500065 L 381 188.500122 L 379.000122 204.500179 L 379.000122 222.500114 L 375.499561 237.999943 " transform="matrix(3.779528,0,0,3.779528,0,0)"/>
<path style="fill:none;stroke-width:2;stroke-linecap:butt;stroke-linejoin:miter;stroke:rgb(0%,0%,0%);stroke-opacity:1;stroke-miterlimit:4;" d="M 364.999943 237.499715 L 349.500114 236.999487 " transform="matrix(3.779528,0,0,3.779528,0,0)"/>
<path style="fill:none;stroke-width:2;stroke-linecap:butt;stroke-linejoin:miter;stroke:rgb(0%,0%,0%);stroke-opacity:1;stroke-miterlimit:4;" d="M 350.000342 254.500228 L 336.000163 270.500285 " transform="matrix(3.779528,0,0,3.779528,0,0)"/>
<path style="fill:none;stroke-width:2;stroke-linecap:butt;stroke-linejoin:miter;stroke:rgb(0%,0%,0%);stroke-opacity:1;stroke-miterlimit:4;" d="M 346.49978 265.500073 L 330.999951 280.00048 L 314.999894 288.50022 L 299.500065 292.499976 L 277.500374 300.499487 L 261.999512 323.000439 L 246.000488 325.000317 L 230.499626 323.000439 L 214.000374 314.999894 L 202.000073 313.000016 L 186.000016 305.000505 L 169.999959 305.000505 L 166.000203 312.499788 L 150.000146 318.000228 L 119.499683 321.499756 L 113.500049 343.50048 L 103.499626 367.500049 L 101.499748 350.999764 L 103.499626 334.999707 L 115.499927 318.99965 " transform="matrix(3.779528,0,0,3.779528,0,0)"/>
<path style="fill:none;stroke-width:2;stroke-linecap:butt;stroke-linejoin:miter;stroke:rgb(0%,0%,0%);stroke-opacity:1;stroke-miterlimit:4;" d="M 119.499683 321.999984 L 115.499927 338.000041 L 109.500293 354.500326 L 117.499805 346.49978 " transform="matrix(3.779528,0,0,3.779528,0,0)"/>
<path style="fill:none;stroke-width:2;stroke-linecap:butt;stroke-linejoin:miter;stroke:rgb(0%,0%,0%);stroke-opacity:1;stroke-miterlimit:4;" d="M 121.499561 345.999552 L 116.999577 345.999552 L 110.999943 361.500415 " transform="matrix(3.779528,0,0,3.779528,0,0)"/>
<path style="fill:none;stroke-width:2;stroke-linecap:butt;stroke-linejoin:miter;stroke:rgb(0%,0%,0%);stroke-opacity:1;stroke-miterlimit:4;" d="M 113.500049 368.000277 L 119.499683 352.00022 " transform="matrix(3.779528,0,0,3.779528,0,0)"/>
<path style="fill:none;stroke-width:2;stroke-linecap:butt;stroke-linejoin:miter;stroke:rgb(0%,0%,0%);stroke-opacity:1;stroke-miterlimit:4;" d="M 97.499992 336.000163 L 113.500049 313.500244 L 129.500106 313.500244 L 145.500163 311.500366 L 161.50022 301.499943 L 177.000049 295.500309 L 193.500334 293.500431 " transform="matrix(3.779528,0,0,3.779528,0,0)"/>
<path style="fill:none;stroke-width:2;stroke-linecap:butt;stroke-linejoin:miter;stroke:rgb(0%,0%,0%);stroke-opacity:1;stroke-miterlimit:4;" d="M 200.000195 287.999992 L 183.49991 282.000358 L 167.499854 274.500041 L 151.499797 264.499618 L 135.49974 254.500228 L 119.499683 240.500049 " transform="matrix(3.779528,0,0,3.779528,0,0)"/>
<path style="fill:none;stroke-width:2;stroke-linecap:butt;stroke-linejoin:miter;stroke:rgb(0%,0%,0%);stroke-opacity:1;stroke-miterlimit:4;" d="M 123.500472 236.000065 L 139.499495 250.000244 L 155.499552 259.999634 L 171.499609 270.000057 L 187.499666 277.500374 L 203.999951 282.99978 L 220.000008 291.49952 " transform="matrix(3.779528,0,0,3.779528,0,0)"/>
<path style="fill:none;stroke-width:2;stroke-linecap:butt;stroke-linejoin:miter;stroke:rgb(0%,0%,0%);stroke-opacity:1;stroke-miterlimit:4;" d="M 212.000496 320.000106 L 227.99952 327.999618 L 244.499805 334.000285 L 260.499862 329.999495 L 282.499552 305.999927 " transform="matrix(3.779528,0,0,3.779528,0,0)"/>
<path style="fill:none;stroke-width:2;stroke-linecap:butt;stroke-linejoin:miter;stroke:rgb(0%,0%,0%);stroke-opacity:1;stroke-miterlimit:4;" d="M 286.999536 295.500309 L 280.499674 311.999561 L 282.99978 329.999495 L 266.999723 338.000041 L 282.99978 323.999862 L 298.999837 311.999561 L 316.999772 304.500277 L 332.499601 308.500033 L 348.499658 346.49978 L 364.499715 368.999699 L 380.499772 361.000187 " transform="matrix(3.779528,0,0,3.779528,0,0)"/>
<path style="fill:none;stroke-width:2;stroke-linecap:butt;stroke-linejoin:miter;stroke:rgb(0%,0%,0%);stroke-opacity:1;stroke-miterlimit:4;" d="M 363.999487 402.500496 L 380.499772 407.00048 L 396.499829 427.499487 L 412.499886 456.000073 " transform="matrix(3.779528,0,0,3.779528,0,0)"/>
<path style="fill:none;stroke-width:2;stroke-linecap:butt;stroke-linejoin:miter;stroke:rgb(0%,0%,0%);stroke-opacity:1;stroke-miterlimit:4;" d="M 404.000146 457.999951 L 392.500073 440.000016 L 386.500439 438.000138 " transform="matrix(3.779528,0,0,3.779528,0,0)"/>
<path style="fill:none;stroke-width:2;stroke-linecap:butt;stroke-linejoin:miter;stroke:rgb(0%,0%,0%);stroke-opacity:1;stroke-miterlimit:4;" d="M 383.500106 436.999683 L 393.499495 452.99974 L 375.499561 470.000252 L 379.50035 488.500415 L 395.500407 494.500049 L 393.499495 482.999976 " transform="matrix(3.779528,0,0,3.779528,0,0)"/>
<path style="fill:none;stroke-width:2;stroke-linecap:butt;stroke-linejoin:miter;stroke:rgb(0%,0%,0%);stroke-opacity:1;stroke-miterlimit:4;" d="M 406.000024 491.499715 L 413.999536 487.499959 L 404.000146 471.499902 L 393.999723 455.499845 L 393.999723 432.999927 L 366.499593 407.00048 " transform="matrix(3.779528,0,0,3.779528,0,0)"/>
<path style="fill:none;stroke-width:2;stroke-linecap:butt;stroke-linejoin:miter;stroke:rgb(0%,0%,0%);stroke-opacity:1;stroke-miterlimit:4;" d="M 363.999487 402.999691 L 372.000033 418.999748 L 368.000277 435.500033 L 363.500293 445.500456 L 363.500293 445.99965 L 366.999821 452.000317 L 375.000366 457.999951 L 375.499561 462.499935 L 399.500163 452.499512 " transform="matrix(3.779528,0,0,3.779528,0,0)"/>
<path style="fill:none;stroke-width:2;stroke-linecap:butt;stroke-linejoin:miter;stroke:rgb(0%,0%,0%);stroke-opacity:1;stroke-miterlimit:4;" d="M 408.50013 477.499536 L 393.000301 447.500334 L 392.500073 432.000505 L 376.500016 434.000382 L 359.999731 440.000016 L 343.999674 423.999959 " transform="matrix(3.779528,0,0,3.779528,0,0)"/>
<path style="fill:none;stroke-width:2;stroke-linecap:butt;stroke-linejoin:miter;stroke:rgb(0%,0%,0%);stroke-opacity:1;stroke-miterlimit:4;" d="M 332.000407 436.999683 L 316.00035 443.00035 L 299.500065 445.000228 L 284.000236 443.499544 L 268.000179 443.999772 L 251.499894 441.999894 L 235.499837 441.999894 L 220.000008 442.500122 L 203.999951 442.500122 L 187.999894 432.000505 L 171.999837 397.500285 " transform="matrix(3.779528,0,0,3.779528,0,0)"/>
<path style="fill:none;stroke-width:2;stroke-linecap:butt;stroke-linejoin:miter;stroke:rgb(0%,0%,0%);stroke-opacity:1;stroke-miterlimit:4;" d="M 171.499609 414.499764 L 187.499666 440.500244 L 203.499723 448.999984 L 234.999609 448.999984 L 250.500472 448.499756 L 266.499495 448.999984 L 282.499552 452.499512 " transform="matrix(3.779528,0,0,3.779528,0,0)"/>
<path style="fill:none;stroke-width:2;stroke-linecap:butt;stroke-linejoin:miter;stroke:rgb(0%,0%,0%);stroke-opacity:1;stroke-miterlimit:4;" d="M 272.500163 461.000285 L 256.500106 462.499935 L 239.999821 468.499569 L 254 456.500301 " transform="matrix(3.779528,0,0,3.779528,0,0)"/>
<path style="fill:none;stroke-width:2;stroke-linecap:butt;stroke-linejoin:miter;stroke:rgb(0%,0%,0%);stroke-opacity:1;stroke-miterlimit:4;" d="M 252.50035 477.499536 L 284.999658 477.499536 L 301.499943 479.500448 L 317.5 483.500203 L 334.000285 493.499593 " transform="matrix(3.779528,0,0,3.779528,0,0)"/>
<path style="fill:none;stroke-width:2;stroke-linecap:butt;stroke-linejoin:miter;stroke:rgb(0%,0%,0%);stroke-opacity:1;stroke-miterlimit:4;" d="M 339.000496 500.99991 L 316.999772 484.999854 " transform="matrix(3.779528,0,0,3.779528,0,0)"/>
<path style="fill:none;stroke-width:2;stroke-linecap:butt;stroke-linejoin:miter;stroke:rgb(0%,0%,0%);stroke-opacity:1;stroke-miterlimit:4;" d="M 317.5 478.499992 L 341.000374 494.500049 L 347.000008 510.500106 " transform="matrix(3.779528,0,0,3.779528,0,0)"/>
<path style="fill:none;stroke-width:2;stroke-linecap:butt;stroke-linejoin:miter;stroke:rgb(0%,0%,0%);stroke-opacity:1;stroke-miterlimit:4;" d="M 394.499951 486.999731 L 392.500073 499.000033 L 377.000244 497.000155 L 368.999699 502.999788 L 363.500293 500.99991 L 363.999487 485.500081 L 357.999854 468.999797 L 355.999976 452.99974 L 346.49978 431.500277 L 343.000252 415.50022 L 339.000496 399.500163 L 332.999829 383.500106 L 328.499845 367.500049 L 324.50009 351.499992 L 313.000016 315.500122 L 298.999837 327.500423 L 284.999658 329.500301 L 268.999601 333.500057 L 252.999544 331.500179 L 271.000513 335.499935 L 286.500342 319.499878 L 274.500041 311.500366 L 280.499674 295.500309 L 268.500407 293.999626 L 252.000122 294.499854 L 236.000065 291.000326 L 220.000008 286.999536 L 203.499723 279.000024 L 187.499666 273.000391 L 171.499609 264.499618 L 155.499552 252.999544 " transform="matrix(3.779528,0,0,3.779528,0,0)"/>
<path style="fill:none;stroke-width:2;stroke-linecap:butt;stroke-linejoin:miter;stroke:rgb(0%,0%,0%);stroke-opacity:1;stroke-miterlimit:4;" d="M 172.500065 220.500236 L 189.00035 236.500293 L 207.000285 252.999544 L 232.999731 269.499829 " transform="matrix(3.779528,0,0,3.779528,0,0)"/>
<path style="fill:none;stroke-width:2;stroke-linecap:butt;stroke-linejoin:miter;stroke:rgb(0%,0%,0%);stroke-opacity:1;stroke-miterlimit:4;" d="M 236.500293 253.499772 L 252.50035 261.999512 L 268.000179 264.000423 L 283.500008 261.500317 " transform="matrix(3.779528,0,0,3.779528,0,0)"/>
<path style="fill:none;stroke-width:2;stroke-linecap:butt;stroke-linejoin:miter;stroke:rgb(0%,0%,0%);stroke-opacity:1;stroke-miterlimit:4;" d="M 286.000114 252.50035 L 270.500285 257.000334 L 254.500228 257.499528 L 238.500171 246.99991 " transform="matrix(3.779528,0,0,3.779528,0,0)"/>
<path style="fill:none;stroke-width:2;stroke-linecap:butt;stroke-linejoin:miter;stroke:rgb(0%,0%,0%);stroke-opacity:1;stroke-miterlimit:4;" d="M 232.000309 250.000244 L 248.000366 240.500049 L 264.000423 238.500171 L 280.00048 240.500049 " transform="matrix(3.779528,0,0,3.779528,0,0)"/>
<path style="fill:none;stroke-width:2;stroke-linecap:butt;stroke-linejoin:miter;stroke:rgb(0%,0%,0%);stroke-opacity:1;stroke-miterlimit:4;" d="M 278.499797 236.500293 L 295.000081 252.50035 " transform="matrix(3.779528,0,0,3.779528,0,0)"/>
<path style="fill:none;stroke-width:2;stroke-linecap:butt;stroke-linejoin:miter;stroke:rgb(0%,0%,0%);stroke-opacity:1;stroke-miterlimit:4;" d="M 321.999984 225.999642 L 343.999674 209.500391 L 349.500114 193.500334 L 354.000098 177.500277 L 356.500203 162.000448 L 354.500326 146.000391 L 348.499658 130.499528 L 344.499902 110.499715 L 323.999862 94.499658 L 291.999748 78.499601 L 281.50013 88.500024 L 265.500073 82.000163 L 261.500317 94.000464 " transform="matrix(3.779528,0,0,3.779528,0,0)"/>
<path style="fill:none;stroke-width:2;stroke-linecap:butt;stroke-linejoin:miter;stroke:rgb(0%,0%,0%);stroke-opacity:1;stroke-miterlimit:4;" d="M 239.999821 67.499756 L 223.999764 66.999528 L 207.500513 73.000195 L 191.500456 76.999951 " transform="matrix(3.779528,0,0,3.779528,0,0)"/>
<path style="fill:none;stroke-width:2;stroke-linecap:butt;stroke-linejoin:miter;stroke:rgb(0%,0%,0%);stroke-opacity:1;stroke-miterlimit:4;" d="M 182.00026 101.499748 L 197.50009 93.500236 L 213.500146 94.000464 L 245.50026 98.00022 L 261.999512 88.500024 L 277.999569 92.49978 L 302.000171 96.499536 " transform="matrix(3.779528,0,0,3.779528,0,0)"/>
<path style="fill:none;stroke-width:2;stroke-linecap:butt;stroke-linejoin:miter;stroke:rgb(0%,0%,0%);stroke-opacity:1;stroke-miterlimit:4;" d="M 318.500456 108.499837 L 350.999764 130.499528 L 357.000431 146.499585 L 359.000309 162.000448 L 357.000431 178.000505 L 354.99952 193.500334 L 348.999886 209.500391 L 354.99952 218.999552 L 345.500358 234.999609 L 317.5 252.999544 L 295.500309 269.499829 " transform="matrix(3.779528,0,0,3.779528,0,0)"/>
<path style="fill:none;stroke-width:2;stroke-linecap:butt;stroke-linejoin:miter;stroke:rgb(0%,0%,0%);stroke-opacity:1;stroke-miterlimit:4;" d="M 284.000236 271.000513 L 307.999805 255.000456 L 331.500179 238.500171 L 349.500114 222.500114 L 352.999642 200.000195 L 336.999585 223.999764 L 320.999528 232.000309 L 305.000505 234.000187 L 289.000448 223.999764 L 273.000391 218.00013 L 257.000334 218.00013 L 241.500505 221.999886 L 225.500448 227.99952 L 209.999585 232.000309 L 194.499756 220.000008 L 178.499699 207.500513 " transform="matrix(3.779528,0,0,3.779528,0,0)"/>
<path style="fill:none;stroke-width:2;stroke-linecap:butt;stroke-linejoin:miter;stroke:rgb(0%,0%,0%);stroke-opacity:1;stroke-miterlimit:4;" d="M 174.499943 207.500513 L 194.499756 223.499536 " transform="matrix(3.779528,0,0,3.779528,0,0)"/>
<path style="fill:none;stroke-width:2;stroke-linecap:butt;stroke-linejoin:miter;stroke:rgb(0%,0%,0%);stroke-opacity:1;stroke-miterlimit:4;" d="M 200.999618 219.49978 L 181.500033 202.999495 L 179.500155 187.499666 L 180.999805 171.499609 L 180.499577 155.499552 L 182.500488 139.499495 L 184.500366 123.999666 L 187.999894 107.999609 L 179.500155 109.500293 L 162.99987 97.499992 L 146.999813 95.500114 L 130.999756 105.000309 " transform="matrix(3.779528,0,0,3.779528,0,0)"/>
<path style="fill:none;stroke-width:2;stroke-linecap:butt;stroke-linejoin:miter;stroke:rgb(0%,0%,0%);stroke-opacity:1;stroke-miterlimit:4;" d="M 135.999967 111.500171 L 151.499797 101.499748 L 167.499854 103.000431 L 179.500155 119.000488 L 175.000171 134.999512 L 175.500399 150.999569 L 175.999593 166.999626 L 173.999715 182.999683 L 170.500187 198.99974 L 160.499764 214.499569 L 148.000269 230.499626 L 162.499642 248.999788 L 178.499699 259.500439 L 210.499813 276.499919 L 225.999642 282.499552 L 242.499927 286.500342 L 258.499984 288.50022 L 290.500098 288.50022 L 306.500155 284.500464 L 322.500212 280.499674 L 339.000496 268.500407 L 354.99952 254.500228 L 361.000187 244.499805 L 377.000244 236.500293 " transform="matrix(3.779528,0,0,3.779528,0,0)"/>
<path style="fill:none;stroke-width:2;stroke-linecap:butt;stroke-linejoin:miter;stroke:rgb(0%,0%,0%);stroke-opacity:1;stroke-miterlimit:4;" d="M 373.499683 225.999642 L 383.500106 209.999585 L 385.499984 193.999528 L 387.499862 178.000505 L 387.499862 162.499642 L 385.499984 146.499585 L 381.500228 130.499528 L 369.499927 121.999788 L 353.49987 118.000033 L 337.499813 118.50026 L 321.999984 114.000277 L 305.999927 109.999487 L 290.500098 105.499504 L 274.500041 103.499626 L 258.499984 100.99952 L 241.999699 101.499748 L 225.999642 100.000098 L 209.999585 100.000098 L 193.999528 100.500326 L 191.99965 112.499593 " transform="matrix(3.779528,0,0,3.779528,0,0)"/>
<path style="fill:none;stroke-width:2;stroke-linecap:butt;stroke-linejoin:miter;stroke:rgb(0%,0%,0%);stroke-opacity:1;stroke-miterlimit:4;" d="M 194.499756 105.499504 L 210.499813 111.500171 L 226.49987 111.500171 L 242.499927 112.000399 L 257.999756 114.500505 L 273.499585 118.50026 L 289.499642 120.500138 L 305.999927 126.499772 L 321.999984 130.499528 " transform="matrix(3.779528,0,0,3.779528,0,0)"/>
<path style="fill:none;stroke-width:2;stroke-linecap:butt;stroke-linejoin:miter;stroke:rgb(0%,0%,0%);stroke-opacity:1;stroke-miterlimit:4;" d="M 332.000407 139.999723 L 304.000049 123.999666 " transform="matrix(3.779528,0,0,3.779528,0,0)"/>
<path style="fill:none;stroke-width:2;stroke-linecap:butt;stroke-linejoin:miter;stroke:rgb(0%,0%,0%);stroke-opacity:1;stroke-miterlimit:4;" d="M 275.500496 156.500008 L 259.999634 150.999569 L 243.999577 155.000358 " transform="matrix(3.779528,0,0,3.779528,0,0)"/>
<path style="fill:none;stroke-width:2;stroke-linecap:butt;stroke-linejoin:miter;stroke:rgb(0%,0%,0%);stroke-opacity:1;stroke-miterlimit:4;" d="M 248.499561 152.500252 L 244.499805 168.500309 " transform="matrix(3.779528,0,0,3.779528,0,0)"/>
<path style="fill:none;stroke-width:2;stroke-linecap:butt;stroke-linejoin:miter;stroke:rgb(0%,0%,0%);stroke-opacity:1;stroke-miterlimit:4;" d="M 234.999609 160.499764 L 250.500472 146.499585 L 266.499495 150.000146 L 282.99978 155.499552 " transform="matrix(3.779528,0,0,3.779528,0,0)"/>
<path style="fill:none;stroke-width:2;stroke-linecap:butt;stroke-linejoin:miter;stroke:rgb(0%,0%,0%);stroke-opacity:1;stroke-miterlimit:4;" d="M 284.000236 159.000114 L 261.999512 155.000358 " transform="matrix(3.779528,0,0,3.779528,0,0)"/>
<path style="fill:none;stroke-width:2;stroke-linecap:butt;stroke-linejoin:miter;stroke:rgb(0%,0%,0%);stroke-opacity:1;stroke-miterlimit:4;" d="M 248.999788 146.499585 L 236.500293 162.499642 L 240.500049 169.999959 " transform="matrix(3.779528,0,0,3.779528,0,0)"/>
<path style="fill:none;stroke-width:2;stroke-linecap:butt;stroke-linejoin:miter;stroke:rgb(0%,0%,0%);stroke-opacity:1;stroke-miterlimit:4;" d="M 250.000244 217.499902 L 218.500358 225.500448 L 236.500293 237.499715 L 252.50035 234.000187 L 268.500407 232.000309 L 284.500464 236.000065 L 300.499487 246.000488 " transform="matrix(3.779528,0,0,3.779528,0,0)"/>
<path style="fill:none;stroke-width:2;stroke-linecap:butt;stroke-linejoin:miter;stroke:rgb(0%,0%,0%);stroke-opacity:1;stroke-miterlimit:4;" d="M 328.499845 227.99952 L 332.499601 237.999943 L 316.00035 248.000366 L 300.000293 259.999634 L 284.500464 270.500285 L 268.999601 274.500041 L 252.999544 270.000057 L 236.999487 264.000423 L 220.500236 255.999878 L 204.500179 243.500382 L 187.999894 227.99952 L 171.999837 214.000374 " transform="matrix(3.779528,0,0,3.779528,0,0)"/>
<path style="fill:none;stroke-width:2;stroke-linecap:butt;stroke-linejoin:miter;stroke:rgb(0%,0%,0%);stroke-opacity:1;stroke-miterlimit:4;" d="M 174.499943 216.999674 L 192.499878 233.499959 L 209.999585 249.500016 L 236.000065 265.500073 " transform="matrix(3.779528,0,0,3.779528,0,0)"/>
<path style="fill:none;stroke-width:2;stroke-linecap:butt;stroke-linejoin:miter;stroke:rgb(0%,0%,0%);stroke-opacity:1;stroke-miterlimit:4;" d="M 246.000488 255.000456 L 254 238.500171 " transform="matrix(3.779528,0,0,3.779528,0,0)"/>
<path style="fill:none;stroke-width:2;stroke-linecap:butt;stroke-linejoin:miter;stroke:rgb(0%,0%,0%);stroke-opacity:1;stroke-miterlimit:4;" d="M 245.50026 233.499959 L 229.500203 249.500016 " transform="matrix(3.779528,0,0,3.779528,0,0)"/>
<path style="fill:none;stroke-width:2;stroke-linecap:butt;stroke-linejoin:miter;stroke:rgb(0%,0%,0%);stroke-opacity:1;stroke-miterlimit:4;" d="M 281.50013 214.999797 L 311.500366 230.999854 " transform="matrix(3.779528,0,0,3.779528,0,0)"/>
<path style="fill:none;stroke-width:2;stroke-linecap:butt;stroke-linejoin:miter;stroke:rgb(0%,0%,0%);stroke-opacity:1;stroke-miterlimit:4;" d="M 354.99952 255.999878 L 343.000252 271.499707 L 314.999894 287.499764 " transform="matrix(3.779528,0,0,3.779528,0,0)"/>
<path style="fill:none;stroke-width:2;stroke-linecap:butt;stroke-linejoin:miter;stroke:rgb(0%,0%,0%);stroke-opacity:1;stroke-miterlimit:4;" d="M 309.500488 304.000049 L 305.499699 320.000106 L 307.499577 329.999495 " transform="matrix(3.779528,0,0,3.779528,0,0)"/>
<path style="fill:none;stroke-width:2;stroke-linecap:butt;stroke-linejoin:miter;stroke:rgb(0%,0%,0%);stroke-opacity:1;stroke-miterlimit:4;" d="M 308.500033 345.999552 L 291.999748 347.500236 L 275.999691 349.500114 L 260.499862 352.999642 L 245.000033 353.49987 L 228.999976 353.49987 L 212.499691 355.499748 L 196.499634 355.499748 " transform="matrix(3.779528,0,0,3.779528,0,0)"/>
<path style="fill:none;stroke-width:2;stroke-linecap:butt;stroke-linejoin:miter;stroke:rgb(0%,0%,0%);stroke-opacity:1;stroke-miterlimit:4;" d="M 181.500033 357.499626 L 197.50009 351.499992 L 213.500146 349.500114 L 229.500203 349.500114 L 246.000488 347.500236 L 261.999512 347.500236 L 280.499674 341.499569 L 296.999959 339.999919 " transform="matrix(3.779528,0,0,3.779528,0,0)"/>
<path style="fill:none;stroke-width:2;stroke-linecap:butt;stroke-linejoin:miter;stroke:rgb(0%,0%,0%);stroke-opacity:1;stroke-miterlimit:4;" d="M 280.00048 337.499813 L 255.999878 343.50048 L 239.999821 341.499569 L 223.499536 337.499813 L 207.500513 335.499935 L 191.500456 335.499935 L 175.500399 353.49987 " transform="matrix(3.779528,0,0,3.779528,0,0)"/>
<path style="fill:none;stroke-width:2;stroke-linecap:butt;stroke-linejoin:miter;stroke:rgb(0%,0%,0%);stroke-opacity:1;stroke-miterlimit:4;" d="M 195.500212 329.000073 L 213.500146 320.500334 L 231.500081 336.500391 " transform="matrix(3.779528,0,0,3.779528,0,0)"/>
<path style="fill:none;stroke-width:2;stroke-linecap:butt;stroke-linejoin:miter;stroke:rgb(0%,0%,0%);stroke-opacity:1;stroke-miterlimit:4;" d="M 246.499683 338.000041 L 230.000431 334.500513 L 214.000374 327.000195 " transform="matrix(3.779528,0,0,3.779528,0,0)"/>
<path style="fill:none;stroke-width:2;stroke-linecap:butt;stroke-linejoin:miter;stroke:rgb(0%,0%,0%);stroke-opacity:1;stroke-miterlimit:4;" d="M 209.500391 327.500423 L 211.000041 311.500366 L 209.000163 295.500309 L 190.5 280.00048 L 158.499886 264.000423 L 134.00009 248.499561 L 121.999788 232.999731 L 114.000277 216.999674 L 121.999788 210.499813 L 118.000033 194.499756 L 101.999976 192.499878 L 107.500415 176.499821 L 109.500293 160.499764 L 113.500049 144.499707 L 109.000065 138.500073 L 118.50026 122.500016 L 100.500326 137.000423 " transform="matrix(3.779528,0,0,3.779528,0,0)"/>
<path style="fill:none;stroke-width:2;stroke-linecap:butt;stroke-linejoin:miter;stroke:rgb(0%,0%,0%);stroke-opacity:1;stroke-miterlimit:4;" d="M 105.000309 153.999902 L 109.000065 145.500163 L 121.000366 131.499984 L 119.000488 147.500041 L 116.999577 167.499854 L 118.50026 184.000138 L 100.500326 200.500423 L 114.000277 222.500114 " transform="matrix(3.779528,0,0,3.779528,0,0)"/>
<path style="fill:none;stroke-width:2;stroke-linecap:butt;stroke-linejoin:miter;stroke:rgb(0%,0%,0%);stroke-opacity:1;stroke-miterlimit:4;" d="M 171.499609 205.499601 L 163.500098 221.499658 L 150.000146 237.499715 L 166.000203 254 L 195.500212 270.000057 L 233.499959 286.000114 " transform="matrix(3.779528,0,0,3.779528,0,0)"/>
<path style="fill:none;stroke-width:2;stroke-linecap:butt;stroke-linejoin:miter;stroke:rgb(0%,0%,0%);stroke-opacity:1;stroke-miterlimit:4;" d="M 182.999683 304.500277 L 189.00035 320.000106 L 182.999683 336.000163 L 178.999927 351.499992 L 166.500431 367.500049 L 155.99978 383.500106 L 141.999601 391.499618 L 127.500228 405.499797 L 123.500472 421.499854 L 115.499927 438.000138 L 113.500049 454.000195 L 99.49987 469.500024 L 93.500236 485.500081 L 99.49987 501.500138 " transform="matrix(3.779528,0,0,3.779528,0,0)"/>
<path style="fill:none;stroke-width:2;stroke-linecap:butt;stroke-linejoin:miter;stroke:rgb(0%,0%,0%);stroke-opacity:1;stroke-miterlimit:4;" d="M 105.499504 505.499894 L 111.500171 489.499837 L 107.999609 481.500326 L 125.999544 479.500448 L 119.99991 475.999886 L 103.999854 486.499504 " transform="matrix(3.779528,0,0,3.779528,0,0)"/>
<path style="fill:none;stroke-width:2;stroke-linecap:butt;stroke-linejoin:miter;stroke:rgb(0%,0%,0%);stroke-opacity:1;stroke-miterlimit:4;" d="M 112.000399 486.499504 L 128.000456 486.499504 L 148.000269 470.50048 L 166.000203 454.000195 L 181.500033 465.500269 L 197.50009 473.49978 L 213.500146 477.000342 " transform="matrix(3.779528,0,0,3.779528,0,0)"/>
<path style="fill:none;stroke-width:2;stroke-linecap:butt;stroke-linejoin:miter;stroke:rgb(0%,0%,0%);stroke-opacity:1;stroke-miterlimit:4;" d="M 222.500114 465.500269 L 206.500057 461.500513 " transform="matrix(3.779528,0,0,3.779528,0,0)"/>
<path style="fill:none;stroke-width:2;stroke-linecap:butt;stroke-linejoin:miter;stroke:rgb(0%,0%,0%);stroke-opacity:1;stroke-miterlimit:4;" d="M 191.99965 475.999886 L 175.999593 468.000374 L 159.999536 456.000073 " transform="matrix(3.779528,0,0,3.779528,0,0)"/>
<path style="fill:none;stroke-width:2;stroke-linecap:butt;stroke-linejoin:miter;stroke:rgb(0%,0%,0%);stroke-opacity:1;stroke-miterlimit:4;" d="M 161.50022 452.000317 L 183.49991 468.000374 L 187.499666 486.000309 L 168.000081 501.500138 L 174.499943 505.499894 L 184.500366 507.499772 L 198.499512 487.499959 L 214.499569 483.500203 L 230.000431 477.499536 L 245.50026 477.499536 L 277.500374 465.500269 L 299.500065 467.500146 L 315.500122 457.499723 L 332.000407 445.500456 L 348.000464 447.500334 L 363.999487 465.500269 L 383.500106 477.000342 L 398.999935 477.000342 " transform="matrix(3.779528,0,0,3.779528,0,0)"/>
<path style="fill:none;stroke-width:2;stroke-linecap:butt;stroke-linejoin:miter;stroke:rgb(0%,0%,0%);stroke-opacity:1;stroke-miterlimit:4;" d="M 331.500179 484.000431 L 316.00035 477.999764 L 300.000293 474.500236 L 314.000472 457.999951 " transform="matrix(3.779528,0,0,3.779528,0,0)"/>
<path style="fill:none;stroke-width:2;stroke-linecap:butt;stroke-linejoin:miter;stroke:rgb(0%,0%,0%);stroke-opacity:1;stroke-miterlimit:4;" d="M 373.499683 406.000024 L 389.49974 422.000081 L 398.000513 429.999593 L 407.999902 445.99965 L 413.999536 462.499935 L 418.000326 478.499992 L 420.000203 494.500049 L 414.499764 509.999878 L 406.500252 504.000244 L 410.500008 503.500016 " transform="matrix(3.779528,0,0,3.779528,0,0)"/>
<path style="fill:none;stroke-width:2;stroke-linecap:butt;stroke-linejoin:miter;stroke:rgb(0%,0%,0%);stroke-opacity:1;stroke-miterlimit:4;" d="M 456.500301 396.499829 L 472.500358 390.500195 L 496.499927 380.499772 " transform="matrix(3.779528,0,0,3.779528,0,0)"/>
<path style="fill:none;stroke-width:2;stroke-linecap:butt;stroke-linejoin:miter;stroke:rgb(0%,0%,0%);stroke-opacity:1;stroke-miterlimit:4;" d="M 497.999577 377.500472 L 454.000195 391.499618 L 450.000439 407.499674 L 450.000439 440.000016 L 466.000496 445.99965 L 481.500326 445.99965 L 497.500382 445.500456 " transform="matrix(3.779528,0,0,3.779528,0,0)"/>
<path style="fill:none;stroke-width:2;stroke-linecap:butt;stroke-linejoin:miter;stroke:rgb(0%,0%,0%);stroke-opacity:1;stroke-miterlimit:4;" d="M 498.499805 375.999788 L 482.499748 382.000456 L 460.500057 389.999967 L 444.5 384.000334 L 444.5 368.500505 L 442.500122 352.500448 " transform="matrix(3.779528,0,0,3.779528,0,0)"/>
<path style="fill:none;stroke-width:2;stroke-linecap:butt;stroke-linejoin:miter;stroke:rgb(0%,0%,0%);stroke-opacity:1;stroke-miterlimit:4;" d="M 438.000138 341.999797 L 437.49991 357.999854 L 436.999683 373.499683 L 438.999561 389.49974 L 452.99974 407.499674 L 452.99974 440.000016 L 465.000041 441.999894 L 481.500326 441.999894 L 497.500382 440.000016 " transform="matrix(3.779528,0,0,3.779528,0,0)"/>
<path style="fill:none;stroke-width:2;stroke-linecap:butt;stroke-linejoin:miter;stroke:rgb(0%,0%,0%);stroke-opacity:1;stroke-miterlimit:4;" d="M 425.000415 340.500146 L 409.000358 363.999487 L 407.499674 373.499683 L 419.499976 357.000431 L 429.500399 340.500146 L 439.499788 323.999862 " transform="matrix(3.779528,0,0,3.779528,0,0)"/>
<path style="fill:none;stroke-width:2;stroke-linecap:butt;stroke-linejoin:miter;stroke:rgb(0%,0%,0%);stroke-opacity:1;stroke-miterlimit:4;" d="M 438.000138 322.500212 L 427.999715 338.000041 L 415.50022 354.500326 L 403.499919 370.500382 L 400.000391 386.500439 L 410.500008 372.50026 L 426.500065 348.499658 " transform="matrix(3.779528,0,0,3.779528,0,0)"/>
<path style="fill:none;stroke-width:2;stroke-linecap:butt;stroke-linejoin:miter;stroke:rgb(0%,0%,0%);stroke-opacity:1;stroke-miterlimit:4;" d="M 377.500472 363.999487 L 385.499984 347.500236 L 381.500228 331.500179 L 375.499561 315.500122 " transform="matrix(3.779528,0,0,3.779528,0,0)"/>
<path style="fill:none;stroke-width:2;stroke-linecap:butt;stroke-linejoin:miter;stroke:rgb(0%,0%,0%);stroke-opacity:1;stroke-miterlimit:4;" d="M 364.999943 309.00026 L 364.999943 314.999894 L 348.999886 319.499878 L 325.000317 305.999927 " transform="matrix(3.779528,0,0,3.779528,0,0)"/>
<path style="fill:none;stroke-width:2;stroke-linecap:butt;stroke-linejoin:miter;stroke:rgb(0%,0%,0%);stroke-opacity:1;stroke-miterlimit:4;" d="M 311.000138 307.499577 L 314.999894 323.499634 L 320.999528 339.499691 L 320.500334 355.499748 L 323.999862 370.999577 L 327.999618 386.999634 L 334.000285 402.999691 L 338.000041 419.499976 L 334.000285 436.00026 L 320.000106 454.500423 L 291.999748 466.499691 " transform="matrix(3.779528,0,0,3.779528,0,0)"/>
<path style="fill:none;stroke-width:2;stroke-linecap:butt;stroke-linejoin:miter;stroke:rgb(0%,0%,0%);stroke-opacity:1;stroke-miterlimit:4;" d="M 189.999772 436.00026 L 179.500155 420.000203 L 165.499976 411.999658 L 167.499854 395.999601 L 171.499609 379.999544 L 175.500399 363.500293 L 159.000114 377.999666 L 143.000057 395.999601 " transform="matrix(3.779528,0,0,3.779528,0,0)"/>
<path style="fill:none;stroke-width:2;stroke-linecap:butt;stroke-linejoin:miter;stroke:rgb(0%,0%,0%);stroke-opacity:1;stroke-miterlimit:4;" d="M 135.999967 407.999902 L 152.000024 413.999536 L 173.999715 420.000203 L 182.00026 436.00026 " transform="matrix(3.779528,0,0,3.779528,0,0)"/>
<path style="fill:none;stroke-width:2;stroke-linecap:butt;stroke-linejoin:miter;stroke:rgb(0%,0%,0%);stroke-opacity:1;stroke-miterlimit:4;" d="M 166.999626 446.499878 L 189.00035 462.499935 L 204.500179 484.999854 L 186.500244 500.99991 L 169.999959 507.499772 L 189.499544 499.50026 L 173.499487 507.499772 L 173.999715 493.499593 L 189.999772 485.500081 " transform="matrix(3.779528,0,0,3.779528,0,0)"/>
<path style="fill:none;stroke-width:2;stroke-linecap:butt;stroke-linejoin:miter;stroke:rgb(0%,0%,0%);stroke-opacity:1;stroke-miterlimit:4;" d="M 190.5 475.999886 L 164.49952 459.999829 " transform="matrix(3.779528,0,0,3.779528,0,0)"/>
<path style="fill:none;stroke-width:2;stroke-linecap:butt;stroke-linejoin:miter;stroke:rgb(0%,0%,0%);stroke-opacity:1;stroke-miterlimit:4;" d="M 160.999992 429.500399 L 153.00048 445.500456 L 159.000114 450.000439 L 151.499797 466.499691 L 150.000146 482.499748 L 142.499829 499.000033 L 136.500195 508.500228 " transform="matrix(3.779528,0,0,3.779528,0,0)"/>
<path style="fill:none;stroke-width:2;stroke-linecap:butt;stroke-linejoin:miter;stroke:rgb(0%,0%,0%);stroke-opacity:1;stroke-miterlimit:4;" d="M 136.500195 476.500114 L 119.99991 479.00022 " transform="matrix(3.779528,0,0,3.779528,0,0)"/>
<path style="fill:none;stroke-width:2;stroke-linecap:butt;stroke-linejoin:miter;stroke:rgb(0%,0%,0%);stroke-opacity:1;stroke-miterlimit:4;" d="M 102.500203 474.500236 L 118.50026 456.000073 L 134.500317 445.500456 L 150.500374 421.499854 L 157.999658 429.000171 L 173.999715 445.500456 L 191.500456 463.500391 L 207.500513 471.499902 L 209.500391 468.000374 L 225.999642 474.000008 " transform="matrix(3.779528,0,0,3.779528,0,0)"/>
<path style="fill:none;stroke-width:2;stroke-linecap:butt;stroke-linejoin:miter;stroke:rgb(0%,0%,0%);stroke-opacity:1;stroke-miterlimit:4;" d="M 116.500382 437.49991 L 116.500382 413.500342 L 132.500439 395.999601 L 142.499829 388.00009 L 158.499886 354.000098 " transform="matrix(3.779528,0,0,3.779528,0,0)"/>
<path style="fill:none;stroke-width:2;stroke-linecap:butt;stroke-linejoin:miter;stroke:rgb(0%,0%,0%);stroke-opacity:1;stroke-miterlimit:4;" d="M 156.500008 345.00013 L 140.499951 364.499715 L 124.499894 366.000399 L 135.999967 370.000155 L 152.000024 355.499748 L 157.999658 339.499691 L 162.499642 323.000439 " transform="matrix(3.779528,0,0,3.779528,0,0)"/>
<path style="fill:none;stroke-width:2;stroke-linecap:butt;stroke-linejoin:miter;stroke:rgb(0%,0%,0%);stroke-opacity:1;stroke-miterlimit:4;" d="M 168.000081 304.000049 L 169.999959 314.000472 L 169.499731 327.999618 L 162.99987 343.50048 L 156.500008 359.499504 L 148.500496 375.999788 L 137.999845 377.500472 L 135.999967 391.499618 L 119.99991 407.00048 L 114.000277 423.499731 L 125.999544 435.500033 L 119.99991 441.499666 L 132.000212 450.999862 L 144.000513 466.999919 L 146.499585 473.49978 L 140.499951 489.499837 L 114.500505 506.999544 L 124.499894 506.999544 L 142.499829 493.000399 " transform="matrix(3.779528,0,0,3.779528,0,0)"/>
<path style="fill:none;stroke-width:2;stroke-linecap:butt;stroke-linejoin:miter;stroke:rgb(0%,0%,0%);stroke-opacity:1;stroke-miterlimit:4;" d="M 132.500439 497.000155 L 112.499593 509.49965 L 112.499593 493.499593 L 101.999976 475.000464 L 116.000155 459.000407 L 109.999487 459.499601 L 94.000464 481.500326 " transform="matrix(3.779528,0,0,3.779528,0,0)"/>
<path style="fill:none;stroke-width:2;stroke-linecap:butt;stroke-linejoin:miter;stroke:rgb(0%,0%,0%);stroke-opacity:1;stroke-miterlimit:4;" d="M 116.000155 424.500187 L 139.999723 425.000415 L 129.500106 431.000049 L 141.500407 432.999927 L 135.999967 454.500423 L 144.000513 452.000317 L 159.500342 441.999894 L 171.000415 450.000439 L 187.000472 456.000073 L 203.499723 463.999585 L 219.49978 459.999829 " transform="matrix(3.779528,0,0,3.779528,0,0)"/>
<path style="fill:none;stroke-width:2;stroke-linecap:butt;stroke-linejoin:miter;stroke:rgb(0%,0%,0%);stroke-opacity:1;stroke-miterlimit:4;" d="M 137.999845 368.999699 L 121.999788 381 L 107.999609 379.000122 L 103.999854 373.000488 L 96.000342 357.000431 L 98.00022 341.000374 L 103.999854 325.499512 L 119.99991 309.500488 " transform="matrix(3.779528,0,0,3.779528,0,0)"/>
<path style="fill:none;stroke-width:2;stroke-linecap:butt;stroke-linejoin:miter;stroke:rgb(0%,0%,0%);stroke-opacity:1;stroke-miterlimit:4;" d="M 160.499764 320.000106 L 144.499707 323.999862 L 128.49965 325.99974 L 144.999935 313.500244 L 168.999504 297.500187 " transform="matrix(3.779528,0,0,3.779528,0,0)"/>
<path style="fill:none;stroke-width:2;stroke-linecap:butt;stroke-linejoin:miter;stroke:rgb(0%,0%,0%);stroke-opacity:1;stroke-miterlimit:4;" d="M 311.000138 307.499577 L 327.500423 311.500366 L 343.000252 313.500244 L 359.000309 303.499821 L 374.500138 309.999683 L 372.000033 318.000228 L 359.999731 319.499878 L 354.500326 339.000496 L 366.499593 323.499634 L 357.000431 315.500122 L 354.99952 331.500179 L 357.000431 343.50048 " transform="matrix(3.779528,0,0,3.779528,0,0)"/>
<path style="fill:none;stroke-width:2;stroke-linecap:butt;stroke-linejoin:miter;stroke:rgb(0%,0%,0%);stroke-opacity:1;stroke-miterlimit:4;" d="M 362.499837 368.000277 L 350.499536 351.499992 L 345.00013 335.499935 L 336.999585 320.000106 L 357.000431 304.000049 " transform="matrix(3.779528,0,0,3.779528,0,0)"/>
<path style="fill:none;stroke-width:2;stroke-linecap:butt;stroke-linejoin:miter;stroke:rgb(0%,0%,0%);stroke-opacity:1;stroke-miterlimit:4;" d="M 407.00048 325.499512 L 407.00048 262.49974 L 404.999569 246.499683 " transform="matrix(3.779528,0,0,3.779528,0,0)"/>
<path style="fill:none;stroke-width:2;stroke-linecap:butt;stroke-linejoin:miter;stroke:rgb(0%,0%,0%);stroke-opacity:1;stroke-miterlimit:4;" d="M 400.999813 242.499927 L 400.999813 258.499984 L 400.499585 274.500041 L 400.499585 306.500155 L 402.500496 322.500212 L 402.500496 338.000041 L 402.000269 354.000098 " transform="matrix(3.779528,0,0,3.779528,0,0)"/>
<path style="fill:none;stroke-width:2;stroke-linecap:butt;stroke-linejoin:miter;stroke:rgb(0%,0%,0%);stroke-opacity:1;stroke-miterlimit:4;" d="M 482.499748 212.000496 L 508.500228 200.000195 " transform="matrix(3.779528,0,0,3.779528,0,0)"/>
<path style="fill:none;stroke-width:2;stroke-linecap:butt;stroke-linejoin:miter;stroke:rgb(0%,0%,0%);stroke-opacity:1;stroke-miterlimit:4;" d="M 495.000277 196.000439 L 481.000098 213.500146 L 490.999487 197.50009 L 486.499504 177.500277 L 502.499561 162.000448 L 504.500472 152.000024 L 488.000187 168.500309 L 474.000008 192.499878 L 479.999642 177.000049 L 495.999699 160.999992 L 508 157.500464 L 492.500171 171.000415 L 476.500114 193.000106 " transform="matrix(3.779528,0,0,3.779528,0,0)"/>
<path style="fill:none;stroke-width:2;stroke-linecap:butt;stroke-linejoin:miter;stroke:rgb(0%,0%,0%);stroke-opacity:1;stroke-miterlimit:4;" d="M 439.499788 108.499837 L 439.499788 124.499894 L 438.999561 140.499951 L 441.000472 156.500008 L 438.500366 171.999837 L 440.500244 187.999894 L 440.500244 203.499723 L 441.000472 219.49978 L 441.000472 235.499837 L 441.499666 250.999666 L 441.499666 282.99978 " transform="matrix(3.779528,0,0,3.779528,0,0)"/>
<path style="fill:none;stroke-width:2;stroke-linecap:butt;stroke-linejoin:miter;stroke:rgb(0%,0%,0%);stroke-opacity:1;stroke-miterlimit:4;" d="M 400.499585 105.499504 L 400.999813 89.50048 L 398.999935 73.500423 L 400.999813 57.500366 L 400.999813 9.500195 L 398.499707 3.499528 " transform="matrix(3.779528,0,0,3.779528,0,0)"/>
<path style="fill:none;stroke-width:2;stroke-linecap:butt;stroke-linejoin:miter;stroke:rgb(0%,0%,0%);stroke-opacity:1;stroke-miterlimit:4;" d="M 403.499919 25.000024 L 403.499919 73.500423 L 404.000146 89.999674 L 404.000146 106.499959 " transform="matrix(3.779528,0,0,3.779528,0,0)"/>
<path style="fill:none;stroke-width:2;stroke-linecap:butt;stroke-linejoin:miter;stroke:rgb(0%,0%,0%);stroke-opacity:1;stroke-miterlimit:4;" d="M 373.99991 118.000033 L 357.999854 103.499626 L 341.499569 99.49987 L 325.499512 85.499691 L 309.00026 83.499813 L 292.499976 77.500179 L 276.499919 73.500423 L 260.499862 71.499512 L 245.000033 73.999618 L 228.999976 74.499845 L 213.500146 74.499845 L 195.500212 72.499967 L 180.000382 82.999585 L 162.000448 82.999585 L 146.499585 89.000252 L 130.000334 94.999886 L 114.000277 114.999699 " transform="matrix(3.779528,0,0,3.779528,0,0)"/>
<path style="fill:none;stroke-width:2;stroke-linecap:butt;stroke-linejoin:miter;stroke:rgb(0%,0%,0%);stroke-opacity:1;stroke-miterlimit:4;" d="M 107.000187 115.499927 L 123.500472 91.999552 L 139.999723 83.499813 L 155.99978 76.999951 L 172.500065 60.999894 L 188.500122 51.000505 L 204.500179 46.999715 L 221.000464 47.499943 L 236.999487 51.499699 L 252.50035 59.000016 L 268.500407 66.999528 L 284.500464 67.499756 L 300.499487 73.000195 L 323.999862 90.499902 L 339.999919 105.000309 " transform="matrix(3.779528,0,0,3.779528,0,0)"/>
<path style="fill:none;stroke-width:2;stroke-linecap:butt;stroke-linejoin:miter;stroke:rgb(0%,0%,0%);stroke-opacity:1;stroke-miterlimit:4;" d="M 359.000309 80.000285 L 343.000252 73.999618 L 327.000195 67.999984 L 311.000138 67.999984 L 295.000081 62.00035 L 279.000024 53.999805 " transform="matrix(3.779528,0,0,3.779528,0,0)"/>
<path style="fill:none;stroke-width:2;stroke-linecap:butt;stroke-linejoin:miter;stroke:rgb(0%,0%,0%);stroke-opacity:1;stroke-miterlimit:4;" d="M 277.999569 49.499821 L 302.000171 65.499878 L 331.500179 75.500301 L 353.49987 87.499569 " transform="matrix(3.779528,0,0,3.779528,0,0)"/>
<path style="fill:none;stroke-width:2;stroke-linecap:butt;stroke-linejoin:miter;stroke:rgb(0%,0%,0%);stroke-opacity:1;stroke-miterlimit:4;" d="M 309.999683 62.00035 L 293.999626 55.500488 L 277.999569 49.499821 " transform="matrix(3.779528,0,0,3.779528,0,0)"/>
<path style="fill:none;stroke-width:2;stroke-linecap:butt;stroke-linejoin:miter;stroke:rgb(0%,0%,0%);stroke-opacity:1;stroke-miterlimit:4;" d="M 291.999748 72.499967 L 325.499512 73.999618 L 341.499569 79.500057 " transform="matrix(3.779528,0,0,3.779528,0,0)"/>
<path style="fill:none;stroke-width:2;stroke-linecap:butt;stroke-linejoin:miter;stroke:rgb(0%,0%,0%);stroke-opacity:1;stroke-miterlimit:4;" d="M 298.000415 97.499992 L 282.000358 99.49987 L 266.000301 97.499992 L 259.999634 85.499691 L 254 83.499813 L 250.000244 59.500244 L 236.000065 51.000505 " transform="matrix(3.779528,0,0,3.779528,0,0)"/>
<path style="fill:none;stroke-width:2;stroke-linecap:butt;stroke-linejoin:miter;stroke:rgb(0%,0%,0%);stroke-opacity:1;stroke-miterlimit:4;" d="M 196.999862 48.000171 L 169.499731 64.000228 L 155.000358 79.500057 L 163.500098 75.500301 L 179.500155 71.499512 L 184.000138 67.499756 L 202.000073 53.499577 L 218.500358 53.999805 L 234.500415 55.999683 L 257.000334 76.499723 L 273.000391 80.500513 L 289.000448 84.500269 L 298.999837 102.500203 L 314.999894 105.999731 L 330.999951 109.999487 L 347.000008 125.50035 " transform="matrix(3.779528,0,0,3.779528,0,0)"/>
<path style="fill:none;stroke-width:2;stroke-linecap:butt;stroke-linejoin:miter;stroke:rgb(0%,0%,0%);stroke-opacity:1;stroke-miterlimit:4;" d="M 334.000285 218.500358 L 318.000228 228.499748 L 302.000171 223.999764 L 286.000114 215.500024 L 270.000057 211.000041 L 254 212.999919 L 237.999943 216.999674 L 222.500114 223.499536 L 207.000285 223.499536 L 191.000228 209.500391 L 175.000171 205.499601 L 160.499764 216.000252 L 144.499707 236.000065 L 152.000024 214.000374 L 157.999658 198.000317 L 157.500464 182.00026 L 155.499552 166.500431 L 155.499552 150.500374 L 151.499797 134.500317 L 151.499797 118.50026 L 145.500163 102.500203 " transform="matrix(3.779528,0,0,3.779528,0,0)"/>
<path style="fill:none;stroke-width:2;stroke-linecap:butt;stroke-linejoin:miter;stroke:rgb(0%,0%,0%);stroke-opacity:1;stroke-miterlimit:4;" d="M 141.999601 101.999976 L 135.49974 118.000033 L 134.00009 134.500317 L 132.000212 150.500374 L 130.499528 166.000203 L 130.499528 181.500033 L 130.999756 198.000317 L 134.999512 214.000374 L 139.000301 230.000431 L 137.000423 237.999943 L 153.00048 236.000065 L 168.999504 217.499902 L 184.999561 232.999731 L 200.999618 246.99991 L 216.999674 259.000212 L 232.499504 268.999601 L 248.999788 275.000269 L 264.999845 277.000146 L 280.999902 277.500374 L 296.999959 269.499829 L 313.000016 257.999756 L 329.000073 245.50026 L 345.00013 241.500505 L 348.999886 223.499536 " transform="matrix(3.779528,0,0,3.779528,0,0)"/>
<path style="fill:none;stroke-width:2;stroke-linecap:butt;stroke-linejoin:miter;stroke:rgb(0%,0%,0%);stroke-opacity:1;stroke-miterlimit:4;" d="M 436.999683 273.999813 L 438.999561 257.999756 L 438.999561 241.999699 L 438.500366 225.999642 L 436.500488 209.999585 L 436.500488 162.000448 L 436.999683 146.000391 L 436.999683 114.500505 L 441.000472 98.500448 " transform="matrix(3.779528,0,0,3.779528,0,0)"/>
<path style="fill:none;stroke-width:2;stroke-linecap:butt;stroke-linejoin:miter;stroke:rgb(0%,0%,0%);stroke-opacity:1;stroke-miterlimit:4;" d="M 343.999674 101.499748 L 325.99974 85.499691 L 316.00035 64.99965 L 319.499878 49.499821 L 319.499878 33.499764 L 318.99965 17.499707 L 318.99965 1.49965 " transform="matrix(3.779528,0,0,3.779528,0,0)"/>
<path style="fill:none;stroke-width:2;stroke-linecap:butt;stroke-linejoin:miter;stroke:rgb(0%,0%,0%);stroke-opacity:1;stroke-miterlimit:4;" d="M 135.49974 85.499691 L 117.499805 101.499748 L 107.500415 117.499805 L 97.499992 132.999634 L 95.500114 148.999691 L 95.500114 164.49952 L 94.000464 180.499577 L 98.500448 196.000439 L 110.999943 212.000496 L 117.499805 227.99952 L 123.999666 243.999577 L 144.000513 259.999634 L 171.499609 275.999691 L 202.999495 291.49952 L 200.500423 313.500244 L 194.499756 329.999495 L 182.00026 359.499504 L 178.000505 375.499561 L 173.999715 391.000423 L 173.999715 407.499674 L 169.999959 423.499731 L 164.000326 439.499788 L 187.999894 454.999618 L 220.000008 470.999674 L 240.500049 465.500269 L 256.500106 457.499723 L 272.500163 454.999618 L 290.500098 466.999919 L 296.499731 454.999618 L 312.499788 449.500212 " transform="matrix(3.779528,0,0,3.779528,0,0)"/>
<path style="fill:none;stroke-width:2;stroke-linecap:butt;stroke-linejoin:miter;stroke:rgb(0%,0%,0%);stroke-opacity:1;stroke-miterlimit:4;" d="M 22.499919 360.499959 L 24.499797 344.499902 L 24.499797 318.000228 L 26.499674 302.000171 L 26.999902 284.000236 L 26.999902 268.000179 L 26.499674 252.000122 L 26.499674 235.499837 L 26.00048 219.49978 L 25.500252 203.499723 L 26.999902 187.499666 L 25.000024 171.999837 " transform="matrix(3.779528,0,0,3.779528,0,0)"/>
<path style="fill:none;stroke-width:2;stroke-linecap:butt;stroke-linejoin:miter;stroke:rgb(0%,0%,0%);stroke-opacity:1;stroke-miterlimit:4;" d="M 25.500252 162.499642 L 35.499642 178.499699 L 41.500309 194.499756 L 41.500309 225.999642 L 41.999504 241.999699 L 41.500309 257.999756 L 41.500309 338.000041 L 41.000081 354.500326 L 41.000081 370.500382 L 41.500309 386.500439 L 41.500309 418.49952 L 45.500065 434.000382 " transform="matrix(3.779528,0,0,3.779528,0,0)"/>
<path style="fill:none;stroke-width:2;stroke-linecap:butt;stroke-linejoin:miter;stroke:rgb(0%,0%,0%);stroke-opacity:1;stroke-miterlimit:4;" d="M 37.999748 173.000293 L 21.999691 160.999992 " transform="matrix(3.779528,0,0,3.779528,0,0)"/>
<path style="fill:none;stroke-width:2;stroke-linecap:butt;stroke-linejoin:miter;stroke:rgb(0%,0%,0%);stroke-opacity:1;stroke-miterlimit:4;" d="M 14.500407 144.999935 L 30.500464 159.000114 L 46.499487 168.999504 " transform="matrix(3.779528,0,0,3.779528,0,0)"/>
<path style="fill:none;stroke-width:2;stroke-linecap:butt;stroke-linejoin:miter;stroke:rgb(0%,0%,0%);stroke-opacity:1;stroke-miterlimit:4;" d="M 44.999837 160.499764 L 28.99978 150.500374 L 12.999723 138.500073 " transform="matrix(3.779528,0,0,3.779528,0,0)"/>
<path style="fill:none;stroke-width:2;stroke-linecap:butt;stroke-linejoin:miter;stroke:rgb(0%,0%,0%);stroke-opacity:1;stroke-miterlimit:4;" d="M 12.499495 139.499495 L 21.999691 155.499552 L 21.999691 202.999495 L 20.500041 218.500358 L 20.500041 234.500415 L 19.999813 250.500472 L 19.999813 314.000472 L 19.499585 330.499723 L 17.499707 346.49978 L 17.999935 362.499837 L 20.500041 374.500138 " transform="matrix(3.779528,0,0,3.779528,0,0)"/>
<path style="fill:none;stroke-width:2;stroke-linecap:butt;stroke-linejoin:miter;stroke:rgb(0%,0%,0%);stroke-opacity:1;stroke-miterlimit:4;" d="M 48.000171 414.999992 L 48.500399 398.999935 L 46.499487 382.49965 L 46.499487 366.000399 L 46.000293 350.000342 L 46.000293 317.5 L 46.499487 300.999715 L 46.499487 254 L 46.999715 238.500171 L 46.499487 222.500114 L 46.499487 190.5 L 38.499976 174.499943 L 34.50022 156.500008 L 16.500285 140.499951 " transform="matrix(3.779528,0,0,3.779528,0,0)"/>
<path style="fill:none;stroke-width:2;stroke-linecap:butt;stroke-linejoin:miter;stroke:rgb(0%,0%,0%);stroke-opacity:1;stroke-miterlimit:4;" d="M 46.000293 85.499691 L 46.000293 69.499634 " transform="matrix(3.779528,0,0,3.779528,0,0)"/>
<path style="fill:none;stroke-width:2;stroke-linecap:butt;stroke-linejoin:miter;stroke:rgb(0%,0%,0%);stroke-opacity:1;stroke-miterlimit:4;" d="M 134.500317 91.00013 L 120.500138 106.499959 L 112.499593 122.500016 L 102.500203 138.500073 L 102.500203 156.500008 L 100.500326 172.500065 L 105.000309 180.499577 L 114.999699 194.499756 " transform="matrix(3.779528,0,0,3.779528,0,0)"/>
<path style="fill:none;stroke-width:2;stroke-linecap:butt;stroke-linejoin:miter;stroke:rgb(0%,0%,0%);stroke-opacity:1;stroke-miterlimit:4;" d="M 150.999569 184.999561 L 148.999691 169.499731 L 148.999691 153.499674 L 146.999813 137.999845 L 143.000057 122.500016 L 143.000057 106.499959 " transform="matrix(3.779528,0,0,3.779528,0,0)"/>
<path style="fill:none;stroke-width:2;stroke-linecap:butt;stroke-linejoin:miter;stroke:rgb(0%,0%,0%);stroke-opacity:1;stroke-miterlimit:4;" d="M 141.000179 96.999764 L 132.500439 112.999821 L 128.999878 128.999878 L 126.499772 144.999935 L 126.499772 160.499764 L 123.999666 176.499821 L 124.499894 192.499878 L 127 207.999707 L 131.499984 223.999764 L 137.499618 239.499593 L 155.499552 252.000122 L 179.500155 268.000179 L 213.500146 284.000236 " transform="matrix(3.779528,0,0,3.779528,0,0)"/>
</g>
</svg>
