<svg xmlns="http://www.w3.org/2000/svg" width="512mm" height="512mm" viewBox="0 0 512 512" version="1.1"><polyline points="353.5,2.5,359.5,18.5,353.5,34.5,343.5,50.5,355.5,63.0,371.5,63.0,387.5,61.0,403.5,73.0" stroke="black" stroke-width="2" fill="none" />
<polyline points="415.0,73.5,399.0,60.0,383.0,54.0" stroke="black" stroke-width="2" fill="none" />
<polyline points="394.0,63.5,396.0,83.5,391.5,99.5,389.5,115.5,389.5,131.5,392.0,148.0,398.0,163.5,388.0,181.5,380.0,198.0,382.0,208.0,398.0,198.5,418.0,178.5" stroke="black" stroke-width="2" fill="none" />
<polyline points="437.5,162.0,421.5,138.0" stroke="black" stroke-width="2" fill="none" />
<polyline points="427.5,133.0,443.0,135.0,459.0,135.0" stroke="black" stroke-width="2" fill="none" />
<polyline points="469.0,114.0,452.5,94.0" stroke="black" stroke-width="2" fill="none" />
<polyline points="451.5,91.5,463.5,107.5,469.5,123.5,461.5,125.0,453.5,143.0,445.5,158.5,460.0,176.5,474.5,188.0,479.0,204.0,495.5,220.0,492.0,236.0,486.0,252.0" stroke="black" stroke-width="2" fill="none" />
<polyline points="479.5,265.5,489.5,249.5,495.5,234.0,499.0,218.5,497.5,216.5" stroke="black" stroke-width="2" fill="none" />
<polyline points="490.0,207.0,506.0,205.0" stroke="black" stroke-width="2" fill="none" />
<polyline points="498.5,192.0,482.0,194.0" stroke="black" stroke-width="2" fill="none" />
<polyline points="457.0,178.0,473.0,152.0,489.5,140.0,505.5,146.0" stroke="black" stroke-width="2" fill="none" />
<polyline points="498.0,135.5,482.0,137.5,474.5,155.5,488.5,139.0" stroke="black" stroke-width="2" fill="none" />
<polyline points="488.5,133.5,468.5,149.5,465.5,169.5,478.0,175.5,480.0,191.5,470.0,210.0,462.0,226.0,446.5,241.5,444.5,257.5,426.0,257.0,422.0,263.0,420.0,279.0,418.0,295.5,413.5,311.5,415.5,328.0,419.0,344.0,411.0,360.0" stroke="black" stroke-width="2" fill="none" />
<polyline points="413.0,343.5,397.0,325.5" stroke="black" stroke-width="2" fill="none" />
<polyline points="403.5,330.5,399.5,315.0,397.5,299.0,399.5,283.0,401.5,267.0,405.5,251.0,413.5,242.5,397.5,254.5" stroke="black" stroke-width="2" fill="none" />
<polyline points="377.0,232.5,377.0,248.5,376.5,264.5,376.5,280.5,374.5,296.5,376.5,312.5,378.5,328.0,370.0,344.0,376.0,338.0" stroke="black" stroke-width="2" fill="none" />
<polyline points="412.5,337.0,412.5,331.0,409.0,315.0,411.0,299.0,413.5,283.0,416.0,267.5,420.0,251.0,428.0,245.0,422.5,245.5,399.0,227.5,383.0,225.5" stroke="black" stroke-width="2" fill="none" />
<polyline points="384.5,211.5,400.5,201.5" stroke="black" stroke-width="2" fill="none" />
<polyline points="426.0,167.0,410.0,171.0,394.0,157.5" stroke="black" stroke-width="2" fill="none" />
<polyline points="389.0,153.5,405.0,175.5" stroke="black" stroke-width="2" fill="none" />
<polyline points="398.5,141.0,400.5,131.0,416.0,143.0,432.0,165.0,447.5,165.0" stroke="black" stroke-width="2" fill="none" />
<polyline points="444.0,125.0,428.0,125.0" stroke="black" stroke-width="2" fill="none" />
<polyline points="424.0,125.0,440.0,121.5,456.0,123.5" stroke="black" stroke-width="2" fill="none" />
<polyline points="441.5,129.5,425.0,129.0" stroke="black" stroke-width="2" fill="none" />
<polyline points="422.0,116.0,438.0,98.0,453.5,110.0" stroke="black" stroke-width="2" fill="none" />
<polyline points="455.0,116.5,443.0,100.5" stroke="black" stroke-width="2" fill="none" />
<polyline points="437.5,98.5,423.5,114.5,419.5,130.5,425.5,134.5,425.5,150.5" stroke="black" stroke-width="2" fill="none" />
<polyline points="422.0,94.5,406.0,80.5,389.5,84.5" stroke="black" stroke-width="2" fill="none" />
<polyline points="392.5,81.0,408.5,91.0,425.0,100.5,441.5,92.5,458.0,90.5,474.0,110.5" stroke="black" stroke-width="2" fill="none" />
<polyline points="457.0,126.0,461.0,110.5,445.0,94.5" stroke="black" stroke-width="2" fill="none" />
<polyline points="458.5,93.0,472.5,108.5,476.5,124.5,460.5,138.5,454.5,154.5" stroke="black" stroke-width="2" fill="none" />
<polyline points="502.5,198.5,486.5,203.0,478.5,207.0,457.0,231.0,441.0,241.5" stroke="black" stroke-width="2" fill="none" />
<polyline points="438.0,230.0,454.0,226.0,470.0,200.0,466.0,210.0,454.0,225.5,440.0,235.5,440.0,263.5,452.5,266.0,468.5,270.0,485.0,262.0" stroke="black" stroke-width="2" fill="none" />
<polyline points="346.0,294.5,344.0,278.0,342.0,261.5,329.5,261.5" stroke="black" stroke-width="2" fill="none" />
<polyline points="331.0,269.5,329.0,285.5" stroke="black" stroke-width="2" fill="none" />
<polyline points="325.0,288.0,321.5,271.5,310.0,264.0" stroke="black" stroke-width="2" fill="none" />
<polyline points="300.0,270.0,315.5,270.0,331.5,268.0,335.0,276.0,336.5,291.5" stroke="black" stroke-width="2" fill="none" />
<polyline points="330.0,311.5,314.0,313.5,298.0,315.5,281.5,315.5,265.0,317.5,248.5,320.0,232.5,320.5,217.0,322.5" stroke="black" stroke-width="2" fill="none" />
<polyline points="214.5,339.5,230.5,337.5,247.0,335.5,263.0,335.5,278.5,335.0,294.0,333.5" stroke="black" stroke-width="2" fill="none" />
<polyline points="297.5,282.5,287.0,272.0,271.0,274.0" stroke="black" stroke-width="2" fill="none" />
<polyline points="273.5,276.0,271.5,292.0" stroke="black" stroke-width="2" fill="none" />
<polyline points="293.0,300.0,277.0,304.0,261.0,314.0,245.0,314.0" stroke="black" stroke-width="2" fill="none" />
<polyline points="254.5,310.0,242.0,302.0,242.0,285.5,244.0,281.5" stroke="black" stroke-width="2" fill="none" />
<polyline points="240.5,273.5,256.5,273.5,265.0,279.5,265.5,295.5,277.5,307.5" stroke="black" stroke-width="2" fill="none" />
<polyline points="300.5,289.5,295.0,293.5,295.0,278.0,305.0,276.0" stroke="black" stroke-width="2" fill="none" />
<polyline points="327.5,307.5,311.5,309.5,296.0,311.5,280.5,313.5,262.5,307.0,247.0,306.5,233.0,310.5,223.5,308.5,239.5,296.5,239.5,280.5,231.5,276.5,215.5,279.0" stroke="black" stroke-width="2" fill="none" />
<polyline points="217.0,276.5,217.0,292.0,217.0,308.0,219.0,315.5,234.5,313.5" stroke="black" stroke-width="2" fill="none" />
<polyline points="199.5,347.5,215.5,347.5,231.5,347.5,247.5,345.5,264.0,345.5,280.0,345.5,296.5,343.5,313.0,344.0,329.5,342.0,345.5,338.0,362.0,338.0" stroke="black" stroke-width="2" fill="none" />
<polyline points="360.5,369.0,344.5,367.0" stroke="black" stroke-width="2" fill="none" />
<polyline points="341.5,365.5,335.5,381.5,335.5,397.5,323.5,414.0,317.0,430.5,313.0,446.5,307.0,463.0,301.5,479.0,301.5,495.0,300.0,510.5,316.0,508.5" stroke="black" stroke-width="2" fill="none" />
<polyline points="321.5,509.5,305.0,493.5" stroke="black" stroke-width="2" fill="none" />
<polyline points="303.5,497.0,320.0,497.0,336.0,504.5,352.0,504.0,368.5,496.0,384.5,479.5,386.5,489.5,361.0,505.5" stroke="black" stroke-width="2" fill="none" />
<polyline points="338.5,462.5,346.5,447.0,336.5,447.0,349.0,435.0,355.0,434.5,363.0,408.0,359.0,391.5,365.0,377.5,359.0,377.5,343.0,375.5" stroke="black" stroke-width="2" fill="none" />
<polyline points="344.5,412.5,344.0,420.5,360.0,410.5,375.5,412.5" stroke="black" stroke-width="2" fill="none" />
<polyline points="370.5,415.0,384.0,431.5,388.0,447.5,390.0,464.0,384.5,480.0,368.5,496.5" stroke="black" stroke-width="2" fill="none" />
<polyline points="336.5,452.0,353.0,442.0" stroke="black" stroke-width="2" fill="none" />
<polyline points="334.0,438.0,334.5,428.0,328.5,444.0,332.5,460.0" stroke="black" stroke-width="2" fill="none" />
<polyline points="329.0,454.5,345.0,460.5" stroke="black" stroke-width="2" fill="none" />
<polyline points="328.0,437.5,344.0,425.5" stroke="black" stroke-width="2" fill="none" />
<polyline points="364.5,414.5,380.5,420.5" stroke="black" stroke-width="2" fill="none" />
<polyline points="400.5,494.0,384.5,504.0,396.5,488.0,386.5,502.0,380.0,500.0,398.0,498.0,400.0,482.0,396.0,466.0,394.0,449.5,390.0,434.0,384.0,417.5,348.0,405.5,332.0,415.5,316.0,451.5,316.0,477.5" stroke="black" stroke-width="2" fill="none" />
<polyline points="302.5,478.5,318.0,430.0,334.0,408.0,324.0,432.0,318.0,447.5,312.0,463.5,307.5,479.0,317.5,495.0" stroke="black" stroke-width="2" fill="none" />
<polyline points="311.0,493.5,327.0,505.5,342.5,509.5,358.5,507.5,374.5,500.0,390.0,482.0" stroke="black" stroke-width="2" fill="none" />
<polyline points="315.5,501.5,301.5,511.5" stroke="black" stroke-width="2" fill="none" />
<polyline points="272.0,467.0,256.5,471.0" stroke="black" stroke-width="2" fill="none" />
<polyline points="254.0,474.5,270.5,473.0,286.5,475.5,286.5,492.0" stroke="black" stroke-width="2" fill="none" />
<polyline points="282.0,489.0,282.5,473.0,286.5,451.5,282.5,435.5,280.5,419.5,259.0,403.5,248.5,384.0,238.5,376.0,256.0,372.0,252.0,370.0" stroke="black" stroke-width="2" fill="none" />
<polyline points="231.5,369.0,229.5,385.0,231.5,401.0,217.5,417.5,203.5,433.5,189.5,449.5,174.0,466.0,160.0,482.5,158.0,499.0,172.0,505.0,176.0,503.0,192.0,505.0,208.5,501.0,222.0,501.0,232.0,511.0,247.5,506.5,263.5,504.5,279.0,498.5" stroke="black" stroke-width="2" fill="none" />
<polyline points="230.0,491.0,246.0,479.0,261.5,450.5" stroke="black" stroke-width="2" fill="none" />
<polyline points="280.5,448.5,276.5,432.5,268.0,416.5,254.0,402.5,241.5,398.5,259.5,382.0,241.5,390.0" stroke="black" stroke-width="2" fill="none" />
<polyline points="232.0,414.5,214.0,430.0,199.5,446.5,185.5,462.5,170.0,478.5,168.5,494.5,176.5,496.5,192.5,498.0,208.5,494.0,224.5,487.5,240.5,475.5,256.5,453.5" stroke="black" stroke-width="2" fill="none" />
<polyline points="230.0,446.0,214.0,450.0" stroke="black" stroke-width="2" fill="none" />
<polyline points="214.5,439.5,230.5,429.5,240.5,439.5,232.5,455.0" stroke="black" stroke-width="2" fill="none" />
<polyline points="263.5,422.0,261.5,438.5,255.5,455.0,243.5,471.5,221.0,488.0,213.0,508.5,229.0,505.0,245.0,503.0,260.5,499.0,276.5,495.0" stroke="black" stroke-width="2" fill="none" />
<polyline points="213.0,508.0,223.0,493.5,247.0,477.5,259.0,457.5,265.5,442.0,268.0,426.0" stroke="black" stroke-width="2" fill="none" />
<polyline points="188.0,350.0,204.0,354.0,220.5,353.5,236.5,352.0,253.0,352.0,269.0,352.0,285.0,352.5,300.5,350.5,316.0,350.0,332.0,348.0,348.5,344.0,364.5,344.0" stroke="black" stroke-width="2" fill="none" />
<polyline points="483.5,251.5,467.5,265.5,451.5,259.5,431.5,266.0,429.5,248.0,419.5,240.5,404.0,220.5,388.0,216.5,372.5,216.0,372.5,204.0,378.5,188.0,386.5,171.5,374.5,208.0,402.5,192.0,416.5,176.0,430.5,164.0,418.5,148.0,416.5,132.0,418.0,116.0,417.5,100.0,409.0,83.5,391.0,67.5,385.0,67.5,379.5,51.5,389.5,35.5,398.0,19.5,390.0,35.5,374.5,49.0,387.0,33.0,395.0,17.5,377.0,24.0,361.0,34.0,345.0,61.5,328.5,63.5,312.5,65.5,298.0,55.0,298.0,39.5,294.0,23.5,290.0,21.5,290.0,22.0,274.5,16.0,258.5,26.0" stroke="black" stroke-width="2" fill="none" />
<polyline points="255.5,27.0,271.0,57.5,287.0,66.0,302.5,60.0,318.0,60.0,333.5,58.5,349.5,40.5,359.5,16.5,369.5,16.5" stroke="black" stroke-width="2" fill="none" />
<polyline points="366.0,4.5,382.5,10.0,384.0,18.0" stroke="black" stroke-width="2" fill="none" />
<polyline points="390.0,25.5,374.0,49.5,358.0,55.0,349.5,49.5,359.5,33.5,373.0,17.5,359.0,1.5" stroke="black" stroke-width="2" fill="none" />
<polyline points="292.5,16.5,276.5,11.0" stroke="black" stroke-width="2" fill="none" />
<polyline points="280.5,27.0,264.5,27.0" stroke="black" stroke-width="2" fill="none" />
<polyline points="266.5,30.0,258.5,26.0,264.5,28.0,290.0,32.0,294.0,48.5" stroke="black" stroke-width="2" fill="none" />
<polyline points="285.5,59.5,270.0,47.0" stroke="black" stroke-width="2" fill="none" />
<polyline points="268.0,41.0,284.0,31.0" stroke="black" stroke-width="2" fill="none" />
<polyline points="260.5,30.5,276.5,34.5,268.5,46.5,278.0,62.5" stroke="black" stroke-width="2" fill="none" />
<polyline points="273.0,79.5,257.0,89.5,285.0,77.5,275.0,83.5,258.5,93.5" stroke="black" stroke-width="2" fill="none" />
<polyline points="251.5,106.5,273.5,122.5,267.0,134.5,265.0,150.5,252.5,166.0,242.5,176.0" stroke="black" stroke-width="2" fill="none" />
<polyline points="264.0,176.0,280.0,160.0,286.5,144.0,293.0,128.5,303.0,112.5,317.0,110.5,301.5,124.5" stroke="black" stroke-width="2" fill="none" />
<polyline points="308.0,129.5,324.0,111.0,340.0,107.5,356.0,117.5" stroke="black" stroke-width="2" fill="none" />
<polyline points="363.5,102.0,347.5,90.0,331.5,86.0,315.0,92.0,299.5,105.5,301.0,121.5,312.5,111.5,316.0,103.5" stroke="black" stroke-width="2" fill="none" />
<polyline points="328.5,109.5,312.0,125.5,306.0,141.5,312.0,157.0,318.0,159.0,334.5,156.5" stroke="black" stroke-width="2" fill="none" />
<polyline points="339.5,162.0,353.5,146.0,359.5,130.5,365.5,114.5,349.5,98.5,333.5,92.0,317.5,96.0,301.5,110.5" stroke="black" stroke-width="2" fill="none" />
<polyline points="314.5,129.5,330.5,117.5,347.0,115.0" stroke="black" stroke-width="2" fill="none" />
<polyline points="334.5,120.5,330.5,152.5,314.5,146.5,312.5,140.5,320.5,124.5" stroke="black" stroke-width="2" fill="none" />
<polyline points="331.5,126.5,337.5,142.5" stroke="black" stroke-width="2" fill="none" />
<polyline points="351.0,163.5,335.0,173.5,318.5,175.5,302.5,163.5,282.5,121.5,266.5,105.5,250.0,100.0,234.0,100.5,218.0,110.5,202.0,130.5,226.0,124.5,218.0,144.0" stroke="black" stroke-width="2" fill="none" />
<polyline points="222.5,147.5,238.5,134.0,254.0,128.0,261.5,147.5,249.5,163.5" stroke="black" stroke-width="2" fill="none" />
<polyline points="265.0,136.5,259.0,154.0,249.0,181.5,267.0,167.5,279.0,151.5,281.0,135.5,285.0,133.5,278.5,117.5,256.5,101.0,272.0,79.5,270.0,60.0,260.5,44.0,255.0,27.5,269.0,11.5,269.5,11.5,253.0,25.5" stroke="black" stroke-width="2" fill="none" />
<polyline points="210.5,64.0,194.5,47.5" stroke="black" stroke-width="2" fill="none" />
<polyline points="173.5,31.0,189.5,22.5,181.5,25.0,171.5,37.0,188.0,39.0,188.0,29.0,198.0,44.5,214.5,60.0,230.5,71.5,246.5,69.5,262.5,65.5" stroke="black" stroke-width="2" fill="none" />
<polyline points="264.0,72.0,248.0,74.5,232.0,76.5,216.0,78.0,200.0,84.0,180.0,104.0,164.0,105.5,148.0,128.0,134.0,130.0,118.5,144.5,103.0,155.0,87.0,157.0,71.0,181.0" stroke="black" stroke-width="2" fill="none" />
<polyline points="74.5,183.0,90.5,161.0,106.5,161.0,122.5,175.5,139.0,179.0,155.0,187.0" stroke="black" stroke-width="2" fill="none" />
<polyline points="169.0,175.5,173.0,149.5,157.0,151.0" stroke="black" stroke-width="2" fill="none" />
<polyline points="155.5,142.0,171.5,140.0" stroke="black" stroke-width="2" fill="none" />
<polyline points="150.0,133.0,166.5,110.5,167.0,111.0,155.0,127.0,147.5,143.0,150.0,159.5,150.5,169.0,162.5,175.0,151.0,182.5,167.0,198.0" stroke="black" stroke-width="2" fill="none" />
<polyline points="190.0,217.5,206.0,226.0,222.0,226.5,238.0,226.5,253.5,224.0,269.5,222.0,286.0,222.0,302.0,219.5,317.5,217.0,334.0,215.0,350.0,213.0,366.0,209.0,381.5,178.5" stroke="black" stroke-width="2" fill="none" />
<polyline points="356.0,164.0,340.0,178.0,324.5,183.5,308.5,177.5,292.5,159.0,270.0,163.5,254.0,174.0,238.0,184.0,222.0,178.5,206.0,160.5" stroke="black" stroke-width="2" fill="none" />
<polyline points="200.0,157.5,215.5,181.5,231.5,190.0,247.5,188.0,263.5,176.0,280.0,158.5,290.0,160.5,304.0,176.5" stroke="black" stroke-width="2" fill="none" />
<polyline points="262.5,125.0,246.5,119.5,230.5,125.0" stroke="black" stroke-width="2" fill="none" />
<polyline points="230.0,127.0,220.0,143.0,217.5,159.0,225.5,167.0,241.5,171.0,257.5,163.0" stroke="black" stroke-width="2" fill="none" />
<polyline points="235.5,161.5,219.5,159.5,221.5,151.0,229.5,135.0" stroke="black" stroke-width="2" fill="none" />
<polyline points="237.5,133.5,245.5,149.5,232.0,145.5" stroke="black" stroke-width="2" fill="none" />
<polyline points="218.0,127.0,234.0,114.5,220.5,124.0,210.5,126.0,205.0,141.5,205.0,157.5,215.5,173.5" stroke="black" stroke-width="2" fill="none" />
<polyline points="203.5,139.0,217.5,131.0,218.0,115.0,234.0,105.5,250.5,104.0,267.0,114.0" stroke="black" stroke-width="2" fill="none" />
<polyline points="238.0,98.0,213.5,114.0,202.0,130.5,198.0,146.5,200.5,162.0,210.5,177.5" stroke="black" stroke-width="2" fill="none" />
<polyline points="186.0,189.5,178.0,189.5,173.5,179.5,175.5,163.5" stroke="black" stroke-width="2" fill="none" />
<polyline points="139.5,172.5,123.5,166.5" stroke="black" stroke-width="2" fill="none" />
<polyline points="122.0,162.5,138.0,165.0" stroke="black" stroke-width="2" fill="none" />
<polyline points="138.0,159.0,122.0,151.0" stroke="black" stroke-width="2" fill="none" />
<polyline points="124.5,141.5,140.5,139.5,144.5,148.0,160.5,170.0" stroke="black" stroke-width="2" fill="none" />
<polyline points="122.5,200.5,106.5,219.0,90.0,211.0,74.0,203.0" stroke="black" stroke-width="2" fill="none" />
<polyline points="74.0,209.5,90.0,215.5,114.0,223.0,130.0,249.0,146.5,267.5,162.5,263.5" stroke="black" stroke-width="2" fill="none" />
<polyline points="186.0,246.0,202.0,236.0,218.0,236.0,234.5,234.0,250.5,234.5,274.5,234.0,290.5,234.5,307.0,234.5,322.5,233.0,338.5,232.5,354.5,228.5" stroke="black" stroke-width="2" fill="none" />
<polyline points="344.0,310.0,346.0,308.0,350.0,292.0,350.5,276.5,348.5,260.5,338.0,254.5,322.0,256.5,305.5,258.5,289.5,262.5,274.0,264.5,258.5,266.0,242.5,267.5,226.5,267.5,210.5,269.5" stroke="black" stroke-width="2" fill="none" />
<polyline points="215.0,267.5,210.5,284.0,211.0,300.0,205.0,306.0,219.0,322.0,191.0,338.0,207.0,338.5,222.5,334.5,238.5,332.5,254.5,333.0,270.5,333.0,286.5,331.0,302.5,331.0,318.5,335.5,335.0,321.0" stroke="black" stroke-width="2" fill="none" />
<polyline points="406.0,359.0,390.0,359.5,373.5,351.0,369.5,347.0,371.5,322.5,370.0,306.0,370.0,290.0,370.0,274.0,369.5,257.5,369.5,241.5,365.5,229.5,350.0,233.0,333.5,235.0,317.0,237.0,301.5,237.0,286.0,239.5,270.0,239.5,254.0,239.5,237.5,241.5,221.5,241.5,205.5,245.5,189.5,251.5" stroke="black" stroke-width="2" fill="none" />
<polyline points="197.0,246.5,191.0,262.5,189.0,278.5,191.0,294.0,189.0,310.0,189.0,325.5,189.0,342.0,195.0,362.0,197.0,360.5,213.5,362.5,229.5,362.5,245.0,362.5,261.0,362.5,280.5,366.0,296.0,366.0,312.0,363.5,327.5,363.5,343.5,361.5,359.5,363.5,375.5,363.0,391.5,363.0,407.5,361.0" stroke="black" stroke-width="2" fill="none" />
<polyline points="414.5,346.0,398.5,330.0,394.5,314.0,394.5,298.0,394.0,282.0,395.5,266.0,399.0,249.5,411.0,233.5,403.0,233.5,387.5,231.5,363.5,221.5,348.0,221.5,332.0,223.5,316.5,223.0,301.0,223.0,285.0,227.5,269.0,228.0,249.0,230.0,233.0,229.5,216.5,231.5,200.5,229.5,194.0,215.0,192.0,199.5,186.0,189.5,188.0,173.5,186.0,158.0,186.5,142.0,184.5,126.0,184.5,110.0,188.5,94.0,198.0,78.0,205.5,62.0,191.5,46.0,197.5,32.0,205.5,30.0,201.5,19.5,185.0,18.0,169.0,26.0" stroke="black" stroke-width="2" fill="none" />
<polyline points="181.5,17.0,169.5,33.0,193.5,43.0,211.5,59.5,206.0,80.0,192.0,96.5,192.0,112.5,192.0,128.5,190.0,144.5,182.5,156.5,183.0,172.5,181.0,188.5,188.5,204.5,190.5,220.5,192.5,240.5,184.5,256.5,180.5,272.0,182.0,272.0" stroke="black" stroke-width="2" fill="none" />
<polyline points="126.0,310.5,110.0,308.5" stroke="black" stroke-width="2" fill="none" />
<polyline points="107.0,305.5,123.5,298.0" stroke="black" stroke-width="2" fill="none" />
<polyline points="144.0,283.5,128.0,287.5,112.0,286.0,96.0,262.5" stroke="black" stroke-width="2" fill="none" />
<polyline points="93.0,266.0,109.0,287.5,125.0,293.5,141.0,289.5,157.0,291.5,172.5,292.0,184.5,292.5,184.0,308.5,183.5,324.5,181.0,340.5,181.0,356.5,194.5,368.5,210.5,368.0,227.0,367.5,245.5,373.5,258.0,365.5,274.0,365.5,290.0,359.5,306.0,359.5,322.0,357.5,338.5,355.5,354.5,355.5" stroke="black" stroke-width="2" fill="none" />
<polyline points="276.0,411.5,260.0,406.0,243.5,420.0,228.0,416.0,212.0,432.0,196.0,452.0,180.0,468.0,164.0,488.0" stroke="black" stroke-width="2" fill="none" />
<polyline points="158.0,487.5,173.5,465.5,189.5,449.0,205.5,431.0,221.0,413.0,237.5,401.0,242.0,407.0,264.0,413.0" stroke="black" stroke-width="2" fill="none" />
<polyline points="102.5,494.0,86.5,496.5" stroke="black" stroke-width="2" fill="none" />
<polyline points="89.5,490.0,101.0,506.0" stroke="black" stroke-width="2" fill="none" />
<polyline points="105.5,504.5,95.5,488.5,97.0,472.5,90.5,466.5,82.5,475.0" stroke="black" stroke-width="2" fill="none" />
<polyline points="87.0,446.5,71.0,444.5,55.5,458.5" stroke="black" stroke-width="2" fill="none" />
<polyline points="46.5,464.0,34.5,472.0,40.5,473.5,40.0,489.0" stroke="black" stroke-width="2" fill="none" />
<polyline points="40.5,497.0,44.5,487.0,48.5,471.0,56.5,454.5,56.0,440.5,40.0,432.5" stroke="black" stroke-width="2" fill="none" />
<polyline points="37.5,434.0,53.5,436.0,69.5,440.0,86.0,435.5,86.5,447.5,88.5,463.5,84.5,479.5,86.5,495.5,92.0,503.5,97.5,503.5,103.5,501.5" stroke="black" stroke-width="2" fill="none" />
<polyline points="89.5,410.0,74.0,418.0,58.0,418.5,42.0,408.0" stroke="black" stroke-width="2" fill="none" />
<polyline points="43.5,400.0,47.5,416.0,51.5,422.5,67.5,424.5,84.0,421.0" stroke="black" stroke-width="2" fill="none" />
<polyline points="25.0,374.5,41.0,352.5,56.5,349.0" stroke="black" stroke-width="2" fill="none" />
<polyline points="33.0,353.5,17.0,373.5" stroke="black" stroke-width="2" fill="none" />
<polyline points="19.5,381.0,39.5,397.0,37.5,414.0,43.5,438.5,43.5,454.5,35.5,471.0,32.0,486.5,38.0,502.5,46.0,498.0" stroke="black" stroke-width="2" fill="none" />
<polyline points="24.0,398.0,34.5,385.5,24.5,398.0,16.5,396.0,18.0,380.5,26.0,364.5,38.0,348.5,30.0,332.0,20.0,332.0,5.5,314.0,5.5,320.0" stroke="black" stroke-width="2" fill="none" />
<polyline points="2.0,323.5,18.0,335.5,34.0,333.5,46.0,353.5,62.0,356.0" stroke="black" stroke-width="2" fill="none" />
<polyline points="94.0,339.5,96.0,355.5,106.0,359.0" stroke="black" stroke-width="2" fill="none" />
<polyline points="149.5,275.5,133.5,263.5,117.5,237.5,91.5,229.5,75.5,216.0" stroke="black" stroke-width="2" fill="none" />
<polyline points="78.0,212.5,96.0,229.0,121.5,211.0" stroke="black" stroke-width="2" fill="none" />
<polyline points="83.0,226.5,72.5,210.5" stroke="black" stroke-width="2" fill="none" />
<polyline points="73.0,220.5,89.0,236.5,105.0,232.5,125.5,240.5,133.5,256.5,153.5,262.5" stroke="black" stroke-width="2" fill="none" />
<polyline points="78.0,314.0,58.0,316.0,54.0,306.0,54.0,314.0,52.0,294.0,66.0,278.0,66.0,263.5,50.0,257.5,34.0,260.0,18.5,270.0,2.5,284.0,20.5,276.0,34.5,284.0,18.5,292.5,2.5,298.5" stroke="black" stroke-width="2" fill="none" />
<polyline points="6.0,301.0,22.0,301.0" stroke="black" stroke-width="2" fill="none" />
<polyline points="41.0,289.5,23.0,295.5,39.0,285.5,42.5,275.5" stroke="black" stroke-width="2" fill="none" />
<polyline points="43.0,280.0,23.0,295.5,31.0,311.0" stroke="black" stroke-width="2" fill="none" />
<polyline points="1.5,290.0,17.5,278.0,33.0,266.5,49.0,264.5,65.5,270.5,69.5,274.5,71.5,292.5,73.5,308.0,71.5,318.0,73.5,322.0,80.0,325.5,69.5,349.5,77.5,339.0,89.5,343.0,91.0,359.0,93.5,379.0,92.0,395.0" stroke="black" stroke-width="2" fill="none" />
<polyline points="56.5,280.0,40.5,297.5,29.0,305.5,39.5,304.0,50.0,288.0,62.0,272.0" stroke="black" stroke-width="2" fill="none" />
<polyline points="51.0,264.0,51.0,279.5,33.0,285.5,19.0,312.0,23.0,318.5,41.0,334.5,41.0,354.5,28.5,370.5,34.5,386.5,28.5,402.5,21.0,404.5,37.0,394.5" stroke="black" stroke-width="2" fill="none" />
<polyline points="85.0,337.0,69.0,338.5,50.5,338.5,34.5,328.0,26.5,327.5,14.5,325.0,4.0,325.5,4.0,310.0,6.0,296.0,14.0,274.5,38.0,258.5" stroke="black" stroke-width="2" fill="none" />
<polyline points="143.0,271.5,127.0,255.5,119.0,239.5,115.0,223.5,77.0,205.5,75.0,189.0,79.0,172.5,94.5,156.5" stroke="black" stroke-width="2" fill="none" />
<polyline points="90.0,153.5,74.5,169.5,70.5,185.5,68.5,202.0,70.5,218.0,84.5,234.0,88.5,250.0,92.5,266.0,98.0,281.5,129.5,301.5,121.5,319.0,117.5,335.0,113.5,352.0,103.5,354.5" stroke="black" stroke-width="2" fill="none" />
<polyline points="128.5,197.5,128.0,181.5,111.5,163.5,117.0,145.5,129.0,130.0" stroke="black" stroke-width="2" fill="none" />
<polyline points="164.5,104.5,151.0,120.5,145.0,136.5,123.0,148.0,123.0,168.0,121.0,189.5,113.0,203.5,115.0,209.0,109.5,225.0,91.5,243.0,93.5,259.5,101.5,275.5,109.5,299.5,117.5,320.0,113.0,336.5,107.0,352.5,89.0,379.0,87.5,395.0,87.5,411.0" stroke="black" stroke-width="2" fill="none" />
<polyline points="170.5,174.0,155.0,176.5,168.5,156.5,162.5,144.5,156.5,144.5,180.5,142.5,180.5,126.5,176.5,110.5" stroke="black" stroke-width="2" fill="none" />
<polyline points="189.5,92.5,205.5,76.5" stroke="black" stroke-width="2" fill="none" />
<polyline points="330.0,85.5,304.0,101.5,292.0,118.0,290.0,144.0,298.0,159.5,314.5,175.5" stroke="black" stroke-width="2" fill="none" />
<polyline points="342.5,146.0,344.5,130.5,333.0,114.5" stroke="black" stroke-width="2" fill="none" />
<polyline points="334.0,106.0,352.0,122.0,352.0,138.0,342.0,154.5" stroke="black" stroke-width="2" fill="none" />
<polyline points="357.5,140.0,345.0,152.0,336.5,166.5,348.0,166.5,360.5,150.5,366.5,135.0,367.0,119.0,356.5,111.0,341.0,95.0" stroke="black" stroke-width="2" fill="none" />
<polyline points="344.0,90.5,365.5,106.0,371.5,121.5,369.5,137.5,364.0,154.0,350.0,170.0" stroke="black" stroke-width="2" fill="none" />
<polyline points="391.0,221.5,388.5,209.5,408.5,193.5,402.0,175.5,390.0,159.5,384.0,143.5,384.0,127.5,386.0,111.5,388.0,95.5,392.0,79.0" stroke="black" stroke-width="2" fill="none" />
<polyline points="397.0,62.0,415.5,78.0,419.0,91.5" stroke="black" stroke-width="2" fill="none" />
</svg>