<svg xmlns="http://www.w3.org/2000/svg" width="512mm" height="512mm" viewBox="0 0 512 512" version="1.1"><polyline points="283.5,36.5,275.5,52.5,275.5,68.5,285.5,84.5,309.5,97.0,319.5,95.0" stroke="black" stroke-width="2" fill="none" />
<polyline points="312.5,77.5,302.5,69.5,289.0,71.5,287.0,59.5" stroke="black" stroke-width="2" fill="none" />
<polyline points="284.0,51.5,286.0,67.5,305.5,83.5" stroke="black" stroke-width="2" fill="none" />
<polyline points="303.0,70.0,299.5,57.5,284.0,50.0" stroke="black" stroke-width="2" fill="none" />
<polyline points="280.0,47.5,296.0,45.0,312.0,53.5" stroke="black" stroke-width="2" fill="none" />
<polyline points="324.0,58.0,308.0,46.5,292.0,39.0,275.5,45.0" stroke="black" stroke-width="2" fill="none" />
<polyline points="283.5,41.0,279.5,57.0,281.5,73.0,289.5,77.5" stroke="black" stroke-width="2" fill="none" />
<polyline points="277.0,71.5,293.5,85.5,309.5,89.5" stroke="black" stroke-width="2" fill="none" />
<polyline points="294.5,113.5,312.0,129.5,320.0,133.5,322.0,149.0,308.0,165.0" stroke="black" stroke-width="2" fill="none" />
<polyline points="338.5,157.5,354.5,161.5,370.5,169.5,386.5,179.5,402.5,187.5" stroke="black" stroke-width="2" fill="none" />
<polyline points="397.5,192.0,382.0,182.0,366.0,178.0" stroke="black" stroke-width="2" fill="none" />
<polyline points="368.5,174.5,373.0,190.5,397.0,207.0" stroke="black" stroke-width="2" fill="none" />
<polyline points="382.0,239.0,398.0,249.0,414.0,257.0,430.5,265.5" stroke="black" stroke-width="2" fill="none" />
<polyline points="454.0,251.5,454.5,227.5,452.5,243.5,458.0,246.0,454.0,262.0,459.5,278.0,465.5,276.0,474.0,268.5,476.0,272.5" stroke="black" stroke-width="2" fill="none" />
<polyline points="459.0,254.5,475.0,242.5" stroke="black" stroke-width="2" fill="none" />
<polyline points="470.0,240.0,479.5,256.0,487.0,257.5,487.0,273.5,485.0,289.5" stroke="black" stroke-width="2" fill="none" />
<polyline points="489.5,295.0,473.5,297.0,457.5,289.0,431.5,263.0,399.5,247.0,369.5,232.5,353.5,224.5" stroke="black" stroke-width="2" fill="none" />
<polyline points="338.5,238.0,322.0,224.5" stroke="black" stroke-width="2" fill="none" />
<polyline points="320.5,216.5,336.5,226.5,353.0,236.5" stroke="black" stroke-width="2" fill="none" />
<polyline points="330.0,212.0,362.0,228.0,371.5,244.0,367.0,261.5,382.5,269.5,398.5,278.0" stroke="black" stroke-width="2" fill="none" />
<polyline points="383.5,294.0,406.0,280.0,379.5,264.0,353.5,248.0,359.0,240.0,370.5,212.5,354.5,196.5,338.0,180.5,338.0,164.5,341.5,164.5" stroke="black" stroke-width="2" fill="none" />
<polyline points="344.5,161.0,342.5,177.5,360.0,193.5,366.0,191.5,382.0,198.0,398.0,208.0" stroke="black" stroke-width="2" fill="none" />
<polyline points="376.0,209.0,360.0,199.0,344.0,189.5" stroke="black" stroke-width="2" fill="none" />
<polyline points="346.5,180.5,369.0,196.5,379.0,210.5,407.0,226.5" stroke="black" stroke-width="2" fill="none" />
<polyline points="439.0,223.0,455.0,211.0,471.5,217.0,487.5,225.0,504.0,233.0" stroke="black" stroke-width="2" fill="none" />
<polyline points="485.0,241.5,468.5,233.0,452.5,227.0" stroke="black" stroke-width="2" fill="none" />
<polyline points="445.0,219.5,461.0,215.5,477.5,224.0,494.0,234.0" stroke="black" stroke-width="2" fill="none" />
<polyline points="476.5,237.0,494.0,253.5,492.0,269.5,492.0,286.0" stroke="black" stroke-width="2" fill="none" />
<polyline points="460.0,290.5,444.0,274.5,412.0,258.5,382.0,242.5,348.0,228.0,320.0,212.0,312.0,207.5,296.0,211.5" stroke="black" stroke-width="2" fill="none" />
<polyline points="299.5,215.5,316.0,215.5,332.0,218.0,348.0,226.5,364.0,236.5,390.0,240.0,406.0,248.0,421.5,256.5" stroke="black" stroke-width="2" fill="none" />
<polyline points="414.5,220.0,416.5,204.5,400.0,188.5,372.0,172.5,365.5,168.5,351.0,166.5,346.5,167.0,342.5,179.0" stroke="black" stroke-width="2" fill="none" />
<polyline points="339.0,179.5,355.0,189.5,373.0,196.0" stroke="black" stroke-width="2" fill="none" />
<polyline points="371.5,177.5,399.5,193.5,410.0,209.5" stroke="black" stroke-width="2" fill="none" />
<polyline points="405.0,224.0,389.0,213.5,368.5,213.5,352.5,223.5,336.0,213.0,320.0,205.5,304.0,199.5,288.0,207.5,272.0,204.0,256.5,214.0,240.5,224.0" stroke="black" stroke-width="2" fill="none" />
<polyline points="242.5,227.5,259.0,219.5,275.0,207.5,291.0,213.5,301.0,215.5,313.0,221.5,315.0,231.5,340.5,233.5,354.5,245.5,353.0,251.5,369.0,245.5,373.0,259.5,388.5,267.5,404.0,275.0" stroke="black" stroke-width="2" fill="none" />
<polyline points="383.0,276.5,367.0,268.5,351.0,258.0,335.0,248.0,319.0,240.0,302.5,230.0" stroke="black" stroke-width="2" fill="none" />
<polyline points="297.0,232.5,313.0,242.5,329.0,252.0,345.0,262.0,361.0,270.0,376.5,278.0" stroke="black" stroke-width="2" fill="none" />
<polyline points="398.0,280.0,368.0,263.5,346.0,247.5,334.0,231.5,310.0,227.5,294.0,221.5" stroke="black" stroke-width="2" fill="none" />
<polyline points="299.0,223.5,317.0,239.5,345.0,255.5,372.5,271.5" stroke="black" stroke-width="2" fill="none" />
<polyline points="378.0,287.5,360.0,271.5,330.0,263.5,314.5,265.5,299.0,256.0,283.5,248.0,267.5,238.0,252.0,228.0" stroke="black" stroke-width="2" fill="none" />
<polyline points="246.5,232.0,262.5,242.0,278.5,250.0,294.0,260.0,310.0,268.5,326.0,276.5,342.0,284.5,358.0,292.5,374.0,298.5,390.0,290.5" stroke="black" stroke-width="2" fill="none" />
<polyline points="389.0,313.0,375.0,325.0" stroke="black" stroke-width="2" fill="none" />
<polyline points="391.0,344.5,407.0,350.5,431.0,378.5" stroke="black" stroke-width="2" fill="none" />
<polyline points="436.0,375.0,452.0,379.0" stroke="black" stroke-width="2" fill="none" />
<polyline points="472.5,370.0,457.0,364.0,441.0,356.0,425.5,350.5" stroke="black" stroke-width="2" fill="none" />
<polyline points="423.0,349.0,439.0,347.0,455.0,354.5,471.0,362.5,486.5,368.5" stroke="black" stroke-width="2" fill="none" />
<polyline points="492.5,367.0,476.5,359.0,460.5,352.5,444.0,342.5,428.5,338.5,412.5,348.5" stroke="black" stroke-width="2" fill="none" />
<polyline points="393.5,348.5,409.5,356.5,413.5,362.0,417.5,352.0,433.5,363.5,449.5,366.0" stroke="black" stroke-width="2" fill="none" />
<polyline points="488.5,387.5,473.0,397.5,456.5,405.5,440.5,417.5,424.0,419.5,408.0,413.5,391.5,405.5,375.0,395.0" stroke="black" stroke-width="2" fill="none" />
<polyline points="369.5,378.0,389.5,362.0,375.5,378.0,379.0,393.5,409.5,409.5" stroke="black" stroke-width="2" fill="none" />
<polyline points="452.5,392.0,436.0,383.5,420.0,375.5,404.0,367.5,376.0,375.0" stroke="black" stroke-width="2" fill="none" />
<polyline points="355.0,345.5,371.0,351.5,387.5,359.5,407.5,359.5,437.5,375.0" stroke="black" stroke-width="2" fill="none" />
<polyline points="449.0,402.5,477.0,386.5,487.0,370.5,451.0,355.0,431.0,333.0,415.5,325.0,400.0,319.0,384.0,321.0,368.5,329.0,352.5,337.0" stroke="black" stroke-width="2" fill="none" />
<polyline points="347.5,342.0,381.5,357.5,371.5,373.5,369.5,389.5,391.5,405.5" stroke="black" stroke-width="2" fill="none" />
<polyline points="353.0,393.5,337.0,381.5" stroke="black" stroke-width="2" fill="none" />
<polyline points="340.0,380.5,364.0,401.0" stroke="black" stroke-width="2" fill="none" />
<polyline points="357.0,401.5,341.0,398.0,325.0,382.0" stroke="black" stroke-width="2" fill="none" />
<polyline points="326.0,381.0,336.0,397.0" stroke="black" stroke-width="2" fill="none" />
<polyline points="340.0,410.5,324.0,402.5,308.5,394.5" stroke="black" stroke-width="2" fill="none" />
<polyline points="305.0,395.5,321.0,405.5,337.0,413.5,353.0,413.5" stroke="black" stroke-width="2" fill="none" />
<polyline points="338.5,403.5,322.5,389.0,306.5,391.0" stroke="black" stroke-width="2" fill="none" />
<polyline points="308.5,389.5,330.5,405.5" stroke="black" stroke-width="2" fill="none" />
<polyline points="348.0,410.5,350.0,394.5,334.0,378.5" stroke="black" stroke-width="2" fill="none" />
<polyline points="321.0,377.5,299.5,394.0,326.0,409.5" stroke="black" stroke-width="2" fill="none" />
<polyline points="300.0,394.0,316.5,382.0,332.5,380.0,348.5,384.0,374.0,394.0,390.0,397.5,405.5,405.5,422.0,413.5,438.0,411.0,453.5,399.0,469.5,391.0,485.5,379.0" stroke="black" stroke-width="2" fill="none" />
<polyline points="428.5,382.0,400.0,366.5,378.5,350.5,354.5,328.5,338.5,338.0,322.0,347.5,306.0,355.5,290.0,367.5,274.0,373.5,258.0,369.5,242.0,359.0,226.5,355.0" stroke="black" stroke-width="2" fill="none" />
<polyline points="230.5,357.0,260.5,372.5" stroke="black" stroke-width="2" fill="none" />
<polyline points="266.5,380.0,236.5,364.5" stroke="black" stroke-width="2" fill="none" />
<polyline points="253.5,333.5,269.5,325.5,285.5,313.0,270.0,309.0,246.5,324.5,249.0,330.0,264.5,319.5,280.0,307.5,279.5,307.5,257.5,323.5,259.0,339.0,271.5,329.5,288.0,315.5,294.0,305.5,274.5,321.5,250.5,333.5,267.0,341.5,282.5,341.5,298.5,329.5,306.5,322.0,286.5,337.5" stroke="black" stroke-width="2" fill="none" />
<polyline points="275.0,328.5,295.5,312.5" stroke="black" stroke-width="2" fill="none" />
<polyline points="298.0,308.0,304.0,318.5,284.0,334.0,275.5,340.0,291.5,327.5,307.5,317.0" stroke="black" stroke-width="2" fill="none" />
<polyline points="303.0,308.0,287.5,302.0,271.5,308.0,256.0,318.0,240.5,324.0,224.5,343.5,208.5,365.5,192.5,363.5,176.5,371.5,160.5,373.0,144.5,365.0,128.5,355.0,112.5,347.0,106.5,336.5,96.0,320.5,124.0,304.5" stroke="black" stroke-width="2" fill="none" />
<polyline points="123.5,300.0,93.5,316.0,83.5,332.0,110.0,347.5,138.5,363.5" stroke="black" stroke-width="2" fill="none" />
<polyline points="160.5,349.0,176.5,361.5" stroke="black" stroke-width="2" fill="none" />
<polyline points="188.0,358.0,204.0,360.0,220.5,340.0" stroke="black" stroke-width="2" fill="none" />
<polyline points="246.0,307.0,258.0,289.0,231.5,294.5,235.5,311.0,231.0,327.5,222.5,343.5,214.5,360.0,211.0,378.5,185.0,394.5" stroke="black" stroke-width="2" fill="none" />
<polyline points="244.5,415.0,260.5,407.0,276.0,415.5,292.0,425.0,292.0,449.0,290.0,464.5" stroke="black" stroke-width="2" fill="none" />
<polyline points="281.5,466.0,265.5,458.0,249.5,444.5" stroke="black" stroke-width="2" fill="none" />
<polyline points="246.0,447.0,261.5,461.5,277.5,469.5,293.5,467.5" stroke="black" stroke-width="2" fill="none" />
<polyline points="283.0,424.5,267.0,414.5,251.5,414.5" stroke="black" stroke-width="2" fill="none" />
<polyline points="253.0,417.0,253.0,405.5,243.0,421.5,243.5,437.5,248.0,454.0,274.5,470.0" stroke="black" stroke-width="2" fill="none" />
<polyline points="280.5,430.5,264.5,422.5,248.5,425.0" stroke="black" stroke-width="2" fill="none" />
<polyline points="250.0,421.5,247.5,437.5,255.5,453.0,275.5,453.0" stroke="black" stroke-width="2" fill="none" />
<polyline points="276.0,456.0,254.0,440.0,254.0,424.0" stroke="black" stroke-width="2" fill="none" />
<polyline points="263.5,414.0,291.5,430.0,285.5,446.0,273.5,446.0,271.5,451.5,282.0,437.0" stroke="black" stroke-width="2" fill="none" />
<polyline points="297.0,457.0,297.0,441.0,290.5,424.5,262.0,409.0" stroke="black" stroke-width="2" fill="none" />
<polyline points="166.0,357.0,154.0,357.0,160.0,341.0,177.5,334.5,171.5,320.5,174.0,305.0,164.0,299.0" stroke="black" stroke-width="2" fill="none" />
<polyline points="169.5,304.0,185.5,312.0" stroke="black" stroke-width="2" fill="none" />
<polyline points="178.5,321.5,162.5,309.5" stroke="black" stroke-width="2" fill="none" />
<polyline points="172.5,310.0,184.5,326.0,186.5,351.5,182.0,367.0" stroke="black" stroke-width="2" fill="none" />
<polyline points="208.5,302.5,201.0,304.5,201.0,286.5,203.0,270.5,179.0,254.0,175.0,238.0,177.0,222.0,180.5,206.0,183.0,190.0,185.0,174.0,187.0,158.0,183.0,138.0,181.0,122.0,181.0,106.0,195.0,90.0,213.0,82.0,197.0,88.0,181.0,104.0" stroke="black" stroke-width="2" fill="none" />
<polyline points="187.5,100.5,185.5,116.5,185.5,132.5" stroke="black" stroke-width="2" fill="none" />
<polyline points="199.0,123.5,209.0,107.5,202.5,105.5,204.5,119.0,192.0,135.5,194.0,132.0,190.5,116.0,199.0,99.5,207.0,87.5,205.5,89.5,189.0,99.5" stroke="black" stroke-width="2" fill="none" />
<polyline points="191.5,105.0,207.0,95.5,219.0,96.0,218.5,112.0,212.0,128.0,195.5,134.5,211.5,118.5" stroke="black" stroke-width="2" fill="none" />
<polyline points="212.0,130.0,195.5,142.0,173.5,152.0,157.0,164.0,140.5,176.5,124.5,186.5,108.0,198.5,92.0,208.5,75.5,218.5,60.0,228.5,48.0,226.5,32.0,238.5,16.0,248.5,4.0,238.5,6.0,222.5,6.0,206.0,4.5,190.0,4.5,174.0,4.5,158.0,14.0,142.0,34.0,126.0,56.5,110.5,81.0,94.5,103.0,78.0,99.0,88.0,82.5,100.0,66.5,111.5,50.0,124.0,34.0,134.0" stroke="black" stroke-width="2" fill="none" />
<polyline points="5.5,151.0,21.5,134.5,37.5,125.0,53.5,113.0,70.0,103.0,86.0,91.0,102.0,78.5,118.5,70.0,118.5,85.5,116.5,101.5,116.5,117.5,117.0,133.5,117.0,149.5,115.0,165.5,107.0,181.5,89.0,197.5,67.0,213.5,42.5,229.5,18.5,245.5,11.0,243.5,27.0,233.5,43.0,223.5,58.5,211.5,74.0,199.0,90.0,187.0,106.0,171.5" stroke="black" stroke-width="2" fill="none" />
<polyline points="103.5,184.0,87.5,198.0,71.5,209.5,56.0,221.5" stroke="black" stroke-width="2" fill="none" />
<polyline points="46.0,231.5,46.0,247.5,46.0,263.0,46.0,279.0,46.0,295.0,48.0,311.0,48.0,327.0,50.0,337.0,65.5,337.5,81.5,349.5,97.0,359.5,113.5,368.0,130.0,377.5,146.0,387.0,162.5,397.0,178.5,403.0,194.5,397.0,211.0,387.5,227.0,375.5,242.5,365.0,258.5,375.0,274.5,379.5,290.5,373.0,306.0,362.5,322.0,353.0,338.0,343.0,353.5,343.0,369.0,345.0,384.5,351.0,400.5,361.5,416.0,369.5,432.5,377.5,449.0,385.5,459.5,375.5,463.0,386.0,479.5,376.0" stroke="black" stroke-width="2" fill="none" />
<polyline points="458.0,380.5,449.5,366.5,421.5,350.5,432.0,326.0,415.5,320.0,399.5,314.5,383.5,314.5,367.0,322.0,351.0,308.0,335.0,300.0,319.5,294.0,303.5,286.0,288.0,278.0,272.0,270.0,256.0,262.0,239.5,254.0,223.5,244.0,208.0,236.0,192.0,238.0,176.5,250.0,169.0,248.5,171.0,232.5,171.0,216.5,177.5,200.5,179.5,184.0,181.5,168.0,179.0,152.0,159.0,170.0,143.0,186.0,126.5,200.0,110.0,209.5,94.0,219.0,77.5,229.0,61.5,241.0" stroke="black" stroke-width="2" fill="none" />
<polyline points="64.0,248.5,80.0,240.5,96.0,226.0,112.0,216.0,128.0,203.5,144.5,191.0,160.5,175.5" stroke="black" stroke-width="2" fill="none" />
<polyline points="170.0,165.5,152.5,181.5,136.5,197.5,114.5,214.0,88.5,230.0,78.5,246.0,80.5,256.0,64.5,262.0,74.0,267.5,89.5,259.5,105.5,243.0,121.5,233.0,137.5,222.0,153.5,210.5" stroke="black" stroke-width="2" fill="none" />
<polyline points="161.0,206.5,139.0,222.5,115.0,238.5,91.0,246.0,95.0,256.0,79.0,271.5,91.0,274.0,107.0,264.0,123.0,254.5,139.5,242.5,141.5,236.5" stroke="black" stroke-width="2" fill="none" />
<polyline points="145.5,231.5,131.5,245.5,107.5,261.5,81.5,278.0,69.0,294.5,61.0,288.5,85.0,295.0,101.5,285.0,117.5,277.0,134.0,266.5,150.0,256.5" stroke="black" stroke-width="2" fill="none" />
<polyline points="150.5,250.5,124.5,266.5,96.5,282.0,78.5,298.0" stroke="black" stroke-width="2" fill="none" />
<polyline points="80.5,323.5,96.5,315.5,113.0,305.5,129.0,301.5,144.5,309.0,160.0,319.5,176.0,331.5" stroke="black" stroke-width="2" fill="none" />
<polyline points="188.0,295.5,172.0,285.5" stroke="black" stroke-width="2" fill="none" />
<polyline points="158.5,293.5,174.5,296.0,190.0,302.0" stroke="black" stroke-width="2" fill="none" />
<polyline points="204.0,282.5,220.5,291.0" stroke="black" stroke-width="2" fill="none" />
<polyline points="207.5,282.0,207.5,298.0,214.0,298.0,198.0,314.0,216.0,316.5,244.0,306.5,260.0,296.5" stroke="black" stroke-width="2" fill="none" />
<polyline points="271.5,293.0,259.5,295.0,237.5,302.0,229.5,310.5,225.5,326.5,219.5,343.0,210.0,358.5" stroke="black" stroke-width="2" fill="none" />
<polyline points="195.0,317.5,178.5,314.0,162.5,306.5,147.0,296.5" stroke="black" stroke-width="2" fill="none" />
<polyline points="146.0,290.0,162.0,284.5,176.0,272.5,180.0,280.5" stroke="black" stroke-width="2" fill="none" />
<polyline points="169.0,285.5,151.0,289.5" stroke="black" stroke-width="2" fill="none" />
<polyline points="121.5,310.5,105.0,318.5,89.0,326.5,125.0,316.5" stroke="black" stroke-width="2" fill="none" />
<polyline points="92.0,328.0,108.0,324.0,124.5,316.0,144.5,312.0,162.5,328.0,136.5,340.5,142.5,350.0,146.5,336.0,162.0,327.5,184.0,331.5" stroke="black" stroke-width="2" fill="none" />
<polyline points="114.5,341.5,98.5,339.5,82.5,327.5" stroke="black" stroke-width="2" fill="none" />
<polyline points="74.0,337.5,98.0,353.5,124.0,369.0,150.0,385.0" stroke="black" stroke-width="2" fill="none" />
<polyline points="122.0,408.5,106.0,401.0" stroke="black" stroke-width="2" fill="none" />
<polyline points="105.5,396.5,127.5,412.5,113.5,428.5" stroke="black" stroke-width="2" fill="none" />
<polyline points="115.5,420.5,99.5,430.5,83.5,426.5,67.5,419.0" stroke="black" stroke-width="2" fill="none" />
<polyline points="34.0,421.5,50.0,426.0,66.0,414.5,82.0,404.5,97.5,394.0,113.5,398.0" stroke="black" stroke-width="2" fill="none" />
<polyline points="120.0,423.0,103.5,433.0,87.0,433.0,71.5,427.0,56.0,427.5,44.0,421.5,26.0,419.5,5.5,403.5,25.5,387.5,53.5,371.5,49.5,387.5" stroke="black" stroke-width="2" fill="none" />
<polyline points="66.0,378.5,44.0,390.0,48.0,381.5,64.0,373.5" stroke="black" stroke-width="2" fill="none" />
<polyline points="71.0,370.0,97.0,385.5,85.0,401.5,67.0,417.5,81.0,425.5" stroke="black" stroke-width="2" fill="none" />
<polyline points="112.5,422.5,114.5,407.0,88.5,392.5,73.0,405.0,57.5,415.0,41.5,421.0,25.5,416.5,9.5,406.5" stroke="black" stroke-width="2" fill="none" />
<polyline points="6.0,400.0,22.0,390.0,38.0,382.0,54.5,372.0,70.5,368.5,86.5,378.0,102.5,388.5,71.0,404.5,50.5,421.0" stroke="black" stroke-width="2" fill="none" />
<polyline points="54.5,333.5,70.5,334.0,86.0,346.0,101.5,354.0,117.5,364.0,133.0,374.0,149.0,384.0,165.0,394.0,181.0,398.0,197.0,388.0,213.0,378.0,225.0,358.0,229.5,362.5,223.5,378.5,198.0,395.0" stroke="black" stroke-width="2" fill="none" />
<polyline points="272.5,299.0,256.5,309.0,253.0,310.5,275.0,294.5" stroke="black" stroke-width="2" fill="none" />
<polyline points="271.5,294.5,257.0,290.0,241.0,300.0,219.5,308.0,203.5,315.5,228.0,297.5,224.0,281.0,212.0,265.0" stroke="black" stroke-width="2" fill="none" />
<polyline points="205.5,242.0,233.0,258.0,263.0,273.5,297.0,289.5,331.0,305.5,358.5,321.5,334.5,337.5,308.5,353.5,282.5,369.5" stroke="black" stroke-width="2" fill="none" />
<polyline points="402.0,321.0,436.0,341.0,468.5,357.0,498.5,372.5,487.0,388.5,461.0,404.0" stroke="black" stroke-width="2" fill="none" />
<polyline points="475.0,381.0,463.0,379.0,441.0,373.0,430.5,369.5,414.5,353.0,438.5,333.0,406.5,317.0" stroke="black" stroke-width="2" fill="none" />
<polyline points="475.5,262.0,465.5,246.0" stroke="black" stroke-width="2" fill="none" />
<polyline points="465.5,231.0,461.5,247.0,457.5,263.0,465.5,279.5" stroke="black" stroke-width="2" fill="none" />
<polyline points="505.0,281.0,505.0,265.0,505.0,249.0,495.0,233.5,463.0,218.0" stroke="black" stroke-width="2" fill="none" />
<polyline points="461.0,212.5,495.0,228.0,511.0,244.0,509.0,259.5,510.5,275.5,506.0,291.5,494.0,297.5" stroke="black" stroke-width="2" fill="none" />
<polyline points="458.0,296.0,442.5,280.0,442.5,263.5,443.0,247.5,445.0,232.0,451.0,216.0" stroke="black" stroke-width="2" fill="none" />
<polyline points="453.0,209.5,441.0,225.5,438.5,242.0,436.5,258.0,452.5,290.0,468.5,300.0,484.0,304.0,500.0,300.5" stroke="black" stroke-width="2" fill="none" />
<polyline points="429.5,152.5,413.5,146.5,397.5,138.5" stroke="black" stroke-width="2" fill="none" />
<polyline points="392.0,137.0,428.0,153.0" stroke="black" stroke-width="2" fill="none" />
<polyline points="460.0,156.0,444.0,135.5,427.5,131.5,411.5,125.0,395.5,119.0" stroke="black" stroke-width="2" fill="none" />
<polyline points="391.5,122.5,407.0,134.5,417.5,138.0,435.5,127.5" stroke="black" stroke-width="2" fill="none" />
<polyline points="439.5,122.5,424.0,114.5,408.0,107.0,392.0,99.0" stroke="black" stroke-width="2" fill="none" />
<polyline points="392.0,98.0,395.5,114.0,402.0,124.5,424.0,134.5,430.5,140.0,436.5,147.5,459.0,142.0,467.0,140.0" stroke="black" stroke-width="2" fill="none" />
<polyline points="470.0,177.5,454.5,180.0,438.5,172.0,422.5,162.0,406.5,154.0,390.0,146.0" stroke="black" stroke-width="2" fill="none" />
<polyline points="384.0,140.0,400.0,146.0,416.0,154.0,432.0,162.0,448.0,169.5,464.0,175.5" stroke="black" stroke-width="2" fill="none" />
<polyline points="443.5,170.0,413.5,154.0,387.0,138.0,387.0,134.0" stroke="black" stroke-width="2" fill="none" />
<polyline points="386.5,120.0,391.0,106.0,416.5,100.0,451.0,116.0,463.0,132.0,473.5,148.0,473.5,164.0,467.5,180.0" stroke="black" stroke-width="2" fill="none" />
<polyline points="448.5,120.5,432.5,113.0,416.5,105.0,401.0,97.0,385.0,95.5" stroke="black" stroke-width="2" fill="none" />
<polyline points="383.5,89.0,399.0,87.0,415.0,97.0,431.0,105.5,446.5,113.5,463.0,129.5" stroke="black" stroke-width="2" fill="none" />
<polyline points="455.0,157.0,451.0,141.5,447.0,137.5,431.0,122.0,409.0,116.5,395.0,100.5" stroke="black" stroke-width="2" fill="none" />
<polyline points="393.0,93.0,422.5,109.0,453.0,125.0,464.5,141.0,468.5,156.5,466.0,172.5" stroke="black" stroke-width="2" fill="none" />
<polyline points="453.0,160.5,449.0,152.5,438.5,150.5,416.5,134.5,398.5,132.5,386.5,120.5,386.5,104.5,394.5,89.0" stroke="black" stroke-width="2" fill="none" />
<polyline points="385.5,87.5,381.5,103.5,381.5,119.5,381.5,135.0,395.5,151.0,427.5,166.5,456.0,182.5" stroke="black" stroke-width="2" fill="none" />
<polyline points="310.5,139.5,294.0,135.5" stroke="black" stroke-width="2" fill="none" />
<polyline points="288.5,135.5,304.5,145.5" stroke="black" stroke-width="2" fill="none" />
<polyline points="318.0,137.5,302.0,120.0,286.0,120.0,270.0,120.0,254.5,124.5" stroke="black" stroke-width="2" fill="none" />
<polyline points="256.5,122.5,246.5,138.5,238.5,142.5,254.5,118.5,270.5,110.5,286.5,110.5,303.0,114.5,318.5,126.0" stroke="black" stroke-width="2" fill="none" />
<polyline points="294.0,155.0,287.5,138.5,279.5,134.5,263.0,136.0,247.0,142.0" stroke="black" stroke-width="2" fill="none" />
<polyline points="244.5,140.5,260.5,126.5,276.5,124.5,292.0,126.5,308.0,130.5,302.5,146.5" stroke="black" stroke-width="2" fill="none" />
<polyline points="298.0,167.5,282.0,172.0,266.0,170.5,250.0,164.5,240.5,152.0,252.5,144.0,250.5,140.5,263.0,124.5" stroke="black" stroke-width="2" fill="none" />
<polyline points="270.0,110.0,246.0,126.0,238.0,142.0,242.0,158.5,254.0,158.5,262.0,164.5,277.5,166.5,293.0,164.5,313.0,150.5" stroke="black" stroke-width="2" fill="none" />
<polyline points="275.0,202.5,249.0,218.5,248.5,234.5,274.5,250.5,304.5,266.5,336.5,282.5,366.5,298.0" stroke="black" stroke-width="2" fill="none" />
<polyline points="296.5,370.0,322.5,354.0,352.5,338.5,366.5,318.5,336.0,302.5,301.5,286.5,267.5,270.5,238.0,254.0,210.0,238.5" stroke="black" stroke-width="2" fill="none" />
<polyline points="197.5,238.0,191.5,258.5,197.5,263.0,211.5,265.5" stroke="black" stroke-width="2" fill="none" />
<polyline points="193.5,236.0,177.5,254.0,193.5,244.5,209.5,242.5,226.0,253.0,242.0,261.0,258.0,271.5,274.0,279.5,290.0,287.0,306.0,293.0,322.0,300.5,338.0,309.0,353.5,317.0" stroke="black" stroke-width="2" fill="none" />
<polyline points="347.0,282.0,337.0,266.0,339.0,258.0,311.0,242.0,294.5,226.0,281.0,209.5" stroke="black" stroke-width="2" fill="none" />
<polyline points="275.0,208.0,251.0,223.5,269.0,239.5,297.0,256.0,333.0,270.5,341.0,278.5,357.0,286.5,372.5,292.5" stroke="black" stroke-width="2" fill="none" />
<polyline points="165.5,214.0,157.5,230.0,151.5,240.0,127.0,256.0,102.5,271.5,82.0,292.0,97.5,282.0,113.5,272.5,129.0,263.0,144.5,255.0" stroke="black" stroke-width="2" fill="none" />
<polyline points="154.0,251.5,130.0,267.5,102.0,283.5" stroke="black" stroke-width="2" fill="none" />
<polyline points="91.5,263.5,75.5,273.5,59.5,271.5" stroke="black" stroke-width="2" fill="none" />
<polyline points="64.5,251.5,80.5,245.5,92.5,233.5" stroke="black" stroke-width="2" fill="none" />
<polyline points="70.0,194.5,48.0,211.0,27.5,225.0,43.5,212.5,59.5,202.5" stroke="black" stroke-width="2" fill="none" />
<polyline points="27.5,157.5,18.0,167.5,40.0,159.5,66.5,143.0,91.0,127.0,91.0,127.5,75.0,140.0,59.0,150.0,43.0,159.5,26.5,175.5,22.5,193.5,24.0,191.0,10.0,187.5,10.0,171.5,10.0,155.5,8.0,140.0,28.5,124.0,50.5,108.0,74.5,92.0,94.5,76.0,114.0,66.0,97.5,74.0,81.5,86.0,65.5,98.0,49.5,108.0,33.5,119.5,17.0,132.0,1.0,146.0" stroke="black" stroke-width="2" fill="none" />
<polyline points="87.5,147.5,61.5,163.5,38.0,179.5,44.0,176.0,59.5,166.0,75.5,156.0,92.0,146.0" stroke="black" stroke-width="2" fill="none" />
<polyline points="93.5,138.5,69.5,154.5,43.5,170.5,29.5,180.5,45.5,170.0,62.0,160.0,77.5,150.0,93.5,138.0" stroke="black" stroke-width="2" fill="none" />
<polyline points="100.5,126.5,78.5,142.5,52.5,158.5" stroke="black" stroke-width="2" fill="none" />
<polyline points="82.5,117.5,66.5,128.0,50.5,138.0,35.0,148.5,47.0,140.5,73.5,124.5,95.5,108.5" stroke="black" stroke-width="2" fill="none" />
<polyline points="90.5,106.5,65.0,118.5,81.0,108.5,97.0,94.0" stroke="black" stroke-width="2" fill="none" />
<polyline points="102.0,83.5,82.0,99.5,60.0,116.0,36.0,132.0,38.0,139.5,54.5,129.5,70.0,119.5,86.0,109.5" stroke="black" stroke-width="2" fill="none" />
<polyline points="84.5,138.0,69.0,149.5,53.0,157.5,36.5,169.5,18.5,186.0,16.0,182.0,26.0,164.0,16.0,158.0,28.0,148.0,49.5,131.5,65.5,117.5,87.5,102.0,106.0,86.5" stroke="black" stroke-width="2" fill="none" />
<polyline points="114.0,73.0,112.0,89.5,112.0,105.5,110.0,121.5,110.0,137.5,110.0,153.5,108.0,169.5,92.5,185.5,72.5,201.5,51.0,217.5,27.0,234.0" stroke="black" stroke-width="2" fill="none" />
<polyline points="150.5,219.5,134.5,231.0,118.0,241.5,102.0,254.0,120.0,240.0,144.0,224.5,164.0,208.5" stroke="black" stroke-width="2" fill="none" />
<polyline points="152.5,224.0,160.0,232.5,144.0,244.5,128.0,256.5,112.0,266.0,96.0,276.0,79.5,286.0,65.5,296.0,61.5,300.0,61.5,283.5,61.5,273.5,61.5,258.0,61.5,242.0,83.5,226.0,109.5,209.5,131.5,193.5,149.5,177.0,167.5,161.0" stroke="black" stroke-width="2" fill="none" />
<polyline points="158.5,159.5,136.5,175.5,113.5,191.5,92.0,207.5,66.0,223.5,50.0,240.0,50.0,256.0,50.5,271.5,52.5,287.5,52.0,303.0,52.0,319.0,54.0,335.0,86.0,351.5,111.5,367.5,137.5,384.0,163.0,400.0" stroke="black" stroke-width="2" fill="none" />
<polyline points="184.5,150.5,168.5,148.0,152.5,162.0,137.0,172.0,121.0,184.0,104.5,194.0,86.5,205.5,106.0,191.5,125.5,177.5,149.0,161.5,169.0,146.0" stroke="black" stroke-width="2" fill="none" />
<polyline points="201.0,130.0,215.0,114.5,215.0,98.5" stroke="black" stroke-width="2" fill="none" />
<polyline points="289.0,44.0,317.5,60.0,317.0,67.5,317.5,83.5" stroke="black" stroke-width="2" fill="none" />
<polyline points="325.5,85.5,325.5,69.5,319.0,53.5,289.0,37.5" stroke="black" stroke-width="2" fill="none" />
</svg>