<svg xmlns="http://www.w3.org/2000/svg" width="512mm" height="512mm" viewBox="0 0 512 512" version="1.1"><polyline points="57.5,42.5,45.5,58.5,43.5,74.5,45.5,90.5,47.5,107.0,49.5,123.0,49.5,139.0,51.5,155.0,53.0,171.0,55.0,186.5,56.5,202.5,59.0,218.5,61.0,234.5,63.0,250.5,65.5,266.0,67.5,281.5,69.5,297.0,71.5,313.0,73.5,329.0,75.5,344.5,86.0,360.5" stroke="black" stroke-width="2" fill="none" />
<polyline points="84.0,358.5,100.0,370.5,116.0,370.0,132.0,364.0,148.0,363.5,166.5,367.0,182.5,359.5,198.5,358.0,214.5,356.5,231.0,354.5,247.0,353.0,263.0,351.0,279.0,351.0,294.5,350.5,310.0,348.0" stroke="black" stroke-width="2" fill="none" />
<polyline points="330.5,321.5,346.5,325.5,362.5,326.0,378.5,340.0,394.5,360.0" stroke="black" stroke-width="2" fill="none" />
<polyline points="399.5,346.0,383.5,330.0,367.5,322.0,351.5,310.0" stroke="black" stroke-width="2" fill="none" />
<polyline points="350.0,307.0,366.5,314.5,383.0,325.0,399.0,337.0" stroke="black" stroke-width="2" fill="none" />
<polyline points="416.5,351.5,396.5,354.0,382.0,338.0,375.5,348.0,353.5,338.5,353.5,322.5,347.5,318.5,349.5,320.5" stroke="black" stroke-width="2" fill="none" />
<polyline points="359.0,310.5,386.5,326.5,406.5,342.0,414.5,364.0,410.0,380.5,408.0,396.5" stroke="black" stroke-width="2" fill="none" />
<polyline points="418.0,398.0,402.0,420.0" stroke="black" stroke-width="2" fill="none" />
<polyline points="371.0,483.0,387.0,473.5,403.0,447.5,419.5,427.5,436.0,412.0,452.5,394.0,468.5,361.5,484.5,329.5,501.0,307.5" stroke="black" stroke-width="2" fill="none" />
<polyline points="488.5,286.0,472.5,300.5,456.5,318.5,440.0,338.5,424.0,346.5,407.5,334.5,391.5,322.0,375.5,312.0,359.5,304.0,343.0,296.0,337.0,306.0,321.5,322.0,298.0,308.0,280.0,302.5,263.5,299.0,235.5,301.0,226.0,285.0,236.0,268.5,244.0,259.0,254.0,243.0,238.0,243.5,222.0,243.5,206.0,245.0,190.0,245.0,173.5,246.5,157.5,246.5,141.5,248.0,125.5,248.0" stroke="black" stroke-width="2" fill="none" />
<polyline points="128.0,254.5,144.0,256.0,159.5,256.5,175.5,256.5,192.0,254.5,192.5,250.5,208.5,248.5,224.5,248.0,240.5,248.0" stroke="black" stroke-width="2" fill="none" />
<polyline points="242.0,260.5,258.0,254.5,248.0,262.5,226.0,262.0,215.5,277.5,219.5,283.5,219.5,297.0,245.5,313.0,254.0,313.0,270.0,319.0,286.0,323.0,302.0,327.0,317.5,316.5,333.5,300.5,332.0,279.0,348.0,267.0,320.0,275.0,325.5,291.5,326.0,307.5,314.0,323.5,338.0,337.5,354.0,351.5,372.0,372.0,388.0,382.0,396.0,386.5" stroke="black" stroke-width="2" fill="none" />
<polyline points="414.5,390.0,417.0,374.5,433.0,354.5,411.0,338.5,391.5,322.5,363.5,306.0,341.5,288.0,347.0,276.0,353.0,260.0,337.0,256.0,320.5,256.0,304.0,255.5,288.0,257.0,271.5,259.0,273.5,231.0,269.5,215.0,267.5,199.5,265.5,183.5,263.5,167.5,264.0,151.5,266.0,136.0,260.5,120.0,259.0,104.5,257.0,92.5,241.5,90.5,225.5,88.5,209.0,88.5,193.0,88.0,177.0,88.0,161.0,87.5,145.0,88.0,129.0,86.0,113.0,86.5,97.0,86.5,81.0,88.5" stroke="black" stroke-width="2" fill="none" />
<polyline points="101.0,100.0,117.0,95.5,133.0,97.5,149.0,98.0,165.0,98.5,181.0,98.5,197.0,100.5,212.5,100.5,228.5,100.5,236.5,104.5,235.0,120.5" stroke="black" stroke-width="2" fill="none" />
<polyline points="240.0,122.0,234.0,120.0,218.5,126.5,203.0,125.0,187.0,125.0,171.0,123.0" stroke="black" stroke-width="2" fill="none" />
<polyline points="153.5,104.0,137.5,108.0" stroke="black" stroke-width="2" fill="none" />
<polyline points="131.5,110.0,147.0,114.0" stroke="black" stroke-width="2" fill="none" />
<polyline points="144.5,122.0,129.0,123.5,113.0,121.5" stroke="black" stroke-width="2" fill="none" />
<polyline points="111.0,127.5,126.5,128.0,143.0,128.0,159.0,128.0,175.0,116.0,161.0,116.0,169.0,128.5,184.5,128.5,200.5,130.5,216.5,131.0,232.5,131.0" stroke="black" stroke-width="2" fill="none" />
<polyline points="222.0,174.0,205.5,173.5,189.5,173.5,173.5,173.5,157.5,173.0,141.5,173.0,125.5,175.0" stroke="black" stroke-width="2" fill="none" />
<polyline points="121.0,176.0,137.0,169.5,153.0,169.0,169.0,169.0,185.0,169.0,200.5,169.0,217.0,169.0,233.0,167.0" stroke="black" stroke-width="2" fill="none" />
<polyline points="241.0,227.0,225.0,229.0,209.0,226.5,193.0,228.0,177.5,227.5,161.5,227.0,145.5,226.5,129.5,228.0" stroke="black" stroke-width="2" fill="none" />
<polyline points="123.5,227.5,129.5,219.5,145.5,221.5,161.5,222.0,177.0,222.5,193.0,222.5,209.0,223.0,225.5,221.0,241.5,219.0" stroke="black" stroke-width="2" fill="none" />
<polyline points="271.5,246.5,255.5,251.0,240.0,255.0,224.5,265.0,208.5,260.5,192.5,262.0,176.0,264.0,160.0,263.5,144.0,265.5,128.5,265.0" stroke="black" stroke-width="2" fill="none" />
<polyline points="130.0,270.0,145.5,270.0,161.0,271.5,177.0,273.5" stroke="black" stroke-width="2" fill="none" />
<polyline points="160.0,266.5,176.0,268.5,192.5,266.5,208.5,265.0,220.5,269.0,232.5,265.0,242.5,265.0,258.5,257.5,274.5,253.5,284.5,263.5,300.5,271.5,308.5,268.0,324.0,266.0" stroke="black" stroke-width="2" fill="none" />
<polyline points="304.5,279.0,288.0,271.0,272.0,267.5,255.5,266.0,239.0,271.5" stroke="black" stroke-width="2" fill="none" />
<polyline points="242.0,283.0,258.0,287.0,274.5,287.0,286.0,267.0,286.0,283.0,297.5,290.5,309.5,318.5" stroke="black" stroke-width="2" fill="none" />
<polyline points="283.5,307.5,267.5,305.5,251.5,301.0,235.5,299.5,207.5,294.0,192.0,294.0,176.0,296.5,160.0,298.0" stroke="black" stroke-width="2" fill="none" />
<polyline points="159.0,296.5,175.0,290.5,190.5,289.0,206.5,289.0,222.0,297.5,237.5,309.5,253.5,309.5,270.0,313.5,286.0,317.5,302.0,321.5" stroke="black" stroke-width="2" fill="none" />
<polyline points="344.5,303.5,326.0,319.5,332.0,335.5,338.0,343.0,360.0,359.0,386.5,374.5" stroke="black" stroke-width="2" fill="none" />
<polyline points="385.5,373.0,369.0,363.0,353.0,359.0,337.5,350.5,321.5,351.0,306.0,353.0,290.0,353.0,274.5,355.5,258.5,356.0,242.5,358.0,226.0,360.0,210.0,362.0,194.0,364.0,178.5,366.0,160.5,362.5,144.5,368.5,126.5,366.5,110.5,366.5,95.0,360.5,79.0,348.5" stroke="black" stroke-width="2" fill="none" />
<polyline points="114.0,328.0,130.0,330.0,145.5,328.0,161.0,325.5,176.5,325.5,192.5,324.0,208.0,321.5,224.0,321.5,240.0,319.0,256.0,317.5" stroke="black" stroke-width="2" fill="none" />
<polyline points="249.5,321.5,234.0,325.0,218.0,327.0,202.0,327.0,186.0,329.0,170.0,331.0,154.0,331.0,138.0,333.5,122.0,335.5" stroke="black" stroke-width="2" fill="none" />
<polyline points="186.5,387.0,202.5,376.5,211.0,368.5,179.5,384.5,159.5,400.5,145.5,416.5,142.0,432.5,154.0,448.5,184.0,464.5" stroke="black" stroke-width="2" fill="none" />
<polyline points="178.0,441.0,194.0,451.0,210.5,461.0,226.5,466.5,243.0,444.5,259.0,428.0,275.0,434.0,291.0,441.5,306.5,451.5,322.5,459.5,338.5,467.5,354.5,473.5,371.0,479.5,387.0,465.5" stroke="black" stroke-width="2" fill="none" />
<polyline points="468.0,389.0,484.0,384.5" stroke="black" stroke-width="2" fill="none" />
<polyline points="490.0,352.0,506.0,340.5,494.0,342.5,478.0,358.5,470.0,382.5,476.0,380.0,492.5,377.5,500.5,359.5,504.5,355.5,488.5,365.5,489.0,361.5,505.0,349.5" stroke="black" stroke-width="2" fill="none" />
<polyline points="507.5,338.5,503.5,350.5,483.5,360.5,475.5,362.5,491.5,344.0,508.0,334.0" stroke="black" stroke-width="2" fill="none" />
<polyline points="443.5,347.0,459.5,326.5,475.5,308.5,491.5,294.5,509.5,292.5,493.0,308.5,483.0,324.5,472.5,341.0,466.5,357.5,460.0,373.5,449.5,389.5,437.5,405.5,421.5,421.0,436.0,407.0,452.5,384.5,469.0,348.0,484.5,317.5,500.0,297.5,505.5,299.5,493.5,315.5,481.0,331.0,473.5,347.5,468.0,363.5,462.0,379.5,450.5,395.5,436.5,411.5,421.0,427.5,406.5,443.5,398.5,459.5,384.5,476.0,370.5,491.5,366.5,508.0" stroke="black" stroke-width="2" fill="none" />
<polyline points="283.5,511.0,268.0,499.0,252.0,486.5" stroke="black" stroke-width="2" fill="none" />
<polyline points="222.5,453.5,206.5,447.0,194.5,421.0,178.5,415.0" stroke="black" stroke-width="2" fill="none" />
<polyline points="177.0,418.5,177.0,424.5,193.0,430.5,209.5,440.5,225.5,448.5" stroke="black" stroke-width="2" fill="none" />
<polyline points="230.5,423.5,214.5,410.0,198.5,398.5" stroke="black" stroke-width="2" fill="none" />
<polyline points="202.0,394.5,218.0,404.0,234.0,413.5,254.0,431.5,239.5,447.5,229.5,463.5,245.5,447.0,262.0,433.0,278.5,443.5,294.5,451.5,310.5,459.5,326.5,468.0,342.0,476.0" stroke="black" stroke-width="2" fill="none" />
<polyline points="276.0,497.5,260.5,481.5,244.5,483.5,238.5,479.5,222.5,475.5,206.0,471.5,189.5,466.0,173.5,458.0,157.5,450.0" stroke="black" stroke-width="2" fill="none" />
<polyline points="153.0,445.5,169.0,449.5,185.0,458.0,201.5,466.5" stroke="black" stroke-width="2" fill="none" />
<polyline points="201.5,419.5,185.5,406.0" stroke="black" stroke-width="2" fill="none" />
<polyline points="184.0,401.5,196.0,397.5,216.0,413.0,230.0,415.0" stroke="black" stroke-width="2" fill="none" />
<polyline points="226.0,449.5,196.0,446.0,176.5,430.0,175.0,414.5,189.0,398.5,169.5,418.5" stroke="black" stroke-width="2" fill="none" />
<polyline points="166.5,432.0,182.5,436.0,198.5,445.5,220.0,451.0" stroke="black" stroke-width="2" fill="none" />
<polyline points="203.5,462.5,187.5,452.0,171.5,441.0,155.5,433.0" stroke="black" stroke-width="2" fill="none" />
<polyline points="148.0,431.0,164.0,413.0,180.0,397.5,195.5,387.5,211.5,380.0,227.0,374.0,203.0,388.0,213.5,404.5,233.5,414.5,221.5,422.5,235.5,439.0,229.5,432.5" stroke="black" stroke-width="2" fill="none" />
<polyline points="264.5,429.5,246.5,445.5,239.5,461.5,244.0,477.5,272.0,493.5,290.0,510.0" stroke="black" stroke-width="2" fill="none" />
<polyline points="324.0,467.5,292.5,451.5,266.5,435.0" stroke="black" stroke-width="2" fill="none" />
<polyline points="271.5,433.0,299.5,449.0,331.5,465.5" stroke="black" stroke-width="2" fill="none" />
<polyline points="278.5,507.5,260.0,491.5,222.0,466.0,191.5,450.0,165.5,434.0,150.0,420.0,164.0,403.5,183.5,387.5,213.5,371.5" stroke="black" stroke-width="2" fill="none" />
<polyline points="201.0,390.0,217.0,383.5,233.0,379.5,249.0,379.5" stroke="black" stroke-width="2" fill="none" />
<polyline points="202.5,462.0,176.0,446.5,164.0,428.5,158.0,420.5,172.0,404.0,182.0,390.0,165.5,402.0,149.5,418.0" stroke="black" stroke-width="2" fill="none" />
<polyline points="142.5,424.5,158.5,402.5,174.5,388.0,190.5,378.0,206.5,370.0,222.5,368.0,238.0,368.0,254.0,371.5" stroke="black" stroke-width="2" fill="none" />
<polyline points="345.0,354.0,365.0,369.5,391.5,385.5,398.0,401.5,392.5,417.5,390.5,434.0,395.0,450.0,387.0,466.0,364.5,478.0,364.5,494.0,360.5,510.5" stroke="black" stroke-width="2" fill="none" />
<polyline points="388.0,353.0,374.0,337.0" stroke="black" stroke-width="2" fill="none" />
<polyline points="370.5,332.5,364.5,348.5" stroke="black" stroke-width="2" fill="none" />
<polyline points="348.5,304.5,360.5,320.5,380.5,336.5,394.5,352.5,404.5,348.5,408.5,364.5,405.0,380.5" stroke="black" stroke-width="2" fill="none" />
<polyline points="294.0,294.5,278.0,292.5,256.0,296.0,240.0,280.0,260.0,264.0" stroke="black" stroke-width="2" fill="none" />
<polyline points="232.0,199.5,216.0,199.0,200.0,199.0,184.0,199.0,168.5,199.5,153.0,199.5,137.0,199.5,121.0,199.5" stroke="black" stroke-width="2" fill="none" />
<polyline points="119.0,196.0,135.0,196.0,151.0,193.5,166.5,193.5,182.5,194.0,198.0,194.0,214.5,194.0,230.5,194.0" stroke="black" stroke-width="2" fill="none" />
<polyline points="213.5,150.0,198.0,150.0,182.5,149.5,167.0,150.0,151.5,150.0,135.5,150.0,119.5,150.0" stroke="black" stroke-width="2" fill="none" />
<polyline points="117.0,144.5,133.0,146.0,149.0,144.0,165.0,143.5,180.5,145.5,196.0,145.5,212.0,145.5,227.5,143.5" stroke="black" stroke-width="2" fill="none" />
<polyline points="269.0,95.0,270.5,111.0,273.0,127.0,280.5,155.0,282.5,170.5,282.0,186.5,284.5,202.5,287.0,218.0,289.5,234.0" stroke="black" stroke-width="2" fill="none" />
<polyline points="282.0,233.5,282.0,217.5,279.5,201.5,277.5,185.5,275.5,169.5,273.5,153.5,277.5,137.5,276.0,121.5,274.5,105.5,272.5,89.5,270.5,73.5,270.5,67.5,254.0,53.5,237.5,52.0,221.5,52.0,205.5,52.0,189.5,52.0,174.0,49.5,158.0,49.5,142.0,49.5,126.0,47.5,110.0,47.5,94.0,45.5,78.0,43.5,61.5,41.5,45.5,53.5" stroke="black" stroke-width="2" fill="none" />
<polyline points="48.5,58.5,65.0,48.5,81.0,66.5,93.0,78.5,109.5,80.0,125.5,81.5,141.5,81.0,157.5,81.0,173.5,81.0,189.5,80.5,206.0,80.5,222.0,80.5,238.5,82.5,254.5,83.0" stroke="black" stroke-width="2" fill="none" />
<polyline points="252.0,60.5,236.0,58.0,220.0,58.0,204.0,56.0,187.5,56.0,172.0,56.0,155.5,56.0,139.5,54.5,123.5,54.5,107.5,55.0,92.0,53.0,76.0,48.5" stroke="black" stroke-width="2" fill="none" />
<polyline points="81.0,45.5,83.0,61.5,91.5,77.5,81.5,97.5,84.0,113.0,86.0,129.5,90.0,145.5,90.0,162.0,92.0,178.0,94.0,194.5,96.0,210.5,98.0,227.0,99.5,243.0,99.5,258.5,103.5,274.5,105.5,290.0,108.0,306.0,109.5,322.0,118.0,338.0,114.0,348.0,130.0,348.0,146.0,346.5,162.0,346.0,177.5,344.0,193.5,341.5,209.5,339.0,225.5,337.5,241.5,335.5,257.5,333.5,273.5,333.5,290.0,333.5,305.5,335.5,317.5,334.0,333.5,342.0" stroke="black" stroke-width="2" fill="none" />
<polyline points="337.0,290.5,331.0,284.5,339.5,268.5,343.5,252.5" stroke="black" stroke-width="2" fill="none" />
<polyline points="417.5,227.0,433.5,243.0,450.0,237.0,474.0,241.5,490.5,258.0,507.0,268.0" stroke="black" stroke-width="2" fill="none" />
<polyline points="509.5,272.0,491.5,252.0,475.5,236.0,459.5,242.5,447.5,244.5,425.5,238.5,413.5,222.0,403.5,206.0,403.5,188.5,398.0,172.0,386.0,156.0,386.5,139.5,384.5,123.5,378.5,107.0,386.0,91.5,404.0,76.0,420.0,60.0,438.0,62.5,422.0,74.5" stroke="black" stroke-width="2" fill="none" />
<polyline points="409.5,83.5,433.5,71.5,415.5,87.5,407.5,103.5,402.0,111.5,400.0,127.5,420.0,143.5,437.5,159.0,437.0,173.0,453.5,155.0,470.0,151.0,489.5,169.5,505.5,193.5" stroke="black" stroke-width="2" fill="none" />
<polyline points="504.0,193.5,496.0,177.5,478.5,170.0,468.5,196.0,478.5,188.5,486.5,186.0,484.5,176.0,478.5,172.0,476.0,168.0,460.0,166.0" stroke="black" stroke-width="2" fill="none" />
<polyline points="454.5,135.5,438.5,117.5" stroke="black" stroke-width="2" fill="none" />
<polyline points="418.0,111.5,443.5,87.5,449.5,104.0,445.5,120.0,439.5,126.0,450.0,142.5,474.0,146.5,456.0,162.5,448.0,167.0,450.5,173.0,466.5,159.0,482.5,156.5,498.5,172.5" stroke="black" stroke-width="2" fill="none" />
<polyline points="502.0,180.0,487.5,164.0,467.5,148.0,451.5,142.0,435.5,138.0,419.5,127.5,403.0,128.0,387.0,128.0" stroke="black" stroke-width="2" fill="none" />
<polyline points="410.5,133.5,426.5,146.0" stroke="black" stroke-width="2" fill="none" />
<polyline points="433.5,143.5,417.5,133.5" stroke="black" stroke-width="2" fill="none" />
<polyline points="392.0,160.0,408.0,170.0" stroke="black" stroke-width="2" fill="none" />
<polyline points="403.5,160.5,387.5,157.0" stroke="black" stroke-width="2" fill="none" />
<polyline points="403.5,194.5,419.5,220.5,433.5,237.0" stroke="black" stroke-width="2" fill="none" />
<polyline points="436.0,240.5,420.0,224.0,404.0,201.5" stroke="black" stroke-width="2" fill="none" />
<polyline points="471.0,242.5,487.0,258.5,495.0,274.0,483.0,289.5,465.0,305.5,453.0,321.0,439.5,337.0,422.0,353.5,426.0,369.5,420.0,393.5,408.0,409.5,390.0,423.5" stroke="black" stroke-width="2" fill="none" />
<polyline points="192.0,461.5,162.0,445.5,146.0,437.5" stroke="black" stroke-width="2" fill="none" />
<polyline points="51.0,283.5,35.0,265.0,19.0,252.5,2.5,244.5" stroke="black" stroke-width="2" fill="none" />
<polyline points="3.5,242.5,23.5,258.5,41.5,274.5,51.5,290.5,57.5,308.5,55.5,324.0,50.0,340.0,38.0,356.0,12.5,372.0,8.5,374.0,25.0,365.5,41.0,351.5,57.0,321.5" stroke="black" stroke-width="2" fill="none" />
<polyline points="50.5,274.0,34.5,257.5,18.5,247.5,2.0,241.5" stroke="black" stroke-width="2" fill="none" />
<polyline points="10.5,246.5,35.0,262.5,49.0,278.5,59.0,294.0,61.0,312.0,59.0,327.5,51.0,343.5,39.0,359.0,15.5,375.0,15.5,375.0,31.5,367.5,47.5,349.5" stroke="black" stroke-width="2" fill="none" />
<polyline points="104.5,95.0,102.5,110.5,108.5,126.5,108.5,124.5,124.5,118.5,140.5,118.5,157.0,118.5,173.0,106.5,183.5,116.0,197.0,104.0,213.0,104.5,229.0,106.0" stroke="black" stroke-width="2" fill="none" />
<polyline points="250.0,53.0,264.0,69.5,264.0,91.5,264.0,107.5,266.0,123.5,268.0,143.5,270.0,159.5,272.5,175.5,272.5,191.5,275.0,207.5,279.0,224.0,281.0,239.5,303.0,243.5,319.0,242.0,335.0,242.5,351.0,246.5" stroke="black" stroke-width="2" fill="none" />
<polyline points="476.0,236.0,491.5,252.0,498.0,268.5,512.0,270.5,498.5,286.0,480.5,301.5,465.0,318.0,453.0,334.0,443.0,350.0,435.0,366.0,439.0,368.0,433.0,383.5,423.0,399.0,417.0,415.0,415.0,427.0,402.5,443.0,405.0,437.0,409.0,421.0,427.0,393.5" stroke="black" stroke-width="2" fill="none" />
<polyline points="469.0,140.0,459.0,136.0,465.0,120.5,467.0,104.5" stroke="black" stroke-width="2" fill="none" />
<polyline points="452.5,75.5,468.5,75.5,484.5,75.5,500.5,73.0" stroke="black" stroke-width="2" fill="none" />
<polyline points="508.0,68.0,492.0,62.5,476.0,53.0,463.5,55.0,448.0,59.0,440.5,84.5,428.5,86.0,426.0,79.5,410.0,95.5,426.5,111.0,433.0,95.5,443.0,79.5,444.5,63.5,448.5,71.5" stroke="black" stroke-width="2" fill="none" />
<polyline points="453.5,59.5,447.5,75.5,437.5,75.5,423.5,89.0,419.5,97.0,421.5,90.5" stroke="black" stroke-width="2" fill="none" />
<polyline points="400.0,94.0,384.0,104.0" stroke="black" stroke-width="2" fill="none" />
<polyline points="378.0,105.5,393.5,83.5,409.5,69.0,425.5,57.0,441.0,49.0,457.5,45.0,474.0,43.0,490.0,47.0,506.5,57.0" stroke="black" stroke-width="2" fill="none" />
<polyline points="493.5,77.5,491.5,70.0,480.0,54.5" stroke="black" stroke-width="2" fill="none" />
<polyline points="481.5,45.0,507.5,61.0" stroke="black" stroke-width="2" fill="none" />
<polyline points="444.0,53.5,428.0,69.5,410.0,84.0,396.0,94.0,388.0,109.5,384.5,109.5,388.0,121.5,390.0,137.5,406.0,161.5,408.5,173.5" stroke="black" stroke-width="2" fill="none" />
<polyline points="330.0,346.0,314.0,348.5,296.0,340.5,280.0,340.0,264.0,342.0,248.0,342.0,232.0,343.5,216.0,346.0,200.0,348.0,184.5,348.5,169.0,351.0,153.0,353.0,137.0,353.0,121.0,352.5,106.5,338.5,104.5,322.0,102.5,305.5,100.5,289.0,98.0,273.5,94.0,258.0,94.0,242.0,92.0,226.5,90.0,210.5,88.0,194.0,86.0,178.0,84.0,161.5,84.0,145.5,78.0,130.0,77.5,113.5,75.5,97.5,73.5,81.5,82.0,65.5,68.0,49.5" stroke="black" stroke-width="2" fill="none" />
<polyline points="57.0,48.0,49.5,64.0,49.0,79.5,51.5,95.5,53.5,111.5,54.0,127.5,56.0,143.5,58.5,160.0,60.5,176.0,63.0,192.5,65.0,208.5,67.0,224.5,69.0,240.5,71.0,256.0,73.0,272.0,75.0,287.5,77.0,304.0,79.0,320.0,81.0,336.5,85.5,352.5" stroke="black" stroke-width="2" fill="none" />
</svg>