<?xml version="1.0" encoding="UTF-8"?>
<svg xmlns="http://www.w3.org/2000/svg" xmlns:xlink="http://www.w3.org/1999/xlink" width="1935.11811" height="1935.11811" viewBox="0 0 1935.11811 1935.11811" version="1.1">
<g id="surface1">
<path style="fill:none;stroke-width:2;stroke-linecap:butt;stroke-linejoin:miter;stroke:rgb(0%,0%,0%);stroke-opacity:1;stroke-miterlimit:4;" d="M 165.499976 54.500033 L 139.499495 70.50009 L 125.50035 86.500146 L 129.500106 80.500513 L 145.500163 66.999528 L 161.50022 57.000138 L 177.500277 59.000016 " transform="matrix(3.779528,0,0,3.779528,0,0)"/>
<path style="fill:none;stroke-width:2;stroke-linecap:butt;stroke-linejoin:miter;stroke:rgb(0%,0%,0%);stroke-opacity:1;stroke-miterlimit:4;" d="M 173.999715 61.500122 L 157.999658 62.999772 L 141.500407 75.500301 L 125.50035 91.500358 L 141.000179 75.500301 L 164.999748 59.500244 " transform="matrix(3.779528,0,0,3.779528,0,0)"/>
<path style="fill:none;stroke-width:2;stroke-linecap:butt;stroke-linejoin:miter;stroke:rgb(0%,0%,0%);stroke-opacity:1;stroke-miterlimit:4;" d="M 173.499487 73.000195 L 165.499976 89.000252 L 171.499609 105.000309 L 173.499487 121.499561 L 171.999837 137.999845 L 173.999715 154.50013 L 173.999715 202.500301 L 170.500187 218.500358 L 187.000472 228.499748 L 193.000106 244.499805 L 196.499634 260.499862 L 200.500423 276.499919 L 210.499813 280.499674 L 226.49987 280.499674 L 242.499927 280.00048 L 306.500155 280.00048 L 322.500212 282.000358 L 338.500269 279.500252 L 354.000098 279.000024 L 370.000155 277.000146 L 395.500407 261.00009 " transform="matrix(3.779528,0,0,3.779528,0,0)"/>
<path style="fill:none;stroke-width:2;stroke-linecap:butt;stroke-linejoin:miter;stroke:rgb(0%,0%,0%);stroke-opacity:1;stroke-miterlimit:4;" d="M 395.500407 246.000488 L 411.500464 236.000065 L 427.499487 230.000431 L 439.499788 239.999821 L 429.500399 255.49965 L 420.000203 271.000513 L 411.999658 287.499764 L 418.49952 285.499886 L 434.499577 257.499528 L 450.499634 234.000187 L 459.999829 225.999642 " transform="matrix(3.779528,0,0,3.779528,0,0)"/>
<path style="fill:none;stroke-width:2;stroke-linecap:butt;stroke-linejoin:miter;stroke:rgb(0%,0%,0%);stroke-opacity:1;stroke-miterlimit:4;" d="M 452.000317 229.500203 L 435.500033 236.999487 L 418.999748 239.000399 L 400.999813 228.999976 L 396.499829 222.500114 L 379.999544 248.999788 " transform="matrix(3.779528,0,0,3.779528,0,0)"/>
<path style="fill:none;stroke-width:2;stroke-linecap:butt;stroke-linejoin:miter;stroke:rgb(0%,0%,0%);stroke-opacity:1;stroke-miterlimit:4;" d="M 372.50026 270.500285 L 376.500016 254.500228 L 382.49965 237.999943 L 393.999723 227.500326 L 407.999902 211.500269 L 445.99965 201.499845 L 441.999894 187.499666 L 452.000317 171.499609 L 461.999707 155.000358 L 464.499813 139.000301 L 456.500301 123.000244 L 432.000505 107.500415 L 423.999959 91.500358 L 422.000081 78.000407 L 405.499797 75.999495 L 309.999683 75.999495 L 293.999626 75.500301 L 277.999569 75.500301 L 261.999512 75.999495 L 198.499512 75.999495 L 182.500488 76.499723 L 166.500431 80.500513 " transform="matrix(3.779528,0,0,3.779528,0,0)"/>
<path style="fill:none;stroke-width:2;stroke-linecap:butt;stroke-linejoin:miter;stroke:rgb(0%,0%,0%);stroke-opacity:1;stroke-miterlimit:4;" d="M 169.499731 84.000041 L 185.499788 82.000163 L 218.00013 82.000163 L 234.000187 82.500391 L 266.000301 82.500391 L 282.499552 82.000163 L 298.499609 82.000163 L 314.499666 81.499935 L 329.999495 82.000163 L 378.499894 82.000163 L 394.499951 82.500391 L 410.500008 82.000163 " transform="matrix(3.779528,0,0,3.779528,0,0)"/>
<path style="fill:none;stroke-width:2;stroke-linecap:butt;stroke-linejoin:miter;stroke:rgb(0%,0%,0%);stroke-opacity:1;stroke-miterlimit:4;" d="M 404.000146 113.500049 L 382.000456 129.500106 L 369.499927 157.500464 L 381.500228 161.50022 L 419.499976 177.500277 " transform="matrix(3.779528,0,0,3.779528,0,0)"/>
<path style="fill:none;stroke-width:2;stroke-linecap:butt;stroke-linejoin:miter;stroke:rgb(0%,0%,0%);stroke-opacity:1;stroke-miterlimit:4;" d="M 379.50035 180.999805 L 373.499683 180.999805 L 379.999544 171.000415 L 370.000155 166.500431 " transform="matrix(3.779528,0,0,3.779528,0,0)"/>
<path style="fill:none;stroke-width:2;stroke-linecap:butt;stroke-linejoin:miter;stroke:rgb(0%,0%,0%);stroke-opacity:1;stroke-miterlimit:4;" d="M 363.999487 154.50013 L 379.999544 160.499764 L 395.999601 166.500431 L 411.999658 173.999715 L 427.499487 187.499666 L 443.499544 181.500033 L 459.499601 159.000114 " transform="matrix(3.779528,0,0,3.779528,0,0)"/>
<path style="fill:none;stroke-width:2;stroke-linecap:butt;stroke-linejoin:miter;stroke:rgb(0%,0%,0%);stroke-opacity:1;stroke-miterlimit:4;" d="M 461.999707 166.000203 L 445.99965 189.999772 L 424.500187 171.999837 L 382.49965 155.99978 L 368.500505 141.999601 L 380.499772 123.999666 L 406.500252 116.000155 L 390.500195 123.500472 L 374.500138 137.499618 " transform="matrix(3.779528,0,0,3.779528,0,0)"/>
<path style="fill:none;stroke-width:2;stroke-linecap:butt;stroke-linejoin:miter;stroke:rgb(0%,0%,0%);stroke-opacity:1;stroke-miterlimit:4;" d="M 375.499561 142.499829 L 391.499618 130.499528 " transform="matrix(3.779528,0,0,3.779528,0,0)"/>
<path style="fill:none;stroke-width:2;stroke-linecap:butt;stroke-linejoin:miter;stroke:rgb(0%,0%,0%);stroke-opacity:1;stroke-miterlimit:4;" d="M 406.000024 116.999577 L 386.000212 133.499862 L 379.999544 123.500472 L 395.999601 111.500171 L 416.000448 105.499504 L 432.000505 101.499748 L 447.999528 109.500293 L 464.499813 123.500472 " transform="matrix(3.779528,0,0,3.779528,0,0)"/>
<path style="fill:none;stroke-width:2;stroke-linecap:butt;stroke-linejoin:miter;stroke:rgb(0%,0%,0%);stroke-opacity:1;stroke-miterlimit:4;" d="M 434.000382 187.000472 L 418.000326 171.000415 L 402.500496 164.999748 L 386.000212 157.000236 L 370.000155 150.999569 " transform="matrix(3.779528,0,0,3.779528,0,0)"/>
<path style="fill:none;stroke-width:2;stroke-linecap:butt;stroke-linejoin:miter;stroke:rgb(0%,0%,0%);stroke-opacity:1;stroke-miterlimit:4;" d="M 361.000187 137.499618 L 377.500472 118.000033 L 393.999723 105.499504 L 409.99978 100.99952 L 438.500366 109.000065 L 454.500423 121.000366 " transform="matrix(3.779528,0,0,3.779528,0,0)"/>
<path style="fill:none;stroke-width:2;stroke-linecap:butt;stroke-linejoin:miter;stroke:rgb(0%,0%,0%);stroke-opacity:1;stroke-miterlimit:4;" d="M 446.499878 211.000041 L 426.500065 220.500236 L 444.5 212.499691 L 460.500057 220.500236 L 476.500114 236.500293 " transform="matrix(3.779528,0,0,3.779528,0,0)"/>
<path style="fill:none;stroke-width:2;stroke-linecap:butt;stroke-linejoin:miter;stroke:rgb(0%,0%,0%);stroke-opacity:1;stroke-miterlimit:4;" d="M 485.500081 242.499927 L 489.499837 258.499984 L 486.999731 274.500041 L 479.00022 290.500098 L 466.499691 305.999927 L 456.500301 321.999984 " transform="matrix(3.779528,0,0,3.779528,0,0)"/>
<path style="fill:none;stroke-width:2;stroke-linecap:butt;stroke-linejoin:miter;stroke:rgb(0%,0%,0%);stroke-opacity:1;stroke-miterlimit:4;" d="M 419.499976 311.000138 L 427.499487 316.499544 L 445.500456 323.000439 L 449.500212 339.000496 L 440.000016 354.99952 L 440.000016 363.000065 " transform="matrix(3.779528,0,0,3.779528,0,0)"/>
<path style="fill:none;stroke-width:2;stroke-linecap:butt;stroke-linejoin:miter;stroke:rgb(0%,0%,0%);stroke-opacity:1;stroke-miterlimit:4;" d="M 433.500155 359.000309 L 417.500098 349.500114 L 402.000269 333.500057 " transform="matrix(3.779528,0,0,3.779528,0,0)"/>
<path style="fill:none;stroke-width:2;stroke-linecap:butt;stroke-linejoin:miter;stroke:rgb(0%,0%,0%);stroke-opacity:1;stroke-miterlimit:4;" d="M 398.999935 329.000073 L 414.999992 335.499935 L 431.000049 345.500358 " transform="matrix(3.779528,0,0,3.779528,0,0)"/>
<path style="fill:none;stroke-width:2;stroke-linecap:butt;stroke-linejoin:miter;stroke:rgb(0%,0%,0%);stroke-opacity:1;stroke-miterlimit:4;" d="M 426.500065 360.499959 L 408.50013 344.499902 " transform="matrix(3.779528,0,0,3.779528,0,0)"/>
<path style="fill:none;stroke-width:2;stroke-linecap:butt;stroke-linejoin:miter;stroke:rgb(0%,0%,0%);stroke-opacity:1;stroke-miterlimit:4;" d="M 407.00048 330.499723 L 428.499943 346.49978 " transform="matrix(3.779528,0,0,3.779528,0,0)"/>
<path style="fill:none;stroke-width:2;stroke-linecap:butt;stroke-linejoin:miter;stroke:rgb(0%,0%,0%);stroke-opacity:1;stroke-miterlimit:4;" d="M 406.000024 320.000106 L 422.000081 302.000171 L 438.000138 314.000472 L 454.000195 318.000228 L 470.000252 293.999626 L 483.500203 291.999748 L 484.000431 307.999805 L 484.000431 339.499691 L 484.499626 354.99952 L 484.499626 370.999577 L 484.000431 386.999634 L 484.000431 467.500146 L 484.499626 484.000431 L 484.499626 500.499683 " transform="matrix(3.779528,0,0,3.779528,0,0)"/>
<path style="fill:none;stroke-width:2;stroke-linecap:butt;stroke-linejoin:miter;stroke:rgb(0%,0%,0%);stroke-opacity:1;stroke-miterlimit:4;" d="M 359.000309 506.50035 L 359.000309 490.500293 L 361.500415 474.500236 L 361.999609 458.500179 L 364.499715 442.500122 L 364.499715 425.999837 L 366.999821 409.499552 L 366.999821 407.499674 L 350.999764 407.499674 L 334.999707 409.499552 L 318.99965 407.999902 " transform="matrix(3.779528,0,0,3.779528,0,0)"/>
<path style="fill:none;stroke-width:2;stroke-linecap:butt;stroke-linejoin:miter;stroke:rgb(0%,0%,0%);stroke-opacity:1;stroke-miterlimit:4;" d="M 332.000407 392.500073 L 348.000464 391.999845 L 363.999487 387.499862 " transform="matrix(3.779528,0,0,3.779528,0,0)"/>
<path style="fill:none;stroke-width:2;stroke-linecap:butt;stroke-linejoin:miter;stroke:rgb(0%,0%,0%);stroke-opacity:1;stroke-miterlimit:4;" d="M 355.499748 400.999813 L 339.000496 402.999691 L 323.000439 402.999691 L 307.499577 402.500496 L 291.49952 402.999691 L 275.999691 400.999813 L 259.999634 400.999813 L 244.499805 397.500285 L 228.499748 393.999723 L 212.499691 372.000033 " transform="matrix(3.779528,0,0,3.779528,0,0)"/>
<path style="fill:none;stroke-width:2;stroke-linecap:butt;stroke-linejoin:miter;stroke:rgb(0%,0%,0%);stroke-opacity:1;stroke-miterlimit:4;" d="M 216.999674 368.999699 L 232.999731 388.999512 L 248.999788 391.000423 L 264.499618 394.499951 L 280.00048 395.999601 " transform="matrix(3.779528,0,0,3.779528,0,0)"/>
<path style="fill:none;stroke-width:2;stroke-linecap:butt;stroke-linejoin:miter;stroke:rgb(0%,0%,0%);stroke-opacity:1;stroke-miterlimit:4;" d="M 287.499764 391.499618 L 271.499707 382.000456 " transform="matrix(3.779528,0,0,3.779528,0,0)"/>
<path style="fill:none;stroke-width:2;stroke-linecap:butt;stroke-linejoin:miter;stroke:rgb(0%,0%,0%);stroke-opacity:1;stroke-miterlimit:4;" d="M 274.500041 373.000488 L 290.500098 372.50026 " transform="matrix(3.779528,0,0,3.779528,0,0)"/>
<path style="fill:none;stroke-width:2;stroke-linecap:butt;stroke-linejoin:miter;stroke:rgb(0%,0%,0%);stroke-opacity:1;stroke-miterlimit:4;" d="M 286.000114 367.500049 L 270.000057 369.499927 " transform="matrix(3.779528,0,0,3.779528,0,0)"/>
<path style="fill:none;stroke-width:2;stroke-linecap:butt;stroke-linejoin:miter;stroke:rgb(0%,0%,0%);stroke-opacity:1;stroke-miterlimit:4;" d="M 273.499585 366.499593 L 277.500374 382.49965 L 291.49952 388.500317 " transform="matrix(3.779528,0,0,3.779528,0,0)"/>
<path style="fill:none;stroke-width:2;stroke-linecap:butt;stroke-linejoin:miter;stroke:rgb(0%,0%,0%);stroke-opacity:1;stroke-miterlimit:4;" d="M 293.999626 381.500228 L 277.999569 382.000456 L 262.49974 370.000155 L 246.99991 368.500505 L 230.999854 366.499593 L 215.500024 366.499593 " transform="matrix(3.779528,0,0,3.779528,0,0)"/>
<path style="fill:none;stroke-width:2;stroke-linecap:butt;stroke-linejoin:miter;stroke:rgb(0%,0%,0%);stroke-opacity:1;stroke-miterlimit:4;" d="M 220.000008 363.000065 L 220.000008 379.000122 " transform="matrix(3.779528,0,0,3.779528,0,0)"/>
<path style="fill:none;stroke-width:2;stroke-linecap:butt;stroke-linejoin:miter;stroke:rgb(0%,0%,0%);stroke-opacity:1;stroke-miterlimit:4;" d="M 231.500081 413.999536 L 215.500024 417.500098 L 200.000195 413.500342 L 184.000138 404.999569 L 168.000081 395.000179 " transform="matrix(3.779528,0,0,3.779528,0,0)"/>
<path style="fill:none;stroke-width:2;stroke-linecap:butt;stroke-linejoin:miter;stroke:rgb(0%,0%,0%);stroke-opacity:1;stroke-miterlimit:4;" d="M 171.499609 393.000301 L 201.499845 409.000358 " transform="matrix(3.779528,0,0,3.779528,0,0)"/>
<path style="fill:none;stroke-width:2;stroke-linecap:butt;stroke-linejoin:miter;stroke:rgb(0%,0%,0%);stroke-opacity:1;stroke-miterlimit:4;" d="M 166.000203 391.499618 L 182.00026 399.500163 L 198.000317 407.499674 L 214.000374 413.500342 L 230.000431 409.99978 L 246.000488 404.000146 " transform="matrix(3.779528,0,0,3.779528,0,0)"/>
<path style="fill:none;stroke-width:2;stroke-linecap:butt;stroke-linejoin:miter;stroke:rgb(0%,0%,0%);stroke-opacity:1;stroke-miterlimit:4;" d="M 273.000391 385.499984 L 259.000212 370.000155 " transform="matrix(3.779528,0,0,3.779528,0,0)"/>
<path style="fill:none;stroke-width:2;stroke-linecap:butt;stroke-linejoin:miter;stroke:rgb(0%,0%,0%);stroke-opacity:1;stroke-miterlimit:4;" d="M 316.499544 302.500399 L 332.499601 298.000415 L 348.499658 297.500187 L 364.499715 297.500187 L 384.000334 293.000203 L 400.000391 277.500374 " transform="matrix(3.779528,0,0,3.779528,0,0)"/>
<path style="fill:none;stroke-width:2;stroke-linecap:butt;stroke-linejoin:miter;stroke:rgb(0%,0%,0%);stroke-opacity:1;stroke-miterlimit:4;" d="M 416.99987 293.999626 L 432.999927 268.000179 " transform="matrix(3.779528,0,0,3.779528,0,0)"/>
<path style="fill:none;stroke-width:2;stroke-linecap:butt;stroke-linejoin:miter;stroke:rgb(0%,0%,0%);stroke-opacity:1;stroke-miterlimit:4;" d="M 400.999813 234.500415 L 395.000179 250.500472 L 395.000179 281.50013 L 379.000122 297.500187 L 370.999577 313.000016 L 369.499927 329.000073 L 370.000155 345.500358 L 370.000155 355.499748 L 386.000212 345.500358 L 400.000391 343.50048 L 416.000448 357.499626 L 434.000382 366.999821 " transform="matrix(3.779528,0,0,3.779528,0,0)"/>
<path style="fill:none;stroke-width:2;stroke-linecap:butt;stroke-linejoin:miter;stroke:rgb(0%,0%,0%);stroke-opacity:1;stroke-miterlimit:4;" d="M 426.500065 376.500016 L 410.500008 393.000301 L 394.499951 398.999935 L 377.999666 395.000179 L 354.000098 394.499951 L 334.000285 386.500439 L 318.000228 390.500195 L 297.500187 393.999723 L 293.500431 377.999666 L 287.499764 372.000033 L 309.500488 365.500171 L 307.999805 349.500114 L 307.499577 333.500057 L 307.499577 301.499943 L 299.500065 297.500187 L 283.500008 296.999959 L 251.499894 298.000415 L 236.000065 298.000415 L 220.000008 298.499609 L 203.999951 298.000415 " transform="matrix(3.779528,0,0,3.779528,0,0)"/>
<path style="fill:none;stroke-width:2;stroke-linecap:butt;stroke-linejoin:miter;stroke:rgb(0%,0%,0%);stroke-opacity:1;stroke-miterlimit:4;" d="M 203.999951 298.000415 L 205.999829 314.000472 L 209.999585 329.999495 L 214.000374 346.49978 " transform="matrix(3.779528,0,0,3.779528,0,0)"/>
<path style="fill:none;stroke-width:2;stroke-linecap:butt;stroke-linejoin:miter;stroke:rgb(0%,0%,0%);stroke-opacity:1;stroke-miterlimit:4;" d="M 164.49952 391.499618 L 184.500366 407.499674 " transform="matrix(3.779528,0,0,3.779528,0,0)"/>
<path style="fill:none;stroke-width:2;stroke-linecap:butt;stroke-linejoin:miter;stroke:rgb(0%,0%,0%);stroke-opacity:1;stroke-miterlimit:4;" d="M 132.500439 400.999813 L 136.500195 417.500098 L 137.999845 433.500155 L 141.999601 449.500212 L 144.000513 466.000496 L 144.000513 481.99952 " transform="matrix(3.779528,0,0,3.779528,0,0)"/>
<path style="fill:none;stroke-width:2;stroke-linecap:butt;stroke-linejoin:miter;stroke:rgb(0%,0%,0%);stroke-opacity:1;stroke-miterlimit:4;" d="M 121.999788 465.500269 L 121.999788 449.500212 L 121.499561 433.500155 L 119.499683 417.500098 L 119.99991 402.000269 L 112.499593 393.999723 L 108.499837 399.500163 L 86.500146 403.499919 L 74.499845 387.499862 L 73.999618 366.999821 L 67.499756 350.999764 L 59.500244 335.499935 L 59.500244 319.499878 L 60.000472 303.499821 L 60.000472 287.499764 L 67.999984 271.999935 L 66.000106 256.500106 L 55.999683 240.500049 L 67.999984 237.999943 L 73.999618 221.499658 L 71.99974 205.000407 L 62.00035 189.00035 L 57.999561 171.000415 L 62.499544 153.499674 L 76.999951 137.499618 L 82.999585 143.500285 L 66.999528 155.499552 " transform="matrix(3.779528,0,0,3.779528,0,0)"/>
<path style="fill:none;stroke-width:2;stroke-linecap:butt;stroke-linejoin:miter;stroke:rgb(0%,0%,0%);stroke-opacity:1;stroke-miterlimit:4;" d="M 63.5 152.000024 L 79.500057 135.999967 L 95.500114 130.000334 L 73.000195 134.00009 L 58.499788 149.499919 L 51.999927 166.000203 L 53.499577 182.00026 L 59.500244 198.499512 L 73.000195 214.999797 L 50.500277 230.999854 L 36.500098 246.99991 L 34.50022 262.49974 L 32.999536 278.499797 L 33.499764 294.499854 L 33.499764 310.49991 L 35.499642 326.499967 L 37.999748 342.500024 L 46.000293 358.500081 L 35.99987 372.50026 L 33.999992 388.999512 L 32.000114 404.999569 L 30.000236 420.500431 L 48.500399 436.00026 L 46.499487 452.000317 L 44.999837 467.500146 L 46.999715 483.500203 L 61.500122 477.499536 L 63.5 483.500203 L 77.500179 477.499536 L 93.500236 477.499536 L 109.999487 477.999764 L 133.499862 483.500203 " transform="matrix(3.779528,0,0,3.779528,0,0)"/>
<path style="fill:none;stroke-width:2;stroke-linecap:butt;stroke-linejoin:miter;stroke:rgb(0%,0%,0%);stroke-opacity:1;stroke-miterlimit:4;" d="M 101.499748 423.499731 L 103.499626 407.499674 L 103.499626 388.00009 L 89.50048 372.000033 L 75.500301 355.499748 L 67.499756 339.499691 L 66.000106 323.499634 L 66.000106 307.499577 L 66.500334 291.49952 L 78.999829 275.500496 L 75.000073 259.999634 L 66.999528 243.999577 L 60.999894 236.500293 " transform="matrix(3.779528,0,0,3.779528,0,0)"/>
<path style="fill:none;stroke-width:2;stroke-linecap:butt;stroke-linejoin:miter;stroke:rgb(0%,0%,0%);stroke-opacity:1;stroke-miterlimit:4;" d="M 59.000016 231.500081 L 80.999707 241.500505 L 96.499536 257.999756 " transform="matrix(3.779528,0,0,3.779528,0,0)"/>
<path style="fill:none;stroke-width:2;stroke-linecap:butt;stroke-linejoin:miter;stroke:rgb(0%,0%,0%);stroke-opacity:1;stroke-miterlimit:4;" d="M 101.499748 262.999967 L 85.499691 246.99991 " transform="matrix(3.779528,0,0,3.779528,0,0)"/>
<path style="fill:none;stroke-width:2;stroke-linecap:butt;stroke-linejoin:miter;stroke:rgb(0%,0%,0%);stroke-opacity:1;stroke-miterlimit:4;" d="M 103.499626 230.000431 L 119.499683 239.999821 L 133.499862 234.500415 L 149.499919 232.499504 L 166.000203 228.999976 L 182.00026 232.999731 L 198.000317 227.500326 L 214.000374 227.500326 L 230.000431 227.000098 L 246.000488 227.000098 L 261.999512 226.49987 L 277.999569 227.000098 L 309.500488 227.000098 L 325.99974 226.49987 L 341.999797 225.999642 L 373.000488 225.999642 L 381 212.000496 " transform="matrix(3.779528,0,0,3.779528,0,0)"/>
<path style="fill:none;stroke-width:2;stroke-linecap:butt;stroke-linejoin:miter;stroke:rgb(0%,0%,0%);stroke-opacity:1;stroke-miterlimit:4;" d="M 403.499919 209.999585 L 387.499862 203.999951 L 356.500203 203.999951 L 340.500146 203.499723 L 292.499976 203.499723 L 276.499919 202.999495 L 228.499748 202.999495 L 212.499691 202.500301 L 196.000439 204.500179 L 180.000382 200.500423 " transform="matrix(3.779528,0,0,3.779528,0,0)"/>
<path style="fill:none;stroke-width:2;stroke-linecap:butt;stroke-linejoin:miter;stroke:rgb(0%,0%,0%);stroke-opacity:1;stroke-miterlimit:4;" d="M 177.000049 226.49987 L 187.000472 242.499927 L 191.000228 257.999756 L 194.999984 273.999813 L 196.499634 289.99987 L 198.499512 305.499699 L 202.500301 321.499756 L 208.499935 338.000041 L 204.500179 348.000464 L 211.000041 361.999609 L 214.999797 377.999666 L 228.999976 393.999723 L 230.999854 409.499552 " transform="matrix(3.779528,0,0,3.779528,0,0)"/>
<path style="fill:none;stroke-width:2;stroke-linecap:butt;stroke-linejoin:miter;stroke:rgb(0%,0%,0%);stroke-opacity:1;stroke-miterlimit:4;" d="M 141.500407 345.999552 L 125.50035 343.999674 " transform="matrix(3.779528,0,0,3.779528,0,0)"/>
<path style="fill:none;stroke-width:2;stroke-linecap:butt;stroke-linejoin:miter;stroke:rgb(0%,0%,0%);stroke-opacity:1;stroke-miterlimit:4;" d="M 134.999512 339.999919 L 119.499683 334.000285 " transform="matrix(3.779528,0,0,3.779528,0,0)"/>
<path style="fill:none;stroke-width:2;stroke-linecap:butt;stroke-linejoin:miter;stroke:rgb(0%,0%,0%);stroke-opacity:1;stroke-miterlimit:4;" d="M 120.500138 324.50009 L 128.49965 342.500024 L 124.499894 374.500138 L 128.49965 390.500195 L 128.49965 408.50013 L 130.999756 424.500187 L 134.500317 440.000016 L 136.500195 456.000073 L 140.499951 471.499902 " transform="matrix(3.779528,0,0,3.779528,0,0)"/>
<path style="fill:none;stroke-width:2;stroke-linecap:butt;stroke-linejoin:miter;stroke:rgb(0%,0%,0%);stroke-opacity:1;stroke-miterlimit:4;" d="M 128.49965 480.49987 L 112.999821 484.499626 L 96.999764 484.000431 L 80.999707 484.000431 L 66.999528 470.000252 L 66.999528 454.000195 L 66.500334 438.000138 L 55.00026 433.500155 " transform="matrix(3.779528,0,0,3.779528,0,0)"/>
<path style="fill:none;stroke-width:2;stroke-linecap:butt;stroke-linejoin:miter;stroke:rgb(0%,0%,0%);stroke-opacity:1;stroke-miterlimit:4;" d="M 37.999748 430.499821 L 53.999805 438.999561 L 51.499699 454.999618 L 49.499821 470.50048 " transform="matrix(3.779528,0,0,3.779528,0,0)"/>
<path style="fill:none;stroke-width:2;stroke-linecap:butt;stroke-linejoin:miter;stroke:rgb(0%,0%,0%);stroke-opacity:1;stroke-miterlimit:4;" d="M 71.000317 468.999797 L 73.000195 452.499512 L 72.499967 436.500488 " transform="matrix(3.779528,0,0,3.779528,0,0)"/>
<path style="fill:none;stroke-width:2;stroke-linecap:butt;stroke-linejoin:miter;stroke:rgb(0%,0%,0%);stroke-opacity:1;stroke-miterlimit:4;" d="M 87.499569 405.499797 L 71.499512 385.499984 " transform="matrix(3.779528,0,0,3.779528,0,0)"/>
<path style="fill:none;stroke-width:2;stroke-linecap:butt;stroke-linejoin:miter;stroke:rgb(0%,0%,0%);stroke-opacity:1;stroke-miterlimit:4;" d="M 75.500301 381.500228 L 89.50048 397.500285 " transform="matrix(3.779528,0,0,3.779528,0,0)"/>
<path style="fill:none;stroke-width:2;stroke-linecap:butt;stroke-linejoin:miter;stroke:rgb(0%,0%,0%);stroke-opacity:1;stroke-miterlimit:4;" d="M 100.000098 375.000366 L 84.000041 367.500049 L 67.999984 337.499813 " transform="matrix(3.779528,0,0,3.779528,0,0)"/>
<path style="fill:none;stroke-width:2;stroke-linecap:butt;stroke-linejoin:miter;stroke:rgb(0%,0%,0%);stroke-opacity:1;stroke-miterlimit:4;" d="M 44.999837 338.000041 L 60.999894 365.500171 L 76.999951 375.499561 L 93.000008 379.999544 L 98.999642 388.500317 L 98.999642 404.500374 " transform="matrix(3.779528,0,0,3.779528,0,0)"/>
<path style="fill:none;stroke-width:2;stroke-linecap:butt;stroke-linejoin:miter;stroke:rgb(0%,0%,0%);stroke-opacity:1;stroke-miterlimit:4;" d="M 111.500171 325.99974 L 121.499561 322.500212 L 137.499618 323.000439 " transform="matrix(3.779528,0,0,3.779528,0,0)"/>
<path style="fill:none;stroke-width:2;stroke-linecap:butt;stroke-linejoin:miter;stroke:rgb(0%,0%,0%);stroke-opacity:1;stroke-miterlimit:4;" d="M 114.000277 320.000106 L 129.500106 295.999504 L 139.000301 303.499821 L 146.999813 335.499935 L 144.999935 352.00022 L 155.000358 363.999487 L 171.000415 361.999609 L 187.499666 357.999854 L 211.500269 359.999731 L 227.500326 357.999854 L 243.500382 359.999731 L 259.500439 363.999487 L 275.500496 359.999731 L 291.49952 359.499504 L 305.999927 364.999943 L 321.999984 359.499504 L 338.500269 359.499504 L 354.500326 355.499748 " transform="matrix(3.779528,0,0,3.779528,0,0)"/>
<path style="fill:none;stroke-width:2;stroke-linecap:butt;stroke-linejoin:miter;stroke:rgb(0%,0%,0%);stroke-opacity:1;stroke-miterlimit:4;" d="M 370.500382 355.999976 L 392.500073 339.999919 L 393.000301 332.499601 L 402.999691 316.499544 L 413.500342 300.000293 L 425.499609 284.000236 L 435.500033 268.000179 L 445.99965 252.000122 L 463.500391 236.000065 L 461.500513 237.999943 L 443.00035 237.999943 L 426.500065 260.499862 L 410.500008 290.500098 L 402.000269 316.499544 L 386.000212 338.500269 L 377.500472 336.500391 L 377.999666 320.500334 L 379.999544 304.500277 L 389.999967 276.499919 L 384.000334 276.499919 L 377.999666 274.500041 L 382.000456 254.500228 L 388.00009 246.000488 L 398.499707 230.000431 L 410.500008 214.000374 L 374.500138 184.000138 L 370.000155 168.000081 L 361.999609 152.000024 L 364.499715 136.500195 L 375.000366 120.500138 L 398.999935 103.999854 L 402.999691 96.000342 L 386.500439 96.000342 L 370.500382 95.500114 L 354.000098 96.000342 L 305.999927 96.000342 L 289.99987 96.499536 L 273.999813 96.499536 L 257.499528 96.999764 L 241.500505 96.499536 L 225.500448 96.499536 L 209.500391 96.000342 L 193.500334 94.999886 L 177.500277 98.999642 " transform="matrix(3.779528,0,0,3.779528,0,0)"/>
<path style="fill:none;stroke-width:2;stroke-linecap:butt;stroke-linejoin:miter;stroke:rgb(0%,0%,0%);stroke-opacity:1;stroke-miterlimit:4;" d="M 178.999927 96.000342 L 177.500277 112.000399 L 177.000049 127.500228 L 177.500277 143.500285 L 179.500155 159.500342 L 178.000505 175.500399 L 178.000505 191.500456 L 176.499821 216.000252 L 192.499878 212.000496 L 209.000163 210.499813 L 257.000334 210.499813 L 273.000391 209.999585 L 289.000448 209.999585 L 305.000505 209.500391 L 320.999528 209.999585 " transform="matrix(3.779528,0,0,3.779528,0,0)"/>
<path style="fill:none;stroke-width:2;stroke-linecap:butt;stroke-linejoin:miter;stroke:rgb(0%,0%,0%);stroke-opacity:1;stroke-miterlimit:4;" d="M 260.499862 150.999569 L 248.000366 134.999512 L 241.999699 146.999813 " transform="matrix(3.779528,0,0,3.779528,0,0)"/>
<path style="fill:none;stroke-width:2;stroke-linecap:butt;stroke-linejoin:miter;stroke:rgb(0%,0%,0%);stroke-opacity:1;stroke-miterlimit:4;" d="M 240.500049 130.999756 L 254.500228 134.999512 L 244.499805 134.999512 L 264.499618 137.499618 L 268.999601 153.00048 L 262.999967 168.999504 L 259.000212 180.999805 " transform="matrix(3.779528,0,0,3.779528,0,0)"/>
<path style="fill:none;stroke-width:2;stroke-linecap:butt;stroke-linejoin:miter;stroke:rgb(0%,0%,0%);stroke-opacity:1;stroke-miterlimit:4;" d="M 250.999666 186.500244 L 234.999609 186.500244 " transform="matrix(3.779528,0,0,3.779528,0,0)"/>
<path style="fill:none;stroke-width:2;stroke-linecap:butt;stroke-linejoin:miter;stroke:rgb(0%,0%,0%);stroke-opacity:1;stroke-miterlimit:4;" d="M 239.999821 179.500155 L 231.500081 177.500277 L 225.500448 177.500277 L 212.000496 167.499854 L 212.499691 150.999569 L 210.499813 139.000301 L 196.999862 148.500496 L 180.999805 146.499585 " transform="matrix(3.779528,0,0,3.779528,0,0)"/>
<path style="fill:none;stroke-width:2;stroke-linecap:butt;stroke-linejoin:miter;stroke:rgb(0%,0%,0%);stroke-opacity:1;stroke-miterlimit:4;" d="M 179.500155 155.99978 L 195.500212 155.99978 L 215.500024 135.999967 L 232.000309 123.500472 L 248.499561 123.500472 L 264.499618 129.500106 " transform="matrix(3.779528,0,0,3.779528,0,0)"/>
<path style="fill:none;stroke-width:2;stroke-linecap:butt;stroke-linejoin:miter;stroke:rgb(0%,0%,0%);stroke-opacity:1;stroke-miterlimit:4;" d="M 217.499902 141.500407 L 215.500024 157.500464 L 217.499902 165.499976 L 217.499902 171.000415 " transform="matrix(3.779528,0,0,3.779528,0,0)"/>
<path style="fill:none;stroke-width:2;stroke-linecap:butt;stroke-linejoin:miter;stroke:rgb(0%,0%,0%);stroke-opacity:1;stroke-miterlimit:4;" d="M 171.000415 87.499569 L 187.000472 89.50048 L 202.999495 89.999674 L 219.49978 90.499902 L 236.000065 90.499902 L 252.50035 91.00013 L 268.500407 90.499902 L 349.500114 90.499902 L 365.500171 91.00013 L 381.500228 91.00013 L 397.000057 89.000252 L 412.499886 90.499902 L 430.499821 103.000431 L 456.500301 118.50026 L 468.499569 134.500317 L 470.50048 150.999569 L 462.499935 166.999626 L 452.499512 182.999683 L 447.999528 199.499967 L 461.999707 214.999797 L 475.999886 230.999854 L 481.99952 246.499683 L 484.000431 262.49974 L 480.49987 277.999569 L 470.50048 293.999626 L 460.500057 309.500488 L 454.999618 327.500423 L 470.999674 301.499943 L 490.999487 289.99987 L 490.999487 354.500326 L 491.499715 370.500382 L 491.499715 402.500496 L 490.999487 418.49952 L 490.999487 482.999976 L 490.500293 499.000033 " transform="matrix(3.779528,0,0,3.779528,0,0)"/>
<path style="fill:none;stroke-width:2;stroke-linecap:butt;stroke-linejoin:miter;stroke:rgb(0%,0%,0%);stroke-opacity:1;stroke-miterlimit:4;" d="M 364.499715 506.000122 L 366.499593 490.000065 L 366.499593 474.000008 L 368.500505 457.999951 L 368.500505 441.499666 L 370.500382 425.499609 L 372.000033 409.499552 " transform="matrix(3.779528,0,0,3.779528,0,0)"/>
<path style="fill:none;stroke-width:2;stroke-linecap:butt;stroke-linejoin:miter;stroke:rgb(0%,0%,0%);stroke-opacity:1;stroke-miterlimit:4;" d="M 316.00035 347.000008 L 316.00035 315.500122 L 318.500456 299.500065 " transform="matrix(3.779528,0,0,3.779528,0,0)"/>
<path style="fill:none;stroke-width:2;stroke-linecap:butt;stroke-linejoin:miter;stroke:rgb(0%,0%,0%);stroke-opacity:1;stroke-miterlimit:4;" d="M 203.999951 347.000008 L 196.499634 347.500236 L 180.999805 353.49987 L 164.999748 355.499748 L 148.999691 355.499748 L 152.500252 348.000464 L 132.500439 327.999618 L 125.999544 316.00035 L 121.999788 314.000472 L 133.499862 314.000472 L 133.499862 298.499609 L 135.49974 282.499552 L 131.499984 266.499495 L 127.500228 250.500472 L 127.500228 234.500415 " transform="matrix(3.779528,0,0,3.779528,0,0)"/>
<path style="fill:none;stroke-width:2;stroke-linecap:butt;stroke-linejoin:miter;stroke:rgb(0%,0%,0%);stroke-opacity:1;stroke-miterlimit:4;" d="M 114.000277 234.000187 L 123.500472 250.000244 L 125.999544 266.499495 L 130.000334 282.499552 L 124.499894 298.000415 L 118.50026 313.500244 L 112.999821 329.999495 L 121.000366 345.999552 L 119.000488 361.999609 L 119.000488 377.999666 L 125.000122 395.999601 L 116.999577 411.500464 L 116.999577 459.000407 L 116.500382 475.000464 " transform="matrix(3.779528,0,0,3.779528,0,0)"/>
<path style="fill:none;stroke-width:2;stroke-linecap:butt;stroke-linejoin:miter;stroke:rgb(0%,0%,0%);stroke-opacity:1;stroke-miterlimit:4;" d="M 89.50048 395.500407 L 73.500423 379.999544 L 57.000138 372.50026 L 41.000081 370.500382 L 39.000203 362.499837 L 36.500098 336.500391 " transform="matrix(3.779528,0,0,3.779528,0,0)"/>
<path style="fill:none;stroke-width:2;stroke-linecap:butt;stroke-linejoin:miter;stroke:rgb(0%,0%,0%);stroke-opacity:1;stroke-miterlimit:4;" d="M 41.000081 286.500342 L 57.000138 284.500464 L 72.499967 286.500342 " transform="matrix(3.779528,0,0,3.779528,0,0)"/>
<path style="fill:none;stroke-width:2;stroke-linecap:butt;stroke-linejoin:miter;stroke:rgb(0%,0%,0%);stroke-opacity:1;stroke-miterlimit:4;" d="M 57.999561 278.499797 L 41.999504 278.499797 " transform="matrix(3.779528,0,0,3.779528,0,0)"/>
<path style="fill:none;stroke-width:2;stroke-linecap:butt;stroke-linejoin:miter;stroke:rgb(0%,0%,0%);stroke-opacity:1;stroke-miterlimit:4;" d="M 42.999959 256.500106 L 59.000016 242.499927 L 75.000073 272.500163 " transform="matrix(3.779528,0,0,3.779528,0,0)"/>
<path style="fill:none;stroke-width:2;stroke-linecap:butt;stroke-linejoin:miter;stroke:rgb(0%,0%,0%);stroke-opacity:1;stroke-miterlimit:4;" d="M 110.499715 270.500285 L 118.50026 254.500228 L 112.000399 238.500171 L 105.499504 222.500114 L 123.500472 198.499512 L 121.999788 200.000195 L 105.999731 214.499569 " transform="matrix(3.779528,0,0,3.779528,0,0)"/>
<path style="fill:none;stroke-width:2;stroke-linecap:butt;stroke-linejoin:miter;stroke:rgb(0%,0%,0%);stroke-opacity:1;stroke-miterlimit:4;" d="M 120.500138 193.500334 L 105.000309 209.500391 L 89.000252 216.000252 L 62.999772 200.000195 " transform="matrix(3.779528,0,0,3.779528,0,0)"/>
<path style="fill:none;stroke-width:2;stroke-linecap:butt;stroke-linejoin:miter;stroke:rgb(0%,0%,0%);stroke-opacity:1;stroke-miterlimit:4;" d="M 64.99965 191.99965 L 80.999707 209.500391 L 105.000309 216.999674 L 121.000366 228.999976 L 137.000423 225.00022 L 152.500252 223.000342 L 168.999504 218.999552 L 189.00035 216.999674 L 205.000407 219.49978 L 221.000464 219.49978 L 236.999487 218.00013 L 252.999544 217.499902 L 300.999715 217.499902 L 316.499544 218.00013 L 332.499601 218.500358 L 379.000122 218.500358 L 395.000179 216.50048 L 408.50013 222.500114 L 424.500187 214.000374 L 441.000472 205.499601 L 457.499723 207.500513 L 474.000008 225.500448 L 490.000065 247.500138 " transform="matrix(3.779528,0,0,3.779528,0,0)"/>
<path style="fill:none;stroke-width:2;stroke-linecap:butt;stroke-linejoin:miter;stroke:rgb(0%,0%,0%);stroke-opacity:1;stroke-miterlimit:4;" d="M 452.99974 212.999919 L 462.499935 228.999976 L 445.000228 245.000033 L 434.499577 261.00009 L 424.500187 276.499919 L 413.999536 292.499976 L 414.499764 312.499788 L 402.999691 327.999618 L 401.500041 343.999674 L 419.499976 359.499504 L 425.499609 377.999666 L 405.499797 393.999723 L 431.500277 379.999544 " transform="matrix(3.779528,0,0,3.779528,0,0)"/>
<path style="fill:none;stroke-width:2;stroke-linecap:butt;stroke-linejoin:miter;stroke:rgb(0%,0%,0%);stroke-opacity:1;stroke-miterlimit:4;" d="M 118.000033 169.999959 L 101.999976 185.499788 L 96.000342 181.500033 L 112.499593 162.99987 " transform="matrix(3.779528,0,0,3.779528,0,0)"/>
<path style="fill:none;stroke-width:2;stroke-linecap:butt;stroke-linejoin:miter;stroke:rgb(0%,0%,0%);stroke-opacity:1;stroke-miterlimit:4;" d="M 116.000155 134.00009 L 100.000098 125.999544 L 83.499813 125.50035 L 67.499756 135.49974 L 65.499878 155.99978 L 85.999919 140.499951 " transform="matrix(3.779528,0,0,3.779528,0,0)"/>
<path style="fill:none;stroke-width:2;stroke-linecap:butt;stroke-linejoin:miter;stroke:rgb(0%,0%,0%);stroke-opacity:1;stroke-miterlimit:4;" d="M 109.999487 131.499984 L 121.999788 147.500041 L 130.000334 155.99978 L 130.000334 171.999837 L 123.999666 179.500155 L 118.50026 195.500212 L 101.999976 211.500269 L 85.999919 221.499658 L 85.999919 239.499593 L 102.500203 255.49965 " transform="matrix(3.779528,0,0,3.779528,0,0)"/>
<path style="fill:none;stroke-width:2;stroke-linecap:butt;stroke-linejoin:miter;stroke:rgb(0%,0%,0%);stroke-opacity:1;stroke-miterlimit:4;" d="M 112.000399 248.999788 L 91.999552 237.499715 L 101.999976 221.499658 L 96.499536 187.999894 L 114.500505 171.499609 L 94.999886 183.49991 L 79.500057 187.999894 L 64.000228 189.999772 L 62.00035 180.000382 " transform="matrix(3.779528,0,0,3.779528,0,0)"/>
<path style="fill:none;stroke-width:2;stroke-linecap:butt;stroke-linejoin:miter;stroke:rgb(0%,0%,0%);stroke-opacity:1;stroke-miterlimit:4;" d="M 46.499487 240.500049 L 41.000081 256.500106 L 39.000203 272.500163 L 39.000203 323.499634 L 42.999959 339.499691 L 51.000505 354.99952 L 41.500309 373.000488 L 37.49952 388.999512 L 37.49952 405.499797 L 35.499642 421.499854 L 41.500309 425.499609 L 57.500366 427.999715 L 73.000195 432.499699 L 76.999951 438.500366 L 93.000008 441.000472 " transform="matrix(3.779528,0,0,3.779528,0,0)"/>
<path style="fill:none;stroke-width:2;stroke-linecap:butt;stroke-linejoin:miter;stroke:rgb(0%,0%,0%);stroke-opacity:1;stroke-miterlimit:4;" d="M 105.999731 259.500439 L 100.000098 235.499837 L 84.000041 245.50026 L 73.999618 227.500326 L 69.999862 217.499902 L 53.499577 227.500326 L 37.49952 245.50026 " transform="matrix(3.779528,0,0,3.779528,0,0)"/>
</g>
</svg>
