<?xml version="1.0" encoding="UTF-8"?>
<svg xmlns="http://www.w3.org/2000/svg" xmlns:xlink="http://www.w3.org/1999/xlink" width="1935.11811" height="1935.11811" viewBox="0 0 1935.11811 1935.11811" version="1.1">
<g id="surface1">
<path style="fill:none;stroke-width:2;stroke-linecap:butt;stroke-linejoin:miter;stroke:rgb(0%,0%,0%);stroke-opacity:1;stroke-miterlimit:4;" d="M 343.50048 50.500277 L 325.499512 66.500334 L 319.499878 82.500391 L 331.500179 68.500212 L 347.500236 57.000138 L 363.500293 51.000505 L 379.50035 48.999593 L 395.500407 46.999715 L 411.000236 46.999715 L 427.000293 44.499609 L 475.000464 44.499609 L 490.999487 46.499487 L 507.499772 51.999927 " transform="matrix(3.779528,0,0,3.779528,0,0)"/>
<path style="fill:none;stroke-width:2;stroke-linecap:butt;stroke-linejoin:miter;stroke:rgb(0%,0%,0%);stroke-opacity:1;stroke-miterlimit:4;" d="M 496.499927 42.999959 L 480.49987 39.000203 L 464.499813 39.000203 L 448.999984 38.499976 L 432.999927 38.499976 L 416.499642 39.999626 L 400.499585 39.500431 L 384.999756 41.500309 L 369.499927 42.999959 L 353.49987 46.499487 L 338.000041 53.000382 L 321.999984 73.000195 L 305.999927 89.000252 L 289.499642 89.000252 L 273.999813 89.50048 L 257.999756 89.999674 L 225.500448 89.999674 L 209.999585 90.499902 L 193.999528 90.499902 L 178.000505 89.999674 L 162.000448 89.50048 L 146.000391 87.499569 L 114.000277 87.499569 L 97.499992 89.50048 L 81.499935 99.49987 L 66.000106 99.49987 L 50.500277 107.000187 L 34.50022 125.000122 L 19.000391 116.500382 L 3.000334 108.499837 " transform="matrix(3.779528,0,0,3.779528,0,0)"/>
<path style="fill:none;stroke-width:2;stroke-linecap:butt;stroke-linejoin:miter;stroke:rgb(0%,0%,0%);stroke-opacity:1;stroke-miterlimit:4;" d="M 5.000212 110.999943 L 20.500041 127 L 39.000203 143.000057 L 52.500155 168.999504 L 44.499609 184.500366 L 41.999504 200.500423 L 34.50022 222.500114 L 51.000505 230.000431 L 63.5 205.999829 L 79.500057 197.50009 L 95.500114 203.999951 L 97.499992 209.999585 " transform="matrix(3.779528,0,0,3.779528,0,0)"/>
<path style="fill:none;stroke-width:2;stroke-linecap:butt;stroke-linejoin:miter;stroke:rgb(0%,0%,0%);stroke-opacity:1;stroke-miterlimit:4;" d="M 91.999552 196.000439 L 107.999609 191.99965 L 123.999666 196.000439 L 123.999666 205.999829 L 121.999788 221.999886 L 113.500049 237.999943 L 105.999731 254 L 114.000277 261.500317 L 121.999788 277.500374 L 126.499772 293.000203 L 130.499528 309.00026 L 132.000212 325.000317 L 130.000334 341.499569 L 128.000456 357.499626 L 116.000155 373.499683 L 125.999544 365.500171 L 146.000391 343.50048 L 152.500252 323.999862 L 162.499642 330.499723 L 178.499699 326.499967 L 193.999528 342.500024 " transform="matrix(3.779528,0,0,3.779528,0,0)"/>
<path style="fill:none;stroke-width:2;stroke-linecap:butt;stroke-linejoin:miter;stroke:rgb(0%,0%,0%);stroke-opacity:1;stroke-miterlimit:4;" d="M 202.500301 329.500301 L 218.500358 349.500114 L 234.999609 361.500415 L 250.999666 371.499805 L 266.499495 370.999577 L 282.000358 371.499805 L 298.000415 371.499805 L 314.499666 372.000033 L 330.499723 372.50026 L 345.999552 373.000488 L 377.999666 373.000488 L 409.99978 375.999788 L 426.500065 375.999788 L 442.500122 375.499561 L 458.500179 367.500049 L 475.000464 365.500171 " transform="matrix(3.779528,0,0,3.779528,0,0)"/>
<path style="fill:none;stroke-width:2;stroke-linecap:butt;stroke-linejoin:miter;stroke:rgb(0%,0%,0%);stroke-opacity:1;stroke-miterlimit:4;" d="M 473.49978 353.49987 L 477.499536 337.499813 L 469.500024 318.000228 L 466.999919 302.500399 L 467.500146 298.499609 L 479.500448 282.499552 L 485.500081 266.499495 L 491.999943 250.500472 L 495.999699 234.500415 L 491.999943 224.499992 L 491.999943 191.99965 L 490.000065 175.999593 L 486.000309 171.499609 L 470.000252 171.499609 " transform="matrix(3.779528,0,0,3.779528,0,0)"/>
<path style="fill:none;stroke-width:2;stroke-linecap:butt;stroke-linejoin:miter;stroke:rgb(0%,0%,0%);stroke-opacity:1;stroke-miterlimit:4;" d="M 448.499756 179.500155 L 458.500179 173.499487 L 468.999797 189.00035 L 463.000163 200.999618 L 466.499691 216.999674 " transform="matrix(3.779528,0,0,3.779528,0,0)"/>
<path style="fill:none;stroke-width:2;stroke-linecap:butt;stroke-linejoin:miter;stroke:rgb(0%,0%,0%);stroke-opacity:1;stroke-miterlimit:4;" d="M 459.999829 216.000252 L 475.999886 196.000439 L 470.50048 180.000382 L 464.499813 165.499976 L 456.500301 163.500098 L 441.000472 145.500163 L 425.000415 147.500041 " transform="matrix(3.779528,0,0,3.779528,0,0)"/>
<path style="fill:none;stroke-width:2;stroke-linecap:butt;stroke-linejoin:miter;stroke:rgb(0%,0%,0%);stroke-opacity:1;stroke-miterlimit:4;" d="M 420.500431 170.500187 L 402.500496 186.500244 L 410.500008 202.500301 L 414.499764 212.499691 L 424.500187 232.499504 L 438.500366 248.499561 L 447.999528 252.000122 L 463.999585 232.000309 " transform="matrix(3.779528,0,0,3.779528,0,0)"/>
<path style="fill:none;stroke-width:2;stroke-linecap:butt;stroke-linejoin:miter;stroke:rgb(0%,0%,0%);stroke-opacity:1;stroke-miterlimit:4;" d="M 456.000073 245.50026 L 472.500358 235.499837 L 466.999919 235.499837 L 453.499967 251.499894 L 452.99974 268.000179 L 465.500269 264.000423 L 469.500024 241.999699 L 483.500203 234.000187 L 506.000122 242.499927 " transform="matrix(3.779528,0,0,3.779528,0,0)"/>
<path style="fill:none;stroke-width:2;stroke-linecap:butt;stroke-linejoin:miter;stroke:rgb(0%,0%,0%);stroke-opacity:1;stroke-miterlimit:4;" d="M 498.499805 240.500049 L 504.999666 256.500106 L 504.999666 288.50022 L 507.499772 304.000049 L 499.50026 307.499577 " transform="matrix(3.779528,0,0,3.779528,0,0)"/>
<path style="fill:none;stroke-width:2;stroke-linecap:butt;stroke-linejoin:miter;stroke:rgb(0%,0%,0%);stroke-opacity:1;stroke-miterlimit:4;" d="M 488.999609 306.500155 L 472.999552 302.500399 " transform="matrix(3.779528,0,0,3.779528,0,0)"/>
<path style="fill:none;stroke-width:2;stroke-linecap:butt;stroke-linejoin:miter;stroke:rgb(0%,0%,0%);stroke-opacity:1;stroke-miterlimit:4;" d="M 479.500448 279.500252 L 481.99952 269.499829 " transform="matrix(3.779528,0,0,3.779528,0,0)"/>
<path style="fill:none;stroke-width:2;stroke-linecap:butt;stroke-linejoin:miter;stroke:rgb(0%,0%,0%);stroke-opacity:1;stroke-miterlimit:4;" d="M 459.000407 264.499618 L 466.999919 248.499561 " transform="matrix(3.779528,0,0,3.779528,0,0)"/>
<path style="fill:none;stroke-width:2;stroke-linecap:butt;stroke-linejoin:miter;stroke:rgb(0%,0%,0%);stroke-opacity:1;stroke-miterlimit:4;" d="M 479.999642 233.499959 L 474.500236 249.500016 L 466.499691 265.500073 L 458.500179 282.000358 L 454.500423 298.000415 L 450.499634 314.000472 " transform="matrix(3.779528,0,0,3.779528,0,0)"/>
<path style="fill:none;stroke-width:2;stroke-linecap:butt;stroke-linejoin:miter;stroke:rgb(0%,0%,0%);stroke-opacity:1;stroke-miterlimit:4;" d="M 468.000374 349.500114 L 452.000317 351.499992 L 436.00026 350.999764 L 420.000203 355.499748 " transform="matrix(3.779528,0,0,3.779528,0,0)"/>
<path style="fill:none;stroke-width:2;stroke-linecap:butt;stroke-linejoin:miter;stroke:rgb(0%,0%,0%);stroke-opacity:1;stroke-miterlimit:4;" d="M 425.499609 367.500049 L 409.499552 367.500049 " transform="matrix(3.779528,0,0,3.779528,0,0)"/>
<path style="fill:none;stroke-width:2;stroke-linecap:butt;stroke-linejoin:miter;stroke:rgb(0%,0%,0%);stroke-opacity:1;stroke-miterlimit:4;" d="M 450.000439 371.499805 L 466.000496 371.499805 " transform="matrix(3.779528,0,0,3.779528,0,0)"/>
<path style="fill:none;stroke-width:2;stroke-linecap:butt;stroke-linejoin:miter;stroke:rgb(0%,0%,0%);stroke-opacity:1;stroke-miterlimit:4;" d="M 509.999878 377.999666 L 510.500106 391.999845 L 494.500049 407.999902 " transform="matrix(3.779528,0,0,3.779528,0,0)"/>
<path style="fill:none;stroke-width:2;stroke-linecap:butt;stroke-linejoin:miter;stroke:rgb(0%,0%,0%);stroke-opacity:1;stroke-miterlimit:4;" d="M 483.500203 367.500049 L 486.999731 351.499992 L 493.000399 335.499935 L 477.000342 331.500179 L 455.499845 337.499813 L 454.000195 343.50048 L 445.99965 327.500423 L 441.999894 311.500366 L 438.500366 295.500309 L 434.999805 280.00048 L 427.499487 264.000423 L 421.499854 248.000366 L 402.000269 257.999756 " transform="matrix(3.779528,0,0,3.779528,0,0)"/>
<path style="fill:none;stroke-width:2;stroke-linecap:butt;stroke-linejoin:miter;stroke:rgb(0%,0%,0%);stroke-opacity:1;stroke-miterlimit:4;" d="M 407.00048 246.499683 L 400.999813 262.49974 L 404.500374 278.499797 " transform="matrix(3.779528,0,0,3.779528,0,0)"/>
<path style="fill:none;stroke-width:2;stroke-linecap:butt;stroke-linejoin:miter;stroke:rgb(0%,0%,0%);stroke-opacity:1;stroke-miterlimit:4;" d="M 411.999658 273.999813 L 405.499797 257.499528 L 411.500464 241.500505 L 399.500163 245.50026 L 384.000334 250.999666 " transform="matrix(3.779528,0,0,3.779528,0,0)"/>
<path style="fill:none;stroke-width:2;stroke-linecap:butt;stroke-linejoin:miter;stroke:rgb(0%,0%,0%);stroke-opacity:1;stroke-miterlimit:4;" d="M 384.999756 273.999813 L 384.999756 320.999528 " transform="matrix(3.779528,0,0,3.779528,0,0)"/>
<path style="fill:none;stroke-width:2;stroke-linecap:butt;stroke-linejoin:miter;stroke:rgb(0%,0%,0%);stroke-opacity:1;stroke-miterlimit:4;" d="M 370.999577 320.000106 L 377.500472 309.999683 L 375.499561 286.000114 L 355.999976 286.000114 L 359.999731 270.000057 L 377.999666 254 L 397.500285 232.000309 L 413.500342 230.000431 L 409.99978 214.000374 L 402.000269 198.000317 L 396.499829 182.00026 L 395.000179 166.500431 L 402.999691 150.500374 L 418.999748 152.500252 L 403.499919 160.499764 " transform="matrix(3.779528,0,0,3.779528,0,0)"/>
<path style="fill:none;stroke-width:2;stroke-linecap:butt;stroke-linejoin:miter;stroke:rgb(0%,0%,0%);stroke-opacity:1;stroke-miterlimit:4;" d="M 380.499772 167.499854 L 375.999788 183.49991 L 375.999788 227.000098 L 378.499894 242.499927 L 378.499894 260.499862 L 373.99991 276.499919 L 372.000033 292.499976 L 372.000033 324.50009 " transform="matrix(3.779528,0,0,3.779528,0,0)"/>
<path style="fill:none;stroke-width:2;stroke-linecap:butt;stroke-linejoin:miter;stroke:rgb(0%,0%,0%);stroke-opacity:1;stroke-miterlimit:4;" d="M 339.999919 294.499854 L 324.50009 292.499976 L 292.499976 292.499976 " transform="matrix(3.779528,0,0,3.779528,0,0)"/>
<path style="fill:none;stroke-width:2;stroke-linecap:butt;stroke-linejoin:miter;stroke:rgb(0%,0%,0%);stroke-opacity:1;stroke-miterlimit:4;" d="M 316.499544 270.000057 L 332.499601 270.000057 " transform="matrix(3.779528,0,0,3.779528,0,0)"/>
<path style="fill:none;stroke-width:2;stroke-linecap:butt;stroke-linejoin:miter;stroke:rgb(0%,0%,0%);stroke-opacity:1;stroke-miterlimit:4;" d="M 338.500269 289.99987 L 322.500212 286.500342 L 289.99987 286.500342 L 264.000423 282.499552 L 247.500138 282.499552 L 231.500081 282.000358 L 227.500326 302.000171 " transform="matrix(3.779528,0,0,3.779528,0,0)"/>
<path style="fill:none;stroke-width:2;stroke-linecap:butt;stroke-linejoin:miter;stroke:rgb(0%,0%,0%);stroke-opacity:1;stroke-miterlimit:4;" d="M 226.49987 291.49952 L 242.499927 289.499642 L 234.999609 313.500244 L 239.499593 333.500057 L 239.499593 349.500114 " transform="matrix(3.779528,0,0,3.779528,0,0)"/>
<path style="fill:none;stroke-width:2;stroke-linecap:butt;stroke-linejoin:miter;stroke:rgb(0%,0%,0%);stroke-opacity:1;stroke-miterlimit:4;" d="M 234.000187 339.000496 L 239.499593 322.500212 L 241.500505 306.500155 L 243.999577 284.999658 L 227.99952 284.999658 " transform="matrix(3.779528,0,0,3.779528,0,0)"/>
<path style="fill:none;stroke-width:2;stroke-linecap:butt;stroke-linejoin:miter;stroke:rgb(0%,0%,0%);stroke-opacity:1;stroke-miterlimit:4;" d="M 226.49987 273.000391 L 242.499927 271.499707 L 258.499984 273.000391 L 273.999813 276.499919 L 287.999992 280.999902 L 304.000049 280.999902 L 319.499878 279.000024 L 334.999707 280.999902 L 344.499902 289.000448 " transform="matrix(3.779528,0,0,3.779528,0,0)"/>
<path style="fill:none;stroke-width:2;stroke-linecap:butt;stroke-linejoin:miter;stroke:rgb(0%,0%,0%);stroke-opacity:1;stroke-miterlimit:4;" d="M 368.999699 271.999935 L 366.999821 287.999992 L 363.000065 265.500073 " transform="matrix(3.779528,0,0,3.779528,0,0)"/>
<path style="fill:none;stroke-width:2;stroke-linecap:butt;stroke-linejoin:miter;stroke:rgb(0%,0%,0%);stroke-opacity:1;stroke-miterlimit:4;" d="M 416.99987 243.500382 L 433.500155 259.500439 " transform="matrix(3.779528,0,0,3.779528,0,0)"/>
<path style="fill:none;stroke-width:2;stroke-linecap:butt;stroke-linejoin:miter;stroke:rgb(0%,0%,0%);stroke-opacity:1;stroke-miterlimit:4;" d="M 439.499788 247.500138 L 423.999959 237.999943 " transform="matrix(3.779528,0,0,3.779528,0,0)"/>
<path style="fill:none;stroke-width:2;stroke-linecap:butt;stroke-linejoin:miter;stroke:rgb(0%,0%,0%);stroke-opacity:1;stroke-miterlimit:4;" d="M 420.500431 234.500415 L 427.000293 250.500472 L 436.999683 266.999723 L 441.000472 283.500008 L 445.000228 299.500065 " transform="matrix(3.779528,0,0,3.779528,0,0)"/>
<path style="fill:none;stroke-width:2;stroke-linecap:butt;stroke-linejoin:miter;stroke:rgb(0%,0%,0%);stroke-opacity:1;stroke-miterlimit:4;" d="M 450.999862 289.499642 L 450.499634 273.499585 L 446.499878 257.499528 L 456.500301 241.999699 L 470.000252 225.999642 L 450.000439 226.49987 L 434.000382 227.000098 L 417.500098 216.999674 " transform="matrix(3.779528,0,0,3.779528,0,0)"/>
<path style="fill:none;stroke-width:2;stroke-linecap:butt;stroke-linejoin:miter;stroke:rgb(0%,0%,0%);stroke-opacity:1;stroke-miterlimit:4;" d="M 404.500374 190.5 L 420.000203 205.999829 L 436.00026 203.999951 L 452.000317 200.000195 L 468.000374 203.499723 " transform="matrix(3.779528,0,0,3.779528,0,0)"/>
<path style="fill:none;stroke-width:2;stroke-linecap:butt;stroke-linejoin:miter;stroke:rgb(0%,0%,0%);stroke-opacity:1;stroke-miterlimit:4;" d="M 465.500269 182.500488 L 449.500212 170.500187 L 433.500155 168.000081 L 417.500098 171.999837 L 401.500041 184.500366 " transform="matrix(3.779528,0,0,3.779528,0,0)"/>
<path style="fill:none;stroke-width:2;stroke-linecap:butt;stroke-linejoin:miter;stroke:rgb(0%,0%,0%);stroke-opacity:1;stroke-miterlimit:4;" d="M 398.499707 191.000228 L 414.499764 212.499691 L 430.499821 210.499813 L 445.99965 207.999707 L 461.500513 202.000073 " transform="matrix(3.779528,0,0,3.779528,0,0)"/>
<path style="fill:none;stroke-width:2;stroke-linecap:butt;stroke-linejoin:miter;stroke:rgb(0%,0%,0%);stroke-opacity:1;stroke-miterlimit:4;" d="M 477.000342 229.500203 L 461.000285 225.500448 L 445.000228 233.499959 L 429.000171 229.500203 L 408.50013 229.500203 L 404.500374 225.00022 L 388.00009 239.499593 L 368.000277 254 L 352.500448 254 L 336.999585 253.499772 L 303.499821 253.499772 L 286.999536 249.500016 " transform="matrix(3.779528,0,0,3.779528,0,0)"/>
<path style="fill:none;stroke-width:2;stroke-linecap:butt;stroke-linejoin:miter;stroke:rgb(0%,0%,0%);stroke-opacity:1;stroke-miterlimit:4;" d="M 286.999536 250.000244 L 286.999536 281.50013 L 280.999902 300.000293 L 280.999902 316.499544 L 282.99978 332.499601 L 282.99978 348.499658 L 296.499731 354.500326 L 304.500277 358.500081 L 308.500033 354.500326 L 320.999528 340.500146 L 336.999585 342.500024 L 369.499927 342.500024 L 385.499984 340.500146 L 432.999927 340.500146 L 448.999984 338.000041 L 464.499813 327.500423 L 464.499813 331.500179 " transform="matrix(3.779528,0,0,3.779528,0,0)"/>
<path style="fill:none;stroke-width:2;stroke-linecap:butt;stroke-linejoin:miter;stroke:rgb(0%,0%,0%);stroke-opacity:1;stroke-miterlimit:4;" d="M 493.499593 348.000464 L 497.999577 332.000407 " transform="matrix(3.779528,0,0,3.779528,0,0)"/>
<path style="fill:none;stroke-width:2;stroke-linecap:butt;stroke-linejoin:miter;stroke:rgb(0%,0%,0%);stroke-opacity:1;stroke-miterlimit:4;" d="M 500.499683 413.000114 L 484.499626 416.99987 L 468.000374 414.999992 L 452.000317 414.999992 L 435.500033 414.499764 L 419.499976 414.499764 L 402.999691 413.999536 L 386.999634 413.999536 " transform="matrix(3.779528,0,0,3.779528,0,0)"/>
<path style="fill:none;stroke-width:2;stroke-linecap:butt;stroke-linejoin:miter;stroke:rgb(0%,0%,0%);stroke-opacity:1;stroke-miterlimit:4;" d="M 387.499862 413.999536 L 387.499862 429.999593 L 386.000212 445.99965 L 375.999788 461.999707 " transform="matrix(3.779528,0,0,3.779528,0,0)"/>
<path style="fill:none;stroke-width:2;stroke-linecap:butt;stroke-linejoin:miter;stroke:rgb(0%,0%,0%);stroke-opacity:1;stroke-miterlimit:4;" d="M 382.000456 411.000236 L 398.000513 409.000358 L 413.500342 408.50013 L 429.500399 409.000358 L 445.000228 409.499552 L 460.500057 409.499552 L 476.500114 409.99978 L 493.000399 408.50013 " transform="matrix(3.779528,0,0,3.779528,0,0)"/>
<path style="fill:none;stroke-width:2;stroke-linecap:butt;stroke-linejoin:miter;stroke:rgb(0%,0%,0%);stroke-opacity:1;stroke-miterlimit:4;" d="M 479.00022 361.999609 L 420.500431 361.999609 L 404.000146 364.499715 L 402.500496 352.500448 L 386.500439 352.500448 L 370.500382 352.00022 L 354.000098 351.499992 L 321.999984 351.499992 L 318.000228 357.499626 L 311.999561 341.499569 L 305.999927 343.000252 L 290.500098 345.00013 " transform="matrix(3.779528,0,0,3.779528,0,0)"/>
<path style="fill:none;stroke-width:2;stroke-linecap:butt;stroke-linejoin:miter;stroke:rgb(0%,0%,0%);stroke-opacity:1;stroke-miterlimit:4;" d="M 292.499976 339.000496 L 308.500033 341.000374 " transform="matrix(3.779528,0,0,3.779528,0,0)"/>
<path style="fill:none;stroke-width:2;stroke-linecap:butt;stroke-linejoin:miter;stroke:rgb(0%,0%,0%);stroke-opacity:1;stroke-miterlimit:4;" d="M 261.00009 293.999626 L 245.000033 293.999626 " transform="matrix(3.779528,0,0,3.779528,0,0)"/>
<path style="fill:none;stroke-width:2;stroke-linecap:butt;stroke-linejoin:miter;stroke:rgb(0%,0%,0%);stroke-opacity:1;stroke-miterlimit:4;" d="M 208.499935 329.500301 L 224.499992 347.500236 " transform="matrix(3.779528,0,0,3.779528,0,0)"/>
<path style="fill:none;stroke-width:2;stroke-linecap:butt;stroke-linejoin:miter;stroke:rgb(0%,0%,0%);stroke-opacity:1;stroke-miterlimit:4;" d="M 177.500277 314.000472 L 161.50022 311.999561 L 145.500163 305.499699 L 130.000334 305.499699 " transform="matrix(3.779528,0,0,3.779528,0,0)"/>
<path style="fill:none;stroke-width:2;stroke-linecap:butt;stroke-linejoin:miter;stroke:rgb(0%,0%,0%);stroke-opacity:1;stroke-miterlimit:4;" d="M 131.499984 298.999837 L 135.49974 314.999894 L 137.499618 330.999951 L 133.499862 347.500236 " transform="matrix(3.779528,0,0,3.779528,0,0)"/>
<path style="fill:none;stroke-width:2;stroke-linecap:butt;stroke-linejoin:miter;stroke:rgb(0%,0%,0%);stroke-opacity:1;stroke-miterlimit:4;" d="M 165.499976 327.999618 L 151.499797 344.499902 L 119.499683 377.500472 L 98.999642 393.999723 " transform="matrix(3.779528,0,0,3.779528,0,0)"/>
<path style="fill:none;stroke-width:2;stroke-linecap:butt;stroke-linejoin:miter;stroke:rgb(0%,0%,0%);stroke-opacity:1;stroke-miterlimit:4;" d="M 129.500106 429.500399 L 145.500163 437.49991 L 161.50022 443.499544 L 177.500277 441.499666 L 193.999528 427.499487 " transform="matrix(3.779528,0,0,3.779528,0,0)"/>
<path style="fill:none;stroke-width:2;stroke-linecap:butt;stroke-linejoin:miter;stroke:rgb(0%,0%,0%);stroke-opacity:1;stroke-miterlimit:4;" d="M 199.499967 407.00048 L 215.500024 406.500252 L 231.500081 406.500252 L 247.500138 408.50013 L 243.500382 422.500309 L 241.000277 438.500366 L 228.999976 454.500423 L 232.499504 456.999495 L 248.499561 461.500513 L 295.500309 461.500513 L 311.500366 463.000163 L 327.999618 463.000163 L 361.000187 461.999707 L 376.500016 455.499845 " transform="matrix(3.779528,0,0,3.779528,0,0)"/>
<path style="fill:none;stroke-width:2;stroke-linecap:butt;stroke-linejoin:miter;stroke:rgb(0%,0%,0%);stroke-opacity:1;stroke-miterlimit:4;" d="M 375.999788 461.999707 L 360.499959 466.000496 L 264.000423 466.000496 L 248.000366 465.500269 L 232.000309 463.500391 " transform="matrix(3.779528,0,0,3.779528,0,0)"/>
<path style="fill:none;stroke-width:2;stroke-linecap:butt;stroke-linejoin:miter;stroke:rgb(0%,0%,0%);stroke-opacity:1;stroke-miterlimit:4;" d="M 234.500415 450.000439 L 232.499504 458.500179 L 244.499805 441.999894 L 246.499683 425.999837 L 240.500049 411.999658 L 223.999764 411.999658 L 207.999707 409.99978 " transform="matrix(3.779528,0,0,3.779528,0,0)"/>
<path style="fill:none;stroke-width:2;stroke-linecap:butt;stroke-linejoin:miter;stroke:rgb(0%,0%,0%);stroke-opacity:1;stroke-miterlimit:4;" d="M 198.000317 405.499797 L 198.000317 421.499854 L 184.000138 437.49991 " transform="matrix(3.779528,0,0,3.779528,0,0)"/>
<path style="fill:none;stroke-width:2;stroke-linecap:butt;stroke-linejoin:miter;stroke:rgb(0%,0%,0%);stroke-opacity:1;stroke-miterlimit:4;" d="M 192.499878 437.49991 L 204.500179 420.999626 L 200.000195 427.499487 L 184.000138 443.999772 L 168.000081 450.000439 L 152.000024 446.499878 L 135.999967 440.500244 " transform="matrix(3.779528,0,0,3.779528,0,0)"/>
<path style="fill:none;stroke-width:2;stroke-linecap:butt;stroke-linejoin:miter;stroke:rgb(0%,0%,0%);stroke-opacity:1;stroke-miterlimit:4;" d="M 121.000366 437.49991 L 119.000488 453.499967 " transform="matrix(3.779528,0,0,3.779528,0,0)"/>
<path style="fill:none;stroke-width:2;stroke-linecap:butt;stroke-linejoin:miter;stroke:rgb(0%,0%,0%);stroke-opacity:1;stroke-miterlimit:4;" d="M 103.499626 459.999829 L 87.999797 459.999829 L 72.499967 461.999707 L 56.49991 459.499601 L 24.499797 459.499601 L 18.500163 453.499967 L 16.500285 436.999683 L 16.500285 404.999569 L 24.499797 388.999512 L 14.500407 372.50026 L 10.000423 356.500203 L 1.999878 344.499902 " transform="matrix(3.779528,0,0,3.779528,0,0)"/>
<path style="fill:none;stroke-width:2;stroke-linecap:butt;stroke-linejoin:miter;stroke:rgb(0%,0%,0%);stroke-opacity:1;stroke-miterlimit:4;" d="M 3.499528 345.999552 L 5.000212 361.999609 L 7.00009 377.500472 L 8.999967 393.499495 L 8.999967 409.499552 L 10.499618 425.499609 L 10.499618 457.499723 L 2.500106 465.500269 L 19.000391 465.500269 L 35.000448 465.000041 L 51.000505 465.500269 L 83.499813 465.500269 L 100.000098 466.000496 L 116.500382 461.999707 " transform="matrix(3.779528,0,0,3.779528,0,0)"/>
<path style="fill:none;stroke-width:2;stroke-linecap:butt;stroke-linejoin:miter;stroke:rgb(0%,0%,0%);stroke-opacity:1;stroke-miterlimit:4;" d="M 107.500415 441.000472 L 81.499935 456.999495 " transform="matrix(3.779528,0,0,3.779528,0,0)"/>
<path style="fill:none;stroke-width:2;stroke-linecap:butt;stroke-linejoin:miter;stroke:rgb(0%,0%,0%);stroke-opacity:1;stroke-miterlimit:4;" d="M 91.500358 391.499618 L 75.500301 359.499504 L 59.500244 327.500423 L 59.500244 301.499943 L 43.500187 277.999569 " transform="matrix(3.779528,0,0,3.779528,0,0)"/>
<path style="fill:none;stroke-width:2;stroke-linecap:butt;stroke-linejoin:miter;stroke:rgb(0%,0%,0%);stroke-opacity:1;stroke-miterlimit:4;" d="M 41.999504 273.499585 L 57.999561 281.50013 L 73.999618 298.999837 " transform="matrix(3.779528,0,0,3.779528,0,0)"/>
<path style="fill:none;stroke-width:2;stroke-linecap:butt;stroke-linejoin:miter;stroke:rgb(0%,0%,0%);stroke-opacity:1;stroke-miterlimit:4;" d="M 69.999862 309.00026 L 53.999805 284.999658 " transform="matrix(3.779528,0,0,3.779528,0,0)"/>
<path style="fill:none;stroke-width:2;stroke-linecap:butt;stroke-linejoin:miter;stroke:rgb(0%,0%,0%);stroke-opacity:1;stroke-miterlimit:4;" d="M 60.999894 277.500374 L 76.999951 293.500431 L 85.000496 309.500488 L 76.499723 325.499512 L 78.000407 341.000374 L 85.999919 357.000431 L 96.000342 373.000488 " transform="matrix(3.779528,0,0,3.779528,0,0)"/>
<path style="fill:none;stroke-width:2;stroke-linecap:butt;stroke-linejoin:miter;stroke:rgb(0%,0%,0%);stroke-opacity:1;stroke-miterlimit:4;" d="M 93.000008 359.499504 L 76.999951 329.000073 " transform="matrix(3.779528,0,0,3.779528,0,0)"/>
<path style="fill:none;stroke-width:2;stroke-linecap:butt;stroke-linejoin:miter;stroke:rgb(0%,0%,0%);stroke-opacity:1;stroke-miterlimit:4;" d="M 69.999862 334.999707 L 86.500146 360.499959 " transform="matrix(3.779528,0,0,3.779528,0,0)"/>
<path style="fill:none;stroke-width:2;stroke-linecap:butt;stroke-linejoin:miter;stroke:rgb(0%,0%,0%);stroke-opacity:1;stroke-miterlimit:4;" d="M 50.500277 311.000138 L 57.999561 327.500423 L 67.999984 343.50048 L 73.999618 359.999731 L 82.500391 375.999788 L 90.499902 392.500073 L 84.500269 409.000358 L 73.999618 425.000415 " transform="matrix(3.779528,0,0,3.779528,0,0)"/>
<path style="fill:none;stroke-width:2;stroke-linecap:butt;stroke-linejoin:miter;stroke:rgb(0%,0%,0%);stroke-opacity:1;stroke-miterlimit:4;" d="M 68.500212 457.499723 L 52.500155 443.00035 L 36.500098 422.999504 L 20.500041 395.000179 " transform="matrix(3.779528,0,0,3.779528,0,0)"/>
<path style="fill:none;stroke-width:2;stroke-linecap:butt;stroke-linejoin:miter;stroke:rgb(0%,0%,0%);stroke-opacity:1;stroke-miterlimit:4;" d="M 20.500041 396.499829 L 30.500464 412.499886 L 38.499976 427.999715 L 52.500155 443.999772 " transform="matrix(3.779528,0,0,3.779528,0,0)"/>
<path style="fill:none;stroke-width:2;stroke-linecap:butt;stroke-linejoin:miter;stroke:rgb(0%,0%,0%);stroke-opacity:1;stroke-miterlimit:4;" d="M 57.000138 442.500122 L 42.999959 426.500065 L 33.499764 409.99978 L 25.500252 393.999723 " transform="matrix(3.779528,0,0,3.779528,0,0)"/>
<path style="fill:none;stroke-width:2;stroke-linecap:butt;stroke-linejoin:miter;stroke:rgb(0%,0%,0%);stroke-opacity:1;stroke-miterlimit:4;" d="M 14.500407 370.000155 L 30.500464 398.000513 L 46.499487 425.499609 L 62.00035 443.00035 L 78.000407 454.999618 L 93.500236 445.000228 L 109.500293 434.499577 L 125.000122 420.999626 L 141.000179 409.000358 L 157.500464 391.000423 L 173.499487 369.499927 L 191.500456 371.499805 L 223.499536 371.499805 " transform="matrix(3.779528,0,0,3.779528,0,0)"/>
<path style="fill:none;stroke-width:2;stroke-linecap:butt;stroke-linejoin:miter;stroke:rgb(0%,0%,0%);stroke-opacity:1;stroke-miterlimit:4;" d="M 164.000326 307.000382 L 147.500041 300.999715 L 131.499984 291.000326 " transform="matrix(3.779528,0,0,3.779528,0,0)"/>
<path style="fill:none;stroke-width:2;stroke-linecap:butt;stroke-linejoin:miter;stroke:rgb(0%,0%,0%);stroke-opacity:1;stroke-miterlimit:4;" d="M 130.499528 287.499764 L 146.499585 293.999626 L 162.000448 300.000293 " transform="matrix(3.779528,0,0,3.779528,0,0)"/>
<path style="fill:none;stroke-width:2;stroke-linecap:butt;stroke-linejoin:miter;stroke:rgb(0%,0%,0%);stroke-opacity:1;stroke-miterlimit:4;" d="M 137.499618 304.000049 L 149.499919 325.99974 L 153.499674 338.500269 L 137.499618 354.500326 " transform="matrix(3.779528,0,0,3.779528,0,0)"/>
<path style="fill:none;stroke-width:2;stroke-linecap:butt;stroke-linejoin:miter;stroke:rgb(0%,0%,0%);stroke-opacity:1;stroke-miterlimit:4;" d="M 190.5 343.999674 L 174.499943 329.999495 L 158.499886 339.999919 L 142.499829 355.999976 L 126.499772 371.499805 L 110.499715 387.499862 L 94.499658 397.500285 L 84.500269 402.000269 L 70.50009 422.000081 L 80.500513 406.500252 L 84.500269 390.500195 L 75.999495 374.500138 L 67.499756 358.500081 L 59.500244 342.500024 L 51.999927 325.99974 L 46.000293 310.49991 " transform="matrix(3.779528,0,0,3.779528,0,0)"/>
<path style="fill:none;stroke-width:2;stroke-linecap:butt;stroke-linejoin:miter;stroke:rgb(0%,0%,0%);stroke-opacity:1;stroke-miterlimit:4;" d="M 73.999618 289.499642 L 57.999561 273.999813 L 41.999504 266.000301 L 36.500098 252.50035 L 48.999593 239.000399 L 32.999536 257.000334 L 17.000513 250.999666 " transform="matrix(3.779528,0,0,3.779528,0,0)"/>
<path style="fill:none;stroke-width:2;stroke-linecap:butt;stroke-linejoin:miter;stroke:rgb(0%,0%,0%);stroke-opacity:1;stroke-miterlimit:4;" d="M 46.999715 251.499894 L 46.499487 268.000179 L 53.000382 284.000236 L 64.99965 300.000293 L 73.000195 316.00035 L 71.000317 332.000407 L 89.000252 348.499658 L 94.499658 364.499715 L 102.500203 380.499772 " transform="matrix(3.779528,0,0,3.779528,0,0)"/>
<path style="fill:none;stroke-width:2;stroke-linecap:butt;stroke-linejoin:miter;stroke:rgb(0%,0%,0%);stroke-opacity:1;stroke-miterlimit:4;" d="M 91.00013 292.499976 L 76.999951 282.499552 L 61.500122 268.500407 L 46.000293 252.50035 L 30.500464 268.500407 L 14.500407 286.000114 L 5.000212 297.500187 L 17.000513 281.50013 L 32.999536 265.500073 L 44.999837 249.500016 L 48.999593 243.999577 " transform="matrix(3.779528,0,0,3.779528,0,0)"/>
<path style="fill:none;stroke-width:2;stroke-linecap:butt;stroke-linejoin:miter;stroke:rgb(0%,0%,0%);stroke-opacity:1;stroke-miterlimit:4;" d="M 50.000049 248.499561 L 66.000106 266.000301 " transform="matrix(3.779528,0,0,3.779528,0,0)"/>
<path style="fill:none;stroke-width:2;stroke-linecap:butt;stroke-linejoin:miter;stroke:rgb(0%,0%,0%);stroke-opacity:1;stroke-miterlimit:4;" d="M 69.999862 260.499862 L 53.999805 244.499805 " transform="matrix(3.779528,0,0,3.779528,0,0)"/>
<path style="fill:none;stroke-width:2;stroke-linecap:butt;stroke-linejoin:miter;stroke:rgb(0%,0%,0%);stroke-opacity:1;stroke-miterlimit:4;" d="M 53.999805 244.499805 L 67.999984 261.00009 " transform="matrix(3.779528,0,0,3.779528,0,0)"/>
<path style="fill:none;stroke-width:2;stroke-linecap:butt;stroke-linejoin:miter;stroke:rgb(0%,0%,0%);stroke-opacity:1;stroke-miterlimit:4;" d="M 57.999561 264.000423 L 73.999618 280.00048 L 89.50048 295.999504 L 94.999886 311.500366 L 96.499536 327.500423 L 100.500326 343.999674 L 103.999854 359.499504 L 107.999609 375.499561 " transform="matrix(3.779528,0,0,3.779528,0,0)"/>
<path style="fill:none;stroke-width:2;stroke-linecap:butt;stroke-linejoin:miter;stroke:rgb(0%,0%,0%);stroke-opacity:1;stroke-miterlimit:4;" d="M 137.499618 291.49952 L 175.500399 297.500187 L 175.500399 305.499699 L 177.500277 314.000472 L 184.999561 342.500024 L 191.000228 358.500081 L 171.000415 375.000366 L 159.500342 391.000423 L 145.500163 407.00048 L 125.999544 422.500309 L 105.999731 438.500366 L 80.000285 454.500423 L 96.000342 450.499634 L 112.000399 441.999894 L 131.499984 437.49991 L 141.500407 415.50022 L 157.500464 398.999935 L 173.499487 379.000122 L 189.999772 359.000309 L 198.000317 364.999943 L 214.000374 364.999943 L 230.000431 366.999821 " transform="matrix(3.779528,0,0,3.779528,0,0)"/>
<path style="fill:none;stroke-width:2;stroke-linecap:butt;stroke-linejoin:miter;stroke:rgb(0%,0%,0%);stroke-opacity:1;stroke-miterlimit:4;" d="M 198.499512 247.500138 L 198.499512 241.500505 L 182.500488 237.499715 " transform="matrix(3.779528,0,0,3.779528,0,0)"/>
<path style="fill:none;stroke-width:2;stroke-linecap:butt;stroke-linejoin:miter;stroke:rgb(0%,0%,0%);stroke-opacity:1;stroke-miterlimit:4;" d="M 203.499723 239.499593 L 203.499723 207.000285 " transform="matrix(3.779528,0,0,3.779528,0,0)"/>
<path style="fill:none;stroke-width:2;stroke-linecap:butt;stroke-linejoin:miter;stroke:rgb(0%,0%,0%);stroke-opacity:1;stroke-miterlimit:4;" d="M 212.000496 191.99965 L 218.00013 188.500122 L 214.000374 204.500179 L 212.000496 220.500236 L 212.000496 252.000122 L 210.499813 267.499951 L 212.499691 283.500008 L 222.500114 289.499642 L 222.500114 305.499699 L 223.000342 321.499756 L 221.000464 337.499813 L 238.500171 353.49987 L 238.500171 359.499504 L 254.500228 366.000399 L 270.000057 368.000277 L 286.000114 366.000399 L 301.499943 366.499593 L 332.999829 366.499593 L 346.49978 366.000399 L 363.000065 366.000399 L 378.499894 368.000277 L 395.000179 368.000277 L 411.000236 370.000155 L 427.499487 370.000155 L 447.500334 375.999788 L 463.500391 377.999666 L 479.500448 372.000033 " transform="matrix(3.779528,0,0,3.779528,0,0)"/>
<path style="fill:none;stroke-width:2;stroke-linecap:butt;stroke-linejoin:miter;stroke:rgb(0%,0%,0%);stroke-opacity:1;stroke-miterlimit:4;" d="M 384.000334 409.000358 L 382.000456 425.000415 L 382.000456 441.499666 L 371.499805 457.499723 " transform="matrix(3.779528,0,0,3.779528,0,0)"/>
<path style="fill:none;stroke-width:2;stroke-linecap:butt;stroke-linejoin:miter;stroke:rgb(0%,0%,0%);stroke-opacity:1;stroke-miterlimit:4;" d="M 356.500203 212.499691 L 340.500146 212.000496 L 324.50009 211.500269 L 306.500155 211.000041 L 289.99987 210.499813 " transform="matrix(3.779528,0,0,3.779528,0,0)"/>
<path style="fill:none;stroke-width:2;stroke-linecap:butt;stroke-linejoin:miter;stroke:rgb(0%,0%,0%);stroke-opacity:1;stroke-miterlimit:4;" d="M 292.499976 205.499601 L 309.00026 199.499967 L 325.000317 197.50009 L 341.000374 197.50009 " transform="matrix(3.779528,0,0,3.779528,0,0)"/>
<path style="fill:none;stroke-width:2;stroke-linecap:butt;stroke-linejoin:miter;stroke:rgb(0%,0%,0%);stroke-opacity:1;stroke-miterlimit:4;" d="M 357.999854 167.499854 L 341.999797 167.499854 L 325.99974 168.000081 L 292.499976 168.000081 " transform="matrix(3.779528,0,0,3.779528,0,0)"/>
<path style="fill:none;stroke-width:2;stroke-linecap:butt;stroke-linejoin:miter;stroke:rgb(0%,0%,0%);stroke-opacity:1;stroke-miterlimit:4;" d="M 289.99987 178.000505 L 305.999927 171.999837 L 306.500155 178.000505 L 310.49991 186.000016 L 313.000016 193.500334 L 328.499845 191.500456 L 344.499902 189.499544 L 348.499658 193.500334 " transform="matrix(3.779528,0,0,3.779528,0,0)"/>
<path style="fill:none;stroke-width:2;stroke-linecap:butt;stroke-linejoin:miter;stroke:rgb(0%,0%,0%);stroke-opacity:1;stroke-miterlimit:4;" d="M 357.499626 202.500301 L 341.999797 202.000073 L 324.50009 202.000073 L 309.00026 189.999772 L 307.000382 183.49991 L 291.49952 184.999561 " transform="matrix(3.779528,0,0,3.779528,0,0)"/>
<path style="fill:none;stroke-width:2;stroke-linecap:butt;stroke-linejoin:miter;stroke:rgb(0%,0%,0%);stroke-opacity:1;stroke-miterlimit:4;" d="M 244.499805 166.000203 L 228.499748 168.500309 L 212.999919 170.500187 " transform="matrix(3.779528,0,0,3.779528,0,0)"/>
<path style="fill:none;stroke-width:2;stroke-linecap:butt;stroke-linejoin:miter;stroke:rgb(0%,0%,0%);stroke-opacity:1;stroke-miterlimit:4;" d="M 209.999585 166.999626 L 225.999642 162.499642 L 242.499927 162.000448 L 258.499984 164.000326 " transform="matrix(3.779528,0,0,3.779528,0,0)"/>
<path style="fill:none;stroke-width:2;stroke-linecap:butt;stroke-linejoin:miter;stroke:rgb(0%,0%,0%);stroke-opacity:1;stroke-miterlimit:4;" d="M 241.500505 144.499707 L 269.499829 160.499764 L 279.500252 176.499821 L 279.500252 223.999764 L 280.00048 239.999821 L 280.00048 255.999878 L 280.499674 271.999935 L 280.499674 287.999992 L 277.000146 303.499821 L 277.000146 335.499935 L 276.499919 351.499992 " transform="matrix(3.779528,0,0,3.779528,0,0)"/>
<path style="fill:none;stroke-width:2;stroke-linecap:butt;stroke-linejoin:miter;stroke:rgb(0%,0%,0%);stroke-opacity:1;stroke-miterlimit:4;" d="M 212.000496 305.499699 L 196.000439 293.500431 L 175.500399 291.49952 L 159.500342 293.500431 L 143.500285 287.499764 L 127.500228 279.500252 " transform="matrix(3.779528,0,0,3.779528,0,0)"/>
<path style="fill:none;stroke-width:2;stroke-linecap:butt;stroke-linejoin:miter;stroke:rgb(0%,0%,0%);stroke-opacity:1;stroke-miterlimit:4;" d="M 130.000334 287.499764 L 152.000024 303.499821 L 171.999837 323.000439 L 191.99965 339.000496 L 202.000073 354.99952 L 178.000505 373.000488 L 166.000203 388.999512 L 153.999902 404.999569 L 133.499862 421.499854 L 115.499927 437.49991 L 153.00048 447.500334 " transform="matrix(3.779528,0,0,3.779528,0,0)"/>
<path style="fill:none;stroke-width:2;stroke-linecap:butt;stroke-linejoin:miter;stroke:rgb(0%,0%,0%);stroke-opacity:1;stroke-miterlimit:4;" d="M 195.500212 273.999813 L 179.500155 280.00048 L 164.000326 280.499674 L 148.000269 276.499919 L 132.000212 270.000057 L 116.000155 253.499772 " transform="matrix(3.779528,0,0,3.779528,0,0)"/>
<path style="fill:none;stroke-width:2;stroke-linecap:butt;stroke-linejoin:miter;stroke:rgb(0%,0%,0%);stroke-opacity:1;stroke-miterlimit:4;" d="M 103.000431 266.499495 L 109.000065 282.000358 L 114.999699 298.000415 L 116.999577 313.500244 L 110.499715 329.500301 " transform="matrix(3.779528,0,0,3.779528,0,0)"/>
<path style="fill:none;stroke-width:2;stroke-linecap:butt;stroke-linejoin:miter;stroke:rgb(0%,0%,0%);stroke-opacity:1;stroke-miterlimit:4;" d="M 95.500114 266.999723 L 87.499569 252.999544 L 75.999495 234.999609 L 60.000472 228.499748 " transform="matrix(3.779528,0,0,3.779528,0,0)"/>
<path style="fill:none;stroke-width:2;stroke-linecap:butt;stroke-linejoin:miter;stroke:rgb(0%,0%,0%);stroke-opacity:1;stroke-miterlimit:4;" d="M 60.499666 237.499715 L 76.499723 249.500016 " transform="matrix(3.779528,0,0,3.779528,0,0)"/>
<path style="fill:none;stroke-width:2;stroke-linecap:butt;stroke-linejoin:miter;stroke:rgb(0%,0%,0%);stroke-opacity:1;stroke-miterlimit:4;" d="M 85.999919 239.499593 L 101.499748 247.500138 L 113.500049 261.00009 L 127.500228 273.000391 L 143.000057 279.000024 L 159.500342 282.99978 L 175.999593 284.999658 L 187.999894 289.000448 L 204.500179 280.999902 " transform="matrix(3.779528,0,0,3.779528,0,0)"/>
<path style="fill:none;stroke-width:2;stroke-linecap:butt;stroke-linejoin:miter;stroke:rgb(0%,0%,0%);stroke-opacity:1;stroke-miterlimit:4;" d="M 200.000195 277.999569 L 184.500366 282.499552 L 200.500423 260.499862 L 187.999894 240.500049 L 186.000016 224.499992 L 185.499788 208.499935 L 185.499788 192.499878 L 186.000016 176.499821 L 172.500065 168.000081 L 156.500008 165.499976 L 140.499951 163.500098 L 124.499894 163.500098 L 108.499837 151.499797 L 93.000008 150.000146 L 76.999951 150.500374 L 75.000073 158.499886 L 59.500244 168.500309 L 45.500065 164.49952 L 29.500008 180.499577 L 23.000146 190.5 L 21.000269 184.500366 L 21.000269 192.499878 " transform="matrix(3.779528,0,0,3.779528,0,0)"/>
<path style="fill:none;stroke-width:2;stroke-linecap:butt;stroke-linejoin:miter;stroke:rgb(0%,0%,0%);stroke-opacity:1;stroke-miterlimit:4;" d="M 33.999992 193.000106 L 44.000415 177.000049 L 34.50022 193.000106 L 34.50022 208.499935 " transform="matrix(3.779528,0,0,3.779528,0,0)"/>
<path style="fill:none;stroke-width:2;stroke-linecap:butt;stroke-linejoin:miter;stroke:rgb(0%,0%,0%);stroke-opacity:1;stroke-miterlimit:4;" d="M 44.499609 180.999805 L 52.500155 180.499577 L 46.999715 196.499634 L 59.500244 216.50048 L 75.500301 206.500057 L 91.500358 190.5 L 107.999609 186.500244 L 123.999666 190.5 " transform="matrix(3.779528,0,0,3.779528,0,0)"/>
<path style="fill:none;stroke-width:2;stroke-linecap:butt;stroke-linejoin:miter;stroke:rgb(0%,0%,0%);stroke-opacity:1;stroke-miterlimit:4;" d="M 111.500171 176.499821 L 95.500114 168.999504 " transform="matrix(3.779528,0,0,3.779528,0,0)"/>
<path style="fill:none;stroke-width:2;stroke-linecap:butt;stroke-linejoin:miter;stroke:rgb(0%,0%,0%);stroke-opacity:1;stroke-miterlimit:4;" d="M 94.000464 164.000326 L 103.999854 166.000203 " transform="matrix(3.779528,0,0,3.779528,0,0)"/>
<path style="fill:none;stroke-width:2;stroke-linecap:butt;stroke-linejoin:miter;stroke:rgb(0%,0%,0%);stroke-opacity:1;stroke-miterlimit:4;" d="M 93.000008 164.000326 L 109.000065 168.000081 L 125.50035 175.500399 L 149.499919 169.999959 L 165.499976 171.999837 L 181.500033 178.000505 " transform="matrix(3.779528,0,0,3.779528,0,0)"/>
<path style="fill:none;stroke-width:2;stroke-linecap:butt;stroke-linejoin:miter;stroke:rgb(0%,0%,0%);stroke-opacity:1;stroke-miterlimit:4;" d="M 178.499699 170.500187 L 182.500488 186.500244 L 182.500488 202.500301 L 180.499577 218.500358 L 180.499577 234.500415 L 206.500057 246.499683 L 207.000285 262.49974 L 198.499512 277.999569 L 200.500423 287.999992 L 204.500179 295.500309 L 200.500423 311.000138 L 200.000195 327.500423 L 212.000496 343.50048 L 230.000431 359.999731 " transform="matrix(3.779528,0,0,3.779528,0,0)"/>
<path style="fill:none;stroke-width:2;stroke-linecap:butt;stroke-linejoin:miter;stroke:rgb(0%,0%,0%);stroke-opacity:1;stroke-miterlimit:4;" d="M 269.499829 271.999935 L 254 268.000179 L 237.999943 268.000179 L 220.000008 263.500195 L 220.000008 247.500138 L 220.500236 231.500081 L 220.500236 214.999797 " transform="matrix(3.779528,0,0,3.779528,0,0)"/>
<path style="fill:none;stroke-width:2;stroke-linecap:butt;stroke-linejoin:miter;stroke:rgb(0%,0%,0%);stroke-opacity:1;stroke-miterlimit:4;" d="M 224.499992 191.500456 L 224.499992 207.500513 L 223.499536 223.499536 L 223.999764 239.499593 L 223.999764 255.49965 L 216.000252 273.999813 L 225.999642 282.000358 L 228.499748 303.499821 L 226.49987 319.499878 L 225.999642 334.999707 " transform="matrix(3.779528,0,0,3.779528,0,0)"/>
<path style="fill:none;stroke-width:2;stroke-linecap:butt;stroke-linejoin:miter;stroke:rgb(0%,0%,0%);stroke-opacity:1;stroke-miterlimit:4;" d="M 244.499805 364.499715 L 222.500114 348.499658 L 208.499935 332.000407 L 204.500179 316.00035 L 211.000041 300.000293 L 216.999674 284.000236 L 216.50048 270.000057 L 216.50048 253.499772 L 215.500024 221.499658 L 216.999674 205.499601 L 223.000342 189.999772 " transform="matrix(3.779528,0,0,3.779528,0,0)"/>
<path style="fill:none;stroke-width:2;stroke-linecap:butt;stroke-linejoin:miter;stroke:rgb(0%,0%,0%);stroke-opacity:1;stroke-miterlimit:4;" d="M 216.50048 149.499919 L 232.499504 148.000269 L 248.000366 152.000024 L 263.500195 161.50022 L 289.499642 161.50022 L 305.999927 163.500098 L 321.999984 161.50022 L 354.000098 161.50022 L 370.000155 163.500098 L 398.000513 153.499674 L 413.999536 141.500407 L 429.999593 137.499618 L 445.99965 141.500407 L 461.999707 153.499674 L 477.999764 166.000203 L 493.999821 167.499854 " transform="matrix(3.779528,0,0,3.779528,0,0)"/>
<path style="fill:none;stroke-width:2;stroke-linecap:butt;stroke-linejoin:miter;stroke:rgb(0%,0%,0%);stroke-opacity:1;stroke-miterlimit:4;" d="M 495.999699 175.000171 L 495.999699 191.000228 L 495.500505 207.000285 L 499.50026 223.000342 " transform="matrix(3.779528,0,0,3.779528,0,0)"/>
<path style="fill:none;stroke-width:2;stroke-linecap:butt;stroke-linejoin:miter;stroke:rgb(0%,0%,0%);stroke-opacity:1;stroke-miterlimit:4;" d="M 495.500505 237.499715 L 495.500505 253.499772 L 490.000065 269.499829 L 481.99952 285.499886 L 474.000008 309.500488 L 484.000431 333.500057 L 479.999642 349.500114 " transform="matrix(3.779528,0,0,3.779528,0,0)"/>
<path style="fill:none;stroke-width:2;stroke-linecap:butt;stroke-linejoin:miter;stroke:rgb(0%,0%,0%);stroke-opacity:1;stroke-miterlimit:4;" d="M 368.000277 202.500301 L 357.999854 206.500057 L 325.99974 206.500057 L 309.999683 208.499935 L 289.99987 205.999829 L 286.500342 189.999772 L 286.500342 173.999715 L 276.499919 166.000203 L 259.999634 152.000024 L 243.999577 144.000513 L 228.499748 144.499707 L 212.999919 146.499585 L 196.999862 148.000269 L 180.999805 146.000391 L 164.49952 146.000391 L 148.500496 145.500163 L 132.000212 146.000391 L 116.000155 148.000269 " transform="matrix(3.779528,0,0,3.779528,0,0)"/>
<path style="fill:none;stroke-width:2;stroke-linecap:butt;stroke-linejoin:miter;stroke:rgb(0%,0%,0%);stroke-opacity:1;stroke-miterlimit:4;" d="M 109.500293 116.500382 L 125.50035 116.500382 L 141.500407 119.000488 L 157.500464 116.999577 L 173.000293 119.000488 L 188.500122 118.50026 L 204.500179 119.000488 L 220.500236 118.50026 L 236.500293 118.50026 L 252.50035 119.000488 L 284.500464 119.000488 L 300.000293 119.499683 L 316.00035 119.000488 L 332.000407 119.000488 L 348.000464 118.50026 L 363.999487 118.50026 L 380.499772 118.000033 L 396.499829 118.000033 L 412.499886 119.499683 L 445.000228 119.499683 L 461.000285 118.000033 L 477.000342 118.000033 L 493.000399 118.50026 " transform="matrix(3.779528,0,0,3.779528,0,0)"/>
<path style="fill:none;stroke-width:2;stroke-linecap:butt;stroke-linejoin:miter;stroke:rgb(0%,0%,0%);stroke-opacity:1;stroke-miterlimit:4;" d="M 479.500448 113.500049 L 475.499658 97.499992 " transform="matrix(3.779528,0,0,3.779528,0,0)"/>
<path style="fill:none;stroke-width:2;stroke-linecap:butt;stroke-linejoin:miter;stroke:rgb(0%,0%,0%);stroke-opacity:1;stroke-miterlimit:4;" d="M 450.499634 109.500293 L 458.500179 93.500236 L 456.500301 99.49987 L 438.500366 113.500049 L 374.500138 113.500049 L 342.500024 114.500505 L 246.499683 114.500505 L 230.499626 112.999821 L 214.999797 112.499593 L 198.499512 112.499593 L 182.500488 112.000399 L 166.500431 112.499593 L 150.500374 112.000399 L 134.00009 112.000399 L 118.000033 109.999487 L 101.999976 112.000399 " transform="matrix(3.779528,0,0,3.779528,0,0)"/>
<path style="fill:none;stroke-width:2;stroke-linecap:butt;stroke-linejoin:miter;stroke:rgb(0%,0%,0%);stroke-opacity:1;stroke-miterlimit:4;" d="M 105.000309 110.499715 L 103.000431 126.499772 L 100.99952 141.999601 " transform="matrix(3.779528,0,0,3.779528,0,0)"/>
<path style="fill:none;stroke-width:2;stroke-linecap:butt;stroke-linejoin:miter;stroke:rgb(0%,0%,0%);stroke-opacity:1;stroke-miterlimit:4;" d="M 105.499504 132.000212 L 107.999609 116.000155 " transform="matrix(3.779528,0,0,3.779528,0,0)"/>
<path style="fill:none;stroke-width:2;stroke-linecap:butt;stroke-linejoin:miter;stroke:rgb(0%,0%,0%);stroke-opacity:1;stroke-miterlimit:4;" d="M 101.999976 94.499658 L 89.50048 109.999487 L 89.50048 125.50035 L 91.500358 141.500407 L 105.999731 157.999658 L 116.000155 159.999536 L 125.999544 175.999593 L 132.000212 178.000505 L 134.500317 186.000016 L 130.499528 201.499845 L 127 217.499902 L 123.000244 233.499959 L 114.500505 250.000244 L 120.500138 266.000301 L 128.49965 282.000358 " transform="matrix(3.779528,0,0,3.779528,0,0)"/>
<path style="fill:none;stroke-width:2;stroke-linecap:butt;stroke-linejoin:miter;stroke:rgb(0%,0%,0%);stroke-opacity:1;stroke-miterlimit:4;" d="M 105.499504 223.999764 L 89.50048 220.000008 L 73.500423 214.000374 " transform="matrix(3.779528,0,0,3.779528,0,0)"/>
<path style="fill:none;stroke-width:2;stroke-linecap:butt;stroke-linejoin:miter;stroke:rgb(0%,0%,0%);stroke-opacity:1;stroke-miterlimit:4;" d="M 69.499634 218.500358 L 85.499691 224.499992 L 117.499805 232.499504 L 127.500228 221.999886 " transform="matrix(3.779528,0,0,3.779528,0,0)"/>
<path style="fill:none;stroke-width:2;stroke-linecap:butt;stroke-linejoin:miter;stroke:rgb(0%,0%,0%);stroke-opacity:1;stroke-miterlimit:4;" d="M 91.999552 221.499658 L 73.500423 207.500513 L 99.49987 191.500456 " transform="matrix(3.779528,0,0,3.779528,0,0)"/>
<path style="fill:none;stroke-width:2;stroke-linecap:butt;stroke-linejoin:miter;stroke:rgb(0%,0%,0%);stroke-opacity:1;stroke-miterlimit:4;" d="M 101.499748 186.500244 L 69.499634 202.500301 L 59.500244 218.500358 L 61.500122 224.499992 L 73.500423 237.999943 L 87.999797 252.000122 L 95.500114 268.000179 L 101.499748 284.000236 L 107.500415 300.000293 L 109.500293 316.00035 L 115.499927 334.000285 L 113.500049 350.000342 L 109.000065 366.499593 L 107.000187 364.499715 " transform="matrix(3.779528,0,0,3.779528,0,0)"/>
<path style="fill:none;stroke-width:2;stroke-linecap:butt;stroke-linejoin:miter;stroke:rgb(0%,0%,0%);stroke-opacity:1;stroke-miterlimit:4;" d="M 71.000317 325.99974 L 75.500301 300.000293 L 61.500122 284.000236 L 51.499699 268.000179 " transform="matrix(3.779528,0,0,3.779528,0,0)"/>
<path style="fill:none;stroke-width:2;stroke-linecap:butt;stroke-linejoin:miter;stroke:rgb(0%,0%,0%);stroke-opacity:1;stroke-miterlimit:4;" d="M 44.999837 263.500195 L 44.999837 279.500252 L 54.500033 295.999504 L 64.500456 311.999561 L 62.499544 316.00035 L 54.500033 307.999805 L 64.000228 345.999552 L 80.000285 380.499772 " transform="matrix(3.779528,0,0,3.779528,0,0)"/>
<path style="fill:none;stroke-width:2;stroke-linecap:butt;stroke-linejoin:miter;stroke:rgb(0%,0%,0%);stroke-opacity:1;stroke-miterlimit:4;" d="M 66.000106 266.499495 L 50.000049 250.500472 " transform="matrix(3.779528,0,0,3.779528,0,0)"/>
<path style="fill:none;stroke-width:2;stroke-linecap:butt;stroke-linejoin:miter;stroke:rgb(0%,0%,0%);stroke-opacity:1;stroke-miterlimit:4;" d="M 51.000505 181.500033 L 67.499756 180.000382 " transform="matrix(3.779528,0,0,3.779528,0,0)"/>
<path style="fill:none;stroke-width:2;stroke-linecap:butt;stroke-linejoin:miter;stroke:rgb(0%,0%,0%);stroke-opacity:1;stroke-miterlimit:4;" d="M 73.500423 161.50022 L 69.499634 175.500399 L 66.000106 161.50022 L 62.00035 148.999691 L 84.500269 133.499862 L 80.500513 117.499805 L 64.500456 116.000155 L 48.500399 124.499894 " transform="matrix(3.779528,0,0,3.779528,0,0)"/>
<path style="fill:none;stroke-width:2;stroke-linecap:butt;stroke-linejoin:miter;stroke:rgb(0%,0%,0%);stroke-opacity:1;stroke-miterlimit:4;" d="M 64.500456 107.000187 L 44.499609 122.500016 L 48.500399 126.499772 L 46.499487 134.500317 L 46.499487 150.500374 L 52.500155 158.499886 L 41.000081 170.500187 L 30.999658 186.500244 L 29.500008 202.000073 L 30.999658 218.00013 L 44.999837 234.500415 L 66.999528 243.999577 L 89.000252 259.999634 L 85.000496 275.500496 L 96.499536 299.500065 L 100.000098 315.500122 L 103.999854 331.500179 " transform="matrix(3.779528,0,0,3.779528,0,0)"/>
<path style="fill:none;stroke-width:2;stroke-linecap:butt;stroke-linejoin:miter;stroke:rgb(0%,0%,0%);stroke-opacity:1;stroke-miterlimit:4;" d="M 32.999536 162.499642 L 17.499707 166.500431 " transform="matrix(3.779528,0,0,3.779528,0,0)"/>
<path style="fill:none;stroke-width:2;stroke-linecap:butt;stroke-linejoin:miter;stroke:rgb(0%,0%,0%);stroke-opacity:1;stroke-miterlimit:4;" d="M 17.499707 164.49952 L 11.500073 180.499577 L 12.999723 196.499634 L 12.999723 212.499691 L 12.499495 227.99952 L 12.499495 243.999577 L 18.500163 259.500439 L 19.000391 267.499951 " transform="matrix(3.779528,0,0,3.779528,0,0)"/>
<path style="fill:none;stroke-width:2;stroke-linecap:butt;stroke-linejoin:miter;stroke:rgb(0%,0%,0%);stroke-opacity:1;stroke-miterlimit:4;" d="M 7.999512 169.999959 L 23.999569 156.500008 L 39.999626 150.000146 L 55.500488 153.999902 L 71.499512 145.500163 " transform="matrix(3.779528,0,0,3.779528,0,0)"/>
<path style="fill:none;stroke-width:2;stroke-linecap:butt;stroke-linejoin:miter;stroke:rgb(0%,0%,0%);stroke-opacity:1;stroke-miterlimit:4;" d="M 82.500391 105.499504 L 66.500334 105.499504 L 50.000049 115.499927 L 33.499764 134.00009 L 17.499707 123.999666 L 1.49965 114.000277 " transform="matrix(3.779528,0,0,3.779528,0,0)"/>
<path style="fill:none;stroke-width:2;stroke-linecap:butt;stroke-linejoin:miter;stroke:rgb(0%,0%,0%);stroke-opacity:1;stroke-miterlimit:4;" d="M 22.499919 156.500008 L 7.00009 172.500065 L 7.00009 233.499959 L 8.999967 249.500016 L 17.000513 264.999845 L 9.500195 280.999902 L 5.500439 286.999536 " transform="matrix(3.779528,0,0,3.779528,0,0)"/>
<path style="fill:none;stroke-width:2;stroke-linecap:butt;stroke-linejoin:miter;stroke:rgb(0%,0%,0%);stroke-opacity:1;stroke-miterlimit:4;" d="M 101.999976 87.499569 L 64.000228 99.49987 L 41.999504 116.000155 L 48.000171 132.000212 L 64.000228 121.499561 L 80.500513 125.50035 L 98.00022 97.499992 L 114.000277 93.500236 L 162.99987 93.500236 L 178.499699 94.000464 L 211.000041 94.000464 L 227.000098 96.000342 L 243.000155 94.000464 L 259.000212 96.499536 L 290.500098 96.499536 L 306.500155 96.999764 L 338.500269 96.999764 L 354.500326 94.999886 L 370.500382 95.500114 L 386.999634 94.999886 L 402.999691 94.999886 L 418.999748 96.999764 L 450.999862 96.999764 " transform="matrix(3.779528,0,0,3.779528,0,0)"/>
<path style="fill:none;stroke-width:2;stroke-linecap:butt;stroke-linejoin:miter;stroke:rgb(0%,0%,0%);stroke-opacity:1;stroke-miterlimit:4;" d="M 470.000252 60.999894 L 490.000065 77.500179 L 495.999699 101.499748 L 491.999943 105.499504 L 508 103.499626 " transform="matrix(3.779528,0,0,3.779528,0,0)"/>
<path style="fill:none;stroke-width:2;stroke-linecap:butt;stroke-linejoin:miter;stroke:rgb(0%,0%,0%);stroke-opacity:1;stroke-miterlimit:4;" d="M 491.999943 78.499601 L 475.999886 64.000228 L 459.999829 60.000472 L 443.999772 59.500244 L 427.999715 59.500244 L 411.999658 60.000472 L 395.500407 59.500244 L 379.50035 61.500122 L 363.500293 71.499512 L 359.999731 77.500179 L 379.999544 61.500122 " transform="matrix(3.779528,0,0,3.779528,0,0)"/>
<path style="fill:none;stroke-width:2;stroke-linecap:butt;stroke-linejoin:miter;stroke:rgb(0%,0%,0%);stroke-opacity:1;stroke-miterlimit:4;" d="M 373.000488 57.999561 L 355.499748 73.999618 L 357.000431 81.499935 L 373.499683 89.50048 L 422.000081 89.50048 L 438.500366 89.999674 L 454.500423 89.999674 L 470.999674 90.499902 L 486.999731 90.499902 L 493.000399 96.499536 L 509.000456 100.500326 " transform="matrix(3.779528,0,0,3.779528,0,0)"/>
<path style="fill:none;stroke-width:2;stroke-linecap:butt;stroke-linejoin:miter;stroke:rgb(0%,0%,0%);stroke-opacity:1;stroke-miterlimit:4;" d="M 506.999544 118.50026 L 482.499748 114.500505 L 481.99952 100.500326 L 466.000496 114.500505 L 461.999707 110.499715 L 459.999829 94.499658 L 456.000073 109.999487 L 471.499902 97.499992 L 497.500382 87.000374 L 493.499593 71.000317 L 467.500146 55.00026 " transform="matrix(3.779528,0,0,3.779528,0,0)"/>
<path style="fill:none;stroke-width:2;stroke-linecap:butt;stroke-linejoin:miter;stroke:rgb(0%,0%,0%);stroke-opacity:1;stroke-miterlimit:4;" d="M 499.50026 94.499658 L 493.499593 72.499967 L 477.499536 59.000016 L 461.999707 55.00026 L 445.99965 54.500033 L 429.999593 54.500033 L 413.999536 53.999805 L 398.000513 53.999805 L 382.000456 55.500488 L 366.000399 61.500122 L 352.00022 85.000496 L 335.499935 89.50048 L 323.499634 85.499691 L 330.999951 69.499634 L 348.999886 53.499577 " transform="matrix(3.779528,0,0,3.779528,0,0)"/>
<path style="fill:none;stroke-width:2;stroke-linecap:butt;stroke-linejoin:miter;stroke:rgb(0%,0%,0%);stroke-opacity:1;stroke-miterlimit:4;" d="M 381 170.500187 L 380.499772 186.500244 L 382.49965 202.000073 L 382.49965 218.00013 L 382.000456 234.500415 L 384.000334 258.499984 L 377.999666 273.999813 L 379.999544 289.499642 " transform="matrix(3.779528,0,0,3.779528,0,0)"/>
<path style="fill:none;stroke-width:2;stroke-linecap:butt;stroke-linejoin:miter;stroke:rgb(0%,0%,0%);stroke-opacity:1;stroke-miterlimit:4;" d="M 357.999854 259.000212 L 341.999797 259.000212 L 329.999495 261.00009 L 314.000472 264.999845 L 309.999683 275.500496 L 302.000171 259.500439 L 300.000293 263.500195 L 273.999813 273.499585 L 275.999691 257.499528 L 275.500496 241.000277 L 275.000269 225.00022 L 275.000269 193.500334 L 273.000391 178.000505 L 262.999967 162.499642 L 232.999731 146.499585 " transform="matrix(3.779528,0,0,3.779528,0,0)"/>
</g>
</svg>
