<?xml version="1.0" encoding="UTF-8"?>
<svg xmlns="http://www.w3.org/2000/svg" xmlns:xlink="http://www.w3.org/1999/xlink" width="1935.11811" height="1935.11811" viewBox="0 0 1935.11811 1935.11811" version="1.1">
<g id="surface1">
<path style="fill:none;stroke-width:2;stroke-linecap:butt;stroke-linejoin:miter;stroke:rgb(0%,0%,0%);stroke-opacity:1;stroke-miterlimit:4;" d="M 91.500358 68.500212 L 77.500179 84.500269 L 77.500179 180.999805 L 76.999951 196.999862 L 76.999951 212.499691 L 76.499723 228.499748 L 76.999951 244.499805 L 76.999951 276.499919 L 77.500179 291.999748 L 77.500179 370.500382 L 78.000407 386.500439 L 78.000407 402.500496 L 78.499601 418.49952 L 80.500513 434.999805 L 86.500146 443.00035 L 118.50026 443.00035 L 134.500317 443.499544 L 182.500488 443.499544 L 198.499512 443.999772 L 214.000374 443.999772 L 229.500203 445.99965 L 245.50026 445.99965 L 261.00009 443.999772 L 357.000431 443.999772 L 373.499683 444.5 L 389.49974 444.5 L 406.000024 445.000228 L 422.000081 445.000228 " transform="matrix(3.779528,0,0,3.779528,0,0)"/>
<path style="fill:none;stroke-width:2;stroke-linecap:butt;stroke-linejoin:miter;stroke:rgb(0%,0%,0%);stroke-opacity:1;stroke-miterlimit:4;" d="M 341.000374 294.499854 L 325.000317 266.499495 " transform="matrix(3.779528,0,0,3.779528,0,0)"/>
<path style="fill:none;stroke-width:2;stroke-linecap:butt;stroke-linejoin:miter;stroke:rgb(0%,0%,0%);stroke-opacity:1;stroke-miterlimit:4;" d="M 309.999683 254.500228 L 325.99974 282.99978 L 329.500301 320.999528 L 327.500423 336.500391 L 335.499935 344.499902 " transform="matrix(3.779528,0,0,3.779528,0,0)"/>
<path style="fill:none;stroke-width:2;stroke-linecap:butt;stroke-linejoin:miter;stroke:rgb(0%,0%,0%);stroke-opacity:1;stroke-miterlimit:4;" d="M 343.000252 286.500342 L 332.999829 270.500285 L 316.999772 258.499984 L 300.499487 236.500293 " transform="matrix(3.779528,0,0,3.779528,0,0)"/>
<path style="fill:none;stroke-width:2;stroke-linecap:butt;stroke-linejoin:miter;stroke:rgb(0%,0%,0%);stroke-opacity:1;stroke-miterlimit:4;" d="M 314.499666 246.99991 L 320.500334 262.49974 L 328.499845 278.499797 L 338.500269 294.499854 L 354.500326 310.49991 L 356.500203 326.499967 L 352.999642 342.500024 L 347.000008 358.500081 L 337.499813 373.99991 L 323.000439 389.999967 L 293.000203 406.500252 " transform="matrix(3.779528,0,0,3.779528,0,0)"/>
<path style="fill:none;stroke-width:2;stroke-linecap:butt;stroke-linejoin:miter;stroke:rgb(0%,0%,0%);stroke-opacity:1;stroke-miterlimit:4;" d="M 304.000049 382.49965 L 321.999984 366.499593 L 329.500301 359.000309 L 327.500423 354.500326 L 333.500057 338.500269 L 337.499813 321.999984 L 335.499935 305.000505 L 329.500301 289.000448 L 321.499756 273.499585 L 311.999561 257.499528 L 302.500399 241.999699 L 298.499609 225.999642 L 292.499976 209.999585 L 288.50022 193.999528 L 288.50022 169.999959 L 272.500163 169.499731 L 239.999821 169.499731 " transform="matrix(3.779528,0,0,3.779528,0,0)"/>
<path style="fill:none;stroke-width:2;stroke-linecap:butt;stroke-linejoin:miter;stroke:rgb(0%,0%,0%);stroke-opacity:1;stroke-miterlimit:4;" d="M 239.999821 169.499731 L 237.999943 185.499788 L 233.499959 201.499845 L 225.500448 233.499959 L 221.999886 250.000244 L 214.000374 265.500073 L 205.999829 281.50013 L 196.000439 298.000415 L 187.999894 314.000472 L 184.000138 330.499723 L 189.999772 346.49978 L 198.000317 361.999609 L 218.00013 377.999666 L 227.99952 389.49974 L 248.499561 395.000179 L 264.499618 397.500285 L 280.499674 393.999723 L 296.499731 388.500317 L 313.000016 374.500138 L 329.000073 361.000187 L 332.999829 341.000374 " transform="matrix(3.779528,0,0,3.779528,0,0)"/>
<path style="fill:none;stroke-width:2;stroke-linecap:butt;stroke-linejoin:miter;stroke:rgb(0%,0%,0%);stroke-opacity:1;stroke-miterlimit:4;" d="M 350.000342 285.499886 L 334.000285 259.500439 L 317.5 241.500505 L 301.499943 217.499902 " transform="matrix(3.779528,0,0,3.779528,0,0)"/>
<path style="fill:none;stroke-width:2;stroke-linecap:butt;stroke-linejoin:miter;stroke:rgb(0%,0%,0%);stroke-opacity:1;stroke-miterlimit:4;" d="M 294.499854 210.499813 L 311.000138 240.500049 L 327.000195 259.000212 L 343.000252 281.50013 " transform="matrix(3.779528,0,0,3.779528,0,0)"/>
<path style="fill:none;stroke-width:2;stroke-linecap:butt;stroke-linejoin:miter;stroke:rgb(0%,0%,0%);stroke-opacity:1;stroke-miterlimit:4;" d="M 309.999683 368.000277 L 293.999626 382.000456 L 278.499797 390.500195 L 262.49974 392.500073 L 246.499683 386.500439 L 230.499626 376.500016 L 214.499569 364.499715 L 198.499512 350.499536 " transform="matrix(3.779528,0,0,3.779528,0,0)"/>
<path style="fill:none;stroke-width:2;stroke-linecap:butt;stroke-linejoin:miter;stroke:rgb(0%,0%,0%);stroke-opacity:1;stroke-miterlimit:4;" d="M 200.000195 354.99952 L 216.000252 373.000488 " transform="matrix(3.779528,0,0,3.779528,0,0)"/>
<path style="fill:none;stroke-width:2;stroke-linecap:butt;stroke-linejoin:miter;stroke:rgb(0%,0%,0%);stroke-opacity:1;stroke-miterlimit:4;" d="M 190.5 326.499967 L 206.500057 300.499487 L 222.500114 276.499919 L 238.500171 242.499927 L 258.499984 238.500171 L 291.000326 238.500171 L 306.500155 271.999935 L 322.500212 300.000293 " transform="matrix(3.779528,0,0,3.779528,0,0)"/>
<path style="fill:none;stroke-width:2;stroke-linecap:butt;stroke-linejoin:miter;stroke:rgb(0%,0%,0%);stroke-opacity:1;stroke-miterlimit:4;" d="M 286.000114 386.000212 L 309.999683 370.000155 L 318.000228 354.000098 L 323.999862 336.000163 L 323.999862 304.000049 L 314.000472 299.500065 L 311.999561 283.500008 L 302.000171 268.000179 L 286.500342 250.000244 L 284.500464 221.999886 L 280.499674 205.999829 L 278.499797 189.999772 L 280.499674 174.499943 L 296.499731 170.500187 L 292.499976 159.999536 L 304.500277 152.000024 L 300.999715 144.000513 L 300.999715 128.000456 L 294.499854 112.000399 L 278.499797 111.500171 L 228.999976 111.500171 L 212.999919 119.99991 " transform="matrix(3.779528,0,0,3.779528,0,0)"/>
<path style="fill:none;stroke-width:2;stroke-linecap:butt;stroke-linejoin:miter;stroke:rgb(0%,0%,0%);stroke-opacity:1;stroke-miterlimit:4;" d="M 216.999674 112.000399 L 215.500024 128.000456 L 205.000407 143.500285 L 207.500513 159.500342 L 215.500024 175.500399 L 216.000252 191.500456 L 212.000496 207.500513 L 208.499935 223.999764 L 200.500423 239.999821 L 189.00035 256.500106 L 177.000049 272.500163 L 168.999504 288.50022 L 164.999748 304.500277 L 162.99987 320.000106 L 164.999748 336.000163 L 168.999504 351.499992 L 177.000049 368.000277 L 189.00035 384.000334 L 212.999919 400.499585 " transform="matrix(3.779528,0,0,3.779528,0,0)"/>
<path style="fill:none;stroke-width:2;stroke-linecap:butt;stroke-linejoin:miter;stroke:rgb(0%,0%,0%);stroke-opacity:1;stroke-miterlimit:4;" d="M 211.000041 374.500138 L 195.500212 366.499593 L 179.500155 334.500513 " transform="matrix(3.779528,0,0,3.779528,0,0)"/>
<path style="fill:none;stroke-width:2;stroke-linecap:butt;stroke-linejoin:miter;stroke:rgb(0%,0%,0%);stroke-opacity:1;stroke-miterlimit:4;" d="M 171.000415 342.500024 L 187.000472 372.50026 " transform="matrix(3.779528,0,0,3.779528,0,0)"/>
<path style="fill:none;stroke-width:2;stroke-linecap:butt;stroke-linejoin:miter;stroke:rgb(0%,0%,0%);stroke-opacity:1;stroke-miterlimit:4;" d="M 167.499854 348.499658 L 183.49991 378.499894 L 199.499967 392.500073 L 215.500024 400.499585 L 231.500081 408.50013 L 247.500138 411.999658 L 264.000423 406.000024 L 280.00048 404.000146 L 296.499731 400.000391 L 312.499788 389.999967 L 329.000073 373.499683 L 345.00013 347.500236 " transform="matrix(3.779528,0,0,3.779528,0,0)"/>
<path style="fill:none;stroke-width:2;stroke-linecap:butt;stroke-linejoin:miter;stroke:rgb(0%,0%,0%);stroke-opacity:1;stroke-miterlimit:4;" d="M 316.00035 301.499943 L 300.000293 273.999813 L 284.000236 244.499805 L 268.000179 242.499927 L 252.50035 241.999699 L 230.499626 273.999813 L 214.499569 300.499487 L 198.99974 320.500334 " transform="matrix(3.779528,0,0,3.779528,0,0)"/>
<path style="fill:none;stroke-width:2;stroke-linecap:butt;stroke-linejoin:miter;stroke:rgb(0%,0%,0%);stroke-opacity:1;stroke-miterlimit:4;" d="M 184.500366 323.499634 L 200.000195 291.49952 L 216.000252 263.500195 " transform="matrix(3.779528,0,0,3.779528,0,0)"/>
<path style="fill:none;stroke-width:2;stroke-linecap:butt;stroke-linejoin:miter;stroke:rgb(0%,0%,0%);stroke-opacity:1;stroke-miterlimit:4;" d="M 207.000285 236.500293 L 202.999495 248.499561 L 187.499666 266.499495 L 171.999837 294.499854 L 191.99965 284.500464 L 202.000073 268.500407 L 212.000496 252.000122 L 200.000195 271.999935 L 184.000138 295.999504 " transform="matrix(3.779528,0,0,3.779528,0,0)"/>
<path style="fill:none;stroke-width:2;stroke-linecap:butt;stroke-linejoin:miter;stroke:rgb(0%,0%,0%);stroke-opacity:1;stroke-miterlimit:4;" d="M 166.000203 291.999748 L 181.500033 264.000423 L 198.000317 244.499805 L 216.000252 220.500236 L 214.499569 241.999699 L 196.499634 257.499528 L 182.999683 273.999813 L 175.000171 289.99987 L 168.999504 307.999805 L 168.999504 323.999862 L 173.000293 343.999674 L 178.999927 359.499504 L 191.000228 375.000366 L 209.000163 391.000423 " transform="matrix(3.779528,0,0,3.779528,0,0)"/>
<path style="fill:none;stroke-width:2;stroke-linecap:butt;stroke-linejoin:miter;stroke:rgb(0%,0%,0%);stroke-opacity:1;stroke-miterlimit:4;" d="M 178.499699 314.499666 L 194.999984 288.50022 L 211.000041 260.499862 L 214.999797 254 L 205.000407 271.999935 L 194.999984 287.499764 L 184.999561 303.499821 L 177.000049 320.999528 L 181.500033 336.999585 L 189.499544 352.999642 L 199.499967 369.499927 L 207.500513 389.49974 L 223.499536 397.500285 L 239.499593 404.000146 L 255.000456 406.500252 L 273.000391 412.499886 L 289.000448 409.000358 L 305.499699 400.999813 L 321.499756 391.000423 L 338.000041 372.50026 " transform="matrix(3.779528,0,0,3.779528,0,0)"/>
<path style="fill:none;stroke-width:2;stroke-linecap:butt;stroke-linejoin:miter;stroke:rgb(0%,0%,0%);stroke-opacity:1;stroke-miterlimit:4;" d="M 416.99987 413.500342 L 414.499764 397.500285 L 414.499764 349.500114 L 413.999536 334.000285 L 413.999536 237.999943 L 413.500342 221.999886 L 413.500342 189.499544 L 413.999536 173.499487 L 413.999536 157.000236 L 414.499764 141.500407 L 414.499764 94.499658 L 402.500496 90.499902 L 386.500439 89.999674 L 322.500212 89.999674 L 306.500155 89.50048 L 291.000326 89.50048 L 275.000269 89.999674 L 210.499813 89.999674 L 194.499756 89.50048 L 178.499699 89.50048 L 162.499642 89.999674 L 130.999756 89.999674 L 114.999699 90.499902 L 98.999642 90.499902 " transform="matrix(3.779528,0,0,3.779528,0,0)"/>
<path style="fill:none;stroke-width:2;stroke-linecap:butt;stroke-linejoin:miter;stroke:rgb(0%,0%,0%);stroke-opacity:1;stroke-miterlimit:4;" d="M 97.499992 89.000252 L 97.499992 137.499618 L 98.00022 153.999902 L 98.00022 218.500358 L 98.500448 234.500415 L 98.999642 250.500472 L 98.999642 266.499495 L 98.500448 282.499552 L 98.500448 345.999552 L 98.00022 361.999609 L 98.00022 393.999723 L 98.500448 409.99978 L 100.500326 423.999959 L 116.500382 423.499731 L 132.000212 425.000415 L 148.000269 422.999504 L 163.500098 422.999504 L 179.500155 422.500309 L 194.999984 422.999504 L 211.000041 422.999504 L 227.500326 425.000415 L 243.500382 425.499609 L 291.49952 425.499609 L 307.999805 423.499731 L 340.500146 423.499731 L 357.000431 423.999959 L 406.000024 423.999959 " transform="matrix(3.779528,0,0,3.779528,0,0)"/>
<path style="fill:none;stroke-width:2;stroke-linecap:butt;stroke-linejoin:miter;stroke:rgb(0%,0%,0%);stroke-opacity:1;stroke-miterlimit:4;" d="M 239.999821 384.000334 L 220.000008 368.000277 L 205.499601 352.00022 L 196.999862 336.000163 L 198.499512 320.000106 L 212.000496 304.500277 L 221.499658 288.50022 L 231.500081 273.000391 L 237.499715 257.000334 L 245.50026 237.499715 L 247.500138 219.49978 L 249.500016 203.499723 " transform="matrix(3.779528,0,0,3.779528,0,0)"/>
<path style="fill:none;stroke-width:2;stroke-linecap:butt;stroke-linejoin:miter;stroke:rgb(0%,0%,0%);stroke-opacity:1;stroke-miterlimit:4;" d="M 254 171.000415 L 250.000244 173.499487 L 246.000488 189.499544 L 246.000488 205.499601 L 241.999699 221.499658 L 239.999821 237.499715 L 234.000187 253.499772 L 226.49987 269.499829 L 216.50048 285.499886 L 205.000407 301.499943 L 194.999984 318.000228 L 191.000228 333.500057 L 198.99974 349.500114 L 209.000163 366.000399 L 212.999919 380.499772 L 225.00022 386.500439 L 241.000277 388.500317 " transform="matrix(3.779528,0,0,3.779528,0,0)"/>
<path style="fill:none;stroke-width:2;stroke-linecap:butt;stroke-linejoin:miter;stroke:rgb(0%,0%,0%);stroke-opacity:1;stroke-miterlimit:4;" d="M 302.000171 277.999569 L 298.000415 261.999512 L 291.49952 245.50026 L 287.499764 217.499902 L 283.500008 202.000073 L 282.000358 186.500244 " transform="matrix(3.779528,0,0,3.779528,0,0)"/>
<path style="fill:none;stroke-width:2;stroke-linecap:butt;stroke-linejoin:miter;stroke:rgb(0%,0%,0%);stroke-opacity:1;stroke-miterlimit:4;" d="M 295.999504 181.500033 L 298.000415 197.50009 L 300.000293 214.000374 L 307.999805 230.000431 L 309.999683 245.50026 L 326.499967 251.499894 L 339.999919 267.499951 L 348.000464 283.500008 L 354.000098 299.500065 L 350.499536 315.500122 L 343.000252 331.500179 L 348.499658 339.999919 L 341.000374 355.999976 L 330.999951 372.000033 L 314.999894 388.00009 L 298.999837 398.000513 " transform="matrix(3.779528,0,0,3.779528,0,0)"/>
<path style="fill:none;stroke-width:2;stroke-linecap:butt;stroke-linejoin:miter;stroke:rgb(0%,0%,0%);stroke-opacity:1;stroke-miterlimit:4;" d="M 286.000114 163.500098 L 254.500228 163.500098 L 238.500171 162.99987 " transform="matrix(3.779528,0,0,3.779528,0,0)"/>
<path style="fill:none;stroke-width:2;stroke-linecap:butt;stroke-linejoin:miter;stroke:rgb(0%,0%,0%);stroke-opacity:1;stroke-miterlimit:4;" d="M 213.500146 155.499552 L 229.500203 155.499552 L 248.000366 157.500464 L 264.000423 157.999658 L 279.500252 150.000146 L 295.500309 150.000146 L 300.000293 134.00009 " transform="matrix(3.779528,0,0,3.779528,0,0)"/>
<path style="fill:none;stroke-width:2;stroke-linecap:butt;stroke-linejoin:miter;stroke:rgb(0%,0%,0%);stroke-opacity:1;stroke-miterlimit:4;" d="M 281.50013 131.499984 L 261.500317 131.499984 L 241.500505 116.999577 L 225.500448 116.999577 " transform="matrix(3.779528,0,0,3.779528,0,0)"/>
<path style="fill:none;stroke-width:2;stroke-linecap:butt;stroke-linejoin:miter;stroke:rgb(0%,0%,0%);stroke-opacity:1;stroke-miterlimit:4;" d="M 218.500358 131.499984 L 234.500415 131.499984 L 255.49965 119.499683 L 271.999935 117.499805 L 287.999992 117.499805 " transform="matrix(3.779528,0,0,3.779528,0,0)"/>
<path style="fill:none;stroke-width:2;stroke-linecap:butt;stroke-linejoin:miter;stroke:rgb(0%,0%,0%);stroke-opacity:1;stroke-miterlimit:4;" d="M 299.500065 162.000448 L 287.999992 153.999902 L 287.499764 157.999658 L 271.499707 156.500008 L 243.500382 150.500374 L 227.500326 152.500252 L 211.500269 152.500252 " transform="matrix(3.779528,0,0,3.779528,0,0)"/>
<path style="fill:none;stroke-width:2;stroke-linecap:butt;stroke-linejoin:miter;stroke:rgb(0%,0%,0%);stroke-opacity:1;stroke-miterlimit:4;" d="M 78.999829 82.999585 L 94.499658 69.000439 L 126.499772 69.000439 L 142.499829 68.500212 L 174.499943 68.500212 L 191.000228 67.999984 L 207.500513 67.999984 L 223.499536 67.499756 L 239.499593 67.999984 L 271.499707 67.999984 L 286.999536 69.999862 L 302.500399 67.499756 L 318.000228 67.999984 L 333.500057 67.999984 L 349.500114 68.500212 L 364.999943 69.000439 L 396.499829 69.000439 L 412.499886 68.500212 L 429.000171 72.499967 " transform="matrix(3.779528,0,0,3.779528,0,0)"/>
<path style="fill:none;stroke-width:2;stroke-linecap:butt;stroke-linejoin:miter;stroke:rgb(0%,0%,0%);stroke-opacity:1;stroke-miterlimit:4;" d="M 418.999748 69.499634 L 431.000049 85.499691 L 431.500277 101.499748 L 431.500277 117.499805 L 432.000505 132.999634 L 432.000505 246.99991 L 431.500277 262.999967 L 431.500277 309.999683 L 432.000505 325.99974 L 431.500277 341.999797 L 432.000505 357.999854 L 432.000505 422.000081 L 431.500277 438.000138 " transform="matrix(3.779528,0,0,3.779528,0,0)"/>
</g>
</svg>
