<?xml version="1.0" encoding="UTF-8"?>
<svg xmlns="http://www.w3.org/2000/svg" xmlns:xlink="http://www.w3.org/1999/xlink" width="1935.11811" height="1935.11811" viewBox="0 0 1935.11811 1935.11811" version="1.1">
<g id="surface1">
<path style="fill:none;stroke-width:2;stroke-linecap:butt;stroke-linejoin:miter;stroke:rgb(0%,0%,0%);stroke-opacity:1;stroke-miterlimit:4;" d="M 399.500163 64.500456 L 417.500098 80.500513 L 419.499976 96.499536 L 413.500342 112.499593 L 385.499984 130.999756 L 385.499984 178.999927 L 384.999756 194.999984 L 384.999756 210.499813 L 384.499528 226.49987 L 384.999756 242.499927 L 384.999756 274.500041 L 385.499984 289.99987 L 387.499862 305.499699 L 391.499618 320.999528 L 365.500171 332.999829 L 365.500171 345.00013 L 349.500114 348.499658 L 329.999495 356.500203 L 327.999618 370.500382 L 324.50009 386.500439 L 322.500212 402.999691 L 310.49991 427.000293 L 318.500456 443.00035 L 324.50009 459.000407 L 308.500033 475.499658 L 336.500391 491.499715 " transform="matrix(3.779528,0,0,3.779528,0,0)"/>
<path style="fill:none;stroke-width:2;stroke-linecap:butt;stroke-linejoin:miter;stroke:rgb(0%,0%,0%);stroke-opacity:1;stroke-miterlimit:4;" d="M 318.500456 479.00022 L 334.500513 486.999731 L 350.499536 488.999609 L 366.499593 489.499837 L 382.999878 488.999609 L 414.999992 488.999609 L 431.000049 486.999731 L 447.000106 482.999976 " transform="matrix(3.779528,0,0,3.779528,0,0)"/>
<path style="fill:none;stroke-width:2;stroke-linecap:butt;stroke-linejoin:miter;stroke:rgb(0%,0%,0%);stroke-opacity:1;stroke-miterlimit:4;" d="M 454.999618 447.999528 L 470.999674 447.999528 L 487.499959 447.500334 L 503.500016 447.999528 " transform="matrix(3.779528,0,0,3.779528,0,0)"/>
<path style="fill:none;stroke-width:2;stroke-linecap:butt;stroke-linejoin:miter;stroke:rgb(0%,0%,0%);stroke-opacity:1;stroke-miterlimit:4;" d="M 452.99974 445.99965 L 436.999683 461.999707 L 420.500431 474.000008 L 404.500374 473.49978 L 388.00009 474.000008 L 355.499748 474.000008 L 339.999919 470.000252 L 323.999862 458.500179 L 307.999805 446.499878 L 291.49952 447.000106 L 275.500496 446.499878 L 259.500439 446.499878 L 243.500382 456.000073 L 227.500326 465.000041 L 211.500269 470.999674 L 195.500212 471.499902 L 180.000382 469.500024 L 164.49952 470.000252 L 148.500496 472.00013 L 100.500326 472.00013 L 84.500269 465.500269 L 68.500212 451.50009 L 51.999927 425.499609 " transform="matrix(3.779528,0,0,3.779528,0,0)"/>
<path style="fill:none;stroke-width:2;stroke-linecap:butt;stroke-linejoin:miter;stroke:rgb(0%,0%,0%);stroke-opacity:1;stroke-miterlimit:4;" d="M 58.499788 424.500187 L 75.000073 448.499756 L 91.00013 456.999495 L 107.000187 459.499601 L 171.000415 459.499601 L 186.500244 459.000407 L 202.500301 456.999495 L 218.999552 450.499634 " transform="matrix(3.779528,0,0,3.779528,0,0)"/>
<path style="fill:none;stroke-width:2;stroke-linecap:butt;stroke-linejoin:miter;stroke:rgb(0%,0%,0%);stroke-opacity:1;stroke-miterlimit:4;" d="M 241.500505 461.000285 L 257.499528 468.999797 " transform="matrix(3.779528,0,0,3.779528,0,0)"/>
<path style="fill:none;stroke-width:2;stroke-linecap:butt;stroke-linejoin:miter;stroke:rgb(0%,0%,0%);stroke-opacity:1;stroke-miterlimit:4;" d="M 262.999967 438.500366 L 279.000024 438.500366 L 294.499854 438.999561 " transform="matrix(3.779528,0,0,3.779528,0,0)"/>
<path style="fill:none;stroke-width:2;stroke-linecap:butt;stroke-linejoin:miter;stroke:rgb(0%,0%,0%);stroke-opacity:1;stroke-miterlimit:4;" d="M 310.49991 422.000081 L 326.499967 422.000081 L 354.500326 449.500212 " transform="matrix(3.779528,0,0,3.779528,0,0)"/>
<path style="fill:none;stroke-width:2;stroke-linecap:butt;stroke-linejoin:miter;stroke:rgb(0%,0%,0%);stroke-opacity:1;stroke-miterlimit:4;" d="M 347.500236 443.499544 L 339.000496 427.499487 L 331.500179 409.499552 L 333.500057 393.499495 L 339.499691 377.500472 L 347.500236 361.500415 L 333.500057 370.000155 " transform="matrix(3.779528,0,0,3.779528,0,0)"/>
<path style="fill:none;stroke-width:2;stroke-linecap:butt;stroke-linejoin:miter;stroke:rgb(0%,0%,0%);stroke-opacity:1;stroke-miterlimit:4;" d="M 323.999862 366.999821 L 323.999862 357.000431 L 318.500456 373.000488 L 312.499788 388.500317 L 309.00026 404.500374 L 313.000016 416.000448 L 329.000073 418.000326 L 347.000008 447.500334 " transform="matrix(3.779528,0,0,3.779528,0,0)"/>
<path style="fill:none;stroke-width:2;stroke-linecap:butt;stroke-linejoin:miter;stroke:rgb(0%,0%,0%);stroke-opacity:1;stroke-miterlimit:4;" d="M 316.999772 475.000464 L 316.999772 475.000464 " transform="matrix(3.779528,0,0,3.779528,0,0)"/>
<path style="fill:none;stroke-width:2;stroke-linecap:butt;stroke-linejoin:miter;stroke:rgb(0%,0%,0%);stroke-opacity:1;stroke-miterlimit:4;" d="M 311.500366 478.499992 L 327.000195 488.500415 L 343.000252 492.500171 L 358.500081 493.999821 L 373.99991 493.999821 L 389.999967 493.499593 L 421.499854 493.499593 L 437.49991 489.499837 L 453.499967 482.999976 " transform="matrix(3.779528,0,0,3.779528,0,0)"/>
<path style="fill:none;stroke-width:2;stroke-linecap:butt;stroke-linejoin:miter;stroke:rgb(0%,0%,0%);stroke-opacity:1;stroke-miterlimit:4;" d="M 449.500212 486.000309 L 449.500212 479.999642 L 441.999894 463.999585 L 443.999772 445.500456 L 451.50009 429.500399 L 453.499967 413.500342 " transform="matrix(3.779528,0,0,3.779528,0,0)"/>
<path style="fill:none;stroke-width:2;stroke-linecap:butt;stroke-linejoin:miter;stroke:rgb(0%,0%,0%);stroke-opacity:1;stroke-miterlimit:4;" d="M 506.000122 363.500293 L 489.499837 363.000065 L 456.999495 363.000065 L 440.500244 354.500326 L 423.999959 339.000496 " transform="matrix(3.779528,0,0,3.779528,0,0)"/>
<path style="fill:none;stroke-width:2;stroke-linecap:butt;stroke-linejoin:miter;stroke:rgb(0%,0%,0%);stroke-opacity:1;stroke-miterlimit:4;" d="M 434.499577 363.999487 L 418.999748 363.500293 L 370.999577 363.500293 L 354.99952 363.999487 " transform="matrix(3.779528,0,0,3.779528,0,0)"/>
<path style="fill:none;stroke-width:2;stroke-linecap:butt;stroke-linejoin:miter;stroke:rgb(0%,0%,0%);stroke-opacity:1;stroke-miterlimit:4;" d="M 350.999764 363.999487 L 343.000252 379.50035 L 339.499691 395.500407 L 338.000041 411.500464 L 334.500513 427.499487 L 340.500146 443.999772 L 345.00013 459.999829 " transform="matrix(3.779528,0,0,3.779528,0,0)"/>
<path style="fill:none;stroke-width:2;stroke-linecap:butt;stroke-linejoin:miter;stroke:rgb(0%,0%,0%);stroke-opacity:1;stroke-miterlimit:4;" d="M 342.500024 470.50048 L 323.999862 462.499935 L 307.999805 470.50048 " transform="matrix(3.779528,0,0,3.779528,0,0)"/>
<path style="fill:none;stroke-width:2;stroke-linecap:butt;stroke-linejoin:miter;stroke:rgb(0%,0%,0%);stroke-opacity:1;stroke-miterlimit:4;" d="M 334.500513 386.999634 L 332.499601 372.50026 L 327.000195 370.500382 L 343.50048 360.499959 L 353.49987 336.500391 L 369.499927 330.499723 L 388.00009 346.49978 " transform="matrix(3.779528,0,0,3.779528,0,0)"/>
<path style="fill:none;stroke-width:2;stroke-linecap:butt;stroke-linejoin:miter;stroke:rgb(0%,0%,0%);stroke-opacity:1;stroke-miterlimit:4;" d="M 346.49978 364.499715 L 362.499837 359.999731 L 378.499894 359.499504 L 394.499951 357.499626 L 409.99978 357.000431 L 425.999837 357.499626 L 437.49991 367.500049 " transform="matrix(3.779528,0,0,3.779528,0,0)"/>
<path style="fill:none;stroke-width:2;stroke-linecap:butt;stroke-linejoin:miter;stroke:rgb(0%,0%,0%);stroke-opacity:1;stroke-miterlimit:4;" d="M 499.000033 321.499756 L 451.50009 321.499756 L 435.500033 321.999984 L 425.000415 328.499845 L 403.499919 328.499845 L 387.499862 320.500334 L 372.000033 322.500212 L 363.999487 300.499487 L 354.000098 314.499666 L 339.999919 332.499601 L 323.999862 336.000163 L 325.99974 348.000464 L 309.999683 351.499992 L 318.000228 355.499748 L 316.00035 339.499691 L 338.000041 333.500057 L 347.500236 317.5 L 348.000464 309.00026 L 354.000098 293.000203 L 361.999609 277.000146 L 363.500293 260.499862 L 363.500293 244.499805 L 363.999487 228.999976 L 363.999487 212.999919 L 361.999609 196.999862 L 361.999609 180.999805 L 361.500415 164.999748 L 361.500415 125.50035 L 367.500049 109.500293 L 368.000277 94.000464 L 372.000033 78.499601 L 388.00009 62.499544 L 382.000456 84.500269 " transform="matrix(3.779528,0,0,3.779528,0,0)"/>
<path style="fill:none;stroke-width:2;stroke-linecap:butt;stroke-linejoin:miter;stroke:rgb(0%,0%,0%);stroke-opacity:1;stroke-miterlimit:4;" d="M 377.000244 85.999919 L 373.499683 101.999976 L 388.999512 105.499504 L 395.500407 115.499927 L 411.500464 121.499561 L 427.999715 145.500163 L 443.999772 149.499919 L 460.500057 152.000024 " transform="matrix(3.779528,0,0,3.779528,0,0)"/>
<path style="fill:none;stroke-width:2;stroke-linecap:butt;stroke-linejoin:miter;stroke:rgb(0%,0%,0%);stroke-opacity:1;stroke-miterlimit:4;" d="M 470.000252 175.999593 L 463.999585 168.000081 L 447.999528 169.999959 L 445.99965 173.999715 " transform="matrix(3.779528,0,0,3.779528,0,0)"/>
<path style="fill:none;stroke-width:2;stroke-linecap:butt;stroke-linejoin:miter;stroke:rgb(0%,0%,0%);stroke-opacity:1;stroke-miterlimit:4;" d="M 436.00026 175.500399 L 441.499666 165.499976 L 447.500334 175.000171 L 455.499845 191.000228 " transform="matrix(3.779528,0,0,3.779528,0,0)"/>
<path style="fill:none;stroke-width:2;stroke-linecap:butt;stroke-linejoin:miter;stroke:rgb(0%,0%,0%);stroke-opacity:1;stroke-miterlimit:4;" d="M 461.999707 191.99965 L 461.500513 175.500399 L 463.000163 159.500342 L 445.000228 159.500342 L 429.000171 157.000236 " transform="matrix(3.779528,0,0,3.779528,0,0)"/>
<path style="fill:none;stroke-width:2;stroke-linecap:butt;stroke-linejoin:miter;stroke:rgb(0%,0%,0%);stroke-opacity:1;stroke-miterlimit:4;" d="M 427.499487 164.000326 L 445.500456 169.999959 L 445.500456 186.000016 " transform="matrix(3.779528,0,0,3.779528,0,0)"/>
<path style="fill:none;stroke-width:2;stroke-linecap:butt;stroke-linejoin:miter;stroke:rgb(0%,0%,0%);stroke-opacity:1;stroke-miterlimit:4;" d="M 440.000016 198.99974 L 423.999959 202.500301 " transform="matrix(3.779528,0,0,3.779528,0,0)"/>
<path style="fill:none;stroke-width:2;stroke-linecap:butt;stroke-linejoin:miter;stroke:rgb(0%,0%,0%);stroke-opacity:1;stroke-miterlimit:4;" d="M 424.500187 203.499723 L 416.000448 205.499601 L 418.000326 221.499658 L 418.000326 252.999544 L 418.49952 268.500407 L 418.49952 284.500464 L 420.000203 300.499487 L 413.999536 314.499666 L 434.000382 340.500146 L 450.000439 356.500203 L 459.999829 382.000456 L 463.500391 398.499707 L 463.500391 414.499764 L 459.999829 430.499821 L 452.499512 446.499878 L 436.500488 462.499935 L 436.500488 472.00013 L 446.499878 463.999585 " transform="matrix(3.779528,0,0,3.779528,0,0)"/>
<path style="fill:none;stroke-width:2;stroke-linecap:butt;stroke-linejoin:miter;stroke:rgb(0%,0%,0%);stroke-opacity:1;stroke-miterlimit:4;" d="M 413.500342 302.500399 L 409.499552 286.500342 " transform="matrix(3.779528,0,0,3.779528,0,0)"/>
<path style="fill:none;stroke-width:2;stroke-linecap:butt;stroke-linejoin:miter;stroke:rgb(0%,0%,0%);stroke-opacity:1;stroke-miterlimit:4;" d="M 424.500187 219.49978 L 440.500244 215.500024 L 456.500301 212.000496 L 472.500358 200.000195 " transform="matrix(3.779528,0,0,3.779528,0,0)"/>
<path style="fill:none;stroke-width:2;stroke-linecap:butt;stroke-linejoin:miter;stroke:rgb(0%,0%,0%);stroke-opacity:1;stroke-miterlimit:4;" d="M 473.49978 198.000317 L 469.500024 182.500488 L 457.499723 198.499512 L 441.499666 204.500179 L 425.499609 208.499935 " transform="matrix(3.779528,0,0,3.779528,0,0)"/>
<path style="fill:none;stroke-width:2;stroke-linecap:butt;stroke-linejoin:miter;stroke:rgb(0%,0%,0%);stroke-opacity:1;stroke-miterlimit:4;" d="M 426.500065 216.50048 L 424.500187 232.499504 L 424.500187 280.499674 L 426.500065 296.499731 L 423.999959 311.999561 L 434.000382 338.000041 L 450.000439 353.49987 L 454.000195 370.000155 " transform="matrix(3.779528,0,0,3.779528,0,0)"/>
<path style="fill:none;stroke-width:2;stroke-linecap:butt;stroke-linejoin:miter;stroke:rgb(0%,0%,0%);stroke-opacity:1;stroke-miterlimit:4;" d="M 359.499504 287.499764 L 343.50048 316.00035 L 327.999618 321.999984 L 311.999561 320.500334 L 309.999683 325.99974 " transform="matrix(3.779528,0,0,3.779528,0,0)"/>
<path style="fill:none;stroke-width:2;stroke-linecap:butt;stroke-linejoin:miter;stroke:rgb(0%,0%,0%);stroke-opacity:1;stroke-miterlimit:4;" d="M 298.000415 249.500016 L 282.499552 249.500016 L 278.499797 241.500505 L 278.499797 209.500391 L 271.999935 189.499544 L 271.499707 173.999715 L 271.499707 153.999902 " transform="matrix(3.779528,0,0,3.779528,0,0)"/>
<path style="fill:none;stroke-width:2;stroke-linecap:butt;stroke-linejoin:miter;stroke:rgb(0%,0%,0%);stroke-opacity:1;stroke-miterlimit:4;" d="M 277.500374 152.500252 L 277.500374 200.500423 L 271.499707 220.500236 L 271.499707 236.000065 L 280.00048 255.999878 L 295.999504 255.999878 " transform="matrix(3.779528,0,0,3.779528,0,0)"/>
<path style="fill:none;stroke-width:2;stroke-linecap:butt;stroke-linejoin:miter;stroke:rgb(0%,0%,0%);stroke-opacity:1;stroke-miterlimit:4;" d="M 289.499642 262.49974 L 273.000391 261.999512 L 257.000334 261.500317 L 241.000277 261.500317 " transform="matrix(3.779528,0,0,3.779528,0,0)"/>
<path style="fill:none;stroke-width:2;stroke-linecap:butt;stroke-linejoin:miter;stroke:rgb(0%,0%,0%);stroke-opacity:1;stroke-miterlimit:4;" d="M 241.500505 255.999878 L 273.999813 255.999878 " transform="matrix(3.779528,0,0,3.779528,0,0)"/>
<path style="fill:none;stroke-width:2;stroke-linecap:butt;stroke-linejoin:miter;stroke:rgb(0%,0%,0%);stroke-opacity:1;stroke-miterlimit:4;" d="M 287.499764 267.499951 L 271.999935 267.499951 L 255.999878 266.999723 L 239.999821 268.999601 " transform="matrix(3.779528,0,0,3.779528,0,0)"/>
<path style="fill:none;stroke-width:2;stroke-linecap:butt;stroke-linejoin:miter;stroke:rgb(0%,0%,0%);stroke-opacity:1;stroke-miterlimit:4;" d="M 239.999821 255.49965 L 255.999878 249.500016 " transform="matrix(3.779528,0,0,3.779528,0,0)"/>
<path style="fill:none;stroke-width:2;stroke-linecap:butt;stroke-linejoin:miter;stroke:rgb(0%,0%,0%);stroke-opacity:1;stroke-miterlimit:4;" d="M 240.500049 206.500057 L 256.500106 204.500179 L 272.500163 205.999829 L 292.499976 203.999951 " transform="matrix(3.779528,0,0,3.779528,0,0)"/>
<path style="fill:none;stroke-width:2;stroke-linecap:butt;stroke-linejoin:miter;stroke:rgb(0%,0%,0%);stroke-opacity:1;stroke-miterlimit:4;" d="M 303.499821 200.500423 L 264.999845 200.500423 L 249.500016 200.000195 L 233.499959 202.000073 " transform="matrix(3.779528,0,0,3.779528,0,0)"/>
<path style="fill:none;stroke-width:2;stroke-linecap:butt;stroke-linejoin:miter;stroke:rgb(0%,0%,0%);stroke-opacity:1;stroke-miterlimit:4;" d="M 235.499837 200.500423 L 233.499959 216.50048 L 234.999609 232.499504 L 232.999731 248.499561 L 232.499504 264.000423 L 232.499504 295.500309 L 232.999731 311.500366 " transform="matrix(3.779528,0,0,3.779528,0,0)"/>
<path style="fill:none;stroke-width:2;stroke-linecap:butt;stroke-linejoin:miter;stroke:rgb(0%,0%,0%);stroke-opacity:1;stroke-miterlimit:4;" d="M 221.000464 311.999561 L 205.499601 286.000114 " transform="matrix(3.779528,0,0,3.779528,0,0)"/>
<path style="fill:none;stroke-width:2;stroke-linecap:butt;stroke-linejoin:miter;stroke:rgb(0%,0%,0%);stroke-opacity:1;stroke-miterlimit:4;" d="M 200.000195 286.000114 L 215.500024 314.000472 L 230.999854 333.500057 L 246.99991 349.500114 " transform="matrix(3.779528,0,0,3.779528,0,0)"/>
<path style="fill:none;stroke-width:2;stroke-linecap:butt;stroke-linejoin:miter;stroke:rgb(0%,0%,0%);stroke-opacity:1;stroke-miterlimit:4;" d="M 237.499715 389.49974 L 221.499658 357.000431 L 205.499601 340.500146 L 189.499544 321.999984 " transform="matrix(3.779528,0,0,3.779528,0,0)"/>
<path style="fill:none;stroke-width:2;stroke-linecap:butt;stroke-linejoin:miter;stroke:rgb(0%,0%,0%);stroke-opacity:1;stroke-miterlimit:4;" d="M 182.00026 324.50009 L 198.000317 341.999797 L 213.500146 358.500081 L 229.500203 382.49965 " transform="matrix(3.779528,0,0,3.779528,0,0)"/>
<path style="fill:none;stroke-width:2;stroke-linecap:butt;stroke-linejoin:miter;stroke:rgb(0%,0%,0%);stroke-opacity:1;stroke-miterlimit:4;" d="M 259.500439 356.500203 L 243.500382 338.500269 L 223.499536 316.499544 L 211.500269 300.999715 L 203.999951 284.999658 L 202.500301 268.999601 L 200.500423 252.50035 L 200.500423 236.000065 L 202.000073 220.000008 L 202.000073 187.499666 L 184.500366 182.999683 " transform="matrix(3.779528,0,0,3.779528,0,0)"/>
<path style="fill:none;stroke-width:2;stroke-linecap:butt;stroke-linejoin:miter;stroke:rgb(0%,0%,0%);stroke-opacity:1;stroke-miterlimit:4;" d="M 149.499919 184.999561 L 169.499731 184.999561 L 177.500277 201.499845 L 177.500277 233.499959 L 178.000505 250.000244 L 178.000505 266.499495 L 180.000382 282.99978 L 184.000138 298.999837 L 186.000016 314.999894 L 186.000016 330.999951 L 200.500423 347.000008 L 216.000252 363.000065 L 227.99952 379.000122 L 233.499959 394.499951 L 235.499837 410.500008 L 230.999854 426.500065 L 223.000342 441.999894 L 216.50048 459.499601 L 232.499504 455.499845 L 248.499561 439.499788 " transform="matrix(3.779528,0,0,3.779528,0,0)"/>
<path style="fill:none;stroke-width:2;stroke-linecap:butt;stroke-linejoin:miter;stroke:rgb(0%,0%,0%);stroke-opacity:1;stroke-miterlimit:4;" d="M 234.500415 431.000049 L 224.499992 450.999862 L 232.999731 435.500033 L 239.000399 419.499976 L 240.500049 402.999691 L 236.500293 386.999634 L 230.499626 370.999577 L 218.00013 354.99952 L 202.000073 339.499691 L 187.499666 323.999862 L 189.00035 303.499821 L 185.499788 287.499764 L 183.49991 271.499707 L 184.000138 255.000456 L 186.000016 239.000399 L 186.000016 223.000342 L 189.999772 191.000228 L 175.999593 177.000049 L 159.999536 179.500155 L 144.000513 181.500033 " transform="matrix(3.779528,0,0,3.779528,0,0)"/>
<path style="fill:none;stroke-width:2;stroke-linecap:butt;stroke-linejoin:miter;stroke:rgb(0%,0%,0%);stroke-opacity:1;stroke-miterlimit:4;" d="M 146.999813 180.499577 L 144.999935 196.499634 L 143.000057 212.000496 L 144.999935 227.500326 L 144.999935 259.000212 L 143.500285 275.000269 L 137.999845 291.49952 L 132.000212 307.499577 L 123.999666 325.499512 L 114.000277 341.499569 L 103.999854 357.499626 L 96.000342 373.000488 L 91.999552 388.999512 L 89.999674 404.999569 L 94.000464 420.999626 L 100.000098 436.999683 L 112.000399 452.99974 " transform="matrix(3.779528,0,0,3.779528,0,0)"/>
<path style="fill:none;stroke-width:2;stroke-linecap:butt;stroke-linejoin:miter;stroke:rgb(0%,0%,0%);stroke-opacity:1;stroke-miterlimit:4;" d="M 114.999699 445.500456 L 98.999642 415.50022 " transform="matrix(3.779528,0,0,3.779528,0,0)"/>
<path style="fill:none;stroke-width:2;stroke-linecap:butt;stroke-linejoin:miter;stroke:rgb(0%,0%,0%);stroke-opacity:1;stroke-miterlimit:4;" d="M 94.000464 420.500431 L 109.999487 450.499634 " transform="matrix(3.779528,0,0,3.779528,0,0)"/>
<path style="fill:none;stroke-width:2;stroke-linecap:butt;stroke-linejoin:miter;stroke:rgb(0%,0%,0%);stroke-opacity:1;stroke-miterlimit:4;" d="M 59.500244 479.500448 L 63.5 465.500269 L 71.99974 481.500326 L 87.999797 485.500081 L 103.999854 487.499959 L 168.000081 487.499959 L 183.49991 488.000187 L 215.500024 488.000187 L 231.500081 486.000309 L 248.000366 479.500448 " transform="matrix(3.779528,0,0,3.779528,0,0)"/>
<path style="fill:none;stroke-width:2;stroke-linecap:butt;stroke-linejoin:miter;stroke:rgb(0%,0%,0%);stroke-opacity:1;stroke-miterlimit:4;" d="M 241.500505 481.500326 L 247.500138 465.500269 L 246.000488 445.000228 L 258.499984 429.000171 L 264.499618 413.000114 L 266.499495 397.000057 L 262.49974 381.500228 L 254.500228 365.500171 L 246.499683 349.500114 L 230.499626 333.500057 L 216.50048 316.999772 L 206.500057 300.999715 L 200.500423 284.999658 L 196.499634 269.499829 L 192.499878 253.499772 L 193.999528 236.999487 L 193.999528 205.499601 L 196.000439 189.499544 L 184.000138 177.500277 L 193.999528 160.999992 L 196.000439 149.499919 L 186.000016 149.499919 L 200.500423 134.00009 L 196.499634 127.500228 L 180.999805 127.500228 L 165.499976 128.000456 L 150.000146 128.000456 L 134.00009 130.000334 " transform="matrix(3.779528,0,0,3.779528,0,0)"/>
<path style="fill:none;stroke-width:2;stroke-linecap:butt;stroke-linejoin:miter;stroke:rgb(0%,0%,0%);stroke-opacity:1;stroke-miterlimit:4;" d="M 135.49974 129.500106 L 129.500106 145.500163 L 129.500106 161.50022 L 131.499984 177.000049 L 125.50035 193.000106 L 125.50035 208.499935 L 125.999544 224.499992 L 126.499772 239.999821 L 127 255.999878 L 123.500472 271.999935 L 114.000277 287.999992 L 101.999976 304.000049 L 89.50048 320.000106 L 75.000073 335.499935 L 64.500456 351.499992 L 56.49991 368.000277 L 51.999927 383.500106 L 48.000171 399.500163 L 50.000049 414.999992 L 53.999805 431.500277 L 64.000228 447.500334 L 71.99974 463.500391 L 62.00035 466.999919 L 62.00035 482.999976 L 84.500269 485.500081 " transform="matrix(3.779528,0,0,3.779528,0,0)"/>
<path style="fill:none;stroke-width:2;stroke-linecap:butt;stroke-linejoin:miter;stroke:rgb(0%,0%,0%);stroke-opacity:1;stroke-miterlimit:4;" d="M 60.499666 482.499748 L 76.999951 488.500415 L 93.000008 492.500171 L 109.000065 492.500171 L 125.50035 493.999821 L 141.500407 493.499593 L 157.500464 493.000399 L 189.499544 493.000399 L 205.499601 492.500171 L 221.999886 490.500293 L 237.999943 488.500415 L 254.500228 480.49987 L 256.500106 479.00022 " transform="matrix(3.779528,0,0,3.779528,0,0)"/>
<path style="fill:none;stroke-width:2;stroke-linecap:butt;stroke-linejoin:miter;stroke:rgb(0%,0%,0%);stroke-opacity:1;stroke-miterlimit:4;" d="M 96.999764 387.499862 L 112.499593 354.000098 L 128.999878 329.999495 " transform="matrix(3.779528,0,0,3.779528,0,0)"/>
<path style="fill:none;stroke-width:2;stroke-linecap:butt;stroke-linejoin:miter;stroke:rgb(0%,0%,0%);stroke-opacity:1;stroke-miterlimit:4;" d="M 96.999764 323.999862 L 110.999943 315.500122 L 127 295.500309 " transform="matrix(3.779528,0,0,3.779528,0,0)"/>
<path style="fill:none;stroke-width:2;stroke-linecap:butt;stroke-linejoin:miter;stroke:rgb(0%,0%,0%);stroke-opacity:1;stroke-miterlimit:4;" d="M 128.000456 286.999536 L 119.99991 302.999593 L 99.49987 320.999528 L 93.500236 332.999829 L 79.500057 348.999886 L 67.499756 364.999943 L 57.000138 380.499772 L 55.00026 396.499829 L 53.499577 411.999658 L 57.500366 427.999715 L 67.499756 443.999772 " transform="matrix(3.779528,0,0,3.779528,0,0)"/>
<path style="fill:none;stroke-width:2;stroke-linecap:butt;stroke-linejoin:miter;stroke:rgb(0%,0%,0%);stroke-opacity:1;stroke-miterlimit:4;" d="M 93.000008 384.499528 L 109.000065 350.499536 L 125.000122 326.499967 L 127 311.999561 L 128.999878 286.000114 " transform="matrix(3.779528,0,0,3.779528,0,0)"/>
<path style="fill:none;stroke-width:2;stroke-linecap:butt;stroke-linejoin:miter;stroke:rgb(0%,0%,0%);stroke-opacity:1;stroke-miterlimit:4;" d="M 132.999634 186.500244 L 148.999691 173.999715 L 164.999748 173.999715 L 180.999805 173.499487 L 184.500366 195.500212 " transform="matrix(3.779528,0,0,3.779528,0,0)"/>
<path style="fill:none;stroke-width:2;stroke-linecap:butt;stroke-linejoin:miter;stroke:rgb(0%,0%,0%);stroke-opacity:1;stroke-miterlimit:4;" d="M 192.499878 169.999959 L 184.500366 163.500098 L 168.999504 163.500098 L 153.00048 162.000448 L 137.000423 164.000326 " transform="matrix(3.779528,0,0,3.779528,0,0)"/>
<path style="fill:none;stroke-width:2;stroke-linecap:butt;stroke-linejoin:miter;stroke:rgb(0%,0%,0%);stroke-opacity:1;stroke-miterlimit:4;" d="M 141.000179 152.000024 L 157.000236 157.500464 L 173.000293 157.000236 L 189.00035 157.000236 " transform="matrix(3.779528,0,0,3.779528,0,0)"/>
<path style="fill:none;stroke-width:2;stroke-linecap:butt;stroke-linejoin:miter;stroke:rgb(0%,0%,0%);stroke-opacity:1;stroke-miterlimit:4;" d="M 187.499666 144.499707 L 171.499609 144.000513 L 155.499552 144.000513 " transform="matrix(3.779528,0,0,3.779528,0,0)"/>
<path style="fill:none;stroke-width:2;stroke-linecap:butt;stroke-linejoin:miter;stroke:rgb(0%,0%,0%);stroke-opacity:1;stroke-miterlimit:4;" d="M 145.500163 139.499495 L 177.500277 139.499495 " transform="matrix(3.779528,0,0,3.779528,0,0)"/>
<path style="fill:none;stroke-width:2;stroke-linecap:butt;stroke-linejoin:miter;stroke:rgb(0%,0%,0%);stroke-opacity:1;stroke-miterlimit:4;" d="M 190.5 135.49974 L 159.000114 135.49974 L 143.000057 133.499862 " transform="matrix(3.779528,0,0,3.779528,0,0)"/>
<path style="fill:none;stroke-width:2;stroke-linecap:butt;stroke-linejoin:miter;stroke:rgb(0%,0%,0%);stroke-opacity:1;stroke-miterlimit:4;" d="M 137.999845 141.999601 L 133.499862 157.999658 L 141.999601 168.500309 L 132.000212 190.5 L 132.500439 205.999829 L 132.500439 221.499658 L 132.999634 237.999943 L 132.999634 254 L 128.999878 270.000057 L 121.000366 286.000114 L 110.999943 302.000171 L 82.999585 332.999829 L 71.000317 348.999886 L 59.000016 359.000309 L 74.499845 334.999707 L 91.00013 314.999894 L 107.000187 296.999959 L 123.000244 267.499951 " transform="matrix(3.779528,0,0,3.779528,0,0)"/>
<path style="fill:none;stroke-width:2;stroke-linecap:butt;stroke-linejoin:miter;stroke:rgb(0%,0%,0%);stroke-opacity:1;stroke-miterlimit:4;" d="M 118.50026 289.99987 L 102.500203 312.499788 L 86.500146 330.499723 L 70.50009 350.499536 L 56.49991 386.500439 L 76.999951 364.499715 L 66.999528 378.499894 " transform="matrix(3.779528,0,0,3.779528,0,0)"/>
<path style="fill:none;stroke-width:2;stroke-linecap:butt;stroke-linejoin:miter;stroke:rgb(0%,0%,0%);stroke-opacity:1;stroke-miterlimit:4;" d="M 64.000228 368.500505 L 80.000285 348.999886 L 95.500114 330.999951 L 111.500171 320.500334 L 127.500228 316.499544 " transform="matrix(3.779528,0,0,3.779528,0,0)"/>
<path style="fill:none;stroke-width:2;stroke-linecap:butt;stroke-linejoin:miter;stroke:rgb(0%,0%,0%);stroke-opacity:1;stroke-miterlimit:4;" d="M 110.999943 445.000228 L 100.99952 428.499943 L 94.999886 412.499886 L 95.500114 395.999601 L 99.49987 379.50035 L 105.499504 363.500293 L 115.499927 347.500236 L 125.50035 330.999951 L 129.500106 313.000016 L 141.000179 296.999959 L 144.999935 281.50013 L 148.999691 265.500073 L 148.999691 202.500301 L 148.500496 186.500244 " transform="matrix(3.779528,0,0,3.779528,0,0)"/>
<path style="fill:none;stroke-width:2;stroke-linecap:butt;stroke-linejoin:miter;stroke:rgb(0%,0%,0%);stroke-opacity:1;stroke-miterlimit:4;" d="M 135.49974 148.000269 L 167.499854 148.000269 L 178.999927 152.000024 L 204.500179 139.499495 " transform="matrix(3.779528,0,0,3.779528,0,0)"/>
<path style="fill:none;stroke-width:2;stroke-linecap:butt;stroke-linejoin:miter;stroke:rgb(0%,0%,0%);stroke-opacity:1;stroke-miterlimit:4;" d="M 242.499927 204.500179 L 240.500049 220.500236 L 240.500049 290.500098 L 241.000277 306.500155 L 240.500049 321.999984 L 242.499927 338.000041 L 256.500106 353.49987 L 266.499495 368.999699 L 270.000057 385.499984 L 271.999935 401.500041 L 268.000179 418.000326 L 262.49974 434.000382 L 248.499561 452.499512 L 226.49987 468.999797 " transform="matrix(3.779528,0,0,3.779528,0,0)"/>
<path style="fill:none;stroke-width:2;stroke-linecap:butt;stroke-linejoin:miter;stroke:rgb(0%,0%,0%);stroke-opacity:1;stroke-miterlimit:4;" d="M 33.999992 497.500382 L 18.500163 497.500382 L 2.500106 497.000155 " transform="matrix(3.779528,0,0,3.779528,0,0)"/>
<path style="fill:none;stroke-width:2;stroke-linecap:butt;stroke-linejoin:miter;stroke:rgb(0%,0%,0%);stroke-opacity:1;stroke-miterlimit:4;" d="M 1.49965 447.000106 L 17.499707 447.000106 L 33.499764 447.500334 L 49.499821 447.500334 " transform="matrix(3.779528,0,0,3.779528,0,0)"/>
<path style="fill:none;stroke-width:2;stroke-linecap:butt;stroke-linejoin:miter;stroke:rgb(0%,0%,0%);stroke-opacity:1;stroke-miterlimit:4;" d="M 50.000049 443.499544 L 0.500228 443.499544 " transform="matrix(3.779528,0,0,3.779528,0,0)"/>
<path style="fill:none;stroke-width:2;stroke-linecap:butt;stroke-linejoin:miter;stroke:rgb(0%,0%,0%);stroke-opacity:1;stroke-miterlimit:4;" d="M 309.00026 206.500057 L 308.500033 222.500114 L 308.500033 254 L 302.000171 278.499797 L 302.000171 325.499512 L 301.499943 341.000374 L 301.499943 356.500203 L 303.499821 372.000033 L 303.499821 388.500317 L 299.500065 404.999569 L 301.499943 421.499854 L 307.000382 438.000138 L 313.000016 436.500488 L 329.000073 456.999495 L 345.00013 459.000407 L 360.499959 461.000285 L 391.999845 461.000285 L 408.50013 460.500057 L 425.000415 461.000285 L 441.000472 448.999984 L 461.500513 443.00035 L 477.999764 445.500456 L 494.500049 445.000228 L 510.500106 445.000228 " transform="matrix(3.779528,0,0,3.779528,0,0)"/>
<path style="fill:none;stroke-width:2;stroke-linecap:butt;stroke-linejoin:miter;stroke:rgb(0%,0%,0%);stroke-opacity:1;stroke-miterlimit:4;" d="M 416.000448 205.000407 L 432.000505 194.999984 " transform="matrix(3.779528,0,0,3.779528,0,0)"/>
<path style="fill:none;stroke-width:2;stroke-linecap:butt;stroke-linejoin:miter;stroke:rgb(0%,0%,0%);stroke-opacity:1;stroke-miterlimit:4;" d="M 450.499634 156.500008 L 434.499577 152.500252 L 422.500309 144.499707 L 418.49952 128.999878 " transform="matrix(3.779528,0,0,3.779528,0,0)"/>
<path style="fill:none;stroke-width:2;stroke-linecap:butt;stroke-linejoin:miter;stroke:rgb(0%,0%,0%);stroke-opacity:1;stroke-miterlimit:4;" d="M 416.000448 119.000488 L 413.999536 135.49974 L 423.999959 151.499797 L 429.999593 171.499609 L 441.999894 187.499666 " transform="matrix(3.779528,0,0,3.779528,0,0)"/>
<path style="fill:none;stroke-width:2;stroke-linecap:butt;stroke-linejoin:miter;stroke:rgb(0%,0%,0%);stroke-opacity:1;stroke-miterlimit:4;" d="M 389.49974 141.999601 L 389.999967 126.499772 " transform="matrix(3.779528,0,0,3.779528,0,0)"/>
<path style="fill:none;stroke-width:2;stroke-linecap:butt;stroke-linejoin:miter;stroke:rgb(0%,0%,0%);stroke-opacity:1;stroke-miterlimit:4;" d="M 375.999788 127 L 361.999609 139.000301 L 345.999552 139.499495 L 329.999495 139.499495 " transform="matrix(3.779528,0,0,3.779528,0,0)"/>
<path style="fill:none;stroke-width:2;stroke-linecap:butt;stroke-linejoin:miter;stroke:rgb(0%,0%,0%);stroke-opacity:1;stroke-miterlimit:4;" d="M 325.000317 136.500195 L 325.000317 152.500252 L 330.999951 153.999902 L 332.999829 169.999959 L 318.500456 169.999959 L 324.50009 171.499609 " transform="matrix(3.779528,0,0,3.779528,0,0)"/>
<path style="fill:none;stroke-width:2;stroke-linecap:butt;stroke-linejoin:miter;stroke:rgb(0%,0%,0%);stroke-opacity:1;stroke-miterlimit:4;" d="M 318.99965 138.500073 L 334.999707 132.500439 L 350.999764 134.500317 L 367.500049 120.500138 L 399.500163 122.500016 L 407.499674 112.499593 " transform="matrix(3.779528,0,0,3.779528,0,0)"/>
<path style="fill:none;stroke-width:2;stroke-linecap:butt;stroke-linejoin:miter;stroke:rgb(0%,0%,0%);stroke-opacity:1;stroke-miterlimit:4;" d="M 413.999536 113.500049 L 404.000146 129.500106 L 403.499919 145.500163 " transform="matrix(3.779528,0,0,3.779528,0,0)"/>
<path style="fill:none;stroke-width:2;stroke-linecap:butt;stroke-linejoin:miter;stroke:rgb(0%,0%,0%);stroke-opacity:1;stroke-miterlimit:4;" d="M 407.999902 123.500472 L 409.99978 139.499495 L 409.99978 187.499666 L 412.499886 203.499723 L 409.99978 219.49978 L 409.99978 251.499894 L 411.000236 283.500008 L 406.500252 298.000415 L 413.000114 314.000472 L 425.000415 336.000163 L 438.999561 352.00022 L 445.000228 368.000277 L 443.00035 378.499894 L 448.499756 394.499951 L 448.499756 410.500008 L 444.5 427.000293 L 436.500488 443.00035 L 432.499699 447.000106 " transform="matrix(3.779528,0,0,3.779528,0,0)"/>
<path style="fill:none;stroke-width:2;stroke-linecap:butt;stroke-linejoin:miter;stroke:rgb(0%,0%,0%);stroke-opacity:1;stroke-miterlimit:4;" d="M 343.50048 338.500269 L 329.500301 358.500081 L 321.499756 357.999854 L 307.499577 366.000399 L 307.499577 350.000342 L 307.000382 334.500513 L 307.000382 318.500456 L 307.499577 302.500399 L 307.999805 286.500342 L 307.999805 270.500285 L 298.000415 250.500472 L 302.000171 234.000187 L 302.000171 218.00013 L 305.999927 202.000073 " transform="matrix(3.779528,0,0,3.779528,0,0)"/>
<path style="fill:none;stroke-width:2;stroke-linecap:butt;stroke-linejoin:miter;stroke:rgb(0%,0%,0%);stroke-opacity:1;stroke-miterlimit:4;" d="M 330.499723 172.500065 L 323.999862 170.500187 L 318.500456 170.500187 L 310.49991 178.999927 L 318.99965 162.99987 L 318.500456 146.999813 L 325.000317 130.999756 " transform="matrix(3.779528,0,0,3.779528,0,0)"/>
<path style="fill:none;stroke-width:2;stroke-linecap:butt;stroke-linejoin:miter;stroke:rgb(0%,0%,0%);stroke-opacity:1;stroke-miterlimit:4;" d="M 368.000277 88.500024 L 384.000334 64.000228 L 400.000391 61.500122 L 416.000448 73.500423 " transform="matrix(3.779528,0,0,3.779528,0,0)"/>
<path style="fill:none;stroke-width:2;stroke-linecap:butt;stroke-linejoin:miter;stroke:rgb(0%,0%,0%);stroke-opacity:1;stroke-miterlimit:4;" d="M 399.500163 69.000439 L 381.500228 85.000496 L 385.499984 91.00013 L 401.500041 99.49987 " transform="matrix(3.779528,0,0,3.779528,0,0)"/>
<path style="fill:none;stroke-width:2;stroke-linecap:butt;stroke-linejoin:miter;stroke:rgb(0%,0%,0%);stroke-opacity:1;stroke-miterlimit:4;" d="M 412.499886 98.999642 L 397.000057 111.500171 L 381 115.499927 L 370.500382 132.999634 L 380.499772 116.999577 L 406.500252 93.000008 L 409.99978 76.999951 L 406.000024 71.499512 L 389.49974 67.999984 L 373.000488 83.499813 " transform="matrix(3.779528,0,0,3.779528,0,0)"/>
<path style="fill:none;stroke-width:2;stroke-linecap:butt;stroke-linejoin:miter;stroke:rgb(0%,0%,0%);stroke-opacity:1;stroke-miterlimit:4;" d="M 386.999634 67.499756 L 373.000488 83.499813 L 371.499805 99.49987 L 371.499805 123.500472 L 370.000155 139.000301 L 368.000277 155.499552 L 368.000277 252.999544 L 367.500049 268.999601 L 365.500171 284.500464 L 361.500415 292.499976 L 357.499626 305.999927 L 357.999854 318.000228 L 381.500228 325.99974 L 398.000513 321.999984 L 413.999536 321.999984 " transform="matrix(3.779528,0,0,3.779528,0,0)"/>
</g>
</svg>
