<?xml version="1.0" encoding="UTF-8"?>
<svg xmlns="http://www.w3.org/2000/svg" xmlns:xlink="http://www.w3.org/1999/xlink" width="1935.11811" height="1935.11811" viewBox="0 0 1935.11811 1935.11811" version="1.1">
<g id="surface1">
<path style="fill:none;stroke-width:2;stroke-linecap:butt;stroke-linejoin:miter;stroke:rgb(0%,0%,0%);stroke-opacity:1;stroke-miterlimit:4;" d="M 129.500106 112.499593 L 125.50035 128.49965 L 141.500407 118.50026 L 157.500464 116.500382 L 175.500399 116.999577 L 191.500456 119.000488 L 207.500513 125.000122 " transform="matrix(3.779528,0,0,3.779528,0,0)"/>
<path style="fill:none;stroke-width:2;stroke-linecap:butt;stroke-linejoin:miter;stroke:rgb(0%,0%,0%);stroke-opacity:1;stroke-miterlimit:4;" d="M 217.499902 146.999813 L 249.500016 162.99987 L 271.499707 178.999927 " transform="matrix(3.779528,0,0,3.779528,0,0)"/>
<path style="fill:none;stroke-width:2;stroke-linecap:butt;stroke-linejoin:miter;stroke:rgb(0%,0%,0%);stroke-opacity:1;stroke-miterlimit:4;" d="M 282.000358 180.499577 L 266.000301 168.000081 " transform="matrix(3.779528,0,0,3.779528,0,0)"/>
<path style="fill:none;stroke-width:2;stroke-linecap:butt;stroke-linejoin:miter;stroke:rgb(0%,0%,0%);stroke-opacity:1;stroke-miterlimit:4;" d="M 267.499951 165.499976 L 287.499764 181.500033 L 305.499699 189.499544 " transform="matrix(3.779528,0,0,3.779528,0,0)"/>
<path style="fill:none;stroke-width:2;stroke-linecap:butt;stroke-linejoin:miter;stroke:rgb(0%,0%,0%);stroke-opacity:1;stroke-miterlimit:4;" d="M 305.000505 192.499878 L 289.000448 180.499577 L 273.499585 166.500431 " transform="matrix(3.779528,0,0,3.779528,0,0)"/>
<path style="fill:none;stroke-width:2;stroke-linecap:butt;stroke-linejoin:miter;stroke:rgb(0%,0%,0%);stroke-opacity:1;stroke-miterlimit:4;" d="M 273.999813 162.499642 L 291.49952 178.000505 L 303.499821 193.500334 " transform="matrix(3.779528,0,0,3.779528,0,0)"/>
<path style="fill:none;stroke-width:2;stroke-linecap:butt;stroke-linejoin:miter;stroke:rgb(0%,0%,0%);stroke-opacity:1;stroke-miterlimit:4;" d="M 313.000016 191.000228 L 296.999959 178.999927 L 276.499919 162.499642 L 259.999634 164.999748 L 244.499805 160.999992 L 228.499748 153.00048 L 212.999919 146.999813 L 209.000163 130.999756 L 193.000106 126.499772 L 177.000049 123.999666 L 161.50022 121.499561 L 145.500163 125.000122 L 143.500285 128.49965 L 127.500228 128.000456 " transform="matrix(3.779528,0,0,3.779528,0,0)"/>
<path style="fill:none;stroke-width:2;stroke-linecap:butt;stroke-linejoin:miter;stroke:rgb(0%,0%,0%);stroke-opacity:1;stroke-miterlimit:4;" d="M 112.000399 159.000114 L 98.00022 175.500399 L 103.999854 167.499854 " transform="matrix(3.779528,0,0,3.779528,0,0)"/>
<path style="fill:none;stroke-width:2;stroke-linecap:butt;stroke-linejoin:miter;stroke:rgb(0%,0%,0%);stroke-opacity:1;stroke-miterlimit:4;" d="M 102.500203 184.999561 L 118.000033 187.499666 L 134.00009 189.499544 L 150.000146 186.000016 " transform="matrix(3.779528,0,0,3.779528,0,0)"/>
<path style="fill:none;stroke-width:2;stroke-linecap:butt;stroke-linejoin:miter;stroke:rgb(0%,0%,0%);stroke-opacity:1;stroke-miterlimit:4;" d="M 130.000334 202.000073 L 145.500163 202.000073 L 160.999992 201.499845 L 193.000106 205.499601 L 209.000163 207.999707 L 225.00022 212.000496 L 241.000277 218.00013 L 257.499528 221.999886 L 273.499585 227.99952 L 289.499642 236.000065 L 305.499699 246.000488 L 321.499756 257.999756 L 337.499813 271.999935 L 353.49987 285.499886 L 370.000155 298.999837 " transform="matrix(3.779528,0,0,3.779528,0,0)"/>
<path style="fill:none;stroke-width:2;stroke-linecap:butt;stroke-linejoin:miter;stroke:rgb(0%,0%,0%);stroke-opacity:1;stroke-miterlimit:4;" d="M 320.000106 357.000431 L 312.499788 319.499878 L 290.500098 300.000293 L 268.500407 295.999504 " transform="matrix(3.779528,0,0,3.779528,0,0)"/>
<path style="fill:none;stroke-width:2;stroke-linecap:butt;stroke-linejoin:miter;stroke:rgb(0%,0%,0%);stroke-opacity:1;stroke-miterlimit:4;" d="M 277.000146 298.999837 L 309.00026 323.000439 L 320.500334 346.49978 L 325.99974 361.999609 L 332.000407 377.999666 L 334.000285 393.499495 L 329.999495 409.99978 L 323.999862 425.999837 L 316.00035 441.999894 L 302.000171 458.500179 L 311.999561 446.499878 L 327.999618 416.000448 " transform="matrix(3.779528,0,0,3.779528,0,0)"/>
<path style="fill:none;stroke-width:2;stroke-linecap:butt;stroke-linejoin:miter;stroke:rgb(0%,0%,0%);stroke-opacity:1;stroke-miterlimit:4;" d="M 308.500033 441.999894 L 318.500456 425.499609 L 325.99974 409.99978 L 327.999618 393.999723 L 325.499512 377.999666 L 320.000106 361.999609 L 314.000472 346.49978 L 305.999927 330.499723 L 293.500431 314.999894 L 271.499707 298.499609 L 261.500317 294.499854 L 245.50026 289.99987 L 229.500203 293.000203 L 213.500146 305.000505 " transform="matrix(3.779528,0,0,3.779528,0,0)"/>
<path style="fill:none;stroke-width:2;stroke-linecap:butt;stroke-linejoin:miter;stroke:rgb(0%,0%,0%);stroke-opacity:1;stroke-miterlimit:4;" d="M 207.000285 305.499699 L 223.000342 291.49952 " transform="matrix(3.779528,0,0,3.779528,0,0)"/>
<path style="fill:none;stroke-width:2;stroke-linecap:butt;stroke-linejoin:miter;stroke:rgb(0%,0%,0%);stroke-opacity:1;stroke-miterlimit:4;" d="M 205.499601 291.999748 L 221.499658 277.999569 L 237.999943 273.999813 L 257.999756 264.000423 L 280.00048 284.500464 L 298.000415 300.499487 L 305.999927 314.499666 L 318.500456 314.000472 L 328.499845 329.999495 L 334.500513 345.500358 L 334.000285 361.999609 " transform="matrix(3.779528,0,0,3.779528,0,0)"/>
<path style="fill:none;stroke-width:2;stroke-linecap:butt;stroke-linejoin:miter;stroke:rgb(0%,0%,0%);stroke-opacity:1;stroke-miterlimit:4;" d="M 343.50048 379.50035 L 343.50048 395.500407 L 341.999797 411.500464 L 339.999919 427.499487 L 334.000285 447.500334 L 307.999805 463.500391 L 309.999683 455.499845 L 325.99974 445.500456 " transform="matrix(3.779528,0,0,3.779528,0,0)"/>
<path style="fill:none;stroke-width:2;stroke-linecap:butt;stroke-linejoin:miter;stroke:rgb(0%,0%,0%);stroke-opacity:1;stroke-miterlimit:4;" d="M 273.000391 380.499772 L 257.000334 364.499715 " transform="matrix(3.779528,0,0,3.779528,0,0)"/>
<path style="fill:none;stroke-width:2;stroke-linecap:butt;stroke-linejoin:miter;stroke:rgb(0%,0%,0%);stroke-opacity:1;stroke-miterlimit:4;" d="M 255.999878 365.500171 L 252.50035 381.500228 L 248.499561 371.499805 L 264.499618 359.999731 " transform="matrix(3.779528,0,0,3.779528,0,0)"/>
<path style="fill:none;stroke-width:2;stroke-linecap:butt;stroke-linejoin:miter;stroke:rgb(0%,0%,0%);stroke-opacity:1;stroke-miterlimit:4;" d="M 264.499618 361.000187 L 270.500285 377.500472 L 273.999813 379.50035 " transform="matrix(3.779528,0,0,3.779528,0,0)"/>
<path style="fill:none;stroke-width:2;stroke-linecap:butt;stroke-linejoin:miter;stroke:rgb(0%,0%,0%);stroke-opacity:1;stroke-miterlimit:4;" d="M 261.00009 380.499772 L 260.499862 364.499715 " transform="matrix(3.779528,0,0,3.779528,0,0)"/>
<path style="fill:none;stroke-width:2;stroke-linecap:butt;stroke-linejoin:miter;stroke:rgb(0%,0%,0%);stroke-opacity:1;stroke-miterlimit:4;" d="M 257.499528 359.000309 L 247.500138 375.000366 L 259.500439 391.499618 L 253.499772 389.49974 " transform="matrix(3.779528,0,0,3.779528,0,0)"/>
<path style="fill:none;stroke-width:2;stroke-linecap:butt;stroke-linejoin:miter;stroke:rgb(0%,0%,0%);stroke-opacity:1;stroke-miterlimit:4;" d="M 198.000317 332.999829 L 218.00013 300.999715 L 205.999829 317.5 L 197.50009 333.500057 L 195.500212 350.000342 L 194.999984 366.000399 L 196.999862 382.000456 L 201.499845 398.499707 L 209.500391 414.499764 L 221.499658 430.499821 L 241.500505 447.000106 L 269.499829 466.499691 L 301.499943 468.999797 L 317.5 461.000285 L 334.000285 448.999984 L 352.00022 436.999683 L 368.000277 432.499699 L 384.499528 418.000326 L 400.499585 395.500407 L 416.499642 371.499805 L 432.499699 355.499748 L 450.999862 345.500358 L 465.000041 337.499813 L 477.000342 331.500179 L 486.999731 323.499634 L 502.999788 321.499756 L 495.000277 313.500244 L 460.500057 329.500301 L 432.499699 345.500358 L 416.99987 361.500415 L 404.999569 377.500472 L 395.000179 393.499495 L 384.499528 409.499552 L 363.999487 425.000415 " transform="matrix(3.779528,0,0,3.779528,0,0)"/>
<path style="fill:none;stroke-width:2;stroke-linecap:butt;stroke-linejoin:miter;stroke:rgb(0%,0%,0%);stroke-opacity:1;stroke-miterlimit:4;" d="M 364.499715 304.000049 L 348.499658 287.499764 L 332.499601 273.000391 L 316.00035 258.499984 L 300.499487 246.499683 L 284.500464 236.999487 L 268.000179 230.999854 L 252.000122 225.00022 L 235.499837 223.000342 L 223.000342 234.999609 L 207.500513 241.000277 L 191.500456 257.000334 L 175.500399 281.50013 L 162.000448 309.500488 L 165.499976 293.999626 L 171.499609 277.999569 L 181.500033 261.999512 L 195.500212 246.499683 L 215.500024 230.499626 L 229.500203 224.499992 L 212.999919 232.499504 L 196.999862 244.499805 L 181.500033 261.999512 L 165.499976 293.999626 " transform="matrix(3.779528,0,0,3.779528,0,0)"/>
<path style="fill:none;stroke-width:2;stroke-linecap:butt;stroke-linejoin:miter;stroke:rgb(0%,0%,0%);stroke-opacity:1;stroke-miterlimit:4;" d="M 152.000024 316.499544 L 135.49974 308.500033 L 119.499683 302.500399 L 103.999854 295.999504 L 87.999797 290.500098 " transform="matrix(3.779528,0,0,3.779528,0,0)"/>
<path style="fill:none;stroke-width:2;stroke-linecap:butt;stroke-linejoin:miter;stroke:rgb(0%,0%,0%);stroke-opacity:1;stroke-miterlimit:4;" d="M 76.999951 317.5 L 60.999894 315.500122 L 44.999837 307.499577 " transform="matrix(3.779528,0,0,3.779528,0,0)"/>
<path style="fill:none;stroke-width:2;stroke-linecap:butt;stroke-linejoin:miter;stroke:rgb(0%,0%,0%);stroke-opacity:1;stroke-miterlimit:4;" d="M 41.000081 307.999805 L 57.000138 307.999805 L 73.000195 315.500122 L 82.500391 335.499935 L 112.499593 352.00022 L 150.000146 368.000277 " transform="matrix(3.779528,0,0,3.779528,0,0)"/>
<path style="fill:none;stroke-width:2;stroke-linecap:butt;stroke-linejoin:miter;stroke:rgb(0%,0%,0%);stroke-opacity:1;stroke-miterlimit:4;" d="M 134.500317 350.999764 L 118.000033 341.000374 L 101.999976 332.999829 L 98.00022 332.999829 L 84.000041 313.000016 L 84.000041 296.499731 L 82.000163 273.999813 L 81.499935 257.499528 L 81.499935 191.000228 L 65.499878 193.000106 " transform="matrix(3.779528,0,0,3.779528,0,0)"/>
<path style="fill:none;stroke-width:2;stroke-linecap:butt;stroke-linejoin:miter;stroke:rgb(0%,0%,0%);stroke-opacity:1;stroke-miterlimit:4;" d="M 67.499756 198.000317 L 85.499691 203.999951 L 85.499691 236.500293 L 85.999919 252.999544 L 85.999919 268.999601 L 82.000163 285.499886 L 132.000212 303.499821 L 166.000203 325.000317 L 166.000203 356.500203 L 155.99978 377.000244 L 171.499609 382.999878 L 187.499666 395.000179 L 205.999829 404.500374 L 221.999886 427.999715 L 237.499715 441.999894 L 252.999544 452.000317 L 268.999601 457.999951 L 285.499886 456.000073 L 301.499943 447.999528 L 317.5 425.999837 " transform="matrix(3.779528,0,0,3.779528,0,0)"/>
<path style="fill:none;stroke-width:2;stroke-linecap:butt;stroke-linejoin:miter;stroke:rgb(0%,0%,0%);stroke-opacity:1;stroke-miterlimit:4;" d="M 294.499854 294.499854 L 277.999569 280.499674 L 261.999512 282.499552 " transform="matrix(3.779528,0,0,3.779528,0,0)"/>
<path style="fill:none;stroke-width:2;stroke-linecap:butt;stroke-linejoin:miter;stroke:rgb(0%,0%,0%);stroke-opacity:1;stroke-miterlimit:4;" d="M 255.49965 256.500106 L 281.50013 272.500163 L 298.999837 288.50022 L 309.00026 300.499487 L 312.499788 316.00035 L 312.499788 332.000407 L 324.50009 341.499569 L 336.999585 359.499504 L 341.000374 367.500049 L 337.499813 382.999878 L 337.499813 398.999935 L 335.499935 414.999992 L 327.500423 431.000049 L 335.499935 435.500033 L 319.499878 451.50009 L 315.500122 449.500212 L 332.000407 434.000382 L 355.999976 430.499821 L 372.000033 422.999504 L 388.00009 404.999569 L 404.000146 379.000122 L 420.000203 359.000309 L 436.500488 345.00013 L 452.000317 334.999707 L 468.000374 327.000195 L 483.500203 320.500334 L 499.50026 312.499788 L 509.000456 312.499788 " transform="matrix(3.779528,0,0,3.779528,0,0)"/>
<path style="fill:none;stroke-width:2;stroke-linecap:butt;stroke-linejoin:miter;stroke:rgb(0%,0%,0%);stroke-opacity:1;stroke-miterlimit:4;" d="M 511.999756 316.999772 L 472.00013 330.999951 L 451.50009 345.00013 L 433.500155 354.99952 L 417.500098 370.999577 L 407.499674 386.999634 L 397.000057 402.500496 L 393.000301 414.499764 L 385.499984 416.000448 L 365.500171 432.000505 " transform="matrix(3.779528,0,0,3.779528,0,0)"/>
<path style="fill:none;stroke-width:2;stroke-linecap:butt;stroke-linejoin:miter;stroke:rgb(0%,0%,0%);stroke-opacity:1;stroke-miterlimit:4;" d="M 350.999764 293.500431 L 334.999707 277.500374 L 316.999772 261.00009 L 302.999593 245.50026 L 274.500041 229.500203 L 234.500415 225.500448 L 224.499992 217.499902 L 208.499935 213.500146 L 193.000106 211.500269 L 160.999992 207.500513 L 144.999935 205.999829 L 129.500106 205.999829 " transform="matrix(3.779528,0,0,3.779528,0,0)"/>
<path style="fill:none;stroke-width:2;stroke-linecap:butt;stroke-linejoin:miter;stroke:rgb(0%,0%,0%);stroke-opacity:1;stroke-miterlimit:4;" d="M 171.999837 149.499919 L 187.999894 149.499919 " transform="matrix(3.779528,0,0,3.779528,0,0)"/>
<path style="fill:none;stroke-width:2;stroke-linecap:butt;stroke-linejoin:miter;stroke:rgb(0%,0%,0%);stroke-opacity:1;stroke-miterlimit:4;" d="M 170.500187 146.499585 L 186.500244 146.499585 L 202.500301 139.999723 L 208.499935 135.999967 L 190.5 152.000024 L 180.499577 168.000081 L 169.999959 184.000138 L 186.000016 195.500212 L 202.000073 195.500212 L 218.00013 191.99965 L 237.999943 200.000195 L 254 196.000439 L 286.000114 196.000439 L 300.000293 193.999528 L 327.500423 200.000195 L 343.999674 200.000195 L 359.999731 199.499967 L 375.999788 191.500456 L 392.500073 191.000228 L 410.500008 194.999984 L 425.999837 194.999984 L 441.999894 187.499666 L 445.99965 191.500456 L 461.999707 185.499788 L 463.999585 189.499544 L 479.999642 181.500033 L 504.500472 184.000138 " transform="matrix(3.779528,0,0,3.779528,0,0)"/>
<path style="fill:none;stroke-width:2;stroke-linecap:butt;stroke-linejoin:miter;stroke:rgb(0%,0%,0%);stroke-opacity:1;stroke-miterlimit:4;" d="M 500.000488 180.999805 L 484.000431 187.499666 L 468.000374 189.499544 " transform="matrix(3.779528,0,0,3.779528,0,0)"/>
<path style="fill:none;stroke-width:2;stroke-linecap:butt;stroke-linejoin:miter;stroke:rgb(0%,0%,0%);stroke-opacity:1;stroke-miterlimit:4;" d="M 429.999593 189.499544 L 413.999536 189.999772 L 398.000513 198.000317 L 382.49965 198.499512 L 357.000431 194.999984 L 341.000374 194.999984 L 325.000317 200.999618 L 309.00026 200.500423 L 292.499976 200.500423 L 276.499919 202.000073 L 260.499862 201.499845 L 242.499927 193.000106 L 225.999642 197.50009 L 207.999707 189.999772 L 191.99965 189.999772 L 175.999593 190.5 L 159.999536 192.499878 L 144.000513 189.999772 L 121.999788 182.00026 L 105.999731 181.500033 L 89.999674 183.49991 L 73.999618 184.000138 L 57.500366 179.500155 L 41.500309 179.500155 L 25.500252 177.500277 L 10.000423 175.500399 L 33.999992 153.499674 " transform="matrix(3.779528,0,0,3.779528,0,0)"/>
<path style="fill:none;stroke-width:2;stroke-linecap:butt;stroke-linejoin:miter;stroke:rgb(0%,0%,0%);stroke-opacity:1;stroke-miterlimit:4;" d="M 29.500008 157.999658 L 45.500065 153.999902 L 61.500122 152.000024 L 76.999951 150.000146 L 92.49978 149.499919 L 107.999609 152.000024 L 123.500472 157.999658 L 139.499495 164.49952 L 155.000358 175.000171 L 170.500187 182.999683 " transform="matrix(3.779528,0,0,3.779528,0,0)"/>
<path style="fill:none;stroke-width:2;stroke-linecap:butt;stroke-linejoin:miter;stroke:rgb(0%,0%,0%);stroke-opacity:1;stroke-miterlimit:4;" d="M 166.500431 182.500488 L 140.499951 166.500431 L 112.999821 158.499886 L 96.999764 155.99978 L 80.999707 157.999658 L 48.999593 157.999658 L 32.500342 162.000448 L 17.000513 167.499854 " transform="matrix(3.779528,0,0,3.779528,0,0)"/>
<path style="fill:none;stroke-width:2;stroke-linecap:butt;stroke-linejoin:miter;stroke:rgb(0%,0%,0%);stroke-opacity:1;stroke-miterlimit:4;" d="M 44.999837 146.000391 L 37.000326 143.500285 L 19.000391 159.000114 L 8.999967 173.000293 L 14.999601 162.99987 L 30.500464 146.999813 L 46.999715 139.000301 L 62.999772 134.999512 L 78.999829 133.499862 L 94.999886 129.500106 L 110.999943 128.000456 L 127 115.499927 L 143.000057 109.500293 L 175.000171 109.500293 L 190.5 109.999487 L 206.500057 112.499593 L 221.999886 114.500505 L 237.499715 116.500382 L 252.999544 120.500138 L 268.999601 124.499894 L 284.500464 128.49965 L 300.499487 134.00009 L 316.999772 137.499618 L 333.500057 139.499495 L 350.000342 141.500407 L 366.000399 141.500407 L 398.000513 145.500163 L 413.999536 147.500041 L 430.499821 147.500041 L 446.499878 149.499919 L 463.000163 153.00048 L 479.00022 160.999992 L 494.500049 168.999504 L 510.500106 178.999927 " transform="matrix(3.779528,0,0,3.779528,0,0)"/>
<path style="fill:none;stroke-width:2;stroke-linecap:butt;stroke-linejoin:miter;stroke:rgb(0%,0%,0%);stroke-opacity:1;stroke-miterlimit:4;" d="M 499.000033 181.500033 L 485.500081 168.000081 L 450.999862 152.000024 " transform="matrix(3.779528,0,0,3.779528,0,0)"/>
<path style="fill:none;stroke-width:2;stroke-linecap:butt;stroke-linejoin:miter;stroke:rgb(0%,0%,0%);stroke-opacity:1;stroke-miterlimit:4;" d="M 390.500195 182.999683 L 373.99991 175.000171 L 357.999854 168.999504 " transform="matrix(3.779528,0,0,3.779528,0,0)"/>
<path style="fill:none;stroke-width:2;stroke-linecap:butt;stroke-linejoin:miter;stroke:rgb(0%,0%,0%);stroke-opacity:1;stroke-miterlimit:4;" d="M 356.500203 164.999748 L 372.50026 168.999504 L 388.500317 177.000049 " transform="matrix(3.779528,0,0,3.779528,0,0)"/>
<path style="fill:none;stroke-width:2;stroke-linecap:butt;stroke-linejoin:miter;stroke:rgb(0%,0%,0%);stroke-opacity:1;stroke-miterlimit:4;" d="M 402.500496 184.500366 L 372.50026 168.999504 " transform="matrix(3.779528,0,0,3.779528,0,0)"/>
<path style="fill:none;stroke-width:2;stroke-linecap:butt;stroke-linejoin:miter;stroke:rgb(0%,0%,0%);stroke-opacity:1;stroke-miterlimit:4;" d="M 316.499544 194.999984 L 302.999593 178.999927 " transform="matrix(3.779528,0,0,3.779528,0,0)"/>
<path style="fill:none;stroke-width:2;stroke-linecap:butt;stroke-linejoin:miter;stroke:rgb(0%,0%,0%);stroke-opacity:1;stroke-miterlimit:4;" d="M 277.500374 182.00026 L 261.500317 169.999959 " transform="matrix(3.779528,0,0,3.779528,0,0)"/>
<path style="fill:none;stroke-width:2;stroke-linecap:butt;stroke-linejoin:miter;stroke:rgb(0%,0%,0%);stroke-opacity:1;stroke-miterlimit:4;" d="M 271.999935 159.500342 L 277.999569 175.500399 " transform="matrix(3.779528,0,0,3.779528,0,0)"/>
<path style="fill:none;stroke-width:2;stroke-linecap:butt;stroke-linejoin:miter;stroke:rgb(0%,0%,0%);stroke-opacity:1;stroke-miterlimit:4;" d="M 295.000081 136.500195 L 279.000024 132.500439 " transform="matrix(3.779528,0,0,3.779528,0,0)"/>
<path style="fill:none;stroke-width:2;stroke-linecap:butt;stroke-linejoin:miter;stroke:rgb(0%,0%,0%);stroke-opacity:1;stroke-miterlimit:4;" d="M 282.99978 127.500228 L 320.999528 143.500285 L 339.499691 145.500163 L 355.499748 145.500163 L 375.999788 146.999813 L 393.999723 149.499919 L 411.999658 151.499797 L 429.999593 153.999902 L 447.999528 155.99978 L 463.999585 162.499642 L 479.999642 170.500187 " transform="matrix(3.779528,0,0,3.779528,0,0)"/>
<path style="fill:none;stroke-width:2;stroke-linecap:butt;stroke-linejoin:miter;stroke:rgb(0%,0%,0%);stroke-opacity:1;stroke-miterlimit:4;" d="M 501.500138 357.499626 L 473.49978 373.499683 L 436.00026 389.49974 L 393.999723 411.999658 L 409.499552 402.000269 L 425.499609 393.999723 L 441.999894 388.00009 L 457.999951 381.500228 L 474.500236 373.499683 L 490.500293 365.500171 L 502.000366 369.499927 " transform="matrix(3.779528,0,0,3.779528,0,0)"/>
<path style="fill:none;stroke-width:2;stroke-linecap:butt;stroke-linejoin:miter;stroke:rgb(0%,0%,0%);stroke-opacity:1;stroke-miterlimit:4;" d="M 502.000366 363.000065 L 486.000309 373.000488 L 470.000252 381 L 454.500423 389.49974 L 438.500366 395.500407 L 422.000081 402.000269 L 406.000024 411.999658 L 395.999601 421.499854 L 413.999536 405.499797 L 449.500212 389.49974 L 484.499626 373.499683 L 506.50035 357.499626 " transform="matrix(3.779528,0,0,3.779528,0,0)"/>
<path style="fill:none;stroke-width:2;stroke-linecap:butt;stroke-linejoin:miter;stroke:rgb(0%,0%,0%);stroke-opacity:1;stroke-miterlimit:4;" d="M 508.500228 412.499886 L 490.999487 428.499943 L 463.000163 444.5 L 454.999618 450.499634 L 471.499902 440.000016 L 487.499959 431.500277 L 503.500016 416.99987 " transform="matrix(3.779528,0,0,3.779528,0,0)"/>
<path style="fill:none;stroke-width:2;stroke-linecap:butt;stroke-linejoin:miter;stroke:rgb(0%,0%,0%);stroke-opacity:1;stroke-miterlimit:4;" d="M 511.999756 418.49952 L 493.999821 434.999805 L 463.500391 450.999862 L 467.500146 448.499756 L 483.500203 442.500122 L 499.50026 427.999715 " transform="matrix(3.779528,0,0,3.779528,0,0)"/>
<path style="fill:none;stroke-width:2;stroke-linecap:butt;stroke-linejoin:miter;stroke:rgb(0%,0%,0%);stroke-opacity:1;stroke-miterlimit:4;" d="M 317.5 477.000342 L 315.500122 472.999552 L 299.500065 477.499536 L 283.500008 471.499902 L 267.499951 463.500391 L 252.000122 457.499723 L 225.999642 459.999829 L 210.499813 447.999528 L 194.999984 422.500309 L 178.999927 412.499886 L 163.500098 406.500252 L 147.500041 400.499585 L 130.999756 396.499829 L 114.999699 389.999967 L 98.999642 386.000212 L 82.999585 379.50035 L 66.999528 372.000033 L 51.000505 366.000399 L 35.000448 360.499959 L 19.000391 352.500448 L 3.000334 350.499536 " transform="matrix(3.779528,0,0,3.779528,0,0)"/>
<path style="fill:none;stroke-width:2;stroke-linecap:butt;stroke-linejoin:miter;stroke:rgb(0%,0%,0%);stroke-opacity:1;stroke-miterlimit:4;" d="M 14.999601 352.00022 L 51.000505 367.500049 L 91.500358 383.500106 L 139.999723 399.500163 L 180.499577 415.50022 L 200.500423 432.000505 L 209.000163 447.999528 L 230.999854 463.999585 " transform="matrix(3.779528,0,0,3.779528,0,0)"/>
<path style="fill:none;stroke-width:2;stroke-linecap:butt;stroke-linejoin:miter;stroke:rgb(0%,0%,0%);stroke-opacity:1;stroke-miterlimit:4;" d="M 146.000391 364.999943 L 130.000334 359.000309 L 114.000277 350.999764 L 98.00022 343.000252 L 82.000163 332.999829 L 66.000106 325.499512 L 50.000049 319.499878 " transform="matrix(3.779528,0,0,3.779528,0,0)"/>
<path style="fill:none;stroke-width:2;stroke-linecap:butt;stroke-linejoin:miter;stroke:rgb(0%,0%,0%);stroke-opacity:1;stroke-miterlimit:4;" d="M 51.499699 323.499634 L 67.499756 331.500179 L 83.499813 339.499691 " transform="matrix(3.779528,0,0,3.779528,0,0)"/>
<path style="fill:none;stroke-width:2;stroke-linecap:butt;stroke-linejoin:miter;stroke:rgb(0%,0%,0%);stroke-opacity:1;stroke-miterlimit:4;" d="M 93.000008 327.500423 L 69.499634 309.999683 L 35.99987 300.000293 L 19.999813 295.999504 " transform="matrix(3.779528,0,0,3.779528,0,0)"/>
<path style="fill:none;stroke-width:2;stroke-linecap:butt;stroke-linejoin:miter;stroke:rgb(0%,0%,0%);stroke-opacity:1;stroke-miterlimit:4;" d="M 14.999601 284.000236 L 30.999658 291.49952 L 46.999715 299.500065 L 78.999829 312.499788 " transform="matrix(3.779528,0,0,3.779528,0,0)"/>
<path style="fill:none;stroke-width:2;stroke-linecap:butt;stroke-linejoin:miter;stroke:rgb(0%,0%,0%);stroke-opacity:1;stroke-miterlimit:4;" d="M 128.49965 305.999927 L 80.500513 282.000358 L 64.500456 275.999691 L 48.500399 270.000057 L 32.999536 263.500195 L 17.000513 261.500317 " transform="matrix(3.779528,0,0,3.779528,0,0)"/>
<path style="fill:none;stroke-width:2;stroke-linecap:butt;stroke-linejoin:miter;stroke:rgb(0%,0%,0%);stroke-opacity:1;stroke-miterlimit:4;" d="M 17.999935 257.999756 L 39.999626 273.999813 " transform="matrix(3.779528,0,0,3.779528,0,0)"/>
<path style="fill:none;stroke-width:2;stroke-linecap:butt;stroke-linejoin:miter;stroke:rgb(0%,0%,0%);stroke-opacity:1;stroke-miterlimit:4;" d="M 21.000269 264.499618 L 37.000326 271.999935 L 53.000382 277.999569 L 69.000439 283.500008 L 84.500269 287.499764 L 101.999976 289.499642 L 118.000033 295.500309 L 133.499862 301.499943 L 149.499919 307.499577 " transform="matrix(3.779528,0,0,3.779528,0,0)"/>
<path style="fill:none;stroke-width:2;stroke-linecap:butt;stroke-linejoin:miter;stroke:rgb(0%,0%,0%);stroke-opacity:1;stroke-miterlimit:4;" d="M 150.999569 374.500138 L 134.500317 368.500505 L 118.50026 361.999609 L 86.500146 348.999886 L 69.999862 345.500358 L 53.999805 339.999919 L 37.999748 334.000285 L 21.999691 328.499845 L 5.999634 322.500212 " transform="matrix(3.779528,0,0,3.779528,0,0)"/>
<path style="fill:none;stroke-width:2;stroke-linecap:butt;stroke-linejoin:miter;stroke:rgb(0%,0%,0%);stroke-opacity:1;stroke-miterlimit:4;" d="M 13.499951 324.50009 L 55.500488 334.500513 " transform="matrix(3.779528,0,0,3.779528,0,0)"/>
<path style="fill:none;stroke-width:2;stroke-linecap:butt;stroke-linejoin:miter;stroke:rgb(0%,0%,0%);stroke-opacity:1;stroke-miterlimit:4;" d="M 82.500391 344.499902 L 66.500334 338.500269 L 50.500277 330.499723 L 34.50022 324.50009 L 19.000391 318.500456 L 3.000334 314.499666 " transform="matrix(3.779528,0,0,3.779528,0,0)"/>
<path style="fill:none;stroke-width:2;stroke-linecap:butt;stroke-linejoin:miter;stroke:rgb(0%,0%,0%);stroke-opacity:1;stroke-miterlimit:4;" d="M 4.499984 314.499666 L 44.499609 330.499723 L 68.500212 334.500513 L 88.500024 352.500448 L 132.500439 368.500505 L 178.499699 384.499528 L 189.999772 400.000391 " transform="matrix(3.779528,0,0,3.779528,0,0)"/>
<path style="fill:none;stroke-width:2;stroke-linecap:butt;stroke-linejoin:miter;stroke:rgb(0%,0%,0%);stroke-opacity:1;stroke-miterlimit:4;" d="M 232.999731 274.500041 L 208.499935 290.500098 L 200.500423 291.999748 L 216.50048 273.999813 L 232.000309 264.499618 L 248.000366 262.49974 L 266.000301 268.000179 L 280.00048 289.499642 L 295.500309 302.999593 L 309.500488 308.500033 L 325.499512 336.000163 " transform="matrix(3.779528,0,0,3.779528,0,0)"/>
<path style="fill:none;stroke-width:2;stroke-linecap:butt;stroke-linejoin:miter;stroke:rgb(0%,0%,0%);stroke-opacity:1;stroke-miterlimit:4;" d="M 326.499967 324.50009 L 310.49991 298.000415 L 293.999626 280.00048 L 277.999569 265.500073 L 261.999512 257.499528 L 246.499683 252.999544 L 230.499626 257.499528 L 214.499569 268.000179 L 198.499512 286.000114 L 182.999683 320.500334 L 190.5 324.50009 L 190.5 314.499666 L 198.499512 304.500277 L 200.500423 292.499976 L 214.499569 276.499919 L 240.500049 260.499862 " transform="matrix(3.779528,0,0,3.779528,0,0)"/>
<path style="fill:none;stroke-width:2;stroke-linecap:butt;stroke-linejoin:miter;stroke:rgb(0%,0%,0%);stroke-opacity:1;stroke-miterlimit:4;" d="M 239.000399 254.500228 L 211.000041 270.500285 L 196.999862 286.000114 L 189.00035 301.499943 L 182.999683 317.5 L 178.999927 332.999829 L 179.500155 348.999886 L 186.000016 359.499504 L 184.000138 375.499561 L 193.999528 385.499984 " transform="matrix(3.779528,0,0,3.779528,0,0)"/>
<path style="fill:none;stroke-width:2;stroke-linecap:butt;stroke-linejoin:miter;stroke:rgb(0%,0%,0%);stroke-opacity:1;stroke-miterlimit:4;" d="M 140.499951 346.49978 L 116.000155 330.999951 L 87.999797 314.999894 L 87.999797 299.500065 L 60.000472 277.500374 L 22.499919 261.500317 " transform="matrix(3.779528,0,0,3.779528,0,0)"/>
<path style="fill:none;stroke-width:2;stroke-linecap:butt;stroke-linejoin:miter;stroke:rgb(0%,0%,0%);stroke-opacity:1;stroke-miterlimit:4;" d="M 6.499862 256.500106 L 8.999967 272.500163 L 12.999723 288.50022 L 42.999959 304.000049 L 78.999829 320.000106 L 89.000252 315.500122 L 105.000309 323.499634 L 121.000366 330.999951 L 137.499618 341.000374 L 153.499674 357.000431 L 169.499731 363.500293 " transform="matrix(3.779528,0,0,3.779528,0,0)"/>
<path style="fill:none;stroke-width:2;stroke-linecap:butt;stroke-linejoin:miter;stroke:rgb(0%,0%,0%);stroke-opacity:1;stroke-miterlimit:4;" d="M 159.999536 357.999854 L 159.999536 341.999797 L 161.50022 325.99974 L 167.499854 310.49991 L 171.499609 294.499854 L 177.500277 278.499797 L 189.499544 262.49974 L 201.499845 246.499683 " transform="matrix(3.779528,0,0,3.779528,0,0)"/>
<path style="fill:none;stroke-width:2;stroke-linecap:butt;stroke-linejoin:miter;stroke:rgb(0%,0%,0%);stroke-opacity:1;stroke-miterlimit:4;" d="M 246.99991 224.499992 L 286.999536 240.500049 L 318.99965 255.999878 L 336.999585 271.999935 L 354.500326 287.999992 " transform="matrix(3.779528,0,0,3.779528,0,0)"/>
<path style="fill:none;stroke-width:2;stroke-linecap:butt;stroke-linejoin:miter;stroke:rgb(0%,0%,0%);stroke-opacity:1;stroke-miterlimit:4;" d="M 160.999992 363.999487 L 143.000057 357.999854 L 121.000366 341.999797 L 78.999829 325.99974 L 44.999837 309.999683 L 10.499618 297.500187 L 4.499984 291.999748 L 5.999634 276.499919 L 3.999756 260.499862 L 5.500439 243.999577 L 3.999756 227.99952 " transform="matrix(3.779528,0,0,3.779528,0,0)"/>
</g>
</svg>
