<?xml version="1.0" encoding="UTF-8"?>
<svg xmlns="http://www.w3.org/2000/svg" xmlns:xlink="http://www.w3.org/1999/xlink" width="1935.11811" height="1935.11811" viewBox="0 0 1935.11811 1935.11811" version="1.1">
<g id="surface1">
<path style="fill:none;stroke-width:2;stroke-linecap:butt;stroke-linejoin:miter;stroke:rgb(0%,0%,0%);stroke-opacity:1;stroke-miterlimit:4;" d="M 23.500374 2.500106 L 23.500374 18.500163 L 25.500252 34.50022 L 23.500374 50.500277 L 23.500374 114.999699 L 23.000146 130.999756 L 23.000146 146.499585 L 22.499919 162.499642 L 23.000146 178.499699 L 35.000448 180.499577 L 66.999528 156.500008 L 83.499813 146.000391 L 101.499748 143.500285 L 117.499805 137.000423 L 133.499862 127 L 149.499919 123.000244 L 165.499976 118.50026 L 182.00026 116.500382 L 198.000317 116.500382 L 218.500358 118.50026 L 234.500415 116.999577 L 284.500464 116.999577 L 300.499487 113.500049 L 316.499544 113.500049 L 334.500513 121.499561 L 350.499536 123.500472 L 366.499593 121.999788 L 384.000334 134.00009 L 397.500285 137.999845 L 413.500342 146.000391 L 429.000171 146.000391 L 441.000472 159.999536 L 456.999495 162.000448 L 459.000407 169.999959 L 470.999674 171.999837 L 470.999674 180.000382 L 486.999731 191.99965 L 503.500016 200.500423 " transform="matrix(3.779528,0,0,3.779528,0,0)"/>
<path style="fill:none;stroke-width:2;stroke-linecap:butt;stroke-linejoin:miter;stroke:rgb(0%,0%,0%);stroke-opacity:1;stroke-miterlimit:4;" d="M 505.499894 209.500391 L 490.000065 193.500334 " transform="matrix(3.779528,0,0,3.779528,0,0)"/>
<path style="fill:none;stroke-width:2;stroke-linecap:butt;stroke-linejoin:miter;stroke:rgb(0%,0%,0%);stroke-opacity:1;stroke-miterlimit:4;" d="M 481.500326 236.500293 L 465.500269 234.500415 " transform="matrix(3.779528,0,0,3.779528,0,0)"/>
<path style="fill:none;stroke-width:2;stroke-linecap:butt;stroke-linejoin:miter;stroke:rgb(0%,0%,0%);stroke-opacity:1;stroke-miterlimit:4;" d="M 461.000285 256.500106 L 484.499626 272.500163 L 496.499927 287.999992 L 484.499626 293.999626 L 470.000252 310.49991 L 477.999764 328.499845 L 481.99952 338.000041 L 509.999878 331.500179 " transform="matrix(3.779528,0,0,3.779528,0,0)"/>
<path style="fill:none;stroke-width:2;stroke-linecap:butt;stroke-linejoin:miter;stroke:rgb(0%,0%,0%);stroke-opacity:1;stroke-miterlimit:4;" d="M 494.500049 325.99974 L 478.499992 327.500423 " transform="matrix(3.779528,0,0,3.779528,0,0)"/>
<path style="fill:none;stroke-width:2;stroke-linecap:butt;stroke-linejoin:miter;stroke:rgb(0%,0%,0%);stroke-opacity:1;stroke-miterlimit:4;" d="M 463.999585 316.00035 L 479.999642 300.000293 " transform="matrix(3.779528,0,0,3.779528,0,0)"/>
<path style="fill:none;stroke-width:2;stroke-linecap:butt;stroke-linejoin:miter;stroke:rgb(0%,0%,0%);stroke-opacity:1;stroke-miterlimit:4;" d="M 493.999821 282.000358 L 477.999764 264.000423 L 461.500513 255.999878 L 445.500456 253.499772 L 429.500399 257.499528 L 413.999536 267.499951 L 398.000513 284.999658 L 382.49965 317.5 L 392.500073 311.500366 L 404.500374 287.999992 L 388.500317 320.500334 " transform="matrix(3.779528,0,0,3.779528,0,0)"/>
<path style="fill:none;stroke-width:2;stroke-linecap:butt;stroke-linejoin:miter;stroke:rgb(0%,0%,0%);stroke-opacity:1;stroke-miterlimit:4;" d="M 408.50013 317.5 L 424.500187 321.499756 L 424.500187 318.000228 L 432.499699 334.000285 L 418.49952 361.999609 L 418.49952 377.999666 L 438.500366 393.999723 L 452.000317 373.99991 L 468.000374 366.000399 L 452.000317 359.499504 L 457.999951 375.499561 " transform="matrix(3.779528,0,0,3.779528,0,0)"/>
<path style="fill:none;stroke-width:2;stroke-linecap:butt;stroke-linejoin:miter;stroke:rgb(0%,0%,0%);stroke-opacity:1;stroke-miterlimit:4;" d="M 472.00013 355.999976 L 456.000073 350.000342 " transform="matrix(3.779528,0,0,3.779528,0,0)"/>
<path style="fill:none;stroke-width:2;stroke-linecap:butt;stroke-linejoin:miter;stroke:rgb(0%,0%,0%);stroke-opacity:1;stroke-miterlimit:4;" d="M 463.999585 345.500358 L 479.999642 354.000098 " transform="matrix(3.779528,0,0,3.779528,0,0)"/>
<path style="fill:none;stroke-width:2;stroke-linecap:butt;stroke-linejoin:miter;stroke:rgb(0%,0%,0%);stroke-opacity:1;stroke-miterlimit:4;" d="M 497.000155 363.500293 L 500.499683 347.500236 L 498.499805 329.500301 L 494.500049 313.500244 L 484.499626 309.999683 L 484.000431 310.49991 L 477.999764 311.000138 L 461.999707 323.000439 L 455.499845 316.999772 L 471.499902 300.999715 L 473.49978 284.500464 L 447.500334 282.99978 " transform="matrix(3.779528,0,0,3.779528,0,0)"/>
<path style="fill:none;stroke-width:2;stroke-linecap:butt;stroke-linejoin:miter;stroke:rgb(0%,0%,0%);stroke-opacity:1;stroke-miterlimit:4;" d="M 445.500456 279.000024 L 427.499487 268.999601 L 419.499976 285.499886 L 421.499854 291.49952 L 413.500342 307.999805 L 405.499797 307.999805 L 401.500041 323.999862 L 399.500163 339.499691 L 405.499797 335.499935 L 421.499854 332.000407 L 431.500277 325.99974 L 447.500334 309.999683 L 456.000073 302.000171 L 470.000252 302.000171 L 493.999821 302.500399 L 475.999886 312.499788 L 459.999829 332.499601 L 456.500301 339.999919 L 462.499935 355.999976 L 464.499813 371.499805 L 456.000073 386.000212 L 436.00026 391.999845 L 452.000317 393.999723 L 458.500179 386.000212 L 474.500236 380.499772 L 490.500293 368.000277 L 500.499683 370.500382 " transform="matrix(3.779528,0,0,3.779528,0,0)"/>
<path style="fill:none;stroke-width:2;stroke-linecap:butt;stroke-linejoin:miter;stroke:rgb(0%,0%,0%);stroke-opacity:1;stroke-miterlimit:4;" d="M 508 357.999854 L 507.499772 341.999797 L 493.999821 309.999683 L 477.999764 286.000114 L 461.999707 275.999691 L 445.99965 273.999813 L 429.999593 282.000358 " transform="matrix(3.779528,0,0,3.779528,0,0)"/>
<path style="fill:none;stroke-width:2;stroke-linecap:butt;stroke-linejoin:miter;stroke:rgb(0%,0%,0%);stroke-opacity:1;stroke-miterlimit:4;" d="M 427.999715 289.499642 L 431.500277 303.499821 L 431.500277 313.000016 " transform="matrix(3.779528,0,0,3.779528,0,0)"/>
<path style="fill:none;stroke-width:2;stroke-linecap:butt;stroke-linejoin:miter;stroke:rgb(0%,0%,0%);stroke-opacity:1;stroke-miterlimit:4;" d="M 445.500456 315.500122 L 443.00035 299.500065 L 441.000472 283.500008 L 422.999504 277.000146 " transform="matrix(3.779528,0,0,3.779528,0,0)"/>
<path style="fill:none;stroke-width:2;stroke-linecap:butt;stroke-linejoin:miter;stroke:rgb(0%,0%,0%);stroke-opacity:1;stroke-miterlimit:4;" d="M 434.999805 271.999935 L 450.999862 268.000179 L 467.500146 269.499829 L 483.500203 284.000236 L 499.50026 298.000415 L 503.500016 314.000472 L 501.500138 329.999495 L 493.999821 345.999552 L 488.500415 361.999609 L 482.499748 372.000033 L 478.499992 393.999723 " transform="matrix(3.779528,0,0,3.779528,0,0)"/>
<path style="fill:none;stroke-width:2;stroke-linecap:butt;stroke-linejoin:miter;stroke:rgb(0%,0%,0%);stroke-opacity:1;stroke-miterlimit:4;" d="M 486.000309 382.49965 L 484.000431 390.500195 L 500.000488 388.00009 " transform="matrix(3.779528,0,0,3.779528,0,0)"/>
<path style="fill:none;stroke-width:2;stroke-linecap:butt;stroke-linejoin:miter;stroke:rgb(0%,0%,0%);stroke-opacity:1;stroke-miterlimit:4;" d="M 500.000488 380.499772 L 484.000431 384.499528 L 468.000374 402.500496 L 402.999691 402.500496 L 386.500439 400.499585 L 370.500382 400.999813 " transform="matrix(3.779528,0,0,3.779528,0,0)"/>
<path style="fill:none;stroke-width:2;stroke-linecap:butt;stroke-linejoin:miter;stroke:rgb(0%,0%,0%);stroke-opacity:1;stroke-miterlimit:4;" d="M 381.500228 371.499805 L 365.500171 373.499683 L 349.500114 373.499683 L 329.500301 367.500049 L 313.500244 366.000399 " transform="matrix(3.779528,0,0,3.779528,0,0)"/>
<path style="fill:none;stroke-width:2;stroke-linecap:butt;stroke-linejoin:miter;stroke:rgb(0%,0%,0%);stroke-opacity:1;stroke-miterlimit:4;" d="M 377.000244 351.499992 L 381 335.499935 L 382.49965 318.99965 L 388.500317 302.999593 L 396.499829 286.999536 L 409.99978 271.000513 L 432.000505 255.49965 L 419.499976 277.999569 L 402.999691 293.500431 " transform="matrix(3.779528,0,0,3.779528,0,0)"/>
<path style="fill:none;stroke-width:2;stroke-linecap:butt;stroke-linejoin:miter;stroke:rgb(0%,0%,0%);stroke-opacity:1;stroke-miterlimit:4;" d="M 406.000024 300.999715 L 422.000081 300.999715 L 428.499943 302.999593 L 438.000138 318.99965 L 429.999593 339.000496 L 411.500464 354.500326 L 423.499731 338.500269 L 416.99987 336.500391 " transform="matrix(3.779528,0,0,3.779528,0,0)"/>
<path style="fill:none;stroke-width:2;stroke-linecap:butt;stroke-linejoin:miter;stroke:rgb(0%,0%,0%);stroke-opacity:1;stroke-miterlimit:4;" d="M 431.000049 354.500326 L 429.000171 370.500382 " transform="matrix(3.779528,0,0,3.779528,0,0)"/>
<path style="fill:none;stroke-width:2;stroke-linecap:butt;stroke-linejoin:miter;stroke:rgb(0%,0%,0%);stroke-opacity:1;stroke-miterlimit:4;" d="M 433.500155 379.000122 L 438.999561 363.000065 L 443.00035 350.999764 L 426.500065 358.500081 L 409.99978 368.999699 " transform="matrix(3.779528,0,0,3.779528,0,0)"/>
<path style="fill:none;stroke-width:2;stroke-linecap:butt;stroke-linejoin:miter;stroke:rgb(0%,0%,0%);stroke-opacity:1;stroke-miterlimit:4;" d="M 401.500041 381.500228 L 381 359.499504 L 364.499715 365.500171 L 348.499658 365.500171 L 336.500391 377.500472 L 320.999528 377.999666 L 305.000505 378.499894 L 289.499642 376.500016 L 273.499585 376.500016 L 257.999756 377.000244 L 241.999699 375.000366 L 178.000505 375.000366 L 162.000448 373.000488 L 146.000391 372.50026 L 130.000334 370.000155 L 113.500049 369.499927 L 81.499935 369.499927 L 65.499878 366.999821 L 49.499821 364.999943 L 33.499764 364.999943 " transform="matrix(3.779528,0,0,3.779528,0,0)"/>
<path style="fill:none;stroke-width:2;stroke-linecap:butt;stroke-linejoin:miter;stroke:rgb(0%,0%,0%);stroke-opacity:1;stroke-miterlimit:4;" d="M 35.499642 373.99991 L 51.499699 373.99991 L 67.499756 374.500138 L 83.499813 374.500138 " transform="matrix(3.779528,0,0,3.779528,0,0)"/>
<path style="fill:none;stroke-width:2;stroke-linecap:butt;stroke-linejoin:miter;stroke:rgb(0%,0%,0%);stroke-opacity:1;stroke-miterlimit:4;" d="M 44.499609 395.000179 L 60.000472 397.500285 L 75.999495 397.500285 L 91.999552 398.000513 L 108.499837 398.000513 L 124.499894 398.499707 L 140.499951 398.999935 L 155.99978 398.999935 " transform="matrix(3.779528,0,0,3.779528,0,0)"/>
<path style="fill:none;stroke-width:2;stroke-linecap:butt;stroke-linejoin:miter;stroke:rgb(0%,0%,0%);stroke-opacity:1;stroke-miterlimit:4;" d="M 153.499674 377.999666 L 202.000073 377.999666 L 218.00013 380.499772 L 250.000244 380.499772 L 266.499495 382.000456 L 282.499552 382.000456 L 298.499609 381.500228 L 314.000472 384.000334 L 329.999495 382.000456 L 345.999552 379.999544 L 368.500505 377.999666 L 384.499528 378.499894 " transform="matrix(3.779528,0,0,3.779528,0,0)"/>
<path style="fill:none;stroke-width:2;stroke-linecap:butt;stroke-linejoin:miter;stroke:rgb(0%,0%,0%);stroke-opacity:1;stroke-miterlimit:4;" d="M 398.999935 378.499894 L 391.000423 362.499837 " transform="matrix(3.779528,0,0,3.779528,0,0)"/>
<path style="fill:none;stroke-width:2;stroke-linecap:butt;stroke-linejoin:miter;stroke:rgb(0%,0%,0%);stroke-opacity:1;stroke-miterlimit:4;" d="M 374.500138 355.999976 L 358.500081 359.999731 L 342.500024 359.999731 L 325.99974 361.999609 L 321.999984 354.000098 L 305.999927 353.49987 L 289.99987 351.499992 L 273.999813 348.999886 L 257.499528 345.500358 L 241.000277 341.499569 L 225.500448 335.499935 L 209.500391 335.499935 L 193.500334 333.500057 L 177.500277 327.500423 L 161.50022 323.999862 L 145.500163 320.000106 L 129.500106 317.5 L 113.500049 313.500244 L 98.00022 309.500488 L 82.000163 305.499699 L 51.000505 297.500187 L 35.000448 293.999626 L 19.000391 280.00048 L 3.000334 264.499618 " transform="matrix(3.779528,0,0,3.779528,0,0)"/>
<path style="fill:none;stroke-width:2;stroke-linecap:butt;stroke-linejoin:miter;stroke:rgb(0%,0%,0%);stroke-opacity:1;stroke-miterlimit:4;" d="M 9.500195 264.499618 L 25.500252 280.499674 " transform="matrix(3.779528,0,0,3.779528,0,0)"/>
<path style="fill:none;stroke-width:2;stroke-linecap:butt;stroke-linejoin:miter;stroke:rgb(0%,0%,0%);stroke-opacity:1;stroke-miterlimit:4;" d="M 12.000301 289.499642 L 20.500041 305.499699 L 20.500041 331.500179 L 14.500407 357.999854 L 4.499984 373.99991 L 14.500407 354.000098 " transform="matrix(3.779528,0,0,3.779528,0,0)"/>
<path style="fill:none;stroke-width:2;stroke-linecap:butt;stroke-linejoin:miter;stroke:rgb(0%,0%,0%);stroke-opacity:1;stroke-miterlimit:4;" d="M 19.000391 333.500057 L 3.000334 334.000285 " transform="matrix(3.779528,0,0,3.779528,0,0)"/>
<path style="fill:none;stroke-width:2;stroke-linecap:butt;stroke-linejoin:miter;stroke:rgb(0%,0%,0%);stroke-opacity:1;stroke-miterlimit:4;" d="M 19.000391 314.000472 L 3.000334 289.99987 " transform="matrix(3.779528,0,0,3.779528,0,0)"/>
<path style="fill:none;stroke-width:2;stroke-linecap:butt;stroke-linejoin:miter;stroke:rgb(0%,0%,0%);stroke-opacity:1;stroke-miterlimit:4;" d="M 3.499528 280.00048 L 19.499585 298.000415 " transform="matrix(3.779528,0,0,3.779528,0,0)"/>
<path style="fill:none;stroke-width:2;stroke-linecap:butt;stroke-linejoin:miter;stroke:rgb(0%,0%,0%);stroke-opacity:1;stroke-miterlimit:4;" d="M 2.500106 279.500252 L 6.499862 295.500309 L 15.499829 311.500366 L 3.999756 327.500423 L 7.999512 355.499748 L 14.000179 341.999797 " transform="matrix(3.779528,0,0,3.779528,0,0)"/>
<path style="fill:none;stroke-width:2;stroke-linecap:butt;stroke-linejoin:miter;stroke:rgb(0%,0%,0%);stroke-opacity:1;stroke-miterlimit:4;" d="M 32.999536 332.499601 L 36.500098 316.499544 " transform="matrix(3.779528,0,0,3.779528,0,0)"/>
<path style="fill:none;stroke-width:2;stroke-linecap:butt;stroke-linejoin:miter;stroke:rgb(0%,0%,0%);stroke-opacity:1;stroke-miterlimit:4;" d="M 53.499577 307.499577 L 41.500309 323.499634 L 39.999626 339.499691 L 32.000114 355.499748 L 33.999992 351.499992 L 57.999561 319.499878 " transform="matrix(3.779528,0,0,3.779528,0,0)"/>
<path style="fill:none;stroke-width:2;stroke-linecap:butt;stroke-linejoin:miter;stroke:rgb(0%,0%,0%);stroke-opacity:1;stroke-miterlimit:4;" d="M 55.00026 307.499577 L 39.000203 314.999894 L 60.999894 316.499544 L 66.500334 300.499487 " transform="matrix(3.779528,0,0,3.779528,0,0)"/>
<path style="fill:none;stroke-width:2;stroke-linecap:butt;stroke-linejoin:miter;stroke:rgb(0%,0%,0%);stroke-opacity:1;stroke-miterlimit:4;" d="M 21.500496 285.499886 L 7.500317 269.499829 " transform="matrix(3.779528,0,0,3.779528,0,0)"/>
<path style="fill:none;stroke-width:2;stroke-linecap:butt;stroke-linejoin:miter;stroke:rgb(0%,0%,0%);stroke-opacity:1;stroke-miterlimit:4;" d="M 3.999756 257.999756 L 19.999813 270.000057 L 35.499642 287.999992 L 51.000505 291.49952 L 66.500334 295.500309 L 82.500391 300.000293 L 98.00022 303.499821 L 114.000277 307.499577 L 130.000334 311.000138 L 146.000391 313.500244 L 178.000505 321.499756 " transform="matrix(3.779528,0,0,3.779528,0,0)"/>
<path style="fill:none;stroke-width:2;stroke-linecap:butt;stroke-linejoin:miter;stroke:rgb(0%,0%,0%);stroke-opacity:1;stroke-miterlimit:4;" d="M 200.999618 396.499829 L 216.999674 398.499707 L 232.499504 398.999935 L 248.499561 398.999935 L 264.000423 401.500041 L 343.999674 401.500041 " transform="matrix(3.779528,0,0,3.779528,0,0)"/>
<path style="fill:none;stroke-width:2;stroke-linecap:butt;stroke-linejoin:miter;stroke:rgb(0%,0%,0%);stroke-opacity:1;stroke-miterlimit:4;" d="M 371.499805 352.500448 L 339.499691 352.500448 L 323.499634 350.999764 L 307.499577 348.999886 L 291.000326 347.000008 L 275.000269 345.00013 L 259.000212 341.000374 L 243.000155 336.999585 L 227.000098 330.999951 L 210.499813 325.499512 L 194.499756 316.999772 L 178.499699 309.00026 L 162.499642 300.999715 L 146.499585 293.000203 L 130.499528 284.500464 L 114.500505 276.499919 L 98.999642 268.500407 L 82.999585 259.999634 L 66.999528 254 L 51.000505 248.000366 L 35.000448 239.999821 L 18.500163 234.000187 L 3.000334 229.500203 " transform="matrix(3.779528,0,0,3.779528,0,0)"/>
<path style="fill:none;stroke-width:2;stroke-linecap:butt;stroke-linejoin:miter;stroke:rgb(0%,0%,0%);stroke-opacity:1;stroke-miterlimit:4;" d="M 4.499984 231.500081 L 32.000114 247.500138 L 69.999862 263.500195 L 103.999854 279.000024 L 135.999967 295.000081 L 170.500187 310.49991 L 190.5 326.499967 " transform="matrix(3.779528,0,0,3.779528,0,0)"/>
<path style="fill:none;stroke-width:2;stroke-linecap:butt;stroke-linejoin:miter;stroke:rgb(0%,0%,0%);stroke-opacity:1;stroke-miterlimit:4;" d="M 191.000228 193.500334 L 175.000171 185.499788 " transform="matrix(3.779528,0,0,3.779528,0,0)"/>
<path style="fill:none;stroke-width:2;stroke-linecap:butt;stroke-linejoin:miter;stroke:rgb(0%,0%,0%);stroke-opacity:1;stroke-miterlimit:4;" d="M 152.000024 168.999504 L 168.000081 178.999927 L 184.000138 175.500399 L 199.499967 183.49991 L 211.500269 203.999951 L 227.000098 203.999951 L 232.999731 193.999528 L 249.500016 182.500488 L 265.500073 156.500008 " transform="matrix(3.779528,0,0,3.779528,0,0)"/>
<path style="fill:none;stroke-width:2;stroke-linecap:butt;stroke-linejoin:miter;stroke:rgb(0%,0%,0%);stroke-opacity:1;stroke-miterlimit:4;" d="M 274.500041 146.999813 L 242.499927 150.999569 " transform="matrix(3.779528,0,0,3.779528,0,0)"/>
<path style="fill:none;stroke-width:2;stroke-linecap:butt;stroke-linejoin:miter;stroke:rgb(0%,0%,0%);stroke-opacity:1;stroke-miterlimit:4;" d="M 232.000309 160.499764 L 248.000366 168.500309 " transform="matrix(3.779528,0,0,3.779528,0,0)"/>
<path style="fill:none;stroke-width:2;stroke-linecap:butt;stroke-linejoin:miter;stroke:rgb(0%,0%,0%);stroke-opacity:1;stroke-miterlimit:4;" d="M 235.499837 157.999658 L 219.49978 155.99978 " transform="matrix(3.779528,0,0,3.779528,0,0)"/>
<path style="fill:none;stroke-width:2;stroke-linecap:butt;stroke-linejoin:miter;stroke:rgb(0%,0%,0%);stroke-opacity:1;stroke-miterlimit:4;" d="M 227.000098 156.500008 L 250.999666 172.500065 " transform="matrix(3.779528,0,0,3.779528,0,0)"/>
<path style="fill:none;stroke-width:2;stroke-linecap:butt;stroke-linejoin:miter;stroke:rgb(0%,0%,0%);stroke-opacity:1;stroke-miterlimit:4;" d="M 245.50026 136.500195 L 229.500203 137.999845 L 213.500146 141.000179 L 197.50009 141.000179 " transform="matrix(3.779528,0,0,3.779528,0,0)"/>
<path style="fill:none;stroke-width:2;stroke-linecap:butt;stroke-linejoin:miter;stroke:rgb(0%,0%,0%);stroke-opacity:1;stroke-miterlimit:4;" d="M 209.500391 116.500382 L 193.500334 122.500016 L 177.000049 124.499894 L 160.999992 126.499772 L 145.500163 130.000334 L 129.500106 134.00009 " transform="matrix(3.779528,0,0,3.779528,0,0)"/>
<path style="fill:none;stroke-width:2;stroke-linecap:butt;stroke-linejoin:miter;stroke:rgb(0%,0%,0%);stroke-opacity:1;stroke-miterlimit:4;" d="M 109.500293 132.000212 L 125.50035 128.49965 L 87.499569 143.000057 L 61.500122 159.500342 L 53.000382 171.999837 L 32.999536 182.500488 L 28.99978 193.000106 L 10.999845 209.000163 L 4.499984 209.000163 " transform="matrix(3.779528,0,0,3.779528,0,0)"/>
<path style="fill:none;stroke-width:2;stroke-linecap:butt;stroke-linejoin:miter;stroke:rgb(0%,0%,0%);stroke-opacity:1;stroke-miterlimit:4;" d="M 3.000334 218.00013 L 19.000391 201.499845 L 35.000448 187.499666 L 51.000505 175.999593 L 66.999528 164.49952 L 82.999585 154.50013 L 98.999642 146.499585 L 100.500326 144.499707 L 72.499967 160.499764 " transform="matrix(3.779528,0,0,3.779528,0,0)"/>
<path style="fill:none;stroke-width:2;stroke-linecap:butt;stroke-linejoin:miter;stroke:rgb(0%,0%,0%);stroke-opacity:1;stroke-miterlimit:4;" d="M 114.000277 162.000448 L 129.500106 153.999902 L 144.999935 149.499919 L 160.999992 143.500285 L 177.000049 139.499495 L 193.000106 137.999845 L 209.000163 134.00009 L 225.00022 132.000212 L 241.500505 130.000334 L 289.499642 130.000334 L 305.499699 132.000212 L 295.500309 146.000391 L 275.500496 153.499674 L 261.999512 173.000293 L 252.000122 193.500334 L 250.500472 197.50009 L 266.499495 167.499854 L 276.499919 135.999967 L 291.999748 135.999967 L 302.000171 148.000269 L 292.499976 164.000326 L 284.500464 180.000382 L 279.000024 195.500212 L 272.500163 211.500269 L 266.499495 227.500326 L 260.499862 243.500382 L 260.499862 223.000342 L 275.999691 182.999683 L 292.499976 150.999569 " transform="matrix(3.779528,0,0,3.779528,0,0)"/>
<path style="fill:none;stroke-width:2;stroke-linecap:butt;stroke-linejoin:miter;stroke:rgb(0%,0%,0%);stroke-opacity:1;stroke-miterlimit:4;" d="M 287.999992 159.999536 L 279.500252 175.999593 L 273.999813 192.499878 L 266.000301 208.499935 L 260.499862 225.999642 L 248.499561 241.500505 " transform="matrix(3.779528,0,0,3.779528,0,0)"/>
<path style="fill:none;stroke-width:2;stroke-linecap:butt;stroke-linejoin:miter;stroke:rgb(0%,0%,0%);stroke-opacity:1;stroke-miterlimit:4;" d="M 246.99991 187.999894 L 255.000456 171.999837 L 265.500073 155.499552 L 261.500317 143.500285 L 245.50026 144.000513 L 230.000431 152.000024 L 214.000374 155.99978 L 198.000317 159.500342 L 182.00026 157.500464 L 166.000203 159.500342 L 150.000146 165.499976 " transform="matrix(3.779528,0,0,3.779528,0,0)"/>
<path style="fill:none;stroke-width:2;stroke-linecap:butt;stroke-linejoin:miter;stroke:rgb(0%,0%,0%);stroke-opacity:1;stroke-miterlimit:4;" d="M 138.500073 168.500309 L 154.50013 158.499886 L 170.500187 153.999902 L 138.500073 168.000081 L 152.500252 171.999837 L 178.499699 187.999894 L 196.000439 191.99965 L 200.000195 197.50009 " transform="matrix(3.779528,0,0,3.779528,0,0)"/>
<path style="fill:none;stroke-width:2;stroke-linecap:butt;stroke-linejoin:miter;stroke:rgb(0%,0%,0%);stroke-opacity:1;stroke-miterlimit:4;" d="M 242.499927 231.500081 L 226.49987 231.500081 L 210.499813 223.499536 L 194.499756 215.500024 L 178.999927 207.500513 L 162.99987 199.499967 L 146.999813 191.500456 L 130.999756 182.00026 L 115.499927 169.999959 " transform="matrix(3.779528,0,0,3.779528,0,0)"/>
<path style="fill:none;stroke-width:2;stroke-linecap:butt;stroke-linejoin:miter;stroke:rgb(0%,0%,0%);stroke-opacity:1;stroke-miterlimit:4;" d="M 140.499951 150.999569 L 114.500505 166.500431 L 130.499528 182.500488 L 158.499886 198.499512 L 188.500122 214.499569 L 222.500114 230.499626 L 245.000033 236.500293 L 264.999845 230.499626 L 281.50013 189.999772 L 296.999959 155.99978 " transform="matrix(3.779528,0,0,3.779528,0,0)"/>
<path style="fill:none;stroke-width:2;stroke-linecap:butt;stroke-linejoin:miter;stroke:rgb(0%,0%,0%);stroke-opacity:1;stroke-miterlimit:4;" d="M 295.999504 117.499805 L 311.999561 117.499805 L 327.999618 119.000488 L 343.999674 116.999577 " transform="matrix(3.779528,0,0,3.779528,0,0)"/>
<path style="fill:none;stroke-width:2;stroke-linecap:butt;stroke-linejoin:miter;stroke:rgb(0%,0%,0%);stroke-opacity:1;stroke-miterlimit:4;" d="M 359.499504 111.500171 L 361.500415 96.000342 L 361.999609 80.500513 " transform="matrix(3.779528,0,0,3.779528,0,0)"/>
<path style="fill:none;stroke-width:2;stroke-linecap:butt;stroke-linejoin:miter;stroke:rgb(0%,0%,0%);stroke-opacity:1;stroke-miterlimit:4;" d="M 357.999854 75.500301 L 357.999854 91.500358 L 355.999976 107.999609 L 366.000399 128.000456 " transform="matrix(3.779528,0,0,3.779528,0,0)"/>
<path style="fill:none;stroke-width:2;stroke-linecap:butt;stroke-linejoin:miter;stroke:rgb(0%,0%,0%);stroke-opacity:1;stroke-miterlimit:4;" d="M 405.499797 131.499984 L 427.499487 147.500041 " transform="matrix(3.779528,0,0,3.779528,0,0)"/>
<path style="fill:none;stroke-width:2;stroke-linecap:butt;stroke-linejoin:miter;stroke:rgb(0%,0%,0%);stroke-opacity:1;stroke-miterlimit:4;" d="M 422.000081 142.499829 L 406.000024 130.499528 " transform="matrix(3.779528,0,0,3.779528,0,0)"/>
<path style="fill:none;stroke-width:2;stroke-linecap:butt;stroke-linejoin:miter;stroke:rgb(0%,0%,0%);stroke-opacity:1;stroke-miterlimit:4;" d="M 411.000236 174.499943 L 402.999691 190.5 L 397.000057 205.999829 L 395.000179 221.499658 L 391.000423 237.499715 L 404.999569 239.000399 L 421.499854 230.999854 L 438.000138 229.500203 L 441.999894 223.499536 L 457.999951 227.500326 L 490.000065 231.500081 " transform="matrix(3.779528,0,0,3.779528,0,0)"/>
<path style="fill:none;stroke-width:2;stroke-linecap:butt;stroke-linejoin:miter;stroke:rgb(0%,0%,0%);stroke-opacity:1;stroke-miterlimit:4;" d="M 493.499593 251.499894 L 509.49965 247.500138 L 493.499593 261.500317 L 505.499894 277.500374 " transform="matrix(3.779528,0,0,3.779528,0,0)"/>
<path style="fill:none;stroke-width:2;stroke-linecap:butt;stroke-linejoin:miter;stroke:rgb(0%,0%,0%);stroke-opacity:1;stroke-miterlimit:4;" d="M 503.500016 262.999967 L 503.500016 255.000456 " transform="matrix(3.779528,0,0,3.779528,0,0)"/>
<path style="fill:none;stroke-width:2;stroke-linecap:butt;stroke-linejoin:miter;stroke:rgb(0%,0%,0%);stroke-opacity:1;stroke-miterlimit:4;" d="M 495.999699 234.999609 L 479.500448 241.500505 L 463.500391 239.999821 L 447.500334 236.000065 L 431.500277 236.000065 L 415.50022 237.999943 " transform="matrix(3.779528,0,0,3.779528,0,0)"/>
<path style="fill:none;stroke-width:2;stroke-linecap:butt;stroke-linejoin:miter;stroke:rgb(0%,0%,0%);stroke-opacity:1;stroke-miterlimit:4;" d="M 404.000146 204.500179 L 420.000203 180.000382 L 436.00026 187.499666 L 452.000317 195.500212 " transform="matrix(3.779528,0,0,3.779528,0,0)"/>
<path style="fill:none;stroke-width:2;stroke-linecap:butt;stroke-linejoin:miter;stroke:rgb(0%,0%,0%);stroke-opacity:1;stroke-miterlimit:4;" d="M 422.000081 182.00026 L 456.000073 198.000317 L 479.999642 214.000374 " transform="matrix(3.779528,0,0,3.779528,0,0)"/>
<path style="fill:none;stroke-width:2;stroke-linecap:butt;stroke-linejoin:miter;stroke:rgb(0%,0%,0%);stroke-opacity:1;stroke-miterlimit:4;" d="M 500.499683 220.500236 L 484.499626 209.999585 L 468.999797 197.50009 L 452.99974 187.499666 L 436.999683 179.500155 L 420.999626 173.499487 L 404.999569 187.999894 " transform="matrix(3.779528,0,0,3.779528,0,0)"/>
<path style="fill:none;stroke-width:2;stroke-linecap:butt;stroke-linejoin:miter;stroke:rgb(0%,0%,0%);stroke-opacity:1;stroke-miterlimit:4;" d="M 413.500342 180.499577 L 407.499674 196.499634 L 400.999813 212.499691 L 407.00048 218.500358 L 422.500309 218.00013 L 438.500366 218.00013 L 454.500423 219.49978 L 470.999674 223.499536 L 486.999731 225.500448 " transform="matrix(3.779528,0,0,3.779528,0,0)"/>
<path style="fill:none;stroke-width:2;stroke-linecap:butt;stroke-linejoin:miter;stroke:rgb(0%,0%,0%);stroke-opacity:1;stroke-miterlimit:4;" d="M 472.00013 268.500407 L 455.499845 261.00009 L 439.499788 264.999845 L 423.999959 268.999601 L 407.999902 282.499552 " transform="matrix(3.779528,0,0,3.779528,0,0)"/>
<path style="fill:none;stroke-width:2;stroke-linecap:butt;stroke-linejoin:miter;stroke:rgb(0%,0%,0%);stroke-opacity:1;stroke-miterlimit:4;" d="M 409.499552 300.499487 L 425.499609 286.500342 L 429.500399 294.499854 L 437.49991 296.499731 " transform="matrix(3.779528,0,0,3.779528,0,0)"/>
<path style="fill:none;stroke-width:2;stroke-linecap:butt;stroke-linejoin:miter;stroke:rgb(0%,0%,0%);stroke-opacity:1;stroke-miterlimit:4;" d="M 460.500057 280.999902 L 458.500179 297.500187 L 450.000439 313.500244 L 472.00013 333.500057 L 486.000309 321.999984 " transform="matrix(3.779528,0,0,3.779528,0,0)"/>
<path style="fill:none;stroke-width:2;stroke-linecap:butt;stroke-linejoin:miter;stroke:rgb(0%,0%,0%);stroke-opacity:1;stroke-miterlimit:4;" d="M 445.99965 352.500448 L 447.999528 368.999699 " transform="matrix(3.779528,0,0,3.779528,0,0)"/>
<path style="fill:none;stroke-width:2;stroke-linecap:butt;stroke-linejoin:miter;stroke:rgb(0%,0%,0%);stroke-opacity:1;stroke-miterlimit:4;" d="M 497.999577 411.500464 L 481.99952 413.500342 L 466.000496 413.500342 L 450.000439 415.50022 L 433.500155 417.500098 L 418.000326 418.999748 L 402.000269 418.999748 L 386.000212 420.999626 L 369.499927 420.500431 L 353.49987 420.500431 L 338.000041 420.999626 L 321.999984 422.999504 L 273.499585 422.999504 L 257.499528 425.000415 L 241.500505 425.499609 L 225.500448 427.499487 L 209.999585 427.999715 L 193.999528 430.499821 L 146.000391 430.499821 L 129.500106 431.000049 L 96.999764 431.000049 L 80.999707 430.499821 L 64.99965 430.499821 L 49.499821 429.999593 L 33.499764 429.500399 L 1.49965 429.500399 " transform="matrix(3.779528,0,0,3.779528,0,0)"/>
<path style="fill:none;stroke-width:2;stroke-linecap:butt;stroke-linejoin:miter;stroke:rgb(0%,0%,0%);stroke-opacity:1;stroke-miterlimit:4;" d="M 1.999878 425.499609 L 17.999935 425.499609 L 33.999992 422.999504 L 66.000106 422.999504 L 82.000163 425.000415 L 98.00022 425.000415 L 114.000277 422.999504 L 129.500106 423.499731 L 145.500163 423.499731 L 160.999992 425.499609 L 177.500277 423.999959 L 193.999528 423.499731 L 209.999585 422.999504 L 226.49987 422.999504 L 258.499984 418.999748 L 275.000269 419.499976 L 291.000326 417.500098 L 306.500155 416.99987 L 322.500212 416.99987 L 338.500269 417.500098 L 354.500326 416.99987 L 370.000155 416.499642 L 386.000212 416.99987 L 402.000269 414.999992 L 417.500098 413.000114 L 432.999927 413.000114 L 448.499756 411.000236 L 464.499813 409.499552 L 479.999642 407.499674 L 496.499927 407.499674 " transform="matrix(3.779528,0,0,3.779528,0,0)"/>
<path style="fill:none;stroke-width:2;stroke-linecap:butt;stroke-linejoin:miter;stroke:rgb(0%,0%,0%);stroke-opacity:1;stroke-miterlimit:4;" d="M 483.500203 497.500382 L 467.500146 497.500382 " transform="matrix(3.779528,0,0,3.779528,0,0)"/>
<path style="fill:none;stroke-width:2;stroke-linecap:butt;stroke-linejoin:miter;stroke:rgb(0%,0%,0%);stroke-opacity:1;stroke-miterlimit:4;" d="M 482.999976 283.500008 L 461.000285 268.000179 " transform="matrix(3.779528,0,0,3.779528,0,0)"/>
<path style="fill:none;stroke-width:2;stroke-linecap:butt;stroke-linejoin:miter;stroke:rgb(0%,0%,0%);stroke-opacity:1;stroke-miterlimit:4;" d="M 454.500423 260.499862 L 482.499748 276.499919 " transform="matrix(3.779528,0,0,3.779528,0,0)"/>
<path style="fill:none;stroke-width:2;stroke-linecap:butt;stroke-linejoin:miter;stroke:rgb(0%,0%,0%);stroke-opacity:1;stroke-miterlimit:4;" d="M 445.99965 262.999967 L 427.999715 279.000024 L 411.500464 279.000024 L 407.499674 289.000448 L 399.500163 305.000505 L 409.499552 313.000016 L 409.000358 328.499845 L 404.999569 344.499902 L 407.499674 359.999731 L 417.500098 350.000342 L 435.500033 334.000285 L 450.999862 321.999984 L 448.999984 329.500301 L 461.000285 345.500358 L 477.000342 341.499569 L 492.500171 343.50048 " transform="matrix(3.779528,0,0,3.779528,0,0)"/>
<path style="fill:none;stroke-width:2;stroke-linecap:butt;stroke-linejoin:miter;stroke:rgb(0%,0%,0%);stroke-opacity:1;stroke-miterlimit:4;" d="M 495.000277 223.999764 L 479.00022 208.499935 L 452.99974 192.499878 L 418.49952 176.499821 " transform="matrix(3.779528,0,0,3.779528,0,0)"/>
<path style="fill:none;stroke-width:2;stroke-linecap:butt;stroke-linejoin:miter;stroke:rgb(0%,0%,0%);stroke-opacity:1;stroke-miterlimit:4;" d="M 279.000024 100.000098 L 262.999967 100.000098 L 262.999967 94.499658 L 276.499919 84.500269 L 278.499797 59.000016 L 275.999691 55.00026 L 259.999634 44.999837 " transform="matrix(3.779528,0,0,3.779528,0,0)"/>
<path style="fill:none;stroke-width:2;stroke-linecap:butt;stroke-linejoin:miter;stroke:rgb(0%,0%,0%);stroke-opacity:1;stroke-miterlimit:4;" d="M 264.000423 41.000081 L 259.999634 57.500366 L 255.999878 57.500366 L 255.999878 91.500358 L 277.999569 101.499748 " transform="matrix(3.779528,0,0,3.779528,0,0)"/>
<path style="fill:none;stroke-width:2;stroke-linecap:butt;stroke-linejoin:miter;stroke:rgb(0%,0%,0%);stroke-opacity:1;stroke-miterlimit:4;" d="M 255.000456 100.500326 L 239.000399 100.500326 " transform="matrix(3.779528,0,0,3.779528,0,0)"/>
<path style="fill:none;stroke-width:2;stroke-linecap:butt;stroke-linejoin:miter;stroke:rgb(0%,0%,0%);stroke-opacity:1;stroke-miterlimit:4;" d="M 239.000399 85.000496 L 255.000456 85.000496 L 271.000513 78.999829 " transform="matrix(3.779528,0,0,3.779528,0,0)"/>
<path style="fill:none;stroke-width:2;stroke-linecap:butt;stroke-linejoin:miter;stroke:rgb(0%,0%,0%);stroke-opacity:1;stroke-miterlimit:4;" d="M 270.500285 62.00035 L 255.000456 66.500334 L 255.000456 62.499544 L 239.499593 60.499666 " transform="matrix(3.779528,0,0,3.779528,0,0)"/>
<path style="fill:none;stroke-width:2;stroke-linecap:butt;stroke-linejoin:miter;stroke:rgb(0%,0%,0%);stroke-opacity:1;stroke-miterlimit:4;" d="M 236.000065 57.999561 L 252.000122 42.499731 L 237.999943 51.999927 L 235.499837 67.999984 L 235.499837 87.499569 L 233.499959 105.000309 L 239.499593 93.500236 L 257.499528 83.499813 L 273.499585 81.499935 " transform="matrix(3.779528,0,0,3.779528,0,0)"/>
<path style="fill:none;stroke-width:2;stroke-linecap:butt;stroke-linejoin:miter;stroke:rgb(0%,0%,0%);stroke-opacity:1;stroke-miterlimit:4;" d="M 252.50035 78.000407 L 236.500293 84.000041 " transform="matrix(3.779528,0,0,3.779528,0,0)"/>
<path style="fill:none;stroke-width:2;stroke-linecap:butt;stroke-linejoin:miter;stroke:rgb(0%,0%,0%);stroke-opacity:1;stroke-miterlimit:4;" d="M 151.499797 73.500423 L 153.999902 57.500366 L 153.999902 41.500309 " transform="matrix(3.779528,0,0,3.779528,0,0)"/>
<path style="fill:none;stroke-width:2;stroke-linecap:butt;stroke-linejoin:miter;stroke:rgb(0%,0%,0%);stroke-opacity:1;stroke-miterlimit:4;" d="M 148.999691 41.999504 L 149.499919 57.999561 L 146.999813 73.500423 " transform="matrix(3.779528,0,0,3.779528,0,0)"/>
<path style="fill:none;stroke-width:2;stroke-linecap:butt;stroke-linejoin:miter;stroke:rgb(0%,0%,0%);stroke-opacity:1;stroke-miterlimit:4;" d="M 159.999536 150.500374 L 144.499707 156.500008 L 128.49965 162.99987 L 132.999634 171.000415 L 122.500016 168.999504 L 153.00048 153.00048 " transform="matrix(3.779528,0,0,3.779528,0,0)"/>
<path style="fill:none;stroke-width:2;stroke-linecap:butt;stroke-linejoin:miter;stroke:rgb(0%,0%,0%);stroke-opacity:1;stroke-miterlimit:4;" d="M 39.999626 94.499658 L 37.49952 78.499601 L 41.500309 62.499544 L 33.999992 57.999561 L 37.999748 58.499788 " transform="matrix(3.779528,0,0,3.779528,0,0)"/>
<path style="fill:none;stroke-width:2;stroke-linecap:butt;stroke-linejoin:miter;stroke:rgb(0%,0%,0%);stroke-opacity:1;stroke-miterlimit:4;" d="M 13.499951 174.499943 L 13.499951 190.5 " transform="matrix(3.779528,0,0,3.779528,0,0)"/>
<path style="fill:none;stroke-width:2;stroke-linecap:butt;stroke-linejoin:miter;stroke:rgb(0%,0%,0%);stroke-opacity:1;stroke-miterlimit:4;" d="M 16.500285 234.500415 L 54.500033 250.500472 L 90.499902 266.499495 L 124.499894 282.499552 L 188.500122 314.499666 L 223.000342 330.499723 " transform="matrix(3.779528,0,0,3.779528,0,0)"/>
<path style="fill:none;stroke-width:2;stroke-linecap:butt;stroke-linejoin:miter;stroke:rgb(0%,0%,0%);stroke-opacity:1;stroke-miterlimit:4;" d="M 162.000448 394.499951 L 146.000391 394.499951 L 130.000334 393.999723 L 114.000277 391.499618 L 98.00022 391.000423 L 82.000163 393.000301 L 66.000106 393.000301 L 50.500277 391.499618 L 35.000448 395.500407 L 3.000334 395.500407 " transform="matrix(3.779528,0,0,3.779528,0,0)"/>
<path style="fill:none;stroke-width:2;stroke-linecap:butt;stroke-linejoin:miter;stroke:rgb(0%,0%,0%);stroke-opacity:1;stroke-miterlimit:4;" d="M 3.000334 233.499959 L 19.000391 239.499593 L 34.50022 246.000488 L 50.500277 252.000122 L 66.500334 259.999634 L 82.500391 268.000179 L 98.00022 273.999813 L 114.000277 282.499552 L 130.000334 290.500098 L 148.000269 300.999715 L 164.000326 307.000382 L 180.000382 314.999894 " transform="matrix(3.779528,0,0,3.779528,0,0)"/>
<path style="fill:none;stroke-width:2;stroke-linecap:butt;stroke-linejoin:miter;stroke:rgb(0%,0%,0%);stroke-opacity:1;stroke-miterlimit:4;" d="M 502.499561 200.500423 L 486.499504 184.500366 L 466.999919 168.500309 L 448.999984 152.500252 L 447.999528 120.500138 L 447.999528 55.999683 L 447.500334 39.500431 L 449.500212 23.000146 L 449.500212 1.000456 " transform="matrix(3.779528,0,0,3.779528,0,0)"/>
<path style="fill:none;stroke-width:2;stroke-linecap:butt;stroke-linejoin:miter;stroke:rgb(0%,0%,0%);stroke-opacity:1;stroke-miterlimit:4;" d="M 397.000057 1.49965 L 397.000057 17.499707 L 395.500407 33.499764 L 395.500407 49.499821 L 393.999723 64.99965 L 393.999723 97.499992 L 391.999845 114.000277 L 389.999967 130.000334 L 422.000081 150.500374 L 450.000439 166.500431 L 474.000008 182.999683 L 491.499715 198.99974 L 507.499772 214.499569 " transform="matrix(3.779528,0,0,3.779528,0,0)"/>
</g>
</svg>
