<?xml version="1.0" encoding="UTF-8"?>
<svg xmlns="http://www.w3.org/2000/svg" xmlns:xlink="http://www.w3.org/1999/xlink" width="1935.11811" height="1935.11811" viewBox="0 0 1935.11811 1935.11811" version="1.1">
<g id="surface1">
<path style="fill:none;stroke-width:2;stroke-linecap:butt;stroke-linejoin:miter;stroke:rgb(0%,0%,0%);stroke-opacity:1;stroke-miterlimit:4;" d="M 265.500073 72.499967 L 285.499886 88.500024 L 307.499577 76.499723 L 323.499634 74.499845 L 339.499691 80.999707 L 355.499748 87.000374 L 371.499805 93.000008 L 397.500285 103.000431 L 413.000114 109.000065 L 429.000171 112.499593 L 454.500423 124.499894 " transform="matrix(3.779528,0,0,3.779528,0,0)"/>
<path style="fill:none;stroke-width:2;stroke-linecap:butt;stroke-linejoin:miter;stroke:rgb(0%,0%,0%);stroke-opacity:1;stroke-miterlimit:4;" d="M 475.499658 135.49974 L 491.499715 149.499919 L 501.500138 155.499552 " transform="matrix(3.779528,0,0,3.779528,0,0)"/>
<path style="fill:none;stroke-width:2;stroke-linecap:butt;stroke-linejoin:miter;stroke:rgb(0%,0%,0%);stroke-opacity:1;stroke-miterlimit:4;" d="M 486.499504 227.500326 L 502.499561 264.000423 " transform="matrix(3.779528,0,0,3.779528,0,0)"/>
<path style="fill:none;stroke-width:2;stroke-linecap:butt;stroke-linejoin:miter;stroke:rgb(0%,0%,0%);stroke-opacity:1;stroke-miterlimit:4;" d="M 500.499683 318.99965 L 484.000431 317.5 L 467.500146 318.99965 L 450.999862 327.000195 L 434.999805 339.000496 L 418.49952 354.500326 L 402.000269 388.999512 " transform="matrix(3.779528,0,0,3.779528,0,0)"/>
<path style="fill:none;stroke-width:2;stroke-linecap:butt;stroke-linejoin:miter;stroke:rgb(0%,0%,0%);stroke-opacity:1;stroke-miterlimit:4;" d="M 411.000236 381 L 427.000293 355.499748 L 441.000472 345.500358 L 457.499723 335.499935 L 474.000008 329.999495 L 490.500293 327.999618 L 506.50035 329.500301 " transform="matrix(3.779528,0,0,3.779528,0,0)"/>
<path style="fill:none;stroke-width:2;stroke-linecap:butt;stroke-linejoin:miter;stroke:rgb(0%,0%,0%);stroke-opacity:1;stroke-miterlimit:4;" d="M 501.500138 339.000496 L 485.500081 336.999585 L 469.500024 340.500146 L 453.499967 346.49978 " transform="matrix(3.779528,0,0,3.779528,0,0)"/>
<path style="fill:none;stroke-width:2;stroke-linecap:butt;stroke-linejoin:miter;stroke:rgb(0%,0%,0%);stroke-opacity:1;stroke-miterlimit:4;" d="M 445.99965 352.00022 L 461.999707 345.999552 L 477.999764 341.999797 L 494.500049 343.999674 L 510.500106 350.499536 " transform="matrix(3.779528,0,0,3.779528,0,0)"/>
<path style="fill:none;stroke-width:2;stroke-linecap:butt;stroke-linejoin:miter;stroke:rgb(0%,0%,0%);stroke-opacity:1;stroke-miterlimit:4;" d="M 508.500228 375.999788 L 492.500171 367.500049 L 477.999764 368.000277 L 461.999707 373.99991 " transform="matrix(3.779528,0,0,3.779528,0,0)"/>
<path style="fill:none;stroke-width:2;stroke-linecap:butt;stroke-linejoin:miter;stroke:rgb(0%,0%,0%);stroke-opacity:1;stroke-miterlimit:4;" d="M 441.999894 398.000513 L 457.999951 375.999788 L 470.000252 357.999854 L 459.999829 373.99991 L 445.99965 389.999967 L 441.499666 406.000024 L 441.999894 422.000081 L 443.999772 437.49991 L 456.000073 447.500334 " transform="matrix(3.779528,0,0,3.779528,0,0)"/>
<path style="fill:none;stroke-width:2;stroke-linecap:butt;stroke-linejoin:miter;stroke:rgb(0%,0%,0%);stroke-opacity:1;stroke-miterlimit:4;" d="M 473.49978 453.499967 L 456.999495 447.999528 L 441.000472 434.000382 " transform="matrix(3.779528,0,0,3.779528,0,0)"/>
<path style="fill:none;stroke-width:2;stroke-linecap:butt;stroke-linejoin:miter;stroke:rgb(0%,0%,0%);stroke-opacity:1;stroke-miterlimit:4;" d="M 443.499544 425.000415 L 459.499601 444.5 L 475.499658 450.999862 L 491.499715 450.999862 L 508 443.00035 L 508 448.999984 L 502.000366 452.499512 " transform="matrix(3.779528,0,0,3.779528,0,0)"/>
<path style="fill:none;stroke-width:2;stroke-linecap:butt;stroke-linejoin:miter;stroke:rgb(0%,0%,0%);stroke-opacity:1;stroke-miterlimit:4;" d="M 479.999642 425.000415 L 479.500448 420.999626 L 477.999764 415.50022 L 486.000309 413.999536 L 485.500081 398.000513 L 477.499536 413.999536 L 468.000374 420.500431 L 468.000374 404.500374 L 481.99952 395.999601 L 466.000496 407.499674 " transform="matrix(3.779528,0,0,3.779528,0,0)"/>
<path style="fill:none;stroke-width:2;stroke-linecap:butt;stroke-linejoin:miter;stroke:rgb(0%,0%,0%);stroke-opacity:1;stroke-miterlimit:4;" d="M 416.000448 401.500041 L 431.500277 365.500171 L 449.500212 357.000431 L 465.500269 350.999764 L 486.999731 347.000008 L 503.500016 352.999642 " transform="matrix(3.779528,0,0,3.779528,0,0)"/>
<path style="fill:none;stroke-width:2;stroke-linecap:butt;stroke-linejoin:miter;stroke:rgb(0%,0%,0%);stroke-opacity:1;stroke-miterlimit:4;" d="M 475.499658 334.999707 L 445.500456 350.999764 L 431.500277 365.500171 L 425.499609 381.500228 L 417.500098 398.000513 L 415.50022 413.999536 L 423.499731 420.000203 " transform="matrix(3.779528,0,0,3.779528,0,0)"/>
<path style="fill:none;stroke-width:2;stroke-linecap:butt;stroke-linejoin:miter;stroke:rgb(0%,0%,0%);stroke-opacity:1;stroke-miterlimit:4;" d="M 356.500203 437.49991 L 339.999919 438.000138 L 291.999748 438.000138 L 275.999691 438.500366 L 259.999634 438.500366 L 247.500138 431.000049 L 231.500081 430.499821 L 215.500024 428.499943 L 199.499967 427.999715 L 183.49991 425.000415 L 167.499854 422.999504 " transform="matrix(3.779528,0,0,3.779528,0,0)"/>
<path style="fill:none;stroke-width:2;stroke-linecap:butt;stroke-linejoin:miter;stroke:rgb(0%,0%,0%);stroke-opacity:1;stroke-miterlimit:4;" d="M 152.000024 414.999992 L 168.000081 413.000114 L 184.000138 415.50022 L 199.499967 415.50022 L 217.499902 418.000326 L 232.999731 418.000326 L 248.999788 420.000203 L 265.500073 422.500309 L 281.50013 422.500309 L 297.500187 424.500187 L 313.500244 425.000415 L 329.500301 426.500065 L 345.500358 427.000293 L 361.500415 429.000171 L 377.999666 431.000049 L 393.999723 431.000049 " transform="matrix(3.779528,0,0,3.779528,0,0)"/>
<path style="fill:none;stroke-width:2;stroke-linecap:butt;stroke-linejoin:miter;stroke:rgb(0%,0%,0%);stroke-opacity:1;stroke-miterlimit:4;" d="M 416.499642 443.999772 L 400.499585 443.999772 L 384.000334 441.999894 L 381.500228 434.000382 L 333.500057 434.000382 L 317.5 433.500155 L 300.999715 434.000382 L 268.999601 434.000382 L 269.499829 427.499487 L 253.499772 425.499609 L 237.499715 423.999959 L 221.999886 423.999959 L 205.999829 422.000081 L 189.999772 421.499854 L 173.999715 419.499976 L 157.999658 421.499854 L 141.999601 421.499854 " transform="matrix(3.779528,0,0,3.779528,0,0)"/>
<path style="fill:none;stroke-width:2;stroke-linecap:butt;stroke-linejoin:miter;stroke:rgb(0%,0%,0%);stroke-opacity:1;stroke-miterlimit:4;" d="M 138.500073 418.49952 L 154.50013 410.500008 L 170.500187 409.99978 L 202.500301 409.99978 L 218.500358 411.999658 L 234.000187 411.999658 L 250.000244 413.500342 L 266.000301 415.50022 L 282.000358 416.000448 L 314.000472 420.000203 L 345.999552 420.000203 L 361.999609 422.000081 L 377.500472 423.999959 L 393.999723 423.999959 " transform="matrix(3.779528,0,0,3.779528,0,0)"/>
<path style="fill:none;stroke-width:2;stroke-linecap:butt;stroke-linejoin:miter;stroke:rgb(0%,0%,0%);stroke-opacity:1;stroke-miterlimit:4;" d="M 418.49952 457.499723 L 402.000269 457.999951 L 386.000212 458.500179 L 370.000155 456.500301 L 354.000098 456.500301 L 338.000041 454.500423 L 321.999984 452.000317 L 305.999927 450.000439 L 289.499642 450.000439 L 273.499585 449.500212 L 257.499528 449.500212 L 241.999699 447.500334 L 225.999642 447.000106 L 210.499813 447.500334 L 194.499756 447.500334 L 178.499699 447.999528 L 162.499642 448.499756 L 146.499585 448.499756 L 130.499528 447.999528 L 114.500505 450.000439 L 98.500448 452.000317 L 82.000163 454.000195 L 66.500334 457.999951 L 50.500277 459.499601 L 35.000448 461.500513 L 19.000391 461.999707 L 3.000334 463.999585 " transform="matrix(3.779528,0,0,3.779528,0,0)"/>
<path style="fill:none;stroke-width:2;stroke-linecap:butt;stroke-linejoin:miter;stroke:rgb(0%,0%,0%);stroke-opacity:1;stroke-miterlimit:4;" d="M 3.499528 456.000073 L 19.499585 454.000195 L 35.499642 445.99965 L 51.000505 423.999959 " transform="matrix(3.779528,0,0,3.779528,0,0)"/>
<path style="fill:none;stroke-width:2;stroke-linecap:butt;stroke-linejoin:miter;stroke:rgb(0%,0%,0%);stroke-opacity:1;stroke-miterlimit:4;" d="M 50.000049 448.499756 L 66.000106 450.000439 L 81.499935 448.499756 L 97.499992 446.499878 L 114.000277 444.5 L 130.499528 442.500122 L 146.499585 442.500122 L 162.499642 441.999894 L 178.499699 441.999894 L 194.499756 441.499666 L 226.49987 441.499666 L 246.499683 454.000195 L 262.49974 456.000073 L 310.49991 456.000073 L 325.99974 457.999951 L 341.999797 459.999829 L 357.999854 461.500513 L 373.99991 461.500513 L 389.999967 463.500391 L 406.000024 463.999585 L 422.500309 466.000496 L 438.500366 468.000374 L 470.50048 475.999886 L 486.499504 475.999886 L 502.499561 474.000008 " transform="matrix(3.779528,0,0,3.779528,0,0)"/>
<path style="fill:none;stroke-width:2;stroke-linecap:butt;stroke-linejoin:miter;stroke:rgb(0%,0%,0%);stroke-opacity:1;stroke-miterlimit:4;" d="M 463.000163 332.000407 L 432.999927 347.500236 L 449.500212 333.500057 L 466.000496 325.499512 L 482.499748 323.499634 L 498.499805 323.999862 " transform="matrix(3.779528,0,0,3.779528,0,0)"/>
<path style="fill:none;stroke-width:2;stroke-linecap:butt;stroke-linejoin:miter;stroke:rgb(0%,0%,0%);stroke-opacity:1;stroke-miterlimit:4;" d="M 468.000374 318.99965 L 440.000016 334.999707 L 423.499731 350.999764 L 411.500464 366.999821 L 405.499797 382.999878 L 403.499919 398.999935 L 400.999813 414.499764 L 407.00048 414.499764 L 411.500464 420.000203 L 415.50022 436.00026 L 427.499487 445.99965 L 443.00035 461.999707 " transform="matrix(3.779528,0,0,3.779528,0,0)"/>
<path style="fill:none;stroke-width:2;stroke-linecap:butt;stroke-linejoin:miter;stroke:rgb(0%,0%,0%);stroke-opacity:1;stroke-miterlimit:4;" d="M 507.499772 468.499569 L 490.999487 470.50048 L 475.000464 470.50048 L 459.499601 468.000374 L 443.499544 459.999829 L 427.499487 443.999772 L 423.499731 445.99965 L 417.500098 429.999593 L 419.499976 413.999536 L 413.999536 393.999723 L 419.499976 377.999666 L 427.499487 362.499837 L 435.500033 352.500448 L 439.499788 342.500024 L 465.500269 326.499967 " transform="matrix(3.779528,0,0,3.779528,0,0)"/>
<path style="fill:none;stroke-width:2;stroke-linecap:butt;stroke-linejoin:miter;stroke:rgb(0%,0%,0%);stroke-opacity:1;stroke-miterlimit:4;" d="M 413.500342 252.000122 L 432.000505 232.000309 L 436.00026 236.500293 L 419.499976 255.000456 L 403.499919 264.999845 L 388.00009 271.000513 L 372.000033 270.500285 " transform="matrix(3.779528,0,0,3.779528,0,0)"/>
<path style="fill:none;stroke-width:2;stroke-linecap:butt;stroke-linejoin:miter;stroke:rgb(0%,0%,0%);stroke-opacity:1;stroke-miterlimit:4;" d="M 433.500155 195.500212 L 418.000326 180.000382 L 402.000269 172.500065 L 386.000212 166.500431 L 370.000155 166.500431 " transform="matrix(3.779528,0,0,3.779528,0,0)"/>
<path style="fill:none;stroke-width:2;stroke-linecap:butt;stroke-linejoin:miter;stroke:rgb(0%,0%,0%);stroke-opacity:1;stroke-miterlimit:4;" d="M 372.000033 155.000358 L 388.00009 155.000358 L 404.500374 150.999569 L 425.999837 173.000293 " transform="matrix(3.779528,0,0,3.779528,0,0)"/>
<path style="fill:none;stroke-width:2;stroke-linecap:butt;stroke-linejoin:miter;stroke:rgb(0%,0%,0%);stroke-opacity:1;stroke-miterlimit:4;" d="M 425.499609 171.999837 L 409.499552 159.999536 " transform="matrix(3.779528,0,0,3.779528,0,0)"/>
<path style="fill:none;stroke-width:2;stroke-linecap:butt;stroke-linejoin:miter;stroke:rgb(0%,0%,0%);stroke-opacity:1;stroke-miterlimit:4;" d="M 419.499976 176.499821 L 403.499919 162.499642 L 387.499862 158.499886 " transform="matrix(3.779528,0,0,3.779528,0,0)"/>
<path style="fill:none;stroke-width:2;stroke-linecap:butt;stroke-linejoin:miter;stroke:rgb(0%,0%,0%);stroke-opacity:1;stroke-miterlimit:4;" d="M 388.500317 169.499731 L 420.000203 185.499788 " transform="matrix(3.779528,0,0,3.779528,0,0)"/>
<path style="fill:none;stroke-width:2;stroke-linecap:butt;stroke-linejoin:miter;stroke:rgb(0%,0%,0%);stroke-opacity:1;stroke-miterlimit:4;" d="M 424.500187 191.000228 L 407.999902 180.999805 L 391.999845 173.499487 L 375.499561 171.999837 L 359.000309 159.500342 " transform="matrix(3.779528,0,0,3.779528,0,0)"/>
<path style="fill:none;stroke-width:2;stroke-linecap:butt;stroke-linejoin:miter;stroke:rgb(0%,0%,0%);stroke-opacity:1;stroke-miterlimit:4;" d="M 357.000431 142.499829 L 359.000309 158.499886 L 366.999821 173.999715 L 368.999699 189.999772 L 372.50026 205.999829 L 374.500138 221.499658 L 376.500016 237.499715 L 380.499772 252.000122 L 396.499829 246.000488 L 413.000114 237.999943 L 429.000171 216.000252 " transform="matrix(3.779528,0,0,3.779528,0,0)"/>
<path style="fill:none;stroke-width:2;stroke-linecap:butt;stroke-linejoin:miter;stroke:rgb(0%,0%,0%);stroke-opacity:1;stroke-miterlimit:4;" d="M 423.999959 243.500382 L 405.499797 257.499528 L 389.49974 263.500195 L 411.999658 259.999634 L 430.499821 243.999577 L 440.500244 227.500326 L 442.500122 211.500269 L 442.500122 195.500212 L 436.00026 178.999927 L 429.500399 178.999927 L 423.499731 167.499854 L 411.500464 155.499552 L 400.000391 139.499495 L 388.00009 139.499495 L 372.000033 141.999601 L 355.999976 142.499829 " transform="matrix(3.779528,0,0,3.779528,0,0)"/>
<path style="fill:none;stroke-width:2;stroke-linecap:butt;stroke-linejoin:miter;stroke:rgb(0%,0%,0%);stroke-opacity:1;stroke-miterlimit:4;" d="M 343.000252 152.000024 L 359.000309 135.49974 L 375.000366 133.499862 L 391.000423 135.49974 L 407.00048 143.500285 L 422.500309 155.99978 L 438.500366 180.499577 " transform="matrix(3.779528,0,0,3.779528,0,0)"/>
<path style="fill:none;stroke-width:2;stroke-linecap:butt;stroke-linejoin:miter;stroke:rgb(0%,0%,0%);stroke-opacity:1;stroke-miterlimit:4;" d="M 456.500301 153.999902 L 440.500244 137.999845 L 424.500187 128.000456 L 408.50013 123.999666 L 392.500073 117.499805 L 376.500016 113.500049 " transform="matrix(3.779528,0,0,3.779528,0,0)"/>
<path style="fill:none;stroke-width:2;stroke-linecap:butt;stroke-linejoin:miter;stroke:rgb(0%,0%,0%);stroke-opacity:1;stroke-miterlimit:4;" d="M 377.500472 93.500236 L 361.500415 93.500236 L 345.500358 87.000374 L 329.000073 78.999829 L 313.000016 76.999951 L 299.500065 78.499601 L 283.500008 78.999829 L 268.000179 73.000195 L 252.000122 71.000317 L 236.500293 71.499512 L 218.500358 69.999862 L 202.500301 71.99974 " transform="matrix(3.779528,0,0,3.779528,0,0)"/>
<path style="fill:none;stroke-width:2;stroke-linecap:butt;stroke-linejoin:miter;stroke:rgb(0%,0%,0%);stroke-opacity:1;stroke-miterlimit:4;" d="M 187.999894 74.499845 L 175.999593 72.499967 L 182.500488 80.500513 L 198.499512 82.999585 L 214.499569 82.999585 L 230.499626 85.000496 L 246.499683 85.000496 L 264.499618 93.500236 L 296.499731 97.499992 L 312.499788 97.499992 L 328.499845 100.000098 L 343.999674 103.999854 L 359.499504 100.000098 L 361.500415 107.999609 L 377.000244 107.999609 L 393.000301 114.000277 L 411.000236 128.000456 L 427.000293 135.999967 L 443.00035 148.000269 L 459.000407 168.000081 L 475.000464 212.000496 L 491.499715 258.499984 L 507.499772 288.50022 " transform="matrix(3.779528,0,0,3.779528,0,0)"/>
<path style="fill:none;stroke-width:2;stroke-linecap:butt;stroke-linejoin:miter;stroke:rgb(0%,0%,0%);stroke-opacity:1;stroke-miterlimit:4;" d="M 509.999878 295.000081 L 502.499561 278.499797 L 494.500049 261.999512 L 486.000309 245.50026 L 479.999642 229.500203 L 476.500114 212.999919 L 470.999674 197.50009 L 466.999919 181.500033 L 458.500179 165.499976 L 444.5 149.499919 L 422.500309 133.499862 L 388.500317 117.499805 L 352.999642 91.500358 L 320.999528 75.999495 L 305.000505 73.999618 L 289.000448 70.50009 L 272.500163 68.500212 L 256.500106 66.999528 L 239.999821 64.99965 L 223.999764 64.99965 " transform="matrix(3.779528,0,0,3.779528,0,0)"/>
<path style="fill:none;stroke-width:2;stroke-linecap:butt;stroke-linejoin:miter;stroke:rgb(0%,0%,0%);stroke-opacity:1;stroke-miterlimit:4;" d="M 267.499951 73.000195 L 311.500366 76.999951 L 353.49987 85.000496 L 391.499618 113.500049 L 427.999715 130.000334 L 447.999528 146.499585 L 461.999707 162.499642 L 470.000252 178.499699 L 475.999886 194.499756 L 484.999854 226.49987 L 490.999487 242.499927 L 498.499805 258.499984 L 506.50035 274.500041 " transform="matrix(3.779528,0,0,3.779528,0,0)"/>
<path style="fill:none;stroke-width:2;stroke-linecap:butt;stroke-linejoin:miter;stroke:rgb(0%,0%,0%);stroke-opacity:1;stroke-miterlimit:4;" d="M 412.499886 238.500171 L 426.500065 222.500114 L 430.499821 206.500057 L 418.49952 190.5 L 388.500317 174.499943 " transform="matrix(3.779528,0,0,3.779528,0,0)"/>
<path style="fill:none;stroke-width:2;stroke-linecap:butt;stroke-linejoin:miter;stroke:rgb(0%,0%,0%);stroke-opacity:1;stroke-miterlimit:4;" d="M 401.500041 162.000448 L 389.999967 141.999601 " transform="matrix(3.779528,0,0,3.779528,0,0)"/>
<path style="fill:none;stroke-width:2;stroke-linecap:butt;stroke-linejoin:miter;stroke:rgb(0%,0%,0%);stroke-opacity:1;stroke-miterlimit:4;" d="M 375.000366 141.000179 L 350.499536 143.000057 L 343.000252 159.000114 L 344.499902 175.000171 L 348.499658 190.5 L 352.00022 206.500057 L 356.500203 222.500114 L 359.000309 237.999943 L 363.500293 254 L 371.499805 269.499829 L 379.50035 266.000301 L 385.499984 257.999756 L 401.500041 252.000122 L 416.99987 241.999699 L 432.499699 219.49978 L 429.999593 223.999764 L 419.499976 239.999821 " transform="matrix(3.779528,0,0,3.779528,0,0)"/>
<path style="fill:none;stroke-width:2;stroke-linecap:butt;stroke-linejoin:miter;stroke:rgb(0%,0%,0%);stroke-opacity:1;stroke-miterlimit:4;" d="M 297.500187 191.500456 L 281.50013 163.500098 L 265.500073 151.499797 L 249.500016 145.500163 L 234.000187 143.500285 L 218.500358 147.500041 L 202.500301 159.500342 L 186.500244 187.499666 L 180.499577 223.499536 L 186.000016 205.499601 L 191.500456 189.999772 L 199.499967 182.00026 L 183.49991 209.999585 " transform="matrix(3.779528,0,0,3.779528,0,0)"/>
<path style="fill:none;stroke-width:2;stroke-linecap:butt;stroke-linejoin:miter;stroke:rgb(0%,0%,0%);stroke-opacity:1;stroke-miterlimit:4;" d="M 187.000472 240.500049 L 171.000415 290.500098 " transform="matrix(3.779528,0,0,3.779528,0,0)"/>
<path style="fill:none;stroke-width:2;stroke-linecap:butt;stroke-linejoin:miter;stroke:rgb(0%,0%,0%);stroke-opacity:1;stroke-miterlimit:4;" d="M 166.999626 299.500065 L 182.999683 315.500122 L 205.000407 287.999992 " transform="matrix(3.779528,0,0,3.779528,0,0)"/>
<path style="fill:none;stroke-width:2;stroke-linecap:butt;stroke-linejoin:miter;stroke:rgb(0%,0%,0%);stroke-opacity:1;stroke-miterlimit:4;" d="M 186.000016 305.999927 L 182.00026 320.000106 L 187.999894 304.500277 L 200.000195 288.50022 L 198.000317 271.999935 L 200.000195 255.999878 L 205.999829 239.999821 L 216.000252 223.499536 L 232.000309 207.999707 L 241.999699 191.99965 L 242.499927 176.499821 L 239.000399 171.000415 L 223.000342 168.999504 L 207.000285 173.000293 " transform="matrix(3.779528,0,0,3.779528,0,0)"/>
<path style="fill:none;stroke-width:2;stroke-linecap:butt;stroke-linejoin:miter;stroke:rgb(0%,0%,0%);stroke-opacity:1;stroke-miterlimit:4;" d="M 210.499813 166.999626 L 226.49987 162.99987 L 242.499927 166.999626 L 258.499984 163.500098 L 275.000269 177.000049 L 291.000326 184.999561 " transform="matrix(3.779528,0,0,3.779528,0,0)"/>
<path style="fill:none;stroke-width:2;stroke-linecap:butt;stroke-linejoin:miter;stroke:rgb(0%,0%,0%);stroke-opacity:1;stroke-miterlimit:4;" d="M 262.49974 174.499943 L 246.499683 166.999626 " transform="matrix(3.779528,0,0,3.779528,0,0)"/>
<path style="fill:none;stroke-width:2;stroke-linecap:butt;stroke-linejoin:miter;stroke:rgb(0%,0%,0%);stroke-opacity:1;stroke-miterlimit:4;" d="M 235.499837 164.49952 L 251.499894 180.499577 L 246.99991 196.499634 L 234.999609 212.499691 L 218.500358 227.99952 L 208.499935 243.999577 L 204.500179 259.500439 L 200.999618 275.500496 L 202.999495 291.49952 L 191.500456 307.000382 L 185.499788 323.000439 L 197.50009 339.000496 " transform="matrix(3.779528,0,0,3.779528,0,0)"/>
<path style="fill:none;stroke-width:2;stroke-linecap:butt;stroke-linejoin:miter;stroke:rgb(0%,0%,0%);stroke-opacity:1;stroke-miterlimit:4;" d="M 232.499504 334.999707 L 254.500228 319.499878 L 268.500407 303.499821 L 278.499797 287.499764 L 286.500342 271.499707 L 290.500098 255.000456 L 294.499854 239.000399 L 294.499854 207.500513 L 292.499976 191.500456 L 284.000236 175.000171 L 275.999691 159.000114 L 254 147.500041 L 230.000431 149.499919 " transform="matrix(3.779528,0,0,3.779528,0,0)"/>
<path style="fill:none;stroke-width:2;stroke-linecap:butt;stroke-linejoin:miter;stroke:rgb(0%,0%,0%);stroke-opacity:1;stroke-miterlimit:4;" d="M 228.499748 150.500374 L 211.000041 164.49952 L 205.000407 176.499821 L 200.999618 191.99965 L 196.999862 207.999707 L 191.000228 223.499536 L 187.000472 239.499593 L 180.999805 255.000456 L 177.500277 271.000513 L 171.499609 286.999536 L 169.499731 303.499821 L 165.499976 313.500244 L 169.499731 327.500423 L 185.499788 339.999919 L 200.999618 346.49978 L 216.999674 346.49978 L 232.999731 343.000252 L 249.500016 330.999951 L 265.500073 314.999894 L 282.000358 292.499976 L 286.000114 270.500285 " transform="matrix(3.779528,0,0,3.779528,0,0)"/>
<path style="fill:none;stroke-width:2;stroke-linecap:butt;stroke-linejoin:miter;stroke:rgb(0%,0%,0%);stroke-opacity:1;stroke-miterlimit:4;" d="M 239.000399 210.499813 L 223.000342 226.49987 L 207.000285 252.50035 " transform="matrix(3.779528,0,0,3.779528,0,0)"/>
<path style="fill:none;stroke-width:2;stroke-linecap:butt;stroke-linejoin:miter;stroke:rgb(0%,0%,0%);stroke-opacity:1;stroke-miterlimit:4;" d="M 198.000317 259.999634 L 214.000374 226.49987 L 230.000431 209.999585 " transform="matrix(3.779528,0,0,3.779528,0,0)"/>
<path style="fill:none;stroke-width:2;stroke-linecap:butt;stroke-linejoin:miter;stroke:rgb(0%,0%,0%);stroke-opacity:1;stroke-miterlimit:4;" d="M 202.000073 192.499878 L 188.500122 218.00013 L 190.5 214.000374 L 196.499634 198.499512 L 200.999618 182.500488 " transform="matrix(3.779528,0,0,3.779528,0,0)"/>
<path style="fill:none;stroke-width:2;stroke-linecap:butt;stroke-linejoin:miter;stroke:rgb(0%,0%,0%);stroke-opacity:1;stroke-miterlimit:4;" d="M 207.500513 164.49952 L 223.000342 154.50013 L 207.000285 156.500008 L 194.499756 171.999837 L 186.000016 187.999894 L 180.000382 203.499723 L 175.500399 219.49978 L 169.499731 235.499837 L 163.500098 251.499894 L 159.500342 266.999723 L 155.499552 282.99978 L 155.499552 298.999837 L 159.999536 314.999894 L 171.999837 331.500179 " transform="matrix(3.779528,0,0,3.779528,0,0)"/>
<path style="fill:none;stroke-width:2;stroke-linecap:butt;stroke-linejoin:miter;stroke:rgb(0%,0%,0%);stroke-opacity:1;stroke-miterlimit:4;" d="M 159.500342 311.999561 L 175.500399 323.999862 L 191.99965 338.000041 L 207.999707 341.999797 L 223.999764 340.500146 L 239.999821 330.499723 L 255.999878 318.500456 L 272.500163 298.000415 " transform="matrix(3.779528,0,0,3.779528,0,0)"/>
<path style="fill:none;stroke-width:2;stroke-linecap:butt;stroke-linejoin:miter;stroke:rgb(0%,0%,0%);stroke-opacity:1;stroke-miterlimit:4;" d="M 259.500439 173.499487 L 249.500016 151.499797 L 233.499959 155.99978 " transform="matrix(3.779528,0,0,3.779528,0,0)"/>
<path style="fill:none;stroke-width:2;stroke-linecap:butt;stroke-linejoin:miter;stroke:rgb(0%,0%,0%);stroke-opacity:1;stroke-miterlimit:4;" d="M 259.999634 164.000326 L 277.999569 180.000382 L 295.999504 186.000016 L 298.000415 202.500301 L 300.000293 218.500358 L 300.000293 234.500415 L 297.500187 250.500472 L 293.000203 266.499495 L 286.999536 282.499552 L 277.500374 298.000415 L 265.500073 314.000472 L 249.500016 329.999495 " transform="matrix(3.779528,0,0,3.779528,0,0)"/>
<path style="fill:none;stroke-width:2;stroke-linecap:butt;stroke-linejoin:miter;stroke:rgb(0%,0%,0%);stroke-opacity:1;stroke-miterlimit:4;" d="M 280.499674 363.000065 L 305.999927 347.000008 L 321.999984 330.999951 L 335.499935 314.999894 L 343.000252 298.999837 L 335.499935 313.000016 L 319.499878 332.999829 L 303.499821 349.500114 L 287.999992 359.499504 L 271.499707 368.000277 L 239.499593 379.999544 L 223.499536 382.49965 L 207.500513 382.49965 L 191.500456 380.499772 L 175.000171 378.499894 L 159.000114 372.50026 L 143.500285 359.999731 L 127.500228 338.000041 " transform="matrix(3.779528,0,0,3.779528,0,0)"/>
<path style="fill:none;stroke-width:2;stroke-linecap:butt;stroke-linejoin:miter;stroke:rgb(0%,0%,0%);stroke-opacity:1;stroke-miterlimit:4;" d="M 119.99991 320.000106 L 135.49974 341.999797 L 150.999569 359.499504 L 166.999626 369.499927 L 182.999683 373.499683 L 198.99974 375.999788 L 214.999797 377.999666 L 230.999854 375.999788 L 247.500138 372.000033 L 263.500195 366.000399 L 279.500252 357.999854 L 295.500309 348.000464 L 311.500366 334.000285 L 327.500423 316.00035 L 343.50048 291.49952 L 336.000163 302.999593 L 325.99974 319.499878 L 310.49991 335.499935 L 290.500098 351.499992 L 258.499984 368.000277 " transform="matrix(3.779528,0,0,3.779528,0,0)"/>
<path style="fill:none;stroke-width:2;stroke-linecap:butt;stroke-linejoin:miter;stroke:rgb(0%,0%,0%);stroke-opacity:1;stroke-miterlimit:4;" d="M 171.000415 370.999577 L 144.999935 355.499748 L 132.500439 339.499691 L 124.499894 323.499634 L 120.500138 307.499577 L 120.500138 291.49952 L 127 275.500496 L 134.999512 259.500439 L 143.000057 243.500382 L 141.000179 248.000366 L 125.50035 280.00048 " transform="matrix(3.779528,0,0,3.779528,0,0)"/>
<path style="fill:none;stroke-width:2;stroke-linecap:butt;stroke-linejoin:miter;stroke:rgb(0%,0%,0%);stroke-opacity:1;stroke-miterlimit:4;" d="M 117.499805 286.000114 L 133.499862 250.500472 L 149.499919 221.000464 L 143.500285 235.499837 L 132.999634 252.000122 L 125.000122 268.500407 L 119.000488 284.999658 L 116.999577 300.999715 L 116.500382 316.999772 L 120.500138 332.999829 L 130.000334 348.999886 L 146.499585 364.499715 " transform="matrix(3.779528,0,0,3.779528,0,0)"/>
<path style="fill:none;stroke-width:2;stroke-linecap:butt;stroke-linejoin:miter;stroke:rgb(0%,0%,0%);stroke-opacity:1;stroke-miterlimit:4;" d="M 91.500358 423.999959 L 75.000073 423.499731 L 57.500366 433.500155 L 51.499699 431.500277 L 62.00035 418.999748 L 69.999862 386.999634 L 67.999984 370.999577 L 64.000228 363.000065 L 53.999805 347.000008 L 37.999748 331.500179 L 14.000179 325.499512 " transform="matrix(3.779528,0,0,3.779528,0,0)"/>
<path style="fill:none;stroke-width:2;stroke-linecap:butt;stroke-linejoin:miter;stroke:rgb(0%,0%,0%);stroke-opacity:1;stroke-miterlimit:4;" d="M 19.499585 329.500301 L 35.499642 335.499935 L 51.499699 353.49987 " transform="matrix(3.779528,0,0,3.779528,0,0)"/>
<path style="fill:none;stroke-width:2;stroke-linecap:butt;stroke-linejoin:miter;stroke:rgb(0%,0%,0%);stroke-opacity:1;stroke-miterlimit:4;" d="M 55.500488 368.999699 L 39.500431 347.000008 L 23.500374 332.999829 " transform="matrix(3.779528,0,0,3.779528,0,0)"/>
<path style="fill:none;stroke-width:2;stroke-linecap:butt;stroke-linejoin:miter;stroke:rgb(0%,0%,0%);stroke-opacity:1;stroke-miterlimit:4;" d="M 21.500496 333.500057 L 39.500431 349.500114 L 51.999927 365.500171 " transform="matrix(3.779528,0,0,3.779528,0,0)"/>
<path style="fill:none;stroke-width:2;stroke-linecap:butt;stroke-linejoin:miter;stroke:rgb(0%,0%,0%);stroke-opacity:1;stroke-miterlimit:4;" d="M 45.500065 375.999788 L 19.999813 352.00022 L 3.999756 341.999797 " transform="matrix(3.779528,0,0,3.779528,0,0)"/>
<path style="fill:none;stroke-width:2;stroke-linecap:butt;stroke-linejoin:miter;stroke:rgb(0%,0%,0%);stroke-opacity:1;stroke-miterlimit:4;" d="M 3.000334 335.499935 L 19.000391 343.50048 L 34.50022 357.999854 L 50.500277 368.000277 " transform="matrix(3.779528,0,0,3.779528,0,0)"/>
<path style="fill:none;stroke-width:2;stroke-linecap:butt;stroke-linejoin:miter;stroke:rgb(0%,0%,0%);stroke-opacity:1;stroke-miterlimit:4;" d="M 55.00026 382.49965 L 59.000016 364.499715 L 48.999593 348.000464 L 30.999658 331.500179 L 17.000513 315.500122 L 3.000334 320.000106 " transform="matrix(3.779528,0,0,3.779528,0,0)"/>
<path style="fill:none;stroke-width:2;stroke-linecap:butt;stroke-linejoin:miter;stroke:rgb(0%,0%,0%);stroke-opacity:1;stroke-miterlimit:4;" d="M 1.999878 314.499666 L 3.999756 314.499666 L 17.999935 329.999495 L 28.000358 345.999552 " transform="matrix(3.779528,0,0,3.779528,0,0)"/>
<path style="fill:none;stroke-width:2;stroke-linecap:butt;stroke-linejoin:miter;stroke:rgb(0%,0%,0%);stroke-opacity:1;stroke-miterlimit:4;" d="M 35.000448 350.000342 L 18.500163 336.000163 L 3.000334 329.500301 " transform="matrix(3.779528,0,0,3.779528,0,0)"/>
<path style="fill:none;stroke-width:2;stroke-linecap:butt;stroke-linejoin:miter;stroke:rgb(0%,0%,0%);stroke-opacity:1;stroke-miterlimit:4;" d="M 2.500106 335.499935 L 14.500407 351.499992 L 19.499585 375.499561 " transform="matrix(3.779528,0,0,3.779528,0,0)"/>
<path style="fill:none;stroke-width:2;stroke-linecap:butt;stroke-linejoin:miter;stroke:rgb(0%,0%,0%);stroke-opacity:1;stroke-miterlimit:4;" d="M 30.000236 379.50035 L 34.50022 395.500407 L 32.500342 411.500464 L 24.499797 427.999715 L 28.499552 418.000326 " transform="matrix(3.779528,0,0,3.779528,0,0)"/>
<path style="fill:none;stroke-width:2;stroke-linecap:butt;stroke-linejoin:miter;stroke:rgb(0%,0%,0%);stroke-opacity:1;stroke-miterlimit:4;" d="M 23.500374 415.50022 L 7.999512 433.500155 L 14.000179 429.500399 L 26.499674 413.500342 L 28.99978 397.500285 L 25.000024 382.000456 L 7.00009 366.000399 L 3.000334 362.499837 " transform="matrix(3.779528,0,0,3.779528,0,0)"/>
<path style="fill:none;stroke-width:2;stroke-linecap:butt;stroke-linejoin:miter;stroke:rgb(0%,0%,0%);stroke-opacity:1;stroke-miterlimit:4;" d="M 14.500407 341.000374 L 32.500342 357.499626 L 39.999626 373.499683 L 51.999927 389.49974 L 53.999805 406.000024 L 51.999927 422.000081 L 41.500309 438.000138 " transform="matrix(3.779528,0,0,3.779528,0,0)"/>
<path style="fill:none;stroke-width:2;stroke-linecap:butt;stroke-linejoin:miter;stroke:rgb(0%,0%,0%);stroke-opacity:1;stroke-miterlimit:4;" d="M 73.000195 410.500008 L 70.50009 394.499951 " transform="matrix(3.779528,0,0,3.779528,0,0)"/>
<path style="fill:none;stroke-width:2;stroke-linecap:butt;stroke-linejoin:miter;stroke:rgb(0%,0%,0%);stroke-opacity:1;stroke-miterlimit:4;" d="M 66.999528 366.000399 L 51.000505 341.999797 L 35.000448 326.499967 L 19.000391 316.499544 L 3.000334 308.500033 " transform="matrix(3.779528,0,0,3.779528,0,0)"/>
<path style="fill:none;stroke-width:2;stroke-linecap:butt;stroke-linejoin:miter;stroke:rgb(0%,0%,0%);stroke-opacity:1;stroke-miterlimit:4;" d="M 3.000334 256.500106 L 19.000391 262.49974 L 34.50022 264.499618 L 52.500155 274.500041 L 68.500212 276.499919 L 84.500269 276.499919 L 100.500326 271.999935 L 116.000155 246.000488 " transform="matrix(3.779528,0,0,3.779528,0,0)"/>
<path style="fill:none;stroke-width:2;stroke-linecap:butt;stroke-linejoin:miter;stroke:rgb(0%,0%,0%);stroke-opacity:1;stroke-miterlimit:4;" d="M 106.499959 252.50035 L 116.500382 236.500293 L 122.500016 220.500236 " transform="matrix(3.779528,0,0,3.779528,0,0)"/>
<path style="fill:none;stroke-width:2;stroke-linecap:butt;stroke-linejoin:miter;stroke:rgb(0%,0%,0%);stroke-opacity:1;stroke-miterlimit:4;" d="M 59.500244 250.000244 L 43.500187 243.999577 " transform="matrix(3.779528,0,0,3.779528,0,0)"/>
<path style="fill:none;stroke-width:2;stroke-linecap:butt;stroke-linejoin:miter;stroke:rgb(0%,0%,0%);stroke-opacity:1;stroke-miterlimit:4;" d="M 62.499544 259.500439 L 46.999715 255.49965 L 30.999658 257.499528 L 14.999601 251.499894 " transform="matrix(3.779528,0,0,3.779528,0,0)"/>
<path style="fill:none;stroke-width:2;stroke-linecap:butt;stroke-linejoin:miter;stroke:rgb(0%,0%,0%);stroke-opacity:1;stroke-miterlimit:4;" d="M 12.999723 239.999821 L 28.99978 241.500505 L 44.999837 246.99991 L 60.999894 252.999544 L 76.999951 257.000334 L 82.500391 257.000334 L 98.999642 248.999788 L 114.999699 212.999919 L 130.999756 187.499666 " transform="matrix(3.779528,0,0,3.779528,0,0)"/>
<path style="fill:none;stroke-width:2;stroke-linecap:butt;stroke-linejoin:miter;stroke:rgb(0%,0%,0%);stroke-opacity:1;stroke-miterlimit:4;" d="M 109.000065 148.500496 L 130.999756 164.49952 L 128.999878 180.000382 L 121.000366 195.500212 L 114.999699 211.500269 L 107.000187 227.000098 L 99.49987 243.000155 L 100.000098 259.500439 L 118.000033 239.499593 " transform="matrix(3.779528,0,0,3.779528,0,0)"/>
<path style="fill:none;stroke-width:2;stroke-linecap:butt;stroke-linejoin:miter;stroke:rgb(0%,0%,0%);stroke-opacity:1;stroke-miterlimit:4;" d="M 119.99991 143.500285 L 103.999854 139.499495 L 88.500024 141.000179 " transform="matrix(3.779528,0,0,3.779528,0,0)"/>
<path style="fill:none;stroke-width:2;stroke-linecap:butt;stroke-linejoin:miter;stroke:rgb(0%,0%,0%);stroke-opacity:1;stroke-miterlimit:4;" d="M 91.500358 137.499618 L 63.5 153.499674 L 47.499943 169.499731 L 31.499886 187.000472 L 17.499707 202.999495 L 1.49965 216.50048 L 17.999935 202.500301 L 34.50022 184.000138 L 51.000505 166.000203 L 67.499756 150.000146 L 85.999919 139.999723 L 101.999976 135.999967 " transform="matrix(3.779528,0,0,3.779528,0,0)"/>
<path style="fill:none;stroke-width:2;stroke-linecap:butt;stroke-linejoin:miter;stroke:rgb(0%,0%,0%);stroke-opacity:1;stroke-miterlimit:4;" d="M 112.499593 139.000301 L 134.500317 148.500496 L 140.499951 160.499764 L 138.500073 172.500065 L 132.500439 184.500366 L 126.499772 200.500423 L 121.000366 216.50048 L 112.999821 232.499504 L 105.499504 248.000366 L 121.000366 212.000496 L 134.999512 190.5 " transform="matrix(3.779528,0,0,3.779528,0,0)"/>
<path style="fill:none;stroke-width:2;stroke-linecap:butt;stroke-linejoin:miter;stroke:rgb(0%,0%,0%);stroke-opacity:1;stroke-miterlimit:4;" d="M 124.499894 153.999902 L 107.999609 146.000391 L 91.999552 146.000391 L 75.500301 152.000024 L 59.500244 166.500431 L 43.500187 180.499577 L 45.500065 178.499699 L 63.5 162.499642 L 91.500358 146.499585 " transform="matrix(3.779528,0,0,3.779528,0,0)"/>
<path style="fill:none;stroke-width:2;stroke-linecap:butt;stroke-linejoin:miter;stroke:rgb(0%,0%,0%);stroke-opacity:1;stroke-miterlimit:4;" d="M 91.999552 129.500106 L 62.00035 145.500163 L 44.000415 162.000448 L 32.000114 178.000505 L 17.999935 193.500334 L 2.500106 209.500391 L 17.999935 193.500334 L 33.999992 173.499487 L 50.000049 155.499552 L 66.500334 143.500285 L 82.999585 133.499862 L 98.500448 130.000334 L 114.999699 130.000334 L 130.999756 134.00009 L 146.999813 153.999902 " transform="matrix(3.779528,0,0,3.779528,0,0)"/>
<path style="fill:none;stroke-width:2;stroke-linecap:butt;stroke-linejoin:miter;stroke:rgb(0%,0%,0%);stroke-opacity:1;stroke-miterlimit:4;" d="M 119.99991 132.500439 L 143.500285 148.000269 L 143.500285 163.500098 L 141.500407 179.500155 L 135.999967 196.000439 L 130.000334 212.000496 L 123.999666 227.99952 L 118.000033 243.999577 L 104.500081 259.999634 L 96.499536 273.499585 " transform="matrix(3.779528,0,0,3.779528,0,0)"/>
<path style="fill:none;stroke-width:2;stroke-linecap:butt;stroke-linejoin:miter;stroke:rgb(0%,0%,0%);stroke-opacity:1;stroke-miterlimit:4;" d="M 87.499569 270.000057 L 71.499512 270.500285 L 55.500488 268.500407 L 39.500431 271.000513 L 12.000301 261.00009 L 1.999878 244.499805 " transform="matrix(3.779528,0,0,3.779528,0,0)"/>
<path style="fill:none;stroke-width:2;stroke-linecap:butt;stroke-linejoin:miter;stroke:rgb(0%,0%,0%);stroke-opacity:1;stroke-miterlimit:4;" d="M 0.500228 238.500171 L 17.000513 236.500293 L 28.99978 238.500171 L 39.000203 244.499805 L 55.500488 243.999577 " transform="matrix(3.779528,0,0,3.779528,0,0)"/>
<path style="fill:none;stroke-width:2;stroke-linecap:butt;stroke-linejoin:miter;stroke:rgb(0%,0%,0%);stroke-opacity:1;stroke-miterlimit:4;" d="M 85.999919 263.500195 L 69.999862 261.500317 L 50.000049 241.500505 L 9.500195 229.500203 L 1.49965 233.499959 " transform="matrix(3.779528,0,0,3.779528,0,0)"/>
<path style="fill:none;stroke-width:2;stroke-linecap:butt;stroke-linejoin:miter;stroke:rgb(0%,0%,0%);stroke-opacity:1;stroke-miterlimit:4;" d="M 146.000391 87.499569 L 112.000399 103.499626 L 85.499691 119.499683 L 73.500423 129.500106 L 89.50048 117.499805 L 105.999731 107.999609 L 121.999788 97.499992 L 137.999845 91.500358 L 153.999902 87.999797 L 169.999959 87.999797 L 186.000016 88.500024 L 202.000073 90.499902 L 218.00013 89.999674 L 234.000187 91.999552 L 250.000244 91.500358 L 266.499495 87.000374 L 282.499552 89.50048 L 300.499487 85.999919 L 316.499544 90.499902 L 332.999829 94.499658 " transform="matrix(3.779528,0,0,3.779528,0,0)"/>
<path style="fill:none;stroke-width:2;stroke-linecap:butt;stroke-linejoin:miter;stroke:rgb(0%,0%,0%);stroke-opacity:1;stroke-miterlimit:4;" d="M 330.999951 71.499512 L 373.000488 87.499569 L 413.500342 101.499748 L 437.49991 115.499927 L 470.000252 130.999756 L 491.999943 149.499919 L 500.000488 165.499976 L 506.000122 182.00026 L 508 198.000317 L 509.999878 200.500423 " transform="matrix(3.779528,0,0,3.779528,0,0)"/>
<path style="fill:none;stroke-width:2;stroke-linecap:butt;stroke-linejoin:miter;stroke:rgb(0%,0%,0%);stroke-opacity:1;stroke-miterlimit:4;" d="M 509.999878 187.499666 L 508 171.499609 L 500.000488 155.499552 L 490.000065 139.499495 L 466.000496 123.500472 L 432.000505 107.000187 " transform="matrix(3.779528,0,0,3.779528,0,0)"/>
<path style="fill:none;stroke-width:2;stroke-linecap:butt;stroke-linejoin:miter;stroke:rgb(0%,0%,0%);stroke-opacity:1;stroke-miterlimit:4;" d="M 298.499609 89.50048 L 266.499495 78.499601 " transform="matrix(3.779528,0,0,3.779528,0,0)"/>
<path style="fill:none;stroke-width:2;stroke-linecap:butt;stroke-linejoin:miter;stroke:rgb(0%,0%,0%);stroke-opacity:1;stroke-miterlimit:4;" d="M 143.000057 84.000041 L 105.499504 100.000098 L 80.999707 115.499927 L 63.5 131.499984 L 47.499943 147.500041 L 30.000236 167.499854 L 16.000057 183.49991 L 4.499984 196.000439 L 20.500041 180.000382 L 37.000326 162.499642 L 53.000382 144.499707 L 69.000439 128.49965 L 85.000496 114.500505 L 100.99952 103.999854 L 116.999577 96.000342 L 132.999634 89.50048 L 148.999691 84.000041 L 164.999748 80.000285 L 180.999805 74.499845 L 197.50009 68.500212 L 213.500146 66.500334 L 228.999976 60.499666 L 245.000033 58.499788 L 260.499862 60.000472 L 275.999691 60.000472 L 291.999748 61.500122 L 307.499577 63.5 L 323.499634 67.499756 L 339.499691 73.500423 L 355.499748 78.999829 L 371.499805 85.000496 L 387.499862 91.00013 L 404.000146 96.999764 L 420.000203 103.499626 L 436.500488 107.999609 L 452.99974 116.000155 L 468.999797 123.999666 L 484.999854 134.00009 L 501.500138 146.000391 L 507.499772 166.000203 " transform="matrix(3.779528,0,0,3.779528,0,0)"/>
</g>
</svg>
