<?xml version="1.0" encoding="UTF-8"?>
<svg xmlns="http://www.w3.org/2000/svg" xmlns:xlink="http://www.w3.org/1999/xlink" width="1935.11811" height="1935.11811" viewBox="0 0 1935.11811 1935.11811" version="1.1">
<g id="surface1">
<path style="fill:none;stroke-width:2;stroke-linecap:butt;stroke-linejoin:miter;stroke:rgb(0%,0%,0%);stroke-opacity:1;stroke-miterlimit:4;" d="M 227.500326 58.499788 L 179.500155 74.499845 L 143.500285 90.499902 L 123.500472 106.499959 L 105.499504 123.000244 L 91.500358 139.000301 L 79.500057 155.000358 L 77.500179 171.000415 L 85.000496 178.999927 L 100.99952 180.499577 L 116.500382 182.500488 L 148.999691 182.500488 L 164.999748 180.499577 L 181.500033 178.000505 L 199.499967 177.500277 L 215.500024 168.999504 L 231.500081 159.000114 L 247.500138 144.999935 L 263.500195 126.499772 L 280.00048 102.500203 " transform="matrix(3.779528,0,0,3.779528,0,0)"/>
<path style="fill:none;stroke-width:2;stroke-linecap:butt;stroke-linejoin:miter;stroke:rgb(0%,0%,0%);stroke-opacity:1;stroke-miterlimit:4;" d="M 217.499902 66.000106 L 233.499959 62.00035 L 249.500016 60.000472 L 266.000301 57.500366 L 282.499552 55.500488 L 298.499609 53.499577 L 314.499666 55.500488 L 330.499723 57.500366 L 345.999552 61.500122 L 375.499561 67.499756 L 391.499618 83.499813 L 409.499552 99.49987 L 423.499731 115.499927 L 423.499731 123.500472 L 432.000505 139.499495 L 441.999894 139.499495 L 438.000138 155.499552 L 443.499544 157.000236 L 443.00035 162.99987 L 439.499788 178.999927 L 425.999837 178.999927 L 433.500155 181.500033 L 431.500277 193.500334 " transform="matrix(3.779528,0,0,3.779528,0,0)"/>
<path style="fill:none;stroke-width:2;stroke-linecap:butt;stroke-linejoin:miter;stroke:rgb(0%,0%,0%);stroke-opacity:1;stroke-miterlimit:4;" d="M 416.499642 193.999528 L 400.499585 183.49991 " transform="matrix(3.779528,0,0,3.779528,0,0)"/>
<path style="fill:none;stroke-width:2;stroke-linecap:butt;stroke-linejoin:miter;stroke:rgb(0%,0%,0%);stroke-opacity:1;stroke-miterlimit:4;" d="M 395.500407 180.499577 L 411.500464 180.499577 " transform="matrix(3.779528,0,0,3.779528,0,0)"/>
<path style="fill:none;stroke-width:2;stroke-linecap:butt;stroke-linejoin:miter;stroke:rgb(0%,0%,0%);stroke-opacity:1;stroke-miterlimit:4;" d="M 389.999967 182.00026 L 406.000024 193.999528 L 422.000081 200.000195 L 438.500366 186.000016 " transform="matrix(3.779528,0,0,3.779528,0,0)"/>
<path style="fill:none;stroke-width:2;stroke-linecap:butt;stroke-linejoin:miter;stroke:rgb(0%,0%,0%);stroke-opacity:1;stroke-miterlimit:4;" d="M 413.500342 173.000293 L 397.500285 171.000415 L 381.500228 158.499886 L 365.500171 127 " transform="matrix(3.779528,0,0,3.779528,0,0)"/>
<path style="fill:none;stroke-width:2;stroke-linecap:butt;stroke-linejoin:miter;stroke:rgb(0%,0%,0%);stroke-opacity:1;stroke-miterlimit:4;" d="M 359.999731 123.999666 L 375.999788 159.999536 L 391.999845 175.999593 L 407.999902 175.999593 L 423.999959 178.000505 " transform="matrix(3.779528,0,0,3.779528,0,0)"/>
<path style="fill:none;stroke-width:2;stroke-linecap:butt;stroke-linejoin:miter;stroke:rgb(0%,0%,0%);stroke-opacity:1;stroke-miterlimit:4;" d="M 395.500407 125.50035 L 379.000122 118.000033 L 363.000065 118.000033 " transform="matrix(3.779528,0,0,3.779528,0,0)"/>
<path style="fill:none;stroke-width:2;stroke-linecap:butt;stroke-linejoin:miter;stroke:rgb(0%,0%,0%);stroke-opacity:1;stroke-miterlimit:4;" d="M 355.499748 114.000277 L 371.499805 107.999609 " transform="matrix(3.779528,0,0,3.779528,0,0)"/>
<path style="fill:none;stroke-width:2;stroke-linecap:butt;stroke-linejoin:miter;stroke:rgb(0%,0%,0%);stroke-opacity:1;stroke-miterlimit:4;" d="M 357.499626 93.500236 L 359.499504 109.500293 L 373.499683 119.499683 L 401.500041 134.999512 " transform="matrix(3.779528,0,0,3.779528,0,0)"/>
<path style="fill:none;stroke-width:2;stroke-linecap:butt;stroke-linejoin:miter;stroke:rgb(0%,0%,0%);stroke-opacity:1;stroke-miterlimit:4;" d="M 429.000171 130.999756 L 413.500342 109.000065 L 397.500285 94.999886 L 375.499561 73.500423 L 359.999731 65.499878 " transform="matrix(3.779528,0,0,3.779528,0,0)"/>
<path style="fill:none;stroke-width:2;stroke-linecap:butt;stroke-linejoin:miter;stroke:rgb(0%,0%,0%);stroke-opacity:1;stroke-miterlimit:4;" d="M 359.499504 64.99965 L 401.500041 76.999951 L 441.499666 93.000008 L 461.500513 109.500293 L 474.000008 125.999544 L 484.000431 142.499829 L 490.000065 158.499886 L 493.999821 190.5 L 495.000277 222.500114 L 495.000277 238.500171 L 498.499805 250.500472 L 508.500228 266.499495 L 510.500106 290.500098 L 500.499683 314.499666 L 494.500049 329.999495 L 500.000488 345.999552 L 509.999878 357.999854 L 504.000244 373.99991 L 492.500171 389.999967 " transform="matrix(3.779528,0,0,3.779528,0,0)"/>
<path style="fill:none;stroke-width:2;stroke-linecap:butt;stroke-linejoin:miter;stroke:rgb(0%,0%,0%);stroke-opacity:1;stroke-miterlimit:4;" d="M 504.000244 356.500203 L 504.000244 340.500146 L 508 338.000041 " transform="matrix(3.779528,0,0,3.779528,0,0)"/>
<path style="fill:none;stroke-width:2;stroke-linecap:butt;stroke-linejoin:miter;stroke:rgb(0%,0%,0%);stroke-opacity:1;stroke-miterlimit:4;" d="M 509.999878 335.499935 L 508.500228 351.499992 " transform="matrix(3.779528,0,0,3.779528,0,0)"/>
<path style="fill:none;stroke-width:2;stroke-linecap:butt;stroke-linejoin:miter;stroke:rgb(0%,0%,0%);stroke-opacity:1;stroke-miterlimit:4;" d="M 497.000155 354.500326 L 494.500049 338.500269 " transform="matrix(3.779528,0,0,3.779528,0,0)"/>
<path style="fill:none;stroke-width:2;stroke-linecap:butt;stroke-linejoin:miter;stroke:rgb(0%,0%,0%);stroke-opacity:1;stroke-miterlimit:4;" d="M 484.499626 334.999707 L 480.49987 351.499992 " transform="matrix(3.779528,0,0,3.779528,0,0)"/>
<path style="fill:none;stroke-width:2;stroke-linecap:butt;stroke-linejoin:miter;stroke:rgb(0%,0%,0%);stroke-opacity:1;stroke-miterlimit:4;" d="M 471.499902 359.499504 L 469.500024 343.50048 L 466.999919 327.500423 L 468.999797 311.500366 L 470.50048 295.999504 L 472.500358 280.00048 L 484.000431 264.499618 L 474.000008 289.000448 " transform="matrix(3.779528,0,0,3.779528,0,0)"/>
<path style="fill:none;stroke-width:2;stroke-linecap:butt;stroke-linejoin:miter;stroke:rgb(0%,0%,0%);stroke-opacity:1;stroke-miterlimit:4;" d="M 477.499536 280.499674 L 485.500081 296.499731 L 484.999854 308.500033 L 499.000033 298.499609 L 504.500472 286.000114 " transform="matrix(3.779528,0,0,3.779528,0,0)"/>
<path style="fill:none;stroke-width:2;stroke-linecap:butt;stroke-linejoin:miter;stroke:rgb(0%,0%,0%);stroke-opacity:1;stroke-miterlimit:4;" d="M 511.000334 265.500073 L 495.000277 257.499528 L 478.499992 255.49965 L 462.499935 271.499707 " transform="matrix(3.779528,0,0,3.779528,0,0)"/>
<path style="fill:none;stroke-width:2;stroke-linecap:butt;stroke-linejoin:miter;stroke:rgb(0%,0%,0%);stroke-opacity:1;stroke-miterlimit:4;" d="M 472.00013 280.00048 L 488.000187 264.000423 L 504.500472 273.999813 L 496.499927 286.000114 L 492.500171 302.000171 L 482.499748 318.500456 L 490.500293 341.999797 L 490.500293 357.999854 L 502.000366 361.500415 L 495.999699 377.500472 " transform="matrix(3.779528,0,0,3.779528,0,0)"/>
<path style="fill:none;stroke-width:2;stroke-linecap:butt;stroke-linejoin:miter;stroke:rgb(0%,0%,0%);stroke-opacity:1;stroke-miterlimit:4;" d="M 487.499959 382.49965 L 467.500146 366.499593 L 459.499601 350.499536 L 451.50009 334.500513 L 453.499967 343.000252 " transform="matrix(3.779528,0,0,3.779528,0,0)"/>
<path style="fill:none;stroke-width:2;stroke-linecap:butt;stroke-linejoin:miter;stroke:rgb(0%,0%,0%);stroke-opacity:1;stroke-miterlimit:4;" d="M 445.99965 354.500326 L 461.999707 370.500382 " transform="matrix(3.779528,0,0,3.779528,0,0)"/>
<path style="fill:none;stroke-width:2;stroke-linecap:butt;stroke-linejoin:miter;stroke:rgb(0%,0%,0%);stroke-opacity:1;stroke-miterlimit:4;" d="M 469.500024 382.49965 L 456.000073 366.499593 L 444.5 350.000342 L 446.499878 333.500057 L 446.499878 317.5 L 452.499512 313.500244 " transform="matrix(3.779528,0,0,3.779528,0,0)"/>
<path style="fill:none;stroke-width:2;stroke-linecap:butt;stroke-linejoin:miter;stroke:rgb(0%,0%,0%);stroke-opacity:1;stroke-miterlimit:4;" d="M 470.50048 311.500366 L 486.499504 311.500366 " transform="matrix(3.779528,0,0,3.779528,0,0)"/>
<path style="fill:none;stroke-width:2;stroke-linecap:butt;stroke-linejoin:miter;stroke:rgb(0%,0%,0%);stroke-opacity:1;stroke-miterlimit:4;" d="M 509.49965 275.500496 L 495.500505 259.500439 L 487.499959 237.499715 L 471.499902 237.499715 L 455.499845 253.499772 L 439.499788 277.500374 L 423.499731 285.499886 L 407.499674 293.999626 L 391.499618 299.500065 L 375.499561 305.999927 L 359.499504 284.000236 L 343.50048 276.499919 L 327.500423 274.500041 L 311.000138 278.499797 L 295.500309 284.500464 L 279.500252 294.499854 L 264.000423 309.999683 L 248.000366 334.000285 L 232.000309 352.500448 L 216.000252 352.500448 L 200.000195 352.00022 L 184.000138 349.500114 L 152.000024 349.500114 L 136.500195 348.000464 L 120.500138 348.000464 L 104.500081 348.499658 L 88.500024 346.49978 L 71.99974 346.49978 L 55.999683 342.500024 L 39.500431 338.500269 L 29.500008 329.999495 L 25.500252 314.000472 L 23.500374 298.000415 L 23.000146 271.999935 L 23.000146 255.999878 L 21.500496 239.999821 L 21.999691 223.999764 L 23.999569 208.499935 L 27.50013 193.000106 L 33.499764 177.000049 L 41.999504 160.999992 L 53.999805 144.499707 L 71.99974 128.999878 L 96.000342 112.999821 L 123.999666 97.499992 L 130.000334 95.500114 L 114.000277 103.000431 L 98.00022 112.999821 L 81.499935 120.500138 L 65.499878 132.500439 L 49.499821 148.000269 L 33.499764 171.999837 " transform="matrix(3.779528,0,0,3.779528,0,0)"/>
<path style="fill:none;stroke-width:2;stroke-linecap:butt;stroke-linejoin:miter;stroke:rgb(0%,0%,0%);stroke-opacity:1;stroke-miterlimit:4;" d="M 23.500374 182.999683 L 39.500431 150.999569 L 55.500488 132.999634 L 71.499512 119.499683 L 87.499569 109.500293 L 103.499626 101.499748 L 119.99991 91.999552 L 135.999967 86.500146 L 114.000277 96.999764 L 85.999919 112.999821 L 62.00035 128.999878 L 46.000293 144.999935 L 34.50022 160.999992 L 28.000358 177.000049 L 21.999691 193.000106 L 19.499585 208.499935 L 17.499707 224.499992 L 17.000513 240.500049 L 19.000391 255.999878 L 24.499797 283.500008 L 28.499552 299.500065 L 30.500464 315.500122 L 35.000448 331.500179 L 35.499642 345.500358 L 39.500431 361.500415 L 44.000415 377.500472 L 32.000114 398.000513 L 46.499487 393.999723 " transform="matrix(3.779528,0,0,3.779528,0,0)"/>
<path style="fill:none;stroke-width:2;stroke-linecap:butt;stroke-linejoin:miter;stroke:rgb(0%,0%,0%);stroke-opacity:1;stroke-miterlimit:4;" d="M 48.500399 373.000488 L 64.000228 381.500228 L 80.000285 381.500228 L 80.000285 389.999967 L 66.500334 406.000024 L 54.500033 422.500309 L 58.499788 414.999992 L 73.999618 398.999935 L 89.50048 388.999512 L 105.499504 384.499528 L 121.499561 386.500439 L 139.499495 392.500073 L 155.499552 394.499951 L 171.499609 394.499951 L 187.499666 395.999601 L 203.999951 395.999601 L 220.500236 398.000513 L 236.500293 393.499495 " transform="matrix(3.779528,0,0,3.779528,0,0)"/>
<path style="fill:none;stroke-width:2;stroke-linecap:butt;stroke-linejoin:miter;stroke:rgb(0%,0%,0%);stroke-opacity:1;stroke-miterlimit:4;" d="M 223.499536 391.999845 L 207.500513 391.999845 L 191.500456 390.500195 L 175.500399 390.500195 L 159.500342 388.500317 L 143.000057 388.500317 L 127 392.500073 L 111.500171 389.999967 L 95.500114 388.00009 " transform="matrix(3.779528,0,0,3.779528,0,0)"/>
<path style="fill:none;stroke-width:2;stroke-linecap:butt;stroke-linejoin:miter;stroke:rgb(0%,0%,0%);stroke-opacity:1;stroke-miterlimit:4;" d="M 118.000033 373.000488 L 134.00009 375.000366 L 150.000146 373.499683 L 165.499976 373.499683 L 181.500033 373.99991 L 212.999919 373.99991 " transform="matrix(3.779528,0,0,3.779528,0,0)"/>
<path style="fill:none;stroke-width:2;stroke-linecap:butt;stroke-linejoin:miter;stroke:rgb(0%,0%,0%);stroke-opacity:1;stroke-miterlimit:4;" d="M 213.500146 370.000155 L 182.00026 370.000155 L 166.000203 369.499927 L 118.000033 369.499927 " transform="matrix(3.779528,0,0,3.779528,0,0)"/>
<path style="fill:none;stroke-width:2;stroke-linecap:butt;stroke-linejoin:miter;stroke:rgb(0%,0%,0%);stroke-opacity:1;stroke-miterlimit:4;" d="M 89.50048 420.999626 L 87.499569 416.499642 L 71.499512 416.000448 " transform="matrix(3.779528,0,0,3.779528,0,0)"/>
<path style="fill:none;stroke-width:2;stroke-linecap:butt;stroke-linejoin:miter;stroke:rgb(0%,0%,0%);stroke-opacity:1;stroke-miterlimit:4;" d="M 49.499821 423.999959 L 33.499764 427.499487 L 1.49965 427.499487 " transform="matrix(3.779528,0,0,3.779528,0,0)"/>
<path style="fill:none;stroke-width:2;stroke-linecap:butt;stroke-linejoin:miter;stroke:rgb(0%,0%,0%);stroke-opacity:1;stroke-miterlimit:4;" d="M 1.999878 421.499854 L 17.999935 421.499854 L 33.999992 418.999748 L 50.000049 413.000114 L 75.999495 409.000358 L 91.999552 407.00048 L 107.999609 404.999569 L 123.999666 402.999691 L 139.499495 403.499919 L 171.000415 403.499919 " transform="matrix(3.779528,0,0,3.779528,0,0)"/>
<path style="fill:none;stroke-width:2;stroke-linecap:butt;stroke-linejoin:miter;stroke:rgb(0%,0%,0%);stroke-opacity:1;stroke-miterlimit:4;" d="M 182.999683 429.500399 L 198.99974 425.499609 L 214.999797 425.999837 L 239.499593 420.500431 L 255.999878 422.500309 L 270.500285 436.999683 L 286.500342 434.499577 L 302.500399 446.499878 L 318.99965 460.500057 L 335.499935 466.499691 L 351.499992 456.500301 L 367.500049 442.500122 " transform="matrix(3.779528,0,0,3.779528,0,0)"/>
<path style="fill:none;stroke-width:2;stroke-linecap:butt;stroke-linejoin:miter;stroke:rgb(0%,0%,0%);stroke-opacity:1;stroke-miterlimit:4;" d="M 399.500163 407.499674 L 415.50022 403.499919 L 431.500277 401.500041 L 447.500334 397.500285 L 463.999585 395.500407 L 479.999642 395.500407 " transform="matrix(3.779528,0,0,3.779528,0,0)"/>
<path style="fill:none;stroke-width:2;stroke-linecap:butt;stroke-linejoin:miter;stroke:rgb(0%,0%,0%);stroke-opacity:1;stroke-miterlimit:4;" d="M 475.999886 387.499862 L 459.999829 388.999512 L 443.499544 381 L 427.499487 366.999821 " transform="matrix(3.779528,0,0,3.779528,0,0)"/>
<path style="fill:none;stroke-width:2;stroke-linecap:butt;stroke-linejoin:miter;stroke:rgb(0%,0%,0%);stroke-opacity:1;stroke-miterlimit:4;" d="M 420.999626 368.500505 L 436.999683 384.499528 " transform="matrix(3.779528,0,0,3.779528,0,0)"/>
<path style="fill:none;stroke-width:2;stroke-linecap:butt;stroke-linejoin:miter;stroke:rgb(0%,0%,0%);stroke-opacity:1;stroke-miterlimit:4;" d="M 441.499666 379.999544 L 425.499609 363.999487 L 433.500155 348.000464 L 415.50022 365.500171 L 400.000391 373.499683 " transform="matrix(3.779528,0,0,3.779528,0,0)"/>
<path style="fill:none;stroke-width:2;stroke-linecap:butt;stroke-linejoin:miter;stroke:rgb(0%,0%,0%);stroke-opacity:1;stroke-miterlimit:4;" d="M 413.999536 366.499593 L 379.999544 382.999878 L 375.499561 398.999935 L 375.499561 414.499764 L 369.499927 426.500065 L 361.500415 441.999894 L 350.000342 457.999951 " transform="matrix(3.779528,0,0,3.779528,0,0)"/>
<path style="fill:none;stroke-width:2;stroke-linecap:butt;stroke-linejoin:miter;stroke:rgb(0%,0%,0%);stroke-opacity:1;stroke-miterlimit:4;" d="M 359.999731 430.499821 L 363.500293 414.999992 L 365.500171 398.999935 L 359.999731 391.000423 L 343.999674 390.500195 " transform="matrix(3.779528,0,0,3.779528,0,0)"/>
<path style="fill:none;stroke-width:2;stroke-linecap:butt;stroke-linejoin:miter;stroke:rgb(0%,0%,0%);stroke-opacity:1;stroke-miterlimit:4;" d="M 336.000163 376.500016 L 352.00022 368.500505 " transform="matrix(3.779528,0,0,3.779528,0,0)"/>
<path style="fill:none;stroke-width:2;stroke-linecap:butt;stroke-linejoin:miter;stroke:rgb(0%,0%,0%);stroke-opacity:1;stroke-miterlimit:4;" d="M 353.49987 364.999943 L 350.000342 377.000244 L 332.499601 402.500496 L 316.499544 422.000081 L 300.000293 427.499487 L 302.000171 413.500342 L 322.500212 411.000236 L 329.000073 393.499495 L 347.000008 379.50035 L 360.499959 363.500293 L 364.499715 347.500236 L 352.500448 331.500179 L 348.499658 333.500057 L 332.999829 327.500423 L 313.000016 314.000472 L 296.999959 320.000106 L 286.999536 328.499845 L 270.500285 334.500513 L 256.500106 350.999764 L 266.000301 336.999585 L 268.000179 341.000374 " transform="matrix(3.779528,0,0,3.779528,0,0)"/>
<path style="fill:none;stroke-width:2;stroke-linecap:butt;stroke-linejoin:miter;stroke:rgb(0%,0%,0%);stroke-opacity:1;stroke-miterlimit:4;" d="M 268.500407 323.000439 L 284.500464 309.00026 L 300.499487 298.999837 L 276.499919 309.500488 L 261.00009 327.000195 L 262.999967 325.000317 L 279.000024 307.000382 L 293.000203 311.000138 L 309.00026 302.999593 L 325.499512 302.999593 L 341.499569 307.000382 L 357.499626 318.500456 " transform="matrix(3.779528,0,0,3.779528,0,0)"/>
<path style="fill:none;stroke-width:2;stroke-linecap:butt;stroke-linejoin:miter;stroke:rgb(0%,0%,0%);stroke-opacity:1;stroke-miterlimit:4;" d="M 354.000098 296.999959 L 338.000041 284.999658 " transform="matrix(3.779528,0,0,3.779528,0,0)"/>
<path style="fill:none;stroke-width:2;stroke-linecap:butt;stroke-linejoin:miter;stroke:rgb(0%,0%,0%);stroke-opacity:1;stroke-miterlimit:4;" d="M 336.000163 284.000236 L 359.999731 300.000293 " transform="matrix(3.779528,0,0,3.779528,0,0)"/>
<path style="fill:none;stroke-width:2;stroke-linecap:butt;stroke-linejoin:miter;stroke:rgb(0%,0%,0%);stroke-opacity:1;stroke-miterlimit:4;" d="M 357.999854 305.499699 L 341.499569 293.999626 L 325.000317 287.499764 " transform="matrix(3.779528,0,0,3.779528,0,0)"/>
<path style="fill:none;stroke-width:2;stroke-linecap:butt;stroke-linejoin:miter;stroke:rgb(0%,0%,0%);stroke-opacity:1;stroke-miterlimit:4;" d="M 326.499967 288.50022 L 354.500326 304.500277 " transform="matrix(3.779528,0,0,3.779528,0,0)"/>
<path style="fill:none;stroke-width:2;stroke-linecap:butt;stroke-linejoin:miter;stroke:rgb(0%,0%,0%);stroke-opacity:1;stroke-miterlimit:4;" d="M 355.999976 311.500366 L 339.999919 299.500065 L 323.999862 291.999748 L 307.999805 290.500098 " transform="matrix(3.779528,0,0,3.779528,0,0)"/>
<path style="fill:none;stroke-width:2;stroke-linecap:butt;stroke-linejoin:miter;stroke:rgb(0%,0%,0%);stroke-opacity:1;stroke-miterlimit:4;" d="M 307.000382 286.000114 L 323.000439 285.499886 L 339.000496 279.500252 L 348.999886 277.500374 L 366.999821 293.500431 " transform="matrix(3.779528,0,0,3.779528,0,0)"/>
<path style="fill:none;stroke-width:2;stroke-linecap:butt;stroke-linejoin:miter;stroke:rgb(0%,0%,0%);stroke-opacity:1;stroke-miterlimit:4;" d="M 331.500179 304.500277 L 355.499748 320.500334 L 367.500049 336.500391 L 371.499805 352.500448 L 375.499561 368.000277 L 388.00009 386.000212 L 419.499976 386.000212 " transform="matrix(3.779528,0,0,3.779528,0,0)"/>
<path style="fill:none;stroke-width:2;stroke-linecap:butt;stroke-linejoin:miter;stroke:rgb(0%,0%,0%);stroke-opacity:1;stroke-miterlimit:4;" d="M 443.499544 393.499495 L 427.499487 395.500407 L 411.500464 395.500407 L 395.500407 403.499919 " transform="matrix(3.779528,0,0,3.779528,0,0)"/>
<path style="fill:none;stroke-width:2;stroke-linecap:butt;stroke-linejoin:miter;stroke:rgb(0%,0%,0%);stroke-opacity:1;stroke-miterlimit:4;" d="M 368.000277 427.000293 L 352.500448 445.500456 L 336.500391 459.499601 L 320.500334 456.000073 L 304.500277 436.500488 " transform="matrix(3.779528,0,0,3.779528,0,0)"/>
<path style="fill:none;stroke-width:2;stroke-linecap:butt;stroke-linejoin:miter;stroke:rgb(0%,0%,0%);stroke-opacity:1;stroke-miterlimit:4;" d="M 289.99987 436.500488 L 305.999927 452.499512 " transform="matrix(3.779528,0,0,3.779528,0,0)"/>
<path style="fill:none;stroke-width:2;stroke-linecap:butt;stroke-linejoin:miter;stroke:rgb(0%,0%,0%);stroke-opacity:1;stroke-miterlimit:4;" d="M 329.000073 445.500456 L 332.499601 440.000016 L 336.500391 423.999959 L 334.000285 408.50013 L 339.999919 393.000301 L 336.000163 384.999756 L 339.999919 366.499593 L 345.999552 350.499536 L 341.999797 360.499959 L 327.500423 372.50026 L 311.500366 382.49965 L 293.500431 372.50026 L 277.000146 366.499593 L 282.499552 344.499902 L 290.500098 343.000252 " transform="matrix(3.779528,0,0,3.779528,0,0)"/>
<path style="fill:none;stroke-width:2;stroke-linecap:butt;stroke-linejoin:miter;stroke:rgb(0%,0%,0%);stroke-opacity:1;stroke-miterlimit:4;" d="M 275.500496 375.999788 L 291.49952 375.499561 L 311.500366 393.499495 L 309.500488 409.499552 L 313.500244 405.499797 L 329.000073 409.499552 L 327.500423 425.499609 L 321.999984 441.000472 " transform="matrix(3.779528,0,0,3.779528,0,0)"/>
<path style="fill:none;stroke-width:2;stroke-linecap:butt;stroke-linejoin:miter;stroke:rgb(0%,0%,0%);stroke-opacity:1;stroke-miterlimit:4;" d="M 289.99987 397.500285 L 273.999813 393.499495 " transform="matrix(3.779528,0,0,3.779528,0,0)"/>
<path style="fill:none;stroke-width:2;stroke-linecap:butt;stroke-linejoin:miter;stroke:rgb(0%,0%,0%);stroke-opacity:1;stroke-miterlimit:4;" d="M 257.000334 366.499593 L 273.000391 362.499837 L 273.000391 356.500203 L 287.499764 352.500448 L 289.499642 356.500203 L 315.500122 350.499536 L 330.999951 332.499601 " transform="matrix(3.779528,0,0,3.779528,0,0)"/>
<path style="fill:none;stroke-width:2;stroke-linecap:butt;stroke-linejoin:miter;stroke:rgb(0%,0%,0%);stroke-opacity:1;stroke-miterlimit:4;" d="M 333.500057 332.999829 L 333.500057 348.999886 L 329.500301 365.500171 L 321.499756 381.500228 L 315.500122 389.999967 " transform="matrix(3.779528,0,0,3.779528,0,0)"/>
<path style="fill:none;stroke-width:2;stroke-linecap:butt;stroke-linejoin:miter;stroke:rgb(0%,0%,0%);stroke-opacity:1;stroke-miterlimit:4;" d="M 288.50022 418.999748 L 272.500163 414.499764 L 255.999878 420.500431 L 239.999821 428.499943 " transform="matrix(3.779528,0,0,3.779528,0,0)"/>
<path style="fill:none;stroke-width:2;stroke-linecap:butt;stroke-linejoin:miter;stroke:rgb(0%,0%,0%);stroke-opacity:1;stroke-miterlimit:4;" d="M 244.499805 438.000138 L 260.499862 447.999528 L 276.499919 457.499723 L 291.999748 466.999919 L 307.999805 468.999797 " transform="matrix(3.779528,0,0,3.779528,0,0)"/>
<path style="fill:none;stroke-width:2;stroke-linecap:butt;stroke-linejoin:miter;stroke:rgb(0%,0%,0%);stroke-opacity:1;stroke-miterlimit:4;" d="M 279.000024 448.999984 L 264.999845 447.000106 L 248.999788 434.999805 " transform="matrix(3.779528,0,0,3.779528,0,0)"/>
<path style="fill:none;stroke-width:2;stroke-linecap:butt;stroke-linejoin:miter;stroke:rgb(0%,0%,0%);stroke-opacity:1;stroke-miterlimit:4;" d="M 252.999544 443.999772 L 264.999845 459.499601 L 296.999959 475.499658 " transform="matrix(3.779528,0,0,3.779528,0,0)"/>
<path style="fill:none;stroke-width:2;stroke-linecap:butt;stroke-linejoin:miter;stroke:rgb(0%,0%,0%);stroke-opacity:1;stroke-miterlimit:4;" d="M 247.500138 450.499634 L 262.999967 464.499813 L 279.000024 474.500236 L 294.499854 481.99952 L 309.999683 484.000431 L 325.99974 481.500326 L 341.499569 473.49978 L 357.499626 455.499845 " transform="matrix(3.779528,0,0,3.779528,0,0)"/>
<path style="fill:none;stroke-width:2;stroke-linecap:butt;stroke-linejoin:miter;stroke:rgb(0%,0%,0%);stroke-opacity:1;stroke-miterlimit:4;" d="M 289.499642 474.000008 L 273.999813 466.000496 L 257.999756 454.500423 L 241.999699 445.99965 " transform="matrix(3.779528,0,0,3.779528,0,0)"/>
<path style="fill:none;stroke-width:2;stroke-linecap:butt;stroke-linejoin:miter;stroke:rgb(0%,0%,0%);stroke-opacity:1;stroke-miterlimit:4;" d="M 287.999992 414.499764 L 271.999935 410.500008 L 265.500073 409.000358 L 249.500016 414.499764 L 241.500505 422.500309 L 219.49978 429.999593 L 203.499723 429.000171 L 187.499666 429.000171 " transform="matrix(3.779528,0,0,3.779528,0,0)"/>
<path style="fill:none;stroke-width:2;stroke-linecap:butt;stroke-linejoin:miter;stroke:rgb(0%,0%,0%);stroke-opacity:1;stroke-miterlimit:4;" d="M 239.000399 370.500382 L 236.999487 386.500439 L 243.000155 372.50026 L 259.000212 379.999544 L 259.000212 388.00009 L 275.000269 387.499862 L 291.000326 393.999723 L 313.000016 391.999845 " transform="matrix(3.779528,0,0,3.779528,0,0)"/>
<path style="fill:none;stroke-width:2;stroke-linecap:butt;stroke-linejoin:miter;stroke:rgb(0%,0%,0%);stroke-opacity:1;stroke-miterlimit:4;" d="M 326.499967 331.500179 L 314.499666 347.500236 L 311.500366 337.499813 L 327.999618 323.499634 L 343.999674 323.499634 L 359.999731 338.000041 " transform="matrix(3.779528,0,0,3.779528,0,0)"/>
<path style="fill:none;stroke-width:2;stroke-linecap:butt;stroke-linejoin:miter;stroke:rgb(0%,0%,0%);stroke-opacity:1;stroke-miterlimit:4;" d="M 353.49987 341.499569 L 349.500114 357.499626 L 355.999976 361.500415 L 343.999674 389.49974 L 345.999552 405.499797 L 354.000098 421.499854 L 357.999854 437.49991 L 343.999674 453.499967 " transform="matrix(3.779528,0,0,3.779528,0,0)"/>
<path style="fill:none;stroke-width:2;stroke-linecap:butt;stroke-linejoin:miter;stroke:rgb(0%,0%,0%);stroke-opacity:1;stroke-miterlimit:4;" d="M 324.50009 435.500033 L 312.499788 449.500212 L 302.000171 433.500155 L 298.000415 418.000326 L 297.500187 402.000269 L 297.500187 386.000212 L 302.000171 370.000155 L 305.999927 353.49987 L 311.500366 337.499813 L 329.500301 321.499756 " transform="matrix(3.779528,0,0,3.779528,0,0)"/>
<path style="fill:none;stroke-width:2;stroke-linecap:butt;stroke-linejoin:miter;stroke:rgb(0%,0%,0%);stroke-opacity:1;stroke-miterlimit:4;" d="M 329.000073 294.499854 L 354.500326 310.49991 " transform="matrix(3.779528,0,0,3.779528,0,0)"/>
<path style="fill:none;stroke-width:2;stroke-linecap:butt;stroke-linejoin:miter;stroke:rgb(0%,0%,0%);stroke-opacity:1;stroke-miterlimit:4;" d="M 307.999805 302.999593 L 309.999683 314.999894 L 291.49952 330.999951 L 277.500374 347.000008 L 275.500496 359.000309 L 269.499829 373.000488 L 257.000334 376.500016 L 266.999723 400.499585 L 267.499951 420.000203 L 275.500496 436.00026 L 273.499585 445.99965 " transform="matrix(3.779528,0,0,3.779528,0,0)"/>
<path style="fill:none;stroke-width:2;stroke-linecap:butt;stroke-linejoin:miter;stroke:rgb(0%,0%,0%);stroke-opacity:1;stroke-miterlimit:4;" d="M 294.499854 314.000472 L 286.500342 339.999919 L 270.500285 350.000342 L 248.499561 345.999552 L 248.499561 363.999487 L 228.499748 357.499626 L 212.499691 357.499626 L 194.499756 355.499748 L 178.499699 355.999976 L 162.499642 355.999976 L 146.499585 354.500326 L 130.499528 354.500326 L 101.999976 352.500448 L 85.499691 352.500448 L 69.499634 350.499536 L 53.999805 345.999552 L 37.999748 346.49978 " transform="matrix(3.779528,0,0,3.779528,0,0)"/>
<path style="fill:none;stroke-width:2;stroke-linecap:butt;stroke-linejoin:miter;stroke:rgb(0%,0%,0%);stroke-opacity:1;stroke-miterlimit:4;" d="M 40.499854 344.499902 L 42.999959 360.499959 L 46.999715 376.500016 L 53.000382 392.500073 L 33.499764 407.999902 " transform="matrix(3.779528,0,0,3.779528,0,0)"/>
<path style="fill:none;stroke-width:2;stroke-linecap:butt;stroke-linejoin:miter;stroke:rgb(0%,0%,0%);stroke-opacity:1;stroke-miterlimit:4;" d="M 50.500277 397.500285 L 35.000448 407.499674 L 19.000391 409.499552 L 3.000334 409.499552 " transform="matrix(3.779528,0,0,3.779528,0,0)"/>
<path style="fill:none;stroke-width:2;stroke-linecap:butt;stroke-linejoin:miter;stroke:rgb(0%,0%,0%);stroke-opacity:1;stroke-miterlimit:4;" d="M 3.000334 404.000146 L 19.000391 403.499919 L 35.000448 400.999813 " transform="matrix(3.779528,0,0,3.779528,0,0)"/>
<path style="fill:none;stroke-width:2;stroke-linecap:butt;stroke-linejoin:miter;stroke:rgb(0%,0%,0%);stroke-opacity:1;stroke-miterlimit:4;" d="M 19.000391 400.000391 L 3.000334 400.000391 " transform="matrix(3.779528,0,0,3.779528,0,0)"/>
<path style="fill:none;stroke-width:2;stroke-linecap:butt;stroke-linejoin:miter;stroke:rgb(0%,0%,0%);stroke-opacity:1;stroke-miterlimit:4;" d="M 3.499528 393.999723 L 19.499585 393.999723 L 35.499642 391.999845 L 46.999715 382.000456 L 62.499544 387.499862 " transform="matrix(3.779528,0,0,3.779528,0,0)"/>
<path style="fill:none;stroke-width:2;stroke-linecap:butt;stroke-linejoin:miter;stroke:rgb(0%,0%,0%);stroke-opacity:1;stroke-miterlimit:4;" d="M 19.000391 318.000228 L 19.000391 293.999626 L 3.000334 298.499609 " transform="matrix(3.779528,0,0,3.779528,0,0)"/>
<path style="fill:none;stroke-width:2;stroke-linecap:butt;stroke-linejoin:miter;stroke:rgb(0%,0%,0%);stroke-opacity:1;stroke-miterlimit:4;" d="M 3.999756 289.99987 L 19.999813 286.000114 " transform="matrix(3.779528,0,0,3.779528,0,0)"/>
<path style="fill:none;stroke-width:2;stroke-linecap:butt;stroke-linejoin:miter;stroke:rgb(0%,0%,0%);stroke-opacity:1;stroke-miterlimit:4;" d="M 19.000391 279.500252 L 3.000334 281.50013 " transform="matrix(3.779528,0,0,3.779528,0,0)"/>
<path style="fill:none;stroke-width:2;stroke-linecap:butt;stroke-linejoin:miter;stroke:rgb(0%,0%,0%);stroke-opacity:1;stroke-miterlimit:4;" d="M 3.000334 271.499707 L 4.499984 266.000301 " transform="matrix(3.779528,0,0,3.779528,0,0)"/>
<path style="fill:none;stroke-width:2;stroke-linecap:butt;stroke-linejoin:miter;stroke:rgb(0%,0%,0%);stroke-opacity:1;stroke-miterlimit:4;" d="M 10.999845 309.999683 L 10.999845 325.499512 " transform="matrix(3.779528,0,0,3.779528,0,0)"/>
<path style="fill:none;stroke-width:2;stroke-linecap:butt;stroke-linejoin:miter;stroke:rgb(0%,0%,0%);stroke-opacity:1;stroke-miterlimit:4;" d="M 80.000285 171.999837 L 95.500114 178.000505 " transform="matrix(3.779528,0,0,3.779528,0,0)"/>
<path style="fill:none;stroke-width:2;stroke-linecap:butt;stroke-linejoin:miter;stroke:rgb(0%,0%,0%);stroke-opacity:1;stroke-miterlimit:4;" d="M 83.499813 166.000203 L 98.999642 152.000024 L 100.99952 141.500407 L 116.999577 125.50035 " transform="matrix(3.779528,0,0,3.779528,0,0)"/>
<path style="fill:none;stroke-width:2;stroke-linecap:butt;stroke-linejoin:miter;stroke:rgb(0%,0%,0%);stroke-opacity:1;stroke-miterlimit:4;" d="M 126.499772 119.000488 L 110.499715 134.500317 L 96.499536 150.500374 L 88.500024 150.500374 L 104.500081 132.500439 L 120.500138 118.50026 L 137.000423 104.500081 L 153.00048 94.499658 L 171.499609 91.999552 L 187.000472 82.000163 " transform="matrix(3.779528,0,0,3.779528,0,0)"/>
<path style="fill:none;stroke-width:2;stroke-linecap:butt;stroke-linejoin:miter;stroke:rgb(0%,0%,0%);stroke-opacity:1;stroke-miterlimit:4;" d="M 209.999585 76.999951 L 187.999894 85.499691 L 212.000496 77.500179 L 227.99952 75.500301 L 243.999577 75.500301 L 259.999634 77.500179 L 268.500407 83.499813 " transform="matrix(3.779528,0,0,3.779528,0,0)"/>
<path style="fill:none;stroke-width:2;stroke-linecap:butt;stroke-linejoin:miter;stroke:rgb(0%,0%,0%);stroke-opacity:1;stroke-miterlimit:4;" d="M 214.999797 68.500212 L 230.999854 66.500334 L 246.499683 66.999528 L 262.49974 66.999528 L 277.999569 73.500423 L 283.500008 97.499992 L 273.499585 113.500049 L 261.999512 129.500106 L 248.000366 145.500163 L 230.000431 161.50022 " transform="matrix(3.779528,0,0,3.779528,0,0)"/>
<path style="fill:none;stroke-width:2;stroke-linecap:butt;stroke-linejoin:miter;stroke:rgb(0%,0%,0%);stroke-opacity:1;stroke-miterlimit:4;" d="M 194.499756 173.499487 L 226.49987 157.500464 L 244.499805 141.999601 L 258.499984 126.499772 L 270.000057 110.499715 L 280.00048 94.499658 L 280.499674 78.499601 L 280.499674 92.49978 L 264.499618 118.50026 L 248.499561 138.500073 L 232.499504 155.000358 L 216.999674 164.49952 L 200.500423 172.500065 L 184.500366 182.00026 L 168.500309 186.500244 L 152.500252 187.999894 L 119.99991 187.999894 L 103.999854 186.000016 L 84.500269 169.499731 L 90.499902 148.000269 L 104.500081 132.000212 L 121.999788 116.500382 L 141.999601 100.500326 L 168.000081 92.49978 L 205.999829 75.999495 L 200.000195 85.999919 L 183.49991 91.999552 L 167.499854 98.00022 " transform="matrix(3.779528,0,0,3.779528,0,0)"/>
<path style="fill:none;stroke-width:2;stroke-linecap:butt;stroke-linejoin:miter;stroke:rgb(0%,0%,0%);stroke-opacity:1;stroke-miterlimit:4;" d="M 102.500203 148.500496 L 118.50026 132.500439 L 134.500317 116.000155 L 150.500374 103.999854 L 154.50013 98.00022 L 138.500073 114.000277 L 119.99991 130.000334 L 103.999854 145.500163 L 89.999674 161.50022 L 89.999674 139.999723 L 105.999731 121.999788 L 121.999788 107.999609 L 137.999845 94.000464 L 153.999902 84.000041 L 169.999959 78.000407 L 185.499788 71.99974 L 202.000073 67.999984 L 218.00013 61.500122 L 234.000187 57.500366 L 250.500472 53.000382 L 266.499495 51.000505 L 282.000358 48.999593 L 298.000415 49.499821 L 314.000472 49.499821 L 329.999495 51.499699 L 345.999552 55.500488 L 361.999609 61.500122 L 378.499894 67.999984 L 394.499951 78.499601 L 410.500008 74.499845 L 425.999837 80.500513 L 442.500122 87.999797 L 457.999951 98.00022 L 473.49978 114.000277 L 489.499837 139.999723 " transform="matrix(3.779528,0,0,3.779528,0,0)"/>
<path style="fill:none;stroke-width:2;stroke-linecap:butt;stroke-linejoin:miter;stroke:rgb(0%,0%,0%);stroke-opacity:1;stroke-miterlimit:4;" d="M 427.999715 110.499715 L 411.999658 91.999552 L 395.999601 79.500057 " transform="matrix(3.779528,0,0,3.779528,0,0)"/>
<path style="fill:none;stroke-width:2;stroke-linecap:butt;stroke-linejoin:miter;stroke:rgb(0%,0%,0%);stroke-opacity:1;stroke-miterlimit:4;" d="M 395.999601 75.999495 L 411.999658 80.000285 L 428.499943 85.499691 L 444.5 94.000464 L 461.000285 105.999731 L 477.000342 125.999544 " transform="matrix(3.779528,0,0,3.779528,0,0)"/>
<path style="fill:none;stroke-width:2;stroke-linecap:butt;stroke-linejoin:miter;stroke:rgb(0%,0%,0%);stroke-opacity:1;stroke-miterlimit:4;" d="M 395.500407 117.499805 L 379.000122 101.499748 L 373.000488 89.50048 L 357.000431 82.999585 " transform="matrix(3.779528,0,0,3.779528,0,0)"/>
<path style="fill:none;stroke-width:2;stroke-linecap:butt;stroke-linejoin:miter;stroke:rgb(0%,0%,0%);stroke-opacity:1;stroke-miterlimit:4;" d="M 355.499748 80.500513 L 371.499805 84.500269 L 387.499862 96.499536 L 403.499919 114.500505 L 419.499976 130.000334 " transform="matrix(3.779528,0,0,3.779528,0,0)"/>
<path style="fill:none;stroke-width:2;stroke-linecap:butt;stroke-linejoin:miter;stroke:rgb(0%,0%,0%);stroke-opacity:1;stroke-miterlimit:4;" d="M 423.999959 157.500464 L 419.499976 141.000179 L 409.000358 125.000122 L 386.999634 109.000065 L 370.500382 96.499536 L 354.000098 94.999886 " transform="matrix(3.779528,0,0,3.779528,0,0)"/>
<path style="fill:none;stroke-width:2;stroke-linecap:butt;stroke-linejoin:miter;stroke:rgb(0%,0%,0%);stroke-opacity:1;stroke-miterlimit:4;" d="M 366.000399 81.499935 L 389.999967 97.499992 L 395.999601 112.000399 L 404.000146 128.000456 L 416.000448 133.499862 " transform="matrix(3.779528,0,0,3.779528,0,0)"/>
<path style="fill:none;stroke-width:2;stroke-linecap:butt;stroke-linejoin:miter;stroke:rgb(0%,0%,0%);stroke-opacity:1;stroke-miterlimit:4;" d="M 436.500488 137.999845 L 420.500431 109.999487 L 404.500374 94.000464 L 388.500317 85.999919 L 372.50026 77.500179 L 356.500203 67.499756 " transform="matrix(3.779528,0,0,3.779528,0,0)"/>
<path style="fill:none;stroke-width:2;stroke-linecap:butt;stroke-linejoin:miter;stroke:rgb(0%,0%,0%);stroke-opacity:1;stroke-miterlimit:4;" d="M 366.000399 75.500301 L 391.999845 91.500358 L 407.499674 107.500415 L 415.50022 123.500472 L 423.499731 139.499495 L 429.999593 155.99978 L 429.999593 171.499609 " transform="matrix(3.779528,0,0,3.779528,0,0)"/>
<path style="fill:none;stroke-width:2;stroke-linecap:butt;stroke-linejoin:miter;stroke:rgb(0%,0%,0%);stroke-opacity:1;stroke-miterlimit:4;" d="M 424.500187 188.500122 L 408.50013 184.999561 L 397.000057 182.999683 L 382.49965 159.000114 L 373.000488 143.000057 " transform="matrix(3.779528,0,0,3.779528,0,0)"/>
<path style="fill:none;stroke-width:2;stroke-linecap:butt;stroke-linejoin:miter;stroke:rgb(0%,0%,0%);stroke-opacity:1;stroke-miterlimit:4;" d="M 431.500277 129.500106 L 429.500399 115.499927 L 415.50022 100.000098 L 400.000391 84.500269 " transform="matrix(3.779528,0,0,3.779528,0,0)"/>
<path style="fill:none;stroke-width:2;stroke-linecap:butt;stroke-linejoin:miter;stroke:rgb(0%,0%,0%);stroke-opacity:1;stroke-miterlimit:4;" d="M 404.999569 73.999618 L 443.499544 89.999674 L 465.000041 105.499504 L 477.499536 121.499561 L 487.499959 137.499618 L 493.999821 153.499674 L 497.999577 169.499731 L 498.499805 186.000016 L 498.499805 202.000073 L 499.000033 218.500358 L 499.000033 234.500415 L 493.000399 250.500472 L 468.999797 266.499495 L 459.000407 282.000358 L 479.00022 291.999748 L 484.999854 307.499577 L 481.000098 321.999984 L 481.000098 338.000041 L 475.000464 354.500326 L 481.500326 370.500382 L 497.500382 372.50026 L 511.000334 372.50026 " transform="matrix(3.779528,0,0,3.779528,0,0)"/>
<path style="fill:none;stroke-width:2;stroke-linecap:butt;stroke-linejoin:miter;stroke:rgb(0%,0%,0%);stroke-opacity:1;stroke-miterlimit:4;" d="M 440.000016 386.000212 L 423.999959 372.50026 L 406.000024 364.499715 L 389.999967 378.499894 L 382.000456 380.499772 L 380.499772 368.500505 L 402.500496 366.499593 L 427.999715 350.999764 L 432.000505 334.999707 L 434.000382 319.499878 L 438.000138 303.499821 L 442.500122 287.499764 " transform="matrix(3.779528,0,0,3.779528,0,0)"/>
<path style="fill:none;stroke-width:2;stroke-linecap:butt;stroke-linejoin:miter;stroke:rgb(0%,0%,0%);stroke-opacity:1;stroke-miterlimit:4;" d="M 470.000252 248.000366 L 455.499845 264.000423 L 454.000195 280.499674 L 423.999959 292.499976 L 384.499528 307.999805 L 374.500138 323.499634 L 375.000366 339.999919 L 366.999821 354.000098 L 370.999577 370.000155 L 368.999699 386.000212 L 370.999577 402.000269 L 373.000488 417.500098 L 370.999577 432.999927 L 363.000065 448.999984 L 350.999764 465.000041 L 322.500212 481.000098 " transform="matrix(3.779528,0,0,3.779528,0,0)"/>
<path style="fill:none;stroke-width:2;stroke-linecap:butt;stroke-linejoin:miter;stroke:rgb(0%,0%,0%);stroke-opacity:1;stroke-miterlimit:4;" d="M 284.999658 465.500269 L 259.500439 450.000439 L 254 440.000016 L 255.999878 429.999593 L 248.000366 413.500342 L 254 400.000391 L 250.000244 400.000391 L 248.499561 384.499528 L 256.500106 368.500505 L 252.50035 346.49978 L 264.499618 330.499723 L 278.499797 314.499666 L 296.499731 298.499609 " transform="matrix(3.779528,0,0,3.779528,0,0)"/>
<path style="fill:none;stroke-width:2;stroke-linecap:butt;stroke-linejoin:miter;stroke:rgb(0%,0%,0%);stroke-opacity:1;stroke-miterlimit:4;" d="M 304.500277 278.499797 L 279.000024 294.499854 L 262.999967 310.49991 L 250.999666 325.99974 L 243.000155 341.999797 L 246.99991 351.499992 L 230.999854 359.499504 L 230.999854 375.000366 L 235.499837 393.000301 L 231.500081 409.000358 L 239.499593 431.500277 L 243.500382 447.500334 L 259.500439 463.500391 L 287.499764 479.999642 " transform="matrix(3.779528,0,0,3.779528,0,0)"/>
<path style="fill:none;stroke-width:2;stroke-linecap:butt;stroke-linejoin:miter;stroke:rgb(0%,0%,0%);stroke-opacity:1;stroke-miterlimit:4;" d="M 500.000488 391.499618 L 490.000065 381.500228 L 474.000008 373.499683 L 457.499723 347.000008 L 470.999674 332.999829 L 482.999976 323.499634 L 493.000399 313.500244 L 499.000033 298.000415 L 500.99991 282.499552 L 490.999487 266.499495 " transform="matrix(3.779528,0,0,3.779528,0,0)"/>
<path style="fill:none;stroke-width:2;stroke-linecap:butt;stroke-linejoin:miter;stroke:rgb(0%,0%,0%);stroke-opacity:1;stroke-miterlimit:4;" d="M 509.999878 273.999813 L 485.500081 248.000366 L 483.500203 242.499927 L 463.500391 260.499862 L 459.499601 258.499984 L 459.499601 266.499495 L 473.49978 250.500472 " transform="matrix(3.779528,0,0,3.779528,0,0)"/>
<path style="fill:none;stroke-width:2;stroke-linecap:butt;stroke-linejoin:miter;stroke:rgb(0%,0%,0%);stroke-opacity:1;stroke-miterlimit:4;" d="M 472.999552 238.500171 L 456.999495 254.500228 L 447.000106 270.000057 L 422.999504 286.000114 L 382.49965 302.000171 L 376.500016 311.500366 L 392.500073 303.499821 L 408.50013 298.000415 L 426.500065 291.999748 " transform="matrix(3.779528,0,0,3.779528,0,0)"/>
<path style="fill:none;stroke-width:2;stroke-linecap:butt;stroke-linejoin:miter;stroke:rgb(0%,0%,0%);stroke-opacity:1;stroke-miterlimit:4;" d="M 395.999601 189.999772 L 384.000334 173.999715 L 373.99991 157.500464 L 366.000399 141.500407 L 359.999731 125.000122 L 353.49987 109.500293 L 351.499992 93.500236 L 348.999886 77.500179 L 345.00013 61.500122 " transform="matrix(3.779528,0,0,3.779528,0,0)"/>
</g>
</svg>
