<?xml version="1.0" encoding="UTF-8"?>
<svg xmlns="http://www.w3.org/2000/svg" xmlns:xlink="http://www.w3.org/1999/xlink" width="1935.11811" height="1935.11811" viewBox="0 0 1935.11811 1935.11811" version="1.1">
<g id="surface1">
<path style="fill:none;stroke-width:2;stroke-linecap:butt;stroke-linejoin:miter;stroke:rgb(0%,0%,0%);stroke-opacity:1;stroke-miterlimit:4;" d="M 9.500195 2.500106 L 3.499528 18.500163 " transform="matrix(3.779528,0,0,3.779528,0,0)"/>
<path style="fill:none;stroke-width:2;stroke-linecap:butt;stroke-linejoin:miter;stroke:rgb(0%,0%,0%);stroke-opacity:1;stroke-miterlimit:4;" d="M 3.000334 38.499976 L 19.000391 40.499854 L 35.000448 46.499487 L 51.000505 50.000049 L 66.999528 53.999805 L 82.999585 55.500488 L 98.999642 60.000472 L 114.999699 64.000228 L 130.999756 68.500212 L 147.500041 72.499967 L 163.500098 74.499845 L 178.999927 78.499601 L 194.999984 84.500269 L 210.499813 87.999797 L 225.999642 91.999552 L 241.999699 97.499992 L 257.499528 101.499748 L 273.499585 107.500415 L 289.499642 113.500049 L 305.499699 119.000488 L 331.500179 103.000431 L 341.499569 112.999821 " transform="matrix(3.779528,0,0,3.779528,0,0)"/>
<path style="fill:none;stroke-width:2;stroke-linecap:butt;stroke-linejoin:miter;stroke:rgb(0%,0%,0%);stroke-opacity:1;stroke-miterlimit:4;" d="M 357.999854 125.000122 L 373.99991 110.999943 L 364.499715 127 L 380.499772 142.499829 L 393.000301 158.499886 L 402.999691 173.999715 " transform="matrix(3.779528,0,0,3.779528,0,0)"/>
<path style="fill:none;stroke-width:2;stroke-linecap:butt;stroke-linejoin:miter;stroke:rgb(0%,0%,0%);stroke-opacity:1;stroke-miterlimit:4;" d="M 397.000057 161.50022 L 381 139.499495 L 364.999943 130.000334 " transform="matrix(3.779528,0,0,3.779528,0,0)"/>
<path style="fill:none;stroke-width:2;stroke-linecap:butt;stroke-linejoin:miter;stroke:rgb(0%,0%,0%);stroke-opacity:1;stroke-miterlimit:4;" d="M 362.499837 134.500317 L 378.499894 146.000391 L 394.499951 167.499854 " transform="matrix(3.779528,0,0,3.779528,0,0)"/>
<path style="fill:none;stroke-width:2;stroke-linecap:butt;stroke-linejoin:miter;stroke:rgb(0%,0%,0%);stroke-opacity:1;stroke-miterlimit:4;" d="M 409.99978 194.999984 L 389.999967 178.999927 L 373.99991 163.500098 L 357.999854 165.499976 " transform="matrix(3.779528,0,0,3.779528,0,0)"/>
<path style="fill:none;stroke-width:2;stroke-linecap:butt;stroke-linejoin:miter;stroke:rgb(0%,0%,0%);stroke-opacity:1;stroke-miterlimit:4;" d="M 359.499504 134.00009 L 377.500472 113.500049 " transform="matrix(3.779528,0,0,3.779528,0,0)"/>
<path style="fill:none;stroke-width:2;stroke-linecap:butt;stroke-linejoin:miter;stroke:rgb(0%,0%,0%);stroke-opacity:1;stroke-miterlimit:4;" d="M 382.999878 105.499504 L 409.499552 100.000098 L 411.999658 115.499927 L 418.000326 123.000244 L 404.500374 125.000122 L 420.500431 123.000244 " transform="matrix(3.779528,0,0,3.779528,0,0)"/>
<path style="fill:none;stroke-width:2;stroke-linecap:butt;stroke-linejoin:miter;stroke:rgb(0%,0%,0%);stroke-opacity:1;stroke-miterlimit:4;" d="M 425.999837 108.499837 L 409.99978 98.500448 " transform="matrix(3.779528,0,0,3.779528,0,0)"/>
<path style="fill:none;stroke-width:2;stroke-linecap:butt;stroke-linejoin:miter;stroke:rgb(0%,0%,0%);stroke-opacity:1;stroke-miterlimit:4;" d="M 416.99987 96.499536 L 445.000228 112.499593 L 445.000228 100.000098 L 454.999618 105.999731 " transform="matrix(3.779528,0,0,3.779528,0,0)"/>
<path style="fill:none;stroke-width:2;stroke-linecap:butt;stroke-linejoin:miter;stroke:rgb(0%,0%,0%);stroke-opacity:1;stroke-miterlimit:4;" d="M 477.499536 86.500146 L 461.500513 66.500334 " transform="matrix(3.779528,0,0,3.779528,0,0)"/>
<path style="fill:none;stroke-width:2;stroke-linecap:butt;stroke-linejoin:miter;stroke:rgb(0%,0%,0%);stroke-opacity:1;stroke-miterlimit:4;" d="M 460.500057 61.500122 L 476.500114 73.500423 " transform="matrix(3.779528,0,0,3.779528,0,0)"/>
<path style="fill:none;stroke-width:2;stroke-linecap:butt;stroke-linejoin:miter;stroke:rgb(0%,0%,0%);stroke-opacity:1;stroke-miterlimit:4;" d="M 472.00013 64.99965 L 482.499748 64.500456 " transform="matrix(3.779528,0,0,3.779528,0,0)"/>
<path style="fill:none;stroke-width:2;stroke-linecap:butt;stroke-linejoin:miter;stroke:rgb(0%,0%,0%);stroke-opacity:1;stroke-miterlimit:4;" d="M 485.500081 48.000171 L 469.500024 50.000049 L 453.499967 39.999626 L 437.49991 32.000114 L 421.499854 26.00048 L 404.999569 21.999691 L 388.999512 17.999935 L 373.000488 21.999691 L 357.000431 21.500496 L 352.999642 15.499829 L 336.999585 27.50013 L 317.5 46.000293 L 302.000171 17.999935 " transform="matrix(3.779528,0,0,3.779528,0,0)"/>
<path style="fill:none;stroke-width:2;stroke-linecap:butt;stroke-linejoin:miter;stroke:rgb(0%,0%,0%);stroke-opacity:1;stroke-miterlimit:4;" d="M 266.499495 8.999967 L 282.000358 13.499951 L 298.000415 17.499707 L 300.000293 33.999992 L 304.500277 50.000049 L 310.49991 66.500334 L 306.500155 82.999585 L 302.000171 98.999642 L 309.500488 114.999699 L 309.500488 142.499829 L 315.500122 166.500431 L 317.5 182.500488 L 317.5 198.499512 L 321.499756 214.499569 L 327.500423 230.000431 L 336.000163 246.000488 L 352.500448 264.000423 L 362.499837 279.500252 L 380.499772 295.999504 " transform="matrix(3.779528,0,0,3.779528,0,0)"/>
<path style="fill:none;stroke-width:2;stroke-linecap:butt;stroke-linejoin:miter;stroke:rgb(0%,0%,0%);stroke-opacity:1;stroke-miterlimit:4;" d="M 366.999821 290.500098 L 350.999764 274.500041 " transform="matrix(3.779528,0,0,3.779528,0,0)"/>
<path style="fill:none;stroke-width:2;stroke-linecap:butt;stroke-linejoin:miter;stroke:rgb(0%,0%,0%);stroke-opacity:1;stroke-miterlimit:4;" d="M 345.500358 268.500407 L 361.000187 276.499919 L 377.000244 292.499976 L 392.500073 304.000049 " transform="matrix(3.779528,0,0,3.779528,0,0)"/>
<path style="fill:none;stroke-width:2;stroke-linecap:butt;stroke-linejoin:miter;stroke:rgb(0%,0%,0%);stroke-opacity:1;stroke-miterlimit:4;" d="M 388.500317 282.499552 L 397.000057 298.499609 L 409.000358 308.500033 L 404.999569 316.499544 L 421.499854 311.999561 L 437.49991 309.500488 L 453.499967 307.000382 L 469.500024 302.999593 L 485.500081 302.999593 L 501.500138 302.500399 " transform="matrix(3.779528,0,0,3.779528,0,0)"/>
<path style="fill:none;stroke-width:2;stroke-linecap:butt;stroke-linejoin:miter;stroke:rgb(0%,0%,0%);stroke-opacity:1;stroke-miterlimit:4;" d="M 483.500203 252.000122 L 499.50026 236.000065 L 509.000456 220.000008 L 484.999854 230.000431 L 469.500024 246.000488 L 481.99952 236.000065 L 493.999821 220.500236 L 501.500138 232.999731 L 485.500081 250.999666 L 470.000252 262.999967 L 454.000195 272.500163 " transform="matrix(3.779528,0,0,3.779528,0,0)"/>
<path style="fill:none;stroke-width:2;stroke-linecap:butt;stroke-linejoin:miter;stroke:rgb(0%,0%,0%);stroke-opacity:1;stroke-miterlimit:4;" d="M 458.500179 213.500146 L 443.00035 218.00013 L 420.999626 212.499691 L 409.499552 242.499927 L 423.499731 242.499927 L 438.000138 225.00022 L 441.999894 216.999674 L 446.499878 200.999618 L 457.999951 189.00035 L 441.999894 205.000407 " transform="matrix(3.779528,0,0,3.779528,0,0)"/>
<path style="fill:none;stroke-width:2;stroke-linecap:butt;stroke-linejoin:miter;stroke:rgb(0%,0%,0%);stroke-opacity:1;stroke-miterlimit:4;" d="M 424.500187 194.499756 L 408.50013 226.49987 L 391.999845 242.499927 L 375.999788 252.50035 L 343.50048 252.50035 L 327.999618 244.499805 L 312.499788 287.999992 L 296.499731 313.500244 L 280.499674 333.500057 L 264.499618 337.499813 L 248.499561 347.500236 L 232.999731 352.00022 L 216.999674 354.500326 L 200.999618 356.500203 L 185.499788 360.499959 L 163.500098 360.499959 L 147.500041 362.499837 L 128.999878 360.499959 L 134.999512 344.499902 L 130.999756 328.499845 L 126.499772 312.499788 L 120.500138 296.499731 L 112.499593 280.499674 L 100.99952 264.499618 L 82.999585 270.500285 L 66.999528 272.500163 L 51.000505 273.999813 L 35.000448 275.500496 L 19.000391 273.499585 L 3.000334 273.999813 " transform="matrix(3.779528,0,0,3.779528,0,0)"/>
<path style="fill:none;stroke-width:2;stroke-linecap:butt;stroke-linejoin:miter;stroke:rgb(0%,0%,0%);stroke-opacity:1;stroke-miterlimit:4;" d="M 3.000334 277.500374 L 18.500163 277.999569 " transform="matrix(3.779528,0,0,3.779528,0,0)"/>
<path style="fill:none;stroke-width:2;stroke-linecap:butt;stroke-linejoin:miter;stroke:rgb(0%,0%,0%);stroke-opacity:1;stroke-miterlimit:4;" d="M 100.99952 264.000423 L 116.999577 273.999813 L 127 311.500366 " transform="matrix(3.779528,0,0,3.779528,0,0)"/>
<path style="fill:none;stroke-width:2;stroke-linecap:butt;stroke-linejoin:miter;stroke:rgb(0%,0%,0%);stroke-opacity:1;stroke-miterlimit:4;" d="M 119.000488 291.49952 L 103.000431 270.000057 " transform="matrix(3.779528,0,0,3.779528,0,0)"/>
<path style="fill:none;stroke-width:2;stroke-linecap:butt;stroke-linejoin:miter;stroke:rgb(0%,0%,0%);stroke-opacity:1;stroke-miterlimit:4;" d="M 106.499959 264.999845 L 120.500138 281.50013 L 125.999544 297.500187 L 132.000212 313.500244 L 137.999845 329.999495 L 139.999723 345.999552 L 143.500285 357.999854 L 159.500342 355.499748 L 175.500399 349.500114 L 189.00035 331.500179 L 205.000407 289.499642 " transform="matrix(3.779528,0,0,3.779528,0,0)"/>
<path style="fill:none;stroke-width:2;stroke-linecap:butt;stroke-linejoin:miter;stroke:rgb(0%,0%,0%);stroke-opacity:1;stroke-miterlimit:4;" d="M 209.500391 293.500431 L 193.500334 335.499935 " transform="matrix(3.779528,0,0,3.779528,0,0)"/>
<path style="fill:none;stroke-width:2;stroke-linecap:butt;stroke-linejoin:miter;stroke:rgb(0%,0%,0%);stroke-opacity:1;stroke-miterlimit:4;" d="M 178.000505 357.499626 L 162.000448 365.500171 L 146.000391 367.500049 L 130.000334 370.999577 L 114.000277 373.499683 L 98.00022 375.499561 L 82.500391 377.999666 L 66.500334 379.50035 L 51.000505 381.500228 L 35.499642 384.000334 L 19.999813 384.000334 L 3.999756 386.000212 " transform="matrix(3.779528,0,0,3.779528,0,0)"/>
<path style="fill:none;stroke-width:2;stroke-linecap:butt;stroke-linejoin:miter;stroke:rgb(0%,0%,0%);stroke-opacity:1;stroke-miterlimit:4;" d="M 3.000334 392.500073 L 19.000391 389.999967 L 35.000448 389.999967 L 51.000505 387.499862 L 82.000163 383.500106 L 98.00022 381.500228 L 113.500049 379.50035 L 129.500106 377.500472 L 145.500163 373.99991 L 161.50022 372.000033 L 177.500277 369.499927 L 193.500334 367.500049 L 209.500391 363.500293 L 225.500448 359.499504 L 241.000277 357.499626 L 257.499528 353.49987 L 273.999813 350.999764 L 289.99987 347.500236 L 305.999927 345.500358 L 321.999984 338.000041 L 345.999552 321.999984 L 312.499788 341.999797 " transform="matrix(3.779528,0,0,3.779528,0,0)"/>
<path style="fill:none;stroke-width:2;stroke-linecap:butt;stroke-linejoin:miter;stroke:rgb(0%,0%,0%);stroke-opacity:1;stroke-miterlimit:4;" d="M 317.5 327.999618 L 333.500057 318.000228 L 341.999797 323.999862 L 357.999854 320.000106 L 373.99991 318.500456 " transform="matrix(3.779528,0,0,3.779528,0,0)"/>
<path style="fill:none;stroke-width:2;stroke-linecap:butt;stroke-linejoin:miter;stroke:rgb(0%,0%,0%);stroke-opacity:1;stroke-miterlimit:4;" d="M 334.000285 336.500391 L 350.000342 336.500391 L 366.499593 332.499601 L 382.49965 329.000073 L 398.499707 325.000317 L 414.499764 323.000439 L 430.499821 318.99965 L 446.499878 317.5 L 462.499935 317.5 L 478.499992 313.500244 L 494.500049 311.500366 L 510.500106 309.999683 " transform="matrix(3.779528,0,0,3.779528,0,0)"/>
<path style="fill:none;stroke-width:2;stroke-linecap:butt;stroke-linejoin:miter;stroke:rgb(0%,0%,0%);stroke-opacity:1;stroke-miterlimit:4;" d="M 475.999886 283.500008 L 491.999943 269.499829 L 502.000366 254 L 511.999756 237.999943 L 502.000366 241.999699 L 486.000309 266.499495 L 469.500024 276.499919 L 453.499967 289.000448 L 437.49991 302.999593 L 421.499854 307.000382 L 405.499797 311.000138 L 387.499862 314.999894 L 399.500163 298.499609 L 397.500285 288.50022 L 375.499561 298.499609 L 353.49987 302.500399 L 337.499813 309.999683 L 321.499756 320.000106 L 296.999959 323.999862 L 293.500431 338.000041 L 277.999569 343.999674 L 290.500098 322.500212 L 302.500399 306.500155 L 312.499788 291.000326 L 318.500456 275.000269 L 321.999984 259.000212 L 334.000285 230.499626 L 339.999919 216.50048 L 323.999862 200.500423 L 323.499634 184.000138 L 331.500179 168.000081 L 323.499634 166.000203 L 333.500057 145.500163 L 339.999919 129.500106 L 347.500236 113.500049 L 347.500236 97.499992 L 315.500122 81.499935 L 321.499756 65.499878 L 325.499512 48.999593 L 331.500179 33.499764 L 357.499626 14.000179 L 350.000342 14.000179 L 339.999919 8.49974 L 341.999797 7.999512 " transform="matrix(3.779528,0,0,3.779528,0,0)"/>
<path style="fill:none;stroke-width:2;stroke-linecap:butt;stroke-linejoin:miter;stroke:rgb(0%,0%,0%);stroke-opacity:1;stroke-miterlimit:4;" d="M 360.499959 8.999967 L 360.499959 4.499984 L 384.999756 10.499618 " transform="matrix(3.779528,0,0,3.779528,0,0)"/>
<path style="fill:none;stroke-width:2;stroke-linecap:butt;stroke-linejoin:miter;stroke:rgb(0%,0%,0%);stroke-opacity:1;stroke-miterlimit:4;" d="M 382.000456 4.499984 L 398.000513 16.000057 L 413.999536 17.499707 L 436.00026 31.499886 L 459.499601 47.499943 L 459.499601 63.5 L 471.499902 78.999829 L 484.000431 94.999886 L 490.500293 111.500171 L 490.500293 127.500228 L 494.500049 143.500285 L 484.499626 159.999536 L 477.999764 175.999593 L 469.500024 193.500334 L 463.500391 209.500391 L 474.000008 207.500513 " transform="matrix(3.779528,0,0,3.779528,0,0)"/>
<path style="fill:none;stroke-width:2;stroke-linecap:butt;stroke-linejoin:miter;stroke:rgb(0%,0%,0%);stroke-opacity:1;stroke-miterlimit:4;" d="M 476.500114 205.000407 L 486.000309 189.00035 L 490.000065 173.000293 L 491.499715 155.000358 L 500.99991 139.000301 L 509.49965 123.000244 L 501.500138 98.999642 L 507.499772 83.499813 L 508 81.499935 " transform="matrix(3.779528,0,0,3.779528,0,0)"/>
<path style="fill:none;stroke-width:2;stroke-linecap:butt;stroke-linejoin:miter;stroke:rgb(0%,0%,0%);stroke-opacity:1;stroke-miterlimit:4;" d="M 507.499772 125.999544 L 491.499715 146.000391 L 475.499658 173.999715 " transform="matrix(3.779528,0,0,3.779528,0,0)"/>
<path style="fill:none;stroke-width:2;stroke-linecap:butt;stroke-linejoin:miter;stroke:rgb(0%,0%,0%);stroke-opacity:1;stroke-miterlimit:4;" d="M 486.999731 160.999992 L 506.999544 137.499618 " transform="matrix(3.779528,0,0,3.779528,0,0)"/>
<path style="fill:none;stroke-width:2;stroke-linecap:butt;stroke-linejoin:miter;stroke:rgb(0%,0%,0%);stroke-opacity:1;stroke-miterlimit:4;" d="M 505.499894 170.500187 L 495.500505 196.000439 L 479.500448 223.999764 L 463.500391 239.999821 L 447.000106 252.50035 L 431.000049 258.499984 L 415.50022 264.499618 L 427.999715 258.499984 L 461.999707 242.499927 L 477.999764 226.49987 L 490.000065 209.999585 L 497.999577 193.999528 L 506.000122 178.000505 " transform="matrix(3.779528,0,0,3.779528,0,0)"/>
<path style="fill:none;stroke-width:2;stroke-linecap:butt;stroke-linejoin:miter;stroke:rgb(0%,0%,0%);stroke-opacity:1;stroke-miterlimit:4;" d="M 508.500228 186.500244 L 510.500106 202.500301 L 504.500472 218.500358 L 496.499927 234.500415 L 478.499992 250.500472 L 454.500423 266.499495 L 466.000496 280.00048 L 441.999894 295.999504 L 450.000439 295.500309 L 466.000496 286.000114 L 481.99952 286.000114 L 497.500382 257.999756 " transform="matrix(3.779528,0,0,3.779528,0,0)"/>
<path style="fill:none;stroke-width:2;stroke-linecap:butt;stroke-linejoin:miter;stroke:rgb(0%,0%,0%);stroke-opacity:1;stroke-miterlimit:4;" d="M 509.49965 229.500203 L 499.50026 245.50026 L 488.000187 261.500317 L 479.999642 277.999569 L 457.499723 291.999748 L 453.499967 300.000293 L 470.000252 291.999748 L 490.000065 295.500309 L 506.50035 293.500431 " transform="matrix(3.779528,0,0,3.779528,0,0)"/>
<path style="fill:none;stroke-width:2;stroke-linecap:butt;stroke-linejoin:miter;stroke:rgb(0%,0%,0%);stroke-opacity:1;stroke-miterlimit:4;" d="M 497.500382 315.500122 L 481.99952 318.000228 L 465.500269 321.499756 L 433.500155 325.499512 L 417.500098 329.500301 L 400.999813 331.500179 L 384.999756 335.499935 L 368.500505 339.999919 L 352.500448 341.999797 L 336.000163 344.499902 L 321.999984 347.000008 L 305.999927 350.999764 L 289.99987 352.500448 L 257.999756 360.499959 L 241.500505 364.499715 L 225.500448 366.499593 L 209.500391 368.500505 L 193.000106 372.50026 L 176.499821 374.500138 L 160.499764 379.000122 L 144.499707 381 L 128.999878 382.999878 L 113.500049 386.500439 L 97.499992 388.00009 L 82.000163 389.999967 L 66.500334 391.499618 L 51.000505 393.999723 L 35.499642 393.999723 L 19.499585 395.999601 L 3.499528 395.999601 " transform="matrix(3.779528,0,0,3.779528,0,0)"/>
<path style="fill:none;stroke-width:2;stroke-linecap:butt;stroke-linejoin:miter;stroke:rgb(0%,0%,0%);stroke-opacity:1;stroke-miterlimit:4;" d="M 3.000334 375.499561 L 19.000391 375.499561 L 34.50022 373.99991 L 82.500391 368.000277 L 98.00022 366.000399 L 114.000277 364.499715 L 130.000334 360.499959 " transform="matrix(3.779528,0,0,3.779528,0,0)"/>
<path style="fill:none;stroke-width:2;stroke-linecap:butt;stroke-linejoin:miter;stroke:rgb(0%,0%,0%);stroke-opacity:1;stroke-miterlimit:4;" d="M 180.499577 348.000464 L 190.5 332.000407 L 196.499634 316.00035 L 202.500301 299.500065 L 210.499813 283.500008 L 220.000008 267.499951 " transform="matrix(3.779528,0,0,3.779528,0,0)"/>
<path style="fill:none;stroke-width:2;stroke-linecap:butt;stroke-linejoin:miter;stroke:rgb(0%,0%,0%);stroke-opacity:1;stroke-miterlimit:4;" d="M 224.499992 266.499495 L 216.999674 282.499552 L 209.000163 298.999837 L 202.999495 315.500122 L 196.999862 331.500179 L 194.999984 347.500236 L 205.000407 345.500358 L 221.000464 329.500301 L 236.500293 313.000016 L 252.50035 298.999837 L 268.999601 282.499552 " transform="matrix(3.779528,0,0,3.779528,0,0)"/>
<path style="fill:none;stroke-width:2;stroke-linecap:butt;stroke-linejoin:miter;stroke:rgb(0%,0%,0%);stroke-opacity:1;stroke-miterlimit:4;" d="M 269.499829 281.50013 L 253.499772 297.500187 L 236.000065 313.500244 L 203.999951 345.500358 L 221.999886 343.50048 L 237.999943 339.499691 L 254 327.500423 L 270.000057 307.499577 L 285.499886 287.999992 L 301.499943 268.000179 " transform="matrix(3.779528,0,0,3.779528,0,0)"/>
<path style="fill:none;stroke-width:2;stroke-linecap:butt;stroke-linejoin:miter;stroke:rgb(0%,0%,0%);stroke-opacity:1;stroke-miterlimit:4;" d="M 311.500366 261.00009 L 301.499943 277.000146 L 289.499642 293.500431 L 277.500374 309.500488 L 267.499951 321.999984 L 283.500008 302.000171 L 299.500065 280.00048 L 315.500122 259.500439 L 339.499691 255.49965 L 355.499748 266.000301 L 371.499805 271.999935 L 387.499862 275.999691 L 404.000146 275.999691 L 420.000203 273.999813 L 436.00026 272.500163 L 452.000317 272.500163 L 468.000374 256.500106 L 484.499626 246.000488 L 500.499683 225.999642 " transform="matrix(3.779528,0,0,3.779528,0,0)"/>
<path style="fill:none;stroke-width:2;stroke-linecap:butt;stroke-linejoin:miter;stroke:rgb(0%,0%,0%);stroke-opacity:1;stroke-miterlimit:4;" d="M 440.000016 220.000008 L 425.499609 225.999642 L 427.499487 224.499992 L 417.500098 220.500236 L 425.499609 204.500179 L 429.500399 188.500122 " transform="matrix(3.779528,0,0,3.779528,0,0)"/>
<path style="fill:none;stroke-width:2;stroke-linecap:butt;stroke-linejoin:miter;stroke:rgb(0%,0%,0%);stroke-opacity:1;stroke-miterlimit:4;" d="M 427.000293 186.500244 L 422.500309 202.500301 L 412.499886 218.00013 L 398.499707 234.000187 " transform="matrix(3.779528,0,0,3.779528,0,0)"/>
<path style="fill:none;stroke-width:2;stroke-linecap:butt;stroke-linejoin:miter;stroke:rgb(0%,0%,0%);stroke-opacity:1;stroke-miterlimit:4;" d="M 370.500382 200.999618 L 354.500326 196.999862 " transform="matrix(3.779528,0,0,3.779528,0,0)"/>
<path style="fill:none;stroke-width:2;stroke-linecap:butt;stroke-linejoin:miter;stroke:rgb(0%,0%,0%);stroke-opacity:1;stroke-miterlimit:4;" d="M 358.500081 209.999585 L 342.500024 207.999707 " transform="matrix(3.779528,0,0,3.779528,0,0)"/>
<path style="fill:none;stroke-width:2;stroke-linecap:butt;stroke-linejoin:miter;stroke:rgb(0%,0%,0%);stroke-opacity:1;stroke-miterlimit:4;" d="M 333.500057 203.999951 L 335.499935 212.000496 L 351.499992 221.999886 " transform="matrix(3.779528,0,0,3.779528,0,0)"/>
<path style="fill:none;stroke-width:2;stroke-linecap:butt;stroke-linejoin:miter;stroke:rgb(0%,0%,0%);stroke-opacity:1;stroke-miterlimit:4;" d="M 366.499593 200.999618 L 350.999764 204.500179 L 334.999707 190.5 " transform="matrix(3.779528,0,0,3.779528,0,0)"/>
<path style="fill:none;stroke-width:2;stroke-linecap:butt;stroke-linejoin:miter;stroke:rgb(0%,0%,0%);stroke-opacity:1;stroke-miterlimit:4;" d="M 331.500179 184.999561 L 347.500236 189.00035 L 363.500293 191.99965 L 379.50035 196.499634 " transform="matrix(3.779528,0,0,3.779528,0,0)"/>
<path style="fill:none;stroke-width:2;stroke-linecap:butt;stroke-linejoin:miter;stroke:rgb(0%,0%,0%);stroke-opacity:1;stroke-miterlimit:4;" d="M 355.999976 231.500081 L 339.999919 229.500203 L 316.00035 211.500269 " transform="matrix(3.779528,0,0,3.779528,0,0)"/>
<path style="fill:none;stroke-width:2;stroke-linecap:butt;stroke-linejoin:miter;stroke:rgb(0%,0%,0%);stroke-opacity:1;stroke-miterlimit:4;" d="M 320.999528 213.500146 L 332.999829 253.499772 L 343.000252 270.000057 L 359.499504 286.500342 L 352.00022 302.500399 L 324.50009 318.99965 L 304.500277 322.500212 " transform="matrix(3.779528,0,0,3.779528,0,0)"/>
<path style="fill:none;stroke-width:2;stroke-linecap:butt;stroke-linejoin:miter;stroke:rgb(0%,0%,0%);stroke-opacity:1;stroke-miterlimit:4;" d="M 293.000203 341.499569 L 266.499495 345.500358 L 250.500472 341.499569 L 256.500106 325.99974 L 268.000179 309.999683 L 281.50013 293.500431 L 293.000203 277.500374 L 305.000505 261.500317 L 320.999528 245.000033 L 320.999528 229.500203 L 314.499666 213.500146 L 310.49991 197.50009 L 310.49991 181.500033 L 308.500033 165.499976 L 313.000016 149.499919 L 314.999894 125.50035 L 313.000016 109.500293 L 307.000382 94.000464 L 301.499943 85.999919 " transform="matrix(3.779528,0,0,3.779528,0,0)"/>
<path style="fill:none;stroke-width:2;stroke-linecap:butt;stroke-linejoin:miter;stroke:rgb(0%,0%,0%);stroke-opacity:1;stroke-miterlimit:4;" d="M 307.499577 87.999797 L 315.500122 89.999674 L 329.000073 104.500081 L 318.99965 112.499593 L 335.499935 128.49965 L 329.500301 144.499707 L 333.500057 158.499886 L 339.499691 166.000203 L 355.499748 155.99978 L 371.499805 155.99978 L 379.999544 171.499609 L 393.499495 179.500155 L 409.499552 194.999984 " transform="matrix(3.779528,0,0,3.779528,0,0)"/>
<path style="fill:none;stroke-width:2;stroke-linecap:butt;stroke-linejoin:miter;stroke:rgb(0%,0%,0%);stroke-opacity:1;stroke-miterlimit:4;" d="M 364.999943 261.00009 L 348.999886 257.000334 " transform="matrix(3.779528,0,0,3.779528,0,0)"/>
<path style="fill:none;stroke-width:2;stroke-linecap:butt;stroke-linejoin:miter;stroke:rgb(0%,0%,0%);stroke-opacity:1;stroke-miterlimit:4;" d="M 314.499666 259.500439 L 308.500033 275.500496 L 305.499699 291.49952 L 302.000171 317.5 " transform="matrix(3.779528,0,0,3.779528,0,0)"/>
<path style="fill:none;stroke-width:2;stroke-linecap:butt;stroke-linejoin:miter;stroke:rgb(0%,0%,0%);stroke-opacity:1;stroke-miterlimit:4;" d="M 273.999813 286.500342 L 257.999756 302.999593 L 239.499593 318.99965 L 223.499536 334.500513 L 227.500326 330.499723 L 243.500382 316.00035 L 259.999634 300.000293 " transform="matrix(3.779528,0,0,3.779528,0,0)"/>
<path style="fill:none;stroke-width:2;stroke-linecap:butt;stroke-linejoin:miter;stroke:rgb(0%,0%,0%);stroke-opacity:1;stroke-miterlimit:4;" d="M 330.499723 182.500488 L 334.500513 198.499512 L 338.500269 208.499935 L 360.499959 220.500236 L 370.500382 210.499813 L 384.499528 204.500179 L 400.999813 204.500179 " transform="matrix(3.779528,0,0,3.779528,0,0)"/>
<path style="fill:none;stroke-width:2;stroke-linecap:butt;stroke-linejoin:miter;stroke:rgb(0%,0%,0%);stroke-opacity:1;stroke-miterlimit:4;" d="M 402.999691 121.999788 L 387.499862 119.99991 L 371.499805 101.499748 L 350.000342 97.499992 L 334.000285 85.000496 L 318.000228 80.999707 " transform="matrix(3.779528,0,0,3.779528,0,0)"/>
<path style="fill:none;stroke-width:2;stroke-linecap:butt;stroke-linejoin:miter;stroke:rgb(0%,0%,0%);stroke-opacity:1;stroke-miterlimit:4;" d="M 310.49991 98.500448 L 326.499967 94.499658 L 342.500024 96.000342 L 340.500146 109.999487 L 338.500269 112.000399 L 342.500024 103.999854 L 359.999731 89.999674 L 375.999788 81.499935 L 391.999845 83.499813 L 407.999902 85.999919 L 423.999959 91.999552 L 440.000016 91.999552 " transform="matrix(3.779528,0,0,3.779528,0,0)"/>
<path style="fill:none;stroke-width:2;stroke-linecap:butt;stroke-linejoin:miter;stroke:rgb(0%,0%,0%);stroke-opacity:1;stroke-miterlimit:4;" d="M 443.00035 109.500293 L 427.000293 99.49987 L 411.000236 94.000464 L 400.999813 118.50026 L 400.999813 102.500203 " transform="matrix(3.779528,0,0,3.779528,0,0)"/>
<path style="fill:none;stroke-width:2;stroke-linecap:butt;stroke-linejoin:miter;stroke:rgb(0%,0%,0%);stroke-opacity:1;stroke-miterlimit:4;" d="M 391.499618 102.500203 L 391.499618 118.50026 L 405.499797 118.50026 L 421.499854 112.499593 L 437.49991 118.50026 L 453.499967 116.000155 " transform="matrix(3.779528,0,0,3.779528,0,0)"/>
<path style="fill:none;stroke-width:2;stroke-linecap:butt;stroke-linejoin:miter;stroke:rgb(0%,0%,0%);stroke-opacity:1;stroke-miterlimit:4;" d="M 461.500513 57.500366 L 473.49978 73.500423 L 485.500081 89.50048 L 499.50026 114.999699 L 499.50026 130.999756 L 511.499528 142.499829 L 506.000122 158.499886 L 498.499805 173.999715 L 493.000399 189.999772 L 485.500081 205.999829 L 474.000008 221.999886 L 479.999642 214.000374 L 495.500505 186.000016 " transform="matrix(3.779528,0,0,3.779528,0,0)"/>
<path style="fill:none;stroke-width:2;stroke-linecap:butt;stroke-linejoin:miter;stroke:rgb(0%,0%,0%);stroke-opacity:1;stroke-miterlimit:4;" d="M 395.999601 189.00035 L 379.50035 187.000472 L 363.500293 183.49991 L 347.500236 183.49991 L 332.000407 181.500033 L 307.999805 163.500098 L 291.999748 164.000326 L 275.999691 164.49952 L 259.999634 166.500431 L 243.999577 166.000203 L 227.99952 167.499854 L 212.000496 166.999626 L 196.000439 168.999504 L 180.000382 173.000293 L 164.49952 173.499487 L 148.999691 177.500277 L 116.999577 185.499788 " transform="matrix(3.779528,0,0,3.779528,0,0)"/>
<path style="fill:none;stroke-width:2;stroke-linecap:butt;stroke-linejoin:miter;stroke:rgb(0%,0%,0%);stroke-opacity:1;stroke-miterlimit:4;" d="M 80.000285 189.00035 L 39.999626 205.000407 L 15.499829 216.999674 L 31.499886 207.000285 L 47.499943 202.999495 L 63.5 194.999984 L 78.999829 188.500122 L 94.999886 186.500244 L 111.500171 182.00026 L 127.500228 178.000505 L 143.500285 173.999715 L 159.000114 169.999959 L 175.000171 167.499854 L 191.000228 165.499976 L 207.000285 161.50022 L 238.500171 161.50022 L 254.500228 159.500342 L 270.500285 159.500342 L 286.999536 157.500464 L 302.999593 157.000236 " transform="matrix(3.779528,0,0,3.779528,0,0)"/>
<path style="fill:none;stroke-width:2;stroke-linecap:butt;stroke-linejoin:miter;stroke:rgb(0%,0%,0%);stroke-opacity:1;stroke-miterlimit:4;" d="M 305.999927 125.999544 L 273.999813 114.000277 L 257.999756 107.500415 L 241.999699 103.999854 L 225.999642 98.00022 L 210.499813 94.499658 L 194.999984 91.00013 L 178.999927 85.000496 L 162.99987 80.999707 L 146.999813 76.499723 L 130.499528 74.499845 L 114.500505 69.999862 L 98.500448 63.5 L 82.500391 60.999894 L 66.000106 57.500366 L 50.000049 55.999683 L 33.999992 50.000049 L 17.999935 46.499487 L 1.999878 44.499609 " transform="matrix(3.779528,0,0,3.779528,0,0)"/>
<path style="fill:none;stroke-width:2;stroke-linecap:butt;stroke-linejoin:miter;stroke:rgb(0%,0%,0%);stroke-opacity:1;stroke-miterlimit:4;" d="M 7.500317 30.999658 L 17.499707 17.000513 L 21.500496 1.000456 " transform="matrix(3.779528,0,0,3.779528,0,0)"/>
<path style="fill:none;stroke-width:2;stroke-linecap:butt;stroke-linejoin:miter;stroke:rgb(0%,0%,0%);stroke-opacity:1;stroke-miterlimit:4;" d="M 17.000513 1.49965 L 8.999967 17.499707 L 3.499528 33.499764 " transform="matrix(3.779528,0,0,3.779528,0,0)"/>
<path style="fill:none;stroke-width:2;stroke-linecap:butt;stroke-linejoin:miter;stroke:rgb(0%,0%,0%);stroke-opacity:1;stroke-miterlimit:4;" d="M 50.500277 60.999894 L 52.500155 76.499723 " transform="matrix(3.779528,0,0,3.779528,0,0)"/>
<path style="fill:none;stroke-width:2;stroke-linecap:butt;stroke-linejoin:miter;stroke:rgb(0%,0%,0%);stroke-opacity:1;stroke-miterlimit:4;" d="M 23.500374 178.499699 L 5.500439 186.500244 L 21.000269 180.499577 L 37.000326 176.499821 L 52.500155 171.999837 L 68.500212 168.000081 L 84.500269 165.499976 L 100.99952 161.50022 L 116.999577 159.500342 L 133.499862 155.000358 " transform="matrix(3.779528,0,0,3.779528,0,0)"/>
<path style="fill:none;stroke-width:2;stroke-linecap:butt;stroke-linejoin:miter;stroke:rgb(0%,0%,0%);stroke-opacity:1;stroke-miterlimit:4;" d="M 64.99965 198.000317 L 28.99978 213.500146 L 31.499886 213.500146 L 48.000171 205.499601 L 64.500456 199.499967 " transform="matrix(3.779528,0,0,3.779528,0,0)"/>
<path style="fill:none;stroke-width:2;stroke-linecap:butt;stroke-linejoin:miter;stroke:rgb(0%,0%,0%);stroke-opacity:1;stroke-miterlimit:4;" d="M 32.500342 183.49991 L 5.999634 193.500334 L 21.999691 187.499666 L 37.999748 182.999683 L 53.999805 178.999927 L 70.50009 174.499943 L 86.500146 172.500065 L 101.999976 168.500309 L 118.000033 164.49952 L 134.00009 160.499764 " transform="matrix(3.779528,0,0,3.779528,0,0)"/>
<path style="fill:none;stroke-width:2;stroke-linecap:butt;stroke-linejoin:miter;stroke:rgb(0%,0%,0%);stroke-opacity:1;stroke-miterlimit:4;" d="M 248.499561 106.499959 L 293.000203 122.500016 L 314.999894 134.500317 " transform="matrix(3.779528,0,0,3.779528,0,0)"/>
<path style="fill:none;stroke-width:2;stroke-linecap:butt;stroke-linejoin:miter;stroke:rgb(0%,0%,0%);stroke-opacity:1;stroke-miterlimit:4;" d="M 318.99965 67.499756 L 319.499878 53.499577 L 313.500244 37.49952 L 305.999927 21.000269 L 286.000114 8.999967 L 270.000057 3.000334 L 254 5.000212 L 237.999943 8.999967 L 221.999886 5.000212 L 205.999829 7.500317 L 189.999772 3.499528 " transform="matrix(3.779528,0,0,3.779528,0,0)"/>
<path style="fill:none;stroke-width:2;stroke-linecap:butt;stroke-linejoin:miter;stroke:rgb(0%,0%,0%);stroke-opacity:1;stroke-miterlimit:4;" d="M 211.500269 8.999967 L 227.500326 10.999845 L 243.500382 14.999601 L 259.500439 21.500496 L 275.500496 25.500252 L 291.49952 29.500008 L 305.999927 35.99987 L 309.999683 52.500155 " transform="matrix(3.779528,0,0,3.779528,0,0)"/>
<path style="fill:none;stroke-width:2;stroke-linecap:butt;stroke-linejoin:miter;stroke:rgb(0%,0%,0%);stroke-opacity:1;stroke-miterlimit:4;" d="M 304.000049 28.99978 L 287.499764 22.499919 L 271.499707 18.500163 L 255.49965 14.000179 L 239.499593 10.000423 " transform="matrix(3.779528,0,0,3.779528,0,0)"/>
<path style="fill:none;stroke-width:2;stroke-linecap:butt;stroke-linejoin:miter;stroke:rgb(0%,0%,0%);stroke-opacity:1;stroke-miterlimit:4;" d="M 250.000244 100.000098 L 295.500309 116.000155 " transform="matrix(3.779528,0,0,3.779528,0,0)"/>
<path style="fill:none;stroke-width:2;stroke-linecap:butt;stroke-linejoin:miter;stroke:rgb(0%,0%,0%);stroke-opacity:1;stroke-miterlimit:4;" d="M 366.999821 91.00013 L 360.499959 91.00013 L 366.999821 107.000187 L 360.499959 123.000244 L 366.499593 138.500073 L 384.000334 154.50013 L 394.499951 170.500187 L 409.000358 186.000016 " transform="matrix(3.779528,0,0,3.779528,0,0)"/>
<path style="fill:none;stroke-width:2;stroke-linecap:butt;stroke-linejoin:miter;stroke:rgb(0%,0%,0%);stroke-opacity:1;stroke-miterlimit:4;" d="M 487.499959 89.50048 L 477.499536 69.999862 L 466.000496 54.500033 " transform="matrix(3.779528,0,0,3.779528,0,0)"/>
<path style="fill:none;stroke-width:2;stroke-linecap:butt;stroke-linejoin:miter;stroke:rgb(0%,0%,0%);stroke-opacity:1;stroke-miterlimit:4;" d="M 508 29.500008 L 511.999756 13.499951 " transform="matrix(3.779528,0,0,3.779528,0,0)"/>
<path style="fill:none;stroke-width:2;stroke-linecap:butt;stroke-linejoin:miter;stroke:rgb(0%,0%,0%);stroke-opacity:1;stroke-miterlimit:4;" d="M 500.000488 1.000456 L 488.000187 5.500439 L 495.999699 11.500073 L 504.000244 27.50013 L 495.999699 33.499764 L 484.000431 49.499821 L 479.999642 59.500244 L 492.500171 73.500423 L 494.500049 105.499504 L 495.000277 121.499561 " transform="matrix(3.779528,0,0,3.779528,0,0)"/>
<path style="fill:none;stroke-width:2;stroke-linecap:butt;stroke-linejoin:miter;stroke:rgb(0%,0%,0%);stroke-opacity:1;stroke-miterlimit:4;" d="M 509.49965 15.499829 L 493.999821 17.499707 L 491.999943 1.49965 " transform="matrix(3.779528,0,0,3.779528,0,0)"/>
<path style="fill:none;stroke-width:2;stroke-linecap:butt;stroke-linejoin:miter;stroke:rgb(0%,0%,0%);stroke-opacity:1;stroke-miterlimit:4;" d="M 475.000464 1.999878 L 471.499902 1.999878 L 465.000041 17.499707 L 469.500024 25.500252 " transform="matrix(3.779528,0,0,3.779528,0,0)"/>
<path style="fill:none;stroke-width:2;stroke-linecap:butt;stroke-linejoin:miter;stroke:rgb(0%,0%,0%);stroke-opacity:1;stroke-miterlimit:4;" d="M 375.000366 488.999609 L 359.000309 492.500171 L 343.000252 497.999577 L 327.500423 501.500138 L 311.500366 504.999666 L 297.500187 504.500472 L 281.50013 508 " transform="matrix(3.779528,0,0,3.779528,0,0)"/>
<path style="fill:none;stroke-width:2;stroke-linecap:butt;stroke-linejoin:miter;stroke:rgb(0%,0%,0%);stroke-opacity:1;stroke-miterlimit:4;" d="M 264.000423 510.500106 L 280.00048 506.000122 L 295.500309 502.499561 L 311.500366 498.499805 L 327.999618 494.500049 L 344.499902 490.500293 L 360.499959 486.499504 L 376.500016 484.000431 L 376.500016 491.999943 L 342.500024 507.499772 L 338.500269 509.49965 L 354.500326 501.500138 L 370.500382 493.999821 L 402.500496 486.000309 L 418.49952 481.99952 L 434.499577 479.999642 L 450.000439 475.999886 L 466.000496 472.00013 " transform="matrix(3.779528,0,0,3.779528,0,0)"/>
<path style="fill:none;stroke-width:2;stroke-linecap:butt;stroke-linejoin:miter;stroke:rgb(0%,0%,0%);stroke-opacity:1;stroke-miterlimit:4;" d="M 418.49952 488.500415 L 402.500496 490.500293 L 386.500439 494.500049 L 370.500382 500.499683 L 354.99952 510.500106 L 379.000122 496.499927 " transform="matrix(3.779528,0,0,3.779528,0,0)"/>
</g>
</svg>
