<svg xmlns="http://www.w3.org/2000/svg" width="512mm" height="512mm" viewBox="0 0 512 512" version="1.1"><polyline points="23.5,2.5,23.5,18.5,25.5,34.5,23.5,50.5,23.5,67.0,23.5,83.0,23.5,99.0,23.5,115.0,23.0,131.0,23.0,146.5,22.5,162.5,23.0,178.5,35.0,180.5,67.0,156.5,83.5,146.0,101.5,143.5,117.5,137.0,133.5,127.0,149.5,123.0,165.5,118.5,182.0,116.5,198.0,116.5,218.5,118.5,234.5,117.0,250.5,117.0,266.5,117.0,284.5,117.0,300.5,113.5,316.5,113.5,334.5,121.5,350.5,123.5,366.5,122.0,384.0,134.0,397.5,138.0,413.5,146.0,429.0,146.0,441.0,160.0,457.0,162.0,459.0,170.0,471.0,172.0,471.0,180.0,487.0,192.0,503.5,200.5" stroke="black" stroke-width="2" fill="none" />
<polyline points="505.5,209.5,490.0,193.5" stroke="black" stroke-width="2" fill="none" />
<polyline points="481.5,236.5,465.5,234.5" stroke="black" stroke-width="2" fill="none" />
<polyline points="461.0,256.5,484.5,272.5,496.5,288.0,484.5,294.0,470.0,310.5,478.0,328.5,482.0,338.0,510.0,331.5" stroke="black" stroke-width="2" fill="none" />
<polyline points="494.5,326.0,478.5,327.5" stroke="black" stroke-width="2" fill="none" />
<polyline points="464.0,316.0,480.0,300.0" stroke="black" stroke-width="2" fill="none" />
<polyline points="494.0,282.0,478.0,264.0,461.5,256.0,445.5,253.5,429.5,257.5,414.0,267.5,398.0,285.0,382.5,317.5,392.5,311.5,404.5,288.0,388.5,320.5" stroke="black" stroke-width="2" fill="none" />
<polyline points="408.5,317.5,424.5,321.5,424.5,318.0,432.5,334.0,418.5,362.0,418.5,378.0,438.5,394.0,452.0,374.0,468.0,366.0,452.0,359.5,458.0,375.5" stroke="black" stroke-width="2" fill="none" />
<polyline points="472.0,356.0,456.0,350.0" stroke="black" stroke-width="2" fill="none" />
<polyline points="464.0,345.5,480.0,354.0" stroke="black" stroke-width="2" fill="none" />
<polyline points="497.0,363.5,500.5,347.5,498.5,329.5,494.5,313.5,484.5,310.0,484.0,310.5,478.0,311.0,462.0,323.0,455.5,317.0,471.5,301.0,473.5,284.5,447.5,283.0" stroke="black" stroke-width="2" fill="none" />
<polyline points="445.5,279.0,427.5,269.0,419.5,285.5,421.5,291.5,413.5,308.0,405.5,308.0,401.5,324.0,399.5,339.5,405.5,335.5,421.5,332.0,431.5,326.0,447.5,310.0,456.0,302.0,470.0,302.0,494.0,302.5,476.0,312.5,460.0,332.5,456.5,340.0,462.5,356.0,464.5,371.5,456.0,386.0,436.0,392.0,452.0,394.0,458.5,386.0,474.5,380.5,490.5,368.0,500.5,370.5" stroke="black" stroke-width="2" fill="none" />
<polyline points="508.0,358.0,507.5,342.0,494.0,310.0,478.0,286.0,462.0,276.0,446.0,274.0,430.0,282.0" stroke="black" stroke-width="2" fill="none" />
<polyline points="428.0,289.5,431.5,303.5,431.5,313.0" stroke="black" stroke-width="2" fill="none" />
<polyline points="445.5,315.5,443.0,299.5,441.0,283.5,423.0,277.0" stroke="black" stroke-width="2" fill="none" />
<polyline points="435.0,272.0,451.0,268.0,467.5,269.5,483.5,284.0,499.5,298.0,503.5,314.0,501.5,330.0,494.0,346.0,488.5,362.0,482.5,372.0,478.5,394.0" stroke="black" stroke-width="2" fill="none" />
<polyline points="486.0,382.5,484.0,390.5,500.0,388.0" stroke="black" stroke-width="2" fill="none" />
<polyline points="500.0,380.5,484.0,384.5,468.0,402.5,451.5,402.5,435.5,402.5,419.5,402.5,403.0,402.5,386.5,400.5,370.5,401.0" stroke="black" stroke-width="2" fill="none" />
<polyline points="381.5,371.5,365.5,373.5,349.5,373.5,329.5,367.5,313.5,366.0" stroke="black" stroke-width="2" fill="none" />
<polyline points="377.0,351.5,381.0,335.5,382.5,319.0,388.5,303.0,396.5,287.0,410.0,271.0,432.0,255.5,419.5,278.0,403.0,293.5" stroke="black" stroke-width="2" fill="none" />
<polyline points="406.0,301.0,422.0,301.0,428.5,303.0,438.0,319.0,430.0,339.0,411.5,354.5,423.5,338.5,417.0,336.5" stroke="black" stroke-width="2" fill="none" />
<polyline points="431.0,354.5,429.0,370.5" stroke="black" stroke-width="2" fill="none" />
<polyline points="433.5,379.0,439.0,363.0,443.0,351.0,426.5,358.5,410.0,369.0" stroke="black" stroke-width="2" fill="none" />
<polyline points="401.5,381.5,381.0,359.5,364.5,365.5,348.5,365.5,336.5,377.5,321.0,378.0,305.0,378.5,289.5,376.5,273.5,376.5,258.0,377.0,242.0,375.0,226.5,375.0,210.0,375.0,194.0,375.0,178.0,375.0,162.0,373.0,146.0,372.5,130.0,370.0,113.5,369.5,97.5,369.5,81.5,369.5,65.5,367.0,49.5,365.0,33.5,365.0" stroke="black" stroke-width="2" fill="none" />
<polyline points="35.5,374.0,51.5,374.0,67.5,374.5,83.5,374.5" stroke="black" stroke-width="2" fill="none" />
<polyline points="44.5,395.0,60.0,397.5,76.0,397.5,92.0,398.0,108.5,398.0,124.5,398.5,140.5,399.0,156.0,399.0" stroke="black" stroke-width="2" fill="none" />
<polyline points="153.5,378.0,169.5,378.0,186.0,378.0,202.0,378.0,218.0,380.5,234.0,380.5,250.0,380.5,266.5,382.0,282.5,382.0,298.5,381.5,314.0,384.0,330.0,382.0,346.0,380.0,368.5,378.0,384.5,378.5" stroke="black" stroke-width="2" fill="none" />
<polyline points="399.0,378.5,391.0,362.5" stroke="black" stroke-width="2" fill="none" />
<polyline points="374.5,356.0,358.5,360.0,342.5,360.0,326.0,362.0,322.0,354.0,306.0,353.5,290.0,351.5,274.0,349.0,257.5,345.5,241.0,341.5,225.5,335.5,209.5,335.5,193.5,333.5,177.5,327.5,161.5,324.0,145.5,320.0,129.5,317.5,113.5,313.5,98.0,309.5,82.0,305.5,66.5,301.5,51.0,297.5,35.0,294.0,19.0,280.0,3.0,264.5" stroke="black" stroke-width="2" fill="none" />
<polyline points="9.5,264.5,25.5,280.5" stroke="black" stroke-width="2" fill="none" />
<polyline points="12.0,289.5,20.5,305.5,20.5,331.5,14.5,358.0,4.5,374.0,14.5,354.0" stroke="black" stroke-width="2" fill="none" />
<polyline points="19.0,333.5,3.0,334.0" stroke="black" stroke-width="2" fill="none" />
<polyline points="19.0,314.0,3.0,290.0" stroke="black" stroke-width="2" fill="none" />
<polyline points="3.5,280.0,19.5,298.0" stroke="black" stroke-width="2" fill="none" />
<polyline points="2.5,279.5,6.5,295.5,15.5,311.5,4.0,327.5,8.0,355.5,14.0,342.0" stroke="black" stroke-width="2" fill="none" />
<polyline points="33.0,332.5,36.5,316.5" stroke="black" stroke-width="2" fill="none" />
<polyline points="53.5,307.5,41.5,323.5,40.0,339.5,32.0,355.5,34.0,351.5,58.0,319.5" stroke="black" stroke-width="2" fill="none" />
<polyline points="55.0,307.5,39.0,315.0,61.0,316.5,66.5,300.5" stroke="black" stroke-width="2" fill="none" />
<polyline points="21.5,285.5,7.5,269.5" stroke="black" stroke-width="2" fill="none" />
<polyline points="4.0,258.0,20.0,270.0,35.5,288.0,51.0,291.5,66.5,295.5,82.5,300.0,98.0,303.5,114.0,307.5,130.0,311.0,146.0,313.5,162.0,317.5,178.0,321.5" stroke="black" stroke-width="2" fill="none" />
<polyline points="201.0,396.5,217.0,398.5,232.5,399.0,248.5,399.0,264.0,401.5,279.5,401.5,295.5,401.5,312.0,401.5,328.0,401.5,344.0,401.5" stroke="black" stroke-width="2" fill="none" />
<polyline points="371.5,352.5,355.5,352.5,339.5,352.5,323.5,351.0,307.5,349.0,291.0,347.0,275.0,345.0,259.0,341.0,243.0,337.0,227.0,331.0,210.5,325.5,194.5,317.0,178.5,309.0,162.5,301.0,146.5,293.0,130.5,284.5,114.5,276.5,99.0,268.5,83.0,260.0,67.0,254.0,51.0,248.0,35.0,240.0,18.5,234.0,3.0,229.5" stroke="black" stroke-width="2" fill="none" />
<polyline points="4.5,231.5,32.0,247.5,70.0,263.5,104.0,279.0,136.0,295.0,170.5,310.5,190.5,326.5" stroke="black" stroke-width="2" fill="none" />
<polyline points="191.0,193.5,175.0,185.5" stroke="black" stroke-width="2" fill="none" />
<polyline points="152.0,169.0,168.0,179.0,184.0,175.5,199.5,183.5,211.5,204.0,227.0,204.0,233.0,194.0,249.5,182.5,265.5,156.5" stroke="black" stroke-width="2" fill="none" />
<polyline points="274.5,147.0,258.5,149.0,242.5,151.0" stroke="black" stroke-width="2" fill="none" />
<polyline points="232.0,160.5,248.0,168.5" stroke="black" stroke-width="2" fill="none" />
<polyline points="235.5,158.0,219.5,156.0" stroke="black" stroke-width="2" fill="none" />
<polyline points="227.0,156.5,251.0,172.5" stroke="black" stroke-width="2" fill="none" />
<polyline points="245.5,136.5,229.5,138.0,213.5,141.0,197.5,141.0" stroke="black" stroke-width="2" fill="none" />
<polyline points="209.5,116.5,193.5,122.5,177.0,124.5,161.0,126.5,145.5,130.0,129.5,134.0" stroke="black" stroke-width="2" fill="none" />
<polyline points="109.5,132.0,125.5,128.5,87.5,143.0,61.5,159.5,53.0,172.0,33.0,182.5,29.0,193.0,11.0,209.0,4.5,209.0" stroke="black" stroke-width="2" fill="none" />
<polyline points="3.0,218.0,19.0,201.5,35.0,187.5,51.0,176.0,67.0,164.5,83.0,154.5,99.0,146.5,100.5,144.5,72.5,160.5" stroke="black" stroke-width="2" fill="none" />
<polyline points="114.0,162.0,129.5,154.0,145.0,149.5,161.0,143.5,177.0,139.5,193.0,138.0,209.0,134.0,225.0,132.0,241.5,130.0,257.5,130.0,273.5,130.0,289.5,130.0,305.5,132.0,295.5,146.0,275.5,153.5,262.0,173.0,252.0,193.5,250.5,197.5,266.5,167.5,276.5,136.0,292.0,136.0,302.0,148.0,292.5,164.0,284.5,180.0,279.0,195.5,272.5,211.5,266.5,227.5,260.5,243.5,260.5,223.0,276.0,183.0,292.5,151.0" stroke="black" stroke-width="2" fill="none" />
<polyline points="288.0,160.0,279.5,176.0,274.0,192.5,266.0,208.5,260.5,226.0,248.5,241.5" stroke="black" stroke-width="2" fill="none" />
<polyline points="247.0,188.0,255.0,172.0,265.5,155.5,261.5,143.5,245.5,144.0,230.0,152.0,214.0,156.0,198.0,159.5,182.0,157.5,166.0,159.5,150.0,165.5" stroke="black" stroke-width="2" fill="none" />
<polyline points="138.5,168.5,154.5,158.5,170.5,154.0,138.5,168.0,152.5,172.0,178.5,188.0,196.0,192.0,200.0,197.5" stroke="black" stroke-width="2" fill="none" />
<polyline points="242.5,231.5,226.5,231.5,210.5,223.5,194.5,215.5,179.0,207.5,163.0,199.5,147.0,191.5,131.0,182.0,115.5,170.0" stroke="black" stroke-width="2" fill="none" />
<polyline points="140.5,151.0,114.5,166.5,130.5,182.5,158.5,198.5,188.5,214.5,222.5,230.5,245.0,236.5,265.0,230.5,281.5,190.0,297.0,156.0" stroke="black" stroke-width="2" fill="none" />
<polyline points="296.0,117.5,312.0,117.5,328.0,119.0,344.0,117.0" stroke="black" stroke-width="2" fill="none" />
<polyline points="359.5,111.5,361.5,96.0,362.0,80.5" stroke="black" stroke-width="2" fill="none" />
<polyline points="358.0,75.5,358.0,91.5,356.0,108.0,366.0,128.0" stroke="black" stroke-width="2" fill="none" />
<polyline points="405.5,131.5,427.5,147.5" stroke="black" stroke-width="2" fill="none" />
<polyline points="422.0,142.5,406.0,130.5" stroke="black" stroke-width="2" fill="none" />
<polyline points="411.0,174.5,403.0,190.5,397.0,206.0,395.0,221.5,391.0,237.5,405.0,239.0,421.5,231.0,438.0,229.5,442.0,223.5,458.0,227.5,474.0,229.5,490.0,231.5" stroke="black" stroke-width="2" fill="none" />
<polyline points="493.5,251.5,509.5,247.5,493.5,261.5,505.5,277.5" stroke="black" stroke-width="2" fill="none" />
<polyline points="503.5,263.0,503.5,255.0" stroke="black" stroke-width="2" fill="none" />
<polyline points="496.0,235.0,479.5,241.5,463.5,240.0,447.5,236.0,431.5,236.0,415.5,238.0" stroke="black" stroke-width="2" fill="none" />
<polyline points="404.0,204.5,420.0,180.0,436.0,187.5,452.0,195.5" stroke="black" stroke-width="2" fill="none" />
<polyline points="422.0,182.0,456.0,198.0,480.0,214.0" stroke="black" stroke-width="2" fill="none" />
<polyline points="500.5,220.5,484.5,210.0,469.0,197.5,453.0,187.5,437.0,179.5,421.0,173.5,405.0,188.0" stroke="black" stroke-width="2" fill="none" />
<polyline points="413.5,180.5,407.5,196.5,401.0,212.5,407.0,218.5,422.5,218.0,438.5,218.0,454.5,219.5,471.0,223.5,487.0,225.5" stroke="black" stroke-width="2" fill="none" />
<polyline points="472.0,268.5,455.5,261.0,439.5,265.0,424.0,269.0,408.0,282.5" stroke="black" stroke-width="2" fill="none" />
<polyline points="409.5,300.5,425.5,286.5,429.5,294.5,437.5,296.5" stroke="black" stroke-width="2" fill="none" />
<polyline points="460.5,281.0,458.5,297.5,450.0,313.5,472.0,333.5,486.0,322.0" stroke="black" stroke-width="2" fill="none" />
<polyline points="446.0,352.5,448.0,369.0" stroke="black" stroke-width="2" fill="none" />
<polyline points="498.0,411.5,482.0,413.5,466.0,413.5,450.0,415.5,433.5,417.5,418.0,419.0,402.0,419.0,386.0,421.0,369.5,420.5,353.5,420.5,338.0,421.0,322.0,423.0,306.0,423.0,290.0,423.0,273.5,423.0,257.5,425.0,241.5,425.5,225.5,427.5,210.0,428.0,194.0,430.5,178.0,430.5,162.0,430.5,146.0,430.5,129.5,431.0,113.5,431.0,97.0,431.0,81.0,430.5,65.0,430.5,49.5,430.0,33.5,429.5,17.5,429.5,1.5,429.5" stroke="black" stroke-width="2" fill="none" />
<polyline points="2.0,425.5,18.0,425.5,34.0,423.0,50.0,423.0,66.0,423.0,82.0,425.0,98.0,425.0,114.0,423.0,129.5,423.5,145.5,423.5,161.0,425.5,177.5,424.0,194.0,423.5,210.0,423.0,226.5,423.0,242.5,421.0,258.5,419.0,275.0,419.5,291.0,417.5,306.5,417.0,322.5,417.0,338.5,417.5,354.5,417.0,370.0,416.5,386.0,417.0,402.0,415.0,417.5,413.0,433.0,413.0,448.5,411.0,464.5,409.5,480.0,407.5,496.5,407.5" stroke="black" stroke-width="2" fill="none" />
<polyline points="483.5,497.5,467.5,497.5" stroke="black" stroke-width="2" fill="none" />
<polyline points="483.0,283.5,461.0,268.0" stroke="black" stroke-width="2" fill="none" />
<polyline points="454.5,260.5,482.5,276.5" stroke="black" stroke-width="2" fill="none" />
<polyline points="446.0,263.0,428.0,279.0,411.5,279.0,407.5,289.0,399.5,305.0,409.5,313.0,409.0,328.5,405.0,344.5,407.5,360.0,417.5,350.0,435.5,334.0,451.0,322.0,449.0,329.5,461.0,345.5,477.0,341.5,492.5,343.5" stroke="black" stroke-width="2" fill="none" />
<polyline points="495.0,224.0,479.0,208.5,453.0,192.5,418.5,176.5" stroke="black" stroke-width="2" fill="none" />
<polyline points="279.0,100.0,263.0,100.0,263.0,94.5,276.5,84.5,278.5,59.0,276.0,55.0,260.0,45.0" stroke="black" stroke-width="2" fill="none" />
<polyline points="264.0,41.0,260.0,57.5,256.0,57.5,256.0,67.5,256.0,91.5,278.0,101.5" stroke="black" stroke-width="2" fill="none" />
<polyline points="255.0,100.5,239.0,100.5" stroke="black" stroke-width="2" fill="none" />
<polyline points="239.0,85.0,255.0,85.0,271.0,79.0" stroke="black" stroke-width="2" fill="none" />
<polyline points="270.5,62.0,255.0,66.5,255.0,62.5,239.5,60.5" stroke="black" stroke-width="2" fill="none" />
<polyline points="236.0,58.0,252.0,42.5,238.0,52.0,235.5,68.0,235.5,87.5,233.5,105.0,239.5,93.5,257.5,83.5,273.5,81.5" stroke="black" stroke-width="2" fill="none" />
<polyline points="252.5,78.0,236.5,84.0" stroke="black" stroke-width="2" fill="none" />
<polyline points="151.5,73.5,154.0,57.5,154.0,41.5" stroke="black" stroke-width="2" fill="none" />
<polyline points="149.0,42.0,149.5,58.0,147.0,73.5" stroke="black" stroke-width="2" fill="none" />
<polyline points="160.0,150.5,144.5,156.5,128.5,163.0,133.0,171.0,122.5,169.0,153.0,153.0" stroke="black" stroke-width="2" fill="none" />
<polyline points="40.0,94.5,37.5,78.5,41.5,62.5,34.0,58.0,38.0,58.5" stroke="black" stroke-width="2" fill="none" />
<polyline points="13.5,174.5,13.5,190.5" stroke="black" stroke-width="2" fill="none" />
<polyline points="16.5,234.5,54.5,250.5,90.5,266.5,124.5,282.5,156.5,298.5,188.5,314.5,223.0,330.5" stroke="black" stroke-width="2" fill="none" />
<polyline points="162.0,394.5,146.0,394.5,130.0,394.0,114.0,391.5,98.0,391.0,82.0,393.0,66.0,393.0,50.5,391.5,35.0,395.5,19.0,395.5,3.0,395.5" stroke="black" stroke-width="2" fill="none" />
<polyline points="3.0,233.5,19.0,239.5,34.5,246.0,50.5,252.0,66.5,260.0,82.5,268.0,98.0,274.0,114.0,282.5,130.0,290.5,148.0,301.0,164.0,307.0,180.0,315.0" stroke="black" stroke-width="2" fill="none" />
<polyline points="502.5,200.5,486.5,184.5,467.0,168.5,449.0,152.5,448.5,136.5,448.0,120.5,448.0,104.5,448.0,88.5,448.0,72.5,448.0,56.0,447.5,39.5,449.5,23.0,449.5,17.0,449.5,1.0" stroke="black" stroke-width="2" fill="none" />
<polyline points="397.0,1.5,397.0,17.5,395.5,33.5,395.5,49.5,394.0,65.0,394.0,81.5,394.0,97.5,392.0,114.0,390.0,130.0,422.0,150.5,450.0,166.5,474.0,183.0,491.5,199.0,507.5,214.5" stroke="black" stroke-width="2" fill="none" />
</svg>