<svg xmlns="http://www.w3.org/2000/svg" width="512mm" height="512mm" viewBox="0 0 512 512" version="1.1"><polyline points="167.5,2.5,195.5,18.5,225.5,34.5,239.5,42.5,253.5,57.0,269.5,71.0,287.5,87.0,303.5,109.0" stroke="black" stroke-width="2" fill="none" />
<polyline points="299.5,104.0,288.0,88.5" stroke="black" stroke-width="2" fill="none" />
<polyline points="283.0,93.5,299.5,119.5,315.0,141.5,331.0,161.5,346.5,166.0,362.0,168.0,378.0,167.5,394.5,167.0,410.5,167.5,427.0,169.5,443.0,173.5,459.0,175.5,475.0,175.5" stroke="black" stroke-width="2" fill="none" />
<polyline points="381.5,230.5,380.0,223.0,364.0,209.0" stroke="black" stroke-width="2" fill="none" />
<polyline points="340.5,203.5,357.0,235.5,373.0,253.5,389.0,263.5,405.0,271.5,421.0,279.5" stroke="black" stroke-width="2" fill="none" />
<polyline points="412.5,312.5,396.0,330.5,380.0,348.5,363.5,354.5,366.0,342.5,378.0,326.5,370.0,336.5,360.0,340.5,358.0,332.5,368.0,316.5,386.0,312.0,392.5,308.0,376.5,310.0,360.5,324.0" stroke="black" stroke-width="2" fill="none" />
<polyline points="354.5,313.0,364.5,297.0,350.0,313.5,352.0,329.0,366.0,333.0,382.0,328.5" stroke="black" stroke-width="2" fill="none" />
<polyline points="375.0,338.0,393.0,326.0,377.5,344.5,389.5,340.5,401.0,324.5,416.5,309.0,432.5,291.0,417.5,290.5,401.5,287.0,385.5,276.5,370.0,266.5,354.0,248.5,338.5,242.5,322.0,234.5,305.5,222.5,289.5,208.5,273.5,200.5,257.5,188.5,242.0,188.0,220.5,178.0,209.0,172.0,193.0,169.5,185.5,165.0,175.5,193.5,163.0,203.5,152.5,181.5,138.5,169.5,136.5,154.0,136.0,138.0,135.5,115.5,151.0,93.5,135.0,103.5,131.0,119.0" stroke="black" stroke-width="2" fill="none" />
<polyline points="141.0,104.0,157.0,90.0,173.5,79.5,189.5,78.0,205.5,76.0,223.5,74.0,239.5,64.0" stroke="black" stroke-width="2" fill="none" />
<polyline points="238.0,65.0,224.0,81.5,230.0,105.5" stroke="black" stroke-width="2" fill="none" />
<polyline points="218.5,126.5,208.5,142.5,214.5,127.0" stroke="black" stroke-width="2" fill="none" />
<polyline points="210.5,141.5,234.5,143.5,237.0,159.5,237.0,175.5,222.5,195.0,218.0,211.5,214.0,227.5,216.5,244.0,208.5,260.5,202.0,277.0,201.5,287.0,200.0,303.0,206.0,318.5,212.0,334.0,218.5,350.0,224.5,365.5,226.5,381.5,233.0,393.5,215.0,399.5,231.5,387.0,251.5,387.0,267.0,391.0,283.0,397.0,303.0,397.5,308.5,405.5,325.0,409.5" stroke="black" stroke-width="2" fill="none" />
<polyline points="322.5,409.5,311.0,397.5,305.0,381.5,290.5,365.5,306.5,349.5,328.5,333.5,332.5,325.5,316.0,336.0,300.0,350.5,284.0,358.5,268.0,334.5,252.0,304.5,236.0,274.0" stroke="black" stroke-width="2" fill="none" />
<polyline points="230.0,273.0,246.0,304.5,262.5,334.0,278.5,360.0,295.0,377.5" stroke="black" stroke-width="2" fill="none" />
<polyline points="325.0,404.5,341.0,420.0,359.0,436.0,379.0,451.5,394.5,467.5,416.0,483.5,432.0,489.5,447.5,487.5,463.5,487.5,479.5,498.0,495.5,500.0" stroke="black" stroke-width="2" fill="none" />
<polyline points="508.5,472.0,508.5,455.5,506.5,439.5,509.0,423.5,511.0,391.5" stroke="black" stroke-width="2" fill="none" />
<polyline points="510.0,422.0,511.5,379.5,505.0,394.0,498.5,410.0,496.5,426.5,492.0,442.5,494.0,459.0,495.0,475.0" stroke="black" stroke-width="2" fill="none" />
<polyline points="490.5,473.5,488.5,457.5,487.0,442.0,491.0,425.5,495.0,410.0,498.5,394.0,504.5,378.0,508.0,353.5,492.0,383.5,488.0,399.5,492.0,384.0,500.0,368.0,510.0,352.0,496.0,398.0,482.5,399.5,486.5,383.5,492.5,367.5,490.5,342.0,490.5,326.0,490.5,310.0,498.0,293.5,506.0,285.5,490.0,307.0,504.0,299.5" stroke="black" stroke-width="2" fill="none" />
<polyline points="501.0,297.5,503.5,295.5,509.5,305.5,493.5,316.0,499.5,320.0,503.5,327.5,492.0,351.5,498.0,345.0,510.0,319.0" stroke="black" stroke-width="2" fill="none" />
<polyline points="483.5,363.0,467.5,361.5,451.5,363.5" stroke="black" stroke-width="2" fill="none" />
<polyline points="450.5,370.5,466.0,374.0,482.0,378.0" stroke="black" stroke-width="2" fill="none" />
<polyline points="453.5,386.0,437.5,384.5" stroke="black" stroke-width="2" fill="none" />
<polyline points="393.5,414.0,378.0,382.0" stroke="black" stroke-width="2" fill="none" />
<polyline points="374.5,377.0,390.5,374.5,406.5,372.5,422.0,370.0,437.5,370.0,453.0,366.0,469.5,370.0,485.5,374.0,501.5,352.5" stroke="black" stroke-width="2" fill="none" />
<polyline points="507.5,315.0,491.5,337.0,475.5,354.5,460.0,354.0,444.0,360.0,428.0,364.0,411.5,365.5,395.5,367.5,379.5,367.5,364.0,369.0" stroke="black" stroke-width="2" fill="none" />
<polyline points="367.0,376.0,383.0,410.0" stroke="black" stroke-width="2" fill="none" />
<polyline points="367.0,448.0,385.0,463.5,399.0,479.0" stroke="black" stroke-width="2" fill="none" />
<polyline points="405.5,454.5,421.0,472.5,437.0,474.5,453.0,476.5,468.5,480.0,484.0,486.0" stroke="black" stroke-width="2" fill="none" />
<polyline points="502.5,471.5,502.5,456.0,500.0,440.0,502.0,424.5,508.0,409.0,499.5,429.0" stroke="black" stroke-width="2" fill="none" />
<polyline points="456.0,486.5,470.0,506.0" stroke="black" stroke-width="2" fill="none" />
<polyline points="434.5,484.5,410.0,489.0,404.0,473.0,397.5,457.0,393.5,441.0,389.0,425.0,381.0,409.0,372.5,393.0,364.5,377.0,358.5,360.5,353.0,344.0,347.0,328.0,341.5,308.0,347.5,292.0,344.0,288.0,348.5,284.0,340.0,296.5,342.5,280.5,328.5,268.5,342.5,252.0,356.0,249.5,334.0,245.5,318.0,235.5,302.0,225.5,286.0,227.5,270.0,229.0,254.5,229.0,238.5,229.0,222.0,227.5,208.0,229.5,192.0,236.0,175.5,234.0,160.0,222.0,144.0,208.0,144.0,192.0,140.0,176.0,138.0,160.0" stroke="black" stroke-width="2" fill="none" />
<polyline points="125.0,171.0,109.0,165.5,91.0,155.5,75.0,174.0,77.0,172.5,89.0,156.5" stroke="black" stroke-width="2" fill="none" />
<polyline points="101.0,138.5,87.0,154.5,73.0,170.0,71.0,172.0,86.5,154.0,102.5,137.5,118.5,127.5,118.5,134.0,118.5,142.0" stroke="black" stroke-width="2" fill="none" />
<polyline points="115.5,142.5,115.5,158.5,117.5,158.5" stroke="black" stroke-width="2" fill="none" />
<polyline points="128.0,140.0,123.5,156.0,116.0,166.5,124.0,182.5,120.5,198.0,122.5,213.5,123.0,230.0,133.0,246.0,143.0,262.0,157.0,260.0,175.0,264.0,191.0,273.5,207.0,253.0,227.0,247.0,243.0,255.0" stroke="black" stroke-width="2" fill="none" />
<polyline points="227.5,255.5,223.5,271.5,218.0,271.5,234.0,283.5,244.0,299.5,250.0,315.5,260.0,331.5,268.0,347.5,280.0,363.5,293.5,380.0,303.5,396.0" stroke="black" stroke-width="2" fill="none" />
<polyline points="317.5,428.0,269.5,444.0,247.5,460.0,247.0,476.0,234.5,491.5,224.0,492.0" stroke="black" stroke-width="2" fill="none" />
<polyline points="234.0,474.0,218.0,464.0" stroke="black" stroke-width="2" fill="none" />
<polyline points="216.5,459.5,232.5,467.5" stroke="black" stroke-width="2" fill="none" />
<polyline points="244.0,455.0,258.0,453.0,277.5,468.5,305.5,456.5,324.0,447.0,340.0,441.0,356.0,439.0,345.5,463.5,338.0,479.5" stroke="black" stroke-width="2" fill="none" />
<polyline points="317.0,480.0,311.0,480.0,299.0,478.0,295.0,458.0,315.0,442.0,307.0,452.0,291.0,460.0,275.0,454.0" stroke="black" stroke-width="2" fill="none" />
<polyline points="272.0,449.5,288.0,443.5,304.0,438.0,320.5,440.0,336.5,438.0" stroke="black" stroke-width="2" fill="none" />
<polyline points="333.0,429.5,317.5,433.0" stroke="black" stroke-width="2" fill="none" />
<polyline points="322.0,427.5,305.5,431.5,289.5,437.5,274.0,442.0,258.5,448.0,242.5,451.5" stroke="black" stroke-width="2" fill="none" />
<polyline points="247.5,456.0,263.5,456.0,279.5,466.5,306.0,466.5" stroke="black" stroke-width="2" fill="none" />
<polyline points="319.0,469.5,319.0,453.5" stroke="black" stroke-width="2" fill="none" />
<polyline points="334.0,455.5,322.0,457.5,326.0,473.0" stroke="black" stroke-width="2" fill="none" />
<polyline points="356.5,487.5,362.5,471.5,358.5,494.0,344.5,490.0,334.5,484.0,334.0,467.5,350.0,451.5,348.0,461.0,328.0,493.5,316.0,491.5,296.0,485.5,280.5,474.0,264.5,470.0,248.5,482.5,232.5,500.0,216.5,506.0,200.5,506.0,184.0,506.0,168.0,504.0,152.0,501.5,136.0,501.5,120.0,497.0,103.5,475.5,95.0,471.5,85.5,461.5,83.5,445.5,85.5,429.5,93.5,413.5,87.5,422.0" stroke="black" stroke-width="2" fill="none" />
<polyline points="78.0,433.5,94.0,403.5,88.0,413.0,80.0,429.0,78.5,445.5,80.5,461.5" stroke="black" stroke-width="2" fill="none" />
<polyline points="102.5,462.5,118.5,434.0,134.5,419.5" stroke="black" stroke-width="2" fill="none" />
<polyline points="143.5,413.0,128.0,413.0,112.0,404.5" stroke="black" stroke-width="2" fill="none" />
<polyline points="105.0,400.0,121.0,401.5,137.0,407.5" stroke="black" stroke-width="2" fill="none" />
<polyline points="88.5,437.0,94.5,444.5,95.0,460.5,89.5,476.5,95.5,492.5" stroke="black" stroke-width="2" fill="none" />
<polyline points="110.0,474.5,126.0,496.5,142.0,496.5,158.0,498.0,173.5,497.5,189.5,499.5,205.5,501.0,221.5,497.0" stroke="black" stroke-width="2" fill="none" />
<polyline points="231.5,473.5,217.5,457.5" stroke="black" stroke-width="2" fill="none" />
<polyline points="255.5,470.0,245.5,486.0,225.5,502.5,237.5,488.5,256.0,461.0,272.0,467.0" stroke="black" stroke-width="2" fill="none" />
<polyline points="282.5,478.0,308.5,456.0,320.0,440.0,294.0,452.0" stroke="black" stroke-width="2" fill="none" />
<polyline points="303.0,446.0,285.0,446.0,283.0,461.5,302.5,473.5,302.5,482.0,314.0,478.0,330.5,480.0,342.5,460.0,358.5,448.0,374.5,454.5,390.5,470.5" stroke="black" stroke-width="2" fill="none" />
<polyline points="367.5,467.0,361.5,483.0,363.5,467.0" stroke="black" stroke-width="2" fill="none" />
<polyline points="375.0,318.0,361.0,331.5,377.0,317.5" stroke="black" stroke-width="2" fill="none" />
<polyline points="365.0,290.5,349.0,306.5,349.0,292.5" stroke="black" stroke-width="2" fill="none" />
<polyline points="322.0,287.5,305.5,267.5,289.0,251.5,272.5,242.0,256.5,238.5,241.0,234.5" stroke="black" stroke-width="2" fill="none" />
<polyline points="244.5,223.5,260.5,223.5,277.0,223.5,293.5,221.5" stroke="black" stroke-width="2" fill="none" />
<polyline points="300.0,233.0,292.0,212.5,276.5,207.0,260.5,207.5,244.5,221.0" stroke="black" stroke-width="2" fill="none" />
<polyline points="231.5,235.0,256.0,213.0,266.0,211.0" stroke="black" stroke-width="2" fill="none" />
<polyline points="274.5,208.5,306.5,228.5,314.5,244.5,318.5,260.5,324.5,276.5" stroke="black" stroke-width="2" fill="none" />
<polyline points="340.0,253.5,324.0,275.5,334.5,267.5,348.5,251.0" stroke="black" stroke-width="2" fill="none" />
<polyline points="358.5,252.5,347.0,268.5,359.0,263.0,381.0,279.5" stroke="black" stroke-width="2" fill="none" />
<polyline points="392.0,259.5,376.0,249.5,364.0,237.5,348.0,211.0,332.5,189.0" stroke="black" stroke-width="2" fill="none" />
<polyline points="332.5,191.5,340.0,207.5,346.0,223.5,356.0,239.0,370.0,255.0,396.5,270.5,410.5,296.5,396.0,304.5,406.0,310.5" stroke="black" stroke-width="2" fill="none" />
<polyline points="432.5,280.5,416.0,270.5,390.5,248.5,374.5,234.0,358.5,211.5,342.5,187.0,326.0,162.5" stroke="black" stroke-width="2" fill="none" />
<polyline points="343.5,170.5,351.5,186.5,357.0,196.5,363.0,204.5,374.5,214.0,380.5,220.0,390.5,235.5,407.0,251.5,421.0,267.5,435.5,271.0,453.5,279.0,455.5,283.0,471.5,277.0" stroke="black" stroke-width="2" fill="none" />
<polyline points="474.5,269.5,458.5,265.5,442.5,262.0,426.5,258.5,410.0,252.5,394.0,236.5,378.5,214.5,362.5,192.5,346.5,172.5" stroke="black" stroke-width="2" fill="none" />
<polyline points="340.5,176.0,346.5,196.0,358.0,212.0,368.0,227.5,384.0,243.5,394.0,245.5,410.0,257.0,426.5,269.5,432.5,263.5,449.0,269.5,465.0,272.0,481.0,274.0" stroke="black" stroke-width="2" fill="none" />
<polyline points="460.0,302.0,444.0,320.0,446.0,318.5,458.0,302.5" stroke="black" stroke-width="2" fill="none" />
<polyline points="409.0,290.5,381.0,274.5,360.5,258.5" stroke="black" stroke-width="2" fill="none" />
<polyline points="365.5,292.0,349.5,302.0,323.5,295.5,305.5,279.5,293.5,263.0,271.5,247.0" stroke="black" stroke-width="2" fill="none" />
<polyline points="274.5,243.5,296.5,259.5,311.5,275.5" stroke="black" stroke-width="2" fill="none" />
<polyline points="245.5,252.0,229.5,238.0,208.0,260.0,200.0,263.5,209.5,247.5,211.5,231.5" stroke="black" stroke-width="2" fill="none" />
<polyline points="224.0,253.5,218.5,255.5,212.5,271.5,228.5,254.0,234.5,264.0,238.5,280.0,248.5,296.0,254.5,312.0,264.0,327.5,271.5,343.5,283.5,359.0,305.5,383.0,321.5,402.0,337.5,416.5,353.5,432.5,369.5,443.0,386.0,456.5,402.0,476.5,426.0,478.0,441.5,480.0,458.0,482.0,474.0,488.0,490.5,491.5,500.5,494.0" stroke="black" stroke-width="2" fill="none" />
<polyline points="221.5,354.5,209.5,311.0" stroke="black" stroke-width="2" fill="none" />
<polyline points="193.5,287.0,177.5,281.0" stroke="black" stroke-width="2" fill="none" />
<polyline points="173.5,283.5,189.5,291.5" stroke="black" stroke-width="2" fill="none" />
<polyline points="162.0,291.5,178.0,320.0,194.0,352.5" stroke="black" stroke-width="2" fill="none" />
<polyline points="191.5,357.0,175.5,324.5,159.5,294.5" stroke="black" stroke-width="2" fill="none" />
<polyline points="137.5,254.0,121.5,230.0" stroke="black" stroke-width="2" fill="none" />
<polyline points="118.0,227.0,134.5,238.5,151.0,247.0" stroke="black" stroke-width="2" fill="none" />
<polyline points="149.5,240.5,133.5,230.5,117.5,220.5" stroke="black" stroke-width="2" fill="none" />
<polyline points="121.0,222.0,133.0,237.5,161.5,253.5,152.0,269.5,154.5,285.5,162.5,302.0,171.0,318.0,181.0,334.0,188.5,350.0,194.5,366.0,198.5,382.5,202.5,398.5,200.5,414.0" stroke="black" stroke-width="2" fill="none" />
<polyline points="204.5,415.0,188.5,409.0,172.5,405.0,156.0,409.0,140.0,421.5,123.5,436.0,107.0,461.5" stroke="black" stroke-width="2" fill="none" />
<polyline points="82.0,353.0,66.0,345.0" stroke="black" stroke-width="2" fill="none" />
<polyline points="39.0,350.5,55.0,346.5,75.0,348.5,97.5,364.5" stroke="black" stroke-width="2" fill="none" />
<polyline points="107.0,339.5,121.0,355.5,142.5,360.0,144.5,376.0,162.5,392.0,174.5,408.0,140.0,422.0,122.0,438.5,112.0,454.5,108.0,471.0,114.0,487.0" stroke="black" stroke-width="2" fill="none" />
<polyline points="111.5,492.5,103.5,476.5,105.5,461.0,111.5,445.0,125.0,429.0,145.0,413.0,159.0,397.0,141.0,381.0,133.0,365.0,120.5,349.5,106.5,333.0,80.5,313.0,64.5,311.0" stroke="black" stroke-width="2" fill="none" />
<polyline points="80.0,303.0,64.0,291.0,48.5,287.5,32.5,294.0,16.5,322.0" stroke="black" stroke-width="2" fill="none" />
<polyline points="12.0,316.0,28.0,290.5,54.0,280.0,75.5,296.0,91.5,311.5,101.5,327.0,101.5,343.5,109.5,359.5,109.5,375.5,109.5,391.5,134.0,407.5" stroke="black" stroke-width="2" fill="none" />
<polyline points="154.0,392.0,138.0,376.0,122.0,357.5,106.0,340.0,96.0,346.0,86.5,344.5,63.0,341.0,47.0,343.0,31.0,347.0" stroke="black" stroke-width="2" fill="none" />
<polyline points="36.0,329.5,26.5,341.0,18.5,369.0,3.0,366.5,3.0,378.5" stroke="black" stroke-width="2" fill="none" />
<polyline points="25.5,382.5,41.0,374.5,55.0,380.5,72.5,384.0" stroke="black" stroke-width="2" fill="none" />
<polyline points="74.5,387.5,58.0,381.5,41.5,382.0,25.5,386.0,9.5,404.0" stroke="black" stroke-width="2" fill="none" />
<polyline points="11.0,417.5,13.5,402.0,20.0,386.0,30.0,370.0" stroke="black" stroke-width="2" fill="none" />
<polyline points="39.0,321.5,32.5,332.0,29.0,330.0,45.0,322.0,45.0,330.0,61.0,332.0,77.0,332.5,76.5,342.5,94.5,356.5" stroke="black" stroke-width="2" fill="none" />
<polyline points="42.5,390.0,26.0,394.0,14.0,422.0,16.0,406.0,12.5,384.0,20.5,368.5,28.5,352.5,16.5,336.5,18.5,320.5,25.0,304.5,43.0,288.5" stroke="black" stroke-width="2" fill="none" />
<polyline points="43.0,280.0,17.0,271.5,1.0,279.5" stroke="black" stroke-width="2" fill="none" />
<polyline points="1.5,285.0,17.5,275.0,33.5,276.0,49.5,276.5,65.5,286.5,81.5,299.0,98.0,318.5,114.0,338.5,130.0,358.0,145.5,376.0,162.0,390.0,178.0,404.0,194.5,405.5,208.5,396.0" stroke="black" stroke-width="2" fill="none" />
<polyline points="190.5,280.0,174.5,280.0,170.5,282.0,148.5,278.0,132.5,253.5,116.5,227.5" stroke="black" stroke-width="2" fill="none" />
<polyline points="123.5,216.5,135.5,232.5,163.5,248.5,169.5,272.5,173.5,284.0,204.0,298.0,207.5,314.0,215.5,330.0,221.5,346.0,227.5,362.0,229.5,378.0" stroke="black" stroke-width="2" fill="none" />
<polyline points="208.5,199.5,192.5,201.5" stroke="black" stroke-width="2" fill="none" />
<polyline points="186.0,192.5,202.0,194.5,218.0,188.0,238.0,184.0,254.0,183.5" stroke="black" stroke-width="2" fill="none" />
<polyline points="270.5,200.5,302.5,216.5,322.5,234.5,320.5,246.5,322.5,262.5,334.5,286.5,333.0,296.5,338.5,312.0,328.5,328.0,306.5,343.5,290.5,359.0,304.0,351.5,320.0,339.5,336.0,328.0,356.5,322.0,372.5,308.5,388.5,301.0,404.0,299.0" stroke="black" stroke-width="2" fill="none" />
<polyline points="204.0,186.0,188.5,184.0,172.5,187.5" stroke="black" stroke-width="2" fill="none" />
<polyline points="158.0,178.0,160.0,194.0,168.0,210.0" stroke="black" stroke-width="2" fill="none" />
<polyline points="117.0,206.5,114.5,222.5,120.5,238.0,130.5,254.0,142.0,270.5,162.0,292.5,170.0,308.0,178.0,323.5,187.5,339.0,193.5,354.5,199.5,370.0,201.5,386.5,207.5,403.0,215.5,403.5,237.0,390.0,253.0,394.5,269.0,399.0,285.0,405.0" stroke="black" stroke-width="2" fill="none" />
<polyline points="81.5,242.0,70.0,254.0,66.0,250.0,74.0,238.0,98.0,222.0,112.0,206.0,110.0,208.0,94.0,227.5,78.0,237.5,62.0,246.0,46.5,256.0,42.5,242.0,34.5,226.0,24.5,210.0,18.5,194.5,2.5,194.5" stroke="black" stroke-width="2" fill="none" />
<polyline points="2.0,197.5,18.0,199.5" stroke="black" stroke-width="2" fill="none" />
<polyline points="2.0,209.0,18.0,207.0,30.0,229.5,37.5,245.5" stroke="black" stroke-width="2" fill="none" />
<polyline points="12.0,258.5,28.0,258.5,44.5,250.5,60.5,239.0,76.5,231.0,92.5,221.0,108.5,201.0" stroke="black" stroke-width="2" fill="none" />
<polyline points="117.0,135.0,110.5,151.0,111.0,167.0,118.5,183.0,112.5,198.5,98.0,214.5,80.5,230.5,53.0,246.0,39.5,262.0,43.5,277.5,25.5,294.0,15.5,310.0,11.5,326.0,9.0,342.0,4.5,357.5,12.0,362.0,9.5,378.0,9.5,388.5,3.0,399.0,22.5,375.0,38.5,371.0,54.5,376.5,71.0,382.5" stroke="black" stroke-width="2" fill="none" />
<polyline points="128.0,412.0,99.5,396.0,104.0,380.0,103.5,364.0,95.5,348.5,93.5,332.5,87.5,317.0,76.0,303.0,52.0,286.5" stroke="black" stroke-width="2" fill="none" />
<polyline points="34.0,226.0,17.5,218.0,1.5,216.0" stroke="black" stroke-width="2" fill="none" />
<polyline points="1.5,128.0,17.5,124.0,33.0,118.5,49.0,114.5,65.5,114.5,81.5,116.5,97.5,118.5" stroke="black" stroke-width="2" fill="none" />
<polyline points="108.0,88.5,124.0,64.0,140.0,51.5,156.0,43.5,171.5,33.5,143.5,49.5,121.5,65.0,112.0,81.0,106.5,97.5,110.5,71.5,126.5,55.5,142.5,46.0,158.0,36.0" stroke="black" stroke-width="2" fill="none" />
<polyline points="159.0,14.0,197.5,30.0,227.0,45.5,251.5,61.5,267.5,77.5,280.0,93.5,290.0,109.5,300.5,126.0,312.5,142.0,323.0,158.5,333.0,174.5,343.0,190.5,347.0,206.5,353.0,222.0,363.0,238.0,381.0,253.5,419.0,258.0,439.0,274.0,453.0,282.5,453.5,302.5,441.5,318.5,433.0,326.5,449.0,306.5,464.5,292.0" stroke="black" stroke-width="2" fill="none" />
<polyline points="270.5,63.5,254.5,47.5,239.0,36.0,223.0,26.5,207.5,18.5,191.5,10.5,176.0,5.0,160.0,5.0,144.5,5.0,128.0,7.0,112.0,5.0" stroke="black" stroke-width="2" fill="none" />
<polyline points="136.0,7.5,151.5,11.5,167.5,15.0,183.5,23.0,199.0,29.0" stroke="black" stroke-width="2" fill="none" />
<polyline points="221.5,30.0,205.5,22.0,189.5,13.5,174.0,7.5" stroke="black" stroke-width="2" fill="none" />
<polyline points="179.0,5.5,213.0,21.5,239.5,37.5,259.5,53.5,278.0,75.0,286.0,91.5,294.0,107.5,306.0,124.0,318.0,140.0,332.0,156.5,340.0,172.5,342.0,181.0,351.5,197.0,363.5,212.5,375.5,228.5,391.5,244.0,406.0,260.0,423.5,276.0,426.0,294.0,406.0,310.0,392.0,326.0,378.0,342.5,366.0,360.0,373.5,376.0,379.5,391.5,387.5,407.0,393.5,423.5,399.5,439.5,403.5,455.5,413.5,471.5,408.0,479.5,423.5,495.5,439.5,500.0,455.5,502.0,471.5,506.0,488.0,508.5,504.0,508.5" stroke="black" stroke-width="2" fill="none" />
<polyline points="469.0,170.0,453.0,170.0,437.0,166.0,421.0,164.0,405.0,162.0,389.0,162.0,373.0,162.0,357.0,162.0,341.0,162.0,325.0,148.0,309.0,126.0,292.5,102.0,276.5,85.5,260.5,68.0,244.0,56.0,227.5,46.0,211.5,38.5,179.5,28.5,163.5,26.5,147.5,22.5,131.5,18.5,115.5,15.0,100.0,11.0,84.5,9.0,82.5,4.5,66.5,8.0,50.0,6.0,34.0,5.5,18.0,5.5,2.5,5.0" stroke="black" stroke-width="2" fill="none" />
<polyline points="1.5,10.0,17.5,10.5,33.5,11.0,49.5,11.5,65.0,12.0,81.0,14.5,97.0,17.0,113.0,19.0,128.5,23.0,144.5,27.0,160.0,31.0,156.5,36.5,129.0,53.0,113.0,69.0,103.5,85.0,100.0,101.5,104.5,113.0" stroke="black" stroke-width="2" fill="none" />
<polyline points="156.0,96.0,172.0,92.0,188.0,90.0,204.5,86.0" stroke="black" stroke-width="2" fill="none" />
<polyline points="174.0,79.5,144.0,95.5,132.0,112.0,132.0,126.0,132.0,141.5,132.5,157.5,132.0,163.5,134.0,179.5,132.0,195.5,146.5,211.5,167.0,227.5" stroke="black" stroke-width="2" fill="none" />
<polyline points="190.5,160.5,187.0,160.5,173.0,176.5,165.0,192.0,169.0,206.0,185.0,219.5,191.0,219.5,207.0,223.0,227.5,221.0,243.5,213.0,259.5,197.5,263.5,193.5,249.5,209.5,235.5,230.0,243.0,240.5,259.0,244.5,275.0,249.0,291.5,261.0,307.5,281.0,324.0,294.5,338.0,264.5,346.0,254.5,362.0,266.5,378.0,278.0,393.5,287.5,409.5,295.5" stroke="black" stroke-width="2" fill="none" />
<polyline points="194.0,129.5,178.0,127.5,161.5,131.5,151.5,143.5,171.5,127.5,165.5,135.5" stroke="black" stroke-width="2" fill="none" />
<polyline points="162.0,142.0,178.0,136.0,166.5,135.5,160.5,140.0,167.0,146.0,183.0,144.0" stroke="black" stroke-width="2" fill="none" />
<polyline points="96.5,109.5,80.5,109.5,65.0,107.5,49.0,107.5,33.0,107.5,17.0,110.0,1.5,112.0" stroke="black" stroke-width="2" fill="none" />
<polyline points="2.0,98.0,17.5,100.0" stroke="black" stroke-width="2" fill="none" />
<polyline points="7.5,119.5,39.5,117.5" stroke="black" stroke-width="2" fill="none" />
<polyline points="155.5,9.0,171.5,12.5,187.5,21.0,203.5,27.0,220.0,35.0,236.0,41.0" stroke="black" stroke-width="2" fill="none" />
<polyline points="236.0,61.5,222.0,77.5,217.5,93.5,225.5,109.5,231.5,117.5,230.0,134.0,216.0,133.5,230.0,151.5,232.0,168.0,226.0,182.0,230.0,192.5,226.0,208.5,222.0,230.0,226.0,232.0,238.0,247.5,250.5,263.0" stroke="black" stroke-width="2" fill="none" />
<polyline points="272.0,74.0,253.5,57.5,229.5,41.0,199.5,25.0,163.5,9.0" stroke="black" stroke-width="2" fill="none" />
</svg>