<?xml version="1.0" encoding="UTF-8"?>
<svg xmlns="http://www.w3.org/2000/svg" xmlns:xlink="http://www.w3.org/1999/xlink" width="1935.11811" height="1935.11811" viewBox="0 0 1935.11811 1935.11811" version="1.1">
<g id="surface1">
<path style="fill:none;stroke-width:2;stroke-linecap:butt;stroke-linejoin:miter;stroke:rgb(0%,0%,0%);stroke-opacity:1;stroke-miterlimit:4;" d="M 245.50026 34.50022 L 231.500081 50.500277 L 229.500203 66.500334 L 229.500203 80.500513 L 227.500326 87.000374 L 233.499959 80.999707 L 251.499894 94.999886 " transform="matrix(3.779528,0,0,3.779528,0,0)"/>
<path style="fill:none;stroke-width:2;stroke-linecap:butt;stroke-linejoin:miter;stroke:rgb(0%,0%,0%);stroke-opacity:1;stroke-miterlimit:4;" d="M 230.999854 53.999805 L 246.99991 33.999992 L 262.999967 31.499886 L 278.499797 37.49952 " transform="matrix(3.779528,0,0,3.779528,0,0)"/>
<path style="fill:none;stroke-width:2;stroke-linecap:butt;stroke-linejoin:miter;stroke:rgb(0%,0%,0%);stroke-opacity:1;stroke-miterlimit:4;" d="M 264.999845 33.499764 L 286.999536 49.499821 L 289.499642 65.499878 L 273.499585 85.499691 L 280.00048 89.000252 L 304.000049 85.499691 L 320.000106 85.499691 L 336.000163 91.999552 L 352.00022 96.000342 L 359.999731 118.50026 L 372.000033 120.500138 L 384.000334 100.99952 " transform="matrix(3.779528,0,0,3.779528,0,0)"/>
<path style="fill:none;stroke-width:2;stroke-linecap:butt;stroke-linejoin:miter;stroke:rgb(0%,0%,0%);stroke-opacity:1;stroke-miterlimit:4;" d="M 387.499862 119.99991 L 399.500163 125.999544 L 406.000024 141.999601 L 416.000448 148.000269 L 420.000203 154.50013 L 423.999959 172.500065 L 432.000505 178.499699 L 430.499821 191.99965 L 440.500244 200.000195 L 438.500366 215.500024 L 447.999528 221.999886 L 470.000252 237.999943 L 475.999886 254 L 482.499748 255.999878 L 480.49987 272.500163 L 484.499626 271.999935 L 482.499748 286.500342 L 481.000098 292.499976 L 478.499992 309.00026 L 482.499748 324.50009 L 478.499992 340.500146 L 468.499569 356.500203 L 462.499935 372.50026 L 438.000138 386.500439 L 445.99965 384.499528 L 464.499813 366.499593 L 476.500114 359.999731 L 468.499569 375.499561 L 454.500423 391.499618 " transform="matrix(3.779528,0,0,3.779528,0,0)"/>
<path style="fill:none;stroke-width:2;stroke-linecap:butt;stroke-linejoin:miter;stroke:rgb(0%,0%,0%);stroke-opacity:1;stroke-miterlimit:4;" d="M 429.500399 391.000423 L 413.500342 391.000423 " transform="matrix(3.779528,0,0,3.779528,0,0)"/>
<path style="fill:none;stroke-width:2;stroke-linecap:butt;stroke-linejoin:miter;stroke:rgb(0%,0%,0%);stroke-opacity:1;stroke-miterlimit:4;" d="M 375.999788 413.000114 L 375.999788 429.000171 L 375.499561 445.000228 L 381.500228 461.000285 " transform="matrix(3.779528,0,0,3.779528,0,0)"/>
<path style="fill:none;stroke-width:2;stroke-linecap:butt;stroke-linejoin:miter;stroke:rgb(0%,0%,0%);stroke-opacity:1;stroke-miterlimit:4;" d="M 377.500472 450.000439 L 393.499495 468.000374 L 409.000358 476.500114 L 425.000415 472.500358 L 441.499666 460.500057 " transform="matrix(3.779528,0,0,3.779528,0,0)"/>
<path style="fill:none;stroke-width:2;stroke-linecap:butt;stroke-linejoin:miter;stroke:rgb(0%,0%,0%);stroke-opacity:1;stroke-miterlimit:4;" d="M 481.99952 395.500407 L 478.499992 379.50035 " transform="matrix(3.779528,0,0,3.779528,0,0)"/>
<path style="fill:none;stroke-width:2;stroke-linecap:butt;stroke-linejoin:miter;stroke:rgb(0%,0%,0%);stroke-opacity:1;stroke-miterlimit:4;" d="M 467.500146 373.99991 L 451.50009 394.499951 L 435.500033 404.500374 L 419.499976 408.50013 L 403.499919 408.50013 L 399.500163 392.500073 L 383.500106 404.999569 L 368.000277 411.000236 L 352.500448 411.000236 L 348.499658 402.500496 L 332.499601 409.99978 L 316.00035 409.99978 L 300.000293 409.499552 L 284.000236 409.499552 L 268.500407 409.000358 L 252.50035 409.499552 L 236.500293 409.99978 L 220.500236 409.99978 L 205.000407 410.500008 L 156.500008 410.500008 L 142.499829 404.500374 L 130.499528 408.50013 L 126.499772 392.500073 " transform="matrix(3.779528,0,0,3.779528,0,0)"/>
<path style="fill:none;stroke-width:2;stroke-linecap:butt;stroke-linejoin:miter;stroke:rgb(0%,0%,0%);stroke-opacity:1;stroke-miterlimit:4;" d="M 132.500439 394.499951 L 146.499585 412.499886 L 148.500496 428.499943 L 146.499585 444.5 L 138.500073 460.500057 L 118.50026 476.500114 " transform="matrix(3.779528,0,0,3.779528,0,0)"/>
<path style="fill:none;stroke-width:2;stroke-linecap:butt;stroke-linejoin:miter;stroke:rgb(0%,0%,0%);stroke-opacity:1;stroke-miterlimit:4;" d="M 110.999943 496.499927 L 127 496.499927 L 143.000057 486.499504 " transform="matrix(3.779528,0,0,3.779528,0,0)"/>
<path style="fill:none;stroke-width:2;stroke-linecap:butt;stroke-linejoin:miter;stroke:rgb(0%,0%,0%);stroke-opacity:1;stroke-miterlimit:4;" d="M 132.000212 466.000496 L 116.000155 477.499536 L 100.000098 477.499536 L 84.500269 469.500024 L 68.500212 445.000228 " transform="matrix(3.779528,0,0,3.779528,0,0)"/>
<path style="fill:none;stroke-width:2;stroke-linecap:butt;stroke-linejoin:miter;stroke:rgb(0%,0%,0%);stroke-opacity:1;stroke-miterlimit:4;" d="M 76.499723 463.999585 L 68.500212 448.499756 L 66.500334 432.000505 L 66.500334 416.000448 L 60.499666 400.000391 L 44.000415 384.000334 L 37.999748 370.000155 L 33.999992 353.49987 L 32.000114 337.499813 L 33.999992 320.999528 L 29.500008 305.499699 L 23.000146 289.499642 L 23.500374 273.499585 L 29.500008 257.499528 L 31.499886 241.500505 L 49.499821 235.499837 L 65.499878 220.000008 L 69.499634 203.999951 L 73.500423 187.499666 L 83.499813 171.499609 L 91.999552 155.499552 L 103.999854 139.499495 L 118.50026 123.500472 L 125.000122 107.500415 L 143.000057 112.000399 L 157.000236 96.000342 L 155.000358 84.500269 " transform="matrix(3.779528,0,0,3.779528,0,0)"/>
<path style="fill:none;stroke-width:2;stroke-linecap:butt;stroke-linejoin:miter;stroke:rgb(0%,0%,0%);stroke-opacity:1;stroke-miterlimit:4;" d="M 125.000122 107.500415 L 130.499528 98.00022 L 132.999634 103.999854 L 144.999935 114.000277 L 159.000114 103.999854 L 175.000171 98.00022 L 191.000228 92.49978 L 206.500057 88.500024 " transform="matrix(3.779528,0,0,3.779528,0,0)"/>
<path style="fill:none;stroke-width:2;stroke-linecap:butt;stroke-linejoin:miter;stroke:rgb(0%,0%,0%);stroke-opacity:1;stroke-miterlimit:4;" d="M 337.499813 85.000496 L 351.499992 100.99952 L 369.499927 105.000309 L 359.499504 105.499504 " transform="matrix(3.779528,0,0,3.779528,0,0)"/>
<path style="fill:none;stroke-width:2;stroke-linecap:butt;stroke-linejoin:miter;stroke:rgb(0%,0%,0%);stroke-opacity:1;stroke-miterlimit:4;" d="M 411.000236 137.499618 L 427.000293 165.499976 " transform="matrix(3.779528,0,0,3.779528,0,0)"/>
<path style="fill:none;stroke-width:2;stroke-linecap:butt;stroke-linejoin:miter;stroke:rgb(0%,0%,0%);stroke-opacity:1;stroke-miterlimit:4;" d="M 445.000228 212.499691 L 461.000285 224.499992 L 476.500114 232.999731 " transform="matrix(3.779528,0,0,3.779528,0,0)"/>
<path style="fill:none;stroke-width:2;stroke-linecap:butt;stroke-linejoin:miter;stroke:rgb(0%,0%,0%);stroke-opacity:1;stroke-miterlimit:4;" d="M 475.499658 241.999699 L 491.499715 261.999512 L 489.499837 277.999569 L 491.999943 293.500431 L 506.50035 289.499642 L 506.50035 281.50013 L 502.499561 297.500187 " transform="matrix(3.779528,0,0,3.779528,0,0)"/>
<path style="fill:none;stroke-width:2;stroke-linecap:butt;stroke-linejoin:miter;stroke:rgb(0%,0%,0%);stroke-opacity:1;stroke-miterlimit:4;" d="M 481.99952 332.000407 L 481.99952 348.000464 L 479.999642 363.999487 L 472.00013 380.499772 L 457.999951 396.499829 L 452.000317 412.499886 L 451.50009 428.499943 L 448.999984 444.5 L 441.000472 460.500057 " transform="matrix(3.779528,0,0,3.779528,0,0)"/>
<path style="fill:none;stroke-width:2;stroke-linecap:butt;stroke-linejoin:miter;stroke:rgb(0%,0%,0%);stroke-opacity:1;stroke-miterlimit:4;" d="M 367.500049 402.000269 L 351.499992 402.000269 " transform="matrix(3.779528,0,0,3.779528,0,0)"/>
<path style="fill:none;stroke-width:2;stroke-linecap:butt;stroke-linejoin:miter;stroke:rgb(0%,0%,0%);stroke-opacity:1;stroke-miterlimit:4;" d="M 339.999919 329.500301 L 355.999976 335.499935 L 372.000033 339.000496 L 388.00009 341.000374 L 404.000146 339.000496 L 413.999536 329.000073 " transform="matrix(3.779528,0,0,3.779528,0,0)"/>
<path style="fill:none;stroke-width:2;stroke-linecap:butt;stroke-linejoin:miter;stroke:rgb(0%,0%,0%);stroke-opacity:1;stroke-miterlimit:4;" d="M 411.999658 285.499886 L 395.999601 267.499951 L 379.999544 265.500073 " transform="matrix(3.779528,0,0,3.779528,0,0)"/>
<path style="fill:none;stroke-width:2;stroke-linecap:butt;stroke-linejoin:miter;stroke:rgb(0%,0%,0%);stroke-opacity:1;stroke-miterlimit:4;" d="M 384.000334 259.000212 L 400.000391 262.999967 " transform="matrix(3.779528,0,0,3.779528,0,0)"/>
<path style="fill:none;stroke-width:2;stroke-linecap:butt;stroke-linejoin:miter;stroke:rgb(0%,0%,0%);stroke-opacity:1;stroke-miterlimit:4;" d="M 400.000391 253.499772 L 422.000081 269.499829 L 427.499487 285.499886 L 425.499609 301.499943 L 417.500098 317.5 L 411.999658 318.000228 L 398.000513 323.499634 L 422.000081 317.5 L 438.000138 304.000049 " transform="matrix(3.779528,0,0,3.779528,0,0)"/>
<path style="fill:none;stroke-width:2;stroke-linecap:butt;stroke-linejoin:miter;stroke:rgb(0%,0%,0%);stroke-opacity:1;stroke-miterlimit:4;" d="M 412.499886 266.000301 L 396.499829 258.499984 L 380.499772 256.500106 " transform="matrix(3.779528,0,0,3.779528,0,0)"/>
<path style="fill:none;stroke-width:2;stroke-linecap:butt;stroke-linejoin:miter;stroke:rgb(0%,0%,0%);stroke-opacity:1;stroke-miterlimit:4;" d="M 391.499618 269.499829 L 409.499552 285.499886 L 411.500464 301.499943 L 399.500163 316.999772 " transform="matrix(3.779528,0,0,3.779528,0,0)"/>
<path style="fill:none;stroke-width:2;stroke-linecap:butt;stroke-linejoin:miter;stroke:rgb(0%,0%,0%);stroke-opacity:1;stroke-miterlimit:4;" d="M 395.000179 307.499577 L 379.000122 314.000472 L 363.500293 302.000171 " transform="matrix(3.779528,0,0,3.779528,0,0)"/>
<path style="fill:none;stroke-width:2;stroke-linecap:butt;stroke-linejoin:miter;stroke:rgb(0%,0%,0%);stroke-opacity:1;stroke-miterlimit:4;" d="M 354.000098 302.500399 L 370.000155 318.000228 L 385.499984 324.50009 L 401.500041 314.499666 " transform="matrix(3.779528,0,0,3.779528,0,0)"/>
<path style="fill:none;stroke-width:2;stroke-linecap:butt;stroke-linejoin:miter;stroke:rgb(0%,0%,0%);stroke-opacity:1;stroke-miterlimit:4;" d="M 393.000301 277.500374 L 377.500472 275.999691 L 361.999609 289.99987 " transform="matrix(3.779528,0,0,3.779528,0,0)"/>
<path style="fill:none;stroke-width:2;stroke-linecap:butt;stroke-linejoin:miter;stroke:rgb(0%,0%,0%);stroke-opacity:1;stroke-miterlimit:4;" d="M 357.499626 277.999569 L 373.499683 266.499495 L 409.499552 264.999845 " transform="matrix(3.779528,0,0,3.779528,0,0)"/>
<path style="fill:none;stroke-width:2;stroke-linecap:butt;stroke-linejoin:miter;stroke:rgb(0%,0%,0%);stroke-opacity:1;stroke-miterlimit:4;" d="M 389.999967 277.999569 L 401.500041 293.999626 L 391.999845 310.49991 " transform="matrix(3.779528,0,0,3.779528,0,0)"/>
<path style="fill:none;stroke-width:2;stroke-linecap:butt;stroke-linejoin:miter;stroke:rgb(0%,0%,0%);stroke-opacity:1;stroke-miterlimit:4;" d="M 366.499593 318.000228 L 354.000098 302.000171 L 354.000098 285.499886 L 366.000399 271.499707 L 356.500203 275.000269 " transform="matrix(3.779528,0,0,3.779528,0,0)"/>
<path style="fill:none;stroke-width:2;stroke-linecap:butt;stroke-linejoin:miter;stroke:rgb(0%,0%,0%);stroke-opacity:1;stroke-miterlimit:4;" d="M 375.000366 276.499919 L 363.000065 292.499976 L 366.999821 307.999805 " transform="matrix(3.779528,0,0,3.779528,0,0)"/>
<path style="fill:none;stroke-width:2;stroke-linecap:butt;stroke-linejoin:miter;stroke:rgb(0%,0%,0%);stroke-opacity:1;stroke-miterlimit:4;" d="M 365.500171 325.000317 L 349.500114 311.000138 " transform="matrix(3.779528,0,0,3.779528,0,0)"/>
<path style="fill:none;stroke-width:2;stroke-linecap:butt;stroke-linejoin:miter;stroke:rgb(0%,0%,0%);stroke-opacity:1;stroke-miterlimit:4;" d="M 341.000374 301.499943 L 357.000431 327.500423 L 373.000488 333.500057 L 388.500317 333.500057 L 404.000146 329.000073 L 420.000203 313.000016 " transform="matrix(3.779528,0,0,3.779528,0,0)"/>
<path style="fill:none;stroke-width:2;stroke-linecap:butt;stroke-linejoin:miter;stroke:rgb(0%,0%,0%);stroke-opacity:1;stroke-miterlimit:4;" d="M 359.499504 325.000317 L 345.00013 309.00026 L 343.000252 292.499976 L 348.999886 276.499919 L 355.499748 275.999691 L 365.500171 261.500317 L 349.500114 275.500496 L 347.500236 291.49952 " transform="matrix(3.779528,0,0,3.779528,0,0)"/>
<path style="fill:none;stroke-width:2;stroke-linecap:butt;stroke-linejoin:miter;stroke:rgb(0%,0%,0%);stroke-opacity:1;stroke-miterlimit:4;" d="M 339.000496 289.99987 L 354.99952 261.500317 L 368.999699 245.000033 L 354.99952 261.00009 L 345.00013 277.000146 L 338.500269 293.000203 L 334.999707 309.00026 L 343.000252 309.00026 L 343.000252 325.499512 L 357.000431 327.500423 " transform="matrix(3.779528,0,0,3.779528,0,0)"/>
<path style="fill:none;stroke-width:2;stroke-linecap:butt;stroke-linejoin:miter;stroke:rgb(0%,0%,0%);stroke-opacity:1;stroke-miterlimit:4;" d="M 354.99952 250.000244 L 343.50048 266.000301 L 334.999707 281.50013 L 341.499569 267.499951 L 367.500049 245.50026 L 377.999666 251.499894 L 393.999723 251.499894 L 410.500008 252.000122 L 412.499886 259.999634 " transform="matrix(3.779528,0,0,3.779528,0,0)"/>
<path style="fill:none;stroke-width:2;stroke-linecap:butt;stroke-linejoin:miter;stroke:rgb(0%,0%,0%);stroke-opacity:1;stroke-miterlimit:4;" d="M 490.000065 287.499764 L 500.000488 281.50013 L 500.000488 269.499829 L 502.000366 252.999544 " transform="matrix(3.779528,0,0,3.779528,0,0)"/>
<path style="fill:none;stroke-width:2;stroke-linecap:butt;stroke-linejoin:miter;stroke:rgb(0%,0%,0%);stroke-opacity:1;stroke-miterlimit:4;" d="M 314.499666 404.999569 L 282.99978 404.999569 L 267.499951 404.500374 L 251.499894 404.000146 L 236.000065 404.000146 L 220.500236 403.499919 L 205.000407 404.000146 L 189.499544 404.000146 L 173.499487 400.000391 L 157.500464 398.000513 " transform="matrix(3.779528,0,0,3.779528,0,0)"/>
<path style="fill:none;stroke-width:2;stroke-linecap:butt;stroke-linejoin:miter;stroke:rgb(0%,0%,0%);stroke-opacity:1;stroke-miterlimit:4;" d="M 159.500342 440.500244 L 155.499552 456.500301 L 155.499552 472.500358 L 139.499495 488.500415 " transform="matrix(3.779528,0,0,3.779528,0,0)"/>
<path style="fill:none;stroke-width:2;stroke-linecap:butt;stroke-linejoin:miter;stroke:rgb(0%,0%,0%);stroke-opacity:1;stroke-miterlimit:4;" d="M 107.999609 400.000391 L 91.999552 402.000269 L 75.999495 395.500407 L 73.999618 401.500041 L 57.500366 395.500407 L 44.499609 373.499683 L 28.499552 377.500472 " transform="matrix(3.779528,0,0,3.779528,0,0)"/>
<path style="fill:none;stroke-width:2;stroke-linecap:butt;stroke-linejoin:miter;stroke:rgb(0%,0%,0%);stroke-opacity:1;stroke-miterlimit:4;" d="M 59.500244 382.999878 L 75.500301 386.999634 " transform="matrix(3.779528,0,0,3.779528,0,0)"/>
<path style="fill:none;stroke-width:2;stroke-linecap:butt;stroke-linejoin:miter;stroke:rgb(0%,0%,0%);stroke-opacity:1;stroke-miterlimit:4;" d="M 64.99965 394.499951 L 86.500146 410.500008 L 90.499902 411.999658 L 106.499959 407.999902 L 109.999487 414.499764 L 125.999544 410.500008 " transform="matrix(3.779528,0,0,3.779528,0,0)"/>
<path style="fill:none;stroke-width:2;stroke-linecap:butt;stroke-linejoin:miter;stroke:rgb(0%,0%,0%);stroke-opacity:1;stroke-miterlimit:4;" d="M 171.999837 328.499845 L 155.99978 338.000041 L 172.500065 327.999618 L 182.500488 311.999561 L 186.500244 295.999504 L 182.500488 280.00048 L 168.999504 263.500195 L 134.999512 265.500073 " transform="matrix(3.779528,0,0,3.779528,0,0)"/>
<path style="fill:none;stroke-width:2;stroke-linecap:butt;stroke-linejoin:miter;stroke:rgb(0%,0%,0%);stroke-opacity:1;stroke-miterlimit:4;" d="M 130.000334 262.49974 L 109.500293 277.999569 L 101.499748 293.500431 L 103.499626 309.500488 L 114.000277 325.99974 L 128.000456 334.000285 " transform="matrix(3.779528,0,0,3.779528,0,0)"/>
<path style="fill:none;stroke-width:2;stroke-linecap:butt;stroke-linejoin:miter;stroke:rgb(0%,0%,0%);stroke-opacity:1;stroke-miterlimit:4;" d="M 112.000399 310.49991 L 128.000456 324.50009 L 144.000513 329.999495 L 159.999536 320.000106 " transform="matrix(3.779528,0,0,3.779528,0,0)"/>
<path style="fill:none;stroke-width:2;stroke-linecap:butt;stroke-linejoin:miter;stroke:rgb(0%,0%,0%);stroke-opacity:1;stroke-miterlimit:4;" d="M 153.00048 283.500008 L 137.000423 281.50013 L 121.000366 291.999748 " transform="matrix(3.779528,0,0,3.779528,0,0)"/>
<path style="fill:none;stroke-width:2;stroke-linecap:butt;stroke-linejoin:miter;stroke:rgb(0%,0%,0%);stroke-opacity:1;stroke-miterlimit:4;" d="M 128.999878 282.499552 L 119.000488 298.499609 L 125.000122 314.000472 L 130.999756 315.500122 L 146.999813 317.5 " transform="matrix(3.779528,0,0,3.779528,0,0)"/>
<path style="fill:none;stroke-width:2;stroke-linecap:butt;stroke-linejoin:miter;stroke:rgb(0%,0%,0%);stroke-opacity:1;stroke-miterlimit:4;" d="M 170.500187 292.499976 L 154.50013 274.500041 L 138.500073 272.500163 L 123.000244 276.499919 L 107.000187 292.499976 " transform="matrix(3.779528,0,0,3.779528,0,0)"/>
<path style="fill:none;stroke-width:2;stroke-linecap:butt;stroke-linejoin:miter;stroke:rgb(0%,0%,0%);stroke-opacity:1;stroke-miterlimit:4;" d="M 100.000098 296.499731 L 116.000155 271.000513 L 131.499984 262.999967 L 147.500041 262.49974 L 163.500098 262.49974 L 179.500155 259.999634 " transform="matrix(3.779528,0,0,3.779528,0,0)"/>
<path style="fill:none;stroke-width:2;stroke-linecap:butt;stroke-linejoin:miter;stroke:rgb(0%,0%,0%);stroke-opacity:1;stroke-miterlimit:4;" d="M 169.499731 271.999935 L 157.999658 270.000057 L 139.999723 248.000366 " transform="matrix(3.779528,0,0,3.779528,0,0)"/>
<path style="fill:none;stroke-width:2;stroke-linecap:butt;stroke-linejoin:miter;stroke:rgb(0%,0%,0%);stroke-opacity:1;stroke-miterlimit:4;" d="M 128.49965 273.000391 L 112.499593 288.50022 L 110.499715 304.500277 L 114.500505 320.500334 L 116.500382 326.499967 " transform="matrix(3.779528,0,0,3.779528,0,0)"/>
<path style="fill:none;stroke-width:2;stroke-linecap:butt;stroke-linejoin:miter;stroke:rgb(0%,0%,0%);stroke-opacity:1;stroke-miterlimit:4;" d="M 101.499748 331.500179 L 85.499691 325.499512 " transform="matrix(3.779528,0,0,3.779528,0,0)"/>
<path style="fill:none;stroke-width:2;stroke-linecap:butt;stroke-linejoin:miter;stroke:rgb(0%,0%,0%);stroke-opacity:1;stroke-miterlimit:4;" d="M 99.49987 316.499544 L 109.500293 332.499601 " transform="matrix(3.779528,0,0,3.779528,0,0)"/>
<path style="fill:none;stroke-width:2;stroke-linecap:butt;stroke-linejoin:miter;stroke:rgb(0%,0%,0%);stroke-opacity:1;stroke-miterlimit:4;" d="M 96.499536 310.49991 L 93.000008 326.499967 L 103.000431 340.500146 L 109.000065 345.999552 L 125.000122 345.999552 L 141.000179 347.500236 L 157.000236 349.500114 " transform="matrix(3.779528,0,0,3.779528,0,0)"/>
<path style="fill:none;stroke-width:2;stroke-linecap:butt;stroke-linejoin:miter;stroke:rgb(0%,0%,0%);stroke-opacity:1;stroke-miterlimit:4;" d="M 166.500431 339.499691 L 184.500366 323.000439 L 174.499943 332.999829 L 154.50013 332.999829 L 170.500187 323.000439 L 178.499699 306.500155 L 171.999837 318.500456 L 155.99978 332.499601 L 139.499495 340.500146 L 123.500472 336.999585 L 107.500415 327.000195 L 87.499569 311.000138 L 83.499813 317.5 L 95.500114 302.000171 L 96.999764 286.500342 L 107.000187 270.500285 L 110.999943 266.499495 L 94.499658 290.500098 " transform="matrix(3.779528,0,0,3.779528,0,0)"/>
<path style="fill:none;stroke-width:2;stroke-linecap:butt;stroke-linejoin:miter;stroke:rgb(0%,0%,0%);stroke-opacity:1;stroke-miterlimit:4;" d="M 109.999487 259.500439 L 96.000342 275.500496 L 91.999552 286.000114 L 107.999609 261.999512 L 123.999666 257.499528 L 140.499951 255.49965 L 155.99978 257.499528 L 155.99978 267.499951 L 171.999837 279.500252 " transform="matrix(3.779528,0,0,3.779528,0,0)"/>
<path style="fill:none;stroke-width:2;stroke-linecap:butt;stroke-linejoin:miter;stroke:rgb(0%,0%,0%);stroke-opacity:1;stroke-miterlimit:4;" d="M 153.00048 275.000269 L 168.500309 291.000326 L 171.000415 307.000382 L 158.499886 323.000439 " transform="matrix(3.779528,0,0,3.779528,0,0)"/>
<path style="fill:none;stroke-width:2;stroke-linecap:butt;stroke-linejoin:miter;stroke:rgb(0%,0%,0%);stroke-opacity:1;stroke-miterlimit:4;" d="M 153.499674 312.499788 L 157.500464 296.499731 L 137.499618 280.499674 " transform="matrix(3.779528,0,0,3.779528,0,0)"/>
<path style="fill:none;stroke-width:2;stroke-linecap:butt;stroke-linejoin:miter;stroke:rgb(0%,0%,0%);stroke-opacity:1;stroke-miterlimit:4;" d="M 72.499967 210.499813 L 89.000252 174.499943 L 103.000431 159.000114 L 114.999699 135.49974 L 125.000122 129.500106 L 132.999634 111.500171 L 148.999691 99.49987 L 164.999748 91.500358 L 180.499577 87.000374 L 196.499634 82.999585 L 212.999919 78.499601 L 228.999976 74.499845 L 244.499805 76.999951 L 260.499862 76.999951 L 275.999691 77.500179 L 291.49952 75.500301 L 307.499577 77.500179 L 323.999862 81.499935 L 339.999919 85.499691 L 355.999976 91.500358 L 372.000033 99.49987 L 388.00009 112.000399 L 404.000146 128.49965 L 406.000024 140.499951 L 421.499854 168.000081 " transform="matrix(3.779528,0,0,3.779528,0,0)"/>
<path style="fill:none;stroke-width:2;stroke-linecap:butt;stroke-linejoin:miter;stroke:rgb(0%,0%,0%);stroke-opacity:1;stroke-miterlimit:4;" d="M 69.999862 199.499967 L 86.500146 165.499976 L 102.500203 141.500407 L 118.50026 123.999666 L 132.500439 121.999788 L 118.50026 137.999845 L 112.499593 137.999845 L 106.499959 153.999902 L 96.000342 169.499731 L 81.499935 185.499788 L 77.500179 194.999984 L 73.500423 207.000285 L 71.499512 225.999642 L 57.500366 240.500049 L 41.500309 256.500106 L 33.499764 273.000391 L 32.000114 274.500041 L 32.000114 290.500098 " transform="matrix(3.779528,0,0,3.779528,0,0)"/>
<path style="fill:none;stroke-width:2;stroke-linecap:butt;stroke-linejoin:miter;stroke:rgb(0%,0%,0%);stroke-opacity:1;stroke-miterlimit:4;" d="M 23.000146 270.000057 L 35.000448 237.499715 L 55.999683 237.499715 " transform="matrix(3.779528,0,0,3.779528,0,0)"/>
<path style="fill:none;stroke-width:2;stroke-linecap:butt;stroke-linejoin:miter;stroke:rgb(0%,0%,0%);stroke-opacity:1;stroke-miterlimit:4;" d="M 45.500065 253.499772 L 29.500008 267.499951 " transform="matrix(3.779528,0,0,3.779528,0,0)"/>
</g>
</svg>
