<svg xmlns="http://www.w3.org/2000/svg" width="512mm" height="512mm" viewBox="0 0 512 512" version="1.1"><polyline points="237.5,50.5,273.5,66.5,297.5,82.5" stroke="black" stroke-width="2" fill="none" />
<polyline points="246.0,67.5,230.5,63.0" stroke="black" stroke-width="2" fill="none" />
<polyline points="228.0,67.0,262.0,83.5,290.0,99.5" stroke="black" stroke-width="2" fill="none" />
<polyline points="228.0,72.5,244.0,80.0,259.5,88.5,275.5,98.5,292.0,110.5,308.5,124.5,324.5,146.5,340.5,184.0" stroke="black" stroke-width="2" fill="none" />
<polyline points="356.5,174.5,372.5,208.5" stroke="black" stroke-width="2" fill="none" />
<polyline points="367.0,172.5,381.0,188.5,387.0,204.0,399.0,220.0,412.5,238.0,422.5,253.5,430.5,269.5,430.5,286.0,428.5,302.0,425.0,318.0,423.0,334.0,419.0,350.0,403.0,355.5,382.5,371.5,348.5,388.0,362.0,382.0,378.5,376.0,394.5,362.0,410.5,346.0,432.5,330.5" stroke="black" stroke-width="2" fill="none" />
<polyline points="437.5,330.5,431.5,346.5,425.5,362.5,413.5,378.5,399.5,394.0,398.0,396.0,413.5,378.0" stroke="black" stroke-width="2" fill="none" />
<polyline points="391.5,348.0,376.0,356.0,360.0,362.0,354.0,357.5,386.0,349.5,384.0,345.5,368.0,347.5" stroke="black" stroke-width="2" fill="none" />
<polyline points="335.0,364.0,319.5,368.0" stroke="black" stroke-width="2" fill="none" />
<polyline points="311.5,345.5,291.5,361.5,308.0,347.5,324.0,344.0,339.5,340.0,367.5,330.0" stroke="black" stroke-width="2" fill="none" />
<polyline points="349.0,278.0,363.0,262.0,369.0,259.5,357.0,269.5,341.0,281.5,325.5,282.0,310.0,282.0" stroke="black" stroke-width="2" fill="none" />
<polyline points="284.0,333.0,268.0,321.0,252.0,313.0,236.0,313.0,220.0,313.0,204.0,313.5,188.0,317.5" stroke="black" stroke-width="2" fill="none" />
<polyline points="193.5,319.0,209.5,319.0,225.5,319.0,241.5,319.5,257.5,321.5,273.5,331.5" stroke="black" stroke-width="2" fill="none" />
<polyline points="276.0,339.0,260.0,339.0,243.5,338.5,227.5,338.5,211.5,332.0,195.5,324.0" stroke="black" stroke-width="2" fill="none" />
<polyline points="194.5,320.5,218.5,336.5" stroke="black" stroke-width="2" fill="none" />
<polyline points="194.0,331.5,196.5,315.5" stroke="black" stroke-width="2" fill="none" />
<polyline points="189.5,323.5,205.5,335.5,221.5,341.5,237.5,344.0,253.0,344.5,269.0,344.5" stroke="black" stroke-width="2" fill="none" />
<polyline points="284.0,339.0,266.0,323.0" stroke="black" stroke-width="2" fill="none" />
<polyline points="272.5,332.5,255.0,316.5" stroke="black" stroke-width="2" fill="none" />
<polyline points="274.5,274.0,258.5,262.0,242.5,244.0,226.0,220.0,210.5,198.0,194.5,175.5,179.0,151.5,163.0,132.0,147.0,116.0" stroke="black" stroke-width="2" fill="none" />
<polyline points="145.5,104.0,161.5,80.0,177.5,66.0,193.0,60.0,208.5,59.5,228.0,74.0,259.5,90.0,285.5,106.5,303.0,123.0,314.5,139.0,324.5,155.0,332.5,170.5,339.0,186.5,337.5,202.5,339.5,218.5,345.5,234.5,354.0,250.5,356.0,266.5" stroke="black" stroke-width="2" fill="none" />
<polyline points="401.0,232.5,385.0,214.5,369.5,184.0,353.5,170.0" stroke="black" stroke-width="2" fill="none" />
<polyline points="361.0,169.0,368.5,185.0,379.0,201.0,386.5,217.0,400.5,232.5,410.0,248.5,414.5,264.5,413.0,280.0,405.5,296.0,391.5,311.5,361.5,328.0,335.5,348.0,297.5,364.0,285.0,382.0" stroke="black" stroke-width="2" fill="none" />
<polyline points="295.5,362.0,311.5,356.5,327.5,349.0,343.5,345.5,359.0,338.0,375.0,332.5,391.0,325.0,407.0,309.0" stroke="black" stroke-width="2" fill="none" />
<polyline points="404.0,306.5,388.0,320.0,406.0,310.0,416.0,294.0" stroke="black" stroke-width="2" fill="none" />
<polyline points="434.5,280.5,435.0,296.5,435.0,312.5,433.0,328.0,423.0,344.0" stroke="black" stroke-width="2" fill="none" />
<polyline points="360.5,333.5,390.0,323.0,401.5,307.0,415.5,291.5,397.5,303.5,382.0,317.5,366.0,325.5,350.0,332.0,334.0,336.5,318.0,340.5,302.0,344.0,286.0,357.5,270.0,401.0,254.0,415.0,238.0,417.0,222.5,419.5,207.0,421.5,191.0,421.5,175.0,407.5" stroke="black" stroke-width="2" fill="none" />
<polyline points="139.0,403.5,143.0,388.0,141.0,372.0,135.0,364.5" stroke="black" stroke-width="2" fill="none" />
<polyline points="120.0,384.0,138.0,370.0,129.5,376.0,137.0,391.5,134.5,407.5,136.5,412.0" stroke="black" stroke-width="2" fill="none" />
<polyline points="146.0,415.0,134.0,418.5,128.0,414.5,120.0,398.0,120.5,382.0,122.5,366.0,124.5,350.0,126.5,334.0,129.0,327.5,113.0,317.5" stroke="black" stroke-width="2" fill="none" />
<polyline points="118.5,316.5,120.5,332.5,118.5,348.5,118.5,364.5,110.5,380.5,114.5,396.5,119.0,412.5,142.5,424.0,140.5,428.0" stroke="black" stroke-width="2" fill="none" />
<polyline points="127.0,378.5,105.0,362.0,105.0,346.0,103.0,330.0,105.0,314.0,110.5,298.0,109.0,309.5" stroke="black" stroke-width="2" fill="none" />
<polyline points="107.0,304.0,111.0,285.5,101.0,301.5,97.0,318.0,97.0,334.5" stroke="black" stroke-width="2" fill="none" />
<polyline points="102.0,316.5,108.0,324.5,116.0,326.0,108.0,344.0,108.0,359.5" stroke="black" stroke-width="2" fill="none" />
<polyline points="101.0,302.5,117.0,286.5,132.5,294.5,148.5,316.5" stroke="black" stroke-width="2" fill="none" />
<polyline points="121.5,288.5,139.5,304.5,147.0,320.5,155.0,336.5,160.5,352.0,162.5,368.0,166.5,383.5,171.0,399.5,175.0,415.5" stroke="black" stroke-width="2" fill="none" />
<polyline points="268.5,405.5,276.0,389.5,281.5,373.5,285.0,357.5,303.0,342.0" stroke="black" stroke-width="2" fill="none" />
<polyline points="373.0,265.5,357.0,279.5,341.0,285.5,325.0,288.0,309.0,287.5,291.0,279.5,275.0,279.0,259.0,269.0,242.5,251.0,227.0,231.0,211.0,207.0,195.0,185.0,179.0,161.5,163.0,142.0" stroke="black" stroke-width="2" fill="none" />
<polyline points="161.5,133.5,173.5,149.5,185.5,165.5,195.5,181.0,207.5,197.0,219.5,212.5,230.0,228.5,242.5,244.0,257.0,260.0,277.5,276.0" stroke="black" stroke-width="2" fill="none" />
<polyline points="183.0,217.5,167.0,198.0,151.0,182.0,135.0,164.5,119.0,148.5,103.0,134.5" stroke="black" stroke-width="2" fill="none" />
<polyline points="102.5,135.0,120.5,150.5,134.5,166.5,150.5,182.5,164.5,198.5,178.5,214.5,191.0,230.5" stroke="black" stroke-width="2" fill="none" />
<polyline points="104.0,225.0,100.0,200.5" stroke="black" stroke-width="2" fill="none" />
<polyline points="97.5,194.5,103.5,210.5,109.5,226.5" stroke="black" stroke-width="2" fill="none" />
<polyline points="102.0,224.5,97.5,208.0,96.0,192.0" stroke="black" stroke-width="2" fill="none" />
<polyline points="90.5,167.5,74.5,181.5,58.0,201.5" stroke="black" stroke-width="2" fill="none" />
<polyline points="49.5,217.0,53.5,211.0,47.5,227.5,49.5,243.5,51.5,260.0,51.5,268.0,59.5,284.0,49.5,285.5,57.5,287.5,55.5,266.0" stroke="black" stroke-width="2" fill="none" />
<polyline points="79.0,272.5,81.0,288.5,77.0,304.0,69.0,319.5,87.0,335.5" stroke="black" stroke-width="2" fill="none" />
<polyline points="70.0,300.0,76.0,282.0,80.0,265.5,74.0,259.5,78.5,243.5,54.5,241.0" stroke="black" stroke-width="2" fill="none" />
<polyline points="44.5,215.5,60.5,185.5,77.5,171.5,94.0,157.5" stroke="black" stroke-width="2" fill="none" />
<polyline points="95.5,133.5,111.5,133.5,128.0,149.5,144.0,167.5,160.0,183.5,176.0,201.5,192.0,221.5" stroke="black" stroke-width="2" fill="none" />
<polyline points="98.0,132.5,99.5,148.0,95.5,163.5,69.5,185.5,58.0,202.0,70.0,218.0,74.0,234.0,64.0,250.0,64.5,260.0,70.5,281.5,61.0,297.5,67.0,303.5,66.5,314.0" stroke="black" stroke-width="2" fill="none" />
<polyline points="98.5,122.5,115.0,96.5,131.0,78.5,147.0,66.5,163.5,60.0,179.5,55.5,195.5,55.0,211.5,55.0,223.5,51.0,239.5,54.5,256.0,62.5,272.0,70.5,288.5,80.5,304.5,93.0,320.5,109.0,336.5,133.0,352.5,159.0,368.5,173.5,384.5,197.5,400.5,221.5,416.5,241.5" stroke="black" stroke-width="2" fill="none" />
<polyline points="438.0,3.0,454.0,7.0,470.0,9.5,485.5,11.5,501.5,16.0" stroke="black" stroke-width="2" fill="none" />
<polyline points="286.5,71.0,271.0,62.5,255.0,54.5,238.5,49.0,222.5,45.0,207.0,49.5,191.0,49.5,175.0,51.5,159.0,55.5,143.0,63.5,127.0,75.0,111.0,94.5,94.5,118.5" stroke="black" stroke-width="2" fill="none" />
<polyline points="138.0,71.5,122.0,87.5,110.0,104.0,102.0,120.0,112.0,135.5,128.5,151.5,142.0,167.5,158.0,183.5,172.0,199.5,186.5,215.5" stroke="black" stroke-width="2" fill="none" />
<polyline points="190.0,65.5,168.0,81.5,157.5,91.5,173.5,75.5,189.5,65.5,206.0,64.0,222.0,61.5,226.0,71.5,242.0,74.0,258.0,80.0,274.0,90.5,290.0,92.5,296.0,104.0" stroke="black" stroke-width="2" fill="none" />
<polyline points="231.5,53.0,253.5,63.0,283.5,79.0,303.5,95.5,320.0,112.0,330.0,128.5,340.0,144.5,350.0,160.5,356.0,176.5,366.5,192.5,373.0,208.5,377.0,224.5,380.5,240.5,378.5,256.5,368.5,272.5,360.5,274.5" stroke="black" stroke-width="2" fill="none" />
<polyline points="353.0,272.5,337.0,276.0,321.0,278.0,305.0,281.5,283.0,284.0,255.0,268.0,241.0,252.5,229.0,236.5,217.0,220.5,205.0,204.5,194.5,188.0,182.5,172.0,172.0,155.5,160.0,139.5,147.5,123.5,143.5,107.5,149.0,91.5,163.5,76.0,189.0,60.0" stroke="black" stroke-width="2" fill="none" />
<polyline points="159.0,53.5,133.0,69.5,117.5,85.5,105.5,101.5,96.0,117.0,92.0,133.5,94.0,149.5,84.0,166.0,66.0,182.0,54.0,198.5,48.0,214.5,44.0,231.0,43.5,247.0,41.5,262.5,45.5,278.5,49.5,294.0,58.0,304.0,69.5,310.0,76.0,328.0,92.0,336.0" stroke="black" stroke-width="2" fill="none" />
</svg>