<svg xmlns="http://www.w3.org/2000/svg" width="512mm" height="512mm" viewBox="0 0 512 512" version="1.1"><polyline points="193.5,78.5,187.5,94.5,187.5,110.5" stroke="black" stroke-width="2" fill="none" />
<polyline points="214.0,111.0,214.5,95.0,220.0,85.0,204.0,75.0" stroke="black" stroke-width="2" fill="none" />
<polyline points="194.0,78.5,196.0,82.0,192.0,97.5,192.0,113.5,195.5,121.5,211.5,119.5,229.5,119.0,232.0,123.0,248.5,117.5,264.5,111.5,280.5,117.5,296.5,120.0,312.0,122.0,327.5,125.5,343.5,131.5,360.0,141.5,376.0,153.5,392.0,165.5,406.0,185.5,422.0,205.5,438.0,229.5,454.0,221.5,470.0,215.5,482.0,225.5,506.0,221.5,508.0,226.0" stroke="black" stroke-width="2" fill="none" />
<polyline points="492.0,245.0,492.0,255.0,503.5,269.0" stroke="black" stroke-width="2" fill="none" />
<polyline points="495.5,270.5,479.0,272.0,463.0,274.0" stroke="black" stroke-width="2" fill="none" />
<polyline points="479.0,265.5,461.0,245.5,444.5,239.5" stroke="black" stroke-width="2" fill="none" />
<polyline points="444.5,240.5,450.5,256.5,454.5,262.5,470.5,256.5,476.5,250.5,492.5,244.5,508.0,258.0" stroke="black" stroke-width="2" fill="none" />
<polyline points="482.5,301.5,470.5,286.0,468.5,258.5,460.0,254.5,456.0,240.5,460.5,218.5,464.5,222.5,448.5,228.5" stroke="black" stroke-width="2" fill="none" />
<polyline points="442.5,234.0,458.5,240.0,474.0,244.0,494.0,253.5,510.0,263.5" stroke="black" stroke-width="2" fill="none" />
<polyline points="502.5,325.5,498.5,321.5,482.5,313.5,467.0,303.5,450.5,300.0,434.5,308.0,418.0,322.0,402.0,354.0" stroke="black" stroke-width="2" fill="none" />
<polyline points="407.5,359.0,423.0,327.5,439.0,312.0,454.5,306.0,470.0,312.0,485.5,326.5,507.5,350.5" stroke="black" stroke-width="2" fill="none" />
<polyline points="487.0,368.5,471.5,376.5" stroke="black" stroke-width="2" fill="none" />
<polyline points="469.5,390.5,485.5,404.0" stroke="black" stroke-width="2" fill="none" />
<polyline points="470.5,418.5,470.5,402.5,466.5,395.0" stroke="black" stroke-width="2" fill="none" />
<polyline points="458.0,395.0,473.5,379.5" stroke="black" stroke-width="2" fill="none" />
<polyline points="474.5,421.0,458.5,429.0,454.5,423.0,439.0,422.5,435.0,418.5,428.5,402.0,426.5,385.5,427.0,369.5,433.5,353.0,443.5,336.5,466.0,323.0,450.0,319.0" stroke="black" stroke-width="2" fill="none" />
<polyline points="448.5,317.0,464.5,319.0,480.0,329.5,474.0,343.0,478.0,353.0,488.0,362.5,474.0,380.5,460.5,382.0,472.5,394.0,482.5,409.5,465.0,425.5,475.0,413.5" stroke="black" stroke-width="2" fill="none" />
<polyline points="468.0,450.0,483.5,456.0" stroke="black" stroke-width="2" fill="none" />
<polyline points="448.0,375.0,432.5,371.0" stroke="black" stroke-width="2" fill="none" />
<polyline points="428.0,368.5,444.5,337.0,460.5,327.5,476.5,326.0,488.5,342.5,492.0,352.5,496.5,368.5,494.5,384.5,490.5,400.5" stroke="black" stroke-width="2" fill="none" />
<polyline points="482.5,334.0,464.5,336.0,448.5,342.0" stroke="black" stroke-width="2" fill="none" />
<polyline points="455.0,336.0,453.0,351.5,471.0,359.0,459.0,375.0,455.0,391.0,444.5,407.0,441.0,407.0,441.0,413.0,459.0,387.5,471.0,359.5,485.0,354.0" stroke="black" stroke-width="2" fill="none" />
<polyline points="459.0,337.5,459.0,353.5,473.0,365.5,460.5,393.5,454.0,409.0,448.0,425.0,458.0,433.0,474.0,427.5,486.0,420.0" stroke="black" stroke-width="2" fill="none" />
<polyline points="457.5,444.0,441.5,450.0,425.5,450.5,409.5,440.5,399.5,420.5,383.5,432.0,367.5,438.0,351.5,440.5,336.0,440.0,320.0,436.0,300.5,443.5,308.5,441.5,300.5,421.0,290.0,405.5,282.0,400.0,298.0,384.0,302.0,366.5,286.0,344.5" stroke="black" stroke-width="2" fill="none" />
<polyline points="284.0,351.5,278.0,367.5,286.0,369.0,272.0,385.0,272.0,403.0,284.0,397.0,300.0,381.0" stroke="black" stroke-width="2" fill="none" />
<polyline points="304.5,371.5,288.5,385.5" stroke="black" stroke-width="2" fill="none" />
<polyline points="271.5,386.0,274.0,366.0,280.5,350.0,258.5,363.5" stroke="black" stroke-width="2" fill="none" />
<polyline points="249.5,361.5,265.5,351.5,259.5,357.5,243.5,373.5,266.0,389.5,266.0,407.5,268.0,417.5,263.5,433.0,261.0,431.0" stroke="black" stroke-width="2" fill="none" />
<polyline points="247.5,428.5,263.5,444.5,279.5,449.0" stroke="black" stroke-width="2" fill="none" />
<polyline points="296.0,434.5,280.0,442.5,264.0,440.0,248.0,421.5" stroke="black" stroke-width="2" fill="none" />
<polyline points="255.5,413.5,240.0,411.5" stroke="black" stroke-width="2" fill="none" />
<polyline points="248.0,394.0,264.0,394.0" stroke="black" stroke-width="2" fill="none" />
<polyline points="246.0,376.0,262.0,386.0,288.0,402.0,304.5,412.0" stroke="black" stroke-width="2" fill="none" />
<polyline points="312.0,406.5,313.5,390.0,317.5,374.0,301.5,356.0,281.5,345.5,266.0,345.5" stroke="black" stroke-width="2" fill="none" />
<polyline points="269.0,330.5,289.0,346.0,297.0,362.0,289.0,377.5" stroke="black" stroke-width="2" fill="none" />
<polyline points="260.0,380.0,242.0,380.0" stroke="black" stroke-width="2" fill="none" />
<polyline points="242.0,380.5,244.0,396.0,247.5,412.5,257.5,424.5,264.0,440.5" stroke="black" stroke-width="2" fill="none" />
<polyline points="288.0,423.5,286.5,407.0" stroke="black" stroke-width="2" fill="none" />
<polyline points="259.0,378.0,243.0,374.0" stroke="black" stroke-width="2" fill="none" />
<polyline points="237.5,378.0,253.5,350.0,269.5,338.0,265.5,340.0,249.5,355.5,240.0,371.0,238.0,387.5,238.5,403.5,242.5,419.5,250.5,436.0,274.0,438.0,290.0,430.0,316.5,426.0" stroke="black" stroke-width="2" fill="none" />
<polyline points="311.5,352.5,301.5,336.5,293.5,337.0" stroke="black" stroke-width="2" fill="none" />
<polyline points="284.0,326.0,298.0,342.0,311.5,358.0,303.0,373.5,278.5,387.5,296.5,370.0" stroke="black" stroke-width="2" fill="none" />
<polyline points="321.5,359.5,305.5,331.5,289.5,319.5,273.5,313.5" stroke="black" stroke-width="2" fill="none" />
<polyline points="292.0,316.5,312.0,332.5,324.0,348.0,322.0,364.0,324.0,379.5,318.5,407.0,308.5,423.5,288.5,440.0,292.5,450.5,305.0,428.5,321.0,401.0" stroke="black" stroke-width="2" fill="none" />
<polyline points="357.5,362.0,373.5,360.0" stroke="black" stroke-width="2" fill="none" />
<polyline points="387.0,347.5,370.5,355.5,354.5,357.5" stroke="black" stroke-width="2" fill="none" />
<polyline points="350.5,300.0,334.5,314.5,319.0,294.5" stroke="black" stroke-width="2" fill="none" />
<polyline points="318.0,290.0,334.0,282.5,350.0,278.5,366.0,274.5,358.0,300.5,344.0,316.0" stroke="black" stroke-width="2" fill="none" />
<polyline points="340.5,314.0,354.5,298.5,370.5,282.0,362.5,294.0,346.5,314.0,330.0,316.0,314.0,294.0" stroke="black" stroke-width="2" fill="none" />
<polyline points="312.5,285.5,328.5,279.5,344.5,273.5,360.5,269.0,376.5,265.0,372.5,275.0,332.0,277.0,311.5,293.5,323.5,309.5" stroke="black" stroke-width="2" fill="none" />
<polyline points="317.5,336.5,302.0,320.5,286.5,312.5,270.5,308.0,255.0,307.5,239.0,309.5,223.0,317.5,207.0,331.5,191.0,366.0" stroke="black" stroke-width="2" fill="none" />
<polyline points="193.0,371.5,209.5,338.0,226.0,323.5,242.0,315.0,258.5,311.0,286.5,311.0,302.5,327.0,317.0,343.5,317.0,359.5,328.5,367.0,328.5,383.0,328.5,391.5,324.5,407.0,318.0,422.5,322.0,429.0,338.0,433.0,353.5,433.0,369.0,431.0,384.5,425.0" stroke="black" stroke-width="2" fill="none" />
<polyline points="391.5,430.0,395.5,434.5" stroke="black" stroke-width="2" fill="none" />
<polyline points="405.5,450.5,389.5,450.0,373.5,450.0,357.5,450.0,341.0,448.0,325.0,448.0,309.5,448.0,286.0,460.0,270.0,464.5,253.5,467.0,237.5,465.0,222.0,467.0,206.0,468.5" stroke="black" stroke-width="2" fill="none" />
<polyline points="175.0,416.5,159.0,418.5,143.5,418.5,127.5,414.5,111.5,412.5,95.0,408.5,79.0,404.5,63.0,388.5" stroke="black" stroke-width="2" fill="none" />
<polyline points="61.5,380.0,83.5,396.0" stroke="black" stroke-width="2" fill="none" />
<polyline points="59.0,379.0,75.0,389.0,91.0,399.0,106.5,404.5,122.0,406.0,138.0,408.0,154.0,407.5,170.0,408.0,186.0,404.0" stroke="black" stroke-width="2" fill="none" />
<polyline points="220.0,449.5,203.5,427.5,179.5,399.5,163.5,403.5,147.5,403.5,131.5,401.0,115.5,399.5,99.5,396.0,84.0,388.0,68.0,378.5,52.0,360.0" stroke="black" stroke-width="2" fill="none" />
<polyline points="59.5,371.5,79.5,387.5" stroke="black" stroke-width="2" fill="none" />
<polyline points="54.5,382.0,70.5,406.0,86.5,411.5,102.0,415.0" stroke="black" stroke-width="2" fill="none" />
<polyline points="57.5,404.0,41.5,376.0" stroke="black" stroke-width="2" fill="none" />
<polyline points="43.5,373.0,47.5,389.0,57.5,405.0" stroke="black" stroke-width="2" fill="none" />
<polyline points="55.5,407.0,39.5,383.0" stroke="black" stroke-width="2" fill="none" />
<polyline points="37.0,371.5,37.0,379.5,43.0,396.0" stroke="black" stroke-width="2" fill="none" />
<polyline points="16.0,393.0,32.0,417.0,48.0,429.5,63.5,437.5,79.5,442.0,95.0,434.0,111.0,440.0,127.5,442.5,143.5,442.5,159.5,442.5,175.5,443.0,191.5,442.5" stroke="black" stroke-width="2" fill="none" />
<polyline points="201.5,450.5,186.0,447.0,170.0,447.0,154.0,447.0,137.5,447.0,122.0,447.5,106.0,444.0,83.5,446.0,67.5,446.0,52.0,442.5,36.0,442.5,34.0,438.0,22.0,419.5,14.0,403.5,8.0,387.5,4.0,371.5,5.5,355.5,13.5,339.5,24.0,323.5,40.5,307.0,40.5,283.0,47.0,266.5,43.0,272.5" stroke="black" stroke-width="2" fill="none" />
<polyline points="49.5,270.5,47.5,286.5,39.5,302.5,33.5,326.5,25.5,330.0,18.0,346.0,19.5,352.0,11.5,358.0,9.5,374.0,13.5,390.0,19.5,406.0,33.5,422.0,55.0,438.5" stroke="black" stroke-width="2" fill="none" />
<polyline points="42.5,432.0,26.5,422.5,10.5,394.5" stroke="black" stroke-width="2" fill="none" />
<polyline points="5.5,356.0,21.5,326.0,37.0,306.5,55.0,330.5" stroke="black" stroke-width="2" fill="none" />
<polyline points="48.0,320.5,64.0,332.5,80.5,338.5,96.5,339.0,112.5,337.0,128.5,333.0,144.5,323.0,160.5,315.5,138.5,321.5" stroke="black" stroke-width="2" fill="none" />
<polyline points="139.0,328.5,161.0,312.5" stroke="black" stroke-width="2" fill="none" />
<polyline points="192.0,314.0,176.0,315.5,182.0,301.5,194.5,285.5,198.5,285.0" stroke="black" stroke-width="2" fill="none" />
<polyline points="205.5,281.0,205.5,297.0" stroke="black" stroke-width="2" fill="none" />
<polyline points="217.5,292.0,209.5,294.0,194.0,308.0,200.0,309.5,215.5,293.5,209.5,277.5" stroke="black" stroke-width="2" fill="none" />
<polyline points="208.5,276.0,192.5,282.5,176.5,296.0,160.0,310.0,144.0,318.0,128.0,330.0,112.5,333.5,96.5,336.0,80.5,334.0,64.0,328.5,48.0,316.5,28.0,328.5,12.0,358.0,32.0,340.0,37.5,330.0,21.5,356.0" stroke="black" stroke-width="2" fill="none" />
<polyline points="41.5,334.0,45.5,350.0,49.5,366.0,55.0,382.0,60.5,397.5,88.0,414.0,83.5,430.0,89.5,426.5,95.0,431.0,110.5,419.0,126.5,421.0,142.5,422.5,159.0,422.5,175.5,422.5,191.5,422.5,207.5,442.5" stroke="black" stroke-width="2" fill="none" />
<polyline points="233.0,336.0,219.0,352.0,215.0,357.5,230.5,337.5,254.5,326.0,270.0,330.0,286.5,336.0,302.5,356.0,310.5,352.0" stroke="black" stroke-width="2" fill="none" />
<polyline points="312.0,361.0,304.0,338.5,288.0,328.5,272.0,324.0,256.5,322.0,232.5,330.0,216.5,344.0,210.5,358.0,219.0,341.5,241.0,325.5" stroke="black" stroke-width="2" fill="none" />
<polyline points="245.0,314.5,219.0,330.5,207.0,346.5,199.0,362.0,195.0,378.0,193.0,393.5,191.0,410.0,209.0,434.0,219.0,450.5" stroke="black" stroke-width="2" fill="none" />
<polyline points="243.5,307.5,213.5,323.5,202.0,339.5,194.0,355.5,190.0,371.5,188.0,387.5,194.0,405.5,200.0,421.5,204.0,437.5,209.5,446.0,227.5,468.0,243.5,470.0,259.5,470.0,276.0,467.5,292.5,463.5,292.5,453.5,308.5,455.5,324.5,455.5,340.0,453.5,355.5,455.5,371.5,455.5,387.5,455.5,403.5,455.5,419.5,455.5,436.0,455.5,452.0,455.5,466.0,455.5,481.5,459.0" stroke="black" stroke-width="2" fill="none" />
<polyline points="488.0,426.0,472.0,442.0,460.0,442.0,477.5,424.0,492.0,408.0,497.5,390.0,499.5,374.5,499.5,358.5,493.5,343.0,486.0,327.0,464.0,310.5" stroke="black" stroke-width="2" fill="none" />
<polyline points="458.5,300.5,487.0,316.5,497.0,333.0,503.0,349.5,507.0,365.5,505.0,381.5,503.0,397.5,497.0,413.5,484.5,429.0,464.5,445.0" stroke="black" stroke-width="2" fill="none" />
<polyline points="403.5,435.0,399.5,419.0,403.5,403.0,403.5,387.5,403.5,372.0,407.0,356.5,413.0,340.5,425.0,324.5,442.5,308.5" stroke="black" stroke-width="2" fill="none" />
<polyline points="448.0,299.5,424.5,315.5,412.5,331.5,404.5,348.0,400.5,364.0,398.5,380.0,400.5,396.0,398.5,412.0,380.0,427.5" stroke="black" stroke-width="2" fill="none" />
<polyline points="331.5,309.5,316.5,293.5,344.5,277.5" stroke="black" stroke-width="2" fill="none" />
<polyline points="330.5,226.5,327.0,210.5" stroke="black" stroke-width="2" fill="none" />
<polyline points="322.5,208.5,320.5,224.5" stroke="black" stroke-width="2" fill="none" />
<polyline points="316.0,209.0,332.0,212.5,332.5,216.0,336.5,236.0,353.0,233.5,369.0,233.5,385.5,233.5,401.5,233.5,417.5,231.5,433.5,231.5,450.0,250.0,451.5,267.5,467.0,280.0,482.5,300.0" stroke="black" stroke-width="2" fill="none" />
<polyline points="403.5,209.5,387.0,195.5" stroke="black" stroke-width="2" fill="none" />
<polyline points="393.0,194.0,377.0,188.0" stroke="black" stroke-width="2" fill="none" />
<polyline points="368.0,175.5,384.0,183.5,400.0,188.0,416.5,206.0" stroke="black" stroke-width="2" fill="none" />
<polyline points="397.5,190.5,375.5,182.5,360.0,177.0,344.0,167.0" stroke="black" stroke-width="2" fill="none" />
<polyline points="345.0,164.5,355.0,180.5,377.0,196.0,397.0,212.0" stroke="black" stroke-width="2" fill="none" />
<polyline points="406.0,219.0,390.0,204.5,374.5,193.0,358.5,181.5,342.5,171.0" stroke="black" stroke-width="2" fill="none" />
<polyline points="345.0,170.5,369.0,186.5,391.0,202.0,409.0,217.5" stroke="black" stroke-width="2" fill="none" />
<polyline points="402.0,203.5,381.5,187.5,375.5,173.5,360.0,168.0,344.5,164.0,328.5,167.5" stroke="black" stroke-width="2" fill="none" />
<polyline points="317.5,170.5,295.5,186.5,283.5,202.5,277.5,218.5,275.5,238.5,291.5,238.0,308.0,236.0" stroke="black" stroke-width="2" fill="none" />
<polyline points="316.0,219.5,322.5,203.5" stroke="black" stroke-width="2" fill="none" />
<polyline points="312.0,188.0,312.0,204.0,312.0,220.0" stroke="black" stroke-width="2" fill="none" />
<polyline points="277.5,211.0,293.5,187.0,318.0,163.0,292.0,179.5,280.5,196.0,275.0,212.0,267.0,228.0" stroke="black" stroke-width="2" fill="none" />
<polyline points="242.0,232.5,246.0,217.0,252.0,201.0,257.5,185.0,265.5,169.0,261.5,174.5,245.5,211.0" stroke="black" stroke-width="2" fill="none" />
<polyline points="236.0,217.0,252.5,178.5,261.0,165.0,253.0,181.0,247.5,197.0,240.0,213.5,236.5,229.0" stroke="black" stroke-width="2" fill="none" />
<polyline points="210.0,216.0,215.5,200.0,223.5,184.5,229.5,168.5,241.5,164.5,225.5,190.5" stroke="black" stroke-width="2" fill="none" />
<polyline points="206.5,202.5,208.5,186.5,208.5,170.5,208.5,155.0" stroke="black" stroke-width="2" fill="none" />
<polyline points="214.5,151.5,230.5,151.5,248.5,160.0,234.5,176.0,224.5,198.0,216.5,214.0,204.5,230.0,194.0,244.0" stroke="black" stroke-width="2" fill="none" />
<polyline points="198.5,221.0,182.5,227.5,166.5,229.5,150.0,231.0,134.0,231.0,118.0,221.5,102.0,225.5" stroke="black" stroke-width="2" fill="none" />
<polyline points="92.0,227.0,108.0,193.0,124.5,157.0,140.5,152.5,157.0,150.5,173.0,150.0,189.0,150.0,195.0,159.5,194.5,175.5,194.5,191.5,194.5,207.5,196.5,223.5,215.0,239.5,231.0,237.5,254.5,235.0,270.0,217.5,286.0,187.5,302.5,172.0,318.5,164.5,334.0,163.0,349.5,161.0,366.0,165.0,382.0,172.5,398.0,176.0" stroke="black" stroke-width="2" fill="none" />
<polyline points="412.0,208.5,404.0,192.5,377.5,176.0,352.0,166.0" stroke="black" stroke-width="2" fill="none" />
<polyline points="359.0,163.0,392.5,179.0,413.0,195.0,418.5,211.0,426.5,224.5,432.0,226.5,436.5,242.5,445.0,258.0,453.5,274.0,467.5,289.5,481.5,306.0" stroke="black" stroke-width="2" fill="none" />
<polyline points="337.0,183.5,327.0,185.5,328.5,169.5,312.5,173.5" stroke="black" stroke-width="2" fill="none" />
<polyline points="306.5,182.5,305.0,198.5,307.0,214.5,307.0,230.0" stroke="black" stroke-width="2" fill="none" />
<polyline points="268.0,150.0,252.0,145.5,236.0,145.5,220.0,143.0,203.5,145.5,187.0,143.5,171.5,143.5,155.5,145.5,139.5,145.5,121.5,171.5,105.5,210.0" stroke="black" stroke-width="2" fill="none" />
<polyline points="83.0,208.0,67.0,230.0,51.0,233.5,35.0,243.5,19.0,239.5,17.5,238.0,2.0,236.0" stroke="black" stroke-width="2" fill="none" />
<polyline points="14.0,285.5,30.0,285.5,48.0,291.5" stroke="black" stroke-width="2" fill="none" />
<polyline points="51.0,318.0,77.0,333.5" stroke="black" stroke-width="2" fill="none" />
<polyline points="43.0,323.5,46.5,340.0,51.0,356.0,57.0,372.0,61.0,388.0,77.0,404.0" stroke="black" stroke-width="2" fill="none" />
<polyline points="1.5,328.0,3.0,324.0" stroke="black" stroke-width="2" fill="none" />
<polyline points="57.5,222.5,57.0,246.5,49.0,234.5,30.5,240.0,24.0,248.0,14.0,263.5,9.5,279.5,5.5,279.5,11.5,269.5,21.5,277.0,23.5,259.0,39.5,261.0,52.0,253.0,56.0,239.5,76.5,238.0,85.0,244.0,109.0,252.0,125.0,252.0,141.5,252.0,157.5,252.0,173.5,252.5,189.0,250.5,205.0,242.5" stroke="black" stroke-width="2" fill="none" />
<polyline points="179.0,247.0,163.0,247.0,147.0,247.0,131.0,247.0,115.0,247.0,98.5,251.5,74.5,239.0,88.5,215.0,82.5,225.0" stroke="black" stroke-width="2" fill="none" />
<polyline points="97.5,186.5,87.5,202.5,77.0,218.5,65.0,236.5,56.5,252.0,54.5,268.0,50.5,283.5,45.0,297.5" stroke="black" stroke-width="2" fill="none" />
<polyline points="197.0,276.0,179.0,291.5,167.5,307.5,182.0,295.5,198.5,293.5,212.5,286.0" stroke="black" stroke-width="2" fill="none" />
<polyline points="199.5,217.0,199.5,201.0,199.5,185.5,199.5,169.5,201.5,153.5" stroke="black" stroke-width="2" fill="none" />
<polyline points="202.0,152.5,214.0,158.5,214.0,174.5,214.0,190.0,209.5,205.5,207.5,233.5,217.5,245.0,233.5,241.0,250.0,239.0,266.0,237.0,282.0,231.0,298.0,231.0,323.5,228.5,329.5,234.5,346.0,229.0,362.0,229.0,378.0,227.0,393.5,227.5,410.0,227.5" stroke="black" stroke-width="2" fill="none" />
<polyline points="376.0,162.0,356.0,145.5,324.0,129.5" stroke="black" stroke-width="2" fill="none" />
<polyline points="322.0,123.0,358.0,139.5,378.0,155.5,398.0,159.5,402.0,161.5" stroke="black" stroke-width="2" fill="none" />
<polyline points="263.0,159.0,245.0,158.5,228.5,172.5,226.5,200.0,210.5,221.5,194.5,239.0,178.0,237.5,162.0,238.0,146.0,238.0,130.0,238.5,114.0,236.5,98.0,238.0,98.0,238.0,94.0,221.5,102.0,205.5,110.0,190.0,115.5,173.5,123.5,157.5,125.5,141.5,140.0,125.5,142.0,109.5" stroke="black" stroke-width="2" fill="none" />
<polyline points="140.5,114.5,156.5,112.0,158.5,121.5,176.5,127.5" stroke="black" stroke-width="2" fill="none" />
<polyline points="199.5,126.5,173.5,124.5,157.0,130.5,144.5,128.5,128.5,143.0" stroke="black" stroke-width="2" fill="none" />
<polyline points="132.0,152.5,125.5,168.0,117.5,183.5,111.5,199.5,106.0,216.0,114.0,222.0,112.0,230.0,118.0,232.0" stroke="black" stroke-width="2" fill="none" />
<polyline points="239.0,123.0,255.0,121.5" stroke="black" stroke-width="2" fill="none" />
<polyline points="269.5,116.0,269.0,100.0" stroke="black" stroke-width="2" fill="none" />
<polyline points="265.5,97.0,263.5,113.0,283.5,123.0,299.5,125.5,316.0,128.0,332.0,132.5,348.0,140.5,364.0,150.5,380.0,164.5,390.5,186.5,407.0,200.5,423.0,216.5" stroke="black" stroke-width="2" fill="none" />
<polyline points="219.5,111.5,219.0,95.5,215.0,79.5" stroke="black" stroke-width="2" fill="none" />
</svg>