<?xml version="1.0" encoding="UTF-8"?>
<svg xmlns="http://www.w3.org/2000/svg" xmlns:xlink="http://www.w3.org/1999/xlink" width="1935.11811" height="1935.11811" viewBox="0 0 1935.11811 1935.11811" version="1.1">
<g id="surface1">
<path style="fill:none;stroke-width:2;stroke-linecap:butt;stroke-linejoin:miter;stroke:rgb(0%,0%,0%);stroke-opacity:1;stroke-miterlimit:4;" d="M 193.500334 78.499601 L 187.499666 94.499658 L 187.499666 110.499715 " transform="matrix(3.779528,0,0,3.779528,0,0)"/>
<path style="fill:none;stroke-width:2;stroke-linecap:butt;stroke-linejoin:miter;stroke:rgb(0%,0%,0%);stroke-opacity:1;stroke-miterlimit:4;" d="M 214.000374 110.999943 L 214.499569 94.999886 L 220.000008 85.000496 L 203.999951 75.000073 " transform="matrix(3.779528,0,0,3.779528,0,0)"/>
<path style="fill:none;stroke-width:2;stroke-linecap:butt;stroke-linejoin:miter;stroke:rgb(0%,0%,0%);stroke-opacity:1;stroke-miterlimit:4;" d="M 193.999528 78.499601 L 196.000439 82.000163 L 191.99965 97.499992 L 191.99965 113.500049 L 195.500212 121.499561 L 211.500269 119.499683 L 229.500203 119.000488 L 232.000309 123.000244 L 248.499561 117.499805 L 264.499618 111.500171 L 280.499674 117.499805 L 296.499731 119.99991 L 311.999561 121.999788 L 327.500423 125.50035 L 343.50048 131.499984 L 359.999731 141.500407 L 375.999788 153.499674 L 391.999845 165.499976 L 406.000024 185.499788 L 422.000081 205.499601 L 438.000138 229.500203 L 454.000195 221.499658 L 470.000252 215.500024 L 481.99952 225.500448 L 506.000122 221.499658 L 508 225.999642 " transform="matrix(3.779528,0,0,3.779528,0,0)"/>
<path style="fill:none;stroke-width:2;stroke-linecap:butt;stroke-linejoin:miter;stroke:rgb(0%,0%,0%);stroke-opacity:1;stroke-miterlimit:4;" d="M 491.999943 245.000033 L 491.999943 255.000456 L 503.500016 268.999601 " transform="matrix(3.779528,0,0,3.779528,0,0)"/>
<path style="fill:none;stroke-width:2;stroke-linecap:butt;stroke-linejoin:miter;stroke:rgb(0%,0%,0%);stroke-opacity:1;stroke-miterlimit:4;" d="M 495.500505 270.500285 L 479.00022 271.999935 L 463.000163 273.999813 " transform="matrix(3.779528,0,0,3.779528,0,0)"/>
<path style="fill:none;stroke-width:2;stroke-linecap:butt;stroke-linejoin:miter;stroke:rgb(0%,0%,0%);stroke-opacity:1;stroke-miterlimit:4;" d="M 479.00022 265.500073 L 461.000285 245.50026 L 444.5 239.499593 " transform="matrix(3.779528,0,0,3.779528,0,0)"/>
<path style="fill:none;stroke-width:2;stroke-linecap:butt;stroke-linejoin:miter;stroke:rgb(0%,0%,0%);stroke-opacity:1;stroke-miterlimit:4;" d="M 444.5 240.500049 L 450.499634 256.500106 L 454.500423 262.49974 L 470.50048 256.500106 L 476.500114 250.500472 L 492.500171 244.499805 L 508 257.999756 " transform="matrix(3.779528,0,0,3.779528,0,0)"/>
<path style="fill:none;stroke-width:2;stroke-linecap:butt;stroke-linejoin:miter;stroke:rgb(0%,0%,0%);stroke-opacity:1;stroke-miterlimit:4;" d="M 482.499748 301.499943 L 470.50048 286.000114 L 468.499569 258.499984 L 459.999829 254.500228 L 456.000073 240.500049 L 460.500057 218.500358 L 464.499813 222.500114 L 448.499756 228.499748 " transform="matrix(3.779528,0,0,3.779528,0,0)"/>
<path style="fill:none;stroke-width:2;stroke-linecap:butt;stroke-linejoin:miter;stroke:rgb(0%,0%,0%);stroke-opacity:1;stroke-miterlimit:4;" d="M 442.500122 234.000187 L 458.500179 239.999821 L 474.000008 243.999577 L 493.999821 253.499772 L 509.999878 263.500195 " transform="matrix(3.779528,0,0,3.779528,0,0)"/>
<path style="fill:none;stroke-width:2;stroke-linecap:butt;stroke-linejoin:miter;stroke:rgb(0%,0%,0%);stroke-opacity:1;stroke-miterlimit:4;" d="M 502.499561 325.499512 L 498.499805 321.499756 L 482.499748 313.500244 L 466.999919 303.499821 L 450.499634 300.000293 L 434.499577 307.999805 L 418.000326 321.999984 L 402.000269 354.000098 " transform="matrix(3.779528,0,0,3.779528,0,0)"/>
<path style="fill:none;stroke-width:2;stroke-linecap:butt;stroke-linejoin:miter;stroke:rgb(0%,0%,0%);stroke-opacity:1;stroke-miterlimit:4;" d="M 407.499674 359.000309 L 422.999504 327.500423 L 438.999561 311.999561 L 454.500423 305.999927 L 470.000252 311.999561 L 485.500081 326.499967 L 507.499772 350.499536 " transform="matrix(3.779528,0,0,3.779528,0,0)"/>
<path style="fill:none;stroke-width:2;stroke-linecap:butt;stroke-linejoin:miter;stroke:rgb(0%,0%,0%);stroke-opacity:1;stroke-miterlimit:4;" d="M 486.999731 368.500505 L 471.499902 376.500016 " transform="matrix(3.779528,0,0,3.779528,0,0)"/>
<path style="fill:none;stroke-width:2;stroke-linecap:butt;stroke-linejoin:miter;stroke:rgb(0%,0%,0%);stroke-opacity:1;stroke-miterlimit:4;" d="M 469.500024 390.500195 L 485.500081 404.000146 " transform="matrix(3.779528,0,0,3.779528,0,0)"/>
<path style="fill:none;stroke-width:2;stroke-linecap:butt;stroke-linejoin:miter;stroke:rgb(0%,0%,0%);stroke-opacity:1;stroke-miterlimit:4;" d="M 470.50048 418.49952 L 470.50048 402.500496 L 466.499691 395.000179 " transform="matrix(3.779528,0,0,3.779528,0,0)"/>
<path style="fill:none;stroke-width:2;stroke-linecap:butt;stroke-linejoin:miter;stroke:rgb(0%,0%,0%);stroke-opacity:1;stroke-miterlimit:4;" d="M 457.999951 395.000179 L 473.49978 379.50035 " transform="matrix(3.779528,0,0,3.779528,0,0)"/>
<path style="fill:none;stroke-width:2;stroke-linecap:butt;stroke-linejoin:miter;stroke:rgb(0%,0%,0%);stroke-opacity:1;stroke-miterlimit:4;" d="M 474.500236 420.999626 L 458.500179 429.000171 L 454.500423 422.999504 L 438.999561 422.500309 L 434.999805 418.49952 L 428.499943 402.000269 L 426.500065 385.499984 L 427.000293 369.499927 L 433.500155 352.999642 L 443.499544 336.500391 L 466.000496 323.000439 L 450.000439 318.99965 " transform="matrix(3.779528,0,0,3.779528,0,0)"/>
<path style="fill:none;stroke-width:2;stroke-linecap:butt;stroke-linejoin:miter;stroke:rgb(0%,0%,0%);stroke-opacity:1;stroke-miterlimit:4;" d="M 448.499756 316.999772 L 464.499813 318.99965 L 479.999642 329.500301 L 474.000008 343.000252 L 477.999764 352.999642 L 488.000187 362.499837 L 474.000008 380.499772 L 460.500057 382.000456 L 472.500358 393.999723 L 482.499748 409.499552 L 465.000041 425.499609 L 475.000464 413.500342 " transform="matrix(3.779528,0,0,3.779528,0,0)"/>
<path style="fill:none;stroke-width:2;stroke-linecap:butt;stroke-linejoin:miter;stroke:rgb(0%,0%,0%);stroke-opacity:1;stroke-miterlimit:4;" d="M 468.000374 450.000439 L 483.500203 456.000073 " transform="matrix(3.779528,0,0,3.779528,0,0)"/>
<path style="fill:none;stroke-width:2;stroke-linecap:butt;stroke-linejoin:miter;stroke:rgb(0%,0%,0%);stroke-opacity:1;stroke-miterlimit:4;" d="M 447.999528 375.000366 L 432.499699 370.999577 " transform="matrix(3.779528,0,0,3.779528,0,0)"/>
<path style="fill:none;stroke-width:2;stroke-linecap:butt;stroke-linejoin:miter;stroke:rgb(0%,0%,0%);stroke-opacity:1;stroke-miterlimit:4;" d="M 427.999715 368.500505 L 444.5 336.999585 L 460.500057 327.500423 L 476.500114 325.99974 L 488.500415 342.500024 L 491.999943 352.500448 L 496.499927 368.500505 L 494.500049 384.499528 L 490.500293 400.499585 " transform="matrix(3.779528,0,0,3.779528,0,0)"/>
<path style="fill:none;stroke-width:2;stroke-linecap:butt;stroke-linejoin:miter;stroke:rgb(0%,0%,0%);stroke-opacity:1;stroke-miterlimit:4;" d="M 482.499748 334.000285 L 464.499813 336.000163 L 448.499756 341.999797 " transform="matrix(3.779528,0,0,3.779528,0,0)"/>
<path style="fill:none;stroke-width:2;stroke-linecap:butt;stroke-linejoin:miter;stroke:rgb(0%,0%,0%);stroke-opacity:1;stroke-miterlimit:4;" d="M 454.999618 336.000163 L 452.99974 351.499992 L 470.999674 359.000309 L 459.000407 375.000366 L 454.999618 391.000423 L 444.5 407.00048 L 441.000472 407.00048 L 441.000472 413.000114 L 459.000407 387.499862 L 470.999674 359.499504 L 484.999854 354.000098 " transform="matrix(3.779528,0,0,3.779528,0,0)"/>
<path style="fill:none;stroke-width:2;stroke-linecap:butt;stroke-linejoin:miter;stroke:rgb(0%,0%,0%);stroke-opacity:1;stroke-miterlimit:4;" d="M 459.000407 337.499813 L 459.000407 353.49987 L 472.999552 365.500171 L 460.500057 393.499495 L 454.000195 409.000358 L 447.999528 425.000415 L 457.999951 432.999927 L 474.000008 427.499487 L 486.000309 420.000203 " transform="matrix(3.779528,0,0,3.779528,0,0)"/>
<path style="fill:none;stroke-width:2;stroke-linecap:butt;stroke-linejoin:miter;stroke:rgb(0%,0%,0%);stroke-opacity:1;stroke-miterlimit:4;" d="M 457.499723 443.999772 L 441.499666 450.000439 L 425.499609 450.499634 L 409.499552 440.500244 L 399.500163 420.500431 L 383.500106 432.000505 L 367.500049 438.000138 L 351.499992 440.500244 L 336.000163 440.000016 L 320.000106 436.00026 L 300.499487 443.499544 L 308.500033 441.499666 L 300.499487 420.999626 L 289.99987 405.499797 L 282.000358 400.000391 L 298.000415 384.000334 L 302.000171 366.499593 L 286.000114 344.499902 " transform="matrix(3.779528,0,0,3.779528,0,0)"/>
<path style="fill:none;stroke-width:2;stroke-linecap:butt;stroke-linejoin:miter;stroke:rgb(0%,0%,0%);stroke-opacity:1;stroke-miterlimit:4;" d="M 284.000236 351.499992 L 277.999569 367.500049 L 286.000114 368.999699 L 271.999935 384.999756 L 271.999935 402.999691 L 284.000236 397.000057 L 300.000293 381 " transform="matrix(3.779528,0,0,3.779528,0,0)"/>
<path style="fill:none;stroke-width:2;stroke-linecap:butt;stroke-linejoin:miter;stroke:rgb(0%,0%,0%);stroke-opacity:1;stroke-miterlimit:4;" d="M 304.500277 371.499805 L 288.50022 385.499984 " transform="matrix(3.779528,0,0,3.779528,0,0)"/>
<path style="fill:none;stroke-width:2;stroke-linecap:butt;stroke-linejoin:miter;stroke:rgb(0%,0%,0%);stroke-opacity:1;stroke-miterlimit:4;" d="M 271.499707 386.000212 L 273.999813 366.000399 L 280.499674 350.000342 L 258.499984 363.500293 " transform="matrix(3.779528,0,0,3.779528,0,0)"/>
<path style="fill:none;stroke-width:2;stroke-linecap:butt;stroke-linejoin:miter;stroke:rgb(0%,0%,0%);stroke-opacity:1;stroke-miterlimit:4;" d="M 249.500016 361.500415 L 265.500073 351.499992 L 243.500382 373.499683 L 266.000301 389.49974 L 266.000301 407.499674 L 268.000179 417.500098 L 263.500195 432.999927 L 261.00009 431.000049 " transform="matrix(3.779528,0,0,3.779528,0,0)"/>
<path style="fill:none;stroke-width:2;stroke-linecap:butt;stroke-linejoin:miter;stroke:rgb(0%,0%,0%);stroke-opacity:1;stroke-miterlimit:4;" d="M 247.500138 428.499943 L 263.500195 444.5 L 279.500252 448.999984 " transform="matrix(3.779528,0,0,3.779528,0,0)"/>
<path style="fill:none;stroke-width:2;stroke-linecap:butt;stroke-linejoin:miter;stroke:rgb(0%,0%,0%);stroke-opacity:1;stroke-miterlimit:4;" d="M 295.999504 434.499577 L 280.00048 442.500122 L 264.000423 440.000016 L 248.000366 421.499854 " transform="matrix(3.779528,0,0,3.779528,0,0)"/>
<path style="fill:none;stroke-width:2;stroke-linecap:butt;stroke-linejoin:miter;stroke:rgb(0%,0%,0%);stroke-opacity:1;stroke-miterlimit:4;" d="M 255.49965 413.500342 L 239.999821 411.500464 " transform="matrix(3.779528,0,0,3.779528,0,0)"/>
<path style="fill:none;stroke-width:2;stroke-linecap:butt;stroke-linejoin:miter;stroke:rgb(0%,0%,0%);stroke-opacity:1;stroke-miterlimit:4;" d="M 248.000366 393.999723 L 264.000423 393.999723 " transform="matrix(3.779528,0,0,3.779528,0,0)"/>
<path style="fill:none;stroke-width:2;stroke-linecap:butt;stroke-linejoin:miter;stroke:rgb(0%,0%,0%);stroke-opacity:1;stroke-miterlimit:4;" d="M 246.000488 375.999788 L 261.999512 386.000212 L 287.999992 402.000269 L 304.500277 411.999658 " transform="matrix(3.779528,0,0,3.779528,0,0)"/>
<path style="fill:none;stroke-width:2;stroke-linecap:butt;stroke-linejoin:miter;stroke:rgb(0%,0%,0%);stroke-opacity:1;stroke-miterlimit:4;" d="M 311.999561 406.500252 L 313.500244 389.999967 L 317.5 373.99991 L 301.499943 355.999976 L 281.50013 345.500358 L 266.000301 345.500358 " transform="matrix(3.779528,0,0,3.779528,0,0)"/>
<path style="fill:none;stroke-width:2;stroke-linecap:butt;stroke-linejoin:miter;stroke:rgb(0%,0%,0%);stroke-opacity:1;stroke-miterlimit:4;" d="M 268.999601 330.499723 L 289.000448 345.999552 L 296.999959 361.999609 L 289.000448 377.500472 " transform="matrix(3.779528,0,0,3.779528,0,0)"/>
<path style="fill:none;stroke-width:2;stroke-linecap:butt;stroke-linejoin:miter;stroke:rgb(0%,0%,0%);stroke-opacity:1;stroke-miterlimit:4;" d="M 259.999634 379.999544 L 241.999699 379.999544 " transform="matrix(3.779528,0,0,3.779528,0,0)"/>
<path style="fill:none;stroke-width:2;stroke-linecap:butt;stroke-linejoin:miter;stroke:rgb(0%,0%,0%);stroke-opacity:1;stroke-miterlimit:4;" d="M 241.999699 380.499772 L 243.999577 395.999601 L 247.500138 412.499886 L 257.499528 424.500187 L 264.000423 440.500244 " transform="matrix(3.779528,0,0,3.779528,0,0)"/>
<path style="fill:none;stroke-width:2;stroke-linecap:butt;stroke-linejoin:miter;stroke:rgb(0%,0%,0%);stroke-opacity:1;stroke-miterlimit:4;" d="M 287.999992 423.499731 L 286.500342 407.00048 " transform="matrix(3.779528,0,0,3.779528,0,0)"/>
<path style="fill:none;stroke-width:2;stroke-linecap:butt;stroke-linejoin:miter;stroke:rgb(0%,0%,0%);stroke-opacity:1;stroke-miterlimit:4;" d="M 259.000212 377.999666 L 243.000155 373.99991 " transform="matrix(3.779528,0,0,3.779528,0,0)"/>
<path style="fill:none;stroke-width:2;stroke-linecap:butt;stroke-linejoin:miter;stroke:rgb(0%,0%,0%);stroke-opacity:1;stroke-miterlimit:4;" d="M 237.499715 377.999666 L 253.499772 350.000342 L 269.499829 338.000041 L 265.500073 339.999919 L 249.500016 355.499748 L 239.999821 370.999577 L 237.999943 387.499862 L 238.500171 403.499919 L 242.499927 419.499976 L 250.500472 436.00026 L 273.999813 438.000138 L 289.99987 429.999593 L 316.499544 425.999837 " transform="matrix(3.779528,0,0,3.779528,0,0)"/>
<path style="fill:none;stroke-width:2;stroke-linecap:butt;stroke-linejoin:miter;stroke:rgb(0%,0%,0%);stroke-opacity:1;stroke-miterlimit:4;" d="M 311.500366 352.500448 L 301.499943 336.500391 L 293.500431 336.999585 " transform="matrix(3.779528,0,0,3.779528,0,0)"/>
<path style="fill:none;stroke-width:2;stroke-linecap:butt;stroke-linejoin:miter;stroke:rgb(0%,0%,0%);stroke-opacity:1;stroke-miterlimit:4;" d="M 284.000236 325.99974 L 298.000415 341.999797 L 311.500366 357.999854 L 302.999593 373.499683 L 278.499797 387.499862 L 296.499731 370.000155 " transform="matrix(3.779528,0,0,3.779528,0,0)"/>
<path style="fill:none;stroke-width:2;stroke-linecap:butt;stroke-linejoin:miter;stroke:rgb(0%,0%,0%);stroke-opacity:1;stroke-miterlimit:4;" d="M 321.499756 359.499504 L 305.499699 331.500179 L 289.499642 319.499878 L 273.499585 313.500244 " transform="matrix(3.779528,0,0,3.779528,0,0)"/>
<path style="fill:none;stroke-width:2;stroke-linecap:butt;stroke-linejoin:miter;stroke:rgb(0%,0%,0%);stroke-opacity:1;stroke-miterlimit:4;" d="M 291.999748 316.499544 L 311.999561 332.499601 L 323.999862 348.000464 L 321.999984 363.999487 L 323.999862 379.50035 L 318.500456 407.00048 L 308.500033 423.499731 L 288.50022 440.000016 L 292.499976 450.499634 L 305.000505 428.499943 L 320.999528 400.999813 " transform="matrix(3.779528,0,0,3.779528,0,0)"/>
<path style="fill:none;stroke-width:2;stroke-linecap:butt;stroke-linejoin:miter;stroke:rgb(0%,0%,0%);stroke-opacity:1;stroke-miterlimit:4;" d="M 357.499626 361.999609 L 373.499683 359.999731 " transform="matrix(3.779528,0,0,3.779528,0,0)"/>
<path style="fill:none;stroke-width:2;stroke-linecap:butt;stroke-linejoin:miter;stroke:rgb(0%,0%,0%);stroke-opacity:1;stroke-miterlimit:4;" d="M 386.999634 347.500236 L 370.500382 355.499748 L 354.500326 357.499626 " transform="matrix(3.779528,0,0,3.779528,0,0)"/>
<path style="fill:none;stroke-width:2;stroke-linecap:butt;stroke-linejoin:miter;stroke:rgb(0%,0%,0%);stroke-opacity:1;stroke-miterlimit:4;" d="M 350.499536 300.000293 L 334.500513 314.499666 L 318.99965 294.499854 " transform="matrix(3.779528,0,0,3.779528,0,0)"/>
<path style="fill:none;stroke-width:2;stroke-linecap:butt;stroke-linejoin:miter;stroke:rgb(0%,0%,0%);stroke-opacity:1;stroke-miterlimit:4;" d="M 318.000228 289.99987 L 334.000285 282.499552 L 366.000399 274.500041 L 357.999854 300.499487 L 343.999674 316.00035 " transform="matrix(3.779528,0,0,3.779528,0,0)"/>
<path style="fill:none;stroke-width:2;stroke-linecap:butt;stroke-linejoin:miter;stroke:rgb(0%,0%,0%);stroke-opacity:1;stroke-miterlimit:4;" d="M 340.500146 314.000472 L 354.500326 298.499609 L 370.500382 282.000358 L 362.499837 293.999626 L 346.49978 314.000472 L 329.999495 316.00035 L 314.000472 293.999626 " transform="matrix(3.779528,0,0,3.779528,0,0)"/>
<path style="fill:none;stroke-width:2;stroke-linecap:butt;stroke-linejoin:miter;stroke:rgb(0%,0%,0%);stroke-opacity:1;stroke-miterlimit:4;" d="M 312.499788 285.499886 L 328.499845 279.500252 L 344.499902 273.499585 L 360.499959 268.999601 L 376.500016 264.999845 L 372.50026 275.000269 L 332.000407 277.000146 L 311.500366 293.500431 L 323.499634 309.500488 " transform="matrix(3.779528,0,0,3.779528,0,0)"/>
<path style="fill:none;stroke-width:2;stroke-linecap:butt;stroke-linejoin:miter;stroke:rgb(0%,0%,0%);stroke-opacity:1;stroke-miterlimit:4;" d="M 317.5 336.500391 L 302.000171 320.500334 L 286.500342 312.499788 L 270.500285 307.999805 L 255.000456 307.499577 L 239.000399 309.500488 L 223.000342 317.5 L 207.000285 331.500179 L 191.000228 366.000399 " transform="matrix(3.779528,0,0,3.779528,0,0)"/>
<path style="fill:none;stroke-width:2;stroke-linecap:butt;stroke-linejoin:miter;stroke:rgb(0%,0%,0%);stroke-opacity:1;stroke-miterlimit:4;" d="M 193.000106 371.499805 L 209.500391 338.000041 L 225.999642 323.499634 L 241.999699 314.999894 L 258.499984 311.000138 L 286.500342 311.000138 L 302.500399 327.000195 L 316.999772 343.50048 L 316.999772 359.499504 L 328.499845 366.999821 L 328.499845 391.499618 L 324.50009 407.00048 L 318.000228 422.500309 L 321.999984 429.000171 L 338.000041 432.999927 L 353.49987 432.999927 L 368.999699 431.000049 L 384.499528 425.000415 " transform="matrix(3.779528,0,0,3.779528,0,0)"/>
<path style="fill:none;stroke-width:2;stroke-linecap:butt;stroke-linejoin:miter;stroke:rgb(0%,0%,0%);stroke-opacity:1;stroke-miterlimit:4;" d="M 391.499618 429.999593 L 395.500407 434.499577 " transform="matrix(3.779528,0,0,3.779528,0,0)"/>
<path style="fill:none;stroke-width:2;stroke-linecap:butt;stroke-linejoin:miter;stroke:rgb(0%,0%,0%);stroke-opacity:1;stroke-miterlimit:4;" d="M 405.499797 450.499634 L 389.49974 450.000439 L 357.499626 450.000439 L 341.000374 447.999528 L 309.500488 447.999528 L 286.000114 459.999829 L 270.000057 464.499813 L 253.499772 466.999919 L 237.499715 465.000041 L 221.999886 466.999919 L 205.999829 468.499569 " transform="matrix(3.779528,0,0,3.779528,0,0)"/>
<path style="fill:none;stroke-width:2;stroke-linecap:butt;stroke-linejoin:miter;stroke:rgb(0%,0%,0%);stroke-opacity:1;stroke-miterlimit:4;" d="M 175.000171 416.499642 L 159.000114 418.49952 L 143.500285 418.49952 L 127.500228 414.499764 L 111.500171 412.499886 L 94.999886 408.50013 L 78.999829 404.500374 L 62.999772 388.500317 " transform="matrix(3.779528,0,0,3.779528,0,0)"/>
<path style="fill:none;stroke-width:2;stroke-linecap:butt;stroke-linejoin:miter;stroke:rgb(0%,0%,0%);stroke-opacity:1;stroke-miterlimit:4;" d="M 61.500122 379.999544 L 83.499813 395.999601 " transform="matrix(3.779528,0,0,3.779528,0,0)"/>
<path style="fill:none;stroke-width:2;stroke-linecap:butt;stroke-linejoin:miter;stroke:rgb(0%,0%,0%);stroke-opacity:1;stroke-miterlimit:4;" d="M 59.000016 379.000122 L 75.000073 388.999512 L 91.00013 398.999935 L 106.499959 404.500374 L 121.999788 406.000024 L 137.999845 407.999902 L 153.999902 407.499674 L 169.999959 407.999902 L 186.000016 404.000146 " transform="matrix(3.779528,0,0,3.779528,0,0)"/>
<path style="fill:none;stroke-width:2;stroke-linecap:butt;stroke-linejoin:miter;stroke:rgb(0%,0%,0%);stroke-opacity:1;stroke-miterlimit:4;" d="M 220.000008 449.500212 L 203.499723 427.499487 L 179.500155 399.500163 L 163.500098 403.499919 L 147.500041 403.499919 L 131.499984 400.999813 L 115.499927 399.500163 L 99.49987 395.999601 L 84.000041 388.00009 L 67.999984 378.499894 L 51.999927 359.999731 " transform="matrix(3.779528,0,0,3.779528,0,0)"/>
<path style="fill:none;stroke-width:2;stroke-linecap:butt;stroke-linejoin:miter;stroke:rgb(0%,0%,0%);stroke-opacity:1;stroke-miterlimit:4;" d="M 59.500244 371.499805 L 79.500057 387.499862 " transform="matrix(3.779528,0,0,3.779528,0,0)"/>
<path style="fill:none;stroke-width:2;stroke-linecap:butt;stroke-linejoin:miter;stroke:rgb(0%,0%,0%);stroke-opacity:1;stroke-miterlimit:4;" d="M 54.500033 382.000456 L 70.50009 406.000024 L 86.500146 411.500464 L 101.999976 414.999992 " transform="matrix(3.779528,0,0,3.779528,0,0)"/>
<path style="fill:none;stroke-width:2;stroke-linecap:butt;stroke-linejoin:miter;stroke:rgb(0%,0%,0%);stroke-opacity:1;stroke-miterlimit:4;" d="M 57.500366 404.000146 L 41.500309 375.999788 " transform="matrix(3.779528,0,0,3.779528,0,0)"/>
<path style="fill:none;stroke-width:2;stroke-linecap:butt;stroke-linejoin:miter;stroke:rgb(0%,0%,0%);stroke-opacity:1;stroke-miterlimit:4;" d="M 43.500187 373.000488 L 47.499943 388.999512 L 57.500366 404.999569 " transform="matrix(3.779528,0,0,3.779528,0,0)"/>
<path style="fill:none;stroke-width:2;stroke-linecap:butt;stroke-linejoin:miter;stroke:rgb(0%,0%,0%);stroke-opacity:1;stroke-miterlimit:4;" d="M 55.500488 407.00048 L 39.500431 382.999878 " transform="matrix(3.779528,0,0,3.779528,0,0)"/>
<path style="fill:none;stroke-width:2;stroke-linecap:butt;stroke-linejoin:miter;stroke:rgb(0%,0%,0%);stroke-opacity:1;stroke-miterlimit:4;" d="M 37.000326 371.499805 L 37.000326 379.50035 L 42.999959 395.999601 " transform="matrix(3.779528,0,0,3.779528,0,0)"/>
<path style="fill:none;stroke-width:2;stroke-linecap:butt;stroke-linejoin:miter;stroke:rgb(0%,0%,0%);stroke-opacity:1;stroke-miterlimit:4;" d="M 16.000057 393.000301 L 32.000114 416.99987 L 48.000171 429.500399 L 63.5 437.49991 L 79.500057 441.999894 L 94.999886 434.000382 L 110.999943 440.000016 L 127.500228 442.500122 L 159.500342 442.500122 L 175.500399 443.00035 L 191.500456 442.500122 " transform="matrix(3.779528,0,0,3.779528,0,0)"/>
<path style="fill:none;stroke-width:2;stroke-linecap:butt;stroke-linejoin:miter;stroke:rgb(0%,0%,0%);stroke-opacity:1;stroke-miterlimit:4;" d="M 201.499845 450.499634 L 186.000016 447.000106 L 137.499618 447.000106 L 121.999788 447.500334 L 105.999731 443.999772 L 83.499813 445.99965 L 67.499756 445.99965 L 51.999927 442.500122 L 35.99987 442.500122 L 33.999992 438.000138 L 21.999691 419.499976 L 14.000179 403.499919 L 7.999512 387.499862 L 3.999756 371.499805 L 5.500439 355.499748 L 13.499951 339.499691 L 23.999569 323.499634 L 40.499854 307.000382 L 40.499854 282.99978 L 46.999715 266.499495 L 42.999959 272.500163 " transform="matrix(3.779528,0,0,3.779528,0,0)"/>
<path style="fill:none;stroke-width:2;stroke-linecap:butt;stroke-linejoin:miter;stroke:rgb(0%,0%,0%);stroke-opacity:1;stroke-miterlimit:4;" d="M 49.499821 270.500285 L 47.499943 286.500342 L 39.500431 302.500399 L 33.499764 326.499967 L 25.500252 329.999495 L 17.999935 345.999552 L 19.499585 352.00022 L 11.500073 357.999854 L 9.500195 373.99991 L 13.499951 389.999967 L 19.499585 406.000024 L 33.499764 422.000081 L 55.00026 438.500366 " transform="matrix(3.779528,0,0,3.779528,0,0)"/>
<path style="fill:none;stroke-width:2;stroke-linecap:butt;stroke-linejoin:miter;stroke:rgb(0%,0%,0%);stroke-opacity:1;stroke-miterlimit:4;" d="M 42.499731 432.000505 L 26.499674 422.500309 L 10.499618 394.499951 " transform="matrix(3.779528,0,0,3.779528,0,0)"/>
<path style="fill:none;stroke-width:2;stroke-linecap:butt;stroke-linejoin:miter;stroke:rgb(0%,0%,0%);stroke-opacity:1;stroke-miterlimit:4;" d="M 5.500439 355.999976 L 21.500496 325.99974 L 37.000326 306.500155 L 55.00026 330.499723 " transform="matrix(3.779528,0,0,3.779528,0,0)"/>
<path style="fill:none;stroke-width:2;stroke-linecap:butt;stroke-linejoin:miter;stroke:rgb(0%,0%,0%);stroke-opacity:1;stroke-miterlimit:4;" d="M 48.000171 320.500334 L 64.000228 332.499601 L 80.500513 338.500269 L 96.499536 339.000496 L 112.499593 336.999585 L 128.49965 332.999829 L 144.499707 323.000439 L 160.499764 315.500122 L 138.500073 321.499756 " transform="matrix(3.779528,0,0,3.779528,0,0)"/>
<path style="fill:none;stroke-width:2;stroke-linecap:butt;stroke-linejoin:miter;stroke:rgb(0%,0%,0%);stroke-opacity:1;stroke-miterlimit:4;" d="M 139.000301 328.499845 L 160.999992 312.499788 " transform="matrix(3.779528,0,0,3.779528,0,0)"/>
<path style="fill:none;stroke-width:2;stroke-linecap:butt;stroke-linejoin:miter;stroke:rgb(0%,0%,0%);stroke-opacity:1;stroke-miterlimit:4;" d="M 191.99965 314.000472 L 175.999593 315.500122 L 182.00026 301.499943 L 194.499756 285.499886 L 198.499512 284.999658 " transform="matrix(3.779528,0,0,3.779528,0,0)"/>
<path style="fill:none;stroke-width:2;stroke-linecap:butt;stroke-linejoin:miter;stroke:rgb(0%,0%,0%);stroke-opacity:1;stroke-miterlimit:4;" d="M 205.499601 280.999902 L 205.499601 296.999959 " transform="matrix(3.779528,0,0,3.779528,0,0)"/>
<path style="fill:none;stroke-width:2;stroke-linecap:butt;stroke-linejoin:miter;stroke:rgb(0%,0%,0%);stroke-opacity:1;stroke-miterlimit:4;" d="M 217.499902 291.999748 L 209.500391 293.999626 L 193.999528 307.999805 L 200.000195 309.500488 L 215.500024 293.500431 L 209.500391 277.500374 " transform="matrix(3.779528,0,0,3.779528,0,0)"/>
<path style="fill:none;stroke-width:2;stroke-linecap:butt;stroke-linejoin:miter;stroke:rgb(0%,0%,0%);stroke-opacity:1;stroke-miterlimit:4;" d="M 208.499935 275.999691 L 192.499878 282.499552 L 176.499821 295.999504 L 159.999536 309.999683 L 144.000513 318.000228 L 128.000456 329.999495 L 112.499593 333.500057 L 96.499536 336.000163 L 80.500513 334.000285 L 64.000228 328.499845 L 48.000171 316.499544 L 28.000358 328.499845 L 12.000301 357.999854 L 32.000114 339.999919 L 37.49952 329.999495 L 21.500496 355.999976 " transform="matrix(3.779528,0,0,3.779528,0,0)"/>
<path style="fill:none;stroke-width:2;stroke-linecap:butt;stroke-linejoin:miter;stroke:rgb(0%,0%,0%);stroke-opacity:1;stroke-miterlimit:4;" d="M 41.500309 334.000285 L 49.499821 366.000399 L 55.00026 382.000456 L 60.499666 397.500285 L 87.999797 413.999536 L 83.499813 429.999593 L 89.50048 426.500065 L 94.999886 431.000049 L 110.499715 418.999748 L 126.499772 420.999626 L 142.499829 422.500309 L 191.500456 422.500309 L 207.500513 442.500122 " transform="matrix(3.779528,0,0,3.779528,0,0)"/>
<path style="fill:none;stroke-width:2;stroke-linecap:butt;stroke-linejoin:miter;stroke:rgb(0%,0%,0%);stroke-opacity:1;stroke-miterlimit:4;" d="M 232.999731 336.000163 L 218.999552 352.00022 L 214.999797 357.499626 L 230.499626 337.499813 L 254.500228 325.99974 L 270.000057 329.999495 L 286.500342 336.000163 L 302.500399 355.999976 L 310.49991 352.00022 " transform="matrix(3.779528,0,0,3.779528,0,0)"/>
<path style="fill:none;stroke-width:2;stroke-linecap:butt;stroke-linejoin:miter;stroke:rgb(0%,0%,0%);stroke-opacity:1;stroke-miterlimit:4;" d="M 311.999561 361.000187 L 304.000049 338.500269 L 287.999992 328.499845 L 271.999935 323.999862 L 256.500106 321.999984 L 232.499504 329.999495 L 216.50048 343.999674 L 210.499813 357.999854 L 218.999552 341.499569 L 241.000277 325.499512 " transform="matrix(3.779528,0,0,3.779528,0,0)"/>
<path style="fill:none;stroke-width:2;stroke-linecap:butt;stroke-linejoin:miter;stroke:rgb(0%,0%,0%);stroke-opacity:1;stroke-miterlimit:4;" d="M 245.000033 314.499666 L 218.999552 330.499723 L 207.000285 346.49978 L 198.99974 361.999609 L 194.999984 377.999666 L 193.000106 393.499495 L 191.000228 409.99978 L 209.000163 434.000382 L 218.999552 450.499634 " transform="matrix(3.779528,0,0,3.779528,0,0)"/>
<path style="fill:none;stroke-width:2;stroke-linecap:butt;stroke-linejoin:miter;stroke:rgb(0%,0%,0%);stroke-opacity:1;stroke-miterlimit:4;" d="M 243.500382 307.499577 L 213.500146 323.499634 L 202.000073 339.499691 L 193.999528 355.499748 L 189.999772 371.499805 L 187.999894 387.499862 L 193.999528 405.499797 L 200.000195 421.499854 L 203.999951 437.49991 L 209.500391 445.99965 L 227.500326 468.000374 L 243.500382 470.000252 L 259.500439 470.000252 L 275.999691 467.500146 L 292.499976 463.500391 L 292.499976 453.499967 L 308.500033 455.499845 L 324.50009 455.499845 L 339.999919 453.499967 L 355.499748 455.499845 L 466.000496 455.499845 L 481.500326 459.000407 " transform="matrix(3.779528,0,0,3.779528,0,0)"/>
<path style="fill:none;stroke-width:2;stroke-linecap:butt;stroke-linejoin:miter;stroke:rgb(0%,0%,0%);stroke-opacity:1;stroke-miterlimit:4;" d="M 488.000187 425.999837 L 472.00013 441.999894 L 459.999829 441.999894 L 477.499536 423.999959 L 491.999943 407.999902 L 497.500382 389.999967 L 499.50026 374.500138 L 499.50026 358.500081 L 493.499593 343.000252 L 486.000309 327.000195 L 463.999585 310.49991 " transform="matrix(3.779528,0,0,3.779528,0,0)"/>
<path style="fill:none;stroke-width:2;stroke-linecap:butt;stroke-linejoin:miter;stroke:rgb(0%,0%,0%);stroke-opacity:1;stroke-miterlimit:4;" d="M 458.500179 300.499487 L 486.999731 316.499544 L 497.000155 332.999829 L 502.999788 349.500114 L 506.999544 365.500171 L 502.999788 397.500285 L 497.000155 413.500342 L 484.499626 429.000171 L 464.499813 445.000228 " transform="matrix(3.779528,0,0,3.779528,0,0)"/>
<path style="fill:none;stroke-width:2;stroke-linecap:butt;stroke-linejoin:miter;stroke:rgb(0%,0%,0%);stroke-opacity:1;stroke-miterlimit:4;" d="M 403.499919 434.999805 L 399.500163 418.999748 L 403.499919 402.999691 L 403.499919 372.000033 L 407.00048 356.500203 L 413.000114 340.500146 L 425.000415 324.50009 L 442.500122 308.500033 " transform="matrix(3.779528,0,0,3.779528,0,0)"/>
<path style="fill:none;stroke-width:2;stroke-linecap:butt;stroke-linejoin:miter;stroke:rgb(0%,0%,0%);stroke-opacity:1;stroke-miterlimit:4;" d="M 447.999528 299.500065 L 424.500187 315.500122 L 412.499886 331.500179 L 404.500374 348.000464 L 400.499585 363.999487 L 398.499707 379.999544 L 400.499585 395.999601 L 398.499707 411.999658 L 379.999544 427.499487 " transform="matrix(3.779528,0,0,3.779528,0,0)"/>
<path style="fill:none;stroke-width:2;stroke-linecap:butt;stroke-linejoin:miter;stroke:rgb(0%,0%,0%);stroke-opacity:1;stroke-miterlimit:4;" d="M 331.500179 309.500488 L 316.499544 293.500431 L 344.499902 277.500374 " transform="matrix(3.779528,0,0,3.779528,0,0)"/>
<path style="fill:none;stroke-width:2;stroke-linecap:butt;stroke-linejoin:miter;stroke:rgb(0%,0%,0%);stroke-opacity:1;stroke-miterlimit:4;" d="M 330.499723 226.49987 L 327.000195 210.499813 " transform="matrix(3.779528,0,0,3.779528,0,0)"/>
<path style="fill:none;stroke-width:2;stroke-linecap:butt;stroke-linejoin:miter;stroke:rgb(0%,0%,0%);stroke-opacity:1;stroke-miterlimit:4;" d="M 322.500212 208.499935 L 320.500334 224.499992 " transform="matrix(3.779528,0,0,3.779528,0,0)"/>
<path style="fill:none;stroke-width:2;stroke-linecap:butt;stroke-linejoin:miter;stroke:rgb(0%,0%,0%);stroke-opacity:1;stroke-miterlimit:4;" d="M 316.00035 209.000163 L 332.000407 212.499691 L 332.499601 216.000252 L 336.500391 236.000065 L 352.999642 233.499959 L 401.500041 233.499959 L 417.500098 231.500081 L 433.500155 231.500081 L 450.000439 250.000244 L 451.50009 267.499951 L 466.999919 280.00048 L 482.499748 300.000293 " transform="matrix(3.779528,0,0,3.779528,0,0)"/>
<path style="fill:none;stroke-width:2;stroke-linecap:butt;stroke-linejoin:miter;stroke:rgb(0%,0%,0%);stroke-opacity:1;stroke-miterlimit:4;" d="M 403.499919 209.500391 L 386.999634 195.500212 " transform="matrix(3.779528,0,0,3.779528,0,0)"/>
<path style="fill:none;stroke-width:2;stroke-linecap:butt;stroke-linejoin:miter;stroke:rgb(0%,0%,0%);stroke-opacity:1;stroke-miterlimit:4;" d="M 393.000301 193.999528 L 377.000244 187.999894 " transform="matrix(3.779528,0,0,3.779528,0,0)"/>
<path style="fill:none;stroke-width:2;stroke-linecap:butt;stroke-linejoin:miter;stroke:rgb(0%,0%,0%);stroke-opacity:1;stroke-miterlimit:4;" d="M 368.000277 175.500399 L 384.000334 183.49991 L 400.000391 187.999894 L 416.499642 205.999829 " transform="matrix(3.779528,0,0,3.779528,0,0)"/>
<path style="fill:none;stroke-width:2;stroke-linecap:butt;stroke-linejoin:miter;stroke:rgb(0%,0%,0%);stroke-opacity:1;stroke-miterlimit:4;" d="M 397.500285 190.5 L 375.499561 182.500488 L 359.999731 177.000049 L 343.999674 166.999626 " transform="matrix(3.779528,0,0,3.779528,0,0)"/>
<path style="fill:none;stroke-width:2;stroke-linecap:butt;stroke-linejoin:miter;stroke:rgb(0%,0%,0%);stroke-opacity:1;stroke-miterlimit:4;" d="M 345.00013 164.49952 L 354.99952 180.499577 L 377.000244 196.000439 L 397.000057 212.000496 " transform="matrix(3.779528,0,0,3.779528,0,0)"/>
<path style="fill:none;stroke-width:2;stroke-linecap:butt;stroke-linejoin:miter;stroke:rgb(0%,0%,0%);stroke-opacity:1;stroke-miterlimit:4;" d="M 406.000024 218.999552 L 389.999967 204.500179 L 374.500138 193.000106 L 358.500081 181.500033 L 342.500024 171.000415 " transform="matrix(3.779528,0,0,3.779528,0,0)"/>
<path style="fill:none;stroke-width:2;stroke-linecap:butt;stroke-linejoin:miter;stroke:rgb(0%,0%,0%);stroke-opacity:1;stroke-miterlimit:4;" d="M 345.00013 170.500187 L 368.999699 186.500244 L 391.000423 202.000073 L 409.000358 217.499902 " transform="matrix(3.779528,0,0,3.779528,0,0)"/>
<path style="fill:none;stroke-width:2;stroke-linecap:butt;stroke-linejoin:miter;stroke:rgb(0%,0%,0%);stroke-opacity:1;stroke-miterlimit:4;" d="M 402.000269 203.499723 L 381.500228 187.499666 L 375.499561 173.499487 L 359.999731 168.000081 L 344.499902 164.000326 L 328.499845 167.499854 " transform="matrix(3.779528,0,0,3.779528,0,0)"/>
<path style="fill:none;stroke-width:2;stroke-linecap:butt;stroke-linejoin:miter;stroke:rgb(0%,0%,0%);stroke-opacity:1;stroke-miterlimit:4;" d="M 317.5 170.500187 L 295.500309 186.500244 L 283.500008 202.500301 L 277.500374 218.500358 L 275.500496 238.500171 L 291.49952 237.999943 L 307.999805 236.000065 " transform="matrix(3.779528,0,0,3.779528,0,0)"/>
<path style="fill:none;stroke-width:2;stroke-linecap:butt;stroke-linejoin:miter;stroke:rgb(0%,0%,0%);stroke-opacity:1;stroke-miterlimit:4;" d="M 316.00035 219.49978 L 322.500212 203.499723 " transform="matrix(3.779528,0,0,3.779528,0,0)"/>
<path style="fill:none;stroke-width:2;stroke-linecap:butt;stroke-linejoin:miter;stroke:rgb(0%,0%,0%);stroke-opacity:1;stroke-miterlimit:4;" d="M 311.999561 187.999894 L 311.999561 220.000008 " transform="matrix(3.779528,0,0,3.779528,0,0)"/>
<path style="fill:none;stroke-width:2;stroke-linecap:butt;stroke-linejoin:miter;stroke:rgb(0%,0%,0%);stroke-opacity:1;stroke-miterlimit:4;" d="M 277.500374 211.000041 L 293.500431 187.000472 L 318.000228 162.99987 L 291.999748 179.500155 L 280.499674 196.000439 L 275.000269 212.000496 L 266.999723 227.99952 " transform="matrix(3.779528,0,0,3.779528,0,0)"/>
<path style="fill:none;stroke-width:2;stroke-linecap:butt;stroke-linejoin:miter;stroke:rgb(0%,0%,0%);stroke-opacity:1;stroke-miterlimit:4;" d="M 241.999699 232.499504 L 246.000488 216.999674 L 252.000122 200.999618 L 257.499528 184.999561 L 265.500073 168.999504 L 261.500317 174.499943 L 245.50026 211.000041 " transform="matrix(3.779528,0,0,3.779528,0,0)"/>
<path style="fill:none;stroke-width:2;stroke-linecap:butt;stroke-linejoin:miter;stroke:rgb(0%,0%,0%);stroke-opacity:1;stroke-miterlimit:4;" d="M 236.000065 216.999674 L 252.50035 178.499699 L 261.00009 164.999748 L 252.999544 180.999805 L 247.500138 196.999862 L 239.999821 213.500146 L 236.500293 228.999976 " transform="matrix(3.779528,0,0,3.779528,0,0)"/>
<path style="fill:none;stroke-width:2;stroke-linecap:butt;stroke-linejoin:miter;stroke:rgb(0%,0%,0%);stroke-opacity:1;stroke-miterlimit:4;" d="M 209.999585 216.000252 L 215.500024 200.000195 L 223.499536 184.500366 L 229.500203 168.500309 L 241.500505 164.49952 L 225.500448 190.5 " transform="matrix(3.779528,0,0,3.779528,0,0)"/>
<path style="fill:none;stroke-width:2;stroke-linecap:butt;stroke-linejoin:miter;stroke:rgb(0%,0%,0%);stroke-opacity:1;stroke-miterlimit:4;" d="M 206.500057 202.500301 L 208.499935 186.500244 L 208.499935 155.000358 " transform="matrix(3.779528,0,0,3.779528,0,0)"/>
<path style="fill:none;stroke-width:2;stroke-linecap:butt;stroke-linejoin:miter;stroke:rgb(0%,0%,0%);stroke-opacity:1;stroke-miterlimit:4;" d="M 214.499569 151.499797 L 230.499626 151.499797 L 248.499561 159.999536 L 234.500415 175.999593 L 224.499992 198.000317 L 216.50048 214.000374 L 204.500179 230.000431 L 193.999528 243.999577 " transform="matrix(3.779528,0,0,3.779528,0,0)"/>
<path style="fill:none;stroke-width:2;stroke-linecap:butt;stroke-linejoin:miter;stroke:rgb(0%,0%,0%);stroke-opacity:1;stroke-miterlimit:4;" d="M 198.499512 221.000464 L 182.500488 227.500326 L 166.500431 229.500203 L 150.000146 230.999854 L 134.00009 230.999854 L 118.000033 221.499658 L 101.999976 225.500448 " transform="matrix(3.779528,0,0,3.779528,0,0)"/>
<path style="fill:none;stroke-width:2;stroke-linecap:butt;stroke-linejoin:miter;stroke:rgb(0%,0%,0%);stroke-opacity:1;stroke-miterlimit:4;" d="M 91.999552 227.000098 L 107.999609 193.000106 L 124.499894 157.000236 L 140.499951 152.500252 L 157.000236 150.500374 L 173.000293 150.000146 L 189.00035 150.000146 L 194.999984 159.500342 L 194.499756 175.500399 L 194.499756 207.500513 L 196.499634 223.499536 L 214.999797 239.499593 L 230.999854 237.499715 L 254.500228 234.999609 L 270.000057 217.499902 L 286.000114 187.499666 L 302.500399 171.999837 L 318.500456 164.49952 L 334.000285 162.99987 L 349.500114 160.999992 L 366.000399 164.999748 L 382.000456 172.500065 L 398.000513 175.999593 " transform="matrix(3.779528,0,0,3.779528,0,0)"/>
<path style="fill:none;stroke-width:2;stroke-linecap:butt;stroke-linejoin:miter;stroke:rgb(0%,0%,0%);stroke-opacity:1;stroke-miterlimit:4;" d="M 411.999658 208.499935 L 404.000146 192.499878 L 377.500472 175.999593 L 352.00022 166.000203 " transform="matrix(3.779528,0,0,3.779528,0,0)"/>
<path style="fill:none;stroke-width:2;stroke-linecap:butt;stroke-linejoin:miter;stroke:rgb(0%,0%,0%);stroke-opacity:1;stroke-miterlimit:4;" d="M 359.000309 162.99987 L 392.500073 178.999927 L 413.000114 194.999984 L 418.49952 211.000041 L 426.500065 224.499992 L 432.000505 226.49987 L 436.500488 242.499927 L 445.000228 257.999756 L 453.499967 273.999813 L 467.500146 289.499642 L 481.500326 305.999927 " transform="matrix(3.779528,0,0,3.779528,0,0)"/>
<path style="fill:none;stroke-width:2;stroke-linecap:butt;stroke-linejoin:miter;stroke:rgb(0%,0%,0%);stroke-opacity:1;stroke-miterlimit:4;" d="M 336.999585 183.49991 L 327.000195 185.499788 L 328.499845 169.499731 L 312.499788 173.499487 " transform="matrix(3.779528,0,0,3.779528,0,0)"/>
<path style="fill:none;stroke-width:2;stroke-linecap:butt;stroke-linejoin:miter;stroke:rgb(0%,0%,0%);stroke-opacity:1;stroke-miterlimit:4;" d="M 306.500155 182.500488 L 305.000505 198.499512 L 307.000382 214.499569 L 307.000382 230.000431 " transform="matrix(3.779528,0,0,3.779528,0,0)"/>
<path style="fill:none;stroke-width:2;stroke-linecap:butt;stroke-linejoin:miter;stroke:rgb(0%,0%,0%);stroke-opacity:1;stroke-miterlimit:4;" d="M 268.000179 150.000146 L 252.000122 145.500163 L 236.000065 145.500163 L 220.000008 143.000057 L 203.499723 145.500163 L 187.000472 143.500285 L 171.499609 143.500285 L 155.499552 145.500163 L 139.499495 145.500163 L 121.499561 171.499609 L 105.499504 209.999585 " transform="matrix(3.779528,0,0,3.779528,0,0)"/>
<path style="fill:none;stroke-width:2;stroke-linecap:butt;stroke-linejoin:miter;stroke:rgb(0%,0%,0%);stroke-opacity:1;stroke-miterlimit:4;" d="M 82.999585 207.999707 L 66.999528 230.000431 L 51.000505 233.499959 L 35.000448 243.500382 L 19.000391 239.499593 L 17.499707 237.999943 L 1.999878 236.000065 " transform="matrix(3.779528,0,0,3.779528,0,0)"/>
<path style="fill:none;stroke-width:2;stroke-linecap:butt;stroke-linejoin:miter;stroke:rgb(0%,0%,0%);stroke-opacity:1;stroke-miterlimit:4;" d="M 14.000179 285.499886 L 30.000236 285.499886 L 48.000171 291.49952 " transform="matrix(3.779528,0,0,3.779528,0,0)"/>
<path style="fill:none;stroke-width:2;stroke-linecap:butt;stroke-linejoin:miter;stroke:rgb(0%,0%,0%);stroke-opacity:1;stroke-miterlimit:4;" d="M 51.000505 318.000228 L 76.999951 333.500057 " transform="matrix(3.779528,0,0,3.779528,0,0)"/>
<path style="fill:none;stroke-width:2;stroke-linecap:butt;stroke-linejoin:miter;stroke:rgb(0%,0%,0%);stroke-opacity:1;stroke-miterlimit:4;" d="M 42.999959 323.499634 L 46.499487 339.999919 L 51.000505 355.999976 L 57.000138 372.000033 L 60.999894 388.00009 L 76.999951 404.000146 " transform="matrix(3.779528,0,0,3.779528,0,0)"/>
<path style="fill:none;stroke-width:2;stroke-linecap:butt;stroke-linejoin:miter;stroke:rgb(0%,0%,0%);stroke-opacity:1;stroke-miterlimit:4;" d="M 1.49965 327.999618 L 3.000334 323.999862 " transform="matrix(3.779528,0,0,3.779528,0,0)"/>
<path style="fill:none;stroke-width:2;stroke-linecap:butt;stroke-linejoin:miter;stroke:rgb(0%,0%,0%);stroke-opacity:1;stroke-miterlimit:4;" d="M 57.500366 222.500114 L 57.000138 246.499683 L 48.999593 234.500415 L 30.500464 239.999821 L 23.999569 248.000366 L 14.000179 263.500195 L 9.500195 279.500252 L 5.500439 279.500252 L 11.500073 269.499829 L 21.500496 277.000146 L 23.500374 259.000212 L 39.500431 261.00009 L 51.999927 252.999544 L 55.999683 239.499593 L 76.499723 237.999943 L 85.000496 243.999577 L 109.000065 252.000122 L 157.500464 252.000122 L 173.499487 252.50035 L 189.00035 250.500472 L 205.000407 242.499927 " transform="matrix(3.779528,0,0,3.779528,0,0)"/>
<path style="fill:none;stroke-width:2;stroke-linecap:butt;stroke-linejoin:miter;stroke:rgb(0%,0%,0%);stroke-opacity:1;stroke-miterlimit:4;" d="M 178.999927 246.99991 L 114.999699 246.99991 L 98.500448 251.499894 L 74.499845 239.000399 L 88.500024 214.999797 L 82.500391 225.00022 " transform="matrix(3.779528,0,0,3.779528,0,0)"/>
<path style="fill:none;stroke-width:2;stroke-linecap:butt;stroke-linejoin:miter;stroke:rgb(0%,0%,0%);stroke-opacity:1;stroke-miterlimit:4;" d="M 97.499992 186.500244 L 87.499569 202.500301 L 76.999951 218.500358 L 64.99965 236.500293 L 56.49991 252.000122 L 54.500033 268.000179 L 50.500277 283.500008 L 44.999837 297.500187 " transform="matrix(3.779528,0,0,3.779528,0,0)"/>
<path style="fill:none;stroke-width:2;stroke-linecap:butt;stroke-linejoin:miter;stroke:rgb(0%,0%,0%);stroke-opacity:1;stroke-miterlimit:4;" d="M 196.999862 275.999691 L 178.999927 291.49952 L 167.499854 307.499577 L 182.00026 295.500309 L 198.499512 293.500431 L 212.499691 286.000114 " transform="matrix(3.779528,0,0,3.779528,0,0)"/>
<path style="fill:none;stroke-width:2;stroke-linecap:butt;stroke-linejoin:miter;stroke:rgb(0%,0%,0%);stroke-opacity:1;stroke-miterlimit:4;" d="M 199.499967 216.999674 L 199.499967 169.499731 L 201.499845 153.499674 " transform="matrix(3.779528,0,0,3.779528,0,0)"/>
<path style="fill:none;stroke-width:2;stroke-linecap:butt;stroke-linejoin:miter;stroke:rgb(0%,0%,0%);stroke-opacity:1;stroke-miterlimit:4;" d="M 202.000073 152.500252 L 214.000374 158.499886 L 214.000374 189.999772 L 209.500391 205.499601 L 207.500513 233.499959 L 217.499902 245.000033 L 233.499959 241.000277 L 250.000244 239.000399 L 266.000301 236.999487 L 282.000358 230.999854 L 298.000415 230.999854 L 323.499634 228.499748 L 329.500301 234.500415 L 345.999552 228.999976 L 361.999609 228.999976 L 377.999666 227.000098 L 393.499495 227.500326 L 409.99978 227.500326 " transform="matrix(3.779528,0,0,3.779528,0,0)"/>
<path style="fill:none;stroke-width:2;stroke-linecap:butt;stroke-linejoin:miter;stroke:rgb(0%,0%,0%);stroke-opacity:1;stroke-miterlimit:4;" d="M 375.999788 162.000448 L 355.999976 145.500163 L 323.999862 129.500106 " transform="matrix(3.779528,0,0,3.779528,0,0)"/>
<path style="fill:none;stroke-width:2;stroke-linecap:butt;stroke-linejoin:miter;stroke:rgb(0%,0%,0%);stroke-opacity:1;stroke-miterlimit:4;" d="M 321.999984 123.000244 L 357.999854 139.499495 L 377.999666 155.499552 L 398.000513 159.500342 L 402.000269 161.50022 " transform="matrix(3.779528,0,0,3.779528,0,0)"/>
<path style="fill:none;stroke-width:2;stroke-linecap:butt;stroke-linejoin:miter;stroke:rgb(0%,0%,0%);stroke-opacity:1;stroke-miterlimit:4;" d="M 262.999967 159.000114 L 245.000033 158.499886 L 228.499748 172.500065 L 226.49987 200.000195 L 210.499813 221.499658 L 194.499756 239.000399 L 178.000505 237.499715 L 162.000448 237.999943 L 146.000391 237.999943 L 130.000334 238.500171 L 114.000277 236.500293 L 98.00022 237.999943 L 94.000464 221.499658 L 101.999976 205.499601 L 109.999487 189.999772 L 115.499927 173.499487 L 123.500472 157.500464 L 125.50035 141.500407 L 139.999723 125.50035 L 141.999601 109.500293 " transform="matrix(3.779528,0,0,3.779528,0,0)"/>
<path style="fill:none;stroke-width:2;stroke-linecap:butt;stroke-linejoin:miter;stroke:rgb(0%,0%,0%);stroke-opacity:1;stroke-miterlimit:4;" d="M 140.499951 114.500505 L 156.500008 112.000399 L 158.499886 121.499561 L 176.499821 127.500228 " transform="matrix(3.779528,0,0,3.779528,0,0)"/>
<path style="fill:none;stroke-width:2;stroke-linecap:butt;stroke-linejoin:miter;stroke:rgb(0%,0%,0%);stroke-opacity:1;stroke-miterlimit:4;" d="M 199.499967 126.499772 L 173.499487 124.499894 L 157.000236 130.499528 L 144.499707 128.49965 L 128.49965 143.000057 " transform="matrix(3.779528,0,0,3.779528,0,0)"/>
<path style="fill:none;stroke-width:2;stroke-linecap:butt;stroke-linejoin:miter;stroke:rgb(0%,0%,0%);stroke-opacity:1;stroke-miterlimit:4;" d="M 132.000212 152.500252 L 125.50035 168.000081 L 117.499805 183.49991 L 111.500171 199.499967 L 105.999731 216.000252 L 114.000277 221.999886 L 112.000399 230.000431 L 118.000033 232.000309 " transform="matrix(3.779528,0,0,3.779528,0,0)"/>
<path style="fill:none;stroke-width:2;stroke-linecap:butt;stroke-linejoin:miter;stroke:rgb(0%,0%,0%);stroke-opacity:1;stroke-miterlimit:4;" d="M 239.000399 123.000244 L 255.000456 121.499561 " transform="matrix(3.779528,0,0,3.779528,0,0)"/>
<path style="fill:none;stroke-width:2;stroke-linecap:butt;stroke-linejoin:miter;stroke:rgb(0%,0%,0%);stroke-opacity:1;stroke-miterlimit:4;" d="M 269.499829 116.000155 L 268.999601 100.000098 " transform="matrix(3.779528,0,0,3.779528,0,0)"/>
<path style="fill:none;stroke-width:2;stroke-linecap:butt;stroke-linejoin:miter;stroke:rgb(0%,0%,0%);stroke-opacity:1;stroke-miterlimit:4;" d="M 265.500073 96.999764 L 263.500195 112.999821 L 283.500008 123.000244 L 299.500065 125.50035 L 316.00035 128.000456 L 332.000407 132.500439 L 348.000464 140.499951 L 363.999487 150.500374 L 379.999544 164.49952 L 390.500195 186.500244 L 407.00048 200.500423 L 422.999504 216.50048 " transform="matrix(3.779528,0,0,3.779528,0,0)"/>
<path style="fill:none;stroke-width:2;stroke-linecap:butt;stroke-linejoin:miter;stroke:rgb(0%,0%,0%);stroke-opacity:1;stroke-miterlimit:4;" d="M 219.49978 111.500171 L 218.999552 95.500114 L 214.999797 79.500057 " transform="matrix(3.779528,0,0,3.779528,0,0)"/>
</g>
</svg>
