<svg xmlns="http://www.w3.org/2000/svg" width="512mm" height="512mm" viewBox="0 0 512 512" version="1.1"><polyline points="89.5,54.5,83.5,56.5,83.5,72.5,83.5,88.5,85.5,105.0,85.5,121.0,85.5,137.0,85.5,153.0,83.0,169.0,85.0,184.5,82.5,200.5,83.0,216.5,83.0,232.5,95.0,236.5,111.5,236.0,139.5,233.5,155.5,231.0,171.5,237.0,189.5,235.0,205.5,236.5,222.0,234.5,238.0,234.5,254.5,226.5,270.5,217.0,274.5,223.0,294.5,229.0,308.5,243.0" stroke="black" stroke-width="2" fill="none" />
<polyline points="318.0,236.0,333.5,237.5,349.0,238.0" stroke="black" stroke-width="2" fill="none" />
<polyline points="342.5,262.5,358.0,242.5,364.0,254.5,359.5,248.5,375.5,241.0,381.5,242.5,396.5,231.0,412.5,235.0,429.0,248.5" stroke="black" stroke-width="2" fill="none" />
<polyline points="412.5,263.5,402.0,247.5" stroke="black" stroke-width="2" fill="none" />
<polyline points="403.5,231.5,425.5,247.5,428.0,261.5,430.0,278.0,413.5,290.0,411.5,306.0" stroke="black" stroke-width="2" fill="none" />
<polyline points="416.5,352.5,400.5,356.5,384.0,358.5,368.0,352.5,351.5,346.5" stroke="black" stroke-width="2" fill="none" />
<polyline points="336.0,354.0,352.5,360.0,368.5,364.0,384.5,368.0" stroke="black" stroke-width="2" fill="none" />
<polyline points="413.5,370.5,405.5,362.5,413.5,338.5,451.5,340.5,463.5,324.5,483.5,308.5,479.5,292.5,473.5,276.5,481.5,260.5,497.5,244.5,503.5,220.5,499.5,204.5,499.5,202.5" stroke="black" stroke-width="2" fill="none" />
<polyline points="506.5,201.5,510.0,217.5,508.0,213.5" stroke="black" stroke-width="2" fill="none" />
<polyline points="491.5,261.0,507.5,249.0,507.5,267.5" stroke="black" stroke-width="2" fill="none" />
<polyline points="485.0,270.5,485.0,278.5,491.0,282.5,497.0,298.0" stroke="black" stroke-width="2" fill="none" />
<polyline points="483.0,300.5,481.5,282.5" stroke="black" stroke-width="2" fill="none" />
<polyline points="480.0,274.0,496.5,252.0,498.5,262.0,500.5,274.0,496.5,274.0,504.0,273.5,504.0,296.0,504.0,290.0,508.0,256.0" stroke="black" stroke-width="2" fill="none" />
<polyline points="473.0,274.0,489.0,250.0,505.5,238.0,491.5,256.0,481.5,272.0,483.5,288.0,488.0,304.0,492.0,326.0,508.0,342.5" stroke="black" stroke-width="2" fill="none" />
<polyline points="495.0,326.0,494.5,320.0,487.0,332.0,470.5,328.0" stroke="black" stroke-width="2" fill="none" />
<polyline points="469.0,327.5,465.0,331.0,494.5,345.0" stroke="black" stroke-width="2" fill="none" />
<polyline points="510.0,342.0,494.0,342.0,478.0,334.0,462.0,332.0" stroke="black" stroke-width="2" fill="none" />
<polyline points="456.0,335.5,446.0,351.5,448.0,355.0,420.0,371.0" stroke="black" stroke-width="2" fill="none" />
<polyline points="436.0,338.0,410.0,346.0,394.0,348.5,378.0,346.5,362.0,340.0,352.0,341.5,335.5,337.5" stroke="black" stroke-width="2" fill="none" />
<polyline points="334.0,349.5,350.0,351.5,366.0,356.0,382.0,364.0" stroke="black" stroke-width="2" fill="none" />
<polyline points="365.0,393.5,379.0,403.5,407.5,419.5" stroke="black" stroke-width="2" fill="none" />
<polyline points="396.0,403.0,412.0,405.5,428.0,397.5,444.0,395.5,460.5,402.0,458.0,408.0,462.5,424.0,470.0,440.0,464.5,456.0" stroke="black" stroke-width="2" fill="none" />
<polyline points="480.0,463.0,496.0,465.0" stroke="black" stroke-width="2" fill="none" />
<polyline points="485.5,476.5,501.5,492.5" stroke="black" stroke-width="2" fill="none" />
<polyline points="512.0,506.5,495.5,492.0,479.5,476.0,473.0,473.5,456.5,483.5,446.5,507.5,452.5,491.5,464.0,475.0,472.0,473.0,460.0,485.0" stroke="black" stroke-width="2" fill="none" />
<polyline points="457.5,493.0,473.0,485.0,489.0,493.0" stroke="black" stroke-width="2" fill="none" />
<polyline points="484.0,483.0,500.0,499.0" stroke="black" stroke-width="2" fill="none" />
<polyline points="502.0,505.5,486.0,505.5,469.5,501.5,453.0,499.0" stroke="black" stroke-width="2" fill="none" />
<polyline points="480.5,483.5,488.5,499.5,484.5,510.0,500.5,510.0" stroke="black" stroke-width="2" fill="none" />
<polyline points="453.0,457.0,437.0,459.0,421.5,461.0,406.0,461.0,390.0,459.0,374.5,455.0,358.5,447.0" stroke="black" stroke-width="2" fill="none" />
<polyline points="346.5,455.0,348.5,470.5,345.0,486.5,355.5,502.5" stroke="black" stroke-width="2" fill="none" />
<polyline points="358.5,508.0,342.0,494.5" stroke="black" stroke-width="2" fill="none" />
<polyline points="345.0,490.0,361.0,504.0,377.0,509.5" stroke="black" stroke-width="2" fill="none" />
<polyline points="369.0,505.5,349.0,489.0" stroke="black" stroke-width="2" fill="none" />
<polyline points="335.0,495.0,316.5,504.5,326.0,489.0" stroke="black" stroke-width="2" fill="none" />
<polyline points="326.0,484.5,314.0,501.0,297.5,505.0,321.5,497.0" stroke="black" stroke-width="2" fill="none" />
<polyline points="335.0,510.0,341.0,494.5,335.0,510.5" stroke="black" stroke-width="2" fill="none" />
<polyline points="277.5,504.0,261.5,498.5" stroke="black" stroke-width="2" fill="none" />
<polyline points="270.0,506.0,253.5,499.5,237.5,491.5,221.5,487.5,198.0,461.0" stroke="black" stroke-width="2" fill="none" />
<polyline points="180.5,462.5,180.5,458.5,196.5,454.5,210.0,456.5,226.0,464.5" stroke="black" stroke-width="2" fill="none" />
<polyline points="233.5,486.5,273.5,502.5" stroke="black" stroke-width="2" fill="none" />
<polyline points="269.5,506.0,229.5,490.0" stroke="black" stroke-width="2" fill="none" />
<polyline points="190.0,426.0,174.0,419.5,158.0,409.5" stroke="black" stroke-width="2" fill="none" />
<polyline points="155.5,408.0,171.5,412.0,187.5,420.5" stroke="black" stroke-width="2" fill="none" />
<polyline points="188.0,407.0,172.5,395.0" stroke="black" stroke-width="2" fill="none" />
<polyline points="174.0,391.0,194.0,407.0" stroke="black" stroke-width="2" fill="none" />
<polyline points="195.0,424.5,163.5,408.5" stroke="black" stroke-width="2" fill="none" />
<polyline points="159.5,403.0,173.5,419.0" stroke="black" stroke-width="2" fill="none" />
<polyline points="176.5,442.0,160.5,436.0,144.5,430.0,128.0,422.0,112.0,416.0" stroke="black" stroke-width="2" fill="none" />
<polyline points="116.0,419.0,150.0,435.0" stroke="black" stroke-width="2" fill="none" />
<polyline points="176.5,437.0,160.5,431.0,144.5,423.5,128.5,415.5,112.5,409.5" stroke="black" stroke-width="2" fill="none" />
<polyline points="117.0,412.5,151.0,428.5" stroke="black" stroke-width="2" fill="none" />
<polyline points="170.0,389.5,182.0,405.5,210.0,403.5" stroke="black" stroke-width="2" fill="none" />
<polyline points="217.0,402.5,213.0,418.5,206.5,435.0,204.5,451.0,214.0,467.5,215.5,479.5,209.5,495.5,212.0,487.5,228.0,467.5,244.0,471.5,260.0,475.5,276.0,490.0,292.0,486.5,308.0,480.5,323.5,474.0" stroke="black" stroke-width="2" fill="none" />
<polyline points="315.5,441.5,299.5,459.5,293.5,463.5,313.5,447.5,319.5,432.0" stroke="black" stroke-width="2" fill="none" />
<polyline points="328.0,409.5,344.0,403.5,362.0,419.5,386.0,423.5,386.0,433.5,408.0,446.0,424.0,447.5,440.0,446.0,456.0,442.0" stroke="black" stroke-width="2" fill="none" />
<polyline points="447.0,452.5,431.0,454.5,415.0,454.5,399.0,454.0,383.0,450.0,367.0,443.5,351.0,431.5" stroke="black" stroke-width="2" fill="none" />
<polyline points="349.0,421.5,365.0,423.5,368.5,433.5" stroke="black" stroke-width="2" fill="none" />
<polyline points="361.5,430.5,377.5,438.5,393.5,445.0" stroke="black" stroke-width="2" fill="none" />
<polyline points="407.5,424.0,391.5,416.0,375.5,406.0" stroke="black" stroke-width="2" fill="none" />
<polyline points="374.0,402.0,390.0,410.0,405.5,418.0" stroke="black" stroke-width="2" fill="none" />
<polyline points="401.5,426.5,385.0,418.5,368.5,407.0,352.5,399.0" stroke="black" stroke-width="2" fill="none" />
<polyline points="354.0,404.0,372.0,420.5,376.0,430.0" stroke="black" stroke-width="2" fill="none" />
<polyline points="378.5,425.5,372.5,419.5,356.5,413.0,340.5,403.0" stroke="black" stroke-width="2" fill="none" />
<polyline points="340.0,402.5,342.0,418.5,344.5,434.5,342.5,451.0,344.5,467.0,338.5,481.0,336.5,497.0,346.5,507.5,354.5,511.5" stroke="black" stroke-width="2" fill="none" />
<polyline points="354.0,437.5,348.0,421.5" stroke="black" stroke-width="2" fill="none" />
<polyline points="335.5,404.0,331.5,420.0,331.5,436.0,330.0,451.5,322.5,467.5" stroke="black" stroke-width="2" fill="none" />
<polyline points="341.0,395.5,357.0,403.5,373.0,413.5,389.0,423.5,405.0,430.0,411.0,440.5,427.0,437.0" stroke="black" stroke-width="2" fill="none" />
<polyline points="458.0,434.5,442.5,420.5,427.0,412.5,415.0,416.5,411.0,410.5,391.0,416.0,373.0,390.0,357.0,388.0,340.5,380.0" stroke="black" stroke-width="2" fill="none" />
<polyline points="344.5,382.5,342.5,388.5,364.5,404.0,388.5,420.0,384.5,440.0,406.5,434.0,422.0,432.0,438.0,425.5,458.0,427.5,460.0,436.0,460.0,452.0,462.0,460.0,458.0,476.0,448.0,492.0,440.0,508.0,451.5,482.0,468.0,454.0,470.0,465.5,488.0,457.5,504.5,457.0" stroke="black" stroke-width="2" fill="none" />
<polyline points="492.0,409.0,476.0,395.0,454.5,398.5,440.5,412.5,423.0,400.5,417.0,392.5,407.0,398.5,391.0,400.5,375.0,398.5,358.5,394.5,342.5,386.5" stroke="black" stroke-width="2" fill="none" />
<polyline points="334.0,370.0,329.5,374.0,335.0,389.5,329.0,405.5,325.0,421.5,311.0,438.0,299.0,454.0,279.0,466.0,295.5,456.0,311.5,438.0,325.5,434.0,325.5,450.0,333.5,466.0,319.5,474.0,299.5,497.5,302.0,501.0,304.0,503.5,320.5,489.5" stroke="black" stroke-width="2" fill="none" />
<polyline points="377.5,383.5,361.0,379.5,344.5,375.5,328.0,365.5" stroke="black" stroke-width="2" fill="none" />
<polyline points="311.0,339.5,327.5,347.5,343.5,327.5,335.5,332.0,335.5,348.0,361.5,363.5,392.0,363.5" stroke="black" stroke-width="2" fill="none" />
<polyline points="366.5,323.5,350.5,305.5" stroke="black" stroke-width="2" fill="none" />
<polyline points="358.0,263.5,374.0,255.0,390.0,245.0,405.5,251.0,413.5,251.0,433.5,264.5,433.5,280.5,429.5,296.0,422.0,311.5,413.5,327.5,413.5,345.5,429.5,335.5,456.0,335.5,472.0,339.5,488.0,344.0,504.0,352.0" stroke="black" stroke-width="2" fill="none" />
<polyline points="469.5,344.0,473.5,360.0,469.5,376.5,465.5,392.5,478.0,409.0" stroke="black" stroke-width="2" fill="none" />
<polyline points="464.5,413.0,470.5,429.0,476.5,445.0,466.5,465.5,489.0,481.0,507.0,497.0" stroke="black" stroke-width="2" fill="none" />
<polyline points="453.0,422.0,445.0,409.5,453.0,393.5" stroke="black" stroke-width="2" fill="none" />
<polyline points="471.5,392.0,489.5,408.0" stroke="black" stroke-width="2" fill="none" />
<polyline points="449.5,438.5,433.5,445.0,418.0,445.0,448.5,439.0,444.5,422.5,424.5,406.0,446.0,394.0,464.0,377.5,470.0,361.5,462.5,345.0" stroke="black" stroke-width="2" fill="none" />
<polyline points="426.0,364.5,416.5,352.0,421.0,328.0,429.0,312.0,435.5,296.0,419.0,320.0,403.0,342.0,386.5,342.0,370.5,334.0,366.5,330.0,358.0,314.0,352.0,298.5,350.0,282.5,347.5,266.5,351.5,256.5,373.5,240.5,383.0,222.0,383.0,206.0,383.0,190.0,383.5,173.5,385.5,157.5,385.0,141.5,385.5,126.0,385.5,110.0,385.5,94.0,385.5,78.0,377.5,62.0,361.5,62.0,345.5,62.0,329.5,62.5,313.5,62.5,297.5,62.5,281.5,62.0,265.5,62.0,249.5,62.5,234.0,62.0,218.0,62.0,202.5,61.5,186.5,61.5,170.5,61.0,154.0,61.5,138.0,62.0,122.0,62.0,106.0,62.5,90.0,60.5" stroke="black" stroke-width="2" fill="none" />
<polyline points="87.5,55.0,103.5,53.0,120.0,53.0,136.0,53.5,152.5,54.0,169.0,54.0,185.0,54.0,201.0,54.0,217.5,54.0,233.5,54.0,249.5,54.5,265.0,54.5,281.0,54.5,297.0,54.5,312.5,54.0,328.0,54.0,344.0,54.0,359.5,54.0,375.5,54.0,372.0,74.0,370.0,90.0,370.0,106.0" stroke="black" stroke-width="2" fill="none" />
<polyline points="353.0,103.0,336.5,87.5,320.5,77.5" stroke="black" stroke-width="2" fill="none" />
<polyline points="316.0,73.5,332.0,77.0,348.0,91.5,364.0,113.5" stroke="black" stroke-width="2" fill="none" />
<polyline points="368.5,65.5,352.5,65.5,337.0,67.5,321.0,67.5" stroke="black" stroke-width="2" fill="none" />
<polyline points="303.5,69.0,329.5,85.0,347.5,101.0,357.5,117.5,362.0,134.0,360.0,150.5,350.0,166.5,336.0,182.5,304.0,198.5" stroke="black" stroke-width="2" fill="none" />
<polyline points="279.5,209.0,296.0,207.0,312.0,202.5,328.0,194.0,344.5,182.0,360.5,159.5,372.5,149.5,373.0,165.5" stroke="black" stroke-width="2" fill="none" />
<polyline points="328.0,144.5,312.0,166.5,296.0,172.5,280.0,176.5,264.0,176.5,248.0,176.5,232.0,176.0,216.5,174.0,200.5,168.0,184.5,156.0" stroke="black" stroke-width="2" fill="none" />
<polyline points="180.5,149.5,197.0,159.5,213.0,167.5,229.0,169.5,245.0,171.5,261.0,171.5,277.0,169.5,292.5,167.5,308.5,161.5,325.0,139.5" stroke="black" stroke-width="2" fill="none" />
<polyline points="299.5,117.0,283.5,111.5,267.5,123.5" stroke="black" stroke-width="2" fill="none" />
<polyline points="264.5,132.5,280.0,140.0,296.0,140.0,306.0,114.0,312.0,129.5,296.0,145.5" stroke="black" stroke-width="2" fill="none" />
<polyline points="328.5,160.5,312.0,172.5,295.5,178.5,279.5,182.5,263.5,182.5,247.5,182.5,232.0,182.0,216.5,180.0,201.0,176.0,185.0,167.5,169.5,149.0" stroke="black" stroke-width="2" fill="none" />
<polyline points="165.0,153.5,181.5,171.5,197.0,179.5,213.0,183.5,228.5,188.0,244.0,188.0,260.0,187.5,276.5,185.0,292.5,183.5,309.0,179.5,325.0,171.5,341.0,153.5" stroke="black" stroke-width="2" fill="none" />
<polyline points="326.5,119.5,310.5,102.0,294.5,94.0,278.0,90.5,262.0,90.5,246.0,91.0,230.0,93.0,214.0,99.5,198.5,107.0,182.5,131.0" stroke="black" stroke-width="2" fill="none" />
<polyline points="178.5,124.0,194.5,104.0,210.0,92.0,226.0,87.5,242.0,85.5,258.0,83.5,274.0,83.0,290.5,85.5,306.5,91.5,323.0,105.5" stroke="black" stroke-width="2" fill="none" />
<polyline points="326.5,101.0,310.0,89.0,294.5,81.0,278.5,75.5,262.5,75.5,246.5,75.5,231.0,79.5,214.5,86.0,198.5,94.0,182.0,108.0,166.0,134.0" stroke="black" stroke-width="2" fill="none" />
<polyline points="163.0,130.0,179.0,104.0,195.0,90.0,211.0,80.0,227.0,76.0,243.0,72.0,267.0,72.0,283.0,72.0,299.0,78.0,315.0,86.0,330.5,98.0,347.0,126.0" stroke="black" stroke-width="2" fill="none" />
<polyline points="297.0,138.5,305.0,122.5,292.5,106.5" stroke="black" stroke-width="2" fill="none" />
<polyline points="299.0,106.0,283.0,104.0,267.0,114.0,240.5,139.5,224.5,148.0,208.0,142.5,200.0,136.5,199.5,120.0,222.0,104.0" stroke="black" stroke-width="2" fill="none" />
<polyline points="219.5,110.5,203.5,126.5,213.0,142.5" stroke="black" stroke-width="2" fill="none" />
<polyline points="199.0,132.0,215.0,142.0,231.5,140.5" stroke="black" stroke-width="2" fill="none" />
<polyline points="236.5,112.5,220.5,110.5,204.5,125.0" stroke="black" stroke-width="2" fill="none" />
<polyline points="198.0,123.0,214.0,107.0,229.5,102.5,245.5,113.0,249.0,123.5,238.5,139.5" stroke="black" stroke-width="2" fill="none" />
<polyline points="233.0,138.0,241.0,122.5,231.0,106.5" stroke="black" stroke-width="2" fill="none" />
<polyline points="216.5,91.0,190.5,106.5,180.5,122.5,176.5,138.5,182.5,154.5,202.5,170.5" stroke="black" stroke-width="2" fill="none" />
<polyline points="161.0,192.5,151.0,172.5,142.5,166.0,138.5,148.0,146.0,120.0,156.0,103.5,171.5,87.5,195.5,71.5,185.0,77.5,168.5,89.5,152.5,105.5" stroke="black" stroke-width="2" fill="none" />
<polyline points="184.5,74.0,168.5,84.0,152.0,101.5,144.0,125.5,135.5,135.5,141.5,119.5,149.0,103.5,163.5,88.0,185.0,72.0" stroke="black" stroke-width="2" fill="none" />
<polyline points="201.0,104.5,187.0,120.5,183.0,136.0,187.0,152.0,212.5,168.0" stroke="black" stroke-width="2" fill="none" />
<polyline points="152.0,183.0,168.0,195.0,183.5,200.5,199.5,204.5,216.0,209.0,232.0,209.0,256.0,217.0,283.5,213.5,300.0,227.5,316.0,227.5,330.0,231.5,346.0,233.5,364.0,238.0" stroke="black" stroke-width="2" fill="none" />
<polyline points="386.5,243.0,364.5,259.5,370.0,249.5,396.0,235.5,412.0,246.0,418.0,262.0" stroke="black" stroke-width="2" fill="none" />
<polyline points="320.0,197.5,344.0,181.5,358.0,165.0,366.0,149.0,368.0,133.0,363.5,117.0,355.5,101.0,340.0,85.5,316.0,69.5,302.0,68.0,286.0,68.0,270.0,68.0,254.5,68.5,238.5,66.5,222.0,68.5,206.0,68.5,189.5,66.5,173.5,66.5,158.0,66.5,142.5,66.0,126.5,65.5,110.5,67.5,94.5,67.5" stroke="black" stroke-width="2" fill="none" />
<polyline points="95.0,65.5,93.0,81.5,91.5,97.5,91.5,113.5,92.0,129.0,92.0,145.5,92.0,161.5,92.0,178.0,92.0,194.0,92.0,210.5,88.0,226.5,104.0,227.0,119.5,227.0,135.5,222.5,151.5,220.5,167.5,222.0,184.0,222.0,199.5,224.0,216.0,228.0,232.0,228.0,248.0,218.0,264.0,208.5,280.0,204.0,295.5,200.0,311.5,195.5,327.5,187.0,343.5,173.5,359.5,147.5" stroke="black" stroke-width="2" fill="none" />
<polyline points="280.0,142.0,268.0,126.0,280.0,110.0" stroke="black" stroke-width="2" fill="none" />
<polyline points="279.5,104.5,263.5,120.5,265.5,136.5,271.5,142.5,287.5,148.5,303.5,140.0" stroke="black" stroke-width="2" fill="none" />
<polyline points="312.5,158.5,324.5,143.0,327.0,127.0,318.5,111.0,295.0,95.0" stroke="black" stroke-width="2" fill="none" />
<polyline points="291.5,89.5,319.5,105.5,329.5,121.5,329.5,137.0,323.5,153.0,305.5,168.5" stroke="black" stroke-width="2" fill="none" />
<polyline points="268.5,208.5,252.5,214.5,246.5,228.5,238.5,246.5,232.5,262.5,230.5,278.5,233.0,294.5,238.5,310.0,244.5,326.0,234.5,341.5,218.5,355.0,212.0,371.5,206.0,387.5,208.0,408.0,206.5,424.0,200.5,440.5,190.5,457.0,204.0,473.0,207.5,489.0,201.5,504.5,223.5,484.5,239.5,488.5,255.5,496.5,271.5,492.5,287.5,482.0,304.0,478.0,320.5,470.0,334.5,463.5,348.5,486.0,365.0,500.0,381.0,506.0" stroke="black" stroke-width="2" fill="none" />
<polyline points="230.5,458.5,233.0,443.0,229.0,427.0,223.0,411.0" stroke="black" stroke-width="2" fill="none" />
<polyline points="220.5,406.0,220.5,422.0,226.5,437.5,226.0,453.0,210.0,463.0,231.5,473.0,247.5,476.5,263.0,481.0" stroke="black" stroke-width="2" fill="none" />
<polyline points="170.0,388.5,186.5,399.0,200.5,397.5,216.5,358.0" stroke="black" stroke-width="2" fill="none" />
<polyline points="228.5,339.0,232.5,335.0,237.0,319.0,231.0,303.0,226.5,287.5,226.5,271.5,228.0,255.5,236.0,239.5,252.0,223.5,240.0,205.5,224.0,205.5,207.5,203.5,191.0,199.5,174.5,194.0,158.5,184.5,143.0,172.5" stroke="black" stroke-width="2" fill="none" />
<polyline points="142.0,164.0,160.0,186.5" stroke="black" stroke-width="2" fill="none" />
<polyline points="144.5,226.5,118.5,242.5,114.5,258.5,112.5,274.5,112.5,290.5,110.5,306.5,94.0,322.0,84.0,338.0" stroke="black" stroke-width="2" fill="none" />
<polyline points="97.5,341.0,79.5,357.0" stroke="black" stroke-width="2" fill="none" />
<polyline points="82.0,362.0,98.0,346.5" stroke="black" stroke-width="2" fill="none" />
<polyline points="115.5,366.0,113.5,382.5,109.5,399.0,109.5,415.5,109.0,432.0,103.0,448.5,103.0,473.0,103.0,485.0,102.5,485.0,118.5,479.0,134.0,483.0" stroke="black" stroke-width="2" fill="none" />
<polyline points="126.5,467.5,110.5,467.5" stroke="black" stroke-width="2" fill="none" />
<polyline points="95.5,505.5,80.0,505.5" stroke="black" stroke-width="2" fill="none" />
<polyline points="80.5,456.0,64.5,439.5" stroke="black" stroke-width="2" fill="none" />
<polyline points="66.5,450.5,50.5,452.0,34.0,456.0,18.0,456.0,2.0,456.0" stroke="black" stroke-width="2" fill="none" />
<polyline points="4.5,456.5,10.5,472.0,14.5,481.5" stroke="black" stroke-width="2" fill="none" />
<polyline points="26.0,470.0,10.0,462.0" stroke="black" stroke-width="2" fill="none" />
<polyline points="9.0,460.0,17.0,475.5,31.0,481.5" stroke="black" stroke-width="2" fill="none" />
<polyline points="25.5,478.0,13.0,461.5" stroke="black" stroke-width="2" fill="none" />
<polyline points="30.0,460.5,32.0,476.0,40.0,459.5,56.0,467.5,71.5,479.5" stroke="black" stroke-width="2" fill="none" />
<polyline points="68.0,478.5,46.0,462.5" stroke="black" stroke-width="2" fill="none" />
<polyline points="17.5,428.5,1.5,421.0" stroke="black" stroke-width="2" fill="none" />
<polyline points="1.0,416.0,17.0,422.0" stroke="black" stroke-width="2" fill="none" />
<polyline points="48.0,381.5,64.0,378.0,80.0,374.5,96.0,368.5,111.5,346.0,127.5,312.0" stroke="black" stroke-width="2" fill="none" />
<polyline points="142.5,311.0,133.0,341.0,135.5,339.0,138.0,323.0,148.0,307.0,148.0,290.5,150.5,275.0,166.5,269.5,150.5,273.0" stroke="black" stroke-width="2" fill="none" />
<polyline points="141.0,268.5,139.0,284.5,134.5,300.5,126.5,316.5,118.5,332.5,112.5,348.5,100.5,364.0,76.0,360.0,92.0,346.0" stroke="black" stroke-width="2" fill="none" />
<polyline points="95.5,315.0,111.5,316.5" stroke="black" stroke-width="2" fill="none" />
<polyline points="106.5,330.0,90.0,342.0,74.5,348.0,58.5,341.5,33.0,333.5,17.0,344.0,35.0,332.0" stroke="black" stroke-width="2" fill="none" />
<polyline points="45.0,335.0,29.0,349.0,29.0,349.5,47.0,334.0" stroke="black" stroke-width="2" fill="none" />
<polyline points="47.5,337.5,31.5,353.5,35.5,347.5" stroke="black" stroke-width="2" fill="none" />
<polyline points="59.0,333.5,61.0,337.5" stroke="black" stroke-width="2" fill="none" />
<polyline points="28.0,313.0,40.0,297.0,41.5,271.0,51.0,255.0,49.5,241.0,33.5,227.0,17.5,219.5,2.0,215.5" stroke="black" stroke-width="2" fill="none" />
<polyline points="5.0,216.5,26.5,232.5,40.5,234.0,50.5,250.0,42.0,266.5,22.0,274.5,10.0,290.0,4.0,291.5,13.5,295.0,7.5,320.5,15.5,322.0,27.5,312.5,35.5,287.0" stroke="black" stroke-width="2" fill="none" />
<polyline points="43.5,287.0,27.5,310.5,11.5,316.5" stroke="black" stroke-width="2" fill="none" />
<polyline points="14.5,254.5,19.0,270.5,9.0,274.5,15.0,254.5" stroke="black" stroke-width="2" fill="none" />
<polyline points="11.5,253.5,5.5,269.5,10.0,281.5,16.0,273.5,24.0,269.5" stroke="black" stroke-width="2" fill="none" />
<polyline points="43.5,260.0,36.0,266.0,42.0,250.0,28.0,246.0,18.0,232.0,2.0,228.0" stroke="black" stroke-width="2" fill="none" />
<polyline points="30.5,235.5,30.5,251.5,29.5,277.5,40.0,283.5,34.0,297.5,20.0,314.0,28.0,330.0,14.5,345.5,24.5,331.5,34.0,327.0,50.0,327.0,66.0,339.0,82.0,339.5,103.5,325.5,129.5,320.0" stroke="black" stroke-width="2" fill="none" />
<polyline points="155.0,305.5,155.0,289.5" stroke="black" stroke-width="2" fill="none" />
<polyline points="164.0,276.5,164.0,292.5,166.0,308.0,166.0,324.0" stroke="black" stroke-width="2" fill="none" />
<polyline points="209.5,320.0,217.5,336.0,215.5,352.0,207.0,368.0,202.5,383.5,198.0,400.0,211.5,356.0" stroke="black" stroke-width="2" fill="none" />
<polyline points="241.0,335.5,225.0,352.0,223.0,334.0,213.0,318.5" stroke="black" stroke-width="2" fill="none" />
<polyline points="189.0,328.0,189.0,312.0,194.5,296.0,195.0,279.5" stroke="black" stroke-width="2" fill="none" />
<polyline points="183.0,276.0,185.0,291.5,189.0,319.5,205.0,314.0,221.0,326.5" stroke="black" stroke-width="2" fill="none" />
<polyline points="228.0,262.0,251.5,236.0,267.5,232.0,283.0,230.0" stroke="black" stroke-width="2" fill="none" />
<polyline points="293.0,230.0,301.0,245.5,307.5,261.5,310.0,277.5,310.5,293.5,310.5,310.0,311.0,326.0,313.0,342.0,330.5,358.0,374.5,374.0,392.5,386.5,408.5,386.5,424.5,390.0,440.5,392.0,456.5,388.0,472.5,398.0,488.0,412.0" stroke="black" stroke-width="2" fill="none" />
<polyline points="497.5,308.5,475.5,316.0,459.0,328.0,449.0,350.0,434.5,353.5,428.0,359.5,412.0,359.5,400.0,366.0,396.0,360.0,368.5,341.5,354.5,333.5,360.0,325.0,350.0,309.0,346.0,293.0,344.5,277.5,343.0,262.0,355.5,246.0,379.5,232.5,381.0,216.0,380.5,200.0,380.0,183.5,379.5,167.5,379.5,151.0,379.5,135.0,379.5,119.5,379.5,103.5,379.0,87.5,379.0,71.5,385.0,55.5,371.5,47.5,356.0,49.5,340.0,49.5,324.0,47.5,308.5,49.5,293.0,50.0,277.5,50.0,261.5,50.0,246.0,50.0,229.5,50.0,213.5,50.0,197.0,50.0,180.5,49.5,164.0,49.5,148.0,49.5,131.5,49.5,115.5,49.5,99.5,49.5,83.5,49.5" stroke="black" stroke-width="2" fill="none" />
<polyline points="228.0,73.5,192.0,89.5,175.5,105.5,165.5,121.5,161.5,137.5,162.0,154.0,176.0,169.5" stroke="black" stroke-width="2" fill="none" />
<polyline points="177.5,230.5,183.5,246.5,189.5,250.5,187.5,266.5,177.5,284.0,180.0,300.0,181.5,316.0,179.5,332.0,187.5,328.0,203.5,318.0" stroke="black" stroke-width="2" fill="none" />
<polyline points="153.0,324.0,137.0,347.5,147.0,332.0,159.0,316.0,171.0,306.5,169.0,290.5,171.0,274.5" stroke="black" stroke-width="2" fill="none" />
<polyline points="144.0,264.5,144.0,281.0,141.5,297.0,133.5,312.5,125.5,328.5,119.5,344.0,114.0,360.0,89.5,376.0,86.0,360.0" stroke="black" stroke-width="2" fill="none" />
<polyline points="53.5,381.5,69.5,381.5,85.5,377.5,101.5,369.5,116.0,363.5,110.0,379.5,106.0,395.5,103.5,411.0,103.0,427.0,99.5,443.0,100.0,459.0,95.5,475.5,93.5,491.5,99.5,493.5,110.0,492.0,112.0,486.0,128.0,484.0" stroke="black" stroke-width="2" fill="none" />
<polyline points="81.5,480.0,69.5,494.0,77.5,478.5,75.5,462.5,67.5,446.5,61.0,430.5,59.0,414.5,55.5,398.0,53.5,382.0" stroke="black" stroke-width="2" fill="none" />
<polyline points="49.5,378.0,49.0,394.0,53.0,409.5,55.0,425.5,57.0,441.5,60.5,453.5,80.5,461.5,82.5,477.5,74.5,493.5,75.0,481.5,103.0,465.0,119.0,461.5" stroke="black" stroke-width="2" fill="none" />
<polyline points="120.0,253.0,136.0,230.5,152.5,226.0,168.5,228.0,185.0,227.5,201.0,229.5" stroke="black" stroke-width="2" fill="none" />
<polyline points="192.5,250.5,193.0,266.5,191.0,283.0,189.0,307.5" stroke="black" stroke-width="2" fill="none" />
<polyline points="233.5,260.5,247.0,228.5" stroke="black" stroke-width="2" fill="none" />
<polyline points="296.0,227.0,306.0,243.0,311.5,259.0,313.5,275.0,315.5,291.0,315.5,307.0,315.0,322.5,315.0,338.5,321.5,350.0,337.5,360.0,353.5,366.0,369.0,372.0,379.0,383.5,383.0,375.5,399.0,373.5,414.5,373.5,430.5,367.5,446.5,355.5,464.5,349.5,475.0,345.5,491.0,351.0,507.0,353.5" stroke="black" stroke-width="2" fill="none" />
<polyline points="300.0,316.0,302.0,300.0" stroke="black" stroke-width="2" fill="none" />
<polyline points="180.0,238.0,160.5,240.0,144.5,237.5" stroke="black" stroke-width="2" fill="none" />
<polyline points="125.5,237.0,119.5,253.0,117.5,269.5,117.5,285.5,115.5,302.0,105.5,324.0,97.5,338.0" stroke="black" stroke-width="2" fill="none" />
<polyline points="308.0,174.0,330.0,158.0,340.0,142.0,339.5,125.5,331.5,109.5,313.5,94.0,280.0,78.5" stroke="black" stroke-width="2" fill="none" />
<polyline points="284.0,73.0,318.0,89.5,336.0,105.5,344.0,121.5,346.0,137.5,340.0,153.5,326.0,169.5" stroke="black" stroke-width="2" fill="none" />
<polyline points="232.0,77.5,196.0,93.5,180.0,110.0,170.0,126.0,166.0,141.5,172.5,157.5,192.0,173.5" stroke="black" stroke-width="2" fill="none" />
</svg>