<svg xmlns="http://www.w3.org/2000/svg" width="512mm" height="512mm" viewBox="0 0 512 512" version="1.1"><polyline points="27.5,68.5,27.5,84.5,35.5,84.5,31.5,92.5,11.5,111.0,3.5,117.0,3.5,133.0,23.5,137.0,29.0,137.0,31.0,150.5,32.5,166.5,31.0,182.5,37.0,196.5,41.0,212.5,39.5,228.0,41.5,243.5" stroke="black" stroke-width="2" fill="none" />
<polyline points="32.5,263.5,48.5,267.5,74.5,266.0,86.5,282.0,84.5,298.0,84.5,314.0,84.5,330.0,90.0,346.0,90.0,374.0,82.0,389.5,94.0,407.5,88.0,423.5,70.0,440.0" stroke="black" stroke-width="2" fill="none" />
<polyline points="70.0,419.0,54.5,423.0,38.0,431.0,22.0,431.0" stroke="black" stroke-width="2" fill="none" />
<polyline points="3.0,428.5,19.0,430.5,35.0,426.5,53.5,428.5,69.5,424.5,85.5,420.5,101.0,388.5,127.0,384.5,143.0,368.0,158.5,371.5" stroke="black" stroke-width="2" fill="none" />
<polyline points="143.5,361.0,127.5,364.5,112.0,377.0,96.0,403.0,104.0,393.0,111.5,377.0,118.0,361.5,112.0,346.0,103.5,330.0,95.5,314.0,90.0,298.5,92.0,282.5,88.0,278.0,72.0,269.5" stroke="black" stroke-width="2" fill="none" />
<polyline points="64.0,266.0,80.0,268.0,96.5,273.5,98.5,286.0,105.0,302.0,111.0,318.0" stroke="black" stroke-width="2" fill="none" />
<polyline points="106.5,297.5,106.5,275.5" stroke="black" stroke-width="2" fill="none" />
<polyline points="88.0,295.0,104.0,328.5" stroke="black" stroke-width="2" fill="none" />
<polyline points="102.0,336.0,86.0,304.0" stroke="black" stroke-width="2" fill="none" />
<polyline points="84.0,316.5,90.0,332.5,88.0,340.0" stroke="black" stroke-width="2" fill="none" />
<polyline points="80.5,315.5,92.5,317.5,100.5,333.5,108.5,350.0,110.0,366.5,103.5,382.5,93.5,398.5,86.0,414.5,94.0,432.5,64.5,448.5,42.5,474.5,18.0,490.0,14.0,500.0,6.0,500.0,22.0,487.5,38.0,475.5,63.5,467.0,79.5,457.0,96.0,449.0,112.0,435.0,128.0,419.0,144.0,417.5,160.0,417.5,172.0,425.5" stroke="black" stroke-width="2" fill="none" />
<polyline points="167.5,432.0,165.5,448.0,159.5,464.5,147.5,480.5,154.0,483.0,170.0,469.0" stroke="black" stroke-width="2" fill="none" />
<polyline points="170.0,469.5,156.0,485.5,136.0,501.5,134.0,503.5,150.0,492.0,166.0,476.0" stroke="black" stroke-width="2" fill="none" />
<polyline points="177.0,487.5,167.0,503.5,169.0,502.0,187.5,482.5,204.0,466.5,220.5,465.0,236.5,464.5,252.5,468.5,253.0,474.5,271.5,480.5,281.5,494.5,297.5,498.5,313.5,501.0,329.5,503.0" stroke="black" stroke-width="2" fill="none" />
<polyline points="346.0,464.0,362.5,444.0,378.5,428.0,394.5,424.0,410.0,420.0,426.0,421.5,427.5,427.5,446.0,429.5,462.0,433.0,477.5,437.0,493.5,439.0,509.5,439.0" stroke="black" stroke-width="2" fill="none" />
<polyline points="507.0,414.0,491.5,414.0,475.5,416.0,460.0,416.0,444.0,420.0" stroke="black" stroke-width="2" fill="none" />
<polyline points="437.5,414.5,453.5,392.5" stroke="black" stroke-width="2" fill="none" />
<polyline points="450.0,369.0,434.5,363.5,419.0,355.5,403.0,333.5" stroke="black" stroke-width="2" fill="none" />
<polyline points="398.5,340.5,414.5,360.5,431.0,368.5,447.0,374.5,455.0,384.5,449.0,400.5,433.0,414.5,448.5,390.5" stroke="black" stroke-width="2" fill="none" />
<polyline points="426.0,362.0,406.5,346.0,401.0,330.0,395.0,300.0,379.0,288.0,363.0,288.5,347.0,286.5" stroke="black" stroke-width="2" fill="none" />
<polyline points="345.5,293.5,362.0,309.5,378.0,338.0" stroke="black" stroke-width="2" fill="none" />
<polyline points="412.5,331.5,428.5,349.5" stroke="black" stroke-width="2" fill="none" />
<polyline points="434.0,347.0,418.0,333.5" stroke="black" stroke-width="2" fill="none" />
<polyline points="432.5,349.0,416.5,332.5,415.0,324.0,399.0,300.0,383.5,278.0,367.5,282.0,352.0,282.0,336.5,284.0,320.0,282.5,304.5,282.5,288.5,282.5,272.5,282.0,256.0,281.5,240.0,281.5,224.0,281.5,208.0,281.5,192.0,281.5,176.0,281.0,160.5,281.0" stroke="black" stroke-width="2" fill="none" />
<polyline points="162.5,266.0,178.5,268.0,194.0,268.0,210.0,267.5,226.0,269.5,242.0,269.5,258.0,269.0,274.5,267.5,290.5,267.5,307.0,267.5,323.0,268.0,339.0,268.0,355.0,265.5,371.0,265.0" stroke="black" stroke-width="2" fill="none" />
<polyline points="387.0,264.5,371.0,272.5,355.0,272.5,339.0,272.5,322.5,272.5,306.5,274.5,290.5,274.5,274.5,274.5,258.5,274.5,242.5,274.5,226.0,274.5,210.5,274.5,194.5,274.0,178.5,273.5,162.5,273.0,146.0,290.5" stroke="black" stroke-width="2" fill="none" />
<polyline points="139.0,288.5,142.5,272.5" stroke="black" stroke-width="2" fill="none" />
<polyline points="122.0,216.5,106.0,188.5,90.0,166.0" stroke="black" stroke-width="2" fill="none" />
<polyline points="91.0,162.5,92.5,182.5,108.5,204.0" stroke="black" stroke-width="2" fill="none" />
<polyline points="122.0,177.0,106.0,159.0" stroke="black" stroke-width="2" fill="none" />
<polyline points="84.5,169.5,98.5,173.5,102.5,173.5,112.5,189.0,122.5,205.0,126.5,221.0" stroke="black" stroke-width="2" fill="none" />
<polyline points="172.5,203.0,188.5,201.0" stroke="black" stroke-width="2" fill="none" />
<polyline points="186.5,194.5,170.5,198.5" stroke="black" stroke-width="2" fill="none" />
<polyline points="174.5,182.0,190.5,172.0,206.5,182.0,222.0,172.0,238.0,174.5,254.0,176.5,250.0,180.5,240.0,180.5,236.0,196.5" stroke="black" stroke-width="2" fill="none" />
<polyline points="244.5,172.5,234.5,188.5,212.5,198.5,228.5,198.5,250.5,202.5,268.5,202.5,284.0,200.0,308.0,206.0,324.0,197.5,340.0,200.0,358.0,200.0,369.5,198.0" stroke="black" stroke-width="2" fill="none" />
<polyline points="359.5,194.5,349.5,192.5,363.5,190.5,359.5,174.5" stroke="black" stroke-width="2" fill="none" />
<polyline points="338.0,175.0,342.0,191.0" stroke="black" stroke-width="2" fill="none" />
<polyline points="320.0,158.0,318.0,147.5,330.0,145.5,316.0,145.5,326.0,139.5,310.0,137.5" stroke="black" stroke-width="2" fill="none" />
<polyline points="315.0,134.5,311.0,150.5,321.0,176.0,327.0,177.5,325.0,193.5,315.0,197.0,311.5,193.0,314.0,185.5,332.0,171.5,348.0,177.5,364.0,173.5,380.0,173.5,382.0,177.0,386.0,189.0,416.0,169.0,432.0,157.0,448.0,155.0,464.0,151.0,479.5,137.5,495.5,135.5" stroke="black" stroke-width="2" fill="none" />
<polyline points="506.0,141.5,490.0,145.5,474.0,145.0" stroke="black" stroke-width="2" fill="none" />
<polyline points="482.5,136.5,467.0,148.5,471.0,162.5,449.0,172.0,423.0,180.0,405.0,195.5,399.0,211.5,397.0,227.0,403.5,213.0,405.5,195.0,421.5,181.5" stroke="black" stroke-width="2" fill="none" />
<polyline points="441.0,191.5,457.0,177.5,453.5,173.5,443.5,177.5,429.5,193.0,435.5,207.0,435.5,223.5,426.0,225.5,414.5,242.0,405.0,258.0" stroke="black" stroke-width="2" fill="none" />
<polyline points="401.0,234.0,417.0,216.0,433.0,199.5,449.0,195.0,454.5,207.0,452.0,211.5,466.0,201.5,469.5,189.5,497.5,175.5" stroke="black" stroke-width="2" fill="none" />
<polyline points="498.5,170.5,486.5,186.5,476.5,202.5,466.5,218.5,472.5,210.5,488.5,182.5,495.0,166.5,508.5,168.0" stroke="black" stroke-width="2" fill="none" />
<polyline points="502.0,194.0,486.0,195.5,470.0,221.5,478.5,211.5,486.5,195.0" stroke="black" stroke-width="2" fill="none" />
<polyline points="479.5,185.0,465.5,201.0,455.5,217.5,443.5,229.5,443.5,246.0,449.5,262.0" stroke="black" stroke-width="2" fill="none" />
<polyline points="439.0,234.0,439.5,217.5,439.5,201.5,459.0,187.5,473.5,184.0,467.5,186.0,451.5,198.0" stroke="black" stroke-width="2" fill="none" />
<polyline points="448.0,203.5,448.5,219.5,448.5,235.5,450.5,252.0" stroke="black" stroke-width="2" fill="none" />
<polyline points="410.5,246.0,398.0,264.0,404.0,248.0,413.5,232.0,411.5,207.5,427.5,205.5,443.5,203.5,451.5,191.5,465.5,187.5,481.5,171.5,493.5,165.5,509.5,149.5,497.5,132.0,481.5,131.5,465.5,140.0,449.5,144.0,433.5,150.5,417.5,160.5,399.0,166.5,397.5,150.5,397.5,134.5,398.0,118.0,398.0,102.0,412.0,76.5,396.0,82.5,380.0,84.0,364.0,83.5,347.5,83.5,332.0,83.5,316.5,84.0,300.5,84.0,284.5,86.5,268.5,86.5,252.0,86.5,236.0,86.5,219.5,86.5,203.5,86.0,187.5,86.0,171.5,86.0,155.0,86.0,139.0,86.0,123.5,86.0,108.0,84.0,92.0,76.5,75.5,73.0,59.5,69.0,44.0,69.0,28.0,68.5" stroke="black" stroke-width="2" fill="none" />
<polyline points="13.0,72.0,23.5,88.0,47.0,113.5,39.5,129.5,45.5,137.5,48.0,153.5,52.0,169.5,56.5,186.0" stroke="black" stroke-width="2" fill="none" />
<polyline points="62.0,170.0,78.0,200.0" stroke="black" stroke-width="2" fill="none" />
<polyline points="99.5,198.5,83.5,177.0" stroke="black" stroke-width="2" fill="none" />
<polyline points="77.5,177.0,93.5,199.0" stroke="black" stroke-width="2" fill="none" />
<polyline points="109.5,158.0,93.5,149.5,76.0,137.5" stroke="black" stroke-width="2" fill="none" />
<polyline points="76.0,132.0,103.5,148.0,116.0,164.5,124.0,186.5" stroke="black" stroke-width="2" fill="none" />
<polyline points="168.5,171.5,185.0,159.5,201.0,145.5,183.0,159.5,169.0,175.5,179.0,171.5,195.0,163.5,212.5,181.5,228.5,181.5,253.0,181.5,275.0,175.5,285.0,175.5,292.5,193.5,300.0,173.0,320.0,185.0,336.0,177.5,337.5,193.0,359.0,177.0,375.0,199.0,384.5,213.0,400.5,193.0,414.5,175.0,431.0,163.5,433.0,161.5,421.5,164.0" stroke="black" stroke-width="2" fill="none" />
<polyline points="403.5,147.5,405.0,131.5,405.5,116.0,405.5,100.0,397.5,76.0,381.5,76.0,365.5,76.0,349.5,76.0,333.5,76.0,317.5,76.5,301.5,76.5,285.5,76.5,269.5,76.0,253.5,76.0,237.5,76.5" stroke="black" stroke-width="2" fill="none" />
<polyline points="257.5,81.0,274.0,81.0,290.0,80.5,306.0,80.0,322.5,80.0" stroke="black" stroke-width="2" fill="none" />
<polyline points="390.0,96.5,393.5,112.0,391.5,127.5,393.5,143.5,394.0,160.0,394.0,176.0,390.0,192.0,376.0,188.0,384.5,188.0,394.5,207.5,403.0,217.5,389.0,233.5,388.5,250.0,386.5,266.0,406.5,244.0,420.5,232.0" stroke="black" stroke-width="2" fill="none" />
<polyline points="392.5,288.5,401.0,304.5,405.0,320.5,411.0,336.5,429.5,352.0,443.5,371.5,449.5,387.0,437.5,403.0,435.5,419.0,437.5,424.5,448.0,412.5,464.0,410.5,480.5,408.5,496.5,409.0" stroke="black" stroke-width="2" fill="none" />
<polyline points="505.0,455.0,489.5,455.0,474.0,451.0,458.0,447.0,442.5,443.0,426.5,433.0" stroke="black" stroke-width="2" fill="none" />
<polyline points="415.0,431.5,431.0,439.5,447.0,448.0,463.0,454.0,479.0,458.5,495.0,460.5,511.0,458.5" stroke="black" stroke-width="2" fill="none" />
<polyline points="430.5,461.0,414.5,447.0" stroke="black" stroke-width="2" fill="none" />
<polyline points="413.5,442.5,430.0,450.5" stroke="black" stroke-width="2" fill="none" />
<polyline points="419.5,444.0,439.0,460.0" stroke="black" stroke-width="2" fill="none" />
<polyline points="440.0,465.5,420.0,449.5,414.5,433.0" stroke="black" stroke-width="2" fill="none" />
<polyline points="407.5,429.0,401.5,445.0,401.5,461.0,405.5,477.5" stroke="black" stroke-width="2" fill="none" />
<polyline points="397.5,468.0,396.0,452.0,400.5,436.0,398.0,440.5" stroke="black" stroke-width="2" fill="none" />
<polyline points="382.5,446.5,398.0,426.5,414.0,426.5,429.5,428.5,445.5,437.0,461.5,440.5,478.5,445.0,494.5,447.0,511.0,446.5" stroke="black" stroke-width="2" fill="none" />
<polyline points="441.5,441.5,421.5,425.5,413.5,417.5" stroke="black" stroke-width="2" fill="none" />
<polyline points="377.0,447.5,395.0,427.5,385.0,443.5,381.0,459.5,381.0,476.0,389.0,492.5,401.0,509.0" stroke="black" stroke-width="2" fill="none" />
<polyline points="394.5,507.0,378.5,481.0" stroke="black" stroke-width="2" fill="none" />
<polyline points="371.0,486.0,366.5,466.0" stroke="black" stroke-width="2" fill="none" />
<polyline points="348.5,460.5,350.5,476.5,354.5,492.0,372.5,508.0" stroke="black" stroke-width="2" fill="none" />
<polyline points="394.0,498.5,378.0,470.0,366.0,472.0,362.0,455.5,342.0,457.5" stroke="black" stroke-width="2" fill="none" />
<polyline points="361.0,505.5,359.0,501.5,341.0,506.0,345.5,480.5,342.0,464.5,350.0,449.0,364.0,435.0,372.5,416.5,376.0,400.5,379.5,384.0,381.5,368.0,379.5,352.0,375.0,336.0,369.5,319.5,355.0,303.5,328.5,287.5,328.0,293.5" stroke="black" stroke-width="2" fill="none" />
<polyline points="337.5,281.5,355.5,297.5,372.0,313.5,380.0,329.5,384.0,345.5,388.0,361.5,386.0,377.5,382.0,393.5,380.0,409.5,379.5,426.0,363.5,442.0,359.5,452.0,359.5,468.0,368.0,483.5,382.5,499.5,384.5,491.5,394.5,507.5" stroke="black" stroke-width="2" fill="none" />
<polyline points="338.5,496.0,322.5,495.5,306.5,493.5,291.0,491.5,275.0,485.5" stroke="black" stroke-width="2" fill="none" />
<polyline points="270.0,455.5,286.0,447.0,302.0,451.5,322.0,459.5,324.5,476.0" stroke="black" stroke-width="2" fill="none" />
<polyline points="330.5,470.0,307.0,456.0,291.5,453.5,276.0,452.0" stroke="black" stroke-width="2" fill="none" />
<polyline points="272.5,503.5,266.0,487.5,282.0,471.5,269.5,455.5,259.0,429.0,249.5,413.5,251.5,397.5,248.0,381.5,246.5,365.5,247.0,350.0,250.5,334.5,258.0,319.0,267.5,303.0,265.5,307.5,249.5,333.5" stroke="black" stroke-width="2" fill="none" />
<polyline points="242.5,340.5,258.0,306.0,270.0,292.0,258.0,308.0,248.0,323.5,242.0,339.5,239.5,355.0,239.5,371.0,244.0,387.0,256.0,411.0,264.0,427.0,272.0,445.5,266.0,463.5,274.0,471.5,260.5,484.0,252.0,488.0,256.5,490.0,262.0,494.0,268.5,510.0,250.5,500.0,244.5,508.0,254.5,498.0,272.5,476.0,274.5,482.5,290.5,482.5,306.5,487.0" stroke="black" stroke-width="2" fill="none" />
<polyline points="244.5,504.0,245.0,488.5,249.0,480.5,233.0,470.5,229.5,484.5" stroke="black" stroke-width="2" fill="none" />
<polyline points="219.5,495.5,209.5,483.5,194.0,481.0" stroke="black" stroke-width="2" fill="none" />
<polyline points="195.5,486.0,203.5,502.0" stroke="black" stroke-width="2" fill="none" />
<polyline points="204.5,498.5,204.5,487.0" stroke="black" stroke-width="2" fill="none" />
<polyline points="203.0,476.0,213.0,468.0,199.5,470.5,199.5,482.5,212.0,499.0" stroke="black" stroke-width="2" fill="none" />
<polyline points="225.0,506.0,225.5,490.0,231.5,474.0,222.0,468.0" stroke="black" stroke-width="2" fill="none" />
<polyline points="226.0,469.0,206.0,481.0,216.0,491.5,215.5,507.5" stroke="black" stroke-width="2" fill="none" />
<polyline points="202.0,505.0,186.0,489.0" stroke="black" stroke-width="2" fill="none" />
<polyline points="183.0,488.5,179.0,504.5,194.5,501.0" stroke="black" stroke-width="2" fill="none" />
<polyline points="199.5,503.0,191.5,487.0" stroke="black" stroke-width="2" fill="none" />
<polyline points="176.5,412.0,161.0,408.0,145.0,401.5,143.5,405.0" stroke="black" stroke-width="2" fill="none" />
<polyline points="140.0,412.0,156.0,414.0,164.5,432.0,162.5,448.0,167.0,467.5,152.5,483.5,140.5,491.5,122.5,507.5,134.5,497.0,150.0,475.0" stroke="black" stroke-width="2" fill="none" />
<polyline points="137.5,444.0,121.5,430.0" stroke="black" stroke-width="2" fill="none" />
<polyline points="122.0,434.5,136.0,450.0,141.5,466.5,125.5,482.5,124.0,492.5,140.5,478.5" stroke="black" stroke-width="2" fill="none" />
<polyline points="132.5,475.0,124.5,491.5,142.5,475.5,148.5,455.5,134.5,439.5,120.5,427.0,114.5,427.0,98.5,439.0,82.5,447.5,66.5,453.5,50.0,459.0,34.0,461.0,18.0,463.5,2.0,459.5" stroke="black" stroke-width="2" fill="none" />
<polyline points="1.5,466.0,17.5,467.5,33.5,467.5,49.5,465.5" stroke="black" stroke-width="2" fill="none" />
<polyline points="49.5,476.5,33.0,486.5,16.5,498.5,0.5,513.0" stroke="black" stroke-width="2" fill="none" />
<polyline points="2.0,451.0,18.0,453.0,34.5,455.0,50.5,452.5,67.0,448.5,83.0,442.0" stroke="black" stroke-width="2" fill="none" />
<polyline points="103.0,433.0,83.0,437.0,67.0,443.0,50.5,449.5,34.5,449.0,18.5,449.0,2.5,447.0" stroke="black" stroke-width="2" fill="none" />
<polyline points="35.5,483.5,63.5,467.0,93.5,450.5,111.5,434.0" stroke="black" stroke-width="2" fill="none" />
<polyline points="116.0,444.0,99.5,460.0,81.0,475.5,55.0,491.5,31.0,507.5,43.0,500.0,59.0,490.0,75.0,480.0,91.5,468.0,107.5,452.0,121.5,434.0,137.5,452.0" stroke="black" stroke-width="2" fill="none" />
<polyline points="121.5,446.0,105.5,462.0,87.0,478.5,61.0,494.5,39.5,510.5,51.5,502.5,67.5,492.5,83.5,482.0,99.5,468.0,115.5,452.0" stroke="black" stroke-width="2" fill="none" />
<polyline points="118.5,403.5,102.5,401.0" stroke="black" stroke-width="2" fill="none" />
<polyline points="100.5,405.5,116.5,410.0" stroke="black" stroke-width="2" fill="none" />
<polyline points="133.0,392.0,149.0,396.0,165.0,404.0,189.0,430.0,205.0,442.0,221.0,442.0,237.0,442.0,253.0,442.0" stroke="black" stroke-width="2" fill="none" />
<polyline points="173.0,403.5,157.5,389.5,141.0,389.5" stroke="black" stroke-width="2" fill="none" />
<polyline points="132.0,387.5,148.0,381.5,164.0,392.0,174.5,408.0,194.5,406.0,210.5,406.0,226.5,406.0,242.5,408.0,258.5,424.0,284.0,438.0,300.0,438.0,316.5,442.0,332.5,440.0,348.5,438.0,364.0,434.0,384.0,417.5,395.5,421.5,380.0,437.5,376.0,453.0,373.5,469.0,377.5,485.0" stroke="black" stroke-width="2" fill="none" />
<polyline points="364.0,497.5,338.0,487.5,336.0,482.0,324.0,480.0,308.0,480.0,292.5,478.0,276.5,464.0,264.0,448.0,248.0,448.5,232.0,448.5,215.5,446.0,199.5,446.0,180.0,464.0,164.0,498.0,162.5,501.5,172.5,485.5,178.0,469.5,184.0,453.5,184.0,437.5,182.0,421.5,180.0,407.5,174.0,397.5,166.5,381.5,160.5,377.5,158.5,355.5,152.5,339.5,150.5,323.5,150.5,307.5,156.5,281.5,160.5,261.5,166.5,246.0,168.5,230.5,170.0,214.5,172.0,194.5,178.5,178.5,164.5,168.5,186.5,152.5,192.5,144.5,176.5,151.0,161.0,158.5,144.5,148.5,130.5,148.0,120.5,142.5,112.5,136.0,100.0,120.0,80.0,118.0,64.0,116.0" stroke="black" stroke-width="2" fill="none" />
<polyline points="63.5,113.0,79.5,98.5,113.5,101.0,125.5,113.0,140.0,129.0,146.0,143.0,158.0,158.5,176.5,158.0,192.5,147.5,160.5,151.5" stroke="black" stroke-width="2" fill="none" />
<polyline points="128.0,140.0,112.0,126.0,96.0,116.5,80.0,110.5" stroke="black" stroke-width="2" fill="none" />
<polyline points="76.5,109.5,92.5,110.0,108.0,118.0,123.5,130.0" stroke="black" stroke-width="2" fill="none" />
<polyline points="109.5,139.5,93.5,129.5,77.5,121.5" stroke="black" stroke-width="2" fill="none" />
<polyline points="83.0,125.0,110.5,141.0,131.0,157.0,130.5,173.0,138.5,188.5,142.0,204.5,142.5,220.5,135.0,236.0,121.5,252.0,111.5,279.5,121.5,296.0,111.5,304.0" stroke="black" stroke-width="2" fill="none" />
<polyline points="65.5,296.0,61.5,296.0,69.5,291.5,71.0,284.0,61.0,286.0" stroke="black" stroke-width="2" fill="none" />
<polyline points="73.5,259.5,89.5,259.5,105.5,263.5,121.5,249.5" stroke="black" stroke-width="2" fill="none" />
<polyline points="113.5,155.0,97.5,145.0,81.5,134.5,65.5,128.5" stroke="black" stroke-width="2" fill="none" />
<polyline points="62.0,131.5,77.5,147.5,85.5,173.0,97.5,189.0,101.0,205.0" stroke="black" stroke-width="2" fill="none" />
<polyline points="75.5,186.0,59.5,162.0" stroke="black" stroke-width="2" fill="none" />
<polyline points="64.0,164.0,72.0,180.0,80.0,196.0,90.0,212.5" stroke="black" stroke-width="2" fill="none" />
<polyline points="117.0,230.5,110.5,215.0,106.5,205.0,106.0,189.5,119.5,177.0,105.0,161.0,97.0,159.0,70.5,152.5,54.0,135.0" stroke="black" stroke-width="2" fill="none" />
<polyline points="51.5,138.5,61.5,154.5,61.0,170.5,69.0,186.5,76.5,202.0,84.5,218.0,90.5,243.5" stroke="black" stroke-width="2" fill="none" />
<polyline points="136.0,180.0,117.5,152.0,101.5,140.5,85.5,130.5,69.5,122.5,53.5,130.5" stroke="black" stroke-width="2" fill="none" />
<polyline points="69.0,132.5,87.0,148.5,97.0,156.0,91.0,172.0,110.5,178.0,122.5,193.5,118.5,207.5,120.5,224.0,142.5,216.0" stroke="black" stroke-width="2" fill="none" />
<polyline points="108.0,245.0,106.0,229.0,100.0,213.0,91.5,197.0,79.5,181.0,69.5,165.5,69.5,155.5,60.0,140.0,46.0,120.5,30.0,124.5,14.0,114.5" stroke="black" stroke-width="2" fill="none" />
<polyline points="10.0,124.5,10.0,118.0,26.0,125.5,42.0,149.5,45.5,165.5,51.5,181.5,47.5,197.0,46.0,213.0,44.5,229.5" stroke="black" stroke-width="2" fill="none" />
<polyline points="28.5,179.5,28.5,163.5,28.5,148.0,8.5,128.5" stroke="black" stroke-width="2" fill="none" />
<polyline points="9.0,149.5,25.5,142.0,48.0,135.5,64.0,153.0,80.5,171.0,96.5,155.0,112.5,171.0,113.0,179.5,123.0,203.5" stroke="black" stroke-width="2" fill="none" />
<polyline points="128.0,234.0,112.0,252.0,96.0,258.0,80.0,253.5,64.0,262.0,58.0,260.0,42.5,260.5,35.0,271.0,19.0,275.0,3.0,273.0" stroke="black" stroke-width="2" fill="none" />
<polyline points="3.5,264.5,7.0,260.5,23.0,266.5,10.5,278.0,4.0,292.0,4.0,297.5,15.5,283.5,15.5,275.5" stroke="black" stroke-width="2" fill="none" />
<polyline points="20.0,187.0,18.0,171.0,10.5,163.5,18.5,148.0,2.5,158.0" stroke="black" stroke-width="2" fill="none" />
<polyline points="2.0,152.0,12.0,136.5,4.0,152.0,5.5,166.0,5.5,181.5" stroke="black" stroke-width="2" fill="none" />
<polyline points="61.0,105.0,77.0,91.5,93.0,95.5,109.5,105.5" stroke="black" stroke-width="2" fill="none" />
<polyline points="96.5,113.0,122.5,128.5,138.5,144.5" stroke="black" stroke-width="2" fill="none" />
<polyline points="192.5,165.5,170.0,181.5,168.0,197.5,164.0,213.0,164.0,229.0,160.5,244.5,156.5,260.5,152.0,276.5,146.0,292.5,144.0,308.5,144.0,324.5,146.0,340.0,153.5,356.5,163.5,372.5,180.0,400.5,196.5,402.5,212.5,402.5,228.5,402.0,244.5,402.0,268.5,429.5,282.5,431.5,298.5,433.5,314.5,436.0,330.5,436.0,346.5,434.0" stroke="black" stroke-width="2" fill="none" />
<polyline points="358.0,413.5,366.0,397.5" stroke="black" stroke-width="2" fill="none" />
<polyline points="367.0,397.5,355.0,411.5,363.0,395.5" stroke="black" stroke-width="2" fill="none" />
<polyline points="349.0,391.0,333.0,417.0,335.0,415.0,345.0,399.5,353.0,384.0" stroke="black" stroke-width="2" fill="none" />
<polyline points="349.0,382.0,339.0,398.0,329.0,413.5,326.5,417.5,342.5,392.0" stroke="black" stroke-width="2" fill="none" />
<polyline points="306.5,354.0,307.0,337.5" stroke="black" stroke-width="2" fill="none" />
<polyline points="307.0,336.0,303.0,351.5,305.0,367.5" stroke="black" stroke-width="2" fill="none" />
<polyline points="316.5,315.5,300.5,291.5" stroke="black" stroke-width="2" fill="none" />
<polyline points="300.0,292.5,310.0,309.0" stroke="black" stroke-width="2" fill="none" />
<polyline points="303.0,316.5,299.0,300.5" stroke="black" stroke-width="2" fill="none" />
<polyline points="296.0,307.0,298.0,297.5,287.5,297.5,271.5,310.0,271.5,316.0,269.5,311.5,277.5,311.5,269.0,317.5" stroke="black" stroke-width="2" fill="none" />
<polyline points="307.0,292.5,317.0,308.5" stroke="black" stroke-width="2" fill="none" />
<polyline points="304.5,195.5,302.5,179.5" stroke="black" stroke-width="2" fill="none" />
<polyline points="297.5,177.5,301.5,193.5,292.0,195.5" stroke="black" stroke-width="2" fill="none" />
<polyline points="271.5,187.5,279.0,179.5,281.0,176.0" stroke="black" stroke-width="2" fill="none" />
<polyline points="279.5,189.0,264.0,195.5,246.0,196.0,228.0,194.5,212.0,192.5,196.5,200.0,202.5,200.0,204.5,188.5,217.0,172.5" stroke="black" stroke-width="2" fill="none" />
<polyline points="145.5,155.0,131.5,147.0,131.5,131.5,111.5,115.5,85.5,99.5" stroke="black" stroke-width="2" fill="none" />
<polyline points="88.0,93.5,114.0,109.5,128.0,112.0,144.0,136.0,160.0,151.5,176.5,143.5,192.0,137.5" stroke="black" stroke-width="2" fill="none" />
<polyline points="84.0,73.5,74.0,77.5,57.5,93.5,67.5,117.5,89.5,133.5,114.0,150.0,120.0,159.5,132.0,185.5,136.0,202.0,136.0,218.0,128.0,234.5,114.0,250.5,108.0,270.0" stroke="black" stroke-width="2" fill="none" />
<polyline points="135.0,367.5,131.0,383.5,156.5,400.0,164.5,416.0,186.5,428.0,192.5,446.0,188.0,462.0,182.0,478.5,186.0,490.5,184.0,507.0,192.0,509.0" stroke="black" stroke-width="2" fill="none" />
<polyline points="73.5,496.0,57.5,510.0,71.5,496.0" stroke="black" stroke-width="2" fill="none" />
<polyline points="82.5,399.5,94.5,375.5,89.0,391.5,89.0,375.5" stroke="black" stroke-width="2" fill="none" />
<polyline points="121.5,374.0,127.5,390.0,117.5,406.0,119.0,418.0,108.5,433.5,76.0,450.0" stroke="black" stroke-width="2" fill="none" />
<polyline points="11.0,390.0,17.0,374.5" stroke="black" stroke-width="2" fill="none" />
<polyline points="16.0,370.0,10.0,386.0,11.5,390.0" stroke="black" stroke-width="2" fill="none" />
<polyline points="21.0,91.5,13.0,75.5,11.0,70.0" stroke="black" stroke-width="2" fill="none" />
<polyline points="9.0,69.5,3.0,85.5,11.5,87.5,7.5,89.5,12.0,109.0,28.0,101.5,50.0,81.5,72.0,76.0,88.0,80.0,86.0,98.5,102.0,106.5,118.0,119.0,131.5,137.0" stroke="black" stroke-width="2" fill="none" />
<polyline points="68.0,75.0,56.0,77.5,52.0,77.5,46.0,93.5,52.0,97.5,60.0,89.5,88.0,83.5,102.5,91.5,114.5,93.5,131.0,93.5,147.0,94.0,163.0,91.5,179.0,91.5,195.0,92.0,211.0,92.5,227.0,92.5,243.0,92.5,258.5,92.5,274.5,92.5,290.5,92.5,307.0,92.5,323.0,92.5,339.0,92.5,355.5,92.5,371.5,92.5,387.5,94.5,407.0,88.5,413.0,90.5,411.0,106.0,410.5,121.5,410.5,137.5,410.5,153.5,408.5,169.5,400.5,186.0,402.0,194.5,393.5,196.5,387.5,212.5,384.0,228.5,382.0,244.5,382.5,260.5,392.5,284.5,392.0,300.0,396.0,316.0,396.0,332.0,400.0,347.5,416.0,363.5" stroke="black" stroke-width="2" fill="none" />
<polyline points="500.0,146.0,498.0,151.5,482.0,155.0,474.0,161.0,464.0,161.0,464.5,169.5,451.0,171.5,441.0,167.5,433.0,177.5,428.5,196.0,412.5,214.0,400.0,236.0,412.0,220.0,413.5,212.0,423.5,196.5,427.5,180.5,413.5,164.5,437.5,148.5,477.5,132.5" stroke="black" stroke-width="2" fill="none" />
<polyline points="376.0,317.5,359.5,299.5,343.5,293.5,327.5,285.5,311.5,285.5,295.5,285.0,279.0,289.0,263.0,287.0,247.5,286.5,231.5,287.0,216.0,287.0,200.0,287.0,184.5,287.5,168.5,288.0,144.5,276.0,126.0,302.0,120.0,286.0,108.0,270.0,98.5,266.0,112.5,244.5,110.5,228.5,110.5,212.5,110.5,204.5,99.0,198.5,87.0,182.5,80.5,166.5,82.0,156.5,68.0,140.5,60.0,124.5,62.0,108.5,50.0,104.0,37.5,99.5,39.5,83.0,47.5,77.0,67.5,69.0" stroke="black" stroke-width="2" fill="none" />
<polyline points="18.0,94.5,2.0,74.5" stroke="black" stroke-width="2" fill="none" />
</svg>