<svg xmlns="http://www.w3.org/2000/svg" width="512mm" height="512mm" viewBox="0 0 512 512" version="1.1"><polyline points="481.5,2.5,469.5,18.5,449.5,34.5,451.5,32.5,467.5,21.0" stroke="black" stroke-width="2" fill="none" />
<polyline points="471.5,31.0,457.5,47.0,461.5,41.0" stroke="black" stroke-width="2" fill="none" />
<polyline points="465.0,45.5,461.5,50.0,475.0,34.0" stroke="black" stroke-width="2" fill="none" />
<polyline points="474.0,19.0,457.5,35.5,459.5,33.5,475.0,17.5,487.0,1.5" stroke="black" stroke-width="2" fill="none" />
<polyline points="483.0,82.5,495.0,98.5,503.0,98.0,505.0,122.0,502.5,140.0,508.5,149.5" stroke="black" stroke-width="2" fill="none" />
<polyline points="487.0,144.0,471.0,142.0" stroke="black" stroke-width="2" fill="none" />
<polyline points="469.0,139.5,485.0,141.0,500.5,139.0" stroke="black" stroke-width="2" fill="none" />
<polyline points="496.5,165.5,480.0,159.0,464.0,147.0,448.0,135.0" stroke="black" stroke-width="2" fill="none" />
<polyline points="447.5,131.0,463.0,137.0,479.0,151.0,495.0,159.5,510.5,161.5" stroke="black" stroke-width="2" fill="none" />
<polyline points="501.0,149.0,485.5,149.0,470.0,147.5,448.0,123.0,432.0,121.0,416.5,121.5,401.0,121.5,385.0,121.5" stroke="black" stroke-width="2" fill="none" />
<polyline points="378.5,122.5,394.5,118.5,417.0,118.5,433.0,118.5,449.0,118.5,465.0,108.5,481.0,104.5" stroke="black" stroke-width="2" fill="none" />
<polyline points="482.5,103.5,464.0,109.5" stroke="black" stroke-width="2" fill="none" />
<polyline points="471.0,90.5,467.0,96.5,447.0,112.0,447.0,101.5,463.0,85.5,437.0,101.0,437.5,101.0" stroke="black" stroke-width="2" fill="none" />
<polyline points="447.5,88.5,429.5,92.5,407.5,108.5,425.5,114.5,441.5,114.5,457.5,106.0,482.0,100.0,498.0,102.0,498.5,126.0,510.5,130.0" stroke="black" stroke-width="2" fill="none" />
<polyline points="456.0,157.5,440.0,141.5,424.0,137.0" stroke="black" stroke-width="2" fill="none" />
<polyline points="422.0,138.0,438.0,136.0,453.5,148.0" stroke="black" stroke-width="2" fill="none" />
<polyline points="459.5,155.5,443.5,139.5" stroke="black" stroke-width="2" fill="none" />
<polyline points="438.5,136.5,448.5,152.5,462.5,168.5" stroke="black" stroke-width="2" fill="none" />
<polyline points="410.0,165.0,394.0,149.5" stroke="black" stroke-width="2" fill="none" />
<polyline points="391.5,142.5,408.0,144.5,424.0,158.5" stroke="black" stroke-width="2" fill="none" />
<polyline points="416.5,142.5,433.0,158.5,441.0,175.0,441.0,191.5,427.0,207.5,409.0,223.5,425.0,209.5,441.0,191.5" stroke="black" stroke-width="2" fill="none" />
<polyline points="439.0,170.5,423.0,148.5,407.0,138.5,391.0,138.0,375.0,138.0,359.0,138.0,342.5,138.0" stroke="black" stroke-width="2" fill="none" />
<polyline points="345.0,141.5,361.0,141.5,377.0,141.5,393.0,153.5,409.0,170.0" stroke="black" stroke-width="2" fill="none" />
<polyline points="386.0,158.5,382.0,175.0,375.5,191.0" stroke="black" stroke-width="2" fill="none" />
<polyline points="379.0,164.5,371.0,188.5,377.0,172.5,380.5,156.5" stroke="black" stroke-width="2" fill="none" />
<polyline points="378.0,143.5,398.5,159.5,412.5,175.5,414.5,192.0,402.5,208.0,396.5,214.0,412.5,196.0" stroke="black" stroke-width="2" fill="none" />
<polyline points="404.0,242.5,404.0,258.5,404.0,274.0,396.0,286.0" stroke="black" stroke-width="2" fill="none" />
<polyline points="423.5,261.0,429.5,245.0,407.5,283.0,407.5,267.0,407.5,251.0,427.5,252.5,411.5,250.5" stroke="black" stroke-width="2" fill="none" />
<polyline points="414.0,250.0,414.0,266.0" stroke="black" stroke-width="2" fill="none" />
<polyline points="418.5,260.0,415.0,243.5" stroke="black" stroke-width="2" fill="none" />
<polyline points="447.0,228.5,445.0,244.5,449.0,242.5,441.0,248.0,437.0,264.0,429.0,263.5,425.0,280.0,435.0,250.0,457.0,230.5" stroke="black" stroke-width="2" fill="none" />
<polyline points="481.0,262.5,497.0,274.5" stroke="black" stroke-width="2" fill="none" />
<polyline points="496.0,279.0,480.0,267.0" stroke="black" stroke-width="2" fill="none" />
<polyline points="476.5,274.0,472.0,270.0" stroke="black" stroke-width="2" fill="none" />
<polyline points="455.0,267.0,475.0,252.0,493.5,234.0,502.0,218.0,510.0,214.0,494.0,246.0,478.0,261.5,461.5,271.5,445.5,279.0,429.5,283.0,403.5,289.0,388.0,295.0,392.0,279.5,379.5,287.5,360.0,271.5,340.0,256.0,328.5,240.0,334.5,226.0,338.5,210.0,332.0,220.0" stroke="black" stroke-width="2" fill="none" />
<polyline points="322.0,231.5,326.5,215.5,337.0,199.5,327.5,215.5,321.0,232.0,305.5,248.0,277.5,264.0,285.5,278.0,286.0,294.5,288.5,310.5,276.0,335.0,274.0,351.0,274.0,366.5,275.5,398.5,291.0,402.0,307.0,391.5,323.0,371.5,343.0,373.0" stroke="black" stroke-width="2" fill="none" />
<polyline points="325.0,392.5,341.0,400.5" stroke="black" stroke-width="2" fill="none" />
<polyline points="334.5,385.5,318.5,393.5" stroke="black" stroke-width="2" fill="none" />
<polyline points="317.5,390.0,329.5,392.0,340.0,390.0" stroke="black" stroke-width="2" fill="none" />
<polyline points="305.5,421.5,321.5,423.5,337.5,423.0,354.0,423.0,374.5,424.5,391.0,426.0,406.5,429.5,422.0,433.5,439.5,429.5" stroke="black" stroke-width="2" fill="none" />
<polyline points="433.0,452.0,417.0,452.0,400.5,449.5,384.5,449.5,368.5,449.0,352.5,449.0" stroke="black" stroke-width="2" fill="none" />
<polyline points="372.5,442.5,388.0,442.5,404.0,442.5" stroke="black" stroke-width="2" fill="none" />
<polyline points="415.0,469.5,399.0,470.0,383.0,470.0" stroke="black" stroke-width="2" fill="none" />
<polyline points="389.0,489.5,405.0,491.5,421.0,492.0,437.0,494.0,453.0,496.5" stroke="black" stroke-width="2" fill="none" />
<polyline points="509.5,490.0,493.5,484.0,477.5,490.0,475.5,492.0,487.5,470.0,485.5,454.0,489.5,442.0,481.5,440.0,483.5,424.0,493.0,408.0,477.0,398.0,482.5,382.0,485.0,372.0,468.5,372.0" stroke="black" stroke-width="2" fill="none" />
<polyline points="469.5,374.0,465.5,390.0,477.0,394.5,499.0,372.5" stroke="black" stroke-width="2" fill="none" />
<polyline points="492.5,374.5,486.5,390.5,482.5,400.0" stroke="black" stroke-width="2" fill="none" />
<polyline points="495.0,418.5,479.5,426.5" stroke="black" stroke-width="2" fill="none" />
<polyline points="481.5,430.5,497.5,424.5" stroke="black" stroke-width="2" fill="none" />
<polyline points="493.5,445.0,509.5,443.0" stroke="black" stroke-width="2" fill="none" />
<polyline points="500.0,460.0,484.0,450.0,468.0,434.0" stroke="black" stroke-width="2" fill="none" />
<polyline points="467.5,433.0,473.5,449.0" stroke="black" stroke-width="2" fill="none" />
<polyline points="472.5,458.0,454.5,459.5,468.5,460.0,460.5,443.5,468.5,429.5,457.0,413.5,456.5,407.5,462.5,391.5,464.0,375.5,456.0,371.5,439.5,369.5,423.0,369.0" stroke="black" stroke-width="2" fill="none" />
<polyline points="424.0,370.0,427.5,386.0,433.0,401.5,437.0,417.5,445.0,433.5,455.0,434.0,449.0,450.0,435.0,464.0,445.5,476.0,455.5,492.0,471.5,482.0,487.5,478.0,503.5,482.0" stroke="black" stroke-width="2" fill="none" />
<polyline points="495.5,409.5,479.5,407.5,473.0,407.5,459.5,412.0,449.5,414.0,421.5,380.0" stroke="black" stroke-width="2" fill="none" />
<polyline points="413.0,361.5,429.0,365.5,445.5,365.5,461.5,365.5,477.5,367.0,493.5,367.0,509.5,365.5" stroke="black" stroke-width="2" fill="none" />
<polyline points="410.5,355.0,412.5,361.0,420.0,377.0,426.0,393.0,429.5,409.0,431.0,425.0,419.0,439.0,439.0,446.5,449.0,458.5,465.0,476.5,463.0,494.5,477.0,506.5,493.0,506.5,509.0,506.0" stroke="black" stroke-width="2" fill="none" />
<polyline points="500.0,501.5,484.5,499.5,468.5,494.0,484.5,478.5,472.0,490.5,456.0,502.5,439.5,500.5,423.0,498.5,406.5,497.0,390.5,497.0" stroke="black" stroke-width="2" fill="none" />
<polyline points="432.0,446.0,416.0,455.5,400.0,456.0,384.0,455.5,368.0,453.5,352.0,453.5,336.0,453.5,320.0,455.5" stroke="black" stroke-width="2" fill="none" />
<polyline points="318.0,466.0,333.5,465.5,349.0,466.0,364.5,466.0,380.5,466.5,396.0,466.5,412.0,467.0,427.0,467.0,445.0,453.0,461.0,459.0" stroke="black" stroke-width="2" fill="none" />
<polyline points="455.0,470.5,439.0,466.5,431.5,480.5,412.0,478.0,396.0,480.0,380.5,478.0,364.5,477.5,348.5,471.5,333.0,469.5,317.0,469.5" stroke="black" stroke-width="2" fill="none" />
<polyline points="310.0,437.5,326.0,437.0,342.0,437.5,358.0,437.5,374.5,438.0,390.5,438.0" stroke="black" stroke-width="2" fill="none" />
<polyline points="387.5,433.5,371.5,434.0,355.5,434.0,339.5,433.5,323.5,433.5,307.0,433.5" stroke="black" stroke-width="2" fill="none" />
<polyline points="297.0,409.5,299.0,425.5,299.0,442.0,299.5,458.5,288.0,474.5,284.5,491.0,300.5,490.5,316.5,488.5,335.0,490.5,351.5,488.5,367.5,486.5,383.5,486.5,399.5,487.0,415.5,487.0,431.0,487.0,446.5,484.5" stroke="black" stroke-width="2" fill="none" />
<polyline points="366.5,330.0,356.0,324.0,340.0,298.5,324.0,285.0,307.5,279.0" stroke="black" stroke-width="2" fill="none" />
<polyline points="313.0,276.0,323.0,291.5,327.0,307.0,331.0,323.0,331.0,339.0,332.5,355.0,331.0,371.0,329.0,377.0,325.0,393.5" stroke="black" stroke-width="2" fill="none" />
<polyline points="351.5,397.5,336.0,403.5,346.0,401.5,356.5,385.0,363.0,369.0,357.0,365.5,361.0,350.0,361.0,322.0,353.0,305.5,338.5,289.5,318.5,273.5,304.0,257.0,320.0,233.5,304.0,249.5,288.0,259.5,272.0,266.0,256.5,260.0,240.5,250.0" stroke="black" stroke-width="2" fill="none" />
<polyline points="238.5,245.0,254.0,241.0,270.0,237.5,286.0,229.5,302.0,211.5" stroke="black" stroke-width="2" fill="none" />
<polyline points="327.5,239.5,344.0,257.5,360.0,272.0,376.0,282.5" stroke="black" stroke-width="2" fill="none" />
<polyline points="372.0,286.0,356.0,276.0,340.0,261.5,324.0,243.5" stroke="black" stroke-width="2" fill="none" />
<polyline points="304.5,256.5,320.0,244.0,334.0,256.0,348.0,272.0,372.0,287.5" stroke="black" stroke-width="2" fill="none" />
<polyline points="320.0,281.5,338.0,297.5,352.0,313.0,358.0,329.0,366.0,351.0" stroke="black" stroke-width="2" fill="none" />
<polyline points="278.0,324.0,262.0,345.5,238.0,347.5,232.0,345.5,216.0,343.5,208.0,343.5,204.0,347.5,196.0,341.5,186.0,333.5,182.0,317.5,184.0,301.5,187.5,285.5,193.5,269.5,204.0,254.0,202.5,258.0,186.5,287.5" stroke="black" stroke-width="2" fill="none" />
<polyline points="194.0,277.0,198.0,271.0,191.5,286.5,187.5,302.5,188.0,319.0,192.0,335.0,194.0,337.0" stroke="black" stroke-width="2" fill="none" />
<polyline points="205.5,362.0,207.5,378.5,203.5,395.0,217.5,373.5" stroke="black" stroke-width="2" fill="none" />
<polyline points="219.5,372.0,219.0,388.0,223.0,387.5" stroke="black" stroke-width="2" fill="none" />
<polyline points="211.0,394.0,213.0,390.0,213.0,374.0,207.0,364.0" stroke="black" stroke-width="2" fill="none" />
<polyline points="156.0,320.5,154.0,336.0,151.5,352.5,149.5,368.5,152.0,384.5,156.5,400.5,154.5,416.5" stroke="black" stroke-width="2" fill="none" />
<polyline points="142.5,416.0,126.0,424.0,110.0,450.0,110.0,458.0" stroke="black" stroke-width="2" fill="none" />
<polyline points="112.0,474.0,128.0,474.0,144.5,467.5" stroke="black" stroke-width="2" fill="none" />
<polyline points="143.5,475.0,127.5,478.5,111.5,478.5" stroke="black" stroke-width="2" fill="none" />
<polyline points="111.0,440.0,113.0,448.0,121.0,432.0,126.5,406.0,124.0,389.5,128.0,373.0,135.5,357.0,123.5,383.0" stroke="black" stroke-width="2" fill="none" />
<polyline points="130.5,379.5,136.5,369.5,130.5,385.5,130.5,402.0" stroke="black" stroke-width="2" fill="none" />
<polyline points="117.5,410.5,101.5,391.0" stroke="black" stroke-width="2" fill="none" />
<polyline points="134.0,383.0,134.0,399.0,138.0,415.5,143.5,425.5" stroke="black" stroke-width="2" fill="none" />
<polyline points="175.0,434.5,167.0,450.5,158.5,473.0,164.5,455.0" stroke="black" stroke-width="2" fill="none" />
<polyline points="177.5,438.0,169.5,454.0,163.5,470.0,164.0,485.5,180.5,489.5,196.5,489.5,212.5,491.5,228.5,487.5,244.0,491.5,259.5,491.5,275.5,493.5,291.5,493.5,307.5,493.5,323.5,485.5,340.0,483.5,352.0,481.5,368.0,481.5,385.5,473.0,401.0,473.0,417.5,481.0,440.0,473.0,455.5,475.5,471.5,475.5,487.5,473.5,504.0,466.0" stroke="black" stroke-width="2" fill="none" />
<polyline points="323.5,461.5,307.5,461.0,283.5,477.0,267.5,481.5,253.5,483.5,249.0,475.5,233.0,481.5,221.0,483.5,205.5,485.5,190.0,483.5,180.0,479.5,172.0,489.5,152.5,473.5,159.0,458.0,161.5,442.0,147.5,432.0,132.0,428.0,123.5,416.0,111.5,400.0,107.0,384.0,110.5,367.5,108.0,351.5,112.0,335.5,125.5,319.5,135.5,303.5,127.5,315.5,123.5,343.5" stroke="black" stroke-width="2" fill="none" />
<polyline points="117.5,323.5,133.5,297.5,129.5,303.5,119.5,319.5,126.0,297.5,142.0,273.5,158.0,247.5" stroke="black" stroke-width="2" fill="none" />
<polyline points="169.0,234.5,184.5,240.5,200.5,244.0,225.0,247.5,237.5,249.5,268.0,265.5" stroke="black" stroke-width="2" fill="none" />
<polyline points="269.5,255.5,254.0,251.0" stroke="black" stroke-width="2" fill="none" />
<polyline points="252.0,249.0,268.0,249.0" stroke="black" stroke-width="2" fill="none" />
<polyline points="247.0,265.5,231.5,259.0" stroke="black" stroke-width="2" fill="none" />
<polyline points="225.5,264.0,265.5,280.0,267.5,296.0,265.0,312.0,262.5,327.5,258.0,344.0,255.5,360.0,257.5,376.5,261.0,393.0" stroke="black" stroke-width="2" fill="none" />
<polyline points="270.5,337.0,268.0,353.5,270.0,369.5,272.0,402.0,288.5,408.0,308.5,402.5,312.5,419.0,328.0,417.0,343.5,419.0,359.5,418.5,375.5,420.5,391.5,422.5,407.5,426.5,423.5,428.5,445.5,418.0,462.0,444.0,478.5,452.0" stroke="black" stroke-width="2" fill="none" />
<polyline points="256.5,476.0,246.5,480.0" stroke="black" stroke-width="2" fill="none" />
<polyline points="235.5,508.0,236.0,508.0,226.0,472.5,228.0,456.0" stroke="black" stroke-width="2" fill="none" />
<polyline points="224.0,454.5,222.0,470.5" stroke="black" stroke-width="2" fill="none" />
<polyline points="138.0,395.5,138.0,379.5" stroke="black" stroke-width="2" fill="none" />
<polyline points="151.5,320.0,147.5,336.0,145.5,352.5,145.5,368.5,148.0,385.0,150.0,401.0,144.0,403.5,144.0,421.5,158.0,429.0,154.0,445.0,152.0,460.5,142.0,479.0,153.5,477.0,169.5,483.0" stroke="black" stroke-width="2" fill="none" />
<polyline points="33.5,503.0,18.0,503.0,2.0,502.5" stroke="black" stroke-width="2" fill="none" />
<polyline points="2.0,499.0,18.0,499.0,34.5,499.0" stroke="black" stroke-width="2" fill="none" />
<polyline points="34.0,478.5,18.0,478.5,2.0,478.5" stroke="black" stroke-width="2" fill="none" />
<polyline points="1.0,473.5,17.5,474.0,34.0,473.5" stroke="black" stroke-width="2" fill="none" />
<polyline points="18.0,462.0,2.0,462.5" stroke="black" stroke-width="2" fill="none" />
<polyline points="3.0,458.0,19.0,457.5" stroke="black" stroke-width="2" fill="none" />
<polyline points="2.5,414.5,18.5,414.0,34.5,413.5,50.5,415.5" stroke="black" stroke-width="2" fill="none" />
<polyline points="33.0,410.5,16.5,410.5,0.5,411.0" stroke="black" stroke-width="2" fill="none" />
<polyline points="1.5,400.0,17.5,403.5" stroke="black" stroke-width="2" fill="none" />
<polyline points="34.0,405.0,18.0,399.5,2.0,395.5" stroke="black" stroke-width="2" fill="none" />
<polyline points="2.0,359.0,18.0,359.0,34.5,359.0,50.5,358.5,67.0,358.5" stroke="black" stroke-width="2" fill="none" />
<polyline points="67.0,355.0,50.5,355.5,34.5,353.0,18.5,353.0,2.5,355.0" stroke="black" stroke-width="2" fill="none" />
<polyline points="3.0,302.5,19.0,304.5,35.0,310.5,51.5,306.5,67.5,300.5,83.5,292.5,99.0,282.5,115.0,272.5,131.0,260.0,146.5,259.5" stroke="black" stroke-width="2" fill="none" />
<polyline points="153.5,234.5,137.5,227.0" stroke="black" stroke-width="2" fill="none" />
<polyline points="139.0,268.0,123.0,290.0,107.0,322.0,115.0,318.0,123.0,302.0,133.0,286.0,143.0,270.0,155.5,254.0,159.5,238.0,152.0,224.0,136.5,210.0,120.5,179.5" stroke="black" stroke-width="2" fill="none" />
<polyline points="126.0,182.5,142.0,208.5,158.0,220.0,174.0,230.0,190.0,235.5,206.5,237.0,222.5,239.5,238.5,237.5,254.0,238.0,270.0,232.0,285.5,222.5,301.5,200.0" stroke="black" stroke-width="2" fill="none" />
<polyline points="286.5,156.5,270.5,149.0" stroke="black" stroke-width="2" fill="none" />
<polyline points="263.5,138.5,247.5,154.5,251.5,162.5,255.5,164.5,271.5,168.0" stroke="black" stroke-width="2" fill="none" />
<polyline points="282.0,176.5,266.0,180.5,258.0,178.5,242.0,162.0,244.5,146.0,268.5,148.0,252.5,156.0" stroke="black" stroke-width="2" fill="none" />
<polyline points="248.5,153.0,264.5,139.0,266.0,133.5,286.0,149.0,288.0,165.0" stroke="black" stroke-width="2" fill="none" />
<polyline points="280.0,166.5,278.0,150.5,276.5,174.5,260.5,172.5,244.5,164.5" stroke="black" stroke-width="2" fill="none" />
<polyline points="244.5,145.5,261.0,133.5,277.0,135.5,293.0,145.5,297.0,153.5,291.0,169.5" stroke="black" stroke-width="2" fill="none" />
<polyline points="281.5,112.5,275.0,106.0,259.0,106.0" stroke="black" stroke-width="2" fill="none" />
<polyline points="262.5,104.5,268.5,120.5,266.5,118.5,270.5,110.5" stroke="black" stroke-width="2" fill="none" />
<polyline points="270.0,98.0,296.0,114.0,306.0,130.0,310.0,146.5,310.0,162.5,310.0,178.5,305.5,194.5,295.0,210.5,279.0,226.5" stroke="black" stroke-width="2" fill="none" />
<polyline points="299.0,266.0,311.0,282.0,319.0,297.5,322.5,313.5,324.5,330.0,326.0,346.0,326.5,362.0,320.5,378.0,306.5,394.0,308.5,404.5,306.5,420.5,306.5,436.0,306.5,451.5,300.5,469.5,270.0,485.0,286.0,481.5,301.5,467.5,317.5,451.5,333.5,450.0,350.0,450.0,366.0,446.0,382.0,446.5,398.0,446.5,414.0,446.5,436.0,442.5,452.0,438.0,460.5,437.5,466.5,427.5,482.5,437.5,498.5,439.5" stroke="black" stroke-width="2" fill="none" />
<polyline points="504.5,214.0,488.0,244.0,472.0,256.0,456.0,268.0,440.5,276.0,424.5,278.5,454.5,276.5,480.5,260.5,496.5,244.5,505.0,228.5,513.0,212.5" stroke="black" stroke-width="2" fill="none" />
<polyline points="475.0,158.0,455.0,142.0,443.5,128.0,427.5,126.0,412.0,126.0,396.5,126.0,380.0,126.5" stroke="black" stroke-width="2" fill="none" />
<polyline points="388.5,113.5,404.5,113.5" stroke="black" stroke-width="2" fill="none" />
<polyline points="411.0,140.0,419.0,155.5,431.5,171.5,436.0,187.5,422.5,203.5,406.5,220.0,395.0,236.0,389.0,252.0,398.5,238.0,404.5,214.0,420.5,192.5" stroke="black" stroke-width="2" fill="none" />
<polyline points="437.5,184.0,421.5,204.0,405.5,219.5,389.5,241.5,397.5,240.0,407.5,224.0,411.5,206.0,421.5,189.5,415.5,173.5,401.5,157.0,391.5,141.0" stroke="black" stroke-width="2" fill="none" />
<polyline points="382.0,88.0,374.0,80.0,358.5,78.0,335.0,76.5,319.0,62.5,303.0,50.5,287.5,44.5" stroke="black" stroke-width="2" fill="none" />
<polyline points="287.5,50.5,303.5,60.0" stroke="black" stroke-width="2" fill="none" />
<polyline points="321.5,70.0,305.5,54.0,276.0,44.0" stroke="black" stroke-width="2" fill="none" />
<polyline points="236.0,30.5,252.5,35.0,268.5,35.5,286.5,44.0,304.5,60.5,328.0,78.5,346.5,80.5,362.5,72.5,380.5,66.5,386.5,70.5,406.5,56.5,422.5,62.5,439.0,62.5,455.0,66.5,471.0,72.5,487.0,82.5,503.0,96.5,506.5,106.5" stroke="black" stroke-width="2" fill="none" />
<polyline points="446.5,73.0,430.5,76.5,412.5,92.5,414.5,104.5,430.5,92.5,444.5,86.5,469.0,96.5,473.0,100.5,475.5,84.0,467.0,84.0,451.0,100.5,431.0,100.0,421.0,106.0,437.0,93.5" stroke="black" stroke-width="2" fill="none" />
<polyline points="444.5,94.0,418.0,94.0,402.0,106.0,386.0,110.0,370.0,116.0,359.5,113.5,371.5,87.5,383.5,86.0,386.0,70.5" stroke="black" stroke-width="2" fill="none" />
<polyline points="404.0,53.0,408.0,57.5" stroke="black" stroke-width="2" fill="none" />
<polyline points="430.0,61.5,420.0,77.5,414.0,98.0,388.0,98.0,362.0,103.5,354.5,119.5,366.0,99.5,376.0,107.5,392.0,93.5,402.5,97.5,419.0,87.5,434.5,74.0,443.0,68.0" stroke="black" stroke-width="2" fill="none" />
<polyline points="361.0,77.0,346.5,93.0,347.0,109.0" stroke="black" stroke-width="2" fill="none" />
<polyline points="339.5,105.5,339.5,89.5,355.5,73.5" stroke="black" stroke-width="2" fill="none" />
<polyline points="300.5,118.5,284.5,103.0,268.5,97.0,252.0,93.0,236.0,88.5,220.0,88.5,204.0,88.5,187.5,92.0,171.5,92.0,155.5,100.0,139.5,111.5,124.0,137.5" stroke="black" stroke-width="2" fill="none" />
<polyline points="118.0,137.5,134.0,110.0,150.0,96.5,166.0,88.5,181.5,86.0,197.5,84.0,214.0,80.0,228.0,81.5,243.5,85.0,260.0,89.0,276.0,93.0,292.0,101.0,307.5,118.5" stroke="black" stroke-width="2" fill="none" />
<polyline points="281.5,96.5,301.5,112.5,309.0,128.5,313.0,144.5,314.5,160.0,314.5,176.0,310.5,191.5,305.0,207.5,291.0,223.5,263.5,239.0,263.5,273.0,279.5,279.0,281.5,295.0,281.5,311.5,267.5,331.5,261.5,347.5,262.0,364.0,264.0,380.5,272.0,397.0" stroke="black" stroke-width="2" fill="none" />
<polyline points="271.0,313.5,271.0,297.5,273.0,281.5" stroke="black" stroke-width="2" fill="none" />
<polyline points="238.0,270.0,222.0,262.0" stroke="black" stroke-width="2" fill="none" />
<polyline points="223.0,256.5,245.0,260.0,253.0,274.0" stroke="black" stroke-width="2" fill="none" />
<polyline points="229.5,195.5,213.0,193.5" stroke="black" stroke-width="2" fill="none" />
<polyline points="206.0,193.5,222.0,177.5,232.0,182.0,218.5,166.0,210.5,182.0,198.5,198.0,192.5,214.0,216.5,230.0,214.5,228.0,230.0,226.0,234.0,220.0,216.5,224.0" stroke="black" stroke-width="2" fill="none" />
<polyline points="229.5,216.5,213.5,216.0,197.5,212.0" stroke="black" stroke-width="2" fill="none" />
<polyline points="194.5,209.5,202.5,199.5,203.0,215.5,205.5,187.5,221.5,167.5,238.0,189.5" stroke="black" stroke-width="2" fill="none" />
<polyline points="226.5,219.0,210.5,221.5,194.5,215.0" stroke="black" stroke-width="2" fill="none" />
<polyline points="184.0,152.5,166.0,158.5,150.0,158.0" stroke="black" stroke-width="2" fill="none" />
<polyline points="151.5,155.5,151.5,171.5,156.0,173.5,172.0,173.5" stroke="black" stroke-width="2" fill="none" />
<polyline points="155.5,187.5,141.0,171.5,141.0,155.5,152.5,140.0,146.5,118.0,162.0,124.5,146.0,129.0" stroke="black" stroke-width="2" fill="none" />
<polyline points="156.5,143.0,144.5,159.5,148.0,175.5,154.0,179.5,170.0,184.0,186.0,166.0" stroke="black" stroke-width="2" fill="none" />
<polyline points="182.5,160.0,182.5,144.0,160.0,144.0,144.0,160.0" stroke="black" stroke-width="2" fill="none" />
<polyline points="140.5,155.5,156.5,137.5,173.0,137.5,189.0,147.5,192.5,155.0,190.0,171.5,174.0,187.5" stroke="black" stroke-width="2" fill="none" />
<polyline points="190.5,169.0,174.5,187.5,158.5,187.5,142.5,173.5" stroke="black" stroke-width="2" fill="none" />
<polyline points="160.5,141.5,164.5,157.5,187.5,159.5,180.0,175.5" stroke="black" stroke-width="2" fill="none" />
<polyline points="169.0,112.5,144.5,122.5,160.5,110.0" stroke="black" stroke-width="2" fill="none" />
<polyline points="170.5,92.5,143.0,108.5,129.0,124.5,123.0,140.0,121.0,156.0,123.0,171.5,127.0,187.5,135.0,203.0,153.5,219.0,169.5,233.0,175.5,249.5,167.5,253.5,171.5,245.5,185.5,252.0,207.0,262.5,223.0,256.5,239.0,257.0,255.5,267.0,257.5,277.0,278.0,272.5,298.0,264.5,310.0,266.5,326.0,278.5,342.0,290.0,357.5,311.5" stroke="black" stroke-width="2" fill="none" />
<polyline points="149.5,309.0,143.5,325.0,137.5,325.0,137.5,341.5,125.5,341.5,119.5,341.5,136.0,324.0" stroke="black" stroke-width="2" fill="none" />
<polyline points="145.5,307.5,133.5,323.5,121.5,339.5,105.5,358.0" stroke="black" stroke-width="2" fill="none" />
<polyline points="127.5,247.5,111.0,236.0,95.0,224.0" stroke="black" stroke-width="2" fill="none" />
<polyline points="90.0,214.0,106.0,226.0,122.0,236.0" stroke="black" stroke-width="2" fill="none" />
<polyline points="125.0,271.0,109.0,284.5,93.0,294.5,77.0,302.0,61.0,308.0,36.5,311.5,58.5,301.5,92.5,285.0,116.5,269.0,128.0,249.0,106.5,233.0,90.5,217.5,88.5,201.5,86.5,185.5,85.0,169.5,82.5,154.0,82.5,138.0,84.0,122.0,90.0,106.0,96.5,90.0,104.5,73.5,126.5,57.5,148.0,41.5,148.0,39.0,131.5,53.5,115.5,66.0,99.5,78.0,83.5,78.0,67.5,74.0" stroke="black" stroke-width="2" fill="none" />
<polyline points="83.0,117.0,99.0,91.5,115.0,73.5,131.5,57.5,150.0,50.0" stroke="black" stroke-width="2" fill="none" />
<polyline points="152.0,45.5,132.0,59.5,111.5,75.5,99.5,91.5,93.5,107.5,88.0,124.0,88.0,139.5,88.0,155.5,90.0,172.0,92.0,188.0,94.0,204.5,98.0,220.5,118.0,236.0,132.0,264.0,112.0,279.5,86.5,295.0" stroke="black" stroke-width="2" fill="none" />
<polyline points="22.5,258.0,14.5,278.0,23.0,261.5,31.0,245.5" stroke="black" stroke-width="2" fill="none" />
<polyline points="25.0,244.0,17.0,259.5,11.0,275.5,19.0,254.0,29.0,234.5" stroke="black" stroke-width="2" fill="none" />
<polyline points="3.0,155.0,19.0,145.0,35.0,139.0,50.5,136.5,66.0,132.0,78.0,98.0,74.0,113.5" stroke="black" stroke-width="2" fill="none" />
<polyline points="73.5,121.0,81.5,105.5,88.0,123.5" stroke="black" stroke-width="2" fill="none" />
<polyline points="78.0,98.0,62.0,128.0,46.5,132.0,30.5,132.0,14.5,128.0,6.5,144.0,6.5,132.0,26.5,129.5,8.5,137.5" stroke="black" stroke-width="2" fill="none" />
<polyline points="17.5,139.0,2.0,147.0,28.0,139.0" stroke="black" stroke-width="2" fill="none" />
<polyline points="31.0,76.5,19.0,78.5,3.5,80.5" stroke="black" stroke-width="2" fill="none" />
<polyline points="16.0,11.0,32.5,14.5" stroke="black" stroke-width="2" fill="none" />
<polyline points="31.5,8.5,15.5,6.5" stroke="black" stroke-width="2" fill="none" />
<polyline points="166.0,88.0,139.5,104.0,126.0,120.5,120.0,136.5,116.5,152.0,116.5,167.5,121.0,184.0,129.0,200.0,143.0,216.0,165.0,232.0,149.0,242.0,149.0,257.5,135.0,273.0,125.0,289.0,115.0,305.0,108.5,321.0,105.0,337.0,101.0,353.0,99.0,369.5,101.0,377.5,103.0,394.0,111.0,409.5,117.0,425.5,109.0,441.5,111.0,457.5,108.5,474.0,118.5,484.5,134.0,486.5" stroke="black" stroke-width="2" fill="none" />
</svg>