<?xml version="1.0" encoding="UTF-8"?>
<svg xmlns="http://www.w3.org/2000/svg" xmlns:xlink="http://www.w3.org/1999/xlink" width="1935.11811" height="1935.11811" viewBox="0 0 1935.11811 1935.11811" version="1.1">
<g id="surface1">
<path style="fill:none;stroke-width:2;stroke-linecap:butt;stroke-linejoin:miter;stroke:rgb(0%,0%,0%);stroke-opacity:1;stroke-miterlimit:4;" d="M 325.499512 2.500106 L 325.499512 18.500163 L 331.500179 34.50022 L 327.500423 50.500277 L 343.50048 66.999528 L 349.500114 71.000317 L 357.499626 82.999585 L 388.999512 82.999585 " transform="matrix(3.779528,0,0,3.779528,0,0)"/>
<path style="fill:none;stroke-width:2;stroke-linecap:butt;stroke-linejoin:miter;stroke:rgb(0%,0%,0%);stroke-opacity:1;stroke-miterlimit:4;" d="M 390.500195 115.499927 L 400.499585 105.999731 L 373.99991 119.99991 L 363.500293 135.49974 L 349.500114 139.499495 L 352.00022 155.499552 L 355.999976 171.499609 L 355.999976 187.499666 L 361.999609 201.499845 L 372.000033 217.499902 L 375.999788 233.499959 L 377.999666 249.500016 L 386.000212 277.500374 L 418.000326 293.500431 L 402.000269 309.500488 L 409.99978 325.99974 L 409.99978 341.499569 L 427.999715 341.999797 L 452.000317 357.999854 L 466.000496 370.000155 L 472.00013 382.000456 L 458.500179 398.000513 L 476.500114 409.99978 L 492.500171 407.999902 L 508.500228 407.999902 " transform="matrix(3.779528,0,0,3.779528,0,0)"/>
<path style="fill:none;stroke-width:2;stroke-linecap:butt;stroke-linejoin:miter;stroke:rgb(0%,0%,0%);stroke-opacity:1;stroke-miterlimit:4;" d="M 500.99991 413.000114 L 484.499626 413.500342 L 468.499569 413.500342 " transform="matrix(3.779528,0,0,3.779528,0,0)"/>
<path style="fill:none;stroke-width:2;stroke-linecap:butt;stroke-linejoin:miter;stroke:rgb(0%,0%,0%);stroke-opacity:1;stroke-miterlimit:4;" d="M 445.99965 395.000179 L 429.999593 382.999878 " transform="matrix(3.779528,0,0,3.779528,0,0)"/>
<path style="fill:none;stroke-width:2;stroke-linecap:butt;stroke-linejoin:miter;stroke:rgb(0%,0%,0%);stroke-opacity:1;stroke-miterlimit:4;" d="M 419.499976 382.000456 L 436.999683 398.000513 L 427.000293 419.499976 L 418.999748 435.500033 L 416.99987 451.50009 L 424.500187 459.499601 " transform="matrix(3.779528,0,0,3.779528,0,0)"/>
<path style="fill:none;stroke-width:2;stroke-linecap:butt;stroke-linejoin:miter;stroke:rgb(0%,0%,0%);stroke-opacity:1;stroke-miterlimit:4;" d="M 436.500488 459.999829 L 438.500366 443.999772 L 426.500065 434.000382 " transform="matrix(3.779528,0,0,3.779528,0,0)"/>
<path style="fill:none;stroke-width:2;stroke-linecap:butt;stroke-linejoin:miter;stroke:rgb(0%,0%,0%);stroke-opacity:1;stroke-miterlimit:4;" d="M 420.500431 436.500488 L 424.500187 440.500244 L 424.500187 456.500301 " transform="matrix(3.779528,0,0,3.779528,0,0)"/>
<path style="fill:none;stroke-width:2;stroke-linecap:butt;stroke-linejoin:miter;stroke:rgb(0%,0%,0%);stroke-opacity:1;stroke-miterlimit:4;" d="M 419.499976 477.999764 L 403.499919 474.000008 " transform="matrix(3.779528,0,0,3.779528,0,0)"/>
<path style="fill:none;stroke-width:2;stroke-linecap:butt;stroke-linejoin:miter;stroke:rgb(0%,0%,0%);stroke-opacity:1;stroke-miterlimit:4;" d="M 404.999569 472.500358 L 400.999813 488.500415 L 418.49952 504.999666 " transform="matrix(3.779528,0,0,3.779528,0,0)"/>
<path style="fill:none;stroke-width:2;stroke-linecap:butt;stroke-linejoin:miter;stroke:rgb(0%,0%,0%);stroke-opacity:1;stroke-miterlimit:4;" d="M 420.000203 495.500505 L 404.000146 491.499715 " transform="matrix(3.779528,0,0,3.779528,0,0)"/>
<path style="fill:none;stroke-width:2;stroke-linecap:butt;stroke-linejoin:miter;stroke:rgb(0%,0%,0%);stroke-opacity:1;stroke-miterlimit:4;" d="M 388.00009 493.999821 L 404.000146 510.500106 L 416.000448 509.999878 " transform="matrix(3.779528,0,0,3.779528,0,0)"/>
<path style="fill:none;stroke-width:2;stroke-linecap:butt;stroke-linejoin:miter;stroke:rgb(0%,0%,0%);stroke-opacity:1;stroke-miterlimit:4;" d="M 402.500496 508.500228 L 386.999634 492.500171 " transform="matrix(3.779528,0,0,3.779528,0,0)"/>
<path style="fill:none;stroke-width:2;stroke-linecap:butt;stroke-linejoin:miter;stroke:rgb(0%,0%,0%);stroke-opacity:1;stroke-miterlimit:4;" d="M 382.000456 493.000399 L 398.000513 494.500049 L 414.499764 481.99952 L 416.499642 488.000187 L 432.999927 489.499837 " transform="matrix(3.779528,0,0,3.779528,0,0)"/>
<path style="fill:none;stroke-width:2;stroke-linecap:butt;stroke-linejoin:miter;stroke:rgb(0%,0%,0%);stroke-opacity:1;stroke-miterlimit:4;" d="M 432.000505 504.999666 L 435.500033 499.000033 L 425.499609 505.499894 L 439.499788 489.499837 L 440.000016 473.49978 L 434.499577 455.499845 L 432.499699 438.999561 L 434.999805 422.500309 L 416.99987 416.499642 L 401.500041 410.500008 L 385.499984 402.500496 L 369.499927 392.500073 L 353.49987 384.499528 L 337.499813 384.999756 " transform="matrix(3.779528,0,0,3.779528,0,0)"/>
<path style="fill:none;stroke-width:2;stroke-linecap:butt;stroke-linejoin:miter;stroke:rgb(0%,0%,0%);stroke-opacity:1;stroke-miterlimit:4;" d="M 352.00022 379.999544 L 381.500228 395.999601 " transform="matrix(3.779528,0,0,3.779528,0,0)"/>
<path style="fill:none;stroke-width:2;stroke-linecap:butt;stroke-linejoin:miter;stroke:rgb(0%,0%,0%);stroke-opacity:1;stroke-miterlimit:4;" d="M 377.999666 391.999845 L 393.999723 402.000269 L 410.500008 409.99978 L 426.500065 409.99978 L 442.500122 407.999902 " transform="matrix(3.779528,0,0,3.779528,0,0)"/>
<path style="fill:none;stroke-width:2;stroke-linecap:butt;stroke-linejoin:miter;stroke:rgb(0%,0%,0%);stroke-opacity:1;stroke-miterlimit:4;" d="M 432.999927 416.000448 L 448.999984 411.999658 L 465.500269 404.500374 L 481.500326 396.499829 L 497.999577 391.000423 L 504.000244 393.000301 " transform="matrix(3.779528,0,0,3.779528,0,0)"/>
<path style="fill:none;stroke-width:2;stroke-linecap:butt;stroke-linejoin:miter;stroke:rgb(0%,0%,0%);stroke-opacity:1;stroke-miterlimit:4;" d="M 492.500171 390.500195 L 460.500057 406.500252 " transform="matrix(3.779528,0,0,3.779528,0,0)"/>
<path style="fill:none;stroke-width:2;stroke-linecap:butt;stroke-linejoin:miter;stroke:rgb(0%,0%,0%);stroke-opacity:1;stroke-miterlimit:4;" d="M 436.500488 427.000293 L 452.499512 428.499943 L 468.499569 430.499821 L 484.000431 429.999593 L 499.50026 429.999593 " transform="matrix(3.779528,0,0,3.779528,0,0)"/>
<path style="fill:none;stroke-width:2;stroke-linecap:butt;stroke-linejoin:miter;stroke:rgb(0%,0%,0%);stroke-opacity:1;stroke-miterlimit:4;" d="M 502.499561 434.000382 L 486.999731 434.499577 L 439.499788 434.499577 " transform="matrix(3.779528,0,0,3.779528,0,0)"/>
<path style="fill:none;stroke-width:2;stroke-linecap:butt;stroke-linejoin:miter;stroke:rgb(0%,0%,0%);stroke-opacity:1;stroke-miterlimit:4;" d="M 447.999528 402.500496 L 432.000505 392.500073 L 416.000448 382.49965 L 400.000391 386.500439 L 384.000334 389.999967 " transform="matrix(3.779528,0,0,3.779528,0,0)"/>
<path style="fill:none;stroke-width:2;stroke-linecap:butt;stroke-linejoin:miter;stroke:rgb(0%,0%,0%);stroke-opacity:1;stroke-miterlimit:4;" d="M 402.999691 379.50035 L 386.500439 383.500106 L 370.500382 387.499862 L 354.500326 379.50035 L 339.000496 377.999666 L 318.99965 394.499951 L 287.499764 394.499951 L 271.999935 397.000057 L 255.999878 400.999813 L 240.500049 407.00048 L 223.999764 391.000423 L 207.999707 366.999821 " transform="matrix(3.779528,0,0,3.779528,0,0)"/>
<path style="fill:none;stroke-width:2;stroke-linecap:butt;stroke-linejoin:miter;stroke:rgb(0%,0%,0%);stroke-opacity:1;stroke-miterlimit:4;" d="M 229.500203 386.000212 L 245.50026 354.000098 L 239.499593 370.000155 L 229.500203 386.000212 L 235.499837 401.500041 L 264.000423 402.999691 L 280.00048 399.500163 L 312.499788 399.500163 " transform="matrix(3.779528,0,0,3.779528,0,0)"/>
<path style="fill:none;stroke-width:2;stroke-linecap:butt;stroke-linejoin:miter;stroke:rgb(0%,0%,0%);stroke-opacity:1;stroke-miterlimit:4;" d="M 307.999805 411.500464 L 309.999683 427.499487 L 305.999927 443.499544 L 305.999927 459.499601 L 307.999805 475.999886 L 307.999805 491.999943 L 309.500488 508 " transform="matrix(3.779528,0,0,3.779528,0,0)"/>
<path style="fill:none;stroke-width:2;stroke-linecap:butt;stroke-linejoin:miter;stroke:rgb(0%,0%,0%);stroke-opacity:1;stroke-miterlimit:4;" d="M 354.500326 499.000033 L 362.499837 483.500203 L 364.499715 467.500146 L 364.499715 453.499967 " transform="matrix(3.779528,0,0,3.779528,0,0)"/>
<path style="fill:none;stroke-width:2;stroke-linecap:butt;stroke-linejoin:miter;stroke:rgb(0%,0%,0%);stroke-opacity:1;stroke-miterlimit:4;" d="M 370.999577 461.500513 L 370.999577 477.499536 L 400.999813 497.999577 " transform="matrix(3.779528,0,0,3.779528,0,0)"/>
<path style="fill:none;stroke-width:2;stroke-linecap:butt;stroke-linejoin:miter;stroke:rgb(0%,0%,0%);stroke-opacity:1;stroke-miterlimit:4;" d="M 375.999788 508.500228 L 372.000033 492.500171 " transform="matrix(3.779528,0,0,3.779528,0,0)"/>
<path style="fill:none;stroke-width:2;stroke-linecap:butt;stroke-linejoin:miter;stroke:rgb(0%,0%,0%);stroke-opacity:1;stroke-miterlimit:4;" d="M 347.000008 502.499561 L 347.000008 502.000366 L 357.000431 485.500081 L 361.000187 469.500024 L 361.000187 453.499967 L 368.999699 421.499854 L 364.499715 417.500098 L 360.499959 416.99987 L 366.000399 409.499552 L 345.999552 409.99978 L 330.499723 409.99978 L 311.000138 411.500464 L 295.000081 409.499552 L 279.500252 409.499552 L 262.999967 413.500342 L 246.99991 411.999658 L 228.999976 412.499886 L 226.49987 397.000057 L 214.499569 381 L 205.999829 365.500171 L 209.500391 348.999886 L 221.000464 332.999829 L 223.000342 316.999772 L 226.49987 300.499487 L 227.99952 323.000439 " transform="matrix(3.779528,0,0,3.779528,0,0)"/>
<path style="fill:none;stroke-width:2;stroke-linecap:butt;stroke-linejoin:miter;stroke:rgb(0%,0%,0%);stroke-opacity:1;stroke-miterlimit:4;" d="M 215.500024 307.499577 L 211.500269 323.499634 L 209.500391 339.499691 " transform="matrix(3.779528,0,0,3.779528,0,0)"/>
<path style="fill:none;stroke-width:2;stroke-linecap:butt;stroke-linejoin:miter;stroke:rgb(0%,0%,0%);stroke-opacity:1;stroke-miterlimit:4;" d="M 210.499813 348.000464 L 194.499756 353.49987 L 178.499699 353.49987 L 162.499642 351.499992 L 146.499585 351.499992 L 130.999756 352.00022 L 114.999699 352.500448 L 3.000334 352.500448 " transform="matrix(3.779528,0,0,3.779528,0,0)"/>
<path style="fill:none;stroke-width:2;stroke-linecap:butt;stroke-linejoin:miter;stroke:rgb(0%,0%,0%);stroke-opacity:1;stroke-miterlimit:4;" d="M 3.000334 347.000008 L 35.000448 347.000008 L 66.000106 345.999552 L 82.000163 345.999552 L 98.00022 345.500358 L 114.000277 345.999552 L 130.000334 345.999552 L 146.000391 348.000464 L 162.000448 348.499658 L 178.000505 348.499658 L 193.999528 348.000464 " transform="matrix(3.779528,0,0,3.779528,0,0)"/>
<path style="fill:none;stroke-width:2;stroke-linecap:butt;stroke-linejoin:miter;stroke:rgb(0%,0%,0%);stroke-opacity:1;stroke-miterlimit:4;" d="M 193.999528 329.000073 L 145.500163 329.000073 L 129.500106 329.500301 L 82.000163 329.500301 L 66.000106 329.999495 L 50.500277 329.999495 L 35.000448 332.499601 L 3.499528 332.499601 " transform="matrix(3.779528,0,0,3.779528,0,0)"/>
<path style="fill:none;stroke-width:2;stroke-linecap:butt;stroke-linejoin:miter;stroke:rgb(0%,0%,0%);stroke-opacity:1;stroke-miterlimit:4;" d="M 2.500106 327.999618 L 18.500163 327.999618 L 34.50022 325.499512 L 50.000049 325.000317 L 66.000106 325.000317 L 81.499935 323.000439 L 97.499992 322.500212 L 112.999821 323.000439 L 128.999878 325.000317 L 145.500163 325.000317 L 161.50022 325.499512 " transform="matrix(3.779528,0,0,3.779528,0,0)"/>
<path style="fill:none;stroke-width:2;stroke-linecap:butt;stroke-linejoin:miter;stroke:rgb(0%,0%,0%);stroke-opacity:1;stroke-miterlimit:4;" d="M 207.000285 336.999585 L 209.000163 320.999528 L 212.999919 305.499699 L 218.999552 298.000415 " transform="matrix(3.779528,0,0,3.779528,0,0)"/>
<path style="fill:none;stroke-width:2;stroke-linecap:butt;stroke-linejoin:miter;stroke:rgb(0%,0%,0%);stroke-opacity:1;stroke-miterlimit:4;" d="M 234.999609 299.500065 L 228.999976 315.500122 L 230.999854 331.500179 L 242.499927 331.500179 L 234.000187 347.000008 L 225.999642 363.000065 L 225.999642 379.000122 L 234.000187 347.500236 L 237.999943 318.000228 " transform="matrix(3.779528,0,0,3.779528,0,0)"/>
<path style="fill:none;stroke-width:2;stroke-linecap:butt;stroke-linejoin:miter;stroke:rgb(0%,0%,0%);stroke-opacity:1;stroke-miterlimit:4;" d="M 241.999699 325.000317 L 227.99952 339.000496 L 221.999886 347.000008 L 236.000065 318.99965 L 232.000309 317.5 L 239.999821 301.499943 " transform="matrix(3.779528,0,0,3.779528,0,0)"/>
<path style="fill:none;stroke-width:2;stroke-linecap:butt;stroke-linejoin:miter;stroke:rgb(0%,0%,0%);stroke-opacity:1;stroke-miterlimit:4;" d="M 279.000024 273.999813 L 295.000081 282.000358 L 311.500366 291.49952 L 327.500423 291.999748 L 343.50048 275.999691 L 345.500358 282.000358 " transform="matrix(3.779528,0,0,3.779528,0,0)"/>
<path style="fill:none;stroke-width:2;stroke-linecap:butt;stroke-linejoin:miter;stroke:rgb(0%,0%,0%);stroke-opacity:1;stroke-miterlimit:4;" d="M 330.999951 275.500496 L 314.999894 284.000236 L 311.000138 284.000236 L 280.999902 268.500407 " transform="matrix(3.779528,0,0,3.779528,0,0)"/>
<path style="fill:none;stroke-width:2;stroke-linecap:butt;stroke-linejoin:miter;stroke:rgb(0%,0%,0%);stroke-opacity:1;stroke-miterlimit:4;" d="M 259.999634 241.500505 L 275.500496 241.500505 L 291.49952 241.000277 L 307.499577 245.000033 " transform="matrix(3.779528,0,0,3.779528,0,0)"/>
<path style="fill:none;stroke-width:2;stroke-linecap:butt;stroke-linejoin:miter;stroke:rgb(0%,0%,0%);stroke-opacity:1;stroke-miterlimit:4;" d="M 332.000407 259.999634 L 329.999495 275.999691 " transform="matrix(3.779528,0,0,3.779528,0,0)"/>
<path style="fill:none;stroke-width:2;stroke-linecap:butt;stroke-linejoin:miter;stroke:rgb(0%,0%,0%);stroke-opacity:1;stroke-miterlimit:4;" d="M 334.999707 255.49965 L 343.000252 277.500374 L 326.499967 293.999626 L 338.500269 302.000171 L 354.500326 305.999927 L 370.500382 307.999805 " transform="matrix(3.779528,0,0,3.779528,0,0)"/>
<path style="fill:none;stroke-width:2;stroke-linecap:butt;stroke-linejoin:miter;stroke:rgb(0%,0%,0%);stroke-opacity:1;stroke-miterlimit:4;" d="M 371.499805 314.999894 L 387.499862 330.999951 L 405.499797 347.000008 L 443.499544 363.500293 " transform="matrix(3.779528,0,0,3.779528,0,0)"/>
<path style="fill:none;stroke-width:2;stroke-linecap:butt;stroke-linejoin:miter;stroke:rgb(0%,0%,0%);stroke-opacity:1;stroke-miterlimit:4;" d="M 447.999528 359.499504 L 432.000505 350.999764 L 416.499642 334.999707 " transform="matrix(3.779528,0,0,3.779528,0,0)"/>
<path style="fill:none;stroke-width:2;stroke-linecap:butt;stroke-linejoin:miter;stroke:rgb(0%,0%,0%);stroke-opacity:1;stroke-miterlimit:4;" d="M 420.500431 333.500057 L 436.999683 345.500358 L 452.99974 351.499992 L 466.999919 345.500358 L 482.999976 355.499748 L 499.000033 357.499626 " transform="matrix(3.779528,0,0,3.779528,0,0)"/>
<path style="fill:none;stroke-width:2;stroke-linecap:butt;stroke-linejoin:miter;stroke:rgb(0%,0%,0%);stroke-opacity:1;stroke-miterlimit:4;" d="M 504.500472 286.000114 L 488.000187 254 " transform="matrix(3.779528,0,0,3.779528,0,0)"/>
<path style="fill:none;stroke-width:2;stroke-linecap:butt;stroke-linejoin:miter;stroke:rgb(0%,0%,0%);stroke-opacity:1;stroke-miterlimit:4;" d="M 495.000277 251.499894 L 511.000334 265.500073 " transform="matrix(3.779528,0,0,3.779528,0,0)"/>
<path style="fill:none;stroke-width:2;stroke-linecap:butt;stroke-linejoin:miter;stroke:rgb(0%,0%,0%);stroke-opacity:1;stroke-miterlimit:4;" d="M 509.000456 243.999577 L 492.500171 234.000187 " transform="matrix(3.779528,0,0,3.779528,0,0)"/>
<path style="fill:none;stroke-width:2;stroke-linecap:butt;stroke-linejoin:miter;stroke:rgb(0%,0%,0%);stroke-opacity:1;stroke-miterlimit:4;" d="M 497.000155 225.999642 L 481.500326 209.500391 L 470.000252 207.999707 " transform="matrix(3.779528,0,0,3.779528,0,0)"/>
<path style="fill:none;stroke-width:2;stroke-linecap:butt;stroke-linejoin:miter;stroke:rgb(0%,0%,0%);stroke-opacity:1;stroke-miterlimit:4;" d="M 468.000374 218.500358 L 479.999642 234.999609 L 499.50026 241.000277 L 509.49965 258.499984 L 509.49965 268.500407 L 507.499772 284.000236 " transform="matrix(3.779528,0,0,3.779528,0,0)"/>
<path style="fill:none;stroke-width:2;stroke-linecap:butt;stroke-linejoin:miter;stroke:rgb(0%,0%,0%);stroke-opacity:1;stroke-miterlimit:4;" d="M 509.999878 255.999878 L 493.999821 247.500138 L 477.999764 237.499715 " transform="matrix(3.779528,0,0,3.779528,0,0)"/>
<path style="fill:none;stroke-width:2;stroke-linecap:butt;stroke-linejoin:miter;stroke:rgb(0%,0%,0%);stroke-opacity:1;stroke-miterlimit:4;" d="M 470.999674 239.999821 L 481.000098 255.49965 L 499.000033 259.500439 L 506.999544 275.999691 " transform="matrix(3.779528,0,0,3.779528,0,0)"/>
<path style="fill:none;stroke-width:2;stroke-linecap:butt;stroke-linejoin:miter;stroke:rgb(0%,0%,0%);stroke-opacity:1;stroke-miterlimit:4;" d="M 502.999788 280.00048 L 495.500505 263.500195 L 504.999666 247.500138 L 488.500415 239.499593 L 472.00013 231.500081 " transform="matrix(3.779528,0,0,3.779528,0,0)"/>
<path style="fill:none;stroke-width:2;stroke-linecap:butt;stroke-linejoin:miter;stroke:rgb(0%,0%,0%);stroke-opacity:1;stroke-miterlimit:4;" d="M 468.999797 233.499959 L 484.999854 259.500439 L 502.499561 263.500195 " transform="matrix(3.779528,0,0,3.779528,0,0)"/>
<path style="fill:none;stroke-width:2;stroke-linecap:butt;stroke-linejoin:miter;stroke:rgb(0%,0%,0%);stroke-opacity:1;stroke-miterlimit:4;" d="M 490.000065 274.500041 L 474.000008 255.000456 L 457.499723 252.999544 " transform="matrix(3.779528,0,0,3.779528,0,0)"/>
<path style="fill:none;stroke-width:2;stroke-linecap:butt;stroke-linejoin:miter;stroke:rgb(0%,0%,0%);stroke-opacity:1;stroke-miterlimit:4;" d="M 463.000163 251.499894 L 457.499723 277.500374 L 465.500269 293.500431 L 473.49978 309.999683 L 477.499536 325.99974 " transform="matrix(3.779528,0,0,3.779528,0,0)"/>
<path style="fill:none;stroke-width:2;stroke-linecap:butt;stroke-linejoin:miter;stroke:rgb(0%,0%,0%);stroke-opacity:1;stroke-miterlimit:4;" d="M 481.99952 295.000081 L 466.000496 277.500374 " transform="matrix(3.779528,0,0,3.779528,0,0)"/>
<path style="fill:none;stroke-width:2;stroke-linecap:butt;stroke-linejoin:miter;stroke:rgb(0%,0%,0%);stroke-opacity:1;stroke-miterlimit:4;" d="M 465.000041 275.999691 L 472.999552 291.999748 L 479.00022 307.499577 L 482.499748 323.499634 " transform="matrix(3.779528,0,0,3.779528,0,0)"/>
<path style="fill:none;stroke-width:2;stroke-linecap:butt;stroke-linejoin:miter;stroke:rgb(0%,0%,0%);stroke-opacity:1;stroke-miterlimit:4;" d="M 471.499902 305.499699 L 455.499845 275.500496 " transform="matrix(3.779528,0,0,3.779528,0,0)"/>
<path style="fill:none;stroke-width:2;stroke-linecap:butt;stroke-linejoin:miter;stroke:rgb(0%,0%,0%);stroke-opacity:1;stroke-miterlimit:4;" d="M 471.499902 271.999935 L 479.500448 287.999992 L 485.500081 304.000049 " transform="matrix(3.779528,0,0,3.779528,0,0)"/>
<path style="fill:none;stroke-width:2;stroke-linecap:butt;stroke-linejoin:miter;stroke:rgb(0%,0%,0%);stroke-opacity:1;stroke-miterlimit:4;" d="M 439.499788 287.999992 L 447.500334 271.999935 L 457.499723 256.500106 L 453.499967 240.500049 L 457.499723 224.499992 L 457.499723 207.999707 L 449.500212 191.99965 L 449.500212 188.500122 " transform="matrix(3.779528,0,0,3.779528,0,0)"/>
<path style="fill:none;stroke-width:2;stroke-linecap:butt;stroke-linejoin:miter;stroke:rgb(0%,0%,0%);stroke-opacity:1;stroke-miterlimit:4;" d="M 452.499512 194.499756 L 468.000374 200.000195 L 479.999642 187.999894 " transform="matrix(3.779528,0,0,3.779528,0,0)"/>
<path style="fill:none;stroke-width:2;stroke-linecap:butt;stroke-linejoin:miter;stroke:rgb(0%,0%,0%);stroke-opacity:1;stroke-miterlimit:4;" d="M 472.00013 177.500277 L 488.000187 175.500399 L 497.999577 199.499967 L 493.999821 191.500456 " transform="matrix(3.779528,0,0,3.779528,0,0)"/>
<path style="fill:none;stroke-width:2;stroke-linecap:butt;stroke-linejoin:miter;stroke:rgb(0%,0%,0%);stroke-opacity:1;stroke-miterlimit:4;" d="M 481.500326 205.499601 L 497.999577 211.500269 " transform="matrix(3.779528,0,0,3.779528,0,0)"/>
<path style="fill:none;stroke-width:2;stroke-linecap:butt;stroke-linejoin:miter;stroke:rgb(0%,0%,0%);stroke-opacity:1;stroke-miterlimit:4;" d="M 497.000155 218.500358 L 481.000098 216.50048 " transform="matrix(3.779528,0,0,3.779528,0,0)"/>
<path style="fill:none;stroke-width:2;stroke-linecap:butt;stroke-linejoin:miter;stroke:rgb(0%,0%,0%);stroke-opacity:1;stroke-miterlimit:4;" d="M 462.499935 216.50048 L 465.000041 232.499504 L 475.000464 238.500171 L 486.999731 254.500228 L 493.499593 270.000057 L 501.500138 283.500008 " transform="matrix(3.779528,0,0,3.779528,0,0)"/>
<path style="fill:none;stroke-width:2;stroke-linecap:butt;stroke-linejoin:miter;stroke:rgb(0%,0%,0%);stroke-opacity:1;stroke-miterlimit:4;" d="M 500.499683 246.000488 L 488.999609 245.50026 " transform="matrix(3.779528,0,0,3.779528,0,0)"/>
<path style="fill:none;stroke-width:2;stroke-linecap:butt;stroke-linejoin:miter;stroke:rgb(0%,0%,0%);stroke-opacity:1;stroke-miterlimit:4;" d="M 468.000374 236.500293 L 457.999951 252.50035 L 466.000496 259.999634 L 477.999764 261.999512 L 488.000187 275.500496 L 484.499626 289.000448 L 488.500415 305.499699 L 488.500415 323.999862 L 486.499504 340.500146 " transform="matrix(3.779528,0,0,3.779528,0,0)"/>
<path style="fill:none;stroke-width:2;stroke-linecap:butt;stroke-linejoin:miter;stroke:rgb(0%,0%,0%);stroke-opacity:1;stroke-miterlimit:4;" d="M 475.999886 339.499691 L 463.999585 323.499634 L 452.000317 321.499756 L 452.000317 321.999984 L 436.500488 320.000106 L 420.500431 318.000228 " transform="matrix(3.779528,0,0,3.779528,0,0)"/>
<path style="fill:none;stroke-width:2;stroke-linecap:butt;stroke-linejoin:miter;stroke:rgb(0%,0%,0%);stroke-opacity:1;stroke-miterlimit:4;" d="M 416.000448 322.500212 L 432.499699 329.000073 L 448.499756 335.499935 L 464.499813 336.000163 L 480.49987 348.499658 " transform="matrix(3.779528,0,0,3.779528,0,0)"/>
<path style="fill:none;stroke-width:2;stroke-linecap:butt;stroke-linejoin:miter;stroke:rgb(0%,0%,0%);stroke-opacity:1;stroke-miterlimit:4;" d="M 477.000342 337.499813 L 460.500057 320.000106 L 444.5 316.00035 L 427.999715 314.000472 L 411.999658 320.000106 " transform="matrix(3.779528,0,0,3.779528,0,0)"/>
<path style="fill:none;stroke-width:2;stroke-linecap:butt;stroke-linejoin:miter;stroke:rgb(0%,0%,0%);stroke-opacity:1;stroke-miterlimit:4;" d="M 411.000236 314.000472 L 427.000293 305.999927 " transform="matrix(3.779528,0,0,3.779528,0,0)"/>
<path style="fill:none;stroke-width:2;stroke-linecap:butt;stroke-linejoin:miter;stroke:rgb(0%,0%,0%);stroke-opacity:1;stroke-miterlimit:4;" d="M 445.000228 291.999748 L 453.499967 275.999691 L 461.500513 261.999512 L 440.000016 255.999878 " transform="matrix(3.779528,0,0,3.779528,0,0)"/>
<path style="fill:none;stroke-width:2;stroke-linecap:butt;stroke-linejoin:miter;stroke:rgb(0%,0%,0%);stroke-opacity:1;stroke-miterlimit:4;" d="M 434.999805 273.499585 L 432.999927 257.499528 L 432.499699 241.500505 L 430.499821 225.00022 L 429.999593 209.500391 L 427.999715 193.999528 L 426.500065 178.000505 L 427.000293 161.50022 L 422.999504 145.500163 L 421.499854 129.500106 L 413.000114 125.50035 " transform="matrix(3.779528,0,0,3.779528,0,0)"/>
<path style="fill:none;stroke-width:2;stroke-linecap:butt;stroke-linejoin:miter;stroke:rgb(0%,0%,0%);stroke-opacity:1;stroke-miterlimit:4;" d="M 417.500098 107.000187 L 432.999927 115.499927 " transform="matrix(3.779528,0,0,3.779528,0,0)"/>
<path style="fill:none;stroke-width:2;stroke-linecap:butt;stroke-linejoin:miter;stroke:rgb(0%,0%,0%);stroke-opacity:1;stroke-miterlimit:4;" d="M 436.500488 97.499992 L 470.000252 113.500049 L 479.999642 129.500106 L 484.000431 144.999935 L 479.999642 160.999992 L 474.500236 176.499821 L 470.50048 192.499878 L 472.00013 210.499813 L 502.000366 216.50048 " transform="matrix(3.779528,0,0,3.779528,0,0)"/>
<path style="fill:none;stroke-width:2;stroke-linecap:butt;stroke-linejoin:miter;stroke:rgb(0%,0%,0%);stroke-opacity:1;stroke-miterlimit:4;" d="M 508.500228 152.000024 L 500.499683 146.000391 L 479.999642 156.500008 L 459.999829 162.499642 L 463.999585 146.999813 L 472.00013 123.000244 L 456.000073 111.500171 L 440.500244 103.000431 L 424.500187 96.999764 " transform="matrix(3.779528,0,0,3.779528,0,0)"/>
<path style="fill:none;stroke-width:2;stroke-linecap:butt;stroke-linejoin:miter;stroke:rgb(0%,0%,0%);stroke-opacity:1;stroke-miterlimit:4;" d="M 434.000382 93.000008 L 449.500212 99.49987 L 465.500269 107.500415 L 481.500326 129.500106 " transform="matrix(3.779528,0,0,3.779528,0,0)"/>
<path style="fill:none;stroke-width:2;stroke-linecap:butt;stroke-linejoin:miter;stroke:rgb(0%,0%,0%);stroke-opacity:1;stroke-miterlimit:4;" d="M 440.000016 80.999707 L 428.499943 87.000374 L 412.499886 93.000008 L 395.999601 101.499748 L 379.999544 109.500293 L 363.999487 121.999788 L 347.500236 135.999967 L 334.000285 121.999788 L 318.000228 118.000033 L 286.000114 118.000033 L 270.000057 109.999487 " transform="matrix(3.779528,0,0,3.779528,0,0)"/>
<path style="fill:none;stroke-width:2;stroke-linecap:butt;stroke-linejoin:miter;stroke:rgb(0%,0%,0%);stroke-opacity:1;stroke-miterlimit:4;" d="M 277.999569 116.000155 L 271.999935 98.00022 L 284.000236 96.000342 " transform="matrix(3.779528,0,0,3.779528,0,0)"/>
<path style="fill:none;stroke-width:2;stroke-linecap:butt;stroke-linejoin:miter;stroke:rgb(0%,0%,0%);stroke-opacity:1;stroke-miterlimit:4;" d="M 293.500431 93.000008 L 309.500488 106.499959 L 333.500057 110.999943 " transform="matrix(3.779528,0,0,3.779528,0,0)"/>
<path style="fill:none;stroke-width:2;stroke-linecap:butt;stroke-linejoin:miter;stroke:rgb(0%,0%,0%);stroke-opacity:1;stroke-miterlimit:4;" d="M 331.500179 99.49987 L 347.500236 101.499748 " transform="matrix(3.779528,0,0,3.779528,0,0)"/>
<path style="fill:none;stroke-width:2;stroke-linecap:butt;stroke-linejoin:miter;stroke:rgb(0%,0%,0%);stroke-opacity:1;stroke-miterlimit:4;" d="M 353.49987 97.499992 L 337.499813 95.500114 L 321.499756 95.500114 " transform="matrix(3.779528,0,0,3.779528,0,0)"/>
<path style="fill:none;stroke-width:2;stroke-linecap:butt;stroke-linejoin:miter;stroke:rgb(0%,0%,0%);stroke-opacity:1;stroke-miterlimit:4;" d="M 320.000106 84.000041 L 336.000163 85.999919 L 352.500448 85.499691 L 368.500505 85.999919 " transform="matrix(3.779528,0,0,3.779528,0,0)"/>
<path style="fill:none;stroke-width:2;stroke-linecap:butt;stroke-linejoin:miter;stroke:rgb(0%,0%,0%);stroke-opacity:1;stroke-miterlimit:4;" d="M 356.500203 41.500309 L 340.500146 43.500187 " transform="matrix(3.779528,0,0,3.779528,0,0)"/>
<path style="fill:none;stroke-width:2;stroke-linecap:butt;stroke-linejoin:miter;stroke:rgb(0%,0%,0%);stroke-opacity:1;stroke-miterlimit:4;" d="M 328.499845 39.500431 L 344.499902 39.999626 L 368.000277 37.999748 L 383.500106 41.999504 " transform="matrix(3.779528,0,0,3.779528,0,0)"/>
<path style="fill:none;stroke-width:2;stroke-linecap:butt;stroke-linejoin:miter;stroke:rgb(0%,0%,0%);stroke-opacity:1;stroke-miterlimit:4;" d="M 377.999666 28.99978 L 368.000277 33.499764 L 384.000334 25.500252 " transform="matrix(3.779528,0,0,3.779528,0,0)"/>
<path style="fill:none;stroke-width:2;stroke-linecap:butt;stroke-linejoin:miter;stroke:rgb(0%,0%,0%);stroke-opacity:1;stroke-miterlimit:4;" d="M 377.999666 10.000423 L 366.000399 3.999756 L 350.000342 14.500407 L 334.000285 4.499984 " transform="matrix(3.779528,0,0,3.779528,0,0)"/>
<path style="fill:none;stroke-width:2;stroke-linecap:butt;stroke-linejoin:miter;stroke:rgb(0%,0%,0%);stroke-opacity:1;stroke-miterlimit:4;" d="M 332.999829 1.49965 L 357.000431 17.499707 L 373.499683 19.499585 L 391.499618 35.499642 L 395.999601 14.999601 L 406.000024 21.500496 " transform="matrix(3.779528,0,0,3.779528,0,0)"/>
<path style="fill:none;stroke-width:2;stroke-linecap:butt;stroke-linejoin:miter;stroke:rgb(0%,0%,0%);stroke-opacity:1;stroke-miterlimit:4;" d="M 402.000269 45.500065 L 398.000513 61.500122 L 393.999723 78.000407 L 409.99978 75.999495 L 425.999837 69.499634 L 442.500122 73.500423 " transform="matrix(3.779528,0,0,3.779528,0,0)"/>
<path style="fill:none;stroke-width:2;stroke-linecap:butt;stroke-linejoin:miter;stroke:rgb(0%,0%,0%);stroke-opacity:1;stroke-miterlimit:4;" d="M 441.000472 72.499967 L 429.000171 88.500024 L 414.999992 105.999731 L 404.999569 109.999487 L 414.499764 123.999666 L 416.499642 139.499495 L 418.49952 155.499552 L 418.49952 169.999959 L 422.500309 186.000016 L 425.000415 202.000073 L 425.000415 218.00013 L 427.000293 234.000187 L 427.000293 249.500016 L 428.499943 265.500073 L 430.499821 282.000358 L 454.000195 271.999935 L 470.50048 264.000423 L 466.499691 266.000301 L 482.499748 284.000236 " transform="matrix(3.779528,0,0,3.779528,0,0)"/>
<path style="fill:none;stroke-width:2;stroke-linecap:butt;stroke-linejoin:miter;stroke:rgb(0%,0%,0%);stroke-opacity:1;stroke-miterlimit:4;" d="M 467.500146 353.49987 L 451.50009 343.50048 L 434.999805 335.499935 L 418.49952 329.500301 L 402.500496 313.500244 " transform="matrix(3.779528,0,0,3.779528,0,0)"/>
<path style="fill:none;stroke-width:2;stroke-linecap:butt;stroke-linejoin:miter;stroke:rgb(0%,0%,0%);stroke-opacity:1;stroke-miterlimit:4;" d="M 402.000269 309.00026 L 418.000326 300.999715 " transform="matrix(3.779528,0,0,3.779528,0,0)"/>
<path style="fill:none;stroke-width:2;stroke-linecap:butt;stroke-linejoin:miter;stroke:rgb(0%,0%,0%);stroke-opacity:1;stroke-miterlimit:4;" d="M 423.499731 332.000407 L 455.499845 348.000464 L 471.499902 362.499837 L 481.500326 364.499715 " transform="matrix(3.779528,0,0,3.779528,0,0)"/>
<path style="fill:none;stroke-width:2;stroke-linecap:butt;stroke-linejoin:miter;stroke:rgb(0%,0%,0%);stroke-opacity:1;stroke-miterlimit:4;" d="M 443.999772 370.500382 L 428.499943 375.000366 L 412.499886 365.500171 L 396.499829 352.999642 " transform="matrix(3.779528,0,0,3.779528,0,0)"/>
<path style="fill:none;stroke-width:2;stroke-linecap:butt;stroke-linejoin:miter;stroke:rgb(0%,0%,0%);stroke-opacity:1;stroke-miterlimit:4;" d="M 404.500374 352.999642 L 413.999536 369.499927 L 434.000382 387.499862 " transform="matrix(3.779528,0,0,3.779528,0,0)"/>
<path style="fill:none;stroke-width:2;stroke-linecap:butt;stroke-linejoin:miter;stroke:rgb(0%,0%,0%);stroke-opacity:1;stroke-miterlimit:4;" d="M 436.00026 359.499504 L 420.000203 351.499992 L 409.99978 341.499569 L 393.999723 337.499813 L 377.500472 319.499878 L 361.500415 311.500366 L 345.999552 309.999683 L 330.499723 304.000049 L 314.499666 297.500187 L 298.499609 289.499642 L 282.499552 281.50013 L 266.000301 273.000391 L 249.500016 264.999845 L 233.499959 255.49965 L 217.499902 245.50026 L 202.000073 259.500439 L 196.000439 257.499528 L 198.000317 241.999699 L 186.000016 228.499748 " transform="matrix(3.779528,0,0,3.779528,0,0)"/>
<path style="fill:none;stroke-width:2;stroke-linecap:butt;stroke-linejoin:miter;stroke:rgb(0%,0%,0%);stroke-opacity:1;stroke-miterlimit:4;" d="M 187.000472 215.500024 L 203.499723 225.999642 " transform="matrix(3.779528,0,0,3.779528,0,0)"/>
<path style="fill:none;stroke-width:2;stroke-linecap:butt;stroke-linejoin:miter;stroke:rgb(0%,0%,0%);stroke-opacity:1;stroke-miterlimit:4;" d="M 209.999585 220.500236 L 193.999528 200.500423 " transform="matrix(3.779528,0,0,3.779528,0,0)"/>
<path style="fill:none;stroke-width:2;stroke-linecap:butt;stroke-linejoin:miter;stroke:rgb(0%,0%,0%);stroke-opacity:1;stroke-miterlimit:4;" d="M 190.5 208.499935 L 189.00035 224.499992 L 187.000472 241.000277 L 184.999561 257.499528 L 187.000472 259.500439 L 202.999495 249.500016 L 207.000285 243.500382 L 223.000342 239.499593 L 238.500171 250.999666 L 254.500228 261.00009 L 271.000513 268.500407 L 286.999536 268.500407 L 298.499609 273.000391 L 314.499666 264.999845 " transform="matrix(3.779528,0,0,3.779528,0,0)"/>
<path style="fill:none;stroke-width:2;stroke-linecap:butt;stroke-linejoin:miter;stroke:rgb(0%,0%,0%);stroke-opacity:1;stroke-miterlimit:4;" d="M 255.000456 223.000342 L 271.000513 203.499723 L 286.999536 179.500155 L 303.499821 153.499674 L 320.000106 139.999723 L 310.49991 146.000391 L 300.499487 161.50022 L 290.500098 177.500277 L 280.999902 193.500334 L 269.499829 209.500391 L 257.499528 214.999797 L 273.000391 193.500334 L 289.000448 171.999837 L 304.500277 141.999601 " transform="matrix(3.779528,0,0,3.779528,0,0)"/>
<path style="fill:none;stroke-width:2;stroke-linecap:butt;stroke-linejoin:miter;stroke:rgb(0%,0%,0%);stroke-opacity:1;stroke-miterlimit:4;" d="M 301.499943 134.500317 L 287.499764 150.500374 L 279.500252 160.499764 L 295.500309 140.499951 " transform="matrix(3.779528,0,0,3.779528,0,0)"/>
<path style="fill:none;stroke-width:2;stroke-linecap:butt;stroke-linejoin:miter;stroke:rgb(0%,0%,0%);stroke-opacity:1;stroke-miterlimit:4;" d="M 306.500155 112.000399 L 290.500098 103.999854 L 274.500041 105.999731 L 262.49974 109.999487 L 246.499683 109.999487 L 230.499626 105.499504 L 214.499569 103.499626 " transform="matrix(3.779528,0,0,3.779528,0,0)"/>
<path style="fill:none;stroke-width:2;stroke-linecap:butt;stroke-linejoin:miter;stroke:rgb(0%,0%,0%);stroke-opacity:1;stroke-miterlimit:4;" d="M 216.999674 102.500203 L 212.499691 118.50026 L 208.499935 134.00009 L 206.500057 150.000146 L 202.000073 166.500431 L 196.000439 182.500488 L 193.999528 200.000195 L 203.999951 215.500024 L 205.499601 243.000155 L 225.500448 250.500472 L 249.500016 266.000301 L 283.500008 282.499552 L 317.5 298.999837 L 357.499626 321.499756 L 379.000122 329.999495 L 391.000423 346.49978 L 398.999935 363.000065 L 404.999569 379.000122 L 428.499943 381 L 444.5 381 L 450.000439 393.000301 L 474.500236 388.500317 " transform="matrix(3.779528,0,0,3.779528,0,0)"/>
<path style="fill:none;stroke-width:2;stroke-linecap:butt;stroke-linejoin:miter;stroke:rgb(0%,0%,0%);stroke-opacity:1;stroke-miterlimit:4;" d="M 441.499666 386.500439 L 415.50022 357.999854 " transform="matrix(3.779528,0,0,3.779528,0,0)"/>
<path style="fill:none;stroke-width:2;stroke-linecap:butt;stroke-linejoin:miter;stroke:rgb(0%,0%,0%);stroke-opacity:1;stroke-miterlimit:4;" d="M 418.000326 340.500146 L 438.000138 355.999976 " transform="matrix(3.779528,0,0,3.779528,0,0)"/>
<path style="fill:none;stroke-width:2;stroke-linecap:butt;stroke-linejoin:miter;stroke:rgb(0%,0%,0%);stroke-opacity:1;stroke-miterlimit:4;" d="M 372.000033 411.000236 L 372.000033 427.000293 L 368.000277 443.499544 L 369.499927 457.499723 L 367.500049 474.000008 L 364.999943 490.000065 L 366.999821 506.000122 L 347.500236 510.500106 L 375.499561 482.499748 L 391.499618 484.499626 L 407.499674 468.999797 " transform="matrix(3.779528,0,0,3.779528,0,0)"/>
<path style="fill:none;stroke-width:2;stroke-linecap:butt;stroke-linejoin:miter;stroke:rgb(0%,0%,0%);stroke-opacity:1;stroke-miterlimit:4;" d="M 403.499919 466.999919 L 389.49974 482.999976 L 389.49974 506.000122 " transform="matrix(3.779528,0,0,3.779528,0,0)"/>
<path style="fill:none;stroke-width:2;stroke-linecap:butt;stroke-linejoin:miter;stroke:rgb(0%,0%,0%);stroke-opacity:1;stroke-miterlimit:4;" d="M 352.00022 414.499764 L 336.000163 413.999536 L 320.000106 413.500342 " transform="matrix(3.779528,0,0,3.779528,0,0)"/>
<path style="fill:none;stroke-width:2;stroke-linecap:butt;stroke-linejoin:miter;stroke:rgb(0%,0%,0%);stroke-opacity:1;stroke-miterlimit:4;" d="M 304.000049 418.999748 L 287.499764 414.999992 L 271.000513 413.000114 L 265.500073 422.999504 L 250.000244 425.499609 L 234.000187 427.499487 L 218.00013 431.500277 L 201.499845 435.500033 L 169.499731 443.499544 L 153.499674 447.500334 L 137.499618 451.50009 L 121.999788 455.499845 L 106.499959 461.500513 L 58.499788 473.49978 L 41.999504 479.500448 L 25.500252 484.000431 L 9.500195 490.000065 L 33.499764 486.000309 " transform="matrix(3.779528,0,0,3.779528,0,0)"/>
<path style="fill:none;stroke-width:2;stroke-linecap:butt;stroke-linejoin:miter;stroke:rgb(0%,0%,0%);stroke-opacity:1;stroke-miterlimit:4;" d="M 1.999878 497.500382 L 17.999935 491.499715 L 33.999992 484.999854 L 50.000049 481.000098 L 66.500334 477.499536 L 82.500391 473.49978 L 98.500448 466.999919 L 114.500505 463.000163 L 130.499528 459.000407 L 146.499585 453.499967 L 162.499642 451.50009 L 178.499699 445.500456 L 194.499756 443.499544 L 210.499813 436.999683 L 226.49987 434.999805 L 242.499927 431.000049 L 257.999756 427.000293 " transform="matrix(3.779528,0,0,3.779528,0,0)"/>
<path style="fill:none;stroke-width:2;stroke-linecap:butt;stroke-linejoin:miter;stroke:rgb(0%,0%,0%);stroke-opacity:1;stroke-miterlimit:4;" d="M 226.49987 409.000358 L 211.000041 411.500464 L 194.999984 413.500342 L 178.499699 417.500098 L 146.499585 425.499609 L 130.499528 429.500399 L 114.999699 433.500155 L 98.999642 438.000138 L 82.999585 441.999894 L 66.999528 444.5 L 50.500277 454.500423 L 34.50022 459.000407 L 17.999935 463.000163 L 1.999878 465.000041 " transform="matrix(3.779528,0,0,3.779528,0,0)"/>
<path style="fill:none;stroke-width:2;stroke-linecap:butt;stroke-linejoin:miter;stroke:rgb(0%,0%,0%);stroke-opacity:1;stroke-miterlimit:4;" d="M 2.500106 461.000285 L 18.500163 456.999495 L 34.50022 454.999618 L 50.500277 451.50009 L 69.000439 450.999862 L 85.000496 447.000106 L 100.99952 443.00035 L 116.999577 438.999561 L 132.999634 434.999805 L 149.499919 431.000049 L 165.499976 427.000293 L 181.500033 422.500309 L 197.50009 420.500431 L 213.500146 416.499642 " transform="matrix(3.779528,0,0,3.779528,0,0)"/>
<path style="fill:none;stroke-width:2;stroke-linecap:butt;stroke-linejoin:miter;stroke:rgb(0%,0%,0%);stroke-opacity:1;stroke-miterlimit:4;" d="M 301.499943 418.000326 L 301.499943 434.000382 L 300.000293 450.000439 L 300.000293 466.000496 L 302.000171 482.499748 L 304.000049 498.499805 " transform="matrix(3.779528,0,0,3.779528,0,0)"/>
<path style="fill:none;stroke-width:2;stroke-linecap:butt;stroke-linejoin:miter;stroke:rgb(0%,0%,0%);stroke-opacity:1;stroke-miterlimit:4;" d="M 353.49987 386.000212 L 383.500106 402.000269 " transform="matrix(3.779528,0,0,3.779528,0,0)"/>
<path style="fill:none;stroke-width:2;stroke-linecap:butt;stroke-linejoin:miter;stroke:rgb(0%,0%,0%);stroke-opacity:1;stroke-miterlimit:4;" d="M 368.500505 270.000057 L 341.999797 286.000114 L 325.499512 298.000415 L 287.499764 280.499674 L 253.499772 264.499618 L 229.500203 248.499561 L 219.49978 256.500106 " transform="matrix(3.779528,0,0,3.779528,0,0)"/>
<path style="fill:none;stroke-width:2;stroke-linecap:butt;stroke-linejoin:miter;stroke:rgb(0%,0%,0%);stroke-opacity:1;stroke-miterlimit:4;" d="M 193.500334 211.500269 L 203.499723 227.500326 L 205.999829 255.49965 L 191.99965 271.499707 L 189.999772 287.499764 L 203.999951 295.500309 L 239.999821 299.500065 L 255.999878 303.499821 L 271.499707 304.000049 L 287.499764 305.999927 L 303.499821 311.999561 L 319.499878 316.00035 L 336.000163 319.499878 L 352.500448 323.499634 " transform="matrix(3.779528,0,0,3.779528,0,0)"/>
<path style="fill:none;stroke-width:2;stroke-linecap:butt;stroke-linejoin:miter;stroke:rgb(0%,0%,0%);stroke-opacity:1;stroke-miterlimit:4;" d="M 402.999691 252.50035 L 414.999992 236.500293 " transform="matrix(3.779528,0,0,3.779528,0,0)"/>
<path style="fill:none;stroke-width:2;stroke-linecap:butt;stroke-linejoin:miter;stroke:rgb(0%,0%,0%);stroke-opacity:1;stroke-miterlimit:4;" d="M 409.000358 234.500415 L 397.000057 250.500472 L 388.500317 264.499618 L 404.500374 250.500472 " transform="matrix(3.779528,0,0,3.779528,0,0)"/>
<path style="fill:none;stroke-width:2;stroke-linecap:butt;stroke-linejoin:miter;stroke:rgb(0%,0%,0%);stroke-opacity:1;stroke-miterlimit:4;" d="M 350.499536 183.49991 L 334.500513 171.499609 " transform="matrix(3.779528,0,0,3.779528,0,0)"/>
<path style="fill:none;stroke-width:2;stroke-linecap:butt;stroke-linejoin:miter;stroke:rgb(0%,0%,0%);stroke-opacity:1;stroke-miterlimit:4;" d="M 327.999618 161.50022 L 326.499967 177.500277 L 326.499967 193.500334 L 324.50009 209.999585 L 322.500212 225.999642 L 318.500456 241.999699 L 312.499788 254 L 324.50009 257.999756 L 325.99974 253.499772 L 341.499569 263.500195 L 357.499626 264.999845 L 373.499683 268.999601 L 389.49974 280.00048 L 405.499797 288.50022 L 421.499854 296.499731 " transform="matrix(3.779528,0,0,3.779528,0,0)"/>
<path style="fill:none;stroke-width:2;stroke-linecap:butt;stroke-linejoin:miter;stroke:rgb(0%,0%,0%);stroke-opacity:1;stroke-miterlimit:4;" d="M 370.000155 200.999618 L 347.500236 164.999748 L 331.500179 141.000179 " transform="matrix(3.779528,0,0,3.779528,0,0)"/>
<path style="fill:none;stroke-width:2;stroke-linecap:butt;stroke-linejoin:miter;stroke:rgb(0%,0%,0%);stroke-opacity:1;stroke-miterlimit:4;" d="M 334.999707 144.000513 L 341.000374 159.500342 L 351.499992 175.500399 L 366.000399 197.50009 L 376.500016 213.500146 L 380.499772 230.000431 L 382.999878 246.000488 L 388.999512 257.999756 L 404.500374 239.999821 " transform="matrix(3.779528,0,0,3.779528,0,0)"/>
<path style="fill:none;stroke-width:2;stroke-linecap:butt;stroke-linejoin:miter;stroke:rgb(0%,0%,0%);stroke-opacity:1;stroke-miterlimit:4;" d="M 359.999731 195.500212 L 343.999674 183.49991 L 342.500024 175.500399 L 336.500391 159.000114 " transform="matrix(3.779528,0,0,3.779528,0,0)"/>
<path style="fill:none;stroke-width:2;stroke-linecap:butt;stroke-linejoin:miter;stroke:rgb(0%,0%,0%);stroke-opacity:1;stroke-miterlimit:4;" d="M 328.499845 153.499674 L 330.499723 169.499731 L 343.50048 185.499788 " transform="matrix(3.779528,0,0,3.779528,0,0)"/>
<path style="fill:none;stroke-width:2;stroke-linecap:butt;stroke-linejoin:miter;stroke:rgb(0%,0%,0%);stroke-opacity:1;stroke-miterlimit:4;" d="M 384.499528 92.49978 L 368.999699 98.999642 L 353.49987 93.000008 L 337.499813 91.00013 L 321.499756 94.499658 L 305.499699 78.499601 " transform="matrix(3.779528,0,0,3.779528,0,0)"/>
<path style="fill:none;stroke-width:2;stroke-linecap:butt;stroke-linejoin:miter;stroke:rgb(0%,0%,0%);stroke-opacity:1;stroke-miterlimit:4;" d="M 302.000171 73.999618 L 313.500244 89.999674 L 327.999618 106.499959 L 336.000163 112.499593 L 346.49978 107.999609 L 364.499715 105.499504 L 381 98.00022 L 397.000057 89.999674 L 413.000114 82.000163 L 429.000171 73.999618 " transform="matrix(3.779528,0,0,3.779528,0,0)"/>
<path style="fill:none;stroke-width:2;stroke-linecap:butt;stroke-linejoin:miter;stroke:rgb(0%,0%,0%);stroke-opacity:1;stroke-miterlimit:4;" d="M 430.499821 69.000439 L 394.499951 84.500269 L 362.499837 108.499837 L 346.49978 118.50026 L 332.499601 134.500317 L 326.499967 152.500252 L 325.000317 168.500309 L 323.000439 184.500366 L 321.499756 200.000195 L 318.99965 216.000252 L 316.999772 232.499504 L 325.000317 248.000366 L 350.999764 257.999756 L 391.000423 273.499585 L 422.500309 289.499642 L 416.000448 309.500488 L 422.000081 325.499512 L 455.499845 341.499569 L 485.500081 357.499626 L 485.500081 379.999544 L 465.500269 395.999601 L 469.500024 383.500106 L 485.500081 367.500049 " transform="matrix(3.779528,0,0,3.779528,0,0)"/>
<path style="fill:none;stroke-width:2;stroke-linecap:butt;stroke-linejoin:miter;stroke:rgb(0%,0%,0%);stroke-opacity:1;stroke-miterlimit:4;" d="M 336.999585 118.000033 L 320.999528 105.999731 L 305.499699 87.999797 L 289.99987 84.000041 L 273.999813 90.499902 L 257.499528 100.99952 L 241.500505 105.000309 L 225.999642 100.99952 L 209.999585 100.500326 " transform="matrix(3.779528,0,0,3.779528,0,0)"/>
<path style="fill:none;stroke-width:2;stroke-linecap:butt;stroke-linejoin:miter;stroke:rgb(0%,0%,0%);stroke-opacity:1;stroke-miterlimit:4;" d="M 212.499691 98.500448 L 208.499935 114.500505 L 204.500179 130.499528 L 202.500301 146.499585 L 198.499512 162.499642 L 192.499878 178.499699 L 191.000228 194.499756 L 186.500244 209.999585 L 182.500488 225.999642 L 180.499577 241.500505 L 178.499699 257.000334 L 186.000016 273.499585 L 186.000016 289.499642 L 196.000439 289.99987 L 212.499691 289.99987 L 244.499805 295.000081 L 259.999634 298.999837 L 275.500496 298.999837 L 291.49952 300.499487 L 307.499577 306.500155 L 323.499634 312.499788 L 339.499691 314.499666 L 355.499748 320.500334 L 373.499683 321.999984 L 389.999967 341.999797 L 406.500252 354.000098 L 422.500309 361.500415 L 438.500366 366.000399 L 456.999495 359.999731 L 472.999552 368.000277 L 472.999552 373.99991 " transform="matrix(3.779528,0,0,3.779528,0,0)"/>
<path style="fill:none;stroke-width:2;stroke-linecap:butt;stroke-linejoin:miter;stroke:rgb(0%,0%,0%);stroke-opacity:1;stroke-miterlimit:4;" d="M 217.499902 225.999642 L 215.500024 209.999585 L 209.999585 193.999528 L 212.000496 177.500277 L 213.500146 161.50022 L 213.500146 145.500163 " transform="matrix(3.779528,0,0,3.779528,0,0)"/>
<path style="fill:none;stroke-width:2;stroke-linecap:butt;stroke-linejoin:miter;stroke:rgb(0%,0%,0%);stroke-opacity:1;stroke-miterlimit:4;" d="M 207.500513 159.000114 L 207.500513 175.000171 L 203.499723 191.500456 L 207.500513 207.500513 " transform="matrix(3.779528,0,0,3.779528,0,0)"/>
<path style="fill:none;stroke-width:2;stroke-linecap:butt;stroke-linejoin:miter;stroke:rgb(0%,0%,0%);stroke-opacity:1;stroke-miterlimit:4;" d="M 168.500309 186.000016 L 153.00048 173.499487 L 137.000423 157.500464 L 105.000309 129.500106 L 89.000252 114.000277 " transform="matrix(3.779528,0,0,3.779528,0,0)"/>
<path style="fill:none;stroke-width:2;stroke-linecap:butt;stroke-linejoin:miter;stroke:rgb(0%,0%,0%);stroke-opacity:1;stroke-miterlimit:4;" d="M 89.999674 109.000065 L 103.999854 125.000122 L 123.500472 141.000179 L 139.499495 157.000236 L 155.499552 173.000293 " transform="matrix(3.779528,0,0,3.779528,0,0)"/>
<path style="fill:none;stroke-width:2;stroke-linecap:butt;stroke-linejoin:miter;stroke:rgb(0%,0%,0%);stroke-opacity:1;stroke-miterlimit:4;" d="M 166.000203 179.500155 L 150.000146 162.99987 L 134.500317 147.500041 L 118.50026 133.499862 L 86.500146 106.499959 " transform="matrix(3.779528,0,0,3.779528,0,0)"/>
<path style="fill:none;stroke-width:2;stroke-linecap:butt;stroke-linejoin:miter;stroke:rgb(0%,0%,0%);stroke-opacity:1;stroke-miterlimit:4;" d="M 86.500146 106.499959 L 96.499536 122.500016 L 112.499593 138.500073 L 130.499528 154.50013 L 148.500496 170.500187 L 164.49952 186.500244 " transform="matrix(3.779528,0,0,3.779528,0,0)"/>
<path style="fill:none;stroke-width:2;stroke-linecap:butt;stroke-linejoin:miter;stroke:rgb(0%,0%,0%);stroke-opacity:1;stroke-miterlimit:4;" d="M 282.99978 94.000464 L 266.999723 100.500326 L 255.000456 100.500326 L 282.499552 84.500269 " transform="matrix(3.779528,0,0,3.779528,0,0)"/>
<path style="fill:none;stroke-width:2;stroke-linecap:butt;stroke-linejoin:miter;stroke:rgb(0%,0%,0%);stroke-opacity:1;stroke-miterlimit:4;" d="M 293.000203 82.500391 L 298.999837 98.500448 L 307.000382 114.000277 L 291.000326 137.499618 L 277.000146 153.499674 L 279.000024 150.999569 L 295.500309 130.999756 L 311.999561 123.500472 L 314.000472 129.500106 L 329.999495 125.50035 L 343.999674 119.499683 " transform="matrix(3.779528,0,0,3.779528,0,0)"/>
<path style="fill:none;stroke-width:2;stroke-linecap:butt;stroke-linejoin:miter;stroke:rgb(0%,0%,0%);stroke-opacity:1;stroke-miterlimit:4;" d="M 303.499821 88.500024 L 317.5 104.500081 L 330.999951 120.500138 L 305.000505 136.500195 L 298.499609 152.000024 L 288.50022 168.000081 L 278.499797 183.49991 L 266.999723 199.499967 L 255.000456 215.500024 L 257.499528 239.000399 L 263.500195 236.999487 L 295.500309 236.999487 L 311.500366 241.500505 L 325.499512 247.500138 L 341.499569 253.499772 L 357.999854 259.999634 L 373.99991 264.499618 L 389.999967 273.000391 L 406.000024 282.99978 L 422.000081 291.000326 L 438.000138 291.000326 L 454.500423 259.000212 L 457.999951 248.999788 L 470.000252 214.999797 L 473.49978 228.499748 L 481.500326 222.500114 L 497.000155 226.49987 " transform="matrix(3.779528,0,0,3.779528,0,0)"/>
<path style="fill:none;stroke-width:2;stroke-linecap:butt;stroke-linejoin:miter;stroke:rgb(0%,0%,0%);stroke-opacity:1;stroke-miterlimit:4;" d="M 509.000456 227.500326 L 486.999731 223.499536 L 464.499813 207.999707 L 454.500423 189.999772 L 466.000496 187.999894 L 470.000252 171.999837 L 475.499658 155.99978 L 477.499536 140.499951 L 471.499902 124.499894 L 449.500212 108.499837 L 431.500277 92.49978 L 443.499544 76.499723 " transform="matrix(3.779528,0,0,3.779528,0,0)"/>
<path style="fill:none;stroke-width:2;stroke-linecap:butt;stroke-linejoin:miter;stroke:rgb(0%,0%,0%);stroke-opacity:1;stroke-miterlimit:4;" d="M 436.999683 71.000317 L 402.500496 87.000374 L 386.999634 107.000187 L 364.499715 123.000244 L 350.499536 140.499951 L 366.000399 126.499772 L 382.49965 118.50026 L 398.999935 107.999609 L 413.500342 116.000155 L 429.500399 119.499683 " transform="matrix(3.779528,0,0,3.779528,0,0)"/>
<path style="fill:none;stroke-width:2;stroke-linecap:butt;stroke-linejoin:miter;stroke:rgb(0%,0%,0%);stroke-opacity:1;stroke-miterlimit:4;" d="M 345.500358 67.499756 L 329.999495 51.499699 " transform="matrix(3.779528,0,0,3.779528,0,0)"/>
<path style="fill:none;stroke-width:2;stroke-linecap:butt;stroke-linejoin:miter;stroke:rgb(0%,0%,0%);stroke-opacity:1;stroke-miterlimit:4;" d="M 302.000171 73.999618 L 318.000228 80.000285 L 334.000285 80.000285 L 350.499536 69.999862 L 366.499593 70.50009 " transform="matrix(3.779528,0,0,3.779528,0,0)"/>
<path style="fill:none;stroke-width:2;stroke-linecap:butt;stroke-linejoin:miter;stroke:rgb(0%,0%,0%);stroke-opacity:1;stroke-miterlimit:4;" d="M 400.000391 71.99974 L 404.500374 55.999683 L 408.50013 40.499854 L 416.499642 24.499797 L 402.500496 36.500098 L 388.500317 56.49991 L 375.000366 68.500212 L 373.000488 66.500334 L 368.500505 64.500456 L 384.000334 62.499544 L 393.999723 46.499487 L 395.999601 32.500342 L 409.99978 24.499797 L 404.000146 7.999512 L 383.500106 3.499528 L 367.500049 8.999967 L 363.500293 8.999967 L 387.499862 5.000212 " transform="matrix(3.779528,0,0,3.779528,0,0)"/>
<path style="fill:none;stroke-width:2;stroke-linecap:butt;stroke-linejoin:miter;stroke:rgb(0%,0%,0%);stroke-opacity:1;stroke-miterlimit:4;" d="M 46.999715 60.499666 L 30.500464 46.499487 L 14.500407 23.000146 " transform="matrix(3.779528,0,0,3.779528,0,0)"/>
<path style="fill:none;stroke-width:2;stroke-linecap:butt;stroke-linejoin:miter;stroke:rgb(0%,0%,0%);stroke-opacity:1;stroke-miterlimit:4;" d="M 17.999935 15.499829 L 26.00048 31.499886 L 41.500309 47.499943 L 55.500488 63.5 " transform="matrix(3.779528,0,0,3.779528,0,0)"/>
<path style="fill:none;stroke-width:2;stroke-linecap:butt;stroke-linejoin:miter;stroke:rgb(0%,0%,0%);stroke-opacity:1;stroke-miterlimit:4;" d="M 45.500065 49.499821 L 29.500008 33.499764 L 13.499951 12.000301 " transform="matrix(3.779528,0,0,3.779528,0,0)"/>
<path style="fill:none;stroke-width:2;stroke-linecap:butt;stroke-linejoin:miter;stroke:rgb(0%,0%,0%);stroke-opacity:1;stroke-miterlimit:4;" d="M 12.999723 12.000301 L 17.499707 28.000358 L 28.99978 43.500187 L 45.500065 59.500244 " transform="matrix(3.779528,0,0,3.779528,0,0)"/>
<path style="fill:none;stroke-width:2;stroke-linecap:butt;stroke-linejoin:miter;stroke:rgb(0%,0%,0%);stroke-opacity:1;stroke-miterlimit:4;" d="M 17.499707 53.499577 L 17.499707 69.499634 L 15.499829 85.499691 L 15.499829 100.99952 L 13.499951 116.999577 L 13.499951 132.500439 L 12.000301 148.500496 L 10.499618 164.000326 L 11.500073 196.000439 " transform="matrix(3.779528,0,0,3.779528,0,0)"/>
<path style="fill:none;stroke-width:2;stroke-linecap:butt;stroke-linejoin:miter;stroke:rgb(0%,0%,0%);stroke-opacity:1;stroke-miterlimit:4;" d="M 6.499862 193.500334 L 4.499984 178.000505 L 5.999634 162.000448 L 5.999634 146.000391 L 7.999512 130.000334 L 10.000423 114.000277 L 9.500195 97.499992 L 11.500073 81.499935 L 11.500073 66.000106 L 14.000179 50.500277 " transform="matrix(3.779528,0,0,3.779528,0,0)"/>
</g>
</svg>
