<?xml version="1.0" encoding="UTF-8"?>
<svg xmlns="http://www.w3.org/2000/svg" xmlns:xlink="http://www.w3.org/1999/xlink" width="1935.11811" height="1935.11811" viewBox="0 0 1935.11811 1935.11811" version="1.1">
<g id="surface1">
<path style="fill:none;stroke-width:2;stroke-linecap:butt;stroke-linejoin:miter;stroke:rgb(0%,0%,0%);stroke-opacity:1;stroke-miterlimit:4;" d="M 385.499984 2.500106 L 383.500106 18.500163 L 379.50035 34.50022 L 379.50035 50.500277 L 377.500472 66.999528 L 373.499683 82.999585 L 363.500293 98.999642 L 351.499992 121.000366 L 343.000252 137.000423 L 336.999585 152.500252 L 328.499845 168.500309 L 323.000439 182.500488 L 329.000073 186.500244 L 332.999829 208.499935 L 331.500179 223.999764 L 337.499813 239.499593 L 363.500293 255.000456 L 389.49974 275.000269 L 411.500464 291.000326 L 431.500277 306.500155 L 459.999829 322.500212 L 481.99952 338.500269 L 500.499683 354.500326 L 508.500228 357.000431 " transform="matrix(3.779528,0,0,3.779528,0,0)"/>
<path style="fill:none;stroke-width:2;stroke-linecap:butt;stroke-linejoin:miter;stroke:rgb(0%,0%,0%);stroke-opacity:1;stroke-miterlimit:4;" d="M 461.999707 388.00009 L 470.50048 393.999723 L 474.500236 409.99978 L 474.500236 425.999837 L 463.999585 441.999894 L 445.99965 457.499723 " transform="matrix(3.779528,0,0,3.779528,0,0)"/>
<path style="fill:none;stroke-width:2;stroke-linecap:butt;stroke-linejoin:miter;stroke:rgb(0%,0%,0%);stroke-opacity:1;stroke-miterlimit:4;" d="M 436.999683 447.999528 L 421.499854 439.499788 L 406.000024 427.999715 " transform="matrix(3.779528,0,0,3.779528,0,0)"/>
<path style="fill:none;stroke-width:2;stroke-linecap:butt;stroke-linejoin:miter;stroke:rgb(0%,0%,0%);stroke-opacity:1;stroke-miterlimit:4;" d="M 407.00048 424.500187 L 427.000293 440.500244 " transform="matrix(3.779528,0,0,3.779528,0,0)"/>
<path style="fill:none;stroke-width:2;stroke-linecap:butt;stroke-linejoin:miter;stroke:rgb(0%,0%,0%);stroke-opacity:1;stroke-miterlimit:4;" d="M 434.000382 441.499666 L 418.000326 431.000049 L 402.000269 423.499731 " transform="matrix(3.779528,0,0,3.779528,0,0)"/>
<path style="fill:none;stroke-width:2;stroke-linecap:butt;stroke-linejoin:miter;stroke:rgb(0%,0%,0%);stroke-opacity:1;stroke-miterlimit:4;" d="M 404.999569 422.999504 L 414.999992 438.999561 " transform="matrix(3.779528,0,0,3.779528,0,0)"/>
<path style="fill:none;stroke-width:2;stroke-linecap:butt;stroke-linejoin:miter;stroke:rgb(0%,0%,0%);stroke-opacity:1;stroke-miterlimit:4;" d="M 358.500081 424.500187 L 373.99991 445.99965 L 389.999967 457.999951 L 406.000024 466.000496 L 422.000081 465.500269 L 438.000138 461.500513 L 453.499967 450.999862 L 469.500024 431.000049 L 486.000309 427.000293 L 502.000366 427.000293 " transform="matrix(3.779528,0,0,3.779528,0,0)"/>
<path style="fill:none;stroke-width:2;stroke-linecap:butt;stroke-linejoin:miter;stroke:rgb(0%,0%,0%);stroke-opacity:1;stroke-miterlimit:4;" d="M 495.999699 343.000252 L 479.999642 329.000073 L 472.00013 323.000439 L 474.000008 302.999593 L 491.999943 286.999536 L 497.999577 271.000513 L 500.000488 255.49965 L 491.499715 239.499593 L 473.49978 223.999764 L 453.499967 207.999707 L 423.499731 209.500391 L 407.499674 217.499902 L 391.000423 239.499593 " transform="matrix(3.779528,0,0,3.779528,0,0)"/>
<path style="fill:none;stroke-width:2;stroke-linecap:butt;stroke-linejoin:miter;stroke:rgb(0%,0%,0%);stroke-opacity:1;stroke-miterlimit:4;" d="M 385.499984 243.000155 L 402.000269 216.999674 L 420.000203 206.500057 L 457.999951 193.999528 L 474.500236 198.000317 L 490.500293 191.500456 L 506.50035 197.50009 " transform="matrix(3.779528,0,0,3.779528,0,0)"/>
<path style="fill:none;stroke-width:2;stroke-linecap:butt;stroke-linejoin:miter;stroke:rgb(0%,0%,0%);stroke-opacity:1;stroke-miterlimit:4;" d="M 491.999943 216.000252 L 472.00013 219.49978 L 455.499845 207.500513 " transform="matrix(3.779528,0,0,3.779528,0,0)"/>
<path style="fill:none;stroke-width:2;stroke-linecap:butt;stroke-linejoin:miter;stroke:rgb(0%,0%,0%);stroke-opacity:1;stroke-miterlimit:4;" d="M 438.000138 193.500334 L 422.000081 177.500277 " transform="matrix(3.779528,0,0,3.779528,0,0)"/>
<path style="fill:none;stroke-width:2;stroke-linecap:butt;stroke-linejoin:miter;stroke:rgb(0%,0%,0%);stroke-opacity:1;stroke-miterlimit:4;" d="M 410.500008 191.500456 L 426.500065 199.499967 " transform="matrix(3.779528,0,0,3.779528,0,0)"/>
<path style="fill:none;stroke-width:2;stroke-linecap:butt;stroke-linejoin:miter;stroke:rgb(0%,0%,0%);stroke-opacity:1;stroke-miterlimit:4;" d="M 447.000106 166.500431 L 463.000163 188.500122 L 479.00022 187.999894 L 495.000277 187.999894 L 511.000334 184.000138 " transform="matrix(3.779528,0,0,3.779528,0,0)"/>
<path style="fill:none;stroke-width:2;stroke-linecap:butt;stroke-linejoin:miter;stroke:rgb(0%,0%,0%);stroke-opacity:1;stroke-miterlimit:4;" d="M 500.99991 241.999699 L 486.999731 220.000008 L 481.000098 204.500179 L 459.000407 184.500366 L 450.999862 168.500309 " transform="matrix(3.779528,0,0,3.779528,0,0)"/>
<path style="fill:none;stroke-width:2;stroke-linecap:butt;stroke-linejoin:miter;stroke:rgb(0%,0%,0%);stroke-opacity:1;stroke-miterlimit:4;" d="M 450.999862 164.49952 L 450.999862 180.499577 L 454.500423 196.499634 L 468.499569 212.499691 L 488.500415 222.500114 " transform="matrix(3.779528,0,0,3.779528,0,0)"/>
<path style="fill:none;stroke-width:2;stroke-linecap:butt;stroke-linejoin:miter;stroke:rgb(0%,0%,0%);stroke-opacity:1;stroke-miterlimit:4;" d="M 495.500505 234.000187 L 479.500448 225.500448 L 461.500513 207.500513 L 445.500456 202.000073 L 433.500155 205.999829 L 421.499854 196.000439 L 421.499854 183.49991 L 419.499976 167.499854 L 425.499609 150.999569 L 429.500399 134.999512 " transform="matrix(3.779528,0,0,3.779528,0,0)"/>
<path style="fill:none;stroke-width:2;stroke-linecap:butt;stroke-linejoin:miter;stroke:rgb(0%,0%,0%);stroke-opacity:1;stroke-miterlimit:4;" d="M 432.000505 117.499805 L 448.499756 123.500472 L 465.000041 117.499805 " transform="matrix(3.779528,0,0,3.779528,0,0)"/>
<path style="fill:none;stroke-width:2;stroke-linecap:butt;stroke-linejoin:miter;stroke:rgb(0%,0%,0%);stroke-opacity:1;stroke-miterlimit:4;" d="M 472.00013 103.999854 L 456.000073 93.500236 L 440.000016 93.500236 " transform="matrix(3.779528,0,0,3.779528,0,0)"/>
<path style="fill:none;stroke-width:2;stroke-linecap:butt;stroke-linejoin:miter;stroke:rgb(0%,0%,0%);stroke-opacity:1;stroke-miterlimit:4;" d="M 428.499943 104.500081 L 428.499943 120.500138 L 420.500431 152.500252 L 414.499764 168.500309 L 408.50013 184.500366 L 411.999658 189.999772 L 416.000448 205.999829 L 404.000146 221.499658 L 393.999723 237.999943 L 389.999967 254 L 393.499495 270.000057 L 411.000236 285.499886 L 432.999927 301.499943 L 461.000285 317.5 L 477.000342 309.999683 L 493.000399 295.999504 L 509.000456 300.000293 " transform="matrix(3.779528,0,0,3.779528,0,0)"/>
<path style="fill:none;stroke-width:2;stroke-linecap:butt;stroke-linejoin:miter;stroke:rgb(0%,0%,0%);stroke-opacity:1;stroke-miterlimit:4;" d="M 497.999577 350.999764 L 481.99952 339.000496 L 466.000496 325.000317 L 450.499634 317.5 L 434.999805 307.999805 L 419.499976 295.999504 L 403.499919 284.500464 L 386.999634 271.999935 L 376.500016 268.000179 L 361.999609 271.499707 L 359.499504 265.500073 L 333.500057 248.999788 L 313.500244 232.999731 L 317.5 223.499536 L 311.500366 207.500513 L 302.999593 191.500456 L 296.999959 175.500399 L 293.000203 163.500098 L 297.500187 151.499797 L 302.000171 135.49974 L 305.999927 119.499683 L 311.999561 103.499626 L 320.500334 87.499569 L 330.999951 71.99974 L 343.50048 55.999683 L 355.499748 39.999626 L 350.000342 71.99974 " transform="matrix(3.779528,0,0,3.779528,0,0)"/>
<path style="fill:none;stroke-width:2;stroke-linecap:butt;stroke-linejoin:miter;stroke:rgb(0%,0%,0%);stroke-opacity:1;stroke-miterlimit:4;" d="M 346.49978 80.999707 L 354.500326 58.499788 L 348.499658 74.499845 L 345.999552 89.999674 L 345.500358 105.999731 L 345.00013 121.999788 L 337.499813 137.999845 L 331.500179 153.999902 L 323.499634 172.500065 L 339.499691 172.500065 L 345.500358 150.500374 L 361.500415 136.500195 " transform="matrix(3.779528,0,0,3.779528,0,0)"/>
<path style="fill:none;stroke-width:2;stroke-linecap:butt;stroke-linejoin:miter;stroke:rgb(0%,0%,0%);stroke-opacity:1;stroke-miterlimit:4;" d="M 379.50035 145.500163 L 395.500407 127.500228 L 405.499797 116.999577 L 389.999967 132.999634 L 372.50026 148.500496 L 375.000366 146.000391 L 384.499528 147.500041 L 400.000391 129.500106 L 397.500285 131.499984 L 383.500106 147.500041 L 375.000366 164.999748 L 343.50048 181.500033 L 332.000407 197.50009 " transform="matrix(3.779528,0,0,3.779528,0,0)"/>
<path style="fill:none;stroke-width:2;stroke-linecap:butt;stroke-linejoin:miter;stroke:rgb(0%,0%,0%);stroke-opacity:1;stroke-miterlimit:4;" d="M 355.499748 206.500057 L 354.99952 202.500301 L 370.999577 202.500301 " transform="matrix(3.779528,0,0,3.779528,0,0)"/>
<path style="fill:none;stroke-width:2;stroke-linecap:butt;stroke-linejoin:miter;stroke:rgb(0%,0%,0%);stroke-opacity:1;stroke-miterlimit:4;" d="M 343.000252 155.99978 L 359.000309 144.000513 L 375.499561 126.499772 L 391.499618 102.500203 L 400.000391 91.00013 " transform="matrix(3.779528,0,0,3.779528,0,0)"/>
<path style="fill:none;stroke-width:2;stroke-linecap:butt;stroke-linejoin:miter;stroke:rgb(0%,0%,0%);stroke-opacity:1;stroke-miterlimit:4;" d="M 411.000236 95.500114 L 427.000293 79.500057 L 442.500122 57.500366 " transform="matrix(3.779528,0,0,3.779528,0,0)"/>
<path style="fill:none;stroke-width:2;stroke-linecap:butt;stroke-linejoin:miter;stroke:rgb(0%,0%,0%);stroke-opacity:1;stroke-miterlimit:4;" d="M 460.500057 92.49978 L 482.499748 108.499837 L 472.500358 124.499894 L 456.500301 140.499951 L 480.49987 138.500073 " transform="matrix(3.779528,0,0,3.779528,0,0)"/>
<path style="fill:none;stroke-width:2;stroke-linecap:butt;stroke-linejoin:miter;stroke:rgb(0%,0%,0%);stroke-opacity:1;stroke-miterlimit:4;" d="M 493.499593 125.50035 L 485.500081 127.500228 L 475.999886 139.499495 L 497.999577 146.000391 L 499.50026 152.000024 L 509.49965 169.999959 L 491.999943 171.999837 L 500.000488 173.499487 " transform="matrix(3.779528,0,0,3.779528,0,0)"/>
<path style="fill:none;stroke-width:2;stroke-linecap:butt;stroke-linejoin:miter;stroke:rgb(0%,0%,0%);stroke-opacity:1;stroke-miterlimit:4;" d="M 495.500505 112.499593 L 507.499772 144.499707 L 507.499772 160.499764 L 485.500081 175.999593 L 486.000309 202.000073 L 491.499715 218.00013 L 495.500505 234.000187 L 503.500016 250.000244 L 503.500016 270.000057 L 497.500382 286.000114 L 485.500081 302.000171 L 461.000285 318.500456 L 481.000098 334.500513 L 501.500138 350.499536 L 507.499772 350.499536 " transform="matrix(3.779528,0,0,3.779528,0,0)"/>
<path style="fill:none;stroke-width:2;stroke-linecap:butt;stroke-linejoin:miter;stroke:rgb(0%,0%,0%);stroke-opacity:1;stroke-miterlimit:4;" d="M 503.500016 432.000505 L 487.499959 434.000382 L 465.500269 429.999593 L 449.500212 450.000439 L 433.500155 458.500179 L 417.500098 462.499935 L 401.500041 458.500179 L 385.499984 450.000439 L 369.499927 434.000382 L 353.49987 422.500309 " transform="matrix(3.779528,0,0,3.779528,0,0)"/>
<path style="fill:none;stroke-width:2;stroke-linecap:butt;stroke-linejoin:miter;stroke:rgb(0%,0%,0%);stroke-opacity:1;stroke-miterlimit:4;" d="M 390.500195 452.000317 L 370.500382 436.500488 L 359.999731 420.500431 L 334.000285 448.499756 L 318.500456 450.499634 L 302.500399 446.499878 L 286.500342 426.500065 " transform="matrix(3.779528,0,0,3.779528,0,0)"/>
<path style="fill:none;stroke-width:2;stroke-linecap:butt;stroke-linejoin:miter;stroke:rgb(0%,0%,0%);stroke-opacity:1;stroke-miterlimit:4;" d="M 280.499674 423.499731 L 296.999959 447.500334 L 313.000016 455.499845 L 329.000073 453.499967 L 345.00013 445.500456 L 361.000187 429.500399 L 373.000488 445.500456 L 394.499951 461.500513 " transform="matrix(3.779528,0,0,3.779528,0,0)"/>
<path style="fill:none;stroke-width:2;stroke-linecap:butt;stroke-linejoin:miter;stroke:rgb(0%,0%,0%);stroke-opacity:1;stroke-miterlimit:4;" d="M 310.49991 450.499634 L 287.999992 434.499577 L 284.500464 418.49952 L 282.499552 402.000269 L 284.500464 385.499984 L 270.500285 368.999699 L 261.999512 362.499837 " transform="matrix(3.779528,0,0,3.779528,0,0)"/>
<path style="fill:none;stroke-width:2;stroke-linecap:butt;stroke-linejoin:miter;stroke:rgb(0%,0%,0%);stroke-opacity:1;stroke-miterlimit:4;" d="M 246.000488 388.00009 L 230.499626 384.000334 L 214.499569 375.499561 " transform="matrix(3.779528,0,0,3.779528,0,0)"/>
<path style="fill:none;stroke-width:2;stroke-linecap:butt;stroke-linejoin:miter;stroke:rgb(0%,0%,0%);stroke-opacity:1;stroke-miterlimit:4;" d="M 202.000073 375.999788 L 205.999829 372.50026 L 205.999829 380.499772 L 221.999886 386.500439 L 230.000431 390.500195 L 246.000488 391.999845 " transform="matrix(3.779528,0,0,3.779528,0,0)"/>
<path style="fill:none;stroke-width:2;stroke-linecap:butt;stroke-linejoin:miter;stroke:rgb(0%,0%,0%);stroke-opacity:1;stroke-miterlimit:4;" d="M 246.000488 413.999536 L 246.000488 430.499821 L 250.000244 429.999593 L 253.499772 450.000439 L 241.500505 481.000098 L 237.499715 497.500382 L 243.500382 499.50026 " transform="matrix(3.779528,0,0,3.779528,0,0)"/>
<path style="fill:none;stroke-width:2;stroke-linecap:butt;stroke-linejoin:miter;stroke:rgb(0%,0%,0%);stroke-opacity:1;stroke-miterlimit:4;" d="M 252.000122 501.500138 L 266.000301 497.500382 L 266.499495 481.500326 L 266.999723 466.000496 L 267.499951 450.000439 L 265.500073 434.000382 L 268.000179 418.000326 L 271.499707 402.000269 L 267.499951 382.000456 L 262.999967 366.000399 L 252.50035 369.499927 L 236.000065 377.500472 L 220.000008 371.499805 L 203.499723 363.500293 L 187.499666 357.499626 L 171.499609 351.499992 L 155.499552 347.500236 " transform="matrix(3.779528,0,0,3.779528,0,0)"/>
<path style="fill:none;stroke-width:2;stroke-linecap:butt;stroke-linejoin:miter;stroke:rgb(0%,0%,0%);stroke-opacity:1;stroke-miterlimit:4;" d="M 130.000334 339.499691 L 114.000277 355.499748 L 100.000098 371.499805 L 84.000041 387.499862 L 67.999984 404.000146 L 53.999805 420.000203 L 39.500431 436.00026 L 25.500252 451.50009 L 13.499951 467.500146 L 10.999845 461.999707 L 26.999902 441.999894 L 42.999959 423.999959 L 59.500244 405.499797 L 75.500301 388.00009 L 83.499813 377.999666 " transform="matrix(3.779528,0,0,3.779528,0,0)"/>
<path style="fill:none;stroke-width:2;stroke-linecap:butt;stroke-linejoin:miter;stroke:rgb(0%,0%,0%);stroke-opacity:1;stroke-miterlimit:4;" d="M 97.499992 395.000179 L 107.500415 411.000236 L 135.49974 427.999715 L 165.499976 444.5 " transform="matrix(3.779528,0,0,3.779528,0,0)"/>
<path style="fill:none;stroke-width:2;stroke-linecap:butt;stroke-linejoin:miter;stroke:rgb(0%,0%,0%);stroke-opacity:1;stroke-miterlimit:4;" d="M 183.49991 413.000114 L 199.499967 422.500309 L 215.500024 432.499699 L 231.500081 446.499878 " transform="matrix(3.779528,0,0,3.779528,0,0)"/>
<path style="fill:none;stroke-width:2;stroke-linecap:butt;stroke-linejoin:miter;stroke:rgb(0%,0%,0%);stroke-opacity:1;stroke-miterlimit:4;" d="M 228.499748 436.00026 L 212.499691 425.499609 L 196.499634 415.50022 L 180.499577 409.499552 " transform="matrix(3.779528,0,0,3.779528,0,0)"/>
<path style="fill:none;stroke-width:2;stroke-linecap:butt;stroke-linejoin:miter;stroke:rgb(0%,0%,0%);stroke-opacity:1;stroke-miterlimit:4;" d="M 181.500033 406.000024 L 195.500212 422.000081 L 219.49978 438.000138 L 232.000309 453.499967 L 226.49987 469.500024 L 230.499626 475.499658 L 244.499805 459.499601 L 260.499862 417.500098 " transform="matrix(3.779528,0,0,3.779528,0,0)"/>
<path style="fill:none;stroke-width:2;stroke-linecap:butt;stroke-linejoin:miter;stroke:rgb(0%,0%,0%);stroke-opacity:1;stroke-miterlimit:4;" d="M 278.499797 413.999536 L 282.499552 429.999593 L 290.500098 445.500456 " transform="matrix(3.779528,0,0,3.779528,0,0)"/>
<path style="fill:none;stroke-width:2;stroke-linecap:butt;stroke-linejoin:miter;stroke:rgb(0%,0%,0%);stroke-opacity:1;stroke-miterlimit:4;" d="M 280.499674 438.999561 L 280.499674 470.999674 L 278.499797 487.499959 L 273.000391 502.999788 " transform="matrix(3.779528,0,0,3.779528,0,0)"/>
<path style="fill:none;stroke-width:2;stroke-linecap:butt;stroke-linejoin:miter;stroke:rgb(0%,0%,0%);stroke-opacity:1;stroke-miterlimit:4;" d="M 272.500163 499.000033 L 261.00009 509.000456 L 250.999666 509.999878 L 230.000431 509.999878 L 220.000008 491.999943 L 202.000073 504.000244 L 186.000016 503.500016 L 169.499731 503.500016 L 153.499674 500.99991 L 121.499561 500.99991 L 105.999731 499.000033 L 89.999674 499.50026 L 57.999561 499.50026 L 41.999504 500.000488 L 26.499674 497.999577 L 10.499618 491.999943 L 4.499984 509.999878 L 5.999634 500.000488 L 5.999634 486.000309 L 8.49974 468.000374 L 20.500041 452.000317 L 48.500399 420.000203 L 52.500155 404.000146 L 58.499788 377.999666 L 78.000407 359.999731 L 100.000098 343.50048 L 118.000033 327.500423 L 134.00009 311.500366 L 150.000146 295.999504 L 137.999845 307.999805 L 122.500016 321.999984 L 106.499959 339.999919 L 90.499902 350.000342 L 74.499845 363.999487 L 58.499788 368.000277 L 42.499731 377.500472 L 26.499674 371.499805 " transform="matrix(3.779528,0,0,3.779528,0,0)"/>
<path style="fill:none;stroke-width:2;stroke-linecap:butt;stroke-linejoin:miter;stroke:rgb(0%,0%,0%);stroke-opacity:1;stroke-miterlimit:4;" d="M 38.499976 384.999756 L 22.499919 376.500016 L 32.500342 358.500081 L 46.499487 343.000252 L 54.500033 326.499967 L 64.99965 311.000138 L 93.500236 311.000138 L 125.50035 295.000081 L 115.499927 288.50022 L 99.49987 284.500464 " transform="matrix(3.779528,0,0,3.779528,0,0)"/>
<path style="fill:none;stroke-width:2;stroke-linecap:butt;stroke-linejoin:miter;stroke:rgb(0%,0%,0%);stroke-opacity:1;stroke-miterlimit:4;" d="M 104.500081 281.50013 L 120.500138 286.000114 L 151.499797 286.000114 " transform="matrix(3.779528,0,0,3.779528,0,0)"/>
<path style="fill:none;stroke-width:2;stroke-linecap:butt;stroke-linejoin:miter;stroke:rgb(0%,0%,0%);stroke-opacity:1;stroke-miterlimit:4;" d="M 141.999601 259.500439 L 150.000146 239.999821 L 150.000146 223.999764 L 153.999902 224.499992 L 162.000448 204.500179 " transform="matrix(3.779528,0,0,3.779528,0,0)"/>
<path style="fill:none;stroke-width:2;stroke-linecap:butt;stroke-linejoin:miter;stroke:rgb(0%,0%,0%);stroke-opacity:1;stroke-miterlimit:4;" d="M 187.999894 212.999919 L 202.000073 222.500114 L 202.500301 241.999699 L 210.499813 248.000366 L 216.999674 251.499894 " transform="matrix(3.779528,0,0,3.779528,0,0)"/>
<path style="fill:none;stroke-width:2;stroke-linecap:butt;stroke-linejoin:miter;stroke:rgb(0%,0%,0%);stroke-opacity:1;stroke-miterlimit:4;" d="M 236.000065 271.000513 L 252.000122 273.000391 L 251.499894 268.500407 L 267.499951 268.500407 L 284.000236 271.000513 " transform="matrix(3.779528,0,0,3.779528,0,0)"/>
<path style="fill:none;stroke-width:2;stroke-linecap:butt;stroke-linejoin:miter;stroke:rgb(0%,0%,0%);stroke-opacity:1;stroke-miterlimit:4;" d="M 293.000203 284.000236 L 277.000146 281.50013 L 261.500317 280.999902 " transform="matrix(3.779528,0,0,3.779528,0,0)"/>
<path style="fill:none;stroke-width:2;stroke-linecap:butt;stroke-linejoin:miter;stroke:rgb(0%,0%,0%);stroke-opacity:1;stroke-miterlimit:4;" d="M 237.499715 284.000236 L 253.499772 286.000114 L 269.499829 286.500342 L 286.000114 286.500342 L 264.000423 314.499666 L 260.499862 330.499723 L 260.499862 346.49978 L 256.500106 361.999609 L 252.50035 377.999666 L 264.000423 379.50035 L 263.500195 399.500163 L 261.999512 415.50022 L 255.999878 432.000505 L 248.000366 448.499756 L 243.999577 464.499813 L 236.000065 479.999642 L 232.000309 495.999699 L 213.500146 504.500472 " transform="matrix(3.779528,0,0,3.779528,0,0)"/>
<path style="fill:none;stroke-width:2;stroke-linecap:butt;stroke-linejoin:miter;stroke:rgb(0%,0%,0%);stroke-opacity:1;stroke-miterlimit:4;" d="M 218.999552 509.999878 L 202.999495 509.999878 L 187.000472 508 L 154.50013 508 L 138.500073 507.499772 L 122.500016 508 L 105.999731 506.000122 L 89.50048 506.000122 L 73.500423 506.50035 L 57.500366 506.50035 L 41.500309 504.500472 L 25.500252 502.499561 " transform="matrix(3.779528,0,0,3.779528,0,0)"/>
<path style="fill:none;stroke-width:2;stroke-linecap:butt;stroke-linejoin:miter;stroke:rgb(0%,0%,0%);stroke-opacity:1;stroke-miterlimit:4;" d="M 29.500008 508 L 45.500065 509.999878 L 77.500179 509.999878 L 93.500236 509.49965 " transform="matrix(3.779528,0,0,3.779528,0,0)"/>
<path style="fill:none;stroke-width:2;stroke-linecap:butt;stroke-linejoin:miter;stroke:rgb(0%,0%,0%);stroke-opacity:1;stroke-miterlimit:4;" d="M 109.500293 452.000317 L 87.499569 436.00026 L 67.499756 420.000203 L 55.500488 400.000391 L 65.499878 399.500163 L 78.999829 391.999845 L 62.999772 407.999902 " transform="matrix(3.779528,0,0,3.779528,0,0)"/>
<path style="fill:none;stroke-width:2;stroke-linecap:butt;stroke-linejoin:miter;stroke:rgb(0%,0%,0%);stroke-opacity:1;stroke-miterlimit:4;" d="M 60.000472 419.499976 L 75.500301 431.500277 L 91.500358 443.00035 L 107.500415 454.999618 L 123.000244 465.000041 " transform="matrix(3.779528,0,0,3.779528,0,0)"/>
<path style="fill:none;stroke-width:2;stroke-linecap:butt;stroke-linejoin:miter;stroke:rgb(0%,0%,0%);stroke-opacity:1;stroke-miterlimit:4;" d="M 168.000081 449.500212 L 151.499797 441.499666 L 135.49974 433.500155 L 119.499683 423.499731 L 99.49987 401.500041 " transform="matrix(3.779528,0,0,3.779528,0,0)"/>
<path style="fill:none;stroke-width:2;stroke-linecap:butt;stroke-linejoin:miter;stroke:rgb(0%,0%,0%);stroke-opacity:1;stroke-miterlimit:4;" d="M 98.00022 395.999601 L 114.000277 409.99978 L 128.49965 421.499854 L 144.499707 432.000505 L 160.999992 440.000016 " transform="matrix(3.779528,0,0,3.779528,0,0)"/>
<path style="fill:none;stroke-width:2;stroke-linecap:butt;stroke-linejoin:miter;stroke:rgb(0%,0%,0%);stroke-opacity:1;stroke-miterlimit:4;" d="M 127 461.999707 L 111.500171 452.000317 L 96.000342 441.999894 L 80.000285 430.499821 L 63.5 416.99987 L 47.499943 427.000293 L 32.000114 447.000106 L 16.000057 464.499813 " transform="matrix(3.779528,0,0,3.779528,0,0)"/>
<path style="fill:none;stroke-width:2;stroke-linecap:butt;stroke-linejoin:miter;stroke:rgb(0%,0%,0%);stroke-opacity:1;stroke-miterlimit:4;" d="M 61.500122 420.500431 L 78.999829 436.500488 L 100.99952 452.499512 L 128.49965 468.000374 " transform="matrix(3.779528,0,0,3.779528,0,0)"/>
<path style="fill:none;stroke-width:2;stroke-linecap:butt;stroke-linejoin:miter;stroke:rgb(0%,0%,0%);stroke-opacity:1;stroke-miterlimit:4;" d="M 158.499886 445.000228 L 128.49965 429.000171 L 116.999577 412.499886 L 103.000431 396.499829 " transform="matrix(3.779528,0,0,3.779528,0,0)"/>
<path style="fill:none;stroke-width:2;stroke-linecap:butt;stroke-linejoin:miter;stroke:rgb(0%,0%,0%);stroke-opacity:1;stroke-miterlimit:4;" d="M 62.00035 384.000334 L 78.000407 384.000334 L 94.000464 375.999788 L 109.999487 359.999731 L 125.999544 343.999674 L 141.500407 336.000163 L 150.000146 345.999552 L 166.000203 345.500358 L 182.00026 349.500114 L 198.499512 354.99952 L 214.499569 361.000187 L 230.000431 368.999699 L 246.000488 367.500049 L 266.000301 359.499504 L 282.000358 381.500228 L 298.000415 383.500106 L 314.000472 381.500228 L 330.499723 384.000334 " transform="matrix(3.779528,0,0,3.779528,0,0)"/>
<path style="fill:none;stroke-width:2;stroke-linecap:butt;stroke-linejoin:miter;stroke:rgb(0%,0%,0%);stroke-opacity:1;stroke-miterlimit:4;" d="M 362.499837 368.000277 L 372.50026 352.500448 L 352.500448 336.500391 " transform="matrix(3.779528,0,0,3.779528,0,0)"/>
<path style="fill:none;stroke-width:2;stroke-linecap:butt;stroke-linejoin:miter;stroke:rgb(0%,0%,0%);stroke-opacity:1;stroke-miterlimit:4;" d="M 347.500236 334.000285 L 347.000008 350.000342 L 343.000252 365.500171 L 345.00013 381.500228 L 345.00013 401.500041 L 348.499658 417.500098 L 344.499902 433.500155 " transform="matrix(3.779528,0,0,3.779528,0,0)"/>
<path style="fill:none;stroke-width:2;stroke-linecap:butt;stroke-linejoin:miter;stroke:rgb(0%,0%,0%);stroke-opacity:1;stroke-miterlimit:4;" d="M 273.000391 393.499495 L 275.000269 409.499552 L 271.000513 425.999837 L 275.500496 430.499821 L 275.999691 446.499878 L 276.499919 463.000163 L 274.500041 478.499992 L 272.500163 494.500049 " transform="matrix(3.779528,0,0,3.779528,0,0)"/>
<path style="fill:none;stroke-width:2;stroke-linecap:butt;stroke-linejoin:miter;stroke:rgb(0%,0%,0%);stroke-opacity:1;stroke-miterlimit:4;" d="M 252.50035 482.999976 L 246.499683 498.499805 " transform="matrix(3.779528,0,0,3.779528,0,0)"/>
<path style="fill:none;stroke-width:2;stroke-linecap:butt;stroke-linejoin:miter;stroke:rgb(0%,0%,0%);stroke-opacity:1;stroke-miterlimit:4;" d="M 215.500024 491.499715 L 213.500146 475.999886 " transform="matrix(3.779528,0,0,3.779528,0,0)"/>
<path style="fill:none;stroke-width:2;stroke-linecap:butt;stroke-linejoin:miter;stroke:rgb(0%,0%,0%);stroke-opacity:1;stroke-miterlimit:4;" d="M 209.999585 469.500024 L 209.999585 485.500081 L 205.999829 500.99991 " transform="matrix(3.779528,0,0,3.779528,0,0)"/>
<path style="fill:none;stroke-width:2;stroke-linecap:butt;stroke-linejoin:miter;stroke:rgb(0%,0%,0%);stroke-opacity:1;stroke-miterlimit:4;" d="M 257.000334 490.500293 L 262.49974 490.500293 L 260.499862 475.000464 L 259.999634 459.000407 L 259.999634 443.00035 " transform="matrix(3.779528,0,0,3.779528,0,0)"/>
<path style="fill:none;stroke-width:2;stroke-linecap:butt;stroke-linejoin:miter;stroke:rgb(0%,0%,0%);stroke-opacity:1;stroke-miterlimit:4;" d="M 254.500228 447.000106 L 234.500415 472.999552 L 240.500049 456.999495 L 232.499504 440.500244 L 212.000496 424.500187 L 187.999894 408.50013 " transform="matrix(3.779528,0,0,3.779528,0,0)"/>
<path style="fill:none;stroke-width:2;stroke-linecap:butt;stroke-linejoin:miter;stroke:rgb(0%,0%,0%);stroke-opacity:1;stroke-miterlimit:4;" d="M 225.00022 373.499683 L 184.999561 357.499626 L 153.499674 336.000163 L 153.999902 320.000106 " transform="matrix(3.779528,0,0,3.779528,0,0)"/>
<path style="fill:none;stroke-width:2;stroke-linecap:butt;stroke-linejoin:miter;stroke:rgb(0%,0%,0%);stroke-opacity:1;stroke-miterlimit:4;" d="M 149.499919 316.00035 L 127.500228 332.499601 L 149.499919 345.00013 L 199.499967 357.499626 L 218.999552 377.999666 " transform="matrix(3.779528,0,0,3.779528,0,0)"/>
<path style="fill:none;stroke-width:2;stroke-linecap:butt;stroke-linejoin:miter;stroke:rgb(0%,0%,0%);stroke-opacity:1;stroke-miterlimit:4;" d="M 141.500407 324.50009 L 125.50035 336.500391 L 109.500293 352.500448 L 93.000008 370.500382 L 94.999886 368.500505 L 109.500293 352.00022 L 123.500472 336.000163 " transform="matrix(3.779528,0,0,3.779528,0,0)"/>
<path style="fill:none;stroke-width:2;stroke-linecap:butt;stroke-linejoin:miter;stroke:rgb(0%,0%,0%);stroke-opacity:1;stroke-miterlimit:4;" d="M 113.500049 298.999837 L 97.499992 305.000505 L 81.499935 315.500122 L 65.499878 325.499512 L 50.000049 338.000041 L 33.999992 356.500203 L 17.999935 374.500138 L 1.999878 368.500505 " transform="matrix(3.779528,0,0,3.779528,0,0)"/>
<path style="fill:none;stroke-width:2;stroke-linecap:butt;stroke-linejoin:miter;stroke:rgb(0%,0%,0%);stroke-opacity:1;stroke-miterlimit:4;" d="M 3.999756 350.999764 L 19.999813 363.000065 L 36.500098 345.00013 L 51.999927 316.999772 L 67.999984 300.999715 L 83.499813 284.500464 L 97.499992 278.499797 L 82.999585 294.499854 L 76.999951 309.999683 L 66.500334 315.500122 L 60.499666 329.500301 L 62.499544 309.500488 L 89.000252 303.499821 L 105.499504 297.500187 L 131.499984 291.49952 L 148.000269 289.499642 L 157.999658 287.999992 " transform="matrix(3.779528,0,0,3.779528,0,0)"/>
<path style="fill:none;stroke-width:2;stroke-linecap:butt;stroke-linejoin:miter;stroke:rgb(0%,0%,0%);stroke-opacity:1;stroke-miterlimit:4;" d="M 142.499829 270.500285 L 126.499772 271.999935 L 109.999487 275.999691 L 94.000464 283.500008 L 78.000407 299.500065 L 112.499593 293.000203 " transform="matrix(3.779528,0,0,3.779528,0,0)"/>
<path style="fill:none;stroke-width:2;stroke-linecap:butt;stroke-linejoin:miter;stroke:rgb(0%,0%,0%);stroke-opacity:1;stroke-miterlimit:4;" d="M 130.000334 246.499683 L 105.999731 261.999512 L 117.499805 252.50035 L 133.499862 246.499683 L 150.000146 236.500293 L 170.500187 228.499748 L 180.499577 242.499927 L 196.499634 237.999943 " transform="matrix(3.779528,0,0,3.779528,0,0)"/>
<path style="fill:none;stroke-width:2;stroke-linecap:butt;stroke-linejoin:miter;stroke:rgb(0%,0%,0%);stroke-opacity:1;stroke-miterlimit:4;" d="M 186.500244 251.499894 L 202.500301 263.500195 L 232.499504 287.499764 L 248.499561 302.999593 L 256.500106 318.99965 L 254.500228 334.999707 L 254 350.999764 L 245.50026 367.500049 L 255.49965 383.500106 L 271.000513 385.499984 L 293.000203 389.49974 L 309.500488 387.499862 L 325.499512 387.499862 L 345.500358 398.000513 L 361.500415 375.999788 L 377.500472 361.500415 L 393.999723 353.49987 L 409.99978 350.999764 L 425.999837 357.000431 L 441.999894 366.999821 L 463.999585 381 " transform="matrix(3.779528,0,0,3.779528,0,0)"/>
<path style="fill:none;stroke-width:2;stroke-linecap:butt;stroke-linejoin:miter;stroke:rgb(0%,0%,0%);stroke-opacity:1;stroke-miterlimit:4;" d="M 415.50022 354.000098 L 441.499666 370.000155 L 461.999707 389.999967 L 468.000374 406.000024 L 470.000252 422.500309 L 459.999829 438.500366 L 441.999894 454.500423 " transform="matrix(3.779528,0,0,3.779528,0,0)"/>
<path style="fill:none;stroke-width:2;stroke-linecap:butt;stroke-linejoin:miter;stroke:rgb(0%,0%,0%);stroke-opacity:1;stroke-miterlimit:4;" d="M 443.999772 363.000065 L 416.000448 347.000008 " transform="matrix(3.779528,0,0,3.779528,0,0)"/>
<path style="fill:none;stroke-width:2;stroke-linecap:butt;stroke-linejoin:miter;stroke:rgb(0%,0%,0%);stroke-opacity:1;stroke-miterlimit:4;" d="M 349.500114 273.000391 L 333.500057 260.499862 L 318.000228 248.999788 L 302.000171 239.000399 " transform="matrix(3.779528,0,0,3.779528,0,0)"/>
<path style="fill:none;stroke-width:2;stroke-linecap:butt;stroke-linejoin:miter;stroke:rgb(0%,0%,0%);stroke-opacity:1;stroke-miterlimit:4;" d="M 318.500456 221.999886 L 302.500399 184.000138 " transform="matrix(3.779528,0,0,3.779528,0,0)"/>
<path style="fill:none;stroke-width:2;stroke-linecap:butt;stroke-linejoin:miter;stroke:rgb(0%,0%,0%);stroke-opacity:1;stroke-miterlimit:4;" d="M 296.499731 184.999561 L 312.499788 223.000342 " transform="matrix(3.779528,0,0,3.779528,0,0)"/>
<path style="fill:none;stroke-width:2;stroke-linecap:butt;stroke-linejoin:miter;stroke:rgb(0%,0%,0%);stroke-opacity:1;stroke-miterlimit:4;" d="M 280.499674 225.999642 L 296.499731 232.000309 L 311.999561 225.999642 L 327.999618 243.500382 L 339.999919 247.500138 L 355.999976 257.499528 L 372.000033 264.999845 " transform="matrix(3.779528,0,0,3.779528,0,0)"/>
<path style="fill:none;stroke-width:2;stroke-linecap:butt;stroke-linejoin:miter;stroke:rgb(0%,0%,0%);stroke-opacity:1;stroke-miterlimit:4;" d="M 334.000285 281.50013 L 325.99974 263.500195 L 309.999683 251.499894 L 293.999626 239.000399 L 278.499797 228.999976 " transform="matrix(3.779528,0,0,3.779528,0,0)"/>
<path style="fill:none;stroke-width:2;stroke-linecap:butt;stroke-linejoin:miter;stroke:rgb(0%,0%,0%);stroke-opacity:1;stroke-miterlimit:4;" d="M 259.999634 223.999764 L 275.999691 237.999943 L 292.499976 248.000366 L 312.499788 237.999943 L 329.000073 251.499894 L 340.500146 259.500439 " transform="matrix(3.779528,0,0,3.779528,0,0)"/>
<path style="fill:none;stroke-width:2;stroke-linecap:butt;stroke-linejoin:miter;stroke:rgb(0%,0%,0%);stroke-opacity:1;stroke-miterlimit:4;" d="M 352.00022 281.50013 L 336.000163 275.999691 L 320.500334 271.999935 L 305.000505 261.500317 L 289.000448 257.499528 L 273.499585 251.499894 L 257.000334 235.499837 " transform="matrix(3.779528,0,0,3.779528,0,0)"/>
<path style="fill:none;stroke-width:2;stroke-linecap:butt;stroke-linejoin:miter;stroke:rgb(0%,0%,0%);stroke-opacity:1;stroke-miterlimit:4;" d="M 257.000334 237.499715 L 259.000212 253.499772 L 259.000212 265.500073 L 274.500041 265.500073 " transform="matrix(3.779528,0,0,3.779528,0,0)"/>
<path style="fill:none;stroke-width:2;stroke-linecap:butt;stroke-linejoin:miter;stroke:rgb(0%,0%,0%);stroke-opacity:1;stroke-miterlimit:4;" d="M 259.500439 243.999577 L 279.500252 259.999634 L 295.500309 274.500041 L 311.500366 288.50022 L 323.999862 305.000505 L 339.999919 320.999528 L 359.999731 337.499813 L 382.000456 353.49987 L 370.000155 368.999699 L 357.999854 384.999756 L 352.00022 400.499585 L 355.999976 416.99987 L 353.49987 432.999927 L 341.499569 448.999984 " transform="matrix(3.779528,0,0,3.779528,0,0)"/>
<path style="fill:none;stroke-width:2;stroke-linecap:butt;stroke-linejoin:miter;stroke:rgb(0%,0%,0%);stroke-opacity:1;stroke-miterlimit:4;" d="M 330.999951 298.000415 L 314.999894 282.000358 L 300.999715 266.000301 L 280.999902 250.000244 L 261.00009 250.000244 L 245.000033 236.000065 " transform="matrix(3.779528,0,0,3.779528,0,0)"/>
<path style="fill:none;stroke-width:2;stroke-linecap:butt;stroke-linejoin:miter;stroke:rgb(0%,0%,0%);stroke-opacity:1;stroke-miterlimit:4;" d="M 243.000155 236.000065 L 257.000334 235.499837 L 236.999487 236.999487 L 230.999854 261.00009 L 241.000277 284.999658 L 244.499805 289.000448 L 261.00009 298.999837 L 277.000146 295.000081 L 293.000203 293.500431 L 309.00026 293.500431 L 316.999772 300.000293 L 329.000073 315.500122 L 343.000252 331.500179 L 345.00013 347.500236 L 341.000374 363.500293 L 334.500513 379.999544 L 320.500334 394.499951 L 327.999618 396.499829 L 343.50048 384.499528 L 359.000309 372.50026 " transform="matrix(3.779528,0,0,3.779528,0,0)"/>
<path style="fill:none;stroke-width:2;stroke-linecap:butt;stroke-linejoin:miter;stroke:rgb(0%,0%,0%);stroke-opacity:1;stroke-miterlimit:4;" d="M 348.499658 286.000114 L 336.500391 284.000236 L 330.499723 268.000179 L 309.999683 252.000122 L 284.000236 236.000065 L 266.499495 220.000008 L 274.500041 220.000008 L 266.499495 214.000374 L 260.499862 186.000016 L 266.499495 178.000505 L 266.499495 171.999837 L 259.999634 155.99978 L 257.999756 139.499495 L 241.999699 151.499797 " transform="matrix(3.779528,0,0,3.779528,0,0)"/>
<path style="fill:none;stroke-width:2;stroke-linecap:butt;stroke-linejoin:miter;stroke:rgb(0%,0%,0%);stroke-opacity:1;stroke-miterlimit:4;" d="M 242.499927 133.499862 L 232.499504 149.499919 L 233.499959 159.500342 L 250.000244 139.499495 L 264.000423 157.500464 L 280.00048 171.999837 L 304.000049 166.000203 L 310.49991 183.49991 L 326.499967 217.499902 L 338.000041 236.999487 L 354.000098 248.999788 L 370.000155 259.000212 " transform="matrix(3.779528,0,0,3.779528,0,0)"/>
<path style="fill:none;stroke-width:2;stroke-linecap:butt;stroke-linejoin:miter;stroke:rgb(0%,0%,0%);stroke-opacity:1;stroke-miterlimit:4;" d="M 334.999707 304.500277 L 336.500391 295.999504 L 328.499845 282.000358 L 307.999805 266.000301 L 293.999626 249.500016 L 271.499707 237.499715 L 257.499528 221.499658 L 261.00009 205.499601 L 250.500472 181.500033 L 236.500293 173.499487 " transform="matrix(3.779528,0,0,3.779528,0,0)"/>
<path style="fill:none;stroke-width:2;stroke-linecap:butt;stroke-linejoin:miter;stroke:rgb(0%,0%,0%);stroke-opacity:1;stroke-miterlimit:4;" d="M 230.000431 176.499821 L 241.999699 192.499878 L 227.99952 205.999829 L 218.00013 225.999642 L 236.000065 231.500081 L 252.50035 218.999552 L 272.500163 211.500269 L 288.50022 205.999829 " transform="matrix(3.779528,0,0,3.779528,0,0)"/>
<path style="fill:none;stroke-width:2;stroke-linecap:butt;stroke-linejoin:miter;stroke:rgb(0%,0%,0%);stroke-opacity:1;stroke-miterlimit:4;" d="M 282.99978 186.500244 L 293.000203 202.000073 L 280.999902 220.000008 L 296.999959 235.499837 L 322.500212 253.499772 L 341.999797 269.499829 L 355.999976 263.500195 " transform="matrix(3.779528,0,0,3.779528,0,0)"/>
<path style="fill:none;stroke-width:2;stroke-linecap:butt;stroke-linejoin:miter;stroke:rgb(0%,0%,0%);stroke-opacity:1;stroke-miterlimit:4;" d="M 363.999487 345.00013 L 348.000464 334.999707 L 328.499845 314.999894 L 311.999561 305.000505 L 295.999504 300.999715 L 280.00048 302.999593 L 264.000423 314.999894 L 246.000488 300.499487 L 227.99952 271.999935 L 211.500269 275.500496 L 195.500212 281.50013 L 179.500155 289.499642 L 195.500212 275.000269 L 183.49991 259.000212 L 165.499976 243.000155 " transform="matrix(3.779528,0,0,3.779528,0,0)"/>
<path style="fill:none;stroke-width:2;stroke-linecap:butt;stroke-linejoin:miter;stroke:rgb(0%,0%,0%);stroke-opacity:1;stroke-miterlimit:4;" d="M 202.999495 216.50048 L 218.500358 226.49987 " transform="matrix(3.779528,0,0,3.779528,0,0)"/>
<path style="fill:none;stroke-width:2;stroke-linecap:butt;stroke-linejoin:miter;stroke:rgb(0%,0%,0%);stroke-opacity:1;stroke-miterlimit:4;" d="M 199.499967 193.999528 L 205.499601 209.999585 L 189.499544 212.000496 L 189.00035 227.99952 L 172.500065 219.49978 L 196.000439 232.000309 L 215.500024 250.000244 L 217.499902 262.49974 L 243.000155 261.00009 L 254.500228 262.999967 L 270.500285 262.999967 L 298.499609 266.499495 L 314.999894 278.499797 L 337.499813 298.499609 " transform="matrix(3.779528,0,0,3.779528,0,0)"/>
<path style="fill:none;stroke-width:2;stroke-linecap:butt;stroke-linejoin:miter;stroke:rgb(0%,0%,0%);stroke-opacity:1;stroke-miterlimit:4;" d="M 322.500212 196.000439 L 313.000016 179.500155 " transform="matrix(3.779528,0,0,3.779528,0,0)"/>
<path style="fill:none;stroke-width:2;stroke-linecap:butt;stroke-linejoin:miter;stroke:rgb(0%,0%,0%);stroke-opacity:1;stroke-miterlimit:4;" d="M 309.00026 175.999593 L 314.999894 191.500456 L 320.999528 207.500513 L 329.000073 223.999764 L 332.999829 240.500049 L 352.999642 256.500106 " transform="matrix(3.779528,0,0,3.779528,0,0)"/>
<path style="fill:none;stroke-width:2;stroke-linecap:butt;stroke-linejoin:miter;stroke:rgb(0%,0%,0%);stroke-opacity:1;stroke-miterlimit:4;" d="M 277.999569 186.000016 L 261.999512 202.000073 L 255.49965 218.00013 L 232.999731 233.499959 L 228.499748 249.500016 L 234.500415 239.999821 L 243.999577 231.500081 L 259.999634 235.499837 L 275.999691 243.000155 L 286.000114 263.500195 L 302.000171 275.500496 L 318.000228 285.499886 L 323.999862 300.999715 L 338.000041 307.000382 L 338.500269 315.500122 L 354.500326 329.500301 L 370.500382 341.000374 L 386.500439 350.999764 L 402.500496 347.000008 L 418.49952 347.500236 L 434.499577 355.499748 L 450.499634 367.500049 " transform="matrix(3.779528,0,0,3.779528,0,0)"/>
<path style="fill:none;stroke-width:2;stroke-linecap:butt;stroke-linejoin:miter;stroke:rgb(0%,0%,0%);stroke-opacity:1;stroke-miterlimit:4;" d="M 325.499512 147.500041 L 309.999683 148.999691 " transform="matrix(3.779528,0,0,3.779528,0,0)"/>
<path style="fill:none;stroke-width:2;stroke-linecap:butt;stroke-linejoin:miter;stroke:rgb(0%,0%,0%);stroke-opacity:1;stroke-miterlimit:4;" d="M 260.499862 141.000179 L 270.500285 157.500464 L 287.999992 173.499487 L 298.000415 189.499544 L 305.999927 205.999829 L 311.999561 221.999886 L 317.5 241.999699 L 335.499935 257.499528 L 363.500293 273.499585 " transform="matrix(3.779528,0,0,3.779528,0,0)"/>
<path style="fill:none;stroke-width:2;stroke-linecap:butt;stroke-linejoin:miter;stroke:rgb(0%,0%,0%);stroke-opacity:1;stroke-miterlimit:4;" d="M 232.999731 184.999561 L 221.000464 175.000171 L 199.499967 182.999683 L 173.999715 201.499845 L 157.999658 194.999984 L 155.99978 211.000041 L 132.500439 235.499837 L 116.999577 245.50026 L 100.99952 249.500016 L 80.999707 257.499528 L 64.500456 269.499829 L 48.500399 277.500374 L 32.999536 285.499886 L 17.000513 295.500309 L 5.000212 309.500488 L 28.99978 293.500431 L 60.999894 277.500374 L 82.999585 261.500317 L 116.500382 245.50026 L 126.499772 229.500203 L 112.499593 213.500146 L 98.500448 198.000317 L 114.000277 178.499699 L 119.99991 162.99987 L 128.000456 146.999813 L 97.499992 146.999813 L 81.499935 148.500496 L 65.499878 150.999569 " transform="matrix(3.779528,0,0,3.779528,0,0)"/>
<path style="fill:none;stroke-width:2;stroke-linecap:butt;stroke-linejoin:miter;stroke:rgb(0%,0%,0%);stroke-opacity:1;stroke-miterlimit:4;" d="M 70.50009 146.499585 L 69.000439 162.499642 L 76.999951 195.500212 " transform="matrix(3.779528,0,0,3.779528,0,0)"/>
<path style="fill:none;stroke-width:2;stroke-linecap:butt;stroke-linejoin:miter;stroke:rgb(0%,0%,0%);stroke-opacity:1;stroke-miterlimit:4;" d="M 98.00022 198.000317 L 114.000277 205.999829 " transform="matrix(3.779528,0,0,3.779528,0,0)"/>
<path style="fill:none;stroke-width:2;stroke-linecap:butt;stroke-linejoin:miter;stroke:rgb(0%,0%,0%);stroke-opacity:1;stroke-miterlimit:4;" d="M 105.000309 198.000317 L 123.000244 214.000374 L 139.000301 231.500081 L 152.500252 243.500382 L 148.500496 259.999634 L 146.000391 273.999813 L 160.499764 275.999691 L 162.499642 291.999748 L 168.500309 295.999504 L 144.499707 312.499788 L 124.499894 328.499845 L 106.499959 345.999552 L 88.500024 361.500415 L 70.50009 377.500472 L 55.999683 379.000122 L 37.999748 397.500285 L 21.500496 413.500342 L 9.500195 429.500399 L 3.499528 440.000016 L 19.999813 416.000448 L 35.99987 389.999967 " transform="matrix(3.779528,0,0,3.779528,0,0)"/>
<path style="fill:none;stroke-width:2;stroke-linecap:butt;stroke-linejoin:miter;stroke:rgb(0%,0%,0%);stroke-opacity:1;stroke-miterlimit:4;" d="M 33.999992 317.5 L 17.499707 321.999984 L 1.000456 323.499634 " transform="matrix(3.779528,0,0,3.779528,0,0)"/>
<path style="fill:none;stroke-width:2;stroke-linecap:butt;stroke-linejoin:miter;stroke:rgb(0%,0%,0%);stroke-opacity:1;stroke-miterlimit:4;" d="M 1.999878 320.500334 L 17.999935 316.00035 L 33.999992 313.500244 " transform="matrix(3.779528,0,0,3.779528,0,0)"/>
<path style="fill:none;stroke-width:2;stroke-linecap:butt;stroke-linejoin:miter;stroke:rgb(0%,0%,0%);stroke-opacity:1;stroke-miterlimit:4;" d="M 26.00048 246.99991 L 42.499731 240.500049 L 59.000016 236.999487 L 75.000073 230.999854 L 59.500244 246.99991 L 30.000236 253.499772 L 46.499487 252.999544 L 62.499544 246.99991 L 78.999829 242.499927 " transform="matrix(3.779528,0,0,3.779528,0,0)"/>
<path style="fill:none;stroke-width:2;stroke-linecap:butt;stroke-linejoin:miter;stroke:rgb(0%,0%,0%);stroke-opacity:1;stroke-miterlimit:4;" d="M 91.999552 239.499593 L 82.000163 255.49965 L 60.000472 271.000513 L 28.000358 286.999536 L 3.999756 302.999593 L 16.000057 300.999715 L 32.000114 291.000326 L 48.000171 282.99978 L 63.5 275.500496 L 79.500057 263.500195 L 94.999886 255.49965 L 109.500293 270.000057 L 125.999544 265.500073 L 141.999601 257.000334 L 162.499642 241.000277 L 178.499699 250.999666 L 194.499756 262.999967 " transform="matrix(3.779528,0,0,3.779528,0,0)"/>
<path style="fill:none;stroke-width:2;stroke-linecap:butt;stroke-linejoin:miter;stroke:rgb(0%,0%,0%);stroke-opacity:1;stroke-miterlimit:4;" d="M 132.000212 230.499626 L 116.000155 216.000252 L 100.000098 199.499967 " transform="matrix(3.779528,0,0,3.779528,0,0)"/>
<path style="fill:none;stroke-width:2;stroke-linecap:butt;stroke-linejoin:miter;stroke:rgb(0%,0%,0%);stroke-opacity:1;stroke-miterlimit:4;" d="M 95.500114 239.499593 L 101.499748 255.49965 L 95.500114 271.499707 L 81.499935 287.999992 L 60.999894 304.500277 L 48.999593 320.500334 L 41.000081 336.999585 L 29.500008 352.999642 L 15.499829 363.000065 L 26.00048 380.499772 L 37.999748 388.500317 L 28.000358 404.500374 L 21.999691 422.500309 L 12.000301 438.000138 L 9.500195 439.499788 L 25.500252 415.50022 L 41.500309 386.999634 L 57.500366 382.999878 L 73.999618 368.999699 L 87.999797 359.000309 L 103.999854 347.000008 L 119.99991 330.999951 L 135.49974 316.499544 L 153.499674 310.49991 L 169.999959 293.000203 L 187.999894 279.000024 " transform="matrix(3.779528,0,0,3.779528,0,0)"/>
<path style="fill:none;stroke-width:2;stroke-linecap:butt;stroke-linejoin:miter;stroke:rgb(0%,0%,0%);stroke-opacity:1;stroke-miterlimit:4;" d="M 230.499626 202.000073 L 221.000464 197.50009 L 221.000464 181.500033 " transform="matrix(3.779528,0,0,3.779528,0,0)"/>
<path style="fill:none;stroke-width:2;stroke-linecap:butt;stroke-linejoin:miter;stroke:rgb(0%,0%,0%);stroke-opacity:1;stroke-miterlimit:4;" d="M 208.499935 152.000024 L 194.499756 152.000024 L 188.500122 148.000269 L 189.999772 132.000212 L 187.999894 125.999544 " transform="matrix(3.779528,0,0,3.779528,0,0)"/>
<path style="fill:none;stroke-width:2;stroke-linecap:butt;stroke-linejoin:miter;stroke:rgb(0%,0%,0%);stroke-opacity:1;stroke-miterlimit:4;" d="M 186.500244 129.500106 L 202.500301 133.499862 " transform="matrix(3.779528,0,0,3.779528,0,0)"/>
<path style="fill:none;stroke-width:2;stroke-linecap:butt;stroke-linejoin:miter;stroke:rgb(0%,0%,0%);stroke-opacity:1;stroke-miterlimit:4;" d="M 216.999674 118.000033 L 218.999552 133.499862 L 239.499593 145.500163 L 246.000488 161.50022 L 262.49974 169.499731 " transform="matrix(3.779528,0,0,3.779528,0,0)"/>
<path style="fill:none;stroke-width:2;stroke-linecap:butt;stroke-linejoin:miter;stroke:rgb(0%,0%,0%);stroke-opacity:1;stroke-miterlimit:4;" d="M 226.49987 103.000431 L 242.499927 87.499569 L 258.499984 78.999829 L 273.999813 74.499845 L 289.99987 78.999829 L 305.999927 87.000374 L 327.500423 96.999764 L 330.999951 103.000431 " transform="matrix(3.779528,0,0,3.779528,0,0)"/>
<path style="fill:none;stroke-width:2;stroke-linecap:butt;stroke-linejoin:miter;stroke:rgb(0%,0%,0%);stroke-opacity:1;stroke-miterlimit:4;" d="M 336.999585 138.500073 L 318.99965 162.499642 L 303.499821 162.499642 L 302.000171 160.499764 L 309.999683 128.49965 L 314.000472 112.000399 L 318.000228 96.000342 L 284.000236 71.99974 " transform="matrix(3.779528,0,0,3.779528,0,0)"/>
<path style="fill:none;stroke-width:2;stroke-linecap:butt;stroke-linejoin:miter;stroke:rgb(0%,0%,0%);stroke-opacity:1;stroke-miterlimit:4;" d="M 267.499951 70.50009 L 235.499837 86.500146 L 221.000464 102.500203 L 207.000285 104.500081 L 204.500179 119.99991 L 210.499813 137.999845 L 202.500301 153.499674 L 211.000041 169.499731 L 194.999984 181.500033 L 207.500513 191.000228 L 223.499536 223.000342 L 229.500203 205.000407 " transform="matrix(3.779528,0,0,3.779528,0,0)"/>
<path style="fill:none;stroke-width:2;stroke-linecap:butt;stroke-linejoin:miter;stroke:rgb(0%,0%,0%);stroke-opacity:1;stroke-miterlimit:4;" d="M 209.000163 169.999959 L 192.499878 182.00026 L 175.999593 187.499666 L 166.000203 162.99987 L 171.499609 148.999691 L 159.500342 143.000057 " transform="matrix(3.779528,0,0,3.779528,0,0)"/>
<path style="fill:none;stroke-width:2;stroke-linecap:butt;stroke-linejoin:miter;stroke:rgb(0%,0%,0%);stroke-opacity:1;stroke-miterlimit:4;" d="M 177.500277 149.499919 L 171.499609 165.499976 " transform="matrix(3.779528,0,0,3.779528,0,0)"/>
<path style="fill:none;stroke-width:2;stroke-linecap:butt;stroke-linejoin:miter;stroke:rgb(0%,0%,0%);stroke-opacity:1;stroke-miterlimit:4;" d="M 134.00009 143.500285 L 131.499984 151.499797 L 139.499495 168.000081 L 153.499674 164.000326 L 169.499731 152.000024 L 180.000382 130.499528 L 212.000496 94.499658 L 220.000008 105.000309 L 236.500293 87.000374 L 252.50035 78.999829 L 268.500407 70.50009 L 284.500464 72.499967 L 300.000293 78.000407 L 315.500122 84.000041 L 330.999951 69.999862 L 347.500236 48.000171 " transform="matrix(3.779528,0,0,3.779528,0,0)"/>
<path style="fill:none;stroke-width:2;stroke-linecap:butt;stroke-linejoin:miter;stroke:rgb(0%,0%,0%);stroke-opacity:1;stroke-miterlimit:4;" d="M 354.99952 48.500399 L 345.00013 64.500456 L 332.999829 80.000285 L 347.000008 62.00035 " transform="matrix(3.779528,0,0,3.779528,0,0)"/>
<path style="fill:none;stroke-width:2;stroke-linecap:butt;stroke-linejoin:miter;stroke:rgb(0%,0%,0%);stroke-opacity:1;stroke-miterlimit:4;" d="M 363.000065 41.000081 L 360.499959 57.000138 L 354.99952 73.000195 L 350.499536 91.00013 L 352.500448 100.500326 L 368.000277 94.499658 " transform="matrix(3.779528,0,0,3.779528,0,0)"/>
<path style="fill:none;stroke-width:2;stroke-linecap:butt;stroke-linejoin:miter;stroke:rgb(0%,0%,0%);stroke-opacity:1;stroke-miterlimit:4;" d="M 423.999959 109.000065 L 420.000203 125.000122 L 411.500464 141.000179 L 401.500041 157.000236 L 393.499495 173.000293 L 391.499618 189.00035 L 407.00048 204.500179 L 397.000057 220.500236 L 389.49974 236.000065 L 385.499984 252.000122 L 393.499495 266.000301 L 409.000358 284.000236 L 425.000415 293.500431 L 441.000472 305.499699 L 456.999495 315.500122 L 472.500358 303.499821 L 488.500415 289.499642 L 502.499561 269.499829 " transform="matrix(3.779528,0,0,3.779528,0,0)"/>
<path style="fill:none;stroke-width:2;stroke-linecap:butt;stroke-linejoin:miter;stroke:rgb(0%,0%,0%);stroke-opacity:1;stroke-miterlimit:4;" d="M 435.500033 140.499951 L 418.999748 156.500008 L 402.500496 193.000106 L 392.500073 189.00035 L 375.499561 174.499943 L 395.500407 168.999504 L 379.50035 182.500488 L 363.999487 180.499577 L 348.000464 186.500244 L 332.499601 210.499813 L 318.000228 186.500244 L 301.499943 172.500065 L 283.500008 170.500187 L 267.499951 154.50013 L 251.499894 134.500317 L 236.000065 139.999723 L 218.500358 137.999845 L 209.000163 141.999601 L 211.000041 129.500106 L 215.500024 112.999821 L 205.499601 93.500236 L 189.00035 111.500171 L 172.500065 129.500106 L 156.500008 137.499618 L 140.499951 132.000212 L 123.999666 139.999723 L 107.500415 141.500407 L 91.00013 141.500407 L 75.000073 143.500285 L 59.000016 144.999935 " transform="matrix(3.779528,0,0,3.779528,0,0)"/>
<path style="fill:none;stroke-width:2;stroke-linecap:butt;stroke-linejoin:miter;stroke:rgb(0%,0%,0%);stroke-opacity:1;stroke-miterlimit:4;" d="M 64.000228 143.500285 L 62.499544 159.500342 L 66.500334 175.500399 L 70.50009 191.99965 L 74.499845 207.999707 L 38.499976 236.000065 L 22.499919 248.000366 L 28.499552 264.000423 L 39.999626 259.500439 L 55.500488 253.499772 L 71.499512 246.99991 " transform="matrix(3.779528,0,0,3.779528,0,0)"/>
<path style="fill:none;stroke-width:2;stroke-linecap:butt;stroke-linejoin:miter;stroke:rgb(0%,0%,0%);stroke-opacity:1;stroke-miterlimit:4;" d="M 30.999658 253.499772 L 19.000391 249.500016 L 3.000334 252.000122 " transform="matrix(3.779528,0,0,3.779528,0,0)"/>
<path style="fill:none;stroke-width:2;stroke-linecap:butt;stroke-linejoin:miter;stroke:rgb(0%,0%,0%);stroke-opacity:1;stroke-miterlimit:4;" d="M 2.500106 248.499561 L 18.500163 243.999577 L 34.50022 237.499715 L 50.500277 233.499959 L 66.000106 227.000098 " transform="matrix(3.779528,0,0,3.779528,0,0)"/>
<path style="fill:none;stroke-width:2;stroke-linecap:butt;stroke-linejoin:miter;stroke:rgb(0%,0%,0%);stroke-opacity:1;stroke-miterlimit:4;" d="M 123.999666 162.499642 L 119.99991 178.999927 L 115.499927 173.000293 L 131.499984 150.500374 L 137.499618 164.49952 " transform="matrix(3.779528,0,0,3.779528,0,0)"/>
<path style="fill:none;stroke-width:2;stroke-linecap:butt;stroke-linejoin:miter;stroke:rgb(0%,0%,0%);stroke-opacity:1;stroke-miterlimit:4;" d="M 126.499772 160.499764 L 139.000301 176.499821 L 141.000179 192.499878 " transform="matrix(3.779528,0,0,3.779528,0,0)"/>
<path style="fill:none;stroke-width:2;stroke-linecap:butt;stroke-linejoin:miter;stroke:rgb(0%,0%,0%);stroke-opacity:1;stroke-miterlimit:4;" d="M 268.000179 184.500366 L 255.999878 182.500488 L 241.999699 182.500488 L 239.999821 162.499642 L 224.499992 160.499764 L 216.50048 156.500008 L 220.000008 141.000179 L 221.999886 125.000122 L 225.999642 109.500293 L 237.999943 93.500236 L 266.499495 77.500179 " transform="matrix(3.779528,0,0,3.779528,0,0)"/>
<path style="fill:none;stroke-width:2;stroke-linecap:butt;stroke-linejoin:miter;stroke:rgb(0%,0%,0%);stroke-opacity:1;stroke-miterlimit:4;" d="M 214.999797 60.499666 L 207.000285 76.499723 L 205.000407 91.999552 L 191.000228 107.500415 L 177.000049 123.500472 L 157.000236 139.000301 L 143.500285 134.999512 L 150.000146 145.500163 L 148.000269 161.50022 L 153.999902 169.499731 L 146.000391 193.500334 L 139.999723 201.499845 L 155.99978 189.00035 L 166.000203 177.000049 L 171.999837 191.000228 L 193.999528 191.000228 L 207.999707 189.00035 L 223.999764 182.999683 L 235.499837 195.500212 L 251.499894 191.500456 L 255.000456 203.499723 L 271.499707 191.99965 L 277.999569 177.500277 L 282.000358 184.999561 " transform="matrix(3.779528,0,0,3.779528,0,0)"/>
<path style="fill:none;stroke-width:2;stroke-linecap:butt;stroke-linejoin:miter;stroke:rgb(0%,0%,0%);stroke-opacity:1;stroke-miterlimit:4;" d="M 284.000236 278.499797 L 236.000065 278.499797 L 219.49978 280.999902 L 215.500024 264.999845 L 207.000285 262.999967 L 187.000472 256.500106 L 182.999683 240.500049 L 177.500277 239.999821 L 167.499854 227.500326 L 161.50022 225.500448 L 167.499854 209.500391 L 175.500399 209.000163 L 161.50022 202.999495 L 164.999748 182.999683 L 150.999569 159.500342 L 159.000114 143.500285 L 180.999805 128.000456 L 194.999984 112.000399 L 207.000285 96.499536 L 211.000041 80.500513 L 212.499691 64.500456 " transform="matrix(3.779528,0,0,3.779528,0,0)"/>
<path style="fill:none;stroke-width:2;stroke-linecap:butt;stroke-linejoin:miter;stroke:rgb(0%,0%,0%);stroke-opacity:1;stroke-miterlimit:4;" d="M 203.999951 60.999894 L 187.999894 60.999894 L 172.500065 61.500122 L 125.000122 61.500122 L 108.499837 60.000472 L 92.49978 60.000472 L 75.999495 57.999561 L 60.000472 57.999561 L 43.500187 60.000472 L 27.50013 74.499845 L 11.500073 86.500146 L 7.500317 90.499902 L 47.499943 58.499788 " transform="matrix(3.779528,0,0,3.779528,0,0)"/>
<path style="fill:none;stroke-width:2;stroke-linecap:butt;stroke-linejoin:miter;stroke:rgb(0%,0%,0%);stroke-opacity:1;stroke-miterlimit:4;" d="M 48.000171 51.999927 L 25.500252 67.999984 L 5.999634 84.500269 L 12.000301 80.500513 L 28.499552 66.000106 L 44.499609 53.499577 L 60.999894 53.999805 L 93.000008 53.999805 L 109.000065 55.999683 L 125.000122 55.999683 L 141.000179 57.500366 L 157.000236 57.000138 L 173.000293 55.00026 L 189.00035 55.00026 L 204.500179 57.000138 " transform="matrix(3.779528,0,0,3.779528,0,0)"/>
<path style="fill:none;stroke-width:2;stroke-linecap:butt;stroke-linejoin:miter;stroke:rgb(0%,0%,0%);stroke-opacity:1;stroke-miterlimit:4;" d="M 375.499561 90.499902 L 357.499626 104.500081 L 343.50048 137.000423 L 334.000285 178.999927 L 336.000163 172.500065 L 348.000464 148.500496 L 366.000399 132.000212 L 366.000399 116.000155 L 372.000033 97.499992 L 379.999544 81.499935 L 384.000334 64.99965 L 383.500106 49.499821 L 385.499984 33.499764 L 386.999634 17.499707 L 391.000423 1.49965 " transform="matrix(3.779528,0,0,3.779528,0,0)"/>
<path style="fill:none;stroke-width:2;stroke-linecap:butt;stroke-linejoin:miter;stroke:rgb(0%,0%,0%);stroke-opacity:1;stroke-miterlimit:4;" d="M 411.500464 1.000456 L 411.500464 17.000513 L 409.499552 32.999536 L 409.499552 49.499821 L 404.000146 66.000106 L 398.000513 82.500391 L 388.00009 98.500448 L 372.000033 114.500505 L 370.000155 108.499837 L 386.500439 100.500326 L 402.999691 70.50009 L 427.000293 42.499731 L 442.500122 4.499984 " transform="matrix(3.779528,0,0,3.779528,0,0)"/>
<path style="fill:none;stroke-width:2;stroke-linecap:butt;stroke-linejoin:miter;stroke:rgb(0%,0%,0%);stroke-opacity:1;stroke-miterlimit:4;" d="M 441.999894 1.49965 L 436.00026 17.499707 L 429.500399 33.499764 L 423.499731 49.499821 L 417.500098 65.499878 L 418.000326 82.000163 L 425.999837 97.499992 L 418.000326 113.500049 L 411.999658 130.000334 L 402.000269 146.000391 L 391.999845 162.499642 L 384.000334 178.499699 L 388.00009 168.000081 L 407.999902 146.000391 L 427.999715 99.49987 L 442.500122 103.000431 L 458.500179 109.500293 " transform="matrix(3.779528,0,0,3.779528,0,0)"/>
<path style="fill:none;stroke-width:2;stroke-linecap:butt;stroke-linejoin:miter;stroke:rgb(0%,0%,0%);stroke-opacity:1;stroke-miterlimit:4;" d="M 458.500179 112.000399 L 470.50048 112.499593 L 459.000407 96.499536 " transform="matrix(3.779528,0,0,3.779528,0,0)"/>
<path style="fill:none;stroke-width:2;stroke-linecap:butt;stroke-linejoin:miter;stroke:rgb(0%,0%,0%);stroke-opacity:1;stroke-miterlimit:4;" d="M 504.999666 129.500106 L 490.999487 114.000277 L 472.999552 123.999666 L 456.999495 138.500073 L 450.999862 141.999601 L 445.500456 141.999601 L 432.999927 126.499772 L 432.999927 110.499715 L 436.500488 86.500146 L 448.499756 70.50009 L 458.500179 54.500033 L 466.499691 38.499976 L 470.50048 18.500163 L 474.500236 3.000334 " transform="matrix(3.779528,0,0,3.779528,0,0)"/>
<path style="fill:none;stroke-width:2;stroke-linecap:butt;stroke-linejoin:miter;stroke:rgb(0%,0%,0%);stroke-opacity:1;stroke-miterlimit:4;" d="M 469.500024 3.499528 L 463.500391 19.499585 L 463.500391 35.499642 L 453.499967 51.000505 L 443.499544 66.999528 L 435.500033 76.499723 L 452.000317 52.500155 " transform="matrix(3.779528,0,0,3.779528,0,0)"/>
<path style="fill:none;stroke-width:2;stroke-linecap:butt;stroke-linejoin:miter;stroke:rgb(0%,0%,0%);stroke-opacity:1;stroke-miterlimit:4;" d="M 429.999593 46.000293 L 441.499666 57.500366 L 453.499967 33.499764 L 457.499723 17.999935 L 461.999707 2.500106 " transform="matrix(3.779528,0,0,3.779528,0,0)"/>
<path style="fill:none;stroke-width:2;stroke-linecap:butt;stroke-linejoin:miter;stroke:rgb(0%,0%,0%);stroke-opacity:1;stroke-miterlimit:4;" d="M 456.000073 1.49965 L 452.000317 17.499707 L 447.999528 33.999992 L 440.000016 50.000049 L 432.000505 65.499878 L 428.499943 69.499634 L 443.999772 41.500309 " transform="matrix(3.779528,0,0,3.779528,0,0)"/>
<path style="fill:none;stroke-width:2;stroke-linecap:butt;stroke-linejoin:miter;stroke:rgb(0%,0%,0%);stroke-opacity:1;stroke-miterlimit:4;" d="M 445.99965 1.000456 L 441.999894 17.499707 L 436.00026 33.499764 L 429.999593 49.499821 L 423.999959 65.499878 L 432.000505 73.500423 L 438.000138 89.50048 L 454.500423 89.50048 L 470.50048 95.500114 L 486.999731 103.499626 L 502.999788 116.000155 " transform="matrix(3.779528,0,0,3.779528,0,0)"/>
<path style="fill:none;stroke-width:2;stroke-linecap:butt;stroke-linejoin:miter;stroke:rgb(0%,0%,0%);stroke-opacity:1;stroke-miterlimit:4;" d="M 467.500146 14.500407 L 457.499723 56.49991 L 441.000472 80.500513 L 425.000415 94.000464 L 411.000236 132.000212 L 395.000179 153.499674 L 379.000122 164.000326 L 363.000065 173.999715 L 347.000008 182.500488 L 334.999707 182.500488 L 347.000008 164.49952 L 357.000431 148.500496 L 372.50026 132.000212 L 382.49965 116.000155 L 393.999723 99.49987 L 404.000146 81.499935 L 409.499552 65.499878 L 413.500342 49.499821 L 414.999992 33.499764 L 417.500098 17.999935 L 416.99987 1.999878 " transform="matrix(3.779528,0,0,3.779528,0,0)"/>
</g>
</svg>
