<?xml version="1.0" encoding="UTF-8"?>
<svg xmlns="http://www.w3.org/2000/svg" xmlns:xlink="http://www.w3.org/1999/xlink" width="1935.11811" height="1935.11811" viewBox="0 0 1935.11811 1935.11811" version="1.1">
<g id="surface1">
<path style="fill:none;stroke-width:2;stroke-linecap:butt;stroke-linejoin:miter;stroke:rgb(0%,0%,0%);stroke-opacity:1;stroke-miterlimit:4;" d="M 281.50013 2.500106 L 287.499764 18.500163 L 295.500309 34.50022 L 305.499699 50.500277 L 313.500244 66.999528 " transform="matrix(3.779528,0,0,3.779528,0,0)"/>
<path style="fill:none;stroke-width:2;stroke-linecap:butt;stroke-linejoin:miter;stroke:rgb(0%,0%,0%);stroke-opacity:1;stroke-miterlimit:4;" d="M 356.500203 95.500114 L 372.50026 100.000098 L 388.00009 105.999731 L 403.499919 109.500293 L 413.500342 103.499626 " transform="matrix(3.779528,0,0,3.779528,0,0)"/>
<path style="fill:none;stroke-width:2;stroke-linecap:butt;stroke-linejoin:miter;stroke:rgb(0%,0%,0%);stroke-opacity:1;stroke-miterlimit:4;" d="M 407.999902 114.500505 L 392.500073 110.999943 L 376.500016 105.499504 L 360.499959 100.99952 " transform="matrix(3.779528,0,0,3.779528,0,0)"/>
<path style="fill:none;stroke-width:2;stroke-linecap:butt;stroke-linejoin:miter;stroke:rgb(0%,0%,0%);stroke-opacity:1;stroke-miterlimit:4;" d="M 361.999609 87.000374 L 377.999666 91.00013 L 393.499495 96.499536 L 409.499552 100.500326 L 425.999837 107.000187 L 457.999951 114.999699 L 473.49978 121.499561 L 490.000065 125.50035 L 506.000122 123.500472 " transform="matrix(3.779528,0,0,3.779528,0,0)"/>
<path style="fill:none;stroke-width:2;stroke-linecap:butt;stroke-linejoin:miter;stroke:rgb(0%,0%,0%);stroke-opacity:1;stroke-miterlimit:4;" d="M 502.499561 146.499585 L 504.000244 164.000326 L 511.999756 164.000326 L 509.999878 168.000081 L 508 177.500277 " transform="matrix(3.779528,0,0,3.779528,0,0)"/>
<path style="fill:none;stroke-width:2;stroke-linecap:butt;stroke-linejoin:miter;stroke:rgb(0%,0%,0%);stroke-opacity:1;stroke-miterlimit:4;" d="M 509.49965 175.999593 L 493.999821 159.999536 " transform="matrix(3.779528,0,0,3.779528,0,0)"/>
<path style="fill:none;stroke-width:2;stroke-linecap:butt;stroke-linejoin:miter;stroke:rgb(0%,0%,0%);stroke-opacity:1;stroke-miterlimit:4;" d="M 490.500293 160.499764 L 497.000155 176.499821 L 497.000155 192.499878 L 504.999666 200.500423 L 499.50026 232.000309 " transform="matrix(3.779528,0,0,3.779528,0,0)"/>
<path style="fill:none;stroke-width:2;stroke-linecap:butt;stroke-linejoin:miter;stroke:rgb(0%,0%,0%);stroke-opacity:1;stroke-miterlimit:4;" d="M 480.49987 230.999854 L 480.49987 238.500171 L 492.500171 254.500228 " transform="matrix(3.779528,0,0,3.779528,0,0)"/>
<path style="fill:none;stroke-width:2;stroke-linecap:butt;stroke-linejoin:miter;stroke:rgb(0%,0%,0%);stroke-opacity:1;stroke-miterlimit:4;" d="M 495.500505 280.499674 L 511.000334 276.499919 " transform="matrix(3.779528,0,0,3.779528,0,0)"/>
<path style="fill:none;stroke-width:2;stroke-linecap:butt;stroke-linejoin:miter;stroke:rgb(0%,0%,0%);stroke-opacity:1;stroke-miterlimit:4;" d="M 491.999943 327.500423 L 476.500114 323.000439 L 460.500057 316.999772 " transform="matrix(3.779528,0,0,3.779528,0,0)"/>
<path style="fill:none;stroke-width:2;stroke-linecap:butt;stroke-linejoin:miter;stroke:rgb(0%,0%,0%);stroke-opacity:1;stroke-miterlimit:4;" d="M 448.499756 282.000358 L 432.499699 273.999813 " transform="matrix(3.779528,0,0,3.779528,0,0)"/>
<path style="fill:none;stroke-width:2;stroke-linecap:butt;stroke-linejoin:miter;stroke:rgb(0%,0%,0%);stroke-opacity:1;stroke-miterlimit:4;" d="M 436.00026 263.500195 L 452.000317 279.500252 L 452.000317 291.000326 L 447.999528 302.999593 L 463.999585 320.999528 L 479.999642 327.000195 L 495.999699 330.999951 " transform="matrix(3.779528,0,0,3.779528,0,0)"/>
<path style="fill:none;stroke-width:2;stroke-linecap:butt;stroke-linejoin:miter;stroke:rgb(0%,0%,0%);stroke-opacity:1;stroke-miterlimit:4;" d="M 497.500382 374.500138 L 509.49965 352.00022 L 505.499894 368.000277 L 501.500138 384.499528 L 497.500382 400.499585 L 489.499837 416.499642 " transform="matrix(3.779528,0,0,3.779528,0,0)"/>
<path style="fill:none;stroke-width:2;stroke-linecap:butt;stroke-linejoin:miter;stroke:rgb(0%,0%,0%);stroke-opacity:1;stroke-miterlimit:4;" d="M 475.999886 506.50035 L 483.500203 500.000488 L 493.499593 484.000431 L 493.999821 468.000374 L 493.999821 452.000317 L 494.500049 435.500033 L 494.500049 419.499976 L 493.999821 397.500285 L 495.999699 381.500228 L 502.000366 365.500171 L 506.000122 349.500114 L 509.999878 349.500114 L 486.000309 325.499512 L 460.500057 309.500488 L 486.499504 293.500431 L 496.499927 273.499585 L 510.500106 261.500317 L 494.500049 275.500496 L 492.500171 267.499951 L 496.499927 249.500016 L 480.49987 237.499715 L 466.499691 252.000122 L 454.500423 254.500228 L 459.999829 238.500171 L 472.00013 220.500236 L 486.499504 236.500293 L 474.500236 246.499683 L 458.500179 248.499561 " transform="matrix(3.779528,0,0,3.779528,0,0)"/>
<path style="fill:none;stroke-width:2;stroke-linecap:butt;stroke-linejoin:miter;stroke:rgb(0%,0%,0%);stroke-opacity:1;stroke-miterlimit:4;" d="M 442.500122 249.500016 L 459.000407 239.499593 L 475.000464 229.500203 L 495.000277 239.499593 " transform="matrix(3.779528,0,0,3.779528,0,0)"/>
<path style="fill:none;stroke-width:2;stroke-linecap:butt;stroke-linejoin:miter;stroke:rgb(0%,0%,0%);stroke-opacity:1;stroke-miterlimit:4;" d="M 477.000342 223.999764 L 493.000399 214.000374 L 509.49965 214.499569 " transform="matrix(3.779528,0,0,3.779528,0,0)"/>
<path style="fill:none;stroke-width:2;stroke-linecap:butt;stroke-linejoin:miter;stroke:rgb(0%,0%,0%);stroke-opacity:1;stroke-miterlimit:4;" d="M 507.499772 183.49991 L 491.499715 163.500098 L 475.999886 162.99987 " transform="matrix(3.779528,0,0,3.779528,0,0)"/>
<path style="fill:none;stroke-width:2;stroke-linecap:butt;stroke-linejoin:miter;stroke:rgb(0%,0%,0%);stroke-opacity:1;stroke-miterlimit:4;" d="M 486.000309 162.499642 L 484.000431 178.999927 L 483.500203 184.999561 L 473.49978 188.500122 L 483.500203 200.500423 L 495.500505 203.999951 L 509.999878 218.00013 " transform="matrix(3.779528,0,0,3.779528,0,0)"/>
<path style="fill:none;stroke-width:2;stroke-linecap:butt;stroke-linejoin:miter;stroke:rgb(0%,0%,0%);stroke-opacity:1;stroke-miterlimit:4;" d="M 484.000431 177.000049 L 468.000374 177.000049 " transform="matrix(3.779528,0,0,3.779528,0,0)"/>
<path style="fill:none;stroke-width:2;stroke-linecap:butt;stroke-linejoin:miter;stroke:rgb(0%,0%,0%);stroke-opacity:1;stroke-miterlimit:4;" d="M 463.000163 180.499577 L 472.999552 196.499634 L 490.999487 194.499756 L 500.99991 191.99965 " transform="matrix(3.779528,0,0,3.779528,0,0)"/>
<path style="fill:none;stroke-width:2;stroke-linecap:butt;stroke-linejoin:miter;stroke:rgb(0%,0%,0%);stroke-opacity:1;stroke-miterlimit:4;" d="M 502.499561 234.500415 L 486.499504 228.499748 L 475.999886 218.500358 L 460.500057 230.499626 L 428.499943 257.499528 L 412.499886 268.999601 L 395.999601 284.500464 " transform="matrix(3.779528,0,0,3.779528,0,0)"/>
<path style="fill:none;stroke-width:2;stroke-linecap:butt;stroke-linejoin:miter;stroke:rgb(0%,0%,0%);stroke-opacity:1;stroke-miterlimit:4;" d="M 400.499585 289.000448 L 416.000448 296.999959 " transform="matrix(3.779528,0,0,3.779528,0,0)"/>
<path style="fill:none;stroke-width:2;stroke-linecap:butt;stroke-linejoin:miter;stroke:rgb(0%,0%,0%);stroke-opacity:1;stroke-miterlimit:4;" d="M 398.999935 273.499585 L 382.49965 298.000415 L 366.499593 302.500399 L 350.999764 298.499609 " transform="matrix(3.779528,0,0,3.779528,0,0)"/>
<path style="fill:none;stroke-width:2;stroke-linecap:butt;stroke-linejoin:miter;stroke:rgb(0%,0%,0%);stroke-opacity:1;stroke-miterlimit:4;" d="M 387.499862 258.499984 L 373.499683 238.500171 L 357.499626 226.49987 L 341.499569 214.999797 " transform="matrix(3.779528,0,0,3.779528,0,0)"/>
<path style="fill:none;stroke-width:2;stroke-linecap:butt;stroke-linejoin:miter;stroke:rgb(0%,0%,0%);stroke-opacity:1;stroke-miterlimit:4;" d="M 339.499691 220.000008 L 359.499504 236.000065 L 359.499504 252.000122 L 350.999764 268.000179 L 342.500024 283.500008 " transform="matrix(3.779528,0,0,3.779528,0,0)"/>
<path style="fill:none;stroke-width:2;stroke-linecap:butt;stroke-linejoin:miter;stroke:rgb(0%,0%,0%);stroke-opacity:1;stroke-miterlimit:4;" d="M 341.999797 246.499683 L 325.99974 250.000244 L 309.999683 245.50026 " transform="matrix(3.779528,0,0,3.779528,0,0)"/>
<path style="fill:none;stroke-width:2;stroke-linecap:butt;stroke-linejoin:miter;stroke:rgb(0%,0%,0%);stroke-opacity:1;stroke-miterlimit:4;" d="M 338.500269 209.500391 L 354.500326 217.499902 L 370.500382 223.499536 " transform="matrix(3.779528,0,0,3.779528,0,0)"/>
<path style="fill:none;stroke-width:2;stroke-linecap:butt;stroke-linejoin:miter;stroke:rgb(0%,0%,0%);stroke-opacity:1;stroke-miterlimit:4;" d="M 350.000342 207.999707 L 366.000399 216.50048 L 382.000456 226.49987 L 398.000513 246.499683 " transform="matrix(3.779528,0,0,3.779528,0,0)"/>
<path style="fill:none;stroke-width:2;stroke-linecap:butt;stroke-linejoin:miter;stroke:rgb(0%,0%,0%);stroke-opacity:1;stroke-miterlimit:4;" d="M 397.500285 230.999854 L 411.000236 231.500081 L 420.999626 220.000008 " transform="matrix(3.779528,0,0,3.779528,0,0)"/>
<path style="fill:none;stroke-width:2;stroke-linecap:butt;stroke-linejoin:miter;stroke:rgb(0%,0%,0%);stroke-opacity:1;stroke-miterlimit:4;" d="M 431.000049 204.500179 L 436.999683 220.000008 L 431.000049 236.000065 L 438.999561 257.499528 L 422.500309 273.499585 L 427.999715 261.500317 L 443.999772 257.499528 L 459.499601 255.49965 L 475.499658 261.500317 L 491.499715 254 " transform="matrix(3.779528,0,0,3.779528,0,0)"/>
<path style="fill:none;stroke-width:2;stroke-linecap:butt;stroke-linejoin:miter;stroke:rgb(0%,0%,0%);stroke-opacity:1;stroke-miterlimit:4;" d="M 422.000081 239.999821 L 406.000024 255.999878 L 390.500195 253.499772 L 386.500439 259.500439 L 378.499894 243.000155 L 372.000033 237.499715 L 361.999609 221.999886 L 338.000041 205.999829 L 343.999674 190.5 L 338.000041 206.500057 " transform="matrix(3.779528,0,0,3.779528,0,0)"/>
<path style="fill:none;stroke-width:2;stroke-linecap:butt;stroke-linejoin:miter;stroke:rgb(0%,0%,0%);stroke-opacity:1;stroke-miterlimit:4;" d="M 350.000342 205.000407 L 366.000399 210.499813 L 382.49965 220.000008 " transform="matrix(3.779528,0,0,3.779528,0,0)"/>
<path style="fill:none;stroke-width:2;stroke-linecap:butt;stroke-linejoin:miter;stroke:rgb(0%,0%,0%);stroke-opacity:1;stroke-miterlimit:4;" d="M 386.500439 204.500179 L 380.499772 182.00026 L 384.499528 166.000203 L 372.50026 150.000146 L 348.000464 139.999723 L 343.999674 152.000024 " transform="matrix(3.779528,0,0,3.779528,0,0)"/>
<path style="fill:none;stroke-width:2;stroke-linecap:butt;stroke-linejoin:miter;stroke:rgb(0%,0%,0%);stroke-opacity:1;stroke-miterlimit:4;" d="M 342.500024 143.500285 L 358.500081 145.500163 " transform="matrix(3.779528,0,0,3.779528,0,0)"/>
<path style="fill:none;stroke-width:2;stroke-linecap:butt;stroke-linejoin:miter;stroke:rgb(0%,0%,0%);stroke-opacity:1;stroke-miterlimit:4;" d="M 348.499658 122.500016 L 358.500081 138.500073 L 374.500138 144.499707 L 396.499829 162.499642 L 398.499707 150.500374 L 414.499764 142.499829 L 418.999748 148.500496 L 440.500244 164.000326 L 456.500301 157.999658 L 472.500358 149.499919 L 488.500415 139.000301 L 493.999821 129.500106 L 500.000488 133.499862 " transform="matrix(3.779528,0,0,3.779528,0,0)"/>
<path style="fill:none;stroke-width:2;stroke-linecap:butt;stroke-linejoin:miter;stroke:rgb(0%,0%,0%);stroke-opacity:1;stroke-miterlimit:4;" d="M 482.499748 134.00009 L 466.499691 148.000269 " transform="matrix(3.779528,0,0,3.779528,0,0)"/>
<path style="fill:none;stroke-width:2;stroke-linecap:butt;stroke-linejoin:miter;stroke:rgb(0%,0%,0%);stroke-opacity:1;stroke-miterlimit:4;" d="M 428.499943 142.499829 L 418.999748 158.499886 L 418.999748 166.999626 " transform="matrix(3.779528,0,0,3.779528,0,0)"/>
<path style="fill:none;stroke-width:2;stroke-linecap:butt;stroke-linejoin:miter;stroke:rgb(0%,0%,0%);stroke-opacity:1;stroke-miterlimit:4;" d="M 397.500285 155.99978 L 371.499805 148.000269 L 355.499748 132.000212 L 339.499691 129.500106 L 323.999862 137.499618 " transform="matrix(3.779528,0,0,3.779528,0,0)"/>
<path style="fill:none;stroke-width:2;stroke-linecap:butt;stroke-linejoin:miter;stroke:rgb(0%,0%,0%);stroke-opacity:1;stroke-miterlimit:4;" d="M 320.500334 139.499495 L 336.500391 164.000326 L 361.999609 178.000505 L 377.500472 184.000138 L 399.500163 180.000382 L 414.999992 182.00026 L 431.000049 173.999715 " transform="matrix(3.779528,0,0,3.779528,0,0)"/>
<path style="fill:none;stroke-width:2;stroke-linecap:butt;stroke-linejoin:miter;stroke:rgb(0%,0%,0%);stroke-opacity:1;stroke-miterlimit:4;" d="M 441.999894 186.500244 L 452.000317 202.500301 L 452.000317 236.000065 L 434.000382 251.499894 L 414.499764 266.999723 L 400.499585 283.500008 L 388.500317 300.000293 L 408.50013 300.499487 L 404.999569 310.49991 L 420.999626 307.000382 L 445.000228 314.999894 L 461.000285 311.000138 L 476.500114 300.499487 L 491.999943 291.999748 L 508 286.000114 " transform="matrix(3.779528,0,0,3.779528,0,0)"/>
<path style="fill:none;stroke-width:2;stroke-linecap:butt;stroke-linejoin:miter;stroke:rgb(0%,0%,0%);stroke-opacity:1;stroke-miterlimit:4;" d="M 478.499992 327.500423 L 434.499577 311.500366 L 432.499699 295.500309 L 432.499699 279.500252 L 424.500187 253.499772 L 442.500122 237.499715 L 458.500179 219.49978 L 462.499935 196.000439 L 454.500423 180.499577 L 459.999829 166.500431 L 468.000374 156.500008 L 484.499626 130.499528 L 468.499569 138.500073 L 452.499512 150.500374 L 436.500488 156.500008 L 420.500431 139.000301 L 404.999569 138.500073 L 388.500317 152.500252 L 372.50026 139.999723 L 356.500203 124.499894 L 340.500146 123.999666 L 323.999862 130.000334 L 307.999805 130.000334 L 291.999748 132.000212 " transform="matrix(3.779528,0,0,3.779528,0,0)"/>
<path style="fill:none;stroke-width:2;stroke-linecap:butt;stroke-linejoin:miter;stroke:rgb(0%,0%,0%);stroke-opacity:1;stroke-miterlimit:4;" d="M 304.500277 139.000301 L 302.500399 155.499552 L 304.000049 171.499609 L 293.999626 187.499666 L 321.999984 196.000439 L 338.000041 212.000496 L 357.499626 227.99952 L 363.500293 243.500382 L 367.500049 259.500439 L 364.999943 265.500073 L 352.999642 281.50013 L 348.999886 295.500309 L 364.999943 295.999504 L 393.499495 302.500399 L 409.99978 306.500155 " transform="matrix(3.779528,0,0,3.779528,0,0)"/>
<path style="fill:none;stroke-width:2;stroke-linecap:butt;stroke-linejoin:miter;stroke:rgb(0%,0%,0%);stroke-opacity:1;stroke-miterlimit:4;" d="M 419.499976 405.499797 L 402.999691 407.499674 L 386.500439 409.499552 L 370.500382 413.500342 " transform="matrix(3.779528,0,0,3.779528,0,0)"/>
<path style="fill:none;stroke-width:2;stroke-linecap:butt;stroke-linejoin:miter;stroke:rgb(0%,0%,0%);stroke-opacity:1;stroke-miterlimit:4;" d="M 375.499561 413.999536 L 391.499618 413.999536 L 407.499674 414.499764 L 423.999959 408.50013 L 440.000016 408.50013 L 456.500301 412.499886 L 472.500358 416.499642 L 488.500415 420.000203 L 504.500472 409.99978 L 500.000488 419.499976 L 499.50026 435.500033 L 500.000488 451.50009 L 500.000488 468.000374 L 497.999577 484.499626 L 497.999577 500.499683 L 481.99952 508 L 484.000431 508 " transform="matrix(3.779528,0,0,3.779528,0,0)"/>
<path style="fill:none;stroke-width:2;stroke-linecap:butt;stroke-linejoin:miter;stroke:rgb(0%,0%,0%);stroke-opacity:1;stroke-miterlimit:4;" d="M 397.000057 508 L 381 491.999943 " transform="matrix(3.779528,0,0,3.779528,0,0)"/>
<path style="fill:none;stroke-width:2;stroke-linecap:butt;stroke-linejoin:miter;stroke:rgb(0%,0%,0%);stroke-opacity:1;stroke-miterlimit:4;" d="M 381.500228 488.000187 L 397.000057 504.000244 " transform="matrix(3.779528,0,0,3.779528,0,0)"/>
<path style="fill:none;stroke-width:2;stroke-linecap:butt;stroke-linejoin:miter;stroke:rgb(0%,0%,0%);stroke-opacity:1;stroke-miterlimit:4;" d="M 393.999723 497.500382 L 377.999666 485.500081 " transform="matrix(3.779528,0,0,3.779528,0,0)"/>
<path style="fill:none;stroke-width:2;stroke-linecap:butt;stroke-linejoin:miter;stroke:rgb(0%,0%,0%);stroke-opacity:1;stroke-miterlimit:4;" d="M 377.999666 486.000309 L 387.499862 502.000366 " transform="matrix(3.779528,0,0,3.779528,0,0)"/>
<path style="fill:none;stroke-width:2;stroke-linecap:butt;stroke-linejoin:miter;stroke:rgb(0%,0%,0%);stroke-opacity:1;stroke-miterlimit:4;" d="M 298.000415 440.000016 L 282.000358 438.000138 " transform="matrix(3.779528,0,0,3.779528,0,0)"/>
<path style="fill:none;stroke-width:2;stroke-linecap:butt;stroke-linejoin:miter;stroke:rgb(0%,0%,0%);stroke-opacity:1;stroke-miterlimit:4;" d="M 282.000358 433.500155 L 297.500187 433.500155 " transform="matrix(3.779528,0,0,3.779528,0,0)"/>
<path style="fill:none;stroke-width:2;stroke-linecap:butt;stroke-linejoin:miter;stroke:rgb(0%,0%,0%);stroke-opacity:1;stroke-miterlimit:4;" d="M 268.500407 404.999569 L 252.000122 400.999813 L 236.000065 398.999935 " transform="matrix(3.779528,0,0,3.779528,0,0)"/>
<path style="fill:none;stroke-width:2;stroke-linecap:butt;stroke-linejoin:miter;stroke:rgb(0%,0%,0%);stroke-opacity:1;stroke-miterlimit:4;" d="M 230.999854 397.500285 L 247.500138 393.999723 L 264.000423 397.500285 " transform="matrix(3.779528,0,0,3.779528,0,0)"/>
<path style="fill:none;stroke-width:2;stroke-linecap:butt;stroke-linejoin:miter;stroke:rgb(0%,0%,0%);stroke-opacity:1;stroke-miterlimit:4;" d="M 263.500195 370.999577 L 255.49965 365.500171 L 239.499593 365.500171 L 223.499536 361.500415 L 207.999707 357.499626 L 191.99965 352.00022 L 176.499821 348.000464 L 160.999992 344.499902 L 144.999935 342.500024 L 137.499618 348.499658 " transform="matrix(3.779528,0,0,3.779528,0,0)"/>
<path style="fill:none;stroke-width:2;stroke-linecap:butt;stroke-linejoin:miter;stroke:rgb(0%,0%,0%);stroke-opacity:1;stroke-miterlimit:4;" d="M 107.500415 339.999919 L 123.500472 345.999552 L 127.500228 338.000041 L 130.000334 355.499748 L 146.499585 365.500171 L 178.499699 373.499683 L 194.499756 373.499683 L 209.999585 377.500472 L 225.500448 379.50035 L 241.500505 381.500228 L 257.499528 373.499683 L 273.499585 367.500049 L 291.49952 383.500106 L 307.999805 385.499984 L 323.999862 385.499984 L 339.999919 391.499618 L 355.499748 393.000301 L 370.999577 393.000301 " transform="matrix(3.779528,0,0,3.779528,0,0)"/>
<path style="fill:none;stroke-width:2;stroke-linecap:butt;stroke-linejoin:miter;stroke:rgb(0%,0%,0%);stroke-opacity:1;stroke-miterlimit:4;" d="M 347.500236 395.999601 L 343.50048 412.499886 L 343.50048 429.000171 L 345.500358 445.500456 L 347.000008 461.999707 L 348.999886 478.499992 L 348.999886 495.000277 L 343.000252 511.000334 " transform="matrix(3.779528,0,0,3.779528,0,0)"/>
<path style="fill:none;stroke-width:2;stroke-linecap:butt;stroke-linejoin:miter;stroke:rgb(0%,0%,0%);stroke-opacity:1;stroke-miterlimit:4;" d="M 339.499691 504.999666 L 338.000041 497.000155 L 346.49978 481.000098 L 342.500024 447.999528 L 339.999919 432.000505 L 339.999919 415.50022 L 338.000041 399.500163 L 326.499967 386.999634 " transform="matrix(3.779528,0,0,3.779528,0,0)"/>
<path style="fill:none;stroke-width:2;stroke-linecap:butt;stroke-linejoin:miter;stroke:rgb(0%,0%,0%);stroke-opacity:1;stroke-miterlimit:4;" d="M 275.500496 372.000033 L 257.499528 395.999601 L 285.499886 388.500317 L 301.499943 390.500195 L 318.000228 393.000301 L 334.000285 395.000179 L 352.00022 401.500041 L 368.000277 399.500163 L 384.000334 397.000057 L 400.000391 398.999935 L 416.000448 402.500496 " transform="matrix(3.779528,0,0,3.779528,0,0)"/>
<path style="fill:none;stroke-width:2;stroke-linecap:butt;stroke-linejoin:miter;stroke:rgb(0%,0%,0%);stroke-opacity:1;stroke-miterlimit:4;" d="M 348.499658 237.999943 L 330.499723 221.499658 L 321.999984 196.000439 L 305.999927 186.000016 " transform="matrix(3.779528,0,0,3.779528,0,0)"/>
<path style="fill:none;stroke-width:2;stroke-linecap:butt;stroke-linejoin:miter;stroke:rgb(0%,0%,0%);stroke-opacity:1;stroke-miterlimit:4;" d="M 311.000138 201.499845 L 289.000448 203.499723 L 273.000391 198.99974 " transform="matrix(3.779528,0,0,3.779528,0,0)"/>
<path style="fill:none;stroke-width:2;stroke-linecap:butt;stroke-linejoin:miter;stroke:rgb(0%,0%,0%);stroke-opacity:1;stroke-miterlimit:4;" d="M 268.000179 203.999951 L 257.999756 220.000008 L 247.500138 220.000008 L 259.000212 225.500448 L 244.499805 229.500203 L 256.500106 232.000309 L 280.00048 227.500326 " transform="matrix(3.779528,0,0,3.779528,0,0)"/>
<path style="fill:none;stroke-width:2;stroke-linecap:butt;stroke-linejoin:miter;stroke:rgb(0%,0%,0%);stroke-opacity:1;stroke-miterlimit:4;" d="M 329.500301 229.500203 L 313.000016 227.500326 L 309.00026 225.999642 L 313.000016 208.499935 L 296.499731 205.000407 L 298.499609 198.99974 L 311.999561 197.50009 L 297.500187 177.000049 L 295.000081 160.999992 L 296.999959 144.999935 L 278.499797 132.500439 L 261.999512 123.000244 " transform="matrix(3.779528,0,0,3.779528,0,0)"/>
<path style="fill:none;stroke-width:2;stroke-linecap:butt;stroke-linejoin:miter;stroke:rgb(0%,0%,0%);stroke-opacity:1;stroke-miterlimit:4;" d="M 265.500073 123.999666 L 281.50013 141.999601 " transform="matrix(3.779528,0,0,3.779528,0,0)"/>
<path style="fill:none;stroke-width:2;stroke-linecap:butt;stroke-linejoin:miter;stroke:rgb(0%,0%,0%);stroke-opacity:1;stroke-miterlimit:4;" d="M 271.499707 158.499886 L 255.49965 128.49965 " transform="matrix(3.779528,0,0,3.779528,0,0)"/>
<path style="fill:none;stroke-width:2;stroke-linecap:butt;stroke-linejoin:miter;stroke:rgb(0%,0%,0%);stroke-opacity:1;stroke-miterlimit:4;" d="M 255.49965 128.49965 L 257.499528 144.499707 L 255.49965 160.499764 L 269.499829 176.499821 " transform="matrix(3.779528,0,0,3.779528,0,0)"/>
<path style="fill:none;stroke-width:2;stroke-linecap:butt;stroke-linejoin:miter;stroke:rgb(0%,0%,0%);stroke-opacity:1;stroke-miterlimit:4;" d="M 246.499683 149.499919 L 262.49974 179.500155 L 278.499797 187.999894 L 302.500399 187.999894 L 318.500456 198.000317 L 338.500269 198.000317 L 354.500326 187.999894 L 372.000033 198.000317 L 388.00009 187.999894 L 404.000146 195.500212 L 420.000203 187.499666 L 436.00026 179.500155 L 452.000317 175.999593 L 464.499813 186.000016 L 480.49987 189.999772 " transform="matrix(3.779528,0,0,3.779528,0,0)"/>
<path style="fill:none;stroke-width:2;stroke-linecap:butt;stroke-linejoin:miter;stroke:rgb(0%,0%,0%);stroke-opacity:1;stroke-miterlimit:4;" d="M 459.000407 203.499723 L 448.999984 187.999894 " transform="matrix(3.779528,0,0,3.779528,0,0)"/>
<path style="fill:none;stroke-width:2;stroke-linecap:butt;stroke-linejoin:miter;stroke:rgb(0%,0%,0%);stroke-opacity:1;stroke-miterlimit:4;" d="M 418.999748 199.499967 L 425.000415 215.500024 L 408.50013 232.000309 L 416.499642 234.000187 L 418.49952 248.000366 L 394.499951 264.000423 " transform="matrix(3.779528,0,0,3.779528,0,0)"/>
<path style="fill:none;stroke-width:2;stroke-linecap:butt;stroke-linejoin:miter;stroke:rgb(0%,0%,0%);stroke-opacity:1;stroke-miterlimit:4;" d="M 404.999569 243.999577 L 400.999813 237.999943 L 402.999691 221.999886 L 398.499707 214.000374 L 413.000114 197.50009 " transform="matrix(3.779528,0,0,3.779528,0,0)"/>
<path style="fill:none;stroke-width:2;stroke-linecap:butt;stroke-linejoin:miter;stroke:rgb(0%,0%,0%);stroke-opacity:1;stroke-miterlimit:4;" d="M 377.500472 163.500098 L 357.499626 161.50022 L 341.499569 159.500342 L 325.499512 141.500407 " transform="matrix(3.779528,0,0,3.779528,0,0)"/>
<path style="fill:none;stroke-width:2;stroke-linecap:butt;stroke-linejoin:miter;stroke:rgb(0%,0%,0%);stroke-opacity:1;stroke-miterlimit:4;" d="M 334.999707 130.000334 L 327.000195 145.500163 L 341.499569 161.50022 L 359.999731 177.500277 L 374.500138 195.500212 L 370.500382 214.000374 L 393.000301 209.999585 L 402.999691 212.000496 L 408.50013 200.000195 L 424.500187 200.000195 L 440.500244 216.50048 " transform="matrix(3.779528,0,0,3.779528,0,0)"/>
<path style="fill:none;stroke-width:2;stroke-linecap:butt;stroke-linejoin:miter;stroke:rgb(0%,0%,0%);stroke-opacity:1;stroke-miterlimit:4;" d="M 504.999666 259.000212 L 489.499837 275.500496 L 473.49978 283.500008 L 457.499723 289.499642 L 440.500244 289.000448 L 447.999528 305.000505 L 443.499544 298.499609 L 427.499487 306.500155 L 399.500163 293.999626 L 382.999878 301.499943 L 388.999512 285.499886 L 402.500496 268.999601 L 396.499829 246.99991 L 386.500439 230.999854 L 379.000122 225.00022 L 393.000301 207.000285 L 395.500407 191.000228 L 423.999959 183.49991 L 438.000138 164.999748 L 466.000496 148.999691 L 482.499748 133.499862 L 495.000277 129.500106 L 499.000033 119.499683 L 482.999976 117.499805 L 466.499691 113.500049 L 450.499634 103.499626 L 431.000049 101.499748 L 398.999935 93.500236 L 382.999878 87.499569 L 366.999821 81.499935 L 350.999764 83.499813 L 332.499601 73.500423 L 316.499544 69.499634 L 300.499487 65.499878 L 284.500464 60.000472 L 268.000179 54.500033 L 252.000122 57.000138 L 236.000065 53.000382 L 219.49978 48.999593 L 203.499723 44.999837 L 195.500212 26.499674 L 217.499902 10.999845 L 215.500024 12.499495 L 183.49991 32.500342 L 166.999626 28.000358 L 150.999569 57.999561 L 135.49974 94.000464 L 119.499683 123.500472 L 103.999854 119.499683 L 87.999797 121.000366 L 71.99974 128.999878 " transform="matrix(3.779528,0,0,3.779528,0,0)"/>
<path style="fill:none;stroke-width:2;stroke-linecap:butt;stroke-linejoin:miter;stroke:rgb(0%,0%,0%);stroke-opacity:1;stroke-miterlimit:4;" d="M 77.500179 130.000334 L 93.500236 125.999544 L 109.999487 125.999544 " transform="matrix(3.779528,0,0,3.779528,0,0)"/>
<path style="fill:none;stroke-width:2;stroke-linecap:butt;stroke-linejoin:miter;stroke:rgb(0%,0%,0%);stroke-opacity:1;stroke-miterlimit:4;" d="M 125.999544 150.500374 L 123.999666 158.499886 L 108.499837 174.499943 L 96.499536 191.000228 L 86.500146 207.000285 L 82.500391 223.000342 L 102.500203 239.000399 L 108.499837 233.499959 L 110.499715 239.499593 L 124.499894 219.49978 L 140.499951 217.499902 L 158.499886 212.000496 L 186.000016 220.000008 L 201.499845 221.999886 L 209.500391 230.000431 L 225.00022 232.000309 " transform="matrix(3.779528,0,0,3.779528,0,0)"/>
<path style="fill:none;stroke-width:2;stroke-linecap:butt;stroke-linejoin:miter;stroke:rgb(0%,0%,0%);stroke-opacity:1;stroke-miterlimit:4;" d="M 198.499512 262.999967 L 214.499569 266.499495 L 230.999854 262.49974 L 247.500138 266.499495 L 263.500195 270.500285 L 279.500252 268.500407 " transform="matrix(3.779528,0,0,3.779528,0,0)"/>
<path style="fill:none;stroke-width:2;stroke-linecap:butt;stroke-linejoin:miter;stroke:rgb(0%,0%,0%);stroke-opacity:1;stroke-miterlimit:4;" d="M 255.999878 182.999683 L 239.999821 152.500252 " transform="matrix(3.779528,0,0,3.779528,0,0)"/>
<path style="fill:none;stroke-width:2;stroke-linecap:butt;stroke-linejoin:miter;stroke:rgb(0%,0%,0%);stroke-opacity:1;stroke-miterlimit:4;" d="M 225.999642 156.500008 L 248.000366 157.999658 L 257.999756 173.499487 L 273.999813 199.499967 L 279.500252 211.500269 L 287.499764 231.500081 L 289.499642 246.99991 L 284.000236 262.999967 " transform="matrix(3.779528,0,0,3.779528,0,0)"/>
<path style="fill:none;stroke-width:2;stroke-linecap:butt;stroke-linejoin:miter;stroke:rgb(0%,0%,0%);stroke-opacity:1;stroke-miterlimit:4;" d="M 230.999854 169.499731 L 228.999976 153.499674 L 227.000098 139.499495 L 223.000342 152.000024 " transform="matrix(3.779528,0,0,3.779528,0,0)"/>
<path style="fill:none;stroke-width:2;stroke-linecap:butt;stroke-linejoin:miter;stroke:rgb(0%,0%,0%);stroke-opacity:1;stroke-miterlimit:4;" d="M 223.999764 177.000049 L 207.999707 177.500277 L 191.99965 177.500277 " transform="matrix(3.779528,0,0,3.779528,0,0)"/>
<path style="fill:none;stroke-width:2;stroke-linecap:butt;stroke-linejoin:miter;stroke:rgb(0%,0%,0%);stroke-opacity:1;stroke-miterlimit:4;" d="M 193.500334 184.000138 L 209.500391 181.500033 " transform="matrix(3.779528,0,0,3.779528,0,0)"/>
<path style="fill:none;stroke-width:2;stroke-linecap:butt;stroke-linejoin:miter;stroke:rgb(0%,0%,0%);stroke-opacity:1;stroke-miterlimit:4;" d="M 207.999707 173.000293 L 191.99965 162.99987 " transform="matrix(3.779528,0,0,3.779528,0,0)"/>
<path style="fill:none;stroke-width:2;stroke-linecap:butt;stroke-linejoin:miter;stroke:rgb(0%,0%,0%);stroke-opacity:1;stroke-miterlimit:4;" d="M 189.499544 159.500342 L 191.500456 177.500277 L 200.000195 193.500334 L 202.000073 203.499723 L 218.00013 189.499544 " transform="matrix(3.779528,0,0,3.779528,0,0)"/>
<path style="fill:none;stroke-width:2;stroke-linecap:butt;stroke-linejoin:miter;stroke:rgb(0%,0%,0%);stroke-opacity:1;stroke-miterlimit:4;" d="M 202.000073 162.000448 L 186.500244 156.500008 L 177.000049 162.99987 L 159.000114 143.000057 L 143.000057 143.000057 " transform="matrix(3.779528,0,0,3.779528,0,0)"/>
<path style="fill:none;stroke-width:2;stroke-linecap:butt;stroke-linejoin:miter;stroke:rgb(0%,0%,0%);stroke-opacity:1;stroke-miterlimit:4;" d="M 128.49965 153.999902 L 144.499707 148.000269 L 160.499764 147.500041 L 164.000326 155.000358 L 180.000382 164.999748 L 181.500033 180.999805 L 181.500033 196.499634 L 184.999561 212.999919 L 191.000228 212.999919 " transform="matrix(3.779528,0,0,3.779528,0,0)"/>
<path style="fill:none;stroke-width:2;stroke-linecap:butt;stroke-linejoin:miter;stroke:rgb(0%,0%,0%);stroke-opacity:1;stroke-miterlimit:4;" d="M 189.499544 231.500081 L 173.499487 232.000309 L 157.999658 227.99952 L 141.999601 232.499504 L 125.999544 234.000187 " transform="matrix(3.779528,0,0,3.779528,0,0)"/>
<path style="fill:none;stroke-width:2;stroke-linecap:butt;stroke-linejoin:miter;stroke:rgb(0%,0%,0%);stroke-opacity:1;stroke-miterlimit:4;" d="M 123.000244 225.500448 L 139.000301 241.500505 L 146.999813 233.499959 L 158.499886 233.499959 " transform="matrix(3.779528,0,0,3.779528,0,0)"/>
<path style="fill:none;stroke-width:2;stroke-linecap:butt;stroke-linejoin:miter;stroke:rgb(0%,0%,0%);stroke-opacity:1;stroke-miterlimit:4;" d="M 114.999699 225.999642 L 127 241.500505 L 159.000114 250.999666 L 175.000171 241.000277 L 191.000228 241.000277 L 212.499691 221.000464 L 228.999976 212.999919 L 245.000033 212.999919 L 261.00009 203.499723 " transform="matrix(3.779528,0,0,3.779528,0,0)"/>
<path style="fill:none;stroke-width:2;stroke-linecap:butt;stroke-linejoin:miter;stroke:rgb(0%,0%,0%);stroke-opacity:1;stroke-miterlimit:4;" d="M 327.999618 187.000472 L 311.999561 182.999683 L 295.999504 185.499788 L 280.499674 193.000106 L 262.49974 191.000228 L 246.499683 189.00035 L 230.499626 168.500309 L 204.500179 164.49952 L 206.500057 143.000057 L 192.499878 144.499707 L 168.999504 150.999569 L 153.499674 155.000358 L 137.499618 157.000236 L 121.499561 164.49952 L 105.499504 180.499577 L 89.50048 204.500179 L 78.999829 216.50048 L 84.500269 200.500423 L 94.499658 184.500366 L 106.499959 168.999504 L 119.99991 152.500252 L 125.50035 152.500252 L 110.999943 162.000448 L 94.999886 181.500033 L 78.999829 207.500513 " transform="matrix(3.779528,0,0,3.779528,0,0)"/>
<path style="fill:none;stroke-width:2;stroke-linecap:butt;stroke-linejoin:miter;stroke:rgb(0%,0%,0%);stroke-opacity:1;stroke-miterlimit:4;" d="M 91.500358 218.999552 L 99.49987 211.000041 " transform="matrix(3.779528,0,0,3.779528,0,0)"/>
<path style="fill:none;stroke-width:2;stroke-linecap:butt;stroke-linejoin:miter;stroke:rgb(0%,0%,0%);stroke-opacity:1;stroke-miterlimit:4;" d="M 55.999683 205.499601 L 71.99974 187.499666 L 87.999797 173.499487 L 103.999854 157.500464 L 119.99991 137.999845 L 135.999967 105.999731 L 151.499797 69.999862 L 167.499854 33.499764 L 183.49991 37.49952 L 198.99974 30.000236 L 214.999797 17.999935 L 230.999854 10.000423 " transform="matrix(3.779528,0,0,3.779528,0,0)"/>
<path style="fill:none;stroke-width:2;stroke-linecap:butt;stroke-linejoin:miter;stroke:rgb(0%,0%,0%);stroke-opacity:1;stroke-miterlimit:4;" d="M 220.500236 10.499618 L 226.49987 12.000301 L 202.500301 27.50013 L 202.500301 37.49952 L 218.00013 41.000081 L 234.000187 45.500065 L 249.500016 49.499821 L 267.499951 59.500244 L 283.500008 66.000106 L 300.000293 71.99974 L 316.00035 75.999495 L 332.000407 80.500513 " transform="matrix(3.779528,0,0,3.779528,0,0)"/>
<path style="fill:none;stroke-width:2;stroke-linecap:butt;stroke-linejoin:miter;stroke:rgb(0%,0%,0%);stroke-opacity:1;stroke-miterlimit:4;" d="M 361.999609 61.500122 L 366.000399 45.500065 L 359.499504 35.499642 L 343.50048 49.499821 L 327.500423 37.49952 L 311.500366 13.499951 " transform="matrix(3.779528,0,0,3.779528,0,0)"/>
<path style="fill:none;stroke-width:2;stroke-linecap:butt;stroke-linejoin:miter;stroke:rgb(0%,0%,0%);stroke-opacity:1;stroke-miterlimit:4;" d="M 307.499577 4.499984 L 323.499634 18.500163 L 339.499691 41.000081 " transform="matrix(3.779528,0,0,3.779528,0,0)"/>
<path style="fill:none;stroke-width:2;stroke-linecap:butt;stroke-linejoin:miter;stroke:rgb(0%,0%,0%);stroke-opacity:1;stroke-miterlimit:4;" d="M 344.499902 25.500252 L 342.500024 9.500195 " transform="matrix(3.779528,0,0,3.779528,0,0)"/>
<path style="fill:none;stroke-width:2;stroke-linecap:butt;stroke-linejoin:miter;stroke:rgb(0%,0%,0%);stroke-opacity:1;stroke-miterlimit:4;" d="M 341.999797 1.000456 L 354.000098 17.499707 L 368.000277 35.499642 L 373.99991 51.499699 L 366.000399 67.499756 L 368.000277 83.499813 " transform="matrix(3.779528,0,0,3.779528,0,0)"/>
<path style="fill:none;stroke-width:2;stroke-linecap:butt;stroke-linejoin:miter;stroke:rgb(0%,0%,0%);stroke-opacity:1;stroke-miterlimit:4;" d="M 341.499569 64.99965 L 325.499512 51.000505 L 303.499821 34.50022 L 287.499764 5.000212 " transform="matrix(3.779528,0,0,3.779528,0,0)"/>
<path style="fill:none;stroke-width:2;stroke-linecap:butt;stroke-linejoin:miter;stroke:rgb(0%,0%,0%);stroke-opacity:1;stroke-miterlimit:4;" d="M 286.999536 1.49965 L 293.000203 17.499707 L 301.499943 33.499764 L 311.500366 49.499821 L 318.000228 64.99965 L 339.999919 69.499634 L 357.999854 67.499756 L 382.000456 46.000293 " transform="matrix(3.779528,0,0,3.779528,0,0)"/>
<path style="fill:none;stroke-width:2;stroke-linecap:butt;stroke-linejoin:miter;stroke:rgb(0%,0%,0%);stroke-opacity:1;stroke-miterlimit:4;" d="M 368.000277 32.999536 L 351.499992 10.999845 L 335.499935 3.000334 " transform="matrix(3.779528,0,0,3.779528,0,0)"/>
<path style="fill:none;stroke-width:2;stroke-linecap:butt;stroke-linejoin:miter;stroke:rgb(0%,0%,0%);stroke-opacity:1;stroke-miterlimit:4;" d="M 336.000163 1.49965 L 348.000464 17.499707 L 339.499691 33.499764 L 349.500114 41.500309 " transform="matrix(3.779528,0,0,3.779528,0,0)"/>
<path style="fill:none;stroke-width:2;stroke-linecap:butt;stroke-linejoin:miter;stroke:rgb(0%,0%,0%);stroke-opacity:1;stroke-miterlimit:4;" d="M 300.999715 41.999504 L 284.999658 12.000301 " transform="matrix(3.779528,0,0,3.779528,0,0)"/>
<path style="fill:none;stroke-width:2;stroke-linecap:butt;stroke-linejoin:miter;stroke:rgb(0%,0%,0%);stroke-opacity:1;stroke-miterlimit:4;" d="M 305.499699 1.000456 L 311.500366 17.000513 L 323.499634 32.999536 L 335.499935 49.499821 L 336.000163 66.000106 L 361.999609 88.500024 L 411.999658 114.500505 " transform="matrix(3.779528,0,0,3.779528,0,0)"/>
<path style="fill:none;stroke-width:2;stroke-linecap:butt;stroke-linejoin:miter;stroke:rgb(0%,0%,0%);stroke-opacity:1;stroke-miterlimit:4;" d="M 423.999959 139.499495 L 396.499829 143.500285 L 388.500317 159.500342 L 394.499951 175.999593 " transform="matrix(3.779528,0,0,3.779528,0,0)"/>
<path style="fill:none;stroke-width:2;stroke-linecap:butt;stroke-linejoin:miter;stroke:rgb(0%,0%,0%);stroke-opacity:1;stroke-miterlimit:4;" d="M 339.999919 184.000138 L 332.000407 198.499512 L 341.999797 182.500488 L 336.500391 166.000203 L 324.50009 150.000146 L 316.499544 134.500317 L 339.000496 124.499894 " transform="matrix(3.779528,0,0,3.779528,0,0)"/>
<path style="fill:none;stroke-width:2;stroke-linecap:butt;stroke-linejoin:miter;stroke:rgb(0%,0%,0%);stroke-opacity:1;stroke-miterlimit:4;" d="M 270.500285 123.500472 L 284.000236 139.499495 L 291.999748 155.499552 L 293.999626 171.000415 L 314.000472 187.000472 L 326.499967 206.500057 L 306.500155 220.500236 L 302.000171 236.500293 L 295.999504 252.50035 L 293.999626 268.500407 L 298.000415 274.500041 L 314.000472 282.000358 L 329.500301 286.500342 L 345.500358 280.499674 L 361.999609 264.499618 L 390.500195 270.500285 L 398.499707 268.500407 L 416.499642 259.999634 L 430.499821 248.000366 L 444.5 235.499837 L 446.499878 223.499536 L 462.499935 215.500024 " transform="matrix(3.779528,0,0,3.779528,0,0)"/>
<path style="fill:none;stroke-width:2;stroke-linecap:butt;stroke-linejoin:miter;stroke:rgb(0%,0%,0%);stroke-opacity:1;stroke-miterlimit:4;" d="M 428.499943 37.999748 L 411.999658 17.999935 L 395.999601 7.999512 " transform="matrix(3.779528,0,0,3.779528,0,0)"/>
<path style="fill:none;stroke-width:2;stroke-linecap:butt;stroke-linejoin:miter;stroke:rgb(0%,0%,0%);stroke-opacity:1;stroke-miterlimit:4;" d="M 396.499829 10.999845 L 420.500431 26.499674 L 430.499821 42.499731 L 434.499577 58.499788 L 438.500366 74.499845 L 440.500244 90.499902 L 450.999862 114.500505 L 468.999797 138.500073 L 445.500456 153.999902 L 434.999805 164.000326 L 420.999626 180.499577 L 447.000106 186.000016 L 450.999862 198.000317 " transform="matrix(3.779528,0,0,3.779528,0,0)"/>
<path style="fill:none;stroke-width:2;stroke-linecap:butt;stroke-linejoin:miter;stroke:rgb(0%,0%,0%);stroke-opacity:1;stroke-miterlimit:4;" d="M 420.999626 15.499829 L 405.499797 5.500439 L 388.999512 7.500317 " transform="matrix(3.779528,0,0,3.779528,0,0)"/>
<path style="fill:none;stroke-width:2;stroke-linecap:butt;stroke-linejoin:miter;stroke:rgb(0%,0%,0%);stroke-opacity:1;stroke-miterlimit:4;" d="M 387.499862 9.500195 L 391.499618 25.500252 L 383.500106 41.500309 L 381.500228 57.000138 " transform="matrix(3.779528,0,0,3.779528,0,0)"/>
<path style="fill:none;stroke-width:2;stroke-linecap:butt;stroke-linejoin:miter;stroke:rgb(0%,0%,0%);stroke-opacity:1;stroke-miterlimit:4;" d="M 372.50026 73.500423 L 370.000155 71.499512 L 377.999666 50.000049 L 379.999544 33.999992 L 384.000334 17.499707 L 384.000334 1.49965 " transform="matrix(3.779528,0,0,3.779528,0,0)"/>
<path style="fill:none;stroke-width:2;stroke-linecap:butt;stroke-linejoin:miter;stroke:rgb(0%,0%,0%);stroke-opacity:1;stroke-miterlimit:4;" d="M 395.999601 2.500106 L 419.499976 17.999935 L 431.500277 33.499764 L 435.500033 49.499821 L 441.999894 66.000106 L 443.999772 82.000163 L 447.999528 98.00022 L 463.999585 114.000277 " transform="matrix(3.779528,0,0,3.779528,0,0)"/>
<path style="fill:none;stroke-width:2;stroke-linecap:butt;stroke-linejoin:miter;stroke:rgb(0%,0%,0%);stroke-opacity:1;stroke-miterlimit:4;" d="M 282.99978 82.999585 L 266.999723 78.999829 L 250.999666 73.000195 L 234.999609 69.000439 L 218.500358 63.5 L 202.500301 59.000016 L 186.500244 53.000382 L 170.500187 46.999715 " transform="matrix(3.779528,0,0,3.779528,0,0)"/>
<path style="fill:none;stroke-width:2;stroke-linecap:butt;stroke-linejoin:miter;stroke:rgb(0%,0%,0%);stroke-opacity:1;stroke-miterlimit:4;" d="M 168.999504 46.499487 L 184.999561 46.499487 L 200.999618 52.500155 L 217.499902 58.499788 L 233.499959 62.499544 L 249.500016 68.500212 L 264.999845 72.499967 L 280.999902 76.499723 " transform="matrix(3.779528,0,0,3.779528,0,0)"/>
<path style="fill:none;stroke-width:2;stroke-linecap:butt;stroke-linejoin:miter;stroke:rgb(0%,0%,0%);stroke-opacity:1;stroke-miterlimit:4;" d="M 266.499495 118.50026 L 273.000391 134.500317 L 282.99978 150.500374 L 286.999536 166.000203 L 284.999658 182.00026 L 268.999601 199.499967 L 257.000334 205.499601 L 236.999487 209.000163 L 233.499959 225.00022 L 239.499593 227.000098 L 229.500203 243.500382 L 229.500203 259.500439 L 239.499593 269.499829 L 255.49965 273.999813 L 271.000513 278.499797 L 286.999536 280.499674 L 302.999593 284.999658 L 319.499878 289.000448 L 335.499935 293.000203 L 352.00022 284.500464 L 354.000098 262.49974 " transform="matrix(3.779528,0,0,3.779528,0,0)"/>
<path style="fill:none;stroke-width:2;stroke-linecap:butt;stroke-linejoin:miter;stroke:rgb(0%,0%,0%);stroke-opacity:1;stroke-miterlimit:4;" d="M 221.499658 241.000277 L 205.499601 237.499715 L 189.999772 245.50026 L 173.499487 254 L 155.499552 246.000488 L 139.499495 248.000366 L 123.500472 240.500049 L 103.499626 228.499748 L 87.499569 234.500415 L 75.000073 232.499504 L 59.000016 228.499748 L 49.499821 241.999699 L 29.500008 257.999756 " transform="matrix(3.779528,0,0,3.779528,0,0)"/>
<path style="fill:none;stroke-width:2;stroke-linecap:butt;stroke-linejoin:miter;stroke:rgb(0%,0%,0%);stroke-opacity:1;stroke-miterlimit:4;" d="M 55.00026 225.999642 L 53.000382 239.999821 L 42.999959 257.499528 L 36.500098 273.499585 L 48.500399 227.99952 L 55.999683 198.000317 L 72.499967 180.000382 " transform="matrix(3.779528,0,0,3.779528,0,0)"/>
<path style="fill:none;stroke-width:2;stroke-linecap:butt;stroke-linejoin:miter;stroke:rgb(0%,0%,0%);stroke-opacity:1;stroke-miterlimit:4;" d="M 54.500033 220.500236 L 70.50009 226.49987 " transform="matrix(3.779528,0,0,3.779528,0,0)"/>
<path style="fill:none;stroke-width:2;stroke-linecap:butt;stroke-linejoin:miter;stroke:rgb(0%,0%,0%);stroke-opacity:1;stroke-miterlimit:4;" d="M 124.499894 169.999959 L 122.500016 180.499577 L 114.500505 180.499577 L 106.499959 200.500423 L 108.499837 186.500244 L 116.999577 186.500244 L 128.999878 170.500187 " transform="matrix(3.779528,0,0,3.779528,0,0)"/>
<path style="fill:none;stroke-width:2;stroke-linecap:butt;stroke-linejoin:miter;stroke:rgb(0%,0%,0%);stroke-opacity:1;stroke-miterlimit:4;" d="M 80.000285 128.999878 L 75.999495 144.999935 L 77.500179 160.999992 L 77.500179 177.000049 L 67.499756 193.000106 L 55.500488 209.000163 L 48.999593 224.499992 L 42.999959 240.500049 L 37.49952 255.999878 L 31.499886 271.999935 L 39.500431 273.999813 L 32.999536 289.99987 L 35.000448 305.499699 L 44.999837 317.5 L 60.999894 319.499878 L 76.499723 323.499634 L 92.49978 329.500301 L 108.499837 351.499992 L 124.499894 359.499504 L 141.000179 369.499927 L 157.000236 373.000488 L 177.000049 379.50035 L 193.000106 379.50035 L 209.500391 381.500228 L 225.999642 386.000212 L 242.499927 388.00009 L 258.499984 379.50035 L 274.500041 373.499683 L 291.000326 373.499683 L 309.500488 377.500472 L 327.500423 381 L 343.000252 385.499984 L 359.000309 389.999967 " transform="matrix(3.779528,0,0,3.779528,0,0)"/>
<path style="fill:none;stroke-width:2;stroke-linecap:butt;stroke-linejoin:miter;stroke:rgb(0%,0%,0%);stroke-opacity:1;stroke-miterlimit:4;" d="M 178.000505 380.499772 L 175.999593 395.999601 L 173.499487 412.499886 L 175.500399 428.499943 L 175.999593 444.5 L 178.499699 460.500057 L 180.499577 476.500114 L 182.500488 491.999943 L 184.500366 508 " transform="matrix(3.779528,0,0,3.779528,0,0)"/>
<path style="fill:none;stroke-width:2;stroke-linecap:butt;stroke-linejoin:miter;stroke:rgb(0%,0%,0%);stroke-opacity:1;stroke-miterlimit:4;" d="M 175.999593 500.99991 L 175.999593 484.499626 L 173.999715 468.000374 L 171.499609 451.50009 L 169.499731 435.500033 L 169.499731 402.999691 L 173.499487 370.999577 " transform="matrix(3.779528,0,0,3.779528,0,0)"/>
<path style="fill:none;stroke-width:2;stroke-linecap:butt;stroke-linejoin:miter;stroke:rgb(0%,0%,0%);stroke-opacity:1;stroke-miterlimit:4;" d="M 125.999544 353.49987 L 124.499894 345.00013 L 116.500382 348.999886 L 105.000309 332.499601 L 105.000309 330.499723 " transform="matrix(3.779528,0,0,3.779528,0,0)"/>
<path style="fill:none;stroke-width:2;stroke-linecap:butt;stroke-linejoin:miter;stroke:rgb(0%,0%,0%);stroke-opacity:1;stroke-miterlimit:4;" d="M 79.500057 319.499878 L 95.500114 333.500057 L 105.499504 349.500114 L 131.499984 366.000399 " transform="matrix(3.779528,0,0,3.779528,0,0)"/>
<path style="fill:none;stroke-width:2;stroke-linecap:butt;stroke-linejoin:miter;stroke:rgb(0%,0%,0%);stroke-opacity:1;stroke-miterlimit:4;" d="M 193.500334 139.000301 L 193.500334 155.000358 L 225.500448 179.500155 L 199.499967 187.499666 L 201.499845 203.999951 L 205.499601 205.999829 L 221.499658 209.999585 L 237.499715 197.50009 L 247.500138 195.500212 L 263.500195 207.999707 L 279.500252 209.999585 L 295.500309 223.999764 L 314.000472 214.000374 L 334.000285 227.99952 " transform="matrix(3.779528,0,0,3.779528,0,0)"/>
<path style="fill:none;stroke-width:2;stroke-linecap:butt;stroke-linejoin:miter;stroke:rgb(0%,0%,0%);stroke-opacity:1;stroke-miterlimit:4;" d="M 379.50035 261.00009 L 377.500472 242.499927 L 361.500415 232.999731 L 343.50048 222.500114 L 321.499756 218.500358 L 305.499699 230.499626 L 295.000081 241.999699 L 289.000448 225.999642 L 275.500496 221.999886 L 259.500439 223.499536 L 237.999943 229.500203 L 214.000374 252.999544 L 198.000317 259.000212 L 184.000138 250.999666 L 196.499634 245.50026 L 184.500366 235.499837 L 184.000138 220.000008 L 171.999837 203.999951 L 178.000505 187.499666 L 171.999837 171.499609 L 179.500155 155.499552 L 186.500244 139.499495 L 196.499634 135.49974 " transform="matrix(3.779528,0,0,3.779528,0,0)"/>
<path style="fill:none;stroke-width:2;stroke-linecap:butt;stroke-linejoin:miter;stroke:rgb(0%,0%,0%);stroke-opacity:1;stroke-miterlimit:4;" d="M 246.499683 126.499772 L 242.499927 158.499886 L 252.50035 174.499943 L 246.499683 190.5 L 232.499504 206.500057 L 203.999951 220.000008 L 200.000195 232.000309 L 218.00013 233.499959 L 220.000008 259.999634 " transform="matrix(3.779528,0,0,3.779528,0,0)"/>
<path style="fill:none;stroke-width:2;stroke-linecap:butt;stroke-linejoin:miter;stroke:rgb(0%,0%,0%);stroke-opacity:1;stroke-miterlimit:4;" d="M 275.999691 163.500098 L 265.500073 147.500041 L 255.49965 131.499984 " transform="matrix(3.779528,0,0,3.779528,0,0)"/>
<path style="fill:none;stroke-width:2;stroke-linecap:butt;stroke-linejoin:miter;stroke:rgb(0%,0%,0%);stroke-opacity:1;stroke-miterlimit:4;" d="M 245.50026 120.500138 L 235.499837 142.499829 L 221.000464 154.50013 L 223.000342 170.500187 L 236.500293 187.999894 L 210.499813 193.999528 L 226.49987 191.500456 " transform="matrix(3.779528,0,0,3.779528,0,0)"/>
<path style="fill:none;stroke-width:2;stroke-linecap:butt;stroke-linejoin:miter;stroke:rgb(0%,0%,0%);stroke-opacity:1;stroke-miterlimit:4;" d="M 202.999495 54.500033 L 177.000049 50.500277 " transform="matrix(3.779528,0,0,3.779528,0,0)"/>
<path style="fill:none;stroke-width:2;stroke-linecap:butt;stroke-linejoin:miter;stroke:rgb(0%,0%,0%);stroke-opacity:1;stroke-miterlimit:4;" d="M 167.499854 34.50022 L 161.50022 50.500277 L 153.499674 66.500334 L 147.500041 82.500391 L 139.499495 98.500448 L 131.499984 114.000277 L 125.999544 130.000334 L 114.000277 146.000391 L 100.500326 162.000448 " transform="matrix(3.779528,0,0,3.779528,0,0)"/>
<path style="fill:none;stroke-width:2;stroke-linecap:butt;stroke-linejoin:miter;stroke:rgb(0%,0%,0%);stroke-opacity:1;stroke-miterlimit:4;" d="M 80.000285 121.999788 L 71.99974 137.999845 L 71.99974 153.999902 L 73.999618 170.500187 L 66.000106 186.500244 L 51.999927 202.500301 L 45.500065 218.500358 L 41.000081 234.500415 L 35.000448 250.500472 L 27.50013 266.000301 L 27.50013 282.000358 L 29.500008 298.000415 L 31.499886 314.499666 L 41.500309 312.499788 L 57.999561 314.999894 L 73.999618 318.99965 L 89.999674 323.499634 L 105.999731 329.500301 L 121.999788 330.999951 L 137.999845 334.999707 L 153.999902 338.500269 L 169.999959 343.000252 L 185.499788 347.000008 L 201.499845 350.999764 L 218.00013 356.500203 L 234.000187 357.999854 L 264.999845 361.999609 L 280.999902 366.000399 L 297.500187 370.000155 L 329.500301 377.999666 L 345.500358 382.49965 L 361.999609 384.499528 L 377.999666 388.500317 L 394.499951 392.500073 L 410.500008 394.499951 L 426.500065 398.000513 L 442.500122 402.000269 L 457.999951 405.499797 L 473.49978 409.499552 L 490.000065 407.499674 " transform="matrix(3.779528,0,0,3.779528,0,0)"/>
<path style="fill:none;stroke-width:2;stroke-linecap:butt;stroke-linejoin:miter;stroke:rgb(0%,0%,0%);stroke-opacity:1;stroke-miterlimit:4;" d="M 250.000244 36.500098 L 234.000187 20.500041 " transform="matrix(3.779528,0,0,3.779528,0,0)"/>
<path style="fill:none;stroke-width:2;stroke-linecap:butt;stroke-linejoin:miter;stroke:rgb(0%,0%,0%);stroke-opacity:1;stroke-miterlimit:4;" d="M 239.000399 19.000391 L 242.499927 35.000448 L 268.999601 57.000138 " transform="matrix(3.779528,0,0,3.779528,0,0)"/>
<path style="fill:none;stroke-width:2;stroke-linecap:butt;stroke-linejoin:miter;stroke:rgb(0%,0%,0%);stroke-opacity:1;stroke-miterlimit:4;" d="M 257.000334 57.999561 L 250.999666 38.499976 L 241.000277 22.499919 " transform="matrix(3.779528,0,0,3.779528,0,0)"/>
<path style="fill:none;stroke-width:2;stroke-linecap:butt;stroke-linejoin:miter;stroke:rgb(0%,0%,0%);stroke-opacity:1;stroke-miterlimit:4;" d="M 311.000138 1.999878 L 319.499878 17.999935 L 330.999951 33.499764 L 339.499691 55.500488 L 345.500358 71.499512 L 368.000277 61.500122 " transform="matrix(3.779528,0,0,3.779528,0,0)"/>
<path style="fill:none;stroke-width:2;stroke-linecap:butt;stroke-linejoin:miter;stroke:rgb(0%,0%,0%);stroke-opacity:1;stroke-miterlimit:4;" d="M 268.999601 163.500098 L 266.999723 155.99978 L 246.99991 119.499683 L 230.999854 135.49974 L 216.999674 132.999634 L 200.999618 134.999512 L 184.500366 143.000057 L 168.999504 141.000179 L 153.00048 134.999512 L 137.000423 139.000301 L 116.999577 133.499862 L 100.99952 153.999902 L 85.000496 169.999959 L 98.999642 155.99978 L 112.999821 139.999723 L 119.000488 123.999666 L 130.499528 107.500415 L 138.500073 91.999552 L 144.000513 76.499723 L 150.000146 60.499666 L 157.500464 44.000415 L 166.000203 28.000358 " transform="matrix(3.779528,0,0,3.779528,0,0)"/>
</g>
</svg>
