<?xml version="1.0" encoding="UTF-8"?>
<svg xmlns="http://www.w3.org/2000/svg" xmlns:xlink="http://www.w3.org/1999/xlink" width="1935.11811" height="1935.11811" viewBox="0 0 1935.11811 1935.11811" version="1.1">
<g id="surface1">
<path style="fill:none;stroke-width:2;stroke-linecap:butt;stroke-linejoin:miter;stroke:rgb(0%,0%,0%);stroke-opacity:1;stroke-miterlimit:4;" d="M 9.500195 2.500106 L 9.500195 18.500163 " transform="matrix(3.779528,0,0,3.779528,0,0)"/>
<path style="fill:none;stroke-width:2;stroke-linecap:butt;stroke-linejoin:miter;stroke:rgb(0%,0%,0%);stroke-opacity:1;stroke-miterlimit:4;" d="M 14.999601 17.499707 L 14.999601 1.49965 " transform="matrix(3.779528,0,0,3.779528,0,0)"/>
<path style="fill:none;stroke-width:2;stroke-linecap:butt;stroke-linejoin:miter;stroke:rgb(0%,0%,0%);stroke-opacity:1;stroke-miterlimit:4;" d="M 107.500415 68.500212 L 77.500179 84.500269 L 59.500244 100.500326 L 39.500431 116.500382 L 19.499585 132.500439 L 3.499528 148.000269 L 14.000179 137.999845 L 30.000236 123.999666 L 46.499487 112.000399 L 62.499544 98.00022 L 78.999829 83.499813 L 94.999886 73.500423 L 110.999943 67.499756 L 126.499772 65.499878 L 150.000146 51.000505 L 166.000203 44.999837 L 182.00026 44.999837 L 198.000317 45.500065 L 214.000374 50.000049 L 230.000431 56.49991 L 246.000488 62.499544 " transform="matrix(3.779528,0,0,3.779528,0,0)"/>
<path style="fill:none;stroke-width:2;stroke-linecap:butt;stroke-linejoin:miter;stroke:rgb(0%,0%,0%);stroke-opacity:1;stroke-miterlimit:4;" d="M 250.500472 57.500366 L 234.500415 51.499699 L 218.500358 45.500065 L 202.500301 41.500309 L 186.500244 39.500431 L 170.500187 39.500431 L 154.50013 44.000415 L 138.500073 54.500033 L 121.999788 72.499967 L 105.999731 74.499845 L 90.499902 82.500391 L 74.499845 94.499658 L 58.499788 110.499715 L 42.499731 122.500016 L 26.499674 134.999512 L 10.999845 150.500374 L 10.499618 150.500374 L 26.499674 134.00009 L 46.499487 118.50026 L 66.500334 101.999976 L 85.999919 96.000342 L 87.999797 89.999674 L 85.999919 96.000342 " transform="matrix(3.779528,0,0,3.779528,0,0)"/>
<path style="fill:none;stroke-width:2;stroke-linecap:butt;stroke-linejoin:miter;stroke:rgb(0%,0%,0%);stroke-opacity:1;stroke-miterlimit:4;" d="M 89.50048 116.500382 L 73.500423 116.999577 " transform="matrix(3.779528,0,0,3.779528,0,0)"/>
<path style="fill:none;stroke-width:2;stroke-linecap:butt;stroke-linejoin:miter;stroke:rgb(0%,0%,0%);stroke-opacity:1;stroke-miterlimit:4;" d="M 43.500187 126.499772 L 37.49952 142.499829 L 35.000448 158.499886 L 39.000203 174.499943 L 44.499609 189.999772 L 62.499544 205.999829 L 68.500212 223.499536 L 85.000496 219.49978 L 100.99952 209.500391 L 117.499805 209.000163 L 149.499919 212.999919 L 173.499487 227.000098 L 189.499544 237.499715 L 205.499601 249.500016 L 221.499658 239.499593 L 237.999943 232.000309 L 254 228.499748 L 270.000057 227.000098 L 286.000114 227.000098 L 302.000171 230.999854 L 318.000228 239.000399 L 334.500513 216.999674 " transform="matrix(3.779528,0,0,3.779528,0,0)"/>
<path style="fill:none;stroke-width:2;stroke-linecap:butt;stroke-linejoin:miter;stroke:rgb(0%,0%,0%);stroke-opacity:1;stroke-miterlimit:4;" d="M 337.499813 222.500114 L 325.499512 238.500171 L 339.499691 254.500228 " transform="matrix(3.779528,0,0,3.779528,0,0)"/>
<path style="fill:none;stroke-width:2;stroke-linecap:butt;stroke-linejoin:miter;stroke:rgb(0%,0%,0%);stroke-opacity:1;stroke-miterlimit:4;" d="M 345.500358 252.50035 L 347.500236 236.500293 L 343.999674 220.000008 L 345.00013 187.999894 L 343.000252 171.999837 L 348.999886 155.99978 L 363.000065 140.499951 L 370.999577 124.499894 L 350.999764 108.499837 L 332.499601 116.000155 L 316.499544 114.000277 L 300.000293 116.000155 L 284.000236 119.499683 L 267.499951 121.499561 L 251.499894 121.499561 L 234.999609 123.500472 L 218.500358 125.50035 L 202.500301 121.499561 " transform="matrix(3.779528,0,0,3.779528,0,0)"/>
<path style="fill:none;stroke-width:2;stroke-linecap:butt;stroke-linejoin:miter;stroke:rgb(0%,0%,0%);stroke-opacity:1;stroke-miterlimit:4;" d="M 203.999951 103.000431 L 220.000008 96.999764 L 235.499837 80.500513 L 220.000008 96.999764 L 212.000496 109.000065 L 227.99952 109.000065 L 243.500382 103.499626 L 248.000366 91.500358 L 252.000122 75.500301 L 243.999577 91.500358 L 254 99.49987 L 237.999943 100.000098 " transform="matrix(3.779528,0,0,3.779528,0,0)"/>
<path style="fill:none;stroke-width:2;stroke-linecap:butt;stroke-linejoin:miter;stroke:rgb(0%,0%,0%);stroke-opacity:1;stroke-miterlimit:4;" d="M 261.00009 80.500513 L 262.999967 96.499536 L 275.000269 105.999731 L 291.000326 103.499626 L 307.000382 103.499626 L 323.000439 105.000309 L 339.499691 109.000065 L 355.999976 115.499927 L 361.999609 131.499984 L 386.000212 129.500106 L 402.000269 127.500228 L 418.000326 129.500106 L 434.000382 134.999512 L 450.000439 144.999935 L 466.000496 159.000114 " transform="matrix(3.779528,0,0,3.779528,0,0)"/>
<path style="fill:none;stroke-width:2;stroke-linecap:butt;stroke-linejoin:miter;stroke:rgb(0%,0%,0%);stroke-opacity:1;stroke-miterlimit:4;" d="M 491.499715 188.500122 L 507.499772 186.500244 " transform="matrix(3.779528,0,0,3.779528,0,0)"/>
<path style="fill:none;stroke-width:2;stroke-linecap:butt;stroke-linejoin:miter;stroke:rgb(0%,0%,0%);stroke-opacity:1;stroke-miterlimit:4;" d="M 506.999544 191.500456 L 490.999487 191.500456 " transform="matrix(3.779528,0,0,3.779528,0,0)"/>
<path style="fill:none;stroke-width:2;stroke-linecap:butt;stroke-linejoin:miter;stroke:rgb(0%,0%,0%);stroke-opacity:1;stroke-miterlimit:4;" d="M 506.000122 202.999495 L 490.500293 204.500179 L 474.000008 212.499691 L 457.499723 220.000008 L 441.499666 223.999764 L 425.499609 232.000309 L 409.000358 227.99952 L 393.499495 229.500203 L 377.000244 237.499715 L 360.499959 245.50026 L 343.999674 259.500439 L 328.499845 251.499894 L 312.499788 239.000399 L 296.999959 232.999731 L 281.50013 228.999976 L 266.000301 230.999854 L 250.000244 232.999731 L 234.000187 236.500293 L 218.500358 246.99991 L 202.500301 263.500195 L 202.500301 277.000146 " transform="matrix(3.779528,0,0,3.779528,0,0)"/>
<path style="fill:none;stroke-width:2;stroke-linecap:butt;stroke-linejoin:miter;stroke:rgb(0%,0%,0%);stroke-opacity:1;stroke-miterlimit:4;" d="M 193.999528 247.500138 L 178.000505 236.999487 L 162.499642 225.00022 L 146.499585 218.999552 L 130.000334 215.500024 L 114.000277 213.500146 L 85.999919 209.999585 L 57.500366 193.999528 L 46.000293 178.000505 L 41.999504 162.000448 L 41.999504 146.000391 L 48.000171 130.000334 L 41.999504 128.000456 " transform="matrix(3.779528,0,0,3.779528,0,0)"/>
<path style="fill:none;stroke-width:2;stroke-linecap:butt;stroke-linejoin:miter;stroke:rgb(0%,0%,0%);stroke-opacity:1;stroke-miterlimit:4;" d="M 42.999959 169.999959 L 59.000016 193.999528 L 75.500301 203.499723 L 91.500358 212.000496 " transform="matrix(3.779528,0,0,3.779528,0,0)"/>
<path style="fill:none;stroke-width:2;stroke-linecap:butt;stroke-linejoin:miter;stroke:rgb(0%,0%,0%);stroke-opacity:1;stroke-miterlimit:4;" d="M 71.499512 209.000163 L 55.500488 199.499967 L 39.999626 173.499487 " transform="matrix(3.779528,0,0,3.779528,0,0)"/>
<path style="fill:none;stroke-width:2;stroke-linecap:butt;stroke-linejoin:miter;stroke:rgb(0%,0%,0%);stroke-opacity:1;stroke-miterlimit:4;" d="M 28.99978 198.499512 L 56.49991 214.499569 L 36.500098 236.000065 L 20.500041 252.000122 L 10.000423 268.500407 L 3.999756 284.500464 L 3.999756 300.000293 L 5.999634 315.500122 L 11.500073 330.999951 L 29.500008 346.49978 L 39.500431 359.999731 L 55.500488 358.500081 L 71.499512 357.000431 L 87.499569 355.499748 L 103.000431 354.000098 L 119.000488 352.500448 L 134.999512 343.000252 L 150.999569 330.999951 L 160.499764 329.000073 L 168.500309 327.000195 L 173.999715 332.999829 L 190.5 334.500513 L 207.000285 336.999585 L 223.000342 341.000374 L 239.499593 348.999886 L 255.999878 361.500415 L 276.499919 366.999821 " transform="matrix(3.779528,0,0,3.779528,0,0)"/>
<path style="fill:none;stroke-width:2;stroke-linecap:butt;stroke-linejoin:miter;stroke:rgb(0%,0%,0%);stroke-opacity:1;stroke-miterlimit:4;" d="M 295.999504 386.000212 L 282.000358 402.500496 L 286.000114 418.000326 L 305.499699 402.000269 L 315.500122 383.500106 L 331.500179 388.999512 " transform="matrix(3.779528,0,0,3.779528,0,0)"/>
<path style="fill:none;stroke-width:2;stroke-linecap:butt;stroke-linejoin:miter;stroke:rgb(0%,0%,0%);stroke-opacity:1;stroke-miterlimit:4;" d="M 327.999618 395.500407 L 334.000285 411.500464 " transform="matrix(3.779528,0,0,3.779528,0,0)"/>
<path style="fill:none;stroke-width:2;stroke-linecap:butt;stroke-linejoin:miter;stroke:rgb(0%,0%,0%);stroke-opacity:1;stroke-miterlimit:4;" d="M 317.5 406.000024 L 311.500366 421.499854 L 321.499756 437.49991 L 359.000309 437.49991 L 375.499561 433.500155 " transform="matrix(3.779528,0,0,3.779528,0,0)"/>
<path style="fill:none;stroke-width:2;stroke-linecap:butt;stroke-linejoin:miter;stroke:rgb(0%,0%,0%);stroke-opacity:1;stroke-miterlimit:4;" d="M 371.499805 450.000439 L 339.999919 450.000439 " transform="matrix(3.779528,0,0,3.779528,0,0)"/>
<path style="fill:none;stroke-width:2;stroke-linecap:butt;stroke-linejoin:miter;stroke:rgb(0%,0%,0%);stroke-opacity:1;stroke-miterlimit:4;" d="M 323.999862 445.000228 L 339.999919 445.000228 L 355.499748 444.5 L 371.499805 443.00035 L 386.999634 441.499666 L 402.500496 437.49991 L 418.49952 422.000081 L 434.999805 438.500366 L 450.999862 442.500122 L 466.499691 443.00035 L 482.499748 434.999805 L 498.499805 422.999504 L 502.999788 434.499577 " transform="matrix(3.779528,0,0,3.779528,0,0)"/>
<path style="fill:none;stroke-width:2;stroke-linecap:butt;stroke-linejoin:miter;stroke:rgb(0%,0%,0%);stroke-opacity:1;stroke-miterlimit:4;" d="M 508 373.499683 L 506.000122 357.000431 " transform="matrix(3.779528,0,0,3.779528,0,0)"/>
<path style="fill:none;stroke-width:2;stroke-linecap:butt;stroke-linejoin:miter;stroke:rgb(0%,0%,0%);stroke-opacity:1;stroke-miterlimit:4;" d="M 505.499894 354.000098 L 505.499894 373.99991 L 506.999544 387.499862 L 507.499772 403.499919 L 501.500138 419.499976 L 479.00022 436.00026 L 468.999797 432.000505 L 484.999854 422.000081 L 487.499959 410.500008 L 495.500505 400.499585 L 493.499593 416.499642 L 470.000252 432.499699 " transform="matrix(3.779528,0,0,3.779528,0,0)"/>
<path style="fill:none;stroke-width:2;stroke-linecap:butt;stroke-linejoin:miter;stroke:rgb(0%,0%,0%);stroke-opacity:1;stroke-miterlimit:4;" d="M 509.49965 406.500252 L 493.999821 436.00026 L 477.499536 447.999528 L 481.500326 446.499878 L 499.50026 430.499821 L 497.000155 411.999658 L 502.999788 406.000024 L 502.999788 389.999967 L 495.500505 384.000334 L 499.50026 379.999544 L 497.999577 363.999487 L 504.000244 345.999552 " transform="matrix(3.779528,0,0,3.779528,0,0)"/>
<path style="fill:none;stroke-width:2;stroke-linecap:butt;stroke-linejoin:miter;stroke:rgb(0%,0%,0%);stroke-opacity:1;stroke-miterlimit:4;" d="M 484.499626 375.000366 L 484.499626 377.000244 L 493.999821 393.000301 L 490.000065 409.000358 L 477.499536 414.999992 L 468.999797 425.000415 " transform="matrix(3.779528,0,0,3.779528,0,0)"/>
<path style="fill:none;stroke-width:2;stroke-linecap:butt;stroke-linejoin:miter;stroke:rgb(0%,0%,0%);stroke-opacity:1;stroke-miterlimit:4;" d="M 460.500057 385.499984 L 476.500114 395.500407 L 486.499504 377.500472 " transform="matrix(3.779528,0,0,3.779528,0,0)"/>
<path style="fill:none;stroke-width:2;stroke-linecap:butt;stroke-linejoin:miter;stroke:rgb(0%,0%,0%);stroke-opacity:1;stroke-miterlimit:4;" d="M 479.999642 398.999935 L 474.500236 397.500285 L 466.999919 395.500407 L 450.999862 383.500106 " transform="matrix(3.779528,0,0,3.779528,0,0)"/>
<path style="fill:none;stroke-width:2;stroke-linecap:butt;stroke-linejoin:miter;stroke:rgb(0%,0%,0%);stroke-opacity:1;stroke-miterlimit:4;" d="M 447.000106 388.00009 L 463.000163 406.000024 " transform="matrix(3.779528,0,0,3.779528,0,0)"/>
<path style="fill:none;stroke-width:2;stroke-linecap:butt;stroke-linejoin:miter;stroke:rgb(0%,0%,0%);stroke-opacity:1;stroke-miterlimit:4;" d="M 463.500391 400.000391 L 459.999829 398.000513 L 460.500057 382.000456 L 443.999772 378.499894 " transform="matrix(3.779528,0,0,3.779528,0,0)"/>
<path style="fill:none;stroke-width:2;stroke-linecap:butt;stroke-linejoin:miter;stroke:rgb(0%,0%,0%);stroke-opacity:1;stroke-miterlimit:4;" d="M 436.00026 382.49965 L 438.000138 398.499707 L 452.499512 414.499764 L 456.500301 431.000049 " transform="matrix(3.779528,0,0,3.779528,0,0)"/>
<path style="fill:none;stroke-width:2;stroke-linecap:butt;stroke-linejoin:miter;stroke:rgb(0%,0%,0%);stroke-opacity:1;stroke-miterlimit:4;" d="M 452.499512 404.999569 L 436.500488 397.000057 " transform="matrix(3.779528,0,0,3.779528,0,0)"/>
<path style="fill:none;stroke-width:2;stroke-linecap:butt;stroke-linejoin:miter;stroke:rgb(0%,0%,0%);stroke-opacity:1;stroke-miterlimit:4;" d="M 438.999561 388.500317 L 459.000407 420.500431 L 463.500391 436.500488 " transform="matrix(3.779528,0,0,3.779528,0,0)"/>
<path style="fill:none;stroke-width:2;stroke-linecap:butt;stroke-linejoin:miter;stroke:rgb(0%,0%,0%);stroke-opacity:1;stroke-miterlimit:4;" d="M 474.000008 423.999959 L 458.500179 404.000146 L 446.499878 388.00009 L 434.499577 382.000456 L 418.000326 389.999967 " transform="matrix(3.779528,0,0,3.779528,0,0)"/>
<path style="fill:none;stroke-width:2;stroke-linecap:butt;stroke-linejoin:miter;stroke:rgb(0%,0%,0%);stroke-opacity:1;stroke-miterlimit:4;" d="M 422.000081 341.499569 L 422.000081 325.499512 L 409.99978 309.500488 L 398.000513 293.500431 L 388.00009 289.499642 " transform="matrix(3.779528,0,0,3.779528,0,0)"/>
<path style="fill:none;stroke-width:2;stroke-linecap:butt;stroke-linejoin:miter;stroke:rgb(0%,0%,0%);stroke-opacity:1;stroke-miterlimit:4;" d="M 391.000423 284.500464 L 398.999935 300.000293 L 404.999569 307.999805 " transform="matrix(3.779528,0,0,3.779528,0,0)"/>
<path style="fill:none;stroke-width:2;stroke-linecap:butt;stroke-linejoin:miter;stroke:rgb(0%,0%,0%);stroke-opacity:1;stroke-miterlimit:4;" d="M 391.000423 297.500187 L 398.999935 313.500244 L 404.999569 329.500301 " transform="matrix(3.779528,0,0,3.779528,0,0)"/>
<path style="fill:none;stroke-width:2;stroke-linecap:butt;stroke-linejoin:miter;stroke:rgb(0%,0%,0%);stroke-opacity:1;stroke-miterlimit:4;" d="M 438.999561 311.999561 L 425.000415 305.999927 L 420.999626 294.499854 L 404.999569 278.499797 " transform="matrix(3.779528,0,0,3.779528,0,0)"/>
<path style="fill:none;stroke-width:2;stroke-linecap:butt;stroke-linejoin:miter;stroke:rgb(0%,0%,0%);stroke-opacity:1;stroke-miterlimit:4;" d="M 402.000269 273.499585 L 418.000326 271.499707 L 418.000326 284.000236 L 422.000081 289.99987 L 438.000138 300.499487 L 454.000195 296.499731 " transform="matrix(3.779528,0,0,3.779528,0,0)"/>
<path style="fill:none;stroke-width:2;stroke-linecap:butt;stroke-linejoin:miter;stroke:rgb(0%,0%,0%);stroke-opacity:1;stroke-miterlimit:4;" d="M 456.000073 288.50022 L 440.500244 270.500285 " transform="matrix(3.779528,0,0,3.779528,0,0)"/>
<path style="fill:none;stroke-width:2;stroke-linecap:butt;stroke-linejoin:miter;stroke:rgb(0%,0%,0%);stroke-opacity:1;stroke-miterlimit:4;" d="M 442.500122 258.499984 L 458.500179 272.500163 L 470.999674 286.500342 " transform="matrix(3.779528,0,0,3.779528,0,0)"/>
<path style="fill:none;stroke-width:2;stroke-linecap:butt;stroke-linejoin:miter;stroke:rgb(0%,0%,0%);stroke-opacity:1;stroke-miterlimit:4;" d="M 479.999642 271.499707 L 495.999699 275.000269 L 509.999878 296.999959 L 499.50026 313.000016 L 477.499536 329.000073 " transform="matrix(3.779528,0,0,3.779528,0,0)"/>
<path style="fill:none;stroke-width:2;stroke-linecap:butt;stroke-linejoin:miter;stroke:rgb(0%,0%,0%);stroke-opacity:1;stroke-miterlimit:4;" d="M 485.500081 309.999683 L 497.500382 291.999748 L 500.99991 275.999691 L 502.499561 284.500464 L 502.499561 268.500407 L 508 250.500472 L 491.999943 234.500415 L 475.499658 234.500415 " transform="matrix(3.779528,0,0,3.779528,0,0)"/>
<path style="fill:none;stroke-width:2;stroke-linecap:butt;stroke-linejoin:miter;stroke:rgb(0%,0%,0%);stroke-opacity:1;stroke-miterlimit:4;" d="M 476.500114 232.499504 L 484.999854 248.499561 L 490.999487 248.999788 L 482.999976 255.49965 L 495.000277 261.500317 L 490.999487 277.500374 L 484.999854 293.500431 L 481.000098 309.500488 L 468.499569 311.000138 L 468.499569 327.000195 L 465.000041 328.499845 L 448.999984 332.499601 L 452.499512 343.000252 L 434.499577 345.00013 L 438.000138 351.499992 L 453.499967 343.50048 L 471.499902 333.500057 L 488.000187 319.499878 L 504.000244 305.499699 " transform="matrix(3.779528,0,0,3.779528,0,0)"/>
<path style="fill:none;stroke-width:2;stroke-linecap:butt;stroke-linejoin:miter;stroke:rgb(0%,0%,0%);stroke-opacity:1;stroke-miterlimit:4;" d="M 502.999788 260.499862 L 492.500171 250.999666 L 476.500114 241.000277 " transform="matrix(3.779528,0,0,3.779528,0,0)"/>
<path style="fill:none;stroke-width:2;stroke-linecap:butt;stroke-linejoin:miter;stroke:rgb(0%,0%,0%);stroke-opacity:1;stroke-miterlimit:4;" d="M 463.000163 267.499951 L 479.00022 259.500439 L 479.00022 261.999512 L 486.999731 277.999569 L 479.00022 282.499552 L 481.000098 292.499976 L 493.000399 290.500098 " transform="matrix(3.779528,0,0,3.779528,0,0)"/>
<path style="fill:none;stroke-width:2;stroke-linecap:butt;stroke-linejoin:miter;stroke:rgb(0%,0%,0%);stroke-opacity:1;stroke-miterlimit:4;" d="M 465.000041 300.499487 L 475.000464 290.500098 L 470.999674 274.500041 L 475.000464 252.000122 L 459.000407 248.000366 L 443.00035 252.000122 L 426.500065 254 " transform="matrix(3.779528,0,0,3.779528,0,0)"/>
<path style="fill:none;stroke-width:2;stroke-linecap:butt;stroke-linejoin:miter;stroke:rgb(0%,0%,0%);stroke-opacity:1;stroke-miterlimit:4;" d="M 415.50022 265.500073 L 432.000505 269.499829 L 441.999894 266.000301 L 441.999894 280.499674 L 447.999528 286.500342 " transform="matrix(3.779528,0,0,3.779528,0,0)"/>
<path style="fill:none;stroke-width:2;stroke-linecap:butt;stroke-linejoin:miter;stroke:rgb(0%,0%,0%);stroke-opacity:1;stroke-miterlimit:4;" d="M 454.000195 268.500407 L 463.999585 284.999658 L 445.500456 302.999593 L 463.500391 310.49991 " transform="matrix(3.779528,0,0,3.779528,0,0)"/>
<path style="fill:none;stroke-width:2;stroke-linecap:butt;stroke-linejoin:miter;stroke:rgb(0%,0%,0%);stroke-opacity:1;stroke-miterlimit:4;" d="M 453.499967 315.500122 L 453.499967 331.500179 " transform="matrix(3.779528,0,0,3.779528,0,0)"/>
<path style="fill:none;stroke-width:2;stroke-linecap:butt;stroke-linejoin:miter;stroke:rgb(0%,0%,0%);stroke-opacity:1;stroke-miterlimit:4;" d="M 472.00013 324.50009 L 475.499658 307.999805 L 453.499967 307.999805 L 431.500277 300.000293 L 436.999683 284.000236 L 449.500212 267.499951 L 427.000293 261.500317 L 410.500008 257.499528 L 393.999723 257.499528 " transform="matrix(3.779528,0,0,3.779528,0,0)"/>
<path style="fill:none;stroke-width:2;stroke-linecap:butt;stroke-linejoin:miter;stroke:rgb(0%,0%,0%);stroke-opacity:1;stroke-miterlimit:4;" d="M 388.999512 265.500073 L 391.000423 271.499707 L 400.499585 287.499764 L 410.500008 289.499642 L 416.499642 302.000171 L 416.000448 307.999805 L 427.999715 311.999561 L 425.499609 322.500212 L 425.000415 338.500269 L 418.999748 362.499837 L 408.50013 373.99991 " transform="matrix(3.779528,0,0,3.779528,0,0)"/>
<path style="fill:none;stroke-width:2;stroke-linecap:butt;stroke-linejoin:miter;stroke:rgb(0%,0%,0%);stroke-opacity:1;stroke-miterlimit:4;" d="M 410.500008 336.999585 L 416.499642 329.000073 L 411.000236 318.99965 L 422.999504 289.000448 L 404.500374 283.500008 L 388.500317 275.500496 " transform="matrix(3.779528,0,0,3.779528,0,0)"/>
<path style="fill:none;stroke-width:2;stroke-linecap:butt;stroke-linejoin:miter;stroke:rgb(0%,0%,0%);stroke-opacity:1;stroke-miterlimit:4;" d="M 382.000456 284.000236 L 397.500285 289.499642 L 413.000114 309.999683 L 440.500244 318.000228 L 438.500366 334.500513 " transform="matrix(3.779528,0,0,3.779528,0,0)"/>
<path style="fill:none;stroke-width:2;stroke-linecap:butt;stroke-linejoin:miter;stroke:rgb(0%,0%,0%);stroke-opacity:1;stroke-miterlimit:4;" d="M 395.500407 387.499862 L 379.50035 375.499561 L 363.000065 367.500049 " transform="matrix(3.779528,0,0,3.779528,0,0)"/>
<path style="fill:none;stroke-width:2;stroke-linecap:butt;stroke-linejoin:miter;stroke:rgb(0%,0%,0%);stroke-opacity:1;stroke-miterlimit:4;" d="M 364.499715 368.500505 L 382.49965 384.499528 L 398.499707 400.000391 L 404.500374 416.000448 L 408.50013 434.000382 L 422.500309 438.000138 " transform="matrix(3.779528,0,0,3.779528,0,0)"/>
<path style="fill:none;stroke-width:2;stroke-linecap:butt;stroke-linejoin:miter;stroke:rgb(0%,0%,0%);stroke-opacity:1;stroke-miterlimit:4;" d="M 398.000513 399.500163 L 382.000456 382.999878 L 366.000399 371.499805 " transform="matrix(3.779528,0,0,3.779528,0,0)"/>
<path style="fill:none;stroke-width:2;stroke-linecap:butt;stroke-linejoin:miter;stroke:rgb(0%,0%,0%);stroke-opacity:1;stroke-miterlimit:4;" d="M 369.499927 370.000155 L 391.499618 386.000212 L 404.000146 402.000269 L 423.999959 413.999536 L 440.000016 430.499821 L 456.000073 430.499821 " transform="matrix(3.779528,0,0,3.779528,0,0)"/>
<path style="fill:none;stroke-width:2;stroke-linecap:butt;stroke-linejoin:miter;stroke:rgb(0%,0%,0%);stroke-opacity:1;stroke-miterlimit:4;" d="M 429.000171 436.999683 L 432.499699 431.000049 L 424.500187 414.999992 L 420.500431 398.499707 L 418.49952 382.49965 L 434.499577 366.000399 L 458.500179 350.000342 L 482.499748 334.000285 L 500.499683 318.000228 L 510.500106 307.999805 L 493.999821 323.999862 L 478.499992 336.000163 L 461.999707 348.000464 L 446.499878 357.999854 L 429.999593 367.500049 L 411.999658 389.49974 L 406.000024 369.499927 L 407.999902 348.999886 L 384.000334 341.000374 L 402.000269 334.999707 L 393.499495 327.000195 L 391.499618 323.000439 L 391.999845 311.500366 L 386.000212 295.500309 L 379.999544 287.999992 L 388.00009 282.000358 L 372.000033 275.999691 L 356.500203 282.499552 " transform="matrix(3.779528,0,0,3.779528,0,0)"/>
<path style="fill:none;stroke-width:2;stroke-linecap:butt;stroke-linejoin:miter;stroke:rgb(0%,0%,0%);stroke-opacity:1;stroke-miterlimit:4;" d="M 357.499626 289.499642 L 373.499683 313.500244 " transform="matrix(3.779528,0,0,3.779528,0,0)"/>
<path style="fill:none;stroke-width:2;stroke-linecap:butt;stroke-linejoin:miter;stroke:rgb(0%,0%,0%);stroke-opacity:1;stroke-miterlimit:4;" d="M 386.500439 320.000106 L 372.000033 304.000049 L 363.999487 288.50022 L 372.000033 284.999658 L 363.500293 289.000448 " transform="matrix(3.779528,0,0,3.779528,0,0)"/>
<path style="fill:none;stroke-width:2;stroke-linecap:butt;stroke-linejoin:miter;stroke:rgb(0%,0%,0%);stroke-opacity:1;stroke-miterlimit:4;" d="M 363.000065 277.999569 L 363.000065 293.500431 L 373.000488 309.500488 L 384.999756 298.000415 L 388.999512 304.500277 L 404.999569 308.500033 L 407.00048 332.499601 " transform="matrix(3.779528,0,0,3.779528,0,0)"/>
<path style="fill:none;stroke-width:2;stroke-linecap:butt;stroke-linejoin:miter;stroke:rgb(0%,0%,0%);stroke-opacity:1;stroke-miterlimit:4;" d="M 420.000203 361.999609 L 404.500374 368.000277 L 388.999512 364.499715 L 373.000488 358.500081 L 357.000431 356.500203 L 341.499569 354.500326 " transform="matrix(3.779528,0,0,3.779528,0,0)"/>
<path style="fill:none;stroke-width:2;stroke-linecap:butt;stroke-linejoin:miter;stroke:rgb(0%,0%,0%);stroke-opacity:1;stroke-miterlimit:4;" d="M 359.999731 345.00013 L 350.000342 334.999707 L 349.500114 318.500456 L 353.49987 302.500399 L 332.999829 298.000415 L 329.000073 286.000114 " transform="matrix(3.779528,0,0,3.779528,0,0)"/>
<path style="fill:none;stroke-width:2;stroke-linecap:butt;stroke-linejoin:miter;stroke:rgb(0%,0%,0%);stroke-opacity:1;stroke-miterlimit:4;" d="M 325.99974 291.000326 L 341.499569 291.49952 L 349.500114 297.500187 L 357.499626 299.500065 L 372.000033 316.00035 L 366.000399 323.999862 L 370.000155 332.000407 " transform="matrix(3.779528,0,0,3.779528,0,0)"/>
<path style="fill:none;stroke-width:2;stroke-linecap:butt;stroke-linejoin:miter;stroke:rgb(0%,0%,0%);stroke-opacity:1;stroke-miterlimit:4;" d="M 354.500326 328.499845 L 354.500326 312.499788 L 330.499723 296.999959 " transform="matrix(3.779528,0,0,3.779528,0,0)"/>
<path style="fill:none;stroke-width:2;stroke-linecap:butt;stroke-linejoin:miter;stroke:rgb(0%,0%,0%);stroke-opacity:1;stroke-miterlimit:4;" d="M 320.999528 295.999504 L 313.000016 311.500366 L 302.999593 327.000195 L 302.999593 343.000252 L 305.000505 359.000309 L 280.499674 375.000366 L 268.999601 391.000423 L 261.00009 407.00048 L 259.000212 423.499731 L 277.000146 441.499666 " transform="matrix(3.779528,0,0,3.779528,0,0)"/>
<path style="fill:none;stroke-width:2;stroke-linecap:butt;stroke-linejoin:miter;stroke:rgb(0%,0%,0%);stroke-opacity:1;stroke-miterlimit:4;" d="M 282.000358 434.000382 L 266.000301 427.999715 " transform="matrix(3.779528,0,0,3.779528,0,0)"/>
<path style="fill:none;stroke-width:2;stroke-linecap:butt;stroke-linejoin:miter;stroke:rgb(0%,0%,0%);stroke-opacity:1;stroke-miterlimit:4;" d="M 261.00009 423.999959 L 277.000146 423.999959 " transform="matrix(3.779528,0,0,3.779528,0,0)"/>
<path style="fill:none;stroke-width:2;stroke-linecap:butt;stroke-linejoin:miter;stroke:rgb(0%,0%,0%);stroke-opacity:1;stroke-miterlimit:4;" d="M 277.000146 416.000448 L 279.000024 407.499674 L 275.500496 400.999813 " transform="matrix(3.779528,0,0,3.779528,0,0)"/>
<path style="fill:none;stroke-width:2;stroke-linecap:butt;stroke-linejoin:miter;stroke:rgb(0%,0%,0%);stroke-opacity:1;stroke-miterlimit:4;" d="M 266.999723 405.499797 L 283.500008 385.499984 L 298.999837 379.50035 L 314.999894 379.50035 L 330.499723 384.000334 L 345.999552 393.999723 L 361.999609 407.499674 L 378.499894 422.999504 L 384.499528 423.499731 " transform="matrix(3.779528,0,0,3.779528,0,0)"/>
<path style="fill:none;stroke-width:2;stroke-linecap:butt;stroke-linejoin:miter;stroke:rgb(0%,0%,0%);stroke-opacity:1;stroke-miterlimit:4;" d="M 377.999666 416.99987 L 361.999609 400.999813 L 345.999552 389.49974 L 330.499723 377.000244 L 314.499666 373.000488 " transform="matrix(3.779528,0,0,3.779528,0,0)"/>
<path style="fill:none;stroke-width:2;stroke-linecap:butt;stroke-linejoin:miter;stroke:rgb(0%,0%,0%);stroke-opacity:1;stroke-miterlimit:4;" d="M 314.499666 368.500505 L 330.499723 372.50026 L 346.49978 380.499772 L 361.999609 394.499951 L 377.999666 408.50013 L 394.499951 426.500065 L 410.500008 420.000203 " transform="matrix(3.779528,0,0,3.779528,0,0)"/>
<path style="fill:none;stroke-width:2;stroke-linecap:butt;stroke-linejoin:miter;stroke:rgb(0%,0%,0%);stroke-opacity:1;stroke-miterlimit:4;" d="M 364.999943 413.999536 L 347.000008 407.999902 L 330.999951 395.500407 L 318.500456 401.500041 L 300.499487 425.499609 L 291.999748 436.999683 L 284.000236 425.499609 L 273.999813 415.50022 L 264.000423 415.50022 L 270.000057 400.000391 L 286.500342 384.000334 L 296.499731 386.000212 " transform="matrix(3.779528,0,0,3.779528,0,0)"/>
<path style="fill:none;stroke-width:2;stroke-linecap:butt;stroke-linejoin:miter;stroke:rgb(0%,0%,0%);stroke-opacity:1;stroke-miterlimit:4;" d="M 296.999959 388.999512 L 296.999959 420.999626 " transform="matrix(3.779528,0,0,3.779528,0,0)"/>
<path style="fill:none;stroke-width:2;stroke-linecap:butt;stroke-linejoin:miter;stroke:rgb(0%,0%,0%);stroke-opacity:1;stroke-miterlimit:4;" d="M 295.999504 444.5 L 279.500252 442.500122 L 263.500195 436.00026 L 247.500138 436.00026 " transform="matrix(3.779528,0,0,3.779528,0,0)"/>
<path style="fill:none;stroke-width:2;stroke-linecap:butt;stroke-linejoin:miter;stroke:rgb(0%,0%,0%);stroke-opacity:1;stroke-miterlimit:4;" d="M 257.999756 411.500464 L 273.999813 379.50035 L 289.99987 368.000277 L 306.500155 355.999976 L 320.500334 355.999976 L 336.500391 350.000342 L 338.500269 354.000098 L 354.500326 350.000342 L 370.500382 352.00022 L 386.000212 357.999854 L 402.000269 359.999731 L 418.49952 354.000098 " transform="matrix(3.779528,0,0,3.779528,0,0)"/>
<path style="fill:none;stroke-width:2;stroke-linecap:butt;stroke-linejoin:miter;stroke:rgb(0%,0%,0%);stroke-opacity:1;stroke-miterlimit:4;" d="M 368.000277 358.500081 L 400.000391 373.99991 L 411.500464 390.500195 L 413.500342 406.500252 L 407.999902 422.500309 L 400.499585 446.499878 L 416.499642 448.499756 L 432.499699 450.000439 L 448.499756 450.000439 L 464.499813 447.500334 " transform="matrix(3.779528,0,0,3.779528,0,0)"/>
<path style="fill:none;stroke-width:2;stroke-linecap:butt;stroke-linejoin:miter;stroke:rgb(0%,0%,0%);stroke-opacity:1;stroke-miterlimit:4;" d="M 336.999585 413.000114 L 329.000073 407.00048 L 312.499788 417.500098 L 308.500033 414.999992 L 300.499487 407.00048 L 306.500155 391.000423 " transform="matrix(3.779528,0,0,3.779528,0,0)"/>
<path style="fill:none;stroke-width:2;stroke-linecap:butt;stroke-linejoin:miter;stroke:rgb(0%,0%,0%);stroke-opacity:1;stroke-miterlimit:4;" d="M 315.500122 384.000334 L 307.499577 400.000391 L 299.500065 416.000448 L 300.000293 441.499666 L 308.500033 451.50009 L 324.50009 453.499967 L 372.000033 453.499967 L 387.499862 451.50009 L 403.499919 451.50009 L 435.500033 455.499845 L 451.50009 455.499845 L 468.000374 451.50009 L 493.999821 441.499666 L 509.999878 429.500399 " transform="matrix(3.779528,0,0,3.779528,0,0)"/>
<path style="fill:none;stroke-width:2;stroke-linecap:butt;stroke-linejoin:miter;stroke:rgb(0%,0%,0%);stroke-opacity:1;stroke-miterlimit:4;" d="M 344.499902 413.500342 L 344.499902 402.000269 L 320.500334 386.000212 " transform="matrix(3.779528,0,0,3.779528,0,0)"/>
<path style="fill:none;stroke-width:2;stroke-linecap:butt;stroke-linejoin:miter;stroke:rgb(0%,0%,0%);stroke-opacity:1;stroke-miterlimit:4;" d="M 325.000317 380.499772 L 348.999886 396.499829 L 360.499959 413.000114 L 374.500138 429.000171 " transform="matrix(3.779528,0,0,3.779528,0,0)"/>
<path style="fill:none;stroke-width:2;stroke-linecap:butt;stroke-linejoin:miter;stroke:rgb(0%,0%,0%);stroke-opacity:1;stroke-miterlimit:4;" d="M 375.499561 424.500187 L 368.999699 407.999902 L 348.999886 391.499618 L 325.000317 375.499561 " transform="matrix(3.779528,0,0,3.779528,0,0)"/>
<path style="fill:none;stroke-width:2;stroke-linecap:butt;stroke-linejoin:miter;stroke:rgb(0%,0%,0%);stroke-opacity:1;stroke-miterlimit:4;" d="M 321.999984 368.999699 L 352.00022 384.999756 L 370.000155 401.500041 L 385.499984 417.500098 " transform="matrix(3.779528,0,0,3.779528,0,0)"/>
<path style="fill:none;stroke-width:2;stroke-linecap:butt;stroke-linejoin:miter;stroke:rgb(0%,0%,0%);stroke-opacity:1;stroke-miterlimit:4;" d="M 289.99987 409.000358 L 289.99987 393.000301 " transform="matrix(3.779528,0,0,3.779528,0,0)"/>
<path style="fill:none;stroke-width:2;stroke-linecap:butt;stroke-linejoin:miter;stroke:rgb(0%,0%,0%);stroke-opacity:1;stroke-miterlimit:4;" d="M 300.499487 333.500057 L 311.000138 321.499756 L 327.000195 321.499756 L 332.999829 311.500366 L 352.999642 307.499577 L 368.999699 317.5 " transform="matrix(3.779528,0,0,3.779528,0,0)"/>
<path style="fill:none;stroke-width:2;stroke-linecap:butt;stroke-linejoin:miter;stroke:rgb(0%,0%,0%);stroke-opacity:1;stroke-miterlimit:4;" d="M 355.999976 318.500456 L 332.000407 318.500456 L 329.999495 320.000106 L 346.49978 316.00035 L 336.500391 307.999805 L 320.500334 293.999626 " transform="matrix(3.779528,0,0,3.779528,0,0)"/>
<path style="fill:none;stroke-width:2;stroke-linecap:butt;stroke-linejoin:miter;stroke:rgb(0%,0%,0%);stroke-opacity:1;stroke-miterlimit:4;" d="M 326.499967 249.500016 L 293.999626 233.499959 " transform="matrix(3.779528,0,0,3.779528,0,0)"/>
<path style="fill:none;stroke-width:2;stroke-linecap:butt;stroke-linejoin:miter;stroke:rgb(0%,0%,0%);stroke-opacity:1;stroke-miterlimit:4;" d="M 298.499609 228.999976 L 336.500391 249.500016 L 352.00022 245.50026 " transform="matrix(3.779528,0,0,3.779528,0,0)"/>
<path style="fill:none;stroke-width:2;stroke-linecap:butt;stroke-linejoin:miter;stroke:rgb(0%,0%,0%);stroke-opacity:1;stroke-miterlimit:4;" d="M 361.500415 239.499593 L 345.500358 223.499536 " transform="matrix(3.779528,0,0,3.779528,0,0)"/>
<path style="fill:none;stroke-width:2;stroke-linecap:butt;stroke-linejoin:miter;stroke:rgb(0%,0%,0%);stroke-opacity:1;stroke-miterlimit:4;" d="M 398.499707 227.500326 L 362.499837 243.500382 L 345.500358 259.500439 L 321.999984 287.499764 L 309.999683 303.499821 L 300.000293 320.000106 L 293.999626 336.000163 L 296.499731 351.499992 L 272.500163 371.499805 " transform="matrix(3.779528,0,0,3.779528,0,0)"/>
<path style="fill:none;stroke-width:2;stroke-linecap:butt;stroke-linejoin:miter;stroke:rgb(0%,0%,0%);stroke-opacity:1;stroke-miterlimit:4;" d="M 227.500326 341.999797 L 251.499894 357.999854 L 263.500195 374.500138 L 261.500317 390.500195 L 254 407.00048 L 250.000244 422.999504 L 261.999512 447.500334 L 264.000423 447.500334 " transform="matrix(3.779528,0,0,3.779528,0,0)"/>
<path style="fill:none;stroke-width:2;stroke-linecap:butt;stroke-linejoin:miter;stroke:rgb(0%,0%,0%);stroke-opacity:1;stroke-miterlimit:4;" d="M 216.50048 411.999658 L 200.500423 397.500285 " transform="matrix(3.779528,0,0,3.779528,0,0)"/>
<path style="fill:none;stroke-width:2;stroke-linecap:butt;stroke-linejoin:miter;stroke:rgb(0%,0%,0%);stroke-opacity:1;stroke-miterlimit:4;" d="M 207.500513 388.500317 L 221.000464 404.500374 L 228.999976 420.500431 L 242.499927 443.999772 " transform="matrix(3.779528,0,0,3.779528,0,0)"/>
<path style="fill:none;stroke-width:2;stroke-linecap:butt;stroke-linejoin:miter;stroke:rgb(0%,0%,0%);stroke-opacity:1;stroke-miterlimit:4;" d="M 244.499805 493.999821 L 228.499748 493.999821 L 212.000496 494.500049 L 196.000439 495.000277 " transform="matrix(3.779528,0,0,3.779528,0,0)"/>
<path style="fill:none;stroke-width:2;stroke-linecap:butt;stroke-linejoin:miter;stroke:rgb(0%,0%,0%);stroke-opacity:1;stroke-miterlimit:4;" d="M 191.99965 490.000065 L 240.500049 490.000065 " transform="matrix(3.779528,0,0,3.779528,0,0)"/>
<path style="fill:none;stroke-width:2;stroke-linecap:butt;stroke-linejoin:miter;stroke:rgb(0%,0%,0%);stroke-opacity:1;stroke-miterlimit:4;" d="M 209.999585 413.999536 L 193.999528 400.000391 L 171.999837 392.500073 L 155.99978 390.500195 " transform="matrix(3.779528,0,0,3.779528,0,0)"/>
<path style="fill:none;stroke-width:2;stroke-linecap:butt;stroke-linejoin:miter;stroke:rgb(0%,0%,0%);stroke-opacity:1;stroke-miterlimit:4;" d="M 147.500041 409.000358 L 163.500098 420.999626 L 180.000382 422.999504 L 196.000439 427.499487 L 212.499691 427.999715 " transform="matrix(3.779528,0,0,3.779528,0,0)"/>
<path style="fill:none;stroke-width:2;stroke-linecap:butt;stroke-linejoin:miter;stroke:rgb(0%,0%,0%);stroke-opacity:1;stroke-miterlimit:4;" d="M 221.499658 402.999691 L 205.999829 383.500106 L 189.999772 371.499805 L 173.999715 363.500293 L 157.500464 357.499626 L 141.500407 355.499748 L 125.50035 357.499626 L 109.500293 373.499683 " transform="matrix(3.779528,0,0,3.779528,0,0)"/>
<path style="fill:none;stroke-width:2;stroke-linecap:butt;stroke-linejoin:miter;stroke:rgb(0%,0%,0%);stroke-opacity:1;stroke-miterlimit:4;" d="M 114.000277 377.500472 L 119.499683 367.500049 L 113.500049 384.000334 L 109.500293 400.000391 " transform="matrix(3.779528,0,0,3.779528,0,0)"/>
<path style="fill:none;stroke-width:2;stroke-linecap:butt;stroke-linejoin:miter;stroke:rgb(0%,0%,0%);stroke-opacity:1;stroke-miterlimit:4;" d="M 112.999821 432.000505 L 97.499992 425.999837 L 82.000163 422.000081 L 66.000106 418.49952 L 49.499821 418.999748 L 17.999935 418.999748 L 1.999878 418.49952 " transform="matrix(3.779528,0,0,3.779528,0,0)"/>
<path style="fill:none;stroke-width:2;stroke-linecap:butt;stroke-linejoin:miter;stroke:rgb(0%,0%,0%);stroke-opacity:1;stroke-miterlimit:4;" d="M 2.500106 423.499731 L 18.500163 423.499731 L 34.50022 423.999959 L 66.500334 423.999959 L 82.500391 425.999837 L 98.500448 434.000382 L 114.000277 438.000138 L 130.000334 438.000138 L 146.000391 437.49991 L 162.000448 439.499788 L 178.000505 439.499788 L 193.999528 436.00026 L 210.499813 438.000138 L 226.49987 440.000016 L 242.499927 443.999772 L 258.499984 450.000439 L 274.500041 452.000317 " transform="matrix(3.779528,0,0,3.779528,0,0)"/>
<path style="fill:none;stroke-width:2;stroke-linecap:butt;stroke-linejoin:miter;stroke:rgb(0%,0%,0%);stroke-opacity:1;stroke-miterlimit:4;" d="M 215.500024 411.999658 L 207.500513 395.000179 L 199.499967 379.000122 " transform="matrix(3.779528,0,0,3.779528,0,0)"/>
<path style="fill:none;stroke-width:2;stroke-linecap:butt;stroke-linejoin:miter;stroke:rgb(0%,0%,0%);stroke-opacity:1;stroke-miterlimit:4;" d="M 211.000041 409.499552 L 194.999984 393.499495 L 194.999984 377.999666 L 167.499854 361.999609 " transform="matrix(3.779528,0,0,3.779528,0,0)"/>
<path style="fill:none;stroke-width:2;stroke-linecap:butt;stroke-linejoin:miter;stroke:rgb(0%,0%,0%);stroke-opacity:1;stroke-miterlimit:4;" d="M 164.49952 359.000309 L 184.000138 375.499561 L 178.000505 391.499618 L 193.999528 402.000269 L 220.500236 413.999536 L 234.500415 428.499943 L 250.500472 420.999626 " transform="matrix(3.779528,0,0,3.779528,0,0)"/>
<path style="fill:none;stroke-width:2;stroke-linecap:butt;stroke-linejoin:miter;stroke:rgb(0%,0%,0%);stroke-opacity:1;stroke-miterlimit:4;" d="M 166.500431 433.500155 L 150.500374 433.500155 L 128.999878 422.000081 L 112.999821 410.500008 L 97.499992 406.500252 L 81.499935 406.500252 L 66.000106 409.000358 L 1.999878 409.000358 " transform="matrix(3.779528,0,0,3.779528,0,0)"/>
<path style="fill:none;stroke-width:2;stroke-linecap:butt;stroke-linejoin:miter;stroke:rgb(0%,0%,0%);stroke-opacity:1;stroke-miterlimit:4;" d="M 1.999878 402.500496 L 33.999992 402.500496 L 50.000049 402.000269 L 65.499878 401.500041 L 81.499935 401.500041 L 97.499992 398.999935 " transform="matrix(3.779528,0,0,3.779528,0,0)"/>
<path style="fill:none;stroke-width:2;stroke-linecap:butt;stroke-linejoin:miter;stroke:rgb(0%,0%,0%);stroke-opacity:1;stroke-miterlimit:4;" d="M 94.999886 381.500228 L 107.000187 365.500171 L 98.500448 373.000488 L 82.500391 386.999634 L 66.500334 388.999512 L 50.000049 388.999512 L 33.999992 389.49974 L 17.499707 389.999967 L 1.000456 389.49974 " transform="matrix(3.779528,0,0,3.779528,0,0)"/>
<path style="fill:none;stroke-width:2;stroke-linecap:butt;stroke-linejoin:miter;stroke:rgb(0%,0%,0%);stroke-opacity:1;stroke-miterlimit:4;" d="M 1.999878 364.499715 L 17.999935 363.999487 L 33.999992 355.499748 " transform="matrix(3.779528,0,0,3.779528,0,0)"/>
<path style="fill:none;stroke-width:2;stroke-linecap:butt;stroke-linejoin:miter;stroke:rgb(0%,0%,0%);stroke-opacity:1;stroke-miterlimit:4;" d="M 41.500309 345.999552 L 25.500252 338.000041 L 9.500195 311.999561 " transform="matrix(3.779528,0,0,3.779528,0,0)"/>
<path style="fill:none;stroke-width:2;stroke-linecap:butt;stroke-linejoin:miter;stroke:rgb(0%,0%,0%);stroke-opacity:1;stroke-miterlimit:4;" d="M 3.999756 316.999772 L 20.500041 342.500024 L 37.000326 350.999764 " transform="matrix(3.779528,0,0,3.779528,0,0)"/>
<path style="fill:none;stroke-width:2;stroke-linecap:butt;stroke-linejoin:miter;stroke:rgb(0%,0%,0%);stroke-opacity:1;stroke-miterlimit:4;" d="M 19.000391 357.499626 L 3.000334 357.999854 " transform="matrix(3.779528,0,0,3.779528,0,0)"/>
<path style="fill:none;stroke-width:2;stroke-linecap:butt;stroke-linejoin:miter;stroke:rgb(0%,0%,0%);stroke-opacity:1;stroke-miterlimit:4;" d="M 3.499528 284.500464 L 19.499585 252.50035 L 35.499642 236.500293 " transform="matrix(3.779528,0,0,3.779528,0,0)"/>
<path style="fill:none;stroke-width:2;stroke-linecap:butt;stroke-linejoin:miter;stroke:rgb(0%,0%,0%);stroke-opacity:1;stroke-miterlimit:4;" d="M 44.999837 235.499837 L 28.99978 249.500016 L 12.999723 268.999601 " transform="matrix(3.779528,0,0,3.779528,0,0)"/>
<path style="fill:none;stroke-width:2;stroke-linecap:butt;stroke-linejoin:miter;stroke:rgb(0%,0%,0%);stroke-opacity:1;stroke-miterlimit:4;" d="M 35.99987 278.499797 L 17.999935 294.499854 L 28.000358 284.000236 L 44.000415 280.00048 L 60.000472 291.49952 L 76.499723 305.000505 L 92.49978 319.499878 L 108.499837 329.999495 L 124.499894 334.500513 L 141.000179 332.499601 L 143.000057 309.00026 L 160.999992 300.999715 " transform="matrix(3.779528,0,0,3.779528,0,0)"/>
<path style="fill:none;stroke-width:2;stroke-linecap:butt;stroke-linejoin:miter;stroke:rgb(0%,0%,0%);stroke-opacity:1;stroke-miterlimit:4;" d="M 159.999536 299.500065 L 159.999536 315.500122 L 150.000146 330.999951 L 132.000212 347.000008 L 121.999788 370.999577 L 116.000155 386.999634 L 116.000155 411.000236 L 130.000334 427.000293 L 135.49974 425.499609 L 151.499797 421.499854 L 166.999626 427.499487 L 183.49991 432.000505 " transform="matrix(3.779528,0,0,3.779528,0,0)"/>
<path style="fill:none;stroke-width:2;stroke-linecap:butt;stroke-linejoin:miter;stroke:rgb(0%,0%,0%);stroke-opacity:1;stroke-miterlimit:4;" d="M 121.999788 401.500041 L 128.000456 385.499984 L 130.000334 369.499927 " transform="matrix(3.779528,0,0,3.779528,0,0)"/>
<path style="fill:none;stroke-width:2;stroke-linecap:butt;stroke-linejoin:miter;stroke:rgb(0%,0%,0%);stroke-opacity:1;stroke-miterlimit:4;" d="M 145.500163 366.000399 L 141.500407 382.000456 L 132.999634 398.499707 L 134.999512 414.499764 L 129.500106 404.500374 " transform="matrix(3.779528,0,0,3.779528,0,0)"/>
<path style="fill:none;stroke-width:2;stroke-linecap:butt;stroke-linejoin:miter;stroke:rgb(0%,0%,0%);stroke-opacity:1;stroke-miterlimit:4;" d="M 144.999935 409.499552 L 144.999935 393.499495 L 149.499919 377.999666 L 153.999902 361.999609 " transform="matrix(3.779528,0,0,3.779528,0,0)"/>
<path style="fill:none;stroke-width:2;stroke-linecap:butt;stroke-linejoin:miter;stroke:rgb(0%,0%,0%);stroke-opacity:1;stroke-miterlimit:4;" d="M 145.500163 359.999731 L 135.49974 376.500016 L 141.500407 363.000065 L 167.499854 365.500171 L 184.999561 375.999788 L 205.000407 394.499951 L 221.000464 418.999748 " transform="matrix(3.779528,0,0,3.779528,0,0)"/>
<path style="fill:none;stroke-width:2;stroke-linecap:butt;stroke-linejoin:miter;stroke:rgb(0%,0%,0%);stroke-opacity:1;stroke-miterlimit:4;" d="M 253.499772 350.999764 L 227.500326 334.999707 " transform="matrix(3.779528,0,0,3.779528,0,0)"/>
<path style="fill:none;stroke-width:2;stroke-linecap:butt;stroke-linejoin:miter;stroke:rgb(0%,0%,0%);stroke-opacity:1;stroke-miterlimit:4;" d="M 128.49965 298.000415 L 112.499593 275.500496 " transform="matrix(3.779528,0,0,3.779528,0,0)"/>
<path style="fill:none;stroke-width:2;stroke-linecap:butt;stroke-linejoin:miter;stroke:rgb(0%,0%,0%);stroke-opacity:1;stroke-miterlimit:4;" d="M 114.999699 270.500285 L 123.000244 286.500342 " transform="matrix(3.779528,0,0,3.779528,0,0)"/>
<path style="fill:none;stroke-width:2;stroke-linecap:butt;stroke-linejoin:miter;stroke:rgb(0%,0%,0%);stroke-opacity:1;stroke-miterlimit:4;" d="M 109.999487 265.500073 L 125.999544 291.999748 L 141.999601 282.499552 L 153.999902 308.500033 " transform="matrix(3.779528,0,0,3.779528,0,0)"/>
<path style="fill:none;stroke-width:2;stroke-linecap:butt;stroke-linejoin:miter;stroke:rgb(0%,0%,0%);stroke-opacity:1;stroke-miterlimit:4;" d="M 122.500016 325.499512 L 105.999731 302.000171 L 89.999674 286.000114 " transform="matrix(3.779528,0,0,3.779528,0,0)"/>
<path style="fill:none;stroke-width:2;stroke-linecap:butt;stroke-linejoin:miter;stroke:rgb(0%,0%,0%);stroke-opacity:1;stroke-miterlimit:4;" d="M 93.000008 281.50013 L 109.000065 297.500187 L 120.500138 314.000472 " transform="matrix(3.779528,0,0,3.779528,0,0)"/>
<path style="fill:none;stroke-width:2;stroke-linecap:butt;stroke-linejoin:miter;stroke:rgb(0%,0%,0%);stroke-opacity:1;stroke-miterlimit:4;" d="M 121.499561 313.000016 L 105.499504 292.499976 L 89.50048 280.499674 " transform="matrix(3.779528,0,0,3.779528,0,0)"/>
<path style="fill:none;stroke-width:2;stroke-linecap:butt;stroke-linejoin:miter;stroke:rgb(0%,0%,0%);stroke-opacity:1;stroke-miterlimit:4;" d="M 89.000252 279.500252 L 98.500448 295.999504 L 112.999821 311.999561 L 123.000244 327.999618 " transform="matrix(3.779528,0,0,3.779528,0,0)"/>
<path style="fill:none;stroke-width:2;stroke-linecap:butt;stroke-linejoin:miter;stroke:rgb(0%,0%,0%);stroke-opacity:1;stroke-miterlimit:4;" d="M 100.99952 327.500423 L 80.999707 311.999561 L 62.999772 295.999504 " transform="matrix(3.779528,0,0,3.779528,0,0)"/>
<path style="fill:none;stroke-width:2;stroke-linecap:butt;stroke-linejoin:miter;stroke:rgb(0%,0%,0%);stroke-opacity:1;stroke-miterlimit:4;" d="M 57.500366 287.999992 L 65.499878 304.000049 L 83.499813 320.000106 " transform="matrix(3.779528,0,0,3.779528,0,0)"/>
<path style="fill:none;stroke-width:2;stroke-linecap:butt;stroke-linejoin:miter;stroke:rgb(0%,0%,0%);stroke-opacity:1;stroke-miterlimit:4;" d="M 121.999788 337.499813 L 105.999731 333.500057 L 90.499902 325.99974 L 74.499845 311.500366 L 59.000016 297.500187 L 39.500431 284.000236 L 23.999569 298.000415 L 37.999748 284.000236 " transform="matrix(3.779528,0,0,3.779528,0,0)"/>
<path style="fill:none;stroke-width:2;stroke-linecap:butt;stroke-linejoin:miter;stroke:rgb(0%,0%,0%);stroke-opacity:1;stroke-miterlimit:4;" d="M 50.500277 215.500024 L 34.50022 205.499601 L 18.500163 200.000195 L 2.500106 198.499512 " transform="matrix(3.779528,0,0,3.779528,0,0)"/>
<path style="fill:none;stroke-width:2;stroke-linecap:butt;stroke-linejoin:miter;stroke:rgb(0%,0%,0%);stroke-opacity:1;stroke-miterlimit:4;" d="M 0.500228 193.000106 L 16.500285 194.499756 L 32.999536 200.500423 L 51.499699 216.50048 L 67.499756 218.500358 " transform="matrix(3.779528,0,0,3.779528,0,0)"/>
<path style="fill:none;stroke-width:2;stroke-linecap:butt;stroke-linejoin:miter;stroke:rgb(0%,0%,0%);stroke-opacity:1;stroke-miterlimit:4;" d="M 24.499797 202.500301 L 52.500155 218.500358 L 42.499731 238.500171 L 26.499674 254.500228 L 14.500407 270.500285 L 10.499618 286.500342 L 7.999512 302.000171 L 12.000301 318.000228 L 19.999813 333.500057 L 51.999927 354.000098 L 67.999984 352.00022 L 83.499813 350.000342 L 98.999642 347.500236 L 114.999699 345.500358 " transform="matrix(3.779528,0,0,3.779528,0,0)"/>
<path style="fill:none;stroke-width:2;stroke-linecap:butt;stroke-linejoin:miter;stroke:rgb(0%,0%,0%);stroke-opacity:1;stroke-miterlimit:4;" d="M 105.499504 393.000301 L 109.500293 377.000244 L 117.499805 361.000187 L 143.500285 329.500301 L 145.500163 314.000472 L 128.999878 302.500399 L 121.000366 298.499609 L 112.999821 282.499552 L 108.499837 266.499495 " transform="matrix(3.779528,0,0,3.779528,0,0)"/>
<path style="fill:none;stroke-width:2;stroke-linecap:butt;stroke-linejoin:miter;stroke:rgb(0%,0%,0%);stroke-opacity:1;stroke-miterlimit:4;" d="M 141.999601 221.000464 L 173.999715 236.999487 L 195.500212 252.999544 L 193.500334 268.999601 L 185.499788 284.999658 L 181.500033 300.999715 L 178.999927 316.499544 " transform="matrix(3.779528,0,0,3.779528,0,0)"/>
<path style="fill:none;stroke-width:2;stroke-linecap:butt;stroke-linejoin:miter;stroke:rgb(0%,0%,0%);stroke-opacity:1;stroke-miterlimit:4;" d="M 211.500269 245.000033 L 241.500505 228.999976 " transform="matrix(3.779528,0,0,3.779528,0,0)"/>
<path style="fill:none;stroke-width:2;stroke-linecap:butt;stroke-linejoin:miter;stroke:rgb(0%,0%,0%);stroke-opacity:1;stroke-miterlimit:4;" d="M 212.499691 176.499821 L 196.999862 172.500065 " transform="matrix(3.779528,0,0,3.779528,0,0)"/>
<path style="fill:none;stroke-width:2;stroke-linecap:butt;stroke-linejoin:miter;stroke:rgb(0%,0%,0%);stroke-opacity:1;stroke-miterlimit:4;" d="M 198.000317 166.000203 L 214.000374 170.500187 " transform="matrix(3.779528,0,0,3.779528,0,0)"/>
<path style="fill:none;stroke-width:2;stroke-linecap:butt;stroke-linejoin:miter;stroke:rgb(0%,0%,0%);stroke-opacity:1;stroke-miterlimit:4;" d="M 188.500122 153.499674 L 196.499634 137.499618 L 174.499943 147.500041 L 170.500187 162.99987 L 162.499642 178.999927 L 160.499764 194.999984 L 153.999902 211.000041 " transform="matrix(3.779528,0,0,3.779528,0,0)"/>
<path style="fill:none;stroke-width:2;stroke-linecap:butt;stroke-linejoin:miter;stroke:rgb(0%,0%,0%);stroke-opacity:1;stroke-miterlimit:4;" d="M 175.500399 191.000228 L 191.500456 162.499642 L 197.50009 164.49952 L 187.499666 180.499577 L 171.499609 174.499943 L 180.999805 150.500374 L 196.999862 138.500073 L 210.499813 132.999634 L 226.49987 131.499984 L 257.499528 127.500228 L 273.499585 127.500228 L 289.499642 128.999878 L 305.999927 139.000301 L 322.500212 140.499951 L 339.000496 137.999845 L 354.500326 137.499618 " transform="matrix(3.779528,0,0,3.779528,0,0)"/>
<path style="fill:none;stroke-width:2;stroke-linecap:butt;stroke-linejoin:miter;stroke:rgb(0%,0%,0%);stroke-opacity:1;stroke-miterlimit:4;" d="M 357.499626 144.000513 L 341.499569 166.500431 " transform="matrix(3.779528,0,0,3.779528,0,0)"/>
<path style="fill:none;stroke-width:2;stroke-linecap:butt;stroke-linejoin:miter;stroke:rgb(0%,0%,0%);stroke-opacity:1;stroke-miterlimit:4;" d="M 352.00022 143.500285 L 336.000163 143.500285 L 320.000106 145.500163 L 304.000049 141.000179 L 288.50022 132.999634 " transform="matrix(3.779528,0,0,3.779528,0,0)"/>
<path style="fill:none;stroke-width:2;stroke-linecap:butt;stroke-linejoin:miter;stroke:rgb(0%,0%,0%);stroke-opacity:1;stroke-miterlimit:4;" d="M 287.999992 122.500016 L 298.499609 119.000488 L 302.500399 135.49974 " transform="matrix(3.779528,0,0,3.779528,0,0)"/>
<path style="fill:none;stroke-width:2;stroke-linecap:butt;stroke-linejoin:miter;stroke:rgb(0%,0%,0%);stroke-opacity:1;stroke-miterlimit:4;" d="M 304.000049 145.500163 L 276.499919 129.500106 " transform="matrix(3.779528,0,0,3.779528,0,0)"/>
<path style="fill:none;stroke-width:2;stroke-linecap:butt;stroke-linejoin:miter;stroke:rgb(0%,0%,0%);stroke-opacity:1;stroke-miterlimit:4;" d="M 338.500269 110.499715 L 364.999943 126.499772 L 348.999886 144.499707 L 339.000496 159.999536 L 336.999585 175.999593 L 339.000496 191.500456 L 336.999585 207.500513 L 330.999951 223.000342 L 325.499512 236.999487 L 343.50048 216.999674 L 359.499504 237.499715 L 391.499618 225.500448 L 407.499674 221.999886 L 422.999504 226.49987 L 438.999561 218.500358 L 454.999618 216.999674 L 479.500448 212.999919 L 495.500505 211.000041 " transform="matrix(3.779528,0,0,3.779528,0,0)"/>
<path style="fill:none;stroke-width:2;stroke-linecap:butt;stroke-linejoin:miter;stroke:rgb(0%,0%,0%);stroke-opacity:1;stroke-miterlimit:4;" d="M 445.500456 249.500016 L 441.499666 265.500073 L 425.999837 271.499707 L 447.999528 291.49952 L 443.999772 297.500187 L 438.000138 313.500244 L 447.999528 311.500366 L 447.999528 327.500423 L 440.000016 343.50048 " transform="matrix(3.779528,0,0,3.779528,0,0)"/>
<path style="fill:none;stroke-width:2;stroke-linecap:butt;stroke-linejoin:miter;stroke:rgb(0%,0%,0%);stroke-opacity:1;stroke-miterlimit:4;" d="M 468.999797 284.500464 L 463.000163 268.500407 " transform="matrix(3.779528,0,0,3.779528,0,0)"/>
<path style="fill:none;stroke-width:2;stroke-linecap:butt;stroke-linejoin:miter;stroke:rgb(0%,0%,0%);stroke-opacity:1;stroke-miterlimit:4;" d="M 400.999813 221.999886 L 364.999943 237.499715 " transform="matrix(3.779528,0,0,3.779528,0,0)"/>
<path style="fill:none;stroke-width:2;stroke-linecap:butt;stroke-linejoin:miter;stroke:rgb(0%,0%,0%);stroke-opacity:1;stroke-miterlimit:4;" d="M 410.500008 234.000187 L 420.500431 232.000309 L 429.000171 230.499626 L 472.500358 210.499813 L 474.500236 194.499756 L 474.500236 178.499699 L 466.499691 162.499642 L 448.499756 146.499585 L 414.499764 130.499528 " transform="matrix(3.779528,0,0,3.779528,0,0)"/>
<path style="fill:none;stroke-width:2;stroke-linecap:butt;stroke-linejoin:miter;stroke:rgb(0%,0%,0%);stroke-opacity:1;stroke-miterlimit:4;" d="M 418.000326 125.999544 L 452.000317 141.999601 L 470.000252 157.999658 L 477.999764 174.499943 L 479.999642 192.499878 L 479.999642 208.499935 " transform="matrix(3.779528,0,0,3.779528,0,0)"/>
<path style="fill:none;stroke-width:2;stroke-linecap:butt;stroke-linejoin:miter;stroke:rgb(0%,0%,0%);stroke-opacity:1;stroke-miterlimit:4;" d="M 450.999862 13.499951 L 434.999805 13.499951 " transform="matrix(3.779528,0,0,3.779528,0,0)"/>
<path style="fill:none;stroke-width:2;stroke-linecap:butt;stroke-linejoin:miter;stroke:rgb(0%,0%,0%);stroke-opacity:1;stroke-miterlimit:4;" d="M 228.999976 62.999772 L 222.500114 78.999829 L 202.999495 78.999829 " transform="matrix(3.779528,0,0,3.779528,0,0)"/>
<path style="fill:none;stroke-width:2;stroke-linecap:butt;stroke-linejoin:miter;stroke:rgb(0%,0%,0%);stroke-opacity:1;stroke-miterlimit:4;" d="M 207.999707 66.000106 L 191.500456 82.000163 L 186.000016 90.499902 L 200.000195 90.499902 L 216.50048 73.999618 " transform="matrix(3.779528,0,0,3.779528,0,0)"/>
<path style="fill:none;stroke-width:2;stroke-linecap:butt;stroke-linejoin:miter;stroke:rgb(0%,0%,0%);stroke-opacity:1;stroke-miterlimit:4;" d="M 220.500236 62.999772 L 212.499691 78.499601 L 194.499756 94.499658 L 198.499512 110.499715 L 210.499813 98.500448 L 226.49987 86.500146 L 243.000155 70.50009 " transform="matrix(3.779528,0,0,3.779528,0,0)"/>
<path style="fill:none;stroke-width:2;stroke-linecap:butt;stroke-linejoin:miter;stroke:rgb(0%,0%,0%);stroke-opacity:1;stroke-miterlimit:4;" d="M 213.500146 61.500122 L 203.499723 77.500179 L 191.500456 83.499813 L 207.500513 66.999528 " transform="matrix(3.779528,0,0,3.779528,0,0)"/>
<path style="fill:none;stroke-width:2;stroke-linecap:butt;stroke-linejoin:miter;stroke:rgb(0%,0%,0%);stroke-opacity:1;stroke-miterlimit:4;" d="M 212.000496 58.499788 L 191.500456 73.999618 L 173.499487 87.499569 L 189.499544 101.499748 L 205.999829 118.000033 L 237.999943 114.000277 L 254 105.999731 L 270.500285 101.999976 L 286.500342 99.49987 L 318.99965 99.49987 L 334.500513 101.999976 L 350.499536 107.999609 L 366.499593 116.000155 L 382.49965 125.999544 L 398.000513 123.999666 L 413.999536 124.499894 L 429.999593 130.499528 L 445.99965 139.000301 L 461.999707 148.999691 L 477.999764 175.000171 " transform="matrix(3.779528,0,0,3.779528,0,0)"/>
<path style="fill:none;stroke-width:2;stroke-linecap:butt;stroke-linejoin:miter;stroke:rgb(0%,0%,0%);stroke-opacity:1;stroke-miterlimit:4;" d="M 196.499634 163.500098 L 180.499577 189.499544 " transform="matrix(3.779528,0,0,3.779528,0,0)"/>
<path style="fill:none;stroke-width:2;stroke-linecap:butt;stroke-linejoin:miter;stroke:rgb(0%,0%,0%);stroke-opacity:1;stroke-miterlimit:4;" d="M 164.000326 200.500423 L 168.500309 184.000138 L 174.499943 167.499854 L 178.499699 153.499674 L 162.499642 179.500155 " transform="matrix(3.779528,0,0,3.779528,0,0)"/>
<path style="fill:none;stroke-width:2;stroke-linecap:butt;stroke-linejoin:miter;stroke:rgb(0%,0%,0%);stroke-opacity:1;stroke-miterlimit:4;" d="M 155.499552 65.499878 L 139.499495 65.499878 " transform="matrix(3.779528,0,0,3.779528,0,0)"/>
<path style="fill:none;stroke-width:2;stroke-linecap:butt;stroke-linejoin:miter;stroke:rgb(0%,0%,0%);stroke-opacity:1;stroke-miterlimit:4;" d="M 153.999902 47.499943 L 137.999845 63.5 L 165.499976 83.499813 L 185.499788 99.49987 L 195.500212 115.499927 L 207.999707 132.000212 L 202.000073 139.499495 L 196.000439 153.499674 L 186.000016 169.999959 L 175.999593 186.000016 L 166.000203 210.499813 L 169.999959 226.49987 L 191.99965 241.999699 L 209.999585 254 L 198.000317 269.499829 L 190.5 284.999658 L 188.500122 301.499943 L 188.500122 318.000228 L 192.499878 326.499967 L 209.000163 332.499601 L 225.00022 334.999707 L 241.000277 341.000374 L 257.000334 354.99952 L 272.500163 362.499837 L 287.999992 359.999731 L 298.000415 323.999862 L 314.000472 297.500187 L 329.999495 282.000358 L 341.999797 284.000236 L 357.999854 298.000415 L 373.99991 316.499544 L 382.000456 312.499788 L 386.000212 327.999618 L 388.00009 338.000041 L 389.999967 349.500114 L 400.499585 350.999764 L 408.50013 339.499691 L 432.499699 329.500301 " transform="matrix(3.779528,0,0,3.779528,0,0)"/>
<path style="fill:none;stroke-width:2;stroke-linecap:butt;stroke-linejoin:miter;stroke:rgb(0%,0%,0%);stroke-opacity:1;stroke-miterlimit:4;" d="M 196.999862 69.999862 L 180.999805 84.000041 L 164.999748 82.500391 L 184.999561 64.500456 " transform="matrix(3.779528,0,0,3.779528,0,0)"/>
<path style="fill:none;stroke-width:2;stroke-linecap:butt;stroke-linejoin:miter;stroke:rgb(0%,0%,0%);stroke-opacity:1;stroke-miterlimit:4;" d="M 182.00026 67.999984 L 175.999593 84.000041 L 164.000326 73.500423 L 182.00026 57.500366 " transform="matrix(3.779528,0,0,3.779528,0,0)"/>
<path style="fill:none;stroke-width:2;stroke-linecap:butt;stroke-linejoin:miter;stroke:rgb(0%,0%,0%);stroke-opacity:1;stroke-miterlimit:4;" d="M 155.499552 41.000081 L 135.49974 57.000138 L 135.49974 69.000439 L 151.499797 75.500301 L 168.000081 71.99974 L 184.000138 58.499788 L 193.999528 64.500456 L 205.999829 62.499544 L 221.999886 62.499544 " transform="matrix(3.779528,0,0,3.779528,0,0)"/>
<path style="fill:none;stroke-width:2;stroke-linecap:butt;stroke-linejoin:miter;stroke:rgb(0%,0%,0%);stroke-opacity:1;stroke-miterlimit:4;" d="M 225.999642 69.499634 L 209.999585 87.499569 L 193.999528 99.49987 L 214.000374 87.499569 L 232.000309 77.500179 L 252.000122 67.499756 L 218.00013 51.000505 " transform="matrix(3.779528,0,0,3.779528,0,0)"/>
<path style="fill:none;stroke-width:2;stroke-linecap:butt;stroke-linejoin:miter;stroke:rgb(0%,0%,0%);stroke-opacity:1;stroke-miterlimit:4;" d="M 214.999797 46.000293 L 251.499894 62.00035 L 259.000212 77.500179 L 239.499593 83.499813 L 241.500505 99.49987 L 234.000187 95.500114 L 243.999577 89.50048 " transform="matrix(3.779528,0,0,3.779528,0,0)"/>
</g>
</svg>
