<?xml version="1.0" encoding="UTF-8"?>
<svg xmlns="http://www.w3.org/2000/svg" xmlns:xlink="http://www.w3.org/1999/xlink" width="1935.11811" height="1935.11811" viewBox="0 0 1935.11811 1935.11811" version="1.1">
<g id="surface1">
<path style="fill:none;stroke-width:2;stroke-linecap:butt;stroke-linejoin:miter;stroke:rgb(0%,0%,0%);stroke-opacity:1;stroke-miterlimit:4;" d="M 401.500041 48.500399 L 443.499544 64.500456 L 467.500146 80.500513 L 489.499837 96.499536 L 503.500016 112.999821 " transform="matrix(3.779528,0,0,3.779528,0,0)"/>
<path style="fill:none;stroke-width:2;stroke-linecap:butt;stroke-linejoin:miter;stroke:rgb(0%,0%,0%);stroke-opacity:1;stroke-miterlimit:4;" d="M 441.999894 82.999585 L 425.999837 69.000439 " transform="matrix(3.779528,0,0,3.779528,0,0)"/>
<path style="fill:none;stroke-width:2;stroke-linecap:butt;stroke-linejoin:miter;stroke:rgb(0%,0%,0%);stroke-opacity:1;stroke-miterlimit:4;" d="M 423.999959 66.500334 L 437.49991 82.000163 L 447.500334 83.499813 " transform="matrix(3.779528,0,0,3.779528,0,0)"/>
<path style="fill:none;stroke-width:2;stroke-linecap:butt;stroke-linejoin:miter;stroke:rgb(0%,0%,0%);stroke-opacity:1;stroke-miterlimit:4;" d="M 440.500244 91.999552 L 424.500187 73.999618 " transform="matrix(3.779528,0,0,3.779528,0,0)"/>
<path style="fill:none;stroke-width:2;stroke-linecap:butt;stroke-linejoin:miter;stroke:rgb(0%,0%,0%);stroke-opacity:1;stroke-miterlimit:4;" d="M 412.499886 65.499878 L 429.000171 65.499878 L 434.999805 69.499634 L 450.999862 85.499691 " transform="matrix(3.779528,0,0,3.779528,0,0)"/>
<path style="fill:none;stroke-width:2;stroke-linecap:butt;stroke-linejoin:miter;stroke:rgb(0%,0%,0%);stroke-opacity:1;stroke-miterlimit:4;" d="M 434.999805 97.499992 L 418.999748 87.499569 L 395.500407 73.500423 L 379.000122 55.500488 " transform="matrix(3.779528,0,0,3.779528,0,0)"/>
<path style="fill:none;stroke-width:2;stroke-linecap:butt;stroke-linejoin:miter;stroke:rgb(0%,0%,0%);stroke-opacity:1;stroke-miterlimit:4;" d="M 373.99991 53.000382 L 389.999967 57.000138 L 405.499797 62.499544 L 423.499731 48.500399 L 457.999951 64.99965 L 481.99952 80.999707 L 500.000488 96.999764 " transform="matrix(3.779528,0,0,3.779528,0,0)"/>
<path style="fill:none;stroke-width:2;stroke-linecap:butt;stroke-linejoin:miter;stroke:rgb(0%,0%,0%);stroke-opacity:1;stroke-miterlimit:4;" d="M 440.000016 103.499626 L 427.499487 87.499569 L 409.499552 71.499512 L 397.000057 71.499512 L 384.499528 55.500488 L 372.50026 65.499878 " transform="matrix(3.779528,0,0,3.779528,0,0)"/>
<path style="fill:none;stroke-width:2;stroke-linecap:butt;stroke-linejoin:miter;stroke:rgb(0%,0%,0%);stroke-opacity:1;stroke-miterlimit:4;" d="M 373.99991 65.499878 L 386.000212 81.499935 L 402.000269 98.00022 L 407.999902 112.000399 L 413.999536 127.500228 L 422.500309 119.499683 L 416.000448 127.500228 " transform="matrix(3.779528,0,0,3.779528,0,0)"/>
<path style="fill:none;stroke-width:2;stroke-linecap:butt;stroke-linejoin:miter;stroke:rgb(0%,0%,0%);stroke-opacity:1;stroke-miterlimit:4;" d="M 429.999593 87.499569 L 413.999536 71.000317 L 398.499707 62.999772 " transform="matrix(3.779528,0,0,3.779528,0,0)"/>
<path style="fill:none;stroke-width:2;stroke-linecap:butt;stroke-linejoin:miter;stroke:rgb(0%,0%,0%);stroke-opacity:1;stroke-miterlimit:4;" d="M 402.000269 61.500122 L 427.999715 77.500179 L 439.499788 93.500236 L 451.50009 109.500293 " transform="matrix(3.779528,0,0,3.779528,0,0)"/>
<path style="fill:none;stroke-width:2;stroke-linecap:butt;stroke-linejoin:miter;stroke:rgb(0%,0%,0%);stroke-opacity:1;stroke-miterlimit:4;" d="M 418.49952 105.999731 L 407.999902 100.000098 L 391.999845 85.499691 L 375.999788 71.499512 " transform="matrix(3.779528,0,0,3.779528,0,0)"/>
<path style="fill:none;stroke-width:2;stroke-linecap:butt;stroke-linejoin:miter;stroke:rgb(0%,0%,0%);stroke-opacity:1;stroke-miterlimit:4;" d="M 377.500472 69.499634 L 395.500407 85.499691 L 423.499731 93.500236 L 425.499609 100.99952 L 441.499666 107.000187 " transform="matrix(3.779528,0,0,3.779528,0,0)"/>
<path style="fill:none;stroke-width:2;stroke-linecap:butt;stroke-linejoin:miter;stroke:rgb(0%,0%,0%);stroke-opacity:1;stroke-miterlimit:4;" d="M 444.5 70.50009 L 438.500366 69.000439 " transform="matrix(3.779528,0,0,3.779528,0,0)"/>
<path style="fill:none;stroke-width:2;stroke-linecap:butt;stroke-linejoin:miter;stroke:rgb(0%,0%,0%);stroke-opacity:1;stroke-miterlimit:4;" d="M 400.999813 87.499569 L 385.499984 71.000317 " transform="matrix(3.779528,0,0,3.779528,0,0)"/>
<path style="fill:none;stroke-width:2;stroke-linecap:butt;stroke-linejoin:miter;stroke:rgb(0%,0%,0%);stroke-opacity:1;stroke-miterlimit:4;" d="M 375.499561 48.999593 L 383.500106 64.99965 L 401.500041 80.999707 L 421.499854 95.500114 L 438.000138 112.000399 L 445.99965 118.50026 " transform="matrix(3.779528,0,0,3.779528,0,0)"/>
<path style="fill:none;stroke-width:2;stroke-linecap:butt;stroke-linejoin:miter;stroke:rgb(0%,0%,0%);stroke-opacity:1;stroke-miterlimit:4;" d="M 469.500024 190.5 L 485.500081 189.999772 L 501.500138 182.00026 L 495.500505 184.500366 L 471.499902 194.499756 L 453.499967 202.500301 L 455.499845 218.00013 L 467.500146 216.000252 L 471.499902 209.999585 " transform="matrix(3.779528,0,0,3.779528,0,0)"/>
<path style="fill:none;stroke-width:2;stroke-linecap:butt;stroke-linejoin:miter;stroke:rgb(0%,0%,0%);stroke-opacity:1;stroke-miterlimit:4;" d="M 459.000407 198.000317 L 481.000098 196.000439 L 477.499536 212.499691 L 463.500391 228.499748 L 457.999951 255.000456 L 474.000008 252.999544 L 490.500293 255.000456 L 506.50035 255.000456 " transform="matrix(3.779528,0,0,3.779528,0,0)"/>
<path style="fill:none;stroke-width:2;stroke-linecap:butt;stroke-linejoin:miter;stroke:rgb(0%,0%,0%);stroke-opacity:1;stroke-miterlimit:4;" d="M 497.500382 259.999634 L 481.500326 257.999756 L 466.000496 254 " transform="matrix(3.779528,0,0,3.779528,0,0)"/>
<path style="fill:none;stroke-width:2;stroke-linecap:butt;stroke-linejoin:miter;stroke:rgb(0%,0%,0%);stroke-opacity:1;stroke-miterlimit:4;" d="M 464.499813 246.99991 L 480.49987 248.499561 L 496.499927 248.499561 " transform="matrix(3.779528,0,0,3.779528,0,0)"/>
<path style="fill:none;stroke-width:2;stroke-linecap:butt;stroke-linejoin:miter;stroke:rgb(0%,0%,0%);stroke-opacity:1;stroke-miterlimit:4;" d="M 495.999699 276.499919 L 479.999642 275.000269 L 463.999585 273.000391 L 447.999528 271.499707 L 432.499699 271.000513 L 416.499642 266.999723 " transform="matrix(3.779528,0,0,3.779528,0,0)"/>
<path style="fill:none;stroke-width:2;stroke-linecap:butt;stroke-linejoin:miter;stroke:rgb(0%,0%,0%);stroke-opacity:1;stroke-miterlimit:4;" d="M 416.499642 230.000431 L 400.499585 209.999585 " transform="matrix(3.779528,0,0,3.779528,0,0)"/>
<path style="fill:none;stroke-width:2;stroke-linecap:butt;stroke-linejoin:miter;stroke:rgb(0%,0%,0%);stroke-opacity:1;stroke-miterlimit:4;" d="M 400.499585 210.499813 L 410.500008 226.49987 L 436.500488 206.500057 L 452.499512 234.500415 " transform="matrix(3.779528,0,0,3.779528,0,0)"/>
<path style="fill:none;stroke-width:2;stroke-linecap:butt;stroke-linejoin:miter;stroke:rgb(0%,0%,0%);stroke-opacity:1;stroke-miterlimit:4;" d="M 453.499967 225.500448 L 443.499544 209.500391 L 441.999894 194.999984 " transform="matrix(3.779528,0,0,3.779528,0,0)"/>
<path style="fill:none;stroke-width:2;stroke-linecap:butt;stroke-linejoin:miter;stroke:rgb(0%,0%,0%);stroke-opacity:1;stroke-miterlimit:4;" d="M 443.999772 208.499935 L 427.999715 204.500179 L 411.500464 204.500179 L 395.500407 206.500057 L 379.999544 206.500057 L 368.500505 209.999585 L 352.500448 219.49978 L 330.499723 227.500326 L 314.499666 247.500138 " transform="matrix(3.779528,0,0,3.779528,0,0)"/>
<path style="fill:none;stroke-width:2;stroke-linecap:butt;stroke-linejoin:miter;stroke:rgb(0%,0%,0%);stroke-opacity:1;stroke-miterlimit:4;" d="M 317.5 250.999666 L 333.500057 252.50035 " transform="matrix(3.779528,0,0,3.779528,0,0)"/>
<path style="fill:none;stroke-width:2;stroke-linecap:butt;stroke-linejoin:miter;stroke:rgb(0%,0%,0%);stroke-opacity:1;stroke-miterlimit:4;" d="M 348.000464 268.999601 L 363.999487 272.500163 L 380.499772 273.999813 L 396.499829 275.999691 L 413.000114 255.49965 L 429.000171 263.500195 L 445.500456 265.500073 L 461.500513 265.500073 L 477.499536 267.499951 L 493.499593 269.499829 L 509.999878 270.000057 " transform="matrix(3.779528,0,0,3.779528,0,0)"/>
<path style="fill:none;stroke-width:2;stroke-linecap:butt;stroke-linejoin:miter;stroke:rgb(0%,0%,0%);stroke-opacity:1;stroke-miterlimit:4;" d="M 513.000212 295.500309 L 479.00022 279.500252 " transform="matrix(3.779528,0,0,3.779528,0,0)"/>
<path style="fill:none;stroke-width:2;stroke-linecap:butt;stroke-linejoin:miter;stroke:rgb(0%,0%,0%);stroke-opacity:1;stroke-miterlimit:4;" d="M 470.999674 277.999569 L 497.000155 293.500431 " transform="matrix(3.779528,0,0,3.779528,0,0)"/>
<path style="fill:none;stroke-width:2;stroke-linecap:butt;stroke-linejoin:miter;stroke:rgb(0%,0%,0%);stroke-opacity:1;stroke-miterlimit:4;" d="M 467.500146 380.499772 L 482.999976 378.499894 L 499.000033 374.500138 L 511.000334 380.499772 L 504.500472 382.000456 L 488.000187 382.000456 L 479.999642 398.000513 L 477.499536 413.999536 L 477.499536 425.999837 L 470.000252 432.000505 L 454.000195 450.000439 L 456.000073 440.000016 L 455.499845 409.99978 L 451.50009 416.000448 L 441.000472 443.999772 " transform="matrix(3.779528,0,0,3.779528,0,0)"/>
<path style="fill:none;stroke-width:2;stroke-linecap:butt;stroke-linejoin:miter;stroke:rgb(0%,0%,0%);stroke-opacity:1;stroke-miterlimit:4;" d="M 484.000431 434.000382 L 493.999821 418.49952 L 493.999821 402.999691 L 489.499837 398.999935 " transform="matrix(3.779528,0,0,3.779528,0,0)"/>
<path style="fill:none;stroke-width:2;stroke-linecap:butt;stroke-linejoin:miter;stroke:rgb(0%,0%,0%);stroke-opacity:1;stroke-miterlimit:4;" d="M 483.500203 401.500041 L 499.50026 387.499862 " transform="matrix(3.779528,0,0,3.779528,0,0)"/>
<path style="fill:none;stroke-width:2;stroke-linecap:butt;stroke-linejoin:miter;stroke:rgb(0%,0%,0%);stroke-opacity:1;stroke-miterlimit:4;" d="M 480.49987 398.499707 L 486.000309 404.000146 L 488.000187 418.000326 L 502.000366 418.000326 " transform="matrix(3.779528,0,0,3.779528,0,0)"/>
<path style="fill:none;stroke-width:2;stroke-linecap:butt;stroke-linejoin:miter;stroke:rgb(0%,0%,0%);stroke-opacity:1;stroke-miterlimit:4;" d="M 452.000317 432.499699 L 447.999528 416.499642 L 444.5 392.500073 L 428.499943 384.499528 L 412.499886 378.499894 " transform="matrix(3.779528,0,0,3.779528,0,0)"/>
<path style="fill:none;stroke-width:2;stroke-linecap:butt;stroke-linejoin:miter;stroke:rgb(0%,0%,0%);stroke-opacity:1;stroke-miterlimit:4;" d="M 406.000024 395.999601 L 405.499797 411.999658 " transform="matrix(3.779528,0,0,3.779528,0,0)"/>
<path style="fill:none;stroke-width:2;stroke-linecap:butt;stroke-linejoin:miter;stroke:rgb(0%,0%,0%);stroke-opacity:1;stroke-miterlimit:4;" d="M 440.500244 425.499609 L 432.499699 423.499731 L 438.500366 407.499674 L 445.000228 391.499618 L 430.499821 379.999544 L 414.499764 373.99991 L 398.000513 372.000033 L 382.000456 361.999609 " transform="matrix(3.779528,0,0,3.779528,0,0)"/>
<path style="fill:none;stroke-width:2;stroke-linecap:butt;stroke-linejoin:miter;stroke:rgb(0%,0%,0%);stroke-opacity:1;stroke-miterlimit:4;" d="M 379.999544 368.500505 L 382.000456 384.000334 L 375.499561 390.500195 L 371.499805 406.500252 L 379.999544 412.499886 " transform="matrix(3.779528,0,0,3.779528,0,0)"/>
<path style="fill:none;stroke-width:2;stroke-linecap:butt;stroke-linejoin:miter;stroke:rgb(0%,0%,0%);stroke-opacity:1;stroke-miterlimit:4;" d="M 370.500382 423.999959 L 368.500505 416.499642 L 350.499536 416.499642 L 359.999731 412.499886 L 363.999487 396.499829 L 371.499805 388.500317 L 375.499561 372.000033 L 373.499683 368.000277 " transform="matrix(3.779528,0,0,3.779528,0,0)"/>
<path style="fill:none;stroke-width:2;stroke-linecap:butt;stroke-linejoin:miter;stroke:rgb(0%,0%,0%);stroke-opacity:1;stroke-miterlimit:4;" d="M 377.000244 370.000155 L 393.000301 373.99991 L 409.000358 375.999788 L 413.000114 391.999845 L 420.999626 398.000513 L 411.000236 404.000146 L 414.999992 420.000203 L 441.000472 436.00026 L 438.999561 452.000317 L 450.999862 445.99965 L 458.500179 452.000317 L 450.999862 445.99965 L 461.000285 447.999528 L 477.000342 429.999593 L 482.999976 436.500488 " transform="matrix(3.779528,0,0,3.779528,0,0)"/>
<path style="fill:none;stroke-width:2;stroke-linecap:butt;stroke-linejoin:miter;stroke:rgb(0%,0%,0%);stroke-opacity:1;stroke-miterlimit:4;" d="M 460.500057 430.499821 L 468.499569 422.500309 L 468.499569 406.500252 L 464.499813 396.499829 L 466.499691 380.499772 L 468.000374 374.500138 L 452.499512 370.500382 L 436.500488 363.999487 L 404.500374 347.000008 L 388.00009 336.500391 " transform="matrix(3.779528,0,0,3.779528,0,0)"/>
<path style="fill:none;stroke-width:2;stroke-linecap:butt;stroke-linejoin:miter;stroke:rgb(0%,0%,0%);stroke-opacity:1;stroke-miterlimit:4;" d="M 391.999845 341.499569 L 422.000081 357.499626 L 441.999894 373.000488 " transform="matrix(3.779528,0,0,3.779528,0,0)"/>
<path style="fill:none;stroke-width:2;stroke-linecap:butt;stroke-linejoin:miter;stroke:rgb(0%,0%,0%);stroke-opacity:1;stroke-miterlimit:4;" d="M 404.000146 418.000326 L 388.00009 419.499976 L 368.000277 405.499797 L 368.500505 388.999512 " transform="matrix(3.779528,0,0,3.779528,0,0)"/>
<path style="fill:none;stroke-width:2;stroke-linecap:butt;stroke-linejoin:miter;stroke:rgb(0%,0%,0%);stroke-opacity:1;stroke-miterlimit:4;" d="M 357.499626 391.999845 L 347.500236 408.50013 " transform="matrix(3.779528,0,0,3.779528,0,0)"/>
<path style="fill:none;stroke-width:2;stroke-linecap:butt;stroke-linejoin:miter;stroke:rgb(0%,0%,0%);stroke-opacity:1;stroke-miterlimit:4;" d="M 311.999561 406.000024 L 318.000228 389.999967 L 323.999862 373.99991 L 327.999618 357.999854 L 318.000228 351.499992 L 302.000171 384.000334 L 286.000114 405.499797 L 277.999569 417.500098 L 302.000171 385.499984 L 309.999683 369.499927 L 318.000228 353.49987 L 323.999862 337.499813 L 327.999618 321.499756 L 329.999495 305.499699 L 332.000407 289.499642 L 349.500114 269.499829 L 353.49987 253.499772 L 366.000399 237.999943 L 364.499715 218.00013 L 356.500203 217.499902 " transform="matrix(3.779528,0,0,3.779528,0,0)"/>
<path style="fill:none;stroke-width:2;stroke-linecap:butt;stroke-linejoin:miter;stroke:rgb(0%,0%,0%);stroke-opacity:1;stroke-miterlimit:4;" d="M 355.999976 220.500236 L 359.999731 236.999487 L 347.500236 252.999544 L 339.499691 268.500407 L 327.500423 286.500342 L 325.499512 300.000293 L 323.999862 316.00035 L 319.499878 332.000407 L 316.00035 348.000464 L 307.999805 363.999487 L 298.000415 379.999544 L 286.000114 396.499829 L 273.999813 411.999658 L 281.50013 422.000081 L 313.500244 420.999626 L 329.500301 417.500098 L 345.500358 401.500041 L 361.500415 377.500472 L 377.500472 345.500358 L 393.999723 347.500236 L 409.499552 357.499626 L 425.499609 366.000399 L 443.499544 382.000456 " transform="matrix(3.779528,0,0,3.779528,0,0)"/>
<path style="fill:none;stroke-width:2;stroke-linecap:butt;stroke-linejoin:miter;stroke:rgb(0%,0%,0%);stroke-opacity:1;stroke-miterlimit:4;" d="M 435.500033 377.000244 L 417.500098 361.000187 L 387.499862 345.00013 " transform="matrix(3.779528,0,0,3.779528,0,0)"/>
<path style="fill:none;stroke-width:2;stroke-linecap:butt;stroke-linejoin:miter;stroke:rgb(0%,0%,0%);stroke-opacity:1;stroke-miterlimit:4;" d="M 384.499528 316.00035 L 368.500505 296.499731 L 352.999642 280.499674 " transform="matrix(3.779528,0,0,3.779528,0,0)"/>
<path style="fill:none;stroke-width:2;stroke-linecap:butt;stroke-linejoin:miter;stroke:rgb(0%,0%,0%);stroke-opacity:1;stroke-miterlimit:4;" d="M 348.000464 282.000358 L 363.999487 296.499731 L 379.999544 314.499666 " transform="matrix(3.779528,0,0,3.779528,0,0)"/>
<path style="fill:none;stroke-width:2;stroke-linecap:butt;stroke-linejoin:miter;stroke:rgb(0%,0%,0%);stroke-opacity:1;stroke-miterlimit:4;" d="M 348.000464 276.499919 L 363.999487 292.499976 L 382.000456 307.999805 L 386.000212 323.999862 L 389.999967 339.499691 L 380.499772 354.99952 L 396.499829 371.499805 L 400.499585 388.00009 L 394.499951 398.499707 L 391.000423 414.499764 L 397.000057 414.999992 " transform="matrix(3.779528,0,0,3.779528,0,0)"/>
<path style="fill:none;stroke-width:2;stroke-linecap:butt;stroke-linejoin:miter;stroke:rgb(0%,0%,0%);stroke-opacity:1;stroke-miterlimit:4;" d="M 504.999666 458.500179 L 495.000277 470.50048 L 479.500448 476.500114 L 463.999585 477.999764 L 447.999528 481.99952 L 432.499699 484.000431 L 416.499642 485.500081 L 400.499585 485.500081 L 384.999756 487.499959 L 368.999699 487.499959 L 352.500448 489.499837 L 336.500391 489.499837 L 304.500277 493.499593 L 287.999992 493.999821 L 271.999935 492.500171 L 223.999764 492.500171 L 207.999707 491.999943 L 191.99965 490.000065 L 175.500399 490.000065 L 159.500342 487.499959 L 143.500285 483.500203 L 128.000456 481.500326 L 112.000399 477.000342 L 96.499536 471.499902 L 80.500513 465.500269 L 64.500456 456.000073 L 48.500399 434.499577 " transform="matrix(3.779528,0,0,3.779528,0,0)"/>
<path style="fill:none;stroke-width:2;stroke-linecap:butt;stroke-linejoin:miter;stroke:rgb(0%,0%,0%);stroke-opacity:1;stroke-miterlimit:4;" d="M 15.499829 414.499764 L 30.999658 416.499642 L 53.000382 428.499943 L 68.500212 450.000439 L 84.000041 461.999707 L 100.000098 467.500146 L 115.499927 473.49978 L 131.499984 477.499536 L 147.500041 479.500448 L 163.500098 481.000098 L 195.500212 484.999854 L 212.000496 484.999854 L 227.99952 485.500081 L 244.499805 486.000309 L 277.000146 486.000309 L 293.000203 484.000431 L 325.499512 484.000431 L 341.499569 484.499626 L 357.000431 484.499626 L 373.000488 482.499748 L 388.999512 482.499748 L 404.500374 479.999642 L 420.000203 479.999642 L 436.00026 477.999764 L 451.50009 474.000008 L 467.500146 472.00013 L 484.000431 468.000374 L 500.000488 461.999707 " transform="matrix(3.779528,0,0,3.779528,0,0)"/>
<path style="fill:none;stroke-width:2;stroke-linecap:butt;stroke-linejoin:miter;stroke:rgb(0%,0%,0%);stroke-opacity:1;stroke-miterlimit:4;" d="M 434.999805 237.999943 L 402.999691 237.999943 L 386.999634 234.000187 L 370.999577 234.000187 L 354.99952 250.000244 L 336.999585 255.999878 L 337.499813 239.999821 L 329.500301 223.999764 L 309.999683 243.999577 L 294.499854 248.000366 L 278.499797 219.49978 " transform="matrix(3.779528,0,0,3.779528,0,0)"/>
<path style="fill:none;stroke-width:2;stroke-linecap:butt;stroke-linejoin:miter;stroke:rgb(0%,0%,0%);stroke-opacity:1;stroke-miterlimit:4;" d="M 276.499919 214.499569 L 282.99978 230.499626 L 293.000203 246.99991 L 314.999894 265.500073 L 313.000016 281.50013 L 305.000505 297.500187 L 279.000024 309.500488 L 273.000391 325.499512 L 264.499618 341.000374 L 254.500228 357.000431 L 246.99991 372.50026 L 236.999487 388.500317 L 222.500114 404.999569 L 214.499569 418.999748 L 230.000431 421.499854 L 245.50026 421.499854 L 261.500317 423.499731 L 277.999569 407.499674 L 293.999626 385.499984 L 309.999683 355.499748 " transform="matrix(3.779528,0,0,3.779528,0,0)"/>
<path style="fill:none;stroke-width:2;stroke-linecap:butt;stroke-linejoin:miter;stroke:rgb(0%,0%,0%);stroke-opacity:1;stroke-miterlimit:4;" d="M 302.000171 275.500496 L 293.999626 281.50013 L 277.999569 268.999601 L 294.499854 259.000212 L 325.99974 227.500326 L 318.000228 215.500024 L 302.000171 214.000374 L 254 214.000374 L 237.999943 216.000252 L 205.999829 216.000252 " transform="matrix(3.779528,0,0,3.779528,0,0)"/>
<path style="fill:none;stroke-width:2;stroke-linecap:butt;stroke-linejoin:miter;stroke:rgb(0%,0%,0%);stroke-opacity:1;stroke-miterlimit:4;" d="M 205.999829 215.500024 L 218.500358 231.500081 L 230.499626 247.500138 L 250.500472 264.000423 L 276.499919 280.00048 L 290.500098 282.000358 L 280.499674 280.00048 " transform="matrix(3.779528,0,0,3.779528,0,0)"/>
<path style="fill:none;stroke-width:2;stroke-linecap:butt;stroke-linejoin:miter;stroke:rgb(0%,0%,0%);stroke-opacity:1;stroke-miterlimit:4;" d="M 252.000122 273.499585 L 268.000179 271.999935 L 284.000236 272.500163 L 307.999805 258.499984 L 323.499634 255.999878 L 339.499691 254 " transform="matrix(3.779528,0,0,3.779528,0,0)"/>
<path style="fill:none;stroke-width:2;stroke-linecap:butt;stroke-linejoin:miter;stroke:rgb(0%,0%,0%);stroke-opacity:1;stroke-miterlimit:4;" d="M 352.500448 245.000033 L 334.500513 246.99991 L 348.499658 232.999731 L 354.500326 217.499902 L 346.49978 213.500146 L 330.499723 213.500146 " transform="matrix(3.779528,0,0,3.779528,0,0)"/>
<path style="fill:none;stroke-width:2;stroke-linecap:butt;stroke-linejoin:miter;stroke:rgb(0%,0%,0%);stroke-opacity:1;stroke-miterlimit:4;" d="M 339.000496 212.000496 L 345.00013 227.500326 " transform="matrix(3.779528,0,0,3.779528,0,0)"/>
<path style="fill:none;stroke-width:2;stroke-linecap:butt;stroke-linejoin:miter;stroke:rgb(0%,0%,0%);stroke-opacity:1;stroke-miterlimit:4;" d="M 362.499837 214.999797 L 378.499894 209.500391 L 394.499951 227.000098 " transform="matrix(3.779528,0,0,3.779528,0,0)"/>
<path style="fill:none;stroke-width:2;stroke-linecap:butt;stroke-linejoin:miter;stroke:rgb(0%,0%,0%);stroke-opacity:1;stroke-miterlimit:4;" d="M 388.500317 206.500057 L 402.500496 222.500114 L 414.499764 242.499927 " transform="matrix(3.779528,0,0,3.779528,0,0)"/>
<path style="fill:none;stroke-width:2;stroke-linecap:butt;stroke-linejoin:miter;stroke:rgb(0%,0%,0%);stroke-opacity:1;stroke-miterlimit:4;" d="M 440.000016 227.000098 L 432.000505 211.000041 " transform="matrix(3.779528,0,0,3.779528,0,0)"/>
<path style="fill:none;stroke-width:2;stroke-linecap:butt;stroke-linejoin:miter;stroke:rgb(0%,0%,0%);stroke-opacity:1;stroke-miterlimit:4;" d="M 427.999715 203.999951 L 418.000326 220.000008 L 422.000081 221.999886 L 422.000081 250.500472 L 413.999536 266.499495 L 411.999658 276.499919 L 427.499487 278.499797 L 443.00035 280.499674 L 468.999797 278.499797 L 485.500081 282.000358 L 501.500138 289.99987 " transform="matrix(3.779528,0,0,3.779528,0,0)"/>
<path style="fill:none;stroke-width:2;stroke-linecap:butt;stroke-linejoin:miter;stroke:rgb(0%,0%,0%);stroke-opacity:1;stroke-miterlimit:4;" d="M 468.499569 215.500024 L 478.499992 199.499967 L 481.000098 209.500391 L 464.499813 227.500326 L 448.499756 241.500505 L 443.999772 221.499658 L 436.00026 205.499601 L 457.499723 187.499666 L 497.000155 175.000171 L 497.500382 175.500399 L 481.500326 183.49991 L 466.000496 185.499788 L 450.499634 187.499666 L 434.999805 191.99965 L 418.49952 194.499756 L 402.000269 196.999862 L 385.499984 198.99974 L 369.499927 203.499723 L 353.49987 205.499601 L 338.000041 205.499601 L 322.500212 207.500513 L 306.500155 207.000285 L 291.000326 208.499935 L 259.500439 208.499935 L 243.500382 210.499813 L 211.500269 210.499813 L 195.500212 211.000041 L 98.999642 211.000041 L 82.500391 207.500513 L 66.500334 207.000285 L 50.500277 196.999862 L 34.50022 187.000472 " transform="matrix(3.779528,0,0,3.779528,0,0)"/>
<path style="fill:none;stroke-width:2;stroke-linecap:butt;stroke-linejoin:miter;stroke:rgb(0%,0%,0%);stroke-opacity:1;stroke-miterlimit:4;" d="M 35.99987 193.500334 L 53.999805 199.499967 L 60.000472 221.000464 L 60.000472 227.000098 L 74.499845 223.499536 L 90.499902 225.500448 L 106.499959 223.000342 L 120.500138 214.999797 L 136.500195 214.999797 L 150.500374 219.49978 L 168.500309 215.500024 L 184.500366 247.500138 L 194.499756 241.500505 L 212.499691 261.00009 L 206.500057 271.000513 " transform="matrix(3.779528,0,0,3.779528,0,0)"/>
<path style="fill:none;stroke-width:2;stroke-linecap:butt;stroke-linejoin:miter;stroke:rgb(0%,0%,0%);stroke-opacity:1;stroke-miterlimit:4;" d="M 219.49978 262.999967 L 203.499723 241.500505 L 200.000195 227.500326 " transform="matrix(3.779528,0,0,3.779528,0,0)"/>
<path style="fill:none;stroke-width:2;stroke-linecap:butt;stroke-linejoin:miter;stroke:rgb(0%,0%,0%);stroke-opacity:1;stroke-miterlimit:4;" d="M 207.000285 220.000008 L 223.000342 225.999642 L 223.499536 237.499715 L 239.499593 255.999878 L 255.49965 266.000301 L 271.499707 266.000301 " transform="matrix(3.779528,0,0,3.779528,0,0)"/>
<path style="fill:none;stroke-width:2;stroke-linecap:butt;stroke-linejoin:miter;stroke:rgb(0%,0%,0%);stroke-opacity:1;stroke-miterlimit:4;" d="M 289.499642 251.499894 L 273.499585 221.499658 " transform="matrix(3.779528,0,0,3.779528,0,0)"/>
<path style="fill:none;stroke-width:2;stroke-linecap:butt;stroke-linejoin:miter;stroke:rgb(0%,0%,0%);stroke-opacity:1;stroke-miterlimit:4;" d="M 273.000391 210.499813 L 274.500041 226.49987 L 280.499674 241.999699 L 306.500155 257.999756 L 305.999927 274.500041 L 309.999683 276.499919 L 302.000171 291.999748 L 275.999691 303.499821 L 267.499951 320.999528 L 257.499528 336.500391 L 249.500016 352.00022 L 241.500505 368.500505 L 229.500203 384.999756 L 217.499902 401.500041 L 200.999618 418.000326 L 225.00022 402.500496 L 241.000277 379.000122 L 257.000334 352.999642 L 272.500163 320.999528 L 288.50022 298.999837 L 304.000049 298.999837 L 322.500212 278.499797 L 334.999707 282.99978 L 350.999764 277.000146 L 367.500049 279.000024 L 384.000334 281.50013 L 400.499585 282.99978 L 416.499642 282.99978 L 432.999927 284.500464 L 448.999984 286.000114 L 465.000041 285.499886 L 483.500203 285.499886 L 499.000033 293.500431 " transform="matrix(3.779528,0,0,3.779528,0,0)"/>
<path style="fill:none;stroke-width:2;stroke-linecap:butt;stroke-linejoin:miter;stroke:rgb(0%,0%,0%);stroke-opacity:1;stroke-miterlimit:4;" d="M 486.000309 421.499854 L 472.00013 409.499552 L 472.00013 393.499495 L 452.000317 407.499674 L 436.00026 409.499552 L 423.999959 413.500342 L 413.999536 397.500285 L 400.000391 385.499984 L 381.500228 397.500285 L 375.499561 387.499862 L 341.999797 413.999536 L 326.499967 425.999837 L 310.49991 425.499609 L 294.499854 425.499609 L 278.499797 427.499487 L 261.999512 427.000293 L 245.50026 427.000293 L 229.500203 425.499609 L 213.500146 425.499609 L 198.000317 423.499731 L 182.00026 423.499731 L 166.000203 422.000081 L 150.000146 422.500309 L 134.00009 420.500431 L 101.999976 415.50022 L 85.999919 411.000236 L 69.999862 407.00048 L 53.999805 398.999935 L 48.500399 387.499862 L 62.999772 371.499805 L 98.999642 339.499691 " transform="matrix(3.779528,0,0,3.779528,0,0)"/>
<path style="fill:none;stroke-width:2;stroke-linecap:butt;stroke-linejoin:miter;stroke:rgb(0%,0%,0%);stroke-opacity:1;stroke-miterlimit:4;" d="M 101.499748 343.50048 L 83.499813 359.499504 L 65.499878 375.499561 L 71.499512 370.000155 L 87.000374 356.500203 " transform="matrix(3.779528,0,0,3.779528,0,0)"/>
<path style="fill:none;stroke-width:2;stroke-linecap:butt;stroke-linejoin:miter;stroke:rgb(0%,0%,0%);stroke-opacity:1;stroke-miterlimit:4;" d="M 91.500358 345.500358 L 75.500301 359.000309 L 59.500244 373.499683 L 43.500187 395.999601 L 32.000114 395.999601 L 28.000358 410.500008 L 12.000301 409.99978 " transform="matrix(3.779528,0,0,3.779528,0,0)"/>
<path style="fill:none;stroke-width:2;stroke-linecap:butt;stroke-linejoin:miter;stroke:rgb(0%,0%,0%);stroke-opacity:1;stroke-miterlimit:4;" d="M 46.499487 395.000179 L 62.499544 392.500073 L 78.999829 388.500317 L 95.500114 380.499772 L 111.500171 370.500382 L 127.500228 360.499959 L 144.000513 348.499658 L 159.999536 336.500391 L 175.999593 322.500212 L 191.99965 302.999593 L 207.999707 296.999959 L 223.999764 296.499731 L 240.500049 300.000293 L 256.500106 302.000171 L 273.000391 305.499699 L 289.000448 291.49952 L 305.499699 289.499642 " transform="matrix(3.779528,0,0,3.779528,0,0)"/>
<path style="fill:none;stroke-width:2;stroke-linecap:butt;stroke-linejoin:miter;stroke:rgb(0%,0%,0%);stroke-opacity:1;stroke-miterlimit:4;" d="M 345.00013 276.499919 L 357.000431 292.499976 L 375.000366 308.500033 L 382.999878 323.999862 L 381 339.999919 L 377.000244 355.499748 L 366.999821 372.000033 L 357.000431 388.00009 L 345.00013 404.500374 L 329.500301 420.500431 L 351.499992 424.500187 L 350.999764 414.499764 L 357.000431 410.500008 L 364.499715 422.000081 L 388.00009 407.999902 L 398.000513 415.50022 L 407.499674 407.499674 L 417.500098 421.499854 L 433.500155 431.500277 L 433.500155 420.999626 " transform="matrix(3.779528,0,0,3.779528,0,0)"/>
<path style="fill:none;stroke-width:2;stroke-linecap:butt;stroke-linejoin:miter;stroke:rgb(0%,0%,0%);stroke-opacity:1;stroke-miterlimit:4;" d="M 255.000456 345.500358 L 239.000399 373.99991 L 223.000342 397.500285 L 207.000285 413.500342 L 191.000228 418.999748 L 175.000171 416.99987 L 158.499886 414.999992 L 160.999992 400.999813 L 187.000472 384.999756 L 202.999495 368.999699 L 211.000041 353.49987 L 212.999919 338.000041 " transform="matrix(3.779528,0,0,3.779528,0,0)"/>
<path style="fill:none;stroke-width:2;stroke-linecap:butt;stroke-linejoin:miter;stroke:rgb(0%,0%,0%);stroke-opacity:1;stroke-miterlimit:4;" d="M 182.999683 339.000496 L 166.500431 356.500203 L 150.000146 370.999577 " transform="matrix(3.779528,0,0,3.779528,0,0)"/>
<path style="fill:none;stroke-width:2;stroke-linecap:butt;stroke-linejoin:miter;stroke:rgb(0%,0%,0%);stroke-opacity:1;stroke-miterlimit:4;" d="M 164.999748 389.999967 L 184.500366 373.99991 L 200.999618 355.999976 L 209.000163 339.999919 L 209.000163 338.000041 L 205.000407 363.999487 L 189.00035 384.000334 L 173.000293 395.999601 L 157.000236 404.000146 L 141.000179 411.999658 L 125.000122 413.999536 L 109.000065 409.99978 L 93.000008 407.999902 L 88.500024 391.999845 L 114.500505 375.499561 L 140.499951 359.999731 L 159.999536 343.999674 L 179.500155 327.999618 L 191.500456 312.499788 L 183.49991 298.499609 L 167.499854 300.499487 L 151.499797 286.500342 " transform="matrix(3.779528,0,0,3.779528,0,0)"/>
<path style="fill:none;stroke-width:2;stroke-linecap:butt;stroke-linejoin:miter;stroke:rgb(0%,0%,0%);stroke-opacity:1;stroke-miterlimit:4;" d="M 144.999935 279.500252 L 150.500374 295.999504 " transform="matrix(3.779528,0,0,3.779528,0,0)"/>
<path style="fill:none;stroke-width:2;stroke-linecap:butt;stroke-linejoin:miter;stroke:rgb(0%,0%,0%);stroke-opacity:1;stroke-miterlimit:4;" d="M 153.499674 247.500138 L 137.499618 239.499593 L 121.999788 231.500081 L 105.999731 229.500203 L 87.999797 230.000431 L 71.99974 230.499626 " transform="matrix(3.779528,0,0,3.779528,0,0)"/>
<path style="fill:none;stroke-width:2;stroke-linecap:butt;stroke-linejoin:miter;stroke:rgb(0%,0%,0%);stroke-opacity:1;stroke-miterlimit:4;" d="M 48.000171 223.499536 L 46.499487 207.500513 " transform="matrix(3.779528,0,0,3.779528,0,0)"/>
<path style="fill:none;stroke-width:2;stroke-linecap:butt;stroke-linejoin:miter;stroke:rgb(0%,0%,0%);stroke-opacity:1;stroke-miterlimit:4;" d="M 41.500309 204.500179 L 43.500187 220.500236 " transform="matrix(3.779528,0,0,3.779528,0,0)"/>
<path style="fill:none;stroke-width:2;stroke-linecap:butt;stroke-linejoin:miter;stroke:rgb(0%,0%,0%);stroke-opacity:1;stroke-miterlimit:4;" d="M 44.999837 227.500326 L 35.000448 216.000252 L 35.000448 218.500358 L 37.000326 202.500301 " transform="matrix(3.779528,0,0,3.779528,0,0)"/>
<path style="fill:none;stroke-width:2;stroke-linecap:butt;stroke-linejoin:miter;stroke:rgb(0%,0%,0%);stroke-opacity:1;stroke-miterlimit:4;" d="M 37.49952 202.000073 L 53.499577 205.499601 L 69.499634 213.500146 L 85.499691 211.500269 L 101.499748 215.500024 L 123.000244 223.499536 L 135.49974 239.499593 L 152.000024 255.000456 L 144.000513 271.499707 L 121.999788 287.499764 L 105.999731 295.999504 L 89.999674 311.999561 L 74.499845 327.999618 L 60.499666 343.999674 L 50.500277 359.999731 L 44.499609 376.500016 L 60.499666 352.00022 L 76.499723 332.000407 L 91.999552 317.5 L 103.999854 313.500244 L 116.000155 293.500431 L 132.000212 280.999902 L 148.000269 289.499642 L 164.000326 301.499943 " transform="matrix(3.779528,0,0,3.779528,0,0)"/>
<path style="fill:none;stroke-width:2;stroke-linecap:butt;stroke-linejoin:miter;stroke:rgb(0%,0%,0%);stroke-opacity:1;stroke-miterlimit:4;" d="M 202.999495 306.500155 L 209.000163 321.999984 L 205.000407 338.000041 L 194.999984 353.49987 L 180.499577 369.499927 L 157.999658 385.499984 " transform="matrix(3.779528,0,0,3.779528,0,0)"/>
<path style="fill:none;stroke-width:2;stroke-linecap:butt;stroke-linejoin:miter;stroke:rgb(0%,0%,0%);stroke-opacity:1;stroke-miterlimit:4;" d="M 186.000016 370.999577 L 169.999959 384.999756 L 153.999902 395.000179 L 135.49974 402.500496 L 119.499683 404.500374 L 103.999854 402.999691 L 130.000334 386.999634 L 157.999658 370.999577 L 175.999593 354.99952 L 191.500456 339.000496 L 197.50009 323.000439 L 189.499544 359.499504 L 173.499487 375.499561 L 157.999658 386.000212 L 141.999601 396.499829 L 125.999544 402.500496 L 109.999487 402.500496 " transform="matrix(3.779528,0,0,3.779528,0,0)"/>
<path style="fill:none;stroke-width:2;stroke-linecap:butt;stroke-linejoin:miter;stroke:rgb(0%,0%,0%);stroke-opacity:1;stroke-miterlimit:4;" d="M 93.000008 399.500163 L 109.500293 398.000513 L 125.999544 389.49974 L 141.999601 381 L 158.499886 370.999577 L 174.499943 357.000431 L 190.5 343.000252 L 191.000228 329.500301 L 178.999927 345.500358 L 162.499642 361.000187 L 138.500073 377.000244 L 102.500203 393.499495 L 102.500203 382.999878 L 119.99991 370.500382 L 135.999967 361.000187 " transform="matrix(3.779528,0,0,3.779528,0,0)"/>
<path style="fill:none;stroke-width:2;stroke-linecap:butt;stroke-linejoin:miter;stroke:rgb(0%,0%,0%);stroke-opacity:1;stroke-miterlimit:4;" d="M 91.500358 318.000228 L 75.500301 334.000285 L 63.5 350.000342 L 53.000382 366.000399 L 40.499854 381.500228 L 41.999504 395.999601 L 47.499943 411.999658 L 45.500065 428.499943 L 51.000505 445.000228 L 68.500212 461.000285 L 102.500203 477.000342 " transform="matrix(3.779528,0,0,3.779528,0,0)"/>
<path style="fill:none;stroke-width:2;stroke-linecap:butt;stroke-linejoin:miter;stroke:rgb(0%,0%,0%);stroke-opacity:1;stroke-miterlimit:4;" d="M 23.500374 370.000155 L 7.500317 343.999674 " transform="matrix(3.779528,0,0,3.779528,0,0)"/>
<path style="fill:none;stroke-width:2;stroke-linecap:butt;stroke-linejoin:miter;stroke:rgb(0%,0%,0%);stroke-opacity:1;stroke-miterlimit:4;" d="M 9.500195 348.000464 L 17.499707 363.999487 L 35.499642 380.499772 L 29.500008 396.499829 L 50.000049 420.999626 L 53.999805 436.999683 L 67.999984 453.499967 L 98.00022 469.500024 " transform="matrix(3.779528,0,0,3.779528,0,0)"/>
<path style="fill:none;stroke-width:2;stroke-linecap:butt;stroke-linejoin:miter;stroke:rgb(0%,0%,0%);stroke-opacity:1;stroke-miterlimit:4;" d="M 12.000301 338.500269 L 28.000358 364.499715 L 44.499609 364.499715 L 60.499666 343.000252 L 76.499723 325.000317 L 108.499837 293.000203 " transform="matrix(3.779528,0,0,3.779528,0,0)"/>
<path style="fill:none;stroke-width:2;stroke-linecap:butt;stroke-linejoin:miter;stroke:rgb(0%,0%,0%);stroke-opacity:1;stroke-miterlimit:4;" d="M 137.999845 234.999609 L 121.999788 221.000464 " transform="matrix(3.779528,0,0,3.779528,0,0)"/>
<path style="fill:none;stroke-width:2;stroke-linecap:butt;stroke-linejoin:miter;stroke:rgb(0%,0%,0%);stroke-opacity:1;stroke-miterlimit:4;" d="M 141.500407 217.499902 L 141.500407 233.499959 L 162.000448 267.499951 L 178.000505 263.500195 L 193.999528 265.500073 L 196.000439 277.500374 L 203.999951 281.50013 L 220.000008 277.500374 " transform="matrix(3.779528,0,0,3.779528,0,0)"/>
<path style="fill:none;stroke-width:2;stroke-linecap:butt;stroke-linejoin:miter;stroke:rgb(0%,0%,0%);stroke-opacity:1;stroke-miterlimit:4;" d="M 223.999764 280.999902 L 225.500448 271.499707 L 229.500203 255.999878 L 217.499902 239.999821 L 191.500456 225.999642 L 175.500399 220.000008 " transform="matrix(3.779528,0,0,3.779528,0,0)"/>
<path style="fill:none;stroke-width:2;stroke-linecap:butt;stroke-linejoin:miter;stroke:rgb(0%,0%,0%);stroke-opacity:1;stroke-miterlimit:4;" d="M 180.999805 214.999797 L 196.999862 217.499902 L 212.999919 233.499959 L 229.500203 253.499772 " transform="matrix(3.779528,0,0,3.779528,0,0)"/>
<path style="fill:none;stroke-width:2;stroke-linecap:butt;stroke-linejoin:miter;stroke:rgb(0%,0%,0%);stroke-opacity:1;stroke-miterlimit:4;" d="M 241.000277 274.500041 L 257.000334 290.500098 " transform="matrix(3.779528,0,0,3.779528,0,0)"/>
<path style="fill:none;stroke-width:2;stroke-linecap:butt;stroke-linejoin:miter;stroke:rgb(0%,0%,0%);stroke-opacity:1;stroke-miterlimit:4;" d="M 209.999585 302.000171 L 216.000252 318.000228 L 219.49978 334.000285 L 216.999674 349.500114 L 210.499813 365.500171 L 198.499512 382.000456 L 178.000505 397.500285 L 148.000269 413.500342 L 159.999536 407.00048 L 175.999593 399.500163 L 191.99965 387.499862 L 207.999707 367.500049 " transform="matrix(3.779528,0,0,3.779528,0,0)"/>
<path style="fill:none;stroke-width:2;stroke-linecap:butt;stroke-linejoin:miter;stroke:rgb(0%,0%,0%);stroke-opacity:1;stroke-miterlimit:4;" d="M 162.499642 261.500317 L 155.000358 266.000301 L 139.000301 274.500041 L 123.000244 282.499552 L 107.500415 280.499674 L 75.500301 276.499919 L 59.000016 272.500163 L 42.999959 262.49974 L 26.999902 242.499927 " transform="matrix(3.779528,0,0,3.779528,0,0)"/>
<path style="fill:none;stroke-width:2;stroke-linecap:butt;stroke-linejoin:miter;stroke:rgb(0%,0%,0%);stroke-opacity:1;stroke-miterlimit:4;" d="M 17.000513 259.500439 L 1.000456 257.499528 " transform="matrix(3.779528,0,0,3.779528,0,0)"/>
<path style="fill:none;stroke-width:2;stroke-linecap:butt;stroke-linejoin:miter;stroke:rgb(0%,0%,0%);stroke-opacity:1;stroke-miterlimit:4;" d="M 1.49965 262.999967 L 17.499707 262.999967 L 33.499764 264.000423 L 49.499821 272.500163 L 65.499878 280.499674 L 81.499935 282.99978 L 98.00022 286.500342 " transform="matrix(3.779528,0,0,3.779528,0,0)"/>
<path style="fill:none;stroke-width:2;stroke-linecap:butt;stroke-linejoin:miter;stroke:rgb(0%,0%,0%);stroke-opacity:1;stroke-miterlimit:4;" d="M 181.500033 257.999756 L 164.999748 252.50035 L 166.999626 250.500472 L 157.000236 234.500415 L 154.50013 218.500358 " transform="matrix(3.779528,0,0,3.779528,0,0)"/>
<path style="fill:none;stroke-width:2;stroke-linecap:butt;stroke-linejoin:miter;stroke:rgb(0%,0%,0%);stroke-opacity:1;stroke-miterlimit:4;" d="M 150.500374 215.500024 L 144.499707 231.500081 L 153.499674 247.500138 L 150.000146 275.500496 L 153.999902 291.49952 " transform="matrix(3.779528,0,0,3.779528,0,0)"/>
<path style="fill:none;stroke-width:2;stroke-linecap:butt;stroke-linejoin:miter;stroke:rgb(0%,0%,0%);stroke-opacity:1;stroke-miterlimit:4;" d="M 179.500155 247.500138 L 173.499487 230.999854 L 163.500098 214.999797 " transform="matrix(3.779528,0,0,3.779528,0,0)"/>
<path style="fill:none;stroke-width:2;stroke-linecap:butt;stroke-linejoin:miter;stroke:rgb(0%,0%,0%);stroke-opacity:1;stroke-miterlimit:4;" d="M 159.500342 213.500146 L 161.50022 229.500203 L 169.999959 253.499772 L 184.000138 271.999935 L 195.500212 298.000415 L 183.49991 314.000472 L 168.000081 329.999495 L 146.000391 345.500358 L 124.499894 361.500415 L 98.500448 377.500472 L 80.000285 403.499919 L 89.999674 399.500163 L 105.999731 391.499618 L 121.999788 383.500106 L 137.999845 377.999666 L 144.000513 355.999976 L 159.500342 343.999674 L 175.500399 331.500179 L 191.500456 311.500366 L 207.000285 316.00035 L 221.000464 302.000171 L 236.999487 311.999561 L 253.499772 307.499577 L 269.499829 314.000472 " transform="matrix(3.779528,0,0,3.779528,0,0)"/>
<path style="fill:none;stroke-width:2;stroke-linecap:butt;stroke-linejoin:miter;stroke:rgb(0%,0%,0%);stroke-opacity:1;stroke-miterlimit:4;" d="M 259.000212 283.500008 L 251.499894 285.499886 L 237.499715 275.500496 L 221.499658 284.000236 L 216.000252 277.999569 L 218.00013 261.999512 L 205.999829 245.50026 L 214.000374 235.499837 L 206.500057 231.500081 L 192.499878 214.999797 " transform="matrix(3.779528,0,0,3.779528,0,0)"/>
<path style="fill:none;stroke-width:2;stroke-linecap:butt;stroke-linejoin:miter;stroke:rgb(0%,0%,0%);stroke-opacity:1;stroke-miterlimit:4;" d="M 179.500155 212.499691 L 177.500277 228.499748 L 193.500334 244.499805 L 203.499723 252.50035 L 199.499967 259.999634 L 200.000195 275.999691 L 201.499845 268.000179 L 213.500146 287.999992 L 231.500081 309.999683 " transform="matrix(3.779528,0,0,3.779528,0,0)"/>
<path style="fill:none;stroke-width:2;stroke-linecap:butt;stroke-linejoin:miter;stroke:rgb(0%,0%,0%);stroke-opacity:1;stroke-miterlimit:4;" d="M 216.000252 128.000456 L 232.000309 118.000033 L 221.999886 116.000155 L 214.499569 118.000033 L 216.50048 114.500505 L 226.49987 119.99991 L 240.500049 106.499959 L 252.999544 98.500448 " transform="matrix(3.779528,0,0,3.779528,0,0)"/>
<path style="fill:none;stroke-width:2;stroke-linecap:butt;stroke-linejoin:miter;stroke:rgb(0%,0%,0%);stroke-opacity:1;stroke-miterlimit:4;" d="M 283.500008 85.000496 L 259.500439 71.000317 L 247.500138 62.499544 L 231.500081 60.499666 " transform="matrix(3.779528,0,0,3.779528,0,0)"/>
<path style="fill:none;stroke-width:2;stroke-linecap:butt;stroke-linejoin:miter;stroke:rgb(0%,0%,0%);stroke-opacity:1;stroke-miterlimit:4;" d="M 246.000488 41.999504 L 261.999512 41.999504 " transform="matrix(3.779528,0,0,3.779528,0,0)"/>
<path style="fill:none;stroke-width:2;stroke-linecap:butt;stroke-linejoin:miter;stroke:rgb(0%,0%,0%);stroke-opacity:1;stroke-miterlimit:4;" d="M 289.99987 41.500309 L 313.500244 45.500065 L 327.500423 62.00035 L 347.500236 78.000407 " transform="matrix(3.779528,0,0,3.779528,0,0)"/>
<path style="fill:none;stroke-width:2;stroke-linecap:butt;stroke-linejoin:miter;stroke:rgb(0%,0%,0%);stroke-opacity:1;stroke-miterlimit:4;" d="M 338.500269 81.499935 L 322.500212 79.500057 " transform="matrix(3.779528,0,0,3.779528,0,0)"/>
<path style="fill:none;stroke-width:2;stroke-linecap:butt;stroke-linejoin:miter;stroke:rgb(0%,0%,0%);stroke-opacity:1;stroke-miterlimit:4;" d="M 338.000041 69.999862 L 329.999495 54.500033 L 314.000472 46.499487 " transform="matrix(3.779528,0,0,3.779528,0,0)"/>
<path style="fill:none;stroke-width:2;stroke-linecap:butt;stroke-linejoin:miter;stroke:rgb(0%,0%,0%);stroke-opacity:1;stroke-miterlimit:4;" d="M 309.500488 41.000081 L 325.499512 44.999837 L 329.999495 48.999593 L 338.000041 63.5 " transform="matrix(3.779528,0,0,3.779528,0,0)"/>
<path style="fill:none;stroke-width:2;stroke-linecap:butt;stroke-linejoin:miter;stroke:rgb(0%,0%,0%);stroke-opacity:1;stroke-miterlimit:4;" d="M 331.500179 91.500358 L 325.499512 87.499569 L 301.499943 71.499512 L 301.499943 65.499878 " transform="matrix(3.779528,0,0,3.779528,0,0)"/>
<path style="fill:none;stroke-width:2;stroke-linecap:butt;stroke-linejoin:miter;stroke:rgb(0%,0%,0%);stroke-opacity:1;stroke-miterlimit:4;" d="M 338.000041 112.000399 L 339.999919 119.99991 L 330.499723 123.999666 L 336.500391 121.999788 L 340.500146 132.000212 " transform="matrix(3.779528,0,0,3.779528,0,0)"/>
<path style="fill:none;stroke-width:2;stroke-linecap:butt;stroke-linejoin:miter;stroke:rgb(0%,0%,0%);stroke-opacity:1;stroke-miterlimit:4;" d="M 332.999829 120.500138 L 343.000252 112.499593 " transform="matrix(3.779528,0,0,3.779528,0,0)"/>
<path style="fill:none;stroke-width:2;stroke-linecap:butt;stroke-linejoin:miter;stroke:rgb(0%,0%,0%);stroke-opacity:1;stroke-miterlimit:4;" d="M 250.500472 114.000277 L 248.000366 106.499959 L 248.000366 107.000187 L 243.999577 100.99952 L 229.500203 109.000065 L 227.500326 93.000008 L 211.500269 72.499967 L 209.500391 76.999951 " transform="matrix(3.779528,0,0,3.779528,0,0)"/>
<path style="fill:none;stroke-width:2;stroke-linecap:butt;stroke-linejoin:miter;stroke:rgb(0%,0%,0%);stroke-opacity:1;stroke-miterlimit:4;" d="M 184.999561 94.999886 L 186.500244 110.999943 L 194.999984 103.000431 L 186.500244 109.000065 L 196.499634 108.499837 " transform="matrix(3.779528,0,0,3.779528,0,0)"/>
<path style="fill:none;stroke-width:2;stroke-linecap:butt;stroke-linejoin:miter;stroke:rgb(0%,0%,0%);stroke-opacity:1;stroke-miterlimit:4;" d="M 148.500496 93.500236 L 132.500439 101.499748 " transform="matrix(3.779528,0,0,3.779528,0,0)"/>
<path style="fill:none;stroke-width:2;stroke-linecap:butt;stroke-linejoin:miter;stroke:rgb(0%,0%,0%);stroke-opacity:1;stroke-miterlimit:4;" d="M 132.000212 82.500391 L 148.000269 71.000317 L 163.500098 69.000439 L 179.500155 55.00026 L 182.00026 46.499487 L 198.000317 41.999504 L 213.500146 39.999626 L 228.999976 41.999504 L 236.999487 33.999992 L 253.499772 33.999992 L 269.499829 32.000114 L 285.499886 32.000114 L 301.499943 32.500342 L 318.000228 34.50022 L 334.000285 36.500098 L 350.499536 38.499976 L 366.499593 40.499854 L 382.49965 41.999504 L 398.499707 46.000293 L 413.999536 51.499699 L 429.500399 57.500366 L 445.99965 63.5 L 461.999707 73.999618 L 477.999764 84.500269 L 493.999821 100.500326 L 509.999878 118.000033 " transform="matrix(3.779528,0,0,3.779528,0,0)"/>
<path style="fill:none;stroke-width:2;stroke-linecap:butt;stroke-linejoin:miter;stroke:rgb(0%,0%,0%);stroke-opacity:1;stroke-miterlimit:4;" d="M 503.500016 101.499748 L 486.999731 85.499691 L 471.499902 73.999618 L 455.499845 64.000228 L 439.499788 55.999683 L 407.499674 44.000415 L 391.499618 39.999626 L 375.499561 35.99987 L 359.499504 34.50022 L 343.50048 32.500342 L 327.500423 30.500464 L 311.500366 28.000358 L 295.500309 28.000358 L 279.500252 28.499552 L 264.000423 28.000358 L 248.000366 30.000236 L 232.499504 29.500008 L 216.50048 33.499764 L 200.500423 35.000448 L 184.000138 39.500431 L 168.000081 50.000049 L 152.000024 53.999805 L 135.999967 62.499544 L 119.99991 70.50009 L 103.999854 80.000285 L 87.999797 91.999552 L 71.99974 105.999731 L 55.999683 119.499683 L 39.999626 144.000513 L 28.000358 134.00009 L 30.500464 118.50026 L 37.000326 103.000431 L 41.000081 96.999764 L 25.000024 110.999943 " transform="matrix(3.779528,0,0,3.779528,0,0)"/>
<path style="fill:none;stroke-width:2;stroke-linecap:butt;stroke-linejoin:miter;stroke:rgb(0%,0%,0%);stroke-opacity:1;stroke-miterlimit:4;" d="M 35.99987 109.000065 L 48.000171 105.000309 L 52.500155 105.000309 L 40.499854 114.500505 L 35.000448 130.499528 L 37.000326 141.999601 " transform="matrix(3.779528,0,0,3.779528,0,0)"/>
<path style="fill:none;stroke-width:2;stroke-linecap:butt;stroke-linejoin:miter;stroke:rgb(0%,0%,0%);stroke-opacity:1;stroke-miterlimit:4;" d="M 21.999691 157.000236 L 12.499495 141.500407 L 24.499797 125.999544 L 14.500407 132.000212 " transform="matrix(3.779528,0,0,3.779528,0,0)"/>
<path style="fill:none;stroke-width:2;stroke-linecap:butt;stroke-linejoin:miter;stroke:rgb(0%,0%,0%);stroke-opacity:1;stroke-miterlimit:4;" d="M 1.49965 134.00009 L 17.499707 150.000146 " transform="matrix(3.779528,0,0,3.779528,0,0)"/>
<path style="fill:none;stroke-width:2;stroke-linecap:butt;stroke-linejoin:miter;stroke:rgb(0%,0%,0%);stroke-opacity:1;stroke-miterlimit:4;" d="M 18.500163 160.499764 L 2.500106 138.500073 " transform="matrix(3.779528,0,0,3.779528,0,0)"/>
<path style="fill:none;stroke-width:2;stroke-linecap:butt;stroke-linejoin:miter;stroke:rgb(0%,0%,0%);stroke-opacity:1;stroke-miterlimit:4;" d="M 1.999878 159.500342 L 17.999935 171.499609 " transform="matrix(3.779528,0,0,3.779528,0,0)"/>
<path style="fill:none;stroke-width:2;stroke-linecap:butt;stroke-linejoin:miter;stroke:rgb(0%,0%,0%);stroke-opacity:1;stroke-miterlimit:4;" d="M 3.999756 159.999536 L 1.49965 164.000326 " transform="matrix(3.779528,0,0,3.779528,0,0)"/>
<path style="fill:none;stroke-width:2;stroke-linecap:butt;stroke-linejoin:miter;stroke:rgb(0%,0%,0%);stroke-opacity:1;stroke-miterlimit:4;" d="M 12.999723 153.499674 L 2.500106 137.499618 L 18.500163 119.499683 L 12.499495 119.499683 L 6.499862 109.500293 L 26.999902 101.499748 L 48.999593 93.500236 L 32.999536 95.500114 L 17.000513 109.999487 L 1.49965 105.999731 " transform="matrix(3.779528,0,0,3.779528,0,0)"/>
<path style="fill:none;stroke-width:2;stroke-linecap:butt;stroke-linejoin:miter;stroke:rgb(0%,0%,0%);stroke-opacity:1;stroke-miterlimit:4;" d="M 59.000016 112.000399 L 75.000073 95.500114 L 107.000187 71.499512 L 123.000244 63.5 L 138.500073 55.999683 L 154.50013 50.500277 L 169.999959 44.499609 L 165.499976 66.500334 L 177.000049 72.499967 L 162.99987 86.500146 L 182.500488 70.50009 L 198.499512 51.999927 L 184.999561 67.499756 L 183.49991 61.500122 L 200.000195 49.499821 L 171.999837 67.499756 L 141.999601 79.500057 L 125.999544 77.500179 L 125.999544 93.500236 L 116.500382 109.500293 L 116.500382 133.499862 L 127 127 L 105.000309 132.999634 L 108.499837 137.000423 L 106.499959 153.00048 L 109.999487 145.500163 L 118.000033 137.499618 L 127.500228 135.999967 " transform="matrix(3.779528,0,0,3.779528,0,0)"/>
<path style="fill:none;stroke-width:2;stroke-linecap:butt;stroke-linejoin:miter;stroke:rgb(0%,0%,0%);stroke-opacity:1;stroke-miterlimit:4;" d="M 152.000024 64.99965 L 132.000212 81.499935 L 148.000269 93.500236 L 128.000456 105.499504 L 125.999544 93.500236 L 141.999601 91.500358 L 141.999601 79.500057 L 166.500431 71.499512 " transform="matrix(3.779528,0,0,3.779528,0,0)"/>
<path style="fill:none;stroke-width:2;stroke-linecap:butt;stroke-linejoin:miter;stroke:rgb(0%,0%,0%);stroke-opacity:1;stroke-miterlimit:4;" d="M 143.000057 57.999561 L 111.500171 73.999618 L 112.999821 83.499813 L 95.500114 85.499691 L 93.500236 99.49987 L 69.999862 107.500415 L 51.999927 123.500472 L 42.499731 139.999723 L 30.500464 155.99978 L 28.99978 172.500065 L 28.99978 186.500244 L 26.999902 202.500301 L 25.000024 228.499748 L 26.999902 243.999577 L 23.000146 246.000488 " transform="matrix(3.779528,0,0,3.779528,0,0)"/>
<path style="fill:none;stroke-width:2;stroke-linecap:butt;stroke-linejoin:miter;stroke:rgb(0%,0%,0%);stroke-opacity:1;stroke-miterlimit:4;" d="M 17.499707 223.999764 L 1.49965 223.999764 " transform="matrix(3.779528,0,0,3.779528,0,0)"/>
<path style="fill:none;stroke-width:2;stroke-linecap:butt;stroke-linejoin:miter;stroke:rgb(0%,0%,0%);stroke-opacity:1;stroke-miterlimit:4;" d="M 1.999878 216.999674 L 17.999935 216.999674 " transform="matrix(3.779528,0,0,3.779528,0,0)"/>
<path style="fill:none;stroke-width:2;stroke-linecap:butt;stroke-linejoin:miter;stroke:rgb(0%,0%,0%);stroke-opacity:1;stroke-miterlimit:4;" d="M 37.49952 196.499634 L 61.500122 212.499691 " transform="matrix(3.779528,0,0,3.779528,0,0)"/>
<path style="fill:none;stroke-width:2;stroke-linecap:butt;stroke-linejoin:miter;stroke:rgb(0%,0%,0%);stroke-opacity:1;stroke-miterlimit:4;" d="M 3.000334 320.500334 L 7.00009 326.499967 L 8.49974 343.000252 L 6.499862 359.000309 " transform="matrix(3.779528,0,0,3.779528,0,0)"/>
<path style="fill:none;stroke-width:2;stroke-linecap:butt;stroke-linejoin:miter;stroke:rgb(0%,0%,0%);stroke-opacity:1;stroke-miterlimit:4;" d="M 25.000024 363.500293 L 14.999601 348.000464 L 8.999967 332.000407 " transform="matrix(3.779528,0,0,3.779528,0,0)"/>
<path style="fill:none;stroke-width:2;stroke-linecap:butt;stroke-linejoin:miter;stroke:rgb(0%,0%,0%);stroke-opacity:1;stroke-miterlimit:4;" d="M 41.500309 270.500285 L 23.500374 252.50035 L 17.499707 236.999487 L 30.000236 218.999552 L 32.000114 202.500301 L 32.000114 169.999959 L 37.999748 153.999902 L 37.999748 135.49974 L 48.000171 119.499683 L 57.999561 112.999821 L 71.499512 97.499992 L 91.500358 81.499935 L 114.999699 65.499878 L 148.999691 49.499821 " transform="matrix(3.779528,0,0,3.779528,0,0)"/>
<path style="fill:none;stroke-width:2;stroke-linecap:butt;stroke-linejoin:miter;stroke:rgb(0%,0%,0%);stroke-opacity:1;stroke-miterlimit:4;" d="M 386.500439 202.500301 L 377.000244 218.500358 L 382.999878 220.500236 L 398.999935 237.999943 L 413.000114 254 L 402.999691 269.499829 L 416.99987 255.49965 L 432.999927 246.99991 L 449.500212 250.999666 L 463.500391 239.000399 L 479.500448 241.500505 L 495.500505 243.500382 " transform="matrix(3.779528,0,0,3.779528,0,0)"/>
</g>
</svg>
