<?xml version="1.0" encoding="UTF-8"?>
<svg xmlns="http://www.w3.org/2000/svg" xmlns:xlink="http://www.w3.org/1999/xlink" width="1935.11811" height="1935.11811" viewBox="0 0 1935.11811 1935.11811" version="1.1">
<g id="surface1">
<path style="fill:none;stroke-width:2;stroke-linecap:butt;stroke-linejoin:miter;stroke:rgb(0%,0%,0%);stroke-opacity:1;stroke-miterlimit:4;" d="M 307.499577 100.500326 L 321.499756 114.500505 L 301.499943 130.499528 L 297.500187 130.499528 " transform="matrix(3.779528,0,0,3.779528,0,0)"/>
<path style="fill:none;stroke-width:2;stroke-linecap:butt;stroke-linejoin:miter;stroke:rgb(0%,0%,0%);stroke-opacity:1;stroke-miterlimit:4;" d="M 300.000293 109.999487 L 316.00035 114.000277 L 339.999919 118.000033 L 352.00022 130.000334 L 368.000277 130.000334 L 383.500106 137.999845 " transform="matrix(3.779528,0,0,3.779528,0,0)"/>
<path style="fill:none;stroke-width:2;stroke-linecap:butt;stroke-linejoin:miter;stroke:rgb(0%,0%,0%);stroke-opacity:1;stroke-miterlimit:4;" d="M 369.499927 135.49974 L 354.000098 133.499862 " transform="matrix(3.779528,0,0,3.779528,0,0)"/>
<path style="fill:none;stroke-width:2;stroke-linecap:butt;stroke-linejoin:miter;stroke:rgb(0%,0%,0%);stroke-opacity:1;stroke-miterlimit:4;" d="M 333.500057 134.500317 L 361.500415 128.49965 L 391.499618 144.999935 " transform="matrix(3.779528,0,0,3.779528,0,0)"/>
<path style="fill:none;stroke-width:2;stroke-linecap:butt;stroke-linejoin:miter;stroke:rgb(0%,0%,0%);stroke-opacity:1;stroke-miterlimit:4;" d="M 427.499487 159.000114 L 443.499544 175.000171 " transform="matrix(3.779528,0,0,3.779528,0,0)"/>
<path style="fill:none;stroke-width:2;stroke-linecap:butt;stroke-linejoin:miter;stroke:rgb(0%,0%,0%);stroke-opacity:1;stroke-miterlimit:4;" d="M 443.499544 178.000505 L 432.000505 162.499642 " transform="matrix(3.779528,0,0,3.779528,0,0)"/>
<path style="fill:none;stroke-width:2;stroke-linecap:butt;stroke-linejoin:miter;stroke:rgb(0%,0%,0%);stroke-opacity:1;stroke-miterlimit:4;" d="M 360.499959 229.500203 L 370.000155 245.50026 L 370.000155 261.500317 L 372.000033 277.000146 L 368.000277 293.000203 " transform="matrix(3.779528,0,0,3.779528,0,0)"/>
<path style="fill:none;stroke-width:2;stroke-linecap:butt;stroke-linejoin:miter;stroke:rgb(0%,0%,0%);stroke-opacity:1;stroke-miterlimit:4;" d="M 358.500081 295.999504 L 342.500024 285.499886 " transform="matrix(3.779528,0,0,3.779528,0,0)"/>
<path style="fill:none;stroke-width:2;stroke-linecap:butt;stroke-linejoin:miter;stroke:rgb(0%,0%,0%);stroke-opacity:1;stroke-miterlimit:4;" d="M 341.499569 261.500317 L 357.499626 247.500138 " transform="matrix(3.779528,0,0,3.779528,0,0)"/>
<path style="fill:none;stroke-width:2;stroke-linecap:butt;stroke-linejoin:miter;stroke:rgb(0%,0%,0%);stroke-opacity:1;stroke-miterlimit:4;" d="M 355.999976 242.499927 L 354.000098 230.000431 L 338.000041 245.50026 " transform="matrix(3.779528,0,0,3.779528,0,0)"/>
<path style="fill:none;stroke-width:2;stroke-linecap:butt;stroke-linejoin:miter;stroke:rgb(0%,0%,0%);stroke-opacity:1;stroke-miterlimit:4;" d="M 334.000285 241.999699 L 350.000342 223.999764 L 366.499593 231.500081 L 366.499593 254 L 366.999821 268.000179 L 366.999821 284.000236 " transform="matrix(3.779528,0,0,3.779528,0,0)"/>
<path style="fill:none;stroke-width:2;stroke-linecap:butt;stroke-linejoin:miter;stroke:rgb(0%,0%,0%);stroke-opacity:1;stroke-miterlimit:4;" d="M 354.500326 268.000179 L 358.500081 285.499886 L 350.499536 287.499764 L 359.999731 267.499951 L 354.000098 255.000456 L 363.500293 239.499593 L 335.499935 225.999642 L 319.499878 221.999886 L 303.499821 209.999585 L 287.499764 196.000439 " transform="matrix(3.779528,0,0,3.779528,0,0)"/>
<path style="fill:none;stroke-width:2;stroke-linecap:butt;stroke-linejoin:miter;stroke:rgb(0%,0%,0%);stroke-opacity:1;stroke-miterlimit:4;" d="M 289.000448 184.999561 L 305.000505 177.500277 L 320.999528 185.499788 L 337.499813 207.500513 " transform="matrix(3.779528,0,0,3.779528,0,0)"/>
<path style="fill:none;stroke-width:2;stroke-linecap:butt;stroke-linejoin:miter;stroke:rgb(0%,0%,0%);stroke-opacity:1;stroke-miterlimit:4;" d="M 323.000439 196.000439 L 307.000382 187.999894 " transform="matrix(3.779528,0,0,3.779528,0,0)"/>
<path style="fill:none;stroke-width:2;stroke-linecap:butt;stroke-linejoin:miter;stroke:rgb(0%,0%,0%);stroke-opacity:1;stroke-miterlimit:4;" d="M 313.000016 191.99965 L 313.000016 203.999951 L 309.00026 194.499756 L 307.000382 178.499699 " transform="matrix(3.779528,0,0,3.779528,0,0)"/>
<path style="fill:none;stroke-width:2;stroke-linecap:butt;stroke-linejoin:miter;stroke:rgb(0%,0%,0%);stroke-opacity:1;stroke-miterlimit:4;" d="M 308.500033 175.000171 L 332.499601 190.5 L 342.500024 206.500057 L 326.499967 206.500057 " transform="matrix(3.779528,0,0,3.779528,0,0)"/>
<path style="fill:none;stroke-width:2;stroke-linecap:butt;stroke-linejoin:miter;stroke:rgb(0%,0%,0%);stroke-opacity:1;stroke-miterlimit:4;" d="M 316.00035 218.999552 L 293.500431 202.999495 L 285.499886 187.499666 L 291.49952 171.499609 L 270.000057 159.500342 L 254 153.499674 L 237.999943 159.999536 L 236.000065 170.500187 " transform="matrix(3.779528,0,0,3.779528,0,0)"/>
<path style="fill:none;stroke-width:2;stroke-linecap:butt;stroke-linejoin:miter;stroke:rgb(0%,0%,0%);stroke-opacity:1;stroke-miterlimit:4;" d="M 229.500203 169.999959 L 245.50026 175.500399 L 261.500317 179.500155 L 269.499829 161.50022 L 267.499951 177.500277 " transform="matrix(3.779528,0,0,3.779528,0,0)"/>
<path style="fill:none;stroke-width:2;stroke-linecap:butt;stroke-linejoin:miter;stroke:rgb(0%,0%,0%);stroke-opacity:1;stroke-miterlimit:4;" d="M 271.999935 155.499552 L 255.49965 150.000146 L 239.000399 149.499919 " transform="matrix(3.779528,0,0,3.779528,0,0)"/>
<path style="fill:none;stroke-width:2;stroke-linecap:butt;stroke-linejoin:miter;stroke:rgb(0%,0%,0%);stroke-opacity:1;stroke-miterlimit:4;" d="M 227.99952 165.499976 L 236.000065 161.50022 L 248.000366 177.000049 L 254 164.999748 L 264.499618 163.500098 L 264.499618 151.499797 L 282.499552 166.999626 L 268.500407 182.999683 " transform="matrix(3.779528,0,0,3.779528,0,0)"/>
<path style="fill:none;stroke-width:2;stroke-linecap:butt;stroke-linejoin:miter;stroke:rgb(0%,0%,0%);stroke-opacity:1;stroke-miterlimit:4;" d="M 261.500317 206.500057 L 241.500505 222.500114 L 231.500081 238.500171 L 225.500448 254.500228 L 223.499536 270.500285 L 227.500326 286.000114 L 234.000187 302.000171 L 252.000122 318.000228 " transform="matrix(3.779528,0,0,3.779528,0,0)"/>
<path style="fill:none;stroke-width:2;stroke-linecap:butt;stroke-linejoin:miter;stroke:rgb(0%,0%,0%);stroke-opacity:1;stroke-miterlimit:4;" d="M 216.50048 327.000195 L 212.499691 323.000439 L 196.999862 314.499666 L 180.999805 314.499666 " transform="matrix(3.779528,0,0,3.779528,0,0)"/>
<path style="fill:none;stroke-width:2;stroke-linecap:butt;stroke-linejoin:miter;stroke:rgb(0%,0%,0%);stroke-opacity:1;stroke-miterlimit:4;" d="M 173.999715 314.999894 L 189.999772 309.00026 L 205.999829 315.500122 L 221.499658 323.499634 " transform="matrix(3.779528,0,0,3.779528,0,0)"/>
<path style="fill:none;stroke-width:2;stroke-linecap:butt;stroke-linejoin:miter;stroke:rgb(0%,0%,0%);stroke-opacity:1;stroke-miterlimit:4;" d="M 207.000285 328.499845 L 191.500456 318.500456 " transform="matrix(3.779528,0,0,3.779528,0,0)"/>
<path style="fill:none;stroke-width:2;stroke-linecap:butt;stroke-linejoin:miter;stroke:rgb(0%,0%,0%);stroke-opacity:1;stroke-miterlimit:4;" d="M 188.500122 321.999984 L 194.499756 316.00035 L 210.499813 331.500179 " transform="matrix(3.779528,0,0,3.779528,0,0)"/>
<path style="fill:none;stroke-width:2;stroke-linecap:butt;stroke-linejoin:miter;stroke:rgb(0%,0%,0%);stroke-opacity:1;stroke-miterlimit:4;" d="M 216.50048 340.500146 L 200.000195 336.500391 L 184.000138 328.499845 " transform="matrix(3.779528,0,0,3.779528,0,0)"/>
<path style="fill:none;stroke-width:2;stroke-linecap:butt;stroke-linejoin:miter;stroke:rgb(0%,0%,0%);stroke-opacity:1;stroke-miterlimit:4;" d="M 175.500399 329.000073 L 191.500456 339.000496 L 207.500513 345.999552 L 223.499536 342.500024 " transform="matrix(3.779528,0,0,3.779528,0,0)"/>
<path style="fill:none;stroke-width:2;stroke-linecap:butt;stroke-linejoin:miter;stroke:rgb(0%,0%,0%);stroke-opacity:1;stroke-miterlimit:4;" d="M 234.000187 353.49987 L 226.49987 369.499927 L 234.500415 385.499984 L 242.499927 379.999544 L 258.499984 382.000456 L 274.500041 382.000456 L 290.500098 377.999666 " transform="matrix(3.779528,0,0,3.779528,0,0)"/>
<path style="fill:none;stroke-width:2;stroke-linecap:butt;stroke-linejoin:miter;stroke:rgb(0%,0%,0%);stroke-opacity:1;stroke-miterlimit:4;" d="M 294.499854 359.499504 L 278.499797 367.500049 L 288.50022 372.000033 L 295.999504 372.50026 L 295.999504 357.000431 L 304.000049 332.999829 L 299.500065 329.000073 L 313.500244 313.000016 L 327.500423 310.49991 L 311.500366 320.999528 " transform="matrix(3.779528,0,0,3.779528,0,0)"/>
<path style="fill:none;stroke-width:2;stroke-linecap:butt;stroke-linejoin:miter;stroke:rgb(0%,0%,0%);stroke-opacity:1;stroke-miterlimit:4;" d="M 298.000415 329.500301 L 313.500244 311.500366 L 329.500301 302.999593 L 345.500358 314.999894 L 345.00013 318.99965 L 335.499935 327.000195 L 321.999984 343.000252 L 323.999862 325.000317 L 328.499845 314.999894 L 324.50009 310.49991 L 316.00035 326.499967 L 314.499666 345.00013 L 330.499723 339.499691 " transform="matrix(3.779528,0,0,3.779528,0,0)"/>
<path style="fill:none;stroke-width:2;stroke-linecap:butt;stroke-linejoin:miter;stroke:rgb(0%,0%,0%);stroke-opacity:1;stroke-miterlimit:4;" d="M 305.499699 360.499959 L 289.499642 354.500326 L 273.499585 362.499837 L 257.000334 364.499715 L 241.000277 356.500203 L 225.00022 366.499593 " transform="matrix(3.779528,0,0,3.779528,0,0)"/>
<path style="fill:none;stroke-width:2;stroke-linecap:butt;stroke-linejoin:miter;stroke:rgb(0%,0%,0%);stroke-opacity:1;stroke-miterlimit:4;" d="M 228.499748 366.999821 L 244.499805 364.499715 L 261.00009 372.50026 L 277.500374 374.500138 " transform="matrix(3.779528,0,0,3.779528,0,0)"/>
<path style="fill:none;stroke-width:2;stroke-linecap:butt;stroke-linejoin:miter;stroke:rgb(0%,0%,0%);stroke-opacity:1;stroke-miterlimit:4;" d="M 241.999699 368.500505 L 241.999699 370.500382 L 230.000431 372.50026 L 236.000065 372.000033 L 237.499715 383.500106 " transform="matrix(3.779528,0,0,3.779528,0,0)"/>
<path style="fill:none;stroke-width:2;stroke-linecap:butt;stroke-linejoin:miter;stroke:rgb(0%,0%,0%);stroke-opacity:1;stroke-miterlimit:4;" d="M 198.000317 337.499813 L 173.999715 321.499756 L 187.999894 315.500122 L 171.999837 325.499512 " transform="matrix(3.779528,0,0,3.779528,0,0)"/>
<path style="fill:none;stroke-width:2;stroke-linecap:butt;stroke-linejoin:miter;stroke:rgb(0%,0%,0%);stroke-opacity:1;stroke-miterlimit:4;" d="M 190.5 343.000252 L 168.500309 327.000195 L 171.000415 311.000138 L 171.000415 280.499674 L 173.000293 264.000423 L 173.499487 247.500138 L 163.500098 230.999854 L 159.500342 228.499748 L 143.500285 248.000366 " transform="matrix(3.779528,0,0,3.779528,0,0)"/>
<path style="fill:none;stroke-width:2;stroke-linecap:butt;stroke-linejoin:miter;stroke:rgb(0%,0%,0%);stroke-opacity:1;stroke-miterlimit:4;" d="M 153.499674 237.999943 L 168.999504 243.999577 L 155.000358 251.499894 L 157.000236 267.499951 L 160.999992 267.499951 L 164.49952 285.499886 " transform="matrix(3.779528,0,0,3.779528,0,0)"/>
<path style="fill:none;stroke-width:2;stroke-linecap:butt;stroke-linejoin:miter;stroke:rgb(0%,0%,0%);stroke-opacity:1;stroke-miterlimit:4;" d="M 199.499967 308.500033 L 225.500448 324.50009 L 223.499536 332.499601 L 221.499658 344.499902 " transform="matrix(3.779528,0,0,3.779528,0,0)"/>
<path style="fill:none;stroke-width:2;stroke-linecap:butt;stroke-linejoin:miter;stroke:rgb(0%,0%,0%);stroke-opacity:1;stroke-miterlimit:4;" d="M 232.999731 282.000358 L 248.999788 307.499577 L 264.999845 315.500122 L 280.999902 309.500488 L 296.999959 289.499642 " transform="matrix(3.779528,0,0,3.779528,0,0)"/>
<path style="fill:none;stroke-width:2;stroke-linecap:butt;stroke-linejoin:miter;stroke:rgb(0%,0%,0%);stroke-opacity:1;stroke-miterlimit:4;" d="M 272.500163 281.50013 L 256.500106 275.500496 " transform="matrix(3.779528,0,0,3.779528,0,0)"/>
<path style="fill:none;stroke-width:2;stroke-linecap:butt;stroke-linejoin:miter;stroke:rgb(0%,0%,0%);stroke-opacity:1;stroke-miterlimit:4;" d="M 271.999935 282.499552 L 277.500374 266.999723 L 277.500374 250.999666 L 271.999935 243.000155 L 255.999878 256.500106 " transform="matrix(3.779528,0,0,3.779528,0,0)"/>
<path style="fill:none;stroke-width:2;stroke-linecap:butt;stroke-linejoin:miter;stroke:rgb(0%,0%,0%);stroke-opacity:1;stroke-miterlimit:4;" d="M 250.000244 259.000212 L 266.000301 236.999487 L 282.499552 246.99991 L 284.000236 252.999544 L 284.000236 268.999601 L 277.500374 284.500464 " transform="matrix(3.779528,0,0,3.779528,0,0)"/>
<path style="fill:none;stroke-width:2;stroke-linecap:butt;stroke-linejoin:miter;stroke:rgb(0%,0%,0%);stroke-opacity:1;stroke-miterlimit:4;" d="M 307.000382 280.00048 L 291.000326 310.49991 L 274.500041 320.500334 L 258.499984 320.999528 L 241.999699 311.000138 L 225.999642 280.999902 " transform="matrix(3.779528,0,0,3.779528,0,0)"/>
<path style="fill:none;stroke-width:2;stroke-linecap:butt;stroke-linejoin:miter;stroke:rgb(0%,0%,0%);stroke-opacity:1;stroke-miterlimit:4;" d="M 226.49987 252.999544 L 242.499927 223.000342 L 258.499984 209.000163 L 274.500041 207.500513 L 291.000326 218.999552 L 307.000382 241.000277 " transform="matrix(3.779528,0,0,3.779528,0,0)"/>
<path style="fill:none;stroke-width:2;stroke-linecap:butt;stroke-linejoin:miter;stroke:rgb(0%,0%,0%);stroke-opacity:1;stroke-miterlimit:4;" d="M 295.999504 230.999854 L 280.499674 215.500024 L 264.499618 211.500269 L 248.499561 223.999764 L 232.499504 250.500472 " transform="matrix(3.779528,0,0,3.779528,0,0)"/>
<path style="fill:none;stroke-width:2;stroke-linecap:butt;stroke-linejoin:miter;stroke:rgb(0%,0%,0%);stroke-opacity:1;stroke-miterlimit:4;" d="M 252.50035 282.000358 L 250.500472 266.000301 L 254.500228 250.500472 L 268.999601 234.500415 " transform="matrix(3.779528,0,0,3.779528,0,0)"/>
<path style="fill:none;stroke-width:2;stroke-linecap:butt;stroke-linejoin:miter;stroke:rgb(0%,0%,0%);stroke-opacity:1;stroke-miterlimit:4;" d="M 270.000057 236.999487 L 257.999756 252.999544 L 253.499772 268.999601 L 257.499528 284.999658 L 259.500439 293.000203 L 275.500496 286.999536 " transform="matrix(3.779528,0,0,3.779528,0,0)"/>
<path style="fill:none;stroke-width:2;stroke-linecap:butt;stroke-linejoin:miter;stroke:rgb(0%,0%,0%);stroke-opacity:1;stroke-miterlimit:4;" d="M 216.50048 315.500122 L 200.500423 307.999805 L 184.500366 304.000049 L 171.000415 298.499609 L 154.50013 300.499487 L 148.500496 294.499854 L 144.499707 278.499797 L 142.499829 262.49974 L 146.499585 246.499683 L 156.500008 230.499626 " transform="matrix(3.779528,0,0,3.779528,0,0)"/>
<path style="fill:none;stroke-width:2;stroke-linecap:butt;stroke-linejoin:miter;stroke:rgb(0%,0%,0%);stroke-opacity:1;stroke-miterlimit:4;" d="M 156.500008 236.500293 L 150.500374 252.50035 L 150.500374 284.500464 L 152.500252 288.50022 L 168.500309 290.500098 " transform="matrix(3.779528,0,0,3.779528,0,0)"/>
<path style="fill:none;stroke-width:2;stroke-linecap:butt;stroke-linejoin:miter;stroke:rgb(0%,0%,0%);stroke-opacity:1;stroke-miterlimit:4;" d="M 132.500439 345.500358 L 158.499886 361.500415 L 161.50022 377.500472 L 171.999837 385.499984 L 187.999894 389.49974 L 203.999951 393.999723 L 220.000008 393.999723 L 236.500293 393.499495 L 252.50035 393.499495 L 268.000179 391.000423 L 295.999504 397.000057 L 311.999561 395.000179 L 327.999618 393.499495 L 343.50048 391.499618 L 359.499504 388.00009 L 363.000065 379.999544 L 379.000122 372.000033 " transform="matrix(3.779528,0,0,3.779528,0,0)"/>
<path style="fill:none;stroke-width:2;stroke-linecap:butt;stroke-linejoin:miter;stroke:rgb(0%,0%,0%);stroke-opacity:1;stroke-miterlimit:4;" d="M 385.499984 381.500228 L 401.500041 373.499683 L 417.500098 365.500171 L 435.500033 355.499748 L 452.000317 325.499512 " transform="matrix(3.779528,0,0,3.779528,0,0)"/>
<path style="fill:none;stroke-width:2;stroke-linecap:butt;stroke-linejoin:miter;stroke:rgb(0%,0%,0%);stroke-opacity:1;stroke-miterlimit:4;" d="M 424.500187 355.999976 L 441.000472 339.999919 L 448.999984 323.999862 L 452.99974 291.999748 L 452.99974 275.999691 L 454.999618 259.999634 L 454.999618 227.99952 L 456.999495 212.000496 L 456.999495 196.000439 L 452.99974 180.000382 L 440.500244 164.000326 L 432.499699 151.499797 L 398.499707 135.999967 L 373.99991 119.99991 L 323.499634 105.999731 L 307.499577 100.500326 L 291.49952 102.500203 L 275.500496 100.500326 L 259.500439 102.500203 " transform="matrix(3.779528,0,0,3.779528,0,0)"/>
<path style="fill:none;stroke-width:2;stroke-linecap:butt;stroke-linejoin:miter;stroke:rgb(0%,0%,0%);stroke-opacity:1;stroke-miterlimit:4;" d="M 259.500439 109.000065 L 241.500505 98.999642 L 207.500513 114.999699 L 201.499845 137.499618 L 212.000496 137.999845 L 227.99952 132.500439 L 243.999577 130.499528 L 261.999512 110.499715 L 266.000301 126.499772 L 284.500464 110.499715 L 295.000081 118.50026 L 311.000138 120.500138 L 320.500334 132.500439 L 330.499723 134.500317 L 334.500513 114.500505 L 350.499536 116.500382 L 366.499593 121.999788 L 382.000456 130.000334 L 398.000513 139.999723 L 413.999536 148.000269 L 430.499821 155.99978 L 446.499878 169.999959 L 454.500423 173.499487 L 459.999829 189.00035 L 461.999707 205.000407 L 459.499601 221.000464 L 459.499601 236.500293 L 456.999495 252.999544 L 456.999495 268.999601 L 457.499723 284.999658 L 455.499845 301.499943 L 453.499967 317.5 L 449.500212 333.500057 L 439.499788 351.499992 L 413.999536 367.500049 L 386.000212 383.500106 L 384.499528 399.500163 L 384.999756 416.000448 L 387.499862 432.000505 " transform="matrix(3.779528,0,0,3.779528,0,0)"/>
<path style="fill:none;stroke-width:2;stroke-linecap:butt;stroke-linejoin:miter;stroke:rgb(0%,0%,0%);stroke-opacity:1;stroke-miterlimit:4;" d="M 368.500505 443.499544 L 352.500448 445.500456 L 336.000163 445.000228 L 319.499878 443.00035 L 303.499821 443.499544 L 287.499764 443.499544 L 271.999935 441.499666 L 255.999878 443.499544 L 223.999764 444.5 L 207.999707 444.5 L 191.99965 443.999772 L 175.999593 445.500456 L 159.999536 445.000228 L 144.000513 448.999984 L 128.000456 448.999984 L 112.499593 451.50009 L 64.99965 451.50009 " transform="matrix(3.779528,0,0,3.779528,0,0)"/>
<path style="fill:none;stroke-width:2;stroke-linecap:butt;stroke-linejoin:miter;stroke:rgb(0%,0%,0%);stroke-opacity:1;stroke-miterlimit:4;" d="M 52.500155 468.499569 L 39.000203 484.499626 L 8.999967 488.500415 L 23.000146 482.499748 " transform="matrix(3.779528,0,0,3.779528,0,0)"/>
<path style="fill:none;stroke-width:2;stroke-linecap:butt;stroke-linejoin:miter;stroke:rgb(0%,0%,0%);stroke-opacity:1;stroke-miterlimit:4;" d="M 23.999569 476.500114 L 17.999935 492.500171 " transform="matrix(3.779528,0,0,3.779528,0,0)"/>
<path style="fill:none;stroke-width:2;stroke-linecap:butt;stroke-linejoin:miter;stroke:rgb(0%,0%,0%);stroke-opacity:1;stroke-miterlimit:4;" d="M 3.000334 468.000374 L 19.000391 467.500146 L 17.000513 479.00022 L 8.999967 495.000277 L 23.000146 495.000277 L 38.499976 484.999854 L 55.00026 466.999919 L 71.000317 468.999797 L 87.000374 469.500024 L 103.000431 469.500024 L 119.000488 468.000374 L 134.999512 467.500146 L 182.999683 467.500146 L 190.5 477.999764 L 194.499756 494.500049 " transform="matrix(3.779528,0,0,3.779528,0,0)"/>
<path style="fill:none;stroke-width:2;stroke-linecap:butt;stroke-linejoin:miter;stroke:rgb(0%,0%,0%);stroke-opacity:1;stroke-miterlimit:4;" d="M 193.000106 488.999609 L 209.000163 502.999788 L 225.00022 497.000155 L 240.500049 488.500415 L 255.999878 481.99952 L 271.999935 488.000187 L 287.999992 495.500505 L 304.000049 502.000366 L 320.000106 490.000065 " transform="matrix(3.779528,0,0,3.779528,0,0)"/>
<path style="fill:none;stroke-width:2;stroke-linecap:butt;stroke-linejoin:miter;stroke:rgb(0%,0%,0%);stroke-opacity:1;stroke-miterlimit:4;" d="M 311.500366 500.99991 L 321.999984 484.999854 L 325.99974 468.499569 " transform="matrix(3.779528,0,0,3.779528,0,0)"/>
<path style="fill:none;stroke-width:2;stroke-linecap:butt;stroke-linejoin:miter;stroke:rgb(0%,0%,0%);stroke-opacity:1;stroke-miterlimit:4;" d="M 325.99974 468.000374 L 341.999797 470.000252 L 357.999854 470.000252 L 374.500138 468.000374 L 390.500195 468.499569 L 406.500252 468.000374 L 422.500309 468.499569 L 438.999561 468.499569 L 454.500423 468.999797 L 470.50048 476.500114 L 486.499504 494.500049 L 502.499561 498.499805 " transform="matrix(3.779528,0,0,3.779528,0,0)"/>
<path style="fill:none;stroke-width:2;stroke-linecap:butt;stroke-linejoin:miter;stroke:rgb(0%,0%,0%);stroke-opacity:1;stroke-miterlimit:4;" d="M 511.499528 490.500293 L 495.500505 470.999674 " transform="matrix(3.779528,0,0,3.779528,0,0)"/>
<path style="fill:none;stroke-width:2;stroke-linecap:butt;stroke-linejoin:miter;stroke:rgb(0%,0%,0%);stroke-opacity:1;stroke-miterlimit:4;" d="M 493.000399 470.50048 L 504.999666 486.499504 " transform="matrix(3.779528,0,0,3.779528,0,0)"/>
<path style="fill:none;stroke-width:2;stroke-linecap:butt;stroke-linejoin:miter;stroke:rgb(0%,0%,0%);stroke-opacity:1;stroke-miterlimit:4;" d="M 508.500228 467.500146 L 492.500171 469.500024 " transform="matrix(3.779528,0,0,3.779528,0,0)"/>
<path style="fill:none;stroke-width:2;stroke-linecap:butt;stroke-linejoin:miter;stroke:rgb(0%,0%,0%);stroke-opacity:1;stroke-miterlimit:4;" d="M 506.000122 450.000439 L 490.000065 450.000439 L 474.000008 450.499634 L 457.999951 450.499634 " transform="matrix(3.779528,0,0,3.779528,0,0)"/>
<path style="fill:none;stroke-width:2;stroke-linecap:butt;stroke-linejoin:miter;stroke:rgb(0%,0%,0%);stroke-opacity:1;stroke-miterlimit:4;" d="M 465.000041 470.50048 L 477.000342 486.499504 " transform="matrix(3.779528,0,0,3.779528,0,0)"/>
<path style="fill:none;stroke-width:2;stroke-linecap:butt;stroke-linejoin:miter;stroke:rgb(0%,0%,0%);stroke-opacity:1;stroke-miterlimit:4;" d="M 500.499683 443.999772 L 468.000374 443.999772 L 452.499512 450.000439 L 436.500488 449.500212 L 404.000146 449.500212 L 388.00009 448.999984 L 371.499805 449.500212 L 355.499748 450.000439 L 307.499577 450.000439 L 291.49952 447.999528 L 227.000098 447.999528 L 211.000041 447.500334 L 194.999984 449.500212 L 178.999927 449.500212 L 163.500098 450.000439 L 148.000269 450.000439 " transform="matrix(3.779528,0,0,3.779528,0,0)"/>
<path style="fill:none;stroke-width:2;stroke-linecap:butt;stroke-linejoin:miter;stroke:rgb(0%,0%,0%);stroke-opacity:1;stroke-miterlimit:4;" d="M 173.499487 456.000073 L 189.499544 456.000073 L 205.999829 461.999707 L 221.999886 461.999707 L 237.999943 460.500057 L 254 458.500179 L 270.000057 460.500057 L 286.500342 463.999585 " transform="matrix(3.779528,0,0,3.779528,0,0)"/>
<path style="fill:none;stroke-width:2;stroke-linecap:butt;stroke-linejoin:miter;stroke:rgb(0%,0%,0%);stroke-opacity:1;stroke-miterlimit:4;" d="M 261.00009 483.500203 L 292.499976 500.000488 " transform="matrix(3.779528,0,0,3.779528,0,0)"/>
<path style="fill:none;stroke-width:2;stroke-linecap:butt;stroke-linejoin:miter;stroke:rgb(0%,0%,0%);stroke-opacity:1;stroke-miterlimit:4;" d="M 255.000456 479.999642 L 225.00022 495.500505 " transform="matrix(3.779528,0,0,3.779528,0,0)"/>
<path style="fill:none;stroke-width:2;stroke-linecap:butt;stroke-linejoin:miter;stroke:rgb(0%,0%,0%);stroke-opacity:1;stroke-miterlimit:4;" d="M 153.999902 363.500293 L 137.999845 351.499992 L 122.500016 347.000008 " transform="matrix(3.779528,0,0,3.779528,0,0)"/>
<path style="fill:none;stroke-width:2;stroke-linecap:butt;stroke-linejoin:miter;stroke:rgb(0%,0%,0%);stroke-opacity:1;stroke-miterlimit:4;" d="M 121.499561 347.000008 L 125.50035 363.000065 L 149.499919 379.50035 L 151.499797 379.50035 L 169.499731 391.999845 L 185.499788 395.999601 L 201.499845 400.000391 L 217.499902 399.500163 L 233.499959 399.500163 L 249.500016 400.000391 L 265.500073 400.000391 L 281.50013 398.000513 L 298.000415 389.999967 L 314.000472 389.999967 L 329.999495 388.500317 L 345.999552 384.499528 L 370.000155 368.500505 " transform="matrix(3.779528,0,0,3.779528,0,0)"/>
<path style="fill:none;stroke-width:2;stroke-linecap:butt;stroke-linejoin:miter;stroke:rgb(0%,0%,0%);stroke-opacity:1;stroke-miterlimit:4;" d="M 357.999854 367.500049 L 368.500505 363.500293 L 384.499528 347.000008 " transform="matrix(3.779528,0,0,3.779528,0,0)"/>
<path style="fill:none;stroke-width:2;stroke-linecap:butt;stroke-linejoin:miter;stroke:rgb(0%,0%,0%);stroke-opacity:1;stroke-miterlimit:4;" d="M 384.999756 341.999797 L 359.000309 357.499626 L 351.499992 373.499683 L 361.999609 355.499748 L 378.499894 345.500358 L 394.499951 345.999552 " transform="matrix(3.779528,0,0,3.779528,0,0)"/>
<path style="fill:none;stroke-width:2;stroke-linecap:butt;stroke-linejoin:miter;stroke:rgb(0%,0%,0%);stroke-opacity:1;stroke-miterlimit:4;" d="M 389.49974 343.50048 L 387.499862 359.499504 L 382.000456 369.499927 L 357.999854 366.000399 L 373.499683 354.000098 L 389.49974 348.000464 L 386.000212 366.000399 L 400.000391 365.500171 L 416.499642 361.500415 L 432.499699 349.500114 " transform="matrix(3.779528,0,0,3.779528,0,0)"/>
<path style="fill:none;stroke-width:2;stroke-linecap:butt;stroke-linejoin:miter;stroke:rgb(0%,0%,0%);stroke-opacity:1;stroke-miterlimit:4;" d="M 377.500472 395.500407 L 379.50035 411.500464 L 379.999544 427.499487 " transform="matrix(3.779528,0,0,3.779528,0,0)"/>
<path style="fill:none;stroke-width:2;stroke-linecap:butt;stroke-linejoin:miter;stroke:rgb(0%,0%,0%);stroke-opacity:1;stroke-miterlimit:4;" d="M 355.499748 304.500277 L 339.999919 296.499731 L 343.999674 284.500464 L 343.999674 268.500407 L 345.999552 252.000122 L 339.999919 241.999699 L 355.999976 225.999642 " transform="matrix(3.779528,0,0,3.779528,0,0)"/>
<path style="fill:none;stroke-width:2;stroke-linecap:butt;stroke-linejoin:miter;stroke:rgb(0%,0%,0%);stroke-opacity:1;stroke-miterlimit:4;" d="M 333.500057 202.000073 L 320.000106 186.000016 " transform="matrix(3.779528,0,0,3.779528,0,0)"/>
<path style="fill:none;stroke-width:2;stroke-linecap:butt;stroke-linejoin:miter;stroke:rgb(0%,0%,0%);stroke-opacity:1;stroke-miterlimit:4;" d="M 303.499821 173.499487 L 299.500065 189.499544 L 319.499878 193.500334 L 343.50048 211.000041 L 347.500236 225.00022 L 335.499935 240.500049 L 336.000163 256.500106 L 336.500391 271.999935 L 339.000496 287.999992 L 351.499992 304.000049 L 329.999495 321.999984 L 327.999618 336.000163 L 315.500122 341.999797 L 330.999951 333.500057 " transform="matrix(3.779528,0,0,3.779528,0,0)"/>
<path style="fill:none;stroke-width:2;stroke-linecap:butt;stroke-linejoin:miter;stroke:rgb(0%,0%,0%);stroke-opacity:1;stroke-miterlimit:4;" d="M 278.499797 309.500488 L 292.499976 293.999626 L 300.499487 277.999569 L 302.999593 262.49974 L 300.999715 246.499683 L 293.500431 230.499626 L 273.499585 214.499569 " transform="matrix(3.779528,0,0,3.779528,0,0)"/>
<path style="fill:none;stroke-width:2;stroke-linecap:butt;stroke-linejoin:miter;stroke:rgb(0%,0%,0%);stroke-opacity:1;stroke-miterlimit:4;" d="M 275.000269 208.499935 L 295.000081 224.499992 L 305.000505 239.999821 L 309.00026 255.49965 L 307.000382 271.499707 L 302.999593 286.999536 L 295.500309 302.999593 " transform="matrix(3.779528,0,0,3.779528,0,0)"/>
<path style="fill:none;stroke-width:2;stroke-linecap:butt;stroke-linejoin:miter;stroke:rgb(0%,0%,0%);stroke-opacity:1;stroke-miterlimit:4;" d="M 245.000033 307.499577 L 232.999731 291.49952 L 228.999976 275.999691 L 228.999976 259.999634 L 234.999609 244.499805 L 245.000033 228.499748 L 260.499862 212.499691 " transform="matrix(3.779528,0,0,3.779528,0,0)"/>
<path style="fill:none;stroke-width:2;stroke-linecap:butt;stroke-linejoin:miter;stroke:rgb(0%,0%,0%);stroke-opacity:1;stroke-miterlimit:4;" d="M 217.499902 212.999919 L 225.999642 197.50009 L 220.000008 191.500456 L 212.000496 211.500269 L 195.500212 221.499658 L 179.500155 221.499658 L 209.500391 213.500146 L 215.500024 197.50009 L 219.49978 211.500269 L 203.999951 223.499536 L 188.500122 229.500203 L 172.500065 221.499658 L 170.500187 215.500024 L 178.499699 199.499967 L 196.000439 183.49991 L 205.499601 182.00026 L 197.50009 196.000439 L 181.500033 200.000195 " transform="matrix(3.779528,0,0,3.779528,0,0)"/>
<path style="fill:none;stroke-width:2;stroke-linecap:butt;stroke-linejoin:miter;stroke:rgb(0%,0%,0%);stroke-opacity:1;stroke-miterlimit:4;" d="M 187.999894 193.999528 L 214.000374 192.499878 L 207.999707 207.999707 L 199.499967 207.999707 " transform="matrix(3.779528,0,0,3.779528,0,0)"/>
<path style="fill:none;stroke-width:2;stroke-linecap:butt;stroke-linejoin:miter;stroke:rgb(0%,0%,0%);stroke-opacity:1;stroke-miterlimit:4;" d="M 175.000171 211.500269 L 184.999561 203.499723 L 187.000472 209.999585 L 175.500399 216.50048 L 175.999593 202.500301 L 192.499878 187.000472 L 208.499935 182.500488 L 224.499992 190.5 " transform="matrix(3.779528,0,0,3.779528,0,0)"/>
<path style="fill:none;stroke-width:2;stroke-linecap:butt;stroke-linejoin:miter;stroke:rgb(0%,0%,0%);stroke-opacity:1;stroke-miterlimit:4;" d="M 188.500122 130.499528 L 172.500065 134.500317 " transform="matrix(3.779528,0,0,3.779528,0,0)"/>
<path style="fill:none;stroke-width:2;stroke-linecap:butt;stroke-linejoin:miter;stroke:rgb(0%,0%,0%);stroke-opacity:1;stroke-miterlimit:4;" d="M 165.499976 150.000146 L 181.500033 148.000269 L 196.999862 144.499707 " transform="matrix(3.779528,0,0,3.779528,0,0)"/>
<path style="fill:none;stroke-width:2;stroke-linecap:butt;stroke-linejoin:miter;stroke:rgb(0%,0%,0%);stroke-opacity:1;stroke-miterlimit:4;" d="M 207.000285 117.499805 L 191.000228 139.999723 L 189.00035 135.49974 L 172.500065 139.499495 L 156.500008 143.500285 L 146.000391 143.500285 L 121.999788 141.500407 L 96.000342 163.500098 L 94.000464 195.500212 L 100.000098 179.500155 L 114.000277 163.500098 L 139.999723 146.999813 " transform="matrix(3.779528,0,0,3.779528,0,0)"/>
<path style="fill:none;stroke-width:2;stroke-linecap:butt;stroke-linejoin:miter;stroke:rgb(0%,0%,0%);stroke-opacity:1;stroke-miterlimit:4;" d="M 114.000277 151.499797 L 100.000098 167.499854 L 89.999674 184.000138 L 85.999919 200.000195 L 85.999919 215.500024 L 86.500146 231.500081 L 85.999919 247.500138 L 85.999919 279.500252 L 87.000374 311.500366 L 90.499902 327.999618 L 91.00013 343.999674 L 105.000309 359.999731 L 128.999878 375.999788 L 132.999634 391.999845 L 132.999634 408.50013 L 130.499528 424.500187 L 126.499772 440.500244 " transform="matrix(3.779528,0,0,3.779528,0,0)"/>
<path style="fill:none;stroke-width:2;stroke-linecap:butt;stroke-linejoin:miter;stroke:rgb(0%,0%,0%);stroke-opacity:1;stroke-miterlimit:4;" d="M 149.499919 373.99991 L 130.999756 363.999487 L 110.999943 359.999731 L 95.500114 343.999674 L 84.000041 325.99974 L 80.000285 310.49991 L 79.500057 295.000081 L 79.500057 279.000024 L 80.000285 262.999967 L 82.000163 246.499683 L 82.000163 199.499967 L 85.999919 183.49991 L 94.000464 166.999626 L 109.999487 150.999569 L 141.500407 148.500496 L 125.50035 154.50013 L 109.500293 166.000203 L 93.500236 191.99965 " transform="matrix(3.779528,0,0,3.779528,0,0)"/>
<path style="fill:none;stroke-width:2;stroke-linecap:butt;stroke-linejoin:miter;stroke:rgb(0%,0%,0%);stroke-opacity:1;stroke-miterlimit:4;" d="M 85.999919 195.500212 L 101.999976 163.500098 L 118.000033 148.999691 L 150.000146 137.000423 L 166.000203 128.999878 L 173.999715 127 L 189.999772 123.000244 L 217.499902 127.500228 L 233.499959 123.500472 L 248.999788 123.500472 " transform="matrix(3.779528,0,0,3.779528,0,0)"/>
<path style="fill:none;stroke-width:2;stroke-linecap:butt;stroke-linejoin:miter;stroke:rgb(0%,0%,0%);stroke-opacity:1;stroke-miterlimit:4;" d="M 262.999967 112.000399 L 275.500496 128.000456 L 255.000456 125.50035 L 235.499837 135.49974 L 229.500203 159.500342 L 234.000187 175.500399 L 250.000244 183.49991 L 266.499495 186.000016 L 286.500342 180.000382 L 302.999593 170.500187 L 318.99965 178.499699 L 334.999707 192.499878 " transform="matrix(3.779528,0,0,3.779528,0,0)"/>
<path style="fill:none;stroke-width:2;stroke-linecap:butt;stroke-linejoin:miter;stroke:rgb(0%,0%,0%);stroke-opacity:1;stroke-miterlimit:4;" d="M 328.499845 218.500358 L 316.499544 205.000407 L 311.000138 209.000163 L 292.499976 193.000106 L 296.999959 177.000049 " transform="matrix(3.779528,0,0,3.779528,0,0)"/>
<path style="fill:none;stroke-width:2;stroke-linecap:butt;stroke-linejoin:miter;stroke:rgb(0%,0%,0%);stroke-opacity:1;stroke-miterlimit:4;" d="M 293.000203 134.999512 L 276.499919 134.500317 L 275.999691 116.999577 " transform="matrix(3.779528,0,0,3.779528,0,0)"/>
<path style="fill:none;stroke-width:2;stroke-linecap:butt;stroke-linejoin:miter;stroke:rgb(0%,0%,0%);stroke-opacity:1;stroke-miterlimit:4;" d="M 228.999976 109.500293 L 211.000041 127.500228 L 207.500513 121.499561 L 223.499536 107.500415 L 230.000431 109.000065 L 246.000488 105.499504 L 254 101.499748 L 270.000057 96.000342 L 286.000114 96.000342 L 304.000049 104.500081 L 320.000106 110.499715 L 336.000163 107.000187 L 351.499992 112.999821 L 367.500049 116.500382 L 383.500106 126.499772 L 399.500163 135.999967 L 416.000448 141.999601 L 431.500277 150.000146 L 447.999528 166.000203 " transform="matrix(3.779528,0,0,3.779528,0,0)"/>
<path style="fill:none;stroke-width:2;stroke-linecap:butt;stroke-linejoin:miter;stroke:rgb(0%,0%,0%);stroke-opacity:1;stroke-miterlimit:4;" d="M 439.499788 177.500277 L 427.499487 161.50022 L 407.499674 145.500163 L 379.999544 129.500106 L 343.999674 113.500049 " transform="matrix(3.779528,0,0,3.779528,0,0)"/>
<path style="fill:none;stroke-width:2;stroke-linecap:butt;stroke-linejoin:miter;stroke:rgb(0%,0%,0%);stroke-opacity:1;stroke-miterlimit:4;" d="M 147.500041 354.500326 L 132.000212 343.999674 L 116.000155 350.499536 " transform="matrix(3.779528,0,0,3.779528,0,0)"/>
<path style="fill:none;stroke-width:2;stroke-linecap:butt;stroke-linejoin:miter;stroke:rgb(0%,0%,0%);stroke-opacity:1;stroke-miterlimit:4;" d="M 140.499951 354.500326 L 159.000114 370.500382 " transform="matrix(3.779528,0,0,3.779528,0,0)"/>
<path style="fill:none;stroke-width:2;stroke-linecap:butt;stroke-linejoin:miter;stroke:rgb(0%,0%,0%);stroke-opacity:1;stroke-miterlimit:4;" d="M 145.500163 371.499805 L 123.500472 366.999821 L 107.500415 352.999642 L 91.500358 330.999951 " transform="matrix(3.779528,0,0,3.779528,0,0)"/>
<path style="fill:none;stroke-width:2;stroke-linecap:butt;stroke-linejoin:miter;stroke:rgb(0%,0%,0%);stroke-opacity:1;stroke-miterlimit:4;" d="M 87.499569 337.499813 L 103.499626 359.499504 L 119.499683 371.499805 L 133.499862 359.999731 L 148.999691 368.500505 " transform="matrix(3.779528,0,0,3.779528,0,0)"/>
<path style="fill:none;stroke-width:2;stroke-linecap:butt;stroke-linejoin:miter;stroke:rgb(0%,0%,0%);stroke-opacity:1;stroke-miterlimit:4;" d="M 114.500505 447.999528 L 66.500334 447.999528 L 50.500277 449.500212 L 35.000448 449.500212 L 19.000391 450.000439 L 3.000334 452.000317 " transform="matrix(3.779528,0,0,3.779528,0,0)"/>
<path style="fill:none;stroke-width:2;stroke-linecap:butt;stroke-linejoin:miter;stroke:rgb(0%,0%,0%);stroke-opacity:1;stroke-miterlimit:4;" d="M 3.499528 30.000236 L 51.000505 30.000236 L 66.500334 29.500008 L 84.000041 30.000236 L 99.49987 32.000114 L 115.499927 32.500342 L 130.999756 32.999536 L 162.499642 32.999536 L 178.499699 32.500342 L 259.999634 32.500342 L 275.999691 30.500464 L 291.999748 30.500464 L 307.999805 30.999658 L 323.999862 30.999658 L 339.999919 30.500464 L 356.500203 30.000236 L 372.50026 30.000236 L 388.999512 29.500008 L 469.500024 29.500008 L 486.000309 30.000236 L 501.500138 29.500008 " transform="matrix(3.779528,0,0,3.779528,0,0)"/>
<path style="fill:none;stroke-width:2;stroke-linecap:butt;stroke-linejoin:miter;stroke:rgb(0%,0%,0%);stroke-opacity:1;stroke-miterlimit:4;" d="M 67.999984 47.499943 L 66.500334 31.499886 L 51.000505 23.500374 L 35.000448 23.999569 L 19.000391 23.999569 L 3.000334 24.499797 " transform="matrix(3.779528,0,0,3.779528,0,0)"/>
<path style="fill:none;stroke-width:2;stroke-linecap:butt;stroke-linejoin:miter;stroke:rgb(0%,0%,0%);stroke-opacity:1;stroke-miterlimit:4;" d="M 3.999756 19.999813 L 19.999813 19.999813 " transform="matrix(3.779528,0,0,3.779528,0,0)"/>
<path style="fill:none;stroke-width:2;stroke-linecap:butt;stroke-linejoin:miter;stroke:rgb(0%,0%,0%);stroke-opacity:1;stroke-miterlimit:4;" d="M 3.000334 13.499951 L 19.000391 13.499951 L 34.50022 14.000179 L 98.00022 14.000179 L 114.000277 14.500407 L 130.000334 14.500407 L 146.000391 14.999601 L 194.499756 14.999601 L 210.499813 14.500407 L 227.000098 14.500407 L 243.000155 14.000179 L 259.000212 14.000179 L 275.000269 13.499951 L 370.999577 13.499951 L 386.500439 12.999723 L 402.000269 13.499951 L 418.000326 13.499951 L 434.499577 14.000179 L 450.499634 14.500407 L 466.000496 14.999601 L 497.999577 14.999601 " transform="matrix(3.779528,0,0,3.779528,0,0)"/>
</g>
</svg>
