<svg xmlns="http://www.w3.org/2000/svg" width="512mm" height="512mm" viewBox="0 0 512 512" version="1.1"><polyline points="189.5,62.5,187.5,78.5" stroke="black" stroke-width="2" fill="none" />
<polyline points="235.0,122.5,239.0,112.5,234.5,129.0,234.5,149.0,248.0,165.5" stroke="black" stroke-width="2" fill="none" />
<polyline points="262.0,168.0,272.0,152.0,252.0,169.5,236.0,151.5,220.0,145.5,204.0,149.5" stroke="black" stroke-width="2" fill="none" />
<polyline points="206.0,155.0,222.0,173.0,238.0,191.5" stroke="black" stroke-width="2" fill="none" />
<polyline points="269.0,197.0,285.0,173.0,289.0,177.0,278.5,192.5,282.0,208.0,294.0,224.0,304.0,229.5,320.0,244.0" stroke="black" stroke-width="2" fill="none" />
<polyline points="298.5,208.5,314.5,232.0,330.5,243.5,346.5,249.5,362.0,245.0,378.0,237.5,393.5,223.5" stroke="black" stroke-width="2" fill="none" />
<polyline points="393.5,160.5,377.5,146.5" stroke="black" stroke-width="2" fill="none" />
<polyline points="362.5,141.0,388.5,156.5,400.5,172.5,404.5,188.5,404.5,204.5,398.5,220.5,383.0,236.5" stroke="black" stroke-width="2" fill="none" />
<polyline points="359.5,216.0,344.0,220.0,342.0,210.5,337.5,207.0,335.5,191.0,350.0,175.0,342.0,186.5" stroke="black" stroke-width="2" fill="none" />
<polyline points="338.0,185.0,354.0,175.0,358.5,179.0,366.0,195.0,360.0,211.0" stroke="black" stroke-width="2" fill="none" />
<polyline points="329.0,191.5,345.5,170.0,362.0,171.5" stroke="black" stroke-width="2" fill="none" />
<polyline points="354.0,170.0,369.5,186.0,370.0,202.5,358.0,218.5" stroke="black" stroke-width="2" fill="none" />
<polyline points="384.5,240.5,401.0,224.5,407.0,208.5,409.5,192.5,408.0,176.5,400.5,160.5,382.5,144.0,369.0,141.5,353.0,137.5,337.0,141.5,321.0,151.5,305.0,168.0" stroke="black" stroke-width="2" fill="none" />
<polyline points="287.0,146.5,271.0,146.5" stroke="black" stroke-width="2" fill="none" />
<polyline points="244.5,171.0,229.0,155.0" stroke="black" stroke-width="2" fill="none" />
<polyline points="211.5,149.0,227.5,151.0,243.5,168.0,259.5,170.5,275.5,152.5,291.5,153.0,302.0,156.5,296.0,156.5,284.0,172.0,273.5,188.0,270.0,204.0,284.0,220.0,298.5,235.5" stroke="black" stroke-width="2" fill="none" />
<polyline points="292.5,222.5,276.5,203.0" stroke="black" stroke-width="2" fill="none" />
<polyline points="270.5,201.0,286.5,221.0,302.5,241.0,318.5,253.5" stroke="black" stroke-width="2" fill="none" />
<polyline points="322.0,296.5,322.0,304.0,318.0,319.5,316.0,335.5,313.5,351.5,311.5,367.5,307.5,383.0,294.0,395.0" stroke="black" stroke-width="2" fill="none" />
<polyline points="332.0,378.5,348.0,398.5,364.0,398.5,380.0,394.0,395.5,393.5,411.5,393.5" stroke="black" stroke-width="2" fill="none" />
<polyline points="420.0,377.0,436.5,398.5,453.0,397.0" stroke="black" stroke-width="2" fill="none" />
<polyline points="457.5,416.0,473.5,416.0,489.5,416.0,505.5,416.0" stroke="black" stroke-width="2" fill="none" />
<polyline points="505.0,399.5,488.5,399.5,472.5,399.5,456.5,402.0,460.0,384.0,463.5,367.5,465.0,351.5,467.0,335.5,467.0,333.0" stroke="black" stroke-width="2" fill="none" />
<polyline points="474.5,331.0,472.5,347.5,470.0,363.5,470.0,379.5" stroke="black" stroke-width="2" fill="none" />
<polyline points="426.5,402.0,410.5,400.0,394.5,400.0,378.5,399.5,362.5,401.5" stroke="black" stroke-width="2" fill="none" />
<polyline points="345.0,458.0,343.0,442.0,337.0,434.5,320.5,436.5,304.5,435.0,288.0,435.0,272.0,439.0" stroke="black" stroke-width="2" fill="none" />
<polyline points="274.0,441.5,290.0,439.5" stroke="black" stroke-width="2" fill="none" />
<polyline points="242.0,420.0,258.0,426.5,286.0,418.0,301.5,416.0,317.5,415.5,333.5,415.0,349.5,415.5,365.5,415.5,381.5,415.5,397.5,415.5,414.0,415.5,429.5,415.5,445.5,416.0,461.5,410.0,477.5,410.0,494.0,410.5,510.0,410.5" stroke="black" stroke-width="2" fill="none" />
<polyline points="429.0,396.5,421.0,380.5,417.0,364.5,412.5,348.5" stroke="black" stroke-width="2" fill="none" />
<polyline points="413.5,345.5,411.5,361.5,416.0,377.5" stroke="black" stroke-width="2" fill="none" />
<polyline points="333.5,399.5,317.5,399.5,301.5,401.5,286.0,399.5,270.5,399.5,254.5,397.5,238.5,397.5,224.5,393.5,232.0,377.5,233.5,362.0,239.5,346.0,235.5,354.0" stroke="black" stroke-width="2" fill="none" />
<polyline points="228.5,384.0,213.0,398.0,193.5,409.5,178.0,410.0,161.5,411.5,145.5,411.5,129.5,411.5,113.5,411.5,97.0,411.5,81.0,409.5,64.5,410.0,48.5,410.0,32.0,410.5,16.0,411.0,14.0,401.0,12.0,384.5,14.0,364.5,22.0,348.5,23.5,332.5,29.5,316.5,35.5,300.5,43.0,284.5,46.5,268.5,50.5,253.0,54.5,237.0,59.0,221.0,73.5,204.5,77.5,188.0,84.0,172.0,88.5,155.5,97.0,140.0,103.5,124.0,99.5,134.0,83.5,174.0" stroke="black" stroke-width="2" fill="none" />
<polyline points="107.0,178.0,109.0,165.5,125.0,149.0,127.0,155.0,111.0,171.0,104.5,187.0,103.0,203.0,101.0,219.0,111.0,235.5,137.0,251.5" stroke="black" stroke-width="2" fill="none" />
<polyline points="155.5,217.0,139.5,207.0" stroke="black" stroke-width="2" fill="none" />
<polyline points="137.5,191.5,153.5,173.5,169.5,179.5,165.5,186.0,167.0,202.5" stroke="black" stroke-width="2" fill="none" />
<polyline points="159.5,200.5,166.0,186.0,150.0,184.5" stroke="black" stroke-width="2" fill="none" />
<polyline points="145.0,188.5,143.0,204.5,151.0,196.0" stroke="black" stroke-width="2" fill="none" />
<polyline points="143.5,190.0,169.5,182.0,175.5,198.5,167.5,214.5" stroke="black" stroke-width="2" fill="none" />
<polyline points="185.5,239.5,198.0,223.0,206.0,207.0,206.0,191.0,200.0,175.0,186.0,159.0,166.0,139.0,150.0,137.5,134.0,143.5" stroke="black" stroke-width="2" fill="none" />
<polyline points="146.0,138.5,119.5,154.0,103.5,171.5,97.5,187.5,98.0,150.0" stroke="black" stroke-width="2" fill="none" />
<polyline points="80.0,147.5,88.0,131.0" stroke="black" stroke-width="2" fill="none" />
<polyline points="81.5,133.5,69.5,155.5,78.0,139.5,88.0,123.5" stroke="black" stroke-width="2" fill="none" />
<polyline points="107.0,122.0,103.5,138.0,97.0,153.5,91.5,169.5,85.5,185.5,82.0,201.5,88.0,217.5,88.5,230.0" stroke="black" stroke-width="2" fill="none" />
<polyline points="84.0,228.0,82.0,212.0" stroke="black" stroke-width="2" fill="none" />
<polyline points="104.5,213.5,110.0,229.5,132.0,245.5" stroke="black" stroke-width="2" fill="none" />
<polyline points="105.0,212.0,121.0,236.0,137.0,245.5,152.5,251.5,168.5,250.0,184.0,242.0,200.5,222.0" stroke="black" stroke-width="2" fill="none" />
<polyline points="207.0,235.5,223.0,217.5" stroke="black" stroke-width="2" fill="none" />
<polyline points="232.5,194.0,216.5,176.5,200.5,154.5" stroke="black" stroke-width="2" fill="none" />
<polyline points="195.5,150.0,203.5,162.0,215.0,178.5,231.0,194.5,223.5,210.5,209.5,226.5,197.5,242.5,209.5,248.0,225.5,248.0,241.5,232.0,258.0,223.5,273.5,239.5,289.5,247.0,305.5,249.0" stroke="black" stroke-width="2" fill="none" />
<polyline points="269.0,256.5,253.5,246.5" stroke="black" stroke-width="2" fill="none" />
<polyline points="250.5,242.0,266.5,250.0" stroke="black" stroke-width="2" fill="none" />
<polyline points="270.0,244.5,254.0,228.0,238.0,244.0,221.5,254.0,205.5,254.0" stroke="black" stroke-width="2" fill="none" />
<polyline points="205.5,282.5,199.5,298.5,193.5,314.5,189.5,330.5,187.5,346.0" stroke="black" stroke-width="2" fill="none" />
<polyline points="204.0,362.5,202.0,379.0,201.5,395.0" stroke="black" stroke-width="2" fill="none" />
<polyline points="242.0,414.5,258.0,416.5,272.5,426.5,276.5,443.0,290.5,455.0" stroke="black" stroke-width="2" fill="none" />
<polyline points="333.0,461.0,317.0,461.5,300.5,459.5,284.5,461.5,268.5,461.5,252.5,461.5,237.0,461.5,221.0,461.5,205.0,461.5,189.0,462.0,173.5,462.0" stroke="black" stroke-width="2" fill="none" />
<polyline points="166.5,461.0,182.0,455.5" stroke="black" stroke-width="2" fill="none" />
<polyline points="181.0,436.5,169.0,452.5,168.5,452.5,184.5,436.5,200.5,436.5,216.5,438.5,232.5,436.0" stroke="black" stroke-width="2" fill="none" />
<polyline points="231.0,443.0,235.0,425.0,227.0,417.0,210.5,417.5,194.5,417.0,178.5,417.0,162.5,419.0,146.5,419.0,130.5,418.5,114.5,418.5,99.0,418.5,83.0,418.0,67.0,418.0,51.0,418.0,35.0,418.0,18.5,418.0,3.0,415.5" stroke="black" stroke-width="2" fill="none" />
<polyline points="15.0,397.5,31.0,399.5,46.5,390.0" stroke="black" stroke-width="2" fill="none" />
<polyline points="19.0,355.5,3.0,374.0" stroke="black" stroke-width="2" fill="none" />
<polyline points="24.0,334.0,40.0,296.0,59.5,294.0,57.0,309.5,50.5,325.5,46.5,342.0,42.0,357.5,38.0,373.5,36.0,389.0,46.0,399.5,62.0,401.5,78.0,401.5,94.0,395.0,110.0,397.0,126.5,395.5,142.5,375.5,158.5,365.0,156.5,367.0,136.5,381.0" stroke="black" stroke-width="2" fill="none" />
<polyline points="51.5,380.0,53.5,364.0,57.5,347.5,63.5,331.5,67.5,315.0,69.5,299.0" stroke="black" stroke-width="2" fill="none" />
<polyline points="87.0,292.0,85.0,307.5,81.5,323.5,78.0,339.5,76.5,355.5,78.5,372.0,83.0,388.0,105.0,402.0,120.5,402.0,136.5,400.0,152.5,400.5,168.5,400.5,184.5,400.0,200.5,402.0" stroke="black" stroke-width="2" fill="none" />
<polyline points="291.0,391.5,287.0,375.0,283.0,358.5,280.5,342.5" stroke="black" stroke-width="2" fill="none" />
<polyline points="278.0,341.5,278.5,357.5" stroke="black" stroke-width="2" fill="none" />
<polyline points="336.0,388.0,330.0,371.5,320.0,345.5,321.5,329.5,324.5,313.5,326.5,297.5" stroke="black" stroke-width="2" fill="none" />
<polyline points="264.0,257.0,252.0,241.0" stroke="black" stroke-width="2" fill="none" />
<polyline points="260.5,228.5,270.5,244.5,288.5,254.5,304.5,254.5" stroke="black" stroke-width="2" fill="none" />
<polyline points="257.0,222.5,244.5,238.5" stroke="black" stroke-width="2" fill="none" />
<polyline points="238.5,236.5,252.5,220.5" stroke="black" stroke-width="2" fill="none" />
<polyline points="275.5,196.0,291.5,171.5,303.5,161.5,319.5,145.5,335.5,135.5,351.0,131.5,367.5,135.5,386.0,145.0,402.0,161.5" stroke="black" stroke-width="2" fill="none" />
<polyline points="349.0,168.5,335.0,184.5,331.0,200.0,339.0,216.0,352.5,216.0" stroke="black" stroke-width="2" fill="none" />
<polyline points="331.0,250.0,314.5,246.0,302.0,234.5,301.5,218.5,295.5,203.0,297.5,187.0,303.5,171.5,317.5,155.5,345.5,139.5" stroke="black" stroke-width="2" fill="none" />
<polyline points="348.0,131.5,318.0,147.5,302.0,164.0,292.0,180.0,290.0,195.5,292.5,211.5,312.0,231.5,340.0,247.5,348.0,253.5,364.5,251.5,387.0,239.5,402.5,224.0" stroke="black" stroke-width="2" fill="none" />
<polyline points="495.0,169.0,491.5,153.0,489.5,137.0,489.5,121.5,490.0,115.5" stroke="black" stroke-width="2" fill="none" />
<polyline points="495.5,115.0,495.5,131.0,495.5,147.0,499.5,163.5" stroke="black" stroke-width="2" fill="none" />
<polyline points="499.0,54.5,483.5,52.5,467.5,52.0,451.5,52.0,435.0,52.0,419.0,52.0,403.0,52.0,386.5,52.0,370.0,51.5,354.0,51.0,337.5,51.0,321.5,51.0,305.5,51.0,289.5,51.5,273.5,51.5,257.5,51.5,242.0,51.5,226.0,52.0,210.5,52.0,195.0,52.5,179.0,52.5,163.5,52.5,147.5,52.5,131.0,52.5,115.0,52.0,99.0,52.0,83.0,51.5,67.0,52.0,51.0,52.0,35.0,54.5,19.0,54.5,3.0,54.5" stroke="black" stroke-width="2" fill="none" />
<polyline points="2.0,62.5,18.0,62.5,34.0,60.0,50.0,60.0,66.0,59.5,82.5,59.0,98.5,59.5,114.5,60.0,130.5,60.5,147.0,60.5,163.0,61.0,179.0,61.0,201.0,63.0,194.5,78.5,202.0,60.0,218.0,60.0,234.0,59.5,250.0,60.0,266.0,62.0" stroke="black" stroke-width="2" fill="none" />
<polyline points="317.0,63.5,311.0,79.5,305.5,95.5,317.5,63.5,334.0,61.0,350.0,57.5,366.0,57.5,382.0,60.0,398.0,60.0,414.0,62.5,430.0,60.5,446.0,61.0,461.5,63.0,477.5,60.5,493.5,60.5,509.5,62.0" stroke="black" stroke-width="2" fill="none" />
<polyline points="205.0,185.5,189.5,162.0,174.0,150.0" stroke="black" stroke-width="2" fill="none" />
<polyline points="169.5,146.0,185.5,150.5,203.5,153.0,215.5,169.5,229.0,186.0,237.0,202.5,223.0,219.0,209.0,235.0,200.5,237.0,216.5,217.0,232.0,201.0" stroke="black" stroke-width="2" fill="none" />
<polyline points="204.0,225.5,186.0,247.5,170.0,254.0,184.0,248.5,202.0,230.5,210.0,214.0,212.0,195.5,208.0,179.0,198.0,163.0,180.0,147.0,162.5,143.5,147.0,143.5,131.0,151.5,115.0,165.5" stroke="black" stroke-width="2" fill="none" />
<polyline points="151.5,174.5,139.5,190.5,137.5,206.5,149.5,222.5,147.5,220.5,163.5,218.0" stroke="black" stroke-width="2" fill="none" />
<polyline points="203.5,291.5,201.5,307.5,198.0,323.5,194.0,340.0,191.5,356.0,187.5,372.0,188.0,388.0" stroke="black" stroke-width="2" fill="none" />
<polyline points="54.0,263.5,58.5,247.5,63.0,231.5,71.0,216.0,79.0,210.0,63.0,230.5" stroke="black" stroke-width="2" fill="none" />
<polyline points="57.5,206.5,53.5,222.5,71.0,206.5,99.0,218.5,114.5,240.0,130.5,250.0,146.5,255.5" stroke="black" stroke-width="2" fill="none" />
<polyline points="53.0,218.5,49.0,218.5,54.5,202.5" stroke="black" stroke-width="2" fill="none" />
</svg>