<?xml version="1.0" encoding="UTF-8"?>
<svg xmlns="http://www.w3.org/2000/svg" xmlns:xlink="http://www.w3.org/1999/xlink" width="1935.11811" height="1935.11811" viewBox="0 0 1935.11811 1935.11811" version="1.1">
<g id="surface1">
<path style="fill:none;stroke-width:2;stroke-linecap:butt;stroke-linejoin:miter;stroke:rgb(0%,0%,0%);stroke-opacity:1;stroke-miterlimit:4;" d="M 189.499544 62.499544 L 187.499666 78.499601 " transform="matrix(3.779528,0,0,3.779528,0,0)"/>
<path style="fill:none;stroke-width:2;stroke-linecap:butt;stroke-linejoin:miter;stroke:rgb(0%,0%,0%);stroke-opacity:1;stroke-miterlimit:4;" d="M 234.999609 122.500016 L 239.000399 112.499593 L 234.500415 128.999878 L 234.500415 148.999691 L 248.000366 165.499976 " transform="matrix(3.779528,0,0,3.779528,0,0)"/>
<path style="fill:none;stroke-width:2;stroke-linecap:butt;stroke-linejoin:miter;stroke:rgb(0%,0%,0%);stroke-opacity:1;stroke-miterlimit:4;" d="M 261.999512 168.000081 L 271.999935 152.000024 L 252.000122 169.499731 L 236.000065 151.499797 L 220.000008 145.500163 L 203.999951 149.499919 " transform="matrix(3.779528,0,0,3.779528,0,0)"/>
<path style="fill:none;stroke-width:2;stroke-linecap:butt;stroke-linejoin:miter;stroke:rgb(0%,0%,0%);stroke-opacity:1;stroke-miterlimit:4;" d="M 205.999829 155.000358 L 221.999886 173.000293 L 237.999943 191.500456 " transform="matrix(3.779528,0,0,3.779528,0,0)"/>
<path style="fill:none;stroke-width:2;stroke-linecap:butt;stroke-linejoin:miter;stroke:rgb(0%,0%,0%);stroke-opacity:1;stroke-miterlimit:4;" d="M 268.999601 196.999862 L 284.999658 173.000293 L 289.000448 177.000049 L 278.499797 192.499878 L 282.000358 207.999707 L 293.999626 223.999764 L 304.000049 229.500203 L 320.000106 243.999577 " transform="matrix(3.779528,0,0,3.779528,0,0)"/>
<path style="fill:none;stroke-width:2;stroke-linecap:butt;stroke-linejoin:miter;stroke:rgb(0%,0%,0%);stroke-opacity:1;stroke-miterlimit:4;" d="M 298.499609 208.499935 L 314.499666 232.000309 L 330.499723 243.500382 L 346.49978 249.500016 L 361.999609 245.000033 L 377.999666 237.499715 L 393.499495 223.499536 " transform="matrix(3.779528,0,0,3.779528,0,0)"/>
<path style="fill:none;stroke-width:2;stroke-linecap:butt;stroke-linejoin:miter;stroke:rgb(0%,0%,0%);stroke-opacity:1;stroke-miterlimit:4;" d="M 393.499495 160.499764 L 377.500472 146.499585 " transform="matrix(3.779528,0,0,3.779528,0,0)"/>
<path style="fill:none;stroke-width:2;stroke-linecap:butt;stroke-linejoin:miter;stroke:rgb(0%,0%,0%);stroke-opacity:1;stroke-miterlimit:4;" d="M 362.499837 141.000179 L 388.500317 156.500008 L 400.499585 172.500065 L 404.500374 188.500122 L 404.500374 204.500179 L 398.499707 220.500236 L 382.999878 236.500293 " transform="matrix(3.779528,0,0,3.779528,0,0)"/>
<path style="fill:none;stroke-width:2;stroke-linecap:butt;stroke-linejoin:miter;stroke:rgb(0%,0%,0%);stroke-opacity:1;stroke-miterlimit:4;" d="M 359.499504 216.000252 L 343.999674 220.000008 L 341.999797 210.499813 L 337.499813 207.000285 L 335.499935 191.000228 L 350.000342 175.000171 L 341.999797 186.500244 " transform="matrix(3.779528,0,0,3.779528,0,0)"/>
<path style="fill:none;stroke-width:2;stroke-linecap:butt;stroke-linejoin:miter;stroke:rgb(0%,0%,0%);stroke-opacity:1;stroke-miterlimit:4;" d="M 338.000041 184.999561 L 354.000098 175.000171 L 358.500081 178.999927 L 366.000399 194.999984 L 359.999731 211.000041 " transform="matrix(3.779528,0,0,3.779528,0,0)"/>
<path style="fill:none;stroke-width:2;stroke-linecap:butt;stroke-linejoin:miter;stroke:rgb(0%,0%,0%);stroke-opacity:1;stroke-miterlimit:4;" d="M 329.000073 191.500456 L 345.500358 169.999959 L 361.999609 171.499609 " transform="matrix(3.779528,0,0,3.779528,0,0)"/>
<path style="fill:none;stroke-width:2;stroke-linecap:butt;stroke-linejoin:miter;stroke:rgb(0%,0%,0%);stroke-opacity:1;stroke-miterlimit:4;" d="M 354.000098 169.999959 L 369.499927 186.000016 L 370.000155 202.500301 L 357.999854 218.500358 " transform="matrix(3.779528,0,0,3.779528,0,0)"/>
<path style="fill:none;stroke-width:2;stroke-linecap:butt;stroke-linejoin:miter;stroke:rgb(0%,0%,0%);stroke-opacity:1;stroke-miterlimit:4;" d="M 384.499528 240.500049 L 400.999813 224.499992 L 407.00048 208.499935 L 409.499552 192.499878 L 407.999902 176.499821 L 400.499585 160.499764 L 382.49965 144.000513 L 368.999699 141.500407 L 352.999642 137.499618 L 336.999585 141.500407 L 320.999528 151.499797 L 305.000505 168.000081 " transform="matrix(3.779528,0,0,3.779528,0,0)"/>
<path style="fill:none;stroke-width:2;stroke-linecap:butt;stroke-linejoin:miter;stroke:rgb(0%,0%,0%);stroke-opacity:1;stroke-miterlimit:4;" d="M 286.999536 146.499585 L 271.000513 146.499585 " transform="matrix(3.779528,0,0,3.779528,0,0)"/>
<path style="fill:none;stroke-width:2;stroke-linecap:butt;stroke-linejoin:miter;stroke:rgb(0%,0%,0%);stroke-opacity:1;stroke-miterlimit:4;" d="M 244.499805 171.000415 L 228.999976 155.000358 " transform="matrix(3.779528,0,0,3.779528,0,0)"/>
<path style="fill:none;stroke-width:2;stroke-linecap:butt;stroke-linejoin:miter;stroke:rgb(0%,0%,0%);stroke-opacity:1;stroke-miterlimit:4;" d="M 211.500269 148.999691 L 227.500326 150.999569 L 243.500382 168.000081 L 259.500439 170.500187 L 275.500496 152.500252 L 291.49952 153.00048 L 302.000171 156.500008 L 295.999504 156.500008 L 284.000236 171.999837 L 273.499585 187.999894 L 270.000057 203.999951 L 284.000236 220.000008 L 298.499609 235.499837 " transform="matrix(3.779528,0,0,3.779528,0,0)"/>
<path style="fill:none;stroke-width:2;stroke-linecap:butt;stroke-linejoin:miter;stroke:rgb(0%,0%,0%);stroke-opacity:1;stroke-miterlimit:4;" d="M 292.499976 222.500114 L 276.499919 202.999495 " transform="matrix(3.779528,0,0,3.779528,0,0)"/>
<path style="fill:none;stroke-width:2;stroke-linecap:butt;stroke-linejoin:miter;stroke:rgb(0%,0%,0%);stroke-opacity:1;stroke-miterlimit:4;" d="M 270.500285 200.999618 L 286.500342 221.000464 L 302.500399 241.000277 L 318.500456 253.499772 " transform="matrix(3.779528,0,0,3.779528,0,0)"/>
<path style="fill:none;stroke-width:2;stroke-linecap:butt;stroke-linejoin:miter;stroke:rgb(0%,0%,0%);stroke-opacity:1;stroke-miterlimit:4;" d="M 321.999984 296.499731 L 321.999984 304.000049 L 318.000228 319.499878 L 316.00035 335.499935 L 313.500244 351.499992 L 311.500366 367.500049 L 307.499577 382.999878 L 293.999626 395.000179 " transform="matrix(3.779528,0,0,3.779528,0,0)"/>
<path style="fill:none;stroke-width:2;stroke-linecap:butt;stroke-linejoin:miter;stroke:rgb(0%,0%,0%);stroke-opacity:1;stroke-miterlimit:4;" d="M 332.000407 378.499894 L 348.000464 398.499707 L 363.999487 398.499707 L 379.999544 393.999723 L 395.500407 393.499495 L 411.500464 393.499495 " transform="matrix(3.779528,0,0,3.779528,0,0)"/>
<path style="fill:none;stroke-width:2;stroke-linecap:butt;stroke-linejoin:miter;stroke:rgb(0%,0%,0%);stroke-opacity:1;stroke-miterlimit:4;" d="M 420.000203 377.000244 L 436.500488 398.499707 L 452.99974 397.000057 " transform="matrix(3.779528,0,0,3.779528,0,0)"/>
<path style="fill:none;stroke-width:2;stroke-linecap:butt;stroke-linejoin:miter;stroke:rgb(0%,0%,0%);stroke-opacity:1;stroke-miterlimit:4;" d="M 457.499723 416.000448 L 505.499894 416.000448 " transform="matrix(3.779528,0,0,3.779528,0,0)"/>
<path style="fill:none;stroke-width:2;stroke-linecap:butt;stroke-linejoin:miter;stroke:rgb(0%,0%,0%);stroke-opacity:1;stroke-miterlimit:4;" d="M 504.999666 399.500163 L 472.500358 399.500163 L 456.500301 402.000269 L 459.999829 384.000334 L 463.500391 367.500049 L 465.000041 351.499992 L 466.999919 335.499935 L 466.999919 332.999829 " transform="matrix(3.779528,0,0,3.779528,0,0)"/>
<path style="fill:none;stroke-width:2;stroke-linecap:butt;stroke-linejoin:miter;stroke:rgb(0%,0%,0%);stroke-opacity:1;stroke-miterlimit:4;" d="M 474.500236 330.999951 L 472.500358 347.500236 L 470.000252 363.500293 L 470.000252 379.50035 " transform="matrix(3.779528,0,0,3.779528,0,0)"/>
<path style="fill:none;stroke-width:2;stroke-linecap:butt;stroke-linejoin:miter;stroke:rgb(0%,0%,0%);stroke-opacity:1;stroke-miterlimit:4;" d="M 426.500065 402.000269 L 410.500008 400.000391 L 394.499951 400.000391 L 378.499894 399.500163 L 362.499837 401.500041 " transform="matrix(3.779528,0,0,3.779528,0,0)"/>
<path style="fill:none;stroke-width:2;stroke-linecap:butt;stroke-linejoin:miter;stroke:rgb(0%,0%,0%);stroke-opacity:1;stroke-miterlimit:4;" d="M 345.00013 457.999951 L 343.000252 441.999894 L 336.999585 434.499577 L 320.500334 436.500488 L 304.500277 434.999805 L 287.999992 434.999805 L 271.999935 438.999561 " transform="matrix(3.779528,0,0,3.779528,0,0)"/>
<path style="fill:none;stroke-width:2;stroke-linecap:butt;stroke-linejoin:miter;stroke:rgb(0%,0%,0%);stroke-opacity:1;stroke-miterlimit:4;" d="M 273.999813 441.499666 L 289.99987 439.499788 " transform="matrix(3.779528,0,0,3.779528,0,0)"/>
<path style="fill:none;stroke-width:2;stroke-linecap:butt;stroke-linejoin:miter;stroke:rgb(0%,0%,0%);stroke-opacity:1;stroke-miterlimit:4;" d="M 241.999699 420.000203 L 257.999756 426.500065 L 286.000114 418.000326 L 301.499943 416.000448 L 333.500057 414.999992 L 349.500114 415.50022 L 429.500399 415.50022 L 445.500456 416.000448 L 461.500513 409.99978 L 477.499536 409.99978 L 493.999821 410.500008 L 509.999878 410.500008 " transform="matrix(3.779528,0,0,3.779528,0,0)"/>
<path style="fill:none;stroke-width:2;stroke-linecap:butt;stroke-linejoin:miter;stroke:rgb(0%,0%,0%);stroke-opacity:1;stroke-miterlimit:4;" d="M 429.000171 396.499829 L 420.999626 380.499772 L 416.99987 364.499715 L 412.499886 348.499658 " transform="matrix(3.779528,0,0,3.779528,0,0)"/>
<path style="fill:none;stroke-width:2;stroke-linecap:butt;stroke-linejoin:miter;stroke:rgb(0%,0%,0%);stroke-opacity:1;stroke-miterlimit:4;" d="M 413.500342 345.500358 L 411.500464 361.500415 L 416.000448 377.500472 " transform="matrix(3.779528,0,0,3.779528,0,0)"/>
<path style="fill:none;stroke-width:2;stroke-linecap:butt;stroke-linejoin:miter;stroke:rgb(0%,0%,0%);stroke-opacity:1;stroke-miterlimit:4;" d="M 333.500057 399.500163 L 317.5 399.500163 L 301.499943 401.500041 L 286.000114 399.500163 L 270.500285 399.500163 L 254.500228 397.500285 L 238.500171 397.500285 L 224.499992 393.499495 L 232.000309 377.500472 L 233.499959 361.999609 L 239.499593 345.999552 L 235.499837 354.000098 " transform="matrix(3.779528,0,0,3.779528,0,0)"/>
<path style="fill:none;stroke-width:2;stroke-linecap:butt;stroke-linejoin:miter;stroke:rgb(0%,0%,0%);stroke-opacity:1;stroke-miterlimit:4;" d="M 228.499748 384.000334 L 212.999919 398.000513 L 193.500334 409.499552 L 178.000505 409.99978 L 161.50022 411.500464 L 96.999764 411.500464 L 80.999707 409.499552 L 64.500456 409.99978 L 48.500399 409.99978 L 32.000114 410.500008 L 16.000057 411.000236 L 14.000179 400.999813 L 12.000301 384.499528 L 14.000179 364.499715 L 21.999691 348.499658 L 23.500374 332.499601 L 35.499642 300.499487 L 42.999959 284.500464 L 46.499487 268.500407 L 50.500277 252.999544 L 54.500033 236.999487 L 59.000016 221.000464 L 73.500423 204.500179 L 77.500179 187.999894 L 84.000041 171.999837 L 88.500024 155.499552 L 96.999764 139.999723 L 103.499626 123.999666 L 99.49987 134.00009 L 83.499813 173.999715 " transform="matrix(3.779528,0,0,3.779528,0,0)"/>
<path style="fill:none;stroke-width:2;stroke-linecap:butt;stroke-linejoin:miter;stroke:rgb(0%,0%,0%);stroke-opacity:1;stroke-miterlimit:4;" d="M 107.000187 178.000505 L 109.000065 165.499976 L 125.000122 148.999691 L 127 155.000358 L 110.999943 171.000415 L 104.500081 187.000472 L 103.000431 202.999495 L 100.99952 218.999552 L 110.999943 235.499837 L 137.000423 251.499894 " transform="matrix(3.779528,0,0,3.779528,0,0)"/>
<path style="fill:none;stroke-width:2;stroke-linecap:butt;stroke-linejoin:miter;stroke:rgb(0%,0%,0%);stroke-opacity:1;stroke-miterlimit:4;" d="M 155.499552 216.999674 L 139.499495 207.000285 " transform="matrix(3.779528,0,0,3.779528,0,0)"/>
<path style="fill:none;stroke-width:2;stroke-linecap:butt;stroke-linejoin:miter;stroke:rgb(0%,0%,0%);stroke-opacity:1;stroke-miterlimit:4;" d="M 137.499618 191.500456 L 153.499674 173.499487 L 169.499731 179.500155 L 165.499976 186.000016 L 166.999626 202.500301 " transform="matrix(3.779528,0,0,3.779528,0,0)"/>
<path style="fill:none;stroke-width:2;stroke-linecap:butt;stroke-linejoin:miter;stroke:rgb(0%,0%,0%);stroke-opacity:1;stroke-miterlimit:4;" d="M 159.500342 200.500423 L 166.000203 186.000016 L 150.000146 184.500366 " transform="matrix(3.779528,0,0,3.779528,0,0)"/>
<path style="fill:none;stroke-width:2;stroke-linecap:butt;stroke-linejoin:miter;stroke:rgb(0%,0%,0%);stroke-opacity:1;stroke-miterlimit:4;" d="M 144.999935 188.500122 L 143.000057 204.500179 L 150.999569 196.000439 " transform="matrix(3.779528,0,0,3.779528,0,0)"/>
<path style="fill:none;stroke-width:2;stroke-linecap:butt;stroke-linejoin:miter;stroke:rgb(0%,0%,0%);stroke-opacity:1;stroke-miterlimit:4;" d="M 143.500285 189.999772 L 169.499731 182.00026 L 175.500399 198.499512 L 167.499854 214.499569 " transform="matrix(3.779528,0,0,3.779528,0,0)"/>
<path style="fill:none;stroke-width:2;stroke-linecap:butt;stroke-linejoin:miter;stroke:rgb(0%,0%,0%);stroke-opacity:1;stroke-miterlimit:4;" d="M 185.499788 239.499593 L 198.000317 223.000342 L 205.999829 207.000285 L 205.999829 191.000228 L 200.000195 175.000171 L 186.000016 159.000114 L 166.000203 139.000301 L 150.000146 137.499618 L 134.00009 143.500285 " transform="matrix(3.779528,0,0,3.779528,0,0)"/>
<path style="fill:none;stroke-width:2;stroke-linecap:butt;stroke-linejoin:miter;stroke:rgb(0%,0%,0%);stroke-opacity:1;stroke-miterlimit:4;" d="M 146.000391 138.500073 L 119.499683 153.999902 L 103.499626 171.499609 L 97.499992 187.499666 L 98.00022 150.000146 " transform="matrix(3.779528,0,0,3.779528,0,0)"/>
<path style="fill:none;stroke-width:2;stroke-linecap:butt;stroke-linejoin:miter;stroke:rgb(0%,0%,0%);stroke-opacity:1;stroke-miterlimit:4;" d="M 80.000285 147.500041 L 87.999797 130.999756 " transform="matrix(3.779528,0,0,3.779528,0,0)"/>
<path style="fill:none;stroke-width:2;stroke-linecap:butt;stroke-linejoin:miter;stroke:rgb(0%,0%,0%);stroke-opacity:1;stroke-miterlimit:4;" d="M 81.499935 133.499862 L 69.499634 155.499552 L 78.000407 139.499495 L 87.999797 123.500472 " transform="matrix(3.779528,0,0,3.779528,0,0)"/>
<path style="fill:none;stroke-width:2;stroke-linecap:butt;stroke-linejoin:miter;stroke:rgb(0%,0%,0%);stroke-opacity:1;stroke-miterlimit:4;" d="M 107.000187 121.999788 L 103.499626 137.999845 L 96.999764 153.499674 L 91.500358 169.499731 L 85.499691 185.499788 L 82.000163 201.499845 L 87.999797 217.499902 L 88.500024 230.000431 " transform="matrix(3.779528,0,0,3.779528,0,0)"/>
<path style="fill:none;stroke-width:2;stroke-linecap:butt;stroke-linejoin:miter;stroke:rgb(0%,0%,0%);stroke-opacity:1;stroke-miterlimit:4;" d="M 84.000041 227.99952 L 82.000163 212.000496 " transform="matrix(3.779528,0,0,3.779528,0,0)"/>
<path style="fill:none;stroke-width:2;stroke-linecap:butt;stroke-linejoin:miter;stroke:rgb(0%,0%,0%);stroke-opacity:1;stroke-miterlimit:4;" d="M 104.500081 213.500146 L 109.999487 229.500203 L 132.000212 245.50026 " transform="matrix(3.779528,0,0,3.779528,0,0)"/>
<path style="fill:none;stroke-width:2;stroke-linecap:butt;stroke-linejoin:miter;stroke:rgb(0%,0%,0%);stroke-opacity:1;stroke-miterlimit:4;" d="M 105.000309 212.000496 L 121.000366 236.000065 L 137.000423 245.50026 L 152.500252 251.499894 L 168.500309 250.000244 L 184.000138 241.999699 L 200.500423 221.999886 " transform="matrix(3.779528,0,0,3.779528,0,0)"/>
<path style="fill:none;stroke-width:2;stroke-linecap:butt;stroke-linejoin:miter;stroke:rgb(0%,0%,0%);stroke-opacity:1;stroke-miterlimit:4;" d="M 207.000285 235.499837 L 223.000342 217.499902 " transform="matrix(3.779528,0,0,3.779528,0,0)"/>
<path style="fill:none;stroke-width:2;stroke-linecap:butt;stroke-linejoin:miter;stroke:rgb(0%,0%,0%);stroke-opacity:1;stroke-miterlimit:4;" d="M 232.499504 193.999528 L 216.50048 176.499821 L 200.500423 154.50013 " transform="matrix(3.779528,0,0,3.779528,0,0)"/>
<path style="fill:none;stroke-width:2;stroke-linecap:butt;stroke-linejoin:miter;stroke:rgb(0%,0%,0%);stroke-opacity:1;stroke-miterlimit:4;" d="M 195.500212 150.000146 L 203.499723 162.000448 L 214.999797 178.499699 L 230.999854 194.499756 L 223.499536 210.499813 L 209.500391 226.49987 L 197.50009 242.499927 L 209.500391 248.000366 L 225.500448 248.000366 L 241.500505 232.000309 L 257.999756 223.499536 L 273.499585 239.499593 L 289.499642 246.99991 L 305.499699 248.999788 " transform="matrix(3.779528,0,0,3.779528,0,0)"/>
<path style="fill:none;stroke-width:2;stroke-linecap:butt;stroke-linejoin:miter;stroke:rgb(0%,0%,0%);stroke-opacity:1;stroke-miterlimit:4;" d="M 268.999601 256.500106 L 253.499772 246.499683 " transform="matrix(3.779528,0,0,3.779528,0,0)"/>
<path style="fill:none;stroke-width:2;stroke-linecap:butt;stroke-linejoin:miter;stroke:rgb(0%,0%,0%);stroke-opacity:1;stroke-miterlimit:4;" d="M 250.500472 241.999699 L 266.499495 250.000244 " transform="matrix(3.779528,0,0,3.779528,0,0)"/>
<path style="fill:none;stroke-width:2;stroke-linecap:butt;stroke-linejoin:miter;stroke:rgb(0%,0%,0%);stroke-opacity:1;stroke-miterlimit:4;" d="M 270.000057 244.499805 L 254 227.99952 L 237.999943 243.999577 L 221.499658 254 L 205.499601 254 " transform="matrix(3.779528,0,0,3.779528,0,0)"/>
<path style="fill:none;stroke-width:2;stroke-linecap:butt;stroke-linejoin:miter;stroke:rgb(0%,0%,0%);stroke-opacity:1;stroke-miterlimit:4;" d="M 205.499601 282.499552 L 193.500334 314.499666 L 189.499544 330.499723 L 187.499666 345.999552 " transform="matrix(3.779528,0,0,3.779528,0,0)"/>
<path style="fill:none;stroke-width:2;stroke-linecap:butt;stroke-linejoin:miter;stroke:rgb(0%,0%,0%);stroke-opacity:1;stroke-miterlimit:4;" d="M 203.999951 362.499837 L 202.000073 379.000122 L 201.499845 395.000179 " transform="matrix(3.779528,0,0,3.779528,0,0)"/>
<path style="fill:none;stroke-width:2;stroke-linecap:butt;stroke-linejoin:miter;stroke:rgb(0%,0%,0%);stroke-opacity:1;stroke-miterlimit:4;" d="M 241.999699 414.499764 L 257.999756 416.499642 L 272.500163 426.500065 L 276.499919 443.00035 L 290.500098 454.999618 " transform="matrix(3.779528,0,0,3.779528,0,0)"/>
<path style="fill:none;stroke-width:2;stroke-linecap:butt;stroke-linejoin:miter;stroke:rgb(0%,0%,0%);stroke-opacity:1;stroke-miterlimit:4;" d="M 332.999829 461.000285 L 316.999772 461.500513 L 300.499487 459.499601 L 284.500464 461.500513 L 205.000407 461.500513 L 189.00035 461.999707 L 173.499487 461.999707 " transform="matrix(3.779528,0,0,3.779528,0,0)"/>
<path style="fill:none;stroke-width:2;stroke-linecap:butt;stroke-linejoin:miter;stroke:rgb(0%,0%,0%);stroke-opacity:1;stroke-miterlimit:4;" d="M 166.500431 461.000285 L 182.00026 455.499845 " transform="matrix(3.779528,0,0,3.779528,0,0)"/>
<path style="fill:none;stroke-width:2;stroke-linecap:butt;stroke-linejoin:miter;stroke:rgb(0%,0%,0%);stroke-opacity:1;stroke-miterlimit:4;" d="M 180.999805 436.500488 L 168.999504 452.499512 L 168.500309 452.499512 L 184.500366 436.500488 L 200.500423 436.500488 L 216.50048 438.500366 L 232.499504 436.00026 " transform="matrix(3.779528,0,0,3.779528,0,0)"/>
<path style="fill:none;stroke-width:2;stroke-linecap:butt;stroke-linejoin:miter;stroke:rgb(0%,0%,0%);stroke-opacity:1;stroke-miterlimit:4;" d="M 230.999854 443.00035 L 234.999609 425.000415 L 227.000098 416.99987 L 210.499813 417.500098 L 194.499756 416.99987 L 178.499699 416.99987 L 162.499642 418.999748 L 146.499585 418.999748 L 130.499528 418.49952 L 98.999642 418.49952 L 82.999585 418.000326 L 18.500163 418.000326 L 3.000334 415.50022 " transform="matrix(3.779528,0,0,3.779528,0,0)"/>
<path style="fill:none;stroke-width:2;stroke-linecap:butt;stroke-linejoin:miter;stroke:rgb(0%,0%,0%);stroke-opacity:1;stroke-miterlimit:4;" d="M 14.999601 397.500285 L 30.999658 399.500163 L 46.499487 389.999967 " transform="matrix(3.779528,0,0,3.779528,0,0)"/>
<path style="fill:none;stroke-width:2;stroke-linecap:butt;stroke-linejoin:miter;stroke:rgb(0%,0%,0%);stroke-opacity:1;stroke-miterlimit:4;" d="M 19.000391 355.499748 L 3.000334 373.99991 " transform="matrix(3.779528,0,0,3.779528,0,0)"/>
<path style="fill:none;stroke-width:2;stroke-linecap:butt;stroke-linejoin:miter;stroke:rgb(0%,0%,0%);stroke-opacity:1;stroke-miterlimit:4;" d="M 23.999569 334.000285 L 39.999626 295.999504 L 59.500244 293.999626 L 57.000138 309.500488 L 50.500277 325.499512 L 46.499487 341.999797 L 41.999504 357.499626 L 37.999748 373.499683 L 35.99987 388.999512 L 46.000293 399.500163 L 62.00035 401.500041 L 78.000407 401.500041 L 94.000464 395.000179 L 109.999487 397.000057 L 126.499772 395.500407 L 142.499829 375.499561 L 158.499886 364.999943 L 156.500008 366.999821 L 136.500195 381 " transform="matrix(3.779528,0,0,3.779528,0,0)"/>
<path style="fill:none;stroke-width:2;stroke-linecap:butt;stroke-linejoin:miter;stroke:rgb(0%,0%,0%);stroke-opacity:1;stroke-miterlimit:4;" d="M 51.499699 379.999544 L 53.499577 363.999487 L 57.500366 347.500236 L 63.5 331.500179 L 67.499756 314.999894 L 69.499634 298.999837 " transform="matrix(3.779528,0,0,3.779528,0,0)"/>
<path style="fill:none;stroke-width:2;stroke-linecap:butt;stroke-linejoin:miter;stroke:rgb(0%,0%,0%);stroke-opacity:1;stroke-miterlimit:4;" d="M 87.000374 291.999748 L 85.000496 307.499577 L 81.499935 323.499634 L 78.000407 339.499691 L 76.499723 355.499748 L 78.499601 372.000033 L 82.999585 388.00009 L 105.000309 402.000269 L 120.500138 402.000269 L 136.500195 400.000391 L 152.500252 400.499585 L 168.500309 400.499585 L 184.500366 400.000391 L 200.500423 402.000269 " transform="matrix(3.779528,0,0,3.779528,0,0)"/>
<path style="fill:none;stroke-width:2;stroke-linecap:butt;stroke-linejoin:miter;stroke:rgb(0%,0%,0%);stroke-opacity:1;stroke-miterlimit:4;" d="M 291.000326 391.499618 L 286.999536 375.000366 L 282.99978 358.500081 L 280.499674 342.500024 " transform="matrix(3.779528,0,0,3.779528,0,0)"/>
<path style="fill:none;stroke-width:2;stroke-linecap:butt;stroke-linejoin:miter;stroke:rgb(0%,0%,0%);stroke-opacity:1;stroke-miterlimit:4;" d="M 277.999569 341.499569 L 278.499797 357.499626 " transform="matrix(3.779528,0,0,3.779528,0,0)"/>
<path style="fill:none;stroke-width:2;stroke-linecap:butt;stroke-linejoin:miter;stroke:rgb(0%,0%,0%);stroke-opacity:1;stroke-miterlimit:4;" d="M 336.000163 388.00009 L 329.999495 371.499805 L 320.000106 345.500358 L 321.499756 329.500301 L 324.50009 313.500244 L 326.499967 297.500187 " transform="matrix(3.779528,0,0,3.779528,0,0)"/>
<path style="fill:none;stroke-width:2;stroke-linecap:butt;stroke-linejoin:miter;stroke:rgb(0%,0%,0%);stroke-opacity:1;stroke-miterlimit:4;" d="M 264.000423 257.000334 L 252.000122 241.000277 " transform="matrix(3.779528,0,0,3.779528,0,0)"/>
<path style="fill:none;stroke-width:2;stroke-linecap:butt;stroke-linejoin:miter;stroke:rgb(0%,0%,0%);stroke-opacity:1;stroke-miterlimit:4;" d="M 260.499862 228.499748 L 270.500285 244.499805 L 288.50022 254.500228 L 304.500277 254.500228 " transform="matrix(3.779528,0,0,3.779528,0,0)"/>
<path style="fill:none;stroke-width:2;stroke-linecap:butt;stroke-linejoin:miter;stroke:rgb(0%,0%,0%);stroke-opacity:1;stroke-miterlimit:4;" d="M 257.000334 222.500114 L 244.499805 238.500171 " transform="matrix(3.779528,0,0,3.779528,0,0)"/>
<path style="fill:none;stroke-width:2;stroke-linecap:butt;stroke-linejoin:miter;stroke:rgb(0%,0%,0%);stroke-opacity:1;stroke-miterlimit:4;" d="M 238.500171 236.500293 L 252.50035 220.500236 " transform="matrix(3.779528,0,0,3.779528,0,0)"/>
<path style="fill:none;stroke-width:2;stroke-linecap:butt;stroke-linejoin:miter;stroke:rgb(0%,0%,0%);stroke-opacity:1;stroke-miterlimit:4;" d="M 275.500496 196.000439 L 291.49952 171.499609 L 303.499821 161.50022 L 319.499878 145.500163 L 335.499935 135.49974 L 350.999764 131.499984 L 367.500049 135.49974 L 386.000212 144.999935 L 402.000269 161.50022 " transform="matrix(3.779528,0,0,3.779528,0,0)"/>
<path style="fill:none;stroke-width:2;stroke-linecap:butt;stroke-linejoin:miter;stroke:rgb(0%,0%,0%);stroke-opacity:1;stroke-miterlimit:4;" d="M 348.999886 168.500309 L 334.999707 184.500366 L 330.999951 200.000195 L 339.000496 216.000252 L 352.500448 216.000252 " transform="matrix(3.779528,0,0,3.779528,0,0)"/>
<path style="fill:none;stroke-width:2;stroke-linecap:butt;stroke-linejoin:miter;stroke:rgb(0%,0%,0%);stroke-opacity:1;stroke-miterlimit:4;" d="M 330.999951 250.000244 L 314.499666 246.000488 L 302.000171 234.500415 L 301.499943 218.500358 L 295.500309 202.999495 L 297.500187 187.000472 L 303.499821 171.499609 L 317.5 155.499552 L 345.500358 139.499495 " transform="matrix(3.779528,0,0,3.779528,0,0)"/>
<path style="fill:none;stroke-width:2;stroke-linecap:butt;stroke-linejoin:miter;stroke:rgb(0%,0%,0%);stroke-opacity:1;stroke-miterlimit:4;" d="M 348.000464 131.499984 L 318.000228 147.500041 L 302.000171 164.000326 L 291.999748 180.000382 L 289.99987 195.500212 L 292.499976 211.500269 L 311.999561 231.500081 L 339.999919 247.500138 L 348.000464 253.499772 L 364.499715 251.499894 L 386.999634 239.499593 L 402.500496 223.999764 " transform="matrix(3.779528,0,0,3.779528,0,0)"/>
<path style="fill:none;stroke-width:2;stroke-linecap:butt;stroke-linejoin:miter;stroke:rgb(0%,0%,0%);stroke-opacity:1;stroke-miterlimit:4;" d="M 495.000277 168.999504 L 491.499715 153.00048 L 489.499837 137.000423 L 489.499837 121.499561 L 490.000065 115.499927 " transform="matrix(3.779528,0,0,3.779528,0,0)"/>
<path style="fill:none;stroke-width:2;stroke-linecap:butt;stroke-linejoin:miter;stroke:rgb(0%,0%,0%);stroke-opacity:1;stroke-miterlimit:4;" d="M 495.500505 114.999699 L 495.500505 146.999813 L 499.50026 163.500098 " transform="matrix(3.779528,0,0,3.779528,0,0)"/>
<path style="fill:none;stroke-width:2;stroke-linecap:butt;stroke-linejoin:miter;stroke:rgb(0%,0%,0%);stroke-opacity:1;stroke-miterlimit:4;" d="M 499.000033 54.500033 L 483.500203 52.500155 L 467.500146 51.999927 L 386.500439 51.999927 L 370.000155 51.499699 L 354.000098 51.000505 L 305.499699 51.000505 L 289.499642 51.499699 L 241.999699 51.499699 L 225.999642 51.999927 L 210.499813 51.999927 L 194.999984 52.500155 L 130.999756 52.500155 L 114.999699 51.999927 L 98.999642 51.999927 L 82.999585 51.499699 L 66.999528 51.999927 L 51.000505 51.999927 L 35.000448 54.500033 L 3.000334 54.500033 " transform="matrix(3.779528,0,0,3.779528,0,0)"/>
<path style="fill:none;stroke-width:2;stroke-linecap:butt;stroke-linejoin:miter;stroke:rgb(0%,0%,0%);stroke-opacity:1;stroke-miterlimit:4;" d="M 1.999878 62.499544 L 17.999935 62.499544 L 33.999992 60.000472 L 50.000049 60.000472 L 66.000106 59.500244 L 82.500391 59.000016 L 114.500505 60.000472 L 130.499528 60.499666 L 146.999813 60.499666 L 162.99987 60.999894 L 178.999927 60.999894 L 200.999618 62.999772 L 194.499756 78.499601 L 202.000073 60.000472 L 218.00013 60.000472 L 234.000187 59.500244 L 250.000244 60.000472 L 266.000301 62.00035 " transform="matrix(3.779528,0,0,3.779528,0,0)"/>
<path style="fill:none;stroke-width:2;stroke-linecap:butt;stroke-linejoin:miter;stroke:rgb(0%,0%,0%);stroke-opacity:1;stroke-miterlimit:4;" d="M 316.999772 63.5 L 311.000138 79.500057 L 305.499699 95.500114 L 317.5 63.5 L 334.000285 60.999894 L 350.000342 57.500366 L 366.000399 57.500366 L 382.000456 60.000472 L 398.000513 60.000472 L 413.999536 62.499544 L 429.999593 60.499666 L 445.99965 60.999894 L 461.500513 62.999772 L 477.499536 60.499666 L 493.499593 60.499666 L 509.49965 62.00035 " transform="matrix(3.779528,0,0,3.779528,0,0)"/>
<path style="fill:none;stroke-width:2;stroke-linecap:butt;stroke-linejoin:miter;stroke:rgb(0%,0%,0%);stroke-opacity:1;stroke-miterlimit:4;" d="M 205.000407 185.499788 L 189.499544 162.000448 L 173.999715 150.000146 " transform="matrix(3.779528,0,0,3.779528,0,0)"/>
<path style="fill:none;stroke-width:2;stroke-linecap:butt;stroke-linejoin:miter;stroke:rgb(0%,0%,0%);stroke-opacity:1;stroke-miterlimit:4;" d="M 169.499731 146.000391 L 185.499788 150.500374 L 203.499723 153.00048 L 215.500024 169.499731 L 228.999976 186.000016 L 236.999487 202.500301 L 223.000342 218.999552 L 209.000163 234.999609 L 200.500423 236.999487 L 216.50048 216.999674 L 232.000309 200.999618 " transform="matrix(3.779528,0,0,3.779528,0,0)"/>
<path style="fill:none;stroke-width:2;stroke-linecap:butt;stroke-linejoin:miter;stroke:rgb(0%,0%,0%);stroke-opacity:1;stroke-miterlimit:4;" d="M 203.999951 225.500448 L 186.000016 247.500138 L 169.999959 254 L 184.000138 248.499561 L 202.000073 230.499626 L 209.999585 214.000374 L 212.000496 195.500212 L 207.999707 178.999927 L 198.000317 162.99987 L 180.000382 146.999813 L 162.499642 143.500285 L 146.999813 143.500285 L 130.999756 151.499797 L 114.999699 165.499976 " transform="matrix(3.779528,0,0,3.779528,0,0)"/>
<path style="fill:none;stroke-width:2;stroke-linecap:butt;stroke-linejoin:miter;stroke:rgb(0%,0%,0%);stroke-opacity:1;stroke-miterlimit:4;" d="M 151.499797 174.499943 L 139.499495 190.5 L 137.499618 206.500057 L 149.499919 222.500114 L 147.500041 220.500236 L 163.500098 218.00013 " transform="matrix(3.779528,0,0,3.779528,0,0)"/>
<path style="fill:none;stroke-width:2;stroke-linecap:butt;stroke-linejoin:miter;stroke:rgb(0%,0%,0%);stroke-opacity:1;stroke-miterlimit:4;" d="M 203.499723 291.49952 L 201.499845 307.499577 L 198.000317 323.499634 L 193.999528 339.999919 L 191.500456 355.999976 L 187.499666 372.000033 L 187.999894 388.00009 " transform="matrix(3.779528,0,0,3.779528,0,0)"/>
<path style="fill:none;stroke-width:2;stroke-linecap:butt;stroke-linejoin:miter;stroke:rgb(0%,0%,0%);stroke-opacity:1;stroke-miterlimit:4;" d="M 53.999805 263.500195 L 62.999772 231.500081 L 71.000317 216.000252 L 78.999829 209.999585 L 62.999772 230.499626 " transform="matrix(3.779528,0,0,3.779528,0,0)"/>
<path style="fill:none;stroke-width:2;stroke-linecap:butt;stroke-linejoin:miter;stroke:rgb(0%,0%,0%);stroke-opacity:1;stroke-miterlimit:4;" d="M 57.500366 206.500057 L 53.499577 222.500114 L 71.000317 206.500057 L 98.999642 218.500358 L 114.500505 239.999821 L 130.499528 250.000244 L 146.499585 255.49965 " transform="matrix(3.779528,0,0,3.779528,0,0)"/>
<path style="fill:none;stroke-width:2;stroke-linecap:butt;stroke-linejoin:miter;stroke:rgb(0%,0%,0%);stroke-opacity:1;stroke-miterlimit:4;" d="M 53.000382 218.500358 L 48.999593 218.500358 L 54.500033 202.500301 " transform="matrix(3.779528,0,0,3.779528,0,0)"/>
</g>
</svg>
