<?xml version="1.0" encoding="UTF-8"?>
<svg xmlns="http://www.w3.org/2000/svg" xmlns:xlink="http://www.w3.org/1999/xlink" width="1935.11811" height="1935.11811" viewBox="0 0 1935.11811 1935.11811" version="1.1">
<g id="surface1">
<path style="fill:none;stroke-width:2;stroke-linecap:butt;stroke-linejoin:miter;stroke:rgb(0%,0%,0%);stroke-opacity:1;stroke-miterlimit:4;" d="M 379.50035 164.49952 L 359.499504 180.499577 L 349.500114 180.499577 L 345.500358 184.500366 L 349.500114 196.999862 L 353.49987 202.999495 L 345.500358 216.999674 L 355.499748 234.999609 L 366.999821 250.999666 " transform="matrix(3.779528,0,0,3.779528,0,0)"/>
<path style="fill:none;stroke-width:2;stroke-linecap:butt;stroke-linejoin:miter;stroke:rgb(0%,0%,0%);stroke-opacity:1;stroke-miterlimit:4;" d="M 354.000098 225.00022 L 370.000155 248.999788 L 386.000212 257.499528 L 401.500041 253.499772 L 417.500098 237.999943 L 429.000171 232.000309 L 416.99987 248.000366 L 441.499666 234.500415 " transform="matrix(3.779528,0,0,3.779528,0,0)"/>
<path style="fill:none;stroke-width:2;stroke-linecap:butt;stroke-linejoin:miter;stroke:rgb(0%,0%,0%);stroke-opacity:1;stroke-miterlimit:4;" d="M 432.499699 226.49987 L 424.500187 248.499561 L 414.499764 258.499984 L 432.499699 246.499683 L 444.5 230.499626 L 446.499878 214.499569 " transform="matrix(3.779528,0,0,3.779528,0,0)"/>
<path style="fill:none;stroke-width:2;stroke-linecap:butt;stroke-linejoin:miter;stroke:rgb(0%,0%,0%);stroke-opacity:1;stroke-miterlimit:4;" d="M 423.499731 180.999805 L 407.499674 173.000293 " transform="matrix(3.779528,0,0,3.779528,0,0)"/>
<path style="fill:none;stroke-width:2;stroke-linecap:butt;stroke-linejoin:miter;stroke:rgb(0%,0%,0%);stroke-opacity:1;stroke-miterlimit:4;" d="M 407.999902 166.999626 L 425.999837 183.49991 " transform="matrix(3.779528,0,0,3.779528,0,0)"/>
<path style="fill:none;stroke-width:2;stroke-linecap:butt;stroke-linejoin:miter;stroke:rgb(0%,0%,0%);stroke-opacity:1;stroke-miterlimit:4;" d="M 427.499487 175.999593 L 411.500464 168.000081 L 395.500407 168.500309 L 379.50035 170.500187 L 363.500293 182.500488 L 336.999585 170.500187 L 320.999528 172.500065 L 305.499699 175.999593 L 289.499642 189.999772 " transform="matrix(3.779528,0,0,3.779528,0,0)"/>
<path style="fill:none;stroke-width:2;stroke-linecap:butt;stroke-linejoin:miter;stroke:rgb(0%,0%,0%);stroke-opacity:1;stroke-miterlimit:4;" d="M 280.00048 196.000439 L 291.49952 187.999894 L 280.999902 203.499723 L 279.000024 219.49978 L 282.99978 235.499837 L 298.999837 252.000122 L 325.000317 259.999634 L 343.000252 239.999821 L 361.500415 250.000244 " transform="matrix(3.779528,0,0,3.779528,0,0)"/>
<path style="fill:none;stroke-width:2;stroke-linecap:butt;stroke-linejoin:miter;stroke:rgb(0%,0%,0%);stroke-opacity:1;stroke-miterlimit:4;" d="M 370.999577 221.499658 L 386.999634 239.499593 L 402.999691 234.000187 " transform="matrix(3.779528,0,0,3.779528,0,0)"/>
<path style="fill:none;stroke-width:2;stroke-linecap:butt;stroke-linejoin:miter;stroke:rgb(0%,0%,0%);stroke-opacity:1;stroke-miterlimit:4;" d="M 402.000269 236.500293 L 413.999536 220.500236 L 413.999536 203.999951 L 404.000146 189.999772 L 387.499862 186.000016 L 371.499805 202.000073 " transform="matrix(3.779528,0,0,3.779528,0,0)"/>
<path style="fill:none;stroke-width:2;stroke-linecap:butt;stroke-linejoin:miter;stroke:rgb(0%,0%,0%);stroke-opacity:1;stroke-miterlimit:4;" d="M 356.500203 193.999528 L 330.499723 191.99965 L 314.499666 194.499756 L 298.499609 212.499691 " transform="matrix(3.779528,0,0,3.779528,0,0)"/>
<path style="fill:none;stroke-width:2;stroke-linecap:butt;stroke-linejoin:miter;stroke:rgb(0%,0%,0%);stroke-opacity:1;stroke-miterlimit:4;" d="M 300.000293 227.500326 L 316.00035 233.499959 L 320.000106 239.499593 L 334.000285 235.499837 " transform="matrix(3.779528,0,0,3.779528,0,0)"/>
<path style="fill:none;stroke-width:2;stroke-linecap:butt;stroke-linejoin:miter;stroke:rgb(0%,0%,0%);stroke-opacity:1;stroke-miterlimit:4;" d="M 332.999829 245.50026 L 329.000073 249.500016 L 313.000016 257.499528 L 296.999959 250.000244 L 281.50013 227.99952 " transform="matrix(3.779528,0,0,3.779528,0,0)"/>
<path style="fill:none;stroke-width:2;stroke-linecap:butt;stroke-linejoin:miter;stroke:rgb(0%,0%,0%);stroke-opacity:1;stroke-miterlimit:4;" d="M 275.500496 225.999642 L 291.49952 250.500472 " transform="matrix(3.779528,0,0,3.779528,0,0)"/>
<path style="fill:none;stroke-width:2;stroke-linecap:butt;stroke-linejoin:miter;stroke:rgb(0%,0%,0%);stroke-opacity:1;stroke-miterlimit:4;" d="M 275.500496 240.500049 L 259.500439 246.000488 L 243.500382 234.000187 " transform="matrix(3.779528,0,0,3.779528,0,0)"/>
<path style="fill:none;stroke-width:2;stroke-linecap:butt;stroke-linejoin:miter;stroke:rgb(0%,0%,0%);stroke-opacity:1;stroke-miterlimit:4;" d="M 255.000456 238.500171 L 241.000277 222.500114 L 247.500138 205.999829 L 269.499829 187.499666 L 253.499772 191.500456 L 237.499715 209.500391 " transform="matrix(3.779528,0,0,3.779528,0,0)"/>
<path style="fill:none;stroke-width:2;stroke-linecap:butt;stroke-linejoin:miter;stroke:rgb(0%,0%,0%);stroke-opacity:1;stroke-miterlimit:4;" d="M 241.500505 214.999797 L 259.500439 194.999984 L 283.500008 189.00035 L 299.500065 173.499487 L 315.500122 165.499976 L 333.500057 175.500399 L 350.000342 196.000439 L 366.000399 174.499943 " transform="matrix(3.779528,0,0,3.779528,0,0)"/>
<path style="fill:none;stroke-width:2;stroke-linecap:butt;stroke-linejoin:miter;stroke:rgb(0%,0%,0%);stroke-opacity:1;stroke-miterlimit:4;" d="M 384.000334 167.499854 L 361.999609 183.49991 L 351.499992 211.500269 L 355.499748 243.500382 " transform="matrix(3.779528,0,0,3.779528,0,0)"/>
<path style="fill:none;stroke-width:2;stroke-linecap:butt;stroke-linejoin:miter;stroke:rgb(0%,0%,0%);stroke-opacity:1;stroke-miterlimit:4;" d="M 300.999715 257.000334 L 271.000513 248.999788 L 255.000456 259.000212 L 239.000399 251.499894 L 223.000342 230.000431 " transform="matrix(3.779528,0,0,3.779528,0,0)"/>
<path style="fill:none;stroke-width:2;stroke-linecap:butt;stroke-linejoin:miter;stroke:rgb(0%,0%,0%);stroke-opacity:1;stroke-miterlimit:4;" d="M 236.000065 219.49978 L 252.000122 233.499959 L 277.999569 246.99991 " transform="matrix(3.779528,0,0,3.779528,0,0)"/>
<path style="fill:none;stroke-width:2;stroke-linecap:butt;stroke-linejoin:miter;stroke:rgb(0%,0%,0%);stroke-opacity:1;stroke-miterlimit:4;" d="M 230.499626 255.000456 L 218.500358 239.000399 L 220.500236 223.000342 L 220.500236 196.999862 L 232.499504 180.499577 L 266.499495 166.500431 L 250.999666 168.500309 L 234.999609 178.000505 L 218.999552 198.000317 L 202.999495 205.999829 L 187.000472 205.999829 L 170.500187 191.99965 L 155.000358 177.500277 " transform="matrix(3.779528,0,0,3.779528,0,0)"/>
<path style="fill:none;stroke-width:2;stroke-linecap:butt;stroke-linejoin:miter;stroke:rgb(0%,0%,0%);stroke-opacity:1;stroke-miterlimit:4;" d="M 153.999902 171.999837 L 173.499487 187.999894 " transform="matrix(3.779528,0,0,3.779528,0,0)"/>
<path style="fill:none;stroke-width:2;stroke-linecap:butt;stroke-linejoin:miter;stroke:rgb(0%,0%,0%);stroke-opacity:1;stroke-miterlimit:4;" d="M 160.999992 175.500399 L 144.999935 169.499731 L 128.999878 165.499976 L 112.999821 168.999504 L 96.999764 182.500488 L 80.500513 208.499935 " transform="matrix(3.779528,0,0,3.779528,0,0)"/>
<path style="fill:none;stroke-width:2;stroke-linecap:butt;stroke-linejoin:miter;stroke:rgb(0%,0%,0%);stroke-opacity:1;stroke-miterlimit:4;" d="M 89.999674 200.500423 L 105.999731 182.999683 L 121.499561 173.000293 L 137.499618 172.500065 L 153.499674 184.500366 L 169.499731 202.000073 L 191.99965 212.000496 L 207.500513 212.000496 L 223.999764 198.000317 L 239.999821 180.000382 L 255.999878 171.999837 L 271.999935 168.500309 " transform="matrix(3.779528,0,0,3.779528,0,0)"/>
<path style="fill:none;stroke-width:2;stroke-linecap:butt;stroke-linejoin:miter;stroke:rgb(0%,0%,0%);stroke-opacity:1;stroke-miterlimit:4;" d="M 277.500374 171.499609 L 271.499707 187.499666 L 277.500374 189.499544 L 247.500138 198.99974 L 237.499715 214.999797 L 239.499593 230.499626 L 259.999634 246.499683 " transform="matrix(3.779528,0,0,3.779528,0,0)"/>
<path style="fill:none;stroke-width:2;stroke-linecap:butt;stroke-linejoin:miter;stroke:rgb(0%,0%,0%);stroke-opacity:1;stroke-miterlimit:4;" d="M 316.499544 261.500317 L 340.500146 246.000488 L 330.499723 236.000065 L 307.000382 238.500171 L 296.999959 222.500114 L 299.500065 206.500057 L 321.499756 190.5 " transform="matrix(3.779528,0,0,3.779528,0,0)"/>
<path style="fill:none;stroke-width:2;stroke-linecap:butt;stroke-linejoin:miter;stroke:rgb(0%,0%,0%);stroke-opacity:1;stroke-miterlimit:4;" d="M 313.500244 164.999748 L 289.499642 180.999805 L 277.500374 198.99974 L 273.499585 215.500024 L 275.999691 232.000309 L 277.999569 246.499683 " transform="matrix(3.779528,0,0,3.779528,0,0)"/>
<path style="fill:none;stroke-width:2;stroke-linecap:butt;stroke-linejoin:miter;stroke:rgb(0%,0%,0%);stroke-opacity:1;stroke-miterlimit:4;" d="M 241.500505 255.999878 L 225.500448 240.500049 L 213.500146 220.500236 L 221.499658 204.500179 L 231.500081 188.500122 L 251.499894 172.500065 " transform="matrix(3.779528,0,0,3.779528,0,0)"/>
<path style="fill:none;stroke-width:2;stroke-linecap:butt;stroke-linejoin:miter;stroke:rgb(0%,0%,0%);stroke-opacity:1;stroke-miterlimit:4;" d="M 167.499854 229.500203 L 151.499797 252.000122 L 134.999512 262.49974 L 119.000488 262.49974 L 103.000431 252.50035 L 86.500146 230.499626 " transform="matrix(3.779528,0,0,3.779528,0,0)"/>
<path style="fill:none;stroke-width:2;stroke-linecap:butt;stroke-linejoin:miter;stroke:rgb(0%,0%,0%);stroke-opacity:1;stroke-miterlimit:4;" d="M 83.499813 235.499837 L 99.49987 255.49965 " transform="matrix(3.779528,0,0,3.779528,0,0)"/>
<path style="fill:none;stroke-width:2;stroke-linecap:butt;stroke-linejoin:miter;stroke:rgb(0%,0%,0%);stroke-opacity:1;stroke-miterlimit:4;" d="M 119.000488 242.499927 L 107.000187 226.49987 L 109.000065 209.999585 L 119.000488 193.500334 L 128.999878 195.500212 L 112.999821 209.999585 " transform="matrix(3.779528,0,0,3.779528,0,0)"/>
<path style="fill:none;stroke-width:2;stroke-linecap:butt;stroke-linejoin:miter;stroke:rgb(0%,0%,0%);stroke-opacity:1;stroke-miterlimit:4;" d="M 107.000187 212.499691 L 123.000244 192.499878 L 138.500073 194.499756 L 150.500374 208.499935 L 150.500374 224.499992 L 138.500073 240.500049 " transform="matrix(3.779528,0,0,3.779528,0,0)"/>
<path style="fill:none;stroke-width:2;stroke-linecap:butt;stroke-linejoin:miter;stroke:rgb(0%,0%,0%);stroke-opacity:1;stroke-miterlimit:4;" d="M 141.999601 227.99952 L 125.999544 240.500049 L 109.999487 220.500236 " transform="matrix(3.779528,0,0,3.779528,0,0)"/>
<path style="fill:none;stroke-width:2;stroke-linecap:butt;stroke-linejoin:miter;stroke:rgb(0%,0%,0%);stroke-opacity:1;stroke-miterlimit:4;" d="M 109.000065 228.499748 L 125.000122 244.499805 L 141.000179 238.500171 " transform="matrix(3.779528,0,0,3.779528,0,0)"/>
<path style="fill:none;stroke-width:2;stroke-linecap:butt;stroke-linejoin:miter;stroke:rgb(0%,0%,0%);stroke-opacity:1;stroke-miterlimit:4;" d="M 139.999723 232.999731 L 148.000269 217.499902 L 144.000513 201.499845 L 132.500439 199.499967 " transform="matrix(3.779528,0,0,3.779528,0,0)"/>
<path style="fill:none;stroke-width:2;stroke-linecap:butt;stroke-linejoin:miter;stroke:rgb(0%,0%,0%);stroke-opacity:1;stroke-miterlimit:4;" d="M 125.999544 196.000439 L 112.000399 212.000496 L 114.000277 227.99952 " transform="matrix(3.779528,0,0,3.779528,0,0)"/>
<path style="fill:none;stroke-width:2;stroke-linecap:butt;stroke-linejoin:miter;stroke:rgb(0%,0%,0%);stroke-opacity:1;stroke-miterlimit:4;" d="M 102.500203 251.499894 L 90.499902 236.000065 L 87.000374 220.000008 L 91.00013 203.999951 L 100.99952 188.500122 L 121.000366 172.500065 " transform="matrix(3.779528,0,0,3.779528,0,0)"/>
<path style="fill:none;stroke-width:2;stroke-linecap:butt;stroke-linejoin:miter;stroke:rgb(0%,0%,0%);stroke-opacity:1;stroke-miterlimit:4;" d="M 119.000488 165.499976 L 96.999764 181.500033 L 85.499691 197.50009 L 79.500057 213.500146 L 82.000163 228.999976 L 89.999674 245.50026 L 105.999731 261.500317 L 123.999666 270.000057 L 139.999723 268.000179 L 155.99978 256.500106 L 171.999837 234.500415 L 187.999894 227.000098 L 203.499723 227.000098 L 207.500513 232.499504 L 223.499536 246.499683 L 239.499593 259.999634 L 257.999756 264.000423 L 273.499585 255.999878 " transform="matrix(3.779528,0,0,3.779528,0,0)"/>
<path style="fill:none;stroke-width:2;stroke-linecap:butt;stroke-linejoin:miter;stroke:rgb(0%,0%,0%);stroke-opacity:1;stroke-miterlimit:4;" d="M 234.999609 319.499878 L 250.999666 323.499634 L 266.999723 325.499512 L 282.499552 325.499512 L 298.000415 325.000317 L 314.000472 327.000195 L 329.999495 318.99965 L 345.999552 321.499756 L 339.999919 338.000041 " transform="matrix(3.779528,0,0,3.779528,0,0)"/>
<path style="fill:none;stroke-width:2;stroke-linecap:butt;stroke-linejoin:miter;stroke:rgb(0%,0%,0%);stroke-opacity:1;stroke-miterlimit:4;" d="M 336.500391 348.000464 L 320.500334 336.500391 L 304.500277 330.499723 L 280.00048 340.500146 L 273.499585 346.49978 L 281.50013 344.499902 L 282.000358 334.000285 L 266.000301 332.499601 " transform="matrix(3.779528,0,0,3.779528,0,0)"/>
<path style="fill:none;stroke-width:2;stroke-linecap:butt;stroke-linejoin:miter;stroke:rgb(0%,0%,0%);stroke-opacity:1;stroke-miterlimit:4;" d="M 261.999512 338.000041 L 266.499495 333.500057 L 245.000033 329.999495 L 229.500203 329.999495 L 213.500146 323.999862 L 197.50009 321.999984 " transform="matrix(3.779528,0,0,3.779528,0,0)"/>
<path style="fill:none;stroke-width:2;stroke-linecap:butt;stroke-linejoin:miter;stroke:rgb(0%,0%,0%);stroke-opacity:1;stroke-miterlimit:4;" d="M 198.99974 318.000228 L 214.999797 320.000106 L 230.999854 319.499878 L 246.499683 315.500122 L 262.49974 320.000106 L 310.49991 320.000106 L 328.499845 327.999618 " transform="matrix(3.779528,0,0,3.779528,0,0)"/>
<path style="fill:none;stroke-width:2;stroke-linecap:butt;stroke-linejoin:miter;stroke:rgb(0%,0%,0%);stroke-opacity:1;stroke-miterlimit:4;" d="M 329.999495 347.000008 L 302.000171 330.999951 " transform="matrix(3.779528,0,0,3.779528,0,0)"/>
<path style="fill:none;stroke-width:2;stroke-linecap:butt;stroke-linejoin:miter;stroke:rgb(0%,0%,0%);stroke-opacity:1;stroke-miterlimit:4;" d="M 270.500285 398.999935 L 286.000114 397.500285 L 302.000171 397.500285 L 318.000228 398.000513 L 334.500513 398.000513 L 350.499536 398.499707 L 366.499593 398.999935 L 397.500285 398.999935 L 413.500342 398.499707 L 477.499536 398.499707 L 493.499593 398.000513 L 509.999878 398.000513 " transform="matrix(3.779528,0,0,3.779528,0,0)"/>
<path style="fill:none;stroke-width:2;stroke-linecap:butt;stroke-linejoin:miter;stroke:rgb(0%,0%,0%);stroke-opacity:1;stroke-miterlimit:4;" d="M 326.499967 361.500415 L 310.49991 361.500415 L 293.999626 361.000187 L 277.999569 359.000309 L 261.999512 357.499626 L 246.000488 355.499748 L 230.000431 355.499748 L 214.000374 354.99952 L 198.000317 353.49987 L 193.999528 359.499504 L 178.499699 357.999854 L 166.500431 337.499813 L 184.999561 333.500057 L 193.500334 320.000106 L 178.000505 320.000106 L 162.000448 318.000228 " transform="matrix(3.779528,0,0,3.779528,0,0)"/>
<path style="fill:none;stroke-width:2;stroke-linecap:butt;stroke-linejoin:miter;stroke:rgb(0%,0%,0%);stroke-opacity:1;stroke-miterlimit:4;" d="M 160.499764 320.500334 L 160.499764 336.500391 L 170.500187 344.499902 L 172.500065 332.499601 " transform="matrix(3.779528,0,0,3.779528,0,0)"/>
<path style="fill:none;stroke-width:2;stroke-linecap:butt;stroke-linejoin:miter;stroke:rgb(0%,0%,0%);stroke-opacity:1;stroke-miterlimit:4;" d="M 166.999626 332.499601 L 182.999683 327.999618 L 198.99974 327.999618 L 200.999618 335.499935 L 188.500122 337.499813 L 187.999894 353.49987 " transform="matrix(3.779528,0,0,3.779528,0,0)"/>
<path style="fill:none;stroke-width:2;stroke-linecap:butt;stroke-linejoin:miter;stroke:rgb(0%,0%,0%);stroke-opacity:1;stroke-miterlimit:4;" d="M 155.000358 319.499878 L 171.000415 313.500244 L 186.500244 316.00035 L 202.500301 314.000472 L 218.500358 314.000472 L 230.499626 327.999618 L 216.000252 332.000407 L 214.000374 348.499658 L 230.000431 336.500391 L 234.000187 341.000374 " transform="matrix(3.779528,0,0,3.779528,0,0)"/>
<path style="fill:none;stroke-width:2;stroke-linecap:butt;stroke-linejoin:miter;stroke:rgb(0%,0%,0%);stroke-opacity:1;stroke-miterlimit:4;" d="M 269.499829 404.500374 L 269.499829 436.500488 L 277.500374 452.499512 L 287.499764 463.999585 L 399.500163 463.999585 L 414.999992 464.499813 L 479.500448 464.499813 L 495.500505 463.999585 " transform="matrix(3.779528,0,0,3.779528,0,0)"/>
<path style="fill:none;stroke-width:2;stroke-linecap:butt;stroke-linejoin:miter;stroke:rgb(0%,0%,0%);stroke-opacity:1;stroke-miterlimit:4;" d="M 498.499805 479.999642 L 450.000439 479.999642 L 434.499577 480.49987 L 418.999748 480.49987 L 402.999691 479.999642 L 370.500382 479.999642 L 354.500326 479.500448 L 338.000041 479.999642 L 289.99987 479.999642 L 273.999813 480.49987 L 257.999756 480.49987 L 241.500505 481.000098 L 225.500448 480.49987 L 209.500391 480.49987 L 193.500334 479.999642 L 177.500277 479.00022 L 161.50022 479.00022 L 145.500163 479.500448 L 130.000334 479.500448 L 114.500505 479.999642 L 82.500391 479.999642 L 66.500334 481.99952 L 50.500277 481.99952 L 34.50022 481.500326 L 1.999878 481.500326 " transform="matrix(3.779528,0,0,3.779528,0,0)"/>
<path style="fill:none;stroke-width:2;stroke-linecap:butt;stroke-linejoin:miter;stroke:rgb(0%,0%,0%);stroke-opacity:1;stroke-miterlimit:4;" d="M 2.500106 475.000464 L 18.500163 475.499658 L 50.000049 475.499658 L 66.000106 475.999886 L 82.000163 474.000008 L 97.499992 475.999886 L 113.500049 473.49978 L 177.000049 473.49978 L 193.000106 474.000008 L 209.500391 474.500236 L 225.999642 474.500236 L 242.499927 475.000464 L 258.499984 474.500236 L 291.000326 474.500236 L 307.499577 476.500114 L 323.499634 474.500236 L 339.499691 474.500236 L 355.499748 475.000464 L 386.999634 475.000464 L 402.500496 474.500236 L 418.49952 475.000464 L 434.499577 476.500114 L 450.499634 476.500114 L 466.499691 477.000342 L 498.499805 477.000342 " transform="matrix(3.779528,0,0,3.779528,0,0)"/>
<path style="fill:none;stroke-width:2;stroke-linecap:butt;stroke-linejoin:miter;stroke:rgb(0%,0%,0%);stroke-opacity:1;stroke-miterlimit:4;" d="M 498.499805 458.500179 L 466.499691 458.500179 L 450.499634 459.000407 L 434.999805 458.500179 L 418.49952 458.500179 L 402.500496 457.999951 L 386.500439 458.500179 L 370.500382 457.999951 L 321.999984 457.999951 L 306.500155 459.499601 L 290.500098 457.999951 L 274.500041 463.999585 L 257.999756 464.499813 L 225.999642 464.499813 L 209.999585 463.999585 L 193.999528 466.000496 L 145.500163 466.000496 L 129.500106 465.500269 L 113.500049 465.500269 L 97.499992 466.000496 L 65.499878 466.000496 L 49.499821 465.500269 L 33.499764 465.500269 L 17.499707 465.000041 L 1.49965 465.000041 " transform="matrix(3.779528,0,0,3.779528,0,0)"/>
<path style="fill:none;stroke-width:2;stroke-linecap:butt;stroke-linejoin:miter;stroke:rgb(0%,0%,0%);stroke-opacity:1;stroke-miterlimit:4;" d="M 0.500228 459.499601 L 66.000106 459.499601 L 82.000163 459.999829 L 98.00022 459.999829 L 114.500505 459.499601 L 130.499528 459.499601 L 146.000391 459.000407 L 178.000505 459.000407 L 193.999528 459.499601 L 209.500391 459.499601 L 225.500448 459.999829 " transform="matrix(3.779528,0,0,3.779528,0,0)"/>
<path style="fill:none;stroke-width:2;stroke-linecap:butt;stroke-linejoin:miter;stroke:rgb(0%,0%,0%);stroke-opacity:1;stroke-miterlimit:4;" d="M 245.000033 443.999772 L 243.500382 445.500456 L 245.50026 427.499487 L 245.50026 411.999658 L 241.999699 400.000391 L 225.999642 398.000513 L 209.999585 397.500285 L 114.000277 397.500285 L 98.00022 400.000391 L 81.499935 398.000513 L 65.499878 398.000513 L 50.000049 400.000391 L 33.999992 399.500163 L 1.49965 399.500163 " transform="matrix(3.779528,0,0,3.779528,0,0)"/>
<path style="fill:none;stroke-width:2;stroke-linecap:butt;stroke-linejoin:miter;stroke:rgb(0%,0%,0%);stroke-opacity:1;stroke-miterlimit:4;" d="M 157.000236 314.499666 L 154.50013 330.499723 L 154.50013 345.999552 L 162.499642 355.999976 L 166.000203 348.499658 L 175.999593 352.500448 L 191.99965 338.000041 L 200.000195 345.500358 L 203.499723 348.999886 L 209.500391 350.499536 L 225.500448 348.000464 L 241.500505 348.499658 L 255.49965 350.999764 L 259.500439 351.499992 L 275.000269 354.000098 L 291.000326 358.500081 L 307.000382 359.000309 L 338.500269 359.000309 " transform="matrix(3.779528,0,0,3.779528,0,0)"/>
<path style="fill:none;stroke-width:2;stroke-linecap:butt;stroke-linejoin:miter;stroke:rgb(0%,0%,0%);stroke-opacity:1;stroke-miterlimit:4;" d="M 404.999569 218.500358 L 407.00048 202.500301 L 392.500073 186.500244 " transform="matrix(3.779528,0,0,3.779528,0,0)"/>
<path style="fill:none;stroke-width:2;stroke-linecap:butt;stroke-linejoin:miter;stroke:rgb(0%,0%,0%);stroke-opacity:1;stroke-miterlimit:4;" d="M 391.000423 184.500366 L 373.000488 200.500423 L 368.999699 216.000252 L 375.000366 231.500081 L 402.999691 221.499658 " transform="matrix(3.779528,0,0,3.779528,0,0)"/>
<path style="fill:none;stroke-width:2;stroke-linecap:butt;stroke-linejoin:miter;stroke:rgb(0%,0%,0%);stroke-opacity:1;stroke-miterlimit:4;" d="M 408.50013 250.500472 L 422.500309 234.500415 L 428.499943 218.500358 L 428.499943 202.500301 L 418.49952 186.500244 L 398.499707 171.000415 " transform="matrix(3.779528,0,0,3.779528,0,0)"/>
<path style="fill:none;stroke-width:2;stroke-linecap:butt;stroke-linejoin:miter;stroke:rgb(0%,0%,0%);stroke-opacity:1;stroke-miterlimit:4;" d="M 411.999658 167.499854 L 429.999593 183.49991 " transform="matrix(3.779528,0,0,3.779528,0,0)"/>
<path style="fill:none;stroke-width:2;stroke-linecap:butt;stroke-linejoin:miter;stroke:rgb(0%,0%,0%);stroke-opacity:1;stroke-miterlimit:4;" d="M 497.999577 55.00026 L 466.499691 55.00026 L 450.000439 55.500488 L 434.000382 55.500488 L 418.000326 55.999683 L 305.999927 55.999683 L 289.99987 55.500488 L 273.999813 55.500488 L 257.999756 48.000171 L 242.499927 55.999683 L 210.499813 55.999683 L 194.499756 57.999561 L 178.499699 58.499788 L 162.499642 58.499788 L 146.499585 57.999561 L 82.500391 57.999561 L 66.500334 57.500366 L 17.000513 57.500366 L 1.000456 57.999561 " transform="matrix(3.779528,0,0,3.779528,0,0)"/>
<path style="fill:none;stroke-width:2;stroke-linecap:butt;stroke-linejoin:miter;stroke:rgb(0%,0%,0%);stroke-opacity:1;stroke-miterlimit:4;" d="M 98.999642 173.000293 L 84.500269 189.00035 L 75.000073 205.000407 L 88.500024 182.999683 " transform="matrix(3.779528,0,0,3.779528,0,0)"/>
<path style="fill:none;stroke-width:2;stroke-linecap:butt;stroke-linejoin:miter;stroke:rgb(0%,0%,0%);stroke-opacity:1;stroke-miterlimit:4;" d="M 128.000456 170.500187 L 153.499674 186.000016 L 169.499731 201.499845 L 171.499609 217.499902 L 166.000203 234.000187 L 153.999902 250.000244 L 128.000456 266.000301 " transform="matrix(3.779528,0,0,3.779528,0,0)"/>
<path style="fill:none;stroke-width:2;stroke-linecap:butt;stroke-linejoin:miter;stroke:rgb(0%,0%,0%);stroke-opacity:1;stroke-miterlimit:4;" d="M 141.999601 265.500073 L 162.000448 249.500016 L 171.499609 233.499959 L 175.500399 217.499902 L 173.000293 199.499967 L 159.500342 184.000138 L 137.000423 168.000081 " transform="matrix(3.779528,0,0,3.779528,0,0)"/>
</g>
</svg>
