<?xml version="1.0" encoding="UTF-8"?>
<svg xmlns="http://www.w3.org/2000/svg" xmlns:xlink="http://www.w3.org/1999/xlink" width="1935.11811" height="1935.11811" viewBox="0 0 1935.11811 1935.11811" version="1.1">
<g id="surface1">
<path style="fill:none;stroke-width:2;stroke-linecap:butt;stroke-linejoin:miter;stroke:rgb(0%,0%,0%);stroke-opacity:1;stroke-miterlimit:4;" d="M 27.50013 68.500212 L 27.50013 84.500269 L 35.499642 84.500269 L 31.499886 92.49978 L 11.500073 110.999943 L 3.499528 116.999577 L 3.499528 132.999634 L 23.500374 137.000423 L 28.99978 137.000423 L 30.999658 150.500374 L 32.500342 166.500431 L 30.999658 182.500488 L 37.000326 196.499634 L 41.000081 212.499691 L 39.500431 227.99952 L 41.500309 243.500382 " transform="matrix(3.779528,0,0,3.779528,0,0)"/>
<path style="fill:none;stroke-width:2;stroke-linecap:butt;stroke-linejoin:miter;stroke:rgb(0%,0%,0%);stroke-opacity:1;stroke-miterlimit:4;" d="M 32.500342 263.500195 L 48.500399 267.499951 L 74.499845 266.000301 L 86.500146 282.000358 L 84.500269 298.000415 L 84.500269 329.999495 L 89.999674 345.999552 L 89.999674 373.99991 L 82.000163 389.49974 L 94.000464 407.499674 L 87.999797 423.499731 L 69.999862 440.000016 " transform="matrix(3.779528,0,0,3.779528,0,0)"/>
<path style="fill:none;stroke-width:2;stroke-linecap:butt;stroke-linejoin:miter;stroke:rgb(0%,0%,0%);stroke-opacity:1;stroke-miterlimit:4;" d="M 69.999862 418.999748 L 54.500033 422.999504 L 37.999748 431.000049 L 21.999691 431.000049 " transform="matrix(3.779528,0,0,3.779528,0,0)"/>
<path style="fill:none;stroke-width:2;stroke-linecap:butt;stroke-linejoin:miter;stroke:rgb(0%,0%,0%);stroke-opacity:1;stroke-miterlimit:4;" d="M 3.000334 428.499943 L 19.000391 430.499821 L 35.000448 426.500065 L 53.499577 428.499943 L 85.499691 420.500431 L 100.99952 388.500317 L 127 384.499528 L 143.000057 368.000277 L 158.499886 371.499805 " transform="matrix(3.779528,0,0,3.779528,0,0)"/>
<path style="fill:none;stroke-width:2;stroke-linecap:butt;stroke-linejoin:miter;stroke:rgb(0%,0%,0%);stroke-opacity:1;stroke-miterlimit:4;" d="M 143.500285 361.000187 L 127.500228 364.499715 L 112.000399 377.000244 L 96.000342 402.999691 L 103.999854 393.000301 L 111.500171 377.000244 L 118.000033 361.500415 L 112.000399 345.999552 L 103.499626 329.999495 L 95.500114 314.000472 L 89.999674 298.499609 L 91.999552 282.499552 L 87.999797 277.999569 L 71.99974 269.499829 " transform="matrix(3.779528,0,0,3.779528,0,0)"/>
<path style="fill:none;stroke-width:2;stroke-linecap:butt;stroke-linejoin:miter;stroke:rgb(0%,0%,0%);stroke-opacity:1;stroke-miterlimit:4;" d="M 64.000228 266.000301 L 80.000285 268.000179 L 96.499536 273.499585 L 98.500448 286.000114 L 105.000309 302.000171 L 110.999943 318.000228 " transform="matrix(3.779528,0,0,3.779528,0,0)"/>
<path style="fill:none;stroke-width:2;stroke-linecap:butt;stroke-linejoin:miter;stroke:rgb(0%,0%,0%);stroke-opacity:1;stroke-miterlimit:4;" d="M 106.499959 297.500187 L 106.499959 275.500496 " transform="matrix(3.779528,0,0,3.779528,0,0)"/>
<path style="fill:none;stroke-width:2;stroke-linecap:butt;stroke-linejoin:miter;stroke:rgb(0%,0%,0%);stroke-opacity:1;stroke-miterlimit:4;" d="M 87.999797 295.000081 L 103.999854 328.499845 " transform="matrix(3.779528,0,0,3.779528,0,0)"/>
<path style="fill:none;stroke-width:2;stroke-linecap:butt;stroke-linejoin:miter;stroke:rgb(0%,0%,0%);stroke-opacity:1;stroke-miterlimit:4;" d="M 101.999976 336.000163 L 85.999919 304.000049 " transform="matrix(3.779528,0,0,3.779528,0,0)"/>
<path style="fill:none;stroke-width:2;stroke-linecap:butt;stroke-linejoin:miter;stroke:rgb(0%,0%,0%);stroke-opacity:1;stroke-miterlimit:4;" d="M 84.000041 316.499544 L 89.999674 332.499601 L 87.999797 339.999919 " transform="matrix(3.779528,0,0,3.779528,0,0)"/>
<path style="fill:none;stroke-width:2;stroke-linecap:butt;stroke-linejoin:miter;stroke:rgb(0%,0%,0%);stroke-opacity:1;stroke-miterlimit:4;" d="M 80.500513 315.500122 L 92.49978 317.5 L 100.500326 333.500057 L 108.499837 350.000342 L 109.999487 366.499593 L 103.499626 382.49965 L 93.500236 398.499707 L 85.999919 414.499764 L 94.000464 432.499699 L 64.500456 448.499756 L 42.499731 474.500236 L 17.999935 490.000065 L 14.000179 500.000488 L 5.999634 500.000488 L 21.999691 487.499959 L 37.999748 475.499658 L 63.5 466.999919 L 79.500057 456.999495 L 96.000342 448.999984 L 112.000399 434.999805 L 128.000456 418.999748 L 144.000513 417.500098 L 159.999536 417.500098 L 171.999837 425.499609 " transform="matrix(3.779528,0,0,3.779528,0,0)"/>
<path style="fill:none;stroke-width:2;stroke-linecap:butt;stroke-linejoin:miter;stroke:rgb(0%,0%,0%);stroke-opacity:1;stroke-miterlimit:4;" d="M 167.499854 432.000505 L 165.499976 447.999528 L 159.500342 464.499813 L 147.500041 480.49987 L 153.999902 482.999976 L 169.999959 468.999797 " transform="matrix(3.779528,0,0,3.779528,0,0)"/>
<path style="fill:none;stroke-width:2;stroke-linecap:butt;stroke-linejoin:miter;stroke:rgb(0%,0%,0%);stroke-opacity:1;stroke-miterlimit:4;" d="M 169.999959 469.500024 L 155.99978 485.500081 L 135.999967 501.500138 L 134.00009 503.500016 L 150.000146 491.999943 L 166.000203 475.999886 " transform="matrix(3.779528,0,0,3.779528,0,0)"/>
<path style="fill:none;stroke-width:2;stroke-linecap:butt;stroke-linejoin:miter;stroke:rgb(0%,0%,0%);stroke-opacity:1;stroke-miterlimit:4;" d="M 177.000049 487.499959 L 166.999626 503.500016 L 168.999504 502.000366 L 187.499666 482.499748 L 203.999951 466.499691 L 220.500236 465.000041 L 236.500293 464.499813 L 252.50035 468.499569 L 252.999544 474.500236 L 271.499707 480.49987 L 281.50013 494.500049 L 297.500187 498.499805 L 313.500244 500.99991 L 329.500301 502.999788 " transform="matrix(3.779528,0,0,3.779528,0,0)"/>
<path style="fill:none;stroke-width:2;stroke-linecap:butt;stroke-linejoin:miter;stroke:rgb(0%,0%,0%);stroke-opacity:1;stroke-miterlimit:4;" d="M 345.999552 463.999585 L 362.499837 443.999772 L 378.499894 427.999715 L 394.499951 423.999959 L 409.99978 420.000203 L 425.999837 421.499854 L 427.499487 427.499487 L 445.99965 429.500399 L 461.999707 432.999927 L 477.499536 436.999683 L 493.499593 438.999561 L 509.49965 438.999561 " transform="matrix(3.779528,0,0,3.779528,0,0)"/>
<path style="fill:none;stroke-width:2;stroke-linecap:butt;stroke-linejoin:miter;stroke:rgb(0%,0%,0%);stroke-opacity:1;stroke-miterlimit:4;" d="M 506.999544 413.999536 L 491.499715 413.999536 L 475.499658 416.000448 L 459.999829 416.000448 L 443.999772 420.000203 " transform="matrix(3.779528,0,0,3.779528,0,0)"/>
<path style="fill:none;stroke-width:2;stroke-linecap:butt;stroke-linejoin:miter;stroke:rgb(0%,0%,0%);stroke-opacity:1;stroke-miterlimit:4;" d="M 437.49991 414.499764 L 453.499967 392.500073 " transform="matrix(3.779528,0,0,3.779528,0,0)"/>
<path style="fill:none;stroke-width:2;stroke-linecap:butt;stroke-linejoin:miter;stroke:rgb(0%,0%,0%);stroke-opacity:1;stroke-miterlimit:4;" d="M 450.000439 368.999699 L 434.499577 363.500293 L 418.999748 355.499748 L 402.999691 333.500057 " transform="matrix(3.779528,0,0,3.779528,0,0)"/>
<path style="fill:none;stroke-width:2;stroke-linecap:butt;stroke-linejoin:miter;stroke:rgb(0%,0%,0%);stroke-opacity:1;stroke-miterlimit:4;" d="M 398.499707 340.500146 L 414.499764 360.499959 L 431.000049 368.500505 L 447.000106 374.500138 L 454.999618 384.499528 L 448.999984 400.499585 L 432.999927 414.499764 L 448.499756 390.500195 " transform="matrix(3.779528,0,0,3.779528,0,0)"/>
<path style="fill:none;stroke-width:2;stroke-linecap:butt;stroke-linejoin:miter;stroke:rgb(0%,0%,0%);stroke-opacity:1;stroke-miterlimit:4;" d="M 425.999837 361.999609 L 406.500252 345.999552 L 400.999813 329.999495 L 395.000179 300.000293 L 379.000122 287.999992 L 363.000065 288.50022 L 347.000008 286.500342 " transform="matrix(3.779528,0,0,3.779528,0,0)"/>
<path style="fill:none;stroke-width:2;stroke-linecap:butt;stroke-linejoin:miter;stroke:rgb(0%,0%,0%);stroke-opacity:1;stroke-miterlimit:4;" d="M 345.500358 293.500431 L 361.999609 309.500488 L 377.999666 338.000041 " transform="matrix(3.779528,0,0,3.779528,0,0)"/>
<path style="fill:none;stroke-width:2;stroke-linecap:butt;stroke-linejoin:miter;stroke:rgb(0%,0%,0%);stroke-opacity:1;stroke-miterlimit:4;" d="M 412.499886 331.500179 L 428.499943 349.500114 " transform="matrix(3.779528,0,0,3.779528,0,0)"/>
<path style="fill:none;stroke-width:2;stroke-linecap:butt;stroke-linejoin:miter;stroke:rgb(0%,0%,0%);stroke-opacity:1;stroke-miterlimit:4;" d="M 434.000382 347.000008 L 418.000326 333.500057 " transform="matrix(3.779528,0,0,3.779528,0,0)"/>
<path style="fill:none;stroke-width:2;stroke-linecap:butt;stroke-linejoin:miter;stroke:rgb(0%,0%,0%);stroke-opacity:1;stroke-miterlimit:4;" d="M 432.499699 348.999886 L 416.499642 332.499601 L 414.999992 323.999862 L 398.999935 300.000293 L 383.500106 277.999569 L 367.500049 282.000358 L 352.00022 282.000358 L 336.500391 284.000236 L 320.000106 282.499552 L 288.50022 282.499552 L 272.500163 282.000358 L 255.999878 281.50013 L 191.99965 281.50013 L 175.999593 280.999902 L 160.499764 280.999902 " transform="matrix(3.779528,0,0,3.779528,0,0)"/>
<path style="fill:none;stroke-width:2;stroke-linecap:butt;stroke-linejoin:miter;stroke:rgb(0%,0%,0%);stroke-opacity:1;stroke-miterlimit:4;" d="M 162.499642 266.000301 L 178.499699 268.000179 L 193.999528 268.000179 L 209.999585 267.499951 L 225.999642 269.499829 L 241.999699 269.499829 L 257.999756 268.999601 L 274.500041 267.499951 L 307.000382 267.499951 L 323.000439 268.000179 L 339.000496 268.000179 L 354.99952 265.500073 L 370.999577 264.999845 " transform="matrix(3.779528,0,0,3.779528,0,0)"/>
<path style="fill:none;stroke-width:2;stroke-linecap:butt;stroke-linejoin:miter;stroke:rgb(0%,0%,0%);stroke-opacity:1;stroke-miterlimit:4;" d="M 386.999634 264.499618 L 370.999577 272.500163 L 322.500212 272.500163 L 306.500155 274.500041 L 210.499813 274.500041 L 178.499699 273.499585 L 162.499642 273.000391 L 146.000391 290.500098 " transform="matrix(3.779528,0,0,3.779528,0,0)"/>
<path style="fill:none;stroke-width:2;stroke-linecap:butt;stroke-linejoin:miter;stroke:rgb(0%,0%,0%);stroke-opacity:1;stroke-miterlimit:4;" d="M 139.000301 288.50022 L 142.499829 272.500163 " transform="matrix(3.779528,0,0,3.779528,0,0)"/>
<path style="fill:none;stroke-width:2;stroke-linecap:butt;stroke-linejoin:miter;stroke:rgb(0%,0%,0%);stroke-opacity:1;stroke-miterlimit:4;" d="M 121.999788 216.50048 L 105.999731 188.500122 L 89.999674 166.000203 " transform="matrix(3.779528,0,0,3.779528,0,0)"/>
<path style="fill:none;stroke-width:2;stroke-linecap:butt;stroke-linejoin:miter;stroke:rgb(0%,0%,0%);stroke-opacity:1;stroke-miterlimit:4;" d="M 91.00013 162.499642 L 92.49978 182.500488 L 108.499837 203.999951 " transform="matrix(3.779528,0,0,3.779528,0,0)"/>
<path style="fill:none;stroke-width:2;stroke-linecap:butt;stroke-linejoin:miter;stroke:rgb(0%,0%,0%);stroke-opacity:1;stroke-miterlimit:4;" d="M 121.999788 177.000049 L 105.999731 159.000114 " transform="matrix(3.779528,0,0,3.779528,0,0)"/>
<path style="fill:none;stroke-width:2;stroke-linecap:butt;stroke-linejoin:miter;stroke:rgb(0%,0%,0%);stroke-opacity:1;stroke-miterlimit:4;" d="M 84.500269 169.499731 L 98.500448 173.499487 L 102.500203 173.499487 L 112.499593 189.00035 L 122.500016 205.000407 L 126.499772 221.000464 " transform="matrix(3.779528,0,0,3.779528,0,0)"/>
<path style="fill:none;stroke-width:2;stroke-linecap:butt;stroke-linejoin:miter;stroke:rgb(0%,0%,0%);stroke-opacity:1;stroke-miterlimit:4;" d="M 172.500065 202.999495 L 188.500122 200.999618 " transform="matrix(3.779528,0,0,3.779528,0,0)"/>
<path style="fill:none;stroke-width:2;stroke-linecap:butt;stroke-linejoin:miter;stroke:rgb(0%,0%,0%);stroke-opacity:1;stroke-miterlimit:4;" d="M 186.500244 194.499756 L 170.500187 198.499512 " transform="matrix(3.779528,0,0,3.779528,0,0)"/>
<path style="fill:none;stroke-width:2;stroke-linecap:butt;stroke-linejoin:miter;stroke:rgb(0%,0%,0%);stroke-opacity:1;stroke-miterlimit:4;" d="M 174.499943 182.00026 L 190.5 171.999837 L 206.500057 182.00026 L 221.999886 171.999837 L 237.999943 174.499943 L 254 176.499821 L 250.000244 180.499577 L 239.999821 180.499577 L 236.000065 196.499634 " transform="matrix(3.779528,0,0,3.779528,0,0)"/>
<path style="fill:none;stroke-width:2;stroke-linecap:butt;stroke-linejoin:miter;stroke:rgb(0%,0%,0%);stroke-opacity:1;stroke-miterlimit:4;" d="M 244.499805 172.500065 L 234.500415 188.500122 L 212.499691 198.499512 L 228.499748 198.499512 L 250.500472 202.500301 L 268.500407 202.500301 L 284.000236 200.000195 L 307.999805 205.999829 L 323.999862 197.50009 L 339.999919 200.000195 L 357.999854 200.000195 L 369.499927 198.000317 " transform="matrix(3.779528,0,0,3.779528,0,0)"/>
<path style="fill:none;stroke-width:2;stroke-linecap:butt;stroke-linejoin:miter;stroke:rgb(0%,0%,0%);stroke-opacity:1;stroke-miterlimit:4;" d="M 359.499504 194.499756 L 349.500114 192.499878 L 363.500293 190.5 L 359.499504 174.499943 " transform="matrix(3.779528,0,0,3.779528,0,0)"/>
<path style="fill:none;stroke-width:2;stroke-linecap:butt;stroke-linejoin:miter;stroke:rgb(0%,0%,0%);stroke-opacity:1;stroke-miterlimit:4;" d="M 338.000041 175.000171 L 341.999797 191.000228 " transform="matrix(3.779528,0,0,3.779528,0,0)"/>
<path style="fill:none;stroke-width:2;stroke-linecap:butt;stroke-linejoin:miter;stroke:rgb(0%,0%,0%);stroke-opacity:1;stroke-miterlimit:4;" d="M 320.000106 157.999658 L 318.000228 147.500041 L 329.999495 145.500163 L 316.00035 145.500163 L 325.99974 139.499495 L 309.999683 137.499618 " transform="matrix(3.779528,0,0,3.779528,0,0)"/>
<path style="fill:none;stroke-width:2;stroke-linecap:butt;stroke-linejoin:miter;stroke:rgb(0%,0%,0%);stroke-opacity:1;stroke-miterlimit:4;" d="M 314.999894 134.500317 L 311.000138 150.500374 L 320.999528 175.999593 L 327.000195 177.500277 L 325.000317 193.500334 L 314.999894 196.999862 L 311.500366 193.000106 L 314.000472 185.499788 L 332.000407 171.499609 L 348.000464 177.500277 L 363.999487 173.499487 L 379.999544 173.499487 L 382.000456 177.000049 L 386.000212 189.00035 L 416.000448 168.999504 L 432.000505 157.000236 L 447.999528 155.000358 L 463.999585 150.999569 L 479.500448 137.499618 L 495.500505 135.49974 " transform="matrix(3.779528,0,0,3.779528,0,0)"/>
<path style="fill:none;stroke-width:2;stroke-linecap:butt;stroke-linejoin:miter;stroke:rgb(0%,0%,0%);stroke-opacity:1;stroke-miterlimit:4;" d="M 506.000122 141.500407 L 490.000065 145.500163 L 474.000008 144.999935 " transform="matrix(3.779528,0,0,3.779528,0,0)"/>
<path style="fill:none;stroke-width:2;stroke-linecap:butt;stroke-linejoin:miter;stroke:rgb(0%,0%,0%);stroke-opacity:1;stroke-miterlimit:4;" d="M 482.499748 136.500195 L 466.999919 148.500496 L 470.999674 162.499642 L 448.999984 171.999837 L 422.999504 180.000382 L 404.999569 195.500212 L 398.999935 211.500269 L 397.000057 227.000098 L 403.499919 212.999919 L 405.499797 194.999984 L 421.499854 181.500033 " transform="matrix(3.779528,0,0,3.779528,0,0)"/>
<path style="fill:none;stroke-width:2;stroke-linecap:butt;stroke-linejoin:miter;stroke:rgb(0%,0%,0%);stroke-opacity:1;stroke-miterlimit:4;" d="M 441.000472 191.500456 L 456.999495 177.500277 L 453.499967 173.499487 L 443.499544 177.500277 L 429.500399 193.000106 L 435.500033 207.000285 L 435.500033 223.499536 L 425.999837 225.500448 L 414.499764 241.999699 L 404.999569 257.999756 " transform="matrix(3.779528,0,0,3.779528,0,0)"/>
<path style="fill:none;stroke-width:2;stroke-linecap:butt;stroke-linejoin:miter;stroke:rgb(0%,0%,0%);stroke-opacity:1;stroke-miterlimit:4;" d="M 400.999813 234.000187 L 416.99987 216.000252 L 432.999927 199.499967 L 448.999984 194.999984 L 454.500423 207.000285 L 452.000317 211.500269 L 466.000496 201.499845 L 469.500024 189.499544 L 497.500382 175.500399 " transform="matrix(3.779528,0,0,3.779528,0,0)"/>
<path style="fill:none;stroke-width:2;stroke-linecap:butt;stroke-linejoin:miter;stroke:rgb(0%,0%,0%);stroke-opacity:1;stroke-miterlimit:4;" d="M 498.499805 170.500187 L 486.499504 186.500244 L 476.500114 202.500301 L 466.499691 218.500358 L 472.500358 210.499813 L 488.500415 182.500488 L 495.000277 166.500431 L 508.500228 168.000081 " transform="matrix(3.779528,0,0,3.779528,0,0)"/>
<path style="fill:none;stroke-width:2;stroke-linecap:butt;stroke-linejoin:miter;stroke:rgb(0%,0%,0%);stroke-opacity:1;stroke-miterlimit:4;" d="M 502.000366 193.999528 L 486.000309 195.500212 L 470.000252 221.499658 L 478.499992 211.500269 L 486.499504 194.999984 " transform="matrix(3.779528,0,0,3.779528,0,0)"/>
<path style="fill:none;stroke-width:2;stroke-linecap:butt;stroke-linejoin:miter;stroke:rgb(0%,0%,0%);stroke-opacity:1;stroke-miterlimit:4;" d="M 479.500448 184.999561 L 465.500269 200.999618 L 455.499845 217.499902 L 443.499544 229.500203 L 443.499544 246.000488 L 449.500212 261.999512 " transform="matrix(3.779528,0,0,3.779528,0,0)"/>
<path style="fill:none;stroke-width:2;stroke-linecap:butt;stroke-linejoin:miter;stroke:rgb(0%,0%,0%);stroke-opacity:1;stroke-miterlimit:4;" d="M 438.999561 234.000187 L 439.499788 217.499902 L 439.499788 201.499845 L 459.000407 187.499666 L 473.49978 184.000138 L 467.500146 186.000016 L 451.50009 198.000317 " transform="matrix(3.779528,0,0,3.779528,0,0)"/>
<path style="fill:none;stroke-width:2;stroke-linecap:butt;stroke-linejoin:miter;stroke:rgb(0%,0%,0%);stroke-opacity:1;stroke-miterlimit:4;" d="M 447.999528 203.499723 L 448.499756 219.49978 L 448.499756 235.499837 L 450.499634 252.000122 " transform="matrix(3.779528,0,0,3.779528,0,0)"/>
<path style="fill:none;stroke-width:2;stroke-linecap:butt;stroke-linejoin:miter;stroke:rgb(0%,0%,0%);stroke-opacity:1;stroke-miterlimit:4;" d="M 410.500008 246.000488 L 398.000513 264.000423 L 404.000146 248.000366 L 413.500342 232.000309 L 411.500464 207.500513 L 427.499487 205.499601 L 443.499544 203.499723 L 451.50009 191.500456 L 465.500269 187.499666 L 481.500326 171.499609 L 493.499593 165.499976 L 509.49965 149.499919 L 497.500382 132.000212 L 481.500326 131.499984 L 465.500269 139.999723 L 449.500212 144.000513 L 433.500155 150.500374 L 417.500098 160.499764 L 398.999935 166.500431 L 397.500285 150.500374 L 397.500285 134.500317 L 398.000513 118.000033 L 398.000513 101.999976 L 411.999658 76.499723 L 395.999601 82.500391 L 379.999544 84.000041 L 363.999487 83.499813 L 332.000407 83.499813 L 316.499544 84.000041 L 300.499487 84.000041 L 284.500464 86.500146 L 219.49978 86.500146 L 203.499723 85.999919 L 123.500472 85.999919 L 107.999609 84.000041 L 91.999552 76.499723 L 75.500301 73.000195 L 59.500244 69.000439 L 44.000415 69.000439 L 28.000358 68.500212 " transform="matrix(3.779528,0,0,3.779528,0,0)"/>
<path style="fill:none;stroke-width:2;stroke-linecap:butt;stroke-linejoin:miter;stroke:rgb(0%,0%,0%);stroke-opacity:1;stroke-miterlimit:4;" d="M 12.999723 71.99974 L 23.500374 87.999797 L 46.999715 113.500049 L 39.500431 129.500106 L 45.500065 137.499618 L 48.000171 153.499674 L 51.999927 169.499731 L 56.49991 186.000016 " transform="matrix(3.779528,0,0,3.779528,0,0)"/>
<path style="fill:none;stroke-width:2;stroke-linecap:butt;stroke-linejoin:miter;stroke:rgb(0%,0%,0%);stroke-opacity:1;stroke-miterlimit:4;" d="M 62.00035 169.999959 L 78.000407 200.000195 " transform="matrix(3.779528,0,0,3.779528,0,0)"/>
<path style="fill:none;stroke-width:2;stroke-linecap:butt;stroke-linejoin:miter;stroke:rgb(0%,0%,0%);stroke-opacity:1;stroke-miterlimit:4;" d="M 99.49987 198.499512 L 83.499813 177.000049 " transform="matrix(3.779528,0,0,3.779528,0,0)"/>
<path style="fill:none;stroke-width:2;stroke-linecap:butt;stroke-linejoin:miter;stroke:rgb(0%,0%,0%);stroke-opacity:1;stroke-miterlimit:4;" d="M 77.500179 177.000049 L 93.500236 198.99974 " transform="matrix(3.779528,0,0,3.779528,0,0)"/>
<path style="fill:none;stroke-width:2;stroke-linecap:butt;stroke-linejoin:miter;stroke:rgb(0%,0%,0%);stroke-opacity:1;stroke-miterlimit:4;" d="M 109.500293 157.999658 L 93.500236 149.499919 L 75.999495 137.499618 " transform="matrix(3.779528,0,0,3.779528,0,0)"/>
<path style="fill:none;stroke-width:2;stroke-linecap:butt;stroke-linejoin:miter;stroke:rgb(0%,0%,0%);stroke-opacity:1;stroke-miterlimit:4;" d="M 75.999495 132.000212 L 103.499626 148.000269 L 116.000155 164.49952 L 123.999666 186.500244 " transform="matrix(3.779528,0,0,3.779528,0,0)"/>
<path style="fill:none;stroke-width:2;stroke-linecap:butt;stroke-linejoin:miter;stroke:rgb(0%,0%,0%);stroke-opacity:1;stroke-miterlimit:4;" d="M 168.500309 171.499609 L 184.999561 159.500342 L 200.999618 145.500163 L 182.999683 159.500342 L 168.999504 175.500399 L 178.999927 171.499609 L 194.999984 163.500098 L 212.499691 181.500033 L 252.999544 181.500033 L 275.000269 175.500399 L 284.999658 175.500399 L 292.499976 193.500334 L 300.000293 173.000293 L 320.000106 184.999561 L 336.000163 177.500277 L 337.499813 193.000106 L 359.000309 177.000049 L 375.000366 198.99974 L 384.499528 212.999919 L 400.499585 193.000106 L 414.499764 175.000171 L 431.000049 163.500098 L 432.999927 161.50022 L 421.499854 164.000326 " transform="matrix(3.779528,0,0,3.779528,0,0)"/>
<path style="fill:none;stroke-width:2;stroke-linecap:butt;stroke-linejoin:miter;stroke:rgb(0%,0%,0%);stroke-opacity:1;stroke-miterlimit:4;" d="M 403.499919 147.500041 L 404.999569 131.499984 L 405.499797 116.000155 L 405.499797 100.000098 L 397.500285 75.999495 L 333.500057 75.999495 L 317.5 76.499723 L 285.499886 76.499723 L 269.499829 75.999495 L 253.499772 75.999495 L 237.499715 76.499723 " transform="matrix(3.779528,0,0,3.779528,0,0)"/>
<path style="fill:none;stroke-width:2;stroke-linecap:butt;stroke-linejoin:miter;stroke:rgb(0%,0%,0%);stroke-opacity:1;stroke-miterlimit:4;" d="M 257.499528 80.999707 L 273.999813 80.999707 L 289.99987 80.500513 L 305.999927 80.000285 L 322.500212 80.000285 " transform="matrix(3.779528,0,0,3.779528,0,0)"/>
<path style="fill:none;stroke-width:2;stroke-linecap:butt;stroke-linejoin:miter;stroke:rgb(0%,0%,0%);stroke-opacity:1;stroke-miterlimit:4;" d="M 389.999967 96.499536 L 393.499495 112.000399 L 391.499618 127.500228 L 393.499495 143.500285 L 393.999723 159.999536 L 393.999723 175.999593 L 389.999967 191.99965 L 375.999788 187.999894 L 384.499528 187.999894 L 394.499951 207.500513 L 402.999691 217.499902 L 388.999512 233.499959 L 388.500317 250.000244 L 386.500439 266.000301 L 406.500252 243.999577 L 420.500431 232.000309 " transform="matrix(3.779528,0,0,3.779528,0,0)"/>
<path style="fill:none;stroke-width:2;stroke-linecap:butt;stroke-linejoin:miter;stroke:rgb(0%,0%,0%);stroke-opacity:1;stroke-miterlimit:4;" d="M 392.500073 288.50022 L 400.999813 304.500277 L 404.999569 320.500334 L 411.000236 336.500391 L 429.500399 352.00022 L 443.499544 371.499805 L 449.500212 386.999634 L 437.49991 402.999691 L 435.500033 418.999748 L 437.49991 424.500187 L 447.999528 412.499886 L 463.999585 410.500008 L 480.49987 408.50013 L 496.499927 409.000358 " transform="matrix(3.779528,0,0,3.779528,0,0)"/>
<path style="fill:none;stroke-width:2;stroke-linecap:butt;stroke-linejoin:miter;stroke:rgb(0%,0%,0%);stroke-opacity:1;stroke-miterlimit:4;" d="M 504.999666 454.999618 L 489.499837 454.999618 L 474.000008 450.999862 L 457.999951 447.000106 L 442.500122 443.00035 L 426.500065 432.999927 " transform="matrix(3.779528,0,0,3.779528,0,0)"/>
<path style="fill:none;stroke-width:2;stroke-linecap:butt;stroke-linejoin:miter;stroke:rgb(0%,0%,0%);stroke-opacity:1;stroke-miterlimit:4;" d="M 414.999992 431.500277 L 431.000049 439.499788 L 447.000106 447.999528 L 463.000163 454.000195 L 479.00022 458.500179 L 495.000277 460.500057 L 511.000334 458.500179 " transform="matrix(3.779528,0,0,3.779528,0,0)"/>
<path style="fill:none;stroke-width:2;stroke-linecap:butt;stroke-linejoin:miter;stroke:rgb(0%,0%,0%);stroke-opacity:1;stroke-miterlimit:4;" d="M 430.499821 461.000285 L 414.499764 447.000106 " transform="matrix(3.779528,0,0,3.779528,0,0)"/>
<path style="fill:none;stroke-width:2;stroke-linecap:butt;stroke-linejoin:miter;stroke:rgb(0%,0%,0%);stroke-opacity:1;stroke-miterlimit:4;" d="M 413.500342 442.500122 L 429.999593 450.499634 " transform="matrix(3.779528,0,0,3.779528,0,0)"/>
<path style="fill:none;stroke-width:2;stroke-linecap:butt;stroke-linejoin:miter;stroke:rgb(0%,0%,0%);stroke-opacity:1;stroke-miterlimit:4;" d="M 419.499976 443.999772 L 438.999561 459.999829 " transform="matrix(3.779528,0,0,3.779528,0,0)"/>
<path style="fill:none;stroke-width:2;stroke-linecap:butt;stroke-linejoin:miter;stroke:rgb(0%,0%,0%);stroke-opacity:1;stroke-miterlimit:4;" d="M 440.000016 465.500269 L 420.000203 449.500212 L 414.499764 432.999927 " transform="matrix(3.779528,0,0,3.779528,0,0)"/>
<path style="fill:none;stroke-width:2;stroke-linecap:butt;stroke-linejoin:miter;stroke:rgb(0%,0%,0%);stroke-opacity:1;stroke-miterlimit:4;" d="M 407.499674 429.000171 L 401.500041 445.000228 L 401.500041 461.000285 L 405.499797 477.499536 " transform="matrix(3.779528,0,0,3.779528,0,0)"/>
<path style="fill:none;stroke-width:2;stroke-linecap:butt;stroke-linejoin:miter;stroke:rgb(0%,0%,0%);stroke-opacity:1;stroke-miterlimit:4;" d="M 397.500285 468.000374 L 395.999601 452.000317 L 400.499585 436.00026 L 398.000513 440.500244 " transform="matrix(3.779528,0,0,3.779528,0,0)"/>
<path style="fill:none;stroke-width:2;stroke-linecap:butt;stroke-linejoin:miter;stroke:rgb(0%,0%,0%);stroke-opacity:1;stroke-miterlimit:4;" d="M 382.49965 446.499878 L 398.000513 426.500065 L 413.999536 426.500065 L 429.500399 428.499943 L 445.500456 436.999683 L 461.500513 440.500244 L 478.499992 445.000228 L 494.500049 447.000106 L 511.000334 446.499878 " transform="matrix(3.779528,0,0,3.779528,0,0)"/>
<path style="fill:none;stroke-width:2;stroke-linecap:butt;stroke-linejoin:miter;stroke:rgb(0%,0%,0%);stroke-opacity:1;stroke-miterlimit:4;" d="M 441.499666 441.499666 L 421.499854 425.499609 L 413.500342 417.500098 " transform="matrix(3.779528,0,0,3.779528,0,0)"/>
<path style="fill:none;stroke-width:2;stroke-linecap:butt;stroke-linejoin:miter;stroke:rgb(0%,0%,0%);stroke-opacity:1;stroke-miterlimit:4;" d="M 377.000244 447.500334 L 395.000179 427.499487 L 384.999756 443.499544 L 381 459.499601 L 381 475.999886 L 388.999512 492.500171 L 400.999813 509.000456 " transform="matrix(3.779528,0,0,3.779528,0,0)"/>
<path style="fill:none;stroke-width:2;stroke-linecap:butt;stroke-linejoin:miter;stroke:rgb(0%,0%,0%);stroke-opacity:1;stroke-miterlimit:4;" d="M 394.499951 506.999544 L 378.499894 481.000098 " transform="matrix(3.779528,0,0,3.779528,0,0)"/>
<path style="fill:none;stroke-width:2;stroke-linecap:butt;stroke-linejoin:miter;stroke:rgb(0%,0%,0%);stroke-opacity:1;stroke-miterlimit:4;" d="M 370.999577 486.000309 L 366.499593 466.000496 " transform="matrix(3.779528,0,0,3.779528,0,0)"/>
<path style="fill:none;stroke-width:2;stroke-linecap:butt;stroke-linejoin:miter;stroke:rgb(0%,0%,0%);stroke-opacity:1;stroke-miterlimit:4;" d="M 348.499658 460.500057 L 350.499536 476.500114 L 354.500326 491.999943 L 372.50026 508 " transform="matrix(3.779528,0,0,3.779528,0,0)"/>
<path style="fill:none;stroke-width:2;stroke-linecap:butt;stroke-linejoin:miter;stroke:rgb(0%,0%,0%);stroke-opacity:1;stroke-miterlimit:4;" d="M 393.999723 498.499805 L 377.999666 470.000252 L 366.000399 472.00013 L 361.999609 455.499845 L 341.999797 457.499723 " transform="matrix(3.779528,0,0,3.779528,0,0)"/>
<path style="fill:none;stroke-width:2;stroke-linecap:butt;stroke-linejoin:miter;stroke:rgb(0%,0%,0%);stroke-opacity:1;stroke-miterlimit:4;" d="M 361.000187 505.499894 L 359.000309 501.500138 L 341.000374 506.000122 L 345.500358 480.49987 L 341.999797 464.499813 L 350.000342 448.999984 L 363.999487 434.999805 L 372.50026 416.499642 L 375.999788 400.499585 L 379.50035 384.000334 L 381.500228 368.000277 L 379.50035 352.00022 L 375.000366 336.000163 L 369.499927 319.499878 L 354.99952 303.499821 L 328.499845 287.499764 L 327.999618 293.500431 " transform="matrix(3.779528,0,0,3.779528,0,0)"/>
<path style="fill:none;stroke-width:2;stroke-linecap:butt;stroke-linejoin:miter;stroke:rgb(0%,0%,0%);stroke-opacity:1;stroke-miterlimit:4;" d="M 337.499813 281.50013 L 355.499748 297.500187 L 372.000033 313.500244 L 379.999544 329.500301 L 384.000334 345.500358 L 388.00009 361.500415 L 386.000212 377.500472 L 382.000456 393.499495 L 379.999544 409.499552 L 379.50035 425.999837 L 363.500293 441.999894 L 359.499504 452.000317 L 359.499504 468.000374 L 368.000277 483.500203 L 382.49965 499.50026 L 384.499528 491.499715 L 394.499951 507.499772 " transform="matrix(3.779528,0,0,3.779528,0,0)"/>
<path style="fill:none;stroke-width:2;stroke-linecap:butt;stroke-linejoin:miter;stroke:rgb(0%,0%,0%);stroke-opacity:1;stroke-miterlimit:4;" d="M 338.500269 495.999699 L 322.500212 495.500505 L 306.500155 493.499593 L 291.000326 491.499715 L 275.000269 485.500081 " transform="matrix(3.779528,0,0,3.779528,0,0)"/>
<path style="fill:none;stroke-width:2;stroke-linecap:butt;stroke-linejoin:miter;stroke:rgb(0%,0%,0%);stroke-opacity:1;stroke-miterlimit:4;" d="M 270.000057 455.499845 L 286.000114 447.000106 L 302.000171 451.50009 L 321.999984 459.499601 L 324.50009 475.999886 " transform="matrix(3.779528,0,0,3.779528,0,0)"/>
<path style="fill:none;stroke-width:2;stroke-linecap:butt;stroke-linejoin:miter;stroke:rgb(0%,0%,0%);stroke-opacity:1;stroke-miterlimit:4;" d="M 330.499723 470.000252 L 307.000382 456.000073 L 291.49952 453.499967 L 275.999691 452.000317 " transform="matrix(3.779528,0,0,3.779528,0,0)"/>
<path style="fill:none;stroke-width:2;stroke-linecap:butt;stroke-linejoin:miter;stroke:rgb(0%,0%,0%);stroke-opacity:1;stroke-miterlimit:4;" d="M 272.500163 503.500016 L 266.000301 487.499959 L 282.000358 471.499902 L 269.499829 455.499845 L 259.000212 429.000171 L 249.500016 413.500342 L 251.499894 397.500285 L 248.000366 381.500228 L 246.499683 365.500171 L 246.99991 350.000342 L 250.500472 334.500513 L 257.999756 318.99965 L 267.499951 302.999593 L 265.500073 307.499577 L 249.500016 333.500057 " transform="matrix(3.779528,0,0,3.779528,0,0)"/>
<path style="fill:none;stroke-width:2;stroke-linecap:butt;stroke-linejoin:miter;stroke:rgb(0%,0%,0%);stroke-opacity:1;stroke-miterlimit:4;" d="M 242.499927 340.500146 L 257.999756 305.999927 L 270.000057 291.999748 L 257.999756 307.999805 L 248.000366 323.499634 L 241.999699 339.499691 L 239.499593 354.99952 L 239.499593 370.999577 L 243.999577 386.999634 L 255.999878 411.000236 L 264.000423 427.000293 L 271.999935 445.500456 L 266.000301 463.500391 L 273.999813 471.499902 L 260.499862 484.000431 L 252.000122 488.000187 L 256.500106 490.000065 L 261.999512 493.999821 L 268.500407 509.999878 L 250.500472 500.000488 L 244.499805 508 L 254.500228 497.999577 L 272.500163 475.999886 L 274.500041 482.499748 L 290.500098 482.499748 L 306.500155 486.999731 " transform="matrix(3.779528,0,0,3.779528,0,0)"/>
<path style="fill:none;stroke-width:2;stroke-linecap:butt;stroke-linejoin:miter;stroke:rgb(0%,0%,0%);stroke-opacity:1;stroke-miterlimit:4;" d="M 244.499805 504.000244 L 245.000033 488.500415 L 248.999788 480.49987 L 232.999731 470.50048 L 229.500203 484.499626 " transform="matrix(3.779528,0,0,3.779528,0,0)"/>
<path style="fill:none;stroke-width:2;stroke-linecap:butt;stroke-linejoin:miter;stroke:rgb(0%,0%,0%);stroke-opacity:1;stroke-miterlimit:4;" d="M 219.49978 495.500505 L 209.500391 483.500203 L 193.999528 481.000098 " transform="matrix(3.779528,0,0,3.779528,0,0)"/>
<path style="fill:none;stroke-width:2;stroke-linecap:butt;stroke-linejoin:miter;stroke:rgb(0%,0%,0%);stroke-opacity:1;stroke-miterlimit:4;" d="M 195.500212 486.000309 L 203.499723 502.000366 " transform="matrix(3.779528,0,0,3.779528,0,0)"/>
<path style="fill:none;stroke-width:2;stroke-linecap:butt;stroke-linejoin:miter;stroke:rgb(0%,0%,0%);stroke-opacity:1;stroke-miterlimit:4;" d="M 204.500179 498.499805 L 204.500179 486.999731 " transform="matrix(3.779528,0,0,3.779528,0,0)"/>
<path style="fill:none;stroke-width:2;stroke-linecap:butt;stroke-linejoin:miter;stroke:rgb(0%,0%,0%);stroke-opacity:1;stroke-miterlimit:4;" d="M 202.999495 475.999886 L 212.999919 468.000374 L 199.499967 470.50048 L 199.499967 482.499748 L 212.000496 499.000033 " transform="matrix(3.779528,0,0,3.779528,0,0)"/>
<path style="fill:none;stroke-width:2;stroke-linecap:butt;stroke-linejoin:miter;stroke:rgb(0%,0%,0%);stroke-opacity:1;stroke-miterlimit:4;" d="M 225.00022 506.000122 L 225.500448 490.000065 L 231.500081 474.000008 L 221.999886 468.000374 " transform="matrix(3.779528,0,0,3.779528,0,0)"/>
<path style="fill:none;stroke-width:2;stroke-linecap:butt;stroke-linejoin:miter;stroke:rgb(0%,0%,0%);stroke-opacity:1;stroke-miterlimit:4;" d="M 225.999642 468.999797 L 205.999829 481.000098 L 216.000252 491.499715 L 215.500024 507.499772 " transform="matrix(3.779528,0,0,3.779528,0,0)"/>
<path style="fill:none;stroke-width:2;stroke-linecap:butt;stroke-linejoin:miter;stroke:rgb(0%,0%,0%);stroke-opacity:1;stroke-miterlimit:4;" d="M 202.000073 504.999666 L 186.000016 488.999609 " transform="matrix(3.779528,0,0,3.779528,0,0)"/>
<path style="fill:none;stroke-width:2;stroke-linecap:butt;stroke-linejoin:miter;stroke:rgb(0%,0%,0%);stroke-opacity:1;stroke-miterlimit:4;" d="M 182.999683 488.500415 L 178.999927 504.500472 L 194.499756 500.99991 " transform="matrix(3.779528,0,0,3.779528,0,0)"/>
<path style="fill:none;stroke-width:2;stroke-linecap:butt;stroke-linejoin:miter;stroke:rgb(0%,0%,0%);stroke-opacity:1;stroke-miterlimit:4;" d="M 199.499967 502.999788 L 191.500456 486.999731 " transform="matrix(3.779528,0,0,3.779528,0,0)"/>
<path style="fill:none;stroke-width:2;stroke-linecap:butt;stroke-linejoin:miter;stroke:rgb(0%,0%,0%);stroke-opacity:1;stroke-miterlimit:4;" d="M 176.499821 411.999658 L 160.999992 407.999902 L 144.999935 401.500041 L 143.500285 404.999569 " transform="matrix(3.779528,0,0,3.779528,0,0)"/>
<path style="fill:none;stroke-width:2;stroke-linecap:butt;stroke-linejoin:miter;stroke:rgb(0%,0%,0%);stroke-opacity:1;stroke-miterlimit:4;" d="M 139.999723 411.999658 L 155.99978 413.999536 L 164.49952 432.000505 L 162.499642 447.999528 L 166.999626 467.500146 L 152.500252 483.500203 L 140.499951 491.499715 L 122.500016 507.499772 L 134.500317 497.000155 L 150.000146 475.000464 " transform="matrix(3.779528,0,0,3.779528,0,0)"/>
<path style="fill:none;stroke-width:2;stroke-linecap:butt;stroke-linejoin:miter;stroke:rgb(0%,0%,0%);stroke-opacity:1;stroke-miterlimit:4;" d="M 137.499618 443.999772 L 121.499561 429.999593 " transform="matrix(3.779528,0,0,3.779528,0,0)"/>
<path style="fill:none;stroke-width:2;stroke-linecap:butt;stroke-linejoin:miter;stroke:rgb(0%,0%,0%);stroke-opacity:1;stroke-miterlimit:4;" d="M 121.999788 434.499577 L 135.999967 450.000439 L 141.500407 466.499691 L 125.50035 482.499748 L 123.999666 492.500171 L 140.499951 478.499992 " transform="matrix(3.779528,0,0,3.779528,0,0)"/>
<path style="fill:none;stroke-width:2;stroke-linecap:butt;stroke-linejoin:miter;stroke:rgb(0%,0%,0%);stroke-opacity:1;stroke-miterlimit:4;" d="M 132.500439 475.000464 L 124.499894 491.499715 L 142.499829 475.499658 L 148.500496 455.499845 L 134.500317 439.499788 L 120.500138 427.000293 L 114.500505 427.000293 L 98.500448 438.999561 L 82.500391 447.500334 L 66.500334 453.499967 L 50.000049 459.000407 L 33.999992 461.000285 L 17.999935 463.500391 L 1.999878 459.499601 " transform="matrix(3.779528,0,0,3.779528,0,0)"/>
<path style="fill:none;stroke-width:2;stroke-linecap:butt;stroke-linejoin:miter;stroke:rgb(0%,0%,0%);stroke-opacity:1;stroke-miterlimit:4;" d="M 1.49965 466.000496 L 17.499707 467.500146 L 33.499764 467.500146 L 49.499821 465.500269 " transform="matrix(3.779528,0,0,3.779528,0,0)"/>
<path style="fill:none;stroke-width:2;stroke-linecap:butt;stroke-linejoin:miter;stroke:rgb(0%,0%,0%);stroke-opacity:1;stroke-miterlimit:4;" d="M 49.499821 476.500114 L 32.999536 486.499504 L 16.500285 498.499805 L 0.500228 513.000212 " transform="matrix(3.779528,0,0,3.779528,0,0)"/>
<path style="fill:none;stroke-width:2;stroke-linecap:butt;stroke-linejoin:miter;stroke:rgb(0%,0%,0%);stroke-opacity:1;stroke-miterlimit:4;" d="M 1.999878 450.999862 L 17.999935 452.99974 L 34.50022 454.999618 L 50.500277 452.499512 L 66.999528 448.499756 L 82.999585 441.999894 " transform="matrix(3.779528,0,0,3.779528,0,0)"/>
<path style="fill:none;stroke-width:2;stroke-linecap:butt;stroke-linejoin:miter;stroke:rgb(0%,0%,0%);stroke-opacity:1;stroke-miterlimit:4;" d="M 103.000431 432.999927 L 82.999585 436.999683 L 66.999528 443.00035 L 50.500277 449.500212 L 34.50022 448.999984 L 18.500163 448.999984 L 2.500106 447.000106 " transform="matrix(3.779528,0,0,3.779528,0,0)"/>
<path style="fill:none;stroke-width:2;stroke-linecap:butt;stroke-linejoin:miter;stroke:rgb(0%,0%,0%);stroke-opacity:1;stroke-miterlimit:4;" d="M 35.499642 483.500203 L 63.5 466.999919 L 93.500236 450.499634 L 111.500171 434.000382 " transform="matrix(3.779528,0,0,3.779528,0,0)"/>
<path style="fill:none;stroke-width:2;stroke-linecap:butt;stroke-linejoin:miter;stroke:rgb(0%,0%,0%);stroke-opacity:1;stroke-miterlimit:4;" d="M 116.000155 443.999772 L 99.49987 459.999829 L 80.999707 475.499658 L 55.00026 491.499715 L 30.999658 507.499772 L 42.999959 500.000488 L 75.000073 479.999642 L 91.500358 468.000374 L 107.500415 452.000317 L 121.499561 434.000382 L 137.499618 452.000317 " transform="matrix(3.779528,0,0,3.779528,0,0)"/>
<path style="fill:none;stroke-width:2;stroke-linecap:butt;stroke-linejoin:miter;stroke:rgb(0%,0%,0%);stroke-opacity:1;stroke-miterlimit:4;" d="M 121.499561 445.99965 L 105.499504 461.999707 L 87.000374 478.499992 L 60.999894 494.500049 L 39.500431 510.500106 L 51.499699 502.499561 L 67.499756 492.500171 L 83.499813 481.99952 L 99.49987 468.000374 L 115.499927 452.000317 " transform="matrix(3.779528,0,0,3.779528,0,0)"/>
<path style="fill:none;stroke-width:2;stroke-linecap:butt;stroke-linejoin:miter;stroke:rgb(0%,0%,0%);stroke-opacity:1;stroke-miterlimit:4;" d="M 118.50026 403.499919 L 102.500203 400.999813 " transform="matrix(3.779528,0,0,3.779528,0,0)"/>
<path style="fill:none;stroke-width:2;stroke-linecap:butt;stroke-linejoin:miter;stroke:rgb(0%,0%,0%);stroke-opacity:1;stroke-miterlimit:4;" d="M 100.500326 405.499797 L 116.500382 409.99978 " transform="matrix(3.779528,0,0,3.779528,0,0)"/>
<path style="fill:none;stroke-width:2;stroke-linecap:butt;stroke-linejoin:miter;stroke:rgb(0%,0%,0%);stroke-opacity:1;stroke-miterlimit:4;" d="M 132.999634 391.999845 L 148.999691 395.999601 L 164.999748 404.000146 L 189.00035 429.999593 L 205.000407 441.999894 L 252.999544 441.999894 " transform="matrix(3.779528,0,0,3.779528,0,0)"/>
<path style="fill:none;stroke-width:2;stroke-linecap:butt;stroke-linejoin:miter;stroke:rgb(0%,0%,0%);stroke-opacity:1;stroke-miterlimit:4;" d="M 173.000293 403.499919 L 157.500464 389.49974 L 141.000179 389.49974 " transform="matrix(3.779528,0,0,3.779528,0,0)"/>
<path style="fill:none;stroke-width:2;stroke-linecap:butt;stroke-linejoin:miter;stroke:rgb(0%,0%,0%);stroke-opacity:1;stroke-miterlimit:4;" d="M 132.000212 387.499862 L 148.000269 381.500228 L 164.000326 391.999845 L 174.499943 407.999902 L 194.499756 406.000024 L 226.49987 406.000024 L 242.499927 407.999902 L 258.499984 423.999959 L 284.000236 438.000138 L 300.000293 438.000138 L 316.499544 441.999894 L 348.499658 438.000138 L 363.999487 434.000382 L 384.000334 417.500098 L 395.500407 421.499854 L 379.999544 437.49991 L 375.999788 452.99974 L 373.499683 468.999797 L 377.500472 484.999854 " transform="matrix(3.779528,0,0,3.779528,0,0)"/>
<path style="fill:none;stroke-width:2;stroke-linecap:butt;stroke-linejoin:miter;stroke:rgb(0%,0%,0%);stroke-opacity:1;stroke-miterlimit:4;" d="M 363.999487 497.500382 L 338.000041 487.499959 L 336.000163 481.99952 L 323.999862 479.999642 L 307.999805 479.999642 L 292.499976 477.999764 L 276.499919 463.999585 L 264.000423 447.999528 L 248.000366 448.499756 L 232.000309 448.499756 L 215.500024 445.99965 L 199.499967 445.99965 L 180.000382 463.999585 L 164.000326 497.999577 L 162.499642 501.500138 L 172.500065 485.500081 L 178.000505 469.500024 L 184.000138 453.499967 L 184.000138 437.49991 L 182.00026 421.499854 L 180.000382 407.499674 L 173.999715 397.500285 L 166.500431 381.500228 L 160.499764 377.500472 L 158.499886 355.499748 L 152.500252 339.499691 L 150.500374 323.499634 L 150.500374 307.499577 L 156.500008 281.50013 L 160.499764 261.500317 L 166.500431 246.000488 L 168.500309 230.499626 L 169.999959 214.499569 L 171.999837 194.499756 L 178.499699 178.499699 L 164.49952 168.500309 L 186.500244 152.500252 L 192.499878 144.499707 L 176.499821 150.999569 L 160.999992 158.499886 L 144.499707 148.500496 L 130.499528 148.000269 L 120.500138 142.499829 L 112.499593 135.999967 L 100.000098 119.99991 L 80.000285 118.000033 L 64.000228 116.000155 " transform="matrix(3.779528,0,0,3.779528,0,0)"/>
<path style="fill:none;stroke-width:2;stroke-linecap:butt;stroke-linejoin:miter;stroke:rgb(0%,0%,0%);stroke-opacity:1;stroke-miterlimit:4;" d="M 63.5 112.999821 L 79.500057 98.500448 L 113.500049 100.99952 L 125.50035 112.999821 L 139.999723 128.999878 L 146.000391 143.000057 L 157.999658 158.499886 L 176.499821 157.999658 L 192.499878 147.500041 L 160.499764 151.499797 " transform="matrix(3.779528,0,0,3.779528,0,0)"/>
<path style="fill:none;stroke-width:2;stroke-linecap:butt;stroke-linejoin:miter;stroke:rgb(0%,0%,0%);stroke-opacity:1;stroke-miterlimit:4;" d="M 128.000456 139.999723 L 112.000399 125.999544 L 96.000342 116.500382 L 80.000285 110.499715 " transform="matrix(3.779528,0,0,3.779528,0,0)"/>
<path style="fill:none;stroke-width:2;stroke-linecap:butt;stroke-linejoin:miter;stroke:rgb(0%,0%,0%);stroke-opacity:1;stroke-miterlimit:4;" d="M 76.499723 109.500293 L 92.49978 109.999487 L 107.999609 118.000033 L 123.500472 130.000334 " transform="matrix(3.779528,0,0,3.779528,0,0)"/>
<path style="fill:none;stroke-width:2;stroke-linecap:butt;stroke-linejoin:miter;stroke:rgb(0%,0%,0%);stroke-opacity:1;stroke-miterlimit:4;" d="M 109.500293 139.499495 L 93.500236 129.500106 L 77.500179 121.499561 " transform="matrix(3.779528,0,0,3.779528,0,0)"/>
<path style="fill:none;stroke-width:2;stroke-linecap:butt;stroke-linejoin:miter;stroke:rgb(0%,0%,0%);stroke-opacity:1;stroke-miterlimit:4;" d="M 82.999585 125.000122 L 110.499715 141.000179 L 130.999756 157.000236 L 130.499528 173.000293 L 138.500073 188.500122 L 141.999601 204.500179 L 142.499829 220.500236 L 134.999512 236.000065 L 121.499561 252.000122 L 111.500171 279.500252 L 121.499561 295.999504 L 111.500171 304.000049 " transform="matrix(3.779528,0,0,3.779528,0,0)"/>
<path style="fill:none;stroke-width:2;stroke-linecap:butt;stroke-linejoin:miter;stroke:rgb(0%,0%,0%);stroke-opacity:1;stroke-miterlimit:4;" d="M 65.499878 295.999504 L 61.500122 295.999504 L 69.499634 291.49952 L 71.000317 284.000236 L 60.999894 286.000114 " transform="matrix(3.779528,0,0,3.779528,0,0)"/>
<path style="fill:none;stroke-width:2;stroke-linecap:butt;stroke-linejoin:miter;stroke:rgb(0%,0%,0%);stroke-opacity:1;stroke-miterlimit:4;" d="M 73.500423 259.500439 L 89.50048 259.500439 L 105.499504 263.500195 L 121.499561 249.500016 " transform="matrix(3.779528,0,0,3.779528,0,0)"/>
<path style="fill:none;stroke-width:2;stroke-linecap:butt;stroke-linejoin:miter;stroke:rgb(0%,0%,0%);stroke-opacity:1;stroke-miterlimit:4;" d="M 113.500049 155.000358 L 97.499992 144.999935 L 81.499935 134.500317 L 65.499878 128.49965 " transform="matrix(3.779528,0,0,3.779528,0,0)"/>
<path style="fill:none;stroke-width:2;stroke-linecap:butt;stroke-linejoin:miter;stroke:rgb(0%,0%,0%);stroke-opacity:1;stroke-miterlimit:4;" d="M 62.00035 131.499984 L 77.500179 147.500041 L 85.499691 173.000293 L 97.499992 189.00035 L 100.99952 205.000407 " transform="matrix(3.779528,0,0,3.779528,0,0)"/>
<path style="fill:none;stroke-width:2;stroke-linecap:butt;stroke-linejoin:miter;stroke:rgb(0%,0%,0%);stroke-opacity:1;stroke-miterlimit:4;" d="M 75.500301 186.000016 L 59.500244 162.000448 " transform="matrix(3.779528,0,0,3.779528,0,0)"/>
<path style="fill:none;stroke-width:2;stroke-linecap:butt;stroke-linejoin:miter;stroke:rgb(0%,0%,0%);stroke-opacity:1;stroke-miterlimit:4;" d="M 64.000228 164.000326 L 71.99974 180.000382 L 80.000285 196.000439 L 89.999674 212.499691 " transform="matrix(3.779528,0,0,3.779528,0,0)"/>
<path style="fill:none;stroke-width:2;stroke-linecap:butt;stroke-linejoin:miter;stroke:rgb(0%,0%,0%);stroke-opacity:1;stroke-miterlimit:4;" d="M 116.999577 230.499626 L 110.499715 214.999797 L 106.499959 205.000407 L 105.999731 189.499544 L 119.499683 177.000049 L 105.000309 160.999992 L 96.999764 159.000114 L 70.50009 152.500252 L 53.999805 134.999512 " transform="matrix(3.779528,0,0,3.779528,0,0)"/>
<path style="fill:none;stroke-width:2;stroke-linecap:butt;stroke-linejoin:miter;stroke:rgb(0%,0%,0%);stroke-opacity:1;stroke-miterlimit:4;" d="M 51.499699 138.500073 L 61.500122 154.50013 L 60.999894 170.500187 L 69.000439 186.500244 L 76.499723 202.000073 L 84.500269 218.00013 L 90.499902 243.500382 " transform="matrix(3.779528,0,0,3.779528,0,0)"/>
<path style="fill:none;stroke-width:2;stroke-linecap:butt;stroke-linejoin:miter;stroke:rgb(0%,0%,0%);stroke-opacity:1;stroke-miterlimit:4;" d="M 135.999967 180.000382 L 117.499805 152.000024 L 101.499748 140.499951 L 85.499691 130.499528 L 69.499634 122.500016 L 53.499577 130.499528 " transform="matrix(3.779528,0,0,3.779528,0,0)"/>
<path style="fill:none;stroke-width:2;stroke-linecap:butt;stroke-linejoin:miter;stroke:rgb(0%,0%,0%);stroke-opacity:1;stroke-miterlimit:4;" d="M 69.000439 132.500439 L 87.000374 148.500496 L 96.999764 155.99978 L 91.00013 171.999837 L 110.499715 178.000505 L 122.500016 193.500334 L 118.50026 207.500513 L 120.500138 223.999764 L 142.499829 216.000252 " transform="matrix(3.779528,0,0,3.779528,0,0)"/>
<path style="fill:none;stroke-width:2;stroke-linecap:butt;stroke-linejoin:miter;stroke:rgb(0%,0%,0%);stroke-opacity:1;stroke-miterlimit:4;" d="M 107.999609 245.000033 L 105.999731 228.999976 L 100.000098 212.999919 L 91.500358 196.999862 L 79.500057 180.999805 L 69.499634 165.499976 L 69.499634 155.499552 L 60.000472 139.999723 L 46.000293 120.500138 L 30.000236 124.499894 L 14.000179 114.500505 " transform="matrix(3.779528,0,0,3.779528,0,0)"/>
<path style="fill:none;stroke-width:2;stroke-linecap:butt;stroke-linejoin:miter;stroke:rgb(0%,0%,0%);stroke-opacity:1;stroke-miterlimit:4;" d="M 10.000423 124.499894 L 10.000423 118.000033 L 26.00048 125.50035 L 41.999504 149.499919 L 45.500065 165.499976 L 51.499699 181.500033 L 47.499943 196.999862 L 46.000293 212.999919 L 44.499609 229.500203 " transform="matrix(3.779528,0,0,3.779528,0,0)"/>
<path style="fill:none;stroke-width:2;stroke-linecap:butt;stroke-linejoin:miter;stroke:rgb(0%,0%,0%);stroke-opacity:1;stroke-miterlimit:4;" d="M 28.499552 179.500155 L 28.499552 148.000269 L 8.49974 128.49965 " transform="matrix(3.779528,0,0,3.779528,0,0)"/>
<path style="fill:none;stroke-width:2;stroke-linecap:butt;stroke-linejoin:miter;stroke:rgb(0%,0%,0%);stroke-opacity:1;stroke-miterlimit:4;" d="M 8.999967 149.499919 L 25.500252 141.999601 L 48.000171 135.49974 L 64.000228 153.00048 L 80.500513 171.000415 L 96.499536 155.000358 L 112.499593 171.000415 L 112.999821 179.500155 L 123.000244 203.499723 " transform="matrix(3.779528,0,0,3.779528,0,0)"/>
<path style="fill:none;stroke-width:2;stroke-linecap:butt;stroke-linejoin:miter;stroke:rgb(0%,0%,0%);stroke-opacity:1;stroke-miterlimit:4;" d="M 128.000456 234.000187 L 112.000399 252.000122 L 96.000342 257.999756 L 80.000285 253.499772 L 64.000228 261.999512 L 57.999561 259.999634 L 42.499731 260.499862 L 35.000448 271.000513 L 19.000391 275.000269 L 3.000334 273.000391 " transform="matrix(3.779528,0,0,3.779528,0,0)"/>
<path style="fill:none;stroke-width:2;stroke-linecap:butt;stroke-linejoin:miter;stroke:rgb(0%,0%,0%);stroke-opacity:1;stroke-miterlimit:4;" d="M 3.499528 264.499618 L 7.00009 260.499862 L 23.000146 266.499495 L 10.499618 277.999569 L 3.999756 291.999748 L 3.999756 297.500187 L 15.499829 283.500008 L 15.499829 275.500496 " transform="matrix(3.779528,0,0,3.779528,0,0)"/>
<path style="fill:none;stroke-width:2;stroke-linecap:butt;stroke-linejoin:miter;stroke:rgb(0%,0%,0%);stroke-opacity:1;stroke-miterlimit:4;" d="M 19.999813 187.000472 L 17.999935 171.000415 L 10.499618 163.500098 L 18.500163 148.000269 L 2.500106 157.999658 " transform="matrix(3.779528,0,0,3.779528,0,0)"/>
<path style="fill:none;stroke-width:2;stroke-linecap:butt;stroke-linejoin:miter;stroke:rgb(0%,0%,0%);stroke-opacity:1;stroke-miterlimit:4;" d="M 1.999878 152.000024 L 12.000301 136.500195 L 3.999756 152.000024 L 5.500439 166.000203 L 5.500439 181.500033 " transform="matrix(3.779528,0,0,3.779528,0,0)"/>
<path style="fill:none;stroke-width:2;stroke-linecap:butt;stroke-linejoin:miter;stroke:rgb(0%,0%,0%);stroke-opacity:1;stroke-miterlimit:4;" d="M 60.999894 105.000309 L 76.999951 91.500358 L 93.000008 95.500114 L 109.500293 105.499504 " transform="matrix(3.779528,0,0,3.779528,0,0)"/>
<path style="fill:none;stroke-width:2;stroke-linecap:butt;stroke-linejoin:miter;stroke:rgb(0%,0%,0%);stroke-opacity:1;stroke-miterlimit:4;" d="M 96.499536 112.999821 L 122.500016 128.49965 L 138.500073 144.499707 " transform="matrix(3.779528,0,0,3.779528,0,0)"/>
<path style="fill:none;stroke-width:2;stroke-linecap:butt;stroke-linejoin:miter;stroke:rgb(0%,0%,0%);stroke-opacity:1;stroke-miterlimit:4;" d="M 192.499878 165.499976 L 169.999959 181.500033 L 168.000081 197.50009 L 164.000326 212.999919 L 164.000326 228.999976 L 160.499764 244.499805 L 156.500008 260.499862 L 152.000024 276.499919 L 146.000391 292.499976 L 144.000513 308.500033 L 144.000513 324.50009 L 146.000391 339.999919 L 153.499674 356.500203 L 163.500098 372.50026 L 180.000382 400.499585 L 196.499634 402.500496 L 212.499691 402.500496 L 228.499748 402.000269 L 244.499805 402.000269 L 268.500407 429.500399 L 282.499552 431.500277 L 298.499609 433.500155 L 314.499666 436.00026 L 330.499723 436.00026 L 346.49978 434.000382 " transform="matrix(3.779528,0,0,3.779528,0,0)"/>
<path style="fill:none;stroke-width:2;stroke-linecap:butt;stroke-linejoin:miter;stroke:rgb(0%,0%,0%);stroke-opacity:1;stroke-miterlimit:4;" d="M 357.999854 413.500342 L 366.000399 397.500285 " transform="matrix(3.779528,0,0,3.779528,0,0)"/>
<path style="fill:none;stroke-width:2;stroke-linecap:butt;stroke-linejoin:miter;stroke:rgb(0%,0%,0%);stroke-opacity:1;stroke-miterlimit:4;" d="M 366.999821 397.500285 L 354.99952 411.500464 L 363.000065 395.500407 " transform="matrix(3.779528,0,0,3.779528,0,0)"/>
<path style="fill:none;stroke-width:2;stroke-linecap:butt;stroke-linejoin:miter;stroke:rgb(0%,0%,0%);stroke-opacity:1;stroke-miterlimit:4;" d="M 348.999886 391.000423 L 332.999829 416.99987 L 334.999707 414.999992 L 345.00013 399.500163 L 352.999642 384.000334 " transform="matrix(3.779528,0,0,3.779528,0,0)"/>
<path style="fill:none;stroke-width:2;stroke-linecap:butt;stroke-linejoin:miter;stroke:rgb(0%,0%,0%);stroke-opacity:1;stroke-miterlimit:4;" d="M 348.999886 382.000456 L 339.000496 398.000513 L 329.000073 413.500342 L 326.499967 417.500098 L 342.500024 391.999845 " transform="matrix(3.779528,0,0,3.779528,0,0)"/>
<path style="fill:none;stroke-width:2;stroke-linecap:butt;stroke-linejoin:miter;stroke:rgb(0%,0%,0%);stroke-opacity:1;stroke-miterlimit:4;" d="M 306.500155 354.000098 L 307.000382 337.499813 " transform="matrix(3.779528,0,0,3.779528,0,0)"/>
<path style="fill:none;stroke-width:2;stroke-linecap:butt;stroke-linejoin:miter;stroke:rgb(0%,0%,0%);stroke-opacity:1;stroke-miterlimit:4;" d="M 307.000382 336.000163 L 302.999593 351.499992 L 305.000505 367.500049 " transform="matrix(3.779528,0,0,3.779528,0,0)"/>
<path style="fill:none;stroke-width:2;stroke-linecap:butt;stroke-linejoin:miter;stroke:rgb(0%,0%,0%);stroke-opacity:1;stroke-miterlimit:4;" d="M 316.499544 315.500122 L 300.499487 291.49952 " transform="matrix(3.779528,0,0,3.779528,0,0)"/>
<path style="fill:none;stroke-width:2;stroke-linecap:butt;stroke-linejoin:miter;stroke:rgb(0%,0%,0%);stroke-opacity:1;stroke-miterlimit:4;" d="M 300.000293 292.499976 L 309.999683 309.00026 " transform="matrix(3.779528,0,0,3.779528,0,0)"/>
<path style="fill:none;stroke-width:2;stroke-linecap:butt;stroke-linejoin:miter;stroke:rgb(0%,0%,0%);stroke-opacity:1;stroke-miterlimit:4;" d="M 302.999593 316.499544 L 298.999837 300.499487 " transform="matrix(3.779528,0,0,3.779528,0,0)"/>
<path style="fill:none;stroke-width:2;stroke-linecap:butt;stroke-linejoin:miter;stroke:rgb(0%,0%,0%);stroke-opacity:1;stroke-miterlimit:4;" d="M 295.999504 307.000382 L 298.000415 297.500187 L 287.499764 297.500187 L 271.499707 309.999683 L 271.499707 316.00035 L 269.499829 311.500366 L 277.500374 311.500366 L 268.999601 317.5 " transform="matrix(3.779528,0,0,3.779528,0,0)"/>
<path style="fill:none;stroke-width:2;stroke-linecap:butt;stroke-linejoin:miter;stroke:rgb(0%,0%,0%);stroke-opacity:1;stroke-miterlimit:4;" d="M 307.000382 292.499976 L 316.999772 308.500033 " transform="matrix(3.779528,0,0,3.779528,0,0)"/>
<path style="fill:none;stroke-width:2;stroke-linecap:butt;stroke-linejoin:miter;stroke:rgb(0%,0%,0%);stroke-opacity:1;stroke-miterlimit:4;" d="M 304.500277 195.500212 L 302.500399 179.500155 " transform="matrix(3.779528,0,0,3.779528,0,0)"/>
<path style="fill:none;stroke-width:2;stroke-linecap:butt;stroke-linejoin:miter;stroke:rgb(0%,0%,0%);stroke-opacity:1;stroke-miterlimit:4;" d="M 297.500187 177.500277 L 301.499943 193.500334 L 291.999748 195.500212 " transform="matrix(3.779528,0,0,3.779528,0,0)"/>
<path style="fill:none;stroke-width:2;stroke-linecap:butt;stroke-linejoin:miter;stroke:rgb(0%,0%,0%);stroke-opacity:1;stroke-miterlimit:4;" d="M 271.499707 187.499666 L 279.000024 179.500155 L 280.999902 175.999593 " transform="matrix(3.779528,0,0,3.779528,0,0)"/>
<path style="fill:none;stroke-width:2;stroke-linecap:butt;stroke-linejoin:miter;stroke:rgb(0%,0%,0%);stroke-opacity:1;stroke-miterlimit:4;" d="M 279.500252 189.00035 L 264.000423 195.500212 L 246.000488 196.000439 L 227.99952 194.499756 L 212.000496 192.499878 L 196.499634 200.000195 L 202.500301 200.000195 L 204.500179 188.500122 L 216.999674 172.500065 " transform="matrix(3.779528,0,0,3.779528,0,0)"/>
<path style="fill:none;stroke-width:2;stroke-linecap:butt;stroke-linejoin:miter;stroke:rgb(0%,0%,0%);stroke-opacity:1;stroke-miterlimit:4;" d="M 145.500163 155.000358 L 131.499984 146.999813 L 131.499984 131.499984 L 111.500171 115.499927 L 85.499691 99.49987 " transform="matrix(3.779528,0,0,3.779528,0,0)"/>
<path style="fill:none;stroke-width:2;stroke-linecap:butt;stroke-linejoin:miter;stroke:rgb(0%,0%,0%);stroke-opacity:1;stroke-miterlimit:4;" d="M 87.999797 93.500236 L 114.000277 109.500293 L 128.000456 112.000399 L 144.000513 135.999967 L 159.999536 151.499797 L 176.499821 143.500285 L 191.99965 137.499618 " transform="matrix(3.779528,0,0,3.779528,0,0)"/>
<path style="fill:none;stroke-width:2;stroke-linecap:butt;stroke-linejoin:miter;stroke:rgb(0%,0%,0%);stroke-opacity:1;stroke-miterlimit:4;" d="M 84.000041 73.500423 L 73.999618 77.500179 L 57.500366 93.500236 L 67.499756 117.499805 L 89.50048 133.499862 L 114.000277 150.000146 L 119.99991 159.500342 L 132.000212 185.499788 L 135.999967 202.000073 L 135.999967 218.00013 L 128.000456 234.500415 L 114.000277 250.500472 L 107.999609 270.000057 " transform="matrix(3.779528,0,0,3.779528,0,0)"/>
<path style="fill:none;stroke-width:2;stroke-linecap:butt;stroke-linejoin:miter;stroke:rgb(0%,0%,0%);stroke-opacity:1;stroke-miterlimit:4;" d="M 134.999512 367.500049 L 130.999756 383.500106 L 156.500008 400.000391 L 164.49952 416.000448 L 186.500244 427.999715 L 192.499878 445.99965 L 187.999894 461.999707 L 182.00026 478.499992 L 186.000016 490.500293 L 184.000138 506.999544 L 191.99965 509.000456 " transform="matrix(3.779528,0,0,3.779528,0,0)"/>
<path style="fill:none;stroke-width:2;stroke-linecap:butt;stroke-linejoin:miter;stroke:rgb(0%,0%,0%);stroke-opacity:1;stroke-miterlimit:4;" d="M 73.500423 495.999699 L 57.500366 509.999878 L 71.499512 495.999699 " transform="matrix(3.779528,0,0,3.779528,0,0)"/>
<path style="fill:none;stroke-width:2;stroke-linecap:butt;stroke-linejoin:miter;stroke:rgb(0%,0%,0%);stroke-opacity:1;stroke-miterlimit:4;" d="M 82.500391 399.500163 L 94.499658 375.499561 L 89.000252 391.499618 L 89.000252 375.499561 " transform="matrix(3.779528,0,0,3.779528,0,0)"/>
<path style="fill:none;stroke-width:2;stroke-linecap:butt;stroke-linejoin:miter;stroke:rgb(0%,0%,0%);stroke-opacity:1;stroke-miterlimit:4;" d="M 121.499561 373.99991 L 127.500228 389.999967 L 117.499805 406.000024 L 119.000488 418.000326 L 108.499837 433.500155 L 75.999495 450.000439 " transform="matrix(3.779528,0,0,3.779528,0,0)"/>
<path style="fill:none;stroke-width:2;stroke-linecap:butt;stroke-linejoin:miter;stroke:rgb(0%,0%,0%);stroke-opacity:1;stroke-miterlimit:4;" d="M 10.999845 389.999967 L 17.000513 374.500138 " transform="matrix(3.779528,0,0,3.779528,0,0)"/>
<path style="fill:none;stroke-width:2;stroke-linecap:butt;stroke-linejoin:miter;stroke:rgb(0%,0%,0%);stroke-opacity:1;stroke-miterlimit:4;" d="M 16.000057 370.000155 L 10.000423 386.000212 L 11.500073 389.999967 " transform="matrix(3.779528,0,0,3.779528,0,0)"/>
<path style="fill:none;stroke-width:2;stroke-linecap:butt;stroke-linejoin:miter;stroke:rgb(0%,0%,0%);stroke-opacity:1;stroke-miterlimit:4;" d="M 21.000269 91.500358 L 12.999723 75.500301 L 10.999845 69.999862 " transform="matrix(3.779528,0,0,3.779528,0,0)"/>
<path style="fill:none;stroke-width:2;stroke-linecap:butt;stroke-linejoin:miter;stroke:rgb(0%,0%,0%);stroke-opacity:1;stroke-miterlimit:4;" d="M 8.999967 69.499634 L 3.000334 85.499691 L 11.500073 87.499569 L 7.500317 89.50048 L 12.000301 109.000065 L 28.000358 101.499748 L 50.000049 81.499935 L 71.99974 75.999495 L 87.999797 80.000285 L 85.999919 98.500448 L 101.999976 106.499959 L 118.000033 119.000488 L 131.499984 137.000423 " transform="matrix(3.779528,0,0,3.779528,0,0)"/>
<path style="fill:none;stroke-width:2;stroke-linecap:butt;stroke-linejoin:miter;stroke:rgb(0%,0%,0%);stroke-opacity:1;stroke-miterlimit:4;" d="M 67.999984 75.000073 L 55.999683 77.500179 L 51.999927 77.500179 L 46.000293 93.500236 L 51.999927 97.499992 L 60.000472 89.50048 L 87.999797 83.499813 L 102.500203 91.500358 L 114.500505 93.500236 L 130.999756 93.500236 L 146.999813 94.000464 L 162.99987 91.500358 L 178.999927 91.500358 L 194.999984 91.999552 L 211.000041 92.49978 L 371.499805 92.49978 L 387.499862 94.499658 L 407.00048 88.500024 L 413.000114 90.499902 L 411.000236 105.999731 L 410.500008 121.499561 L 410.500008 153.499674 L 408.50013 169.499731 L 400.499585 186.000016 L 402.000269 194.499756 L 393.499495 196.499634 L 387.499862 212.499691 L 384.000334 228.499748 L 382.000456 244.499805 L 382.49965 260.499862 L 392.500073 284.500464 L 391.999845 300.000293 L 395.999601 316.00035 L 395.999601 332.000407 L 400.000391 347.500236 L 416.000448 363.500293 " transform="matrix(3.779528,0,0,3.779528,0,0)"/>
<path style="fill:none;stroke-width:2;stroke-linecap:butt;stroke-linejoin:miter;stroke:rgb(0%,0%,0%);stroke-opacity:1;stroke-miterlimit:4;" d="M 500.000488 146.000391 L 497.999577 151.499797 L 481.99952 155.000358 L 474.000008 160.999992 L 463.999585 160.999992 L 464.499813 169.499731 L 450.999862 171.499609 L 441.000472 167.499854 L 432.999927 177.500277 L 428.499943 196.000439 L 412.499886 214.000374 L 400.000391 236.000065 L 411.999658 220.000008 L 413.500342 212.000496 L 423.499731 196.499634 L 427.499487 180.499577 L 413.500342 164.49952 L 437.49991 148.500496 L 477.499536 132.500439 " transform="matrix(3.779528,0,0,3.779528,0,0)"/>
<path style="fill:none;stroke-width:2;stroke-linecap:butt;stroke-linejoin:miter;stroke:rgb(0%,0%,0%);stroke-opacity:1;stroke-miterlimit:4;" d="M 375.999788 317.5 L 359.499504 299.500065 L 343.50048 293.500431 L 327.500423 285.499886 L 311.500366 285.499886 L 295.500309 284.999658 L 279.000024 289.000448 L 262.999967 286.999536 L 247.500138 286.500342 L 231.500081 286.999536 L 200.000195 286.999536 L 184.500366 287.499764 L 168.500309 287.999992 L 144.499707 275.999691 L 125.999544 302.000171 L 119.99991 286.000114 L 107.999609 270.000057 L 98.500448 266.000301 L 112.499593 244.499805 L 110.499715 228.499748 L 110.499715 204.500179 L 98.999642 198.499512 L 87.000374 182.500488 L 80.500513 166.500431 L 82.000163 156.500008 L 67.999984 140.499951 L 60.000472 124.499894 L 62.00035 108.499837 L 50.000049 103.999854 L 37.49952 99.49987 L 39.500431 82.999585 L 47.499943 76.999951 L 67.499756 69.000439 " transform="matrix(3.779528,0,0,3.779528,0,0)"/>
<path style="fill:none;stroke-width:2;stroke-linecap:butt;stroke-linejoin:miter;stroke:rgb(0%,0%,0%);stroke-opacity:1;stroke-miterlimit:4;" d="M 17.999935 94.499658 L 1.999878 74.499845 " transform="matrix(3.779528,0,0,3.779528,0,0)"/>
</g>
</svg>
