<?xml version="1.0" encoding="UTF-8"?>
<svg xmlns="http://www.w3.org/2000/svg" xmlns:xlink="http://www.w3.org/1999/xlink" width="1935.11811" height="1935.11811" viewBox="0 0 1935.11811 1935.11811" version="1.1">
<g id="surface1">
<path style="fill:none;stroke-width:2;stroke-linecap:butt;stroke-linejoin:miter;stroke:rgb(0%,0%,0%);stroke-opacity:1;stroke-miterlimit:4;" d="M 131.499984 48.500399 L 135.49974 64.500456 L 125.50035 72.499967 L 119.499683 88.500024 L 105.499504 105.000309 L 89.50048 137.000423 L 91.500358 144.999935 L 87.000374 130.999756 L 93.000008 112.499593 L 100.500326 86.500146 L 109.000065 74.499845 L 125.000122 68.500212 L 146.999813 74.499845 L 163.500098 73.999618 L 179.500155 73.500423 L 195.500212 82.999585 L 209.500391 73.000195 " transform="matrix(3.779528,0,0,3.779528,0,0)"/>
<path style="fill:none;stroke-width:2;stroke-linecap:butt;stroke-linejoin:miter;stroke:rgb(0%,0%,0%);stroke-opacity:1;stroke-miterlimit:4;" d="M 212.999919 78.499601 L 214.999797 94.499658 L 209.000163 112.000399 L 205.000407 128.000456 " transform="matrix(3.779528,0,0,3.779528,0,0)"/>
<path style="fill:none;stroke-width:2;stroke-linecap:butt;stroke-linejoin:miter;stroke:rgb(0%,0%,0%);stroke-opacity:1;stroke-miterlimit:4;" d="M 213.500146 136.500195 L 216.000252 119.99991 L 222.500114 103.999854 L 230.999854 87.999797 L 232.999731 83.499813 L 217.499902 116.999577 " transform="matrix(3.779528,0,0,3.779528,0,0)"/>
<path style="fill:none;stroke-width:2;stroke-linecap:butt;stroke-linejoin:miter;stroke:rgb(0%,0%,0%);stroke-opacity:1;stroke-miterlimit:4;" d="M 228.499748 112.999821 L 243.999577 109.000065 L 259.999634 109.500293 L 275.999691 105.499504 L 291.999748 99.49987 L 318.000228 107.500415 L 311.999561 123.500472 L 320.500334 135.999967 L 314.499666 138.500073 L 310.49991 122.500016 L 325.99974 118.50026 " transform="matrix(3.779528,0,0,3.779528,0,0)"/>
<path style="fill:none;stroke-width:2;stroke-linecap:butt;stroke-linejoin:miter;stroke:rgb(0%,0%,0%);stroke-opacity:1;stroke-miterlimit:4;" d="M 316.499544 105.499504 L 300.999715 97.499992 L 284.999658 109.500293 " transform="matrix(3.779528,0,0,3.779528,0,0)"/>
<path style="fill:none;stroke-width:2;stroke-linecap:butt;stroke-linejoin:miter;stroke:rgb(0%,0%,0%);stroke-opacity:1;stroke-miterlimit:4;" d="M 276.499919 106.499959 L 288.50022 122.500016 L 284.500464 126.499772 L 302.500399 140.499951 " transform="matrix(3.779528,0,0,3.779528,0,0)"/>
<path style="fill:none;stroke-width:2;stroke-linecap:butt;stroke-linejoin:miter;stroke:rgb(0%,0%,0%);stroke-opacity:1;stroke-miterlimit:4;" d="M 307.499577 141.999601 L 291.49952 129.500106 L 275.500496 109.500293 L 259.000212 117.499805 " transform="matrix(3.779528,0,0,3.779528,0,0)"/>
<path style="fill:none;stroke-width:2;stroke-linecap:butt;stroke-linejoin:miter;stroke:rgb(0%,0%,0%);stroke-opacity:1;stroke-miterlimit:4;" d="M 266.499495 126.499772 L 272.500163 110.499715 " transform="matrix(3.779528,0,0,3.779528,0,0)"/>
<path style="fill:none;stroke-width:2;stroke-linecap:butt;stroke-linejoin:miter;stroke:rgb(0%,0%,0%);stroke-opacity:1;stroke-miterlimit:4;" d="M 282.000358 82.500391 L 275.999691 76.999951 L 259.500439 76.999951 " transform="matrix(3.779528,0,0,3.779528,0,0)"/>
<path style="fill:none;stroke-width:2;stroke-linecap:butt;stroke-linejoin:miter;stroke:rgb(0%,0%,0%);stroke-opacity:1;stroke-miterlimit:4;" d="M 249.500016 72.499967 L 280.999902 72.499967 " transform="matrix(3.779528,0,0,3.779528,0,0)"/>
<path style="fill:none;stroke-width:2;stroke-linecap:butt;stroke-linejoin:miter;stroke:rgb(0%,0%,0%);stroke-opacity:1;stroke-miterlimit:4;" d="M 300.000293 83.499813 L 316.499544 89.50048 " transform="matrix(3.779528,0,0,3.779528,0,0)"/>
<path style="fill:none;stroke-width:2;stroke-linecap:butt;stroke-linejoin:miter;stroke:rgb(0%,0%,0%);stroke-opacity:1;stroke-miterlimit:4;" d="M 309.999683 87.999797 L 327.999618 103.999854 L 325.99974 119.99991 L 327.999618 136.500195 L 329.999495 152.500252 " transform="matrix(3.779528,0,0,3.779528,0,0)"/>
<path style="fill:none;stroke-width:2;stroke-linecap:butt;stroke-linejoin:miter;stroke:rgb(0%,0%,0%);stroke-opacity:1;stroke-miterlimit:4;" d="M 352.500448 116.500382 L 370.500382 134.500317 L 391.000423 134.500317 L 407.00048 126.499772 L 422.999504 130.499528 L 438.999561 124.499894 L 454.500423 122.500016 L 478.499992 138.500073 " transform="matrix(3.779528,0,0,3.779528,0,0)"/>
<path style="fill:none;stroke-width:2;stroke-linecap:butt;stroke-linejoin:miter;stroke:rgb(0%,0%,0%);stroke-opacity:1;stroke-miterlimit:4;" d="M 483.500203 128.49965 L 467.500146 90.499902 " transform="matrix(3.779528,0,0,3.779528,0,0)"/>
<path style="fill:none;stroke-width:2;stroke-linecap:butt;stroke-linejoin:miter;stroke:rgb(0%,0%,0%);stroke-opacity:1;stroke-miterlimit:4;" d="M 465.500269 86.500146 L 471.499902 102.500203 L 479.00022 118.50026 L 484.999854 134.500317 L 492.500171 150.000146 " transform="matrix(3.779528,0,0,3.779528,0,0)"/>
<path style="fill:none;stroke-width:2;stroke-linecap:butt;stroke-linejoin:miter;stroke:rgb(0%,0%,0%);stroke-opacity:1;stroke-miterlimit:4;" d="M 490.999487 134.500317 L 475.000464 96.499536 L 459.000407 86.500146 " transform="matrix(3.779528,0,0,3.779528,0,0)"/>
<path style="fill:none;stroke-width:2;stroke-linecap:butt;stroke-linejoin:miter;stroke:rgb(0%,0%,0%);stroke-opacity:1;stroke-miterlimit:4;" d="M 468.499569 84.500269 L 475.000464 100.500326 L 482.999976 116.500382 L 488.999609 132.000212 L 497.000155 148.000269 L 506.999544 153.499674 " transform="matrix(3.779528,0,0,3.779528,0,0)"/>
<path style="fill:none;stroke-width:2;stroke-linecap:butt;stroke-linejoin:miter;stroke:rgb(0%,0%,0%);stroke-opacity:1;stroke-miterlimit:4;" d="M 456.999495 114.000277 L 441.000472 94.000464 L 425.499609 80.500513 " transform="matrix(3.779528,0,0,3.779528,0,0)"/>
<path style="fill:none;stroke-width:2;stroke-linecap:butt;stroke-linejoin:miter;stroke:rgb(0%,0%,0%);stroke-opacity:1;stroke-miterlimit:4;" d="M 425.000415 75.000073 L 441.000472 87.000374 L 456.999495 100.500326 " transform="matrix(3.779528,0,0,3.779528,0,0)"/>
<path style="fill:none;stroke-width:2;stroke-linecap:butt;stroke-linejoin:miter;stroke:rgb(0%,0%,0%);stroke-opacity:1;stroke-miterlimit:4;" d="M 436.00026 78.000407 L 447.500334 94.000464 L 459.999829 110.499715 L 461.999707 126.499772 L 480.49987 141.999601 " transform="matrix(3.779528,0,0,3.779528,0,0)"/>
<path style="fill:none;stroke-width:2;stroke-linecap:butt;stroke-linejoin:miter;stroke:rgb(0%,0%,0%);stroke-opacity:1;stroke-miterlimit:4;" d="M 482.999976 153.499674 L 466.999919 137.999845 L 451.50009 130.499528 L 436.00026 130.499528 L 422.000081 134.999512 L 406.000024 132.999634 " transform="matrix(3.779528,0,0,3.779528,0,0)"/>
<path style="fill:none;stroke-width:2;stroke-linecap:butt;stroke-linejoin:miter;stroke:rgb(0%,0%,0%);stroke-opacity:1;stroke-miterlimit:4;" d="M 387.499862 178.000505 L 419.499976 178.000505 L 434.999805 177.500277 L 467.500146 177.500277 L 482.999976 178.000505 L 499.000033 178.000505 " transform="matrix(3.779528,0,0,3.779528,0,0)"/>
<path style="fill:none;stroke-width:2;stroke-linecap:butt;stroke-linejoin:miter;stroke:rgb(0%,0%,0%);stroke-opacity:1;stroke-miterlimit:4;" d="M 450.999862 242.499927 L 466.999919 246.499683 L 482.999976 248.499561 L 499.000033 250.500472 L 502.999788 261.00009 L 510.500106 277.000146 L 502.499561 298.499609 L 491.999943 305.999927 L 509.999878 325.499512 " transform="matrix(3.779528,0,0,3.779528,0,0)"/>
<path style="fill:none;stroke-width:2;stroke-linecap:butt;stroke-linejoin:miter;stroke:rgb(0%,0%,0%);stroke-opacity:1;stroke-miterlimit:4;" d="M 506.999544 277.999569 L 498.499805 275.999691 L 482.499748 259.500439 " transform="matrix(3.779528,0,0,3.779528,0,0)"/>
<path style="fill:none;stroke-width:2;stroke-linecap:butt;stroke-linejoin:miter;stroke:rgb(0%,0%,0%);stroke-opacity:1;stroke-miterlimit:4;" d="M 472.999552 254.500228 L 488.999609 270.500285 L 486.499504 286.500342 L 486.499504 314.499666 L 484.499626 340.500146 L 500.499683 352.00022 " transform="matrix(3.779528,0,0,3.779528,0,0)"/>
<path style="fill:none;stroke-width:2;stroke-linecap:butt;stroke-linejoin:miter;stroke:rgb(0%,0%,0%);stroke-opacity:1;stroke-miterlimit:4;" d="M 479.500448 343.999674 L 463.500391 308.500033 " transform="matrix(3.779528,0,0,3.779528,0,0)"/>
<path style="fill:none;stroke-width:2;stroke-linecap:butt;stroke-linejoin:miter;stroke:rgb(0%,0%,0%);stroke-opacity:1;stroke-miterlimit:4;" d="M 461.000285 305.499699 L 468.999797 321.499756 L 468.999797 337.499813 " transform="matrix(3.779528,0,0,3.779528,0,0)"/>
<path style="fill:none;stroke-width:2;stroke-linecap:butt;stroke-linejoin:miter;stroke:rgb(0%,0%,0%);stroke-opacity:1;stroke-miterlimit:4;" d="M 500.99991 347.500236 L 484.999854 331.500179 L 464.499813 289.000448 L 438.500366 261.00009 " transform="matrix(3.779528,0,0,3.779528,0,0)"/>
<path style="fill:none;stroke-width:2;stroke-linecap:butt;stroke-linejoin:miter;stroke:rgb(0%,0%,0%);stroke-opacity:1;stroke-miterlimit:4;" d="M 438.999561 257.499528 L 448.499756 273.999813 L 466.999919 289.99987 L 472.999552 305.999927 L 477.000342 321.999984 L 482.999976 338.000041 " transform="matrix(3.779528,0,0,3.779528,0,0)"/>
<path style="fill:none;stroke-width:2;stroke-linecap:butt;stroke-linejoin:miter;stroke:rgb(0%,0%,0%);stroke-opacity:1;stroke-miterlimit:4;" d="M 508.500228 338.500269 L 508 323.000439 L 509.999878 305.000505 L 495.999699 302.999593 L 491.999943 286.999536 L 502.000366 279.500252 L 490.000065 263.500195 L 491.999943 259.500439 L 491.999943 255.49965 L 475.999886 254 L 459.999829 255.999878 " transform="matrix(3.779528,0,0,3.779528,0,0)"/>
<path style="fill:none;stroke-width:2;stroke-linecap:butt;stroke-linejoin:miter;stroke:rgb(0%,0%,0%);stroke-opacity:1;stroke-miterlimit:4;" d="M 464.499813 252.50035 L 463.000163 268.500407 L 468.999797 284.500464 L 472.999552 300.499487 L 479.500448 316.00035 L 485.500081 331.500179 L 497.500382 347.000008 " transform="matrix(3.779528,0,0,3.779528,0,0)"/>
<path style="fill:none;stroke-width:2;stroke-linecap:butt;stroke-linejoin:miter;stroke:rgb(0%,0%,0%);stroke-opacity:1;stroke-miterlimit:4;" d="M 475.999886 348.499658 L 459.999829 312.499788 L 447.500334 304.000049 L 415.50022 314.000472 L 398.999935 325.499512 L 382.49965 333.500057 L 408.50013 317.5 L 408.50013 301.499943 L 398.000513 284.999658 L 404.000146 268.999601 L 395.999601 282.99978 " transform="matrix(3.779528,0,0,3.779528,0,0)"/>
<path style="fill:none;stroke-width:2;stroke-linecap:butt;stroke-linejoin:miter;stroke:rgb(0%,0%,0%);stroke-opacity:1;stroke-miterlimit:4;" d="M 398.000513 286.000114 L 413.999536 307.999805 " transform="matrix(3.779528,0,0,3.779528,0,0)"/>
<path style="fill:none;stroke-width:2;stroke-linecap:butt;stroke-linejoin:miter;stroke:rgb(0%,0%,0%);stroke-opacity:1;stroke-miterlimit:4;" d="M 429.500399 325.99974 L 413.500342 333.500057 L 435.500033 327.999618 L 445.500456 318.000228 L 429.500399 332.499601 L 413.500342 342.500024 " transform="matrix(3.779528,0,0,3.779528,0,0)"/>
<path style="fill:none;stroke-width:2;stroke-linecap:butt;stroke-linejoin:miter;stroke:rgb(0%,0%,0%);stroke-opacity:1;stroke-miterlimit:4;" d="M 415.50022 346.49978 L 431.500277 348.499658 L 449.500212 350.499536 L 465.500269 352.500448 " transform="matrix(3.779528,0,0,3.779528,0,0)"/>
<path style="fill:none;stroke-width:2;stroke-linecap:butt;stroke-linejoin:miter;stroke:rgb(0%,0%,0%);stroke-opacity:1;stroke-miterlimit:4;" d="M 450.999862 332.000407 L 456.999495 346.49978 L 441.000472 344.499902 L 416.99987 350.499536 L 407.00048 342.500024 L 375.499561 342.500024 L 359.999731 343.999674 L 346.49978 329.999495 L 341.000374 305.999927 L 341.000374 289.99987 L 339.000496 273.999813 L 339.000496 258.499984 L 325.000317 256.500106 " transform="matrix(3.779528,0,0,3.779528,0,0)"/>
<path style="fill:none;stroke-width:2;stroke-linecap:butt;stroke-linejoin:miter;stroke:rgb(0%,0%,0%);stroke-opacity:1;stroke-miterlimit:4;" d="M 323.999862 256.500106 L 325.99974 272.500163 L 329.999495 287.999992 L 329.999495 304.000049 L 332.000407 319.499878 L 330.499723 334.999707 L 328.499845 341.499569 L 346.49978 334.000285 L 372.50026 346.49978 L 388.999512 346.49978 " transform="matrix(3.779528,0,0,3.779528,0,0)"/>
<path style="fill:none;stroke-width:2;stroke-linecap:butt;stroke-linejoin:miter;stroke:rgb(0%,0%,0%);stroke-opacity:1;stroke-miterlimit:4;" d="M 402.000269 344.499902 L 426.500065 328.499845 L 443.999772 313.000016 L 452.000317 296.999959 L 457.499723 280.999902 L 457.499723 264.999845 L 443.00035 259.000212 L 427.000293 261.00009 " transform="matrix(3.779528,0,0,3.779528,0,0)"/>
<path style="fill:none;stroke-width:2;stroke-linecap:butt;stroke-linejoin:miter;stroke:rgb(0%,0%,0%);stroke-opacity:1;stroke-miterlimit:4;" d="M 447.999528 261.500317 L 468.499569 277.500374 L 484.499626 307.499577 L 491.999943 298.000415 " transform="matrix(3.779528,0,0,3.779528,0,0)"/>
<path style="fill:none;stroke-width:2;stroke-linecap:butt;stroke-linejoin:miter;stroke:rgb(0%,0%,0%);stroke-opacity:1;stroke-miterlimit:4;" d="M 495.999699 283.500008 L 479.500448 279.500252 L 457.499723 263.500195 " transform="matrix(3.779528,0,0,3.779528,0,0)"/>
<path style="fill:none;stroke-width:2;stroke-linecap:butt;stroke-linejoin:miter;stroke:rgb(0%,0%,0%);stroke-opacity:1;stroke-miterlimit:4;" d="M 448.999984 261.500317 L 459.000407 281.50013 L 460.500057 298.000415 L 450.499634 314.000472 L 458.500179 329.999495 L 452.499512 334.000285 L 472.00013 334.000285 " transform="matrix(3.779528,0,0,3.779528,0,0)"/>
<path style="fill:none;stroke-width:2;stroke-linecap:butt;stroke-linejoin:miter;stroke:rgb(0%,0%,0%);stroke-opacity:1;stroke-miterlimit:4;" d="M 485.500081 370.000155 L 455.499845 386.500439 L 459.499601 402.999691 L 467.500146 419.499976 L 466.999919 436.00026 L 470.999674 452.499512 L 463.000163 463.000163 L 479.00022 479.00022 L 484.499626 495.000277 " transform="matrix(3.779528,0,0,3.779528,0,0)"/>
<path style="fill:none;stroke-width:2;stroke-linecap:butt;stroke-linejoin:miter;stroke:rgb(0%,0%,0%);stroke-opacity:1;stroke-miterlimit:4;" d="M 496.499927 474.000008 L 480.49987 454.000195 " transform="matrix(3.779528,0,0,3.779528,0,0)"/>
<path style="fill:none;stroke-width:2;stroke-linecap:butt;stroke-linejoin:miter;stroke:rgb(0%,0%,0%);stroke-opacity:1;stroke-miterlimit:4;" d="M 475.999886 467.500146 L 488.000187 469.500024 L 493.999821 484.999854 L 493.999821 500.99991 " transform="matrix(3.779528,0,0,3.779528,0,0)"/>
<path style="fill:none;stroke-width:2;stroke-linecap:butt;stroke-linejoin:miter;stroke:rgb(0%,0%,0%);stroke-opacity:1;stroke-miterlimit:4;" d="M 447.999528 434.499577 L 432.499699 414.499764 L 416.499642 404.500374 " transform="matrix(3.779528,0,0,3.779528,0,0)"/>
<path style="fill:none;stroke-width:2;stroke-linecap:butt;stroke-linejoin:miter;stroke:rgb(0%,0%,0%);stroke-opacity:1;stroke-miterlimit:4;" d="M 417.500098 404.500374 L 427.000293 420.500431 L 443.00035 440.500244 L 454.500423 456.000073 L 459.999829 472.00013 " transform="matrix(3.779528,0,0,3.779528,0,0)"/>
<path style="fill:none;stroke-width:2;stroke-linecap:butt;stroke-linejoin:miter;stroke:rgb(0%,0%,0%);stroke-opacity:1;stroke-miterlimit:4;" d="M 429.500399 475.000464 L 413.500342 475.000464 " transform="matrix(3.779528,0,0,3.779528,0,0)"/>
<path style="fill:none;stroke-width:2;stroke-linecap:butt;stroke-linejoin:miter;stroke:rgb(0%,0%,0%);stroke-opacity:1;stroke-miterlimit:4;" d="M 407.499674 490.500293 L 422.999504 492.500171 L 439.499788 497.999577 L 455.499845 497.500382 L 471.499902 499.50026 L 486.999731 505.499894 " transform="matrix(3.779528,0,0,3.779528,0,0)"/>
<path style="fill:none;stroke-width:2;stroke-linecap:butt;stroke-linejoin:miter;stroke:rgb(0%,0%,0%);stroke-opacity:1;stroke-miterlimit:4;" d="M 509.999878 408.50013 L 493.499593 408.50013 L 477.499536 382.49965 L 461.999707 388.00009 " transform="matrix(3.779528,0,0,3.779528,0,0)"/>
<path style="fill:none;stroke-width:2;stroke-linecap:butt;stroke-linejoin:miter;stroke:rgb(0%,0%,0%);stroke-opacity:1;stroke-miterlimit:4;" d="M 455.499845 391.999845 L 471.499902 377.999666 L 486.999731 372.50026 L 502.999788 374.500138 " transform="matrix(3.779528,0,0,3.779528,0,0)"/>
<path style="fill:none;stroke-width:2;stroke-linecap:butt;stroke-linejoin:miter;stroke:rgb(0%,0%,0%);stroke-opacity:1;stroke-miterlimit:4;" d="M 503.500016 380.499772 L 488.000187 378.499894 " transform="matrix(3.779528,0,0,3.779528,0,0)"/>
<path style="fill:none;stroke-width:2;stroke-linecap:butt;stroke-linejoin:miter;stroke:rgb(0%,0%,0%);stroke-opacity:1;stroke-miterlimit:4;" d="M 486.499504 378.499894 L 486.499504 394.499951 L 494.500049 409.99978 L 500.499683 425.999837 L 506.50035 441.999894 L 510.500106 447.999528 " transform="matrix(3.779528,0,0,3.779528,0,0)"/>
<path style="fill:none;stroke-width:2;stroke-linecap:butt;stroke-linejoin:miter;stroke:rgb(0%,0%,0%);stroke-opacity:1;stroke-miterlimit:4;" d="M 504.999666 393.999723 L 488.999609 383.500106 " transform="matrix(3.779528,0,0,3.779528,0,0)"/>
<path style="fill:none;stroke-width:2;stroke-linecap:butt;stroke-linejoin:miter;stroke:rgb(0%,0%,0%);stroke-opacity:1;stroke-miterlimit:4;" d="M 487.499959 384.000334 L 493.499593 400.000391 L 504.000244 416.000448 L 509.999878 432.000505 " transform="matrix(3.779528,0,0,3.779528,0,0)"/>
<path style="fill:none;stroke-width:2;stroke-linecap:butt;stroke-linejoin:miter;stroke:rgb(0%,0%,0%);stroke-opacity:1;stroke-miterlimit:4;" d="M 472.00013 414.999992 L 456.000073 393.000301 " transform="matrix(3.779528,0,0,3.779528,0,0)"/>
<path style="fill:none;stroke-width:2;stroke-linecap:butt;stroke-linejoin:miter;stroke:rgb(0%,0%,0%);stroke-opacity:1;stroke-miterlimit:4;" d="M 440.000016 404.999569 L 423.999959 400.999813 " transform="matrix(3.779528,0,0,3.779528,0,0)"/>
<path style="fill:none;stroke-width:2;stroke-linecap:butt;stroke-linejoin:miter;stroke:rgb(0%,0%,0%);stroke-opacity:1;stroke-miterlimit:4;" d="M 423.499731 400.000391 L 441.499666 416.000448 L 451.50009 432.000505 L 459.999829 447.500334 L 454.500423 453.499967 L 470.50048 461.500513 L 474.500236 473.49978 L 498.499805 485.500081 L 502.000366 489.499837 L 507.499772 497.500382 " transform="matrix(3.779528,0,0,3.779528,0,0)"/>
<path style="fill:none;stroke-width:2;stroke-linecap:butt;stroke-linejoin:miter;stroke:rgb(0%,0%,0%);stroke-opacity:1;stroke-miterlimit:4;" d="M 443.00035 417.500098 L 427.000293 403.499919 " transform="matrix(3.779528,0,0,3.779528,0,0)"/>
<path style="fill:none;stroke-width:2;stroke-linecap:butt;stroke-linejoin:miter;stroke:rgb(0%,0%,0%);stroke-opacity:1;stroke-miterlimit:4;" d="M 432.499699 402.000269 L 450.499634 418.000326 L 462.499935 449.500212 L 466.000496 463.000163 L 488.000187 468.999797 " transform="matrix(3.779528,0,0,3.779528,0,0)"/>
<path style="fill:none;stroke-width:2;stroke-linecap:butt;stroke-linejoin:miter;stroke:rgb(0%,0%,0%);stroke-opacity:1;stroke-miterlimit:4;" d="M 436.500488 441.999894 L 420.500431 436.00026 L 404.000146 429.999593 " transform="matrix(3.779528,0,0,3.779528,0,0)"/>
<path style="fill:none;stroke-width:2;stroke-linecap:butt;stroke-linejoin:miter;stroke:rgb(0%,0%,0%);stroke-opacity:1;stroke-miterlimit:4;" d="M 398.999935 431.500277 L 414.999992 443.00035 " transform="matrix(3.779528,0,0,3.779528,0,0)"/>
<path style="fill:none;stroke-width:2;stroke-linecap:butt;stroke-linejoin:miter;stroke:rgb(0%,0%,0%);stroke-opacity:1;stroke-miterlimit:4;" d="M 443.499544 441.999894 L 427.499487 420.000203 L 418.999748 420.000203 L 402.999691 406.000024 " transform="matrix(3.779528,0,0,3.779528,0,0)"/>
<path style="fill:none;stroke-width:2;stroke-linecap:butt;stroke-linejoin:miter;stroke:rgb(0%,0%,0%);stroke-opacity:1;stroke-miterlimit:4;" d="M 402.000269 402.000269 L 416.000448 418.49952 L 425.999837 434.000382 L 437.49991 445.99965 L 463.500391 467.500146 L 479.500448 481.000098 " transform="matrix(3.779528,0,0,3.779528,0,0)"/>
<path style="fill:none;stroke-width:2;stroke-linecap:butt;stroke-linejoin:miter;stroke:rgb(0%,0%,0%);stroke-opacity:1;stroke-miterlimit:4;" d="M 468.999797 429.999593 L 448.999984 406.000024 L 432.499699 395.999601 L 416.99987 398.000513 L 400.499585 402.000269 " transform="matrix(3.779528,0,0,3.779528,0,0)"/>
<path style="fill:none;stroke-width:2;stroke-linecap:butt;stroke-linejoin:miter;stroke:rgb(0%,0%,0%);stroke-opacity:1;stroke-miterlimit:4;" d="M 420.999626 407.00048 L 438.999561 422.999504 L 448.999984 438.999561 L 442.500122 448.499756 L 457.999951 468.000374 " transform="matrix(3.779528,0,0,3.779528,0,0)"/>
<path style="fill:none;stroke-width:2;stroke-linecap:butt;stroke-linejoin:miter;stroke:rgb(0%,0%,0%);stroke-opacity:1;stroke-miterlimit:4;" d="M 406.500252 458.500179 L 390.500195 468.499569 L 388.00009 472.500358 L 372.000033 472.500358 L 355.499748 470.50048 " transform="matrix(3.779528,0,0,3.779528,0,0)"/>
<path style="fill:none;stroke-width:2;stroke-linecap:butt;stroke-linejoin:miter;stroke:rgb(0%,0%,0%);stroke-opacity:1;stroke-miterlimit:4;" d="M 350.499536 468.499569 L 366.000399 466.499691 L 382.000456 462.499935 L 383.500106 468.499569 L 391.499618 448.999984 " transform="matrix(3.779528,0,0,3.779528,0,0)"/>
<path style="fill:none;stroke-width:2;stroke-linecap:butt;stroke-linejoin:miter;stroke:rgb(0%,0%,0%);stroke-opacity:1;stroke-miterlimit:4;" d="M 366.499593 453.499967 L 362.499837 447.500334 L 354.500326 453.499967 " transform="matrix(3.779528,0,0,3.779528,0,0)"/>
<path style="fill:none;stroke-width:2;stroke-linecap:butt;stroke-linejoin:miter;stroke:rgb(0%,0%,0%);stroke-opacity:1;stroke-miterlimit:4;" d="M 354.99952 433.500155 L 370.999577 435.500033 L 376.500016 441.499666 L 391.999845 443.00035 L 407.999902 443.00035 " transform="matrix(3.779528,0,0,3.779528,0,0)"/>
<path style="fill:none;stroke-width:2;stroke-linecap:butt;stroke-linejoin:miter;stroke:rgb(0%,0%,0%);stroke-opacity:1;stroke-miterlimit:4;" d="M 429.000171 392.500073 L 452.99974 408.50013 L 456.500301 425.000415 L 474.500236 441.000472 L 484.000431 457.499723 L 473.49978 465.500269 L 461.500513 475.499658 L 481.99952 489.499837 " transform="matrix(3.779528,0,0,3.779528,0,0)"/>
<path style="fill:none;stroke-width:2;stroke-linecap:butt;stroke-linejoin:miter;stroke:rgb(0%,0%,0%);stroke-opacity:1;stroke-miterlimit:4;" d="M 481.99952 508 L 465.500269 504.000244 L 448.999984 501.500138 L 432.999927 499.50026 L 416.99987 495.500505 L 411.500464 483.500203 L 399.500163 491.499715 L 400.000391 475.499658 L 400.000391 457.499723 L 390.500195 459.000407 L 407.00048 443.00035 L 384.999756 431.500277 L 368.999699 432.000505 L 352.999642 429.999593 " transform="matrix(3.779528,0,0,3.779528,0,0)"/>
<path style="fill:none;stroke-width:2;stroke-linecap:butt;stroke-linejoin:miter;stroke:rgb(0%,0%,0%);stroke-opacity:1;stroke-miterlimit:4;" d="M 352.00022 426.500065 L 368.500505 427.999715 L 384.000334 425.999837 L 399.500163 425.999837 L 407.499674 438.000138 L 422.999504 454.000195 L 407.00048 461.999707 L 412.499886 480.49987 L 400.499585 486.999731 L 402.500496 477.000342 L 418.999748 463.000163 L 443.00035 459.000407 L 459.499601 479.00022 " transform="matrix(3.779528,0,0,3.779528,0,0)"/>
<path style="fill:none;stroke-width:2;stroke-linecap:butt;stroke-linejoin:miter;stroke:rgb(0%,0%,0%);stroke-opacity:1;stroke-miterlimit:4;" d="M 454.999618 481.000098 L 447.000106 475.000464 L 454.999618 472.500358 L 441.000472 456.500301 L 427.000293 440.000016 L 413.000114 423.999959 L 398.499707 415.50022 L 382.49965 413.500342 L 366.499593 413.000114 L 350.499536 414.999992 " transform="matrix(3.779528,0,0,3.779528,0,0)"/>
<path style="fill:none;stroke-width:2;stroke-linecap:butt;stroke-linejoin:miter;stroke:rgb(0%,0%,0%);stroke-opacity:1;stroke-miterlimit:4;" d="M 316.499544 416.000448 L 300.999715 402.000269 L 293.500431 421.499854 L 275.999691 416.000448 " transform="matrix(3.779528,0,0,3.779528,0,0)"/>
<path style="fill:none;stroke-width:2;stroke-linecap:butt;stroke-linejoin:miter;stroke:rgb(0%,0%,0%);stroke-opacity:1;stroke-miterlimit:4;" d="M 271.999935 413.500342 L 287.999992 409.000358 L 298.000415 411.500464 L 304.000049 421.499854 L 302.500399 438.000138 L 308.500033 438.000138 L 302.500399 454.000195 L 302.500399 469.500024 L 292.499976 473.49978 " transform="matrix(3.779528,0,0,3.779528,0,0)"/>
<path style="fill:none;stroke-width:2;stroke-linecap:butt;stroke-linejoin:miter;stroke:rgb(0%,0%,0%);stroke-opacity:1;stroke-miterlimit:4;" d="M 305.999927 459.499601 L 320.000106 429.500399 L 316.00035 415.50022 L 293.999626 403.499919 " transform="matrix(3.779528,0,0,3.779528,0,0)"/>
<path style="fill:none;stroke-width:2;stroke-linecap:butt;stroke-linejoin:miter;stroke:rgb(0%,0%,0%);stroke-opacity:1;stroke-miterlimit:4;" d="M 305.000505 414.499764 L 295.000081 430.499821 L 298.999837 450.499634 " transform="matrix(3.779528,0,0,3.779528,0,0)"/>
<path style="fill:none;stroke-width:2;stroke-linecap:butt;stroke-linejoin:miter;stroke:rgb(0%,0%,0%);stroke-opacity:1;stroke-miterlimit:4;" d="M 283.500008 475.999886 L 287.499764 475.999886 L 287.499764 460.500057 L 283.500008 450.499634 L 281.50013 444.5 L 277.500374 423.999959 L 263.500195 409.99978 L 247.500138 406.500252 " transform="matrix(3.779528,0,0,3.779528,0,0)"/>
<path style="fill:none;stroke-width:2;stroke-linecap:butt;stroke-linejoin:miter;stroke:rgb(0%,0%,0%);stroke-opacity:1;stroke-miterlimit:4;" d="M 248.000366 413.999536 L 253.499772 411.999658 L 249.500016 416.000448 L 243.000155 432.000505 L 244.499805 455.499845 " transform="matrix(3.779528,0,0,3.779528,0,0)"/>
<path style="fill:none;stroke-width:2;stroke-linecap:butt;stroke-linejoin:miter;stroke:rgb(0%,0%,0%);stroke-opacity:1;stroke-miterlimit:4;" d="M 236.000065 458.500179 L 239.999821 442.500122 L 255.999878 426.500065 L 270.000057 423.999959 L 254.500228 429.999593 L 238.500171 443.999772 L 234.500415 432.000505 " transform="matrix(3.779528,0,0,3.779528,0,0)"/>
<path style="fill:none;stroke-width:2;stroke-linecap:butt;stroke-linejoin:miter;stroke:rgb(0%,0%,0%);stroke-opacity:1;stroke-miterlimit:4;" d="M 239.000399 427.999715 L 266.999723 423.999959 L 265.500073 440.500244 " transform="matrix(3.779528,0,0,3.779528,0,0)"/>
<path style="fill:none;stroke-width:2;stroke-linecap:butt;stroke-linejoin:miter;stroke:rgb(0%,0%,0%);stroke-opacity:1;stroke-miterlimit:4;" d="M 261.999512 425.000415 L 259.999634 441.000472 L 268.500407 456.999495 " transform="matrix(3.779528,0,0,3.779528,0,0)"/>
<path style="fill:none;stroke-width:2;stroke-linecap:butt;stroke-linejoin:miter;stroke:rgb(0%,0%,0%);stroke-opacity:1;stroke-miterlimit:4;" d="M 314.499666 463.500391 L 312.499788 457.499723 L 288.50022 453.499967 L 274.500041 459.999829 L 248.499561 466.499691 L 255.999878 452.499512 L 234.000187 434.499577 L 236.500293 418.49952 L 234.500415 402.500496 L 230.499626 414.499764 " transform="matrix(3.779528,0,0,3.779528,0,0)"/>
<path style="fill:none;stroke-width:2;stroke-linecap:butt;stroke-linejoin:miter;stroke:rgb(0%,0%,0%);stroke-opacity:1;stroke-miterlimit:4;" d="M 221.000464 385.499984 L 228.999976 401.500041 L 230.999854 418.000326 L 225.500448 434.499577 L 230.000431 450.499634 L 230.499626 466.999919 L 246.499683 456.500301 L 248.499561 440.500244 L 271.000513 446.499878 L 287.499764 436.500488 L 297.500187 444.5 L 305.499699 434.499577 L 309.500488 416.99987 " transform="matrix(3.779528,0,0,3.779528,0,0)"/>
<path style="fill:none;stroke-width:2;stroke-linecap:butt;stroke-linejoin:miter;stroke:rgb(0%,0%,0%);stroke-opacity:1;stroke-miterlimit:4;" d="M 336.000163 381.500228 L 338.000041 397.500285 L 338.000041 429.500399 L 336.000163 445.99965 L 334.000285 461.999707 L 329.500301 470.000252 " transform="matrix(3.779528,0,0,3.779528,0,0)"/>
<path style="fill:none;stroke-width:2;stroke-linecap:butt;stroke-linejoin:miter;stroke:rgb(0%,0%,0%);stroke-opacity:1;stroke-miterlimit:4;" d="M 320.500334 496.499927 L 288.50022 496.499927 L 272.500163 493.999821 L 256.500106 493.499593 L 240.500049 493.000399 L 223.999764 488.500415 " transform="matrix(3.779528,0,0,3.779528,0,0)"/>
<path style="fill:none;stroke-width:2;stroke-linecap:butt;stroke-linejoin:miter;stroke:rgb(0%,0%,0%);stroke-opacity:1;stroke-miterlimit:4;" d="M 156.500008 429.999593 L 140.499951 429.999593 L 123.999666 427.999715 L 107.999609 423.999959 " transform="matrix(3.779528,0,0,3.779528,0,0)"/>
<path style="fill:none;stroke-width:2;stroke-linecap:butt;stroke-linejoin:miter;stroke:rgb(0%,0%,0%);stroke-opacity:1;stroke-miterlimit:4;" d="M 106.499959 419.499976 L 122.500016 409.499552 L 139.000301 399.500163 L 155.000358 389.49974 L 170.500187 384.999756 L 171.999837 391.499618 L 155.99978 405.499797 L 158.499886 420.000203 L 166.500431 404.500374 L 182.00026 391.000423 L 167.499854 402.999691 L 182.00026 402.999691 L 189.999772 394.499951 L 171.999837 409.99978 L 184.500366 406.000024 L 192.499878 399.500163 " transform="matrix(3.779528,0,0,3.779528,0,0)"/>
<path style="fill:none;stroke-width:2;stroke-linecap:butt;stroke-linejoin:miter;stroke:rgb(0%,0%,0%);stroke-opacity:1;stroke-miterlimit:4;" d="M 207.500513 386.999634 L 207.500513 402.999691 L 205.499601 420.000203 L 203.499723 436.500488 L 201.499845 452.499512 L 205.499601 468.999797 L 205.999829 484.499626 " transform="matrix(3.779528,0,0,3.779528,0,0)"/>
<path style="fill:none;stroke-width:2;stroke-linecap:butt;stroke-linejoin:miter;stroke:rgb(0%,0%,0%);stroke-opacity:1;stroke-miterlimit:4;" d="M 155.99978 409.499552 L 139.999723 413.500342 " transform="matrix(3.779528,0,0,3.779528,0,0)"/>
<path style="fill:none;stroke-width:2;stroke-linecap:butt;stroke-linejoin:miter;stroke:rgb(0%,0%,0%);stroke-opacity:1;stroke-miterlimit:4;" d="M 139.499495 409.99978 L 155.499552 404.000146 L 171.499609 392.500073 " transform="matrix(3.779528,0,0,3.779528,0,0)"/>
<path style="fill:none;stroke-width:2;stroke-linecap:butt;stroke-linejoin:miter;stroke:rgb(0%,0%,0%);stroke-opacity:1;stroke-miterlimit:4;" d="M 180.999805 379.999544 L 164.999748 379.50035 L 144.999935 391.499618 L 128.999878 399.500163 L 112.999821 409.499552 L 96.999764 421.499854 L 80.500513 451.50009 L 88.500024 445.000228 L 98.00022 429.500399 L 116.000155 413.999536 L 142.499829 398.000513 L 180.999805 391.499618 L 191.000228 375.499561 L 173.499487 361.500415 L 157.000236 363.500293 " transform="matrix(3.779528,0,0,3.779528,0,0)"/>
<path style="fill:none;stroke-width:2;stroke-linecap:butt;stroke-linejoin:miter;stroke:rgb(0%,0%,0%);stroke-opacity:1;stroke-miterlimit:4;" d="M 142.499829 385.499984 L 126.499772 375.000366 " transform="matrix(3.779528,0,0,3.779528,0,0)"/>
<path style="fill:none;stroke-width:2;stroke-linecap:butt;stroke-linejoin:miter;stroke:rgb(0%,0%,0%);stroke-opacity:1;stroke-miterlimit:4;" d="M 124.499894 368.999699 L 135.999967 385.499984 L 137.999845 393.499495 L 112.000399 409.99978 L 94.499658 425.999837 L 84.500269 442.500122 L 78.499601 459.000407 L 71.99974 475.000464 " transform="matrix(3.779528,0,0,3.779528,0,0)"/>
<path style="fill:none;stroke-width:2;stroke-linecap:butt;stroke-linejoin:miter;stroke:rgb(0%,0%,0%);stroke-opacity:1;stroke-miterlimit:4;" d="M 82.500391 472.500358 L 78.499601 468.499569 L 74.499845 450.999862 L 82.999585 434.499577 L 86.500146 418.49952 L 90.499902 402.000269 L 94.499658 386.500439 L 100.500326 370.000155 L 103.999854 354.000098 L 89.999674 354.000098 L 73.999618 352.00022 " transform="matrix(3.779528,0,0,3.779528,0,0)"/>
<path style="fill:none;stroke-width:2;stroke-linecap:butt;stroke-linejoin:miter;stroke:rgb(0%,0%,0%);stroke-opacity:1;stroke-miterlimit:4;" d="M 93.500236 354.99952 L 93.500236 370.999577 L 87.499569 386.999634 L 83.499813 403.499919 L 79.500057 419.499976 L 73.500423 435.500033 L 66.000106 452.000317 L 55.999683 460.500057 L 73.999618 436.999683 L 101.999976 395.000179 " transform="matrix(3.779528,0,0,3.779528,0,0)"/>
<path style="fill:none;stroke-width:2;stroke-linecap:butt;stroke-linejoin:miter;stroke:rgb(0%,0%,0%);stroke-opacity:1;stroke-miterlimit:4;" d="M 91.999552 405.499797 L 107.500415 371.499805 L 123.500472 370.000155 L 139.499495 379.999544 " transform="matrix(3.779528,0,0,3.779528,0,0)"/>
<path style="fill:none;stroke-width:2;stroke-linecap:butt;stroke-linejoin:miter;stroke:rgb(0%,0%,0%);stroke-opacity:1;stroke-miterlimit:4;" d="M 109.999487 373.99991 L 103.499626 389.999967 L 96.999764 405.499797 L 91.00013 391.499618 " transform="matrix(3.779528,0,0,3.779528,0,0)"/>
<path style="fill:none;stroke-width:2;stroke-linecap:butt;stroke-linejoin:miter;stroke:rgb(0%,0%,0%);stroke-opacity:1;stroke-miterlimit:4;" d="M 76.499723 411.500464 L 58.499788 407.00048 L 40.499854 409.000358 L 24.499797 418.999748 L 8.49974 434.999805 L 12.499495 432.499699 L 28.000358 416.499642 L 48.000171 400.499585 " transform="matrix(3.779528,0,0,3.779528,0,0)"/>
<path style="fill:none;stroke-width:2;stroke-linecap:butt;stroke-linejoin:miter;stroke:rgb(0%,0%,0%);stroke-opacity:1;stroke-miterlimit:4;" d="M 41.500309 420.000203 L 53.499577 404.000146 L 45.500065 418.000326 L 49.499821 434.000382 L 37.49952 449.500212 L 21.999691 452.99974 L 12.000301 457.499723 L 28.499552 453.499967 L 44.499609 443.499544 L 54.500033 441.999894 L 62.00035 416.000448 L 55.999683 432.000505 L 48.500399 447.999528 " transform="matrix(3.779528,0,0,3.779528,0,0)"/>
<path style="fill:none;stroke-width:2;stroke-linecap:butt;stroke-linejoin:miter;stroke:rgb(0%,0%,0%);stroke-opacity:1;stroke-miterlimit:4;" d="M 65.499878 461.000285 L 81.499935 430.499821 " transform="matrix(3.779528,0,0,3.779528,0,0)"/>
<path style="fill:none;stroke-width:2;stroke-linecap:butt;stroke-linejoin:miter;stroke:rgb(0%,0%,0%);stroke-opacity:1;stroke-miterlimit:4;" d="M 84.000041 461.999707 L 100.000098 457.999951 L 116.500382 459.499601 L 132.500439 457.999951 L 148.999691 457.999951 L 175.000171 463.999585 L 191.000228 462.499935 " transform="matrix(3.779528,0,0,3.779528,0,0)"/>
<path style="fill:none;stroke-width:2;stroke-linecap:butt;stroke-linejoin:miter;stroke:rgb(0%,0%,0%);stroke-opacity:1;stroke-miterlimit:4;" d="M 130.000334 486.000309 L 114.000277 486.499504 L 98.00022 486.499504 " transform="matrix(3.779528,0,0,3.779528,0,0)"/>
<path style="fill:none;stroke-width:2;stroke-linecap:butt;stroke-linejoin:miter;stroke:rgb(0%,0%,0%);stroke-opacity:1;stroke-miterlimit:4;" d="M 95.500114 481.000098 L 128.000456 481.000098 L 144.000513 481.500326 " transform="matrix(3.779528,0,0,3.779528,0,0)"/>
<path style="fill:none;stroke-width:2;stroke-linecap:butt;stroke-linejoin:miter;stroke:rgb(0%,0%,0%);stroke-opacity:1;stroke-miterlimit:4;" d="M 119.99991 462.499935 L 103.999854 461.999707 L 87.999797 461.500513 " transform="matrix(3.779528,0,0,3.779528,0,0)"/>
<path style="fill:none;stroke-width:2;stroke-linecap:butt;stroke-linejoin:miter;stroke:rgb(0%,0%,0%);stroke-opacity:1;stroke-miterlimit:4;" d="M 83.499813 462.499935 L 99.49987 430.499821 L 115.499927 432.999927 L 131.499984 434.999805 L 146.999813 434.999805 L 162.499642 434.499577 " transform="matrix(3.779528,0,0,3.779528,0,0)"/>
<path style="fill:none;stroke-width:2;stroke-linecap:butt;stroke-linejoin:miter;stroke:rgb(0%,0%,0%);stroke-opacity:1;stroke-miterlimit:4;" d="M 209.500391 456.500301 L 209.500391 440.500244 L 209.000163 424.500187 L 211.000041 408.50013 L 213.500146 391.999845 L 211.500269 375.999788 " transform="matrix(3.779528,0,0,3.779528,0,0)"/>
<path style="fill:none;stroke-width:2;stroke-linecap:butt;stroke-linejoin:miter;stroke:rgb(0%,0%,0%);stroke-opacity:1;stroke-miterlimit:4;" d="M 286.500342 337.499813 L 302.500399 329.500301 " transform="matrix(3.779528,0,0,3.779528,0,0)"/>
<path style="fill:none;stroke-width:2;stroke-linecap:butt;stroke-linejoin:miter;stroke:rgb(0%,0%,0%);stroke-opacity:1;stroke-miterlimit:4;" d="M 269.499829 303.499821 L 253.499772 295.500309 L 237.999943 286.999536 " transform="matrix(3.779528,0,0,3.779528,0,0)"/>
<path style="fill:none;stroke-width:2;stroke-linecap:butt;stroke-linejoin:miter;stroke:rgb(0%,0%,0%);stroke-opacity:1;stroke-miterlimit:4;" d="M 239.499593 284.000236 L 261.500317 300.000293 " transform="matrix(3.779528,0,0,3.779528,0,0)"/>
<path style="fill:none;stroke-width:2;stroke-linecap:butt;stroke-linejoin:miter;stroke:rgb(0%,0%,0%);stroke-opacity:1;stroke-miterlimit:4;" d="M 269.499829 296.499731 L 254 291.000326 L 237.999943 282.99978 " transform="matrix(3.779528,0,0,3.779528,0,0)"/>
<path style="fill:none;stroke-width:2;stroke-linecap:butt;stroke-linejoin:miter;stroke:rgb(0%,0%,0%);stroke-opacity:1;stroke-miterlimit:4;" d="M 250.500472 266.499495 L 266.000301 268.000179 L 282.000358 270.000057 L 298.000415 268.000179 " transform="matrix(3.779528,0,0,3.779528,0,0)"/>
<path style="fill:none;stroke-width:2;stroke-linecap:butt;stroke-linejoin:miter;stroke:rgb(0%,0%,0%);stroke-opacity:1;stroke-miterlimit:4;" d="M 283.500008 250.999666 L 267.499951 251.499894 L 251.499894 251.499894 " transform="matrix(3.779528,0,0,3.779528,0,0)"/>
<path style="fill:none;stroke-width:2;stroke-linecap:butt;stroke-linejoin:miter;stroke:rgb(0%,0%,0%);stroke-opacity:1;stroke-miterlimit:4;" d="M 247.500138 251.499894 L 243.500382 253.499772 L 246.000488 261.500317 L 261.999512 261.500317 L 277.999569 263.500195 L 293.999626 263.500195 L 300.000293 259.500439 " transform="matrix(3.779528,0,0,3.779528,0,0)"/>
<path style="fill:none;stroke-width:2;stroke-linecap:butt;stroke-linejoin:miter;stroke:rgb(0%,0%,0%);stroke-opacity:1;stroke-miterlimit:4;" d="M 320.000106 275.999691 L 314.000472 291.999748 L 317.5 307.999805 L 313.000016 323.499634 L 310.49991 339.499691 " transform="matrix(3.779528,0,0,3.779528,0,0)"/>
<path style="fill:none;stroke-width:2;stroke-linecap:butt;stroke-linejoin:miter;stroke:rgb(0%,0%,0%);stroke-opacity:1;stroke-miterlimit:4;" d="M 339.999919 361.999609 L 404.000146 361.999609 L 420.000203 363.500293 " transform="matrix(3.779528,0,0,3.779528,0,0)"/>
<path style="fill:none;stroke-width:2;stroke-linecap:butt;stroke-linejoin:miter;stroke:rgb(0%,0%,0%);stroke-opacity:1;stroke-miterlimit:4;" d="M 391.999845 325.000317 L 406.000024 309.00026 L 390.500195 305.000505 L 374.500138 296.999959 " transform="matrix(3.779528,0,0,3.779528,0,0)"/>
<path style="fill:none;stroke-width:2;stroke-linecap:butt;stroke-linejoin:miter;stroke:rgb(0%,0%,0%);stroke-opacity:1;stroke-miterlimit:4;" d="M 375.000366 295.999504 L 377.000244 311.500366 L 381 327.000195 L 393.000301 323.000439 " transform="matrix(3.779528,0,0,3.779528,0,0)"/>
<path style="fill:none;stroke-width:2;stroke-linecap:butt;stroke-linejoin:miter;stroke:rgb(0%,0%,0%);stroke-opacity:1;stroke-miterlimit:4;" d="M 395.999601 305.999927 L 386.500439 325.99974 L 384.000334 305.999927 L 396.499829 295.999504 L 389.999967 279.500252 L 402.000269 263.500195 L 406.000024 259.500439 L 389.999967 279.000024 " transform="matrix(3.779528,0,0,3.779528,0,0)"/>
<path style="fill:none;stroke-width:2;stroke-linecap:butt;stroke-linejoin:miter;stroke:rgb(0%,0%,0%);stroke-opacity:1;stroke-miterlimit:4;" d="M 388.00009 264.999845 L 372.000033 269.499829 " transform="matrix(3.779528,0,0,3.779528,0,0)"/>
<path style="fill:none;stroke-width:2;stroke-linecap:butt;stroke-linejoin:miter;stroke:rgb(0%,0%,0%);stroke-opacity:1;stroke-miterlimit:4;" d="M 360.499959 298.999837 L 376.500016 279.000024 L 381 274.500041 L 367.500049 290.500098 L 359.999731 306.500155 L 361.999609 322.500212 L 362.499837 338.500269 " transform="matrix(3.779528,0,0,3.779528,0,0)"/>
<path style="fill:none;stroke-width:2;stroke-linecap:butt;stroke-linejoin:miter;stroke:rgb(0%,0%,0%);stroke-opacity:1;stroke-miterlimit:4;" d="M 357.000431 338.500269 L 354.99952 322.500212 L 357.000431 306.500155 L 363.000065 289.99987 L 375.000366 273.999813 L 373.000488 275.500496 L 357.000431 297.500187 " transform="matrix(3.779528,0,0,3.779528,0,0)"/>
<path style="fill:none;stroke-width:2;stroke-linecap:butt;stroke-linejoin:miter;stroke:rgb(0%,0%,0%);stroke-opacity:1;stroke-miterlimit:4;" d="M 320.999528 286.000114 L 320.999528 317.5 L 316.499544 333.500057 " transform="matrix(3.779528,0,0,3.779528,0,0)"/>
<path style="fill:none;stroke-width:2;stroke-linecap:butt;stroke-linejoin:miter;stroke:rgb(0%,0%,0%);stroke-opacity:1;stroke-miterlimit:4;" d="M 331.500179 373.99991 L 330.999951 389.999967 L 332.999829 405.499797 L 330.999951 421.499854 L 330.999951 437.49991 L 328.499845 453.499967 L 312.499788 463.500391 " transform="matrix(3.779528,0,0,3.779528,0,0)"/>
<path style="fill:none;stroke-width:2;stroke-linecap:butt;stroke-linejoin:miter;stroke:rgb(0%,0%,0%);stroke-opacity:1;stroke-miterlimit:4;" d="M 345.500358 366.000399 L 345.500358 398.499707 L 355.499748 414.499764 L 359.999731 411.000236 L 375.999788 413.000114 L 389.999967 403.499919 L 391.999845 411.500464 L 407.999902 416.99987 L 423.999959 431.000049 " transform="matrix(3.779528,0,0,3.779528,0,0)"/>
<path style="fill:none;stroke-width:2;stroke-linecap:butt;stroke-linejoin:miter;stroke:rgb(0%,0%,0%);stroke-opacity:1;stroke-miterlimit:4;" d="M 395.000179 365.500171 L 347.000008 365.500171 " transform="matrix(3.779528,0,0,3.779528,0,0)"/>
<path style="fill:none;stroke-width:2;stroke-linecap:butt;stroke-linejoin:miter;stroke:rgb(0%,0%,0%);stroke-opacity:1;stroke-miterlimit:4;" d="M 307.999805 425.499609 L 300.000293 457.499723 L 295.999504 465.000041 L 279.500252 469.500024 L 264.999845 469.500024 L 257.499528 471.499902 L 241.500505 469.500024 L 217.499902 459.499601 L 195.500212 459.499601 L 197.50009 443.999772 L 199.499967 427.999715 L 201.499845 411.500464 L 203.499723 395.500407 L 207.999707 379.50035 L 207.999707 363.500293 L 204.500179 347.500236 L 212.999919 331.500179 L 212.999919 284.500464 " transform="matrix(3.779528,0,0,3.779528,0,0)"/>
<path style="fill:none;stroke-width:2;stroke-linecap:butt;stroke-linejoin:miter;stroke:rgb(0%,0%,0%);stroke-opacity:1;stroke-miterlimit:4;" d="M 200.500423 268.999601 L 184.500366 273.000391 L 156.500008 273.000391 L 140.499951 261.500317 L 124.499894 249.500016 L 108.499837 263.500195 " transform="matrix(3.779528,0,0,3.779528,0,0)"/>
<path style="fill:none;stroke-width:2;stroke-linecap:butt;stroke-linejoin:miter;stroke:rgb(0%,0%,0%);stroke-opacity:1;stroke-miterlimit:4;" d="M 118.000033 254.500228 L 103.999854 273.000391 L 91.500358 289.000448 L 85.499691 304.500277 L 79.500057 320.500334 L 71.499512 336.000163 L 69.999862 327.999618 L 85.499691 287.999992 L 101.999976 264.000423 L 118.000033 243.999577 L 123.999666 234.000187 L 139.999723 234.500415 L 155.99978 234.000187 L 171.499609 234.000187 " transform="matrix(3.779528,0,0,3.779528,0,0)"/>
<path style="fill:none;stroke-width:2;stroke-linecap:butt;stroke-linejoin:miter;stroke:rgb(0%,0%,0%);stroke-opacity:1;stroke-miterlimit:4;" d="M 166.000203 242.499927 L 162.000448 238.500171 L 130.000334 238.500171 L 114.000277 237.999943 " transform="matrix(3.779528,0,0,3.779528,0,0)"/>
<path style="fill:none;stroke-width:2;stroke-linecap:butt;stroke-linejoin:miter;stroke:rgb(0%,0%,0%);stroke-opacity:1;stroke-miterlimit:4;" d="M 116.000155 243.500382 L 104.500081 259.500439 L 94.499658 275.500496 L 86.500146 291.999748 L 78.499601 307.999805 L 74.499845 323.999862 L 66.500334 339.999919 L 70.50009 350.000342 L 85.999919 347.500236 L 101.499748 351.499992 L 119.499683 352.999642 " transform="matrix(3.779528,0,0,3.779528,0,0)"/>
<path style="fill:none;stroke-width:2;stroke-linecap:butt;stroke-linejoin:miter;stroke:rgb(0%,0%,0%);stroke-opacity:1;stroke-miterlimit:4;" d="M 105.999731 370.500382 L 100.000098 386.000212 L 93.500236 402.500496 L 89.50048 380.499772 " transform="matrix(3.779528,0,0,3.779528,0,0)"/>
<path style="fill:none;stroke-width:2;stroke-linecap:butt;stroke-linejoin:miter;stroke:rgb(0%,0%,0%);stroke-opacity:1;stroke-miterlimit:4;" d="M 41.999504 332.499601 L 25.500252 332.999829 L 15.499829 329.000073 L 12.000301 316.999772 L 12.000301 320.500334 " transform="matrix(3.779528,0,0,3.779528,0,0)"/>
<path style="fill:none;stroke-width:2;stroke-linecap:butt;stroke-linejoin:miter;stroke:rgb(0%,0%,0%);stroke-opacity:1;stroke-miterlimit:4;" d="M 15.499829 328.499845 L 31.499886 330.499723 " transform="matrix(3.779528,0,0,3.779528,0,0)"/>
<path style="fill:none;stroke-width:2;stroke-linecap:butt;stroke-linejoin:miter;stroke:rgb(0%,0%,0%);stroke-opacity:1;stroke-miterlimit:4;" d="M 17.999935 358.500081 L 1.999878 358.500081 " transform="matrix(3.779528,0,0,3.779528,0,0)"/>
<path style="fill:none;stroke-width:2;stroke-linecap:butt;stroke-linejoin:miter;stroke:rgb(0%,0%,0%);stroke-opacity:1;stroke-miterlimit:4;" d="M 1.000456 353.49987 L 17.499707 354.000098 " transform="matrix(3.779528,0,0,3.779528,0,0)"/>
<path style="fill:none;stroke-width:2;stroke-linecap:butt;stroke-linejoin:miter;stroke:rgb(0%,0%,0%);stroke-opacity:1;stroke-miterlimit:4;" d="M 19.000391 400.499585 L 3.499528 406.500252 L 7.500317 418.49952 L 12.000301 407.00048 L 5.999634 393.000301 L 18.500163 386.999634 L 1.999878 395.000179 L 1.999878 400.999813 " transform="matrix(3.779528,0,0,3.779528,0,0)"/>
<path style="fill:none;stroke-width:2;stroke-linecap:butt;stroke-linejoin:miter;stroke:rgb(0%,0%,0%);stroke-opacity:1;stroke-miterlimit:4;" d="M 32.500342 420.999626 L 16.500285 436.999683 L 28.499552 425.000415 L 44.499609 413.500342 " transform="matrix(3.779528,0,0,3.779528,0,0)"/>
<path style="fill:none;stroke-width:2;stroke-linecap:butt;stroke-linejoin:miter;stroke:rgb(0%,0%,0%);stroke-opacity:1;stroke-miterlimit:4;" d="M 143.500285 329.500301 L 133.499862 313.500244 " transform="matrix(3.779528,0,0,3.779528,0,0)"/>
<path style="fill:none;stroke-width:2;stroke-linecap:butt;stroke-linejoin:miter;stroke:rgb(0%,0%,0%);stroke-opacity:1;stroke-miterlimit:4;" d="M 130.000334 307.499577 L 134.00009 323.499634 L 153.999902 336.999585 L 169.999959 339.000496 L 186.000016 336.999585 " transform="matrix(3.779528,0,0,3.779528,0,0)"/>
<path style="fill:none;stroke-width:2;stroke-linecap:butt;stroke-linejoin:miter;stroke:rgb(0%,0%,0%);stroke-opacity:1;stroke-miterlimit:4;" d="M 193.500334 333.500057 L 160.999992 333.500057 L 144.499707 331.500179 L 128.49965 307.499577 " transform="matrix(3.779528,0,0,3.779528,0,0)"/>
<path style="fill:none;stroke-width:2;stroke-linecap:butt;stroke-linejoin:miter;stroke:rgb(0%,0%,0%);stroke-opacity:1;stroke-miterlimit:4;" d="M 138.500073 266.000301 L 122.500016 255.49965 " transform="matrix(3.779528,0,0,3.779528,0,0)"/>
<path style="fill:none;stroke-width:2;stroke-linecap:butt;stroke-linejoin:miter;stroke:rgb(0%,0%,0%);stroke-opacity:1;stroke-miterlimit:4;" d="M 123.000244 256.500106 L 144.999935 272.500163 " transform="matrix(3.779528,0,0,3.779528,0,0)"/>
<path style="fill:none;stroke-width:2;stroke-linecap:butt;stroke-linejoin:miter;stroke:rgb(0%,0%,0%);stroke-opacity:1;stroke-miterlimit:4;" d="M 141.000179 260.499862 L 120.500138 244.499805 " transform="matrix(3.779528,0,0,3.779528,0,0)"/>
<path style="fill:none;stroke-width:2;stroke-linecap:butt;stroke-linejoin:miter;stroke:rgb(0%,0%,0%);stroke-opacity:1;stroke-miterlimit:4;" d="M 61.500122 261.500317 L 46.000293 263.500195 " transform="matrix(3.779528,0,0,3.779528,0,0)"/>
<path style="fill:none;stroke-width:2;stroke-linecap:butt;stroke-linejoin:miter;stroke:rgb(0%,0%,0%);stroke-opacity:1;stroke-miterlimit:4;" d="M 42.999959 245.000033 L 59.000016 247.500138 L 75.000073 247.500138 " transform="matrix(3.779528,0,0,3.779528,0,0)"/>
<path style="fill:none;stroke-width:2;stroke-linecap:butt;stroke-linejoin:miter;stroke:rgb(0%,0%,0%);stroke-opacity:1;stroke-miterlimit:4;" d="M 87.000374 253.499772 L 69.000439 289.499642 L 53.499577 329.500301 L 64.99965 317.5 L 71.000317 302.000171 L 76.999951 286.500342 L 78.499601 277.000146 L 86.500146 264.999845 L 87.999797 253.499772 L 91.500358 252.999544 L 85.000496 243.000155 L 69.000439 243.000155 L 52.500155 242.499927 L 35.99987 243.000155 " transform="matrix(3.779528,0,0,3.779528,0,0)"/>
<path style="fill:none;stroke-width:2;stroke-linecap:butt;stroke-linejoin:miter;stroke:rgb(0%,0%,0%);stroke-opacity:1;stroke-miterlimit:4;" d="M 3.000334 275.999691 L 19.000391 273.499585 L 66.999528 273.499585 L 76.499723 252.000122 L 72.499967 268.500407 L 67.999984 292.499976 L 55.00026 324.50009 L 57.000138 332.499601 L 72.499967 290.500098 L 96.499536 277.999569 L 112.999821 273.499585 L 129.500106 277.500374 L 157.999658 277.500374 L 173.999715 271.499707 L 189.999772 269.499829 L 203.999951 285.499886 L 204.500179 301.499943 L 202.500301 317.5 " transform="matrix(3.779528,0,0,3.779528,0,0)"/>
<path style="fill:none;stroke-width:2;stroke-linecap:butt;stroke-linejoin:miter;stroke:rgb(0%,0%,0%);stroke-opacity:1;stroke-miterlimit:4;" d="M 214.499569 236.999487 L 216.50048 253.499772 L 216.000252 269.499829 L 216.000252 318.000228 L 215.500024 334.000285 L 213.500146 351.499992 L 215.500024 367.500049 L 216.999674 383.500106 L 216.999674 399.500163 L 214.999797 415.50022 L 214.999797 432.000505 L 215.500024 448.499756 L 220.000008 464.499813 L 210.499813 484.999854 L 228.499748 492.500171 L 234.500415 488.500415 L 250.999666 490.500293 L 299.500065 490.500293 L 315.500122 490.999487 L 331.500179 493.000399 L 341.000374 495.000277 " transform="matrix(3.779528,0,0,3.779528,0,0)"/>
<path style="fill:none;stroke-width:2;stroke-linecap:butt;stroke-linejoin:miter;stroke:rgb(0%,0%,0%);stroke-opacity:1;stroke-miterlimit:4;" d="M 507.499772 509.000456 L 505.499894 504.500472 L 511.499528 496.499927 L 501.500138 484.499626 L 493.000399 472.00013 L 484.999854 452.000317 L 479.500448 445.99965 L 479.500448 429.500399 L 470.000252 413.500342 L 463.999585 397.000057 L 475.999886 381 " transform="matrix(3.779528,0,0,3.779528,0,0)"/>
<path style="fill:none;stroke-width:2;stroke-linecap:butt;stroke-linejoin:miter;stroke:rgb(0%,0%,0%);stroke-opacity:1;stroke-miterlimit:4;" d="M 423.999959 227.500326 L 407.499674 223.499536 L 391.000423 221.000464 " transform="matrix(3.779528,0,0,3.779528,0,0)"/>
<path style="fill:none;stroke-width:2;stroke-linecap:butt;stroke-linejoin:miter;stroke:rgb(0%,0%,0%);stroke-opacity:1;stroke-miterlimit:4;" d="M 384.999756 221.499658 L 400.999813 217.499902 L 417.500098 217.499902 " transform="matrix(3.779528,0,0,3.779528,0,0)"/>
<path style="fill:none;stroke-width:2;stroke-linecap:butt;stroke-linejoin:miter;stroke:rgb(0%,0%,0%);stroke-opacity:1;stroke-miterlimit:4;" d="M 397.500285 180.999805 L 429.000171 180.999805 L 445.000228 181.500033 L 477.000342 181.500033 L 493.000399 182.00026 L 509.000456 182.00026 " transform="matrix(3.779528,0,0,3.779528,0,0)"/>
<path style="fill:none;stroke-width:2;stroke-linecap:butt;stroke-linejoin:miter;stroke:rgb(0%,0%,0%);stroke-opacity:1;stroke-miterlimit:4;" d="M 425.000415 101.999976 L 423.499731 98.00022 L 407.499674 96.000342 L 391.999845 98.00022 L 388.00009 85.999919 " transform="matrix(3.779528,0,0,3.779528,0,0)"/>
<path style="fill:none;stroke-width:2;stroke-linecap:butt;stroke-linejoin:miter;stroke:rgb(0%,0%,0%);stroke-opacity:1;stroke-miterlimit:4;" d="M 385.499984 82.500391 L 401.500041 80.500513 L 417.500098 76.999951 L 437.49991 93.000008 L 453.499967 109.000065 L 453.499967 132.999634 L 477.499536 148.999691 " transform="matrix(3.779528,0,0,3.779528,0,0)"/>
<path style="fill:none;stroke-width:2;stroke-linecap:butt;stroke-linejoin:miter;stroke:rgb(0%,0%,0%);stroke-opacity:1;stroke-miterlimit:4;" d="M 486.000309 10.000423 L 502.000366 10.499618 " transform="matrix(3.779528,0,0,3.779528,0,0)"/>
<path style="fill:none;stroke-width:2;stroke-linecap:butt;stroke-linejoin:miter;stroke:rgb(0%,0%,0%);stroke-opacity:1;stroke-miterlimit:4;" d="M 493.000399 3.999756 L 477.000342 10.000423 L 461.000285 10.000423 L 445.000228 10.499618 L 413.000114 10.499618 " transform="matrix(3.779528,0,0,3.779528,0,0)"/>
<path style="fill:none;stroke-width:2;stroke-linecap:butt;stroke-linejoin:miter;stroke:rgb(0%,0%,0%);stroke-opacity:1;stroke-miterlimit:4;" d="M 436.999683 3.999756 L 420.999626 3.999756 L 404.500374 9.500195 L 388.500317 9.500195 L 372.50026 8.999967 L 324.50009 8.999967 L 308.500033 9.500195 L 261.00009 9.500195 L 244.499805 10.000423 L 228.499748 10.000423 L 212.000496 7.999512 L 196.000439 7.999512 " transform="matrix(3.779528,0,0,3.779528,0,0)"/>
<path style="fill:none;stroke-width:2;stroke-linecap:butt;stroke-linejoin:miter;stroke:rgb(0%,0%,0%);stroke-opacity:1;stroke-miterlimit:4;" d="M 141.999601 3.499528 L 125.999544 3.499528 L 109.999487 3.000334 L 93.500236 3.499528 L 61.500122 3.499528 L 45.500065 9.500195 L 35.499642 9.500195 L 17.499707 7.500317 L 1.49965 7.999512 " transform="matrix(3.779528,0,0,3.779528,0,0)"/>
<path style="fill:none;stroke-width:2;stroke-linecap:butt;stroke-linejoin:miter;stroke:rgb(0%,0%,0%);stroke-opacity:1;stroke-miterlimit:4;" d="M 0.500228 14.999601 L 16.500285 14.500407 L 130.000334 14.500407 L 146.000391 14.999601 L 162.000448 14.999601 L 178.000505 14.500407 L 194.499756 14.000179 L 210.499813 14.000179 L 227.000098 13.499951 L 307.499577 13.499951 L 323.999862 14.000179 L 339.499691 13.499951 L 354.99952 14.000179 L 370.500382 14.000179 L 386.500439 14.500407 L 402.000269 14.500407 L 418.000326 14.999601 L 465.000041 14.999601 L 481.000098 15.499829 L 497.000155 14.999601 L 508.500228 10.999845 " transform="matrix(3.779528,0,0,3.779528,0,0)"/>
<path style="fill:none;stroke-width:2;stroke-linecap:butt;stroke-linejoin:miter;stroke:rgb(0%,0%,0%);stroke-opacity:1;stroke-miterlimit:4;" d="M 363.000065 91.999552 L 346.49978 91.999552 " transform="matrix(3.779528,0,0,3.779528,0,0)"/>
<path style="fill:none;stroke-width:2;stroke-linecap:butt;stroke-linejoin:miter;stroke:rgb(0%,0%,0%);stroke-opacity:1;stroke-miterlimit:4;" d="M 335.499935 75.500301 L 339.499691 91.500358 L 341.499569 107.500415 L 345.500358 123.000244 L 347.500236 139.000301 L 359.499504 154.50013 L 375.999788 156.500008 L 392.500073 153.999902 L 409.000358 144.000513 L 425.499609 146.000391 L 441.999894 137.999845 L 457.999951 148.000269 " transform="matrix(3.779528,0,0,3.779528,0,0)"/>
<path style="fill:none;stroke-width:2;stroke-linecap:butt;stroke-linejoin:miter;stroke:rgb(0%,0%,0%);stroke-opacity:1;stroke-miterlimit:4;" d="M 350.000342 225.500448 L 333.500057 233.499959 " transform="matrix(3.779528,0,0,3.779528,0,0)"/>
<path style="fill:none;stroke-width:2;stroke-linecap:butt;stroke-linejoin:miter;stroke:rgb(0%,0%,0%);stroke-opacity:1;stroke-miterlimit:4;" d="M 333.500057 232.999731 L 331.500179 248.999788 L 341.499569 249.500016 L 343.50048 265.500073 L 343.50048 314.000472 L 341.499569 329.500301 L 343.50048 345.500358 L 339.499691 366.000399 L 339.499691 382.000456 L 341.499569 398.000513 L 343.999674 413.999536 L 345.999552 429.999593 L 348.000464 446.499878 L 348.000464 462.499935 L 345.999552 478.499992 L 350.499536 477.999764 L 350.499536 493.999821 L 344.499902 509.49965 L 350.000342 509.999878 " transform="matrix(3.779528,0,0,3.779528,0,0)"/>
<path style="fill:none;stroke-width:2;stroke-linecap:butt;stroke-linejoin:miter;stroke:rgb(0%,0%,0%);stroke-opacity:1;stroke-miterlimit:4;" d="M 336.999585 338.500269 L 336.999585 305.999927 L 334.999707 289.499642 L 332.999829 273.499585 L 329.000073 257.999756 " transform="matrix(3.779528,0,0,3.779528,0,0)"/>
<path style="fill:none;stroke-width:2;stroke-linecap:butt;stroke-linejoin:miter;stroke:rgb(0%,0%,0%);stroke-opacity:1;stroke-miterlimit:4;" d="M 333.500057 142.499829 L 333.500057 126.499772 L 334.000285 110.499715 L 329.999495 94.499658 L 329.999495 78.499601 L 325.99974 74.499845 L 327.999618 57.999561 L 323.999862 57.999561 L 332.000407 55.500488 L 323.999862 45.500065 " transform="matrix(3.779528,0,0,3.779528,0,0)"/>
<path style="fill:none;stroke-width:2;stroke-linecap:butt;stroke-linejoin:miter;stroke:rgb(0%,0%,0%);stroke-opacity:1;stroke-miterlimit:4;" d="M 335.499935 66.000106 L 316.999772 85.999919 L 301.499943 80.000285 L 289.99987 80.000285 L 274.500041 68.500212 L 258.499984 66.500334 L 242.499927 69.000439 " transform="matrix(3.779528,0,0,3.779528,0,0)"/>
<path style="fill:none;stroke-width:2;stroke-linecap:butt;stroke-linejoin:miter;stroke:rgb(0%,0%,0%);stroke-opacity:1;stroke-miterlimit:4;" d="M 243.500382 64.99965 L 243.500382 80.999707 L 259.500439 76.999951 L 269.499829 85.499691 L 234.000187 89.999674 L 225.999642 106.499959 L 218.00013 138.500073 " transform="matrix(3.779528,0,0,3.779528,0,0)"/>
<path style="fill:none;stroke-width:2;stroke-linecap:butt;stroke-linejoin:miter;stroke:rgb(0%,0%,0%);stroke-opacity:1;stroke-miterlimit:4;" d="M 228.499748 135.999967 L 244.499805 137.999845 " transform="matrix(3.779528,0,0,3.779528,0,0)"/>
<path style="fill:none;stroke-width:2;stroke-linecap:butt;stroke-linejoin:miter;stroke:rgb(0%,0%,0%);stroke-opacity:1;stroke-miterlimit:4;" d="M 248.499561 146.999813 L 232.499504 139.000301 " transform="matrix(3.779528,0,0,3.779528,0,0)"/>
<path style="fill:none;stroke-width:2;stroke-linecap:butt;stroke-linejoin:miter;stroke:rgb(0%,0%,0%);stroke-opacity:1;stroke-miterlimit:4;" d="M 235.499837 139.499495 L 227.500326 123.500472 " transform="matrix(3.779528,0,0,3.779528,0,0)"/>
<path style="fill:none;stroke-width:2;stroke-linecap:butt;stroke-linejoin:miter;stroke:rgb(0%,0%,0%);stroke-opacity:1;stroke-miterlimit:4;" d="M 230.499626 117.499805 L 246.99991 115.499927 L 262.999967 129.500106 L 279.000024 131.499984 " transform="matrix(3.779528,0,0,3.779528,0,0)"/>
<path style="fill:none;stroke-width:2;stroke-linecap:butt;stroke-linejoin:miter;stroke:rgb(0%,0%,0%);stroke-opacity:1;stroke-miterlimit:4;" d="M 282.000358 145.500163 L 265.500073 145.500163 L 261.00009 131.499984 L 241.000277 116.000155 " transform="matrix(3.779528,0,0,3.779528,0,0)"/>
<path style="fill:none;stroke-width:2;stroke-linecap:butt;stroke-linejoin:miter;stroke:rgb(0%,0%,0%);stroke-opacity:1;stroke-miterlimit:4;" d="M 203.999951 141.999601 L 209.999585 125.999544 L 193.999528 117.499805 L 178.000505 131.499984 L 162.000448 133.499862 L 146.000391 139.499495 L 133.499862 141.500407 L 152.000024 132.999634 L 159.999536 110.999943 L 134.00009 100.99952 L 131.499984 84.500269 L 131.499984 68.500212 L 128.000456 53.000382 L 128.000456 44.999837 " transform="matrix(3.779528,0,0,3.779528,0,0)"/>
<path style="fill:none;stroke-width:2;stroke-linecap:butt;stroke-linejoin:miter;stroke:rgb(0%,0%,0%);stroke-opacity:1;stroke-miterlimit:4;" d="M 119.000488 65.499878 L 103.000431 81.499935 L 97.499992 97.499992 L 115.499927 81.499935 " transform="matrix(3.779528,0,0,3.779528,0,0)"/>
<path style="fill:none;stroke-width:2;stroke-linecap:butt;stroke-linejoin:miter;stroke:rgb(0%,0%,0%);stroke-opacity:1;stroke-miterlimit:4;" d="M 116.000155 74.499845 L 93.500236 80.000285 L 89.50048 95.500114 L 83.499813 111.500171 L 78.000407 128.000456 L 71.99974 144.000513 " transform="matrix(3.779528,0,0,3.779528,0,0)"/>
<path style="fill:none;stroke-width:2;stroke-linecap:butt;stroke-linejoin:miter;stroke:rgb(0%,0%,0%);stroke-opacity:1;stroke-miterlimit:4;" d="M 89.50048 149.499919 L 105.499504 145.500163 " transform="matrix(3.779528,0,0,3.779528,0,0)"/>
<path style="fill:none;stroke-width:2;stroke-linecap:butt;stroke-linejoin:miter;stroke:rgb(0%,0%,0%);stroke-opacity:1;stroke-miterlimit:4;" d="M 93.500236 149.499919 L 109.500293 151.499797 L 125.50035 149.499919 " transform="matrix(3.779528,0,0,3.779528,0,0)"/>
<path style="fill:none;stroke-width:2;stroke-linecap:butt;stroke-linejoin:miter;stroke:rgb(0%,0%,0%);stroke-opacity:1;stroke-miterlimit:4;" d="M 132.500439 125.50035 L 122.500016 125.000122 L 112.999821 130.499528 L 123.000244 128.49965 L 125.50035 116.500382 L 107.500415 116.500382 L 125.50035 100.500326 L 105.499504 120.500138 L 105.499504 125.000122 " transform="matrix(3.779528,0,0,3.779528,0,0)"/>
<path style="fill:none;stroke-width:2;stroke-linecap:butt;stroke-linejoin:miter;stroke:rgb(0%,0%,0%);stroke-opacity:1;stroke-miterlimit:4;" d="M 102.500203 127.500228 L 118.50026 143.500285 " transform="matrix(3.779528,0,0,3.779528,0,0)"/>
<path style="fill:none;stroke-width:2;stroke-linecap:butt;stroke-linejoin:miter;stroke:rgb(0%,0%,0%);stroke-opacity:1;stroke-miterlimit:4;" d="M 92.49978 141.500407 L 96.499536 123.999666 L 112.000399 96.000342 L 127.500228 75.999495 L 149.499919 78.000407 L 164.999748 78.000407 L 182.999683 84.000041 L 198.99974 94.000464 " transform="matrix(3.779528,0,0,3.779528,0,0)"/>
<path style="fill:none;stroke-width:2;stroke-linecap:butt;stroke-linejoin:miter;stroke:rgb(0%,0%,0%);stroke-opacity:1;stroke-miterlimit:4;" d="M 195.500212 98.00022 L 179.500155 103.999854 L 163.500098 107.500415 L 153.499674 121.999788 L 153.00048 125.999544 L 134.500317 138.500073 L 128.000456 148.500496 L 128.49965 132.500439 L 156.500008 123.000244 L 175.000171 107.000187 L 204.500179 94.999886 L 187.000472 78.999829 " transform="matrix(3.779528,0,0,3.779528,0,0)"/>
<path style="fill:none;stroke-width:2;stroke-linecap:butt;stroke-linejoin:miter;stroke:rgb(0%,0%,0%);stroke-opacity:1;stroke-miterlimit:4;" d="M 178.999927 80.500513 L 193.000106 100.500326 L 168.999504 116.000155 L 146.999813 131.499984 L 162.99987 121.499561 L 178.999927 109.000065 " transform="matrix(3.779528,0,0,3.779528,0,0)"/>
<path style="fill:none;stroke-width:2;stroke-linecap:butt;stroke-linejoin:miter;stroke:rgb(0%,0%,0%);stroke-opacity:1;stroke-miterlimit:4;" d="M 168.999504 99.49987 L 152.500252 103.999854 L 136.500195 98.500448 L 121.000366 102.500203 " transform="matrix(3.779528,0,0,3.779528,0,0)"/>
<path style="fill:none;stroke-width:2;stroke-linecap:butt;stroke-linejoin:miter;stroke:rgb(0%,0%,0%);stroke-opacity:1;stroke-miterlimit:4;" d="M 124.499894 107.500415 L 114.000277 123.500472 L 100.000098 127.500228 L 112.000399 143.000057 " transform="matrix(3.779528,0,0,3.779528,0,0)"/>
<path style="fill:none;stroke-width:2;stroke-linecap:butt;stroke-linejoin:miter;stroke:rgb(0%,0%,0%);stroke-opacity:1;stroke-miterlimit:4;" d="M 114.000277 112.999821 L 130.000334 110.499715 L 146.499585 121.999788 " transform="matrix(3.779528,0,0,3.779528,0,0)"/>
<path style="fill:none;stroke-width:2;stroke-linecap:butt;stroke-linejoin:miter;stroke:rgb(0%,0%,0%);stroke-opacity:1;stroke-miterlimit:4;" d="M 157.000236 139.999723 L 173.000293 148.000269 L 189.00035 150.000146 " transform="matrix(3.779528,0,0,3.779528,0,0)"/>
<path style="fill:none;stroke-width:2;stroke-linecap:butt;stroke-linejoin:miter;stroke:rgb(0%,0%,0%);stroke-opacity:1;stroke-miterlimit:4;" d="M 203.499723 141.999601 L 187.499666 144.499707 L 171.499609 148.500496 L 177.500277 132.500439 L 195.500212 116.500382 " transform="matrix(3.779528,0,0,3.779528,0,0)"/>
<path style="fill:none;stroke-width:2;stroke-linecap:butt;stroke-linejoin:miter;stroke:rgb(0%,0%,0%);stroke-opacity:1;stroke-miterlimit:4;" d="M 132.500439 124.499894 L 127 108.499837 " transform="matrix(3.779528,0,0,3.779528,0,0)"/>
<path style="fill:none;stroke-width:2;stroke-linecap:butt;stroke-linejoin:miter;stroke:rgb(0%,0%,0%);stroke-opacity:1;stroke-miterlimit:4;" d="M 135.49974 96.499536 L 137.499618 80.500513 " transform="matrix(3.779528,0,0,3.779528,0,0)"/>
<path style="fill:none;stroke-width:2;stroke-linecap:butt;stroke-linejoin:miter;stroke:rgb(0%,0%,0%);stroke-opacity:1;stroke-miterlimit:4;" d="M 119.99991 71.000317 L 112.000399 87.499569 L 100.000098 103.499626 L 85.999919 119.499683 L 89.999674 125.50035 L 80.000285 141.500407 L 71.99974 141.500407 L 88.500024 99.49987 " transform="matrix(3.779528,0,0,3.779528,0,0)"/>
<path style="fill:none;stroke-width:2;stroke-linecap:butt;stroke-linejoin:miter;stroke:rgb(0%,0%,0%);stroke-opacity:1;stroke-miterlimit:4;" d="M 82.000163 91.999552 L 66.500334 96.000342 L 48.500399 94.000464 L 32.500342 94.000464 L 16.500285 101.999976 L 46.499487 94.000464 L 30.500464 99.49987 L 14.500407 109.500293 " transform="matrix(3.779528,0,0,3.779528,0,0)"/>
<path style="fill:none;stroke-width:2;stroke-linecap:butt;stroke-linejoin:miter;stroke:rgb(0%,0%,0%);stroke-opacity:1;stroke-miterlimit:4;" d="M 2.500106 140.499951 L 4.499984 134.00009 L 20.500041 139.499495 L 36.500098 127.500228 L 51.999927 116.999577 L 53.999805 103.499626 L 39.500431 119.499683 L 29.500008 135.49974 L 35.499642 121.999788 L 51.999927 109.999487 L 53.999805 125.999544 " transform="matrix(3.779528,0,0,3.779528,0,0)"/>
<path style="fill:none;stroke-width:2;stroke-linecap:butt;stroke-linejoin:miter;stroke:rgb(0%,0%,0%);stroke-opacity:1;stroke-miterlimit:4;" d="M 45.500065 139.999723 L 43.500187 125.50035 L 57.000138 109.999487 L 59.000016 101.999976 " transform="matrix(3.779528,0,0,3.779528,0,0)"/>
<path style="fill:none;stroke-width:2;stroke-linecap:butt;stroke-linejoin:miter;stroke:rgb(0%,0%,0%);stroke-opacity:1;stroke-miterlimit:4;" d="M 75.000073 78.499601 L 42.499731 78.499601 L 18.500163 94.499658 L 14.500407 104.500081 L 20.500041 92.49978 L 34.50022 76.999951 " transform="matrix(3.779528,0,0,3.779528,0,0)"/>
<path style="fill:none;stroke-width:2;stroke-linecap:butt;stroke-linejoin:miter;stroke:rgb(0%,0%,0%);stroke-opacity:1;stroke-miterlimit:4;" d="M 30.000236 71.499512 L 16.000057 87.499569 L 3.499528 103.499626 L 3.499528 95.500114 L 19.499585 83.499813 L 35.99987 71.99974 L 39.999626 77.500179 L 55.999683 73.500423 L 71.99974 73.999618 L 94.000464 75.999495 " transform="matrix(3.779528,0,0,3.779528,0,0)"/>
<path style="fill:none;stroke-width:2;stroke-linecap:butt;stroke-linejoin:miter;stroke:rgb(0%,0%,0%);stroke-opacity:1;stroke-miterlimit:4;" d="M 91.999552 73.500423 L 85.999919 89.50048 L 80.000285 105.999731 L 73.999618 121.999788 L 67.999984 137.499618 L 54.500033 141.500407 L 60.000472 149.499919 L 75.999495 115.499927 " transform="matrix(3.779528,0,0,3.779528,0,0)"/>
<path style="fill:none;stroke-width:2;stroke-linecap:butt;stroke-linejoin:miter;stroke:rgb(0%,0%,0%);stroke-opacity:1;stroke-miterlimit:4;" d="M 60.000472 10.000423 L 155.99978 10.000423 L 171.999837 3.499528 L 175.999593 7.500317 L 192.499878 7.00009 L 208.499935 3.000334 L 223.999764 3.000334 L 239.999821 3.499528 L 304.000049 3.499528 L 320.500334 3.999756 L 336.500391 4.499984 L 368.000277 4.499984 " transform="matrix(3.779528,0,0,3.779528,0,0)"/>
<path style="fill:none;stroke-width:2;stroke-linecap:butt;stroke-linejoin:miter;stroke:rgb(0%,0%,0%);stroke-opacity:1;stroke-miterlimit:4;" d="M 339.000496 67.999984 L 343.50048 84.000041 L 347.000008 97.499992 L 349.500114 113.500049 L 357.499626 129.500106 L 354.000098 145.500163 L 361.999609 149.499919 L 378.499894 150.000146 L 394.499951 139.999723 L 411.000236 138.500073 L 429.000171 140.499951 L 445.000228 144.499707 L 465.000041 154.50013 " transform="matrix(3.779528,0,0,3.779528,0,0)"/>
<path style="fill:none;stroke-width:2;stroke-linecap:butt;stroke-linejoin:miter;stroke:rgb(0%,0%,0%);stroke-opacity:1;stroke-miterlimit:4;" d="M 307.499577 112.999821 L 299.500065 116.999577 L 295.999504 127 L 304.000049 110.999943 " transform="matrix(3.779528,0,0,3.779528,0,0)"/>
<path style="fill:none;stroke-width:2;stroke-linecap:butt;stroke-linejoin:miter;stroke:rgb(0%,0%,0%);stroke-opacity:1;stroke-miterlimit:4;" d="M 208.499935 233.499959 L 208.499935 249.500016 L 209.500391 265.500073 L 212.000496 281.50013 L 207.999707 297.500187 L 205.999829 314.000472 L 203.999951 329.999495 L 210.499813 349.500114 " transform="matrix(3.779528,0,0,3.779528,0,0)"/>
<path style="fill:none;stroke-width:2;stroke-linecap:butt;stroke-linejoin:miter;stroke:rgb(0%,0%,0%);stroke-opacity:1;stroke-miterlimit:4;" d="M 71.99974 275.000269 L 79.500057 259.000212 L 73.500423 271.499707 L 57.500366 279.500252 L 41.999504 279.500252 L 26.00048 281.50013 L 10.000423 282.000358 L 1.999878 286.500342 " transform="matrix(3.779528,0,0,3.779528,0,0)"/>
</g>
</svg>
