<?xml version="1.0" encoding="UTF-8"?>
<svg xmlns="http://www.w3.org/2000/svg" xmlns:xlink="http://www.w3.org/1999/xlink" width="1935.11811" height="1935.11811" viewBox="0 0 1935.11811 1935.11811" version="1.1">
<g id="surface1">
<path style="fill:none;stroke-width:2;stroke-linecap:butt;stroke-linejoin:miter;stroke:rgb(0%,0%,0%);stroke-opacity:1;stroke-miterlimit:4;" d="M 49.499821 2.500106 L 63.5 18.500163 L 61.500122 44.499609 L 59.500244 60.499666 L 75.500301 76.999951 L 109.500293 110.999943 L 121.499561 127 L 141.000179 143.000057 L 139.000301 158.499886 L 134.500317 174.499943 L 141.000179 190.5 L 141.000179 206.500057 L 139.000301 222.500114 L 137.499618 237.999943 L 131.499984 253.499772 L 135.49974 268.999601 L 141.500407 284.999658 L 143.500285 295.000081 L 179.500155 306.500155 L 187.999894 322.500212 " transform="matrix(3.779528,0,0,3.779528,0,0)"/>
<path style="fill:none;stroke-width:2;stroke-linecap:butt;stroke-linejoin:miter;stroke:rgb(0%,0%,0%);stroke-opacity:1;stroke-miterlimit:4;" d="M 163.500098 324.50009 L 147.500041 314.999894 " transform="matrix(3.779528,0,0,3.779528,0,0)"/>
<path style="fill:none;stroke-width:2;stroke-linecap:butt;stroke-linejoin:miter;stroke:rgb(0%,0%,0%);stroke-opacity:1;stroke-miterlimit:4;" d="M 143.500285 309.500488 L 159.500342 315.500122 L 175.500399 317.5 " transform="matrix(3.779528,0,0,3.779528,0,0)"/>
<path style="fill:none;stroke-width:2;stroke-linecap:butt;stroke-linejoin:miter;stroke:rgb(0%,0%,0%);stroke-opacity:1;stroke-miterlimit:4;" d="M 153.499674 284.000236 L 144.000513 287.999992 L 146.000391 271.999935 L 154.50013 255.999878 L 175.000171 240.500049 L 173.000293 228.499748 L 168.999504 216.50048 L 185.499788 212.499691 L 181.500033 196.000439 L 177.500277 187.999894 L 182.999683 178.000505 L 178.999927 162.000448 L 153.00048 146.000391 L 148.500496 141.999601 L 141.999601 125.50035 L 144.000513 109.000065 L 155.499552 93.000008 L 145.500163 114.999699 " transform="matrix(3.779528,0,0,3.779528,0,0)"/>
<path style="fill:none;stroke-width:2;stroke-linecap:butt;stroke-linejoin:miter;stroke:rgb(0%,0%,0%);stroke-opacity:1;stroke-miterlimit:4;" d="M 148.500496 121.499561 L 164.49952 131.499984 L 180.999805 145.500163 " transform="matrix(3.779528,0,0,3.779528,0,0)"/>
<path style="fill:none;stroke-width:2;stroke-linecap:butt;stroke-linejoin:miter;stroke:rgb(0%,0%,0%);stroke-opacity:1;stroke-miterlimit:4;" d="M 168.000081 148.500496 L 152.000024 139.000301 " transform="matrix(3.779528,0,0,3.779528,0,0)"/>
<path style="fill:none;stroke-width:2;stroke-linecap:butt;stroke-linejoin:miter;stroke:rgb(0%,0%,0%);stroke-opacity:1;stroke-miterlimit:4;" d="M 156.500008 132.999634 L 178.499699 149.499919 " transform="matrix(3.779528,0,0,3.779528,0,0)"/>
<path style="fill:none;stroke-width:2;stroke-linecap:butt;stroke-linejoin:miter;stroke:rgb(0%,0%,0%);stroke-opacity:1;stroke-miterlimit:4;" d="M 168.000081 121.999788 L 152.000024 112.000399 " transform="matrix(3.779528,0,0,3.779528,0,0)"/>
<path style="fill:none;stroke-width:2;stroke-linecap:butt;stroke-linejoin:miter;stroke:rgb(0%,0%,0%);stroke-opacity:1;stroke-miterlimit:4;" d="M 157.000236 112.000399 L 157.000236 119.499683 " transform="matrix(3.779528,0,0,3.779528,0,0)"/>
<path style="fill:none;stroke-width:2;stroke-linecap:butt;stroke-linejoin:miter;stroke:rgb(0%,0%,0%);stroke-opacity:1;stroke-miterlimit:4;" d="M 162.499642 97.499992 L 148.000269 113.500049 L 152.000024 115.499927 L 159.999536 130.999756 L 180.000382 146.999813 L 184.500366 160.499764 L 188.500122 176.499821 L 198.000317 204.500179 L 214.000374 202.500301 " transform="matrix(3.779528,0,0,3.779528,0,0)"/>
<path style="fill:none;stroke-width:2;stroke-linecap:butt;stroke-linejoin:miter;stroke:rgb(0%,0%,0%);stroke-opacity:1;stroke-miterlimit:4;" d="M 182.500488 205.499601 L 166.500431 195.500212 L 150.500374 197.50009 " transform="matrix(3.779528,0,0,3.779528,0,0)"/>
<path style="fill:none;stroke-width:2;stroke-linecap:butt;stroke-linejoin:miter;stroke:rgb(0%,0%,0%);stroke-opacity:1;stroke-miterlimit:4;" d="M 146.000391 186.500244 L 162.000448 184.500366 L 178.000505 189.999772 L 202.000073 205.999829 L 218.00013 213.500146 L 234.500415 212.999919 L 250.500472 213.500146 L 266.499495 213.500146 L 282.000358 214.000374 L 298.000415 212.000496 L 313.500244 202.500301 L 331.500179 180.000382 L 347.500236 178.000505 L 363.500293 184.500366 L 377.500472 178.499699 L 393.499495 178.499699 L 409.499552 180.000382 L 425.499609 184.000138 " transform="matrix(3.779528,0,0,3.779528,0,0)"/>
<path style="fill:none;stroke-width:2;stroke-linecap:butt;stroke-linejoin:miter;stroke:rgb(0%,0%,0%);stroke-opacity:1;stroke-miterlimit:4;" d="M 425.000415 189.999772 L 422.999504 205.499601 L 422.999504 221.499658 L 425.000415 237.999943 L 425.000415 286.500342 L 416.499642 302.500399 L 444.5 298.499609 L 509.000456 298.499609 " transform="matrix(3.779528,0,0,3.779528,0,0)"/>
<path style="fill:none;stroke-width:2;stroke-linecap:butt;stroke-linejoin:miter;stroke:rgb(0%,0%,0%);stroke-opacity:1;stroke-miterlimit:4;" d="M 503.500016 326.499967 L 487.499959 326.499967 " transform="matrix(3.779528,0,0,3.779528,0,0)"/>
<path style="fill:none;stroke-width:2;stroke-linecap:butt;stroke-linejoin:miter;stroke:rgb(0%,0%,0%);stroke-opacity:1;stroke-miterlimit:4;" d="M 499.000033 304.000049 L 482.999976 304.000049 L 459.000407 309.500488 L 443.00035 307.499577 " transform="matrix(3.779528,0,0,3.779528,0,0)"/>
<path style="fill:none;stroke-width:2;stroke-linecap:butt;stroke-linejoin:miter;stroke:rgb(0%,0%,0%);stroke-opacity:1;stroke-miterlimit:4;" d="M 432.499699 319.499878 L 448.499756 319.499878 L 464.499813 321.499756 L 480.49987 321.499756 L 490.500293 309.500488 " transform="matrix(3.779528,0,0,3.779528,0,0)"/>
<path style="fill:none;stroke-width:2;stroke-linecap:butt;stroke-linejoin:miter;stroke:rgb(0%,0%,0%);stroke-opacity:1;stroke-miterlimit:4;" d="M 506.999544 320.500334 L 491.499715 322.500212 L 475.499658 326.499967 L 459.999829 325.99974 L 443.999772 325.99974 L 427.999715 324.50009 L 416.000448 334.500513 L 400.000391 327.999618 L 384.000334 325.499512 L 367.500049 325.499512 " transform="matrix(3.779528,0,0,3.779528,0,0)"/>
<path style="fill:none;stroke-width:2;stroke-linecap:butt;stroke-linejoin:miter;stroke:rgb(0%,0%,0%);stroke-opacity:1;stroke-miterlimit:4;" d="M 341.999797 325.499512 L 373.99991 321.499756 L 406.000024 321.499756 L 422.000081 320.000106 L 438.000138 311.500366 L 454.000195 316.00035 L 470.000252 314.000472 L 486.000309 316.00035 L 502.000366 314.000472 " transform="matrix(3.779528,0,0,3.779528,0,0)"/>
<path style="fill:none;stroke-width:2;stroke-linecap:butt;stroke-linejoin:miter;stroke:rgb(0%,0%,0%);stroke-opacity:1;stroke-miterlimit:4;" d="M 448.999984 305.000505 L 423.999959 309.00026 L 407.999902 310.49991 L 392.500073 312.499788 L 374.500138 309.999683 L 359.000309 307.999805 L 343.50048 311.500366 L 327.999618 332.000407 " transform="matrix(3.779528,0,0,3.779528,0,0)"/>
<path style="fill:none;stroke-width:2;stroke-linecap:butt;stroke-linejoin:miter;stroke:rgb(0%,0%,0%);stroke-opacity:1;stroke-miterlimit:4;" d="M 316.999772 309.999683 L 301.499943 304.000049 L 285.499886 305.999927 L 270.000057 316.00035 " transform="matrix(3.779528,0,0,3.779528,0,0)"/>
<path style="fill:none;stroke-width:2;stroke-linecap:butt;stroke-linejoin:miter;stroke:rgb(0%,0%,0%);stroke-opacity:1;stroke-miterlimit:4;" d="M 248.000366 330.999951 L 250.000244 341.000374 L 247.500138 356.500203 " transform="matrix(3.779528,0,0,3.779528,0,0)"/>
<path style="fill:none;stroke-width:2;stroke-linecap:butt;stroke-linejoin:miter;stroke:rgb(0%,0%,0%);stroke-opacity:1;stroke-miterlimit:4;" d="M 246.499683 329.000073 L 262.49974 330.999951 L 268.000179 351.499992 L 268.000179 366.999821 L 270.000057 382.999878 L 266.000301 398.499707 L 268.000179 414.499764 L 270.500285 434.000382 L 272.500163 459.999829 L 262.49974 475.499658 L 275.000269 491.499715 L 279.000024 491.499715 L 295.000081 491.999943 L 311.000138 490.000065 L 320.999528 492.500171 L 336.999585 492.500171 " transform="matrix(3.779528,0,0,3.779528,0,0)"/>
<path style="fill:none;stroke-width:2;stroke-linecap:butt;stroke-linejoin:miter;stroke:rgb(0%,0%,0%);stroke-opacity:1;stroke-miterlimit:4;" d="M 327.999618 500.000488 L 311.500366 500.000488 L 295.500309 498.499805 L 279.500252 498.499805 L 262.999967 497.999577 L 259.000212 486.000309 L 261.00009 463.999585 L 267.499951 447.999528 L 263.500195 432.000505 L 261.999512 407.999902 L 255.999878 391.999845 L 264.000423 370.000155 L 263.500195 354.000098 L 263.500195 338.000041 L 268.000179 321.999984 L 268.000179 300.000293 L 266.499495 284.000236 L 262.999967 276.499919 L 268.999601 272.500163 L 293.000203 248.499561 L 277.500374 260.499862 " transform="matrix(3.779528,0,0,3.779528,0,0)"/>
<path style="fill:none;stroke-width:2;stroke-linecap:butt;stroke-linejoin:miter;stroke:rgb(0%,0%,0%);stroke-opacity:1;stroke-miterlimit:4;" d="M 303.499821 261.500317 L 317.5 277.500374 L 319.499878 293.500431 L 329.500301 309.999683 L 323.000439 320.500334 " transform="matrix(3.779528,0,0,3.779528,0,0)"/>
<path style="fill:none;stroke-width:2;stroke-linecap:butt;stroke-linejoin:miter;stroke:rgb(0%,0%,0%);stroke-opacity:1;stroke-miterlimit:4;" d="M 345.500358 307.999805 L 333.500057 323.999862 L 325.499512 340.500146 L 325.499512 356.500203 L 323.999862 373.000488 L 321.999984 388.999512 L 320.000106 405.499797 L 320.000106 421.499854 L 329.999495 420.999626 " transform="matrix(3.779528,0,0,3.779528,0,0)"/>
<path style="fill:none;stroke-width:2;stroke-linecap:butt;stroke-linejoin:miter;stroke:rgb(0%,0%,0%);stroke-opacity:1;stroke-miterlimit:4;" d="M 350.000342 433.500155 L 366.000399 433.500155 L 382.000456 434.000382 L 398.000513 438.000138 " transform="matrix(3.779528,0,0,3.779528,0,0)"/>
<path style="fill:none;stroke-width:2;stroke-linecap:butt;stroke-linejoin:miter;stroke:rgb(0%,0%,0%);stroke-opacity:1;stroke-miterlimit:4;" d="M 443.499544 432.499699 L 459.999829 438.500366 L 492.500171 438.500366 L 508.500228 436.500488 " transform="matrix(3.779528,0,0,3.779528,0,0)"/>
<path style="fill:none;stroke-width:2;stroke-linecap:butt;stroke-linejoin:miter;stroke:rgb(0%,0%,0%);stroke-opacity:1;stroke-miterlimit:4;" d="M 506.000122 425.999837 L 490.500293 425.999837 L 475.000464 428.499943 L 456.999495 427.000293 L 441.499666 427.499487 L 425.499609 435.500033 L 415.50022 431.500277 L 420.500431 431.000049 L 429.999593 427.000293 L 425.499609 422.500309 L 425.499609 389.999967 L 425.000415 373.499683 L 425.000415 357.499626 L 424.500187 341.000374 L 424.500187 325.000317 L 428.499943 311.000138 L 425.000415 305.000505 L 429.000171 289.000448 L 429.500399 273.000391 L 427.999715 257.499528 L 429.999593 241.000277 L 427.999715 225.00022 L 426.500065 209.500391 L 432.999927 193.500334 L 416.99987 213.500146 " transform="matrix(3.779528,0,0,3.779528,0,0)"/>
<path style="fill:none;stroke-width:2;stroke-linecap:butt;stroke-linejoin:miter;stroke:rgb(0%,0%,0%);stroke-opacity:1;stroke-miterlimit:4;" d="M 413.000114 155.99978 L 429.000171 146.000391 L 445.000228 143.500285 " transform="matrix(3.779528,0,0,3.779528,0,0)"/>
<path style="fill:none;stroke-width:2;stroke-linecap:butt;stroke-linejoin:miter;stroke:rgb(0%,0%,0%);stroke-opacity:1;stroke-miterlimit:4;" d="M 455.499845 131.499984 L 439.499788 135.49974 L 437.49991 149.499919 L 422.000081 155.499552 L 405.499797 159.999536 L 437.49991 150.500374 L 435.500033 132.500439 L 467.500146 121.000366 L 451.50009 105.000309 L 459.999829 89.000252 L 463.999585 73.000195 L 452.000317 101.499748 " transform="matrix(3.779528,0,0,3.779528,0,0)"/>
<path style="fill:none;stroke-width:2;stroke-linecap:butt;stroke-linejoin:miter;stroke:rgb(0%,0%,0%);stroke-opacity:1;stroke-miterlimit:4;" d="M 467.500146 109.999487 L 463.500391 116.000155 L 447.999528 130.499528 L 425.999837 128.49965 L 410.500008 146.999813 L 400.499585 157.000236 L 416.499642 141.000179 L 427.999715 125.000122 L 443.999772 105.000309 L 452.000317 89.000252 L 459.999829 73.000195 L 468.000374 59.000016 L 472.500358 42.499731 L 464.499813 34.50022 L 445.000228 34.50022 L 448.999984 18.500163 L 454.999618 6.499862 L 438.999561 10.499618 L 422.999504 6.499862 L 406.500252 8.49974 L 390.500195 10.499618 " transform="matrix(3.779528,0,0,3.779528,0,0)"/>
<path style="fill:none;stroke-width:2;stroke-linecap:butt;stroke-linejoin:miter;stroke:rgb(0%,0%,0%);stroke-opacity:1;stroke-miterlimit:4;" d="M 409.99978 8.49974 L 426.500065 12.000301 L 441.999894 16.000057 L 439.499788 28.000358 " transform="matrix(3.779528,0,0,3.779528,0,0)"/>
<path style="fill:none;stroke-width:2;stroke-linecap:butt;stroke-linejoin:miter;stroke:rgb(0%,0%,0%);stroke-opacity:1;stroke-miterlimit:4;" d="M 450.499634 39.000203 L 466.499691 42.999959 L 463.000163 54.500033 L 443.499544 70.50009 L 427.999715 86.500146 L 429.999593 84.500269 L 446.499878 68.500212 L 462.499935 55.999683 " transform="matrix(3.779528,0,0,3.779528,0,0)"/>
<path style="fill:none;stroke-width:2;stroke-linecap:butt;stroke-linejoin:miter;stroke:rgb(0%,0%,0%);stroke-opacity:1;stroke-miterlimit:4;" d="M 491.499715 37.999748 L 507.499772 37.999748 " transform="matrix(3.779528,0,0,3.779528,0,0)"/>
<path style="fill:none;stroke-width:2;stroke-linecap:butt;stroke-linejoin:miter;stroke:rgb(0%,0%,0%);stroke-opacity:1;stroke-miterlimit:4;" d="M 504.999666 33.499764 L 488.999609 33.499764 " transform="matrix(3.779528,0,0,3.779528,0,0)"/>
<path style="fill:none;stroke-width:2;stroke-linecap:butt;stroke-linejoin:miter;stroke:rgb(0%,0%,0%);stroke-opacity:1;stroke-miterlimit:4;" d="M 490.000065 80.000285 L 493.999821 73.999618 L 485.500081 67.999984 L 485.500081 84.000041 L 493.000399 87.999797 L 488.999609 105.999731 L 504.999666 98.00022 L 491.499715 112.499593 L 507.499772 104.500081 " transform="matrix(3.779528,0,0,3.779528,0,0)"/>
<path style="fill:none;stroke-width:2;stroke-linecap:butt;stroke-linejoin:miter;stroke:rgb(0%,0%,0%);stroke-opacity:1;stroke-miterlimit:4;" d="M 491.999943 144.999935 L 508 139.499495 L 495.999699 157.500464 L 488.000187 157.500464 L 490.500293 169.999959 L 506.000122 157.999658 L 502.499561 159.999536 L 481.99952 175.999593 L 470.50048 184.000138 L 490.500293 186.000016 L 506.50035 175.999593 L 498.499805 169.999959 L 492.500171 182.00026 L 496.499927 172.500065 L 496.499927 158.499886 " transform="matrix(3.779528,0,0,3.779528,0,0)"/>
<path style="fill:none;stroke-width:2;stroke-linecap:butt;stroke-linejoin:miter;stroke:rgb(0%,0%,0%);stroke-opacity:1;stroke-miterlimit:4;" d="M 509.49965 179.500155 L 493.000399 182.999683 " transform="matrix(3.779528,0,0,3.779528,0,0)"/>
<path style="fill:none;stroke-width:2;stroke-linecap:butt;stroke-linejoin:miter;stroke:rgb(0%,0%,0%);stroke-opacity:1;stroke-miterlimit:4;" d="M 466.499691 180.999805 L 466.499691 173.000293 " transform="matrix(3.779528,0,0,3.779528,0,0)"/>
<path style="fill:none;stroke-width:2;stroke-linecap:butt;stroke-linejoin:miter;stroke:rgb(0%,0%,0%);stroke-opacity:1;stroke-miterlimit:4;" d="M 463.500391 116.000155 L 452.000317 109.500293 L 436.00026 115.499927 L 420.500431 112.999821 L 404.500374 123.000244 L 388.999512 141.000179 L 373.000488 139.000301 L 356.500203 141.500407 L 340.500146 145.500163 " transform="matrix(3.779528,0,0,3.779528,0,0)"/>
<path style="fill:none;stroke-width:2;stroke-linecap:butt;stroke-linejoin:miter;stroke:rgb(0%,0%,0%);stroke-opacity:1;stroke-miterlimit:4;" d="M 341.999797 137.499618 L 342.500024 137.499618 L 334.999707 157.500464 L 329.500301 173.499487 L 329.000073 169.999959 L 345.500358 152.000024 L 361.500415 150.000146 L 369.499927 164.000326 L 368.000277 180.499577 L 364.499715 198.499512 L 363.999487 214.999797 L 361.999609 230.999854 L 366.000399 246.499683 L 363.500293 262.49974 L 359.000309 277.999569 " transform="matrix(3.779528,0,0,3.779528,0,0)"/>
<path style="fill:none;stroke-width:2;stroke-linecap:butt;stroke-linejoin:miter;stroke:rgb(0%,0%,0%);stroke-opacity:1;stroke-miterlimit:4;" d="M 360.499959 253.499772 L 345.00013 249.500016 L 329.000073 235.499837 " transform="matrix(3.779528,0,0,3.779528,0,0)"/>
<path style="fill:none;stroke-width:2;stroke-linecap:butt;stroke-linejoin:miter;stroke:rgb(0%,0%,0%);stroke-opacity:1;stroke-miterlimit:4;" d="M 325.99974 229.500203 L 341.999797 216.999674 L 357.999854 233.499959 " transform="matrix(3.779528,0,0,3.779528,0,0)"/>
<path style="fill:none;stroke-width:2;stroke-linecap:butt;stroke-linejoin:miter;stroke:rgb(0%,0%,0%);stroke-opacity:1;stroke-miterlimit:4;" d="M 352.00022 218.500358 L 336.000163 214.999797 L 319.499878 232.999731 " transform="matrix(3.779528,0,0,3.779528,0,0)"/>
<path style="fill:none;stroke-width:2;stroke-linecap:butt;stroke-linejoin:miter;stroke:rgb(0%,0%,0%);stroke-opacity:1;stroke-miterlimit:4;" d="M 320.999528 235.499837 L 323.499634 261.500317 L 339.499691 253.499772 " transform="matrix(3.779528,0,0,3.779528,0,0)"/>
<path style="fill:none;stroke-width:2;stroke-linecap:butt;stroke-linejoin:miter;stroke:rgb(0%,0%,0%);stroke-opacity:1;stroke-miterlimit:4;" d="M 323.000439 249.500016 L 322.500212 237.499715 L 314.499666 221.000464 L 298.000415 237.499715 L 282.000358 248.000366 L 266.499495 261.999512 L 250.999666 271.499707 L 234.999609 265.500073 L 219.49978 255.49965 L 202.999495 243.500382 " transform="matrix(3.779528,0,0,3.779528,0,0)"/>
<path style="fill:none;stroke-width:2;stroke-linecap:butt;stroke-linejoin:miter;stroke:rgb(0%,0%,0%);stroke-opacity:1;stroke-miterlimit:4;" d="M 209.000163 237.999943 L 234.999609 253.499772 " transform="matrix(3.779528,0,0,3.779528,0,0)"/>
<path style="fill:none;stroke-width:2;stroke-linecap:butt;stroke-linejoin:miter;stroke:rgb(0%,0%,0%);stroke-opacity:1;stroke-miterlimit:4;" d="M 241.500505 264.499618 L 225.500448 254.500228 L 209.999585 244.499805 L 194.499756 239.999821 L 178.499699 235.499837 L 162.499642 225.500448 L 146.499585 229.500203 " transform="matrix(3.779528,0,0,3.779528,0,0)"/>
<path style="fill:none;stroke-width:2;stroke-linecap:butt;stroke-linejoin:miter;stroke:rgb(0%,0%,0%);stroke-opacity:1;stroke-miterlimit:4;" d="M 132.500439 251.499894 L 144.499707 225.999642 L 159.999536 220.000008 L 167.499854 223.999764 L 191.500456 218.00013 L 207.000285 236.000065 L 223.000342 246.000488 L 239.000399 257.999756 " transform="matrix(3.779528,0,0,3.779528,0,0)"/>
<path style="fill:none;stroke-width:2;stroke-linecap:butt;stroke-linejoin:miter;stroke:rgb(0%,0%,0%);stroke-opacity:1;stroke-miterlimit:4;" d="M 216.000252 261.500317 L 239.999821 277.500374 L 243.999577 295.000081 " transform="matrix(3.779528,0,0,3.779528,0,0)"/>
<path style="fill:none;stroke-width:2;stroke-linecap:butt;stroke-linejoin:miter;stroke:rgb(0%,0%,0%);stroke-opacity:1;stroke-miterlimit:4;" d="M 242.499927 307.000382 L 225.999642 305.499699 L 209.999585 305.999927 L 194.499756 311.999561 L 178.999927 305.499699 L 162.99987 303.499821 L 147.500041 297.500187 L 130.999756 297.500187 L 114.999699 298.000415 L 98.999642 300.499487 L 82.500391 298.999837 L 66.500334 298.999837 L 62.00035 293.500431 L 61.500122 277.000146 L 60.999894 261.00009 L 59.000016 245.000033 L 56.49991 228.499748 L 53.999805 223.000342 " transform="matrix(3.779528,0,0,3.779528,0,0)"/>
<path style="fill:none;stroke-width:2;stroke-linecap:butt;stroke-linejoin:miter;stroke:rgb(0%,0%,0%);stroke-opacity:1;stroke-miterlimit:4;" d="M 60.999894 222.500114 L 66.999528 237.999943 L 69.000439 254 L 66.999528 269.499829 L 66.500334 285.499886 L 66.000106 309.500488 L 82.000163 311.500366 L 93.500236 305.499699 L 107.500415 305.499699 L 123.500472 305.999927 L 147.500041 304.000049 L 163.500098 309.500488 L 179.500155 313.500244 " transform="matrix(3.779528,0,0,3.779528,0,0)"/>
<path style="fill:none;stroke-width:2;stroke-linecap:butt;stroke-linejoin:miter;stroke:rgb(0%,0%,0%);stroke-opacity:1;stroke-miterlimit:4;" d="M 148.999691 311.999561 L 129.500106 323.999862 L 114.000277 321.999984 L 98.00022 322.500212 L 81.499935 323.000439 L 65.499878 323.000439 L 50.000049 320.999528 L 33.999992 314.499666 " transform="matrix(3.779528,0,0,3.779528,0,0)"/>
<path style="fill:none;stroke-width:2;stroke-linecap:butt;stroke-linejoin:miter;stroke:rgb(0%,0%,0%);stroke-opacity:1;stroke-miterlimit:4;" d="M 32.000114 318.99965 L 48.000171 325.000317 L 68.500212 329.000073 L 100.000098 329.000073 L 115.499927 328.499845 L 131.499984 328.499845 L 146.999813 332.499601 " transform="matrix(3.779528,0,0,3.779528,0,0)"/>
<path style="fill:none;stroke-width:2;stroke-linecap:butt;stroke-linejoin:miter;stroke:rgb(0%,0%,0%);stroke-opacity:1;stroke-miterlimit:4;" d="M 153.999902 259.999634 L 169.999959 252.50035 L 178.000505 258.499984 L 184.000138 282.499552 L 196.000439 268.500407 L 212.000496 259.999634 L 228.499748 265.500073 L 244.499805 279.500252 L 260.499862 279.500252 L 284.500464 263.500195 L 300.999715 259.500439 L 314.999894 261.500317 " transform="matrix(3.779528,0,0,3.779528,0,0)"/>
<path style="fill:none;stroke-width:2;stroke-linecap:butt;stroke-linejoin:miter;stroke:rgb(0%,0%,0%);stroke-opacity:1;stroke-miterlimit:4;" d="M 350.499536 261.500317 L 350.999764 261.500317 L 341.499569 250.000244 L 327.999618 234.000187 L 338.000041 218.00013 " transform="matrix(3.779528,0,0,3.779528,0,0)"/>
<path style="fill:none;stroke-width:2;stroke-linecap:butt;stroke-linejoin:miter;stroke:rgb(0%,0%,0%);stroke-opacity:1;stroke-miterlimit:4;" d="M 341.000374 211.500269 L 352.999642 227.500326 L 360.499959 243.999577 L 360.499959 257.999756 L 344.499902 264.000423 L 350.499536 280.00048 " transform="matrix(3.779528,0,0,3.779528,0,0)"/>
<path style="fill:none;stroke-width:2;stroke-linecap:butt;stroke-linejoin:miter;stroke:rgb(0%,0%,0%);stroke-opacity:1;stroke-miterlimit:4;" d="M 402.000269 330.499723 L 420.000203 345.999552 L 421.499854 362.499837 L 421.499854 378.499894 L 422.000081 394.499951 L 420.500431 410.500008 L 420.500431 426.500065 L 408.50013 429.999593 " transform="matrix(3.779528,0,0,3.779528,0,0)"/>
<path style="fill:none;stroke-width:2;stroke-linecap:butt;stroke-linejoin:miter;stroke:rgb(0%,0%,0%);stroke-opacity:1;stroke-miterlimit:4;" d="M 413.999536 424.500187 L 397.500285 425.000415 L 382.000456 427.000293 L 366.000399 424.500187 L 350.000342 425.999837 L 339.999919 429.999593 L 323.999862 434.000382 L 307.999805 438.000138 L 291.999748 432.000505 L 275.999691 440.000016 L 264.000423 456.000073 L 248.000366 461.999707 L 216.000252 450.000439 L 200.000195 457.999951 L 184.000138 468.000374 L 178.000505 485.500081 L 184.500366 470.000252 L 192.499878 452.000317 L 198.499512 436.00026 L 196.499634 422.000081 L 196.000439 406.000024 L 193.999528 389.999967 L 187.999894 373.99991 L 186.000016 357.999854 L 186.000016 341.499569 L 175.999593 325.99974 L 152.000024 305.499699 L 157.999658 279.500252 L 152.000024 279.500252 L 155.99978 263.500195 L 175.999593 245.50026 L 178.000505 255.49965 L 157.999658 253.499772 L 141.999601 269.499829 L 137.999845 255.49965 L 141.999601 239.499593 L 145.500163 223.499536 L 147.500041 207.500513 L 152.000024 189.999772 L 142.499829 171.999837 L 142.499829 153.499674 L 128.49965 151.499797 L 126.499772 135.49974 L 107.999609 119.000488 L 87.499569 94.999886 L 71.499512 79.500057 L 55.500488 63.5 L 53.999805 47.499943 L 44.000415 41.500309 L 28.000358 41.999504 L 12.000301 42.499731 " transform="matrix(3.779528,0,0,3.779528,0,0)"/>
<path style="fill:none;stroke-width:2;stroke-linecap:butt;stroke-linejoin:miter;stroke:rgb(0%,0%,0%);stroke-opacity:1;stroke-miterlimit:4;" d="M 12.000301 42.999959 L 28.000358 59.500244 " transform="matrix(3.779528,0,0,3.779528,0,0)"/>
<path style="fill:none;stroke-width:2;stroke-linecap:butt;stroke-linejoin:miter;stroke:rgb(0%,0%,0%);stroke-opacity:1;stroke-miterlimit:4;" d="M 29.500008 60.000472 L 12.999723 45.500065 " transform="matrix(3.779528,0,0,3.779528,0,0)"/>
<path style="fill:none;stroke-width:2;stroke-linecap:butt;stroke-linejoin:miter;stroke:rgb(0%,0%,0%);stroke-opacity:1;stroke-miterlimit:4;" d="M 8.49974 48.500399 L 24.499797 62.00035 L 40.499854 73.500423 " transform="matrix(3.779528,0,0,3.779528,0,0)"/>
<path style="fill:none;stroke-width:2;stroke-linecap:butt;stroke-linejoin:miter;stroke:rgb(0%,0%,0%);stroke-opacity:1;stroke-miterlimit:4;" d="M 51.499699 52.500155 L 67.499756 74.499845 L 83.499813 90.499902 L 89.50048 110.499715 L 105.499504 107.999609 L 112.000399 107.999609 L 128.49965 103.999854 L 144.499707 107.500415 L 160.499764 94.000464 " transform="matrix(3.779528,0,0,3.779528,0,0)"/>
<path style="fill:none;stroke-width:2;stroke-linecap:butt;stroke-linejoin:miter;stroke:rgb(0%,0%,0%);stroke-opacity:1;stroke-miterlimit:4;" d="M 189.999772 100.99952 L 205.999829 87.000374 L 221.499658 80.500513 L 237.499715 80.500513 L 254 78.999829 L 270.000057 78.999829 " transform="matrix(3.779528,0,0,3.779528,0,0)"/>
<path style="fill:none;stroke-width:2;stroke-linecap:butt;stroke-linejoin:miter;stroke:rgb(0%,0%,0%);stroke-opacity:1;stroke-miterlimit:4;" d="M 246.499683 62.999772 L 230.000431 48.500399 " transform="matrix(3.779528,0,0,3.779528,0,0)"/>
<path style="fill:none;stroke-width:2;stroke-linecap:butt;stroke-linejoin:miter;stroke:rgb(0%,0%,0%);stroke-opacity:1;stroke-miterlimit:4;" d="M 232.000309 56.49991 L 241.500505 60.000472 L 243.500382 69.499634 L 243.500382 73.500423 L 259.999634 73.999618 L 275.999691 73.999618 " transform="matrix(3.779528,0,0,3.779528,0,0)"/>
<path style="fill:none;stroke-width:2;stroke-linecap:butt;stroke-linejoin:miter;stroke:rgb(0%,0%,0%);stroke-opacity:1;stroke-miterlimit:4;" d="M 292.499976 76.499723 L 276.499919 84.500269 L 259.999634 90.499902 L 243.999577 90.499902 L 227.500326 92.49978 L 211.500269 91.999552 L 195.500212 101.999976 " transform="matrix(3.779528,0,0,3.779528,0,0)"/>
<path style="fill:none;stroke-width:2;stroke-linecap:butt;stroke-linejoin:miter;stroke:rgb(0%,0%,0%);stroke-opacity:1;stroke-miterlimit:4;" d="M 202.999495 101.999976 L 218.999552 98.00022 L 234.999609 98.00022 L 250.999666 96.000342 L 266.999723 96.000342 L 282.99978 89.999674 L 298.999837 89.999674 L 314.999894 87.999797 L 330.999951 96.000342 L 347.000008 101.999976 L 362.499837 121.999788 L 354.99952 118.000033 L 343.000252 134.00009 L 332.999829 150.000146 " transform="matrix(3.779528,0,0,3.779528,0,0)"/>
<path style="fill:none;stroke-width:2;stroke-linecap:butt;stroke-linejoin:miter;stroke:rgb(0%,0%,0%);stroke-opacity:1;stroke-miterlimit:4;" d="M 300.000293 173.999715 L 284.500464 160.499764 " transform="matrix(3.779528,0,0,3.779528,0,0)"/>
<path style="fill:none;stroke-width:2;stroke-linecap:butt;stroke-linejoin:miter;stroke:rgb(0%,0%,0%);stroke-opacity:1;stroke-miterlimit:4;" d="M 284.000236 168.500309 L 300.000293 184.999561 " transform="matrix(3.779528,0,0,3.779528,0,0)"/>
<path style="fill:none;stroke-width:2;stroke-linecap:butt;stroke-linejoin:miter;stroke:rgb(0%,0%,0%);stroke-opacity:1;stroke-miterlimit:4;" d="M 298.499609 206.500057 L 282.499552 208.499935 L 266.499495 209.000163 " transform="matrix(3.779528,0,0,3.779528,0,0)"/>
<path style="fill:none;stroke-width:2;stroke-linecap:butt;stroke-linejoin:miter;stroke:rgb(0%,0%,0%);stroke-opacity:1;stroke-miterlimit:4;" d="M 264.999845 198.000317 L 280.999902 198.000317 L 297.500187 196.499634 " transform="matrix(3.779528,0,0,3.779528,0,0)"/>
<path style="fill:none;stroke-width:2;stroke-linecap:butt;stroke-linejoin:miter;stroke:rgb(0%,0%,0%);stroke-opacity:1;stroke-miterlimit:4;" d="M 300.499487 157.500464 L 284.999658 155.499552 L 262.999967 153.499674 L 252.999544 147.500041 L 243.000155 163.500098 L 239.000399 147.500041 L 241.000277 131.499984 L 244.499805 131.499984 " transform="matrix(3.779528,0,0,3.779528,0,0)"/>
<path style="fill:none;stroke-width:2;stroke-linecap:butt;stroke-linejoin:miter;stroke:rgb(0%,0%,0%);stroke-opacity:1;stroke-miterlimit:4;" d="M 244.499805 129.500106 L 242.499927 145.500163 L 245.50026 161.50022 L 266.000301 163.500098 " transform="matrix(3.779528,0,0,3.779528,0,0)"/>
<path style="fill:none;stroke-width:2;stroke-linecap:butt;stroke-linejoin:miter;stroke:rgb(0%,0%,0%);stroke-opacity:1;stroke-miterlimit:4;" d="M 281.50013 150.500374 L 297.500187 146.000391 " transform="matrix(3.779528,0,0,3.779528,0,0)"/>
<path style="fill:none;stroke-width:2;stroke-linecap:butt;stroke-linejoin:miter;stroke:rgb(0%,0%,0%);stroke-opacity:1;stroke-miterlimit:4;" d="M 270.000057 150.500374 L 270.500285 134.500317 L 262.49974 136.500195 L 246.499683 134.500317 " transform="matrix(3.779528,0,0,3.779528,0,0)"/>
<path style="fill:none;stroke-width:2;stroke-linecap:butt;stroke-linejoin:miter;stroke:rgb(0%,0%,0%);stroke-opacity:1;stroke-miterlimit:4;" d="M 248.499561 138.500073 L 250.999666 154.50013 " transform="matrix(3.779528,0,0,3.779528,0,0)"/>
<path style="fill:none;stroke-width:2;stroke-linecap:butt;stroke-linejoin:miter;stroke:rgb(0%,0%,0%);stroke-opacity:1;stroke-miterlimit:4;" d="M 240.500049 130.000334 L 236.500293 125.999544 L 234.000187 141.999601 L 234.000187 157.500464 L 236.000065 161.50022 L 246.000488 171.499609 L 261.999512 171.000415 L 278.499797 165.499976 L 294.499854 173.499487 " transform="matrix(3.779528,0,0,3.779528,0,0)"/>
<path style="fill:none;stroke-width:2;stroke-linecap:butt;stroke-linejoin:miter;stroke:rgb(0%,0%,0%);stroke-opacity:1;stroke-miterlimit:4;" d="M 273.999813 163.500098 L 275.999691 147.500041 L 280.00048 147.500041 L 280.00048 131.499984 L 268.000179 119.499683 L 252.000122 121.000366 L 236.500293 125.000122 " transform="matrix(3.779528,0,0,3.779528,0,0)"/>
<path style="fill:none;stroke-width:2;stroke-linecap:butt;stroke-linejoin:miter;stroke:rgb(0%,0%,0%);stroke-opacity:1;stroke-miterlimit:4;" d="M 217.499902 104.500081 L 217.499902 168.000081 L 218.00013 184.000138 " transform="matrix(3.779528,0,0,3.779528,0,0)"/>
<path style="fill:none;stroke-width:2;stroke-linecap:butt;stroke-linejoin:miter;stroke:rgb(0%,0%,0%);stroke-opacity:1;stroke-miterlimit:4;" d="M 175.999593 147.500041 L 159.500342 133.499862 L 143.500285 141.500407 L 127.500228 129.500106 L 111.500171 113.500049 " transform="matrix(3.779528,0,0,3.779528,0,0)"/>
<path style="fill:none;stroke-width:2;stroke-linecap:butt;stroke-linejoin:miter;stroke:rgb(0%,0%,0%);stroke-opacity:1;stroke-miterlimit:4;" d="M 91.999552 109.500293 L 107.999609 118.000033 L 123.999666 134.500317 L 139.999723 146.499585 L 159.500342 150.000146 L 175.500399 157.999658 " transform="matrix(3.779528,0,0,3.779528,0,0)"/>
<path style="fill:none;stroke-width:2;stroke-linecap:butt;stroke-linejoin:miter;stroke:rgb(0%,0%,0%);stroke-opacity:1;stroke-miterlimit:4;" d="M 135.999967 173.499487 L 151.499797 177.500277 L 167.499854 175.999593 L 183.49991 180.000382 L 185.499788 205.999829 L 191.99965 222.500114 L 203.999951 234.500415 L 218.00013 250.500472 L 241.999699 266.999723 L 264.499618 277.000146 L 280.499674 262.999967 L 296.499731 250.500472 L 314.499666 236.500293 L 329.999495 202.000073 L 345.500358 189.999772 L 361.000187 193.999528 L 377.500472 184.000138 L 393.499495 184.000138 L 409.499552 186.500244 L 425.499609 190.5 " transform="matrix(3.779528,0,0,3.779528,0,0)"/>
<path style="fill:none;stroke-width:2;stroke-linecap:butt;stroke-linejoin:miter;stroke:rgb(0%,0%,0%);stroke-opacity:1;stroke-miterlimit:4;" d="M 398.999935 132.000212 L 409.000358 116.000155 L 388.999512 135.999967 L 372.50026 130.000334 " transform="matrix(3.779528,0,0,3.779528,0,0)"/>
<path style="fill:none;stroke-width:2;stroke-linecap:butt;stroke-linejoin:miter;stroke:rgb(0%,0%,0%);stroke-opacity:1;stroke-miterlimit:4;" d="M 388.999512 135.999967 L 400.999813 119.99991 L 377.000244 114.500505 L 361.000187 106.499959 " transform="matrix(3.779528,0,0,3.779528,0,0)"/>
<path style="fill:none;stroke-width:2;stroke-linecap:butt;stroke-linejoin:miter;stroke:rgb(0%,0%,0%);stroke-opacity:1;stroke-miterlimit:4;" d="M 375.000366 93.500236 L 391.000423 93.500236 " transform="matrix(3.779528,0,0,3.779528,0,0)"/>
<path style="fill:none;stroke-width:2;stroke-linecap:butt;stroke-linejoin:miter;stroke:rgb(0%,0%,0%);stroke-opacity:1;stroke-miterlimit:4;" d="M 395.999601 78.499601 L 380.499772 78.499601 " transform="matrix(3.779528,0,0,3.779528,0,0)"/>
<path style="fill:none;stroke-width:2;stroke-linecap:butt;stroke-linejoin:miter;stroke:rgb(0%,0%,0%);stroke-opacity:1;stroke-miterlimit:4;" d="M 378.499894 73.000195 L 394.499951 71.000317 L 410.500008 67.499756 L 420.500431 53.499577 L 411.000236 69.999862 L 414.999992 73.999618 " transform="matrix(3.779528,0,0,3.779528,0,0)"/>
<path style="fill:none;stroke-width:2;stroke-linecap:butt;stroke-linejoin:miter;stroke:rgb(0%,0%,0%);stroke-opacity:1;stroke-miterlimit:4;" d="M 388.500317 89.999674 L 372.000033 89.999674 " transform="matrix(3.779528,0,0,3.779528,0,0)"/>
<path style="fill:none;stroke-width:2;stroke-linecap:butt;stroke-linejoin:miter;stroke:rgb(0%,0%,0%);stroke-opacity:1;stroke-miterlimit:4;" d="M 311.000138 88.500024 L 323.000439 102.500203 L 325.000317 118.000033 L 325.000317 133.499862 L 323.000439 149.499919 L 325.000317 166.999626 L 329.500301 182.999683 L 323.999862 199.499967 L 318.000228 213.500146 L 309.999683 229.500203 L 286.000114 245.50026 L 264.000423 261.500317 L 261.999512 282.99978 L 266.000301 305.000505 L 264.000423 320.999528 L 246.000488 330.999951 L 243.999577 347.000008 L 243.999577 363.000065 L 245.50026 379.50035 L 245.50026 397.500285 L 245.000033 413.500342 L 247.500138 425.999837 L 252.000122 429.500399 " transform="matrix(3.779528,0,0,3.779528,0,0)"/>
<path style="fill:none;stroke-width:2;stroke-linecap:butt;stroke-linejoin:miter;stroke:rgb(0%,0%,0%);stroke-opacity:1;stroke-miterlimit:4;" d="M 250.500472 407.999902 L 262.49974 386.000212 L 246.499683 391.999845 " transform="matrix(3.779528,0,0,3.779528,0,0)"/>
<path style="fill:none;stroke-width:2;stroke-linecap:butt;stroke-linejoin:miter;stroke:rgb(0%,0%,0%);stroke-opacity:1;stroke-miterlimit:4;" d="M 250.000244 388.999512 L 265.500073 395.500407 " transform="matrix(3.779528,0,0,3.779528,0,0)"/>
<path style="fill:none;stroke-width:2;stroke-linecap:butt;stroke-linejoin:miter;stroke:rgb(0%,0%,0%);stroke-opacity:1;stroke-miterlimit:4;" d="M 291.49952 429.999593 L 271.499707 448.499756 L 287.499764 438.999561 L 303.499821 439.499788 " transform="matrix(3.779528,0,0,3.779528,0,0)"/>
<path style="fill:none;stroke-width:2;stroke-linecap:butt;stroke-linejoin:miter;stroke:rgb(0%,0%,0%);stroke-opacity:1;stroke-miterlimit:4;" d="M 303.499821 436.00026 L 313.000016 452.000317 L 323.000439 467.500146 L 330.999951 483.500203 " transform="matrix(3.779528,0,0,3.779528,0,0)"/>
<path style="fill:none;stroke-width:2;stroke-linecap:butt;stroke-linejoin:miter;stroke:rgb(0%,0%,0%);stroke-opacity:1;stroke-miterlimit:4;" d="M 325.99974 483.500203 L 318.000228 466.999919 L 300.000293 450.999862 " transform="matrix(3.779528,0,0,3.779528,0,0)"/>
<path style="fill:none;stroke-width:2;stroke-linecap:butt;stroke-linejoin:miter;stroke:rgb(0%,0%,0%);stroke-opacity:1;stroke-miterlimit:4;" d="M 298.499609 438.500366 L 282.499552 442.500122 L 278.499797 456.000073 L 294.499854 450.000439 L 310.49991 456.000073 L 326.499967 477.999764 " transform="matrix(3.779528,0,0,3.779528,0,0)"/>
<path style="fill:none;stroke-width:2;stroke-linecap:butt;stroke-linejoin:miter;stroke:rgb(0%,0%,0%);stroke-opacity:1;stroke-miterlimit:4;" d="M 236.999487 452.000317 L 221.000464 445.500456 L 205.499601 448.999984 " transform="matrix(3.779528,0,0,3.779528,0,0)"/>
<path style="fill:none;stroke-width:2;stroke-linecap:butt;stroke-linejoin:miter;stroke:rgb(0%,0%,0%);stroke-opacity:1;stroke-miterlimit:4;" d="M 200.000195 449.500212 L 216.000252 437.49991 L 232.000309 441.999894 " transform="matrix(3.779528,0,0,3.779528,0,0)"/>
<path style="fill:none;stroke-width:2;stroke-linecap:butt;stroke-linejoin:miter;stroke:rgb(0%,0%,0%);stroke-opacity:1;stroke-miterlimit:4;" d="M 239.499593 441.499666 L 223.000342 431.500277 L 206.500057 437.49991 L 190.5 449.500212 " transform="matrix(3.779528,0,0,3.779528,0,0)"/>
<path style="fill:none;stroke-width:2;stroke-linecap:butt;stroke-linejoin:miter;stroke:rgb(0%,0%,0%);stroke-opacity:1;stroke-miterlimit:4;" d="M 215.500024 438.000138 L 205.499601 454.000195 L 189.00035 470.50048 L 182.999683 486.499504 L 185.499788 488.500415 L 201.499845 492.500171 L 217.499902 494.500049 L 233.499959 490.000065 L 261.500317 475.999886 L 283.500008 447.999528 L 300.000293 445.500456 " transform="matrix(3.779528,0,0,3.779528,0,0)"/>
<path style="fill:none;stroke-width:2;stroke-linecap:butt;stroke-linejoin:miter;stroke:rgb(0%,0%,0%);stroke-opacity:1;stroke-miterlimit:4;" d="M 257.999756 493.499593 L 241.500505 499.50026 L 225.500448 497.500382 L 209.999585 500.000488 L 194.499756 497.999577 L 178.499699 497.500382 " transform="matrix(3.779528,0,0,3.779528,0,0)"/>
<path style="fill:none;stroke-width:2;stroke-linecap:butt;stroke-linejoin:miter;stroke:rgb(0%,0%,0%);stroke-opacity:1;stroke-miterlimit:4;" d="M 225.999642 447.500334 L 241.999699 463.500391 L 248.000366 479.500448 " transform="matrix(3.779528,0,0,3.779528,0,0)"/>
<path style="fill:none;stroke-width:2;stroke-linecap:butt;stroke-linejoin:miter;stroke:rgb(0%,0%,0%);stroke-opacity:1;stroke-miterlimit:4;" d="M 239.000399 493.999821 L 250.999666 481.500326 L 246.99991 465.500269 L 245.000033 449.500212 L 239.499593 450.000439 L 225.999642 434.000382 " transform="matrix(3.779528,0,0,3.779528,0,0)"/>
<path style="fill:none;stroke-width:2;stroke-linecap:butt;stroke-linejoin:miter;stroke:rgb(0%,0%,0%);stroke-opacity:1;stroke-miterlimit:4;" d="M 189.499544 411.500464 L 173.999715 411.000236 L 157.999658 418.999748 L 141.999601 425.000415 L 125.50035 422.500309 L 109.500293 424.500187 L 82.000163 427.000293 L 94.000464 436.999683 L 64.000228 436.999683 L 61.500122 418.999748 L 61.500122 402.999691 L 59.500244 387.499862 L 61.500122 371.499805 L 62.00035 355.999976 L 62.00035 340.500146 L 50.000049 320.500334 L 28.000358 314.499666 " transform="matrix(3.779528,0,0,3.779528,0,0)"/>
<path style="fill:none;stroke-width:2;stroke-linecap:butt;stroke-linejoin:miter;stroke:rgb(0%,0%,0%);stroke-opacity:1;stroke-miterlimit:4;" d="M 1.999878 313.500244 L 17.999935 311.500366 L 37.999748 302.999593 L 57.999561 302.999593 L 74.499845 303.499821 L 90.499902 305.499699 L 116.500382 311.000138 L 132.500439 311.000138 L 150.500374 325.000317 L 170.500187 319.499878 L 186.500244 327.500423 " transform="matrix(3.779528,0,0,3.779528,0,0)"/>
<path style="fill:none;stroke-width:2;stroke-linecap:butt;stroke-linejoin:miter;stroke:rgb(0%,0%,0%);stroke-opacity:1;stroke-miterlimit:4;" d="M 197.50009 262.999967 L 189.499544 279.000024 L 189.499544 295.000081 L 201.499845 299.500065 L 233.499959 299.500065 L 250.000244 291.999748 " transform="matrix(3.779528,0,0,3.779528,0,0)"/>
<path style="fill:none;stroke-width:2;stroke-linecap:butt;stroke-linejoin:miter;stroke:rgb(0%,0%,0%);stroke-opacity:1;stroke-miterlimit:4;" d="M 182.999683 267.499951 L 187.000472 251.499894 " transform="matrix(3.779528,0,0,3.779528,0,0)"/>
<path style="fill:none;stroke-width:2;stroke-linecap:butt;stroke-linejoin:miter;stroke:rgb(0%,0%,0%);stroke-opacity:1;stroke-miterlimit:4;" d="M 196.999862 236.000065 L 207.000285 252.000122 L 239.000399 267.499951 L 260.499862 285.499886 L 282.499552 300.000293 L 298.000415 300.000293 L 314.499666 298.000415 L 340.500146 305.999927 L 356.500203 304.000049 L 372.50026 304.500277 L 388.500317 306.500155 L 420.500431 301.499943 " transform="matrix(3.779528,0,0,3.779528,0,0)"/>
<path style="fill:none;stroke-width:2;stroke-linecap:butt;stroke-linejoin:miter;stroke:rgb(0%,0%,0%);stroke-opacity:1;stroke-miterlimit:4;" d="M 343.999674 190.5 L 327.999618 206.500057 L 320.000106 221.999886 L 314.000472 237.999943 L 307.999805 253.499772 L 320.500334 259.000212 L 318.500456 267.499951 L 326.499967 284.000236 L 324.50009 300.499487 L 314.999894 310.49991 L 320.999528 327.000195 L 323.000439 343.000252 L 320.999528 359.000309 L 318.500456 374.500138 L 316.00035 389.999967 L 316.00035 406.000024 L 314.000472 421.499854 L 314.000472 438.000138 L 321.999984 441.999894 L 327.999618 457.999951 L 316.00035 456.500301 L 321.999984 464.499813 L 327.999618 490.000065 " transform="matrix(3.779528,0,0,3.779528,0,0)"/>
<path style="fill:none;stroke-width:2;stroke-linecap:butt;stroke-linejoin:miter;stroke:rgb(0%,0%,0%);stroke-opacity:1;stroke-miterlimit:4;" d="M 176.499821 413.000114 L 152.000024 429.500399 " transform="matrix(3.779528,0,0,3.779528,0,0)"/>
<path style="fill:none;stroke-width:2;stroke-linecap:butt;stroke-linejoin:miter;stroke:rgb(0%,0%,0%);stroke-opacity:1;stroke-miterlimit:4;" d="M 45.500065 437.49991 L 39.500431 427.499487 L 17.499707 425.499609 L 1.49965 432.000505 " transform="matrix(3.779528,0,0,3.779528,0,0)"/>
<path style="fill:none;stroke-width:2;stroke-linecap:butt;stroke-linejoin:miter;stroke:rgb(0%,0%,0%);stroke-opacity:1;stroke-miterlimit:4;" d="M 0.500228 438.999561 L 16.500285 438.500366 " transform="matrix(3.779528,0,0,3.779528,0,0)"/>
<path style="fill:none;stroke-width:2;stroke-linecap:butt;stroke-linejoin:miter;stroke:rgb(0%,0%,0%);stroke-opacity:1;stroke-miterlimit:4;" d="M 53.499577 495.999699 L 35.499642 509.999878 L 51.999927 497.999577 " transform="matrix(3.779528,0,0,3.779528,0,0)"/>
<path style="fill:none;stroke-width:2;stroke-linecap:butt;stroke-linejoin:miter;stroke:rgb(0%,0%,0%);stroke-opacity:1;stroke-miterlimit:4;" d="M 57.000138 497.500382 L 42.999959 509.49965 " transform="matrix(3.779528,0,0,3.779528,0,0)"/>
<path style="fill:none;stroke-width:2;stroke-linecap:butt;stroke-linejoin:miter;stroke:rgb(0%,0%,0%);stroke-opacity:1;stroke-miterlimit:4;" d="M 116.000155 434.999805 L 133.499862 434.999805 L 132.000212 427.000293 L 170.500187 412.499886 L 166.500431 429.999593 L 150.000146 435.500033 L 123.999666 437.49991 L 108.499837 436.999683 L 93.000008 423.499731 L 76.999951 423.499731 L 56.49991 435.500033 L 56.49991 393.499495 L 57.000138 377.500472 L 57.000138 330.499723 L 28.499552 314.499666 L 36.500098 298.999837 L 17.999935 309.00026 L 1.999878 309.00026 " transform="matrix(3.779528,0,0,3.779528,0,0)"/>
<path style="fill:none;stroke-width:2;stroke-linecap:butt;stroke-linejoin:miter;stroke:rgb(0%,0%,0%);stroke-opacity:1;stroke-miterlimit:4;" d="M 10.999845 293.999626 L 26.999902 297.500187 L 42.999959 293.500431 L 59.000016 301.499943 " transform="matrix(3.779528,0,0,3.779528,0,0)"/>
<path style="fill:none;stroke-width:2;stroke-linecap:butt;stroke-linejoin:miter;stroke:rgb(0%,0%,0%);stroke-opacity:1;stroke-miterlimit:4;" d="M 80.000285 209.999585 L 64.000228 202.000073 " transform="matrix(3.779528,0,0,3.779528,0,0)"/>
<path style="fill:none;stroke-width:2;stroke-linecap:butt;stroke-linejoin:miter;stroke:rgb(0%,0%,0%);stroke-opacity:1;stroke-miterlimit:4;" d="M 64.99965 197.50009 L 78.499601 202.000073 " transform="matrix(3.779528,0,0,3.779528,0,0)"/>
<path style="fill:none;stroke-width:2;stroke-linecap:butt;stroke-linejoin:miter;stroke:rgb(0%,0%,0%);stroke-opacity:1;stroke-miterlimit:4;" d="M 85.999919 186.000016 L 69.999862 175.999593 " transform="matrix(3.779528,0,0,3.779528,0,0)"/>
<path style="fill:none;stroke-width:2;stroke-linecap:butt;stroke-linejoin:miter;stroke:rgb(0%,0%,0%);stroke-opacity:1;stroke-miterlimit:4;" d="M 67.499756 173.000293 L 83.499813 180.499577 " transform="matrix(3.779528,0,0,3.779528,0,0)"/>
<path style="fill:none;stroke-width:2;stroke-linecap:butt;stroke-linejoin:miter;stroke:rgb(0%,0%,0%);stroke-opacity:1;stroke-miterlimit:4;" d="M 73.000195 172.500065 L 94.999886 188.500122 " transform="matrix(3.779528,0,0,3.779528,0,0)"/>
<path style="fill:none;stroke-width:2;stroke-linecap:butt;stroke-linejoin:miter;stroke:rgb(0%,0%,0%);stroke-opacity:1;stroke-miterlimit:4;" d="M 99.49987 169.499731 L 82.999585 153.999902 L 66.999528 141.999601 " transform="matrix(3.779528,0,0,3.779528,0,0)"/>
<path style="fill:none;stroke-width:2;stroke-linecap:butt;stroke-linejoin:miter;stroke:rgb(0%,0%,0%);stroke-opacity:1;stroke-miterlimit:4;" d="M 65.499878 141.500407 L 87.499569 157.500464 " transform="matrix(3.779528,0,0,3.779528,0,0)"/>
<path style="fill:none;stroke-width:2;stroke-linecap:butt;stroke-linejoin:miter;stroke:rgb(0%,0%,0%);stroke-opacity:1;stroke-miterlimit:4;" d="M 105.499504 155.000358 L 89.50048 144.499707 L 73.500423 134.500317 " transform="matrix(3.779528,0,0,3.779528,0,0)"/>
<path style="fill:none;stroke-width:2;stroke-linecap:butt;stroke-linejoin:miter;stroke:rgb(0%,0%,0%);stroke-opacity:1;stroke-miterlimit:4;" d="M 75.999495 137.499618 L 102.500203 153.499674 " transform="matrix(3.779528,0,0,3.779528,0,0)"/>
<path style="fill:none;stroke-width:2;stroke-linecap:butt;stroke-linejoin:miter;stroke:rgb(0%,0%,0%);stroke-opacity:1;stroke-miterlimit:4;" d="M 106.499959 147.500041 L 90.499902 137.499618 L 74.499845 129.500106 L 50.000049 111.500171 L 33.499764 98.00022 L 17.499707 87.999797 L 1.49965 78.000407 " transform="matrix(3.779528,0,0,3.779528,0,0)"/>
<path style="fill:none;stroke-width:2;stroke-linecap:butt;stroke-linejoin:miter;stroke:rgb(0%,0%,0%);stroke-opacity:1;stroke-miterlimit:4;" d="M 1.999878 82.500391 L 17.999935 92.49978 L 34.50022 102.500203 L 50.500277 116.999577 " transform="matrix(3.779528,0,0,3.779528,0,0)"/>
<path style="fill:none;stroke-width:2;stroke-linecap:butt;stroke-linejoin:miter;stroke:rgb(0%,0%,0%);stroke-opacity:1;stroke-miterlimit:4;" d="M 50.000049 134.999512 L 34.50022 123.500472 L 18.500163 112.000399 L 2.500106 103.999854 " transform="matrix(3.779528,0,0,3.779528,0,0)"/>
<path style="fill:none;stroke-width:2;stroke-linecap:butt;stroke-linejoin:miter;stroke:rgb(0%,0%,0%);stroke-opacity:1;stroke-miterlimit:4;" d="M 1.999878 96.000342 L 17.999935 106.499959 L 33.999992 116.000155 L 49.499821 130.000334 " transform="matrix(3.779528,0,0,3.779528,0,0)"/>
<path style="fill:none;stroke-width:2;stroke-linecap:butt;stroke-linejoin:miter;stroke:rgb(0%,0%,0%);stroke-opacity:1;stroke-miterlimit:4;" d="M 37.000326 150.500374 L 19.000391 146.499585 L 3.499528 130.499528 " transform="matrix(3.779528,0,0,3.779528,0,0)"/>
<path style="fill:none;stroke-width:2;stroke-linecap:butt;stroke-linejoin:miter;stroke:rgb(0%,0%,0%);stroke-opacity:1;stroke-miterlimit:4;" d="M 14.000179 105.000309 L 35.99987 121.000366 " transform="matrix(3.779528,0,0,3.779528,0,0)"/>
<path style="fill:none;stroke-width:2;stroke-linecap:butt;stroke-linejoin:miter;stroke:rgb(0%,0%,0%);stroke-opacity:1;stroke-miterlimit:4;" d="M 3.999756 96.000342 L 16.000057 112.000399 L 37.999748 128.000456 L 48.000171 144.499707 L 53.999805 142.499829 L 67.999984 150.500374 L 83.499813 160.499764 " transform="matrix(3.779528,0,0,3.779528,0,0)"/>
<path style="fill:none;stroke-width:2;stroke-linecap:butt;stroke-linejoin:miter;stroke:rgb(0%,0%,0%);stroke-opacity:1;stroke-miterlimit:4;" d="M 71.000317 170.500187 L 82.999585 186.500244 L 98.500448 212.499691 " transform="matrix(3.779528,0,0,3.779528,0,0)"/>
<path style="fill:none;stroke-width:2;stroke-linecap:butt;stroke-linejoin:miter;stroke:rgb(0%,0%,0%);stroke-opacity:1;stroke-miterlimit:4;" d="M 52.500155 205.499601 L 12.499495 189.00035 L 2.500106 191.000228 L 2.500106 194.999984 " transform="matrix(3.779528,0,0,3.779528,0,0)"/>
<path style="fill:none;stroke-width:2;stroke-linecap:butt;stroke-linejoin:miter;stroke:rgb(0%,0%,0%);stroke-opacity:1;stroke-miterlimit:4;" d="M 3.000334 184.500366 L 35.000448 196.499634 L 51.499699 202.500301 L 67.499756 198.499512 L 83.499813 200.500423 L 98.999642 206.500057 " transform="matrix(3.779528,0,0,3.779528,0,0)"/>
<path style="fill:none;stroke-width:2;stroke-linecap:butt;stroke-linejoin:miter;stroke:rgb(0%,0%,0%);stroke-opacity:1;stroke-miterlimit:4;" d="M 75.000073 210.499813 L 53.000382 194.499756 L 53.000382 178.499699 L 52.500155 162.499642 " transform="matrix(3.779528,0,0,3.779528,0,0)"/>
<path style="fill:none;stroke-width:2;stroke-linecap:butt;stroke-linejoin:miter;stroke:rgb(0%,0%,0%);stroke-opacity:1;stroke-miterlimit:4;" d="M 35.000448 191.000228 L 19.000391 187.000472 L 3.000334 180.999805 " transform="matrix(3.779528,0,0,3.779528,0,0)"/>
<path style="fill:none;stroke-width:2;stroke-linecap:butt;stroke-linejoin:miter;stroke:rgb(0%,0%,0%);stroke-opacity:1;stroke-miterlimit:4;" d="M 75.500301 130.999756 L 101.499748 146.999813 L 129.500106 145.500163 " transform="matrix(3.779528,0,0,3.779528,0,0)"/>
<path style="fill:none;stroke-width:2;stroke-linecap:butt;stroke-linejoin:miter;stroke:rgb(0%,0%,0%);stroke-opacity:1;stroke-miterlimit:4;" d="M 108.499837 73.500423 L 91.999552 69.999862 L 75.999495 60.000472 " transform="matrix(3.779528,0,0,3.779528,0,0)"/>
<path style="fill:none;stroke-width:2;stroke-linecap:butt;stroke-linejoin:miter;stroke:rgb(0%,0%,0%);stroke-opacity:1;stroke-miterlimit:4;" d="M 75.500301 61.500122 L 87.499569 77.500179 " transform="matrix(3.779528,0,0,3.779528,0,0)"/>
<path style="fill:none;stroke-width:2;stroke-linecap:butt;stroke-linejoin:miter;stroke:rgb(0%,0%,0%);stroke-opacity:1;stroke-miterlimit:4;" d="M 91.500358 89.000252 L 75.500301 73.500423 L 60.000472 57.500366 " transform="matrix(3.779528,0,0,3.779528,0,0)"/>
<path style="fill:none;stroke-width:2;stroke-linecap:butt;stroke-linejoin:miter;stroke:rgb(0%,0%,0%);stroke-opacity:1;stroke-miterlimit:4;" d="M 57.500366 50.000049 L 73.500423 39.999626 L 89.50048 44.000415 L 105.499504 44.000415 L 121.499561 43.500187 L 137.999845 41.000081 " transform="matrix(3.779528,0,0,3.779528,0,0)"/>
<path style="fill:none;stroke-width:2;stroke-linecap:butt;stroke-linejoin:miter;stroke:rgb(0%,0%,0%);stroke-opacity:1;stroke-miterlimit:4;" d="M 168.999504 40.499854 L 184.500366 42.499731 L 208.499935 39.999626 L 225.00022 41.500309 L 241.500505 31.499886 L 257.999756 27.50013 L 273.999813 33.499764 L 289.99987 43.500187 L 321.999984 39.500431 L 362.499837 39.500431 L 379.000122 39.000203 L 426.500065 39.000203 L 441.999894 35.499642 L 457.999951 11.500073 " transform="matrix(3.779528,0,0,3.779528,0,0)"/>
<path style="fill:none;stroke-width:2;stroke-linecap:butt;stroke-linejoin:miter;stroke:rgb(0%,0%,0%);stroke-opacity:1;stroke-miterlimit:4;" d="M 461.999707 65.499878 L 445.99965 75.500301 L 429.500399 91.500358 L 441.000472 78.999829 L 453.499967 85.499691 L 437.49991 105.499504 L 422.000081 107.500415 L 406.500252 107.500415 L 391.000423 103.999854 L 374.500138 106.499959 L 357.999854 105.000309 L 341.499569 96.999764 L 325.499512 89.50048 L 309.500488 83.499813 " transform="matrix(3.779528,0,0,3.779528,0,0)"/>
<path style="fill:none;stroke-width:2;stroke-linecap:butt;stroke-linejoin:miter;stroke:rgb(0%,0%,0%);stroke-opacity:1;stroke-miterlimit:4;" d="M 311.000138 82.500391 L 345.00013 98.500448 L 361.000187 101.999976 L 388.999512 109.999487 L 370.500382 123.999666 L 364.499715 139.499495 L 362.499837 151.499797 L 366.499593 168.000081 L 362.499837 184.000138 L 357.000431 196.000439 L 361.000187 212.000496 " transform="matrix(3.779528,0,0,3.779528,0,0)"/>
<path style="fill:none;stroke-width:2;stroke-linecap:butt;stroke-linejoin:miter;stroke:rgb(0%,0%,0%);stroke-opacity:1;stroke-miterlimit:4;" d="M 431.500277 128.000456 L 416.000448 148.000269 L 413.999536 149.499919 L 427.499487 133.499862 L 435.500033 117.499805 " transform="matrix(3.779528,0,0,3.779528,0,0)"/>
<path style="fill:none;stroke-width:2;stroke-linecap:butt;stroke-linejoin:miter;stroke:rgb(0%,0%,0%);stroke-opacity:1;stroke-miterlimit:4;" d="M 429.999593 34.50022 L 398.000513 34.50022 L 382.000456 33.999992 L 328.499845 33.999992 L 311.999561 35.99987 L 295.999504 35.99987 L 280.499674 30.500464 L 264.999845 24.499797 L 248.999788 23.999569 L 232.999731 33.999992 L 216.50048 35.99987 L 196.499634 33.499764 L 180.000382 35.99987 L 159.999536 33.999992 L 145.500163 35.99987 L 130.000334 37.999748 L 114.000277 38.499976 L 98.00022 40.499854 L 81.499935 37.000326 L 65.499878 36.500098 L 49.499821 36.500098 L 33.499764 35.99987 L 17.499707 35.000448 L 1.49965 37.000326 " transform="matrix(3.779528,0,0,3.779528,0,0)"/>
<path style="fill:none;stroke-width:2;stroke-linecap:butt;stroke-linejoin:miter;stroke:rgb(0%,0%,0%);stroke-opacity:1;stroke-miterlimit:4;" d="M 3.000334 44.499609 L 8.999967 48.500399 L 28.499552 64.99965 " transform="matrix(3.779528,0,0,3.779528,0,0)"/>
<path style="fill:none;stroke-width:2;stroke-linecap:butt;stroke-linejoin:miter;stroke:rgb(0%,0%,0%);stroke-opacity:1;stroke-miterlimit:4;" d="M 5.000212 80.999707 L 30.500464 96.999764 L 51.000505 112.999821 L 58.499788 128.999878 L 54.500033 144.499707 L 50.000049 162.499642 L 50.500277 178.499699 L 57.000138 203.999951 L 73.500423 214.000374 " transform="matrix(3.779528,0,0,3.779528,0,0)"/>
<path style="fill:none;stroke-width:2;stroke-linecap:butt;stroke-linejoin:miter;stroke:rgb(0%,0%,0%);stroke-opacity:1;stroke-miterlimit:4;" d="M 189.499544 232.000309 L 197.50009 248.000366 L 193.500334 264.000423 L 187.000472 280.00048 L 186.500244 295.500309 L 203.999951 305.999927 L 193.500334 320.000106 L 191.500456 336.500391 L 191.000228 352.999642 L 192.499878 368.999699 L 196.499634 384.999756 L 198.499512 400.499585 L 198.99974 416.499642 L 185.499788 420.500431 L 151.499797 428.499943 L 167.499854 420.500431 " transform="matrix(3.779528,0,0,3.779528,0,0)"/>
<path style="fill:none;stroke-width:2;stroke-linecap:butt;stroke-linejoin:miter;stroke:rgb(0%,0%,0%);stroke-opacity:1;stroke-miterlimit:4;" d="M 304.500277 166.500431 L 298.499609 158.499886 L 304.500277 134.500317 L 306.500155 118.50026 L 306.500155 102.500203 " transform="matrix(3.779528,0,0,3.779528,0,0)"/>
<path style="fill:none;stroke-width:2;stroke-linecap:butt;stroke-linejoin:miter;stroke:rgb(0%,0%,0%);stroke-opacity:1;stroke-miterlimit:4;" d="M 306.500155 98.500448 L 300.499487 114.500505 L 300.499487 130.499528 L 298.499609 146.499585 L 286.500342 154.50013 L 294.499854 170.500187 L 307.000382 186.500244 L 304.500277 202.000073 " transform="matrix(3.779528,0,0,3.779528,0,0)"/>
<path style="fill:none;stroke-width:2;stroke-linecap:butt;stroke-linejoin:miter;stroke:rgb(0%,0%,0%);stroke-opacity:1;stroke-miterlimit:4;" d="M 214.000374 182.500488 L 214.000374 166.500431 L 214.499569 150.000146 L 214.499569 118.50026 L 214.999797 102.500203 " transform="matrix(3.779528,0,0,3.779528,0,0)"/>
<path style="fill:none;stroke-width:2;stroke-linecap:butt;stroke-linejoin:miter;stroke:rgb(0%,0%,0%);stroke-opacity:1;stroke-miterlimit:4;" d="M 203.499723 94.499658 L 193.500334 110.499715 L 191.000228 126.499772 L 191.000228 142.499829 L 190.5 157.999658 L 190.5 173.999715 L 184.500366 185.499788 L 193.000106 201.499845 " transform="matrix(3.779528,0,0,3.779528,0,0)"/>
<path style="fill:none;stroke-width:2;stroke-linecap:butt;stroke-linejoin:miter;stroke:rgb(0%,0%,0%);stroke-opacity:1;stroke-miterlimit:4;" d="M 301.499943 209.000163 L 320.999528 193.000106 L 316.999772 187.499666 L 316.999772 171.499609 L 318.99965 155.99978 L 318.99965 139.999723 L 320.999528 124.499894 L 320.999528 108.499837 L 304.500277 92.49978 " transform="matrix(3.779528,0,0,3.779528,0,0)"/>
<path style="fill:none;stroke-width:2;stroke-linecap:butt;stroke-linejoin:miter;stroke:rgb(0%,0%,0%);stroke-opacity:1;stroke-miterlimit:4;" d="M 277.999569 62.00035 L 287.999992 61.500122 L 286.000114 45.500065 " transform="matrix(3.779528,0,0,3.779528,0,0)"/>
<path style="fill:none;stroke-width:2;stroke-linecap:butt;stroke-linejoin:miter;stroke:rgb(0%,0%,0%);stroke-opacity:1;stroke-miterlimit:4;" d="M 281.50013 45.500065 L 273.499585 59.500244 L 286.000114 43.500187 L 255.999878 27.50013 " transform="matrix(3.779528,0,0,3.779528,0,0)"/>
<path style="fill:none;stroke-width:2;stroke-linecap:butt;stroke-linejoin:miter;stroke:rgb(0%,0%,0%);stroke-opacity:1;stroke-miterlimit:4;" d="M 264.999845 26.00048 L 291.49952 46.000293 L 293.000203 61.500122 L 289.499642 77.500179 L 277.500374 87.499569 L 287.999992 95.500114 L 304.000049 95.500114 L 320.500334 103.999854 " transform="matrix(3.779528,0,0,3.779528,0,0)"/>
<path style="fill:none;stroke-width:2;stroke-linecap:butt;stroke-linejoin:miter;stroke:rgb(0%,0%,0%);stroke-opacity:1;stroke-miterlimit:4;" d="M 388.999512 109.999487 L 377.000244 119.499683 L 361.000187 129.500106 L 348.999886 127 L 332.999829 146.999813 L 318.500456 187.000472 L 302.999593 202.999495 L 286.999536 200.999618 L 271.000513 200.999618 L 255.000456 207.500513 L 239.000399 207.999707 L 223.000342 207.999707 L 214.999797 202.000073 L 198.99974 189.999772 L 198.99974 173.999715 L 198.499512 157.500464 L 196.499634 141.999601 L 198.000317 126.499772 L 200.000195 110.499715 L 191.500456 100.000098 L 212.000496 84.000041 " transform="matrix(3.779528,0,0,3.779528,0,0)"/>
<path style="fill:none;stroke-width:2;stroke-linecap:butt;stroke-linejoin:miter;stroke:rgb(0%,0%,0%);stroke-opacity:1;stroke-miterlimit:4;" d="M 214.499569 78.999829 L 188.500122 94.499658 L 190.5 92.49978 L 206.500057 82.500391 L 222.500114 76.499723 " transform="matrix(3.779528,0,0,3.779528,0,0)"/>
<path style="fill:none;stroke-width:2;stroke-linecap:butt;stroke-linejoin:miter;stroke:rgb(0%,0%,0%);stroke-opacity:1;stroke-miterlimit:4;" d="M 236.000065 84.500269 L 227.99952 66.000106 L 223.499536 63.5 L 233.499959 46.999715 L 247.500138 32.999536 L 247.500138 23.000146 " transform="matrix(3.779528,0,0,3.779528,0,0)"/>
<path style="fill:none;stroke-width:2;stroke-linecap:butt;stroke-linejoin:miter;stroke:rgb(0%,0%,0%);stroke-opacity:1;stroke-miterlimit:4;" d="M 220.000008 12.000301 L 203.999951 7.999512 " transform="matrix(3.779528,0,0,3.779528,0,0)"/>
<path style="fill:none;stroke-width:2;stroke-linecap:butt;stroke-linejoin:miter;stroke:rgb(0%,0%,0%);stroke-opacity:1;stroke-miterlimit:4;" d="M 218.500358 5.000212 L 202.500301 7.500317 L 186.500244 3.000334 " transform="matrix(3.779528,0,0,3.779528,0,0)"/>
<path style="fill:none;stroke-width:2;stroke-linecap:butt;stroke-linejoin:miter;stroke:rgb(0%,0%,0%);stroke-opacity:1;stroke-miterlimit:4;" d="M 75.000073 15.499829 L 59.000016 3.000334 " transform="matrix(3.779528,0,0,3.779528,0,0)"/>
<path style="fill:none;stroke-width:2;stroke-linecap:butt;stroke-linejoin:miter;stroke:rgb(0%,0%,0%);stroke-opacity:1;stroke-miterlimit:4;" d="M 59.000016 1.49965 L 78.999829 17.499707 " transform="matrix(3.779528,0,0,3.779528,0,0)"/>
<path style="fill:none;stroke-width:2;stroke-linecap:butt;stroke-linejoin:miter;stroke:rgb(0%,0%,0%);stroke-opacity:1;stroke-miterlimit:4;" d="M 82.500391 28.000358 L 66.500334 17.499707 L 50.500277 3.499528 " transform="matrix(3.779528,0,0,3.779528,0,0)"/>
<path style="fill:none;stroke-width:2;stroke-linecap:butt;stroke-linejoin:miter;stroke:rgb(0%,0%,0%);stroke-opacity:1;stroke-miterlimit:4;" d="M 3.499528 86.500146 L 27.50013 102.500203 L 67.499756 134.500317 L 67.499756 150.500374 L 87.499569 166.000203 " transform="matrix(3.779528,0,0,3.779528,0,0)"/>
</g>
</svg>
