<?xml version="1.0" encoding="UTF-8"?>
<svg xmlns="http://www.w3.org/2000/svg" xmlns:xlink="http://www.w3.org/1999/xlink" width="519pt" height="729pt" viewBox="0 0 519 729" version="1.1">
<g id="surface1">
<path style="fill:none;stroke-width:1.5;stroke-linecap:square;stroke-linejoin:round;stroke:rgb(0%,0%,0%);stroke-opacity:1;stroke-miterlimit:4;" d="M 294.065625 418.01875 L 292.315625 420.309375 L 290.009375 422.471875 L 277.5125 430.440625 L 266.41875 440.5125 L 262.928125 443.203125 L 260.025 444.825 L 256.925 445.965625 L 253.58125 446.63125 L 249.984375 446.846875 " transform="matrix(1.25,0,0,1.25,0,0)"/>
<path style="fill:none;stroke-width:1.5;stroke-linecap:square;stroke-linejoin:round;stroke:rgb(0%,0%,0%);stroke-opacity:1;stroke-miterlimit:4;" d="M 121.64375 85.93125 L 124.365625 93.3125 L 127.003125 103.3625 L 129.85 116.815625 L 131.475 128.159375 L 132.0125 136.928125 L 131.78125 144.7875 L 130.790625 152.053125 L 128.98125 158.84375 L 126.68125 164.353125 L 123.846875 169.184375 L 120.284375 173.671875 L 116.346875 177.2625 L 111.2125 180.721875 L 105.046875 183.95625 L 96.89375 187.459375 L 88.3 190.48125 L 86.29375 191.7375 L 84.3375 193.58125 L 81.59375 197.496875 L 79.38125 202.659375 L 77.725 209.06875 L 76.446875 217.325 " transform="matrix(1.25,0,0,1.25,0,0)"/>
<path style="fill:none;stroke-width:1.5;stroke-linecap:square;stroke-linejoin:round;stroke:rgb(0%,0%,0%);stroke-opacity:1;stroke-miterlimit:4;" d="M 202.553125 378.65625 L 203.021875 385.6 L 201.775 407.4625 L 200.28125 415.75 L 197.734375 422.296875 L 194.99375 426.559375 L 191.71875 430.696875 L 188.14375 434.421875 L 184.128125 437.88125 L 179.846875 440.940625 L 175.146875 443.7125 L 164.715625 448.25625 L 158 450.3 L 150.903125 451.884375 L 143.4875 453.028125 L 134.35 453.921875 L 126.678125 454.2625 L 119.54375 454.13125 L 112.9 453.525 L 106.49375 452.428125 L 100.3 450.83125 L 94.090625 448.646875 L 86.721875 445.43125 L 80.4375 442.046875 L 75.4875 438.71875 L 71.228125 435.153125 L 67.465625 431.2125 L 64.16875 426.8875 " transform="matrix(1.25,0,0,1.25,0,0)"/>
<path style="fill:none;stroke-width:1.5;stroke-linecap:square;stroke-linejoin:round;stroke:rgb(0%,0%,0%);stroke-opacity:1;stroke-miterlimit:4;" d="M 84.815625 134.71875 L 112.775 138.615625 L 120.609375 140.284375 L 126.28125 142.1125 L 128.025 143.2125 L 129.046875 144.56875 L 129.15625 146.10625 L 128.415625 147.6875 L 127.09375 149.146875 L 125.234375 150.33125 L 122.828125 151.2 L 119.915625 151.7375 L 113.471875 151.90625 L 101.25625 150.971875 L 63.01875 146.715625 L 40.790625 145.815625 L 33.409375 144.24375 L 30.53125 143.01875 L 27.9 141.371875 " transform="matrix(1.25,0,0,1.25,0,0)"/>
<path style="fill:none;stroke-width:1.5;stroke-linecap:square;stroke-linejoin:round;stroke:rgb(0%,0%,0%);stroke-opacity:1;stroke-miterlimit:4;" d="M 102.1125 441.303125 L 105.096875 439.58125 L 112.33125 436.571875 L 124.33125 430.09375 L 128.63125 428.590625 L 132.8 427.965625 L 135.921875 428.071875 L 138.19375 428.54375 L 140.890625 429.621875 L 143.35 431.0875 L 145.55 432.921875 L 147.190625 434.9 L 148.21875 436.9125 L 148.65 439.059375 L 148.359375 441.3 L 147.490625 443.00625 L 145.79375 444.61875 L 143.4 445.915625 L 136.290625 447.7875 L 124.5875 449.253125 L 117.51875 449.04375 L 111.384375 447.634375 L 106.29375 445.053125 L 102.1125 441.303125 " transform="matrix(1.25,0,0,1.25,0,0)"/>
<path style="fill:none;stroke-width:1.5;stroke-linecap:square;stroke-linejoin:round;stroke:rgb(0%,0%,0%);stroke-opacity:1;stroke-miterlimit:4;" d="M 85.93125 434.09375 L 88.6625 436.709375 L 92.034375 438.684375 L 95.921875 440.015625 L 102.1125 441.303125 " transform="matrix(1.25,0,0,1.25,0,0)"/>
<path style="fill:none;stroke-width:1.5;stroke-linecap:square;stroke-linejoin:round;stroke:rgb(0%,0%,0%);stroke-opacity:1;stroke-miterlimit:4;" d="M 30.13125 195.15 L 53.603125 195.78125 L 74.453125 197.7 L 93.5125 200.978125 L 102.55625 203.175 L 111.040625 205.68125 " transform="matrix(1.25,0,0,1.25,0,0)"/>
<path style="fill:none;stroke-width:1.5;stroke-linecap:square;stroke-linejoin:round;stroke:rgb(0%,0%,0%);stroke-opacity:1;stroke-miterlimit:4;" d="M 154.009375 320.996875 L 151.9375 319.865625 L 150.69375 318.7 L 150.159375 317.409375 L 150.4 316.021875 L 151.421875 314.584375 L 153.2875 313.065625 L 158.9125 310.371875 L 167.75625 308.215625 L 177.928125 306.571875 L 189.16875 305.46875 L 201.4375 304.91875 " transform="matrix(1.25,0,0,1.25,0,0)"/>
<path style="fill:none;stroke-width:1.5;stroke-linecap:square;stroke-linejoin:round;stroke:rgb(0%,0%,0%);stroke-opacity:1;stroke-miterlimit:4;" d="M 261.14375 201.246875 L 263.38125 205.7 L 265.2375 210.55 L 266.78125 215.984375 L 268.053125 222.20625 L 275.196875 282.603125 L 276.275 299.4875 L 276.3375 314.3 L 275.4 327.815625 L 273.41875 340.403125 " transform="matrix(1.25,0,0,1.25,0,0)"/>
<path style="fill:none;stroke-width:1.5;stroke-linecap:square;stroke-linejoin:round;stroke:rgb(0%,0%,0%);stroke-opacity:1;stroke-miterlimit:4;" d="M 68.634375 402.49375 L 53.56875 419.125 " transform="matrix(1.25,0,0,1.25,0,0)"/>
<path style="fill:none;stroke-width:1.5;stroke-linecap:square;stroke-linejoin:round;stroke:rgb(0%,0%,0%);stroke-opacity:1;stroke-miterlimit:4;" d="M 95.975 324.878125 L 104.534375 313.646875 L 108.06875 310.003125 L 111.6 307.1375 " transform="matrix(1.25,0,0,1.25,0,0)"/>
<path style="fill:none;stroke-width:1.5;stroke-linecap:square;stroke-linejoin:round;stroke:rgb(0%,0%,0%);stroke-opacity:1;stroke-miterlimit:4;" d="M 159.5875 194.59375 L 152.040625 234.3625 L 147.91875 261.6875 L 146.359375 275.778125 L 145.6 286.4375 L 145.465625 296.178125 L 145.96875 305.05625 L 147.334375 314.63125 L 149.74375 324.578125 L 152.903125 334.3625 L 156.56875 342.834375 L 160.521875 349.659375 L 165.065625 355.53125 L 170.16875 360.39375 L 175.76875 364.240625 " transform="matrix(1.25,0,0,1.25,0,0)"/>
<path style="fill:none;stroke-width:1.5;stroke-linecap:square;stroke-linejoin:round;stroke:rgb(0%,0%,0%);stroke-opacity:1;stroke-miterlimit:4;" d="M 161.81875 192.378125 L 167.59375 190.465625 L 174.203125 189.18125 L 196.1875 187.6375 L 213.528125 187.153125 L 260.75625 187.16875 L 267.9125 187.6125 L 273.06875 188.765625 L 276.65 190.73125 L 277.79375 192.046875 L 278.440625 193.484375 " transform="matrix(1.25,0,0,1.25,0,0)"/>
<path style="fill:none;stroke-width:1.5;stroke-linecap:square;stroke-linejoin:round;stroke:rgb(0%,0%,0%);stroke-opacity:1;stroke-miterlimit:4;" d="M 208.134375 370.89375 L 205.8125 373.934375 L 204.728125 377.084375 L 204.790625 386.946875 L 204.365625 392.434375 L 203.296875 399.853125 L 201.73125 406.146875 L 200.021875 410.653125 L 197.8875 414.56875 L 195.609375 417.521875 L 192.34375 420.640625 L 188.296875 423.490625 L 184.6125 424.921875 L 181.740625 424.721875 L 179.675 423.00625 L 175.76875 426.8875 L 173.36875 418.7 L 172.4125 411.06875 L 172.9 404.428125 L 173.7125 401.409375 L 174.859375 398.775 L 176.503125 396.340625 L 178.4875 394.53125 L 180.83125 393.30625 L 183.2375 392.821875 L 185.534375 393.103125 L 187.540625 394.165625 L 189.0125 395.890625 L 189.890625 398.153125 L 190.134375 401.90625 L 189.2 405.834375 L 187.384375 409.3125 L 181.90625 417.39375 L 180.76875 420.003125 L 180.234375 422.453125 " transform="matrix(1.25,0,0,1.25,0,0)"/>
<path style="fill:none;stroke-width:1.5;stroke-linecap:square;stroke-linejoin:round;stroke:rgb(0%,0%,0%);stroke-opacity:1;stroke-miterlimit:4;" d="M 175.76875 426.8875 L 175.171875 429.940625 L 173.634375 432.746875 L 171.184375 435.359375 L 167.91875 437.6375 L 164 439.403125 L 159.85625 440.415625 L 155.965625 440.58125 L 152.546875 439.93125 L 149.715625 438.3375 L 148.084375 435.690625 L 147.45625 432.7125 L 147.175 425.21875 L 146.584375 420.915625 L 145.275 416.840625 L 143.396875 413.884375 L 140.49375 411.578125 L 136.53125 410.059375 L 132.0625 409.58125 L 126.559375 410.05 L 113.646875 412.725 L 98.884375 414.721875 L 94.240625 416.2 L 91.04375 418.165625 L 88.8125 421.14375 L 88.221875 424.640625 L 89.51875 429.1 L 94.09375 437.109375 L 95.41875 440.19375 L 92.4 439.746875 L 89.934375 438.71875 L 87.640625 437.06875 L 85.55625 434.796875 L 83.715625 431.94375 L 82.059375 428.40625 L 80.596875 424.121875 L 77.546875 410.74375 L 76.178125 408.25625 L 74.190625 406.790625 L 72.11875 406.31875 L 70.525 406.60625 L 69.26875 407.640625 L 68.33125 409.56875 L 67.690625 414.88125 L 68.203125 425.146875 L 67.85 427.4375 L 67.2125 428.971875 L 66.065625 429.971875 L 64.515625 430.10625 L 62.675 429.425 L 60.821875 427.8375 L 58.85 425.046875 L 52.709375 414.203125 L 48.80625 405.809375 L 47.41875 401.171875 L 46.28125 394.871875 L 46.2 391.709375 L 46.86875 389.36875 L 48.234375 388.01875 L 50.346875 387.409375 L 58.590625 387.475 L 76.51875 385.853125 L 124.034375 377.2375 L 138.0625 375.1625 L 150.715625 373.740625 L 160.115625 373.034375 L 168.2875 372.946875 L 204.228125 374.775 " transform="matrix(1.25,0,0,1.25,0,0)"/>
<path style="fill:none;stroke-width:1.5;stroke-linecap:square;stroke-linejoin:round;stroke:rgb(0%,0%,0%);stroke-opacity:1;stroke-miterlimit:4;" d="M 93.1875 435.759375 L 90.396875 438.53125 " transform="matrix(1.25,0,0,1.25,0,0)"/>
<path style="fill:none;stroke-width:1.5;stroke-linecap:square;stroke-linejoin:round;stroke:rgb(0%,0%,0%);stroke-opacity:1;stroke-miterlimit:4;" d="M 90.953125 436.86875 L 92.06875 436.86875 " transform="matrix(1.25,0,0,1.25,0,0)"/>
<path style="fill:none;stroke-width:1.5;stroke-linecap:square;stroke-linejoin:round;stroke:rgb(0%,0%,0%);stroke-opacity:1;stroke-miterlimit:4;" d="M 95.975 440.746875 L 100.440625 443.51875 " transform="matrix(1.25,0,0,1.25,0,0)"/>
<path style="fill:none;stroke-width:1.5;stroke-linecap:square;stroke-linejoin:round;stroke:rgb(0%,0%,0%);stroke-opacity:1;stroke-miterlimit:4;" d="M 74.771875 330.978125 L 82.325 321.234375 L 89.765625 313.08125 L 97.08125 306.546875 L 104.346875 301.59375 " transform="matrix(1.25,0,0,1.25,0,0)"/>
<path style="fill:none;stroke-width:1.5;stroke-linecap:square;stroke-linejoin:round;stroke:rgb(0%,0%,0%);stroke-opacity:1;stroke-miterlimit:4;" d="M 59.70625 335.4125 L 85.93125 309.8625 L 99.88125 299.375 " transform="matrix(1.25,0,0,1.25,0,0)"/>
<path style="fill:none;stroke-width:1.5;stroke-linecap:square;stroke-linejoin:round;stroke:rgb(0%,0%,0%);stroke-opacity:1;stroke-miterlimit:4;" d="M 218.178125 425.225 L 219.615625 422.4625 L 221.375 420.746875 L 223.50625 419.928125 L 225.940625 420.040625 L 228.715625 421.146875 L 231.5 423.1625 L 234.04375 425.90625 L 236.034375 429.10625 " transform="matrix(1.25,0,0,1.25,0,0)"/>
<path style="fill:none;stroke-width:1.5;stroke-linecap:square;stroke-linejoin:round;stroke:rgb(0%,0%,0%);stroke-opacity:1;stroke-miterlimit:4;" d="M 73.65625 386.415625 L 50.778125 411.365625 " transform="matrix(1.25,0,0,1.25,0,0)"/>
<path style="fill:none;stroke-width:1.5;stroke-linecap:square;stroke-linejoin:round;stroke:rgb(0%,0%,0%);stroke-opacity:1;stroke-miterlimit:4;" d="M 66.403125 426.8875 L 65.84375 427.996875 " transform="matrix(1.25,0,0,1.25,0,0)"/>
<path style="fill:none;stroke-width:1.5;stroke-linecap:square;stroke-linejoin:round;stroke:rgb(0%,0%,0%);stroke-opacity:1;stroke-miterlimit:4;" d="M 49.6625 405.265625 L 58.346875 395.89375 L 62.86875 392 L 67.51875 388.634375 " transform="matrix(1.25,0,0,1.25,0,0)"/>
<path style="fill:none;stroke-width:1.5;stroke-linecap:square;stroke-linejoin:round;stroke:rgb(0%,0%,0%);stroke-opacity:1;stroke-miterlimit:4;" d="M 54.125 251.696875 L 49.1875 271.234375 L 45.409375 291.378125 L 42.8 312.128125 L 41.421875 333.034375 L 41.3125 354.09375 L 42.509375 374.84375 L 45.028125 394.878125 L 46.571875 402.803125 L 48.43125 410.003125 L 52.321875 420.6125 L 57.1875 429.5 L 63.159375 436.95625 L 70.2625 443.059375 L 78.759375 448.078125 L 88.778125 452.0625 L 100.5875 455.096875 L 114.946875 457.38125 " transform="matrix(1.25,0,0,1.25,0,0)"/>
<path style="fill:none;stroke-width:1.5;stroke-linecap:square;stroke-linejoin:round;stroke:rgb(0%,0%,0%);stroke-opacity:1;stroke-miterlimit:4;" d="M 29.575 385.8625 L 41.290625 383.64375 " transform="matrix(1.25,0,0,1.25,0,0)"/>
<path style="fill:none;stroke-width:1.5;stroke-linecap:square;stroke-linejoin:round;stroke:rgb(0%,0%,0%);stroke-opacity:1;stroke-miterlimit:4;" d="M 155.125 329.3125 L 174.95625 331.103125 L 194.2375 331.371875 L 210.48125 330.41875 L 233.121875 327.534375 L 240.35625 327.165625 L 244.5625 327.521875 L 247.953125 328.390625 L 250.4625 329.690625 L 252.359375 331.590625 L 253.134375 333.334375 L 253.375 335.575 L 253.071875 338.2 L 252.21875 341.20625 L 249.471875 346.621875 L 245.19375 351.634375 L 239.1875 356.4 L 231.696875 360.678125 L 223.09375 364.34375 L 216.50625 365.796875 L 210.909375 365.928125 L 205.11875 365.16875 L 198.9875 363.509375 L 192.4125 360.890625 L 183.51875 356.209375 L 172.4625 349.1375 L 167.209375 345.24375 L 163.49375 341.509375 " transform="matrix(1.25,0,0,1.25,0,0)"/>
<path style="fill:none;stroke-width:1.5;stroke-linecap:square;stroke-linejoin:round;stroke:rgb(0%,0%,0%);stroke-opacity:1;stroke-miterlimit:4;" d="M 102.671875 384.2 L 80.909375 410.25625 " transform="matrix(1.25,0,0,1.25,0,0)"/>
<path style="fill:none;stroke-width:1.5;stroke-linecap:square;stroke-linejoin:round;stroke:rgb(0%,0%,0%);stroke-opacity:1;stroke-miterlimit:4;" d="M 68.634375 396.396875 L 54.125 411.91875 " transform="matrix(1.25,0,0,1.25,0,0)"/>
<path style="fill:none;stroke-width:1.5;stroke-linecap:square;stroke-linejoin:round;stroke:rgb(0%,0%,0%);stroke-opacity:1;stroke-miterlimit:4;" d="M 93.74375 297.7125 L 81.71875 306.60625 L 69.659375 317.1625 L 58.428125 328.609375 L 48.546875 340.403125 " transform="matrix(1.25,0,0,1.25,0,0)"/>
<path style="fill:none;stroke-width:1.5;stroke-linecap:square;stroke-linejoin:round;stroke:rgb(0%,0%,0%);stroke-opacity:1;stroke-miterlimit:4;" d="M 158.471875 453.5 L 151.96875 464.03125 L 151.209375 476.228125 L 152.334375 502.2875 " transform="matrix(1.25,0,0,1.25,0,0)"/>
<path style="fill:none;stroke-width:1.5;stroke-linecap:square;stroke-linejoin:round;stroke:rgb(0%,0%,0%);stroke-opacity:1;stroke-miterlimit:4;" d="M 217.0625 226.75 L 215.946875 268.328125 " transform="matrix(1.25,0,0,1.25,0,0)"/>
<path style="fill:none;stroke-width:1.5;stroke-linecap:square;stroke-linejoin:round;stroke:rgb(0%,0%,0%);stroke-opacity:1;stroke-miterlimit:4;" d="M 219.853125 371.446875 L 228.0125 369 L 236.5 365.434375 L 243.903125 361.36875 L 250.0125 356.93125 L 253.35 353.665625 L 255.8875 350.2375 L 264.1 335.128125 L 267.765625 329.58125 L 272.309375 324.975 L 277.325 322.10625 " transform="matrix(1.25,0,0,1.25,0,0)"/>
<path style="fill:none;stroke-width:1.5;stroke-linecap:square;stroke-linejoin:round;stroke:rgb(0%,0%,0%);stroke-opacity:1;stroke-miterlimit:4;" d="M 170.746875 336.521875 L 168.603125 334.890625 L 166.61875 334.059375 L 163.909375 333.740625 L 161.325 334.021875 L 159.96875 334.846875 L 159.703125 335.996875 L 160.578125 337.628125 L 162.321875 339.01875 L 164.865625 339.965625 L 167.303125 340.08125 L 168.69375 339.709375 L 169.80625 338.94375 L 170.471875 337.9125 L 170.746875 336.521875 L 174.825 337.503125 L 177.49375 339.071875 L 180.790625 342.065625 L 179.925 344.240625 L 180.196875 346.278125 L 181.6625 348.26875 L 184.215625 350.128125 L 194.825 355.728125 L 200.65625 358.2375 L 206.334375 359.646875 L 211.96875 359.865625 L 220.409375 358.565625 L 228.325 356.31875 L 234.9375 353.296875 L 240.278125 349.525 L 244.559375 344.796875 L 247.621875 339.109375 L 247.609375 336.671875 L 245.45 331.08125 L 245.9 330.01875 L 247.471875 328.83125 L 250.61875 327.9375 L 254.759375 327.990625 L 259.9 329.015625 L 265.609375 330.978125 " transform="matrix(1.25,0,0,1.25,0,0)"/>
<path style="fill:none;stroke-width:1.5;stroke-linecap:square;stroke-linejoin:round;stroke:rgb(0%,0%,0%);stroke-opacity:1;stroke-miterlimit:4;" d="M 270.071875 329.3125 L 275.09375 328.759375 " transform="matrix(1.25,0,0,1.25,0,0)"/>
<path style="fill:none;stroke-width:1.5;stroke-linecap:square;stroke-linejoin:round;stroke:rgb(0%,0%,0%);stroke-opacity:1;stroke-miterlimit:4;" d="M 180.790625 341.509375 L 182.30625 339.81875 L 184.065625 338.55625 L 186.215625 337.596875 L 188.953125 336.925 L 192.915625 336.559375 L 202.3375 336.453125 L 208.784375 335.8375 L 235.559375 330.8 L 244.403125 330.978125 " transform="matrix(1.25,0,0,1.25,0,0)"/>
<path style="fill:none;stroke-width:1.5;stroke-linecap:square;stroke-linejoin:round;stroke:rgb(0%,0%,0%);stroke-opacity:1;stroke-miterlimit:4;" d="M 265.05 330.978125 L 261.859375 334.090625 L 260.7125 335.89375 L 260.621875 337.896875 L 261.703125 339.846875 " transform="matrix(1.25,0,0,1.25,0,0)"/>
<path style="fill:none;stroke-width:1.5;stroke-linecap:square;stroke-linejoin:round;stroke:rgb(0%,0%,0%);stroke-opacity:1;stroke-miterlimit:4;" d="M 174.653125 333.19375 L 171.8625 336.521875 " transform="matrix(1.25,0,0,1.25,0,0)"/>
<path style="fill:none;stroke-width:1.5;stroke-linecap:square;stroke-linejoin:round;stroke:rgb(0%,0%,0%);stroke-opacity:1;stroke-miterlimit:4;" d="M 176.328125 336.521875 L 182.465625 338.184375 " transform="matrix(1.25,0,0,1.25,0,0)"/>
<path style="fill:none;stroke-width:1.5;stroke-linecap:square;stroke-linejoin:round;stroke:rgb(0%,0%,0%);stroke-opacity:1;stroke-miterlimit:4;" d="M 171.30625 340.403125 L 172.98125 345.390625 " transform="matrix(1.25,0,0,1.25,0,0)"/>
<path style="fill:none;stroke-width:1.5;stroke-linecap:square;stroke-linejoin:round;stroke:rgb(0%,0%,0%);stroke-opacity:1;stroke-miterlimit:4;" d="M 245.51875 335.965625 L 243.175 341.21875 L 239.878125 345.20625 L 235.4625 348.396875 L 230.596875 350.03125 L 226.340625 350.275 L 221.40625 349.578125 L 204.009375 343.94375 L 197.209375 342.6125 L 193.75 342.63125 L 190.5125 343.26875 L 187.49375 344.55625 L 184.696875 346.5 " transform="matrix(1.25,0,0,1.25,0,0)"/>
<path style="fill:none;stroke-width:1.5;stroke-linecap:square;stroke-linejoin:round;stroke:rgb(0%,0%,0%);stroke-opacity:1;stroke-miterlimit:4;" d="M 95.975 385.309375 L 79.79375 404.15625 " transform="matrix(1.25,0,0,1.25,0,0)"/>
<path style="fill:none;stroke-width:1.5;stroke-linecap:square;stroke-linejoin:round;stroke:rgb(0%,0%,0%);stroke-opacity:1;stroke-miterlimit:4;" d="M 90.953125 349.825 L 95.365625 351.4625 L 97.31875 352.68125 L 98.771875 354.884375 L 98.925 357.2875 L 97.840625 359.7625 L 95.55625 362.346875 L 92.015625 365.05 L 87.60625 367.56875 " transform="matrix(1.25,0,0,1.25,0,0)"/>
<path style="fill:none;stroke-width:1.5;stroke-linecap:square;stroke-linejoin:round;stroke:rgb(0%,0%,0%);stroke-opacity:1;stroke-miterlimit:4;" d="M 67.51875 417.4625 L 60.821875 425.225 " transform="matrix(1.25,0,0,1.25,0,0)"/>
<path style="fill:none;stroke-width:1.5;stroke-linecap:square;stroke-linejoin:round;stroke:rgb(0%,0%,0%);stroke-opacity:1;stroke-miterlimit:4;" d="M 93.74375 442.4125 L 97.7375 446.353125 L 103.109375 449.53125 L 109.946875 451.9375 L 117.825 453.43125 L 126.99375 454.05625 L 136.86875 453.721875 L 142.04375 453.0625 L 151.7625 450.06875 L 154.134375 449.86875 L 155.83125 450.265625 L 156.409375 451 L 156.471875 452.0125 L 155.078125 455.340625 L 152.109375 458.95 L 148.678125 461.3375 L 146.4875 462.13125 L 143.71875 462.546875 L 131.54375 462.76875 L 128.721875 463.428125 L 126.109375 464.5875 " transform="matrix(1.25,0,0,1.25,0,0)"/>
<path style="fill:none;stroke-width:1.5;stroke-linecap:square;stroke-linejoin:round;stroke:rgb(0%,0%,0%);stroke-opacity:1;stroke-miterlimit:4;" d="M 55.240625 251.696875 L 57.196875 249.4 L 59.871875 247.3875 L 63.228125 245.678125 L 67.190625 244.26875 L 76.309375 242.284375 L 94.846875 239.85 L 110.584375 238.66875 L 127.73125 238.234375 L 146.90625 238.484375 L 173.5375 239.5 " transform="matrix(1.25,0,0,1.25,0,0)"/>
<path style="fill:none;stroke-width:1.5;stroke-linecap:square;stroke-linejoin:round;stroke:rgb(0%,0%,0%);stroke-opacity:1;stroke-miterlimit:4;" d="M 243.2875 201.803125 L 246.1625 206.0375 L 248.45 211.4625 L 250.090625 218.028125 L 251.215625 226.1875 L 253.91875 259.7625 L 255.046875 302.13125 L 256.134375 321.00625 L 256.221875 329.571875 L 255.715625 336.43125 L 254.65625 342.815625 L 253.090625 348.546875 L 251.03125 353.61875 L 248.540625 357.90625 L 245.565625 361.5125 L 242.128125 364.375 L 238.265625 366.459375 " transform="matrix(1.25,0,0,1.25,0,0)"/>
<path style="fill:none;stroke-width:1.5;stroke-linecap:square;stroke-linejoin:round;stroke:rgb(0%,0%,0%);stroke-opacity:1;stroke-miterlimit:4;" d="M 251.659375 423.396875 L 255.528125 422.74375 L 259.20625 423.453125 L 262.365625 425.5 L 264.528125 428.58125 L 265.309375 432.040625 L 264.65 435.41875 L 262.6375 438.24375 L 259.303125 440.40625 L 255.8375 441.35 L 252.434375 440.69375 L 249.309375 438.475 L 247.0125 435.08125 L 246.046875 431.340625 L 246.575 427.821875 L 248.45 425.1875 L 251.659375 423.396875 " transform="matrix(1.25,0,0,1.25,0,0)"/>
<path style="fill:none;stroke-width:1.5;stroke-linecap:square;stroke-linejoin:round;stroke:rgb(0%,0%,0%);stroke-opacity:1;stroke-miterlimit:4;" d="M 113.83125 309.35625 L 113.325 312.509375 L 113.15 321.896875 L 112.41875 324.034375 L 109.090625 330.33125 L 108.84375 332.021875 L 109.025 337.975 L 108.60625 339.646875 L 107.775 340.875 L 105.815625 341.928125 L 102.928125 341.953125 L 91.2625 338.0875 L 83.140625 339.29375 " transform="matrix(1.25,0,0,1.25,0,0)"/>
<path style="fill:none;stroke-width:1.5;stroke-linecap:square;stroke-linejoin:round;stroke:rgb(0%,0%,0%);stroke-opacity:1;stroke-miterlimit:4;" d="M 92.06875 337.628125 L 94.275 335.646875 L 96.971875 334.259375 L 107.69375 331.53125 " transform="matrix(1.25,0,0,1.25,0,0)"/>
<path style="fill:none;stroke-width:1.5;stroke-linecap:square;stroke-linejoin:round;stroke:rgb(0%,0%,0%);stroke-opacity:1;stroke-miterlimit:4;" d="M 206.459375 385.309375 L 202.871875 388.540625 L 199.603125 392.5875 L 197.5125 396.365625 L 196.48125 399.925 L 196.40625 403.440625 L 197.275 406.903125 L 199.140625 410.45625 L 202 414.078125 L 206.4625 418.3875 L 223.75 433.1375 L 226.503125 434.525 L 229.06875 435.115625 L 231.521875 435.003125 L 233.9625 434.159375 L 237.521875 431.4875 L 240.2625 427.553125 L 241.53125 423.2875 L 241.546875 421.246875 L 241.121875 419.296875 L 238.86875 415.121875 L 235.075 411.01875 L 229.9125 407.225 L 223.2 403.603125 " transform="matrix(1.25,0,0,1.25,0,0)"/>
<path style="fill:none;stroke-width:1.5;stroke-linecap:square;stroke-linejoin:round;stroke:rgb(0%,0%,0%);stroke-opacity:1;stroke-miterlimit:4;" d="M 107.69375 303.8125 L 84.815625 329.3125 " transform="matrix(1.25,0,0,1.25,0,0)"/>
<path style="fill:none;stroke-width:1.5;stroke-linecap:square;stroke-linejoin:round;stroke:rgb(0%,0%,0%);stroke-opacity:1;stroke-miterlimit:4;" d="M 66.403125 411.91875 L 57.475 422.453125 " transform="matrix(1.25,0,0,1.25,0,0)"/>
<path style="fill:none;stroke-width:1.5;stroke-linecap:square;stroke-linejoin:round;stroke:rgb(0%,0%,0%);stroke-opacity:1;stroke-miterlimit:4;" d="M 133.3625 379.209375 L 105.4625 409.703125 " transform="matrix(1.25,0,0,1.25,0,0)"/>
<path style="fill:none;stroke-width:1.5;stroke-linecap:square;stroke-linejoin:round;stroke:rgb(0%,0%,0%);stroke-opacity:1;stroke-miterlimit:4;" d="M 171.8625 525.571875 L 176.059375 520.01875 L 179.996875 516.196875 L 184.05 513.775 L 188.0875 512.7625 L 192.415625 513.04375 L 195.184375 514.4625 L 196.66875 516.58125 L 199.253125 522.865625 L 200.553125 524.421875 L 202.234375 525.609375 L 207.046875 527.13125 L 215.44375 527.846875 L 246.040625 527.09375 L 252.146875 526.4125 L 255.0125 525.5875 L 257.19375 524.378125 L 263.16875 518.471875 L 265.521875 516.73125 L 268.440625 515.725 L 271.921875 515.665625 L 278.025 516.546875 L 283.45625 518.121875 L 287.234375 520.065625 L 289.39375 522.3875 L 289.759375 524.853125 L 288.396875 527.590625 L 285.65625 530.196875 L 280.675 533.33125 " transform="matrix(1.25,0,0,1.25,0,0)"/>
<path style="fill:none;stroke-width:1.5;stroke-linecap:square;stroke-linejoin:round;stroke:rgb(0%,0%,0%);stroke-opacity:1;stroke-miterlimit:4;" d="M 44.640625 384.2 L 49.071875 381.546875 L 54.14375 379.371875 L 60.215625 377.540625 L 67.01875 376.14375 L 75.96875 374.953125 L 100.365625 372.64375 L 144.046875 367.475 L 160.64375 366.21875 L 175.325 365.9 L 181.81875 366.353125 L 199.509375 368.903125 L 204.853125 368.89375 L 209.809375 368.121875 " transform="matrix(1.25,0,0,1.25,0,0)"/>
<path style="fill:none;stroke-width:1.5;stroke-linecap:square;stroke-linejoin:round;stroke:rgb(0%,0%,0%);stroke-opacity:1;stroke-miterlimit:4;" d="M 75.33125 225.0875 L 73.096875 240.05625 " transform="matrix(1.25,0,0,1.25,0,0)"/>
<path style="fill:none;stroke-width:1.5;stroke-linecap:square;stroke-linejoin:round;stroke:rgb(0%,0%,0%);stroke-opacity:1;stroke-miterlimit:4;" d="M 152.334375 325.43125 L 153.075 327.315625 L 153.625 331.48125 L 154.26875 333.365625 L 156.134375 335.825 L 158.803125 338.35 L 170.63125 346.665625 L 183.465625 358.31875 L 189.1875 362.728125 L 192.7625 364.80625 L 196.203125 366.259375 L 199.684375 367.18125 L 203.203125 367.58125 L 207.203125 367.446875 L 216.403125 366.2 L 228.496875 363.99375 L 236.734375 361.325 L 243.253125 357.759375 L 246.1625 355.440625 L 248.65625 352.859375 L 250.871875 349.86875 L 252.68125 346.634375 L 255.709375 339.846875 L 257.128125 335.571875 L 257.459375 332.1375 L 256.5875 330.075 L 254.515625 329.409375 L 249.209375 330.275 L 246.034375 330.1625 L 235.340625 327.071875 L 231.221875 326.559375 L 221.15 327.428125 L 197.975 330.975 L 186.86875 331.515625 L 177.825 330.73125 L 154.009375 327.096875 " transform="matrix(1.25,0,0,1.25,0,0)"/>
<path style="fill:none;stroke-width:1.5;stroke-linecap:square;stroke-linejoin:round;stroke:rgb(0%,0%,0%);stroke-opacity:1;stroke-miterlimit:4;" d="M 54.684375 394.73125 L 71.425 430.215625 L 66.625 427.715625 L 62.546875 423.671875 L 58.971875 418.16875 L 53.56875 407.484375 " transform="matrix(1.25,0,0,1.25,0,0)"/>
<path style="fill:none;stroke-width:1.5;stroke-linecap:square;stroke-linejoin:round;stroke:rgb(0%,0%,0%);stroke-opacity:1;stroke-miterlimit:4;" d="M 67.51875 421.34375 L 64.16875 424.671875 " transform="matrix(1.25,0,0,1.25,0,0)"/>
<path style="fill:none;stroke-width:1.5;stroke-linecap:square;stroke-linejoin:round;stroke:rgb(0%,0%,0%);stroke-opacity:1;stroke-miterlimit:4;" d="M 67.146875 425.225 L 67.33125 425.778125 L 67.146875 425.225 " transform="matrix(1.25,0,0,1.25,0,0)"/>
<path style="fill:none;stroke-width:1.5;stroke-linecap:square;stroke-linejoin:round;stroke:rgb(0%,0%,0%);stroke-opacity:1;stroke-miterlimit:4;" d="M 66.959375 425.778125 L 65.84375 426.8875 " transform="matrix(1.25,0,0,1.25,0,0)"/>
<path style="fill:none;stroke-width:1.5;stroke-linecap:square;stroke-linejoin:round;stroke:rgb(0%,0%,0%);stroke-opacity:1;stroke-miterlimit:4;" d="M 71.425 430.215625 L 80.6125 438.79375 L 88.7 444.9625 L 96.228125 449.1125 L 103.23125 451.28125 " transform="matrix(1.25,0,0,1.25,0,0)"/>
<path style="fill:none;stroke-width:1.5;stroke-linecap:square;stroke-linejoin:round;stroke:rgb(0%,0%,0%);stroke-opacity:1;stroke-miterlimit:4;" d="M 23.4375 320.44375 L 41.8625 305.571875 L 48.228125 301.165625 L 54.125 297.7125 " transform="matrix(1.25,0,0,1.25,0,0)"/>
<path style="fill:none;stroke-width:1.5;stroke-linecap:square;stroke-linejoin:round;stroke:rgb(0%,0%,0%);stroke-opacity:1;stroke-miterlimit:4;" d="M 199.7625 415.246875 L 198.559375 418.628125 L 198.35 422.0375 L 199.175 425.6375 L 200.9625 429.209375 L 203.909375 433.209375 L 212.471875 442.95 L 219.7625 455.2875 L 222.64375 459.38125 L 227.040625 463.896875 L 233.009375 468.425 L 247.540625 477.434375 L 250.1125 478.5375 L 252.284375 478.80625 L 253.821875 478.371875 L 255.18125 477.484375 L 258.215625 473.85625 L 259.95 469.93125 L 260.434375 465.8125 L 260.06875 462.875 L 259.140625 460.03125 L 257.6875 457.3625 L 255.7375 454.946875 L 250.784375 450.88125 L 237.653125 442.190625 L 234.559375 439.546875 L 232.128125 436.86875 " transform="matrix(1.25,0,0,1.25,0,0)"/>
<path style="fill:none;stroke-width:1.5;stroke-linecap:square;stroke-linejoin:round;stroke:rgb(0%,0%,0%);stroke-opacity:1;stroke-miterlimit:4;" d="M 56.915625 401.384375 L 62.53125 410.203125 L 67.253125 416.834375 L 71.9625 422.50625 L 76.66875 427.203125 L 81.6875 431.2 L 86.865625 434.359375 L 92.36875 436.80625 L 98.209375 438.53125 " transform="matrix(1.25,0,0,1.25,0,0)"/>
<path style="fill:none;stroke-width:1.5;stroke-linecap:square;stroke-linejoin:round;stroke:rgb(0%,0%,0%);stroke-opacity:1;stroke-miterlimit:4;" d="M 138.384375 240.05625 L 138.940625 240.05625 " transform="matrix(1.25,0,0,1.25,0,0)"/>
<path style="fill:none;stroke-width:1.5;stroke-linecap:square;stroke-linejoin:round;stroke:rgb(0%,0%,0%);stroke-opacity:1;stroke-miterlimit:4;" d="M 45.196875 145.80625 L 40.109375 150.728125 L 37.8 153.99375 L 36.84375 157.684375 L 37.50625 161.44375 L 39.3125 164.578125 L 42.509375 168.059375 L 52.609375 177.278125 L 59.95625 182.6875 L 63.40625 184.590625 L 66.68125 185.90625 L 69.740625 186.60625 L 72.7375 186.690625 L 75.25 186.190625 L 77.65625 185.18125 L 85.990625 179.51875 L 89.7125 177.821875 L 91.865625 177.44375 L 96.29375 177.409375 L 98.140625 178.040625 L 99.209375 179.33125 L 99.528125 180.715625 L 99.34375 182.025 L 97.528125 184.68125 L 94.75625 186.790625 L 84.8375 192.70625 L 81.68125 195.4 L 79.33125 198.18125 L 77.5625 201.265625 L 76.3375 204.7375 L 75.60625 208.684375 L 75.33125 213.44375 " transform="matrix(1.25,0,0,1.25,0,0)"/>
<path style="fill:none;stroke-width:1.5;stroke-linecap:square;stroke-linejoin:round;stroke:rgb(0%,0%,0%);stroke-opacity:1;stroke-miterlimit:4;" d="M 173.5375 239.5 L 177.496875 241.75625 L 178.43125 242.928125 L 178.70625 244.1625 L 178.284375 245.30625 L 177.13125 246.44375 L 172.803125 248.440625 L 165.465625 250 L 126.453125 254.85625 L 99.7625 256.884375 L 87.128125 257.228125 L 77.159375 257.084375 L 67.978125 256.375 L 59.3625 255.071875 L 56.759375 253.896875 L 55.240625 251.696875 " transform="matrix(1.25,0,0,1.25,0,0)"/>
<path style="fill:none;stroke-width:1.5;stroke-linecap:square;stroke-linejoin:round;stroke:rgb(0%,0%,0%);stroke-opacity:1;stroke-miterlimit:4;" d="M 114.946875 378.1 L 83.140625 415.8 " transform="matrix(1.25,0,0,1.25,0,0)"/>
<path style="fill:none;stroke-width:1.5;stroke-linecap:square;stroke-linejoin:round;stroke:rgb(0%,0%,0%);stroke-opacity:1;stroke-miterlimit:4;" d="M 304.66875 403.603125 L 309.26875 404.4875 L 314.803125 403.925 L 322.515625 401.49375 L 329.503125 398.26875 L 335.2 394.7875 L 340.984375 390.484375 L 361.734375 372.4125 L 364.965625 370.415625 L 368.28125 369.23125 " transform="matrix(1.25,0,0,1.25,0,0)"/>
<path style="fill:none;stroke-width:1.5;stroke-linecap:square;stroke-linejoin:round;stroke:rgb(0%,0%,0%);stroke-opacity:1;stroke-miterlimit:4;" d="M 169.075 379.209375 L 179.675 380.49375 L 185.25625 383.865625 L 196.975 384.753125 " transform="matrix(1.25,0,0,1.25,0,0)"/>
<path style="fill:none;stroke-width:1.5;stroke-linecap:square;stroke-linejoin:round;stroke:rgb(0%,0%,0%);stroke-opacity:1;stroke-miterlimit:4;" d="M 184.140625 384.2 L 181.965625 385.325 L 176.3875 386.7875 L 174.015625 387.896875 L 171.128125 390.7375 L 169.15 394.13125 L 168.025 397.7 L 166.6 405.928125 L 165.6875 409.290625 L 156.40625 426.384375 L 154.95 429.7125 L 154.240625 432.353125 L 154.234375 433.865625 L 154.753125 434.98125 L 155.690625 435.54375 L 157.071875 435.5625 L 160.659375 433.7375 L 164.334375 430.20625 L 166.609375 425.478125 L 167.703125 419.79375 L 167.425 414.425 L 166.7625 412.165625 L 165.725 410.25625 " transform="matrix(1.25,0,0,1.25,0,0)"/>
<path style="fill:none;stroke-width:1.5;stroke-linecap:square;stroke-linejoin:round;stroke:rgb(0%,0%,0%);stroke-opacity:1;stroke-miterlimit:4;" d="M 133.91875 408.59375 L 139.934375 408.690625 L 146.6375 407.378125 L 153.596875 404.80625 L 162.615625 400.2125 L 166.840625 399.16875 " transform="matrix(1.25,0,0,1.25,0,0)"/>
<path style="fill:none;stroke-width:1.5;stroke-linecap:square;stroke-linejoin:round;stroke:rgb(0%,0%,0%);stroke-opacity:1;stroke-miterlimit:4;" d="M 161.81875 400.83125 L 166.284375 405.265625 " transform="matrix(1.25,0,0,1.25,0,0)"/>
<path style="fill:none;stroke-width:1.5;stroke-linecap:square;stroke-linejoin:round;stroke:rgb(0%,0%,0%);stroke-opacity:1;stroke-miterlimit:4;" d="M 240.496875 414.1375 L 238.3875 395.703125 L 238.265625 390.1125 L 238.659375 385.39375 L 239.6875 381.090625 L 241.309375 377.68125 L 243.70625 374.925 L 246.6375 373.1125 " transform="matrix(1.25,0,0,1.25,0,0)"/>
<path style="fill:none;stroke-width:1.5;stroke-linecap:square;stroke-linejoin:round;stroke:rgb(0%,0%,0%);stroke-opacity:1;stroke-miterlimit:4;" d="M 152.890625 252.80625 L 156.33125 256.04375 L 159.3 260.05 L 162.003125 265.1375 L 164.296875 271.075 L 166.559375 278.9625 L 171.434375 299.446875 L 175.465625 320.33125 L 178.08125 341.465625 L 179.171875 362.225 L 178.78125 382.853125 L 176.8875 403.603125 " transform="matrix(1.25,0,0,1.25,0,0)"/>
<path style="fill:none;stroke-width:1.5;stroke-linecap:square;stroke-linejoin:round;stroke:rgb(0%,0%,0%);stroke-opacity:1;stroke-miterlimit:4;" d="M 22.878125 511.15625 L 28.234375 505.115625 L 30.915625 500.91875 L 32.48125 496.41875 L 35.190625 485.71875 L 37.290625 480.76875 L 40.16875 476.840625 L 43.696875 473.865625 L 46.459375 472.465625 L 49.65 471.41875 L 61.2875 469.25625 L 65.675 468.021875 L 69.2375 466.259375 L 77.4 461.128125 L 81.840625 459.3875 L 87.0625 458.859375 L 94.29375 458.665625 L 100.1 458.9375 L 105.18125 459.596875 L 110.921875 461.003125 L 115.875 463.028125 L 120.2375 465.78125 L 124.20625 469.375 L 128.74375 474.875 L 139.16875 489.825 L 154.93125 508.325 L 169.325 527.04375 L 175.48125 534.021875 L 181.35 539.43125 " transform="matrix(1.25,0,0,1.25,0,0)"/>
<path style="fill:none;stroke-width:1.5;stroke-linecap:square;stroke-linejoin:round;stroke:rgb(0%,0%,0%);stroke-opacity:1;stroke-miterlimit:4;" d="M 29.575 346.5 L 39.978125 346.009375 L 65.125 343.85 L 76.44375 343.2375 L 93.728125 342.95625 L 98.003125 343.50625 L 101.171875 344.58125 L 103.26875 345.825 L 105.159375 347.509375 L 106.621875 349.478125 L 107.59375 351.6625 L 108.015625 353.821875 L 107.925 356.046875 L 107.278125 358.28125 L 106.153125 360.303125 L 102.59375 363.871875 L 97.6125 366.878125 L 91.4 369.33125 L 82.025 372.003125 " transform="matrix(1.25,0,0,1.25,0,0)"/>
<path style="fill:none;stroke-width:1.5;stroke-linecap:square;stroke-linejoin:round;stroke:rgb(0%,0%,0%);stroke-opacity:1;stroke-miterlimit:4;" d="M 203.66875 348.1625 L 204.228125 348.1625 " transform="matrix(1.25,0,0,1.25,0,0)"/>
<path style="fill:none;stroke-width:1.5;stroke-linecap:square;stroke-linejoin:round;stroke:rgb(0%,0%,0%);stroke-opacity:1;stroke-miterlimit:4;" d="M 89.28125 388.634375 L 74.2125 404.7125 " transform="matrix(1.25,0,0,1.25,0,0)"/>
<path style="fill:none;stroke-width:1.5;stroke-linecap:square;stroke-linejoin:round;stroke:rgb(0%,0%,0%);stroke-opacity:1;stroke-miterlimit:4;" d="M 132.803125 472.35 L 135.95 470.421875 L 138.996875 469.803125 L 141.5625 470.5625 L 143.3 472.5125 L 144.065625 474.565625 L 144.61875 477.934375 L 144.76875 490.809375 L 145.6375 496.1875 " transform="matrix(1.25,0,0,1.25,0,0)"/>
<path style="fill:none;stroke-width:1.5;stroke-linecap:square;stroke-linejoin:round;stroke:rgb(0%,0%,0%);stroke-opacity:1;stroke-miterlimit:4;" d="M 55.8 434.09375 L 53.30625 439.121875 L 49.778125 443.828125 L 45.98125 447.6625 L 35.959375 456.590625 L 31.4125 461.646875 L 27 468.078125 L 23.4375 475.121875 " transform="matrix(1.25,0,0,1.25,0,0)"/>
<path style="fill:none;stroke-width:1.5;stroke-linecap:square;stroke-linejoin:round;stroke:rgb(0%,0%,0%);stroke-opacity:1;stroke-miterlimit:4;" d="M 262.81875 216.771875 L 265.515625 226.890625 L 267.259375 238.5125 L 268.165625 251.975 L 268.396875 269.99375 " transform="matrix(1.25,0,0,1.25,0,0)"/>
<path style="fill:none;stroke-width:1.5;stroke-linecap:square;stroke-linejoin:round;stroke:rgb(0%,0%,0%);stroke-opacity:1;stroke-miterlimit:4;" d="M 112.715625 207.346875 L 113.540625 215.640625 L 116.971875 236.746875 L 118.93125 263.8 L 119.43125 279.396875 L 119.478125 294.78125 L 119.075 310.075 L 118.2125 325.0125 L 117.328125 333.521875 L 116.08125 341 L 114.425 347.79375 L 112.40625 353.753125 L 109.9125 359.196875 L 107.053125 363.86875 L 103.615625 368.071875 L 99.88125 371.446875 " transform="matrix(1.25,0,0,1.25,0,0)"/>
<path style="fill:none;stroke-width:1.5;stroke-linecap:square;stroke-linejoin:round;stroke:rgb(0%,0%,0%);stroke-opacity:1;stroke-miterlimit:4;" d="M 203.1125 389.74375 L 202.634375 394.69375 L 197.903125 413.575 L 195.921875 419.2875 L 193.50625 423.675 L 188.325 427.98125 L 181.940625 434.46875 L 175.7 440.03125 L 169.1125 445.090625 L 162.134375 449.646875 L 155.125 453.5 L 152.909375 450.2375 L 151.6125 449.640625 L 150.103125 449.61875 L 154.565625 454.053125 " transform="matrix(1.25,0,0,1.25,0,0)"/>
<path style="fill:none;stroke-width:1.5;stroke-linecap:square;stroke-linejoin:round;stroke:rgb(0%,0%,0%);stroke-opacity:1;stroke-miterlimit:4;" d="M 188.603125 423.5625 L 188.603125 426.334375 " transform="matrix(1.25,0,0,1.25,0,0)"/>
<path style="fill:none;stroke-width:1.5;stroke-linecap:square;stroke-linejoin:round;stroke:rgb(0%,0%,0%);stroke-opacity:1;stroke-miterlimit:4;" d="M 152.890625 449.0625 L 155.825 448.846875 L 158.471875 450.171875 " transform="matrix(1.25,0,0,1.25,0,0)"/>
<path style="fill:none;stroke-width:1.5;stroke-linecap:square;stroke-linejoin:round;stroke:rgb(0%,0%,0%);stroke-opacity:1;stroke-miterlimit:4;" d="M 106.578125 449.61875 L 122.203125 451.271875 L 150.103125 449.61875 " transform="matrix(1.25,0,0,1.25,0,0)"/>
<path style="fill:none;stroke-width:1.5;stroke-linecap:square;stroke-linejoin:round;stroke:rgb(0%,0%,0%);stroke-opacity:1;stroke-miterlimit:4;" d="M 150.103125 455.1625 L 153.45 454.053125 " transform="matrix(1.25,0,0,1.25,0,0)"/>
<path style="fill:none;stroke-width:1.5;stroke-linecap:square;stroke-linejoin:round;stroke:rgb(0%,0%,0%);stroke-opacity:1;stroke-miterlimit:4;" d="M 295.740625 311.571875 L 293.53125 317.10625 L 290.915625 329.328125 L 289.25 334.69375 L 286.1625 341.446875 L 282.15 347.7125 L 276.375 354.228125 L 271.021875 358.99375 L 267.85 361.234375 L 264.8125 362.284375 L 260.596875 360.471875 L 258.478125 360.715625 L 257.3625 361.6 L 256.60625 363.046875 L 256.365625 364.703125 L 256.68125 366.459375 L 261.14375 364.79375 L 258.9125 360.915625 " transform="matrix(1.25,0,0,1.25,0,0)"/>
<path style="fill:none;stroke-width:1.5;stroke-linecap:square;stroke-linejoin:round;stroke:rgb(0%,0%,0%);stroke-opacity:1;stroke-miterlimit:4;" d="M 260.028125 359.80625 L 265.06875 354.978125 L 268.621875 351.034375 L 271.553125 346.996875 L 273.8 342.91875 L 276.25625 335.96875 L 277.0125 324.290625 L 277.6375 321.778125 L 278.684375 319.89375 L 282.2625 316.490625 L 286.64375 314.1375 L 290.784375 313.365625 L 292.6 313.65 L 294.065625 314.34375 " transform="matrix(1.25,0,0,1.25,0,0)"/>
<path style="fill:none;stroke-width:1.5;stroke-linecap:square;stroke-linejoin:round;stroke:rgb(0%,0%,0%);stroke-opacity:1;stroke-miterlimit:4;" d="M 266.165625 355.371875 L 266.725 357.034375 " transform="matrix(1.25,0,0,1.25,0,0)"/>
<path style="fill:none;stroke-width:1.5;stroke-linecap:square;stroke-linejoin:round;stroke:rgb(0%,0%,0%);stroke-opacity:1;stroke-miterlimit:4;" d="M 263.375 357.5875 L 263.934375 359.25 " transform="matrix(1.25,0,0,1.25,0,0)"/>
<path style="fill:none;stroke-width:1.5;stroke-linecap:square;stroke-linejoin:round;stroke:rgb(0%,0%,0%);stroke-opacity:1;stroke-miterlimit:4;" d="M 267.840625 357.5875 L 269.5125 359.25 " transform="matrix(1.25,0,0,1.25,0,0)"/>
<path style="fill:none;stroke-width:1.5;stroke-linecap:square;stroke-linejoin:round;stroke:rgb(0%,0%,0%);stroke-opacity:1;stroke-miterlimit:4;" d="M 265.05 359.80625 L 266.725 361.46875 " transform="matrix(1.25,0,0,1.25,0,0)"/>
<path style="fill:none;stroke-width:1.5;stroke-linecap:square;stroke-linejoin:round;stroke:rgb(0%,0%,0%);stroke-opacity:1;stroke-miterlimit:4;" d="M 262.259375 360.359375 L 262.81875 360.915625 " transform="matrix(1.25,0,0,1.25,0,0)"/>
<path style="fill:none;stroke-width:1.5;stroke-linecap:square;stroke-linejoin:round;stroke:rgb(0%,0%,0%);stroke-opacity:1;stroke-miterlimit:4;" d="M 261.14375 361.46875 L 260.5875 362.578125 " transform="matrix(1.25,0,0,1.25,0,0)"/>
<path style="fill:none;stroke-width:1.5;stroke-linecap:square;stroke-linejoin:round;stroke:rgb(0%,0%,0%);stroke-opacity:1;stroke-miterlimit:4;" d="M 261.14375 362.578125 L 263.934375 363.13125 " transform="matrix(1.25,0,0,1.25,0,0)"/>
<path style="fill:none;stroke-width:1.5;stroke-linecap:square;stroke-linejoin:round;stroke:rgb(0%,0%,0%);stroke-opacity:1;stroke-miterlimit:4;" d="M 239.940625 370.89375 L 255.00625 365.903125 " transform="matrix(1.25,0,0,1.25,0,0)"/>
<path style="fill:none;stroke-width:1.5;stroke-linecap:square;stroke-linejoin:round;stroke:rgb(0%,0%,0%);stroke-opacity:1;stroke-miterlimit:4;" d="M 83.140625 257.796875 L 82.525 265.88125 L 79.953125 284.309375 L 79.0375 297.925 L 78.915625 317.309375 L 79.95 341.0375 L 81.5375 359.81875 L 83.85 375.76875 L 86.125 386.309375 L 92.628125 410.809375 " transform="matrix(1.25,0,0,1.25,0,0)"/>
<path style="fill:none;stroke-width:1.5;stroke-linecap:square;stroke-linejoin:round;stroke:rgb(0%,0%,0%);stroke-opacity:1;stroke-miterlimit:4;" d="M 244.403125 374.775 L 242.171875 375.884375 L 241.6125 375.328125 L 242.73125 373.1125 L 246.9125 375.640625 L 257.2375 379.353125 L 295.665625 398.571875 L 300.815625 401.915625 L 305.03125 405.434375 L 308.496875 409.265625 L 311.3625 413.58125 " transform="matrix(1.25,0,0,1.25,0,0)"/>
<path style="fill:none;stroke-width:1.5;stroke-linecap:square;stroke-linejoin:round;stroke:rgb(0%,0%,0%);stroke-opacity:1;stroke-miterlimit:4;" d="M 207.575 467.359375 L 205.43125 470.0125 L 203.334375 473.496875 L 200.365625 480.953125 L 199.7 484.3375 L 199.584375 487.221875 L 200.015625 489.865625 L 201 492.034375 L 202.490625 493.7 L 204.425 494.875 L 206.953125 495.61875 L 209.41875 495.70625 L 213.94375 494.503125 L 222.640625 490.090625 " transform="matrix(1.25,0,0,1.25,0,0)"/>
<path style="fill:none;stroke-width:1.5;stroke-linecap:square;stroke-linejoin:round;stroke:rgb(0%,0%,0%);stroke-opacity:1;stroke-miterlimit:4;" d="M 42.409375 83.159375 L 39.43125 87.975 L 37.071875 93.8125 L 32.23125 111.2875 L 29.859375 121.228125 L 27.996875 131.253125 L 26.6875 141.3 L 25.925 151.315625 L 25.66875 161.884375 " transform="matrix(1.25,0,0,1.25,0,0)"/>
<path style="fill:none;stroke-width:1.5;stroke-linecap:square;stroke-linejoin:round;stroke:rgb(0%,0%,0%);stroke-opacity:1;stroke-miterlimit:4;" d="M 119.96875 383.090625 L 95.41875 411.91875 " transform="matrix(1.25,0,0,1.25,0,0)"/>
<path style="fill:none;stroke-width:1.5;stroke-linecap:square;stroke-linejoin:round;stroke:rgb(0%,0%,0%);stroke-opacity:1;stroke-miterlimit:4;" d="M 215.3875 377.546875 L 233.24375 378.1 " transform="matrix(1.25,0,0,1.25,0,0)"/>
<path style="fill:none;stroke-width:1.5;stroke-linecap:square;stroke-linejoin:round;stroke:rgb(0%,0%,0%);stroke-opacity:1;stroke-miterlimit:4;" d="M 180.790625 243.38125 L 183.771875 248.778125 L 186.46875 254.871875 L 188.8625 261.653125 L 191.009375 269.303125 L 193.53125 280.834375 L 198.63125 308.696875 L 208.15625 352.4125 L 210.35625 366.759375 L 211.3875 379.684375 L 211.278125 391.34375 L 210 402.028125 L 208.7 407.8625 L 207.065625 413.115625 L 205.06875 417.946875 L 202.73125 422.315625 L 200.05625 426.221875 L 196.771875 430.084375 L 188.371875 437.7375 L 178.521875 444.634375 L 169.428125 449.2375 L 153.8125 454.059375 L 147.671875 455.25625 L 142.290625 455.715625 " transform="matrix(1.25,0,0,1.25,0,0)"/>
<path style="fill:none;stroke-width:1.5;stroke-linecap:square;stroke-linejoin:round;stroke:rgb(0%,0%,0%);stroke-opacity:1;stroke-miterlimit:4;" d="M 161.81875 193.484375 L 164.559375 195.29375 L 168.0375 196.840625 L 176.678125 198.89375 L 200.5625 201.425 L 219.728125 202.203125 L 238.6625 201.61875 L 258.975 199.571875 L 269.284375 197.4125 L 273.59375 195.86875 L 277.325 194.040625 " transform="matrix(1.25,0,0,1.25,0,0)"/>
<path style="fill:none;stroke-width:1.5;stroke-linecap:square;stroke-linejoin:round;stroke:rgb(0%,0%,0%);stroke-opacity:1;stroke-miterlimit:4;" d="M 83.140625 297.7125 L 36.828125 342.065625 " transform="matrix(1.25,0,0,1.25,0,0)"/>
<path style="fill:none;stroke-width:1.5;stroke-linecap:square;stroke-linejoin:round;stroke:rgb(0%,0%,0%);stroke-opacity:1;stroke-miterlimit:4;" d="M 44.08125 298.821875 L 23.4375 312.128125 " transform="matrix(1.25,0,0,1.25,0,0)"/>
<path style="fill:none;stroke-width:1.5;stroke-linecap:square;stroke-linejoin:round;stroke:rgb(0%,0%,0%);stroke-opacity:1;stroke-miterlimit:4;" d="M 27.340625 140.81875 L 29.14375 138.259375 L 31.759375 136.4 L 35.253125 135.2 L 39.61875 134.71875 " transform="matrix(1.25,0,0,1.25,0,0)"/>
<path style="fill:none;stroke-width:1.5;stroke-linecap:square;stroke-linejoin:round;stroke:rgb(0%,0%,0%);stroke-opacity:1;stroke-miterlimit:4;" d="M 215.946875 214.553125 L 214.225 224.403125 L 213.3875 235.8125 L 213.403125 248.775 L 214.271875 263.89375 " transform="matrix(1.25,0,0,1.25,0,0)"/>
<path style="fill:none;stroke-width:1.5;stroke-linecap:square;stroke-linejoin:round;stroke:rgb(0%,0%,0%);stroke-opacity:1;stroke-miterlimit:4;" d="M 199.20625 429.10625 L 198.89375 433.515625 L 199.128125 437.796875 L 199.89375 442.0125 L 201.278125 446.653125 L 212.3625 475.009375 L 215.490625 480.95 L 219.08125 485.85625 L 222.184375 488.753125 L 225.421875 490.06875 L 229.06875 489.9625 L 232.65625 488.346875 L 235.659375 485.45625 L 237.675 481.69375 L 238.209375 478.078125 L 237.709375 472.903125 " transform="matrix(1.25,0,0,1.25,0,0)"/>
<path style="fill:none;stroke-width:1.5;stroke-linecap:square;stroke-linejoin:round;stroke:rgb(0%,0%,0%);stroke-opacity:1;stroke-miterlimit:4;" d="M 167.4 517.25625 L 182.39375 511.25 L 193.28125 507.634375 L 203.23125 505.35625 L 212.040625 504.503125 " transform="matrix(1.25,0,0,1.25,0,0)"/>
<path style="fill:none;stroke-width:1.5;stroke-linecap:square;stroke-linejoin:round;stroke:rgb(0%,0%,0%);stroke-opacity:1;stroke-miterlimit:4;" d="M 159.5875 384.753125 L 139.5 406.928125 " transform="matrix(1.25,0,0,1.25,0,0)"/>
<path style="fill:none;stroke-width:1.5;stroke-linecap:square;stroke-linejoin:round;stroke:rgb(0%,0%,0%);stroke-opacity:1;stroke-miterlimit:4;" d="M 244.9625 474.0125 L 242.175 471.3875 L 240.61875 468.36875 L 240.846875 466.103125 L 241.65 465.19375 L 242.81875 464.56875 L 246.790625 463.990625 L 250.71875 464.571875 L 254.2125 466.190625 L 257.796875 469.021875 " transform="matrix(1.25,0,0,1.25,0,0)"/>
<path style="fill:none;stroke-width:1.5;stroke-linecap:square;stroke-linejoin:round;stroke:rgb(0%,0%,0%);stroke-opacity:1;stroke-miterlimit:4;" d="M 85.93125 386.415625 L 70.309375 403.05 " transform="matrix(1.25,0,0,1.25,0,0)"/>
<path style="fill:none;stroke-width:1.5;stroke-linecap:square;stroke-linejoin:round;stroke:rgb(0%,0%,0%);stroke-opacity:1;stroke-miterlimit:4;" d="M 251.1 447.4 L 244.2125 443.746875 L 241.778125 441.778125 L 240.05 439.7375 L 238.940625 437.521875 L 238.509375 435.134375 L 238.7375 432.7375 L 239.64375 430.046875 L 242.578125 425.1875 L 251.075 414.51875 L 256.584375 403.615625 L 259.590625 399.490625 L 262.2375 397.346875 L 265.134375 396.00625 L 269.084375 395.15625 L 274.5375 394.73125 " transform="matrix(1.25,0,0,1.25,0,0)"/>
<path style="fill:none;stroke-width:1.5;stroke-linecap:square;stroke-linejoin:round;stroke:rgb(0%,0%,0%);stroke-opacity:1;stroke-miterlimit:4;" d="M 238.825 475.121875 L 238.9 486.821875 L 240.015625 494.15 L 241.19375 497.6375 L 242.684375 500.615625 L 248.76875 507.05 L 250.590625 509.771875 L 251.015625 511.275 L 250.965625 512.65 L 250.396875 514.09375 L 249.490625 515.159375 L 247.36875 516.396875 L 244.496875 517.184375 L 232.821875 518.4125 L 219.703125 518.2125 L 216.73125 517.634375 L 214.490625 516.525 L 212.9875 514.59375 L 212.834375 511.971875 L 213.64375 510.05 L 216.43125 506.35625 L 217.459375 504.253125 L 219.853125 492.30625 " transform="matrix(1.25,0,0,1.25,0,0)"/>
<path style="fill:none;stroke-width:1.5;stroke-linecap:square;stroke-linejoin:round;stroke:rgb(0%,0%,0%);stroke-opacity:1;stroke-miterlimit:4;" d="M 226.546875 304.365625 L 247.19375 301.59375 " transform="matrix(1.25,0,0,1.25,0,0)"/>
<path style="fill:none;stroke-width:1.5;stroke-linecap:square;stroke-linejoin:round;stroke:rgb(0%,0%,0%);stroke-opacity:1;stroke-miterlimit:4;" d="M 43.525 421.34375 L 30.13125 426.334375 " transform="matrix(1.25,0,0,1.25,0,0)"/>
<path style="fill:none;stroke-width:1.5;stroke-linecap:square;stroke-linejoin:round;stroke:rgb(0%,0%,0%);stroke-opacity:1;stroke-miterlimit:4;" d="M 49.103125 401.384375 L 52.065625 397.384375 L 55.221875 393.89375 L 58.553125 390.934375 L 61.9375 388.634375 " transform="matrix(1.25,0,0,1.25,0,0)"/>
<path style="fill:none;stroke-width:1.5;stroke-linecap:square;stroke-linejoin:round;stroke:rgb(0%,0%,0%);stroke-opacity:1;stroke-miterlimit:4;" d="M 275.653125 302.703125 L 285.203125 304.421875 L 293.603125 306.709375 L 295.028125 307.796875 L 295.571875 309.034375 L 295.321875 310.6 L 294.34375 312.084375 L 292.70625 313.4375 L 290.159375 314.84375 L 283.73125 317.790625 L 278.35625 319.728125 L 268.778125 322.10625 L 256.090625 324.05625 L 239.740625 325.9125 L 224.415625 327.040625 L 209.73125 327.48125 L 195.50625 327.21875 L 183.9875 326.446875 L 163.290625 324.29375 L 155.71875 322.365625 L 149.54375 319.334375 " transform="matrix(1.25,0,0,1.25,0,0)"/>
<path style="fill:none;stroke-width:1.5;stroke-linecap:square;stroke-linejoin:round;stroke:rgb(0%,0%,0%);stroke-opacity:1;stroke-miterlimit:4;" d="M 51.3375 391.959375 L 48.546875 394.178125 " transform="matrix(1.25,0,0,1.25,0,0)"/>
<path style="fill:none;stroke-width:1.5;stroke-linecap:square;stroke-linejoin:round;stroke:rgb(0%,0%,0%);stroke-opacity:1;stroke-miterlimit:4;" d="M 58.590625 134.165625 L 61.9375 134.165625 " transform="matrix(1.25,0,0,1.25,0,0)"/>
<path style="fill:none;stroke-width:1.5;stroke-linecap:square;stroke-linejoin:round;stroke:rgb(0%,0%,0%);stroke-opacity:1;stroke-miterlimit:4;" d="M 80.909375 384.2 L 69.190625 395.840625 " transform="matrix(1.25,0,0,1.25,0,0)"/>
<path style="fill:none;stroke-width:1.5;stroke-linecap:square;stroke-linejoin:round;stroke:rgb(0%,0%,0%);stroke-opacity:1;stroke-miterlimit:4;" d="M 140.615625 382.5375 L 123.31875 402.49375 " transform="matrix(1.25,0,0,1.25,0,0)"/>
<path style="fill:none;stroke-width:1.5;stroke-linecap:square;stroke-linejoin:round;stroke:rgb(0%,0%,0%);stroke-opacity:1;stroke-miterlimit:4;" d="M 227.6625 269.4375 L 227.6625 285.515625 " transform="matrix(1.25,0,0,1.25,0,0)"/>
<path style="fill:none;stroke-width:1.5;stroke-linecap:square;stroke-linejoin:round;stroke:rgb(0%,0%,0%);stroke-opacity:1;stroke-miterlimit:4;" d="M 68.075 298.821875 L 55.015625 308.209375 L 43.5 317.65 L 33.35625 327.259375 L 24.553125 337.075 " transform="matrix(1.25,0,0,1.25,0,0)"/>
<path style="fill:none;stroke-width:1.5;stroke-linecap:square;stroke-linejoin:round;stroke:rgb(0%,0%,0%);stroke-opacity:1;stroke-miterlimit:4;" d="M 174.653125 199.028125 L 170.9375 206.175 L 167.9625 215.365625 L 166.003125 224.540625 L 161.640625 249.934375 L 159.6 264.43125 L 158.39375 277.46875 L 157.98125 289.64375 L 158.36875 300.9125 L 159.70625 312.540625 L 161.975 323.41875 L 164.525 331.8625 L 170.65 348.484375 L 174.075 355.73125 L 177.86875 361.64375 L 182.121875 366.290625 L 186.93125 369.784375 " transform="matrix(1.25,0,0,1.25,0,0)"/>
<path style="fill:none;stroke-width:1.5;stroke-linecap:square;stroke-linejoin:round;stroke:rgb(0%,0%,0%);stroke-opacity:1;stroke-miterlimit:4;" d="M 27.9 341.509375 L 43.140625 326.3125 L 63.38125 308.4875 L 71.996875 301.7625 L 79.2375 297.7125 " transform="matrix(1.25,0,0,1.25,0,0)"/>
<path style="fill:none;stroke-width:1.5;stroke-linecap:square;stroke-linejoin:round;stroke:rgb(0%,0%,0%);stroke-opacity:1;stroke-miterlimit:4;" d="M 247.19375 501.73125 L 268.903125 503.73125 L 286.3375 505.884375 L 293.859375 507.5875 L 299.3875 510.090625 L 302.065625 512.30625 L 303.9375 514.975 L 304.7125 517.5875 L 304.44375 520.4 L 303.178125 523.075 L 300.865625 525.834375 L 297.55625 528.590625 L 293.2875 531.30625 L 283.909375 535.7 L 275.63125 538.04375 L 252.14375 541.328125 L 235.025 542.978125 L 217.80625 543.49375 L 192.940625 542.428125 L 186.63125 541.31875 L 184.153125 540.315625 L 181.909375 538.878125 " transform="matrix(1.25,0,0,1.25,0,0)"/>
<path style="fill:none;stroke-width:1.5;stroke-linecap:square;stroke-linejoin:round;stroke:rgb(0%,0%,0%);stroke-opacity:1;stroke-miterlimit:4;" d="M 204.7875 383.64375 L 204.7875 384.2 " transform="matrix(1.25,0,0,1.25,0,0)"/>
<path style="fill:none;stroke-width:1.5;stroke-linecap:square;stroke-linejoin:round;stroke:rgb(0%,0%,0%);stroke-opacity:1;stroke-miterlimit:4;" d="M 246.078125 501.73125 L 261.93125 502.30625 L 275.721875 504.1 L 282.39375 505.571875 L 288.528125 507.365625 L 294.50625 509.60625 L 298.1875 511.534375 L 300.625 513.50625 L 302.065625 515.6 L 302.578125 517.875 L 302.1375 520.290625 L 300.684375 522.921875 L 298.346875 525.5375 L 295.04375 528.234375 L 291.096875 530.721875 L 284.075 533.70625 L 274.55625 535.95 L 245.71875 539.775 L 231.703125 541.059375 L 222.8125 541.271875 L 214.63125 540.85 L 183.025 536.659375 " transform="matrix(1.25,0,0,1.25,0,0)"/>
<path style="fill:none;stroke-width:1.5;stroke-linecap:square;stroke-linejoin:round;stroke:rgb(0%,0%,0%);stroke-opacity:1;stroke-miterlimit:4;" d="M 46.3125 385.309375 L 50.728125 383.828125 L 55.98125 382.96875 L 73.646875 382.671875 L 79.79375 382.11875 L 86.66875 380.578125 L 105.79375 374.940625 L 113.028125 373.81875 L 121.725 373.11875 L 132.471875 372.93125 L 144.49375 373.39375 L 178.196875 376.68125 L 203.728125 376.2875 L 205.821875 376.64375 L 207.0875 377.44375 L 207.6125 378.5 L 207.628125 380.34375 L 206.10625 383.56875 L 203.940625 385.86875 L 197.60625 390.903125 L 193.775 394.653125 L 192.68125 395.00625 L 191.534375 394.83125 L 186.30625 391.3375 L 184.125 390.684375 L 181.9625 390.615625 L 179.66875 391.165625 L 177.321875 392.43125 L 175.15625 394.35 L 173.096875 396.940625 L 170.940625 401.703125 L 170.2125 407.36875 L 170.74375 413.546875 L 172.90625 424.68125 L 173.015625 428.709375 L 171.80625 432.3 L 169.165625 434.678125 L 165.084375 436.378125 L 159.09375 437.734375 L 153.5875 438.440625 L 150.728125 437.771875 L 149.146875 436.121875 L 148.175 433.253125 L 147.74375 422.39375 L 147.3375 419.4625 L 146.165625 416.74375 L 144.365625 414.15625 L 140.9125 411.215625 L 136.625 409.31875 L 131.48125 408.4125 L 125.509375 408.5375 L 111.859375 410.83125 L 100.68125 413.75 L 91.390625 417.428125 L 88.415625 419.25625 L 86.309375 421.184375 L 85.084375 422.975 L 84.4 425.021875 L 84.359375 427.046875 L 84.975 429.04375 L 87.825 433.303125 L 95.975 442.4125 " transform="matrix(1.25,0,0,1.25,0,0)"/>
<path style="fill:none;stroke-width:1.5;stroke-linecap:square;stroke-linejoin:round;stroke:rgb(0%,0%,0%);stroke-opacity:1;stroke-miterlimit:4;" d="M 193.06875 395.840625 L 193.6875 410.1125 L 188.046875 414.690625 L 191.39375 418.571875 L 193.459375 416.465625 L 194.49375 414.659375 L 194.759375 412.84375 L 194.184375 410.809375 " transform="matrix(1.25,0,0,1.25,0,0)"/>
<path style="fill:none;stroke-width:1.5;stroke-linecap:square;stroke-linejoin:round;stroke:rgb(0%,0%,0%);stroke-opacity:1;stroke-miterlimit:4;" d="M 190.278125 413.58125 L 191.953125 414.1375 " transform="matrix(1.25,0,0,1.25,0,0)"/>
<path style="fill:none;stroke-width:1.5;stroke-linecap:square;stroke-linejoin:round;stroke:rgb(0%,0%,0%);stroke-opacity:1;stroke-miterlimit:4;" d="M 188.046875 415.246875 L 187.1 417.196875 L 187.25625 418.6 L 188.540625 419.2375 L 190.8375 419.125 " transform="matrix(1.25,0,0,1.25,0,0)"/>
<path style="fill:none;stroke-width:1.5;stroke-linecap:square;stroke-linejoin:round;stroke:rgb(0%,0%,0%);stroke-opacity:1;stroke-miterlimit:4;" d="M 190.8375 415.246875 L 191.39375 415.8 " transform="matrix(1.25,0,0,1.25,0,0)"/>
<path style="fill:none;stroke-width:1.5;stroke-linecap:square;stroke-linejoin:round;stroke:rgb(0%,0%,0%);stroke-opacity:1;stroke-miterlimit:4;" d="M 192.509375 415.246875 L 193.625 416.353125 " transform="matrix(1.25,0,0,1.25,0,0)"/>
<path style="fill:none;stroke-width:1.5;stroke-linecap:square;stroke-linejoin:round;stroke:rgb(0%,0%,0%);stroke-opacity:1;stroke-miterlimit:4;" d="M 186.371875 419.125 L 183.025 421.896875 " transform="matrix(1.25,0,0,1.25,0,0)"/>
<path style="fill:none;stroke-width:1.5;stroke-linecap:square;stroke-linejoin:round;stroke:rgb(0%,0%,0%);stroke-opacity:1;stroke-miterlimit:4;" d="M 44.640625 82.05 L 121.0875 85.378125 " transform="matrix(1.25,0,0,1.25,0,0)"/>
<path style="fill:none;stroke-width:1.5;stroke-linecap:square;stroke-linejoin:round;stroke:rgb(0%,0%,0%);stroke-opacity:1;stroke-miterlimit:4;" d="M 279 194.040625 L 281.825 201.759375 L 284.225 211.415625 L 292.090625 249.99375 L 295.58125 272.5375 L 296.85 287.446875 L 297.05 300.98125 L 296.2 313.375 L 294.275 324.79375 L 291.203125 335.259375 L 286.95625 344.625 L 281.646875 352.640625 L 275.1 359.559375 L 267.446875 365.184375 L 258.559375 369.590625 L 248.809375 372.6 L 238.265625 374.21875 " transform="matrix(1.25,0,0,1.25,0,0)"/>
<path style="fill:none;stroke-width:1.5;stroke-linecap:square;stroke-linejoin:round;stroke:rgb(0%,0%,0%);stroke-opacity:1;stroke-miterlimit:4;" d="M 287.36875 317.115625 L 286.546875 323.421875 L 285.0875 329.840625 L 283.0125 336.240625 L 280.35 342.496875 L 277.228125 348.290625 L 273.721875 353.534375 L 269.75625 358.325 L 265.509375 362.41875 L 261.38125 365.55625 L 257.31875 367.934375 L 252.41875 370.00625 L 247.103125 371.590625 L 240.85 372.80625 L 234.50625 373.45625 L 228.090625 373.5625 L 222.084375 373.1125 " transform="matrix(1.25,0,0,1.25,0,0)"/>
<path style="fill:none;stroke-width:1.5;stroke-linecap:square;stroke-linejoin:round;stroke:rgb(0%,0%,0%);stroke-opacity:1;stroke-miterlimit:4;" d="M 215.946875 476.784375 L 218.315625 475.403125 L 220.690625 474.646875 L 223.01875 474.609375 L 225.109375 475.2875 L 227.09375 476.70625 L 228.80625 478.728125 L 230.340625 481.425 L 231.56875 484.546875 " transform="matrix(1.25,0,0,1.25,0,0)"/>
<path style="fill:none;stroke-width:1.5;stroke-linecap:square;stroke-linejoin:round;stroke:rgb(0%,0%,0%);stroke-opacity:1;stroke-miterlimit:4;" d="M 152.334375 380.871875 L 132.246875 403.05 " transform="matrix(1.25,0,0,1.25,0,0)"/>
<path style="fill:none;stroke-width:1.5;stroke-linecap:square;stroke-linejoin:round;stroke:rgb(0%,0%,0%);stroke-opacity:1;stroke-miterlimit:4;" d="M 36.26875 201.803125 L 64.109375 205.5375 L 80.053125 206.9 L 95.159375 206.83125 L 108.809375 205.128125 " transform="matrix(1.25,0,0,1.25,0,0)"/>
<path style="fill:none;stroke-width:1.5;stroke-linecap:square;stroke-linejoin:round;stroke:rgb(0%,0%,0%);stroke-opacity:1;stroke-miterlimit:4;" d="M 241.05625 480.665625 L 253.88125 482.490625 L 266.790625 482.740625 L 279.609375 481.3875 L 291.959375 478.484375 L 298.403125 476.284375 L 304.703125 473.63125 L 328.765625 461.134375 L 339.534375 456.5625 L 351.090625 453.340625 L 378.484375 447.840625 L 385.021875 446 L 391.04375 443.80625 L 397.440625 440.778125 L 403.6 437.078125 L 407.8125 433.965625 L 412.303125 429.271875 L 414.59375 427.996875 " transform="matrix(1.25,0,0,1.25,0,0)"/>
<path style="fill:none;stroke-width:1.5;stroke-linecap:square;stroke-linejoin:round;stroke:rgb(0%,0%,0%);stroke-opacity:1;stroke-miterlimit:4;" d="M 173.5375 381.98125 L 162.521875 404.7125 L 148.9875 437.975 " transform="matrix(1.25,0,0,1.25,0,0)"/>
<path style="fill:none;stroke-width:1.5;stroke-linecap:square;stroke-linejoin:round;stroke:rgb(0%,0%,0%);stroke-opacity:1;stroke-miterlimit:4;" d="M 79.2375 259.459375 L 77.45625 265.140625 L 76.115625 271.753125 L 75.26875 279.025 L 74.834375 287.51875 L 75.0375 316.325 L 75.825 328.859375 L 77.125 341.378125 L 80.6875 363.64375 L 85.784375 385.565625 L 90.29375 400.559375 L 99.88125 425.778125 " transform="matrix(1.25,0,0,1.25,0,0)"/>
<path style="fill:none;stroke-width:1.5;stroke-linecap:square;stroke-linejoin:round;stroke:rgb(0%,0%,0%);stroke-opacity:1;stroke-miterlimit:4;" d="M 64.728125 295.49375 L 54.5125 301.778125 L 44.034375 309.940625 L 33.625 319.696875 L 23.99375 330.421875 " transform="matrix(1.25,0,0,1.25,0,0)"/>
<path style="fill:none;stroke-width:1.5;stroke-linecap:square;stroke-linejoin:round;stroke:rgb(0%,0%,0%);stroke-opacity:1;stroke-miterlimit:4;" d="M 239.38125 489.534375 L 240.325 494.990625 L 242.8 500.246875 L 246.434375 504.78125 L 252.175 509.58125 L 253.621875 511.94375 L 253.54375 513.90625 L 252.225 515.896875 L 249.95 517.4 L 246.8875 518.4625 L 242.596875 519.209375 L 237.58125 519.50625 L 217.796875 518.884375 L 213.909375 518.378125 L 211.11875 517.078125 L 209.534375 514.890625 L 209.528125 512.49375 L 210.66875 510.121875 L 214.409375 505.3125 L 215.490625 503.36875 L 216.465625 500.028125 L 217.0625 495.078125 " transform="matrix(1.25,0,0,1.25,0,0)"/>
<path style="fill:none;stroke-width:1.5;stroke-linecap:square;stroke-linejoin:round;stroke:rgb(0%,0%,0%);stroke-opacity:1;stroke-miterlimit:4;" d="M 164.053125 451.28125 L 161.96875 455.64375 L 155.478125 466.846875 L 154.153125 470.165625 L 153.36875 473.634375 L 153.0125 480.13125 L 153.975 494.26875 L 153.934375 503.6875 L 154.315625 506.859375 L 155.125 509.49375 " transform="matrix(1.25,0,0,1.25,0,0)"/>
<path style="fill:none;stroke-width:1.5;stroke-linecap:square;stroke-linejoin:round;stroke:rgb(0%,0%,0%);stroke-opacity:1;stroke-miterlimit:4;" d="M 163.49375 391.40625 L 162.228125 390.03125 L 160.471875 389.26875 L 157.9875 388.975 L 154.99375 389.190625 L 148.625 390.65 L 133.590625 395.615625 L 128.840625 396.51875 L 125.475 396.615625 L 122.44375 395.596875 L 121.325 394.453125 L 120.796875 393.1875 L 121.25625 390.55 L 123.55625 387.5125 L 129.075 383.334375 L 136.615625 379.884375 L 145.009375 377.64375 L 153.853125 376.725 L 161.775 377.24375 L 164.55 378.00625 L 166.96875 379.1125 L 169.0875 380.628125 L 170.51875 382.384375 L 171.18125 384.29375 L 171.03125 386.48125 L 169.128125 389.5875 L 165.384375 392.8625 L 159.6375 396.41875 L 153.525 399.25 L 144.7 402.21875 L 135.25625 404.415625 L 126.665625 405.684375 L 116.465625 406.190625 L 111.90625 406.978125 L 108.909375 408.065625 L 105.575 409.84375 L 99.321875 414.584375 L 95.871875 418.509375 L 93.603125 422.565625 L 92.5875 426.5625 L 92.803125 430.565625 L 94.153125 433.6875 L 99.4 440.73125 L 102.471875 444.184375 L 106.578125 447.95625 " transform="matrix(1.25,0,0,1.25,0,0)"/>
<path style="fill:none;stroke-width:1.5;stroke-linecap:square;stroke-linejoin:round;stroke:rgb(0%,0%,0%);stroke-opacity:1;stroke-miterlimit:4;" d="M 23.99375 303.8125 L 42.909375 299.584375 L 57.209375 297.125 L 70.09375 295.8875 L 81.98125 295.85625 L 88.846875 296.41875 L 96.059375 297.4875 L 101.540625 298.646875 L 106.109375 300.078125 L 109.6375 301.75 L 112.15625 303.64375 L 113.740625 305.809375 L 114.359375 308.196875 L 114.084375 310.8625 L 112.990625 313.5125 L 110.98125 316.428125 L 108.0625 319.478125 L 104.41875 322.46875 L 100.4625 325.11875 L 91.015625 329.76875 L 76.775 335.2625 L 61.19375 339.91875 L 44.259375 343.73125 L 26.784375 346.5 " transform="matrix(1.25,0,0,1.25,0,0)"/>
<path style="fill:none;stroke-width:1.5;stroke-linecap:square;stroke-linejoin:round;stroke:rgb(0%,0%,0%);stroke-opacity:1;stroke-miterlimit:4;" d="M 224.875 267.775 L 223.759375 287.178125 " transform="matrix(1.25,0,0,1.25,0,0)"/>
<path style="fill:none;stroke-width:1.5;stroke-linecap:square;stroke-linejoin:round;stroke:rgb(0%,0%,0%);stroke-opacity:1;stroke-miterlimit:4;" d="M 214.83125 375.328125 L 221.478125 382.084375 L 223.83125 386.08125 L 224.975 389.5875 L 225.821875 393.84375 L 226.546875 404.15625 " transform="matrix(1.25,0,0,1.25,0,0)"/>
</g>
</svg>
