<?xml version="1.0" encoding="UTF-8"?>
<svg xmlns="http://www.w3.org/2000/svg" xmlns:xlink="http://www.w3.org/1999/xlink" width="519pt" height="729pt" viewBox="0 0 519 729" version="1.1">
<g id="surface1">
<path style="fill:none;stroke-width:1.5;stroke-linecap:square;stroke-linejoin:round;stroke:rgb(0%,0%,0%);stroke-opacity:1;stroke-miterlimit:4;" d="M 236.034375 258.90625 L 236.590625 258.90625 " transform="matrix(1.25,0,0,1.25,0,0)"/>
<path style="fill:none;stroke-width:1.5;stroke-linecap:square;stroke-linejoin:round;stroke:rgb(0%,0%,0%);stroke-opacity:1;stroke-miterlimit:4;" d="M 136.153125 306.028125 L 236.590625 310.996875 L 268.95625 309.909375 " transform="matrix(1.25,0,0,1.25,0,0)"/>
<path style="fill:none;stroke-width:1.5;stroke-linecap:square;stroke-linejoin:round;stroke:rgb(0%,0%,0%);stroke-opacity:1;stroke-miterlimit:4;" d="M 205.903125 381.428125 L 209.25 380.871875 " transform="matrix(1.25,0,0,1.25,0,0)"/>
<path style="fill:none;stroke-width:1.5;stroke-linecap:square;stroke-linejoin:round;stroke:rgb(0%,0%,0%);stroke-opacity:1;stroke-miterlimit:4;" d="M 136.153125 332.084375 L 178.559375 330.996875 L 268.396875 334.85625 " transform="matrix(1.25,0,0,1.25,0,0)"/>
<path style="fill:none;stroke-width:1.5;stroke-linecap:square;stroke-linejoin:round;stroke:rgb(0%,0%,0%);stroke-opacity:1;stroke-miterlimit:4;" d="M 174.096875 231.740625 L 174.096875 240.05625 " transform="matrix(1.25,0,0,1.25,0,0)"/>
<path style="fill:none;stroke-width:1.5;stroke-linecap:square;stroke-linejoin:round;stroke:rgb(0%,0%,0%);stroke-opacity:1;stroke-miterlimit:4;" d="M 151.21875 242.828125 L 172.98125 242.271875 " transform="matrix(1.25,0,0,1.25,0,0)"/>
<path style="fill:none;stroke-width:1.5;stroke-linecap:square;stroke-linejoin:round;stroke:rgb(0%,0%,0%);stroke-opacity:1;stroke-miterlimit:4;" d="M 160.7125 309.765625 L 163.465625 309.240625 L 166.140625 309.7875 L 168.65 311.428125 L 170.49375 313.815625 L 171.48125 316.6 L 171.41875 319.43125 L 170.309375 321.734375 L 168.21875 323.45625 L 165.39375 324.365625 L 162.65625 324.053125 L 160.215625 322.6 L 158.21875 320.071875 L 157.109375 316.88125 L 157.178125 313.815625 L 158.44375 311.31875 L 160.7125 309.765625 " transform="matrix(1.25,0,0,1.25,0,0)"/>
<path style="fill:none;stroke-width:1.5;stroke-linecap:square;stroke-linejoin:round;stroke:rgb(0%,0%,0%);stroke-opacity:1;stroke-miterlimit:4;" d="M 222.1875 320.03125 L 223.665625 320.034375 L 224.765625 321.125 L 224.996875 322.628125 L 224.175 323.71875 L 222.6125 323.8625 L 221.403125 322.7375 L 221.18125 321.134375 L 222.1875 320.03125 " transform="matrix(1.25,0,0,1.25,0,0)"/>
<path style="fill:none;stroke-width:1.5;stroke-linecap:square;stroke-linejoin:round;stroke:rgb(0%,0%,0%);stroke-opacity:1;stroke-miterlimit:4;" d="M 221.525 320.44375 L 224.875 323.76875 " transform="matrix(1.25,0,0,1.25,0,0)"/>
<path style="fill:none;stroke-width:1.5;stroke-linecap:square;stroke-linejoin:round;stroke:rgb(0%,0%,0%);stroke-opacity:1;stroke-miterlimit:4;" d="M 275.653125 242.828125 L 274.63125 238.55625 L 274.23125 234.209375 L 274.428125 229.85625 L 275.234375 225.359375 L 276.63125 221 L 278.58125 216.859375 L 281.05 213.00625 L 284.0125 209.521875 L 287.2625 206.609375 L 290.50625 204.4375 L 293.959375 202.828125 L 297.759375 201.721875 L 301.85625 201.190625 L 305.978125 201.28125 L 310.040625 201.975 L 314.14375 203.31875 L 317.825 205.171875 L 321.190625 207.5625 L 324.159375 210.4625 L 326.5375 213.68125 L 328.290625 217.078125 L 329.60625 221.015625 L 330.521875 225.534375 L 331.08125 230.78125 L 331.184375 235.365625 L 330.8 239.628125 L 329.9 243.721875 L 328.553125 247.490625 L 326.65625 251.146875 L 324.3 254.51875 L 321.375 257.728125 L 318.059375 260.56875 " transform="matrix(1.25,0,0,1.25,0,0)"/>
<path style="fill:none;stroke-width:1.5;stroke-linecap:square;stroke-linejoin:round;stroke:rgb(0%,0%,0%);stroke-opacity:1;stroke-miterlimit:4;" d="M 174.809375 312.14375 L 177.3125 311.0875 L 179.684375 311.1 L 181.79375 312.14375 L 183.546875 314.215625 L 184.6125 317.15625 L 184.640625 320.1125 L 183.65 322.63125 L 181.834375 324.309375 L 179.584375 325.0875 L 177.384375 324.859375 L 175.375 323.65625 L 173.734375 321.60625 L 172.646875 318.7875 L 172.496875 316.01875 L 173.278125 313.690625 L 174.809375 312.14375 " transform="matrix(1.25,0,0,1.25,0,0)"/>
<path style="fill:none;stroke-width:1.5;stroke-linecap:square;stroke-linejoin:round;stroke:rgb(0%,0%,0%);stroke-opacity:1;stroke-miterlimit:4;" d="M 146.203125 310.321875 L 149.046875 309.796875 L 151.546875 310.49375 L 153.596875 312.3875 L 154.75625 315.03125 L 154.875 318.121875 L 153.890625 320.778125 L 152.0375 322.7125 L 149.284375 323.915625 L 146.975 323.975 L 144.821875 323.03125 L 143.153125 321.165625 L 142.19375 318.73125 L 142.025 316.06875 L 142.721875 313.509375 L 144.140625 311.59375 L 146.203125 310.321875 " transform="matrix(1.25,0,0,1.25,0,0)"/>
<path style="fill:none;stroke-width:1.5;stroke-linecap:square;stroke-linejoin:round;stroke:rgb(0%,0%,0%);stroke-opacity:1;stroke-miterlimit:4;" d="M 271.746875 206.790625 L 270.9875 217.76875 L 270.4125 220.509375 L 269.59375 222.009375 L 267.65 222.234375 L 261.815625 219.79375 L 258.6625 219.425 L 253.184375 219.615625 L 248.284375 220.815625 L 244.4875 222.8125 L 241.521875 225.634375 L 239.4625 229.2375 L 238.33125 233.684375 L 238.2875 238.390625 L 238.753125 241.534375 L 239.834375 244.059375 L 241.546875 245.928125 L 244.1625 247.234375 L 247.765625 247.81875 L 261.28125 246.840625 L 265.321875 247.190625 L 266.6125 248.096875 L 267.25 249.778125 L 267.08125 251.94375 L 266.165625 254.46875 " transform="matrix(1.25,0,0,1.25,0,0)"/>
<path style="fill:none;stroke-width:1.5;stroke-linecap:square;stroke-linejoin:round;stroke:rgb(0%,0%,0%);stroke-opacity:1;stroke-miterlimit:4;" d="M 202.028125 317.00625 L 203.16875 316.890625 L 204.090625 317.278125 L 205.34375 319.378125 L 205.221875 322.26875 L 204.6125 323.20625 L 203.746875 323.6625 L 202.6 323.678125 L 201.596875 323.18125 L 200.16875 320.896875 L 200.04375 319.528125 L 200.353125 318.390625 L 200.996875 317.56875 L 202.028125 317.00625 " transform="matrix(1.25,0,0,1.25,0,0)"/>
<path style="fill:none;stroke-width:1.5;stroke-linecap:square;stroke-linejoin:round;stroke:rgb(0%,0%,0%);stroke-opacity:1;stroke-miterlimit:4;" d="M 201.4375 317.115625 L 202.640625 318.75 L 202.94375 319.85 L 202.53125 321.25 L 201.4375 322.659375 " transform="matrix(1.25,0,0,1.25,0,0)"/>
<path style="fill:none;stroke-width:1.5;stroke-linecap:square;stroke-linejoin:round;stroke:rgb(0%,0%,0%);stroke-opacity:1;stroke-miterlimit:4;" d="M 200.321875 322.10625 L 202.553125 320.44375 " transform="matrix(1.25,0,0,1.25,0,0)"/>
<path style="fill:none;stroke-width:1.5;stroke-linecap:square;stroke-linejoin:round;stroke:rgb(0%,0%,0%);stroke-opacity:1;stroke-miterlimit:4;" d="M 203.671875 363.378125 L 208.19375 362.934375 L 211.359375 363.45 L 212.484375 364.19375 L 213.203125 365.2125 L 213.440625 366.321875 L 213.21875 367.396875 L 212 368.71875 L 210.01875 369.228125 L 205.578125 369.221875 L 201.925 368.48125 L 200.475 367.409375 L 200.31875 366.071875 L 201.525 364.44375 L 203.671875 363.378125 " transform="matrix(1.25,0,0,1.25,0,0)"/>
<path style="fill:none;stroke-width:1.5;stroke-linecap:square;stroke-linejoin:round;stroke:rgb(0%,0%,0%);stroke-opacity:1;stroke-miterlimit:4;" d="M 225.43125 247.815625 L 228.96875 252.828125 L 233.278125 256.8 L 238.35 259.746875 L 244.028125 261.4875 L 249.759375 261.846875 L 255.50625 260.83125 L 260.71875 258.584375 L 265.609375 255.025 " transform="matrix(1.25,0,0,1.25,0,0)"/>
<path style="fill:none;stroke-width:1.5;stroke-linecap:square;stroke-linejoin:round;stroke:rgb(0%,0%,0%);stroke-opacity:1;stroke-miterlimit:4;" d="M 163.828125 315.5 L 165.371875 315.334375 L 166.553125 316.6375 L 166.721875 318.471875 L 165.73125 319.646875 L 164.5 319.65 L 163.403125 318.453125 L 163.1 316.753125 L 163.828125 315.5 " transform="matrix(1.25,0,0,1.25,0,0)"/>
<path style="fill:none;stroke-width:1.5;stroke-linecap:square;stroke-linejoin:round;stroke:rgb(0%,0%,0%);stroke-opacity:1;stroke-miterlimit:4;" d="M 275.653125 243.38125 L 278.7625 251.153125 L 281.209375 255.225 L 285.409375 259.365625 L 290.50625 262.284375 L 296.434375 263.875 L 303.0625 264.1 L 310.38125 262.971875 L 318.059375 260.56875 " transform="matrix(1.25,0,0,1.25,0,0)"/>
<path style="fill:none;stroke-width:1.5;stroke-linecap:square;stroke-linejoin:round;stroke:rgb(0%,0%,0%);stroke-opacity:1;stroke-miterlimit:4;" d="M 391.715625 129.728125 L 390.603125 234.5125 L 392.83125 356.478125 " transform="matrix(1.25,0,0,1.25,0,0)"/>
<path style="fill:none;stroke-width:1.5;stroke-linecap:square;stroke-linejoin:round;stroke:rgb(0%,0%,0%);stroke-opacity:1;stroke-miterlimit:4;" d="M 21.7625 404.7125 L 244.403125 404.15625 L 391.159375 403.05 " transform="matrix(1.25,0,0,1.25,0,0)"/>
<path style="fill:none;stroke-width:1.5;stroke-linecap:square;stroke-linejoin:round;stroke:rgb(0%,0%,0%);stroke-opacity:1;stroke-miterlimit:4;" d="M 292.95 203.465625 L 293.509375 203.465625 " transform="matrix(1.25,0,0,1.25,0,0)"/>
<path style="fill:none;stroke-width:1.5;stroke-linecap:square;stroke-linejoin:round;stroke:rgb(0%,0%,0%);stroke-opacity:1;stroke-miterlimit:4;" d="M 214.83125 323.76875 L 212.528125 322.259375 L 211.634375 321.240625 L 211.596875 319.828125 L 212.5875 318.48125 L 213.853125 317.7625 L 215.18125 317.559375 L 216.371875 317.871875 L 217.41875 318.771875 L 218.24375 320.56875 L 218.465625 322.55 L 218.00625 323.584375 L 216.915625 324.075 L 216.975 322.3 L 218.178125 320.996875 " transform="matrix(1.25,0,0,1.25,0,0)"/>
<path style="fill:none;stroke-width:1.5;stroke-linecap:square;stroke-linejoin:round;stroke:rgb(0%,0%,0%);stroke-opacity:1;stroke-miterlimit:4;" d="M 191.39375 319.8875 L 193.625 319.334375 " transform="matrix(1.25,0,0,1.25,0,0)"/>
<path style="fill:none;stroke-width:1.5;stroke-linecap:square;stroke-linejoin:round;stroke:rgb(0%,0%,0%);stroke-opacity:1;stroke-miterlimit:4;" d="M 135.0375 301.59375 L 234.359375 304.91875 L 258.9125 303.859375 L 267.984375 304.7 L 268.95625 312.68125 L 269.5125 333.75 " transform="matrix(1.25,0,0,1.25,0,0)"/>
<path style="fill:none;stroke-width:1.5;stroke-linecap:square;stroke-linejoin:round;stroke:rgb(0%,0%,0%);stroke-opacity:1;stroke-miterlimit:4;" d="M 22.878125 408.59375 L 22.31875 414.690625 " transform="matrix(1.25,0,0,1.25,0,0)"/>
<path style="fill:none;stroke-width:1.5;stroke-linecap:square;stroke-linejoin:round;stroke:rgb(0%,0%,0%);stroke-opacity:1;stroke-miterlimit:4;" d="M 224.315625 246.153125 L 222.690625 241.85625 L 221.75 237.371875 L 221.515625 232.4875 L 222.015625 227.984375 L 223.24375 223.671875 L 225.128125 219.76875 L 227.709375 216.14375 L 230.84375 212.984375 L 234.75625 210.103125 L 239.121875 207.784375 L 244.01875 205.99375 L 249.18125 204.834375 L 254.5 204.328125 L 259.85625 204.4875 L 265.14375 205.325 L 270.071875 206.790625 " transform="matrix(1.25,0,0,1.25,0,0)"/>
<path style="fill:none;stroke-width:1.5;stroke-linecap:square;stroke-linejoin:round;stroke:rgb(0%,0%,0%);stroke-opacity:1;stroke-miterlimit:4;" d="M 180.234375 247.2625 L 179.071875 242.7875 L 178.453125 238.30625 L 178.378125 233.871875 L 178.84375 229.5375 L 179.853125 225.35625 L 181.40625 221.378125 L 183.503125 217.659375 L 186.009375 214.4 L 188.859375 211.6 L 192.159375 209.14375 L 195.709375 207.15625 L 199.58125 205.596875 L 207.809375 203.91875 L 219.29375 203.465625 " transform="matrix(1.25,0,0,1.25,0,0)"/>
<path style="fill:none;stroke-width:1.5;stroke-linecap:square;stroke-linejoin:round;stroke:rgb(0%,0%,0%);stroke-opacity:1;stroke-miterlimit:4;" d="M 209.809375 381.428125 L 212.45 382.153125 L 213.60625 383.33125 L 213.509375 384.60625 L 211.834375 388.5375 L 212.159375 390.7625 L 213.54375 391.975 L 218.271875 394.240625 L 219.1125 395.278125 L 219.3 396.54375 L 218.490625 398.365625 L 216.35 399.503125 L 212.91875 399.903125 L 208.3875 399.6 L 199.8375 398.134375 L 198.396875 397.196875 L 197.80625 395.790625 L 197.925 394.484375 L 198.63125 393.534375 L 203.009375 391.31875 L 204.228125 390.121875 L 204.190625 387.815625 L 202.171875 384.559375 L 201.934375 383.55 L 202.884375 382.221875 L 205.34375 380.871875 " transform="matrix(1.25,0,0,1.25,0,0)"/>
<path style="fill:none;stroke-width:1.5;stroke-linecap:square;stroke-linejoin:round;stroke:rgb(0%,0%,0%);stroke-opacity:1;stroke-miterlimit:4;" d="M 184.696875 315.453125 L 186.325 313.81875 L 187.94375 312.96875 L 190.34375 312.615625 L 192.653125 312.81875 L 194.4875 313.5375 L 195.940625 314.7625 L 196.91875 316.43125 L 197.325 318.321875 L 197.14375 320.384375 L 196.35625 322.3125 L 195.075 323.828125 L 193.4125 324.840625 L 191.31875 325.315625 L 188.95 325.15 L 185.25625 323.215625 " transform="matrix(1.25,0,0,1.25,0,0)"/>
<path style="fill:none;stroke-width:1.5;stroke-linecap:square;stroke-linejoin:round;stroke:rgb(0%,0%,0%);stroke-opacity:1;stroke-miterlimit:4;" d="M 150.103125 230.075 L 173.5375 229.521875 " transform="matrix(1.25,0,0,1.25,0,0)"/>
<path style="fill:none;stroke-width:1.5;stroke-linecap:square;stroke-linejoin:round;stroke:rgb(0%,0%,0%);stroke-opacity:1;stroke-miterlimit:4;" d="M 220.96875 205.68125 L 221.75625 212.2 L 221.56875 214.028125 L 220.953125 215.328125 L 219.953125 216.0375 L 218.225 216.55 L 209.246875 217.753125 L 205.934375 219.259375 L 202.64375 221.53125 L 199.14375 225.025 L 196.50625 228.925 L 194.784375 233.159375 L 194.19375 237.159375 L 194.525 240.690625 L 195.68125 244.1125 L 197.565625 247.14375 L 200.228125 249.84375 L 203.840625 252.134375 L 208.009375 253.584375 L 210.48125 253.646875 L 216.24375 252.86875 L 218.2 253.121875 L 219.10625 253.734375 L 219.653125 254.690625 L 219.853125 257.796875 " transform="matrix(1.25,0,0,1.25,0,0)"/>
<path style="fill:none;stroke-width:1.5;stroke-linecap:square;stroke-linejoin:round;stroke:rgb(0%,0%,0%);stroke-opacity:1;stroke-miterlimit:4;" d="M 392.275 357.034375 L 390.859375 358.39375 L 388.534375 359.365625 L 385.15625 359.971875 L 380.85625 360.18125 L 369.953125 359.80625 L 25.109375 359.25 " transform="matrix(1.25,0,0,1.25,0,0)"/>
<path style="fill:none;stroke-width:1.5;stroke-linecap:square;stroke-linejoin:round;stroke:rgb(0%,0%,0%);stroke-opacity:1;stroke-miterlimit:4;" d="M 231.56875 255.578125 L 232.128125 255.578125 " transform="matrix(1.25,0,0,1.25,0,0)"/>
<path style="fill:none;stroke-width:1.5;stroke-linecap:square;stroke-linejoin:round;stroke:rgb(0%,0%,0%);stroke-opacity:1;stroke-miterlimit:4;" d="M 303.553125 215.346875 L 306.65 215.234375 L 309.559375 215.7625 L 312.221875 216.94375 L 314.471875 218.678125 L 316.459375 221.1125 L 317.940625 223.975 L 318.940625 227.296875 L 319.371875 230.809375 L 319.234375 234.36875 L 318.521875 237.840625 L 317.296875 240.94375 L 315.540625 243.709375 L 313.359375 245.915625 L 310.821875 247.528125 L 307.99375 248.53125 L 304.865625 248.940625 L 301.978125 248.775 L 299.284375 248.04375 L 296.9625 246.80625 L 294.915625 245.03125 L 293.2 242.728125 L 291.934375 240.075 L 291.084375 237.021875 L 290.71875 233.796875 L 290.85 230.35625 L 291.50625 226.98125 L 292.615625 223.9375 L 294.190625 221.18125 L 296.11875 218.921875 L 298.3375 217.19375 L 300.778125 216.015625 L 303.553125 215.346875 " transform="matrix(1.25,0,0,1.25,0,0)"/>
<path style="fill:none;stroke-width:1.5;stroke-linecap:square;stroke-linejoin:round;stroke:rgb(0%,0%,0%);stroke-opacity:1;stroke-miterlimit:4;" d="M 134.478125 302.703125 L 134.478125 330.978125 " transform="matrix(1.25,0,0,1.25,0,0)"/>
<path style="fill:none;stroke-width:1.5;stroke-linecap:square;stroke-linejoin:round;stroke:rgb(0%,0%,0%);stroke-opacity:1;stroke-miterlimit:4;" d="M 114.390625 203.146875 L 120.3375 203.140625 L 126.1125 204.646875 L 131.540625 207.578125 L 136.421875 211.80625 L 140.53125 217.146875 L 143.603125 223.384375 L 145.29375 229.846875 L 145.55 236.428125 L 144.5875 243.296875 L 142.503125 249.634375 L 139.353125 255.140625 L 135.309375 259.625 L 130.15625 263.303125 L 124.234375 265.8875 L 117.20625 267.475 L 110.59375 267.765625 L 104.7875 266.85625 L 99.2125 264.75 L 94.184375 261.5125 L 89.83125 257.225 L 86.303125 251.99375 L 83.809375 246.134375 L 82.425 239.8375 L 82.21875 233.496875 L 83.075 227.659375 L 84.978125 221.934375 L 87.709375 216.9375 L 91.315625 212.75 L 95.809375 209.296875 L 101.259375 206.50625 L 107.53125 204.446875 L 114.390625 203.146875 " transform="matrix(1.25,0,0,1.25,0,0)"/>
<path style="fill:none;stroke-width:1.5;stroke-linecap:square;stroke-linejoin:round;stroke:rgb(0%,0%,0%);stroke-opacity:1;stroke-miterlimit:4;" d="M 148.428125 317.671875 L 148.9875 317.671875 " transform="matrix(1.25,0,0,1.25,0,0)"/>
<path style="fill:none;stroke-width:1.5;stroke-linecap:square;stroke-linejoin:round;stroke:rgb(0%,0%,0%);stroke-opacity:1;stroke-miterlimit:4;" d="M 178.559375 319.8875 L 179.675 317.671875 " transform="matrix(1.25,0,0,1.25,0,0)"/>
<path style="fill:none;stroke-width:1.5;stroke-linecap:square;stroke-linejoin:round;stroke:rgb(0%,0%,0%);stroke-opacity:1;stroke-miterlimit:4;" d="M 149.54375 231.184375 L 150.103125 241.71875 " transform="matrix(1.25,0,0,1.25,0,0)"/>
<path style="fill:none;stroke-width:1.5;stroke-linecap:square;stroke-linejoin:round;stroke:rgb(0%,0%,0%);stroke-opacity:1;stroke-miterlimit:4;" d="M 22.31875 128.621875 L 336.475 124.740625 L 392.83125 125.29375 " transform="matrix(1.25,0,0,1.25,0,0)"/>
<path style="fill:none;stroke-width:1.5;stroke-linecap:square;stroke-linejoin:round;stroke:rgb(0%,0%,0%);stroke-opacity:1;stroke-miterlimit:4;" d="M 205.34375 370.703125 L 207.1125 370.53125 L 208.996875 370.953125 L 210.9875 371.934375 L 212.7375 373.30625 L 214.05625 374.909375 L 214.71875 376.453125 L 214.725 377.815625 L 214.0375 379.025 L 211.803125 380.215625 L 207.890625 380.571875 L 203.34375 380.08125 L 200.928125 378.9375 L 200.115625 377.15625 L 200.74375 374.834375 L 202.834375 372.26875 L 205.34375 370.703125 " transform="matrix(1.25,0,0,1.25,0,0)"/>
<path style="fill:none;stroke-width:1.5;stroke-linecap:square;stroke-linejoin:round;stroke:rgb(0%,0%,0%);stroke-opacity:1;stroke-miterlimit:4;" d="M 114.390625 218.125 L 117.2 218.0375 L 119.828125 218.665625 L 122.209375 220.040625 L 124.271875 222.153125 L 126.034375 225.11875 L 127.296875 228.6625 L 127.971875 232.390625 L 127.928125 236.015625 L 127.25 239.35625 L 126.003125 242.515625 L 124.234375 245.396875 L 121.9875 247.9 L 119.48125 249.81875 L 116.63125 251.23125 L 113.48125 252.05625 L 110.553125 252.1375 L 108.0625 251.5625 L 105.840625 250.45 L 103.784375 248.74375 L 102.11875 246.6125 L 100.8875 244.15625 L 100.13125 241.484375 L 100.046875 235.278125 L 101.64375 228.821875 L 103.0375 225.96875 L 104.725 223.559375 L 106.7875 221.490625 L 109.05625 219.921875 L 111.6625 218.771875 L 114.390625 218.125 " transform="matrix(1.25,0,0,1.25,0,0)"/>
<path style="fill:none;stroke-width:1.5;stroke-linecap:square;stroke-linejoin:round;stroke:rgb(0%,0%,0%);stroke-opacity:1;stroke-miterlimit:4;" d="M 393.390625 403.603125 L 393.390625 409.146875 " transform="matrix(1.25,0,0,1.25,0,0)"/>
<path style="fill:none;stroke-width:1.5;stroke-linecap:square;stroke-linejoin:round;stroke:rgb(0%,0%,0%);stroke-opacity:1;stroke-miterlimit:4;" d="M 135.0375 327.096875 L 146.084375 325.69375 L 158.71875 325.340625 L 171.9125 325.925 L 204.009375 328.8125 L 222.45625 329.828125 L 240.05 329.9125 L 253.98125 329.278125 L 263.23125 329.240625 L 267.840625 328.759375 " transform="matrix(1.25,0,0,1.25,0,0)"/>
<path style="fill:none;stroke-width:1.5;stroke-linecap:square;stroke-linejoin:round;stroke:rgb(0%,0%,0%);stroke-opacity:1;stroke-miterlimit:4;" d="M 22.31875 129.728125 L 22.878125 358.14375 " transform="matrix(1.25,0,0,1.25,0,0)"/>
<path style="fill:none;stroke-width:1.5;stroke-linecap:square;stroke-linejoin:round;stroke:rgb(0%,0%,0%);stroke-opacity:1;stroke-miterlimit:4;" d="M 24.553125 415.246875 L 392.275 411.91875 " transform="matrix(1.25,0,0,1.25,0,0)"/>
<path style="fill:none;stroke-width:1.5;stroke-linecap:square;stroke-linejoin:round;stroke:rgb(0%,0%,0%);stroke-opacity:1;stroke-miterlimit:4;" d="M 180.234375 247.2625 L 183.53125 253.809375 L 186.44375 257.765625 L 190.309375 260.89375 L 195.325 263.209375 L 201.734375 264.5125 L 208.090625 264.353125 L 213.890625 262.821875 L 218.7375 260.0125 " transform="matrix(1.25,0,0,1.25,0,0)"/>
</g>
</svg>
