<?xml version="1.0" encoding="UTF-8"?>
<svg xmlns="http://www.w3.org/2000/svg" xmlns:xlink="http://www.w3.org/1999/xlink" width="519pt" height="729pt" viewBox="0 0 519 729" version="1.1">
<g id="surface1">
<path style="fill:none;stroke-width:1.5;stroke-linecap:square;stroke-linejoin:round;stroke:rgb(0%,0%,0%);stroke-opacity:1;stroke-miterlimit:4;" d="M 199.20625 147.153125 L 208.365625 146.721875 L 217.559375 147.990625 L 226.553125 150.9375 L 234.909375 155.403125 L 242.55 161.378125 L 248.909375 168.453125 L 251.709375 172.578125 L 254.025 176.784375 L 255.628125 180.46875 L 256.74375 184.4125 L 257.625 190.2625 L 258.9125 205.7625 L 259.34375 216.98125 L 258.434375 226.859375 L 257.428125 230.959375 L 255.95 234.91875 L 253.625 239.371875 L 250.75625 243.478125 L 247.259375 247.35625 L 243.3125 250.803125 L 238.80625 253.9 L 233.971875 256.475 L 228.8875 258.49375 L 223.634375 259.928125 L 212.46875 261.275 L 201.103125 261 L 190.6 259.1 L 185.665625 257.53125 L 181.11875 255.603125 L 176.80625 253.246875 L 172.93125 250.565625 L 169.5 247.6 L 166.36875 244.228125 L 163.690625 240.615625 L 161.528125 236.875 L 159.9875 233.1 L 158.7875 228.703125 L 157.84375 222.628125 L 157.4125 215.41875 L 157.425 206.3125 L 158.028125 198.23125 L 159.10625 191.19375 L 160.684375 184.490625 L 162.74375 178.20625 L 165.26875 172.4125 L 168.134375 167.321875 L 171.503125 162.628125 L 175.128125 158.66875 L 179.228125 155.175 L 183.65625 152.296875 L 188.565625 149.953125 L 193.759375 148.24375 L 199.20625 147.153125 " transform="matrix(1.25,0,0,1.25,0,0)"/>
<path style="fill:none;stroke-width:1.5;stroke-linecap:square;stroke-linejoin:round;stroke:rgb(0%,0%,0%);stroke-opacity:1;stroke-miterlimit:4;" d="M 61.38125 315.80625 L 66.39375 315.215625 L 68.89375 315.5625 L 71.378125 316.36875 L 75.80625 319.2 L 79.24375 323.4375 L 81.090625 328.365625 L 81.31875 330.828125 L 81.0625 333.246875 L 80.340625 335.41875 L 79.11875 337.428125 L 77.490625 339.11875 L 75.515625 340.48125 L 72.725 341.7125 L 68.7625 342.734375 L 65.125 343.165625 L 61.921875 343.025 L 59.28125 342.371875 L 57.0625 341.24375 L 54.996875 339.43125 L 53.35625 337.196875 L 52.06875 334.2 L 51.496875 330.99375 L 51.6125 327.73125 L 52.453125 324.3875 L 53.896875 321.471875 L 55.95 318.953125 L 58.41875 317.075 L 61.38125 315.80625 " transform="matrix(1.25,0,0,1.25,0,0)"/>
<path style="fill:none;stroke-width:1.5;stroke-linecap:square;stroke-linejoin:round;stroke:rgb(0%,0%,0%);stroke-opacity:1;stroke-miterlimit:4;" d="M 263.934375 75.953125 L 271.621875 77.1875 L 280.1625 80.259375 L 296.203125 88.31875 L 306.98125 94.790625 L 316.49375 101.725 L 324.875 109.134375 L 331.865625 116.796875 L 337.434375 124.69375 L 340.390625 130.23125 L 342.690625 136.04375 L 344.43125 142.334375 L 345.603125 149.09375 L 346.403125 161.6625 L 346.15625 191.06875 L 346.684375 198.596875 L 347.628125 204.309375 L 349.4 210.8375 L 352.05625 217.93125 L 362.140625 238.946875 " transform="matrix(1.25,0,0,1.25,0,0)"/>
<path style="fill:none;stroke-width:1.5;stroke-linecap:square;stroke-linejoin:round;stroke:rgb(0%,0%,0%);stroke-opacity:1;stroke-miterlimit:4;" d="M 233.24375 389.74375 L 233.85625 385.953125 L 233.803125 377.93125 L 234.43125 367.428125 L 234.44375 343.153125 L 234.834375 333.246875 L 236.446875 316.096875 L 237.534375 311.9375 L 239.134375 308.928125 L 240.540625 307.60625 L 242.440625 306.609375 L 247.578125 305.63125 L 264.128125 305.153125 L 269.040625 305.571875 L 273.221875 306.5125 L 278.071875 308.828125 L 281.665625 312.36875 L 283.99375 317.1125 L 285.1375 323.215625 " transform="matrix(1.25,0,0,1.25,0,0)"/>
<path style="fill:none;stroke-width:1.5;stroke-linecap:square;stroke-linejoin:round;stroke:rgb(0%,0%,0%);stroke-opacity:1;stroke-miterlimit:4;" d="M 68.075 408.59375 L 73.996875 416.29375 L 80.490625 423.728125 L 87.384375 430.7 L 94.8375 437.359375 L 102.65625 443.525 L 110.815625 449.2 L 119.490625 454.496875 L 128.45625 459.271875 L 137.690625 463.521875 L 147.378125 467.328125 L 157.278125 470.578125 L 167.359375 473.275 L 177.5875 475.4125 L 187.928125 476.990625 L 198.590625 478.021875 L 209.065625 478.45625 L 220.03125 478.303125 L 230.740625 477.55 L 241.634375 476.1625 L 252.2 474.19375 L 262.640625 471.621875 L 272.925 468.440625 L 282.76875 464.75 L 292.815625 460.328125 L 302.19375 455.515625 L 310.784375 450.375 L 318.84375 444.76875 L 326.43125 438.665625 L 334.759375 430.909375 L 340.684375 424.49375 L 345.0375 418.521875 L 348.190625 412.475 " transform="matrix(1.25,0,0,1.25,0,0)"/>
<path style="fill:none;stroke-width:1.5;stroke-linecap:square;stroke-linejoin:round;stroke:rgb(0%,0%,0%);stroke-opacity:1;stroke-miterlimit:4;" d="M 184.140625 395.840625 L 184.384375 348.14375 L 185.921875 323.725 L 186.303125 311.45625 L 187.153125 304.759375 L 188.053125 301.384375 L 189.06875 299.090625 L 190.665625 296.85 L 192.640625 295.0375 L 195.109375 293.515625 L 198.240625 292.25 L 205.940625 290.796875 L 217.9875 290.515625 L 220.640625 290.803125 L 222.978125 291.51875 L 225.375 293.015625 L 227.365625 295.1625 L 228.96875 297.925 L 230.225 301.478125 L 231.128125 306.228125 L 231.559375 312.253125 L 232.6875 391.40625 " transform="matrix(1.25,0,0,1.25,0,0)"/>
<path style="fill:none;stroke-width:1.5;stroke-linecap:square;stroke-linejoin:round;stroke:rgb(0%,0%,0%);stroke-opacity:1;stroke-miterlimit:4;" d="M 183.58125 220.65 L 229.3375 220.65 " transform="matrix(1.25,0,0,1.25,0,0)"/>
<path style="fill:none;stroke-width:1.5;stroke-linecap:square;stroke-linejoin:round;stroke:rgb(0%,0%,0%);stroke-opacity:1;stroke-miterlimit:4;" d="M 348.75 409.703125 L 343.703125 410.578125 L 338.79375 410.3125 L 333.934375 408.9625 L 329.26875 406.55625 L 324.9625 403.153125 L 321.21875 398.85 L 318.428125 394.13125 L 316.590625 389.04375 L 315.875 384.91875 L 315.525 379.684375 L 315.828125 360.7 L 315.478125 329.065625 L 315.175 316.996875 L 313.865625 296.55 L 314.4375 288.1375 L 316.259375 281.015625 L 318.996875 276.275 L 323.590625 271.215625 L 327.984375 267.94375 L 332.696875 265.871875 L 337.684375 265 L 343.053125 265.334375 L 348.54375 266.865625 L 354.221875 269.59375 L 360.08125 273.578125 L 365.875 278.728125 L 371.159375 284.6625 L 375.484375 290.8375 L 378.128125 295.99375 L 380.153125 301.55625 L 384.4625 320.44375 " transform="matrix(1.25,0,0,1.25,0,0)"/>
<path style="fill:none;stroke-width:1.5;stroke-linecap:square;stroke-linejoin:round;stroke:rgb(0%,0%,0%);stroke-opacity:1;stroke-miterlimit:4;" d="M 136.709375 323.215625 L 139.21875 317.35 L 142.69375 312.25625 L 146.996875 308.16875 L 152.25 305.034375 L 156.0375 303.609375 L 160.11875 302.659375 L 171.121875 301.86875 L 176.284375 302.24375 L 177.8 302.8875 L 178.86875 303.940625 L 180.04375 307.7375 L 180.578125 313.134375 L 180.221875 329.290625 L 181.496875 364.646875 L 181.909375 395.840625 " transform="matrix(1.25,0,0,1.25,0,0)"/>
<path style="fill:none;stroke-width:1.5;stroke-linecap:square;stroke-linejoin:round;stroke:rgb(0%,0%,0%);stroke-opacity:1;stroke-miterlimit:4;" d="M 32.3625 323.76875 L 31.24375 317.640625 L 30.534375 310.15625 L 28.4 275.290625 L 28.134375 257.69375 L 28.69375 244.23125 L 29.9125 231.25 L 31.803125 218.59375 L 34.31875 206.534375 L 37.546875 194.69375 L 41.496875 183.21875 L 46.215625 172.01875 L 51.803125 160.865625 L 58.146875 150.015625 L 65.203125 139.521875 L 72.934375 129.45 L 81.3 119.859375 L 90.728125 110.365625 L 100.596875 101.671875 L 110.834375 93.81875 L 121.553125 86.7125 L 132.521875 80.521875 L 143.875 75.175 L 155.36875 70.80625 L 166.953125 67.421875 L 178.3625 65.059375 L 189.96875 63.6375 L 200.88125 63.203125 L 213.915625 63.653125 L 226.071875 64.953125 L 238.2125 67.121875 L 256.665625 71.415625 L 260.621875 72.728125 L 263.934375 74.290625 " transform="matrix(1.25,0,0,1.25,0,0)"/>
<path style="fill:none;stroke-width:1.5;stroke-linecap:square;stroke-linejoin:round;stroke:rgb(0%,0%,0%);stroke-opacity:1;stroke-miterlimit:4;" d="M 296.296875 340.403125 L 313.596875 351.490625 " transform="matrix(1.25,0,0,1.25,0,0)"/>
<path style="fill:none;stroke-width:1.5;stroke-linecap:square;stroke-linejoin:round;stroke:rgb(0%,0%,0%);stroke-opacity:1;stroke-miterlimit:4;" d="M 231.0125 221.759375 L 229.665625 227.6875 L 228.271875 231.76875 L 226.41875 235.16875 L 223.965625 238.003125 L 220.59375 240.44375 L 216.428125 242.309375 L 211.81875 243.471875 L 206.765625 243.925 L 201.7 243.6 L 196.859375 242.490625 L 192.65625 240.684375 L 189.228125 238.275 L 186.99375 235.765625 L 185.259375 232.565625 L 183.8375 228.378125 L 182.465625 222.315625 " transform="matrix(1.25,0,0,1.25,0,0)"/>
<path style="fill:none;stroke-width:1.5;stroke-linecap:square;stroke-linejoin:round;stroke:rgb(0%,0%,0%);stroke-opacity:1;stroke-miterlimit:4;" d="M 32.3625 325.9875 L 33.359375 318.678125 L 35.153125 311.39375 L 37.6875 304.303125 L 40.903125 297.5625 L 44.81875 291.228125 L 49.38125 285.365625 L 54.328125 280.33125 L 59.5125 276.265625 L 65.175 273.053125 L 71.08125 270.946875 L 76.94375 270.040625 L 83.06875 270.25 L 88.240625 271.46875 L 92.39375 273.65 L 95.73125 276.85625 L 98.34375 281.265625 L 99.646875 284.959375 L 100.571875 289.371875 L 101.25 300.36875 L 100.7375 339.86875 L 99.63125 379.59375 L 99.125 386.93125 L 98.128125 392.715625 L 96.58125 397.56875 L 94.421875 401.415625 L 91.471875 404.540625 L 87.778125 406.86875 L 83.425 408.328125 L 78.540625 408.846875 L 73.284375 408.371875 L 68.075 406.928125 " transform="matrix(1.25,0,0,1.25,0,0)"/>
<path style="fill:none;stroke-width:1.5;stroke-linecap:square;stroke-linejoin:round;stroke:rgb(0%,0%,0%);stroke-opacity:1;stroke-miterlimit:4;" d="M 262.259375 78.171875 L 256.96875 92.015625 L 255.08125 94.834375 L 253.084375 96.1625 L 251.659375 96.2375 L 249.234375 95.584375 L 240.878125 91.74375 L 233.009375 88.94375 L 218.25625 85.178125 L 212.003125 84.284375 L 205.55625 83.925 L 199.146875 84.11875 L 192.8 84.84375 L 185.5125 86.33125 L 178.378125 88.475 L 171.246875 91.325 L 164.359375 94.796875 L 157.225 99.209375 L 150.48125 104.253125 L 145.596875 108.6625 L 141.26875 113.675 L 137.6375 119.125 L 134.66875 124.94375 L 132.271875 131.26875 L 130.475 138.059375 L 129.303125 145.25625 L 128.78125 152.584375 L 128.890625 160.38125 L 129.640625 168.1375 L 131.165625 176.5625 L 133.415625 184.875 L 136.29375 192.70625 L 140.103125 200.959375 L 143.753125 207.221875 L 147.534375 212.19375 L 151.54375 215.975 L 155.68125 218.434375 " transform="matrix(1.25,0,0,1.25,0,0)"/>
<path style="fill:none;stroke-width:1.5;stroke-linecap:square;stroke-linejoin:round;stroke:rgb(0%,0%,0%);stroke-opacity:1;stroke-miterlimit:4;" d="M 349.865625 313.521875 L 352.653125 313.1875 L 355.375 313.4 L 357.975 314.19375 L 360.275 315.496875 L 362.3625 317.3375 L 364.159375 319.696875 L 365.528125 322.384375 L 366.484375 325.440625 L 366.928125 328.621875 L 366.853125 331.65 L 366.275 334.571875 L 365.16875 337.284375 L 363.61875 339.56875 L 361.68125 341.384375 L 359.421875 342.721875 L 356.734375 343.621875 L 353.7875 344.00625 L 351.065625 343.81875 L 348.45625 343.059375 L 346.01875 341.71875 L 343.828125 339.803125 L 342.034375 337.465625 L 340.6625 334.809375 L 339.7 331.790625 L 339.24375 328.65 L 339.321875 325.50625 L 339.953125 322.48125 L 341.096875 319.8125 L 342.684375 317.5625 L 344.659375 315.775 L 347.109375 314.390625 L 349.865625 313.521875 " transform="matrix(1.25,0,0,1.25,0,0)"/>
<path style="fill:none;stroke-width:1.5;stroke-linecap:square;stroke-linejoin:round;stroke:rgb(0%,0%,0%);stroke-opacity:1;stroke-miterlimit:4;" d="M 201.996875 179.9125 L 206.353125 179.31875 L 210.884375 179.278125 L 215.18125 179.7875 L 218.940625 180.815625 L 222.003125 182.35 L 224.0625 184.18125 L 225.021875 186.215625 L 224.81875 188.35 L 223.565625 190.31875 L 221.31875 192.078125 L 218.56875 193.278125 L 215.15 194.0375 L 210.178125 194.575 L 205.09375 194.58125 L 200.578125 194.05625 L 196.7 193.0125 L 194.003125 191.684375 L 192.440625 190.26875 L 191.778125 188.65 L 192.05625 186.88125 L 193.45625 184.796875 L 195.778125 182.8125 L 198.946875 180.990625 L 201.996875 179.9125 " transform="matrix(1.25,0,0,1.25,0,0)"/>
<path style="fill:none;stroke-width:1.5;stroke-linecap:square;stroke-linejoin:round;stroke:rgb(0%,0%,0%);stroke-opacity:1;stroke-miterlimit:4;" d="M 279.559375 293.83125 L 310.246875 289.95 " transform="matrix(1.25,0,0,1.25,0,0)"/>
<path style="fill:none;stroke-width:1.5;stroke-linecap:square;stroke-linejoin:round;stroke:rgb(0%,0%,0%);stroke-opacity:1;stroke-miterlimit:4;" d="M 276.76875 292.721875 L 296.071875 272.253125 L 304.775 263.6375 L 314.1875 255.58125 L 323.2375 249.35 L 332.628125 244.534375 L 341.940625 241.421875 L 349.79375 240.50625 L 363.259375 240.609375 " transform="matrix(1.25,0,0,1.25,0,0)"/>
<path style="fill:none;stroke-width:1.5;stroke-linecap:square;stroke-linejoin:round;stroke:rgb(0%,0%,0%);stroke-opacity:1;stroke-miterlimit:4;" d="M 263.934375 74.290625 L 270.60625 75.515625 L 277.396875 77.4875 L 284.28125 80.18125 L 291.4125 83.659375 L 298.728125 87.909375 L 306.1625 92.878125 L 313.8 98.615625 L 321.825 105.271875 L 335.934375 118.4875 L 342.128125 125.25 L 347.93125 132.2875 L 353.475 139.765625 L 358.740625 147.6875 L 363.590625 155.853125 L 368.128125 164.45 L 375.703125 181.63125 L 381.86875 199.903125 L 386.571875 219.146875 L 389.71875 238.996875 L 391.3125 259.284375 L 391.35 280.053125 L 389.80625 300.88125 L 386.69375 321.553125 " transform="matrix(1.25,0,0,1.25,0,0)"/>
<path style="fill:none;stroke-width:1.5;stroke-linecap:square;stroke-linejoin:round;stroke:rgb(0%,0%,0%);stroke-opacity:1;stroke-miterlimit:4;" d="M 184.140625 279.6625 L 193.3625 279.096875 L 223.796875 279.878125 L 237.69375 281.25625 L 250.053125 283.6625 L 256.60625 285.54375 L 262.5875 287.73125 L 274.059375 293.4125 L 278.36875 296.19375 L 281.8125 298.96875 L 284.90625 302.178125 L 287.375 305.559375 L 290.059375 310.8 L 291.975 316.759375 L 293.303125 323.89375 L 294.171875 332.9125 L 295.325 351.478125 L 295.6875 367.403125 L 295.4 382.440625 L 294.246875 404.215625 L 293.153125 412.409375 L 292.0375 415.90625 L 290.5125 419.165625 L 288.496875 422.321875 L 286.10625 425.16875 L 283.221875 427.828125 L 280.015625 430.11875 L 275.390625 432.55625 L 270.196875 434.36875 L 264.471875 435.5 L 257.465625 436.24375 L 182.621875 438.321875 L 168.64375 438.078125 L 161.765625 437.390625 L 155.434375 436.265625 L 149.703125 434.7125 L 144.403125 432.68125 L 139.38125 430.053125 L 135.0375 427.028125 L 130.9 423.24375 L 128.29375 419.890625 L 126.471875 416.525 L 124.971875 412.5 L 123.890625 408.01875 L 123.18125 402.909375 L 122.771875 395.04375 L 122.784375 378.3125 L 121.725 351.98125 L 121.93125 340.640625 L 122.86875 330.703125 L 124.54375 322.078125 L 127.05625 314.253125 L 130.525 307.115625 L 134.903125 300.8875 L 140.303125 295.44375 L 146.571875 290.9375 L 153.746875 287.28125 L 162.26875 284.221875 L 171.94375 281.809375 L 184.140625 279.6625 " transform="matrix(1.25,0,0,1.25,0,0)"/>
<path style="fill:none;stroke-width:1.5;stroke-linecap:square;stroke-linejoin:round;stroke:rgb(0%,0%,0%);stroke-opacity:1;stroke-miterlimit:4;" d="M 232.6875 260.0125 L 232.6875 277.753125 " transform="matrix(1.25,0,0,1.25,0,0)"/>
<path style="fill:none;stroke-width:1.5;stroke-linecap:square;stroke-linejoin:round;stroke:rgb(0%,0%,0%);stroke-opacity:1;stroke-miterlimit:4;" d="M 184.140625 261.121875 L 184.140625 275.5375 " transform="matrix(1.25,0,0,1.25,0,0)"/>
</g>
</svg>
