<?xml version="1.0" encoding="UTF-8" standalone="no"?>
<svg
    xmlns:dc="http://purl.org/dc/elements/1.1/"
    xmlns:cc="http://creativecommons.org/ns#"
    xmlns:rdf="http://www.w3.org/1999/02/22-rdf-syntax-ns#"
    xmlns:svg="http://www.w3.org/2000/svg"
    xmlns="http://www.w3.org/2000/svg"
    xmlns:sodipodi="http://sodipodi.sourceforge.net/DTD/sodipodi-0.dtd"
    xmlns:inkscape="http://www.inkscape.org/namespaces/inkscape"
    width="519pt"
    height="350pt"
    viewBox="0 0 519 350"
    version="1.1"
    id="svg43"
    sodipodi:docname="СберShop 2.svg"
    inkscape:version="0.92.3 (2405546, 2018-03-11)">
   <metadata
       id="metadata49">
      <rdf:RDF>
         <cc:Work
             rdf:about="">
            <dc:format>image/svg+xml</dc:format>
            <dc:type
                rdf:resource="http://purl.org/dc/dcmitype/StillImage" />
            <dc:title></dc:title>
         </cc:Work>
      </rdf:RDF>
   </metadata>
   <defs
       id="defs47" />
   <sodipodi:namedview
       pagecolor="#ffffff"
       bordercolor="#666666"
       borderopacity="1"
       objecttolerance="10"
       gridtolerance="10"
       guidetolerance="10"
       inkscape:pageopacity="0"
       inkscape:pageshadow="2"
       inkscape:window-width="1920"
       inkscape:window-height="1015"
       id="namedview45"
       showgrid="false"
       inkscape:zoom="0.2428"
       inkscape:cx="346"
       inkscape:cy="486"
       inkscape:window-x="0"
       inkscape:window-y="0"
       inkscape:window-maximized="1"
       inkscape:current-layer="svg43" />
   <g
       id="surface1"
       transform="translate(0,-178.22)">
      <path
          style="fill:none;stroke:#000000;stroke-width:1.5;stroke-linecap:square;stroke-linejoin:round;stroke-miterlimit:4;stroke-opacity:1"
          d="m 273.42,313.79 l 1.57,1.83 l 5.46,3.62 l 1.66,1.71 l 0.31,1.01 l -0.22,1.12 l -2.08,2.35"
          transform="scale(1.25)"
          id="path2"
          inkscape:connector-curvature="0" />
      <path
          style="fill:none;stroke:#000000;stroke-width:1.5;stroke-linecap:square;stroke-linejoin:round;stroke-miterlimit:4;stroke-opacity:1"
          d="m 325.87,190.71 l 4.63,5.72 l 3.84,7.35 l 4.72,12.59 l 3.14,12.31 l 1.88,11.57 l 1.31,13.48 l 1.14,22.13 l -0.1,14.31 l 0.61,5.88"
          transform="scale(1.25)"
          id="path4"
          inkscape:connector-curvature="0" />
      <path
          style="fill:none;stroke:#000000;stroke-width:1.5;stroke-linecap:square;stroke-linejoin:round;stroke-miterlimit:4;stroke-opacity:1"
          d="m 286.81,171.31 l 8.2,3.56 l 6.51,3.27 l 5.43,3.3 l 4.32,3.31 l 4.16,4.36 l 2.77,4.08 l 0.87,3.03 l -0.74,2.51 l -2.27,1.77 l -4.02,0.97 l -30.94,2.88 l -19.07,1 l -18.43,0.12 l -19.86,-0.66 l -20.08,-1.32 l -26.74,-2.32 l -20.27,-0.27 l -10.95,-1.5 l -8,-1.84 l -8.05,-2.49 l -8.22,-3.26 l -4.92,-2.64 l -3.07,-2.6 l -1.93,-3.01 l -0.77,-3.3 l 0.3,-3.96"
          transform="scale(1.25)"
          id="path6"
          inkscape:connector-curvature="0" />
      <path
          style="fill:none;stroke:#000000;stroke-width:1.5;stroke-linecap:square;stroke-linejoin:round;stroke-miterlimit:4;stroke-opacity:1"
          d="m 207.57,169.09 l 2.6,-1.19 l 2.61,-0.68 l 2.84,-0.23 l 3.28,0.22 l 21.12,4.59 l 40.8,6.92 l 5.23,1.76 l 2.73,2.15 l 0.57,1.38 l -0.1,1.43 l -0.65,1.44 l -1.24,1.34 l -2.29,1.43 l -3.16,1.22 l -8.8,2.08 l -26.42,3.76 l -7.03,0.56 h -6.15 l -7.21,-0.75 l -7.39,-1.78 l -22.37,-8.44 l -6.85,-2.25"
          transform="scale(1.25)"
          id="path8"
          inkscape:connector-curvature="0" />
      <path
          style="fill:none;stroke:#000000;stroke-width:1.5;stroke-linecap:square;stroke-linejoin:round;stroke-miterlimit:4;stroke-opacity:1"
          d="m 263.93,334.3 l -0.96,-3.34 v -3.43 l 0.87,-3.51 l 1.86,-3.96 l 4.26,-6.52 l 3.92,-4.85 l 3.91,-3.51 l 4.01,-2.28 l 4.65,-1.6 l 5.67,-1.12 l 16.3,-1.49 l 9.31,-1.61 h 4.06 l 1.88,0.49 l 1.49,0.9 l 0.85,1.18 l 0.3,1.54 l -0.3,1.84 l -0.89,2.03 l -1.49,2.14 l -1.62,1.6"
          transform="scale(1.25)"
          id="path10"
          inkscape:connector-curvature="0" />
      <path
          style="fill:none;stroke:#000000;stroke-width:1.5;stroke-linecap:square;stroke-linejoin:round;stroke-miterlimit:4;stroke-opacity:1"
          d="m 293.51,303.81 l 2.35,0.32 l 1.5,0.64 l 0.8,0.98 l 0.1,1.21 l -1.16,2.63 l -4.45,6.35 l -0.37,1.85 l 0.42,3.66 l -0.14,1.55 l -0.95,1.7 l -1.87,1.48 l -3.95,1.99 l -4.7,1.57 l -4.03,0.68 l -2.84,-0.27 l -1.65,-1.11 l -1.51,-2.26 l -1.27,-3.45 l -0.81,-4"
          transform="scale(1.25)"
          id="path12"
          inkscape:connector-curvature="0" />
      <path
          style="fill:none;stroke:#000000;stroke-width:1.5;stroke-linecap:square;stroke-linejoin:round;stroke-miterlimit:4;stroke-opacity:1"
          d="m 82.584,266.67 l -20.778,10.72 l -9.275,5.96 l -4.478,3.8 l -3.89,4.12 l -3.504,4.63 l -3.071,5.08 l -3.044,6.58 l -2.572,7.66 l -1.697,7.06 l -0.678,6.05 l 0.215,6.91 l 1.072,6.58 l 1.929,6.41 l 2.778,6.22 l 3.168,5.34 l 3.835,5.18 l 4.484,4.99 l 5.26,4.91 l 5.862,4.65 l 6.397,4.37 l 7.034,4.15 l 7.591,3.87 l 8.012,3.53 l 9.7,3.71 l 19.536,6.05 l 20.54,4.62 l 22.57,3.42 l 30.88,2.82 l 14.25,1.75 l 10.63,0.36 l 10.92,-0.24 l 12.26,-0.75 l 36.68,-3.62 l 23.5,-3.77 l 10.41,-2.34 l 9.82,-2.71 l 11.98,-4.01 l 10.34,-4 l 8.87,-4.07 l 7.92,-4.35 l 7.43,-4.99 l 6.36,-5.3 l 5.59,-5.84 l 4.77,-6.4 l 4.15,-7.4 l 2.9,-7.26 l 1.49,-6.79 l 0.1,-6.21 l -1.29,-5.68 l -2.68,-5.22 l -4.73,-6.38 l -6.14,-6.35 l -7.12,-6.16 l -5.64,-3.81 l -6.4,-3.06 l -8.06,-2.64"
          transform="scale(1.25)"
          id="path14"
          inkscape:connector-curvature="0" />
      <path
          style="fill:none;stroke:#000000;stroke-width:1.5;stroke-linecap:square;stroke-linejoin:round;stroke-miterlimit:4;stroke-opacity:1"
          d="m 241.06,155.23 l 5.4,0.27 l 5.94,0.81 l 12.23,3.1 l 11.88,4.78 l 5.39,2.87 l 5.02,3.19 l 7.27,6 l 2.93,3.22 l 2.29,3.19 l 2.45,5.53 l 2.81,11.39"
          transform="scale(1.25)"
          id="path16"
          inkscape:connector-curvature="0" />
      <path
          style="fill:none;stroke:#000000;stroke-width:1.5;stroke-linecap:square;stroke-linejoin:round;stroke-miterlimit:4;stroke-opacity:1"
          d="m 314.15,315.45 l -1.55,-0.1 l -1.49,-0.6 l -1.33,-1.14 l -1,-1.54 l -0.69,-1.98 l -0.25,-2.16 l 0.19,-2.16 l 0.59,-1.85 l 1.73,-2.32 l 2.45,-1.08 l 4.11,-0.17 l 3.55,1.03 l 1.37,1.02 l 0.81,1.35 l 0.12,1.55 l -0.53,1.9 l -2.28,3.15 l -5.8,5.08 l 9.49,6.99 l 2.67,0.96 l 1.95,-0.45 l 0.63,-0.75 l 0.26,-1.08 l -0.78,-2.73 l -1.6,-2.12 l -4.05,-3.95 l -1.31,-1.86"
          transform="scale(1.25)"
          id="path18"
          inkscape:connector-curvature="0" />
      <path
          style="fill:none;stroke:#000000;stroke-width:1.5;stroke-linecap:square;stroke-linejoin:round;stroke-miterlimit:4;stroke-opacity:1"
          d="m 316.39,312.13 l 1.11,1.11"
          transform="scale(1.25)"
          id="path20"
          inkscape:connector-curvature="0" />
      <path
          style="fill:none;stroke:#000000;stroke-width:1.5;stroke-linecap:square;stroke-linejoin:round;stroke-miterlimit:4;stroke-opacity:1"
          d="m 310.81,316.56 l -0.56,2.77"
          transform="scale(1.25)"
          id="path22"
          inkscape:connector-curvature="0" />
      <path
          style="fill:none;stroke:#000000;stroke-width:1.5;stroke-linecap:square;stroke-linejoin:round;stroke-miterlimit:4;stroke-opacity:1"
          d="m 264.49,334.86 l 5.93,0.1 l 6.35,-1.16 l 6,-1.96 l 15.05,-5.94 l 8.52,-2.1"
          transform="scale(1.25)"
          id="path24"
          inkscape:connector-curvature="0" />
      <path
          style="fill:none;stroke:#000000;stroke-width:1.5;stroke-linecap:square;stroke-linejoin:round;stroke-miterlimit:4;stroke-opacity:1"
          d="m 83.7,267.77 l 0.756,-5.18 l 0.425,-11.69 l 1.803,-13.84 l 2.413,-13.79 l 2.916,-11.87 l 4.024,-11.62 l 5.613,-11.84 l 4.18,-6.97 l 4.51,-5.04 l 1.99,-0.91 l 1.82,0.4 l 1.29,1.22 l 2.31,3.29 l 2.02,1.94 l 3.25,2.15 l 3.96,1.81 l 8.35,2.87 l 20.21,5.67 l 11.76,4.87 l 4.56,1.45"
          transform="scale(1.25)"
          id="path26"
          inkscape:connector-curvature="0" />
      <path
          style="fill:none;stroke:#000000;stroke-width:1.5;stroke-linecap:square;stroke-linejoin:round;stroke-miterlimit:4;stroke-opacity:1"
          d="m 300.2,314.9 l 3.91,-1.11"
          transform="scale(1.25)"
          id="path28"
          inkscape:connector-curvature="0" />
      <path
          style="fill:none;stroke:#000000;stroke-width:1.5;stroke-linecap:square;stroke-linejoin:round;stroke-miterlimit:4;stroke-opacity:1"
          d="m 279.56,305.48 l 4.65,0.25 l 2.29,0.99 l 0.54,0.8 l 0.15,1.09 l -0.94,2.96"
          transform="scale(1.25)"
          id="path30"
          inkscape:connector-curvature="0" />
      <path
          style="fill:none;stroke:#000000;stroke-width:1.5;stroke-linecap:square;stroke-linejoin:round;stroke-miterlimit:4;stroke-opacity:1"
          d="m 126.11,183.51 l 2.96,-3.17 l 3.64,-2.66 l 4.49,-2.23 l 5.12,-1.69 l 5.46,-1.17 l 6.34,-0.8 l 24.08,-1.06 l 10.47,-1.24 l 4.76,-1.14 l 4.1,-1.5 l 7.74,-4.68 l 2.69,-1.27 l 2.91,-0.67 l 4.32,-0.35 l 6.43,0.24 l 8.15,1.06 l 20.06,3.39 l 12.25,2.76 l 7.89,2.46 l 6.87,2.84 l 6,3.29 l 5.09,3.7"
          transform="scale(1.25)"
          id="path32"
          inkscape:connector-curvature="0" />
      <path
          style="fill:none;stroke:#000000;stroke-width:1.5;stroke-linecap:square;stroke-linejoin:round;stroke-miterlimit:4;stroke-opacity:1"
          d="m 113.28,174.08 l 3.44,-2.53 l 4.02,-2.27 l 10.06,-3.91 l 11.02,-2.83 L 168,157.19 l 14.22,-2.02 l 14.74,-1.16 l 14.77,-0.27 l 15.21,0.61 l 17.13,1.71 l 17.22,2.79 l 18.45,4.13 l 14.56,4.28 l 10.01,4.15 l 8.24,4.87 l 6.54,5.62 l 5.11,6.6"
          transform="scale(1.25)"
          id="path34"
          inkscape:connector-curvature="0" />
      <path
          style="fill:none;stroke:#000000;stroke-width:1.5;stroke-linecap:square;stroke-linejoin:round;stroke-miterlimit:4;stroke-opacity:1"
          d="m 83.141,267.77 l -6.925,4.41 l -6.653,4.91 l -6.088,5.19 l -5.562,5.49 l -4.825,5.58 l -4.163,5.74 l -3.456,5.84 l -2.71,5.89 l -1.893,5.72 l -1.188,5.87 l -0.412,5.81 l 0.346,5.71 l 1.141,5.8 l 1.906,5.66 l 2.597,5.31 l 3.282,5.06 l 3.74,4.51 l 4.381,4.23 l 4.953,3.96 l 5.851,3.91 l 6.54,3.71 l 7.728,3.83 l 11.541,5.12 l 7.548,2.9 l 14.63,4.4 l 16.62,3.59 l 18.07,2.82 l 31.59,3.91 l 24.64,2.33 l 8.63,0.37 l 8.66,-0.11 l 13.19,-0.87 l 32.09,-3.11 l 23.45,-2.77 l 18.79,-3.52 l 21.3,-5.85 l 8.45,-2.96 l 7.65,-3.14 l 6.99,-3.38 l 6.49,-3.71 l 5.93,-4.05 l 5.08,-4.15 l 3.61,-3.87 l 3.18,-4.51 l 2.64,-5.17 l 1.72,-5.28 l 0.72,-5.19 l -0.32,-4.96 l -1.47,-4.93 l -2.95,-5.57 l -4.33,-6.15 l -7.38,-9.13 l -2.83,-2.74 l -3.4,-2.62 l -14.07,-8.79"
          transform="scale(1.25)"
          id="path36"
          inkscape:connector-curvature="0" />
      <path
          style="fill:none;stroke:#000000;stroke-width:1.5;stroke-linecap:square;stroke-linejoin:round;stroke-miterlimit:4;stroke-opacity:1"
          d="m 348.19,297.71 l -0.26,2.91 l -0.7,2.56 l -1.17,2.41 l -1.69,2.24 l -4.34,3.75 l -9.69,6.09"
          transform="scale(1.25)"
          id="path38"
          inkscape:connector-curvature="0" />
      <path
          style="fill:none;stroke:#000000;stroke-width:1.5;stroke-linecap:square;stroke-linejoin:round;stroke-miterlimit:4;stroke-opacity:1"
          d="m 83.141,268.88 l 0.19,6.92 l 0.6,5.91 l 1.028,5.16 l 1.544,4.75 l 2.153,4.42 l 2.982,4.58 l 3.5,4.25 l 4.103,4.08 l 5.029,4.17 l 5.8,4.02 l 6.3,3.71 l 7.1,3.56 l 7.93,3.41 l 8.38,3.08 l 8.19,2.53 l 8.31,2.09 l 17.32,3.04 l 18.69,1.62 l 20.18,0.19 l 21.91,-1.21 l 30,-3.32 l 24.1,-3.79 l 8.75,-2.01 l 7.9,-2.31 l 7.01,-2.6 l 6.48,-3.02"
          transform="scale(1.25)"
          id="path40"
          inkscape:connector-curvature="0" />
   </g>
</svg>
