<?xml version="1.0" encoding="UTF-8"?>
<svg xmlns="http://www.w3.org/2000/svg" xmlns:xlink="http://www.w3.org/1999/xlink" width="519pt" height="729pt" viewBox="0 0 519 729" version="1.1">
<g id="surface1">
<path style="fill:none;stroke-width:1.5;stroke-linecap:square;stroke-linejoin:round;stroke:rgb(0%,0%,0%);stroke-opacity:1;stroke-miterlimit:4;" d="M 224.875 167.984375 L 223.2 179.625 " transform="matrix(1.25,0,0,1.25,0,0)"/>
<path style="fill:none;stroke-width:1.5;stroke-linecap:square;stroke-linejoin:round;stroke:rgb(0%,0%,0%);stroke-opacity:1;stroke-miterlimit:4;" d="M 161.81875 310.4625 L 162.296875 321.53125 L 162.975 325.64375 L 164.04375 329.35 L 165.528125 332.590625 L 167.4375 335.33125 L 169.746875 337.5625 L 172.421875 339.29375 " transform="matrix(1.25,0,0,1.25,0,0)"/>
<path style="fill:none;stroke-width:1.5;stroke-linecap:square;stroke-linejoin:round;stroke:rgb(0%,0%,0%);stroke-opacity:1;stroke-miterlimit:4;" d="M 268.95625 108.109375 L 272.303125 108.109375 " transform="matrix(1.25,0,0,1.25,0,0)"/>
<path style="fill:none;stroke-width:1.5;stroke-linecap:square;stroke-linejoin:round;stroke:rgb(0%,0%,0%);stroke-opacity:1;stroke-miterlimit:4;" d="M 222.084375 126.403125 L 234.5625 148.578125 L 235.615625 165.765625 L 244.259375 180.18125 L 247.753125 194.040625 " transform="matrix(1.25,0,0,1.25,0,0)"/>
<path style="fill:none;stroke-width:1.5;stroke-linecap:square;stroke-linejoin:round;stroke:rgb(0%,0%,0%);stroke-opacity:1;stroke-miterlimit:4;" d="M 221.525 128.065625 L 220.409375 130.8375 " transform="matrix(1.25,0,0,1.25,0,0)"/>
<path style="fill:none;stroke-width:1.5;stroke-linecap:square;stroke-linejoin:round;stroke:rgb(0%,0%,0%);stroke-opacity:1;stroke-miterlimit:4;" d="M 219.853125 235.61875 L 219.959375 238.14375 L 219.003125 239.725 L 217.35625 239.796875 L 215.3875 238.390625 " transform="matrix(1.25,0,0,1.25,0,0)"/>
<path style="fill:none;stroke-width:1.5;stroke-linecap:square;stroke-linejoin:round;stroke:rgb(0%,0%,0%);stroke-opacity:1;stroke-miterlimit:4;" d="M 311.921875 89.259375 L 311.921875 95.35625 " transform="matrix(1.25,0,0,1.25,0,0)"/>
<path style="fill:none;stroke-width:1.5;stroke-linecap:square;stroke-linejoin:round;stroke:rgb(0%,0%,0%);stroke-opacity:1;stroke-miterlimit:4;" d="M 222.640625 144.696875 L 228.78125 144.14375 " transform="matrix(1.25,0,0,1.25,0,0)"/>
<path style="fill:none;stroke-width:1.5;stroke-linecap:square;stroke-linejoin:round;stroke:rgb(0%,0%,0%);stroke-opacity:1;stroke-miterlimit:4;" d="M 215.946875 225.0875 L 217.64375 225.48125 L 218.5875 226.3625 L 218.340625 227.40625 L 217.0625 228.4125 " transform="matrix(1.25,0,0,1.25,0,0)"/>
<path style="fill:none;stroke-width:1.5;stroke-linecap:square;stroke-linejoin:round;stroke:rgb(0%,0%,0%);stroke-opacity:1;stroke-miterlimit:4;" d="M 311.3625 102.5625 L 311.3625 107.553125 " transform="matrix(1.25,0,0,1.25,0,0)"/>
<path style="fill:none;stroke-width:1.5;stroke-linecap:square;stroke-linejoin:round;stroke:rgb(0%,0%,0%);stroke-opacity:1;stroke-miterlimit:4;" d="M 184.696875 173.528125 L 185.0375 170.634375 L 185.990625 167.653125 L 190.609375 159.24375 L 192.015625 156.015625 L 194.4 145.753125 L 195.7125 141.78125 L 198.18125 136.646875 L 201.38125 131.771875 L 206.434375 126.4375 L 209.065625 124.559375 L 211.853125 123.178125 L 214.60625 122.409375 L 217.278125 122.234375 L 220.025 122.653125 L 222.640625 123.63125 " transform="matrix(1.25,0,0,1.25,0,0)"/>
<path style="fill:none;stroke-width:1.5;stroke-linecap:square;stroke-linejoin:round;stroke:rgb(0%,0%,0%);stroke-opacity:1;stroke-miterlimit:4;" d="M 215.946875 228.4125 L 215.89375 226.94375 L 216.271875 225.7 L 217.078125 224.828125 L 218.228125 224.5 L 219.309375 224.7875 L 220.24375 225.640625 L 220.803125 226.896875 L 220.96875 228.4125 " transform="matrix(1.25,0,0,1.25,0,0)"/>
<path style="fill:none;stroke-width:1.5;stroke-linecap:square;stroke-linejoin:round;stroke:rgb(0%,0%,0%);stroke-opacity:1;stroke-miterlimit:4;" d="M 111.040625 92.03125 L 107.69375 94.246875 " transform="matrix(1.25,0,0,1.25,0,0)"/>
<path style="fill:none;stroke-width:1.5;stroke-linecap:square;stroke-linejoin:round;stroke:rgb(0%,0%,0%);stroke-opacity:1;stroke-miterlimit:4;" d="M 153.45 87.040625 L 156.53125 86.6625 L 158.896875 87.0875 L 160.465625 88.25 L 160.925 89.9625 L 160.103125 91.65 L 158.296875 92.746875 L 155.8625 93.078125 L 152.890625 92.584375 " transform="matrix(1.25,0,0,1.25,0,0)"/>
<path style="fill:none;stroke-width:1.5;stroke-linecap:square;stroke-linejoin:round;stroke:rgb(0%,0%,0%);stroke-opacity:1;stroke-miterlimit:4;" d="M 32.921875 366.459375 L 4.4625 401.384375 " transform="matrix(1.25,0,0,1.25,0,0)"/>
<path style="fill:none;stroke-width:1.5;stroke-linecap:square;stroke-linejoin:round;stroke:rgb(0%,0%,0%);stroke-opacity:1;stroke-miterlimit:4;" d="M 133.91875 118.0875 L 135.028125 206.790625 L 132.246875 278.8625 " transform="matrix(1.25,0,0,1.25,0,0)"/>
<path style="fill:none;stroke-width:1.5;stroke-linecap:square;stroke-linejoin:round;stroke:rgb(0%,0%,0%);stroke-opacity:1;stroke-miterlimit:4;" d="M 251.659375 83.715625 L 255.5625 83.715625 " transform="matrix(1.25,0,0,1.25,0,0)"/>
<path style="fill:none;stroke-width:1.5;stroke-linecap:square;stroke-linejoin:round;stroke:rgb(0%,0%,0%);stroke-opacity:1;stroke-miterlimit:4;" d="M 185.8125 175.190625 L 184.0875 176.9625 L 181.90625 178.296875 L 171.3625 181.421875 L 169.24375 182.440625 L 167.5125 183.759375 L 165.61875 186.25625 L 163.725 190.015625 L 162.184375 194.359375 L 160.846875 199.60625 L 157.23125 219.103125 L 155.659375 231.56875 L 154.853125 243.9875 L 154.5375 262.85 L 153.996875 273.228125 L 154.515625 281.009375 L 157.64375 294.8625 L 158.471875 300.484375 " transform="matrix(1.25,0,0,1.25,0,0)"/>
<path style="fill:none;stroke-width:1.5;stroke-linecap:square;stroke-linejoin:round;stroke:rgb(0%,0%,0%);stroke-opacity:1;stroke-miterlimit:4;" d="M 175.2125 301.040625 L 175.865625 309.290625 L 175.378125 310.978125 L 174.225 311.765625 L 164.04375 310.284375 L 162.103125 309.6875 L 161.2125 308.9625 L 160.659375 307.85625 L 160.703125 304.365625 " transform="matrix(1.25,0,0,1.25,0,0)"/>
<path style="fill:none;stroke-width:1.5;stroke-linecap:square;stroke-linejoin:round;stroke:rgb(0%,0%,0%);stroke-opacity:1;stroke-miterlimit:4;" d="M 184.140625 179.071875 L 200.059375 186.546875 L 203.85 189.178125 L 207.01875 192.378125 " transform="matrix(1.25,0,0,1.25,0,0)"/>
<path style="fill:none;stroke-width:1.5;stroke-linecap:square;stroke-linejoin:round;stroke:rgb(0%,0%,0%);stroke-opacity:1;stroke-miterlimit:4;" d="M 255.5625 84.821875 L 255.5625 92.584375 " transform="matrix(1.25,0,0,1.25,0,0)"/>
<path style="fill:none;stroke-width:1.5;stroke-linecap:square;stroke-linejoin:round;stroke:rgb(0%,0%,0%);stroke-opacity:1;stroke-miterlimit:4;" d="M 101.55625 37.7 L 102.1125 43.796875 " transform="matrix(1.25,0,0,1.25,0,0)"/>
<path style="fill:none;stroke-width:1.5;stroke-linecap:square;stroke-linejoin:round;stroke:rgb(0%,0%,0%);stroke-opacity:1;stroke-miterlimit:4;" d="M 228.78125 100.346875 L 231.15625 102.1125 L 234.928125 103.653125 L 237.925 104.0875 L 239.75625 103.403125 L 240.1875 101.503125 L 239.278125 99.634375 L 237.6375 98.503125 L 232.253125 95.971875 L 230.409375 94.384375 L 229.00625 91.375 L 228.915625 88.78125 L 229.521875 87.246875 L 230.690625 85.865625 L 232.41875 84.71875 L 234.5 83.934375 L 236.9625 83.5125 L 239.5 83.5375 L 241.784375 83.975 L 243.846875 84.821875 " transform="matrix(1.25,0,0,1.25,0,0)"/>
<path style="fill:none;stroke-width:1.5;stroke-linecap:square;stroke-linejoin:round;stroke:rgb(0%,0%,0%);stroke-opacity:1;stroke-miterlimit:4;" d="M 201.996875 102.009375 L 201.4375 106.44375 " transform="matrix(1.25,0,0,1.25,0,0)"/>
<path style="fill:none;stroke-width:1.5;stroke-linecap:square;stroke-linejoin:round;stroke:rgb(0%,0%,0%);stroke-opacity:1;stroke-miterlimit:4;" d="M 153.45 98.684375 L 153.45 101.45625 " transform="matrix(1.25,0,0,1.25,0,0)"/>
<path style="fill:none;stroke-width:1.5;stroke-linecap:square;stroke-linejoin:round;stroke:rgb(0%,0%,0%);stroke-opacity:1;stroke-miterlimit:4;" d="M 124.434375 104.78125 L 129.98125 106.396875 L 135.5125 106.99375 L 139.521875 106.384375 L 140.921875 105.678125 L 142 104.65 L 142.728125 103.1125 L 142.89375 101.096875 L 142.478125 98.8 L 141.596875 97.034375 L 139.45 95.30625 L 133.296875 92.84375 L 131.78125 91.5625 L 131.034375 90.3125 L 131.20625 89.09375 L 132.50625 88.053125 L 134.953125 87.296875 L 137.825 87.040625 " transform="matrix(1.25,0,0,1.25,0,0)"/>
<path style="fill:none;stroke-width:1.5;stroke-linecap:square;stroke-linejoin:round;stroke:rgb(0%,0%,0%);stroke-opacity:1;stroke-miterlimit:4;" d="M 153.45 87.59375 L 153.45 91.475 " transform="matrix(1.25,0,0,1.25,0,0)"/>
<path style="fill:none;stroke-width:1.5;stroke-linecap:square;stroke-linejoin:round;stroke:rgb(0%,0%,0%);stroke-opacity:1;stroke-miterlimit:4;" d="M 256.121875 317.115625 L 255.05 323.540625 L 255.046875 336.2375 L 254.50625 343.3875 L 253.19375 353.46875 L 251.115625 365.503125 L 248.95 376.459375 L 246.8625 384.734375 L 236.71875 416.35 L 233.25625 429.26875 L 231.290625 440.575 L 228.290625 467.984375 L 226.9375 475.20625 L 225.19375 481.64375 L 221.175 491.384375 L 220.1875 496.5 L 218.990625 498.15 L 216.365625 498.76875 L 209.565625 497.440625 L 206.490625 497.578125 L 201.834375 498.971875 L 196.415625 501.73125 " transform="matrix(1.25,0,0,1.25,0,0)"/>
<path style="fill:none;stroke-width:1.5;stroke-linecap:square;stroke-linejoin:round;stroke:rgb(0%,0%,0%);stroke-opacity:1;stroke-miterlimit:4;" d="M 205.34375 218.9875 L 196.975 229.521875 " transform="matrix(1.25,0,0,1.25,0,0)"/>
<path style="fill:none;stroke-width:1.5;stroke-linecap:square;stroke-linejoin:round;stroke:rgb(0%,0%,0%);stroke-opacity:1;stroke-miterlimit:4;" d="M 195.859375 461.259375 L 195.61875 465.0375 L 196.20625 469.371875 L 197.646875 474.03125 L 199.7625 478.446875 " transform="matrix(1.25,0,0,1.25,0,0)"/>
<path style="fill:none;stroke-width:1.5;stroke-linecap:square;stroke-linejoin:round;stroke:rgb(0%,0%,0%);stroke-opacity:1;stroke-miterlimit:4;" d="M 190.8375 166.31875 L 195.76875 161.853125 L 198.1625 158.59375 L 199.96875 153.840625 L 202.846875 142.8625 L 205.0125 138.33125 L 206.5625 136.3875 L 208.55625 134.63125 L 213.7125 131.946875 " transform="matrix(1.25,0,0,1.25,0,0)"/>
<path style="fill:none;stroke-width:1.5;stroke-linecap:square;stroke-linejoin:round;stroke:rgb(0%,0%,0%);stroke-opacity:1;stroke-miterlimit:4;" d="M 178.559375 87.040625 L 178.559375 91.475 " transform="matrix(1.25,0,0,1.25,0,0)"/>
<path style="fill:none;stroke-width:1.5;stroke-linecap:square;stroke-linejoin:round;stroke:rgb(0%,0%,0%);stroke-opacity:1;stroke-miterlimit:4;" d="M 33.48125 55.99375 L 44.803125 45.096875 L 49.475 41.584375 L 53.828125 39.0875 L 58.50625 37.3625 L 62.7875 36.740625 L 66.44375 37.434375 L 67.728125 38.215625 L 68.49375 39.190625 L 68.78125 40.475 L 68.5625 41.75 L 66.509375 44.946875 L 58.275 52.234375 L 52.375 56.803125 L 47.828125 59.571875 L 43.546875 61.328125 L 39.66875 61.96875 L 36.26875 61.5375 " transform="matrix(1.25,0,0,1.25,0,0)"/>
<path style="fill:none;stroke-width:1.5;stroke-linecap:square;stroke-linejoin:round;stroke:rgb(0%,0%,0%);stroke-opacity:1;stroke-miterlimit:4;" d="M 148.428125 82.60625 L 159.828125 82.340625 L 162.928125 82.890625 L 165.41875 84.0125 L 167.278125 86.00625 L 167.7875 88.521875 L 166.85625 91.271875 L 164.609375 93.69375 " transform="matrix(1.25,0,0,1.25,0,0)"/>
<path style="fill:none;stroke-width:1.5;stroke-linecap:square;stroke-linejoin:round;stroke:rgb(0%,0%,0%);stroke-opacity:1;stroke-miterlimit:4;" d="M 228.78125 100.9 L 228.78125 104.228125 " transform="matrix(1.25,0,0,1.25,0,0)"/>
<path style="fill:none;stroke-width:1.5;stroke-linecap:square;stroke-linejoin:round;stroke:rgb(0%,0%,0%);stroke-opacity:1;stroke-miterlimit:4;" d="M 253.33125 240.609375 L 252.7875 245.809375 L 253.453125 252.225 L 254.878125 258.365625 L 258.565625 271.078125 L 260.275 278.740625 L 260.359375 282.703125 L 259.46875 286.071875 " transform="matrix(1.25,0,0,1.25,0,0)"/>
<path style="fill:none;stroke-width:1.5;stroke-linecap:square;stroke-linejoin:round;stroke:rgb(0%,0%,0%);stroke-opacity:1;stroke-miterlimit:4;" d="M 199.20625 227.303125 L 197.565625 221.94375 L 197.496875 219.834375 L 197.96875 218.3875 L 198.846875 217.690625 L 200.225 217.625 L 204.228125 219.54375 " transform="matrix(1.25,0,0,1.25,0,0)"/>
<path style="fill:none;stroke-width:1.5;stroke-linecap:square;stroke-linejoin:round;stroke:rgb(0%,0%,0%);stroke-opacity:1;stroke-miterlimit:4;" d="M 135.59375 14.96875 L 135.59375 48.7875 " transform="matrix(1.25,0,0,1.25,0,0)"/>
<path style="fill:none;stroke-width:1.5;stroke-linecap:square;stroke-linejoin:round;stroke:rgb(0%,0%,0%);stroke-opacity:1;stroke-miterlimit:4;" d="M 258.353125 279.971875 L 403.990625 278.8625 " transform="matrix(1.25,0,0,1.25,0,0)"/>
<path style="fill:none;stroke-width:1.5;stroke-linecap:square;stroke-linejoin:round;stroke:rgb(0%,0%,0%);stroke-opacity:1;stroke-miterlimit:4;" d="M 203.66875 225.0875 L 204.228125 225.0875 " transform="matrix(1.25,0,0,1.25,0,0)"/>
<path style="fill:none;stroke-width:1.5;stroke-linecap:square;stroke-linejoin:round;stroke:rgb(0%,0%,0%);stroke-opacity:1;stroke-miterlimit:4;" d="M 106.578125 83.159375 L 92.628125 94.246875 " transform="matrix(1.25,0,0,1.25,0,0)"/>
<path style="fill:none;stroke-width:1.5;stroke-linecap:square;stroke-linejoin:round;stroke:rgb(0%,0%,0%);stroke-opacity:1;stroke-miterlimit:4;" d="M 25.66875 44.353125 L 16.18125 58.765625 L 18.928125 59.121875 L 22.1625 58.821875 L 31.80625 55.99375 " transform="matrix(1.25,0,0,1.25,0,0)"/>
<path style="fill:none;stroke-width:1.5;stroke-linecap:square;stroke-linejoin:round;stroke:rgb(0%,0%,0%);stroke-opacity:1;stroke-miterlimit:4;" d="M 205.34375 222.315625 L 207.575 221.759375 " transform="matrix(1.25,0,0,1.25,0,0)"/>
<path style="fill:none;stroke-width:1.5;stroke-linecap:square;stroke-linejoin:round;stroke:rgb(0%,0%,0%);stroke-opacity:1;stroke-miterlimit:4;" d="M 202.553125 225.640625 L 203.1125 226.19375 " transform="matrix(1.25,0,0,1.25,0,0)"/>
<path style="fill:none;stroke-width:1.5;stroke-linecap:square;stroke-linejoin:round;stroke:rgb(0%,0%,0%);stroke-opacity:1;stroke-miterlimit:4;" d="M 268.95625 98.684375 L 268.396875 108.109375 " transform="matrix(1.25,0,0,1.25,0,0)"/>
<path style="fill:none;stroke-width:1.5;stroke-linecap:square;stroke-linejoin:round;stroke:rgb(0%,0%,0%);stroke-opacity:1;stroke-miterlimit:4;" d="M 256.121875 98.684375 L 255.5625 107 " transform="matrix(1.25,0,0,1.25,0,0)"/>
<path style="fill:none;stroke-width:1.5;stroke-linecap:square;stroke-linejoin:round;stroke:rgb(0%,0%,0%);stroke-opacity:1;stroke-miterlimit:4;" d="M 218.178125 152.459375 L 218.1375 154.9 L 217.56875 156.315625 L 216.265625 157.00625 L 214.271875 156.89375 " transform="matrix(1.25,0,0,1.25,0,0)"/>
<path style="fill:none;stroke-width:1.5;stroke-linecap:square;stroke-linejoin:round;stroke:rgb(0%,0%,0%);stroke-opacity:1;stroke-miterlimit:4;" d="M 211.48125 341.509375 L 212.34375 351.528125 L 212.459375 361.846875 L 211.984375 369.915625 L 210.2625 385.421875 L 210.146875 392.48125 L 210.65 396.775 L 211.68125 400.946875 L 213.259375 405.059375 L 215.3875 409.146875 " transform="matrix(1.25,0,0,1.25,0,0)"/>
<path style="fill:none;stroke-width:1.5;stroke-linecap:square;stroke-linejoin:round;stroke:rgb(0%,0%,0%);stroke-opacity:1;stroke-miterlimit:4;" d="M 104.903125 150.796875 L 106.01875 199.028125 L 106.01875 277.753125 " transform="matrix(1.25,0,0,1.25,0,0)"/>
<path style="fill:none;stroke-width:1.5;stroke-linecap:square;stroke-linejoin:round;stroke:rgb(0%,0%,0%);stroke-opacity:1;stroke-miterlimit:4;" d="M 270.63125 279.971875 L 282.159375 291.99375 L 310.58125 323.740625 L 369.925 387.709375 L 392.8875 413.646875 L 412.91875 437.421875 " transform="matrix(1.25,0,0,1.25,0,0)"/>
<path style="fill:none;stroke-width:1.5;stroke-linecap:square;stroke-linejoin:round;stroke:rgb(0%,0%,0%);stroke-opacity:1;stroke-miterlimit:4;" d="M 229.896875 161.33125 L 228.2875 164.428125 L 228.309375 167.846875 L 229.275 170.39375 L 233.040625 176.953125 L 234.359375 180.18125 " transform="matrix(1.25,0,0,1.25,0,0)"/>
<path style="fill:none;stroke-width:1.5;stroke-linecap:square;stroke-linejoin:round;stroke:rgb(0%,0%,0%);stroke-opacity:1;stroke-miterlimit:4;" d="M 271.746875 12.196875 L 271.1875 51.559375 " transform="matrix(1.25,0,0,1.25,0,0)"/>
<path style="fill:none;stroke-width:1.5;stroke-linecap:square;stroke-linejoin:round;stroke:rgb(0%,0%,0%);stroke-opacity:1;stroke-miterlimit:4;" d="M 190.278125 83.159375 L 186.93125 85.93125 " transform="matrix(1.25,0,0,1.25,0,0)"/>
<path style="fill:none;stroke-width:1.5;stroke-linecap:square;stroke-linejoin:round;stroke:rgb(0%,0%,0%);stroke-opacity:1;stroke-miterlimit:4;" d="M 180.234375 262.784375 L 180.5625 268.703125 L 181.51875 273.559375 L 183.153125 277.7125 L 185.415625 281.0375 L 188.14375 283.453125 L 193.978125 286.540625 L 196.146875 288.19375 L 197.35 289.96875 L 199.159375 294.703125 L 200.609375 296.375 L 203.1 297.171875 L 208.85 297.175 L 211.48125 298.26875 L 209.4875 300.353125 L 207.109375 301.978125 L 196.415625 306.584375 " transform="matrix(1.25,0,0,1.25,0,0)"/>
<path style="fill:none;stroke-width:1.5;stroke-linecap:square;stroke-linejoin:round;stroke:rgb(0%,0%,0%);stroke-opacity:1;stroke-miterlimit:4;" d="M 108.809375 85.93125 L 92.628125 99.2375 " transform="matrix(1.25,0,0,1.25,0,0)"/>
<path style="fill:none;stroke-width:1.5;stroke-linecap:square;stroke-linejoin:round;stroke:rgb(0%,0%,0%);stroke-opacity:1;stroke-miterlimit:4;" d="M 163.49375 94.803125 L 166.2125 97.48125 L 167.778125 100.6875 L 167.75625 103.56875 L 166.240625 105.78125 L 163.721875 107.11875 L 160.228125 107.8125 L 147.86875 107.553125 " transform="matrix(1.25,0,0,1.25,0,0)"/>
<path style="fill:none;stroke-width:1.5;stroke-linecap:square;stroke-linejoin:round;stroke:rgb(0%,0%,0%);stroke-opacity:1;stroke-miterlimit:4;" d="M 251.659375 84.821875 L 252.215625 107.553125 " transform="matrix(1.25,0,0,1.25,0,0)"/>
<path style="fill:none;stroke-width:1.5;stroke-linecap:square;stroke-linejoin:round;stroke:rgb(0%,0%,0%);stroke-opacity:1;stroke-miterlimit:4;" d="M 244.403125 284.40625 L 254.45 305.475 L 255.00625 317.671875 " transform="matrix(1.25,0,0,1.25,0,0)"/>
<path style="fill:none;stroke-width:1.5;stroke-linecap:square;stroke-linejoin:round;stroke:rgb(0%,0%,0%);stroke-opacity:1;stroke-miterlimit:4;" d="M 206.459375 226.19375 L 207.01875 227.859375 " transform="matrix(1.25,0,0,1.25,0,0)"/>
<path style="fill:none;stroke-width:1.5;stroke-linecap:square;stroke-linejoin:round;stroke:rgb(0%,0%,0%);stroke-opacity:1;stroke-miterlimit:4;" d="M 309.13125 84.26875 L 316.64375 84.296875 L 321.01875 85.234375 L 322.88125 86.203125 L 324.40625 87.5375 L 325.40625 89.1 L 325.940625 90.996875 L 325.878125 93.340625 L 325.15 95.6375 L 323.84375 97.728125 L 322.040625 99.44375 L 320.3375 100.3875 L 318.3 100.9375 L 311.3625 101.45625 " transform="matrix(1.25,0,0,1.25,0,0)"/>
<path style="fill:none;stroke-width:1.5;stroke-linecap:square;stroke-linejoin:round;stroke:rgb(0%,0%,0%);stroke-opacity:1;stroke-miterlimit:4;" d="M 201.4375 87.040625 L 205.259375 87.071875 L 207.703125 87.6625 L 210.1125 89.296875 L 211.184375 91.240625 L 210.690625 93.196875 L 208.728125 95.071875 L 205.778125 96.4625 L 202.553125 97.01875 " transform="matrix(1.25,0,0,1.25,0,0)"/>
<path style="fill:none;stroke-width:1.5;stroke-linecap:square;stroke-linejoin:round;stroke:rgb(0%,0%,0%);stroke-opacity:1;stroke-miterlimit:4;" d="M 268.95625 84.26875 L 268.95625 92.584375 " transform="matrix(1.25,0,0,1.25,0,0)"/>
<path style="fill:none;stroke-width:1.5;stroke-linecap:square;stroke-linejoin:round;stroke:rgb(0%,0%,0%);stroke-opacity:1;stroke-miterlimit:4;" d="M 396.7375 373.1125 L 407.75 384.846875 L 411.2625 387.765625 L 414.59375 389.74375 " transform="matrix(1.25,0,0,1.25,0,0)"/>
<path style="fill:none;stroke-width:1.5;stroke-linecap:square;stroke-linejoin:round;stroke:rgb(0%,0%,0%);stroke-opacity:1;stroke-miterlimit:4;" d="M 231.0125 153.56875 L 230.203125 156.9375 L 228.7375 160.665625 L 226.790625 164.33125 L 224.64375 167.446875 L 222.46875 169.865625 L 220.08125 171.7875 L 217.85 172.921875 L 215.5125 173.43125 L 213.09375 173.2 L 210.590625 172.15625 L 208.30625 170.5875 L 206.36875 168.534375 L 203.734375 163.590625 L 201.4375 155.23125 " transform="matrix(1.25,0,0,1.25,0,0)"/>
<path style="fill:none;stroke-width:1.5;stroke-linecap:square;stroke-linejoin:round;stroke:rgb(0%,0%,0%);stroke-opacity:1;stroke-miterlimit:4;" d="M 212.596875 215.6625 L 211.340625 217.025 L 210.63125 217.09375 L 210.165625 216.671875 L 210.196875 216.05625 L 210.6875 215.65625 L 212.596875 215.6625 " transform="matrix(1.25,0,0,1.25,0,0)"/>
<path style="fill:none;stroke-width:1.5;stroke-linecap:square;stroke-linejoin:round;stroke:rgb(0%,0%,0%);stroke-opacity:1;stroke-miterlimit:4;" d="M 212.040625 236.175 L 213.7125 238.390625 L 212.040625 236.175 " transform="matrix(1.25,0,0,1.25,0,0)"/>
<path style="fill:none;stroke-width:1.5;stroke-linecap:square;stroke-linejoin:round;stroke:rgb(0%,0%,0%);stroke-opacity:1;stroke-miterlimit:4;" d="M 211.48125 237.8375 L 212.040625 238.390625 " transform="matrix(1.25,0,0,1.25,0,0)"/>
<path style="fill:none;stroke-width:1.5;stroke-linecap:square;stroke-linejoin:round;stroke:rgb(0%,0%,0%);stroke-opacity:1;stroke-miterlimit:4;" d="M 255.5625 93.69375 L 268.396875 93.69375 " transform="matrix(1.25,0,0,1.25,0,0)"/>
<path style="fill:none;stroke-width:1.5;stroke-linecap:square;stroke-linejoin:round;stroke:rgb(0%,0%,0%);stroke-opacity:1;stroke-miterlimit:4;" d="M 217.61875 217.878125 L 223.259375 215.06875 L 224.796875 214.8875 L 226.08125 215.359375 L 226.7875 216.39375 L 227.040625 218.221875 L 225.990625 224.53125 " transform="matrix(1.25,0,0,1.25,0,0)"/>
<path style="fill:none;stroke-width:1.5;stroke-linecap:square;stroke-linejoin:round;stroke:rgb(0%,0%,0%);stroke-opacity:1;stroke-miterlimit:4;" d="M 152.890625 98.128125 L 157.421875 97.965625 L 159.978125 98.265625 L 161.8375 99.209375 L 162.784375 100.809375 L 162.1625 102.0625 L 160.19375 102.890625 L 156.65625 103.325 L 153.45 103.11875 " transform="matrix(1.25,0,0,1.25,0,0)"/>
<path style="fill:none;stroke-width:1.5;stroke-linecap:square;stroke-linejoin:round;stroke:rgb(0%,0%,0%);stroke-opacity:1;stroke-miterlimit:4;" d="M 297.4125 142.48125 L 297.4125 280.525 " transform="matrix(1.25,0,0,1.25,0,0)"/>
<path style="fill:none;stroke-width:1.5;stroke-linecap:square;stroke-linejoin:round;stroke:rgb(0%,0%,0%);stroke-opacity:1;stroke-miterlimit:4;" d="M 205.903125 237.8375 L 205.34375 242.271875 " transform="matrix(1.25,0,0,1.25,0,0)"/>
<path style="fill:none;stroke-width:1.5;stroke-linecap:square;stroke-linejoin:round;stroke:rgb(0%,0%,0%);stroke-opacity:1;stroke-miterlimit:4;" d="M 188.046875 183.50625 L 195.859375 190.7125 " transform="matrix(1.25,0,0,1.25,0,0)"/>
<path style="fill:none;stroke-width:1.5;stroke-linecap:square;stroke-linejoin:round;stroke:rgb(0%,0%,0%);stroke-opacity:1;stroke-miterlimit:4;" d="M 207.575 147.471875 L 211.48125 147.471875 " transform="matrix(1.25,0,0,1.25,0,0)"/>
<path style="fill:none;stroke-width:1.5;stroke-linecap:square;stroke-linejoin:round;stroke:rgb(0%,0%,0%);stroke-opacity:1;stroke-miterlimit:4;" d="M 178.559375 97.575 L 188.603125 97.575 " transform="matrix(1.25,0,0,1.25,0,0)"/>
<path style="fill:none;stroke-width:1.5;stroke-linecap:square;stroke-linejoin:round;stroke:rgb(0%,0%,0%);stroke-opacity:1;stroke-miterlimit:4;" d="M 196.415625 83.715625 L 196.975 106.44375 " transform="matrix(1.25,0,0,1.25,0,0)"/>
<path style="fill:none;stroke-width:1.5;stroke-linecap:square;stroke-linejoin:round;stroke:rgb(0%,0%,0%);stroke-opacity:1;stroke-miterlimit:4;" d="M 206.459375 229.521875 L 205.8875 227.765625 L 206.2375 226.528125 L 207.484375 226.18125 L 209.25 226.75 " transform="matrix(1.25,0,0,1.25,0,0)"/>
<path style="fill:none;stroke-width:1.5;stroke-linecap:square;stroke-linejoin:round;stroke:rgb(0%,0%,0%);stroke-opacity:1;stroke-miterlimit:4;" d="M 201.4375 500.621875 L 202.73125 504.00625 L 204.83125 507.00625 L 207.30625 508.946875 L 209.88125 509.66875 L 212.35 509.271875 L 214.54375 507.96875 L 216.353125 505.8375 L 218.7375 501.73125 " transform="matrix(1.25,0,0,1.25,0,0)"/>
<path style="fill:none;stroke-width:1.5;stroke-linecap:square;stroke-linejoin:round;stroke:rgb(0%,0%,0%);stroke-opacity:1;stroke-miterlimit:4;" d="M 243.846875 253.915625 L 247.04375 253.896875 L 249.265625 254.4125 L 251.234375 255.590625 L 253.33125 257.796875 " transform="matrix(1.25,0,0,1.25,0,0)"/>
<path style="fill:none;stroke-width:1.5;stroke-linecap:square;stroke-linejoin:round;stroke:rgb(0%,0%,0%);stroke-opacity:1;stroke-miterlimit:4;" d="M 215.3875 228.96875 L 221.525 228.96875 " transform="matrix(1.25,0,0,1.25,0,0)"/>
<path style="fill:none;stroke-width:1.5;stroke-linecap:square;stroke-linejoin:round;stroke:rgb(0%,0%,0%);stroke-opacity:1;stroke-miterlimit:4;" d="M 188.603125 398.059375 L 194.184375 403.603125 " transform="matrix(1.25,0,0,1.25,0,0)"/>
<path style="fill:none;stroke-width:1.5;stroke-linecap:square;stroke-linejoin:round;stroke:rgb(0%,0%,0%);stroke-opacity:1;stroke-miterlimit:4;" d="M 341.496875 44.353125 L 335.55 44.596875 L 328.796875 44.2625 L 322.296875 43.4375 L 316.43125 42.165625 L 312.8875 41.009375 L 310.425 39.796875 L 309.3875 38.10625 L 308.7625 35.425 L 308.715625 31.984375 L 309.346875 29.20625 L 310.315625 27.8125 L 312.253125 27.090625 L 315.25 26.971875 L 321.034375 27.525 L 339.821875 30.490625 " transform="matrix(1.25,0,0,1.25,0,0)"/>
<path style="fill:none;stroke-width:1.5;stroke-linecap:square;stroke-linejoin:round;stroke:rgb(0%,0%,0%);stroke-opacity:1;stroke-miterlimit:4;" d="M 339.2625 44.90625 L 336.5 49.175 L 328.865625 57.0625 L 326.15 60.665625 L 324.65 65.990625 L 323.890625 73.96875 L 324.175 77.575 L 325.7625 79.859375 L 328.28125 81.771875 L 338.65 88.140625 L 341.8 88.74375 L 346.8 87.396875 L 354.7 83.703125 L 359.721875 80.221875 L 361.63125 77.434375 L 363.240625 73.471875 L 367.1625 57.103125 " transform="matrix(1.25,0,0,1.25,0,0)"/>
<path style="fill:none;stroke-width:1.5;stroke-linecap:square;stroke-linejoin:round;stroke:rgb(0%,0%,0%);stroke-opacity:1;stroke-miterlimit:4;" d="M 167.959375 320.996875 L 168.365625 326.175 L 169.578125 330.434375 L 171.784375 334.509375 L 175.2125 338.7375 " transform="matrix(1.25,0,0,1.25,0,0)"/>
<path style="fill:none;stroke-width:1.5;stroke-linecap:square;stroke-linejoin:round;stroke:rgb(0%,0%,0%);stroke-opacity:1;stroke-miterlimit:4;" d="M 183.58125 177.409375 L 184.421875 174.928125 L 185.7375 172.625 L 192.04375 165.409375 L 194.2375 161.884375 L 195.578125 157.60625 L 196.921875 148.375 L 197.846875 144.565625 L 199.846875 139.625 L 202.584375 135.1125 L 206.63125 130.690625 L 211 127.875 L 215.584375 126.621875 L 220.409375 126.95625 " transform="matrix(1.25,0,0,1.25,0,0)"/>
<path style="fill:none;stroke-width:1.5;stroke-linecap:square;stroke-linejoin:round;stroke:rgb(0%,0%,0%);stroke-opacity:1;stroke-miterlimit:4;" d="M 256.68125 97.575 L 268.396875 98.128125 " transform="matrix(1.25,0,0,1.25,0,0)"/>
<path style="fill:none;stroke-width:1.5;stroke-linecap:square;stroke-linejoin:round;stroke:rgb(0%,0%,0%);stroke-opacity:1;stroke-miterlimit:4;" d="M 210.365625 107.553125 L 215.946875 107.553125 " transform="matrix(1.25,0,0,1.25,0,0)"/>
<path style="fill:none;stroke-width:1.5;stroke-linecap:square;stroke-linejoin:round;stroke:rgb(0%,0%,0%);stroke-opacity:1;stroke-miterlimit:4;" d="M 48.546875 62.646875 L 53.009375 83.715625 " transform="matrix(1.25,0,0,1.25,0,0)"/>
<path style="fill:none;stroke-width:1.5;stroke-linecap:square;stroke-linejoin:round;stroke:rgb(0%,0%,0%);stroke-opacity:1;stroke-miterlimit:4;" d="M 208.690625 211.78125 L 209.25 214.553125 " transform="matrix(1.25,0,0,1.25,0,0)"/>
<path style="fill:none;stroke-width:1.5;stroke-linecap:square;stroke-linejoin:round;stroke:rgb(0%,0%,0%);stroke-opacity:1;stroke-miterlimit:4;" d="M 203.1125 163.546875 L 202.553125 176.853125 " transform="matrix(1.25,0,0,1.25,0,0)"/>
<path style="fill:none;stroke-width:1.5;stroke-linecap:square;stroke-linejoin:round;stroke:rgb(0%,0%,0%);stroke-opacity:1;stroke-miterlimit:4;" d="M 6.696875 279.971875 L 152.890625 279.971875 " transform="matrix(1.25,0,0,1.25,0,0)"/>
<path style="fill:none;stroke-width:1.5;stroke-linecap:square;stroke-linejoin:round;stroke:rgb(0%,0%,0%);stroke-opacity:1;stroke-miterlimit:4;" d="M 25.109375 44.90625 L 46.575 27.628125 L 53.296875 23.25 L 57.93125 21.096875 L 59.509375 20.78125 L 60.765625 20.975 L 61.459375 21.65625 L 61.76875 23.028125 L 61.196875 26.61875 L 58.590625 34.371875 " transform="matrix(1.25,0,0,1.25,0,0)"/>
<path style="fill:none;stroke-width:1.5;stroke-linecap:square;stroke-linejoin:round;stroke:rgb(0%,0%,0%);stroke-opacity:1;stroke-miterlimit:4;" d="M 269.5125 82.60625 L 271.746875 82.60625 " transform="matrix(1.25,0,0,1.25,0,0)"/>
<path style="fill:none;stroke-width:1.5;stroke-linecap:square;stroke-linejoin:round;stroke:rgb(0%,0%,0%);stroke-opacity:1;stroke-miterlimit:4;" d="M 257.2375 285.515625 L 249.425 297.7125 " transform="matrix(1.25,0,0,1.25,0,0)"/>
<path style="fill:none;stroke-width:1.5;stroke-linecap:square;stroke-linejoin:round;stroke:rgb(0%,0%,0%);stroke-opacity:1;stroke-miterlimit:4;" d="M 272.8625 84.821875 L 272.303125 106.44375 " transform="matrix(1.25,0,0,1.25,0,0)"/>
<path style="fill:none;stroke-width:1.5;stroke-linecap:square;stroke-linejoin:round;stroke:rgb(0%,0%,0%);stroke-opacity:1;stroke-miterlimit:4;" d="M 248.309375 275.5375 L 257.796875 287.178125 " transform="matrix(1.25,0,0,1.25,0,0)"/>
<path style="fill:none;stroke-width:1.5;stroke-linecap:square;stroke-linejoin:round;stroke:rgb(0%,0%,0%);stroke-opacity:1;stroke-miterlimit:4;" d="M 178.559375 98.684375 L 178.003125 102.009375 " transform="matrix(1.25,0,0,1.25,0,0)"/>
<path style="fill:none;stroke-width:1.5;stroke-linecap:square;stroke-linejoin:round;stroke:rgb(0%,0%,0%);stroke-opacity:1;stroke-miterlimit:4;" d="M 210.365625 161.884375 L 212.596875 162.440625 " transform="matrix(1.25,0,0,1.25,0,0)"/>
<path style="fill:none;stroke-width:1.5;stroke-linecap:square;stroke-linejoin:round;stroke:rgb(0%,0%,0%);stroke-opacity:1;stroke-miterlimit:4;" d="M 192.509375 167.428125 L 194.959375 154.40625 L 196.85625 146.665625 L 199.203125 140.05625 L 202.0875 134.63125 L 205.596875 130.359375 L 209.875 127.21875 L 214.765625 125.36875 L 220.409375 124.740625 " transform="matrix(1.25,0,0,1.25,0,0)"/>
<path style="fill:none;stroke-width:1.5;stroke-linecap:square;stroke-linejoin:round;stroke:rgb(0%,0%,0%);stroke-opacity:1;stroke-miterlimit:4;" d="M 72.540625 94.246875 L 73.63125 88.409375 L 75.80625 83.49375 L 79.03125 79.45 L 83.078125 76.54375 L 87.940625 74.80625 L 93.115625 74.434375 L 98.39375 75.359375 L 103.7875 77.615625 " transform="matrix(1.25,0,0,1.25,0,0)"/>
<path style="fill:none;stroke-width:1.5;stroke-linecap:square;stroke-linejoin:round;stroke:rgb(0%,0%,0%);stroke-opacity:1;stroke-miterlimit:4;" d="M 59.70625 33.2625 L 74.4625 23.5 L 81.321875 20.20625 L 84.696875 19.5 L 87.59375 19.665625 L 90.646875 20.725 L 93.2625 22.5375 L 95.1875 24.65625 L 96.778125 27.3 L 97.865625 30.221875 L 98.390625 33.1 L 98.403125 36 L 97.865625 38.8 L 96.8375 41.246875 L 95.271875 43.41875 L 92.265625 45.54375 L 87.915625 46.45 L 82.775 46.3 L 72.540625 44.90625 " transform="matrix(1.25,0,0,1.25,0,0)"/>
<path style="fill:none;stroke-width:1.5;stroke-linecap:square;stroke-linejoin:round;stroke:rgb(0%,0%,0%);stroke-opacity:1;stroke-miterlimit:4;" d="M 103.23125 280.525 L 58.228125 336.521875 L 41.85 357.5875 " transform="matrix(1.25,0,0,1.25,0,0)"/>
<path style="fill:none;stroke-width:1.5;stroke-linecap:square;stroke-linejoin:round;stroke:rgb(0%,0%,0%);stroke-opacity:1;stroke-miterlimit:4;" d="M 221.525 149.134375 L 227.6625 149.6875 " transform="matrix(1.25,0,0,1.25,0,0)"/>
<path style="fill:none;stroke-width:1.5;stroke-linecap:square;stroke-linejoin:round;stroke:rgb(0%,0%,0%);stroke-opacity:1;stroke-miterlimit:4;" d="M 223.2 127.5125 L 226.14375 129.18125 L 228.534375 131.11875 L 230.55625 133.44375 L 232.278125 136.334375 L 234.371875 142.40625 L 237.384375 157.40625 L 241.1375 168.35 L 245.671875 177.94375 L 252.059375 187.034375 L 253.975 190.9125 L 254.615625 194.696875 L 254.4625 203.259375 L 255.634375 217.978125 L 255.5625 225.0875 " transform="matrix(1.25,0,0,1.25,0,0)"/>
<path style="fill:none;stroke-width:1.5;stroke-linecap:square;stroke-linejoin:round;stroke:rgb(0%,0%,0%);stroke-opacity:1;stroke-miterlimit:4;" d="M 348.75 26.05625 L 362.9875 24.7 L 367.2375 24.80625 L 370.921875 25.4125 L 374.35 26.65625 L 377.290625 28.5625 L 379.73125 31.14375 L 381.671875 34.371875 " transform="matrix(1.25,0,0,1.25,0,0)"/>
<path style="fill:none;stroke-width:1.5;stroke-linecap:square;stroke-linejoin:round;stroke:rgb(0%,0%,0%);stroke-opacity:1;stroke-miterlimit:4;" d="M 171.30625 322.659375 L 170.71875 325.996875 L 171.015625 329.56875 L 172.2 333.20625 L 174.096875 336.521875 " transform="matrix(1.25,0,0,1.25,0,0)"/>
<path style="fill:none;stroke-width:1.5;stroke-linecap:square;stroke-linejoin:round;stroke:rgb(0%,0%,0%);stroke-opacity:1;stroke-miterlimit:4;" d="M 243.2875 207.346875 L 241.065625 235.61875 L 242.73125 252.80625 " transform="matrix(1.25,0,0,1.25,0,0)"/>
<path style="fill:none;stroke-width:1.5;stroke-linecap:square;stroke-linejoin:round;stroke:rgb(0%,0%,0%);stroke-opacity:1;stroke-miterlimit:4;" d="M 186.371875 396.95 L 185.303125 406.684375 L 185.29375 410.31875 L 185.890625 412.975 L 188.35625 417.975 L 189.059375 420.3625 L 189.946875 439.990625 L 191.23125 449.234375 L 192.865625 454.653125 L 195.0625 458.978125 L 197.971875 462.525 L 201.4375 465.140625 " transform="matrix(1.25,0,0,1.25,0,0)"/>
<path style="fill:none;stroke-width:1.5;stroke-linecap:square;stroke-linejoin:round;stroke:rgb(0%,0%,0%);stroke-opacity:1;stroke-miterlimit:4;" d="M 156.240625 226.75 L 158.140625 230.11875 L 160.86875 233.121875 L 171.56875 240.7125 L 175.2125 243.9375 " transform="matrix(1.25,0,0,1.25,0,0)"/>
<path style="fill:none;stroke-width:1.5;stroke-linecap:square;stroke-linejoin:round;stroke:rgb(0%,0%,0%);stroke-opacity:1;stroke-miterlimit:4;" d="M 225.43125 438.53125 L 223.34375 449.003125 L 222.2375 458.840625 L 222.134375 466.3 L 223.209375 477.55 L 222.60625 482.690625 L 220.978125 486.2375 L 218.415625 488.96875 L 215.70625 490.265625 L 209.809375 491.753125 " transform="matrix(1.25,0,0,1.25,0,0)"/>
<path style="fill:none;stroke-width:1.5;stroke-linecap:square;stroke-linejoin:round;stroke:rgb(0%,0%,0%);stroke-opacity:1;stroke-miterlimit:4;" d="M 212.040625 162.440625 L 217.0625 162.99375 " transform="matrix(1.25,0,0,1.25,0,0)"/>
<path style="fill:none;stroke-width:1.5;stroke-linecap:square;stroke-linejoin:round;stroke:rgb(0%,0%,0%);stroke-opacity:1;stroke-miterlimit:4;" d="M 179.11875 87.040625 L 185.8125 87.040625 " transform="matrix(1.25,0,0,1.25,0,0)"/>
<path style="fill:none;stroke-width:1.5;stroke-linecap:square;stroke-linejoin:round;stroke:rgb(0%,0%,0%);stroke-opacity:1;stroke-miterlimit:4;" d="M 308.015625 84.821875 L 308.015625 107.553125 " transform="matrix(1.25,0,0,1.25,0,0)"/>
<path style="fill:none;stroke-width:1.5;stroke-linecap:square;stroke-linejoin:round;stroke:rgb(0%,0%,0%);stroke-opacity:1;stroke-miterlimit:4;" d="M 339.821875 33.2625 L 334.821875 28.1375 L 331.853125 24.171875 L 330.3375 21.06875 L 332.378125 20.928125 L 335.865625 21.665625 L 354.609375 28.2125 L 362.828125 31.565625 L 370.190625 35.128125 L 382.084375 41.553125 L 384.346875 43.303125 L 385.465625 44.875 L 385.471875 46.509375 L 384.115625 48.265625 L 381.28125 50.25625 L 376.65 52.66875 " transform="matrix(1.25,0,0,1.25,0,0)"/>
<path style="fill:none;stroke-width:1.5;stroke-linecap:square;stroke-linejoin:round;stroke:rgb(0%,0%,0%);stroke-opacity:1;stroke-miterlimit:4;" d="M 73.096875 98.684375 L 73.771875 102.121875 L 75.278125 105.571875 L 77.5375 108.859375 L 80.909375 112.54375 " transform="matrix(1.25,0,0,1.25,0,0)"/>
<path style="fill:none;stroke-width:1.5;stroke-linecap:square;stroke-linejoin:round;stroke:rgb(0%,0%,0%);stroke-opacity:1;stroke-miterlimit:4;" d="M 66.959375 44.90625 L 75.34375 48.065625 L 80.859375 51.084375 L 84.8375 54.690625 L 87.046875 58.765625 " transform="matrix(1.25,0,0,1.25,0,0)"/>
<path style="fill:none;stroke-width:1.5;stroke-linecap:square;stroke-linejoin:round;stroke:rgb(0%,0%,0%);stroke-opacity:1;stroke-miterlimit:4;" d="M 85.375 89.8125 L 85.375 93.69375 " transform="matrix(1.25,0,0,1.25,0,0)"/>
<path style="fill:none;stroke-width:1.5;stroke-linecap:square;stroke-linejoin:round;stroke:rgb(0%,0%,0%);stroke-opacity:1;stroke-miterlimit:4;" d="M 199.20625 501.178125 L 199.528125 504.88125 L 200.43125 507.675 L 201.95 509.584375 L 204.05 510.671875 L 207.721875 511.184375 L 211.93125 510.675 L 215.7125 509.26875 L 218.178125 507.275 " transform="matrix(1.25,0,0,1.25,0,0)"/>
<path style="fill:none;stroke-width:1.5;stroke-linecap:square;stroke-linejoin:round;stroke:rgb(0%,0%,0%);stroke-opacity:1;stroke-miterlimit:4;" d="M 196.415625 230.075 L 201.175 235.16875 L 205.96875 238.50625 L 208.0875 239.303125 L 209.984375 239.534375 L 211.628125 239.240625 L 213.15625 238.390625 " transform="matrix(1.25,0,0,1.25,0,0)"/>
<path style="fill:none;stroke-width:1.5;stroke-linecap:square;stroke-linejoin:round;stroke:rgb(0%,0%,0%);stroke-opacity:1;stroke-miterlimit:4;" d="M 252.215625 108.6625 L 255.00625 108.6625 " transform="matrix(1.25,0,0,1.25,0,0)"/>
<path style="fill:none;stroke-width:1.5;stroke-linecap:square;stroke-linejoin:round;stroke:rgb(0%,0%,0%);stroke-opacity:1;stroke-miterlimit:4;" d="M 31.80625 58.2125 L 25.403125 63.478125 L 21.96875 66.940625 L 19.70625 70.4 L 18.89375 73.53125 L 19.7 78.321875 L 22.1625 82.91875 L 25.98125 86.684375 L 30.45 88.9375 L 33.915625 89.478125 L 37.221875 88.975 L 40.390625 87.34375 L 42.778125 84.9375 L 43.46875 82.659375 L 43.61875 78.171875 L 44.5625 70.1 L 46.3125 62.646875 " transform="matrix(1.25,0,0,1.25,0,0)"/>
<path style="fill:none;stroke-width:1.5;stroke-linecap:square;stroke-linejoin:round;stroke:rgb(0%,0%,0%);stroke-opacity:1;stroke-miterlimit:4;" d="M 133.3625 279.971875 L 128.459375 284.5125 L 123.528125 290.315625 L 104.984375 316.75625 L 30.040625 432.0625 L 11.03125 462.534375 L 2.790625 474.565625 " transform="matrix(1.25,0,0,1.25,0,0)"/>
<path style="fill:none;stroke-width:1.5;stroke-linecap:square;stroke-linejoin:round;stroke:rgb(0%,0%,0%);stroke-opacity:1;stroke-miterlimit:4;" d="M 208.690625 209.5625 L 211.48125 213.44375 " transform="matrix(1.25,0,0,1.25,0,0)"/>
<path style="fill:none;stroke-width:1.5;stroke-linecap:square;stroke-linejoin:round;stroke:rgb(0%,0%,0%);stroke-opacity:1;stroke-miterlimit:4;" d="M 224.875 131.39375 L 227.46875 135.05625 L 229.575 138.846875 L 232.896875 147.75 L 234.4875 154.74375 L 238.4125 177.134375 L 239.940625 181.4 L 244.328125 190.825 L 245.6875 195.078125 L 246.328125 199.54375 L 247.078125 211.2 L 247.784375 214.7625 L 248.86875 217.878125 " transform="matrix(1.25,0,0,1.25,0,0)"/>
<path style="fill:none;stroke-width:1.5;stroke-linecap:square;stroke-linejoin:round;stroke:rgb(0%,0%,0%);stroke-opacity:1;stroke-miterlimit:4;" d="M 233.803125 176.853125 L 234.91875 178.515625 " transform="matrix(1.25,0,0,1.25,0,0)"/>
<path style="fill:none;stroke-width:1.5;stroke-linecap:square;stroke-linejoin:round;stroke:rgb(0%,0%,0%);stroke-opacity:1;stroke-miterlimit:4;" d="M 54.684375 84.821875 L 56.359375 84.821875 " transform="matrix(1.25,0,0,1.25,0,0)"/>
<path style="fill:none;stroke-width:1.5;stroke-linecap:square;stroke-linejoin:round;stroke:rgb(0%,0%,0%);stroke-opacity:1;stroke-miterlimit:4;" d="M 200.88125 172.41875 L 201.734375 160.99375 L 202.646875 153.846875 L 204.059375 147.471875 L 205.9375 142.3375 L 208.459375 138.03125 L 211.678125 134.703125 L 215.440625 132.521875 L 219.853125 131.39375 " transform="matrix(1.25,0,0,1.25,0,0)"/>
<path style="fill:none;stroke-width:1.5;stroke-linecap:square;stroke-linejoin:round;stroke:rgb(0%,0%,0%);stroke-opacity:1;stroke-miterlimit:4;" d="M 371.628125 55.99375 L 365.50625 54.1625 L 359.5375 51.590625 L 353.846875 48.3375 L 349.090625 44.790625 L 345.35 41.059375 L 342.803125 37.103125 L 342.009375 33.853125 L 342.3 32.45625 L 343.025 31.38125 L 344.065625 30.690625 L 345.509375 30.409375 L 349.253125 31.140625 L 357.7875 35.11875 L 364.178125 38.925 L 368.2875 42.246875 L 371.278125 45.659375 L 373.359375 49.396875 L 374.41875 53.221875 " transform="matrix(1.25,0,0,1.25,0,0)"/>
<path style="fill:none;stroke-width:1.5;stroke-linecap:square;stroke-linejoin:round;stroke:rgb(0%,0%,0%);stroke-opacity:1;stroke-miterlimit:4;" d="M 201.4375 167.984375 L 199.246875 169.640625 L 197.959375 171.215625 L 197.434375 172.859375 L 197.6625 174.446875 L 199.3125 177.078125 L 205.8375 184.0375 L 209.809375 191.821875 " transform="matrix(1.25,0,0,1.25,0,0)"/>
<path style="fill:none;stroke-width:1.5;stroke-linecap:square;stroke-linejoin:round;stroke:rgb(0%,0%,0%);stroke-opacity:1;stroke-miterlimit:4;" d="M 375.534375 52.66875 L 381.659375 61.840625 L 383.459375 65.434375 L 384.496875 68.46875 L 384.7875 70.503125 L 384.571875 72.325 L 381.725 78.29375 L 378.78125 82.2125 L 375.928125 84.609375 L 373.371875 85.325 L 372.228125 85.03125 L 371.2875 84.3 L 370.778125 82.503125 L 371.028125 75.828125 L 369.953125 61.5375 " transform="matrix(1.25,0,0,1.25,0,0)"/>
<path style="fill:none;stroke-width:1.5;stroke-linecap:square;stroke-linejoin:round;stroke:rgb(0%,0%,0%);stroke-opacity:1;stroke-miterlimit:4;" d="M 168.515625 317.671875 L 175.2125 330.978125 " transform="matrix(1.25,0,0,1.25,0,0)"/>
<path style="fill:none;stroke-width:1.5;stroke-linecap:square;stroke-linejoin:round;stroke:rgb(0%,0%,0%);stroke-opacity:1;stroke-miterlimit:4;" d="M 178.003125 93.140625 L 189.1625 93.69375 " transform="matrix(1.25,0,0,1.25,0,0)"/>
<path style="fill:none;stroke-width:1.5;stroke-linecap:square;stroke-linejoin:round;stroke:rgb(0%,0%,0%);stroke-opacity:1;stroke-miterlimit:4;" d="M 147.86875 83.715625 L 147.86875 105.890625 " transform="matrix(1.25,0,0,1.25,0,0)"/>
<path style="fill:none;stroke-width:1.5;stroke-linecap:square;stroke-linejoin:round;stroke:rgb(0%,0%,0%);stroke-opacity:1;stroke-miterlimit:4;" d="M 297.971875 281.08125 L 388.925 364.240625 " transform="matrix(1.25,0,0,1.25,0,0)"/>
<path style="fill:none;stroke-width:1.5;stroke-linecap:square;stroke-linejoin:round;stroke:rgb(0%,0%,0%);stroke-opacity:1;stroke-miterlimit:4;" d="M 179.11875 314.9 L 178.709375 325.071875 L 176.48125 352.6125 L 176.390625 360.690625 L 176.859375 368.08125 L 177.98125 375.190625 L 179.471875 380.140625 L 181.74375 385.421875 L 188.046875 398.059375 " transform="matrix(1.25,0,0,1.25,0,0)"/>
<path style="fill:none;stroke-width:1.5;stroke-linecap:square;stroke-linejoin:round;stroke:rgb(0%,0%,0%);stroke-opacity:1;stroke-miterlimit:4;" d="M 174.653125 301.040625 L 174.28125 302.9625 L 173.240625 304.49375 L 171.678125 305.48125 L 169.571875 306 L 166.84375 305.9625 L 164.078125 305.334375 L 161.5625 304.215625 L 159.5875 302.703125 " transform="matrix(1.25,0,0,1.25,0,0)"/>
<path style="fill:none;stroke-width:1.5;stroke-linecap:square;stroke-linejoin:round;stroke:rgb(0%,0%,0%);stroke-opacity:1;stroke-miterlimit:4;" d="M 217.61875 225.640625 L 218.178125 226.19375 L 217.0625 227.859375 L 215.946875 226.75 L 217.61875 225.640625 " transform="matrix(1.25,0,0,1.25,0,0)"/>
<path style="fill:none;stroke-width:1.5;stroke-linecap:square;stroke-linejoin:round;stroke:rgb(0%,0%,0%);stroke-opacity:1;stroke-miterlimit:4;" d="M 251.659375 227.859375 L 249.534375 242.828125 L 243.846875 252.253125 " transform="matrix(1.25,0,0,1.25,0,0)"/>
<path style="fill:none;stroke-width:1.5;stroke-linecap:square;stroke-linejoin:round;stroke:rgb(0%,0%,0%);stroke-opacity:1;stroke-miterlimit:4;" d="M 229.3375 105.3375 L 233.01875 106.99375 L 237.6125 107.709375 L 241.490625 107.215625 L 244.053125 105.678125 L 244.99375 104.175 L 245.34375 102.184375 L 244.99375 99.73125 L 244.115625 97.95 L 241.85625 96.265625 L 234.7875 94.009375 L 233.346875 92.6 L 232.75 90.7875 L 233.00625 89.3625 L 233.91875 87.9875 L 235.30625 87.0125 L 236.8125 86.609375 L 240.08125 87.1875 L 243.846875 89.8125 " transform="matrix(1.25,0,0,1.25,0,0)"/>
<path style="fill:none;stroke-width:1.5;stroke-linecap:square;stroke-linejoin:round;stroke:rgb(0%,0%,0%);stroke-opacity:1;stroke-miterlimit:4;" d="M 223.2 123.63125 L 227.675 125.13125 L 231.325 127.378125 L 234.190625 130.3625 L 236.490625 134.365625 L 238.440625 140.3375 L 241.803125 156.15625 L 250.53125 181.0625 L 253.33125 192.378125 " transform="matrix(1.25,0,0,1.25,0,0)"/>
<path style="fill:none;stroke-width:1.5;stroke-linecap:square;stroke-linejoin:round;stroke:rgb(0%,0%,0%);stroke-opacity:1;stroke-miterlimit:4;" d="M 212.596875 162.99375 L 219.29375 162.99375 " transform="matrix(1.25,0,0,1.25,0,0)"/>
<path style="fill:none;stroke-width:1.5;stroke-linecap:square;stroke-linejoin:round;stroke:rgb(0%,0%,0%);stroke-opacity:1;stroke-miterlimit:4;" d="M 216.503125 221.20625 L 218.7375 221.20625 " transform="matrix(1.25,0,0,1.25,0,0)"/>
<path style="fill:none;stroke-width:1.5;stroke-linecap:square;stroke-linejoin:round;stroke:rgb(0%,0%,0%);stroke-opacity:1;stroke-miterlimit:4;" d="M 207.01875 102.009375 L 209.809375 107 " transform="matrix(1.25,0,0,1.25,0,0)"/>
<path style="fill:none;stroke-width:1.5;stroke-linecap:square;stroke-linejoin:round;stroke:rgb(0%,0%,0%);stroke-opacity:1;stroke-miterlimit:4;" d="M 215.946875 217.325 L 218.896875 218.978125 L 221.865625 221.309375 L 224.871875 224.34375 L 227.6625 227.859375 " transform="matrix(1.25,0,0,1.25,0,0)"/>
<path style="fill:none;stroke-width:1.5;stroke-linecap:square;stroke-linejoin:round;stroke:rgb(0%,0%,0%);stroke-opacity:1;stroke-miterlimit:4;" d="M 77.5625 93.140625 L 78.225 89.275 L 79.784375 85.83125 L 82.2625 82.796875 L 85.290625 80.60625 L 88.06875 79.440625 L 90.9125 78.859375 L 94.075 78.871875 L 100.228125 80.121875 L 101.946875 79.790625 L 103.7875 78.725 " transform="matrix(1.25,0,0,1.25,0,0)"/>
<path style="fill:none;stroke-width:1.5;stroke-linecap:square;stroke-linejoin:round;stroke:rgb(0%,0%,0%);stroke-opacity:1;stroke-miterlimit:4;" d="M 85.375 89.259375 L 91.5125 94.246875 " transform="matrix(1.25,0,0,1.25,0,0)"/>
<path style="fill:none;stroke-width:1.5;stroke-linecap:square;stroke-linejoin:round;stroke:rgb(0%,0%,0%);stroke-opacity:1;stroke-miterlimit:4;" d="M 23.99375 42.6875 L 24.253125 37.940625 L 25.46875 33.665625 L 27.5375 29.971875 L 30.4875 26.85 L 34.125 24.590625 L 38.140625 23.340625 L 42.365625 23.084375 L 46.871875 23.840625 " transform="matrix(1.25,0,0,1.25,0,0)"/>
<path style="fill:none;stroke-width:1.5;stroke-linecap:square;stroke-linejoin:round;stroke:rgb(0%,0%,0%);stroke-opacity:1;stroke-miterlimit:4;" d="M 298.53125 34.928125 L 298.53125 52.1125 " transform="matrix(1.25,0,0,1.25,0,0)"/>
<path style="fill:none;stroke-width:1.5;stroke-linecap:square;stroke-linejoin:round;stroke:rgb(0%,0%,0%);stroke-opacity:1;stroke-miterlimit:4;" d="M 209.809375 190.7125 L 205.965625 186.546875 L 202.35 183.68125 L 198.453125 181.75625 L 190.828125 179.875 L 188.734375 178.371875 L 187.471875 176.409375 L 187.371875 174.984375 L 187.875 173.65 L 190.75 170.925 L 195.165625 168.775 L 201.996875 166.875 " transform="matrix(1.25,0,0,1.25,0,0)"/>
<path style="fill:none;stroke-width:1.5;stroke-linecap:square;stroke-linejoin:round;stroke:rgb(0%,0%,0%);stroke-opacity:1;stroke-miterlimit:4;" d="M 212.596875 229.521875 L 213.15625 229.521875 " transform="matrix(1.25,0,0,1.25,0,0)"/>
<path style="fill:none;stroke-width:1.5;stroke-linecap:square;stroke-linejoin:round;stroke:rgb(0%,0%,0%);stroke-opacity:1;stroke-miterlimit:4;" d="M 229.3375 161.884375 L 228.971875 164.528125 L 229.609375 167.028125 L 233.409375 172.603125 L 235.646875 178.1375 L 239.890625 183.778125 L 241.05625 186.83125 " transform="matrix(1.25,0,0,1.25,0,0)"/>
<path style="fill:none;stroke-width:1.5;stroke-linecap:square;stroke-linejoin:round;stroke:rgb(0%,0%,0%);stroke-opacity:1;stroke-miterlimit:4;" d="M 222.084375 124.740625 L 226.415625 126.45625 L 229.81875 128.703125 L 232.525 131.55 L 234.64375 135.134375 L 236.7875 142.109375 L 238.853125 157.196875 L 240.259375 163.25625 L 242.79375 169.334375 L 250.13125 183.1625 L 251.765625 187.371875 L 252.775 191.26875 " transform="matrix(1.25,0,0,1.25,0,0)"/>
<path style="fill:none;stroke-width:1.5;stroke-linecap:square;stroke-linejoin:round;stroke:rgb(0%,0%,0%);stroke-opacity:1;stroke-miterlimit:4;" d="M 270.071875 126.95625 L 270.63125 231.184375 L 270.63125 262.23125 L 270.071875 278.309375 " transform="matrix(1.25,0,0,1.25,0,0)"/>
<path style="fill:none;stroke-width:1.5;stroke-linecap:square;stroke-linejoin:round;stroke:rgb(0%,0%,0%);stroke-opacity:1;stroke-miterlimit:4;" d="M 174.653125 107.553125 L 190.278125 107 " transform="matrix(1.25,0,0,1.25,0,0)"/>
<path style="fill:none;stroke-width:1.5;stroke-linecap:square;stroke-linejoin:round;stroke:rgb(0%,0%,0%);stroke-opacity:1;stroke-miterlimit:4;" d="M 201.4375 88.703125 L 201.996875 95.9125 " transform="matrix(1.25,0,0,1.25,0,0)"/>
<path style="fill:none;stroke-width:1.5;stroke-linecap:square;stroke-linejoin:round;stroke:rgb(0%,0%,0%);stroke-opacity:1;stroke-miterlimit:4;" d="M 174.653125 83.159375 L 190.8375 83.159375 " transform="matrix(1.25,0,0,1.25,0,0)"/>
<path style="fill:none;stroke-width:1.5;stroke-linecap:square;stroke-linejoin:round;stroke:rgb(0%,0%,0%);stroke-opacity:1;stroke-miterlimit:4;" d="M 221.525 131.39375 L 230.00625 144.14375 L 234.484375 170.2 L 245.51875 184.059375 " transform="matrix(1.25,0,0,1.25,0,0)"/>
<path style="fill:none;stroke-width:1.5;stroke-linecap:square;stroke-linejoin:round;stroke:rgb(0%,0%,0%);stroke-opacity:1;stroke-miterlimit:4;" d="M 218.178125 194.59375 L 211.48125 196.8125 " transform="matrix(1.25,0,0,1.25,0,0)"/>
<path style="fill:none;stroke-width:1.5;stroke-linecap:square;stroke-linejoin:round;stroke:rgb(0%,0%,0%);stroke-opacity:1;stroke-miterlimit:4;" d="M 215.3875 217.878125 L 213.746875 216.23125 L 213.7 215.465625 L 214.165625 214.984375 L 214.9125 215.025 L 215.428125 215.621875 L 215.3875 217.878125 " transform="matrix(1.25,0,0,1.25,0,0)"/>
<path style="fill:none;stroke-width:1.5;stroke-linecap:square;stroke-linejoin:round;stroke:rgb(0%,0%,0%);stroke-opacity:1;stroke-miterlimit:4;" d="M 232.6875 223.978125 L 233.171875 229.1625 L 234.15625 234.340625 L 235.659375 239.65625 L 237.60625 244.828125 L 242.028125 253.459375 L 249.365625 262.903125 L 250.453125 265.121875 L 250.934375 267.028125 L 250.9 269.028125 L 250.253125 271.121875 L 246.334375 277.771875 L 244.103125 283.40625 L 241.846875 287.75 L 236.8 294.94375 L 230.53125 301.5125 L 223.375 307.071875 L 216.053125 311.065625 L 210.65 312.965625 L 205.065625 313.96875 L 199.6 314.240625 L 186.30625 314.103125 L 179.11875 314.9 " transform="matrix(1.25,0,0,1.25,0,0)"/>
<path style="fill:none;stroke-width:1.5;stroke-linecap:square;stroke-linejoin:round;stroke:rgb(0%,0%,0%);stroke-opacity:1;stroke-miterlimit:4;" d="M 308.015625 109.215625 L 310.80625 109.215625 " transform="matrix(1.25,0,0,1.25,0,0)"/>
<path style="fill:none;stroke-width:1.5;stroke-linecap:square;stroke-linejoin:round;stroke:rgb(0%,0%,0%);stroke-opacity:1;stroke-miterlimit:4;" d="M 212.596875 163.546875 L 216.503125 164.103125 " transform="matrix(1.25,0,0,1.25,0,0)"/>
<path style="fill:none;stroke-width:1.5;stroke-linecap:square;stroke-linejoin:round;stroke:rgb(0%,0%,0%);stroke-opacity:1;stroke-miterlimit:4;" d="M 220.96875 498.959375 L 219.65625 505.596875 L 218.54375 509.003125 L 216.934375 511.4625 L 214.896875 512.515625 L 205.85 511.9625 L 201.646875 510.65625 L 200.15625 509.453125 L 199.04375 507.7625 L 198.34375 505.496875 L 198.090625 502.840625 " transform="matrix(1.25,0,0,1.25,0,0)"/>
<path style="fill:none;stroke-width:1.5;stroke-linecap:square;stroke-linejoin:round;stroke:rgb(0%,0%,0%);stroke-opacity:1;stroke-miterlimit:4;" d="M 125.55 102.009375 L 124.434375 104.228125 " transform="matrix(1.25,0,0,1.25,0,0)"/>
<path style="fill:none;stroke-width:1.5;stroke-linecap:square;stroke-linejoin:round;stroke:rgb(0%,0%,0%);stroke-opacity:1;stroke-miterlimit:4;" d="M 175.2125 207.9 L 176.309375 214.8375 L 176.80625 222.246875 L 175.74375 255.228125 L 177.44375 292.16875 " transform="matrix(1.25,0,0,1.25,0,0)"/>
<path style="fill:none;stroke-width:1.5;stroke-linecap:square;stroke-linejoin:round;stroke:rgb(0%,0%,0%);stroke-opacity:1;stroke-miterlimit:4;" d="M 227.6625 228.4125 L 223.675 232.81875 L 217.61875 236.728125 " transform="matrix(1.25,0,0,1.25,0,0)"/>
<path style="fill:none;stroke-width:1.5;stroke-linecap:square;stroke-linejoin:round;stroke:rgb(0%,0%,0%);stroke-opacity:1;stroke-miterlimit:4;" d="M 204.228125 229.521875 L 203.975 227.834375 L 204.21875 226.546875 L 204.9125 225.596875 L 206 225.15625 L 207.203125 225.3625 L 208.209375 226.134375 L 208.896875 227.315625 L 209.25 228.96875 " transform="matrix(1.25,0,0,1.25,0,0)"/>
<path style="fill:none;stroke-width:1.5;stroke-linecap:square;stroke-linejoin:round;stroke:rgb(0%,0%,0%);stroke-opacity:1;stroke-miterlimit:4;" d="M 140.615625 84.821875 L 138.384375 87.040625 " transform="matrix(1.25,0,0,1.25,0,0)"/>
<path style="fill:none;stroke-width:1.5;stroke-linecap:square;stroke-linejoin:round;stroke:rgb(0%,0%,0%);stroke-opacity:1;stroke-miterlimit:4;" d="M 250.540625 273.31875 L 259.46875 277.753125 " transform="matrix(1.25,0,0,1.25,0,0)"/>
<path style="fill:none;stroke-width:1.5;stroke-linecap:square;stroke-linejoin:round;stroke:rgb(0%,0%,0%);stroke-opacity:1;stroke-miterlimit:4;" d="M 230.453125 158.559375 L 230.821875 164.053125 L 231.884375 169.559375 L 233.703125 175.553125 L 236.590625 182.953125 " transform="matrix(1.25,0,0,1.25,0,0)"/>
<path style="fill:none;stroke-width:1.5;stroke-linecap:square;stroke-linejoin:round;stroke:rgb(0%,0%,0%);stroke-opacity:1;stroke-miterlimit:4;" d="M 209.25 146.915625 L 212.040625 148.025 " transform="matrix(1.25,0,0,1.25,0,0)"/>
<path style="fill:none;stroke-width:1.5;stroke-linecap:square;stroke-linejoin:round;stroke:rgb(0%,0%,0%);stroke-opacity:1;stroke-miterlimit:4;" d="M 77.5625 94.803125 L 77.828125 97.85625 L 78.65 100.921875 L 79.96875 103.73125 L 81.85 106.340625 L 84.01875 108.378125 L 86.509375 109.925 L 89.096875 110.865625 L 91.86875 111.240625 L 94.596875 111.01875 L 97.403125 110.19375 L 100.06875 108.83125 L 102.290625 107.071875 L 105.425 102.6625 L 108.253125 95.35625 " transform="matrix(1.25,0,0,1.25,0,0)"/>
<path style="fill:none;stroke-width:1.5;stroke-linecap:square;stroke-linejoin:round;stroke:rgb(0%,0%,0%);stroke-opacity:1;stroke-miterlimit:4;" d="M 204.228125 230.63125 L 209.25 229.521875 " transform="matrix(1.25,0,0,1.25,0,0)"/>
<path style="fill:none;stroke-width:1.5;stroke-linecap:square;stroke-linejoin:round;stroke:rgb(0%,0%,0%);stroke-opacity:1;stroke-miterlimit:4;" d="M 126.109375 102.009375 L 130.246875 102.565625 L 134.021875 102.55 L 136.28125 101.9125 L 136.909375 100.76875 L 136.153125 99.228125 L 134.596875 97.8375 L 128.03125 95.26875 L 125.775 93.575 L 124.615625 91.56875 L 124.040625 89.475 L 124.175 87.75625 L 124.909375 86.384375 L 127.184375 84.775 L 130.859375 83.815625 L 135.821875 83.625 L 140.615625 84.26875 " transform="matrix(1.25,0,0,1.25,0,0)"/>
<path style="fill:none;stroke-width:1.5;stroke-linecap:square;stroke-linejoin:round;stroke:rgb(0%,0%,0%);stroke-opacity:1;stroke-miterlimit:4;" d="M 189.71875 94.246875 L 189.1625 96.465625 " transform="matrix(1.25,0,0,1.25,0,0)"/>
<path style="fill:none;stroke-width:1.5;stroke-linecap:square;stroke-linejoin:round;stroke:rgb(0%,0%,0%);stroke-opacity:1;stroke-miterlimit:4;" d="M 85.375 94.803125 L 92.06875 99.790625 " transform="matrix(1.25,0,0,1.25,0,0)"/>
<path style="fill:none;stroke-width:1.5;stroke-linecap:square;stroke-linejoin:round;stroke:rgb(0%,0%,0%);stroke-opacity:1;stroke-miterlimit:4;" d="M 196.975 108.109375 L 200.88125 108.109375 " transform="matrix(1.25,0,0,1.25,0,0)"/>
<path style="fill:none;stroke-width:1.5;stroke-linecap:square;stroke-linejoin:round;stroke:rgb(0%,0%,0%);stroke-opacity:1;stroke-miterlimit:4;" d="M 212.040625 232.29375 L 213.15625 232.846875 " transform="matrix(1.25,0,0,1.25,0,0)"/>
<path style="fill:none;stroke-width:1.5;stroke-linecap:square;stroke-linejoin:round;stroke:rgb(0%,0%,0%);stroke-opacity:1;stroke-miterlimit:4;" d="M 312.48125 88.15 L 315.74375 88.75 L 318.9 90.10625 L 320.75625 91.625 L 321.34375 93.3 L 320.409375 95.003125 L 317.996875 96.55 L 315.740625 97.021875 L 311.921875 97.01875 " transform="matrix(1.25,0,0,1.25,0,0)"/>
<path style="fill:none;stroke-width:1.5;stroke-linecap:square;stroke-linejoin:round;stroke:rgb(0%,0%,0%);stroke-opacity:1;stroke-miterlimit:4;" d="M 244.9625 85.93125 L 244.9625 89.259375 " transform="matrix(1.25,0,0,1.25,0,0)"/>
<path style="fill:none;stroke-width:1.5;stroke-linecap:square;stroke-linejoin:round;stroke:rgb(0%,0%,0%);stroke-opacity:1;stroke-miterlimit:4;" d="M 208.134375 392.515625 L 202.9125 423.9375 L 202.371875 432.73125 L 202.496875 452.58125 L 202.128125 461.171875 L 201.059375 468.659375 L 197.38125 483.68125 L 196.190625 489.978125 L 195.7625 496.315625 L 196.415625 501.73125 " transform="matrix(1.25,0,0,1.25,0,0)"/>
<path style="fill:none;stroke-width:1.5;stroke-linecap:square;stroke-linejoin:round;stroke:rgb(0%,0%,0%);stroke-opacity:1;stroke-miterlimit:4;" d="M 208.690625 217.878125 L 206.459375 218.9875 L 206.20625 216.43125 L 207.190625 215.265625 L 209.25 215.10625 " transform="matrix(1.25,0,0,1.25,0,0)"/>
<path style="fill:none;stroke-width:1.5;stroke-linecap:square;stroke-linejoin:round;stroke:rgb(0%,0%,0%);stroke-opacity:1;stroke-miterlimit:4;" d="M 208.134375 226.75 L 207.575 228.96875 " transform="matrix(1.25,0,0,1.25,0,0)"/>
<path style="fill:none;stroke-width:1.5;stroke-linecap:square;stroke-linejoin:round;stroke:rgb(0%,0%,0%);stroke-opacity:1;stroke-miterlimit:4;" d="M 290.159375 87.396875 L 293.275 87.74375 L 295.9125 89.24375 L 297.99375 91.859375 L 299.190625 95.21875 L 299.303125 98.734375 L 298.33125 101.79375 L 296.35625 104.03125 L 293.6375 105.171875 L 289.771875 105.175 L 286.490625 103.840625 L 283.975 101.259375 L 282.54375 97.696875 L 282.55625 93.78125 L 284.003125 90.53125 L 286.625 88.34375 L 290.159375 87.396875 " transform="matrix(1.25,0,0,1.25,0,0)"/>
<path style="fill:none;stroke-width:1.5;stroke-linecap:square;stroke-linejoin:round;stroke:rgb(0%,0%,0%);stroke-opacity:1;stroke-miterlimit:4;" d="M 229.3375 186.278125 L 220.96875 193.484375 " transform="matrix(1.25,0,0,1.25,0,0)"/>
<path style="fill:none;stroke-width:1.5;stroke-linecap:square;stroke-linejoin:round;stroke:rgb(0%,0%,0%);stroke-opacity:1;stroke-miterlimit:4;" d="M 238.265625 186.83125 L 244.01875 188.846875 L 248.640625 191.965625 L 251.971875 196.075 L 254.209375 201.4125 L 255.234375 207.05625 L 255.446875 213.675 L 253.33125 240.609375 " transform="matrix(1.25,0,0,1.25,0,0)"/>
<path style="fill:none;stroke-width:1.5;stroke-linecap:square;stroke-linejoin:round;stroke:rgb(0%,0%,0%);stroke-opacity:1;stroke-miterlimit:4;" d="M 205.903125 228.4125 L 207.01875 228.4125 " transform="matrix(1.25,0,0,1.25,0,0)"/>
<path style="fill:none;stroke-width:1.5;stroke-linecap:square;stroke-linejoin:round;stroke:rgb(0%,0%,0%);stroke-opacity:1;stroke-miterlimit:4;" d="M 199.20625 192.378125 L 200.625 193.8 L 202.33125 194.871875 L 206.459375 195.703125 " transform="matrix(1.25,0,0,1.25,0,0)"/>
<path style="fill:none;stroke-width:1.5;stroke-linecap:square;stroke-linejoin:round;stroke:rgb(0%,0%,0%);stroke-opacity:1;stroke-miterlimit:4;" d="M 176.8875 293.278125 L 176.234375 297.94375 L 176.340625 302.228125 L 177.1875 306.55625 L 179.11875 312.68125 " transform="matrix(1.25,0,0,1.25,0,0)"/>
<path style="fill:none;stroke-width:1.5;stroke-linecap:square;stroke-linejoin:round;stroke:rgb(0%,0%,0%);stroke-opacity:1;stroke-miterlimit:4;" d="M 190.8375 104.228125 L 190.8375 105.890625 " transform="matrix(1.25,0,0,1.25,0,0)"/>
<path style="fill:none;stroke-width:1.5;stroke-linecap:square;stroke-linejoin:round;stroke:rgb(0%,0%,0%);stroke-opacity:1;stroke-miterlimit:4;" d="M 173.5375 311.571875 L 174.79375 314.590625 L 175.68125 318.1625 L 176.328125 327.096875 " transform="matrix(1.25,0,0,1.25,0,0)"/>
<path style="fill:none;stroke-width:1.5;stroke-linecap:square;stroke-linejoin:round;stroke:rgb(0%,0%,0%);stroke-opacity:1;stroke-miterlimit:4;" d="M 229.3375 182.953125 L 232.5125 180.584375 L 234.865625 180.15 L 236.28125 181.009375 L 237.25625 182.421875 L 237.396875 183.74375 L 236.675 184.621875 L 234.334375 184.9 L 227.978125 183.646875 L 225.490625 184.165625 L 219.675 187.125 L 209.25 194.59375 " transform="matrix(1.25,0,0,1.25,0,0)"/>
<path style="fill:none;stroke-width:1.5;stroke-linecap:square;stroke-linejoin:round;stroke:rgb(0%,0%,0%);stroke-opacity:1;stroke-miterlimit:4;" d="M 210.365625 141.925 L 213.7125 143.034375 " transform="matrix(1.25,0,0,1.25,0,0)"/>
<path style="fill:none;stroke-width:1.5;stroke-linecap:square;stroke-linejoin:round;stroke:rgb(0%,0%,0%);stroke-opacity:1;stroke-miterlimit:4;" d="M 246.6375 186.278125 L 251.659375 215.6625 " transform="matrix(1.25,0,0,1.25,0,0)"/>
<path style="fill:none;stroke-width:1.5;stroke-linecap:square;stroke-linejoin:round;stroke:rgb(0%,0%,0%);stroke-opacity:1;stroke-miterlimit:4;" d="M 201.996875 101.45625 L 206.459375 101.45625 " transform="matrix(1.25,0,0,1.25,0,0)"/>
<path style="fill:none;stroke-width:1.5;stroke-linecap:square;stroke-linejoin:round;stroke:rgb(0%,0%,0%);stroke-opacity:1;stroke-miterlimit:4;" d="M 178.003125 103.11875 L 190.278125 103.671875 " transform="matrix(1.25,0,0,1.25,0,0)"/>
<path style="fill:none;stroke-width:1.5;stroke-linecap:square;stroke-linejoin:round;stroke:rgb(0%,0%,0%);stroke-opacity:1;stroke-miterlimit:4;" d="M 207.01875 141.371875 L 211.48125 141.925 " transform="matrix(1.25,0,0,1.25,0,0)"/>
<path style="fill:none;stroke-width:1.5;stroke-linecap:square;stroke-linejoin:round;stroke:rgb(0%,0%,0%);stroke-opacity:1;stroke-miterlimit:4;" d="M 218.178125 128.621875 L 212.65625 130.4 L 209.803125 131.86875 L 206.84375 134.553125 L 204.61875 137.8375 L 203.240625 141.10625 L 202.275 144.796875 L 200.43125 159.30625 L 199.20625 164.65625 " transform="matrix(1.25,0,0,1.25,0,0)"/>
<path style="fill:none;stroke-width:1.5;stroke-linecap:square;stroke-linejoin:round;stroke:rgb(0%,0%,0%);stroke-opacity:1;stroke-miterlimit:4;" d="M 112.159375 92.03125 L 111.49375 97.71875 L 109.53125 103.39375 L 106.540625 108.33125 L 102.628125 112.35 L 98.259375 114.95625 L 93.684375 116.115625 L 88.9125 115.846875 L 84.259375 114.20625 " transform="matrix(1.25,0,0,1.25,0,0)"/>
<path style="fill:none;stroke-width:1.5;stroke-linecap:square;stroke-linejoin:round;stroke:rgb(0%,0%,0%);stroke-opacity:1;stroke-miterlimit:4;" d="M 210.925 192.378125 L 213.971875 189.153125 L 217.51875 186.3875 L 221.440625 184.184375 L 225.990625 182.396875 " transform="matrix(1.25,0,0,1.25,0,0)"/>
<path style="fill:none;stroke-width:1.5;stroke-linecap:square;stroke-linejoin:round;stroke:rgb(0%,0%,0%);stroke-opacity:1;stroke-miterlimit:4;" d="M 211.48125 100.346875 L 215.3875 106.44375 " transform="matrix(1.25,0,0,1.25,0,0)"/>
<path style="fill:none;stroke-width:1.5;stroke-linecap:square;stroke-linejoin:round;stroke:rgb(0%,0%,0%);stroke-opacity:1;stroke-miterlimit:4;" d="M 174.096875 84.26875 L 174.096875 107.553125 " transform="matrix(1.25,0,0,1.25,0,0)"/>
<path style="fill:none;stroke-width:1.5;stroke-linecap:square;stroke-linejoin:round;stroke:rgb(0%,0%,0%);stroke-opacity:1;stroke-miterlimit:4;" d="M 288.4875 83.41875 L 290.9125 83.203125 L 293.1375 83.440625 L 295.290625 84.14375 L 297.309375 85.340625 L 299.128125 87.034375 L 300.59375 89.078125 L 302.434375 94.003125 L 302.575 99.259375 L 301.99375 101.7 L 300.959375 103.946875 L 299.565625 105.80625 L 297.875 107.25625 L 295.8 108.3625 L 293.509375 109.028125 L 290.825 109.30625 L 288.375 109.096875 L 286.034375 108.4 L 283.984375 107.278125 L 282.13125 105.690625 L 280.553125 103.653125 L 279.384375 101.3375 L 278.6125 98.69375 L 278.33125 95.953125 L 278.53125 93.3625 L 279.20625 90.875 L 280.365625 88.58125 L 281.925 86.678125 L 283.809375 85.190625 L 285.959375 84.11875 L 288.4875 83.41875 " transform="matrix(1.25,0,0,1.25,0,0)"/>
<path style="fill:none;stroke-width:1.5;stroke-linecap:square;stroke-linejoin:round;stroke:rgb(0%,0%,0%);stroke-opacity:1;stroke-miterlimit:4;" d="M 196.975 82.60625 L 203.715625 82.609375 L 207.840625 83.115625 L 211.48125 84.425 L 213.9 86.303125 L 215.39375 89.1125 L 215.48125 92.590625 L 214.084375 96.184375 L 211.48125 99.2375 " transform="matrix(1.25,0,0,1.25,0,0)"/>
<path style="fill:none;stroke-width:1.5;stroke-linecap:square;stroke-linejoin:round;stroke:rgb(0%,0%,0%);stroke-opacity:1;stroke-miterlimit:4;" d="M 234.91875 157.45 L 237.896875 171.5 L 240.48125 178.625 L 243.3875 183.00625 L 251.4875 190.93125 L 252.828125 192.946875 L 253.646875 195.00625 L 254.0625 197.521875 L 254.015625 200.2875 L 252.384375 209.5625 L 252.059375 213.915625 L 252.33125 219.4625 L 253.33125 226.19375 " transform="matrix(1.25,0,0,1.25,0,0)"/>
<path style="fill:none;stroke-width:1.5;stroke-linecap:square;stroke-linejoin:round;stroke:rgb(0%,0%,0%);stroke-opacity:1;stroke-miterlimit:4;" d="M 108.253125 82.60625 L 109.36875 84.821875 " transform="matrix(1.25,0,0,1.25,0,0)"/>
<path style="fill:none;stroke-width:1.5;stroke-linecap:square;stroke-linejoin:round;stroke:rgb(0%,0%,0%);stroke-opacity:1;stroke-miterlimit:4;" d="M 224.875 169.090625 L 229 171.328125 L 231.35625 173.2625 L 232.36875 175.134375 L 232.1 177.153125 L 230.115625 178.68125 L 222.35625 180.86875 L 217.88125 183.478125 L 212.75625 188.415625 L 209.25 194.040625 " transform="matrix(1.25,0,0,1.25,0,0)"/>
</g>
</svg>
