<?xml version="1.0" encoding="UTF-8"?>
<svg xmlns="http://www.w3.org/2000/svg" xmlns:xlink="http://www.w3.org/1999/xlink" width="734pt" height="516pt" viewBox="0 0 734 516" version="1.1">
<g id="surface1">
<path style="fill:none;stroke-width:1.5;stroke-linecap:square;stroke-linejoin:round;stroke:rgb(0%,0%,0%);stroke-opacity:1;stroke-miterlimit:4;" d="M 243.846875 191.26875 L 242.73125 206.790625 " transform="matrix(1.25,0,0,1.25,0,0)"/>
<path style="fill:none;stroke-width:1.5;stroke-linecap:square;stroke-linejoin:round;stroke:rgb(0%,0%,0%);stroke-opacity:1;stroke-miterlimit:4;" d="M 121.0875 171.309375 L 120.7625 164.859375 L 120.959375 161.634375 L 121.76875 159.08125 L 123.31875 157.45 " transform="matrix(1.25,0,0,1.25,0,0)"/>
<path style="fill:none;stroke-width:1.5;stroke-linecap:square;stroke-linejoin:round;stroke:rgb(0%,0%,0%);stroke-opacity:1;stroke-miterlimit:4;" d="M 239.940625 205.68125 L 239.596875 198.41875 L 239.953125 194.51875 L 241.175 191.7 L 243.2875 190.159375 " transform="matrix(1.25,0,0,1.25,0,0)"/>
<path style="fill:none;stroke-width:1.5;stroke-linecap:square;stroke-linejoin:round;stroke:rgb(0%,0%,0%);stroke-opacity:1;stroke-miterlimit:4;" d="M 454.2125 96.465625 L 456.109375 95.4375 L 458.234375 94.825 L 463.809375 94.603125 L 481.45 96.946875 L 514.134375 102.021875 L 520.340625 102.26875 L 525.6375 101.45625 " transform="matrix(1.25,0,0,1.25,0,0)"/>
<path style="fill:none;stroke-width:1.5;stroke-linecap:square;stroke-linejoin:round;stroke:rgb(0%,0%,0%);stroke-opacity:1;stroke-miterlimit:4;" d="M 546.28125 291.615625 L 546.059375 301.871875 L 547.15625 330.09375 L 546.571875 333.61875 L 545.04375 335.4125 L 542.715625 336.18125 L 539.234375 336.4375 L 526.328125 335.4125 L 467.603125 335.4125 " transform="matrix(1.25,0,0,1.25,0,0)"/>
<path style="fill:none;stroke-width:1.5;stroke-linecap:square;stroke-linejoin:round;stroke:rgb(0%,0%,0%);stroke-opacity:1;stroke-miterlimit:4;" d="M 243.846875 158.559375 L 243.2875 172.41875 " transform="matrix(1.25,0,0,1.25,0,0)"/>
<path style="fill:none;stroke-width:1.5;stroke-linecap:square;stroke-linejoin:round;stroke:rgb(0%,0%,0%);stroke-opacity:1;stroke-miterlimit:4;" d="M 50.778125 307.690625 L 50.778125 313.790625 " transform="matrix(1.25,0,0,1.25,0,0)"/>
<path style="fill:none;stroke-width:1.5;stroke-linecap:square;stroke-linejoin:round;stroke:rgb(0%,0%,0%);stroke-opacity:1;stroke-miterlimit:4;" d="M 302.99375 202.909375 L 304.625 201.215625 L 306.346875 200.96875 L 308.01875 202.234375 L 309.690625 204.925 L 313.73125 215.628125 L 320.56875 231.484375 L 334.8 267.221875 " transform="matrix(1.25,0,0,1.25,0,0)"/>
<path style="fill:none;stroke-width:1.5;stroke-linecap:square;stroke-linejoin:round;stroke:rgb(0%,0%,0%);stroke-opacity:1;stroke-miterlimit:4;" d="M 190.8375 121.96875 L 192.509375 140.2625 " transform="matrix(1.25,0,0,1.25,0,0)"/>
<path style="fill:none;stroke-width:1.5;stroke-linecap:square;stroke-linejoin:round;stroke:rgb(0%,0%,0%);stroke-opacity:1;stroke-miterlimit:4;" d="M 46.871875 253.359375 L 46.3125 265.003125 " transform="matrix(1.25,0,0,1.25,0,0)"/>
<path style="fill:none;stroke-width:1.5;stroke-linecap:square;stroke-linejoin:round;stroke:rgb(0%,0%,0%);stroke-opacity:1;stroke-miterlimit:4;" d="M 554.09375 192.378125 L 556.053125 212.55 L 557.134375 235.834375 L 557.83125 276.8 L 557.484375 281.878125 L 556.5625 285.75625 L 555.584375 287.771875 L 554.234375 289.33125 L 552.771875 290.165625 L 550.815625 290.48125 L 548.278125 290.228125 L 540.409375 288.365625 L 532.59375 287.015625 L 525.853125 286.3125 L 518.940625 286.071875 " transform="matrix(1.25,0,0,1.25,0,0)"/>
<path style="fill:none;stroke-width:1.5;stroke-linecap:square;stroke-linejoin:round;stroke:rgb(0%,0%,0%);stroke-opacity:1;stroke-miterlimit:4;" d="M 115.50625 77.615625 L 365.490625 78.171875 " transform="matrix(1.25,0,0,1.25,0,0)"/>
<path style="fill:none;stroke-width:1.5;stroke-linecap:square;stroke-linejoin:round;stroke:rgb(0%,0%,0%);stroke-opacity:1;stroke-miterlimit:4;" d="M 357.678125 158.003125 L 358.2375 172.41875 " transform="matrix(1.25,0,0,1.25,0,0)"/>
<path style="fill:none;stroke-width:1.5;stroke-linecap:square;stroke-linejoin:round;stroke:rgb(0%,0%,0%);stroke-opacity:1;stroke-miterlimit:4;" d="M 373.303125 269.4375 L 386.69375 265.55625 " transform="matrix(1.25,0,0,1.25,0,0)"/>
<path style="fill:none;stroke-width:1.5;stroke-linecap:square;stroke-linejoin:round;stroke:rgb(0%,0%,0%);stroke-opacity:1;stroke-miterlimit:4;" d="M 68.634375 252.80625 L 68.075 265.003125 " transform="matrix(1.25,0,0,1.25,0,0)"/>
<path style="fill:none;stroke-width:1.5;stroke-linecap:square;stroke-linejoin:round;stroke:rgb(0%,0%,0%);stroke-opacity:1;stroke-miterlimit:4;" d="M 29.015625 325.43125 L 29.43125 327.55625 L 30.228125 329.375 L 32.91875 332.26875 L 37.16875 334.19375 L 42.409375 334.85625 " transform="matrix(1.25,0,0,1.25,0,0)"/>
<path style="fill:none;stroke-width:1.5;stroke-linecap:square;stroke-linejoin:round;stroke:rgb(0%,0%,0%);stroke-opacity:1;stroke-miterlimit:4;" d="M 243.2875 125.29375 L 243.2875 139.709375 " transform="matrix(1.25,0,0,1.25,0,0)"/>
<path style="fill:none;stroke-width:1.5;stroke-linecap:square;stroke-linejoin:round;stroke:rgb(0%,0%,0%);stroke-opacity:1;stroke-miterlimit:4;" d="M 136.709375 117.53125 L 136.075 112.978125 L 136.18125 110.690625 L 136.9625 109.33125 L 138.759375 108.821875 L 149.35625 109.3 L 152.365625 110.025 L 153.65625 111.028125 L 154.4875 112.46875 L 155.125 116.978125 " transform="matrix(1.25,0,0,1.25,0,0)"/>
<path style="fill:none;stroke-width:1.5;stroke-linecap:square;stroke-linejoin:round;stroke:rgb(0%,0%,0%);stroke-opacity:1;stroke-miterlimit:4;" d="M 381.671875 271.103125 L 394.50625 266.665625 " transform="matrix(1.25,0,0,1.25,0,0)"/>
<path style="fill:none;stroke-width:1.5;stroke-linecap:square;stroke-linejoin:round;stroke:rgb(0%,0%,0%);stroke-opacity:1;stroke-miterlimit:4;" d="M 219.29375 191.821875 L 218.7375 205.68125 " transform="matrix(1.25,0,0,1.25,0,0)"/>
<path style="fill:none;stroke-width:1.5;stroke-linecap:square;stroke-linejoin:round;stroke:rgb(0%,0%,0%);stroke-opacity:1;stroke-miterlimit:4;" d="M 261.703125 205.68125 L 261.5 199.05 L 261.9125 195.290625 L 263.096875 192.625 L 265.05 191.26875 " transform="matrix(1.25,0,0,1.25,0,0)"/>
<path style="fill:none;stroke-width:1.5;stroke-linecap:square;stroke-linejoin:round;stroke:rgb(0%,0%,0%);stroke-opacity:1;stroke-miterlimit:4;" d="M 157.9125 176.853125 L 157.78125 181.078125 L 158.090625 183.41875 L 158.990625 185.1125 L 160.79375 186.3125 L 163.928125 187.015625 L 167.8875 187.0375 L 172.86875 186.403125 L 178.003125 185.16875 " transform="matrix(1.25,0,0,1.25,0,0)"/>
<path style="fill:none;stroke-width:1.5;stroke-linecap:square;stroke-linejoin:round;stroke:rgb(0%,0%,0%);stroke-opacity:1;stroke-miterlimit:4;" d="M 171.8625 159.1125 L 171.8625 171.8625 " transform="matrix(1.25,0,0,1.25,0,0)"/>
<path style="fill:none;stroke-width:1.5;stroke-linecap:square;stroke-linejoin:round;stroke:rgb(0%,0%,0%);stroke-opacity:1;stroke-miterlimit:4;" d="M 65.634375 198.490625 L 67.884375 197.84375 L 71.171875 198.10625 L 73.315625 199.053125 L 73.859375 200.4 L 73.175 201.565625 L 72.215625 202.14375 L 70.61875 202.390625 L 68.65625 202.159375 L 66.678125 201.446875 L 65.409375 200.50625 L 65.01875 199.5125 L 65.634375 198.490625 " transform="matrix(1.25,0,0,1.25,0,0)"/>
<path style="fill:none;stroke-width:1.5;stroke-linecap:square;stroke-linejoin:round;stroke:rgb(0%,0%,0%);stroke-opacity:1;stroke-miterlimit:4;" d="M 123.875 124.740625 L 123.875 138.6 " transform="matrix(1.25,0,0,1.25,0,0)"/>
<path style="fill:none;stroke-width:1.5;stroke-linecap:square;stroke-linejoin:round;stroke:rgb(0%,0%,0%);stroke-opacity:1;stroke-miterlimit:4;" d="M 279.559375 174.6375 L 290.715625 174.025 L 293.753125 174.328125 L 295.75 175.0375 L 296.959375 176.29375 L 297.659375 178.434375 L 297.825 181.396875 L 297.4125 185.16875 " transform="matrix(1.25,0,0,1.25,0,0)"/>
<path style="fill:none;stroke-width:1.5;stroke-linecap:square;stroke-linejoin:round;stroke:rgb(0%,0%,0%);stroke-opacity:1;stroke-miterlimit:4;" d="M 116.0625 206.790625 L 123.94375 206.440625 L 126.21875 206.78125 L 127.64375 207.471875 L 128.665625 208.771875 L 129.278125 210.70625 L 129.45625 217.325 " transform="matrix(1.25,0,0,1.25,0,0)"/>
<path style="fill:none;stroke-width:1.5;stroke-linecap:square;stroke-linejoin:round;stroke:rgb(0%,0%,0%);stroke-opacity:1;stroke-miterlimit:4;" d="M 219.29375 95.35625 L 218.7375 105.890625 " transform="matrix(1.25,0,0,1.25,0,0)"/>
<path style="fill:none;stroke-width:1.5;stroke-linecap:square;stroke-linejoin:round;stroke:rgb(0%,0%,0%);stroke-opacity:1;stroke-miterlimit:4;" d="M 89.8375 277.753125 L 89.8375 293.278125 " transform="matrix(1.25,0,0,1.25,0,0)"/>
<path style="fill:none;stroke-width:1.5;stroke-linecap:square;stroke-linejoin:round;stroke:rgb(0%,0%,0%);stroke-opacity:1;stroke-miterlimit:4;" d="M 497.178125 113.096875 L 489.925 117.53125 " transform="matrix(1.25,0,0,1.25,0,0)"/>
<path style="fill:none;stroke-width:1.5;stroke-linecap:square;stroke-linejoin:round;stroke:rgb(0%,0%,0%);stroke-opacity:1;stroke-miterlimit:4;" d="M 287.928125 172.971875 L 287.54375 165.796875 L 287.88125 162.00625 L 289.115625 159.34375 L 291.275 158.003125 " transform="matrix(1.25,0,0,1.25,0,0)"/>
<path style="fill:none;stroke-width:1.5;stroke-linecap:square;stroke-linejoin:round;stroke:rgb(0%,0%,0%);stroke-opacity:1;stroke-miterlimit:4;" d="M 456.44375 135.828125 L 458.55625 139.5375 L 459.575 142.7875 L 459.640625 145.071875 L 458.675 149.96875 L 458.834375 151.95 L 460.0125 153.690625 L 462.228125 154.634375 L 465.278125 154.878125 L 468.878125 154.50625 L 472.4125 153.60625 L 475.8125 152.228125 L 479.028125 150.43125 L 482.190625 148.14375 L 485.053125 145.525 L 487.690625 142.48125 " transform="matrix(1.25,0,0,1.25,0,0)"/>
<path style="fill:none;stroke-width:1.5;stroke-linecap:square;stroke-linejoin:round;stroke:rgb(0%,0%,0%);stroke-opacity:1;stroke-miterlimit:4;" d="M 326.43125 220.65 L 327.9 222.465625 L 329.6625 223.3 L 331.8625 223.41875 L 335.359375 222.86875 " transform="matrix(1.25,0,0,1.25,0,0)"/>
<path style="fill:none;stroke-width:1.5;stroke-linecap:square;stroke-linejoin:round;stroke:rgb(0%,0%,0%);stroke-opacity:1;stroke-miterlimit:4;" d="M 350.98125 174.6375 L 361.628125 174.159375 L 364.5375 174.4375 L 366.56875 175.1 L 367.578125 176.09375 L 368.075 178.021875 L 367.1625 184.059375 " transform="matrix(1.25,0,0,1.25,0,0)"/>
<path style="fill:none;stroke-width:1.5;stroke-linecap:square;stroke-linejoin:round;stroke:rgb(0%,0%,0%);stroke-opacity:1;stroke-miterlimit:4;" d="M 61.38125 297.159375 L 61.575 299.428125 L 62.13125 301.16875 L 63.0125 302.440625 L 64.309375 303.371875 L 68.096875 304.04375 L 74.2125 303.25625 " transform="matrix(1.25,0,0,1.25,0,0)"/>
<path style="fill:none;stroke-width:1.5;stroke-linecap:square;stroke-linejoin:round;stroke:rgb(0%,0%,0%);stroke-opacity:1;stroke-miterlimit:4;" d="M 311.921875 93.69375 L 311.921875 105.890625 " transform="matrix(1.25,0,0,1.25,0,0)"/>
<path style="fill:none;stroke-width:1.5;stroke-linecap:square;stroke-linejoin:round;stroke:rgb(0%,0%,0%);stroke-opacity:1;stroke-miterlimit:4;" d="M 62.496875 295.49375 L 70.334375 295.240625 L 73.753125 295.921875 L 74.971875 296.765625 L 75.85625 298.06875 L 76.359375 299.91875 L 76.446875 302.146875 " transform="matrix(1.25,0,0,1.25,0,0)"/>
<path style="fill:none;stroke-width:1.5;stroke-linecap:square;stroke-linejoin:round;stroke:rgb(0%,0%,0%);stroke-opacity:1;stroke-miterlimit:4;" d="M 350.98125 141.925 L 350.728125 149.6375 L 351.20625 151.55 L 352.15625 152.715625 L 353.965625 153.53125 L 356.475 153.821875 L 365.490625 153.015625 " transform="matrix(1.25,0,0,1.25,0,0)"/>
<path style="fill:none;stroke-width:1.5;stroke-linecap:square;stroke-linejoin:round;stroke:rgb(0%,0%,0%);stroke-opacity:1;stroke-miterlimit:4;" d="M 41.290625 274.98125 L 52.453125 274.98125 " transform="matrix(1.25,0,0,1.25,0,0)"/>
<path style="fill:none;stroke-width:1.5;stroke-linecap:square;stroke-linejoin:round;stroke:rgb(0%,0%,0%);stroke-opacity:1;stroke-miterlimit:4;" d="M 454.76875 268.884375 L 455.8875 273.31875 " transform="matrix(1.25,0,0,1.25,0,0)"/>
<path style="fill:none;stroke-width:1.5;stroke-linecap:square;stroke-linejoin:round;stroke:rgb(0%,0%,0%);stroke-opacity:1;stroke-miterlimit:4;" d="M 385.01875 259.459375 L 417.940625 261.121875 " transform="matrix(1.25,0,0,1.25,0,0)"/>
<path style="fill:none;stroke-width:1.5;stroke-linecap:square;stroke-linejoin:round;stroke:rgb(0%,0%,0%);stroke-opacity:1;stroke-miterlimit:4;" d="M 386.69375 230.075 L 392.275 231.184375 L 389.484375 233.95625 L 388.36875 231.740625 " transform="matrix(1.25,0,0,1.25,0,0)"/>
<path style="fill:none;stroke-width:1.5;stroke-linecap:square;stroke-linejoin:round;stroke:rgb(0%,0%,0%);stroke-opacity:1;stroke-miterlimit:4;" d="M 392.83125 231.184375 L 396.140625 232.275 L 399.540625 232.809375 L 403.45 232.840625 L 409.63125 232.2 L 412.696875 232.765625 L 415.0375 234.640625 L 416.278125 236.85625 L 416.228125 239.103125 L 414.921875 241.153125 L 412.80625 242.575 L 410.115625 243.315625 L 406.44375 243.26875 L 402.584375 242.6125 L 399.259375 241.475 L 395.9875 239.75625 L 392.871875 237.534375 L 389.484375 234.5125 " transform="matrix(1.25,0,0,1.25,0,0)"/>
<path style="fill:none;stroke-width:1.5;stroke-linecap:square;stroke-linejoin:round;stroke:rgb(0%,0%,0%);stroke-opacity:1;stroke-miterlimit:4;" d="M 132.246875 209.009375 L 133.128125 215.1875 L 134.396875 218.14375 L 137.046875 219.58125 L 142.25 220.45 L 148.696875 220.325 L 151.140625 219.81875 L 152.875 219.003125 L 153.865625 217.778125 L 154.446875 216.059375 L 154.565625 210.671875 " transform="matrix(1.25,0,0,1.25,0,0)"/>
<path style="fill:none;stroke-width:1.5;stroke-linecap:square;stroke-linejoin:round;stroke:rgb(0%,0%,0%);stroke-opacity:1;stroke-miterlimit:4;" d="M 171.8625 123.63125 L 170.746875 139.709375 " transform="matrix(1.25,0,0,1.25,0,0)"/>
<path style="fill:none;stroke-width:1.5;stroke-linecap:square;stroke-linejoin:round;stroke:rgb(0%,0%,0%);stroke-opacity:1;stroke-miterlimit:4;" d="M 488.809375 275.5375 L 484.24375 273.334375 L 481.178125 270.90625 L 480.68125 270 L 480.759375 269.15625 L 482.753125 267.953125 L 486.23125 267.625 L 490.678125 268.2875 L 495.85 269.890625 L 501.084375 272.209375 " transform="matrix(1.25,0,0,1.25,0,0)"/>
<path style="fill:none;stroke-width:1.5;stroke-linecap:square;stroke-linejoin:round;stroke:rgb(0%,0%,0%);stroke-opacity:1;stroke-miterlimit:4;" d="M 326.43125 218.9875 L 334.0875 218.215625 L 337.703125 224.53125 L 344.84375 242.271875 " transform="matrix(1.25,0,0,1.25,0,0)"/>
<path style="fill:none;stroke-width:1.5;stroke-linecap:square;stroke-linejoin:round;stroke:rgb(0%,0%,0%);stroke-opacity:1;stroke-miterlimit:4;" d="M 45.75625 228.4125 L 45.75625 230.075 " transform="matrix(1.25,0,0,1.25,0,0)"/>
<path style="fill:none;stroke-width:1.5;stroke-linecap:square;stroke-linejoin:round;stroke:rgb(0%,0%,0%);stroke-opacity:1;stroke-miterlimit:4;" d="M 262.259375 125.29375 L 261.703125 139.709375 " transform="matrix(1.25,0,0,1.25,0,0)"/>
<path style="fill:none;stroke-width:1.5;stroke-linecap:square;stroke-linejoin:round;stroke:rgb(0%,0%,0%);stroke-opacity:1;stroke-miterlimit:4;" d="M 229.3375 208.453125 L 246.875 208.421875 L 249.509375 208.940625 L 250.959375 210.278125 L 251.68125 212.3625 L 251.740625 215.434375 L 251.1 219.54375 " transform="matrix(1.25,0,0,1.25,0,0)"/>
<path style="fill:none;stroke-width:1.5;stroke-linecap:square;stroke-linejoin:round;stroke:rgb(0%,0%,0%);stroke-opacity:1;stroke-miterlimit:4;" d="M 52.453125 199.028125 L 51.85625 200.040625 L 50.659375 201.003125 L 47.409375 202.071875 L 45.115625 201.859375 L 43.734375 200.84375 L 43.36875 199.165625 L 44.5875 198.1875 L 48.503125 197.9125 L 58.590625 198.475 " transform="matrix(1.25,0,0,1.25,0,0)"/>
<path style="fill:none;stroke-width:1.5;stroke-linecap:square;stroke-linejoin:round;stroke:rgb(0%,0%,0%);stroke-opacity:1;stroke-miterlimit:4;" d="M 68.634375 279.41875 L 68.634375 293.83125 " transform="matrix(1.25,0,0,1.25,0,0)"/>
<path style="fill:none;stroke-width:1.5;stroke-linecap:square;stroke-linejoin:round;stroke:rgb(0%,0%,0%);stroke-opacity:1;stroke-miterlimit:4;" d="M 334.8 124.184375 L 336.959375 125.353125 L 338.11875 127.8125 L 338.465625 131.409375 L 338.146875 138.046875 " transform="matrix(1.25,0,0,1.25,0,0)"/>
<path style="fill:none;stroke-width:1.5;stroke-linecap:square;stroke-linejoin:round;stroke:rgb(0%,0%,0%);stroke-opacity:1;stroke-miterlimit:4;" d="M 516.709375 166.31875 L 516.378125 172.103125 L 514.73125 178.228125 L 506.825 195.6 L 498.946875 214.965625 L 496.15625 223.528125 L 495.059375 229.059375 L 494.465625 235.175 L 494.3875 253.915625 " transform="matrix(1.25,0,0,1.25,0,0)"/>
<path style="fill:none;stroke-width:1.5;stroke-linecap:square;stroke-linejoin:round;stroke:rgb(0%,0%,0%);stroke-opacity:1;stroke-miterlimit:4;" d="M 146.753125 158.559375 L 147.3125 171.8625 " transform="matrix(1.25,0,0,1.25,0,0)"/>
<path style="fill:none;stroke-width:1.5;stroke-linecap:square;stroke-linejoin:round;stroke:rgb(0%,0%,0%);stroke-opacity:1;stroke-miterlimit:4;" d="M 239.940625 171.8625 L 239.625 165.415625 L 239.815625 161.9125 L 240.6625 159.121875 L 242.171875 157.45 " transform="matrix(1.25,0,0,1.25,0,0)"/>
<path style="fill:none;stroke-width:1.5;stroke-linecap:square;stroke-linejoin:round;stroke:rgb(0%,0%,0%);stroke-opacity:1;stroke-miterlimit:4;" d="M 159.03125 143.590625 L 159.0375 149.75625 L 159.6875 151.29375 L 160.875 152.309375 L 163.4125 153.290625 L 166.859375 153.878125 L 177.44375 154.121875 " transform="matrix(1.25,0,0,1.25,0,0)"/>
<path style="fill:none;stroke-width:1.5;stroke-linecap:square;stroke-linejoin:round;stroke:rgb(0%,0%,0%);stroke-opacity:1;stroke-miterlimit:4;" d="M 206.459375 207.9 L 220.409375 207.9 L 225.975 209.184375 L 226.546875 216.771875 " transform="matrix(1.25,0,0,1.25,0,0)"/>
<path style="fill:none;stroke-width:1.5;stroke-linecap:square;stroke-linejoin:round;stroke:rgb(0%,0%,0%);stroke-opacity:1;stroke-miterlimit:4;" d="M 115.50625 175.74375 L 115.259375 183.33125 L 115.684375 185.334375 L 116.5125 186.603125 L 118.04375 187.378125 L 120.346875 187.7375 L 128.896875 187.3875 " transform="matrix(1.25,0,0,1.25,0,0)"/>
<path style="fill:none;stroke-width:1.5;stroke-linecap:square;stroke-linejoin:round;stroke:rgb(0%,0%,0%);stroke-opacity:1;stroke-miterlimit:4;" d="M 305.784375 120.30625 L 320.85 119.75 " transform="matrix(1.25,0,0,1.25,0,0)"/>
<path style="fill:none;stroke-width:1.5;stroke-linecap:square;stroke-linejoin:round;stroke:rgb(0%,0%,0%);stroke-opacity:1;stroke-miterlimit:4;" d="M 218.178125 92.584375 L 217.61875 104.78125 " transform="matrix(1.25,0,0,1.25,0,0)"/>
<path style="fill:none;stroke-width:1.5;stroke-linecap:square;stroke-linejoin:round;stroke:rgb(0%,0%,0%);stroke-opacity:1;stroke-miterlimit:4;" d="M 101.55625 189.05 L 104.346875 320.996875 " transform="matrix(1.25,0,0,1.25,0,0)"/>
<path style="fill:none;stroke-width:1.5;stroke-linecap:square;stroke-linejoin:round;stroke:rgb(0%,0%,0%);stroke-opacity:1;stroke-miterlimit:4;" d="M 206.459375 209.5625 L 206.44375 216.20625 L 207.125 217.665625 L 208.509375 218.68125 L 211.3375 219.515625 L 215.340625 219.859375 L 220.521875 219.675 L 225.990625 218.9875 " transform="matrix(1.25,0,0,1.25,0,0)"/>
<path style="fill:none;stroke-width:1.5;stroke-linecap:square;stroke-linejoin:round;stroke:rgb(0%,0%,0%);stroke-opacity:1;stroke-miterlimit:4;" d="M 145.08125 93.140625 L 146.490625 95.034375 L 147.30625 97.70625 L 147.3125 106.44375 " transform="matrix(1.25,0,0,1.25,0,0)"/>
<path style="fill:none;stroke-width:1.5;stroke-linecap:square;stroke-linejoin:round;stroke:rgb(0%,0%,0%);stroke-opacity:1;stroke-miterlimit:4;" d="M 328.103125 175.190625 L 327.9375 182.78125 L 328.496875 184.63125 L 329.609375 185.853125 L 331.8375 186.7875 L 335.11875 187.178125 L 339.353125 186.996875 L 344.2875 186.278125 " transform="matrix(1.25,0,0,1.25,0,0)"/>
<path style="fill:none;stroke-width:1.5;stroke-linecap:square;stroke-linejoin:round;stroke:rgb(0%,0%,0%);stroke-opacity:1;stroke-miterlimit:4;" d="M 255.5625 143.034375 L 255.3375 147.965625 L 255.571875 150.334375 L 256.315625 152.003125 L 257.853125 153.2375 L 261.3125 154.25625 L 265.721875 154.425 L 270.65 153.73125 L 273.978125 152.459375 " transform="matrix(1.25,0,0,1.25,0,0)"/>
<path style="fill:none;stroke-width:1.5;stroke-linecap:square;stroke-linejoin:round;stroke:rgb(0%,0%,0%);stroke-opacity:1;stroke-miterlimit:4;" d="M 232.128125 151.90625 L 231.953125 146.303125 L 232.28125 144.7 L 232.928125 143.659375 L 234.346875 142.909375 L 236.725 142.334375 L 243.596875 141.940625 L 248.853125 142.540625 L 250.340625 143.05625 L 251.20625 143.7875 L 251.928125 145.15625 L 252.271875 146.79375 L 252.215625 152.459375 " transform="matrix(1.25,0,0,1.25,0,0)"/>
<path style="fill:none;stroke-width:1.5;stroke-linecap:square;stroke-linejoin:round;stroke:rgb(0%,0%,0%);stroke-opacity:1;stroke-miterlimit:4;" d="M 112.715625 242.271875 L 112.715625 321.553125 " transform="matrix(1.25,0,0,1.25,0,0)"/>
<path style="fill:none;stroke-width:1.5;stroke-linecap:square;stroke-linejoin:round;stroke:rgb(0%,0%,0%);stroke-opacity:1;stroke-miterlimit:4;" d="M 98.03125 295.190625 L 98.80625 295.8375 L 99.31875 296.96875 L 99.2875 300.034375 L 98.240625 302.696875 L 96.190625 304.5125 L 92.775 306.096875 L 88.98125 306.73125 L 85.575 306.25625 L 84.221875 305.6375 L 83.471875 304.834375 L 82.58125 302.603125 L 82.26875 299.678125 L 82.678125 297.259375 L 83.684375 295.91875 L 86.440625 294.996875 L 90.646875 294.515625 L 95.128125 294.578125 L 98.03125 295.190625 " transform="matrix(1.25,0,0,1.25,0,0)"/>
<path style="fill:none;stroke-width:1.5;stroke-linecap:square;stroke-linejoin:round;stroke:rgb(0%,0%,0%);stroke-opacity:1;stroke-miterlimit:4;" d="M 88.721875 297.39375 L 92.8 296.96875 L 95.2125 297.23125 L 96.846875 298.4375 L 97.053125 300.15 L 95.615625 301.946875 L 92.846875 303.45 L 88.975 304.003125 L 86.11875 303.775 L 85.153125 303.284375 L 84.184375 302.203125 L 83.871875 301.315625 L 84.00625 300.35 L 85.703125 298.540625 L 88.721875 297.39375 " transform="matrix(1.25,0,0,1.25,0,0)"/>
<path style="fill:none;stroke-width:1.5;stroke-linecap:square;stroke-linejoin:round;stroke:rgb(0%,0%,0%);stroke-opacity:1;stroke-miterlimit:4;" d="M 263.375 174.08125 L 263.43125 161.4625 L 264.346875 158.690625 L 266.165625 156.89375 " transform="matrix(1.25,0,0,1.25,0,0)"/>
<path style="fill:none;stroke-width:1.5;stroke-linecap:square;stroke-linejoin:round;stroke:rgb(0%,0%,0%);stroke-opacity:1;stroke-miterlimit:4;" d="M 366.046875 78.171875 L 375.55625 78.528125 L 378.70625 79.190625 L 381.321875 80.29375 L 383.36875 81.875 L 384.83125 83.93125 L 385.78125 86.63125 L 386.1375 89.8125 " transform="matrix(1.25,0,0,1.25,0,0)"/>
<path style="fill:none;stroke-width:1.5;stroke-linecap:square;stroke-linejoin:round;stroke:rgb(0%,0%,0%);stroke-opacity:1;stroke-miterlimit:4;" d="M 266.165625 192.93125 L 265.609375 206.2375 " transform="matrix(1.25,0,0,1.25,0,0)"/>
<path style="fill:none;stroke-width:1.5;stroke-linecap:square;stroke-linejoin:round;stroke:rgb(0%,0%,0%);stroke-opacity:1;stroke-miterlimit:4;" d="M 392.83125 226.19375 L 395.0625 231.184375 " transform="matrix(1.25,0,0,1.25,0,0)"/>
<path style="fill:none;stroke-width:1.5;stroke-linecap:square;stroke-linejoin:round;stroke:rgb(0%,0%,0%);stroke-opacity:1;stroke-miterlimit:4;" d="M 191.39375 159.1125 L 191.39375 172.41875 " transform="matrix(1.25,0,0,1.25,0,0)"/>
<path style="fill:none;stroke-width:1.5;stroke-linecap:square;stroke-linejoin:round;stroke:rgb(0%,0%,0%);stroke-opacity:1;stroke-miterlimit:4;" d="M 239.38125 92.584375 L 241.1625 93.878125 L 242.134375 96.209375 L 242.425 99.303125 L 242.171875 105.3375 " transform="matrix(1.25,0,0,1.25,0,0)"/>
<path style="fill:none;stroke-width:1.5;stroke-linecap:square;stroke-linejoin:round;stroke:rgb(0%,0%,0%);stroke-opacity:1;stroke-miterlimit:4;" d="M 205.34375 176.853125 L 205.334375 183.484375 L 206.00625 185.05 L 207.41875 186.028125 L 211.603125 186.93125 L 217.334375 186.971875 L 221.95625 186.121875 L 223.490625 185.41875 L 224.315625 184.615625 " transform="matrix(1.25,0,0,1.25,0,0)"/>
<path style="fill:none;stroke-width:1.5;stroke-linecap:square;stroke-linejoin:round;stroke:rgb(0%,0%,0%);stroke-opacity:1;stroke-miterlimit:4;" d="M 207.575 108.6625 L 207.846875 116.09375 L 208.534375 118.190625 L 209.58125 119.284375 L 211.734375 120.059375 L 215.115625 120.478125 L 226.546875 120.30625 " transform="matrix(1.25,0,0,1.25,0,0)"/>
<path style="fill:none;stroke-width:1.5;stroke-linecap:square;stroke-linejoin:round;stroke:rgb(0%,0%,0%);stroke-opacity:1;stroke-miterlimit:4;" d="M 35.7125 190.7125 L 34.596875 320.996875 " transform="matrix(1.25,0,0,1.25,0,0)"/>
<path style="fill:none;stroke-width:1.5;stroke-linecap:square;stroke-linejoin:round;stroke:rgb(0%,0%,0%);stroke-opacity:1;stroke-miterlimit:4;" d="M 304.66875 118.0875 L 304.475 112.075 L 304.76875 110.4125 L 305.44375 109.121875 L 306.459375 108.44375 L 308.415625 107.915625 L 313.740625 107.625 L 319.178125 108.346875 L 320.828125 108.965625 L 321.7875 109.796875 L 322.425 111.19375 L 322.671875 113.053125 L 321.965625 118.640625 " transform="matrix(1.25,0,0,1.25,0,0)"/>
<path style="fill:none;stroke-width:1.5;stroke-linecap:square;stroke-linejoin:round;stroke:rgb(0%,0%,0%);stroke-opacity:1;stroke-miterlimit:4;" d="M 42.96875 217.065625 L 47.453125 216.55 L 50.6 217.08125 L 52.00625 218.653125 L 51.746875 221.078125 L 50.40625 222.875 L 48.5375 223.8375 L 44.953125 224.45625 L 42.09375 223.96875 L 40.215625 222.25 L 39.80625 220.178125 L 40.8625 218.196875 L 42.96875 217.065625 " transform="matrix(1.25,0,0,1.25,0,0)"/>
<path style="fill:none;stroke-width:1.5;stroke-linecap:square;stroke-linejoin:round;stroke:rgb(0%,0%,0%);stroke-opacity:1;stroke-miterlimit:4;" d="M 27.9 190.159375 L 28.896875 185.06875 L 30.88125 181.415625 L 33.971875 178.99375 L 37.94375 177.9625 " transform="matrix(1.25,0,0,1.25,0,0)"/>
<path style="fill:none;stroke-width:1.5;stroke-linecap:square;stroke-linejoin:round;stroke:rgb(0%,0%,0%);stroke-opacity:1;stroke-miterlimit:4;" d="M 159.03125 108.6625 L 159.853125 115.853125 L 160.615625 117.65625 L 161.853125 118.721875 L 164.140625 119.440625 L 167.540625 119.75 L 179.11875 119.196875 " transform="matrix(1.25,0,0,1.25,0,0)"/>
<path style="fill:none;stroke-width:1.5;stroke-linecap:square;stroke-linejoin:round;stroke:rgb(0%,0%,0%);stroke-opacity:1;stroke-miterlimit:4;" d="M 291.275 159.1125 L 291.275 172.971875 " transform="matrix(1.25,0,0,1.25,0,0)"/>
<path style="fill:none;stroke-width:1.5;stroke-linecap:square;stroke-linejoin:round;stroke:rgb(0%,0%,0%);stroke-opacity:1;stroke-miterlimit:4;" d="M 88.1625 207.346875 L 88.721875 212.890625 " transform="matrix(1.25,0,0,1.25,0,0)"/>
<path style="fill:none;stroke-width:1.5;stroke-linecap:square;stroke-linejoin:round;stroke:rgb(0%,0%,0%);stroke-opacity:1;stroke-miterlimit:4;" d="M 354.33125 225.0875 L 359.353125 240.05625 " transform="matrix(1.25,0,0,1.25,0,0)"/>
<path style="fill:none;stroke-width:1.5;stroke-linecap:square;stroke-linejoin:round;stroke:rgb(0%,0%,0%);stroke-opacity:1;stroke-miterlimit:4;" d="M 497.7375 174.08125 L 493.684375 178.515625 L 488.34375 182.36875 L 479.321875 186.71875 L 471.003125 189.125 L 469.25625 190.3125 L 468.375 191.740625 L 467.8625 193.846875 L 467.7 196.7875 L 468.159375 204.81875 L 468.71875 245.6 " transform="matrix(1.25,0,0,1.25,0,0)"/>
<path style="fill:none;stroke-width:1.5;stroke-linecap:square;stroke-linejoin:round;stroke:rgb(0%,0%,0%);stroke-opacity:1;stroke-miterlimit:4;" d="M 256.68125 275.5375 L 286.253125 276.646875 L 332.56875 276.646875 " transform="matrix(1.25,0,0,1.25,0,0)"/>
<path style="fill:none;stroke-width:1.5;stroke-linecap:square;stroke-linejoin:round;stroke:rgb(0%,0%,0%);stroke-opacity:1;stroke-miterlimit:4;" d="M 89.28125 250.5875 L 89.8375 264.45 " transform="matrix(1.25,0,0,1.25,0,0)"/>
<path style="fill:none;stroke-width:1.5;stroke-linecap:square;stroke-linejoin:round;stroke:rgb(0%,0%,0%);stroke-opacity:1;stroke-miterlimit:4;" d="M 349.865625 175.74375 L 350.490625 181.825 L 351.23125 183.45 L 352.325 184.340625 L 354.50625 184.95 L 357.759375 185.103125 L 366.60625 184.059375 " transform="matrix(1.25,0,0,1.25,0,0)"/>
<path style="fill:none;stroke-width:1.5;stroke-linecap:square;stroke-linejoin:round;stroke:rgb(0%,0%,0%);stroke-opacity:1;stroke-miterlimit:4;" d="M 41.290625 274.98125 L 40.39375 272.98125 L 40.690625 271.225 L 42.2 269.79375 L 44.665625 268.9875 L 47.525 269 L 49.99375 269.78125 L 51.8875 271.25 L 53.009375 273.31875 " transform="matrix(1.25,0,0,1.25,0,0)"/>
<path style="fill:none;stroke-width:1.5;stroke-linecap:square;stroke-linejoin:round;stroke:rgb(0%,0%,0%);stroke-opacity:1;stroke-miterlimit:4;" d="M 91.5125 283.853125 L 90.953125 291.615625 " transform="matrix(1.25,0,0,1.25,0,0)"/>
<path style="fill:none;stroke-width:1.5;stroke-linecap:square;stroke-linejoin:round;stroke:rgb(0%,0%,0%);stroke-opacity:1;stroke-miterlimit:4;" d="M 116.621875 141.371875 L 125.590625 141.465625 L 127.99375 141.9375 L 129.815625 142.809375 L 131.146875 144.225 L 131.88125 146.153125 L 132.0625 148.76875 L 131.6875 151.90625 " transform="matrix(1.25,0,0,1.25,0,0)"/>
<path style="fill:none;stroke-width:1.5;stroke-linecap:square;stroke-linejoin:round;stroke:rgb(0%,0%,0%);stroke-opacity:1;stroke-miterlimit:4;" d="M 454.2125 95.9125 L 457.746875 91.946875 L 461.825 88.415625 L 466.5375 85.25625 L 471.64375 82.65 L 477.04375 80.64375 L 482.440625 79.325 L 487.9375 78.653125 L 493.44375 78.665625 L 498.275 79.290625 L 502.984375 80.51875 L 507.325 82.290625 L 511.503125 84.709375 L 515.128125 87.540625 L 518.3375 90.7875 L 521.171875 94.3875 L 523.61875 98.8125 L 525.034375 100.05625 L 527.271875 100.190625 L 532.7125 98.75 L 538.15625 98.74375 L 543.840625 99.840625 L 548.571875 102.084375 L 551.9125 105.05625 L 554.403125 109.046875 L 556.384375 114.659375 L 557.35625 120.909375 L 557.45625 125.8875 L 557.0625 131.58125 L 553.6375 153.575 L 552.978125 162.440625 " transform="matrix(1.25,0,0,1.25,0,0)"/>
<path style="fill:none;stroke-width:1.5;stroke-linecap:square;stroke-linejoin:round;stroke:rgb(0%,0%,0%);stroke-opacity:1;stroke-miterlimit:4;" d="M 115.50625 141.371875 L 115.43125 149.340625 L 116.059375 151.446875 L 117.26875 152.86875 L 119.734375 153.928125 L 123.303125 154.34375 L 127.65 154 L 131.13125 153.015625 " transform="matrix(1.25,0,0,1.25,0,0)"/>
<path style="fill:none;stroke-width:1.5;stroke-linecap:square;stroke-linejoin:round;stroke:rgb(0%,0%,0%);stroke-opacity:1;stroke-miterlimit:4;" d="M 197.53125 142.715625 L 200.7 142.375 L 202.875 142.56875 L 204.2875 143.3125 L 205.540625 144.7125 L 206.075 146.359375 L 205.828125 148.190625 L 204.69375 150.221875 L 202.9375 151.978125 L 199.5125 153.790625 L 194.5625 154.26875 L 188.325 153.93125 L 186.1875 153.31875 L 185.028125 152.53125 L 184.1625 150.48125 L 183.8625 147.7375 L 184.175 145.1375 L 185.034375 143.60625 L 186.409375 142.95 L 188.45 142.625 L 197.53125 142.715625 " transform="matrix(1.25,0,0,1.25,0,0)"/>
<path style="fill:none;stroke-width:1.5;stroke-linecap:square;stroke-linejoin:round;stroke:rgb(0%,0%,0%);stroke-opacity:1;stroke-miterlimit:4;" d="M 61.9375 296.603125 L 76.446875 296.603125 " transform="matrix(1.25,0,0,1.25,0,0)"/>
<path style="fill:none;stroke-width:1.5;stroke-linecap:square;stroke-linejoin:round;stroke:rgb(0%,0%,0%);stroke-opacity:1;stroke-miterlimit:4;" d="M 159.5875 142.48125 L 175.83125 142.425 L 178.1125 142.890625 L 179.165625 144.0875 L 179.446875 146.025 L 179.078125 148.76875 L 178.003125 152.459375 " transform="matrix(1.25,0,0,1.25,0,0)"/>
<path style="fill:none;stroke-width:1.5;stroke-linecap:square;stroke-linejoin:round;stroke:rgb(0%,0%,0%);stroke-opacity:1;stroke-miterlimit:4;" d="M 83.490625 197.94375 L 85.7625 197.384375 L 88.9125 197.9125 L 91.046875 199.15 L 91.475 199.928125 L 91.40625 200.690625 L 90.578125 201.7625 L 89.525 202.35625 L 88.096875 202.44375 L 86.31875 202.053125 L 84.49375 201.1875 L 83.209375 200.04375 L 82.8625 198.915625 L 83.490625 197.94375 " transform="matrix(1.25,0,0,1.25,0,0)"/>
<path style="fill:none;stroke-width:1.5;stroke-linecap:square;stroke-linejoin:round;stroke:rgb(0%,0%,0%);stroke-opacity:1;stroke-miterlimit:4;" d="M 233.24375 119.75 L 250.540625 119.75 " transform="matrix(1.25,0,0,1.25,0,0)"/>
<path style="fill:none;stroke-width:1.5;stroke-linecap:square;stroke-linejoin:round;stroke:rgb(0%,0%,0%);stroke-opacity:1;stroke-miterlimit:4;" d="M 220.409375 124.740625 L 219.29375 139.709375 " transform="matrix(1.25,0,0,1.25,0,0)"/>
<path style="fill:none;stroke-width:1.5;stroke-linecap:square;stroke-linejoin:round;stroke:rgb(0%,0%,0%);stroke-opacity:1;stroke-miterlimit:4;" d="M 42.965625 334.85625 L 95.41875 334.303125 " transform="matrix(1.25,0,0,1.25,0,0)"/>
<path style="fill:none;stroke-width:1.5;stroke-linecap:square;stroke-linejoin:round;stroke:rgb(0%,0%,0%);stroke-opacity:1;stroke-miterlimit:4;" d="M 286.8125 93.140625 L 287.36875 104.78125 " transform="matrix(1.25,0,0,1.25,0,0)"/>
<path style="fill:none;stroke-width:1.5;stroke-linecap:square;stroke-linejoin:round;stroke:rgb(0%,0%,0%);stroke-opacity:1;stroke-miterlimit:4;" d="M 62.83125 242.84375 L 64.328125 242.203125 L 66.48125 241.94375 L 71.634375 242.5375 L 75.0375 244.18125 L 75.728125 245.2125 L 75.734375 246.3 L 74.415625 248.159375 L 72.05 249.246875 L 68.06875 249.809375 L 64.153125 249.471875 L 62.71875 248.75625 L 61.9375 247.05625 L 61.9375 244.534375 L 62.83125 242.84375 " transform="matrix(1.25,0,0,1.25,0,0)"/>
<path style="fill:none;stroke-width:1.5;stroke-linecap:square;stroke-linejoin:round;stroke:rgb(0%,0%,0%);stroke-opacity:1;stroke-miterlimit:4;" d="M 121.64375 204.01875 L 121.103125 197.628125 L 121.18125 194.634375 L 121.88125 192.43125 L 123.31875 191.26875 " transform="matrix(1.25,0,0,1.25,0,0)"/>
<path style="fill:none;stroke-width:1.5;stroke-linecap:square;stroke-linejoin:round;stroke:rgb(0%,0%,0%);stroke-opacity:1;stroke-miterlimit:4;" d="M 350.98125 223.978125 L 354.8875 238.390625 " transform="matrix(1.25,0,0,1.25,0,0)"/>
<path style="fill:none;stroke-width:1.5;stroke-linecap:square;stroke-linejoin:round;stroke:rgb(0%,0%,0%);stroke-opacity:1;stroke-miterlimit:4;" d="M 193.06875 279.971875 L 198.953125 280.784375 L 205.5625 281.178125 L 228.834375 281.00625 L 285.378125 282.50625 L 336.015625 282.7375 L 373.91875 282.015625 L 406.840625 283.653125 L 413.01875 283.440625 L 418.5 282.74375 " transform="matrix(1.25,0,0,1.25,0,0)"/>
<path style="fill:none;stroke-width:1.5;stroke-linecap:square;stroke-linejoin:round;stroke:rgb(0%,0%,0%);stroke-opacity:1;stroke-miterlimit:4;" d="M 302.4375 176.3 L 302.396875 183.4 L 303.090625 185.11875 L 304.3625 186.115625 L 306.6375 186.734375 L 309.71875 186.884375 L 321.965625 185.725 " transform="matrix(1.25,0,0,1.25,0,0)"/>
<path style="fill:none;stroke-width:1.5;stroke-linecap:square;stroke-linejoin:round;stroke:rgb(0%,0%,0%);stroke-opacity:1;stroke-miterlimit:4;" d="M 335.915625 95.35625 L 335.915625 102.5625 " transform="matrix(1.25,0,0,1.25,0,0)"/>
<path style="fill:none;stroke-width:1.5;stroke-linecap:square;stroke-linejoin:round;stroke:rgb(0%,0%,0%);stroke-opacity:1;stroke-miterlimit:4;" d="M 373.303125 90.921875 L 373.859375 196.25625 " transform="matrix(1.25,0,0,1.25,0,0)"/>
<path style="fill:none;stroke-width:1.5;stroke-linecap:square;stroke-linejoin:round;stroke:rgb(0%,0%,0%);stroke-opacity:1;stroke-miterlimit:4;" d="M 124.434375 158.003125 L 123.875 172.971875 " transform="matrix(1.25,0,0,1.25,0,0)"/>
<path style="fill:none;stroke-width:1.5;stroke-linecap:square;stroke-linejoin:round;stroke:rgb(0%,0%,0%);stroke-opacity:1;stroke-miterlimit:4;" d="M 314.153125 158.559375 L 314.153125 171.8625 " transform="matrix(1.25,0,0,1.25,0,0)"/>
<path style="fill:none;stroke-width:1.5;stroke-linecap:square;stroke-linejoin:round;stroke:rgb(0%,0%,0%);stroke-opacity:1;stroke-miterlimit:4;" d="M 256.68125 240.609375 L 257.2375 274.428125 " transform="matrix(1.25,0,0,1.25,0,0)"/>
<path style="fill:none;stroke-width:1.5;stroke-linecap:square;stroke-linejoin:round;stroke:rgb(0%,0%,0%);stroke-opacity:1;stroke-miterlimit:4;" d="M 532.33125 178.515625 L 533.55625 181.475 L 534.23125 184.534375 L 534.159375 186.921875 L 533.446875 188.59375 L 532.45 189.484375 L 530.921875 190.003125 L 524.25625 189.61875 L 523.1125 190.203125 L 522.490625 191.359375 L 522.7875 193.928125 L 526.05 199.815625 L 526.08125 201.378125 L 525.3375 203.08125 L 522.290625 206.996875 L 508.275 220.646875 L 502.2 227.45625 L 497.546875 234.640625 L 496.00625 238.175 L 494.946875 241.71875 " transform="matrix(1.25,0,0,1.25,0,0)"/>
<path style="fill:none;stroke-width:1.5;stroke-linecap:square;stroke-linejoin:round;stroke:rgb(0%,0%,0%);stroke-opacity:1;stroke-miterlimit:4;" d="M 325.871875 108.109375 L 326.1625 116.528125 L 326.865625 118.7875 L 328.0125 119.921875 L 330.603125 120.709375 L 334.54375 120.95 L 339.871875 120.621875 L 345.959375 119.75 " transform="matrix(1.25,0,0,1.25,0,0)"/>
<path style="fill:none;stroke-width:1.5;stroke-linecap:square;stroke-linejoin:round;stroke:rgb(0%,0%,0%);stroke-opacity:1;stroke-miterlimit:4;" d="M 114.946875 174.08125 L 124.765625 173.909375 L 126.9 174.2625 L 128.53125 174.9875 L 129.74375 176.221875 L 130.46875 178.115625 L 130.571875 184.615625 " transform="matrix(1.25,0,0,1.25,0,0)"/>
<path style="fill:none;stroke-width:1.5;stroke-linecap:square;stroke-linejoin:round;stroke:rgb(0%,0%,0%);stroke-opacity:1;stroke-miterlimit:4;" d="M 279.559375 208.453125 L 291.484375 207.40625 L 294.715625 207.63125 L 296.9625 208.328125 L 298.35 209.51875 L 299.08125 211.540625 L 299.125 213.859375 L 298.53125 218.434375 " transform="matrix(1.25,0,0,1.25,0,0)"/>
<path style="fill:none;stroke-width:1.5;stroke-linecap:square;stroke-linejoin:round;stroke:rgb(0%,0%,0%);stroke-opacity:1;stroke-miterlimit:4;" d="M 488.25 282.74375 L 489.365625 332.640625 " transform="matrix(1.25,0,0,1.25,0,0)"/>
<path style="fill:none;stroke-width:1.5;stroke-linecap:square;stroke-linejoin:round;stroke:rgb(0%,0%,0%);stroke-opacity:1;stroke-miterlimit:4;" d="M 329.253125 211.828125 L 330.7 211.6875 L 331.921875 212.69375 L 332.078125 214.084375 L 331.1125 215.171875 L 329.4875 215.378125 L 328.234375 214.425 L 328.096875 212.94375 L 329.253125 211.828125 " transform="matrix(1.25,0,0,1.25,0,0)"/>
<path style="fill:none;stroke-width:1.5;stroke-linecap:square;stroke-linejoin:round;stroke:rgb(0%,0%,0%);stroke-opacity:1;stroke-miterlimit:4;" d="M 68.075 314.34375 L 70.309375 314.34375 " transform="matrix(1.25,0,0,1.25,0,0)"/>
<path style="fill:none;stroke-width:1.5;stroke-linecap:square;stroke-linejoin:round;stroke:rgb(0%,0%,0%);stroke-opacity:1;stroke-miterlimit:4;" d="M 277.884375 210.11875 L 277.90625 217.2 L 278.621875 218.953125 L 279.91875 220.0375 L 282.65 220.88125 L 286.321875 221.159375 L 291.1875 220.903125 L 296.85625 220.096875 " transform="matrix(1.25,0,0,1.25,0,0)"/>
<path style="fill:none;stroke-width:1.5;stroke-linecap:square;stroke-linejoin:round;stroke:rgb(0%,0%,0%);stroke-opacity:1;stroke-miterlimit:4;" d="M 135.59375 176.3 L 135.43125 183.29375 L 135.98125 185.18125 L 137.046875 186.275 L 139.303125 187.04375 L 142.725 187.303125 L 152.334375 186.278125 " transform="matrix(1.25,0,0,1.25,0,0)"/>
<path style="fill:none;stroke-width:1.5;stroke-linecap:square;stroke-linejoin:round;stroke:rgb(0%,0%,0%);stroke-opacity:1;stroke-miterlimit:4;" d="M 83.7 275.5375 L 83.26875 272.834375 L 83.4125 270.5875 L 84.190625 268.85625 L 85.515625 267.728125 L 87.2875 267.090625 L 89.728125 266.8125 L 98.765625 267.221875 " transform="matrix(1.25,0,0,1.25,0,0)"/>
<path style="fill:none;stroke-width:1.5;stroke-linecap:square;stroke-linejoin:round;stroke:rgb(0%,0%,0%);stroke-opacity:1;stroke-miterlimit:4;" d="M 182.465625 174.6375 L 182.79375 181.853125 L 183.596875 183.90625 L 184.9625 185.21875 L 187.4875 186.153125 L 190.78125 186.4375 L 195.14375 186.090625 L 199.7625 185.16875 " transform="matrix(1.25,0,0,1.25,0,0)"/>
<path style="fill:none;stroke-width:1.5;stroke-linecap:square;stroke-linejoin:round;stroke:rgb(0%,0%,0%);stroke-opacity:1;stroke-miterlimit:4;" d="M 288.203125 127.00625 L 289.265625 126.896875 L 290.159375 127.8125 L 290.959375 129.8375 L 291.43125 132.453125 L 291.215625 137.63125 L 290.50625 139.190625 L 289.571875 139.73125 L 288.73125 139.39375 L 288.046875 138.3625 L 287.090625 134.284375 L 287.1375 129.540625 L 287.54375 127.928125 L 288.203125 127.00625 " transform="matrix(1.25,0,0,1.25,0,0)"/>
<path style="fill:none;stroke-width:1.5;stroke-linecap:square;stroke-linejoin:round;stroke:rgb(0%,0%,0%);stroke-opacity:1;stroke-miterlimit:4;" d="M 406.225 268.328125 L 410.13125 267.221875 " transform="matrix(1.25,0,0,1.25,0,0)"/>
<path style="fill:none;stroke-width:1.5;stroke-linecap:square;stroke-linejoin:round;stroke:rgb(0%,0%,0%);stroke-opacity:1;stroke-miterlimit:4;" d="M 253.33125 175.190625 L 260.16875 176.05625 L 271.146875 176.178125 L 273.36875 176.671875 L 274.6125 177.94375 L 275.3 180.0875 L 275.46875 183.296875 L 275.09375 186.83125 " transform="matrix(1.25,0,0,1.25,0,0)"/>
<path style="fill:none;stroke-width:1.5;stroke-linecap:square;stroke-linejoin:round;stroke:rgb(0%,0%,0%);stroke-opacity:1;stroke-miterlimit:4;" d="M 143.9625 139.153125 L 143.634375 131.76875 L 143.825 127.6 L 144.63125 124.465625 L 146.196875 122.521875 " transform="matrix(1.25,0,0,1.25,0,0)"/>
<path style="fill:none;stroke-width:1.5;stroke-linecap:square;stroke-linejoin:round;stroke:rgb(0%,0%,0%);stroke-opacity:1;stroke-miterlimit:4;" d="M 523.9625 102.5625 L 528.28125 103.9875 L 531.990625 106.253125 L 535.19375 109.359375 L 537.79375 113.2375 L 539.696875 117.790625 L 540.76875 122.690625 L 540.984375 127.93125 L 540.31875 132.94375 L 538.471875 138.40625 L 535.5625 143.128125 L 531.965625 146.621875 L 528.25 148.209375 L 526.278125 148.315625 L 524.384375 147.95 L 522.4625 147.08125 L 520.70625 145.7875 L 517.78125 142.028125 L 516.15 137.490625 " transform="matrix(1.25,0,0,1.25,0,0)"/>
<path style="fill:none;stroke-width:1.5;stroke-linecap:square;stroke-linejoin:round;stroke:rgb(0%,0%,0%);stroke-opacity:1;stroke-miterlimit:4;" d="M 190.8375 93.140625 L 193.3125 94.0375 L 194.653125 96.296875 L 194.903125 99.540625 L 194.184375 105.890625 " transform="matrix(1.25,0,0,1.25,0,0)"/>
<path style="fill:none;stroke-width:1.5;stroke-linecap:square;stroke-linejoin:round;stroke:rgb(0%,0%,0%);stroke-opacity:1;stroke-miterlimit:4;" d="M 256.121875 141.925 L 266.834375 141.325 L 269.915625 141.615625 L 272.11875 142.296875 L 273.590625 143.375 L 274.3625 144.840625 L 274.653125 146.959375 L 274.5375 150.796875 " transform="matrix(1.25,0,0,1.25,0,0)"/>
<path style="fill:none;stroke-width:1.5;stroke-linecap:square;stroke-linejoin:round;stroke:rgb(0%,0%,0%);stroke-opacity:1;stroke-miterlimit:4;" d="M 44.640625 253.915625 L 44.640625 263.89375 " transform="matrix(1.25,0,0,1.25,0,0)"/>
<path style="fill:none;stroke-width:1.5;stroke-linecap:square;stroke-linejoin:round;stroke:rgb(0%,0%,0%);stroke-opacity:1;stroke-miterlimit:4;" d="M 143.40625 194.59375 L 145.6625 194.765625 L 147.040625 196.5375 L 147.528125 199.70625 L 147.3125 205.68125 " transform="matrix(1.25,0,0,1.25,0,0)"/>
<path style="fill:none;stroke-width:1.5;stroke-linecap:square;stroke-linejoin:round;stroke:rgb(0%,0%,0%);stroke-opacity:1;stroke-miterlimit:4;" d="M 510.56875 170.75625 L 512.809375 172.453125 L 513.8875 174.4875 L 513.91875 177.04375 L 512.853125 179.884375 L 510.44375 183.271875 L 507.134375 186.41875 L 503.28125 188.96875 L 499.96875 190.159375 " transform="matrix(1.25,0,0,1.25,0,0)"/>
<path style="fill:none;stroke-width:1.5;stroke-linecap:square;stroke-linejoin:round;stroke:rgb(0%,0%,0%);stroke-opacity:1;stroke-miterlimit:4;" d="M 359.909375 222.315625 L 369.396875 239.5 " transform="matrix(1.25,0,0,1.25,0,0)"/>
<path style="fill:none;stroke-width:1.5;stroke-linecap:square;stroke-linejoin:round;stroke:rgb(0%,0%,0%);stroke-opacity:1;stroke-miterlimit:4;" d="M 514.475 137.490625 L 515.315625 147.175 L 515.734375 161.603125 L 516.175 164.265625 L 517.04375 166.21875 L 519.525 168.559375 L 537.690625 181.221875 L 543.675 185.028125 L 551 188.996875 L 552.871875 190.640625 L 554.09375 192.378125 " transform="matrix(1.25,0,0,1.25,0,0)"/>
<path style="fill:none;stroke-width:1.5;stroke-linecap:square;stroke-linejoin:round;stroke:rgb(0%,0%,0%);stroke-opacity:1;stroke-miterlimit:4;" d="M 45.75625 235.065625 L 46.871875 239.5 " transform="matrix(1.25,0,0,1.25,0,0)"/>
<path style="fill:none;stroke-width:1.5;stroke-linecap:square;stroke-linejoin:round;stroke:rgb(0%,0%,0%);stroke-opacity:1;stroke-miterlimit:4;" d="M 277.325 108.6625 L 277.103125 113.996875 L 277.346875 116.640625 L 278.140625 118.65625 L 279.734375 120.034375 L 283.140625 121.103125 L 288.128125 121.434375 L 293.828125 120.90625 L 297.971875 119.75 " transform="matrix(1.25,0,0,1.25,0,0)"/>
<path style="fill:none;stroke-width:1.5;stroke-linecap:square;stroke-linejoin:round;stroke:rgb(0%,0%,0%);stroke-opacity:1;stroke-miterlimit:4;" d="M 302.99375 204.01875 L 307.50625 210.940625 L 311.725 219.30625 L 315.2125 227.840625 L 323.975 251.696875 L 331.5375 266.334375 L 332.90625 269.7125 L 333.684375 272.765625 " transform="matrix(1.25,0,0,1.25,0,0)"/>
<path style="fill:none;stroke-width:1.5;stroke-linecap:square;stroke-linejoin:round;stroke:rgb(0%,0%,0%);stroke-opacity:1;stroke-miterlimit:4;" d="M 334.8 267.775 L 333.684375 269.99375 " transform="matrix(1.25,0,0,1.25,0,0)"/>
<path style="fill:none;stroke-width:1.5;stroke-linecap:square;stroke-linejoin:round;stroke:rgb(0%,0%,0%);stroke-opacity:1;stroke-miterlimit:4;" d="M 143.40625 171.309375 L 143.09375 165.23125 L 143.2875 162 L 144.140625 159.471875 L 145.6375 158.003125 " transform="matrix(1.25,0,0,1.25,0,0)"/>
<path style="fill:none;stroke-width:1.5;stroke-linecap:square;stroke-linejoin:round;stroke:rgb(0%,0%,0%);stroke-opacity:1;stroke-miterlimit:4;" d="M 183.58125 117.53125 L 182.86875 112.471875 L 183.15 109.796875 L 184.428125 108.375 L 187.396875 107.9125 L 197.153125 108.275 L 201.10625 109.359375 L 202.5375 110.58125 L 203.475 112.246875 L 204.0375 114.53125 L 204.228125 117.53125 " transform="matrix(1.25,0,0,1.25,0,0)"/>
<path style="fill:none;stroke-width:1.5;stroke-linecap:square;stroke-linejoin:round;stroke:rgb(0%,0%,0%);stroke-opacity:1;stroke-miterlimit:4;" d="M 300.203125 144.14375 L 300.246875 149.803125 L 299.1875 152.821875 L 298.25 153.675 L 296.70625 154.334375 L 292.153125 154.978125 L 285.640625 154.4125 L 283.240625 153.6875 L 281.525 152.684375 L 280.721875 151.60625 L 280.2125 150.03125 L 280.115625 144.696875 " transform="matrix(1.25,0,0,1.25,0,0)"/>
<path style="fill:none;stroke-width:1.5;stroke-linecap:square;stroke-linejoin:round;stroke:rgb(0%,0%,0%);stroke-opacity:1;stroke-miterlimit:4;" d="M 115.50625 206.790625 L 114.915625 210.109375 L 114.875 213.478125 L 115.390625 216.240625 L 116.465625 218.221875 L 117.9875 219.25625 L 119.98125 219.7625 L 127.225 219.54375 " transform="matrix(1.25,0,0,1.25,0,0)"/>
<path style="fill:none;stroke-width:1.5;stroke-linecap:square;stroke-linejoin:round;stroke:rgb(0%,0%,0%);stroke-opacity:1;stroke-miterlimit:4;" d="M 122.203125 121.4125 L 121.184375 124.18125 L 120.690625 127.7875 L 121.0875 140.2625 " transform="matrix(1.25,0,0,1.25,0,0)"/>
<path style="fill:none;stroke-width:1.5;stroke-linecap:square;stroke-linejoin:round;stroke:rgb(0%,0%,0%);stroke-opacity:1;stroke-miterlimit:4;" d="M 329.21875 173.528125 L 338.96875 173.134375 L 341.771875 173.51875 L 343.63125 174.2875 L 344.7 175.378125 L 345.38125 177.24375 L 345.403125 184.059375 " transform="matrix(1.25,0,0,1.25,0,0)"/>
<path style="fill:none;stroke-width:1.5;stroke-linecap:square;stroke-linejoin:round;stroke:rgb(0%,0%,0%);stroke-opacity:1;stroke-miterlimit:4;" d="M 261.703125 92.03125 L 263.909375 92.915625 L 265.259375 94.85 L 265.721875 97.05625 L 266.165625 104.228125 " transform="matrix(1.25,0,0,1.25,0,0)"/>
<path style="fill:none;stroke-width:1.5;stroke-linecap:square;stroke-linejoin:round;stroke:rgb(0%,0%,0%);stroke-opacity:1;stroke-miterlimit:4;" d="M 312.48125 209.5625 L 323.5625 206.984375 L 336.409375 205.384375 L 351.15 204.659375 L 373.303125 204.575 " transform="matrix(1.25,0,0,1.25,0,0)"/>
<path style="fill:none;stroke-width:1.5;stroke-linecap:square;stroke-linejoin:round;stroke:rgb(0%,0%,0%);stroke-opacity:1;stroke-miterlimit:4;" d="M 255.5625 207.9 L 267.271875 206.89375 L 270.26875 207.115625 L 272.3375 207.775 L 273.784375 209.028125 L 274.690625 211.025 L 275.078125 213.58125 L 275.09375 217.878125 " transform="matrix(1.25,0,0,1.25,0,0)"/>
<path style="fill:none;stroke-width:1.5;stroke-linecap:square;stroke-linejoin:round;stroke:rgb(0%,0%,0%);stroke-opacity:1;stroke-miterlimit:4;" d="M 263.375 123.63125 L 264.63125 124.06875 L 265.559375 124.86875 L 266.640625 127.503125 L 266.828125 131.346875 L 266.165625 139.153125 " transform="matrix(1.25,0,0,1.25,0,0)"/>
<path style="fill:none;stroke-width:1.5;stroke-linecap:square;stroke-linejoin:round;stroke:rgb(0%,0%,0%);stroke-opacity:1;stroke-miterlimit:4;" d="M 215.3875 205.128125 L 215.021875 198.51875 L 215.228125 194.996875 L 216.05625 192.55 L 217.61875 191.26875 " transform="matrix(1.25,0,0,1.25,0,0)"/>
<path style="fill:none;stroke-width:1.5;stroke-linecap:square;stroke-linejoin:round;stroke:rgb(0%,0%,0%);stroke-opacity:1;stroke-miterlimit:4;" d="M 167.959375 205.68125 L 167.675 195.01875 L 168.334375 192.340625 L 169.63125 190.7125 " transform="matrix(1.25,0,0,1.25,0,0)"/>
<path style="fill:none;stroke-width:1.5;stroke-linecap:square;stroke-linejoin:round;stroke:rgb(0%,0%,0%);stroke-opacity:1;stroke-miterlimit:4;" d="M 334.8 239.5 L 335.521875 241.946875 L 337 243.3 L 339.046875 243.5375 L 343.728125 242.828125 " transform="matrix(1.25,0,0,1.25,0,0)"/>
<path style="fill:none;stroke-width:1.5;stroke-linecap:square;stroke-linejoin:round;stroke:rgb(0%,0%,0%);stroke-opacity:1;stroke-miterlimit:4;" d="M 303.553125 209.009375 L 303.7 214.634375 L 304.640625 217.7125 L 306.728125 219.496875 L 310.246875 220.096875 " transform="matrix(1.25,0,0,1.25,0,0)"/>
<path style="fill:none;stroke-width:1.5;stroke-linecap:square;stroke-linejoin:round;stroke:rgb(0%,0%,0%);stroke-opacity:1;stroke-miterlimit:4;" d="M 528.425 201.246875 L 531.1 200.271875 L 533.125 200.415625 L 534.30625 201.621875 L 534.5625 204.01875 " transform="matrix(1.25,0,0,1.25,0,0)"/>
<path style="fill:none;stroke-width:1.5;stroke-linecap:square;stroke-linejoin:round;stroke:rgb(0%,0%,0%);stroke-opacity:1;stroke-miterlimit:4;" d="M 360.46875 124.184375 L 358.79375 140.81875 " transform="matrix(1.25,0,0,1.25,0,0)"/>
<path style="fill:none;stroke-width:1.5;stroke-linecap:square;stroke-linejoin:round;stroke:rgb(0%,0%,0%);stroke-opacity:1;stroke-miterlimit:4;" d="M 171.30625 191.821875 L 171.30625 207.9 " transform="matrix(1.25,0,0,1.25,0,0)"/>
<path style="fill:none;stroke-width:1.5;stroke-linecap:square;stroke-linejoin:round;stroke:rgb(0%,0%,0%);stroke-opacity:1;stroke-miterlimit:4;" d="M 266.725 158.003125 L 266.725 172.971875 " transform="matrix(1.25,0,0,1.25,0,0)"/>
<path style="fill:none;stroke-width:1.5;stroke-linecap:square;stroke-linejoin:round;stroke:rgb(0%,0%,0%);stroke-opacity:1;stroke-miterlimit:4;" d="M 215.3875 172.971875 L 214.975 165.478125 L 215.140625 161.6875 L 215.965625 158.70625 L 217.61875 156.89375 " transform="matrix(1.25,0,0,1.25,0,0)"/>
<path style="fill:none;stroke-width:1.5;stroke-linecap:square;stroke-linejoin:round;stroke:rgb(0%,0%,0%);stroke-opacity:1;stroke-miterlimit:4;" d="M 487.134375 256.13125 L 488.571875 254.89375 L 490.61875 254.609375 L 493.584375 255.309375 L 502.065625 258.71875 L 504.39375 258.734375 L 509.8625 257.871875 L 511.846875 257.95 L 514.059375 258.925 L 516.003125 260.971875 L 518.465625 266.278125 L 520.115625 274.053125 L 520.496875 280.2375 L 520.01875 282.31875 L 519.078125 283.915625 L 517.61875 284.95625 L 515.459375 285.15625 L 508.91875 283.415625 L 496.3375 282.175 L 490.784375 280.825 L 488.140625 279.296875 L 486.575 277.2 L 502.2 277.2 " transform="matrix(1.25,0,0,1.25,0,0)"/>
<path style="fill:none;stroke-width:1.5;stroke-linecap:square;stroke-linejoin:round;stroke:rgb(0%,0%,0%);stroke-opacity:1;stroke-miterlimit:4;" d="M 100.996875 90.36875 L 102.303125 104.321875 L 102.878125 120.234375 L 102.1125 175.190625 " transform="matrix(1.25,0,0,1.25,0,0)"/>
<path style="fill:none;stroke-width:1.5;stroke-linecap:square;stroke-linejoin:round;stroke:rgb(0%,0%,0%);stroke-opacity:1;stroke-miterlimit:4;" d="M 160.703125 207.9 L 171.059375 207.80625 L 174.3 208.184375 L 176.4125 208.85625 L 177.64375 209.940625 L 178.35 211.61875 L 178.559375 217.325 " transform="matrix(1.25,0,0,1.25,0,0)"/>
<path style="fill:none;stroke-width:1.5;stroke-linecap:square;stroke-linejoin:round;stroke:rgb(0%,0%,0%);stroke-opacity:1;stroke-miterlimit:4;" d="M 415.709375 235.065625 L 423.340625 235.41875 L 431.584375 236.384375 L 440.159375 237.9375 L 448.978125 240.04375 L 458.1625 242.728125 L 467.578125 245.9625 L 486.575 253.915625 " transform="matrix(1.25,0,0,1.25,0,0)"/>
<path style="fill:none;stroke-width:1.5;stroke-linecap:square;stroke-linejoin:round;stroke:rgb(0%,0%,0%);stroke-opacity:1;stroke-miterlimit:4;" d="M 207.575 141.371875 L 220.96875 141.91875 L 227.184375 143.2125 L 228.221875 151.35 " transform="matrix(1.25,0,0,1.25,0,0)"/>
<path style="fill:none;stroke-width:1.5;stroke-linecap:square;stroke-linejoin:round;stroke:rgb(0%,0%,0%);stroke-opacity:1;stroke-miterlimit:4;" d="M 260.5875 93.69375 L 261.14375 104.78125 " transform="matrix(1.25,0,0,1.25,0,0)"/>
<path style="fill:none;stroke-width:1.5;stroke-linecap:square;stroke-linejoin:round;stroke:rgb(0%,0%,0%);stroke-opacity:1;stroke-miterlimit:4;" d="M 59.146875 220.096875 L 59.7125 222.16875 L 60.746875 223.75 L 62.3125 224.96875 L 64.4 225.75 L 66.959375 226.046875 L 69.871875 225.834375 L 72.940625 225.128125 L 75.8875 223.978125 " transform="matrix(1.25,0,0,1.25,0,0)"/>
<path style="fill:none;stroke-width:1.5;stroke-linecap:square;stroke-linejoin:round;stroke:rgb(0%,0%,0%);stroke-opacity:1;stroke-miterlimit:4;" d="M 363.815625 221.759375 L 366.046875 228.96875 " transform="matrix(1.25,0,0,1.25,0,0)"/>
<path style="fill:none;stroke-width:1.5;stroke-linecap:square;stroke-linejoin:round;stroke:rgb(0%,0%,0%);stroke-opacity:1;stroke-miterlimit:4;" d="M 359.353125 99.2375 L 357.6875 96.878125 L 357.15625 94.490625 L 357.55625 92.815625 L 358.628125 91.825 L 359.990625 92.375 L 360.76875 93.859375 L 360.775 96.59375 L 359.353125 103.671875 " transform="matrix(1.25,0,0,1.25,0,0)"/>
<path style="fill:none;stroke-width:1.5;stroke-linecap:square;stroke-linejoin:round;stroke:rgb(0%,0%,0%);stroke-opacity:1;stroke-miterlimit:4;" d="M 190.8375 94.803125 L 190.278125 105.890625 " transform="matrix(1.25,0,0,1.25,0,0)"/>
<path style="fill:none;stroke-width:1.5;stroke-linecap:square;stroke-linejoin:round;stroke:rgb(0%,0%,0%);stroke-opacity:1;stroke-miterlimit:4;" d="M 313.596875 135.275 L 312.528125 133.025 L 311.725 129.978125 L 311.553125 127.565625 L 311.965625 125.76875 L 313.4 124.60625 L 314.6375 125.190625 L 315.465625 127.36875 L 315.796875 130.878125 L 315.5 132.98125 L 313.596875 137.490625 " transform="matrix(1.25,0,0,1.25,0,0)"/>
<path style="fill:none;stroke-width:1.5;stroke-linecap:square;stroke-linejoin:round;stroke:rgb(0%,0%,0%);stroke-opacity:1;stroke-miterlimit:4;" d="M 137.825 119.196875 L 155.125 119.75 " transform="matrix(1.25,0,0,1.25,0,0)"/>
<path style="fill:none;stroke-width:1.5;stroke-linecap:square;stroke-linejoin:round;stroke:rgb(0%,0%,0%);stroke-opacity:1;stroke-miterlimit:4;" d="M 357.11875 139.153125 L 357.275 128.246875 L 358.028125 125.1875 L 359.353125 123.078125 " transform="matrix(1.25,0,0,1.25,0,0)"/>
<path style="fill:none;stroke-width:1.5;stroke-linecap:square;stroke-linejoin:round;stroke:rgb(0%,0%,0%);stroke-opacity:1;stroke-miterlimit:4;" d="M 534.5625 204.575 L 535.121875 246.84375 L 535.865625 255.084375 L 535.31875 259.153125 L 534.515625 260.359375 L 533.33125 261.05 L 529.54375 261.459375 L 525.090625 260.775 L 512.803125 257.796875 " transform="matrix(1.25,0,0,1.25,0,0)"/>
<path style="fill:none;stroke-width:1.5;stroke-linecap:square;stroke-linejoin:round;stroke:rgb(0%,0%,0%);stroke-opacity:1;stroke-miterlimit:4;" d="M 334.240625 158.003125 L 333.684375 172.41875 " transform="matrix(1.25,0,0,1.25,0,0)"/>
<path style="fill:none;stroke-width:1.5;stroke-linecap:square;stroke-linejoin:round;stroke:rgb(0%,0%,0%);stroke-opacity:1;stroke-miterlimit:4;" d="M 501.084375 255.578125 L 501.640625 255.578125 " transform="matrix(1.25,0,0,1.25,0,0)"/>
<path style="fill:none;stroke-width:1.5;stroke-linecap:square;stroke-linejoin:round;stroke:rgb(0%,0%,0%);stroke-opacity:1;stroke-miterlimit:4;" d="M 216.503125 139.709375 L 216.121875 132.28125 L 216.365625 128.43125 L 217.40625 125.4 L 219.29375 123.63125 " transform="matrix(1.25,0,0,1.25,0,0)"/>
<path style="fill:none;stroke-width:1.5;stroke-linecap:square;stroke-linejoin:round;stroke:rgb(0%,0%,0%);stroke-opacity:1;stroke-miterlimit:4;" d="M 89.8375 309.35625 L 89.28125 316.009375 " transform="matrix(1.25,0,0,1.25,0,0)"/>
<path style="fill:none;stroke-width:1.5;stroke-linecap:square;stroke-linejoin:round;stroke:rgb(0%,0%,0%);stroke-opacity:1;stroke-miterlimit:4;" d="M 303.553125 174.6375 L 316.084375 173.55625 L 319.440625 173.71875 L 321.884375 174.384375 L 323.1125 175.365625 L 323.775 177.1375 L 323.640625 184.059375 " transform="matrix(1.25,0,0,1.25,0,0)"/>
<path style="fill:none;stroke-width:1.5;stroke-linecap:square;stroke-linejoin:round;stroke:rgb(0%,0%,0%);stroke-opacity:1;stroke-miterlimit:4;" d="M 280.115625 143.034375 L 299.646875 142.48125 " transform="matrix(1.25,0,0,1.25,0,0)"/>
<path style="fill:none;stroke-width:1.5;stroke-linecap:square;stroke-linejoin:round;stroke:rgb(0%,0%,0%);stroke-opacity:1;stroke-miterlimit:4;" d="M 232.6875 118.640625 L 232.43125 111.95 L 232.734375 110.0625 L 233.359375 108.765625 L 234.33125 108.0375 L 236.20625 107.484375 L 241.975 107.121875 L 247.65625 107.85625 L 249.296875 108.465625 L 250.2625 109.29375 L 251.046875 110.8625 L 251.421875 112.93125 L 251.1 119.196875 " transform="matrix(1.25,0,0,1.25,0,0)"/>
<path style="fill:none;stroke-width:1.5;stroke-linecap:square;stroke-linejoin:round;stroke:rgb(0%,0%,0%);stroke-opacity:1;stroke-miterlimit:4;" d="M 327.546875 154.121875 L 346.51875 154.121875 " transform="matrix(1.25,0,0,1.25,0,0)"/>
<path style="fill:none;stroke-width:1.5;stroke-linecap:square;stroke-linejoin:round;stroke:rgb(0%,0%,0%);stroke-opacity:1;stroke-miterlimit:4;" d="M 147.3125 122.521875 L 146.753125 139.153125 " transform="matrix(1.25,0,0,1.25,0,0)"/>
<path style="fill:none;stroke-width:1.5;stroke-linecap:square;stroke-linejoin:round;stroke:rgb(0%,0%,0%);stroke-opacity:1;stroke-miterlimit:4;" d="M 332.009375 253.915625 L 388.36875 244.490625 " transform="matrix(1.25,0,0,1.25,0,0)"/>
<path style="fill:none;stroke-width:1.5;stroke-linecap:square;stroke-linejoin:round;stroke:rgb(0%,0%,0%);stroke-opacity:1;stroke-miterlimit:4;" d="M 279 176.3 L 279.1375 183.34375 L 279.8625 185.228125 L 281.171875 186.525 L 283.684375 187.446875 L 287.065625 187.8 L 291.584375 187.596875 L 296.296875 186.83125 " transform="matrix(1.25,0,0,1.25,0,0)"/>
<path style="fill:none;stroke-width:1.5;stroke-linecap:square;stroke-linejoin:round;stroke:rgb(0%,0%,0%);stroke-opacity:1;stroke-miterlimit:4;" d="M 337.590625 229.521875 L 335.9625 228.721875 L 335.340625 227.58125 L 335.9625 226.440625 L 337.590625 225.640625 " transform="matrix(1.25,0,0,1.25,0,0)"/>
<path style="fill:none;stroke-width:1.5;stroke-linecap:square;stroke-linejoin:round;stroke:rgb(0%,0%,0%);stroke-opacity:1;stroke-miterlimit:4;" d="M 332.56875 228.4125 L 333.684375 228.4125 " transform="matrix(1.25,0,0,1.25,0,0)"/>
<path style="fill:none;stroke-width:1.5;stroke-linecap:square;stroke-linejoin:round;stroke:rgb(0%,0%,0%);stroke-opacity:1;stroke-miterlimit:4;" d="M 302.99375 141.371875 L 313.621875 140.91875 L 316.640625 141.309375 L 318.675 142.1125 L 320.028125 143.534375 L 320.753125 145.625 L 320.8375 148.165625 L 320.290625 152.459375 " transform="matrix(1.25,0,0,1.25,0,0)"/>
<path style="fill:none;stroke-width:1.5;stroke-linecap:square;stroke-linejoin:round;stroke:rgb(0%,0%,0%);stroke-opacity:1;stroke-miterlimit:4;" d="M 191.39375 206.2375 L 190.99375 198.865625 L 191.25625 195.025 L 192.2625 192.265625 L 194.184375 190.7125 " transform="matrix(1.25,0,0,1.25,0,0)"/>
<path style="fill:none;stroke-width:1.5;stroke-linecap:square;stroke-linejoin:round;stroke:rgb(0%,0%,0%);stroke-opacity:1;stroke-miterlimit:4;" d="M 195.859375 191.821875 L 195.3 205.68125 " transform="matrix(1.25,0,0,1.25,0,0)"/>
<path style="fill:none;stroke-width:1.5;stroke-linecap:square;stroke-linejoin:round;stroke:rgb(0%,0%,0%);stroke-opacity:1;stroke-miterlimit:4;" d="M 454.2125 96.465625 L 459.459375 99.41875 L 465.859375 102.0875 L 487.821875 108.596875 L 495.3375 111.303125 L 498.628125 113.509375 L 504.83125 119.615625 L 508.05625 121.434375 L 509.74375 121.521875 L 511.61875 120.890625 L 518.95 116.20625 L 520.253125 115.9375 L 521.325 116.221875 L 522.3625 117.278125 L 523.378125 119.415625 L 524.303125 124.321875 L 523.759375 129.14375 L 521.95625 133.309375 L 520.653125 134.971875 L 519.275 136.03125 L 517.69375 136.596875 L 516.13125 136.56875 L 514.675 135.996875 L 513.2875 134.8125 L 512.309375 133.2875 L 511.6875 131.39375 " transform="matrix(1.25,0,0,1.25,0,0)"/>
<path style="fill:none;stroke-width:1.5;stroke-linecap:square;stroke-linejoin:round;stroke:rgb(0%,0%,0%);stroke-opacity:1;stroke-miterlimit:4;" d="M 326.43125 107 L 332.440625 106.03125 L 337.2125 105.675 L 340.828125 105.878125 L 343.621875 106.671875 L 345.21875 107.88125 L 346.209375 109.840625 L 346.5875 112.371875 L 346.51875 116.978125 " transform="matrix(1.25,0,0,1.25,0,0)"/>
<path style="fill:none;stroke-width:1.5;stroke-linecap:square;stroke-linejoin:round;stroke:rgb(0%,0%,0%);stroke-opacity:1;stroke-miterlimit:4;" d="M 142.846875 195.15 L 143.40625 205.128125 " transform="matrix(1.25,0,0,1.25,0,0)"/>
<path style="fill:none;stroke-width:1.5;stroke-linecap:square;stroke-linejoin:round;stroke:rgb(0%,0%,0%);stroke-opacity:1;stroke-miterlimit:4;" d="M 526.19375 102.009375 L 530.6375 102.3625 L 534.7 103.40625 L 538.328125 105.15625 L 541.359375 107.503125 L 543.9875 110.621875 L 545.971875 114.25 L 547.38125 118.446875 L 548.171875 123.1375 L 548.184375 130.31875 L 546.9 137.790625 L 544.409375 144.99375 L 540.825 151.525 L 536.371875 156.88125 L 531.215625 160.775 L 530.659375 149.134375 " transform="matrix(1.25,0,0,1.25,0,0)"/>
<path style="fill:none;stroke-width:1.5;stroke-linecap:square;stroke-linejoin:round;stroke:rgb(0%,0%,0%);stroke-opacity:1;stroke-miterlimit:4;" d="M 357.678125 106.68125 L 361.7375 106.265625 L 364.671875 106.3875 L 366.8 107.046875 L 368.09375 108.221875 L 369.128125 111.06875 L 369.115625 114.475 L 368.08125 117.64375 L 366.340625 119.6125 L 363.2 120.39375 L 357.5875 120.353125 L 353.49375 119.553125 L 351.1625 118.125 L 350.43125 116.13125 L 350.1 113.015625 L 350.275 110.103125 L 350.8875 108.1 L 351.6125 107.371875 L 352.715625 106.98125 L 357.678125 106.68125 " transform="matrix(1.25,0,0,1.25,0,0)"/>
<path style="fill:none;stroke-width:1.5;stroke-linecap:square;stroke-linejoin:round;stroke:rgb(0%,0%,0%);stroke-opacity:1;stroke-miterlimit:4;" d="M 505.546875 328.20625 L 527.309375 328.20625 " transform="matrix(1.25,0,0,1.25,0,0)"/>
<path style="fill:none;stroke-width:1.5;stroke-linecap:square;stroke-linejoin:round;stroke:rgb(0%,0%,0%);stroke-opacity:1;stroke-miterlimit:4;" d="M 44.640625 243.084375 L 49.078125 242.590625 L 52.165625 242.88125 L 54.025 244.046875 L 54.4375 244.8625 L 54.4 245.828125 L 52.859375 247.90625 L 49.721875 249.7125 L 44.49375 250.7 L 41.009375 250.546875 L 39.609375 249.890625 L 38.571875 248.859375 L 38.24375 247.83125 L 38.49375 246.834375 L 40.78125 244.66875 L 44.640625 243.084375 " transform="matrix(1.25,0,0,1.25,0,0)"/>
<path style="fill:none;stroke-width:1.5;stroke-linecap:square;stroke-linejoin:round;stroke:rgb(0%,0%,0%);stroke-opacity:1;stroke-miterlimit:4;" d="M 336.475 217.325 L 362.7 213.996875 " transform="matrix(1.25,0,0,1.25,0,0)"/>
<path style="fill:none;stroke-width:1.5;stroke-linecap:square;stroke-linejoin:round;stroke:rgb(0%,0%,0%);stroke-opacity:1;stroke-miterlimit:4;" d="M 238.265625 93.140625 L 238.825 104.78125 " transform="matrix(1.25,0,0,1.25,0,0)"/>
<path style="fill:none;stroke-width:1.5;stroke-linecap:square;stroke-linejoin:round;stroke:rgb(0%,0%,0%);stroke-opacity:1;stroke-miterlimit:4;" d="M 490.48125 181.84375 L 486.459375 188.634375 L 486.1375 190.784375 L 487.021875 194.68125 L 486.940625 196.409375 L 486.090625 198.278125 L 482.971875 202.928125 L 482.221875 205.88125 L 482.871875 210.396875 L 486.925 221.9 L 488.528125 229.60625 L 489.5625 241.025 L 489.365625 252.80625 " transform="matrix(1.25,0,0,1.25,0,0)"/>
<path style="fill:none;stroke-width:1.5;stroke-linecap:square;stroke-linejoin:round;stroke:rgb(0%,0%,0%);stroke-opacity:1;stroke-miterlimit:4;" d="M 453.653125 97.01875 L 454.2125 116.978125 " transform="matrix(1.25,0,0,1.25,0,0)"/>
<path style="fill:none;stroke-width:1.5;stroke-linecap:square;stroke-linejoin:round;stroke:rgb(0%,0%,0%);stroke-opacity:1;stroke-miterlimit:4;" d="M 114.390625 90.36875 L 371.628125 90.36875 " transform="matrix(1.25,0,0,1.25,0,0)"/>
<path style="fill:none;stroke-width:1.5;stroke-linecap:square;stroke-linejoin:round;stroke:rgb(0%,0%,0%);stroke-opacity:1;stroke-miterlimit:4;" d="M 253.890625 176.853125 L 254.1875 184.396875 L 254.925 186.40625 L 256.21875 187.590625 L 258.49375 188.38125 L 261.55625 188.678125 L 272.8625 187.940625 " transform="matrix(1.25,0,0,1.25,0,0)"/>
<path style="fill:none;stroke-width:1.5;stroke-linecap:square;stroke-linejoin:round;stroke:rgb(0%,0%,0%);stroke-opacity:1;stroke-miterlimit:4;" d="M 386.1375 89.8125 L 387.334375 98.81875 L 387.809375 109.19375 L 387.253125 139.709375 L 387.809375 223.978125 " transform="matrix(1.25,0,0,1.25,0,0)"/>
<path style="fill:none;stroke-width:1.5;stroke-linecap:square;stroke-linejoin:round;stroke:rgb(0%,0%,0%);stroke-opacity:1;stroke-miterlimit:4;" d="M 363.815625 269.99375 L 381.44375 271.85 L 386.734375 271.771875 L 391.159375 271.103125 " transform="matrix(1.25,0,0,1.25,0,0)"/>
<path style="fill:none;stroke-width:1.5;stroke-linecap:square;stroke-linejoin:round;stroke:rgb(0%,0%,0%);stroke-opacity:1;stroke-miterlimit:4;" d="M 38.503125 297.7125 L 54.684375 297.7125 " transform="matrix(1.25,0,0,1.25,0,0)"/>
<path style="fill:none;stroke-width:1.5;stroke-linecap:square;stroke-linejoin:round;stroke:rgb(0%,0%,0%);stroke-opacity:1;stroke-miterlimit:4;" d="M 112.715625 322.659375 L 112.09375 325.64375 L 111 328.240625 L 109.50625 330.271875 L 107.65 331.803125 L 105.296875 332.9625 L 102.6125 333.709375 L 94.859375 334.303125 " transform="matrix(1.25,0,0,1.25,0,0)"/>
<path style="fill:none;stroke-width:1.5;stroke-linecap:square;stroke-linejoin:round;stroke:rgb(0%,0%,0%);stroke-opacity:1;stroke-miterlimit:4;" d="M 255.34375 107.56875 L 257.940625 106.790625 L 262.63125 106.625 L 268.0625 107.11875 L 271.478125 108.06875 L 272.61875 109.575 L 273.090625 112.0125 L 272.86875 115.175 L 272.025 117.590625 L 271.365625 118.384375 L 270.16875 118.98125 L 265.828125 119.659375 L 259.959375 119.428125 L 256.05625 118.375 L 254.83125 116.69375 L 254.15625 113.140625 L 254.340625 109.659375 L 255.34375 107.56875 " transform="matrix(1.25,0,0,1.25,0,0)"/>
<path style="fill:none;stroke-width:1.5;stroke-linecap:square;stroke-linejoin:round;stroke:rgb(0%,0%,0%);stroke-opacity:1;stroke-miterlimit:4;" d="M 207.575 142.48125 L 207.6 149.5625 L 208.31875 151.325 L 209.65 152.5125 L 212.159375 153.471875 L 215.746875 153.971875 L 226.546875 153.56875 " transform="matrix(1.25,0,0,1.25,0,0)"/>
<path style="fill:none;stroke-width:1.5;stroke-linecap:square;stroke-linejoin:round;stroke:rgb(0%,0%,0%);stroke-opacity:1;stroke-miterlimit:4;" d="M 63.6125 274.428125 L 74.771875 274.428125 " transform="matrix(1.25,0,0,1.25,0,0)"/>
<path style="fill:none;stroke-width:1.5;stroke-linecap:square;stroke-linejoin:round;stroke:rgb(0%,0%,0%);stroke-opacity:1;stroke-miterlimit:4;" d="M 167.959375 140.2625 L 167.853125 132.63125 L 168.221875 127.878125 L 169.221875 124.35 L 170.746875 122.521875 " transform="matrix(1.25,0,0,1.25,0,0)"/>
<path style="fill:none;stroke-width:1.5;stroke-linecap:square;stroke-linejoin:round;stroke:rgb(0%,0%,0%);stroke-opacity:1;stroke-miterlimit:4;" d="M 116.0625 107 L 125.36875 106.671875 L 127.975 107.0125 L 129.915625 107.734375 L 131.025 108.7 L 131.675 110.259375 L 131.6875 116.425 " transform="matrix(1.25,0,0,1.25,0,0)"/>
<path style="fill:none;stroke-width:1.5;stroke-linecap:square;stroke-linejoin:round;stroke:rgb(0%,0%,0%);stroke-opacity:1;stroke-miterlimit:4;" d="M 159.5875 208.453125 L 159.409375 216.03125 L 159.978125 217.840625 L 161.08125 218.95625 L 163.303125 219.853125 L 166.63125 220.325 L 177.44375 220.096875 " transform="matrix(1.25,0,0,1.25,0,0)"/>
<path style="fill:none;stroke-width:1.5;stroke-linecap:square;stroke-linejoin:round;stroke:rgb(0%,0%,0%);stroke-opacity:1;stroke-miterlimit:4;" d="M 143.9625 93.140625 L 144.521875 106.44375 " transform="matrix(1.25,0,0,1.25,0,0)"/>
<path style="fill:none;stroke-width:1.5;stroke-linecap:square;stroke-linejoin:round;stroke:rgb(0%,0%,0%);stroke-opacity:1;stroke-miterlimit:4;" d="M 158.471875 174.08125 L 170.278125 173.64375 L 173.409375 173.9625 L 175.81875 174.690625 L 177.803125 176.075 L 178.95 177.95 L 179.390625 180.365625 L 179.11875 183.50625 " transform="matrix(1.25,0,0,1.25,0,0)"/>
<path style="fill:none;stroke-width:1.5;stroke-linecap:square;stroke-linejoin:round;stroke:rgb(0%,0%,0%);stroke-opacity:1;stroke-miterlimit:4;" d="M 303.553125 143.590625 L 303.728125 150.034375 L 304.44375 151.953125 L 305.646875 153.2 L 307.759375 154.04375 L 310.8375 154.396875 L 319.175 153.56875 " transform="matrix(1.25,0,0,1.25,0,0)"/>
<path style="fill:none;stroke-width:1.5;stroke-linecap:square;stroke-linejoin:round;stroke:rgb(0%,0%,0%);stroke-opacity:1;stroke-miterlimit:4;" d="M 312.48125 92.03125 L 313.715625 94.171875 L 314.340625 96.984375 L 314.153125 107 " transform="matrix(1.25,0,0,1.25,0,0)"/>
<path style="fill:none;stroke-width:1.5;stroke-linecap:square;stroke-linejoin:round;stroke:rgb(0%,0%,0%);stroke-opacity:1;stroke-miterlimit:4;" d="M 523.403125 103.11875 L 526.871875 113.890625 L 527.7125 118.4875 L 527.959375 122.625 L 527.584375 126.365625 L 526.621875 129.440625 L 525.084375 132.003125 L 522.846875 134.165625 " transform="matrix(1.25,0,0,1.25,0,0)"/>
<path style="fill:none;stroke-width:1.5;stroke-linecap:square;stroke-linejoin:round;stroke:rgb(0%,0%,0%);stroke-opacity:1;stroke-miterlimit:4;" d="M 232.6875 154.121875 L 250.540625 154.121875 " transform="matrix(1.25,0,0,1.25,0,0)"/>
<path style="fill:none;stroke-width:1.5;stroke-linecap:square;stroke-linejoin:round;stroke:rgb(0%,0%,0%);stroke-opacity:1;stroke-miterlimit:4;" d="M 36.26875 322.659375 L 103.23125 322.10625 " transform="matrix(1.25,0,0,1.25,0,0)"/>
<path style="fill:none;stroke-width:1.5;stroke-linecap:square;stroke-linejoin:round;stroke:rgb(0%,0%,0%);stroke-opacity:1;stroke-miterlimit:4;" d="M 392.83125 237.8375 L 396.375 251.5375 L 396.453125 255.159375 L 395.621875 258.35 " transform="matrix(1.25,0,0,1.25,0,0)"/>
<path style="fill:none;stroke-width:1.5;stroke-linecap:square;stroke-linejoin:round;stroke:rgb(0%,0%,0%);stroke-opacity:1;stroke-miterlimit:4;" d="M 498.29375 236.728125 L 507.984375 243.903125 L 517.178125 249.746875 L 526.01875 254.365625 L 534.5625 257.796875 " transform="matrix(1.25,0,0,1.25,0,0)"/>
<path style="fill:none;stroke-width:1.5;stroke-linecap:square;stroke-linejoin:round;stroke:rgb(0%,0%,0%);stroke-opacity:1;stroke-miterlimit:4;" d="M 207.575 108.109375 L 220.375 107.521875 L 223.384375 107.796875 L 225.58125 108.534375 L 226.85 109.7 L 227.628125 111.728125 L 227.6625 119.196875 " transform="matrix(1.25,0,0,1.25,0,0)"/>
<path style="fill:none;stroke-width:1.5;stroke-linecap:square;stroke-linejoin:round;stroke:rgb(0%,0%,0%);stroke-opacity:1;stroke-miterlimit:4;" d="M 68.634375 234.5125 L 68.634375 239.5 " transform="matrix(1.25,0,0,1.25,0,0)"/>
<path style="fill:none;stroke-width:1.5;stroke-linecap:square;stroke-linejoin:round;stroke:rgb(0%,0%,0%);stroke-opacity:1;stroke-miterlimit:4;" d="M 89.28125 240.3 L 93.61875 240.775 L 97.19375 242.390625 L 98.071875 243.33125 L 98.45 244.44375 L 98.2625 245.58125 L 97.484375 246.859375 L 96.259375 247.91875 L 94.703125 248.6 L 89.540625 249.403125 L 86.615625 248.95 L 83.875 247.525 L 82.6875 246.26875 L 82.146875 244.928125 L 82.23125 243.590625 L 82.98125 242.159375 L 84.890625 240.753125 L 89.28125 240.3 " transform="matrix(1.25,0,0,1.25,0,0)"/>
<path style="fill:none;stroke-width:1.5;stroke-linecap:square;stroke-linejoin:round;stroke:rgb(0%,0%,0%);stroke-opacity:1;stroke-miterlimit:4;" d="M 62.578125 217.18125 L 64.853125 216.59375 L 67.9125 216.334375 L 74.35 216.875 L 75.625 217.3625 L 76.55625 218.234375 L 77.04375 219.534375 L 76.959375 220.946875 L 75.7125 222.928125 L 73.453125 223.890625 L 68.475 224.453125 L 63.721875 224.040625 L 61.821875 223.021875 L 60.925 221.053125 L 61.1625 218.69375 L 62.578125 217.18125 " transform="matrix(1.25,0,0,1.25,0,0)"/>
<path style="fill:none;stroke-width:1.5;stroke-linecap:square;stroke-linejoin:round;stroke:rgb(0%,0%,0%);stroke-opacity:1;stroke-miterlimit:4;" d="M 513.359375 125.85 L 515.146875 125.29375 L 516.525 125.46875 L 517.378125 126.309375 L 517.5875 127.74375 L 517.034375 129.2375 L 515.884375 130.2875 L 514.45 130.63125 L 512.803125 130.284375 " transform="matrix(1.25,0,0,1.25,0,0)"/>
<path style="fill:none;stroke-width:1.5;stroke-linecap:square;stroke-linejoin:round;stroke:rgb(0%,0%,0%);stroke-opacity:1;stroke-miterlimit:4;" d="M 39.059375 177.9625 L 100.440625 177.409375 " transform="matrix(1.25,0,0,1.25,0,0)"/>
<path style="fill:none;stroke-width:1.5;stroke-linecap:square;stroke-linejoin:round;stroke:rgb(0%,0%,0%);stroke-opacity:1;stroke-miterlimit:4;" d="M 137.26875 142.48125 L 141.646875 141.640625 L 146.671875 141.196875 L 150.5125 141.309375 L 153.08125 141.928125 L 154.20625 142.815625 L 154.99375 144.653125 L 155.125 150.796875 " transform="matrix(1.25,0,0,1.25,0,0)"/>
<path style="fill:none;stroke-width:1.5;stroke-linecap:square;stroke-linejoin:round;stroke:rgb(0%,0%,0%);stroke-opacity:1;stroke-miterlimit:4;" d="M 463.696875 141.925 L 467.046875 142.48125 " transform="matrix(1.25,0,0,1.25,0,0)"/>
<path style="fill:none;stroke-width:1.5;stroke-linecap:square;stroke-linejoin:round;stroke:rgb(0%,0%,0%);stroke-opacity:1;stroke-miterlimit:4;" d="M 230.453125 175.190625 L 244.403125 175.190625 L 250.01875 176.078125 L 251.1 184.059375 " transform="matrix(1.25,0,0,1.25,0,0)"/>
<path style="fill:none;stroke-width:1.5;stroke-linecap:square;stroke-linejoin:round;stroke:rgb(0%,0%,0%);stroke-opacity:1;stroke-miterlimit:4;" d="M 113.83125 240.05625 L 319.175 239.5 " transform="matrix(1.25,0,0,1.25,0,0)"/>
<path style="fill:none;stroke-width:1.5;stroke-linecap:square;stroke-linejoin:round;stroke:rgb(0%,0%,0%);stroke-opacity:1;stroke-miterlimit:4;" d="M 70.309375 252.253125 L 69.75 266.1125 " transform="matrix(1.25,0,0,1.25,0,0)"/>
<path style="fill:none;stroke-width:1.5;stroke-linecap:square;stroke-linejoin:round;stroke:rgb(0%,0%,0%);stroke-opacity:1;stroke-miterlimit:4;" d="M 277.884375 108.109375 L 289.5 107 L 293.08125 107.24375 L 295.65625 108.0125 L 297.26875 109.275 L 298.16875 111.08125 L 298.56875 113.653125 L 298.53125 118.0875 " transform="matrix(1.25,0,0,1.25,0,0)"/>
<path style="fill:none;stroke-width:1.5;stroke-linecap:square;stroke-linejoin:round;stroke:rgb(0%,0%,0%);stroke-opacity:1;stroke-miterlimit:4;" d="M 192.509375 158.003125 L 194.590625 159.06875 L 195.803125 161.490625 L 196.153125 164.853125 L 195.859375 171.309375 " transform="matrix(1.25,0,0,1.25,0,0)"/>
<path style="fill:none;stroke-width:1.5;stroke-linecap:square;stroke-linejoin:round;stroke:rgb(0%,0%,0%);stroke-opacity:1;stroke-miterlimit:4;" d="M 487.134375 258.35 L 483.7875 266.1125 " transform="matrix(1.25,0,0,1.25,0,0)"/>
<path style="fill:none;stroke-width:1.5;stroke-linecap:square;stroke-linejoin:round;stroke:rgb(0%,0%,0%);stroke-opacity:1;stroke-miterlimit:4;" d="M 487.690625 258.90625 L 502.2 265.55625 " transform="matrix(1.25,0,0,1.25,0,0)"/>
<path style="fill:none;stroke-width:1.5;stroke-linecap:square;stroke-linejoin:round;stroke:rgb(0%,0%,0%);stroke-opacity:1;stroke-miterlimit:4;" d="M 490.48125 261.121875 L 486.575 262.23125 " transform="matrix(1.25,0,0,1.25,0,0)"/>
<path style="fill:none;stroke-width:1.5;stroke-linecap:square;stroke-linejoin:round;stroke:rgb(0%,0%,0%);stroke-opacity:1;stroke-miterlimit:4;" d="M 124.434375 192.378125 L 124.434375 203.465625 " transform="matrix(1.25,0,0,1.25,0,0)"/>
<path style="fill:none;stroke-width:1.5;stroke-linecap:square;stroke-linejoin:round;stroke:rgb(0%,0%,0%);stroke-opacity:1;stroke-miterlimit:4;" d="M 454.2125 268.884375 L 450 271.0875 L 444.884375 272.753125 L 426.21875 275.953125 L 420.540625 279.384375 L 418.046875 280.096875 L 407.471875 278.73125 L 372.88125 276.715625 L 352.0875 275.825 L 333.684375 275.5375 " transform="matrix(1.25,0,0,1.25,0,0)"/>
<path style="fill:none;stroke-width:1.5;stroke-linecap:square;stroke-linejoin:round;stroke:rgb(0%,0%,0%);stroke-opacity:1;stroke-miterlimit:4;" d="M 511.128125 131.39375 L 505.5875 144.640625 L 501.103125 153.090625 L 496.16875 159.528125 L 493.621875 161.809375 L 491.015625 163.49375 L 488.375 164.5875 L 485.540625 165.146875 L 482.7 165.11875 L 479.734375 164.5125 L 474.91875 162.2875 L 465.371875 155.7875 " transform="matrix(1.25,0,0,1.25,0,0)"/>
<path style="fill:none;stroke-width:1.5;stroke-linecap:square;stroke-linejoin:round;stroke:rgb(0%,0%,0%);stroke-opacity:1;stroke-miterlimit:4;" d="M 306.340625 190.7125 L 306.340625 196.25625 " transform="matrix(1.25,0,0,1.25,0,0)"/>
<path style="fill:none;stroke-width:1.5;stroke-linecap:square;stroke-linejoin:round;stroke:rgb(0%,0%,0%);stroke-opacity:1;stroke-miterlimit:4;" d="M 190.8375 121.96875 L 194.61875 123.253125 L 194.421875 128.621875 L 195.3 141.371875 " transform="matrix(1.25,0,0,1.25,0,0)"/>
<path style="fill:none;stroke-width:1.5;stroke-linecap:square;stroke-linejoin:round;stroke:rgb(0%,0%,0%);stroke-opacity:1;stroke-miterlimit:4;" d="M 196.415625 276.090625 L 256.121875 276.090625 " transform="matrix(1.25,0,0,1.25,0,0)"/>
<path style="fill:none;stroke-width:1.5;stroke-linecap:square;stroke-linejoin:round;stroke:rgb(0%,0%,0%);stroke-opacity:1;stroke-miterlimit:4;" d="M 364.93125 222.315625 L 368.315625 223.05 L 369.6875 224.003125 L 370.865625 225.40625 L 372.30625 228.475 L 374.975 237.284375 " transform="matrix(1.25,0,0,1.25,0,0)"/>
<path style="fill:none;stroke-width:1.5;stroke-linecap:square;stroke-linejoin:round;stroke:rgb(0%,0%,0%);stroke-opacity:1;stroke-miterlimit:4;" d="M 495.503125 161.884375 L 499.809375 176.853125 L 499.96875 211.225 " transform="matrix(1.25,0,0,1.25,0,0)"/>
<path style="fill:none;stroke-width:1.5;stroke-linecap:square;stroke-linejoin:round;stroke:rgb(0%,0%,0%);stroke-opacity:1;stroke-miterlimit:4;" d="M 28.459375 191.26875 L 29.015625 323.76875 " transform="matrix(1.25,0,0,1.25,0,0)"/>
<path style="fill:none;stroke-width:1.5;stroke-linecap:square;stroke-linejoin:round;stroke:rgb(0%,0%,0%);stroke-opacity:1;stroke-miterlimit:4;" d="M 287.928125 91.475 L 289.978125 92.825 L 291.175 95.4375 L 291.53125 98.903125 L 291.275 105.3375 " transform="matrix(1.25,0,0,1.25,0,0)"/>
<path style="fill:none;stroke-width:1.5;stroke-linecap:square;stroke-linejoin:round;stroke:rgb(0%,0%,0%);stroke-opacity:1;stroke-miterlimit:4;" d="M 114.946875 108.109375 L 115.35 115.34375 L 115.9 116.9375 L 116.778125 117.834375 L 118.44375 118.540625 L 121.01875 118.921875 L 130.0125 118.640625 " transform="matrix(1.25,0,0,1.25,0,0)"/>
<path style="fill:none;stroke-width:1.5;stroke-linecap:square;stroke-linejoin:round;stroke:rgb(0%,0%,0%);stroke-opacity:1;stroke-miterlimit:4;" d="M 194.740625 242.271875 L 195.3 273.31875 " transform="matrix(1.25,0,0,1.25,0,0)"/>
<path style="fill:none;stroke-width:1.5;stroke-linecap:square;stroke-linejoin:round;stroke:rgb(0%,0%,0%);stroke-opacity:1;stroke-miterlimit:4;" d="M 84.59375 216.784375 L 86.06875 216.078125 L 88.153125 215.778125 L 90.659375 215.940625 L 93.125 216.55 L 94.971875 217.396875 L 96.321875 218.5 L 96.940625 219.71875 L 96.83125 220.98125 L 95.240625 223.0125 L 92.85625 224.14375 L 88.89375 224.7375 L 85.746875 224.33125 L 84.428125 223.3875 L 83.621875 221.10625 L 83.68125 218.490625 L 84.59375 216.784375 " transform="matrix(1.25,0,0,1.25,0,0)"/>
<path style="fill:none;stroke-width:1.5;stroke-linecap:square;stroke-linejoin:round;stroke:rgb(0%,0%,0%);stroke-opacity:1;stroke-miterlimit:4;" d="M 75.8875 245.6 L 74.54375 248.265625 L 71.990625 249.853125 L 68.1375 250.56875 L 61.9375 250.5875 " transform="matrix(1.25,0,0,1.25,0,0)"/>
<path style="fill:none;stroke-width:1.5;stroke-linecap:square;stroke-linejoin:round;stroke:rgb(0%,0%,0%);stroke-opacity:1;stroke-miterlimit:4;" d="M 326.43125 152.459375 L 325.54375 146.071875 L 325.803125 143.690625 L 326.571875 142.11875 L 328.84375 141.246875 L 339.4125 140.334375 L 344.059375 140.865625 L 345.3125 141.43125 L 346.234375 142.3625 L 347.409375 146.096875 L 347.634375 152.459375 " transform="matrix(1.25,0,0,1.25,0,0)"/>
<path style="fill:none;stroke-width:1.5;stroke-linecap:square;stroke-linejoin:round;stroke:rgb(0%,0%,0%);stroke-opacity:1;stroke-miterlimit:4;" d="M 158.471875 107.553125 L 171.8625 108.109375 L 177.590625 108.996875 L 179.11875 116.978125 " transform="matrix(1.25,0,0,1.25,0,0)"/>
<path style="fill:none;stroke-width:1.5;stroke-linecap:square;stroke-linejoin:round;stroke:rgb(0%,0%,0%);stroke-opacity:1;stroke-miterlimit:4;" d="M 99.325 273.875 L 95.509375 275.69375 L 90.953125 276.7 L 86.853125 276.61875 L 83.7 275.5375 " transform="matrix(1.25,0,0,1.25,0,0)"/>
<path style="fill:none;stroke-width:1.5;stroke-linecap:square;stroke-linejoin:round;stroke:rgb(0%,0%,0%);stroke-opacity:1;stroke-miterlimit:4;" d="M 254.446875 209.5625 L 254.41875 216.675 L 255.109375 218.440625 L 256.440625 219.646875 L 258.740625 220.528125 L 262.040625 220.975 L 272.8625 220.65 " transform="matrix(1.25,0,0,1.25,0,0)"/>
<path style="fill:none;stroke-width:1.5;stroke-linecap:square;stroke-linejoin:round;stroke:rgb(0%,0%,0%);stroke-opacity:1;stroke-miterlimit:4;" d="M 204.7875 174.6375 L 217.5375 173.553125 L 220.915625 173.671875 L 223.234375 174.20625 L 224.59375 175.109375 L 225.378125 176.659375 L 225.628125 178.778125 L 225.43125 182.953125 " transform="matrix(1.25,0,0,1.25,0,0)"/>
<path style="fill:none;stroke-width:1.5;stroke-linecap:square;stroke-linejoin:round;stroke:rgb(0%,0%,0%);stroke-opacity:1;stroke-miterlimit:4;" d="M 184.696875 208.453125 L 196.390625 207.859375 L 199.45625 208.159375 L 201.58125 208.90625 L 202.75625 210.228125 L 203.296875 212.3625 L 203.24375 215.30625 L 202.553125 219.54375 " transform="matrix(1.25,0,0,1.25,0,0)"/>
<path style="fill:none;stroke-width:1.5;stroke-linecap:square;stroke-linejoin:round;stroke:rgb(0%,0%,0%);stroke-opacity:1;stroke-miterlimit:4;" d="M 193.06875 279.41875 L 195.859375 276.646875 " transform="matrix(1.25,0,0,1.25,0,0)"/>
<path style="fill:none;stroke-width:1.5;stroke-linecap:square;stroke-linejoin:round;stroke:rgb(0%,0%,0%);stroke-opacity:1;stroke-miterlimit:4;" d="M 92.06875 256.6875 L 92.06875 265.003125 " transform="matrix(1.25,0,0,1.25,0,0)"/>
<path style="fill:none;stroke-width:1.5;stroke-linecap:square;stroke-linejoin:round;stroke:rgb(0%,0%,0%);stroke-opacity:1;stroke-miterlimit:4;" d="M 42.965625 295.73125 L 49.075 295.171875 L 53.00625 295.621875 L 54.540625 296.428125 L 55.653125 297.575 L 56.075 298.775 L 55.91875 299.98125 L 53.925 302.6 L 50.35 304.696875 L 47.240625 305.225 L 43.696875 304.6 L 41.371875 303.5875 L 39.4625 302.259375 L 38.15 300.759375 L 37.621875 299.315625 L 37.88125 298.04375 L 38.878125 297.009375 L 40.53125 296.246875 L 42.965625 295.73125 " transform="matrix(1.25,0,0,1.25,0,0)"/>
<path style="fill:none;stroke-width:1.5;stroke-linecap:square;stroke-linejoin:round;stroke:rgb(0%,0%,0%);stroke-opacity:1;stroke-miterlimit:4;" d="M 307.459375 189.60625 L 308.925 190.4125 L 309.75625 191.58125 L 310.246875 195.703125 " transform="matrix(1.25,0,0,1.25,0,0)"/>
<path style="fill:none;stroke-width:1.5;stroke-linecap:square;stroke-linejoin:round;stroke:rgb(0%,0%,0%);stroke-opacity:1;stroke-miterlimit:4;" d="M 416.26875 235.61875 L 419.05625 252.80625 L 419.953125 260.7875 L 479.88125 271.65625 " transform="matrix(1.25,0,0,1.25,0,0)"/>
<path style="fill:none;stroke-width:1.5;stroke-linecap:square;stroke-linejoin:round;stroke:rgb(0%,0%,0%);stroke-opacity:1;stroke-miterlimit:4;" d="M 136.709375 144.14375 L 136.5 148.675 L 136.75625 151.05625 L 137.565625 152.646875 L 139.05625 153.68125 L 142.184375 154.45 L 146.40625 154.475 L 151.190625 153.709375 L 154.565625 152.459375 " transform="matrix(1.25,0,0,1.25,0,0)"/>
<path style="fill:none;stroke-width:1.5;stroke-linecap:square;stroke-linejoin:round;stroke:rgb(0%,0%,0%);stroke-opacity:1;stroke-miterlimit:4;" d="M 419.059375 282.74375 L 455.8875 274.98125 " transform="matrix(1.25,0,0,1.25,0,0)"/>
<path style="fill:none;stroke-width:1.5;stroke-linecap:square;stroke-linejoin:round;stroke:rgb(0%,0%,0%);stroke-opacity:1;stroke-miterlimit:4;" d="M 124.434375 89.8125 L 123.078125 92.746875 L 122.196875 95.690625 L 121.64375 102.5625 " transform="matrix(1.25,0,0,1.25,0,0)"/>
<path style="fill:none;stroke-width:1.5;stroke-linecap:square;stroke-linejoin:round;stroke:rgb(0%,0%,0%);stroke-opacity:1;stroke-miterlimit:4;" d="M 112.715625 92.03125 L 112.159375 140.2625 L 112.159375 222.315625 " transform="matrix(1.25,0,0,1.25,0,0)"/>
<path style="fill:none;stroke-width:1.5;stroke-linecap:square;stroke-linejoin:round;stroke:rgb(0%,0%,0%);stroke-opacity:1;stroke-miterlimit:4;" d="M 239.940625 139.709375 L 239.65625 129.046875 L 240.315625 126.36875 L 241.6125 124.740625 " transform="matrix(1.25,0,0,1.25,0,0)"/>
<path style="fill:none;stroke-width:1.5;stroke-linecap:square;stroke-linejoin:round;stroke:rgb(0%,0%,0%);stroke-opacity:1;stroke-miterlimit:4;" d="M 475.975 108.396875 L 479.671875 108.096875 L 482.934375 108.9 L 485.315625 110.665625 L 486.934375 113.434375 L 487.51875 116.921875 L 486.94375 120.821875 L 485.275 124.434375 L 482.778125 127.346875 L 478.275 130.453125 L 473.853125 131.790625 L 470.6 131.575 L 465.04375 129.478125 L 462.978125 129.5375 L 460.34375 130.95 L 454.909375 135.66875 L 451.953125 136.99375 L 448.40625 137.121875 L 446.99375 136.653125 L 445.828125 135.78125 L 445.04375 134.603125 L 444.584375 133.0375 L 444.7625 129.25625 L 446.275 125.1875 L 448.7125 122.065625 L 450.39375 120.85625 L 452.246875 120.109375 L 458.98125 119.409375 L 461.90625 118.53125 L 463.4375 117.275 L 465.9 113.8875 L 468.30625 111.809375 L 472.0875 109.646875 L 475.975 108.396875 " transform="matrix(1.25,0,0,1.25,0,0)"/>
<path style="fill:none;stroke-width:1.5;stroke-linecap:square;stroke-linejoin:round;stroke:rgb(0%,0%,0%);stroke-opacity:1;stroke-miterlimit:4;" d="M 183.58125 174.08125 L 194.615625 172.965625 L 197.659375 173.175 L 199.678125 173.85625 L 200.946875 175.178125 L 201.55 177.30625 L 201.53125 179.990625 L 200.88125 184.059375 " transform="matrix(1.25,0,0,1.25,0,0)"/>
<path style="fill:none;stroke-width:1.5;stroke-linecap:square;stroke-linejoin:round;stroke:rgb(0%,0%,0%);stroke-opacity:1;stroke-miterlimit:4;" d="M 257.796875 268.328125 L 329.21875 267.775 " transform="matrix(1.25,0,0,1.25,0,0)"/>
<path style="fill:none;stroke-width:1.5;stroke-linecap:square;stroke-linejoin:round;stroke:rgb(0%,0%,0%);stroke-opacity:1;stroke-miterlimit:4;" d="M 37.3875 189.05 L 100.440625 188.496875 " transform="matrix(1.25,0,0,1.25,0,0)"/>
<path style="fill:none;stroke-width:1.5;stroke-linecap:square;stroke-linejoin:round;stroke:rgb(0%,0%,0%);stroke-opacity:1;stroke-miterlimit:4;" d="M 307.459375 198.475 L 316.296875 197.3 L 326.703125 196.803125 L 358.2375 197.365625 L 369.30625 196.7625 L 374.35 197.465625 L 376.140625 198.66875 L 377.6375 201.171875 L 387.809375 228.96875 " transform="matrix(1.25,0,0,1.25,0,0)"/>
<path style="fill:none;stroke-width:1.5;stroke-linecap:square;stroke-linejoin:round;stroke:rgb(0%,0%,0%);stroke-opacity:1;stroke-miterlimit:4;" d="M 333.684375 125.29375 L 333.125 140.81875 " transform="matrix(1.25,0,0,1.25,0,0)"/>
<path style="fill:none;stroke-width:1.5;stroke-linecap:square;stroke-linejoin:round;stroke:rgb(0%,0%,0%);stroke-opacity:1;stroke-miterlimit:4;" d="M 350.425 140.81875 L 361.209375 141.165625 L 364.034375 141.703125 L 366.0125 142.590625 L 367.2125 144.05 L 367.746875 145.96875 L 367.1625 153.015625 " transform="matrix(1.25,0,0,1.25,0,0)"/>
<path style="fill:none;stroke-width:1.5;stroke-linecap:square;stroke-linejoin:round;stroke:rgb(0%,0%,0%);stroke-opacity:1;stroke-miterlimit:4;" d="M 290.71875 194.040625 L 291.275 205.128125 " transform="matrix(1.25,0,0,1.25,0,0)"/>
<path style="fill:none;stroke-width:1.5;stroke-linecap:square;stroke-linejoin:round;stroke:rgb(0%,0%,0%);stroke-opacity:1;stroke-miterlimit:4;" d="M 287.36875 205.68125 L 287.090625 199.803125 L 287.296875 196.821875 L 288.096875 194.4625 L 289.603125 192.93125 " transform="matrix(1.25,0,0,1.25,0,0)"/>
<path style="fill:none;stroke-width:1.5;stroke-linecap:square;stroke-linejoin:round;stroke:rgb(0%,0%,0%);stroke-opacity:1;stroke-miterlimit:4;" d="M 88.1625 230.63125 L 88.721875 237.8375 " transform="matrix(1.25,0,0,1.25,0,0)"/>
<path style="fill:none;stroke-width:1.5;stroke-linecap:square;stroke-linejoin:round;stroke:rgb(0%,0%,0%);stroke-opacity:1;stroke-miterlimit:4;" d="M 133.3625 209.009375 L 153.45 208.453125 " transform="matrix(1.25,0,0,1.25,0,0)"/>
<path style="fill:none;stroke-width:1.5;stroke-linecap:square;stroke-linejoin:round;stroke:rgb(0%,0%,0%);stroke-opacity:1;stroke-miterlimit:4;" d="M 503.875 332.640625 L 502.8875 327.1 L 502.353125 320.65625 L 502.025 308.85625 L 502.628125 306.03125 L 503.78125 305.04375 L 505.59375 304.546875 L 521.084375 303.284375 L 524.11875 303.56875 L 526.315625 304.309375 L 527.55625 305.459375 L 528.340625 307.315625 L 528.953125 312.85625 L 528.984375 333.19375 " transform="matrix(1.25,0,0,1.25,0,0)"/>
<path style="fill:none;stroke-width:1.5;stroke-linecap:square;stroke-linejoin:round;stroke:rgb(0%,0%,0%);stroke-opacity:1;stroke-miterlimit:4;" d="M 334.8 156.89375 L 337.18125 158.034375 L 338.4875 160.528125 L 338.759375 164.146875 L 338.146875 170.2 " transform="matrix(1.25,0,0,1.25,0,0)"/>
<path style="fill:none;stroke-width:1.5;stroke-linecap:square;stroke-linejoin:round;stroke:rgb(0%,0%,0%);stroke-opacity:1;stroke-miterlimit:4;" d="M 543.490625 149.134375 L 541.259375 160.221875 " transform="matrix(1.25,0,0,1.25,0,0)"/>
<path style="fill:none;stroke-width:1.5;stroke-linecap:square;stroke-linejoin:round;stroke:rgb(0%,0%,0%);stroke-opacity:1;stroke-miterlimit:4;" d="M 100.996875 89.8125 L 102.19375 85.075 L 103.3625 83.059375 L 104.871875 81.375 L 106.7 80.034375 L 108.81875 79.04375 L 113.83125 78.171875 " transform="matrix(1.25,0,0,1.25,0,0)"/>
<path style="fill:none;stroke-width:1.5;stroke-linecap:square;stroke-linejoin:round;stroke:rgb(0%,0%,0%);stroke-opacity:1;stroke-miterlimit:4;" d="M 229.896875 177.409375 L 230.790625 185.390625 L 236.034375 186.2875 L 249.984375 186.278125 " transform="matrix(1.25,0,0,1.25,0,0)"/>
<path style="fill:none;stroke-width:1.5;stroke-linecap:square;stroke-linejoin:round;stroke:rgb(0%,0%,0%);stroke-opacity:1;stroke-miterlimit:4;" d="M 388.925 244.490625 L 394.50625 257.796875 " transform="matrix(1.25,0,0,1.25,0,0)"/>
<path style="fill:none;stroke-width:1.5;stroke-linecap:square;stroke-linejoin:round;stroke:rgb(0%,0%,0%);stroke-opacity:1;stroke-miterlimit:4;" d="M 358.2375 157.45 L 359.928125 159.28125 L 360.871875 162.121875 L 361.196875 165.89375 L 361.025 172.41875 " transform="matrix(1.25,0,0,1.25,0,0)"/>
<path style="fill:none;stroke-width:1.5;stroke-linecap:square;stroke-linejoin:round;stroke:rgb(0%,0%,0%);stroke-opacity:1;stroke-miterlimit:4;" d="M 61.9375 274.98125 L 61.3625 271.496875 L 61.740625 269.540625 L 63.728125 267.765625 L 66.575 266.9375 L 70.29375 267.165625 L 73.671875 268.553125 L 75.784375 270.665625 L 76.446875 273.31875 " transform="matrix(1.25,0,0,1.25,0,0)"/>
<path style="fill:none;stroke-width:1.5;stroke-linecap:square;stroke-linejoin:round;stroke:rgb(0%,0%,0%);stroke-opacity:1;stroke-miterlimit:4;" d="M 66.403125 232.29375 L 66.959375 238.946875 " transform="matrix(1.25,0,0,1.25,0,0)"/>
<path style="fill:none;stroke-width:1.5;stroke-linecap:square;stroke-linejoin:round;stroke:rgb(0%,0%,0%);stroke-opacity:1;stroke-miterlimit:4;" d="M 468.71875 272.765625 L 467.603125 333.75 " transform="matrix(1.25,0,0,1.25,0,0)"/>
<path style="fill:none;stroke-width:1.5;stroke-linecap:square;stroke-linejoin:round;stroke:rgb(0%,0%,0%);stroke-opacity:1;stroke-miterlimit:4;" d="M 112.715625 223.978125 L 311.3625 224.53125 " transform="matrix(1.25,0,0,1.25,0,0)"/>
<path style="fill:none;stroke-width:1.5;stroke-linecap:square;stroke-linejoin:round;stroke:rgb(0%,0%,0%);stroke-opacity:1;stroke-miterlimit:4;" d="M 310.80625 171.8625 L 310.440625 165.253125 L 310.646875 161.73125 L 311.475 159.2875 L 313.0375 158.003125 " transform="matrix(1.25,0,0,1.25,0,0)"/>
<path style="fill:none;stroke-width:1.5;stroke-linecap:square;stroke-linejoin:round;stroke:rgb(0%,0%,0%);stroke-opacity:1;stroke-miterlimit:4;" d="M 335.359375 267.775 L 392.83125 258.35 " transform="matrix(1.25,0,0,1.25,0,0)"/>
<path style="fill:none;stroke-width:1.5;stroke-linecap:square;stroke-linejoin:round;stroke:rgb(0%,0%,0%);stroke-opacity:1;stroke-miterlimit:4;" d="M 230.453125 210.671875 L 230.003125 213.225 L 230.30625 215.41875 L 231.4 217.203125 L 233.28125 218.55 L 235.7125 219.425 L 239.065625 219.978125 L 249.425 220.096875 " transform="matrix(1.25,0,0,1.25,0,0)"/>
<path style="fill:none;stroke-width:1.5;stroke-linecap:square;stroke-linejoin:round;stroke:rgb(0%,0%,0%);stroke-opacity:1;stroke-miterlimit:4;" d="M 183.025 210.671875 L 183.359375 216.56875 L 184.23125 218.31875 L 185.675 219.421875 L 187.878125 220.140625 L 190.9875 220.490625 L 201.4375 220.096875 " transform="matrix(1.25,0,0,1.25,0,0)"/>
<path style="fill:none;stroke-width:1.5;stroke-linecap:square;stroke-linejoin:round;stroke:rgb(0%,0%,0%);stroke-opacity:1;stroke-miterlimit:4;" d="M 183.58125 118.640625 L 203.66875 119.75 " transform="matrix(1.25,0,0,1.25,0,0)"/>
<path style="fill:none;stroke-width:1.5;stroke-linecap:square;stroke-linejoin:round;stroke:rgb(0%,0%,0%);stroke-opacity:1;stroke-miterlimit:4;" d="M 340.9375 237.284375 L 334.984375 237.828125 L 333.171875 237.11875 L 332.275 236.015625 L 332.696875 235.084375 L 334.2375 234.109375 L 340.38125 232.29375 " transform="matrix(1.25,0,0,1.25,0,0)"/>
<path style="fill:none;stroke-width:1.5;stroke-linecap:square;stroke-linejoin:round;stroke:rgb(0%,0%,0%);stroke-opacity:1;stroke-miterlimit:4;" d="M 136.153125 175.190625 L 141.678125 174.659375 L 146.0375 174.6625 L 149.478125 175.225 L 151.878125 176.290625 L 153.4625 177.91875 L 154.171875 180.109375 L 154.003125 182.834375 L 152.890625 186.278125 " transform="matrix(1.25,0,0,1.25,0,0)"/>
<path style="fill:none;stroke-width:1.5;stroke-linecap:square;stroke-linejoin:round;stroke:rgb(0%,0%,0%);stroke-opacity:1;stroke-miterlimit:4;" d="M 218.7375 158.003125 L 218.7375 172.41875 " transform="matrix(1.25,0,0,1.25,0,0)"/>
<path style="fill:none;stroke-width:1.5;stroke-linecap:square;stroke-linejoin:round;stroke:rgb(0%,0%,0%);stroke-opacity:1;stroke-miterlimit:4;" d="M 83.7 268.884375 L 91.825 268.05625 L 95.48125 268.0875 L 97.95625 268.925 L 98.64375 269.725 L 98.928125 270.771875 L 98.70625 271.78125 L 97.959375 272.8 L 95.690625 273.853125 L 91.153125 274.4375 L 83.7 274.428125 " transform="matrix(1.25,0,0,1.25,0,0)"/>
<path style="fill:none;stroke-width:1.5;stroke-linecap:square;stroke-linejoin:round;stroke:rgb(0%,0%,0%);stroke-opacity:1;stroke-miterlimit:4;" d="M 340.38125 218.9875 L 342.29375 219.91875 L 343.915625 221.2375 L 346.675 225.346875 L 348.59375 231.04375 L 350.425 240.609375 " transform="matrix(1.25,0,0,1.25,0,0)"/>
<path style="fill:none;stroke-width:1.5;stroke-linecap:square;stroke-linejoin:round;stroke:rgb(0%,0%,0%);stroke-opacity:1;stroke-miterlimit:4;" d="M 124.434375 92.03125 L 123.31875 104.228125 " transform="matrix(1.25,0,0,1.25,0,0)"/>
<path style="fill:none;stroke-width:1.5;stroke-linecap:square;stroke-linejoin:round;stroke:rgb(0%,0%,0%);stroke-opacity:1;stroke-miterlimit:4;" d="M 89.8375 230.63125 L 90.396875 237.284375 " transform="matrix(1.25,0,0,1.25,0,0)"/>
<path style="fill:none;stroke-width:1.5;stroke-linecap:square;stroke-linejoin:round;stroke:rgb(0%,0%,0%);stroke-opacity:1;stroke-miterlimit:4;" d="M 168.515625 172.41875 L 168.25625 162.165625 L 168.95 159.503125 L 170.190625 158.003125 " transform="matrix(1.25,0,0,1.25,0,0)"/>
<path style="fill:none;stroke-width:1.5;stroke-linecap:square;stroke-linejoin:round;stroke:rgb(0%,0%,0%);stroke-opacity:1;stroke-miterlimit:4;" d="M 373.303125 205.128125 L 388.925 242.828125 " transform="matrix(1.25,0,0,1.25,0,0)"/>
<path style="fill:none;stroke-width:1.5;stroke-linecap:square;stroke-linejoin:round;stroke:rgb(0%,0%,0%);stroke-opacity:1;stroke-miterlimit:4;" d="M 397.296875 267.775 L 403.434375 267.775 " transform="matrix(1.25,0,0,1.25,0,0)"/>
<path style="fill:none;stroke-width:1.5;stroke-linecap:square;stroke-linejoin:round;stroke:rgb(0%,0%,0%);stroke-opacity:1;stroke-miterlimit:4;" d="M 169.63125 95.35625 L 169.63125 104.78125 " transform="matrix(1.25,0,0,1.25,0,0)"/>
<path style="fill:none;stroke-width:1.5;stroke-linecap:square;stroke-linejoin:round;stroke:rgb(0%,0%,0%);stroke-opacity:1;stroke-miterlimit:4;" d="M 544.609375 148.578125 L 546.034375 153.678125 L 547.821875 157.99375 L 550.115625 161.815625 L 552.978125 165.2125 " transform="matrix(1.25,0,0,1.25,0,0)"/>
</g>
</svg>
