<?xml version="1.0" encoding="UTF-8"?>
<svg xmlns="http://www.w3.org/2000/svg" xmlns:xlink="http://www.w3.org/1999/xlink" width="519pt" height="729pt" viewBox="0 0 519 729" version="1.1">
<g id="surface1">
<path style="fill:none;stroke-width:1.5;stroke-linecap:square;stroke-linejoin:round;stroke:rgb(0%,0%,0%);stroke-opacity:1;stroke-miterlimit:4;" d="M 143.9625 180.734375 L 147.696875 175.896875 L 152.33125 170.984375 L 158.178125 165.696875 L 177.39375 149.671875 L 192.165625 133.865625 L 197.6875 129.909375 L 200.88125 128.459375 L 203.35625 127.8 L 207.1625 127.55625 L 211.334375 128.0375 L 232.446875 134.115625 L 298.95 145.303125 L 307.54375 147.403125 L 314.33125 149.95 L 319.203125 152.678125 L 323.29375 156.04375 L 327.08125 160.55625 L 331.178125 166.859375 L 338.659375 179.85 L 344.196875 190.425 L 363.846875 232.78125 L 375.11875 254.878125 L 389.03125 278.7625 L 403.990625 301.040625 " transform="matrix(1.25,0,0,1.25,0,0)"/>
<path style="fill:none;stroke-width:1.5;stroke-linecap:square;stroke-linejoin:round;stroke:rgb(0%,0%,0%);stroke-opacity:1;stroke-miterlimit:4;" d="M 45.75625 386.971875 L 50.21875 394.178125 " transform="matrix(1.25,0,0,1.25,0,0)"/>
<path style="fill:none;stroke-width:1.5;stroke-linecap:square;stroke-linejoin:round;stroke:rgb(0%,0%,0%);stroke-opacity:1;stroke-miterlimit:4;" d="M 65.2875 372.55625 L 68.634375 376.990625 " transform="matrix(1.25,0,0,1.25,0,0)"/>
<path style="fill:none;stroke-width:1.5;stroke-linecap:square;stroke-linejoin:round;stroke:rgb(0%,0%,0%);stroke-opacity:1;stroke-miterlimit:4;" d="M 13.390625 335.4125 L 21.25 328.05 L 30.184375 320.5375 L 63.565625 295.159375 L 69.915625 291.3625 L 72.48125 290.61875 L 74.55625 290.696875 L 76.334375 291.525 L 77.978125 293.103125 L 80.8375 298.35625 L 92.871875 330.696875 L 101.221875 350.70625 L 102.121875 354.790625 L 101.55625 358.14375 " transform="matrix(1.25,0,0,1.25,0,0)"/>
<path style="fill:none;stroke-width:1.5;stroke-linecap:square;stroke-linejoin:round;stroke:rgb(0%,0%,0%);stroke-opacity:1;stroke-miterlimit:4;" d="M 102.1125 169.646875 L 94.690625 175.85625 L 75.05625 189.596875 L 42.346875 214.73125 L 24.409375 229.415625 L 9.4875 242.828125 " transform="matrix(1.25,0,0,1.25,0,0)"/>
<path style="fill:none;stroke-width:1.5;stroke-linecap:square;stroke-linejoin:round;stroke:rgb(0%,0%,0%);stroke-opacity:1;stroke-miterlimit:4;" d="M 290.71875 359.25 L 296.478125 362.75625 L 302.60625 365.815625 L 309.0125 368.403125 L 315.8125 370.546875 L 322.065625 372.003125 L 328.103125 372.953125 L 344.915625 374.021875 L 352.096875 375.884375 " transform="matrix(1.25,0,0,1.25,0,0)"/>
<path style="fill:none;stroke-width:1.5;stroke-linecap:square;stroke-linejoin:round;stroke:rgb(0%,0%,0%);stroke-opacity:1;stroke-miterlimit:4;" d="M 160.703125 427.44375 L 150.28125 443.51875 L 124.990625 494.525 " transform="matrix(1.25,0,0,1.25,0,0)"/>
<path style="fill:none;stroke-width:1.5;stroke-linecap:square;stroke-linejoin:round;stroke:rgb(0%,0%,0%);stroke-opacity:1;stroke-miterlimit:4;" d="M 59.146875 213.44375 L 62.634375 213.20625 L 65.728125 212.525 L 68.875 211.290625 L 71.921875 209.534375 L 100.053125 187.265625 L 120.528125 172.41875 " transform="matrix(1.25,0,0,1.25,0,0)"/>
<path style="fill:none;stroke-width:1.5;stroke-linecap:square;stroke-linejoin:round;stroke:rgb(0%,0%,0%);stroke-opacity:1;stroke-miterlimit:4;" d="M 179.675 197.921875 L 190.009375 190.846875 L 200.025 185.584375 L 209.203125 182.390625 L 213.55625 181.5625 L 217.61875 181.2875 " transform="matrix(1.25,0,0,1.25,0,0)"/>
<path style="fill:none;stroke-width:1.5;stroke-linecap:square;stroke-linejoin:round;stroke:rgb(0%,0%,0%);stroke-opacity:1;stroke-miterlimit:4;" d="M 103.7875 243.38125 L 101.20625 243.3125 L 99 241.453125 L 93.2875 230.215625 L 92.028125 227.0375 L 91.75625 224.4125 L 92.50625 222.2875 L 94.290625 220.4875 L 97.090625 218.9875 " transform="matrix(1.25,0,0,1.25,0,0)"/>
<path style="fill:none;stroke-width:1.5;stroke-linecap:square;stroke-linejoin:round;stroke:rgb(0%,0%,0%);stroke-opacity:1;stroke-miterlimit:4;" d="M 59.70625 411.91875 L 58.503125 414.453125 L 57.95625 416.984375 L 57.990625 419.69375 L 58.621875 422.575 L 61.00625 427.934375 L 68.634375 440.746875 " transform="matrix(1.25,0,0,1.25,0,0)"/>
<path style="fill:none;stroke-width:1.5;stroke-linecap:square;stroke-linejoin:round;stroke:rgb(0%,0%,0%);stroke-opacity:1;stroke-miterlimit:4;" d="M 208.134375 336.521875 L 210.925 336.521875 " transform="matrix(1.25,0,0,1.25,0,0)"/>
<path style="fill:none;stroke-width:1.5;stroke-linecap:square;stroke-linejoin:round;stroke:rgb(0%,0%,0%);stroke-opacity:1;stroke-miterlimit:4;" d="M 267.28125 449.61875 L 251.659375 492.8625 " transform="matrix(1.25,0,0,1.25,0,0)"/>
<path style="fill:none;stroke-width:1.5;stroke-linecap:square;stroke-linejoin:round;stroke:rgb(0%,0%,0%);stroke-opacity:1;stroke-miterlimit:4;" d="M 116.621875 358.696875 L 90.396875 384.15 L 52.453125 414.690625 " transform="matrix(1.25,0,0,1.25,0,0)"/>
<path style="fill:none;stroke-width:1.5;stroke-linecap:square;stroke-linejoin:round;stroke:rgb(0%,0%,0%);stroke-opacity:1;stroke-miterlimit:4;" d="M 18.4125 83.715625 L 18.96875 88.546875 L 20.234375 92.88125 L 21.86875 95.471875 L 23.7375 96.425 L 25.946875 95.8625 L 27.509375 94.1375 L 28.715625 91.03125 L 30.13125 84.821875 " transform="matrix(1.25,0,0,1.25,0,0)"/>
<path style="fill:none;stroke-width:1.5;stroke-linecap:square;stroke-linejoin:round;stroke:rgb(0%,0%,0%);stroke-opacity:1;stroke-miterlimit:4;" d="M 8.36875 367.56875 L 18.14375 384.94375 L 28.484375 404.821875 L 52.584375 454.709375 L 67.490625 483.9 L 73.096875 496.1875 " transform="matrix(1.25,0,0,1.25,0,0)"/>
<path style="fill:none;stroke-width:1.5;stroke-linecap:square;stroke-linejoin:round;stroke:rgb(0%,0%,0%);stroke-opacity:1;stroke-miterlimit:4;" d="M 110.484375 347.053125 L 106.09375 338.196875 L 98.1125 317.9625 L 77.515625 272.68125 L 71.959375 258.95625 L 63.490625 236.128125 L 54.646875 217.853125 L 54.10625 215.7875 L 54.359375 214.25 L 55.421875 213.29375 L 57.475 212.890625 " transform="matrix(1.25,0,0,1.25,0,0)"/>
<path style="fill:none;stroke-width:1.5;stroke-linecap:square;stroke-linejoin:round;stroke:rgb(0%,0%,0%);stroke-opacity:1;stroke-miterlimit:4;" d="M 222.640625 442.965625 L 195.859375 500.621875 " transform="matrix(1.25,0,0,1.25,0,0)"/>
<path style="fill:none;stroke-width:1.5;stroke-linecap:square;stroke-linejoin:round;stroke:rgb(0%,0%,0%);stroke-opacity:1;stroke-miterlimit:4;" d="M 187.4875 405.821875 L 186.93125 421.34375 " transform="matrix(1.25,0,0,1.25,0,0)"/>
<path style="fill:none;stroke-width:1.5;stroke-linecap:square;stroke-linejoin:round;stroke:rgb(0%,0%,0%);stroke-opacity:1;stroke-miterlimit:4;" d="M 78.11875 444.628125 L 77.571875 455.865625 L 78.228125 460.1625 L 79.51875 465.090625 L 81.7625 471.409375 L 84.709375 478.153125 L 93.1875 493.971875 " transform="matrix(1.25,0,0,1.25,0,0)"/>
<path style="fill:none;stroke-width:1.5;stroke-linecap:square;stroke-linejoin:round;stroke:rgb(0%,0%,0%);stroke-opacity:1;stroke-miterlimit:4;" d="M 72.540625 403.603125 L 77.63125 417.56875 L 78.63125 422.3625 L 78.8375 426.68125 L 78.2 430.684375 L 76.665625 434.365625 L 74.215625 437.71875 L 70.865625 440.746875 " transform="matrix(1.25,0,0,1.25,0,0)"/>
<path style="fill:none;stroke-width:1.5;stroke-linecap:square;stroke-linejoin:round;stroke:rgb(0%,0%,0%);stroke-opacity:1;stroke-miterlimit:4;" d="M 231.56875 362.578125 L 230.425 364.678125 L 230.234375 366.46875 L 231.01875 367.815625 L 232.6875 368.675 " transform="matrix(1.25,0,0,1.25,0,0)"/>
<path style="fill:none;stroke-width:1.5;stroke-linecap:square;stroke-linejoin:round;stroke:rgb(0%,0%,0%);stroke-opacity:1;stroke-miterlimit:4;" d="M 194.740625 477.3375 L 198.378125 479.20625 L 199.225 480.30625 L 199.46875 481.50625 L 198.915625 484.19375 L 197.56875 487.209375 L 195.9125 489.453125 L 194.415625 490.35 L 192.5625 489.803125 L 189.2875 486.546875 L 187.31875 485.325 L 184.2125 484.225 L 180.134375 483.51875 L 172.71875 483.590625 L 159.365625 485.721875 L 154.009375 486.209375 " transform="matrix(1.25,0,0,1.25,0,0)"/>
<path style="fill:none;stroke-width:1.5;stroke-linecap:square;stroke-linejoin:round;stroke:rgb(0%,0%,0%);stroke-opacity:1;stroke-miterlimit:4;" d="M 160.703125 396.95 L 280.675 390.296875 " transform="matrix(1.25,0,0,1.25,0,0)"/>
<path style="fill:none;stroke-width:1.5;stroke-linecap:square;stroke-linejoin:round;stroke:rgb(0%,0%,0%);stroke-opacity:1;stroke-miterlimit:4;" d="M 145.6375 248.371875 L 140.88125 246.134375 L 136.478125 243.575 L 132.440625 240.71875 L 128.90625 237.65 L 125.98125 234.44375 L 123.725 231.165625 L 122.375 228.215625 L 121.6125 224.98125 L 121.421875 220.725 L 122.084375 216.215625 L 123.515625 212.140625 L 125.575 208.709375 L 127.84375 206.309375 L 130.571875 204.528125 L 134.484375 203.065625 L 138.95625 202.19375 L 146.365625 201.80625 L 154.728125 202.0875 L 161.753125 203.19375 L 169.134375 205.203125 L 175.3 207.478125 L 182.109375 210.496875 L 204.253125 221.940625 L 212.80625 225.99375 L 223.7375 230.19375 L 232.271875 232.70625 L 238.371875 233.753125 L 244.0625 233.925 L 254.5875 231.6875 L 258.015625 231.375 L 272.303125 232.846875 " transform="matrix(1.25,0,0,1.25,0,0)"/>
<path style="fill:none;stroke-width:1.5;stroke-linecap:square;stroke-linejoin:round;stroke:rgb(0%,0%,0%);stroke-opacity:1;stroke-miterlimit:4;" d="M 82.584375 393.06875 L 90.396875 411.91875 L 91.165625 418.790625 L 80.353125 420.234375 " transform="matrix(1.25,0,0,1.25,0,0)"/>
<path style="fill:none;stroke-width:1.5;stroke-linecap:square;stroke-linejoin:round;stroke:rgb(0%,0%,0%);stroke-opacity:1;stroke-miterlimit:4;" d="M 10.603125 413.028125 L 39.48125 472.903125 L 49.103125 493.971875 " transform="matrix(1.25,0,0,1.25,0,0)"/>
<path style="fill:none;stroke-width:1.5;stroke-linecap:square;stroke-linejoin:round;stroke:rgb(0%,0%,0%);stroke-opacity:1;stroke-miterlimit:4;" d="M 219.853125 347.609375 L 224.315625 370.340625 " transform="matrix(1.25,0,0,1.25,0,0)"/>
<path style="fill:none;stroke-width:1.5;stroke-linecap:square;stroke-linejoin:round;stroke:rgb(0%,0%,0%);stroke-opacity:1;stroke-miterlimit:4;" d="M 95.975 494.525 L 118.40625 465.7875 L 125.4 457.8 L 137.234375 445.303125 L 140.4375 442.396875 L 143.371875 440.565625 L 146.56875 439.453125 L 150.103125 439.084375 " transform="matrix(1.25,0,0,1.25,0,0)"/>
<path style="fill:none;stroke-width:1.5;stroke-linecap:square;stroke-linejoin:round;stroke:rgb(0%,0%,0%);stroke-opacity:1;stroke-miterlimit:4;" d="M 52.453125 385.309375 L 53.56875 387.525 " transform="matrix(1.25,0,0,1.25,0,0)"/>
<path style="fill:none;stroke-width:1.5;stroke-linecap:square;stroke-linejoin:round;stroke:rgb(0%,0%,0%);stroke-opacity:1;stroke-miterlimit:4;" d="M 8.928125 115.315625 L 10.903125 115.51875 L 12.703125 116.1375 L 15.275 118.40625 L 16.946875 122.034375 L 18.4125 128.621875 " transform="matrix(1.25,0,0,1.25,0,0)"/>
<path style="fill:none;stroke-width:1.5;stroke-linecap:square;stroke-linejoin:round;stroke:rgb(0%,0%,0%);stroke-opacity:1;stroke-miterlimit:4;" d="M 208.690625 283.296875 L 193.60625 290.225 L 188.08125 292.253125 L 181.684375 293.328125 L 175.675 292.725 L 172.55625 291.4375 L 170.28125 289.59375 L 168.79375 287.20625 L 168.234375 284.534375 L 168.65 281.603125 L 169.9875 278.884375 L 172.240625 276.403125 L 175.2125 274.428125 " transform="matrix(1.25,0,0,1.25,0,0)"/>
<path style="fill:none;stroke-width:1.5;stroke-linecap:square;stroke-linejoin:round;stroke:rgb(0%,0%,0%);stroke-opacity:1;stroke-miterlimit:4;" d="M 203.66875 138.6 L 204.14375 144.040625 L 206.5125 155.76875 L 207.16875 161.065625 L 206.884375 166.465625 L 205.403125 171.2375 L 202.296875 176.23125 L 197.634375 180.934375 L 192.35 184.896875 L 179.11875 193.484375 " transform="matrix(1.25,0,0,1.25,0,0)"/>
<path style="fill:none;stroke-width:1.5;stroke-linecap:square;stroke-linejoin:round;stroke:rgb(0%,0%,0%);stroke-opacity:1;stroke-miterlimit:4;" d="M 198.090625 460.153125 L 204.596875 459.51875 L 206.33125 459.965625 L 207.534375 460.95625 L 207.959375 462.703125 L 207.440625 464.971875 L 206.034375 467.58125 L 204.090625 469.75 L 200.434375 471.45625 L 195.76875 472.49375 L 190.14375 472.921875 L 181.35 472.903125 " transform="matrix(1.25,0,0,1.25,0,0)"/>
<path style="fill:none;stroke-width:1.5;stroke-linecap:square;stroke-linejoin:round;stroke:rgb(0%,0%,0%);stroke-opacity:1;stroke-miterlimit:4;" d="M 261.703125 379.209375 L 259.509375 380.565625 L 257.55625 381.275 L 255.7 381.384375 L 253.975 380.840625 L 252.40625 379.603125 L 251.09375 377.803125 L 248.915625 372.290625 L 245.053125 350.95625 L 244.846875 347.0375 L 245.46875 344.715625 L 246.653125 343.43125 L 248.471875 342.7875 L 251.659375 342.61875 " transform="matrix(1.25,0,0,1.25,0,0)"/>
<path style="fill:none;stroke-width:1.5;stroke-linecap:square;stroke-linejoin:round;stroke:rgb(0%,0%,0%);stroke-opacity:1;stroke-miterlimit:4;" d="M 167.4 481.21875 L 171.328125 474.01875 L 179.44375 457.559375 L 180.8125 455.475 L 182.440625 453.95 L 185.228125 452.89375 L 188.825 452.85625 L 204.228125 456.271875 " transform="matrix(1.25,0,0,1.25,0,0)"/>
<path style="fill:none;stroke-width:1.5;stroke-linecap:square;stroke-linejoin:round;stroke:rgb(0%,0%,0%);stroke-opacity:1;stroke-miterlimit:4;" d="M 45.196875 418.571875 L 40.175 423.00625 " transform="matrix(1.25,0,0,1.25,0,0)"/>
<path style="fill:none;stroke-width:1.5;stroke-linecap:square;stroke-linejoin:round;stroke:rgb(0%,0%,0%);stroke-opacity:1;stroke-miterlimit:4;" d="M 75.33125 367.56875 L 97.090625 353.70625 " transform="matrix(1.25,0,0,1.25,0,0)"/>
<path style="fill:none;stroke-width:1.5;stroke-linecap:square;stroke-linejoin:round;stroke:rgb(0%,0%,0%);stroke-opacity:1;stroke-miterlimit:4;" d="M 14.509375 147.471875 L 74.2125 109.771875 " transform="matrix(1.25,0,0,1.25,0,0)"/>
<path style="fill:none;stroke-width:1.5;stroke-linecap:square;stroke-linejoin:round;stroke:rgb(0%,0%,0%);stroke-opacity:1;stroke-miterlimit:4;" d="M 137.26875 385.8625 L 145.640625 377.178125 L 157.9125 377.54375 L 188.046875 376.990625 " transform="matrix(1.25,0,0,1.25,0,0)"/>
<path style="fill:none;stroke-width:1.5;stroke-linecap:square;stroke-linejoin:round;stroke:rgb(0%,0%,0%);stroke-opacity:1;stroke-miterlimit:4;" d="M 166.840625 434.65 L 169.971875 433.646875 L 173.5125 433.134375 L 182.328125 433.525 L 195.846875 435.675 L 234.521875 440.565625 L 254.0625 443.85625 L 264.371875 445.240625 L 270.81875 446.721875 L 275.271875 448.7625 L 277.31875 450.55 L 278.509375 452.575 L 278.95625 455.115625 L 278.621875 458.0125 L 263.934375 498.959375 " transform="matrix(1.25,0,0,1.25,0,0)"/>
<path style="fill:none;stroke-width:1.5;stroke-linecap:square;stroke-linejoin:round;stroke:rgb(0%,0%,0%);stroke-opacity:1;stroke-miterlimit:4;" d="M 151.775 441.303125 L 103.7875 501.73125 " transform="matrix(1.25,0,0,1.25,0,0)"/>
<path style="fill:none;stroke-width:1.5;stroke-linecap:square;stroke-linejoin:round;stroke:rgb(0%,0%,0%);stroke-opacity:1;stroke-miterlimit:4;" d="M 282.346875 405.265625 L 282.103125 409.675 L 281.175 412.425 L 279.371875 414.38125 L 276.325 415.71875 L 262.4625 417.746875 L 241.4375 419.378125 L 225.34375 421.228125 L 219.975 421.00625 L 218.4125 420.50625 L 217.36875 419.621875 L 216.671875 418.11875 L 216.315625 416.00625 L 216.503125 408.59375 " transform="matrix(1.25,0,0,1.25,0,0)"/>
<path style="fill:none;stroke-width:1.5;stroke-linecap:square;stroke-linejoin:round;stroke:rgb(0%,0%,0%);stroke-opacity:1;stroke-miterlimit:4;" d="M 83.7 391.40625 L 87.95625 397.378125 L 91.75 404.0125 L 95.34375 411.703125 L 99.415625 421.903125 L 105.15625 437.359375 L 108.8 448.553125 L 111.475 458.909375 L 113.275 469.021875 " transform="matrix(1.25,0,0,1.25,0,0)"/>
<path style="fill:none;stroke-width:1.5;stroke-linecap:square;stroke-linejoin:round;stroke:rgb(0%,0%,0%);stroke-opacity:1;stroke-miterlimit:4;" d="M 252.775 344.28125 L 254.9375 345.5 L 256.86875 347.19375 L 258.51875 349.384375 L 259.78125 351.878125 L 261.5 358.278125 L 262.259375 367.0125 " transform="matrix(1.25,0,0,1.25,0,0)"/>
<path style="fill:none;stroke-width:1.5;stroke-linecap:square;stroke-linejoin:round;stroke:rgb(0%,0%,0%);stroke-opacity:1;stroke-miterlimit:4;" d="M 13.95 336.521875 L 31.884375 377.9875 L 42.81875 400.753125 L 44.94375 404.196875 L 47.01875 406.403125 L 49.21875 407.521875 L 51.3375 407.484375 " transform="matrix(1.25,0,0,1.25,0,0)"/>
<path style="fill:none;stroke-width:1.5;stroke-linecap:square;stroke-linejoin:round;stroke:rgb(0%,0%,0%);stroke-opacity:1;stroke-miterlimit:4;" d="M 18.4125 185.16875 L 12.275 189.05 " transform="matrix(1.25,0,0,1.25,0,0)"/>
<path style="fill:none;stroke-width:1.5;stroke-linecap:square;stroke-linejoin:round;stroke:rgb(0%,0%,0%);stroke-opacity:1;stroke-miterlimit:4;" d="M 99.88125 168.5375 L 104.53125 167.853125 L 109.615625 167.91875 L 114.409375 168.709375 L 118.853125 170.2 " transform="matrix(1.25,0,0,1.25,0,0)"/>
<path style="fill:none;stroke-width:1.5;stroke-linecap:square;stroke-linejoin:round;stroke:rgb(0%,0%,0%);stroke-opacity:1;stroke-miterlimit:4;" d="M 122.759375 210.671875 L 120.603125 205.65 L 119.3 199.56875 L 119.146875 193.63125 L 120.103125 188.640625 L 121.959375 184.86875 L 124.58125 182.215625 L 128.375 180.3625 L 133.096875 179.353125 L 140.025 179.28125 L 148.38125 180.45625 L 167.453125 185.11875 L 172.421875 187.05 L 175.69375 189.8 L 177.509375 193.33125 L 178.071875 197.85625 L 177.44375 204.575 " transform="matrix(1.25,0,0,1.25,0,0)"/>
<path style="fill:none;stroke-width:1.5;stroke-linecap:square;stroke-linejoin:round;stroke:rgb(0%,0%,0%);stroke-opacity:1;stroke-miterlimit:4;" d="M 287.36875 166.875 L 283.50625 173.79375 L 277.825 187.590625 L 275.0625 193.253125 L 270.925 199.55 L 260.928125 212.115625 L 257.03125 217.6625 L 253.60625 224.20625 L 251.659375 230.63125 " transform="matrix(1.25,0,0,1.25,0,0)"/>
<path style="fill:none;stroke-width:1.5;stroke-linecap:square;stroke-linejoin:round;stroke:rgb(0%,0%,0%);stroke-opacity:1;stroke-miterlimit:4;" d="M 59.146875 375.328125 L 63.053125 381.428125 " transform="matrix(1.25,0,0,1.25,0,0)"/>
<path style="fill:none;stroke-width:1.5;stroke-linecap:square;stroke-linejoin:round;stroke:rgb(0%,0%,0%);stroke-opacity:1;stroke-miterlimit:4;" d="M 46.3125 418.571875 L 88.1625 496.1875 " transform="matrix(1.25,0,0,1.25,0,0)"/>
<path style="fill:none;stroke-width:1.5;stroke-linecap:square;stroke-linejoin:round;stroke:rgb(0%,0%,0%);stroke-opacity:1;stroke-miterlimit:4;" d="M 138.384375 386.415625 L 185.25625 385.309375 " transform="matrix(1.25,0,0,1.25,0,0)"/>
<path style="fill:none;stroke-width:1.5;stroke-linecap:square;stroke-linejoin:round;stroke:rgb(0%,0%,0%);stroke-opacity:1;stroke-miterlimit:4;" d="M 217.0625 406.375 L 223.584375 404.634375 L 230.9625 403.325 L 238.9375 402.490625 L 248.1 402.046875 L 274.9375 401.628125 L 278.978125 402.58125 L 280.2875 403.4625 L 281.23125 404.7125 " transform="matrix(1.25,0,0,1.25,0,0)"/>
<path style="fill:none;stroke-width:1.5;stroke-linecap:square;stroke-linejoin:round;stroke:rgb(0%,0%,0%);stroke-opacity:1;stroke-miterlimit:4;" d="M 347.634375 409.146875 L 346.3625 428.515625 L 345.490625 449.615625 L 344.84375 500.621875 " transform="matrix(1.25,0,0,1.25,0,0)"/>
<path style="fill:none;stroke-width:1.5;stroke-linecap:square;stroke-linejoin:round;stroke:rgb(0%,0%,0%);stroke-opacity:1;stroke-miterlimit:4;" d="M 172.421875 273.875 L 166.6625 275.41875 L 160.78125 276.415625 L 155.228125 276.78125 L 150.16875 276.546875 L 145.284375 275.671875 L 140.7125 274.140625 L 135.940625 271.95 L 132.35 269.55 L 130.196875 267.203125 L 129.18125 264.83125 L 129.196875 262.41875 L 130.275 259.840625 L 132.375 257.403125 L 135.315625 255.15625 L 139.19375 252.965625 L 144.521875 250.5875 " transform="matrix(1.25,0,0,1.25,0,0)"/>
<path style="fill:none;stroke-width:1.5;stroke-linecap:square;stroke-linejoin:round;stroke:rgb(0%,0%,0%);stroke-opacity:1;stroke-miterlimit:4;" d="M 207.01875 168.5375 L 216.2125 179.778125 L 219.346875 182.653125 L 222.503125 184.684375 L 225.6375 185.896875 L 229.021875 186.41875 L 240.496875 185.725 " transform="matrix(1.25,0,0,1.25,0,0)"/>
<path style="fill:none;stroke-width:1.5;stroke-linecap:square;stroke-linejoin:round;stroke:rgb(0%,0%,0%);stroke-opacity:1;stroke-miterlimit:4;" d="M 70.309375 116.978125 L 87.2875 146.915625 L 90.640625 152 L 91.93125 155.065625 L 91.784375 156.978125 L 90.234375 158.425 L 87.90625 159.40625 L 85.296875 159.346875 L 83.175 158.471875 L 80.978125 156.76875 L 79.04375 154.434375 L 77.38125 151.5 L 74.04375 144.203125 L 72.86875 138.4625 L 73.015625 135.871875 L 73.6875 133.275 L 74.853125 130.859375 L 76.446875 128.621875 " transform="matrix(1.25,0,0,1.25,0,0)"/>
<path style="fill:none;stroke-width:1.5;stroke-linecap:square;stroke-linejoin:round;stroke:rgb(0%,0%,0%);stroke-opacity:1;stroke-miterlimit:4;" d="M 12.834375 459.04375 L 17.215625 456.596875 L 19.171875 456.175 L 20.515625 456.440625 L 21.03125 457.3125 L 20.71875 458.665625 L 17.85625 462.36875 " transform="matrix(1.25,0,0,1.25,0,0)"/>
<path style="fill:none;stroke-width:1.5;stroke-linecap:square;stroke-linejoin:round;stroke:rgb(0%,0%,0%);stroke-opacity:1;stroke-miterlimit:4;" d="M 136.709375 385.309375 L 134.96875 388.946875 L 131.771875 392.840625 L 117.18125 405.265625 " transform="matrix(1.25,0,0,1.25,0,0)"/>
<path style="fill:none;stroke-width:1.5;stroke-linecap:square;stroke-linejoin:round;stroke:rgb(0%,0%,0%);stroke-opacity:1;stroke-miterlimit:4;" d="M 94.859375 427.996875 L 70.309375 450.728125 " transform="matrix(1.25,0,0,1.25,0,0)"/>
<path style="fill:none;stroke-width:1.5;stroke-linecap:square;stroke-linejoin:round;stroke:rgb(0%,0%,0%);stroke-opacity:1;stroke-miterlimit:4;" d="M 119.4125 198.475 L 120.109375 196.46875 L 121.3875 194.990625 L 123.459375 193.80625 L 126.134375 193.04375 L 138.84375 191.821875 L 150.7375 192.38125 L 162.4875 194.425 L 168.20625 195.96875 L 171.69375 197.303125 L 174.221875 198.83125 L 175.94375 200.575 L 177.00625 202.609375 L 177.44375 205.128125 " transform="matrix(1.25,0,0,1.25,0,0)"/>
<path style="fill:none;stroke-width:1.5;stroke-linecap:square;stroke-linejoin:round;stroke:rgb(0%,0%,0%);stroke-opacity:1;stroke-miterlimit:4;" d="M 165.16875 434.09375 L 155.26875 452.390625 L 135.59375 500.621875 " transform="matrix(1.25,0,0,1.25,0,0)"/>
<path style="fill:none;stroke-width:1.5;stroke-linecap:square;stroke-linejoin:round;stroke:rgb(0%,0%,0%);stroke-opacity:1;stroke-miterlimit:4;" d="M 102.671875 360.359375 L 51.3375 408.59375 " transform="matrix(1.25,0,0,1.25,0,0)"/>
<path style="fill:none;stroke-width:1.5;stroke-linecap:square;stroke-linejoin:round;stroke:rgb(0%,0%,0%);stroke-opacity:1;stroke-miterlimit:4;" d="M 138.384375 339.29375 L 156.815625 337.25625 L 159 337.45625 L 160.246875 338.45 L 160.959375 340.04375 L 161.184375 346.375 L 161.675 348.36875 L 162.896875 349.728125 L 165.278125 350.503125 L 182.284375 350.165625 L 201.996875 348.71875 " transform="matrix(1.25,0,0,1.25,0,0)"/>
<path style="fill:none;stroke-width:1.5;stroke-linecap:square;stroke-linejoin:round;stroke:rgb(0%,0%,0%);stroke-opacity:1;stroke-miterlimit:4;" d="M 161.81875 426.334375 L 167.96875 426.1875 L 174.99375 426.66875 L 267.35 437.290625 L 276.409375 439.1125 L 279.965625 440.43125 L 282.796875 441.971875 L 285.996875 444.76875 L 288.075 448.24375 L 289.003125 452.315625 L 288.753125 456.85625 L 287.221875 462.790625 L 281.784375 478.53125 L 277.565625 489.5 L 273.41875 498.959375 " transform="matrix(1.25,0,0,1.25,0,0)"/>
<path style="fill:none;stroke-width:1.5;stroke-linecap:square;stroke-linejoin:round;stroke:rgb(0%,0%,0%);stroke-opacity:1;stroke-miterlimit:4;" d="M 135.59375 335.4125 L 143.309375 332.9875 L 152.40625 331.703125 L 160.225 331.3875 L 185.440625 331.353125 L 221.746875 328.259375 L 235.475 327.65 " transform="matrix(1.25,0,0,1.25,0,0)"/>
<path style="fill:none;stroke-width:1.5;stroke-linecap:square;stroke-linejoin:round;stroke:rgb(0%,0%,0%);stroke-opacity:1;stroke-miterlimit:4;" d="M 204.7875 456.271875 L 200.990625 458.3375 L 196.765625 459.75 L 192.18125 460.484375 L 186.371875 460.70625 " transform="matrix(1.25,0,0,1.25,0,0)"/>
<path style="fill:none;stroke-width:1.5;stroke-linecap:square;stroke-linejoin:round;stroke:rgb(0%,0%,0%);stroke-opacity:1;stroke-miterlimit:4;" d="M 68.634375 403.603125 L 60.2625 411.91875 " transform="matrix(1.25,0,0,1.25,0,0)"/>
<path style="fill:none;stroke-width:1.5;stroke-linecap:square;stroke-linejoin:round;stroke:rgb(0%,0%,0%);stroke-opacity:1;stroke-miterlimit:4;" d="M 10.603125 477.89375 L 17.85625 490.64375 " transform="matrix(1.25,0,0,1.25,0,0)"/>
<path style="fill:none;stroke-width:1.5;stroke-linecap:square;stroke-linejoin:round;stroke:rgb(0%,0%,0%);stroke-opacity:1;stroke-miterlimit:4;" d="M 189.1625 404.15625 L 199.2375 404.20625 L 203.153125 404.70625 L 205.825 406.08125 L 206.378125 407.215625 L 206.5 408.621875 L 205.81875 413.221875 L 205.628125 418.25 L 205.0875 419.765625 L 204.03125 420.9625 L 201.88125 422.034375 L 198.95625 422.59375 L 188.603125 422.453125 " transform="matrix(1.25,0,0,1.25,0,0)"/>
<path style="fill:none;stroke-width:1.5;stroke-linecap:square;stroke-linejoin:round;stroke:rgb(0%,0%,0%);stroke-opacity:1;stroke-miterlimit:4;" d="M 144.521875 247.815625 L 148.878125 250.00625 L 153.28125 252.96875 L 169.3 266.840625 L 176.7 271.934375 L 187.09375 276.6 L 205.76875 282.6625 L 212.540625 285.20625 L 219.265625 288.5 L 224.975 292.28125 L 230.76875 297.546875 L 235.94375 304.05 L 240.296875 311.10625 L 250.3625 329.65625 L 253.74375 334.7875 L 257.190625 339.10625 L 260.971875 342.890625 L 265.084375 345.8 L 269.996875 348.309375 L 283.925 354.284375 L 287.84375 356.609375 L 290.878125 359.065625 L 294.109375 362.65 L 297.128125 366.9375 L 308.290625 386.496875 L 311.55 390.709375 L 314.91875 394.05625 L 319.990625 397.646875 L 326.10625 400.646875 L 333.571875 403.29375 L 355.734375 409.825 L 362.4625 412.74375 L 369.678125 416.728125 L 379.0375 423.11875 L 388.40625 430.875 L 397.53125 439.771875 L 406.225 449.61875 " transform="matrix(1.25,0,0,1.25,0,0)"/>
<path style="fill:none;stroke-width:1.5;stroke-linecap:square;stroke-linejoin:round;stroke:rgb(0%,0%,0%);stroke-opacity:1;stroke-miterlimit:4;" d="M 118.296875 153.56875 L 106.18125 162.86875 L 78.484375 181.053125 L 52.9875 199.16875 L 32.446875 215.140625 L 14.509375 230.63125 " transform="matrix(1.25,0,0,1.25,0,0)"/>
<path style="fill:none;stroke-width:1.5;stroke-linecap:square;stroke-linejoin:round;stroke:rgb(0%,0%,0%);stroke-opacity:1;stroke-miterlimit:4;" d="M 24.553125 467.359375 L 21.7625 469.021875 " transform="matrix(1.25,0,0,1.25,0,0)"/>
<path style="fill:none;stroke-width:1.5;stroke-linecap:square;stroke-linejoin:round;stroke:rgb(0%,0%,0%);stroke-opacity:1;stroke-miterlimit:4;" d="M 55.240625 378.65625 L 57.475 383.090625 " transform="matrix(1.25,0,0,1.25,0,0)"/>
<path style="fill:none;stroke-width:1.5;stroke-linecap:square;stroke-linejoin:round;stroke:rgb(0%,0%,0%);stroke-opacity:1;stroke-miterlimit:4;" d="M 120.528125 222.86875 L 118.615625 226.29375 L 112.7625 234.071875 L 111.015625 237.434375 L 110.584375 239.359375 L 110.71875 241.334375 L 111.4625 243.23125 L 112.828125 245.0125 L 115.6 247.259375 L 119.50625 249.471875 L 123.121875 250.703125 L 126.84375 251.284375 L 131.034375 251.24375 L 135.209375 250.565625 L 139.690625 249.1875 L 143.9625 247.2625 " transform="matrix(1.25,0,0,1.25,0,0)"/>
<path style="fill:none;stroke-width:1.5;stroke-linecap:square;stroke-linejoin:round;stroke:rgb(0%,0%,0%);stroke-opacity:1;stroke-miterlimit:4;" d="M 16.740625 167.428125 L 33.48125 201.803125 " transform="matrix(1.25,0,0,1.25,0,0)"/>
<path style="fill:none;stroke-width:1.5;stroke-linecap:square;stroke-linejoin:round;stroke:rgb(0%,0%,0%);stroke-opacity:1;stroke-miterlimit:4;" d="M 194.184375 217.325 L 226.390625 209.5 L 231.59375 208.9625 L 236.034375 209.5625 " transform="matrix(1.25,0,0,1.25,0,0)"/>
<path style="fill:none;stroke-width:1.5;stroke-linecap:square;stroke-linejoin:round;stroke:rgb(0%,0%,0%);stroke-opacity:1;stroke-miterlimit:4;" d="M 10.603125 425.778125 L 11.746875 430.728125 L 11.871875 433.28125 L 11.1625 435.503125 L 9.4875 437.421875 " transform="matrix(1.25,0,0,1.25,0,0)"/>
<path style="fill:none;stroke-width:1.5;stroke-linecap:square;stroke-linejoin:round;stroke:rgb(0%,0%,0%);stroke-opacity:1;stroke-miterlimit:4;" d="M 40.734375 391.959375 L 45.196875 396.95 " transform="matrix(1.25,0,0,1.25,0,0)"/>
<path style="fill:none;stroke-width:1.5;stroke-linecap:square;stroke-linejoin:round;stroke:rgb(0%,0%,0%);stroke-opacity:1;stroke-miterlimit:4;" d="M 9.4875 136.9375 L 18.73125 130.146875 L 29.575 123.296875 L 61.878125 105.23125 L 74.41875 97.909375 L 80.6125 93.759375 L 82.140625 93.103125 L 83.503125 93.003125 L 85.909375 94.2125 L 88.65 97.225 L 94.60625 106.628125 L 104.978125 120.740625 L 110.475 128.925 L 114.075 135.15 L 116.8875 141.025 L 119.015625 146.728125 L 120.528125 152.459375 " transform="matrix(1.25,0,0,1.25,0,0)"/>
<path style="fill:none;stroke-width:1.5;stroke-linecap:square;stroke-linejoin:round;stroke:rgb(0%,0%,0%);stroke-opacity:1;stroke-miterlimit:4;" d="M 67.51875 213.996875 L 72.56875 228.378125 L 78.88125 244.459375 L 103.053125 300.63125 L 126.021875 358.428125 L 137.26875 384.2 " transform="matrix(1.25,0,0,1.25,0,0)"/>
<path style="fill:none;stroke-width:1.5;stroke-linecap:square;stroke-linejoin:round;stroke:rgb(0%,0%,0%);stroke-opacity:1;stroke-miterlimit:4;" d="M 219.29375 387.525 L 220.421875 386.534375 L 221.146875 385.05 L 221.415625 383.103125 L 221.2 380.609375 L 220.203125 376.9625 L 217.88125 373.934375 L 217.2 372.453125 L 216.690625 366.459375 L 213.9875 356.89375 L 213.1875 351.815625 L 213.375 349.05 L 214.159375 347.04375 L 215.528125 345.65625 L 217.61875 344.8375 " transform="matrix(1.25,0,0,1.25,0,0)"/>
<path style="fill:none;stroke-width:1.5;stroke-linecap:square;stroke-linejoin:round;stroke:rgb(0%,0%,0%);stroke-opacity:1;stroke-miterlimit:4;" d="M 24.553125 476.784375 L 29.1375 474.215625 L 30.784375 473.8375 L 31.90625 474.125 L 32.41875 475.103125 L 32.309375 476.715625 L 29.865625 481.428125 L 29.628125 482.83125 L 30.90625 484 L 34.0375 484.546875 " transform="matrix(1.25,0,0,1.25,0,0)"/>
<path style="fill:none;stroke-width:1.5;stroke-linecap:square;stroke-linejoin:round;stroke:rgb(0%,0%,0%);stroke-opacity:1;stroke-miterlimit:4;" d="M 40.734375 130.284375 L 50.83125 139.234375 L 53.196875 142.1375 L 54.8375 145.2375 L 55.55 147.875 L 55.203125 150.065625 L 53.565625 153.284375 L 51.025 156.3875 L 48.3875 158.559375 L 45.896875 159.7 L 43.9375 159.709375 L 42.134375 158.684375 L 39.90625 155.871875 L 36.625 148.6 L 32.1875 143.196875 L 30.690625 140.2625 " transform="matrix(1.25,0,0,1.25,0,0)"/>
<path style="fill:none;stroke-width:1.5;stroke-linecap:square;stroke-linejoin:round;stroke:rgb(0%,0%,0%);stroke-opacity:1;stroke-miterlimit:4;" d="M 247.753125 161.884375 L 245.584375 166.871875 L 244.31875 172.753125 L 243.871875 179.025 L 243.828125 191.634375 L 244.0125 198.134375 L 244.6625 203.23125 L 245.903125 207.78125 L 247.753125 211.78125 " transform="matrix(1.25,0,0,1.25,0,0)"/>
</g>
</svg>
