<?xml version="1.0" encoding="UTF-8"?>
<svg xmlns="http://www.w3.org/2000/svg" xmlns:xlink="http://www.w3.org/1999/xlink" width="519pt" height="729pt" viewBox="0 0 519 729" version="1.1">
<g id="surface1">
<path style="fill:none;stroke-width:1.5;stroke-linecap:square;stroke-linejoin:round;stroke:rgb(0%,0%,0%);stroke-opacity:1;stroke-miterlimit:4;" d="M 231.56875 161.884375 L 235.503125 160.13125 L 240.09375 159.715625 L 245.05 160.403125 L 255.5625 162.99375 " transform="matrix(1.25,0,0,1.25,0,0)"/>
<path style="fill:none;stroke-width:1.5;stroke-linecap:square;stroke-linejoin:round;stroke:rgb(0%,0%,0%);stroke-opacity:1;stroke-miterlimit:4;" d="M 324.196875 116.425 L 328.665625 123.453125 L 332.571875 131.41875 L 335.846875 140.253125 L 338.375 149.6375 L 340.15625 159.40625 L 341.190625 169.38125 L 341.55625 185.075 L 341.259375 192.46875 L 340.315625 197.8375 L 338.046875 204.7625 L 335.153125 211.3625 L 331.578125 217.821875 L 327.453125 223.940625 L 322.696875 229.884375 L 317.321875 235.634375 L 311.3625 241.1625 " transform="matrix(1.25,0,0,1.25,0,0)"/>
<path style="fill:none;stroke-width:1.5;stroke-linecap:square;stroke-linejoin:round;stroke:rgb(0%,0%,0%);stroke-opacity:1;stroke-miterlimit:4;" d="M 34.0375 282.190625 L 36 294.81875 L 38.684375 308.95 L 55.159375 385.784375 L 56.584375 389.778125 L 58.7125 392.1125 L 60.94375 393.00625 L 63.83125 393.296875 L 67.5125 392.975 L 71.846875 392.06875 L 127.121875 377.0125 L 153.1125 371.18125 L 159.75 368.621875 L 162.134375 367.125 L 164.053125 365.35 " transform="matrix(1.25,0,0,1.25,0,0)"/>
<path style="fill:none;stroke-width:1.5;stroke-linecap:square;stroke-linejoin:round;stroke:rgb(0%,0%,0%);stroke-opacity:1;stroke-miterlimit:4;" d="M 311.3625 242.271875 L 317.890625 243.3625 L 329.1625 246.484375 L 335.378125 248.765625 L 341.109375 251.571875 L 346.284375 254.940625 L 350.7875 258.81875 L 354.89375 263.45 L 358.428125 268.690625 L 361.246875 274.13125 L 363.61875 280.065625 L 365.628125 286.646875 L 367.378125 294.246875 L 369.203125 305.0875 L 372.796875 331.734375 L 374.41875 349.271875 " transform="matrix(1.25,0,0,1.25,0,0)"/>
<path style="fill:none;stroke-width:1.5;stroke-linecap:square;stroke-linejoin:round;stroke:rgb(0%,0%,0%);stroke-opacity:1;stroke-miterlimit:4;" d="M 57.475 353.70625 L 80.353125 347.609375 " transform="matrix(1.25,0,0,1.25,0,0)"/>
<path style="fill:none;stroke-width:1.5;stroke-linecap:square;stroke-linejoin:round;stroke:rgb(0%,0%,0%);stroke-opacity:1;stroke-miterlimit:4;" d="M 247.19375 175.74375 L 245.73125 174.840625 L 245.115625 173.553125 L 245.434375 171.9875 L 246.6375 170.75625 " transform="matrix(1.25,0,0,1.25,0,0)"/>
<path style="fill:none;stroke-width:1.5;stroke-linecap:square;stroke-linejoin:round;stroke:rgb(0%,0%,0%);stroke-opacity:1;stroke-miterlimit:4;" d="M 290.159375 202.909375 L 283.04375 209.20625 L 279.01875 212.24375 L 275.059375 214.328125 L 271.715625 215.034375 L 268.56875 214.453125 L 265.265625 212.64375 L 261.61875 209.6 L 256.121875 204.01875 " transform="matrix(1.25,0,0,1.25,0,0)"/>
<path style="fill:none;stroke-width:1.5;stroke-linecap:square;stroke-linejoin:round;stroke:rgb(0%,0%,0%);stroke-opacity:1;stroke-miterlimit:4;" d="M 126.665625 278.309375 L 127.225 280.525 " transform="matrix(1.25,0,0,1.25,0,0)"/>
<path style="fill:none;stroke-width:1.5;stroke-linecap:square;stroke-linejoin:round;stroke:rgb(0%,0%,0%);stroke-opacity:1;stroke-miterlimit:4;" d="M 283.4625 205.128125 L 278.059375 207.175 L 272.91875 208.109375 L 267.696875 207.996875 L 262.259375 206.790625 " transform="matrix(1.25,0,0,1.25,0,0)"/>
<path style="fill:none;stroke-width:1.5;stroke-linecap:square;stroke-linejoin:round;stroke:rgb(0%,0%,0%);stroke-opacity:1;stroke-miterlimit:4;" d="M 251.1 201.803125 L 255.303125 203.778125 L 259.93125 205.16875 L 265.08125 206.025 L 270.640625 206.315625 L 276.4625 206.00625 L 282.15 205.121875 L 287.51875 203.703125 L 292.390625 201.803125 " transform="matrix(1.25,0,0,1.25,0,0)"/>
<path style="fill:none;stroke-width:1.5;stroke-linecap:square;stroke-linejoin:round;stroke:rgb(0%,0%,0%);stroke-opacity:1;stroke-miterlimit:4;" d="M 184.696875 353.70625 L 372.74375 352.04375 " transform="matrix(1.25,0,0,1.25,0,0)"/>
<path style="fill:none;stroke-width:1.5;stroke-linecap:square;stroke-linejoin:round;stroke:rgb(0%,0%,0%);stroke-opacity:1;stroke-miterlimit:4;" d="M 63.6125 357.5875 L 75.8875 354.2625 " transform="matrix(1.25,0,0,1.25,0,0)"/>
<path style="fill:none;stroke-width:1.5;stroke-linecap:square;stroke-linejoin:round;stroke:rgb(0%,0%,0%);stroke-opacity:1;stroke-miterlimit:4;" d="M 123.875 337.075 L 125.55 339.29375 " transform="matrix(1.25,0,0,1.25,0,0)"/>
<path style="fill:none;stroke-width:1.5;stroke-linecap:square;stroke-linejoin:round;stroke:rgb(0%,0%,0%);stroke-opacity:1;stroke-miterlimit:4;" d="M 60.821875 356.478125 L 78.11875 352.04375 " transform="matrix(1.25,0,0,1.25,0,0)"/>
<path style="fill:none;stroke-width:1.5;stroke-linecap:square;stroke-linejoin:round;stroke:rgb(0%,0%,0%);stroke-opacity:1;stroke-miterlimit:4;" d="M 320.290625 298.26875 L 322.50625 296.984375 L 324.8125 296.275 L 327.196875 296.159375 L 330.3375 296.603125 " transform="matrix(1.25,0,0,1.25,0,0)"/>
<path style="fill:none;stroke-width:1.5;stroke-linecap:square;stroke-linejoin:round;stroke:rgb(0%,0%,0%);stroke-opacity:1;stroke-miterlimit:4;" d="M 299.0875 236.175 L 298.034375 249.659375 L 295.06875 264.896875 L 284.003125 304.390625 L 280.115625 314.9 " transform="matrix(1.25,0,0,1.25,0,0)"/>
<path style="fill:none;stroke-width:1.5;stroke-linecap:square;stroke-linejoin:round;stroke:rgb(0%,0%,0%);stroke-opacity:1;stroke-miterlimit:4;" d="M 121.64375 281.08125 L 122.203125 281.634375 " transform="matrix(1.25,0,0,1.25,0,0)"/>
<path style="fill:none;stroke-width:1.5;stroke-linecap:square;stroke-linejoin:round;stroke:rgb(0%,0%,0%);stroke-opacity:1;stroke-miterlimit:4;" d="M 62.496875 403.603125 L 63.053125 405.34375 L 64.059375 406.7875 L 67.703125 409.403125 L 93.265625 421.21875 L 110.578125 431.728125 L 116.534375 434.9375 L 122.96875 437.45625 L 128.6375 438.465625 L 132.228125 437.9625 L 145.0875 433.7875 L 200.75 418.86875 L 219.8625 412.91875 L 236.590625 406.928125 " transform="matrix(1.25,0,0,1.25,0,0)"/>
<path style="fill:none;stroke-width:1.5;stroke-linecap:square;stroke-linejoin:round;stroke:rgb(0%,0%,0%);stroke-opacity:1;stroke-miterlimit:4;" d="M 81.46875 348.1625 L 83.909375 351.634375 L 84.990625 354.3375 L 84.85 356.634375 L 83.528125 358.415625 L 81.140625 359.5125 L 60.2625 364.79375 " transform="matrix(1.25,0,0,1.25,0,0)"/>
<path style="fill:none;stroke-width:1.5;stroke-linecap:square;stroke-linejoin:round;stroke:rgb(0%,0%,0%);stroke-opacity:1;stroke-miterlimit:4;" d="M 254.446875 258.35 L 267.790625 259.81875 L 277.80625 260.265625 L 286.640625 259.796875 L 294.625 258.35 " transform="matrix(1.25,0,0,1.25,0,0)"/>
<path style="fill:none;stroke-width:1.5;stroke-linecap:square;stroke-linejoin:round;stroke:rgb(0%,0%,0%);stroke-opacity:1;stroke-miterlimit:4;" d="M 221.525 184.615625 L 220.121875 186.296875 L 218.403125 186.94375 L 216.196875 186.590625 L 214.075 185.265625 L 212.565625 183.5375 L 211.278125 180.9125 L 210.353125 177.71875 L 209.93125 174.353125 L 210.046875 171.840625 L 210.575 169.796875 L 211.484375 168.309375 L 212.8375 167.340625 L 214.51875 167.025 L 216.659375 167.3625 L 220.96875 169.646875 " transform="matrix(1.25,0,0,1.25,0,0)"/>
<path style="fill:none;stroke-width:1.5;stroke-linecap:square;stroke-linejoin:round;stroke:rgb(0%,0%,0%);stroke-opacity:1;stroke-miterlimit:4;" d="M 311.3625 247.2625 L 325.540625 256.9625 L 329.821875 260.721875 L 333.125 264.45 " transform="matrix(1.25,0,0,1.25,0,0)"/>
<path style="fill:none;stroke-width:1.5;stroke-linecap:square;stroke-linejoin:round;stroke:rgb(0%,0%,0%);stroke-opacity:1;stroke-miterlimit:4;" d="M 174.096875 369.784375 L 181.009375 372.646875 L 196.259375 380.328125 L 217.83125 389.5125 L 233.75625 397.909375 L 237.41875 400.5125 L 239.109375 402.85625 L 239.221875 403.9375 L 238.825 405.015625 L 236.590625 406.928125 " transform="matrix(1.25,0,0,1.25,0,0)"/>
<path style="fill:none;stroke-width:1.5;stroke-linecap:square;stroke-linejoin:round;stroke:rgb(0%,0%,0%);stroke-opacity:1;stroke-miterlimit:4;" d="M 119.96875 338.7375 L 121.64375 340.403125 " transform="matrix(1.25,0,0,1.25,0,0)"/>
<path style="fill:none;stroke-width:1.5;stroke-linecap:square;stroke-linejoin:round;stroke:rgb(0%,0%,0%);stroke-opacity:1;stroke-miterlimit:4;" d="M 58.03125 331.53125 L 124.434375 317.115625 " transform="matrix(1.25,0,0,1.25,0,0)"/>
<path style="fill:none;stroke-width:1.5;stroke-linecap:square;stroke-linejoin:round;stroke:rgb(0%,0%,0%);stroke-opacity:1;stroke-miterlimit:4;" d="M 316.94375 265.55625 L 319.671875 263.0875 L 322.56875 261.69375 L 325.56875 261.44375 L 328.440625 262.284375 L 331.384375 264.29375 L 333.99375 267.23125 L 336.178125 270.875 L 338.065625 275.484375 L 339.746875 281.25 L 340.88125 287.33125 L 341.446875 293.559375 L 341.428125 299.55 L 340.690625 306.203125 L 339.1625 312.58125 L 337.58125 317.021875 L 335.825 319.609375 L 334.103125 320.7875 L 332.24375 321.2625 L 330.50625 320.978125 L 328.759375 319.9625 L 327.05625 318.225 L 325.34375 315.68125 L 322.321875 308.803125 L 320.278125 300.753125 L 318.85 291.8125 L 317.584375 278.815625 L 317.9625 268.95625 L 317.503125 265.55625 L 311.3625 271.103125 " transform="matrix(1.25,0,0,1.25,0,0)"/>
<path style="fill:none;stroke-width:1.5;stroke-linecap:square;stroke-linejoin:round;stroke:rgb(0%,0%,0%);stroke-opacity:1;stroke-miterlimit:4;" d="M 183.58125 352.04375 L 183.58125 372.003125 " transform="matrix(1.25,0,0,1.25,0,0)"/>
<path style="fill:none;stroke-width:1.5;stroke-linecap:square;stroke-linejoin:round;stroke:rgb(0%,0%,0%);stroke-opacity:1;stroke-miterlimit:4;" d="M 286.8125 165.2125 L 298.215625 159.659375 L 303.771875 157.934375 L 306.678125 157.7375 L 309.440625 158.1375 L 312.053125 159.11875 L 314.7125 160.775 " transform="matrix(1.25,0,0,1.25,0,0)"/>
<path style="fill:none;stroke-width:1.5;stroke-linecap:square;stroke-linejoin:round;stroke:rgb(0%,0%,0%);stroke-opacity:1;stroke-miterlimit:4;" d="M 108.25 345.659375 L 109.790625 345.890625 L 110.6375 346.634375 L 110.775 347.83125 L 110.05625 349.128125 L 106.5875 351.3125 L 100.95625 353.56875 L 97.21875 354.49375 L 94.834375 354.55 L 92.45625 353.225 L 91.009375 351.153125 L 90.93125 349.996875 L 91.54375 348.9625 L 94.740625 347.4625 L 100.359375 346.296875 L 108.25 345.659375 " transform="matrix(1.25,0,0,1.25,0,0)"/>
<path style="fill:none;stroke-width:1.5;stroke-linecap:square;stroke-linejoin:round;stroke:rgb(0%,0%,0%);stroke-opacity:1;stroke-miterlimit:4;" d="M 143.9625 427.996875 L 125.4375 418.2375 L 104.059375 408.6 L 102.334375 407.23125 L 101.590625 405.79375 L 101.89375 404.4875 L 103.36875 403.384375 L 132.6125 394.428125 L 159.9625 388.55 L 168.025 386.4125 L 171.696875 385.915625 L 174.096875 386.0875 L 176.465625 386.90625 L 186.68125 393.4375 L 202.553125 400.83125 " transform="matrix(1.25,0,0,1.25,0,0)"/>
<path style="fill:none;stroke-width:1.5;stroke-linecap:square;stroke-linejoin:round;stroke:rgb(0%,0%,0%);stroke-opacity:1;stroke-miterlimit:4;" d="M 56.359375 325.43125 L 61.946875 323.625 L 75.603125 320.99375 L 100.715625 314.63125 L 109.2 313.0125 L 116.621875 312.128125 " transform="matrix(1.25,0,0,1.25,0,0)"/>
<path style="fill:none;stroke-width:1.5;stroke-linecap:square;stroke-linejoin:round;stroke:rgb(0%,0%,0%);stroke-opacity:1;stroke-miterlimit:4;" d="M 241.05625 242.828125 L 230.453125 256.13125 " transform="matrix(1.25,0,0,1.25,0,0)"/>
<path style="fill:none;stroke-width:1.5;stroke-linecap:square;stroke-linejoin:round;stroke:rgb(0%,0%,0%);stroke-opacity:1;stroke-miterlimit:4;" d="M 209.25 174.08125 L 208.971875 184.565625 L 209.834375 194.49375 L 211.80625 203.825 L 214.9375 212.703125 L 219.171875 220.884375 L 224.465625 228.346875 L 230.784375 235.065625 L 238.265625 241.1625 " transform="matrix(1.25,0,0,1.25,0,0)"/>
<path style="fill:none;stroke-width:1.5;stroke-linecap:square;stroke-linejoin:round;stroke:rgb(0%,0%,0%);stroke-opacity:1;stroke-miterlimit:4;" d="M 118.853125 283.296875 L 118.9375 281.00625 L 120.46875 278.884375 L 123.425 276.94375 L 127.70625 275.35 L 132.4625 274.528125 L 135.728125 274.91875 L 136.678125 275.7125 L 136.865625 276.7375 L 136.246875 277.940625 L 135.0375 278.8625 " transform="matrix(1.25,0,0,1.25,0,0)"/>
<path style="fill:none;stroke-width:1.5;stroke-linecap:square;stroke-linejoin:round;stroke:rgb(0%,0%,0%);stroke-opacity:1;stroke-miterlimit:4;" d="M 326.9875 261.121875 L 331.371875 264.25625 L 334.890625 268.05625 L 337.55 272.503125 L 339.428125 277.7375 L 340.478125 283.534375 L 340.803125 290.20625 L 340.43125 297.853125 L 339.2625 308.246875 " transform="matrix(1.25,0,0,1.25,0,0)"/>
<path style="fill:none;stroke-width:1.5;stroke-linecap:square;stroke-linejoin:round;stroke:rgb(0%,0%,0%);stroke-opacity:1;stroke-miterlimit:4;" d="M 288.4875 174.6375 L 291.546875 172.625 L 294.775 171.115625 L 298.13125 170.10625 L 301.76875 169.5875 L 305.45 169.634375 L 308.9125 170.2 L 312.521875 171.35625 L 315.828125 172.971875 " transform="matrix(1.25,0,0,1.25,0,0)"/>
<path style="fill:none;stroke-width:1.5;stroke-linecap:square;stroke-linejoin:round;stroke:rgb(0%,0%,0%);stroke-opacity:1;stroke-miterlimit:4;" d="M 297.4125 227.859375 L 300.04375 228.184375 L 302.5 228.953125 L 304.715625 230.215625 L 306.53125 231.865625 L 308.075 233.996875 L 309.31875 236.603125 L 310.875 243.078125 L 311.328125 249.28125 L 311.28125 258.43125 L 309.35625 295.415625 L 309.05 315.21875 L 309.553125 324.44375 L 311.096875 331.403125 L 313.28125 334.8375 L 316.784375 337.246875 L 320.94375 338.115625 L 325.246875 337.315625 L 329.009375 334.94375 L 332.00625 331.4 L 333.675 327.2625 L 334.240625 322.10625 " transform="matrix(1.25,0,0,1.25,0,0)"/>
<path style="fill:none;stroke-width:1.5;stroke-linecap:square;stroke-linejoin:round;stroke:rgb(0%,0%,0%);stroke-opacity:1;stroke-miterlimit:4;" d="M 222.084375 184.615625 L 224.4375 194.6 L 227.353125 200.9 L 232.58125 208.54375 L 239.0875 215.15 L 246.475 220.390625 L 254.4125 224.1375 L 262.91875 226.396875 L 272.0375 227.203125 L 282.046875 226.421875 L 291.609375 224.04375 L 300.53125 220.128125 L 304.55625 217.665625 L 308.29375 214.853125 L 311.5625 211.83125 L 314.371875 208.646875 L 316.821875 205.1875 L 318.88125 201.453125 L 320.453125 197.63125 L 321.60625 193.56875 L 322.284375 189.475 L 322.525 185.16875 " transform="matrix(1.25,0,0,1.25,0,0)"/>
<path style="fill:none;stroke-width:1.5;stroke-linecap:square;stroke-linejoin:round;stroke:rgb(0%,0%,0%);stroke-opacity:1;stroke-miterlimit:4;" d="M 66.959375 400.278125 L 66.796875 402.0375 L 67.321875 403.6625 L 68.559375 405.121875 L 70.6125 406.503125 L 105.95625 423.946875 L 120.784375 432.31875 L 125.653125 434.29375 L 129.65625 435.0625 L 132.190625 434.5 L 137.29375 431.503125 L 141.10625 429.99375 L 162.978125 423.403125 L 175.871875 420.146875 L 205.115625 413.690625 L 217.603125 410.396875 L 226.28125 406.95 L 229.334375 405.071875 L 231.56875 403.05 " transform="matrix(1.25,0,0,1.25,0,0)"/>
<path style="fill:none;stroke-width:1.5;stroke-linecap:square;stroke-linejoin:round;stroke:rgb(0%,0%,0%);stroke-opacity:1;stroke-miterlimit:4;" d="M 141.73125 254.46875 L 155.653125 318.459375 L 158.371875 329.734375 L 163.909375 349.9625 L 164.634375 354.86875 L 164.803125 359.2875 L 164.40625 363.409375 L 163.49375 367.0125 " transform="matrix(1.25,0,0,1.25,0,0)"/>
<path style="fill:none;stroke-width:1.5;stroke-linecap:square;stroke-linejoin:round;stroke:rgb(0%,0%,0%);stroke-opacity:1;stroke-miterlimit:4;" d="M 92.628125 286.071875 L 94.328125 285.459375 L 95.903125 285.5375 L 97.44375 286.325 L 99.88125 288.2875 " transform="matrix(1.25,0,0,1.25,0,0)"/>
<path style="fill:none;stroke-width:1.5;stroke-linecap:square;stroke-linejoin:round;stroke:rgb(0%,0%,0%);stroke-opacity:1;stroke-miterlimit:4;" d="M 48.546875 313.790625 L 53.028125 334.28125 L 58.340625 363.040625 L 59.59375 372.171875 L 60.396875 374.48125 L 61.528125 376.16875 L 62.9875 377.18125 L 64.728125 377.546875 " transform="matrix(1.25,0,0,1.25,0,0)"/>
<path style="fill:none;stroke-width:1.5;stroke-linecap:square;stroke-linejoin:round;stroke:rgb(0%,0%,0%);stroke-opacity:1;stroke-miterlimit:4;" d="M 321.965625 167.428125 L 325.734375 165.69375 L 327.796875 165.45625 L 329.584375 165.68125 L 331.034375 166.278125 L 332.234375 167.26875 L 333.103125 168.68125 L 333.534375 170.328125 L 333.23125 174.3125 L 331.303125 178.528125 L 328.184375 182.0625 L 324.196875 184.615625 " transform="matrix(1.25,0,0,1.25,0,0)"/>
<path style="fill:none;stroke-width:1.5;stroke-linecap:square;stroke-linejoin:round;stroke:rgb(0%,0%,0%);stroke-opacity:1;stroke-miterlimit:4;" d="M 247.19375 240.05625 L 252.25625 254.49375 L 257.725 268.159375 L 263.18125 280.26875 L 272.6875 299.70625 L 276.390625 308.534375 L 278.29375 314.3625 L 279.625 319.9625 L 280.421875 325.571875 L 280.675 330.978125 " transform="matrix(1.25,0,0,1.25,0,0)"/>
<path style="fill:none;stroke-width:1.5;stroke-linecap:square;stroke-linejoin:round;stroke:rgb(0%,0%,0%);stroke-opacity:1;stroke-miterlimit:4;" d="M 272.8625 335.4125 L 269.784375 332.2125 L 265.68125 329.334375 L 261.1125 326.996875 L 248.309375 321.403125 L 244.65 319.334375 L 241.6 317.10625 L 238.484375 313.96875 L 236.1125 310.45625 L 234.1375 306.203125 L 232.859375 301.759375 L 232.2625 297.609375 L 232.178125 293.190625 L 232.60625 288.76875 L 233.5125 284.4 L 236.146875 276.996875 L 242.584375 264.475 L 243.678125 261.215625 L 244.290625 257.9375 L 244.31875 255.284375 L 243.853125 252.2875 L 240.125 239.840625 L 239.853125 236.9 L 240.159375 234.096875 L 241.309375 231.81875 L 243.56875 230.009375 L 246.8125 228.85 L 250.540625 228.4125 " transform="matrix(1.25,0,0,1.25,0,0)"/>
<path style="fill:none;stroke-width:1.5;stroke-linecap:square;stroke-linejoin:round;stroke:rgb(0%,0%,0%);stroke-opacity:1;stroke-miterlimit:4;" d="M 62.496875 401.940625 L 63.484375 399.7 L 65.678125 397.690625 L 69.153125 395.8375 L 73.98125 394.125 L 86.646875 390.95625 L 160.015625 369.6 L 167.509375 368.31875 L 173.5375 368.675 " transform="matrix(1.25,0,0,1.25,0,0)"/>
<path style="fill:none;stroke-width:1.5;stroke-linecap:square;stroke-linejoin:round;stroke:rgb(0%,0%,0%);stroke-opacity:1;stroke-miterlimit:4;" d="M 243.2875 267.221875 L 245.165625 272.853125 L 248.29375 279.203125 L 264.328125 306.121875 L 279.559375 332.640625 " transform="matrix(1.25,0,0,1.25,0,0)"/>
<path style="fill:none;stroke-width:1.5;stroke-linecap:square;stroke-linejoin:round;stroke:rgb(0%,0%,0%);stroke-opacity:1;stroke-miterlimit:4;" d="M 103.23125 283.296875 L 105.31875 282.678125 L 106.90625 282.753125 L 108.278125 283.55 L 109.36875 284.9625 " transform="matrix(1.25,0,0,1.25,0,0)"/>
<path style="fill:none;stroke-width:1.5;stroke-linecap:square;stroke-linejoin:round;stroke:rgb(0%,0%,0%);stroke-opacity:1;stroke-miterlimit:4;" d="M 127.78125 278.309375 L 129.915625 279.596875 L 132.803125 279.41875 " transform="matrix(1.25,0,0,1.25,0,0)"/>
<path style="fill:none;stroke-width:1.5;stroke-linecap:square;stroke-linejoin:round;stroke:rgb(0%,0%,0%);stroke-opacity:1;stroke-miterlimit:4;" d="M 288.4875 164.65625 L 295.89375 162.2 L 302.803125 160.725 L 309.128125 160.2625 L 314.7125 160.775 " transform="matrix(1.25,0,0,1.25,0,0)"/>
<path style="fill:none;stroke-width:1.5;stroke-linecap:square;stroke-linejoin:round;stroke:rgb(0%,0%,0%);stroke-opacity:1;stroke-miterlimit:4;" d="M 302.465625 170.93125 L 303.55625 171.040625 L 304.4 171.578125 L 305.05 172.5625 L 305.36875 173.9375 L 305.228125 175.35625 L 304.7 176.453125 L 303.91875 177.15 L 302.853125 177.465625 L 302.053125 177.296875 L 301.3375 176.64375 L 300.63125 174.28125 L 301.059375 172 L 301.69375 171.23125 L 302.465625 170.93125 " transform="matrix(1.25,0,0,1.25,0,0)"/>
<path style="fill:none;stroke-width:1.5;stroke-linecap:square;stroke-linejoin:round;stroke:rgb(0%,0%,0%);stroke-opacity:1;stroke-miterlimit:4;" d="M 297.971875 171.8625 L 300.203125 171.8625 " transform="matrix(1.25,0,0,1.25,0,0)"/>
<path style="fill:none;stroke-width:1.5;stroke-linecap:square;stroke-linejoin:round;stroke:rgb(0%,0%,0%);stroke-opacity:1;stroke-miterlimit:4;" d="M 33.48125 279.41875 L 34.3875 276.46875 L 36.671875 274.0625 L 40.515625 272.0125 L 45.91875 270.35625 L 119.0125 254.115625 L 130.453125 251.103125 L 133.984375 250.709375 L 137.05 250.959375 L 139.390625 251.846875 L 141.175 253.359375 " transform="matrix(1.25,0,0,1.25,0,0)"/>
<path style="fill:none;stroke-width:1.5;stroke-linecap:square;stroke-linejoin:round;stroke:rgb(0%,0%,0%);stroke-opacity:1;stroke-miterlimit:4;" d="M 66.403125 400.83125 L 69.725 398.45625 L 73.375 396.434375 L 82.278125 393 L 90.121875 390.965625 L 110.0875 387.065625 L 120.325 384.525 L 143.978125 377.371875 L 159.690625 371.50625 L 162.853125 370.73125 L 165.78125 370.478125 L 169.696875 370.9875 L 174.221875 372.521875 L 189.265625 380.159375 L 214.3125 391.003125 L 224.240625 396.303125 L 232.128125 401.940625 " transform="matrix(1.25,0,0,1.25,0,0)"/>
<path style="fill:none;stroke-width:1.5;stroke-linecap:square;stroke-linejoin:round;stroke:rgb(0%,0%,0%);stroke-opacity:1;stroke-miterlimit:4;" d="M 65.2875 377.546875 L 88.240625 372.93125 L 109.875 367.915625 L 130.478125 362.434375 L 150.103125 356.478125 " transform="matrix(1.25,0,0,1.25,0,0)"/>
<path style="fill:none;stroke-width:1.5;stroke-linecap:square;stroke-linejoin:round;stroke:rgb(0%,0%,0%);stroke-opacity:1;stroke-miterlimit:4;" d="M 220.96875 327.65 L 220.728125 305.85625 L 219.290625 282.7 L 220.2375 273.446875 L 221.775 266.596875 L 223.90625 262.165625 L 226.925 259.01875 L 230.7 257.296875 L 234.58125 257.30625 L 236.490625 257.96875 L 238.2875 259.125 L 239.65625 260.56875 L 240.65 262.31875 L 241.196875 264.328125 L 241.2375 266.3875 L 239.940625 270.546875 " transform="matrix(1.25,0,0,1.25,0,0)"/>
<path style="fill:none;stroke-width:1.5;stroke-linecap:square;stroke-linejoin:round;stroke:rgb(0%,0%,0%);stroke-opacity:1;stroke-miterlimit:4;" d="M 272.8625 190.7125 L 271.746875 194.59375 " transform="matrix(1.25,0,0,1.25,0,0)"/>
<path style="fill:none;stroke-width:1.5;stroke-linecap:square;stroke-linejoin:round;stroke:rgb(0%,0%,0%);stroke-opacity:1;stroke-miterlimit:4;" d="M 242.171875 261.678125 L 241.628125 256.784375 L 238.396875 241.703125 L 238.11875 237.5125 L 238.5125 233.990625 L 239.896875 230.58125 L 242.378125 227.9125 L 245.646875 226.20625 L 250.540625 225.0875 " transform="matrix(1.25,0,0,1.25,0,0)"/>
<path style="fill:none;stroke-width:1.5;stroke-linecap:square;stroke-linejoin:round;stroke:rgb(0%,0%,0%);stroke-opacity:1;stroke-miterlimit:4;" d="M 325.871875 261.9875 L 328.590625 262.1 L 331.103125 263.115625 L 333.325 264.996875 L 335.175 267.6125 L 336.56875 270.728125 L 337.925 275.56875 L 339.909375 287.128125 L 340.315625 293.16875 L 340.265625 299.159375 L 339.73125 304.978125 L 338.853125 309.48125 L 337.609375 313.0875 L 335.9375 315.95625 L 333.965625 317.778125 L 331.65 318.575 L 329.571875 318.3625 L 327.73125 317.240625 L 326.190625 315.275 L 324.90625 312.453125 L 322.434375 301.315625 L 320.403125 287.1375 L 319.734375 275.73125 L 320.203125 267.846875 L 320.965625 265.5 L 322.178125 263.709375 L 323.83125 262.540625 L 325.871875 261.9875 " transform="matrix(1.25,0,0,1.25,0,0)"/>
<path style="fill:none;stroke-width:1.5;stroke-linecap:square;stroke-linejoin:round;stroke:rgb(0%,0%,0%);stroke-opacity:1;stroke-miterlimit:4;" d="M 307.459375 172.41875 L 307.040625 175.61875 L 305.890625 178.371875 L 304.125 180.265625 L 301.925 181.084375 L 299.784375 180.703125 L 297.85 179.146875 L 296.503125 176.725 L 295.740625 173.528125 " transform="matrix(1.25,0,0,1.25,0,0)"/>
<path style="fill:none;stroke-width:1.5;stroke-linecap:square;stroke-linejoin:round;stroke:rgb(0%,0%,0%);stroke-opacity:1;stroke-miterlimit:4;" d="M 93.1875 287.734375 L 89.28125 289.95 L 89.059375 287.609375 L 89.821875 286.328125 L 91.290625 286.30625 L 93.1875 287.734375 " transform="matrix(1.25,0,0,1.25,0,0)"/>
<path style="fill:none;stroke-width:1.5;stroke-linecap:square;stroke-linejoin:round;stroke:rgb(0%,0%,0%);stroke-opacity:1;stroke-miterlimit:4;" d="M 287.928125 389.74375 L 292.115625 386.046875 L 296.76875 382.7875 L 302.071875 379.859375 L 307.8375 377.359375 L 314.875 374.96875 L 323.20625 372.734375 L 336.4125 370.815625 L 341.6125 369.146875 L 343.14375 368.009375 L 343.9875 366.628125 L 345.090625 360.29375 L 345.959375 358.14375 L 350.6 366.125 L 377.765625 365.903125 " transform="matrix(1.25,0,0,1.25,0,0)"/>
<path style="fill:none;stroke-width:1.5;stroke-linecap:square;stroke-linejoin:round;stroke:rgb(0%,0%,0%);stroke-opacity:1;stroke-miterlimit:4;" d="M 374.975 352.04375 L 376.65 362.578125 " transform="matrix(1.25,0,0,1.25,0,0)"/>
<path style="fill:none;stroke-width:1.5;stroke-linecap:square;stroke-linejoin:round;stroke:rgb(0%,0%,0%);stroke-opacity:1;stroke-miterlimit:4;" d="M 133.91875 337.628125 L 143.40625 335.965625 " transform="matrix(1.25,0,0,1.25,0,0)"/>
<path style="fill:none;stroke-width:1.5;stroke-linecap:square;stroke-linejoin:round;stroke:rgb(0%,0%,0%);stroke-opacity:1;stroke-miterlimit:4;" d="M 231.0125 161.33125 L 233.1625 159.46875 L 235.696875 158.290625 L 238.71875 157.7 L 242.35625 157.746875 L 246.296875 158.471875 L 250.525 159.9 L 254.53125 161.871875 L 257.796875 164.103125 " transform="matrix(1.25,0,0,1.25,0,0)"/>
<path style="fill:none;stroke-width:1.5;stroke-linecap:square;stroke-linejoin:round;stroke:rgb(0%,0%,0%);stroke-opacity:1;stroke-miterlimit:4;" d="M 257.796875 121.96875 L 254.8125 126.29375 L 250.890625 130.359375 L 246.3 134.128125 L 233.1125 143.83125 L 229.484375 147.1 L 226.5375 150.4125 L 223.971875 154.309375 L 222.421875 157.978125 L 221.6875 162.26875 L 221.525 168.5375 " transform="matrix(1.25,0,0,1.25,0,0)"/>
<path style="fill:none;stroke-width:1.5;stroke-linecap:square;stroke-linejoin:round;stroke:rgb(0%,0%,0%);stroke-opacity:1;stroke-miterlimit:4;" d="M 309.690625 268.884375 L 308.284375 273.684375 L 306.209375 279.01875 L 299.1875 293.99375 L 290.0375 314.815625 L 285.003125 324.984375 L 280.115625 333.19375 " transform="matrix(1.25,0,0,1.25,0,0)"/>
<path style="fill:none;stroke-width:1.5;stroke-linecap:square;stroke-linejoin:round;stroke:rgb(0%,0%,0%);stroke-opacity:1;stroke-miterlimit:4;" d="M 60.821875 339.29375 L 75.33125 335.965625 " transform="matrix(1.25,0,0,1.25,0,0)"/>
<path style="fill:none;stroke-width:1.5;stroke-linecap:square;stroke-linejoin:round;stroke:rgb(0%,0%,0%);stroke-opacity:1;stroke-miterlimit:4;" d="M 258.353125 122.521875 L 266.165625 136.259375 L 270.45 142.571875 L 275.40625 147.784375 L 280.846875 151.253125 L 284.46875 152.61875 L 288.7875 153.709375 L 293.128125 154.346875 L 297.465625 154.540625 L 303.925 153.7375 L 311.675 150.69375 L 314.76875 149.840625 L 317.746875 149.79375 L 320.165625 150.753125 L 322.246875 152.903125 L 323.184375 155.6875 L 323.140625 159.078125 L 321.965625 166.31875 " transform="matrix(1.25,0,0,1.25,0,0)"/>
<path style="fill:none;stroke-width:1.5;stroke-linecap:square;stroke-linejoin:round;stroke:rgb(0%,0%,0%);stroke-opacity:1;stroke-miterlimit:4;" d="M 99.325 327.65 L 98.765625 328.20625 " transform="matrix(1.25,0,0,1.25,0,0)"/>
<path style="fill:none;stroke-width:1.5;stroke-linecap:square;stroke-linejoin:round;stroke:rgb(0%,0%,0%);stroke-opacity:1;stroke-miterlimit:4;" d="M 297.4125 223.978125 L 298.546875 231.25625 L 300.715625 237.1125 L 303.84375 241.309375 L 305.7625 242.803125 L 308.015625 243.9375 " transform="matrix(1.25,0,0,1.25,0,0)"/>
<path style="fill:none;stroke-width:1.5;stroke-linecap:square;stroke-linejoin:round;stroke:rgb(0%,0%,0%);stroke-opacity:1;stroke-miterlimit:4;" d="M 126.665625 337.075 L 131.6875 338.184375 " transform="matrix(1.25,0,0,1.25,0,0)"/>
<path style="fill:none;stroke-width:1.5;stroke-linecap:square;stroke-linejoin:round;stroke:rgb(0%,0%,0%);stroke-opacity:1;stroke-miterlimit:4;" d="M 117.7375 400.278125 L 126.465625 404.525 L 146.865625 412.9625 L 149.58125 413.825 L 151.815625 414.040625 L 156.365625 413.740625 L 161.56875 412.8125 L 181.325 407.28125 L 194.390625 404.553125 L 199.3625 402.896875 L 203.1125 400.83125 " transform="matrix(1.25,0,0,1.25,0,0)"/>
<path style="fill:none;stroke-width:1.5;stroke-linecap:square;stroke-linejoin:round;stroke:rgb(0%,0%,0%);stroke-opacity:1;stroke-miterlimit:4;" d="M 300.203125 230.075 L 302.953125 231.540625 L 305.175 233.8625 L 306.93125 237.11875 L 308.190625 241.33125 L 309.140625 249.971875 L 309.1625 269.353125 L 310.246875 277.2 " transform="matrix(1.25,0,0,1.25,0,0)"/>
<path style="fill:none;stroke-width:1.5;stroke-linecap:square;stroke-linejoin:round;stroke:rgb(0%,0%,0%);stroke-opacity:1;stroke-miterlimit:4;" d="M 323.640625 298.26875 L 329.21875 296.603125 " transform="matrix(1.25,0,0,1.25,0,0)"/>
<path style="fill:none;stroke-width:1.5;stroke-linecap:square;stroke-linejoin:round;stroke:rgb(0%,0%,0%);stroke-opacity:1;stroke-miterlimit:4;" d="M 252.215625 224.53125 L 250.625 230.7375 L 248.5375 236.434375 L 245.946875 241.68125 L 242.73125 246.709375 " transform="matrix(1.25,0,0,1.25,0,0)"/>
<path style="fill:none;stroke-width:1.5;stroke-linecap:square;stroke-linejoin:round;stroke:rgb(0%,0%,0%);stroke-opacity:1;stroke-miterlimit:4;" d="M 243.2875 169.090625 L 243.115625 171.521875 L 243.509375 173.76875 L 244.41875 175.6 L 245.71875 176.721875 L 247.0375 176.821875 L 248.175 175.94375 L 248.946875 174.340625 L 249.425 171.8625 " transform="matrix(1.25,0,0,1.25,0,0)"/>
<path style="fill:none;stroke-width:1.5;stroke-linecap:square;stroke-linejoin:round;stroke:rgb(0%,0%,0%);stroke-opacity:1;stroke-miterlimit:4;" d="M 65.84375 296.05 L 71.98125 293.278125 L 71.025 291.940625 L 70.609375 290.65 L 70.79375 289.55 L 71.46875 288.871875 L 72.421875 288.6875 L 73.459375 289.075 L 74.771875 291.059375 L 79.2375 289.396875 " transform="matrix(1.25,0,0,1.25,0,0)"/>
<path style="fill:none;stroke-width:1.5;stroke-linecap:square;stroke-linejoin:round;stroke:rgb(0%,0%,0%);stroke-opacity:1;stroke-miterlimit:4;" d="M 68.634375 291.059375 L 68.075 293.83125 " transform="matrix(1.25,0,0,1.25,0,0)"/>
<path style="fill:none;stroke-width:1.5;stroke-linecap:square;stroke-linejoin:round;stroke:rgb(0%,0%,0%);stroke-opacity:1;stroke-miterlimit:4;" d="M 74.771875 291.059375 L 72.540625 293.278125 " transform="matrix(1.25,0,0,1.25,0,0)"/>
<path style="fill:none;stroke-width:1.5;stroke-linecap:square;stroke-linejoin:round;stroke:rgb(0%,0%,0%);stroke-opacity:1;stroke-miterlimit:4;" d="M 378.325 366.459375 L 380.465625 371.11875 L 381.940625 376.328125 L 382.871875 382.40625 L 383.29375 389.628125 L 383.409375 398.85 L 383.084375 401.790625 L 381.8125 404.525 L 379.3 406.4125 L 376.38125 407.471875 L 372.559375 408.228125 L 348.79375 410.815625 L 334.865625 411.734375 L 321.059375 411.884375 L 314.2875 411.3875 L 308.9375 410.13125 L 304.26875 407.915625 L 300.203125 404.7125 " transform="matrix(1.25,0,0,1.25,0,0)"/>
<path style="fill:none;stroke-width:1.5;stroke-linecap:square;stroke-linejoin:round;stroke:rgb(0%,0%,0%);stroke-opacity:1;stroke-miterlimit:4;" d="M 209.809375 172.971875 L 209.11875 160.65 L 210.096875 148.253125 L 212.675 136.1875 L 216.784375 124.81875 L 222.240625 114.659375 L 225.4 110.14375 L 228.9 105.925 L 232.725 102.0625 L 236.55 98.86875 L 240.76875 95.98125 L 245.203125 93.5375 L 250.178125 91.390625 L 255.509375 89.6875 L 260.978125 88.5125 L 266.5375 87.85 L 272.146875 87.69375 L 277.953125 88.059375 L 283.7125 88.94375 L 289.375 90.346875 L 294.89375 92.253125 L 300.04375 94.565625 L 304.965625 97.33125 L 309.615625 100.54375 L 313.946875 104.19375 L 317.7875 108.125 L 321.253125 112.446875 L 324.196875 116.978125 " transform="matrix(1.25,0,0,1.25,0,0)"/>
<path style="fill:none;stroke-width:1.5;stroke-linecap:square;stroke-linejoin:round;stroke:rgb(0%,0%,0%);stroke-opacity:1;stroke-miterlimit:4;" d="M 239.940625 170.75625 L 239.6875 174.028125 L 240.46875 176.88125 L 242.25 179.009375 L 244.7 180.01875 L 247.278125 179.7 L 249.33125 178.175 L 250.625 175.725 L 251.1 172.41875 " transform="matrix(1.25,0,0,1.25,0,0)"/>
<path style="fill:none;stroke-width:1.5;stroke-linecap:square;stroke-linejoin:round;stroke:rgb(0%,0%,0%);stroke-opacity:1;stroke-miterlimit:4;" d="M 111.040625 279.971875 L 114.390625 283.853125 " transform="matrix(1.25,0,0,1.25,0,0)"/>
<path style="fill:none;stroke-width:1.5;stroke-linecap:square;stroke-linejoin:round;stroke:rgb(0%,0%,0%);stroke-opacity:1;stroke-miterlimit:4;" d="M 222.640625 328.20625 L 222.790625 301.00625 L 221.76875 281.190625 L 222.359375 273.625 L 224.121875 267.96875 L 227.63125 262.378125 L 229.58125 260.421875 L 231.43125 259.178125 L 233.24375 258.528125 L 235.128125 258.46875 L 237.0625 259.109375 L 238.984375 260.528125 L 239.95 262.015625 L 240.225 263.840625 L 239.128125 267.60625 L 235.20625 274.16875 L 233.665625 277.60625 L 232.20625 282.303125 L 231.259375 287.303125 L 230.790625 293.571875 L 231.096875 299.978125 L 232.15 305.78125 L 233.834375 310.540625 L 235.396875 313.315625 L 237.38125 315.871875 L 242.465625 320.184375 L 248.24375 323.371875 L 263.665625 330.2 L 267.76875 332.6625 L 271.1875 335.4125 " transform="matrix(1.25,0,0,1.25,0,0)"/>
<path style="fill:none;stroke-width:1.5;stroke-linecap:square;stroke-linejoin:round;stroke:rgb(0%,0%,0%);stroke-opacity:1;stroke-miterlimit:4;" d="M 299.646875 405.265625 L 299.2125 407.93125 L 298.128125 410.059375 L 296.371875 411.853125 L 293.8125 413.409375 L 277.29375 418.834375 L 264.771875 422.046875 L 252.71875 423.853125 L 240.79375 424.0375 L 237.696875 423.63125 L 234.875 422.76875 L 232.203125 421.321875 L 230.425 419.765625 L 229.66875 418.296875 L 229.75625 416.784375 L 230.98125 414.778125 L 232.915625 413.06875 L 236.103125 411.321875 L 243.99375 408.303125 L 247.09375 406.771875 L 266.46875 394.9125 L 271.8 392.546875 L 276.928125 391.040625 L 282.046875 390.290625 L 287.36875 390.296875 " transform="matrix(1.25,0,0,1.25,0,0)"/>
<path style="fill:none;stroke-width:1.5;stroke-linecap:square;stroke-linejoin:round;stroke:rgb(0%,0%,0%);stroke-opacity:1;stroke-miterlimit:4;" d="M 183.58125 350.934375 L 184.303125 331.534375 L 187.546875 290.403125 L 188.521875 283.93125 L 189.8125 278.24375 L 191.465625 273.1375 L 193.4625 268.60625 L 196.35 263.7625 L 199.8625 259.384375 L 203.965625 255.51875 L 208.45 252.384375 L 212.85 250.075 L 217.85625 248.03125 L 239.38125 241.1625 " transform="matrix(1.25,0,0,1.25,0,0)"/>
<path style="fill:none;stroke-width:1.5;stroke-linecap:square;stroke-linejoin:round;stroke:rgb(0%,0%,0%);stroke-opacity:1;stroke-miterlimit:4;" d="M 53.56875 291.378125 L 55.71875 291.253125 L 57.3375 291.946875 L 58.25625 293.359375 L 58.31875 295.2625 L 57.528125 297.040625 L 56.071875 298.396875 L 54.125 299.15 L 51.971875 299.190625 L 50.803125 298.71875 L 49.9375 297.815625 L 49.528125 296.640625 L 49.584375 295.19375 L 51.028125 292.696875 L 53.56875 291.378125 " transform="matrix(1.25,0,0,1.25,0,0)"/>
<path style="fill:none;stroke-width:1.5;stroke-linecap:square;stroke-linejoin:round;stroke:rgb(0%,0%,0%);stroke-opacity:1;stroke-miterlimit:4;" d="M 48.546875 312.68125 L 49.1 310.76875 L 50.628125 309.134375 L 53.084375 307.796875 L 56.534375 306.696875 L 67.509375 304.703125 L 110.740625 295.128125 L 119.896875 292.94375 L 131.609375 289.58125 L 136.421875 289.025 L 139.89375 289.653125 L 141.30625 290.5125 L 142.3875 291.69375 L 143.921875 295.446875 L 145.209375 302.165625 L 147.353125 318.290625 L 152.20625 339.278125 L 152.81875 344.684375 L 152.934375 351.890625 L 152.278125 354.26875 L 150.659375 355.925 " transform="matrix(1.25,0,0,1.25,0,0)"/>
<path style="fill:none;stroke-width:1.5;stroke-linecap:square;stroke-linejoin:round;stroke:rgb(0%,0%,0%);stroke-opacity:1;stroke-miterlimit:4;" d="M 332.009375 322.10625 L 331.615625 324.56875 L 330.6375 327.346875 L 327.4375 332.51875 L 325.565625 334.45625 L 323.534375 335.93125 L 321.546875 336.7625 L 319.665625 336.95625 L 318.075 336.603125 L 316.534375 335.703125 L 313.940625 332.4625 L 311.721875 327.0625 L 310.484375 320.521875 L 310.2875 310.48125 L 311.890625 289.128125 L 311.36875 275.253125 L 311.95 269.478125 L 313.63125 265.575 L 316.75 262.190625 L 320.946875 259.790625 L 325.3125 258.90625 " transform="matrix(1.25,0,0,1.25,0,0)"/>
<path style="fill:none;stroke-width:1.5;stroke-linecap:square;stroke-linejoin:round;stroke:rgb(0%,0%,0%);stroke-opacity:1;stroke-miterlimit:4;" d="M 55.240625 319.8875 L 101.55625 309.909375 " transform="matrix(1.25,0,0,1.25,0,0)"/>
<path style="fill:none;stroke-width:1.5;stroke-linecap:square;stroke-linejoin:round;stroke:rgb(0%,0%,0%);stroke-opacity:1;stroke-miterlimit:4;" d="M 382.7875 405.265625 L 378.571875 421.815625 L 375.3625 429.921875 L 373.259375 433.165625 L 370.853125 435.575 L 368.7875 436.69375 L 365.721875 437.275 L 353.771875 436.86875 L 326.85 437.33125 L 312.046875 436.890625 L 303.4125 437.290625 L 298.5625 436.6125 L 296.38125 435.13125 L 295.778125 432.9 L 297.86875 419.49375 L 298.53125 412.475 " transform="matrix(1.25,0,0,1.25,0,0)"/>
<path style="fill:none;stroke-width:1.5;stroke-linecap:square;stroke-linejoin:round;stroke:rgb(0%,0%,0%);stroke-opacity:1;stroke-miterlimit:4;" d="M 100.440625 283.853125 L 105.4625 286.625 " transform="matrix(1.25,0,0,1.25,0,0)"/>
<path style="fill:none;stroke-width:1.5;stroke-linecap:square;stroke-linejoin:round;stroke:rgb(0%,0%,0%);stroke-opacity:1;stroke-miterlimit:4;" d="M 230.453125 172.971875 L 232.234375 170.65625 L 234.59375 169.134375 L 237.575 168.29375 L 241.28125 168.159375 L 245.565625 168.828125 L 249.925 170.228125 L 254.109375 172.3 L 257.2375 174.6375 " transform="matrix(1.25,0,0,1.25,0,0)"/>
</g>
</svg>
