<?xml version="1.0" encoding="UTF-8"?>
<svg xmlns="http://www.w3.org/2000/svg" xmlns:xlink="http://www.w3.org/1999/xlink" width="519pt" height="729pt" viewBox="0 0 519 729" version="1.1">
<g id="surface1">
<path style="fill:none;stroke-width:1.5;stroke-linecap:square;stroke-linejoin:round;stroke:rgb(0%,0%,0%);stroke-opacity:1;stroke-miterlimit:4;" d="M 99.88125 166.31875 L 91.71875 177.0125 L 69.21875 204.49375 L 63.103125 212.853125 L 57.6875 221.19375 L 53.5125 225.13125 L 51.509375 228.59375 L 49.71875 232.80625 L 48.290625 237.409375 L 47.43125 241.71875 " transform="matrix(1.25,0,0,1.25,0,0)"/>
<path style="fill:none;stroke-width:1.5;stroke-linecap:square;stroke-linejoin:round;stroke:rgb(0%,0%,0%);stroke-opacity:1;stroke-miterlimit:4;" d="M 53.56875 202.35625 L 53.36875 210.640625 L 53.765625 214.80625 L 55.046875 218.515625 L 57.475 221.759375 " transform="matrix(1.25,0,0,1.25,0,0)"/>
<path style="fill:none;stroke-width:1.5;stroke-linecap:square;stroke-linejoin:round;stroke:rgb(0%,0%,0%);stroke-opacity:1;stroke-miterlimit:4;" d="M 53.009375 218.9875 L 53.009375 223.421875 " transform="matrix(1.25,0,0,1.25,0,0)"/>
<path style="fill:none;stroke-width:1.5;stroke-linecap:square;stroke-linejoin:round;stroke:rgb(0%,0%,0%);stroke-opacity:1;stroke-miterlimit:4;" d="M 231.0125 313.790625 L 232.15 316.334375 L 234.06875 318.809375 L 239.540625 323.925 L 249.603125 334.48125 L 257.990625 342.346875 L 261.246875 345.878125 L 263.134375 348.55625 L 264.421875 351.10625 L 265.23125 353.678125 L 265.609375 356.478125 " transform="matrix(1.25,0,0,1.25,0,0)"/>
<path style="fill:none;stroke-width:1.5;stroke-linecap:square;stroke-linejoin:round;stroke:rgb(0%,0%,0%);stroke-opacity:1;stroke-miterlimit:4;" d="M 234.359375 465.140625 L 241.08125 472.78125 L 242.990625 476.5375 L 243.0125 479.146875 L 241.94375 480.9375 L 239.721875 481.584375 L 238.640625 481.371875 L 237.9125 480.821875 L 237.359375 479.284375 L 237.571875 476.93125 L 238.575 474.015625 L 239.940625 471.79375 " transform="matrix(1.25,0,0,1.25,0,0)"/>
<path style="fill:none;stroke-width:1.5;stroke-linecap:square;stroke-linejoin:round;stroke:rgb(0%,0%,0%);stroke-opacity:1;stroke-miterlimit:4;" d="M 236.034375 470.13125 L 236.034375 474.0125 " transform="matrix(1.25,0,0,1.25,0,0)"/>
<path style="fill:none;stroke-width:1.5;stroke-linecap:square;stroke-linejoin:round;stroke:rgb(0%,0%,0%);stroke-opacity:1;stroke-miterlimit:4;" d="M 229.3375 313.2375 L 225.23125 323.14375 L 210.990625 350.840625 L 209.940625 353.525 L 209.496875 355.909375 L 209.975 358.16875 L 211.753125 359.903125 L 224.33125 365.084375 L 226.740625 366.515625 L 228.640625 368.21875 L 230 370.203125 L 230.828125 372.425 L 231.890625 377.121875 L 232.575 382.328125 L 232.771875 394.2125 L 231.23125 416.096875 L 230.134375 425.61875 L 228.4875 432.971875 L 226.784375 437.584375 L 224.740625 441.25 L 221.8125 444.921875 L 212.125 455.26875 L 209.74375 459.05 L 208.75 462.109375 L 208.734375 464.365625 L 209.265625 466.871875 L 211.83125 471.89375 L 215.859375 476.11875 L 218.125 477.575 L 220.409375 478.446875 " transform="matrix(1.25,0,0,1.25,0,0)"/>
<path style="fill:none;stroke-width:1.5;stroke-linecap:square;stroke-linejoin:round;stroke:rgb(0%,0%,0%);stroke-opacity:1;stroke-miterlimit:4;" d="M 277.884375 195.703125 L 278.653125 192.209375 L 279.8375 189.128125 L 281.5 186.290625 L 283.54375 183.865625 L 286.071875 181.721875 L 288.928125 179.96875 L 292.409375 178.453125 L 296.16875 177.33125 L 305.24375 176.034375 L 316.20625 176.09375 L 331.640625 177.8375 L 342.053125 180.18125 " transform="matrix(1.25,0,0,1.25,0,0)"/>
<path style="fill:none;stroke-width:1.5;stroke-linecap:square;stroke-linejoin:round;stroke:rgb(0%,0%,0%);stroke-opacity:1;stroke-miterlimit:4;" d="M 310.246875 148.025 L 301.696875 139.228125 L 299.78125 136.66875 L 298.565625 134.309375 L 297.9375 131.5375 L 298.29375 129.25625 L 299.65 127.459375 L 301.878125 126.403125 " transform="matrix(1.25,0,0,1.25,0,0)"/>
<path style="fill:none;stroke-width:1.5;stroke-linecap:square;stroke-linejoin:round;stroke:rgb(0%,0%,0%);stroke-opacity:1;stroke-miterlimit:4;" d="M 247.753125 342.065625 L 236.590625 361.46875 " transform="matrix(1.25,0,0,1.25,0,0)"/>
<path style="fill:none;stroke-width:1.5;stroke-linecap:square;stroke-linejoin:round;stroke:rgb(0%,0%,0%);stroke-opacity:1;stroke-miterlimit:4;" d="M 244.403125 240.609375 L 241.6125 257.796875 " transform="matrix(1.25,0,0,1.25,0,0)"/>
<path style="fill:none;stroke-width:1.5;stroke-linecap:square;stroke-linejoin:round;stroke:rgb(0%,0%,0%);stroke-opacity:1;stroke-miterlimit:4;" d="M 255.00625 407.484375 L 252.990625 437.975 L 243.846875 464.03125 " transform="matrix(1.25,0,0,1.25,0,0)"/>
<path style="fill:none;stroke-width:1.5;stroke-linecap:square;stroke-linejoin:round;stroke:rgb(0%,0%,0%);stroke-opacity:1;stroke-miterlimit:4;" d="M 244.9625 339.29375 L 233.24375 359.25 " transform="matrix(1.25,0,0,1.25,0,0)"/>
<path style="fill:none;stroke-width:1.5;stroke-linecap:square;stroke-linejoin:round;stroke:rgb(0%,0%,0%);stroke-opacity:1;stroke-miterlimit:4;" d="M 222.640625 292.16875 L 219.88125 289.16875 L 218.159375 286.6125 L 217.21875 283.99375 L 217.18125 281.578125 L 217.996875 279.06875 L 219.534375 276.565625 L 229.45 266.69375 L 231.36875 264.046875 L 232.546875 261.465625 L 233.153125 258.75625 L 233.140625 255.809375 L 231.0625 247.034375 L 230.6125 243.725 L 230.803125 241.478125 L 231.503125 239.390625 L 232.9875 236.975 L 235.284375 234.55625 L 238.315625 232.309375 L 241.8 230.425 L 244.8125 229.325 L 247.3875 228.9125 L 249.721875 229.121875 L 251.8375 230.040625 L 254.165625 232.625 L 255.515625 236.65 L 256.89375 249.621875 L 256.653125 255.615625 L 255.978125 258 L 254.846875 259.971875 L 248.4125 265.10625 L 246.515625 267.328125 L 244.94375 269.875 L 243.553125 273.075 L 242.621875 276.453125 L 242.16875 279.8875 L 242.209375 283.24375 L 243.125 287.5125 L 245.021875 291.390625 L 247.44375 294.65 L 253.971875 302.021875 L 256.28125 305.459375 L 258.08125 309.578125 L 260.028125 316.009375 " transform="matrix(1.25,0,0,1.25,0,0)"/>
<path style="fill:none;stroke-width:1.5;stroke-linecap:square;stroke-linejoin:round;stroke:rgb(0%,0%,0%);stroke-opacity:1;stroke-miterlimit:4;" d="M 230.453125 287.734375 L 227.46875 301.4375 L 223.63125 312.25 L 211.73125 338.471875 L 204.85625 350.296875 L 203.759375 353.10625 L 203.334375 355.346875 L 203.49375 357.18125 L 204.29375 358.9625 L 207.85625 362.690625 L 213.815625 366.603125 L 224.315625 372.003125 " transform="matrix(1.25,0,0,1.25,0,0)"/>
<path style="fill:none;stroke-width:1.5;stroke-linecap:square;stroke-linejoin:round;stroke:rgb(0%,0%,0%);stroke-opacity:1;stroke-miterlimit:4;" d="M 244.9625 252.80625 L 242.540625 249.896875 L 241.328125 247.23125 L 241 243.94375 L 241.665625 240.5625 L 242.875 238.4625 L 244.19375 237.45625 L 245.615625 237.46875 L 246.953125 238.51875 L 247.609375 240.0625 L 247.821875 242.234375 L 246.88125 247.9625 L 245.021875 252.821875 L 236.634375 266.390625 L 230.503125 279.315625 L 226.83125 289.84375 L 224.409375 303.821875 L 222.084375 309.35625 " transform="matrix(1.25,0,0,1.25,0,0)"/>
<path style="fill:none;stroke-width:1.5;stroke-linecap:square;stroke-linejoin:round;stroke:rgb(0%,0%,0%);stroke-opacity:1;stroke-miterlimit:4;" d="M 240.496875 249.48125 L 241.6125 256.13125 " transform="matrix(1.25,0,0,1.25,0,0)"/>
<path style="fill:none;stroke-width:1.5;stroke-linecap:square;stroke-linejoin:round;stroke:rgb(0%,0%,0%);stroke-opacity:1;stroke-miterlimit:4;" d="M 229.3375 285.515625 L 237.66875 302.703125 L 260.028125 328.20625 " transform="matrix(1.25,0,0,1.25,0,0)"/>
<path style="fill:none;stroke-width:1.5;stroke-linecap:square;stroke-linejoin:round;stroke:rgb(0%,0%,0%);stroke-opacity:1;stroke-miterlimit:4;" d="M 49.103125 206.2375 L 51.71875 201.53125 L 54.746875 197.121875 L 58.29375 192.834375 L 62.35 188.6875 L 72.103125 180.728125 L 84.175 173.14375 L 100.95 164.715625 L 124.696875 154.490625 L 147.15 146.034375 L 169.6375 138.734375 L 191.8 132.7 L 213.721875 127.89375 L 235.5125 124.321875 L 256.228125 122.13125 L 271.853125 121.6875 L 285.453125 122.696875 L 291.734375 123.7875 L 297.403125 125.21875 L 302.65 127.01875 L 307.459375 129.175 " transform="matrix(1.25,0,0,1.25,0,0)"/>
<path style="fill:none;stroke-width:1.5;stroke-linecap:square;stroke-linejoin:round;stroke:rgb(0%,0%,0%);stroke-opacity:1;stroke-miterlimit:4;" d="M 258.353125 368.121875 L 256.425 372.7 L 255.00625 378.38125 L 248.665625 421.659375 L 246.48125 433.70625 L 242.45 450.428125 L 241.490625 458.865625 L 242.065625 464.925 L 242.8125 467.140625 L 243.959375 469.15625 L 245.384375 470.68125 L 246.996875 471.70625 L 253.5 473.3625 L 255.66875 474.43125 L 257.015625 476.584375 L 256.875 479.89375 L 255.78125 482.115625 L 253.99375 484.078125 L 251.48125 485.859375 L 248.325 487.365625 L 244.865625 488.440625 L 241.10625 489.06875 L 237.490625 489.13125 L 234.434375 488.634375 L 231.265625 487.0625 L 229.25 484.01875 L 228.040625 479.028125 L 227.6625 471.79375 " transform="matrix(1.25,0,0,1.25,0,0)"/>
<path style="fill:none;stroke-width:1.5;stroke-linecap:square;stroke-linejoin:round;stroke:rgb(0%,0%,0%);stroke-opacity:1;stroke-miterlimit:4;" d="M 229.896875 317.115625 L 222.175 338.084375 L 219.878125 342.696875 L 214.378125 351.2875 L 213.26875 353.840625 L 212.809375 356.10625 L 213.19375 357.9875 L 214.8625 359.525 L 226.534375 363.840625 L 229.2 365.265625 L 231.090625 366.8 L 232.35 368.521875 L 233.196875 370.81875 L 234.328125 377.871875 L 234.171875 415.1875 L 233.1875 425.959375 L 231.40625 435.00625 L 229.05625 442.028125 L 226.071875 447.78125 L 223.1125 451.1625 L 214.3625 458.90625 L 212.440625 461.409375 L 211.73125 463.525 L 212.071875 466.5125 L 213.71875 469.509375 L 216.634375 472.54375 L 220.409375 475.121875 " transform="matrix(1.25,0,0,1.25,0,0)"/>
<path style="fill:none;stroke-width:1.5;stroke-linecap:square;stroke-linejoin:round;stroke:rgb(0%,0%,0%);stroke-opacity:1;stroke-miterlimit:4;" d="M 242.171875 337.075 L 241.084375 341.459375 L 238.9875 345.978125 L 235.96875 350.559375 L 231.56875 355.925 " transform="matrix(1.25,0,0,1.25,0,0)"/>
<path style="fill:none;stroke-width:1.5;stroke-linecap:square;stroke-linejoin:round;stroke:rgb(0%,0%,0%);stroke-opacity:1;stroke-miterlimit:4;" d="M 49.6625 237.8375 L 52.7625 234.465625 L 56.61875 231.859375 L 61.321875 229.83125 L 67.778125 228.009375 L 75.390625 226.58125 L 83.3375 225.8125 L 91.184375 225.73125 L 98.746875 226.321875 L 105.4375 227.465625 L 111.6 229.153125 L 118.278125 231.684375 L 123.096875 234.35625 L 126.190625 237.04375 L 128.325 240.215625 L 129.3875 243.6875 L 129.45625 247.815625 " transform="matrix(1.25,0,0,1.25,0,0)"/>
<path style="fill:none;stroke-width:1.5;stroke-linecap:square;stroke-linejoin:round;stroke:rgb(0%,0%,0%);stroke-opacity:1;stroke-miterlimit:4;" d="M 253.33125 243.38125 L 250.903125 252.48125 L 249.075 257.071875 L 246.8875 260.721875 L 240.24375 270.065625 L 237.596875 274.884375 L 236.29375 278.9625 L 236.040625 282.8125 L 237.028125 287.521875 L 239.2125 292.215625 L 242.703125 297.059375 L 251.446875 306.63125 L 254.790625 310.88125 L 257.5375 315.890625 L 258.9125 320.996875 " transform="matrix(1.25,0,0,1.25,0,0)"/>
<path style="fill:none;stroke-width:1.5;stroke-linecap:square;stroke-linejoin:round;stroke:rgb(0%,0%,0%);stroke-opacity:1;stroke-miterlimit:4;" d="M 219.29375 312.128125 L 221.934375 302.046875 L 222.6125 297.346875 L 222.415625 293.978125 L 220.671875 287.0875 L 220.78125 283.621875 L 223.2125 277.971875 L 231.6 266.38125 L 234.4375 260.665625 L 235.203125 256.14375 L 234.134375 244.684375 L 234.278125 242.046875 L 234.834375 239.73125 L 236.99375 236.38125 L 240.696875 233.765625 L 245.046875 232.56875 L 248.94375 233.034375 L 250.725 233.971875 L 252.109375 235.296875 L 254.034375 239.390625 L 255.0875 245.890625 L 254.65 252.61875 L 253.65625 255.921875 L 252.153125 258.553125 L 243.340625 269.23125 L 240.475 273.628125 L 238.8625 278.3875 L 238.834375 283.478125 L 240.2 288.3625 L 242.840625 293.21875 L 246.115625 297.503125 L 254.846875 307.365625 L 258.14375 312.359375 L 261.31875 320.009375 L 262.81875 327.65 " transform="matrix(1.25,0,0,1.25,0,0)"/>
<path style="fill:none;stroke-width:1.5;stroke-linecap:square;stroke-linejoin:round;stroke:rgb(0%,0%,0%);stroke-opacity:1;stroke-miterlimit:4;" d="M 239.38125 475.675 L 240.496875 480.109375 " transform="matrix(1.25,0,0,1.25,0,0)"/>
<path style="fill:none;stroke-width:1.5;stroke-linecap:square;stroke-linejoin:round;stroke:rgb(0%,0%,0%);stroke-opacity:1;stroke-miterlimit:4;" d="M 231.0125 452.94375 L 228.221875 460.153125 " transform="matrix(1.25,0,0,1.25,0,0)"/>
<path style="fill:none;stroke-width:1.5;stroke-linecap:square;stroke-linejoin:round;stroke:rgb(0%,0%,0%);stroke-opacity:1;stroke-miterlimit:4;" d="M 199.7625 142.48125 L 212.19375 243.38125 L 219.853125 280.525 " transform="matrix(1.25,0,0,1.25,0,0)"/>
<path style="fill:none;stroke-width:1.5;stroke-linecap:square;stroke-linejoin:round;stroke:rgb(0%,0%,0%);stroke-opacity:1;stroke-miterlimit:4;" d="M 222.084375 293.83125 L 218.325 290.825 L 216.45625 288.45 L 214.975 285.090625 L 214.74375 281.9 L 215.484375 279.253125 L 217.215625 276.40625 L 227.471875 266.053125 L 229.396875 263.4875 L 230.584375 261.021875 L 231.09375 258.484375 L 230.921875 255.83125 L 228.378125 248.384375 L 227.79375 245.73125 L 227.878125 243.184375 L 228.68125 240.253125 L 231.784375 234.3875 L 236.271875 229.875 L 239.0625 228.05 L 241.865625 226.7875 L 244.5625 226.11875 L 247.25 226.053125 L 249.85625 226.690625 L 252.121875 227.98125 L 254.33125 230.025 L 256.09375 232.5 L 257.5375 235.50625 L 258.640625 238.9875 L 259.8875 247.5125 L 259.990625 256.765625 L 259 260.9375 L 256.45 264.003125 L 250.578125 268.109375 L 248.346875 270.171875 L 246.609375 273 L 245.659375 276.36875 L 245.4875 280.75625 L 246.39375 285.509375 L 248.403125 290.696875 L 251.659375 296.603125 " transform="matrix(1.25,0,0,1.25,0,0)"/>
<path style="fill:none;stroke-width:1.5;stroke-linecap:square;stroke-linejoin:round;stroke:rgb(0%,0%,0%);stroke-opacity:1;stroke-miterlimit:4;" d="M 255.5625 389.1875 L 254.125 409.828125 L 251.721875 427.9375 L 249.44375 439.2625 L 244.35 456.603125 L 242.73125 464.5875 " transform="matrix(1.25,0,0,1.25,0,0)"/>
<path style="fill:none;stroke-width:1.5;stroke-linecap:square;stroke-linejoin:round;stroke:rgb(0%,0%,0%);stroke-opacity:1;stroke-miterlimit:4;" d="M 232.128125 294.940625 L 232.790625 299.040625 L 234.60625 303.025 L 245.003125 316.48125 L 250.771875 322.859375 L 260.41875 330.471875 L 263.971875 334.425 L 266.053125 337.996875 L 267.9625 342.240625 L 271.375 352.821875 L 271.540625 356.26875 L 271.034375 357.578125 L 270.103125 358.69375 L 267.6375 360.09375 L 259.378125 362.890625 L 257.571875 364.25 L 256.053125 366.34375 L 254.796875 369.396875 L 254.090625 372.975 L 253.890625 384.2 " transform="matrix(1.25,0,0,1.25,0,0)"/>
<path style="fill:none;stroke-width:1.5;stroke-linecap:square;stroke-linejoin:round;stroke:rgb(0%,0%,0%);stroke-opacity:1;stroke-miterlimit:4;" d="M 228.78125 307.690625 L 224.61875 316.70625 L 214.509375 336.390625 L 208.1 350.2125 L 206.53125 354.3 L 206.1 357.25 L 206.85 359.828125 L 208.8 361.940625 L 212.125 363.8375 L 222.74375 368.271875 L 224.990625 370.1 L 226.428125 372.51875 L 229.834375 385.725 L 231.290625 395.034375 L 231.684375 405.803125 L 230.746875 416.503125 L 228.61875 425.1875 L 224.9875 433.45625 L 218.484375 443.646875 L 206.64375 458.975 L 204.875 462.534375 L 204.403125 465.525 L 205.540625 469.23125 L 208.784375 473.91875 L 213.7375 478.871875 L 215.403125 479.853125 L 216.884375 480.1875 L 218.60625 479.65625 L 220.128125 477.975 L 223.909375 469.178125 L 225.5 466.628125 L 227.59375 465.35 L 229.878125 465.759375 L 231.6375 467.65 L 233.025 471.025 L 235.475 484.546875 " transform="matrix(1.25,0,0,1.25,0,0)"/>
<path style="fill:none;stroke-width:1.5;stroke-linecap:square;stroke-linejoin:round;stroke:rgb(0%,0%,0%);stroke-opacity:1;stroke-miterlimit:4;" d="M 236.590625 334.303125 L 235.74375 338.98125 L 233.621875 343.403125 L 230.33125 347.64375 L 224.315625 353.70625 " transform="matrix(1.25,0,0,1.25,0,0)"/>
<path style="fill:none;stroke-width:1.5;stroke-linecap:square;stroke-linejoin:round;stroke:rgb(0%,0%,0%);stroke-opacity:1;stroke-miterlimit:4;" d="M 250.540625 344.8375 L 239.940625 364.79375 " transform="matrix(1.25,0,0,1.25,0,0)"/>
<path style="fill:none;stroke-width:1.5;stroke-linecap:square;stroke-linejoin:round;stroke:rgb(0%,0%,0%);stroke-opacity:1;stroke-miterlimit:4;" d="M 49.103125 206.790625 L 58.09375 189.25 L 61.065625 184.615625 L 65.621875 178.584375 L 71.36875 171.896875 L 77.803125 165.3 L 84.93125 158.796875 L 92.740625 152.371875 L 119.921875 132.509375 L 126.859375 128.134375 L 136.3625 123.340625 L 146.15 119.009375 L 157.684375 114.65 L 169.365625 111.309375 L 172.0875 110.078125 L 174.0125 108.66875 L 174.7 106.996875 L 174.228125 104.73125 L 167.653125 92.021875 L 163.459375 81.9875 L 162.93125 77.70625 L 163.359375 76.221875 L 164.2 75.190625 L 165.990625 74.453125 L 167.91875 74.634375 L 169.765625 75.74375 L 171.459375 77.59375 L 179.36875 90.95625 L 185.25625 103.11875 " transform="matrix(1.25,0,0,1.25,0,0)"/>
<path style="fill:none;stroke-width:1.5;stroke-linecap:square;stroke-linejoin:round;stroke:rgb(0%,0%,0%);stroke-opacity:1;stroke-miterlimit:4;" d="M 178.559375 139.153125 L 185.95 139.421875 L 191.409375 140.38125 L 196.24375 142.253125 L 200.88125 145.253125 " transform="matrix(1.25,0,0,1.25,0,0)"/>
<path style="fill:none;stroke-width:1.5;stroke-linecap:square;stroke-linejoin:round;stroke:rgb(0%,0%,0%);stroke-opacity:1;stroke-miterlimit:4;" d="M 249.425 477.3375 L 247.19375 483.4375 " transform="matrix(1.25,0,0,1.25,0,0)"/>
<path style="fill:none;stroke-width:1.5;stroke-linecap:square;stroke-linejoin:round;stroke:rgb(0%,0%,0%);stroke-opacity:1;stroke-miterlimit:4;" d="M 229.896875 297.7125 L 230.321875 302.15625 L 231.51875 306.353125 L 233.54375 310.446875 L 236.315625 314.303125 L 242.8 320.70625 L 259.771875 334.196875 L 263.3875 337.8125 L 266.153125 341.334375 L 268.234375 345.034375 L 269.55 348.78125 L 270.16875 352.71875 L 270.071875 357.034375 " transform="matrix(1.25,0,0,1.25,0,0)"/>
<path style="fill:none;stroke-width:1.5;stroke-linecap:square;stroke-linejoin:round;stroke:rgb(0%,0%,0%);stroke-opacity:1;stroke-miterlimit:4;" d="M 236.590625 125.85 L 241.45625 124.940625 L 246.903125 124.834375 L 253.215625 125.4875 L 260.58125 126.95 L 270.921875 129.75 L 279.65 132.640625 L 288.44375 136.1625 L 296.91875 140.196875 L 305.121875 144.746875 L 313.103125 149.81875 L 321.0875 155.55625 L 329.184375 162.059375 L 334.65625 167.115625 L 339.04375 171.95625 L 342.628125 176.871875 L 345.403125 181.84375 " transform="matrix(1.25,0,0,1.25,0,0)"/>
<path style="fill:none;stroke-width:1.5;stroke-linecap:square;stroke-linejoin:round;stroke:rgb(0%,0%,0%);stroke-opacity:1;stroke-miterlimit:4;" d="M 177.44375 138.046875 L 174.509375 144.0375 L 170.740625 150.440625 L 152.775 177.215625 L 147.925 186 L 143.615625 194.940625 L 138.89375 206.64375 L 135.075 218.61875 L 132.134375 230.95 L 130.0125 243.9375 " transform="matrix(1.25,0,0,1.25,0,0)"/>
<path style="fill:none;stroke-width:1.5;stroke-linecap:square;stroke-linejoin:round;stroke:rgb(0%,0%,0%);stroke-opacity:1;stroke-miterlimit:4;" d="M 222.640625 352.596875 L 227.0375 350.34375 L 229.815625 347.1875 L 231.75 342.00625 L 233.815625 331.415625 L 234.8 329.675 L 236.290625 329.046875 L 238.015625 329.4125 L 240.00625 330.665625 L 249.634375 339.753125 L 256.7 347.378125 L 257.796875 349.140625 L 258.196875 350.875 L 257.928125 352.240625 L 257.096875 353.596875 L 252.45 357.55 L 250.446875 359.99375 L 248.753125 363.059375 L 247.58125 366.540625 L 246.96875 370.803125 L 246.403125 381.29375 L 245.803125 386.08125 L 234.296875 439.228125 L 233.38125 448.240625 L 233.484375 457.553125 L 233.184375 459.825 L 232.55 460.99375 L 231.425 461.515625 L 226.203125 461.034375 L 224.39375 461.240625 L 223.090625 461.9875 L 222.084375 463.478125 " transform="matrix(1.25,0,0,1.25,0,0)"/>
<path style="fill:none;stroke-width:1.5;stroke-linecap:square;stroke-linejoin:round;stroke:rgb(0%,0%,0%);stroke-opacity:1;stroke-miterlimit:4;" d="M 186.93125 104.78125 L 192.303125 103.65 L 199.003125 103.071875 L 225.26875 103.153125 L 241.671875 103.775 L 255.1 105.45625 L 266.16875 108.084375 L 276.678125 111.88125 L 282.18125 114.73125 L 294.0625 122.253125 L 299.646875 125.29375 " transform="matrix(1.25,0,0,1.25,0,0)"/>
<path style="fill:none;stroke-width:1.5;stroke-linecap:square;stroke-linejoin:round;stroke:rgb(0%,0%,0%);stroke-opacity:1;stroke-miterlimit:4;" d="M 216.503125 292.721875 L 218.43125 295.553125 L 219.34375 298.3125 L 219.41875 301.453125 L 218.634375 305.328125 L 213.69375 321.975 L 210.009375 332.68125 L 205.20625 343.728125 L 199.778125 352.775 L 198.9375 355.309375 L 198.846875 357.53125 L 199.253125 359.346875 L 200.1 361.03125 L 202.984375 363.74375 L 207.128125 365.746875 L 220.25625 370.25 L 223.3125 372.15625 L 225.3 374.459375 L 226.215625 376.990625 L 228.571875 393.021875 L 229.14375 401.934375 L 228.921875 409.575 L 227.465625 417.95 L 224.49375 425.228125 L 218.934375 435.809375 L 208.59375 453.853125 L 202.625 461.0625 L 201.8 463.165625 L 201.603125 465.43125 L 202.596875 469.0125 L 205.371875 472.915625 L 214.453125 480.9125 L 217.328125 482.54375 L 218.734375 482.66875 L 220.603125 482.2375 L 223.253125 480.33125 L 225.20625 476.909375 L 226.546875 471.79375 " transform="matrix(1.25,0,0,1.25,0,0)"/>
<path style="fill:none;stroke-width:1.5;stroke-linecap:square;stroke-linejoin:round;stroke:rgb(0%,0%,0%);stroke-opacity:1;stroke-miterlimit:4;" d="M 258.9125 368.121875 L 257.78125 375.896875 L 257.140625 384.59375 L 257.096875 420.08125 L 255.990625 435.540625 L 254.115625 442.496875 L 247.23125 458.259375 L 246.178125 462.2375 L 245.825 465.84375 L 246.1375 467.75 L 247.296875 468.94375 L 248.85625 469.41875 L 253.890625 469.9375 L 255.621875 470.7625 L 257.084375 472.115625 L 258.165625 474.003125 L 258.76875 476.36875 L 258.809375 479.0875 L 258.315625 481.675 L 257.18125 484.284375 L 255.525 486.503125 L 253.284375 488.459375 L 250.65 490.015625 L 247.35 491.30625 L 243.8375 492.140625 L 239.865625 492.565625 L 236.01875 492.503125 L 229.784375 491.753125 L 228.0125 491.10625 L 226.853125 490.203125 L 225.85625 487.740625 L 225.540625 481.496875 L 224.875 479.003125 " transform="matrix(1.25,0,0,1.25,0,0)"/>
<path style="fill:none;stroke-width:1.5;stroke-linecap:square;stroke-linejoin:round;stroke:rgb(0%,0%,0%);stroke-opacity:1;stroke-miterlimit:4;" d="M 228.78125 303.8125 L 229.8625 307.20625 L 231.38125 310.340625 L 235.9875 316.496875 L 241.5 321.653125 L 255.746875 333.021875 L 261.546875 339.059375 L 263.71875 342.271875 L 265.315625 345.603125 L 266.325 349.05625 L 266.753125 352.6375 L 266.334375 355.240625 L 265.090625 357.48125 L 263.265625 359.346875 L 256.778125 364.578125 L 255.2 366.6625 L 254.28125 368.85625 L 253.06875 375.440625 L 250.828125 393.784375 L 242.2375 433.453125 L 238.9375 453.9 L 238.853125 457.853125 L 239.334375 461.709375 L 240.38125 465.48125 L 241.9 468.790625 L 244.903125 472.64375 L 250.965625 475.9625 L 253.046875 477.4875 L 254.065625 479.0375 L 254.059375 480.7125 L 253.1875 482.3125 L 251.559375 483.865625 L 249.4 485.125 L 246.8625 486.06875 L 240.828125 486.953125 L 237.884375 486.7625 L 235.240625 486.121875 L 232.590625 484.596875 L 230.90625 482.228125 L 229.94375 479.4125 L 228.221875 471.240625 " transform="matrix(1.25,0,0,1.25,0,0)"/>
<path style="fill:none;stroke-width:1.5;stroke-linecap:square;stroke-linejoin:round;stroke:rgb(0%,0%,0%);stroke-opacity:1;stroke-miterlimit:4;" d="M 220.96875 294.940625 L 216.015625 291.45625 L 213.63125 288.759375 L 212.059375 284.9625 L 211.875 280.55 L 213.20625 275.8125 L 215.934375 271.3875 L 218.884375 268.503125 L 226.428125 263.259375 L 228.090625 261.415625 L 228.990625 259.640625 L 229.278125 257.803125 L 228.971875 255.765625 L 225.575 248.0625 L 224.9 245.04375 L 225.01875 242.19375 L 225.621875 239.228125 L 228.109375 233.709375 L 231.4625 229.584375 L 235.496875 226.48125 L 240.1 224.465625 L 244.871875 223.765625 L 249.590625 224.434375 L 253.803125 226.3375 L 257.290625 229.35 L 260.015625 233.51875 L 261.9875 239.165625 L 262.946875 245.734375 L 262.9375 253.40625 L 261.915625 261.6 L 261.184375 263.540625 L 259.975 264.975 L 253.528125 268.221875 L 250.921875 270.8625 L 249.8125 273.13125 L 249.15 275.621875 L 248.959375 281.49375 L 249.509375 284.35625 L 250.621875 287.56875 L 256.2 298.696875 L 258.13125 303.684375 L 260.36875 311.3 L 265.9625 333.50625 L 267.875 339.284375 L 272.828125 350.85 L 273.83125 354.5 L 274.1 357.4625 L 273.846875 359.2125 L 273.175 360.71875 L 272.009375 361.971875 L 270.409375 362.965625 L 266.10625 364.4 L 255.5625 366.459375 " transform="matrix(1.25,0,0,1.25,0,0)"/>
<path style="fill:none;stroke-width:1.5;stroke-linecap:square;stroke-linejoin:round;stroke:rgb(0%,0%,0%);stroke-opacity:1;stroke-miterlimit:4;" d="M 222.084375 305.475 L 222.975 302.84375 L 223.503125 299.75625 L 223.51875 286.78125 L 224.534375 281.00625 L 227.403125 275.059375 L 235.596875 263.275 L 237.903125 258.021875 L 238.3875 253.33125 L 237.73125 243.878125 L 238.4625 240.271875 L 240.1875 236.915625 L 242.475 234.7 L 245 233.915625 L 247.528125 234.515625 L 249.54375 236.375 L 250.50625 239.50625 L 250.434375 244.009375 L 249.30625 250.49375 L 248.20625 253.9 L 246.44375 257.7 L 238.85625 270.15 L 236.196875 275.48125 L 234.5875 281.159375 L 234.49375 286.865625 L 236.084375 292.803125 L 239.415625 298.94375 L 243.690625 304.61875 L 254.334375 316.95 L 258.353125 322.659375 " transform="matrix(1.25,0,0,1.25,0,0)"/>
<path style="fill:none;stroke-width:1.5;stroke-linecap:square;stroke-linejoin:round;stroke:rgb(0%,0%,0%);stroke-opacity:1;stroke-miterlimit:4;" d="M 222.084375 309.909375 L 217.86875 318.315625 L 209.85625 337.70625 L 202.775 351.79375 L 202.05 354.74375 L 201.975 357.390625 L 202.4875 359.93125 L 203.66875 362.578125 " transform="matrix(1.25,0,0,1.25,0,0)"/>
<path style="fill:none;stroke-width:1.5;stroke-linecap:square;stroke-linejoin:round;stroke:rgb(0%,0%,0%);stroke-opacity:1;stroke-miterlimit:4;" d="M 204.228125 142.48125 L 210.734375 140.065625 L 216.309375 138.503125 L 221.525 137.625 L 226.5625 137.440625 L 231.403125 137.99375 L 235.81875 139.228125 L 240.028125 141.153125 L 244.09375 143.846875 L 249.99375 149.596875 L 255.6 157.484375 L 274.209375 190.5125 L 279 200.69375 " transform="matrix(1.25,0,0,1.25,0,0)"/>
<path style="fill:none;stroke-width:1.5;stroke-linecap:square;stroke-linejoin:round;stroke:rgb(0%,0%,0%);stroke-opacity:1;stroke-miterlimit:4;" d="M 232.128125 324.878125 L 230.821875 332.471875 L 228.909375 338.521875 L 226.209375 343.86875 L 221.134375 350.7875 L 220.334375 352.6375 L 220.153125 354.2375 L 220.7625 355.7375 L 222.25625 356.975 L 230.340625 360.184375 L 234.365625 362.45 L 236.896875 364.809375 L 238.384375 367.45 L 239.23125 371.903125 L 239.565625 377.8375 L 239.290625 396.575 L 238.784375 407.1375 L 237.80625 417.659375 L 236.36875 427.909375 L 234.425 438.0875 L 232.259375 446.75 L 231.071875 449.271875 L 229.453125 451.540625 L 221.346875 459.1125 L 219.5125 461.334375 L 218.590625 463.04375 L 218.49375 464.4875 L 219.11875 465.896875 L 220.31875 467.034375 L 222.084375 467.9125 " transform="matrix(1.25,0,0,1.25,0,0)"/>
<path style="fill:none;stroke-width:1.5;stroke-linecap:square;stroke-linejoin:round;stroke:rgb(0%,0%,0%);stroke-opacity:1;stroke-miterlimit:4;" d="M 229.896875 319.334375 L 246.853125 333.58125 L 252.528125 338.909375 L 259.978125 347.1625 L 261.615625 350.121875 L 262.215625 352.746875 L 261.93125 355.003125 L 260.859375 357.121875 L 253.15625 364.803125 L 251.721875 366.865625 L 250.859375 369.05 L 242.815625 423.64375 L 241.38125 431.259375 L 236.9625 449.29375 L 236.390625 456.33125 L 237.33125 462.065625 L 239.44375 466.159375 L 245.696875 474.55625 L 246.6875 476.496875 L 247.0875 478.228125 L 246.684375 480.571875 L 245.271875 482.4375 L 242.95625 483.83125 L 239.940625 484.546875 " transform="matrix(1.25,0,0,1.25,0,0)"/>
<path style="fill:none;stroke-width:1.5;stroke-linecap:square;stroke-linejoin:round;stroke:rgb(0%,0%,0%);stroke-opacity:1;stroke-miterlimit:4;" d="M 130.0125 245.04375 L 133.8875 238.821875 L 137.68125 233.54375 L 141.43125 229.153125 L 145.43125 225.278125 L 149.9 221.790625 L 154.715625 218.83125 L 159.346875 216.678125 L 164.484375 214.934375 L 174.9875 212.61875 L 195.73125 209.821875 L 206.025 207.95625 L 219.209375 204.8125 L 243.95 198.01875 L 255.828125 195.7875 L 263.58125 195.39375 L 270.328125 196.16875 L 275.93125 198.08125 L 280.675 201.246875 " transform="matrix(1.25,0,0,1.25,0,0)"/>
<path style="fill:none;stroke-width:1.5;stroke-linecap:square;stroke-linejoin:round;stroke:rgb(0%,0%,0%);stroke-opacity:1;stroke-miterlimit:4;" d="M 238.265625 335.965625 L 236.3125 341.196875 L 233.83125 345.9375 L 230.659375 350.54375 L 226.546875 355.371875 " transform="matrix(1.25,0,0,1.25,0,0)"/>
<path style="fill:none;stroke-width:1.5;stroke-linecap:square;stroke-linejoin:round;stroke:rgb(0%,0%,0%);stroke-opacity:1;stroke-miterlimit:4;" d="M 246.6375 307.690625 L 254.446875 313.2375 " transform="matrix(1.25,0,0,1.25,0,0)"/>
<path style="fill:none;stroke-width:1.5;stroke-linecap:square;stroke-linejoin:round;stroke:rgb(0%,0%,0%);stroke-opacity:1;stroke-miterlimit:4;" d="M 229.3375 322.659375 L 228.571875 329.88125 L 226.303125 336.796875 L 222.353125 343.8625 L 216.384375 351.384375 L 215.459375 353.2375 L 215.1125 354.846875 L 215.75625 357.003125 L 217.809375 358.796875 L 220.59375 360.096875 L 229.5375 363.146875 L 231.821875 364.465625 L 233.603125 366.18125 L 234.896875 368.475 L 235.678125 371.275 L 236.8125 382.990625 L 237.025 395.034375 L 236.384375 407.665625 L 232.915625 437.828125 L 231.89375 443.459375 L 230.5 447.4 L 228.715625 450.26875 L 226.165625 453.00625 L 218.521875 459.78125 L 216.509375 462.390625 L 215.765625 464.28125 L 215.859375 466.0125 L 216.803125 467.9 L 221.525 472.35 " transform="matrix(1.25,0,0,1.25,0,0)"/>
<path style="fill:none;stroke-width:1.5;stroke-linecap:square;stroke-linejoin:round;stroke:rgb(0%,0%,0%);stroke-opacity:1;stroke-miterlimit:4;" d="M 255.5625 348.71875 L 252.165625 352.640625 L 249.459375 356.884375 L 247.29375 361.59375 L 245.6 366.95 L 244.434375 372.734375 L 243.7125 379.109375 L 243.2875 396.95 " transform="matrix(1.25,0,0,1.25,0,0)"/>
<path style="fill:none;stroke-width:1.5;stroke-linecap:square;stroke-linejoin:round;stroke:rgb(0%,0%,0%);stroke-opacity:1;stroke-miterlimit:4;" d="M 234.359375 330.421875 L 241.840625 335.084375 L 247.759375 339.85625 L 251.334375 344.1 L 252.30625 346.075 L 252.665625 347.81875 L 251.8 350.146875 L 247.721875 354.11875 L 246.178125 356.509375 L 244.55625 360.5125 L 243.440625 365.375 L 241.203125 386.35625 L 238.684375 427.41875 L 236.015625 443.55 L 235.475 449.61875 " transform="matrix(1.25,0,0,1.25,0,0)"/>
<path style="fill:none;stroke-width:1.5;stroke-linecap:square;stroke-linejoin:round;stroke:rgb(0%,0%,0%);stroke-opacity:1;stroke-miterlimit:4;" d="M 201.996875 130.8375 L 202.4375 143.321875 L 203.80625 157.5875 L 210.578125 204.165625 L 215.96875 253.975 L 219.29375 273.875 " transform="matrix(1.25,0,0,1.25,0,0)"/>
</g>
</svg>
