<?xml version="1.0" encoding="UTF-8"?>
<svg xmlns="http://www.w3.org/2000/svg" xmlns:xlink="http://www.w3.org/1999/xlink" width="519pt" height="729pt" viewBox="0 0 519 729" version="1.1">
<g id="surface1">
<path style="fill:none;stroke-width:1.5;stroke-linecap:square;stroke-linejoin:round;stroke:rgb(0%,0%,0%);stroke-opacity:1;stroke-miterlimit:4;" d="M 220.409375 106.690625 L 223.6875 106.6625 L 225.75 107.6375 L 226.509375 109.515625 L 225.784375 111.875 L 223.846875 113.9875 L 221.06875 115.434375 L 217.83125 115.925 L 215.290625 115.35 L 214.35625 114.503125 L 213.915625 113.2875 L 214.028125 111.890625 L 214.65 110.4375 L 217.059375 107.965625 L 220.409375 106.690625 " transform="matrix(1.25,0,0,1.25,0,0)"/>
<path style="fill:none;stroke-width:1.5;stroke-linecap:square;stroke-linejoin:round;stroke:rgb(0%,0%,0%);stroke-opacity:1;stroke-miterlimit:4;" d="M 340.9375 264.45 L 340.9375 279.971875 " transform="matrix(1.25,0,0,1.25,0,0)"/>
<path style="fill:none;stroke-width:1.5;stroke-linecap:square;stroke-linejoin:round;stroke:rgb(0%,0%,0%);stroke-opacity:1;stroke-miterlimit:4;" d="M 330.3375 204.575 L 329.14375 207.70625 L 327.515625 210.546875 L 325.41875 213.134375 L 323.034375 215.209375 L 320.4625 216.678125 L 317.946875 217.425 L 315.58125 217.478125 L 313.29375 216.83125 L 310.23125 214.459375 L 307.825 210.41875 L 304.725 200.859375 L 302.8875 191.715625 L 302.3875 185.159375 L 302.68125 179.321875 L 305.446875 165.721875 L 306.44375 156.83125 L 307.721875 153.315625 L 309.18125 151.7 L 310.9625 150.771875 L 313.075 150.525 L 315.26875 150.940625 L 317.79375 152.078125 L 320.453125 153.975 L 322.640625 156.2 L 324.196875 158.559375 " transform="matrix(1.25,0,0,1.25,0,0)"/>
<path style="fill:none;stroke-width:1.5;stroke-linecap:square;stroke-linejoin:round;stroke:rgb(0%,0%,0%);stroke-opacity:1;stroke-miterlimit:4;" d="M 103.23125 252.80625 L 106.128125 254.16875 L 108.603125 257.25625 L 110.521875 261.353125 L 114.065625 271.2 L 117.034375 276.15625 L 121.390625 281.378125 L 127.840625 287.396875 L 129.35625 289.615625 L 129.746875 292.028125 L 128.815625 294.628125 L 126.7 296.8125 L 123.64375 298.546875 L 119.596875 299.8125 L 115.1125 300.5625 L 110.4375 300.78125 L 105.75625 300.453125 L 101.45625 299.61875 L 97.46875 298.259375 L 94.4 296.6125 L 91.640625 294.375 L 89.240625 291.540625 L 87.3375 288.309375 L 85.821875 284.571875 L 84.728125 280.38125 L 84.071875 275.81875 L 83.853125 270.8 L 84.103125 265.703125 L 84.815625 260.56875 " transform="matrix(1.25,0,0,1.25,0,0)"/>
<path style="fill:none;stroke-width:1.5;stroke-linecap:square;stroke-linejoin:round;stroke:rgb(0%,0%,0%);stroke-opacity:1;stroke-miterlimit:4;" d="M 160.146875 306.584375 L 162.375 305.509375 L 164.53125 305.06875 L 166.428125 305.29375 L 168.2125 306.171875 L 169.853125 307.7125 L 171.325 309.871875 L 174.096875 316.5625 " transform="matrix(1.25,0,0,1.25,0,0)"/>
<path style="fill:none;stroke-width:1.5;stroke-linecap:square;stroke-linejoin:round;stroke:rgb(0%,0%,0%);stroke-opacity:1;stroke-miterlimit:4;" d="M 320.85 261.678125 L 323.065625 264.153125 L 324.596875 267.740625 L 326.04375 275.81875 L 326.378125 280.871875 L 325.696875 289.1625 L 321.775 308.815625 L 320.85 317.671875 " transform="matrix(1.25,0,0,1.25,0,0)"/>
<path style="fill:none;stroke-width:1.5;stroke-linecap:square;stroke-linejoin:round;stroke:rgb(0%,0%,0%);stroke-opacity:1;stroke-miterlimit:4;" d="M 175.2125 286.625 L 174.559375 285.390625 L 174.428125 284.290625 L 174.815625 283.21875 L 175.690625 282.290625 L 179.090625 280.646875 L 184.45 279.41875 L 231.565625 273.728125 L 245.325 272.61875 L 260.665625 272.028125 L 273.89375 270.528125 L 275.465625 270.8625 L 276.434375 271.671875 L 277.14375 273.265625 L 277.35625 275.26875 L 276.771875 279.828125 L 273.978125 291.059375 " transform="matrix(1.25,0,0,1.25,0,0)"/>
<path style="fill:none;stroke-width:1.5;stroke-linecap:square;stroke-linejoin:round;stroke:rgb(0%,0%,0%);stroke-opacity:1;stroke-miterlimit:4;" d="M 196.415625 189.05 L 201.996875 192.378125 " transform="matrix(1.25,0,0,1.25,0,0)"/>
<path style="fill:none;stroke-width:1.5;stroke-linecap:square;stroke-linejoin:round;stroke:rgb(0%,0%,0%);stroke-opacity:1;stroke-miterlimit:4;" d="M 175.2125 315.453125 L 196.415625 310.4625 " transform="matrix(1.25,0,0,1.25,0,0)"/>
<path style="fill:none;stroke-width:1.5;stroke-linecap:square;stroke-linejoin:round;stroke:rgb(0%,0%,0%);stroke-opacity:1;stroke-miterlimit:4;" d="M 304.66875 418.571875 L 302.0375 427.946875 L 299.2625 448.2875 L 297.55 455.3125 L 295.928125 458.696875 L 293.7125 461.453125 L 291.10625 463.375 L 287.71875 464.83125 L 284.659375 465.5375 L 281.453125 465.80625 L 274.3625 465.103125 L 266.63125 462.728125 L 259.046875 458.93125 L 252.246875 453.990625 L 245.50625 446.940625 L 243.996875 444.5625 L 243.175 442.378125 L 242.93125 440.24375 L 243.2875 437.975 " transform="matrix(1.25,0,0,1.25,0,0)"/>
<path style="fill:none;stroke-width:1.5;stroke-linecap:square;stroke-linejoin:round;stroke:rgb(0%,0%,0%);stroke-opacity:1;stroke-miterlimit:4;" d="M 263.375 158.803125 L 269 158.8875 L 274.24375 160.359375 L 278.959375 163.153125 L 282.965625 167.165625 L 286.06875 172.246875 L 288.003125 178.003125 L 288.65 183.95625 L 288.04375 190.225 L 286.128125 197.046875 L 283.04375 203.61875 L 279.05 209.490625 L 274.196875 214.5875 L 268.784375 218.55 L 263.165625 221.1625 L 257.128125 222.5 L 251.54375 222.325 L 247.175 220.884375 L 243.1625 218.178125 L 239.75625 214.36875 L 236.928125 209.4625 L 234.765625 203.471875 L 233.534375 197.14375 L 233.26875 190.784375 L 233.965625 184.321875 L 235.31875 179.215625 L 237.440625 174.434375 L 240.28125 170.2125 L 243.675 166.709375 L 247.696875 163.7875 L 252.33125 161.475 L 257.5625 159.803125 L 263.375 158.803125 " transform="matrix(1.25,0,0,1.25,0,0)"/>
<path style="fill:none;stroke-width:1.5;stroke-linecap:square;stroke-linejoin:round;stroke:rgb(0%,0%,0%);stroke-opacity:1;stroke-miterlimit:4;" d="M 191.39375 167.11875 L 198.6875 166.61875 L 205.275 167.353125 L 210.553125 169.11875 L 215.35625 172.24375 L 219.3875 176.596875 L 222.44375 182.103125 L 224.28125 188.403125 L 224.81875 195.215625 L 224.103125 201.609375 L 222.315625 207.496875 L 219.721875 212.4 L 216.0375 216.63125 L 210.690625 220.678125 L 204.175 223.9875 L 196.940625 226.31875 L 190.35625 227.253125 L 185.940625 226.53125 L 181.56875 224.58125 L 177.2375 221.378125 L 173.3625 217.190625 L 170.290625 212.478125 L 168.20625 207.6 L 167.15 202.44375 L 166.859375 196.915625 L 167.390625 191.340625 L 168.753125 186.04375 L 170.9375 181.15 L 173.803125 176.91875 L 177.40625 173.278125 L 181.559375 170.428125 L 186.178125 168.3875 L 191.39375 167.11875 " transform="matrix(1.25,0,0,1.25,0,0)"/>
<path style="fill:none;stroke-width:1.5;stroke-linecap:square;stroke-linejoin:round;stroke:rgb(0%,0%,0%);stroke-opacity:1;stroke-miterlimit:4;" d="M 49.103125 388.08125 L 48.51875 384.9125 L 48.509375 381.60625 L 49.1375 377.75 L 50.61875 373.1625 L 50.421875 370.9 L 49.796875 370.2125 L 48.84375 370.040625 L 44.159375 371.99375 L 42.1125 371.578125 L 39.575 369.73125 L 36.64375 366.578125 L 35.2875 364.4875 L 34.94375 362.74375 L 35.50625 360.7375 L 37.478125 356.725 L 42.68125 348.68125 L 47.63125 343.15 L 49.80625 341.453125 L 51.89375 340.403125 " transform="matrix(1.25,0,0,1.25,0,0)"/>
<path style="fill:none;stroke-width:1.5;stroke-linecap:square;stroke-linejoin:round;stroke:rgb(0%,0%,0%);stroke-opacity:1;stroke-miterlimit:4;" d="M 243.846875 436.3125 L 240.55 441.98125 L 238.546875 447.44375 L 238.325 451.396875 L 238.840625 452.828125 L 239.809375 453.975 L 241.528125 455.08125 L 244.021875 456.040625 L 261.065625 460.359375 L 273.4 464.928125 L 278.909375 466.146875 L 282.675 466.05 L 286.66875 465.028125 L 291.1125 463.015625 L 295.68125 460.128125 L 300.371875 456.353125 L 304.753125 452.025 L 308.53125 447.440625 L 311.3625 442.965625 " transform="matrix(1.25,0,0,1.25,0,0)"/>
<path style="fill:none;stroke-width:1.5;stroke-linecap:square;stroke-linejoin:round;stroke:rgb(0%,0%,0%);stroke-opacity:1;stroke-miterlimit:4;" d="M 265.609375 386.415625 L 267.234375 388.725 L 269.534375 390.49375 L 272.26875 391.6125 L 275.1875 391.984375 L 278.046875 391.5 L 280.44375 390.1875 L 281.440625 389.028125 L 283.23125 385.440625 L 284.846875 384.325 L 289.43125 384.16875 L 298.53125 385.8625 " transform="matrix(1.25,0,0,1.25,0,0)"/>
<path style="fill:none;stroke-width:1.5;stroke-linecap:square;stroke-linejoin:round;stroke:rgb(0%,0%,0%);stroke-opacity:1;stroke-miterlimit:4;" d="M 208.134375 385.309375 L 210.040625 386.39375 L 211.5125 387.75625 L 212.65625 389.509375 L 213.371875 391.50625 L 213.678125 396.44375 L 212.484375 402.49375 L 209.340625 410.665625 L 204.4125 419.86875 L 200.15625 425.559375 L 194.89375 430.671875 L 188.21875 435.5625 L 180.203125 440.0625 L 169.89375 444.503125 L 161.94375 446.909375 L 156.334375 447.58125 L 151.13125 447.084375 L 147.1 445.50625 L 141.175 441.85625 " transform="matrix(1.25,0,0,1.25,0,0)"/>
<path style="fill:none;stroke-width:1.5;stroke-linecap:square;stroke-linejoin:round;stroke:rgb(0%,0%,0%);stroke-opacity:1;stroke-miterlimit:4;" d="M 176.8875 289.396875 L 185.103125 287.684375 L 194.040625 286.559375 L 230.75 284.871875 L 256.715625 281.659375 L 260.375 281.7375 L 261.646875 282.284375 L 262.45625 283.121875 L 263.390625 286.303125 L 262.81875 312.128125 " transform="matrix(1.25,0,0,1.25,0,0)"/>
<path style="fill:none;stroke-width:1.5;stroke-linecap:square;stroke-linejoin:round;stroke:rgb(0%,0%,0%);stroke-opacity:1;stroke-miterlimit:4;" d="M 255.5625 282.74375 L 255.4625 291.084375 L 255.80625 295.896875 L 256.534375 299.30625 L 258.428125 304.1625 L 258.84375 306.234375 L 258.40625 308.015625 L 256.89375 309.384375 L 254.70625 310.209375 L 251.625 310.65 L 241.075 310.475 L 233.85625 310.953125 L 208.1375 315.146875 L 196.975 316.009375 " transform="matrix(1.25,0,0,1.25,0,0)"/>
<path style="fill:none;stroke-width:1.5;stroke-linecap:square;stroke-linejoin:round;stroke:rgb(0%,0%,0%);stroke-opacity:1;stroke-miterlimit:4;" d="M 266.165625 275.775 L 269.234375 275.578125 L 271.246875 276.3625 L 272.54375 278.55 L 273.246875 281.984375 L 273.509375 289.584375 L 274.85 301.16875 L 274.825 305.996875 L 274.2875 308.89375 L 273.359375 311.0875 L 272.03125 312.759375 L 270.1875 314 L 259.865625 316.61875 L 247.153125 318.359375 L 234.171875 319.171875 L 206.409375 319.940625 L 188.809375 321.615625 L 183.325 321.565625 L 178.5625 320.821875 L 176.875 319.99375 L 175.584375 318.303125 L 174.859375 315.771875 L 174.565625 311.73125 L 174.578125 291.509375 L 175.24375 288.684375 L 176.984375 287.140625 L 179.315625 286.5125 L 194.7875 284.278125 L 236.796875 279.58125 L 266.165625 275.775 " transform="matrix(1.25,0,0,1.25,0,0)"/>
<path style="fill:none;stroke-width:1.5;stroke-linecap:square;stroke-linejoin:round;stroke:rgb(0%,0%,0%);stroke-opacity:1;stroke-miterlimit:4;" d="M 339.821875 161.1375 L 343.134375 160.659375 L 346.29375 161.284375 L 349.203125 162.975 L 351.75 165.6125 L 353.79375 168.9875 L 355.190625 172.790625 L 355.996875 177.43125 L 356.234375 182.803125 L 355.85 188.56875 L 354.83125 194.153125 L 353.284375 199.046875 L 351.20625 203.25625 L 348.775 206.49375 L 345.953125 208.878125 L 342.6125 210.425 L 339.184375 210.95 L 336.4375 210.490625 L 333.96875 209.1625 L 331.825 207.00625 L 330.053125 204.125 L 328.55625 200.33125 L 327.49375 195.909375 L 326.83125 190.88125 L 326.6375 185.6125 L 326.9 181.040625 L 327.58125 176.7375 L 328.678125 172.83125 L 330.175 169.4125 L 332.040625 166.53125 L 334.234375 164.215625 L 336.884375 162.371875 L 339.821875 161.1375 " transform="matrix(1.25,0,0,1.25,0,0)"/>
<path style="fill:none;stroke-width:1.5;stroke-linecap:square;stroke-linejoin:round;stroke:rgb(0%,0%,0%);stroke-opacity:1;stroke-miterlimit:4;" d="M 365.490625 209.009375 L 369.396875 238.390625 " transform="matrix(1.25,0,0,1.25,0,0)"/>
<path style="fill:none;stroke-width:1.5;stroke-linecap:square;stroke-linejoin:round;stroke:rgb(0%,0%,0%);stroke-opacity:1;stroke-miterlimit:4;" d="M 70.309375 334.85625 L 70.86875 338.390625 L 69.903125 341.165625 L 67.425 343.24375 L 63.778125 344.3375 L 58.89375 344.190625 L 56.70625 343.553125 L 54.925 342.565625 L 53.81875 341.415625 L 53.290625 340.028125 L 53.4 338.63125 L 54.125 337.075 " transform="matrix(1.25,0,0,1.25,0,0)"/>
<path style="fill:none;stroke-width:1.5;stroke-linecap:square;stroke-linejoin:round;stroke:rgb(0%,0%,0%);stroke-opacity:1;stroke-miterlimit:4;" d="M 207.575 253.359375 L 208.134375 259.459375 " transform="matrix(1.25,0,0,1.25,0,0)"/>
<path style="fill:none;stroke-width:1.5;stroke-linecap:square;stroke-linejoin:round;stroke:rgb(0%,0%,0%);stroke-opacity:1;stroke-miterlimit:4;" d="M 195.3 287.734375 L 196.46875 297.79375 L 196.940625 305.246875 L 196.925 311.58125 L 196.0625 314.5 L 194.38125 316.028125 L 191.51875 317.0625 L 180.171875 317.884375 L 176.328125 318.78125 " transform="matrix(1.25,0,0,1.25,0,0)"/>
<path style="fill:none;stroke-width:1.5;stroke-linecap:square;stroke-linejoin:round;stroke:rgb(0%,0%,0%);stroke-opacity:1;stroke-miterlimit:4;" d="M 299.646875 388.08125 L 301.4125 394.38125 L 302.7 401.090625 L 303.403125 407.828125 L 303.503125 414.20625 L 303.028125 420.31875 L 301.978125 426.065625 L 300.36875 431.36875 L 298.121875 436.359375 L 295.971875 439.7875 L 293.403125 442.409375 L 289.828125 444.865625 L 284.971875 447.340625 L 280.021875 449.38125 L 274.99375 450.8125 L 270.16875 451.54375 L 265.596875 451.5875 L 261.709375 451.059375 L 258.128125 450.034375 L 254.684375 448.4625 L 251.4125 446.315625 L 248.34375 443.5625 L 245.740625 440.390625 L 244.48125 437.775 L 243.971875 434.834375 L 244.434375 430.99375 L 249.978125 411.6875 L 253.0125 396.85625 L 254.659375 391.425 L 256.078125 388.6375 L 257.73125 387.1375 L 260.184375 386.234375 L 263.934375 385.8625 " transform="matrix(1.25,0,0,1.25,0,0)"/>
<path style="fill:none;stroke-width:1.5;stroke-linecap:square;stroke-linejoin:round;stroke:rgb(0%,0%,0%);stroke-opacity:1;stroke-miterlimit:4;" d="M 164.053125 253.915625 L 161.965625 248.028125 L 161.0875 240.446875 L 161.196875 221.115625 L 159.80625 187.025 L 160.05 177.56875 L 160.85 169.2 L 162.85 157.875 L 164.1125 154.34375 L 165.728125 151.603125 L 167.928125 149.33125 L 170.85 147.571875 L 174.4 146.415625 L 178.559375 145.80625 " transform="matrix(1.25,0,0,1.25,0,0)"/>
<path style="fill:none;stroke-width:1.5;stroke-linecap:square;stroke-linejoin:round;stroke:rgb(0%,0%,0%);stroke-opacity:1;stroke-miterlimit:4;" d="M 256.121875 180.734375 L 259.23125 178.053125 L 262.41875 176.01875 L 265.296875 174.8875 L 268.059375 174.5625 L 270.6 175.10625 L 272.8125 176.55 L 274.253125 178.646875 L 275.096875 181.428125 L 275.321875 184.95625 L 274.846875 188.965625 L 273.7125 192.928125 L 272.184375 195.878125 L 269.946875 198.453125 L 267.19375 200.534375 L 263.9 202.21875 L 260.028125 203.465625 " transform="matrix(1.25,0,0,1.25,0,0)"/>
<path style="fill:none;stroke-width:1.5;stroke-linecap:square;stroke-linejoin:round;stroke:rgb(0%,0%,0%);stroke-opacity:1;stroke-miterlimit:4;" d="M 266.728125 401.30625 L 268.86875 401.284375 L 270.596875 401.890625 L 272.053125 403.190625 L 272.871875 404.896875 L 272.99375 406.896875 L 272.359375 408.66875 L 271.09375 410.015625 L 269.315625 410.828125 L 267.39375 411.025 L 265.8125 410.50625 L 264.4125 409.184375 L 263.578125 407.375 L 263.365625 405.23125 L 263.865625 403.371875 L 264.965625 402.0375 L 266.728125 401.30625 " transform="matrix(1.25,0,0,1.25,0,0)"/>
<path style="fill:none;stroke-width:1.5;stroke-linecap:square;stroke-linejoin:round;stroke:rgb(0%,0%,0%);stroke-opacity:1;stroke-miterlimit:4;" d="M 184.696875 397.765625 L 188.896875 397.64375 L 190.603125 398.13125 L 192.09375 399.015625 L 193.2875 400.30625 L 194.06875 401.875 L 194.428125 405.66875 L 193.10625 409.75 L 190.425 413.0375 L 186.76875 415.071875 L 182.659375 415.578125 L 180.075 414.725 L 178.1875 412.875 L 177.078125 410.065625 L 176.9625 406.83125 L 177.815625 403.56875 L 179.509375 400.796875 L 181.90625 398.790625 L 184.696875 397.765625 " transform="matrix(1.25,0,0,1.25,0,0)"/>
<path style="fill:none;stroke-width:1.5;stroke-linecap:square;stroke-linejoin:round;stroke:rgb(0%,0%,0%);stroke-opacity:1;stroke-miterlimit:4;" d="M 329.21875 205.68125 L 327.459375 202.86875 L 326.165625 199.7125 L 325.271875 196.078125 L 324.83125 192.2375 L 324.81875 187.840625 L 325.259375 183.428125 L 327.43125 174.684375 L 330.521875 168.2375 L 332.446875 165.778125 L 334.734375 163.678125 L 337.159375 162.15 L 339.821875 161.1375 L 342.478125 160.75 L 345.259375 160.971875 L 347.128125 161.684375 L 348.815625 162.996875 L 350.1625 164.728125 L 351.36875 167.134375 L 353.078125 173.7 L 353.765625 182.084375 L 353.315625 190.66875 L 351.7875 198.434375 L 349.31875 204.78125 L 345.959375 209.5625 " transform="matrix(1.25,0,0,1.25,0,0)"/>
<path style="fill:none;stroke-width:1.5;stroke-linecap:square;stroke-linejoin:round;stroke:rgb(0%,0%,0%);stroke-opacity:1;stroke-miterlimit:4;" d="M 164.053125 263.89375 L 170.14375 261.50625 L 178.040625 260.35 L 185.678125 260.29375 L 201.215625 261.10625 L 208.90625 261.034375 L 221.3125 260.196875 L 247.5375 257.25625 L 259.040625 256.303125 L 285.2 255.559375 L 287.878125 255.7375 L 289.978125 256.371875 L 291.796875 257.74375 L 293.415625 260.29375 L 294.353125 263.246875 L 294.81875 266.90625 L 293.871875 312.890625 L 294.065625 328.759375 " transform="matrix(1.25,0,0,1.25,0,0)"/>
<path style="fill:none;stroke-width:1.5;stroke-linecap:square;stroke-linejoin:round;stroke:rgb(0%,0%,0%);stroke-opacity:1;stroke-miterlimit:4;" d="M 264.490625 177.9625 L 269.9125 178.425 L 271.703125 179.253125 L 273.41875 180.734375 " transform="matrix(1.25,0,0,1.25,0,0)"/>
<path style="fill:none;stroke-width:1.5;stroke-linecap:square;stroke-linejoin:round;stroke:rgb(0%,0%,0%);stroke-opacity:1;stroke-miterlimit:4;" d="M 235.475 286.625 L 235.840625 296.471875 L 236.71875 304.2 L 236.234375 306.609375 L 235.4125 307.46875 L 233.9125 308.140625 L 222.43125 310.584375 L 219.25 310.71875 L 216.846875 310.265625 L 215.58125 309.4125 L 214.684375 307.659375 L 214.2 305.196875 L 214.128125 301.88125 L 215.3875 288.84375 " transform="matrix(1.25,0,0,1.25,0,0)"/>
<path style="fill:none;stroke-width:1.5;stroke-linecap:square;stroke-linejoin:round;stroke:rgb(0%,0%,0%);stroke-opacity:1;stroke-miterlimit:4;" d="M 85.93125 388.08125 L 90.70625 397.49375 L 91.25625 400.003125 L 90.93125 401.896875 L 89.0875 404.2 L 85.825 406.171875 L 81.771875 407.5875 L 77.109375 408.303125 L 70.484375 408.26875 L 63.61875 407.165625 L 57.159375 405.11875 L 51.68125 402.321875 L 49.075 399.859375 L 48.21875 397.28125 L 48.975 394.25 L 51.3375 390.853125 " transform="matrix(1.25,0,0,1.25,0,0)"/>
<path style="fill:none;stroke-width:1.5;stroke-linecap:square;stroke-linejoin:round;stroke:rgb(0%,0%,0%);stroke-opacity:1;stroke-miterlimit:4;" d="M 329.778125 207.346875 L 328.890625 210.8625 L 327.271875 213.68125 L 320.03125 220.384375 L 317.546875 223.346875 L 314.18125 231.40625 L 312.771875 233.9 L 310.3 236.425 L 306.53125 239.053125 L 299.315625 242.34375 L 290.35 244.75625 L 280.453125 246.31875 L 260.5875 248.371875 " transform="matrix(1.25,0,0,1.25,0,0)"/>
<path style="fill:none;stroke-width:1.5;stroke-linecap:square;stroke-linejoin:round;stroke:rgb(0%,0%,0%);stroke-opacity:1;stroke-miterlimit:4;" d="M 175.2125 398.059375 L 182.08125 391.528125 L 184.6625 390.053125 L 187.696875 389.125 L 191.259375 388.81875 L 194.64375 389.30625 L 197.946875 390.590625 L 201.034375 392.6875 L 203.5125 395.278125 L 205.46875 398.346875 L 206.815625 401.79375 L 207.459375 405.321875 L 207.36875 408.45625 L 206.70625 411.88125 L 203.1125 421.896875 " transform="matrix(1.25,0,0,1.25,0,0)"/>
<path style="fill:none;stroke-width:1.5;stroke-linecap:square;stroke-linejoin:round;stroke:rgb(0%,0%,0%);stroke-opacity:1;stroke-miterlimit:4;" d="M 141.175 441.85625 L 140.4125 438.609375 L 140.590625 435.53125 L 141.690625 432.584375 L 143.76875 429.559375 L 169.875 403.296875 L 175.5625 396.64375 L 180.265625 389.81875 L 182.5125 387.115625 L 185.65625 384.703125 L 189.1625 383.64375 " transform="matrix(1.25,0,0,1.25,0,0)"/>
<path style="fill:none;stroke-width:1.5;stroke-linecap:square;stroke-linejoin:round;stroke:rgb(0%,0%,0%);stroke-opacity:1;stroke-miterlimit:4;" d="M 265.609375 394.53125 L 269.71875 394.1125 L 273.26875 395.340625 L 275.95625 398.10625 L 277.428125 402.096875 L 277.3375 406.4625 L 275.74375 410.253125 L 272.878125 413.015625 L 268.865625 414.525 L 265.30625 414.375 L 262.315625 412.80625 L 260.00625 409.921875 L 258.753125 406.14375 L 258.7625 402.2625 L 260.00625 398.778125 L 262.303125 396.16875 L 265.609375 394.53125 " transform="matrix(1.25,0,0,1.25,0,0)"/>
<path style="fill:none;stroke-width:1.5;stroke-linecap:square;stroke-linejoin:round;stroke:rgb(0%,0%,0%);stroke-opacity:1;stroke-miterlimit:4;" d="M 285.696875 108.109375 L 281.375 104.640625 L 279.240625 102.234375 L 278.3875 99.90625 L 278.959375 97.746875 L 281.084375 95.615625 L 283.8875 94.5625 L 288.059375 94.278125 L 292.571875 94.928125 L 296.384375 96.296875 L 299.203125 98.25625 L 300.65625 100.54375 L 300.728125 103.14375 L 299.4375 105.796875 L 297.284375 107.434375 L 294.903125 107.896875 L 288.246875 107.83125 L 286.5375 108.35 L 285.215625 109.284375 L 273.60625 127.38125 L 270.071875 134.165625 " transform="matrix(1.25,0,0,1.25,0,0)"/>
<path style="fill:none;stroke-width:1.5;stroke-linecap:square;stroke-linejoin:round;stroke:rgb(0%,0%,0%);stroke-opacity:1;stroke-miterlimit:4;" d="M 303.553125 409.146875 L 311.921875 442.965625 " transform="matrix(1.25,0,0,1.25,0,0)"/>
<path style="fill:none;stroke-width:1.5;stroke-linecap:square;stroke-linejoin:round;stroke:rgb(0%,0%,0%);stroke-opacity:1;stroke-miterlimit:4;" d="M 195.859375 310.4625 L 215.946875 308.8 " transform="matrix(1.25,0,0,1.25,0,0)"/>
<path style="fill:none;stroke-width:1.5;stroke-linecap:square;stroke-linejoin:round;stroke:rgb(0%,0%,0%);stroke-opacity:1;stroke-miterlimit:4;" d="M 319.734375 257.796875 L 321.409375 260.0125 " transform="matrix(1.25,0,0,1.25,0,0)"/>
<path style="fill:none;stroke-width:1.5;stroke-linecap:square;stroke-linejoin:round;stroke:rgb(0%,0%,0%);stroke-opacity:1;stroke-miterlimit:4;" d="M 43.525 373.665625 L 38.01875 378.590625 L 36.84375 380.31875 L 36.18125 382.1375 L 35.89375 387.69375 L 37.3875 397.50625 " transform="matrix(1.25,0,0,1.25,0,0)"/>
<path style="fill:none;stroke-width:1.5;stroke-linecap:square;stroke-linejoin:round;stroke:rgb(0%,0%,0%);stroke-opacity:1;stroke-miterlimit:4;" d="M 350.425 206.2375 L 354.33125 221.759375 " transform="matrix(1.25,0,0,1.25,0,0)"/>
<path style="fill:none;stroke-width:1.5;stroke-linecap:square;stroke-linejoin:round;stroke:rgb(0%,0%,0%);stroke-opacity:1;stroke-miterlimit:4;" d="M 71.98125 238.946875 L 91.68125 247.265625 L 94.021875 248.56875 L 95.521875 250.165625 L 96.05 251.9125 L 95.725 253.85 L 94.51875 255.575 L 92.56875 256.9875 L 89.8375 258.078125 L 86.890625 258.590625 L 83.753125 258.590625 L 80.83125 258.096875 L 78.08125 257.1 L 75.828125 255.70625 L 73.996875 253.834375 L 72.025 249.634375 L 71.103125 243.859375 L 70.990625 233.6625 L 72.078125 224.890625 L 73.9125 218.228125 L 76.553125 212.496875 L 79.815625 208.11875 L 83.815625 204.975 L 88.359375 203.28125 L 93.53125 203.0125 L 98.853125 204.1375 L 104.346875 206.790625 " transform="matrix(1.25,0,0,1.25,0,0)"/>
<path style="fill:none;stroke-width:1.5;stroke-linecap:square;stroke-linejoin:round;stroke:rgb(0%,0%,0%);stroke-opacity:1;stroke-miterlimit:4;" d="M 79.2375 316.5625 L 74.278125 319.675 L 68.075 321.553125 " transform="matrix(1.25,0,0,1.25,0,0)"/>
<path style="fill:none;stroke-width:1.5;stroke-linecap:square;stroke-linejoin:round;stroke:rgb(0%,0%,0%);stroke-opacity:1;stroke-miterlimit:4;" d="M 159.5875 271.65625 L 162.73125 269.453125 L 166.528125 267.690625 L 170.784375 266.4875 L 175.875 265.75 L 182.3875 265.471875 L 216.053125 265.5 L 232.215625 265.04375 L 245.96875 264.09375 L 266.584375 261.578125 L 274.746875 261.0875 L 281.140625 261.49375 L 283.321875 262.125 L 284.89375 263.003125 L 286.146875 264.290625 L 286.903125 265.796875 L 287.671875 270.659375 L 287.2875 275.490625 L 285.996875 281.53125 L 280.996875 296.409375 L 276.85625 311.23125 L 275.328125 314.446875 L 273.61875 316.79375 L 270.865625 319.271875 L 267.64375 321.365625 L 261.228125 323.903125 L 253.303125 325.35625 L 206.134375 328.865625 L 182.5 331.13125 L 176.8875 332.85 L 166.0125 339.1875 L 163.0375 340.1125 L 160.146875 340.403125 " transform="matrix(1.25,0,0,1.25,0,0)"/>
<path style="fill:none;stroke-width:1.5;stroke-linecap:square;stroke-linejoin:round;stroke:rgb(0%,0%,0%);stroke-opacity:1;stroke-miterlimit:4;" d="M 140.059375 435.759375 L 136.809375 440.69375 L 134.628125 445.5 L 133.703125 449.8375 L 134.06875 453.346875 L 135.653125 456.203125 L 138.58125 458.54375 L 142.728125 460.20625 L 147.7 461.109375 L 153.1 461.234375 L 167.1625 459.990625 L 179.296875 458.38125 L 190.99375 456.290625 L 201.2625 453.953125 L 211.128125 451.1875 L 220.3125 448.06875 L 228.78125 444.628125 " transform="matrix(1.25,0,0,1.25,0,0)"/>
<path style="fill:none;stroke-width:1.5;stroke-linecap:square;stroke-linejoin:round;stroke:rgb(0%,0%,0%);stroke-opacity:1;stroke-miterlimit:4;" d="M 156.796875 107.796875 L 161.621875 107.796875 L 166.29375 109.075 L 169.25 111.25 L 169.990625 112.5375 L 170.29375 114.040625 L 169.828125 116.525 L 168.3875 118.909375 L 166.834375 120.121875 L 162.234375 122.621875 L 159.125 126.3125 L 157.6875 127.01875 L 156.1875 126.296875 L 153.5125 122.91875 L 147.18125 119.9 L 145.746875 118.090625 L 145.190625 116.084375 L 145.959375 113.55 L 148.346875 111.19375 L 152.309375 109.096875 L 156.796875 107.796875 " transform="matrix(1.25,0,0,1.25,0,0)"/>
<path style="fill:none;stroke-width:1.5;stroke-linecap:square;stroke-linejoin:round;stroke:rgb(0%,0%,0%);stroke-opacity:1;stroke-miterlimit:4;" d="M 161.2625 123.63125 L 177.44375 144.14375 " transform="matrix(1.25,0,0,1.25,0,0)"/>
<path style="fill:none;stroke-width:1.5;stroke-linecap:square;stroke-linejoin:round;stroke:rgb(0%,0%,0%);stroke-opacity:1;stroke-miterlimit:4;" d="M 287.36875 266.1125 L 288.040625 271.6125 L 288.11875 277.59375 L 286.2375 298.98125 L 286.06875 307.1875 L 286.55625 312.534375 L 289.028125 322.140625 L 289.66875 326.6 L 289.325 328.809375 L 287.978125 330.14375 L 285.365625 330.875 L 277.503125 331.190625 L 260.465625 333.1875 L 255.475 332.903125 L 243.596875 331.1125 L 237.946875 331.09375 L 229.8375 332.253125 L 207.19375 336.965625 L 199.459375 337.675 L 185.0375 338.29375 L 171.5125 339.953125 L 167.809375 339.896875 L 164.5125 339.29375 L 161.834375 338.171875 L 159.5875 336.521875 " transform="matrix(1.25,0,0,1.25,0,0)"/>
<path style="fill:none;stroke-width:1.5;stroke-linecap:square;stroke-linejoin:round;stroke:rgb(0%,0%,0%);stroke-opacity:1;stroke-miterlimit:4;" d="M 107.69375 209.009375 L 127.225 210.671875 " transform="matrix(1.25,0,0,1.25,0,0)"/>
<path style="fill:none;stroke-width:1.5;stroke-linecap:square;stroke-linejoin:round;stroke:rgb(0%,0%,0%);stroke-opacity:1;stroke-miterlimit:4;" d="M 55.8 406.375 L 53.746875 412.6875 L 48.06875 424.85 L 46.153125 429.965625 L 45.053125 435.4 L 45 441.20625 L 43.8875 446.028125 L 44.13125 447.19375 L 45.115625 448.315625 L 49.109375 450.121875 L 53.7375 450.6 L 55.04375 450.140625 L 55.64375 449.2625 L 55.221875 447.340625 L 52.703125 443.03125 L 52.4625 441.384375 L 52.9 437.809375 L 55.1875 429.3625 L 55.403125 425.75625 L 54.478125 422.959375 L 52.453125 420.790625 " transform="matrix(1.25,0,0,1.25,0,0)"/>
<path style="fill:none;stroke-width:1.5;stroke-linecap:square;stroke-linejoin:round;stroke:rgb(0%,0%,0%);stroke-opacity:1;stroke-miterlimit:4;" d="M 138.953125 192.796875 L 141.19375 192.278125 L 143.178125 192.571875 L 144.54375 193.7 L 145.13125 195.3875 L 144.896875 197.475 L 143.778125 199.509375 L 141.921875 201.0625 L 139.8125 201.815625 L 138.55625 201.63125 L 137.56875 200.925 L 136.803125 199.6875 L 136.3875 197.99375 L 136.45 196.19375 L 136.94375 194.665625 L 137.7625 193.54375 L 138.953125 192.796875 " transform="matrix(1.25,0,0,1.25,0,0)"/>
<path style="fill:none;stroke-width:1.5;stroke-linecap:square;stroke-linejoin:round;stroke:rgb(0%,0%,0%);stroke-opacity:1;stroke-miterlimit:4;" d="M 209.25 254.46875 L 239.640625 250.4 L 255.425 248.646875 L 270.84375 247.60625 L 284.85625 247.49375 L 302.2875 248.58125 L 316.05 250.31875 L 317.721875 251.090625 L 318.6625 252.325 L 318.9375 254.140625 L 318.61875 257.240625 " transform="matrix(1.25,0,0,1.25,0,0)"/>
<path style="fill:none;stroke-width:1.5;stroke-linecap:square;stroke-linejoin:round;stroke:rgb(0%,0%,0%);stroke-opacity:1;stroke-miterlimit:4;" d="M 130.0125 291.615625 L 129.14375 288.64375 L 128.85 286.228125 L 129.075 284.334375 L 129.809375 282.93125 L 131.775 281.81875 L 136.103125 281.890625 L 139.68125 279.765625 L 140.8375 280.01875 L 141.553125 280.946875 L 141.271875 286.5375 L 141.65625 287.559375 L 142.590625 288.31875 L 144.00625 288.671875 L 145.8375 288.58125 L 153.45 286.625 " transform="matrix(1.25,0,0,1.25,0,0)"/>
<path style="fill:none;stroke-width:1.5;stroke-linecap:square;stroke-linejoin:round;stroke:rgb(0%,0%,0%);stroke-opacity:1;stroke-miterlimit:4;" d="M 45.75625 318.225 L 46.328125 307.56875 L 47.6875 303.284375 L 49.00625 301.240625 L 50.828125 299.29375 L 58.984375 293.1 L 61.6875 287.953125 L 62.75625 286.5875 L 63.715625 286.03125 L 64.65625 286.021875 L 66.559375 287.40625 L 68.678125 290.940625 L 70.309375 295.49375 " transform="matrix(1.25,0,0,1.25,0,0)"/>
<path style="fill:none;stroke-width:1.5;stroke-linecap:square;stroke-linejoin:round;stroke:rgb(0%,0%,0%);stroke-opacity:1;stroke-miterlimit:4;" d="M 103.7875 328.759375 L 101.23125 335.1875 L 98.23125 339.09375 L 96.346875 340.446875 L 94.084375 341.478125 L 88.1625 342.61875 " transform="matrix(1.25,0,0,1.25,0,0)"/>
<path style="fill:none;stroke-width:1.5;stroke-linecap:square;stroke-linejoin:round;stroke:rgb(0%,0%,0%);stroke-opacity:1;stroke-miterlimit:4;" d="M 103.23125 332.084375 L 104.46875 334.928125 L 104.8125 338.428125 L 104.228125 341.703125 L 102.809375 344.240625 L 101.34375 345.41875 L 98.79375 346.453125 L 89.28125 348.1625 " transform="matrix(1.25,0,0,1.25,0,0)"/>
<path style="fill:none;stroke-width:1.5;stroke-linecap:square;stroke-linejoin:round;stroke:rgb(0%,0%,0%);stroke-opacity:1;stroke-miterlimit:4;" d="M 295.18125 134.71875 L 297.7 136.6375 L 299.721875 139.61875 L 301.14375 143.6625 L 301.93125 148.615625 L 302.153125 154.5625 L 301.85625 162.765625 L 299.9625 182.903125 L 299.646875 191.26875 L 300.153125 196.38125 L 302.7 209.29375 L 302.73125 215.634375 L 301.39375 220.103125 L 298.859375 225.24375 L 294.85625 231.596875 L 289.871875 238.38125 L 287.053125 241.153125 L 284.00625 243.3 L 280.371875 245.075 L 276.309375 246.390625 L 267.771875 247.95625 L 245.321875 250.6 L 221.25625 252.690625 L 192.259375 254.546875 L 177.45625 256.4125 L 169.865625 256.253125 L 167 255.56875 L 164.503125 254.38125 L 162.840625 253.015625 L 161.584375 251.346875 L 159.815625 246.725 L 159.065625 242.065625 L 157.66875 226.059375 L 156.875 206.909375 L 157.35625 170.75625 " transform="matrix(1.25,0,0,1.25,0,0)"/>
<path style="fill:none;stroke-width:1.5;stroke-linecap:square;stroke-linejoin:round;stroke:rgb(0%,0%,0%);stroke-opacity:1;stroke-miterlimit:4;" d="M 365.490625 208.453125 L 365.553125 203.909375 L 365.971875 200.953125 L 366.834375 198.5125 L 368.353125 196.121875 L 370.6625 193.7875 L 373.546875 191.971875 L 376.5375 190.953125 L 379.634375 190.684375 L 382.1625 191.078125 L 384.415625 191.978125 L 386.509375 193.425 L 388.3875 195.44375 L 391.85 201.49375 L 394.571875 209.846875 L 396.134375 218.40625 L 396.80625 227.284375 L 396.6 233.628125 L 395.175 237.50625 L 393.390625 239.934375 L 391.1 242.0625 L 388.28125 243.90625 L 385.203125 245.246875 L 382.1875 245.978125 L 379.209375 246.10625 L 376.546875 245.60625 L 374.278125 244.53125 L 371.90625 242.275 L 370.425 239.296875 L 370.796875 237.446875 L 372.6375 235.546875 L 378.0625 232.596875 L 384.046875 230.33125 L 390.3125 228.8875 L 396.18125 228.4125 " transform="matrix(1.25,0,0,1.25,0,0)"/>
<path style="fill:none;stroke-width:1.5;stroke-linecap:square;stroke-linejoin:round;stroke:rgb(0%,0%,0%);stroke-opacity:1;stroke-miterlimit:4;" d="M 326.9875 183.50625 L 355.446875 180.734375 " transform="matrix(1.25,0,0,1.25,0,0)"/>
<path style="fill:none;stroke-width:1.5;stroke-linecap:square;stroke-linejoin:round;stroke:rgb(0%,0%,0%);stroke-opacity:1;stroke-miterlimit:4;" d="M 294.625 332.084375 L 291.771875 333.896875 L 288.328125 335.2625 L 284.34375 336.2 L 279.45 336.78125 L 235.075 338.05625 L 213.4625 339.08125 L 195.778125 340.646875 L 179.35625 343.159375 L 173.184375 343.75 L 166.690625 343.465625 L 161.953125 341.975 L 160.0625 340.66875 L 158.684375 339.05 L 157.915625 337.165625 L 157.578125 334.784375 L 159.075 319.340625 L 158.546875 273.371875 L 159.20625 269.009375 L 160.65625 265.96875 L 162.975 263.928125 L 166.284375 262.784375 " transform="matrix(1.25,0,0,1.25,0,0)"/>
<path style="fill:none;stroke-width:1.5;stroke-linecap:square;stroke-linejoin:round;stroke:rgb(0%,0%,0%);stroke-opacity:1;stroke-miterlimit:4;" d="M 64.728125 408.0375 L 55.8 423.00625 " transform="matrix(1.25,0,0,1.25,0,0)"/>
<path style="fill:none;stroke-width:1.5;stroke-linecap:square;stroke-linejoin:round;stroke:rgb(0%,0%,0%);stroke-opacity:1;stroke-miterlimit:4;" d="M 199.7625 188.496875 L 203.1125 189.05 " transform="matrix(1.25,0,0,1.25,0,0)"/>
<path style="fill:none;stroke-width:1.5;stroke-linecap:square;stroke-linejoin:round;stroke:rgb(0%,0%,0%);stroke-opacity:1;stroke-miterlimit:4;" d="M 314.7125 301.59375 L 315.078125 306.121875 L 316.25625 310.815625 L 324.109375 328.4375 L 324.753125 330.525 L 324.85625 332.25625 L 324.415625 333.525 L 323.334375 334.40625 L 321.9 334.68125 L 320.0125 334.384375 L 316.69375 332.384375 L 313.6625 328.809375 L 311.01875 323.721875 L 308.778125 317.496875 L 307.23125 310.95 L 306.328125 303.98125 L 306.10625 296.921875 L 306.525 289.903125 L 307.559375 283.053125 L 309.228125 276.315625 L 311.071875 271.259375 L 313.34375 267.0875 L 316.075 263.8625 L 319.175 261.678125 " transform="matrix(1.25,0,0,1.25,0,0)"/>
<path style="fill:none;stroke-width:1.5;stroke-linecap:square;stroke-linejoin:round;stroke:rgb(0%,0%,0%);stroke-opacity:1;stroke-miterlimit:4;" d="M 184.140625 402.353125 L 186.353125 401.9625 L 188.284375 402.525 L 189.778125 403.965625 L 190.646875 406.103125 L 190.703125 408.46875 L 189.86875 410.678125 L 188.353125 412.16875 L 186.25625 412.96875 L 184.234375 412.996875 L 182.4375 412.2625 L 181.028125 410.825 L 180.215625 408.81875 L 180.19375 406.753125 L 180.9 404.8875 L 182.25 403.390625 L 184.140625 402.353125 " transform="matrix(1.25,0,0,1.25,0,0)"/>
<path style="fill:none;stroke-width:1.5;stroke-linecap:square;stroke-linejoin:round;stroke:rgb(0%,0%,0%);stroke-opacity:1;stroke-miterlimit:4;" d="M 57.475 312.128125 L 60.55625 311.2625 L 63.6125 312.128125 " transform="matrix(1.25,0,0,1.25,0,0)"/>
<path style="fill:none;stroke-width:1.5;stroke-linecap:square;stroke-linejoin:round;stroke:rgb(0%,0%,0%);stroke-opacity:1;stroke-miterlimit:4;" d="M 73.65625 334.85625 L 80.034375 333.65625 L 83.8125 333.63125 L 85.965625 334.6375 L 87.103125 337.175 L 87.328125 339.996875 L 87.0125 357.084375 L 84.90625 375.978125 L 84.596875 384.0875 L 83.7 388.08125 " transform="matrix(1.25,0,0,1.25,0,0)"/>
<path style="fill:none;stroke-width:1.5;stroke-linecap:square;stroke-linejoin:round;stroke:rgb(0%,0%,0%);stroke-opacity:1;stroke-miterlimit:4;" d="M 286.99375 99.80625 L 288.359375 99.353125 L 289.94375 99.709375 L 291.021875 100.83125 L 290.953125 102.01875 L 289.225 103.234375 L 287.109375 102.884375 L 286.28125 102.13125 L 286.009375 101.3 L 286.2375 100.540625 L 286.99375 99.80625 " transform="matrix(1.25,0,0,1.25,0,0)"/>
<path style="fill:none;stroke-width:1.5;stroke-linecap:square;stroke-linejoin:round;stroke:rgb(0%,0%,0%);stroke-opacity:1;stroke-miterlimit:4;" d="M 309.13125 103.11875 L 307.775 109.58125 L 304.75 116.53125 L 300.19375 123.975 L 292.390625 134.71875 " transform="matrix(1.25,0,0,1.25,0,0)"/>
<path style="fill:none;stroke-width:1.5;stroke-linecap:square;stroke-linejoin:round;stroke:rgb(0%,0%,0%);stroke-opacity:1;stroke-miterlimit:4;" d="M 113.275 218.9875 L 112.4 231.646875 L 112.6625 235.815625 L 113.575 241.021875 L 113.4625 242.984375 L 112.565625 244.3125 L 111.009375 244.6625 L 109.215625 244.090625 L 106.01875 242.271875 " transform="matrix(1.25,0,0,1.25,0,0)"/>
<path style="fill:none;stroke-width:1.5;stroke-linecap:square;stroke-linejoin:round;stroke:rgb(0%,0%,0%);stroke-opacity:1;stroke-miterlimit:4;" d="M 319.734375 253.359375 L 318.440625 258.08125 L 290.71875 255.578125 " transform="matrix(1.25,0,0,1.25,0,0)"/>
<path style="fill:none;stroke-width:1.5;stroke-linecap:square;stroke-linejoin:round;stroke:rgb(0%,0%,0%);stroke-opacity:1;stroke-miterlimit:4;" d="M 104.903125 313.790625 L 102.89375 312.540625 L 102.3625 310.884375 L 103.309375 308.909375 L 105.5375 307.0375 L 108.596875 305.725 L 111.4 305.4875 L 113.5125 306.34375 L 114.25 308.046875 L 113.803125 309.453125 L 112.765625 310.50625 L 107.215625 312.590625 L 105.73125 313.828125 L 105.575 315.40625 L 107.084375 319.171875 L 107.184375 320.721875 L 106.459375 322.865625 L 104.346875 325.9875 " transform="matrix(1.25,0,0,1.25,0,0)"/>
<path style="fill:none;stroke-width:1.5;stroke-linecap:square;stroke-linejoin:round;stroke:rgb(0%,0%,0%);stroke-opacity:1;stroke-miterlimit:4;" d="M 345.959375 160.221875 L 348.646875 158.68125 L 351.303125 158.196875 L 354.18125 158.74375 L 356.80625 160.25 L 359.059375 162.49375 L 360.915625 165.44375 L 362.165625 168.85625 L 363.240625 173.478125 L 364.303125 183.80625 L 364.378125 199.99375 L 364.975 208.340625 L 364.828125 212.128125 L 364.346875 213.64375 L 363.33125 214.90625 L 357.946875 218.140625 L 356.353125 219.75625 L 355.89375 221.121875 L 356.003125 222.86875 L 359.353125 221.759375 L 356.5625 218.9875 " transform="matrix(1.25,0,0,1.25,0,0)"/>
<path style="fill:none;stroke-width:1.5;stroke-linecap:square;stroke-linejoin:round;stroke:rgb(0%,0%,0%);stroke-opacity:1;stroke-miterlimit:4;" d="M 364.93125 215.6625 L 363.815625 218.9875 L 361.025 216.215625 " transform="matrix(1.25,0,0,1.25,0,0)"/>
<path style="fill:none;stroke-width:1.5;stroke-linecap:square;stroke-linejoin:round;stroke:rgb(0%,0%,0%);stroke-opacity:1;stroke-miterlimit:4;" d="M 363.815625 219.54375 L 359.353125 221.759375 " transform="matrix(1.25,0,0,1.25,0,0)"/>
<path style="fill:none;stroke-width:1.5;stroke-linecap:square;stroke-linejoin:round;stroke:rgb(0%,0%,0%);stroke-opacity:1;stroke-miterlimit:4;" d="M 199.20625 180.421875 L 202.75 180.2 L 206 180.725 L 208.675 181.959375 L 210.7375 183.834375 L 212.20625 186.434375 L 212.871875 189.39375 L 212.79375 192.775 L 211.996875 196.315625 L 210.415625 200.140625 L 208.30625 203.559375 L 205.678125 206.61875 L 202.590625 209.171875 L 199.3 210.984375 L 195.921875 212.040625 L 192.51875 212.34375 L 189.265625 211.81875 L 187.1 210.89375 L 185.1 209.4625 L 183.475 207.64375 L 182.175 205.340625 L 181.359375 202.75625 L 181.065625 200.1625 L 181.24375 197.4625 L 181.871875 194.86875 L 184.4625 189.546875 L 188.353125 185.26875 L 193.475 182.1 L 199.20625 180.421875 " transform="matrix(1.25,0,0,1.25,0,0)"/>
<path style="fill:none;stroke-width:1.5;stroke-linecap:square;stroke-linejoin:round;stroke:rgb(0%,0%,0%);stroke-opacity:1;stroke-miterlimit:4;" d="M 267.8625 372.01875 L 270.659375 371.21875 L 273.70625 371.475 L 276.890625 372.8125 L 279.584375 374.971875 L 281.4 377.53125 L 282.184375 380.325 L 281.771875 382.84375 L 280.196875 385.046875 L 277.03125 386.98125 L 273.625 387.425 L 270.11875 386.4 L 266.9375 383.99375 L 264.753125 380.63125 L 264.15625 377.121875 L 265.203125 374.23125 L 267.8625 372.01875 " transform="matrix(1.25,0,0,1.25,0,0)"/>
<path style="fill:none;stroke-width:1.5;stroke-linecap:square;stroke-linejoin:round;stroke:rgb(0%,0%,0%);stroke-opacity:1;stroke-miterlimit:4;" d="M 139.5 437.421875 L 137.459375 442.540625 L 136.5625 446.24375 L 136.496875 449.90625 L 137.26875 453.5 " transform="matrix(1.25,0,0,1.25,0,0)"/>
<path style="fill:none;stroke-width:1.5;stroke-linecap:square;stroke-linejoin:round;stroke:rgb(0%,0%,0%);stroke-opacity:1;stroke-miterlimit:4;" d="M 191.39375 188.496875 L 197.290625 184.75625 L 199.44375 184.025 L 201.73125 183.765625 L 203.8 184.09375 L 205.475 185.040625 L 206.521875 186.496875 L 206.946875 188.540625 L 206.603125 191.265625 L 205.384375 195.109375 L 203.753125 198.659375 L 201.66875 202.084375 L 199.478125 204.865625 L 197.0125 207.253125 L 194.478125 209.00625 L 191.953125 210.11875 " transform="matrix(1.25,0,0,1.25,0,0)"/>
<path style="fill:none;stroke-width:1.5;stroke-linecap:square;stroke-linejoin:round;stroke:rgb(0%,0%,0%);stroke-opacity:1;stroke-miterlimit:4;" d="M 250.540625 183.50625 L 255.596875 178.965625 L 259.840625 175.821875 L 263.66875 174.23125 L 267.44375 173.734375 L 270.96875 174.509375 L 273.34375 176.5625 L 274.453125 179.878125 L 274.15 184.146875 L 272.315625 189.378125 L 269.209375 194.71875 L 265.284375 199.384375 L 261.053125 202.76875 L 257.14375 204.54375 L 253.33125 204.91875 L 249.746875 203.784375 L 246.6375 201.246875 " transform="matrix(1.25,0,0,1.25,0,0)"/>
<path style="fill:none;stroke-width:1.5;stroke-linecap:square;stroke-linejoin:round;stroke:rgb(0%,0%,0%);stroke-opacity:1;stroke-miterlimit:4;" d="M 156.8 112.30625 L 159.090625 112.025 L 160.834375 112.575 L 161.70625 113.809375 L 161.371875 115.321875 L 160.153125 116.44375 L 158.271875 117.225 L 156.49375 117.371875 L 155.14375 116.90625 L 154.171875 115.696875 L 154.19375 114.31875 L 155.11875 113.11875 L 156.8 112.30625 " transform="matrix(1.25,0,0,1.25,0,0)"/>
<path style="fill:none;stroke-width:1.5;stroke-linecap:square;stroke-linejoin:round;stroke:rgb(0%,0%,0%);stroke-opacity:1;stroke-miterlimit:4;" d="M 44.640625 330.421875 L 42.734375 331.65 L 40.55625 332.43125 L 38.3375 332.675 L 36.125 332.43125 L 33.978125 331.7375 L 31.7875 330.540625 L 29.8125 328.93125 L 28.115625 326.96875 L 26.25625 323.45 L 23.6625 314.740625 L 19.58125 307.653125 L 18.49375 304.921875 L 18.20625 302.88125 L 18.425 300.63125 L 19.153125 298.36875 L 20.24375 296.478125 L 22.95625 294.165625 L 28.825 291.4875 L 37.546875 286.3875 L 42.653125 283.86875 L 49.490625 281.759375 L 56.915625 281.08125 L 60.7125 281.353125 L 64.11875 282.178125 L 67.015625 283.565625 L 69.184375 285.403125 L 70.634375 287.609375 L 71.425 290.2875 L 71.503125 293.23125 L 70.865625 296.603125 " transform="matrix(1.25,0,0,1.25,0,0)"/>
<path style="fill:none;stroke-width:1.5;stroke-linecap:square;stroke-linejoin:round;stroke:rgb(0%,0%,0%);stroke-opacity:1;stroke-miterlimit:4;" d="M 194.184375 353.096875 L 197.734375 352.4375 L 201.121875 353.1375 L 204.2125 355.146875 L 206.53125 358.184375 L 207.678125 361.73125 L 207.4625 365.0625 L 205.91875 367.959375 L 203.203125 370.078125 L 199.584375 371.228125 L 195.8375 370.79375 L 192.4125 368.75 L 189.859375 365.459375 L 188.6625 361.578125 L 189.059375 357.971875 L 190.959375 355.065625 L 194.184375 353.096875 " transform="matrix(1.25,0,0,1.25,0,0)"/>
<path style="fill:none;stroke-width:1.5;stroke-linecap:square;stroke-linejoin:round;stroke:rgb(0%,0%,0%);stroke-opacity:1;stroke-miterlimit:4;" d="M 193.625 374.775 L 192.765625 377.759375 L 193.009375 380.821875 L 194.38125 383.040625 L 196.559375 383.996875 L 199.653125 383.628125 L 202.496875 382.165625 L 204.690625 379.825 L 206.459375 376.4375 " transform="matrix(1.25,0,0,1.25,0,0)"/>
<path style="fill:none;stroke-width:1.5;stroke-linecap:square;stroke-linejoin:round;stroke:rgb(0%,0%,0%);stroke-opacity:1;stroke-miterlimit:4;" d="M 204.7875 350.934375 L 195.246875 351.2875 L 174.05625 352.965625 L 164.81875 353.146875 L 161.43125 352.734375 L 158.665625 351.834375 L 156.41875 350.365625 L 154.8625 348.428125 L 153.875 345.478125 L 153.58125 341.809375 L 155.396875 325.859375 L 155.95 315.978125 L 155.31875 275.346875 L 155.709375 272.565625 L 156.55 270.340625 L 157.853125 268.740625 L 159.5875 267.775 " transform="matrix(1.25,0,0,1.25,0,0)"/>
<path style="fill:none;stroke-width:1.5;stroke-linecap:square;stroke-linejoin:round;stroke:rgb(0%,0%,0%);stroke-opacity:1;stroke-miterlimit:4;" d="M 220.409375 139.153125 L 212.00625 123.2 L 207.615625 115.809375 L 206.828125 113.828125 L 206.628125 112.228125 L 206.928125 110.759375 L 207.7125 109.31875 L 210.7875 106.48125 L 215.584375 104.071875 L 221.075 102.609375 L 225.428125 102.29375 L 229.059375 102.846875 L 231.575 104.1625 L 233.159375 106.3125 L 234.278125 110.653125 L 237.15 136.38125 " transform="matrix(1.25,0,0,1.25,0,0)"/>
<path style="fill:none;stroke-width:1.5;stroke-linecap:square;stroke-linejoin:round;stroke:rgb(0%,0%,0%);stroke-opacity:1;stroke-miterlimit:4;" d="M 157.35625 170.2 L 157.59375 165.4875 L 158.28125 161.396875 L 159.40625 157.9 L 161.0375 154.834375 L 163.1125 152.38125 L 165.56875 150.45625 L 168.7125 148.81875 L 172.5375 147.53125 L 182.703125 145.7625 L 209.04375 143.5875 L 268.025 136.240625 L 282.146875 134.871875 L 291.453125 134.5875 L 299.796875 135.190625 L 306.6875 136.671875 L 312.440625 139.115625 L 316.740625 142.43125 L 320.13125 147.20625 L 323.115625 153.965625 L 325.61875 162.6625 L 327.546875 172.971875 " transform="matrix(1.25,0,0,1.25,0,0)"/>
<path style="fill:none;stroke-width:1.5;stroke-linecap:square;stroke-linejoin:round;stroke:rgb(0%,0%,0%);stroke-opacity:1;stroke-miterlimit:4;" d="M 285.696875 386.971875 L 288.415625 387.51875 L 290.48125 388.896875 L 291.875 391.08125 L 292.70625 394.3625 L 294.14375 426.39375 L 293.86875 434.4875 L 292.95 441.303125 " transform="matrix(1.25,0,0,1.25,0,0)"/>
<path style="fill:none;stroke-width:1.5;stroke-linecap:square;stroke-linejoin:round;stroke:rgb(0%,0%,0%);stroke-opacity:1;stroke-miterlimit:4;" d="M 318.61875 261.121875 L 321.771875 261.75625 L 328.45 264.43125 L 331.978125 264.996875 L 337.84375 264.45 L 343.803125 262.30625 L 348.371875 259.259375 L 352.053125 255.2375 L 354.51875 251.15625 L 359.35625 241.053125 L 362.4375 236.44375 L 363.425 235.68125 L 364.653125 235.353125 L 367.721875 236.175 " transform="matrix(1.25,0,0,1.25,0,0)"/>
<path style="fill:none;stroke-width:1.5;stroke-linecap:square;stroke-linejoin:round;stroke:rgb(0%,0%,0%);stroke-opacity:1;stroke-miterlimit:4;" d="M 89.28125 406.928125 L 89.8375 420.790625 " transform="matrix(1.25,0,0,1.25,0,0)"/>
<path style="fill:none;stroke-width:1.5;stroke-linecap:square;stroke-linejoin:round;stroke:rgb(0%,0%,0%);stroke-opacity:1;stroke-miterlimit:4;" d="M 155.68125 228.4125 L 153.6375 230.534375 L 151.571875 232.025 L 149.503125 232.93125 L 147.29375 233.30625 L 145.121875 233.11875 L 142.865625 232.3625 L 140.565625 231 L 138.4125 229.15 L 134.459375 224.01875 L 131.525 217.65 L 129.728125 210.215625 L 129.096875 201.825 L 129.625 193.803125 L 131.2375 185.946875 L 133.753125 179.190625 L 136.909375 174.353125 L 138.96875 172.315625 L 141.090625 170.809375 L 143.375 169.721875 L 145.803125 169.090625 L 148.353125 168.95 L 150.803125 169.284375 L 155.68125 171.309375 " transform="matrix(1.25,0,0,1.25,0,0)"/>
<path style="fill:none;stroke-width:1.5;stroke-linecap:square;stroke-linejoin:round;stroke:rgb(0%,0%,0%);stroke-opacity:1;stroke-miterlimit:4;" d="M 83.7 409.146875 L 83.959375 416.3125 L 85.01875 420.7375 L 86.396875 422.578125 L 90.253125 424.3 L 91.3125 426.596875 L 91.465625 430.284375 L 90.36875 438.10625 L 90.684375 441.434375 L 91.740625 443.10625 L 95.96875 447.534375 L 96.875 449.45625 L 96.55 450.66875 L 95.428125 451.509375 L 93.778125 451.815625 L 91.5625 451.6375 L 88.71875 450.8875 L 85.8 449.634375 L 83.640625 448.2625 L 82.409375 446.8875 L 81.33125 442.353125 L 81.396875 436.565625 L 82.6125 429.75625 L 84.815625 423.00625 " transform="matrix(1.25,0,0,1.25,0,0)"/>
<path style="fill:none;stroke-width:1.5;stroke-linecap:square;stroke-linejoin:round;stroke:rgb(0%,0%,0%);stroke-opacity:1;stroke-miterlimit:4;" d="M 116.0625 187.70625 L 119.315625 187.6 L 122.196875 188.734375 L 124.478125 191.0625 L 126.225 194.5875 L 127.75 201.228125 L 128.375 210.515625 L 129.121875 215.946875 L 128.809375 218.50625 L 127.525 219.78125 L 125.10625 220.04375 L 122.06875 219.775 L 109.765625 217.0625 L 107.696875 216.109375 L 106.75 214.64375 L 106.403125 211.909375 L 106.7375 203.3 L 107.28125 199.05625 L 108.209375 195.490625 L 109.596875 192.446875 L 111.325 190.20625 L 113.425 188.6375 L 116.0625 187.70625 " transform="matrix(1.25,0,0,1.25,0,0)"/>
<path style="fill:none;stroke-width:1.5;stroke-linecap:square;stroke-linejoin:round;stroke:rgb(0%,0%,0%);stroke-opacity:1;stroke-miterlimit:4;" d="M 194.184375 188.496875 L 197.1375 186.628125 L 199.675 185.63125 L 201.50625 185.575 L 202.75625 186.396875 L 203.409375 188.05 L 203.50625 190.55625 L 201.996875 198.475 " transform="matrix(1.25,0,0,1.25,0,0)"/>
<path style="fill:none;stroke-width:1.5;stroke-linecap:square;stroke-linejoin:round;stroke:rgb(0%,0%,0%);stroke-opacity:1;stroke-miterlimit:4;" d="M 242.171875 286.071875 L 240.79375 289.96875 L 239.90625 294.425 L 239.38125 306.584375 " transform="matrix(1.25,0,0,1.25,0,0)"/>
<path style="fill:none;stroke-width:1.5;stroke-linecap:square;stroke-linejoin:round;stroke:rgb(0%,0%,0%);stroke-opacity:1;stroke-miterlimit:4;" d="M 324.196875 336.521875 L 324.440625 339.48125 L 324.103125 342.190625 L 323.21875 344.459375 L 321.74375 346.4375 L 319.671875 348.09375 L 317.171875 349.34375 L 313.99375 350.33125 L 310.16875 351.009375 L 304.121875 351.446875 L 293.85 351.490625 L 244.35625 350.80625 L 224.08125 350.878125 L 216.315625 351.184375 L 194.184375 353.153125 " transform="matrix(1.25,0,0,1.25,0,0)"/>
<path style="fill:none;stroke-width:1.5;stroke-linecap:square;stroke-linejoin:round;stroke:rgb(0%,0%,0%);stroke-opacity:1;stroke-miterlimit:4;" d="M 260.028125 179.071875 L 264.63125 178.409375 L 268.009375 179.2125 L 270.525 181.590625 L 272.303125 185.725 " transform="matrix(1.25,0,0,1.25,0,0)"/>
<path style="fill:none;stroke-width:1.5;stroke-linecap:square;stroke-linejoin:round;stroke:rgb(0%,0%,0%);stroke-opacity:1;stroke-miterlimit:4;" d="M 269.515625 353.671875 L 272.540625 352.996875 L 275.73125 353.4375 L 278.99375 354.99375 L 281.74375 357.36875 L 283.709375 360.240625 L 284.60625 363.296875 L 284.2625 365.98125 L 282.7 368.2125 L 280.953125 369.396875 L 278.875 370.196875 L 274.484375 370.4625 L 270.075 369.040625 L 266.309375 366.134375 L 264.225 362.640625 L 263.884375 360.775 L 264.065625 359.040625 L 264.71875 357.48125 L 265.88125 356.009375 L 269.515625 353.671875 " transform="matrix(1.25,0,0,1.25,0,0)"/>
<path style="fill:none;stroke-width:1.5;stroke-linecap:square;stroke-linejoin:round;stroke:rgb(0%,0%,0%);stroke-opacity:1;stroke-miterlimit:4;" d="M 349.309375 202.35625 L 344.846875 205.703125 L 342.74375 206.559375 L 340.459375 206.95625 L 338.31875 206.846875 L 335.940625 206.225 L 330.89375 203.465625 " transform="matrix(1.25,0,0,1.25,0,0)"/>
<path style="fill:none;stroke-width:1.5;stroke-linecap:square;stroke-linejoin:round;stroke:rgb(0%,0%,0%);stroke-opacity:1;stroke-miterlimit:4;" d="M 272.315625 359.109375 L 273.865625 358.790625 L 275.3625 359.08125 L 276.559375 359.896875 L 277.45625 361.209375 L 277.821875 362.75 L 277.575 364.30625 L 276.74375 365.559375 L 275.4625 366.40625 L 273.94375 366.725 L 272.4125 366.371875 L 271.146875 365.459375 L 270.19375 364.040625 L 269.8375 362.55625 L 270.096875 361.084375 L 270.95625 359.909375 L 272.315625 359.109375 " transform="matrix(1.25,0,0,1.25,0,0)"/>
<path style="fill:none;stroke-width:1.5;stroke-linecap:square;stroke-linejoin:round;stroke:rgb(0%,0%,0%);stroke-opacity:1;stroke-miterlimit:4;" d="M 328.6625 190.159375 L 332.65625 189.128125 L 337.415625 188.525 L 352.096875 188.496875 " transform="matrix(1.25,0,0,1.25,0,0)"/>
<path style="fill:none;stroke-width:1.5;stroke-linecap:square;stroke-linejoin:round;stroke:rgb(0%,0%,0%);stroke-opacity:1;stroke-miterlimit:4;" d="M 352.65625 184.059375 L 349.309375 199.953125 L 347.728125 203.759375 L 345.659375 206.515625 L 342.65625 208.36875 L 339.04375 208.853125 L 336.090625 208.215625 L 330.3375 205.68125 " transform="matrix(1.25,0,0,1.25,0,0)"/>
<path style="fill:none;stroke-width:1.5;stroke-linecap:square;stroke-linejoin:round;stroke:rgb(0%,0%,0%);stroke-opacity:1;stroke-miterlimit:4;" d="M 265.609375 172.128125 L 268.95 172.178125 L 271.94375 173.128125 L 274.478125 174.971875 L 276.440625 177.65625 L 277.7 181.059375 L 278.128125 184.8125 L 277.70625 188.659375 L 276.46875 192.40625 L 274.578125 195.884375 L 272.134375 198.940625 L 269.2125 201.528125 L 265.884375 203.603125 L 262.021875 205.175 L 257.878125 206.06875 L 254.353125 206.1625 L 251.225 205.3875 L 249.309375 204.2625 L 247.6875 202.615625 L 246.50625 200.584375 L 245.715625 198.078125 L 245.39375 195.315625 L 245.54375 192.19375 L 247.1375 186.309375 L 250.253125 181.128125 L 254.765625 176.678125 L 260.021875 173.609375 L 265.609375 172.128125 " transform="matrix(1.25,0,0,1.25,0,0)"/>
<path style="fill:none;stroke-width:1.5;stroke-linecap:square;stroke-linejoin:round;stroke:rgb(0%,0%,0%);stroke-opacity:1;stroke-miterlimit:4;" d="M 71.425 289.396875 L 72.634375 292.43125 L 74.534375 299.725 L 79.81875 312.11875 L 81.625 318.125 L 82.025 321.834375 L 81.73125 325.040625 L 80.859375 327.340625 L 79.340625 329.371875 L 76.965625 331.346875 L 74.034375 332.975 L 70.484375 334.321875 L 66.65 335.278125 L 62.484375 335.859375 L 58.184375 335.996875 L 54.20625 335.65 L 50.940625 334.865625 L 47.190625 332.859375 L 42.078125 328.58125 L 37.978125 324.065625 L 35.621875 320.1 L 35.21875 318.275 L 35.38125 316.615625 L 36.10625 315.521875 L 37.253125 314.93125 L 39.14375 314.821875 L 41.209375 315.328125 L 43.14375 316.325 L 44.640625 317.671875 " transform="matrix(1.25,0,0,1.25,0,0)"/>
<path style="fill:none;stroke-width:1.5;stroke-linecap:square;stroke-linejoin:round;stroke:rgb(0%,0%,0%);stroke-opacity:1;stroke-miterlimit:4;" d="M 196.4375 359.184375 L 198.303125 358.9 L 199.9625 359.5 L 201.25 360.909375 L 201.9125 362.79375 L 201.884375 364.684375 L 201.15 366.44375 L 199.78125 367.728125 L 197.965625 368.40625 L 196.446875 368.334375 L 195.1 367.590625 L 194.1375 366.340625 L 193.575 364.61875 L 193.55625 362.91875 L 194.05625 361.3 L 195 360.05625 L 196.4375 359.184375 " transform="matrix(1.25,0,0,1.25,0,0)"/>
<path style="fill:none;stroke-width:1.5;stroke-linecap:square;stroke-linejoin:round;stroke:rgb(0%,0%,0%);stroke-opacity:1;stroke-miterlimit:4;" d="M 86.490625 209.5625 L 89.6125 207.534375 L 93.30625 206.465625 L 97.103125 206.51875 L 100.503125 207.640625 L 103.290625 209.690625 L 105.315625 212.528125 L 106.38125 215.74375 L 106.659375 219.76875 L 105.0375 240.275 L 103.7875 245.8875 L 102 250.225 L 99.25625 253.990625 L 95.559375 256.73125 L 90.85625 258.38125 L 85.375 258.90625 " transform="matrix(1.25,0,0,1.25,0,0)"/>
<path style="fill:none;stroke-width:1.5;stroke-linecap:square;stroke-linejoin:round;stroke:rgb(0%,0%,0%);stroke-opacity:1;stroke-miterlimit:4;" d="M 255.5625 182.75 L 260.29375 182.1375 L 262.303125 182.503125 L 263.940625 183.278125 L 265.303125 184.49375 L 266.3125 186.146875 L 266.878125 188.084375 L 267.009375 190.35 L 266.640625 192.865625 L 265.825 195.2375 L 263.0125 199.41875 L 261.090625 201.059375 L 258.975 202.259375 L 256.70625 203.01875 L 254.59375 203.21875 L 251.9625 202.465625 L 249.9875 200.55625 L 248.734375 197.534375 L 248.41875 193.79375 L 249.09375 189.934375 L 250.65 186.571875 L 252.83125 184.159375 L 255.5625 182.75 " transform="matrix(1.25,0,0,1.25,0,0)"/>
<path style="fill:none;stroke-width:1.5;stroke-linecap:square;stroke-linejoin:round;stroke:rgb(0%,0%,0%);stroke-opacity:1;stroke-miterlimit:4;" d="M 74.771875 302.703125 L 73.06875 305.028125 L 73.096875 307.690625 " transform="matrix(1.25,0,0,1.25,0,0)"/>
<path style="fill:none;stroke-width:1.5;stroke-linecap:square;stroke-linejoin:round;stroke:rgb(0%,0%,0%);stroke-opacity:1;stroke-miterlimit:4;" d="M 209.25 384.753125 L 215.346875 384.775 L 218.921875 385.73125 L 221.51875 388.0375 L 223.40625 392.00625 L 227.121875 413.375 L 228.65625 425.30625 L 229.075 435.80625 L 228.221875 444.628125 " transform="matrix(1.25,0,0,1.25,0,0)"/>
<path style="fill:none;stroke-width:1.5;stroke-linecap:square;stroke-linejoin:round;stroke:rgb(0%,0%,0%);stroke-opacity:1;stroke-miterlimit:4;" d="M 289.04375 337.075 L 296.85625 349.271875 " transform="matrix(1.25,0,0,1.25,0,0)"/>
<path style="fill:none;stroke-width:1.5;stroke-linecap:square;stroke-linejoin:round;stroke:rgb(0%,0%,0%);stroke-opacity:1;stroke-miterlimit:4;" d="M 381.1125 246.709375 L 379.703125 250.965625 L 378.584375 255.846875 L 376.309375 272.6875 L 375.478125 276.721875 L 373.434375 281.15625 L 370.346875 284.0625 L 368.10625 285.1375 L 365.478125 285.815625 L 359.33125 285.946875 L 352.671875 284.828125 L 336.31875 280.8625 L 327.546875 279.971875 " transform="matrix(1.25,0,0,1.25,0,0)"/>
<path style="fill:none;stroke-width:1.5;stroke-linecap:square;stroke-linejoin:round;stroke:rgb(0%,0%,0%);stroke-opacity:1;stroke-miterlimit:4;" d="M 131.13125 294.3875 L 131.803125 295.7375 L 132.43125 299.653125 L 133.084375 301.171875 L 135.603125 303.26875 L 137.971875 304.05 L 140.196875 303.63125 L 145.340625 300.78125 L 151.521875 298.5375 L 153.234375 297.290625 L 154.565625 295.49375 " transform="matrix(1.25,0,0,1.25,0,0)"/>
<path style="fill:none;stroke-width:1.5;stroke-linecap:square;stroke-linejoin:round;stroke:rgb(0%,0%,0%);stroke-opacity:1;stroke-miterlimit:4;" d="M 48.546875 389.1875 L 57.925 390.475 L 66.846875 390.71875 L 75.496875 389.934375 L 84.259375 388.08125 " transform="matrix(1.25,0,0,1.25,0,0)"/>
<path style="fill:none;stroke-width:1.5;stroke-linecap:square;stroke-linejoin:round;stroke:rgb(0%,0%,0%);stroke-opacity:1;stroke-miterlimit:4;" d="M 204.228125 423.5625 L 204.80625 425.340625 L 205.96875 426.71875 L 207.74375 427.634375 L 210.1125 428.065625 L 216.0875 427.596875 L 225.990625 425.225 " transform="matrix(1.25,0,0,1.25,0,0)"/>
<path style="fill:none;stroke-width:1.5;stroke-linecap:square;stroke-linejoin:round;stroke:rgb(0%,0%,0%);stroke-opacity:1;stroke-miterlimit:4;" d="M 39.059375 370.340625 L 34.51875 373.2625 L 32.353125 375.090625 L 31.04375 376.975 L 30.503125 379.184375 L 30.63125 382.40625 L 31.61875 386.634375 L 36.26875 398.059375 " transform="matrix(1.25,0,0,1.25,0,0)"/>
<path style="fill:none;stroke-width:1.5;stroke-linecap:square;stroke-linejoin:round;stroke:rgb(0%,0%,0%);stroke-opacity:1;stroke-miterlimit:4;" d="M 183.58125 195.703125 L 187.19375 190.74375 L 190.3375 187.3875 L 193.490625 185.0875 L 197.278125 183.234375 L 201.609375 182.028125 L 205.178125 182.025 L 207.859375 183.178125 L 209.634375 185.525 L 210.478125 189.225 L 210.175 193.3375 L 208.7125 197.5625 L 206.296875 201.525 L 202.846875 205.325 L 198.809375 208.365625 L 194.46875 210.4125 L 190.278125 211.225 " transform="matrix(1.25,0,0,1.25,0,0)"/>
<path style="fill:none;stroke-width:1.5;stroke-linecap:square;stroke-linejoin:round;stroke:rgb(0%,0%,0%);stroke-opacity:1;stroke-miterlimit:4;" d="M 198.090625 371.765625 L 201.29375 371.8625 L 204.075 373.1875 L 206.16875 375.703125 L 207.246875 379.025 L 207.10625 382.68125 L 205.796875 385.715625 L 203.56875 387.803125 L 200.5 388.85625 L 197.215625 388.734375 L 194.38125 387.371875 L 192.353125 384.940625 L 191.26875 381.603125 L 191.4125 378.065625 L 192.734375 374.990625 L 194.9875 372.85625 L 198.090625 371.765625 " transform="matrix(1.25,0,0,1.25,0,0)"/>
<path style="fill:none;stroke-width:1.5;stroke-linecap:square;stroke-linejoin:round;stroke:rgb(0%,0%,0%);stroke-opacity:1;stroke-miterlimit:4;" d="M 55.8 305.475 L 58.7375 302.9625 L 60.41875 302.371875 L 62.496875 302.146875 " transform="matrix(1.25,0,0,1.25,0,0)"/>
<path style="fill:none;stroke-width:1.5;stroke-linecap:square;stroke-linejoin:round;stroke:rgb(0%,0%,0%);stroke-opacity:1;stroke-miterlimit:4;" d="M 256.68125 180.734375 L 260.096875 180.484375 L 263.05625 180.6875 L 265.36875 181.328125 L 267.21875 182.453125 L 268.575 184.1 L 269.371875 186.1375 L 269.690625 188.7 L 269.5125 191.821875 " transform="matrix(1.25,0,0,1.25,0,0)"/>
<path style="fill:none;stroke-width:1.5;stroke-linecap:square;stroke-linejoin:round;stroke:rgb(0%,0%,0%);stroke-opacity:1;stroke-miterlimit:4;" d="M 192.509375 190.475 L 195.61875 190.7125 L 197.01875 191.50625 L 198.128125 192.66875 L 199.346875 195.7625 L 199.046875 199.3 L 197.275 203.028125 L 194.3875 206.059375 L 190.71875 207.915625 L 189.065625 208.209375 L 187.503125 208.0375 L 185.534375 206.828125 L 184.190625 204.6375 L 183.6125 201.63125 L 183.9875 198.684375 L 185.2 195.8375 L 187.259375 193.234375 L 189.775 191.421875 L 192.509375 190.475 " transform="matrix(1.25,0,0,1.25,0,0)"/>
</g>
</svg>
