<?xml version="1.0" encoding="UTF-8"?>
<svg xmlns="http://www.w3.org/2000/svg" xmlns:xlink="http://www.w3.org/1999/xlink" width="1038pt" height="729pt" viewBox="0 0 1038 729" version="1.1">
<g id="surface1">
<path style="fill:none;stroke-width:1.5;stroke-linecap:square;stroke-linejoin:round;stroke:rgb(0%,0%,0%);stroke-opacity:1;stroke-miterlimit:4;" d="M 397.296875 325.43125 L 388.925 331.53125 " transform="matrix(1.25,0,0,1.25,0,0)"/>
<path style="fill:none;stroke-width:1.5;stroke-linecap:square;stroke-linejoin:round;stroke:rgb(0%,0%,0%);stroke-opacity:1;stroke-miterlimit:4;" d="M 672.946875 124.184375 L 669.040625 138.6 " transform="matrix(1.25,0,0,1.25,0,0)"/>
<path style="fill:none;stroke-width:1.5;stroke-linecap:square;stroke-linejoin:round;stroke:rgb(0%,0%,0%);stroke-opacity:1;stroke-miterlimit:4;" d="M 70.309375 137.490625 L 70.309375 138.046875 " transform="matrix(1.25,0,0,1.25,0,0)"/>
<path style="fill:none;stroke-width:1.5;stroke-linecap:square;stroke-linejoin:round;stroke:rgb(0%,0%,0%);stroke-opacity:1;stroke-miterlimit:4;" d="M 685.225 293.83125 L 676.521875 285.803125 L 668.915625 277.55 L 662.1125 268.70625 L 655.825 258.915625 L 651.39375 250.596875 L 647.771875 241.621875 L 645.034375 232.221875 L 643.259375 222.665625 L 642.490625 212.790625 L 642.8625 203.425 L 644.390625 194.5625 L 647.025 186.55625 L 650.69375 179.5 L 655.44375 173.315625 L 661.25625 168.084375 L 667.925 163.965625 L 675.571875 160.621875 L 681.99375 159.196875 L 689.38125 159.425 L 697.103125 161.2875 L 705.534375 165 L 713.85 170.31875 L 721.35 176.715625 L 728.603125 184.684375 L 734.9125 193.40625 L 740.309375 202.853125 L 744.665625 212.865625 L 747.8125 223.06875 L 749.70625 233.29375 L 750.315625 243.175 L 749.646875 252.996875 L 747.71875 262.23125 " transform="matrix(1.25,0,0,1.25,0,0)"/>
<path style="fill:none;stroke-width:1.5;stroke-linecap:square;stroke-linejoin:round;stroke:rgb(0%,0%,0%);stroke-opacity:1;stroke-miterlimit:4;" d="M 679.64375 233.95625 L 681.875 243.38125 " transform="matrix(1.25,0,0,1.25,0,0)"/>
<path style="fill:none;stroke-width:1.5;stroke-linecap:square;stroke-linejoin:round;stroke:rgb(0%,0%,0%);stroke-opacity:1;stroke-miterlimit:4;" d="M 81.46875 131.39375 L 81.684375 133 L 81.40625 134.54375 L 79.55 136.86875 L 75.815625 138.515625 L 70.865625 139.153125 " transform="matrix(1.25,0,0,1.25,0,0)"/>
<path style="fill:none;stroke-width:1.5;stroke-linecap:square;stroke-linejoin:round;stroke:rgb(0%,0%,0%);stroke-opacity:1;stroke-miterlimit:4;" d="M 682.990625 116.425 L 684.025 121.80625 L 683.46875 126.871875 L 681.446875 131.446875 L 677.93125 135.5 L 674.284375 138.034375 L 669.371875 140.290625 L 663.759375 142.184375 L 648.278125 146.515625 L 643.6125 148.346875 L 639.65625 150.409375 L 635.321875 153.46875 L 630.628125 157.921875 L 626.39375 162.90625 L 622.5875 168.45625 L 619.053125 174.9375 L 615.996875 182.165625 L 613.55625 189.909375 L 611.746875 198.09375 L 610.578125 206.628125 L 610.0625 215.40625 L 610.209375 224.521875 L 611.009375 233.403125 " transform="matrix(1.25,0,0,1.25,0,0)"/>
<path style="fill:none;stroke-width:1.5;stroke-linecap:square;stroke-linejoin:round;stroke:rgb(0%,0%,0%);stroke-opacity:1;stroke-miterlimit:4;" d="M 196.975 360.359375 L 204.228125 378.65625 " transform="matrix(1.25,0,0,1.25,0,0)"/>
<path style="fill:none;stroke-width:1.5;stroke-linecap:square;stroke-linejoin:round;stroke:rgb(0%,0%,0%);stroke-opacity:1;stroke-miterlimit:4;" d="M 79.2375 130.284375 L 81.071875 130.56875 L 82.35625 131.2125 L 82.9375 132.109375 L 82.884375 133.278125 L 82.05625 134.728125 L 80.60625 136.059375 L 78.89375 137 L 77.003125 137.490625 " transform="matrix(1.25,0,0,1.25,0,0)"/>
<path style="fill:none;stroke-width:1.5;stroke-linecap:square;stroke-linejoin:round;stroke:rgb(0%,0%,0%);stroke-opacity:1;stroke-miterlimit:4;" d="M 631.096875 153.56875 L 611.303125 163.915625 L 606.371875 167.16875 L 602.08125 170.75625 " transform="matrix(1.25,0,0,1.25,0,0)"/>
<path style="fill:none;stroke-width:1.5;stroke-linecap:square;stroke-linejoin:round;stroke:rgb(0%,0%,0%);stroke-opacity:1;stroke-miterlimit:4;" d="M 186.93125 364.240625 L 198.090625 391.959375 " transform="matrix(1.25,0,0,1.25,0,0)"/>
<path style="fill:none;stroke-width:1.5;stroke-linecap:square;stroke-linejoin:round;stroke:rgb(0%,0%,0%);stroke-opacity:1;stroke-miterlimit:4;" d="M 128.340625 106.44375 L 130.2375 107.85 L 131.61875 110.51875 L 132.56875 114.275 L 133.3625 120.30625 " transform="matrix(1.25,0,0,1.25,0,0)"/>
<path style="fill:none;stroke-width:1.5;stroke-linecap:square;stroke-linejoin:round;stroke:rgb(0%,0%,0%);stroke-opacity:1;stroke-miterlimit:4;" d="M 130.571875 365.35 L 139.925 361.61875 L 150.8875 357.9875 L 188.05 347.703125 L 233.228125 333.353125 L 254.446875 327.65 " transform="matrix(1.25,0,0,1.25,0,0)"/>
<path style="fill:none;stroke-width:1.5;stroke-linecap:square;stroke-linejoin:round;stroke:rgb(0%,0%,0%);stroke-opacity:1;stroke-miterlimit:4;" d="M 82.025 252.80625 L 87.03125 248.85 L 92.296875 245.34375 L 97.96875 242.190625 L 103.85625 239.503125 L 110.121875 237.209375 L 116.55 235.396875 L 123.109375 234.05625 L 129.96875 233.159375 L 136.896875 232.74375 L 144.0625 232.809375 L 151.015625 233.34375 L 158.13125 234.36875 L 165.165625 235.865625 L 172.075 237.825 L 178.825 240.2375 L 185.190625 243.003125 L 196.025 248.984375 L 205.771875 256.1 L 213.85625 263.809375 L 220.540625 272.496875 L 226.290625 282.703125 L 231.6125 295.371875 L 239.25 317.525 L 240.578125 323.25625 L 241.05625 328.20625 " transform="matrix(1.25,0,0,1.25,0,0)"/>
<path style="fill:none;stroke-width:1.5;stroke-linecap:square;stroke-linejoin:round;stroke:rgb(0%,0%,0%);stroke-opacity:1;stroke-miterlimit:4;" d="M 121.0875 109.215625 L 119.071875 117.203125 L 117.896875 120.39375 L 115.934375 123.303125 L 113.275 125.29375 " transform="matrix(1.25,0,0,1.25,0,0)"/>
<path style="fill:none;stroke-width:1.5;stroke-linecap:square;stroke-linejoin:round;stroke:rgb(0%,0%,0%);stroke-opacity:1;stroke-miterlimit:4;" d="M 108.809375 57.103125 L 108.134375 60.778125 L 106.38125 64.09375 L 103.7375 66.696875 L 100.56875 68.175 L 97.321875 68.41875 L 94.096875 67.509375 L 91.971875 65.7375 L 89.28125 62.09375 " transform="matrix(1.25,0,0,1.25,0,0)"/>
<path style="fill:none;stroke-width:1.5;stroke-linecap:square;stroke-linejoin:round;stroke:rgb(0%,0%,0%);stroke-opacity:1;stroke-miterlimit:4;" d="M 378.325 286.625 L 392.275 284.9625 " transform="matrix(1.25,0,0,1.25,0,0)"/>
<path style="fill:none;stroke-width:1.5;stroke-linecap:square;stroke-linejoin:round;stroke:rgb(0%,0%,0%);stroke-opacity:1;stroke-miterlimit:4;" d="M 464.8125 245.6 L 487.690625 236.175 " transform="matrix(1.25,0,0,1.25,0,0)"/>
<path style="fill:none;stroke-width:1.5;stroke-linecap:square;stroke-linejoin:round;stroke:rgb(0%,0%,0%);stroke-opacity:1;stroke-miterlimit:4;" d="M 717.5875 165.765625 L 721.85625 167.715625 L 726.103125 170.5375 L 730.096875 174.10625 L 733.953125 178.509375 L 737.365625 183.303125 L 740.790625 189.040625 L 748.946875 205.734375 L 754.65625 220.390625 L 758.221875 233.975 L 759.6125 244.609375 L 759.4375 260.0125 " transform="matrix(1.25,0,0,1.25,0,0)"/>
<path style="fill:none;stroke-width:1.5;stroke-linecap:square;stroke-linejoin:round;stroke:rgb(0%,0%,0%);stroke-opacity:1;stroke-miterlimit:4;" d="M 180.234375 59.321875 L 261.703125 325.9875 " transform="matrix(1.25,0,0,1.25,0,0)"/>
<path style="fill:none;stroke-width:1.5;stroke-linecap:square;stroke-linejoin:round;stroke:rgb(0%,0%,0%);stroke-opacity:1;stroke-miterlimit:4;" d="M 607.103125 260.56875 L 590.921875 278.8625 " transform="matrix(1.25,0,0,1.25,0,0)"/>
<path style="fill:none;stroke-width:1.5;stroke-linecap:square;stroke-linejoin:round;stroke:rgb(0%,0%,0%);stroke-opacity:1;stroke-miterlimit:4;" d="M 255.00625 334.303125 L 238.825 340.6375 L 213.15625 349.271875 " transform="matrix(1.25,0,0,1.25,0,0)"/>
<path style="fill:none;stroke-width:1.5;stroke-linecap:square;stroke-linejoin:round;stroke:rgb(0%,0%,0%);stroke-opacity:1;stroke-miterlimit:4;" d="M 480.4375 268.884375 L 497.178125 265.003125 " transform="matrix(1.25,0,0,1.25,0,0)"/>
<path style="fill:none;stroke-width:1.5;stroke-linecap:square;stroke-linejoin:round;stroke:rgb(0%,0%,0%);stroke-opacity:1;stroke-miterlimit:4;" d="M 30.690625 97.01875 L 46.078125 150.24375 L 79.221875 261.678125 L 112.715625 370.89375 " transform="matrix(1.25,0,0,1.25,0,0)"/>
<path style="fill:none;stroke-width:1.5;stroke-linecap:square;stroke-linejoin:round;stroke:rgb(0%,0%,0%);stroke-opacity:1;stroke-miterlimit:4;" d="M 162.378125 38.253125 L 153.45 41.8 L 142.9 45.25 L 109.225 54.446875 L 63.675 68.609375 L 42.409375 74.290625 " transform="matrix(1.25,0,0,1.25,0,0)"/>
<path style="fill:none;stroke-width:1.5;stroke-linecap:square;stroke-linejoin:round;stroke:rgb(0%,0%,0%);stroke-opacity:1;stroke-miterlimit:4;" d="M 32.921875 90.36875 L 116.0625 367.0125 " transform="matrix(1.25,0,0,1.25,0,0)"/>
<path style="fill:none;stroke-width:1.5;stroke-linecap:square;stroke-linejoin:round;stroke:rgb(0%,0%,0%);stroke-opacity:1;stroke-miterlimit:4;" d="M 40.734375 69.3 L 157.35625 34.371875 " transform="matrix(1.25,0,0,1.25,0,0)"/>
<path style="fill:none;stroke-width:1.5;stroke-linecap:square;stroke-linejoin:round;stroke:rgb(0%,0%,0%);stroke-opacity:1;stroke-miterlimit:4;" d="M 507.78125 382.5375 L 506.515625 385.028125 L 504.259375 387.165625 L 501.0875 388.934375 L 496.73125 390.4625 L 490.959375 391.746875 L 470.9125 395.06875 L 466.0625 395.725 L 460.203125 395.9 L 457.515625 396.64375 L 449.384375 402.44375 L 446.79375 403.4125 L 440.178125 405.0625 L 436.70625 406.90625 L 435.028125 408.50625 L 433.64375 410.50625 L 430.775 417.4625 " transform="matrix(1.25,0,0,1.25,0,0)"/>
<path style="fill:none;stroke-width:1.5;stroke-linecap:square;stroke-linejoin:round;stroke:rgb(0%,0%,0%);stroke-opacity:1;stroke-miterlimit:4;" d="M 680.759375 243.9375 L 709.21875 263.340625 " transform="matrix(1.25,0,0,1.25,0,0)"/>
<path style="fill:none;stroke-width:1.5;stroke-linecap:square;stroke-linejoin:round;stroke:rgb(0%,0%,0%);stroke-opacity:1;stroke-miterlimit:4;" d="M 443.609375 136.9375 L 437.15 145.315625 L 431.1375 152.190625 L 425.03125 158.2 L 418.565625 163.553125 L 411.646875 168.2875 L 404.084375 172.490625 L 397.3125 175.525 L 379.79375 182.4875 L 370.51875 187.3625 L 365.80625 190.74375 L 361.675 194.51875 L 357.26875 199.578125 L 353.15 205.240625 L 348.759375 212.7125 L 345.125 220.7625 L 342.36875 229.15 L 340.44375 238.015625 L 339.53125 245.56875 L 339.2375 253.271875 L 340.440625 278.421875 L 340.390625 287.51875 L 339.203125 297.0625 L 336.715625 305.709375 L 334.24375 311.33125 L 331.009375 317.3125 L 327.553125 322.6625 L 323.684375 327.721875 L 316.875 334.875 L 303.225 346.4875 L 298.453125 351.7875 L 295.203125 357.421875 L 293.509375 363.6875 " transform="matrix(1.25,0,0,1.25,0,0)"/>
<path style="fill:none;stroke-width:1.5;stroke-linecap:square;stroke-linejoin:round;stroke:rgb(0%,0%,0%);stroke-opacity:1;stroke-miterlimit:4;" d="M 598.734375 296.05 L 602.646875 302.846875 L 608.134375 309.790625 L 615.0375 316.665625 L 623.490625 323.621875 L 631.925 329.4 L 640.725 334.3 L 649.65625 338.171875 L 658.66875 341.00625 L 667.509375 342.771875 L 676.546875 343.559375 L 685.5375 343.325 L 694.446875 342.0875 L 703.984375 339.675 L 711.903125 336.665625 L 718.65 332.846875 L 724.284375 328.20625 " transform="matrix(1.25,0,0,1.25,0,0)"/>
<path style="fill:none;stroke-width:1.5;stroke-linecap:square;stroke-linejoin:round;stroke:rgb(0%,0%,0%);stroke-opacity:1;stroke-miterlimit:4;" d="M 115.50625 367.0125 L 117.775 370.434375 L 120.215625 373.2 L 122.709375 375.178125 L 125.41875 376.521875 L 128.38125 377.203125 L 131.428125 377.215625 L 134.753125 376.596875 L 138.384375 375.328125 " transform="matrix(1.25,0,0,1.25,0,0)"/>
<path style="fill:none;stroke-width:1.5;stroke-linecap:square;stroke-linejoin:round;stroke:rgb(0%,0%,0%);stroke-opacity:1;stroke-miterlimit:4;" d="M 628.309375 307.1375 L 619.38125 317.115625 " transform="matrix(1.25,0,0,1.25,0,0)"/>
<path style="fill:none;stroke-width:1.5;stroke-linecap:square;stroke-linejoin:round;stroke:rgb(0%,0%,0%);stroke-opacity:1;stroke-miterlimit:4;" d="M 130.571875 364.79375 L 131.13125 364.79375 " transform="matrix(1.25,0,0,1.25,0,0)"/>
<path style="fill:none;stroke-width:1.5;stroke-linecap:square;stroke-linejoin:round;stroke:rgb(0%,0%,0%);stroke-opacity:1;stroke-miterlimit:4;" d="M 122.759375 372.55625 L 148.428125 367.0125 " transform="matrix(1.25,0,0,1.25,0,0)"/>
<path style="fill:none;stroke-width:1.5;stroke-linecap:square;stroke-linejoin:round;stroke:rgb(0%,0%,0%);stroke-opacity:1;stroke-miterlimit:4;" d="M 694.709375 338.184375 L 693.0375 339.29375 " transform="matrix(1.25,0,0,1.25,0,0)"/>
<path style="fill:none;stroke-width:1.5;stroke-linecap:square;stroke-linejoin:round;stroke:rgb(0%,0%,0%);stroke-opacity:1;stroke-miterlimit:4;" d="M 457.559375 239.5 L 448.075 255.025 " transform="matrix(1.25,0,0,1.25,0,0)"/>
<path style="fill:none;stroke-width:1.5;stroke-linecap:square;stroke-linejoin:round;stroke:rgb(0%,0%,0%);stroke-opacity:1;stroke-miterlimit:4;" d="M 724.840625 197.921875 L 721.925 204.240625 L 719.384375 211.465625 L 711.45 241.1625 " transform="matrix(1.25,0,0,1.25,0,0)"/>
<path style="fill:none;stroke-width:1.5;stroke-linecap:square;stroke-linejoin:round;stroke:rgb(0%,0%,0%);stroke-opacity:1;stroke-miterlimit:4;" d="M 604.3125 252.80625 L 588.690625 272.209375 " transform="matrix(1.25,0,0,1.25,0,0)"/>
<path style="fill:none;stroke-width:1.5;stroke-linecap:square;stroke-linejoin:round;stroke:rgb(0%,0%,0%);stroke-opacity:1;stroke-miterlimit:4;" d="M 105.4625 114.20625 L 116.0625 120.859375 " transform="matrix(1.25,0,0,1.25,0,0)"/>
<path style="fill:none;stroke-width:1.5;stroke-linecap:square;stroke-linejoin:round;stroke:rgb(0%,0%,0%);stroke-opacity:1;stroke-miterlimit:4;" d="M 716.471875 123.63125 L 722.690625 126.153125 L 728.546875 129.384375 L 734.20625 133.446875 L 739.496875 138.2125 L 744.440625 143.64375 L 749.3375 150.021875 L 754.296875 157.50625 L 759.890625 166.9625 L 765.415625 176.946875 L 769.68125 185.634375 L 773.634375 194.934375 L 777.140625 204.64375 L 780.171875 214.74375 L 782.65 225 L 784.575 235.38125 L 785.946875 245.853125 L 787.00625 263.065625 L 786.6 280.296875 L 784.7375 297.403125 L 781.415625 314.24375 L 777.909375 326.81875 L 773.559375 339.140625 L 756.0125 379.865625 L 750.16875 394.83125 L 745.740625 409.171875 L 743.1 422.26875 L 742.321875 429.709375 L 742.134375 436.790625 L 742.509375 443.715625 L 743.484375 450.69375 L 745.4625 459.14375 L 747.759375 466.475 L 750.275 472.3125 L 753.3 477.3375 " transform="matrix(1.25,0,0,1.25,0,0)"/>
<path style="fill:none;stroke-width:1.5;stroke-linecap:square;stroke-linejoin:round;stroke:rgb(0%,0%,0%);stroke-opacity:1;stroke-miterlimit:4;" d="M 133.3625 113.653125 L 137.825 112.54375 " transform="matrix(1.25,0,0,1.25,0,0)"/>
<path style="fill:none;stroke-width:1.5;stroke-linecap:square;stroke-linejoin:round;stroke:rgb(0%,0%,0%);stroke-opacity:1;stroke-miterlimit:4;" d="M 633.33125 316.009375 L 626.634375 324.325 " transform="matrix(1.25,0,0,1.25,0,0)"/>
<path style="fill:none;stroke-width:1.5;stroke-linecap:square;stroke-linejoin:round;stroke:rgb(0%,0%,0%);stroke-opacity:1;stroke-miterlimit:4;" d="M 688.571875 335.4125 L 684.665625 352.596875 " transform="matrix(1.25,0,0,1.25,0,0)"/>
<path style="fill:none;stroke-width:1.5;stroke-linecap:square;stroke-linejoin:round;stroke:rgb(0%,0%,0%);stroke-opacity:1;stroke-miterlimit:4;" d="M 455.8875 115.315625 L 460.059375 111.978125 L 464.53125 109.2125 L 469.45625 106.90625 L 474.8125 105.084375 L 480.571875 103.76875 L 486.69375 102.96875 L 493.125 102.684375 L 499.8 102.909375 L 510 104.14375 L 520.365625 106.396875 L 568.209375 121.321875 L 579.515625 124.375 L 589.5875 126.578125 L 600.5375 128.2375 L 610.625 128.93125 L 620.259375 128.690625 L 629.425 127.5125 " transform="matrix(1.25,0,0,1.25,0,0)"/>
<path style="fill:none;stroke-width:1.5;stroke-linecap:square;stroke-linejoin:round;stroke:rgb(0%,0%,0%);stroke-opacity:1;stroke-miterlimit:4;" d="M 68.075 126.403125 L 68.075 126.95625 " transform="matrix(1.25,0,0,1.25,0,0)"/>
<path style="fill:none;stroke-width:1.5;stroke-linecap:square;stroke-linejoin:round;stroke:rgb(0%,0%,0%);stroke-opacity:1;stroke-miterlimit:4;" d="M 69.190625 128.065625 L 70.984375 126.21875 L 72.915625 125.13125 L 75.03125 124.834375 L 76.746875 125.440625 L 77.646875 126.8375 L 77.209375 128.421875 L 75.678125 129.759375 L 73.096875 130.8375 " transform="matrix(1.25,0,0,1.25,0,0)"/>
<path style="fill:none;stroke-width:1.5;stroke-linecap:square;stroke-linejoin:round;stroke:rgb(0%,0%,0%);stroke-opacity:1;stroke-miterlimit:4;" d="M 606.546875 186.83125 L 579.203125 210.11875 " transform="matrix(1.25,0,0,1.25,0,0)"/>
<path style="fill:none;stroke-width:1.5;stroke-linecap:square;stroke-linejoin:round;stroke:rgb(0%,0%,0%);stroke-opacity:1;stroke-miterlimit:4;" d="M 429.659375 417.4625 L 428.2375 409.296875 L 428.1375 405.709375 L 428.471875 402.425 L 429.20625 399.784375 L 430.33125 397.640625 L 431.80625 396.021875 L 433.753125 394.825 L 436.240625 394.265625 L 442.190625 394.74375 L 444.715625 394.328125 L 447.13125 392.80625 L 452.49375 387.396875 L 454.40625 386.490625 L 457.471875 385.7875 L 462.346875 385.478125 L 472.571875 385.859375 L 481.7125 385.71875 L 506.10625 384.2 " transform="matrix(1.25,0,0,1.25,0,0)"/>
<path style="fill:none;stroke-width:1.5;stroke-linecap:square;stroke-linejoin:round;stroke:rgb(0%,0%,0%);stroke-opacity:1;stroke-miterlimit:4;" d="M 106.01875 329.3125 L 109.259375 327.228125 L 112.646875 325.725 L 116.31875 324.74375 L 120.0625 324.334375 L 124.015625 324.48125 L 128.11875 325.221875 L 132.140625 326.515625 L 136.015625 328.3125 L 139.8375 330.675 L 143.36875 333.48125 L 146.540625 336.678125 L 149.178125 340.059375 L 151.359375 343.703125 L 153.028125 347.5625 L 154.084375 351.409375 L 154.565625 355.371875 " transform="matrix(1.25,0,0,1.25,0,0)"/>
<path style="fill:none;stroke-width:1.5;stroke-linecap:square;stroke-linejoin:round;stroke:rgb(0%,0%,0%);stroke-opacity:1;stroke-miterlimit:4;" d="M 122.759375 108.6625 L 120.675 117.334375 L 119.2125 121.309375 L 116.871875 124.715625 L 113.83125 126.95625 " transform="matrix(1.25,0,0,1.25,0,0)"/>
<path style="fill:none;stroke-width:1.5;stroke-linecap:square;stroke-linejoin:round;stroke:rgb(0%,0%,0%);stroke-opacity:1;stroke-miterlimit:4;" d="M 676.296875 355.925 L 673.2875 359.590625 L 670.64375 363.578125 L 665.93125 373.134375 L 662.15 383.940625 L 656 406.0875 L 653.25625 414.653125 L 647.584375 428.534375 L 641.153125 441.790625 L 633.4625 455.19375 L 624.946875 467.78125 L 615.59375 479.60625 L 605.2375 490.878125 L 592.896875 502.390625 L 579.809375 512.659375 L 566.24375 521.48125 L 552.446875 528.709375 L 537.759375 534.675 L 522.4375 539.26875 L 506.559375 542.4875 L 490.00625 544.359375 L 477.86875 544.84375 L 465.48125 544.60625 L 452.890625 543.64375 L 440.35625 541.975 L 427.934375 539.63125 L 415.45625 536.58125 L 403.15 532.884375 L 390.040625 528.259375 L 370.3375 520.184375 L 348.525 509.9625 L 329.6 500.315625 L 286.884375 477.58125 L 240.175 453.275 L 225.7 446.040625 L 210.95 439.825 L 204.996875 436.95 L 201.996875 435.203125 L 203.565625 430.80625 L 204.646875 426.221875 L 205.328125 421.059375 L 205.553125 415.56875 L 204.68125 403.425 L 201.996875 389.1875 " transform="matrix(1.25,0,0,1.25,0,0)"/>
<path style="fill:none;stroke-width:1.5;stroke-linecap:square;stroke-linejoin:round;stroke:rgb(0%,0%,0%);stroke-opacity:1;stroke-miterlimit:4;" d="M 129.45625 420.46875 L 135.79375 419.98125 L 142.540625 420.0875 L 149.85625 420.790625 L 157.8875 422.1125 L 175.11875 426.375 L 193.884375 431.8625 L 199.2375 434.096875 L 200.61875 435.14375 L 201.259375 436.1 L 201.55 437.609375 L 201.384375 439.290625 L 197.40625 451.259375 L 193.990625 459.84375 L 189.490625 469.184375 L 184.21875 478.384375 L 178.15 487.475 L 171.596875 495.996875 L 164.5375 503.990625 L 157.059375 511.35 L 149.4125 517.8375 L 141.5125 523.5375 L 133.41875 528.3875 L 125.196875 532.34375 L 116.890625 535.3625 L 108.759375 537.384375 L 100.634375 538.4625 L 92.884375 538.496875 L 85.575 537.515625 L 79.2375 535.528125 L 74.975 533.390625 L 70.909375 530.721875 L 67.228125 527.65 L 63.928125 524.2125 L 60.9 520.290625 L 58.284375 516.06875 L 55.996875 511.403125 L 54.153125 506.5125 L 52.70625 501.25625 L 51.728125 495.871875 L 51.221875 490.41875 L 51.190625 484.75625 L 51.659375 479.15 L 52.58125 473.859375 L 53.965625 468.74375 L 55.81875 463.821875 L 60.5125 455.028125 L 66.403125 447.328125 L 73.578125 440.571875 L 81.990625 434.790625 L 91.75 429.9 L 102.759375 425.940625 L 115.275 422.809375 L 129.45625 420.46875 " transform="matrix(1.25,0,0,1.25,0,0)"/>
<path style="fill:none;stroke-width:1.5;stroke-linecap:square;stroke-linejoin:round;stroke:rgb(0%,0%,0%);stroke-opacity:1;stroke-miterlimit:4;" d="M 601.525 247.2625 L 585.9 266.665625 " transform="matrix(1.25,0,0,1.25,0,0)"/>
<path style="fill:none;stroke-width:1.5;stroke-linecap:square;stroke-linejoin:round;stroke:rgb(0%,0%,0%);stroke-opacity:1;stroke-miterlimit:4;" d="M 261.703125 306.028125 L 264.2625 313.996875 L 265.653125 319.928125 L 266.1375 324.934375 L 265.715625 329.296875 L 264.309375 333.13125 L 261.840625 336.38125 L 258.46875 338.91875 L 253.890625 340.95625 " transform="matrix(1.25,0,0,1.25,0,0)"/>
<path style="fill:none;stroke-width:1.5;stroke-linecap:square;stroke-linejoin:round;stroke:rgb(0%,0%,0%);stroke-opacity:1;stroke-miterlimit:4;" d="M 388.36875 343.175 L 387.253125 361.46875 " transform="matrix(1.25,0,0,1.25,0,0)"/>
<path style="fill:none;stroke-width:1.5;stroke-linecap:square;stroke-linejoin:round;stroke:rgb(0%,0%,0%);stroke-opacity:1;stroke-miterlimit:4;" d="M 137.825 112.54375 L 145.6375 116.425 " transform="matrix(1.25,0,0,1.25,0,0)"/>
<path style="fill:none;stroke-width:1.5;stroke-linecap:square;stroke-linejoin:round;stroke:rgb(0%,0%,0%);stroke-opacity:1;stroke-miterlimit:4;" d="M 180.234375 43.24375 L 217.046875 162.99375 L 262.259375 307.1375 " transform="matrix(1.25,0,0,1.25,0,0)"/>
<path style="fill:none;stroke-width:1.5;stroke-linecap:square;stroke-linejoin:round;stroke:rgb(0%,0%,0%);stroke-opacity:1;stroke-miterlimit:4;" d="M 260.028125 569.921875 L 292.990625 548.003125 L 310.3125 535.503125 L 320.796875 526.98125 L 369.546875 484.4125 L 379.10625 477.05 L 388.11875 471.275 L 394.79375 467.83125 L 401.6375 465.053125 L 408.671875 462.96875 L 415.546875 461.659375 L 422.35625 461.10625 L 429.6125 461.221875 L 437.5 462 L 446.4 463.478125 " transform="matrix(1.25,0,0,1.25,0,0)"/>
<path style="fill:none;stroke-width:1.5;stroke-linecap:square;stroke-linejoin:round;stroke:rgb(0%,0%,0%);stroke-opacity:1;stroke-miterlimit:4;" d="M 390.040625 347.609375 L 387.625 358.60625 L 386.153125 367.628125 L 385.475 375.6875 L 385.615625 382.48125 L 386.71875 389.640625 L 388.765625 397.15 L 391.790625 405.0625 L 395.55625 412.7625 L 398.95 418.5625 L 402.7625 424.190625 L 406.675 429.178125 L 410.809375 433.71875 L 419.36875 441.621875 L 439.353125 457.9875 L 447.278125 465.55 L 451.740625 471.325 L 462.73125 488.040625 L 466.415625 492.39375 L 470.234375 495.7875 L 474.375 498.2625 L 478.871875 499.734375 L 485.671875 500.49375 L 492.840625 500.3875 L 499.84375 499.5 L 507.35 497.846875 L 536.221875 488.7375 L 547.534375 486.19375 L 555.25625 485.45 L 563.259375 485.478125 L 571.175 486.30625 L 578.646875 487.871875 " transform="matrix(1.25,0,0,1.25,0,0)"/>
<path style="fill:none;stroke-width:1.5;stroke-linecap:square;stroke-linejoin:round;stroke:rgb(0%,0%,0%);stroke-opacity:1;stroke-miterlimit:4;" d="M 306.340625 527.7875 L 298.45 532.8625 L 291.60625 536.65625 L 285.109375 539.571875 L 278.690625 541.73125 L 268.053125 543.825 L 239.034375 547.125 L 231.7125 548.61875 L 225.434375 550.509375 L 219.628125 552.990625 L 214.496875 556.0125 L 209.86875 559.678125 L 205.903125 563.825 " transform="matrix(1.25,0,0,1.25,0,0)"/>
<path style="fill:none;stroke-width:1.5;stroke-linecap:square;stroke-linejoin:round;stroke:rgb(0%,0%,0%);stroke-opacity:1;stroke-miterlimit:4;" d="M 87.046875 119.75 L 95.05625 116.815625 L 97.79375 116.471875 L 99.871875 116.759375 L 101.265625 117.809375 L 101.534375 119.496875 L 100.634375 121.66875 L 98.765625 123.63125 " transform="matrix(1.25,0,0,1.25,0,0)"/>
<path style="fill:none;stroke-width:1.5;stroke-linecap:square;stroke-linejoin:round;stroke:rgb(0%,0%,0%);stroke-opacity:1;stroke-miterlimit:4;" d="M 29.575 85.93125 L 30.13125 94.803125 " transform="matrix(1.25,0,0,1.25,0,0)"/>
<path style="fill:none;stroke-width:1.5;stroke-linecap:square;stroke-linejoin:round;stroke:rgb(0%,0%,0%);stroke-opacity:1;stroke-miterlimit:4;" d="M 98.775 59.128125 L 101.425 58.815625 L 103.7 59.521875 L 105.128125 61.115625 L 104.91875 62.915625 L 103.609375 64.09375 L 101.409375 64.91875 L 99.409375 64.934375 L 97.590625 64.240625 L 96.3125 62.95625 L 96.034375 61.425 L 96.94375 60.053125 L 98.775 59.128125 " transform="matrix(1.25,0,0,1.25,0,0)"/>
<path style="fill:none;stroke-width:1.5;stroke-linecap:square;stroke-linejoin:round;stroke:rgb(0%,0%,0%);stroke-opacity:1;stroke-miterlimit:4;" d="M 102.1125 312.128125 L 115.11875 308.625 L 119.18125 308.215625 L 123.96875 308.2625 L 129.84375 308.95 L 135.68125 310.296875 L 141.384375 312.271875 L 146.8625 314.834375 L 151.84375 317.834375 L 156.44375 321.315625 L 160.578125 325.253125 L 164.040625 329.440625 L 166.015625 332.471875 L 167.665625 336.015625 L 171.8625 349.271875 " transform="matrix(1.25,0,0,1.25,0,0)"/>
<path style="fill:none;stroke-width:1.5;stroke-linecap:square;stroke-linejoin:round;stroke:rgb(0%,0%,0%);stroke-opacity:1;stroke-miterlimit:4;" d="M 520.05625 268.328125 L 519.140625 270.39375 L 517.740625 272.096875 L 515.796875 273.603125 L 513.1625 274.978125 L 505.1 277.496875 L 490.621875 279.83125 L 484.4875 281.41875 L 478.1625 284.38125 L 467.603125 291.059375 " transform="matrix(1.25,0,0,1.25,0,0)"/>
<path style="fill:none;stroke-width:1.5;stroke-linecap:square;stroke-linejoin:round;stroke:rgb(0%,0%,0%);stroke-opacity:1;stroke-miterlimit:4;" d="M 97.090625 297.159375 L 103.1875 293.996875 L 109.65 291.70625 L 116.440625 290.315625 L 123.30625 289.853125 L 130.571875 290.30625 L 137.778125 291.659375 L 145.034375 293.915625 L 152.24375 297.065625 L 159.296875 301.090625 L 166.071875 305.959375 L 172.284375 311.490625 L 177.834375 317.5875 L 182.075 323.334375 L 185.003125 328.40625 L 187.3875 334.059375 L 190.8375 344.28125 " transform="matrix(1.25,0,0,1.25,0,0)"/>
<path style="fill:none;stroke-width:1.5;stroke-linecap:square;stroke-linejoin:round;stroke:rgb(0%,0%,0%);stroke-opacity:1;stroke-miterlimit:4;" d="M 726.515625 201.246875 L 721.975 211.140625 L 717.825 222.93125 L 713.965625 236.709375 L 709.21875 256.6875 " transform="matrix(1.25,0,0,1.25,0,0)"/>
<path style="fill:none;stroke-width:1.5;stroke-linecap:square;stroke-linejoin:round;stroke:rgb(0%,0%,0%);stroke-opacity:1;stroke-miterlimit:4;" d="M 109.36875 55.440625 L 107.871875 60.228125 L 106.459375 63.30625 L 104.721875 65.534375 L 102.69375 66.78125 L 100.103125 67.1 L 97.09375 66.334375 L 92.63125 62.909375 L 90.953125 62.09375 " transform="matrix(1.25,0,0,1.25,0,0)"/>
<path style="fill:none;stroke-width:1.5;stroke-linecap:square;stroke-linejoin:round;stroke:rgb(0%,0%,0%);stroke-opacity:1;stroke-miterlimit:4;" d="M 676.296875 230.075 L 680.203125 243.38125 " transform="matrix(1.25,0,0,1.25,0,0)"/>
<path style="fill:none;stroke-width:1.5;stroke-linecap:square;stroke-linejoin:round;stroke:rgb(0%,0%,0%);stroke-opacity:1;stroke-miterlimit:4;" d="M 255.00625 340.95625 L 219.29375 351.8875 L 136.153125 376.4375 " transform="matrix(1.25,0,0,1.25,0,0)"/>
<path style="fill:none;stroke-width:1.5;stroke-linecap:square;stroke-linejoin:round;stroke:rgb(0%,0%,0%);stroke-opacity:1;stroke-miterlimit:4;" d="M 113.275 355.371875 L 116.4375 354.703125 L 119.246875 354.56875 L 121.6875 354.9875 L 123.6125 355.878125 L 125.3 357.396875 L 126.496875 359.3375 L 127.328125 361.8 L 127.78125 364.79375 " transform="matrix(1.25,0,0,1.25,0,0)"/>
<path style="fill:none;stroke-width:1.5;stroke-linecap:square;stroke-linejoin:round;stroke:rgb(0%,0%,0%);stroke-opacity:1;stroke-miterlimit:4;" d="M 682.434375 238.946875 L 685.175 242.615625 L 689 245.934375 L 704.784375 255.115625 L 706.925 255.359375 L 708.65 254.525 L 709.934375 252.721875 L 711.45 248.925 " transform="matrix(1.25,0,0,1.25,0,0)"/>
<path style="fill:none;stroke-width:1.5;stroke-linecap:square;stroke-linejoin:round;stroke:rgb(0%,0%,0%);stroke-opacity:1;stroke-miterlimit:4;" d="M 370.5125 291.615625 L 366.5 301.528125 L 363.55 310.365625 L 361.365625 319.009375 L 359.909375 327.65 " transform="matrix(1.25,0,0,1.25,0,0)"/>
<path style="fill:none;stroke-width:1.5;stroke-linecap:square;stroke-linejoin:round;stroke:rgb(0%,0%,0%);stroke-opacity:1;stroke-miterlimit:4;" d="M 600.965625 216.215625 L 592.1375 224.978125 L 586.9875 230.609375 L 582.81875 236.028125 L 579.7625 241.1625 " transform="matrix(1.25,0,0,1.25,0,0)"/>
<path style="fill:none;stroke-width:1.5;stroke-linecap:square;stroke-linejoin:round;stroke:rgb(0%,0%,0%);stroke-opacity:1;stroke-miterlimit:4;" d="M 33.48125 91.475 L 32.39375 86.690625 L 32.034375 81.90625 L 32.440625 78.078125 L 33.6125 74.890625 L 35.284375 72.79375 L 38.24375 70.76875 L 42.384375 68.715625 L 47.3625 66.9 L 69.553125 61.359375 L 128.33125 43.10625 L 149.253125 37.3375 L 157.78125 35.446875 L 162.246875 34.909375 L 166.01875 34.86875 L 169.43125 35.3 L 172.453125 36.215625 L 175.06875 37.609375 L 177.403125 39.584375 L 179.30625 42.0375 L 180.790625 44.90625 " transform="matrix(1.25,0,0,1.25,0,0)"/>
<path style="fill:none;stroke-width:1.5;stroke-linecap:square;stroke-linejoin:round;stroke:rgb(0%,0%,0%);stroke-opacity:1;stroke-miterlimit:4;" d="M 698.059375 343.728125 L 697.640625 358.70625 L 698.684375 391.478125 L 697.875 431.896875 L 698.359375 451.09375 L 699.528125 463.025 L 701.415625 473.6125 L 704.075 483.2125 L 707.56875 491.965625 L 710.315625 497.225 L 713.40625 502.084375 L 716.953125 506.69375 L 720.840625 510.89375 L 725.209375 514.821875 L 729.90625 518.340625 L 735.09375 521.565625 L 740.215625 524.10625 L 744.93125 525.89375 L 749.79375 527.225 L 754.78125 528.06875 L 759.84375 528.409375 L 765.36875 528.278125 L 771.1125 527.66875 L 783.43125 525.015625 " transform="matrix(1.25,0,0,1.25,0,0)"/>
<path style="fill:none;stroke-width:1.5;stroke-linecap:square;stroke-linejoin:round;stroke:rgb(0%,0%,0%);stroke-opacity:1;stroke-miterlimit:4;" d="M 319.734375 353.70625 L 321.365625 363.321875 L 323.359375 385.65625 L 325.4875 395.928125 L 327.2875 401.14375 L 329.8125 406.95625 L 339.553125 425.609375 L 342.909375 432.73125 L 345.615625 440.121875 L 347.109375 446.775 L 347.684375 455.909375 L 346.646875 465.128125 L 344.0625 474.284375 L 339.915625 483.4 L 333.85625 492.7625 L 326.3625 501.328125 L 317.2125 509.234375 L 306.671875 516.35 L 300.16875 519.946875 L 293.25625 523.221875 L 278.665625 528.615625 L 265.015625 532.128125 L 237.64375 537.25625 L 230.1625 539.38125 L 223.828125 541.878125 L 216.76875 545.9625 L 211.259375 550.971875 L 207.328125 556.828125 L 204.7875 563.825 " transform="matrix(1.25,0,0,1.25,0,0)"/>
<path style="fill:none;stroke-width:1.5;stroke-linecap:square;stroke-linejoin:round;stroke:rgb(0%,0%,0%);stroke-opacity:1;stroke-miterlimit:4;" d="M 611.009375 273.31875 L 595.94375 287.734375 " transform="matrix(1.25,0,0,1.25,0,0)"/>
<path style="fill:none;stroke-width:1.5;stroke-linecap:square;stroke-linejoin:round;stroke:rgb(0%,0%,0%);stroke-opacity:1;stroke-miterlimit:4;" d="M 383.346875 331.53125 L 381.328125 341.26875 L 380.084375 351.990625 L 379.51875 364.1125 L 379.440625 381.98125 " transform="matrix(1.25,0,0,1.25,0,0)"/>
<path style="fill:none;stroke-width:1.5;stroke-linecap:square;stroke-linejoin:round;stroke:rgb(0%,0%,0%);stroke-opacity:1;stroke-miterlimit:4;" d="M 450.8625 120.30625 L 450.971875 126.51875 L 452.625 132.5625 L 455.9 138.715625 L 460.76875 144.803125 L 467.3375 150.890625 L 475.303125 156.684375 L 484.46875 162.078125 L 494.5 166.871875 L 505.075 170.9375 L 516.01875 174.24375 L 527.38125 176.80625 L 538.76875 178.51875 L 548.071875 179.275 L 556.8625 179.39375 L 582.553125 176.853125 " transform="matrix(1.25,0,0,1.25,0,0)"/>
<path style="fill:none;stroke-width:1.5;stroke-linecap:square;stroke-linejoin:round;stroke:rgb(0%,0%,0%);stroke-opacity:1;stroke-miterlimit:4;" d="M 372.74375 281.634375 L 364.49375 287.74375 L 359.925 292.534375 L 355.45 299.821875 L 353.7875 303.8625 L 352.590625 307.971875 L 351.44375 316.35 L 351.74375 325.4875 L 353.49375 335.921875 L 356.890625 348.715625 L 363.51875 369.39375 L 369.978125 385.359375 L 375.84375 396.7 L 388.66875 417.5 L 394.121875 424.284375 L 401.95625 431.409375 L 409.734375 436.571875 L 420.175 441.85625 " transform="matrix(1.25,0,0,1.25,0,0)"/>
<path style="fill:none;stroke-width:1.5;stroke-linecap:square;stroke-linejoin:round;stroke:rgb(0%,0%,0%);stroke-opacity:1;stroke-miterlimit:4;" d="M 602.08125 299.375 L 608.921875 291.978125 L 612.128125 289.35 L 615.475 287.178125 " transform="matrix(1.25,0,0,1.25,0,0)"/>
<path style="fill:none;stroke-width:1.5;stroke-linecap:square;stroke-linejoin:round;stroke:rgb(0%,0%,0%);stroke-opacity:1;stroke-miterlimit:4;" d="M 683.55 115.315625 L 691.796875 117.715625 L 700.346875 121.609375 L 709.215625 126.88125 L 723.16875 136.38125 " transform="matrix(1.25,0,0,1.25,0,0)"/>
<path style="fill:none;stroke-width:1.5;stroke-linecap:square;stroke-linejoin:round;stroke:rgb(0%,0%,0%);stroke-opacity:1;stroke-miterlimit:4;" d="M 721.49375 329.3125 L 713.36875 333.603125 L 704.4 336.365625 L 694.06875 337.8 L 680.203125 338.184375 " transform="matrix(1.25,0,0,1.25,0,0)"/>
<path style="fill:none;stroke-width:1.5;stroke-linecap:square;stroke-linejoin:round;stroke:rgb(0%,0%,0%);stroke-opacity:1;stroke-miterlimit:4;" d="M 68.075 125.85 L 70.96875 124.678125 L 74.09375 123.975 L 76.953125 123.8625 L 78.9 124.371875 L 79.83125 125.384375 L 79.825 126.753125 L 78.878125 128.621875 L 77.003125 130.8375 " transform="matrix(1.25,0,0,1.25,0,0)"/>
<path style="fill:none;stroke-width:1.5;stroke-linecap:square;stroke-linejoin:round;stroke:rgb(0%,0%,0%);stroke-opacity:1;stroke-miterlimit:4;" d="M 113.275 372.003125 L 115.459375 374.25625 L 117.9625 376.034375 L 120.61875 377.228125 L 123.590625 377.9375 L 126.88125 378.15 L 130.471875 377.8875 L 139.5 375.884375 " transform="matrix(1.25,0,0,1.25,0,0)"/>
<path style="fill:none;stroke-width:1.5;stroke-linecap:square;stroke-linejoin:round;stroke:rgb(0%,0%,0%);stroke-opacity:1;stroke-miterlimit:4;" d="M 648.396875 323.76875 L 641.140625 333.19375 " transform="matrix(1.25,0,0,1.25,0,0)"/>
<path style="fill:none;stroke-width:1.5;stroke-linecap:square;stroke-linejoin:round;stroke:rgb(0%,0%,0%);stroke-opacity:1;stroke-miterlimit:4;" d="M 728.746875 201.803125 L 724.49375 213.728125 L 720.3625 227.153125 L 716.278125 242.290625 L 712.009375 260.0125 " transform="matrix(1.25,0,0,1.25,0,0)"/>
<path style="fill:none;stroke-width:1.5;stroke-linecap:square;stroke-linejoin:round;stroke:rgb(0%,0%,0%);stroke-opacity:1;stroke-miterlimit:4;" d="M 420.175 298.821875 L 420.175 305.528125 L 418.415625 312.54375 L 415.378125 319.178125 L 405.4375 336.78125 L 403.3125 342.290625 L 402.59375 346.584375 L 402.771875 349.3125 L 403.525 351.975 L 404.7875 354.36875 L 406.628125 356.61875 L 409.05 358.65625 L 411.86875 360.325 L 414.98125 361.621875 L 418.5 362.578125 " transform="matrix(1.25,0,0,1.25,0,0)"/>
<path style="fill:none;stroke-width:1.5;stroke-linecap:square;stroke-linejoin:round;stroke:rgb(0%,0%,0%);stroke-opacity:1;stroke-miterlimit:4;" d="M 109.36875 113.653125 L 116.0625 119.75 " transform="matrix(1.25,0,0,1.25,0,0)"/>
<path style="fill:none;stroke-width:1.5;stroke-linecap:square;stroke-linejoin:round;stroke:rgb(0%,0%,0%);stroke-opacity:1;stroke-miterlimit:4;" d="M 631.096875 311.01875 L 623.2875 319.8875 " transform="matrix(1.25,0,0,1.25,0,0)"/>
<path style="fill:none;stroke-width:1.5;stroke-linecap:square;stroke-linejoin:round;stroke:rgb(0%,0%,0%);stroke-opacity:1;stroke-miterlimit:4;" d="M 77.5625 130.284375 L 80.13125 130.6 L 81.896875 131.55 L 82.346875 132.9125 L 81.525 134.503125 L 79.6 136.153125 L 77.25 137.3125 L 74.5625 137.890625 L 70.865625 138.046875 " transform="matrix(1.25,0,0,1.25,0,0)"/>
<path style="fill:none;stroke-width:1.5;stroke-linecap:square;stroke-linejoin:round;stroke:rgb(0%,0%,0%);stroke-opacity:1;stroke-miterlimit:4;" d="M 381.671875 183.50625 L 377.853125 189.153125 L 374.665625 194.64375 L 372.025 200.146875 L 370.028125 205.45 L 368.584375 210.734375 L 367.69375 215.9625 L 367.259375 221.6125 L 367.315625 227.66875 L 368.38125 238.2 L 372.5375 261.715625 L 373.809375 272.209375 L 373.84375 279.525 L 372.515625 297.365625 L 372.640625 302.2625 L 373.1875 306.490625 L 374.396875 311.059375 L 376.41875 315.890625 L 384.784375 330.159375 L 387.325 335.371875 L 389.0125 340.971875 L 389.484375 346.5 " transform="matrix(1.25,0,0,1.25,0,0)"/>
<path style="fill:none;stroke-width:1.5;stroke-linecap:square;stroke-linejoin:round;stroke:rgb(0%,0%,0%);stroke-opacity:1;stroke-miterlimit:4;" d="M 509.453125 496.74375 L 529.54375 505.9125 L 536.44375 509.821875 L 542.375 513.871875 L 548.05625 518.50625 L 553.8375 523.940625 L 573.625 544.975 " transform="matrix(1.25,0,0,1.25,0,0)"/>
<path style="fill:none;stroke-width:1.5;stroke-linecap:square;stroke-linejoin:round;stroke:rgb(0%,0%,0%);stroke-opacity:1;stroke-miterlimit:4;" d="M 457.559375 245.04375 L 462.73125 240.246875 L 467.23125 236.95625 L 471.85625 234.578125 L 477.090625 232.846875 " transform="matrix(1.25,0,0,1.25,0,0)"/>
<path style="fill:none;stroke-width:1.5;stroke-linecap:square;stroke-linejoin:round;stroke:rgb(0%,0%,0%);stroke-opacity:1;stroke-miterlimit:4;" d="M 162.9375 38.253125 L 165.73125 37.73125 L 168.390625 37.88125 L 170.875 38.75 L 173.14375 40.35 L 175.0625 42.5 L 176.865625 45.390625 L 180.234375 53.778125 " transform="matrix(1.25,0,0,1.25,0,0)"/>
<path style="fill:none;stroke-width:1.5;stroke-linecap:square;stroke-linejoin:round;stroke:rgb(0%,0%,0%);stroke-opacity:1;stroke-miterlimit:4;" d="M 600.965625 240.609375 L 583.66875 261.121875 " transform="matrix(1.25,0,0,1.25,0,0)"/>
<path style="fill:none;stroke-width:1.5;stroke-linecap:square;stroke-linejoin:round;stroke:rgb(0%,0%,0%);stroke-opacity:1;stroke-miterlimit:4;" d="M 648.953125 235.065625 L 648.078125 225.621875 L 647.984375 216.93125 L 648.6875 208.684375 L 650.15625 201.01875 L 652.26875 194.515625 L 655.26875 188.228125 L 659.01875 182.45625 L 663.565625 177.175 L 669.009375 172.45625 L 674.85 168.825 L 680.95 166.328125 L 687.359375 164.978125 L 693.8 164.88125 L 699.9875 165.9875 L 706.01875 168.265625 L 711.828125 171.6875 L 718.05625 176.69375 L 723.90625 182.73125 L 729.18125 189.634375 L 733.840625 197.328125 L 737.853125 205.715625 L 741.25625 214.903125 L 743.9125 224.55625 L 745.828125 234.73125 L 746.909375 245.021875 L 747.128125 255.078125 L 746.41875 263.228125 L 744.815625 270.6375 L 742.225 277.446875 L 738.84375 283.103125 L 734.5375 287.8625 L 729.30625 291.615625 " transform="matrix(1.25,0,0,1.25,0,0)"/>
<path style="fill:none;stroke-width:1.5;stroke-linecap:square;stroke-linejoin:round;stroke:rgb(0%,0%,0%);stroke-opacity:1;stroke-miterlimit:4;" d="M 138.940625 111.434375 L 148.9875 115.86875 " transform="matrix(1.25,0,0,1.25,0,0)"/>
<path style="fill:none;stroke-width:1.5;stroke-linecap:square;stroke-linejoin:round;stroke:rgb(0%,0%,0%);stroke-opacity:1;stroke-miterlimit:4;" d="M 639.46875 318.225 L 632.2125 325.9875 " transform="matrix(1.25,0,0,1.25,0,0)"/>
<path style="fill:none;stroke-width:1.5;stroke-linecap:square;stroke-linejoin:round;stroke:rgb(0%,0%,0%);stroke-opacity:1;stroke-miterlimit:4;" d="M 88.721875 267.775 L 92.553125 264.790625 L 96.784375 262.09375 L 106.034375 257.809375 L 116.725 254.771875 L 128.85625 252.984375 L 142.703125 252.421875 L 155.16875 253.346875 L 166.50625 255.803125 L 171.721875 257.596875 L 176.65625 259.759375 L 186.115625 265.334375 L 195.109375 272.55625 L 203.396875 281.246875 L 210.596875 291.009375 L 216.403125 301.384375 L 220.75625 312.26875 L 223.428125 323.209375 L 224.315625 333.75 " transform="matrix(1.25,0,0,1.25,0,0)"/>
<path style="fill:none;stroke-width:1.5;stroke-linecap:square;stroke-linejoin:round;stroke:rgb(0%,0%,0%);stroke-opacity:1;stroke-miterlimit:4;" d="M 602.08125 207.9 L 578.0875 233.403125 " transform="matrix(1.25,0,0,1.25,0,0)"/>
<path style="fill:none;stroke-width:1.5;stroke-linecap:square;stroke-linejoin:round;stroke:rgb(0%,0%,0%);stroke-opacity:1;stroke-miterlimit:4;" d="M 723.16875 136.38125 L 725.553125 143.490625 L 727.303125 151.759375 L 728.38125 161.13125 L 728.746875 171.309375 " transform="matrix(1.25,0,0,1.25,0,0)"/>
<path style="fill:none;stroke-width:1.5;stroke-linecap:square;stroke-linejoin:round;stroke:rgb(0%,0%,0%);stroke-opacity:1;stroke-miterlimit:4;" d="M 623.2875 303.8125 L 614.359375 313.790625 " transform="matrix(1.25,0,0,1.25,0,0)"/>
<path style="fill:none;stroke-width:1.5;stroke-linecap:square;stroke-linejoin:round;stroke:rgb(0%,0%,0%);stroke-opacity:1;stroke-miterlimit:4;" d="M 676.296875 102.009375 L 673.2375 104.725 L 671.7125 108.0875 L 671.496875 111.79375 L 672.390625 120.30625 " transform="matrix(1.25,0,0,1.25,0,0)"/>
<path style="fill:none;stroke-width:1.5;stroke-linecap:square;stroke-linejoin:round;stroke:rgb(0%,0%,0%);stroke-opacity:1;stroke-miterlimit:4;" d="M 449.746875 245.04375 L 446.44375 250.64375 L 444.725 256.6875 " transform="matrix(1.25,0,0,1.25,0,0)"/>
<path style="fill:none;stroke-width:1.5;stroke-linecap:square;stroke-linejoin:round;stroke:rgb(0%,0%,0%);stroke-opacity:1;stroke-miterlimit:4;" d="M 451.98125 82.05 L 453.2625 77.796875 L 455.028125 73.83125 L 457.35 69.978125 L 460.103125 66.415625 L 463.384375 62.99375 L 467.1875 59.740625 L 471.490625 56.678125 L 476.4375 53.728125 L 488.2875 48.321875 L 502.096875 43.96875 L 513.7875 41.978125 L 526.246875 41.546875 L 536.65625 42.33125 L 547.5 44.09375 L 558.940625 46.85 L 571.121875 50.634375 L 583.940625 55.38125 L 598.45625 61.4625 L 645.575 83.259375 L 654.296875 86.35625 L 662.346875 88.15 " transform="matrix(1.25,0,0,1.25,0,0)"/>
<path style="fill:none;stroke-width:1.5;stroke-linecap:square;stroke-linejoin:round;stroke:rgb(0%,0%,0%);stroke-opacity:1;stroke-miterlimit:4;" d="M 350.98125 317.671875 L 347.16875 326.49375 L 344.553125 336.4 L 343.240625 346.9875 L 343.321875 357.58125 L 344.6 366.6875 L 346.975 375.021875 L 350.925 384.33125 L 356.859375 395.49375 L 365.4375 410.18125 L 371.95625 419.771875 L 378.878125 427.9 L 386.228125 434.403125 L 393.50625 439.05 L 400.71875 442.075 L 406.55625 443.334375 L 418.484375 444.346875 L 423.521875 445.7375 " transform="matrix(1.25,0,0,1.25,0,0)"/>
<path style="fill:none;stroke-width:1.5;stroke-linecap:square;stroke-linejoin:round;stroke:rgb(0%,0%,0%);stroke-opacity:1;stroke-miterlimit:4;" d="M 379.996875 325.43125 L 377.7 336.065625 L 376.14375 347.425 L 375.259375 359.953125 L 374.975 374.775 " transform="matrix(1.25,0,0,1.25,0,0)"/>
<path style="fill:none;stroke-width:1.5;stroke-linecap:square;stroke-linejoin:round;stroke:rgb(0%,0%,0%);stroke-opacity:1;stroke-miterlimit:4;" d="M 636.11875 364.240625 L 637.684375 373.99375 L 637.75625 381.440625 L 636.16875 389.25625 L 633.05625 396.821875 L 628.634375 403.975 L 622.7125 411.265625 L 616.0875 418.1 L 600.965625 432.43125 " transform="matrix(1.25,0,0,1.25,0,0)"/>
<path style="fill:none;stroke-width:1.5;stroke-linecap:square;stroke-linejoin:round;stroke:rgb(0%,0%,0%);stroke-opacity:1;stroke-miterlimit:4;" d="M 688.0125 242.271875 L 710.334375 253.915625 " transform="matrix(1.25,0,0,1.25,0,0)"/>
<path style="fill:none;stroke-width:1.5;stroke-linecap:square;stroke-linejoin:round;stroke:rgb(0%,0%,0%);stroke-opacity:1;stroke-miterlimit:4;" d="M 601.525 202.35625 L 594.809375 207.496875 L 588.75625 212.89375 L 583.334375 218.615625 L 578.646875 224.53125 " transform="matrix(1.25,0,0,1.25,0,0)"/>
<path style="fill:none;stroke-width:1.5;stroke-linecap:square;stroke-linejoin:round;stroke:rgb(0%,0%,0%);stroke-opacity:1;stroke-miterlimit:4;" d="M 157.35625 34.371875 L 162.640625 33.528125 L 166.84375 33.284375 L 170.290625 33.603125 L 173.234375 34.496875 L 175.853125 36.071875 L 178.021875 38.28125 L 179.884375 41.28125 L 181.35 44.90625 " transform="matrix(1.25,0,0,1.25,0,0)"/>
<path style="fill:none;stroke-width:1.5;stroke-linecap:square;stroke-linejoin:round;stroke:rgb(0%,0%,0%);stroke-opacity:1;stroke-miterlimit:4;" d="M 455.8875 94.246875 L 460.19375 85.984375 L 465.959375 78.55625 L 473.146875 72.05 L 481.66875 66.546875 L 491.584375 62.028125 L 502.50625 58.65625 L 514.359375 56.428125 L 527.2125 55.346875 L 537.95625 55.340625 L 548.859375 56.140625 L 560.178125 57.771875 L 571.95625 60.24375 L 589.703125 65.146875 L 622.4875 76.04375 L 657.325 86.4875 " transform="matrix(1.25,0,0,1.25,0,0)"/>
<path style="fill:none;stroke-width:1.5;stroke-linecap:square;stroke-linejoin:round;stroke:rgb(0%,0%,0%);stroke-opacity:1;stroke-miterlimit:4;" d="M 619.38125 297.7125 L 608.778125 310.4625 " transform="matrix(1.25,0,0,1.25,0,0)"/>
<path style="fill:none;stroke-width:1.5;stroke-linecap:square;stroke-linejoin:round;stroke:rgb(0%,0%,0%);stroke-opacity:1;stroke-miterlimit:4;" d="M 107.69375 113.096875 L 104.903125 114.20625 " transform="matrix(1.25,0,0,1.25,0,0)"/>
<path style="fill:none;stroke-width:1.5;stroke-linecap:square;stroke-linejoin:round;stroke:rgb(0%,0%,0%);stroke-opacity:1;stroke-miterlimit:4;" d="M 652.303125 327.65 L 645.046875 336.521875 " transform="matrix(1.25,0,0,1.25,0,0)"/>
<path style="fill:none;stroke-width:1.5;stroke-linecap:square;stroke-linejoin:round;stroke:rgb(0%,0%,0%);stroke-opacity:1;stroke-miterlimit:4;" d="M 133.91875 120.859375 L 132.803125 121.4125 " transform="matrix(1.25,0,0,1.25,0,0)"/>
<path style="fill:none;stroke-width:1.5;stroke-linecap:square;stroke-linejoin:round;stroke:rgb(0%,0%,0%);stroke-opacity:1;stroke-miterlimit:4;" d="M 298.53125 288.2875 L 303.49375 281.45625 L 306.784375 274.25 L 308.684375 266.121875 L 309.303125 256.596875 L 308.925 246.309375 L 307.6875 235.871875 L 301.153125 202.94375 L 299.3625 191.9125 L 298.528125 182.990625 L 298.903125 176.6875 L 300.09375 170.3625 L 302.778125 159.796875 L 306.696875 148.5 L 309.5375 142.353125 L 312.78125 136.434375 L 316.528125 130.578125 L 320.65625 124.978125 L 327.721875 116.8375 L 335.5375 109.346875 L 344.175 102.4 L 353.571875 96.05625 L 363.45625 90.484375 L 373.91875 85.625 L 383.859375 81.88125 L 396.9375 77.896875 L 407.20625 75.534375 L 416.43125 74.246875 L 424.965625 73.99375 L 432.6625 74.803125 L 439.61875 76.684375 L 445.778125 79.615625 L 451.2625 83.675 L 455.8875 88.703125 " transform="matrix(1.25,0,0,1.25,0,0)"/>
<path style="fill:none;stroke-width:1.5;stroke-linecap:square;stroke-linejoin:round;stroke:rgb(0%,0%,0%);stroke-opacity:1;stroke-miterlimit:4;" d="M 729.30625 292.721875 L 725.065625 296.278125 L 720.678125 298.890625 L 715.81875 300.73125 L 710.875 301.621875 L 705.7125 301.63125 L 700.371875 300.75 L 694.91875 298.98125 L 689.421875 296.359375 L 683.965625 292.921875 L 678.496875 288.603125 L 673.41875 283.7125 L 668.621875 278.128125 L 664.334375 272.096875 L 660.559375 265.684375 L 657.209375 258.74375 L 654.334375 251.31875 L 652.03125 243.6625 L 650.265625 235.63125 L 649.128125 227.721875 L 648.5625 219.578125 L 648.61875 211.271875 L 649.290625 203.309375 L 650.5375 195.771875 L 652.3 189.446875 L 654.715625 183.5375 L 657.715625 178.19375 L 661.35625 173.375 L 665.33125 169.49375 L 669.684375 166.434375 L 674.359375 164.234375 L 679.296875 162.90625 L 684.665625 162.440625 " transform="matrix(1.25,0,0,1.25,0,0)"/>
<path style="fill:none;stroke-width:1.5;stroke-linecap:square;stroke-linejoin:round;stroke:rgb(0%,0%,0%);stroke-opacity:1;stroke-miterlimit:4;" d="M 681.31875 241.1625 L 684.84375 244.9125 L 689.0375 248.384375 L 704.509375 258.465625 L 706.60625 258.70625 L 708.253125 257.7875 L 709.49375 255.7125 L 710.334375 252.253125 " transform="matrix(1.25,0,0,1.25,0,0)"/>
<path style="fill:none;stroke-width:1.5;stroke-linecap:square;stroke-linejoin:round;stroke:rgb(0%,0%,0%);stroke-opacity:1;stroke-miterlimit:4;" d="M 73.096875 131.39375 L 76.715625 130.978125 L 78.575 131.26875 L 79.659375 132.434375 L 79.31875 134.16875 L 77.90625 135.64375 L 75.76875 136.59375 L 73.25625 136.81875 L 70.309375 136.38125 " transform="matrix(1.25,0,0,1.25,0,0)"/>
<path style="fill:none;stroke-width:1.5;stroke-linecap:square;stroke-linejoin:round;stroke:rgb(0%,0%,0%);stroke-opacity:1;stroke-miterlimit:4;" d="M 643.375 322.659375 L 637.2375 330.421875 " transform="matrix(1.25,0,0,1.25,0,0)"/>
<path style="fill:none;stroke-width:1.5;stroke-linecap:square;stroke-linejoin:round;stroke:rgb(0%,0%,0%);stroke-opacity:1;stroke-miterlimit:4;" d="M 123.31875 107.553125 L 121.0875 108.6625 " transform="matrix(1.25,0,0,1.25,0,0)"/>
<path style="fill:none;stroke-width:1.5;stroke-linecap:square;stroke-linejoin:round;stroke:rgb(0%,0%,0%);stroke-opacity:1;stroke-miterlimit:4;" d="M 670.159375 336.521875 L 666.253125 339.846875 " transform="matrix(1.25,0,0,1.25,0,0)"/>
<path style="fill:none;stroke-width:1.5;stroke-linecap:square;stroke-linejoin:round;stroke:rgb(0%,0%,0%);stroke-opacity:1;stroke-miterlimit:4;" d="M 724.840625 191.26875 L 727.63125 199.584375 " transform="matrix(1.25,0,0,1.25,0,0)"/>
<path style="fill:none;stroke-width:1.5;stroke-linecap:square;stroke-linejoin:round;stroke:rgb(0%,0%,0%);stroke-opacity:1;stroke-miterlimit:4;" d="M 611.009375 232.846875 L 611.88125 240.4 L 613.3375 248.165625 L 615.3375 255.896875 L 617.865625 263.546875 L 620.896875 271.06875 L 624.415625 278.415625 L 628.403125 285.54375 L 632.834375 292.40625 L 637.696875 298.953125 L 642.81875 304.98125 L 648.309375 310.625 L 653.9875 315.709375 L 659.978125 320.35 L 666.0875 324.396875 L 672.4625 327.95 L 679.0875 330.978125 " transform="matrix(1.25,0,0,1.25,0,0)"/>
<path style="fill:none;stroke-width:1.5;stroke-linecap:square;stroke-linejoin:round;stroke:rgb(0%,0%,0%);stroke-opacity:1;stroke-miterlimit:4;" d="M 678.528125 102.5625 L 682.434375 112.54375 " transform="matrix(1.25,0,0,1.25,0,0)"/>
<path style="fill:none;stroke-width:1.5;stroke-linecap:square;stroke-linejoin:round;stroke:rgb(0%,0%,0%);stroke-opacity:1;stroke-miterlimit:4;" d="M 654.534375 330.978125 L 650.628125 335.4125 " transform="matrix(1.25,0,0,1.25,0,0)"/>
<path style="fill:none;stroke-width:1.5;stroke-linecap:square;stroke-linejoin:round;stroke:rgb(0%,0%,0%);stroke-opacity:1;stroke-miterlimit:4;" d="M 515.590625 269.4375 L 511.325 272.78125 L 506.5375 274.953125 L 501.9375 276.06875 L 488.909375 278.096875 L 481.646875 280.5875 L 477.61875 282.784375 L 473.871875 285.434375 L 470.271875 288.625 L 467.046875 292.16875 " transform="matrix(1.25,0,0,1.25,0,0)"/>
<path style="fill:none;stroke-width:1.5;stroke-linecap:square;stroke-linejoin:round;stroke:rgb(0%,0%,0%);stroke-opacity:1;stroke-miterlimit:4;" d="M 613.8 279.971875 L 598.734375 293.83125 " transform="matrix(1.25,0,0,1.25,0,0)"/>
<path style="fill:none;stroke-width:1.5;stroke-linecap:square;stroke-linejoin:round;stroke:rgb(0%,0%,0%);stroke-opacity:1;stroke-miterlimit:4;" d="M 464.25625 342.61875 L 464.096875 345.6625 L 463.553125 348.184375 L 460.909375 353.153125 " transform="matrix(1.25,0,0,1.25,0,0)"/>
<path style="fill:none;stroke-width:1.5;stroke-linecap:square;stroke-linejoin:round;stroke:rgb(0%,0%,0%);stroke-opacity:1;stroke-miterlimit:4;" d="M 618.2625 291.059375 L 605.43125 304.365625 " transform="matrix(1.25,0,0,1.25,0,0)"/>
<path style="fill:none;stroke-width:1.5;stroke-linecap:square;stroke-linejoin:round;stroke:rgb(0%,0%,0%);stroke-opacity:1;stroke-miterlimit:4;" d="M 669.040625 138.046875 L 659.834375 141.0625 L 640.075 146.26875 L 631.7125 148.8375 L 622.928125 152.4 L 615.15625 156.728125 L 605.828125 163.921875 L 597.684375 172.33125 L 590.728125 182.071875 L 585.196875 192.540625 L 581.05 204.03125 L 578.603125 215.928125 L 577.80625 228.35625 L 578.68125 241.246875 L 581.215625 254.50625 L 585.45 268.221875 L 591.2875 282.059375 L 598.734375 296.05 " transform="matrix(1.25,0,0,1.25,0,0)"/>
<path style="fill:none;stroke-width:1.5;stroke-linecap:square;stroke-linejoin:round;stroke:rgb(0%,0%,0%);stroke-opacity:1;stroke-miterlimit:4;" d="M 29.575 88.703125 L 38.659375 117.53125 L 116.621875 372.55625 " transform="matrix(1.25,0,0,1.25,0,0)"/>
<path style="fill:none;stroke-width:1.5;stroke-linecap:square;stroke-linejoin:round;stroke:rgb(0%,0%,0%);stroke-opacity:1;stroke-miterlimit:4;" d="M 654.534375 83.715625 L 658.6625 85.1375 L 663.140625 87.94375 L 677.4125 100.9 " transform="matrix(1.25,0,0,1.25,0,0)"/>
<path style="fill:none;stroke-width:1.5;stroke-linecap:square;stroke-linejoin:round;stroke:rgb(0%,0%,0%);stroke-opacity:1;stroke-miterlimit:4;" d="M 661.23125 84.26875 L 669.146875 84.821875 L 676.884375 86.471875 L 684.371875 89.21875 L 691.54375 93.040625 L 698.325 97.9125 L 704.63125 103.784375 L 710.378125 110.596875 L 715.35625 118.0875 " transform="matrix(1.25,0,0,1.25,0,0)"/>
<path style="fill:none;stroke-width:1.5;stroke-linecap:square;stroke-linejoin:round;stroke:rgb(0%,0%,0%);stroke-opacity:1;stroke-miterlimit:4;" d="M 109.36875 344.8375 L 113.221875 342.278125 L 117.45625 341.15625 L 121.934375 341.440625 L 126.659375 343.134375 L 131.528125 346.340625 L 135.85625 350.70625 L 139.178125 355.709375 L 141.175 360.915625 " transform="matrix(1.25,0,0,1.25,0,0)"/>
<path style="fill:none;stroke-width:1.5;stroke-linecap:square;stroke-linejoin:round;stroke:rgb(0%,0%,0%);stroke-opacity:1;stroke-miterlimit:4;" d="M 374.41875 283.853125 L 369.2375 286.86875 L 365.159375 290.5875 L 362.053125 295.171875 L 359.984375 300.4875 L 358.621875 308.1375 L 358.2375 318.65625 L 358.778125 326.43125 L 360.240625 334.615625 L 362.5875 343.36875 L 366.03125 353.65 L 376.83125 383.378125 L 382.1625 395.753125 L 391.6625 413.75 L 396.1875 420.9 L 398.925 424.18125 L 401.640625 426.66875 L 404.453125 428.496875 L 407.340625 429.659375 " transform="matrix(1.25,0,0,1.25,0,0)"/>
<path style="fill:none;stroke-width:1.5;stroke-linecap:square;stroke-linejoin:round;stroke:rgb(0%,0%,0%);stroke-opacity:1;stroke-miterlimit:4;" d="M 446.959375 258.90625 L 455.96875 249.096875 L 461.75 243.8375 L 467.784375 239.83125 L 474.575 236.953125 L 482.4875 235.059375 L 491.659375 234.10625 L 501.01875 233.965625 L 521.73125 234.5125 " transform="matrix(1.25,0,0,1.25,0,0)"/>
<path style="fill:none;stroke-width:1.5;stroke-linecap:square;stroke-linejoin:round;stroke:rgb(0%,0%,0%);stroke-opacity:1;stroke-miterlimit:4;" d="M 189.71875 364.79375 L 199.7625 386.415625 " transform="matrix(1.25,0,0,1.25,0,0)"/>
<path style="fill:none;stroke-width:1.5;stroke-linecap:square;stroke-linejoin:round;stroke:rgb(0%,0%,0%);stroke-opacity:1;stroke-miterlimit:4;" d="M 386.69375 334.85625 L 385.175 342.54375 L 384.03125 351.553125 L 382.440625 378.075 L 382.525 386.465625 L 383.903125 393.06875 " transform="matrix(1.25,0,0,1.25,0,0)"/>
<path style="fill:none;stroke-width:1.5;stroke-linecap:square;stroke-linejoin:round;stroke:rgb(0%,0%,0%);stroke-opacity:1;stroke-miterlimit:4;" d="M 262.81875 327.096875 L 261.6375 329.809375 L 260 332.39375 L 257.884375 334.809375 L 255.4375 336.9125 L 249.2125 340.590625 L 240.6375 343.846875 L 219.653125 349.8 L 130.684375 373.65 L 127.728125 374.134375 L 125.4375 374.04375 L 123.175 373.3375 L 121.0875 372.003125 " transform="matrix(1.25,0,0,1.25,0,0)"/>
<path style="fill:none;stroke-width:1.5;stroke-linecap:square;stroke-linejoin:round;stroke:rgb(0%,0%,0%);stroke-opacity:1;stroke-miterlimit:4;" d="M 616.590625 165.2125 L 590.921875 181.84375 " transform="matrix(1.25,0,0,1.25,0,0)"/>
<path style="fill:none;stroke-width:1.5;stroke-linecap:square;stroke-linejoin:round;stroke:rgb(0%,0%,0%);stroke-opacity:1;stroke-miterlimit:4;" d="M 602.640625 194.040625 L 578.0875 217.878125 " transform="matrix(1.25,0,0,1.25,0,0)"/>
<path style="fill:none;stroke-width:1.5;stroke-linecap:square;stroke-linejoin:round;stroke:rgb(0%,0%,0%);stroke-opacity:1;stroke-miterlimit:4;" d="M 677.96875 331.53125 L 675.7375 352.04375 " transform="matrix(1.25,0,0,1.25,0,0)"/>
<path style="fill:none;stroke-width:1.5;stroke-linecap:square;stroke-linejoin:round;stroke:rgb(0%,0%,0%);stroke-opacity:1;stroke-miterlimit:4;" d="M 113.83125 371.446875 L 114.946875 374.21875 " transform="matrix(1.25,0,0,1.25,0,0)"/>
<path style="fill:none;stroke-width:1.5;stroke-linecap:square;stroke-linejoin:round;stroke:rgb(0%,0%,0%);stroke-opacity:1;stroke-miterlimit:4;" d="M 676.853125 228.96875 L 705.86875 250.034375 " transform="matrix(1.25,0,0,1.25,0,0)"/>
<path style="fill:none;stroke-width:1.5;stroke-linecap:square;stroke-linejoin:round;stroke:rgb(0%,0%,0%);stroke-opacity:1;stroke-miterlimit:4;" d="M 96.534375 124.740625 L 99.265625 124.603125 L 101.503125 125.215625 L 102.584375 126.35625 L 102.421875 127.7875 L 101.165625 129.425 L 99.1 130.896875 L 92.628125 133.05625 " transform="matrix(1.25,0,0,1.25,0,0)"/>
<path style="fill:none;stroke-width:1.5;stroke-linecap:square;stroke-linejoin:round;stroke:rgb(0%,0%,0%);stroke-opacity:1;stroke-miterlimit:4;" d="M 132.803125 111.9875 L 136.709375 111.434375 " transform="matrix(1.25,0,0,1.25,0,0)"/>
<path style="fill:none;stroke-width:1.5;stroke-linecap:square;stroke-linejoin:round;stroke:rgb(0%,0%,0%);stroke-opacity:1;stroke-miterlimit:4;" d="M 660.1125 333.75 L 654.534375 338.7375 " transform="matrix(1.25,0,0,1.25,0,0)"/>
<path style="fill:none;stroke-width:1.5;stroke-linecap:square;stroke-linejoin:round;stroke:rgb(0%,0%,0%);stroke-opacity:1;stroke-miterlimit:4;" d="M 608.778125 266.1125 L 592.596875 283.296875 " transform="matrix(1.25,0,0,1.25,0,0)"/>
<path style="fill:none;stroke-width:1.5;stroke-linecap:square;stroke-linejoin:round;stroke:rgb(0%,0%,0%);stroke-opacity:1;stroke-miterlimit:4;" d="M 441.9375 350.38125 L 445.178125 348.203125 L 448.184375 347.8375 L 450.05625 348.475 L 451.565625 349.64375 L 452.171875 350.871875 L 451.909375 352.0625 L 450.4375 353.340625 L 448.478125 353.715625 L 446.29375 353.33125 L 439.328125 351.103125 L 437.16875 351.034375 L 435.44375 351.5625 L 433.5625 352.71875 L 432.1625 354.125 L 431.253125 355.74375 L 431.05 357.275 L 431.553125 358.440625 L 432.653125 359.165625 L 434.215625 359.440625 L 436.35625 359.25 " transform="matrix(1.25,0,0,1.25,0,0)"/>
<path style="fill:none;stroke-width:1.5;stroke-linecap:square;stroke-linejoin:round;stroke:rgb(0%,0%,0%);stroke-opacity:1;stroke-miterlimit:4;" d="M 680.759375 333.75 L 676.784375 351.546875 L 677.003125 354.053125 L 678.321875 355.453125 L 679.58125 355.703125 L 680.63125 355.25 L 681.68125 354.0125 L 682.521875 352.196875 L 684.146875 345.446875 L 685.225 335.965625 " transform="matrix(1.25,0,0,1.25,0,0)"/>
<path style="fill:none;stroke-width:1.5;stroke-linecap:square;stroke-linejoin:round;stroke:rgb(0%,0%,0%);stroke-opacity:1;stroke-miterlimit:4;" d="M 371.628125 286.625 L 366.896875 292.078125 L 363.396875 297.70625 L 361.05 303.65625 L 359.909375 309.909375 " transform="matrix(1.25,0,0,1.25,0,0)"/>
<path style="fill:none;stroke-width:1.5;stroke-linecap:square;stroke-linejoin:round;stroke:rgb(0%,0%,0%);stroke-opacity:1;stroke-miterlimit:4;" d="M 676.296875 286.625 L 681.75 290.93125 L 688.096875 294.34375 L 695.175 296.75 L 702.584375 298.01875 L 710.096875 298.125 L 717.478125 297.053125 L 724.309375 294.85625 L 730.421875 291.615625 " transform="matrix(1.25,0,0,1.25,0,0)"/>
<path style="fill:none;stroke-width:1.5;stroke-linecap:square;stroke-linejoin:round;stroke:rgb(0%,0%,0%);stroke-opacity:1;stroke-miterlimit:4;" d="M 181.35 43.24375 L 190.2625 73.734375 L 259.46875 301.59375 " transform="matrix(1.25,0,0,1.25,0,0)"/>
<path style="fill:none;stroke-width:1.5;stroke-linecap:square;stroke-linejoin:round;stroke:rgb(0%,0%,0%);stroke-opacity:1;stroke-miterlimit:4;" d="M 111.040625 354.2625 L 115.21875 362.128125 L 117.303125 364.40625 L 119.509375 365.784375 L 121.89375 366.38125 L 124.59375 366.28125 L 133.91875 363.6875 " transform="matrix(1.25,0,0,1.25,0,0)"/>
<path style="fill:none;stroke-width:1.5;stroke-linecap:square;stroke-linejoin:round;stroke:rgb(0%,0%,0%);stroke-opacity:1;stroke-miterlimit:4;" d="M 29.575 87.59375 L 28.7375 84.428125 L 28.675 81.3375 L 29.375 78.553125 L 30.8375 75.93125 L 33.0625 73.553125 L 36.01875 71.49375 L 39.615625 69.846875 L 43.525 68.746875 " transform="matrix(1.25,0,0,1.25,0,0)"/>
<path style="fill:none;stroke-width:1.5;stroke-linecap:square;stroke-linejoin:round;stroke:rgb(0%,0%,0%);stroke-opacity:1;stroke-miterlimit:4;" d="M 415.709375 317.671875 L 400.64375 323.08125 L 390.040625 333.75 " transform="matrix(1.25,0,0,1.25,0,0)"/>
<path style="fill:none;stroke-width:1.5;stroke-linecap:square;stroke-linejoin:round;stroke:rgb(0%,0%,0%);stroke-opacity:1;stroke-miterlimit:4;" d="M 373.303125 312.68125 L 370.1 321.0625 L 368.028125 330.996875 L 367.178125 342.115625 L 367.721875 352.596875 " transform="matrix(1.25,0,0,1.25,0,0)"/>
<path style="fill:none;stroke-width:1.5;stroke-linecap:square;stroke-linejoin:round;stroke:rgb(0%,0%,0%);stroke-opacity:1;stroke-miterlimit:4;" d="M 91.5125 282.190625 L 97.909375 277.690625 L 105.471875 274.275 L 117.053125 270.90625 L 127.259375 269.265625 L 137.10625 268.971875 L 146.48125 269.921875 L 155.34375 272.1 L 163.2875 275.40625 L 170.715625 279.990625 L 177.6 285.69375 L 184.0375 292.590625 L 189.928125 300.625 L 195.171875 309.6875 L 199.659375 319.61875 L 203.284375 330.2 L 205.903125 340.95625 " transform="matrix(1.25,0,0,1.25,0,0)"/>
<path style="fill:none;stroke-width:1.5;stroke-linecap:square;stroke-linejoin:round;stroke:rgb(0%,0%,0%);stroke-opacity:1;stroke-miterlimit:4;" d="M 503.875 238.946875 L 517.825 236.175 " transform="matrix(1.25,0,0,1.25,0,0)"/>
<path style="fill:none;stroke-width:1.5;stroke-linecap:square;stroke-linejoin:round;stroke:rgb(0%,0%,0%);stroke-opacity:1;stroke-miterlimit:4;" d="M 199.7625 367.0125 L 204.80625 378.61875 L 205.715625 381.646875 L 206.040625 384.221875 L 205.709375 386.765625 L 204.690625 388.796875 L 202.865625 390.571875 L 200.321875 391.959375 " transform="matrix(1.25,0,0,1.25,0,0)"/>
<path style="fill:none;stroke-width:1.5;stroke-linecap:square;stroke-linejoin:round;stroke:rgb(0%,0%,0%);stroke-opacity:1;stroke-miterlimit:4;" d="M 87.60625 120.30625 L 90.953125 133.05625 " transform="matrix(1.25,0,0,1.25,0,0)"/>
<path style="fill:none;stroke-width:1.5;stroke-linecap:square;stroke-linejoin:round;stroke:rgb(0%,0%,0%);stroke-opacity:1;stroke-miterlimit:4;" d="M 599.290625 235.61875 L 582.553125 254.46875 " transform="matrix(1.25,0,0,1.25,0,0)"/>
<path style="fill:none;stroke-width:1.5;stroke-linecap:square;stroke-linejoin:round;stroke:rgb(0%,0%,0%);stroke-opacity:1;stroke-miterlimit:4;" d="M 440.81875 131.946875 L 440.34375 135.390625 L 439.290625 138.74375 L 437.640625 142.175 L 435.409375 145.64375 L 429.28125 152.609375 L 420.93125 159.58125 L 410.5375 166.2875 L 399.475 171.715625 L 389.721875 175.309375 L 365.76875 182.45625 L 359.109375 185.103125 L 353.353125 188.0375 L 347.15 192.2875 L 341.871875 197.396875 L 337.33125 203.515625 L 333.834375 210.309375 L 332.18125 214.89375 L 330.91875 219.78125 L 329.490625 230.825 L 329.434375 243.021875 L 331.021875 267.703125 L 331.28125 278.065625 L 330.6 288.759375 L 328.759375 297.978125 L 327.146875 302.790625 L 324.84375 307.959375 L 318.75 318.4375 L 312.634375 326.534375 L 300.121875 340.628125 L 295.953125 346.478125 L 292.9125 352.93125 L 291.434375 359.690625 L 291.309375 365.01875 L 292 370.390625 L 293.503125 375.5125 L 295.775 380.415625 L 298.403125 384.65625 L 301.8 389.14375 L 314.821875 403.628125 L 319.690625 409.696875 L 323.5625 415.934375 L 325.634375 421.809375 L 326.071875 425.5875 L 325.771875 429.390625 L 324.734375 432.99375 L 323.009375 436.35625 L 320.634375 439.44375 L 317.509375 442.340625 L 313.771875 444.85 L 309.690625 446.846875 " transform="matrix(1.25,0,0,1.25,0,0)"/>
<path style="fill:none;stroke-width:1.5;stroke-linecap:square;stroke-linejoin:round;stroke:rgb(0%,0%,0%);stroke-opacity:1;stroke-miterlimit:4;" d="M 442.49375 116.978125 L 441.675 123.69375 L 442.5 130.259375 L 444.984375 137.01875 L 449.215625 144.065625 L 455.896875 152.209375 L 466.14375 162.51875 L 474.7 169.509375 L 484.35625 175.975 L 494.7375 181.73125 L 506.0375 186.915625 L 517.834375 191.31875 L 529.6625 194.796875 L 539.221875 196.93125 L 547.8875 198.259375 L 579.203125 200.1375 " transform="matrix(1.25,0,0,1.25,0,0)"/>
<path style="fill:none;stroke-width:1.5;stroke-linecap:square;stroke-linejoin:round;stroke:rgb(0%,0%,0%);stroke-opacity:1;stroke-miterlimit:4;" d="M 480.996875 241.71875 L 501.640625 236.175 " transform="matrix(1.25,0,0,1.25,0,0)"/>
<path style="fill:none;stroke-width:1.5;stroke-linecap:square;stroke-linejoin:round;stroke:rgb(0%,0%,0%);stroke-opacity:1;stroke-miterlimit:4;" d="M 680.759375 233.403125 L 698.615625 246.153125 L 706.371875 249.3625 L 709.775 245.04375 " transform="matrix(1.25,0,0,1.25,0,0)"/>
<path style="fill:none;stroke-width:1.5;stroke-linecap:square;stroke-linejoin:round;stroke:rgb(0%,0%,0%);stroke-opacity:1;stroke-miterlimit:4;" d="M 510.0125 502.840625 L 511.896875 509.246875 L 514.321875 515.240625 L 517.35625 521.01875 L 521.009375 526.55625 L 525.290625 531.834375 L 530.046875 536.69375 L 535.396875 541.284375 L 541.496875 545.7125 L 548.359375 549.934375 L 555.98125 553.909375 L 564.325 557.60625 L 572.828125 560.796875 L 581.075 563.315625 L 589.765625 565.4125 L 598.8625 567.071875 L 608.109375 568.25625 L 618.796875 569.05 L 629.54375 569.271875 L 640.490625 568.940625 L 651.5625 568.046875 L 662.228125 566.65625 L 672.846875 564.746875 L 685.809375 561.753125 L 695.565625 558.984375 L 702.3875 556.5375 L 708.4125 553.853125 L 714.040625 550.75 L 718.80625 547.4875 L 723.375 543.665625 L 728.06875 539.009375 L 738.790625 526.125 " transform="matrix(1.25,0,0,1.25,0,0)"/>
<path style="fill:none;stroke-width:1.5;stroke-linecap:square;stroke-linejoin:round;stroke:rgb(0%,0%,0%);stroke-opacity:1;stroke-miterlimit:4;" d="M 311.921875 321.553125 L 309.73125 295.134375 L 309.846875 286.628125 L 310.728125 278.959375 L 312.14375 272.50625 L 314.196875 265.590625 L 324.521875 238.325 L 328.13125 226.371875 L 329.5125 219.3625 L 330.490625 211.675 L 332.2875 181.159375 L 333.859375 168.2 L 335.409375 161.08125 L 337.403125 154.675 L 339.821875 148.871875 L 342.840625 143.35625 L 346.015625 138.715625 L 349.725 134.215625 L 353.965625 129.871875 L 358.575 125.834375 L 363.85 121.8375 L 369.615625 118.04375 L 382.665625 110.984375 L 391.865625 106.903125 L 402.15625 102.9375 L 428.075 94.60625 L 443.728125 90.640625 L 450.06875 89.6625 L 455.8875 89.259375 " transform="matrix(1.25,0,0,1.25,0,0)"/>
<path style="fill:none;stroke-width:1.5;stroke-linecap:square;stroke-linejoin:round;stroke:rgb(0%,0%,0%);stroke-opacity:1;stroke-miterlimit:4;" d="M 477.646875 232.846875 L 510.0125 232.846875 " transform="matrix(1.25,0,0,1.25,0,0)"/>
<path style="fill:none;stroke-width:1.5;stroke-linecap:square;stroke-linejoin:round;stroke:rgb(0%,0%,0%);stroke-opacity:1;stroke-miterlimit:4;" d="M 734.328125 350.38125 L 722.134375 373.009375 L 717.85 382.465625 L 715.35 389.55625 L 713.3375 396.69375 L 711.8125 403.871875 L 710.775 411.075 L 710.21875 418.71875 L 710.209375 426.153125 L 710.728125 433.584375 L 711.78125 440.99375 L 713.371875 448.371875 L 715.5 455.709375 L 718.084375 462.775 L 721.325 470.153125 L 726.446875 479.1125 L 732.296875 486.175 L 735.53125 489.040625 L 739.1375 491.5875 L 742.771875 493.575 L 746.584375 495.125 L 754.63125 497.021875 L 763.36875 497.41875 L 770.6875 496.578125 L 782.328125 493.78125 L 786.89375 493.421875 L 792.446875 494.246875 L 798.203125 496.484375 L 804.221875 500.421875 L 809.4625 505.68125 L 813.221875 511.6125 L 814.484375 514.771875 L 815.2375 517.809375 " transform="matrix(1.25,0,0,1.25,0,0)"/>
<path style="fill:none;stroke-width:1.5;stroke-linecap:square;stroke-linejoin:round;stroke:rgb(0%,0%,0%);stroke-opacity:1;stroke-miterlimit:4;" d="M 598.734375 226.75 L 580.878125 247.815625 " transform="matrix(1.25,0,0,1.25,0,0)"/>
<path style="fill:none;stroke-width:1.5;stroke-linecap:square;stroke-linejoin:round;stroke:rgb(0%,0%,0%);stroke-opacity:1;stroke-miterlimit:4;" d="M 128.340625 107.553125 L 131.6875 120.859375 " transform="matrix(1.25,0,0,1.25,0,0)"/>
<path style="fill:none;stroke-width:1.5;stroke-linecap:square;stroke-linejoin:round;stroke:rgb(0%,0%,0%);stroke-opacity:1;stroke-miterlimit:4;" d="M 325.3125 220.65 L 328.403125 212.90625 L 332.515625 205.540625 L 337.409375 198.984375 L 343.14375 193.0875 L 347.890625 189.196875 L 353.228125 185.609375 L 375.721875 173.209375 L 380.90625 169.55625 L 386.046875 165.371875 L 391.9375 159.909375 L 397.953125 153.621875 L 404.778125 145.659375 L 417.53125 129.509375 L 421.934375 124.803125 L 426.203125 121.034375 L 430.271875 118.21875 L 434.44375 116.125 L 438.709375 114.784375 L 443.053125 114.20625 " transform="matrix(1.25,0,0,1.25,0,0)"/>
<path style="fill:none;stroke-width:1.5;stroke-linecap:square;stroke-linejoin:round;stroke:rgb(0%,0%,0%);stroke-opacity:1;stroke-miterlimit:4;" d="M 34.0375 90.36875 L 33.528125 87.6625 L 33.60625 85.09375 L 34.28125 82.515625 L 35.503125 80.171875 L 37.33125 77.96875 L 39.615625 76.128125 L 42.265625 74.7 L 45.196875 73.734375 " transform="matrix(1.25,0,0,1.25,0,0)"/>
<path style="fill:none;stroke-width:1.5;stroke-linecap:square;stroke-linejoin:round;stroke:rgb(0%,0%,0%);stroke-opacity:1;stroke-miterlimit:4;" d="M 178.003125 42.134375 L 183.459375 55.71875 L 188.7 71.703125 L 200.10625 112.4625 L 244.090625 261.671875 L 254.0375 298.96875 L 257.7625 310.546875 L 261.703125 320.44375 " transform="matrix(1.25,0,0,1.25,0,0)"/>
<path style="fill:none;stroke-width:1.5;stroke-linecap:square;stroke-linejoin:round;stroke:rgb(0%,0%,0%);stroke-opacity:1;stroke-miterlimit:4;" d="M 664.01875 335.4125 L 661.23125 338.7375 " transform="matrix(1.25,0,0,1.25,0,0)"/>
<path style="fill:none;stroke-width:1.5;stroke-linecap:square;stroke-linejoin:round;stroke:rgb(0%,0%,0%);stroke-opacity:1;stroke-miterlimit:4;" d="M 143.40625 102.009375 L 138.384375 110.88125 " transform="matrix(1.25,0,0,1.25,0,0)"/>
<path style="fill:none;stroke-width:1.5;stroke-linecap:square;stroke-linejoin:round;stroke:rgb(0%,0%,0%);stroke-opacity:1;stroke-miterlimit:4;" d="M 262.259375 325.9875 L 260.153125 328.325 L 257.49375 330.421875 L 249.903125 334.475 L 222.184375 344.634375 L 209.921875 348.615625 L 167.784375 359.80625 L 139.996875 367.58125 L 128.071875 369.44375 L 122.671875 369.59375 L 117.7375 369.23125 " transform="matrix(1.25,0,0,1.25,0,0)"/>
<path style="fill:none;stroke-width:1.5;stroke-linecap:square;stroke-linejoin:round;stroke:rgb(0%,0%,0%);stroke-opacity:1;stroke-miterlimit:4;" d="M 587.015625 189.60625 L 611.56875 174.08125 " transform="matrix(1.25,0,0,1.25,0,0)"/>
<path style="fill:none;stroke-width:1.5;stroke-linecap:square;stroke-linejoin:round;stroke:rgb(0%,0%,0%);stroke-opacity:1;stroke-miterlimit:4;" d="M 88.1625 120.30625 L 92.878125 118.578125 L 95.665625 117.98125 L 98.05 118.203125 L 99.84375 119.403125 L 99.946875 120.821875 L 98.5375 122.5 L 95.578125 124.384375 L 92.06875 125.85 " transform="matrix(1.25,0,0,1.25,0,0)"/>
<path style="fill:none;stroke-width:1.5;stroke-linecap:square;stroke-linejoin:round;stroke:rgb(0%,0%,0%);stroke-opacity:1;stroke-miterlimit:4;" d="M 173.5375 357.034375 L 238.265625 337.075 " transform="matrix(1.25,0,0,1.25,0,0)"/>
<path style="fill:none;stroke-width:1.5;stroke-linecap:square;stroke-linejoin:round;stroke:rgb(0%,0%,0%);stroke-opacity:1;stroke-miterlimit:4;" d="M 467.603125 408.59375 L 447.515625 418.571875 " transform="matrix(1.25,0,0,1.25,0,0)"/>
<path style="fill:none;stroke-width:1.5;stroke-linecap:square;stroke-linejoin:round;stroke:rgb(0%,0%,0%);stroke-opacity:1;stroke-miterlimit:4;" d="M 723.16875 191.26875 L 707.54375 247.2625 " transform="matrix(1.25,0,0,1.25,0,0)"/>
<path style="fill:none;stroke-width:1.5;stroke-linecap:square;stroke-linejoin:round;stroke:rgb(0%,0%,0%);stroke-opacity:1;stroke-miterlimit:4;" d="M 331.453125 187.3875 L 348.25625 159.70625 L 358.925 144.390625 L 364.553125 137.56875 L 370.325 131.490625 L 376.246875 126.171875 L 382.478125 121.48125 L 389.615625 117.125 L 396.5625 113.86875 L 404.715625 111.115625 L 413.8 108.98125 L 423.38125 107.453125 L 429.296875 106.96875 L 434.7625 107.403125 L 445.840625 109.215625 " transform="matrix(1.25,0,0,1.25,0,0)"/>
<path style="fill:none;stroke-width:1.5;stroke-linecap:square;stroke-linejoin:round;stroke:rgb(0%,0%,0%);stroke-opacity:1;stroke-miterlimit:4;" d="M 89.28125 120.859375 L 92.06875 131.946875 " transform="matrix(1.25,0,0,1.25,0,0)"/>
<path style="fill:none;stroke-width:1.5;stroke-linecap:square;stroke-linejoin:round;stroke:rgb(0%,0%,0%);stroke-opacity:1;stroke-miterlimit:4;" d="M 376.65 319.8875 L 372.9375 333.15 L 370.740625 345.009375 L 370.128125 355.071875 L 371.06875 363.13125 " transform="matrix(1.25,0,0,1.25,0,0)"/>
<path style="fill:none;stroke-width:1.5;stroke-linecap:square;stroke-linejoin:round;stroke:rgb(0%,0%,0%);stroke-opacity:1;stroke-miterlimit:4;" d="M 682.990625 335.4125 L 679.64375 352.04375 " transform="matrix(1.25,0,0,1.25,0,0)"/>
<path style="fill:none;stroke-width:1.5;stroke-linecap:square;stroke-linejoin:round;stroke:rgb(0%,0%,0%);stroke-opacity:1;stroke-miterlimit:4;" d="M 374.975 291.059375 L 378.709375 289.4125 L 382.390625 288.36875 L 395.621875 286.625 " transform="matrix(1.25,0,0,1.25,0,0)"/>
<path style="fill:none;stroke-width:1.5;stroke-linecap:square;stroke-linejoin:round;stroke:rgb(0%,0%,0%);stroke-opacity:1;stroke-miterlimit:4;" d="M 459.790625 105.890625 L 467.19375 99.253125 L 475.16875 93.39375 L 483.503125 88.4625 L 492.15625 84.453125 L 501.278125 81.30625 L 510.634375 79.109375 L 520.178125 77.85625 L 529.85625 77.54375 L 537.33125 77.934375 L 545.04375 78.903125 L 552.7625 80.440625 L 560.259375 82.484375 L 573.575 87.49375 L 598.321875 99.646875 L 609.05 104.228125 L 620.20625 107.5125 L 625.453125 108.353125 L 630.540625 108.6625 " transform="matrix(1.25,0,0,1.25,0,0)"/>
<path style="fill:none;stroke-width:1.5;stroke-linecap:square;stroke-linejoin:round;stroke:rgb(0%,0%,0%);stroke-opacity:1;stroke-miterlimit:4;" d="M 369.953125 303.8125 L 367.5125 313.371875 L 365.778125 322.315625 L 364.71875 330.884375 L 364.375 338.7375 " transform="matrix(1.25,0,0,1.25,0,0)"/>
<path style="fill:none;stroke-width:1.5;stroke-linecap:square;stroke-linejoin:round;stroke:rgb(0%,0%,0%);stroke-opacity:1;stroke-miterlimit:4;" d="M 751.06875 242.828125 L 750.0625 255.45 L 747.7 267.378125 L 744.15625 277.8875 L 739.503125 286.7625 L 736.809375 290.478125 L 733.90625 293.68125 L 730.821875 296.375 L 727.425 298.65 L 723.878125 300.396875 L 720.2125 301.628125 L 716.259375 302.409375 L 712.009375 302.703125 " transform="matrix(1.25,0,0,1.25,0,0)"/>
<path style="fill:none;stroke-width:1.5;stroke-linecap:square;stroke-linejoin:round;stroke:rgb(0%,0%,0%);stroke-opacity:1;stroke-miterlimit:4;" d="M 674.621875 339.29375 L 672.390625 341.509375 " transform="matrix(1.25,0,0,1.25,0,0)"/>
<path style="fill:none;stroke-width:1.5;stroke-linecap:square;stroke-linejoin:round;stroke:rgb(0%,0%,0%);stroke-opacity:1;stroke-miterlimit:4;" d="M 717.03125 120.30625 L 724.2375 122.453125 L 731.5 125.578125 L 738.753125 129.61875 L 746.096875 134.634375 L 753.421875 140.565625 L 760.5875 147.309375 L 767.425 154.709375 L 773.865625 162.7125 L 779.85625 171.28125 L 785.403125 180.3375 L 790.390625 189.684375 L 794.803125 199.29375 L 798.634375 209.128125 L 801.878125 219.15625 L 804.571875 229.559375 L 806.6 239.884375 L 808.609375 257.3625 L 808.86875 274.74375 L 807.396875 291.88125 L 804.1625 308.909375 L 799.7125 324.60625 L 793.60625 341.678125 L 786.59375 358.7 L 771.740625 392.453125 L 767.859375 402.253125 L 764.03125 414.246875 L 761.65625 425.221875 L 760.79375 432.403125 L 760.559375 439.478125 L 760.95 444.984375 L 761.965625 449.071875 L 763.596875 451.846875 L 765.825 453.396875 L 768.725 453.775 L 772.271875 452.94375 " transform="matrix(1.25,0,0,1.25,0,0)"/>
<path style="fill:none;stroke-width:1.5;stroke-linecap:square;stroke-linejoin:round;stroke:rgb(0%,0%,0%);stroke-opacity:1;stroke-miterlimit:4;" d="M 257.796875 307.1375 L 259.4 315.03125 L 259.321875 319.996875 L 258.646875 322.225 L 257.546875 324.184375 L 255.915625 326.040625 L 253.890625 327.65 " transform="matrix(1.25,0,0,1.25,0,0)"/>
<path style="fill:none;stroke-width:1.5;stroke-linecap:square;stroke-linejoin:round;stroke:rgb(0%,0%,0%);stroke-opacity:1;stroke-miterlimit:4;" d="M 669.040625 136.38125 L 642.546875 148.409375 L 636.659375 151.55625 L 631.7 154.73125 L 626.246875 159.053125 L 621.328125 163.996875 L 616.80625 169.740625 L 612.953125 175.946875 L 609.246875 183.709375 L 606.3 192.103125 L 604.071875 201.253125 L 602.61875 211.0625 L 601.98125 221.18125 L 602.140625 231.65625 L 603.109375 242.284375 L 604.871875 252.80625 " transform="matrix(1.25,0,0,1.25,0,0)"/>
<path style="fill:none;stroke-width:1.5;stroke-linecap:square;stroke-linejoin:round;stroke:rgb(0%,0%,0%);stroke-opacity:1;stroke-miterlimit:4;" d="M 371.628125 299.93125 L 372.115625 296.9625 L 373.34375 294.540625 L 375.33125 292.496875 L 378.05625 290.840625 L 381.25625 289.61875 L 385.1625 288.65625 L 399.528125 286.625 " transform="matrix(1.25,0,0,1.25,0,0)"/>
<path style="fill:none;stroke-width:1.5;stroke-linecap:square;stroke-linejoin:round;stroke:rgb(0%,0%,0%);stroke-opacity:1;stroke-miterlimit:4;" d="M 581.99375 200.69375 L 589.95 193.115625 L 596.61875 187.6125 L 603.040625 183.321875 L 609.3375 180.18125 " transform="matrix(1.25,0,0,1.25,0,0)"/>
<path style="fill:none;stroke-width:1.5;stroke-linecap:square;stroke-linejoin:round;stroke:rgb(0%,0%,0%);stroke-opacity:1;stroke-miterlimit:4;" d="M 756.090625 274.98125 L 754.275 282.73125 L 751.875 290.3 L 748.965625 297.40625 L 745.490625 304.159375 L 741.675 310.14375 L 737.3375 315.6625 L 732.61875 320.503125 L 727.5625 324.64375 L 722.028125 328.178125 L 716.2 330.959375 L 709.915625 333.053125 L 703.390625 334.371875 L 697.825 334.86875 L 692.959375 334.625 L 687.765625 333.740625 L 678.528125 331.53125 " transform="matrix(1.25,0,0,1.25,0,0)"/>
<path style="fill:none;stroke-width:1.5;stroke-linecap:square;stroke-linejoin:round;stroke:rgb(0%,0%,0%);stroke-opacity:1;stroke-miterlimit:4;" d="M 30.690625 75.953125 L 29.190625 78.39375 L 28.184375 81.184375 L 27.715625 84.315625 L 27.790625 87.7625 L 29.440625 95.3875 L 33.48125 105.890625 " transform="matrix(1.25,0,0,1.25,0,0)"/>
<path style="fill:none;stroke-width:1.5;stroke-linecap:square;stroke-linejoin:round;stroke:rgb(0%,0%,0%);stroke-opacity:1;stroke-miterlimit:4;" d="M 175.2125 43.24375 L 199.21875 115.315625 L 251.659375 275.5375 " transform="matrix(1.25,0,0,1.25,0,0)"/>
<path style="fill:none;stroke-width:1.5;stroke-linecap:square;stroke-linejoin:round;stroke:rgb(0%,0%,0%);stroke-opacity:1;stroke-miterlimit:4;" d="M 682.434375 115.315625 L 673.50625 121.4125 " transform="matrix(1.25,0,0,1.25,0,0)"/>
<path style="fill:none;stroke-width:1.5;stroke-linecap:square;stroke-linejoin:round;stroke:rgb(0%,0%,0%);stroke-opacity:1;stroke-miterlimit:4;" d="M 191.953125 360.915625 L 201.996875 383.090625 " transform="matrix(1.25,0,0,1.25,0,0)"/>
<path style="fill:none;stroke-width:1.5;stroke-linecap:square;stroke-linejoin:round;stroke:rgb(0%,0%,0%);stroke-opacity:1;stroke-miterlimit:4;" d="M 646.1625 221.759375 L 646.453125 205.840625 L 647.11875 200.075 L 648.196875 194.971875 L 649.925 189.703125 L 652.16875 184.878125 L 655.01875 180.2875 L 658.34375 176.15625 L 662.403125 172.259375 L 666.903125 168.9625 L 671.784375 166.3 L 676.984375 164.30625 L 682.446875 163.015625 L 687.90625 162.46875 L 693.5 162.6375 L 699.175 163.546875 " transform="matrix(1.25,0,0,1.25,0,0)"/>
<path style="fill:none;stroke-width:1.5;stroke-linecap:square;stroke-linejoin:round;stroke:rgb(0%,0%,0%);stroke-opacity:1;stroke-miterlimit:4;" d="M 146.753125 116.978125 L 149.54375 116.425 " transform="matrix(1.25,0,0,1.25,0,0)"/>
<path style="fill:none;stroke-width:1.5;stroke-linecap:square;stroke-linejoin:round;stroke:rgb(0%,0%,0%);stroke-opacity:1;stroke-miterlimit:4;" d="M 679.0875 102.5625 L 688.88125 104.771875 L 696.428125 107.03125 L 702.60625 109.596875 L 707.84375 112.665625 L 712.05625 116.234375 L 715.31875 120.43125 L 717.5 125.071875 L 718.703125 130.284375 " transform="matrix(1.25,0,0,1.25,0,0)"/>
<path style="fill:none;stroke-width:1.5;stroke-linecap:square;stroke-linejoin:round;stroke:rgb(0%,0%,0%);stroke-opacity:1;stroke-miterlimit:4;" d="M 117.7375 367.56875 L 122.74375 368.071875 L 128.4125 367.828125 L 134.703125 366.825 L 141.9625 364.996875 L 172.71875 354.546875 L 259.46875 326.540625 " transform="matrix(1.25,0,0,1.25,0,0)"/>
<path style="fill:none;stroke-width:1.5;stroke-linecap:square;stroke-linejoin:round;stroke:rgb(0%,0%,0%);stroke-opacity:1;stroke-miterlimit:4;" d="M 652.859375 83.159375 L 660.559375 88.615625 L 665.80625 93.43125 L 669.515625 98.359375 L 671.83125 103.671875 " transform="matrix(1.25,0,0,1.25,0,0)"/>
<path style="fill:none;stroke-width:1.5;stroke-linecap:square;stroke-linejoin:round;stroke:rgb(0%,0%,0%);stroke-opacity:1;stroke-miterlimit:4;" d="M 99.88125 123.63125 L 102.2125 124.10625 L 103.61875 125.228125 L 103.9125 126.815625 L 103.05625 128.528125 L 101.0625 130.284375 L 98.590625 131.590625 L 95.4625 132.55625 L 92.06875 133.05625 " transform="matrix(1.25,0,0,1.25,0,0)"/>
<path style="fill:none;stroke-width:1.5;stroke-linecap:square;stroke-linejoin:round;stroke:rgb(0%,0%,0%);stroke-opacity:1;stroke-miterlimit:4;" d="M 260.5875 306.028125 L 262.459375 315.421875 L 262.559375 319.4125 L 262.109375 323.05 L 261.121875 326.3625 L 259.528125 329.55 L 257.2625 332.61875 L 254.446875 335.4125 " transform="matrix(1.25,0,0,1.25,0,0)"/>
<path style="fill:none;stroke-width:1.5;stroke-linecap:square;stroke-linejoin:round;stroke:rgb(0%,0%,0%);stroke-opacity:1;stroke-miterlimit:4;" d="M 604.871875 252.80625 L 607.9125 260.384375 L 614.196875 278.2375 L 618.003125 286.940625 L 624.946875 298.696875 L 628.93125 304.1375 L 633.209375 309.21875 L 638.084375 314.23125 L 643.44375 318.978125 L 648.965625 323.18125 L 654.984375 327.1 L 661.321875 330.603125 L 667.978125 333.696875 L 674.946875 336.3875 L 682.434375 338.7375 " transform="matrix(1.25,0,0,1.25,0,0)"/>
<path style="fill:none;stroke-width:1.5;stroke-linecap:square;stroke-linejoin:round;stroke:rgb(0%,0%,0%);stroke-opacity:1;stroke-miterlimit:4;" d="M 136.709375 110.88125 L 138.453125 106.99375 L 140.1 104.428125 L 142.165625 102.5375 L 144.521875 101.45625 " transform="matrix(1.25,0,0,1.25,0,0)"/>
<path style="fill:none;stroke-width:1.5;stroke-linecap:square;stroke-linejoin:round;stroke:rgb(0%,0%,0%);stroke-opacity:1;stroke-miterlimit:4;" d="M 410.6875 361.46875 L 412.95625 366.203125 L 414.146875 367.596875 L 415.709375 368.675 " transform="matrix(1.25,0,0,1.25,0,0)"/>
</g>
</svg>
