<?xml version="1.0" encoding="UTF-8"?>
<svg xmlns="http://www.w3.org/2000/svg" xmlns:xlink="http://www.w3.org/1999/xlink" width="1935.11811" height="1935.11811" viewBox="0 0 1935.11811 1935.11811" version="1.1">
<g id="surface1">
<path style="fill:none;stroke-width:2;stroke-linecap:butt;stroke-linejoin:miter;stroke:rgb(0%,0%,0%);stroke-opacity:1;stroke-miterlimit:4;" d="M 201.499845 2.500106 L 219.49978 18.500163 L 231.500081 36.500098 " transform="matrix(3.779528,0,0,3.779528,0,0)"/>
<path style="fill:none;stroke-width:2;stroke-linecap:butt;stroke-linejoin:miter;stroke:rgb(0%,0%,0%);stroke-opacity:1;stroke-miterlimit:4;" d="M 242.499927 17.999935 L 225.999642 10.499618 " transform="matrix(3.779528,0,0,3.779528,0,0)"/>
<path style="fill:none;stroke-width:2;stroke-linecap:butt;stroke-linejoin:miter;stroke:rgb(0%,0%,0%);stroke-opacity:1;stroke-miterlimit:4;" d="M 218.999552 9.500195 L 234.999609 19.499585 " transform="matrix(3.779528,0,0,3.779528,0,0)"/>
<path style="fill:none;stroke-width:2;stroke-linecap:butt;stroke-linejoin:miter;stroke:rgb(0%,0%,0%);stroke-opacity:1;stroke-miterlimit:4;" d="M 240.500049 28.000358 L 224.499992 19.999813 L 207.999707 10.000423 " transform="matrix(3.779528,0,0,3.779528,0,0)"/>
<path style="fill:none;stroke-width:2;stroke-linecap:butt;stroke-linejoin:miter;stroke:rgb(0%,0%,0%);stroke-opacity:1;stroke-miterlimit:4;" d="M 205.000407 1.49965 L 228.999976 17.499707 L 237.499715 35.499642 L 235.499837 51.499699 L 234.000187 66.999528 L 230.000431 83.499813 L 230.000431 105.499504 L 212.000496 121.999788 L 189.999772 137.999845 " transform="matrix(3.779528,0,0,3.779528,0,0)"/>
<path style="fill:none;stroke-width:2;stroke-linecap:butt;stroke-linejoin:miter;stroke:rgb(0%,0%,0%);stroke-opacity:1;stroke-miterlimit:4;" d="M 216.50048 134.00009 L 216.999674 137.999845 L 216.999674 169.999959 L 214.999797 186.500244 L 218.999552 196.499634 L 225.00022 212.499691 L 228.499748 228.499748 L 221.999886 236.500293 L 225.500448 246.499683 L 249.500016 262.49974 " transform="matrix(3.779528,0,0,3.779528,0,0)"/>
<path style="fill:none;stroke-width:2;stroke-linecap:butt;stroke-linejoin:miter;stroke:rgb(0%,0%,0%);stroke-opacity:1;stroke-miterlimit:4;" d="M 245.50026 252.50035 L 261.999512 262.49974 L 277.999569 270.500285 L 272.500163 286.500342 L 256.500106 302.500399 L 261.00009 318.000228 L 261.500317 334.000285 L 275.500496 336.000163 L 289.99987 354.000098 L 269.499829 370.000155 L 251.499894 386.000212 L 249.500016 402.000269 L 252.999544 418.49952 L 259.000212 434.499577 L 264.499618 450.000439 L 280.499674 447.999528 L 295.999504 443.999772 L 311.999561 434.000382 L 323.999862 418.000326 L 339.499691 413.500342 L 355.499748 413.500342 L 371.499805 411.500464 L 388.00009 409.499552 L 404.000146 409.499552 L 420.000203 409.99978 L 436.00026 409.99978 L 452.000317 407.499674 L 468.499569 405.499797 " transform="matrix(3.779528,0,0,3.779528,0,0)"/>
<path style="fill:none;stroke-width:2;stroke-linecap:butt;stroke-linejoin:miter;stroke:rgb(0%,0%,0%);stroke-opacity:1;stroke-miterlimit:4;" d="M 454.500423 377.500472 L 470.50048 384.000334 L 486.499504 389.999967 L 502.499561 393.999723 " transform="matrix(3.779528,0,0,3.779528,0,0)"/>
<path style="fill:none;stroke-width:2;stroke-linecap:butt;stroke-linejoin:miter;stroke:rgb(0%,0%,0%);stroke-opacity:1;stroke-miterlimit:4;" d="M 504.999666 465.000041 L 489.499837 461.500513 L 489.499837 467.500146 " transform="matrix(3.779528,0,0,3.779528,0,0)"/>
<path style="fill:none;stroke-width:2;stroke-linecap:butt;stroke-linejoin:miter;stroke:rgb(0%,0%,0%);stroke-opacity:1;stroke-miterlimit:4;" d="M 466.999919 470.999674 L 490.999487 487.499959 L 497.000155 503.500016 " transform="matrix(3.779528,0,0,3.779528,0,0)"/>
<path style="fill:none;stroke-width:2;stroke-linecap:butt;stroke-linejoin:miter;stroke:rgb(0%,0%,0%);stroke-opacity:1;stroke-miterlimit:4;" d="M 496.499927 495.000277 L 480.49987 477.000342 L 463.999585 470.50048 L 448.499756 466.499691 L 432.499699 460.500057 " transform="matrix(3.779528,0,0,3.779528,0,0)"/>
<path style="fill:none;stroke-width:2;stroke-linecap:butt;stroke-linejoin:miter;stroke:rgb(0%,0%,0%);stroke-opacity:1;stroke-miterlimit:4;" d="M 414.499764 441.000472 L 430.499821 420.999626 L 422.500309 436.500488 L 422.500309 452.499512 L 434.000382 462.499935 L 479.999642 472.500358 L 497.999577 488.999609 L 508 500.99991 " transform="matrix(3.779528,0,0,3.779528,0,0)"/>
<path style="fill:none;stroke-width:2;stroke-linecap:butt;stroke-linejoin:miter;stroke:rgb(0%,0%,0%);stroke-opacity:1;stroke-miterlimit:4;" d="M 454.999618 411.999658 L 438.999561 420.000203 L 422.999504 427.499487 " transform="matrix(3.779528,0,0,3.779528,0,0)"/>
<path style="fill:none;stroke-width:2;stroke-linecap:butt;stroke-linejoin:miter;stroke:rgb(0%,0%,0%);stroke-opacity:1;stroke-miterlimit:4;" d="M 401.500041 355.999976 L 417.500098 345.999552 L 433.500155 345.999552 L 433.500155 361.999609 L 445.99965 366.000399 L 454.000195 361.999609 L 470.50048 361.500415 L 486.499504 361.999609 " transform="matrix(3.779528,0,0,3.779528,0,0)"/>
<path style="fill:none;stroke-width:2;stroke-linecap:butt;stroke-linejoin:miter;stroke:rgb(0%,0%,0%);stroke-opacity:1;stroke-miterlimit:4;" d="M 471.499902 335.499935 L 455.499845 339.999919 L 439.499788 341.999797 " transform="matrix(3.779528,0,0,3.779528,0,0)"/>
<path style="fill:none;stroke-width:2;stroke-linecap:butt;stroke-linejoin:miter;stroke:rgb(0%,0%,0%);stroke-opacity:1;stroke-miterlimit:4;" d="M 443.00035 340.500146 L 441.000472 356.500203 L 438.999561 376.500016 L 455.499845 374.500138 L 471.499902 378.499894 L 487.499959 386.500439 " transform="matrix(3.779528,0,0,3.779528,0,0)"/>
<path style="fill:none;stroke-width:2;stroke-linecap:butt;stroke-linejoin:miter;stroke:rgb(0%,0%,0%);stroke-opacity:1;stroke-miterlimit:4;" d="M 460.500057 319.499878 L 444.5 311.500366 " transform="matrix(3.779528,0,0,3.779528,0,0)"/>
<path style="fill:none;stroke-width:2;stroke-linecap:butt;stroke-linejoin:miter;stroke:rgb(0%,0%,0%);stroke-opacity:1;stroke-miterlimit:4;" d="M 440.000016 309.00026 L 456.000073 307.000382 L 472.500358 302.999593 L 488.999609 300.999715 L 504.999666 298.999837 " transform="matrix(3.779528,0,0,3.779528,0,0)"/>
<path style="fill:none;stroke-width:2;stroke-linecap:butt;stroke-linejoin:miter;stroke:rgb(0%,0%,0%);stroke-opacity:1;stroke-miterlimit:4;" d="M 463.500391 332.499601 L 447.500334 334.500513 L 431.500277 338.500269 " transform="matrix(3.779528,0,0,3.779528,0,0)"/>
<path style="fill:none;stroke-width:2;stroke-linecap:butt;stroke-linejoin:miter;stroke:rgb(0%,0%,0%);stroke-opacity:1;stroke-miterlimit:4;" d="M 431.500277 312.499788 L 465.000041 328.499845 " transform="matrix(3.779528,0,0,3.779528,0,0)"/>
<path style="fill:none;stroke-width:2;stroke-linecap:butt;stroke-linejoin:miter;stroke:rgb(0%,0%,0%);stroke-opacity:1;stroke-miterlimit:4;" d="M 456.000073 321.999984 L 439.499788 315.500122 L 423.499731 309.500488 " transform="matrix(3.779528,0,0,3.779528,0,0)"/>
<path style="fill:none;stroke-width:2;stroke-linecap:butt;stroke-linejoin:miter;stroke:rgb(0%,0%,0%);stroke-opacity:1;stroke-miterlimit:4;" d="M 422.000081 305.999927 L 438.000138 304.000049 L 454.000195 300.000293 L 470.000252 298.000415 L 486.000309 293.999626 L 502.000366 293.999626 " transform="matrix(3.779528,0,0,3.779528,0,0)"/>
<path style="fill:none;stroke-width:2;stroke-linecap:butt;stroke-linejoin:miter;stroke:rgb(0%,0%,0%);stroke-opacity:1;stroke-miterlimit:4;" d="M 501.500138 261.500317 L 485.500081 250.999666 L 469.500024 243.000155 L 452.99974 250.500472 L 438.999561 254.500228 L 434.999805 238.500171 L 418.999748 216.50048 L 402.999691 212.000496 L 386.500439 209.999585 L 370.500382 211.500269 " transform="matrix(3.779528,0,0,3.779528,0,0)"/>
<path style="fill:none;stroke-width:2;stroke-linecap:butt;stroke-linejoin:miter;stroke:rgb(0%,0%,0%);stroke-opacity:1;stroke-miterlimit:4;" d="M 373.499683 209.500391 L 387.499862 225.500448 " transform="matrix(3.779528,0,0,3.779528,0,0)"/>
<path style="fill:none;stroke-width:2;stroke-linecap:butt;stroke-linejoin:miter;stroke:rgb(0%,0%,0%);stroke-opacity:1;stroke-miterlimit:4;" d="M 389.999967 226.49987 L 373.99991 216.000252 " transform="matrix(3.779528,0,0,3.779528,0,0)"/>
<path style="fill:none;stroke-width:2;stroke-linecap:butt;stroke-linejoin:miter;stroke:rgb(0%,0%,0%);stroke-opacity:1;stroke-miterlimit:4;" d="M 345.500358 189.499544 L 329.500301 189.499544 " transform="matrix(3.779528,0,0,3.779528,0,0)"/>
<path style="fill:none;stroke-width:2;stroke-linecap:butt;stroke-linejoin:miter;stroke:rgb(0%,0%,0%);stroke-opacity:1;stroke-miterlimit:4;" d="M 329.500301 187.999894 L 345.500358 180.000382 " transform="matrix(3.779528,0,0,3.779528,0,0)"/>
<path style="fill:none;stroke-width:2;stroke-linecap:butt;stroke-linejoin:miter;stroke:rgb(0%,0%,0%);stroke-opacity:1;stroke-miterlimit:4;" d="M 350.000342 175.999593 L 334.000285 168.000081 " transform="matrix(3.779528,0,0,3.779528,0,0)"/>
<path style="fill:none;stroke-width:2;stroke-linecap:butt;stroke-linejoin:miter;stroke:rgb(0%,0%,0%);stroke-opacity:1;stroke-miterlimit:4;" d="M 336.999585 170.500187 L 357.000431 186.000016 " transform="matrix(3.779528,0,0,3.779528,0,0)"/>
<path style="fill:none;stroke-width:2;stroke-linecap:butt;stroke-linejoin:miter;stroke:rgb(0%,0%,0%);stroke-opacity:1;stroke-miterlimit:4;" d="M 349.500114 194.499756 L 333.500057 196.499634 L 317.5 206.500057 " transform="matrix(3.779528,0,0,3.779528,0,0)"/>
<path style="fill:none;stroke-width:2;stroke-linecap:butt;stroke-linejoin:miter;stroke:rgb(0%,0%,0%);stroke-opacity:1;stroke-miterlimit:4;" d="M 323.000439 203.499723 L 339.000496 207.500513 L 353.49987 209.999585 L 355.999976 230.000431 L 382.49965 239.999821 " transform="matrix(3.779528,0,0,3.779528,0,0)"/>
<path style="fill:none;stroke-width:2;stroke-linecap:butt;stroke-linejoin:miter;stroke:rgb(0%,0%,0%);stroke-opacity:1;stroke-miterlimit:4;" d="M 374.500138 241.999699 L 359.000309 236.000065 L 339.000496 232.000309 L 323.499634 218.500358 " transform="matrix(3.779528,0,0,3.779528,0,0)"/>
<path style="fill:none;stroke-width:2;stroke-linecap:butt;stroke-linejoin:miter;stroke:rgb(0%,0%,0%);stroke-opacity:1;stroke-miterlimit:4;" d="M 325.000317 203.499723 L 350.999764 219.49978 L 343.000252 225.500448 L 364.499715 217.499902 L 379.999544 225.00022 " transform="matrix(3.779528,0,0,3.779528,0,0)"/>
<path style="fill:none;stroke-width:2;stroke-linecap:butt;stroke-linejoin:miter;stroke:rgb(0%,0%,0%);stroke-opacity:1;stroke-miterlimit:4;" d="M 406.000024 249.500016 L 406.000024 265.500073 L 411.999658 289.499642 " transform="matrix(3.779528,0,0,3.779528,0,0)"/>
<path style="fill:none;stroke-width:2;stroke-linecap:butt;stroke-linejoin:miter;stroke:rgb(0%,0%,0%);stroke-opacity:1;stroke-miterlimit:4;" d="M 410.500008 276.499919 L 394.499951 289.99987 L 378.499894 280.00048 L 362.499837 266.000301 " transform="matrix(3.779528,0,0,3.779528,0,0)"/>
<path style="fill:none;stroke-width:2;stroke-linecap:butt;stroke-linejoin:miter;stroke:rgb(0%,0%,0%);stroke-opacity:1;stroke-miterlimit:4;" d="M 352.999642 267.499951 L 370.999577 283.500008 L 395.000179 300.000293 " transform="matrix(3.779528,0,0,3.779528,0,0)"/>
<path style="fill:none;stroke-width:2;stroke-linecap:butt;stroke-linejoin:miter;stroke:rgb(0%,0%,0%);stroke-opacity:1;stroke-miterlimit:4;" d="M 375.000366 334.500513 L 359.000309 324.50009 L 343.000252 316.499544 L 327.000195 310.49991 " transform="matrix(3.779528,0,0,3.779528,0,0)"/>
<path style="fill:none;stroke-width:2;stroke-linecap:butt;stroke-linejoin:miter;stroke:rgb(0%,0%,0%);stroke-opacity:1;stroke-miterlimit:4;" d="M 320.500334 308.500033 L 336.500391 308.500033 L 352.00022 314.499666 L 368.500505 324.50009 L 384.499528 334.999707 L 398.499707 345.00013 L 396.499829 360.499959 L 396.499829 377.000244 " transform="matrix(3.779528,0,0,3.779528,0,0)"/>
<path style="fill:none;stroke-width:2;stroke-linecap:butt;stroke-linejoin:miter;stroke:rgb(0%,0%,0%);stroke-opacity:1;stroke-miterlimit:4;" d="M 404.500374 371.499805 L 402.500496 361.999609 L 416.000448 345.999552 L 423.499731 338.000041 L 407.00048 338.000041 L 406.500252 341.999797 L 400.499585 350.499536 " transform="matrix(3.779528,0,0,3.779528,0,0)"/>
<path style="fill:none;stroke-width:2;stroke-linecap:butt;stroke-linejoin:miter;stroke:rgb(0%,0%,0%);stroke-opacity:1;stroke-miterlimit:4;" d="M 343.999674 352.999642 L 327.999618 354.99952 " transform="matrix(3.779528,0,0,3.779528,0,0)"/>
<path style="fill:none;stroke-width:2;stroke-linecap:butt;stroke-linejoin:miter;stroke:rgb(0%,0%,0%);stroke-opacity:1;stroke-miterlimit:4;" d="M 321.999984 357.000431 L 338.000041 350.999764 L 370.000155 347.000008 " transform="matrix(3.779528,0,0,3.779528,0,0)"/>
<path style="fill:none;stroke-width:2;stroke-linecap:butt;stroke-linejoin:miter;stroke:rgb(0%,0%,0%);stroke-opacity:1;stroke-miterlimit:4;" d="M 368.999699 368.500505 L 352.999642 368.500505 L 336.999585 373.000488 L 320.999528 377.000244 " transform="matrix(3.779528,0,0,3.779528,0,0)"/>
<path style="fill:none;stroke-width:2;stroke-linecap:butt;stroke-linejoin:miter;stroke:rgb(0%,0%,0%);stroke-opacity:1;stroke-miterlimit:4;" d="M 330.499723 347.000008 L 316.499544 363.000065 L 320.500334 370.999577 L 336.500391 365.500171 L 352.999642 363.000065 " transform="matrix(3.779528,0,0,3.779528,0,0)"/>
<path style="fill:none;stroke-width:2;stroke-linecap:butt;stroke-linejoin:miter;stroke:rgb(0%,0%,0%);stroke-opacity:1;stroke-miterlimit:4;" d="M 380.499772 375.999788 L 363.999487 373.499683 L 348.000464 373.499683 L 332.000407 377.500472 L 316.00035 379.999544 L 300.000293 382.000456 L 284.000236 384.000334 L 268.000179 388.00009 " transform="matrix(3.779528,0,0,3.779528,0,0)"/>
<path style="fill:none;stroke-width:2;stroke-linecap:butt;stroke-linejoin:miter;stroke:rgb(0%,0%,0%);stroke-opacity:1;stroke-miterlimit:4;" d="M 268.500407 386.999634 L 266.499495 402.500496 L 271.000513 418.49952 L 273.499585 434.499577 L 269.499829 450.499634 " transform="matrix(3.779528,0,0,3.779528,0,0)"/>
<path style="fill:none;stroke-width:2;stroke-linecap:butt;stroke-linejoin:miter;stroke:rgb(0%,0%,0%);stroke-opacity:1;stroke-miterlimit:4;" d="M 266.999723 442.500122 L 261.00009 425.999837 L 256.500106 409.99978 L 254.500228 393.499495 L 268.500407 377.999666 L 288.50022 361.500415 L 286.500342 337.499813 L 268.999601 321.499756 L 262.49974 305.499699 L 278.499797 289.499642 L 295.999504 275.500496 L 280.00048 281.50013 L 263.500195 291.49952 L 261.00009 298.999837 " transform="matrix(3.779528,0,0,3.779528,0,0)"/>
<path style="fill:none;stroke-width:2;stroke-linecap:butt;stroke-linejoin:miter;stroke:rgb(0%,0%,0%);stroke-opacity:1;stroke-miterlimit:4;" d="M 271.000513 295.500309 L 286.999536 284.999658 L 292.499976 295.000081 L 288.50022 311.000138 L 264.499618 316.499544 L 280.499674 308.500033 L 288.50022 291.999748 L 280.999902 308.500033 L 275.000269 318.000228 L 302.999593 309.999683 L 318.500456 300.499487 L 334.500513 282.000358 L 350.999764 266.000301 L 367.500049 277.999569 L 384.000334 291.999748 L 400.499585 291.999748 L 416.499642 275.500496 " transform="matrix(3.779528,0,0,3.779528,0,0)"/>
<path style="fill:none;stroke-width:2;stroke-linecap:butt;stroke-linejoin:miter;stroke:rgb(0%,0%,0%);stroke-opacity:1;stroke-miterlimit:4;" d="M 440.500244 307.999805 L 468.499569 323.999862 " transform="matrix(3.779528,0,0,3.779528,0,0)"/>
<path style="fill:none;stroke-width:2;stroke-linecap:butt;stroke-linejoin:miter;stroke:rgb(0%,0%,0%);stroke-opacity:1;stroke-miterlimit:4;" d="M 495.999699 252.000122 L 480.49987 241.999699 L 464.499813 237.999943 L 447.999528 248.000366 L 441.999894 246.499683 L 438.000138 230.499626 L 421.499854 212.000496 L 405.499797 207.999707 L 389.999967 203.999951 L 373.99991 205.999829 L 358.500081 209.500391 L 342.500024 203.499723 L 325.99974 199.499967 " transform="matrix(3.779528,0,0,3.779528,0,0)"/>
<path style="fill:none;stroke-width:2;stroke-linecap:butt;stroke-linejoin:miter;stroke:rgb(0%,0%,0%);stroke-opacity:1;stroke-miterlimit:4;" d="M 337.499813 175.999593 L 325.499512 196.000439 L 321.499756 212.000496 L 329.000073 227.99952 L 342.500024 233.499959 L 363.999487 239.999821 L 351.499992 252.000122 L 369.499927 258.499984 L 368.999699 275.000269 L 388.500317 291.000326 " transform="matrix(3.779528,0,0,3.779528,0,0)"/>
<path style="fill:none;stroke-width:2;stroke-linecap:butt;stroke-linejoin:miter;stroke:rgb(0%,0%,0%);stroke-opacity:1;stroke-miterlimit:4;" d="M 347.500236 266.000301 L 335.499935 282.000358 L 321.999984 298.000415 L 325.99974 309.999683 L 359.999731 326.499967 L 391.999845 344.499902 L 389.999967 360.499959 L 390.500195 375.999788 L 400.499585 375.999788 L 416.499642 375.499561 L 432.000505 372.000033 L 447.999528 372.000033 L 457.999951 366.000399 L 474.500236 366.000399 L 490.500293 366.499593 " transform="matrix(3.779528,0,0,3.779528,0,0)"/>
<path style="fill:none;stroke-width:2;stroke-linecap:butt;stroke-linejoin:miter;stroke:rgb(0%,0%,0%);stroke-opacity:1;stroke-miterlimit:4;" d="M 377.000244 342.500024 L 361.000187 342.500024 L 345.00013 345.00013 L 329.000073 347.000008 L 313.500244 359.000309 L 298.000415 352.999642 L 282.000358 361.000187 L 266.499495 373.000488 L 250.500472 382.999878 " transform="matrix(3.779528,0,0,3.779528,0,0)"/>
<path style="fill:none;stroke-width:2;stroke-linecap:butt;stroke-linejoin:miter;stroke:rgb(0%,0%,0%);stroke-opacity:1;stroke-miterlimit:4;" d="M 253.499772 390.500195 L 269.499829 378.499894 L 285.499886 364.999943 L 297.500187 361.000187 L 299.500065 377.000244 L 291.49952 368.999699 L 279.500252 381 " transform="matrix(3.779528,0,0,3.779528,0,0)"/>
<path style="fill:none;stroke-width:2;stroke-linecap:butt;stroke-linejoin:miter;stroke:rgb(0%,0%,0%);stroke-opacity:1;stroke-miterlimit:4;" d="M 262.49974 390.500195 L 262.49974 406.000024 L 268.500407 421.499854 L 270.500285 437.49991 " transform="matrix(3.779528,0,0,3.779528,0,0)"/>
<path style="fill:none;stroke-width:2;stroke-linecap:butt;stroke-linejoin:miter;stroke:rgb(0%,0%,0%);stroke-opacity:1;stroke-miterlimit:4;" d="M 262.999967 449.500212 L 255.000456 409.499552 " transform="matrix(3.779528,0,0,3.779528,0,0)"/>
<path style="fill:none;stroke-width:2;stroke-linecap:butt;stroke-linejoin:miter;stroke:rgb(0%,0%,0%);stroke-opacity:1;stroke-miterlimit:4;" d="M 245.000033 429.999593 L 228.499748 404.500374 L 212.000496 397.000057 L 195.500212 395.000179 L 179.500155 391.499618 L 163.500098 389.49974 L 148.000269 385.499984 L 132.500439 379.50035 L 116.500382 375.000366 L 100.99952 370.500382 L 85.000496 378.499894 L 69.499634 392.500073 L 51.499699 408.50013 L 35.499642 404.500374 L 19.499585 402.500496 L 3.499528 402.999691 " transform="matrix(3.779528,0,0,3.779528,0,0)"/>
<path style="fill:none;stroke-width:2;stroke-linecap:butt;stroke-linejoin:miter;stroke:rgb(0%,0%,0%);stroke-opacity:1;stroke-miterlimit:4;" d="M 2.500106 405.499797 L 18.500163 405.499797 L 35.000448 407.499674 L 51.000505 411.500464 L 82.500391 386.999634 L 98.00022 375.499561 " transform="matrix(3.779528,0,0,3.779528,0,0)"/>
<path style="fill:none;stroke-width:2;stroke-linecap:butt;stroke-linejoin:miter;stroke:rgb(0%,0%,0%);stroke-opacity:1;stroke-miterlimit:4;" d="M 95.500114 375.999788 L 77.500179 391.499618 L 61.500122 407.499674 L 57.500366 423.499731 L 55.500488 439.499788 L 62.999772 455.499845 L 73.500423 471.499902 L 78.000407 486.999731 L 91.999552 467.500146 L 103.999854 459.499601 " transform="matrix(3.779528,0,0,3.779528,0,0)"/>
<path style="fill:none;stroke-width:2;stroke-linecap:butt;stroke-linejoin:miter;stroke:rgb(0%,0%,0%);stroke-opacity:1;stroke-miterlimit:4;" d="M 91.500358 448.999984 L 107.000187 427.499487 L 98.999642 429.999593 L 92.49978 445.99965 L 98.00022 461.999707 L 93.500236 472.500358 L 85.499691 488.500415 L 81.499935 504.500472 " transform="matrix(3.779528,0,0,3.779528,0,0)"/>
<path style="fill:none;stroke-width:2;stroke-linecap:butt;stroke-linejoin:miter;stroke:rgb(0%,0%,0%);stroke-opacity:1;stroke-miterlimit:4;" d="M 86.500146 474.500236 L 94.499658 458.500179 L 98.500448 442.500122 L 108.499837 426.500065 L 102.500203 424.500187 L 80.500513 442.500122 L 75.999495 448.499756 L 84.500269 432.499699 L 92.49978 416.000448 L 102.500203 399.500163 L 110.499715 391.000423 L 94.000464 408.50013 " transform="matrix(3.779528,0,0,3.779528,0,0)"/>
<path style="fill:none;stroke-width:2;stroke-linecap:butt;stroke-linejoin:miter;stroke:rgb(0%,0%,0%);stroke-opacity:1;stroke-miterlimit:4;" d="M 80.999707 395.999601 L 80.999707 411.500464 L 71.000317 419.499976 " transform="matrix(3.779528,0,0,3.779528,0,0)"/>
<path style="fill:none;stroke-width:2;stroke-linecap:butt;stroke-linejoin:miter;stroke:rgb(0%,0%,0%);stroke-opacity:1;stroke-miterlimit:4;" d="M 75.999495 413.999536 L 75.999495 398.499707 " transform="matrix(3.779528,0,0,3.779528,0,0)"/>
<path style="fill:none;stroke-width:2;stroke-linecap:butt;stroke-linejoin:miter;stroke:rgb(0%,0%,0%);stroke-opacity:1;stroke-miterlimit:4;" d="M 37.999748 382.999878 L 46.000293 375.499561 L 50.000049 359.499504 " transform="matrix(3.779528,0,0,3.779528,0,0)"/>
<path style="fill:none;stroke-width:2;stroke-linecap:butt;stroke-linejoin:miter;stroke:rgb(0%,0%,0%);stroke-opacity:1;stroke-miterlimit:4;" d="M 46.000293 359.000309 L 28.000358 375.000366 L 6.499862 391.000423 L 22.499919 380.499772 L 39.000203 366.499593 L 57.000138 345.999552 L 73.000195 348.000464 L 89.000252 351.499992 " transform="matrix(3.779528,0,0,3.779528,0,0)"/>
<path style="fill:none;stroke-width:2;stroke-linecap:butt;stroke-linejoin:miter;stroke:rgb(0%,0%,0%);stroke-opacity:1;stroke-miterlimit:4;" d="M 76.999951 325.000317 L 64.99965 341.000374 L 103.000431 357.000431 L 84.500269 378.499894 L 66.000106 393.999723 L 55.999683 409.99978 L 53.999805 425.499609 L 50.000049 441.999894 L 46.000293 474.000008 L 46.000293 490.500293 " transform="matrix(3.779528,0,0,3.779528,0,0)"/>
<path style="fill:none;stroke-width:2;stroke-linecap:butt;stroke-linejoin:miter;stroke:rgb(0%,0%,0%);stroke-opacity:1;stroke-miterlimit:4;" d="M 72.499967 485.500081 L 56.49991 453.499967 " transform="matrix(3.779528,0,0,3.779528,0,0)"/>
<path style="fill:none;stroke-width:2;stroke-linecap:butt;stroke-linejoin:miter;stroke:rgb(0%,0%,0%);stroke-opacity:1;stroke-miterlimit:4;" d="M 57.500366 454.000195 L 65.499878 470.000252 L 73.500423 486.000309 L 73.500423 502.000366 " transform="matrix(3.779528,0,0,3.779528,0,0)"/>
<path style="fill:none;stroke-width:2;stroke-linecap:butt;stroke-linejoin:miter;stroke:rgb(0%,0%,0%);stroke-opacity:1;stroke-miterlimit:4;" d="M 73.999618 468.999797 L 57.999561 445.000228 " transform="matrix(3.779528,0,0,3.779528,0,0)"/>
<path style="fill:none;stroke-width:2;stroke-linecap:butt;stroke-linejoin:miter;stroke:rgb(0%,0%,0%);stroke-opacity:1;stroke-miterlimit:4;" d="M 51.999927 452.99974 L 50.500277 468.499569 L 51.000505 484.999854 " transform="matrix(3.779528,0,0,3.779528,0,0)"/>
<path style="fill:none;stroke-width:2;stroke-linecap:butt;stroke-linejoin:miter;stroke:rgb(0%,0%,0%);stroke-opacity:1;stroke-miterlimit:4;" d="M 17.999935 490.000065 L 10.000423 506.000122 " transform="matrix(3.779528,0,0,3.779528,0,0)"/>
<path style="fill:none;stroke-width:2;stroke-linecap:butt;stroke-linejoin:miter;stroke:rgb(0%,0%,0%);stroke-opacity:1;stroke-miterlimit:4;" d="M 7.500317 497.000155 L 5.500439 501.500138 L 14.000179 485.500081 " transform="matrix(3.779528,0,0,3.779528,0,0)"/>
<path style="fill:none;stroke-width:2;stroke-linecap:butt;stroke-linejoin:miter;stroke:rgb(0%,0%,0%);stroke-opacity:1;stroke-miterlimit:4;" d="M 130.999756 445.99965 L 146.999813 438.000138 L 149.499919 458.500179 " transform="matrix(3.779528,0,0,3.779528,0,0)"/>
<path style="fill:none;stroke-width:2;stroke-linecap:butt;stroke-linejoin:miter;stroke:rgb(0%,0%,0%);stroke-opacity:1;stroke-miterlimit:4;" d="M 153.499674 461.500513 L 137.499618 443.499544 " transform="matrix(3.779528,0,0,3.779528,0,0)"/>
<path style="fill:none;stroke-width:2;stroke-linecap:butt;stroke-linejoin:miter;stroke:rgb(0%,0%,0%);stroke-opacity:1;stroke-miterlimit:4;" d="M 135.999967 447.999528 L 151.499797 463.999585 " transform="matrix(3.779528,0,0,3.779528,0,0)"/>
<path style="fill:none;stroke-width:2;stroke-linecap:butt;stroke-linejoin:miter;stroke:rgb(0%,0%,0%);stroke-opacity:1;stroke-miterlimit:4;" d="M 159.500342 425.499609 L 143.000057 423.499731 " transform="matrix(3.779528,0,0,3.779528,0,0)"/>
<path style="fill:none;stroke-width:2;stroke-linecap:butt;stroke-linejoin:miter;stroke:rgb(0%,0%,0%);stroke-opacity:1;stroke-miterlimit:4;" d="M 138.500073 418.49952 L 153.999902 420.000203 " transform="matrix(3.779528,0,0,3.779528,0,0)"/>
<path style="fill:none;stroke-width:2;stroke-linecap:butt;stroke-linejoin:miter;stroke:rgb(0%,0%,0%);stroke-opacity:1;stroke-miterlimit:4;" d="M 167.499854 408.50013 L 151.499797 407.999902 L 151.499797 402.000269 L 135.49974 406.500252 " transform="matrix(3.779528,0,0,3.779528,0,0)"/>
<path style="fill:none;stroke-width:2;stroke-linecap:butt;stroke-linejoin:miter;stroke:rgb(0%,0%,0%);stroke-opacity:1;stroke-miterlimit:4;" d="M 132.000212 395.000179 L 145.500163 389.49974 L 131.499984 397.500285 L 129.500106 413.500342 L 134.00009 429.999593 L 132.000212 445.99965 L 146.000391 461.999707 " transform="matrix(3.779528,0,0,3.779528,0,0)"/>
<path style="fill:none;stroke-width:2;stroke-linecap:butt;stroke-linejoin:miter;stroke:rgb(0%,0%,0%);stroke-opacity:1;stroke-miterlimit:4;" d="M 191.000228 486.499504 L 207.000285 476.500114 L 221.000464 459.999829 L 207.000285 475.999886 " transform="matrix(3.779528,0,0,3.779528,0,0)"/>
<path style="fill:none;stroke-width:2;stroke-linecap:butt;stroke-linejoin:miter;stroke:rgb(0%,0%,0%);stroke-opacity:1;stroke-miterlimit:4;" d="M 230.999854 459.000407 L 227.000098 446.499878 L 216.999674 456.500301 L 200.999618 474.000008 L 184.999561 486.000309 L 200.500423 473.49978 L 214.499569 457.499723 L 216.50048 441.000472 L 218.500358 432.999927 " transform="matrix(3.779528,0,0,3.779528,0,0)"/>
<path style="fill:none;stroke-width:2;stroke-linecap:butt;stroke-linejoin:miter;stroke:rgb(0%,0%,0%);stroke-opacity:1;stroke-miterlimit:4;" d="M 221.499658 438.500366 L 231.500081 454.500423 L 243.500382 470.50048 " transform="matrix(3.779528,0,0,3.779528,0,0)"/>
<path style="fill:none;stroke-width:2;stroke-linecap:butt;stroke-linejoin:miter;stroke:rgb(0%,0%,0%);stroke-opacity:1;stroke-miterlimit:4;" d="M 245.000033 493.999821 L 243.000155 509.999878 " transform="matrix(3.779528,0,0,3.779528,0,0)"/>
<path style="fill:none;stroke-width:2;stroke-linecap:butt;stroke-linejoin:miter;stroke:rgb(0%,0%,0%);stroke-opacity:1;stroke-miterlimit:4;" d="M 246.99991 443.999772 L 230.999854 423.999959 " transform="matrix(3.779528,0,0,3.779528,0,0)"/>
<path style="fill:none;stroke-width:2;stroke-linecap:butt;stroke-linejoin:miter;stroke:rgb(0%,0%,0%);stroke-opacity:1;stroke-miterlimit:4;" d="M 230.000431 414.499764 L 237.999943 431.000049 " transform="matrix(3.779528,0,0,3.779528,0,0)"/>
<path style="fill:none;stroke-width:2;stroke-linecap:butt;stroke-linejoin:miter;stroke:rgb(0%,0%,0%);stroke-opacity:1;stroke-miterlimit:4;" d="M 232.000309 409.000358 L 239.999821 425.000415 L 248.499561 441.000472 L 255.999878 452.99974 L 257.999756 468.999797 " transform="matrix(3.779528,0,0,3.779528,0,0)"/>
<path style="fill:none;stroke-width:2;stroke-linecap:butt;stroke-linejoin:miter;stroke:rgb(0%,0%,0%);stroke-opacity:1;stroke-miterlimit:4;" d="M 313.000016 426.500065 L 329.000073 422.500309 L 345.00013 420.500431 L 361.000187 418.000326 L 377.000244 416.000448 L 393.000301 413.999536 L 425.000415 413.999536 L 453.499967 411.500464 L 432.999927 417.500098 L 414.999992 433.500155 L 414.999992 450.000439 L 418.999748 466.000496 L 414.999992 470.000252 L 438.999561 457.999951 L 454.999618 461.999707 L 470.999674 468.499569 L 486.499504 476.500114 L 502.499561 499.000033 " transform="matrix(3.779528,0,0,3.779528,0,0)"/>
<path style="fill:none;stroke-width:2;stroke-linecap:butt;stroke-linejoin:miter;stroke:rgb(0%,0%,0%);stroke-opacity:1;stroke-miterlimit:4;" d="M 320.500334 457.999951 L 322.500212 441.999894 L 308.500033 433.500155 L 314.499666 417.500098 " transform="matrix(3.779528,0,0,3.779528,0,0)"/>
<path style="fill:none;stroke-width:2;stroke-linecap:butt;stroke-linejoin:miter;stroke:rgb(0%,0%,0%);stroke-opacity:1;stroke-miterlimit:4;" d="M 284.000236 336.999585 L 266.000301 330.999951 L 250.000244 307.499577 " transform="matrix(3.779528,0,0,3.779528,0,0)"/>
<path style="fill:none;stroke-width:2;stroke-linecap:butt;stroke-linejoin:miter;stroke:rgb(0%,0%,0%);stroke-opacity:1;stroke-miterlimit:4;" d="M 246.499683 314.999894 L 246.499683 320.999528 L 245.000033 336.500391 L 251.499894 352.500448 L 257.999756 356.500203 " transform="matrix(3.779528,0,0,3.779528,0,0)"/>
<path style="fill:none;stroke-width:2;stroke-linecap:butt;stroke-linejoin:miter;stroke:rgb(0%,0%,0%);stroke-opacity:1;stroke-miterlimit:4;" d="M 236.500293 343.000252 L 221.000464 342.500024 L 205.000407 340.500146 L 188.500122 336.000163 L 182.500488 333.500057 L 168.999504 327.500423 L 175.500399 316.999772 L 159.500342 330.499723 L 128.000456 298.999837 " transform="matrix(3.779528,0,0,3.779528,0,0)"/>
<path style="fill:none;stroke-width:2;stroke-linecap:butt;stroke-linejoin:miter;stroke:rgb(0%,0%,0%);stroke-opacity:1;stroke-miterlimit:4;" d="M 134.500317 300.999715 L 150.500374 292.499976 L 166.500431 292.499976 L 187.999894 295.999504 L 177.500277 295.999504 L 180.999805 300.000293 L 173.499487 293.999626 L 175.500399 309.999683 L 159.500342 332.499601 " transform="matrix(3.779528,0,0,3.779528,0,0)"/>
<path style="fill:none;stroke-width:2;stroke-linecap:butt;stroke-linejoin:miter;stroke:rgb(0%,0%,0%);stroke-opacity:1;stroke-miterlimit:4;" d="M 140.499951 323.999862 L 128.999878 307.999805 L 126.499772 291.999748 L 127 276.499919 L 125.000122 254.500228 L 123.500472 238.500171 L 121.999788 221.999886 L 137.999845 200.000195 L 174.499943 184.000138 L 156.500008 171.499609 L 152.500252 159.500342 L 168.999504 149.499919 L 153.00048 155.499552 " transform="matrix(3.779528,0,0,3.779528,0,0)"/>
<path style="fill:none;stroke-width:2;stroke-linecap:butt;stroke-linejoin:miter;stroke:rgb(0%,0%,0%);stroke-opacity:1;stroke-miterlimit:4;" d="M 160.499764 191.99965 L 144.499707 198.000317 L 128.49965 203.999951 " transform="matrix(3.779528,0,0,3.779528,0,0)"/>
<path style="fill:none;stroke-width:2;stroke-linecap:butt;stroke-linejoin:miter;stroke:rgb(0%,0%,0%);stroke-opacity:1;stroke-miterlimit:4;" d="M 120.500138 213.500146 L 137.000423 207.500513 L 153.00048 199.499967 L 128.999878 197.50009 L 112.999821 187.499666 L 121.000366 201.499845 L 137.000423 195.500212 L 152.500252 189.499544 L 158.499886 197.50009 L 175.000171 195.500212 L 191.000228 195.500212 L 207.000285 191.500456 " transform="matrix(3.779528,0,0,3.779528,0,0)"/>
<path style="fill:none;stroke-width:2;stroke-linecap:butt;stroke-linejoin:miter;stroke:rgb(0%,0%,0%);stroke-opacity:1;stroke-miterlimit:4;" d="M 232.999731 210.499813 L 230.999854 194.499756 L 230.999854 178.499699 L 228.499748 162.499642 L 222.500114 152.500252 " transform="matrix(3.779528,0,0,3.779528,0,0)"/>
<path style="fill:none;stroke-width:2;stroke-linecap:butt;stroke-linejoin:miter;stroke:rgb(0%,0%,0%);stroke-opacity:1;stroke-miterlimit:4;" d="M 220.500236 152.500252 L 220.000008 160.499764 L 220.000008 176.499821 L 223.499536 192.499878 L 227.500326 209.000163 " transform="matrix(3.779528,0,0,3.779528,0,0)"/>
<path style="fill:none;stroke-width:2;stroke-linecap:butt;stroke-linejoin:miter;stroke:rgb(0%,0%,0%);stroke-opacity:1;stroke-miterlimit:4;" d="M 218.00013 232.000309 L 202.000073 239.499593 L 186.000016 251.499894 " transform="matrix(3.779528,0,0,3.779528,0,0)"/>
<path style="fill:none;stroke-width:2;stroke-linecap:butt;stroke-linejoin:miter;stroke:rgb(0%,0%,0%);stroke-opacity:1;stroke-miterlimit:4;" d="M 200.000195 234.500415 L 184.000138 250.000244 L 195.500212 238.500171 L 221.499658 242.499927 L 236.000065 246.499683 L 250.500472 238.500171 L 260.499862 230.499626 " transform="matrix(3.779528,0,0,3.779528,0,0)"/>
<path style="fill:none;stroke-width:2;stroke-linecap:butt;stroke-linejoin:miter;stroke:rgb(0%,0%,0%);stroke-opacity:1;stroke-miterlimit:4;" d="M 261.500317 227.99952 L 251.499894 243.999577 L 245.50026 246.499683 L 247.500138 260.499862 L 264.000423 268.999601 " transform="matrix(3.779528,0,0,3.779528,0,0)"/>
<path style="fill:none;stroke-width:2;stroke-linecap:butt;stroke-linejoin:miter;stroke:rgb(0%,0%,0%);stroke-opacity:1;stroke-miterlimit:4;" d="M 275.000269 269.499829 L 245.000033 253.499772 L 232.499504 236.999487 L 234.500415 221.000464 L 234.500415 205.000407 L 236.999487 177.000049 L 232.999731 160.999992 L 221.499658 146.999813 L 227.99952 141.500407 L 232.000309 125.000122 L 239.999821 109.000065 L 248.499561 93.500236 L 241.000277 107.500415 L 234.999609 137.499618 " transform="matrix(3.779528,0,0,3.779528,0,0)"/>
<path style="fill:none;stroke-width:2;stroke-linecap:butt;stroke-linejoin:miter;stroke:rgb(0%,0%,0%);stroke-opacity:1;stroke-miterlimit:4;" d="M 236.500293 139.499495 L 252.50035 143.500285 L 268.500407 141.500407 L 284.500464 139.499495 L 288.50022 147.500041 L 304.000049 137.499618 " transform="matrix(3.779528,0,0,3.779528,0,0)"/>
<path style="fill:none;stroke-width:2;stroke-linecap:butt;stroke-linejoin:miter;stroke:rgb(0%,0%,0%);stroke-opacity:1;stroke-miterlimit:4;" d="M 329.000073 103.000431 L 323.000439 93.000008 " transform="matrix(3.779528,0,0,3.779528,0,0)"/>
<path style="fill:none;stroke-width:2;stroke-linecap:butt;stroke-linejoin:miter;stroke:rgb(0%,0%,0%);stroke-opacity:1;stroke-miterlimit:4;" d="M 332.999829 88.500024 L 348.999886 80.500513 L 364.999943 70.50009 " transform="matrix(3.779528,0,0,3.779528,0,0)"/>
<path style="fill:none;stroke-width:2;stroke-linecap:butt;stroke-linejoin:miter;stroke:rgb(0%,0%,0%);stroke-opacity:1;stroke-miterlimit:4;" d="M 375.499561 87.499569 L 391.499618 103.499626 L 389.999967 119.499683 L 386.000212 135.999967 L 397.500285 144.000513 L 419.499976 159.999536 " transform="matrix(3.779528,0,0,3.779528,0,0)"/>
<path style="fill:none;stroke-width:2;stroke-linecap:butt;stroke-linejoin:miter;stroke:rgb(0%,0%,0%);stroke-opacity:1;stroke-miterlimit:4;" d="M 398.999935 141.500407 L 414.999992 155.99978 L 430.499821 163.500098 L 446.499878 151.499797 L 462.499935 145.500163 " transform="matrix(3.779528,0,0,3.779528,0,0)"/>
<path style="fill:none;stroke-width:2;stroke-linecap:butt;stroke-linejoin:miter;stroke:rgb(0%,0%,0%);stroke-opacity:1;stroke-miterlimit:4;" d="M 459.999829 146.499585 L 463.999585 162.499642 L 463.999585 169.999959 L 479.999642 166.000203 " transform="matrix(3.779528,0,0,3.779528,0,0)"/>
<path style="fill:none;stroke-width:2;stroke-linecap:butt;stroke-linejoin:miter;stroke:rgb(0%,0%,0%);stroke-opacity:1;stroke-miterlimit:4;" d="M 459.000407 167.499854 L 452.99974 151.499797 " transform="matrix(3.779528,0,0,3.779528,0,0)"/>
<path style="fill:none;stroke-width:2;stroke-linecap:butt;stroke-linejoin:miter;stroke:rgb(0%,0%,0%);stroke-opacity:1;stroke-miterlimit:4;" d="M 448.999984 149.499919 L 459.000407 150.000146 " transform="matrix(3.779528,0,0,3.779528,0,0)"/>
<path style="fill:none;stroke-width:2;stroke-linecap:butt;stroke-linejoin:miter;stroke:rgb(0%,0%,0%);stroke-opacity:1;stroke-miterlimit:4;" d="M 461.000285 140.499951 L 465.000041 160.499764 L 475.000464 170.500187 L 490.999487 169.999959 L 506.999544 164.000326 " transform="matrix(3.779528,0,0,3.779528,0,0)"/>
<path style="fill:none;stroke-width:2;stroke-linecap:butt;stroke-linejoin:miter;stroke:rgb(0%,0%,0%);stroke-opacity:1;stroke-miterlimit:4;" d="M 509.49965 105.499504 L 493.000399 93.500236 " transform="matrix(3.779528,0,0,3.779528,0,0)"/>
<path style="fill:none;stroke-width:2;stroke-linecap:butt;stroke-linejoin:miter;stroke:rgb(0%,0%,0%);stroke-opacity:1;stroke-miterlimit:4;" d="M 491.499715 89.000252 L 507.499772 105.000309 " transform="matrix(3.779528,0,0,3.779528,0,0)"/>
<path style="fill:none;stroke-width:2;stroke-linecap:butt;stroke-linejoin:miter;stroke:rgb(0%,0%,0%);stroke-opacity:1;stroke-miterlimit:4;" d="M 508.500228 98.00022 L 492.500171 87.999797 " transform="matrix(3.779528,0,0,3.779528,0,0)"/>
<path style="fill:none;stroke-width:2;stroke-linecap:butt;stroke-linejoin:miter;stroke:rgb(0%,0%,0%);stroke-opacity:1;stroke-miterlimit:4;" d="M 493.000399 85.999919 L 472.999552 101.499748 L 455.499845 119.499683 L 436.00026 135.49974 L 432.499699 151.499797 " transform="matrix(3.779528,0,0,3.779528,0,0)"/>
<path style="fill:none;stroke-width:2;stroke-linecap:butt;stroke-linejoin:miter;stroke:rgb(0%,0%,0%);stroke-opacity:1;stroke-miterlimit:4;" d="M 436.00026 135.49974 L 452.000317 123.500472 " transform="matrix(3.779528,0,0,3.779528,0,0)"/>
<path style="fill:none;stroke-width:2;stroke-linecap:butt;stroke-linejoin:miter;stroke:rgb(0%,0%,0%);stroke-opacity:1;stroke-miterlimit:4;" d="M 427.000293 122.500016 L 431.000049 138.500073 L 426.500065 154.50013 " transform="matrix(3.779528,0,0,3.779528,0,0)"/>
<path style="fill:none;stroke-width:2;stroke-linecap:butt;stroke-linejoin:miter;stroke:rgb(0%,0%,0%);stroke-opacity:1;stroke-miterlimit:4;" d="M 424.500187 121.000366 L 441.000472 117.499805 L 456.999495 114.000277 L 473.49978 102.500203 L 479.500448 78.499601 L 463.500391 94.999886 " transform="matrix(3.779528,0,0,3.779528,0,0)"/>
<path style="fill:none;stroke-width:2;stroke-linecap:butt;stroke-linejoin:miter;stroke:rgb(0%,0%,0%);stroke-opacity:1;stroke-miterlimit:4;" d="M 452.499512 66.500334 L 480.49987 50.500277 L 496.499927 33.999992 L 506.000122 33.999992 L 495.999699 33.999992 L 479.500448 50.000049 L 463.500391 59.500244 L 447.500334 67.499756 L 431.500277 71.499512 L 425.499609 73.500423 " transform="matrix(3.779528,0,0,3.779528,0,0)"/>
<path style="fill:none;stroke-width:2;stroke-linecap:butt;stroke-linejoin:miter;stroke:rgb(0%,0%,0%);stroke-opacity:1;stroke-miterlimit:4;" d="M 431.000049 50.500277 L 420.500431 66.500334 L 412.499886 82.000163 L 408.50013 98.00022 L 395.999601 114.500505 L 395.999601 130.499528 L 406.000024 146.000391 " transform="matrix(3.779528,0,0,3.779528,0,0)"/>
<path style="fill:none;stroke-width:2;stroke-linecap:butt;stroke-linejoin:miter;stroke:rgb(0%,0%,0%);stroke-opacity:1;stroke-miterlimit:4;" d="M 423.499731 202.999495 L 438.999561 202.999495 " transform="matrix(3.779528,0,0,3.779528,0,0)"/>
<path style="fill:none;stroke-width:2;stroke-linecap:butt;stroke-linejoin:miter;stroke:rgb(0%,0%,0%);stroke-opacity:1;stroke-miterlimit:4;" d="M 466.499691 234.999609 L 450.000439 251.499894 " transform="matrix(3.779528,0,0,3.779528,0,0)"/>
<path style="fill:none;stroke-width:2;stroke-linecap:butt;stroke-linejoin:miter;stroke:rgb(0%,0%,0%);stroke-opacity:1;stroke-miterlimit:4;" d="M 471.499902 243.999577 L 495.000277 259.999634 " transform="matrix(3.779528,0,0,3.779528,0,0)"/>
<path style="fill:none;stroke-width:2;stroke-linecap:butt;stroke-linejoin:miter;stroke:rgb(0%,0%,0%);stroke-opacity:1;stroke-miterlimit:4;" d="M 497.500382 252.50035 L 471.499902 236.000065 " transform="matrix(3.779528,0,0,3.779528,0,0)"/>
<path style="fill:none;stroke-width:2;stroke-linecap:butt;stroke-linejoin:miter;stroke:rgb(0%,0%,0%);stroke-opacity:1;stroke-miterlimit:4;" d="M 339.999919 166.000203 L 343.50048 156.500008 L 329.500301 174.499943 L 320.000106 190.5 L 311.999561 206.500057 L 316.00035 222.500114 L 325.99974 236.000065 L 334.500513 252.000122 L 334.500513 267.499951 L 330.999951 283.500008 L 313.000016 299.500065 L 300.999715 307.499577 L 317.5 295.999504 " transform="matrix(3.779528,0,0,3.779528,0,0)"/>
<path style="fill:none;stroke-width:2;stroke-linecap:butt;stroke-linejoin:miter;stroke:rgb(0%,0%,0%);stroke-opacity:1;stroke-miterlimit:4;" d="M 336.000163 307.999805 L 366.000399 324.50009 L 389.999967 339.999919 L 385.499984 354.000098 L 375.499561 369.499927 " transform="matrix(3.779528,0,0,3.779528,0,0)"/>
<path style="fill:none;stroke-width:2;stroke-linecap:butt;stroke-linejoin:miter;stroke:rgb(0%,0%,0%);stroke-opacity:1;stroke-miterlimit:4;" d="M 225.999642 404.500374 L 227.99952 420.500431 L 234.000187 436.500488 L 239.999821 452.000317 L 229.500203 459.499601 L 235.499837 475.499658 L 241.500505 493.000399 L 237.499715 509.000456 " transform="matrix(3.779528,0,0,3.779528,0,0)"/>
<path style="fill:none;stroke-width:2;stroke-linecap:butt;stroke-linejoin:miter;stroke:rgb(0%,0%,0%);stroke-opacity:1;stroke-miterlimit:4;" d="M 250.999666 477.499536 L 246.499683 463.000163 L 254.500228 468.999797 L 248.499561 452.99974 L 234.000187 447.000106 L 225.999642 431.500277 L 221.499658 416.000448 L 221.000464 399.500163 " transform="matrix(3.779528,0,0,3.779528,0,0)"/>
<path style="fill:none;stroke-width:2;stroke-linecap:butt;stroke-linejoin:miter;stroke:rgb(0%,0%,0%);stroke-opacity:1;stroke-miterlimit:4;" d="M 174.499943 403.499919 L 158.499886 395.500407 " transform="matrix(3.779528,0,0,3.779528,0,0)"/>
<path style="fill:none;stroke-width:2;stroke-linecap:butt;stroke-linejoin:miter;stroke:rgb(0%,0%,0%);stroke-opacity:1;stroke-miterlimit:4;" d="M 168.999504 330.499723 L 153.00048 334.500513 L 137.499618 314.499666 " transform="matrix(3.779528,0,0,3.779528,0,0)"/>
<path style="fill:none;stroke-width:2;stroke-linecap:butt;stroke-linejoin:miter;stroke:rgb(0%,0%,0%);stroke-opacity:1;stroke-miterlimit:4;" d="M 134.00009 343.000252 L 117.499805 354.99952 L 99.49987 352.999642 L 84.000041 345.500358 L 67.999984 341.499569 L 62.00035 332.000407 L 46.000293 350.000342 L 30.000236 363.999487 L 14.500407 378.499894 L 4.499984 388.500317 L 21.999691 372.50026 L 39.999626 356.500203 L 55.500488 340.500146 L 69.499634 324.50009 L 66.000106 324.50009 L 50.500277 320.000106 L 34.50022 315.500122 L 18.500163 311.500366 L 2.500106 305.499699 " transform="matrix(3.779528,0,0,3.779528,0,0)"/>
<path style="fill:none;stroke-width:2;stroke-linecap:butt;stroke-linejoin:miter;stroke:rgb(0%,0%,0%);stroke-opacity:1;stroke-miterlimit:4;" d="M 1.999878 300.499487 L 10.000423 304.500277 " transform="matrix(3.779528,0,0,3.779528,0,0)"/>
<path style="fill:none;stroke-width:2;stroke-linecap:butt;stroke-linejoin:miter;stroke:rgb(0%,0%,0%);stroke-opacity:1;stroke-miterlimit:4;" d="M 19.999813 293.999626 L 3.999756 277.999569 " transform="matrix(3.779528,0,0,3.779528,0,0)"/>
<path style="fill:none;stroke-width:2;stroke-linecap:butt;stroke-linejoin:miter;stroke:rgb(0%,0%,0%);stroke-opacity:1;stroke-miterlimit:4;" d="M 7.500317 279.000024 L 13.499951 295.000081 L 21.500496 300.000293 L 17.499707 306.500155 L 33.499764 312.499788 L 49.499821 316.999772 L 66.000106 320.500334 " transform="matrix(3.779528,0,0,3.779528,0,0)"/>
<path style="fill:none;stroke-width:2;stroke-linecap:butt;stroke-linejoin:miter;stroke:rgb(0%,0%,0%);stroke-opacity:1;stroke-miterlimit:4;" d="M 91.500358 270.500285 L 75.500301 241.999699 L 59.500244 246.000488 " transform="matrix(3.779528,0,0,3.779528,0,0)"/>
<path style="fill:none;stroke-width:2;stroke-linecap:butt;stroke-linejoin:miter;stroke:rgb(0%,0%,0%);stroke-opacity:1;stroke-miterlimit:4;" d="M 62.00035 249.500016 L 82.000163 241.500505 L 91.999552 257.999756 " transform="matrix(3.779528,0,0,3.779528,0,0)"/>
<path style="fill:none;stroke-width:2;stroke-linecap:butt;stroke-linejoin:miter;stroke:rgb(0%,0%,0%);stroke-opacity:1;stroke-miterlimit:4;" d="M 91.00013 265.500073 L 83.499813 249.500016 L 64.99965 245.50026 " transform="matrix(3.779528,0,0,3.779528,0,0)"/>
<path style="fill:none;stroke-width:2;stroke-linecap:butt;stroke-linejoin:miter;stroke:rgb(0%,0%,0%);stroke-opacity:1;stroke-miterlimit:4;" d="M 54.500033 248.499561 L 50.500277 264.499618 L 58.499788 280.00048 " transform="matrix(3.779528,0,0,3.779528,0,0)"/>
<path style="fill:none;stroke-width:2;stroke-linecap:butt;stroke-linejoin:miter;stroke:rgb(0%,0%,0%);stroke-opacity:1;stroke-miterlimit:4;" d="M 56.49991 288.50022 L 41.000081 268.500407 " transform="matrix(3.779528,0,0,3.779528,0,0)"/>
<path style="fill:none;stroke-width:2;stroke-linecap:butt;stroke-linejoin:miter;stroke:rgb(0%,0%,0%);stroke-opacity:1;stroke-miterlimit:4;" d="M 44.499609 253.499772 L 62.499544 243.999577 L 60.000472 259.999634 L 71.499512 269.499829 L 71.499512 293.500431 L 87.999797 297.500187 " transform="matrix(3.779528,0,0,3.779528,0,0)"/>
<path style="fill:none;stroke-width:2;stroke-linecap:butt;stroke-linejoin:miter;stroke:rgb(0%,0%,0%);stroke-opacity:1;stroke-miterlimit:4;" d="M 114.999699 280.00048 L 110.999943 248.000366 L 110.999943 232.000309 L 109.000065 216.000252 L 96.999764 214.000374 L 80.999707 214.000374 L 64.99965 220.000008 " transform="matrix(3.779528,0,0,3.779528,0,0)"/>
<path style="fill:none;stroke-width:2;stroke-linecap:butt;stroke-linejoin:miter;stroke:rgb(0%,0%,0%);stroke-opacity:1;stroke-miterlimit:4;" d="M 69.999862 221.999886 L 85.999919 220.000008 L 102.500203 220.000008 L 106.499959 230.000431 L 107.000187 245.50026 L 106.499959 261.500317 L 108.499837 277.500374 L 116.500382 293.500431 L 120.500138 309.00026 L 123.999666 325.000317 L 126.499772 341.000374 L 104.500081 361.000187 L 120.500138 347.500236 " transform="matrix(3.779528,0,0,3.779528,0,0)"/>
<path style="fill:none;stroke-width:2;stroke-linecap:butt;stroke-linejoin:miter;stroke:rgb(0%,0%,0%);stroke-opacity:1;stroke-miterlimit:4;" d="M 148.500496 320.500334 L 135.999967 304.500277 L 153.999902 288.50022 " transform="matrix(3.779528,0,0,3.779528,0,0)"/>
<path style="fill:none;stroke-width:2;stroke-linecap:butt;stroke-linejoin:miter;stroke:rgb(0%,0%,0%);stroke-opacity:1;stroke-miterlimit:4;" d="M 155.499552 284.000236 L 131.499984 293.999626 L 147.500041 287.999992 L 164.000326 285.499886 L 180.499577 287.499764 " transform="matrix(3.779528,0,0,3.779528,0,0)"/>
<path style="fill:none;stroke-width:2;stroke-linecap:butt;stroke-linejoin:miter;stroke:rgb(0%,0%,0%);stroke-opacity:1;stroke-miterlimit:4;" d="M 146.000391 262.999967 L 130.000334 263.500195 L 132.500439 246.99991 L 126.499772 241.000277 " transform="matrix(3.779528,0,0,3.779528,0,0)"/>
<path style="fill:none;stroke-width:2;stroke-linecap:butt;stroke-linejoin:miter;stroke:rgb(0%,0%,0%);stroke-opacity:1;stroke-miterlimit:4;" d="M 135.999967 243.999577 L 133.499862 259.999634 " transform="matrix(3.779528,0,0,3.779528,0,0)"/>
<path style="fill:none;stroke-width:2;stroke-linecap:butt;stroke-linejoin:miter;stroke:rgb(0%,0%,0%);stroke-opacity:1;stroke-miterlimit:4;" d="M 78.000407 235.499837 L 61.500122 233.499959 L 45.500065 225.500448 L 17.499707 221.499658 L 1.49965 209.500391 " transform="matrix(3.779528,0,0,3.779528,0,0)"/>
<path style="fill:none;stroke-width:2;stroke-linecap:butt;stroke-linejoin:miter;stroke:rgb(0%,0%,0%);stroke-opacity:1;stroke-miterlimit:4;" d="M 3.999756 209.500391 L 5.999634 225.500448 " transform="matrix(3.779528,0,0,3.779528,0,0)"/>
<path style="fill:none;stroke-width:2;stroke-linecap:butt;stroke-linejoin:miter;stroke:rgb(0%,0%,0%);stroke-opacity:1;stroke-miterlimit:4;" d="M 1.49965 228.999976 L 17.499707 228.999976 " transform="matrix(3.779528,0,0,3.779528,0,0)"/>
<path style="fill:none;stroke-width:2;stroke-linecap:butt;stroke-linejoin:miter;stroke:rgb(0%,0%,0%);stroke-opacity:1;stroke-miterlimit:4;" d="M 45.500065 227.000098 L 37.49952 232.999731 L 37.49952 248.999788 L 39.500431 265.500073 L 45.500065 281.50013 L 63.5 297.500187 L 66.000106 298.000415 L 82.000163 298.499609 " transform="matrix(3.779528,0,0,3.779528,0,0)"/>
<path style="fill:none;stroke-width:2;stroke-linecap:butt;stroke-linejoin:miter;stroke:rgb(0%,0%,0%);stroke-opacity:1;stroke-miterlimit:4;" d="M 62.00035 285.499886 L 57.999561 268.999601 L 55.999683 252.999544 " transform="matrix(3.779528,0,0,3.779528,0,0)"/>
<path style="fill:none;stroke-width:2;stroke-linecap:butt;stroke-linejoin:miter;stroke:rgb(0%,0%,0%);stroke-opacity:1;stroke-miterlimit:4;" d="M 47.499943 246.000488 L 45.500065 261.999512 L 48.999593 278.499797 L 69.000439 294.499854 " transform="matrix(3.779528,0,0,3.779528,0,0)"/>
<path style="fill:none;stroke-width:2;stroke-linecap:butt;stroke-linejoin:miter;stroke:rgb(0%,0%,0%);stroke-opacity:1;stroke-miterlimit:4;" d="M 110.999943 187.999894 L 116.999577 203.999951 L 116.999577 219.49978 L 120.500138 235.499837 L 122.500016 252.000122 L 123.999666 268.000179 L 122.500016 284.000236 L 122.500016 300.000293 L 126.499772 316.00035 L 130.499528 332.499601 L 138.500073 332.499601 L 130.499528 343.999674 L 110.499715 359.499504 L 112.499593 385.499984 L 100.000098 391.000423 L 91.999552 407.499674 L 83.499813 423.499731 L 79.500057 441.499666 L 87.499569 411.999658 L 103.999854 388.00009 L 128.000456 389.999967 L 141.999601 388.500317 L 153.999902 394.499951 L 169.999959 394.499951 L 186.000016 396.499829 L 202.000073 400.000391 L 218.500358 403.499919 L 238.500171 427.499487 L 254.500228 453.499967 " transform="matrix(3.779528,0,0,3.779528,0,0)"/>
<path style="fill:none;stroke-width:2;stroke-linecap:butt;stroke-linejoin:miter;stroke:rgb(0%,0%,0%);stroke-opacity:1;stroke-miterlimit:4;" d="M 285.499886 341.499569 L 269.499829 331.500179 L 254 345.500358 L 242.499927 327.000195 L 244.499805 311.000138 L 245.000033 294.499854 L 246.99991 278.499797 " transform="matrix(3.779528,0,0,3.779528,0,0)"/>
<path style="fill:none;stroke-width:2;stroke-linecap:butt;stroke-linejoin:miter;stroke:rgb(0%,0%,0%);stroke-opacity:1;stroke-miterlimit:4;" d="M 294.499854 196.000439 L 296.999959 180.000382 L 280.499674 175.999593 " transform="matrix(3.779528,0,0,3.779528,0,0)"/>
<path style="fill:none;stroke-width:2;stroke-linecap:butt;stroke-linejoin:miter;stroke:rgb(0%,0%,0%);stroke-opacity:1;stroke-miterlimit:4;" d="M 266.000301 168.000081 L 282.000358 184.000138 L 287.499764 200.000195 L 298.999837 219.49978 L 306.500155 223.499536 L 326.499967 234.000187 L 341.999797 241.500505 L 359.999731 231.500081 L 375.999788 234.999609 L 404.000146 251.499894 L 409.99978 257.499528 " transform="matrix(3.779528,0,0,3.779528,0,0)"/>
<path style="fill:none;stroke-width:2;stroke-linecap:butt;stroke-linejoin:miter;stroke:rgb(0%,0%,0%);stroke-opacity:1;stroke-miterlimit:4;" d="M 502.000366 208.499935 L 485.500081 205.000407 L 470.000252 205.000407 L 454.000195 206.500057 L 438.000138 209.999585 L 429.999593 191.99965 L 413.999536 180.000382 L 398.000513 168.000081 L 382.000456 155.99978 L 382.000456 141.999601 L 366.000399 134.00009 L 350.000342 118.000033 L 334.000285 119.99991 L 325.99974 112.000399 L 323.999862 96.000342 L 350.000342 80.000285 L 377.999666 63.5 L 356.500203 53.999805 L 340.500146 55.999683 L 324.50009 53.999805 L 308.500033 53.999805 L 291.999748 73.999618 " transform="matrix(3.779528,0,0,3.779528,0,0)"/>
<path style="fill:none;stroke-width:2;stroke-linecap:butt;stroke-linejoin:miter;stroke:rgb(0%,0%,0%);stroke-opacity:1;stroke-miterlimit:4;" d="M 284.999658 75.999495 L 300.999715 51.999927 L 317.5 50.000049 L 333.500057 51.999927 L 331.500179 69.999862 L 313.500244 85.999919 L 316.00035 101.999976 L 311.999561 118.000033 " transform="matrix(3.779528,0,0,3.779528,0,0)"/>
<path style="fill:none;stroke-width:2;stroke-linecap:butt;stroke-linejoin:miter;stroke:rgb(0%,0%,0%);stroke-opacity:1;stroke-miterlimit:4;" d="M 313.500244 84.500269 L 329.000073 72.499967 " transform="matrix(3.779528,0,0,3.779528,0,0)"/>
<path style="fill:none;stroke-width:2;stroke-linecap:butt;stroke-linejoin:miter;stroke:rgb(0%,0%,0%);stroke-opacity:1;stroke-miterlimit:4;" d="M 323.999862 71.000317 L 307.999805 82.999585 " transform="matrix(3.779528,0,0,3.779528,0,0)"/>
<path style="fill:none;stroke-width:2;stroke-linecap:butt;stroke-linejoin:miter;stroke:rgb(0%,0%,0%);stroke-opacity:1;stroke-miterlimit:4;" d="M 307.999805 55.00026 L 293.999626 71.000317 L 291.49952 87.000374 L 295.500309 103.000431 L 291.49952 114.999699 L 307.499577 116.999577 L 309.00026 122.500016 " transform="matrix(3.779528,0,0,3.779528,0,0)"/>
<path style="fill:none;stroke-width:2;stroke-linecap:butt;stroke-linejoin:miter;stroke:rgb(0%,0%,0%);stroke-opacity:1;stroke-miterlimit:4;" d="M 346.49978 118.50026 L 363.000065 134.500317 L 373.000488 150.500374 L 393.000301 166.500431 L 415.50022 182.00026 L 427.499487 212.999919 L 419.499976 227.000098 L 419.499976 258.499984 L 409.99978 268.500407 L 395.999601 286.500342 " transform="matrix(3.779528,0,0,3.779528,0,0)"/>
<path style="fill:none;stroke-width:2;stroke-linecap:butt;stroke-linejoin:miter;stroke:rgb(0%,0%,0%);stroke-opacity:1;stroke-miterlimit:4;" d="M 288.50022 205.999829 L 287.999992 189.499544 L 280.00048 173.499487 L 277.999569 171.499609 L 261.999512 164.999748 " transform="matrix(3.779528,0,0,3.779528,0,0)"/>
<path style="fill:none;stroke-width:2;stroke-linecap:butt;stroke-linejoin:miter;stroke:rgb(0%,0%,0%);stroke-opacity:1;stroke-miterlimit:4;" d="M 259.999634 155.99978 L 275.999691 146.000391 " transform="matrix(3.779528,0,0,3.779528,0,0)"/>
<path style="fill:none;stroke-width:2;stroke-linecap:butt;stroke-linejoin:miter;stroke:rgb(0%,0%,0%);stroke-opacity:1;stroke-miterlimit:4;" d="M 257.000334 151.499797 L 252.50035 168.000081 L 255.000456 184.000138 L 236.999487 193.999528 L 252.999544 193.999528 " transform="matrix(3.779528,0,0,3.779528,0,0)"/>
<path style="fill:none;stroke-width:2;stroke-linecap:butt;stroke-linejoin:miter;stroke:rgb(0%,0%,0%);stroke-opacity:1;stroke-miterlimit:4;" d="M 243.000155 113.500049 L 250.999666 99.49987 L 243.000155 116.000155 L 236.999487 132.000212 L 234.999609 150.500374 L 250.999666 150.500374 L 266.999723 162.499642 L 283.500008 166.500431 L 299.500065 168.500309 L 301.499943 170.500187 L 305.000505 186.500244 L 295.000081 212.499691 L 313.000016 204.500179 L 329.000073 176.499821 L 345.00013 157.000236 L 360.499959 155.000358 L 382.49965 150.500374 L 398.000513 162.000448 L 413.999536 173.499487 L 429.500399 183.49991 L 445.000228 195.500212 L 461.500513 199.499967 L 477.499536 198.000317 L 493.499593 200.000195 L 509.49965 203.499723 " transform="matrix(3.779528,0,0,3.779528,0,0)"/>
<path style="fill:none;stroke-width:2;stroke-linecap:butt;stroke-linejoin:miter;stroke:rgb(0%,0%,0%);stroke-opacity:1;stroke-miterlimit:4;" d="M 418.49952 283.500008 L 402.500496 297.500187 L 400.000391 301.499943 L 399.500163 298.000415 L 409.499552 282.000358 L 423.499731 266.000301 L 425.499609 250.000244 L 423.999959 233.499959 L 423.999959 217.499902 L 434.000382 211.500269 L 438.000138 191.500456 L 416.000448 175.500399 L 393.999723 159.500342 L 373.99991 143.500285 L 365.500171 127.500228 L 349.500114 111.500171 " transform="matrix(3.779528,0,0,3.779528,0,0)"/>
<path style="fill:none;stroke-width:2;stroke-linecap:butt;stroke-linejoin:miter;stroke:rgb(0%,0%,0%);stroke-opacity:1;stroke-miterlimit:4;" d="M 377.999666 88.500024 L 393.499495 94.499658 L 413.500342 80.500513 L 429.500399 52.500155 L 447.500334 54.500033 L 463.500391 42.499731 L 479.500448 28.499552 L 495.500505 16.500285 L 511.499528 22.499919 " transform="matrix(3.779528,0,0,3.779528,0,0)"/>
<path style="fill:none;stroke-width:2;stroke-linecap:butt;stroke-linejoin:miter;stroke:rgb(0%,0%,0%);stroke-opacity:1;stroke-miterlimit:4;" d="M 491.499715 16.500285 L 471.499902 32.500342 L 450.999862 48.500399 L 432.999927 64.500456 L 442.500122 85.999919 L 448.499756 101.999976 L 458.500179 97.499992 L 475.000464 81.499935 L 490.999487 67.499756 " transform="matrix(3.779528,0,0,3.779528,0,0)"/>
<path style="fill:none;stroke-width:2;stroke-linecap:butt;stroke-linejoin:miter;stroke:rgb(0%,0%,0%);stroke-opacity:1;stroke-miterlimit:4;" d="M 497.500382 58.499788 L 477.499536 74.499845 L 459.499601 90.499902 " transform="matrix(3.779528,0,0,3.779528,0,0)"/>
<path style="fill:none;stroke-width:2;stroke-linecap:butt;stroke-linejoin:miter;stroke:rgb(0%,0%,0%);stroke-opacity:1;stroke-miterlimit:4;" d="M 454.999618 39.999626 L 439.499788 51.999927 L 420.999626 55.999683 L 404.999569 85.999919 L 402.500496 94.000464 L 408.50013 78.000407 L 416.499642 62.00035 L 422.000081 53.999805 L 406.000024 54.500033 L 389.999967 60.499666 L 373.499683 52.500155 L 357.499626 50.500277 " transform="matrix(3.779528,0,0,3.779528,0,0)"/>
<path style="fill:none;stroke-width:2;stroke-linecap:butt;stroke-linejoin:miter;stroke:rgb(0%,0%,0%);stroke-opacity:1;stroke-miterlimit:4;" d="M 357.499626 19.999813 L 341.499569 10.499618 " transform="matrix(3.779528,0,0,3.779528,0,0)"/>
<path style="fill:none;stroke-width:2;stroke-linecap:butt;stroke-linejoin:miter;stroke:rgb(0%,0%,0%);stroke-opacity:1;stroke-miterlimit:4;" d="M 339.999919 1.000456 L 359.999731 17.499707 " transform="matrix(3.779528,0,0,3.779528,0,0)"/>
<path style="fill:none;stroke-width:2;stroke-linecap:butt;stroke-linejoin:miter;stroke:rgb(0%,0%,0%);stroke-opacity:1;stroke-miterlimit:4;" d="M 357.000431 25.500252 L 340.500146 17.000513 L 324.50009 8.999967 " transform="matrix(3.779528,0,0,3.779528,0,0)"/>
<path style="fill:none;stroke-width:2;stroke-linecap:butt;stroke-linejoin:miter;stroke:rgb(0%,0%,0%);stroke-opacity:1;stroke-miterlimit:4;" d="M 320.999528 8.999967 L 352.500448 25.000024 L 357.000431 42.999959 L 372.50026 46.999715 L 388.500317 56.49991 L 404.000146 50.500277 L 420.500431 46.499487 " transform="matrix(3.779528,0,0,3.779528,0,0)"/>
<path style="fill:none;stroke-width:2;stroke-linecap:butt;stroke-linejoin:miter;stroke:rgb(0%,0%,0%);stroke-opacity:1;stroke-miterlimit:4;" d="M 400.000391 55.999683 L 398.000513 39.999626 L 382.000456 35.99987 L 366.000399 31.499886 L 349.500114 27.50013 L 333.500057 19.000391 L 317.5 10.999845 " transform="matrix(3.779528,0,0,3.779528,0,0)"/>
<path style="fill:none;stroke-width:2;stroke-linecap:butt;stroke-linejoin:miter;stroke:rgb(0%,0%,0%);stroke-opacity:1;stroke-miterlimit:4;" d="M 315.500122 7.500317 L 333.500057 23.500374 L 343.50048 39.500431 L 355.499748 42.999959 L 341.499569 55.00026 L 321.499756 70.50009 L 307.999805 86.500146 L 310.49991 101.999976 L 318.99965 119.99991 L 303.499821 144.000513 L 307.999805 141.999601 L 332.000407 121.999788 L 347.500236 109.999487 L 363.000065 121.499561 L 378.499894 135.49974 L 394.499951 135.999967 L 409.99978 145.500163 L 438.000138 149.499919 L 454.000195 137.000423 L 470.000252 145.500163 " transform="matrix(3.779528,0,0,3.779528,0,0)"/>
<path style="fill:none;stroke-width:2;stroke-linecap:butt;stroke-linejoin:miter;stroke:rgb(0%,0%,0%);stroke-opacity:1;stroke-miterlimit:4;" d="M 395.500407 33.999992 L 379.50035 29.500008 L 363.500293 19.999813 L 347.500236 10.000423 L 331.500179 6.499862 L 315.500122 6.499862 " transform="matrix(3.779528,0,0,3.779528,0,0)"/>
<path style="fill:none;stroke-width:2;stroke-linecap:butt;stroke-linejoin:miter;stroke:rgb(0%,0%,0%);stroke-opacity:1;stroke-miterlimit:4;" d="M 336.000163 1.49965 L 350.000342 17.499707 " transform="matrix(3.779528,0,0,3.779528,0,0)"/>
<path style="fill:none;stroke-width:2;stroke-linecap:butt;stroke-linejoin:miter;stroke:rgb(0%,0%,0%);stroke-opacity:1;stroke-miterlimit:4;" d="M 304.500277 50.500277 L 290.500098 66.500334 L 286.500342 82.500391 L 288.50022 98.500448 L 290.500098 102.500203 L 290.500098 112.499593 L 314.999894 128.49965 L 294.499854 144.000513 L 262.49974 153.999902 L 258.499984 169.499731 L 260.499862 184.999561 " transform="matrix(3.779528,0,0,3.779528,0,0)"/>
<path style="fill:none;stroke-width:2;stroke-linecap:butt;stroke-linejoin:miter;stroke:rgb(0%,0%,0%);stroke-opacity:1;stroke-miterlimit:4;" d="M 271.499707 107.999609 L 255.49965 100.000098 L 239.000399 89.999674 L 221.000464 116.000155 L 204.500179 128.000456 L 189.00035 137.999845 L 172.500065 144.000513 L 157.000236 148.500496 L 141.000179 154.50013 L 137.499618 168.500309 L 121.999788 169.999959 L 132.000212 148.000269 L 144.499707 132.000212 L 146.499585 115.499927 L 148.500496 99.49987 L 139.000301 119.499683 L 123.000244 141.500407 L 92.49978 157.500464 L 78.499601 151.499797 L 50.500277 135.49974 L 34.50022 119.499683 L 26.00048 101.999976 L 23.999569 92.49978 L 30.000236 76.499723 L 30.000236 60.499666 L 33.999992 44.499609 L 32.000114 35.99987 " transform="matrix(3.779528,0,0,3.779528,0,0)"/>
<path style="fill:none;stroke-width:2;stroke-linecap:butt;stroke-linejoin:miter;stroke:rgb(0%,0%,0%);stroke-opacity:1;stroke-miterlimit:4;" d="M 36.500098 39.500431 L 39.999626 55.500488 L 39.999626 71.499512 L 32.000114 87.000374 L 41.999504 93.000008 L 44.499609 108.499837 L 46.499487 124.499894 L 60.000472 136.500195 " transform="matrix(3.779528,0,0,3.779528,0,0)"/>
<path style="fill:none;stroke-width:2;stroke-linecap:butt;stroke-linejoin:miter;stroke:rgb(0%,0%,0%);stroke-opacity:1;stroke-miterlimit:4;" d="M 50.500277 93.000008 L 66.500334 89.50048 " transform="matrix(3.779528,0,0,3.779528,0,0)"/>
<path style="fill:none;stroke-width:2;stroke-linecap:butt;stroke-linejoin:miter;stroke:rgb(0%,0%,0%);stroke-opacity:1;stroke-miterlimit:4;" d="M 56.49991 89.50048 L 48.500399 105.499504 L 35.499642 121.499561 L 51.999927 129.500106 L 67.999984 139.499495 L 84.000041 148.000269 L 100.000098 155.99978 " transform="matrix(3.779528,0,0,3.779528,0,0)"/>
<path style="fill:none;stroke-width:2;stroke-linecap:butt;stroke-linejoin:miter;stroke:rgb(0%,0%,0%);stroke-opacity:1;stroke-miterlimit:4;" d="M 126.499772 146.000391 L 138.500073 130.499528 L 123.999666 130.499528 L 128.000456 120.500138 L 124.499894 108.499837 L 140.499951 102.500203 L 124.499894 104.500081 " transform="matrix(3.779528,0,0,3.779528,0,0)"/>
<path style="fill:none;stroke-width:2;stroke-linecap:butt;stroke-linejoin:miter;stroke:rgb(0%,0%,0%);stroke-opacity:1;stroke-miterlimit:4;" d="M 132.500439 98.999642 L 134.500317 115.499927 L 130.000334 131.499984 L 121.999788 147.500041 L 135.999967 134.00009 " transform="matrix(3.779528,0,0,3.779528,0,0)"/>
<path style="fill:none;stroke-width:2;stroke-linecap:butt;stroke-linejoin:miter;stroke:rgb(0%,0%,0%);stroke-opacity:1;stroke-miterlimit:4;" d="M 166.000203 101.499748 L 182.00026 107.500415 L 182.00026 109.500293 L 168.000081 125.50035 L 152.000024 141.500407 L 152.000024 141.999601 L 168.000081 131.499984 L 184.000138 121.999788 L 200.000195 112.000399 L 216.000252 100.000098 " transform="matrix(3.779528,0,0,3.779528,0,0)"/>
<path style="fill:none;stroke-width:2;stroke-linecap:butt;stroke-linejoin:miter;stroke:rgb(0%,0%,0%);stroke-opacity:1;stroke-miterlimit:4;" d="M 191.500456 109.000065 L 207.000285 99.49987 L 209.000163 83.499813 L 180.499577 67.499756 L 162.499642 51.499699 L 164.49952 41.999504 L 146.000391 19.999813 L 162.000448 4.499984 L 159.999536 7.00009 L 143.500285 14.999601 " transform="matrix(3.779528,0,0,3.779528,0,0)"/>
<path style="fill:none;stroke-width:2;stroke-linecap:butt;stroke-linejoin:miter;stroke:rgb(0%,0%,0%);stroke-opacity:1;stroke-miterlimit:4;" d="M 146.000391 17.499707 L 162.000448 28.99978 " transform="matrix(3.779528,0,0,3.779528,0,0)"/>
<path style="fill:none;stroke-width:2;stroke-linecap:butt;stroke-linejoin:miter;stroke:rgb(0%,0%,0%);stroke-opacity:1;stroke-miterlimit:4;" d="M 152.000024 14.000179 L 167.499854 7.500317 " transform="matrix(3.779528,0,0,3.779528,0,0)"/>
<path style="fill:none;stroke-width:2;stroke-linecap:butt;stroke-linejoin:miter;stroke:rgb(0%,0%,0%);stroke-opacity:1;stroke-miterlimit:4;" d="M 155.000358 20.500041 L 148.500496 14.500407 " transform="matrix(3.779528,0,0,3.779528,0,0)"/>
<path style="fill:none;stroke-width:2;stroke-linecap:butt;stroke-linejoin:miter;stroke:rgb(0%,0%,0%);stroke-opacity:1;stroke-miterlimit:4;" d="M 182.00026 43.500187 L 198.499512 47.499943 L 214.999797 51.499699 " transform="matrix(3.779528,0,0,3.779528,0,0)"/>
<path style="fill:none;stroke-width:2;stroke-linecap:butt;stroke-linejoin:miter;stroke:rgb(0%,0%,0%);stroke-opacity:1;stroke-miterlimit:4;" d="M 203.499723 79.500057 L 187.999894 71.99974 L 171.499609 59.500244 L 143.500285 61.500122 L 127.500228 69.499634 L 111.500171 77.500179 L 100.99952 57.500366 L 85.000496 45.500065 L 68.500212 33.999992 L 52.500155 26.00048 L 35.99987 18.500163 L 19.999813 25.000024 " transform="matrix(3.779528,0,0,3.779528,0,0)"/>
<path style="fill:none;stroke-width:2;stroke-linecap:butt;stroke-linejoin:miter;stroke:rgb(0%,0%,0%);stroke-opacity:1;stroke-miterlimit:4;" d="M 33.999992 17.999935 L 64.000228 33.999992 L 85.999919 50.000049 L 107.999609 66.500334 L 100.000098 74.499845 L 100.000098 90.499902 L 107.500415 114.500505 L 98.999642 118.50026 L 103.000431 134.500317 L 123.500472 116.000155 L 139.499495 109.999487 " transform="matrix(3.779528,0,0,3.779528,0,0)"/>
<path style="fill:none;stroke-width:2;stroke-linecap:butt;stroke-linejoin:miter;stroke:rgb(0%,0%,0%);stroke-opacity:1;stroke-miterlimit:4;" d="M 122.500016 78.000407 L 106.499959 84.000041 " transform="matrix(3.779528,0,0,3.779528,0,0)"/>
<path style="fill:none;stroke-width:2;stroke-linecap:butt;stroke-linejoin:miter;stroke:rgb(0%,0%,0%);stroke-opacity:1;stroke-miterlimit:4;" d="M 98.500448 32.999536 L 103.999854 23.000146 L 107.999609 31.499886 " transform="matrix(3.779528,0,0,3.779528,0,0)"/>
<path style="fill:none;stroke-width:2;stroke-linecap:butt;stroke-linejoin:miter;stroke:rgb(0%,0%,0%);stroke-opacity:1;stroke-miterlimit:4;" d="M 103.999854 12.000301 L 131.499984 28.000358 L 152.000024 44.499609 L 134.00009 60.499666 L 134.500317 75.999495 L 104.500081 77.500179 L 107.000187 94.000464 L 100.99952 109.999487 L 98.999642 112.000399 L 98.999642 128.000456 L 103.000431 144.000513 L 112.999821 147.500041 L 110.999943 160.999992 L 132.999634 166.999626 L 132.999634 146.999813 " transform="matrix(3.779528,0,0,3.779528,0,0)"/>
<path style="fill:none;stroke-width:2;stroke-linecap:butt;stroke-linejoin:miter;stroke:rgb(0%,0%,0%);stroke-opacity:1;stroke-miterlimit:4;" d="M 105.000309 164.49952 L 89.000252 153.999902 L 73.000195 148.000269 L 56.49991 137.999845 L 34.50022 141.500407 L 17.999935 134.00009 L 1.999878 125.999544 " transform="matrix(3.779528,0,0,3.779528,0,0)"/>
<path style="fill:none;stroke-width:2;stroke-linecap:butt;stroke-linejoin:miter;stroke:rgb(0%,0%,0%);stroke-opacity:1;stroke-miterlimit:4;" d="M 3.499528 122.500016 L 19.499585 128.49965 L 35.499642 137.000423 L 51.499699 144.999935 L 59.000016 150.999569 L 74.499845 154.50013 " transform="matrix(3.779528,0,0,3.779528,0,0)"/>
<path style="fill:none;stroke-width:2;stroke-linecap:butt;stroke-linejoin:miter;stroke:rgb(0%,0%,0%);stroke-opacity:1;stroke-miterlimit:4;" d="M 33.499764 182.00026 L 17.499707 185.499788 L 1.999878 183.49991 " transform="matrix(3.779528,0,0,3.779528,0,0)"/>
<path style="fill:none;stroke-width:2;stroke-linecap:butt;stroke-linejoin:miter;stroke:rgb(0%,0%,0%);stroke-opacity:1;stroke-miterlimit:4;" d="M 2.500106 177.500277 L 18.500163 180.000382 " transform="matrix(3.779528,0,0,3.779528,0,0)"/>
<path style="fill:none;stroke-width:2;stroke-linecap:butt;stroke-linejoin:miter;stroke:rgb(0%,0%,0%);stroke-opacity:1;stroke-miterlimit:4;" d="M 21.500496 181.500033 L 23.500374 165.499976 L 17.499707 167.499854 L 1.49965 165.499976 " transform="matrix(3.779528,0,0,3.779528,0,0)"/>
<path style="fill:none;stroke-width:2;stroke-linecap:butt;stroke-linejoin:miter;stroke:rgb(0%,0%,0%);stroke-opacity:1;stroke-miterlimit:4;" d="M 1.999878 161.50022 L 17.999935 164.000326 L 33.999992 172.500065 " transform="matrix(3.779528,0,0,3.779528,0,0)"/>
<path style="fill:none;stroke-width:2;stroke-linecap:butt;stroke-linejoin:miter;stroke:rgb(0%,0%,0%);stroke-opacity:1;stroke-miterlimit:4;" d="M 33.999992 118.000033 L 17.999935 114.000277 L 1.999878 107.999609 " transform="matrix(3.779528,0,0,3.779528,0,0)"/>
<path style="fill:none;stroke-width:2;stroke-linecap:butt;stroke-linejoin:miter;stroke:rgb(0%,0%,0%);stroke-opacity:1;stroke-miterlimit:4;" d="M 4.499984 106.499959 L 23.000146 130.499528 L 53.000382 146.999813 L 46.999715 163.500098 L 35.000448 173.499487 L 51.000505 167.499854 L 66.999528 161.50022 " transform="matrix(3.779528,0,0,3.779528,0,0)"/>
<path style="fill:none;stroke-width:2;stroke-linecap:butt;stroke-linejoin:miter;stroke:rgb(0%,0%,0%);stroke-opacity:1;stroke-miterlimit:4;" d="M 57.500366 156.500008 L 51.499699 160.499764 L 65.499878 155.000358 L 21.999691 139.000301 L 3.999756 122.500016 " transform="matrix(3.779528,0,0,3.779528,0,0)"/>
<path style="fill:none;stroke-width:2;stroke-linecap:butt;stroke-linejoin:miter;stroke:rgb(0%,0%,0%);stroke-opacity:1;stroke-miterlimit:4;" d="M 1.49965 103.000431 L 17.499707 108.499837 L 41.500309 82.999585 L 35.499642 98.999642 L 28.000358 114.999699 L 28.000358 96.999764 L 48.000171 90.499902 L 64.500456 85.999919 L 80.500513 89.50048 L 100.500326 97.499992 L 126.499772 79.500057 L 139.000301 73.500423 L 132.999634 93.500236 L 148.999691 99.49987 L 175.000171 97.499992 L 191.000228 107.500415 L 207.000285 99.49987 L 194.499756 115.499927 L 168.500309 131.499984 L 146.999813 151.499797 L 127 163.500098 L 143.000057 147.500041 L 158.499886 131.499984 L 173.999715 121.000366 " transform="matrix(3.779528,0,0,3.779528,0,0)"/>
<path style="fill:none;stroke-width:2;stroke-linecap:butt;stroke-linejoin:miter;stroke:rgb(0%,0%,0%);stroke-opacity:1;stroke-miterlimit:4;" d="M 214.000374 80.999707 L 212.000496 64.99965 L 230.000431 51.499699 L 213.500146 45.500065 L 197.50009 41.999504 L 181.500033 39.999626 L 159.500342 45.500065 L 143.500285 33.499764 L 127 23.500374 L 110.999943 13.499951 L 95.500114 7.500317 L 81.499935 13.499951 L 66.000106 26.999902 L 50.500277 17.000513 L 34.50022 12.999723 L 18.500163 19.000391 L 4.499984 29.500008 L 12.499495 13.499951 L 4.499984 13.499951 " transform="matrix(3.779528,0,0,3.779528,0,0)"/>
<path style="fill:none;stroke-width:2;stroke-linecap:butt;stroke-linejoin:miter;stroke:rgb(0%,0%,0%);stroke-opacity:1;stroke-miterlimit:4;" d="M 39.500431 14.500407 L 67.499756 30.500464 L 89.50048 46.499487 L 109.500293 62.499544 L 117.499805 62.499544 L 115.499927 87.999797 L 119.99991 89.999674 L 118.000033 105.999731 L 118.50026 112.000399 L 118.50026 128.000456 L 109.000065 135.49974 L 116.999577 149.499919 L 116.999577 165.499976 L 142.499829 175.500399 L 157.999658 160.999992 L 164.000326 175.000171 " transform="matrix(3.779528,0,0,3.779528,0,0)"/>
<path style="fill:none;stroke-width:2;stroke-linecap:butt;stroke-linejoin:miter;stroke:rgb(0%,0%,0%);stroke-opacity:1;stroke-miterlimit:4;" d="M 159.000114 198.000317 L 128.999878 211.500269 L 144.999935 211.000041 L 160.999992 202.999495 L 177.000049 200.999618 L 192.499878 200.999618 L 209.000163 194.999984 " transform="matrix(3.779528,0,0,3.779528,0,0)"/>
<path style="fill:none;stroke-width:2;stroke-linecap:butt;stroke-linejoin:miter;stroke:rgb(0%,0%,0%);stroke-opacity:1;stroke-miterlimit:4;" d="M 254 99.49987 L 260.499862 105.499504 L 276.499919 109.500293 " transform="matrix(3.779528,0,0,3.779528,0,0)"/>
<path style="fill:none;stroke-width:2;stroke-linecap:butt;stroke-linejoin:miter;stroke:rgb(0%,0%,0%);stroke-opacity:1;stroke-miterlimit:4;" d="M 280.999902 51.000505 L 265.500073 44.999837 " transform="matrix(3.779528,0,0,3.779528,0,0)"/>
<path style="fill:none;stroke-width:2;stroke-linecap:butt;stroke-linejoin:miter;stroke:rgb(0%,0%,0%);stroke-opacity:1;stroke-miterlimit:4;" d="M 266.000301 41.000081 L 282.000358 28.99978 L 298.000415 17.000513 L 310.49991 3.499528 L 294.499854 19.499585 L 274.500041 35.499642 L 277.000146 43.500187 " transform="matrix(3.779528,0,0,3.779528,0,0)"/>
<path style="fill:none;stroke-width:2;stroke-linecap:butt;stroke-linejoin:miter;stroke:rgb(0%,0%,0%);stroke-opacity:1;stroke-miterlimit:4;" d="M 284.999658 53.999805 L 263.500195 37.49952 L 283.500008 21.500496 L 300.999715 5.500439 L 293.500431 14.000179 L 277.500374 26.00048 L 261.500317 39.999626 " transform="matrix(3.779528,0,0,3.779528,0,0)"/>
<path style="fill:none;stroke-width:2;stroke-linecap:butt;stroke-linejoin:miter;stroke:rgb(0%,0%,0%);stroke-opacity:1;stroke-miterlimit:4;" d="M 250.000244 18.500163 L 234.000187 7.999512 L 218.00013 3.499528 L 201.499845 3.499528 " transform="matrix(3.779528,0,0,3.779528,0,0)"/>
<path style="fill:none;stroke-width:2;stroke-linecap:butt;stroke-linejoin:miter;stroke:rgb(0%,0%,0%);stroke-opacity:1;stroke-miterlimit:4;" d="M 217.499902 1.000456 L 239.499593 17.000513 " transform="matrix(3.779528,0,0,3.779528,0,0)"/>
<path style="fill:none;stroke-width:2;stroke-linecap:butt;stroke-linejoin:miter;stroke:rgb(0%,0%,0%);stroke-opacity:1;stroke-miterlimit:4;" d="M 247.500138 17.999935 L 223.000342 1.999878 " transform="matrix(3.779528,0,0,3.779528,0,0)"/>
<path style="fill:none;stroke-width:2;stroke-linecap:butt;stroke-linejoin:miter;stroke:rgb(0%,0%,0%);stroke-opacity:1;stroke-miterlimit:4;" d="M 192.499878 70.50009 L 168.500309 54.500033 " transform="matrix(3.779528,0,0,3.779528,0,0)"/>
<path style="fill:none;stroke-width:2;stroke-linecap:butt;stroke-linejoin:miter;stroke:rgb(0%,0%,0%);stroke-opacity:1;stroke-miterlimit:4;" d="M 148.999691 63.5 L 146.999813 46.000293 L 125.000122 30.500464 L 94.999886 14.500407 " transform="matrix(3.779528,0,0,3.779528,0,0)"/>
<path style="fill:none;stroke-width:2;stroke-linecap:butt;stroke-linejoin:miter;stroke:rgb(0%,0%,0%);stroke-opacity:1;stroke-miterlimit:4;" d="M 98.999642 10.499618 L 80.999707 26.499674 L 89.000252 16.000057 L 105.000309 16.000057 L 120.500138 23.999569 L 136.500195 35.499642 " transform="matrix(3.779528,0,0,3.779528,0,0)"/>
<path style="fill:none;stroke-width:2;stroke-linecap:butt;stroke-linejoin:miter;stroke:rgb(0%,0%,0%);stroke-opacity:1;stroke-miterlimit:4;" d="M 90.499902 8.999967 L 76.499723 24.499797 L 82.500391 38.499976 L 98.500448 50.500277 L 114.500505 54.500033 L 118.50026 56.49991 L 134.999512 60.499666 L 150.999569 50.500277 L 163.500098 51.999927 L 171.000415 53.999805 L 187.000472 64.500456 L 202.999495 75.999495 L 218.999552 64.000228 " transform="matrix(3.779528,0,0,3.779528,0,0)"/>
<path style="fill:none;stroke-width:2;stroke-linecap:butt;stroke-linejoin:miter;stroke:rgb(0%,0%,0%);stroke-opacity:1;stroke-miterlimit:4;" d="M 472.00013 1.49965 L 468.000374 17.499707 L 461.999707 33.999992 L 440.000016 50.000049 L 425.999837 65.499878 L 438.500366 83.499813 L 438.000138 99.49987 L 447.999528 97.499992 L 463.999585 85.499691 L 480.49987 71.499512 L 497.000155 59.500244 L 506.50035 69.999862 " transform="matrix(3.779528,0,0,3.779528,0,0)"/>
<path style="fill:none;stroke-width:2;stroke-linecap:butt;stroke-linejoin:miter;stroke:rgb(0%,0%,0%);stroke-opacity:1;stroke-miterlimit:4;" d="M 497.999577 10.000423 L 481.500326 11.500073 L 471.499902 19.499585 L 473.49978 17.999935 L 477.999764 2.500106 " transform="matrix(3.779528,0,0,3.779528,0,0)"/>
</g>
</svg>
