<?xml version="1.0" encoding="UTF-8"?>
<svg xmlns="http://www.w3.org/2000/svg" xmlns:xlink="http://www.w3.org/1999/xlink" width="1935.11811" height="1935.11811" viewBox="0 0 1935.11811 1935.11811" version="1.1">
<g id="surface1">
<path style="fill:none;stroke-width:2;stroke-linecap:butt;stroke-linejoin:miter;stroke:rgb(0%,0%,0%);stroke-opacity:1;stroke-miterlimit:4;" d="M 283.500008 36.500098 L 275.500496 52.500155 L 275.500496 68.500212 L 285.499886 84.500269 L 309.500488 96.999764 L 319.499878 94.999886 " transform="matrix(3.779528,0,0,3.779528,0,0)"/>
<path style="fill:none;stroke-width:2;stroke-linecap:butt;stroke-linejoin:miter;stroke:rgb(0%,0%,0%);stroke-opacity:1;stroke-miterlimit:4;" d="M 312.499788 77.500179 L 302.500399 69.499634 L 289.000448 71.499512 L 286.999536 59.500244 " transform="matrix(3.779528,0,0,3.779528,0,0)"/>
<path style="fill:none;stroke-width:2;stroke-linecap:butt;stroke-linejoin:miter;stroke:rgb(0%,0%,0%);stroke-opacity:1;stroke-miterlimit:4;" d="M 284.000236 51.499699 L 286.000114 67.499756 L 305.499699 83.499813 " transform="matrix(3.779528,0,0,3.779528,0,0)"/>
<path style="fill:none;stroke-width:2;stroke-linecap:butt;stroke-linejoin:miter;stroke:rgb(0%,0%,0%);stroke-opacity:1;stroke-miterlimit:4;" d="M 302.999593 69.999862 L 299.500065 57.500366 L 284.000236 50.000049 " transform="matrix(3.779528,0,0,3.779528,0,0)"/>
<path style="fill:none;stroke-width:2;stroke-linecap:butt;stroke-linejoin:miter;stroke:rgb(0%,0%,0%);stroke-opacity:1;stroke-miterlimit:4;" d="M 280.00048 47.499943 L 295.999504 44.999837 L 311.999561 53.499577 " transform="matrix(3.779528,0,0,3.779528,0,0)"/>
<path style="fill:none;stroke-width:2;stroke-linecap:butt;stroke-linejoin:miter;stroke:rgb(0%,0%,0%);stroke-opacity:1;stroke-miterlimit:4;" d="M 323.999862 57.999561 L 307.999805 46.499487 L 291.999748 39.000203 L 275.500496 44.999837 " transform="matrix(3.779528,0,0,3.779528,0,0)"/>
<path style="fill:none;stroke-width:2;stroke-linecap:butt;stroke-linejoin:miter;stroke:rgb(0%,0%,0%);stroke-opacity:1;stroke-miterlimit:4;" d="M 283.500008 41.000081 L 279.500252 57.000138 L 281.50013 73.000195 L 289.499642 77.500179 " transform="matrix(3.779528,0,0,3.779528,0,0)"/>
<path style="fill:none;stroke-width:2;stroke-linecap:butt;stroke-linejoin:miter;stroke:rgb(0%,0%,0%);stroke-opacity:1;stroke-miterlimit:4;" d="M 277.000146 71.499512 L 293.500431 85.499691 L 309.500488 89.50048 " transform="matrix(3.779528,0,0,3.779528,0,0)"/>
<path style="fill:none;stroke-width:2;stroke-linecap:butt;stroke-linejoin:miter;stroke:rgb(0%,0%,0%);stroke-opacity:1;stroke-miterlimit:4;" d="M 294.499854 113.500049 L 311.999561 129.500106 L 320.000106 133.499862 L 321.999984 148.999691 L 307.999805 164.999748 " transform="matrix(3.779528,0,0,3.779528,0,0)"/>
<path style="fill:none;stroke-width:2;stroke-linecap:butt;stroke-linejoin:miter;stroke:rgb(0%,0%,0%);stroke-opacity:1;stroke-miterlimit:4;" d="M 338.500269 157.500464 L 354.500326 161.50022 L 370.500382 169.499731 L 386.500439 179.500155 L 402.500496 187.499666 " transform="matrix(3.779528,0,0,3.779528,0,0)"/>
<path style="fill:none;stroke-width:2;stroke-linecap:butt;stroke-linejoin:miter;stroke:rgb(0%,0%,0%);stroke-opacity:1;stroke-miterlimit:4;" d="M 397.500285 191.99965 L 382.000456 182.00026 L 366.000399 178.000505 " transform="matrix(3.779528,0,0,3.779528,0,0)"/>
<path style="fill:none;stroke-width:2;stroke-linecap:butt;stroke-linejoin:miter;stroke:rgb(0%,0%,0%);stroke-opacity:1;stroke-miterlimit:4;" d="M 368.500505 174.499943 L 373.000488 190.5 L 397.000057 207.000285 " transform="matrix(3.779528,0,0,3.779528,0,0)"/>
<path style="fill:none;stroke-width:2;stroke-linecap:butt;stroke-linejoin:miter;stroke:rgb(0%,0%,0%);stroke-opacity:1;stroke-miterlimit:4;" d="M 382.000456 239.000399 L 398.000513 248.999788 L 413.999536 257.000334 L 430.499821 265.500073 " transform="matrix(3.779528,0,0,3.779528,0,0)"/>
<path style="fill:none;stroke-width:2;stroke-linecap:butt;stroke-linejoin:miter;stroke:rgb(0%,0%,0%);stroke-opacity:1;stroke-miterlimit:4;" d="M 454.000195 251.499894 L 454.500423 227.500326 L 452.499512 243.500382 L 457.999951 246.000488 L 454.000195 261.999512 L 459.499601 277.999569 L 465.500269 275.999691 L 474.000008 268.500407 L 475.999886 272.500163 " transform="matrix(3.779528,0,0,3.779528,0,0)"/>
<path style="fill:none;stroke-width:2;stroke-linecap:butt;stroke-linejoin:miter;stroke:rgb(0%,0%,0%);stroke-opacity:1;stroke-miterlimit:4;" d="M 459.000407 254.500228 L 475.000464 242.499927 " transform="matrix(3.779528,0,0,3.779528,0,0)"/>
<path style="fill:none;stroke-width:2;stroke-linecap:butt;stroke-linejoin:miter;stroke:rgb(0%,0%,0%);stroke-opacity:1;stroke-miterlimit:4;" d="M 470.000252 239.999821 L 479.500448 255.999878 L 486.999731 257.499528 L 486.999731 273.499585 L 484.999854 289.499642 " transform="matrix(3.779528,0,0,3.779528,0,0)"/>
<path style="fill:none;stroke-width:2;stroke-linecap:butt;stroke-linejoin:miter;stroke:rgb(0%,0%,0%);stroke-opacity:1;stroke-miterlimit:4;" d="M 489.499837 295.000081 L 473.49978 296.999959 L 457.499723 289.000448 L 431.500277 262.999967 L 399.500163 246.99991 L 369.499927 232.499504 L 353.49987 224.499992 " transform="matrix(3.779528,0,0,3.779528,0,0)"/>
<path style="fill:none;stroke-width:2;stroke-linecap:butt;stroke-linejoin:miter;stroke:rgb(0%,0%,0%);stroke-opacity:1;stroke-miterlimit:4;" d="M 338.500269 237.999943 L 321.999984 224.499992 " transform="matrix(3.779528,0,0,3.779528,0,0)"/>
<path style="fill:none;stroke-width:2;stroke-linecap:butt;stroke-linejoin:miter;stroke:rgb(0%,0%,0%);stroke-opacity:1;stroke-miterlimit:4;" d="M 320.500334 216.50048 L 336.500391 226.49987 L 352.999642 236.500293 " transform="matrix(3.779528,0,0,3.779528,0,0)"/>
<path style="fill:none;stroke-width:2;stroke-linecap:butt;stroke-linejoin:miter;stroke:rgb(0%,0%,0%);stroke-opacity:1;stroke-miterlimit:4;" d="M 329.999495 212.000496 L 361.999609 227.99952 L 371.499805 243.999577 L 366.999821 261.500317 L 382.49965 269.499829 L 398.499707 277.999569 " transform="matrix(3.779528,0,0,3.779528,0,0)"/>
<path style="fill:none;stroke-width:2;stroke-linecap:butt;stroke-linejoin:miter;stroke:rgb(0%,0%,0%);stroke-opacity:1;stroke-miterlimit:4;" d="M 383.500106 293.999626 L 406.000024 280.00048 L 379.50035 264.000423 L 353.49987 248.000366 L 359.000309 239.999821 L 370.500382 212.499691 L 354.500326 196.499634 L 338.000041 180.499577 L 338.000041 164.49952 L 341.499569 164.49952 " transform="matrix(3.779528,0,0,3.779528,0,0)"/>
<path style="fill:none;stroke-width:2;stroke-linecap:butt;stroke-linejoin:miter;stroke:rgb(0%,0%,0%);stroke-opacity:1;stroke-miterlimit:4;" d="M 344.499902 160.999992 L 342.500024 177.500277 L 359.999731 193.500334 L 366.000399 191.500456 L 382.000456 198.000317 L 398.000513 207.999707 " transform="matrix(3.779528,0,0,3.779528,0,0)"/>
<path style="fill:none;stroke-width:2;stroke-linecap:butt;stroke-linejoin:miter;stroke:rgb(0%,0%,0%);stroke-opacity:1;stroke-miterlimit:4;" d="M 375.999788 209.000163 L 359.999731 198.99974 L 343.999674 189.499544 " transform="matrix(3.779528,0,0,3.779528,0,0)"/>
<path style="fill:none;stroke-width:2;stroke-linecap:butt;stroke-linejoin:miter;stroke:rgb(0%,0%,0%);stroke-opacity:1;stroke-miterlimit:4;" d="M 346.49978 180.499577 L 368.999699 196.499634 L 379.000122 210.499813 L 407.00048 226.49987 " transform="matrix(3.779528,0,0,3.779528,0,0)"/>
<path style="fill:none;stroke-width:2;stroke-linecap:butt;stroke-linejoin:miter;stroke:rgb(0%,0%,0%);stroke-opacity:1;stroke-miterlimit:4;" d="M 438.999561 223.000342 L 454.999618 211.000041 L 471.499902 216.999674 L 487.499959 225.00022 L 504.000244 232.999731 " transform="matrix(3.779528,0,0,3.779528,0,0)"/>
<path style="fill:none;stroke-width:2;stroke-linecap:butt;stroke-linejoin:miter;stroke:rgb(0%,0%,0%);stroke-opacity:1;stroke-miterlimit:4;" d="M 484.999854 241.500505 L 468.499569 232.999731 L 452.499512 227.000098 " transform="matrix(3.779528,0,0,3.779528,0,0)"/>
<path style="fill:none;stroke-width:2;stroke-linecap:butt;stroke-linejoin:miter;stroke:rgb(0%,0%,0%);stroke-opacity:1;stroke-miterlimit:4;" d="M 445.000228 219.49978 L 461.000285 215.500024 L 477.499536 223.999764 L 493.999821 234.000187 " transform="matrix(3.779528,0,0,3.779528,0,0)"/>
<path style="fill:none;stroke-width:2;stroke-linecap:butt;stroke-linejoin:miter;stroke:rgb(0%,0%,0%);stroke-opacity:1;stroke-miterlimit:4;" d="M 476.500114 236.999487 L 493.999821 253.499772 L 491.999943 269.499829 L 491.999943 286.000114 " transform="matrix(3.779528,0,0,3.779528,0,0)"/>
<path style="fill:none;stroke-width:2;stroke-linecap:butt;stroke-linejoin:miter;stroke:rgb(0%,0%,0%);stroke-opacity:1;stroke-miterlimit:4;" d="M 459.999829 290.500098 L 443.999772 274.500041 L 411.999658 258.499984 L 382.000456 242.499927 L 348.000464 227.99952 L 320.000106 212.000496 L 311.999561 207.500513 L 295.999504 211.500269 " transform="matrix(3.779528,0,0,3.779528,0,0)"/>
<path style="fill:none;stroke-width:2;stroke-linecap:butt;stroke-linejoin:miter;stroke:rgb(0%,0%,0%);stroke-opacity:1;stroke-miterlimit:4;" d="M 299.500065 215.500024 L 316.00035 215.500024 L 332.000407 218.00013 L 348.000464 226.49987 L 363.999487 236.500293 L 389.999967 239.999821 L 406.000024 248.000366 L 421.499854 256.500106 " transform="matrix(3.779528,0,0,3.779528,0,0)"/>
<path style="fill:none;stroke-width:2;stroke-linecap:butt;stroke-linejoin:miter;stroke:rgb(0%,0%,0%);stroke-opacity:1;stroke-miterlimit:4;" d="M 414.499764 220.000008 L 416.499642 204.500179 L 400.000391 188.500122 L 372.000033 172.500065 L 365.500171 168.500309 L 350.999764 166.500431 L 346.49978 166.999626 L 342.500024 178.999927 " transform="matrix(3.779528,0,0,3.779528,0,0)"/>
<path style="fill:none;stroke-width:2;stroke-linecap:butt;stroke-linejoin:miter;stroke:rgb(0%,0%,0%);stroke-opacity:1;stroke-miterlimit:4;" d="M 339.000496 179.500155 L 354.99952 189.499544 L 373.000488 196.000439 " transform="matrix(3.779528,0,0,3.779528,0,0)"/>
<path style="fill:none;stroke-width:2;stroke-linecap:butt;stroke-linejoin:miter;stroke:rgb(0%,0%,0%);stroke-opacity:1;stroke-miterlimit:4;" d="M 371.499805 177.500277 L 399.500163 193.500334 L 409.99978 209.500391 " transform="matrix(3.779528,0,0,3.779528,0,0)"/>
<path style="fill:none;stroke-width:2;stroke-linecap:butt;stroke-linejoin:miter;stroke:rgb(0%,0%,0%);stroke-opacity:1;stroke-miterlimit:4;" d="M 404.999569 223.999764 L 388.999512 213.500146 L 368.500505 213.500146 L 352.500448 223.499536 L 336.000163 212.999919 L 320.000106 205.499601 L 304.000049 199.499967 L 287.999992 207.500513 L 271.999935 203.999951 L 256.500106 214.000374 L 240.500049 223.999764 " transform="matrix(3.779528,0,0,3.779528,0,0)"/>
<path style="fill:none;stroke-width:2;stroke-linecap:butt;stroke-linejoin:miter;stroke:rgb(0%,0%,0%);stroke-opacity:1;stroke-miterlimit:4;" d="M 242.499927 227.500326 L 259.000212 219.49978 L 275.000269 207.500513 L 291.000326 213.500146 L 300.999715 215.500024 L 313.000016 221.499658 L 314.999894 231.500081 L 340.500146 233.499959 L 354.500326 245.50026 L 352.999642 251.499894 L 368.999699 245.50026 L 373.000488 259.500439 L 388.500317 267.499951 L 404.000146 275.000269 " transform="matrix(3.779528,0,0,3.779528,0,0)"/>
<path style="fill:none;stroke-width:2;stroke-linecap:butt;stroke-linejoin:miter;stroke:rgb(0%,0%,0%);stroke-opacity:1;stroke-miterlimit:4;" d="M 382.999878 276.499919 L 366.999821 268.500407 L 350.999764 257.999756 L 334.999707 248.000366 L 318.99965 239.999821 L 302.500399 230.000431 " transform="matrix(3.779528,0,0,3.779528,0,0)"/>
<path style="fill:none;stroke-width:2;stroke-linecap:butt;stroke-linejoin:miter;stroke:rgb(0%,0%,0%);stroke-opacity:1;stroke-miterlimit:4;" d="M 296.999959 232.499504 L 313.000016 242.499927 L 329.000073 252.000122 L 345.00013 261.999512 L 361.000187 270.000057 L 376.500016 277.999569 " transform="matrix(3.779528,0,0,3.779528,0,0)"/>
<path style="fill:none;stroke-width:2;stroke-linecap:butt;stroke-linejoin:miter;stroke:rgb(0%,0%,0%);stroke-opacity:1;stroke-miterlimit:4;" d="M 398.000513 280.00048 L 368.000277 263.500195 L 345.999552 247.500138 L 334.000285 231.500081 L 309.999683 227.500326 L 293.999626 221.499658 " transform="matrix(3.779528,0,0,3.779528,0,0)"/>
<path style="fill:none;stroke-width:2;stroke-linecap:butt;stroke-linejoin:miter;stroke:rgb(0%,0%,0%);stroke-opacity:1;stroke-miterlimit:4;" d="M 298.999837 223.499536 L 316.999772 239.499593 L 345.00013 255.49965 L 372.50026 271.499707 " transform="matrix(3.779528,0,0,3.779528,0,0)"/>
<path style="fill:none;stroke-width:2;stroke-linecap:butt;stroke-linejoin:miter;stroke:rgb(0%,0%,0%);stroke-opacity:1;stroke-miterlimit:4;" d="M 377.999666 287.499764 L 359.999731 271.499707 L 329.999495 263.500195 L 314.499666 265.500073 L 298.999837 255.999878 L 283.500008 248.000366 L 267.499951 237.999943 L 252.000122 227.99952 " transform="matrix(3.779528,0,0,3.779528,0,0)"/>
<path style="fill:none;stroke-width:2;stroke-linecap:butt;stroke-linejoin:miter;stroke:rgb(0%,0%,0%);stroke-opacity:1;stroke-miterlimit:4;" d="M 246.499683 232.000309 L 262.49974 241.999699 L 278.499797 250.000244 L 293.999626 259.999634 L 309.999683 268.500407 L 325.99974 276.499919 L 341.999797 284.500464 L 357.999854 292.499976 L 373.99991 298.499609 L 389.999967 290.500098 " transform="matrix(3.779528,0,0,3.779528,0,0)"/>
<path style="fill:none;stroke-width:2;stroke-linecap:butt;stroke-linejoin:miter;stroke:rgb(0%,0%,0%);stroke-opacity:1;stroke-miterlimit:4;" d="M 388.999512 313.000016 L 375.000366 325.000317 " transform="matrix(3.779528,0,0,3.779528,0,0)"/>
<path style="fill:none;stroke-width:2;stroke-linecap:butt;stroke-linejoin:miter;stroke:rgb(0%,0%,0%);stroke-opacity:1;stroke-miterlimit:4;" d="M 391.000423 344.499902 L 407.00048 350.499536 L 431.000049 378.499894 " transform="matrix(3.779528,0,0,3.779528,0,0)"/>
<path style="fill:none;stroke-width:2;stroke-linecap:butt;stroke-linejoin:miter;stroke:rgb(0%,0%,0%);stroke-opacity:1;stroke-miterlimit:4;" d="M 436.00026 375.000366 L 452.000317 379.000122 " transform="matrix(3.779528,0,0,3.779528,0,0)"/>
<path style="fill:none;stroke-width:2;stroke-linecap:butt;stroke-linejoin:miter;stroke:rgb(0%,0%,0%);stroke-opacity:1;stroke-miterlimit:4;" d="M 472.500358 370.000155 L 456.999495 363.999487 L 441.000472 355.999976 L 425.499609 350.499536 " transform="matrix(3.779528,0,0,3.779528,0,0)"/>
<path style="fill:none;stroke-width:2;stroke-linecap:butt;stroke-linejoin:miter;stroke:rgb(0%,0%,0%);stroke-opacity:1;stroke-miterlimit:4;" d="M 422.999504 348.999886 L 438.999561 347.000008 L 454.999618 354.500326 L 470.999674 362.499837 L 486.499504 368.500505 " transform="matrix(3.779528,0,0,3.779528,0,0)"/>
<path style="fill:none;stroke-width:2;stroke-linecap:butt;stroke-linejoin:miter;stroke:rgb(0%,0%,0%);stroke-opacity:1;stroke-miterlimit:4;" d="M 492.500171 366.999821 L 476.500114 359.000309 L 460.500057 352.500448 L 443.999772 342.500024 L 428.499943 338.500269 L 412.499886 348.499658 " transform="matrix(3.779528,0,0,3.779528,0,0)"/>
<path style="fill:none;stroke-width:2;stroke-linecap:butt;stroke-linejoin:miter;stroke:rgb(0%,0%,0%);stroke-opacity:1;stroke-miterlimit:4;" d="M 393.499495 348.499658 L 409.499552 356.500203 L 413.500342 361.999609 L 417.500098 352.00022 L 433.500155 363.500293 L 449.500212 366.000399 " transform="matrix(3.779528,0,0,3.779528,0,0)"/>
<path style="fill:none;stroke-width:2;stroke-linecap:butt;stroke-linejoin:miter;stroke:rgb(0%,0%,0%);stroke-opacity:1;stroke-miterlimit:4;" d="M 488.500415 387.499862 L 472.999552 397.500285 L 456.500301 405.499797 L 440.500244 417.500098 L 423.999959 419.499976 L 407.999902 413.500342 L 391.499618 405.499797 L 375.000366 395.000179 " transform="matrix(3.779528,0,0,3.779528,0,0)"/>
<path style="fill:none;stroke-width:2;stroke-linecap:butt;stroke-linejoin:miter;stroke:rgb(0%,0%,0%);stroke-opacity:1;stroke-miterlimit:4;" d="M 369.499927 377.999666 L 389.49974 361.999609 L 375.499561 377.999666 L 379.000122 393.499495 L 409.499552 409.499552 " transform="matrix(3.779528,0,0,3.779528,0,0)"/>
<path style="fill:none;stroke-width:2;stroke-linecap:butt;stroke-linejoin:miter;stroke:rgb(0%,0%,0%);stroke-opacity:1;stroke-miterlimit:4;" d="M 452.499512 391.999845 L 436.00026 383.500106 L 420.000203 375.499561 L 404.000146 367.500049 L 375.999788 375.000366 " transform="matrix(3.779528,0,0,3.779528,0,0)"/>
<path style="fill:none;stroke-width:2;stroke-linecap:butt;stroke-linejoin:miter;stroke:rgb(0%,0%,0%);stroke-opacity:1;stroke-miterlimit:4;" d="M 354.99952 345.500358 L 370.999577 351.499992 L 387.499862 359.499504 L 407.499674 359.499504 L 437.49991 375.000366 " transform="matrix(3.779528,0,0,3.779528,0,0)"/>
<path style="fill:none;stroke-width:2;stroke-linecap:butt;stroke-linejoin:miter;stroke:rgb(0%,0%,0%);stroke-opacity:1;stroke-miterlimit:4;" d="M 448.999984 402.500496 L 477.000342 386.500439 L 486.999731 370.500382 L 450.999862 354.99952 L 431.000049 332.999829 L 415.50022 325.000317 L 400.000391 318.99965 L 384.000334 320.999528 L 368.500505 329.000073 L 352.500448 336.999585 " transform="matrix(3.779528,0,0,3.779528,0,0)"/>
<path style="fill:none;stroke-width:2;stroke-linecap:butt;stroke-linejoin:miter;stroke:rgb(0%,0%,0%);stroke-opacity:1;stroke-miterlimit:4;" d="M 347.500236 341.999797 L 381.500228 357.499626 L 371.499805 373.499683 L 369.499927 389.49974 L 391.499618 405.499797 " transform="matrix(3.779528,0,0,3.779528,0,0)"/>
<path style="fill:none;stroke-width:2;stroke-linecap:butt;stroke-linejoin:miter;stroke:rgb(0%,0%,0%);stroke-opacity:1;stroke-miterlimit:4;" d="M 352.999642 393.499495 L 336.999585 381.500228 " transform="matrix(3.779528,0,0,3.779528,0,0)"/>
<path style="fill:none;stroke-width:2;stroke-linecap:butt;stroke-linejoin:miter;stroke:rgb(0%,0%,0%);stroke-opacity:1;stroke-miterlimit:4;" d="M 339.999919 380.499772 L 363.999487 400.999813 " transform="matrix(3.779528,0,0,3.779528,0,0)"/>
<path style="fill:none;stroke-width:2;stroke-linecap:butt;stroke-linejoin:miter;stroke:rgb(0%,0%,0%);stroke-opacity:1;stroke-miterlimit:4;" d="M 357.000431 401.500041 L 341.000374 398.000513 L 325.000317 382.000456 " transform="matrix(3.779528,0,0,3.779528,0,0)"/>
<path style="fill:none;stroke-width:2;stroke-linecap:butt;stroke-linejoin:miter;stroke:rgb(0%,0%,0%);stroke-opacity:1;stroke-miterlimit:4;" d="M 325.99974 381 L 336.000163 397.000057 " transform="matrix(3.779528,0,0,3.779528,0,0)"/>
<path style="fill:none;stroke-width:2;stroke-linecap:butt;stroke-linejoin:miter;stroke:rgb(0%,0%,0%);stroke-opacity:1;stroke-miterlimit:4;" d="M 339.999919 410.500008 L 323.999862 402.500496 L 308.500033 394.499951 " transform="matrix(3.779528,0,0,3.779528,0,0)"/>
<path style="fill:none;stroke-width:2;stroke-linecap:butt;stroke-linejoin:miter;stroke:rgb(0%,0%,0%);stroke-opacity:1;stroke-miterlimit:4;" d="M 305.000505 395.500407 L 320.999528 405.499797 L 336.999585 413.500342 L 352.999642 413.500342 " transform="matrix(3.779528,0,0,3.779528,0,0)"/>
<path style="fill:none;stroke-width:2;stroke-linecap:butt;stroke-linejoin:miter;stroke:rgb(0%,0%,0%);stroke-opacity:1;stroke-miterlimit:4;" d="M 338.500269 403.499919 L 322.500212 388.999512 L 306.500155 391.000423 " transform="matrix(3.779528,0,0,3.779528,0,0)"/>
<path style="fill:none;stroke-width:2;stroke-linecap:butt;stroke-linejoin:miter;stroke:rgb(0%,0%,0%);stroke-opacity:1;stroke-miterlimit:4;" d="M 308.500033 389.49974 L 330.499723 405.499797 " transform="matrix(3.779528,0,0,3.779528,0,0)"/>
<path style="fill:none;stroke-width:2;stroke-linecap:butt;stroke-linejoin:miter;stroke:rgb(0%,0%,0%);stroke-opacity:1;stroke-miterlimit:4;" d="M 348.000464 410.500008 L 350.000342 394.499951 L 334.000285 378.499894 " transform="matrix(3.779528,0,0,3.779528,0,0)"/>
<path style="fill:none;stroke-width:2;stroke-linecap:butt;stroke-linejoin:miter;stroke:rgb(0%,0%,0%);stroke-opacity:1;stroke-miterlimit:4;" d="M 320.999528 377.500472 L 299.500065 393.999723 L 325.99974 409.499552 " transform="matrix(3.779528,0,0,3.779528,0,0)"/>
<path style="fill:none;stroke-width:2;stroke-linecap:butt;stroke-linejoin:miter;stroke:rgb(0%,0%,0%);stroke-opacity:1;stroke-miterlimit:4;" d="M 300.000293 393.999723 L 316.499544 382.000456 L 332.499601 379.999544 L 348.499658 384.000334 L 373.99991 393.999723 L 389.999967 397.500285 L 405.499797 405.499797 L 422.000081 413.500342 L 438.000138 411.000236 L 453.499967 398.999935 L 469.500024 391.000423 L 485.500081 379.000122 " transform="matrix(3.779528,0,0,3.779528,0,0)"/>
<path style="fill:none;stroke-width:2;stroke-linecap:butt;stroke-linejoin:miter;stroke:rgb(0%,0%,0%);stroke-opacity:1;stroke-miterlimit:4;" d="M 428.499943 382.000456 L 400.000391 366.499593 L 378.499894 350.499536 L 354.500326 328.499845 L 338.500269 338.000041 L 321.999984 347.500236 L 305.999927 355.499748 L 289.99987 367.500049 L 273.999813 373.499683 L 257.999756 369.499927 L 241.999699 359.000309 L 226.49987 354.99952 " transform="matrix(3.779528,0,0,3.779528,0,0)"/>
<path style="fill:none;stroke-width:2;stroke-linecap:butt;stroke-linejoin:miter;stroke:rgb(0%,0%,0%);stroke-opacity:1;stroke-miterlimit:4;" d="M 230.499626 357.000431 L 260.499862 372.50026 " transform="matrix(3.779528,0,0,3.779528,0,0)"/>
<path style="fill:none;stroke-width:2;stroke-linecap:butt;stroke-linejoin:miter;stroke:rgb(0%,0%,0%);stroke-opacity:1;stroke-miterlimit:4;" d="M 266.499495 379.999544 L 236.500293 364.499715 " transform="matrix(3.779528,0,0,3.779528,0,0)"/>
<path style="fill:none;stroke-width:2;stroke-linecap:butt;stroke-linejoin:miter;stroke:rgb(0%,0%,0%);stroke-opacity:1;stroke-miterlimit:4;" d="M 253.499772 333.500057 L 269.499829 325.499512 L 285.499886 313.000016 L 270.000057 309.00026 L 246.499683 324.50009 L 248.999788 329.999495 L 264.499618 319.499878 L 280.00048 307.499577 L 279.500252 307.499577 L 257.499528 323.499634 L 259.000212 339.000496 L 271.499707 329.500301 L 287.999992 315.500122 L 293.999626 305.499699 L 274.500041 321.499756 L 250.500472 333.500057 L 266.999723 341.499569 L 282.499552 341.499569 L 298.499609 329.500301 L 306.500155 321.999984 L 286.500342 337.499813 " transform="matrix(3.779528,0,0,3.779528,0,0)"/>
<path style="fill:none;stroke-width:2;stroke-linecap:butt;stroke-linejoin:miter;stroke:rgb(0%,0%,0%);stroke-opacity:1;stroke-miterlimit:4;" d="M 275.000269 328.499845 L 295.500309 312.499788 " transform="matrix(3.779528,0,0,3.779528,0,0)"/>
<path style="fill:none;stroke-width:2;stroke-linecap:butt;stroke-linejoin:miter;stroke:rgb(0%,0%,0%);stroke-opacity:1;stroke-miterlimit:4;" d="M 298.000415 307.999805 L 304.000049 318.500456 L 284.000236 334.000285 L 275.500496 339.999919 L 291.49952 327.500423 L 307.499577 316.999772 " transform="matrix(3.779528,0,0,3.779528,0,0)"/>
<path style="fill:none;stroke-width:2;stroke-linecap:butt;stroke-linejoin:miter;stroke:rgb(0%,0%,0%);stroke-opacity:1;stroke-miterlimit:4;" d="M 302.999593 307.999805 L 287.499764 302.000171 L 271.499707 307.999805 L 255.999878 318.000228 L 240.500049 323.999862 L 224.499992 343.50048 L 208.499935 365.500171 L 192.499878 363.500293 L 176.499821 371.499805 L 160.499764 373.000488 L 144.499707 364.999943 L 128.49965 354.99952 L 112.499593 347.000008 L 106.499959 336.500391 L 96.000342 320.500334 L 123.999666 304.500277 " transform="matrix(3.779528,0,0,3.779528,0,0)"/>
<path style="fill:none;stroke-width:2;stroke-linecap:butt;stroke-linejoin:miter;stroke:rgb(0%,0%,0%);stroke-opacity:1;stroke-miterlimit:4;" d="M 123.500472 300.000293 L 93.500236 316.00035 L 83.499813 332.000407 L 109.999487 347.500236 L 138.500073 363.500293 " transform="matrix(3.779528,0,0,3.779528,0,0)"/>
<path style="fill:none;stroke-width:2;stroke-linecap:butt;stroke-linejoin:miter;stroke:rgb(0%,0%,0%);stroke-opacity:1;stroke-miterlimit:4;" d="M 160.499764 348.999886 L 176.499821 361.500415 " transform="matrix(3.779528,0,0,3.779528,0,0)"/>
<path style="fill:none;stroke-width:2;stroke-linecap:butt;stroke-linejoin:miter;stroke:rgb(0%,0%,0%);stroke-opacity:1;stroke-miterlimit:4;" d="M 187.999894 357.999854 L 203.999951 359.999731 L 220.500236 339.999919 " transform="matrix(3.779528,0,0,3.779528,0,0)"/>
<path style="fill:none;stroke-width:2;stroke-linecap:butt;stroke-linejoin:miter;stroke:rgb(0%,0%,0%);stroke-opacity:1;stroke-miterlimit:4;" d="M 246.000488 307.000382 L 257.999756 289.000448 L 231.500081 294.499854 L 235.499837 311.000138 L 230.999854 327.500423 L 222.500114 343.50048 L 214.499569 359.999731 L 211.000041 378.499894 L 184.999561 394.499951 " transform="matrix(3.779528,0,0,3.779528,0,0)"/>
<path style="fill:none;stroke-width:2;stroke-linecap:butt;stroke-linejoin:miter;stroke:rgb(0%,0%,0%);stroke-opacity:1;stroke-miterlimit:4;" d="M 244.499805 414.999992 L 260.499862 407.00048 L 275.999691 415.50022 L 291.999748 425.000415 L 291.999748 448.999984 L 289.99987 464.499813 " transform="matrix(3.779528,0,0,3.779528,0,0)"/>
<path style="fill:none;stroke-width:2;stroke-linecap:butt;stroke-linejoin:miter;stroke:rgb(0%,0%,0%);stroke-opacity:1;stroke-miterlimit:4;" d="M 281.50013 466.000496 L 265.500073 457.999951 L 249.500016 444.5 " transform="matrix(3.779528,0,0,3.779528,0,0)"/>
<path style="fill:none;stroke-width:2;stroke-linecap:butt;stroke-linejoin:miter;stroke:rgb(0%,0%,0%);stroke-opacity:1;stroke-miterlimit:4;" d="M 246.000488 447.000106 L 261.500317 461.500513 L 277.500374 469.500024 L 293.500431 467.500146 " transform="matrix(3.779528,0,0,3.779528,0,0)"/>
<path style="fill:none;stroke-width:2;stroke-linecap:butt;stroke-linejoin:miter;stroke:rgb(0%,0%,0%);stroke-opacity:1;stroke-miterlimit:4;" d="M 282.99978 424.500187 L 266.999723 414.499764 L 251.499894 414.499764 " transform="matrix(3.779528,0,0,3.779528,0,0)"/>
<path style="fill:none;stroke-width:2;stroke-linecap:butt;stroke-linejoin:miter;stroke:rgb(0%,0%,0%);stroke-opacity:1;stroke-miterlimit:4;" d="M 252.999544 416.99987 L 252.999544 405.499797 L 243.000155 421.499854 L 243.500382 437.49991 L 248.000366 454.000195 L 274.500041 470.000252 " transform="matrix(3.779528,0,0,3.779528,0,0)"/>
<path style="fill:none;stroke-width:2;stroke-linecap:butt;stroke-linejoin:miter;stroke:rgb(0%,0%,0%);stroke-opacity:1;stroke-miterlimit:4;" d="M 280.499674 430.499821 L 264.499618 422.500309 L 248.499561 425.000415 " transform="matrix(3.779528,0,0,3.779528,0,0)"/>
<path style="fill:none;stroke-width:2;stroke-linecap:butt;stroke-linejoin:miter;stroke:rgb(0%,0%,0%);stroke-opacity:1;stroke-miterlimit:4;" d="M 250.000244 421.499854 L 247.500138 437.49991 L 255.49965 452.99974 L 275.500496 452.99974 " transform="matrix(3.779528,0,0,3.779528,0,0)"/>
<path style="fill:none;stroke-width:2;stroke-linecap:butt;stroke-linejoin:miter;stroke:rgb(0%,0%,0%);stroke-opacity:1;stroke-miterlimit:4;" d="M 275.999691 456.000073 L 254 440.000016 L 254 423.999959 " transform="matrix(3.779528,0,0,3.779528,0,0)"/>
<path style="fill:none;stroke-width:2;stroke-linecap:butt;stroke-linejoin:miter;stroke:rgb(0%,0%,0%);stroke-opacity:1;stroke-miterlimit:4;" d="M 263.500195 413.999536 L 291.49952 429.999593 L 285.499886 445.99965 L 273.499585 445.99965 L 271.499707 451.50009 L 282.000358 436.999683 " transform="matrix(3.779528,0,0,3.779528,0,0)"/>
<path style="fill:none;stroke-width:2;stroke-linecap:butt;stroke-linejoin:miter;stroke:rgb(0%,0%,0%);stroke-opacity:1;stroke-miterlimit:4;" d="M 296.999959 456.999495 L 296.999959 441.000472 L 290.500098 424.500187 L 261.999512 409.000358 " transform="matrix(3.779528,0,0,3.779528,0,0)"/>
<path style="fill:none;stroke-width:2;stroke-linecap:butt;stroke-linejoin:miter;stroke:rgb(0%,0%,0%);stroke-opacity:1;stroke-miterlimit:4;" d="M 166.000203 357.000431 L 153.999902 357.000431 L 159.999536 341.000374 L 177.500277 334.500513 L 171.499609 320.500334 L 173.999715 305.000505 L 164.000326 298.999837 " transform="matrix(3.779528,0,0,3.779528,0,0)"/>
<path style="fill:none;stroke-width:2;stroke-linecap:butt;stroke-linejoin:miter;stroke:rgb(0%,0%,0%);stroke-opacity:1;stroke-miterlimit:4;" d="M 169.499731 304.000049 L 185.499788 311.999561 " transform="matrix(3.779528,0,0,3.779528,0,0)"/>
<path style="fill:none;stroke-width:2;stroke-linecap:butt;stroke-linejoin:miter;stroke:rgb(0%,0%,0%);stroke-opacity:1;stroke-miterlimit:4;" d="M 178.499699 321.499756 L 162.499642 309.500488 " transform="matrix(3.779528,0,0,3.779528,0,0)"/>
<path style="fill:none;stroke-width:2;stroke-linecap:butt;stroke-linejoin:miter;stroke:rgb(0%,0%,0%);stroke-opacity:1;stroke-miterlimit:4;" d="M 172.500065 309.999683 L 184.500366 325.99974 L 186.500244 351.499992 L 182.00026 366.999821 " transform="matrix(3.779528,0,0,3.779528,0,0)"/>
<path style="fill:none;stroke-width:2;stroke-linecap:butt;stroke-linejoin:miter;stroke:rgb(0%,0%,0%);stroke-opacity:1;stroke-miterlimit:4;" d="M 208.499935 302.500399 L 200.999618 304.500277 L 200.999618 286.500342 L 202.999495 270.500285 L 178.999927 254 L 175.000171 237.999943 L 177.000049 221.999886 L 180.499577 205.999829 L 182.999683 189.999772 L 184.999561 173.999715 L 187.000472 157.999658 L 182.999683 137.999845 L 180.999805 121.999788 L 180.999805 105.999731 L 194.999984 89.999674 L 212.999919 82.000163 L 196.999862 87.999797 L 180.999805 103.999854 " transform="matrix(3.779528,0,0,3.779528,0,0)"/>
<path style="fill:none;stroke-width:2;stroke-linecap:butt;stroke-linejoin:miter;stroke:rgb(0%,0%,0%);stroke-opacity:1;stroke-miterlimit:4;" d="M 187.499666 100.500326 L 185.499788 116.500382 L 185.499788 132.500439 " transform="matrix(3.779528,0,0,3.779528,0,0)"/>
<path style="fill:none;stroke-width:2;stroke-linecap:butt;stroke-linejoin:miter;stroke:rgb(0%,0%,0%);stroke-opacity:1;stroke-miterlimit:4;" d="M 198.99974 123.500472 L 209.000163 107.500415 L 202.500301 105.499504 L 204.500179 119.000488 L 191.99965 135.49974 L 193.999528 132.000212 L 190.5 116.000155 L 198.99974 99.49987 L 207.000285 87.499569 L 205.499601 89.50048 L 189.00035 99.49987 " transform="matrix(3.779528,0,0,3.779528,0,0)"/>
<path style="fill:none;stroke-width:2;stroke-linecap:butt;stroke-linejoin:miter;stroke:rgb(0%,0%,0%);stroke-opacity:1;stroke-miterlimit:4;" d="M 191.500456 105.000309 L 207.000285 95.500114 L 218.999552 96.000342 L 218.500358 112.000399 L 212.000496 128.000456 L 195.500212 134.500317 L 211.500269 118.50026 " transform="matrix(3.779528,0,0,3.779528,0,0)"/>
<path style="fill:none;stroke-width:2;stroke-linecap:butt;stroke-linejoin:miter;stroke:rgb(0%,0%,0%);stroke-opacity:1;stroke-miterlimit:4;" d="M 212.000496 130.000334 L 195.500212 141.999601 L 173.499487 152.000024 L 157.000236 164.000326 L 140.499951 176.499821 L 124.499894 186.500244 L 107.999609 198.499512 L 91.999552 208.499935 L 75.500301 218.500358 L 60.000472 228.499748 L 48.000171 226.49987 L 32.000114 238.500171 L 16.000057 248.499561 L 3.999756 238.500171 L 5.999634 222.500114 L 5.999634 205.999829 L 4.499984 189.999772 L 4.499984 157.999658 L 14.000179 141.999601 L 33.999992 125.999544 L 56.49991 110.499715 L 80.999707 94.499658 L 103.000431 78.000407 L 98.999642 87.999797 L 82.500391 100.000098 L 66.500334 111.500171 L 50.000049 123.999666 L 33.999992 134.00009 " transform="matrix(3.779528,0,0,3.779528,0,0)"/>
<path style="fill:none;stroke-width:2;stroke-linecap:butt;stroke-linejoin:miter;stroke:rgb(0%,0%,0%);stroke-opacity:1;stroke-miterlimit:4;" d="M 5.500439 150.999569 L 21.500496 134.500317 L 37.49952 125.000122 L 53.499577 112.999821 L 69.999862 103.000431 L 85.999919 91.00013 L 101.999976 78.499601 L 118.50026 69.999862 L 118.50026 85.499691 L 116.500382 101.499748 L 116.500382 117.499805 L 116.999577 133.499862 L 116.999577 149.499919 L 114.999699 165.499976 L 107.000187 181.500033 L 89.000252 197.50009 L 66.999528 213.500146 L 42.499731 229.500203 L 18.500163 245.50026 L 10.999845 243.500382 L 42.999959 223.499536 L 58.499788 211.500269 L 73.999618 198.99974 L 89.999674 187.000472 L 105.999731 171.499609 " transform="matrix(3.779528,0,0,3.779528,0,0)"/>
<path style="fill:none;stroke-width:2;stroke-linecap:butt;stroke-linejoin:miter;stroke:rgb(0%,0%,0%);stroke-opacity:1;stroke-miterlimit:4;" d="M 103.499626 184.000138 L 87.499569 198.000317 L 71.499512 209.500391 L 55.999683 221.499658 " transform="matrix(3.779528,0,0,3.779528,0,0)"/>
<path style="fill:none;stroke-width:2;stroke-linecap:butt;stroke-linejoin:miter;stroke:rgb(0%,0%,0%);stroke-opacity:1;stroke-miterlimit:4;" d="M 46.000293 231.500081 L 46.000293 295.000081 L 48.000171 311.000138 L 48.000171 327.000195 L 50.000049 336.999585 L 65.499878 337.499813 L 81.499935 349.500114 L 96.999764 359.499504 L 113.500049 368.000277 L 130.000334 377.500472 L 146.000391 386.999634 L 162.499642 397.000057 L 178.499699 402.999691 L 194.499756 397.000057 L 211.000041 387.499862 L 227.000098 375.499561 L 242.499927 364.999943 L 258.499984 375.000366 L 274.500041 379.50035 L 290.500098 373.000488 L 305.999927 362.499837 L 321.999984 352.999642 L 338.000041 343.000252 L 353.49987 343.000252 L 368.999699 345.00013 L 384.499528 350.999764 L 400.499585 361.500415 L 416.000448 369.499927 L 432.499699 377.500472 L 448.999984 385.499984 L 459.499601 375.499561 L 463.000163 386.000212 L 479.500448 375.999788 " transform="matrix(3.779528,0,0,3.779528,0,0)"/>
<path style="fill:none;stroke-width:2;stroke-linecap:butt;stroke-linejoin:miter;stroke:rgb(0%,0%,0%);stroke-opacity:1;stroke-miterlimit:4;" d="M 457.999951 380.499772 L 449.500212 366.499593 L 421.499854 350.499536 L 432.000505 325.99974 L 415.50022 320.000106 L 399.500163 314.499666 L 383.500106 314.499666 L 366.999821 321.999984 L 350.999764 307.999805 L 334.999707 300.000293 L 319.499878 293.999626 L 303.499821 286.000114 L 287.999992 277.999569 L 271.999935 270.000057 L 255.999878 261.999512 L 239.499593 254 L 223.499536 243.999577 L 207.999707 236.000065 L 191.99965 237.999943 L 176.499821 250.000244 L 168.999504 248.499561 L 171.000415 232.499504 L 171.000415 216.50048 L 177.500277 200.500423 L 179.500155 184.000138 L 181.500033 168.000081 L 178.999927 152.000024 L 159.000114 169.999959 L 143.000057 186.000016 L 126.499772 200.000195 L 109.999487 209.500391 L 94.000464 218.999552 L 77.500179 228.999976 L 61.500122 241.000277 " transform="matrix(3.779528,0,0,3.779528,0,0)"/>
<path style="fill:none;stroke-width:2;stroke-linecap:butt;stroke-linejoin:miter;stroke:rgb(0%,0%,0%);stroke-opacity:1;stroke-miterlimit:4;" d="M 64.000228 248.499561 L 80.000285 240.500049 L 96.000342 225.999642 L 112.000399 216.000252 L 128.000456 203.499723 L 144.499707 191.000228 L 160.499764 175.500399 " transform="matrix(3.779528,0,0,3.779528,0,0)"/>
<path style="fill:none;stroke-width:2;stroke-linecap:butt;stroke-linejoin:miter;stroke:rgb(0%,0%,0%);stroke-opacity:1;stroke-miterlimit:4;" d="M 169.999959 165.499976 L 152.500252 181.500033 L 136.500195 197.50009 L 114.500505 214.000374 L 88.500024 230.000431 L 78.499601 246.000488 L 80.500513 255.999878 L 64.500456 261.999512 L 73.999618 267.499951 L 89.50048 259.500439 L 105.499504 243.000155 L 121.499561 232.999731 L 137.499618 221.999886 L 153.499674 210.499813 " transform="matrix(3.779528,0,0,3.779528,0,0)"/>
<path style="fill:none;stroke-width:2;stroke-linecap:butt;stroke-linejoin:miter;stroke:rgb(0%,0%,0%);stroke-opacity:1;stroke-miterlimit:4;" d="M 160.999992 206.500057 L 139.000301 222.500114 L 114.999699 238.500171 L 91.00013 246.000488 L 94.999886 255.999878 L 78.999829 271.499707 L 91.00013 273.999813 L 107.000187 264.000423 L 123.000244 254.500228 L 139.499495 242.499927 L 141.500407 236.500293 " transform="matrix(3.779528,0,0,3.779528,0,0)"/>
<path style="fill:none;stroke-width:2;stroke-linecap:butt;stroke-linejoin:miter;stroke:rgb(0%,0%,0%);stroke-opacity:1;stroke-miterlimit:4;" d="M 145.500163 231.500081 L 131.499984 245.50026 L 107.500415 261.500317 L 81.499935 277.999569 L 69.000439 294.499854 L 60.999894 288.50022 L 85.000496 295.000081 L 101.499748 284.999658 L 117.499805 277.000146 L 134.00009 266.499495 L 150.000146 256.500106 " transform="matrix(3.779528,0,0,3.779528,0,0)"/>
<path style="fill:none;stroke-width:2;stroke-linecap:butt;stroke-linejoin:miter;stroke:rgb(0%,0%,0%);stroke-opacity:1;stroke-miterlimit:4;" d="M 150.500374 250.500472 L 124.499894 266.499495 L 96.499536 282.000358 L 78.499601 298.000415 " transform="matrix(3.779528,0,0,3.779528,0,0)"/>
<path style="fill:none;stroke-width:2;stroke-linecap:butt;stroke-linejoin:miter;stroke:rgb(0%,0%,0%);stroke-opacity:1;stroke-miterlimit:4;" d="M 80.500513 323.499634 L 96.499536 315.500122 L 112.999821 305.499699 L 128.999878 301.499943 L 144.499707 309.00026 L 159.999536 319.499878 L 175.999593 331.500179 " transform="matrix(3.779528,0,0,3.779528,0,0)"/>
<path style="fill:none;stroke-width:2;stroke-linecap:butt;stroke-linejoin:miter;stroke:rgb(0%,0%,0%);stroke-opacity:1;stroke-miterlimit:4;" d="M 187.999894 295.500309 L 171.999837 285.499886 " transform="matrix(3.779528,0,0,3.779528,0,0)"/>
<path style="fill:none;stroke-width:2;stroke-linecap:butt;stroke-linejoin:miter;stroke:rgb(0%,0%,0%);stroke-opacity:1;stroke-miterlimit:4;" d="M 158.499886 293.500431 L 174.499943 295.999504 L 189.999772 302.000171 " transform="matrix(3.779528,0,0,3.779528,0,0)"/>
<path style="fill:none;stroke-width:2;stroke-linecap:butt;stroke-linejoin:miter;stroke:rgb(0%,0%,0%);stroke-opacity:1;stroke-miterlimit:4;" d="M 203.999951 282.499552 L 220.500236 291.000326 " transform="matrix(3.779528,0,0,3.779528,0,0)"/>
<path style="fill:none;stroke-width:2;stroke-linecap:butt;stroke-linejoin:miter;stroke:rgb(0%,0%,0%);stroke-opacity:1;stroke-miterlimit:4;" d="M 207.500513 282.000358 L 207.500513 298.000415 L 214.000374 298.000415 L 198.000317 314.000472 L 216.000252 316.499544 L 243.999577 306.500155 L 259.999634 296.499731 " transform="matrix(3.779528,0,0,3.779528,0,0)"/>
<path style="fill:none;stroke-width:2;stroke-linecap:butt;stroke-linejoin:miter;stroke:rgb(0%,0%,0%);stroke-opacity:1;stroke-miterlimit:4;" d="M 271.499707 293.000203 L 259.500439 295.000081 L 237.499715 302.000171 L 229.500203 310.49991 L 225.500448 326.499967 L 219.49978 343.000252 L 209.999585 358.500081 " transform="matrix(3.779528,0,0,3.779528,0,0)"/>
<path style="fill:none;stroke-width:2;stroke-linecap:butt;stroke-linejoin:miter;stroke:rgb(0%,0%,0%);stroke-opacity:1;stroke-miterlimit:4;" d="M 194.999984 317.5 L 178.499699 314.000472 L 162.499642 306.500155 L 146.999813 296.499731 " transform="matrix(3.779528,0,0,3.779528,0,0)"/>
<path style="fill:none;stroke-width:2;stroke-linecap:butt;stroke-linejoin:miter;stroke:rgb(0%,0%,0%);stroke-opacity:1;stroke-miterlimit:4;" d="M 146.000391 289.99987 L 162.000448 284.500464 L 175.999593 272.500163 L 180.000382 280.499674 " transform="matrix(3.779528,0,0,3.779528,0,0)"/>
<path style="fill:none;stroke-width:2;stroke-linecap:butt;stroke-linejoin:miter;stroke:rgb(0%,0%,0%);stroke-opacity:1;stroke-miterlimit:4;" d="M 168.999504 285.499886 L 150.999569 289.499642 " transform="matrix(3.779528,0,0,3.779528,0,0)"/>
<path style="fill:none;stroke-width:2;stroke-linecap:butt;stroke-linejoin:miter;stroke:rgb(0%,0%,0%);stroke-opacity:1;stroke-miterlimit:4;" d="M 121.499561 310.49991 L 105.000309 318.500456 L 89.000252 326.499967 L 125.000122 316.499544 " transform="matrix(3.779528,0,0,3.779528,0,0)"/>
<path style="fill:none;stroke-width:2;stroke-linecap:butt;stroke-linejoin:miter;stroke:rgb(0%,0%,0%);stroke-opacity:1;stroke-miterlimit:4;" d="M 91.999552 327.999618 L 107.999609 323.999862 L 124.499894 316.00035 L 144.499707 311.999561 L 162.499642 327.999618 L 136.500195 340.500146 L 142.499829 350.000342 L 146.499585 336.000163 L 162.000448 327.500423 L 184.000138 331.500179 " transform="matrix(3.779528,0,0,3.779528,0,0)"/>
<path style="fill:none;stroke-width:2;stroke-linecap:butt;stroke-linejoin:miter;stroke:rgb(0%,0%,0%);stroke-opacity:1;stroke-miterlimit:4;" d="M 114.500505 341.499569 L 98.500448 339.499691 L 82.500391 327.500423 " transform="matrix(3.779528,0,0,3.779528,0,0)"/>
<path style="fill:none;stroke-width:2;stroke-linecap:butt;stroke-linejoin:miter;stroke:rgb(0%,0%,0%);stroke-opacity:1;stroke-miterlimit:4;" d="M 73.999618 337.499813 L 98.00022 353.49987 L 123.999666 368.999699 L 150.000146 384.999756 " transform="matrix(3.779528,0,0,3.779528,0,0)"/>
<path style="fill:none;stroke-width:2;stroke-linecap:butt;stroke-linejoin:miter;stroke:rgb(0%,0%,0%);stroke-opacity:1;stroke-miterlimit:4;" d="M 121.999788 408.50013 L 105.999731 400.999813 " transform="matrix(3.779528,0,0,3.779528,0,0)"/>
<path style="fill:none;stroke-width:2;stroke-linecap:butt;stroke-linejoin:miter;stroke:rgb(0%,0%,0%);stroke-opacity:1;stroke-miterlimit:4;" d="M 105.499504 396.499829 L 127.500228 412.499886 L 113.500049 428.499943 " transform="matrix(3.779528,0,0,3.779528,0,0)"/>
<path style="fill:none;stroke-width:2;stroke-linecap:butt;stroke-linejoin:miter;stroke:rgb(0%,0%,0%);stroke-opacity:1;stroke-miterlimit:4;" d="M 115.499927 420.500431 L 99.49987 430.499821 L 83.499813 426.500065 L 67.499756 418.999748 " transform="matrix(3.779528,0,0,3.779528,0,0)"/>
<path style="fill:none;stroke-width:2;stroke-linecap:butt;stroke-linejoin:miter;stroke:rgb(0%,0%,0%);stroke-opacity:1;stroke-miterlimit:4;" d="M 33.999992 421.499854 L 50.000049 425.999837 L 66.000106 414.499764 L 82.000163 404.500374 L 97.499992 393.999723 L 113.500049 398.000513 " transform="matrix(3.779528,0,0,3.779528,0,0)"/>
<path style="fill:none;stroke-width:2;stroke-linecap:butt;stroke-linejoin:miter;stroke:rgb(0%,0%,0%);stroke-opacity:1;stroke-miterlimit:4;" d="M 119.99991 422.999504 L 103.499626 432.999927 L 87.000374 432.999927 L 71.499512 427.000293 L 55.999683 427.499487 L 44.000415 421.499854 L 26.00048 419.499976 L 5.500439 403.499919 L 25.500252 387.499862 L 53.499577 371.499805 L 49.499821 387.499862 " transform="matrix(3.779528,0,0,3.779528,0,0)"/>
<path style="fill:none;stroke-width:2;stroke-linecap:butt;stroke-linejoin:miter;stroke:rgb(0%,0%,0%);stroke-opacity:1;stroke-miterlimit:4;" d="M 66.000106 378.499894 L 44.000415 389.999967 L 48.000171 381.500228 L 64.000228 373.499683 " transform="matrix(3.779528,0,0,3.779528,0,0)"/>
<path style="fill:none;stroke-width:2;stroke-linecap:butt;stroke-linejoin:miter;stroke:rgb(0%,0%,0%);stroke-opacity:1;stroke-miterlimit:4;" d="M 71.000317 370.000155 L 96.999764 385.499984 L 85.000496 401.500041 L 66.999528 417.500098 L 80.999707 425.499609 " transform="matrix(3.779528,0,0,3.779528,0,0)"/>
<path style="fill:none;stroke-width:2;stroke-linecap:butt;stroke-linejoin:miter;stroke:rgb(0%,0%,0%);stroke-opacity:1;stroke-miterlimit:4;" d="M 112.499593 422.500309 L 114.500505 407.00048 L 88.500024 392.500073 L 73.000195 404.999569 L 57.500366 414.999992 L 41.500309 420.999626 L 25.500252 416.499642 L 9.500195 406.500252 " transform="matrix(3.779528,0,0,3.779528,0,0)"/>
<path style="fill:none;stroke-width:2;stroke-linecap:butt;stroke-linejoin:miter;stroke:rgb(0%,0%,0%);stroke-opacity:1;stroke-miterlimit:4;" d="M 5.999634 400.000391 L 21.999691 389.999967 L 37.999748 382.000456 L 54.500033 372.000033 L 70.50009 368.500505 L 86.500146 377.999666 L 102.500203 388.500317 L 71.000317 404.500374 L 50.500277 420.999626 " transform="matrix(3.779528,0,0,3.779528,0,0)"/>
<path style="fill:none;stroke-width:2;stroke-linecap:butt;stroke-linejoin:miter;stroke:rgb(0%,0%,0%);stroke-opacity:1;stroke-miterlimit:4;" d="M 54.500033 333.500057 L 70.50009 334.000285 L 85.999919 345.999552 L 101.499748 354.000098 L 117.499805 363.999487 L 132.999634 373.99991 L 148.999691 384.000334 L 164.999748 393.999723 L 180.999805 398.000513 L 212.999919 377.999666 L 225.00022 357.999854 L 229.500203 362.499837 L 223.499536 378.499894 L 198.000317 395.000179 " transform="matrix(3.779528,0,0,3.779528,0,0)"/>
<path style="fill:none;stroke-width:2;stroke-linecap:butt;stroke-linejoin:miter;stroke:rgb(0%,0%,0%);stroke-opacity:1;stroke-miterlimit:4;" d="M 272.500163 298.999837 L 256.500106 309.00026 L 252.999544 310.49991 L 275.000269 294.499854 " transform="matrix(3.779528,0,0,3.779528,0,0)"/>
<path style="fill:none;stroke-width:2;stroke-linecap:butt;stroke-linejoin:miter;stroke:rgb(0%,0%,0%);stroke-opacity:1;stroke-miterlimit:4;" d="M 271.499707 294.499854 L 257.000334 289.99987 L 241.000277 300.000293 L 219.49978 307.999805 L 203.499723 315.500122 L 227.99952 297.500187 L 223.999764 280.999902 L 212.000496 264.999845 " transform="matrix(3.779528,0,0,3.779528,0,0)"/>
<path style="fill:none;stroke-width:2;stroke-linecap:butt;stroke-linejoin:miter;stroke:rgb(0%,0%,0%);stroke-opacity:1;stroke-miterlimit:4;" d="M 205.499601 241.999699 L 232.999731 257.999756 L 262.999967 273.499585 L 330.999951 305.499699 L 358.500081 321.499756 L 334.500513 337.499813 L 282.499552 369.499927 " transform="matrix(3.779528,0,0,3.779528,0,0)"/>
<path style="fill:none;stroke-width:2;stroke-linecap:butt;stroke-linejoin:miter;stroke:rgb(0%,0%,0%);stroke-opacity:1;stroke-miterlimit:4;" d="M 402.000269 320.999528 L 436.00026 341.000374 L 468.499569 357.000431 L 498.499805 372.50026 L 486.999731 388.500317 L 461.000285 404.000146 " transform="matrix(3.779528,0,0,3.779528,0,0)"/>
<path style="fill:none;stroke-width:2;stroke-linecap:butt;stroke-linejoin:miter;stroke:rgb(0%,0%,0%);stroke-opacity:1;stroke-miterlimit:4;" d="M 475.000464 381 L 463.000163 379.000122 L 441.000472 373.000488 L 430.499821 369.499927 L 414.499764 352.999642 L 438.500366 332.999829 L 406.500252 316.999772 " transform="matrix(3.779528,0,0,3.779528,0,0)"/>
<path style="fill:none;stroke-width:2;stroke-linecap:butt;stroke-linejoin:miter;stroke:rgb(0%,0%,0%);stroke-opacity:1;stroke-miterlimit:4;" d="M 475.499658 261.999512 L 465.500269 246.000488 " transform="matrix(3.779528,0,0,3.779528,0,0)"/>
<path style="fill:none;stroke-width:2;stroke-linecap:butt;stroke-linejoin:miter;stroke:rgb(0%,0%,0%);stroke-opacity:1;stroke-miterlimit:4;" d="M 465.500269 230.999854 L 461.500513 246.99991 L 457.499723 262.999967 L 465.500269 279.500252 " transform="matrix(3.779528,0,0,3.779528,0,0)"/>
<path style="fill:none;stroke-width:2;stroke-linecap:butt;stroke-linejoin:miter;stroke:rgb(0%,0%,0%);stroke-opacity:1;stroke-miterlimit:4;" d="M 504.999666 280.999902 L 504.999666 248.999788 L 495.000277 233.499959 L 463.000163 218.00013 " transform="matrix(3.779528,0,0,3.779528,0,0)"/>
<path style="fill:none;stroke-width:2;stroke-linecap:butt;stroke-linejoin:miter;stroke:rgb(0%,0%,0%);stroke-opacity:1;stroke-miterlimit:4;" d="M 461.000285 212.499691 L 495.000277 227.99952 L 511.000334 243.999577 L 509.000456 259.500439 L 510.500106 275.500496 L 506.000122 291.49952 L 493.999821 297.500187 " transform="matrix(3.779528,0,0,3.779528,0,0)"/>
<path style="fill:none;stroke-width:2;stroke-linecap:butt;stroke-linejoin:miter;stroke:rgb(0%,0%,0%);stroke-opacity:1;stroke-miterlimit:4;" d="M 457.999951 295.999504 L 442.500122 280.00048 L 442.500122 263.500195 L 443.00035 247.500138 L 445.000228 232.000309 L 450.999862 216.000252 " transform="matrix(3.779528,0,0,3.779528,0,0)"/>
<path style="fill:none;stroke-width:2;stroke-linecap:butt;stroke-linejoin:miter;stroke:rgb(0%,0%,0%);stroke-opacity:1;stroke-miterlimit:4;" d="M 452.99974 209.500391 L 441.000472 225.500448 L 438.500366 241.999699 L 436.500488 257.999756 L 452.499512 289.99987 L 468.499569 300.000293 L 484.000431 304.000049 L 500.000488 300.499487 " transform="matrix(3.779528,0,0,3.779528,0,0)"/>
<path style="fill:none;stroke-width:2;stroke-linecap:butt;stroke-linejoin:miter;stroke:rgb(0%,0%,0%);stroke-opacity:1;stroke-miterlimit:4;" d="M 429.500399 152.500252 L 413.500342 146.499585 L 397.500285 138.500073 " transform="matrix(3.779528,0,0,3.779528,0,0)"/>
<path style="fill:none;stroke-width:2;stroke-linecap:butt;stroke-linejoin:miter;stroke:rgb(0%,0%,0%);stroke-opacity:1;stroke-miterlimit:4;" d="M 391.999845 137.000423 L 427.999715 153.00048 " transform="matrix(3.779528,0,0,3.779528,0,0)"/>
<path style="fill:none;stroke-width:2;stroke-linecap:butt;stroke-linejoin:miter;stroke:rgb(0%,0%,0%);stroke-opacity:1;stroke-miterlimit:4;" d="M 459.999829 155.99978 L 443.999772 135.49974 L 427.499487 131.499984 L 411.500464 125.000122 L 395.500407 119.000488 " transform="matrix(3.779528,0,0,3.779528,0,0)"/>
<path style="fill:none;stroke-width:2;stroke-linecap:butt;stroke-linejoin:miter;stroke:rgb(0%,0%,0%);stroke-opacity:1;stroke-miterlimit:4;" d="M 391.499618 122.500016 L 407.00048 134.500317 L 417.500098 137.999845 L 435.500033 127.500228 " transform="matrix(3.779528,0,0,3.779528,0,0)"/>
<path style="fill:none;stroke-width:2;stroke-linecap:butt;stroke-linejoin:miter;stroke:rgb(0%,0%,0%);stroke-opacity:1;stroke-miterlimit:4;" d="M 439.499788 122.500016 L 423.999959 114.500505 L 407.999902 107.000187 L 391.999845 98.999642 " transform="matrix(3.779528,0,0,3.779528,0,0)"/>
<path style="fill:none;stroke-width:2;stroke-linecap:butt;stroke-linejoin:miter;stroke:rgb(0%,0%,0%);stroke-opacity:1;stroke-miterlimit:4;" d="M 391.999845 98.00022 L 395.500407 114.000277 L 402.000269 124.499894 L 423.999959 134.500317 L 430.499821 139.999723 L 436.500488 147.500041 L 459.000407 141.999601 L 466.999919 139.999723 " transform="matrix(3.779528,0,0,3.779528,0,0)"/>
<path style="fill:none;stroke-width:2;stroke-linecap:butt;stroke-linejoin:miter;stroke:rgb(0%,0%,0%);stroke-opacity:1;stroke-miterlimit:4;" d="M 470.000252 177.500277 L 454.500423 180.000382 L 438.500366 171.999837 L 422.500309 162.000448 L 406.500252 153.999902 L 389.999967 146.000391 " transform="matrix(3.779528,0,0,3.779528,0,0)"/>
<path style="fill:none;stroke-width:2;stroke-linecap:butt;stroke-linejoin:miter;stroke:rgb(0%,0%,0%);stroke-opacity:1;stroke-miterlimit:4;" d="M 384.000334 139.999723 L 400.000391 146.000391 L 416.000448 153.999902 L 432.000505 162.000448 L 447.999528 169.499731 L 463.999585 175.500399 " transform="matrix(3.779528,0,0,3.779528,0,0)"/>
<path style="fill:none;stroke-width:2;stroke-linecap:butt;stroke-linejoin:miter;stroke:rgb(0%,0%,0%);stroke-opacity:1;stroke-miterlimit:4;" d="M 443.499544 169.999959 L 413.500342 153.999902 L 386.999634 137.999845 L 386.999634 134.00009 " transform="matrix(3.779528,0,0,3.779528,0,0)"/>
<path style="fill:none;stroke-width:2;stroke-linecap:butt;stroke-linejoin:miter;stroke:rgb(0%,0%,0%);stroke-opacity:1;stroke-miterlimit:4;" d="M 386.500439 119.99991 L 391.000423 105.999731 L 416.499642 100.000098 L 450.999862 116.000155 L 463.000163 132.000212 L 473.49978 148.000269 L 473.49978 164.000326 L 467.500146 180.000382 " transform="matrix(3.779528,0,0,3.779528,0,0)"/>
<path style="fill:none;stroke-width:2;stroke-linecap:butt;stroke-linejoin:miter;stroke:rgb(0%,0%,0%);stroke-opacity:1;stroke-miterlimit:4;" d="M 448.499756 120.500138 L 432.499699 112.999821 L 416.499642 105.000309 L 400.999813 96.999764 L 384.999756 95.500114 " transform="matrix(3.779528,0,0,3.779528,0,0)"/>
<path style="fill:none;stroke-width:2;stroke-linecap:butt;stroke-linejoin:miter;stroke:rgb(0%,0%,0%);stroke-opacity:1;stroke-miterlimit:4;" d="M 383.500106 89.000252 L 398.999935 87.000374 L 414.999992 96.999764 L 431.000049 105.499504 L 446.499878 113.500049 L 463.000163 129.500106 " transform="matrix(3.779528,0,0,3.779528,0,0)"/>
<path style="fill:none;stroke-width:2;stroke-linecap:butt;stroke-linejoin:miter;stroke:rgb(0%,0%,0%);stroke-opacity:1;stroke-miterlimit:4;" d="M 454.999618 157.000236 L 450.999862 141.500407 L 447.000106 137.499618 L 431.000049 121.999788 L 409.000358 116.500382 L 395.000179 100.500326 " transform="matrix(3.779528,0,0,3.779528,0,0)"/>
<path style="fill:none;stroke-width:2;stroke-linecap:butt;stroke-linejoin:miter;stroke:rgb(0%,0%,0%);stroke-opacity:1;stroke-miterlimit:4;" d="M 393.000301 93.000008 L 422.500309 109.000065 L 452.99974 125.000122 L 464.499813 141.000179 L 468.499569 156.500008 L 466.000496 172.500065 " transform="matrix(3.779528,0,0,3.779528,0,0)"/>
<path style="fill:none;stroke-width:2;stroke-linecap:butt;stroke-linejoin:miter;stroke:rgb(0%,0%,0%);stroke-opacity:1;stroke-miterlimit:4;" d="M 452.99974 160.499764 L 448.999984 152.500252 L 438.500366 150.500374 L 416.499642 134.500317 L 398.499707 132.500439 L 386.500439 120.500138 L 386.500439 104.500081 L 394.499951 89.000252 " transform="matrix(3.779528,0,0,3.779528,0,0)"/>
<path style="fill:none;stroke-width:2;stroke-linecap:butt;stroke-linejoin:miter;stroke:rgb(0%,0%,0%);stroke-opacity:1;stroke-miterlimit:4;" d="M 385.499984 87.499569 L 381.500228 103.499626 L 381.500228 134.999512 L 395.500407 150.999569 L 427.499487 166.500431 L 456.000073 182.500488 " transform="matrix(3.779528,0,0,3.779528,0,0)"/>
<path style="fill:none;stroke-width:2;stroke-linecap:butt;stroke-linejoin:miter;stroke:rgb(0%,0%,0%);stroke-opacity:1;stroke-miterlimit:4;" d="M 310.49991 139.499495 L 293.999626 135.49974 " transform="matrix(3.779528,0,0,3.779528,0,0)"/>
<path style="fill:none;stroke-width:2;stroke-linecap:butt;stroke-linejoin:miter;stroke:rgb(0%,0%,0%);stroke-opacity:1;stroke-miterlimit:4;" d="M 288.50022 135.49974 L 304.500277 145.500163 " transform="matrix(3.779528,0,0,3.779528,0,0)"/>
<path style="fill:none;stroke-width:2;stroke-linecap:butt;stroke-linejoin:miter;stroke:rgb(0%,0%,0%);stroke-opacity:1;stroke-miterlimit:4;" d="M 318.000228 137.499618 L 302.000171 119.99991 L 270.000057 119.99991 L 254.500228 124.499894 " transform="matrix(3.779528,0,0,3.779528,0,0)"/>
<path style="fill:none;stroke-width:2;stroke-linecap:butt;stroke-linejoin:miter;stroke:rgb(0%,0%,0%);stroke-opacity:1;stroke-miterlimit:4;" d="M 256.500106 122.500016 L 246.499683 138.500073 L 238.500171 142.499829 L 254.500228 118.50026 L 270.500285 110.499715 L 286.500342 110.499715 L 302.999593 114.500505 L 318.500456 125.999544 " transform="matrix(3.779528,0,0,3.779528,0,0)"/>
<path style="fill:none;stroke-width:2;stroke-linecap:butt;stroke-linejoin:miter;stroke:rgb(0%,0%,0%);stroke-opacity:1;stroke-miterlimit:4;" d="M 293.999626 155.000358 L 287.499764 138.500073 L 279.500252 134.500317 L 262.999967 135.999967 L 246.99991 141.999601 " transform="matrix(3.779528,0,0,3.779528,0,0)"/>
<path style="fill:none;stroke-width:2;stroke-linecap:butt;stroke-linejoin:miter;stroke:rgb(0%,0%,0%);stroke-opacity:1;stroke-miterlimit:4;" d="M 244.499805 140.499951 L 260.499862 126.499772 L 276.499919 124.499894 L 291.999748 126.499772 L 307.999805 130.499528 L 302.500399 146.499585 " transform="matrix(3.779528,0,0,3.779528,0,0)"/>
<path style="fill:none;stroke-width:2;stroke-linecap:butt;stroke-linejoin:miter;stroke:rgb(0%,0%,0%);stroke-opacity:1;stroke-miterlimit:4;" d="M 298.000415 167.499854 L 282.000358 171.999837 L 266.000301 170.500187 L 250.000244 164.49952 L 240.500049 152.000024 L 252.50035 144.000513 L 250.500472 140.499951 L 262.999967 124.499894 " transform="matrix(3.779528,0,0,3.779528,0,0)"/>
<path style="fill:none;stroke-width:2;stroke-linecap:butt;stroke-linejoin:miter;stroke:rgb(0%,0%,0%);stroke-opacity:1;stroke-miterlimit:4;" d="M 270.000057 109.999487 L 246.000488 125.999544 L 237.999943 141.999601 L 241.999699 158.499886 L 254 158.499886 L 261.999512 164.49952 L 277.500374 166.500431 L 293.000203 164.49952 L 313.000016 150.500374 " transform="matrix(3.779528,0,0,3.779528,0,0)"/>
<path style="fill:none;stroke-width:2;stroke-linecap:butt;stroke-linejoin:miter;stroke:rgb(0%,0%,0%);stroke-opacity:1;stroke-miterlimit:4;" d="M 275.000269 202.500301 L 248.999788 218.500358 L 248.499561 234.500415 L 274.500041 250.500472 L 304.500277 266.499495 L 336.500391 282.499552 L 366.499593 298.000415 " transform="matrix(3.779528,0,0,3.779528,0,0)"/>
<path style="fill:none;stroke-width:2;stroke-linecap:butt;stroke-linejoin:miter;stroke:rgb(0%,0%,0%);stroke-opacity:1;stroke-miterlimit:4;" d="M 296.499731 370.000155 L 322.500212 354.000098 L 352.500448 338.500269 L 366.499593 318.500456 L 336.000163 302.500399 L 301.499943 286.500342 L 267.499951 270.500285 L 237.999943 254 L 209.999585 238.500171 " transform="matrix(3.779528,0,0,3.779528,0,0)"/>
<path style="fill:none;stroke-width:2;stroke-linecap:butt;stroke-linejoin:miter;stroke:rgb(0%,0%,0%);stroke-opacity:1;stroke-miterlimit:4;" d="M 197.50009 237.999943 L 191.500456 258.499984 L 197.50009 262.999967 L 211.500269 265.500073 " transform="matrix(3.779528,0,0,3.779528,0,0)"/>
<path style="fill:none;stroke-width:2;stroke-linecap:butt;stroke-linejoin:miter;stroke:rgb(0%,0%,0%);stroke-opacity:1;stroke-miterlimit:4;" d="M 193.500334 236.000065 L 177.500277 254 L 193.500334 244.499805 L 209.500391 242.499927 L 225.999642 252.999544 L 241.999699 261.00009 L 257.999756 271.499707 L 273.999813 279.500252 L 289.99987 286.999536 L 305.999927 293.000203 L 321.999984 300.499487 L 338.000041 309.00026 L 353.49987 316.999772 " transform="matrix(3.779528,0,0,3.779528,0,0)"/>
<path style="fill:none;stroke-width:2;stroke-linecap:butt;stroke-linejoin:miter;stroke:rgb(0%,0%,0%);stroke-opacity:1;stroke-miterlimit:4;" d="M 347.000008 282.000358 L 336.999585 266.000301 L 339.000496 257.999756 L 311.000138 241.999699 L 294.499854 225.999642 L 280.999902 209.500391 " transform="matrix(3.779528,0,0,3.779528,0,0)"/>
<path style="fill:none;stroke-width:2;stroke-linecap:butt;stroke-linejoin:miter;stroke:rgb(0%,0%,0%);stroke-opacity:1;stroke-miterlimit:4;" d="M 275.000269 207.999707 L 250.999666 223.499536 L 268.999601 239.499593 L 296.999959 255.999878 L 332.999829 270.500285 L 341.000374 278.499797 L 357.000431 286.500342 L 372.50026 292.499976 " transform="matrix(3.779528,0,0,3.779528,0,0)"/>
<path style="fill:none;stroke-width:2;stroke-linecap:butt;stroke-linejoin:miter;stroke:rgb(0%,0%,0%);stroke-opacity:1;stroke-miterlimit:4;" d="M 165.499976 214.000374 L 157.500464 230.000431 L 151.499797 239.999821 L 127 255.999878 L 102.500203 271.499707 L 82.000163 291.999748 L 97.499992 282.000358 L 113.500049 272.500163 L 128.999878 262.999967 L 144.499707 255.000456 " transform="matrix(3.779528,0,0,3.779528,0,0)"/>
<path style="fill:none;stroke-width:2;stroke-linecap:butt;stroke-linejoin:miter;stroke:rgb(0%,0%,0%);stroke-opacity:1;stroke-miterlimit:4;" d="M 153.999902 251.499894 L 130.000334 267.499951 L 101.999976 283.500008 " transform="matrix(3.779528,0,0,3.779528,0,0)"/>
<path style="fill:none;stroke-width:2;stroke-linecap:butt;stroke-linejoin:miter;stroke:rgb(0%,0%,0%);stroke-opacity:1;stroke-miterlimit:4;" d="M 91.500358 263.500195 L 75.500301 273.499585 L 59.500244 271.499707 " transform="matrix(3.779528,0,0,3.779528,0,0)"/>
<path style="fill:none;stroke-width:2;stroke-linecap:butt;stroke-linejoin:miter;stroke:rgb(0%,0%,0%);stroke-opacity:1;stroke-miterlimit:4;" d="M 64.500456 251.499894 L 80.500513 245.50026 L 92.49978 233.499959 " transform="matrix(3.779528,0,0,3.779528,0,0)"/>
<path style="fill:none;stroke-width:2;stroke-linecap:butt;stroke-linejoin:miter;stroke:rgb(0%,0%,0%);stroke-opacity:1;stroke-miterlimit:4;" d="M 69.999862 194.499756 L 48.000171 211.000041 L 27.50013 225.00022 L 43.500187 212.499691 L 59.500244 202.500301 " transform="matrix(3.779528,0,0,3.779528,0,0)"/>
<path style="fill:none;stroke-width:2;stroke-linecap:butt;stroke-linejoin:miter;stroke:rgb(0%,0%,0%);stroke-opacity:1;stroke-miterlimit:4;" d="M 27.50013 157.500464 L 17.999935 167.499854 L 39.999626 159.500342 L 66.500334 143.000057 L 91.00013 127 L 91.00013 127.500228 L 75.000073 139.999723 L 59.000016 150.000146 L 42.999959 159.500342 L 26.499674 175.500399 L 22.499919 193.500334 L 23.999569 191.000228 L 10.000423 187.499666 L 10.000423 155.499552 L 7.999512 139.999723 L 28.499552 123.999666 L 50.500277 107.999609 L 74.499845 91.999552 L 94.499658 75.999495 L 114.000277 66.000106 L 97.499992 73.999618 L 65.499878 98.00022 L 49.499821 107.999609 L 33.499764 119.499683 L 17.000513 132.000212 L 1.000456 146.000391 " transform="matrix(3.779528,0,0,3.779528,0,0)"/>
<path style="fill:none;stroke-width:2;stroke-linecap:butt;stroke-linejoin:miter;stroke:rgb(0%,0%,0%);stroke-opacity:1;stroke-miterlimit:4;" d="M 87.499569 147.500041 L 61.500122 163.500098 L 37.999748 179.500155 L 44.000415 175.999593 L 59.500244 166.000203 L 75.500301 155.99978 L 91.999552 146.000391 " transform="matrix(3.779528,0,0,3.779528,0,0)"/>
<path style="fill:none;stroke-width:2;stroke-linecap:butt;stroke-linejoin:miter;stroke:rgb(0%,0%,0%);stroke-opacity:1;stroke-miterlimit:4;" d="M 93.500236 138.500073 L 69.499634 154.50013 L 43.500187 170.500187 L 29.500008 180.499577 L 45.500065 169.999959 L 62.00035 159.999536 L 77.500179 150.000146 L 93.500236 137.999845 " transform="matrix(3.779528,0,0,3.779528,0,0)"/>
<path style="fill:none;stroke-width:2;stroke-linecap:butt;stroke-linejoin:miter;stroke:rgb(0%,0%,0%);stroke-opacity:1;stroke-miterlimit:4;" d="M 100.500326 126.499772 L 78.499601 142.499829 L 52.500155 158.499886 " transform="matrix(3.779528,0,0,3.779528,0,0)"/>
<path style="fill:none;stroke-width:2;stroke-linecap:butt;stroke-linejoin:miter;stroke:rgb(0%,0%,0%);stroke-opacity:1;stroke-miterlimit:4;" d="M 82.500391 117.499805 L 66.500334 128.000456 L 50.500277 137.999845 L 35.000448 148.500496 L 46.999715 140.499951 L 73.500423 124.499894 L 95.500114 108.499837 " transform="matrix(3.779528,0,0,3.779528,0,0)"/>
<path style="fill:none;stroke-width:2;stroke-linecap:butt;stroke-linejoin:miter;stroke:rgb(0%,0%,0%);stroke-opacity:1;stroke-miterlimit:4;" d="M 90.499902 106.499959 L 64.99965 118.50026 L 80.999707 108.499837 L 96.999764 94.000464 " transform="matrix(3.779528,0,0,3.779528,0,0)"/>
<path style="fill:none;stroke-width:2;stroke-linecap:butt;stroke-linejoin:miter;stroke:rgb(0%,0%,0%);stroke-opacity:1;stroke-miterlimit:4;" d="M 101.999976 83.499813 L 82.000163 99.49987 L 60.000472 116.000155 L 35.99987 132.000212 L 37.999748 139.499495 L 54.500033 129.500106 L 69.999862 119.499683 L 85.999919 109.500293 " transform="matrix(3.779528,0,0,3.779528,0,0)"/>
<path style="fill:none;stroke-width:2;stroke-linecap:butt;stroke-linejoin:miter;stroke:rgb(0%,0%,0%);stroke-opacity:1;stroke-miterlimit:4;" d="M 84.500269 137.999845 L 69.000439 149.499919 L 53.000382 157.500464 L 36.500098 169.499731 L 18.500163 186.000016 L 16.000057 182.00026 L 26.00048 164.000326 L 16.000057 157.999658 L 28.000358 148.000269 L 49.499821 131.499984 L 65.499878 117.499805 L 87.499569 101.999976 L 105.999731 86.500146 " transform="matrix(3.779528,0,0,3.779528,0,0)"/>
<path style="fill:none;stroke-width:2;stroke-linecap:butt;stroke-linejoin:miter;stroke:rgb(0%,0%,0%);stroke-opacity:1;stroke-miterlimit:4;" d="M 114.000277 73.000195 L 112.000399 89.50048 L 112.000399 105.499504 L 109.999487 121.499561 L 109.999487 153.499674 L 107.999609 169.499731 L 92.49978 185.499788 L 72.499967 201.499845 L 51.000505 217.499902 L 26.999902 234.000187 " transform="matrix(3.779528,0,0,3.779528,0,0)"/>
<path style="fill:none;stroke-width:2;stroke-linecap:butt;stroke-linejoin:miter;stroke:rgb(0%,0%,0%);stroke-opacity:1;stroke-miterlimit:4;" d="M 150.500374 219.49978 L 134.500317 230.999854 L 118.000033 241.500505 L 101.999976 254 L 119.99991 239.999821 L 144.000513 224.499992 L 164.000326 208.499935 " transform="matrix(3.779528,0,0,3.779528,0,0)"/>
<path style="fill:none;stroke-width:2;stroke-linecap:butt;stroke-linejoin:miter;stroke:rgb(0%,0%,0%);stroke-opacity:1;stroke-miterlimit:4;" d="M 152.500252 223.999764 L 159.999536 232.499504 L 144.000513 244.499805 L 128.000456 256.500106 L 112.000399 266.000301 L 96.000342 275.999691 L 79.500057 286.000114 L 65.499878 295.999504 L 61.500122 300.000293 L 61.500122 241.999699 L 83.499813 225.999642 L 109.500293 209.500391 L 131.499984 193.500334 L 149.499919 177.000049 L 167.499854 160.999992 " transform="matrix(3.779528,0,0,3.779528,0,0)"/>
<path style="fill:none;stroke-width:2;stroke-linecap:butt;stroke-linejoin:miter;stroke:rgb(0%,0%,0%);stroke-opacity:1;stroke-miterlimit:4;" d="M 158.499886 159.500342 L 136.500195 175.500399 L 113.500049 191.500456 L 91.999552 207.500513 L 66.000106 223.499536 L 50.000049 239.999821 L 50.000049 255.999878 L 50.500277 271.499707 L 52.500155 287.499764 L 51.999927 302.999593 L 51.999927 318.99965 L 53.999805 334.999707 L 85.999919 351.499992 L 111.500171 367.500049 L 137.499618 384.000334 L 162.99987 400.000391 " transform="matrix(3.779528,0,0,3.779528,0,0)"/>
<path style="fill:none;stroke-width:2;stroke-linecap:butt;stroke-linejoin:miter;stroke:rgb(0%,0%,0%);stroke-opacity:1;stroke-miterlimit:4;" d="M 184.500366 150.500374 L 168.500309 148.000269 L 152.500252 162.000448 L 137.000423 171.999837 L 121.000366 184.000138 L 104.500081 193.999528 L 86.500146 205.499601 L 105.999731 191.500456 L 125.50035 177.500277 L 148.999691 161.50022 L 168.999504 146.000391 " transform="matrix(3.779528,0,0,3.779528,0,0)"/>
<path style="fill:none;stroke-width:2;stroke-linecap:butt;stroke-linejoin:miter;stroke:rgb(0%,0%,0%);stroke-opacity:1;stroke-miterlimit:4;" d="M 200.999618 130.000334 L 214.999797 114.500505 L 214.999797 98.500448 " transform="matrix(3.779528,0,0,3.779528,0,0)"/>
<path style="fill:none;stroke-width:2;stroke-linecap:butt;stroke-linejoin:miter;stroke:rgb(0%,0%,0%);stroke-opacity:1;stroke-miterlimit:4;" d="M 289.000448 44.000415 L 317.5 60.000472 L 316.999772 67.499756 L 317.5 83.499813 " transform="matrix(3.779528,0,0,3.779528,0,0)"/>
<path style="fill:none;stroke-width:2;stroke-linecap:butt;stroke-linejoin:miter;stroke:rgb(0%,0%,0%);stroke-opacity:1;stroke-miterlimit:4;" d="M 325.499512 85.499691 L 325.499512 69.499634 L 318.99965 53.499577 L 289.000448 37.49952 " transform="matrix(3.779528,0,0,3.779528,0,0)"/>
</g>
</svg>
