<?xml version="1.0" encoding="UTF-8"?>
<svg xmlns="http://www.w3.org/2000/svg" xmlns:xlink="http://www.w3.org/1999/xlink" width="1935.11811" height="1935.11811" viewBox="0 0 1935.11811 1935.11811" version="1.1">
<g id="surface1">
<path style="fill:none;stroke-width:2;stroke-linecap:butt;stroke-linejoin:miter;stroke:rgb(0%,0%,0%);stroke-opacity:1;stroke-miterlimit:4;" d="M 57.500366 42.499731 L 45.500065 58.499788 L 43.500187 74.499845 L 45.500065 90.499902 L 47.499943 107.000187 L 49.499821 123.000244 L 49.499821 139.000301 L 51.499699 155.000358 L 53.000382 171.000415 L 55.00026 186.500244 L 56.49991 202.500301 L 59.000016 218.500358 L 62.999772 250.500472 L 65.499878 266.000301 L 69.499634 296.999959 L 71.499512 313.000016 L 73.500423 329.000073 L 75.500301 344.499902 L 85.999919 360.499959 " transform="matrix(3.779528,0,0,3.779528,0,0)"/>
<path style="fill:none;stroke-width:2;stroke-linecap:butt;stroke-linejoin:miter;stroke:rgb(0%,0%,0%);stroke-opacity:1;stroke-miterlimit:4;" d="M 84.000041 358.500081 L 100.000098 370.500382 L 116.000155 370.000155 L 132.000212 363.999487 L 148.000269 363.500293 L 166.500431 366.999821 L 182.500488 359.499504 L 198.499512 357.999854 L 214.499569 356.500203 L 230.999854 354.500326 L 246.99991 352.999642 L 262.999967 350.999764 L 279.000024 350.999764 L 294.499854 350.499536 L 309.999683 348.000464 " transform="matrix(3.779528,0,0,3.779528,0,0)"/>
<path style="fill:none;stroke-width:2;stroke-linecap:butt;stroke-linejoin:miter;stroke:rgb(0%,0%,0%);stroke-opacity:1;stroke-miterlimit:4;" d="M 330.499723 321.499756 L 346.49978 325.499512 L 362.499837 325.99974 L 378.499894 339.999919 L 394.499951 359.999731 " transform="matrix(3.779528,0,0,3.779528,0,0)"/>
<path style="fill:none;stroke-width:2;stroke-linecap:butt;stroke-linejoin:miter;stroke:rgb(0%,0%,0%);stroke-opacity:1;stroke-miterlimit:4;" d="M 399.500163 345.999552 L 383.500106 329.999495 L 367.500049 321.999984 L 351.499992 309.999683 " transform="matrix(3.779528,0,0,3.779528,0,0)"/>
<path style="fill:none;stroke-width:2;stroke-linecap:butt;stroke-linejoin:miter;stroke:rgb(0%,0%,0%);stroke-opacity:1;stroke-miterlimit:4;" d="M 350.000342 307.000382 L 366.499593 314.499666 L 382.999878 325.000317 L 398.999935 336.999585 " transform="matrix(3.779528,0,0,3.779528,0,0)"/>
<path style="fill:none;stroke-width:2;stroke-linecap:butt;stroke-linejoin:miter;stroke:rgb(0%,0%,0%);stroke-opacity:1;stroke-miterlimit:4;" d="M 416.499642 351.499992 L 396.499829 354.000098 L 382.000456 338.000041 L 375.499561 348.000464 L 353.49987 338.500269 L 353.49987 322.500212 L 347.500236 318.500456 L 349.500114 320.500334 " transform="matrix(3.779528,0,0,3.779528,0,0)"/>
<path style="fill:none;stroke-width:2;stroke-linecap:butt;stroke-linejoin:miter;stroke:rgb(0%,0%,0%);stroke-opacity:1;stroke-miterlimit:4;" d="M 359.000309 310.49991 L 386.500439 326.499967 L 406.500252 341.999797 L 414.499764 363.999487 L 409.99978 380.499772 L 407.999902 396.499829 " transform="matrix(3.779528,0,0,3.779528,0,0)"/>
<path style="fill:none;stroke-width:2;stroke-linecap:butt;stroke-linejoin:miter;stroke:rgb(0%,0%,0%);stroke-opacity:1;stroke-miterlimit:4;" d="M 418.000326 398.000513 L 402.000269 420.000203 " transform="matrix(3.779528,0,0,3.779528,0,0)"/>
<path style="fill:none;stroke-width:2;stroke-linecap:butt;stroke-linejoin:miter;stroke:rgb(0%,0%,0%);stroke-opacity:1;stroke-miterlimit:4;" d="M 370.999577 482.999976 L 386.999634 473.49978 L 402.999691 447.500334 L 419.499976 427.499487 L 436.00026 411.999658 L 452.499512 393.999723 L 468.499569 361.500415 L 484.499626 329.500301 L 500.99991 307.499577 " transform="matrix(3.779528,0,0,3.779528,0,0)"/>
<path style="fill:none;stroke-width:2;stroke-linecap:butt;stroke-linejoin:miter;stroke:rgb(0%,0%,0%);stroke-opacity:1;stroke-miterlimit:4;" d="M 488.500415 286.000114 L 472.500358 300.499487 L 456.500301 318.500456 L 440.000016 338.500269 L 423.999959 346.49978 L 407.499674 334.500513 L 391.499618 321.999984 L 375.499561 311.999561 L 359.499504 304.000049 L 343.000252 295.999504 L 336.999585 305.999927 L 321.499756 321.999984 L 298.000415 307.999805 L 280.00048 302.500399 L 263.500195 298.999837 L 235.499837 300.999715 L 225.999642 284.999658 L 236.000065 268.500407 L 243.999577 259.000212 L 254 243.000155 L 237.999943 243.500382 L 221.999886 243.500382 L 205.999829 245.000033 L 189.999772 245.000033 L 173.499487 246.499683 L 157.500464 246.499683 L 141.500407 248.000366 L 125.50035 248.000366 " transform="matrix(3.779528,0,0,3.779528,0,0)"/>
<path style="fill:none;stroke-width:2;stroke-linecap:butt;stroke-linejoin:miter;stroke:rgb(0%,0%,0%);stroke-opacity:1;stroke-miterlimit:4;" d="M 128.000456 254.500228 L 144.000513 255.999878 L 159.500342 256.500106 L 175.500399 256.500106 L 191.99965 254.500228 L 192.499878 250.500472 L 208.499935 248.499561 L 224.499992 248.000366 L 240.500049 248.000366 " transform="matrix(3.779528,0,0,3.779528,0,0)"/>
<path style="fill:none;stroke-width:2;stroke-linecap:butt;stroke-linejoin:miter;stroke:rgb(0%,0%,0%);stroke-opacity:1;stroke-miterlimit:4;" d="M 241.999699 260.499862 L 257.999756 254.500228 L 248.000366 262.49974 L 225.999642 261.999512 L 215.500024 277.500374 L 219.49978 283.500008 L 219.49978 296.999959 L 245.50026 313.000016 L 254 313.000016 L 270.000057 318.99965 L 286.000114 323.000439 L 302.000171 327.000195 L 317.5 316.499544 L 333.500057 300.499487 L 332.000407 279.000024 L 348.000464 266.999723 L 320.000106 275.000269 L 325.499512 291.49952 L 325.99974 307.499577 L 314.000472 323.499634 L 338.000041 337.499813 L 354.000098 351.499992 L 372.000033 372.000033 L 388.00009 382.000456 L 395.999601 386.500439 " transform="matrix(3.779528,0,0,3.779528,0,0)"/>
<path style="fill:none;stroke-width:2;stroke-linecap:butt;stroke-linejoin:miter;stroke:rgb(0%,0%,0%);stroke-opacity:1;stroke-miterlimit:4;" d="M 414.499764 389.999967 L 416.99987 374.500138 L 432.999927 354.500326 L 411.000236 338.500269 L 391.499618 322.500212 L 363.500293 305.999927 L 341.499569 287.999992 L 347.000008 275.999691 L 352.999642 259.999634 L 336.999585 255.999878 L 320.500334 255.999878 L 304.000049 255.49965 L 287.999992 257.000334 L 271.499707 259.000212 L 273.499585 230.999854 L 269.499829 214.999797 L 267.499951 199.499967 L 263.500195 167.499854 L 264.000423 151.499797 L 266.000301 135.999967 L 260.499862 119.99991 L 259.000212 104.500081 L 257.000334 92.49978 L 241.500505 90.499902 L 225.500448 88.500024 L 209.000163 88.500024 L 193.000106 87.999797 L 177.000049 87.999797 L 160.999992 87.499569 L 144.999935 87.999797 L 128.999878 85.999919 L 112.999821 86.500146 L 96.999764 86.500146 L 80.999707 88.500024 " transform="matrix(3.779528,0,0,3.779528,0,0)"/>
<path style="fill:none;stroke-width:2;stroke-linecap:butt;stroke-linejoin:miter;stroke:rgb(0%,0%,0%);stroke-opacity:1;stroke-miterlimit:4;" d="M 100.99952 100.000098 L 116.999577 95.500114 L 132.999634 97.499992 L 164.999748 98.500448 L 180.999805 98.500448 L 196.999862 100.500326 L 228.499748 100.500326 L 236.500293 104.500081 L 234.999609 120.500138 " transform="matrix(3.779528,0,0,3.779528,0,0)"/>
<path style="fill:none;stroke-width:2;stroke-linecap:butt;stroke-linejoin:miter;stroke:rgb(0%,0%,0%);stroke-opacity:1;stroke-miterlimit:4;" d="M 239.999821 121.999788 L 234.000187 119.99991 L 218.500358 126.499772 L 202.999495 125.000122 L 187.000472 125.000122 L 171.000415 123.000244 " transform="matrix(3.779528,0,0,3.779528,0,0)"/>
<path style="fill:none;stroke-width:2;stroke-linecap:butt;stroke-linejoin:miter;stroke:rgb(0%,0%,0%);stroke-opacity:1;stroke-miterlimit:4;" d="M 153.499674 103.999854 L 137.499618 107.999609 " transform="matrix(3.779528,0,0,3.779528,0,0)"/>
<path style="fill:none;stroke-width:2;stroke-linecap:butt;stroke-linejoin:miter;stroke:rgb(0%,0%,0%);stroke-opacity:1;stroke-miterlimit:4;" d="M 131.499984 109.999487 L 146.999813 114.000277 " transform="matrix(3.779528,0,0,3.779528,0,0)"/>
<path style="fill:none;stroke-width:2;stroke-linecap:butt;stroke-linejoin:miter;stroke:rgb(0%,0%,0%);stroke-opacity:1;stroke-miterlimit:4;" d="M 144.499707 121.999788 L 128.999878 123.500472 L 112.999821 121.499561 " transform="matrix(3.779528,0,0,3.779528,0,0)"/>
<path style="fill:none;stroke-width:2;stroke-linecap:butt;stroke-linejoin:miter;stroke:rgb(0%,0%,0%);stroke-opacity:1;stroke-miterlimit:4;" d="M 110.999943 127.500228 L 126.499772 128.000456 L 159.000114 128.000456 L 175.000171 116.000155 L 160.999992 116.000155 L 168.999504 128.49965 L 184.500366 128.49965 L 200.500423 130.499528 L 216.50048 130.999756 L 232.499504 130.999756 " transform="matrix(3.779528,0,0,3.779528,0,0)"/>
<path style="fill:none;stroke-width:2;stroke-linecap:butt;stroke-linejoin:miter;stroke:rgb(0%,0%,0%);stroke-opacity:1;stroke-miterlimit:4;" d="M 221.999886 173.999715 L 205.499601 173.499487 L 173.499487 173.499487 L 157.500464 173.000293 L 141.500407 173.000293 L 125.50035 175.000171 " transform="matrix(3.779528,0,0,3.779528,0,0)"/>
<path style="fill:none;stroke-width:2;stroke-linecap:butt;stroke-linejoin:miter;stroke:rgb(0%,0%,0%);stroke-opacity:1;stroke-miterlimit:4;" d="M 121.000366 175.999593 L 137.000423 169.499731 L 153.00048 168.999504 L 216.999674 168.999504 L 232.999731 166.999626 " transform="matrix(3.779528,0,0,3.779528,0,0)"/>
<path style="fill:none;stroke-width:2;stroke-linecap:butt;stroke-linejoin:miter;stroke:rgb(0%,0%,0%);stroke-opacity:1;stroke-miterlimit:4;" d="M 241.000277 227.000098 L 225.00022 228.999976 L 209.000163 226.49987 L 193.000106 227.99952 L 177.500277 227.500326 L 145.500163 226.49987 L 129.500106 227.99952 " transform="matrix(3.779528,0,0,3.779528,0,0)"/>
<path style="fill:none;stroke-width:2;stroke-linecap:butt;stroke-linejoin:miter;stroke:rgb(0%,0%,0%);stroke-opacity:1;stroke-miterlimit:4;" d="M 123.500472 227.500326 L 129.500106 219.49978 L 145.500163 221.499658 L 161.50022 221.999886 L 177.000049 222.500114 L 193.000106 222.500114 L 209.000163 223.000342 L 225.500448 221.000464 L 241.500505 218.999552 " transform="matrix(3.779528,0,0,3.779528,0,0)"/>
<path style="fill:none;stroke-width:2;stroke-linecap:butt;stroke-linejoin:miter;stroke:rgb(0%,0%,0%);stroke-opacity:1;stroke-miterlimit:4;" d="M 271.499707 246.499683 L 255.49965 250.999666 L 239.999821 255.000456 L 224.499992 264.999845 L 208.499935 260.499862 L 192.499878 261.999512 L 175.999593 264.000423 L 159.999536 263.500195 L 144.000513 265.500073 L 128.49965 264.999845 " transform="matrix(3.779528,0,0,3.779528,0,0)"/>
<path style="fill:none;stroke-width:2;stroke-linecap:butt;stroke-linejoin:miter;stroke:rgb(0%,0%,0%);stroke-opacity:1;stroke-miterlimit:4;" d="M 130.000334 270.000057 L 145.500163 270.000057 L 160.999992 271.499707 L 177.000049 273.499585 " transform="matrix(3.779528,0,0,3.779528,0,0)"/>
<path style="fill:none;stroke-width:2;stroke-linecap:butt;stroke-linejoin:miter;stroke:rgb(0%,0%,0%);stroke-opacity:1;stroke-miterlimit:4;" d="M 159.999536 266.499495 L 175.999593 268.500407 L 192.499878 266.499495 L 208.499935 264.999845 L 220.500236 268.999601 L 232.499504 264.999845 L 242.499927 264.999845 L 258.499984 257.499528 L 274.500041 253.499772 L 284.500464 263.500195 L 300.499487 271.499707 L 308.500033 268.000179 L 323.999862 266.000301 " transform="matrix(3.779528,0,0,3.779528,0,0)"/>
<path style="fill:none;stroke-width:2;stroke-linecap:butt;stroke-linejoin:miter;stroke:rgb(0%,0%,0%);stroke-opacity:1;stroke-miterlimit:4;" d="M 304.500277 279.000024 L 287.999992 271.000513 L 271.999935 267.499951 L 255.49965 266.000301 L 239.000399 271.499707 " transform="matrix(3.779528,0,0,3.779528,0,0)"/>
<path style="fill:none;stroke-width:2;stroke-linecap:butt;stroke-linejoin:miter;stroke:rgb(0%,0%,0%);stroke-opacity:1;stroke-miterlimit:4;" d="M 241.999699 282.99978 L 257.999756 286.999536 L 274.500041 286.999536 L 286.000114 266.999723 L 286.000114 282.99978 L 297.500187 290.500098 L 309.500488 318.500456 " transform="matrix(3.779528,0,0,3.779528,0,0)"/>
<path style="fill:none;stroke-width:2;stroke-linecap:butt;stroke-linejoin:miter;stroke:rgb(0%,0%,0%);stroke-opacity:1;stroke-miterlimit:4;" d="M 283.500008 307.499577 L 267.499951 305.499699 L 251.499894 300.999715 L 235.499837 299.500065 L 207.500513 293.999626 L 191.99965 293.999626 L 175.999593 296.499731 L 159.999536 298.000415 " transform="matrix(3.779528,0,0,3.779528,0,0)"/>
<path style="fill:none;stroke-width:2;stroke-linecap:butt;stroke-linejoin:miter;stroke:rgb(0%,0%,0%);stroke-opacity:1;stroke-miterlimit:4;" d="M 159.000114 296.499731 L 175.000171 290.500098 L 190.5 289.000448 L 206.500057 289.000448 L 221.999886 297.500187 L 237.499715 309.500488 L 253.499772 309.500488 L 270.000057 313.500244 L 302.000171 321.499756 " transform="matrix(3.779528,0,0,3.779528,0,0)"/>
<path style="fill:none;stroke-width:2;stroke-linecap:butt;stroke-linejoin:miter;stroke:rgb(0%,0%,0%);stroke-opacity:1;stroke-miterlimit:4;" d="M 344.499902 303.499821 L 325.99974 319.499878 L 332.000407 335.499935 L 338.000041 343.000252 L 359.999731 359.000309 L 386.500439 374.500138 " transform="matrix(3.779528,0,0,3.779528,0,0)"/>
<path style="fill:none;stroke-width:2;stroke-linecap:butt;stroke-linejoin:miter;stroke:rgb(0%,0%,0%);stroke-opacity:1;stroke-miterlimit:4;" d="M 385.499984 373.000488 L 368.999699 363.000065 L 352.999642 359.000309 L 337.499813 350.499536 L 321.499756 350.999764 L 305.999927 352.999642 L 289.99987 352.999642 L 274.500041 355.499748 L 258.499984 355.999976 L 242.499927 357.999854 L 225.999642 359.999731 L 193.999528 363.999487 L 178.499699 366.000399 L 160.499764 362.499837 L 144.499707 368.500505 L 126.499772 366.499593 L 110.499715 366.499593 L 94.999886 360.499959 L 78.999829 348.499658 " transform="matrix(3.779528,0,0,3.779528,0,0)"/>
<path style="fill:none;stroke-width:2;stroke-linecap:butt;stroke-linejoin:miter;stroke:rgb(0%,0%,0%);stroke-opacity:1;stroke-miterlimit:4;" d="M 114.000277 327.999618 L 130.000334 329.999495 L 145.500163 327.999618 L 160.999992 325.499512 L 176.499821 325.499512 L 192.499878 323.999862 L 207.999707 321.499756 L 223.999764 321.499756 L 239.999821 318.99965 L 255.999878 317.5 " transform="matrix(3.779528,0,0,3.779528,0,0)"/>
<path style="fill:none;stroke-width:2;stroke-linecap:butt;stroke-linejoin:miter;stroke:rgb(0%,0%,0%);stroke-opacity:1;stroke-miterlimit:4;" d="M 249.500016 321.499756 L 234.000187 325.000317 L 218.00013 327.000195 L 202.000073 327.000195 L 169.999959 330.999951 L 153.999902 330.999951 L 137.999845 333.500057 L 121.999788 335.499935 " transform="matrix(3.779528,0,0,3.779528,0,0)"/>
<path style="fill:none;stroke-width:2;stroke-linecap:butt;stroke-linejoin:miter;stroke:rgb(0%,0%,0%);stroke-opacity:1;stroke-miterlimit:4;" d="M 186.500244 386.999634 L 202.500301 376.500016 L 211.000041 368.500505 L 179.500155 384.499528 L 159.500342 400.499585 L 145.500163 416.499642 L 141.999601 432.499699 L 153.999902 448.499756 L 184.000138 464.499813 " transform="matrix(3.779528,0,0,3.779528,0,0)"/>
<path style="fill:none;stroke-width:2;stroke-linecap:butt;stroke-linejoin:miter;stroke:rgb(0%,0%,0%);stroke-opacity:1;stroke-miterlimit:4;" d="M 178.000505 441.000472 L 193.999528 450.999862 L 210.499813 461.000285 L 226.49987 466.499691 L 243.000155 444.5 L 259.000212 427.999715 L 275.000269 434.000382 L 291.000326 441.499666 L 306.500155 451.50009 L 322.500212 459.499601 L 338.500269 467.500146 L 354.500326 473.49978 L 370.999577 479.500448 L 386.999634 465.500269 " transform="matrix(3.779528,0,0,3.779528,0,0)"/>
<path style="fill:none;stroke-width:2;stroke-linecap:butt;stroke-linejoin:miter;stroke:rgb(0%,0%,0%);stroke-opacity:1;stroke-miterlimit:4;" d="M 468.000374 388.999512 L 484.000431 384.499528 " transform="matrix(3.779528,0,0,3.779528,0,0)"/>
<path style="fill:none;stroke-width:2;stroke-linecap:butt;stroke-linejoin:miter;stroke:rgb(0%,0%,0%);stroke-opacity:1;stroke-miterlimit:4;" d="M 490.000065 352.00022 L 506.000122 340.500146 L 493.999821 342.500024 L 477.999764 358.500081 L 470.000252 382.49965 L 475.999886 379.999544 L 492.500171 377.500472 L 500.499683 359.499504 L 504.500472 355.499748 L 488.500415 365.500171 L 488.999609 361.500415 L 504.999666 349.500114 " transform="matrix(3.779528,0,0,3.779528,0,0)"/>
<path style="fill:none;stroke-width:2;stroke-linecap:butt;stroke-linejoin:miter;stroke:rgb(0%,0%,0%);stroke-opacity:1;stroke-miterlimit:4;" d="M 507.499772 338.500269 L 503.500016 350.499536 L 483.500203 360.499959 L 475.499658 362.499837 L 491.499715 343.999674 L 508 334.000285 " transform="matrix(3.779528,0,0,3.779528,0,0)"/>
<path style="fill:none;stroke-width:2;stroke-linecap:butt;stroke-linejoin:miter;stroke:rgb(0%,0%,0%);stroke-opacity:1;stroke-miterlimit:4;" d="M 443.499544 347.000008 L 459.499601 326.499967 L 475.499658 308.500033 L 491.499715 294.499854 L 509.49965 292.499976 L 493.000399 308.500033 L 482.999976 324.50009 L 472.500358 341.000374 L 466.499691 357.499626 L 459.999829 373.499683 L 449.500212 389.49974 L 437.49991 405.499797 L 421.499854 420.999626 L 436.00026 407.00048 L 452.499512 384.499528 L 468.999797 348.000464 L 484.499626 317.5 L 500.000488 297.500187 L 505.499894 299.500065 L 493.499593 315.500122 L 481.000098 330.999951 L 473.49978 347.500236 L 468.000374 363.500293 L 461.999707 379.50035 L 450.499634 395.500407 L 436.500488 411.500464 L 420.999626 427.499487 L 406.500252 443.499544 L 398.499707 459.499601 L 384.499528 475.999886 L 370.500382 491.499715 L 366.499593 508 " transform="matrix(3.779528,0,0,3.779528,0,0)"/>
<path style="fill:none;stroke-width:2;stroke-linecap:butt;stroke-linejoin:miter;stroke:rgb(0%,0%,0%);stroke-opacity:1;stroke-miterlimit:4;" d="M 283.500008 511.000334 L 268.000179 499.000033 L 252.000122 486.499504 " transform="matrix(3.779528,0,0,3.779528,0,0)"/>
<path style="fill:none;stroke-width:2;stroke-linecap:butt;stroke-linejoin:miter;stroke:rgb(0%,0%,0%);stroke-opacity:1;stroke-miterlimit:4;" d="M 222.500114 453.499967 L 206.500057 447.000106 L 194.499756 420.999626 L 178.499699 414.999992 " transform="matrix(3.779528,0,0,3.779528,0,0)"/>
<path style="fill:none;stroke-width:2;stroke-linecap:butt;stroke-linejoin:miter;stroke:rgb(0%,0%,0%);stroke-opacity:1;stroke-miterlimit:4;" d="M 177.000049 418.49952 L 177.000049 424.500187 L 193.000106 430.499821 L 209.500391 440.500244 L 225.500448 448.499756 " transform="matrix(3.779528,0,0,3.779528,0,0)"/>
<path style="fill:none;stroke-width:2;stroke-linecap:butt;stroke-linejoin:miter;stroke:rgb(0%,0%,0%);stroke-opacity:1;stroke-miterlimit:4;" d="M 230.499626 423.499731 L 214.499569 409.99978 L 198.499512 398.499707 " transform="matrix(3.779528,0,0,3.779528,0,0)"/>
<path style="fill:none;stroke-width:2;stroke-linecap:butt;stroke-linejoin:miter;stroke:rgb(0%,0%,0%);stroke-opacity:1;stroke-miterlimit:4;" d="M 202.000073 394.499951 L 234.000187 413.500342 L 254 431.500277 L 239.499593 447.500334 L 229.500203 463.500391 L 245.50026 447.000106 L 261.999512 432.999927 L 278.499797 443.499544 L 294.499854 451.50009 L 310.49991 459.499601 L 326.499967 468.000374 L 341.999797 475.999886 " transform="matrix(3.779528,0,0,3.779528,0,0)"/>
<path style="fill:none;stroke-width:2;stroke-linecap:butt;stroke-linejoin:miter;stroke:rgb(0%,0%,0%);stroke-opacity:1;stroke-miterlimit:4;" d="M 275.999691 497.500382 L 260.499862 481.500326 L 244.499805 483.500203 L 238.500171 479.500448 L 222.500114 475.499658 L 205.999829 471.499902 L 189.499544 466.000496 L 173.499487 457.999951 L 157.500464 450.000439 " transform="matrix(3.779528,0,0,3.779528,0,0)"/>
<path style="fill:none;stroke-width:2;stroke-linecap:butt;stroke-linejoin:miter;stroke:rgb(0%,0%,0%);stroke-opacity:1;stroke-miterlimit:4;" d="M 153.00048 445.500456 L 168.999504 449.500212 L 184.999561 457.999951 L 201.499845 466.499691 " transform="matrix(3.779528,0,0,3.779528,0,0)"/>
<path style="fill:none;stroke-width:2;stroke-linecap:butt;stroke-linejoin:miter;stroke:rgb(0%,0%,0%);stroke-opacity:1;stroke-miterlimit:4;" d="M 201.499845 419.499976 L 185.499788 406.000024 " transform="matrix(3.779528,0,0,3.779528,0,0)"/>
<path style="fill:none;stroke-width:2;stroke-linecap:butt;stroke-linejoin:miter;stroke:rgb(0%,0%,0%);stroke-opacity:1;stroke-miterlimit:4;" d="M 184.000138 401.500041 L 196.000439 397.500285 L 216.000252 413.000114 L 230.000431 414.999992 " transform="matrix(3.779528,0,0,3.779528,0,0)"/>
<path style="fill:none;stroke-width:2;stroke-linecap:butt;stroke-linejoin:miter;stroke:rgb(0%,0%,0%);stroke-opacity:1;stroke-miterlimit:4;" d="M 225.999642 449.500212 L 196.000439 445.99965 L 176.499821 429.999593 L 175.000171 414.499764 L 189.00035 398.499707 L 169.499731 418.49952 " transform="matrix(3.779528,0,0,3.779528,0,0)"/>
<path style="fill:none;stroke-width:2;stroke-linecap:butt;stroke-linejoin:miter;stroke:rgb(0%,0%,0%);stroke-opacity:1;stroke-miterlimit:4;" d="M 166.500431 432.000505 L 182.500488 436.00026 L 198.499512 445.500456 L 220.000008 450.999862 " transform="matrix(3.779528,0,0,3.779528,0,0)"/>
<path style="fill:none;stroke-width:2;stroke-linecap:butt;stroke-linejoin:miter;stroke:rgb(0%,0%,0%);stroke-opacity:1;stroke-miterlimit:4;" d="M 203.499723 462.499935 L 187.499666 452.000317 L 171.499609 441.000472 L 155.499552 432.999927 " transform="matrix(3.779528,0,0,3.779528,0,0)"/>
<path style="fill:none;stroke-width:2;stroke-linecap:butt;stroke-linejoin:miter;stroke:rgb(0%,0%,0%);stroke-opacity:1;stroke-miterlimit:4;" d="M 148.000269 431.000049 L 164.000326 413.000114 L 180.000382 397.500285 L 195.500212 387.499862 L 211.500269 379.999544 L 227.000098 373.99991 L 202.999495 388.00009 L 213.500146 404.500374 L 233.499959 414.499764 L 221.499658 422.500309 L 235.499837 438.999561 L 229.500203 432.499699 " transform="matrix(3.779528,0,0,3.779528,0,0)"/>
<path style="fill:none;stroke-width:2;stroke-linecap:butt;stroke-linejoin:miter;stroke:rgb(0%,0%,0%);stroke-opacity:1;stroke-miterlimit:4;" d="M 264.499618 429.500399 L 246.499683 445.500456 L 239.499593 461.500513 L 243.999577 477.499536 L 271.999935 493.499593 L 289.99987 509.999878 " transform="matrix(3.779528,0,0,3.779528,0,0)"/>
<path style="fill:none;stroke-width:2;stroke-linecap:butt;stroke-linejoin:miter;stroke:rgb(0%,0%,0%);stroke-opacity:1;stroke-miterlimit:4;" d="M 323.999862 467.500146 L 292.499976 451.50009 L 266.499495 434.999805 " transform="matrix(3.779528,0,0,3.779528,0,0)"/>
<path style="fill:none;stroke-width:2;stroke-linecap:butt;stroke-linejoin:miter;stroke:rgb(0%,0%,0%);stroke-opacity:1;stroke-miterlimit:4;" d="M 271.499707 432.999927 L 299.500065 448.999984 L 331.500179 465.500269 " transform="matrix(3.779528,0,0,3.779528,0,0)"/>
<path style="fill:none;stroke-width:2;stroke-linecap:butt;stroke-linejoin:miter;stroke:rgb(0%,0%,0%);stroke-opacity:1;stroke-miterlimit:4;" d="M 278.499797 507.499772 L 259.999634 491.499715 L 221.999886 466.000496 L 191.500456 450.000439 L 165.499976 434.000382 L 150.000146 420.000203 L 164.000326 403.499919 L 183.49991 387.499862 L 213.500146 371.499805 " transform="matrix(3.779528,0,0,3.779528,0,0)"/>
<path style="fill:none;stroke-width:2;stroke-linecap:butt;stroke-linejoin:miter;stroke:rgb(0%,0%,0%);stroke-opacity:1;stroke-miterlimit:4;" d="M 200.999618 389.999967 L 216.999674 383.500106 L 232.999731 379.50035 L 248.999788 379.50035 " transform="matrix(3.779528,0,0,3.779528,0,0)"/>
<path style="fill:none;stroke-width:2;stroke-linecap:butt;stroke-linejoin:miter;stroke:rgb(0%,0%,0%);stroke-opacity:1;stroke-miterlimit:4;" d="M 202.500301 461.999707 L 175.999593 446.499878 L 164.000326 428.499943 L 157.999658 420.500431 L 171.999837 404.000146 L 182.00026 389.999967 L 165.499976 402.000269 L 149.499919 418.000326 " transform="matrix(3.779528,0,0,3.779528,0,0)"/>
<path style="fill:none;stroke-width:2;stroke-linecap:butt;stroke-linejoin:miter;stroke:rgb(0%,0%,0%);stroke-opacity:1;stroke-miterlimit:4;" d="M 142.499829 424.500187 L 158.499886 402.500496 L 174.499943 388.00009 L 190.5 377.999666 L 206.500057 370.000155 L 222.500114 368.000277 L 237.999943 368.000277 L 254 371.499805 " transform="matrix(3.779528,0,0,3.779528,0,0)"/>
<path style="fill:none;stroke-width:2;stroke-linecap:butt;stroke-linejoin:miter;stroke:rgb(0%,0%,0%);stroke-opacity:1;stroke-miterlimit:4;" d="M 345.00013 354.000098 L 364.999943 369.499927 L 391.499618 385.499984 L 398.000513 401.500041 L 392.500073 417.500098 L 390.500195 434.000382 L 395.000179 450.000439 L 386.999634 466.000496 L 364.499715 477.999764 L 364.499715 493.999821 L 360.499959 510.500106 " transform="matrix(3.779528,0,0,3.779528,0,0)"/>
<path style="fill:none;stroke-width:2;stroke-linecap:butt;stroke-linejoin:miter;stroke:rgb(0%,0%,0%);stroke-opacity:1;stroke-miterlimit:4;" d="M 388.00009 352.999642 L 373.99991 336.999585 " transform="matrix(3.779528,0,0,3.779528,0,0)"/>
<path style="fill:none;stroke-width:2;stroke-linecap:butt;stroke-linejoin:miter;stroke:rgb(0%,0%,0%);stroke-opacity:1;stroke-miterlimit:4;" d="M 370.500382 332.499601 L 364.499715 348.499658 " transform="matrix(3.779528,0,0,3.779528,0,0)"/>
<path style="fill:none;stroke-width:2;stroke-linecap:butt;stroke-linejoin:miter;stroke:rgb(0%,0%,0%);stroke-opacity:1;stroke-miterlimit:4;" d="M 348.499658 304.500277 L 360.499959 320.500334 L 380.499772 336.500391 L 394.499951 352.500448 L 404.500374 348.499658 L 408.50013 364.499715 L 404.999569 380.499772 " transform="matrix(3.779528,0,0,3.779528,0,0)"/>
<path style="fill:none;stroke-width:2;stroke-linecap:butt;stroke-linejoin:miter;stroke:rgb(0%,0%,0%);stroke-opacity:1;stroke-miterlimit:4;" d="M 293.999626 294.499854 L 277.999569 292.499976 L 255.999878 295.999504 L 239.999821 280.00048 L 259.999634 264.000423 " transform="matrix(3.779528,0,0,3.779528,0,0)"/>
<path style="fill:none;stroke-width:2;stroke-linecap:butt;stroke-linejoin:miter;stroke:rgb(0%,0%,0%);stroke-opacity:1;stroke-miterlimit:4;" d="M 232.000309 199.499967 L 216.000252 198.99974 L 184.000138 198.99974 L 168.500309 199.499967 L 121.000366 199.499967 " transform="matrix(3.779528,0,0,3.779528,0,0)"/>
<path style="fill:none;stroke-width:2;stroke-linecap:butt;stroke-linejoin:miter;stroke:rgb(0%,0%,0%);stroke-opacity:1;stroke-miterlimit:4;" d="M 119.000488 196.000439 L 134.999512 196.000439 L 150.999569 193.500334 L 166.500431 193.500334 L 182.500488 193.999528 L 230.499626 193.999528 " transform="matrix(3.779528,0,0,3.779528,0,0)"/>
<path style="fill:none;stroke-width:2;stroke-linecap:butt;stroke-linejoin:miter;stroke:rgb(0%,0%,0%);stroke-opacity:1;stroke-miterlimit:4;" d="M 213.500146 150.000146 L 198.000317 150.000146 L 182.500488 149.499919 L 166.999626 150.000146 L 119.499683 150.000146 " transform="matrix(3.779528,0,0,3.779528,0,0)"/>
<path style="fill:none;stroke-width:2;stroke-linecap:butt;stroke-linejoin:miter;stroke:rgb(0%,0%,0%);stroke-opacity:1;stroke-miterlimit:4;" d="M 116.999577 144.499707 L 132.999634 146.000391 L 148.999691 144.000513 L 164.999748 143.500285 L 180.499577 145.500163 L 212.000496 145.500163 L 227.500326 143.500285 " transform="matrix(3.779528,0,0,3.779528,0,0)"/>
<path style="fill:none;stroke-width:2;stroke-linecap:butt;stroke-linejoin:miter;stroke:rgb(0%,0%,0%);stroke-opacity:1;stroke-miterlimit:4;" d="M 268.999601 94.999886 L 270.500285 110.999943 L 273.000391 127 L 280.499674 155.000358 L 282.499552 170.500187 L 282.000358 186.500244 L 284.500464 202.500301 L 286.999536 218.00013 L 289.499642 234.000187 " transform="matrix(3.779528,0,0,3.779528,0,0)"/>
<path style="fill:none;stroke-width:2;stroke-linecap:butt;stroke-linejoin:miter;stroke:rgb(0%,0%,0%);stroke-opacity:1;stroke-miterlimit:4;" d="M 282.000358 233.499959 L 282.000358 217.499902 L 279.500252 201.499845 L 275.500496 169.499731 L 273.499585 153.499674 L 277.500374 137.499618 L 275.999691 121.499561 L 274.500041 105.499504 L 272.500163 89.50048 L 270.500285 73.500423 L 270.500285 67.499756 L 254 53.499577 L 237.499715 51.999927 L 189.499544 51.999927 L 173.999715 49.499821 L 141.999601 49.499821 L 125.999544 47.499943 L 109.999487 47.499943 L 94.000464 45.500065 L 78.000407 43.500187 L 61.500122 41.500309 L 45.500065 53.499577 " transform="matrix(3.779528,0,0,3.779528,0,0)"/>
<path style="fill:none;stroke-width:2;stroke-linecap:butt;stroke-linejoin:miter;stroke:rgb(0%,0%,0%);stroke-opacity:1;stroke-miterlimit:4;" d="M 48.500399 58.499788 L 64.99965 48.500399 L 80.999707 66.500334 L 93.000008 78.499601 L 109.500293 80.000285 L 125.50035 81.499935 L 141.500407 80.999707 L 173.499487 80.999707 L 189.499544 80.500513 L 221.999886 80.500513 L 238.500171 82.500391 L 254.500228 82.999585 " transform="matrix(3.779528,0,0,3.779528,0,0)"/>
<path style="fill:none;stroke-width:2;stroke-linecap:butt;stroke-linejoin:miter;stroke:rgb(0%,0%,0%);stroke-opacity:1;stroke-miterlimit:4;" d="M 252.000122 60.499666 L 236.000065 57.999561 L 220.000008 57.999561 L 203.999951 55.999683 L 155.499552 55.999683 L 139.499495 54.500033 L 123.500472 54.500033 L 107.500415 55.00026 L 91.999552 53.000382 L 75.999495 48.500399 " transform="matrix(3.779528,0,0,3.779528,0,0)"/>
<path style="fill:none;stroke-width:2;stroke-linecap:butt;stroke-linejoin:miter;stroke:rgb(0%,0%,0%);stroke-opacity:1;stroke-miterlimit:4;" d="M 80.999707 45.500065 L 82.999585 61.500122 L 91.500358 77.500179 L 81.499935 97.499992 L 84.000041 112.999821 L 85.999919 129.500106 L 89.999674 145.500163 L 89.999674 162.000448 L 91.999552 178.000505 L 94.000464 194.499756 L 96.000342 210.499813 L 98.00022 227.000098 L 99.49987 243.000155 L 99.49987 258.499984 L 103.499626 274.500041 L 105.499504 289.99987 L 107.999609 305.999927 L 109.500293 321.999984 L 118.000033 338.000041 L 114.000277 348.000464 L 130.000334 348.000464 L 146.000391 346.49978 L 162.000448 345.999552 L 177.500277 343.999674 L 193.500334 341.499569 L 209.500391 339.000496 L 225.500448 337.499813 L 241.500505 335.499935 L 257.499528 333.500057 L 289.99987 333.500057 L 305.499699 335.499935 L 317.5 334.000285 L 333.500057 341.999797 " transform="matrix(3.779528,0,0,3.779528,0,0)"/>
<path style="fill:none;stroke-width:2;stroke-linecap:butt;stroke-linejoin:miter;stroke:rgb(0%,0%,0%);stroke-opacity:1;stroke-miterlimit:4;" d="M 336.999585 290.500098 L 330.999951 284.500464 L 339.499691 268.500407 L 343.50048 252.50035 " transform="matrix(3.779528,0,0,3.779528,0,0)"/>
<path style="fill:none;stroke-width:2;stroke-linecap:butt;stroke-linejoin:miter;stroke:rgb(0%,0%,0%);stroke-opacity:1;stroke-miterlimit:4;" d="M 417.500098 227.000098 L 433.500155 243.000155 L 450.000439 236.999487 L 474.000008 241.500505 L 490.500293 257.999756 L 506.999544 268.000179 " transform="matrix(3.779528,0,0,3.779528,0,0)"/>
<path style="fill:none;stroke-width:2;stroke-linecap:butt;stroke-linejoin:miter;stroke:rgb(0%,0%,0%);stroke-opacity:1;stroke-miterlimit:4;" d="M 509.49965 271.999935 L 491.499715 252.000122 L 475.499658 236.000065 L 459.499601 242.499927 L 447.500334 244.499805 L 425.499609 238.500171 L 413.500342 221.999886 L 403.499919 205.999829 L 403.499919 188.500122 L 398.000513 171.999837 L 386.000212 155.99978 L 386.500439 139.499495 L 384.499528 123.500472 L 378.499894 107.000187 L 386.000212 91.500358 L 404.000146 75.999495 L 420.000203 60.000472 L 438.000138 62.499544 L 422.000081 74.499845 " transform="matrix(3.779528,0,0,3.779528,0,0)"/>
<path style="fill:none;stroke-width:2;stroke-linecap:butt;stroke-linejoin:miter;stroke:rgb(0%,0%,0%);stroke-opacity:1;stroke-miterlimit:4;" d="M 409.499552 83.499813 L 433.500155 71.499512 L 415.50022 87.499569 L 407.499674 103.499626 L 402.000269 111.500171 L 400.000391 127.500228 L 420.000203 143.500285 L 437.49991 159.000114 L 436.999683 173.000293 L 453.499967 155.000358 L 470.000252 150.999569 L 489.499837 169.499731 L 505.499894 193.500334 " transform="matrix(3.779528,0,0,3.779528,0,0)"/>
<path style="fill:none;stroke-width:2;stroke-linecap:butt;stroke-linejoin:miter;stroke:rgb(0%,0%,0%);stroke-opacity:1;stroke-miterlimit:4;" d="M 504.000244 193.500334 L 495.999699 177.500277 L 478.499992 169.999959 L 468.499569 196.000439 L 478.499992 188.500122 L 486.499504 186.000016 L 484.499626 175.999593 L 478.499992 171.999837 L 475.999886 168.000081 L 459.999829 166.000203 " transform="matrix(3.779528,0,0,3.779528,0,0)"/>
<path style="fill:none;stroke-width:2;stroke-linecap:butt;stroke-linejoin:miter;stroke:rgb(0%,0%,0%);stroke-opacity:1;stroke-miterlimit:4;" d="M 454.500423 135.49974 L 438.500366 117.499805 " transform="matrix(3.779528,0,0,3.779528,0,0)"/>
<path style="fill:none;stroke-width:2;stroke-linecap:butt;stroke-linejoin:miter;stroke:rgb(0%,0%,0%);stroke-opacity:1;stroke-miterlimit:4;" d="M 418.000326 111.500171 L 443.499544 87.499569 L 449.500212 103.999854 L 445.500456 119.99991 L 439.499788 125.999544 L 450.000439 142.499829 L 474.000008 146.499585 L 456.000073 162.499642 L 447.999528 166.999626 L 450.499634 173.000293 L 466.499691 159.000114 L 482.499748 156.500008 L 498.499805 172.500065 " transform="matrix(3.779528,0,0,3.779528,0,0)"/>
<path style="fill:none;stroke-width:2;stroke-linecap:butt;stroke-linejoin:miter;stroke:rgb(0%,0%,0%);stroke-opacity:1;stroke-miterlimit:4;" d="M 502.000366 180.000382 L 487.499959 164.000326 L 467.500146 148.000269 L 451.50009 141.999601 L 435.500033 137.999845 L 419.499976 127.500228 L 402.999691 128.000456 L 386.999634 128.000456 " transform="matrix(3.779528,0,0,3.779528,0,0)"/>
<path style="fill:none;stroke-width:2;stroke-linecap:butt;stroke-linejoin:miter;stroke:rgb(0%,0%,0%);stroke-opacity:1;stroke-miterlimit:4;" d="M 410.500008 133.499862 L 426.500065 146.000391 " transform="matrix(3.779528,0,0,3.779528,0,0)"/>
<path style="fill:none;stroke-width:2;stroke-linecap:butt;stroke-linejoin:miter;stroke:rgb(0%,0%,0%);stroke-opacity:1;stroke-miterlimit:4;" d="M 433.500155 143.500285 L 417.500098 133.499862 " transform="matrix(3.779528,0,0,3.779528,0,0)"/>
<path style="fill:none;stroke-width:2;stroke-linecap:butt;stroke-linejoin:miter;stroke:rgb(0%,0%,0%);stroke-opacity:1;stroke-miterlimit:4;" d="M 391.999845 159.999536 L 407.999902 169.999959 " transform="matrix(3.779528,0,0,3.779528,0,0)"/>
<path style="fill:none;stroke-width:2;stroke-linecap:butt;stroke-linejoin:miter;stroke:rgb(0%,0%,0%);stroke-opacity:1;stroke-miterlimit:4;" d="M 403.499919 160.499764 L 387.499862 157.000236 " transform="matrix(3.779528,0,0,3.779528,0,0)"/>
<path style="fill:none;stroke-width:2;stroke-linecap:butt;stroke-linejoin:miter;stroke:rgb(0%,0%,0%);stroke-opacity:1;stroke-miterlimit:4;" d="M 403.499919 194.499756 L 419.499976 220.500236 L 433.500155 236.999487 " transform="matrix(3.779528,0,0,3.779528,0,0)"/>
<path style="fill:none;stroke-width:2;stroke-linecap:butt;stroke-linejoin:miter;stroke:rgb(0%,0%,0%);stroke-opacity:1;stroke-miterlimit:4;" d="M 436.00026 240.500049 L 420.000203 223.999764 L 404.000146 201.499845 " transform="matrix(3.779528,0,0,3.779528,0,0)"/>
<path style="fill:none;stroke-width:2;stroke-linecap:butt;stroke-linejoin:miter;stroke:rgb(0%,0%,0%);stroke-opacity:1;stroke-miterlimit:4;" d="M 470.999674 242.499927 L 486.999731 258.499984 L 495.000277 273.999813 L 482.999976 289.499642 L 465.000041 305.499699 L 452.99974 320.999528 L 439.499788 336.999585 L 422.000081 353.49987 L 425.999837 369.499927 L 420.000203 393.499495 L 407.999902 409.499552 L 389.999967 423.499731 " transform="matrix(3.779528,0,0,3.779528,0,0)"/>
<path style="fill:none;stroke-width:2;stroke-linecap:butt;stroke-linejoin:miter;stroke:rgb(0%,0%,0%);stroke-opacity:1;stroke-miterlimit:4;" d="M 191.99965 461.500513 L 162.000448 445.500456 L 146.000391 437.49991 " transform="matrix(3.779528,0,0,3.779528,0,0)"/>
<path style="fill:none;stroke-width:2;stroke-linecap:butt;stroke-linejoin:miter;stroke:rgb(0%,0%,0%);stroke-opacity:1;stroke-miterlimit:4;" d="M 51.000505 283.500008 L 35.000448 264.999845 L 19.000391 252.50035 L 2.500106 244.499805 " transform="matrix(3.779528,0,0,3.779528,0,0)"/>
<path style="fill:none;stroke-width:2;stroke-linecap:butt;stroke-linejoin:miter;stroke:rgb(0%,0%,0%);stroke-opacity:1;stroke-miterlimit:4;" d="M 3.499528 242.499927 L 23.500374 258.499984 L 41.500309 274.500041 L 51.499699 290.500098 L 57.500366 308.500033 L 55.500488 323.999862 L 50.000049 339.999919 L 37.999748 355.999976 L 12.499495 372.000033 L 8.49974 373.99991 L 25.000024 365.500171 L 41.000081 351.499992 L 57.000138 321.499756 " transform="matrix(3.779528,0,0,3.779528,0,0)"/>
<path style="fill:none;stroke-width:2;stroke-linecap:butt;stroke-linejoin:miter;stroke:rgb(0%,0%,0%);stroke-opacity:1;stroke-miterlimit:4;" d="M 50.500277 273.999813 L 34.50022 257.499528 L 18.500163 247.500138 L 1.999878 241.500505 " transform="matrix(3.779528,0,0,3.779528,0,0)"/>
<path style="fill:none;stroke-width:2;stroke-linecap:butt;stroke-linejoin:miter;stroke:rgb(0%,0%,0%);stroke-opacity:1;stroke-miterlimit:4;" d="M 10.499618 246.499683 L 35.000448 262.49974 L 48.999593 278.499797 L 59.000016 293.999626 L 60.999894 311.999561 L 59.000016 327.500423 L 51.000505 343.50048 L 39.000203 359.000309 L 15.499829 375.000366 L 31.499886 367.500049 L 47.499943 349.500114 " transform="matrix(3.779528,0,0,3.779528,0,0)"/>
<path style="fill:none;stroke-width:2;stroke-linecap:butt;stroke-linejoin:miter;stroke:rgb(0%,0%,0%);stroke-opacity:1;stroke-miterlimit:4;" d="M 104.500081 94.999886 L 102.500203 110.499715 L 108.499837 126.499772 L 108.499837 124.499894 L 124.499894 118.50026 L 157.000236 118.50026 L 173.000293 106.499959 L 183.49991 116.000155 L 196.999862 103.999854 L 212.999919 104.500081 L 228.999976 105.999731 " transform="matrix(3.779528,0,0,3.779528,0,0)"/>
<path style="fill:none;stroke-width:2;stroke-linecap:butt;stroke-linejoin:miter;stroke:rgb(0%,0%,0%);stroke-opacity:1;stroke-miterlimit:4;" d="M 250.000244 53.000382 L 264.000423 69.499634 L 264.000423 107.500415 L 266.000301 123.500472 L 268.000179 143.500285 L 270.000057 159.500342 L 272.500163 175.500399 L 272.500163 191.500456 L 275.000269 207.500513 L 279.000024 223.999764 L 280.999902 239.499593 L 302.999593 243.500382 L 318.99965 241.999699 L 334.999707 242.499927 L 350.999764 246.499683 " transform="matrix(3.779528,0,0,3.779528,0,0)"/>
<path style="fill:none;stroke-width:2;stroke-linecap:butt;stroke-linejoin:miter;stroke:rgb(0%,0%,0%);stroke-opacity:1;stroke-miterlimit:4;" d="M 475.999886 236.000065 L 491.499715 252.000122 L 497.999577 268.500407 L 511.999756 270.500285 L 498.499805 286.000114 L 480.49987 301.499943 L 465.000041 318.000228 L 452.99974 334.000285 L 443.00035 350.000342 L 434.999805 366.000399 L 438.999561 368.000277 L 432.999927 383.500106 L 422.999504 398.999935 L 416.99987 414.999992 L 414.999992 427.000293 L 402.500496 443.00035 L 404.999569 436.999683 L 409.000358 420.999626 L 427.000293 393.499495 " transform="matrix(3.779528,0,0,3.779528,0,0)"/>
<path style="fill:none;stroke-width:2;stroke-linecap:butt;stroke-linejoin:miter;stroke:rgb(0%,0%,0%);stroke-opacity:1;stroke-miterlimit:4;" d="M 468.999797 139.999723 L 459.000407 135.999967 L 465.000041 120.500138 L 466.999919 104.500081 " transform="matrix(3.779528,0,0,3.779528,0,0)"/>
<path style="fill:none;stroke-width:2;stroke-linecap:butt;stroke-linejoin:miter;stroke:rgb(0%,0%,0%);stroke-opacity:1;stroke-miterlimit:4;" d="M 452.499512 75.500301 L 484.499626 75.500301 L 500.499683 73.000195 " transform="matrix(3.779528,0,0,3.779528,0,0)"/>
<path style="fill:none;stroke-width:2;stroke-linecap:butt;stroke-linejoin:miter;stroke:rgb(0%,0%,0%);stroke-opacity:1;stroke-miterlimit:4;" d="M 508 67.999984 L 491.999943 62.499544 L 475.999886 53.000382 L 463.500391 55.00026 L 447.999528 59.000016 L 440.500244 84.500269 L 428.499943 85.999919 L 425.999837 79.500057 L 409.99978 95.500114 L 426.500065 110.999943 L 432.999927 95.500114 L 443.00035 79.500057 L 444.5 63.5 L 448.499756 71.499512 " transform="matrix(3.779528,0,0,3.779528,0,0)"/>
<path style="fill:none;stroke-width:2;stroke-linecap:butt;stroke-linejoin:miter;stroke:rgb(0%,0%,0%);stroke-opacity:1;stroke-miterlimit:4;" d="M 453.499967 59.500244 L 447.500334 75.500301 L 437.49991 75.500301 L 423.499731 89.000252 L 419.499976 96.999764 L 421.499854 90.499902 " transform="matrix(3.779528,0,0,3.779528,0,0)"/>
<path style="fill:none;stroke-width:2;stroke-linecap:butt;stroke-linejoin:miter;stroke:rgb(0%,0%,0%);stroke-opacity:1;stroke-miterlimit:4;" d="M 400.000391 94.000464 L 384.000334 103.999854 " transform="matrix(3.779528,0,0,3.779528,0,0)"/>
<path style="fill:none;stroke-width:2;stroke-linecap:butt;stroke-linejoin:miter;stroke:rgb(0%,0%,0%);stroke-opacity:1;stroke-miterlimit:4;" d="M 377.999666 105.499504 L 393.499495 83.499813 L 409.499552 69.000439 L 425.499609 57.000138 L 441.000472 48.999593 L 457.499723 44.999837 L 474.000008 42.999959 L 490.000065 46.999715 L 506.50035 57.000138 " transform="matrix(3.779528,0,0,3.779528,0,0)"/>
<path style="fill:none;stroke-width:2;stroke-linecap:butt;stroke-linejoin:miter;stroke:rgb(0%,0%,0%);stroke-opacity:1;stroke-miterlimit:4;" d="M 493.499593 77.500179 L 491.499715 69.999862 L 479.999642 54.500033 " transform="matrix(3.779528,0,0,3.779528,0,0)"/>
<path style="fill:none;stroke-width:2;stroke-linecap:butt;stroke-linejoin:miter;stroke:rgb(0%,0%,0%);stroke-opacity:1;stroke-miterlimit:4;" d="M 481.500326 44.999837 L 507.499772 60.999894 " transform="matrix(3.779528,0,0,3.779528,0,0)"/>
<path style="fill:none;stroke-width:2;stroke-linecap:butt;stroke-linejoin:miter;stroke:rgb(0%,0%,0%);stroke-opacity:1;stroke-miterlimit:4;" d="M 443.999772 53.499577 L 427.999715 69.499634 L 409.99978 84.000041 L 395.999601 94.000464 L 388.00009 109.500293 L 384.499528 109.500293 L 388.00009 121.499561 L 389.999967 137.499618 L 406.000024 161.50022 L 408.50013 173.499487 " transform="matrix(3.779528,0,0,3.779528,0,0)"/>
<path style="fill:none;stroke-width:2;stroke-linecap:butt;stroke-linejoin:miter;stroke:rgb(0%,0%,0%);stroke-opacity:1;stroke-miterlimit:4;" d="M 329.999495 345.999552 L 314.000472 348.499658 L 295.999504 340.500146 L 280.00048 339.999919 L 264.000423 341.999797 L 248.000366 341.999797 L 232.000309 343.50048 L 216.000252 345.999552 L 200.000195 348.000464 L 184.500366 348.499658 L 168.999504 350.999764 L 153.00048 352.999642 L 137.000423 352.999642 L 121.000366 352.500448 L 106.499959 338.500269 L 102.500203 305.499699 L 100.500326 289.000448 L 98.00022 273.499585 L 94.000464 257.999756 L 94.000464 241.999699 L 91.999552 226.49987 L 89.999674 210.499813 L 87.999797 193.999528 L 85.999919 178.000505 L 84.000041 161.50022 L 84.000041 145.500163 L 78.000407 130.000334 L 77.500179 113.500049 L 73.500423 81.499935 L 82.000163 65.499878 L 67.999984 49.499821 " transform="matrix(3.779528,0,0,3.779528,0,0)"/>
<path style="fill:none;stroke-width:2;stroke-linecap:butt;stroke-linejoin:miter;stroke:rgb(0%,0%,0%);stroke-opacity:1;stroke-miterlimit:4;" d="M 57.000138 48.000171 L 49.499821 64.000228 L 48.999593 79.500057 L 51.499699 95.500114 L 53.499577 111.500171 L 53.999805 127.500228 L 55.999683 143.500285 L 58.499788 159.999536 L 60.499666 175.999593 L 62.999772 192.499878 L 66.999528 224.499992 L 69.000439 240.500049 L 71.000317 255.999878 L 73.000195 271.999935 L 75.000073 287.499764 L 76.999951 304.000049 L 78.999829 320.000106 L 80.999707 336.500391 L 85.499691 352.500448 " transform="matrix(3.779528,0,0,3.779528,0,0)"/>
</g>
</svg>
