<?xml version="1.0" encoding="UTF-8"?>
<svg xmlns="http://www.w3.org/2000/svg" xmlns:xlink="http://www.w3.org/1999/xlink" width="1935.11811" height="1935.11811" viewBox="0 0 1935.11811 1935.11811" version="1.1">
<g id="surface1">
<path style="fill:none;stroke-width:2;stroke-linecap:butt;stroke-linejoin:miter;stroke:rgb(0%,0%,0%);stroke-opacity:1;stroke-miterlimit:4;" d="M 169.499731 34.50022 L 197.50009 66.500334 L 209.500391 82.500391 L 227.500326 98.999642 L 263.500195 130.999756 " transform="matrix(3.779528,0,0,3.779528,0,0)"/>
<path style="fill:none;stroke-width:2;stroke-linecap:butt;stroke-linejoin:miter;stroke:rgb(0%,0%,0%);stroke-opacity:1;stroke-miterlimit:4;" d="M 270.500285 99.49987 L 272.500163 91.500358 L 298.499609 83.499813 L 310.49991 99.49987 L 334.500513 115.499927 L 329.999495 135.49974 L 314.000472 151.499797 L 323.999862 139.499495 L 339.999919 129.500106 L 359.999731 129.500106 L 375.999788 151.499797 L 404.500374 151.499797 L 412.499886 137.499618 L 434.000382 114.000277 L 450.000439 103.999854 L 465.500269 98.00022 L 481.500326 96.000342 L 497.999577 98.500448 " transform="matrix(3.779528,0,0,3.779528,0,0)"/>
<path style="fill:none;stroke-width:2;stroke-linecap:butt;stroke-linejoin:miter;stroke:rgb(0%,0%,0%);stroke-opacity:1;stroke-miterlimit:4;" d="M 496.499927 128.49965 L 480.49987 126.499772 L 464.499813 128.000456 L 447.999528 134.00009 L 432.000505 144.000513 L 409.499552 159.999536 L 409.499552 173.499487 L 403.499919 181.500033 L 401.500041 171.499609 L 395.500407 159.500342 L 415.50022 143.500285 L 401.500041 117.499805 L 377.500472 103.499626 L 377.500472 87.499569 L 423.499731 66.000106 L 427.499487 69.499634 L 411.500464 75.999495 L 395.500407 82.000163 L 379.50035 86.500146 L 363.500293 98.500448 " transform="matrix(3.779528,0,0,3.779528,0,0)"/>
<path style="fill:none;stroke-width:2;stroke-linecap:butt;stroke-linejoin:miter;stroke:rgb(0%,0%,0%);stroke-opacity:1;stroke-miterlimit:4;" d="M 361.500415 134.500317 L 373.499683 150.500374 " transform="matrix(3.779528,0,0,3.779528,0,0)"/>
<path style="fill:none;stroke-width:2;stroke-linecap:butt;stroke-linejoin:miter;stroke:rgb(0%,0%,0%);stroke-opacity:1;stroke-miterlimit:4;" d="M 364.499715 148.999691 L 341.000374 134.999512 L 325.000317 147.500041 " transform="matrix(3.779528,0,0,3.779528,0,0)"/>
<path style="fill:none;stroke-width:2;stroke-linecap:butt;stroke-linejoin:miter;stroke:rgb(0%,0%,0%);stroke-opacity:1;stroke-miterlimit:4;" d="M 334.500513 151.499797 L 314.499666 167.499854 L 307.499577 183.49991 L 302.000171 199.499967 L 316.00035 225.500448 L 320.000106 239.999821 L 325.99974 261.999512 L 342.500024 257.499528 L 358.500081 243.500382 " transform="matrix(3.779528,0,0,3.779528,0,0)"/>
<path style="fill:none;stroke-width:2;stroke-linecap:butt;stroke-linejoin:miter;stroke:rgb(0%,0%,0%);stroke-opacity:1;stroke-miterlimit:4;" d="M 358.500081 214.000374 L 354.500326 218.00013 L 338.000041 212.000496 " transform="matrix(3.779528,0,0,3.779528,0,0)"/>
<path style="fill:none;stroke-width:2;stroke-linecap:butt;stroke-linejoin:miter;stroke:rgb(0%,0%,0%);stroke-opacity:1;stroke-miterlimit:4;" d="M 324.50009 221.999886 L 325.000317 216.000252 L 340.500146 220.000008 L 357.000431 223.999764 " transform="matrix(3.779528,0,0,3.779528,0,0)"/>
<path style="fill:none;stroke-width:2;stroke-linecap:butt;stroke-linejoin:miter;stroke:rgb(0%,0%,0%);stroke-opacity:1;stroke-miterlimit:4;" d="M 332.999829 237.499715 L 331.500179 246.000488 L 325.499512 234.000187 L 309.500488 218.00013 " transform="matrix(3.779528,0,0,3.779528,0,0)"/>
<path style="fill:none;stroke-width:2;stroke-linecap:butt;stroke-linejoin:miter;stroke:rgb(0%,0%,0%);stroke-opacity:1;stroke-miterlimit:4;" d="M 313.000016 212.999919 L 329.500301 209.500391 L 345.999552 197.50009 L 361.999609 197.50009 L 382.49965 183.49991 L 398.499707 199.499967 " transform="matrix(3.779528,0,0,3.779528,0,0)"/>
<path style="fill:none;stroke-width:2;stroke-linecap:butt;stroke-linejoin:miter;stroke:rgb(0%,0%,0%);stroke-opacity:1;stroke-miterlimit:4;" d="M 384.999756 192.499878 L 368.999699 182.500488 L 352.999642 182.500488 " transform="matrix(3.779528,0,0,3.779528,0,0)"/>
<path style="fill:none;stroke-width:2;stroke-linecap:butt;stroke-linejoin:miter;stroke:rgb(0%,0%,0%);stroke-opacity:1;stroke-miterlimit:4;" d="M 351.499992 178.499699 L 366.999821 176.499821 L 383.500106 184.000138 L 399.500163 199.499967 " transform="matrix(3.779528,0,0,3.779528,0,0)"/>
<path style="fill:none;stroke-width:2;stroke-linecap:butt;stroke-linejoin:miter;stroke:rgb(0%,0%,0%);stroke-opacity:1;stroke-miterlimit:4;" d="M 397.500285 188.500122 L 382.000456 174.499943 L 366.000399 162.99987 L 350.000342 157.000236 " transform="matrix(3.779528,0,0,3.779528,0,0)"/>
<path style="fill:none;stroke-width:2;stroke-linecap:butt;stroke-linejoin:miter;stroke:rgb(0%,0%,0%);stroke-opacity:1;stroke-miterlimit:4;" d="M 351.499992 150.999569 L 381.500228 166.999626 L 399.500163 183.49991 L 419.499976 181.500033 L 435.500033 169.999959 L 451.50009 168.000081 L 479.500448 173.999715 L 495.500505 167.499854 L 497.500382 179.500155 " transform="matrix(3.779528,0,0,3.779528,0,0)"/>
<path style="fill:none;stroke-width:2;stroke-linecap:butt;stroke-linejoin:miter;stroke:rgb(0%,0%,0%);stroke-opacity:1;stroke-miterlimit:4;" d="M 503.500016 184.000138 L 487.499959 182.00026 " transform="matrix(3.779528,0,0,3.779528,0,0)"/>
<path style="fill:none;stroke-width:2;stroke-linecap:butt;stroke-linejoin:miter;stroke:rgb(0%,0%,0%);stroke-opacity:1;stroke-miterlimit:4;" d="M 479.999642 178.499699 L 495.500505 176.499821 L 511.499528 178.499699 " transform="matrix(3.779528,0,0,3.779528,0,0)"/>
<path style="fill:none;stroke-width:2;stroke-linecap:butt;stroke-linejoin:miter;stroke:rgb(0%,0%,0%);stroke-opacity:1;stroke-miterlimit:4;" d="M 499.000033 162.000448 L 482.999976 167.499854 " transform="matrix(3.779528,0,0,3.779528,0,0)"/>
<path style="fill:none;stroke-width:2;stroke-linecap:butt;stroke-linejoin:miter;stroke:rgb(0%,0%,0%);stroke-opacity:1;stroke-miterlimit:4;" d="M 479.999642 164.000326 L 495.999699 158.499886 L 511.499528 156.500008 " transform="matrix(3.779528,0,0,3.779528,0,0)"/>
<path style="fill:none;stroke-width:2;stroke-linecap:butt;stroke-linejoin:miter;stroke:rgb(0%,0%,0%);stroke-opacity:1;stroke-miterlimit:4;" d="M 490.500293 162.499642 L 475.000464 178.499699 L 486.999731 188.500122 L 484.999854 204.500179 L 509.49965 205.999829 L 493.499593 215.500024 L 479.500448 223.000342 L 469.500024 225.00022 L 475.499658 234.999609 L 477.499536 230.499626 L 493.999821 224.499992 L 504.000244 222.500114 " transform="matrix(3.779528,0,0,3.779528,0,0)"/>
<path style="fill:none;stroke-width:2;stroke-linecap:butt;stroke-linejoin:miter;stroke:rgb(0%,0%,0%);stroke-opacity:1;stroke-miterlimit:4;" d="M 481.500326 222.500114 L 466.000496 220.000008 " transform="matrix(3.779528,0,0,3.779528,0,0)"/>
<path style="fill:none;stroke-width:2;stroke-linecap:butt;stroke-linejoin:miter;stroke:rgb(0%,0%,0%);stroke-opacity:1;stroke-miterlimit:4;" d="M 456.000073 230.000431 L 459.999829 216.000252 L 475.999886 213.500146 L 491.999943 209.500391 L 506.000122 227.500326 " transform="matrix(3.779528,0,0,3.779528,0,0)"/>
<path style="fill:none;stroke-width:2;stroke-linecap:butt;stroke-linejoin:miter;stroke:rgb(0%,0%,0%);stroke-opacity:1;stroke-miterlimit:4;" d="M 506.000122 262.49974 L 497.999577 268.500407 L 481.500326 274.500041 L 465.500269 272.500163 " transform="matrix(3.779528,0,0,3.779528,0,0)"/>
<path style="fill:none;stroke-width:2;stroke-linecap:butt;stroke-linejoin:miter;stroke:rgb(0%,0%,0%);stroke-opacity:1;stroke-miterlimit:4;" d="M 472.500358 275.999691 L 488.500415 291.999748 " transform="matrix(3.779528,0,0,3.779528,0,0)"/>
<path style="fill:none;stroke-width:2;stroke-linecap:butt;stroke-linejoin:miter;stroke:rgb(0%,0%,0%);stroke-opacity:1;stroke-miterlimit:4;" d="M 465.500269 314.499666 L 481.500326 329.999495 L 497.000155 343.999674 " transform="matrix(3.779528,0,0,3.779528,0,0)"/>
<path style="fill:none;stroke-width:2;stroke-linecap:butt;stroke-linejoin:miter;stroke:rgb(0%,0%,0%);stroke-opacity:1;stroke-miterlimit:4;" d="M 500.99991 318.99965 L 484.999854 296.499731 L 468.999797 280.499674 L 456.999495 260.499862 L 441.000472 246.499683 " transform="matrix(3.779528,0,0,3.779528,0,0)"/>
<path style="fill:none;stroke-width:2;stroke-linecap:butt;stroke-linejoin:miter;stroke:rgb(0%,0%,0%);stroke-opacity:1;stroke-miterlimit:4;" d="M 439.499788 252.999544 L 447.500334 268.999601 L 463.500391 284.999658 L 475.499658 299.500065 L 483.500203 315.500122 L 487.499959 343.50048 L 504.000244 361.999609 " transform="matrix(3.779528,0,0,3.779528,0,0)"/>
<path style="fill:none;stroke-width:2;stroke-linecap:butt;stroke-linejoin:miter;stroke:rgb(0%,0%,0%);stroke-opacity:1;stroke-miterlimit:4;" d="M 443.499544 348.000464 L 449.500212 361.999609 L 452.99974 378.499894 L 454.999618 394.499951 L 454.500423 409.99978 L 452.499512 425.999837 L 450.000439 441.999894 L 450.000439 474.000008 L 451.50009 489.499837 L 453.499967 505.499894 " transform="matrix(3.779528,0,0,3.779528,0,0)"/>
<path style="fill:none;stroke-width:2;stroke-linecap:butt;stroke-linejoin:miter;stroke:rgb(0%,0%,0%);stroke-opacity:1;stroke-miterlimit:4;" d="M 470.50048 355.499748 L 454.500423 337.499813 L 438.000138 327.500423 " transform="matrix(3.779528,0,0,3.779528,0,0)"/>
<path style="fill:none;stroke-width:2;stroke-linecap:butt;stroke-linejoin:miter;stroke:rgb(0%,0%,0%);stroke-opacity:1;stroke-miterlimit:4;" d="M 438.000138 322.500212 L 440.000016 338.500269 L 442.500122 354.500326 L 444.5 370.999577 L 444.5 386.999634 L 448.499756 418.999748 L 454.500423 437.49991 L 460.500057 485.500081 " transform="matrix(3.779528,0,0,3.779528,0,0)"/>
<path style="fill:none;stroke-width:2;stroke-linecap:butt;stroke-linejoin:miter;stroke:rgb(0%,0%,0%);stroke-opacity:1;stroke-miterlimit:4;" d="M 488.500415 388.500317 L 484.499626 372.50026 L 468.499569 366.499593 L 464.499813 362.499837 L 454.999618 372.50026 L 452.99974 356.500203 L 448.999984 348.999886 L 432.999927 329.000073 " transform="matrix(3.779528,0,0,3.779528,0,0)"/>
<path style="fill:none;stroke-width:2;stroke-linecap:butt;stroke-linejoin:miter;stroke:rgb(0%,0%,0%);stroke-opacity:1;stroke-miterlimit:4;" d="M 429.500399 322.500212 L 445.500456 326.499967 L 461.500513 338.500269 L 477.499536 358.500081 L 493.499593 370.500382 " transform="matrix(3.779528,0,0,3.779528,0,0)"/>
<path style="fill:none;stroke-width:2;stroke-linecap:butt;stroke-linejoin:miter;stroke:rgb(0%,0%,0%);stroke-opacity:1;stroke-miterlimit:4;" d="M 481.000098 319.499878 L 468.999797 295.500309 L 452.499512 280.999902 L 436.500488 259.000212 " transform="matrix(3.779528,0,0,3.779528,0,0)"/>
<path style="fill:none;stroke-width:2;stroke-linecap:butt;stroke-linejoin:miter;stroke:rgb(0%,0%,0%);stroke-opacity:1;stroke-miterlimit:4;" d="M 436.00026 251.499894 L 440.000016 267.499951 L 454.000195 282.99978 L 456.000073 296.999959 L 470.000252 313.000016 L 490.000065 336.999585 L 504.000244 352.999642 " transform="matrix(3.779528,0,0,3.779528,0,0)"/>
<path style="fill:none;stroke-width:2;stroke-linecap:butt;stroke-linejoin:miter;stroke:rgb(0%,0%,0%);stroke-opacity:1;stroke-miterlimit:4;" d="M 496.499927 304.000049 L 481.99952 287.999992 L 467.500146 268.000179 L 450.999862 265.500073 L 434.999805 251.499894 " transform="matrix(3.779528,0,0,3.779528,0,0)"/>
<path style="fill:none;stroke-width:2;stroke-linecap:butt;stroke-linejoin:miter;stroke:rgb(0%,0%,0%);stroke-opacity:1;stroke-miterlimit:4;" d="M 434.999805 239.000399 L 450.999862 250.999666 L 467.500146 262.999967 L 483.500203 268.999601 L 500.000488 261.00009 L 502.000366 259.000212 " transform="matrix(3.779528,0,0,3.779528,0,0)"/>
<path style="fill:none;stroke-width:2;stroke-linecap:butt;stroke-linejoin:miter;stroke:rgb(0%,0%,0%);stroke-opacity:1;stroke-miterlimit:4;" d="M 502.999788 205.999829 L 486.999731 202.500301 L 470.999674 208.499935 L 454.999618 206.500057 " transform="matrix(3.779528,0,0,3.779528,0,0)"/>
<path style="fill:none;stroke-width:2;stroke-linecap:butt;stroke-linejoin:miter;stroke:rgb(0%,0%,0%);stroke-opacity:1;stroke-miterlimit:4;" d="M 443.999772 212.999919 L 459.999829 196.999862 L 475.999886 194.999984 L 488.000187 187.000472 L 504.000244 199.499967 " transform="matrix(3.779528,0,0,3.779528,0,0)"/>
<path style="fill:none;stroke-width:2;stroke-linecap:butt;stroke-linejoin:miter;stroke:rgb(0%,0%,0%);stroke-opacity:1;stroke-miterlimit:4;" d="M 463.999585 229.500203 L 450.000439 213.500146 L 447.500334 217.499902 L 447.500334 223.499536 " transform="matrix(3.779528,0,0,3.779528,0,0)"/>
<path style="fill:none;stroke-width:2;stroke-linecap:butt;stroke-linejoin:miter;stroke:rgb(0%,0%,0%);stroke-opacity:1;stroke-miterlimit:4;" d="M 436.00026 191.000228 L 452.000317 189.00035 L 452.000317 205.000407 L 443.999772 221.000464 L 460.500057 236.999487 L 476.500114 241.000277 L 484.499626 246.99991 L 488.000187 246.499683 L 504.000244 236.500293 L 501.500138 225.999642 L 487.499959 241.999699 " transform="matrix(3.779528,0,0,3.779528,0,0)"/>
<path style="fill:none;stroke-width:2;stroke-linecap:butt;stroke-linejoin:miter;stroke:rgb(0%,0%,0%);stroke-opacity:1;stroke-miterlimit:4;" d="M 437.49991 284.999658 L 421.499854 273.000391 " transform="matrix(3.779528,0,0,3.779528,0,0)"/>
<path style="fill:none;stroke-width:2;stroke-linecap:butt;stroke-linejoin:miter;stroke:rgb(0%,0%,0%);stroke-opacity:1;stroke-miterlimit:4;" d="M 421.499854 271.999935 L 431.500277 288.50022 L 447.500334 305.000505 L 469.500024 321.499756 L 482.999976 338.000041 L 495.000277 354.500326 " transform="matrix(3.779528,0,0,3.779528,0,0)"/>
<path style="fill:none;stroke-width:2;stroke-linecap:butt;stroke-linejoin:miter;stroke:rgb(0%,0%,0%);stroke-opacity:1;stroke-miterlimit:4;" d="M 480.49987 324.50009 L 463.999585 308.500033 L 448.499756 304.500277 L 432.499699 288.50022 " transform="matrix(3.779528,0,0,3.779528,0,0)"/>
<path style="fill:none;stroke-width:2;stroke-linecap:butt;stroke-linejoin:miter;stroke:rgb(0%,0%,0%);stroke-opacity:1;stroke-miterlimit:4;" d="M 432.000505 277.999569 L 443.499544 293.999626 L 459.000407 293.500431 " transform="matrix(3.779528,0,0,3.779528,0,0)"/>
<path style="fill:none;stroke-width:2;stroke-linecap:butt;stroke-linejoin:miter;stroke:rgb(0%,0%,0%);stroke-opacity:1;stroke-miterlimit:4;" d="M 422.999504 299.500065 L 450.999862 315.500122 L 470.999674 332.000407 L 483.500203 348.499658 L 500.000488 364.499715 L 502.499561 377.000244 L 508.500228 392.500073 L 506.50035 408.50013 L 509.000456 424.500187 L 507.499772 440.500244 L 507.499772 472.500358 " transform="matrix(3.779528,0,0,3.779528,0,0)"/>
<path style="fill:none;stroke-width:2;stroke-linecap:butt;stroke-linejoin:miter;stroke:rgb(0%,0%,0%);stroke-opacity:1;stroke-miterlimit:4;" d="M 493.000399 504.500472 L 493.000399 488.000187 L 492.500171 472.00013 L 493.000399 456.000073 L 490.999487 439.499788 L 490.999487 423.499731 L 491.499715 407.00048 L 499.50026 391.000423 L 507.499772 377.000244 L 509.000456 373.499683 L 488.999609 361.500415 L 472.999552 339.499691 L 456.999495 325.499512 L 441.000472 314.000472 L 425.000415 305.999927 L 409.000358 298.499609 L 393.000301 300.499487 L 361.000187 320.500334 L 345.00013 318.500456 L 343.000252 328.499845 L 323.000439 313.000016 L 316.999772 295.000081 L 335.499935 279.000024 L 325.99974 262.999967 L 316.00035 246.99991 L 312.499788 230.999854 L 306.500155 228.999976 " transform="matrix(3.779528,0,0,3.779528,0,0)"/>
<path style="fill:none;stroke-width:2;stroke-linecap:butt;stroke-linejoin:miter;stroke:rgb(0%,0%,0%);stroke-opacity:1;stroke-miterlimit:4;" d="M 284.500464 241.000277 L 268.500407 234.999609 L 262.49974 214.999797 L 255.000456 194.999984 L 264.999845 178.999927 L 275.500496 162.99987 L 273.999813 145.500163 L 273.999813 128.999878 L 275.999691 112.999821 L 290.500098 97.499992 L 282.99978 81.499935 L 266.999723 85.499691 " transform="matrix(3.779528,0,0,3.779528,0,0)"/>
<path style="fill:none;stroke-width:2;stroke-linecap:butt;stroke-linejoin:miter;stroke:rgb(0%,0%,0%);stroke-opacity:1;stroke-miterlimit:4;" d="M 270.500285 76.999951 L 260.499862 92.49978 L 266.499495 108.499837 L 268.500407 124.499894 L 268.500407 156.500008 L 264.999845 172.500065 L 252.999544 188.500122 L 243.500382 218.00013 L 259.000212 227.99952 L 266.999723 208.499935 " transform="matrix(3.779528,0,0,3.779528,0,0)"/>
<path style="fill:none;stroke-width:2;stroke-linecap:butt;stroke-linejoin:miter;stroke:rgb(0%,0%,0%);stroke-opacity:1;stroke-miterlimit:4;" d="M 271.999935 209.999585 L 268.000179 225.999642 " transform="matrix(3.779528,0,0,3.779528,0,0)"/>
<path style="fill:none;stroke-width:2;stroke-linecap:butt;stroke-linejoin:miter;stroke:rgb(0%,0%,0%);stroke-opacity:1;stroke-miterlimit:4;" d="M 239.000399 224.499992 L 268.999601 239.999821 L 295.000081 255.999878 L 291.000326 271.499707 L 286.500342 287.499764 L 295.999504 279.500252 " transform="matrix(3.779528,0,0,3.779528,0,0)"/>
<path style="fill:none;stroke-width:2;stroke-linecap:butt;stroke-linejoin:miter;stroke:rgb(0%,0%,0%);stroke-opacity:1;stroke-miterlimit:4;" d="M 282.000358 273.999813 L 266.499495 286.000114 L 250.000244 278.499797 " transform="matrix(3.779528,0,0,3.779528,0,0)"/>
<path style="fill:none;stroke-width:2;stroke-linecap:butt;stroke-linejoin:miter;stroke:rgb(0%,0%,0%);stroke-opacity:1;stroke-miterlimit:4;" d="M 251.499894 280.00048 L 252.999544 295.999504 L 255.000456 313.500244 L 250.999666 329.500301 L 257.000334 345.500358 L 258.499984 361.500415 L 256.500106 377.500472 L 258.499984 393.499495 L 260.499862 409.499552 L 261.00009 425.499609 L 262.999967 441.000472 " transform="matrix(3.779528,0,0,3.779528,0,0)"/>
<path style="fill:none;stroke-width:2;stroke-linecap:butt;stroke-linejoin:miter;stroke:rgb(0%,0%,0%);stroke-opacity:1;stroke-miterlimit:4;" d="M 291.000326 436.999683 L 284.999658 453.499967 L 280.999902 469.500024 " transform="matrix(3.779528,0,0,3.779528,0,0)"/>
<path style="fill:none;stroke-width:2;stroke-linecap:butt;stroke-linejoin:miter;stroke:rgb(0%,0%,0%);stroke-opacity:1;stroke-miterlimit:4;" d="M 283.500008 490.999487 L 285.499886 475.000464 L 287.499764 459.499601 L 291.999748 443.499544 " transform="matrix(3.779528,0,0,3.779528,0,0)"/>
<path style="fill:none;stroke-width:2;stroke-linecap:butt;stroke-linejoin:miter;stroke:rgb(0%,0%,0%);stroke-opacity:1;stroke-miterlimit:4;" d="M 329.999495 434.000382 L 330.499723 418.000326 L 329.999495 402.000269 L 328.499845 386.000212 L 327.999618 369.499927 L 327.999618 353.49987 L 321.999984 337.499813 L 311.999561 334.999707 " transform="matrix(3.779528,0,0,3.779528,0,0)"/>
<path style="fill:none;stroke-width:2;stroke-linecap:butt;stroke-linejoin:miter;stroke:rgb(0%,0%,0%);stroke-opacity:1;stroke-miterlimit:4;" d="M 310.49991 334.999707 L 318.500456 350.999764 L 318.500456 383.500106 L 323.000439 398.999935 " transform="matrix(3.779528,0,0,3.779528,0,0)"/>
<path style="fill:none;stroke-width:2;stroke-linecap:butt;stroke-linejoin:miter;stroke:rgb(0%,0%,0%);stroke-opacity:1;stroke-miterlimit:4;" d="M 345.00013 355.499748 L 343.000252 341.000374 L 330.999951 320.999528 L 315.500122 307.000382 " transform="matrix(3.779528,0,0,3.779528,0,0)"/>
<path style="fill:none;stroke-width:2;stroke-linecap:butt;stroke-linejoin:miter;stroke:rgb(0%,0%,0%);stroke-opacity:1;stroke-miterlimit:4;" d="M 318.000228 291.000326 L 334.000285 279.000024 L 334.000285 296.999959 L 350.499536 313.500244 L 354.500326 329.500301 L 362.499837 345.500358 L 379.000122 327.500423 L 383.500106 323.999862 L 367.500049 339.999919 " transform="matrix(3.779528,0,0,3.779528,0,0)"/>
<path style="fill:none;stroke-width:2;stroke-linecap:butt;stroke-linejoin:miter;stroke:rgb(0%,0%,0%);stroke-opacity:1;stroke-miterlimit:4;" d="M 386.000212 343.000252 L 379.999544 359.000309 L 374.500138 375.000366 L 366.499593 390.500195 L 364.999943 406.500252 L 361.000187 422.000081 L 359.000309 438.000138 L 357.000431 453.499967 L 354.500326 469.500024 L 354.500326 501.500138 " transform="matrix(3.779528,0,0,3.779528,0,0)"/>
<path style="fill:none;stroke-width:2;stroke-linecap:butt;stroke-linejoin:miter;stroke:rgb(0%,0%,0%);stroke-opacity:1;stroke-miterlimit:4;" d="M 349.500114 377.000244 L 345.500358 361.000187 L 341.499569 345.00013 L 321.499756 336.500391 L 305.499699 334.500513 " transform="matrix(3.779528,0,0,3.779528,0,0)"/>
<path style="fill:none;stroke-width:2;stroke-linecap:butt;stroke-linejoin:miter;stroke:rgb(0%,0%,0%);stroke-opacity:1;stroke-miterlimit:4;" d="M 300.999715 334.500513 L 273.000391 350.499536 L 275.000269 374.500138 L 275.500496 390.500195 L 275.500496 422.500309 L 275.000269 438.500366 L 275.000269 454.500423 " transform="matrix(3.779528,0,0,3.779528,0,0)"/>
<path style="fill:none;stroke-width:2;stroke-linecap:butt;stroke-linejoin:miter;stroke:rgb(0%,0%,0%);stroke-opacity:1;stroke-miterlimit:4;" d="M 271.000513 496.499927 L 271.000513 480.49987 L 266.999723 464.499813 L 269.499829 448.499756 L 269.499829 416.499642 L 268.999601 400.499585 L 271.000513 384.499528 L 271.000513 368.500505 L 264.999845 348.000464 L 295.000081 332.000407 L 289.000448 339.499691 L 273.000391 347.500236 " transform="matrix(3.779528,0,0,3.779528,0,0)"/>
<path style="fill:none;stroke-width:2;stroke-linecap:butt;stroke-linejoin:miter;stroke:rgb(0%,0%,0%);stroke-opacity:1;stroke-miterlimit:4;" d="M 264.999845 345.999552 L 280.999902 338.000041 L 296.999959 331.500179 L 313.000016 327.000195 L 328.499845 329.000073 L 332.000407 341.499569 L 332.000407 357.499626 L 331.500179 373.499683 L 333.500057 389.49974 L 334.999707 405.499797 L 334.999707 437.49991 " transform="matrix(3.779528,0,0,3.779528,0,0)"/>
<path style="fill:none;stroke-width:2;stroke-linecap:butt;stroke-linejoin:miter;stroke:rgb(0%,0%,0%);stroke-opacity:1;stroke-miterlimit:4;" d="M 318.000228 398.499707 L 314.000472 382.49965 L 311.500366 366.499593 L 313.000016 350.499536 L 304.500277 334.999707 L 300.499487 336.999585 " transform="matrix(3.779528,0,0,3.779528,0,0)"/>
<path style="fill:none;stroke-width:2;stroke-linecap:butt;stroke-linejoin:miter;stroke:rgb(0%,0%,0%);stroke-opacity:1;stroke-miterlimit:4;" d="M 336.000163 345.500358 L 339.999919 361.500415 L 345.999552 377.000244 " transform="matrix(3.779528,0,0,3.779528,0,0)"/>
<path style="fill:none;stroke-width:2;stroke-linecap:butt;stroke-linejoin:miter;stroke:rgb(0%,0%,0%);stroke-opacity:1;stroke-miterlimit:4;" d="M 381.500228 363.500293 L 377.500472 377.500472 L 383.500106 361.500415 L 385.499984 345.999552 " transform="matrix(3.779528,0,0,3.779528,0,0)"/>
<path style="fill:none;stroke-width:2;stroke-linecap:butt;stroke-linejoin:miter;stroke:rgb(0%,0%,0%);stroke-opacity:1;stroke-miterlimit:4;" d="M 388.999512 320.500334 L 375.000366 336.500391 L 362.499837 352.999642 L 360.499959 368.999699 L 361.999609 385.499984 " transform="matrix(3.779528,0,0,3.779528,0,0)"/>
<path style="fill:none;stroke-width:2;stroke-linecap:butt;stroke-linejoin:miter;stroke:rgb(0%,0%,0%);stroke-opacity:1;stroke-miterlimit:4;" d="M 348.999886 311.999561 L 332.999829 295.999504 " transform="matrix(3.779528,0,0,3.779528,0,0)"/>
<path style="fill:none;stroke-width:2;stroke-linecap:butt;stroke-linejoin:miter;stroke:rgb(0%,0%,0%);stroke-opacity:1;stroke-miterlimit:4;" d="M 336.000163 289.499642 L 350.000342 305.499699 " transform="matrix(3.779528,0,0,3.779528,0,0)"/>
<path style="fill:none;stroke-width:2;stroke-linecap:butt;stroke-linejoin:miter;stroke:rgb(0%,0%,0%);stroke-opacity:1;stroke-miterlimit:4;" d="M 387.499862 300.999715 L 369.499927 316.999772 L 355.499748 334.000285 L 347.500236 354.500326 L 369.499927 344.499902 L 385.499984 327.000195 " transform="matrix(3.779528,0,0,3.779528,0,0)"/>
<path style="fill:none;stroke-width:2;stroke-linecap:butt;stroke-linejoin:miter;stroke:rgb(0%,0%,0%);stroke-opacity:1;stroke-miterlimit:4;" d="M 370.000155 309.00026 L 395.999601 293.000203 " transform="matrix(3.779528,0,0,3.779528,0,0)"/>
<path style="fill:none;stroke-width:2;stroke-linecap:butt;stroke-linejoin:miter;stroke:rgb(0%,0%,0%);stroke-opacity:1;stroke-miterlimit:4;" d="M 417.500098 295.999504 L 433.500155 311.999561 L 457.999951 327.999618 L 475.999886 343.999674 L 488.000187 360.499959 L 490.000065 376.500016 L 493.999821 392.500073 L 502.499561 389.999967 " transform="matrix(3.779528,0,0,3.779528,0,0)"/>
<path style="fill:none;stroke-width:2;stroke-linecap:butt;stroke-linejoin:miter;stroke:rgb(0%,0%,0%);stroke-opacity:1;stroke-miterlimit:4;" d="M 445.000228 332.999829 L 463.000163 348.999886 L 461.000285 366.999821 L 462.499935 380.499772 L 457.999951 395.999601 L 457.999951 427.499487 L 459.999829 443.999772 L 461.999707 459.999829 L 461.999707 475.999886 L 466.000496 492.500171 " transform="matrix(3.779528,0,0,3.779528,0,0)"/>
<path style="fill:none;stroke-width:2;stroke-linecap:butt;stroke-linejoin:miter;stroke:rgb(0%,0%,0%);stroke-opacity:1;stroke-miterlimit:4;" d="M 489.499837 503.500016 L 489.499837 470.999674 L 488.999609 454.999618 L 486.999731 438.999561 L 485.500081 422.500309 L 485.500081 407.00048 L 481.99952 391.000423 L 479.999642 375.000366 L 478.499992 359.499504 L 466.499691 343.999674 L 446.499878 327.999618 " transform="matrix(3.779528,0,0,3.779528,0,0)"/>
<path style="fill:none;stroke-width:2;stroke-linecap:butt;stroke-linejoin:miter;stroke:rgb(0%,0%,0%);stroke-opacity:1;stroke-miterlimit:4;" d="M 429.500399 321.999984 L 435.500033 338.000041 L 437.49991 354.000098 L 438.000138 369.499927 L 440.500244 385.499984 L 440.500244 401.500041 L 444.5 433.500155 L 445.99965 449.500212 L 445.500456 465.500269 L 445.500456 481.500326 L 447.500334 497.500382 " transform="matrix(3.779528,0,0,3.779528,0,0)"/>
<path style="fill:none;stroke-width:2;stroke-linecap:butt;stroke-linejoin:miter;stroke:rgb(0%,0%,0%);stroke-opacity:1;stroke-miterlimit:4;" d="M 266.499495 508.500228 L 264.499618 492.500171 L 264.499618 476.500114 L 262.49974 461.000285 L 260.499862 445.000228 L 259.000212 429.000171 L 259.000212 412.499886 L 257.000334 395.999601 L 255.000456 379.50035 L 255.000456 363.500293 L 252.999544 347.500236 L 241.000277 345.500358 " transform="matrix(3.779528,0,0,3.779528,0,0)"/>
<path style="fill:none;stroke-width:2;stroke-linecap:butt;stroke-linejoin:miter;stroke:rgb(0%,0%,0%);stroke-opacity:1;stroke-miterlimit:4;" d="M 232.000309 325.99974 L 234.000187 342.500024 L 221.999886 368.000277 L 205.499601 384.000334 L 185.499788 399.500163 L 185.499788 431.500277 L 195.500212 435.500033 L 191.500456 467.500146 L 189.999772 483.500203 L 187.499666 499.50026 " transform="matrix(3.779528,0,0,3.779528,0,0)"/>
<path style="fill:none;stroke-width:2;stroke-linecap:butt;stroke-linejoin:miter;stroke:rgb(0%,0%,0%);stroke-opacity:1;stroke-miterlimit:4;" d="M 183.49991 496.499927 L 189.499544 448.499756 L 182.00026 442.500122 L 180.499577 426.500065 L 180.999805 410.500008 L 182.999683 394.499951 L 202.999495 380.499772 L 218.999552 363.999487 L 232.999731 348.000464 L 228.999976 332.000407 L 228.499748 323.999862 " transform="matrix(3.779528,0,0,3.779528,0,0)"/>
<path style="fill:none;stroke-width:2;stroke-linecap:butt;stroke-linejoin:miter;stroke:rgb(0%,0%,0%);stroke-opacity:1;stroke-miterlimit:4;" d="M 246.499683 280.499674 L 261.999512 278.499797 " transform="matrix(3.779528,0,0,3.779528,0,0)"/>
<path style="fill:none;stroke-width:2;stroke-linecap:butt;stroke-linejoin:miter;stroke:rgb(0%,0%,0%);stroke-opacity:1;stroke-miterlimit:4;" d="M 264.499618 274.500041 L 248.499561 258.499984 " transform="matrix(3.779528,0,0,3.779528,0,0)"/>
<path style="fill:none;stroke-width:2;stroke-linecap:butt;stroke-linejoin:miter;stroke:rgb(0%,0%,0%);stroke-opacity:1;stroke-miterlimit:4;" d="M 249.500016 253.499772 L 265.500073 269.499829 " transform="matrix(3.779528,0,0,3.779528,0,0)"/>
<path style="fill:none;stroke-width:2;stroke-linecap:butt;stroke-linejoin:miter;stroke:rgb(0%,0%,0%);stroke-opacity:1;stroke-miterlimit:4;" d="M 262.49974 262.999967 L 246.499683 250.999666 " transform="matrix(3.779528,0,0,3.779528,0,0)"/>
<path style="fill:none;stroke-width:2;stroke-linecap:butt;stroke-linejoin:miter;stroke:rgb(0%,0%,0%);stroke-opacity:1;stroke-miterlimit:4;" d="M 246.99991 251.499894 L 255.000456 267.499951 L 271.000513 287.499764 L 290.500098 293.500431 L 305.999927 300.999715 L 321.999984 307.000382 L 338.000041 320.999528 L 338.000041 327.500423 L 354.000098 338.000041 " transform="matrix(3.779528,0,0,3.779528,0,0)"/>
<path style="fill:none;stroke-width:2;stroke-linecap:butt;stroke-linejoin:miter;stroke:rgb(0%,0%,0%);stroke-opacity:1;stroke-miterlimit:4;" d="M 344.499902 261.500317 L 364.499715 245.50026 L 366.499593 243.500382 L 350.499536 259.500439 L 334.999707 266.000301 L 357.000431 245.50026 L 363.000065 230.000431 L 346.49978 237.999943 L 336.500391 241.999699 L 320.000106 237.499715 L 321.999984 223.499536 L 338.000041 199.499967 L 332.000407 182.00026 L 316.00035 180.000382 L 327.999618 189.999772 L 323.999862 171.999837 " transform="matrix(3.779528,0,0,3.779528,0,0)"/>
<path style="fill:none;stroke-width:2;stroke-linecap:butt;stroke-linejoin:miter;stroke:rgb(0%,0%,0%);stroke-opacity:1;stroke-miterlimit:4;" d="M 307.999805 182.00026 L 323.999862 159.999536 L 339.499691 152.000024 L 355.499748 153.999902 L 370.999577 159.999536 L 386.999634 171.999837 L 402.999691 159.999536 L 419.499976 160.499764 L 445.500456 164.49952 L 461.500513 166.000203 " transform="matrix(3.779528,0,0,3.779528,0,0)"/>
<path style="fill:none;stroke-width:2;stroke-linecap:butt;stroke-linejoin:miter;stroke:rgb(0%,0%,0%);stroke-opacity:1;stroke-miterlimit:4;" d="M 450.999862 175.999593 L 435.500033 182.500488 " transform="matrix(3.779528,0,0,3.779528,0,0)"/>
<path style="fill:none;stroke-width:2;stroke-linecap:butt;stroke-linejoin:miter;stroke:rgb(0%,0%,0%);stroke-opacity:1;stroke-miterlimit:4;" d="M 440.000016 164.49952 L 429.999593 180.999805 L 431.500277 196.999862 L 433.500155 212.499691 L 431.500277 228.499748 L 447.500334 246.000488 L 466.000496 261.999512 L 463.500391 277.999569 L 479.999642 293.999626 L 490.000065 305.999927 L 502.000366 321.999984 L 502.000366 344.499902 " transform="matrix(3.779528,0,0,3.779528,0,0)"/>
<path style="fill:none;stroke-width:2;stroke-linecap:butt;stroke-linejoin:miter;stroke:rgb(0%,0%,0%);stroke-opacity:1;stroke-miterlimit:4;" d="M 388.999512 202.500301 L 375.000366 188.500122 L 359.499504 186.000016 L 343.50048 193.999528 L 327.500423 202.000073 L 311.999561 209.999585 L 299.500065 203.999951 L 301.499943 187.999894 L 309.00026 171.999837 L 322.500212 156.500008 L 334.500513 140.499951 L 332.000407 150.500374 L 316.00035 160.499764 L 299.500065 188.500122 " transform="matrix(3.779528,0,0,3.779528,0,0)"/>
<path style="fill:none;stroke-width:2;stroke-linecap:butt;stroke-linejoin:miter;stroke:rgb(0%,0%,0%);stroke-opacity:1;stroke-miterlimit:4;" d="M 323.000439 201.499845 L 304.500277 218.00013 L 309.00026 234.000187 L 309.00026 250.000244 L 305.000505 266.000301 L 296.999959 282.000358 L 293.000203 266.499495 " transform="matrix(3.779528,0,0,3.779528,0,0)"/>
<path style="fill:none;stroke-width:2;stroke-linecap:butt;stroke-linejoin:miter;stroke:rgb(0%,0%,0%);stroke-opacity:1;stroke-miterlimit:4;" d="M 311.500366 264.000423 L 303.499821 280.00048 L 305.499699 296.499731 L 311.500366 264.499618 L 327.999618 271.000513 " transform="matrix(3.779528,0,0,3.779528,0,0)"/>
<path style="fill:none;stroke-width:2;stroke-linecap:butt;stroke-linejoin:miter;stroke:rgb(0%,0%,0%);stroke-opacity:1;stroke-miterlimit:4;" d="M 318.000228 266.499495 L 320.000106 282.000358 L 309.500488 298.499609 L 313.500244 288.50022 L 329.999495 274.500041 L 346.49978 300.499487 L 362.499837 316.499544 L 378.499894 304.000049 L 394.499951 295.999504 L 410.500008 293.500431 L 426.500065 289.499642 L 430.499821 301.499943 L 446.499878 311.999561 L 462.499935 321.999984 L 478.499992 338.000041 L 494.500049 357.999854 L 510.500106 370.000155 " transform="matrix(3.779528,0,0,3.779528,0,0)"/>
<path style="fill:none;stroke-width:2;stroke-linecap:butt;stroke-linejoin:miter;stroke:rgb(0%,0%,0%);stroke-opacity:1;stroke-miterlimit:4;" d="M 345.999552 225.500448 L 329.999495 236.000065 L 355.999976 230.000431 L 348.000464 210.499813 L 352.00022 194.499756 " transform="matrix(3.779528,0,0,3.779528,0,0)"/>
<path style="fill:none;stroke-width:2;stroke-linecap:butt;stroke-linejoin:miter;stroke:rgb(0%,0%,0%);stroke-opacity:1;stroke-miterlimit:4;" d="M 377.000244 178.499699 L 379.000122 194.499756 L 388.500317 196.499634 L 384.499528 206.500057 " transform="matrix(3.779528,0,0,3.779528,0,0)"/>
<path style="fill:none;stroke-width:2;stroke-linecap:butt;stroke-linejoin:miter;stroke:rgb(0%,0%,0%);stroke-opacity:1;stroke-miterlimit:4;" d="M 413.500342 214.000374 L 411.999658 198.000317 L 389.999967 181.500033 L 369.499927 165.499976 L 345.500358 149.499919 " transform="matrix(3.779528,0,0,3.779528,0,0)"/>
<path style="fill:none;stroke-width:2;stroke-linecap:butt;stroke-linejoin:miter;stroke:rgb(0%,0%,0%);stroke-opacity:1;stroke-miterlimit:4;" d="M 399.500163 124.499894 L 365.500171 102.500203 L 367.500049 87.000374 L 351.499992 89.000252 L 320.000106 89.000252 L 304.000049 89.50048 " transform="matrix(3.779528,0,0,3.779528,0,0)"/>
<path style="fill:none;stroke-width:2;stroke-linecap:butt;stroke-linejoin:miter;stroke:rgb(0%,0%,0%);stroke-opacity:1;stroke-miterlimit:4;" d="M 307.000382 91.500358 L 323.000439 101.499748 L 339.499691 111.500171 L 355.499748 113.500049 L 371.499805 109.000065 L 369.499927 96.999764 L 385.499984 107.500415 L 402.000269 117.499805 L 418.49952 125.999544 L 434.999805 107.999609 L 451.50009 98.500448 L 467.500146 91.999552 " transform="matrix(3.779528,0,0,3.779528,0,0)"/>
<path style="fill:none;stroke-width:2;stroke-linecap:butt;stroke-linejoin:miter;stroke:rgb(0%,0%,0%);stroke-opacity:1;stroke-miterlimit:4;" d="M 467.500146 96.499536 L 437.49991 112.499593 " transform="matrix(3.779528,0,0,3.779528,0,0)"/>
<path style="fill:none;stroke-width:2;stroke-linecap:butt;stroke-linejoin:miter;stroke:rgb(0%,0%,0%);stroke-opacity:1;stroke-miterlimit:4;" d="M 416.99987 132.000212 L 400.999813 124.499894 L 384.999756 114.500505 L 368.999699 116.500382 L 352.999642 120.500138 L 337.499813 118.50026 L 321.499756 106.499959 L 305.999927 96.000342 L 284.500464 103.999854 L 261.00009 123.999666 L 245.000033 109.999487 L 228.999976 96.000342 L 212.999919 82.500391 L 196.999862 62.499544 L 180.999805 42.499731 L 164.49952 32.000114 L 148.500496 33.999992 L 132.000212 39.999626 L 116.000155 45.500065 L 99.49987 51.499699 L 83.499813 55.500488 L 66.999528 61.500122 L 50.500277 65.499878 L 34.50022 71.499512 " transform="matrix(3.779528,0,0,3.779528,0,0)"/>
<path style="fill:none;stroke-width:2;stroke-linecap:butt;stroke-linejoin:miter;stroke:rgb(0%,0%,0%);stroke-opacity:1;stroke-miterlimit:4;" d="M 37.49952 78.000407 L 53.499577 85.999919 L 69.499634 96.499536 L 85.999919 104.500081 L 107.999609 118.50026 L 124.499894 114.500505 L 140.499951 102.500203 L 156.500008 94.000464 L 172.500065 94.000464 L 187.999894 99.49987 L 203.499723 107.500415 L 220.000008 117.499805 L 236.000065 135.999967 L 252.000122 134.500317 " transform="matrix(3.779528,0,0,3.779528,0,0)"/>
<path style="fill:none;stroke-width:2;stroke-linecap:butt;stroke-linejoin:miter;stroke:rgb(0%,0%,0%);stroke-opacity:1;stroke-miterlimit:4;" d="M 264.499618 171.000415 L 248.499561 194.499756 L 232.499504 174.499943 L 216.50048 160.999992 L 200.500423 155.000358 L 184.000138 155.000358 L 168.000081 153.00048 L 151.499797 164.49952 L 135.49974 172.500065 L 119.000488 171.999837 L 103.000431 182.00026 " transform="matrix(3.779528,0,0,3.779528,0,0)"/>
<path style="fill:none;stroke-width:2;stroke-linecap:butt;stroke-linejoin:miter;stroke:rgb(0%,0%,0%);stroke-opacity:1;stroke-miterlimit:4;" d="M 126.499772 182.999683 L 142.499829 176.499821 " transform="matrix(3.779528,0,0,3.779528,0,0)"/>
<path style="fill:none;stroke-width:2;stroke-linecap:butt;stroke-linejoin:miter;stroke:rgb(0%,0%,0%);stroke-opacity:1;stroke-miterlimit:4;" d="M 146.999813 182.500488 L 131.499984 186.500244 " transform="matrix(3.779528,0,0,3.779528,0,0)"/>
<path style="fill:none;stroke-width:2;stroke-linecap:butt;stroke-linejoin:miter;stroke:rgb(0%,0%,0%);stroke-opacity:1;stroke-miterlimit:4;" d="M 128.000456 198.000317 L 143.500285 193.999528 " transform="matrix(3.779528,0,0,3.779528,0,0)"/>
<path style="fill:none;stroke-width:2;stroke-linecap:butt;stroke-linejoin:miter;stroke:rgb(0%,0%,0%);stroke-opacity:1;stroke-miterlimit:4;" d="M 131.499984 200.500423 L 147.500041 198.000317 L 139.499495 223.999764 L 145.500163 218.500358 L 161.50022 218.500358 L 177.500277 216.50048 L 185.499788 207.999707 L 201.499845 218.00013 " transform="matrix(3.779528,0,0,3.779528,0,0)"/>
<path style="fill:none;stroke-width:2;stroke-linecap:butt;stroke-linejoin:miter;stroke:rgb(0%,0%,0%);stroke-opacity:1;stroke-miterlimit:4;" d="M 196.000439 191.500456 L 180.000382 189.499544 " transform="matrix(3.779528,0,0,3.779528,0,0)"/>
<path style="fill:none;stroke-width:2;stroke-linecap:butt;stroke-linejoin:miter;stroke:rgb(0%,0%,0%);stroke-opacity:1;stroke-miterlimit:4;" d="M 180.999805 196.000439 L 200.999618 211.500269 " transform="matrix(3.779528,0,0,3.779528,0,0)"/>
<path style="fill:none;stroke-width:2;stroke-linecap:butt;stroke-linejoin:miter;stroke:rgb(0%,0%,0%);stroke-opacity:1;stroke-miterlimit:4;" d="M 196.499634 237.499715 L 180.999805 237.499715 L 164.999748 241.500505 " transform="matrix(3.779528,0,0,3.779528,0,0)"/>
<path style="fill:none;stroke-width:2;stroke-linecap:butt;stroke-linejoin:miter;stroke:rgb(0%,0%,0%);stroke-opacity:1;stroke-miterlimit:4;" d="M 164.49952 245.50026 L 180.499577 247.500138 " transform="matrix(3.779528,0,0,3.779528,0,0)"/>
<path style="fill:none;stroke-width:2;stroke-linecap:butt;stroke-linejoin:miter;stroke:rgb(0%,0%,0%);stroke-opacity:1;stroke-miterlimit:4;" d="M 179.500155 221.499658 L 164.000326 221.999886 " transform="matrix(3.779528,0,0,3.779528,0,0)"/>
<path style="fill:none;stroke-width:2;stroke-linecap:butt;stroke-linejoin:miter;stroke:rgb(0%,0%,0%);stroke-opacity:1;stroke-miterlimit:4;" d="M 147.500041 225.00022 L 153.999902 218.999552 L 146.000391 238.500171 L 159.999536 254 L 170.500187 259.999634 L 186.500244 261.500317 " transform="matrix(3.779528,0,0,3.779528,0,0)"/>
<path style="fill:none;stroke-width:2;stroke-linecap:butt;stroke-linejoin:miter;stroke:rgb(0%,0%,0%);stroke-opacity:1;stroke-miterlimit:4;" d="M 181.500033 257.999756 L 165.499976 251.499894 L 163.500098 237.499715 L 146.999813 241.500505 " transform="matrix(3.779528,0,0,3.779528,0,0)"/>
<path style="fill:none;stroke-width:2;stroke-linecap:butt;stroke-linejoin:miter;stroke:rgb(0%,0%,0%);stroke-opacity:1;stroke-miterlimit:4;" d="M 145.500163 239.499593 L 161.50022 233.499959 L 177.500277 228.999976 L 193.999528 225.00022 L 190.5 232.499504 L 171.000415 243.999577 " transform="matrix(3.779528,0,0,3.779528,0,0)"/>
<path style="fill:none;stroke-width:2;stroke-linecap:butt;stroke-linejoin:miter;stroke:rgb(0%,0%,0%);stroke-opacity:1;stroke-miterlimit:4;" d="M 129.500106 241.999699 L 141.500407 257.999756 L 161.50022 273.999813 L 160.999992 289.99987 L 172.500065 305.499699 L 189.999772 321.999984 " transform="matrix(3.779528,0,0,3.779528,0,0)"/>
<path style="fill:none;stroke-width:2;stroke-linecap:butt;stroke-linejoin:miter;stroke:rgb(0%,0%,0%);stroke-opacity:1;stroke-miterlimit:4;" d="M 136.500195 312.499788 L 139.999723 305.999927 L 134.00009 321.999984 " transform="matrix(3.779528,0,0,3.779528,0,0)"/>
<path style="fill:none;stroke-width:2;stroke-linecap:butt;stroke-linejoin:miter;stroke:rgb(0%,0%,0%);stroke-opacity:1;stroke-miterlimit:4;" d="M 134.500317 352.500448 L 134.500317 368.000277 " transform="matrix(3.779528,0,0,3.779528,0,0)"/>
<path style="fill:none;stroke-width:2;stroke-linecap:butt;stroke-linejoin:miter;stroke:rgb(0%,0%,0%);stroke-opacity:1;stroke-miterlimit:4;" d="M 98.00022 384.999756 L 113.500049 431.500277 " transform="matrix(3.779528,0,0,3.779528,0,0)"/>
<path style="fill:none;stroke-width:2;stroke-linecap:butt;stroke-linejoin:miter;stroke:rgb(0%,0%,0%);stroke-opacity:1;stroke-miterlimit:4;" d="M 116.500382 454.500423 L 100.500326 406.500252 L 84.500269 364.499715 " transform="matrix(3.779528,0,0,3.779528,0,0)"/>
<path style="fill:none;stroke-width:2;stroke-linecap:butt;stroke-linejoin:miter;stroke:rgb(0%,0%,0%);stroke-opacity:1;stroke-miterlimit:4;" d="M 75.999495 368.500505 L 71.99974 399.500163 L 71.99974 415.50022 L 67.499756 431.500277 L 67.499756 447.500334 L 69.499634 465.000041 L 71.99974 481.000098 L 72.499967 497.500382 " transform="matrix(3.779528,0,0,3.779528,0,0)"/>
<path style="fill:none;stroke-width:2;stroke-linecap:butt;stroke-linejoin:miter;stroke:rgb(0%,0%,0%);stroke-opacity:1;stroke-miterlimit:4;" d="M 64.500456 457.999951 L 73.999618 443.499544 L 64.000228 425.499609 L 64.000228 391.499618 L 67.999984 389.49974 L 69.999862 373.000488 L 70.50009 368.999699 " transform="matrix(3.779528,0,0,3.779528,0,0)"/>
<path style="fill:none;stroke-width:2;stroke-linecap:butt;stroke-linejoin:miter;stroke:rgb(0%,0%,0%);stroke-opacity:1;stroke-miterlimit:4;" d="M 62.00035 372.50026 L 60.000472 388.500317 L 67.999984 400.499585 L 67.999984 416.000448 " transform="matrix(3.779528,0,0,3.779528,0,0)"/>
<path style="fill:none;stroke-width:2;stroke-linecap:butt;stroke-linejoin:miter;stroke:rgb(0%,0%,0%);stroke-opacity:1;stroke-miterlimit:4;" d="M 57.999561 409.000358 L 58.499788 424.500187 " transform="matrix(3.779528,0,0,3.779528,0,0)"/>
<path style="fill:none;stroke-width:2;stroke-linecap:butt;stroke-linejoin:miter;stroke:rgb(0%,0%,0%);stroke-opacity:1;stroke-miterlimit:4;" d="M 55.500488 406.500252 L 55.500488 422.500309 L 53.499577 438.500366 L 53.499577 454.500423 L 49.499821 470.000252 L 46.000293 486.000309 L 44.499609 502.000366 " transform="matrix(3.779528,0,0,3.779528,0,0)"/>
<path style="fill:none;stroke-width:2;stroke-linecap:butt;stroke-linejoin:miter;stroke:rgb(0%,0%,0%);stroke-opacity:1;stroke-miterlimit:4;" d="M 78.499601 495.999699 L 76.499723 479.999642 L 73.999618 463.999585 L 55.999683 454.000195 " transform="matrix(3.779528,0,0,3.779528,0,0)"/>
<path style="fill:none;stroke-width:2;stroke-linecap:butt;stroke-linejoin:miter;stroke:rgb(0%,0%,0%);stroke-opacity:1;stroke-miterlimit:4;" d="M 6.499862 456.000073 L 6.499862 440.000016 L 7.999512 423.999959 L 1.999878 418.000326 " transform="matrix(3.779528,0,0,3.779528,0,0)"/>
<path style="fill:none;stroke-width:2;stroke-linecap:butt;stroke-linejoin:miter;stroke:rgb(0%,0%,0%);stroke-opacity:1;stroke-miterlimit:4;" d="M 7.500317 427.999715 L 13.499951 443.999772 L 9.500195 459.999829 " transform="matrix(3.779528,0,0,3.779528,0,0)"/>
<path style="fill:none;stroke-width:2;stroke-linecap:butt;stroke-linejoin:miter;stroke:rgb(0%,0%,0%);stroke-opacity:1;stroke-miterlimit:4;" d="M 20.500041 405.499797 L 4.499984 387.499862 " transform="matrix(3.779528,0,0,3.779528,0,0)"/>
<path style="fill:none;stroke-width:2;stroke-linecap:butt;stroke-linejoin:miter;stroke:rgb(0%,0%,0%);stroke-opacity:1;stroke-miterlimit:4;" d="M 2.500106 385.499984 L 18.500163 399.500163 L 22.499919 363.500293 L 38.499976 339.000496 L 54.500033 318.99965 L 70.50009 296.999959 " transform="matrix(3.779528,0,0,3.779528,0,0)"/>
<path style="fill:none;stroke-width:2;stroke-linecap:butt;stroke-linejoin:miter;stroke:rgb(0%,0%,0%);stroke-opacity:1;stroke-miterlimit:4;" d="M 78.999829 295.500309 L 63.5 317.5 L 46.999715 337.499813 " transform="matrix(3.779528,0,0,3.779528,0,0)"/>
<path style="fill:none;stroke-width:2;stroke-linecap:butt;stroke-linejoin:miter;stroke:rgb(0%,0%,0%);stroke-opacity:1;stroke-miterlimit:4;" d="M 69.499634 341.000374 L 85.000496 341.499569 L 100.99952 350.000342 L 116.500382 357.999854 L 132.000212 373.99991 " transform="matrix(3.779528,0,0,3.779528,0,0)"/>
<path style="fill:none;stroke-width:2;stroke-linecap:butt;stroke-linejoin:miter;stroke:rgb(0%,0%,0%);stroke-opacity:1;stroke-miterlimit:4;" d="M 124.499894 370.000155 L 108.499837 359.999731 L 92.49978 350.000342 " transform="matrix(3.779528,0,0,3.779528,0,0)"/>
<path style="fill:none;stroke-width:2;stroke-linecap:butt;stroke-linejoin:miter;stroke:rgb(0%,0%,0%);stroke-opacity:1;stroke-miterlimit:4;" d="M 89.000252 354.000098 L 94.999886 369.499927 L 98.999642 385.499984 L 103.000431 401.500041 L 109.000065 417.500098 L 114.500505 434.000382 L 120.500138 450.499634 L 125.999544 466.499691 " transform="matrix(3.779528,0,0,3.779528,0,0)"/>
<path style="fill:none;stroke-width:2;stroke-linecap:butt;stroke-linejoin:miter;stroke:rgb(0%,0%,0%);stroke-opacity:1;stroke-miterlimit:4;" d="M 182.999683 392.500073 L 191.000228 380.499772 L 207.000285 375.999788 L 223.000342 359.999731 L 236.999487 361.999609 L 242.499927 377.999666 L 250.000244 393.999723 " transform="matrix(3.779528,0,0,3.779528,0,0)"/>
<path style="fill:none;stroke-width:2;stroke-linecap:butt;stroke-linejoin:miter;stroke:rgb(0%,0%,0%);stroke-opacity:1;stroke-miterlimit:4;" d="M 246.000488 384.000334 L 236.500293 355.999976 L 220.500236 370.000155 L 204.500179 386.000212 L 187.999894 391.999845 " transform="matrix(3.779528,0,0,3.779528,0,0)"/>
<path style="fill:none;stroke-width:2;stroke-linecap:butt;stroke-linejoin:miter;stroke:rgb(0%,0%,0%);stroke-opacity:1;stroke-miterlimit:4;" d="M 180.999805 321.999984 L 166.999626 305.499699 L 155.000358 289.499642 L 150.500374 271.499707 L 130.499528 255.999878 L 122.500016 227.99952 L 118.000033 212.499691 L 109.999487 196.499634 L 112.000399 180.999805 L 105.999731 162.99987 L 105.999731 147.500041 L 110.499715 130.999756 L 90.499902 128.999878 " transform="matrix(3.779528,0,0,3.779528,0,0)"/>
<path style="fill:none;stroke-width:2;stroke-linecap:butt;stroke-linejoin:miter;stroke:rgb(0%,0%,0%);stroke-opacity:1;stroke-miterlimit:4;" d="M 96.000342 125.000122 L 112.000399 125.000122 L 129.500106 114.500505 L 145.500163 103.000431 L 160.999992 97.499992 L 176.499821 101.499748 L 192.499878 107.999609 L 209.000163 118.50026 L 225.00022 136.500195 " transform="matrix(3.779528,0,0,3.779528,0,0)"/>
<path style="fill:none;stroke-width:2;stroke-linecap:butt;stroke-linejoin:miter;stroke:rgb(0%,0%,0%);stroke-opacity:1;stroke-miterlimit:4;" d="M 206.500057 155.000358 L 228.499748 171.499609 L 237.999943 187.499666 L 239.999821 203.499723 L 241.999699 220.000008 L 270.000057 236.000065 L 289.499642 252.000122 L 285.499886 267.499951 L 275.500496 283.500008 L 307.000382 303.499821 L 325.000317 319.499878 L 345.00013 335.499935 L 350.999764 352.00022 L 353.49987 364.499715 L 357.999854 380.499772 L 360.499959 397.000057 L 356.500203 412.499886 L 354.500326 428.499943 L 352.999642 444.5 L 351.499992 460.500057 L 349.500114 476.500114 L 351.499992 492.500171 L 351.499992 509.000456 " transform="matrix(3.779528,0,0,3.779528,0,0)"/>
<path style="fill:none;stroke-width:2;stroke-linecap:butt;stroke-linejoin:miter;stroke:rgb(0%,0%,0%);stroke-opacity:1;stroke-miterlimit:4;" d="M 228.999976 509.999878 L 228.999976 493.999821 " transform="matrix(3.779528,0,0,3.779528,0,0)"/>
<path style="fill:none;stroke-width:2;stroke-linecap:butt;stroke-linejoin:miter;stroke:rgb(0%,0%,0%);stroke-opacity:1;stroke-miterlimit:4;" d="M 230.000431 491.999943 L 225.999642 508 " transform="matrix(3.779528,0,0,3.779528,0,0)"/>
<path style="fill:none;stroke-width:2;stroke-linecap:butt;stroke-linejoin:miter;stroke:rgb(0%,0%,0%);stroke-opacity:1;stroke-miterlimit:4;" d="M 135.999967 506.999544 L 134.500317 491.499715 L 134.999512 475.499658 L 134.999512 459.499601 L 137.000423 443.499544 L 136.500195 427.499487 L 136.500195 411.500464 L 134.999512 395.500407 L 137.000423 379.50035 L 123.000244 377.500472 L 127 371.499805 L 130.999756 355.499748 L 110.999943 355.499748 L 82.500391 353.49987 " transform="matrix(3.779528,0,0,3.779528,0,0)"/>
<path style="fill:none;stroke-width:2;stroke-linecap:butt;stroke-linejoin:miter;stroke:rgb(0%,0%,0%);stroke-opacity:1;stroke-miterlimit:4;" d="M 82.500391 352.999642 L 84.500269 368.500505 L 89.000252 384.499528 L 95.500114 400.499585 L 101.499748 416.499642 L 107.500415 432.499699 L 114.000277 448.499756 L 118.000033 464.499813 L 125.999544 480.49987 L 130.000334 497.000155 " transform="matrix(3.779528,0,0,3.779528,0,0)"/>
<path style="fill:none;stroke-width:2;stroke-linecap:butt;stroke-linejoin:miter;stroke:rgb(0%,0%,0%);stroke-opacity:1;stroke-miterlimit:4;" d="M 130.499528 462.499935 L 130.499528 414.499764 L 130.000334 398.499707 L 118.50026 390.500195 L 116.500382 373.99991 L 102.500203 357.499626 L 82.500391 341.000374 L 69.999862 344.499902 " transform="matrix(3.779528,0,0,3.779528,0,0)"/>
<path style="fill:none;stroke-width:2;stroke-linecap:butt;stroke-linejoin:miter;stroke:rgb(0%,0%,0%);stroke-opacity:1;stroke-miterlimit:4;" d="M 53.999805 378.499894 L 51.999927 395.000179 L 51.499699 411.000236 L 49.499821 427.000293 L 48.000171 442.500122 L 46.000293 457.999951 L 43.500187 474.000008 L 39.000203 490.000065 L 37.000326 506.000122 " transform="matrix(3.779528,0,0,3.779528,0,0)"/>
<path style="fill:none;stroke-width:2;stroke-linecap:butt;stroke-linejoin:miter;stroke:rgb(0%,0%,0%);stroke-opacity:1;stroke-miterlimit:4;" d="M 23.000146 502.000366 L 23.000146 486.499504 L 25.500252 470.50048 L 27.50013 454.500423 L 32.000114 438.999561 L 33.999992 422.999504 L 36.500098 407.00048 L 39.999626 391.000423 L 41.999504 375.000366 " transform="matrix(3.779528,0,0,3.779528,0,0)"/>
<path style="fill:none;stroke-width:2;stroke-linecap:butt;stroke-linejoin:miter;stroke:rgb(0%,0%,0%);stroke-opacity:1;stroke-miterlimit:4;" d="M 37.000326 371.499805 L 35.499642 388.00009 L 32.000114 403.499919 L 30.000236 418.999748 " transform="matrix(3.779528,0,0,3.779528,0,0)"/>
<path style="fill:none;stroke-width:2;stroke-linecap:butt;stroke-linejoin:miter;stroke:rgb(0%,0%,0%);stroke-opacity:1;stroke-miterlimit:4;" d="M 33.999992 373.000488 L 26.00048 364.999943 " transform="matrix(3.779528,0,0,3.779528,0,0)"/>
<path style="fill:none;stroke-width:2;stroke-linecap:butt;stroke-linejoin:miter;stroke:rgb(0%,0%,0%);stroke-opacity:1;stroke-miterlimit:4;" d="M 12.999723 334.500513 L 8.999967 348.499658 L 15.499829 332.499601 " transform="matrix(3.779528,0,0,3.779528,0,0)"/>
<path style="fill:none;stroke-width:2;stroke-linecap:butt;stroke-linejoin:miter;stroke:rgb(0%,0%,0%);stroke-opacity:1;stroke-miterlimit:4;" d="M 2.500106 297.500187 L 4.499984 291.49952 " transform="matrix(3.779528,0,0,3.779528,0,0)"/>
<path style="fill:none;stroke-width:2;stroke-linecap:butt;stroke-linejoin:miter;stroke:rgb(0%,0%,0%);stroke-opacity:1;stroke-miterlimit:4;" d="M 3.499528 271.000513 L 19.499585 270.500285 " transform="matrix(3.779528,0,0,3.779528,0,0)"/>
<path style="fill:none;stroke-width:2;stroke-linecap:butt;stroke-linejoin:miter;stroke:rgb(0%,0%,0%);stroke-opacity:1;stroke-miterlimit:4;" d="M 18.500163 265.500073 L 2.500106 265.500073 " transform="matrix(3.779528,0,0,3.779528,0,0)"/>
<path style="fill:none;stroke-width:2;stroke-linecap:butt;stroke-linejoin:miter;stroke:rgb(0%,0%,0%);stroke-opacity:1;stroke-miterlimit:4;" d="M 1.999878 262.49974 L 17.999935 262.49974 L 33.999992 255.999878 " transform="matrix(3.779528,0,0,3.779528,0,0)"/>
<path style="fill:none;stroke-width:2;stroke-linecap:butt;stroke-linejoin:miter;stroke:rgb(0%,0%,0%);stroke-opacity:1;stroke-miterlimit:4;" d="M 33.999992 246.99991 L 17.499707 245.000033 L 1.49965 245.000033 " transform="matrix(3.779528,0,0,3.779528,0,0)"/>
<path style="fill:none;stroke-width:2;stroke-linecap:butt;stroke-linejoin:miter;stroke:rgb(0%,0%,0%);stroke-opacity:1;stroke-miterlimit:4;" d="M 1.49965 241.500505 L 17.499707 237.499715 L 33.499764 237.499715 " transform="matrix(3.779528,0,0,3.779528,0,0)"/>
<path style="fill:none;stroke-width:2;stroke-linecap:butt;stroke-linejoin:miter;stroke:rgb(0%,0%,0%);stroke-opacity:1;stroke-miterlimit:4;" d="M 21.000269 218.500358 L 36.500098 222.500114 L 52.500155 223.999764 " transform="matrix(3.779528,0,0,3.779528,0,0)"/>
<path style="fill:none;stroke-width:2;stroke-linecap:butt;stroke-linejoin:miter;stroke:rgb(0%,0%,0%);stroke-opacity:1;stroke-miterlimit:4;" d="M 42.499731 203.499723 L 26.499674 200.999618 " transform="matrix(3.779528,0,0,3.779528,0,0)"/>
<path style="fill:none;stroke-width:2;stroke-linecap:butt;stroke-linejoin:miter;stroke:rgb(0%,0%,0%);stroke-opacity:1;stroke-miterlimit:4;" d="M 24.499797 197.50009 L 40.499854 198.000317 L 55.999683 202.000073 " transform="matrix(3.779528,0,0,3.779528,0,0)"/>
<path style="fill:none;stroke-width:2;stroke-linecap:butt;stroke-linejoin:miter;stroke:rgb(0%,0%,0%);stroke-opacity:1;stroke-miterlimit:4;" d="M 78.999829 187.999894 L 80.999707 171.999837 L 84.500269 155.99978 L 89.000252 139.999723 L 93.000008 123.999666 L 98.999642 107.999609 L 103.000431 91.999552 L 98.999642 89.999674 L 107.000187 73.999618 L 94.999886 87.999797 L 78.999829 94.000464 L 62.999772 85.999919 L 46.999715 78.000407 " transform="matrix(3.779528,0,0,3.779528,0,0)"/>
<path style="fill:none;stroke-width:2;stroke-linecap:butt;stroke-linejoin:miter;stroke:rgb(0%,0%,0%);stroke-opacity:1;stroke-miterlimit:4;" d="M 41.500309 75.500301 L 67.499756 91.500358 " transform="matrix(3.779528,0,0,3.779528,0,0)"/>
<path style="fill:none;stroke-width:2;stroke-linecap:butt;stroke-linejoin:miter;stroke:rgb(0%,0%,0%);stroke-opacity:1;stroke-miterlimit:4;" d="M 41.999504 73.500423 L 57.999561 69.499634 L 73.999618 64.000228 L 90.499902 60.000472 L 106.499959 53.999805 L 122.500016 48.000171 L 138.500073 41.999504 L 154.50013 37.999748 L 170.500187 39.999626 L 186.000016 57.999561 L 202.000073 80.000285 L 218.500358 96.000342 L 234.500415 109.999487 L 250.500472 123.999666 " transform="matrix(3.779528,0,0,3.779528,0,0)"/>
<path style="fill:none;stroke-width:2;stroke-linecap:butt;stroke-linejoin:miter;stroke:rgb(0%,0%,0%);stroke-opacity:1;stroke-miterlimit:4;" d="M 250.000244 138.500073 L 234.000187 142.499829 L 225.999642 148.500496 L 223.999764 132.000212 L 205.999829 116.000155 L 169.999959 100.000098 " transform="matrix(3.779528,0,0,3.779528,0,0)"/>
<path style="fill:none;stroke-width:2;stroke-linecap:butt;stroke-linejoin:miter;stroke:rgb(0%,0%,0%);stroke-opacity:1;stroke-miterlimit:4;" d="M 172.500065 96.499536 L 209.000163 112.499593 L 227.000098 128.49965 L 230.999854 152.000024 L 234.999609 162.000448 L 225.00022 183.49991 L 230.999854 199.499967 L 232.999731 214.999797 L 231.500081 230.999854 L 223.499536 246.99991 L 211.500269 263.500195 L 205.499601 269.499829 L 221.499658 251.499894 L 241.500505 225.999642 L 257.000334 234.500415 L 273.000391 242.499927 " transform="matrix(3.779528,0,0,3.779528,0,0)"/>
<path style="fill:none;stroke-width:2;stroke-linecap:butt;stroke-linejoin:miter;stroke:rgb(0%,0%,0%);stroke-opacity:1;stroke-miterlimit:4;" d="M 250.500472 273.000391 L 246.000488 289.499642 L 250.000244 305.499699 L 250.000244 321.999984 L 240.500049 338.000041 L 242.499927 344.499902 L 242.499927 361.000187 L 246.000488 377.000244 " transform="matrix(3.779528,0,0,3.779528,0,0)"/>
<path style="fill:none;stroke-width:2;stroke-linecap:butt;stroke-linejoin:miter;stroke:rgb(0%,0%,0%);stroke-opacity:1;stroke-miterlimit:4;" d="M 216.000252 182.00026 L 200.000195 179.500155 L 183.49991 183.49991 " transform="matrix(3.779528,0,0,3.779528,0,0)"/>
<path style="fill:none;stroke-width:2;stroke-linecap:butt;stroke-linejoin:miter;stroke:rgb(0%,0%,0%);stroke-opacity:1;stroke-miterlimit:4;" d="M 189.00035 182.500488 L 178.999927 182.500488 L 175.000171 198.499512 L 193.000106 214.000374 L 205.000407 236.000065 L 198.99974 251.499894 L 184.999561 255.999878 " transform="matrix(3.779528,0,0,3.779528,0,0)"/>
<path style="fill:none;stroke-width:2;stroke-linecap:butt;stroke-linejoin:miter;stroke:rgb(0%,0%,0%);stroke-opacity:1;stroke-miterlimit:4;" d="M 175.999593 181.500033 L 192.499878 173.499487 L 209.000163 175.500399 " transform="matrix(3.779528,0,0,3.779528,0,0)"/>
<path style="fill:none;stroke-width:2;stroke-linecap:butt;stroke-linejoin:miter;stroke:rgb(0%,0%,0%);stroke-opacity:1;stroke-miterlimit:4;" d="M 193.999528 167.499854 L 191.99965 161.50022 L 175.500399 169.499731 L 191.500456 161.50022 " transform="matrix(3.779528,0,0,3.779528,0,0)"/>
<path style="fill:none;stroke-width:2;stroke-linecap:butt;stroke-linejoin:miter;stroke:rgb(0%,0%,0%);stroke-opacity:1;stroke-miterlimit:4;" d="M 202.000073 159.500342 L 226.49987 175.500399 L 220.500236 185.499788 L 228.499748 202.000073 L 230.499626 218.00013 L 226.49987 234.000187 L 216.50048 250.000244 L 202.500301 266.000301 L 182.00026 277.500374 L 197.50009 269.499829 L 213.500146 250.999666 " transform="matrix(3.779528,0,0,3.779528,0,0)"/>
<path style="fill:none;stroke-width:2;stroke-linecap:butt;stroke-linejoin:miter;stroke:rgb(0%,0%,0%);stroke-opacity:1;stroke-miterlimit:4;" d="M 194.499756 327.500423 L 178.499699 317.5 L 162.000448 298.999837 L 157.999658 277.500374 L 144.000513 265.500073 L 128.000456 251.499894 L 105.999731 264.000423 L 90.499902 259.999634 L 74.499845 248.000366 " transform="matrix(3.779528,0,0,3.779528,0,0)"/>
<path style="fill:none;stroke-width:2;stroke-linecap:butt;stroke-linejoin:miter;stroke:rgb(0%,0%,0%);stroke-opacity:1;stroke-miterlimit:4;" d="M 71.000317 248.000366 L 59.000016 264.000423 L 42.999959 279.500252 L 26.499674 293.500431 L 42.499731 280.00048 L 57.999561 264.000423 L 74.499845 241.999699 L 90.499902 252.000122 L 106.499959 257.999756 L 122.500016 252.50035 L 138.500073 254.500228 L 154.50013 266.000301 L 170.500187 281.50013 L 174.499943 305.499699 L 189.999772 320.999528 L 205.999829 323.499634 " transform="matrix(3.779528,0,0,3.779528,0,0)"/>
<path style="fill:none;stroke-width:2;stroke-linecap:butt;stroke-linejoin:miter;stroke:rgb(0%,0%,0%);stroke-opacity:1;stroke-miterlimit:4;" d="M 94.000464 269.499829 L 87.999797 270.000057 L 72.499967 287.999992 L 50.500277 305.999927 L 30.500464 338.000041 L 34.50022 321.999984 L 46.499487 306.500155 L 56.49991 290.500098 " transform="matrix(3.779528,0,0,3.779528,0,0)"/>
<path style="fill:none;stroke-width:2;stroke-linecap:butt;stroke-linejoin:miter;stroke:rgb(0%,0%,0%);stroke-opacity:1;stroke-miterlimit:4;" d="M 63.5 287.999992 L 51.499699 304.000049 L 41.000081 320.500334 L 30.999658 324.50009 L 47.499943 302.500399 " transform="matrix(3.779528,0,0,3.779528,0,0)"/>
<path style="fill:none;stroke-width:2;stroke-linecap:butt;stroke-linejoin:miter;stroke:rgb(0%,0%,0%);stroke-opacity:1;stroke-miterlimit:4;" d="M 85.000496 250.000244 L 100.99952 265.500073 L 87.000374 280.999902 L 78.999829 296.999959 L 64.99965 313.000016 L 54.500033 329.000073 L 41.000081 345.00013 L 30.999658 361.000187 L 25.000024 377.500472 L 21.000269 393.499495 L 26.999902 418.000326 L 25.000024 433.500155 " transform="matrix(3.779528,0,0,3.779528,0,0)"/>
<path style="fill:none;stroke-width:2;stroke-linecap:butt;stroke-linejoin:miter;stroke:rgb(0%,0%,0%);stroke-opacity:1;stroke-miterlimit:4;" d="M 1.999878 235.499837 L 17.499707 233.499959 L 25.500252 225.999642 " transform="matrix(3.779528,0,0,3.779528,0,0)"/>
<path style="fill:none;stroke-width:2;stroke-linecap:butt;stroke-linejoin:miter;stroke:rgb(0%,0%,0%);stroke-opacity:1;stroke-miterlimit:4;" d="M 16.000057 218.999552 L 32.000114 210.499813 L 48.500399 212.000496 " transform="matrix(3.779528,0,0,3.779528,0,0)"/>
<path style="fill:none;stroke-width:2;stroke-linecap:butt;stroke-linejoin:miter;stroke:rgb(0%,0%,0%);stroke-opacity:1;stroke-miterlimit:4;" d="M 26.999902 209.500391 L 17.000513 225.500448 L 30.500464 232.000309 L 32.500342 248.000366 L 22.499919 264.000423 L 20.500041 254 " transform="matrix(3.779528,0,0,3.779528,0,0)"/>
<path style="fill:none;stroke-width:2;stroke-linecap:butt;stroke-linejoin:miter;stroke:rgb(0%,0%,0%);stroke-opacity:1;stroke-miterlimit:4;" d="M 33.999992 162.499642 L 17.999935 153.999902 " transform="matrix(3.779528,0,0,3.779528,0,0)"/>
<path style="fill:none;stroke-width:2;stroke-linecap:butt;stroke-linejoin:miter;stroke:rgb(0%,0%,0%);stroke-opacity:1;stroke-miterlimit:4;" d="M 14.999601 150.000146 L 32.999536 149.499919 L 37.49952 155.499552 L 51.999927 171.499609 " transform="matrix(3.779528,0,0,3.779528,0,0)"/>
<path style="fill:none;stroke-width:2;stroke-linecap:butt;stroke-linejoin:miter;stroke:rgb(0%,0%,0%);stroke-opacity:1;stroke-miterlimit:4;" d="M 49.499821 178.000505 L 33.999992 168.000081 L 18.500163 162.000448 L 2.500106 159.500342 " transform="matrix(3.779528,0,0,3.779528,0,0)"/>
<path style="fill:none;stroke-width:2;stroke-linecap:butt;stroke-linejoin:miter;stroke:rgb(0%,0%,0%);stroke-opacity:1;stroke-miterlimit:4;" d="M 1.49965 153.499674 L 17.499707 149.499919 L 33.499764 149.499919 L 49.499821 159.500342 " transform="matrix(3.779528,0,0,3.779528,0,0)"/>
<path style="fill:none;stroke-width:2;stroke-linecap:butt;stroke-linejoin:miter;stroke:rgb(0%,0%,0%);stroke-opacity:1;stroke-miterlimit:4;" d="M 65.499878 171.999837 L 50.000049 152.500252 L 33.999992 144.499707 L 1.999878 139.499495 " transform="matrix(3.779528,0,0,3.779528,0,0)"/>
<path style="fill:none;stroke-width:2;stroke-linecap:butt;stroke-linejoin:miter;stroke:rgb(0%,0%,0%);stroke-opacity:1;stroke-miterlimit:4;" d="M 5.000212 114.500505 L 32.500342 130.499528 L 54.500033 157.999658 L 42.499731 162.000448 L 57.999561 178.499699 L 69.999862 182.500488 L 71.99974 198.000317 L 71.99974 213.500146 L 69.499634 228.999976 L 77.500179 244.499805 L 89.50048 259.999634 L 77.500179 276.499919 L 73.500423 293.000203 L 61.500122 309.500488 L 48.999593 325.99974 L 35.000448 342.500024 L 25.000024 359.000309 L 12.999723 375.000366 L 16.500285 386.999634 L 24.499797 395.000179 L 19.999813 411.000236 L 18.500163 426.500065 L 17.000513 443.00035 L 23.000146 450.999862 L 21.500496 466.999919 L 19.999813 483.500203 L 18.500163 499.000033 " transform="matrix(3.779528,0,0,3.779528,0,0)"/>
<path style="fill:none;stroke-width:2;stroke-linecap:butt;stroke-linejoin:miter;stroke:rgb(0%,0%,0%);stroke-opacity:1;stroke-miterlimit:4;" d="M 48.999593 264.499618 L 32.500342 280.999902 L 22.499919 289.000448 L 41.000081 273.499585 L 57.000138 257.499528 L 62.999772 241.500505 L 62.999772 225.500448 L 64.99965 209.500391 L 60.999894 193.000106 L 48.999593 176.499821 L 16.500285 160.499764 " transform="matrix(3.779528,0,0,3.779528,0,0)"/>
<path style="fill:none;stroke-width:2;stroke-linecap:butt;stroke-linejoin:miter;stroke:rgb(0%,0%,0%);stroke-opacity:1;stroke-miterlimit:4;" d="M 34.50022 129.500106 L 17.999935 119.99991 L 1.999878 114.000277 " transform="matrix(3.779528,0,0,3.779528,0,0)"/>
<path style="fill:none;stroke-width:2;stroke-linecap:butt;stroke-linejoin:miter;stroke:rgb(0%,0%,0%);stroke-opacity:1;stroke-miterlimit:4;" d="M 3.499528 108.499837 L 19.499585 114.500505 L 35.499642 125.000122 " transform="matrix(3.779528,0,0,3.779528,0,0)"/>
<path style="fill:none;stroke-width:2;stroke-linecap:butt;stroke-linejoin:miter;stroke:rgb(0%,0%,0%);stroke-opacity:1;stroke-miterlimit:4;" d="M 17.999935 96.000342 L 1.999878 84.000041 " transform="matrix(3.779528,0,0,3.779528,0,0)"/>
<path style="fill:none;stroke-width:2;stroke-linecap:butt;stroke-linejoin:miter;stroke:rgb(0%,0%,0%);stroke-opacity:1;stroke-miterlimit:4;" d="M 1.49965 78.999829 L 17.499707 86.500146 L 33.499764 109.000065 " transform="matrix(3.779528,0,0,3.779528,0,0)"/>
<path style="fill:none;stroke-width:2;stroke-linecap:butt;stroke-linejoin:miter;stroke:rgb(0%,0%,0%);stroke-opacity:1;stroke-miterlimit:4;" d="M 27.50013 101.999976 L 16.000057 85.999919 " transform="matrix(3.779528,0,0,3.779528,0,0)"/>
<path style="fill:none;stroke-width:2;stroke-linecap:butt;stroke-linejoin:miter;stroke:rgb(0%,0%,0%);stroke-opacity:1;stroke-miterlimit:4;" d="M 12.999723 80.999707 L 18.500163 96.999764 L 19.000391 114.999699 L 36.500098 114.999699 L 42.499731 134.500317 L 48.000171 138.500073 " transform="matrix(3.779528,0,0,3.779528,0,0)"/>
<path style="fill:none;stroke-width:2;stroke-linecap:butt;stroke-linejoin:miter;stroke:rgb(0%,0%,0%);stroke-opacity:1;stroke-miterlimit:4;" d="M 146.000391 103.000431 L 152.000024 107.500415 " transform="matrix(3.779528,0,0,3.779528,0,0)"/>
<path style="fill:none;stroke-width:2;stroke-linecap:butt;stroke-linejoin:miter;stroke:rgb(0%,0%,0%);stroke-opacity:1;stroke-miterlimit:4;" d="M 152.500252 109.500293 L 159.999536 125.50035 L 162.000448 141.500407 L 155.99978 157.000236 L 125.999544 182.999683 L 132.500439 196.499634 L 122.500016 212.499691 L 123.999666 218.500358 L 137.999845 204.500179 L 153.999902 200.500423 " transform="matrix(3.779528,0,0,3.779528,0,0)"/>
<path style="fill:none;stroke-width:2;stroke-linecap:butt;stroke-linejoin:miter;stroke:rgb(0%,0%,0%);stroke-opacity:1;stroke-miterlimit:4;" d="M 166.000203 113.500049 L 182.00026 115.499927 " transform="matrix(3.779528,0,0,3.779528,0,0)"/>
<path style="fill:none;stroke-width:2;stroke-linecap:butt;stroke-linejoin:miter;stroke:rgb(0%,0%,0%);stroke-opacity:1;stroke-miterlimit:4;" d="M 168.500309 112.499593 L 164.49952 128.49965 L 166.500431 144.499707 L 156.500008 162.499642 " transform="matrix(3.779528,0,0,3.779528,0,0)"/>
<path style="fill:none;stroke-width:2;stroke-linecap:butt;stroke-linejoin:miter;stroke:rgb(0%,0%,0%);stroke-opacity:1;stroke-miterlimit:4;" d="M 150.999569 94.499658 L 127 110.499715 L 123.000244 119.99991 L 110.999943 135.49974 L 109.000065 151.499797 L 110.999943 168.999504 L 111.500171 184.999561 L 114.000277 199.499967 L 130.000334 191.500456 L 146.000391 185.499788 L 173.999715 193.500334 L 189.999772 203.499723 L 205.999829 212.999919 " transform="matrix(3.779528,0,0,3.779528,0,0)"/>
<path style="fill:none;stroke-width:2;stroke-linecap:butt;stroke-linejoin:miter;stroke:rgb(0%,0%,0%);stroke-opacity:1;stroke-miterlimit:4;" d="M 275.000269 80.500513 L 264.999845 96.499536 L 266.999723 78.000407 L 282.99978 75.999495 L 300.499487 84.000041 L 316.499544 83.499813 L 332.499601 81.499935 L 348.499658 82.000163 L 381 82.000163 L 397.000057 78.000407 L 413.000114 69.999862 L 429.000171 65.499878 L 444.5 59.500244 " transform="matrix(3.779528,0,0,3.779528,0,0)"/>
<path style="fill:none;stroke-width:2;stroke-linecap:butt;stroke-linejoin:miter;stroke:rgb(0%,0%,0%);stroke-opacity:1;stroke-miterlimit:4;" d="M 434.000382 68.500212 L 387.499862 84.000041 " transform="matrix(3.779528,0,0,3.779528,0,0)"/>
<path style="fill:none;stroke-width:2;stroke-linecap:butt;stroke-linejoin:miter;stroke:rgb(0%,0%,0%);stroke-opacity:1;stroke-miterlimit:4;" d="M 363.500293 146.499585 L 357.499626 130.499528 L 331.500179 108.499837 L 307.499577 92.49978 " transform="matrix(3.779528,0,0,3.779528,0,0)"/>
<path style="fill:none;stroke-width:2;stroke-linecap:butt;stroke-linejoin:miter;stroke:rgb(0%,0%,0%);stroke-opacity:1;stroke-miterlimit:4;" d="M 416.99987 193.500334 L 413.000114 182.00026 L 416.99987 165.499976 L 408.50013 161.50022 L 406.500252 157.500464 L 418.000326 149.499919 L 423.999959 135.49974 L 429.999593 119.499683 L 425.999837 115.499927 L 443.999772 99.49987 L 474.000008 79.500057 L 463.999585 62.999772 " transform="matrix(3.779528,0,0,3.779528,0,0)"/>
<path style="fill:none;stroke-width:2;stroke-linecap:butt;stroke-linejoin:miter;stroke:rgb(0%,0%,0%);stroke-opacity:1;stroke-miterlimit:4;" d="M 461.999707 61.500122 L 443.999772 77.500179 L 451.50009 67.499756 L 467.500146 63.5 L 481.500326 61.500122 L 497.999577 67.999984 " transform="matrix(3.779528,0,0,3.779528,0,0)"/>
<path style="fill:none;stroke-width:2;stroke-linecap:butt;stroke-linejoin:miter;stroke:rgb(0%,0%,0%);stroke-opacity:1;stroke-miterlimit:4;" d="M 499.000033 66.999528 L 502.999788 44.499609 L 499.000033 40.499854 L 482.999976 46.999715 L 466.499691 53.499577 L 450.499634 63.5 L 434.499577 82.000163 L 440.000016 73.999618 L 457.499723 57.999561 L 497.000155 41.999504 L 498.499805 48.000171 L 482.499748 52.500155 " transform="matrix(3.779528,0,0,3.779528,0,0)"/>
<path style="fill:none;stroke-width:2;stroke-linecap:butt;stroke-linejoin:miter;stroke:rgb(0%,0%,0%);stroke-opacity:1;stroke-miterlimit:4;" d="M 476.500114 57.500366 L 492.500171 60.000472 L 509.000456 67.999984 " transform="matrix(3.779528,0,0,3.779528,0,0)"/>
<path style="fill:none;stroke-width:2;stroke-linecap:butt;stroke-linejoin:miter;stroke:rgb(0%,0%,0%);stroke-opacity:1;stroke-miterlimit:4;" d="M 504.000244 94.000464 L 488.000187 89.999674 L 477.999764 79.500057 L 474.000008 63.5 " transform="matrix(3.779528,0,0,3.779528,0,0)"/>
<path style="fill:none;stroke-width:2;stroke-linecap:butt;stroke-linejoin:miter;stroke:rgb(0%,0%,0%);stroke-opacity:1;stroke-miterlimit:4;" d="M 462.499935 128.49965 L 432.499699 144.499707 L 430.499821 156.500008 L 446.499878 140.499951 L 462.499935 134.500317 L 478.499992 132.500439 L 493.999821 134.00009 L 509.999878 139.999723 " transform="matrix(3.779528,0,0,3.779528,0,0)"/>
<path style="fill:none;stroke-width:2;stroke-linecap:butt;stroke-linejoin:miter;stroke:rgb(0%,0%,0%);stroke-opacity:1;stroke-miterlimit:4;" d="M 466.000496 132.999634 L 436.00026 148.999691 L 425.499609 164.999748 L 439.499788 177.000049 L 421.499854 184.999561 L 425.499609 200.999618 L 429.000171 216.50048 L 438.999561 234.500415 L 443.499544 250.000244 L 451.50009 266.000301 L 463.500391 286.000114 L 465.000041 302.000171 L 470.999674 307.499577 L 479.00022 309.500488 L 495.000277 335.499935 " transform="matrix(3.779528,0,0,3.779528,0,0)"/>
<path style="fill:none;stroke-width:2;stroke-linecap:butt;stroke-linejoin:miter;stroke:rgb(0%,0%,0%);stroke-opacity:1;stroke-miterlimit:4;" d="M 273.999813 164.999748 L 258.499984 189.499544 L 230.499626 191.99965 L 226.49987 175.999593 L 209.999585 162.000448 L 193.999528 157.999658 L 178.000505 157.999658 L 156.500008 155.99978 L 140.499951 166.500431 L 124.499894 168.500309 L 108.499837 172.500065 L 86.500146 178.499699 L 85.000496 178.499699 L 89.000252 162.499642 L 92.49978 146.499585 L 96.000342 130.499528 L 107.999609 118.50026 L 103.999854 102.500203 L 96.000342 96.499536 L 64.000228 94.000464 L 35.499642 77.500179 L 49.499821 71.000317 L 89.50048 53.000382 L 133.499862 37.000326 " transform="matrix(3.779528,0,0,3.779528,0,0)"/>
<path style="fill:none;stroke-width:2;stroke-linecap:butt;stroke-linejoin:miter;stroke:rgb(0%,0%,0%);stroke-opacity:1;stroke-miterlimit:4;" d="M 137.000423 41.999504 L 93.500236 57.999561 L 98.999642 71.499512 L 93.500236 87.499569 L 97.499992 89.50048 L 105.999731 67.499756 " transform="matrix(3.779528,0,0,3.779528,0,0)"/>
<path style="fill:none;stroke-width:2;stroke-linecap:butt;stroke-linejoin:miter;stroke:rgb(0%,0%,0%);stroke-opacity:1;stroke-miterlimit:4;" d="M 159.000114 35.499642 L 178.999927 51.499699 L 193.500334 67.499756 L 205.499601 83.499813 L 221.999886 98.999642 L 241.999699 115.499927 L 254 131.499984 " transform="matrix(3.779528,0,0,3.779528,0,0)"/>
</g>
</svg>
