<svg xmlns="http://www.w3.org/2000/svg" width="512mm" height="512mm" viewBox="0 0 512 512" version="1.1"><polyline points="17.5,50.5,17.5,66.5,17.5,82.5,23.5,100.5,25.5,117.0,25.5,133.0,25.5,149.0,25.5,165.0,27.0,181.0,27.0,196.5,28.5,212.5,29.0,228.5,29.0,244.5,31.0,260.5,31.5,276.0,33.5,291.5,33.5,307.0,35.5,323.0,37.5,339.0,41.5,356.5,48.0,372.5" stroke="black" stroke-width="2" fill="none" />
<polyline points="45.5,368.0,61.5,382.0,77.5,384.5,93.5,382.5,110.0,381.0,126.0,381.0,142.0,381.5,158.0,381.5,174.0,381.0,190.0,379.0,206.0,380.5,222.0,381.0,237.5,383.0,253.5,383.0,270.0,382.5,286.0,382.0,301.5,382.0,317.0,382.0,333.0,380.0,349.5,382.0,365.5,380.0,381.5,378.0,397.5,366.5" stroke="black" stroke-width="2" fill="none" />
<polyline points="420.5,371.5,404.5,387.5,381.0,408.0,365.0,410.5,349.0,412.5,333.5,414.5,317.5,414.5,301.5,416.5,285.0,424.5,269.0,424.5,263.0,428.5" stroke="black" stroke-width="2" fill="none" />
<polyline points="282.5,435.0,276.5,453.0,286.5,457.0,302.5,457.5,313.0,457.0,329.0,451.0,341.0,435.0" stroke="black" stroke-width="2" fill="none" />
<polyline points="334.0,435.0,328.0,451.0,305.5,477.0,281.5,487.0,269.5,491.0,285.5,477.0,291.0,466.5,307.0,464.5,323.5,460.0,339.5,456.0,349.5,468.0,357.0,462.0,365.0,469.5,375.0,461.5,391.0,451.5,394.5,449.5" stroke="black" stroke-width="2" fill="none" />
<polyline points="389.5,457.0,379.5,473.0" stroke="black" stroke-width="2" fill="none" />
<polyline points="356.5,451.5,320.5,469.5,321.5,475.5,326.0,467.5,342.0,459.5,358.0,452.0,374.0,444.0,394.5,419.5,410.5,419.5" stroke="black" stroke-width="2" fill="none" />
<polyline points="414.5,428.5,386.5,434.5,386.5,434.5,402.5,430.5,418.5,428.5" stroke="black" stroke-width="2" fill="none" />
<polyline points="419.0,448.0,387.0,453.5,359.5,463.5,368.0,467.5,372.5,467.5,386.5,470.0,403.0,458.0,419.0,450.0,434.5,444.0" stroke="black" stroke-width="2" fill="none" />
<polyline points="425.5,449.5,409.5,465.5,434.0,459.5,450.0,446.0" stroke="black" stroke-width="2" fill="none" />
<polyline points="454.5,434.0,438.0,447.5,416.0,463.5,418.5,461.0,437.0,457.5,455.0,441.5,462.5,425.5,454.5,419.5,438.5,413.5,422.5,411.5,407.0,405.5,391.0,406.0,375.0,414.0,359.0,416.5,342.5,418.5,326.5,421.0,310.0,423.0,294.0,423.0" stroke="black" stroke-width="2" fill="none" />
<polyline points="268.0,458.0,252.0,462.0,232.0,458.0,216.0,463.5,200.0,470.0,228.0,464.0,246.5,456.5,231.0,465.0,215.0,471.0,199.0,477.0" stroke="black" stroke-width="2" fill="none" />
<polyline points="216.0,491.5,202.5,507.5,194.5,509.5,210.5,496.0,226.5,494.0,242.5,490.0,258.5,484.0,274.5,476.0" stroke="black" stroke-width="2" fill="none" />
<polyline points="284.5,471.0,274.5,487.5,272.0,495.5,288.0,479.5,304.0,478.0,320.0,466.0,333.5,482.0" stroke="black" stroke-width="2" fill="none" />
<polyline points="216.5,390.5,200.0,392.5,184.0,390.5" stroke="black" stroke-width="2" fill="none" />
<polyline points="184.0,392.0,201.5,400.0,226.0,390.5,242.0,390.5,258.5,388.0,274.5,387.5,291.0,388.0,307.0,386.0,323.0,386.0,339.0,386.0,355.0,386.0,371.0,385.5" stroke="black" stroke-width="2" fill="none" />
<polyline points="207.0,356.5,191.5,356.5" stroke="black" stroke-width="2" fill="none" />
<polyline points="166.0,351.0,182.0,351.0,198.0,351.5,213.5,351.5,229.5,352.0,245.0,352.0,261.0,352.0,277.5,352.5,293.5,352.5,309.5,354.5,325.5,355.0,341.5,354.5,357.5,355.0,373.5,355.0,390.0,355.0" stroke="black" stroke-width="2" fill="none" />
<polyline points="252.0,213.0,236.0,233.0,220.5,221.5,204.5,210.0,188.5,194.0" stroke="black" stroke-width="2" fill="none" />
<polyline points="181.5,182.0,197.5,196.0,213.5,212.0,230.0,223.5,246.5,213.5" stroke="black" stroke-width="2" fill="none" />
<polyline points="245.5,215.5,253.5,199.5,259.5,183.5,251.5,167.0,249.5,163.5,233.5,166.0,218.0,164.0,202.0,154.5,186.0,172.0" stroke="black" stroke-width="2" fill="none" />
<polyline points="181.0,172.5,197.0,148.5,212.5,151.0,228.5,165.0,244.0,155.5,259.5,165.5" stroke="black" stroke-width="2" fill="none" />
<polyline points="250.0,157.5,262.0,173.5,264.0,190.0,256.0,206.0,248.0,221.5" stroke="black" stroke-width="2" fill="none" />
<polyline points="220.0,217.5,202.0,201.5,188.0,185.5,188.0,169.5,200.0,153.0" stroke="black" stroke-width="2" fill="none" />
<polyline points="197.0,148.0,183.5,164.0,179.0,179.5,187.5,195.5,203.5,211.5,226.0,227.5" stroke="black" stroke-width="2" fill="none" />
<polyline points="218.0,165.5,208.0,149.5" stroke="black" stroke-width="2" fill="none" />
<polyline points="352.5,93.5,336.5,89.5,320.5,87.5,304.5,83.0,288.5,79.0,272.5,75.0,256.5,73.5,240.5,69.5,224.0,65.0,208.0,61.0,192.0,57.5,176.0,53.5,160.0,51.5,144.0,47.0,128.0,43.5,112.0,39.5,96.5,36.0,80.5,31.5,65.0,29.5,49.5,26.0,34.0,22.0,18.0,22.0" stroke="black" stroke-width="2" fill="none" />
<polyline points="23.0,24.5,39.0,28.0,55.0,32.0,71.0,35.5,86.5,39.5,102.0,43.5,118.0,45.5,133.5,49.5,149.5,53.5,165.5,58.0,181.5,62.0,197.5,65.5,213.5,67.5,229.5,71.5,245.5,75.5,261.0,79.5,277.5,83.5,294.0,85.0,310.0,89.5,326.0,93.5,342.0,98.0,358.0,100.0" stroke="black" stroke-width="2" fill="none" />
<polyline points="367.5,86.5,351.5,78.5,335.5,74.5,319.5,71.0,303.5,69.0,287.0,65.0,271.0,61.0,255.0,57.0,239.0,55.0,223.0,51.0,206.5,47.5,190.5,43.0,174.5,39.0,158.5,35.0,142.5,31.0,126.5,26.5,110.5,22.5,95.0,18.5,79.0,14.0,65.0,10.0,57.0,6.0,41.0,8.0,24.5,6.0,9.0,23.5" stroke="black" stroke-width="2" fill="none" />
<polyline points="1.5,21.5,7.5,13.5,16.0,23.5,20.0,31.5,22.0,47.5,22.0,63.5,22.0,79.5,24.0,95.5,20.0,111.5,19.5,128.0,15.5,144.0,15.5,160.0,13.5,176.0,6.0,191.5,4.5,207.5,4.5,223.5" stroke="black" stroke-width="2" fill="none" />
<polyline points="6.0,243.5,8.0,228.0,10.0,212.0,12.0,196.5,6.0,190.5" stroke="black" stroke-width="2" fill="none" />
<polyline points="26.0,254.5,27.5,270.0,29.5,285.5,29.5,301.5,30.0,318.0,32.0,334.0,34.0,350.0,36.0,366.0,44.5,382.0" stroke="black" stroke-width="2" fill="none" />
<polyline points="53.0,387.5,37.0,364.0" stroke="black" stroke-width="2" fill="none" />
<polyline points="29.0,372.0,45.0,392.0" stroke="black" stroke-width="2" fill="none" />
<polyline points="25.5,404.0,41.5,402.0,57.5,400.0,73.0,398.0,88.5,395.5,104.0,396.0,119.5,394.0,135.5,392.5,151.0,393.0,166.5,391.0,182.5,389.0,198.5,388.5,215.0,386.5,219.5,402.5,237.5,418.5,245.5,428.5,262.0,436.5,278.0,440.5,294.0,438.5,308.0,429.0,326.0,429.0,342.0,428.5,358.5,426.0,382.5,442.0,399.0,435.5,415.0,433.5,431.5,429.5,455.5,427.5,447.5,441.5,435.5,451.5,426.0,470.0,449.5,457.5,465.0,442.0,476.5,430.0,460.5,446.5,444.0,462.5,454.0,461.0,469.0,445.0,469.0,445.0,453.0,461.0" stroke="black" stroke-width="2" fill="none" />
<polyline points="300.0,434.0,290.0,418.5,274.0,418.5,257.5,421.0,241.5,420.5,225.5,418.5,209.5,410.0,193.5,401.0,177.5,393.0" stroke="black" stroke-width="2" fill="none" />
<polyline points="179.0,388.5,195.0,404.5,229.0,420.0,261.0,436.0,270.5,450.0,272.5,445.5,288.5,447.5,304.5,442.0,312.5,434.0,317.0,446.0,331.0,432.0,349.0,444.0,365.0,433.5,364.5,437.5,382.5,448.0,398.0,446.0,414.5,444.0,430.5,440.0,446.5,436.0" stroke="black" stroke-width="2" fill="none" />
<polyline points="217.5,450.5,201.0,442.0,185.0,435.5,169.0,427.5" stroke="black" stroke-width="2" fill="none" />
<polyline points="168.0,424.0,188.0,440.0,196.0,446.0,200.0,450.5,218.0,440.5,234.0,438.5" stroke="black" stroke-width="2" fill="none" />
<polyline points="167.5,424.0,183.5,428.0,200.0,434.0,216.0,430.0,226.0,448.5,234.0,450.5,208.0,466.5,168.5,476.0" stroke="black" stroke-width="2" fill="none" />
<polyline points="176.0,496.0,196.5,474.0,220.5,452.0,192.5,462.0,176.5,470.0,160.5,474.5,144.5,474.5" stroke="black" stroke-width="2" fill="none" />
<polyline points="161.0,452.5,145.5,444.0,129.5,436.0" stroke="black" stroke-width="2" fill="none" />
<polyline points="141.5,436.5,175.5,452.5,177.5,468.5" stroke="black" stroke-width="2" fill="none" />
<polyline points="184.5,441.5,169.0,447.5,153.0,439.5,145.0,443.5,129.0,436.0,113.5,432.0" stroke="black" stroke-width="2" fill="none" />
<polyline points="91.5,440.0,107.5,442.5,119.5,445.0,135.5,451.5,137.0,456.0,153.0,454.5" stroke="black" stroke-width="2" fill="none" />
<polyline points="166.5,466.0,156.5,470.5,140.5,470.5,116.0,462.5,119.5,454.5,97.5,452.5,76.0,436.0,74.0,432.5" stroke="black" stroke-width="2" fill="none" />
<polyline points="76.5,435.0,92.0,437.5,108.0,437.5,124.0,440.0,140.5,434.0,156.5,432.5,172.5,437.0,194.0,435.0" stroke="black" stroke-width="2" fill="none" />
<polyline points="206.0,452.5,190.5,456.0,174.5,450.0,162.5,454.5,159.0,430.5" stroke="black" stroke-width="2" fill="none" />
<polyline points="173.0,402.5,205.0,418.5,233.0,434.0,259.0,447.5" stroke="black" stroke-width="2" fill="none" />
<polyline points="160.0,355.5,176.0,361.5,192.0,361.5,208.0,361.5,224.0,362.0,240.0,362.0,255.5,362.0,271.5,361.5,287.5,361.5,303.0,360.0,319.0,360.0,335.0,360.0,351.5,359.5,367.5,360.0,383.5,360.0" stroke="black" stroke-width="2" fill="none" />
<polyline points="387.5,387.5,397.5,377.5,394.0,389.5,397.5,377.5,407.5,367.0,419.0,353.5,413.0,369.5,405.5,373.5,395.5,387.5,387.5,388.0,375.0,394.5,373.5,396.5,385.5,380.5,399.5,364.5,410.0,350.5,406.0,334.5,404.0,318.5,402.0,302.5,398.0,286.0,396.0,270.0,394.0,253.5,390.0,237.5,388.0,221.5,386.0,205.5,383.5,189.5,382.0,173.0,378.0,157.0,376.0,141.0,373.5,124.5,369.5,108.5,368.0,93.0,362.0,89.0,346.0,81.0,330.0,77.0,313.5,75.0,297.5,71.0,281.5,67.5,265.5,63.5,250.0,60.0,234.0,58.5,218.0,54.5,202.0,50.5,186.0,46.5,169.5,43.0,153.5,39.0,137.0,35.0,121.0,30.5,105.0,26.5,89.5,22.0,73.5,17.5,57.5,13.5,41.5,9.5" stroke="black" stroke-width="2" fill="none" />
<polyline points="2.5,10.5,15.0,2.5,11.0,19.0,7.0,35.5,11.0,43.5,7.0,59.5" stroke="black" stroke-width="2" fill="none" />
<polyline points="9.0,47.5,15.0,49.5,12.5,66.0,12.5,82.0,14.5,98.0,14.5,114.0,10.0,130.0,20.0,132.5,22.0,148.5,22.0,165.0,22.0,181.0,24.0,197.0,24.5,213.0,26.5,228.5,27.0,244.5,23.0,260.0,25.0,276.0,21.0,291.5,20.5,307.5,20.5,323.5,22.5,339.5,24.5,355.5,29.0,371.5,39.0,387.5" stroke="black" stroke-width="2" fill="none" />
<polyline points="39.0,417.5,55.0,427.5,71.0,437.5,86.5,449.5,102.0,453.0,110.0,449.0,126.0,457.0,130.0,463.5,146.0,464.0,162.0,462.5" stroke="black" stroke-width="2" fill="none" />
<polyline points="127.0,471.5,111.5,466.0,96.0,456.0" stroke="black" stroke-width="2" fill="none" />
<polyline points="75.5,373.0,59.5,369.0,43.5,353.0" stroke="black" stroke-width="2" fill="none" />
<polyline points="40.0,347.5,56.0,349.5,72.0,349.0,88.0,349.0,104.0,349.0,120.0,347.0,136.0,347.0,152.0,347.0,167.5,347.5,183.5,347.5,199.0,345.5,215.5,346.0,232.0,347.5,248.0,347.0,264.5,347.0,280.5,347.0,296.5,347.0,313.0,347.5,329.0,347.5,344.5,349.0,360.5,349.0,376.5,349.5,392.5,349.0" stroke="black" stroke-width="2" fill="none" />
<polyline points="289.5,459.5,273.5,469.5,257.5,471.5,241.5,475.0,225.5,479.5,209.5,480.0,194.0,486.0,178.0,488.5,162.0,492.0,146.0,496.0,130.0,498.0,113.5,492.0,98.0,480.0,81.5,470.0,65.5,458.5,49.5,446.5,33.5,435.0,18.0,421.0,2.0,410.5" stroke="black" stroke-width="2" fill="none" />
<polyline points="3.0,416.5,19.0,428.5,34.5,442.5,50.5,454.5,66.5,466.5,82.5,478.5,98.5,490.0,114.0,500.0" stroke="black" stroke-width="2" fill="none" />
<polyline points="103.0,502.5,87.0,490.5,71.0,478.5,55.0,466.0,39.0,451.5,23.0,441.5,7.0,426.0" stroke="black" stroke-width="2" fill="none" />
<polyline points="4.5,427.5,12.0,443.5,34.0,459.5,54.0,475.0,76.0,491.0,96.5,506.5" stroke="black" stroke-width="2" fill="none" />
<polyline points="99.0,506.0,83.0,493.5,67.0,482.0,51.0,468.0,35.0,456.5,19.0,446.5,3.0,432.5" stroke="black" stroke-width="2" fill="none" />
<polyline points="10.5,432.5,30.5,448.5,52.5,464.5,70.5,480.5,92.5,496.5" stroke="black" stroke-width="2" fill="none" />
<polyline points="112.5,502.0,90.5,486.0,69.0,470.5,49.0,454.5,29.5,438.5,9.5,422.5" stroke="black" stroke-width="2" fill="none" />
<polyline points="8.5,416.5,29.0,432.5,51.0,448.5,71.0,464.0,93.0,480.0,117.0,495.5,137.0,505.5,153.0,505.0,169.5,499.0,179.5,501.0,195.5,489.5,197.5,497.5" stroke="black" stroke-width="2" fill="none" />
<polyline points="258.5,441.0,242.5,435.0,226.5,425.0,210.5,417.0,194.5,410.5,178.0,402.5,162.0,398.5,145.5,400.5,129.5,403.0,113.5,405.0,97.5,407.0,81.5,407.5,65.5,410.0,49.0,412.5,33.0,418.5,17.0,408.5,0.5,402.5" stroke="black" stroke-width="2" fill="none" />
<polyline points="3.5,402.5,23.5,404.5,43.5,424.5,69.5,440.5,93.5,456.5,123.5,472.0,130.0,468.0,134.0,480.0,150.5,480.0,166.5,478.0,183.0,471.5,199.0,463.5,209.0,455.5,226.5,445.5,234.0,441.0,240.0,447.0,256.0,445.0,256.0,449.5,258.0,456.0" stroke="black" stroke-width="2" fill="none" />
<polyline points="60.5,373.0,51.0,357.0" stroke="black" stroke-width="2" fill="none" />
<polyline points="35.0,376.5,30.5,360.5,28.5,344.5,26.5,328.5,24.5,312.5,26.5,296.5,24.5,281.0" stroke="black" stroke-width="2" fill="none" />
<polyline points="3.5,279.5,3.5,295.5,5.5,311.5,3.5,327.0,3.5,343.0,7.5,358.5,6.0,374.5,6.5,396.0,23.0,398.0,39.5,396.0" stroke="black" stroke-width="2" fill="none" />
<polyline points="3.5,137.0,3.5,121.0" stroke="black" stroke-width="2" fill="none" />
<polyline points="349.0,83.5,363.0,105.5,367.5,121.5,369.5,137.5,372.0,153.0,376.0,169.5,378.0,185.5,380.0,202.0,382.0,218.0,384.0,234.5,388.0,250.5,390.0,267.0,391.5,283.0,393.5,298.5,397.5,314.5,399.5,330.0,402.0,346.0,417.5,366.0,420.0,372.0,404.0,388.0,388.0,412.0,404.0,412.5,420.0,416.0,435.5,420.0,451.5,423.5" stroke="black" stroke-width="2" fill="none" />
</svg>