<svg xmlns="http://www.w3.org/2000/svg" width="512mm" height="512mm" viewBox="0 0 512 512" version="1.1"><polyline points="71.5,116.5,37.5,124.5,21.5,140.5,31.5,130.5,47.5,119.0,61.5,119.0,83.5,113.0" stroke="black" stroke-width="2" fill="none" />
<polyline points="96.0,144.5,49.5,166.0,49.5,181.5,47.5,197.5,48.0,214.0,48.0,230.0,48.0,246.0,48.0,262.0,48.5,278.0,48.5,293.5,49.0,309.5,49.0,325.5,50.5,342.0,56.5,358.0,88.5,356.0,124.5,372.0,150.0,384.0,166.0,384.5,182.0,382.5,198.0,381.0,214.0,381.0,230.0,381.0,246.5,379.0,262.5,372.5,287.0,362.5,303.0,358.0,319.0,356.0,335.0,351.5" stroke="black" stroke-width="2" fill="none" />
<polyline points="354.0,362.5,370.0,358.5,386.0,352.0,402.0,350.0" stroke="black" stroke-width="2" fill="none" />
<polyline points="416.5,337.5,432.5,334.0,448.0,332.0" stroke="black" stroke-width="2" fill="none" />
<polyline points="468.5,345.0,453.0,354.5,437.0,358.5,421.5,362.5,405.5,366.5,389.5,370.5,389.5,374.5,373.5,375.0" stroke="black" stroke-width="2" fill="none" />
<polyline points="382.5,377.5,398.5,371.5,403.0,375.5,413.0,379.5,428.5,373.0,444.0,369.5,460.0,363.5" stroke="black" stroke-width="2" fill="none" />
<polyline points="462.5,387.0,478.5,381.5,494.5,377.0,510.0,372.5" stroke="black" stroke-width="2" fill="none" />
<polyline points="499.0,389.0,483.0,402.5,473.0,406.5,463.5,424.0,469.5,411.5,479.5,405.5,495.5,389.5" stroke="black" stroke-width="2" fill="none" />
<polyline points="489.0,383.5,467.0,399.5,451.0,415.5,436.5,421.5,458.0,415.0,474.0,399.0" stroke="black" stroke-width="2" fill="none" />
<polyline points="486.0,389.5,468.0,405.5,450.0,407.0,458.0,393.0,468.0,379.0,484.0,375.0,500.0,369.0" stroke="black" stroke-width="2" fill="none" />
<polyline points="477.5,351.5,461.0,357.5,444.5,364.0,428.5,370.5,413.0,372.5" stroke="black" stroke-width="2" fill="none" />
<polyline points="400.5,381.5,384.5,381.5" stroke="black" stroke-width="2" fill="none" />
<polyline points="390.0,414.0,406.0,414.0,422.5,414.0" stroke="black" stroke-width="2" fill="none" />
<polyline points="438.5,410.5,422.5,424.5,406.5,422.5,390.5,423.0,383.0,414.5,366.5,422.5,350.5,422.0,334.5,422.5,320.5,412.0,304.0,422.0,288.0,422.0,272.0,422.0" stroke="black" stroke-width="2" fill="none" />
<polyline points="258.0,418.0,274.0,418.0,290.0,418.0,306.0,418.0,324.0,418.0,339.5,418.0,356.0,418.0,372.0,411.5,388.0,409.5,404.5,409.0,420.5,409.0" stroke="black" stroke-width="2" fill="none" />
<polyline points="450.5,344.0,435.0,347.5,419.0,351.5,405.0,343.5,389.0,347.5,373.0,352.0,357.0,355.5,341.0,363.5,325.0,367.0,309.0,371.0,292.5,375.0,277.0,379.0,261.0,383.0,245.0,391.0,247.0,385.5,289.0,376.0" stroke="black" stroke-width="2" fill="none" />
<polyline points="299.0,326.5,299.0,310.0,301.0,294.0,300.5,278.0,300.5,261.5,306.0,260.0,286.0,250.0" stroke="black" stroke-width="2" fill="none" />
<polyline points="275.5,255.0,277.5,239.0,277.5,222.5,271.5,215.0" stroke="black" stroke-width="2" fill="none" />
<polyline points="272.5,221.0,272.5,237.5,272.0,253.5,272.0,269.5,276.0,278.0,274.0,294.0,273.5,310.0,275.5,325.5" stroke="black" stroke-width="2" fill="none" />
<polyline points="283.0,331.5,267.0,335.5,251.0,339.0" stroke="black" stroke-width="2" fill="none" />
<polyline points="241.5,350.5,257.5,350.5,273.5,348.5,289.5,346.5,305.5,344.0" stroke="black" stroke-width="2" fill="none" />
<polyline points="359.0,314.0,359.0,298.0,358.5,282.0,354.0,259.5,352.0,243.0,353.5,227.0,353.5,221.0" stroke="black" stroke-width="2" fill="none" />
<polyline points="360.5,224.5,363.0,240.5,365.0,256.5,363.0,272.5,365.5,288.0,363.5,303.5,363.5,319.0" stroke="black" stroke-width="2" fill="none" />
<polyline points="393.5,325.5,403.5,323.5,405.5,307.5,407.0,291.5,407.0,275.5,406.5,260.0,404.5,244.0,402.0,228.5,394.0,223.0" stroke="black" stroke-width="2" fill="none" />
<polyline points="395.0,226.5,395.0,242.5,388.5,262.5,388.5,278.5,390.5,294.5" stroke="black" stroke-width="2" fill="none" />
<polyline points="428.5,313.5,410.5,305.5,416.5,299.5,420.5,283.5,422.0,268.0,416.0,258.5,426.0,242.5,426.0,226.5,424.0,224.5,408.0,222.0" stroke="black" stroke-width="2" fill="none" />
<polyline points="408.0,224.5,408.0,241.0,409.5,257.0,409.5,272.5,409.5,288.5" stroke="black" stroke-width="2" fill="none" />
<polyline points="384.0,276.5,375.5,266.0,375.5,260.0,351.5,266.0,335.5,269.5,320.0,275.5" stroke="black" stroke-width="2" fill="none" />
<polyline points="321.5,263.5,337.5,265.5" stroke="black" stroke-width="2" fill="none" />
<polyline points="299.5,275.5,321.5,271.5,321.5,287.5,321.5,303.5,322.0,319.5" stroke="black" stroke-width="2" fill="none" />
<polyline points="361.0,344.0,353.0,318.0,353.0,302.0,353.0,286.0,357.0,270.0,347.5,252.0,347.5,236.0,352.0,230.0,336.5,222.0,320.5,219.5" stroke="black" stroke-width="2" fill="none" />
<polyline points="320.5,220.5,321.0,236.5,321.0,253.0,313.0,269.5,307.0,285.5,305.0,301.5,305.0,317.5" stroke="black" stroke-width="2" fill="none" />
<polyline points="367.0,352.0,347.0,376.0,363.0,367.5,378.5,365.5,394.5,360.0,410.0,350.0,426.5,346.0,442.5,342.0,458.5,336.0,478.5,338.5" stroke="black" stroke-width="2" fill="none" />
<polyline points="456.5,319.5,456.5,304.0,458.5,288.0,458.0,272.5,460.0,256.5,460.0,241.0,460.0,225.0,460.0,205.5,444.5,205.0,428.5,201.0,414.5,205.0,398.5,200.5,396.5,200.5,378.5,197.0,362.5,194.5,347.0,201.0,331.5,199.0,315.5,199.0,299.5,198.5,283.5,198.5" stroke="black" stroke-width="2" fill="none" />
<polyline points="284.0,221.5,282.5,237.5,282.5,253.5,280.5,270.0,280.5,286.0,280.5,302.0,280.5,318.0" stroke="black" stroke-width="2" fill="none" />
<polyline points="250.0,397.5,234.0,399.0,217.5,397.5,197.0,397.5,183.5,405.5,167.5,405.5,151.5,405.5,135.5,405.5,119.5,406.0" stroke="black" stroke-width="2" fill="none" />
<polyline points="128.5,398.5,144.5,398.0" stroke="black" stroke-width="2" fill="none" />
<polyline points="142.0,422.5,158.0,422.0,174.0,421.5,190.0,421.5" stroke="black" stroke-width="2" fill="none" />
<polyline points="187.0,417.5,171.0,417.5,155.0,417.5,139.0,424.0" stroke="black" stroke-width="2" fill="none" />
<polyline points="145.0,379.5,144.5,364.0,144.5,348.0,144.0,332.5,144.0,317.0,144.0,301.0,144.0,284.5,142.0,268.5,144.0,252.5,141.5,236.5,141.5,220.5,143.5,204.5,143.0,188.5,142.5,172.5,122.5,179.0" stroke="black" stroke-width="2" fill="none" />
<polyline points="116.0,187.5,116.0,181.5,132.0,189.0,134.0,203.0,136.5,219.5,136.5,235.5,136.5,251.0,136.5,267.0,136.5,283.0,136.5,299.5,136.5,315.5,134.5,331.5,132.5,347.5" stroke="black" stroke-width="2" fill="none" />
<polyline points="188.0,361.0,185.5,344.5,185.5,328.5,186.0,313.0,186.0,297.0,186.0,281.0,186.0,265.0,185.5,249.0,185.5,233.0,185.5,217.5,185.5,201.5,186.0,186.0,176.0,170.5,160.0,166.5,144.0,168.5" stroke="black" stroke-width="2" fill="none" />
<polyline points="156.5,161.5,162.0,183.5,178.0,175.5,200.0,157.0,216.0,165.0" stroke="black" stroke-width="2" fill="none" />
<polyline points="224.0,154.0,209.5,156.0,193.5,152.5,177.5,146.5,161.5,142.5,145.5,134.5,131.5,146.5,115.5,153.0,104.0,155.0,94.5,147.0,78.5,152.5,62.5,156.0,46.0,162.0,34.0,179.5,18.0,165.5,2.5,151.0" stroke="black" stroke-width="2" fill="none" />
<polyline points="3.5,152.5,9.5,168.5,3.5,184.5,27.5,192.5,21.5,216.5,15.5,216.0,16.0,232.0,16.0,248.0,16.5,264.0,16.5,280.0,11.0,291.5" stroke="black" stroke-width="2" fill="none" />
<polyline points="3.5,278.5,3.5,262.5,5.5,246.5,7.0,226.5,5.0,210.5,9.5,198.0,1.5,190.0" stroke="black" stroke-width="2" fill="none" />
<polyline points="1.5,178.0,17.0,194.0,19.0,211.5,25.0,211.5" stroke="black" stroke-width="2" fill="none" />
<polyline points="17.5,184.0,2.0,170.0" stroke="black" stroke-width="2" fill="none" />
<polyline points="12.5,170.5,28.5,186.5,26.5,202.5" stroke="black" stroke-width="2" fill="none" />
<polyline points="48.0,170.5,64.0,170.5,64.5,160.5,74.5,175.0,90.5,169.0,106.5,167.0,122.5,159.0,126.5,153.5,140.5,141.5,150.5,159.5,160.5,153.5,176.5,166.0" stroke="black" stroke-width="2" fill="none" />
<polyline points="168.0,155.0,152.0,149.0" stroke="black" stroke-width="2" fill="none" />
<polyline points="141.5,147.5,141.5,163.5,137.5,159.5,119.5,175.0,113.5,185.0,107.5,200.5,110.0,216.5,108.5,232.0,109.0,248.0,109.5,264.0,110.0,280.0,112.0,296.0,111.5,312.0,111.0,327.5,110.5,343.5,134.5,370.0,154.0,359.5,162.0,345.5" stroke="black" stroke-width="2" fill="none" />
<polyline points="90.5,405.0,88.5,397.0,72.5,397.0" stroke="black" stroke-width="2" fill="none" />
<polyline points="67.0,393.0,83.0,391.0,99.0,391.0" stroke="black" stroke-width="2" fill="none" />
<polyline points="95.0,422.5,79.0,422.5,63.5,422.5" stroke="black" stroke-width="2" fill="none" />
<polyline points="52.5,390.0,68.5,388.0,84.5,385.5,100.0,385.0" stroke="black" stroke-width="2" fill="none" />
<polyline points="139.5,377.0,123.5,369.5,107.5,364.0,92.0,356.0,66.0,352.5,50.0,342.0" stroke="black" stroke-width="2" fill="none" />
<polyline points="68.5,379.0,52.0,378.5,35.5,378.5,19.0,378.0,3.0,377.5,1.0,385.5" stroke="black" stroke-width="2" fill="none" />
<polyline points="1.5,382.0,17.5,382.0,34.0,382.0,50.0,382.0,66.0,382.5,72.0,396.5,90.0,400.5,106.5,408.0,122.5,402.0,138.5,393.5,146.0,402.0,162.0,402.0,178.0,402.0,198.5,394.0,218.5,394.5,234.5,394.0,250.5,384.5" stroke="black" stroke-width="2" fill="none" />
<polyline points="384.5,330.5,378.5,326.5,376.0,318.5,394.0,312.5,393.5,296.5,393.5,280.5,394.0,264.5,388.5,246.0,388.5,229.5,384.5,223.5,368.5,223.5" stroke="black" stroke-width="2" fill="none" />
<polyline points="370.0,234.5,370.0,250.5,370.0,272.0,370.0,290.0,370.0,305.5" stroke="black" stroke-width="2" fill="none" />
<polyline points="380.5,307.5,367.0,329.5,350.5,332.0,334.5,334.0,318.0,334.0,316.0,314.0,316.5,298.0,316.5,281.5,316.5,265.5,316.0,249.5,314.0,233.0,313.5,219.5,297.5,220.0,281.5,220.0,265.5,220.0,249.5,218.0" stroke="black" stroke-width="2" fill="none" />
<polyline points="248.5,217.5,248.5,233.5,249.5,249.5,250.0,265.5,250.0,281.5,250.0,298.0,250.0,314.0,260.5,317.5,254.5,325.5" stroke="black" stroke-width="2" fill="none" />
<polyline points="356.0,320.0,340.0,328.0,323.5,328.0,307.5,336.0,301.5,334.0,285.5,335.5,269.5,323.5,265.5,318.0,267.5,300.0,265.5,284.0,267.5,267.5,267.5,251.5,267.5,235.0,265.5,219.0" stroke="black" stroke-width="2" fill="none" />
<polyline points="245.5,207.5,243.5,223.5,244.0,239.5,244.0,256.0,243.5,272.0,243.5,288.0,244.0,304.0,244.0,319.5,246.5,335.5,248.5,337.5,264.0,327.5" stroke="black" stroke-width="2" fill="none" />
<polyline points="244.0,209.0,260.5,210.5,277.0,209.0,293.0,215.0,309.5,215.0,326.0,213.5,342.5,215.0,358.5,215.0,375.0,212.5,391.0,214.0,407.0,213.5,423.5,217.5,439.0,215.5,445.0,217.5,440.5,234.0,438.0,250.0,438.0,265.5,434.5,281.0,432.5,297.5,421.0,311.5,409.0,317.5,405.0,325.5,421.0,327.5" stroke="black" stroke-width="2" fill="none" />
<polyline points="440.0,324.0,440.0,308.0" stroke="black" stroke-width="2" fill="none" />
<polyline points="435.0,309.5,439.0,293.5,439.0,278.0" stroke="black" stroke-width="2" fill="none" />
<polyline points="476.5,271.5,492.5,247.5,509.0,235.5,507.5,221.5" stroke="black" stroke-width="2" fill="none" />
<polyline points="509.5,227.0,509.0,229.5,499.0,246.0,504.5,246.0,492.0,262.0,493.5,272.5" stroke="black" stroke-width="2" fill="none" />
<polyline points="484.0,269.5,500.0,255.5,508.0,264.0,510.5,280.0" stroke="black" stroke-width="2" fill="none" />
<polyline points="502.5,279.0,490.5,277.5,480.5,289.5,478.5,273.5,487.0,257.5,492.5,242.0,500.5,226.0,510.0,210.0,496.0,208.0" stroke="black" stroke-width="2" fill="none" />
<polyline points="498.5,186.5,498.5,198.0,508.5,197.5,506.5,181.0,510.0,190.5" stroke="black" stroke-width="2" fill="none" />
<polyline points="504.5,185.5,488.5,213.0,482.0,237.5,478.0,264.0,484.5,248.0,491.0,231.5,501.0,215.5,507.5,215.5,491.0,231.5" stroke="black" stroke-width="2" fill="none" />
<polyline points="476.0,185.0,468.0,195.0,467.5,203.0,467.5,219.0,467.5,235.0,467.5,251.0,465.0,266.5,467.0,282.5,467.5,298.0,467.5,314.0,467.5,330.0,461.0,342.0,453.0,359.5" stroke="black" stroke-width="2" fill="none" />
<polyline points="425.0,320.0,425.0,303.5,425.0,282.0,433.0,274.0,435.0,258.5,435.0,242.5,433.0,226.5" stroke="black" stroke-width="2" fill="none" />
<polyline points="472.0,181.5,456.0,180.0,440.5,184.0,424.5,184.0,408.5,182.0,392.5,178.0,376.0,178.0,359.5,176.0,343.5,174.0,327.5,176.0,311.5,172.0,295.5,165.5,275.0,168.0,259.0,164.0" stroke="black" stroke-width="2" fill="none" />
<polyline points="256.0,159.5,271.5,161.5,287.5,165.0,303.5,173.0,319.0,179.0,335.5,181.0,352.0,181.0,368.0,181.0,384.5,181.0,400.5,182.5,416.0,186.5,432.5,191.0" stroke="black" stroke-width="2" fill="none" />
<polyline points="511.0,168.5,500.5,184.5,490.5,200.0,494.5,204.0,496.0,214.5,486.0,230.5,480.0,246.0,476.0,261.5,487.5,275.0,495.5,280.5,497.5,292.0,501.5,286.5,507.5,263.0" stroke="black" stroke-width="2" fill="none" />
<polyline points="503.0,100.0,487.0,90.0" stroke="black" stroke-width="2" fill="none" />
<polyline points="483.5,84.0,499.5,92.0" stroke="black" stroke-width="2" fill="none" />
<polyline points="488.0,91.0,476.0,85.0" stroke="black" stroke-width="2" fill="none" />
<polyline points="498.0,25.5,481.5,25.5,466.0,25.5,450.5,26.0,434.5,26.0,418.5,26.5,402.5,26.5,386.0,26.5,370.0,26.5,353.5,26.5,337.5,26.0,321.5,26.0,305.5,26.0,289.0,26.0,273.0,26.0,257.5,26.0,242.0,26.0,226.0,26.5,209.5,27.0,193.5,27.0,178.0,27.0,162.0,26.5,146.0,27.0,130.0,27.0,114.0,27.5,98.0,27.5,82.0,27.0,66.0,27.0,49.5,26.5,33.5,26.5,17.5,26.0,1.5,26.0" stroke="black" stroke-width="2" fill="none" />
<polyline points="1.5,19.0,17.5,21.0,33.5,19.0,49.5,19.5,65.5,19.5,81.5,19.5,98.0,20.0,114.0,20.5,130.0,21.0,146.0,21.0,162.0,21.0,178.0,21.0,194.5,21.0,210.0,21.0,226.0,21.0,241.5,20.5,257.5,20.5,273.0,20.5,289.0,20.0,304.5,19.5,320.5,19.5,336.5,19.5,353.0,19.5,369.5,19.5,385.5,19.5,402.0,19.5,418.0,20.0,434.5,20.0,450.5,20.0,467.0,20.5,483.0,20.5,499.0,20.5" stroke="black" stroke-width="2" fill="none" />
<polyline points="357.0,147.0,338.5,155.0" stroke="black" stroke-width="2" fill="none" />
<polyline points="310.0,160.0,294.0,147.5" stroke="black" stroke-width="2" fill="none" />
<polyline points="292.5,147.0,310.5,162.5,328.5,164.5" stroke="black" stroke-width="2" fill="none" />
<polyline points="334.0,155.5,318.0,152.0,300.0,162.0,284.5,154.0,270.5,148.0,256.5,156.0,244.5,156.0,234.5,164.0,214.5,151.5,194.5,139.5" stroke="black" stroke-width="2" fill="none" />
<polyline points="192.0,159.0,176.0,151.5,159.5,146.0,143.0,137.5" stroke="black" stroke-width="2" fill="none" />
<polyline points="143.0,134.0,159.5,150.0,177.0,153.5,177.5,173.5,167.5,187.5,170.0,203.5,174.0,219.5,174.5,236.0,174.5,252.0,173.0,268.5,173.0,284.5,173.0,300.5,173.0,316.5,175.0,332.0,159.0,348.0,159.0,365.5,151.0,380.0,167.0,380.0,183.0,378.5,183.5,372.5,201.5,372.5,201.0,364.5,217.0,364.5,232.5,362.0,244.0,368.0,260.0,361.5,275.5,359.5,291.5,355.5,307.5,349.5,323.5,345.0,339.5,341.0,355.5,337.0,362.0,325.0,384.0,315.5" stroke="black" stroke-width="2" fill="none" />
<polyline points="325.5,168.0,309.5,166.0,293.0,154.0,275.0,158.0,259.5,154.0,244.0,146.0,228.0,148.5,211.5,147.0,195.5,147.0,180.0,139.0,164.0,136.5" stroke="black" stroke-width="2" fill="none" />
<polyline points="162.0,141.5,200.0,157.5,192.0,174.0,194.0,190.0,194.0,205.5,194.5,221.5,194.0,237.5,194.0,253.5,194.0,269.5,194.5,285.5,195.0,301.5,194.5,318.0,195.0,334.0,195.0,350.0,195.0,366.0,213.0,374.0,239.0,370.5,256.5,356.5,262.5,368.5,274.5,373.0,290.5,367.0,306.5,363.0,322.5,359.0,338.5,357.5,355.0,349.0,371.0,343.0,387.0,339.0,403.0,337.0,419.0,335.0,441.5,321.0" stroke="black" stroke-width="2" fill="none" />
<polyline points="498.0,491.0,482.0,493.5,465.5,493.0,449.5,493.0,433.5,492.5,418.0,492.0,402.0,492.0,386.0,492.0,369.5,491.5,353.5,491.5,337.5,491.5,322.0,491.0,305.5,491.0,289.0,491.0,273.5,491.0,258.0,491.5,242.0,491.5,226.0,491.5,209.5,491.5,193.5,491.5,177.5,491.5,161.5,491.5,145.5,491.5,130.0,491.5,114.5,491.5,98.5,489.5,82.5,491.5,66.5,489.5,50.0,489.5,33.5,490.0,17.5,490.0,1.5,490.0" stroke="black" stroke-width="2" fill="none" />
<polyline points="3.0,484.5,19.0,482.5,34.5,485.0,50.5,485.0,66.0,485.5,81.5,485.5,97.5,485.5,114.0,485.5,130.0,485.5,146.0,485.5,162.0,485.5,178.0,486.0,194.0,486.5,210.0,486.5,225.5,486.0,241.5,486.0,258.0,486.0,274.0,485.5,289.5,485.0,306.0,485.0,322.0,485.0,338.0,485.0,353.5,484.5,369.5,485.0,385.0,485.5,400.5,485.5,416.5,486.0,433.0,486.5,449.0,486.5,464.5,487.0,480.5,487.0,496.5,487.0,509.0,490.5" stroke="black" stroke-width="2" fill="none" />
<polyline points="134.0,383.0,118.0,374.5,102.0,366.5,86.0,360.0,72.5,360.0,56.5,354.0,40.5,348.0,36.5,330.0,33.0,313.5,31.0,297.5" stroke="black" stroke-width="2" fill="none" />
<polyline points="27.0,297.5,28.5,314.0,33.0,330.0,33.0,346.0,47.0,360.0,61.0,368.0,75.0,366.5,90.5,370.5,106.5,376.5,122.5,381.0" stroke="black" stroke-width="2" fill="none" />
<polyline points="33.5,390.0,17.5,389.0,1.5,389.0" stroke="black" stroke-width="2" fill="none" />
<polyline points="2.0,369.0,18.0,369.0,22.0,373.5" stroke="black" stroke-width="2" fill="none" />
<polyline points="18.0,353.5,2.0,343.5" stroke="black" stroke-width="2" fill="none" />
<polyline points="2.5,340.5,18.5,348.5,34.5,360.0,50.5,368.0" stroke="black" stroke-width="2" fill="none" />
<polyline points="31.5,362.0,5.5,346.0" stroke="black" stroke-width="2" fill="none" />
<polyline points="5.0,340.5,41.0,356.0,57.0,362.0,79.0,371.5,94.5,377.5,110.0,381.5" stroke="black" stroke-width="2" fill="none" />
<polyline points="139.5,364.0,123.5,354.0,121.5,348.0,101.5,354.0,86.0,351.5,86.0,335.5,86.0,319.5,86.0,303.5,86.0,287.5,86.0,271.5,86.0,255.5,85.5,239.5,85.5,223.5" stroke="black" stroke-width="2" fill="none" />
<polyline points="81.0,190.0,83.0,205.5,81.5,231.5,80.0,247.5,82.5,263.5,80.5,280.0,81.0,296.0,81.0,312.0,80.5,328.0,80.5,344.0,86.5,360.5,80.5,368.5" stroke="black" stroke-width="2" fill="none" />
<polyline points="73.0,190.5,89.0,180.5,105.0,178.5,121.5,174.5,137.5,168.5,151.5,178.5,157.0,194.5" stroke="black" stroke-width="2" fill="none" />
<polyline points="163.0,152.5,197.0,168.5,197.0,184.0,197.0,199.5,197.0,215.5,197.0,231.0,197.5,247.0,198.0,263.5,198.0,279.5,198.0,295.5,198.0,311.5,198.0,327.5,198.0,343.0,198.0,359.0" stroke="black" stroke-width="2" fill="none" />
<polyline points="77.5,236.5,77.5,220.5,77.5,204.5,77.5,188.5" stroke="black" stroke-width="2" fill="none" />
<polyline points="76.0,171.0,92.0,165.0,108.5,159.0" stroke="black" stroke-width="2" fill="none" />
<polyline points="115.5,158.5,93.5,168.5,101.0,188.5,103.0,204.5,102.5,220.0,102.5,236.0,102.5,251.5,103.0,267.5,103.0,283.5,103.5,299.0,103.5,315.0,103.5,331.0,105.5,347.0,119.5,359.5,135.5,369.5,163.5,365.5,180.0,366.0" stroke="black" stroke-width="2" fill="none" />
<polyline points="104.5,369.0,70.5,368.5,46.5,366.0,38.0,350.0,42.0,327.5,44.0,311.5,44.5,295.0,44.5,279.5,44.5,264.0,44.5,248.0,45.0,232.5,44.5,216.5,42.5,200.5,44.5,184.5,38.5,182.5,36.5,178.5,38.5,162.5" stroke="black" stroke-width="2" fill="none" />
<polyline points="33.5,189.0,17.5,172.5,1.5,158.0" stroke="black" stroke-width="2" fill="none" />
<polyline points="10.0,160.0,26.0,176.0,38.0,192.0,38.0,208.5,36.0,226.5" stroke="black" stroke-width="2" fill="none" />
<polyline points="2.0,142.5,2.0,138.0,17.5,132.5,31.5,136.5,48.0,124.5" stroke="black" stroke-width="2" fill="none" />
<polyline points="133.0,129.5,107.0,145.5,69.5,159.5,75.5,163.5,92.0,157.0,92.0,153.5,108.0,145.5,124.0,138.0,140.0,130.0,156.0,134.5,172.0,132.5,188.0,137.0,203.5,137.0,219.5,140.5,235.5,140.5,251.5,144.0,268.0,142.0,283.5,144.0,300.0,146.0,316.0,146.0,332.0,150.0,350.0,146.5" stroke="black" stroke-width="2" fill="none" />
<polyline points="293.0,170.5,282.5,154.5" stroke="black" stroke-width="2" fill="none" />
<polyline points="286.0,150.0,305.5,150.0" stroke="black" stroke-width="2" fill="none" />
<polyline points="302.5,178.0,286.5,177.5,270.5,181.5,256.5,180.0,255.0,174.0,257.0,180.0,247.0,152.5,225.0,148.5" stroke="black" stroke-width="2" fill="none" />
<polyline points="216.0,139.0,262.0,149.5,262.0,165.5,244.0,177.5,246.0,193.5,246.0,191.5,262.0,191.5,262.5,195.5,274.5,195.5,291.0,187.5" stroke="black" stroke-width="2" fill="none" />
<polyline points="151.5,131.0,175.5,135.0,191.5,137.0,221.5,151.5,228.0,164.0,244.0,162.5,260.0,172.5,278.0,182.5,294.0,192.5,310.5,192.5,327.0,192.5,343.0,194.5,366.5,198.5,382.5,202.5,392.5,192.5,408.5,198.5,426.5,194.0,442.0,198.0,460.0,190.0" stroke="black" stroke-width="2" fill="none" />
<polyline points="134.0,135.5,122.0,151.5,117.5,149.5,97.5,161.5,75.5,181.5,72.0,198.0,74.0,213.5,74.0,229.5,72.0,246.0,72.0,262.0" stroke="black" stroke-width="2" fill="none" />
</svg>