<?xml version="1.0" encoding="UTF-8"?>
<svg xmlns="http://www.w3.org/2000/svg" xmlns:xlink="http://www.w3.org/1999/xlink" width="1935.11811" height="1935.11811" viewBox="0 0 1935.11811 1935.11811" version="1.1">
<g id="surface1">
<path style="fill:none;stroke-width:2;stroke-linecap:butt;stroke-linejoin:miter;stroke:rgb(0%,0%,0%);stroke-opacity:1;stroke-miterlimit:4;" d="M 161.50022 38.499976 L 137.499618 54.500033 L 105.499504 86.500146 L 97.499992 105.000309 L 99.49987 121.000366 L 95.500114 130.999756 L 109.500293 141.000179 L 107.000187 157.000236 L 128.999878 172.500065 L 134.500317 188.500122 " transform="matrix(3.779528,0,0,3.779528,0,0)"/>
<path style="fill:none;stroke-width:2;stroke-linecap:butt;stroke-linejoin:miter;stroke:rgb(0%,0%,0%);stroke-opacity:1;stroke-miterlimit:4;" d="M 130.000334 171.999837 L 146.000391 166.000203 L 152.000024 178.000505 " transform="matrix(3.779528,0,0,3.779528,0,0)"/>
<path style="fill:none;stroke-width:2;stroke-linecap:butt;stroke-linejoin:miter;stroke:rgb(0%,0%,0%);stroke-opacity:1;stroke-miterlimit:4;" d="M 175.999593 175.500399 L 191.500456 177.500277 L 207.500513 175.999593 L 223.499536 180.000382 L 243.500382 168.000081 L 259.999634 160.499764 L 275.999691 156.500008 L 291.999748 160.499764 " transform="matrix(3.779528,0,0,3.779528,0,0)"/>
<path style="fill:none;stroke-width:2;stroke-linecap:butt;stroke-linejoin:miter;stroke:rgb(0%,0%,0%);stroke-opacity:1;stroke-miterlimit:4;" d="M 266.499495 162.99987 L 250.000244 170.500187 " transform="matrix(3.779528,0,0,3.779528,0,0)"/>
<path style="fill:none;stroke-width:2;stroke-linecap:butt;stroke-linejoin:miter;stroke:rgb(0%,0%,0%);stroke-opacity:1;stroke-miterlimit:4;" d="M 245.000033 181.500033 L 261.500317 177.500277 " transform="matrix(3.779528,0,0,3.779528,0,0)"/>
<path style="fill:none;stroke-width:2;stroke-linecap:butt;stroke-linejoin:miter;stroke:rgb(0%,0%,0%);stroke-opacity:1;stroke-miterlimit:4;" d="M 266.000301 184.999561 L 250.500472 182.999683 " transform="matrix(3.779528,0,0,3.779528,0,0)"/>
<path style="fill:none;stroke-width:2;stroke-linecap:butt;stroke-linejoin:miter;stroke:rgb(0%,0%,0%);stroke-opacity:1;stroke-miterlimit:4;" d="M 243.000155 191.99965 L 259.000212 191.99965 " transform="matrix(3.779528,0,0,3.779528,0,0)"/>
<path style="fill:none;stroke-width:2;stroke-linecap:butt;stroke-linejoin:miter;stroke:rgb(0%,0%,0%);stroke-opacity:1;stroke-miterlimit:4;" d="M 246.000488 202.000073 L 261.999512 225.999642 " transform="matrix(3.779528,0,0,3.779528,0,0)"/>
<path style="fill:none;stroke-width:2;stroke-linecap:butt;stroke-linejoin:miter;stroke:rgb(0%,0%,0%);stroke-opacity:1;stroke-miterlimit:4;" d="M 294.499854 225.500448 L 302.999593 233.499959 L 307.000382 249.500016 L 316.999772 265.500073 L 318.99965 277.500374 L 336.999585 285.499886 L 352.999642 279.500252 L 368.500505 301.499943 " transform="matrix(3.779528,0,0,3.779528,0,0)"/>
<path style="fill:none;stroke-width:2;stroke-linecap:butt;stroke-linejoin:miter;stroke:rgb(0%,0%,0%);stroke-opacity:1;stroke-miterlimit:4;" d="M 341.499569 254.500228 L 325.000317 221.999886 L 309.00026 200.000195 " transform="matrix(3.779528,0,0,3.779528,0,0)"/>
<path style="fill:none;stroke-width:2;stroke-linecap:butt;stroke-linejoin:miter;stroke:rgb(0%,0%,0%);stroke-opacity:1;stroke-miterlimit:4;" d="M 308.500033 201.499845 L 321.999984 217.499902 L 329.999495 233.499959 L 338.000041 248.999788 L 348.000464 264.999845 L 354.500326 278.499797 L 336.500391 298.499609 L 339.999919 314.499666 L 339.999919 330.499723 L 336.000163 362.499837 L 338.000041 377.999666 L 341.499569 394.499951 L 361.500415 410.500008 " transform="matrix(3.779528,0,0,3.779528,0,0)"/>
<path style="fill:none;stroke-width:2;stroke-linecap:butt;stroke-linejoin:miter;stroke:rgb(0%,0%,0%);stroke-opacity:1;stroke-miterlimit:4;" d="M 355.499748 406.000024 L 339.499691 390.500195 " transform="matrix(3.779528,0,0,3.779528,0,0)"/>
<path style="fill:none;stroke-width:2;stroke-linecap:butt;stroke-linejoin:miter;stroke:rgb(0%,0%,0%);stroke-opacity:1;stroke-miterlimit:4;" d="M 335.499935 390.500195 L 350.999764 408.50013 " transform="matrix(3.779528,0,0,3.779528,0,0)"/>
<path style="fill:none;stroke-width:2;stroke-linecap:butt;stroke-linejoin:miter;stroke:rgb(0%,0%,0%);stroke-opacity:1;stroke-miterlimit:4;" d="M 389.999967 405.499797 L 374.500138 419.499976 L 359.000309 420.000203 L 343.50048 411.999658 L 327.500423 402.000269 L 311.999561 388.00009 " transform="matrix(3.779528,0,0,3.779528,0,0)"/>
<path style="fill:none;stroke-width:2;stroke-linecap:butt;stroke-linejoin:miter;stroke:rgb(0%,0%,0%);stroke-opacity:1;stroke-miterlimit:4;" d="M 305.999927 391.000423 L 321.499756 405.499797 L 337.499813 417.500098 L 353.49987 423.499731 L 370.000155 425.999837 L 386.000212 420.000203 " transform="matrix(3.779528,0,0,3.779528,0,0)"/>
<path style="fill:none;stroke-width:2;stroke-linecap:butt;stroke-linejoin:miter;stroke:rgb(0%,0%,0%);stroke-opacity:1;stroke-miterlimit:4;" d="M 326.499967 362.499837 L 310.49991 375.000366 " transform="matrix(3.779528,0,0,3.779528,0,0)"/>
<path style="fill:none;stroke-width:2;stroke-linecap:butt;stroke-linejoin:miter;stroke:rgb(0%,0%,0%);stroke-opacity:1;stroke-miterlimit:4;" d="M 305.000505 389.49974 L 320.999528 405.499797 L 347.000008 421.499854 " transform="matrix(3.779528,0,0,3.779528,0,0)"/>
<path style="fill:none;stroke-width:2;stroke-linecap:butt;stroke-linejoin:miter;stroke:rgb(0%,0%,0%);stroke-opacity:1;stroke-miterlimit:4;" d="M 343.999674 406.500252 L 334.000285 390.500195 L 334.000285 373.99991 L 332.499601 366.000399 L 316.499544 375.999788 L 300.499487 388.00009 " transform="matrix(3.779528,0,0,3.779528,0,0)"/>
<path style="fill:none;stroke-width:2;stroke-linecap:butt;stroke-linejoin:miter;stroke:rgb(0%,0%,0%);stroke-opacity:1;stroke-miterlimit:4;" d="M 300.999715 388.00009 L 300.999715 434.999805 L 302.999593 450.999862 L 302.500399 466.999919 L 302.999593 482.999976 L 302.999593 499.000033 " transform="matrix(3.779528,0,0,3.779528,0,0)"/>
<path style="fill:none;stroke-width:2;stroke-linecap:butt;stroke-linejoin:miter;stroke:rgb(0%,0%,0%);stroke-opacity:1;stroke-miterlimit:4;" d="M 296.999959 503.500016 L 298.999837 487.499959 L 298.499609 471.499902 L 296.499731 456.000073 L 296.499731 440.000016 L 295.999504 424.500187 L 293.999626 408.50013 L 293.999626 393.000301 L 298.000415 377.000244 L 298.000415 361.500415 L 302.500399 359.000309 L 298.499609 352.999642 " transform="matrix(3.779528,0,0,3.779528,0,0)"/>
<path style="fill:none;stroke-width:2;stroke-linecap:butt;stroke-linejoin:miter;stroke:rgb(0%,0%,0%);stroke-opacity:1;stroke-miterlimit:4;" d="M 327.500423 322.500212 L 311.500366 304.500277 L 295.999504 291.999748 L 280.499674 284.000236 L 264.999845 277.999569 L 248.999788 273.499585 L 247.500138 279.000024 " transform="matrix(3.779528,0,0,3.779528,0,0)"/>
<path style="fill:none;stroke-width:2;stroke-linecap:butt;stroke-linejoin:miter;stroke:rgb(0%,0%,0%);stroke-opacity:1;stroke-miterlimit:4;" d="M 266.499495 279.500252 L 298.499609 295.500309 L 317.5 311.500366 L 327.999618 327.500423 " transform="matrix(3.779528,0,0,3.779528,0,0)"/>
<path style="fill:none;stroke-width:2;stroke-linecap:butt;stroke-linejoin:miter;stroke:rgb(0%,0%,0%);stroke-opacity:1;stroke-miterlimit:4;" d="M 310.49991 311.500366 L 292.499976 295.500309 L 259.999634 295.999504 L 243.999577 292.499976 L 227.99952 306.500155 L 212.000496 314.499666 L 212.000496 294.499854 L 200.000195 282.000358 L 184.000138 261.999512 L 161.50022 246.000488 L 155.499552 229.500203 L 159.500342 213.500146 L 159.999536 197.50009 L 157.999658 180.999805 L 152.500252 165.499976 L 142.499829 155.499552 L 124.499894 148.000269 L 108.499837 156.500008 " transform="matrix(3.779528,0,0,3.779528,0,0)"/>
<path style="fill:none;stroke-width:2;stroke-linecap:butt;stroke-linejoin:miter;stroke:rgb(0%,0%,0%);stroke-opacity:1;stroke-miterlimit:4;" d="M 110.999943 155.499552 L 127.500228 166.000203 L 119.99991 181.500033 L 116.000155 184.999561 L 120.500138 200.999618 " transform="matrix(3.779528,0,0,3.779528,0,0)"/>
<path style="fill:none;stroke-width:2;stroke-linecap:butt;stroke-linejoin:miter;stroke:rgb(0%,0%,0%);stroke-opacity:1;stroke-miterlimit:4;" d="M 116.000155 200.999618 L 114.000277 180.499577 " transform="matrix(3.779528,0,0,3.779528,0,0)"/>
<path style="fill:none;stroke-width:2;stroke-linecap:butt;stroke-linejoin:miter;stroke:rgb(0%,0%,0%);stroke-opacity:1;stroke-miterlimit:4;" d="M 120.500138 174.499943 L 127 190.5 L 130.999756 206.500057 L 128.999878 221.999886 " transform="matrix(3.779528,0,0,3.779528,0,0)"/>
<path style="fill:none;stroke-width:2;stroke-linecap:butt;stroke-linejoin:miter;stroke:rgb(0%,0%,0%);stroke-opacity:1;stroke-miterlimit:4;" d="M 141.500407 236.999487 L 147.500041 246.499683 L 149.499919 252.999544 L 141.500407 268.999601 L 152.000024 284.999658 L 157.999658 295.000081 L 164.000326 310.49991 L 160.499764 325.99974 L 146.499585 341.499569 L 128.49965 357.499626 L 100.500326 377.500472 L 64.99965 387.499862 L 42.999959 403.499919 L 55.00026 411.500464 L 60.999894 427.499487 L 64.99965 443.499544 L 80.999707 459.499601 L 82.500391 475.499658 L 86.500146 491.499715 L 89.000252 507.499772 " transform="matrix(3.779528,0,0,3.779528,0,0)"/>
<path style="fill:none;stroke-width:2;stroke-linecap:butt;stroke-linejoin:miter;stroke:rgb(0%,0%,0%);stroke-opacity:1;stroke-miterlimit:4;" d="M 107.500415 493.999821 L 115.499927 509.999878 " transform="matrix(3.779528,0,0,3.779528,0,0)"/>
<path style="fill:none;stroke-width:2;stroke-linecap:butt;stroke-linejoin:miter;stroke:rgb(0%,0%,0%);stroke-opacity:1;stroke-miterlimit:4;" d="M 112.000399 484.999854 L 128.000456 470.999674 L 144.499707 454.999618 L 159.999536 431.000049 L 175.999593 402.999691 L 191.500456 384.499528 L 207.500513 376.500016 " transform="matrix(3.779528,0,0,3.779528,0,0)"/>
<path style="fill:none;stroke-width:2;stroke-linecap:butt;stroke-linejoin:miter;stroke:rgb(0%,0%,0%);stroke-opacity:1;stroke-miterlimit:4;" d="M 194.999984 382.000456 L 178.999927 398.000513 L 168.999504 413.500342 L 160.499764 429.500399 L 150.500374 447.999528 L 134.00009 463.999585 L 116.500382 479.999642 L 112.499593 490.000065 L 118.50026 506.000122 " transform="matrix(3.779528,0,0,3.779528,0,0)"/>
<path style="fill:none;stroke-width:2;stroke-linecap:butt;stroke-linejoin:miter;stroke:rgb(0%,0%,0%);stroke-opacity:1;stroke-miterlimit:4;" d="M 107.500415 489.499837 L 93.500236 507.499772 L 93.500236 490.999487 L 109.500293 475.000464 L 129.500106 459.000407 " transform="matrix(3.779528,0,0,3.779528,0,0)"/>
<path style="fill:none;stroke-width:2;stroke-linecap:butt;stroke-linejoin:miter;stroke:rgb(0%,0%,0%);stroke-opacity:1;stroke-miterlimit:4;" d="M 123.000244 466.499691 L 107.000187 478.499992 L 87.499569 479.999642 L 97.499992 463.500391 L 75.500301 447.500334 L 61.500122 431.500277 " transform="matrix(3.779528,0,0,3.779528,0,0)"/>
<path style="fill:none;stroke-width:2;stroke-linecap:butt;stroke-linejoin:miter;stroke:rgb(0%,0%,0%);stroke-opacity:1;stroke-miterlimit:4;" d="M 41.500309 409.99978 L 57.000138 404.000146 L 73.000195 389.49974 L 75.000073 395.500407 L 59.000016 407.499674 L 74.499845 395.500407 L 106.499959 371.499805 L 122.500016 361.500415 L 139.000301 347.500236 L 155.000358 329.000073 " transform="matrix(3.779528,0,0,3.779528,0,0)"/>
<path style="fill:none;stroke-width:2;stroke-linecap:butt;stroke-linejoin:miter;stroke:rgb(0%,0%,0%);stroke-opacity:1;stroke-miterlimit:4;" d="M 198.000317 316.00035 L 182.00026 329.999495 L 166.500431 350.499536 L 153.00048 370.500382 L 164.999748 354.000098 L 175.000171 338.000041 L 190.5 321.999984 L 192.499878 299.500065 L 175.999593 284.000236 L 159.999536 275.999691 " transform="matrix(3.779528,0,0,3.779528,0,0)"/>
<path style="fill:none;stroke-width:2;stroke-linecap:butt;stroke-linejoin:miter;stroke:rgb(0%,0%,0%);stroke-opacity:1;stroke-miterlimit:4;" d="M 162.000448 271.000513 L 159.999536 286.999536 L 157.500464 295.000081 " transform="matrix(3.779528,0,0,3.779528,0,0)"/>
<path style="fill:none;stroke-width:2;stroke-linecap:butt;stroke-linejoin:miter;stroke:rgb(0%,0%,0%);stroke-opacity:1;stroke-miterlimit:4;" d="M 146.499585 293.999626 L 130.499528 287.499764 L 114.500505 285.499886 " transform="matrix(3.779528,0,0,3.779528,0,0)"/>
<path style="fill:none;stroke-width:2;stroke-linecap:butt;stroke-linejoin:miter;stroke:rgb(0%,0%,0%);stroke-opacity:1;stroke-miterlimit:4;" d="M 112.000399 276.499919 L 128.000456 284.500464 L 144.000513 288.50022 " transform="matrix(3.779528,0,0,3.779528,0,0)"/>
<path style="fill:none;stroke-width:2;stroke-linecap:butt;stroke-linejoin:miter;stroke:rgb(0%,0%,0%);stroke-opacity:1;stroke-miterlimit:4;" d="M 128.49965 295.999504 L 116.000155 295.999504 L 109.500293 279.500252 L 127 263.500195 L 123.000244 265.500073 L 123.000244 259.000212 " transform="matrix(3.779528,0,0,3.779528,0,0)"/>
<path style="fill:none;stroke-width:2;stroke-linecap:butt;stroke-linejoin:miter;stroke:rgb(0%,0%,0%);stroke-opacity:1;stroke-miterlimit:4;" d="M 150.000146 252.000122 L 166.000203 257.999756 L 182.00026 270.000057 L 198.499512 275.999691 " transform="matrix(3.779528,0,0,3.779528,0,0)"/>
<path style="fill:none;stroke-width:2;stroke-linecap:butt;stroke-linejoin:miter;stroke:rgb(0%,0%,0%);stroke-opacity:1;stroke-miterlimit:4;" d="M 175.500399 277.500374 L 191.500456 293.500431 L 205.999829 309.500488 L 200.000195 325.99974 L 187.499666 341.999797 L 175.500399 357.999854 L 168.000081 373.99991 L 159.999536 389.49974 L 152.500252 405.499797 L 144.499707 421.499854 L 134.00009 437.49991 L 118.000033 453.499967 " transform="matrix(3.779528,0,0,3.779528,0,0)"/>
<path style="fill:none;stroke-width:2;stroke-linecap:butt;stroke-linejoin:miter;stroke:rgb(0%,0%,0%);stroke-opacity:1;stroke-miterlimit:4;" d="M 202.999495 414.499764 L 218.500358 420.500431 " transform="matrix(3.779528,0,0,3.779528,0,0)"/>
<path style="fill:none;stroke-width:2;stroke-linecap:butt;stroke-linejoin:miter;stroke:rgb(0%,0%,0%);stroke-opacity:1;stroke-miterlimit:4;" d="M 224.499992 413.999536 L 208.499935 409.499552 " transform="matrix(3.779528,0,0,3.779528,0,0)"/>
<path style="fill:none;stroke-width:2;stroke-linecap:butt;stroke-linejoin:miter;stroke:rgb(0%,0%,0%);stroke-opacity:1;stroke-miterlimit:4;" d="M 205.999829 403.499919 L 212.000496 419.499976 L 207.999707 402.999691 L 223.999764 400.999813 " transform="matrix(3.779528,0,0,3.779528,0,0)"/>
<path style="fill:none;stroke-width:2;stroke-linecap:butt;stroke-linejoin:miter;stroke:rgb(0%,0%,0%);stroke-opacity:1;stroke-miterlimit:4;" d="M 194.499756 347.000008 L 178.000505 369.499927 L 161.50022 398.999935 L 144.999935 431.000049 L 128.999878 450.999862 L 112.499593 466.499691 L 96.000342 470.999674 L 76.499723 456.999495 L 60.499666 441.000472 L 44.999837 431.000049 L 28.99978 429.000171 L 26.999902 428.499943 L 25.000024 416.000448 L 37.49952 399.500163 L 61.500122 382.999878 L 55.500488 362.499837 L 39.500431 355.999976 " transform="matrix(3.779528,0,0,3.779528,0,0)"/>
<path style="fill:none;stroke-width:2;stroke-linecap:butt;stroke-linejoin:miter;stroke:rgb(0%,0%,0%);stroke-opacity:1;stroke-miterlimit:4;" d="M 38.499976 357.000431 L 53.999805 357.499626 L 69.999862 363.500293 " transform="matrix(3.779528,0,0,3.779528,0,0)"/>
<path style="fill:none;stroke-width:2;stroke-linecap:butt;stroke-linejoin:miter;stroke:rgb(0%,0%,0%);stroke-opacity:1;stroke-miterlimit:4;" d="M 91.500358 355.999976 L 75.500301 343.000252 L 59.500244 330.999951 " transform="matrix(3.779528,0,0,3.779528,0,0)"/>
<path style="fill:none;stroke-width:2;stroke-linecap:butt;stroke-linejoin:miter;stroke:rgb(0%,0%,0%);stroke-opacity:1;stroke-miterlimit:4;" d="M 57.000138 327.500423 L 73.000195 335.499935 " transform="matrix(3.779528,0,0,3.779528,0,0)"/>
<path style="fill:none;stroke-width:2;stroke-linecap:butt;stroke-linejoin:miter;stroke:rgb(0%,0%,0%);stroke-opacity:1;stroke-miterlimit:4;" d="M 62.999772 327.500423 L 85.000496 343.50048 " transform="matrix(3.779528,0,0,3.779528,0,0)"/>
<path style="fill:none;stroke-width:2;stroke-linecap:butt;stroke-linejoin:miter;stroke:rgb(0%,0%,0%);stroke-opacity:1;stroke-miterlimit:4;" d="M 96.499536 323.999862 L 80.500513 291.999748 " transform="matrix(3.779528,0,0,3.779528,0,0)"/>
<path style="fill:none;stroke-width:2;stroke-linecap:butt;stroke-linejoin:miter;stroke:rgb(0%,0%,0%);stroke-opacity:1;stroke-miterlimit:4;" d="M 80.500513 284.500464 L 93.000008 300.499487 L 98.999642 316.999772 L 105.000309 333.500057 L 112.999821 349.500114 " transform="matrix(3.779528,0,0,3.779528,0,0)"/>
<path style="fill:none;stroke-width:2;stroke-linecap:butt;stroke-linejoin:miter;stroke:rgb(0%,0%,0%);stroke-opacity:1;stroke-miterlimit:4;" d="M 125.000122 315.500122 L 109.000065 293.999626 " transform="matrix(3.779528,0,0,3.779528,0,0)"/>
<path style="fill:none;stroke-width:2;stroke-linecap:butt;stroke-linejoin:miter;stroke:rgb(0%,0%,0%);stroke-opacity:1;stroke-miterlimit:4;" d="M 104.500081 282.99978 L 128.49965 276.499919 L 155.000358 302.500399 L 159.500342 318.500456 L 143.500285 334.500513 L 129.500106 350.499536 " transform="matrix(3.779528,0,0,3.779528,0,0)"/>
<path style="fill:none;stroke-width:2;stroke-linecap:butt;stroke-linejoin:miter;stroke:rgb(0%,0%,0%);stroke-opacity:1;stroke-miterlimit:4;" d="M 116.000155 293.500431 L 100.000098 283.500008 " transform="matrix(3.779528,0,0,3.779528,0,0)"/>
<path style="fill:none;stroke-width:2;stroke-linecap:butt;stroke-linejoin:miter;stroke:rgb(0%,0%,0%);stroke-opacity:1;stroke-miterlimit:4;" d="M 98.500448 282.99978 L 112.499593 299.500065 L 123.999666 315.500122 L 132.000212 331.500179 " transform="matrix(3.779528,0,0,3.779528,0,0)"/>
<path style="fill:none;stroke-width:2;stroke-linecap:butt;stroke-linejoin:miter;stroke:rgb(0%,0%,0%);stroke-opacity:1;stroke-miterlimit:4;" d="M 146.499585 285.499886 L 130.499528 275.000269 L 114.500505 273.000391 L 98.500448 280.999902 " transform="matrix(3.779528,0,0,3.779528,0,0)"/>
<path style="fill:none;stroke-width:2;stroke-linecap:butt;stroke-linejoin:miter;stroke:rgb(0%,0%,0%);stroke-opacity:1;stroke-miterlimit:4;" d="M 75.999495 285.499886 L 86.500146 301.499943 L 94.499658 317.5 L 100.500326 334.000285 L 106.499959 350.000342 L 110.499715 366.000399 L 80.500513 386.000212 L 62.499544 402.000269 L 67.999984 437.49991 L 83.499813 453.499967 L 99.49987 463.000163 L 115.499927 454.999618 L 131.499984 440.000016 L 147.500041 414.499764 L 163.500098 378.499894 L 179.500155 352.999642 L 196.000439 330.499723 L 212.000496 306.500155 L 237.999943 305.999927 L 253.499772 311.999561 L 270.000057 314.000472 L 286.000114 320.000106 L 308.500033 333.500057 L 324.50009 339.999919 " transform="matrix(3.779528,0,0,3.779528,0,0)"/>
<path style="fill:none;stroke-width:2;stroke-linecap:butt;stroke-linejoin:miter;stroke:rgb(0%,0%,0%);stroke-opacity:1;stroke-miterlimit:4;" d="M 309.00026 324.50009 L 296.999959 308.500033 " transform="matrix(3.779528,0,0,3.779528,0,0)"/>
<path style="fill:none;stroke-width:2;stroke-linecap:butt;stroke-linejoin:miter;stroke:rgb(0%,0%,0%);stroke-opacity:1;stroke-miterlimit:4;" d="M 293.000203 306.500155 L 296.999959 322.500212 L 316.499544 338.500269 L 334.500513 354.500326 L 316.499544 370.500382 L 304.500277 374.500138 L 308.500033 386.000212 L 323.999862 402.000269 L 350.000342 418.000326 " transform="matrix(3.779528,0,0,3.779528,0,0)"/>
<path style="fill:none;stroke-width:2;stroke-linecap:butt;stroke-linejoin:miter;stroke:rgb(0%,0%,0%);stroke-opacity:1;stroke-miterlimit:4;" d="M 378.499894 312.499788 L 361.999609 274.500041 L 345.999552 250.500472 L 330.499723 220.500236 L 314.499666 198.499512 L 298.499609 196.499634 " transform="matrix(3.779528,0,0,3.779528,0,0)"/>
<path style="fill:none;stroke-width:2;stroke-linecap:butt;stroke-linejoin:miter;stroke:rgb(0%,0%,0%);stroke-opacity:1;stroke-miterlimit:4;" d="M 304.000049 198.000317 L 307.999805 214.000374 L 309.999683 216.000252 " transform="matrix(3.779528,0,0,3.779528,0,0)"/>
<path style="fill:none;stroke-width:2;stroke-linecap:butt;stroke-linejoin:miter;stroke:rgb(0%,0%,0%);stroke-opacity:1;stroke-miterlimit:4;" d="M 320.000106 223.000342 L 304.000049 202.999495 " transform="matrix(3.779528,0,0,3.779528,0,0)"/>
<path style="fill:none;stroke-width:2;stroke-linecap:butt;stroke-linejoin:miter;stroke:rgb(0%,0%,0%);stroke-opacity:1;stroke-miterlimit:4;" d="M 294.499854 214.499569 L 296.499731 230.499626 L 292.499976 262.49974 L 316.499544 278.499797 L 328.499845 294.499854 L 334.999707 310.49991 " transform="matrix(3.779528,0,0,3.779528,0,0)"/>
<path style="fill:none;stroke-width:2;stroke-linecap:butt;stroke-linejoin:miter;stroke:rgb(0%,0%,0%);stroke-opacity:1;stroke-miterlimit:4;" d="M 306.500155 259.999634 L 290.500098 255.999878 " transform="matrix(3.779528,0,0,3.779528,0,0)"/>
<path style="fill:none;stroke-width:2;stroke-linecap:butt;stroke-linejoin:miter;stroke:rgb(0%,0%,0%);stroke-opacity:1;stroke-miterlimit:4;" d="M 244.499805 223.999764 L 228.499748 236.000065 L 212.000496 236.000065 L 196.000439 230.000431 " transform="matrix(3.779528,0,0,3.779528,0,0)"/>
<path style="fill:none;stroke-width:2;stroke-linecap:butt;stroke-linejoin:miter;stroke:rgb(0%,0%,0%);stroke-opacity:1;stroke-miterlimit:4;" d="M 192.499878 229.500203 L 208.499935 215.500024 L 224.499992 217.499902 L 240.500049 218.999552 " transform="matrix(3.779528,0,0,3.779528,0,0)"/>
<path style="fill:none;stroke-width:2;stroke-linecap:butt;stroke-linejoin:miter;stroke:rgb(0%,0%,0%);stroke-opacity:1;stroke-miterlimit:4;" d="M 226.49987 225.500448 L 210.499813 216.999674 " transform="matrix(3.779528,0,0,3.779528,0,0)"/>
<path style="fill:none;stroke-width:2;stroke-linecap:butt;stroke-linejoin:miter;stroke:rgb(0%,0%,0%);stroke-opacity:1;stroke-miterlimit:4;" d="M 209.000163 216.50048 L 204.500179 216.50048 L 198.499512 232.000309 L 214.499569 257.999756 L 230.000431 260.499862 L 246.000488 242.499927 L 261.999512 234.000187 L 254 235.499837 L 237.499715 250.999666 " transform="matrix(3.779528,0,0,3.779528,0,0)"/>
<path style="fill:none;stroke-width:2;stroke-linecap:butt;stroke-linejoin:miter;stroke:rgb(0%,0%,0%);stroke-opacity:1;stroke-miterlimit:4;" d="M 218.999552 254 L 211.000041 257.999756 L 202.999495 239.999821 L 188.500122 239.999821 L 187.999894 223.499536 L 203.999951 207.000285 L 195.500212 214.999797 L 179.500155 230.999854 " transform="matrix(3.779528,0,0,3.779528,0,0)"/>
<path style="fill:none;stroke-width:2;stroke-linecap:butt;stroke-linejoin:miter;stroke:rgb(0%,0%,0%);stroke-opacity:1;stroke-miterlimit:4;" d="M 159.500342 238.500171 L 175.500399 246.499683 L 191.500456 246.99991 L 207.500513 241.000277 L 223.000342 246.99991 " transform="matrix(3.779528,0,0,3.779528,0,0)"/>
<path style="fill:none;stroke-width:2;stroke-linecap:butt;stroke-linejoin:miter;stroke:rgb(0%,0%,0%);stroke-opacity:1;stroke-miterlimit:4;" d="M 250.000244 251.499894 L 234.000187 265.500073 L 217.499902 275.500496 L 201.499845 271.499707 L 185.499788 261.500317 L 169.499731 251.499894 " transform="matrix(3.779528,0,0,3.779528,0,0)"/>
<path style="fill:none;stroke-width:2;stroke-linecap:butt;stroke-linejoin:miter;stroke:rgb(0%,0%,0%);stroke-opacity:1;stroke-miterlimit:4;" d="M 160.499764 254.500228 L 176.499821 270.500285 L 198.499512 280.499674 L 212.499691 296.499731 L 220.500236 312.499788 L 206.500057 328.499845 L 196.000439 343.999674 L 184.000138 359.999731 L 173.999715 375.499561 L 166.000203 391.999845 L 157.999658 407.999902 L 149.499919 423.999959 L 139.000301 439.499788 L 123.000244 455.499845 " transform="matrix(3.779528,0,0,3.779528,0,0)"/>
<path style="fill:none;stroke-width:2;stroke-linecap:butt;stroke-linejoin:miter;stroke:rgb(0%,0%,0%);stroke-opacity:1;stroke-miterlimit:4;" d="M 123.000244 323.999862 L 112.999821 308.500033 L 98.999642 292.499976 L 105.499504 272.500163 L 123.500472 256.500106 L 139.499495 240.500049 L 128.999878 238.500171 L 112.999821 230.499626 L 96.999764 204.500179 " transform="matrix(3.779528,0,0,3.779528,0,0)"/>
<path style="fill:none;stroke-width:2;stroke-linecap:butt;stroke-linejoin:miter;stroke:rgb(0%,0%,0%);stroke-opacity:1;stroke-miterlimit:4;" d="M 100.000098 200.999618 L 116.000155 227.000098 " transform="matrix(3.779528,0,0,3.779528,0,0)"/>
<path style="fill:none;stroke-width:2;stroke-linecap:butt;stroke-linejoin:miter;stroke:rgb(0%,0%,0%);stroke-opacity:1;stroke-miterlimit:4;" d="M 144.999935 182.00026 L 130.499528 164.000326 L 124.499894 141.500407 L 116.500382 137.999845 L 116.000155 121.999788 L 113.500049 105.999731 L 133.499862 104.500081 L 129.500106 88.500024 L 133.499862 74.499845 L 117.499805 94.499658 " transform="matrix(3.779528,0,0,3.779528,0,0)"/>
<path style="fill:none;stroke-width:2;stroke-linecap:butt;stroke-linejoin:miter;stroke:rgb(0%,0%,0%);stroke-opacity:1;stroke-miterlimit:4;" d="M 121.499561 91.999552 L 125.50035 66.000106 L 141.500407 50.000049 L 157.500464 41.999504 L 173.499487 35.499642 L 189.999772 35.000448 L 205.999829 35.499642 L 222.500114 41.500309 L 238.500171 47.499943 L 254.500228 53.999805 L 270.000057 66.000106 L 286.000114 84.000041 L 302.500399 105.999731 L 308.500033 119.99991 L 313.000016 135.49974 L 314.499666 151.499797 L 314.499666 167.499854 L 308.500033 183.49991 L 316.499544 198.99974 L 327.999618 214.999797 L 336.500391 230.999854 L 344.499902 246.99991 L 354.500326 263.500195 L 364.499715 279.500252 L 370.999577 295.999504 L 377.000244 311.999561 L 382.999878 328.499845 L 388.999512 344.499902 L 393.000301 361.000187 L 397.000057 393.000301 L 397.000057 409.000358 L 375.000366 424.500187 " transform="matrix(3.779528,0,0,3.779528,0,0)"/>
<path style="fill:none;stroke-width:2;stroke-linecap:butt;stroke-linejoin:miter;stroke:rgb(0%,0%,0%);stroke-opacity:1;stroke-miterlimit:4;" d="M 391.499618 404.500374 L 391.499618 388.500317 L 389.49974 372.50026 L 384.999756 355.999976 L 381 339.999919 L 375.000366 323.999862 L 369.499927 307.499577 L 361.500415 291.49952 L 348.999886 273.499585 L 333.500057 280.00048 L 317.5 271.999935 L 307.499577 266.000301 L 309.500488 264.000423 L 301.499943 248.000366 L 289.499642 241.999699 L 287.499764 225.999642 L 289.499642 210.499813 L 299.500065 194.499756 L 299.500065 178.499699 L 305.499699 173.999715 L 307.499577 166.000203 L 309.500488 150.500374 L 305.999927 134.00009 L 302.000171 118.000033 L 298.499609 101.499748 L 286.500342 85.499691 L 272.500163 80.999707 L 268.000179 65.499878 L 246.000488 51.999927 L 214.000374 46.000293 L 198.000317 54.500033 L 182.00026 54.500033 " transform="matrix(3.779528,0,0,3.779528,0,0)"/>
<path style="fill:none;stroke-width:2;stroke-linecap:butt;stroke-linejoin:miter;stroke:rgb(0%,0%,0%);stroke-opacity:1;stroke-miterlimit:4;" d="M 178.000505 60.999894 L 216.000252 77.500179 " transform="matrix(3.779528,0,0,3.779528,0,0)"/>
<path style="fill:none;stroke-width:2;stroke-linecap:butt;stroke-linejoin:miter;stroke:rgb(0%,0%,0%);stroke-opacity:1;stroke-miterlimit:4;" d="M 232.000309 76.499723 L 216.000252 72.499967 L 200.000195 64.000228 L 184.000138 64.000228 L 184.000138 57.999561 L 168.000081 57.500366 L 162.000448 53.999805 L 155.99978 50.000049 L 142.499829 42.499731 L 127 53.000382 L 110.999943 71.000317 L 94.999886 103.000431 " transform="matrix(3.779528,0,0,3.779528,0,0)"/>
<path style="fill:none;stroke-width:2;stroke-linecap:butt;stroke-linejoin:miter;stroke:rgb(0%,0%,0%);stroke-opacity:1;stroke-miterlimit:4;" d="M 116.000155 105.000309 L 132.500439 96.499536 L 134.999512 109.000065 L 146.999813 103.000431 L 155.499552 103.000431 " transform="matrix(3.779528,0,0,3.779528,0,0)"/>
<path style="fill:none;stroke-width:2;stroke-linecap:butt;stroke-linejoin:miter;stroke:rgb(0%,0%,0%);stroke-opacity:1;stroke-miterlimit:4;" d="M 166.000203 93.500236 L 157.999658 109.500293 L 144.000513 109.999487 L 152.000024 119.99991 L 159.999536 123.500472 L 158.499886 121.499561 L 159.999536 109.500293 L 175.999593 103.499626 L 180.000382 117.499805 L 196.499634 111.500171 L 200.999618 111.500171 L 216.50048 91.999552 L 228.999976 89.999674 " transform="matrix(3.779528,0,0,3.779528,0,0)"/>
<path style="fill:none;stroke-width:2;stroke-linecap:butt;stroke-linejoin:miter;stroke:rgb(0%,0%,0%);stroke-opacity:1;stroke-miterlimit:4;" d="M 241.999699 107.500415 L 225.999642 113.500049 " transform="matrix(3.779528,0,0,3.779528,0,0)"/>
<path style="fill:none;stroke-width:2;stroke-linecap:butt;stroke-linejoin:miter;stroke:rgb(0%,0%,0%);stroke-opacity:1;stroke-miterlimit:4;" d="M 230.499626 101.999976 L 216.000252 102.500203 L 200.000195 121.000366 " transform="matrix(3.779528,0,0,3.779528,0,0)"/>
<path style="fill:none;stroke-width:2;stroke-linecap:butt;stroke-linejoin:miter;stroke:rgb(0%,0%,0%);stroke-opacity:1;stroke-miterlimit:4;" d="M 172.500065 116.999577 L 174.499943 132.500439 L 164.49952 148.500496 L 158.499886 144.499707 L 166.500431 128.49965 L 192.499878 136.500195 L 207.000285 124.499894 L 223.000342 126.499772 L 239.499593 134.00009 L 255.000456 119.99991 " transform="matrix(3.779528,0,0,3.779528,0,0)"/>
<path style="fill:none;stroke-width:2;stroke-linecap:butt;stroke-linejoin:miter;stroke:rgb(0%,0%,0%);stroke-opacity:1;stroke-miterlimit:4;" d="M 259.000212 122.500016 L 252.999544 138.500073 " transform="matrix(3.779528,0,0,3.779528,0,0)"/>
<path style="fill:none;stroke-width:2;stroke-linecap:butt;stroke-linejoin:miter;stroke:rgb(0%,0%,0%);stroke-opacity:1;stroke-miterlimit:4;" d="M 275.500496 136.500195 L 275.500496 152.500252 L 269.499829 176.499821 L 275.500496 184.500366 L 273.499585 200.500423 L 271.499707 216.000252 L 259.999634 237.999943 L 248.000366 254 L 230.499626 270.000057 L 238.500171 270.000057 L 255.000456 255.49965 L 271.000513 235.499837 L 286.999536 217.499902 L 296.499731 213.500146 L 311.999561 225.00022 " transform="matrix(3.779528,0,0,3.779528,0,0)"/>
<path style="fill:none;stroke-width:2;stroke-linecap:butt;stroke-linejoin:miter;stroke:rgb(0%,0%,0%);stroke-opacity:1;stroke-miterlimit:4;" d="M 307.000382 174.499943 L 296.999959 170.500187 L 302.999593 156.500008 L 300.499487 139.999723 L 294.499854 123.999666 L 286.000114 107.999609 L 291.999748 99.49987 L 277.500374 83.499813 L 253.499772 67.499756 L 245.000033 59.500244 L 228.499748 49.499821 L 212.499691 51.499699 " transform="matrix(3.779528,0,0,3.779528,0,0)"/>
<path style="fill:none;stroke-width:2;stroke-linecap:butt;stroke-linejoin:miter;stroke:rgb(0%,0%,0%);stroke-opacity:1;stroke-miterlimit:4;" d="M 212.000496 55.00026 L 227.99952 62.999772 L 251.499894 70.50009 L 267.499951 82.500391 L 282.000358 93.000008 L 298.000415 119.000488 " transform="matrix(3.779528,0,0,3.779528,0,0)"/>
<path style="fill:none;stroke-width:2;stroke-linecap:butt;stroke-linejoin:miter;stroke:rgb(0%,0%,0%);stroke-opacity:1;stroke-miterlimit:4;" d="M 291.49952 109.500293 L 299.500065 125.50035 L 303.499821 141.500407 L 305.499699 157.000236 " transform="matrix(3.779528,0,0,3.779528,0,0)"/>
<path style="fill:none;stroke-width:2;stroke-linecap:butt;stroke-linejoin:miter;stroke:rgb(0%,0%,0%);stroke-opacity:1;stroke-miterlimit:4;" d="M 270.000057 121.999788 L 263.500195 137.999845 L 266.000301 158.499886 L 239.999821 174.499943 L 238.500171 189.999772 L 240.500049 205.499601 L 232.999731 221.999886 L 234.999609 234.000187 L 250.999666 225.999642 " transform="matrix(3.779528,0,0,3.779528,0,0)"/>
<path style="fill:none;stroke-width:2;stroke-linecap:butt;stroke-linejoin:miter;stroke:rgb(0%,0%,0%);stroke-opacity:1;stroke-miterlimit:4;" d="M 243.000155 224.499992 L 247.500138 208.499935 L 241.500505 192.499878 " transform="matrix(3.779528,0,0,3.779528,0,0)"/>
<path style="fill:none;stroke-width:2;stroke-linecap:butt;stroke-linejoin:miter;stroke:rgb(0%,0%,0%);stroke-opacity:1;stroke-miterlimit:4;" d="M 202.500301 193.500334 L 186.500244 191.500456 " transform="matrix(3.779528,0,0,3.779528,0,0)"/>
<path style="fill:none;stroke-width:2;stroke-linecap:butt;stroke-linejoin:miter;stroke:rgb(0%,0%,0%);stroke-opacity:1;stroke-miterlimit:4;" d="M 177.500277 179.500155 L 193.500334 185.499788 L 209.500391 181.500033 " transform="matrix(3.779528,0,0,3.779528,0,0)"/>
<path style="fill:none;stroke-width:2;stroke-linecap:butt;stroke-linejoin:miter;stroke:rgb(0%,0%,0%);stroke-opacity:1;stroke-miterlimit:4;" d="M 219.49978 164.49952 L 203.499723 164.49952 L 187.499666 162.99987 " transform="matrix(3.779528,0,0,3.779528,0,0)"/>
<path style="fill:none;stroke-width:2;stroke-linecap:butt;stroke-linejoin:miter;stroke:rgb(0%,0%,0%);stroke-opacity:1;stroke-miterlimit:4;" d="M 184.500366 157.500464 L 216.50048 157.500464 " transform="matrix(3.779528,0,0,3.779528,0,0)"/>
<path style="fill:none;stroke-width:2;stroke-linecap:butt;stroke-linejoin:miter;stroke:rgb(0%,0%,0%);stroke-opacity:1;stroke-miterlimit:4;" d="M 166.999626 148.000269 L 177.000049 128.000456 L 189.00035 119.99991 L 202.999495 105.999731 L 216.999674 89.999674 L 232.999731 87.999797 L 211.500269 69.999862 L 215.500024 53.999805 L 203.999951 44.000415 L 188.500122 46.000293 L 172.500065 43.500187 " transform="matrix(3.779528,0,0,3.779528,0,0)"/>
<path style="fill:none;stroke-width:2;stroke-linecap:butt;stroke-linejoin:miter;stroke:rgb(0%,0%,0%);stroke-opacity:1;stroke-miterlimit:4;" d="M 162.99987 45.500065 L 132.999634 45.500065 L 115.499927 61.500122 L 103.499626 77.500179 L 98.00022 93.000008 L 91.999552 109.500293 L 91.999552 125.50035 L 94.000464 141.999601 L 100.000098 157.999658 L 91.999552 174.499943 L 91.999552 190.5 L 96.000342 207.000285 L 103.499626 223.000342 L 125.50035 238.500171 " transform="matrix(3.779528,0,0,3.779528,0,0)"/>
<path style="fill:none;stroke-width:2;stroke-linecap:butt;stroke-linejoin:miter;stroke:rgb(0%,0%,0%);stroke-opacity:1;stroke-miterlimit:4;" d="M 118.000033 227.500326 L 103.999854 212.000496 L 98.500448 196.000439 L 96.999764 180.499577 L 103.000431 164.49952 L 93.500236 174.499943 " transform="matrix(3.779528,0,0,3.779528,0,0)"/>
<path style="fill:none;stroke-width:2;stroke-linecap:butt;stroke-linejoin:miter;stroke:rgb(0%,0%,0%);stroke-opacity:1;stroke-miterlimit:4;" d="M 107.000187 162.499642 L 109.000065 178.499699 L 112.999821 193.999528 " transform="matrix(3.779528,0,0,3.779528,0,0)"/>
<path style="fill:none;stroke-width:2;stroke-linecap:butt;stroke-linejoin:miter;stroke:rgb(0%,0%,0%);stroke-opacity:1;stroke-miterlimit:4;" d="M 119.499683 171.499609 L 103.499626 157.999658 " transform="matrix(3.779528,0,0,3.779528,0,0)"/>
<path style="fill:none;stroke-width:2;stroke-linecap:butt;stroke-linejoin:miter;stroke:rgb(0%,0%,0%);stroke-opacity:1;stroke-miterlimit:4;" d="M 100.000098 130.000334 L 103.499626 123.999666 L 101.499748 107.999609 L 105.499504 98.00022 L 131.499984 94.000464 L 123.500472 81.499935 L 144.999935 78.000407 L 141.000179 82.000163 " transform="matrix(3.779528,0,0,3.779528,0,0)"/>
<path style="fill:none;stroke-width:2;stroke-linecap:butt;stroke-linejoin:miter;stroke:rgb(0%,0%,0%);stroke-opacity:1;stroke-miterlimit:4;" d="M 109.999487 80.500513 L 125.999544 60.000472 L 118.000033 69.499634 L 116.000155 85.499691 L 109.500293 101.499748 L 107.500415 117.499805 L 107.500415 132.999634 L 100.000098 155.000358 L 104.500081 141.500407 " transform="matrix(3.779528,0,0,3.779528,0,0)"/>
<path style="fill:none;stroke-width:2;stroke-linecap:butt;stroke-linejoin:miter;stroke:rgb(0%,0%,0%);stroke-opacity:1;stroke-miterlimit:4;" d="M 128.000456 137.499618 L 143.500285 141.500407 L 151.499797 162.99987 " transform="matrix(3.779528,0,0,3.779528,0,0)"/>
<path style="fill:none;stroke-width:2;stroke-linecap:butt;stroke-linejoin:miter;stroke:rgb(0%,0%,0%);stroke-opacity:1;stroke-miterlimit:4;" d="M 198.000317 74.499845 L 166.000203 61.500122 " transform="matrix(3.779528,0,0,3.779528,0,0)"/>
<path style="fill:none;stroke-width:2;stroke-linecap:butt;stroke-linejoin:miter;stroke:rgb(0%,0%,0%);stroke-opacity:1;stroke-miterlimit:4;" d="M 164.999748 57.999561 L 193.500334 73.999618 L 207.000285 73.500423 L 227.500326 67.499756 L 231.500081 79.500057 L 248.000366 75.500301 L 261.999512 73.500423 L 278.499797 82.000163 L 294.499854 101.999976 L 311.000138 140.499951 " transform="matrix(3.779528,0,0,3.779528,0,0)"/>
<path style="fill:none;stroke-width:2;stroke-linecap:butt;stroke-linejoin:miter;stroke:rgb(0%,0%,0%);stroke-opacity:1;stroke-miterlimit:4;" d="M 284.999658 103.499626 L 270.500285 103.499626 L 256.500106 111.500171 L 252.50035 103.499626 L 236.500293 119.499683 L 236.000065 132.000212 L 241.999699 116.500382 L 248.000366 100.500326 L 248.000366 80.500513 L 236.000065 64.500456 L 202.000073 57.999561 " transform="matrix(3.779528,0,0,3.779528,0,0)"/>
<path style="fill:none;stroke-width:2;stroke-linecap:butt;stroke-linejoin:miter;stroke:rgb(0%,0%,0%);stroke-opacity:1;stroke-miterlimit:4;" d="M 218.00013 59.500244 L 232.000309 75.500301 L 245.50026 91.500358 L 227.500326 99.49987 L 207.500513 111.500171 L 193.999528 125.999544 L 184.000138 131.499984 L 180.000382 147.500041 L 175.999593 180.000382 L 178.000505 187.999894 L 193.999528 190.5 " transform="matrix(3.779528,0,0,3.779528,0,0)"/>
<path style="fill:none;stroke-width:2;stroke-linecap:butt;stroke-linejoin:miter;stroke:rgb(0%,0%,0%);stroke-opacity:1;stroke-miterlimit:4;" d="M 167.499854 272.500163 L 177.500277 288.50022 L 193.500334 304.500277 L 221.499658 320.500334 L 215.500024 336.000163 L 212.000496 352.00022 L 211.500269 368.000277 L 189.499544 379.999544 L 183.49991 386.000212 L 199.499967 373.99991 " transform="matrix(3.779528,0,0,3.779528,0,0)"/>
<path style="fill:none;stroke-width:2;stroke-linecap:butt;stroke-linejoin:miter;stroke:rgb(0%,0%,0%);stroke-opacity:1;stroke-miterlimit:4;" d="M 211.000041 339.499691 L 216.999674 323.999862 " transform="matrix(3.779528,0,0,3.779528,0,0)"/>
<path style="fill:none;stroke-width:2;stroke-linecap:butt;stroke-linejoin:miter;stroke:rgb(0%,0%,0%);stroke-opacity:1;stroke-miterlimit:4;" d="M 208.499935 301.499943 L 192.499878 293.500431 L 176.499821 277.500374 L 160.499764 271.999935 L 144.499707 270.000057 L 134.500317 250.500472 L 118.50026 264.499618 L 101.999976 274.500041 L 85.499691 276.499919 L 69.499634 278.499797 L 53.999805 286.000114 L 37.999748 300.499487 " transform="matrix(3.779528,0,0,3.779528,0,0)"/>
<path style="fill:none;stroke-width:2;stroke-linecap:butt;stroke-linejoin:miter;stroke:rgb(0%,0%,0%);stroke-opacity:1;stroke-miterlimit:4;" d="M 43.500187 300.000293 L 59.500244 289.99987 L 75.000073 282.499552 L 91.00013 280.499674 L 107.500415 300.499487 L 123.500472 330.499723 " transform="matrix(3.779528,0,0,3.779528,0,0)"/>
<path style="fill:none;stroke-width:2;stroke-linecap:butt;stroke-linejoin:miter;stroke:rgb(0%,0%,0%);stroke-opacity:1;stroke-miterlimit:4;" d="M 155.499552 320.999528 L 139.499495 339.499691 L 123.500472 354.000098 L 107.999609 341.999797 L 91.999552 298.499609 L 75.999495 286.000114 " transform="matrix(3.779528,0,0,3.779528,0,0)"/>
<path style="fill:none;stroke-width:2;stroke-linecap:butt;stroke-linejoin:miter;stroke:rgb(0%,0%,0%);stroke-opacity:1;stroke-miterlimit:4;" d="M 67.499756 282.99978 L 43.500187 298.999837 L 57.500366 315.500122 L 77.500179 331.500179 L 99.49987 350.000342 L 103.499626 363.999487 " transform="matrix(3.779528,0,0,3.779528,0,0)"/>
<path style="fill:none;stroke-width:2;stroke-linecap:butt;stroke-linejoin:miter;stroke:rgb(0%,0%,0%);stroke-opacity:1;stroke-miterlimit:4;" d="M 96.499536 342.500024 L 80.000285 324.50009 L 64.000228 316.499544 " transform="matrix(3.779528,0,0,3.779528,0,0)"/>
<path style="fill:none;stroke-width:2;stroke-linecap:butt;stroke-linejoin:miter;stroke:rgb(0%,0%,0%);stroke-opacity:1;stroke-miterlimit:4;" d="M 61.500122 307.999805 L 77.500179 318.000228 " transform="matrix(3.779528,0,0,3.779528,0,0)"/>
<path style="fill:none;stroke-width:2;stroke-linecap:butt;stroke-linejoin:miter;stroke:rgb(0%,0%,0%);stroke-opacity:1;stroke-miterlimit:4;" d="M 78.999829 300.499487 L 62.999772 290.500098 " transform="matrix(3.779528,0,0,3.779528,0,0)"/>
<path style="fill:none;stroke-width:2;stroke-linecap:butt;stroke-linejoin:miter;stroke:rgb(0%,0%,0%);stroke-opacity:1;stroke-miterlimit:4;" d="M 61.500122 291.49952 L 81.499935 307.499577 L 82.000163 321.499756 " transform="matrix(3.779528,0,0,3.779528,0,0)"/>
<path style="fill:none;stroke-width:2;stroke-linecap:butt;stroke-linejoin:miter;stroke:rgb(0%,0%,0%);stroke-opacity:1;stroke-miterlimit:4;" d="M 80.000285 313.500244 L 62.00035 317.5 L 46.000293 305.499699 " transform="matrix(3.779528,0,0,3.779528,0,0)"/>
<path style="fill:none;stroke-width:2;stroke-linecap:butt;stroke-linejoin:miter;stroke:rgb(0%,0%,0%);stroke-opacity:1;stroke-miterlimit:4;" d="M 41.999504 306.500155 L 39.999626 323.000439 L 37.49952 339.000496 L 35.499642 354.500326 L 33.499764 370.500382 L 31.499886 386.000212 L 30.000236 402.000269 L 51.499699 395.999601 L 67.999984 386.000212 " transform="matrix(3.779528,0,0,3.779528,0,0)"/>
<path style="fill:none;stroke-width:2;stroke-linecap:butt;stroke-linejoin:miter;stroke:rgb(0%,0%,0%);stroke-opacity:1;stroke-miterlimit:4;" d="M 92.49978 359.999731 L 76.499723 355.999976 L 60.499666 348.499658 L 44.499609 338.500269 " transform="matrix(3.779528,0,0,3.779528,0,0)"/>
<path style="fill:none;stroke-width:2;stroke-linecap:butt;stroke-linejoin:miter;stroke:rgb(0%,0%,0%);stroke-opacity:1;stroke-miterlimit:4;" d="M 41.999504 336.000163 L 57.500366 339.999919 L 73.000195 349.500114 " transform="matrix(3.779528,0,0,3.779528,0,0)"/>
<path style="fill:none;stroke-width:2;stroke-linecap:butt;stroke-linejoin:miter;stroke:rgb(0%,0%,0%);stroke-opacity:1;stroke-miterlimit:4;" d="M 89.999674 341.999797 L 73.999618 327.999618 L 73.500423 305.999927 L 57.500366 304.000049 " transform="matrix(3.779528,0,0,3.779528,0,0)"/>
<path style="fill:none;stroke-width:2;stroke-linecap:butt;stroke-linejoin:miter;stroke:rgb(0%,0%,0%);stroke-opacity:1;stroke-miterlimit:4;" d="M 48.000171 300.999715 L 55.999683 298.999837 L 67.999984 315.500122 L 85.499691 331.500179 L 93.500236 348.000464 " transform="matrix(3.779528,0,0,3.779528,0,0)"/>
<path style="fill:none;stroke-width:2;stroke-linecap:butt;stroke-linejoin:miter;stroke:rgb(0%,0%,0%);stroke-opacity:1;stroke-miterlimit:4;" d="M 76.999951 352.00022 L 48.999593 336.500391 " transform="matrix(3.779528,0,0,3.779528,0,0)"/>
<path style="fill:none;stroke-width:2;stroke-linecap:butt;stroke-linejoin:miter;stroke:rgb(0%,0%,0%);stroke-opacity:1;stroke-miterlimit:4;" d="M 46.000293 334.000285 L 64.000228 350.000342 L 95.500114 366.000399 " transform="matrix(3.779528,0,0,3.779528,0,0)"/>
<path style="fill:none;stroke-width:2;stroke-linecap:butt;stroke-linejoin:miter;stroke:rgb(0%,0%,0%);stroke-opacity:1;stroke-miterlimit:4;" d="M 57.000138 377.999666 L 41.500309 389.999967 L 55.500488 377.999666 L 41.500309 352.00022 " transform="matrix(3.779528,0,0,3.779528,0,0)"/>
<path style="fill:none;stroke-width:2;stroke-linecap:butt;stroke-linejoin:miter;stroke:rgb(0%,0%,0%);stroke-opacity:1;stroke-miterlimit:4;" d="M 72.499967 341.999797 L 60.999894 325.499512 " transform="matrix(3.779528,0,0,3.779528,0,0)"/>
<path style="fill:none;stroke-width:2;stroke-linecap:butt;stroke-linejoin:miter;stroke:rgb(0%,0%,0%);stroke-opacity:1;stroke-miterlimit:4;" d="M 69.000439 277.999569 L 41.000081 293.500431 L 35.499642 309.500488 L 33.999992 325.499512 L 32.500342 341.499569 L 30.500464 357.999854 L 28.99978 373.99991 L 26.999902 389.999967 L 24.499797 406.000024 L 34.50022 406.000024 L 50.500277 390.500195 L 64.500456 382.49965 L 80.500513 377.999666 L 96.499536 373.99991 L 98.500448 366.000399 L 112.499593 363.999487 " transform="matrix(3.779528,0,0,3.779528,0,0)"/>
<path style="fill:none;stroke-width:2;stroke-linecap:butt;stroke-linejoin:miter;stroke:rgb(0%,0%,0%);stroke-opacity:1;stroke-miterlimit:4;" d="M 237.999943 321.499756 L 220.000008 359.999731 L 230.000431 343.999674 L 236.000065 328.499845 L 239.999821 312.499788 " transform="matrix(3.779528,0,0,3.779528,0,0)"/>
<path style="fill:none;stroke-width:2;stroke-linecap:butt;stroke-linejoin:miter;stroke:rgb(0%,0%,0%);stroke-opacity:1;stroke-miterlimit:4;" d="M 229.500203 329.000073 L 219.49978 359.000309 L 211.500269 354.99952 L 205.499601 365.500171 L 205.499601 350.000342 L 225.00022 338.500269 L 232.999731 322.500212 L 239.000399 308.500033 L 232.499504 292.499976 " transform="matrix(3.779528,0,0,3.779528,0,0)"/>
<path style="fill:none;stroke-width:2;stroke-linecap:butt;stroke-linejoin:miter;stroke:rgb(0%,0%,0%);stroke-opacity:1;stroke-miterlimit:4;" d="M 260.499862 134.999512 L 252.999544 148.999691 L 262.49974 132.999634 L 266.999723 116.999577 " transform="matrix(3.779528,0,0,3.779528,0,0)"/>
<path style="fill:none;stroke-width:2;stroke-linecap:butt;stroke-linejoin:miter;stroke:rgb(0%,0%,0%);stroke-opacity:1;stroke-miterlimit:4;" d="M 280.00048 106.499959 L 285.499886 121.999788 L 285.499886 137.499618 L 281.50013 153.499674 L 289.99987 169.999959 L 286.000114 202.000073 L 280.00048 218.00013 L 272.500163 234.000187 L 258.499984 249.500016 L 243.000155 265.500073 L 236.999487 281.50013 L 246.499683 287.999992 L 262.49974 291.999748 L 274.500041 286.000114 L 292.499976 305.999927 L 307.999805 309.999683 L 311.999561 326.499967 L 327.999618 328.499845 " transform="matrix(3.779528,0,0,3.779528,0,0)"/>
<path style="fill:none;stroke-width:2;stroke-linecap:butt;stroke-linejoin:miter;stroke:rgb(0%,0%,0%);stroke-opacity:1;stroke-miterlimit:4;" d="M 239.499593 64.000228 L 223.499536 55.999683 " transform="matrix(3.779528,0,0,3.779528,0,0)"/>
<path style="fill:none;stroke-width:2;stroke-linecap:butt;stroke-linejoin:miter;stroke:rgb(0%,0%,0%);stroke-opacity:1;stroke-miterlimit:4;" d="M 229.500203 51.000505 L 245.50026 66.999528 L 265.500073 82.999585 L 275.500496 99.49987 L 261.999512 105.999731 L 254 120.500138 L 246.000488 136.500195 L 268.000179 142.499829 " transform="matrix(3.779528,0,0,3.779528,0,0)"/>
</g>
</svg>
