<?xml version="1.0" encoding="UTF-8"?>
<svg xmlns="http://www.w3.org/2000/svg" xmlns:xlink="http://www.w3.org/1999/xlink" width="1935.11811" height="1935.11811" viewBox="0 0 1935.11811 1935.11811" version="1.1">
<g id="surface1">
<path style="fill:none;stroke-width:2;stroke-linecap:butt;stroke-linejoin:miter;stroke:rgb(0%,0%,0%);stroke-opacity:1;stroke-miterlimit:4;" d="M 135.49974 2.500106 L 125.50035 18.500163 L 117.499805 34.50022 L 113.500049 50.500277 L 111.500171 66.999528 L 111.500171 82.999585 L 103.499626 98.999642 L 101.499748 114.999699 L 103.000431 130.999756 L 109.000065 146.499585 L 116.500382 162.499642 L 132.999634 164.49952 L 143.000057 168.500309 L 146.999813 142.499829 L 187.499666 123.999666 L 203.499723 113.500049 L 219.49978 110.999943 L 235.499837 119.000488 " transform="matrix(3.779528,0,0,3.779528,0,0)"/>
<path style="fill:none;stroke-width:2;stroke-linecap:butt;stroke-linejoin:miter;stroke:rgb(0%,0%,0%);stroke-opacity:1;stroke-miterlimit:4;" d="M 226.49987 102.500203 L 230.499626 120.500138 L 236.500293 122.500016 L 239.999821 130.499528 L 234.000187 146.499585 L 244.499805 162.499642 L 248.499561 152.000024 L 264.499618 147.500041 L 258.499984 153.499674 L 240.500049 159.500342 L 256.500106 155.499552 L 274.500041 153.499674 L 292.499976 157.500464 L 318.500456 173.499487 L 312.499788 181.500033 L 302.000171 197.50009 L 282.000358 213.500146 L 268.000179 201.499845 " transform="matrix(3.779528,0,0,3.779528,0,0)"/>
<path style="fill:none;stroke-width:2;stroke-linecap:butt;stroke-linejoin:miter;stroke:rgb(0%,0%,0%);stroke-opacity:1;stroke-miterlimit:4;" d="M 265.500073 189.999772 L 250.000244 189.999772 " transform="matrix(3.779528,0,0,3.779528,0,0)"/>
<path style="fill:none;stroke-width:2;stroke-linecap:butt;stroke-linejoin:miter;stroke:rgb(0%,0%,0%);stroke-opacity:1;stroke-miterlimit:4;" d="M 239.000399 186.000016 L 255.000456 186.000016 L 271.499707 184.500366 " transform="matrix(3.779528,0,0,3.779528,0,0)"/>
<path style="fill:none;stroke-width:2;stroke-linecap:butt;stroke-linejoin:miter;stroke:rgb(0%,0%,0%);stroke-opacity:1;stroke-miterlimit:4;" d="M 273.000391 191.99965 L 285.499886 184.000138 L 291.999748 168.000081 L 288.50022 148.500496 L 264.499618 160.499764 L 248.499561 162.99987 " transform="matrix(3.779528,0,0,3.779528,0,0)"/>
<path style="fill:none;stroke-width:2;stroke-linecap:butt;stroke-linejoin:miter;stroke:rgb(0%,0%,0%);stroke-opacity:1;stroke-miterlimit:4;" d="M 240.500049 141.500407 L 240.500049 145.500163 L 246.499683 127.500228 L 241.000277 111.500171 L 232.499504 109.999487 L 218.500358 98.00022 L 202.000073 98.00022 L 186.000016 103.999854 " transform="matrix(3.779528,0,0,3.779528,0,0)"/>
<path style="fill:none;stroke-width:2;stroke-linecap:butt;stroke-linejoin:miter;stroke:rgb(0%,0%,0%);stroke-opacity:1;stroke-miterlimit:4;" d="M 198.499512 90.499902 L 182.500488 100.500326 L 198.499512 90.499902 L 214.499569 90.499902 L 230.499626 98.500448 " transform="matrix(3.779528,0,0,3.779528,0,0)"/>
<path style="fill:none;stroke-width:2;stroke-linecap:butt;stroke-linejoin:miter;stroke:rgb(0%,0%,0%);stroke-opacity:1;stroke-miterlimit:4;" d="M 209.000163 112.000399 L 184.999561 127.500228 L 197.50009 129.500106 L 200.000195 135.49974 L 208.499935 127.500228 L 222.500114 125.999544 " transform="matrix(3.779528,0,0,3.779528,0,0)"/>
<path style="fill:none;stroke-width:2;stroke-linecap:butt;stroke-linejoin:miter;stroke:rgb(0%,0%,0%);stroke-opacity:1;stroke-miterlimit:4;" d="M 220.000008 132.999634 L 204.500179 134.999512 " transform="matrix(3.779528,0,0,3.779528,0,0)"/>
<path style="fill:none;stroke-width:2;stroke-linecap:butt;stroke-linejoin:miter;stroke:rgb(0%,0%,0%);stroke-opacity:1;stroke-miterlimit:4;" d="M 180.999805 171.499609 L 197.50009 197.50009 L 212.999919 209.500391 L 228.999976 217.499902 L 244.499805 221.999886 L 259.999634 225.999642 L 275.999691 225.500448 L 292.499976 218.999552 L 308.500033 209.500391 L 325.000317 195.500212 L 341.000374 169.499731 " transform="matrix(3.779528,0,0,3.779528,0,0)"/>
<path style="fill:none;stroke-width:2;stroke-linecap:butt;stroke-linejoin:miter;stroke:rgb(0%,0%,0%);stroke-opacity:1;stroke-miterlimit:4;" d="M 372.50026 155.99978 L 356.500203 150.000146 L 339.999919 134.00009 " transform="matrix(3.779528,0,0,3.779528,0,0)"/>
<path style="fill:none;stroke-width:2;stroke-linecap:butt;stroke-linejoin:miter;stroke:rgb(0%,0%,0%);stroke-opacity:1;stroke-miterlimit:4;" d="M 352.999642 113.500049 L 359.000309 101.499748 L 345.00013 99.49987 L 361.000187 79.500057 L 377.000244 82.000163 L 386.999634 86.500146 " transform="matrix(3.779528,0,0,3.779528,0,0)"/>
<path style="fill:none;stroke-width:2;stroke-linecap:butt;stroke-linejoin:miter;stroke:rgb(0%,0%,0%);stroke-opacity:1;stroke-miterlimit:4;" d="M 375.999788 93.000008 L 368.000277 109.000065 L 361.500415 125.000122 L 361.500415 141.000179 L 369.499927 157.000236 " transform="matrix(3.779528,0,0,3.779528,0,0)"/>
<path style="fill:none;stroke-width:2;stroke-linecap:butt;stroke-linejoin:miter;stroke:rgb(0%,0%,0%);stroke-opacity:1;stroke-miterlimit:4;" d="M 358.500081 116.500382 L 373.99991 88.500024 L 389.999967 102.500203 L 393.499495 120.500138 L 389.49974 137.000423 L 379.50035 152.500252 L 360.499959 168.999504 L 340.500146 184.999561 L 329.000073 200.500423 L 327.500423 216.50048 L 321.499756 220.500236 L 323.000439 236.000065 L 323.000439 252.000122 L 336.500391 252.000122 " transform="matrix(3.779528,0,0,3.779528,0,0)"/>
<path style="fill:none;stroke-width:2;stroke-linecap:butt;stroke-linejoin:miter;stroke:rgb(0%,0%,0%);stroke-opacity:1;stroke-miterlimit:4;" d="M 329.999495 264.499618 L 347.500236 248.499561 L 359.999731 232.499504 L 357.999854 234.500415 L 341.999797 254.500228 L 325.99974 268.500407 L 309.999683 274.500041 L 293.999626 278.499797 L 277.999569 275.999691 L 262.49974 273.999813 L 246.499683 264.000423 L 230.499626 243.999577 " transform="matrix(3.779528,0,0,3.779528,0,0)"/>
<path style="fill:none;stroke-width:2;stroke-linecap:butt;stroke-linejoin:miter;stroke:rgb(0%,0%,0%);stroke-opacity:1;stroke-miterlimit:4;" d="M 227.99952 236.500293 L 232.000309 252.50035 L 250.000244 268.000179 " transform="matrix(3.779528,0,0,3.779528,0,0)"/>
<path style="fill:none;stroke-width:2;stroke-linecap:butt;stroke-linejoin:miter;stroke:rgb(0%,0%,0%);stroke-opacity:1;stroke-miterlimit:4;" d="M 259.000212 277.999569 L 234.999609 261.999512 L 225.00022 246.000488 L 221.000464 230.000431 L 218.999552 218.00013 L 202.999495 209.999585 L 187.000472 191.99965 L 171.000415 173.999715 " transform="matrix(3.779528,0,0,3.779528,0,0)"/>
<path style="fill:none;stroke-width:2;stroke-linecap:butt;stroke-linejoin:miter;stroke:rgb(0%,0%,0%);stroke-opacity:1;stroke-miterlimit:4;" d="M 130.499528 159.500342 L 114.500505 141.500407 " transform="matrix(3.779528,0,0,3.779528,0,0)"/>
<path style="fill:none;stroke-width:2;stroke-linecap:butt;stroke-linejoin:miter;stroke:rgb(0%,0%,0%);stroke-opacity:1;stroke-miterlimit:4;" d="M 107.500415 139.000301 L 123.500472 164.999748 L 139.999723 173.000293 L 155.99978 169.499731 L 164.49952 148.000269 " transform="matrix(3.779528,0,0,3.779528,0,0)"/>
<path style="fill:none;stroke-width:2;stroke-linecap:butt;stroke-linejoin:miter;stroke:rgb(0%,0%,0%);stroke-opacity:1;stroke-miterlimit:4;" d="M 156.500008 103.499626 L 140.499951 87.000374 " transform="matrix(3.779528,0,0,3.779528,0,0)"/>
<path style="fill:none;stroke-width:2;stroke-linecap:butt;stroke-linejoin:miter;stroke:rgb(0%,0%,0%);stroke-opacity:1;stroke-miterlimit:4;" d="M 141.000179 90.499902 L 156.500008 106.499959 L 164.49952 125.999544 L 166.500431 141.999601 L 162.000448 158.499886 L 171.999837 180.499577 L 186.000016 196.000439 L 203.999951 211.500269 L 231.500081 227.000098 L 235.499837 242.499927 L 251.499894 257.999756 " transform="matrix(3.779528,0,0,3.779528,0,0)"/>
<path style="fill:none;stroke-width:2;stroke-linecap:butt;stroke-linejoin:miter;stroke:rgb(0%,0%,0%);stroke-opacity:1;stroke-miterlimit:4;" d="M 252.999544 251.499894 L 239.000399 236.000065 " transform="matrix(3.779528,0,0,3.779528,0,0)"/>
<path style="fill:none;stroke-width:2;stroke-linecap:butt;stroke-linejoin:miter;stroke:rgb(0%,0%,0%);stroke-opacity:1;stroke-miterlimit:4;" d="M 232.000309 234.999609 L 248.000366 252.999544 L 263.500195 262.49974 L 279.500252 268.999601 L 295.000081 269.499829 L 310.49991 265.500073 " transform="matrix(3.779528,0,0,3.779528,0,0)"/>
<path style="fill:none;stroke-width:2;stroke-linecap:butt;stroke-linejoin:miter;stroke:rgb(0%,0%,0%);stroke-opacity:1;stroke-miterlimit:4;" d="M 323.999862 227.500326 L 340.500146 227.500326 L 357.000431 225.500448 L 393.499495 231.500081 L 425.000415 248.000366 L 455.499845 264.000423 L 465.500269 280.00048 L 471.499902 295.999504 L 475.999886 312.499788 L 482.499748 328.499845 L 488.000187 345.00013 L 493.999821 361.000187 L 481.99952 376.500016 L 485.500081 392.500073 L 490.999487 407.999902 L 495.000277 423.499731 L 500.99991 439.499788 L 504.999666 454.999618 L 509.000456 470.999674 L 509.000456 486.999731 " transform="matrix(3.779528,0,0,3.779528,0,0)"/>
<path style="fill:none;stroke-width:2;stroke-linecap:butt;stroke-linejoin:miter;stroke:rgb(0%,0%,0%);stroke-opacity:1;stroke-miterlimit:4;" d="M 463.999585 430.499821 L 447.500334 406.500252 " transform="matrix(3.779528,0,0,3.779528,0,0)"/>
<path style="fill:none;stroke-width:2;stroke-linecap:butt;stroke-linejoin:miter;stroke:rgb(0%,0%,0%);stroke-opacity:1;stroke-miterlimit:4;" d="M 447.000106 397.500285 L 456.999495 413.500342 L 466.999919 429.999593 L 469.500024 452.499512 L 472.00013 454.500423 " transform="matrix(3.779528,0,0,3.779528,0,0)"/>
<path style="fill:none;stroke-width:2;stroke-linecap:butt;stroke-linejoin:miter;stroke:rgb(0%,0%,0%);stroke-opacity:1;stroke-miterlimit:4;" d="M 463.000163 436.00026 L 461.000285 413.500342 L 445.000228 397.500285 " transform="matrix(3.779528,0,0,3.779528,0,0)"/>
<path style="fill:none;stroke-width:2;stroke-linecap:butt;stroke-linejoin:miter;stroke:rgb(0%,0%,0%);stroke-opacity:1;stroke-miterlimit:4;" d="M 443.499544 398.000513 L 451.50009 413.999536 L 461.999707 429.999593 L 459.999829 445.99965 L 470.000252 462.499935 " transform="matrix(3.779528,0,0,3.779528,0,0)"/>
<path style="fill:none;stroke-width:2;stroke-linecap:butt;stroke-linejoin:miter;stroke:rgb(0%,0%,0%);stroke-opacity:1;stroke-miterlimit:4;" d="M 436.500488 465.500269 L 420.500431 439.499788 " transform="matrix(3.779528,0,0,3.779528,0,0)"/>
<path style="fill:none;stroke-width:2;stroke-linecap:butt;stroke-linejoin:miter;stroke:rgb(0%,0%,0%);stroke-opacity:1;stroke-miterlimit:4;" d="M 418.000326 436.500488 L 425.999837 452.499512 L 438.500366 468.499569 L 436.500488 484.999854 L 434.499577 500.99991 " transform="matrix(3.779528,0,0,3.779528,0,0)"/>
<path style="fill:none;stroke-width:2;stroke-linecap:butt;stroke-linejoin:miter;stroke:rgb(0%,0%,0%);stroke-opacity:1;stroke-miterlimit:4;" d="M 436.999683 445.500456 L 420.999626 421.499854 " transform="matrix(3.779528,0,0,3.779528,0,0)"/>
<path style="fill:none;stroke-width:2;stroke-linecap:butt;stroke-linejoin:miter;stroke:rgb(0%,0%,0%);stroke-opacity:1;stroke-miterlimit:4;" d="M 419.499976 420.999626 L 423.499731 436.999683 L 433.500155 454.000195 " transform="matrix(3.779528,0,0,3.779528,0,0)"/>
<path style="fill:none;stroke-width:2;stroke-linecap:butt;stroke-linejoin:miter;stroke:rgb(0%,0%,0%);stroke-opacity:1;stroke-miterlimit:4;" d="M 432.999927 468.000374 L 416.99987 443.999772 " transform="matrix(3.779528,0,0,3.779528,0,0)"/>
<path style="fill:none;stroke-width:2;stroke-linecap:butt;stroke-linejoin:miter;stroke:rgb(0%,0%,0%);stroke-opacity:1;stroke-miterlimit:4;" d="M 413.999536 438.500366 L 430.499821 447.999528 " transform="matrix(3.779528,0,0,3.779528,0,0)"/>
<path style="fill:none;stroke-width:2;stroke-linecap:butt;stroke-linejoin:miter;stroke:rgb(0%,0%,0%);stroke-opacity:1;stroke-miterlimit:4;" d="M 434.999805 444.5 L 425.000415 428.499943 " transform="matrix(3.779528,0,0,3.779528,0,0)"/>
<path style="fill:none;stroke-width:2;stroke-linecap:butt;stroke-linejoin:miter;stroke:rgb(0%,0%,0%);stroke-opacity:1;stroke-miterlimit:4;" d="M 409.499552 438.000138 L 409.499552 454.000195 L 407.499674 470.000252 L 407.999902 485.500081 L 406.500252 501.500138 " transform="matrix(3.779528,0,0,3.779528,0,0)"/>
<path style="fill:none;stroke-width:2;stroke-linecap:butt;stroke-linejoin:miter;stroke:rgb(0%,0%,0%);stroke-opacity:1;stroke-miterlimit:4;" d="M 358.500081 414.499764 L 374.500138 366.499593 L 391.000423 336.500391 L 404.999569 354.500326 " transform="matrix(3.779528,0,0,3.779528,0,0)"/>
<path style="fill:none;stroke-width:2;stroke-linecap:butt;stroke-linejoin:miter;stroke:rgb(0%,0%,0%);stroke-opacity:1;stroke-miterlimit:4;" d="M 391.499618 338.000041 L 401.500041 354.000098 L 404.999569 370.500382 L 409.000358 386.500439 L 417.500098 394.499951 L 433.500155 388.500317 L 449.500212 380.499772 L 465.500269 373.99991 L 481.500326 372.000033 L 489.499837 370.000155 " transform="matrix(3.779528,0,0,3.779528,0,0)"/>
<path style="fill:none;stroke-width:2;stroke-linecap:butt;stroke-linejoin:miter;stroke:rgb(0%,0%,0%);stroke-opacity:1;stroke-miterlimit:4;" d="M 486.499504 359.000309 L 482.499748 332.999829 " transform="matrix(3.779528,0,0,3.779528,0,0)"/>
<path style="fill:none;stroke-width:2;stroke-linecap:butt;stroke-linejoin:miter;stroke:rgb(0%,0%,0%);stroke-opacity:1;stroke-miterlimit:4;" d="M 474.000008 375.499561 L 436.00026 391.499618 L 416.000448 399.500163 L 432.000505 393.499495 L 447.999528 388.00009 L 463.999585 379.999544 L 479.500448 384.000334 " transform="matrix(3.779528,0,0,3.779528,0,0)"/>
<path style="fill:none;stroke-width:2;stroke-linecap:butt;stroke-linejoin:miter;stroke:rgb(0%,0%,0%);stroke-opacity:1;stroke-miterlimit:4;" d="M 475.999886 377.000244 L 481.99952 393.000301 L 488.000187 409.499552 L 491.499715 425.499609 L 495.500505 441.999894 L 500.99991 457.999951 L 504.999666 474.000008 L 505.499894 490.500293 L 505.499894 506.50035 " transform="matrix(3.779528,0,0,3.779528,0,0)"/>
<path style="fill:none;stroke-width:2;stroke-linecap:butt;stroke-linejoin:miter;stroke:rgb(0%,0%,0%);stroke-opacity:1;stroke-miterlimit:4;" d="M 325.499512 508 L 331.500179 495.999699 L 337.499813 479.999642 L 341.499569 463.999585 L 347.000008 447.999528 L 352.999642 432.000505 L 357.000431 416.000448 L 363.000065 399.500163 L 366.999821 383.500106 L 373.000488 367.500049 L 381.500228 352.00022 L 388.00009 336.000163 " transform="matrix(3.779528,0,0,3.779528,0,0)"/>
<path style="fill:none;stroke-width:2;stroke-linecap:butt;stroke-linejoin:miter;stroke:rgb(0%,0%,0%);stroke-opacity:1;stroke-miterlimit:4;" d="M 395.500407 332.000407 L 407.499674 348.499658 " transform="matrix(3.779528,0,0,3.779528,0,0)"/>
<path style="fill:none;stroke-width:2;stroke-linecap:butt;stroke-linejoin:miter;stroke:rgb(0%,0%,0%);stroke-opacity:1;stroke-miterlimit:4;" d="M 390.500195 325.000317 L 386.000212 327.500423 L 377.999666 343.50048 L 372.000033 359.999731 L 366.499593 375.999788 L 360.499959 392.500073 L 356.500203 409.000358 L 350.000342 425.000415 L 345.500358 441.000472 L 339.499691 456.500301 L 327.500423 488.500415 L 321.499756 504.500472 L 327.500423 488.500415 L 343.50048 441.999894 L 359.999731 391.999845 L 376.500016 350.000342 L 392.500073 327.500423 L 408.50013 348.000464 L 425.000415 309.999683 " transform="matrix(3.779528,0,0,3.779528,0,0)"/>
<path style="fill:none;stroke-width:2;stroke-linecap:butt;stroke-linejoin:miter;stroke:rgb(0%,0%,0%);stroke-opacity:1;stroke-miterlimit:4;" d="M 438.000138 293.500431 L 429.999593 309.500488 L 423.999959 325.000317 L 416.000448 341.000374 L 409.99978 357.000431 L 413.999536 373.000488 L 407.999902 400.999813 L 411.999658 416.99987 L 415.50022 433.500155 L 417.500098 449.500212 L 427.000293 465.500269 L 431.500277 481.99952 L 429.999593 497.500382 " transform="matrix(3.779528,0,0,3.779528,0,0)"/>
<path style="fill:none;stroke-width:2;stroke-linecap:butt;stroke-linejoin:miter;stroke:rgb(0%,0%,0%);stroke-opacity:1;stroke-miterlimit:4;" d="M 365.500171 319.499878 L 348.499658 364.999943 L 332.000407 409.000358 L 315.500122 450.499634 L 299.500065 490.500293 L 293.500431 504.000244 L 300.999715 487.499959 L 307.000382 471.499902 L 312.499788 454.999618 L 318.500456 438.999561 L 324.50009 422.999504 L 330.999951 407.00048 L 336.999585 391.000423 L 343.50048 375.000366 L 350.000342 359.499504 L 355.999976 343.000252 L 361.999609 327.000195 L 366.499593 311.500366 L 373.000488 295.500309 L 373.000488 285.499886 L 357.000431 289.499642 L 340.500146 295.500309 L 324.50009 299.500065 L 309.00026 301.499943 L 293.000203 301.499943 L 277.000146 299.500065 L 261.00009 295.500309 L 245.000033 289.499642 L 228.999976 281.50013 L 212.499691 265.500073 " transform="matrix(3.779528,0,0,3.779528,0,0)"/>
<path style="fill:none;stroke-width:2;stroke-linecap:butt;stroke-linejoin:miter;stroke:rgb(0%,0%,0%);stroke-opacity:1;stroke-miterlimit:4;" d="M 208.499935 255.999878 L 224.499992 271.999935 L 239.999821 282.000358 L 255.999878 289.499642 L 271.999935 293.500431 L 287.999992 295.500309 L 304.000049 295.000081 L 320.500334 293.500431 L 336.500391 291.49952 L 352.999642 285.499886 L 368.999699 282.000358 L 368.999699 286.000114 " transform="matrix(3.779528,0,0,3.779528,0,0)"/>
<path style="fill:none;stroke-width:2;stroke-linecap:butt;stroke-linejoin:miter;stroke:rgb(0%,0%,0%);stroke-opacity:1;stroke-miterlimit:4;" d="M 379.000122 287.999992 L 375.000366 303.499821 L 370.999577 318.99965 L 359.000309 350.999764 L 352.500448 366.999821 L 347.000008 382.999878 L 341.000374 398.999935 L 334.999707 415.50022 L 329.000073 431.500277 L 323.000439 450.000439 L 316.999772 465.500269 L 311.000138 481.500326 L 302.999593 497.500382 L 298.999837 507.499772 L 314.499666 468.000374 L 330.499723 426.500065 L 345.999552 384.499528 L 361.500415 338.500269 " transform="matrix(3.779528,0,0,3.779528,0,0)"/>
<path style="fill:none;stroke-width:2;stroke-linecap:butt;stroke-linejoin:miter;stroke:rgb(0%,0%,0%);stroke-opacity:1;stroke-miterlimit:4;" d="M 418.000326 336.999585 L 412.499886 339.499691 L 418.999748 323.499634 L 427.000293 307.499577 L 434.999805 291.49952 " transform="matrix(3.779528,0,0,3.779528,0,0)"/>
<path style="fill:none;stroke-width:2;stroke-linecap:butt;stroke-linejoin:miter;stroke:rgb(0%,0%,0%);stroke-opacity:1;stroke-miterlimit:4;" d="M 454.000195 259.999634 L 438.000138 252.000122 L 422.000081 243.500382 L 406.000024 236.000065 L 389.999967 227.500326 L 373.99991 219.49978 L 341.999797 223.499536 L 325.99974 215.500024 " transform="matrix(3.779528,0,0,3.779528,0,0)"/>
<path style="fill:none;stroke-width:2;stroke-linecap:butt;stroke-linejoin:miter;stroke:rgb(0%,0%,0%);stroke-opacity:1;stroke-miterlimit:4;" d="M 324.50009 203.499723 L 340.500146 183.49991 L 357.000431 168.999504 L 373.000488 160.999992 L 388.500317 137.000423 " transform="matrix(3.779528,0,0,3.779528,0,0)"/>
<path style="fill:none;stroke-width:2;stroke-linecap:butt;stroke-linejoin:miter;stroke:rgb(0%,0%,0%);stroke-opacity:1;stroke-miterlimit:4;" d="M 332.999829 102.500203 L 348.999886 78.499601 " transform="matrix(3.779528,0,0,3.779528,0,0)"/>
<path style="fill:none;stroke-width:2;stroke-linecap:butt;stroke-linejoin:miter;stroke:rgb(0%,0%,0%);stroke-opacity:1;stroke-miterlimit:4;" d="M 379.000122 55.999683 L 363.000065 26.00048 L 346.49978 10.000423 " transform="matrix(3.779528,0,0,3.779528,0,0)"/>
<path style="fill:none;stroke-width:2;stroke-linecap:butt;stroke-linejoin:miter;stroke:rgb(0%,0%,0%);stroke-opacity:1;stroke-miterlimit:4;" d="M 343.50048 2.500106 L 359.499504 18.500163 L 381.500228 34.50022 L 383.500106 52.500155 L 383.500106 84.000041 L 393.999723 100.000098 L 388.00009 116.000155 L 386.500439 132.000212 L 378.499894 148.000269 " transform="matrix(3.779528,0,0,3.779528,0,0)"/>
<path style="fill:none;stroke-width:2;stroke-linecap:butt;stroke-linejoin:miter;stroke:rgb(0%,0%,0%);stroke-opacity:1;stroke-miterlimit:4;" d="M 341.499569 142.499829 L 338.000041 126.499772 L 339.999919 110.499715 L 348.000464 94.499658 L 361.999609 78.499601 L 352.00022 53.999805 L 352.00022 37.999748 L 345.999552 25.500252 L 329.999495 9.500195 " transform="matrix(3.779528,0,0,3.779528,0,0)"/>
<path style="fill:none;stroke-width:2;stroke-linecap:butt;stroke-linejoin:miter;stroke:rgb(0%,0%,0%);stroke-opacity:1;stroke-miterlimit:4;" d="M 337.499813 3.499528 L 354.000098 9.500195 L 370.000155 26.00048 " transform="matrix(3.779528,0,0,3.779528,0,0)"/>
<path style="fill:none;stroke-width:2;stroke-linecap:butt;stroke-linejoin:miter;stroke:rgb(0%,0%,0%);stroke-opacity:1;stroke-miterlimit:4;" d="M 374.500138 14.999601 L 358.500081 3.000334 " transform="matrix(3.779528,0,0,3.779528,0,0)"/>
<path style="fill:none;stroke-width:2;stroke-linecap:butt;stroke-linejoin:miter;stroke:rgb(0%,0%,0%);stroke-opacity:1;stroke-miterlimit:4;" d="M 357.000431 2.500106 L 366.999821 18.500163 L 377.000244 37.999748 " transform="matrix(3.779528,0,0,3.779528,0,0)"/>
<path style="fill:none;stroke-width:2;stroke-linecap:butt;stroke-linejoin:miter;stroke:rgb(0%,0%,0%);stroke-opacity:1;stroke-miterlimit:4;" d="M 352.500448 62.00035 L 336.000163 57.999561 L 320.000106 38.499976 L 302.000171 30.999658 L 277.500374 5.000212 " transform="matrix(3.779528,0,0,3.779528,0,0)"/>
<path style="fill:none;stroke-width:2;stroke-linecap:butt;stroke-linejoin:miter;stroke:rgb(0%,0%,0%);stroke-opacity:1;stroke-miterlimit:4;" d="M 277.500374 3.499528 L 283.500008 19.499585 L 299.500065 41.500309 L 305.499699 41.000081 L 313.500244 51.000505 L 325.499512 66.500334 L 329.999495 82.500391 L 328.499845 98.00022 L 325.000317 114.000277 L 325.499512 130.000334 L 332.000407 146.000391 L 343.999674 162.000448 L 339.499691 178.000505 L 327.000195 193.500334 L 308.500033 209.500391 L 274.500041 218.00013 L 289.99987 209.500391 L 305.999927 191.500456 " transform="matrix(3.779528,0,0,3.779528,0,0)"/>
<path style="fill:none;stroke-width:2;stroke-linecap:butt;stroke-linejoin:miter;stroke:rgb(0%,0%,0%);stroke-opacity:1;stroke-miterlimit:4;" d="M 297.500187 153.499674 L 280.999902 149.499919 " transform="matrix(3.779528,0,0,3.779528,0,0)"/>
<path style="fill:none;stroke-width:2;stroke-linecap:butt;stroke-linejoin:miter;stroke:rgb(0%,0%,0%);stroke-opacity:1;stroke-miterlimit:4;" d="M 267.499951 127.500228 L 283.500008 123.500472 L 299.500065 116.999577 " transform="matrix(3.779528,0,0,3.779528,0,0)"/>
<path style="fill:none;stroke-width:2;stroke-linecap:butt;stroke-linejoin:miter;stroke:rgb(0%,0%,0%);stroke-opacity:1;stroke-miterlimit:4;" d="M 289.99987 119.99991 L 300.000293 109.999487 L 284.000236 118.000033 L 268.500407 122.500016 " transform="matrix(3.779528,0,0,3.779528,0,0)"/>
<path style="fill:none;stroke-width:2;stroke-linecap:butt;stroke-linejoin:miter;stroke:rgb(0%,0%,0%);stroke-opacity:1;stroke-miterlimit:4;" d="M 267.499951 110.499715 L 282.99978 100.500326 L 298.999837 98.500448 L 295.000081 106.499959 L 270.500285 105.999731 L 268.000179 121.999788 L 273.999813 114.000277 L 289.499642 112.000399 L 305.499699 105.999731 " transform="matrix(3.779528,0,0,3.779528,0,0)"/>
<path style="fill:none;stroke-width:2;stroke-linecap:butt;stroke-linejoin:miter;stroke:rgb(0%,0%,0%);stroke-opacity:1;stroke-miterlimit:4;" d="M 301.499943 81.499935 L 286.000114 84.000041 " transform="matrix(3.779528,0,0,3.779528,0,0)"/>
<path style="fill:none;stroke-width:2;stroke-linecap:butt;stroke-linejoin:miter;stroke:rgb(0%,0%,0%);stroke-opacity:1;stroke-miterlimit:4;" d="M 267.499951 86.500146 L 283.500008 80.000285 L 265.500073 80.000285 L 273.499585 76.499723 L 289.499642 72.499967 L 305.499699 76.499723 " transform="matrix(3.779528,0,0,3.779528,0,0)"/>
<path style="fill:none;stroke-width:2;stroke-linecap:butt;stroke-linejoin:miter;stroke:rgb(0%,0%,0%);stroke-opacity:1;stroke-miterlimit:4;" d="M 328.499845 146.000391 L 332.999829 132.000212 L 332.499601 116.000155 L 339.000496 100.500326 L 347.000008 84.500269 L 351.499992 70.50009 L 357.999854 53.999805 L 348.000464 53.999805 L 340.500146 37.999748 L 348.499658 29.500008 L 338.500269 17.499707 L 320.999528 1.49965 L 320.999528 3.499528 " transform="matrix(3.779528,0,0,3.779528,0,0)"/>
<path style="fill:none;stroke-width:2;stroke-linecap:butt;stroke-linejoin:miter;stroke:rgb(0%,0%,0%);stroke-opacity:1;stroke-miterlimit:4;" d="M 305.000505 2.500106 L 325.000317 18.500163 L 327.000195 32.000114 L 330.999951 33.999992 " transform="matrix(3.779528,0,0,3.779528,0,0)"/>
<path style="fill:none;stroke-width:2;stroke-linecap:butt;stroke-linejoin:miter;stroke:rgb(0%,0%,0%);stroke-opacity:1;stroke-miterlimit:4;" d="M 336.000163 29.500008 L 320.000106 13.499951 L 300.000293 17.000513 L 284.000236 3.499528 " transform="matrix(3.779528,0,0,3.779528,0,0)"/>
<path style="fill:none;stroke-width:2;stroke-linecap:butt;stroke-linejoin:miter;stroke:rgb(0%,0%,0%);stroke-opacity:1;stroke-miterlimit:4;" d="M 284.500464 3.000334 L 288.50022 18.500163 L 294.499854 44.499609 " transform="matrix(3.779528,0,0,3.779528,0,0)"/>
<path style="fill:none;stroke-width:2;stroke-linecap:butt;stroke-linejoin:miter;stroke:rgb(0%,0%,0%);stroke-opacity:1;stroke-miterlimit:4;" d="M 289.000448 3.000334 L 298.499609 19.000391 L 311.000138 26.999902 L 324.50009 42.999959 L 334.500513 58.499788 L 334.000285 72.499967 L 346.49978 80.500513 L 336.999585 96.000342 L 331.500179 112.000399 L 331.500179 127.500228 L 341.499569 146.000391 L 341.499569 155.99978 " transform="matrix(3.779528,0,0,3.779528,0,0)"/>
<path style="fill:none;stroke-width:2;stroke-linecap:butt;stroke-linejoin:miter;stroke:rgb(0%,0%,0%);stroke-opacity:1;stroke-miterlimit:4;" d="M 316.999772 187.000472 L 313.000016 214.999797 L 296.999959 225.00022 L 280.999902 230.999854 L 264.999845 232.999731 L 248.499561 229.500203 L 232.499504 227.000098 L 216.50048 223.000342 L 200.500423 216.999674 L 184.500366 214.999797 L 168.500309 216.50048 L 152.500252 218.500358 L 137.000423 226.49987 L 121.000366 239.999821 L 100.99952 252.000122 L 82.999585 261.999512 L 85.000496 266.000301 L 76.499723 266.000301 L 59.000016 249.500016 " transform="matrix(3.779528,0,0,3.779528,0,0)"/>
<path style="fill:none;stroke-width:2;stroke-linecap:butt;stroke-linejoin:miter;stroke:rgb(0%,0%,0%);stroke-opacity:1;stroke-miterlimit:4;" d="M 81.499935 252.50035 L 65.499878 246.499683 L 49.499821 242.499927 L 33.499764 244.499805 " transform="matrix(3.779528,0,0,3.779528,0,0)"/>
<path style="fill:none;stroke-width:2;stroke-linecap:butt;stroke-linejoin:miter;stroke:rgb(0%,0%,0%);stroke-opacity:1;stroke-miterlimit:4;" d="M 32.500342 241.500505 L 48.500399 213.500146 L 38.499976 230.000431 L 26.499674 246.000488 L 18.500163 261.999512 L 12.499495 277.999569 L 8.49974 293.999626 L 3.999756 309.999683 L 14.000179 327.999618 L 30.000236 331.500179 L 46.000293 331.500179 L 66.000106 311.500366 L 82.000163 314.000472 L 100.500326 300.000293 L 116.500382 304.000049 L 132.500439 318.000228 " transform="matrix(3.779528,0,0,3.779528,0,0)"/>
<path style="fill:none;stroke-width:2;stroke-linecap:butt;stroke-linejoin:miter;stroke:rgb(0%,0%,0%);stroke-opacity:1;stroke-miterlimit:4;" d="M 149.499919 290.500098 L 133.499862 274.500041 L 117.499805 261.00009 " transform="matrix(3.779528,0,0,3.779528,0,0)"/>
<path style="fill:none;stroke-width:2;stroke-linecap:butt;stroke-linejoin:miter;stroke:rgb(0%,0%,0%);stroke-opacity:1;stroke-miterlimit:4;" d="M 119.99991 257.000334 L 135.999967 270.500285 L 152.500252 286.000114 " transform="matrix(3.779528,0,0,3.779528,0,0)"/>
<path style="fill:none;stroke-width:2;stroke-linecap:butt;stroke-linejoin:miter;stroke:rgb(0%,0%,0%);stroke-opacity:1;stroke-miterlimit:4;" d="M 158.499886 277.999569 L 142.499829 268.500407 L 127 256.500106 " transform="matrix(3.779528,0,0,3.779528,0,0)"/>
<path style="fill:none;stroke-width:2;stroke-linecap:butt;stroke-linejoin:miter;stroke:rgb(0%,0%,0%);stroke-opacity:1;stroke-miterlimit:4;" d="M 125.999544 252.000122 L 141.999601 260.499862 L 157.999658 270.500285 " transform="matrix(3.779528,0,0,3.779528,0,0)"/>
<path style="fill:none;stroke-width:2;stroke-linecap:butt;stroke-linejoin:miter;stroke:rgb(0%,0%,0%);stroke-opacity:1;stroke-miterlimit:4;" d="M 155.99978 270.000057 L 134.00009 254 " transform="matrix(3.779528,0,0,3.779528,0,0)"/>
<path style="fill:none;stroke-width:2;stroke-linecap:butt;stroke-linejoin:miter;stroke:rgb(0%,0%,0%);stroke-opacity:1;stroke-miterlimit:4;" d="M 127 251.499894 L 143.000057 267.499951 " transform="matrix(3.779528,0,0,3.779528,0,0)"/>
<path style="fill:none;stroke-width:2;stroke-linecap:butt;stroke-linejoin:miter;stroke:rgb(0%,0%,0%);stroke-opacity:1;stroke-miterlimit:4;" d="M 103.499626 295.000081 L 85.499691 318.99965 L 75.500301 334.999707 L 79.500057 351.499992 L 101.499748 367.500049 " transform="matrix(3.779528,0,0,3.779528,0,0)"/>
<path style="fill:none;stroke-width:2;stroke-linecap:butt;stroke-linejoin:miter;stroke:rgb(0%,0%,0%);stroke-opacity:1;stroke-miterlimit:4;" d="M 100.000098 373.000488 L 78.000407 357.000431 L 71.99974 332.999829 L 81.499935 316.999772 L 89.999674 297.500187 L 96.000342 282.000358 L 99.49987 254 L 107.500415 232.000309 L 118.000033 216.50048 L 114.000277 206.500057 L 103.999854 205.999829 L 87.999797 207.500513 " transform="matrix(3.779528,0,0,3.779528,0,0)"/>
<path style="fill:none;stroke-width:2;stroke-linecap:butt;stroke-linejoin:miter;stroke:rgb(0%,0%,0%);stroke-opacity:1;stroke-miterlimit:4;" d="M 91.500358 221.499658 L 107.500415 221.499658 L 123.500472 213.500146 " transform="matrix(3.779528,0,0,3.779528,0,0)"/>
<path style="fill:none;stroke-width:2;stroke-linecap:butt;stroke-linejoin:miter;stroke:rgb(0%,0%,0%);stroke-opacity:1;stroke-miterlimit:4;" d="M 104.500081 202.000073 L 100.500326 189.499544 " transform="matrix(3.779528,0,0,3.779528,0,0)"/>
<path style="fill:none;stroke-width:2;stroke-linecap:butt;stroke-linejoin:miter;stroke:rgb(0%,0%,0%);stroke-opacity:1;stroke-miterlimit:4;" d="M 88.500024 183.49991 L 78.499601 199.499967 L 85.499691 223.499536 L 87.999797 245.50026 L 103.999854 253.499772 " transform="matrix(3.779528,0,0,3.779528,0,0)"/>
<path style="fill:none;stroke-width:2;stroke-linecap:butt;stroke-linejoin:miter;stroke:rgb(0%,0%,0%);stroke-opacity:1;stroke-miterlimit:4;" d="M 116.000155 212.000496 L 95.500114 217.499902 L 80.999707 233.499959 L 64.99965 233.499959 L 48.999593 225.00022 " transform="matrix(3.779528,0,0,3.779528,0,0)"/>
<path style="fill:none;stroke-width:2;stroke-linecap:butt;stroke-linejoin:miter;stroke:rgb(0%,0%,0%);stroke-opacity:1;stroke-miterlimit:4;" d="M 51.999927 221.499658 L 67.499756 229.500203 L 83.499813 225.00022 L 89.50048 198.99974 L 105.000309 194.999984 L 113.500049 196.999862 " transform="matrix(3.779528,0,0,3.779528,0,0)"/>
<path style="fill:none;stroke-width:2;stroke-linecap:butt;stroke-linejoin:miter;stroke:rgb(0%,0%,0%);stroke-opacity:1;stroke-miterlimit:4;" d="M 148.000269 217.499902 L 126.499772 233.499959 L 112.499593 249.500016 L 108.499837 266.000301 L 116.500382 254 L 132.500439 237.999943 L 148.500496 223.999764 L 164.49952 221.999886 L 180.000382 219.49978 L 195.500212 219.49978 L 213.500146 225.00022 L 221.499658 234.999609 L 231.500081 259.999634 L 247.500138 272.500163 L 263.500195 280.499674 L 279.500252 282.99978 L 295.999504 282.499552 L 311.999561 280.499674 L 327.999618 271.999935 L 343.50048 259.999634 L 359.999731 241.999699 L 375.999788 227.99952 L 392.500073 235.499837 L 408.50013 243.999577 L 425.000415 252.000122 L 441.000472 259.999634 L 456.999495 270.500285 " transform="matrix(3.779528,0,0,3.779528,0,0)"/>
<path style="fill:none;stroke-width:2;stroke-linecap:butt;stroke-linejoin:miter;stroke:rgb(0%,0%,0%);stroke-opacity:1;stroke-miterlimit:4;" d="M 377.000244 228.499748 L 441.000472 260.499862 L 459.000407 275.999691 L 465.000041 291.999748 L 470.999674 307.499577 L 477.000342 323.999862 L 482.999976 339.999919 L 486.999731 356.500203 L 471.499902 372.50026 L 433.500155 388.500317 L 404.999569 404.500374 L 409.000358 420.500431 L 404.500374 436.00026 L 404.000146 452.000317 L 404.000146 467.500146 L 401.500041 483.500203 L 401.500041 499.50026 " transform="matrix(3.779528,0,0,3.779528,0,0)"/>
<path style="fill:none;stroke-width:2;stroke-linecap:butt;stroke-linejoin:miter;stroke:rgb(0%,0%,0%);stroke-opacity:1;stroke-miterlimit:4;" d="M 178.999927 499.50026 L 162.499642 487.499959 L 146.499585 469.500024 " transform="matrix(3.779528,0,0,3.779528,0,0)"/>
<path style="fill:none;stroke-width:2;stroke-linecap:butt;stroke-linejoin:miter;stroke:rgb(0%,0%,0%);stroke-opacity:1;stroke-miterlimit:4;" d="M 144.000513 466.999919 L 159.999536 477.000342 L 175.500399 488.500415 L 191.500456 502.499561 " transform="matrix(3.779528,0,0,3.779528,0,0)"/>
<path style="fill:none;stroke-width:2;stroke-linecap:butt;stroke-linejoin:miter;stroke:rgb(0%,0%,0%);stroke-opacity:1;stroke-miterlimit:4;" d="M 184.500366 504.000244 L 164.49952 488.000187 " transform="matrix(3.779528,0,0,3.779528,0,0)"/>
<path style="fill:none;stroke-width:2;stroke-linecap:butt;stroke-linejoin:miter;stroke:rgb(0%,0%,0%);stroke-opacity:1;stroke-miterlimit:4;" d="M 168.000081 486.000309 L 187.999894 502.499561 " transform="matrix(3.779528,0,0,3.779528,0,0)"/>
<path style="fill:none;stroke-width:2;stroke-linecap:butt;stroke-linejoin:miter;stroke:rgb(0%,0%,0%);stroke-opacity:1;stroke-miterlimit:4;" d="M 159.500342 504.500472 L 155.99978 488.000187 L 148.500496 472.00013 L 143.000057 456.000073 L 141.000179 440.000016 L 141.000179 392.500073 L 143.000057 376.500016 L 142.499829 359.999731 L 144.499707 343.999674 L 148.000269 327.999618 L 150.000146 311.500366 L 151.499797 295.500309 L 135.49974 279.500252 L 119.000488 263.500195 L 100.500326 259.500439 L 108.499837 243.500382 L 116.500382 227.500326 L 125.000122 212.000496 L 128.999878 196.499634 L 121.499561 188.500122 L 105.499504 186.500244 L 89.999674 184.999561 L 73.999618 214.999797 L 58.499788 214.999797 L 41.999504 225.00022 L 26.00048 243.000155 " transform="matrix(3.779528,0,0,3.779528,0,0)"/>
<path style="fill:none;stroke-width:2;stroke-linecap:butt;stroke-linejoin:miter;stroke:rgb(0%,0%,0%);stroke-opacity:1;stroke-miterlimit:4;" d="M 32.000114 261.00009 L 48.500399 266.499495 L 64.99965 273.000391 L 80.999707 275.000269 " transform="matrix(3.779528,0,0,3.779528,0,0)"/>
<path style="fill:none;stroke-width:2;stroke-linecap:butt;stroke-linejoin:miter;stroke:rgb(0%,0%,0%);stroke-opacity:1;stroke-miterlimit:4;" d="M 75.500301 273.000391 L 59.500244 264.999845 L 44.000415 259.000212 L 28.000358 262.49974 " transform="matrix(3.779528,0,0,3.779528,0,0)"/>
<path style="fill:none;stroke-width:2;stroke-linecap:butt;stroke-linejoin:miter;stroke:rgb(0%,0%,0%);stroke-opacity:1;stroke-miterlimit:4;" d="M 23.999569 266.499495 L 39.999626 274.500041 L 55.999683 282.499552 L 71.99974 284.000236 " transform="matrix(3.779528,0,0,3.779528,0,0)"/>
<path style="fill:none;stroke-width:2;stroke-linecap:butt;stroke-linejoin:miter;stroke:rgb(0%,0%,0%);stroke-opacity:1;stroke-miterlimit:4;" d="M 51.999927 305.499699 L 35.99987 298.000415 L 19.999813 286.500342 " transform="matrix(3.779528,0,0,3.779528,0,0)"/>
<path style="fill:none;stroke-width:2;stroke-linecap:butt;stroke-linejoin:miter;stroke:rgb(0%,0%,0%);stroke-opacity:1;stroke-miterlimit:4;" d="M 21.000269 286.000114 L 41.000081 302.000171 " transform="matrix(3.779528,0,0,3.779528,0,0)"/>
<path style="fill:none;stroke-width:2;stroke-linecap:butt;stroke-linejoin:miter;stroke:rgb(0%,0%,0%);stroke-opacity:1;stroke-miterlimit:4;" d="M 53.000382 297.500187 L 37.000326 291.49952 L 21.000269 277.999569 " transform="matrix(3.779528,0,0,3.779528,0,0)"/>
<path style="fill:none;stroke-width:2;stroke-linecap:butt;stroke-linejoin:miter;stroke:rgb(0%,0%,0%);stroke-opacity:1;stroke-miterlimit:4;" d="M 16.500285 275.000269 L 32.500342 278.499797 L 48.999593 284.500464 " transform="matrix(3.779528,0,0,3.779528,0,0)"/>
<path style="fill:none;stroke-width:2;stroke-linecap:butt;stroke-linejoin:miter;stroke:rgb(0%,0%,0%);stroke-opacity:1;stroke-miterlimit:4;" d="M 43.500187 298.000415 L 25.500252 282.000358 " transform="matrix(3.779528,0,0,3.779528,0,0)"/>
<path style="fill:none;stroke-width:2;stroke-linecap:butt;stroke-linejoin:miter;stroke:rgb(0%,0%,0%);stroke-opacity:1;stroke-miterlimit:4;" d="M 17.499707 295.500309 L 33.499764 311.500366 L 55.500488 323.499634 L 57.500366 336.000163 L 57.000138 352.500448 L 57.000138 368.500505 L 55.00026 384.999756 L 51.499699 400.999813 " transform="matrix(3.779528,0,0,3.779528,0,0)"/>
<path style="fill:none;stroke-width:2;stroke-linecap:butt;stroke-linejoin:miter;stroke:rgb(0%,0%,0%);stroke-opacity:1;stroke-miterlimit:4;" d="M 71.499512 352.999642 L 87.499569 362.499837 " transform="matrix(3.779528,0,0,3.779528,0,0)"/>
<path style="fill:none;stroke-width:2;stroke-linecap:butt;stroke-linejoin:miter;stroke:rgb(0%,0%,0%);stroke-opacity:1;stroke-miterlimit:4;" d="M 96.000342 352.00022 L 80.000285 338.000041 " transform="matrix(3.779528,0,0,3.779528,0,0)"/>
<path style="fill:none;stroke-width:2;stroke-linecap:butt;stroke-linejoin:miter;stroke:rgb(0%,0%,0%);stroke-opacity:1;stroke-miterlimit:4;" d="M 77.500179 336.500391 L 87.499569 336.500391 L 103.499626 348.999886 " transform="matrix(3.779528,0,0,3.779528,0,0)"/>
<path style="fill:none;stroke-width:2;stroke-linecap:butt;stroke-linejoin:miter;stroke:rgb(0%,0%,0%);stroke-opacity:1;stroke-miterlimit:4;" d="M 89.999674 357.999854 L 73.999618 348.000464 " transform="matrix(3.779528,0,0,3.779528,0,0)"/>
<path style="fill:none;stroke-width:2;stroke-linecap:butt;stroke-linejoin:miter;stroke:rgb(0%,0%,0%);stroke-opacity:1;stroke-miterlimit:4;" d="M 62.999772 350.000342 L 78.999829 338.000041 L 97.499992 353.49987 " transform="matrix(3.779528,0,0,3.779528,0,0)"/>
<path style="fill:none;stroke-width:2;stroke-linecap:butt;stroke-linejoin:miter;stroke:rgb(0%,0%,0%);stroke-opacity:1;stroke-miterlimit:4;" d="M 103.000431 354.000098 L 85.499691 338.000041 " transform="matrix(3.779528,0,0,3.779528,0,0)"/>
<path style="fill:none;stroke-width:2;stroke-linecap:butt;stroke-linejoin:miter;stroke:rgb(0%,0%,0%);stroke-opacity:1;stroke-miterlimit:4;" d="M 78.000407 321.999984 L 62.00035 348.000464 " transform="matrix(3.779528,0,0,3.779528,0,0)"/>
<path style="fill:none;stroke-width:2;stroke-linecap:butt;stroke-linejoin:miter;stroke:rgb(0%,0%,0%);stroke-opacity:1;stroke-miterlimit:4;" d="M 21.000269 357.499626 L 31.499886 338.000041 L 23.999569 353.49987 L 17.999935 368.999699 L 14.500407 384.999756 L 4.499984 407.00048 " transform="matrix(3.779528,0,0,3.779528,0,0)"/>
<path style="fill:none;stroke-width:2;stroke-linecap:butt;stroke-linejoin:miter;stroke:rgb(0%,0%,0%);stroke-opacity:1;stroke-miterlimit:4;" d="M 3.000334 432.999927 L 19.000391 432.999927 L 35.000448 429.000171 L 50.500277 418.49952 L 66.000106 407.999902 L 82.000163 398.000513 L 98.00022 385.499984 L 114.000277 372.000033 L 128.000456 372.000033 L 125.999544 388.00009 L 125.999544 404.500374 L 123.999666 420.500431 L 121.999788 436.00026 L 119.99991 452.000317 L 118.000033 467.500146 L 118.50026 482.999976 L 116.500382 499.50026 " transform="matrix(3.779528,0,0,3.779528,0,0)"/>
<path style="fill:none;stroke-width:2;stroke-linecap:butt;stroke-linejoin:miter;stroke:rgb(0%,0%,0%);stroke-opacity:1;stroke-miterlimit:4;" d="M 59.500244 420.500431 L 83.499813 404.500374 L 105.499504 388.500317 L 123.500472 372.50026 L 135.49974 357.000431 L 135.49974 341.000374 L 134.999512 325.000317 L 121.000366 302.999593 L 103.000431 286.999536 L 89.000252 300.999715 L 73.000195 305.000505 L 70.50009 293.500431 L 52.500155 298.999837 L 42.499731 282.99978 L 6.499862 296.999959 " transform="matrix(3.779528,0,0,3.779528,0,0)"/>
<path style="fill:none;stroke-width:2;stroke-linecap:butt;stroke-linejoin:miter;stroke:rgb(0%,0%,0%);stroke-opacity:1;stroke-miterlimit:4;" d="M 10.000423 300.999715 L 14.000179 291.000326 L 10.499618 307.000382 L 4.499984 322.500212 " transform="matrix(3.779528,0,0,3.779528,0,0)"/>
<path style="fill:none;stroke-width:2;stroke-linecap:butt;stroke-linejoin:miter;stroke:rgb(0%,0%,0%);stroke-opacity:1;stroke-miterlimit:4;" d="M 3.499528 316.499544 L 19.000391 326.499967 L 35.000448 328.499845 L 50.500277 323.999862 L 32.000114 348.000464 L 26.00048 363.500293 L 23.500374 367.500049 " transform="matrix(3.779528,0,0,3.779528,0,0)"/>
<path style="fill:none;stroke-width:2;stroke-linecap:butt;stroke-linejoin:miter;stroke:rgb(0%,0%,0%);stroke-opacity:1;stroke-miterlimit:4;" d="M 50.500277 319.499878 L 34.50022 311.999561 L 18.500163 302.500399 " transform="matrix(3.779528,0,0,3.779528,0,0)"/>
<path style="fill:none;stroke-width:2;stroke-linecap:butt;stroke-linejoin:miter;stroke:rgb(0%,0%,0%);stroke-opacity:1;stroke-miterlimit:4;" d="M 19.499585 298.000415 L 47.499943 314.000472 " transform="matrix(3.779528,0,0,3.779528,0,0)"/>
<path style="fill:none;stroke-width:2;stroke-linecap:butt;stroke-linejoin:miter;stroke:rgb(0%,0%,0%);stroke-opacity:1;stroke-miterlimit:4;" d="M 47.499943 311.500366 L 31.499886 303.499821 L 15.499829 298.000415 " transform="matrix(3.779528,0,0,3.779528,0,0)"/>
<path style="fill:none;stroke-width:2;stroke-linecap:butt;stroke-linejoin:miter;stroke:rgb(0%,0%,0%);stroke-opacity:1;stroke-miterlimit:4;" d="M 14.000179 269.499829 L 26.00048 257.499528 L 41.999504 245.000033 L 57.999561 248.999788 L 74.499845 261.500317 L 90.499902 259.500439 " transform="matrix(3.779528,0,0,3.779528,0,0)"/>
<path style="fill:none;stroke-width:2;stroke-linecap:butt;stroke-linejoin:miter;stroke:rgb(0%,0%,0%);stroke-opacity:1;stroke-miterlimit:4;" d="M 103.999854 239.000399 L 87.499569 239.499593 L 83.499813 232.000309 L 81.499935 220.000008 L 49.499821 220.000008 " transform="matrix(3.779528,0,0,3.779528,0,0)"/>
<path style="fill:none;stroke-width:2;stroke-linecap:butt;stroke-linejoin:miter;stroke:rgb(0%,0%,0%);stroke-opacity:1;stroke-miterlimit:4;" d="M 52.500155 216.999674 L 66.500334 233.499959 L 84.000041 249.500016 L 91.999552 261.500317 L 91.999552 277.999569 L 85.999919 293.999626 L 91.500358 277.999569 L 101.499748 283.500008 L 117.499805 299.500065 L 132.999634 313.500244 " transform="matrix(3.779528,0,0,3.779528,0,0)"/>
<path style="fill:none;stroke-width:2;stroke-linecap:butt;stroke-linejoin:miter;stroke:rgb(0%,0%,0%);stroke-opacity:1;stroke-miterlimit:4;" d="M 105.999731 298.499609 L 125.999544 314.000472 L 129.500106 330.499723 L 127.500228 346.49978 L 123.999666 362.499837 L 108.499837 378.499894 L 88.500024 394.499951 L 64.500456 409.99978 L 36.500098 425.999837 " transform="matrix(3.779528,0,0,3.779528,0,0)"/>
<path style="fill:none;stroke-width:2;stroke-linecap:butt;stroke-linejoin:miter;stroke:rgb(0%,0%,0%);stroke-opacity:1;stroke-miterlimit:4;" d="M 3.000334 436.500488 L 19.000391 438.500366 L 35.000448 434.499577 L 51.499699 424.500187 L 67.499756 416.499642 L 83.499813 404.500374 L 98.999642 394.499951 L 114.999699 380.499772 L 130.999756 363.999487 " transform="matrix(3.779528,0,0,3.779528,0,0)"/>
<path style="fill:none;stroke-width:2;stroke-linecap:butt;stroke-linejoin:miter;stroke:rgb(0%,0%,0%);stroke-opacity:1;stroke-miterlimit:4;" d="M 132.500439 374.500138 L 132.500439 390.500195 L 130.499528 406.000024 L 126.499772 438.000138 L 126.499772 454.000195 L 123.999666 470.000252 L 121.999788 485.500081 L 119.99991 501.500138 " transform="matrix(3.779528,0,0,3.779528,0,0)"/>
<path style="fill:none;stroke-width:2;stroke-linecap:butt;stroke-linejoin:miter;stroke:rgb(0%,0%,0%);stroke-opacity:1;stroke-miterlimit:4;" d="M 69.000439 277.999569 L 39.000203 262.49974 " transform="matrix(3.779528,0,0,3.779528,0,0)"/>
<path style="fill:none;stroke-width:2;stroke-linecap:butt;stroke-linejoin:miter;stroke:rgb(0%,0%,0%);stroke-opacity:1;stroke-miterlimit:4;" d="M 44.499609 226.49987 L 30.999658 242.499927 L 23.000146 260.499862 L 17.000513 276.499919 L 41.500309 275.999691 L 71.499512 287.499764 L 55.500488 298.999837 L 55.500488 318.99965 L 61.500122 325.000317 L 61.500122 340.500146 L 64.000228 356.500203 L 62.00035 372.50026 L 60.499666 388.500317 L 54.500033 404.999569 " transform="matrix(3.779528,0,0,3.779528,0,0)"/>
<path style="fill:none;stroke-width:2;stroke-linecap:butt;stroke-linejoin:miter;stroke:rgb(0%,0%,0%);stroke-opacity:1;stroke-miterlimit:4;" d="M 168.000081 509.49965 L 162.000448 493.499593 L 157.500464 477.499536 L 145.500163 461.500513 L 146.000391 445.500456 L 144.499707 429.000171 L 144.499707 413.000114 L 144.999935 396.499829 L 146.999813 380.499772 L 146.499585 364.999943 L 148.500496 348.999886 L 150.999569 333.500057 L 155.000358 317.5 L 159.000114 301.499943 L 150.999569 285.499886 L 134.999512 269.499829 L 116.999577 252.999544 L 132.999634 236.500293 L 154.50013 220.500236 " transform="matrix(3.779528,0,0,3.779528,0,0)"/>
<path style="fill:none;stroke-width:2;stroke-linecap:butt;stroke-linejoin:miter;stroke:rgb(0%,0%,0%);stroke-opacity:1;stroke-miterlimit:4;" d="M 199.499967 214.999797 L 207.500513 230.999854 L 209.500391 247.500138 L 217.499902 265.500073 L 235.499837 282.000358 " transform="matrix(3.779528,0,0,3.779528,0,0)"/>
<path style="fill:none;stroke-width:2;stroke-linecap:butt;stroke-linejoin:miter;stroke:rgb(0%,0%,0%);stroke-opacity:1;stroke-miterlimit:4;" d="M 234.000187 227.000098 L 249.500016 249.500016 L 265.500073 259.500439 L 281.50013 263.500195 L 298.000415 266.000301 " transform="matrix(3.779528,0,0,3.779528,0,0)"/>
<path style="fill:none;stroke-width:2;stroke-linecap:butt;stroke-linejoin:miter;stroke:rgb(0%,0%,0%);stroke-opacity:1;stroke-miterlimit:4;" d="M 286.500342 227.99952 L 316.499544 212.000496 L 316.00035 188.500122 L 307.999805 172.500065 L 291.999748 177.000049 L 275.999691 193.000106 L 259.999634 197.50009 L 244.499805 193.000106 L 228.499748 187.000472 " transform="matrix(3.779528,0,0,3.779528,0,0)"/>
<path style="fill:none;stroke-width:2;stroke-linecap:butt;stroke-linejoin:miter;stroke:rgb(0%,0%,0%);stroke-opacity:1;stroke-miterlimit:4;" d="M 225.500448 179.500155 L 217.499902 195.500212 L 221.999886 187.499666 L 227.99952 180.000382 L 243.500382 180.000382 L 259.500439 175.999593 L 275.999691 173.999715 L 291.999748 167.499854 L 310.49991 165.499976 " transform="matrix(3.779528,0,0,3.779528,0,0)"/>
<path style="fill:none;stroke-width:2;stroke-linecap:butt;stroke-linejoin:miter;stroke:rgb(0%,0%,0%);stroke-opacity:1;stroke-miterlimit:4;" d="M 327.000195 228.499748 L 327.000195 244.499805 L 324.50009 260.499862 " transform="matrix(3.779528,0,0,3.779528,0,0)"/>
<path style="fill:none;stroke-width:2;stroke-linecap:butt;stroke-linejoin:miter;stroke:rgb(0%,0%,0%);stroke-opacity:1;stroke-miterlimit:4;" d="M 323.499634 274.500041 L 345.500358 259.000212 L 359.999731 243.000155 L 370.000155 226.49987 " transform="matrix(3.779528,0,0,3.779528,0,0)"/>
<path style="fill:none;stroke-width:2;stroke-linecap:butt;stroke-linejoin:miter;stroke:rgb(0%,0%,0%);stroke-opacity:1;stroke-miterlimit:4;" d="M 372.50026 74.499845 L 348.999886 74.499845 L 332.999829 66.500334 L 318.99965 54.500033 L 305.000505 50.500277 L 295.000081 42.499731 L 278.499797 36.500098 L 262.49974 46.499487 L 254.500228 42.499731 L 234.500415 38.499976 L 218.500358 54.500033 L 212.499691 54.500033 L 223.999764 48.500399 L 222.500114 20.500041 L 214.499569 17.999935 L 208.499935 1.49965 L 208.499935 3.000334 L 191.99965 2.500106 " transform="matrix(3.779528,0,0,3.779528,0,0)"/>
<path style="fill:none;stroke-width:2;stroke-linecap:butt;stroke-linejoin:miter;stroke:rgb(0%,0%,0%);stroke-opacity:1;stroke-miterlimit:4;" d="M 191.000228 1.999878 L 193.500334 17.999935 L 189.00035 17.499707 L 189.499544 29.500008 L 185.499788 33.499764 " transform="matrix(3.779528,0,0,3.779528,0,0)"/>
<path style="fill:none;stroke-width:2;stroke-linecap:butt;stroke-linejoin:miter;stroke:rgb(0%,0%,0%);stroke-opacity:1;stroke-miterlimit:4;" d="M 176.499821 24.499797 L 172.500065 40.499854 L 170.500187 62.499544 L 164.49952 78.499601 L 156.500008 88.500024 L 154.50013 96.499536 L 175.000171 114.500505 L 178.499699 130.000334 L 178.499699 161.50022 L 180.499577 177.000049 L 191.99965 193.500334 L 209.999585 209.500391 L 254 225.999642 " transform="matrix(3.779528,0,0,3.779528,0,0)"/>
<path style="fill:none;stroke-width:2;stroke-linecap:butt;stroke-linejoin:miter;stroke:rgb(0%,0%,0%);stroke-opacity:1;stroke-miterlimit:4;" d="M 201.499845 221.499658 L 203.499723 237.499715 L 205.999829 253.499772 L 214.000374 269.499829 L 232.000309 285.499886 " transform="matrix(3.779528,0,0,3.779528,0,0)"/>
<path style="fill:none;stroke-width:2;stroke-linecap:butt;stroke-linejoin:miter;stroke:rgb(0%,0%,0%);stroke-opacity:1;stroke-miterlimit:4;" d="M 135.999967 117.499805 L 116.000155 99.49987 L 109.999487 123.500472 L 107.999609 109.500293 L 116.000155 93.500236 L 117.499805 73.500423 L 123.500472 57.500366 L 132.000212 41.999504 L 142.499829 26.00048 L 134.500317 33.499764 " transform="matrix(3.779528,0,0,3.779528,0,0)"/>
<path style="fill:none;stroke-width:2;stroke-linecap:butt;stroke-linejoin:miter;stroke:rgb(0%,0%,0%);stroke-opacity:1;stroke-miterlimit:4;" d="M 144.999935 17.499707 L 134.500317 37.49952 L 118.50026 67.499756 " transform="matrix(3.779528,0,0,3.779528,0,0)"/>
<path style="fill:none;stroke-width:2;stroke-linecap:butt;stroke-linejoin:miter;stroke:rgb(0%,0%,0%);stroke-opacity:1;stroke-miterlimit:4;" d="M 119.99991 82.000163 L 135.999967 85.999919 L 152.500252 84.000041 L 158.499886 98.00022 " transform="matrix(3.779528,0,0,3.779528,0,0)"/>
<path style="fill:none;stroke-width:2;stroke-linecap:butt;stroke-linejoin:miter;stroke:rgb(0%,0%,0%);stroke-opacity:1;stroke-miterlimit:4;" d="M 168.000081 77.500179 L 182.00026 65.499878 L 198.000317 57.999561 L 214.499569 46.000293 " transform="matrix(3.779528,0,0,3.779528,0,0)"/>
<path style="fill:none;stroke-width:2;stroke-linecap:butt;stroke-linejoin:miter;stroke:rgb(0%,0%,0%);stroke-opacity:1;stroke-miterlimit:4;" d="M 202.999495 33.999992 L 198.99974 17.499707 L 189.499544 10.999845 " transform="matrix(3.779528,0,0,3.779528,0,0)"/>
<path style="fill:none;stroke-width:2;stroke-linecap:butt;stroke-linejoin:miter;stroke:rgb(0%,0%,0%);stroke-opacity:1;stroke-miterlimit:4;" d="M 180.000382 7.999512 L 168.000081 10.000423 L 152.000024 5.999634 L 139.999723 22.499919 L 125.999544 42.499731 L 134.00009 16.500285 L 157.500464 14.500407 L 146.999813 30.500464 L 139.000301 46.499487 L 135.49974 62.00035 L 135.49974 94.000464 L 151.499797 110.499715 L 157.500464 126.499772 L 157.999658 143.000057 L 153.999902 159.000114 " transform="matrix(3.779528,0,0,3.779528,0,0)"/>
<path style="fill:none;stroke-width:2;stroke-linecap:butt;stroke-linejoin:miter;stroke:rgb(0%,0%,0%);stroke-opacity:1;stroke-miterlimit:4;" d="M 134.00009 153.499674 L 137.999845 137.999845 L 132.000212 121.999788 L 125.999544 116.500382 L 109.999487 132.500439 " transform="matrix(3.779528,0,0,3.779528,0,0)"/>
<path style="fill:none;stroke-width:2;stroke-linecap:butt;stroke-linejoin:miter;stroke:rgb(0%,0%,0%);stroke-opacity:1;stroke-miterlimit:4;" d="M 107.500415 101.499748 L 123.500472 87.499569 L 139.499495 93.500236 L 155.499552 115.499927 " transform="matrix(3.779528,0,0,3.779528,0,0)"/>
<path style="fill:none;stroke-width:2;stroke-linecap:butt;stroke-linejoin:miter;stroke:rgb(0%,0%,0%);stroke-opacity:1;stroke-miterlimit:4;" d="M 134.500317 103.499626 L 118.50026 95.500114 " transform="matrix(3.779528,0,0,3.779528,0,0)"/>
<path style="fill:none;stroke-width:2;stroke-linecap:butt;stroke-linejoin:miter;stroke:rgb(0%,0%,0%);stroke-opacity:1;stroke-miterlimit:4;" d="M 113.500049 100.500326 L 117.499805 116.500382 L 117.499805 124.499894 L 111.500171 140.499951 L 121.499561 155.99978 " transform="matrix(3.779528,0,0,3.779528,0,0)"/>
<path style="fill:none;stroke-width:2;stroke-linecap:butt;stroke-linejoin:miter;stroke:rgb(0%,0%,0%);stroke-opacity:1;stroke-miterlimit:4;" d="M 141.500407 148.000269 L 139.499495 132.000212 L 133.499862 116.000155 L 121.499561 99.49987 L 101.999976 101.499748 " transform="matrix(3.779528,0,0,3.779528,0,0)"/>
<path style="fill:none;stroke-width:2;stroke-linecap:butt;stroke-linejoin:miter;stroke:rgb(0%,0%,0%);stroke-opacity:1;stroke-miterlimit:4;" d="M 163.500098 71.99974 L 179.500155 51.999927 " transform="matrix(3.779528,0,0,3.779528,0,0)"/>
<path style="fill:none;stroke-width:2;stroke-linecap:butt;stroke-linejoin:miter;stroke:rgb(0%,0%,0%);stroke-opacity:1;stroke-miterlimit:4;" d="M 189.999772 28.499552 L 182.500488 12.499495 L 162.499642 14.500407 L 146.000391 23.000146 L 139.999723 44.999837 L 148.000269 41.500309 L 155.99978 33.499764 L 166.500431 17.499707 " transform="matrix(3.779528,0,0,3.779528,0,0)"/>
<path style="fill:none;stroke-width:2;stroke-linecap:butt;stroke-linejoin:miter;stroke:rgb(0%,0%,0%);stroke-opacity:1;stroke-miterlimit:4;" d="M 169.999959 32.500342 L 166.000203 41.999504 L 179.500155 37.49952 L 183.49991 21.000269 L 185.499788 17.000513 L 181.500033 1.000456 " transform="matrix(3.779528,0,0,3.779528,0,0)"/>
<path style="fill:none;stroke-width:2;stroke-linecap:butt;stroke-linejoin:miter;stroke:rgb(0%,0%,0%);stroke-opacity:1;stroke-miterlimit:4;" d="M 198.000317 1.49965 L 203.999951 17.499707 L 215.500024 43.500187 L 195.500212 59.500244 L 173.499487 67.499756 L 173.999715 75.999495 L 168.000081 91.500358 L 169.999959 107.500415 L 169.999959 139.999723 L 159.999536 166.500431 " transform="matrix(3.779528,0,0,3.779528,0,0)"/>
<path style="fill:none;stroke-width:2;stroke-linecap:butt;stroke-linejoin:miter;stroke:rgb(0%,0%,0%);stroke-opacity:1;stroke-miterlimit:4;" d="M 252.000122 41.999504 L 250.000244 33.999992 L 234.000187 51.999927 L 232.000309 53.999805 L 231.500081 41.500309 L 243.500382 25.500252 L 233.499959 5.999634 L 239.999821 2.500106 " transform="matrix(3.779528,0,0,3.779528,0,0)"/>
<path style="fill:none;stroke-width:2;stroke-linecap:butt;stroke-linejoin:miter;stroke:rgb(0%,0%,0%);stroke-opacity:1;stroke-miterlimit:4;" d="M 237.999943 12.000301 L 221.999886 7.999512 L 234.000187 17.499707 L 225.999642 1.49965 " transform="matrix(3.779528,0,0,3.779528,0,0)"/>
<path style="fill:none;stroke-width:2;stroke-linecap:butt;stroke-linejoin:miter;stroke:rgb(0%,0%,0%);stroke-opacity:1;stroke-miterlimit:4;" d="M 218.00013 1.000456 L 205.999829 9.500195 L 209.999585 25.500252 " transform="matrix(3.779528,0,0,3.779528,0,0)"/>
<path style="fill:none;stroke-width:2;stroke-linecap:butt;stroke-linejoin:miter;stroke:rgb(0%,0%,0%);stroke-opacity:1;stroke-miterlimit:4;" d="M 259.500439 8.49974 L 267.499951 4.499984 " transform="matrix(3.779528,0,0,3.779528,0,0)"/>
<path style="fill:none;stroke-width:2;stroke-linecap:butt;stroke-linejoin:miter;stroke:rgb(0%,0%,0%);stroke-opacity:1;stroke-miterlimit:4;" d="M 338.000041 1.999878 L 351.499992 17.999935 L 363.999487 34.50022 L 373.99991 50.500277 L 378.499894 66.000106 L 368.500505 93.500236 L 363.000065 109.999487 L 357.000431 125.999544 L 359.000309 141.999601 " transform="matrix(3.779528,0,0,3.779528,0,0)"/>
<path style="fill:none;stroke-width:2;stroke-linecap:butt;stroke-linejoin:miter;stroke:rgb(0%,0%,0%);stroke-opacity:1;stroke-miterlimit:4;" d="M 370.999577 34.50022 L 373.000488 18.500163 L 362.499837 2.500106 " transform="matrix(3.779528,0,0,3.779528,0,0)"/>
<path style="fill:none;stroke-width:2;stroke-linecap:butt;stroke-linejoin:miter;stroke:rgb(0%,0%,0%);stroke-opacity:1;stroke-miterlimit:4;" d="M 141.000179 1.49965 L 132.999634 17.499707 L 123.500472 33.499764 L 117.499805 33.499764 L 134.00009 5.000212 " transform="matrix(3.779528,0,0,3.779528,0,0)"/>
</g>
</svg>
