<svg xmlns="http://www.w3.org/2000/svg" width="512mm" height="512mm" viewBox="0 0 512 512" version="1.1"><polyline points="269.5,12.5,243.5,28.5,223.5,44.5,211.5,60.5,203.5,77.0,197.5,93.0,195.5,109.0,201.5,125.0,201.0,141.0,197.0,156.5,190.5,172.5,189.0,188.5,195.0,204.5,203.0,220.5,217.5,236.0,243.5,241.5,259.5,235.0,281.5,251.0,297.5,261.0,313.5,270.5,330.0,276.5" stroke="black" stroke-width="2" fill="none" />
<polyline points="316.5,293.5,332.5,293.5,349.0,285.5,365.0,273.5,380.5,261.0,386.0,263.5,418.0,279.5,426.5,296.0,422.5,312.5,430.0,299.0,445.5,335.0,458.0,371.0,478.0,400.5,494.0,414.0,510.5,424.0" stroke="black" stroke-width="2" fill="none" />
<polyline points="507.0,442.0,491.5,434.0,475.5,426.0,460.0,416.0" stroke="black" stroke-width="2" fill="none" />
<polyline points="479.5,410.5,463.0,386.0,447.0,378.0" stroke="black" stroke-width="2" fill="none" />
<polyline points="463.5,384.0,471.5,400.0,491.5,420.0,507.0,428.0" stroke="black" stroke-width="2" fill="none" />
<polyline points="501.0,433.5,485.5,425.0,469.5,416.5,454.0,415.0,438.0,425.0" stroke="black" stroke-width="2" fill="none" />
<polyline points="433.0,428.0,435.0,443.5,435.0,459.0,437.0,475.0,439.0,491.0,438.5,507.0" stroke="black" stroke-width="2" fill="none" />
<polyline points="496.0,438.5,464.0,422.5,454.0,416.0,444.5,396.0,448.5,382.0,432.5,390.0" stroke="black" stroke-width="2" fill="none" />
<polyline points="428.5,391.0,444.5,375.0,442.0,377.5,432.0,385.0,438.0,373.0,458.0,370.5,452.0,386.5,456.5,392.0,456.5,408.0,480.5,423.5" stroke="black" stroke-width="2" fill="none" />
<polyline points="504.0,308.0,488.5,288.5,472.5,256.5,456.5,221.0" stroke="black" stroke-width="2" fill="none" />
<polyline points="446.0,207.0,461.5,247.5,477.5,273.5,493.5,287.5,510.0,308.0" stroke="black" stroke-width="2" fill="none" />
<polyline points="440.0,305.5,424.0,275.5,408.0,265.0,392.5,265.0" stroke="black" stroke-width="2" fill="none" />
<polyline points="392.0,246.5,408.5,259.0,410.5,273.5,426.5,288.0" stroke="black" stroke-width="2" fill="none" />
<polyline points="428.0,301.5,424.5,317.5" stroke="black" stroke-width="2" fill="none" />
<polyline points="438.5,300.5,445.0,316.5,451.0,333.0,457.0,349.5,463.0,365.5,467.0,381.5,475.0,397.5,489.0,411.5,504.5,427.0" stroke="black" stroke-width="2" fill="none" />
<polyline points="505.0,314.0,493.0,298.0,481.0,282.5,470.5,266.0,460.5,250.5,454.5,234.5,448.5,219.0,442.5,203.0,443.0,187.0,445.0,171.5,439.0,143.0,417.0,109.0,405.0,123.0,390.0,111.0,374.0,112.5,360.5,102.5,344.5,100.0,327.0,94.0,305.5,99.5,304.0,110.0,287.5,123.5,295.5,129.5,311.5,113.5,323.5,97.5,323.0,89.5,319.0,73.5,314.5,74.0,320.5,58.0,322.0,42.5,322.0,43.0" stroke="black" stroke-width="2" fill="none" />
<polyline points="324.5,45.5,340.5,54.0,340.0,70.0" stroke="black" stroke-width="2" fill="none" />
<polyline points="337.5,55.5,361.5,71.5" stroke="black" stroke-width="2" fill="none" />
<polyline points="379.5,56.5,364.0,57.0,348.0,45.0" stroke="black" stroke-width="2" fill="none" />
<polyline points="332.0,50.5,341.5,66.0,349.5,81.5,349.5,91.5,366.0,86.0,382.0,84.0,394.0,92.0" stroke="black" stroke-width="2" fill="none" />
<polyline points="378.0,72.5,364.0,70.5,354.0,84.5,338.0,76.5,322.0,66.0" stroke="black" stroke-width="2" fill="none" />
<polyline points="320.0,70.0,326.0,60.0,342.5,64.0,358.5,66.0,374.5,62.0,390.5,74.5,404.5,102.0,410.5,118.0,424.0,115.5,426.0,139.5,444.0,155.5,448.0,159.0,450.0,175.5,448.0,191.5,450.5,208.0,456.5,224.0,464.5,240.0,472.5,255.5,482.5,271.5,494.5,287.5,506.0,304.0" stroke="black" stroke-width="2" fill="none" />
<polyline points="376.5,287.0,358.5,303.5,322.0,319.5" stroke="black" stroke-width="2" fill="none" />
<polyline points="324.0,315.5,307.5,321.0,291.0,323.0,275.0,323.0,258.5,322.5,242.0,321.0" stroke="black" stroke-width="2" fill="none" />
<polyline points="248.0,315.5,263.5,317.5" stroke="black" stroke-width="2" fill="none" />
<polyline points="234.0,312.5,250.0,313.0,261.5,301.0,277.5,305.0,294.0,304.5,310.0,302.0,325.5,302.0" stroke="black" stroke-width="2" fill="none" />
<polyline points="326.5,249.0,342.5,251.5,358.5,245.0" stroke="black" stroke-width="2" fill="none" />
<polyline points="352.5,242.0,336.5,248.5,321.0,246.5" stroke="black" stroke-width="2" fill="none" />
<polyline points="308.5,229.5,324.5,231.5,340.5,229.5,356.5,230.0" stroke="black" stroke-width="2" fill="none" />
<polyline points="354.5,247.5,366.5,229.0,372.0,219.5,354.0,224.0,338.0,222.0,322.0,216.5,306.0,228.5" stroke="black" stroke-width="2" fill="none" />
<polyline points="321.0,216.5,298.5,234.5,314.5,236.0,330.5,238.0,346.0,240.5,362.0,232.5,378.0,218.0" stroke="black" stroke-width="2" fill="none" />
<polyline points="384.5,216.5,384.5,232.5,372.5,248.5,362.5,264.5,346.5,280.5" stroke="black" stroke-width="2" fill="none" />
<polyline points="338.5,274.5,322.5,270.0,306.0,260.0,290.0,250.0,274.0,240.0" stroke="black" stroke-width="2" fill="none" />
<polyline points="281.5,246.5,295.5,262.5,325.5,278.5" stroke="black" stroke-width="2" fill="none" />
<polyline points="296.0,268.0,280.0,257.5" stroke="black" stroke-width="2" fill="none" />
<polyline points="275.5,261.0,297.5,277.0" stroke="black" stroke-width="2" fill="none" />
<polyline points="287.5,269.0,271.0,259.0,249.0,291.0,233.5,298.5,217.5,309.0,202.0,319.0,186.0,329.0,170.5,353.5,154.5,368.0,138.5,366.0" stroke="black" stroke-width="2" fill="none" />
<polyline points="134.0,360.0,150.0,354.5" stroke="black" stroke-width="2" fill="none" />
<polyline points="139.5,382.5,135.0,366.5,152.5,350.5,154.5,334.5,156.5,319.0,158.0,302.5,149.5,310.5,133.0,310.0,117.0,309.5,101.0,311.5" stroke="black" stroke-width="2" fill="none" />
<polyline points="101.5,306.0,117.5,294.0,116.0,298.0,102.0,300.0,100.0,316.5,92.0,330.5,94.0,346.5,100.5,346.0,102.5,362.0,96.5,377.5,88.0,402.0,98.0,406.0,114.0,406.0,130.5,408.0,146.5,404.5,162.5,410.0,178.5,420.5,201.0,408.5,196.5,425.0,186.5,440.5" stroke="black" stroke-width="2" fill="none" />
<polyline points="179.0,442.5,163.0,430.5,147.5,450.5" stroke="black" stroke-width="2" fill="none" />
<polyline points="140.0,463.0,176.0,447.5,164.0,431.5" stroke="black" stroke-width="2" fill="none" />
<polyline points="159.0,429.5,151.0,445.5,163.0,423.5,178.5,435.5" stroke="black" stroke-width="2" fill="none" />
<polyline points="171.5,450.5,155.5,458.5,139.0,464.5,123.0,468.5,107.5,464.0,91.5,450.0" stroke="black" stroke-width="2" fill="none" />
<polyline points="100.0,465.0,116.0,471.0,132.0,471.5,147.5,465.5,163.5,460.0,179.0,454.0,195.0,458.0,195.5,474.5,197.5,490.5,197.5,506.5" stroke="black" stroke-width="2" fill="none" />
<polyline points="181.0,431.0,165.0,419.0,147.0,420.5,131.0,420.0,115.5,419.5,99.5,417.0,83.5,416.5,67.5,404.0" stroke="black" stroke-width="2" fill="none" />
<polyline points="63.5,409.0,79.5,393.0" stroke="black" stroke-width="2" fill="none" />
<polyline points="65.5,380.0,81.5,388.0,97.5,384.5" stroke="black" stroke-width="2" fill="none" />
<polyline points="111.0,396.5,127.0,396.5" stroke="black" stroke-width="2" fill="none" />
<polyline points="144.0,389.5,140.5,373.5,132.5,347.5,142.5,331.5,134.5,337.5,118.0,335.5,111.5,336.0,113.5,320.0,111.5,326.0" stroke="black" stroke-width="2" fill="none" />
<polyline points="120.5,318.5,115.0,334.5,119.0,320.5,135.0,322.5" stroke="black" stroke-width="2" fill="none" />
<polyline points="137.0,326.0,133.0,341.5,137.0,343.5" stroke="black" stroke-width="2" fill="none" />
<polyline points="129.5,324.5,121.5,335.0,130.0,335.0,138.0,318.5" stroke="black" stroke-width="2" fill="none" />
<polyline points="124.0,298.5,140.0,296.5,156.5,296.5" stroke="black" stroke-width="2" fill="none" />
<polyline points="100.0,301.5,104.0,287.5,94.0,303.5,92.0,319.5,72.0,336.0,64.0,352.0,63.5,368.0,59.5,383.5,61.5,399.5,65.0,416.0,85.0,432.0,89.0,448.0,97.5,463.5" stroke="black" stroke-width="2" fill="none" />
<polyline points="66.0,414.5,82.0,422.0,97.5,424.5,113.5,424.5,130.0,426.5,146.5,426.5,174.5,426.5" stroke="black" stroke-width="2" fill="none" />
<polyline points="153.0,428.0,145.0,444.0,145.0,467.5" stroke="black" stroke-width="2" fill="none" />
<polyline points="139.5,400.0,123.5,401.0,107.5,401.0" stroke="black" stroke-width="2" fill="none" />
<polyline points="101.0,361.5,85.5,352.0,70.0,352.0" stroke="black" stroke-width="2" fill="none" />
<polyline points="68.5,357.0,84.0,365.5" stroke="black" stroke-width="2" fill="none" />
<polyline points="72.0,372.0,72.0,388.0,69.5,410.0,93.0,429.5,96.5,447.5,106.5,464.0" stroke="black" stroke-width="2" fill="none" />
<polyline points="121.5,395.0,105.0,401.0,95.0,394.5,101.0,378.5,105.5,362.0,91.5,373.5,75.5,371.5,59.5,381.5" stroke="black" stroke-width="2" fill="none" />
<polyline points="83.0,345.5,77.0,337.5,87.0,324.0,71.5,336.0" stroke="black" stroke-width="2" fill="none" />
<polyline points="96.5,296.5,112.5,286.5,128.5,286.0,144.5,286.0,160.5,292.0,164.5,304.0,162.0,320.0,160.0,335.5,158.0,351.5,152.0,368.0,150.0,386.0,168.0,366.0,184.0,346.0,200.0,326.0,216.0,318.0,231.5,310.0,248.0,298.0,264.0,305.5,280.0,307.5,296.5,307.0,312.5,305.0,328.0,307.0" stroke="black" stroke-width="2" fill="none" />
<polyline points="348.5,301.5,370.5,285.5,359.0,302.0,343.0,312.5,327.5,318.5,311.5,324.5,296.0,327.0,280.0,329.0,264.5,329.0,248.0,327.0,232.0,319.0" stroke="black" stroke-width="2" fill="none" />
<polyline points="228.0,322.5,224.0,338.5,220.0,354.0,220.0,370.0,218.0,385.5" stroke="black" stroke-width="2" fill="none" />
<polyline points="197.0,401.5,199.0,386.0,203.0,370.0,209.0,354.5,213.0,338.5,215.0,322.5" stroke="black" stroke-width="2" fill="none" />
<polyline points="225.0,318.5,219.0,334.5,214.5,350.5,210.5,366.5,204.5,382.5,202.5,398.5,194.5,414.0" stroke="black" stroke-width="2" fill="none" />
<polyline points="220.0,391.5,224.0,375.5,226.0,359.5,228.0,343.5,231.5,327.5,233.5,311.5" stroke="black" stroke-width="2" fill="none" />
<polyline points="271.5,259.5,267.5,275.5,262.0,291.5,244.0,300.0,217.5,316.0,191.5,332.0,182.0,348.0,170.0,363.5,164.5,379.5,162.5,395.5,162.0,411.5,186.0,427.5" stroke="black" stroke-width="2" fill="none" />
<polyline points="318.5,373.5,322.5,361.5,338.5,357.5,354.5,355.0,370.5,361.0,376.5,369.0,370.0,369.0,351.5,381.5,335.5,383.5" stroke="black" stroke-width="2" fill="none" />
<polyline points="335.0,357.5,316.5,374.0,323.0,390.0,329.0,390.0,337.0,368.0,353.0,372.0,363.0,364.5" stroke="black" stroke-width="2" fill="none" />
<polyline points="357.0,357.5,361.0,373.5,338.5,382.0,330.5,382.0,330.5,396.0,346.5,396.0,350.0,390.0,366.0,380.5" stroke="black" stroke-width="2" fill="none" />
<polyline points="369.0,384.0,353.0,394.0,369.0,384.5" stroke="black" stroke-width="2" fill="none" />
<polyline points="372.0,285.5,356.0,299.5,337.5,291.5,360.5,275.5,372.5,259.5" stroke="black" stroke-width="2" fill="none" />
<polyline points="386.0,202.0,370.0,198.0" stroke="black" stroke-width="2" fill="none" />
<polyline points="367.0,184.0,383.0,188.0,399.0,194.0" stroke="black" stroke-width="2" fill="none" />
<polyline points="410.5,178.0,394.5,170.0" stroke="black" stroke-width="2" fill="none" />
<polyline points="406.5,164.5,422.5,176.5,438.5,188.5" stroke="black" stroke-width="2" fill="none" />
<polyline points="419.0,129.5,402.5,137.5" stroke="black" stroke-width="2" fill="none" />
<polyline points="409.5,128.5,403.5,144.5,407.5,160.5,429.5,176.5" stroke="black" stroke-width="2" fill="none" />
<polyline points="434.0,192.0,420.5,176.0,401.0,160.0,389.0,167.5,373.5,165.0" stroke="black" stroke-width="2" fill="none" />
<polyline points="369.0,165.5,385.5,155.5,401.0,157.5,417.0,163.5" stroke="black" stroke-width="2" fill="none" />
<polyline points="408.5,192.0,392.0,186.0,376.0,181.5,360.0,183.5" stroke="black" stroke-width="2" fill="none" />
<polyline points="360.5,185.5,364.0,201.5,382.0,213.5,390.0,215.0,394.0,231.0,390.5,246.5,392.5,260.5,422.0,276.5,432.0,292.5,434.0,308.5,442.0,324.5,446.0,340.0,453.5,356.5,437.5,372.5,424.0,388.5,426.5,404.5,426.5,420.5,438.5,428.0,438.5,444.0,440.5,459.5,442.5,475.5,442.5,491.5,442.5,508.0" stroke="black" stroke-width="2" fill="none" />
<polyline points="311.0,265.5,285.0,250.0" stroke="black" stroke-width="2" fill="none" />
<polyline points="262.0,239.0,266.0,255.0,263.5,271.0,257.5,287.0,231.5,303.0,203.5,319.0,183.0,334.5,173.0,350.5,161.5,366.0,157.5,376.0,155.5,392.0,147.0,400.0,155.0,405.5,157.0,417.5,175.0,433.5,192.5,447.5,190.5,465.5,190.5,481.5,192.5,497.5" stroke="black" stroke-width="2" fill="none" />
<polyline points="231.0,235.5,234.5,219.0,226.5,203.0,218.5,187.0,202.0,171.0,206.0,155.5,205.5,136.0,207.0,127.5" stroke="black" stroke-width="2" fill="none" />
<polyline points="209.0,130.5,211.0,146.5,221.0,144.0,237.0,155.5,253.0,173.5" stroke="black" stroke-width="2" fill="none" />
<polyline points="280.0,172.0,296.0,166.0,312.5,165.5,328.5,168.0" stroke="black" stroke-width="2" fill="none" />
<polyline points="352.5,169.5,368.5,155.5,385.0,149.5,377.5,157.5,407.5,177.5" stroke="black" stroke-width="2" fill="none" />
<polyline points="422.0,188.5,406.0,182.5,389.5,174.5,373.5,174.0,357.5,174.0" stroke="black" stroke-width="2" fill="none" />
<polyline points="318.0,192.0,302.5,198.0,286.5,197.5" stroke="black" stroke-width="2" fill="none" />
<polyline points="281.5,197.5,297.5,191.5,313.5,187.5" stroke="black" stroke-width="2" fill="none" />
<polyline points="327.5,181.0,311.5,185.0,295.5,184.5,279.5,186.5" stroke="black" stroke-width="2" fill="none" />
<polyline points="288.5,162.5,277.0,168.5,293.0,162.5,309.0,162.0,325.0,162.0" stroke="black" stroke-width="2" fill="none" />
<polyline points="320.5,210.5,300.5,226.5,306.5,220.5,322.5,210.5,338.5,216.5,354.5,218.5,379.0,206.5,398.5,210.0" stroke="black" stroke-width="2" fill="none" />
<polyline points="360.5,113.0,357.0,108.5,379.0,78.5,377.5,70.5,353.5,50.5,345.5,44.5,329.5,36.5,313.5,31.0" stroke="black" stroke-width="2" fill="none" />
<polyline points="312.0,29.5,350.0,31.5,375.5,47.5,385.5,63.5,391.5,77.5,390.0,90.0,394.0,105.5,390.0,115.5,396.0,132.0,388.0,148.0,358.0,164.5,354.0,180.5,356.0,196.0,362.0,212.0" stroke="black" stroke-width="2" fill="none" />
<polyline points="311.5,87.0,305.5,75.0" stroke="black" stroke-width="2" fill="none" />
<polyline points="291.0,73.0,290.5,89.0,297.0,93.0" stroke="black" stroke-width="2" fill="none" />
<polyline points="310.5,113.5,294.5,130.0,294.0,124.5,296.0,123.0,284.0,119.0,295.5,115.0,299.5,93.0,285.5,78.5,273.5,85.0" stroke="black" stroke-width="2" fill="none" />
<polyline points="279.5,91.5,275.0,110.0,259.0,106.0" stroke="black" stroke-width="2" fill="none" />
<polyline points="264.0,96.0,261.5,112.0,258.0,82.5,274.0,78.5" stroke="black" stroke-width="2" fill="none" />
<polyline points="271.0,74.5,263.0,90.5,257.0,106.0,257.0,122.0,256.5,138.0" stroke="black" stroke-width="2" fill="none" />
<polyline points="249.0,111.5,253.0,95.5,247.0,89.0" stroke="black" stroke-width="2" fill="none" />
<polyline points="245.5,86.0,261.5,68.0,263.5,66.0,249.5,82.0,245.5,93.5,244.0,109.0" stroke="black" stroke-width="2" fill="none" />
<polyline points="235.5,94.5,251.5,74.5,253.5,62.5,269.5,40.5" stroke="black" stroke-width="2" fill="none" />
<polyline points="270.0,43.5,260.0,59.5,250.0,76.0,238.0,92.0,236.0,107.5,238.5,123.5,244.0,139.5,260.0,171.5,284.0,179.5,300.5,175.5,317.0,173.5" stroke="black" stroke-width="2" fill="none" />
<polyline points="331.5,103.5,335.5,85.5,331.5,73.5,303.5,59.5" stroke="black" stroke-width="2" fill="none" />
<polyline points="270.5,65.0,262.5,80.5,270.5,90.5,272.5,96.5,282.5,112.5,264.5,122.5" stroke="black" stroke-width="2" fill="none" />
<polyline points="236.0,168.5,220.0,156.5" stroke="black" stroke-width="2" fill="none" />
<polyline points="241.0,165.5,223.0,135.5,207.0,114.0" stroke="black" stroke-width="2" fill="none" />
<polyline points="208.0,110.5,224.0,114.0,228.0,125.5" stroke="black" stroke-width="2" fill="none" />
<polyline points="200.5,109.0,204.5,80.5,221.0,56.5,237.5,40.5,253.5,28.5,269.5,22.5,286.0,16.5,302.0,16.5,324.0,20.5,328.0,33.0,344.0,37.0,360.0,42.5,368.5,40.0,384.5,52.0,401.0,73.5,417.0,91.5" stroke="black" stroke-width="2" fill="none" />
<polyline points="406.0,75.0,390.0,52.5,374.0,38.5,358.0,34.5,351.5,32.0,335.5,28.0,319.5,26.0,303.5,25.5,288.0,25.5" stroke="black" stroke-width="2" fill="none" />
<polyline points="279.0,20.0,263.5,36.0,249.0,35.5,235.5,49.5,219.5,65.5,212.0,81.5,218.0,91.5,216.5,108.0,212.5,116.0,225.0,132.5,219.0,150.5,233.0,166.5,245.0,182.5,251.0,198.0,255.0,214.0,251.0,229.5" stroke="black" stroke-width="2" fill="none" />
<polyline points="252.0,181.0,258.5,171.0,246.5,155.0,250.0,139.5,242.0,123.5,240.0,108.0,229.5,98.0,232.0,82.0,242.0,66.0,256.0,58.0,268.0,42.0,256.0,66.0" stroke="black" stroke-width="2" fill="none" />
<polyline points="236.5,73.5,252.5,55.5,246.5,54.0,234.5,70.0,240.5,80.0,224.5,82.0,224.5,92.0,234.0,70.0,240.0,46.0,256.0,31.5" stroke="black" stroke-width="2" fill="none" />
<polyline points="277.5,17.0,245.5,33.0,225.5,49.0,213.5,65.5,206.0,82.0,204.0,98.5,204.0,114.5,214.0,128.5,224.0,146.5,244.5,162.5,257.0,176.5,257.0,192.5,266.5,194.5,268.5,210.5,266.5,226.5,270.5,242.5,278.5,258.0,302.0,274.0,314.0,290.0,330.0,288.0,346.5,280.0,362.5,264.0,378.5,239.5" stroke="black" stroke-width="2" fill="none" />
<polyline points="231.5,213.5,215.5,183.5,199.5,170.0" stroke="black" stroke-width="2" fill="none" />
<polyline points="193.0,169.0,205.0,159.0,221.0,151.0,236.5,162.5" stroke="black" stroke-width="2" fill="none" />
<polyline points="204.0,182.0,216.0,198.0,226.0,214.0,228.0,230.5" stroke="black" stroke-width="2" fill="none" />
<polyline points="230.5,235.0,214.0,223.0,198.0,193.0" stroke="black" stroke-width="2" fill="none" />
<polyline points="193.0,192.5,209.0,222.5,225.0,238.5,241.5,236.5" stroke="black" stroke-width="2" fill="none" />
<polyline points="228.5,219.0,212.5,189.0,196.5,181.0" stroke="black" stroke-width="2" fill="none" />
<polyline points="195.5,180.5,197.5,196.5,209.0,216.5" stroke="black" stroke-width="2" fill="none" />
<polyline points="204.5,98.5,220.5,66.0,236.5,49.5,256.5,41.5,272.0,29.0,288.0,21.5,303.5,19.5,319.5,15.5" stroke="black" stroke-width="2" fill="none" />
<polyline points="322.0,29.0,362.0,29.5,384.0,45.5,384.0,53.5,398.0,69.5,406.0,85.5,416.0,101.5,414.5,117.5,422.5,133.5,429.0,149.5,431.0,166.0" stroke="black" stroke-width="2" fill="none" />
<polyline points="412.5,73.0,396.5,49.0,380.5,35.5,364.5,23.5,348.5,17.5,332.5,13.5,316.5,9.0,300.5,9.0,290.5,9.0,280.5,9.5,264.5,15.5,248.0,25.0,232.0,37.0,216.0,53.5,200.0,79.5" stroke="black" stroke-width="2" fill="none" />
<polyline points="339.0,15.5,373.0,31.5,391.5,47.5,399.5,63.5,406.0,73.0,416.0,83.5,422.0,91.5,422.0,108.0,430.0,114.0,430.0,130.5,434.0,130.5,440.0,145.0,431.5,147.0,433.5,162.5,441.5,166.5,435.5,182.0" stroke="black" stroke-width="2" fill="none" />
</svg>