<svg xmlns="http://www.w3.org/2000/svg" width="512mm" height="512mm" viewBox="0 0 512 512" version="1.1"><polyline points="305.5,54.5,329.5,70.5,343.5,86.5,355.5,102.5,355.5,119.0,361.5,135.0,369.5,137.0,375.5,147.0,365.0,151.0,363.0,158.5,346.5,172.5,341.0,188.5,343.0,164.5,345.0,148.5,363.5,126.0" stroke="black" stroke-width="2" fill="none" />
<polyline points="368.0,116.0,360.5,100.0,350.5,84.0,334.5,68.0,322.5,64.0,306.5,58.0,290.5,57.5,274.5,57.5" stroke="black" stroke-width="2" fill="none" />
<polyline points="247.0,57.5,227.0,69.5,223.5,79.5,207.5,95.5,200.0,111.0,194.0,127.5,194.0,143.5,192.0,160.0,200.0,176.0,208.0,196.5,210.0,212.5,222.0,241.0,227.5,257.0,229.5,272.5,207.5,292.5,207.5,308.0,208.0,324.0,221.5,344.0,228.0,360.0,232.0,376.0,236.0,392.0,242.0,408.5,248.0,424.0,259.5,440.0" stroke="black" stroke-width="2" fill="none" />
<polyline points="252.0,428.0,236.0,388.5" stroke="black" stroke-width="2" fill="none" />
<polyline points="228.0,381.5,244.0,423.5,260.0,445.0" stroke="black" stroke-width="2" fill="none" />
<polyline points="209.5,381.0,193.5,347.0" stroke="black" stroke-width="2" fill="none" />
<polyline points="191.0,338.0,197.0,353.5,203.0,369.5" stroke="black" stroke-width="2" fill="none" />
<polyline points="205.5,360.0,189.5,338.0" stroke="black" stroke-width="2" fill="none" />
<polyline points="212.0,320.5,220.0,320.5,224.0,336.0,232.0,352.0,242.0,367.5" stroke="black" stroke-width="2" fill="none" />
<polyline points="232.5,322.5,248.5,340.0,264.5,357.5,280.5,363.5,296.0,359.0,312.0,351.5,327.5,337.5,343.5,317.5,357.5,304.0,364.0,308.0,358.0,324.0,354.0,340.5,332.0,356.5" stroke="black" stroke-width="2" fill="none" />
<polyline points="311.5,308.5,295.5,312.5,279.5,314.5,263.0,312.5,246.5,306.5,230.5,295.0" stroke="black" stroke-width="2" fill="none" />
<polyline points="231.5,293.0,253.5,309.0" stroke="black" stroke-width="2" fill="none" />
<polyline points="230.5,306.5,237.0,322.5,253.0,338.5,271.0,354.5" stroke="black" stroke-width="2" fill="none" />
<polyline points="228.0,315.0,244.0,327.0,260.5,343.0,276.5,356.5,293.0,356.5,309.0,348.0,325.0,332.0,341.0,313.5,324.5,307.5" stroke="black" stroke-width="2" fill="none" />
<polyline points="325.0,297.5,321.0,281.5,321.5,265.5,325.0,249.5,331.0,230.0,331.0,214.5,332.5,199.0,336.5,183.0,340.0,167.5,347.5,147.0,343.0,131.0,321.0,135.0,304.5,128.5,288.0,139.0" stroke="black" stroke-width="2" fill="none" />
<polyline points="288.5,147.0,298.5,162.5,314.5,164.5" stroke="black" stroke-width="2" fill="none" />
<polyline points="313.5,163.5,298.0,155.5" stroke="black" stroke-width="2" fill="none" />
<polyline points="291.5,158.0,307.5,166.0" stroke="black" stroke-width="2" fill="none" />
<polyline points="317.5,154.5,301.5,148.5,285.5,150.5" stroke="black" stroke-width="2" fill="none" />
<polyline points="297.0,133.0,313.0,135.5,329.0,147.5" stroke="black" stroke-width="2" fill="none" />
<polyline points="339.5,134.0,343.5,118.0,343.5,101.5,337.0,86.0,325.0,80.0" stroke="black" stroke-width="2" fill="none" />
<polyline points="322.0,107.5,334.0,123.5,333.5,139.5,335.5,147.5" stroke="black" stroke-width="2" fill="none" />
<polyline points="353.5,165.0,351.5,172.5,345.5,189.0,353.5,189.0,364.0,185.0,380.0,189.0,396.0,194.5,412.5,202.0,428.5,209.5,444.5,219.5,460.5,227.5,477.0,237.5,493.0,249.5,509.0,261.5" stroke="black" stroke-width="2" fill="none" />
<polyline points="506.0,340.0,489.5,344.0,473.5,348.0,458.0,354.5,442.0,358.5,426.0,360.0,410.0,361.5" stroke="black" stroke-width="2" fill="none" />
<polyline points="397.0,383.5,388.5,400.0,383.0,416.0,381.0,432.0,379.0,448.0,375.0,464.0,373.0,480.5,372.5,496.5" stroke="black" stroke-width="2" fill="none" />
<polyline points="354.0,437.5,338.0,461.5,322.5,482.0,324.5,479.5,337.0,463.5,349.5,448.0,360.0,432.0,368.0,416.0" stroke="black" stroke-width="2" fill="none" />
<polyline points="365.0,411.5,355.0,427.5,344.5,444.0,332.5,460.0,320.5,476.0,308.5,490.0,324.0,470.0,340.0,448.5,356.0,424.5,382.0,399.0,406.0,377.0,422.0,377.0,438.5,377.0" stroke="black" stroke-width="2" fill="none" />
<polyline points="440.0,380.0,446.0,366.0,490.5,350.5,481.0,370.5,465.0,374.0,449.0,374.0,432.5,382.0,416.5,381.5,400.0,384.0,384.0,408.0" stroke="black" stroke-width="2" fill="none" />
<polyline points="303.0,335.0,325.0,321.0,309.0,325.0,293.0,329.0,276.5,329.5,260.5,325.0,244.5,319.0,228.5,309.0" stroke="black" stroke-width="2" fill="none" />
<polyline points="222.0,312.5,228.0,329.0,233.5,345.0,241.5,360.5" stroke="black" stroke-width="2" fill="none" />
<polyline points="225.5,316.5,241.0,354.5,257.0,370.5,272.5,374.0,288.0,372.0,304.0,367.5,319.5,361.5,335.5,353.5,351.5,343.5" stroke="black" stroke-width="2" fill="none" />
<polyline points="390.0,322.5,371.5,348.0,355.5,380.0,339.5,414.0,335.5,409.5,344.0,393.5,349.5,377.5,347.5,355.5,331.5,369.5,315.5,375.5,299.5,377.0,283.5,381.5,267.5,380.0,252.0,376.0,236.0,358.5,220.0,318.0" stroke="black" stroke-width="2" fill="none" />
<polyline points="212.5,290.5,212.5,306.5,216.5,314.5,218.5,330.5,218.5,346.5,222.5,362.5,226.0,378.0,230.0,394.0,238.0,409.5,244.0,426.0,254.0,442.0" stroke="black" stroke-width="2" fill="none" />
<polyline points="203.0,442.0,199.0,426.0,195.5,409.5,193.5,393.5,191.5,378.0,190.0,362.0,188.0,346.0,186.0,329.5,184.0,313.5,184.0,297.5,184.0,291.5" stroke="black" stroke-width="2" fill="none" />
<polyline points="186.5,293.5,196.5,309.5,203.5,325.5,208.0,341.5,202.0,355.5,210.0,372.0" stroke="black" stroke-width="2" fill="none" />
<polyline points="197.5,438.0,195.5,434.0,191.5,418.0,189.5,402.0,185.0,386.0,183.0,370.0,181.0,354.0,181.0,337.5,179.0,321.5,179.0,305.5,171.5,290.0,166.0,288.0" stroke="black" stroke-width="2" fill="none" />
<polyline points="166.5,288.5,170.5,304.5,186.5,308.5,202.5,312.5,228.5,302.5,244.5,312.5,261.0,318.5,276.5,320.0,292.5,320.0,308.5,315.5,324.5,307.0,340.0,297.5,358.0,293.5,374.0,308.0,396.5,286.0,412.5,288.5,424.5,295.0,440.0,291.0" stroke="black" stroke-width="2" fill="none" />
<polyline points="430.0,293.5,420.5,309.5,414.5,325.5,410.5,342.0,408.5,358.0,410.5,368.0,426.5,368.0,442.5,366.0,458.0,361.5,473.5,355.5,489.5,349.0,505.5,347.0" stroke="black" stroke-width="2" fill="none" />
<polyline points="500.5,262.5,484.5,250.5,468.5,241.0,452.5,230.5,437.0,221.0,421.5,213.0,405.5,205.0,389.5,198.5,373.5,188.5" stroke="black" stroke-width="2" fill="none" />
<polyline points="368.0,186.0,397.5,202.0,430.0,218.5,456.0,234.5,482.5,250.0,504.5,265.5" stroke="black" stroke-width="2" fill="none" />
<polyline points="488.5,307.0,473.0,300.5,456.5,280.5,440.5,262.0,424.5,248.5,408.5,234.0,392.0,224.0,376.0,220.0,360.0,198.0" stroke="black" stroke-width="2" fill="none" />
<polyline points="365.0,184.5,361.0,200.5,369.0,216.0,405.0,232.0,422.5,248.0,440.5,263.5,454.5,279.5,466.5,296.0" stroke="black" stroke-width="2" fill="none" />
<polyline points="450.0,283.5,434.0,265.5,418.0,250.0,401.5,238.0,386.0,230.0,370.0,230.0,354.0,238.0,338.0,242.0,322.0,252.0" stroke="black" stroke-width="2" fill="none" />
<polyline points="320.0,291.5,312.0,275.0,315.5,259.5,311.0,247.5,295.5,255.5,279.5,261.5,263.5,263.5,247.5,255.5,231.5,250.0" stroke="black" stroke-width="2" fill="none" />
<polyline points="236.0,250.0,266.0,266.0" stroke="black" stroke-width="2" fill="none" />
<polyline points="298.5,253.5,314.5,237.0,298.5,247.0,282.5,253.0,266.5,257.0,250.5,250.5,234.0,238.5,218.0,214.5" stroke="black" stroke-width="2" fill="none" />
<polyline points="241.0,197.5,257.5,196.0,274.0,197.5,290.0,201.0" stroke="black" stroke-width="2" fill="none" />
<polyline points="285.5,183.0,270.0,185.0,254.0,180.5" stroke="black" stroke-width="2" fill="none" />
<polyline points="246.0,203.0,262.0,203.0,278.5,205.0,294.0,207.0" stroke="black" stroke-width="2" fill="none" />
<polyline points="317.5,160.5,301.5,152.5,287.5,164.5,261.0,152.5,245.0,158.5,229.0,156.5" stroke="black" stroke-width="2" fill="none" />
<polyline points="227.0,155.0,243.0,149.0" stroke="black" stroke-width="2" fill="none" />
<polyline points="237.0,152.0,253.0,151.5" stroke="black" stroke-width="2" fill="none" />
<polyline points="258.0,135.5,241.5,128.0,225.5,132.0,209.5,148.0" stroke="black" stroke-width="2" fill="none" />
<polyline points="198.5,156.0,182.0,156.0,180.0,147.5,164.0,161.5,148.5,171.0" stroke="black" stroke-width="2" fill="none" />
<polyline points="142.0,172.5,158.0,160.0,173.5,146.5,189.5,164.5,204.0,164.5,206.5,180.5,196.5,196.5,196.5,212.0,192.5,216.0,172.5,239.5,156.5,255.5,144.5,271.5,154.5,288.0,162.5,296.0,166.5,312.0" stroke="black" stroke-width="2" fill="none" />
<polyline points="165.5,304.5,149.5,288.0" stroke="black" stroke-width="2" fill="none" />
<polyline points="151.5,293.5,159.5,309.5,162.0,325.5,164.0,342.0,159.5,358.0,157.5,374.0,152.0,390.0,160.0,393.5,162.5,409.5,162.5,425.5,158.0,441.5,156.0,457.5,154.0,473.5,154.0,489.5,150.0,506.0" stroke="black" stroke-width="2" fill="none" />
<polyline points="145.5,505.0,147.5,489.0,149.0,473.0,151.0,456.5,153.0,440.5,155.5,424.0,155.5,407.5,147.5,397.5,131.5,399.5" stroke="black" stroke-width="2" fill="none" />
<polyline points="138.0,325.0,132.0,309.0,144.0,315.5,128.0,303.5" stroke="black" stroke-width="2" fill="none" />
<polyline points="123.0,305.5,139.0,297.5,155.0,305.5" stroke="black" stroke-width="2" fill="none" />
<polyline points="148.5,294.5,157.0,310.5,159.0,327.0" stroke="black" stroke-width="2" fill="none" />
<polyline points="123.0,316.5,137.0,332.5,145.0,348.5,149.0,364.0" stroke="black" stroke-width="2" fill="none" />
<polyline points="133.0,381.0,116.5,385.0,101.0,387.0,85.0,389.0,69.0,387.0,53.0,381.5,37.0,370.0" stroke="black" stroke-width="2" fill="none" />
<polyline points="45.0,369.5,34.5,353.5,38.5,337.5,44.5,321.5,52.5,306.0,62.0,290.5,76.0,275.0,92.0,259.0,107.5,243.0,125.5,227.0,141.5,210.5,145.5,195.0,145.5,178.5,163.5,162.5,185.5,146.5,185.0,130.0,189.0,114.0,199.5,98.0,211.5,81.5,218.0,85.5,202.0,93.0,186.0,123.0" stroke="black" stroke-width="2" fill="none" />
<polyline points="181.5,120.0,197.0,90.0,213.0,73.5,229.0,61.5,245.0,53.5,260.5,51.5,276.5,49.5,292.5,49.5,308.5,53.5,325.0,61.5,341.0,73.0,357.0,93.5,373.0,129.5" stroke="black" stroke-width="2" fill="none" />
<polyline points="361.5,114.5,345.5,84.5,329.0,74.5,312.5,64.5,292.5,54.5,276.5,55.0,260.0,60.5,243.5,64.5,223.0,72.0,207.0,85.5,193.0,123.5" stroke="black" stroke-width="2" fill="none" />
<polyline points="211.0,108.5,225.0,96.5,218.5,113.0,220.5,129.0,234.0,123.5,249.5,123.5" stroke="black" stroke-width="2" fill="none" />
<polyline points="246.0,123.5,264.0,139.5,260.0,158.0,250.0,174.0,254.0,163.5,266.5,173.5,282.0,175.5,298.0,185.5" stroke="black" stroke-width="2" fill="none" />
<polyline points="312.0,130.5,325.5,146.0,335.5,161.5,331.5,177.5,328.0,194.0,324.0,210.0,322.0,226.0,308.0,242.0" stroke="black" stroke-width="2" fill="none" />
<polyline points="355.0,230.5,361.0,214.5" stroke="black" stroke-width="2" fill="none" />
<polyline points="357.5,212.5,351.5,228.5,353.5,238.5" stroke="black" stroke-width="2" fill="none" />
<polyline points="386.5,232.5,413.0,248.5,429.0,264.5,445.0,280.0,465.0,304.0" stroke="black" stroke-width="2" fill="none" />
<polyline points="427.5,290.5,413.5,292.5,403.5,294.5,399.5,310.5,395.5,314.0,388.0,330.0,387.5,346.0,383.5,362.0,375.5,368.0,393.5,372.0,387.5,388.0,379.5,404.0,375.0,420.5,373.0,436.5,371.5,452.5,367.5,468.5,365.5,484.5,365.5,500.0" stroke="black" stroke-width="2" fill="none" />
<polyline points="300.0,335.5,284.0,341.5,308.0,347.5,324.0,331.5,337.5,315.5,341.5,299.5" stroke="black" stroke-width="2" fill="none" />
<polyline points="372.0,291.0,372.0,307.0,367.5,311.0,371.5,333.0,387.5,299.0,405.5,295.0,433.0,294.5,449.0,296.5,465.5,302.0,481.5,310.0" stroke="black" stroke-width="2" fill="none" />
<polyline points="420.5,293.0,408.5,309.5,406.0,315.5,418.0,295.5" stroke="black" stroke-width="2" fill="none" />
<polyline points="394.5,287.5,390.0,293.5,386.0,309.5,378.0,325.0,380.0,333.0,372.5,348.5,364.5,364.5,356.0,380.5,350.0,396.5,342.0,412.5,336.0,410.5,352.0,376.0,339.5,364.5" stroke="black" stroke-width="2" fill="none" />
<polyline points="306.0,338.0,290.0,346.5,312.0,352.5,330.5,336.0,344.5,320.0,352.5,304.5,373.0,288.5" stroke="black" stroke-width="2" fill="none" />
<polyline points="380.0,284.0,364.0,284.5,347.5,295.0,331.5,291.0,308.0,303.0,292.0,308.5,276.0,311.0,260.0,307.0,244.0,299.5,234.0,275.5,218.0,285.0,202.0,287.0,185.5,284.5,169.5,282.5,153.5,284.0,137.5,284.0" stroke="black" stroke-width="2" fill="none" />
<polyline points="135.5,279.0,151.5,259.0,167.5,241.0,183.5,231.5,199.5,231.5,215.5,235.5,246.0,250.0" stroke="black" stroke-width="2" fill="none" />
<polyline points="235.0,292.0,263.0,307.5" stroke="black" stroke-width="2" fill="none" />
<polyline points="184.5,248.0,169.0,258.5,153.0,274.5,163.5,264.5,181.5,248.5" stroke="black" stroke-width="2" fill="none" />
<polyline points="192.0,187.5,170.0,221.0,170.5,231.0,154.5,247.0,138.0,265.5,122.0,287.5,106.0,318.0,89.5,342.0,74.0,354.0,82.0,350.0,96.0,334.0,106.0,318.0,114.0,302.0,124.0,286.0,136.0,269.5,148.0,253.5,162.0,238.0,178.5,222.0,184.5,206.0,190.5,190.0,184.5,174.0,184.5,168.5,184.5,160.5" stroke="black" stroke-width="2" fill="none" />
<polyline points="181.5,172.0,197.5,182.0" stroke="black" stroke-width="2" fill="none" />
<polyline points="235.5,143.5,221.5,153.5,237.5,143.5,253.5,145.0" stroke="black" stroke-width="2" fill="none" />
<polyline points="236.0,121.0,218.0,137.5,210.0,153.5,210.0,169.5,212.0,185.5,214.0,201.5,218.0,217.5,226.5,233.5,232.5,249.5,235.0,265.5,231.0,282.0,227.0,297.5,229.0,313.5,237.0,330.0,253.0,346.5,271.0,362.5" stroke="black" stroke-width="2" fill="none" />
<polyline points="141.5,370.5,125.5,374.0,110.0,378.0,94.5,381.5,79.0,384.0,63.5,380.0,47.5,370.0,31.5,358.0" stroke="black" stroke-width="2" fill="none" />
<polyline points="35.0,346.0,51.0,308.0,67.0,285.5,82.5,267.5,98.5,252.0,114.0,236.0,130.5,222.0" stroke="black" stroke-width="2" fill="none" />
<polyline points="126.0,217.5,110.0,231.5,94.5,247.5,79.0,263.5,63.0,282.0,47.0,304.0,31.0,340.5" stroke="black" stroke-width="2" fill="none" />
<polyline points="50.0,381.5,32.0,365.5,28.0,349.5,34.0,333.5,37.5,317.5,48.0,301.0,58.0,285.0,72.0,269.0,87.5,252.5,103.5,236.5,122.0,221.0,138.0,205.0,142.0,189.0,142.0,173.0,159.5,157.0,179.5,141.0,181.5,125.5,185.5,109.5,196.0,94.0,210.0,78.5,230.0,62.5,244.0,60.5" stroke="black" stroke-width="2" fill="none" />
<polyline points="222.5,106.0,238.5,104.0,254.5,97.5,268.0,91.0,280.0,89.0,291.5,91.0,313.5,104.5,329.0,111.0" stroke="black" stroke-width="2" fill="none" />
<polyline points="357.0,104.0,361.5,120.0,365.0,135.5,371.5,145.5,369.5,161.5,360.0,165.5,360.0,181.5,356.5,198.0,350.5,214.0,345.0,230.5,341.0,236.5,353.0,222.5" stroke="black" stroke-width="2" fill="none" />
<polyline points="375.0,167.0,372.5,183.0,403.0,199.0,434.5,215.0,462.5,230.5,486.0,246.5,508.5,262.5" stroke="black" stroke-width="2" fill="none" />
<polyline points="322.0,88.0,331.5,85.5,325.5,83.0,317.5,77.0,303.5,61.0" stroke="black" stroke-width="2" fill="none" />
<polyline points="117.0,314.5,105.0,330.5,94.5,346.5,74.5,360.5,90.5,350.5,106.5,326.5,122.5,314.0,138.0,324.0,140.0,336.0" stroke="black" stroke-width="2" fill="none" />
</svg>