<svg xmlns="http://www.w3.org/2000/svg" width="512mm" height="512mm" viewBox="0 0 512 512" version="1.1"><polyline points="165.5,2.5,151.5,10.5,133.5,26.5,119.5,42.5,111.5,59.0,111.5,75.0,119.5,91.0,113.5,107.0,109.0,123.0,105.0,138.5,106.5,154.5,95.0,170.5,95.0,186.5,99.0,202.5,105.5,218.0,117.5,233.5,125.5,239.0,141.5,237.0,149.5,245.0,165.5,236.5,182.0,234.5,192.0,264.5,208.5,270.5,224.5,277.0,240.5,277.0" stroke="black" stroke-width="2" fill="none" />
<polyline points="253.0,255.5,237.5,247.0" stroke="black" stroke-width="2" fill="none" />
<polyline points="232.0,243.5,248.0,243.5,264.0,246.0" stroke="black" stroke-width="2" fill="none" />
<polyline points="271.5,233.5,255.0,241.5,238.5,233.5,222.5,229.5" stroke="black" stroke-width="2" fill="none" />
<polyline points="220.0,219.0,236.0,221.0,251.5,222.5,267.5,220.5,284.0,213.0" stroke="black" stroke-width="2" fill="none" />
<polyline points="292.0,213.0,276.0,195.5" stroke="black" stroke-width="2" fill="none" />
<polyline points="280.5,194.5,294.5,210.5,296.5,230.5,286.5,246.5,276.5,262.5,276.5,278.5,265.0,294.5" stroke="black" stroke-width="2" fill="none" />
<polyline points="256.0,296.0,239.5,304.0,223.5,306.0,207.5,304.0,191.5,296.0,175.5,287.5,165.0,272.0,149.0,266.0" stroke="black" stroke-width="2" fill="none" />
<polyline points="146.0,262.0,162.0,258.0,180.0,256.0,196.0,278.0,212.0,292.0,227.5,294.0,244.0,288.0" stroke="black" stroke-width="2" fill="none" />
<polyline points="241.5,282.0,226.0,288.0,210.5,284.0,194.5,267.5" stroke="black" stroke-width="2" fill="none" />
<polyline points="203.5,270.5,191.5,254.5" stroke="black" stroke-width="2" fill="none" />
<polyline points="197.5,239.0,213.5,259.0" stroke="black" stroke-width="2" fill="none" />
<polyline points="224.5,268.0,208.5,263.5,192.0,252.0,176.0,240.0" stroke="black" stroke-width="2" fill="none" />
<polyline points="176.5,232.5,180.5,248.5,190.5,264.5,204.5,280.5" stroke="black" stroke-width="2" fill="none" />
<polyline points="177.0,295.0,155.0,279.0,147.5,263.0,152.0,243.5,172.0,221.0,172.0,205.0,172.5,189.5,171.0,173.5,163.0,163.5,165.0,143.5,164.5,127.5,158.5,127.5,163.0,111.5,159.0,105.5,131.0,103.5,139.0,95.5,143.0,89.5,143.0,83.5,132.5,61.5,146.5,53.5,152.5,37.5,172.5,36.0,176.0,20.5,168.0,13.0,182.0,7.0,195.5,11.0,185.5,23.0,169.5,38.5,153.5,49.0" stroke="black" stroke-width="2" fill="none" />
<polyline points="146.0,53.5,161.5,37.5,167.5,17.0,155.5,33.0,143.0,33.0,125.5,49.0,116.0,63.0,120.0,77.0,138.5,67.0,144.5,66.5,160.0,54.5,178.5,37.0,188.5,27.5,190.5,52.0,206.5,44.5,222.0,40.5,238.5,48.5,254.5,46.5,270.5,48.5,286.5,50.5,290.5,46.5,298.5,56.5,311.0,52.5,317.0,72.5,333.0,84.5" stroke="black" stroke-width="2" fill="none" />
<polyline points="324.0,69.5,308.0,59.5" stroke="black" stroke-width="2" fill="none" />
<polyline points="296.0,60.5,303.5,76.0" stroke="black" stroke-width="2" fill="none" />
<polyline points="292.5,75.0,314.5,90.5,322.5,106.5" stroke="black" stroke-width="2" fill="none" />
<polyline points="328.5,144.0,335.0,160.0,339.0,176.0,335.0,192.0,329.0,208.5" stroke="black" stroke-width="2" fill="none" />
<polyline points="326.0,199.5,326.0,200.0,332.5,184.0,332.5,168.0,326.5,152.0,320.0,148.0" stroke="black" stroke-width="2" fill="none" />
<polyline points="310.0,116.0,294.5,106.5,278.5,90.5,262.5,87.0" stroke="black" stroke-width="2" fill="none" />
<polyline points="259.0,86.5,249.0,102.5,261.0,106.0,285.0,106.0,290.5,122.0" stroke="black" stroke-width="2" fill="none" />
<polyline points="281.5,108.0,266.0,100.0" stroke="black" stroke-width="2" fill="none" />
<polyline points="254.0,99.0,270.0,107.0,285.5,110.5" stroke="black" stroke-width="2" fill="none" />
<polyline points="281.0,123.5,238.5,115.5,232.5,91.5,238.5,83.5,242.5,71.5,270.0,66.0,260.0,44.5,252.0,28.5,234.0,28.5,226.0,34.5,210.0,32.0" stroke="black" stroke-width="2" fill="none" />
<polyline points="206.5,25.5,228.5,17.5,211.0,19.5,205.0,19.5,190.5,25.0,174.0,39.5,160.0,55.5,150.5,72.0,150.5,88.5,144.0,109.0,133.5,125.0,132.0,141.0,150.0,156.5,158.0,172.0,162.5,188.0,162.5,193.5,162.5,209.5,159.0,225.5" stroke="black" stroke-width="2" fill="none" />
<polyline points="182.0,223.5,198.0,234.0,214.0,252.5,230.0,266.5,245.5,274.0,261.5,272.0,278.0,248.0,294.0,223.5" stroke="black" stroke-width="2" fill="none" />
<polyline points="309.5,200.0,313.5,184.0,313.5,167.5,291.5,159.5,275.0,161.5" stroke="black" stroke-width="2" fill="none" />
<polyline points="270.5,164.5,286.0,154.0,302.0,154.0,322.0,170.0,318.0,185.5,314.0,201.5" stroke="black" stroke-width="2" fill="none" />
<polyline points="288.0,177.0,271.5,167.0" stroke="black" stroke-width="2" fill="none" />
<polyline points="283.5,154.5,271.5,170.5,285.0,170.5,295.0,170.5,316.5,158.0" stroke="black" stroke-width="2" fill="none" />
<polyline points="334.0,107.5,330.0,103.5,328.5,91.0,326.5,73.0,313.0,57.0,305.0,41.0,294.5,25.5,280.5,21.5" stroke="black" stroke-width="2" fill="none" />
<polyline points="271.5,17.5,287.5,21.5,303.5,35.0,320.0,49.0" stroke="black" stroke-width="2" fill="none" />
<polyline points="326.5,46.0,311.0,30.0,295.5,17.5,280.0,8.0" stroke="black" stroke-width="2" fill="none" />
<polyline points="269.5,23.0,289.5,39.0,319.5,49.0,311.5,55.5" stroke="black" stroke-width="2" fill="none" />
<polyline points="291.5,39.5,275.5,31.5,260.0,23.0" stroke="black" stroke-width="2" fill="none" />
<polyline points="263.0,28.0,285.5,44.0,289.0,59.5,303.5,63.5,323.5,79.5" stroke="black" stroke-width="2" fill="none" />
<polyline points="334.0,63.5,334.0,47.5,318.0,31.5,298.0,15.5,272.0,11.5,256.0,9.0,242.5,19.0" stroke="black" stroke-width="2" fill="none" />
<polyline points="252.5,8.0,268.5,14.0,292.5,12.0,306.0,28.0,324.0,44.5,338.0,62.5,342.0,76.5,334.0,92.5,338.0,102.5,326.0,118.5,325.5,134.5,316.0,144.5,324.0,160.5,328.5,176.5,324.5,192.5,313.0,208.0,317.5,214.0,321.5,218.0" stroke="black" stroke-width="2" fill="none" />
<polyline points="277.5,225.5,261.0,227.5,242.5,230.0,226.5,226.5,211.0,222.5" stroke="black" stroke-width="2" fill="none" />
<polyline points="218.5,215.0,234.5,199.5,250.5,207.0,266.0,208.5,278.0,199.0,288.0,217.0,273.5,237.0,251.0,233.0" stroke="black" stroke-width="2" fill="none" />
<polyline points="235.0,200.5,218.5,216.5,220.5,206.0,236.5,190.0,248.0,202.5,264.0,204.5,278.0,192.0,294.0,209.5" stroke="black" stroke-width="2" fill="none" />
<polyline points="316.0,205.5,300.5,219.5,287.0,246.0,265.5,250.0,249.5,250.0,242.0,246.0,233.5,244.0,235.5,238.0,211.0,222.0,220.5,205.5,236.0,189.5,252.0,159.5,237.5,155.5,229.5,157.5,213.5,155.5,197.5,159.5" stroke="black" stroke-width="2" fill="none" />
<polyline points="200.5,161.5,216.5,161.5,232.5,163.5,248.5,164.0" stroke="black" stroke-width="2" fill="none" />
<polyline points="224.0,172.5,208.0,167.0" stroke="black" stroke-width="2" fill="none" />
<polyline points="206.5,169.5,222.5,175.5,238.5,171.5" stroke="black" stroke-width="2" fill="none" />
<polyline points="240.5,156.0,224.0,150.0,208.0,150.0" stroke="black" stroke-width="2" fill="none" />
<polyline points="200.0,150.5,216.0,146.5,232.0,146.0,248.0,152.0" stroke="black" stroke-width="2" fill="none" />
<polyline points="251.0,120.0,235.0,114.0" stroke="black" stroke-width="2" fill="none" />
<polyline points="227.5,110.0,243.5,112.0,259.5,118.5" stroke="black" stroke-width="2" fill="none" />
<polyline points="242.5,106.0,258.5,112.0,274.0,120.0,290.0,125.5,306.0,127.5" stroke="black" stroke-width="2" fill="none" />
<polyline points="327.5,91.5,312.0,83.5,296.5,77.5,288.5,57.0,271.0,42.5,255.0,38.5,247.5,24.5,241.5,34.5,227.5,46.5,221.5,58.5,205.5,51.0" stroke="black" stroke-width="2" fill="none" />
<polyline points="202.0,43.0,226.0,59.5,232.0,57.5,256.0,53.5,276.0,63.5,286.0,87.5,302.0,101.5,318.5,113.5" stroke="black" stroke-width="2" fill="none" />
<polyline points="301.0,118.0,285.5,106.0,270.0,98.0,270.5,94.5,254.5,94.5,244.5,99.0,228.5,101.0,212.0,99.0,196.0,100.5,180.0,124.5,180.0,114.5,167.5,112.0,175.5,96.0,195.5,90.0,205.5,73.5,196.0,59.5" stroke="black" stroke-width="2" fill="none" />
<polyline points="205.5,69.5,221.5,85.5" stroke="black" stroke-width="2" fill="none" />
<polyline points="237.0,104.5,269.0,104.5,283.0,118.0" stroke="black" stroke-width="2" fill="none" />
<polyline points="291.5,106.0,278.0,90.0" stroke="black" stroke-width="2" fill="none" />
<polyline points="285.0,83.0,306.5,99.0" stroke="black" stroke-width="2" fill="none" />
<polyline points="327.0,109.5,310.5,99.5,296.5,80.0,294.5,66.0,278.0,58.5,262.0,64.5,246.0,69.0,236.0,93.0,216.0,87.5,206.5,89.0,186.5,99.0,166.5,125.0,154.5,104.5,164.5,88.5,180.5,77.0,192.5,66.5,193.0,63.0,181.5,57.0,171.5,55.0,185.5,38.5,163.5,58.5" stroke="black" stroke-width="2" fill="none" />
<polyline points="158.0,66.0,168.0,72.0,162.0,74.0" stroke="black" stroke-width="2" fill="none" />
<polyline points="194.0,82.0,178.0,88.5,159.5,97.0,143.5,97.0,142.0,113.0,126.0,98.5" stroke="black" stroke-width="2" fill="none" />
<polyline points="114.0,103.5,126.0,101.5,126.0,117.0,124.0,133.0,138.5,149.5,150.5,165.5,156.5,181.0,156.5,197.0,154.5,213.0,154.5,229.5" stroke="black" stroke-width="2" fill="none" />
<polyline points="137.0,271.0,159.0,275.5,179.0,291.5" stroke="black" stroke-width="2" fill="none" />
<polyline points="198.0,283.0,184.0,266.5,174.0,251.0,166.0,253.0,150.0,257.5,134.0,263.5,118.0,263.0,102.0,267.0,85.5,272.5,69.5,284.5,53.5,306.0,37.5,352.0" stroke="black" stroke-width="2" fill="none" />
<polyline points="38.0,370.5,62.0,318.0,65.5,334.5,75.5,350.5,90.0,366.5,108.5,382.5,114.5,398.5,114.5,412.0,112.5,428.0,112.5,443.5,102.5,459.5,96.5,461.5,100.5,466.0,124.5,460.0,140.5,454.0,156.5,446.0,172.5,440.0,188.0,432.0,204.0,424.0,220.0,413.5,236.0,391.5,260.0,375.5,276.0,380.0,292.5,380.0,308.5,378.0" stroke="black" stroke-width="2" fill="none" />
<polyline points="318.0,386.0,314.5,370.0,315.0,354.5,299.0,354.5,283.0,358.5,267.5,360.5" stroke="black" stroke-width="2" fill="none" />
<polyline points="267.5,366.5,283.5,364.0,291.5,360.0" stroke="black" stroke-width="2" fill="none" />
<polyline points="298.5,372.0,282.0,372.5,266.0,372.5,254.0,379.0,252.0,363.0,266.0,361.5,264.5,355.0,248.5,359.0" stroke="black" stroke-width="2" fill="none" />
<polyline points="247.5,374.0,239.5,390.0,227.5,406.0,207.0,422.0,174.5,437.5,140.0,454.0" stroke="black" stroke-width="2" fill="none" />
<polyline points="234.0,448.0,238.0,438.0,252.5,438.0,236.5,454.0,211.0,469.5,186.5,485.5,164.5,501.5,168.5,505.5,184.5,493.0,200.0,483.0,216.5,473.0,232.5,463.0,248.5,449.5,264.5,435.5,281.0,428.0,297.0,410.0,313.0,400.5" stroke="black" stroke-width="2" fill="none" />
<polyline points="307.5,384.5,291.5,386.5,275.0,384.0,259.0,382.0" stroke="black" stroke-width="2" fill="none" />
<polyline points="244.5,395.5,261.0,393.5,277.0,395.5,293.0,397.5,309.0,395.5,325.0,379.5" stroke="black" stroke-width="2" fill="none" />
<polyline points="317.0,356.5,319.0,372.0,325.0,384.0,311.0,399.5,288.5,415.5,272.0,431.5,250.0,447.5,229.5,463.5,203.5,479.5,181.5,496.0,153.5,510.0,169.5,497.5,185.5,485.5,201.5,475.5,217.5,465.5,233.0,455.5,249.5,441.5,262.0,431.0,278.0,421.5" stroke="black" stroke-width="2" fill="none" />
<polyline points="278.5,402.5,262.5,400.5,246.5,402.5" stroke="black" stroke-width="2" fill="none" />
<polyline points="235.0,421.5,251.5,413.5,267.0,411.5,283.0,409.5,272.5,426.0" stroke="black" stroke-width="2" fill="none" />
<polyline points="270.5,415.5,254.5,417.0,238.0,424.5" stroke="black" stroke-width="2" fill="none" />
<polyline points="303.0,437.5,307.0,422.0" stroke="black" stroke-width="2" fill="none" />
<polyline points="310.0,425.5,306.0,441.5" stroke="black" stroke-width="2" fill="none" />
<polyline points="302.0,467.5,318.5,445.5,335.0,431.5,351.5,405.5,367.0,380.0,371.5,384.0,387.5,382.0,403.5,382.0,420.0,380.5,436.5,376.5" stroke="black" stroke-width="2" fill="none" />
<polyline points="392.0,394.5,375.5,392.5" stroke="black" stroke-width="2" fill="none" />
<polyline points="375.0,387.5,391.0,385.5,407.0,388.0,423.0,388.0,439.0,386.5,455.0,380.5,443.0,396.5,431.5,412.5,409.5,418.5,421.5,422.5,409.0,442.5,411.0,446.5,399.0,464.5,407.0,452.5,411.0,423.0,414.5,417.0" stroke="black" stroke-width="2" fill="none" />
<polyline points="398.0,435.0,382.0,427.5" stroke="black" stroke-width="2" fill="none" />
<polyline points="378.5,423.0,394.5,425.0" stroke="black" stroke-width="2" fill="none" />
<polyline points="381.0,421.5,395.0,437.5,401.0,453.5" stroke="black" stroke-width="2" fill="none" />
<polyline points="386.5,455.5,370.5,439.5" stroke="black" stroke-width="2" fill="none" />
<polyline points="369.0,433.5,385.0,439.5" stroke="black" stroke-width="2" fill="none" />
<polyline points="377.5,435.5,391.5,451.5,399.5,467.5,379.5,494.0" stroke="black" stroke-width="2" fill="none" />
<polyline points="374.5,466.5,359.0,490.0,365.0,498.0,375.5,482.0,393.5,474.0,386.0,458.0,370.5,442.0,354.0,438.5" stroke="black" stroke-width="2" fill="none" />
<polyline points="348.5,432.5,364.5,426.5,381.0,416.5,397.0,418.5,413.0,410.5,429.0,414.5" stroke="black" stroke-width="2" fill="none" />
<polyline points="385.0,370.0,369.0,348.0" stroke="black" stroke-width="2" fill="none" />
<polyline points="369.0,347.5,379.0,363.5,368.5,380.0,358.5,396.0,348.5,412.0,340.5,428.0,322.0,444.0,308.0,460.5,302.0,476.5,298.0,493.0,292.0,509.0,296.0,511.0,310.5,499.0" stroke="black" stroke-width="2" fill="none" />
<polyline points="309.5,483.5,326.0,507.5" stroke="black" stroke-width="2" fill="none" />
<polyline points="321.0,504.0,311.0,488.0,311.0,472.0,319.0,456.5,309.0,474.5" stroke="black" stroke-width="2" fill="none" />
<polyline points="337.0,455.5,353.0,453.5,369.0,451.5,375.0,467.5,367.0,484.0,351.0,500.5,365.0,501.0,380.5,487.0" stroke="black" stroke-width="2" fill="none" />
<polyline points="362.0,458.5,346.5,458.5" stroke="black" stroke-width="2" fill="none" />
<polyline points="340.5,437.0,356.5,411.0,372.5,399.5,388.5,397.5,405.0,396.0,421.0,394.0,437.0,392.5,447.0,400.5,435.0,417.0,423.0,433.0,415.0,449.0,407.0,465.0,399.0,480.5,387.0,496.5,364.5,508.5,366.5,506.5,376.5,504.5,392.5,490.5" stroke="black" stroke-width="2" fill="none" />
<polyline points="308.0,501.5,310.0,507.5,304.0,505.5,306.0,489.5,296.0,509.5" stroke="black" stroke-width="2" fill="none" />
<polyline points="367.0,398.0,355.0,414.0,351.0,429.5,342.5,445.5,334.5,448.0,344.0,464.0,350.5,464.0,366.5,462.0,390.5,466.0,414.5,448.5,430.5,420.5,446.5,398.0" stroke="black" stroke-width="2" fill="none" />
<polyline points="445.0,370.0,428.5,370.0,413.0,372.5,397.0,372.5,381.5,358.5,366.0,344.0,358.0,326.0,342.5,298.0,326.5,287.5,310.5,281.5,295.0,275.5,279.0,269.5" stroke="black" stroke-width="2" fill="none" />
<polyline points="272.5,269.5,264.5,285.5,261.5,289.5" stroke="black" stroke-width="2" fill="none" />
<polyline points="274.0,302.0,264.0,310.0,247.5,318.0,231.5,321.5,215.5,319.5,200.0,317.5,184.0,309.0,168.5,301.5,152.5,291.5,136.5,286.0,120.5,280.5" stroke="black" stroke-width="2" fill="none" />
<polyline points="116.5,287.0,132.5,292.5,149.0,304.5" stroke="black" stroke-width="2" fill="none" />
<polyline points="156.0,316.5,140.0,304.5,124.0,292.5" stroke="black" stroke-width="2" fill="none" />
<polyline points="110.5,277.0,116.5,281.0,128.5,297.0,150.5,313.5" stroke="black" stroke-width="2" fill="none" />
<polyline points="158.0,290.5,182.0,307.0" stroke="black" stroke-width="2" fill="none" />
<polyline points="200.0,317.5,165.5,301.5,149.5,285.5" stroke="black" stroke-width="2" fill="none" />
<polyline points="150.0,305.5,128.5,289.5,116.5,273.0" stroke="black" stroke-width="2" fill="none" />
<polyline points="111.0,268.5,127.0,268.5,143.0,266.5,159.5,280.5,175.5,292.5,191.5,302.5,207.0,308.5,223.0,312.5,239.0,310.0,254.5,303.5,268.5,289.5,268.5,273.5,286.5,267.5,302.5,272.0,318.0,280.5,333.5,286.5,349.5,298.5" stroke="black" stroke-width="2" fill="none" />
<polyline points="360.0,350.0,358.0,366.0,353.5,382.0" stroke="black" stroke-width="2" fill="none" />
<polyline points="257.0,345.5,242.5,362.0,239.0,378.0,229.0,394.0,217.0,410.0,189.0,426.0,155.0,442.5" stroke="black" stroke-width="2" fill="none" />
<polyline points="114.0,336.5,114.0,342.5,96.0,326.0,88.0,310.0,95.5,310.0,87.5,308.0" stroke="black" stroke-width="2" fill="none" />
<polyline points="89.0,313.5,105.0,329.5" stroke="black" stroke-width="2" fill="none" />
<polyline points="111.5,330.0,95.5,306.0" stroke="black" stroke-width="2" fill="none" />
<polyline points="99.0,302.5,109.0,318.5,118.5,334.5" stroke="black" stroke-width="2" fill="none" />
<polyline points="114.0,298.5,98.0,284.5" stroke="black" stroke-width="2" fill="none" />
<polyline points="98.5,284.5,109.0,300.5,115.0,317.0,105.0,319.5,119.0,339.5,119.0,355.5,115.0,371.5,121.0,377.5,120.5,393.0,118.5,409.0,119.0,424.5,119.0,440.5,114.5,459.0,130.5,451.0,146.0,445.5,161.5,437.5,177.5,431.5,194.0,423.5,210.0,413.5,226.0,395.5,242.0,361.5,258.0,346.0,274.0,346.5,290.0,346.5,305.5,348.0" stroke="black" stroke-width="2" fill="none" />
<polyline points="267.5,303.0,261.0,307.0,245.0,315.0,228.5,316.5,212.0,317.0,196.5,313.0,180.5,305.0,165.0,295.0,149.0,285.0,133.0,280.5,117.0,274.0,101.5,269.5,85.5,277.0,69.5,290.5,53.5,318.0" stroke="black" stroke-width="2" fill="none" />
<polyline points="59.5,320.0,75.5,338.0,91.0,358.5,107.0,374.5" stroke="black" stroke-width="2" fill="none" />
<polyline points="110.0,351.5,94.0,337.0,78.0,319.0" stroke="black" stroke-width="2" fill="none" />
<polyline points="76.0,317.5,92.0,327.5,108.0,343.5" stroke="black" stroke-width="2" fill="none" />
<polyline points="109.5,319.0,93.5,299.0" stroke="black" stroke-width="2" fill="none" />
<polyline points="102.5,288.5,113.0,304.5,117.0,320.5" stroke="black" stroke-width="2" fill="none" />
<polyline points="96.0,334.5,82.0,318.5" stroke="black" stroke-width="2" fill="none" />
<polyline points="79.0,316.5,89.0,332.5,105.0,348.5,115.0,364.0" stroke="black" stroke-width="2" fill="none" />
<polyline points="110.5,382.0,94.5,368.0,78.5,350.5,62.5,324.5" stroke="black" stroke-width="2" fill="none" />
<polyline points="65.0,320.0,75.0,335.5,87.0,351.5,101.0,368.0" stroke="black" stroke-width="2" fill="none" />
<polyline points="105.0,389.5,89.0,383.5,73.0,380.0,57.5,376.0" stroke="black" stroke-width="2" fill="none" />
<polyline points="56.0,376.0,71.5,374.0,87.0,377.5,103.0,383.5" stroke="black" stroke-width="2" fill="none" />
<polyline points="102.5,402.0,86.0,398.0,70.0,393.5,54.0,393.5,38.5,389.0" stroke="black" stroke-width="2" fill="none" />
<polyline points="35.5,387.0,51.5,385.0,67.5,389.0,83.5,391.5,99.5,395.5" stroke="black" stroke-width="2" fill="none" />
<polyline points="50.0,496.0,50.0,479.5,50.0,463.5,50.0,447.5,52.0,431.5,52.5,415.5,52.5,399.5,46.0,389.5,40.0,366.0,45.5,350.0,49.5,334.0,56.0,318.0,62.0,301.5,75.5,285.5,99.5,269.5" stroke="black" stroke-width="2" fill="none" />
<polyline points="97.0,266.0,71.0,281.5,57.5,297.5,52.0,313.5,46.5,329.5,42.5,346.0,37.0,362.0,35.0,378.0,38.5,394.0,48.5,410.0,46.5,426.5,46.5,442.5,46.5,458.0,46.5,474.0,46.5,490.0,48.5,506.0" stroke="black" stroke-width="2" fill="none" />
<polyline points="152.5,237.5,166.0,221.5,166.0,205.0,163.5,181.5,161.5,172.0,151.5,148.0,141.5,132.0,137.5,124.0" stroke="black" stroke-width="2" fill="none" />
<polyline points="129.5,132.5,143.5,128.5,155.5,144.5,167.5,160.5,175.5,176.0,178.0,192.0,180.5,208.0,182.5,223.5,192.5,240.0,199.0,242.0,211.0,258.0" stroke="black" stroke-width="2" fill="none" />
<polyline points="202.0,241.0,216.0,257.0,237.5,273.0" stroke="black" stroke-width="2" fill="none" />
<polyline points="297.5,271.0,333.5,287.0,351.5,303.5,359.5,319.5,365.5,336.0,375.5,352.0,387.5,368.0" stroke="black" stroke-width="2" fill="none" />
<polyline points="350.5,374.0,354.5,358.0,364.5,342.0,356.5,326.0,350.5,309.5,334.5,293.5,298.0,277.5" stroke="black" stroke-width="2" fill="none" />
<polyline points="163.0,161.0,147.0,151.0,146.5,138.5,130.0,139.0" stroke="black" stroke-width="2" fill="none" />
<polyline points="126.5,147.5,142.5,163.5" stroke="black" stroke-width="2" fill="none" />
<polyline points="138.0,168.0,122.0,150.5" stroke="black" stroke-width="2" fill="none" />
<polyline points="120.5,146.5,139.0,162.5,145.0,178.5,145.0,194.0,147.0,214.0,145.0,229.5" stroke="black" stroke-width="2" fill="none" />
<polyline points="152.0,229.0,149.5,241.0,134.0,239.0,142.5,228.5,142.5,212.0,142.0,195.5,142.0,179.5,134.5,163.0,117.0,147.5,121.0,139.5,118.5,123.5,118.5,109.5,124.5,93.5,116.5,73.5,125.0,69.5,133.0,54.0,133.0,38.0,149.0,22.5,160.5,6.5,146.5,17.0,130.0,31.0,114.0,51.0" stroke="black" stroke-width="2" fill="none" />
<polyline points="123.0,51.5,139.5,38.0,156.0,19.5,172.0,7.0" stroke="black" stroke-width="2" fill="none" />
<polyline points="189.0,7.5,183.0,23.5,155.5,41.5,143.5,69.5,160.0,79.0,176.0,79.5,178.0,69.5,182.0,68.0,196.0,76.0,208.0,68.5,218.0,74.5,234.0,83.0,249.5,77.0,265.5,72.5,281.5,76.5,283.5,82.0,300.0,92.0,315.5,98.0" stroke="black" stroke-width="2" fill="none" />
<polyline points="335.5,49.0,319.0,31.0,303.5,17.0,288.0,7.5,272.0,3.5,256.0,3.5,239.5,3.5,223.5,7.5,207.5,9.5,191.5,19.5" stroke="black" stroke-width="2" fill="none" />
<polyline points="214.5,45.5,230.5,52.0,242.0,54.0" stroke="black" stroke-width="2" fill="none" />
<polyline points="240.0,41.5,238.0,57.5,213.5,65.5,223.5,67.5,219.5,61.5,220.0,66.0" stroke="black" stroke-width="2" fill="none" />
<polyline points="197.5,98.5,185.5,114.5,175.5,130.5,155.5,144.5,171.5,138.5" stroke="black" stroke-width="2" fill="none" />
<polyline points="165.5,171.5,147.5,159.5,131.5,143.5,115.5,146.0" stroke="black" stroke-width="2" fill="none" />
<polyline points="105.5,156.5,121.0,156.5,137.0,178.5" stroke="black" stroke-width="2" fill="none" />
<polyline points="124.5,163.5,136.0,179.5,138.0,195.5,138.0,211.0,136.0,227.0" stroke="black" stroke-width="2" fill="none" />
<polyline points="121.0,227.0,105.0,197.0" stroke="black" stroke-width="2" fill="none" />
<polyline points="100.0,200.0,116.0,226.5" stroke="black" stroke-width="2" fill="none" />
<polyline points="131.5,229.5,115.5,229.5,134.0,209.5,134.5,193.0,130.5,177.0,117.0,160.5,97.0,168.5" stroke="black" stroke-width="2" fill="none" />
<polyline points="102.5,166.0,118.5,162.0,134.5,185.5,160.0,177.0" stroke="black" stroke-width="2" fill="none" />
<polyline points="106.0,160.0,100.0,176.0,102.0,192.0,108.0,208.5,118.0,224.5" stroke="black" stroke-width="2" fill="none" />
<polyline points="142.0,85.0,126.0,83.0" stroke="black" stroke-width="2" fill="none" />
<polyline points="123.0,58.0,125.0,45.5,139.0,29.5,155.0,15.5,171.0,3.5,196.5,6.0,210.5,6.5,226.0,14.5,239.5,10.5,239.0,20.5,255.0,16.5,270.5,24.5,286.5,32.0,303.0,41.5" stroke="black" stroke-width="2" fill="none" />
<polyline points="276.0,57.5,286.0,73.5,276.0,76.0,288.0,92.0,310.0,107.5,316.5,129.5,312.0,145.5,310.0,161.5,308.0,177.5,306.5,193.5,303.0,209.5,292.5,226.0,283.0,242.0,273.0,258.0,263.0,274.0,241.0,290.0" stroke="black" stroke-width="2" fill="none" />
</svg>