<svg xmlns="http://www.w3.org/2000/svg" width="512mm" height="512mm" viewBox="0 0 512 512" version="1.1"><polyline points="219.5,2.5,207.5,18.5,199.5,28.5,199.5,46.5" stroke="black" stroke-width="2" fill="none" />
<polyline points="199.0,34.5,215.0,48.5,240.5,67.0,248.5,77.0,252.0,81.5,257.5,87.5" stroke="black" stroke-width="2" fill="none" />
<polyline points="252.0,133.0,262.0,117.0,270.0,101.0,277.5,85.0,263.5,113.0,248.0,137.5,232.0,149.5,228.0,146.0,222.0,138.0,218.0,122.0,226.5,106.5,240.5,104.5,238.0,128.5,234.0,126.5,227.5,128.5,235.5,130.5,244.0,114.5,234.5,114.0,250.5,113.5,252.5,97.5,256.5,81.5,248.5,65.5,235.0,52.0,237.0,36.5,239.0,20.5,245.5,4.5,255.5,8.5,261.5,18.5,263.0,8.5,247.0,14.5,243.0,32.5" stroke="black" stroke-width="2" fill="none" />
<polyline points="252.0,17.0,274.0,27.0,274.5,33.0,280.5,36.5,281.0,52.5,297.0,60.0,299.0,56.0,317.0,63.5,316.5,79.5,288.5,95.5,276.5,111.5,288.5,95.5,305.0,91.5,321.0,77.5,336.5,75.0,340.0,87.5,356.0,83.5,372.5,94.0,388.5,86.5" stroke="black" stroke-width="2" fill="none" />
<polyline points="386.0,75.5,382.0,75.5,372.0,59.0" stroke="black" stroke-width="2" fill="none" />
<polyline points="389.0,52.0,372.5,40.0,368.5,27.5,350.0,12.0,328.0,4.0" stroke="black" stroke-width="2" fill="none" />
<polyline points="348.0,7.5,364.0,8.0,370.0,14.5,380.0,30.5,389.5,46.0,387.5,54.0,394.0,70.0,386.0,85.5,363.5,89.0,366.0,105.0,362.0,121.0,350.0,137.0,331.5,158.5,323.5,175.0,307.0,175.5,304.5,195.5,286.5,212.0,307.0,228.5,313.0,250.5,324.5,275.0,330.5,291.0,336.5,307.0,345.0,322.5,349.5,338.5,348.0,354.5,342.0,360.5,348.5,370.5,364.5,364.0,388.5,377.5,404.0,383.5,410.0,365.0,414.0,355.0,430.0,349.0,446.0,335.0,462.0,317.5,478.0,307.5" stroke="black" stroke-width="2" fill="none" />
<polyline points="466.0,298.0,458.0,307.5,452.0,321.5,435.5,337.5,440.5,331.5,454.5,315.5" stroke="black" stroke-width="2" fill="none" />
<polyline points="459.0,302.0,457.0,309.5,439.5,313.5,424.0,329.5,436.5,317.5,452.5,300.0,463.0,290.0,479.0,294.0,474.5,314.0,460.5,330.0,446.5,346.5,430.5,362.5" stroke="black" stroke-width="2" fill="none" />
<polyline points="417.5,328.0,401.5,325.5,386.0,327.5" stroke="black" stroke-width="2" fill="none" />
<polyline points="388.5,325.0,384.5,341.5,380.0,357.5,382.0,373.5,384.0,386.0,400.0,390.0" stroke="black" stroke-width="2" fill="none" />
<polyline points="365.5,367.5,349.5,369.5" stroke="black" stroke-width="2" fill="none" />
<polyline points="342.0,350.0,326.0,354.0,310.0,354.0" stroke="black" stroke-width="2" fill="none" />
<polyline points="305.0,361.0,321.0,359.5,337.0,355.5" stroke="black" stroke-width="2" fill="none" />
<polyline points="311.0,394.0,327.0,420.0" stroke="black" stroke-width="2" fill="none" />
<polyline points="314.5,406.5,321.0,422.5,317.0,438.5,317.0,454.5,317.5,470.0,317.5,485.5,319.5,501.0" stroke="black" stroke-width="2" fill="none" />
<polyline points="354.0,423.0,388.0,407.0,411.5,390.5,421.5,374.5,423.0,360.0,447.0,352.0,463.0,334.0,477.0,318.0,485.0,302.0,461.0,286.0,459.0,284.0,443.5,294.0,427.5,316.0,412.0,322.0,396.5,320.0,380.5,327.5" stroke="black" stroke-width="2" fill="none" />
<polyline points="387.5,319.0,379.5,335.0,375.5,351.5,371.5,373.5,391.5,390.0" stroke="black" stroke-width="2" fill="none" />
<polyline points="345.5,340.0,329.5,296.0,313.5,268.0,297.5,264.0" stroke="black" stroke-width="2" fill="none" />
<polyline points="283.0,274.0,287.0,261.5,303.0,259.5,319.0,263.5,335.0,289.5" stroke="black" stroke-width="2" fill="none" />
<polyline points="292.5,289.5,298.5,293.5,306.5,310.0,306.5,326.0,298.5,334.0,302.5,350.0,306.5,366.0,308.0,382.0,312.0,398.0,312.0,413.5,314.0,429.5,314.0,445.5,314.0,462.0,314.5,478.0,314.5,494.0,316.5,510.0" stroke="black" stroke-width="2" fill="none" />
<polyline points="344.0,347.0,341.5,331.0,337.5,315.0,329.5,299.5,323.5,283.5,310.0,268.0,314.0,246.5,302.0,230.5,286.0,214.5" stroke="black" stroke-width="2" fill="none" />
<polyline points="288.0,216.5,304.0,225.0" stroke="black" stroke-width="2" fill="none" />
<polyline points="305.5,234.5,289.5,221.0,274.0,223.0,258.5,239.0,244.5,234.5,228.5,230.0,212.0,222.0,196.0,211.5,180.0,197.5,164.5,193.0" stroke="black" stroke-width="2" fill="none" />
<polyline points="165.0,194.5,185.0,210.5,207.0,226.0" stroke="black" stroke-width="2" fill="none" />
<polyline points="246.0,216.5,230.0,210.0,214.0,202.0,197.5,192.0,181.5,182.0" stroke="black" stroke-width="2" fill="none" />
<polyline points="180.0,185.5,196.0,197.5,212.0,205.5,228.0,213.5,244.0,220.0" stroke="black" stroke-width="2" fill="none" />
<polyline points="283.0,231.5,299.5,244.0" stroke="black" stroke-width="2" fill="none" />
<polyline points="286.0,239.0,302.0,251.0,318.5,251.0" stroke="black" stroke-width="2" fill="none" />
<polyline points="286.0,230.0,291.5,246.0,304.0,246.5,280.0,272.5,286.5,274.0,298.5,277.5,293.0,294.0,293.0,310.0,295.0,318.0,279.0,334.0,267.0,350.0,255.0,365.5,241.0,381.0,229.0,397.0,213.0,413.0,196.5,429.0,175.0,445.0" stroke="black" stroke-width="2" fill="none" />
<polyline points="131.0,417.5,115.0,402.0" stroke="black" stroke-width="2" fill="none" />
<polyline points="107.5,416.0,123.5,440.0,139.5,454.0,155.0,456.0,170.5,447.5,188.0,436.0,203.5,422.0,219.5,406.5,235.0,387.0,250.5,369.0,266.5,347.0,282.5,328.5" stroke="black" stroke-width="2" fill="none" />
<polyline points="294.0,327.5,278.5,343.5,264.5,359.5,254.5,376.0,240.5,392.0,226.5,408.0,210.5,424.0,190.5,440.0,168.0,455.5,151.5,471.5,129.5,487.0,119.5,487.0,135.5,478.0" stroke="black" stroke-width="2" fill="none" />
<polyline points="154.5,463.5,139.0,459.5,123.0,448.0,107.0,426.0" stroke="black" stroke-width="2" fill="none" />
<polyline points="107.0,426.5,115.0,442.5,132.5,458.5" stroke="black" stroke-width="2" fill="none" />
<polyline points="102.0,424.5,102.0,441.0,109.5,457.0,109.5,472.5,105.5,488.5,103.5,504.0,114.0,510.0" stroke="black" stroke-width="2" fill="none" />
<polyline points="121.5,506.5,99.0,510.5,101.0,494.0,105.0,478.0,107.0,461.5,99.0,446.0,95.0,430.0,95.0,416.5,79.0,416.5,63.0,414.5" stroke="black" stroke-width="2" fill="none" />
<polyline points="68.0,390.5,84.0,396.5,100.0,396.0,116.0,380.0,132.0,373.5,148.5,369.0,164.5,363.5" stroke="black" stroke-width="2" fill="none" />
<polyline points="128.5,372.5,109.0,388.5,121.0,411.0" stroke="black" stroke-width="2" fill="none" />
<polyline points="125.5,379.5,111.5,395.5,104.0,411.5,112.0,427.5,124.0,443.5,146.0,469.5,122.0,485.5,122.0,491.5,138.0,483.5,153.5,470.0,169.5,456.0,185.5,444.0,201.5,430.0,218.0,415.5,234.5,397.5,250.5,379.5,266.5,357.5,282.5,337.5,298.0,327.5" stroke="black" stroke-width="2" fill="none" />
<polyline points="264.5,319.0,248.5,313.0" stroke="black" stroke-width="2" fill="none" />
<polyline points="251.5,296.5,247.5,312.5,229.5,330.5,205.5,346.5,179.5,364.0,196.0,354.0,211.5,342.0,227.5,332.0,243.5,320.0,259.5,322.0,275.5,322.0,299.5,302.0" stroke="black" stroke-width="2" fill="none" />
<polyline points="269.5,307.0,248.0,305.5,232.0,319.0,216.0,331.0,200.5,343.5,185.0,355.5,181.0,359.5,201.0,343.5,222.5,327.5,238.5,311.5,247.0,295.5,247.0,279.5,245.0,263.5,249.0,247.5,261.0,231.5,269.0,205.5,250.5,189.5,236.5,173.5,230.5,157.5,244.5,142.0,248.0,126.5,256.0,111.0,252.0,107.0,261.5,107.0,265.5,91.0,267.5,78.5,253.5,69.0,237.5,62.5,237.5,74.5,235.5,70.5,211.0,64.0,199.0,48.0,185.5,30.0,193.5,13.5,212.0,7.5,198.0,15.0,182.0,39.0" stroke="black" stroke-width="2" fill="none" />
<polyline points="184.0,45.5,202.0,61.5" stroke="black" stroke-width="2" fill="none" />
<polyline points="222.5,75.0,240.5,76.5,224.0,86.5,208.0,118.5" stroke="black" stroke-width="2" fill="none" />
<polyline points="212.0,124.0,228.0,94.5,244.0,84.0,229.5,92.0,219.5,107.5,211.5,123.0,217.5,139.5" stroke="black" stroke-width="2" fill="none" />
<polyline points="205.5,128.0,221.5,142.0,237.5,136.0,254.0,115.5" stroke="black" stroke-width="2" fill="none" />
<polyline points="250.5,93.5,234.5,96.0,218.5,122.0" stroke="black" stroke-width="2" fill="none" />
<polyline points="193.5,143.0,199.5,147.0,205.5,164.0,223.5,180.5,251.5,198.5" stroke="black" stroke-width="2" fill="none" />
<polyline points="272.5,187.0,288.5,190.5" stroke="black" stroke-width="2" fill="none" />
<polyline points="280.5,198.5,296.5,202.0,312.5,191.5,328.5,181.5" stroke="black" stroke-width="2" fill="none" />
<polyline points="323.5,147.5,308.0,141.5" stroke="black" stroke-width="2" fill="none" />
<polyline points="310.5,138.5,294.0,133.0" stroke="black" stroke-width="2" fill="none" />
<polyline points="293.5,129.5,307.5,145.5,299.5,171.5,309.5,187.0,307.5,175.0,323.5,176.5,342.0,150.5,358.5,138.0" stroke="black" stroke-width="2" fill="none" />
<polyline points="335.0,172.0,339.0,156.0,358.5,140.0,366.5,123.5,372.5,108.0,374.0,100.0,357.5,126.0,341.5,142.5,325.5,134.5,309.5,128.5,293.5,128.5" stroke="black" stroke-width="2" fill="none" />
<polyline points="304.5,129.0,314.5,130.5" stroke="black" stroke-width="2" fill="none" />
<polyline points="339.5,86.5,323.5,80.5" stroke="black" stroke-width="2" fill="none" />
<polyline points="324.0,78.5,351.5,94.0" stroke="black" stroke-width="2" fill="none" />
<polyline points="345.5,67.0,329.5,64.5,313.5,67.0" stroke="black" stroke-width="2" fill="none" />
<polyline points="297.5,35.0,321.5,49.0,341.5,57.0,361.5,63.5,368.0,70.0,368.0,68.5,382.0,58.5" stroke="black" stroke-width="2" fill="none" />
<polyline points="382.5,32.5,366.5,24.0,340.5,22.5,336.5,16.0,338.0,14.0,322.0,18.0,316.0,24.0" stroke="black" stroke-width="2" fill="none" />
<polyline points="284.0,28.5,300.0,40.0,316.0,45.5,336.0,55.5,351.5,57.5" stroke="black" stroke-width="2" fill="none" />
<polyline points="225.0,1.5,213.0,17.5,195.5,35.5,211.5,13.5,220.0,11.0" stroke="black" stroke-width="2" fill="none" />
<polyline points="175.5,44.0,191.0,50.0,207.0,65.5" stroke="black" stroke-width="2" fill="none" />
<polyline points="180.0,72.0,164.0,70.5" stroke="black" stroke-width="2" fill="none" />
<polyline points="168.0,67.5,176.0,83.5,186.0,78.0" stroke="black" stroke-width="2" fill="none" />
<polyline points="155.5,82.0,171.5,104.0,187.5,110.5,199.5,144.5,206.0,163.0,222.0,179.0,240.0,203.5" stroke="black" stroke-width="2" fill="none" />
<polyline points="259.0,202.5,243.0,190.5,227.5,170.5" stroke="black" stroke-width="2" fill="none" />
<polyline points="233.0,167.0,249.0,187.0,265.0,201.0,280.5,210.5,278.0,198.0,280.0,192.0,296.0,197.5" stroke="black" stroke-width="2" fill="none" />
<polyline points="303.5,189.5,287.5,181.5,271.5,182.0" stroke="black" stroke-width="2" fill="none" />
<polyline points="244.5,216.0,208.5,200.0,184.5,184.0,196.5,156.5,180.5,172.5" stroke="black" stroke-width="2" fill="none" />
<polyline points="177.5,184.0,193.5,172.0,209.0,174.5,225.0,190.5,241.5,196.5,257.5,208.5" stroke="black" stroke-width="2" fill="none" />
<polyline points="254.0,271.5,270.0,291.5,286.0,311.0,302.0,327.0,308.5,343.5,312.5,365.5,314.5,381.0,318.5,397.0,324.5,413.0,320.5,425.5,336.5,423.5,352.5,417.5,368.5,411.5,384.5,403.0,400.5,393.0" stroke="black" stroke-width="2" fill="none" />
<polyline points="471.5,326.0,456.0,346.0,440.0,360.0,420.0,365.5,416.0,380.0,426.0,378.0,424.5,352.5,446.5,336.5,460.5,320.5,482.5,306.5,460.5,290.5,454.5,288.5" stroke="black" stroke-width="2" fill="none" />
<polyline points="451.0,284.5,440.5,300.5,428.5,316.0,408.5,338.0,396.0,354.5,400.0,376.5,406.0,386.0,378.0,405.5,337.5,421.0,345.5,424.5,361.5,418.0,377.5,410.5,393.5,403.0,409.5,391.5,425.0,378.0,433.0,358.5,449.0,343.0,465.0,325.0" stroke="black" stroke-width="2" fill="none" />
<polyline points="284.0,315.0,272.0,299.5,260.0,283.5,252.0,267.5,254.0,251.0,256.0,229.5,226.0,213.5,194.5,198.0,166.5,187.5,151.0,201.5,135.5,212.0,120.0,222.0,104.0,236.0" stroke="black" stroke-width="2" fill="none" />
<polyline points="105.0,240.5,121.0,236.0,135.0,236.0,147.0,251.5,152.5,267.5" stroke="black" stroke-width="2" fill="none" />
<polyline points="146.0,265.5,130.0,253.5" stroke="black" stroke-width="2" fill="none" />
<polyline points="130.0,254.0,134.0,270.0,138.0,286.0" stroke="black" stroke-width="2" fill="none" />
<polyline points="159.0,271.5,143.0,253.5,127.0,239.5" stroke="black" stroke-width="2" fill="none" />
<polyline points="131.5,233.5,147.5,245.5" stroke="black" stroke-width="2" fill="none" />
<polyline points="149.5,250.5,137.5,234.5" stroke="black" stroke-width="2" fill="none" />
<polyline points="120.5,246.5,121.0,262.5,121.0,278.5,125.0,294.0" stroke="black" stroke-width="2" fill="none" />
<polyline points="120.5,289.0,116.0,273.0,118.0,257.0,118.0,241.0,110.0,228.5,132.0,212.5,156.0,196.0,176.5,176.0,160.5,186.0,144.5,200.0,128.5,210.0,113.0,219.5,97.0,235.5" stroke="black" stroke-width="2" fill="none" />
<polyline points="99.0,242.5,95.0,258.5,91.0,274.0,87.0,289.5,83.0,305.5,79.0,321.0,77.5,337.0,76.0,353.5,72.0,369.5,70.0,385.5,68.0,401.5,84.0,401.5" stroke="black" stroke-width="2" fill="none" />
<polyline points="85.0,340.5,89.0,324.5,93.0,308.5,93.0,296.0,99.0,291.5,103.0,275.5,89.0,306.0" stroke="black" stroke-width="2" fill="none" />
<polyline points="93.0,251.5,108.5,242.0,125.0,244.0,135.0,248.0,145.0,264.0,157.0,280.0" stroke="black" stroke-width="2" fill="none" />
<polyline points="170.5,255.5,170.0,271.5,172.0,287.5,174.0,303.0,176.0,319.0,176.5,334.5,172.5,350.5,158.0,370.5" stroke="black" stroke-width="2" fill="none" />
<polyline points="185.0,332.0,187.0,315.5,185.0,311.5" stroke="black" stroke-width="2" fill="none" />
<polyline points="191.5,309.5,191.5,325.5,186.0,341.5,176.0,358.0" stroke="black" stroke-width="2" fill="none" />
<polyline points="182.5,336.5,182.5,320.5,180.5,304.5,176.5,288.5,176.5,272.5,174.5,256.5" stroke="black" stroke-width="2" fill="none" />
<polyline points="125.5,254.5,129.5,270.5,133.0,286.5" stroke="black" stroke-width="2" fill="none" />
<polyline points="170.0,198.0,185.5,210.0,201.0,221.5,217.0,229.5,233.0,237.5,249.0,240.0" stroke="black" stroke-width="2" fill="none" />
<polyline points="225.5,229.5,197.5,213.0,177.5,196.5,167.5,182.0" stroke="black" stroke-width="2" fill="none" />
<polyline points="205.0,173.0,222.5,189.0,241.0,205.0" stroke="black" stroke-width="2" fill="none" />
<polyline points="255.5,208.5,236.0,193.0,228.0,177.0,224.5,161.0,210.0,139.0,208.0,123.0,216.0,107.0,222.0,91.0,222.0,68.5,214.0,52.0,195.5,35.5,195.5,19.5,205.5,3.5,187.5,25.0,171.5,43.0,155.5,55.0" stroke="black" stroke-width="2" fill="none" />
<polyline points="167.0,44.0,155.5,60.0,153.0,75.5,157.5,91.5,177.5,107.5,194.0,123.5,196.0,139.5,196.5,156.0,180.5,172.0,157.0,190.5,133.0,206.5,111.0,222.5,97.0,238.5,93.0,254.0,89.0,270.0,85.0,285.5,81.0,302.0,79.0,318.0,75.0,334.5,71.5,350.5,69.5,366.5,65.0,382.5,63.0,398.5,70.5,410.0,86.0,410.0,108.0,401.5,123.5,381.5,139.5,377.5,155.5,371.5,171.5,365.0,187.5,339.0" stroke="black" stroke-width="2" fill="none" />
<polyline points="260.0,295.0,270.0,311.0" stroke="black" stroke-width="2" fill="none" />
</svg>