<?xml version="1.0" encoding="UTF-8"?>
<svg xmlns="http://www.w3.org/2000/svg" xmlns:xlink="http://www.w3.org/1999/xlink" width="1935.11811" height="1935.11811" viewBox="0 0 1935.11811 1935.11811" version="1.1">
<g id="surface1">
<path style="fill:none;stroke-width:2;stroke-linecap:butt;stroke-linejoin:miter;stroke:rgb(0%,0%,0%);stroke-opacity:1;stroke-miterlimit:4;" d="M 281.50013 48.500399 L 311.500366 64.500456 L 327.500423 80.500513 L 333.500057 96.499536 L 339.499691 112.999821 L 345.500358 128.999878 L 365.500171 144.999935 L 381.500228 160.999992 L 384.999756 177.000049 L 386.999634 192.499878 L 384.499528 208.499935 L 377.000244 224.499992 L 364.999943 244.499805 L 370.999577 260.499862 L 383.500106 275.999691 L 387.499862 291.49952 L 397.500285 307.000382 L 403.499919 313.000016 L 415.50022 316.999772 L 415.50022 340.500146 L 422.000081 356.500203 L 420.000203 372.50026 L 414.499764 388.500317 L 410.500008 402.999691 L 400.499585 404.999569 " transform="matrix(3.779528,0,0,3.779528,0,0)"/>
<path style="fill:none;stroke-width:2;stroke-linecap:butt;stroke-linejoin:miter;stroke:rgb(0%,0%,0%);stroke-opacity:1;stroke-miterlimit:4;" d="M 407.499674 397.500285 L 391.000423 411.500464 L 374.500138 416.000448 L 358.500081 408.50013 L 343.000252 398.499707 " transform="matrix(3.779528,0,0,3.779528,0,0)"/>
<path style="fill:none;stroke-width:2;stroke-linecap:butt;stroke-linejoin:miter;stroke:rgb(0%,0%,0%);stroke-opacity:1;stroke-miterlimit:4;" d="M 334.000285 404.999569 L 343.999674 424.500187 L 342.500024 440.000016 L 340.500146 456.000073 L 339.000496 471.499902 L 336.999585 487.499959 L 337.499813 503.500016 " transform="matrix(3.779528,0,0,3.779528,0,0)"/>
<path style="fill:none;stroke-width:2;stroke-linecap:butt;stroke-linejoin:miter;stroke:rgb(0%,0%,0%);stroke-opacity:1;stroke-miterlimit:4;" d="M 329.999495 500.99991 L 329.999495 484.499626 " transform="matrix(3.779528,0,0,3.779528,0,0)"/>
<path style="fill:none;stroke-width:2;stroke-linecap:butt;stroke-linejoin:miter;stroke:rgb(0%,0%,0%);stroke-opacity:1;stroke-miterlimit:4;" d="M 316.499544 481.500326 L 318.500456 487.499959 L 310.49991 503.500016 L 300.499487 506.000122 " transform="matrix(3.779528,0,0,3.779528,0,0)"/>
<path style="fill:none;stroke-width:2;stroke-linecap:butt;stroke-linejoin:miter;stroke:rgb(0%,0%,0%);stroke-opacity:1;stroke-miterlimit:4;" d="M 277.500374 494.500049 L 261.500317 495.000277 " transform="matrix(3.779528,0,0,3.779528,0,0)"/>
<path style="fill:none;stroke-width:2;stroke-linecap:butt;stroke-linejoin:miter;stroke:rgb(0%,0%,0%);stroke-opacity:1;stroke-miterlimit:4;" d="M 259.000212 479.999642 L 275.000269 477.999764 " transform="matrix(3.779528,0,0,3.779528,0,0)"/>
<path style="fill:none;stroke-width:2;stroke-linecap:butt;stroke-linejoin:miter;stroke:rgb(0%,0%,0%);stroke-opacity:1;stroke-miterlimit:4;" d="M 267.499951 490.000065 L 265.500073 486.000309 L 239.000399 495.999699 L 232.999731 475.999886 L 233.499959 459.999829 L 241.999699 443.999772 L 241.999699 428.499943 L 241.500505 413.000114 L 241.500505 397.000057 L 236.000065 382.999878 L 220.000008 382.49965 " transform="matrix(3.779528,0,0,3.779528,0,0)"/>
<path style="fill:none;stroke-width:2;stroke-linecap:butt;stroke-linejoin:miter;stroke:rgb(0%,0%,0%);stroke-opacity:1;stroke-miterlimit:4;" d="M 267.499951 352.500448 L 283.500008 350.499536 L 297.500187 361.000187 L 295.500309 377.000244 L 289.000448 393.000301 L 272.500163 408.50013 L 276.499919 404.999569 L 286.500342 402.500496 L 302.500399 384.499528 L 328.499845 375.000366 L 344.499902 382.999878 L 360.499959 402.999691 L 375.999788 411.500464 L 391.999845 407.00048 L 407.999902 391.000423 L 418.000326 400.499585 L 404.000146 416.499642 " transform="matrix(3.779528,0,0,3.779528,0,0)"/>
<path style="fill:none;stroke-width:2;stroke-linecap:butt;stroke-linejoin:miter;stroke:rgb(0%,0%,0%);stroke-opacity:1;stroke-miterlimit:4;" d="M 358.500081 400.999813 L 354.500326 399.500163 L 344.499902 383.500106 L 328.499845 389.49974 " transform="matrix(3.779528,0,0,3.779528,0,0)"/>
<path style="fill:none;stroke-width:2;stroke-linecap:butt;stroke-linejoin:miter;stroke:rgb(0%,0%,0%);stroke-opacity:1;stroke-miterlimit:4;" d="M 322.500212 395.500407 L 344.499902 399.500163 L 359.000309 415.50022 L 364.999943 427.499487 L 380.499772 427.000293 L 395.999601 421.499854 L 411.999658 407.499674 " transform="matrix(3.779528,0,0,3.779528,0,0)"/>
<path style="fill:none;stroke-width:2;stroke-linecap:butt;stroke-linejoin:miter;stroke:rgb(0%,0%,0%);stroke-opacity:1;stroke-miterlimit:4;" d="M 407.999902 405.499797 L 391.499618 417.500098 L 375.499561 421.499854 L 359.999731 417.500098 L 344.499902 420.999626 L 316.499544 450.999862 L 300.999715 480.49987 L 295.000081 506.50035 L 302.500399 490.999487 L 312.499788 475.000464 L 327.000195 461.500513 L 325.000317 457.499723 L 332.999829 441.499666 L 336.999585 425.499609 L 323.000439 417.500098 L 332.999829 400.999813 L 339.000496 396.499829 L 338.500269 380.499772 " transform="matrix(3.779528,0,0,3.779528,0,0)"/>
<path style="fill:none;stroke-width:2;stroke-linecap:butt;stroke-linejoin:miter;stroke:rgb(0%,0%,0%);stroke-opacity:1;stroke-miterlimit:4;" d="M 327.999618 404.000146 L 343.999674 416.000448 L 334.500513 416.000448 L 328.499845 432.000505 L 318.500456 447.999528 L 310.49991 464.499813 L 302.500399 479.999642 L 294.499854 495.999699 L 284.000236 495.500505 L 291.999748 509.49965 L 307.999805 481.500326 L 323.999862 456.999495 " transform="matrix(3.779528,0,0,3.779528,0,0)"/>
<path style="fill:none;stroke-width:2;stroke-linecap:butt;stroke-linejoin:miter;stroke:rgb(0%,0%,0%);stroke-opacity:1;stroke-miterlimit:4;" d="M 314.999894 440.000016 L 316.499544 423.499731 L 320.000106 407.499674 L 323.999862 391.499618 L 329.500301 387.499862 L 323.499634 361.500415 L 307.499577 387.499862 L 291.49952 415.50022 " transform="matrix(3.779528,0,0,3.779528,0,0)"/>
<path style="fill:none;stroke-width:2;stroke-linecap:butt;stroke-linejoin:miter;stroke:rgb(0%,0%,0%);stroke-opacity:1;stroke-miterlimit:4;" d="M 275.999691 441.999894 L 259.999634 443.999772 " transform="matrix(3.779528,0,0,3.779528,0,0)"/>
<path style="fill:none;stroke-width:2;stroke-linecap:butt;stroke-linejoin:miter;stroke:rgb(0%,0%,0%);stroke-opacity:1;stroke-miterlimit:4;" d="M 230.000431 450.499634 L 214.000374 454.500423 " transform="matrix(3.779528,0,0,3.779528,0,0)"/>
<path style="fill:none;stroke-width:2;stroke-linecap:butt;stroke-linejoin:miter;stroke:rgb(0%,0%,0%);stroke-opacity:1;stroke-miterlimit:4;" d="M 203.499723 438.000138 L 187.499666 440.000016 " transform="matrix(3.779528,0,0,3.779528,0,0)"/>
<path style="fill:none;stroke-width:2;stroke-linecap:butt;stroke-linejoin:miter;stroke:rgb(0%,0%,0%);stroke-opacity:1;stroke-miterlimit:4;" d="M 183.49991 443.00035 L 199.499967 432.999927 " transform="matrix(3.779528,0,0,3.779528,0,0)"/>
<path style="fill:none;stroke-width:2;stroke-linecap:butt;stroke-linejoin:miter;stroke:rgb(0%,0%,0%);stroke-opacity:1;stroke-miterlimit:4;" d="M 177.000049 423.499731 L 160.999992 423.499731 " transform="matrix(3.779528,0,0,3.779528,0,0)"/>
<path style="fill:none;stroke-width:2;stroke-linecap:butt;stroke-linejoin:miter;stroke:rgb(0%,0%,0%);stroke-opacity:1;stroke-miterlimit:4;" d="M 159.000114 445.99965 L 175.000171 447.500334 L 182.999683 470.999674 " transform="matrix(3.779528,0,0,3.779528,0,0)"/>
<path style="fill:none;stroke-width:2;stroke-linecap:butt;stroke-linejoin:miter;stroke:rgb(0%,0%,0%);stroke-opacity:1;stroke-miterlimit:4;" d="M 179.500155 484.000431 L 195.500212 490.000065 L 223.000342 494.500049 " transform="matrix(3.779528,0,0,3.779528,0,0)"/>
<path style="fill:none;stroke-width:2;stroke-linecap:butt;stroke-linejoin:miter;stroke:rgb(0%,0%,0%);stroke-opacity:1;stroke-miterlimit:4;" d="M 209.999585 510.500106 L 212.000496 494.500049 L 205.999829 480.49987 L 207.500513 465.000041 L 209.500391 448.999984 L 214.999797 432.999927 L 216.999674 416.499642 L 218.999552 392.500073 L 211.500269 379.999544 L 195.500212 367.500049 L 179.500155 341.499569 L 163.500098 327.500423 " transform="matrix(3.779528,0,0,3.779528,0,0)"/>
<path style="fill:none;stroke-width:2;stroke-linecap:butt;stroke-linejoin:miter;stroke:rgb(0%,0%,0%);stroke-opacity:1;stroke-miterlimit:4;" d="M 167.499854 337.499813 L 165.499976 353.49987 L 164.000326 369.499927 L 162.000448 386.000212 L 157.500464 402.000269 L 155.499552 418.000326 L 148.000269 436.00026 L 146.000391 451.50009 L 158.499886 461.500513 " transform="matrix(3.779528,0,0,3.779528,0,0)"/>
<path style="fill:none;stroke-width:2;stroke-linecap:butt;stroke-linejoin:miter;stroke:rgb(0%,0%,0%);stroke-opacity:1;stroke-miterlimit:4;" d="M 155.000358 445.99965 L 171.000415 441.999894 L 178.999927 453.499967 L 178.499699 469.500024 L 176.499821 486.000309 L 173.999715 502.000366 " transform="matrix(3.779528,0,0,3.779528,0,0)"/>
<path style="fill:none;stroke-width:2;stroke-linecap:butt;stroke-linejoin:miter;stroke:rgb(0%,0%,0%);stroke-opacity:1;stroke-miterlimit:4;" d="M 173.999715 507.499772 L 180.000382 491.499715 L 182.00026 475.499658 L 184.000138 456.999495 L 186.500244 441.000472 L 180.499577 438.999561 L 186.000016 423.499731 L 187.999894 407.499674 L 189.999772 388.00009 L 191.500456 372.000033 L 193.999528 357.999854 L 186.000016 341.999797 L 171.999837 325.99974 L 168.000081 309.999683 L 171.999837 277.999569 L 173.999715 261.500317 L 178.000505 245.50026 L 182.00026 230.000431 L 188.500122 214.000374 L 196.499634 202.000073 L 188.500122 182.00026 L 194.499756 166.000203 L 192.499878 150.500374 L 182.500488 142.499829 " transform="matrix(3.779528,0,0,3.779528,0,0)"/>
<path style="fill:none;stroke-width:2;stroke-linecap:butt;stroke-linejoin:miter;stroke:rgb(0%,0%,0%);stroke-opacity:1;stroke-miterlimit:4;" d="M 182.00026 145.500163 L 193.999528 157.500464 L 221.999886 159.500342 L 237.999943 153.499674 L 266.000301 153.999902 L 282.000358 144.000513 L 297.500187 148.000269 L 325.499512 159.500342 L 341.499569 147.500041 L 348.999886 135.999967 L 370.999577 155.99978 " transform="matrix(3.779528,0,0,3.779528,0,0)"/>
<path style="fill:none;stroke-width:2;stroke-linecap:butt;stroke-linejoin:miter;stroke:rgb(0%,0%,0%);stroke-opacity:1;stroke-miterlimit:4;" d="M 370.999577 154.50013 L 381 170.500187 L 382.999878 186.000016 L 381 202.000073 L 374.500138 218.00013 L 372.50026 221.499658 " transform="matrix(3.779528,0,0,3.779528,0,0)"/>
<path style="fill:none;stroke-width:2;stroke-linecap:butt;stroke-linejoin:miter;stroke:rgb(0%,0%,0%);stroke-opacity:1;stroke-miterlimit:4;" d="M 368.500505 246.99991 L 384.499528 269.499829 L 400.499585 279.000024 L 416.000448 300.499487 " transform="matrix(3.779528,0,0,3.779528,0,0)"/>
<path style="fill:none;stroke-width:2;stroke-linecap:butt;stroke-linejoin:miter;stroke:rgb(0%,0%,0%);stroke-opacity:1;stroke-miterlimit:4;" d="M 398.499707 287.499764 L 382.49965 275.500496 " transform="matrix(3.779528,0,0,3.779528,0,0)"/>
<path style="fill:none;stroke-width:2;stroke-linecap:butt;stroke-linejoin:miter;stroke:rgb(0%,0%,0%);stroke-opacity:1;stroke-miterlimit:4;" d="M 377.999666 275.000269 L 393.999723 298.999837 " transform="matrix(3.779528,0,0,3.779528,0,0)"/>
<path style="fill:none;stroke-width:2;stroke-linecap:butt;stroke-linejoin:miter;stroke:rgb(0%,0%,0%);stroke-opacity:1;stroke-miterlimit:4;" d="M 398.499707 281.50013 L 411.999658 297.500187 L 411.999658 313.500244 " transform="matrix(3.779528,0,0,3.779528,0,0)"/>
<path style="fill:none;stroke-width:2;stroke-linecap:butt;stroke-linejoin:miter;stroke:rgb(0%,0%,0%);stroke-opacity:1;stroke-miterlimit:4;" d="M 411.999658 323.499634 L 405.499797 319.499878 L 389.49974 301.499943 L 402.000269 291.999748 L 392.500073 275.999691 L 364.499715 251.499894 " transform="matrix(3.779528,0,0,3.779528,0,0)"/>
<path style="fill:none;stroke-width:2;stroke-linecap:butt;stroke-linejoin:miter;stroke:rgb(0%,0%,0%);stroke-opacity:1;stroke-miterlimit:4;" d="M 321.499756 214.499569 L 323.499634 198.499512 L 333.500057 182.500488 L 323.499634 198.99974 " transform="matrix(3.779528,0,0,3.779528,0,0)"/>
<path style="fill:none;stroke-width:2;stroke-linecap:butt;stroke-linejoin:miter;stroke:rgb(0%,0%,0%);stroke-opacity:1;stroke-miterlimit:4;" d="M 341.999797 175.999593 L 357.999854 184.500366 " transform="matrix(3.779528,0,0,3.779528,0,0)"/>
<path style="fill:none;stroke-width:2;stroke-linecap:butt;stroke-linejoin:miter;stroke:rgb(0%,0%,0%);stroke-opacity:1;stroke-miterlimit:4;" d="M 363.999487 187.999894 L 351.499992 178.000505 L 353.49987 162.499642 L 353.49987 146.499585 L 349.500114 140.499951 L 331.500179 128.49965 L 315.500122 92.49978 L 299.500065 76.999951 L 284.000236 69.000439 L 268.500407 64.99965 L 252.50035 64.500456 L 236.500293 66.000106 L 220.000008 71.99974 L 203.999951 87.499569 L 187.999894 115.499927 L 172.500065 123.000244 " transform="matrix(3.779528,0,0,3.779528,0,0)"/>
<path style="fill:none;stroke-width:2;stroke-linecap:butt;stroke-linejoin:miter;stroke:rgb(0%,0%,0%);stroke-opacity:1;stroke-miterlimit:4;" d="M 164.000326 117.499805 L 180.000382 83.499813 L 196.000439 64.99965 L 212.000496 53.000382 L 227.99952 46.999715 L 259.999634 42.999959 L 275.999691 44.999837 L 291.49952 51.499699 L 307.499577 57.500366 L 323.000439 71.499512 L 339.499691 107.999609 L 355.999976 135.49974 L 372.000033 146.999813 " transform="matrix(3.779528,0,0,3.779528,0,0)"/>
<path style="fill:none;stroke-width:2;stroke-linecap:butt;stroke-linejoin:miter;stroke:rgb(0%,0%,0%);stroke-opacity:1;stroke-miterlimit:4;" d="M 368.999699 153.00048 L 370.500382 168.999504 L 375.000366 184.999561 L 372.50026 200.999618 L 370.500382 216.50048 L 361.999609 236.500293 L 378.499894 222.500114 " transform="matrix(3.779528,0,0,3.779528,0,0)"/>
<path style="fill:none;stroke-width:2;stroke-linecap:butt;stroke-linejoin:miter;stroke:rgb(0%,0%,0%);stroke-opacity:1;stroke-miterlimit:4;" d="M 309.00026 228.999976 L 293.000203 251.499894 L 272.500163 247.500138 L 256.500106 249.500016 L 240.500049 245.50026 L 224.499992 233.499959 L 209.000163 225.500448 L 200.999618 223.499536 L 193.000106 213.500146 L 180.999805 212.000496 L 177.500277 241.999699 " transform="matrix(3.779528,0,0,3.779528,0,0)"/>
<path style="fill:none;stroke-width:2;stroke-linecap:butt;stroke-linejoin:miter;stroke:rgb(0%,0%,0%);stroke-opacity:1;stroke-miterlimit:4;" d="M 203.499723 250.500472 L 214.999797 238.500171 L 227.000098 254.500228 " transform="matrix(3.779528,0,0,3.779528,0,0)"/>
<path style="fill:none;stroke-width:2;stroke-linecap:butt;stroke-linejoin:miter;stroke:rgb(0%,0%,0%);stroke-opacity:1;stroke-miterlimit:4;" d="M 216.000252 252.999544 L 232.000309 264.999845 " transform="matrix(3.779528,0,0,3.779528,0,0)"/>
<path style="fill:none;stroke-width:2;stroke-linecap:butt;stroke-linejoin:miter;stroke:rgb(0%,0%,0%);stroke-opacity:1;stroke-miterlimit:4;" d="M 227.99952 254 L 212.000496 248.499561 " transform="matrix(3.779528,0,0,3.779528,0,0)"/>
<path style="fill:none;stroke-width:2;stroke-linecap:butt;stroke-linejoin:miter;stroke:rgb(0%,0%,0%);stroke-opacity:1;stroke-miterlimit:4;" d="M 210.499813 250.500472 L 230.999854 266.499495 " transform="matrix(3.779528,0,0,3.779528,0,0)"/>
<path style="fill:none;stroke-width:2;stroke-linecap:butt;stroke-linejoin:miter;stroke:rgb(0%,0%,0%);stroke-opacity:1;stroke-miterlimit:4;" d="M 222.500114 288.50022 L 206.500057 275.000269 " transform="matrix(3.779528,0,0,3.779528,0,0)"/>
<path style="fill:none;stroke-width:2;stroke-linecap:butt;stroke-linejoin:miter;stroke:rgb(0%,0%,0%);stroke-opacity:1;stroke-miterlimit:4;" d="M 200.500423 275.999691 L 216.50048 289.99987 L 232.499504 299.500065 L 248.000366 302.999593 L 266.000301 314.999894 L 265.500073 341.000374 L 265.500073 358.500081 L 264.999845 375.000366 L 262.999967 391.000423 L 265.500073 407.00048 L 265.500073 419.499976 L 261.500317 435.500033 L 259.500439 451.50009 L 265.500073 471.499902 " transform="matrix(3.779528,0,0,3.779528,0,0)"/>
<path style="fill:none;stroke-width:2;stroke-linecap:butt;stroke-linejoin:miter;stroke:rgb(0%,0%,0%);stroke-opacity:1;stroke-miterlimit:4;" d="M 252.50035 480.49987 L 252.999544 496.499927 " transform="matrix(3.779528,0,0,3.779528,0,0)"/>
<path style="fill:none;stroke-width:2;stroke-linecap:butt;stroke-linejoin:miter;stroke:rgb(0%,0%,0%);stroke-opacity:1;stroke-miterlimit:4;" d="M 257.999756 505.499894 L 260.499862 489.499837 L 256.500106 469.500024 L 256.500106 437.49991 L 260.499862 421.499854 L 260.499862 373.499683 L 262.49974 357.999854 L 262.49974 342.500024 L 261.999512 336.500391 L 275.999691 322.500212 L 294.499854 306.500155 L 298.499609 290.500098 L 292.499976 264.499618 L 296.499731 248.499561 L 308.500033 232.999731 L 316.999772 208.499935 L 316.499544 192.499878 L 322.500212 187.999894 L 328.499845 172.500065 L 326.499967 159.999536 L 336.000163 144.000513 L 332.000407 132.000212 L 327.999618 119.99991 L 324.50009 109.500293 L 316.499544 94.000464 L 300.499487 78.000407 L 286.000114 76.499723 L 264.000423 74.499845 L 248.000366 78.499601 L 232.000309 73.999618 L 216.000252 84.000041 L 199.499967 105.999731 L 183.49991 132.000212 " transform="matrix(3.779528,0,0,3.779528,0,0)"/>
<path style="fill:none;stroke-width:2;stroke-linecap:butt;stroke-linejoin:miter;stroke:rgb(0%,0%,0%);stroke-opacity:1;stroke-miterlimit:4;" d="M 200.000195 116.000155 L 212.000496 104.500081 L 205.999829 119.99991 L 203.499723 135.999967 L 203.499723 151.499797 L 205.499601 166.999626 L 209.500391 183.49991 L 211.500269 199.499967 L 217.499902 215.500024 L 231.500081 231.500081 " transform="matrix(3.779528,0,0,3.779528,0,0)"/>
<path style="fill:none;stroke-width:2;stroke-linecap:butt;stroke-linejoin:miter;stroke:rgb(0%,0%,0%);stroke-opacity:1;stroke-miterlimit:4;" d="M 243.500382 221.999886 L 243.500382 212.000496 L 259.500439 212.000496 L 275.500496 209.999585 " transform="matrix(3.779528,0,0,3.779528,0,0)"/>
<path style="fill:none;stroke-width:2;stroke-linecap:butt;stroke-linejoin:miter;stroke:rgb(0%,0%,0%);stroke-opacity:1;stroke-miterlimit:4;" d="M 264.999845 221.499658 L 248.999788 221.000464 " transform="matrix(3.779528,0,0,3.779528,0,0)"/>
<path style="fill:none;stroke-width:2;stroke-linecap:butt;stroke-linejoin:miter;stroke:rgb(0%,0%,0%);stroke-opacity:1;stroke-miterlimit:4;" d="M 235.499837 206.500057 L 267.499951 206.500057 L 283.500008 204.500179 " transform="matrix(3.779528,0,0,3.779528,0,0)"/>
<path style="fill:none;stroke-width:2;stroke-linecap:butt;stroke-linejoin:miter;stroke:rgb(0%,0%,0%);stroke-opacity:1;stroke-miterlimit:4;" d="M 290.500098 166.000203 L 274.500041 161.50022 " transform="matrix(3.779528,0,0,3.779528,0,0)"/>
<path style="fill:none;stroke-width:2;stroke-linecap:butt;stroke-linejoin:miter;stroke:rgb(0%,0%,0%);stroke-opacity:1;stroke-miterlimit:4;" d="M 269.499829 139.499495 L 285.499886 133.499862 L 301.499943 137.499618 " transform="matrix(3.779528,0,0,3.779528,0,0)"/>
<path style="fill:none;stroke-width:2;stroke-linecap:butt;stroke-linejoin:miter;stroke:rgb(0%,0%,0%);stroke-opacity:1;stroke-miterlimit:4;" d="M 295.000081 152.000024 L 300.999715 159.999536 L 310.49991 146.000391 L 300.499487 131.499984 L 284.000236 130.000334 L 268.000179 135.999967 " transform="matrix(3.779528,0,0,3.779528,0,0)"/>
<path style="fill:none;stroke-width:2;stroke-linecap:butt;stroke-linejoin:miter;stroke:rgb(0%,0%,0%);stroke-opacity:1;stroke-miterlimit:4;" d="M 275.999691 129.500106 L 271.999935 145.500163 L 271.999935 162.000448 L 273.999813 178.000505 L 259.999634 193.500334 " transform="matrix(3.779528,0,0,3.779528,0,0)"/>
<path style="fill:none;stroke-width:2;stroke-linecap:butt;stroke-linejoin:miter;stroke:rgb(0%,0%,0%);stroke-opacity:1;stroke-miterlimit:4;" d="M 273.000391 184.999561 L 256.500106 182.500488 L 239.999821 184.999561 " transform="matrix(3.779528,0,0,3.779528,0,0)"/>
<path style="fill:none;stroke-width:2;stroke-linecap:butt;stroke-linejoin:miter;stroke:rgb(0%,0%,0%);stroke-opacity:1;stroke-miterlimit:4;" d="M 239.499593 147.500041 L 223.499536 147.500041 L 207.500513 148.000269 " transform="matrix(3.779528,0,0,3.779528,0,0)"/>
<path style="fill:none;stroke-width:2;stroke-linecap:butt;stroke-linejoin:miter;stroke:rgb(0%,0%,0%);stroke-opacity:1;stroke-miterlimit:4;" d="M 207.999707 137.499618 L 223.999764 135.49974 L 239.999821 139.000301 " transform="matrix(3.779528,0,0,3.779528,0,0)"/>
<path style="fill:none;stroke-width:2;stroke-linecap:butt;stroke-linejoin:miter;stroke:rgb(0%,0%,0%);stroke-opacity:1;stroke-miterlimit:4;" d="M 240.500049 134.999512 L 223.999764 130.999756 L 207.999707 134.999512 " transform="matrix(3.779528,0,0,3.779528,0,0)"/>
<path style="fill:none;stroke-width:2;stroke-linecap:butt;stroke-linejoin:miter;stroke:rgb(0%,0%,0%);stroke-opacity:1;stroke-miterlimit:4;" d="M 212.999919 103.999854 L 228.999976 93.500236 L 245.000033 87.499569 L 261.00009 85.499691 L 277.000146 89.50048 L 292.499976 96.000342 L 308.500033 110.499715 " transform="matrix(3.779528,0,0,3.779528,0,0)"/>
<path style="fill:none;stroke-width:2;stroke-linecap:butt;stroke-linejoin:miter;stroke:rgb(0%,0%,0%);stroke-opacity:1;stroke-miterlimit:4;" d="M 318.000228 108.499837 L 302.000171 96.499536 L 286.000114 87.999797 L 270.000057 81.499935 " transform="matrix(3.779528,0,0,3.779528,0,0)"/>
<path style="fill:none;stroke-width:2;stroke-linecap:butt;stroke-linejoin:miter;stroke:rgb(0%,0%,0%);stroke-opacity:1;stroke-miterlimit:4;" d="M 266.000301 78.000407 L 295.999504 82.000163 L 314.000472 98.00022 " transform="matrix(3.779528,0,0,3.779528,0,0)"/>
<path style="fill:none;stroke-width:2;stroke-linecap:butt;stroke-linejoin:miter;stroke:rgb(0%,0%,0%);stroke-opacity:1;stroke-miterlimit:4;" d="M 307.499577 89.000252 L 291.49952 76.999951 L 275.500496 71.499512 L 259.999634 69.499634 " transform="matrix(3.779528,0,0,3.779528,0,0)"/>
<path style="fill:none;stroke-width:2;stroke-linecap:butt;stroke-linejoin:miter;stroke:rgb(0%,0%,0%);stroke-opacity:1;stroke-miterlimit:4;" d="M 279.500252 57.000138 L 315.500122 73.000195 L 325.499512 89.000252 L 333.500057 105.499504 L 338.000041 121.999788 L 334.000285 138.500073 L 339.999919 148.500496 L 343.999674 158.499886 L 338.000041 174.499943 L 354.500326 190.5 L 361.000187 206.500057 L 361.000187 222.500114 L 362.499837 238.500171 L 364.499715 254.500228 L 374.500138 270.500285 L 380.499772 286.500342 L 388.500317 302.000171 L 398.000513 318.000228 L 413.999536 350.000342 L 416.499642 366.000399 L 412.499886 382.000456 L 402.500496 397.500285 " transform="matrix(3.779528,0,0,3.779528,0,0)"/>
<path style="fill:none;stroke-width:2;stroke-linecap:butt;stroke-linejoin:miter;stroke:rgb(0%,0%,0%);stroke-opacity:1;stroke-miterlimit:4;" d="M 335.499935 439.499788 L 333.500057 455.499845 L 329.999495 471.499902 L 323.999862 489.499837 L 323.999862 505.499894 L 320.000106 509.49965 L 309.999683 497.500382 L 323.999862 487.499959 " transform="matrix(3.779528,0,0,3.779528,0,0)"/>
<path style="fill:none;stroke-width:2;stroke-linecap:butt;stroke-linejoin:miter;stroke:rgb(0%,0%,0%);stroke-opacity:1;stroke-miterlimit:4;" d="M 323.999862 340.500146 L 307.999805 332.499601 " transform="matrix(3.779528,0,0,3.779528,0,0)"/>
<path style="fill:none;stroke-width:2;stroke-linecap:butt;stroke-linejoin:miter;stroke:rgb(0%,0%,0%);stroke-opacity:1;stroke-miterlimit:4;" d="M 305.499699 329.000073 L 321.499756 320.999528 L 321.999984 327.000195 " transform="matrix(3.779528,0,0,3.779528,0,0)"/>
<path style="fill:none;stroke-width:2;stroke-linecap:butt;stroke-linejoin:miter;stroke:rgb(0%,0%,0%);stroke-opacity:1;stroke-miterlimit:4;" d="M 319.499878 346.49978 L 303.499821 342.500024 L 280.999902 340.500146 L 258.499984 342.500024 L 252.50035 338.500269 L 230.499626 339.000496 L 234.000187 320.500334 L 225.500448 304.500277 L 211.000041 287.999992 L 198.99974 287.499764 L 182.999683 291.49952 " transform="matrix(3.779528,0,0,3.779528,0,0)"/>
<path style="fill:none;stroke-width:2;stroke-linecap:butt;stroke-linejoin:miter;stroke:rgb(0%,0%,0%);stroke-opacity:1;stroke-miterlimit:4;" d="M 177.000049 294.499854 L 190.5 310.49991 L 208.499935 339.999919 L 226.49987 334.000285 L 241.999699 340.500146 L 259.999634 318.500456 L 282.000358 318.000228 " transform="matrix(3.779528,0,0,3.779528,0,0)"/>
<path style="fill:none;stroke-width:2;stroke-linecap:butt;stroke-linejoin:miter;stroke:rgb(0%,0%,0%);stroke-opacity:1;stroke-miterlimit:4;" d="M 279.500252 327.500423 L 275.999691 345.500358 " transform="matrix(3.779528,0,0,3.779528,0,0)"/>
<path style="fill:none;stroke-width:2;stroke-linecap:butt;stroke-linejoin:miter;stroke:rgb(0%,0%,0%);stroke-opacity:1;stroke-miterlimit:4;" d="M 302.500399 337.499813 L 310.49991 353.49987 L 311.500366 369.499927 L 300.000293 385.499984 L 291.999748 401.500041 L 287.999992 418.000326 L 280.00048 434.000382 L 276.499919 449.500212 " transform="matrix(3.779528,0,0,3.779528,0,0)"/>
<path style="fill:none;stroke-width:2;stroke-linecap:butt;stroke-linejoin:miter;stroke:rgb(0%,0%,0%);stroke-opacity:1;stroke-miterlimit:4;" d="M 226.49987 345.999552 L 210.499813 318.500456 " transform="matrix(3.779528,0,0,3.779528,0,0)"/>
<path style="fill:none;stroke-width:2;stroke-linecap:butt;stroke-linejoin:miter;stroke:rgb(0%,0%,0%);stroke-opacity:1;stroke-miterlimit:4;" d="M 225.00022 323.999862 L 239.000399 339.499691 L 237.499715 359.499504 L 239.999821 363.500293 " transform="matrix(3.779528,0,0,3.779528,0,0)"/>
<path style="fill:none;stroke-width:2;stroke-linecap:butt;stroke-linejoin:miter;stroke:rgb(0%,0%,0%);stroke-opacity:1;stroke-miterlimit:4;" d="M 276.499919 393.999723 L 260.499862 413.500342 L 280.499674 389.49974 L 288.50022 373.499683 L 292.499976 357.499626 L 298.999837 341.999797 L 291.000326 334.500513 L 293.000203 320.500334 L 285.499886 296.499731 L 253.499772 292.499976 L 236.999487 288.50022 L 221.000464 280.499674 L 205.000407 268.500407 " transform="matrix(3.779528,0,0,3.779528,0,0)"/>
<path style="fill:none;stroke-width:2;stroke-linecap:butt;stroke-linejoin:miter;stroke:rgb(0%,0%,0%);stroke-opacity:1;stroke-miterlimit:4;" d="M 207.500513 258.499984 L 213.500146 274.500041 L 218.999552 274.500041 L 243.000155 298.499609 L 258.499984 298.000415 L 274.500041 300.000293 " transform="matrix(3.779528,0,0,3.779528,0,0)"/>
<path style="fill:none;stroke-width:2;stroke-linecap:butt;stroke-linejoin:miter;stroke:rgb(0%,0%,0%);stroke-opacity:1;stroke-miterlimit:4;" d="M 286.999536 289.000448 L 271.000513 291.000326 L 254.500228 289.499642 L 238.500171 282.99978 L 222.500114 275.000269 L 206.500057 255.000456 " transform="matrix(3.779528,0,0,3.779528,0,0)"/>
<path style="fill:none;stroke-width:2;stroke-linecap:butt;stroke-linejoin:miter;stroke:rgb(0%,0%,0%);stroke-opacity:1;stroke-miterlimit:4;" d="M 207.000285 250.500472 L 200.999618 266.499495 L 212.999919 282.000358 L 232.999731 297.500187 L 255.000456 309.500488 L 250.999666 325.000317 L 245.50026 332.999829 L 248.000366 351.499992 L 237.999943 367.500049 L 237.999943 383.500106 L 236.000065 399.500163 L 237.999943 419.499976 L 236.000065 434.999805 L 239.999821 452.99974 L 237.999943 468.999797 L 239.999821 486.999731 L 234.000187 499.000033 L 239.999821 504.999666 " transform="matrix(3.779528,0,0,3.779528,0,0)"/>
<path style="fill:none;stroke-width:2;stroke-linecap:butt;stroke-linejoin:miter;stroke:rgb(0%,0%,0%);stroke-opacity:1;stroke-miterlimit:4;" d="M 279.000024 504.500472 L 284.999658 486.499504 L 286.999536 470.000252 L 289.000448 454.000195 L 290.500098 437.49991 L 270.500285 439.499788 L 276.499919 441.000472 L 290.500098 425.000415 L 293.999626 409.000358 L 304.500277 393.000301 L 316.499544 377.500472 L 324.50009 361.500415 L 330.499723 345.500358 L 332.999829 329.500301 L 330.499723 305.999927 L 332.499601 289.99987 L 329.999495 273.999813 L 325.99974 257.999756 L 322.500212 241.999699 L 310.49991 219.49978 L 288.50022 233.499959 L 271.999935 241.500505 L 255.999878 243.000155 L 239.499593 235.499837 L 223.499536 221.999886 L 205.499601 203.999951 L 201.499845 184.000138 L 197.50009 182.00026 L 191.500456 175.999593 L 175.500399 187.999894 L 166.999626 180.000382 L 164.999748 153.999902 L 164.999748 137.999845 L 168.999504 121.499561 L 175.000171 105.499504 L 182.999683 89.50048 L 193.500334 73.999618 L 175.999593 101.999976 " transform="matrix(3.779528,0,0,3.779528,0,0)"/>
<path style="fill:none;stroke-width:2;stroke-linecap:butt;stroke-linejoin:miter;stroke:rgb(0%,0%,0%);stroke-opacity:1;stroke-miterlimit:4;" d="M 191.99965 74.499845 L 207.999707 66.500334 L 224.499992 58.499788 L 240.500049 55.00026 L 256.500106 53.000382 L 272.500163 55.00026 L 288.50022 59.000016 L 304.500277 65.499878 L 320.500334 75.500301 L 336.500391 111.500171 " transform="matrix(3.779528,0,0,3.779528,0,0)"/>
<path style="fill:none;stroke-width:2;stroke-linecap:butt;stroke-linejoin:miter;stroke:rgb(0%,0%,0%);stroke-opacity:1;stroke-miterlimit:4;" d="M 357.499626 145.500163 L 363.500293 161.50022 L 367.500049 177.500277 " transform="matrix(3.779528,0,0,3.779528,0,0)"/>
<path style="fill:none;stroke-width:2;stroke-linecap:butt;stroke-linejoin:miter;stroke:rgb(0%,0%,0%);stroke-opacity:1;stroke-miterlimit:4;" d="M 292.499976 228.999976 L 298.499609 213.500146 L 304.500277 196.999862 L 308.500033 180.999805 L 313.000016 165.499976 L 316.999772 149.499919 L 316.499544 132.999634 L 310.49991 116.999577 L 298.499609 100.99952 L 261.999512 80.999707 L 246.000488 81.499935 L 229.500203 87.999797 L 212.999919 95.500114 " transform="matrix(3.779528,0,0,3.779528,0,0)"/>
<path style="fill:none;stroke-width:2;stroke-linecap:butt;stroke-linejoin:miter;stroke:rgb(0%,0%,0%);stroke-opacity:1;stroke-miterlimit:4;" d="M 224.499992 81.499935 L 220.500236 71.499512 L 204.500179 87.999797 L 194.499756 103.999854 L 188.500122 119.99991 L 176.499821 135.999967 L 178.499699 152.000024 L 171.999837 164.000326 " transform="matrix(3.779528,0,0,3.779528,0,0)"/>
<path style="fill:none;stroke-width:2;stroke-linecap:butt;stroke-linejoin:miter;stroke:rgb(0%,0%,0%);stroke-opacity:1;stroke-miterlimit:4;" d="M 157.999658 153.499674 L 146.499585 198.000317 L 130.499528 229.500203 L 127 217.499902 L 125.50035 202.000073 L 125.999544 186.000016 L 125.999544 184.000138 " transform="matrix(3.779528,0,0,3.779528,0,0)"/>
<path style="fill:none;stroke-width:2;stroke-linecap:butt;stroke-linejoin:miter;stroke:rgb(0%,0%,0%);stroke-opacity:1;stroke-miterlimit:4;" d="M 132.000212 184.000138 L 131.499984 200.000195 L 130.000334 220.500236 " transform="matrix(3.779528,0,0,3.779528,0,0)"/>
<path style="fill:none;stroke-width:2;stroke-linecap:butt;stroke-linejoin:miter;stroke:rgb(0%,0%,0%);stroke-opacity:1;stroke-miterlimit:4;" d="M 123.000244 167.499854 L 125.000122 153.499674 L 140.499951 146.000391 L 156.500008 135.999967 L 154.50013 146.000391 L 146.499585 162.000448 " transform="matrix(3.779528,0,0,3.779528,0,0)"/>
<path style="fill:none;stroke-width:2;stroke-linecap:butt;stroke-linejoin:miter;stroke:rgb(0%,0%,0%);stroke-opacity:1;stroke-miterlimit:4;" d="M 143.000057 166.500431 L 137.000423 155.99978 L 127 152.000024 L 155.000358 135.999967 L 150.999569 132.000212 L 134.500317 144.000513 L 119.000488 153.499674 " transform="matrix(3.779528,0,0,3.779528,0,0)"/>
<path style="fill:none;stroke-width:2;stroke-linecap:butt;stroke-linejoin:miter;stroke:rgb(0%,0%,0%);stroke-opacity:1;stroke-miterlimit:4;" d="M 154.50013 148.999691 L 154.50013 164.49952 L 144.499707 180.499577 L 140.499951 196.499634 L 142.499829 208.499935 L 134.500317 224.499992 L 125.000122 240.500049 L 114.999699 256.500106 L 89.50048 271.999935 L 76.999951 287.999992 L 71.000317 304.500277 L 64.99965 320.000106 L 64.99965 336.000163 L 66.999528 353.49987 L 66.500334 369.499927 L 69.999862 385.499984 L 94.000464 401.500041 L 99.49987 403.499919 L 115.499927 399.500163 L 131.499984 393.999723 " transform="matrix(3.779528,0,0,3.779528,0,0)"/>
<path style="fill:none;stroke-width:2;stroke-linecap:butt;stroke-linejoin:miter;stroke:rgb(0%,0%,0%);stroke-opacity:1;stroke-miterlimit:4;" d="M 128.49965 392.500073 L 112.499593 396.499829 L 96.499536 394.499951 L 85.000496 396.499829 L 69.000439 378.499894 " transform="matrix(3.779528,0,0,3.779528,0,0)"/>
<path style="fill:none;stroke-width:2;stroke-linecap:butt;stroke-linejoin:miter;stroke:rgb(0%,0%,0%);stroke-opacity:1;stroke-miterlimit:4;" d="M 73.000195 366.499593 L 89.000252 384.499528 L 105.000309 390.500195 L 121.000366 388.00009 L 137.000423 377.999666 L 153.00048 351.499992 L 162.99987 338.000041 L 159.000114 354.000098 L 155.000358 368.500505 L 153.499674 384.499528 L 151.499797 400.499585 L 146.999813 416.499642 L 143.000057 432.499699 L 156.500008 440.000016 L 150.000146 447.999528 L 148.000269 455.499845 L 149.499919 469.500024 L 147.500041 485.500081 L 151.499797 485.500081 L 147.500041 497.000155 L 143.500285 499.000033 L 145.500163 509.000456 L 162.000448 504.999666 L 186.000016 493.499593 " transform="matrix(3.779528,0,0,3.779528,0,0)"/>
<path style="fill:none;stroke-width:2;stroke-linecap:butt;stroke-linejoin:miter;stroke:rgb(0%,0%,0%);stroke-opacity:1;stroke-miterlimit:4;" d="M 167.499854 509.999878 L 151.499797 509.999878 " transform="matrix(3.779528,0,0,3.779528,0,0)"/>
<path style="fill:none;stroke-width:2;stroke-linecap:butt;stroke-linejoin:miter;stroke:rgb(0%,0%,0%);stroke-opacity:1;stroke-miterlimit:4;" d="M 144.999935 486.499504 L 146.999813 468.000374 " transform="matrix(3.779528,0,0,3.779528,0,0)"/>
<path style="fill:none;stroke-width:2;stroke-linecap:butt;stroke-linejoin:miter;stroke:rgb(0%,0%,0%);stroke-opacity:1;stroke-miterlimit:4;" d="M 134.00009 507.499772 L 138.500073 491.999943 L 142.499829 475.999886 L 140.499951 459.999829 L 140.499951 443.999772 L 136.500195 427.999715 L 134.500317 411.500464 L 134.500317 387.499862 L 148.000269 371.499805 " transform="matrix(3.779528,0,0,3.779528,0,0)"/>
<path style="fill:none;stroke-width:2;stroke-linecap:butt;stroke-linejoin:miter;stroke:rgb(0%,0%,0%);stroke-opacity:1;stroke-miterlimit:4;" d="M 161.50022 347.000008 L 159.500342 363.000065 L 157.500464 379.50035 L 153.499674 395.500407 L 151.499797 411.999658 L 141.500407 427.999715 L 163.500098 418.000326 L 179.500155 417.500098 L 203.499723 405.499797 L 221.499658 409.99978 L 237.499715 407.999902 " transform="matrix(3.779528,0,0,3.779528,0,0)"/>
<path style="fill:none;stroke-width:2;stroke-linecap:butt;stroke-linejoin:miter;stroke:rgb(0%,0%,0%);stroke-opacity:1;stroke-miterlimit:4;" d="M 225.00022 348.000464 L 217.499902 332.000407 L 213.500146 315.500122 L 196.000439 301.499943 L 186.000016 284.999658 L 182.00026 275.000269 " transform="matrix(3.779528,0,0,3.779528,0,0)"/>
<path style="fill:none;stroke-width:2;stroke-linecap:butt;stroke-linejoin:miter;stroke:rgb(0%,0%,0%);stroke-opacity:1;stroke-miterlimit:4;" d="M 189.00035 286.500342 L 207.000285 290.500098 " transform="matrix(3.779528,0,0,3.779528,0,0)"/>
<path style="fill:none;stroke-width:2;stroke-linecap:butt;stroke-linejoin:miter;stroke:rgb(0%,0%,0%);stroke-opacity:1;stroke-miterlimit:4;" d="M 196.499634 284.500464 L 214.499569 300.499487 L 234.500415 302.500399 L 238.500171 318.500456 L 254.500228 312.499788 L 272.500163 306.500155 L 289.000448 310.49991 " transform="matrix(3.779528,0,0,3.779528,0,0)"/>
<path style="fill:none;stroke-width:2;stroke-linecap:butt;stroke-linejoin:miter;stroke:rgb(0%,0%,0%);stroke-opacity:1;stroke-miterlimit:4;" d="M 230.000431 326.499967 L 213.500146 316.499544 L 195.500212 310.49991 L 186.000016 305.999927 L 169.999959 294.499854 " transform="matrix(3.779528,0,0,3.779528,0,0)"/>
<path style="fill:none;stroke-width:2;stroke-linecap:butt;stroke-linejoin:miter;stroke:rgb(0%,0%,0%);stroke-opacity:1;stroke-miterlimit:4;" d="M 174.499943 298.499609 L 186.500244 314.499666 L 198.499512 330.499723 L 190.5 340.500146 L 200.500423 344.499902 L 204.500179 360.499959 L 209.999585 368.000277 L 225.999642 361.999609 L 237.999943 359.499504 " transform="matrix(3.779528,0,0,3.779528,0,0)"/>
<path style="fill:none;stroke-width:2;stroke-linecap:butt;stroke-linejoin:miter;stroke:rgb(0%,0%,0%);stroke-opacity:1;stroke-miterlimit:4;" d="M 187.499666 328.499845 L 171.499609 311.999561 " transform="matrix(3.779528,0,0,3.779528,0,0)"/>
<path style="fill:none;stroke-width:2;stroke-linecap:butt;stroke-linejoin:miter;stroke:rgb(0%,0%,0%);stroke-opacity:1;stroke-miterlimit:4;" d="M 171.499609 314.499666 L 183.49991 330.499723 L 177.500277 342.500024 L 187.499666 358.500081 L 187.499666 373.99991 L 186.000016 389.999967 L 183.49991 406.000024 L 191.500456 402.000269 L 207.500513 400.000391 L 229.500203 402.000269 " transform="matrix(3.779528,0,0,3.779528,0,0)"/>
<path style="fill:none;stroke-width:2;stroke-linecap:butt;stroke-linejoin:miter;stroke:rgb(0%,0%,0%);stroke-opacity:1;stroke-miterlimit:4;" d="M 241.999699 314.999894 L 225.999642 305.000505 L 219.49978 312.499788 L 203.499723 306.500155 L 183.49991 318.000228 L 167.499854 305.999927 " transform="matrix(3.779528,0,0,3.779528,0,0)"/>
<path style="fill:none;stroke-width:2;stroke-linecap:butt;stroke-linejoin:miter;stroke:rgb(0%,0%,0%);stroke-opacity:1;stroke-miterlimit:4;" d="M 171.999837 307.000382 L 186.000016 323.000439 L 187.499666 345.00013 L 203.499723 359.000309 L 219.49978 357.000431 " transform="matrix(3.779528,0,0,3.779528,0,0)"/>
<path style="fill:none;stroke-width:2;stroke-linecap:butt;stroke-linejoin:miter;stroke:rgb(0%,0%,0%);stroke-opacity:1;stroke-miterlimit:4;" d="M 197.50009 347.000008 L 181.500033 330.999951 L 165.499976 313.000016 " transform="matrix(3.779528,0,0,3.779528,0,0)"/>
<path style="fill:none;stroke-width:2;stroke-linecap:butt;stroke-linejoin:miter;stroke:rgb(0%,0%,0%);stroke-opacity:1;stroke-miterlimit:4;" d="M 98.00022 275.999691 L 85.999919 291.999748 L 75.999495 307.999805 L 64.000228 332.499601 L 80.000285 318.500456 L 84.000041 294.499854 " transform="matrix(3.779528,0,0,3.779528,0,0)"/>
<path style="fill:none;stroke-width:2;stroke-linecap:butt;stroke-linejoin:miter;stroke:rgb(0%,0%,0%);stroke-opacity:1;stroke-miterlimit:4;" d="M 75.999495 298.499609 L 91.999552 276.499919 L 107.999609 266.000301 L 103.999854 266.000301 L 87.999797 281.50013 L 72.499967 293.000203 L 88.500024 271.499707 L 104.500081 261.999512 L 120.500138 246.499683 " transform="matrix(3.779528,0,0,3.779528,0,0)"/>
<path style="fill:none;stroke-width:2;stroke-linecap:butt;stroke-linejoin:miter;stroke:rgb(0%,0%,0%);stroke-opacity:1;stroke-miterlimit:4;" d="M 76.999951 316.00035 L 93.000008 305.499699 L 82.999585 315.500122 L 71.000317 332.000407 " transform="matrix(3.779528,0,0,3.779528,0,0)"/>
<path style="fill:none;stroke-width:2;stroke-linecap:butt;stroke-linejoin:miter;stroke:rgb(0%,0%,0%);stroke-opacity:1;stroke-miterlimit:4;" d="M 70.50009 352.999642 L 72.499967 369.499927 L 80.000285 383.500106 L 101.999976 399.500163 L 116.000155 406.000024 L 132.000212 404.000146 " transform="matrix(3.779528,0,0,3.779528,0,0)"/>
<path style="fill:none;stroke-width:2;stroke-linecap:butt;stroke-linejoin:miter;stroke:rgb(0%,0%,0%);stroke-opacity:1;stroke-miterlimit:4;" d="M 205.000407 236.999487 L 221.000464 230.999854 L 243.000155 246.99991 " transform="matrix(3.779528,0,0,3.779528,0,0)"/>
<path style="fill:none;stroke-width:2;stroke-linecap:butt;stroke-linejoin:miter;stroke:rgb(0%,0%,0%);stroke-opacity:1;stroke-miterlimit:4;" d="M 287.499764 244.499805 L 287.499764 276.499919 " transform="matrix(3.779528,0,0,3.779528,0,0)"/>
<path style="fill:none;stroke-width:2;stroke-linecap:butt;stroke-linejoin:miter;stroke:rgb(0%,0%,0%);stroke-opacity:1;stroke-miterlimit:4;" d="M 144.000513 377.999666 L 128.49965 384.000334 L 144.499707 368.000277 L 152.500252 352.00022 L 158.499886 336.000163 L 162.99987 319.499878 L 162.99987 303.499821 L 166.500431 287.499764 L 168.500309 271.999935 L 169.999959 255.999878 L 173.999715 239.999821 L 180.000382 223.999764 L 184.000138 207.999707 L 177.500277 191.500456 L 165.499976 175.500399 L 159.500342 159.999536 L 159.999536 144.499707 " transform="matrix(3.779528,0,0,3.779528,0,0)"/>
<path style="fill:none;stroke-width:2;stroke-linecap:butt;stroke-linejoin:miter;stroke:rgb(0%,0%,0%);stroke-opacity:1;stroke-miterlimit:4;" d="M 223.000342 75.999495 L 207.500513 91.999552 L 198.99974 107.500415 L 191.500456 123.500472 L 185.499788 139.499495 L 186.000016 155.499552 L 184.000138 171.499609 L 182.500488 187.999894 L 190.5 202.000073 L 202.999495 212.499691 L 209.000163 218.500358 L 194.999984 222.500114 L 194.999984 238.500171 L 193.000106 254 L 187.000472 270.000057 L 182.999683 285.499886 L 189.00035 302.000171 L 200.999618 316.00035 L 211.000041 322.500212 L 225.500448 332.499601 L 247.500138 344.499902 L 228.999976 360.499959 L 209.000163 378.499894 L 214.499569 393.999723 L 212.000496 418.000326 L 214.000374 439.499788 L 213.500146 457.499723 L 211.500269 473.49978 L 211.500269 489.499837 L 205.499601 504.999666 L 219.49978 488.999609 L 239.499593 472.999552 L 239.999821 477.000342 L 257.999756 473.49978 L 262.49974 461.999707 L 279.000024 447.999528 " transform="matrix(3.779528,0,0,3.779528,0,0)"/>
<path style="fill:none;stroke-width:2;stroke-linecap:butt;stroke-linejoin:miter;stroke:rgb(0%,0%,0%);stroke-opacity:1;stroke-miterlimit:4;" d="M 313.500244 446.499878 L 311.500366 430.499821 L 307.499577 426.500065 L 314.999894 410.500008 L 318.99965 394.499951 L 327.000195 378.499894 L 336.500391 376.500016 L 334.500513 360.499959 L 324.50009 342.500024 L 313.000016 338.500269 L 313.000016 322.500212 L 334.999707 312.499788 L 329.000073 293.999626 L 325.000317 277.500374 L 323.000439 261.500317 L 318.99965 246.000488 L 318.99965 229.500203 L 306.500155 213.500146 L 310.49991 197.50009 L 311.999561 181.500033 L 320.000106 165.499976 L 321.999984 149.499919 L 321.999984 133.499862 L 318.000228 117.499805 L 305.999927 101.499748 L 282.000358 85.000496 " transform="matrix(3.779528,0,0,3.779528,0,0)"/>
<path style="fill:none;stroke-width:2;stroke-linecap:butt;stroke-linejoin:miter;stroke:rgb(0%,0%,0%);stroke-opacity:1;stroke-miterlimit:4;" d="M 236.000065 83.499813 L 218.00013 99.49987 L 205.499601 105.499504 L 199.499967 121.499561 L 197.50009 137.499618 L 200.000195 153.999902 L 223.999764 157.500464 L 225.999642 165.499976 L 236.000065 164.000326 L 250.000244 168.000081 L 273.999813 172.500065 L 282.000358 160.499764 L 298.000415 157.999658 " transform="matrix(3.779528,0,0,3.779528,0,0)"/>
<path style="fill:none;stroke-width:2;stroke-linecap:butt;stroke-linejoin:miter;stroke:rgb(0%,0%,0%);stroke-opacity:1;stroke-miterlimit:4;" d="M 218.999552 49.499821 L 194.999984 65.499878 L 181.500033 81.499935 L 171.499609 97.499992 L 166.000203 112.999821 L 155.99978 129.500106 L 121.999788 145.500163 L 116.000155 162.000448 L 118.000033 178.000505 L 118.000033 210.499813 L 123.999666 227.000098 L 127.500228 245.000033 L 117.499805 260.499862 L 109.500293 276.499919 L 95.500114 291.999748 L 78.000407 311.999561 L 81.499935 302.000171 L 98.00022 287.999992 L 101.999976 275.999691 L 118.000033 257.999756 " transform="matrix(3.779528,0,0,3.779528,0,0)"/>
</g>
</svg>
