<svg xmlns="http://www.w3.org/2000/svg" width="512mm" height="512mm" viewBox="0 0 512 512" version="1.1"><polyline points="205.5,26.5,169.5,42.5,159.5,46.5,155.5,62.5,137.5,67.0,127.5,83.0,115.5,99.0,109.5,115.0,109.0,131.0,119.0,146.5,134.5,162.5,137.0,178.5,137.0,194.5,141.0,210.5,145.5,226.0,149.5,241.5,157.5,257.0,153.5,273.0,155.5,285.0,165.5,284.5,182.0,276.5,216.0,264.5,232.5,270.5,242.5,263.0,258.5,245.0,274.5,235.0,290.5,221.0" stroke="black" stroke-width="2" fill="none" />
<polyline points="301.5,231.0,303.5,247.0,313.5,263.5" stroke="black" stroke-width="2" fill="none" />
<polyline points="318.5,270.0,326.5,274.0,330.5,272.0,320.0,258.0,311.5,242.0,307.5,226.0,307.5,210.0,315.5,194.0,339.5,177.5,335.0,166.0,323.0,168.0" stroke="black" stroke-width="2" fill="none" />
<polyline points="320.0,163.0,304.0,185.0,288.0,195.0,272.0,203.0,256.0,206.5,240.0,206.0,223.5,203.5,207.5,195.5,191.5,185.5,175.5,167.0,161.5,169.0,145.5,153.0" stroke="black" stroke-width="2" fill="none" />
<polyline points="145.5,154.5,149.5,158.5,157.0,174.5,173.0,180.5,186.5,190.0,192.5,200.0,204.5,201.5,227.0,211.5,243.0,215.5,259.5,213.0,275.5,209.0,291.5,201.0" stroke="black" stroke-width="2" fill="none" />
<polyline points="280.0,198.5,306.0,182.5,318.0,166.5,328.0,150.0,330.0,134.0,331.5,124.0,325.5,117.5,319.5,101.5,316.0,107.5,314.0,91.0,298.5,75.5,302.5,59.5,288.5,44.0,262.5,52.5" stroke="black" stroke-width="2" fill="none" />
<polyline points="269.0,63.5,285.5,64.0,302.0,69.5,318.0,81.0,330.5,93.0,336.5,113.0,336.5,129.0,353.0,131.5" stroke="black" stroke-width="2" fill="none" />
<polyline points="345.5,122.5,343.5,106.5,319.0,94.5,294.5,80.5,284.5,80.5,268.5,75.0,252.0,62.5,235.5,66.5,219.0,72.0,203.0,77.5,187.0,85.5" stroke="black" stroke-width="2" fill="none" />
<polyline points="181.0,96.5,167.0,112.5,161.0,128.0,165.0,144.0,170.5,160.0,168.5,175.5,180.5,191.5,206.5,208.0,210.5,234.0,201.0,250.0,201.0,266.0,189.0,278.0,183.0,293.5,172.5,295.5,168.5,292.0" stroke="black" stroke-width="2" fill="none" />
<polyline points="179.5,306.0,195.5,310.0,212.0,310.0,228.0,310.0,244.0,308.5,260.0,306.5,276.0,302.5,292.5,296.0,308.5,290.0,288.5,319.5,264.0,344.0,280.0,338.0,296.0,330.0,294.5,322.0,258.5,338.5,276.5,346.0,292.5,338.5,309.0,330.5" stroke="black" stroke-width="2" fill="none" />
<polyline points="307.0,330.5,273.0,346.5" stroke="black" stroke-width="2" fill="none" />
<polyline points="282.0,368.5,278.0,384.5,282.0,400.0,284.0,416.0,286.0,431.5,288.5,447.0,290.5,463.5,290.5,478.0" stroke="black" stroke-width="2" fill="none" />
<polyline points="268.0,472.0,258.0,474.0,256.0,458.0,254.0,441.5,254.0,426.0,252.0,410.0,250.5,394.5,249.0,379.0,225.0,375.0,209.0,373.0" stroke="black" stroke-width="2" fill="none" />
<polyline points="203.5,378.5,219.0,378.5,233.0,376.5,228.5,392.0,226.0,408.0,226.0,423.5,225.5,439.5,223.5,449.5,223.5,465.5" stroke="black" stroke-width="2" fill="none" />
<polyline points="207.5,466.0,197.5,468.0,197.5,452.0,197.5,436.5,197.5,420.5,199.5,404.5,201.0,388.5,193.0,372.5,177.5,366.0,161.5,358.0" stroke="black" stroke-width="2" fill="none" />
<polyline points="164.5,352.5,180.5,354.5,196.5,360.0,212.5,362.0,228.5,364.0,244.5,364.0,260.0,364.0,276.0,361.5,292.0,357.5,308.0,354.0" stroke="black" stroke-width="2" fill="none" />
<polyline points="321.5,360.0,305.5,364.0,289.5,368.0,271.5,376.0,255.5,376.0,235.5,372.0,219.0,368.0,203.0,370.0,177.0,360.0,179.0,361.5,163.0,345.5,171.0,329.5,179.5,314.0,158.0,344.0" stroke="black" stroke-width="2" fill="none" />
<polyline points="155.5,350.0,171.5,328.5,187.5,315.0,203.5,317.5,219.0,318.0,235.0,318.5,251.0,319.0,267.0,315.0,282.5,311.0,298.5,305.0,312.0,307.0,316.5,322.5,323.0,339.0,329.0,355.0" stroke="black" stroke-width="2" fill="none" />
<polyline points="303.0,326.5,269.0,342.5" stroke="black" stroke-width="2" fill="none" />
<polyline points="287.5,325.5,271.5,333.5,256.0,339.5,240.5,343.0,224.5,343.0,207.0,332.5,191.0,332.5" stroke="black" stroke-width="2" fill="none" />
<polyline points="187.5,329.0,203.5,327.0,225.5,340.0,241.5,338.5,257.5,334.5,273.5,329.0,290.0,320.5,314.0,306.5" stroke="black" stroke-width="2" fill="none" />
<polyline points="296.0,268.5,272.0,285.0" stroke="black" stroke-width="2" fill="none" />
<polyline points="246.5,289.0,262.5,286.5,279.0,280.5,291.5,266.5" stroke="black" stroke-width="2" fill="none" />
<polyline points="280.5,256.5,257.0,272.5,255.0,274.5,271.0,264.5,287.5,252.0,311.5,259.5" stroke="black" stroke-width="2" fill="none" />
<polyline points="328.0,266.0,312.0,240.0" stroke="black" stroke-width="2" fill="none" />
<polyline points="306.0,239.5,314.5,255.5,310.5,275.5,318.5,292.0,308.5,308.0,314.5,324.0,318.5,340.0,300.5,356.0" stroke="black" stroke-width="2" fill="none" />
<polyline points="285.0,377.5,286.5,394.0,289.0,410.0,293.0,426.0,295.0,442.0,295.0,458.0,295.0,474.5" stroke="black" stroke-width="2" fill="none" />
<polyline points="372.5,500.0,356.5,502.0,340.5,502.0,324.5,501.5,308.5,501.5,292.5,501.5,276.5,502.0,260.5,502.0,244.5,502.5,228.5,502.5,212.0,502.5,195.5,502.5,179.5,500.5,164.0,500.0,148.0,496.5" stroke="black" stroke-width="2" fill="none" />
<polyline points="125.0,492.0,141.0,491.5,157.0,491.0,173.0,491.0,189.0,491.0,204.5,491.0,221.0,491.0,237.0,491.0,253.0,493.5,269.0,493.5,285.0,492.0,301.0,491.5,317.0,491.5,333.0,491.5,337.0,495.5" stroke="black" stroke-width="2" fill="none" />
<polyline points="223.5,474.5,207.5,476.0,191.5,466.0,191.5,462.0,191.0,446.0,191.0,430.0,191.5,414.0,194.0,398.0,196.0,382.5,175.5,367.0,157.5,351.0,164.0,335.0,172.0,318.5,174.0,303.0,176.0,287.0,176.0,271.5,178.0,249.5,174.0,239.0,184.0,223.0,191.5,206.5,165.5,190.5,149.5,174.0,147.5,160.0" stroke="black" stroke-width="2" fill="none" />
<polyline points="140.0,160.0,144.0,176.0,144.0,192.0,146.0,208.5,150.0,224.5,156.0,240.5,163.5,254.5,157.0,276.5,177.0,274.5,169.5,290.0,161.5,306.0,177.5,302.0,193.5,290.5,209.5,284.5,226.0,277.0,236.0,289.0,252.0,283.5,268.0,281.5,284.0,273.0,304.0,275.0" stroke="black" stroke-width="2" fill="none" />
<polyline points="310.0,287.5,302.0,271.5,300.5,255.5,296.5,239.0" stroke="black" stroke-width="2" fill="none" />
<polyline points="303.5,202.5,293.5,218.5,275.5,234.5,251.5,250.5,237.5,266.0,222.0,246.0,237.5,246.0" stroke="black" stroke-width="2" fill="none" />
<polyline points="245.0,238.5,229.0,238.5,213.0,244.5" stroke="black" stroke-width="2" fill="none" />
<polyline points="203.5,249.5,203.5,265.5" stroke="black" stroke-width="2" fill="none" />
<polyline points="200.0,254.0,216.0,236.5,232.0,228.0,247.5,226.0,263.5,223.5,279.5,221.0,299.5,225.5,289.5,241.5,271.5,257.5,245.5,273.5,236.0,273.5,251.5,257.5,267.5,246.0,283.5,234.0,293.5,224.0,278.0,240.5,254.0,256.5,238.0,272.5,212.0,289.0" stroke="black" stroke-width="2" fill="none" />
<polyline points="197.5,252.0,213.5,230.0,229.5,224.0" stroke="black" stroke-width="2" fill="none" />
<polyline points="226.5,240.5,217.0,256.5,223.0,263.0" stroke="black" stroke-width="2" fill="none" />
<polyline points="182.0,255.0,166.0,265.5,144.0,219.5" stroke="black" stroke-width="2" fill="none" />
<polyline points="152.5,227.0,168.0,237.5,184.0,213.5,184.0,214.0,174.5,230.0,164.5,246.5,168.5,263.0,164.0,279.0,173.5,273.0" stroke="black" stroke-width="2" fill="none" />
<polyline points="191.5,259.5,192.5,243.5,194.5,227.5" stroke="black" stroke-width="2" fill="none" />
<polyline points="191.5,227.5,187.5,243.5,180.0,249.5,184.0,230.0" stroke="black" stroke-width="2" fill="none" />
<polyline points="187.0,226.0,177.0,241.5,173.5,237.5,190.0,213.5,206.5,223.5" stroke="black" stroke-width="2" fill="none" />
<polyline points="222.5,204.5,194.5,188.5" stroke="black" stroke-width="2" fill="none" />
<polyline points="189.0,184.5,202.5,200.5,228.5,228.0,208.5,244.0,212.0,260.5,224.0,278.5,192.0,294.0,208.0,289.5,223.5,289.0,239.5,276.5,255.5,266.0,271.5,256.5,287.5,243.0,307.5,243.5,311.0,268.0,321.0,280.5" stroke="black" stroke-width="2" fill="none" />
<polyline points="353.0,245.5,352.5,237.5,346.5,221.5,346.5,205.5,348.5,190.0,352.0,174.5,364.0,159.0,374.0,143.0,379.5,127.0,381.5,111.0,377.5,94.5,369.5,79.0,351.5,62.5,341.5,46.5,305.5,34.5,273.0,32.0,257.0,30.0,241.5,30.0,225.5,31.5,210.0,31.5,194.0,37.0,178.0,45.0" stroke="black" stroke-width="2" fill="none" />
<polyline points="201.0,40.0,183.5,56.0,165.0,73.5,147.5,81.5,143.5,65.5,154.0,63.5,170.0,41.5,186.5,34.0,202.5,28.0,219.0,24.5,235.0,22.5,251.0,22.5,267.0,22.5,283.0,26.0,299.0,30.0,315.0,35.5,331.0,46.0,347.0,52.0,363.0,68.5,379.5,88.5" stroke="black" stroke-width="2" fill="none" />
<polyline points="386.0,63.0,391.5,51.0,391.5,35.0,379.5,34.5,363.5,43.0" stroke="black" stroke-width="2" fill="none" />
<polyline points="364.0,41.5,378.0,57.5" stroke="black" stroke-width="2" fill="none" />
<polyline points="376.5,48.5,386.5,52.0,374.0,46.0,382.0,40.0,366.0,48.0" stroke="black" stroke-width="2" fill="none" />
<polyline points="361.5,76.0,345.5,66.0,327.5,55.5,311.5,45.5,296.0,39.5,294.0,43.5,278.5,43.5,263.0,41.5,247.0,40.0,231.0,40.0,215.0,44.5,199.0,50.0,183.5,58.0,179.0,80.5,173.0,98.5,156.5,112.5,140.5,126.5,154.5,116.5,168.5,100.5,188.5,86.5,212.5,85.0" stroke="black" stroke-width="2" fill="none" />
<polyline points="199.0,61.5,175.0,74.0,159.5,86.0" stroke="black" stroke-width="2" fill="none" />
<polyline points="145.5,117.5,171.5,103.5,187.5,91.5,203.5,88.0,209.0,82.5" stroke="black" stroke-width="2" fill="none" />
<polyline points="205.5,54.0,194.0,46.0,178.5,49.5,165.0,64.0,147.5,72.0,133.5,86.0,117.5,108.0" stroke="black" stroke-width="2" fill="none" />
<polyline points="113.0,104.5,129.0,80.0,145.0,58.0,149.0,61.5,136.5,77.5,130.0,93.5,128.0,111.5,125.5,127.5" stroke="black" stroke-width="2" fill="none" />
<polyline points="135.0,133.5,135.0,117.5,135.0,113.5" stroke="black" stroke-width="2" fill="none" />
<polyline points="170.0,131.5,186.0,137.5,190.0,131.5,206.0,133.5" stroke="black" stroke-width="2" fill="none" />
<polyline points="211.0,128.5,201.0,112.5" stroke="black" stroke-width="2" fill="none" />
<polyline points="197.5,110.5,183.5,126.5,189.5,114.5,205.5,112.5" stroke="black" stroke-width="2" fill="none" />
<polyline points="224.0,147.0,240.0,147.0" stroke="black" stroke-width="2" fill="none" />
<polyline points="242.0,149.5,226.0,149.5" stroke="black" stroke-width="2" fill="none" />
<polyline points="200.0,160.5,216.0,172.5,232.5,176.5,248.5,173.0,264.5,163.0,244.5,175.0" stroke="black" stroke-width="2" fill="none" />
<polyline points="259.5,171.5,264.0,145.5,268.0,129.5,284.0,124.0,268.0,128.5" stroke="black" stroke-width="2" fill="none" />
<polyline points="280.5,124.5,283.0,140.5,273.0,142.5,289.0,134.0" stroke="black" stroke-width="2" fill="none" />
<polyline points="295.5,114.0,279.5,108.0" stroke="black" stroke-width="2" fill="none" />
<polyline points="277.5,104.5,293.5,106.5" stroke="black" stroke-width="2" fill="none" />
<polyline points="292.5,99.5,276.5,93.5" stroke="black" stroke-width="2" fill="none" />
<polyline points="275.0,91.0,302.5,107.0,319.0,123.0" stroke="black" stroke-width="2" fill="none" />
<polyline points="305.0,149.5,299.0,139.5,283.0,147.5,267.0,148.0" stroke="black" stroke-width="2" fill="none" />
<polyline points="272.0,152.5,288.0,158.5" stroke="black" stroke-width="2" fill="none" />
<polyline points="250.0,179.0,234.5,183.5,218.5,180.0,202.5,168.0" stroke="black" stroke-width="2" fill="none" />
<polyline points="200.5,163.5,212.0,179.5" stroke="black" stroke-width="2" fill="none" />
<polyline points="274.0,91.0,290.0,95.0" stroke="black" stroke-width="2" fill="none" />
<polyline points="292.0,85.0,276.0,80.5" stroke="black" stroke-width="2" fill="none" />
<polyline points="283.0,71.0,299.0,75.5,315.0,85.5" stroke="black" stroke-width="2" fill="none" />
<polyline points="319.5,81.5,304.0,71.5" stroke="black" stroke-width="2" fill="none" />
<polyline points="327.0,51.0,311.0,43.0,294.5,34.5,278.0,35.0" stroke="black" stroke-width="2" fill="none" />
<polyline points="287.5,31.0,321.5,47.0,339.5,63.0,341.5,79.5,354.0,70.0,370.0,86.5,376.0,102.5,374.0,118.5,366.0,134.5,356.5,150.5,327.0,166.5,311.0,198.5,326.5,188.5,334.5,168.5,342.5,174.5,362.5,160.5" stroke="black" stroke-width="2" fill="none" />
<polyline points="346.5,176.5,342.5,192.5,340.5,208.5,340.5,224.5,346.5,240.5" stroke="black" stroke-width="2" fill="none" />
<polyline points="427.0,196.5,423.0,204.5,445.5,195.0,437.5,195.0,421.5,191.0,399.5,195.0,418.0,193.0,430.0,191.0" stroke="black" stroke-width="2" fill="none" />
<polyline points="344.0,138.5,356.0,122.5,349.5,122.0,346.0,106.0" stroke="black" stroke-width="2" fill="none" />
<polyline points="351.5,83.5,355.5,83.5,367.5,99.5,367.5,115.0,371.5,133.0,357.5,148.5" stroke="black" stroke-width="2" fill="none" />
<polyline points="366.0,87.5,344.0,79.5,328.0,65.0,327.5,67.5,329.0,57.5,315.5,57.5,299.5,41.5,273.5,47.5,257.5,45.5,241.5,50.0" stroke="black" stroke-width="2" fill="none" />
<polyline points="248.0,61.0,208.0,63.5,186.0,79.5,168.0,87.5,160.0,113.5,168.0,129.5,176.0,131.5,184.5,141.5,200.5,141.5" stroke="black" stroke-width="2" fill="none" />
<polyline points="252.0,63.5,274.0,79.5,302.0,96.0,286.0,110.0,310.0,105.5,324.5,113.5" stroke="black" stroke-width="2" fill="none" />
<polyline points="342.0,106.0,324.0,106.0,307.5,91.5,299.5,89.5,283.5,80.0,270.0,64.5" stroke="black" stroke-width="2" fill="none" />
<polyline points="256.5,35.0,240.5,35.0,224.5,37.0" stroke="black" stroke-width="2" fill="none" />
<polyline points="215.0,29.5,177.0,45.5,163.5,63.5,145.5,71.5,136.0,87.0,122.0,99.5,118.0,115.5,122.0,116.0,122.0,132.0,114.0,136.5,126.0,150.5,144.0,163.0,159.5,177.0,171.5,192.5,187.5,202.5,203.5,212.0,220.0,218.0,235.5,222.0,244.0,230.0,260.0,230.0,276.0,228.0" stroke="black" stroke-width="2" fill="none" />
<polyline points="257.0,376.0,257.0,391.5,259.0,407.5,261.0,424.0,263.0,440.5,263.0,456.5,263.0,472.5,276.5,476.5" stroke="black" stroke-width="2" fill="none" />
<polyline points="215.0,459.5,215.5,444.0,216.0,428.0,216.0,412.0" stroke="black" stroke-width="2" fill="none" />
<polyline points="235.0,381.5,233.0,397.5,230.5,414.0,230.5,430.0,230.5,446.0,228.5,462.0" stroke="black" stroke-width="2" fill="none" />
<polyline points="125.0,488.0,141.0,488.0,157.0,485.5,172.5,485.5,188.5,486.0,204.0,486.0,220.5,486.0,236.5,486.0,252.5,486.0,268.5,486.5,284.5,486.5,300.5,486.0,316.5,485.5,332.5,485.5,348.0,491.0,364.0,495.5,379.5,495.5" stroke="black" stroke-width="2" fill="none" />
</svg>