<?xml version="1.0" encoding="UTF-8"?>
<svg xmlns="http://www.w3.org/2000/svg" xmlns:xlink="http://www.w3.org/1999/xlink" width="1935.11811" height="1935.11811" viewBox="0 0 1935.11811 1935.11811" version="1.1">
<g id="surface1">
<path style="fill:none;stroke-width:2;stroke-linecap:butt;stroke-linejoin:miter;stroke:rgb(0%,0%,0%);stroke-opacity:1;stroke-miterlimit:4;" d="M 95.500114 58.499788 L 73.500423 74.499845 L 65.499878 90.499902 L 45.500065 106.499959 L 41.500309 123.000244 L 45.500065 139.000301 L 41.500309 155.000358 L 33.499764 171.000415 L 21.000269 187.000472 L 7.00009 202.500301 L 10.499618 198.499512 L 26.999902 178.499699 L 42.999959 150.500374 " transform="matrix(3.779528,0,0,3.779528,0,0)"/>
<path style="fill:none;stroke-width:2;stroke-linecap:butt;stroke-linejoin:miter;stroke:rgb(0%,0%,0%);stroke-opacity:1;stroke-miterlimit:4;" d="M 71.000317 141.500407 L 87.000374 139.499495 L 103.000431 121.499561 L 118.50026 109.500293 L 134.00009 96.999764 L 128.000456 100.99952 L 105.999731 116.999577 L 91.999552 133.499862 L 80.000285 150.000146 L 85.999919 166.500431 L 98.00022 182.500488 L 101.999976 198.000317 L 112.000399 205.499601 L 123.999666 221.499658 L 129.500106 237.499715 L 133.499862 253.499772 L 129.500106 268.999601 L 125.999544 284.999658 L 118.50026 301.499943 L 106.499959 317.5 L 86.500146 333.500057 L 70.50009 354.000098 L 67.999984 338.000041 L 67.499756 341.499569 L 61.500122 357.499626 L 50.000049 373.499683 L 35.99987 389.49974 L 44.000415 379.50035 L 60.000472 359.499504 L 78.000407 349.500114 L 94.000464 335.499935 L 109.999487 321.499756 L 125.999544 295.500309 L 132.000212 263.500195 L 155.99978 281.50013 L 171.999837 291.999748 L 187.999894 303.499821 L 203.999951 307.999805 L 209.999585 300.000293 " transform="matrix(3.779528,0,0,3.779528,0,0)"/>
<path style="fill:none;stroke-width:2;stroke-linecap:butt;stroke-linejoin:miter;stroke:rgb(0%,0%,0%);stroke-opacity:1;stroke-miterlimit:4;" d="M 215.500024 297.500187 L 216.000252 287.499764 L 218.00013 271.999935 L 218.500358 255.999878 L 214.999797 240.500049 L 212.999919 224.499992 L 193.500334 224.499992 " transform="matrix(3.779528,0,0,3.779528,0,0)"/>
<path style="fill:none;stroke-width:2;stroke-linecap:butt;stroke-linejoin:miter;stroke:rgb(0%,0%,0%);stroke-opacity:1;stroke-miterlimit:4;" d="M 186.500244 218.00013 L 192.499878 232.000309 L 192.499878 247.500138 L 189.999772 262.999967 L 187.999894 279.000024 L 193.500334 289.000448 " transform="matrix(3.779528,0,0,3.779528,0,0)"/>
<path style="fill:none;stroke-width:2;stroke-linecap:butt;stroke-linejoin:miter;stroke:rgb(0%,0%,0%);stroke-opacity:1;stroke-miterlimit:4;" d="M 193.999528 278.499797 L 171.999837 268.000179 " transform="matrix(3.779528,0,0,3.779528,0,0)"/>
<path style="fill:none;stroke-width:2;stroke-linecap:butt;stroke-linejoin:miter;stroke:rgb(0%,0%,0%);stroke-opacity:1;stroke-miterlimit:4;" d="M 155.99978 272.500163 L 171.999837 258.499984 L 182.500488 252.50035 " transform="matrix(3.779528,0,0,3.779528,0,0)"/>
<path style="fill:none;stroke-width:2;stroke-linecap:butt;stroke-linejoin:miter;stroke:rgb(0%,0%,0%);stroke-opacity:1;stroke-miterlimit:4;" d="M 165.499976 239.000399 L 149.499919 227.000098 " transform="matrix(3.779528,0,0,3.779528,0,0)"/>
<path style="fill:none;stroke-width:2;stroke-linecap:butt;stroke-linejoin:miter;stroke:rgb(0%,0%,0%);stroke-opacity:1;stroke-miterlimit:4;" d="M 153.00048 218.500358 L 166.999626 226.49987 L 164.49952 255.000456 L 172.500065 271.000513 L 171.999837 285.499886 L 187.499666 293.500431 L 203.499723 295.500309 " transform="matrix(3.779528,0,0,3.779528,0,0)"/>
<path style="fill:none;stroke-width:2;stroke-linecap:butt;stroke-linejoin:miter;stroke:rgb(0%,0%,0%);stroke-opacity:1;stroke-miterlimit:4;" d="M 176.499821 291.000326 L 157.000236 274.500041 L 154.50013 258.499984 L 178.499699 243.999577 L 162.499642 238.500171 L 148.500496 221.999886 L 155.99978 216.000252 L 150.000146 200.000195 L 137.999845 184.000138 L 134.500317 185.499788 L 134.500317 187.999894 L 130.499528 187.999894 L 134.00009 172.500065 L 137.999845 160.499764 L 144.000513 144.499707 L 152.000024 128.000456 L 157.999658 112.000399 L 147.500041 105.999731 L 131.499984 103.999854 " transform="matrix(3.779528,0,0,3.779528,0,0)"/>
<path style="fill:none;stroke-width:2;stroke-linecap:butt;stroke-linejoin:miter;stroke:rgb(0%,0%,0%);stroke-opacity:1;stroke-miterlimit:4;" d="M 136.500195 78.499601 L 120.500138 68.500212 " transform="matrix(3.779528,0,0,3.779528,0,0)"/>
<path style="fill:none;stroke-width:2;stroke-linecap:butt;stroke-linejoin:miter;stroke:rgb(0%,0%,0%);stroke-opacity:1;stroke-miterlimit:4;" d="M 130.000334 67.499756 L 102.500203 60.999894 " transform="matrix(3.779528,0,0,3.779528,0,0)"/>
<path style="fill:none;stroke-width:2;stroke-linecap:butt;stroke-linejoin:miter;stroke:rgb(0%,0%,0%);stroke-opacity:1;stroke-miterlimit:4;" d="M 93.500236 62.999772 L 75.500301 78.999829 L 91.500358 69.000439 L 95.500114 71.499512 L 112.000399 67.999984 L 128.000456 66.500334 L 144.000513 78.499601 " transform="matrix(3.779528,0,0,3.779528,0,0)"/>
<path style="fill:none;stroke-width:2;stroke-linecap:butt;stroke-linejoin:miter;stroke:rgb(0%,0%,0%);stroke-opacity:1;stroke-miterlimit:4;" d="M 160.999992 92.49978 L 144.999935 70.50009 L 128.49965 60.000472 L 112.499593 57.999561 L 96.000342 57.500366 L 80.000285 65.499878 L 63.5 91.500358 L 47.499943 99.49987 L 46.999715 123.500472 L 61.500122 119.99991 L 59.000016 103.999854 " transform="matrix(3.779528,0,0,3.779528,0,0)"/>
<path style="fill:none;stroke-width:2;stroke-linecap:butt;stroke-linejoin:miter;stroke:rgb(0%,0%,0%);stroke-opacity:1;stroke-miterlimit:4;" d="M 57.000138 99.49987 L 56.49991 103.999854 L 59.000016 119.99991 L 59.000016 135.999967 L 51.000505 152.000024 L 41.000081 168.000081 L 30.999658 184.500366 L 18.500163 200.500423 L 2.500106 214.499569 L 18.500163 198.99974 L 34.50022 178.999927 L 50.500277 150.999569 L 66.500334 125.000122 L 66.500334 125.50035 L 73.000195 134.999512 L 64.99965 150.999569 L 59.000016 166.999626 L 48.999593 182.999683 L 37.000326 198.99974 L 27.50013 214.999797 L 19.499585 230.999854 L 9.500195 246.499683 L 7.500317 262.49974 L 15.499829 236.500293 L 31.499886 208.499935 L 46.999715 186.500244 L 62.999772 156.500008 " transform="matrix(3.779528,0,0,3.779528,0,0)"/>
<path style="fill:none;stroke-width:2;stroke-linecap:butt;stroke-linejoin:miter;stroke:rgb(0%,0%,0%);stroke-opacity:1;stroke-miterlimit:4;" d="M 80.000285 154.50013 L 96.000342 166.000203 L 111.500171 176.499821 L 121.499561 160.499764 L 125.999544 170.500187 L 142.499829 186.500244 L 158.499886 216.50048 L 174.499943 234.000187 " transform="matrix(3.779528,0,0,3.779528,0,0)"/>
<path style="fill:none;stroke-width:2;stroke-linecap:butt;stroke-linejoin:miter;stroke:rgb(0%,0%,0%);stroke-opacity:1;stroke-miterlimit:4;" d="M 134.999512 225.500448 L 127.500228 209.999585 L 105.999731 186.000016 " transform="matrix(3.779528,0,0,3.779528,0,0)"/>
<path style="fill:none;stroke-width:2;stroke-linecap:butt;stroke-linejoin:miter;stroke:rgb(0%,0%,0%);stroke-opacity:1;stroke-miterlimit:4;" d="M 80.999707 194.499756 L 107.000187 220.500236 L 123.000244 232.000309 " transform="matrix(3.779528,0,0,3.779528,0,0)"/>
<path style="fill:none;stroke-width:2;stroke-linecap:butt;stroke-linejoin:miter;stroke:rgb(0%,0%,0%);stroke-opacity:1;stroke-miterlimit:4;" d="M 121.000366 212.999919 L 100.99952 205.000407 L 85.000496 193.500334 L 69.000439 180.000382 " transform="matrix(3.779528,0,0,3.779528,0,0)"/>
<path style="fill:none;stroke-width:2;stroke-linecap:butt;stroke-linejoin:miter;stroke:rgb(0%,0%,0%);stroke-opacity:1;stroke-miterlimit:4;" d="M 66.999528 175.999593 L 82.999585 162.000448 L 98.999642 173.499487 L 116.500382 189.499544 L 132.500439 205.999829 " transform="matrix(3.779528,0,0,3.779528,0,0)"/>
<path style="fill:none;stroke-width:2;stroke-linecap:butt;stroke-linejoin:miter;stroke:rgb(0%,0%,0%);stroke-opacity:1;stroke-miterlimit:4;" d="M 89.50048 227.500326 L 73.500423 199.499967 " transform="matrix(3.779528,0,0,3.779528,0,0)"/>
<path style="fill:none;stroke-width:2;stroke-linecap:butt;stroke-linejoin:miter;stroke:rgb(0%,0%,0%);stroke-opacity:1;stroke-miterlimit:4;" d="M 60.499666 187.000472 L 74.499845 202.500301 L 86.500146 218.500358 L 90.499902 234.500415 L 86.500146 250.500472 L 84.500269 266.499495 L 80.999707 270.500285 L 85.000496 286.500342 L 83.499813 302.000171 " transform="matrix(3.779528,0,0,3.779528,0,0)"/>
<path style="fill:none;stroke-width:2;stroke-linecap:butt;stroke-linejoin:miter;stroke:rgb(0%,0%,0%);stroke-opacity:1;stroke-miterlimit:4;" d="M 88.500024 300.499487 L 90.499902 284.500464 L 88.500024 268.500407 L 72.499967 256.500106 L 57.000138 252.50035 L 41.000081 258.499984 " transform="matrix(3.779528,0,0,3.779528,0,0)"/>
<path style="fill:none;stroke-width:2;stroke-linecap:butt;stroke-linejoin:miter;stroke:rgb(0%,0%,0%);stroke-opacity:1;stroke-miterlimit:4;" d="M 42.999959 264.499618 L 59.000016 302.500399 L 75.000073 332.499601 L 91.00013 332.000407 L 107.000187 318.000228 L 123.000244 291.49952 " transform="matrix(3.779528,0,0,3.779528,0,0)"/>
<path style="fill:none;stroke-width:2;stroke-linecap:butt;stroke-linejoin:miter;stroke:rgb(0%,0%,0%);stroke-opacity:1;stroke-miterlimit:4;" d="M 128.000456 307.999805 L 130.000334 323.999862 L 135.999967 339.999919 L 141.999601 356.500203 L 150.000146 372.50026 L 155.99978 388.500317 L 161.50022 404.500374 L 164.999748 420.500431 L 144.999935 436.500488 L 147.500041 452.000317 L 143.500285 468.000374 L 133.499862 484.000431 L 127.500228 500.499683 L 121.499561 498.499805 L 128.000456 466.999919 L 150.000146 432.999927 " transform="matrix(3.779528,0,0,3.779528,0,0)"/>
<path style="fill:none;stroke-width:2;stroke-linecap:butt;stroke-linejoin:miter;stroke:rgb(0%,0%,0%);stroke-opacity:1;stroke-miterlimit:4;" d="M 149.499919 425.999837 L 134.00009 429.999593 L 117.499805 429.999593 L 101.499748 428.499943 L 85.499691 424.500187 L 69.499634 418.999748 L 53.999805 414.999992 L 37.999748 408.50013 " transform="matrix(3.779528,0,0,3.779528,0,0)"/>
<path style="fill:none;stroke-width:2;stroke-linecap:butt;stroke-linejoin:miter;stroke:rgb(0%,0%,0%);stroke-opacity:1;stroke-miterlimit:4;" d="M 34.50022 402.500496 L 51.000505 384.499528 L 66.999528 366.499593 " transform="matrix(3.779528,0,0,3.779528,0,0)"/>
<path style="fill:none;stroke-width:2;stroke-linecap:butt;stroke-linejoin:miter;stroke:rgb(0%,0%,0%);stroke-opacity:1;stroke-miterlimit:4;" d="M 103.499626 341.999797 L 117.499805 330.499723 L 119.499683 347.000008 L 123.500472 363.500293 L 128.999878 379.999544 L 134.999512 396.499829 L 137.000423 413.000114 " transform="matrix(3.779528,0,0,3.779528,0,0)"/>
<path style="fill:none;stroke-width:2;stroke-linecap:butt;stroke-linejoin:miter;stroke:rgb(0%,0%,0%);stroke-opacity:1;stroke-miterlimit:4;" d="M 162.99987 407.999902 L 146.999813 365.500171 L 130.999756 325.499512 " transform="matrix(3.779528,0,0,3.779528,0,0)"/>
<path style="fill:none;stroke-width:2;stroke-linecap:butt;stroke-linejoin:miter;stroke:rgb(0%,0%,0%);stroke-opacity:1;stroke-miterlimit:4;" d="M 128.000456 330.999951 L 144.000513 368.999699 " transform="matrix(3.779528,0,0,3.779528,0,0)"/>
<path style="fill:none;stroke-width:2;stroke-linecap:butt;stroke-linejoin:miter;stroke:rgb(0%,0%,0%);stroke-opacity:1;stroke-miterlimit:4;" d="M 123.999666 341.499569 L 139.999723 375.499561 L 141.999601 379.50035 L 157.999658 407.499674 " transform="matrix(3.779528,0,0,3.779528,0,0)"/>
<path style="fill:none;stroke-width:2;stroke-linecap:butt;stroke-linejoin:miter;stroke:rgb(0%,0%,0%);stroke-opacity:1;stroke-miterlimit:4;" d="M 142.499829 447.000106 L 140.499951 463.500391 L 139.999723 485.500081 L 134.00009 501.500138 L 128.000456 497.999577 " transform="matrix(3.779528,0,0,3.779528,0,0)"/>
<path style="fill:none;stroke-width:2;stroke-linecap:butt;stroke-linejoin:miter;stroke:rgb(0%,0%,0%);stroke-opacity:1;stroke-miterlimit:4;" d="M 93.500236 479.999642 L 77.500179 472.00013 " transform="matrix(3.779528,0,0,3.779528,0,0)"/>
<path style="fill:none;stroke-width:2;stroke-linecap:butt;stroke-linejoin:miter;stroke:rgb(0%,0%,0%);stroke-opacity:1;stroke-miterlimit:4;" d="M 75.500301 484.999854 L 75.500301 468.999797 L 91.500358 468.999797 " transform="matrix(3.779528,0,0,3.779528,0,0)"/>
<path style="fill:none;stroke-width:2;stroke-linecap:butt;stroke-linejoin:miter;stroke:rgb(0%,0%,0%);stroke-opacity:1;stroke-miterlimit:4;" d="M 87.999797 453.499967 L 71.99974 457.499723 " transform="matrix(3.779528,0,0,3.779528,0,0)"/>
<path style="fill:none;stroke-width:2;stroke-linecap:butt;stroke-linejoin:miter;stroke:rgb(0%,0%,0%);stroke-opacity:1;stroke-miterlimit:4;" d="M 75.999495 455.499845 L 76.499723 471.499902 L 70.50009 475.499658 L 62.499544 491.999943 L 68.500212 472.00013 L 84.500269 463.999585 L 100.500326 457.999951 " transform="matrix(3.779528,0,0,3.779528,0,0)"/>
<path style="fill:none;stroke-width:2;stroke-linecap:butt;stroke-linejoin:miter;stroke:rgb(0%,0%,0%);stroke-opacity:1;stroke-miterlimit:4;" d="M 91.500358 447.999528 L 75.999495 450.000439 L 60.000472 457.999951 " transform="matrix(3.779528,0,0,3.779528,0,0)"/>
<path style="fill:none;stroke-width:2;stroke-linecap:butt;stroke-linejoin:miter;stroke:rgb(0%,0%,0%);stroke-opacity:1;stroke-miterlimit:4;" d="M 51.000505 432.000505 L 66.999528 435.500033 L 73.000195 441.499666 L 53.000382 459.999829 L 69.000439 444.5 L 85.000496 440.500244 " transform="matrix(3.779528,0,0,3.779528,0,0)"/>
<path style="fill:none;stroke-width:2;stroke-linecap:butt;stroke-linejoin:miter;stroke:rgb(0%,0%,0%);stroke-opacity:1;stroke-miterlimit:4;" d="M 53.499577 429.500399 L 55.500488 445.500456 L 51.999927 445.500456 L 51.999927 461.999707 L 55.500488 466.000496 L 53.499577 481.99952 L 55.999683 497.999577 L 64.000228 497.500382 L 68.500212 507.499772 L 76.499723 493.499593 " transform="matrix(3.779528,0,0,3.779528,0,0)"/>
<path style="fill:none;stroke-width:2;stroke-linecap:butt;stroke-linejoin:miter;stroke:rgb(0%,0%,0%);stroke-opacity:1;stroke-miterlimit:4;" d="M 83.499813 506.000122 L 77.500179 490.000065 L 61.500122 495.999699 " transform="matrix(3.779528,0,0,3.779528,0,0)"/>
<path style="fill:none;stroke-width:2;stroke-linecap:butt;stroke-linejoin:miter;stroke:rgb(0%,0%,0%);stroke-opacity:1;stroke-miterlimit:4;" d="M 57.000138 489.499837 L 66.999528 487.499959 L 82.500391 479.999642 " transform="matrix(3.779528,0,0,3.779528,0,0)"/>
<path style="fill:none;stroke-width:2;stroke-linecap:butt;stroke-linejoin:miter;stroke:rgb(0%,0%,0%);stroke-opacity:1;stroke-miterlimit:4;" d="M 121.999788 437.49991 L 98.00022 438.000138 L 82.000163 434.000382 L 66.000106 428.499943 L 50.000049 422.500309 " transform="matrix(3.779528,0,0,3.779528,0,0)"/>
<path style="fill:none;stroke-width:2;stroke-linecap:butt;stroke-linejoin:miter;stroke:rgb(0%,0%,0%);stroke-opacity:1;stroke-miterlimit:4;" d="M 48.999593 422.000081 L 75.000073 425.499609 L 91.500358 465.500269 L 98.00022 471.499902 L 116.500382 457.499723 L 128.49965 443.999772 " transform="matrix(3.779528,0,0,3.779528,0,0)"/>
<path style="fill:none;stroke-width:2;stroke-linecap:butt;stroke-linejoin:miter;stroke:rgb(0%,0%,0%);stroke-opacity:1;stroke-miterlimit:4;" d="M 136.500195 445.500456 L 124.499894 461.500513 L 121.499561 471.499902 L 107.999609 487.499959 L 123.999666 495.500505 L 112.000399 497.999577 L 119.99991 468.000374 L 120.500138 449.500212 " transform="matrix(3.779528,0,0,3.779528,0,0)"/>
<path style="fill:none;stroke-width:2;stroke-linecap:butt;stroke-linejoin:miter;stroke:rgb(0%,0%,0%);stroke-opacity:1;stroke-miterlimit:4;" d="M 137.499618 447.000106 L 133.499862 463.000163 L 125.50035 479.500448 " transform="matrix(3.779528,0,0,3.779528,0,0)"/>
<path style="fill:none;stroke-width:2;stroke-linecap:butt;stroke-linejoin:miter;stroke:rgb(0%,0%,0%);stroke-opacity:1;stroke-miterlimit:4;" d="M 90.499902 506.999544 L 96.999764 502.499561 L 105.000309 486.499504 L 106.499959 470.999674 L 118.50026 454.999618 L 112.999821 445.500456 L 98.999642 431.500277 L 82.999585 427.499487 L 66.999528 421.499854 L 51.000505 417.500098 L 35.000448 422.999504 L 19.000391 420.500431 L 2.500106 412.499886 " transform="matrix(3.779528,0,0,3.779528,0,0)"/>
<path style="fill:none;stroke-width:2;stroke-linecap:butt;stroke-linejoin:miter;stroke:rgb(0%,0%,0%);stroke-opacity:1;stroke-miterlimit:4;" d="M 7.999512 416.99987 L 23.999569 432.999927 " transform="matrix(3.779528,0,0,3.779528,0,0)"/>
<path style="fill:none;stroke-width:2;stroke-linecap:butt;stroke-linejoin:miter;stroke:rgb(0%,0%,0%);stroke-opacity:1;stroke-miterlimit:4;" d="M 47.499943 418.49952 L 45.500065 434.499577 L 45.500065 466.499691 L 47.499943 481.99952 L 50.000049 497.999577 " transform="matrix(3.779528,0,0,3.779528,0,0)"/>
<path style="fill:none;stroke-width:2;stroke-linecap:butt;stroke-linejoin:miter;stroke:rgb(0%,0%,0%);stroke-opacity:1;stroke-miterlimit:4;" d="M 110.499715 372.50026 L 110.499715 340.500146 " transform="matrix(3.779528,0,0,3.779528,0,0)"/>
<path style="fill:none;stroke-width:2;stroke-linecap:butt;stroke-linejoin:miter;stroke:rgb(0%,0%,0%);stroke-opacity:1;stroke-miterlimit:4;" d="M 107.000187 338.500269 L 104.500081 354.500326 L 104.500081 386.000212 L 116.000155 396.499829 " transform="matrix(3.779528,0,0,3.779528,0,0)"/>
<path style="fill:none;stroke-width:2;stroke-linecap:butt;stroke-linejoin:miter;stroke:rgb(0%,0%,0%);stroke-opacity:1;stroke-miterlimit:4;" d="M 160.499764 416.499642 L 154.50013 400.499585 L 150.500374 384.499528 L 142.499829 368.500505 L 126.499772 350.499536 L 122.500016 334.500513 " transform="matrix(3.779528,0,0,3.779528,0,0)"/>
<path style="fill:none;stroke-width:2;stroke-linecap:butt;stroke-linejoin:miter;stroke:rgb(0%,0%,0%);stroke-opacity:1;stroke-miterlimit:4;" d="M 122.500016 313.500244 L 125.999544 329.500301 L 132.000212 345.500358 L 137.999845 361.000187 L 134.00009 377.000244 L 140.499951 392.500073 L 144.499707 408.50013 " transform="matrix(3.779528,0,0,3.779528,0,0)"/>
<path style="fill:none;stroke-width:2;stroke-linecap:butt;stroke-linejoin:miter;stroke:rgb(0%,0%,0%);stroke-opacity:1;stroke-miterlimit:4;" d="M 93.000008 304.500277 L 95.500114 288.50022 L 91.500358 272.500163 " transform="matrix(3.779528,0,0,3.779528,0,0)"/>
<path style="fill:none;stroke-width:2;stroke-linecap:butt;stroke-linejoin:miter;stroke:rgb(0%,0%,0%);stroke-opacity:1;stroke-miterlimit:4;" d="M 64.000228 247.500138 L 47.499943 247.500138 L 31.499886 253.499772 " transform="matrix(3.779528,0,0,3.779528,0,0)"/>
<path style="fill:none;stroke-width:2;stroke-linecap:butt;stroke-linejoin:miter;stroke:rgb(0%,0%,0%);stroke-opacity:1;stroke-miterlimit:4;" d="M 51.000505 252.50035 L 41.000081 268.500407 L 48.999593 284.000236 L 55.00026 299.500065 L 62.999772 315.500122 L 69.000439 330.999951 " transform="matrix(3.779528,0,0,3.779528,0,0)"/>
<path style="fill:none;stroke-width:2;stroke-linecap:butt;stroke-linejoin:miter;stroke:rgb(0%,0%,0%);stroke-opacity:1;stroke-miterlimit:4;" d="M 63.5 234.500415 L 47.499943 236.500293 L 31.499886 248.499561 L 29.500008 252.50035 L 45.500065 236.500293 " transform="matrix(3.779528,0,0,3.779528,0,0)"/>
<path style="fill:none;stroke-width:2;stroke-linecap:butt;stroke-linejoin:miter;stroke:rgb(0%,0%,0%);stroke-opacity:1;stroke-miterlimit:4;" d="M 35.000448 214.000374 L 21.000269 248.000366 L 14.500407 255.49965 L 26.499674 239.999821 L 23.999569 234.500415 L 35.99987 222.500114 L 43.500187 205.999829 L 44.000415 202.000073 " transform="matrix(3.779528,0,0,3.779528,0,0)"/>
<path style="fill:none;stroke-width:2;stroke-linecap:butt;stroke-linejoin:miter;stroke:rgb(0%,0%,0%);stroke-opacity:1;stroke-miterlimit:4;" d="M 35.000448 189.00035 L 26.499674 205.000407 L 25.000024 207.000285 " transform="matrix(3.779528,0,0,3.779528,0,0)"/>
<path style="fill:none;stroke-width:2;stroke-linecap:butt;stroke-linejoin:miter;stroke:rgb(0%,0%,0%);stroke-opacity:1;stroke-miterlimit:4;" d="M 60.999894 186.500244 L 76.999951 196.000439 L 93.000008 207.999707 L 109.000065 213.500146 " transform="matrix(3.779528,0,0,3.779528,0,0)"/>
<path style="fill:none;stroke-width:2;stroke-linecap:butt;stroke-linejoin:miter;stroke:rgb(0%,0%,0%);stroke-opacity:1;stroke-miterlimit:4;" d="M 140.499951 258.499984 L 146.999813 274.500041 L 164.999748 290.500098 L 191.000228 305.999927 " transform="matrix(3.779528,0,0,3.779528,0,0)"/>
<path style="fill:none;stroke-width:2;stroke-linecap:butt;stroke-linejoin:miter;stroke:rgb(0%,0%,0%);stroke-opacity:1;stroke-miterlimit:4;" d="M 182.500488 187.499666 L 168.500309 177.500277 L 171.999837 163.500098 L 175.500399 148.000269 L 171.499609 137.999845 L 155.499552 141.999601 " transform="matrix(3.779528,0,0,3.779528,0,0)"/>
<path style="fill:none;stroke-width:2;stroke-linecap:butt;stroke-linejoin:miter;stroke:rgb(0%,0%,0%);stroke-opacity:1;stroke-miterlimit:4;" d="M 159.999536 134.999512 L 153.999902 151.499797 L 157.999658 167.499854 L 189.999772 199.499967 L 193.999528 215.500024 L 186.000016 231.500081 L 186.500244 247.500138 L 168.500309 263.500195 L 159.000114 253.499772 L 173.000293 243.999577 L 180.999805 247.500138 " transform="matrix(3.779528,0,0,3.779528,0,0)"/>
<path style="fill:none;stroke-width:2;stroke-linecap:butt;stroke-linejoin:miter;stroke:rgb(0%,0%,0%);stroke-opacity:1;stroke-miterlimit:4;" d="M 129.500106 234.500415 L 115.499927 227.000098 L 103.499626 211.000041 L 105.499504 193.500334 L 109.500293 177.500277 L 85.499691 161.50022 " transform="matrix(3.779528,0,0,3.779528,0,0)"/>
<path style="fill:none;stroke-width:2;stroke-linecap:butt;stroke-linejoin:miter;stroke:rgb(0%,0%,0%);stroke-opacity:1;stroke-miterlimit:4;" d="M 75.999495 125.50035 L 75.999495 141.500407 L 73.500423 157.500464 L 67.499756 173.499487 L 75.500301 189.499544 L 87.999797 205.999829 L 105.999731 221.499658 " transform="matrix(3.779528,0,0,3.779528,0,0)"/>
<path style="fill:none;stroke-width:2;stroke-linecap:butt;stroke-linejoin:miter;stroke:rgb(0%,0%,0%);stroke-opacity:1;stroke-miterlimit:4;" d="M 113.500049 134.00009 L 129.500106 135.999967 L 153.00048 124.499894 " transform="matrix(3.779528,0,0,3.779528,0,0)"/>
<path style="fill:none;stroke-width:2;stroke-linecap:butt;stroke-linejoin:miter;stroke:rgb(0%,0%,0%);stroke-opacity:1;stroke-miterlimit:4;" d="M 144.999935 127.500228 L 127 125.999544 L 111.500171 130.000334 " transform="matrix(3.779528,0,0,3.779528,0,0)"/>
<path style="fill:none;stroke-width:2;stroke-linecap:butt;stroke-linejoin:miter;stroke:rgb(0%,0%,0%);stroke-opacity:1;stroke-miterlimit:4;" d="M 168.000081 149.499919 L 168.000081 165.499976 L 186.000016 184.000138 " transform="matrix(3.779528,0,0,3.779528,0,0)"/>
<path style="fill:none;stroke-width:2;stroke-linecap:butt;stroke-linejoin:miter;stroke:rgb(0%,0%,0%);stroke-opacity:1;stroke-miterlimit:4;" d="M 175.999593 150.500374 L 175.500399 166.000203 L 181.500033 181.500033 L 195.500212 197.50009 L 200.000195 214.000374 L 207.999707 230.000431 L 209.999585 246.000488 L 212.000496 261.999512 L 212.499691 277.999569 L 206.500057 293.500431 " transform="matrix(3.779528,0,0,3.779528,0,0)"/>
<path style="fill:none;stroke-width:2;stroke-linecap:butt;stroke-linejoin:miter;stroke:rgb(0%,0%,0%);stroke-opacity:1;stroke-miterlimit:4;" d="M 382.999878 191.000228 L 382.999878 187.000472 L 398.999935 187.000472 " transform="matrix(3.779528,0,0,3.779528,0,0)"/>
<path style="fill:none;stroke-width:2;stroke-linecap:butt;stroke-linejoin:miter;stroke:rgb(0%,0%,0%);stroke-opacity:1;stroke-miterlimit:4;" d="M 477.000342 186.500244 L 509.000456 186.500244 " transform="matrix(3.779528,0,0,3.779528,0,0)"/>
<path style="fill:none;stroke-width:2;stroke-linecap:butt;stroke-linejoin:miter;stroke:rgb(0%,0%,0%);stroke-opacity:1;stroke-miterlimit:4;" d="M 510.500106 191.000228 L 478.499992 191.000228 " transform="matrix(3.779528,0,0,3.779528,0,0)"/>
<path style="fill:none;stroke-width:2;stroke-linecap:butt;stroke-linejoin:miter;stroke:rgb(0%,0%,0%);stroke-opacity:1;stroke-miterlimit:4;" d="M 128.999878 61.500122 L 150.999569 77.500179 L 159.500342 93.500236 L 153.499674 109.500293 L 148.000269 125.000122 L 139.999723 141.500407 L 132.000212 157.500464 L 123.999666 169.999959 L 114.000277 186.000016 L 121.999788 202.500301 L 128.000456 218.500358 L 139.999723 236.999487 L 137.499618 261.00009 L 133.499862 276.499919 L 127.500228 292.499976 L 129.500106 304.000049 L 114.000277 318.000228 L 95.500114 334.000285 L 78.000407 350.000342 L 67.999984 366.000399 L 53.999805 382.000456 L 39.999626 398.499707 L 46.000293 398.000513 L 33.499764 423.999959 " transform="matrix(3.779528,0,0,3.779528,0,0)"/>
</g>
</svg>
