<svg xmlns="http://www.w3.org/2000/svg" width="512mm" height="512mm" viewBox="0 0 512 512" version="1.1"><polyline points="385.5,2.5,385.5,18.5,391.5,32.5,373.5,48.5,353.5,65.0,335.5,81.0,321.5,97.0,309.5,111.0,295.0,127.0,283.0,142.5,270.5,158.5,275.0,174.5" stroke="black" stroke-width="2" fill="none" />
<polyline points="269.0,169.5,284.5,176.0,301.0,180.0,317.0,184.0,333.0,186.0,349.0,190.0,365.0,192.5,380.5,194.5,396.5,196.5,412.5,197.0,428.5,197.0,444.5,199.0,450.5,205.0,460.5,221.5,457.0,237.0,435.0,247.0" stroke="black" stroke-width="2" fill="none" />
<polyline points="455.0,245.5,455.0,241.5,437.0,249.5,421.0,238.0,405.5,236.0" stroke="black" stroke-width="2" fill="none" />
<polyline points="409.5,234.5,413.5,250.5,413.0,260.5" stroke="black" stroke-width="2" fill="none" />
<polyline points="410.0,268.0,394.0,242.5" stroke="black" stroke-width="2" fill="none" />
<polyline points="393.5,238.0,409.5,244.0" stroke="black" stroke-width="2" fill="none" />
<polyline points="402.5,243.5,410.0,259.5,424.0,287.5,424.0,303.0,438.0,319.0" stroke="black" stroke-width="2" fill="none" />
<polyline points="437.5,316.0,421.5,294.0" stroke="black" stroke-width="2" fill="none" />
<polyline points="420.0,287.0,436.0,289.0,452.0,303.5" stroke="black" stroke-width="2" fill="none" />
<polyline points="446.0,288.5,446.0,286.0" stroke="black" stroke-width="2" fill="none" />
<polyline points="432.5,288.5,450.5,304.5,454.5,320.5" stroke="black" stroke-width="2" fill="none" />
<polyline points="461.0,274.5,477.0,282.5,493.0,288.5,509.5,296.5" stroke="black" stroke-width="2" fill="none" />
<polyline points="508.5,200.5,493.0,203.0,477.0,203.0,461.0,203.0" stroke="black" stroke-width="2" fill="none" />
<polyline points="453.5,206.5,463.0,228.5,463.0,244.5,458.5,260.0,466.0,276.0,496.0,291.5" stroke="black" stroke-width="2" fill="none" />
<polyline points="498.0,193.0,482.5,195.5,466.5,198.0,450.5,204.0" stroke="black" stroke-width="2" fill="none" />
<polyline points="426.5,204.5,427.0,220.5" stroke="black" stroke-width="2" fill="none" />
<polyline points="417.5,224.0,402.0,224.0" stroke="black" stroke-width="2" fill="none" />
<polyline points="412.0,236.0,422.0,252.0" stroke="black" stroke-width="2" fill="none" />
<polyline points="397.0,256.5,396.5,272.5,384.5,288.0" stroke="black" stroke-width="2" fill="none" />
<polyline points="382.5,296.5,390.5,288.5,388.5,270.5,392.5,254.5" stroke="black" stroke-width="2" fill="none" />
<polyline points="389.0,202.5,389.0,218.5,387.0,234.0,387.0,249.5,383.0,265.5,377.0,281.0,369.5,289.0,368.0,279.5,378.0,289.5,396.0,255.5,412.0,281.5,428.0,313.5,444.0,331.0,460.0,341.0,476.0,347.0,492.0,355.0,508.0,363.0" stroke="black" stroke-width="2" fill="none" />
<polyline points="499.5,472.5,483.5,472.5,467.5,478.0,451.5,479.0,435.5,483.0" stroke="black" stroke-width="2" fill="none" />
<polyline points="439.0,482.0,437.0,497.5" stroke="black" stroke-width="2" fill="none" />
<polyline points="421.5,507.5,415.5,491.5" stroke="black" stroke-width="2" fill="none" />
<polyline points="409.5,466.5,393.5,472.0" stroke="black" stroke-width="2" fill="none" />
<polyline points="391.5,467.0,407.5,463.0" stroke="black" stroke-width="2" fill="none" />
<polyline points="410.0,409.5,394.5,407.0" stroke="black" stroke-width="2" fill="none" />
<polyline points="391.5,403.5,407.5,403.5,423.5,411.5" stroke="black" stroke-width="2" fill="none" />
<polyline points="432.0,415.0,406.0,421.0,390.0,425.0,374.0,415.0,368.0,405.5,352.0,407.5" stroke="black" stroke-width="2" fill="none" />
<polyline points="341.0,409.5,343.0,415.5,359.0,417.5,374.5,423.5,390.0,429.0,406.0,425.0,402.0,441.0,386.0,447.5,402.0,442.0" stroke="black" stroke-width="2" fill="none" />
<polyline points="383.0,431.0,367.0,431.0,361.0,429.0,345.0,431.5,329.0,428.0" stroke="black" stroke-width="2" fill="none" />
<polyline points="325.0,422.0,341.0,426.0,357.0,425.5,376.5,417.5,392.5,434.0,388.0,450.0,384.5,458.0,392.5,482.0,390.5,500.0" stroke="black" stroke-width="2" fill="none" />
<polyline points="371.0,476.0,355.5,476.0,339.5,474.0,323.5,470.0" stroke="black" stroke-width="2" fill="none" />
<polyline points="321.5,466.5,329.5,482.5,341.5,480.5,343.5,496.5,359.5,494.0,376.0,494.0,393.5,492.0,409.5,490.0" stroke="black" stroke-width="2" fill="none" />
<polyline points="506.0,465.0,489.5,465.5,473.0,465.5,457.5,461.5,441.5,459.5,433.5,451.5,433.5,435.5,437.5,420.0,427.5,406.0,411.5,399.5,395.5,397.5,380.0,399.5,364.0,401.5,348.5,403.5,333.0,413.5,317.0,418.0,313.0,430.0,309.0,434.5" stroke="black" stroke-width="2" fill="none" />
<polyline points="296.0,454.0,280.0,450.0" stroke="black" stroke-width="2" fill="none" />
<polyline points="269.0,441.5,273.0,447.5,276.5,448.0,262.5,472.0,268.5,466.0,284.5,474.0,300.0,470.0,314.0,454.5,330.0,456.5,334.0,469.0,350.0,471.0,366.0,471.0" stroke="black" stroke-width="2" fill="none" />
<polyline points="299.0,464.5,309.0,456.5,323.0,456.5,315.0,446.0,299.0,441.5,283.0,435.5,267.0,434.0" stroke="black" stroke-width="2" fill="none" />
<polyline points="261.0,434.5,277.0,440.5,293.0,446.5,309.0,450.0,325.0,458.0,343.0,447.5,349.0,460.0,353.0,452.0,363.0,464.5,369.5,454.5,395.5,454.5" stroke="black" stroke-width="2" fill="none" />
<polyline points="276.0,476.0,270.5,468.0,302.5,458.5,302.5,432.5,300.5,434.5,284.5,432.5,269.0,430.5,253.0,436.5" stroke="black" stroke-width="2" fill="none" />
<polyline points="260.0,431.0,252.0,437.0,243.5,453.0,233.5,469.0,241.5,485.0,241.5,501.0" stroke="black" stroke-width="2" fill="none" />
<polyline points="248.0,499.0,242.0,484.5" stroke="black" stroke-width="2" fill="none" />
<polyline points="240.5,480.5,257.0,486.5,273.0,490.5,289.0,492.5,305.5,494.0,321.5,495.5,337.5,495.0" stroke="black" stroke-width="2" fill="none" />
<polyline points="274.0,505.5,270.0,501.5,268.0,479.5,251.5,475.5,235.5,471.5" stroke="black" stroke-width="2" fill="none" />
<polyline points="234.5,464.5,251.0,442.5,267.0,459.0,277.0,463.5,285.0,465.5,301.0,463.5" stroke="black" stroke-width="2" fill="none" />
<polyline points="491.0,355.5,455.0,339.5,434.5,324.0,422.5,308.0,414.0,292.0,406.0,276.0,409.5,272.0,399.5,256.5,399.5,240.5,397.5,230.5,399.5,216.5,401.5,200.5" stroke="black" stroke-width="2" fill="none" />
<polyline points="462.5,128.5,462.0,126.5,446.0,110.5" stroke="black" stroke-width="2" fill="none" />
<polyline points="441.5,76.0,457.5,100.0,473.5,126.0,490.0,155.5,506.5,185.5" stroke="black" stroke-width="2" fill="none" />
<polyline points="508.5,169.0,500.5,153.0,498.5,147.0" stroke="black" stroke-width="2" fill="none" />
<polyline points="502.0,165.5,486.5,137.0,470.5,107.0,455.0,82.5,439.0,66.5" stroke="black" stroke-width="2" fill="none" />
<polyline points="443.0,68.5,453.0,84.5,463.0,100.0,473.0,116.0,482.5,132.0,490.5,147.5,500.5,163.5,508.5,180.0" stroke="black" stroke-width="2" fill="none" />
<polyline points="504.5,87.0,488.0,76.5,471.5,68.5,455.0,60.0,439.0,53.5,423.0,51.5" stroke="black" stroke-width="2" fill="none" />
<polyline points="420.0,41.5,436.0,47.5,452.0,53.5,468.0,57.5,484.0,66.0,500.0,76.0" stroke="black" stroke-width="2" fill="none" />
<polyline points="496.5,68.0,464.5,52.0,432.5,52.5,416.5,42.5" stroke="black" stroke-width="2" fill="none" />
<polyline points="413.5,34.0,429.5,42.0,445.0,46.5,461.0,50.5,477.5,56.5,493.5,66.5,509.5,76.5" stroke="black" stroke-width="2" fill="none" />
<polyline points="481.5,75.5,445.5,59.5" stroke="black" stroke-width="2" fill="none" />
<polyline points="440.0,50.5,483.5,66.0" stroke="black" stroke-width="2" fill="none" />
<polyline points="409.0,2.0,409.5,18.0,413.0,33.5,417.5,45.5,431.5,61.5,444.0,77.5,452.0,93.5,462.5,110.0,472.5,126.0,475.0,142.5,485.0,158.5,501.0,176.5,509.0,192.5" stroke="black" stroke-width="2" fill="none" />
<polyline points="417.0,202.0,401.0,200.0,377.5,198.0,361.5,195.5,346.0,193.5,330.0,191.0,314.0,187.0,298.0,183.0,282.5,179.5,266.5,175.5,246.0,166.0,230.0,160.0,214.0,151.5,198.0,145.5,181.5,135.5,164.5,125.5,148.5,121.5" stroke="black" stroke-width="2" fill="none" />
<polyline points="153.5,123.0,169.5,135.0,185.5,143.5,201.5,151.5,217.5,160.0,233.5,166.0,249.5,172.0" stroke="black" stroke-width="2" fill="none" />
<polyline points="262.0,182.0,252.0,167.5,260.0,166.0,270.0,150.0,282.5,134.5,295.0,119.0,309.0,103.0,323.0,87.0,339.0,70.5,356.5,54.5,378.5,44.0,362.5,57.5,346.5,69.0,330.0,85.5,314.0,104.0,298.0,124.0,282.0,144.5,266.0,166.5" stroke="black" stroke-width="2" fill="none" />
<polyline points="282.0,160.5,290.0,142.5,303.5,126.0,316.0,110.0" stroke="black" stroke-width="2" fill="none" />
<polyline points="351.5,80.0,335.5,96.0,323.5,109.5,307.5,130.0,297.0,136.0,280.5,156.5,294.0,146.5,306.5,130.5,318.5,115.0,333.0,99.0,348.5,83.0,363.0,67.0" stroke="black" stroke-width="2" fill="none" />
<polyline points="362.5,66.5,346.5,78.5,344.5,80.5,360.5,65.0" stroke="black" stroke-width="2" fill="none" />
<polyline points="372.5,32.5,356.5,33.0,340.5,32.5,325.0,33.0,309.5,37.0,293.5,37.0,277.5,38.5,261.5,40.5,245.5,46.5,229.0,50.5,212.5,58.5,196.5,66.5,180.5,79.0,164.0,92.5,147.5,106.5,165.0,104.0,187.0,87.5,217.0,71.5,251.0,55.5,285.5,47.5,269.5,49.5,253.5,56.0,238.0,62.0,222.0,70.0,206.0,77.5,190.0,87.5,174.5,97.5,158.5,111.0" stroke="black" stroke-width="2" fill="none" />
<polyline points="162.0,113.5,178.5,101.5,194.5,91.5,210.5,82.0,226.5,74.0,242.5,66.0,258.5,60.0,274.5,54.0" stroke="black" stroke-width="2" fill="none" />
<polyline points="286.0,47.5,246.0,63.5,212.0,80.0,184.0,96.0,166.0,111.5,166.5,95.5,182.0,83.5,198.0,71.5,214.0,61.5,230.5,55.5,247.0,49.5,262.5,46.0,279.0,42.0,289.0,44.0,305.0,42.0,321.0,38.0,337.0,38.5,352.5,38.5,368.5,38.5,384.5,39.0" stroke="black" stroke-width="2" fill="none" />
<polyline points="368.5,43.5,352.5,57.0,336.0,71.5,320.0,88.0,304.0,106.0,288.0,126.5,272.0,148.5,252.0,186.0,240.0,170.0,202.0,153.5,172.0,137.5,146.0,122.0,147.5,105.5,165.5,89.5,183.5,73.5,210.0,57.5,252.0,41.5" stroke="black" stroke-width="2" fill="none" />
<polyline points="250.0,47.0,210.0,63.5,186.0,79.5,166.0,95.5,152.0,111.5,166.0,127.5,194.0,143.5,228.5,159.5" stroke="black" stroke-width="2" fill="none" />
<polyline points="391.0,1.5,391.0,17.5,401.5,37.5,417.5,53.5,432.0,69.0,442.0,85.5,452.0,101.5,446.0,116.0,456.0,132.0,478.0,138.5,488.0,154.5,490.0,171.0,499.5,187.0,505.5,208.5" stroke="black" stroke-width="2" fill="none" />
<polyline points="498.0,182.5,482.0,154.5,466.0,126.5,450.0,98.5,434.0,70.0,417.5,53.5,401.5,35.0,399.5,17.0,401.5,1.0" stroke="black" stroke-width="2" fill="none" />
</svg>