<svg xmlns="http://www.w3.org/2000/svg" width="512mm" height="512mm" viewBox="0 0 512 512" version="1.1"><polyline points="365.5,2.5,355.5,8.5,359.5,10.5,363.5,20.5,369.5,27.0" stroke="black" stroke-width="2" fill="none" />
<polyline points="369.5,43.0,373.5,47.0,373.5,57.0,377.5,63.5,376.0,80.0,380.0,74.5,392.0,52.5,408.0,46.5" stroke="black" stroke-width="2" fill="none" />
<polyline points="411.5,60.5,409.5,66.0,393.5,66.0" stroke="black" stroke-width="2" fill="none" />
<polyline points="404.5,80.5,389.0,84.5,367.0,82.5,351.0,84.5,349.0,74.0,333.0,73.5,317.0,73.5,301.0,74.0" stroke="black" stroke-width="2" fill="none" />
<polyline points="326.0,86.0,342.0,86.0,357.5,90.0,373.0,89.5,382.5,103.5,394.5,106.0,402.0,105.5,404.0,129.5,420.0,129.0,430.0,145.5,428.0,165.5,448.0,177.5,444.0,193.0,430.0,199.0,434.5,199.5,454.5,201.5,442.5,217.0,458.5,227.0" stroke="black" stroke-width="2" fill="none" />
<polyline points="454.5,176.5,470.5,172.5" stroke="black" stroke-width="2" fill="none" />
<polyline points="472.0,177.0,456.0,175.0" stroke="black" stroke-width="2" fill="none" />
<polyline points="433.5,156.5,417.5,156.0" stroke="black" stroke-width="2" fill="none" />
<polyline points="415.0,154.5,417.0,170.5,421.0,184.0,417.0,209.5" stroke="black" stroke-width="2" fill="none" />
<polyline points="427.5,228.0,411.5,229.5,407.5,229.5,391.5,229.5" stroke="black" stroke-width="2" fill="none" />
<polyline points="396.5,250.5,389.0,256.5,387.0,272.5,377.0,288.0,369.0,304.0,371.0,309.5,379.0,295.5,395.0,281.0,411.5,279.0,429.5,253.0,445.5,249.5,421.5,261.5,421.5,271.5" stroke="black" stroke-width="2" fill="none" />
<polyline points="412.0,286.0,396.0,288.5" stroke="black" stroke-width="2" fill="none" />
<polyline points="407.5,265.0,391.5,261.0" stroke="black" stroke-width="2" fill="none" />
<polyline points="377.0,317.0,361.0,317.5,345.0,320.0" stroke="black" stroke-width="2" fill="none" />
<polyline points="341.0,316.0,357.0,306.0,373.0,295.5,392.5,271.5,408.5,270.0" stroke="black" stroke-width="2" fill="none" />
<polyline points="450.5,213.0,444.5,210.5,438.5,194.0,444.0,178.0,448.0,161.5,432.0,149.5,416.5,153.0" stroke="black" stroke-width="2" fill="none" />
<polyline points="388.5,117.5,373.0,109.5,365.0,101.5,349.0,101.5" stroke="black" stroke-width="2" fill="none" />
<polyline points="352.0,85.5,368.0,85.5" stroke="black" stroke-width="2" fill="none" />
<polyline points="348.0,63.5,346.0,79.5,351.5,95.5,367.5,93.5,383.5,95.5,384.0,104.0,394.0,103.5,410.0,107.5" stroke="black" stroke-width="2" fill="none" />
<polyline points="420.0,91.0,420.0,107.5,412.0,111.5,410.0,125.5,416.0,121.5,444.0,113.5" stroke="black" stroke-width="2" fill="none" />
<polyline points="471.5,116.0,485.5,90.0,478.0,106.0,472.0,122.0,486.0,132.5,494.0,122.5" stroke="black" stroke-width="2" fill="none" />
<polyline points="472.0,43.5,456.0,43.5" stroke="black" stroke-width="2" fill="none" />
<polyline points="453.5,40.0,469.5,38.0" stroke="black" stroke-width="2" fill="none" />
<polyline points="467.0,34.0,451.5,36.0" stroke="black" stroke-width="2" fill="none" />
<polyline points="453.5,10.0,438.0,4.0" stroke="black" stroke-width="2" fill="none" />
<polyline points="393.0,46.0,391.5,62.0,373.0,57.5" stroke="black" stroke-width="2" fill="none" />
<polyline points="349.0,18.0,332.5,16.0,317.0,15.5" stroke="black" stroke-width="2" fill="none" />
<polyline points="316.5,64.5,300.5,62.5,296.5,54.5,281.0,54.5,265.0,54.5" stroke="black" stroke-width="2" fill="none" />
<polyline points="258.5,54.5,275.0,50.5,285.0,58.5,301.0,58.5,319.5,68.0,325.5,69.5,335.5,57.0,339.5,61.0,347.5,47.0,369.5,42.5,386.0,46.5" stroke="black" stroke-width="2" fill="none" />
<polyline points="377.0,132.0,361.0,124.0,345.0,117.5,329.0,112.0,313.0,106.0,297.0,100.5,281.0,96.5,265.0,92.5" stroke="black" stroke-width="2" fill="none" />
<polyline points="246.5,102.5,263.0,106.5,265.0,101.0,311.0,99.5,353.0,115.5,389.0,131.5,395.0,147.5,391.0,163.5,384.5,179.0,380.5,195.0,377.0,210.5,371.0,226.5,362.5,243.0,356.5,259.0,346.0,275.5,335.5,291.5,321.5,307.5,304.0,323.5,282.0,339.5,264.0,349.5,262.0,339.5,270.0,342.0,286.0,330.5,302.0,320.5,315.5,306.0,331.5,286.0,348.0,262.0,364.0,225.5,387.5,211.0,408.0,201.0,418.0,207.0,426.0,199.0,403.5,214.5,411.5,217.0,403.0,235.5,414.5,253.5,416.5,270.0,417.0,282.5,429.0,274.5,430.5,259.0,446.5,255.0,458.5,227.0,461.0,232.5" stroke="black" stroke-width="2" fill="none" />
<polyline points="337.5,302.0,341.5,316.0,325.5,332.0,315.0,348.0,292.5,359.5,290.0,362.0,305.5,352.0" stroke="black" stroke-width="2" fill="none" />
<polyline points="310.0,332.0,292.0,340.0,284.0,356.5,280.0,346.5" stroke="black" stroke-width="2" fill="none" />
<polyline points="336.5,333.5,327.0,319.5,345.0,302.0,339.0,296.0,335.0,300.5" stroke="black" stroke-width="2" fill="none" />
<polyline points="273.0,340.0,297.0,324.0,315.0,308.5,324.5,296.5,338.5,281.0,348.0,265.0,356.0,249.0,362.0,233.0,368.0,216.5,374.0,200.5,378.0,184.0,382.5,168.0,384.5,150.0,368.5,144.0,352.5,138.0,337.0,131.5,321.0,125.5" stroke="black" stroke-width="2" fill="none" />
<polyline points="326.0,128.0,363.5,144.0" stroke="black" stroke-width="2" fill="none" />
<polyline points="337.0,124.5,373.0,146.5,379.0,162.0,375.0,178.0,370.5,194.0,364.5,209.5,358.5,225.5,352.5,242.0,342.5,258.0,335.0,274.0,321.0,290.0,305.0,306.0,289.0,321.5,250.5,329.5,248.5,346.0,248.0,338.0" stroke="black" stroke-width="2" fill="none" />
<polyline points="246.5,417.5,230.5,417.5,214.0,413.5" stroke="black" stroke-width="2" fill="none" />
<polyline points="179.5,357.0,163.5,357.0" stroke="black" stroke-width="2" fill="none" />
<polyline points="160.5,353.5,176.5,353.5" stroke="black" stroke-width="2" fill="none" />
<polyline points="159.5,259.5,175.5,285.5,192.0,307.5,208.0,322.0,223.5,336.0,239.5,346.0,256.0,356.0,272.0,345.5,288.5,335.5,304.5,323.5,320.0,309.5,336.0,289.5,352.0,265.5,368.0,231.5" stroke="black" stroke-width="2" fill="none" />
<polyline points="432.0,143.0,416.0,135.0,392.0,133.5,376.0,127.5,360.0,119.0,344.0,113.0,327.5,106.5,311.5,100.5,295.5,96.0,279.5,90.0,263.5,86.0,247.0,86.5,231.0,92.5,215.5,96.5,200.0,100.5,184.0,106.5,168.0,112.5,152.0,118.0,136.0,126.0,120.0,134.0" stroke="black" stroke-width="2" fill="none" />
<polyline points="124.5,139.5,124.0,143.5,128.0,159.5,132.0,175.0,136.0,191.0,142.5,206.5,146.5,222.5,154.0,238.5,162.0,254.5,170.0,270.5,182.0,286.5,194.0,302.0,209.5,318.5,229.5,334.5" stroke="black" stroke-width="2" fill="none" />
<polyline points="152.5,232.5,137.0,188.5" stroke="black" stroke-width="2" fill="none" />
<polyline points="132.5,194.5,148.5,236.5,164.5,254.5,180.5,282.5,196.5,302.5,212.5,320.5,229.0,312.5,230.5,332.0,246.5,332.0,262.5,331.5" stroke="black" stroke-width="2" fill="none" />
<polyline points="195.0,125.0,152.5,141.0,155.0,125.0,170.5,117.0,186.5,110.5,202.0,104.5,218.5,100.5,235.0,96.0,249.5,98.0,265.5,99.5,281.5,106.0,307.5,114.0,323.5,114.0,333.0,122.0,348.5,129.5,364.0,138.0,381.5,136.0" stroke="black" stroke-width="2" fill="none" />
<polyline points="311.5,107.5,353.5,123.5,385.5,139.5,397.5,157.0,395.5,173.0,389.5,190.5,390.0,206.5,378.5,218.0,383.0,234.0,393.5,242.0,408.0,242.0" stroke="black" stroke-width="2" fill="none" />
<polyline points="345.5,62.0,342.0,78.0,325.5,78.0,309.5,80.5,293.5,76.5,289.5,73.0,276.0,63.0,260.0,62.5" stroke="black" stroke-width="2" fill="none" />
<polyline points="259.5,9.5,275.5,9.5,292.0,9.5" stroke="black" stroke-width="2" fill="none" />
<polyline points="276.0,34.0,260.0,34.0,244.0,33.5,228.0,41.5,212.5,41.5,196.5,39.0" stroke="black" stroke-width="2" fill="none" />
<polyline points="202.0,31.5,191.5,23.5,175.0,29.5,159.0,32.0" stroke="black" stroke-width="2" fill="none" />
<polyline points="157.5,32.5,173.5,26.5" stroke="black" stroke-width="2" fill="none" />
<polyline points="151.0,31.5,131.0,39.5,111.5,55.5,101.5,63.5,118.0,49.0,142.0,45.5,152.0,45.5,168.0,46.0,184.0,46.0,200.0,60.5,216.0,54.5" stroke="black" stroke-width="2" fill="none" />
<polyline points="202.0,104.5,159.5,120.0,127.5,135.5,133.5,151.5,140.0,148.0,156.0,140.0,172.0,134.0" stroke="black" stroke-width="2" fill="none" />
<polyline points="149.5,134.5,129.5,140.5,145.5,138.5,161.5,130.5,177.5,126.5,193.5,124.0" stroke="black" stroke-width="2" fill="none" />
<polyline points="190.0,101.5,152.0,117.5,120.0,134.0,120.0,150.0,124.0,165.5,128.5,181.5,132.0,197.5,138.0,213.5,144.0,229.5,152.5,245.5,161.0,261.5,168.5,278.0,181.0,294.0,193.0,310.0,209.0,324.0,229.0,340.0,251.0,356.5,248.5,344.5,274.5,328.5,290.5,321.0,306.5,303.0,322.5,289.0,338.5,265.0,354.5,233.5" stroke="black" stroke-width="2" fill="none" />
<polyline points="314.5,37.5,298.5,39.5,282.5,37.5,267.0,39.5,251.0,37.5,249.0,45.5,245.0,42.0,229.5,48.0,213.5,48.0,205.5,54.0,189.0,54.5,203.0,48.5,189.5,41.0,209.5,25.0,199.5,29.0,183.5,43.0,168.0,43.0,152.0,43.0" stroke="black" stroke-width="2" fill="none" />
<polyline points="144.5,16.5,160.5,14.5,176.5,14.5,194.5,20.5,210.5,16.5,226.5,16.5,242.0,14.0,258.0,14.0,274.0,13.5,290.0,14.0,306.0,16.0,307.5,4.0,321.0,9.5,337.0,9.5" stroke="black" stroke-width="2" fill="none" />
<polyline points="368.0,5.0,354.0,27.0,338.0,26.5,322.0,32.0,303.5,33.5,287.5,29.5,289.5,19.5,285.5,19.0,283.5,3.0,267.5,3.0,251.5,9.0,235.0,9.5,219.0,9.5,202.5,11.5,186.5,10.0,170.5,10.0,155.0,10.5,139.0,12.5,123.5,18.5,107.5,20.5" stroke="black" stroke-width="2" fill="none" />
<polyline points="88.5,109.0,84.5,124.5" stroke="black" stroke-width="2" fill="none" />
</svg>