<?xml version="1.0" encoding="UTF-8"?>
<svg xmlns="http://www.w3.org/2000/svg" xmlns:xlink="http://www.w3.org/1999/xlink" width="1935.11811" height="1935.11811" viewBox="0 0 1935.11811 1935.11811" version="1.1">
<g id="surface1">
<path style="fill:none;stroke-width:2;stroke-linecap:butt;stroke-linejoin:miter;stroke:rgb(0%,0%,0%);stroke-opacity:1;stroke-miterlimit:4;" d="M 303.499821 2.500106 L 309.500488 18.500163 L 317.5 34.50022 L 329.500301 50.500277 L 353.49987 66.999528 L 347.500236 93.000008 L 345.500358 103.000431 L 333.500057 119.000488 L 318.99965 134.999512 L 302.999593 152.500252 L 278.499797 172.500065 L 279.000024 188.500122 L 280.999902 204.500179 L 284.999658 202.500301 L 295.500309 196.000439 L 311.500366 193.500334 L 331.500179 191.000228 L 347.500236 194.999984 L 363.500293 194.999984 " transform="matrix(3.779528,0,0,3.779528,0,0)"/>
<path style="fill:none;stroke-width:2;stroke-linecap:butt;stroke-linejoin:miter;stroke:rgb(0%,0%,0%);stroke-opacity:1;stroke-miterlimit:4;" d="M 363.999487 186.500244 L 348.000464 170.500187 " transform="matrix(3.779528,0,0,3.779528,0,0)"/>
<path style="fill:none;stroke-width:2;stroke-linecap:butt;stroke-linejoin:miter;stroke:rgb(0%,0%,0%);stroke-opacity:1;stroke-miterlimit:4;" d="M 353.49987 164.999748 L 369.499927 182.500488 L 385.499984 194.499756 L 401.500041 200.500423 " transform="matrix(3.779528,0,0,3.779528,0,0)"/>
<path style="fill:none;stroke-width:2;stroke-linecap:butt;stroke-linejoin:miter;stroke:rgb(0%,0%,0%);stroke-opacity:1;stroke-miterlimit:4;" d="M 434.499577 207.000285 L 418.49952 175.000171 L 402.500496 153.499674 L 386.500439 139.499495 L 370.500382 125.50035 " transform="matrix(3.779528,0,0,3.779528,0,0)"/>
<path style="fill:none;stroke-width:2;stroke-linecap:butt;stroke-linejoin:miter;stroke:rgb(0%,0%,0%);stroke-opacity:1;stroke-miterlimit:4;" d="M 372.50026 123.500472 L 390.500195 139.499495 L 407.499674 155.499552 L 423.999959 171.499609 " transform="matrix(3.779528,0,0,3.779528,0,0)"/>
<path style="fill:none;stroke-width:2;stroke-linecap:butt;stroke-linejoin:miter;stroke:rgb(0%,0%,0%);stroke-opacity:1;stroke-miterlimit:4;" d="M 409.99978 155.000358 L 425.999837 171.000415 L 441.499666 182.500488 L 457.499723 172.500065 " transform="matrix(3.779528,0,0,3.779528,0,0)"/>
<path style="fill:none;stroke-width:2;stroke-linecap:butt;stroke-linejoin:miter;stroke:rgb(0%,0%,0%);stroke-opacity:1;stroke-miterlimit:4;" d="M 484.499626 169.999959 L 468.499569 139.999723 " transform="matrix(3.779528,0,0,3.779528,0,0)"/>
<path style="fill:none;stroke-width:2;stroke-linecap:butt;stroke-linejoin:miter;stroke:rgb(0%,0%,0%);stroke-opacity:1;stroke-miterlimit:4;" d="M 465.500269 132.999634 L 481.000098 149.499919 " transform="matrix(3.779528,0,0,3.779528,0,0)"/>
<path style="fill:none;stroke-width:2;stroke-linecap:butt;stroke-linejoin:miter;stroke:rgb(0%,0%,0%);stroke-opacity:1;stroke-miterlimit:4;" d="M 470.000252 131.499984 L 478.499992 147.500041 L 486.499504 163.500098 L 494.500049 180.000382 " transform="matrix(3.779528,0,0,3.779528,0,0)"/>
<path style="fill:none;stroke-width:2;stroke-linecap:butt;stroke-linejoin:miter;stroke:rgb(0%,0%,0%);stroke-opacity:1;stroke-miterlimit:4;" d="M 504.500472 127 L 488.500415 105.000309 " transform="matrix(3.779528,0,0,3.779528,0,0)"/>
<path style="fill:none;stroke-width:2;stroke-linecap:butt;stroke-linejoin:miter;stroke:rgb(0%,0%,0%);stroke-opacity:1;stroke-miterlimit:4;" d="M 482.499748 105.499504 L 499.000033 127.500228 " transform="matrix(3.779528,0,0,3.779528,0,0)"/>
<path style="fill:none;stroke-width:2;stroke-linecap:butt;stroke-linejoin:miter;stroke:rgb(0%,0%,0%);stroke-opacity:1;stroke-miterlimit:4;" d="M 500.000488 107.500415 L 484.000431 98.999642 L 468.499569 78.999829 " transform="matrix(3.779528,0,0,3.779528,0,0)"/>
<path style="fill:none;stroke-width:2;stroke-linecap:butt;stroke-linejoin:miter;stroke:rgb(0%,0%,0%);stroke-opacity:1;stroke-miterlimit:4;" d="M 475.000464 62.499544 L 506.999544 78.499601 " transform="matrix(3.779528,0,0,3.779528,0,0)"/>
<path style="fill:none;stroke-width:2;stroke-linecap:butt;stroke-linejoin:miter;stroke:rgb(0%,0%,0%);stroke-opacity:1;stroke-miterlimit:4;" d="M 498.499805 77.500179 L 482.499748 69.000439 L 466.000496 60.499666 " transform="matrix(3.779528,0,0,3.779528,0,0)"/>
<path style="fill:none;stroke-width:2;stroke-linecap:butt;stroke-linejoin:miter;stroke:rgb(0%,0%,0%);stroke-opacity:1;stroke-miterlimit:4;" d="M 466.499691 57.000138 L 484.499626 72.499967 L 500.499683 88.500024 L 508.500228 104.500081 " transform="matrix(3.779528,0,0,3.779528,0,0)"/>
<path style="fill:none;stroke-width:2;stroke-linecap:butt;stroke-linejoin:miter;stroke:rgb(0%,0%,0%);stroke-opacity:1;stroke-miterlimit:4;" d="M 502.000366 114.000277 L 488.000187 98.00022 " transform="matrix(3.779528,0,0,3.779528,0,0)"/>
<path style="fill:none;stroke-width:2;stroke-linecap:butt;stroke-linejoin:miter;stroke:rgb(0%,0%,0%);stroke-opacity:1;stroke-miterlimit:4;" d="M 466.000496 100.000098 L 450.000439 75.500301 L 425.999837 39.500431 " transform="matrix(3.779528,0,0,3.779528,0,0)"/>
<path style="fill:none;stroke-width:2;stroke-linecap:butt;stroke-linejoin:miter;stroke:rgb(0%,0%,0%);stroke-opacity:1;stroke-miterlimit:4;" d="M 432.999927 39.999626 L 448.999984 50.000049 L 465.000041 57.999561 L 481.000098 64.000228 L 497.000155 69.999862 " transform="matrix(3.779528,0,0,3.779528,0,0)"/>
<path style="fill:none;stroke-width:2;stroke-linecap:butt;stroke-linejoin:miter;stroke:rgb(0%,0%,0%);stroke-opacity:1;stroke-miterlimit:4;" d="M 454.000195 64.000228 L 470.000252 98.00022 L 486.499504 121.999788 L 502.499561 146.000391 " transform="matrix(3.779528,0,0,3.779528,0,0)"/>
<path style="fill:none;stroke-width:2;stroke-linecap:butt;stroke-linejoin:miter;stroke:rgb(0%,0%,0%);stroke-opacity:1;stroke-miterlimit:4;" d="M 508 147.500041 L 500.000488 132.000212 L 488.500415 116.000155 L 477.000342 99.49987 L 468.999797 83.499813 L 465.500269 67.499756 L 436.999683 49.499821 " transform="matrix(3.779528,0,0,3.779528,0,0)"/>
<path style="fill:none;stroke-width:2;stroke-linecap:butt;stroke-linejoin:miter;stroke:rgb(0%,0%,0%);stroke-opacity:1;stroke-miterlimit:4;" d="M 413.999536 42.499731 L 411.500464 57.999561 L 407.499674 73.500423 L 399.500163 89.50048 L 382.000456 114.000277 L 407.999902 130.000334 L 438.000138 150.000146 " transform="matrix(3.779528,0,0,3.779528,0,0)"/>
<path style="fill:none;stroke-width:2;stroke-linecap:butt;stroke-linejoin:miter;stroke:rgb(0%,0%,0%);stroke-opacity:1;stroke-miterlimit:4;" d="M 457.999951 160.499764 L 442.500122 132.999634 L 426.500065 119.499683 L 410.500008 107.000187 " transform="matrix(3.779528,0,0,3.779528,0,0)"/>
<path style="fill:none;stroke-width:2;stroke-linecap:butt;stroke-linejoin:miter;stroke:rgb(0%,0%,0%);stroke-opacity:1;stroke-miterlimit:4;" d="M 404.999569 106.499959 L 420.500431 110.499715 " transform="matrix(3.779528,0,0,3.779528,0,0)"/>
<path style="fill:none;stroke-width:2;stroke-linecap:butt;stroke-linejoin:miter;stroke:rgb(0%,0%,0%);stroke-opacity:1;stroke-miterlimit:4;" d="M 412.499886 101.499748 L 428.499943 109.500293 L 445.000228 113.500049 L 461.500513 103.499626 L 477.499536 125.50035 L 490.000065 135.49974 L 502.000366 153.999902 " transform="matrix(3.779528,0,0,3.779528,0,0)"/>
<path style="fill:none;stroke-width:2;stroke-linecap:butt;stroke-linejoin:miter;stroke:rgb(0%,0%,0%);stroke-opacity:1;stroke-miterlimit:4;" d="M 510.500106 138.500073 L 500.499683 122.500016 L 488.000187 106.499959 L 466.000496 102.500203 L 455.499845 86.500146 L 433.500155 89.999674 L 417.500098 98.00022 " transform="matrix(3.779528,0,0,3.779528,0,0)"/>
<path style="fill:none;stroke-width:2;stroke-linecap:butt;stroke-linejoin:miter;stroke:rgb(0%,0%,0%);stroke-opacity:1;stroke-miterlimit:4;" d="M 406.000024 98.00022 L 422.000081 82.500391 L 432.000505 66.500334 L 422.000081 82.500391 L 413.999536 98.500448 L 425.999837 114.000277 L 452.499512 143.500285 " transform="matrix(3.779528,0,0,3.779528,0,0)"/>
<path style="fill:none;stroke-width:2;stroke-linecap:butt;stroke-linejoin:miter;stroke:rgb(0%,0%,0%);stroke-opacity:1;stroke-miterlimit:4;" d="M 438.000138 147.500041 L 422.500309 144.999935 L 416.99987 141.500407 L 400.999813 145.500163 L 384.499528 131.499984 L 368.500505 121.499561 " transform="matrix(3.779528,0,0,3.779528,0,0)"/>
<path style="fill:none;stroke-width:2;stroke-linecap:butt;stroke-linejoin:miter;stroke:rgb(0%,0%,0%);stroke-opacity:1;stroke-miterlimit:4;" d="M 367.500049 122.500016 L 381.500228 138.500073 L 399.500163 154.50013 L 413.500342 170.500187 L 421.499854 186.000016 L 423.999959 202.000073 L 429.500399 209.999585 L 429.500399 239.999821 L 431.500277 255.999878 L 429.500399 282.000358 L 433.500155 298.000415 L 431.000049 314.499666 L 431.000049 330.499723 L 431.500277 346.49978 L 429.500399 362.499837 L 431.500277 378.499894 L 431.500277 409.99978 L 429.500399 425.999837 L 416.000448 435.500033 L 415.50022 451.50009 " transform="matrix(3.779528,0,0,3.779528,0,0)"/>
<path style="fill:none;stroke-width:2;stroke-linecap:butt;stroke-linejoin:miter;stroke:rgb(0%,0%,0%);stroke-opacity:1;stroke-miterlimit:4;" d="M 474.500236 441.999894 L 481.99952 436.00026 L 465.500269 447.999528 L 448.999984 456.000073 L 438.500366 457.999951 L 462.499935 442.500122 L 472.999552 420.000203 L 456.999495 436.00026 L 461.000285 434.499577 L 474.500236 418.000326 L 474.500236 354.99952 L 475.000464 339.000496 L 475.000464 323.499634 L 472.999552 307.000382 L 472.999552 291.000326 L 470.999674 275.000269 L 470.000252 259.000212 L 466.000496 242.499927 L 466.499691 226.49987 L 476.500114 209.999585 L 466.999919 225.999642 L 447.500334 213.500146 L 441.999894 198.000317 L 459.499601 181.500033 L 467.500146 165.499976 L 455.499845 149.499919 L 449.500212 133.499862 L 431.000049 111.500171 L 432.999927 91.500358 L 440.500244 75.999495 L 434.499577 60.000472 L 418.000326 78.499601 L 402.000269 98.999642 " transform="matrix(3.779528,0,0,3.779528,0,0)"/>
<path style="fill:none;stroke-width:2;stroke-linecap:butt;stroke-linejoin:miter;stroke:rgb(0%,0%,0%);stroke-opacity:1;stroke-miterlimit:4;" d="M 395.500407 97.499992 L 397.500285 79.500057 L 406.000024 64.000228 L 408.50013 48.000171 L 408.50013 43.500187 " transform="matrix(3.779528,0,0,3.779528,0,0)"/>
<path style="fill:none;stroke-width:2;stroke-linecap:butt;stroke-linejoin:miter;stroke:rgb(0%,0%,0%);stroke-opacity:1;stroke-miterlimit:4;" d="M 387.499862 50.000049 L 371.499805 67.999984 L 355.999976 66.000106 L 340.500146 53.999805 L 324.50009 45.500065 " transform="matrix(3.779528,0,0,3.779528,0,0)"/>
<path style="fill:none;stroke-width:2;stroke-linecap:butt;stroke-linejoin:miter;stroke:rgb(0%,0%,0%);stroke-opacity:1;stroke-miterlimit:4;" d="M 320.000106 39.500431 L 352.00022 52.500155 L 368.000277 58.499788 " transform="matrix(3.779528,0,0,3.779528,0,0)"/>
<path style="fill:none;stroke-width:2;stroke-linecap:butt;stroke-linejoin:miter;stroke:rgb(0%,0%,0%);stroke-opacity:1;stroke-miterlimit:4;" d="M 358.500081 60.000472 L 374.500138 55.999683 L 382.49965 58.499788 L 390.500195 32.000114 L 392.500073 16.000057 L 376.500016 12.000301 L 382.000456 12.000301 L 379.999544 3.999756 " transform="matrix(3.779528,0,0,3.779528,0,0)"/>
<path style="fill:none;stroke-width:2;stroke-linecap:butt;stroke-linejoin:miter;stroke:rgb(0%,0%,0%);stroke-opacity:1;stroke-miterlimit:4;" d="M 391.999845 13.499951 L 395.999601 23.500374 L 404.000146 7.00009 " transform="matrix(3.779528,0,0,3.779528,0,0)"/>
<path style="fill:none;stroke-width:2;stroke-linecap:butt;stroke-linejoin:miter;stroke:rgb(0%,0%,0%);stroke-opacity:1;stroke-miterlimit:4;" d="M 425.000415 1.999878 L 425.499609 17.999935 L 422.999504 33.499764 L 429.500399 49.499821 L 425.499609 65.499878 L 416.000448 81.499935 L 402.000269 97.499992 L 416.499642 114.000277 L 436.500488 130.000334 L 447.000106 146.499585 L 456.999495 162.499642 L 454.999618 178.499699 L 459.000407 182.500488 " transform="matrix(3.779528,0,0,3.779528,0,0)"/>
<path style="fill:none;stroke-width:2;stroke-linecap:butt;stroke-linejoin:miter;stroke:rgb(0%,0%,0%);stroke-opacity:1;stroke-miterlimit:4;" d="M 440.000016 155.99978 L 423.999959 146.000391 L 418.49952 128.49965 L 402.999691 120.500138 L 386.999634 109.999487 L 370.999577 105.999731 L 354.500326 118.000033 L 338.500269 135.49974 L 321.999984 153.999902 L 318.000228 175.999593 " transform="matrix(3.779528,0,0,3.779528,0,0)"/>
<path style="fill:none;stroke-width:2;stroke-linecap:butt;stroke-linejoin:miter;stroke:rgb(0%,0%,0%);stroke-opacity:1;stroke-miterlimit:4;" d="M 323.999862 161.50022 L 333.500057 147.500041 L 323.499634 164.000326 L 323.499634 178.000505 L 331.500179 193.999528 L 338.000041 210.499813 " transform="matrix(3.779528,0,0,3.779528,0,0)"/>
<path style="fill:none;stroke-width:2;stroke-linecap:butt;stroke-linejoin:miter;stroke:rgb(0%,0%,0%);stroke-opacity:1;stroke-miterlimit:4;" d="M 368.000277 199.499967 L 368.000277 189.499544 L 347.500236 173.499487 L 345.500358 157.500464 L 335.499935 155.499552 L 331.500179 159.500342 " transform="matrix(3.779528,0,0,3.779528,0,0)"/>
<path style="fill:none;stroke-width:2;stroke-linecap:butt;stroke-linejoin:miter;stroke:rgb(0%,0%,0%);stroke-opacity:1;stroke-miterlimit:4;" d="M 335.499935 143.000057 L 351.499992 127 L 368.000277 110.999943 L 384.000334 113.500049 L 400.499585 123.999666 L 416.99987 134.00009 " transform="matrix(3.779528,0,0,3.779528,0,0)"/>
<path style="fill:none;stroke-width:2;stroke-linecap:butt;stroke-linejoin:miter;stroke:rgb(0%,0%,0%);stroke-opacity:1;stroke-miterlimit:4;" d="M 424.500187 148.500496 L 414.499764 144.499707 L 414.499764 128.49965 L 388.500317 112.499593 " transform="matrix(3.779528,0,0,3.779528,0,0)"/>
<path style="fill:none;stroke-width:2;stroke-linecap:butt;stroke-linejoin:miter;stroke:rgb(0%,0%,0%);stroke-opacity:1;stroke-miterlimit:4;" d="M 370.999577 110.499715 L 354.500326 126.499772 L 358.500081 141.999601 L 380.499772 157.999658 L 398.000513 174.499943 L 413.999536 190.5 L 409.99978 205.999829 L 425.999837 233.499959 L 413.500342 248.999788 L 411.500464 264.499618 L 409.499552 287.999992 L 409.499552 337.499813 L 409.000358 354.000098 L 409.000358 370.500382 L 413.000114 377.000244 L 416.99987 393.000301 L 416.499642 409.000358 L 416.499642 425.000415 L 425.999837 438.999561 L 420.500431 454.500423 " transform="matrix(3.779528,0,0,3.779528,0,0)"/>
<path style="fill:none;stroke-width:2;stroke-linecap:butt;stroke-linejoin:miter;stroke:rgb(0%,0%,0%);stroke-opacity:1;stroke-miterlimit:4;" d="M 414.499764 465.500269 L 398.499707 463.500391 L 382.49965 463.999585 L 366.000399 461.999707 L 349.500114 461.500513 L 316.999772 461.500513 L 300.999715 461.000285 " transform="matrix(3.779528,0,0,3.779528,0,0)"/>
<path style="fill:none;stroke-width:2;stroke-linecap:butt;stroke-linejoin:miter;stroke:rgb(0%,0%,0%);stroke-opacity:1;stroke-miterlimit:4;" d="M 314.000472 474.000008 L 303.499821 490.000065 L 307.000382 479.500448 " transform="matrix(3.779528,0,0,3.779528,0,0)"/>
<path style="fill:none;stroke-width:2;stroke-linecap:butt;stroke-linejoin:miter;stroke:rgb(0%,0%,0%);stroke-opacity:1;stroke-miterlimit:4;" d="M 313.500244 475.999886 L 307.000382 491.999943 " transform="matrix(3.779528,0,0,3.779528,0,0)"/>
<path style="fill:none;stroke-width:2;stroke-linecap:butt;stroke-linejoin:miter;stroke:rgb(0%,0%,0%);stroke-opacity:1;stroke-miterlimit:4;" d="M 287.999992 493.499593 L 286.000114 509.49965 " transform="matrix(3.779528,0,0,3.779528,0,0)"/>
<path style="fill:none;stroke-width:2;stroke-linecap:butt;stroke-linejoin:miter;stroke:rgb(0%,0%,0%);stroke-opacity:1;stroke-miterlimit:4;" d="M 276.499919 500.499683 L 288.50022 484.499626 " transform="matrix(3.779528,0,0,3.779528,0,0)"/>
<path style="fill:none;stroke-width:2;stroke-linecap:butt;stroke-linejoin:miter;stroke:rgb(0%,0%,0%);stroke-opacity:1;stroke-miterlimit:4;" d="M 291.49952 479.999642 L 271.499707 495.999699 L 261.00009 510.500106 L 282.99978 490.500293 " transform="matrix(3.779528,0,0,3.779528,0,0)"/>
<path style="fill:none;stroke-width:2;stroke-linecap:butt;stroke-linejoin:miter;stroke:rgb(0%,0%,0%);stroke-opacity:1;stroke-miterlimit:4;" d="M 278.499797 461.500513 L 262.49974 457.499723 " transform="matrix(3.779528,0,0,3.779528,0,0)"/>
<path style="fill:none;stroke-width:2;stroke-linecap:butt;stroke-linejoin:miter;stroke:rgb(0%,0%,0%);stroke-opacity:1;stroke-miterlimit:4;" d="M 257.999756 460.500057 L 273.999813 472.500358 L 284.000236 458.500179 L 277.999569 474.000008 L 265.500073 489.499837 L 251.499894 505.499894 " transform="matrix(3.779528,0,0,3.779528,0,0)"/>
<path style="fill:none;stroke-width:2;stroke-linecap:butt;stroke-linejoin:miter;stroke:rgb(0%,0%,0%);stroke-opacity:1;stroke-miterlimit:4;" d="M 220.000008 507.499772 L 182.500488 500.000488 L 146.499585 484.000431 L 142.499829 468.000374 L 142.499829 452.000317 L 130.000334 443.999772 L 114.000277 441.999894 L 107.999609 438.000138 L 107.999609 422.000081 L 105.999731 405.499797 L 107.999609 389.999967 L 107.999609 373.499683 L 112.000399 357.499626 L 112.000399 293.500431 L 114.000277 277.500374 L 118.000033 261.500317 L 101.999976 251.499894 L 101.999976 235.499837 L 111.500171 217.499902 L 125.50035 201.499845 L 135.999967 186.000016 L 142.499829 169.999959 L 150.500374 153.499674 L 158.499886 137.499618 L 168.500309 121.499561 L 184.000138 105.000309 L 211.500269 89.000252 L 249.500016 73.500423 L 245.50026 81.499935 L 230.000431 87.499569 L 214.000374 95.500114 L 198.000317 103.999854 L 182.00026 116.500382 " transform="matrix(3.779528,0,0,3.779528,0,0)"/>
<path style="fill:none;stroke-width:2;stroke-linecap:butt;stroke-linejoin:miter;stroke:rgb(0%,0%,0%);stroke-opacity:1;stroke-miterlimit:4;" d="M 182.999683 117.499805 L 209.500391 135.999967 L 225.999642 165.499976 " transform="matrix(3.779528,0,0,3.779528,0,0)"/>
<path style="fill:none;stroke-width:2;stroke-linecap:butt;stroke-linejoin:miter;stroke:rgb(0%,0%,0%);stroke-opacity:1;stroke-miterlimit:4;" d="M 210.499813 159.500342 L 190.5 155.99978 L 174.499943 132.500439 " transform="matrix(3.779528,0,0,3.779528,0,0)"/>
<path style="fill:none;stroke-width:2;stroke-linecap:butt;stroke-linejoin:miter;stroke:rgb(0%,0%,0%);stroke-opacity:1;stroke-miterlimit:4;" d="M 174.499943 130.999756 L 172.500065 147.500041 L 182.00026 153.499674 L 186.000016 169.499731 " transform="matrix(3.779528,0,0,3.779528,0,0)"/>
<path style="fill:none;stroke-width:2;stroke-linecap:butt;stroke-linejoin:miter;stroke:rgb(0%,0%,0%);stroke-opacity:1;stroke-miterlimit:4;" d="M 184.500366 160.499764 L 168.500309 141.000179 " transform="matrix(3.779528,0,0,3.779528,0,0)"/>
<path style="fill:none;stroke-width:2;stroke-linecap:butt;stroke-linejoin:miter;stroke:rgb(0%,0%,0%);stroke-opacity:1;stroke-miterlimit:4;" d="M 162.99987 152.000024 L 173.000293 167.499854 L 180.999805 183.49991 " transform="matrix(3.779528,0,0,3.779528,0,0)"/>
<path style="fill:none;stroke-width:2;stroke-linecap:butt;stroke-linejoin:miter;stroke:rgb(0%,0%,0%);stroke-opacity:1;stroke-miterlimit:4;" d="M 179.500155 181.500033 L 163.500098 155.99978 " transform="matrix(3.779528,0,0,3.779528,0,0)"/>
<path style="fill:none;stroke-width:2;stroke-linecap:butt;stroke-linejoin:miter;stroke:rgb(0%,0%,0%);stroke-opacity:1;stroke-miterlimit:4;" d="M 162.000448 153.00048 L 178.000505 168.999504 L 194.499756 189.00035 " transform="matrix(3.779528,0,0,3.779528,0,0)"/>
<path style="fill:none;stroke-width:2;stroke-linecap:butt;stroke-linejoin:miter;stroke:rgb(0%,0%,0%);stroke-opacity:1;stroke-miterlimit:4;" d="M 180.999805 196.999862 L 164.999748 182.999683 L 148.999691 180.999805 " transform="matrix(3.779528,0,0,3.779528,0,0)"/>
<path style="fill:none;stroke-width:2;stroke-linecap:butt;stroke-linejoin:miter;stroke:rgb(0%,0%,0%);stroke-opacity:1;stroke-miterlimit:4;" d="M 147.500041 176.499821 L 162.99987 142.499829 L 178.999927 122.500016 L 194.499756 139.999723 L 209.999585 135.999967 L 209.999585 151.499797 L 215.500024 157.500464 L 225.500448 185.499788 " transform="matrix(3.779528,0,0,3.779528,0,0)"/>
<path style="fill:none;stroke-width:2;stroke-linecap:butt;stroke-linejoin:miter;stroke:rgb(0%,0%,0%);stroke-opacity:1;stroke-miterlimit:4;" d="M 250.999666 182.500488 L 248.999788 198.000317 " transform="matrix(3.779528,0,0,3.779528,0,0)"/>
<path style="fill:none;stroke-width:2;stroke-linecap:butt;stroke-linejoin:miter;stroke:rgb(0%,0%,0%);stroke-opacity:1;stroke-miterlimit:4;" d="M 271.999935 166.999626 L 288.50022 154.50013 L 305.000505 144.999935 L 320.999528 132.999634 L 337.499813 112.999821 L 354.000098 95.500114 L 370.500382 91.00013 " transform="matrix(3.779528,0,0,3.779528,0,0)"/>
<path style="fill:none;stroke-width:2;stroke-linecap:butt;stroke-linejoin:miter;stroke:rgb(0%,0%,0%);stroke-opacity:1;stroke-miterlimit:4;" d="M 398.499707 80.500513 L 382.999878 94.999886 L 367.500049 85.000496 L 351.499992 93.000008 L 335.499935 92.49978 L 319.499878 78.499601 " transform="matrix(3.779528,0,0,3.779528,0,0)"/>
<path style="fill:none;stroke-width:2;stroke-linecap:butt;stroke-linejoin:miter;stroke:rgb(0%,0%,0%);stroke-opacity:1;stroke-miterlimit:4;" d="M 325.99974 71.000317 L 309.500488 55.00026 L 293.500431 66.999528 L 277.500374 72.499967 L 261.500317 75.000073 L 245.50026 76.499723 L 229.500203 82.500391 L 213.500146 90.499902 L 196.999862 98.00022 L 180.999805 107.999609 L 165.499976 125.999544 L 149.499919 151.499797 L 134.00009 187.499666 L 118.000033 211.000041 L 101.999976 228.999976 " transform="matrix(3.779528,0,0,3.779528,0,0)"/>
<path style="fill:none;stroke-width:2;stroke-linecap:butt;stroke-linejoin:miter;stroke:rgb(0%,0%,0%);stroke-opacity:1;stroke-miterlimit:4;" d="M 105.499504 234.000187 L 153.999902 234.000187 L 169.999959 234.500415 L 202.000073 234.500415 L 218.500358 234.000187 L 234.500415 234.000187 L 250.500472 233.499959 L 266.000301 234.000187 L 282.000358 234.000187 L 298.000415 236.000065 L 314.499666 236.000065 L 330.499723 238.500171 L 346.49978 237.999943 L 362.499837 238.500171 L 379.000122 240.500049 L 394.499951 241.000277 L 410.500008 240.500049 L 424.500187 236.500293 " transform="matrix(3.779528,0,0,3.779528,0,0)"/>
<path style="fill:none;stroke-width:2;stroke-linecap:butt;stroke-linejoin:miter;stroke:rgb(0%,0%,0%);stroke-opacity:1;stroke-miterlimit:4;" d="M 434.999805 239.499593 L 438.999561 255.49965 L 441.000472 271.499707 L 440.500244 287.499764 L 440.000016 302.999593 L 438.000138 318.99965 L 438.000138 351.499992 L 434.000382 368.000277 L 438.000138 384.499528 L 438.000138 416.000448 L 436.00026 431.500277 L 429.999593 447.500334 L 417.500098 463.500391 " transform="matrix(3.779528,0,0,3.779528,0,0)"/>
<path style="fill:none;stroke-width:2;stroke-linecap:butt;stroke-linejoin:miter;stroke:rgb(0%,0%,0%);stroke-opacity:1;stroke-miterlimit:4;" d="M 407.00048 384.999756 L 391.499618 384.999756 L 375.999788 383.500106 L 359.999731 383.500106 L 343.999674 381.500228 L 295.500309 381.500228 L 279.500252 379.50035 L 232.499504 379.50035 L 216.50048 377.500472 L 168.000081 377.500472 L 151.499797 375.999788 L 135.49974 375.999788 L 119.499683 373.99991 " transform="matrix(3.779528,0,0,3.779528,0,0)"/>
<path style="fill:none;stroke-width:2;stroke-linecap:butt;stroke-linejoin:miter;stroke:rgb(0%,0%,0%);stroke-opacity:1;stroke-miterlimit:4;" d="M 107.000187 371.499805 L 123.000244 365.500171 L 139.000301 368.000277 L 155.499552 368.500505 L 171.999837 368.500505 L 188.500122 370.999577 L 204.500179 370.500382 L 220.500236 370.500382 L 236.999487 372.50026 L 285.499886 372.50026 L 301.499943 373.000488 L 317.5 375.000366 L 332.999829 375.000366 L 348.499658 374.500138 L 364.499715 375.000366 L 380.499772 376.500016 L 396.499829 376.500016 L 408.50013 386.999634 L 412.499886 402.999691 L 412.499886 418.999748 L 411.999658 435.500033 L 409.99978 450.999862 " transform="matrix(3.779528,0,0,3.779528,0,0)"/>
<path style="fill:none;stroke-width:2;stroke-linecap:butt;stroke-linejoin:miter;stroke:rgb(0%,0%,0%);stroke-opacity:1;stroke-miterlimit:4;" d="M 286.500342 480.49987 L 273.999813 494.500049 L 249.500016 500.499683 L 261.500317 484.499626 L 266.000301 468.000374 L 257.999756 452.499512 " transform="matrix(3.779528,0,0,3.779528,0,0)"/>
<path style="fill:none;stroke-width:2;stroke-linecap:butt;stroke-linejoin:miter;stroke:rgb(0%,0%,0%);stroke-opacity:1;stroke-miterlimit:4;" d="M 196.999862 457.499723 L 180.999805 454.000195 " transform="matrix(3.779528,0,0,3.779528,0,0)"/>
<path style="fill:none;stroke-width:2;stroke-linecap:butt;stroke-linejoin:miter;stroke:rgb(0%,0%,0%);stroke-opacity:1;stroke-miterlimit:4;" d="M 187.499666 452.000317 L 201.499845 468.499569 L 217.499902 481.000098 L 233.499959 497.500382 L 248.999788 500.000488 " transform="matrix(3.779528,0,0,3.779528,0,0)"/>
<path style="fill:none;stroke-width:2;stroke-linecap:butt;stroke-linejoin:miter;stroke:rgb(0%,0%,0%);stroke-opacity:1;stroke-miterlimit:4;" d="M 178.000505 463.500391 L 162.000448 451.50009 " transform="matrix(3.779528,0,0,3.779528,0,0)"/>
<path style="fill:none;stroke-width:2;stroke-linecap:butt;stroke-linejoin:miter;stroke:rgb(0%,0%,0%);stroke-opacity:1;stroke-miterlimit:4;" d="M 156.500008 452.99974 L 169.999959 469.500024 L 189.999772 461.500513 L 205.999829 475.999886 L 218.500358 468.000374 L 234.500415 470.50048 L 250.500472 481.000098 " transform="matrix(3.779528,0,0,3.779528,0,0)"/>
<path style="fill:none;stroke-width:2;stroke-linecap:butt;stroke-linejoin:miter;stroke:rgb(0%,0%,0%);stroke-opacity:1;stroke-miterlimit:4;" d="M 176.499821 475.000464 L 160.499764 456.999495 " transform="matrix(3.779528,0,0,3.779528,0,0)"/>
<path style="fill:none;stroke-width:2;stroke-linecap:butt;stroke-linejoin:miter;stroke:rgb(0%,0%,0%);stroke-opacity:1;stroke-miterlimit:4;" d="M 153.499674 450.000439 L 149.499919 466.000496 L 155.499552 482.499748 " transform="matrix(3.779528,0,0,3.779528,0,0)"/>
<path style="fill:none;stroke-width:2;stroke-linecap:butt;stroke-linejoin:miter;stroke:rgb(0%,0%,0%);stroke-opacity:1;stroke-miterlimit:4;" d="M 153.00048 476.500114 L 168.999504 488.500415 L 184.999561 492.500171 " transform="matrix(3.779528,0,0,3.779528,0,0)"/>
<path style="fill:none;stroke-width:2;stroke-linecap:butt;stroke-linejoin:miter;stroke:rgb(0%,0%,0%);stroke-opacity:1;stroke-miterlimit:4;" d="M 211.500269 500.99991 L 207.999707 506.999544 L 191.99965 500.99991 L 176.499821 497.500382 L 160.499764 491.999943 L 144.499707 474.000008 " transform="matrix(3.779528,0,0,3.779528,0,0)"/>
<path style="fill:none;stroke-width:2;stroke-linecap:butt;stroke-linejoin:miter;stroke:rgb(0%,0%,0%);stroke-opacity:1;stroke-miterlimit:4;" d="M 161.50022 445.000228 L 171.499609 461.000285 L 179.500155 465.000041 L 193.500334 471.499902 L 219.49978 483.500203 L 233.499959 499.50026 L 254 504.000244 " transform="matrix(3.779528,0,0,3.779528,0,0)"/>
<path style="fill:none;stroke-width:2;stroke-linecap:butt;stroke-linejoin:miter;stroke:rgb(0%,0%,0%);stroke-opacity:1;stroke-miterlimit:4;" d="M 117.499805 277.000146 L 133.499862 268.999601 L 149.499919 270.000057 L 165.499976 270.500285 L 181.500033 270.500285 L 197.50009 273.000391 L 214.000374 272.500163 L 230.000431 272.500163 L 246.000488 271.999935 L 293.999626 271.999935 L 310.49991 273.499585 L 326.499967 273.999813 L 359.000309 273.999813 L 375.000366 274.500041 L 390.500195 276.499919 L 406.000024 275.999691 L 429.999593 266.000301 " transform="matrix(3.779528,0,0,3.779528,0,0)"/>
<path style="fill:none;stroke-width:2;stroke-linecap:butt;stroke-linejoin:miter;stroke:rgb(0%,0%,0%);stroke-opacity:1;stroke-miterlimit:4;" d="M 486.499504 266.499495 L 486.499504 274.500041 L 484.499626 290.500098 " transform="matrix(3.779528,0,0,3.779528,0,0)"/>
<path style="fill:none;stroke-width:2;stroke-linecap:butt;stroke-linejoin:miter;stroke:rgb(0%,0%,0%);stroke-opacity:1;stroke-miterlimit:4;" d="M 487.499959 289.499642 L 491.499715 273.499585 " transform="matrix(3.779528,0,0,3.779528,0,0)"/>
<path style="fill:none;stroke-width:2;stroke-linecap:butt;stroke-linejoin:miter;stroke:rgb(0%,0%,0%);stroke-opacity:1;stroke-miterlimit:4;" d="M 498.499805 316.00035 L 506.50035 304.000049 L 500.499683 318.000228 " transform="matrix(3.779528,0,0,3.779528,0,0)"/>
<path style="fill:none;stroke-width:2;stroke-linecap:butt;stroke-linejoin:miter;stroke:rgb(0%,0%,0%);stroke-opacity:1;stroke-miterlimit:4;" d="M 463.500391 220.500236 L 471.499902 203.999951 L 467.500146 214.000374 L 450.999862 218.00013 L 433.500155 221.999886 L 425.999837 230.000431 L 406.500252 234.500415 L 390.500195 234.500415 L 374.500138 234.999609 L 341.999797 234.999609 L 325.99974 232.499504 L 309.999683 232.499504 L 293.999626 230.499626 L 277.500374 230.000431 L 245.50026 230.000431 L 229.500203 229.500203 L 165.499976 229.500203 L 149.499919 227.500326 L 133.499862 227.000098 L 117.499805 227.500326 L 117.499805 220.000008 L 130.000334 203.999951 L 141.999601 188.500122 L 135.999967 205.999829 " transform="matrix(3.779528,0,0,3.779528,0,0)"/>
<path style="fill:none;stroke-width:2;stroke-linecap:butt;stroke-linejoin:miter;stroke:rgb(0%,0%,0%);stroke-opacity:1;stroke-miterlimit:4;" d="M 145.500163 196.000439 L 133.499862 212.000496 L 117.499805 221.999886 L 132.999634 202.000073 L 148.500496 187.499666 L 164.000326 191.99965 " transform="matrix(3.779528,0,0,3.779528,0,0)"/>
<path style="fill:none;stroke-width:2;stroke-linecap:butt;stroke-linejoin:miter;stroke:rgb(0%,0%,0%);stroke-opacity:1;stroke-miterlimit:4;" d="M 158.499886 200.500423 L 141.999601 206.500057 L 125.999544 216.50048 " transform="matrix(3.779528,0,0,3.779528,0,0)"/>
<path style="fill:none;stroke-width:2;stroke-linecap:butt;stroke-linejoin:miter;stroke:rgb(0%,0%,0%);stroke-opacity:1;stroke-miterlimit:4;" d="M 121.000366 222.500114 L 137.000423 216.50048 L 152.500252 211.000041 L 168.500309 205.000407 L 184.000138 203.499723 L 232.000309 203.499723 L 248.000366 205.499601 L 264.000423 205.499601 L 280.00048 197.50009 L 295.999504 202.000073 L 311.999561 206.500057 L 327.999618 208.499935 L 343.50048 209.999585 L 359.499504 216.000252 L 375.999788 214.000374 L 391.999845 211.500269 L 407.499674 221.000464 L 440.000016 207.000285 L 456.000073 200.999618 " transform="matrix(3.779528,0,0,3.779528,0,0)"/>
<path style="fill:none;stroke-width:2;stroke-linecap:butt;stroke-linejoin:miter;stroke:rgb(0%,0%,0%);stroke-opacity:1;stroke-miterlimit:4;" d="M 434.999805 207.999707 L 448.999984 223.999764 L 461.000285 239.499593 L 466.499691 255.49965 L 468.499569 271.999935 L 470.000252 287.999992 L 470.50048 304.000049 L 470.50048 384.000334 L 472.500358 399.500163 L 470.50048 415.50022 L 452.000317 431.000049 L 445.99965 443.499544 L 435.500033 449.500212 L 447.500334 451.50009 L 463.500391 441.999894 L 479.999642 429.999593 " transform="matrix(3.779528,0,0,3.779528,0,0)"/>
<path style="fill:none;stroke-width:2;stroke-linecap:butt;stroke-linejoin:miter;stroke:rgb(0%,0%,0%);stroke-opacity:1;stroke-miterlimit:4;" d="M 398.499707 180.000382 L 382.49965 165.499976 L 350.499536 137.499618 " transform="matrix(3.779528,0,0,3.779528,0,0)"/>
<path style="fill:none;stroke-width:2;stroke-linecap:butt;stroke-linejoin:miter;stroke:rgb(0%,0%,0%);stroke-opacity:1;stroke-miterlimit:4;" d="M 346.49978 140.499951 L 366.999821 156.500008 L 386.999634 172.500065 L 402.999691 188.500122 L 413.500342 207.999707 L 439.499788 213.500146 L 455.499845 228.999976 L 469.500024 248.999788 " transform="matrix(3.779528,0,0,3.779528,0,0)"/>
<path style="fill:none;stroke-width:2;stroke-linecap:butt;stroke-linejoin:miter;stroke:rgb(0%,0%,0%);stroke-opacity:1;stroke-miterlimit:4;" d="M 426.500065 275.999691 L 408.50013 268.500407 L 377.000244 268.500407 L 361.500415 266.499495 L 345.999552 266.499495 L 330.499723 264.499618 L 314.499666 264.000423 L 298.999837 263.500195 L 250.999666 263.500195 L 234.999609 261.999512 L 218.999552 261.500317 L 202.999495 261.500317 L 187.000472 261.00009 L 123.000244 261.00009 L 107.000187 264.999845 L 107.000187 234.000187 " transform="matrix(3.779528,0,0,3.779528,0,0)"/>
<path style="fill:none;stroke-width:2;stroke-linecap:butt;stroke-linejoin:miter;stroke:rgb(0%,0%,0%);stroke-opacity:1;stroke-miterlimit:4;" d="M 123.999666 269.499829 L 118.000033 285.499886 L 118.000033 364.999943 L 112.000399 384.999756 L 111.500171 401.500041 L 111.500171 417.500098 L 110.999943 433.500155 L 119.499683 447.999528 L 135.999967 449.500212 L 152.000024 447.000106 L 184.500366 447.000106 L 200.500423 448.999984 L 216.999674 451.50009 L 232.999731 451.50009 L 248.499561 452.99974 L 264.499618 452.99974 L 280.499674 453.499967 L 296.499731 454.999618 L 311.999561 454.500423 L 327.999618 454.999618 L 343.999674 456.999495 L 390.500195 456.999495 L 406.500252 459.499601 L 422.000081 447.500334 L 442.500122 437.49991 L 459.000407 427.499487 " transform="matrix(3.779528,0,0,3.779528,0,0)"/>
<path style="fill:none;stroke-width:2;stroke-linecap:butt;stroke-linejoin:miter;stroke:rgb(0%,0%,0%);stroke-opacity:1;stroke-miterlimit:4;" d="M 305.000505 195.500212 L 316.499544 179.500155 L 316.499544 163.500098 L 324.50009 147.500041 L 341.000374 132.000212 L 354.99952 116.500382 L 351.499992 110.499715 L 331.500179 102.500203 L 323.999862 87.000374 L 309.999683 71.000317 L 294.499854 75.000073 L 277.999569 78.999829 L 261.999512 80.999707 " transform="matrix(3.779528,0,0,3.779528,0,0)"/>
<path style="fill:none;stroke-width:2;stroke-linecap:butt;stroke-linejoin:miter;stroke:rgb(0%,0%,0%);stroke-opacity:1;stroke-miterlimit:4;" d="M 261.999512 90.499902 L 277.999569 109.000065 L 293.500431 132.999634 " transform="matrix(3.779528,0,0,3.779528,0,0)"/>
<path style="fill:none;stroke-width:2;stroke-linecap:butt;stroke-linejoin:miter;stroke:rgb(0%,0%,0%);stroke-opacity:1;stroke-miterlimit:4;" d="M 319.499878 105.499504 L 304.000049 87.499569 " transform="matrix(3.779528,0,0,3.779528,0,0)"/>
<path style="fill:none;stroke-width:2;stroke-linecap:butt;stroke-linejoin:miter;stroke:rgb(0%,0%,0%);stroke-opacity:1;stroke-miterlimit:4;" d="M 305.999927 84.000041 L 321.999984 100.000098 " transform="matrix(3.779528,0,0,3.779528,0,0)"/>
<path style="fill:none;stroke-width:2;stroke-linecap:butt;stroke-linejoin:miter;stroke:rgb(0%,0%,0%);stroke-opacity:1;stroke-miterlimit:4;" d="M 331.500179 100.000098 L 315.500122 85.999919 L 299.500065 82.000163 " transform="matrix(3.779528,0,0,3.779528,0,0)"/>
<path style="fill:none;stroke-width:2;stroke-linecap:butt;stroke-linejoin:miter;stroke:rgb(0%,0%,0%);stroke-opacity:1;stroke-miterlimit:4;" d="M 305.999927 75.999495 L 311.500366 91.999552 L 332.000407 108.499837 " transform="matrix(3.779528,0,0,3.779528,0,0)"/>
<path style="fill:none;stroke-width:2;stroke-linecap:butt;stroke-linejoin:miter;stroke:rgb(0%,0%,0%);stroke-opacity:1;stroke-miterlimit:4;" d="M 339.499691 123.500472 L 325.499512 139.499495 L 305.999927 155.499552 L 300.000293 155.99978 L 303.499821 157.999658 L 319.499878 146.000391 L 336.000163 130.000334 L 361.999609 143.500285 L 378.499894 155.499552 L 394.499951 169.499731 L 409.99978 183.49991 " transform="matrix(3.779528,0,0,3.779528,0,0)"/>
<path style="fill:none;stroke-width:2;stroke-linecap:butt;stroke-linejoin:miter;stroke:rgb(0%,0%,0%);stroke-opacity:1;stroke-miterlimit:4;" d="M 350.000342 150.500374 L 352.00022 166.500431 L 366.000399 182.00026 L 388.00009 198.000317 L 409.99978 225.500448 L 418.49952 241.000277 L 418.49952 257.499528 L 416.499642 282.000358 L 416.499642 298.499609 L 416.99987 314.499666 L 416.99987 363.000065 L 424.500187 370.500382 " transform="matrix(3.779528,0,0,3.779528,0,0)"/>
<path style="fill:none;stroke-width:2;stroke-linecap:butt;stroke-linejoin:miter;stroke:rgb(0%,0%,0%);stroke-opacity:1;stroke-miterlimit:4;" d="M 485.500081 177.500277 L 479.500448 161.50022 L 469.500024 144.999935 L 465.500269 128.999878 " transform="matrix(3.779528,0,0,3.779528,0,0)"/>
<path style="fill:none;stroke-width:2;stroke-linecap:butt;stroke-linejoin:miter;stroke:rgb(0%,0%,0%);stroke-opacity:1;stroke-miterlimit:4;" d="M 460.500057 104.500081 L 470.50048 120.500138 L 482.499748 136.500195 L 494.500049 152.500252 L 504.500472 168.500309 " transform="matrix(3.779528,0,0,3.779528,0,0)"/>
<path style="fill:none;stroke-width:2;stroke-linecap:butt;stroke-linejoin:miter;stroke:rgb(0%,0%,0%);stroke-opacity:1;stroke-miterlimit:4;" d="M 441.999894 119.499683 L 456.500301 103.499626 " transform="matrix(3.779528,0,0,3.779528,0,0)"/>
<path style="fill:none;stroke-width:2;stroke-linecap:butt;stroke-linejoin:miter;stroke:rgb(0%,0%,0%);stroke-opacity:1;stroke-miterlimit:4;" d="M 384.499528 44.000415 L 400.499585 28.000358 L 409.99978 12.000301 L 403.499919 23.999569 L 387.499862 39.999626 L 371.499805 44.000415 L 355.499748 39.999626 L 339.499691 35.499642 L 323.000439 28.000358 L 307.000382 12.000301 " transform="matrix(3.779528,0,0,3.779528,0,0)"/>
<path style="fill:none;stroke-width:2;stroke-linecap:butt;stroke-linejoin:miter;stroke:rgb(0%,0%,0%);stroke-opacity:1;stroke-miterlimit:4;" d="M 309.500488 5.000212 L 325.499512 16.500285 L 341.499569 19.000391 L 353.49987 21.000269 " transform="matrix(3.779528,0,0,3.779528,0,0)"/>
<path style="fill:none;stroke-width:2;stroke-linecap:butt;stroke-linejoin:miter;stroke:rgb(0%,0%,0%);stroke-opacity:1;stroke-miterlimit:4;" d="M 339.499691 5.500439 L 323.499634 3.499528 " transform="matrix(3.779528,0,0,3.779528,0,0)"/>
<path style="fill:none;stroke-width:2;stroke-linecap:butt;stroke-linejoin:miter;stroke:rgb(0%,0%,0%);stroke-opacity:1;stroke-miterlimit:4;" d="M 323.499634 1.000456 L 335.499935 5.000212 L 347.500236 10.999845 L 341.499569 19.499585 L 350.000342 5.999634 " transform="matrix(3.779528,0,0,3.779528,0,0)"/>
<path style="fill:none;stroke-width:2;stroke-linecap:butt;stroke-linejoin:miter;stroke:rgb(0%,0%,0%);stroke-opacity:1;stroke-miterlimit:4;" d="M 323.999862 35.499642 L 348.000464 51.499699 " transform="matrix(3.779528,0,0,3.779528,0,0)"/>
<path style="fill:none;stroke-width:2;stroke-linecap:butt;stroke-linejoin:miter;stroke:rgb(0%,0%,0%);stroke-opacity:1;stroke-miterlimit:4;" d="M 314.999894 59.000016 L 320.500334 75.000073 " transform="matrix(3.779528,0,0,3.779528,0,0)"/>
<path style="fill:none;stroke-width:2;stroke-linecap:butt;stroke-linejoin:miter;stroke:rgb(0%,0%,0%);stroke-opacity:1;stroke-miterlimit:4;" d="M 309.500488 80.500513 L 325.499512 96.499536 " transform="matrix(3.779528,0,0,3.779528,0,0)"/>
<path style="fill:none;stroke-width:2;stroke-linecap:butt;stroke-linejoin:miter;stroke:rgb(0%,0%,0%);stroke-opacity:1;stroke-miterlimit:4;" d="M 341.999797 85.999919 L 325.99974 75.999495 L 309.999683 67.999984 " transform="matrix(3.779528,0,0,3.779528,0,0)"/>
<path style="fill:none;stroke-width:2;stroke-linecap:butt;stroke-linejoin:miter;stroke:rgb(0%,0%,0%);stroke-opacity:1;stroke-miterlimit:4;" d="M 309.500488 55.500488 L 299.500065 71.499512 L 299.500065 87.499569 L 313.500244 103.000431 L 325.499512 119.000488 L 309.500488 134.500317 L 295.999504 150.500374 L 274.500041 166.000203 L 273.000391 182.00026 " transform="matrix(3.779528,0,0,3.779528,0,0)"/>
<path style="fill:none;stroke-width:2;stroke-linecap:butt;stroke-linejoin:miter;stroke:rgb(0%,0%,0%);stroke-opacity:1;stroke-miterlimit:4;" d="M 261.999512 157.999658 L 250.000244 173.999715 L 235.499837 189.999772 " transform="matrix(3.779528,0,0,3.779528,0,0)"/>
<path style="fill:none;stroke-width:2;stroke-linecap:butt;stroke-linejoin:miter;stroke:rgb(0%,0%,0%);stroke-opacity:1;stroke-miterlimit:4;" d="M 236.999487 169.499731 L 257.000334 153.499674 " transform="matrix(3.779528,0,0,3.779528,0,0)"/>
<path style="fill:none;stroke-width:2;stroke-linecap:butt;stroke-linejoin:miter;stroke:rgb(0%,0%,0%);stroke-opacity:1;stroke-miterlimit:4;" d="M 254.500228 164.49952 L 239.000399 164.49952 L 241.000277 148.500496 " transform="matrix(3.779528,0,0,3.779528,0,0)"/>
<path style="fill:none;stroke-width:2;stroke-linecap:butt;stroke-linejoin:miter;stroke:rgb(0%,0%,0%);stroke-opacity:1;stroke-miterlimit:4;" d="M 236.000065 148.500496 L 234.000187 164.999748 L 237.499715 194.999984 L 245.50026 196.499634 " transform="matrix(3.779528,0,0,3.779528,0,0)"/>
<path style="fill:none;stroke-width:2;stroke-linecap:butt;stroke-linejoin:miter;stroke:rgb(0%,0%,0%);stroke-opacity:1;stroke-miterlimit:4;" d="M 189.00035 186.000016 L 178.499699 169.999959 L 168.999504 153.499674 " transform="matrix(3.779528,0,0,3.779528,0,0)"/>
<path style="fill:none;stroke-width:2;stroke-linecap:butt;stroke-linejoin:miter;stroke:rgb(0%,0%,0%);stroke-opacity:1;stroke-miterlimit:4;" d="M 178.499699 132.500439 L 187.000472 148.500496 L 194.999984 164.999748 " transform="matrix(3.779528,0,0,3.779528,0,0)"/>
<path style="fill:none;stroke-width:2;stroke-linecap:butt;stroke-linejoin:miter;stroke:rgb(0%,0%,0%);stroke-opacity:1;stroke-miterlimit:4;" d="M 207.000285 150.500374 L 212.999919 166.500431 L 216.999674 168.500309 " transform="matrix(3.779528,0,0,3.779528,0,0)"/>
<path style="fill:none;stroke-width:2;stroke-linecap:butt;stroke-linejoin:miter;stroke:rgb(0%,0%,0%);stroke-opacity:1;stroke-miterlimit:4;" d="M 213.500146 135.49974 L 219.49978 151.499797 L 225.999642 167.499854 L 216.000252 183.49991 L 243.999577 177.500277 L 259.999634 169.499731 L 277.999569 155.499552 L 293.999626 137.499618 " transform="matrix(3.779528,0,0,3.779528,0,0)"/>
<path style="fill:none;stroke-width:2;stroke-linecap:butt;stroke-linejoin:miter;stroke:rgb(0%,0%,0%);stroke-opacity:1;stroke-miterlimit:4;" d="M 281.50013 132.500439 L 265.500073 98.500448 " transform="matrix(3.779528,0,0,3.779528,0,0)"/>
<path style="fill:none;stroke-width:2;stroke-linecap:butt;stroke-linejoin:miter;stroke:rgb(0%,0%,0%);stroke-opacity:1;stroke-miterlimit:4;" d="M 265.500073 90.499902 L 273.499585 106.499959 L 282.99978 122.500016 L 293.000203 138.500073 L 296.499731 144.000513 L 312.499788 132.000212 " transform="matrix(3.779528,0,0,3.779528,0,0)"/>
<path style="fill:none;stroke-width:2;stroke-linecap:butt;stroke-linejoin:miter;stroke:rgb(0%,0%,0%);stroke-opacity:1;stroke-miterlimit:4;" d="M 260.499862 90.499902 L 268.999601 106.499959 L 277.000146 122.500016 L 280.999902 137.999845 L 279.000024 153.999902 L 266.999723 169.499731 L 262.999967 185.499788 L 255.000456 191.000228 L 255.49965 182.999683 " transform="matrix(3.779528,0,0,3.779528,0,0)"/>
<path style="fill:none;stroke-width:2;stroke-linecap:butt;stroke-linejoin:miter;stroke:rgb(0%,0%,0%);stroke-opacity:1;stroke-miterlimit:4;" d="M 203.999951 171.499609 L 191.000228 139.499495 L 178.999927 123.999666 " transform="matrix(3.779528,0,0,3.779528,0,0)"/>
<path style="fill:none;stroke-width:2;stroke-linecap:butt;stroke-linejoin:miter;stroke:rgb(0%,0%,0%);stroke-opacity:1;stroke-miterlimit:4;" d="M 186.000016 123.000244 L 198.000317 139.000301 L 203.499723 155.000358 L 207.500513 171.000415 L 199.499967 189.00035 L 199.499967 198.99974 L 214.999797 196.499634 L 230.999854 180.499577 L 247.500138 162.000448 " transform="matrix(3.779528,0,0,3.779528,0,0)"/>
<path style="fill:none;stroke-width:2;stroke-linecap:butt;stroke-linejoin:miter;stroke:rgb(0%,0%,0%);stroke-opacity:1;stroke-miterlimit:4;" d="M 223.999764 175.500399 L 207.999707 183.49991 L 182.00026 197.50009 L 159.500342 180.999805 L 148.999691 164.999748 L 157.000236 149.499919 L 166.999626 133.499862 L 180.999805 118.000033 L 198.99974 102.500203 L 230.999854 86.500146 " transform="matrix(3.779528,0,0,3.779528,0,0)"/>
<path style="fill:none;stroke-width:2;stroke-linecap:butt;stroke-linejoin:miter;stroke:rgb(0%,0%,0%);stroke-opacity:1;stroke-miterlimit:4;" d="M 331.500179 33.499764 L 316.999772 17.499707 L 309.00026 1.49965 " transform="matrix(3.779528,0,0,3.779528,0,0)"/>
<path style="fill:none;stroke-width:2;stroke-linecap:butt;stroke-linejoin:miter;stroke:rgb(0%,0%,0%);stroke-opacity:1;stroke-miterlimit:4;" d="M 429.999593 1.49965 L 429.999593 17.499707 L 429.500399 33.499764 L 445.500456 49.499821 L 455.499845 65.499878 L 461.999707 82.000163 L 470.000252 97.499992 L 474.000008 113.500049 L 484.000431 119.99991 L 491.999943 132.000212 L 500.000488 144.499707 L 504.000244 160.499764 L 509.999878 162.000448 L 509.999878 175.999593 " transform="matrix(3.779528,0,0,3.779528,0,0)"/>
</g>
</svg>
