<?xml version="1.0" encoding="UTF-8"?>
<svg xmlns="http://www.w3.org/2000/svg" xmlns:xlink="http://www.w3.org/1999/xlink" width="1935.11811" height="1935.11811" viewBox="0 0 1935.11811 1935.11811" version="1.1">
<g id="surface1">
<path style="fill:none;stroke-width:2;stroke-linecap:butt;stroke-linejoin:miter;stroke:rgb(0%,0%,0%);stroke-opacity:1;stroke-miterlimit:4;" d="M 209.500391 30.500464 L 197.50009 46.499487 L 191.500456 62.499544 L 185.499788 78.499601 L 179.500155 94.999886 L 175.500399 110.999943 L 175.500399 127 L 173.499487 143.000057 L 168.999504 159.000114 L 166.999626 174.499943 L 184.500366 168.500309 L 200.999618 138.500073 L 211.000041 100.500326 " transform="matrix(3.779528,0,0,3.779528,0,0)"/>
<path style="fill:none;stroke-width:2;stroke-linecap:butt;stroke-linejoin:miter;stroke:rgb(0%,0%,0%);stroke-opacity:1;stroke-miterlimit:4;" d="M 208.499935 132.500439 L 224.499992 132.500439 L 230.499626 150.500374 L 203.999951 166.500431 L 202.000073 182.500488 L 200.500423 198.499512 L 210.499813 207.999707 L 208.499935 235.499837 L 202.500301 251.499894 L 198.499512 267.499951 L 192.499878 283.500008 L 184.500366 299.500065 L 206.500057 273.499585 L 208.499935 261.500317 L 224.499992 257.499528 L 239.999821 257.499528 L 255.999878 259.500439 L 271.999935 263.500195 L 304.000049 267.499951 L 320.000106 271.499707 L 336.500391 275.500496 L 352.500448 279.500252 L 368.000277 280.00048 L 384.000334 268.000179 L 399.500163 257.999756 L 415.50022 264.000423 L 432.000505 278.499797 " transform="matrix(3.779528,0,0,3.779528,0,0)"/>
<path style="fill:none;stroke-width:2;stroke-linecap:butt;stroke-linejoin:miter;stroke:rgb(0%,0%,0%);stroke-opacity:1;stroke-miterlimit:4;" d="M 441.499666 266.499495 L 425.499609 258.499984 " transform="matrix(3.779528,0,0,3.779528,0,0)"/>
<path style="fill:none;stroke-width:2;stroke-linecap:butt;stroke-linejoin:miter;stroke:rgb(0%,0%,0%);stroke-opacity:1;stroke-miterlimit:4;" d="M 422.000081 259.500439 L 436.00026 255.000456 L 456.000073 271.000513 L 453.499967 286.999536 L 435.500033 302.999593 L 405.499797 322.500212 L 379.50035 338.500269 L 345.500358 354.000098 L 323.999862 369.499927 L 319.499878 385.499984 L 333.500057 401.500041 L 357.499626 423.499731 L 343.999674 439.499788 L 325.99974 455.499845 L 325.99974 456.000073 L 341.999797 441.999894 " transform="matrix(3.779528,0,0,3.779528,0,0)"/>
<path style="fill:none;stroke-width:2;stroke-linecap:butt;stroke-linejoin:miter;stroke:rgb(0%,0%,0%);stroke-opacity:1;stroke-miterlimit:4;" d="M 373.000488 434.000382 L 357.499626 445.99965 L 341.499569 458.500179 L 363.000065 450.000439 L 378.499894 447.999528 L 382.000456 441.499666 L 391.499618 435.500033 L 401.500041 418.999748 L 409.499552 409.000358 L 427.499487 393.499495 L 433.500155 377.500472 L 438.999561 361.500415 L 434.999805 387.499862 " transform="matrix(3.779528,0,0,3.779528,0,0)"/>
<path style="fill:none;stroke-width:2;stroke-linecap:butt;stroke-linejoin:miter;stroke:rgb(0%,0%,0%);stroke-opacity:1;stroke-miterlimit:4;" d="M 457.999951 384.999756 L 459.999829 368.999699 L 475.999886 345.00013 L 480.49987 357.499626 L 496.499927 353.49987 L 506.50035 349.500114 L 504.999666 363.500293 " transform="matrix(3.779528,0,0,3.779528,0,0)"/>
<path style="fill:none;stroke-width:2;stroke-linecap:butt;stroke-linejoin:miter;stroke:rgb(0%,0%,0%);stroke-opacity:1;stroke-miterlimit:4;" d="M 508.500228 371.499805 L 506.50035 393.499495 L 498.499805 379.999544 L 490.000065 393.999723 L 481.500326 416.000448 L 461.000285 425.999837 L 468.499569 429.999593 L 482.499748 414.499764 L 477.000342 407.999902 L 482.999976 391.999845 L 500.99991 388.500317 L 502.499561 379.999544 L 506.50035 368.500505 L 504.500472 352.500448 L 494.500049 336.999585 L 496.499927 329.000073 L 502.999788 313.000016 L 500.99991 323.499634 " transform="matrix(3.779528,0,0,3.779528,0,0)"/>
<path style="fill:none;stroke-width:2;stroke-linecap:butt;stroke-linejoin:miter;stroke:rgb(0%,0%,0%);stroke-opacity:1;stroke-miterlimit:4;" d="M 511.999756 311.500366 L 506.000122 331.500179 L 506.000122 343.50048 " transform="matrix(3.779528,0,0,3.779528,0,0)"/>
<path style="fill:none;stroke-width:2;stroke-linecap:butt;stroke-linejoin:miter;stroke:rgb(0%,0%,0%);stroke-opacity:1;stroke-miterlimit:4;" d="M 495.999699 372.000033 L 493.999821 363.999487 L 477.999764 370.000155 " transform="matrix(3.779528,0,0,3.779528,0,0)"/>
<path style="fill:none;stroke-width:2;stroke-linecap:butt;stroke-linejoin:miter;stroke:rgb(0%,0%,0%);stroke-opacity:1;stroke-miterlimit:4;" d="M 457.499723 357.000431 L 466.999919 361.000187 L 454.999618 377.000244 L 448.999984 395.500407 L 466.499691 411.500464 L 479.00022 427.499487 L 488.999609 413.999536 L 486.999731 420.000203 " transform="matrix(3.779528,0,0,3.779528,0,0)"/>
<path style="fill:none;stroke-width:2;stroke-linecap:butt;stroke-linejoin:miter;stroke:rgb(0%,0%,0%);stroke-opacity:1;stroke-miterlimit:4;" d="M 493.999821 405.499797 L 500.000488 421.499854 L 490.000065 436.999683 " transform="matrix(3.779528,0,0,3.779528,0,0)"/>
<path style="fill:none;stroke-width:2;stroke-linecap:butt;stroke-linejoin:miter;stroke:rgb(0%,0%,0%);stroke-opacity:1;stroke-miterlimit:4;" d="M 448.499756 437.49991 L 454.999618 427.499487 L 454.500423 411.500464 L 464.499813 403.499919 L 474.000008 387.499862 L 484.000431 383.500106 L 469.500024 391.499618 L 452.99974 404.999569 " transform="matrix(3.779528,0,0,3.779528,0,0)"/>
<path style="fill:none;stroke-width:2;stroke-linecap:butt;stroke-linejoin:miter;stroke:rgb(0%,0%,0%);stroke-opacity:1;stroke-miterlimit:4;" d="M 437.49991 418.000326 L 431.500277 433.500155 L 431.500277 441.499666 L 415.50022 441.499666 " transform="matrix(3.779528,0,0,3.779528,0,0)"/>
<path style="fill:none;stroke-width:2;stroke-linecap:butt;stroke-linejoin:miter;stroke:rgb(0%,0%,0%);stroke-opacity:1;stroke-miterlimit:4;" d="M 437.49991 418.000326 L 453.499967 441.999894 L 469.500024 447.999528 L 484.999854 441.499666 L 505.499894 413.500342 " transform="matrix(3.779528,0,0,3.779528,0,0)"/>
<path style="fill:none;stroke-width:2;stroke-linecap:butt;stroke-linejoin:miter;stroke:rgb(0%,0%,0%);stroke-opacity:1;stroke-miterlimit:4;" d="M 506.50035 397.000057 L 508.500228 413.000114 L 502.499561 429.000171 L 492.500171 445.500456 " transform="matrix(3.779528,0,0,3.779528,0,0)"/>
<path style="fill:none;stroke-width:2;stroke-linecap:butt;stroke-linejoin:miter;stroke:rgb(0%,0%,0%);stroke-opacity:1;stroke-miterlimit:4;" d="M 420.500431 371.499805 L 404.500374 373.499683 " transform="matrix(3.779528,0,0,3.779528,0,0)"/>
<path style="fill:none;stroke-width:2;stroke-linecap:butt;stroke-linejoin:miter;stroke:rgb(0%,0%,0%);stroke-opacity:1;stroke-miterlimit:4;" d="M 384.000334 352.500448 L 400.499585 352.00022 L 416.000448 343.999674 L 431.500277 334.000285 L 447.500334 323.999862 L 463.000163 316.00035 L 479.00022 305.999927 " transform="matrix(3.779528,0,0,3.779528,0,0)"/>
<path style="fill:none;stroke-width:2;stroke-linecap:butt;stroke-linejoin:miter;stroke:rgb(0%,0%,0%);stroke-opacity:1;stroke-miterlimit:4;" d="M 488.000187 286.999536 L 479.999642 284.999658 L 464.499813 282.499552 L 447.999528 300.499487 L 431.500277 311.999561 L 415.50022 316.00035 L 399.500163 327.999618 L 382.999878 336.000163 L 367.500049 343.50048 L 350.999764 351.499992 L 334.500513 357.499626 L 318.000228 375.499561 " transform="matrix(3.779528,0,0,3.779528,0,0)"/>
<path style="fill:none;stroke-width:2;stroke-linecap:butt;stroke-linejoin:miter;stroke:rgb(0%,0%,0%);stroke-opacity:1;stroke-miterlimit:4;" d="M 311.000138 337.499813 L 327.000195 337.499813 " transform="matrix(3.779528,0,0,3.779528,0,0)"/>
<path style="fill:none;stroke-width:2;stroke-linecap:butt;stroke-linejoin:miter;stroke:rgb(0%,0%,0%);stroke-opacity:1;stroke-miterlimit:4;" d="M 316.00035 329.500301 L 332.000407 327.500423 L 348.000464 325.499512 L 363.999487 323.499634 L 379.999544 307.499577 L 393.999723 298.000415 " transform="matrix(3.779528,0,0,3.779528,0,0)"/>
<path style="fill:none;stroke-width:2;stroke-linecap:butt;stroke-linejoin:miter;stroke:rgb(0%,0%,0%);stroke-opacity:1;stroke-miterlimit:4;" d="M 411.000236 295.500309 L 395.000179 273.499585 " transform="matrix(3.779528,0,0,3.779528,0,0)"/>
<path style="fill:none;stroke-width:2;stroke-linecap:butt;stroke-linejoin:miter;stroke:rgb(0%,0%,0%);stroke-opacity:1;stroke-miterlimit:4;" d="M 397.500285 271.999935 L 409.499552 287.999992 " transform="matrix(3.779528,0,0,3.779528,0,0)"/>
<path style="fill:none;stroke-width:2;stroke-linecap:butt;stroke-linejoin:miter;stroke:rgb(0%,0%,0%);stroke-opacity:1;stroke-miterlimit:4;" d="M 404.999569 275.999691 L 388.999512 271.999935 " transform="matrix(3.779528,0,0,3.779528,0,0)"/>
<path style="fill:none;stroke-width:2;stroke-linecap:butt;stroke-linejoin:miter;stroke:rgb(0%,0%,0%);stroke-opacity:1;stroke-miterlimit:4;" d="M 391.499618 266.999723 L 401.500041 282.99978 L 399.500163 300.999715 L 401.500041 317.5 L 375.499561 333.500057 L 341.499569 349.500114 L 320.000106 366.000399 L 309.999683 382.49965 L 323.999862 398.999935 L 332.000407 414.999992 L 329.999495 431.000049 L 318.000228 447.000106 " transform="matrix(3.779528,0,0,3.779528,0,0)"/>
<path style="fill:none;stroke-width:2;stroke-linecap:butt;stroke-linejoin:miter;stroke:rgb(0%,0%,0%);stroke-opacity:1;stroke-miterlimit:4;" d="M 325.499512 445.99965 L 335.499935 430.499821 L 319.499878 444.5 L 303.499821 456.500301 L 287.499764 461.999707 L 271.499707 457.999951 L 255.49965 446.499878 " transform="matrix(3.779528,0,0,3.779528,0,0)"/>
<path style="fill:none;stroke-width:2;stroke-linecap:butt;stroke-linejoin:miter;stroke:rgb(0%,0%,0%);stroke-opacity:1;stroke-miterlimit:4;" d="M 268.500407 389.999967 L 271.000513 382.49965 L 277.000146 380.499772 L 261.00009 392.500073 L 245.50026 384.499528 " transform="matrix(3.779528,0,0,3.779528,0,0)"/>
<path style="fill:none;stroke-width:2;stroke-linecap:butt;stroke-linejoin:miter;stroke:rgb(0%,0%,0%);stroke-opacity:1;stroke-miterlimit:4;" d="M 248.999788 377.000244 L 252.999544 393.000301 L 257.000334 409.000358 L 252.50035 424.500187 L 246.000488 440.000016 " transform="matrix(3.779528,0,0,3.779528,0,0)"/>
<path style="fill:none;stroke-width:2;stroke-linecap:butt;stroke-linejoin:miter;stroke:rgb(0%,0%,0%);stroke-opacity:1;stroke-miterlimit:4;" d="M 255.999878 448.999984 L 241.999699 434.999805 L 225.500448 444.5 L 209.500391 446.499878 L 193.000106 445.99965 L 177.000049 445.99965 L 160.999992 441.999894 L 144.999935 440.000016 L 128.999878 432.000505 L 112.999821 418.000326 L 81.499935 418.000326 L 65.499878 425.999837 L 50.000049 429.999593 L 34.50022 440.000016 L 18.500163 441.499666 " transform="matrix(3.779528,0,0,3.779528,0,0)"/>
<path style="fill:none;stroke-width:2;stroke-linecap:butt;stroke-linejoin:miter;stroke:rgb(0%,0%,0%);stroke-opacity:1;stroke-miterlimit:4;" d="M 13.499951 441.499666 L 29.500008 435.500033 " transform="matrix(3.779528,0,0,3.779528,0,0)"/>
<path style="fill:none;stroke-width:2;stroke-linecap:butt;stroke-linejoin:miter;stroke:rgb(0%,0%,0%);stroke-opacity:1;stroke-miterlimit:4;" d="M 72.499967 425.499609 L 88.500024 423.499731 L 105.000309 423.499731 L 121.000366 429.500399 " transform="matrix(3.779528,0,0,3.779528,0,0)"/>
<path style="fill:none;stroke-width:2;stroke-linecap:butt;stroke-linejoin:miter;stroke:rgb(0%,0%,0%);stroke-opacity:1;stroke-miterlimit:4;" d="M 116.500382 438.000138 L 100.000098 434.000382 L 84.000041 427.999715 " transform="matrix(3.779528,0,0,3.779528,0,0)"/>
<path style="fill:none;stroke-width:2;stroke-linecap:butt;stroke-linejoin:miter;stroke:rgb(0%,0%,0%);stroke-opacity:1;stroke-miterlimit:4;" d="M 112.999821 390.500195 L 111.500171 374.500138 " transform="matrix(3.779528,0,0,3.779528,0,0)"/>
<path style="fill:none;stroke-width:2;stroke-linecap:butt;stroke-linejoin:miter;stroke:rgb(0%,0%,0%);stroke-opacity:1;stroke-miterlimit:4;" d="M 123.500472 359.999731 L 119.499683 375.999788 L 117.499805 391.999845 L 123.999666 409.499552 L 140.499951 403.499919 L 156.500008 397.500285 L 172.500065 393.499495 L 188.500122 391.499618 L 203.999951 389.49974 L 219.49978 389.49974 L 235.499837 385.499984 L 251.499894 397.500285 L 267.499951 389.49974 " transform="matrix(3.779528,0,0,3.779528,0,0)"/>
<path style="fill:none;stroke-width:2;stroke-linecap:butt;stroke-linejoin:miter;stroke:rgb(0%,0%,0%);stroke-opacity:1;stroke-miterlimit:4;" d="M 239.999821 375.999788 L 255.49965 370.000155 L 271.499707 368.000277 L 286.999536 368.000277 L 302.500399 371.499805 L 318.000228 369.499927 L 334.000285 353.49987 L 350.000342 345.500358 L 365.500171 337.499813 L 381 331.500179 L 397.000057 321.499756 " transform="matrix(3.779528,0,0,3.779528,0,0)"/>
<path style="fill:none;stroke-width:2;stroke-linecap:butt;stroke-linejoin:miter;stroke:rgb(0%,0%,0%);stroke-opacity:1;stroke-miterlimit:4;" d="M 366.499593 300.000293 L 350.499536 295.999504 L 334.000285 291.999748 " transform="matrix(3.779528,0,0,3.779528,0,0)"/>
<path style="fill:none;stroke-width:2;stroke-linecap:butt;stroke-linejoin:miter;stroke:rgb(0%,0%,0%);stroke-opacity:1;stroke-miterlimit:4;" d="M 327.000195 298.499609 L 343.000252 302.500399 L 359.000309 305.999927 " transform="matrix(3.779528,0,0,3.779528,0,0)"/>
<path style="fill:none;stroke-width:2;stroke-linecap:butt;stroke-linejoin:miter;stroke:rgb(0%,0%,0%);stroke-opacity:1;stroke-miterlimit:4;" d="M 357.999854 309.999683 L 341.999797 305.499699 L 325.499512 301.499943 " transform="matrix(3.779528,0,0,3.779528,0,0)"/>
<path style="fill:none;stroke-width:2;stroke-linecap:butt;stroke-linejoin:miter;stroke:rgb(0%,0%,0%);stroke-opacity:1;stroke-miterlimit:4;" d="M 323.999862 285.499886 L 339.999919 287.499764 L 355.999976 291.999748 L 372.000033 293.999626 L 395.999601 294.499854 L 411.999658 306.500155 L 427.999715 306.500155 L 443.999772 296.499731 " transform="matrix(3.779528,0,0,3.779528,0,0)"/>
<path style="fill:none;stroke-width:2;stroke-linecap:butt;stroke-linejoin:miter;stroke:rgb(0%,0%,0%);stroke-opacity:1;stroke-miterlimit:4;" d="M 427.499487 311.000138 L 451.50009 294.499854 L 465.500269 277.999569 " transform="matrix(3.779528,0,0,3.779528,0,0)"/>
<path style="fill:none;stroke-width:2;stroke-linecap:butt;stroke-linejoin:miter;stroke:rgb(0%,0%,0%);stroke-opacity:1;stroke-miterlimit:4;" d="M 472.00013 273.499585 L 456.000073 259.500439 L 440.000016 245.000033 " transform="matrix(3.779528,0,0,3.779528,0,0)"/>
<path style="fill:none;stroke-width:2;stroke-linecap:butt;stroke-linejoin:miter;stroke:rgb(0%,0%,0%);stroke-opacity:1;stroke-miterlimit:4;" d="M 426.500065 243.000155 L 442.500122 243.000155 L 457.999951 248.999788 L 474.000008 252.999544 L 489.499837 241.000277 " transform="matrix(3.779528,0,0,3.779528,0,0)"/>
<path style="fill:none;stroke-width:2;stroke-linecap:butt;stroke-linejoin:miter;stroke:rgb(0%,0%,0%);stroke-opacity:1;stroke-miterlimit:4;" d="M 463.500391 255.999878 L 437.49991 230.000431 L 452.000317 214.000374 L 438.000138 227.99952 " transform="matrix(3.779528,0,0,3.779528,0,0)"/>
<path style="fill:none;stroke-width:2;stroke-linecap:butt;stroke-linejoin:miter;stroke:rgb(0%,0%,0%);stroke-opacity:1;stroke-miterlimit:4;" d="M 436.500488 178.999927 L 420.500431 160.999992 " transform="matrix(3.779528,0,0,3.779528,0,0)"/>
<path style="fill:none;stroke-width:2;stroke-linecap:butt;stroke-linejoin:miter;stroke:rgb(0%,0%,0%);stroke-opacity:1;stroke-miterlimit:4;" d="M 418.49952 156.500008 L 425.000415 172.500065 L 431.000049 180.499577 " transform="matrix(3.779528,0,0,3.779528,0,0)"/>
<path style="fill:none;stroke-width:2;stroke-linecap:butt;stroke-linejoin:miter;stroke:rgb(0%,0%,0%);stroke-opacity:1;stroke-miterlimit:4;" d="M 434.999805 178.499699 L 427.000293 162.499642 " transform="matrix(3.779528,0,0,3.779528,0,0)"/>
<path style="fill:none;stroke-width:2;stroke-linecap:butt;stroke-linejoin:miter;stroke:rgb(0%,0%,0%);stroke-opacity:1;stroke-miterlimit:4;" d="M 415.50022 148.500496 L 432.000505 152.500252 L 447.999528 154.50013 L 464.499813 158.499886 L 480.49987 164.49952 L 497.000155 178.000505 " transform="matrix(3.779528,0,0,3.779528,0,0)"/>
<path style="fill:none;stroke-width:2;stroke-linecap:butt;stroke-linejoin:miter;stroke:rgb(0%,0%,0%);stroke-opacity:1;stroke-miterlimit:4;" d="M 490.999487 180.499577 L 475.000464 168.500309 L 459.000407 162.000448 L 443.00035 157.999658 L 427.000293 155.499552 L 411.000236 153.499674 " transform="matrix(3.779528,0,0,3.779528,0,0)"/>
<path style="fill:none;stroke-width:2;stroke-linecap:butt;stroke-linejoin:miter;stroke:rgb(0%,0%,0%);stroke-opacity:1;stroke-miterlimit:4;" d="M 407.499674 141.999601 L 391.999845 147.500041 L 375.999788 161.50022 L 359.999731 161.50022 L 343.999674 149.499919 L 329.999495 131.499984 L 311.999561 145.500163 L 295.999504 151.499797 L 285.499886 163.500098 L 301.499943 147.500041 " transform="matrix(3.779528,0,0,3.779528,0,0)"/>
<path style="fill:none;stroke-width:2;stroke-linecap:butt;stroke-linejoin:miter;stroke:rgb(0%,0%,0%);stroke-opacity:1;stroke-miterlimit:4;" d="M 304.000049 141.500407 L 282.499552 157.500464 L 282.499552 173.499487 L 286.500342 189.999772 L 312.499788 164.000326 L 322.500212 169.999959 " transform="matrix(3.779528,0,0,3.779528,0,0)"/>
<path style="fill:none;stroke-width:2;stroke-linecap:butt;stroke-linejoin:miter;stroke:rgb(0%,0%,0%);stroke-opacity:1;stroke-miterlimit:4;" d="M 318.99965 169.499731 L 308.500033 173.999715 L 296.999959 189.999772 L 295.000081 205.999829 L 314.999894 221.999886 " transform="matrix(3.779528,0,0,3.779528,0,0)"/>
<path style="fill:none;stroke-width:2;stroke-linecap:butt;stroke-linejoin:miter;stroke:rgb(0%,0%,0%);stroke-opacity:1;stroke-miterlimit:4;" d="M 295.500309 214.999797 L 273.499585 214.499569 L 268.000179 218.00013 L 268.000179 203.999951 L 252.000122 203.999951 L 235.499837 193.500334 L 225.500448 195.500212 L 223.499536 179.500155 L 220.000008 171.000415 " transform="matrix(3.779528,0,0,3.779528,0,0)"/>
<path style="fill:none;stroke-width:2;stroke-linecap:butt;stroke-linejoin:miter;stroke:rgb(0%,0%,0%);stroke-opacity:1;stroke-miterlimit:4;" d="M 208.499935 169.999959 L 224.499992 157.999658 L 222.500114 169.999959 L 220.000008 186.000016 L 234.000187 204.500179 L 259.999634 218.500358 L 286.000114 234.500415 " transform="matrix(3.779528,0,0,3.779528,0,0)"/>
<path style="fill:none;stroke-width:2;stroke-linecap:butt;stroke-linejoin:miter;stroke:rgb(0%,0%,0%);stroke-opacity:1;stroke-miterlimit:4;" d="M 282.99978 237.499715 L 295.000081 253.499772 " transform="matrix(3.779528,0,0,3.779528,0,0)"/>
<path style="fill:none;stroke-width:2;stroke-linecap:butt;stroke-linejoin:miter;stroke:rgb(0%,0%,0%);stroke-opacity:1;stroke-miterlimit:4;" d="M 298.000415 255.000456 L 282.000358 243.500382 " transform="matrix(3.779528,0,0,3.779528,0,0)"/>
<path style="fill:none;stroke-width:2;stroke-linecap:butt;stroke-linejoin:miter;stroke:rgb(0%,0%,0%);stroke-opacity:1;stroke-miterlimit:4;" d="M 279.500252 243.000155 L 295.999504 248.999788 L 311.999561 264.499618 L 327.999618 270.000057 L 344.499902 271.999935 L 360.499959 275.500496 L 376.500016 273.499585 L 393.000301 253.499772 L 384.999756 269.499829 L 387.499862 284.999658 L 409.499552 300.999715 " transform="matrix(3.779528,0,0,3.779528,0,0)"/>
<path style="fill:none;stroke-width:2;stroke-linecap:butt;stroke-linejoin:miter;stroke:rgb(0%,0%,0%);stroke-opacity:1;stroke-miterlimit:4;" d="M 376.500016 305.000505 L 361.000187 316.999772 L 345.00013 314.999894 L 328.499845 311.500366 L 312.499788 315.500122 " transform="matrix(3.779528,0,0,3.779528,0,0)"/>
<path style="fill:none;stroke-width:2;stroke-linecap:butt;stroke-linejoin:miter;stroke:rgb(0%,0%,0%);stroke-opacity:1;stroke-miterlimit:4;" d="M 338.500269 320.500334 L 322.500212 318.500456 L 320.500334 305.000505 L 324.50009 289.000448 L 302.000171 279.000024 L 286.000114 277.000146 L 269.499829 272.500163 L 253.499772 268.500407 L 236.999487 264.000423 L 221.000464 266.000301 " transform="matrix(3.779528,0,0,3.779528,0,0)"/>
<path style="fill:none;stroke-width:2;stroke-linecap:butt;stroke-linejoin:miter;stroke:rgb(0%,0%,0%);stroke-opacity:1;stroke-miterlimit:4;" d="M 206.500057 265.500073 L 223.000342 265.500073 L 227.000098 273.499585 L 216.999674 287.499764 L 225.00022 277.500374 L 228.999976 269.499829 L 232.999731 283.500008 L 248.499561 289.499642 L 264.499618 279.500252 L 261.00009 293.500431 L 277.000146 289.499642 L 268.999601 279.500252 L 258.499984 283.500008 L 255.999878 273.000391 L 236.000065 280.999902 L 220.000008 297.500187 L 235.499837 298.999837 L 250.999666 300.999715 " transform="matrix(3.779528,0,0,3.779528,0,0)"/>
<path style="fill:none;stroke-width:2;stroke-linecap:butt;stroke-linejoin:miter;stroke:rgb(0%,0%,0%);stroke-opacity:1;stroke-miterlimit:4;" d="M 262.49974 327.500423 L 240.500049 309.500488 L 223.999764 314.999894 L 205.999829 314.999894 L 189.999772 313.000016 L 173.999715 313.000016 L 157.999658 314.999894 L 141.999601 314.999894 L 125.999544 311.500366 L 123.500472 303.499821 L 123.500472 287.999992 L 115.499927 271.999935 L 121.499561 255.49965 L 115.499927 241.500505 L 105.000309 225.500448 L 98.999642 203.499723 L 99.49987 187.499666 L 101.499748 171.499609 L 101.999976 155.000358 L 102.500203 139.000301 L 100.500326 123.000244 L 100.500326 107.000187 L 96.499536 91.500358 L 100.500326 85.499691 L 84.500269 71.499512 " transform="matrix(3.779528,0,0,3.779528,0,0)"/>
<path style="fill:none;stroke-width:2;stroke-linecap:butt;stroke-linejoin:miter;stroke:rgb(0%,0%,0%);stroke-opacity:1;stroke-miterlimit:4;" d="M 87.499569 69.000439 L 83.499813 85.000496 L 83.499813 117.499805 L 85.999919 134.00009 L 84.000041 150.500374 L 82.000163 166.500431 L 82.000163 198.499512 L 82.500391 214.499569 L 89.000252 234.500415 L 76.999951 246.499683 L 66.500334 262.49974 L 92.49978 256.500106 L 88.500024 272.500163 L 100.500326 270.500285 L 108.499837 270.000057 L 109.999487 273.999813 " transform="matrix(3.779528,0,0,3.779528,0,0)"/>
<path style="fill:none;stroke-width:2;stroke-linecap:butt;stroke-linejoin:miter;stroke:rgb(0%,0%,0%);stroke-opacity:1;stroke-miterlimit:4;" d="M 111.500171 282.499552 L 95.500114 284.500464 L 79.500057 286.500342 L 63.5 264.999845 " transform="matrix(3.779528,0,0,3.779528,0,0)"/>
<path style="fill:none;stroke-width:2;stroke-linecap:butt;stroke-linejoin:miter;stroke:rgb(0%,0%,0%);stroke-opacity:1;stroke-miterlimit:4;" d="M 50.000049 274.500041 L 69.999862 275.999691 L 75.500301 292.499976 L 77.500179 308.500033 " transform="matrix(3.779528,0,0,3.779528,0,0)"/>
<path style="fill:none;stroke-width:2;stroke-linecap:butt;stroke-linejoin:miter;stroke:rgb(0%,0%,0%);stroke-opacity:1;stroke-miterlimit:4;" d="M 98.00022 301.499943 L 89.999674 291.999748 L 75.999495 302.000171 L 60.000472 288.50022 L 44.000415 276.499919 " transform="matrix(3.779528,0,0,3.779528,0,0)"/>
<path style="fill:none;stroke-width:2;stroke-linecap:butt;stroke-linejoin:miter;stroke:rgb(0%,0%,0%);stroke-opacity:1;stroke-miterlimit:4;" d="M 25.500252 262.49974 L 9.500195 257.000334 " transform="matrix(3.779528,0,0,3.779528,0,0)"/>
<path style="fill:none;stroke-width:2;stroke-linecap:butt;stroke-linejoin:miter;stroke:rgb(0%,0%,0%);stroke-opacity:1;stroke-miterlimit:4;" d="M 16.500285 238.500171 L 0 232.999731 " transform="matrix(3.779528,0,0,3.779528,0,0)"/>
<path style="fill:none;stroke-width:2;stroke-linecap:butt;stroke-linejoin:miter;stroke:rgb(0%,0%,0%);stroke-opacity:1;stroke-miterlimit:4;" d="M 5.000212 232.000309 L 10.999845 257.499528 L 14.999601 259.000212 L 3.000334 268.999601 L 44.999837 268.999601 L 60.999894 279.000024 L 80.999707 271.499707 L 91.00013 275.500496 " transform="matrix(3.779528,0,0,3.779528,0,0)"/>
<path style="fill:none;stroke-width:2;stroke-linecap:butt;stroke-linejoin:miter;stroke:rgb(0%,0%,0%);stroke-opacity:1;stroke-miterlimit:4;" d="M 96.000342 287.999992 L 91.500358 304.000049 L 96.999764 309.500488 L 107.000187 317.5 " transform="matrix(3.779528,0,0,3.779528,0,0)"/>
<path style="fill:none;stroke-width:2;stroke-linecap:butt;stroke-linejoin:miter;stroke:rgb(0%,0%,0%);stroke-opacity:1;stroke-miterlimit:4;" d="M 152.000024 298.000415 L 168.000081 300.000293 L 184.500366 300.000293 L 208.499935 286.000114 " transform="matrix(3.779528,0,0,3.779528,0,0)"/>
<path style="fill:none;stroke-width:2;stroke-linecap:butt;stroke-linejoin:miter;stroke:rgb(0%,0%,0%);stroke-opacity:1;stroke-miterlimit:4;" d="M 207.999707 255.000456 L 223.999764 252.999544 L 239.499593 252.50035 L 255.49965 255.000456 L 271.000513 257.499528 L 286.500342 261.500317 L 302.500399 264.000423 " transform="matrix(3.779528,0,0,3.779528,0,0)"/>
<path style="fill:none;stroke-width:2;stroke-linecap:butt;stroke-linejoin:miter;stroke:rgb(0%,0%,0%);stroke-opacity:1;stroke-miterlimit:4;" d="M 286.500342 275.000269 L 284.000236 291.49952 L 311.999561 281.50013 L 309.999683 298.000415 L 308.500033 320.000106 L 294.499854 336.500391 L 258.499984 352.999642 L 230.000431 368.999699 L 209.500391 384.999756 L 225.500448 384.499528 L 241.500505 380.499772 L 257.499528 374.500138 L 273.499585 372.50026 L 289.499642 374.500138 L 305.499699 377.999666 L 321.999984 386.000212 L 338.500269 404.000146 L 354.500326 415.50022 L 370.500382 411.999658 L 386.999634 398.000513 L 402.999691 368.000277 L 418.999748 359.999731 L 434.999805 354.000098 L 447.000106 348.000464 L 463.000163 332.000407 L 479.00022 323.999862 L 495.000277 307.999805 L 511.000334 293.999626 " transform="matrix(3.779528,0,0,3.779528,0,0)"/>
<path style="fill:none;stroke-width:2;stroke-linecap:butt;stroke-linejoin:miter;stroke:rgb(0%,0%,0%);stroke-opacity:1;stroke-miterlimit:4;" d="M 511.499528 298.000415 L 503.500016 298.000415 L 497.000155 312.499788 L 466.999919 328.499845 L 449.500212 344.499902 L 435.500033 344.499902 L 401.500041 360.499959 L 381.500228 375.999788 L 383.500106 372.000033 L 405.499797 357.999854 L 422.000081 349.500114 L 437.49991 343.50048 " transform="matrix(3.779528,0,0,3.779528,0,0)"/>
<path style="fill:none;stroke-width:2;stroke-linecap:butt;stroke-linejoin:miter;stroke:rgb(0%,0%,0%);stroke-opacity:1;stroke-miterlimit:4;" d="M 427.000293 352.500448 L 402.999691 368.500505 L 398.499707 393.000301 L 382.49965 409.000358 L 363.999487 425.499609 L 347.500236 441.499666 L 335.499935 457.499723 L 343.999674 461.500513 L 359.999731 451.50009 L 375.999788 445.500456 L 391.999845 441.499666 L 393.999723 434.000382 L 409.99978 428.499943 L 425.999837 426.500065 " transform="matrix(3.779528,0,0,3.779528,0,0)"/>
<path style="fill:none;stroke-width:2;stroke-linecap:butt;stroke-linejoin:miter;stroke:rgb(0%,0%,0%);stroke-opacity:1;stroke-miterlimit:4;" d="M 399.500163 401.500041 L 405.499797 384.000334 L 393.499495 400.000391 L 377.500472 413.999536 L 361.999609 428.499943 L 345.999552 444.5 L 330.499723 459.000407 L 362.499837 443.00035 L 374.500138 427.000293 L 384.000334 400.999813 L 393.999723 384.999756 L 393.999723 368.999699 L 404.000146 350.999764 L 432.000505 334.999707 L 458.500179 318.500456 L 486.499504 302.500399 L 495.000277 298.499609 L 482.999976 280.499674 L 461.000285 266.499495 L 443.00035 250.500472 L 411.000236 244.499805 L 394.499951 234.500415 L 378.499894 224.499992 " transform="matrix(3.779528,0,0,3.779528,0,0)"/>
<path style="fill:none;stroke-width:2;stroke-linecap:butt;stroke-linejoin:miter;stroke:rgb(0%,0%,0%);stroke-opacity:1;stroke-miterlimit:4;" d="M 379.000122 216.000252 L 393.000301 232.000309 L 402.999691 247.500138 L 416.499642 265.500073 " transform="matrix(3.779528,0,0,3.779528,0,0)"/>
<path style="fill:none;stroke-width:2;stroke-linecap:butt;stroke-linejoin:miter;stroke:rgb(0%,0%,0%);stroke-opacity:1;stroke-miterlimit:4;" d="M 454.999618 266.499495 L 438.999561 254 L 422.999504 250.000244 L 410.500008 253.499772 L 404.500374 231.500081 L 388.500317 221.000464 L 372.50026 214.999797 " transform="matrix(3.779528,0,0,3.779528,0,0)"/>
<path style="fill:none;stroke-width:2;stroke-linecap:butt;stroke-linejoin:miter;stroke:rgb(0%,0%,0%);stroke-opacity:1;stroke-miterlimit:4;" d="M 391.999845 196.499634 L 376.500016 184.500366 " transform="matrix(3.779528,0,0,3.779528,0,0)"/>
<path style="fill:none;stroke-width:2;stroke-linecap:butt;stroke-linejoin:miter;stroke:rgb(0%,0%,0%);stroke-opacity:1;stroke-miterlimit:4;" d="M 354.500326 200.500423 L 338.500269 205.999829 L 323.000439 218.00013 L 307.499577 213.500146 L 291.999748 202.000073 " transform="matrix(3.779528,0,0,3.779528,0,0)"/>
<path style="fill:none;stroke-width:2;stroke-linecap:butt;stroke-linejoin:miter;stroke:rgb(0%,0%,0%);stroke-opacity:1;stroke-miterlimit:4;" d="M 295.500309 214.000374 L 309.500488 230.000431 " transform="matrix(3.779528,0,0,3.779528,0,0)"/>
<path style="fill:none;stroke-width:2;stroke-linecap:butt;stroke-linejoin:miter;stroke:rgb(0%,0%,0%);stroke-opacity:1;stroke-miterlimit:4;" d="M 291.49952 230.000431 L 285.499886 223.999764 L 277.000146 218.00013 L 279.500252 202.000073 L 280.00048 186.000016 L 278.499797 170.500187 L 254.500228 158.499886 L 238.500171 159.000114 " transform="matrix(3.779528,0,0,3.779528,0,0)"/>
<path style="fill:none;stroke-width:2;stroke-linecap:butt;stroke-linejoin:miter;stroke:rgb(0%,0%,0%);stroke-opacity:1;stroke-miterlimit:4;" d="M 260.499862 160.499764 L 275.999691 166.000203 " transform="matrix(3.779528,0,0,3.779528,0,0)"/>
<path style="fill:none;stroke-width:2;stroke-linecap:butt;stroke-linejoin:miter;stroke:rgb(0%,0%,0%);stroke-opacity:1;stroke-miterlimit:4;" d="M 306.500155 176.499821 L 290.500098 196.499634 L 298.999837 178.499699 L 311.000138 162.499642 " transform="matrix(3.779528,0,0,3.779528,0,0)"/>
<path style="fill:none;stroke-width:2;stroke-linecap:butt;stroke-linejoin:miter;stroke:rgb(0%,0%,0%);stroke-opacity:1;stroke-miterlimit:4;" d="M 314.499666 141.999601 L 298.000415 145.500163 L 282.000358 157.500464 L 266.000301 157.500464 L 250.000244 151.499797 L 234.000187 149.499919 L 218.00013 155.000358 L 202.500301 168.999504 " transform="matrix(3.779528,0,0,3.779528,0,0)"/>
<path style="fill:none;stroke-width:2;stroke-linecap:butt;stroke-linejoin:miter;stroke:rgb(0%,0%,0%);stroke-opacity:1;stroke-miterlimit:4;" d="M 207.999707 193.000106 L 205.999829 177.000049 L 220.000008 161.50022 L 224.499992 137.000423 L 208.499935 137.000423 " transform="matrix(3.779528,0,0,3.779528,0,0)"/>
<path style="fill:none;stroke-width:2;stroke-linecap:butt;stroke-linejoin:miter;stroke:rgb(0%,0%,0%);stroke-opacity:1;stroke-miterlimit:4;" d="M 211.000041 116.500382 L 189.00035 156.500008 L 173.000293 180.499577 L 168.999504 196.499634 L 173.000293 180.499577 L 182.500488 164.49952 L 192.499878 148.500496 L 200.500423 132.500439 L 204.500179 116.500382 L 212.499691 100.500326 L 218.500358 84.500269 L 221.999886 68.500212 L 226.49987 52.500155 L 230.499626 35.99987 L 218.500358 31.499886 L 202.500301 37.000326 L 186.000016 72.499967 " transform="matrix(3.779528,0,0,3.779528,0,0)"/>
<path style="fill:none;stroke-width:2;stroke-linecap:butt;stroke-linejoin:miter;stroke:rgb(0%,0%,0%);stroke-opacity:1;stroke-miterlimit:4;" d="M 183.49991 82.999585 L 198.99974 59.500244 L 214.999797 35.99987 L 210.499813 37.999748 L 200.000195 53.999805 L 193.500334 70.50009 L 187.499666 86.500146 L 181.500033 102.500203 L 179.500155 118.50026 L 180.000382 136.500195 L 176.499821 152.500252 " transform="matrix(3.779528,0,0,3.779528,0,0)"/>
<path style="fill:none;stroke-width:2;stroke-linecap:butt;stroke-linejoin:miter;stroke:rgb(0%,0%,0%);stroke-opacity:1;stroke-miterlimit:4;" d="M 151.499797 171.499609 L 150.000146 155.000358 L 150.000146 139.000301 L 148.000269 123.000244 L 145.500163 106.499959 L 145.500163 90.499902 L 155.99978 78.999829 L 139.999723 75.000073 " transform="matrix(3.779528,0,0,3.779528,0,0)"/>
<path style="fill:none;stroke-width:2;stroke-linecap:butt;stroke-linejoin:miter;stroke:rgb(0%,0%,0%);stroke-opacity:1;stroke-miterlimit:4;" d="M 140.499951 77.500179 L 150.500374 83.499813 L 153.00048 99.49987 " transform="matrix(3.779528,0,0,3.779528,0,0)"/>
<path style="fill:none;stroke-width:2;stroke-linecap:butt;stroke-linejoin:miter;stroke:rgb(0%,0%,0%);stroke-opacity:1;stroke-miterlimit:4;" d="M 160.999992 105.999731 L 159.000114 90.499902 L 146.999813 74.499845 " transform="matrix(3.779528,0,0,3.779528,0,0)"/>
<path style="fill:none;stroke-width:2;stroke-linecap:butt;stroke-linejoin:miter;stroke:rgb(0%,0%,0%);stroke-opacity:1;stroke-miterlimit:4;" d="M 125.000122 76.499723 L 128.999878 92.49978 L 128.999878 107.999609 L 130.999756 123.500472 L 132.999634 139.499495 L 134.999512 155.000358 L 137.499618 171.000415 L 137.999845 187.499666 L 137.999845 203.499723 L 153.999902 207.500513 " transform="matrix(3.779528,0,0,3.779528,0,0)"/>
<path style="fill:none;stroke-width:2;stroke-linecap:butt;stroke-linejoin:miter;stroke:rgb(0%,0%,0%);stroke-opacity:1;stroke-miterlimit:4;" d="M 150.000146 241.500505 L 166.000203 241.500505 L 182.00026 239.999821 L 196.499634 241.999699 L 184.500366 248.000366 L 182.500488 257.999756 " transform="matrix(3.779528,0,0,3.779528,0,0)"/>
<path style="fill:none;stroke-width:2;stroke-linecap:butt;stroke-linejoin:miter;stroke:rgb(0%,0%,0%);stroke-opacity:1;stroke-miterlimit:4;" d="M 206.500057 254 L 214.499569 234.000187 L 207.999707 250.000244 L 186.000016 259.500439 L 189.999772 269.499829 L 198.000317 295.500309 L 214.000374 289.000448 L 210.499813 277.500374 L 226.49987 291.49952 L 243.000155 287.499764 L 245.000033 273.999813 L 264.999845 275.999691 L 280.999902 283.500008 L 284.999658 291.000326 L 300.499487 284.999658 " transform="matrix(3.779528,0,0,3.779528,0,0)"/>
<path style="fill:none;stroke-width:2;stroke-linecap:butt;stroke-linejoin:miter;stroke:rgb(0%,0%,0%);stroke-opacity:1;stroke-miterlimit:4;" d="M 305.999927 257.499528 L 286.000114 241.500505 " transform="matrix(3.779528,0,0,3.779528,0,0)"/>
<path style="fill:none;stroke-width:2;stroke-linecap:butt;stroke-linejoin:miter;stroke:rgb(0%,0%,0%);stroke-opacity:1;stroke-miterlimit:4;" d="M 316.999772 227.99952 L 336.999585 212.499691 " transform="matrix(3.779528,0,0,3.779528,0,0)"/>
<path style="fill:none;stroke-width:2;stroke-linecap:butt;stroke-linejoin:miter;stroke:rgb(0%,0%,0%);stroke-opacity:1;stroke-miterlimit:4;" d="M 343.999674 202.000073 L 321.999984 218.00013 " transform="matrix(3.779528,0,0,3.779528,0,0)"/>
<path style="fill:none;stroke-width:2;stroke-linecap:butt;stroke-linejoin:miter;stroke:rgb(0%,0%,0%);stroke-opacity:1;stroke-miterlimit:4;" d="M 268.999601 217.499902 L 250.999666 201.499845 " transform="matrix(3.779528,0,0,3.779528,0,0)"/>
<path style="fill:none;stroke-width:2;stroke-linecap:butt;stroke-linejoin:miter;stroke:rgb(0%,0%,0%);stroke-opacity:1;stroke-miterlimit:4;" d="M 169.499731 253.499772 L 153.00048 249.500016 " transform="matrix(3.779528,0,0,3.779528,0,0)"/>
<path style="fill:none;stroke-width:2;stroke-linecap:butt;stroke-linejoin:miter;stroke:rgb(0%,0%,0%);stroke-opacity:1;stroke-miterlimit:4;" d="M 150.999569 254 L 182.999683 261.999512 " transform="matrix(3.779528,0,0,3.779528,0,0)"/>
<path style="fill:none;stroke-width:2;stroke-linecap:butt;stroke-linejoin:miter;stroke:rgb(0%,0%,0%);stroke-opacity:1;stroke-miterlimit:4;" d="M 179.500155 248.499561 L 163.500098 248.000366 L 147.500041 252.000122 " transform="matrix(3.779528,0,0,3.779528,0,0)"/>
<path style="fill:none;stroke-width:2;stroke-linecap:butt;stroke-linejoin:miter;stroke:rgb(0%,0%,0%);stroke-opacity:1;stroke-miterlimit:4;" d="M 136.500195 252.999544 L 152.500252 263.500195 " transform="matrix(3.779528,0,0,3.779528,0,0)"/>
<path style="fill:none;stroke-width:2;stroke-linecap:butt;stroke-linejoin:miter;stroke:rgb(0%,0%,0%);stroke-opacity:1;stroke-miterlimit:4;" d="M 132.500439 257.499528 L 148.500496 268.000179 L 171.999837 282.000358 " transform="matrix(3.779528,0,0,3.779528,0,0)"/>
<path style="fill:none;stroke-width:2;stroke-linecap:butt;stroke-linejoin:miter;stroke:rgb(0%,0%,0%);stroke-opacity:1;stroke-miterlimit:4;" d="M 191.99965 327.000195 L 171.999837 343.000252 L 155.99978 359.499504 L 141.500407 375.499561 L 129.500106 391.999845 L 107.000187 407.999902 L 125.000122 402.000269 L 141.500407 398.499707 L 157.500464 392.500073 L 173.499487 388.500317 L 189.499544 386.999634 L 205.499601 386.500439 L 221.499658 373.000488 L 237.499715 364.999943 L 254 354.99952 L 270.000057 348.999886 L 286.000114 342.500024 L 302.500399 329.999495 L 318.500456 323.499634 L 334.500513 323.499634 " transform="matrix(3.779528,0,0,3.779528,0,0)"/>
<path style="fill:none;stroke-width:2;stroke-linecap:butt;stroke-linejoin:miter;stroke:rgb(0%,0%,0%);stroke-opacity:1;stroke-miterlimit:4;" d="M 328.499845 341.999797 L 312.499788 346.49978 L 296.499731 350.499536 L 280.499674 352.999642 L 264.499618 357.000431 L 248.999788 364.999943 L 232.999731 373.499683 L 216.999674 381 L 245.000033 366.999821 L 262.999967 339.000496 L 252.000122 323.000439 L 237.999943 304.500277 L 222.500114 302.500399 L 206.500057 302.000171 L 191.000228 304.000049 L 175.500399 305.499699 L 159.999536 305.999927 L 151.499797 295.500309 L 159.500342 279.500252 L 151.499797 263.500195 L 133.499862 241.500505 L 128.999878 239.499593 L 134.999512 215.500024 L 128.49965 200.000195 L 124.499894 184.000138 L 121.999788 168.500309 L 103.999854 160.999992 " transform="matrix(3.779528,0,0,3.779528,0,0)"/>
<path style="fill:none;stroke-width:2;stroke-linecap:butt;stroke-linejoin:miter;stroke:rgb(0%,0%,0%);stroke-opacity:1;stroke-miterlimit:4;" d="M 127 166.000203 L 128.999878 181.500033 L 132.999634 197.50009 " transform="matrix(3.779528,0,0,3.779528,0,0)"/>
<path style="fill:none;stroke-width:2;stroke-linecap:butt;stroke-linejoin:miter;stroke:rgb(0%,0%,0%);stroke-opacity:1;stroke-miterlimit:4;" d="M 148.000269 189.499544 L 148.000269 173.499487 L 146.000391 157.500464 L 146.000391 141.500407 L 141.000179 109.500293 L 138.500073 94.000464 L 140.499951 78.499601 L 121.000366 74.499845 " transform="matrix(3.779528,0,0,3.779528,0,0)"/>
<path style="fill:none;stroke-width:2;stroke-linecap:butt;stroke-linejoin:miter;stroke:rgb(0%,0%,0%);stroke-opacity:1;stroke-miterlimit:4;" d="M 123.000244 75.000073 L 124.499894 91.00013 L 125.000122 107.000187 L 126.499772 123.000244 L 128.49965 138.500073 L 130.000334 154.50013 L 132.500439 170.500187 L 134.999512 186.000016 L 143.500285 212.000496 L 157.500464 229.500203 L 173.499487 221.999886 L 189.499544 220.000008 " transform="matrix(3.779528,0,0,3.779528,0,0)"/>
<path style="fill:none;stroke-width:2;stroke-linecap:butt;stroke-linejoin:miter;stroke:rgb(0%,0%,0%);stroke-opacity:1;stroke-miterlimit:4;" d="M 123.999666 228.499748 L 107.999609 214.000374 " transform="matrix(3.779528,0,0,3.779528,0,0)"/>
<path style="fill:none;stroke-width:2;stroke-linecap:butt;stroke-linejoin:miter;stroke:rgb(0%,0%,0%);stroke-opacity:1;stroke-miterlimit:4;" d="M 123.500472 263.500195 L 121.499561 279.500252 L 117.499805 295.500309 " transform="matrix(3.779528,0,0,3.779528,0,0)"/>
<path style="fill:none;stroke-width:2;stroke-linecap:butt;stroke-linejoin:miter;stroke:rgb(0%,0%,0%);stroke-opacity:1;stroke-miterlimit:4;" d="M 114.999699 307.499577 L 98.500448 307.499577 L 98.500448 313.500244 L 82.500391 323.999862 L 66.000106 327.999618 L 49.499821 331.500179 L 32.999536 327.500423 L 17.000513 311.500366 L 1.000456 300.999715 " transform="matrix(3.779528,0,0,3.779528,0,0)"/>
<path style="fill:none;stroke-width:2;stroke-linecap:butt;stroke-linejoin:miter;stroke:rgb(0%,0%,0%);stroke-opacity:1;stroke-miterlimit:4;" d="M 1.49965 298.000415 L 17.499707 304.000049 L 33.499764 320.000106 L 49.499821 316.00035 L 57.500366 309.500488 L 53.999805 325.000317 L 67.999984 321.499756 " transform="matrix(3.779528,0,0,3.779528,0,0)"/>
<path style="fill:none;stroke-width:2;stroke-linecap:butt;stroke-linejoin:miter;stroke:rgb(0%,0%,0%);stroke-opacity:1;stroke-miterlimit:4;" d="M 47.499943 348.999886 L 37.49952 364.999943 L 33.499764 382.000456 L 37.49952 366.499593 L 47.499943 364.499715 L 63.5 368.999699 L 80.000285 370.500382 L 96.000342 366.499593 L 112.000399 368.000277 L 127.500228 359.999731 L 144.000513 359.999731 L 159.999536 348.000464 L 176.499821 335.499935 L 192.499878 327.999618 " transform="matrix(3.779528,0,0,3.779528,0,0)"/>
<path style="fill:none;stroke-width:2;stroke-linecap:butt;stroke-linejoin:miter;stroke:rgb(0%,0%,0%);stroke-opacity:1;stroke-miterlimit:4;" d="M 183.49991 329.999495 L 161.50022 345.999552 L 146.000391 363.999487 L 134.00009 379.999544 L 132.000212 398.499707 L 116.000155 414.499764 L 130.000334 434.499577 " transform="matrix(3.779528,0,0,3.779528,0,0)"/>
<path style="fill:none;stroke-width:2;stroke-linecap:butt;stroke-linejoin:miter;stroke:rgb(0%,0%,0%);stroke-opacity:1;stroke-miterlimit:4;" d="M 138.500073 375.000366 L 123.000244 394.499951 L 106.499959 410.500008 L 90.499902 411.999658 L 74.499845 412.499886 L 58.499788 411.999658 L 41.999504 407.999902 L 26.00048 402.000269 L 10.000423 384.000334 " transform="matrix(3.779528,0,0,3.779528,0,0)"/>
<path style="fill:none;stroke-width:2;stroke-linecap:butt;stroke-linejoin:miter;stroke:rgb(0%,0%,0%);stroke-opacity:1;stroke-miterlimit:4;" d="M 14.000179 379.50035 L 30.000236 398.000513 " transform="matrix(3.779528,0,0,3.779528,0,0)"/>
<path style="fill:none;stroke-width:2;stroke-linecap:butt;stroke-linejoin:miter;stroke:rgb(0%,0%,0%);stroke-opacity:1;stroke-miterlimit:4;" d="M 50.000049 370.000155 L 37.999748 386.500439 L 44.000415 373.99991 L 59.500244 372.000033 L 75.500301 381.500228 L 91.500358 370.999577 L 107.500415 371.499805 L 131.499984 363.500293 " transform="matrix(3.779528,0,0,3.779528,0,0)"/>
<path style="fill:none;stroke-width:2;stroke-linecap:butt;stroke-linejoin:miter;stroke:rgb(0%,0%,0%);stroke-opacity:1;stroke-miterlimit:4;" d="M 62.00035 366.499593 L 82.000163 376.500016 L 78.499601 392.500073 L 76.499723 416.99987 L 104.500081 434.999805 " transform="matrix(3.779528,0,0,3.779528,0,0)"/>
<path style="fill:none;stroke-width:2;stroke-linecap:butt;stroke-linejoin:miter;stroke:rgb(0%,0%,0%);stroke-opacity:1;stroke-miterlimit:4;" d="M 68.500212 403.499919 L 72.499967 388.00009 L 56.49991 372.000033 " transform="matrix(3.779528,0,0,3.779528,0,0)"/>
<path style="fill:none;stroke-width:2;stroke-linecap:butt;stroke-linejoin:miter;stroke:rgb(0%,0%,0%);stroke-opacity:1;stroke-miterlimit:4;" d="M 30.000236 339.999919 L 14.000179 357.999854 " transform="matrix(3.779528,0,0,3.779528,0,0)"/>
<path style="fill:none;stroke-width:2;stroke-linecap:butt;stroke-linejoin:miter;stroke:rgb(0%,0%,0%);stroke-opacity:1;stroke-miterlimit:4;" d="M 7.00009 361.999609 L 23.000146 338.000041 " transform="matrix(3.779528,0,0,3.779528,0,0)"/>
<path style="fill:none;stroke-width:2;stroke-linecap:butt;stroke-linejoin:miter;stroke:rgb(0%,0%,0%);stroke-opacity:1;stroke-miterlimit:4;" d="M 36.500098 336.000163 L 26.499674 320.500334 L 4.499984 304.500277 " transform="matrix(3.779528,0,0,3.779528,0,0)"/>
<path style="fill:none;stroke-width:2;stroke-linecap:butt;stroke-linejoin:miter;stroke:rgb(0%,0%,0%);stroke-opacity:1;stroke-miterlimit:4;" d="M 3.499528 298.000415 L 26.999902 314.000472 L 39.000203 329.500301 L 14.999601 353.49987 L 10.999845 369.499927 L 12.499495 385.499984 L 32.500342 397.500285 L 48.500399 403.499919 L 64.500456 405.499797 L 91.00013 405.499797 L 107.000187 395.000179 L 123.000244 397.500285 L 139.000301 379.50035 L 153.499674 361.500415 L 169.999959 345.999552 L 186.500244 336.000163 " transform="matrix(3.779528,0,0,3.779528,0,0)"/>
<path style="fill:none;stroke-width:2;stroke-linecap:butt;stroke-linejoin:miter;stroke:rgb(0%,0%,0%);stroke-opacity:1;stroke-miterlimit:4;" d="M 215.500024 320.999528 L 231.500081 309.00026 L 221.499658 313.000016 L 205.499601 323.000439 L 189.499544 320.500334 L 157.500464 320.500334 L 141.500407 322.500212 L 125.50035 321.999984 L 109.500293 323.999862 L 93.000008 323.999862 L 81.499935 314.000472 L 78.000407 298.000415 L 66.500334 278.499797 L 60.499666 262.49974 L 60.499666 246.99991 L 58.499788 230.999854 L 55.999683 214.999797 L 55.999683 198.499512 L 53.999805 182.500488 L 50.000049 166.500431 L 59.500244 150.000146 L 57.500366 134.00009 L 53.499577 118.000033 L 47.499943 93.500236 L 32.000114 71.499512 " transform="matrix(3.779528,0,0,3.779528,0,0)"/>
<path style="fill:none;stroke-width:2;stroke-linecap:butt;stroke-linejoin:miter;stroke:rgb(0%,0%,0%);stroke-opacity:1;stroke-miterlimit:4;" d="M 30.999658 71.99974 L 27.50013 87.999797 L 28.99978 103.499626 L 29.500008 119.499683 L 37.49952 119.499683 L 39.999626 135.49974 L 35.99987 151.499797 L 40.499854 168.000081 L 44.499609 184.000138 L 46.999715 200.500423 L 46.999715 216.50048 L 42.999959 224.499992 L 42.999959 255.999878 L 44.999837 270.000057 L 59.000016 285.499886 L 55.00026 302.000171 L 51.000505 318.000228 L 44.999837 334.500513 L 17.499707 346.49978 L 9.500195 362.499837 L 8.999967 378.499894 L 14.999601 394.499951 L 48.500399 409.99978 L 44.000415 432.000505 L 48.000171 435.500033 L 63.5 431.500277 L 79.500057 429.500399 L 95.500114 437.49991 L 111.500171 443.00035 L 143.500285 443.00035 L 159.999536 447.000106 L 175.999593 449.500212 L 192.499878 452.000317 L 209.000163 452.000317 L 225.00022 450.000439 L 241.000277 443.999772 L 255.49965 443.999772 L 271.499707 450.000439 L 287.499764 456.500301 L 305.000505 462.499935 L 320.999528 452.499512 L 336.999585 418.49952 L 352.500448 422.000081 L 375.999788 425.999837 L 386.000212 427.999715 L 395.500407 406.000024 L 411.500464 406.000024 L 427.999715 391.999845 L 450.000439 352.00022 L 466.000496 336.000163 L 481.500326 329.999495 L 495.500505 320.000106 L 500.99991 307.999805 " transform="matrix(3.779528,0,0,3.779528,0,0)"/>
<path style="fill:none;stroke-width:2;stroke-linecap:butt;stroke-linejoin:miter;stroke:rgb(0%,0%,0%);stroke-opacity:1;stroke-miterlimit:4;" d="M 468.999797 331.500179 L 452.99974 347.500236 L 443.00035 363.999487 L 439.499788 380.499772 L 436.00026 396.499829 L 436.500488 413.000114 L 420.500431 428.499943 L 416.499642 432.499699 L 407.00048 434.499577 L 401.500041 450.499634 L 389.49974 448.499756 L 411.500464 450.499634 L 427.499487 447.000106 L 443.499544 447.000106 L 459.000407 450.999862 L 474.500236 452.499512 L 490.500293 447.000106 " transform="matrix(3.779528,0,0,3.779528,0,0)"/>
<path style="fill:none;stroke-width:2;stroke-linecap:butt;stroke-linejoin:miter;stroke:rgb(0%,0%,0%);stroke-opacity:1;stroke-miterlimit:4;" d="M 436.999683 428.499943 L 424.500187 434.499577 L 400.499585 438.999561 L 393.999723 420.999626 L 393.999723 404.999569 " transform="matrix(3.779528,0,0,3.779528,0,0)"/>
<path style="fill:none;stroke-width:2;stroke-linecap:butt;stroke-linejoin:miter;stroke:rgb(0%,0%,0%);stroke-opacity:1;stroke-miterlimit:4;" d="M 243.500382 434.499577 L 248.999788 418.49952 L 252.999544 402.500496 L 234.999609 386.500439 " transform="matrix(3.779528,0,0,3.779528,0,0)"/>
<path style="fill:none;stroke-width:2;stroke-linecap:butt;stroke-linejoin:miter;stroke:rgb(0%,0%,0%);stroke-opacity:1;stroke-miterlimit:4;" d="M 31.499886 211.000041 L 21.500496 194.499756 L 13.499951 196.499634 " transform="matrix(3.779528,0,0,3.779528,0,0)"/>
<path style="fill:none;stroke-width:2;stroke-linecap:butt;stroke-linejoin:miter;stroke:rgb(0%,0%,0%);stroke-opacity:1;stroke-miterlimit:4;" d="M 2.500106 197.50009 L 18.500163 191.500456 L 34.50022 209.999585 " transform="matrix(3.779528,0,0,3.779528,0,0)"/>
<path style="fill:none;stroke-width:2;stroke-linecap:butt;stroke-linejoin:miter;stroke:rgb(0%,0%,0%);stroke-opacity:1;stroke-miterlimit:4;" d="M 19.999813 232.000309 L 3.999756 223.999764 " transform="matrix(3.779528,0,0,3.779528,0,0)"/>
<path style="fill:none;stroke-width:2;stroke-linecap:butt;stroke-linejoin:miter;stroke:rgb(0%,0%,0%);stroke-opacity:1;stroke-miterlimit:4;" d="M 3.999756 219.49978 L 19.499585 227.500326 " transform="matrix(3.779528,0,0,3.779528,0,0)"/>
<path style="fill:none;stroke-width:2;stroke-linecap:butt;stroke-linejoin:miter;stroke:rgb(0%,0%,0%);stroke-opacity:1;stroke-miterlimit:4;" d="M 19.499585 234.000187 L 3.499528 212.499691 L 15.499829 200.500423 L 9.500195 200.500423 L 1.49965 208.499935 " transform="matrix(3.779528,0,0,3.779528,0,0)"/>
<path style="fill:none;stroke-width:2;stroke-linecap:butt;stroke-linejoin:miter;stroke:rgb(0%,0%,0%);stroke-opacity:1;stroke-miterlimit:4;" d="M 1.999878 182.500488 L 17.999935 187.000472 L 33.499764 200.999618 " transform="matrix(3.779528,0,0,3.779528,0,0)"/>
<path style="fill:none;stroke-width:2;stroke-linecap:butt;stroke-linejoin:miter;stroke:rgb(0%,0%,0%);stroke-opacity:1;stroke-miterlimit:4;" d="M 17.999935 178.999927 L 1.999878 177.000049 " transform="matrix(3.779528,0,0,3.779528,0,0)"/>
<path style="fill:none;stroke-width:2;stroke-linecap:butt;stroke-linejoin:miter;stroke:rgb(0%,0%,0%);stroke-opacity:1;stroke-miterlimit:4;" d="M 1.999878 172.500065 L 17.999935 174.499943 L 33.999992 192.499878 " transform="matrix(3.779528,0,0,3.779528,0,0)"/>
<path style="fill:none;stroke-width:2;stroke-linecap:butt;stroke-linejoin:miter;stroke:rgb(0%,0%,0%);stroke-opacity:1;stroke-miterlimit:4;" d="M 17.499707 146.000391 L 1.000456 137.499618 " transform="matrix(3.779528,0,0,3.779528,0,0)"/>
<path style="fill:none;stroke-width:2;stroke-linecap:butt;stroke-linejoin:miter;stroke:rgb(0%,0%,0%);stroke-opacity:1;stroke-miterlimit:4;" d="M 1.999878 130.499528 L 17.999935 141.999601 " transform="matrix(3.779528,0,0,3.779528,0,0)"/>
<path style="fill:none;stroke-width:2;stroke-linecap:butt;stroke-linejoin:miter;stroke:rgb(0%,0%,0%);stroke-opacity:1;stroke-miterlimit:4;" d="M 21.000269 153.499674 L 19.000391 133.499862 L 3.000334 123.999666 " transform="matrix(3.779528,0,0,3.779528,0,0)"/>
<path style="fill:none;stroke-width:2;stroke-linecap:butt;stroke-linejoin:miter;stroke:rgb(0%,0%,0%);stroke-opacity:1;stroke-miterlimit:4;" d="M 3.499528 123.000244 L 15.499829 139.000301 L 27.50013 155.499552 " transform="matrix(3.779528,0,0,3.779528,0,0)"/>
<path style="fill:none;stroke-width:2;stroke-linecap:butt;stroke-linejoin:miter;stroke:rgb(0%,0%,0%);stroke-opacity:1;stroke-miterlimit:4;" d="M 18.500163 114.000277 L 2.500106 112.499593 " transform="matrix(3.779528,0,0,3.779528,0,0)"/>
<path style="fill:none;stroke-width:2;stroke-linecap:butt;stroke-linejoin:miter;stroke:rgb(0%,0%,0%);stroke-opacity:1;stroke-miterlimit:4;" d="M 0.500228 107.000187 L 16.500285 108.499837 " transform="matrix(3.779528,0,0,3.779528,0,0)"/>
<path style="fill:none;stroke-width:2;stroke-linecap:butt;stroke-linejoin:miter;stroke:rgb(0%,0%,0%);stroke-opacity:1;stroke-miterlimit:4;" d="M 33.499764 93.000008 L 49.499821 107.000187 " transform="matrix(3.779528,0,0,3.779528,0,0)"/>
<path style="fill:none;stroke-width:2;stroke-linecap:butt;stroke-linejoin:miter;stroke:rgb(0%,0%,0%);stroke-opacity:1;stroke-miterlimit:4;" d="M 72.499967 117.499805 L 62.499544 99.49987 L 46.499487 77.500179 " transform="matrix(3.779528,0,0,3.779528,0,0)"/>
<path style="fill:none;stroke-width:2;stroke-linecap:butt;stroke-linejoin:miter;stroke:rgb(0%,0%,0%);stroke-opacity:1;stroke-miterlimit:4;" d="M 35.499642 75.500301 L 43.500187 91.500358 L 63.5 111.500171 L 67.499756 127 L 73.500423 143.000057 L 73.500423 158.499886 L 71.99974 174.499943 L 72.499967 189.999772 L 73.000195 205.999829 L 67.499756 230.000431 L 73.999618 237.999943 L 80.000285 241.999699 L 95.500114 230.000431 L 96.999764 235.499837 L 102.500203 241.500505 " transform="matrix(3.779528,0,0,3.779528,0,0)"/>
<path style="fill:none;stroke-width:2;stroke-linecap:butt;stroke-linejoin:miter;stroke:rgb(0%,0%,0%);stroke-opacity:1;stroke-miterlimit:4;" d="M 75.500301 123.500472 L 55.500488 103.499626 L 53.499577 87.499569 L 33.499764 77.500179 " transform="matrix(3.779528,0,0,3.779528,0,0)"/>
<path style="fill:none;stroke-width:2;stroke-linecap:butt;stroke-linejoin:miter;stroke:rgb(0%,0%,0%);stroke-opacity:1;stroke-miterlimit:4;" d="M 32.000114 74.499845 L 39.500431 89.999674 L 47.499943 103.499626 L 49.499821 119.499683 L 53.999805 135.999967 L 44.000415 144.000513 L 41.999504 159.999536 L 46.000293 175.999593 L 50.500277 191.99965 L 50.500277 207.500513 L 51.000505 223.499536 L 75.000073 221.499658 L 92.49978 220.000008 L 108.499837 227.99952 L 124.499894 237.999943 L 140.499951 225.999642 L 152.000024 227.99952 L 168.000081 208.499935 L 191.99965 204.500179 L 202.000073 209.000163 L 209.999585 194.999984 L 212.000496 198.99974 L 214.499569 202.999495 L 216.50048 206.500057 L 232.999731 206.500057 L 248.999788 205.999829 L 264.999845 220.000008 L 280.999902 229.500203 L 296.499731 237.499715 L 312.499788 231.500081 L 328.499845 219.49978 L 344.499902 207.500513 L 361.000187 205.499601 L 377.000244 207.500513 L 392.500073 218.999552 L 407.999902 227.500326 L 423.999959 231.500081 L 440.500244 236.000065 L 456.500301 242.499927 L 472.00013 245.000033 L 487.499959 234.999609 L 509.999878 182.999683 " transform="matrix(3.779528,0,0,3.779528,0,0)"/>
<path style="fill:none;stroke-width:2;stroke-linecap:butt;stroke-linejoin:miter;stroke:rgb(0%,0%,0%);stroke-opacity:1;stroke-miterlimit:4;" d="M 491.499715 227.99952 L 497.500382 212.499691 L 501.500138 196.499634 L 511.499528 180.999805 L 490.000065 175.000171 L 461.999707 158.499886 " transform="matrix(3.779528,0,0,3.779528,0,0)"/>
<path style="fill:none;stroke-width:2;stroke-linecap:butt;stroke-linejoin:miter;stroke:rgb(0%,0%,0%);stroke-opacity:1;stroke-miterlimit:4;" d="M 457.999951 162.499642 L 488.000187 178.499699 L 506.000122 196.000439 L 502.000366 212.000496 L 497.999577 227.500326 L 488.500415 243.000155 " transform="matrix(3.779528,0,0,3.779528,0,0)"/>
<path style="fill:none;stroke-width:2;stroke-linecap:butt;stroke-linejoin:miter;stroke:rgb(0%,0%,0%);stroke-opacity:1;stroke-miterlimit:4;" d="M 395.999601 200.000195 L 375.999788 183.49991 L 384.000334 161.50022 L 408.50013 145.500163 L 424.500187 128.999878 " transform="matrix(3.779528,0,0,3.779528,0,0)"/>
<path style="fill:none;stroke-width:2;stroke-linecap:butt;stroke-linejoin:miter;stroke:rgb(0%,0%,0%);stroke-opacity:1;stroke-miterlimit:4;" d="M 420.999626 109.500293 L 404.999569 93.500236 L 388.999512 85.499691 L 373.000488 85.499691 " transform="matrix(3.779528,0,0,3.779528,0,0)"/>
<path style="fill:none;stroke-width:2;stroke-linecap:butt;stroke-linejoin:miter;stroke:rgb(0%,0%,0%);stroke-opacity:1;stroke-miterlimit:4;" d="M 368.500505 90.499902 L 402.500496 106.499959 " transform="matrix(3.779528,0,0,3.779528,0,0)"/>
<path style="fill:none;stroke-width:2;stroke-linecap:butt;stroke-linejoin:miter;stroke:rgb(0%,0%,0%);stroke-opacity:1;stroke-miterlimit:4;" d="M 414.999992 112.000399 L 398.999935 103.999854 L 382.999878 96.000342 L 366.499593 87.999797 " transform="matrix(3.779528,0,0,3.779528,0,0)"/>
<path style="fill:none;stroke-width:2;stroke-linecap:butt;stroke-linejoin:miter;stroke:rgb(0%,0%,0%);stroke-opacity:1;stroke-miterlimit:4;" d="M 364.499715 88.500024 L 342.500024 104.500081 L 332.499601 120.500138 L 342.500024 136.500195 L 346.49978 152.500252 L 364.499715 168.500309 L 366.999821 184.500366 L 372.50026 203.999951 L 392.500073 220.000008 L 406.500252 235.499837 L 414.499764 246.99991 L 425.999837 263.500195 L 438.000138 263.500195 L 434.000382 271.999935 " transform="matrix(3.779528,0,0,3.779528,0,0)"/>
<path style="fill:none;stroke-width:2;stroke-linecap:butt;stroke-linejoin:miter;stroke:rgb(0%,0%,0%);stroke-opacity:1;stroke-miterlimit:4;" d="M 386.500439 142.499829 L 370.999577 158.499886 L 379.000122 168.999504 L 395.000179 155.499552 L 411.000236 145.500163 L 427.000293 123.500472 " transform="matrix(3.779528,0,0,3.779528,0,0)"/>
<path style="fill:none;stroke-width:2;stroke-linecap:butt;stroke-linejoin:miter;stroke:rgb(0%,0%,0%);stroke-opacity:1;stroke-miterlimit:4;" d="M 415.50022 95.500114 L 399.500163 85.499691 L 384.000334 81.499935 L 368.500505 81.499935 L 352.999642 87.999797 L 336.500391 100.500326 L 320.000106 105.000309 L 303.499821 93.000008 L 287.499764 87.499569 L 271.499707 87.499569 " transform="matrix(3.779528,0,0,3.779528,0,0)"/>
<path style="fill:none;stroke-width:2;stroke-linecap:butt;stroke-linejoin:miter;stroke:rgb(0%,0%,0%);stroke-opacity:1;stroke-miterlimit:4;" d="M 280.999902 89.50048 L 297.500187 93.500236 L 313.500244 105.499504 " transform="matrix(3.779528,0,0,3.779528,0,0)"/>
<path style="fill:none;stroke-width:2;stroke-linecap:butt;stroke-linejoin:miter;stroke:rgb(0%,0%,0%);stroke-opacity:1;stroke-miterlimit:4;" d="M 294.499854 89.50048 L 318.000228 105.499504 L 338.000041 129.500106 L 354.000098 150.999569 L 370.000155 150.999569 L 386.500439 138.500073 L 402.500496 128.49965 " transform="matrix(3.779528,0,0,3.779528,0,0)"/>
<path style="fill:none;stroke-width:2;stroke-linecap:butt;stroke-linejoin:miter;stroke:rgb(0%,0%,0%);stroke-opacity:1;stroke-miterlimit:4;" d="M 378.499894 107.500415 L 372.50026 123.500472 L 363.500293 137.499618 " transform="matrix(3.779528,0,0,3.779528,0,0)"/>
<path style="fill:none;stroke-width:2;stroke-linecap:butt;stroke-linejoin:miter;stroke:rgb(0%,0%,0%);stroke-opacity:1;stroke-miterlimit:4;" d="M 372.000033 114.000277 L 357.999854 137.499618 L 367.500049 121.499561 L 375.499561 105.499504 " transform="matrix(3.779528,0,0,3.779528,0,0)"/>
<path style="fill:none;stroke-width:2;stroke-linecap:butt;stroke-linejoin:miter;stroke:rgb(0%,0%,0%);stroke-opacity:1;stroke-miterlimit:4;" d="M 361.500415 92.49978 L 395.500407 108.499837 " transform="matrix(3.779528,0,0,3.779528,0,0)"/>
<path style="fill:none;stroke-width:2;stroke-linecap:butt;stroke-linejoin:miter;stroke:rgb(0%,0%,0%);stroke-opacity:1;stroke-miterlimit:4;" d="M 391.000423 88.500024 L 416.499642 104.500081 L 424.500187 119.99991 L 416.499642 123.999666 L 395.999601 136.500195 L 388.00009 136.500195 L 368.000277 152.000024 L 379.999544 149.499919 L 395.500407 134.999512 " transform="matrix(3.779528,0,0,3.779528,0,0)"/>
<path style="fill:none;stroke-width:2;stroke-linecap:butt;stroke-linejoin:miter;stroke:rgb(0%,0%,0%);stroke-opacity:1;stroke-miterlimit:4;" d="M 409.000358 124.499894 L 399.500163 110.499715 L 384.000334 102.500203 L 368.000277 94.499658 L 352.00022 94.499658 L 336.000163 109.999487 L 336.000163 101.999976 L 354.000098 85.999919 " transform="matrix(3.779528,0,0,3.779528,0,0)"/>
<path style="fill:none;stroke-width:2;stroke-linecap:butt;stroke-linejoin:miter;stroke:rgb(0%,0%,0%);stroke-opacity:1;stroke-miterlimit:4;" d="M 393.499495 84.500269 L 417.500098 100.500326 L 429.000171 116.500382 L 414.999992 132.500439 L 392.500073 146.000391 L 374.500138 162.000448 L 368.500505 189.499544 L 364.999943 205.499601 L 373.000488 221.499658 L 389.49974 236.999487 L 391.499618 252.999544 L 377.500472 268.999601 L 379.50035 291.000326 L 381.500228 303.499821 L 387.499862 313.500244 " transform="matrix(3.779528,0,0,3.779528,0,0)"/>
<path style="fill:none;stroke-width:2;stroke-linecap:butt;stroke-linejoin:miter;stroke:rgb(0%,0%,0%);stroke-opacity:1;stroke-miterlimit:4;" d="M 333.500057 144.999935 L 329.500301 141.000179 L 323.499634 141.000179 L 325.499512 125.000122 L 314.000472 109.000065 L 289.99987 93.000008 " transform="matrix(3.779528,0,0,3.779528,0,0)"/>
<path style="fill:none;stroke-width:2;stroke-linecap:butt;stroke-linejoin:miter;stroke:rgb(0%,0%,0%);stroke-opacity:1;stroke-miterlimit:4;" d="M 247.500138 97.499992 L 232.999731 113.500049 L 245.000033 98.00022 " transform="matrix(3.779528,0,0,3.779528,0,0)"/>
<path style="fill:none;stroke-width:2;stroke-linecap:butt;stroke-linejoin:miter;stroke:rgb(0%,0%,0%);stroke-opacity:1;stroke-miterlimit:4;" d="M 230.999854 39.500431 L 228.999976 55.500488 L 225.500448 71.499512 L 221.499658 87.499569 L 216.000252 103.000431 L 209.999585 119.499683 L 203.999951 135.49974 L 196.000439 152.000024 L 186.000016 168.000081 L 178.000505 184.500366 L 171.999837 200.500423 L 159.999536 216.999674 L 145.500163 227.000098 L 141.500407 242.499927 L 145.500163 252.50035 L 167.499854 259.999634 L 166.000203 270.000057 L 167.499854 280.00048 L 180.000382 286.000114 L 182.00026 268.000179 L 175.999593 270.000057 L 191.99965 262.49974 L 186.000016 243.999577 L 211.500269 223.999764 " transform="matrix(3.779528,0,0,3.779528,0,0)"/>
<path style="fill:none;stroke-width:2;stroke-linecap:butt;stroke-linejoin:miter;stroke:rgb(0%,0%,0%);stroke-opacity:1;stroke-miterlimit:4;" d="M 63.5 223.000342 L 61.500122 207.000285 L 59.000016 191.000228 L 55.00026 175.500399 L 53.000382 159.500342 L 46.999715 144.000513 L 42.999959 128.000456 L 39.000203 112.499593 L 32.999536 96.499536 L 28.499552 80.500513 " transform="matrix(3.779528,0,0,3.779528,0,0)"/>
<path style="fill:none;stroke-width:2;stroke-linecap:butt;stroke-linejoin:miter;stroke:rgb(0%,0%,0%);stroke-opacity:1;stroke-miterlimit:4;" d="M 19.999813 75.999495 L 21.500496 91.999552 L 23.999569 108.499837 L 26.00048 124.499894 L 28.499552 139.999723 L 32.500342 155.499552 L 35.000448 171.999837 L 32.999536 189.999772 L 25.000024 205.999829 L 12.999723 209.999585 L 14.999601 207.999707 " transform="matrix(3.779528,0,0,3.779528,0,0)"/>
<path style="fill:none;stroke-width:2;stroke-linecap:butt;stroke-linejoin:miter;stroke:rgb(0%,0%,0%);stroke-opacity:1;stroke-miterlimit:4;" d="M 88.500024 220.000008 L 88.500024 203.999951 L 87.999797 187.999894 L 87.999797 171.999837 L 87.499569 155.99978 L 89.50048 140.499951 L 89.50048 124.499894 L 87.499569 108.499837 L 87.499569 76.499723 " transform="matrix(3.779528,0,0,3.779528,0,0)"/>
<path style="fill:none;stroke-width:2;stroke-linecap:butt;stroke-linejoin:miter;stroke:rgb(0%,0%,0%);stroke-opacity:1;stroke-miterlimit:4;" d="M 89.999674 71.000317 L 100.000098 87.499569 L 103.999854 103.499626 L 105.999731 119.499683 L 105.999731 173.499487 L 106.499959 189.499544 L 106.499959 205.499601 L 114.999699 223.499536 L 125.000122 239.999821 L 130.999756 255.49965 L 155.000358 271.499707 L 148.999691 287.999992 L 148.999691 304.500277 " transform="matrix(3.779528,0,0,3.779528,0,0)"/>
<path style="fill:none;stroke-width:2;stroke-linecap:butt;stroke-linejoin:miter;stroke:rgb(0%,0%,0%);stroke-opacity:1;stroke-miterlimit:4;" d="M 80.500513 138.500073 L 80.500513 122.500016 L 76.499723 106.499959 L 80.500513 90.499902 L 80.500513 75.000073 " transform="matrix(3.779528,0,0,3.779528,0,0)"/>
<path style="fill:none;stroke-width:2;stroke-linecap:butt;stroke-linejoin:miter;stroke:rgb(0%,0%,0%);stroke-opacity:1;stroke-miterlimit:4;" d="M 75.999495 71.499512 L 71.99974 87.499569 L 55.500488 93.500236 L 57.500366 109.500293 L 61.500122 125.50035 L 67.999984 141.999601 L 67.999984 173.499487 L 66.000106 189.999772 L 67.999984 205.999829 L 64.000228 232.499504 L 66.000106 248.499561 L 80.000285 254 L 84.000041 252.000122 L 100.000098 247.500138 L 114.500505 236.999487 L 134.500317 249.500016 L 150.500374 236.000065 L 166.500431 230.499626 L 182.999683 226.49987 L 198.99974 225.00022 " transform="matrix(3.779528,0,0,3.779528,0,0)"/>
<path style="fill:none;stroke-width:2;stroke-linecap:butt;stroke-linejoin:miter;stroke:rgb(0%,0%,0%);stroke-opacity:1;stroke-miterlimit:4;" d="M 30.999658 214.000374 L 20.500041 218.00013 L 37.000326 215.500024 L 40.499854 199.499967 L 35.99987 183.49991 L 26.00048 173.499487 L 19.999813 163.500098 L 16.500285 151.499797 L 17.999935 135.49974 L 21.999691 125.999544 L 19.999813 105.999731 L 17.999935 89.50048 L 16.000057 73.500423 " transform="matrix(3.779528,0,0,3.779528,0,0)"/>
</g>
</svg>
