<?xml version="1.0" encoding="UTF-8"?>
<svg xmlns="http://www.w3.org/2000/svg" xmlns:xlink="http://www.w3.org/1999/xlink" width="1935.11811" height="1935.11811" viewBox="0 0 1935.11811 1935.11811" version="1.1">
<g id="surface1">
<path style="fill:none;stroke-width:2;stroke-linecap:butt;stroke-linejoin:miter;stroke:rgb(0%,0%,0%);stroke-opacity:1;stroke-miterlimit:4;" d="M 133.499862 16.500285 L 147.500041 32.500342 L 149.499919 48.500399 L 147.500041 64.500456 L 141.500407 80.999707 L 135.49974 96.999764 L 129.500106 112.999821 L 125.50035 128.999878 L 100.99952 144.999935 " transform="matrix(3.779528,0,0,3.779528,0,0)"/>
<path style="fill:none;stroke-width:2;stroke-linecap:butt;stroke-linejoin:miter;stroke:rgb(0%,0%,0%);stroke-opacity:1;stroke-miterlimit:4;" d="M 87.999797 139.999723 L 86.500146 123.999666 L 86.500146 107.999609 L 82.500391 91.999552 L 90.499902 87.999797 L 96.499536 71.99974 L 98.500448 55.999683 L 87.999797 44.000415 L 87.999797 27.50013 L 66.000106 39.500431 " transform="matrix(3.779528,0,0,3.779528,0,0)"/>
<path style="fill:none;stroke-width:2;stroke-linecap:butt;stroke-linejoin:miter;stroke:rgb(0%,0%,0%);stroke-opacity:1;stroke-miterlimit:4;" d="M 61.500122 35.99987 L 77.500179 16.000057 L 93.500236 28.499552 L 80.000285 14.500407 L 66.000106 30.500464 L 60.499666 46.499487 L 62.499544 62.499544 L 58.499788 78.000407 L 56.49991 94.000464 L 55.999683 117.499805 L 67.499756 141.500407 L 84.000041 151.499797 L 107.999609 148.000269 L 123.999666 138.500073 L 139.999723 128.49965 L 135.999967 119.99991 L 152.000024 105.999731 L 167.499854 92.49978 L 171.499609 68.500212 L 178.999927 84.500269 L 175.500399 96.499536 L 191.500456 88.500024 L 181.500033 100.000098 L 167.499854 116.000155 L 157.500464 121.499561 L 155.499552 137.999845 L 151.499797 151.499797 L 143.500285 167.499854 L 119.499683 183.49991 L 79.500057 207.500513 L 65.499878 211.500269 L 81.499935 207.500513 L 97.499992 203.499723 L 113.500049 197.50009 L 129.500106 191.99965 L 135.999967 200.000195 " transform="matrix(3.779528,0,0,3.779528,0,0)"/>
<path style="fill:none;stroke-width:2;stroke-linecap:butt;stroke-linejoin:miter;stroke:rgb(0%,0%,0%);stroke-opacity:1;stroke-miterlimit:4;" d="M 128.000456 198.000317 L 142.499829 180.000382 L 150.999569 164.000326 L 139.000301 181.500033 L 123.500472 187.000472 " transform="matrix(3.779528,0,0,3.779528,0,0)"/>
<path style="fill:none;stroke-width:2;stroke-linecap:butt;stroke-linejoin:miter;stroke:rgb(0%,0%,0%);stroke-opacity:1;stroke-miterlimit:4;" d="M 116.999577 178.000505 L 96.999764 183.49991 L 89.000252 195.500212 L 105.000309 191.99965 L 121.000366 184.500366 L 137.000423 178.499699 L 141.000179 154.50013 L 146.499585 146.499585 " transform="matrix(3.779528,0,0,3.779528,0,0)"/>
<path style="fill:none;stroke-width:2;stroke-linecap:butt;stroke-linejoin:miter;stroke:rgb(0%,0%,0%);stroke-opacity:1;stroke-miterlimit:4;" d="M 176.499821 139.000301 L 192.499878 166.500431 L 208.499935 184.500366 L 223.999764 221.999886 " transform="matrix(3.779528,0,0,3.779528,0,0)"/>
<path style="fill:none;stroke-width:2;stroke-linecap:butt;stroke-linejoin:miter;stroke:rgb(0%,0%,0%);stroke-opacity:1;stroke-miterlimit:4;" d="M 232.000309 214.999797 L 232.000309 182.999683 L 229.500203 166.999626 L 229.500203 150.999569 L 230.000431 135.49974 L 230.000431 103.999854 L 227.99952 87.999797 L 225.999642 71.99974 L 216.50048 66.500334 " transform="matrix(3.779528,0,0,3.779528,0,0)"/>
<path style="fill:none;stroke-width:2;stroke-linecap:butt;stroke-linejoin:miter;stroke:rgb(0%,0%,0%);stroke-opacity:1;stroke-miterlimit:4;" d="M 213.500146 60.499666 L 213.500146 62.00035 L 221.499658 78.000407 L 223.499536 94.499658 L 225.500448 110.499715 L 225.500448 173.999715 L 227.500326 189.999772 L 225.500448 205.999829 L 221.499658 221.999886 L 233.499959 237.999943 L 241.000277 237.499715 L 261.500317 233.499959 L 275.500496 233.499959 L 282.99978 241.999699 L 309.00026 257.999756 " transform="matrix(3.779528,0,0,3.779528,0,0)"/>
<path style="fill:none;stroke-width:2;stroke-linecap:butt;stroke-linejoin:miter;stroke:rgb(0%,0%,0%);stroke-opacity:1;stroke-miterlimit:4;" d="M 332.499601 239.000399 L 348.499658 241.000277 L 375.000366 240.500049 L 391.499618 226.49987 L 407.999902 220.500236 L 423.999959 216.50048 L 440.500244 222.500114 L 456.500301 234.000187 L 472.500358 251.499894 L 488.000187 259.500439 L 504.000244 262.999967 " transform="matrix(3.779528,0,0,3.779528,0,0)"/>
<path style="fill:none;stroke-width:2;stroke-linecap:butt;stroke-linejoin:miter;stroke:rgb(0%,0%,0%);stroke-opacity:1;stroke-miterlimit:4;" d="M 499.000033 283.500008 L 482.999976 269.499829 " transform="matrix(3.779528,0,0,3.779528,0,0)"/>
<path style="fill:none;stroke-width:2;stroke-linecap:butt;stroke-linejoin:miter;stroke:rgb(0%,0%,0%);stroke-opacity:1;stroke-miterlimit:4;" d="M 469.500024 271.000513 L 453.499967 286.999536 L 447.500334 302.999593 L 455.499845 319.499878 L 481.500326 329.500301 L 487.499959 339.499691 L 497.999577 329.999495 " transform="matrix(3.779528,0,0,3.779528,0,0)"/>
<path style="fill:none;stroke-width:2;stroke-linecap:butt;stroke-linejoin:miter;stroke:rgb(0%,0%,0%);stroke-opacity:1;stroke-miterlimit:4;" d="M 482.499748 354.99952 L 500.499683 359.000309 L 506.999544 365.500171 L 500.99991 381.500228 " transform="matrix(3.779528,0,0,3.779528,0,0)"/>
<path style="fill:none;stroke-width:2;stroke-linecap:butt;stroke-linejoin:miter;stroke:rgb(0%,0%,0%);stroke-opacity:1;stroke-miterlimit:4;" d="M 511.499528 378.499894 L 502.999788 375.999788 L 477.000342 384.000334 L 463.000163 368.000277 L 459.000407 359.499504 L 442.500122 351.499992 L 427.000293 355.499748 L 411.000236 364.999943 L 395.000179 377.000244 L 379.50035 402.999691 " transform="matrix(3.779528,0,0,3.779528,0,0)"/>
<path style="fill:none;stroke-width:2;stroke-linecap:butt;stroke-linejoin:miter;stroke:rgb(0%,0%,0%);stroke-opacity:1;stroke-miterlimit:4;" d="M 373.99991 400.000391 L 389.999967 373.99991 L 405.499797 361.999609 L 421.499854 352.00022 L 436.999683 345.999552 L 411.000236 363.999487 L 391.000423 379.999544 L 381.500228 396.499829 L 377.500472 412.499886 L 377.500472 427.999715 L 388.00009 443.999772 " transform="matrix(3.779528,0,0,3.779528,0,0)"/>
<path style="fill:none;stroke-width:2;stroke-linecap:butt;stroke-linejoin:miter;stroke:rgb(0%,0%,0%);stroke-opacity:1;stroke-miterlimit:4;" d="M 391.000423 445.99965 L 384.499528 434.000382 " transform="matrix(3.779528,0,0,3.779528,0,0)"/>
<path style="fill:none;stroke-width:2;stroke-linecap:butt;stroke-linejoin:miter;stroke:rgb(0%,0%,0%);stroke-opacity:1;stroke-miterlimit:4;" d="M 373.499683 432.000505 L 389.49974 450.000439 L 405.499797 459.999829 L 420.999626 455.499845 L 437.49991 429.500399 L 453.499967 409.499552 L 468.999797 393.999723 " transform="matrix(3.779528,0,0,3.779528,0,0)"/>
<path style="fill:none;stroke-width:2;stroke-linecap:butt;stroke-linejoin:miter;stroke:rgb(0%,0%,0%);stroke-opacity:1;stroke-miterlimit:4;" d="M 477.999764 384.999756 L 461.999707 366.999821 " transform="matrix(3.779528,0,0,3.779528,0,0)"/>
<path style="fill:none;stroke-width:2;stroke-linecap:butt;stroke-linejoin:miter;stroke:rgb(0%,0%,0%);stroke-opacity:1;stroke-miterlimit:4;" d="M 499.50026 366.499593 L 499.000033 382.49965 " transform="matrix(3.779528,0,0,3.779528,0,0)"/>
<path style="fill:none;stroke-width:2;stroke-linecap:butt;stroke-linejoin:miter;stroke:rgb(0%,0%,0%);stroke-opacity:1;stroke-miterlimit:4;" d="M 501.500138 397.500285 L 485.500081 398.000513 L 469.500024 402.000269 L 453.499967 418.49952 L 437.49991 446.499878 " transform="matrix(3.779528,0,0,3.779528,0,0)"/>
<path style="fill:none;stroke-width:2;stroke-linecap:butt;stroke-linejoin:miter;stroke:rgb(0%,0%,0%);stroke-opacity:1;stroke-miterlimit:4;" d="M 439.499788 456.999495 L 455.499845 479.00022 L 483.500203 485.500081 " transform="matrix(3.779528,0,0,3.779528,0,0)"/>
<path style="fill:none;stroke-width:2;stroke-linecap:butt;stroke-linejoin:miter;stroke:rgb(0%,0%,0%);stroke-opacity:1;stroke-miterlimit:4;" d="M 475.000464 508 L 459.499601 496.499927 " transform="matrix(3.779528,0,0,3.779528,0,0)"/>
<path style="fill:none;stroke-width:2;stroke-linecap:butt;stroke-linejoin:miter;stroke:rgb(0%,0%,0%);stroke-opacity:1;stroke-miterlimit:4;" d="M 452.99974 450.999862 L 468.999797 456.999495 L 463.000163 464.499813 L 486.999731 464.499813 L 488.500415 454.500423 " transform="matrix(3.779528,0,0,3.779528,0,0)"/>
<path style="fill:none;stroke-width:2;stroke-linecap:butt;stroke-linejoin:miter;stroke:rgb(0%,0%,0%);stroke-opacity:1;stroke-miterlimit:4;" d="M 497.500382 459.000407 L 499.50026 452.99974 L 482.999976 448.999984 L 466.999919 436.999683 " transform="matrix(3.779528,0,0,3.779528,0,0)"/>
<path style="fill:none;stroke-width:2;stroke-linecap:butt;stroke-linejoin:miter;stroke:rgb(0%,0%,0%);stroke-opacity:1;stroke-miterlimit:4;" d="M 470.000252 431.500277 L 474.000008 447.500334 L 481.99952 463.000163 L 479.999642 479.00022 L 480.49987 479.500448 L 498.499805 477.499536 " transform="matrix(3.779528,0,0,3.779528,0,0)"/>
<path style="fill:none;stroke-width:2;stroke-linecap:butt;stroke-linejoin:miter;stroke:rgb(0%,0%,0%);stroke-opacity:1;stroke-miterlimit:4;" d="M 510.500106 494.500049 L 512.499984 509.999878 " transform="matrix(3.779528,0,0,3.779528,0,0)"/>
<path style="fill:none;stroke-width:2;stroke-linecap:butt;stroke-linejoin:miter;stroke:rgb(0%,0%,0%);stroke-opacity:1;stroke-miterlimit:4;" d="M 502.000366 508.500228 L 473.49978 502.499561 L 455.499845 486.499504 L 443.499544 470.50048 L 456.999495 452.499512 L 456.500301 464.499813 L 452.499512 448.999984 " transform="matrix(3.779528,0,0,3.779528,0,0)"/>
<path style="fill:none;stroke-width:2;stroke-linecap:butt;stroke-linejoin:miter;stroke:rgb(0%,0%,0%);stroke-opacity:1;stroke-miterlimit:4;" d="M 473.49978 434.000382 L 485.500081 449.500212 L 487.499959 467.500146 L 503.500016 473.49978 L 501.500138 465.500269 " transform="matrix(3.779528,0,0,3.779528,0,0)"/>
<path style="fill:none;stroke-width:2;stroke-linecap:butt;stroke-linejoin:miter;stroke:rgb(0%,0%,0%);stroke-opacity:1;stroke-miterlimit:4;" d="M 509.000456 323.999862 L 493.000399 321.499756 L 477.000342 323.499634 L 463.500391 337.499813 L 479.00022 338.000041 L 465.000041 320.000106 L 482.999976 304.000049 L 497.000155 287.999992 L 482.999976 271.999935 L 466.999919 258.499984 L 450.999862 248.499561 L 434.999805 238.500171 " transform="matrix(3.779528,0,0,3.779528,0,0)"/>
<path style="fill:none;stroke-width:2;stroke-linecap:butt;stroke-linejoin:miter;stroke:rgb(0%,0%,0%);stroke-opacity:1;stroke-miterlimit:4;" d="M 435.500033 234.500415 L 450.999862 244.499805 " transform="matrix(3.779528,0,0,3.779528,0,0)"/>
<path style="fill:none;stroke-width:2;stroke-linecap:butt;stroke-linejoin:miter;stroke:rgb(0%,0%,0%);stroke-opacity:1;stroke-miterlimit:4;" d="M 452.99974 239.000399 L 437.49991 228.999976 L 422.000081 221.000464 L 398.000513 212.999919 L 382.49965 211.000041 L 366.499593 202.999495 " transform="matrix(3.779528,0,0,3.779528,0,0)"/>
<path style="fill:none;stroke-width:2;stroke-linecap:butt;stroke-linejoin:miter;stroke:rgb(0%,0%,0%);stroke-opacity:1;stroke-miterlimit:4;" d="M 348.000464 234.500415 L 331.500179 232.499504 " transform="matrix(3.779528,0,0,3.779528,0,0)"/>
<path style="fill:none;stroke-width:2;stroke-linecap:butt;stroke-linejoin:miter;stroke:rgb(0%,0%,0%);stroke-opacity:1;stroke-miterlimit:4;" d="M 325.99974 200.500423 L 310.49991 192.499878 " transform="matrix(3.779528,0,0,3.779528,0,0)"/>
<path style="fill:none;stroke-width:2;stroke-linecap:butt;stroke-linejoin:miter;stroke:rgb(0%,0%,0%);stroke-opacity:1;stroke-miterlimit:4;" d="M 306.500155 191.99965 L 323.000439 191.99965 " transform="matrix(3.779528,0,0,3.779528,0,0)"/>
<path style="fill:none;stroke-width:2;stroke-linecap:butt;stroke-linejoin:miter;stroke:rgb(0%,0%,0%);stroke-opacity:1;stroke-miterlimit:4;" d="M 310.49991 178.999927 L 326.499967 178.999927 L 342.500024 181.500033 " transform="matrix(3.779528,0,0,3.779528,0,0)"/>
<path style="fill:none;stroke-width:2;stroke-linecap:butt;stroke-linejoin:miter;stroke:rgb(0%,0%,0%);stroke-opacity:1;stroke-miterlimit:4;" d="M 320.000106 172.500065 L 336.500391 141.999601 " transform="matrix(3.779528,0,0,3.779528,0,0)"/>
<path style="fill:none;stroke-width:2;stroke-linecap:butt;stroke-linejoin:miter;stroke:rgb(0%,0%,0%);stroke-opacity:1;stroke-miterlimit:4;" d="M 327.000195 145.500163 L 311.000138 173.499487 " transform="matrix(3.779528,0,0,3.779528,0,0)"/>
<path style="fill:none;stroke-width:2;stroke-linecap:butt;stroke-linejoin:miter;stroke:rgb(0%,0%,0%);stroke-opacity:1;stroke-miterlimit:4;" d="M 295.999504 158.499886 L 295.999504 142.499829 L 291.999748 126.499772 L 291.999748 110.499715 L 289.99987 94.000464 L 287.999992 78.000407 L 280.00048 61.500122 L 275.999691 59.500244 " transform="matrix(3.779528,0,0,3.779528,0,0)"/>
<path style="fill:none;stroke-width:2;stroke-linecap:butt;stroke-linejoin:miter;stroke:rgb(0%,0%,0%);stroke-opacity:1;stroke-miterlimit:4;" d="M 266.499495 71.499512 L 266.000301 87.499569 L 264.000423 103.499626 L 264.000423 134.999512 L 264.499618 150.500374 " transform="matrix(3.779528,0,0,3.779528,0,0)"/>
<path style="fill:none;stroke-width:2;stroke-linecap:butt;stroke-linejoin:miter;stroke:rgb(0%,0%,0%);stroke-opacity:1;stroke-miterlimit:4;" d="M 291.999748 157.500464 L 289.99987 141.500407 L 286.500342 125.000122 L 286.500342 109.000065 L 284.999658 93.000008 L 279.000024 76.999951 L 276.499919 61.500122 L 260.499862 71.499512 " transform="matrix(3.779528,0,0,3.779528,0,0)"/>
<path style="fill:none;stroke-width:2;stroke-linecap:butt;stroke-linejoin:miter;stroke:rgb(0%,0%,0%);stroke-opacity:1;stroke-miterlimit:4;" d="M 260.499862 68.500212 L 259.000212 84.500269 L 259.000212 163.500098 " transform="matrix(3.779528,0,0,3.779528,0,0)"/>
<path style="fill:none;stroke-width:2;stroke-linecap:butt;stroke-linejoin:miter;stroke:rgb(0%,0%,0%);stroke-opacity:1;stroke-miterlimit:4;" d="M 268.999601 212.000496 L 268.999601 227.99952 " transform="matrix(3.779528,0,0,3.779528,0,0)"/>
<path style="fill:none;stroke-width:2;stroke-linecap:butt;stroke-linejoin:miter;stroke:rgb(0%,0%,0%);stroke-opacity:1;stroke-miterlimit:4;" d="M 260.499862 217.499902 L 259.999634 213.500146 " transform="matrix(3.779528,0,0,3.779528,0,0)"/>
<path style="fill:none;stroke-width:2;stroke-linecap:butt;stroke-linejoin:miter;stroke:rgb(0%,0%,0%);stroke-opacity:1;stroke-miterlimit:4;" d="M 255.999878 228.999976 L 239.999821 245.000033 L 223.999764 264.999845 L 208.499935 269.499829 L 211.000041 255.49965 L 211.000041 239.499593 L 212.999919 223.499536 " transform="matrix(3.779528,0,0,3.779528,0,0)"/>
<path style="fill:none;stroke-width:2;stroke-linecap:butt;stroke-linejoin:miter;stroke:rgb(0%,0%,0%);stroke-opacity:1;stroke-miterlimit:4;" d="M 225.500448 271.499707 L 241.500505 269.499829 L 267.499951 291.000326 L 286.000114 307.000382 L 298.499609 322.500212 L 300.999715 338.000041 L 324.50009 355.499748 L 339.999919 367.500049 L 355.499748 373.499683 L 373.499683 371.499805 L 388.999512 354.99952 L 405.499797 345.500358 L 425.999837 347.500236 L 402.000269 363.500293 L 384.499528 379.50035 L 376.500016 395.500407 L 373.000488 411.500464 L 372.50026 427.499487 L 380.499772 443.499544 L 396.499829 459.999829 " transform="matrix(3.779528,0,0,3.779528,0,0)"/>
<path style="fill:none;stroke-width:2;stroke-linecap:butt;stroke-linejoin:miter;stroke:rgb(0%,0%,0%);stroke-opacity:1;stroke-miterlimit:4;" d="M 386.500439 461.500513 L 354.500326 461.500513 L 338.500269 463.500391 L 322.500212 461.500513 " transform="matrix(3.779528,0,0,3.779528,0,0)"/>
<path style="fill:none;stroke-width:2;stroke-linecap:butt;stroke-linejoin:miter;stroke:rgb(0%,0%,0%);stroke-opacity:1;stroke-miterlimit:4;" d="M 320.999528 461.500513 L 336.999585 457.499723 L 352.500448 457.499723 L 368.000277 456.999495 L 384.000334 456.999495 " transform="matrix(3.779528,0,0,3.779528,0,0)"/>
<path style="fill:none;stroke-width:2;stroke-linecap:butt;stroke-linejoin:miter;stroke:rgb(0%,0%,0%);stroke-opacity:1;stroke-miterlimit:4;" d="M 361.500415 355.499748 L 379.999544 339.499691 L 393.999723 323.499634 L 396.499829 307.000382 L 368.999699 302.999593 L 352.999642 307.499577 L 336.999585 302.000171 L 320.999528 295.999504 " transform="matrix(3.779528,0,0,3.779528,0,0)"/>
<path style="fill:none;stroke-width:2;stroke-linecap:butt;stroke-linejoin:miter;stroke:rgb(0%,0%,0%);stroke-opacity:1;stroke-miterlimit:4;" d="M 325.000317 299.500065 L 341.000374 309.500488 L 357.000431 311.999561 L 373.000488 307.999805 L 388.999512 300.499487 " transform="matrix(3.779528,0,0,3.779528,0,0)"/>
<path style="fill:none;stroke-width:2;stroke-linecap:butt;stroke-linejoin:miter;stroke:rgb(0%,0%,0%);stroke-opacity:1;stroke-miterlimit:4;" d="M 375.499561 289.499642 L 363.000065 289.499642 L 368.999699 281.50013 " transform="matrix(3.779528,0,0,3.779528,0,0)"/>
<path style="fill:none;stroke-width:2;stroke-linecap:butt;stroke-linejoin:miter;stroke:rgb(0%,0%,0%);stroke-opacity:1;stroke-miterlimit:4;" d="M 363.999487 277.500374 L 379.999544 286.999536 L 395.999601 298.999837 L 411.500464 305.000505 L 427.499487 302.999593 L 443.499544 292.499976 L 459.499601 272.500163 L 475.499658 266.000301 L 491.999943 263.500195 L 503.500016 265.500073 " transform="matrix(3.779528,0,0,3.779528,0,0)"/>
<path style="fill:none;stroke-width:2;stroke-linecap:butt;stroke-linejoin:miter;stroke:rgb(0%,0%,0%);stroke-opacity:1;stroke-miterlimit:4;" d="M 498.499805 296.499731 L 481.99952 306.500155 L 466.499691 320.500334 L 450.499634 306.500155 " transform="matrix(3.779528,0,0,3.779528,0,0)"/>
<path style="fill:none;stroke-width:2;stroke-linecap:butt;stroke-linejoin:miter;stroke:rgb(0%,0%,0%);stroke-opacity:1;stroke-miterlimit:4;" d="M 445.99965 311.999561 L 429.999593 307.999805 L 413.999536 309.999683 L 398.000513 318.000228 L 377.999666 341.999797 L 361.999609 355.999976 L 345.999552 365.500171 L 329.999495 353.49987 L 314.000472 341.999797 L 298.499609 341.999797 L 282.499552 339.999919 L 266.499495 352.00022 L 250.500472 372.000033 L 238.500171 350.499536 L 216.50048 334.500513 " transform="matrix(3.779528,0,0,3.779528,0,0)"/>
<path style="fill:none;stroke-width:2;stroke-linecap:butt;stroke-linejoin:miter;stroke:rgb(0%,0%,0%);stroke-opacity:1;stroke-miterlimit:4;" d="M 227.000098 300.000293 L 211.500269 287.999992 L 195.500212 282.000358 L 180.000382 284.000236 " transform="matrix(3.779528,0,0,3.779528,0,0)"/>
<path style="fill:none;stroke-width:2;stroke-linecap:butt;stroke-linejoin:miter;stroke:rgb(0%,0%,0%);stroke-opacity:1;stroke-miterlimit:4;" d="M 171.000415 286.000114 L 187.000472 298.000415 " transform="matrix(3.779528,0,0,3.779528,0,0)"/>
<path style="fill:none;stroke-width:2;stroke-linecap:butt;stroke-linejoin:miter;stroke:rgb(0%,0%,0%);stroke-opacity:1;stroke-miterlimit:4;" d="M 197.50009 284.000236 L 223.499536 300.000293 " transform="matrix(3.779528,0,0,3.779528,0,0)"/>
<path style="fill:none;stroke-width:2;stroke-linecap:butt;stroke-linejoin:miter;stroke:rgb(0%,0%,0%);stroke-opacity:1;stroke-miterlimit:4;" d="M 234.999609 273.499585 L 251.499894 279.500252 L 267.499951 287.499764 L 283.500008 302.000171 L 299.500065 321.999984 " transform="matrix(3.779528,0,0,3.779528,0,0)"/>
<path style="fill:none;stroke-width:2;stroke-linecap:butt;stroke-linejoin:miter;stroke:rgb(0%,0%,0%);stroke-opacity:1;stroke-miterlimit:4;" d="M 280.00048 333.500057 L 259.999634 349.500114 " transform="matrix(3.779528,0,0,3.779528,0,0)"/>
<path style="fill:none;stroke-width:2;stroke-linecap:butt;stroke-linejoin:miter;stroke:rgb(0%,0%,0%);stroke-opacity:1;stroke-miterlimit:4;" d="M 271.999935 345.00013 L 255.999878 361.000187 L 250.000244 377.500472 L 237.499715 393.499495 L 229.500203 409.99978 L 198.99974 425.999837 " transform="matrix(3.779528,0,0,3.779528,0,0)"/>
<path style="fill:none;stroke-width:2;stroke-linecap:butt;stroke-linejoin:miter;stroke:rgb(0%,0%,0%);stroke-opacity:1;stroke-miterlimit:4;" d="M 182.500488 438.500366 L 221.999886 422.500309 L 237.499715 406.000024 L 245.50026 389.999967 L 243.500382 372.000033 L 234.999609 355.999976 L 215.500024 339.499691 L 198.99974 313.500244 L 184.500366 297.500187 L 159.999536 273.499585 L 152.500252 257.499528 L 150.500374 241.000277 L 130.999756 234.999609 L 115.499927 236.999487 L 100.000098 239.000399 L 84.000041 241.000277 L 67.999984 238.500171 L 52.500155 236.999487 L 36.500098 241.500505 L 36.500098 236.999487 " transform="matrix(3.779528,0,0,3.779528,0,0)"/>
<path style="fill:none;stroke-width:2;stroke-linecap:butt;stroke-linejoin:miter;stroke:rgb(0%,0%,0%);stroke-opacity:1;stroke-miterlimit:4;" d="M 23.999569 225.999642 L 39.999626 232.499504 L 55.999683 234.500415 L 71.99974 230.499626 L 91.999552 224.499992 L 107.999609 223.999764 L 124.499894 215.500024 L 140.499951 213.500146 " transform="matrix(3.779528,0,0,3.779528,0,0)"/>
<path style="fill:none;stroke-width:2;stroke-linecap:butt;stroke-linejoin:miter;stroke:rgb(0%,0%,0%);stroke-opacity:1;stroke-miterlimit:4;" d="M 126.499772 243.000155 L 141.999601 241.000277 L 166.000203 241.500505 L 182.00026 239.499593 L 198.000317 233.499959 " transform="matrix(3.779528,0,0,3.779528,0,0)"/>
<path style="fill:none;stroke-width:2;stroke-linecap:butt;stroke-linejoin:miter;stroke:rgb(0%,0%,0%);stroke-opacity:1;stroke-miterlimit:4;" d="M 175.999593 268.999601 L 159.999536 264.999845 " transform="matrix(3.779528,0,0,3.779528,0,0)"/>
<path style="fill:none;stroke-width:2;stroke-linecap:butt;stroke-linejoin:miter;stroke:rgb(0%,0%,0%);stroke-opacity:1;stroke-miterlimit:4;" d="M 159.999536 286.999536 L 175.500399 295.500309 L 191.500456 309.500488 L 211.500269 335.499935 L 227.99952 345.999552 L 243.999577 368.000277 " transform="matrix(3.779528,0,0,3.779528,0,0)"/>
<path style="fill:none;stroke-width:2;stroke-linecap:butt;stroke-linejoin:miter;stroke:rgb(0%,0%,0%);stroke-opacity:1;stroke-miterlimit:4;" d="M 242.499927 386.500439 L 225.999642 414.499764 L 209.999585 422.500309 L 194.499756 428.499943 L 178.499699 434.499577 L 162.499642 440.500244 L 146.499585 444.5 L 130.499528 448.999984 L 114.999699 450.499634 L 98.500448 446.499878 L 82.500391 425.999837 L 66.500334 434.499577 L 50.500277 456.000073 L 33.999992 470.000252 L 17.999935 477.999764 L 1.999878 477.999764 " transform="matrix(3.779528,0,0,3.779528,0,0)"/>
<path style="fill:none;stroke-width:2;stroke-linecap:butt;stroke-linejoin:miter;stroke:rgb(0%,0%,0%);stroke-opacity:1;stroke-miterlimit:4;" d="M 1.49965 472.999552 L 17.499707 472.500358 L 33.499764 465.000041 L 49.499821 448.999984 L 66.000106 422.999504 L 78.000407 436.999683 L 78.000407 452.499512 L 70.50009 468.000374 " transform="matrix(3.779528,0,0,3.779528,0,0)"/>
<path style="fill:none;stroke-width:2;stroke-linecap:butt;stroke-linejoin:miter;stroke:rgb(0%,0%,0%);stroke-opacity:1;stroke-miterlimit:4;" d="M 37.999748 477.000342 L 53.999805 477.000342 L 69.499634 474.500236 L 93.500236 476.500114 L 109.999487 477.000342 L 141.999601 477.000342 L 157.500464 477.499536 L 173.999715 475.499658 L 189.999772 473.49978 L 205.999829 473.49978 L 221.999886 471.499902 L 237.999943 472.00013 L 254 472.00013 L 270.000057 470.50048 L 286.000114 470.50048 " transform="matrix(3.779528,0,0,3.779528,0,0)"/>
<path style="fill:none;stroke-width:2;stroke-linecap:butt;stroke-linejoin:miter;stroke:rgb(0%,0%,0%);stroke-opacity:1;stroke-miterlimit:4;" d="M 291.999748 451.50009 L 275.999691 447.500334 L 259.999634 443.499544 " transform="matrix(3.779528,0,0,3.779528,0,0)"/>
<path style="fill:none;stroke-width:2;stroke-linecap:butt;stroke-linejoin:miter;stroke:rgb(0%,0%,0%);stroke-opacity:1;stroke-miterlimit:4;" d="M 259.000212 439.499788 L 275.000269 441.499666 L 290.500098 445.500456 " transform="matrix(3.779528,0,0,3.779528,0,0)"/>
<path style="fill:none;stroke-width:2;stroke-linecap:butt;stroke-linejoin:miter;stroke:rgb(0%,0%,0%);stroke-opacity:1;stroke-miterlimit:4;" d="M 325.000317 438.500366 L 302.999593 468.499569 L 313.500244 452.499512 L 321.499756 436.500488 L 329.999495 420.000203 L 336.500391 404.000146 L 336.999585 388.00009 L 332.999829 372.000033 L 323.000439 355.999976 L 300.999715 350.499536 L 284.999658 346.49978 " transform="matrix(3.779528,0,0,3.779528,0,0)"/>
<path style="fill:none;stroke-width:2;stroke-linecap:butt;stroke-linejoin:miter;stroke:rgb(0%,0%,0%);stroke-opacity:1;stroke-miterlimit:4;" d="M 283.500008 345.999552 L 307.499577 363.999487 L 320.000106 379.999544 " transform="matrix(3.779528,0,0,3.779528,0,0)"/>
<path style="fill:none;stroke-width:2;stroke-linecap:butt;stroke-linejoin:miter;stroke:rgb(0%,0%,0%);stroke-opacity:1;stroke-miterlimit:4;" d="M 326.499967 384.499528 L 310.49991 368.500505 " transform="matrix(3.779528,0,0,3.779528,0,0)"/>
<path style="fill:none;stroke-width:2;stroke-linecap:butt;stroke-linejoin:miter;stroke:rgb(0%,0%,0%);stroke-opacity:1;stroke-miterlimit:4;" d="M 314.499666 366.000399 L 330.499723 382.000456 " transform="matrix(3.779528,0,0,3.779528,0,0)"/>
<path style="fill:none;stroke-width:2;stroke-linecap:butt;stroke-linejoin:miter;stroke:rgb(0%,0%,0%);stroke-opacity:1;stroke-miterlimit:4;" d="M 330.499723 380.499772 L 314.000472 364.499715 L 302.000171 355.999976 L 286.000114 350.000342 L 277.500374 363.999487 L 261.500317 373.99991 L 245.50026 389.999967 L 229.500203 418.000326 L 212.999919 425.999837 L 196.999862 432.000505 L 180.999805 438.000138 L 165.499976 443.999772 L 150.000146 447.500334 L 134.00009 453.499967 L 118.50026 454.999618 L 100.500326 438.999561 L 85.000496 411.000236 L 64.99965 397.000057 L 48.500399 385.499984 L 40.499854 385.499984 L 23.999569 405.499797 L 7.999512 429.500399 L 19.999813 413.500342 L 30.000236 397.500285 L 45.500065 381.500228 L 44.999837 365.500171 L 58.499788 361.999609 L 42.499731 354.500326 L 26.999902 352.500448 " transform="matrix(3.779528,0,0,3.779528,0,0)"/>
<path style="fill:none;stroke-width:2;stroke-linecap:butt;stroke-linejoin:miter;stroke:rgb(0%,0%,0%);stroke-opacity:1;stroke-miterlimit:4;" d="M 39.500431 354.000098 L 57.500366 355.999976 L 59.500244 368.000277 L 78.000407 383.500106 L 74.499845 399.500163 L 78.499601 417.500098 L 66.500334 433.500155 L 56.49991 449.500212 L 39.999626 465.500269 L 39.500431 473.49978 L 55.500488 473.49978 L 71.499512 465.500269 " transform="matrix(3.779528,0,0,3.779528,0,0)"/>
<path style="fill:none;stroke-width:2;stroke-linecap:butt;stroke-linejoin:miter;stroke:rgb(0%,0%,0%);stroke-opacity:1;stroke-miterlimit:4;" d="M 94.000464 443.00035 L 91.999552 427.000293 " transform="matrix(3.779528,0,0,3.779528,0,0)"/>
<path style="fill:none;stroke-width:2;stroke-linecap:butt;stroke-linejoin:miter;stroke:rgb(0%,0%,0%);stroke-opacity:1;stroke-miterlimit:4;" d="M 65.499878 377.999666 L 49.499821 366.000399 L 33.499764 361.500415 L 17.000513 363.999487 L 1.000456 372.000033 " transform="matrix(3.779528,0,0,3.779528,0,0)"/>
<path style="fill:none;stroke-width:2;stroke-linecap:butt;stroke-linejoin:miter;stroke:rgb(0%,0%,0%);stroke-opacity:1;stroke-miterlimit:4;" d="M 1.999878 354.000098 L 17.999935 352.00022 L 33.999992 345.999552 L 50.000049 352.00022 L 66.000106 359.999731 " transform="matrix(3.779528,0,0,3.779528,0,0)"/>
<path style="fill:none;stroke-width:2;stroke-linecap:butt;stroke-linejoin:miter;stroke:rgb(0%,0%,0%);stroke-opacity:1;stroke-miterlimit:4;" d="M 48.999593 388.999512 L 32.999536 404.999569 L 23.000146 420.999626 L 10.499618 436.500488 L 7.999512 438.000138 L 23.999569 418.000326 L 39.999626 393.499495 L 55.999683 398.000513 " transform="matrix(3.779528,0,0,3.779528,0,0)"/>
<path style="fill:none;stroke-width:2;stroke-linecap:butt;stroke-linejoin:miter;stroke:rgb(0%,0%,0%);stroke-opacity:1;stroke-miterlimit:4;" d="M 46.999715 392.500073 L 69.000439 408.50013 L 66.999528 424.500187 L 57.500366 440.500244 L 43.500187 456.500301 " transform="matrix(3.779528,0,0,3.779528,0,0)"/>
<path style="fill:none;stroke-width:2;stroke-linecap:butt;stroke-linejoin:miter;stroke:rgb(0%,0%,0%);stroke-opacity:1;stroke-miterlimit:4;" d="M 1.999878 347.500236 L 17.499707 347.500236 L 3.499528 364.999943 L 7.500317 363.000065 L 23.000146 357.000431 L 39.500431 357.000431 L 55.999683 363.000065 L 71.99974 377.000244 L 80.500513 395.000179 L 82.500391 410.500008 L 80.000285 422.500309 L 86.500146 438.999561 L 86.500146 472.00013 L 90.499902 472.500358 L 105.999731 474.500236 L 138.500073 474.500236 L 154.50013 472.500358 L 170.500187 472.500358 L 186.500244 470.50048 L 202.500301 470.50048 L 218.999552 468.499569 L 234.999609 468.499569 L 250.999666 466.499691 L 282.99978 466.499691 " transform="matrix(3.779528,0,0,3.779528,0,0)"/>
<path style="fill:none;stroke-width:2;stroke-linecap:butt;stroke-linejoin:miter;stroke:rgb(0%,0%,0%);stroke-opacity:1;stroke-miterlimit:4;" d="M 300.499487 459.999829 L 284.000236 459.499601 L 268.000179 457.499723 L 252.000122 452.99974 L 236.000065 449.500212 " transform="matrix(3.779528,0,0,3.779528,0,0)"/>
<path style="fill:none;stroke-width:2;stroke-linecap:butt;stroke-linejoin:miter;stroke:rgb(0%,0%,0%);stroke-opacity:1;stroke-miterlimit:4;" d="M 232.499504 422.999504 L 230.499626 438.999561 L 246.499683 447.000106 L 262.49974 451.50009 L 279.000024 454.999618 L 295.000081 459.000407 " transform="matrix(3.779528,0,0,3.779528,0,0)"/>
<path style="fill:none;stroke-width:2;stroke-linecap:butt;stroke-linejoin:miter;stroke:rgb(0%,0%,0%);stroke-opacity:1;stroke-miterlimit:4;" d="M 322.500212 434.499577 L 318.500456 456.500301 L 326.499967 440.500244 L 334.500513 423.999959 L 339.000496 408.50013 L 343.50048 392.500073 L 339.999919 376.500016 L 329.999495 354.000098 L 315.500122 350.499536 L 298.999837 332.000407 L 289.000448 316.00035 L 275.000269 300.000293 L 248.999788 283.500008 L 234.500415 259.500439 L 243.000155 243.500382 L 245.000033 232.999731 L 243.000155 216.999674 L 243.500382 200.999618 L 243.500382 184.999561 L 245.000033 169.499731 L 245.000033 153.499674 L 242.499927 137.499618 L 242.499927 121.499561 L 244.499805 105.999731 L 241.999699 89.999674 L 243.999577 74.499845 L 243.999577 69.000439 L 227.500326 60.999894 " transform="matrix(3.779528,0,0,3.779528,0,0)"/>
<path style="fill:none;stroke-width:2;stroke-linecap:butt;stroke-linejoin:miter;stroke:rgb(0%,0%,0%);stroke-opacity:1;stroke-miterlimit:4;" d="M 210.499813 59.000016 L 206.500057 58.499788 L 206.500057 122.500016 L 209.000163 138.500073 L 209.000163 154.50013 " transform="matrix(3.779528,0,0,3.779528,0,0)"/>
<path style="fill:none;stroke-width:2;stroke-linecap:butt;stroke-linejoin:miter;stroke:rgb(0%,0%,0%);stroke-opacity:1;stroke-miterlimit:4;" d="M 196.999862 162.499642 L 181.500033 134.500317 " transform="matrix(3.779528,0,0,3.779528,0,0)"/>
<path style="fill:none;stroke-width:2;stroke-linecap:butt;stroke-linejoin:miter;stroke:rgb(0%,0%,0%);stroke-opacity:1;stroke-miterlimit:4;" d="M 178.999927 124.499894 L 182.999683 140.499951 L 191.000228 156.500008 " transform="matrix(3.779528,0,0,3.779528,0,0)"/>
<path style="fill:none;stroke-width:2;stroke-linecap:butt;stroke-linejoin:miter;stroke:rgb(0%,0%,0%);stroke-opacity:1;stroke-miterlimit:4;" d="M 205.999829 172.500065 L 200.000195 156.500008 L 196.000439 140.499951 L 196.000439 124.499894 L 198.000317 107.999609 L 186.500244 98.00022 L 170.500187 101.999976 L 154.50013 109.999487 " transform="matrix(3.779528,0,0,3.779528,0,0)"/>
<path style="fill:none;stroke-width:2;stroke-linecap:butt;stroke-linejoin:miter;stroke:rgb(0%,0%,0%);stroke-opacity:1;stroke-miterlimit:4;" d="M 175.999593 122.500016 L 173.999715 139.000301 L 181.500033 155.000358 L 193.500334 170.500187 L 203.499723 186.500244 L 207.500513 202.000073 L 207.999707 218.00013 L 205.499601 234.000187 L 205.999829 250.000244 L 203.999951 266.000301 L 200.000195 266.000301 L 220.000008 290.500098 L 239.999821 305.999927 " transform="matrix(3.779528,0,0,3.779528,0,0)"/>
<path style="fill:none;stroke-width:2;stroke-linecap:butt;stroke-linejoin:miter;stroke:rgb(0%,0%,0%);stroke-opacity:1;stroke-miterlimit:4;" d="M 182.00026 273.499585 L 166.000203 275.500496 L 144.000513 270.000057 L 144.499707 250.000244 L 128.49965 254 " transform="matrix(3.779528,0,0,3.779528,0,0)"/>
<path style="fill:none;stroke-width:2;stroke-linecap:butt;stroke-linejoin:miter;stroke:rgb(0%,0%,0%);stroke-opacity:1;stroke-miterlimit:4;" d="M 139.999723 221.499658 L 124.499894 223.999764 L 108.499837 227.99952 L 92.49978 234.500415 L 76.499723 234.000187 L 70.50009 223.999764 L 21.999691 223.999764 " transform="matrix(3.779528,0,0,3.779528,0,0)"/>
<path style="fill:none;stroke-width:2;stroke-linecap:butt;stroke-linejoin:miter;stroke:rgb(0%,0%,0%);stroke-opacity:1;stroke-miterlimit:4;" d="M 20.500041 215.500024 L 36.500098 217.499902 L 69.000439 217.499902 L 84.500269 214.999797 L 96.000342 213.500146 L 112.000399 211.500269 L 128.49965 207.999707 " transform="matrix(3.779528,0,0,3.779528,0,0)"/>
<path style="fill:none;stroke-width:2;stroke-linecap:butt;stroke-linejoin:miter;stroke:rgb(0%,0%,0%);stroke-opacity:1;stroke-miterlimit:4;" d="M 62.499544 195.500212 L 46.499487 195.500212 " transform="matrix(3.779528,0,0,3.779528,0,0)"/>
<path style="fill:none;stroke-width:2;stroke-linecap:butt;stroke-linejoin:miter;stroke:rgb(0%,0%,0%);stroke-opacity:1;stroke-miterlimit:4;" d="M 34.50022 177.500277 L 50.500277 178.000505 L 66.000106 178.000505 " transform="matrix(3.779528,0,0,3.779528,0,0)"/>
<path style="fill:none;stroke-width:2;stroke-linecap:butt;stroke-linejoin:miter;stroke:rgb(0%,0%,0%);stroke-opacity:1;stroke-miterlimit:4;" d="M 89.000252 163.500098 L 72.499967 169.999959 L 56.49991 173.999715 L 39.999626 174.499943 L 23.999569 173.000293 " transform="matrix(3.779528,0,0,3.779528,0,0)"/>
<path style="fill:none;stroke-width:2;stroke-linecap:butt;stroke-linejoin:miter;stroke:rgb(0%,0%,0%);stroke-opacity:1;stroke-miterlimit:4;" d="M 21.500496 187.000472 L 37.49952 186.500244 L 69.499634 186.500244 " transform="matrix(3.779528,0,0,3.779528,0,0)"/>
<path style="fill:none;stroke-width:2;stroke-linecap:butt;stroke-linejoin:miter;stroke:rgb(0%,0%,0%);stroke-opacity:1;stroke-miterlimit:4;" d="M 70.50009 189.00035 L 54.500033 191.500456 L 38.499976 189.499544 L 22.499919 189.499544 " transform="matrix(3.779528,0,0,3.779528,0,0)"/>
<path style="fill:none;stroke-width:2;stroke-linecap:butt;stroke-linejoin:miter;stroke:rgb(0%,0%,0%);stroke-opacity:1;stroke-miterlimit:4;" d="M 7.999512 193.500334 L 23.500374 205.499601 L 39.500431 207.999707 L 55.500488 209.999585 L 61.500122 203.999951 L 71.99974 202.500301 L 87.999797 192.499878 " transform="matrix(3.779528,0,0,3.779528,0,0)"/>
<path style="fill:none;stroke-width:2;stroke-linecap:butt;stroke-linejoin:miter;stroke:rgb(0%,0%,0%);stroke-opacity:1;stroke-miterlimit:4;" d="M 53.999805 202.000073 L 46.000293 214.000374 L 30.000236 212.499691 L 14.000179 206.500057 " transform="matrix(3.779528,0,0,3.779528,0,0)"/>
<path style="fill:none;stroke-width:2;stroke-linecap:butt;stroke-linejoin:miter;stroke:rgb(0%,0%,0%);stroke-opacity:1;stroke-miterlimit:4;" d="M 5.500439 198.499512 L 21.500496 234.500415 L 23.500374 257.000334 " transform="matrix(3.779528,0,0,3.779528,0,0)"/>
<path style="fill:none;stroke-width:2;stroke-linecap:butt;stroke-linejoin:miter;stroke:rgb(0%,0%,0%);stroke-opacity:1;stroke-miterlimit:4;" d="M 21.500496 268.999601 L 21.000269 259.000212 L 12.999723 243.000155 L 8.49974 226.49987 L 0 214.999797 " transform="matrix(3.779528,0,0,3.779528,0,0)"/>
<path style="fill:none;stroke-width:2;stroke-linecap:butt;stroke-linejoin:miter;stroke:rgb(0%,0%,0%);stroke-opacity:1;stroke-miterlimit:4;" d="M 1.49965 204.500179 L 15.499829 212.499691 L 23.500374 228.499748 L 31.499886 244.499805 L 35.499642 259.999634 " transform="matrix(3.779528,0,0,3.779528,0,0)"/>
<path style="fill:none;stroke-width:2;stroke-linecap:butt;stroke-linejoin:miter;stroke:rgb(0%,0%,0%);stroke-opacity:1;stroke-miterlimit:4;" d="M 17.499707 273.999813 L 1.49965 261.999512 L 1.49965 248.000366 " transform="matrix(3.779528,0,0,3.779528,0,0)"/>
<path style="fill:none;stroke-width:2;stroke-linecap:butt;stroke-linejoin:miter;stroke:rgb(0%,0%,0%);stroke-opacity:1;stroke-miterlimit:4;" d="M 7.500317 251.499894 L 7.500317 267.499951 L 21.500496 283.500008 L 21.500496 300.000293 L 3.000334 316.499544 L 12.999723 314.499666 L 37.000326 307.000382 L 53.499577 302.999593 L 69.499634 298.999837 " transform="matrix(3.779528,0,0,3.779528,0,0)"/>
<path style="fill:none;stroke-width:2;stroke-linecap:butt;stroke-linejoin:miter;stroke:rgb(0%,0%,0%);stroke-opacity:1;stroke-miterlimit:4;" d="M 113.500049 323.999862 L 113.500049 340.500146 " transform="matrix(3.779528,0,0,3.779528,0,0)"/>
<path style="fill:none;stroke-width:2;stroke-linecap:butt;stroke-linejoin:miter;stroke:rgb(0%,0%,0%);stroke-opacity:1;stroke-miterlimit:4;" d="M 117.499805 341.999797 L 118.000033 325.99974 " transform="matrix(3.779528,0,0,3.779528,0,0)"/>
<path style="fill:none;stroke-width:2;stroke-linecap:butt;stroke-linejoin:miter;stroke:rgb(0%,0%,0%);stroke-opacity:1;stroke-miterlimit:4;" d="M 148.999691 350.499536 L 157.000236 354.500326 L 170.500187 370.999577 L 148.500496 373.000488 L 132.000212 389.49974 L 145.500163 375.499561 L 161.50022 367.500049 L 178.000505 367.500049 " transform="matrix(3.779528,0,0,3.779528,0,0)"/>
<path style="fill:none;stroke-width:2;stroke-linecap:butt;stroke-linejoin:miter;stroke:rgb(0%,0%,0%);stroke-opacity:1;stroke-miterlimit:4;" d="M 168.000081 377.000244 L 152.000024 379.000122 L 135.999967 389.49974 L 156.500008 377.000244 L 150.500374 357.000431 " transform="matrix(3.779528,0,0,3.779528,0,0)"/>
<path style="fill:none;stroke-width:2;stroke-linecap:butt;stroke-linejoin:miter;stroke:rgb(0%,0%,0%);stroke-opacity:1;stroke-miterlimit:4;" d="M 148.500496 352.500448 L 164.49952 360.499959 L 180.499577 362.499837 " transform="matrix(3.779528,0,0,3.779528,0,0)"/>
<path style="fill:none;stroke-width:2;stroke-linecap:butt;stroke-linejoin:miter;stroke:rgb(0%,0%,0%);stroke-opacity:1;stroke-miterlimit:4;" d="M 159.999536 288.50022 L 184.000138 304.000049 L 197.50009 320.500334 L 215.500024 334.500513 L 232.000309 342.500024 L 248.499561 364.499715 L 264.499618 346.49978 L 280.499674 334.000285 L 296.499731 336.000163 " transform="matrix(3.779528,0,0,3.779528,0,0)"/>
<path style="fill:none;stroke-width:2;stroke-linecap:butt;stroke-linejoin:miter;stroke:rgb(0%,0%,0%);stroke-opacity:1;stroke-miterlimit:4;" d="M 282.000358 360.499959 L 257.999756 376.500016 L 260.499862 382.49965 L 276.499919 368.999699 " transform="matrix(3.779528,0,0,3.779528,0,0)"/>
<path style="fill:none;stroke-width:2;stroke-linecap:butt;stroke-linejoin:miter;stroke:rgb(0%,0%,0%);stroke-opacity:1;stroke-miterlimit:4;" d="M 284.000236 366.000399 L 261.999512 382.49965 " transform="matrix(3.779528,0,0,3.779528,0,0)"/>
<path style="fill:none;stroke-width:2;stroke-linecap:butt;stroke-linejoin:miter;stroke:rgb(0%,0%,0%);stroke-opacity:1;stroke-miterlimit:4;" d="M 327.500423 297.500187 L 323.499634 281.50013 L 325.499512 257.499528 L 329.500301 241.500505 L 331.500179 225.500448 L 339.499691 207.999707 L 331.500179 189.499544 L 317.5 166.000203 L 323.499634 150.000146 L 333.500057 134.500317 L 337.499813 118.50026 L 341.000374 102.500203 L 339.499691 110.499715 L 315.500122 140.499951 L 309.999683 141.999601 L 316.00035 125.999544 L 320.000106 102.500203 L 320.000106 69.999862 L 309.999683 63.5 L 293.500431 63.5 " transform="matrix(3.779528,0,0,3.779528,0,0)"/>
<path style="fill:none;stroke-width:2;stroke-linecap:butt;stroke-linejoin:miter;stroke:rgb(0%,0%,0%);stroke-opacity:1;stroke-miterlimit:4;" d="M 293.500431 66.500334 L 299.500065 114.500505 L 299.500065 130.499528 L 301.499943 146.000391 L 304.000049 162.000448 L 304.000049 178.000505 L 302.500399 193.999528 L 298.499609 209.999585 L 296.999959 225.500448 L 296.999959 241.500505 L 295.000081 257.499528 L 286.500342 273.499585 L 287.999992 266.999723 L 295.999504 279.000024 L 311.999561 275.000269 " transform="matrix(3.779528,0,0,3.779528,0,0)"/>
<path style="fill:none;stroke-width:2;stroke-linecap:butt;stroke-linejoin:miter;stroke:rgb(0%,0%,0%);stroke-opacity:1;stroke-miterlimit:4;" d="M 302.000171 214.000374 L 318.500456 200.000195 L 334.500513 216.000252 L 350.499536 212.000496 L 352.00022 216.000252 L 368.000277 209.500391 L 383.500106 215.500024 " transform="matrix(3.779528,0,0,3.779528,0,0)"/>
<path style="fill:none;stroke-width:2;stroke-linecap:butt;stroke-linejoin:miter;stroke:rgb(0%,0%,0%);stroke-opacity:1;stroke-miterlimit:4;" d="M 425.000415 221.999886 L 436.999683 237.499715 L 459.000407 252.999544 L 461.000285 271.000513 L 447.000106 286.999536 " transform="matrix(3.779528,0,0,3.779528,0,0)"/>
<path style="fill:none;stroke-width:2;stroke-linecap:butt;stroke-linejoin:miter;stroke:rgb(0%,0%,0%);stroke-opacity:1;stroke-miterlimit:4;" d="M 447.500334 296.499731 L 463.500391 276.499919 L 479.500448 274.500041 L 495.500505 286.500342 " transform="matrix(3.779528,0,0,3.779528,0,0)"/>
<path style="fill:none;stroke-width:2;stroke-linecap:butt;stroke-linejoin:miter;stroke:rgb(0%,0%,0%);stroke-opacity:1;stroke-miterlimit:4;" d="M 507.499772 241.000277 L 502.999788 227.000098 L 488.999609 223.000342 L 499.000033 207.000285 L 506.999544 191.500456 L 499.000033 205.499601 L 482.999976 230.000431 L 467.500146 218.500358 L 452.000317 204.500179 L 436.00026 193.000106 L 420.000203 182.999683 " transform="matrix(3.779528,0,0,3.779528,0,0)"/>
<path style="fill:none;stroke-width:2;stroke-linecap:butt;stroke-linejoin:miter;stroke:rgb(0%,0%,0%);stroke-opacity:1;stroke-miterlimit:4;" d="M 425.000415 183.49991 L 447.000106 199.499967 L 464.499813 216.000252 L 484.499626 232.000309 L 506.50035 248.000366 " transform="matrix(3.779528,0,0,3.779528,0,0)"/>
<path style="fill:none;stroke-width:2;stroke-linecap:butt;stroke-linejoin:miter;stroke:rgb(0%,0%,0%);stroke-opacity:1;stroke-miterlimit:4;" d="M 502.000366 230.000431 L 504.000244 221.999886 L 500.000488 225.999642 L 488.000187 216.000252 L 497.999577 200.000195 L 508 184.000138 L 500.000488 195.500212 L 484.499626 221.999886 L 468.499569 209.999585 L 452.499512 196.000439 L 436.500488 186.000016 L 420.000203 175.999593 " transform="matrix(3.779528,0,0,3.779528,0,0)"/>
<path style="fill:none;stroke-width:2;stroke-linecap:butt;stroke-linejoin:miter;stroke:rgb(0%,0%,0%);stroke-opacity:1;stroke-miterlimit:4;" d="M 422.999504 177.500277 L 446.499878 193.999528 L 466.999919 209.999585 L 490.999487 234.000187 L 506.999544 246.000488 " transform="matrix(3.779528,0,0,3.779528,0,0)"/>
<path style="fill:none;stroke-width:2;stroke-linecap:butt;stroke-linejoin:miter;stroke:rgb(0%,0%,0%);stroke-opacity:1;stroke-miterlimit:4;" d="M 440.500244 309.00026 L 450.000439 325.499512 L 441.999894 341.499569 L 454.000195 357.999854 L 458.500179 373.99991 L 474.500236 390.500195 L 458.500179 407.00048 L 443.999772 422.999504 L 435.500033 438.999561 L 423.499731 454.500423 L 423.499731 460.500057 L 437.49991 466.499691 L 453.499967 492.500171 L 469.500024 498.499805 L 485.500081 508 L 502.000366 502.000366 " transform="matrix(3.779528,0,0,3.779528,0,0)"/>
<path style="fill:none;stroke-width:2;stroke-linecap:butt;stroke-linejoin:miter;stroke:rgb(0%,0%,0%);stroke-opacity:1;stroke-miterlimit:4;" d="M 506.50035 350.499536 L 504.000244 338.500269 L 488.000187 348.000464 L 472.00013 350.000342 L 455.499845 352.00022 L 453.499967 345.999552 L 447.500334 338.000041 L 431.500277 336.000163 L 414.999992 332.000407 L 398.999935 334.000285 " transform="matrix(3.779528,0,0,3.779528,0,0)"/>
<path style="fill:none;stroke-width:2;stroke-linecap:butt;stroke-linejoin:miter;stroke:rgb(0%,0%,0%);stroke-opacity:1;stroke-miterlimit:4;" d="M 400.999813 345.500358 L 382.999878 361.500415 L 370.999577 377.999666 L 387.499862 366.499593 L 404.000146 352.500448 " transform="matrix(3.779528,0,0,3.779528,0,0)"/>
<path style="fill:none;stroke-width:2;stroke-linecap:butt;stroke-linejoin:miter;stroke:rgb(0%,0%,0%);stroke-opacity:1;stroke-miterlimit:4;" d="M 405.499797 348.999886 L 387.499862 364.999943 " transform="matrix(3.779528,0,0,3.779528,0,0)"/>
<path style="fill:none;stroke-width:2;stroke-linecap:butt;stroke-linejoin:miter;stroke:rgb(0%,0%,0%);stroke-opacity:1;stroke-miterlimit:4;" d="M 361.000187 342.500024 L 359.499504 343.999674 L 369.499927 327.999618 " transform="matrix(3.779528,0,0,3.779528,0,0)"/>
<path style="fill:none;stroke-width:2;stroke-linecap:butt;stroke-linejoin:miter;stroke:rgb(0%,0%,0%);stroke-opacity:1;stroke-miterlimit:4;" d="M 368.999699 327.500423 L 352.999642 343.50048 L 354.99952 341.999797 L 365.500171 325.99974 " transform="matrix(3.779528,0,0,3.779528,0,0)"/>
<path style="fill:none;stroke-width:2;stroke-linecap:butt;stroke-linejoin:miter;stroke:rgb(0%,0%,0%);stroke-opacity:1;stroke-miterlimit:4;" d="M 289.499642 241.999699 L 289.499642 209.999585 " transform="matrix(3.779528,0,0,3.779528,0,0)"/>
<path style="fill:none;stroke-width:2;stroke-linecap:butt;stroke-linejoin:miter;stroke:rgb(0%,0%,0%);stroke-opacity:1;stroke-miterlimit:4;" d="M 286.000114 207.999707 L 286.000114 223.999764 L 275.500496 232.000309 L 289.000448 247.500138 L 304.500277 267.499951 " transform="matrix(3.779528,0,0,3.779528,0,0)"/>
<path style="fill:none;stroke-width:2;stroke-linecap:butt;stroke-linejoin:miter;stroke:rgb(0%,0%,0%);stroke-opacity:1;stroke-miterlimit:4;" d="M 310.49991 265.500073 L 307.000382 255.49965 L 300.999715 239.999821 L 300.999715 223.999764 L 305.000505 208.499935 " transform="matrix(3.779528,0,0,3.779528,0,0)"/>
<path style="fill:none;stroke-width:2;stroke-linecap:butt;stroke-linejoin:miter;stroke:rgb(0%,0%,0%);stroke-opacity:1;stroke-miterlimit:4;" d="M 337.499813 182.00026 L 341.000374 166.500431 L 345.00013 134.500317 L 344.499902 118.50026 " transform="matrix(3.779528,0,0,3.779528,0,0)"/>
<path style="fill:none;stroke-width:2;stroke-linecap:butt;stroke-linejoin:miter;stroke:rgb(0%,0%,0%);stroke-opacity:1;stroke-miterlimit:4;" d="M 350.499536 110.999943 L 350.499536 127.500228 L 350.000342 143.500285 L 348.000464 159.500342 L 343.999674 175.999593 L 341.999797 191.99965 " transform="matrix(3.779528,0,0,3.779528,0,0)"/>
<path style="fill:none;stroke-width:2;stroke-linecap:butt;stroke-linejoin:miter;stroke:rgb(0%,0%,0%);stroke-opacity:1;stroke-miterlimit:4;" d="M 398.000513 154.50013 L 395.999601 138.500073 " transform="matrix(3.779528,0,0,3.779528,0,0)"/>
<path style="fill:none;stroke-width:2;stroke-linecap:butt;stroke-linejoin:miter;stroke:rgb(0%,0%,0%);stroke-opacity:1;stroke-miterlimit:4;" d="M 400.999813 94.999886 L 384.999756 91.500358 " transform="matrix(3.779528,0,0,3.779528,0,0)"/>
<path style="fill:none;stroke-width:2;stroke-linecap:butt;stroke-linejoin:miter;stroke:rgb(0%,0%,0%);stroke-opacity:1;stroke-miterlimit:4;" d="M 379.999544 85.999919 L 395.999601 85.999919 " transform="matrix(3.779528,0,0,3.779528,0,0)"/>
<path style="fill:none;stroke-width:2;stroke-linecap:butt;stroke-linejoin:miter;stroke:rgb(0%,0%,0%);stroke-opacity:1;stroke-miterlimit:4;" d="M 391.999845 77.500179 L 375.999788 75.000073 " transform="matrix(3.779528,0,0,3.779528,0,0)"/>
<path style="fill:none;stroke-width:2;stroke-linecap:butt;stroke-linejoin:miter;stroke:rgb(0%,0%,0%);stroke-opacity:1;stroke-miterlimit:4;" d="M 375.999788 76.999951 L 373.99991 93.000008 L 369.499927 109.000065 L 367.500049 125.000122 L 363.500293 141.000179 L 359.499504 157.000236 L 359.000309 172.500065 L 364.999943 188.500122 L 367.500049 203.999951 L 391.499618 218.00013 L 375.499561 234.000187 L 368.999699 239.999821 L 384.999756 223.499536 " transform="matrix(3.779528,0,0,3.779528,0,0)"/>
<path style="fill:none;stroke-width:2;stroke-linecap:butt;stroke-linejoin:miter;stroke:rgb(0%,0%,0%);stroke-opacity:1;stroke-miterlimit:4;" d="M 402.000269 109.500293 L 391.499618 103.499626 L 375.000366 96.999764 " transform="matrix(3.779528,0,0,3.779528,0,0)"/>
<path style="fill:none;stroke-width:2;stroke-linecap:butt;stroke-linejoin:miter;stroke:rgb(0%,0%,0%);stroke-opacity:1;stroke-miterlimit:4;" d="M 370.500382 70.50009 L 368.500505 86.500146 L 366.499593 102.500203 L 364.499715 118.50026 L 356.500203 150.500374 L 354.99952 166.500431 L 354.500326 182.00026 L 356.500203 198.000317 L 356.500203 213.500146 L 362.499837 218.999552 L 361.999609 237.499715 L 359.999731 253.499772 L 361.999609 270.000057 L 360.499959 286.000114 " transform="matrix(3.779528,0,0,3.779528,0,0)"/>
<path style="fill:none;stroke-width:2;stroke-linecap:butt;stroke-linejoin:miter;stroke:rgb(0%,0%,0%);stroke-opacity:1;stroke-miterlimit:4;" d="M 191.000228 257.000334 L 195.500212 257.000334 L 200.000195 241.000277 L 186.000016 248.999788 L 186.500244 255.000456 L 178.499699 250.999666 L 168.500309 252.50035 L 166.500431 262.49974 L 158.499886 279.000024 L 142.499829 282.99978 L 137.999845 271.000513 L 121.999788 259.000212 L 105.499504 252.50035 L 89.50048 252.50035 L 73.000195 252.000122 L 57.000138 255.999878 L 41.000081 266.000301 L 23.000146 275.999691 L 10.999845 257.999756 L 14.999601 255.999878 L 5.000212 250.000244 L 7.500317 234.000187 L 3.499528 218.00013 L 5.999634 202.000073 L 10.499618 184.000138 L 8.49974 181.500033 " transform="matrix(3.779528,0,0,3.779528,0,0)"/>
<path style="fill:none;stroke-width:2;stroke-linecap:butt;stroke-linejoin:miter;stroke:rgb(0%,0%,0%);stroke-opacity:1;stroke-miterlimit:4;" d="M 5.500439 177.500277 L 21.500496 181.500033 L 53.499577 181.500033 L 82.000163 171.499609 L 85.999919 181.500033 L 100.000098 181.500033 " transform="matrix(3.779528,0,0,3.779528,0,0)"/>
<path style="fill:none;stroke-width:2;stroke-linecap:butt;stroke-linejoin:miter;stroke:rgb(0%,0%,0%);stroke-opacity:1;stroke-miterlimit:4;" d="M 64.99965 148.000269 L 54.500033 131.499984 L 44.000415 115.499927 L 48.000171 99.49987 L 41.500309 83.499813 L 35.499642 67.499756 L 27.50013 51.499699 L 13.499951 51.499699 " transform="matrix(3.779528,0,0,3.779528,0,0)"/>
<path style="fill:none;stroke-width:2;stroke-linecap:butt;stroke-linejoin:miter;stroke:rgb(0%,0%,0%);stroke-opacity:1;stroke-miterlimit:4;" d="M 5.999634 55.999683 L 21.999691 48.000171 L 38.499976 71.499512 L 58.499788 96.000342 L 82.999585 101.999976 L 96.999764 69.999862 " transform="matrix(3.779528,0,0,3.779528,0,0)"/>
<path style="fill:none;stroke-width:2;stroke-linecap:butt;stroke-linejoin:miter;stroke:rgb(0%,0%,0%);stroke-opacity:1;stroke-miterlimit:4;" d="M 94.000464 91.999552 L 109.999487 57.999561 L 126.499772 30.000236 L 122.500016 26.00048 L 114.999699 41.500309 L 104.500081 57.500366 L 120.500138 29.500008 L 136.500195 15.499829 " transform="matrix(3.779528,0,0,3.779528,0,0)"/>
<path style="fill:none;stroke-width:2;stroke-linecap:butt;stroke-linejoin:miter;stroke:rgb(0%,0%,0%);stroke-opacity:1;stroke-miterlimit:4;" d="M 133.499862 21.000269 L 145.500163 37.000326 L 143.500285 53.000382 L 153.499674 71.499512 L 144.000513 87.999797 L 137.999845 104.500081 L 141.999601 120.500138 L 148.000269 128.49965 L 134.00009 132.500439 L 114.500505 144.499707 " transform="matrix(3.779528,0,0,3.779528,0,0)"/>
<path style="fill:none;stroke-width:2;stroke-linecap:butt;stroke-linejoin:miter;stroke:rgb(0%,0%,0%);stroke-opacity:1;stroke-miterlimit:4;" d="M 148.500496 77.500179 L 164.999748 67.499756 L 171.000415 71.499512 L 171.000415 87.499569 L 155.000358 103.499626 L 137.000423 119.499683 L 143.000057 77.500179 L 154.50013 65.499878 L 170.500187 65.499878 " transform="matrix(3.779528,0,0,3.779528,0,0)"/>
<path style="fill:none;stroke-width:2;stroke-linecap:butt;stroke-linejoin:miter;stroke:rgb(0%,0%,0%);stroke-opacity:1;stroke-miterlimit:4;" d="M 212.499691 76.499723 L 212.499691 156.500008 L 209.999585 171.999837 L 209.999585 187.999894 L 214.000374 203.499723 L 216.000252 220.000008 L 227.99952 236.000065 L 229.500203 252.000122 L 216.999674 261.500317 L 227.000098 275.500496 L 243.000155 281.50013 L 259.000212 289.99987 L 275.000269 302.000171 L 291.000326 320.000106 " transform="matrix(3.779528,0,0,3.779528,0,0)"/>
<path style="fill:none;stroke-width:2;stroke-linecap:butt;stroke-linejoin:miter;stroke:rgb(0%,0%,0%);stroke-opacity:1;stroke-miterlimit:4;" d="M 227.99952 293.999626 L 212.000496 284.000236 L 196.499634 277.999569 L 180.499577 277.999569 L 164.49952 284.000236 L 148.500496 273.999813 L 138.500073 254 L 128.49965 250.000244 L 112.000399 250.000244 L 96.000342 245.50026 L 80.000285 245.50026 L 64.000228 249.500016 L 62.00035 243.999577 L 46.000293 241.999699 L 38.499976 257.999756 L 28.499552 257.999756 L 22.499919 250.000244 L 20.500041 234.000187 L 14.500407 218.00013 L 18.500163 191.500456 L 2.500106 187.499666 " transform="matrix(3.779528,0,0,3.779528,0,0)"/>
<path style="fill:none;stroke-width:2;stroke-linecap:butt;stroke-linejoin:miter;stroke:rgb(0%,0%,0%);stroke-opacity:1;stroke-miterlimit:4;" d="M 1.999878 170.500187 L 17.999935 171.000415 L 33.499764 168.999504 L 49.499821 171.000415 L 66.000106 166.500431 L 82.000163 162.000448 L 97.499992 157.999658 L 112.999821 150.000146 L 125.000122 148.000269 L 103.499626 173.999715 L 105.499504 186.000016 L 125.50035 200.000195 L 127.500228 202.500301 L 141.999601 212.499691 L 121.999788 218.500358 L 130.499528 232.499504 L 126.499772 250.500472 L 132.500439 266.000301 L 140.499951 282.000358 L 137.999845 277.500374 " transform="matrix(3.779528,0,0,3.779528,0,0)"/>
<path style="fill:none;stroke-width:2;stroke-linecap:butt;stroke-linejoin:miter;stroke:rgb(0%,0%,0%);stroke-opacity:1;stroke-miterlimit:4;" d="M 75.500301 291.49952 L 59.500244 295.500309 L 44.000415 298.999837 L 19.999813 300.999715 L 3.999756 314.999894 L 17.999935 311.000138 L 28.000358 296.999959 L 30.000236 280.999902 L 41.999504 265.500073 L 55.999683 249.500016 " transform="matrix(3.779528,0,0,3.779528,0,0)"/>
<path style="fill:none;stroke-width:2;stroke-linecap:butt;stroke-linejoin:miter;stroke:rgb(0%,0%,0%);stroke-opacity:1;stroke-miterlimit:4;" d="M 17.000513 279.500252 L 1.000456 271.000513 " transform="matrix(3.779528,0,0,3.779528,0,0)"/>
<path style="fill:none;stroke-width:2;stroke-linecap:butt;stroke-linejoin:miter;stroke:rgb(0%,0%,0%);stroke-opacity:1;stroke-miterlimit:4;" d="M 1.999878 164.999748 L 17.999935 164.999748 L 34.50022 162.99987 " transform="matrix(3.779528,0,0,3.779528,0,0)"/>
<path style="fill:none;stroke-width:2;stroke-linecap:butt;stroke-linejoin:miter;stroke:rgb(0%,0%,0%);stroke-opacity:1;stroke-miterlimit:4;" d="M 53.999805 156.500008 L 37.999748 154.50013 L 21.999691 128.000456 L 5.999634 109.500293 " transform="matrix(3.779528,0,0,3.779528,0,0)"/>
<path style="fill:none;stroke-width:2;stroke-linecap:butt;stroke-linejoin:miter;stroke:rgb(0%,0%,0%);stroke-opacity:1;stroke-miterlimit:4;" d="M 10.000423 113.500049 L 22.499919 129.500106 L 26.499674 145.500163 L 46.499487 166.000203 " transform="matrix(3.779528,0,0,3.779528,0,0)"/>
<path style="fill:none;stroke-width:2;stroke-linecap:butt;stroke-linejoin:miter;stroke:rgb(0%,0%,0%);stroke-opacity:1;stroke-miterlimit:4;" d="M 32.500342 123.500472 L 16.500285 111.500171 " transform="matrix(3.779528,0,0,3.779528,0,0)"/>
<path style="fill:none;stroke-width:2;stroke-linecap:butt;stroke-linejoin:miter;stroke:rgb(0%,0%,0%);stroke-opacity:1;stroke-miterlimit:4;" d="M 19.499585 109.500293 L 41.500309 125.50035 " transform="matrix(3.779528,0,0,3.779528,0,0)"/>
<path style="fill:none;stroke-width:2;stroke-linecap:butt;stroke-linejoin:miter;stroke:rgb(0%,0%,0%);stroke-opacity:1;stroke-miterlimit:4;" d="M 29.500008 114.999699 L 13.499951 107.000187 " transform="matrix(3.779528,0,0,3.779528,0,0)"/>
<path style="fill:none;stroke-width:2;stroke-linecap:butt;stroke-linejoin:miter;stroke:rgb(0%,0%,0%);stroke-opacity:1;stroke-miterlimit:4;" d="M 1.999878 122.500016 L 17.999935 132.000212 " transform="matrix(3.779528,0,0,3.779528,0,0)"/>
<path style="fill:none;stroke-width:2;stroke-linecap:butt;stroke-linejoin:miter;stroke:rgb(0%,0%,0%);stroke-opacity:1;stroke-miterlimit:4;" d="M 21.000269 140.499951 L 5.000212 124.499894 " transform="matrix(3.779528,0,0,3.779528,0,0)"/>
<path style="fill:none;stroke-width:2;stroke-linecap:butt;stroke-linejoin:miter;stroke:rgb(0%,0%,0%);stroke-opacity:1;stroke-miterlimit:4;" d="M 1.000456 151.499797 L 17.499707 150.000146 " transform="matrix(3.779528,0,0,3.779528,0,0)"/>
<path style="fill:none;stroke-width:2;stroke-linecap:butt;stroke-linejoin:miter;stroke:rgb(0%,0%,0%);stroke-opacity:1;stroke-miterlimit:4;" d="M 1.999878 158.499886 L 33.999992 158.499886 L 50.000049 159.999536 L 65.499878 159.500342 L 81.499935 155.499552 L 97.499992 144.999935 L 113.500049 137.000423 L 130.000334 123.000244 L 114.000277 148.999691 " transform="matrix(3.779528,0,0,3.779528,0,0)"/>
<path style="fill:none;stroke-width:2;stroke-linecap:butt;stroke-linejoin:miter;stroke:rgb(0%,0%,0%);stroke-opacity:1;stroke-miterlimit:4;" d="M 69.000439 150.500374 L 65.499878 134.500317 L 62.00035 118.50026 L 56.49991 102.500203 L 48.500399 85.999919 L 42.999959 69.499634 L 37.000326 53.499577 L 35.000448 49.499821 L 19.000391 37.49952 L 3.000334 51.999927 " transform="matrix(3.779528,0,0,3.779528,0,0)"/>
<path style="fill:none;stroke-width:2;stroke-linecap:butt;stroke-linejoin:miter;stroke:rgb(0%,0%,0%);stroke-opacity:1;stroke-miterlimit:4;" d="M 16.000057 37.49952 L 14.000179 51.499699 L 17.999935 67.999984 L 12.000301 87.999797 L 3.999756 107.500415 L 14.500407 111.500171 L 35.99987 127.500228 " transform="matrix(3.779528,0,0,3.779528,0,0)"/>
<path style="fill:none;stroke-width:2;stroke-linecap:butt;stroke-linejoin:miter;stroke:rgb(0%,0%,0%);stroke-opacity:1;stroke-miterlimit:4;" d="M 58.499788 121.000366 L 42.999959 85.000496 L 28.499552 76.999951 L 21.000269 60.999894 " transform="matrix(3.779528,0,0,3.779528,0,0)"/>
<path style="fill:none;stroke-width:2;stroke-linecap:butt;stroke-linejoin:miter;stroke:rgb(0%,0%,0%);stroke-opacity:1;stroke-miterlimit:4;" d="M 19.999813 40.499854 L 5.500439 55.999683 L 3.499528 77.500179 L 9.500195 93.500236 " transform="matrix(3.779528,0,0,3.779528,0,0)"/>
<path style="fill:none;stroke-width:2;stroke-linecap:butt;stroke-linejoin:miter;stroke:rgb(0%,0%,0%);stroke-opacity:1;stroke-miterlimit:4;" d="M 51.999927 127.500228 L 50.000049 118.000033 L 61.500122 97.499992 L 65.499878 65.499878 L 67.999984 49.499821 L 69.999862 33.499764 " transform="matrix(3.779528,0,0,3.779528,0,0)"/>
<path style="fill:none;stroke-width:2;stroke-linecap:butt;stroke-linejoin:miter;stroke:rgb(0%,0%,0%);stroke-opacity:1;stroke-miterlimit:4;" d="M 73.000195 28.000358 L 69.499634 44.000415 " transform="matrix(3.779528,0,0,3.779528,0,0)"/>
<path style="fill:none;stroke-width:2;stroke-linecap:butt;stroke-linejoin:miter;stroke:rgb(0%,0%,0%);stroke-opacity:1;stroke-miterlimit:4;" d="M 80.999707 41.500309 L 97.499992 35.499642 " transform="matrix(3.779528,0,0,3.779528,0,0)"/>
<path style="fill:none;stroke-width:2;stroke-linecap:butt;stroke-linejoin:miter;stroke:rgb(0%,0%,0%);stroke-opacity:1;stroke-miterlimit:4;" d="M 105.000309 50.000049 L 103.000431 41.999504 L 96.999764 37.999748 L 91.00013 21.999691 L 78.999829 23.999569 " transform="matrix(3.779528,0,0,3.779528,0,0)"/>
<path style="fill:none;stroke-width:2;stroke-linecap:butt;stroke-linejoin:miter;stroke:rgb(0%,0%,0%);stroke-opacity:1;stroke-miterlimit:4;" d="M 78.000407 32.999536 L 85.999919 49.499821 " transform="matrix(3.779528,0,0,3.779528,0,0)"/>
<path style="fill:none;stroke-width:2;stroke-linecap:butt;stroke-linejoin:miter;stroke:rgb(0%,0%,0%);stroke-opacity:1;stroke-miterlimit:4;" d="M 125.999544 16.500285 L 142.499829 28.99978 " transform="matrix(3.779528,0,0,3.779528,0,0)"/>
<path style="fill:none;stroke-width:2;stroke-linecap:butt;stroke-linejoin:miter;stroke:rgb(0%,0%,0%);stroke-opacity:1;stroke-miterlimit:4;" d="M 128.999878 19.499585 L 123.000244 35.499642 L 113.500049 51.499699 L 101.499748 67.499756 L 98.00022 82.999585 L 91.999552 99.49987 L 91.999552 115.499927 L 94.000464 132.000212 L 94.000464 148.000269 L 109.999487 158.499886 L 125.999544 148.500496 L 135.999967 139.000301 L 153.499674 128.999878 L 169.499731 112.499593 " transform="matrix(3.779528,0,0,3.779528,0,0)"/>
<path style="fill:none;stroke-width:2;stroke-linecap:butt;stroke-linejoin:miter;stroke:rgb(0%,0%,0%);stroke-opacity:1;stroke-miterlimit:4;" d="M 197.50009 110.999943 L 199.499967 127 L 201.499845 143.500285 " transform="matrix(3.779528,0,0,3.779528,0,0)"/>
<path style="fill:none;stroke-width:2;stroke-linecap:butt;stroke-linejoin:miter;stroke:rgb(0%,0%,0%);stroke-opacity:1;stroke-miterlimit:4;" d="M 252.999544 87.999797 L 253.499772 71.499512 L 254 67.999984 " transform="matrix(3.779528,0,0,3.779528,0,0)"/>
<path style="fill:none;stroke-width:2;stroke-linecap:butt;stroke-linejoin:miter;stroke:rgb(0%,0%,0%);stroke-opacity:1;stroke-miterlimit:4;" d="M 246.99991 68.500212 L 246.99991 146.999813 L 247.500138 162.99987 L 248.000366 179.500155 L 248.000366 227.500326 " transform="matrix(3.779528,0,0,3.779528,0,0)"/>
<path style="fill:none;stroke-width:2;stroke-linecap:butt;stroke-linejoin:miter;stroke:rgb(0%,0%,0%);stroke-opacity:1;stroke-miterlimit:4;" d="M 327.500423 186.000016 L 320.000106 178.000505 L 325.499512 162.000448 L 335.499935 146.499585 L 339.499691 130.499528 L 343.50048 114.500505 L 347.500236 98.500448 " transform="matrix(3.779528,0,0,3.779528,0,0)"/>
<path style="fill:none;stroke-width:2;stroke-linecap:butt;stroke-linejoin:miter;stroke:rgb(0%,0%,0%);stroke-opacity:1;stroke-miterlimit:4;" d="M 369.499927 70.50009 L 385.499984 70.50009 L 401.500041 71.000317 L 409.499552 87.000374 L 409.499552 134.999512 L 411.500464 150.500374 L 416.000448 162.499642 L 432.000505 132.000212 L 447.999528 107.999609 L 463.999585 116.000155 L 479.999642 121.499561 L 495.999699 131.499984 " transform="matrix(3.779528,0,0,3.779528,0,0)"/>
<path style="fill:none;stroke-width:2;stroke-linecap:butt;stroke-linejoin:miter;stroke:rgb(0%,0%,0%);stroke-opacity:1;stroke-miterlimit:4;" d="M 483.500203 131.499984 L 451.50009 115.499927 " transform="matrix(3.779528,0,0,3.779528,0,0)"/>
<path style="fill:none;stroke-width:2;stroke-linecap:butt;stroke-linejoin:miter;stroke:rgb(0%,0%,0%);stroke-opacity:1;stroke-miterlimit:4;" d="M 448.499756 112.499593 L 441.000472 128.49965 L 432.999927 144.999935 L 422.999504 161.50022 L 418.999748 177.500277 L 418.999748 209.500391 L 445.000228 225.500448 L 464.499813 241.000277 L 470.50048 250.999666 L 493.000399 262.49974 L 504.999666 274.500041 L 498.499805 296.999959 L 480.49987 314.999894 L 461.999707 331.500179 L 461.500513 347.500236 L 487.499959 355.499748 L 491.999943 371.499805 L 474.000008 399.500163 L 456.000073 415.50022 L 443.999772 431.500277 L 438.000138 447.999528 L 436.00026 462.499935 L 443.999772 478.499992 L 453.499967 493.999821 L 475.499658 509.999878 " transform="matrix(3.779528,0,0,3.779528,0,0)"/>
<path style="fill:none;stroke-width:2;stroke-linecap:butt;stroke-linejoin:miter;stroke:rgb(0%,0%,0%);stroke-opacity:1;stroke-miterlimit:4;" d="M 480.49987 125.50035 L 448.499756 109.500293 " transform="matrix(3.779528,0,0,3.779528,0,0)"/>
<path style="fill:none;stroke-width:2;stroke-linecap:butt;stroke-linejoin:miter;stroke:rgb(0%,0%,0%);stroke-opacity:1;stroke-miterlimit:4;" d="M 445.000228 107.999609 L 434.999805 123.500472 L 427.499487 139.499495 L 418.000326 155.499552 L 428.499943 149.499919 L 444.5 121.999788 L 461.000285 118.000033 L 477.000342 128.000456 L 492.500171 135.999967 L 508.500228 144.000513 " transform="matrix(3.779528,0,0,3.779528,0,0)"/>
<path style="fill:none;stroke-width:2;stroke-linecap:butt;stroke-linejoin:miter;stroke:rgb(0%,0%,0%);stroke-opacity:1;stroke-miterlimit:4;" d="M 395.999601 55.00026 L 395.999601 48.999593 L 379.999544 46.999715 " transform="matrix(3.779528,0,0,3.779528,0,0)"/>
<path style="fill:none;stroke-width:2;stroke-linecap:butt;stroke-linejoin:miter;stroke:rgb(0%,0%,0%);stroke-opacity:1;stroke-miterlimit:4;" d="M 393.499495 49.499821 L 395.500407 51.499699 L 409.499552 67.499756 L 403.499919 85.000496 L 393.499495 96.999764 L 391.499618 112.499593 L 395.999601 122.500016 L 404.500374 130.000334 L 407.00048 146.000391 L 401.500041 146.000391 L 411.999658 164.000326 L 413.999536 180.000382 L 413.500342 196.000439 L 409.000358 211.500269 L 382.49965 233.499959 L 370.500382 250.000244 L 368.000277 265.500073 L 375.999788 281.50013 L 393.999723 296.999959 L 400.000391 315.500122 L 395.999601 333.500057 L 377.999666 349.500114 L 370.000155 364.999943 L 359.999731 368.999699 L 374.500138 353.49987 L 390.500195 337.499813 L 406.500252 325.000317 L 422.500309 325.000317 L 438.500366 330.999951 L 464.499813 329.500301 L 496.499927 301.499943 L 502.499561 297.500187 " transform="matrix(3.779528,0,0,3.779528,0,0)"/>
<path style="fill:none;stroke-width:2;stroke-linecap:butt;stroke-linejoin:miter;stroke:rgb(0%,0%,0%);stroke-opacity:1;stroke-miterlimit:4;" d="M 307.999805 84.000041 L 304.000049 67.999984 " transform="matrix(3.779528,0,0,3.779528,0,0)"/>
<path style="fill:none;stroke-width:2;stroke-linecap:butt;stroke-linejoin:miter;stroke:rgb(0%,0%,0%);stroke-opacity:1;stroke-miterlimit:4;" d="M 297.500187 68.500212 L 301.499943 84.500269 L 302.999593 100.500326 L 302.999593 116.500382 L 302.500399 132.000212 L 304.500277 148.000269 " transform="matrix(3.779528,0,0,3.779528,0,0)"/>
<path style="fill:none;stroke-width:2;stroke-linecap:butt;stroke-linejoin:miter;stroke:rgb(0%,0%,0%);stroke-opacity:1;stroke-miterlimit:4;" d="M 256.500106 90.499902 L 257.000334 74.499845 " transform="matrix(3.779528,0,0,3.779528,0,0)"/>
<path style="fill:none;stroke-width:2;stroke-linecap:butt;stroke-linejoin:miter;stroke:rgb(0%,0%,0%);stroke-opacity:1;stroke-miterlimit:4;" d="M 309.999683 64.000228 L 311.500366 80.000285 L 311.999561 96.499536 " transform="matrix(3.779528,0,0,3.779528,0,0)"/>
<path style="fill:none;stroke-width:2;stroke-linecap:butt;stroke-linejoin:miter;stroke:rgb(0%,0%,0%);stroke-opacity:1;stroke-miterlimit:4;" d="M 325.000317 62.499544 L 327.000195 78.499601 L 325.000317 94.000464 L 325.000317 109.999487 L 322.500212 130.000334 L 312.499788 145.500163 L 308.500033 161.50022 L 308.500033 178.000505 L 314.499666 193.999528 L 311.000138 200.000195 L 334.999707 205.999829 L 329.000073 221.999886 L 327.000195 237.499715 L 322.500212 253.499772 L 318.500456 282.000358 L 320.000106 298.000415 L 344.499902 314.000472 " transform="matrix(3.779528,0,0,3.779528,0,0)"/>
</g>
</svg>
