<svg xmlns="http://www.w3.org/2000/svg" width="512mm" height="512mm" viewBox="0 0 512 512" version="1.1"><polyline points="341.5,24.5,365.5,40.5,373.5,56.5,375.5,72.5,377.5,89.0,381.5,105.0,385.5,121.0,387.5,137.0,391.0,153.0,395.0,168.5,396.5,184.5,401.0,200.5,405.0,216.5,407.0,232.5,411.5,248.0,413.5,263.5,417.5,279.0,421.5,295.0,427.5,311.0,427.5,326.5,418.0,342.5,404.0,358.5,396.5,370.5,412.5,361.0,428.5,343.0" stroke="black" stroke-width="2" fill="none" />
<polyline points="436.0,341.5,420.0,361.5,404.0,379.5,388.0,383.5,384.0,375.5,368.0,381.0,352.5,383.0,336.5,385.0,320.0,387.5,304.0,389.5,288.0,394.0,271.5,396.0,256.0,396.0,240.0,398.0,224.0,400.0,208.0,402.0,192.0,406.0,176.0,408.0,160.0,407.5,144.0,409.5,128.0,414.0,112.5,414.0,96.5,416.0,80.5,418.0,64.5,422.0,48.5,424.5,32.5,432.5" stroke="black" stroke-width="2" fill="none" />
<polyline points="38.0,433.5,54.0,447.5,70.0,457.5,86.0,469.5,102.0,490.0,118.0,502.0" stroke="black" stroke-width="2" fill="none" />
<polyline points="121.0,475.0,137.0,471.0,153.0,473.0,154.5,468.5,168.0,484.0" stroke="black" stroke-width="2" fill="none" />
<polyline points="159.5,507.5,185.0,491.5,225.5,483.5,239.5,467.5,223.5,471.5,207.5,473.5,191.5,474.0" stroke="black" stroke-width="2" fill="none" />
<polyline points="230.5,450.5,246.5,454.0,248.5,449.5" stroke="black" stroke-width="2" fill="none" />
<polyline points="240.0,444.5,256.0,452.0,272.0,447.5,288.0,443.5,321.5,449.5,347.5,455.5,363.5,451.0,380.0,449.0" stroke="black" stroke-width="2" fill="none" />
<polyline points="393.0,441.5,377.0,431.5,361.0,427.0" stroke="black" stroke-width="2" fill="none" />
<polyline points="358.5,418.5,351.0,422.5,371.0,438.5,379.0,440.0,393.0,448.0,397.0,457.5,405.0,463.5,421.0,457.0,437.5,451.0,419.5,451.0,407.5,457.5,423.5,451.5,439.5,443.5,455.5,430.0,471.0,426.5,487.0,424.5,503.0,429.0" stroke="black" stroke-width="2" fill="none" />
<polyline points="495.5,462.0,495.5,462.0,503.5,446.0,487.5,449.5,472.0,445.5" stroke="black" stroke-width="2" fill="none" />
<polyline points="463.5,431.5,479.5,429.5" stroke="black" stroke-width="2" fill="none" />
<polyline points="501.5,440.0,486.0,444.5,470.0,444.5,464.0,436.0,454.0,435.5" stroke="black" stroke-width="2" fill="none" />
<polyline points="442.5,452.5,432.5,454.5,420.5,478.5,392.5,492.5,384.5,486.5,364.5,492.5,380.0,482.0,408.0,480.0,424.0,475.5,440.0,470.0,456.0,468.0,471.5,462.0,487.0,457.5,503.0,451.5,487.0,457.5,451.0,474.0" stroke="black" stroke-width="2" fill="none" />
<polyline points="466.5,495.5,482.5,488.0,498.0,476.0,503.5,466.0,483.5,482.0,461.0,492.0,477.0,484.0,493.0,472.0,509.0,464.0,489.0,484.0" stroke="black" stroke-width="2" fill="none" />
<polyline points="504.5,402.0,482.5,385.5,458.0,394.0,442.0,394.0" stroke="black" stroke-width="2" fill="none" />
<polyline points="433.5,380.5,449.5,378.5,465.5,375.0,481.5,373.0,497.0,377.0" stroke="black" stroke-width="2" fill="none" />
<polyline points="511.0,377.5,494.5,369.5,478.5,367.5,463.0,369.5,447.0,373.5,431.0,379.5,415.0,387.5,399.0,391.5,383.0,395.5,366.5,399.5,356.5,387.5,340.5,389.5,324.5,394.0,308.0,394.5,292.0,399.0,276.0,401.0,259.5,403.0,243.5,405.0,227.5,406.5,211.5,409.0,195.5,410.5,179.5,412.5,163.5,414.5,147.0,414.0,131.0,418.0,107.5,420.0,91.5,421.5,76.0,423.5,60.0,427.0,44.0,429.0" stroke="black" stroke-width="2" fill="none" />
<polyline points="43.5,434.0,59.5,444.0,76.0,456.0,92.0,470.0,108.0,488.5,124.0,500.5,140.0,502.5,156.5,498.0,172.5,498.0,188.5,491.5,204.0,490.0,220.0,484.0" stroke="black" stroke-width="2" fill="none" />
<polyline points="216.5,509.5,246.5,483.0" stroke="black" stroke-width="2" fill="none" />
<polyline points="285.0,482.0,269.5,490.0,256.0,490.0,240.0,486.5,223.5,493.0,241.5,485.0,276.0,481.0,278.0,460.5" stroke="black" stroke-width="2" fill="none" />
<polyline points="280.5,455.5,296.5,459.5,312.5,458.0" stroke="black" stroke-width="2" fill="none" />
<polyline points="299.5,450.5,283.5,454.5" stroke="black" stroke-width="2" fill="none" />
<polyline points="290.5,419.0,274.0,421.0,258.0,421.0" stroke="black" stroke-width="2" fill="none" />
<polyline points="254.0,420.5,270.0,414.5,286.0,414.5,302.0,412.0,305.5,415.5,321.5,413.5,343.5,405.0,359.5,409.0,376.0,409.0" stroke="black" stroke-width="2" fill="none" />
<polyline points="380.0,428.0,410.0,444.0" stroke="black" stroke-width="2" fill="none" />
<polyline points="419.5,399.0,435.5,404.5,439.5,409.0,455.5,405.0,462.0,413.0,462.0,409.0" stroke="black" stroke-width="2" fill="none" />
<polyline points="482.0,408.5,466.0,402.5,450.0,410.0,434.5,410.0,416.5,408.0,400.5,398.0,384.0,400.0,366.0,394.0,350.5,396.5,335.0,404.5,319.0,404.0,303.0,406.0,286.5,408.0,270.5,407.5,254.0,410.0,238.0,412.0,221.5,416.0,206.0,418.0,190.0,420.5,174.0,420.5,157.5,425.0,141.5,428.5,125.5,430.5,109.5,430.0,93.5,431.0,77.5,441.0" stroke="black" stroke-width="2" fill="none" />
<polyline points="83.0,440.5,99.0,446.5,114.5,453.0,130.5,447.0,146.0,451.5,161.5,449.5,177.5,445.5,194.0,447.5,210.0,449.5,226.0,449.5,228.0,439.5,244.0,434.0,260.0,432.5,276.0,434.5,291.5,438.0,307.5,442.0,324.0,450.0" stroke="black" stroke-width="2" fill="none" />
<polyline points="361.0,446.5,330.5,470.5,306.5,480.0,272.5,488.0,242.0,506.5,230.0,510.5,246.0,504.0,262.0,499.5,277.5,497.0,293.5,490.5,297.5,478.0,313.5,476.5,329.5,469.0,345.5,463.5,351.0,476.0,367.0,470.5,383.0,467.0" stroke="black" stroke-width="2" fill="none" />
<polyline points="366.0,481.5,350.5,487.5,345.0,496.0,328.5,490.5,312.0,499.0,295.5,507.0,303.5,503.5,315.5,483.5,346.0,469.5,330.5,479.5,314.5,485.0,311.0,474.5,309.0,470.5,293.5,474.5,277.5,480.5,261.5,482.5,245.5,494.5,233.5,495.0,217.5,499.0,219.0,485.0,209.0,481.0,193.0,481.0,183.0,471.0,199.0,469.0,196.5,465.5,180.5,469.0,164.5,467.0,148.5,457.0" stroke="black" stroke-width="2" fill="none" />
<polyline points="158.0,429.0,174.0,433.0,190.5,433.0,206.5,434.5" stroke="black" stroke-width="2" fill="none" />
<polyline points="200.0,429.0,184.0,425.5,168.0,425.5" stroke="black" stroke-width="2" fill="none" />
<polyline points="145.5,426.5,139.5,446.5,147.0,458.5,167.0,464.5,190.5,480.0,190.5,470.0,206.5,463.5,223.0,463.5,239.0,461.5,249.5,459.0,265.5,459.0,275.5,451.0,291.5,447.0" stroke="black" stroke-width="2" fill="none" />
<polyline points="352.0,423.0,368.5,420.5,385.0,433.0,401.0,441.0,417.5,443.0,434.0,437.5,466.5,445.0,456.5,469.0,459.0,478.5,461.0,476.0,429.0,499.5,439.5,493.5,443.0,497.5" stroke="black" stroke-width="2" fill="none" />
<polyline points="414.0,504.0,398.0,510.0" stroke="black" stroke-width="2" fill="none" />
<polyline points="398.0,505.5,413.5,499.5" stroke="black" stroke-width="2" fill="none" />
<polyline points="357.5,498.0,373.5,492.0,387.5,488.0,403.5,476.0,419.5,471.5,440.0,477.0,456.0,473.5,472.5,467.5" stroke="black" stroke-width="2" fill="none" />
<polyline points="508.5,404.0,492.5,392.5,476.5,382.0,460.0,384.0,444.0,384.0,428.0,386.0" stroke="black" stroke-width="2" fill="none" />
<polyline points="417.0,394.0,433.0,394.0,449.5,389.5,465.5,386.0,481.5,392.0,497.5,404.0" stroke="black" stroke-width="2" fill="none" />
<polyline points="495.5,404.5,473.5,388.5" stroke="black" stroke-width="2" fill="none" />
<polyline points="443.0,428.0,423.0,414.5,395.0,398.5" stroke="black" stroke-width="2" fill="none" />
<polyline points="398.5,404.5,390.5,413.0,374.5,417.0,358.0,417.0,342.0,416.5,326.0,418.5,310.0,420.5,293.5,424.0,277.5,426.0,261.5,428.0,245.5,429.5,230.0,433.5,223.5,425.5,207.5,423.5,191.5,439.5,175.5,441.5,159.5,443.0,153.5,439.5,137.5,438.0,122.0,444.0,106.0,446.5,90.0,438.0" stroke="black" stroke-width="2" fill="none" />
<polyline points="98.5,431.5,90.0,441.5,112.0,441.5,116.0,435.0" stroke="black" stroke-width="2" fill="none" />
<polyline points="103.5,471.5,123.5,487.5,130.0,481.5,146.0,484.0" stroke="black" stroke-width="2" fill="none" />
<polyline points="170.0,484.0,154.5,488.0,139.0,490.5,123.0,486.5,107.5,476.5" stroke="black" stroke-width="2" fill="none" />
<polyline points="104.5,472.0,120.5,468.0,136.5,463.5,152.0,465.0,168.0,473.0,177.5,461.0,193.5,456.5" stroke="black" stroke-width="2" fill="none" />
<polyline points="102.0,504.5,86.0,490.5" stroke="black" stroke-width="2" fill="none" />
<polyline points="81.5,490.0,97.5,496.0" stroke="black" stroke-width="2" fill="none" />
<polyline points="97.0,504.0,83.0,487.5,73.0,471.5" stroke="black" stroke-width="2" fill="none" />
<polyline points="88.5,486.5,107.0,502.5" stroke="black" stroke-width="2" fill="none" />
<polyline points="51.0,499.5,35.0,484.0,19.5,466.0" stroke="black" stroke-width="2" fill="none" />
<polyline points="21.5,462.5,35.5,478.5,51.5,494.5,69.5,510.5" stroke="black" stroke-width="2" fill="none" />
<polyline points="83.0,499.5,67.0,487.5,51.0,471.5,35.5,456.0,20.0,442.0" stroke="black" stroke-width="2" fill="none" />
<polyline points="18.0,438.5,38.0,426.0,45.5,442.5,67.5,458.5,74.0,474.5,90.5,476.5,104.5,492.5,126.5,508.0,148.5,506.0,166.5,505.5,182.5,501.5,198.5,499.5,214.5,492.0,230.5,478.0,246.5,472.0,266.5,464.0,282.5,470.0,298.0,466.0,314.0,462.0,330.0,459.5,346.0,451.5,362.0,445.5,374.0,438.0" stroke="black" stroke-width="2" fill="none" />
<polyline points="349.5,481.0,331.5,497.0,337.5,499.5" stroke="black" stroke-width="2" fill="none" />
<polyline points="364.5,367.5,348.5,367.5,332.5,369.5,316.5,371.5,300.5,373.0,282.5,375.0,266.5,381.0,248.5,379.5,232.5,381.5,216.0,383.0,200.0,385.0,182.0,387.5,166.0,389.5,148.0,391.5,132.0,393.0,116.0,395.5,100.0,395.5,84.5,398.0,66.5,399.5,51.0,401.5,35.5,406.0,20.0,400.0,4.0,386.0" stroke="black" stroke-width="2" fill="none" />
<polyline points="4.0,380.0,3.5,396.0,10.0,412.5,4.0,428.5" stroke="black" stroke-width="2" fill="none" />
<polyline points="18.5,447.0,34.0,461.5,50.0,477.5,66.0,492.0,82.5,506.0" stroke="black" stroke-width="2" fill="none" />
<polyline points="65.5,503.5,49.5,489.0,33.5,472.5,17.5,456.0" stroke="black" stroke-width="2" fill="none" />
<polyline points="7.5,457.5,9.5,441.5,25.5,423.5,27.5,428.0,19.0,444.5,37.0,460.5,53.0,477.0,71.5,493.0,91.5,509.0" stroke="black" stroke-width="2" fill="none" />
<polyline points="35.5,495.0,25.5,487.0,9.5,467.0" stroke="black" stroke-width="2" fill="none" />
<polyline points="9.0,470.0,21.0,485.5,39.5,501.5" stroke="black" stroke-width="2" fill="none" />
<polyline points="19.0,503.5,3.0,487.5" stroke="black" stroke-width="2" fill="none" />
<polyline points="10.0,487.5,24.5,503.5" stroke="black" stroke-width="2" fill="none" />
<polyline points="35.0,509.0,19.0,495.5,3.0,480.0" stroke="black" stroke-width="2" fill="none" />
<polyline points="8.5,479.5,24.5,495.5" stroke="black" stroke-width="2" fill="none" />
<polyline points="35.0,501.5,19.0,488.0,3.0,470.0" stroke="black" stroke-width="2" fill="none" />
<polyline points="28.0,459.0,44.0,475.0,61.5,491.0,79.5,507.0" stroke="black" stroke-width="2" fill="none" />
<polyline points="53.5,502.5,35.5,486.0,26.0,476.0,18.5,459.5,5.0,442.0,11.5,426.0,15.5,410.0,3.5,404.0" stroke="black" stroke-width="2" fill="none" />
<polyline points="3.0,394.5,13.0,396.0,27.0,424.0,13.0,439.5,4.5,455.5,8.0,459.5,6.0,475.5,5.5,491.5,21.5,507.5" stroke="black" stroke-width="2" fill="none" />
<polyline points="44.5,434.5,66.5,450.5,86.5,466.5,100.5,482.5,120.5,498.5" stroke="black" stroke-width="2" fill="none" />
<polyline points="3.0,379.5,19.0,393.5,34.5,400.0,50.5,398.0,66.5,394.0,82.5,394.0,98.0,392.0,114.0,390.5,130.0,388.5,146.0,387.0,162.0,385.0,178.0,383.0,194.5,381.0,210.5,380.5,227.0,378.5,243.0,374.0,259.0,374.0,275.0,371.5,290.5,369.5,306.5,367.5,322.5,365.5,338.5,363.5,355.0,361.5,371.0,361.5,386.5,357.0" stroke="black" stroke-width="2" fill="none" />
<polyline points="376.5,302.0,360.5,309.5,344.5,309.5,328.5,311.5,312.5,311.5,295.0,310.0,279.0,310.5,263.0,312.5,247.5,312.5,231.5,318.5,215.5,320.5,199.0,322.5,183.0,324.5,167.0,324.5,150.5,326.5,134.5,328.5,118.5,328.5,103.0,330.5,87.0,332.5,71.0,332.5,55.0,334.0,39.0,333.5,19.0,329.5,3.0,324.0" stroke="black" stroke-width="2" fill="none" />
<polyline points="3.0,333.5,18.5,336.0,35.0,330.0,51.0,328.0,67.0,328.0,83.0,326.0,99.0,326.5,114.5,324.5,130.5,322.5,146.5,323.0,162.5,321.0,178.5,319.0,194.5,317.0,210.5,315.5,227.0,315.0,247.0,319.0,263.0,317.0,279.0,317.0,295.0,315.0,311.5,309.0,327.5,307.0,343.5,306.5,359.5,304.5" stroke="black" stroke-width="2" fill="none" />
<polyline points="352.0,281.5,335.5,287.5,320.0,289.5,304.5,290.0,286.5,292.0,270.5,292.5,254.5,294.5,238.0,296.5,222.0,296.5,205.5,298.5,185.5,300.0,169.5,300.0,153.5,302.0,137.0,304.0,121.0,304.0,105.5,306.0,88.0,308.0,72.0,308.5,55.5,311.0,37.5,313.0,26.0,303.0,24.0,286.5,20.0,271.0,18.0,255.0,16.0,239.5,14.0,223.5,10.0,207.0,8.0,191.0,17.5,178.5,29.5,170.5,27.5,154.0,11.5,162.0" stroke="black" stroke-width="2" fill="none" />
<polyline points="6.0,163.5,22.0,149.5" stroke="black" stroke-width="2" fill="none" />
<polyline points="16.0,149.0,6.0,165.5,8.0,181.5,4.0,197.5,6.0,213.5,4.0,229.5,10.0,235.5,12.5,251.5,14.5,267.5,19.0,283.5,21.0,300.0,25.0,309.5,41.0,305.5,57.0,304.0,73.0,304.5,89.0,302.5,105.0,300.5,120.5,300.5,136.5,298.5,152.5,296.5,169.0,296.5,185.0,294.5,201.0,294.5,217.5,292.5,233.5,290.5,249.5,290.5,265.0,288.5,281.0,286.5,297.0,286.0,312.5,283.5,328.5,283.5,344.5,281.5" stroke="black" stroke-width="2" fill="none" />
<polyline points="265.0,231.5,248.5,241.0,244.5,239.0,236.5,223.0,250.0,207.0,252.0,191.5,267.5,186.0,251.0,183.5" stroke="black" stroke-width="2" fill="none" />
<polyline points="264.0,179.5,268.0,195.5,268.0,212.0,266.0,228.0,250.0,229.5" stroke="black" stroke-width="2" fill="none" />
<polyline points="251.0,215.5,259.0,231.5,251.0,229.5,251.0,207.5,235.0,226.0" stroke="black" stroke-width="2" fill="none" />
<polyline points="136.0,190.5,137.5,206.0,137.5,221.5,135.5,237.5,124.0,238.0" stroke="black" stroke-width="2" fill="none" />
<polyline points="112.5,247.5,116.5,251.5,103.0,236.0,111.0,220.5,115.0,218.5,109.5,238.5,127.5,224.5,121.5,218.5,123.0,202.5,139.0,192.5,123.0,190.5" stroke="black" stroke-width="2" fill="none" />
<polyline points="131.5,197.5,131.5,213.5,127.5,235.5,125.5,251.0,131.5,247.0" stroke="black" stroke-width="2" fill="none" />
<polyline points="205.0,336.5,199.0,352.5,207.0,360.0,223.0,354.0" stroke="black" stroke-width="2" fill="none" />
<polyline points="213.5,342.5,213.5,356.5,219.5,356.5,217.0,340.5,212.5,338.5,196.5,345.0" stroke="black" stroke-width="2" fill="none" />
<polyline points="30.0,177.5,14.0,180.0,36.0,168.0,18.0,176.5,2.0,176.5" stroke="black" stroke-width="2" fill="none" />
<polyline points="3.0,130.5,19.0,128.5,35.0,122.5,51.0,122.0,79.0,124.0,95.0,117.5,111.0,118.0,135.0,114.0,151.0,114.5,167.5,114.5,183.5,112.5,199.0,110.5,215.0,110.5,230.5,110.0,248.0,114.0,264.0,111.5,279.5,111.5,295.5,109.5,311.5,109.5" stroke="black" stroke-width="2" fill="none" />
<polyline points="319.0,106.0,319.5,122.0,323.0,137.5,325.5,153.5,327.5,169.5,332.0,185.5,334.0,201.5,336.5,218.0,340.5,234.0,343.0,250.5,347.0,266.5" stroke="black" stroke-width="2" fill="none" />
<polyline points="369.0,302.0,371.5,286.0,370.0,270.0,366.5,254.5,364.5,238.5,360.5,223.0,358.5,207.0,354.0,191.0,352.0,174.5,348.0,158.5,346.0,142.5,343.5,126.0,339.5,110.0,341.5,94.0,337.5,87.5,322.0,79.5,305.5,81.5,289.5,81.5,273.5,83.5,257.5,83.5,241.5,85.0,225.5,85.5,209.5,86.0,194.0,86.0,178.0,88.5,162.0,88.0,146.0,90.0,130.0,90.0,113.5,90.0,98.0,92.0,81.5,92.0,65.5,94.5,49.5,94.5,33.5,97.0,18.0,97.0,2.0,96.5" stroke="black" stroke-width="2" fill="none" />
<polyline points="3.0,100.5,19.0,100.5,34.5,100.5,50.5,98.5,70.5,98.5,86.5,98.5,102.5,96.0,118.0,96.0,136.0,94.0,152.0,94.0,168.5,94.0,184.5,92.0,200.5,91.5,216.0,91.0,232.0,91.0,249.5,89.0,265.5,88.5,283.0,87.0,299.0,87.0,317.5,83.0,329.5,87.5" stroke="black" stroke-width="2" fill="none" />
<polyline points="327.5,81.0,323.5,97.0,343.5,97.0,345.5,113.5,350.0,130.0,352.0,146.5,356.0,162.5,358.0,178.5,362.0,194.5,364.5,210.5,367.0,226.5,371.0,242.5,372.5,258.5,376.5,274.5,378.5,290.5,372.5,306.5" stroke="black" stroke-width="2" fill="none" />
<polyline points="418.5,344.5,402.5,362.5,412.5,362.5,426.5,346.5,436.5,331.0" stroke="black" stroke-width="2" fill="none" />
<polyline points="441.0,333.0,432.5,349.0,419.0,365.0,422.5,369.0,422.5,392.5,440.0,402.5,444.5,418.5,443.0,438.0,417.5,460.0,395.5,481.5,363.5,492.0,353.5,490.0,335.5,502.0,337.0,494.0,352.5,483.5,358.0,460.0,361.5,466.0,377.5,460.5,397.0,457.0,412.5,451.0,428.5,445.0,444.5,438.5,455.0,420.5,471.5,416.5" stroke="black" stroke-width="2" fill="none" />
<polyline points="352.0,272.5,350.0,256.0,346.0,240.0,344.0,223.5,340.0,207.5,338.0,192.0,335.5,175.5,331.5,159.5,329.5,143.5,328.0,127.5,324.0,111.5" stroke="black" stroke-width="2" fill="none" />
<polyline points="322.5,105.0,306.0,103.0,290.0,105.0,273.5,105.0,257.0,107.0,241.5,107.0,225.5,113.0,209.5,115.5,194.0,115.5,177.5,118.0,161.5,120.0,145.5,120.0,127.5,116.5,111.5,122.5,95.5,124.5,77.0,120.5,61.0,126.5,45.5,126.0,29.5,128.0" stroke="black" stroke-width="2" fill="none" />
<polyline points="0.5,40.5,17.0,40.5,33.0,38.5,49.0,38.5,65.5,38.0,81.5,35.5,97.5,35.0,113.5,29.0,129.5,29.0,145.5,28.5,162.0,28.5,178.0,28.5,194.5,26.5,210.5,27.0,226.5,27.0,242.5,25.0,258.5,25.0,274.5,25.5,290.5,25.5,306.5,23.5,322.5,23.5,338.5,22.0,354.0,30.0,369.5,44.0" stroke="black" stroke-width="2" fill="none" />
<polyline points="357.5,37.5,341.5,27.5,325.5,27.5,309.5,29.5,294.0,29.5,278.5,29.5,262.5,31.5,246.5,31.5,230.5,31.5,214.0,31.5,197.5,34.0,181.5,34.0,165.5,34.0,149.5,34.0,134.0,35.5,118.0,35.5,102.0,35.5,82.0,31.5,66.0,31.5,50.0,33.5,34.0,33.5,17.5,33.5,1.5,33.5" stroke="black" stroke-width="2" fill="none" />
<polyline points="341.0,29.5,361.0,45.5,369.5,61.5,371.5,77.5,374.0,93.0,378.0,109.5,382.0,125.5,384.0,142.0,388.0,158.0,390.0,174.5,394.0,190.5,398.0,207.0,401.5,223.0,403.5,238.5,407.5,254.5,409.5,270.0,414.0,286.0,417.5,302.0,422.0,318.0,418.0,334.0,406.0,350.0,388.0,366.5,372.0,366.0,387.5,366.0,403.5,351.5,419.5,329.0" stroke="black" stroke-width="2" fill="none" />
</svg>