<svg xmlns="http://www.w3.org/2000/svg" width="512mm" height="512mm" viewBox="0 0 512 512" version="1.1"><polyline points="345.5,2.5,353.5,18.5,373.5,34.5,383.5,50.5" stroke="black" stroke-width="2" fill="none" />
<polyline points="392.0,24.5,408.0,46.5,424.0,60.5" stroke="black" stroke-width="2" fill="none" />
<polyline points="451.5,62.5,453.5,66.5,459.5,82.5" stroke="black" stroke-width="2" fill="none" />
<polyline points="454.0,75.0,470.5,88.5,487.0,95.0,503.0,95.0" stroke="black" stroke-width="2" fill="none" />
<polyline points="507.5,88.0,491.5,88.0,475.5,84.0,459.5,70.0" stroke="black" stroke-width="2" fill="none" />
<polyline points="461.5,76.0,458.0,60.5" stroke="black" stroke-width="2" fill="none" />
<polyline points="414.0,87.0,398.0,105.0" stroke="black" stroke-width="2" fill="none" />
<polyline points="379.0,113.5,393.5,120.0,404.0,135.5,408.0,151.0,412.5,167.0,414.5,183.0,418.5,199.0,421.0,215.5,421.0,231.5,422.5,247.0,422.5,263.0,422.5,279.5,422.5,295.0,422.0,310.5,420.0,327.0,418.0,343.0,413.5,359.0,409.0,375.0,390.5,393.0,400.5,409.5,408.0,425.5" stroke="black" stroke-width="2" fill="none" />
<polyline points="398.5,447.5,382.5,461.5,366.5,462.0,350.5,442.5" stroke="black" stroke-width="2" fill="none" />
<polyline points="346.5,437.0,362.5,418.5,379.0,412.5,395.5,422.5" stroke="black" stroke-width="2" fill="none" />
<polyline points="402.0,421.5,385.5,407.5,369.5,405.5,353.5,415.5,331.5,435.5,329.5,419.5,322.0,415.5,306.5,419.5,290.5,421.5,274.5,421.5,258.5,421.5,242.0,421.5,225.5,422.0,209.5,418.0,193.5,422.0" stroke="black" stroke-width="2" fill="none" />
<polyline points="202.5,415.0,186.5,431.5,184.0,447.5,178.0,463.5" stroke="black" stroke-width="2" fill="none" />
<polyline points="168.0,454.0,174.0,437.5,166.0,421.5,162.0,411.5,146.0,399.5" stroke="black" stroke-width="2" fill="none" />
<polyline points="146.5,400.5,166.5,416.5,180.5,420.5,180.5,436.5,178.5,452.5,168.5,460.5" stroke="black" stroke-width="2" fill="none" />
<polyline points="167.5,432.5,151.5,416.5,135.5,414.0,119.5,430.0" stroke="black" stroke-width="2" fill="none" />
<polyline points="110.0,421.5,136.0,405.5,118.0,421.0,110.0,441.0,126.0,459.0,142.0,469.0,158.0,469.0,174.0,467.0" stroke="black" stroke-width="2" fill="none" />
<polyline points="165.5,447.5,149.5,463.0,133.5,457.0,117.5,443.0" stroke="black" stroke-width="2" fill="none" />
<polyline points="104.5,450.5,121.0,466.5" stroke="black" stroke-width="2" fill="none" />
<polyline points="133.0,479.5,117.0,470.0,101.0,454.0" stroke="black" stroke-width="2" fill="none" />
<polyline points="99.5,450.0,115.5,460.0" stroke="black" stroke-width="2" fill="none" />
<polyline points="124.0,458.0,110.0,442.0,104.0,425.5,108.0,410.0,110.0,394.0,102.5,378.5,97.0,363.0,95.0,347.0,91.0,331.0,89.0,314.5,86.5,298.5,86.5,282.0,84.5,265.5,82.5,241.0,66.0,249.5,50.0,252.0,34.0,254.0,18.0,254.5,2.0,254.5" stroke="black" stroke-width="2" fill="none" />
<polyline points="3.0,260.0,19.0,259.5,35.0,259.5,51.0,258.0,67.0,256.5,83.0,250.5" stroke="black" stroke-width="2" fill="none" />
<polyline points="84.0,239.0,84.0,223.5,86.0,207.5,78.0,193.5,88.0,179.0,90.0,163.5,94.0,147.5,98.5,132.0,108.5,115.5,121.0,99.5,137.5,100.0,116.0,106.0,100.0,132.0" stroke="black" stroke-width="2" fill="none" />
<polyline points="107.0,127.5,127.0,99.5,115.0,115.5,106.5,131.5,100.0,147.0,96.0,163.0,94.0,179.0,90.0,195.5,90.0,212.0,90.0,228.5,90.0,244.5,90.0,260.0,90.0,275.5,92.0,291.5,91.5,307.5,95.5,323.5,97.5,339.0,102.0,355.0,106.5,371.5,116.5,387.5,136.5,391.5,152.5,396.0,168.0,402.0" stroke="black" stroke-width="2" fill="none" />
<polyline points="160.0,416.0,144.0,405.5,128.0,409.5,115.5,441.5,118.5,429.5,130.5,413.5" stroke="black" stroke-width="2" fill="none" />
<polyline points="145.5,408.5,159.5,424.5,169.5,440.5,161.5,456.5" stroke="black" stroke-width="2" fill="none" />
<polyline points="110.5,465.5,98.0,449.5" stroke="black" stroke-width="2" fill="none" />
<polyline points="115.0,396.0,99.0,364.5" stroke="black" stroke-width="2" fill="none" />
<polyline points="105.0,364.0,121.0,387.5,141.0,387.0,157.0,391.0,173.0,393.0,188.5,393.0,205.0,393.0,221.0,395.0,237.0,395.5,253.0,395.5,269.0,396.0,285.0,395.5,301.0,395.5,317.0,395.5,333.0,395.5,348.5,394.0,364.5,394.5,380.0,388.5,399.5,406.5,415.0,422.5" stroke="black" stroke-width="2" fill="none" />
<polyline points="410.5,449.5,400.5,455.5,384.5,469.5,368.5,479.5,352.5,478.0,336.5,478.5,336.0,468.5,334.0,452.5,338.5,436.5,338.5,420.5,352.5,408.5,380.5,392.5,390.5,377.0,393.0,366.5,376.5,372.5,360.5,374.0,344.5,374.5,352.5,352.0,350.0,336.0,336.0,334.0,320.0,334.0,304.5,333.5,288.5,334.0,272.5,334.0,256.0,334.5,240.0,334.5,224.0,334.5,208.0,334.0,192.0,334.0,175.5,334.0,159.5,332.0" stroke="black" stroke-width="2" fill="none" />
<polyline points="158.0,337.0,164.0,337.0,174.0,343.5,167.5,359.5,167.5,370.0,191.0,374.0,207.0,374.0,223.5,376.5,239.5,376.5,255.5,376.5,271.5,377.0,287.5,374.5,303.5,375.0,319.5,377.0,336.0,375.0,354.0,367.0,368.0,368.5,368.5,368.0" stroke="black" stroke-width="2" fill="none" />
<polyline points="365.5,363.5,363.5,347.5,363.5,333.5,347.5,330.0" stroke="black" stroke-width="2" fill="none" />
<polyline points="338.0,332.0,344.0,348.0,342.0,364.0" stroke="black" stroke-width="2" fill="none" />
<polyline points="330.5,367.5,314.5,368.0,298.0,368.0,281.5,367.5,265.0,367.5,249.0,367.5,233.0,367.0,217.0,367.5,200.5,367.5,184.5,367.5,168.5,373.5,152.5,373.5,143.0,367.5,131.0,367.5,143.0,355.5,143.0,340.0,125.5,332.0" stroke="black" stroke-width="2" fill="none" />
<polyline points="124.0,324.0,139.5,332.0,155.0,345.5,161.0,349.5" stroke="black" stroke-width="2" fill="none" />
<polyline points="137.5,360.5,121.5,366.0" stroke="black" stroke-width="2" fill="none" />
<polyline points="122.5,313.0,138.0,323.5,154.0,325.5,170.0,326.0,186.5,326.0,202.5,326.5,218.5,327.0,234.0,327.0,249.5,327.0,265.5,326.5,281.5,326.5,297.5,326.5,313.5,326.5,329.5,326.5,345.5,326.0,362.0,324.0,378.5,324.0,394.5,317.5" stroke="black" stroke-width="2" fill="none" />
<polyline points="385.0,335.5,369.0,334.0" stroke="black" stroke-width="2" fill="none" />
<polyline points="372.5,336.5,372.5,352.5" stroke="black" stroke-width="2" fill="none" />
<polyline points="360.0,353.5,356.0,353.5,360.5,337.5" stroke="black" stroke-width="2" fill="none" />
<polyline points="397.0,370.5,396.5,386.5,402.5,386.0" stroke="black" stroke-width="2" fill="none" />
<polyline points="386.5,390.5,370.5,399.0,354.0,407.0,338.0,409.0" stroke="black" stroke-width="2" fill="none" />
<polyline points="366.0,407.0,350.0,423.0,343.5,439.0,347.5,455.0,341.5,459.0" stroke="black" stroke-width="2" fill="none" />
<polyline points="308.0,411.5,292.0,416.0,276.5,418.0,257.0,418.5,235.0,416.5,219.5,414.5" stroke="black" stroke-width="2" fill="none" />
<polyline points="216.5,408.0,232.5,408.0,244.5,413.5,260.0,407.0,276.0,407.0,291.5,407.0,307.5,406.5" stroke="black" stroke-width="2" fill="none" />
<polyline points="377.5,411.5,351.5,427.5,350.0,443.5,356.0,460.0" stroke="black" stroke-width="2" fill="none" />
<polyline points="381.5,461.5,399.5,445.5,399.5,429.0,381.5,413.0" stroke="black" stroke-width="2" fill="none" />
<polyline points="381.0,408.0,401.0,423.5" stroke="black" stroke-width="2" fill="none" />
<polyline points="405.0,269.5,403.5,253.5,403.5,237.5,402.0,221.0,402.5,205.0,400.5,189.0,398.5,173.0,396.5,157.5,392.5,143.5,392.5,127.5,404.5,113.5,396.5,97.0,408.5,81.0,422.5,65.0,402.5,49.5,386.5,33.5,370.0,15.0,378.0,11.0,362.0,15.5,346.0,3.5" stroke="black" stroke-width="2" fill="none" />
<polyline points="349.0,1.5,363.0,17.5,363.5,21.5,377.5,39.5,394.0,57.0" stroke="black" stroke-width="2" fill="none" />
<polyline points="426.0,67.5,410.0,55.5,394.0,42.0,378.0,18.5" stroke="black" stroke-width="2" fill="none" />
<polyline points="389.5,1.0,389.5,17.0,395.5,33.0,409.5,49.5,430.0,66.0,418.0,82.5,406.0,98.5,400.0,118.5" stroke="black" stroke-width="2" fill="none" />
<polyline points="361.5,91.5,375.5,97.5,395.5,113.5,405.5,129.0,411.5,145.0,415.5,160.5,418.0,176.5,422.5,192.0,425.0,208.0,427.5,224.0,428.0,240.0,430.0,256.0,429.5,272.0,429.0,287.5,428.5,303.5,426.5,324.0,424.0,339.5,420.0,355.5,416.0,371.0,410.0,389.5,406.0,405.5,416.0,423.5,410.0,439.0,398.0,457.0" stroke="black" stroke-width="2" fill="none" />
<polyline points="395.0,273.0,379.0,261.0,363.0,251.0,347.0,245.0,330.5,241.5,314.5,237.0,298.5,233.0,282.5,227.0" stroke="black" stroke-width="2" fill="none" />
<polyline points="275.0,222.5,291.0,204.5,307.0,192.5,323.5,180.5,339.5,170.5,355.5,162.5,371.0,150.5,387.0,142.5,369.0,158.0,342.5,173.5,316.5,189.5,296.5,205.5,280.5,221.5,284.5,218.0,300.0,202.5,315.5,190.5,331.5,180.5,348.0,170.5,364.0,160.5,380.5,152.5,396.5,138.5,392.0,164.0,394.0,180.0,396.0,196.0,396.0,211.5,398.0,227.5,399.5,243.0,399.5,259.0" stroke="black" stroke-width="2" fill="none" />
<polyline points="394.5,312.0,397.0,296.5,393.0,280.5,373.5,264.5,337.5,248.5" stroke="black" stroke-width="2" fill="none" />
<polyline points="334.5,242.5,373.0,258.5,395.0,274.5,403.0,290.0,401.0,306.0,397.0,321.5,395.0,337.5,395.0,353.0,391.5,361.0,375.5,359.0,391.5,355.5" stroke="black" stroke-width="2" fill="none" />
<polyline points="448.5,211.5,432.5,203.5" stroke="black" stroke-width="2" fill="none" />
<polyline points="430.0,200.5,446.0,207.0" stroke="black" stroke-width="2" fill="none" />
<polyline points="439.5,204.5,429.5,200.5" stroke="black" stroke-width="2" fill="none" />
<polyline points="392.0,275.5,376.0,263.5,360.5,255.5,345.0,249.5,329.0,244.0,313.0,242.0,297.0,238.5,281.0,232.0,275.5,226.0,285.0,210.5,303.0,194.5,324.5,178.5,350.5,162.5,378.5,146.5,388.5,130.5,376.5,114.5,352.5,99.0" stroke="black" stroke-width="2" fill="none" />
<polyline points="336.0,100.0,320.0,96.0,304.5,96.5,289.0,95.0,267.0,85.0,251.0,85.0" stroke="black" stroke-width="2" fill="none" />
<polyline points="228.0,56.5,212.0,48.0" stroke="black" stroke-width="2" fill="none" />
<polyline points="210.0,40.5,226.0,32.5,242.5,36.5,258.5,45.0" stroke="black" stroke-width="2" fill="none" />
<polyline points="282.0,28.5,265.5,25.0,249.5,26.5,233.5,28.5,217.5,24.0,201.5,23.0,185.5,39.0" stroke="black" stroke-width="2" fill="none" />
<polyline points="189.0,44.5,205.0,60.5" stroke="black" stroke-width="2" fill="none" />
<polyline points="222.5,78.0,206.5,84.0,190.5,86.0,174.5,86.0,158.5,92.5,142.5,94.5" stroke="black" stroke-width="2" fill="none" />
<polyline points="139.5,102.0,155.5,100.0,171.0,94.5,187.0,92.5,203.5,90.5,219.5,90.5" stroke="black" stroke-width="2" fill="none" />
<polyline points="167.0,97.5,183.0,97.5,199.0,94.0,215.5,94.5,232.0,94.5,248.5,91.0,264.5,90.5,286.5,84.5,303.0,86.5,319.5,82.5" stroke="black" stroke-width="2" fill="none" />
<polyline points="423.0,78.5,411.0,80.5,395.0,102.5,379.0,98.0,363.0,89.5,347.0,93.5,331.0,88.0,329.0,93.5,312.5,91.5,296.5,89.5,280.0,93.5,264.0,93.5,248.0,93.5,236.0,85.5,238.0,65.5,214.0,49.5,216.0,33.0" stroke="black" stroke-width="2" fill="none" />
<polyline points="198.0,23.5,186.0,39.5,195.5,55.5,205.5,71.5,215.5,83.5,232.0,82.0,252.0,77.5,268.0,77.5,284.0,78.0,300.0,78.0,322.0,88.5,338.0,84.5,358.0,100.0,362.0,94.0,378.0,101.5,394.5,117.0" stroke="black" stroke-width="2" fill="none" />
<polyline points="280.5,20.0,264.5,18.0,248.0,19.5,232.0,19.5,215.5,17.5,199.5,15.5,183.0,33.5,185.5,32.0,197.0,16.0" stroke="black" stroke-width="2" fill="none" />
<polyline points="153.5,88.5,138.0,94.0,122.0,104.5" stroke="black" stroke-width="2" fill="none" />
<polyline points="125.0,113.0,118.5,129.0,115.0,145.0,114.5,161.0,112.5,176.5,112.0,192.5,112.5,208.5,113.0,224.0,113.5,240.0,113.5,255.5,113.5,272.0,115.5,288.0,115.5,304.0,119.0,320.0,120.5,335.5,122.0,352.0,121.5,368.0,123.5,384.5,123.0,401.0,110.5,417.0,110.5,433.0,118.5,448.5,139.0,464.5,131.5,474.5" stroke="black" stroke-width="2" fill="none" />
<polyline points="170.0,359.0,154.0,365.0,156.0,351.0,151.5,335.0,137.5,339.0,123.5,323.5,119.5,309.5,118.0,294.0,118.0,278.5,118.0,262.5,116.0,246.5,116.0,230.5,115.5,215.0,115.5,199.0,117.0,183.0,117.0,166.5,117.0,150.5,121.5,134.0,125.5,117.5,131.5,101.5,115.5,129.5" stroke="black" stroke-width="2" fill="none" />
<polyline points="105.0,89.5,89.0,77.5" stroke="black" stroke-width="2" fill="none" />
<polyline points="87.0,75.5,102.5,72.0" stroke="black" stroke-width="2" fill="none" />
<polyline points="82.5,54.5,66.5,46.5,50.5,46.5,34.5,50.5,19.0,52.5,3.0,52.5" stroke="black" stroke-width="2" fill="none" />
<polyline points="2.0,44.5,18.0,45.0,33.5,45.0,49.5,40.5,65.5,38.5,81.5,44.0,98.0,38.0,113.5,32.0,130.0,26.0,146.0,20.0,162.0,18.0,164.0,32.5,168.0,34.0" stroke="black" stroke-width="2" fill="none" />
<polyline points="86.0,44.5,116.0,28.5,143.5,0.5,129.5,11.0,113.5,17.0,97.5,19.0,81.5,21.5,65.5,20.0,49.0,22.5,33.0,24.5,17.0,28.5,0.5,30.5" stroke="black" stroke-width="2" fill="none" />
<polyline points="1.5,13.5,17.5,13.5,34.0,13.5,50.0,13.5,66.0,13.5,82.0,11.5,90.0,7.5,98.0,3.5" stroke="black" stroke-width="2" fill="none" />
<polyline points="70.0,47.5,94.0,63.5,88.0,80.0,100.0,84.0" stroke="black" stroke-width="2" fill="none" />
<polyline points="63.0,211.0,47.0,211.5,31.0,213.5,15.0,218.0,3.0,230.5,21.0,214.5" stroke="black" stroke-width="2" fill="none" />
<polyline points="20.0,200.0,9.5,198.0,26.0,194.5" stroke="black" stroke-width="2" fill="none" />
<polyline points="23.0,194.5,3.0,206.5,19.0,202.0" stroke="black" stroke-width="2" fill="none" />
<polyline points="3.0,236.5,19.0,238.5,35.0,236.5,51.0,236.0,67.0,230.0,73.0,221.5" stroke="black" stroke-width="2" fill="none" />
</svg>