<svg xmlns="http://www.w3.org/2000/svg" width="512mm" height="512mm" viewBox="0 0 512 512" version="1.1"><polyline points="297.5,34.5,271.5,50.5,257.5,66.5,249.5,82.5,243.5,99.0,239.5,115.0,237.5,131.0,237.5,147.0,237.0,163.0,237.0,178.5,240.5,194.5,253.0,210.5,271.0,226.5,247.0,234.5,227.5,250.0,217.5,265.5,211.5,281.0,211.5,297.0,209.5,313.0,207.5,328.5,206.0,344.5,204.0,360.5,202.5,380.5,190.5,393.0,166.5,415.0,148.5,431.0,156.5,427.0,178.5,429.5,182.5,439.5,184.5,435.5" stroke="black" stroke-width="2" fill="none" />
<polyline points="172.0,434.5,156.0,426.5" stroke="black" stroke-width="2" fill="none" />
<polyline points="153.5,420.0,169.5,416.0" stroke="black" stroke-width="2" fill="none" />
<polyline points="159.0,422.5,143.0,424.5" stroke="black" stroke-width="2" fill="none" />
<polyline points="129.5,427.0,145.5,435.0,161.5,444.0" stroke="black" stroke-width="2" fill="none" />
<polyline points="172.0,450.0,156.0,446.0,139.5,438.0,123.5,430.0" stroke="black" stroke-width="2" fill="none" />
<polyline points="123.5,423.5,153.5,439.5,174.0,455.5" stroke="black" stroke-width="2" fill="none" />
<polyline points="152.0,465.5,136.0,457.0,120.0,449.0" stroke="black" stroke-width="2" fill="none" />
<polyline points="110.5,436.5,126.5,444.5,142.5,452.0,158.5,460.0,174.5,462.0,190.5,458.0,206.0,452.0,222.0,447.5,238.0,443.5,254.0,438.0,270.0,434.0,286.0,428.0,302.0,420.0,276.0,438.0,266.0,454.0,277.5,454.0,294.0,456.0,310.0,453.5,326.0,451.5,342.5,445.0,368.5,443.0,384.0,445.0,400.0,445.5,416.0,445.5,432.0,445.5,448.0,443.5" stroke="black" stroke-width="2" fill="none" />
<polyline points="448.0,469.5,456.0,453.5,448.0,437.5,460.0,421.5,455.5,405.5,453.5,389.5,452.0,382.0,436.5,382.0,420.5,375.5" stroke="black" stroke-width="2" fill="none" />
<polyline points="398.5,345.5,382.5,353.5,366.5,335.5" stroke="black" stroke-width="2" fill="none" />
<polyline points="385.5,369.5,367.5,371.0,347.0,369.0,331.0,369.0,307.5,368.5,291.5,369.0,276.0,371.0,260.0,369.0,244.5,369.5,228.5,370.0,212.5,370.0" stroke="black" stroke-width="2" fill="none" />
<polyline points="218.5,379.5,252.5,395.5,281.5,411.5,274.0,425.5,290.0,419.5" stroke="black" stroke-width="2" fill="none" />
<polyline points="280.0,416.0,264.5,408.5,249.0,399.0,233.0,395.0,217.0,389.0" stroke="black" stroke-width="2" fill="none" />
<polyline points="220.0,401.5,238.5,417.5" stroke="black" stroke-width="2" fill="none" />
<polyline points="242.5,419.0,226.5,411.0" stroke="black" stroke-width="2" fill="none" />
<polyline points="221.0,416.5,237.0,422.5" stroke="black" stroke-width="2" fill="none" />
<polyline points="240.0,401.5,252.0,401.5" stroke="black" stroke-width="2" fill="none" />
<polyline points="283.5,411.0,267.5,401.5,251.5,394.0,236.0,386.0,220.0,380.5,204.0,388.0" stroke="black" stroke-width="2" fill="none" />
<polyline points="227.5,377.5,261.5,393.5,288.0,409.5,312.0,418.0,289.5,426.0,271.5,452.0,278.0,436.0,294.0,429.5" stroke="black" stroke-width="2" fill="none" />
<polyline points="304.0,428.5,278.0,445.0,283.5,441.0,299.5,432.5,315.5,422.5,331.5,418.0,348.0,412.0,363.5,400.0,380.0,396.0,396.0,392.0,418.0,386.0,434.0,388.5,450.0,388.0" stroke="black" stroke-width="2" fill="none" />
<polyline points="457.5,389.0,461.5,405.0,461.5,427.5,451.5,449.5,443.5,466.0" stroke="black" stroke-width="2" fill="none" />
<polyline points="456.5,431.0,441.0,440.5,425.0,440.5,409.5,442.5,393.5,440.5,377.5,440.5,361.5,432.5,345.5,425.0" stroke="black" stroke-width="2" fill="none" />
<polyline points="349.5,441.0,337.0,451.0,321.5,457.0,305.5,459.0,289.5,459.5,274.0,457.5" stroke="black" stroke-width="2" fill="none" />
<polyline points="256.5,420.5,240.0,415.0,224.5,405.0,208.5,403.0,193.0,403.0,177.0,409.0,161.0,412.5,145.0,422.0,129.5,423.5,113.5,429.0,97.5,430.5,81.5,418.0" stroke="black" stroke-width="2" fill="none" />
<polyline points="85.5,420.0,101.0,428.0,107.0,439.5,107.0,443.5,123.0,447.5,138.5,455.5,154.5,463.5" stroke="black" stroke-width="2" fill="none" />
<polyline points="162.0,455.5,146.0,447.5,130.0,439.5,114.0,433.5" stroke="black" stroke-width="2" fill="none" />
<polyline points="88.5,428.5,115.0,444.5,137.0,460.5" stroke="black" stroke-width="2" fill="none" />
<polyline points="167.0,463.5,143.0,447.5,109.0,431.5,85.5,430.0,84.0,434.0" stroke="black" stroke-width="2" fill="none" />
<polyline points="74.5,421.0,90.0,421.5,124.0,429.5,152.0,446.0,172.5,454.0" stroke="black" stroke-width="2" fill="none" />
<polyline points="145.0,367.5,129.0,369.5" stroke="black" stroke-width="2" fill="none" />
<polyline points="123.0,358.0,95.0,371.5,111.5,371.5,114.0,361.5,130.5,351.5,146.5,352.0,163.0,348.0" stroke="black" stroke-width="2" fill="none" />
<polyline points="127.0,328.5,111.0,332.5,105.5,328.0,89.5,330.0" stroke="black" stroke-width="2" fill="none" />
<polyline points="99.5,366.0,83.5,363.5,67.5,373.5,51.5,377.5" stroke="black" stroke-width="2" fill="none" />
<polyline points="51.0,374.0,67.0,370.0,85.0,375.5" stroke="black" stroke-width="2" fill="none" />
<polyline points="71.5,383.0,55.5,387.0" stroke="black" stroke-width="2" fill="none" />
<polyline points="57.5,396.0,73.5,396.0,89.5,392.5,105.5,388.5,122.0,385.0,138.0,379.0,154.0,375.5,170.0,369.5" stroke="black" stroke-width="2" fill="none" />
<polyline points="258.5,327.0,258.5,311.0,258.5,295.0,258.0,279.0,260.0,263.5,275.5,254.0,259.0,263.5" stroke="black" stroke-width="2" fill="none" />
<polyline points="251.0,270.0,267.0,245.5,293.0,225.5,311.0,215.5,327.0,217.5,342.5,216.0" stroke="black" stroke-width="2" fill="none" />
<polyline points="359.5,229.5,353.5,245.5,345.5,261.5,341.5,277.0,335.5,293.0,329.5,308.5" stroke="black" stroke-width="2" fill="none" />
<polyline points="338.0,286.5,322.0,292.0,306.0,259.5" stroke="black" stroke-width="2" fill="none" />
<polyline points="299.5,254.5,315.5,286.5" stroke="black" stroke-width="2" fill="none" />
<polyline points="287.0,270.5,294.5,286.5,302.5,302.0,312.5,318.0,322.0,334.5" stroke="black" stroke-width="2" fill="none" />
<polyline points="319.5,319.5,303.0,294.0,287.0,264.0" stroke="black" stroke-width="2" fill="none" />
<polyline points="282.5,268.5,274.5,284.5,272.5,300.5,278.5,316.5,304.5,332.5" stroke="black" stroke-width="2" fill="none" />
<polyline points="305.0,331.5,289.0,323.5,273.0,305.0" stroke="black" stroke-width="2" fill="none" />
<polyline points="267.5,308.5,283.5,326.5,299.5,336.5,315.5,344.5" stroke="black" stroke-width="2" fill="none" />
<polyline points="321.5,334.0,305.5,306.0,289.5,278.0,273.5,284.0" stroke="black" stroke-width="2" fill="none" />
<polyline points="266.0,280.5,278.0,258.5,270.0,274.5,266.0,290.0,265.5,305.5,275.5,321.5,301.5,337.0" stroke="black" stroke-width="2" fill="none" />
<polyline points="254.5,339.5,250.5,325.5,250.5,309.5,250.5,293.5,251.0,277.5,255.0,262.0,267.0,246.0,275.0,246.5,284.5,246.5,262.5,237.0,246.0,243.0,230.0,255.0" stroke="black" stroke-width="2" fill="none" />
<polyline points="215.5,274.5,231.0,248.5,247.0,236.5,262.5,230.0,244.0,242.0,228.0,257.5,219.5,273.5,217.5,289.5,215.5,305.5,213.5,321.0,211.5,337.0,209.5,353.0,210.0,369.0,226.0,363.5,242.5,366.0,259.0,366.0,275.0,366.0,291.0,366.0,307.5,366.0,323.5,366.0,339.5,366.5,355.0,366.5,371.0,366.5,387.0,366.5,402.5,366.0,418.0,366.0,434.0,366.0" stroke="black" stroke-width="2" fill="none" />
<polyline points="454.0,352.0,450.0,336.0,448.5,320.0,446.5,303.5,442.5,287.5,441.0,271.5,433.0,255.5,410.5,239.5,378.5,225.5,394.5,209.5,402.5,193.5,408.0,178.0,410.0,162.5,410.0,146.5,408.0,130.5,406.0,114.5,402.0,98.0,396.0,82.0,389.5,70.0,383.5,63.5,365.5,47.5,328.0,37.5,312.0,37.0,296.5,41.5,280.5,51.5,264.5,68.0,248.5,100.5" stroke="black" stroke-width="2" fill="none" />
<polyline points="268.0,109.0,284.0,93.0,288.5,97.0,270.0,123.0,268.0,141.0,281.5,150.5,301.5,150.5" stroke="black" stroke-width="2" fill="none" />
<polyline points="298.0,144.0,282.0,150.0" stroke="black" stroke-width="2" fill="none" />
<polyline points="268.5,143.5,268.5,137.5,284.5,132.0,300.5,138.0" stroke="black" stroke-width="2" fill="none" />
<polyline points="301.0,133.0,284.5,126.5,268.0,129.0" stroke="black" stroke-width="2" fill="none" />
<polyline points="268.0,126.5,284.0,121.0,299.5,125.0" stroke="black" stroke-width="2" fill="none" />
<polyline points="286.0,89.5,270.0,105.5,264.0,122.0,260.0,138.0,244.0,149.5,260.5,159.5,266.0,175.5,278.0,191.5,298.0,207.5,294.5,223.5,289.0,239.5,288.5,256.0,293.0,272.0,301.0,288.0,311.0,304.0,319.0,320.0,327.0,336.5,336.5,344.5,352.5,314.5" stroke="black" stroke-width="2" fill="none" />
<polyline points="359.5,296.5,353.5,312.5,345.5,328.5,335.5,344.5" stroke="black" stroke-width="2" fill="none" />
<polyline points="368.5,397.0,354.5,399.5,348.0,411.5,354.0,431.5,356.0,446.0,356.0,462.0,353.5,474.0,369.5,473.5,385.5,473.5,401.0,473.5,417.0,473.5,433.0,471.5,449.0,452.0" stroke="black" stroke-width="2" fill="none" />
<polyline points="456.0,452.0,440.0,476.0,424.5,478.0,408.5,478.5,392.5,478.5,376.5,478.5,360.5,478.5,351.0,466.5,353.0,450.5" stroke="black" stroke-width="2" fill="none" />
<polyline points="371.5,351.0,363.5,335.0,363.5,319.0,364.0,303.0,364.0,287.0" stroke="black" stroke-width="2" fill="none" />
<polyline points="376.5,267.5,376.0,283.5,378.0,299.5,382.0,315.0,392.0,331.0,388.5,346.5" stroke="black" stroke-width="2" fill="none" />
<polyline points="381.0,266.5,396.5,260.5" stroke="black" stroke-width="2" fill="none" />
<polyline points="392.5,258.5,403.0,274.5,405.0,290.5,403.0,306.0,399.0,322.0,401.0,315.5" stroke="black" stroke-width="2" fill="none" />
<polyline points="402.5,256.0,386.0,242.0,382.0,250.0,376.0,241.5,356.0,235.5,344.0,247.0,327.5,249.5,311.0,247.5,297.5,241.5,275.5,247.5,273.5,225.5,257.5,211.5,241.5,188.0" stroke="black" stroke-width="2" fill="none" />
<polyline points="244.5,151.0,260.5,162.5,277.0,190.5,293.5,204.5,309.5,210.5,325.5,214.5,342.0,210.5,362.0,196.5,378.0,176.5" stroke="black" stroke-width="2" fill="none" />
<polyline points="396.5,194.0,390.5,206.0,398.5,190.0,390.0,214.0,374.0,232.0" stroke="black" stroke-width="2" fill="none" />
<polyline points="375.0,232.5,373.0,248.5,377.0,258.0,383.0,270.0,382.5,286.0,386.5,307.5,394.5,323.5,396.5,330.0" stroke="black" stroke-width="2" fill="none" />
<polyline points="450.5,369.5,435.0,369.5,418.5,370.0,404.5,372.0,394.0,388.0,378.0,390.0,362.5,396.0,346.5,407.5,330.5,411.5,314.0,417.5,298.0,413.0,281.5,405.5,265.5,396.0,249.5,386.0,233.5,380.0,217.5,376.0,201.5,382.0,187.5,386.0,171.0,394.0,155.0,400.0,139.0,404.0,123.0,407.5,107.0,411.5,91.0,415.5,75.5,418.0,60.0,422.0,56.0,414.0,56.0,393.5,52.0,378.0,48.0,358.0,46.5,342.5,44.5,326.5,36.5,316.5,30.5,308.5,26.5,290.5,28.5,274.5" stroke="black" stroke-width="2" fill="none" />
<polyline points="24.0,276.5,40.0,276.5,56.0,270.0,72.0,264.0,88.0,259.5,104.5,257.0,120.5,253.5,136.5,250.0,152.5,246.5,157.0,256.5,161.0,273.0,145.0,277.0" stroke="black" stroke-width="2" fill="none" />
<polyline points="148.5,284.5,132.5,288.5,116.0,292.5,99.5,294.5,83.5,286.5,82.0,282.0,66.0,288.5" stroke="black" stroke-width="2" fill="none" />
<polyline points="45.0,293.5,56.5,280.0,57.0,296.0,37.0,310.0,53.0,306.0,57.0,302.0,73.0,302.5,88.5,298.5,102.5,278.5,118.5,287.0,122.5,275.0,130.5,275.0,146.5,267.0" stroke="black" stroke-width="2" fill="none" />
<polyline points="148.0,341.0,132.0,345.0,116.0,351.0,100.0,353.0,84.0,357.0,68.0,361.5,52.0,363.5" stroke="black" stroke-width="2" fill="none" />
<polyline points="51.5,360.0,67.5,352.0" stroke="black" stroke-width="2" fill="none" />
<polyline points="69.0,345.5,53.0,349.5" stroke="black" stroke-width="2" fill="none" />
<polyline points="53.0,344.0,69.0,341.5,85.0,335.0,105.0,327.0,73.0,335.0" stroke="black" stroke-width="2" fill="none" />
<polyline points="67.0,338.0,51.0,340.5" stroke="black" stroke-width="2" fill="none" />
<polyline points="52.0,332.0,68.0,334.0,83.5,328.0,99.0,323.5,114.5,321.5" stroke="black" stroke-width="2" fill="none" />
<polyline points="128.5,314.0,112.5,314.0,96.5,316.0,80.5,320.0,65.0,323.5,49.0,325.5" stroke="black" stroke-width="2" fill="none" />
<polyline points="43.0,318.0,59.0,311.5,75.0,307.5,91.0,304.0,107.0,300.5,123.0,296.5,139.0,292.5,154.5,290.5,160.5,302.5,162.5,318.5,167.0,334.5,169.0,350.5,173.0,366.5" stroke="black" stroke-width="2" fill="none" />
<polyline points="169.5,393.0,187.5,377.5,183.5,361.5,179.5,345.5,178.0,329.5,174.0,314.0,170.5,298.0,169.0,282.5,167.0,274.5,163.5,258.5,155.5,242.5,147.0,240.5,131.0,244.0,115.0,248.0,99.0,251.5,83.0,256.0,67.0,260.0,51.0,264.5,35.0,266.5,19.0,272.5" stroke="black" stroke-width="2" fill="none" />
<polyline points="26.0,266.0,18.0,282.0,22.0,298.0,26.0,314.5,30.0,330.5,32.0,346.5,35.5,362.5,37.0,378.5,41.0,394.5,45.5,410.0" stroke="black" stroke-width="2" fill="none" />
<polyline points="74.5,420.5,93.0,436.5,127.0,453.0,155.0,457.5" stroke="black" stroke-width="2" fill="none" />
<polyline points="380.5,347.5,372.5,342.0,370.5,326.0,371.0,310.5,369.0,294.5,369.5,278.5,371.5,262.5" stroke="black" stroke-width="2" fill="none" />
<polyline points="389.5,248.5,405.5,264.5,411.5,280.5,411.5,296.5,411.5,312.5,405.5,328.0,400.0,344.0" stroke="black" stroke-width="2" fill="none" />
<polyline points="430.0,254.5,414.0,242.5,398.0,234.5,382.0,228.0" stroke="black" stroke-width="2" fill="none" />
<polyline points="380.0,234.0,413.5,250.0,432.0,266.5,436.0,282.5,438.5,298.0,442.5,313.5,445.0,330.0,449.0,346.0,451.0,362.0" stroke="black" stroke-width="2" fill="none" />
<polyline points="424.5,254.0,408.5,244.0,392.0,238.5,376.0,233.0" stroke="black" stroke-width="2" fill="none" />
<polyline points="363.0,231.0,366.5,247.0,367.0,263.0,362.5,279.0,356.5,294.5,348.0,310.5,340.5,326.5" stroke="black" stroke-width="2" fill="none" />
<polyline points="334.5,253.5,318.0,254.0,302.0,252.0" stroke="black" stroke-width="2" fill="none" />
<polyline points="301.0,252.5,309.0,268.5,317.0,284.0,325.0,299.5" stroke="black" stroke-width="2" fill="none" />
<polyline points="331.0,328.5,327.0,312.5,318.5,296.5,310.5,280.5,302.5,264.5,294.5,248.5,300.5,246.5,294.5,231.0" stroke="black" stroke-width="2" fill="none" />
<polyline points="293.5,179.0,309.5,182.5,325.5,185.0,341.5,179.0,338.0,187.0" stroke="black" stroke-width="2" fill="none" />
<polyline points="344.5,147.5,360.5,153.5" stroke="black" stroke-width="2" fill="none" />
<polyline points="340.0,144.5,356.0,134.5,372.0,136.0,388.0,134.0" stroke="black" stroke-width="2" fill="none" />
<polyline points="366.0,151.5,372.0,127.0,355.5,127.0,339.5,133.0" stroke="black" stroke-width="2" fill="none" />
<polyline points="337.5,131.5,353.5,123.5" stroke="black" stroke-width="2" fill="none" />
<polyline points="381.5,116.0,365.5,116.0,350.0,108.0,334.5,98.0,318.5,83.5" stroke="black" stroke-width="2" fill="none" />
<polyline points="326.0,83.5,352.0,99.5" stroke="black" stroke-width="2" fill="none" />
<polyline points="372.0,109.5,355.5,101.5,339.5,91.5,323.5,79.5,307.5,77.5" stroke="black" stroke-width="2" fill="none" />
<polyline points="304.0,85.0,316.0,101.5,338.0,117.5,346.0,137.5,340.0,153.5,348.0,153.5,346.0,157.5,350.5,153.5,374.5,141.5,395.0,143.5" stroke="black" stroke-width="2" fill="none" />
<polyline points="374.5,59.5,358.5,47.5" stroke="black" stroke-width="2" fill="none" />
<polyline points="363.5,52.0,349.5,43.5,334.0,39.5" stroke="black" stroke-width="2" fill="none" />
<polyline points="317.0,72.0,341.5,88.0,369.0,103.5,377.5,123.5" stroke="black" stroke-width="2" fill="none" />
<polyline points="378.5,108.0,362.5,98.5,346.5,90.0,330.0,78.0,314.0,70.0,298.0,80.0" stroke="black" stroke-width="2" fill="none" />
<polyline points="311.5,69.0,307.5,79.0,317.5,83.0,335.5,99.5,364.0,116.0,384.0,120.5,380.0,136.5,394.0,136.5,390.0,152.5,382.5,168.5,373.0,184.5,359.0,200.5,354.5,216.5,352.5,232.5,354.5,250.5,350.5,266.5,346.5,282.0,340.0,298.0,336.0,314.0,334.0,330.0,336.5,334.0,352.5,300.0" stroke="black" stroke-width="2" fill="none" />
<polyline points="342.0,184.0,325.5,197.5,315.5,189.5,299.5,184.0,294.0,178.5" stroke="black" stroke-width="2" fill="none" />
<polyline points="260.0,130.5,276.0,108.0,292.0,91.5,308.0,89.5,323.5,107.5,339.5,117.5,345.5,119.0" stroke="black" stroke-width="2" fill="none" />
<polyline points="397.5,82.5,381.5,60.5,365.5,47.0,350.0,39.0,334.0,34.5,318.0,32.5,302.0,34.0,286.0,40.0,270.0,51.5,254.0,71.5,248.0,103.0,251.5,87.5,261.5,71.5,273.0,55.5,297.0,39.5" stroke="black" stroke-width="2" fill="none" />
</svg>