<svg xmlns="http://www.w3.org/2000/svg" width="512mm" height="512mm" viewBox="0 0 512 512" version="1.1"><polyline points="123.5,24.5,143.5,40.5,145.5,52.5,125.5,52.5,137.5,51.0,143.5,59.0" stroke="black" stroke-width="2" fill="none" />
<polyline points="133.5,76.0,149.5,59.5,133.5,75.5,133.5,91.5,129.5,107.5,135.0,123.5,139.5,139.5,130.0,139.0,122.0,155.5" stroke="black" stroke-width="2" fill="none" />
<polyline points="118.5,141.0,116.0,124.5,113.5,108.5,113.0,84.0,97.0,91.5,81.0,107.5" stroke="black" stroke-width="2" fill="none" />
<polyline points="76.5,112.5,92.5,90.5,108.5,80.0,92.5,96.0,82.5,112.0,80.5,128.0,78.0,144.0,78.0,151.5,94.0,157.5,110.0,168.0,126.0,182.0,152.0,184.0,168.0,180.0" stroke="black" stroke-width="2" fill="none" />
<polyline points="158.0,172.0,142.0,164.5" stroke="black" stroke-width="2" fill="none" />
<polyline points="138.5,158.5,159.0,174.5,171.0,176.5" stroke="black" stroke-width="2" fill="none" />
<polyline points="172.5,181.5,156.5,190.0,140.5,192.5" stroke="black" stroke-width="2" fill="none" />
<polyline points="141.0,206.0,141.0,201.5,155.0,217.5,153.0,233.5" stroke="black" stroke-width="2" fill="none" />
<polyline points="175.0,267.5,191.5,262.0,208.0,261.5,224.0,261.0,240.5,261.0,256.5,269.0,260.5,289.0,261.0,305.5,261.0,321.5,234.5,341.0,258.5,331.0" stroke="black" stroke-width="2" fill="none" />
<polyline points="236.0,334.0,220.0,332.0,204.0,332.0,188.0,332.0" stroke="black" stroke-width="2" fill="none" />
<polyline points="189.5,337.0,205.5,338.5,221.5,339.0" stroke="black" stroke-width="2" fill="none" />
<polyline points="201.0,311.5,185.0,305.0" stroke="black" stroke-width="2" fill="none" />
<polyline points="183.5,302.5,199.5,302.5" stroke="black" stroke-width="2" fill="none" />
<polyline points="205.0,288.0,189.0,288.0" stroke="black" stroke-width="2" fill="none" />
<polyline points="182.0,284.5,198.0,283.0" stroke="black" stroke-width="2" fill="none" />
<polyline points="188.0,269.5,203.5,273.5,219.5,273.0,235.5,273.0" stroke="black" stroke-width="2" fill="none" />
<polyline points="233.5,268.0,217.5,268.0,201.5,268.0,185.5,268.0" stroke="black" stroke-width="2" fill="none" />
<polyline points="178.0,276.5,190.0,272.5,176.0,274.5,180.0,290.0,179.5,305.5,177.5,321.5,183.5,337.0,185.5,325.0,202.0,325.0,216.0,325.0,232.0,325.0,248.0,327.0" stroke="black" stroke-width="2" fill="none" />
<polyline points="263.0,323.5,263.0,308.0" stroke="black" stroke-width="2" fill="none" />
<polyline points="302.0,290.0,318.0,300.0,336.5,293.5" stroke="black" stroke-width="2" fill="none" />
<polyline points="347.5,304.5,351.5,320.5,337.5,318.5,333.5,334.5,331.5,350.0,332.0,366.0,331.5,382.0,323.5,392.0" stroke="black" stroke-width="2" fill="none" />
<polyline points="336.0,403.5,338.0,387.5,336.0,371.5,341.5,355.5,337.5,345.5,339.5,329.5,321.5,325.5" stroke="black" stroke-width="2" fill="none" />
<polyline points="314.5,331.0,318.5,347.5,316.0,363.5,320.0,379.5,326.0,396.0,330.0,412.0" stroke="black" stroke-width="2" fill="none" />
<polyline points="336.5,432.5,333.0,448.5,327.0,464.5,317.0,480.5,313.5,484.0,319.5,491.5,335.5,487.0,351.5,487.0,367.5,491.0" stroke="black" stroke-width="2" fill="none" />
<polyline points="356.0,455.5,346.5,439.5,354.5,423.0,355.0,407.0,355.5,391.0,358.0,375.0,362.0,359.0,372.0,348.5,364.5,333.0,358.5,317.5,340.5,327.0" stroke="black" stroke-width="2" fill="none" />
<polyline points="346.5,323.5,346.5,339.5,349.5,357.5,338.0,359.5,354.0,357.5,362.0,346.0" stroke="black" stroke-width="2" fill="none" />
<polyline points="372.0,359.5,374.5,375.5,378.5,391.5,380.5,408.0,382.5,424.0,386.5,440.0,380.5,456.0" stroke="black" stroke-width="2" fill="none" />
<polyline points="380.0,462.0,364.0,464.0,348.0,452.5,332.0,466.5" stroke="black" stroke-width="2" fill="none" />
<polyline points="340.0,444.5,336.0,461.0,331.5,477.0,323.5,490.5,329.5,484.5,345.5,482.0,362.0,482.0,377.5,482.0" stroke="black" stroke-width="2" fill="none" />
<polyline points="412.5,491.0,428.0,491.0,444.0,493.5" stroke="black" stroke-width="2" fill="none" />
<polyline points="412.5,496.0,428.5,498.0,444.0,498.0,460.0,495.5,476.0,495.5" stroke="black" stroke-width="2" fill="none" />
<polyline points="483.5,490.5,467.5,490.0,447.5,493.5,464.0,477.5,464.0,461.5,462.0,445.0,462.0,429.0,466.0,413.0,470.0,397.0,472.0,381.5,472.5,365.5,470.5,350.0,468.5,334.5,466.0,318.5,466.0,302.5,465.5,286.5,465.0,270.5,464.5,255.0,464.5,239.0,482.5,219.0,483.0,202.5,481.0,186.5,480.5,170.0,478.5,153.5,475.0,137.5,469.5,117.0,453.5,104.5,438.0,105.0,422.0,131.0" stroke="black" stroke-width="2" fill="none" />
<polyline points="418.5,123.0,444.5,109.0,450.0,111.5,468.0,127.0,458.0,143.0,446.0,140.5,446.0,156.5,452.5,164.0,454.5,146.0" stroke="black" stroke-width="2" fill="none" />
<polyline points="459.0,158.5,465.0,142.5,453.0,130.5,437.5,136.5" stroke="black" stroke-width="2" fill="none" />
<polyline points="438.5,127.0,428.5,132.5,424.5,148.5,426.5,164.5" stroke="black" stroke-width="2" fill="none" />
<polyline points="418.5,180.0,402.5,170.0,386.0,170.0,384.0,165.5,368.0,149.5" stroke="black" stroke-width="2" fill="none" />
<polyline points="363.5,154.0,379.5,164.0,383.5,174.5,400.0,180.5" stroke="black" stroke-width="2" fill="none" />
<polyline points="437.5,196.5,453.5,186.0" stroke="black" stroke-width="2" fill="none" />
<polyline points="444.0,186.0,438.0,202.0,440.0,208.0,456.0,216.5" stroke="black" stroke-width="2" fill="none" />
<polyline points="452.0,211.0,443.5,207.0,459.5,193.5,443.5,195.5" stroke="black" stroke-width="2" fill="none" />
<polyline points="426.0,221.0,441.5,229.5,457.5,229.5,473.5,225.5,478.0,230.0" stroke="black" stroke-width="2" fill="none" />
<polyline points="448.5,236.5,432.5,237.0" stroke="black" stroke-width="2" fill="none" />
<polyline points="415.5,250.5,419.5,233.0,423.5,216.5,424.0,200.5,424.0,190.5,420.5,162.5,410.0,146.5,409.5,130.5,415.5,114.5,427.5,98.5,443.5,82.5,454.0,66.0,450.5,52.0,443.0,50.0,429.0,43.5,413.5,49.0" stroke="black" stroke-width="2" fill="none" />
<polyline points="414.5,51.5,431.0,55.5,447.0,61.5" stroke="black" stroke-width="2" fill="none" />
<polyline points="423.5,83.5,407.0,69.5" stroke="black" stroke-width="2" fill="none" />
<polyline points="410.0,58.0,426.0,60.0,444.5,74.0,438.5,90.0,439.0,105.5,428.5,121.5,422.5,137.5,430.5,127.5,450.5,103.0,470.0,119.0,468.5,133.0,474.5,149.0,470.5,165.5,466.5,181.5" stroke="black" stroke-width="2" fill="none" />
<polyline points="469.5,180.5,473.5,164.5" stroke="black" stroke-width="2" fill="none" />
<polyline points="475.0,156.5,477.0,172.5,477.0,188.0,477.0,203.5,477.0,219.5,465.0,235.0,459.5,251.0,460.0,267.5,460.0,283.5,460.0,299.5,460.0,315.5" stroke="black" stroke-width="2" fill="none" />
<polyline points="440.5,310.5,444.0,332.0" stroke="black" stroke-width="2" fill="none" />
<polyline points="447.0,334.0,437.5,318.0,445.5,306.0,436.0,300.0" stroke="black" stroke-width="2" fill="none" />
<polyline points="429.0,314.0,445.0,342.0" stroke="black" stroke-width="2" fill="none" />
<polyline points="432.5,338.5,416.5,308.5" stroke="black" stroke-width="2" fill="none" />
<polyline points="412.0,312.5,428.5,341.0,444.5,361.5" stroke="black" stroke-width="2" fill="none" />
<polyline points="440.0,374.5,424.0,372.5,408.0,386.5,406.0,400.0,408.5,390.0,416.5,374.0,418.5,380.0" stroke="black" stroke-width="2" fill="none" />
<polyline points="417.5,379.5,419.5,395.5,424.0,395.5,428.0,411.5" stroke="black" stroke-width="2" fill="none" />
<polyline points="443.0,402.0,449.0,386.0,435.0,366.0,419.0,366.0,403.0,386.0" stroke="black" stroke-width="2" fill="none" />
<polyline points="424.5,362.5,407.0,378.5,403.0,395.0,423.0,411.5,423.0,411.5,439.0,401.5,439.0,389.5" stroke="black" stroke-width="2" fill="none" />
<polyline points="362.0,415.0,362.0,399.0,359.5,380.5,367.5,364.5,368.0,337.0,352.0,325.0" stroke="black" stroke-width="2" fill="none" />
<polyline points="353.5,327.0,353.5,343.0,353.5,359.5,365.5,367.5" stroke="black" stroke-width="2" fill="none" />
<polyline points="363.5,321.5,371.5,337.5,378.0,353.5,378.0,370.0,381.5,386.0,385.5,402.0,386.0,418.0,390.0,433.5" stroke="black" stroke-width="2" fill="none" />
<polyline points="359.0,462.5,345.0,446.5" stroke="black" stroke-width="2" fill="none" />
<polyline points="311.5,437.0,312.0,421.5,314.0,406.0,315.5,390.0,303.5,374.0,304.0,358.5,302.0,342.5,318.0,336.0,302.0,341.5" stroke="black" stroke-width="2" fill="none" />
<polyline points="296.0,342.0,312.0,320.0,328.0,316.0,314.5,318.0,300.5,334.5,298.5,350.0,298.5,366.5,303.0,382.5" stroke="black" stroke-width="2" fill="none" />
<polyline points="301.5,284.5,317.5,272.5,333.5,277.0" stroke="black" stroke-width="2" fill="none" />
<polyline points="322.5,272.5,336.5,288.5,326.5,304.5,330.5,320.5,322.5,322.5,324.5,340.5,322.0,356.0,324.0,372.0,326.0,387.5,318.0,410.0,318.0,426.0,317.5,442.0,319.0,457.5,329.0,455.5,345.0,433.5,361.0,456.0,377.0,458.0" stroke="black" stroke-width="2" fill="none" />
<polyline points="232.0,345.5,215.5,345.0,199.0,345.0,183.0,337.0,182.5,316.5,182.0,311.0" stroke="black" stroke-width="2" fill="none" />
<polyline points="184.5,297.5,200.5,297.5,208.5,306.0" stroke="black" stroke-width="2" fill="none" />
<polyline points="180.0,279.0,196.0,279.0,218.5,285.0,234.0,287.0,250.0,287.0,251.5,278.5" stroke="black" stroke-width="2" fill="none" />
<polyline points="318.5,270.5,300.5,286.5,314.5,302.5,304.5,318.5,296.5,328.5,312.5,312.5,327.0,310.5,342.5,304.0,358.5,314.0,374.5,337.5" stroke="black" stroke-width="2" fill="none" />
<polyline points="441.5,353.0,429.5,337.0,419.5,321.0,413.5,305.0,412.0,289.0,412.0,273.0" stroke="black" stroke-width="2" fill="none" />
<polyline points="438.5,269.5,432.0,285.5,428.0,301.5,434.0,305.0,432.0,321.0,442.5,336.5" stroke="black" stroke-width="2" fill="none" />
<polyline points="442.5,316.0,438.5,300.0,438.5,286.5,439.0,270.5" stroke="black" stroke-width="2" fill="none" />
<polyline points="395.5,157.5,393.0,145.5,376.5,147.5,360.5,143.5" stroke="black" stroke-width="2" fill="none" />
<polyline points="362.0,144.0,365.5,160.0,386.0,176.5,412.0,192.5,414.5,208.0,414.5,223.5,413.0,240.0,411.0,256.0,409.0,272.0,407.0,288.0,409.0,304.0,415.0,319.5,423.0,335.0,435.0,351.0,441.0,367.0,440.5,387.0,435.0,403.0,441.0,407.0,443.0,429.5,443.0,445.5,445.0,462.0,445.0,477.5" stroke="black" stroke-width="2" fill="none" />
<polyline points="156.5,415.0,140.0,415.0,124.0,415.0" stroke="black" stroke-width="2" fill="none" />
<polyline points="120.5,419.0,136.5,423.0,152.5,427.0,168.5,431.5,175.0,449.0,171.0,465.0,161.0,481.0,165.0,483.0" stroke="black" stroke-width="2" fill="none" />
<polyline points="135.0,430.5,119.0,430.5" stroke="black" stroke-width="2" fill="none" />
<polyline points="110.0,434.0,126.0,438.5" stroke="black" stroke-width="2" fill="none" />
<polyline points="164.5,404.0,148.5,398.0,132.0,400.5,116.0,400.5,102.0,396.5,102.0,386.0,92.0,378.0,97.5,362.0,79.5,370.0" stroke="black" stroke-width="2" fill="none" />
<polyline points="71.5,380.0,87.0,390.0" stroke="black" stroke-width="2" fill="none" />
<polyline points="76.0,393.5,92.0,407.5,108.0,403.5,124.0,403.5,140.0,404.0,156.0,406.0,171.5,420.0,173.5,423.5,169.5,439.5,161.0,456.0,165.0,470.0" stroke="black" stroke-width="2" fill="none" />
<polyline points="175.0,507.5,159.0,507.5,147.0,497.5,130.5,501.5,144.5,489.5,158.5,473.5,166.5,458.0,166.0,458.5,150.0,485.0,150.0,467.0,149.5,451.0,149.5,435.0,121.5,432.5,95.5,417.0,91.5,408.5,77.5,398.5,85.5,388.5,81.0,390.0,79.0,374.0,85.5,358.0,97.5,345.5,100.0,329.5,84.0,327.0,80.0,323.0" stroke="black" stroke-width="2" fill="none" />
<polyline points="63.5,330.0,79.5,318.5,53.5,329.0,39.5,345.5,31.0,362.0,31.0,378.5,33.0,395.0,35.0,411.0,38.5,427.0,40.5,443.0,42.0,459.0,42.5,474.5" stroke="black" stroke-width="2" fill="none" />
<polyline points="41.0,459.5,57.0,479.5,72.5,480.0,94.5,480.0" stroke="black" stroke-width="2" fill="none" />
<polyline points="113.5,488.0,121.0,484.0,113.0,462.0,109.5,476.0,94.0,476.0,78.0,476.5,61.5,477.0,45.5,465.0,44.0,463.0,38.0,444.5,36.0,429.0,32.0,413.0,30.0,397.5,28.0,381.5,28.0,365.0,32.0,349.0,41.5,332.5,61.5,316.5,73.5,318.0,57.5,332.0" stroke="black" stroke-width="2" fill="none" />
<polyline points="70.0,356.0,85.5,344.0,71.0,351.5,71.0,367.5,65.0,383.5,71.0,400.0,85.0,416.0,69.0,420.0,69.5,426.0,85.5,426.0,101.5,430.0,113.5,428.0,115.5,418.0,131.5,410.0,147.5,409.5,172.0,411.0,178.0,427.5,178.5,443.5,176.5,459.5,168.5,476.0,148.0,492.0,164.0,496.0,180.5,494.0" stroke="black" stroke-width="2" fill="none" />
<polyline points="97.0,416.5,75.5,402.0,73.5,388.0" stroke="black" stroke-width="2" fill="none" />
<polyline points="55.0,389.5,71.0,387.5,55.0,393.5,58.5,415.5,52.0,439.0,68.0,437.0,84.0,439.0,100.0,443.5,116.0,454.0,110.0,460.5,110.0,488.5" stroke="black" stroke-width="2" fill="none" />
<polyline points="103.5,465.5,87.5,465.0,71.5,465.0,55.5,455.0" stroke="black" stroke-width="2" fill="none" />
<polyline points="55.5,445.5,71.5,443.5" stroke="black" stroke-width="2" fill="none" />
<polyline points="117.5,472.5,101.5,470.5,85.0,470.5,69.0,470.5,53.0,462.5,54.5,468.5,50.5,452.5,52.5,432.5,53.0,416.5,51.0,400.5,45.0,384.5,47.0,368.0,47.0,351.5,53.0,335.5,37.0,350.0" stroke="black" stroke-width="2" fill="none" />
<polyline points="29.0,354.5,45.0,330.5,61.0,318.5,77.0,312.0,93.0,320.0" stroke="black" stroke-width="2" fill="none" />
<polyline points="142.5,240.0,126.5,242.0,110.5,242.0,100.0,236.0,110.0,220.0,114.5,208.5,99.0,226.5,95.0,236.0,101.0,224.0,114.5,208.0,126.5,187.5,118.0,178.0,98.0,162.0,77.5,148.0,74.0,132.0,76.0,116.5,82.0,100.5,99.5,85.0,103.5,68.5,99.5,52.5,101.5,36.0,113.5,33.0,97.5,59.0" stroke="black" stroke-width="2" fill="none" />
<polyline points="99.5,62.0,115.5,76.0,119.5,98.0,138.0,95.5,138.5,89.5" stroke="black" stroke-width="2" fill="none" />
<polyline points="140.0,92.5,143.5,108.0,145.5,119.5,133.5,139.5" stroke="black" stroke-width="2" fill="none" />
<polyline points="160.0,165.5,144.0,157.0,127.5,145.0,111.5,153.0,111.5,131.0,107.5,115.5,109.5,99.5,117.5,95.5,128.0,93.5,120.0,84.0,134.5,68.0,147.0,42.5,131.0,42.5,115.5,42.5" stroke="black" stroke-width="2" fill="none" />
<polyline points="119.0,37.0,135.0,39.0" stroke="black" stroke-width="2" fill="none" />
<polyline points="130.5,32.0,114.5,34.0" stroke="black" stroke-width="2" fill="none" />
<polyline points="101.0,40.5,117.0,24.5,132.5,25.0,148.5,35.0" stroke="black" stroke-width="2" fill="none" />
<polyline points="134.5,81.0,150.5,88.5,167.0,94.5" stroke="black" stroke-width="2" fill="none" />
<polyline points="164.0,97.0,148.0,89.5,132.0,85.5" stroke="black" stroke-width="2" fill="none" />
<polyline points="135.5,95.5,153.5,95.5,171.5,111.5,171.5,127.0,173.5,143.0,173.5,158.5,174.0,174.5" stroke="black" stroke-width="2" fill="none" />
<polyline points="108.0,186.0,92.0,181.5,76.0,179.5,60.5,157.0" stroke="black" stroke-width="2" fill="none" />
<polyline points="56.0,153.5,72.0,161.5,84.0,171.0" stroke="black" stroke-width="2" fill="none" />
<polyline points="91.5,164.5,76.0,156.0,60.0,148.5" stroke="black" stroke-width="2" fill="none" />
<polyline points="53.5,146.5,61.5,162.5,71.5,178.5" stroke="black" stroke-width="2" fill="none" />
<polyline points="53.0,164.0,69.0,181.5,85.0,191.0,101.0,195.0,117.0,195.0" stroke="black" stroke-width="2" fill="none" />
<polyline points="81.0,195.5,65.0,186.0,49.0,166.0" stroke="black" stroke-width="2" fill="none" />
<polyline points="49.0,144.5,51.0,160.5,59.0,176.0,83.0,192.0,104.5,202.0,120.5,199.5" stroke="black" stroke-width="2" fill="none" />
<polyline points="95.5,240.5,81.5,224.0,82.0,208.0,72.5,191.5,53.0,176.0,47.5,160.0,43.5,144.0,49.5,144.0" stroke="black" stroke-width="2" fill="none" />
<polyline points="55.0,141.0,64.5,157.0,83.0,173.0,90.5,195.0,86.5,210.5,88.0,226.5,112.5,238.5,129.0,238.0,145.5,232.0" stroke="black" stroke-width="2" fill="none" />
<polyline points="75.5,150.0,60.0,142.0,44.0,140.0" stroke="black" stroke-width="2" fill="none" />
<polyline points="114.0,161.5,110.0,145.5,106.0,129.5,102.0,113.5,104.0,97.5,112.0,81.5,104.0,59.0" stroke="black" stroke-width="2" fill="none" />
<polyline points="104.0,56.5,120.0,66.5,126.5,76.5,142.5,59.0" stroke="black" stroke-width="2" fill="none" />
<polyline points="144.0,83.5,174.0,99.5,176.0,116.0,178.0,132.0,178.0,147.5,180.5,163.5,174.0,179.5,138.0,189.5,154.0,205.5,150.5,221.5" stroke="black" stroke-width="2" fill="none" />
<polyline points="336.5,109.5,352.5,109.5,368.5,109.5" stroke="black" stroke-width="2" fill="none" />
<polyline points="370.0,102.5,354.0,102.5,338.0,104.0" stroke="black" stroke-width="2" fill="none" />
<polyline points="336.5,97.5,352.5,97.5,369.0,97.5,385.0,97.5" stroke="black" stroke-width="2" fill="none" />
<polyline points="372.0,66.0,356.5,66.0,340.5,65.5" stroke="black" stroke-width="2" fill="none" />
<polyline points="335.5,63.0,351.5,62.5,367.5,62.5,383.5,60.5" stroke="black" stroke-width="2" fill="none" />
<polyline points="370.5,56.0,354.5,58.5,339.0,56.5" stroke="black" stroke-width="2" fill="none" />
<polyline points="334.5,51.5,350.5,49.5,366.5,47.5,382.5,48.0" stroke="black" stroke-width="2" fill="none" />
<polyline points="377.5,26.0,362.0,26.0,346.5,26.0,330.5,25.5" stroke="black" stroke-width="2" fill="none" />
<polyline points="332.0,31.5,347.5,31.5,363.5,32.0,379.5,32.0,391.5,50.0,394.0,66.5,396.0,82.5,398.0,88.5,394.0,97.0,396.5,113.0" stroke="black" stroke-width="2" fill="none" />
<polyline points="386.5,86.0,370.5,86.0,354.0,86.5,338.0,87.0" stroke="black" stroke-width="2" fill="none" />
<polyline points="338.0,82.0,354.0,82.0,370.5,82.0,386.5,82.0" stroke="black" stroke-width="2" fill="none" />
<polyline points="390.5,78.0,380.0,71.5,364.0,71.0,347.5,71.0,331.5,63.0" stroke="black" stroke-width="2" fill="none" />
<polyline points="331.5,49.5,347.5,43.5,363.5,43.5,379.5,43.5,406.0,47.5,422.0,37.5,438.5,39.5,455.0,54.0" stroke="black" stroke-width="2" fill="none" />
<polyline points="419.0,44.0,407.5,44.0,401.0,59.5,407.5,75.5,421.5,91.5,412.0,109.5,432.0,99.5,422.5,116.0,416.5,132.0,417.0,148.5,427.0,164.5" stroke="black" stroke-width="2" fill="none" />
<polyline points="427.5,89.5,412.0,73.5,410.0,57.5" stroke="black" stroke-width="2" fill="none" />
<polyline points="339.5,43.0,331.5,59.0,331.5,75.0,333.5,91.5,334.0,108.0,326.0,110.5,342.0,130.5,358.0,128.5,374.0,128.5,390.5,128.5" stroke="black" stroke-width="2" fill="none" />
<polyline points="473.5,134.0,459.5,116.5,443.5,106.5,419.5,109.0,392.0,121.0,376.0,120.5,360.0,120.5,344.0,118.0,332.0,130.0,322.0,113.5,322.0,97.5,326.0,81.0,325.5,65.5,325.5,49.5,321.0,49.5,321.0,33.5" stroke="black" stroke-width="2" fill="none" />
<polyline points="95.0,509.5,79.0,510.0,63.0,510.0,47.0,510.5" stroke="black" stroke-width="2" fill="none" />
<polyline points="37.0,501.5,52.5,500.0,69.0,500.0,85.0,500.0,101.0,500.0,117.0,502.0,133.0,492.5,134.5,502.5,150.5,502.5,166.5,503.0,182.5,501.0" stroke="black" stroke-width="2" fill="none" />
<polyline points="98.0,493.5,82.0,494.0,66.0,494.0,50.0,494.5,34.0,496.5" stroke="black" stroke-width="2" fill="none" />
</svg>