<svg xmlns="http://www.w3.org/2000/svg" width="512mm" height="512mm" viewBox="0 0 512 512" version="1.1"><polyline points="259.5,64.5,283.5,80.5,289.5,96.5,289.5,112.5,279.5,115.0,281.5,121.0,269.5,137.0,251.5,153.0,237.0,159.0,233.0,174.5,232.5,190.5,237.0,206.5,239.0,222.5,245.0,224.5" stroke="black" stroke-width="2" fill="none" />
<polyline points="220.5,238.0,216.5,248.0,216.5,263.5,214.0,279.0,212.0,303.0,209.5,319.0,205.5,334.5,215.0,351.0,215.0,367.0,215.5,383.0,215.5,399.5,215.5,415.5,217.5,431.5,209.5,447.5,218.0,423.5,234.0,425.5,234.5,431.5,255.0,448.0,271.5,446.0" stroke="black" stroke-width="2" fill="none" />
<polyline points="289.0,440.5,273.0,434.5,257.0,430.5" stroke="black" stroke-width="2" fill="none" />
<polyline points="266.5,425.0,244.5,435.0,229.0,448.5,213.0,448.5" stroke="black" stroke-width="2" fill="none" />
<polyline points="192.0,429.0,177.5,415.0,171.5,399.0,175.5,383.0,181.5,367.5,189.5,351.5,195.5,335.5,202.0,319.5,208.0,304.0,222.5,286.0,233.0,270.5,235.0,254.5,221.5,254.5" stroke="black" stroke-width="2" fill="none" />
<polyline points="232.5,256.5,235.0,272.5,227.0,288.5,217.0,304.0,213.0,320.0,211.0,335.5,213.0,341.5,229.0,345.0,245.5,347.0,261.5,347.0,277.5,345.5" stroke="black" stroke-width="2" fill="none" />
<polyline points="288.5,341.5,288.5,325.5,286.5,307.5,286.5,291.5,287.0,275.5,287.0,260.0,285.0,244.0,285.0,228.5,276.5,220.5,270.5,205.0,276.0,189.0,270.0,197.0" stroke="black" stroke-width="2" fill="none" />
<polyline points="281.0,188.5,281.0,204.5,283.0,212.0,281.0,228.0,278.5,244.0,280.5,259.5,280.5,275.5,282.5,292.0,282.5,308.0,283.0,324.0,283.0,340.0,279.0,356.0,279.0,371.5,278.5,387.5,278.5,404.0,278.0,420.0,278.5,438.0,268.5,454.0,284.5,444.0,292.5,448.5" stroke="black" stroke-width="2" fill="none" />
<polyline points="248.0,439.5,249.5,423.5,248.5,407.5,248.5,391.5" stroke="black" stroke-width="2" fill="none" />
<polyline points="245.5,391.5,243.5,407.5,242.0,423.5,244.0,440.0,245.5,452.0" stroke="black" stroke-width="2" fill="none" />
<polyline points="173.0,424.0,157.5,416.0" stroke="black" stroke-width="2" fill="none" />
<polyline points="134.0,420.0,149.5,416.0,163.0,411.5,173.0,411.5,189.0,423.5" stroke="black" stroke-width="2" fill="none" />
<polyline points="173.5,386.0,187.5,342.0,179.0,358.5,173.0,354.5,187.5,330.5" stroke="black" stroke-width="2" fill="none" />
<polyline points="192.0,333.0,188.0,333.0,175.5,349.0,169.5,365.0,171.5,377.0,171.5,375.0,187.0,342.5,203.0,314.5" stroke="black" stroke-width="2" fill="none" />
<polyline points="218.0,298.0,234.0,278.5" stroke="black" stroke-width="2" fill="none" />
<polyline points="186.0,250.0,200.5,230.0,204.5,213.5,208.5,197.5,212.5,181.5,222.5,165.5,220.5,149.0,210.5,133.0,208.5,117.0,202.5,101.0,204.5,84.5,218.0,68.5,218.0,78.5" stroke="black" stroke-width="2" fill="none" />
<polyline points="214.0,95.0,210.0,111.5,220.0,117.5,216.0,137.5,232.0,163.5,218.0,179.5,214.0,195.5,210.5,211.5,206.5,227.5,201.0,243.5,199.0,260.0,191.0,275.5,205.0,297.5,181.0,310.0" stroke="black" stroke-width="2" fill="none" />
<polyline points="177.0,324.5,161.0,370.5,145.5,396.0,129.5,415.5,113.5,415.5,97.5,411.5" stroke="black" stroke-width="2" fill="none" />
<polyline points="91.0,432.0,107.0,423.5,135.0,433.0,147.0,423.0,163.0,431.0,178.5,437.0" stroke="black" stroke-width="2" fill="none" />
<polyline points="150.5,439.5,135.0,432.0,119.5,426.0,103.5,430.0,87.5,434.0" stroke="black" stroke-width="2" fill="none" />
<polyline points="119.0,392.0,95.0,407.5,107.5,405.5,114.0,387.5,130.5,359.5" stroke="black" stroke-width="2" fill="none" />
<polyline points="137.5,344.5,129.5,360.5,121.5,376.5,111.5,392.5,95.5,408.0,90.0,424.0,75.5,440.0,87.5,448.0,103.5,448.0" stroke="black" stroke-width="2" fill="none" />
<polyline points="119.5,326.0,103.5,318.0" stroke="black" stroke-width="2" fill="none" />
<polyline points="106.0,288.5,122.0,292.0,137.5,296.5,153.5,298.5,170.0,302.5,186.5,306.5,202.5,300.5,218.5,290.0" stroke="black" stroke-width="2" fill="none" />
<polyline points="193.0,240.0,177.5,245.5,161.5,245.0,145.5,236.5,129.5,220.0" stroke="black" stroke-width="2" fill="none" />
<polyline points="129.5,236.5,133.5,238.5,143.5,244.5,157.5,262.5,173.5,266.5" stroke="black" stroke-width="2" fill="none" />
<polyline points="166.5,265.5,176.0,281.5,176.0,289.5" stroke="black" stroke-width="2" fill="none" />
<polyline points="194.5,256.0,178.0,256.0,162.0,251.5,142.0,249.5,126.5,249.0" stroke="black" stroke-width="2" fill="none" />
<polyline points="92.0,220.0,76.0,190.0" stroke="black" stroke-width="2" fill="none" />
<polyline points="83.0,184.5,87.0,174.0,115.0,178.0,123.0,193.5,124.5,209.5,124.0,225.5,124.0,241.5,135.5,257.5,133.5,275.5,135.5,282.0,135.5,302.0,153.5,303.5,181.5,315.5,175.5,331.5,169.5,347.5,163.0,363.5,155.5,379.5,146.0,395.0,136.0,411.5,134.0,421.5,156.0,428.0,166.0,430.0" stroke="black" stroke-width="2" fill="none" />
<polyline points="145.0,444.5,128.5,448.5,116.5,452.5,100.5,455.0,84.0,454.5,67.5,450.5,51.0,448.0,45.0,433.5,45.0,417.5,45.0,401.5,45.5,385.5,45.5,369.5,45.5,354.0,46.0,338.0,46.0,322.0,46.0,305.5,44.0,289.5,42.5,273.5,36.5,265.0" stroke="black" stroke-width="2" fill="none" />
<polyline points="43.5,261.5,59.5,257.5,78.0,257.5,88.0,273.5,80.0,285.5,84.0,301.5" stroke="black" stroke-width="2" fill="none" />
<polyline points="91.0,271.5,71.0,257.5" stroke="black" stroke-width="2" fill="none" />
<polyline points="70.0,260.0,82.0,276.0,88.0,294.0,102.0,310.5,118.0,326.5" stroke="black" stroke-width="2" fill="none" />
<polyline points="132.5,322.5,116.5,318.5,100.5,308.5,84.5,284.5,69.0,264.5,53.0,262.5" stroke="black" stroke-width="2" fill="none" />
<polyline points="68.5,266.5,70.5,282.5,74.5,298.5,78.5,314.5,80.5,330.5,82.5,346.5,83.0,362.5,82.5,378.0,80.5,394.0,80.5,409.5,78.5,425.0,80.0,443.5,102.0,443.5,110.0,444.0,112.5,440.0,128.5,442.5" stroke="black" stroke-width="2" fill="none" />
<polyline points="132.0,344.0,116.5,376.5,106.5,390.5,118.5,372.5,126.5,356.5,140.5,340.5,142.5,324.5" stroke="black" stroke-width="2" fill="none" />
<polyline points="103.0,244.5,99.0,228.0,93.0,212.0,83.0,196.0,87.0,180.0,86.5,188.0,71.0,179.5" stroke="black" stroke-width="2" fill="none" />
<polyline points="59.0,182.5,69.0,178.5,75.0,194.5,87.0,210.0,93.0,226.0,97.0,241.5,101.0,250.0" stroke="black" stroke-width="2" fill="none" />
<polyline points="67.0,246.0,83.0,261.5,105.0,281.5,119.0,298.0,141.0,282.5,157.0,288.5,173.0,292.5,188.5,296.5" stroke="black" stroke-width="2" fill="none" />
<polyline points="213.5,190.0,229.5,166.0,247.5,166.0,250.0,169.5,266.5,155.5,282.5,165.5,298.5,177.5,314.5,179.5,330.0,189.5" stroke="black" stroke-width="2" fill="none" />
<polyline points="326.5,204.0,310.5,198.5" stroke="black" stroke-width="2" fill="none" />
<polyline points="284.5,215.0,300.5,224.5,317.0,234.5" stroke="black" stroke-width="2" fill="none" />
<polyline points="347.0,252.0,363.0,249.5,379.0,249.5,393.0,237.5" stroke="black" stroke-width="2" fill="none" />
<polyline points="387.5,222.5,387.5,197.0" stroke="black" stroke-width="2" fill="none" />
<polyline points="377.0,208.0,393.0,220.0" stroke="black" stroke-width="2" fill="none" />
<polyline points="373.0,215.0,389.0,243.5" stroke="black" stroke-width="2" fill="none" />
<polyline points="384.0,264.0,396.0,248.0,388.0,232.0,380.0,216.0,378.0,182.0" stroke="black" stroke-width="2" fill="none" />
<polyline points="376.0,169.5,391.5,165.5,407.5,167.0,423.5,167.0,439.0,169.0,447.5,177.0,446.0,193.0,436.0,209.0" stroke="black" stroke-width="2" fill="none" />
<polyline points="442.0,206.0,439.5,222.0,434.0,238.5,432.0,254.5,446.5,250.0,462.5,249.5" stroke="black" stroke-width="2" fill="none" />
<polyline points="436.0,253.5,452.0,256.0,466.0,252.5,466.0,268.5,471.5,268.0,455.5,288.0,452.0,304.0,452.0,319.5,451.5,335.0,456.0,355.0,456.0,371.0,456.0,387.0,455.5,402.5,455.5,419.0,455.0,435.5" stroke="black" stroke-width="2" fill="none" />
<polyline points="435.5,443.5,419.5,442.0,403.5,442.0,387.5,442.0,371.5,442.0" stroke="black" stroke-width="2" fill="none" />
<polyline points="369.5,438.5,385.5,438.5,401.5,438.5,417.5,436.5,433.5,436.0" stroke="black" stroke-width="2" fill="none" />
<polyline points="415.5,336.5,399.5,336.5" stroke="black" stroke-width="2" fill="none" />
<polyline points="396.0,332.0,412.0,332.0" stroke="black" stroke-width="2" fill="none" />
<polyline points="402.0,316.0,404.0,312.0" stroke="black" stroke-width="2" fill="none" />
<polyline points="440.0,288.0,424.0,288.5,407.5,289.0,391.5,289.0,376.0,289.0,360.0,288.5" stroke="black" stroke-width="2" fill="none" />
<polyline points="363.0,286.5,360.5,302.5,360.5,318.0,360.5,334.0,362.0,354.5,360.0,370.5,360.0,386.0,360.0,401.5,359.5,417.0,359.5,432.5,363.5,432.0,379.5,430.5,395.5,431.0,411.5,431.5,427.0,432.0,443.0,432.5" stroke="black" stroke-width="2" fill="none" />
<polyline points="442.5,348.0,426.5,348.0,410.5,348.0,394.5,348.0,378.5,347.5,362.5,347.5" stroke="black" stroke-width="2" fill="none" />
<polyline points="358.0,351.0,374.0,355.0,390.5,355.0,406.0,355.0,422.0,355.0,437.5,354.5,453.5,350.5" stroke="black" stroke-width="2" fill="none" />
<polyline points="470.5,276.0,463.0,273.5,447.0,273.5,431.5,273.5,415.0,273.5,399.0,274.0,391.0,270.5,404.5,255.0,404.5,241.0,398.0,231.5,401.5,225.0,391.0,221.0,391.0,207.0,388.5,200.5,370.0,209.0" stroke="black" stroke-width="2" fill="none" />
<polyline points="380.5,167.0,378.5,182.5,382.5,198.5,372.5,214.5,380.5,230.5,388.5,246.5,391.0,264.5,393.0,250.5,405.5,252.0,421.0,254.0,437.0,232.5" stroke="black" stroke-width="2" fill="none" />
<polyline points="449.5,283.0,433.5,283.5,417.5,283.5,402.0,284.0,386.0,282.5,370.0,282.5,354.0,286.5" stroke="black" stroke-width="2" fill="none" />
<polyline points="351.0,279.5,367.5,278.0,384.0,277.5,400.0,277.0,416.5,277.0,432.5,279.0,448.5,279.0,457.0,297.5,457.0,313.5,456.5,329.0,458.5,345.0,452.5,361.5,452.5,377.0,452.0,392.5,452.0,409.0,452.0,425.0" stroke="black" stroke-width="2" fill="none" />
<polyline points="382.0,255.5,366.0,256.0,350.0,256.5" stroke="black" stroke-width="2" fill="none" />
<polyline points="349.5,256.5,349.5,272.5,357.0,274.5,373.0,274.5,388.5,274.0" stroke="black" stroke-width="2" fill="none" />
<polyline points="349.0,250.5,345.0,266.5,351.0,280.0,355.0,295.5,353.0,311.5,353.0,327.0,355.5,343.0,356.0,359.5,356.0,375.5,356.0,391.5,356.0,407.5,356.0,423.5,356.0,439.0,364.0,443.0,372.0,451.0,388.0,449.0,404.0,449.0,420.0,449.0,435.5,449.5,451.5,451.5" stroke="black" stroke-width="2" fill="none" />
<polyline points="313.5,223.5,297.5,213.5,281.5,212.0" stroke="black" stroke-width="2" fill="none" />
<polyline points="272.0,211.5,296.0,213.5,310.0,229.0" stroke="black" stroke-width="2" fill="none" />
<polyline points="329.0,229.0,331.0,213.0,331.0,197.0,327.0,195.0,323.0,189.0,306.5,187.5,290.5,179.0,274.5,167.0,258.5,159.0" stroke="black" stroke-width="2" fill="none" />
<polyline points="258.0,154.5,285.5,170.0,299.5,195.5,315.5,195.5" stroke="black" stroke-width="2" fill="none" />
<polyline points="321.5,226.0,323.5,209.5,301.0,200.0,295.0,184.0,273.0,168.0,245.5,149.5,263.5,133.5,267.5,118.0,254.0,116.0,262.0,106.0,246.0,101.5,230.0,101.5,214.0,95.5,208.0,115.5" stroke="black" stroke-width="2" fill="none" />
<polyline points="209.5,110.0,225.5,108.0,230.0,122.0,240.0,138.0" stroke="black" stroke-width="2" fill="none" />
<polyline points="247.0,141.0,231.0,141.0" stroke="black" stroke-width="2" fill="none" />
<polyline points="227.5,153.0,211.5,139.0" stroke="black" stroke-width="2" fill="none" />
<polyline points="208.0,129.0,224.0,143.0,240.0,151.5,255.5,141.5" stroke="black" stroke-width="2" fill="none" />
<polyline points="253.5,163.5,251.5,179.5,255.5,187.5,251.5,197.0,247.5,213.0" stroke="black" stroke-width="2" fill="none" />
<polyline points="209.0,185.5,225.0,161.5,253.0,152.0,269.5,136.5,286.0,118.5" stroke="black" stroke-width="2" fill="none" />
<polyline points="282.5,76.0,266.5,66.0,250.5,62.0,234.5,62.0,218.5,70.5,202.5,92.5" stroke="black" stroke-width="2" fill="none" />
<polyline points="110.0,153.5,94.0,161.5" stroke="black" stroke-width="2" fill="none" />
<polyline points="93.0,165.5,109.0,171.5" stroke="black" stroke-width="2" fill="none" />
<polyline points="115.5,171.0,99.5,163.0" stroke="black" stroke-width="2" fill="none" />
<polyline points="101.5,154.0,85.5,168.0,69.5,159.5,53.5,163.5,37.5,167.0,21.5,177.0" stroke="black" stroke-width="2" fill="none" />
<polyline points="39.0,169.0,22.5,185.0,27.0,201.0,32.5,217.0,38.5,232.5,42.0,248.5,36.5,266.5,39.0,282.0,41.5,298.0,43.5,313.5,43.5,330.0,43.5,346.0,43.5,362.0,43.0,378.0,42.5,393.5,42.0,410.0,41.5,426.0,41.5,442.5,51.0,445.0,66.5,445.0,82.5,433.0,98.5,418.5,115.0,420.5" stroke="black" stroke-width="2" fill="none" />
<polyline points="128.0,267.5,112.0,270.0,96.0,264.0,80.0,252.5,64.0,230.5" stroke="black" stroke-width="2" fill="none" />
<polyline points="61.0,148.5,44.5,126.5" stroke="black" stroke-width="2" fill="none" />
<polyline points="48.0,124.5,64.0,137.0,79.5,127.0,95.5,122.5,111.5,118.5" stroke="black" stroke-width="2" fill="none" />
<polyline points="89.0,128.0,77.0,128.0" stroke="black" stroke-width="2" fill="none" />
<polyline points="82.0,143.5,70.0,159.5,60.0,180.0,56.0,196.0,58.0,211.5,62.5,227.5,72.0,243.5,76.0,249.5,98.0,265.5,110.5,281.5,113.0,293.5,130.5,282.0,147.0,280.0,163.0,284.0,171.0,284.0,195.0,282.0,211.0,284.5" stroke="black" stroke-width="2" fill="none" />
<polyline points="111.5,104.0,95.0,90.5,79.0,88.5,63.0,94.5,46.5,110.5" stroke="black" stroke-width="2" fill="none" />
<polyline points="42.0,109.5,58.5,91.5,74.5,83.5,90.5,84.0,106.5,92.0,122.5,108.0,120.5,138.0,110.5,154.0,96.0,173.5,99.5,189.5" stroke="black" stroke-width="2" fill="none" />
<polyline points="77.5,141.5,55.5,139.5,47.5,123.5,50.0,107.5,66.0,91.5" stroke="black" stroke-width="2" fill="none" />
<polyline points="71.0,83.5,47.0,99.5,41.5,115.5,45.5,131.5,58.0,147.0,74.0,163.5,74.0,179.5,86.0,190.0,98.0,200.0,94.0,214.5" stroke="black" stroke-width="2" fill="none" />
<polyline points="123.0,134.5,119.0,124.5,105.0,126.5,107.0,136.5,90.5,142.0,82.5,136.0,80.0,135.5,64.0,143.5,77.5,133.5,99.5,127.5,113.0,125.5,113.5,106.0,91.0,90.0" stroke="black" stroke-width="2" fill="none" />
<polyline points="89.5,83.0,113.5,99.0,123.5,115.0,117.5,131.5,110.0,148.0,88.0,164.5,114.0,172.5,126.0,188.5,128.0,204.5,128.5,220.5,141.0,236.5,163.0,252.5,138.5,260.5,150.5,264.5,166.5,268.5,194.5,264.5,210.5,258.0,226.0,248.0,250.0,258.0" stroke="black" stroke-width="2" fill="none" />
</svg>