<svg xmlns="http://www.w3.org/2000/svg" width="512mm" height="512mm" viewBox="0 0 512 512" version="1.1"><polyline points="391.5,40.5,367.5,56.5,355.5,72.5,349.5,88.5,349.5,105.0,357.5,121.0,367.5,137.0,365.5,153.0,375.0,169.0,405.0,184.5,390.5,200.5,379.0,216.5,373.0,232.5,371.0,248.5,369.5,264.0,367.5,279.5,365.5,295.0,359.5,311.0,357.5,327.0" stroke="black" stroke-width="2" fill="none" />
<polyline points="359.5,312.5,379.5,288.5,399.5,302.5,415.5,296.5,439.5,298.0" stroke="black" stroke-width="2" fill="none" />
<polyline points="428.5,292.5,441.0,316.5" stroke="black" stroke-width="2" fill="none" />
<polyline points="414.5,323.5,398.5,317.5" stroke="black" stroke-width="2" fill="none" />
<polyline points="399.0,318.0,417.0,333.5,417.0,349.5,423.0,378.0,421.0,394.5,423.0,418.5,423.0,434.5,420.5,450.5" stroke="black" stroke-width="2" fill="none" />
<polyline points="450.0,461.0,452.0,444.5,452.5,429.0,450.5,413.5,450.5,405.0" stroke="black" stroke-width="2" fill="none" />
<polyline points="455.5,408.0,457.5,424.0,459.5,440.0,457.0,456.0,454.5,471.5" stroke="black" stroke-width="2" fill="none" />
<polyline points="472.0,473.5,456.0,471.5,434.0,476.0,418.0,472.0,414.0,462.0,416.0,446.0,416.5,429.5,416.5,413.5,416.5,385.5,416.5,370.0,430.5,354.0,444.5,338.0,460.0,321.5,476.0,305.5,496.0,279.0,494.0,263.5,494.0,247.5,490.0,231.5,486.5,216.0,480.5,200.0,460.5,184.5,450.5,168.0,470.5,152.0,468.5,146.0,452.0,158.0,436.0,172.0" stroke="black" stroke-width="2" fill="none" />
<polyline points="442.0,175.0,458.0,160.5,474.5,146.0" stroke="black" stroke-width="2" fill="none" />
<polyline points="446.5,175.5,462.5,184.0,478.0,198.0" stroke="black" stroke-width="2" fill="none" />
<polyline points="458.5,200.5,443.0,194.5" stroke="black" stroke-width="2" fill="none" />
<polyline points="445.0,194.5,445.0,210.5,445.0,238.0,443.0,254.0,444.5,270.0,458.5,269.5" stroke="black" stroke-width="2" fill="none" />
<polyline points="471.0,281.5,468.5,283.5,452.5,293.5,436.0,289.0,420.0,291.5,406.0,293.5,392.0,301.5,378.0,328.0,362.5,348.0,362.5,330.0,366.5,314.0,370.5,298.0,374.0,278.0,375.5,262.0,377.5,246.0,379.5,230.0,387.5,214.0,405.5,187.5,389.0,202.0,373.0,232.0" stroke="black" stroke-width="2" fill="none" />
<polyline points="380.0,230.0,394.0,230.0,392.0,246.0,384.5,266.0" stroke="black" stroke-width="2" fill="none" />
<polyline points="384.0,256.5,388.0,240.0,386.0,245.5" stroke="black" stroke-width="2" fill="none" />
<polyline points="405.0,238.5,414.5,254.5,416.5,270.0,418.5,286.0,390.0,304.5,382.0,320.5,372.0,336.0,358.0,351.5,367.5,349.0,383.5,328.5,405.5,312.0,421.5,318.5,437.5,313.0" stroke="black" stroke-width="2" fill="none" />
<polyline points="473.5,301.5,455.5,317.5,440.0,333.5,426.0,349.5,434.0,347.5,450.0,331.5,466.0,315.5,480.0,307.5" stroke="black" stroke-width="2" fill="none" />
<polyline points="487.0,310.5,489.0,326.5,489.0,342.5,491.0,358.0,493.0,374.0,491.0,389.5,487.0,406.0,487.0,422.0,487.0,438.5,487.5,454.5,487.5,470.5" stroke="black" stroke-width="2" fill="none" />
<polyline points="426.0,482.0,410.0,484.5,394.0,484.5" stroke="black" stroke-width="2" fill="none" />
<polyline points="391.5,481.5,407.5,477.5" stroke="black" stroke-width="2" fill="none" />
<polyline points="401.5,474.5,385.5,480.5" stroke="black" stroke-width="2" fill="none" />
<polyline points="385.5,483.5,401.5,489.5,417.5,487.5,433.5,483.5,450.0,481.5,466.0,479.5,482.0,477.5" stroke="black" stroke-width="2" fill="none" />
<polyline points="377.0,341.5,387.0,325.5" stroke="black" stroke-width="2" fill="none" />
<polyline points="395.0,323.5,394.5,340.0,395.0,356.0,395.0,372.0,395.0,388.0,405.0,404.0" stroke="black" stroke-width="2" fill="none" />
<polyline points="414.5,400.0,398.5,397.5,390.5,395.0,390.0,379.5,390.0,364.0,390.0,348.0,390.0,332.5,394.0,316.5" stroke="black" stroke-width="2" fill="none" />
<polyline points="391.0,310.5,399.0,312.5,422.5,328.5,422.5,344.5,428.5,348.5,444.5,330.5,460.5,314.0,480.0,310.0,482.0,326.0,484.0,342.0,486.5,358.0,486.5,374.0,484.5,389.5,482.0,405.0,482.0,421.0,481.5,437.0,481.5,452.5,481.0,469.0" stroke="black" stroke-width="2" fill="none" />
<polyline points="389.5,294.5,373.5,295.0" stroke="black" stroke-width="2" fill="none" />
<polyline points="409.5,241.0,393.5,225.0" stroke="black" stroke-width="2" fill="none" />
<polyline points="392.0,223.5,407.5,231.5" stroke="black" stroke-width="2" fill="none" />
<polyline points="388.5,211.5,404.5,198.0" stroke="black" stroke-width="2" fill="none" />
<polyline points="401.0,181.5,385.0,173.5,369.0,159.0" stroke="black" stroke-width="2" fill="none" />
<polyline points="365.5,152.0,381.5,164.0,397.5,176.0,413.5,180.0,429.5,191.5,446.0,187.0,462.0,195.5" stroke="black" stroke-width="2" fill="none" />
<polyline points="449.5,196.5,469.5,212.5" stroke="black" stroke-width="2" fill="none" />
<polyline points="474.0,200.5,458.0,188.5,442.0,180.0" stroke="black" stroke-width="2" fill="none" />
<polyline points="441.5,181.5,459.5,197.5" stroke="black" stroke-width="2" fill="none" />
<polyline points="446.5,183.0,470.5,198.5,482.5,214.5,484.5,230.5,488.5,246.5,490.5,262.5,491.0,278.5,483.0,288.5,467.5,290.0,463.0,300.0,479.0,294.5" stroke="black" stroke-width="2" fill="none" />
<polyline points="465.0,252.5,461.0,252.5,461.0,260.5,466.5,264.5,448.5,248.5,450.5,232.5,454.5,222.5,438.5,238.5,424.5,256.5,414.0,240.5,414.5,224.5,408.5,218.0,408.5,201.5,414.5,189.0,394.0,172.5,374.5,156.5,374.5,131.0,368.0,121.0,372.0,109.0,397.5,93.0,413.0,77.0,417.5,77.0,403.5,89.0,387.5,99.5,372.0,109.5" stroke="black" stroke-width="2" fill="none" />
<polyline points="374.0,116.0,390.0,110.0,388.0,124.0,382.0,140.0,394.0,164.0,397.5,158.0,414.0,156.0,430.0,143.5,412.0,161.5" stroke="black" stroke-width="2" fill="none" />
<polyline points="424.5,147.0,422.5,125.5,436.5,105.5,420.5,107.5" stroke="black" stroke-width="2" fill="none" />
<polyline points="418.5,99.5,434.5,97.5" stroke="black" stroke-width="2" fill="none" />
<polyline points="451.5,98.5,449.5,84.5,433.5,88.5,417.5,87.0" stroke="black" stroke-width="2" fill="none" />
<polyline points="441.0,50.0,435.5,66.0,433.0,81.5,451.5,103.5,455.5,119.5,458.0,133.5,474.0,137.5" stroke="black" stroke-width="2" fill="none" />
<polyline points="418.5,159.5,402.0,164.0,386.0,158.0" stroke="black" stroke-width="2" fill="none" />
<polyline points="425.0,204.5,425.0,220.5,425.0,236.0" stroke="black" stroke-width="2" fill="none" />
<polyline points="430.0,242.5,436.0,228.5,437.5,212.0,438.0,196.0" stroke="black" stroke-width="2" fill="none" />
<polyline points="362.0,85.0,378.5,72.5,395.0,71.0,371.0,79.0,369.5,63.0,386.0,51.5" stroke="black" stroke-width="2" fill="none" />
<polyline points="393.5,45.0,369.5,61.0,357.5,77.0,357.5,93.5,366.0,128.0,382.0,118.5,386.0,126.5,390.0,142.5" stroke="black" stroke-width="2" fill="none" />
<polyline points="360.5,83.5,374.5,63.5,362.5,80.0,364.5,60.0,380.5,46.0,396.5,40.0,412.5,38.0,428.0,40.0,444.0,44.0,460.0,51.5,476.0,67.5" stroke="black" stroke-width="2" fill="none" />
<polyline points="435.0,41.5,455.0,57.5,473.5,65.5,483.5,81.5,484.0,97.0,480.0,113.5,474.0,129.5,466.0,148.0,446.0,164.0,436.0,180.5,426.0,196.5,432.0,209.0,429.5,225.0,437.5,238.5,429.5,254.5,423.5,270.0,424.0,286.0,449.5,300.0,430.0,316.0,434.0,322.0,450.0,312.0,466.0,304.5,472.0,288.0" stroke="black" stroke-width="2" fill="none" />
<polyline points="288.0,288.5,271.5,303.0,255.5,317.0,240.0,317.0,224.0,306.5" stroke="black" stroke-width="2" fill="none" />
<polyline points="220.0,311.0,236.0,321.0" stroke="black" stroke-width="2" fill="none" />
<polyline points="240.0,337.0,256.0,321.0,276.0,305.0,293.5,289.0,303.5,265.0,287.5,259.5,271.5,259.5,256.0,272.0,240.0,284.5,224.0,294.5,208.0,296.5" stroke="black" stroke-width="2" fill="none" />
<polyline points="199.0,287.5,215.5,308.0,232.0,293.5,248.0,293.0,264.5,295.0,280.5,281.0,296.5,269.0,297.0,277.5,281.0,293.5,264.5,309.0" stroke="black" stroke-width="2" fill="none" />
<polyline points="272.5,279.5,278.5,263.5" stroke="black" stroke-width="2" fill="none" />
<polyline points="279.5,264.0,264.0,272.0,248.0,283.5,255.5,277.5,277.5,261.5" stroke="black" stroke-width="2" fill="none" />
<polyline points="274.0,259.0,252.0,275.0,227.5,291.0,225.5,299.0,199.5,317.0,187.5,333.0,187.0,350.5,203.0,350.5,219.5,342.0,235.5,334.0" stroke="black" stroke-width="2" fill="none" />
<polyline points="193.5,315.0,182.0,325.0,182.0,308.5" stroke="black" stroke-width="2" fill="none" />
<polyline points="176.5,306.5,177.0,322.5,175.0,338.5,181.0,354.5,181.5,370.0,181.5,385.5,183.5,391.0" stroke="black" stroke-width="2" fill="none" />
<polyline points="161.0,400.0,177.0,399.5,197.0,405.5,199.0,421.5,199.0,437.5,200.5,454.0,202.5,470.5" stroke="black" stroke-width="2" fill="none" />
<polyline points="191.5,481.5,176.0,481.0,159.5,471.0,157.0,455.0,159.5,439.0,158.0,423.5,156.0,407.5,156.0,391.5,163.5,375.5,161.5,359.5,159.5,343.5,157.5,327.5,153.5,311.5,152.0,295.5,152.5,279.5,154.5,263.5,154.5,239.5,148.5,223.5,136.0,221.5,119.5,232.0,103.5,238.0,87.5,230.0" stroke="black" stroke-width="2" fill="none" />
<polyline points="90.0,232.5,106.0,242.5,122.5,238.5,130.5,225.0,118.5,241.0" stroke="black" stroke-width="2" fill="none" />
<polyline points="124.0,225.5,128.0,209.0,152.5,185.5,164.5,169.5,160.5,154.0,146.5,150.5" stroke="black" stroke-width="2" fill="none" />
<polyline points="142.5,147.0,158.5,136.5,147.0,142.5,143.5,158.5,153.5,160.5" stroke="black" stroke-width="2" fill="none" />
<polyline points="157.5,182.5,141.0,194.5,125.0,192.5,109.0,186.5" stroke="black" stroke-width="2" fill="none" />
<polyline points="109.0,187.0,118.5,191.0,139.0,205.0,152.5,229.0" stroke="black" stroke-width="2" fill="none" />
<polyline points="154.5,220.5,159.0,236.5,161.0,252.5,159.0,268.0,159.0,284.0,159.0,299.5,161.0,315.5,163.0,331.0,165.5,347.0,167.5,363.0,169.5,379.5,159.5,399.5,161.5,415.5,163.5,432.0,165.0,448.5,167.0,460.5,173.0,477.0" stroke="black" stroke-width="2" fill="none" />
<polyline points="130.0,468.5,113.5,474.5,97.0,474.0,81.0,467.5,67.0,447.5" stroke="black" stroke-width="2" fill="none" />
<polyline points="67.5,426.0,83.5,430.0,100.0,430.0,116.0,428.0,132.0,424.5,138.0,442.5,138.0,458.5" stroke="black" stroke-width="2" fill="none" />
<polyline points="117.0,463.0,119.0,447.5,121.0,432.0" stroke="black" stroke-width="2" fill="none" />
<polyline points="89.5,423.0,73.5,419.0" stroke="black" stroke-width="2" fill="none" />
<polyline points="61.0,416.0,65.0,432.0,69.0,447.5,72.5,463.5" stroke="black" stroke-width="2" fill="none" />
<polyline points="47.5,451.5,49.5,435.0,53.5,414.5,51.5,416.0" stroke="black" stroke-width="2" fill="none" />
<polyline points="68.0,407.0,84.0,417.0,100.0,419.5,115.5,415.5" stroke="black" stroke-width="2" fill="none" />
<polyline points="92.0,365.5,76.0,375.5,78.0,373.5,97.5,357.5,103.5,341.5,104.0,325.5,106.5,309.0,106.5,293.0,101.0,286.5,85.0,262.5" stroke="black" stroke-width="2" fill="none" />
<polyline points="92.0,270.0,108.0,292.5,132.0,262.0" stroke="black" stroke-width="2" fill="none" />
<polyline points="141.0,262.0,137.0,277.5,137.5,293.5,136.0,309.5,136.5,325.5,138.5,342.0,133.0,358.0,133.0,374.0,132.5,390.0,132.5,406.0" stroke="black" stroke-width="2" fill="none" />
<polyline points="140.0,358.0,140.0,374.0,139.5,390.0,139.0,405.5,138.5,421.5,132.5,438.0,132.0,453.5,138.0,471.5,150.0,481.0,166.0,475.5" stroke="black" stroke-width="2" fill="none" />
<polyline points="84.0,365.5,68.0,371.5,52.5,377.0" stroke="black" stroke-width="2" fill="none" />
<polyline points="55.0,374.5,53.0,390.0,51.0,406.0,47.0,421.5,44.5,437.5,42.0,453.5,42.0,469.5,45.5,473.5" stroke="black" stroke-width="2" fill="none" />
<polyline points="29.0,361.5,23.0,349.5" stroke="black" stroke-width="2" fill="none" />
<polyline points="77.5,323.0,91.5,319.5,96.0,303.5,99.5,288.0,91.5,272.0,87.5,256.0,83.5,240.5,81.5,224.5,93.5,208.5,85.0,192.5,67.0,176.5,81.5,168.0,65.5,174.0" stroke="black" stroke-width="2" fill="none" />
<polyline points="68.0,175.5,84.0,187.5" stroke="black" stroke-width="2" fill="none" />
<polyline points="110.5,191.0,126.5,199.0,138.5,209.0,142.5,225.5,145.0,241.0,145.0,261.0,129.0,269.0,121.0,285.0,117.0,301.0,121.5,317.0" stroke="black" stroke-width="2" fill="none" />
<polyline points="128.0,323.0,112.0,309.0" stroke="black" stroke-width="2" fill="none" />
<polyline points="75.0,278.0,59.5,266.0" stroke="black" stroke-width="2" fill="none" />
<polyline points="66.5,264.5,82.5,276.5,98.5,296.0,124.5,264.0,136.5,256.0,152.5,252.0" stroke="black" stroke-width="2" fill="none" />
<polyline points="140.5,258.5,134.5,274.5,132.5,290.5,132.5,306.5" stroke="black" stroke-width="2" fill="none" />
<polyline points="79.5,334.0,71.5,330.0,71.0,314.0,69.0,298.0,65.0,282.0,59.0,265.5,57.0,249.5,63.0,233.5,73.5,222.0,58.0,246.0" stroke="black" stroke-width="2" fill="none" />
<polyline points="47.5,231.5,31.5,257.5" stroke="black" stroke-width="2" fill="none" />
<polyline points="26.0,259.5,42.0,231.5,58.0,219.0,54.0,227.0,38.0,243.0,32.0,259.0,30.0,275.0,28.0,291.0,25.5,307.5,25.5,323.5,25.0,339.5,29.5,356.0,34.0,371.5,32.0,387.0,30.5,403.0,28.5,419.0,26.5,435.0,25.0,451.5,23.0,467.5,28.5,475.0,50.5,479.0,66.5,477.5,82.5,477.0,98.0,476.5,114.0,479.0,130.0,477.0,145.5,475.0,173.0,473.0,188.5,477.0" stroke="black" stroke-width="2" fill="none" />
<polyline points="77.5,315.5,75.5,299.5,71.5,283.0,57.5,279.0,41.5,281.0" stroke="black" stroke-width="2" fill="none" />
<polyline points="46.5,286.0,44.5,295.5,50.5,297.5,50.0,281.5" stroke="black" stroke-width="2" fill="none" />
<polyline points="54.5,277.0,58.5,293.5,60.0,309.5,56.0,325.5" stroke="black" stroke-width="2" fill="none" />
<polyline points="51.5,320.0,45.5,316.0,47.5,313.5,49.5,307.5,41.5,291.0,45.5,275.0" stroke="black" stroke-width="2" fill="none" />
<polyline points="72.5,231.5,66.0,247.5,64.0,263.5,82.0,279.0,84.0,291.0,90.5,306.5,84.5,322.5" stroke="black" stroke-width="2" fill="none" />
<polyline points="76.5,232.5,80.5,248.5,84.5,264.5,90.5,280.5,98.5,298.5,98.5,314.5,99.0,330.5,98.5,346.0,88.5,362.0,62.5,383.5,66.5,399.0,76.0,415.5,68.0,429.5,72.0,446.0,78.5,462.0" stroke="black" stroke-width="2" fill="none" />
<polyline points="87.5,230.5,89.5,214.5,64.0,218.0,48.0,196.5" stroke="black" stroke-width="2" fill="none" />
<polyline points="47.5,152.0,63.5,116.0,79.5,98.5,95.5,88.5,112.0,85.0,128.0,87.0,144.0,93.5,160.0,107.5" stroke="black" stroke-width="2" fill="none" />
<polyline points="140.0,105.5,124.0,97.5" stroke="black" stroke-width="2" fill="none" />
<polyline points="124.0,97.5,148.0,105.5" stroke="black" stroke-width="2" fill="none" />
<polyline points="132.0,87.0,156.0,103.5,166.0,119.5,166.0,135.5,166.0,151.5,168.0,167.5,172.0,183.5,170.5,199.5,164.5,215.5,189.0,231.5,197.0,248.0,199.0,263.5,203.0,279.5,209.0,296.0,223.0,312.5,243.0,328.5,217.0,344.5,196.5,364.5,186.5,380.5,192.5,404.5,193.0,420.5,195.0,436.5,195.0,452.5,199.5,468.5" stroke="black" stroke-width="2" fill="none" />
<polyline points="286.0,272.0,269.5,284.0,253.5,290.5,271.5,288.5,291.5,272.5,283.5,260.5" stroke="black" stroke-width="2" fill="none" />
<polyline points="182.0,226.0,166.0,218.5" stroke="black" stroke-width="2" fill="none" />
<polyline points="164.0,224.0,188.0,240.0,192.0,256.0,196.0,272.5,200.0,288.5,204.0,304.5,185.5,322.5,185.0,350.5,189.0,342.5,189.5,370.0,205.5,354.0,221.5,348.0,237.5,340.5,253.5,324.5,270.0,313.0,286.0,299.0" stroke="black" stroke-width="2" fill="none" />
<polyline points="185.5,235.5,169.5,225.5,153.5,217.5,137.5,208.0" stroke="black" stroke-width="2" fill="none" />
<polyline points="135.5,222.5,139.5,238.5,131.0,254.5,119.0,270.5,112.5,286.0,108.5,302.0,114.5,317.5,121.0,333.5,121.0,349.5,121.5,365.0,121.5,381.0,121.5,397.0" stroke="black" stroke-width="2" fill="none" />
<polyline points="121.0,161.0,105.0,161.0" stroke="black" stroke-width="2" fill="none" />
<polyline points="99.5,154.5,115.0,152.5" stroke="black" stroke-width="2" fill="none" />
<polyline points="112.5,144.0,96.5,150.0" stroke="black" stroke-width="2" fill="none" />
<polyline points="106.0,130.5,91.5,146.0,85.5,161.5,93.5,143.5,110.0,130.0,126.0,136.0,142.0,134.0,158.0,134.0" stroke="black" stroke-width="2" fill="none" />
<polyline points="100.0,85.5,74.0,101.5,61.5,117.5,55.5,133.5,49.5,149.5,46.0,166.0,44.0,181.5,48.0,197.5,58.0,214.0,44.0,230.0,32.0,246.5,26.0,262.5,24.0,278.0,24.0,294.0,22.0,309.5,20.5,325.0,20.5,341.5,24.5,358.0,30.5,374.5,27.0,390.5,25.0,407.0,23.0,423.0,23.0,439.0,20.5,454.5,18.0,470.0,24.0,480.0,40.0,479.5,56.0,474.0,72.0,474.0" stroke="black" stroke-width="2" fill="none" />
</svg>