<svg xmlns="http://www.w3.org/2000/svg" width="512mm" height="512mm" viewBox="0 0 512 512" version="1.1"><polyline points="95.5,84.5,71.5,100.5,59.5,116.5,61.5,140.5,79.5,157.0" stroke="black" stroke-width="2" fill="none" />
<polyline points="84.0,138.0,99.5,138.0,115.0,123.5,131.0,107.5,147.0,109.5" stroke="black" stroke-width="2" fill="none" />
<polyline points="142.5,113.5,126.5,117.5,110.5,135.5,146.5,135.5,149.0,121.5,155.0,115.5,149.0,101.5,127.0,86.0,95.5,84.0" stroke="black" stroke-width="2" fill="none" />
<polyline points="132.0,107.0,116.0,123.5,102.0,139.5,96.0,153.5,106.0,175.5,108.0,191.5,108.0,207.5" stroke="black" stroke-width="2" fill="none" />
<polyline points="112.0,194.0,113.5,210.0,112.0,226.5,114.0,242.5,114.5,258.0,114.5,273.5,113.0,290.0,127.0,296.0,153.0,310.0" stroke="black" stroke-width="2" fill="none" />
<polyline points="188.0,322.5,204.0,326.5,220.5,324.5,246.5,331.0,262.5,331.0,278.5,331.0,296.5,333.0,312.5,333.5,328.5,335.5" stroke="black" stroke-width="2" fill="none" />
<polyline points="325.5,341.5,309.5,341.5,294.0,341.5,294.5,337.5,278.5,339.5,262.5,343.5,246.5,345.5,230.0,343.5,213.5,344.0,197.5,344.0,181.5,340.0" stroke="black" stroke-width="2" fill="none" />
<polyline points="194.0,338.0,210.0,338.5,226.0,338.0,241.5,338.0,257.5,337.5" stroke="black" stroke-width="2" fill="none" />
<polyline points="295.5,368.0,311.5,361.5,327.5,361.5,343.5,361.5" stroke="black" stroke-width="2" fill="none" />
<polyline points="363.0,358.0,347.0,358.0,331.5,356.0,316.0,356.0,300.0,356.5,283.5,355.0,267.5,355.0,252.0,355.0,236.0,354.5,220.0,355.0,204.0,353.0,188.0,353.5,172.0,353.5,156.0,353.0,140.0,351.0,123.5,350.5,107.5,348.5,91.5,346.0,75.5,342.0" stroke="black" stroke-width="2" fill="none" />
<polyline points="73.5,335.5,89.5,331.5,105.5,329.5,121.5,328.0" stroke="black" stroke-width="2" fill="none" />
<polyline points="131.5,320.5,131.0,304.0,135.0,288.0,133.5,272.0,135.5,255.5,138.0,239.5,136.0,223.0,124.0,215.0" stroke="black" stroke-width="2" fill="none" />
<polyline points="129.5,213.0,143.5,229.0,145.5,246.0,149.5,262.5,151.5,278.5,153.5,295.0,148.0,314.5" stroke="black" stroke-width="2" fill="none" />
<polyline points="159.0,354.5,175.0,354.5,190.5,357.0,206.5,357.0,222.0,357.5,237.5,357.5,253.5,357.5,270.0,359.5,286.0,359.5,290.0,361.5,286.0,377.5,290.0,394.0,304.0,410.5,320.0,426.5,335.5,442.0,331.5,458.0,304.0,474.0,278.0,489.5,255.5,505.0,262.0,501.0,278.0,489.0,294.0,479.0,309.5,470.5,325.5,461.0,345.0,451.5,356.5,467.5,370.5,484.0,371.0,500.5,399.0,508.5,414.5,505.0,408.5,501.0" stroke="black" stroke-width="2" fill="none" />
<polyline points="422.0,497.0,406.5,503.0,390.0,507.0,374.0,503.0" stroke="black" stroke-width="2" fill="none" />
<polyline points="423.5,481.5,402.0,449.5,386.0,433.5,370.0,418.0,354.0,406.5" stroke="black" stroke-width="2" fill="none" />
<polyline points="361.5,405.5,381.5,421.5,396.0,437.5,420.0,459.5,464.0,475.5,476.0,477.5,492.0,481.5,508.0,481.5" stroke="black" stroke-width="2" fill="none" />
<polyline points="505.5,369.5,490.0,369.5" stroke="black" stroke-width="2" fill="none" />
<polyline points="503.0,342.5,494.5,338.0,492.5,321.5,507.0,295.5,499.5,277.0,503.5,260.5,506.0,245.0,502.0,283.0,498.0,295.0,485.5,293.0,482.0,293.5,484.0,278.0,487.5,262.0,497.5,246.0,502.0,236.5,510.0,220.5,498.0,228.0,482.0,259.5" stroke="black" stroke-width="2" fill="none" />
<polyline points="488.5,261.5,504.5,242.0,508.0,266.0,503.5,282.0" stroke="black" stroke-width="2" fill="none" />
<polyline points="508.5,286.5,512.5,270.5" stroke="black" stroke-width="2" fill="none" />
<polyline points="492.0,292.0,476.0,292.0" stroke="black" stroke-width="2" fill="none" />
<polyline points="509.0,302.0,493.0,311.5,487.0,301.5,486.5,307.5,480.5,304.0,474.5,300.0,478.0,284.5,480.0,268.5,486.0,253.0,492.0,237.0,502.0,221.5,498.5,213.0,482.5,233.0,466.5,253.0,450.5,294.5,450.5,282.5,454.5,267.0,456.5,250.5,455.0,235.0,455.5,219.0,475.5,203.0,479.5,204.5,463.5,214.5" stroke="black" stroke-width="2" fill="none" />
<polyline points="463.5,221.0,473.5,204.5,453.5,217.0" stroke="black" stroke-width="2" fill="none" />
<polyline points="434.0,204.0,450.0,162.0,466.0,176.0,482.0,172.0" stroke="black" stroke-width="2" fill="none" />
<polyline points="483.5,187.5,499.5,187.5" stroke="black" stroke-width="2" fill="none" />
<polyline points="456.0,154.0,472.0,170.0,488.0,156.0,508.5,170.0,502.5,196.5,492.5,212.0,488.5,218.5,505.0,192.5,506.5,199.0,498.5,214.5,484.5,230.5,470.5,246.5,462.5,262.5,456.0,278.5,450.0,294.5,454.5,310.5,442.5,326.0,428.5,341.5,444.5,325.5" stroke="black" stroke-width="2" fill="none" />
<polyline points="451.0,330.0,467.0,330.0,483.5,327.5,499.5,324.0" stroke="black" stroke-width="2" fill="none" />
<polyline points="430.0,253.5,445.5,223.5" stroke="black" stroke-width="2" fill="none" />
<polyline points="421.5,228.0,437.5,216.0,439.5,232.0,431.5,248.0,423.5,269.5,440.0,285.0" stroke="black" stroke-width="2" fill="none" />
<polyline points="427.0,241.0,435.0,209.5,451.0,209.5,467.5,193.5,478.0,194.0,494.5,184.0,510.5,185.5" stroke="black" stroke-width="2" fill="none" />
<polyline points="463.0,175.0,451.0,159.0,430.5,194.5,414.0,229.0" stroke="black" stroke-width="2" fill="none" />
<polyline points="450.0,278.0,434.0,272.5,426.0,255.0,429.5,239.0,440.0,223.0,460.5,202.5,478.5,186.0,484.0,169.5,510.0,161.5,500.5,155.0,485.0,167.5,493.0,151.5,482.5,141.5,454.5,129.5,438.5,115.5,422.5,107.5,407.0,101.5,391.0,98.0,375.0,96.0,359.0,96.5,342.5,100.5,326.5,109.0,310.0,123.0,294.0,151.0" stroke="black" stroke-width="2" fill="none" />
<polyline points="296.5,155.0,312.5,126.5,329.0,112.5,345.5,104.5,361.5,100.5,377.5,100.5,394.0,104.5,410.0,108.5,426.0,116.5,450.0,123.0,466.0,131.0,482.0,140.5,498.5,138.0" stroke="black" stroke-width="2" fill="none" />
<polyline points="449.5,163.5,443.5,179.5,437.5,195.5,433.5,211.0,421.5,233.0,421.5,248.5,426.0,264.5,438.5,280.0,443.0,294.0,441.5,310.0,432.0,326.0,436.0,344.0,423.5,372.0,429.0,373.5,424.5,389.5,426.5,406.0,436.0,413.5,464.0,419.5,486.0,423.0,506.0,427.5" stroke="black" stroke-width="2" fill="none" />
<polyline points="498.5,362.0,482.0,360.0,465.5,362.0,449.5,360.5,433.5,356.5,417.5,356.5,401.5,360.5" stroke="black" stroke-width="2" fill="none" />
<polyline points="398.5,361.5,414.5,363.5,442.5,364.0,468.5,366.0,484.5,366.0,496.5,366.0" stroke="black" stroke-width="2" fill="none" />
<polyline points="410.0,381.0,394.0,366.5" stroke="black" stroke-width="2" fill="none" />
<polyline points="368.0,322.5,384.0,320.5,406.0,318.5,422.0,318.0" stroke="black" stroke-width="2" fill="none" />
<polyline points="478.5,323.0,462.5,323.0,446.5,331.0,418.0,333.0,402.0,339.5,377.5,328.0,361.0,323.5" stroke="black" stroke-width="2" fill="none" />
<polyline points="355.0,322.0,377.0,337.5,381.5,345.5,376.0,359.5,402.5,353.5,418.5,352.0" stroke="black" stroke-width="2" fill="none" />
<polyline points="421.0,348.0,405.0,348.0,389.0,358.0,382.5,352.0,378.0,347.5,370.0,343.0,353.5,339.0,337.5,329.0,319.5,315.0,303.5,313.5,305.5,297.5,301.5,281.5,300.0,265.5,282.0,248.0,266.5,250.0,251.0,250.5,235.0,252.5,219.5,254.5" stroke="black" stroke-width="2" fill="none" />
<polyline points="220.0,252.0,220.0,268.0,224.0,284.0,226.0,300.5,226.0,316.5" stroke="black" stroke-width="2" fill="none" />
<polyline points="227.0,262.5,243.0,262.5,259.0,262.5,275.5,262.5,291.5,260.5" stroke="black" stroke-width="2" fill="none" />
<polyline points="288.0,256.0,272.5,258.5,257.0,259.0,241.0,259.0,225.0,259.0" stroke="black" stroke-width="2" fill="none" />
<polyline points="212.5,252.0,228.5,244.0,244.5,243.5,260.0,241.0,276.0,241.0,291.5,241.0" stroke="black" stroke-width="2" fill="none" />
<polyline points="316.0,297.0,342.0,313.0,353.5,329.0,339.5,329.0,339.5,335.0,347.5,335.0,357.0,348.5" stroke="black" stroke-width="2" fill="none" />
<polyline points="365.5,363.5,364.5,345.5,354.5,329.5" stroke="black" stroke-width="2" fill="none" />
<polyline points="329.5,325.5,313.5,329.5,297.5,328.0,282.0,328.0,266.0,328.0,250.0,327.5,232.0,333.5,216.0,333.5,200.0,333.5,184.5,329.5,168.5,321.5,152.0,321.5,136.0,324.0,119.5,324.0,103.5,326.0,88.0,326.0,72.0,331.5,67.5,341.5,83.5,325.5" stroke="black" stroke-width="2" fill="none" />
<polyline points="72.0,351.5,88.0,351.5,104.0,353.0,110.0,361.0,110.0,377.0,112.0,393.0,112.0,409.0,112.0,425.0,113.5,441.5,113.5,457.5,115.0,473.5,115.5,490.0,116.0,505.5" stroke="black" stroke-width="2" fill="none" />
<polyline points="165.5,510.0,166.0,494.0,166.5,478.0,166.0,462.5,178.5,446.5,210.5,430.5,230.5,414.0,240.0,397.5,246.0,381.5,250.0,365.5,238.0,399.5,222.0,421.5,206.0,433.0,190.5,441.0,174.5,447.0,178.0,439.5,210.0,423.5,226.0,408.0,235.5,392.0,242.0,376.0,242.0,376.0,226.0,408.0,210.0,424.0,194.0,434.0,178.0,440.0,164.0,447.5,162.0,431.5,160.0,416.0,154.5,398.0,154.5,382.0,158.5,366.0,146.5,356.0,130.5,356.5,114.5,354.5" stroke="black" stroke-width="2" fill="none" />
<polyline points="113.5,355.0,115.5,371.0,115.5,387.5,115.5,403.5,117.5,420.0,117.5,436.0,117.5,452.0,119.5,467.5,119.5,483.5,121.5,500.0" stroke="black" stroke-width="2" fill="none" />
<polyline points="55.0,503.0,55.0,487.0,53.0,470.5,52.5,454.5,52.5,438.0,52.5,421.5,52.5,405.0,54.0,389.5,54.0,374.0,34.0,376.0,18.0,374.5,2.0,366.5" stroke="black" stroke-width="2" fill="none" />
<polyline points="3.0,360.5,19.0,368.5,35.0,370.5,51.0,370.0,49.0,384.0,49.0,399.5,49.0,416.0,49.0,432.0,49.0,448.5,49.5,464.5,49.5,480.5,49.0,496.5" stroke="black" stroke-width="2" fill="none" />
<polyline points="3.0,344.5,19.0,334.5,34.5,334.5,50.5,334.5" stroke="black" stroke-width="2" fill="none" />
<polyline points="93.0,274.5,77.0,260.5,61.0,250.0,45.0,241.5,29.0,233.5,13.0,244.0" stroke="black" stroke-width="2" fill="none" />
<polyline points="2.0,242.5,18.0,219.0,33.5,205.0,49.5,192.5,65.5,178.5,79.5,170.0,102.0,164.0,109.5,186.0,126.0,196.0,142.0,212.0,142.0,220.0" stroke="black" stroke-width="2" fill="none" />
<polyline points="127.5,228.5,129.5,244.5,133.5,244.5,131.5,262.5,141.5,268.5,143.5,284.0,150.0,300.0" stroke="black" stroke-width="2" fill="none" />
<polyline points="157.0,316.0,139.5,309.5,141.5,293.5,129.5,282.0,128.0,266.0,126.0,250.0,124.0,233.5,124.0,217.5,126.0,201.5,120.0,197.5" stroke="black" stroke-width="2" fill="none" />
<polyline points="137.5,168.5,137.0,162.5,129.0,176.5,113.5,178.0,97.5,166.0" stroke="black" stroke-width="2" fill="none" />
<polyline points="102.5,165.0,110.5,180.5,126.5,196.5,140.5,212.5,148.5,228.5,150.5,244.5,155.0,260.5,157.0,276.5,161.5,292.0,165.0,308.0,163.0,324.5" stroke="black" stroke-width="2" fill="none" />
<polyline points="158.5,373.0,158.5,389.5,160.0,405.5,156.0,421.5,158.0,438.0,160.0,454.0,159.5,470.0,161.5,485.5,161.5,501.5" stroke="black" stroke-width="2" fill="none" />
<polyline points="288.5,391.0,304.5,409.0,320.5,423.0,336.5,441.5,353.0,459.0,369.0,479.0" stroke="black" stroke-width="2" fill="none" />
<polyline points="374.5,475.5,358.5,455.5,342.0,435.0,326.0,419.0,310.0,403.5,294.0,387.5" stroke="black" stroke-width="2" fill="none" />
<polyline points="294.5,386.5,309.0,402.5,327.0,419.0,341.0,435.5,355.0,451.5,369.0,467.5,383.0,483.5" stroke="black" stroke-width="2" fill="none" />
<polyline points="340.5,456.5,317.0,472.5,289.0,488.5,267.0,504.5,265.5,506.0,281.5,493.5,297.5,483.0,313.5,473.0,329.5,465.0" stroke="black" stroke-width="2" fill="none" />
<polyline points="325.0,384.0,341.0,393.5,357.0,395.5,373.0,397.5,389.0,401.5,404.5,406.0,420.5,408.5,436.0,410.5,451.5,412.5,467.0,416.5,483.0,418.5,498.5,422.5" stroke="black" stroke-width="2" fill="none" />
<polyline points="500.0,474.5,484.0,472.0,468.0,468.0,451.5,472.0,435.5,465.5,419.5,459.5,406.0,445.5,390.0,429.0,374.5,413.5,358.5,401.5,340.5,386.0,324.5,380.5" stroke="black" stroke-width="2" fill="none" />
<polyline points="324.0,379.5,340.5,395.5,366.5,415.5,382.5,432.0,398.5,448.0,410.5,460.0,416.5,476.0,428.5,492.0,428.0,507.5,417.5,509.5" stroke="black" stroke-width="2" fill="none" />
<polyline points="426.0,310.0,410.0,312.0,394.5,314.0,378.5,316.0,362.5,318.0,346.5,312.0,330.5,302.0,314.5,292.0,296.0,302.0,280.0,305.5,264.0,307.5,248.0,309.5,232.0,316.0,216.0,320.0,212.5,318.0,194.5,316.0,178.5,322.0,158.5,326.0,140.5,314.0,118.5,299.5,110.5,293.5,108.5,273.5,108.5,258.0,108.5,242.0,100.5,226.5,88.5,210.5,80.0,194.5,75.5,178.5,83.5,162.5,84.0,146.0,78.0,136.5" stroke="black" stroke-width="2" fill="none" />
<polyline points="77.0,154.0,61.0,132.0" stroke="black" stroke-width="2" fill="none" />
<polyline points="57.0,138.5,73.0,158.0" stroke="black" stroke-width="2" fill="none" />
<polyline points="78.5,179.0,94.0,203.5" stroke="black" stroke-width="2" fill="none" />
<polyline points="85.0,190.5,95.0,206.5,105.0,222.0" stroke="black" stroke-width="2" fill="none" />
<polyline points="79.5,220.0,95.5,256.5" stroke="black" stroke-width="2" fill="none" />
<polyline points="91.5,259.0,75.5,225.0" stroke="black" stroke-width="2" fill="none" />
<polyline points="69.0,202.0,77.0,193.5,77.0,209.0,81.0,225.0,89.0,241.0,96.5,257.0,105.0,273.0" stroke="black" stroke-width="2" fill="none" />
<polyline points="88.5,264.0,72.5,252.0,56.5,242.0,41.0,233.5,25.0,225.5" stroke="black" stroke-width="2" fill="none" />
<polyline points="23.0,221.5,38.5,208.0,55.0,198.0,69.0,182.0,53.0,198.0,31.0,214.0,33.0,230.5,60.5,246.5,84.5,262.5" stroke="black" stroke-width="2" fill="none" />
<polyline points="50.5,254.5,50.5,270.5,50.5,286.5,48.5,302.5" stroke="black" stroke-width="2" fill="none" />
<polyline points="44.0,287.5,46.0,271.5,46.5,255.5" stroke="black" stroke-width="2" fill="none" />
<polyline points="20.5,232.5,51.0,248.5,77.0,264.5,95.0,280.0,109.0,296.0" stroke="black" stroke-width="2" fill="none" />
<polyline points="140.5,286.5,139.0,270.5" stroke="black" stroke-width="2" fill="none" />
<polyline points="105.0,229.5,89.0,205.5,73.0,193.5" stroke="black" stroke-width="2" fill="none" />
<polyline points="75.0,191.0,66.5,191.0,71.0,207.0,74.5,223.0,80.5,238.5,88.0,254.5" stroke="black" stroke-width="2" fill="none" />
<polyline points="17.0,230.5,11.0,246.5,9.0,262.0,7.0,277.5,3.0,293.5,3.0,309.0,3.5,325.0,8.0,339.5,12.0,331.5,28.0,327.5,44.0,329.5" stroke="black" stroke-width="2" fill="none" />
<polyline points="148.5,166.5,132.5,180.5,126.5,183.0,148.0,166.5,149.5,156.5,143.0,152.0,143.0,137.5,127.0,141.5" stroke="black" stroke-width="2" fill="none" />
<polyline points="125.5,138.0,141.5,134.0" stroke="black" stroke-width="2" fill="none" />
<polyline points="132.0,114.5,117.5,130.0,99.5,143.5" stroke="black" stroke-width="2" fill="none" />
<polyline points="61.5,116.0,77.5,96.0,93.5,86.0,69.0,94.0,56.5,109.5,54.0,126.0,57.5,142.0,69.5,158.5,71.0,175.0,50.5,191.0,30.5,207.0,14.5,222.5,9.0,238.5,5.5,254.5,3.5,270.5" stroke="black" stroke-width="2" fill="none" />
<polyline points="56.0,116.0,72.0,92.0,87.5,82.0,103.0,77.5,118.5,81.5,134.5,88.0,150.0,99.5" stroke="black" stroke-width="2" fill="none" />
<polyline points="221.5,244.5,211.5,260.5,215.0,276.5,217.0,292.5,220.5,308.0,210.5,324.0,230.5,321.5,239.0,319.5,255.0,319.5,271.5,315.0,287.5,313.0,303.5,303.0" stroke="black" stroke-width="2" fill="none" />
<polyline points="315.5,306.5,335.5,322.5" stroke="black" stroke-width="2" fill="none" />
<polyline points="298.0,213.5,298.0,197.5,298.0,182.0,297.5,165.5,299.5,149.5,307.5,133.5,324.0,117.5,348.0,101.5" stroke="black" stroke-width="2" fill="none" />
<polyline points="351.5,95.0,321.5,111.0,305.5,127.0,297.5,143.5,292.0,160.0,292.0,176.5,292.0,192.5,294.0,208.5,294.0,224.5,292.5,242.5,299.0,258.5,297.0,274.5,298.5,290.5,318.5,302.5,300.5,312.5,316.5,306.5,334.5,316.0,350.0,322.0,366.0,334.0,382.0,338.0,386.5,336.0,398.5,334.0,414.5,329.5,432.0,313.0,438.0,321.0" stroke="black" stroke-width="2" fill="none" />
<polyline points="420.0,107.5,448.0,103.5,464.0,92.0,480.0,86.0,496.0,85.5" stroke="black" stroke-width="2" fill="none" />
<polyline points="475.0,85.5,449.0,101.5,445.5,117.5,445.5,133.5,450.0,149.0,444.0,165.5,438.0,181.5,432.0,198.0,424.0,214.0,416.0,230.5,414.0,246.5,418.0,263.0,427.5,279.0,433.5,294.5,443.5,296.5,447.5,312.0,426.0,320.0,409.5,336.0,390.0,356.0,400.0,372.0,428.0,372.0,440.0,370.5,456.0,372.0,471.5,374.0,487.5,373.5,503.5,375.0" stroke="black" stroke-width="2" fill="none" />
<polyline points="468.0,171.5,457.5,155.5,457.5,139.5,449.0,127.5,423.5,116.0,399.0,100.0" stroke="black" stroke-width="2" fill="none" />
</svg>