<svg xmlns="http://www.w3.org/2000/svg" width="512mm" height="512mm" viewBox="0 0 512 512" version="1.1"><polyline points="279.5,2.5,305.5,18.5,329.5,34.5,345.5,50.5,357.5,67.0,369.5,83.0,377.5,99.0,391.5,115.0,415.0,131.0,427.0,146.5,436.5,162.5,443.0,178.5,443.0,194.5,443.0,210.5,441.5,226.0,437.5,241.5,433.5,257.0,425.5,273.0,419.5,289.0,409.5,304.5,402.0,320.5,386.0,336.5,358.5,352.5,316.5,369.0" stroke="black" stroke-width="2" fill="none" />
<polyline points="324.5,401.5,358.5,385.5,374.5,369.5,384.5,353.5,412.0,352.0,434.0,324.5,438.0,310.5,440.0,294.5,442.0,278.5,430.0,288.0" stroke="black" stroke-width="2" fill="none" />
<polyline points="460.0,267.5,454.0,261.5,452.0,245.5,452.0,229.5,464.0,213.5,463.5,197.5,463.5,181.5,462.0,166.0,462.5,150.0,448.5,131.5" stroke="black" stroke-width="2" fill="none" />
<polyline points="435.5,153.0,419.0,133.0,403.5,119.0,388.0,109.5,368.0,77.5,352.0,55.5,335.5,37.5,319.5,25.5,303.5,15.5,287.5,7.5" stroke="black" stroke-width="2" fill="none" />
<polyline points="287.0,1.5,315.0,17.5,335.5,33.5,351.5,49.5,364.0,65.0,376.0,81.5,382.0,97.5,402.0,114.0,422.0,130.0,438.0,132.5,454.0,98.5,470.0,87.0,485.5,85.0,501.5,88.5" stroke="black" stroke-width="2" fill="none" />
<polyline points="510.0,97.0,494.0,91.0,478.0,91.5,462.5,101.0,446.5,127.0,420.5,127.0,404.5,114.5,388.5,104.5,376.5,83.0,360.5,58.5,345.0,41.0,329.5,25.0,313.5,15.0,297.5,6.5,281.5,4.5" stroke="black" stroke-width="2" fill="none" />
<polyline points="282.0,17.5,308.0,33.5" stroke="black" stroke-width="2" fill="none" />
<polyline points="301.5,59.5,285.0,45.5,268.5,39.5,252.5,37.5,236.5,40.0,220.0,52.0,213.5,77.5,219.0,61.5,235.0,45.5,221.0,65.0" stroke="black" stroke-width="2" fill="none" />
<polyline points="238.0,56.0,243.5,66.0" stroke="black" stroke-width="2" fill="none" />
<polyline points="237.0,52.5,223.0,68.5,219.0,74.0,235.0,72.0,236.5,68.0,252.5,69.5,268.5,73.5,284.5,78.0" stroke="black" stroke-width="2" fill="none" />
<polyline points="284.5,72.0,268.0,68.0,252.0,64.0,236.0,52.0" stroke="black" stroke-width="2" fill="none" />
<polyline points="233.5,41.5,215.5,57.5,209.5,73.5,217.5,89.0,217.5,65.0,231.5,64.5,244.0,44.5,260.5,44.0,277.0,48.0,293.5,60.0,298.0,82.0" stroke="black" stroke-width="2" fill="none" />
<polyline points="285.0,85.0,269.5,85.0,253.5,85.0,237.5,87.5,222.0,87.5" stroke="black" stroke-width="2" fill="none" />
<polyline points="216.0,89.0,232.5,82.5,249.0,83.0,265.0,81.0" stroke="black" stroke-width="2" fill="none" />
<polyline points="275.0,49.0,296.5,65.0" stroke="black" stroke-width="2" fill="none" />
<polyline points="302.5,76.5,306.5,74.5,296.5,58.5,272.5,43.0" stroke="black" stroke-width="2" fill="none" />
<polyline points="282.0,23.5,306.0,39.5" stroke="black" stroke-width="2" fill="none" />
<polyline points="308.0,31.0,292.0,19.0,276.0,15.0,260.0,13.0,243.5,13.0,227.5,15.0,211.5,21.5,195.5,31.5,180.0,46.0,164.0,70.5,148.0,100.5,132.0,116.5" stroke="black" stroke-width="2" fill="none" />
<polyline points="110.5,140.5,94.5,156.5,106.5,172.5,140.5,174.5,156.5,174.5" stroke="black" stroke-width="2" fill="none" />
<polyline points="161.0,183.5,145.0,185.5,129.0,179.5,113.0,174.0" stroke="black" stroke-width="2" fill="none" />
<polyline points="112.5,164.5,128.5,166.0,144.5,167.5" stroke="black" stroke-width="2" fill="none" />
<polyline points="146.5,195.5,162.5,205.5,178.5,212.0,194.5,220.0,210.5,224.0,226.5,228.0,242.5,230.0,258.0,230.0,274.0,230.0,290.0,227.5,306.0,223.5,322.0,217.5,338.0,210.0,354.5,200.0,370.5,190.0" stroke="black" stroke-width="2" fill="none" />
<polyline points="359.5,167.0,375.5,161.0,392.0,161.0,416.0,173.5,430.5,190.0" stroke="black" stroke-width="2" fill="none" />
<polyline points="426.0,192.0,410.0,174.0" stroke="black" stroke-width="2" fill="none" />
<polyline points="406.5,155.5,390.5,143.5" stroke="black" stroke-width="2" fill="none" />
<polyline points="386.5,147.5,390.5,149.5,402.5,151.5,382.5,172.0,354.0,200.5,323.5,216.5" stroke="black" stroke-width="2" fill="none" />
<polyline points="344.0,181.5,359.5,183.5,375.5,182.0,391.5,174.0,407.5,164.0" stroke="black" stroke-width="2" fill="none" />
<polyline points="425.5,184.0,409.5,170.0,387.5,170.0,369.5,178.5,353.5,178.5,351.5,196.5,335.0,204.5,319.0,212.5,303.5,220.0,287.5,224.0,271.5,226.0,255.5,226.0,239.5,226.0,223.5,224.0,208.0,220.0,191.5,212.0,175.5,206.5,159.5,198.5,141.5,180.5,111.5,164.5" stroke="black" stroke-width="2" fill="none" />
<polyline points="99.5,156.0,115.5,151.5,131.5,147.5,139.5,157.5,163.5,173.5" stroke="black" stroke-width="2" fill="none" />
<polyline points="159.0,156.5,142.5,144.5,126.5,139.0,110.0,141.0,94.0,153.0" stroke="black" stroke-width="2" fill="none" />
<polyline points="91.5,171.5,73.5,187.5,84.0,177.5,96.0,164.0,111.5,156.0,127.5,160.0,144.0,160.0,160.0,165.5" stroke="black" stroke-width="2" fill="none" />
<polyline points="153.5,195.0,187.5,211.0" stroke="black" stroke-width="2" fill="none" />
<polyline points="155.5,254.5,139.0,242.5,122.5,234.5,106.5,227.0" stroke="black" stroke-width="2" fill="none" />
<polyline points="110.5,228.5,141.0,244.5,159.0,260.5,165.0,276.5,171.5,292.0,177.5,307.5,181.5,323.0" stroke="black" stroke-width="2" fill="none" />
<polyline points="217.5,330.0,233.5,320.0,249.5,318.0,265.5,318.0,281.5,319.5,298.0,329.0,298.0,345.5,268.5,347.5,274.5,349.5,286.5,338.0" stroke="black" stroke-width="2" fill="none" />
<polyline points="329.5,327.5,334.0,311.0,338.5,295.0,342.5,279.0,348.5,263.0,360.5,247.5,388.5,231.5,402.5,247.5" stroke="black" stroke-width="2" fill="none" />
<polyline points="404.0,228.5,398.0,245.0,393.5,261.0,389.5,276.5,383.5,292.5,377.5,308.0,358.0,324.0" stroke="black" stroke-width="2" fill="none" />
<polyline points="376.5,309.5,361.0,322.0,345.5,330.0,337.5,340.0,370.0,324.0,383.5,308.0,391.5,292.0,397.0,276.0,400.5,259.5,404.0,243.5,410.0,227.5,397.5,227.5,381.5,235.5,365.5,243.5,349.5,257.5" stroke="black" stroke-width="2" fill="none" />
<polyline points="336.5,279.5,352.5,248.0,368.0,236.0,383.5,228.0,399.5,222.0,407.0,218.0,371.0,234.0,349.0,250.0,341.0,266.0,335.0,282.0,331.0,298.0,327.0,314.0,325.5,330.5,333.5,338.5,350.0,335.0,366.0,327.0,382.5,309.0" stroke="black" stroke-width="2" fill="none" />
<polyline points="412.0,325.0,428.0,294.5,434.5,292.0,428.5,308.0,421.0,309.5,413.0,325.5,407.5,325.5,423.5,295.5,439.5,257.5" stroke="black" stroke-width="2" fill="none" />
<polyline points="455.5,225.5,455.5,241.5,468.0,245.5,476.0,247.5,478.0,247.5" stroke="black" stroke-width="2" fill="none" />
<polyline points="493.0,234.0,495.0,228.0,511.0,234.0" stroke="black" stroke-width="2" fill="none" />
<polyline points="504.0,219.5,488.0,221.5" stroke="black" stroke-width="2" fill="none" />
<polyline points="448.5,217.0,460.5,227.5,460.5,243.0,458.0,258.5,470.0,271.0,470.0,287.0,469.5,303.0,467.0,319.0,464.5,335.0,444.5,351.5,442.0,367.5,442.5,383.5,447.0,399.5,449.5,415.5,451.0,432.0" stroke="black" stroke-width="2" fill="none" />
<polyline points="452.0,467.0,468.0,475.0,483.5,476.5,499.5,456.5" stroke="black" stroke-width="2" fill="none" />
<polyline points="508.5,460.0,509.0,444.0,511.0,427.5,511.5,413.0" stroke="black" stroke-width="2" fill="none" />
<polyline points="501.5,380.0,485.5,374.0" stroke="black" stroke-width="2" fill="none" />
<polyline points="488.5,371.0,492.0,373.5,496.0,381.5" stroke="black" stroke-width="2" fill="none" />
<polyline points="498.5,345.5,482.5,341.5" stroke="black" stroke-width="2" fill="none" />
<polyline points="488.0,338.0,494.0,342.0,495.5,348.0" stroke="black" stroke-width="2" fill="none" />
<polyline points="463.0,350.0,465.0,365.5,465.0,381.0,465.0,397.0,463.0,403.0" stroke="black" stroke-width="2" fill="none" />
<polyline points="464.0,409.5,452.0,393.5,452.0,377.0,452.0,361.0,462.0,345.0,457.5,319.0,455.5,303.0,452.0,287.5,448.0,271.5,448.0,256.0,432.0,260.0,416.0,296.0,400.5,324.5,384.5,340.5,368.0,350.5,352.0,356.5,335.5,364.5,319.5,370.5,304.0,376.5,288.5,378.0,272.5,379.5,256.5,379.5,240.5,379.5,224.5,379.5,209.0,376.0,193.0,370.5,177.0,362.5,161.5,356.5,145.5,348.5,129.5,338.5,113.0,324.5,97.0,300.5,81.0,264.5" stroke="black" stroke-width="2" fill="none" />
<polyline points="73.0,257.0,81.0,295.0,81.0,311.0,80.5,326.5,118.0,342.0,158.0,356.0,198.0,371.5" stroke="black" stroke-width="2" fill="none" />
<polyline points="223.0,342.0,239.0,342.0,255.5,341.5,271.5,340.0,287.5,334.0" stroke="black" stroke-width="2" fill="none" />
<polyline points="257.5,329.0,241.5,330.5,225.5,329.0" stroke="black" stroke-width="2" fill="none" />
<polyline points="227.0,327.5,224.5,344.0,227.0,362.0,243.0,366.0,259.0,366.0,275.0,360.0" stroke="black" stroke-width="2" fill="none" />
<polyline points="286.0,394.0,302.0,394.0,328.5,383.5,330.5,388.0" stroke="black" stroke-width="2" fill="none" />
<polyline points="302.0,398.0,286.0,397.5" stroke="black" stroke-width="2" fill="none" />
<polyline points="272.0,334.0,256.0,338.0,240.0,338.0,224.0,338.0" stroke="black" stroke-width="2" fill="none" />
<polyline points="233.0,320.0,219.0,335.5,221.0,351.5,223.0,358.0,239.0,360.5,255.0,360.5,273.0,366.5,288.5,356.5,292.5,350.5,286.5,362.5" stroke="black" stroke-width="2" fill="none" />
<polyline points="389.5,365.0,405.5,356.5,421.5,350.5,439.5,348.5,399.5,364.5,391.0,368.5,407.0,362.5,422.5,357.0,438.5,349.5,438.0,367.5,437.5,383.5,437.5,399.5,437.5,415.0,438.0,431.0,442.5,446.5,445.0,462.0,454.5,477.5" stroke="black" stroke-width="2" fill="none" />
<polyline points="445.0,470.5,460.5,480.5,476.5,484.0,493.0,485.5,509.5,485.5" stroke="black" stroke-width="2" fill="none" />
<polyline points="509.0,474.5,495.0,474.5,501.0,459.0,505.0,443.0,507.0,427.0,507.0,411.0,507.0,394.5,507.0,378.5,507.0,362.0,507.0,346.0,502.5,329.5,508.5,313.5,508.5,297.0,506.5,281.0,508.0,265.0,508.5,249.0,502.5,231.5,502.5,217.5,506.5,201.5,507.0,187.5,506.5,178.0,500.5,162.0,506.0,146.0,510.0,140.0" stroke="black" stroke-width="2" fill="none" />
<polyline points="497.0,123.5,501.5,129.5,503.0,145.5,511.0,167.5" stroke="black" stroke-width="2" fill="none" />
<polyline points="454.5,156.5,458.5,158.5,458.5,174.5,460.5,190.5,456.5,202.5" stroke="black" stroke-width="2" fill="none" />
<polyline points="432.5,197.0,416.0,181.5,410.0,154.0,394.0,156.0,378.0,156.5,362.0,156.5" stroke="black" stroke-width="2" fill="none" />
<polyline points="373.0,144.5,362.5,160.5,350.5,178.0,346.5,172.0,362.0,160.5,372.0,144.5,388.0,140.0,404.0,145.5" stroke="black" stroke-width="2" fill="none" />
<polyline points="392.5,137.5,414.0,153.5,402.0,169.5,360.0,191.0,332.0,207.0" stroke="black" stroke-width="2" fill="none" />
<polyline points="378.0,134.0,356.0,150.0,342.0,166.0,344.0,182.5,352.0,154.5,368.0,140.5,383.5,134.5,399.0,138.5" stroke="black" stroke-width="2" fill="none" />
<polyline points="451.0,168.0,451.0,183.5,451.5,199.5,464.0,223.5,464.5,239.5,464.5,256.0,465.0,272.0,465.0,288.0,464.5,304.0,464.5,320.0,468.5,346.5,468.5,362.5,468.5,378.0,468.5,394.0,468.5,410.0,464.5,422.0,458.0,438.0,450.0,453.5,454.0,469.5" stroke="black" stroke-width="2" fill="none" />
<polyline points="457.0,418.5,455.5,402.0,455.5,385.5,457.5,369.5,457.5,353.5" stroke="black" stroke-width="2" fill="none" />
<polyline points="242.5,398.0,226.0,396.0,209.5,394.0,193.5,392.5,177.5,386.5,161.5,378.5,145.5,368.5" stroke="black" stroke-width="2" fill="none" />
<polyline points="149.5,366.0,179.5,382.0" stroke="black" stroke-width="2" fill="none" />
<polyline points="144.0,374.5,160.0,389.0,175.5,399.0,191.5,405.0,208.0,408.5,224.0,412.0,239.5,414.0,255.0,414.0,271.0,412.0,287.5,412.0,303.5,408.0,319.5,404.0,335.5,398.5,352.0,388.5,370.0,382.5" stroke="black" stroke-width="2" fill="none" />
<polyline points="308.5,380.0,348.5,364.0,382.0,348.0,378.0,365.5,361.5,381.5,345.5,397.5,329.0,405.5,312.5,411.5,296.5,415.5,280.5,417.5,265.0,418.0,249.0,418.5,233.5,418.5,217.5,416.5,202.0,413.0,186.0,409.0,170.5,401.0,154.0,391.0,138.0,375.0" stroke="black" stroke-width="2" fill="none" />
<polyline points="138.0,368.5,154.0,384.0,177.5,400.5" stroke="black" stroke-width="2" fill="none" />
<polyline points="173.5,403.5,149.5,387.5,134.0,371.5,132.0,368.0,116.5,362.0,101.0,358.5,85.0,354.5,69.5,350.5" stroke="black" stroke-width="2" fill="none" />
<polyline points="69.0,350.0,71.0,366.0,71.0,381.5,70.5,397.5,68.5,414.0,62.0,430.0,58.5,446.0,54.5,462.0" stroke="black" stroke-width="2" fill="none" />
<polyline points="41.5,422.0,51.5,408.0,51.5,391.5,52.0,375.5,51.5,359.5,43.5,343.5,43.5,327.5,45.5,311.5,51.5,295.0,59.5,279.5,57.5,264.0,58.0,248.0,56.0,232.5,50.0,226.0" stroke="black" stroke-width="2" fill="none" />
<polyline points="39.0,221.5,49.0,231.5,47.0,248.0,45.5,264.5" stroke="black" stroke-width="2" fill="none" />
<polyline points="62.5,236.0,62.5,244.0,64.5,259.5,64.0,275.0,66.0,291.0,65.5,307.0,65.5,322.5,53.0,323.0,65.0,321.0,75.5,325.0,91.5,325.5,87.5,331.5,103.5,333.5,119.5,341.5,132.0,347.5,148.0,357.5,164.5,363.5,181.0,370.0,197.5,376.0" stroke="black" stroke-width="2" fill="none" />
<polyline points="172.0,331.0,156.0,325.5,139.5,314.0,123.0,281.5" stroke="black" stroke-width="2" fill="none" />
<polyline points="116.0,276.5,132.0,316.0,148.0,327.5,164.0,335.5,179.5,337.5" stroke="black" stroke-width="2" fill="none" />
<polyline points="145.5,363.0,163.5,379.0" stroke="black" stroke-width="2" fill="none" />
<polyline points="100.5,319.0,84.5,291.0" stroke="black" stroke-width="2" fill="none" />
<polyline points="85.0,290.5,93.0,306.5,103.0,322.5" stroke="black" stroke-width="2" fill="none" />
<polyline points="59.5,350.0,65.5,366.0,65.5,382.0,65.0,398.0,64.5,413.5,66.0,432.0,63.5,448.0,59.5,464.5,47.0,481.0" stroke="black" stroke-width="2" fill="none" />
<polyline points="51.0,438.0,53.0,422.0,41.0,408.0,39.0,392.0,39.5,376.0,39.5,360.0,40.0,344.0,38.5,328.0,38.5,311.5,38.5,295.5,40.5,279.5,40.5,263.5,38.5,247.0,40.5,231.0,42.5,215.0,42.5,193.0,44.5,176.5,46.0,160.5,50.0,150.5" stroke="black" stroke-width="2" fill="none" />
<polyline points="41.5,155.0,57.5,147.0,61.5,158.0,73.5,164.5,89.5,142.5,105.5,125.0,122.0,112.5,138.0,94.5,154.0,70.0,169.5,50.0" stroke="black" stroke-width="2" fill="none" />
<polyline points="180.0,38.5,165.5,54.0,153.5,69.5,143.5,85.5,134.0,102.0,112.0,118.0,96.0,134.0,84.0,150.0,72.5,166.0,68.5,181.5,71.0,197.5,69.0,213.5,70.5,230.0,74.5,246.0,78.5,262.0,84.5,278.0,92.0,294.0,102.0,310.5,112.0,326.5,124.0,343.0,132.0,359.0,156.0,363.0,198.5,379.0,222.5,384.5,239.0,386.5,255.0,386.0,271.0,386.0,287.0,383.5,302.5,381.5,318.5,375.5,334.5,369.5,350.5,363.5,367.0,357.5,383.0,347.5,392.5,351.0,408.0,341.5,424.0,339.5,440.5,338.0,458.5,344.5" stroke="black" stroke-width="2" fill="none" />
<polyline points="252.0,402.0,236.0,402.0,220.0,400.0,204.0,397.5,200.0,388.0,184.0,384.0,168.5,374.5,153.0,367.0,137.0,373.0,119.0,359.0,103.0,354.5,86.5,348.5,70.5,344.0,36.5,337.5,26.5,329.0,22.0,339.5,6.0,358.0,8.0,340.0,26.0,324.5,34.0,320.5" stroke="black" stroke-width="2" fill="none" />
<polyline points="29.0,333.5,37.0,349.5,34.5,366.0,36.5,382.0,36.5,398.0,38.5,414.0,44.0,430.0,46.0,446.5" stroke="black" stroke-width="2" fill="none" />
<polyline points="50.0,479.5,34.0,481.5,18.0,481.5,2.0,481.5" stroke="black" stroke-width="2" fill="none" />
<polyline points="2.5,474.5,18.5,476.5,34.5,476.0,50.5,470.0" stroke="black" stroke-width="2" fill="none" />
<polyline points="1.5,436.0,17.5,420.0" stroke="black" stroke-width="2" fill="none" />
<polyline points="16.5,411.5,1.0,419.5,9.0,429.5,21.0,413.5,1.0,406.0,1.5,430.0" stroke="black" stroke-width="2" fill="none" />
<polyline points="13.5,352.0,19.5,334.0,10.0,350.0,22.0,328.0" stroke="black" stroke-width="2" fill="none" />
<polyline points="29.0,342.5,7.0,358.0,25.0,362.0" stroke="black" stroke-width="2" fill="none" />
<polyline points="45.0,351.5,45.0,367.5,45.0,383.5,44.5,399.5" stroke="black" stroke-width="2" fill="none" />
<polyline points="48.0,385.0,48.0,369.5,48.0,353.5" stroke="black" stroke-width="2" fill="none" />
<polyline points="50.0,299.5,24.0,317.5,8.0,331.5,15.5,323.5,33.5,307.5,33.5,291.5,33.5,275.5,33.5,259.5,34.0,243.5,36.5,227.5,38.5,211.5,38.5,195.5,38.5,179.5,42.0,163.5,45.5,148.0,55.5,158.0,45.5,160.0" stroke="black" stroke-width="2" fill="none" />
<polyline points="50.0,163.0,50.0,179.0,53.5,195.0,45.5,223.0,43.5,239.0" stroke="black" stroke-width="2" fill="none" />
<polyline points="67.0,238.5,71.0,254.5,76.5,270.5,74.5,286.5,74.5,302.5,72.5,318.5,68.5,338.0,84.0,340.0,100.0,342.0,116.0,346.0" stroke="black" stroke-width="2" fill="none" />
<polyline points="162.5,251.5,146.0,239.0,130.0,231.0,114.0,223.5,98.0,217.5" stroke="black" stroke-width="2" fill="none" />
<polyline points="98.5,217.0,104.5,233.5,110.0,249.5,112.0,265.5,118.0,282.0,122.0,298.0,129.5,314.0,149.5,329.5" stroke="black" stroke-width="2" fill="none" />
<polyline points="181.0,337.5,187.0,321.5,183.0,305.5,177.0,289.5,173.0,273.5,167.0,257.0,149.0,240.5,116.5,224.5" stroke="black" stroke-width="2" fill="none" />
<polyline points="104.0,219.5,112.5,235.5,116.5,251.5,120.5,268.0,124.5,284.0,130.5,300.0,140.5,316.0,170.5,332.0" stroke="black" stroke-width="2" fill="none" />
<polyline points="59.0,198.5,43.0,202.5" stroke="black" stroke-width="2" fill="none" />
<polyline points="13.5,248.0,13.5,244.0,9.5,240.0,3.5,242.0,5.0,214.0,5.0,194.0,7.0,172.0,5.0,143.5,9.0,127.5,15.0,111.5,5.5,100.0,2.0,118.0" stroke="black" stroke-width="2" fill="none" />
<polyline points="6.0,93.0,22.0,89.0,38.0,91.5,53.5,105.5" stroke="black" stroke-width="2" fill="none" />
<polyline points="49.5,94.5,61.5,110.5,67.0,126.5,65.0,142.5,66.5,158.0,54.5,174.0,56.5,189.5" stroke="black" stroke-width="2" fill="none" />
<polyline points="96.5,173.5,74.5,189.5,91.5,179.5,112.0,167.5,128.0,173.5,144.0,180.0,160.0,178.0" stroke="black" stroke-width="2" fill="none" />
<polyline points="65.0,116.0,49.5,91.5,33.5,85.0,17.5,84.5,1.5,88.0" stroke="black" stroke-width="2" fill="none" />
<polyline points="37.0,88.5,51.0,104.5,61.0,120.0,69.0,137.5,71.0,153.5,59.0,169.0,63.5,185.0,64.0,201.5" stroke="black" stroke-width="2" fill="none" />
<polyline points="216.0,23.0,194.0,39.5,180.0,55.5,170.0,71.5,162.0,87.5,152.0,103.5,126.0,127.5,142.5,113.5,158.5,93.5,179.0,57.5,195.0,40.0,211.0,27.5,227.0,21.5,243.0,18.0,259.0,20.5,275.0,22.5,291.0,26.5,306.5,38.5" stroke="black" stroke-width="2" fill="none" />
<polyline points="221.0,16.0,195.5,32.0,177.0,47.5,167.5,63.5,159.5,79.5,152.0,95.5,136.0,111.5,126.5,128.0,146.5,154.0,163.0,164.5,169.0,178.5,153.0,200.5,185.0,216.5" stroke="black" stroke-width="2" fill="none" />
<polyline points="218.0,6.0,202.0,16.0,186.5,26.0,170.5,40.5,154.5,60.5,138.5,82.5,122.5,106.5,107.0,116.5,91.0,134.5,78.5,150.5,90.0,134.5,104.0,118.5,128.0,102.5,136.0,86.5,146.0,70.0,157.5,53.5,171.5,37.0,189.5,21.0,215.5,5.0" stroke="black" stroke-width="2" fill="none" />
<polyline points="469.5,86.5,451.5,102.5,443.5,118.5,437.5,134.5,435.5,150.5,455.5,136.0" stroke="black" stroke-width="2" fill="none" />
<polyline points="474.5,90.5,455.0,106.5,447.0,122.5,445.0,140.0,449.0,148.0,447.0,163.5,447.0,179.5,447.0,195.0,457.5,199.0,447.5,225.0,443.5,241.5,441.5,257.5,435.5,273.5,431.5,274.0,423.0,290.5,417.0,306.5,407.0,325.0,391.5,353.0,375.5,375.0,360.0,390.5,328.0,406.5" stroke="black" stroke-width="2" fill="none" />
</svg>