<svg xmlns="http://www.w3.org/2000/svg" width="512mm" height="512mm" viewBox="0 0 512 512" version="1.1"><polyline points="129.5,112.5,125.5,128.5,141.5,118.5,157.5,116.5,175.5,117.0,191.5,119.0,207.5,125.0" stroke="black" stroke-width="2" fill="none" />
<polyline points="217.5,147.0,249.5,163.0,271.5,179.0" stroke="black" stroke-width="2" fill="none" />
<polyline points="282.0,180.5,266.0,168.0" stroke="black" stroke-width="2" fill="none" />
<polyline points="267.5,165.5,287.5,181.5,305.5,189.5" stroke="black" stroke-width="2" fill="none" />
<polyline points="305.0,192.5,289.0,180.5,273.5,166.5" stroke="black" stroke-width="2" fill="none" />
<polyline points="274.0,162.5,291.5,178.0,303.5,193.5" stroke="black" stroke-width="2" fill="none" />
<polyline points="313.0,191.0,297.0,179.0,276.5,162.5,260.0,165.0,244.5,161.0,228.5,153.0,213.0,147.0,209.0,131.0,193.0,126.5,177.0,124.0,161.5,121.5,145.5,125.0,143.5,128.5,127.5,128.0" stroke="black" stroke-width="2" fill="none" />
<polyline points="112.0,159.0,98.0,175.5,104.0,167.5" stroke="black" stroke-width="2" fill="none" />
<polyline points="102.5,185.0,118.0,187.5,134.0,189.5,150.0,186.0" stroke="black" stroke-width="2" fill="none" />
<polyline points="130.0,202.0,145.5,202.0,161.0,201.5,177.0,203.5,193.0,205.5,209.0,208.0,225.0,212.0,241.0,218.0,257.5,222.0,273.5,228.0,289.5,236.0,305.5,246.0,321.5,258.0,337.5,272.0,353.5,285.5,370.0,299.0" stroke="black" stroke-width="2" fill="none" />
<polyline points="320.0,357.0,312.5,319.5,290.5,300.0,268.5,296.0" stroke="black" stroke-width="2" fill="none" />
<polyline points="277.0,299.0,293.0,311.0,309.0,323.0,320.5,346.5,326.0,362.0,332.0,378.0,334.0,393.5,330.0,410.0,324.0,426.0,316.0,442.0,302.0,458.5,312.0,446.5,328.0,416.0" stroke="black" stroke-width="2" fill="none" />
<polyline points="308.5,442.0,318.5,425.5,326.0,410.0,328.0,394.0,325.5,378.0,320.0,362.0,314.0,346.5,306.0,330.5,293.5,315.0,271.5,298.5,261.5,294.5,245.5,290.0,229.5,293.0,213.5,305.0" stroke="black" stroke-width="2" fill="none" />
<polyline points="207.0,305.5,223.0,291.5" stroke="black" stroke-width="2" fill="none" />
<polyline points="205.5,292.0,221.5,278.0,238.0,274.0,258.0,264.0,280.0,284.5,298.0,300.5,306.0,314.5,318.5,314.0,328.5,330.0,334.5,345.5,334.0,362.0" stroke="black" stroke-width="2" fill="none" />
<polyline points="343.5,379.5,343.5,395.5,342.0,411.5,340.0,427.5,334.0,447.5,308.0,463.5,310.0,455.5,326.0,445.5" stroke="black" stroke-width="2" fill="none" />
<polyline points="273.0,380.5,257.0,364.5" stroke="black" stroke-width="2" fill="none" />
<polyline points="256.0,365.5,252.5,381.5,248.5,371.5,264.5,360.0" stroke="black" stroke-width="2" fill="none" />
<polyline points="264.5,361.0,270.5,377.5,274.0,379.5" stroke="black" stroke-width="2" fill="none" />
<polyline points="261.0,380.5,260.5,364.5" stroke="black" stroke-width="2" fill="none" />
<polyline points="257.5,359.0,247.5,375.0,259.5,391.5,253.5,389.5" stroke="black" stroke-width="2" fill="none" />
<polyline points="198.0,333.0,218.0,301.0,206.0,317.5,197.5,333.5,195.5,350.0,195.0,366.0,197.0,382.0,201.5,398.5,209.5,414.5,221.5,430.5,241.5,447.0,269.5,466.5,301.5,469.0,317.5,461.0,334.0,449.0,352.0,437.0,368.0,432.5,384.5,418.0,400.5,395.5,416.5,371.5,432.5,355.5,451.0,345.5,465.0,337.5,477.0,331.5,487.0,323.5,503.0,321.5,495.0,313.5,460.5,329.5,432.5,345.5,417.0,361.5,405.0,377.5,395.0,393.5,384.5,409.5,364.0,425.0" stroke="black" stroke-width="2" fill="none" />
<polyline points="364.5,304.0,348.5,287.5,332.5,273.0,316.0,258.5,300.5,246.5,284.5,237.0,268.0,231.0,252.0,225.0,235.5,223.0,223.0,235.0,207.5,241.0,191.5,257.0,175.5,281.5,162.0,309.5,165.5,294.0,171.5,278.0,181.5,262.0,195.5,246.5,215.5,230.5,229.5,224.5,213.0,232.5,197.0,244.5,181.5,262.0,165.5,294.0" stroke="black" stroke-width="2" fill="none" />
<polyline points="152.0,316.5,135.5,308.5,119.5,302.5,104.0,296.0,88.0,290.5" stroke="black" stroke-width="2" fill="none" />
<polyline points="77.0,317.5,61.0,315.5,45.0,307.5" stroke="black" stroke-width="2" fill="none" />
<polyline points="41.0,308.0,57.0,308.0,73.0,315.5,82.5,335.5,112.5,352.0,150.0,368.0" stroke="black" stroke-width="2" fill="none" />
<polyline points="134.5,351.0,118.0,341.0,102.0,333.0,98.0,333.0,84.0,313.0,84.0,296.5,82.0,274.0,81.5,257.5,81.5,241.5,81.5,225.5,81.5,209.0,81.5,191.0,65.5,193.0" stroke="black" stroke-width="2" fill="none" />
<polyline points="67.5,198.0,85.5,204.0,85.5,220.5,85.5,236.5,86.0,253.0,86.0,269.0,82.0,285.5,132.0,303.5,166.0,325.0,166.0,341.0,166.0,356.5,156.0,377.0,171.5,383.0,187.5,395.0,206.0,404.5,222.0,428.0,237.5,442.0,253.0,452.0,269.0,458.0,285.5,456.0,301.5,448.0,317.5,426.0" stroke="black" stroke-width="2" fill="none" />
<polyline points="294.5,294.5,278.0,280.5,262.0,282.5" stroke="black" stroke-width="2" fill="none" />
<polyline points="255.5,256.5,281.5,272.5,299.0,288.5,309.0,300.5,312.5,316.0,312.5,332.0,324.5,341.5,337.0,359.5,341.0,367.5,337.5,383.0,337.5,399.0,335.5,415.0,327.5,431.0,335.5,435.5,319.5,451.5,315.5,449.5,332.0,434.0,356.0,430.5,372.0,423.0,388.0,405.0,404.0,379.0,420.0,359.0,436.5,345.0,452.0,335.0,468.0,327.0,483.5,320.5,499.5,312.5,509.0,312.5" stroke="black" stroke-width="2" fill="none" />
<polyline points="512.0,317.0,472.0,331.0,451.5,345.0,433.5,355.0,417.5,371.0,407.5,387.0,397.0,402.5,393.0,414.5,385.5,416.0,365.5,432.0" stroke="black" stroke-width="2" fill="none" />
<polyline points="351.0,293.5,335.0,277.5,317.0,261.0,303.0,245.5,274.5,229.5,234.5,225.5,224.5,217.5,208.5,213.5,193.0,211.5,177.0,209.5,161.0,207.5,145.0,206.0,129.5,206.0" stroke="black" stroke-width="2" fill="none" />
<polyline points="172.0,149.5,188.0,149.5" stroke="black" stroke-width="2" fill="none" />
<polyline points="170.5,146.5,186.5,146.5,202.5,140.0,208.5,136.0,190.5,152.0,180.5,168.0,170.0,184.0,186.0,195.5,202.0,195.5,218.0,192.0,238.0,200.0,254.0,196.0,270.0,196.0,286.0,196.0,300.0,194.0,327.5,200.0,344.0,200.0,360.0,199.5,376.0,191.5,392.5,191.0,410.5,195.0,426.0,195.0,442.0,187.5,446.0,191.5,462.0,185.5,464.0,189.5,480.0,181.5,504.5,184.0" stroke="black" stroke-width="2" fill="none" />
<polyline points="500.0,181.0,484.0,187.5,468.0,189.5" stroke="black" stroke-width="2" fill="none" />
<polyline points="430.0,189.5,414.0,190.0,398.0,198.0,382.5,198.5,357.0,195.0,341.0,195.0,325.0,201.0,309.0,200.5,292.5,200.5,276.5,202.0,260.5,201.5,242.5,193.0,226.0,197.5,208.0,190.0,192.0,190.0,176.0,190.5,160.0,192.5,144.0,190.0,122.0,182.0,106.0,181.5,90.0,183.5,74.0,184.0,57.5,179.5,41.5,179.5,25.5,177.5,10.0,175.5,34.0,153.5" stroke="black" stroke-width="2" fill="none" />
<polyline points="29.5,158.0,45.5,154.0,61.5,152.0,77.0,150.0,92.5,149.5,108.0,152.0,123.5,158.0,139.5,164.5,155.0,175.0,170.5,183.0" stroke="black" stroke-width="2" fill="none" />
<polyline points="166.5,182.5,140.5,166.5,113.0,158.5,97.0,156.0,81.0,158.0,65.0,158.0,49.0,158.0,32.5,162.0,17.0,167.5" stroke="black" stroke-width="2" fill="none" />
<polyline points="45.0,146.0,37.0,143.5,19.0,159.0,9.0,173.0,15.0,163.0,30.5,147.0,47.0,139.0,63.0,135.0,79.0,133.5,95.0,129.5,111.0,128.0,127.0,115.5,143.0,109.5,159.0,109.5,175.0,109.5,190.5,110.0,206.5,112.5,222.0,114.5,237.5,116.5,253.0,120.5,269.0,124.5,284.5,128.5,300.5,134.0,317.0,137.5,333.5,139.5,350.0,141.5,366.0,141.5,382.0,143.5,398.0,145.5,414.0,147.5,430.5,147.5,446.5,149.5,463.0,153.0,479.0,161.0,494.5,169.0,510.5,179.0" stroke="black" stroke-width="2" fill="none" />
<polyline points="499.0,181.5,485.5,168.0,451.0,152.0" stroke="black" stroke-width="2" fill="none" />
<polyline points="390.5,183.0,374.0,175.0,358.0,169.0" stroke="black" stroke-width="2" fill="none" />
<polyline points="356.5,165.0,372.5,169.0,388.5,177.0" stroke="black" stroke-width="2" fill="none" />
<polyline points="402.5,184.5,372.5,169.0" stroke="black" stroke-width="2" fill="none" />
<polyline points="316.5,195.0,303.0,179.0" stroke="black" stroke-width="2" fill="none" />
<polyline points="277.5,182.0,261.5,170.0" stroke="black" stroke-width="2" fill="none" />
<polyline points="272.0,159.5,278.0,175.5" stroke="black" stroke-width="2" fill="none" />
<polyline points="295.0,136.5,279.0,132.5" stroke="black" stroke-width="2" fill="none" />
<polyline points="283.0,127.5,321.0,143.5,339.5,145.5,355.5,145.5,376.0,147.0,394.0,149.5,412.0,151.5,430.0,154.0,448.0,156.0,464.0,162.5,480.0,170.5" stroke="black" stroke-width="2" fill="none" />
<polyline points="501.5,357.5,473.5,373.5,436.0,389.5,394.0,412.0,409.5,402.0,425.5,394.0,442.0,388.0,458.0,381.5,474.5,373.5,490.5,365.5,502.0,369.5" stroke="black" stroke-width="2" fill="none" />
<polyline points="502.0,363.0,486.0,373.0,470.0,381.0,454.5,389.5,438.5,395.5,422.0,402.0,406.0,412.0,396.0,421.5,414.0,405.5,449.5,389.5,484.5,373.5,506.5,357.5" stroke="black" stroke-width="2" fill="none" />
<polyline points="508.5,412.5,491.0,428.5,463.0,444.5,455.0,450.5,471.5,440.0,487.5,431.5,503.5,417.0" stroke="black" stroke-width="2" fill="none" />
<polyline points="512.0,418.5,494.0,435.0,463.5,451.0,467.5,448.5,483.5,442.5,499.5,428.0" stroke="black" stroke-width="2" fill="none" />
<polyline points="317.5,477.0,315.5,473.0,299.5,477.5,283.5,471.5,267.5,463.5,252.0,457.5,226.0,460.0,210.5,448.0,195.0,422.5,179.0,412.5,163.5,406.5,147.5,400.5,131.0,396.5,115.0,390.0,99.0,386.0,83.0,379.5,67.0,372.0,51.0,366.0,35.0,360.5,19.0,352.5,3.0,350.5" stroke="black" stroke-width="2" fill="none" />
<polyline points="15.0,352.0,51.0,367.5,91.5,383.5,140.0,399.5,180.5,415.5,200.5,432.0,209.0,448.0,231.0,464.0" stroke="black" stroke-width="2" fill="none" />
<polyline points="146.0,365.0,130.0,359.0,114.0,351.0,98.0,343.0,82.0,333.0,66.0,325.5,50.0,319.5" stroke="black" stroke-width="2" fill="none" />
<polyline points="51.5,323.5,67.5,331.5,83.5,339.5" stroke="black" stroke-width="2" fill="none" />
<polyline points="93.0,327.5,69.5,310.0,36.0,300.0,20.0,296.0" stroke="black" stroke-width="2" fill="none" />
<polyline points="15.0,284.0,31.0,291.5,47.0,299.5,63.0,306.0,79.0,312.5" stroke="black" stroke-width="2" fill="none" />
<polyline points="128.5,306.0,80.5,282.0,64.5,276.0,48.5,270.0,33.0,263.5,17.0,261.5" stroke="black" stroke-width="2" fill="none" />
<polyline points="18.0,258.0,40.0,274.0" stroke="black" stroke-width="2" fill="none" />
<polyline points="21.0,264.5,37.0,272.0,53.0,278.0,69.0,283.5,84.5,287.5,102.0,289.5,118.0,295.5,133.5,301.5,149.5,307.5" stroke="black" stroke-width="2" fill="none" />
<polyline points="151.0,374.5,134.5,368.5,118.5,362.0,102.5,355.5,86.5,349.0,70.0,345.5,54.0,340.0,38.0,334.0,22.0,328.5,6.0,322.5" stroke="black" stroke-width="2" fill="none" />
<polyline points="13.5,324.5,55.5,334.5" stroke="black" stroke-width="2" fill="none" />
<polyline points="82.5,344.5,66.5,338.5,50.5,330.5,34.5,324.5,19.0,318.5,3.0,314.5" stroke="black" stroke-width="2" fill="none" />
<polyline points="4.5,314.5,44.5,330.5,68.5,334.5,88.5,352.5,132.5,368.5,178.5,384.5,190.0,400.0" stroke="black" stroke-width="2" fill="none" />
<polyline points="233.0,274.5,208.5,290.5,200.5,292.0,216.5,274.0,232.0,264.5,248.0,262.5,266.0,268.0,280.0,289.5,295.5,303.0,309.5,308.5,325.5,336.0" stroke="black" stroke-width="2" fill="none" />
<polyline points="326.5,324.5,310.5,298.0,294.0,280.0,278.0,265.5,262.0,257.5,246.5,253.0,230.5,257.5,214.5,268.0,198.5,286.0,183.0,320.5,190.5,324.5,190.5,314.5,198.5,304.5,200.5,292.5,214.5,276.5,240.5,260.5" stroke="black" stroke-width="2" fill="none" />
<polyline points="239.0,254.5,211.0,270.5,197.0,286.0,189.0,301.5,183.0,317.5,179.0,333.0,179.5,349.0,186.0,359.5,184.0,375.5,194.0,385.5" stroke="black" stroke-width="2" fill="none" />
<polyline points="140.5,346.5,116.0,331.0,88.0,315.0,88.0,299.5,60.0,277.5,22.5,261.5" stroke="black" stroke-width="2" fill="none" />
<polyline points="6.5,256.5,9.0,272.5,13.0,288.5,43.0,304.0,79.0,320.0,89.0,315.5,105.0,323.5,121.0,331.0,137.5,341.0,153.5,357.0,169.5,363.5" stroke="black" stroke-width="2" fill="none" />
<polyline points="160.0,358.0,160.0,342.0,161.5,326.0,167.5,310.5,171.5,294.5,177.5,278.5,189.5,262.5,201.5,246.5" stroke="black" stroke-width="2" fill="none" />
<polyline points="247.0,224.5,287.0,240.5,319.0,256.0,337.0,272.0,354.5,288.0" stroke="black" stroke-width="2" fill="none" />
<polyline points="161.0,364.0,143.0,358.0,121.0,342.0,79.0,326.0,45.0,310.0,10.5,297.5,4.5,292.0,6.0,276.5,4.0,260.5,5.5,244.0,4.0,228.0" stroke="black" stroke-width="2" fill="none" />
</svg>