<?xml version="1.0" encoding="UTF-8"?>
<svg xmlns="http://www.w3.org/2000/svg" xmlns:xlink="http://www.w3.org/1999/xlink" width="1935.11811" height="1935.11811" viewBox="0 0 1935.11811 1935.11811" version="1.1">
<g id="surface1">
<path style="fill:none;stroke-width:2;stroke-linecap:butt;stroke-linejoin:miter;stroke:rgb(0%,0%,0%);stroke-opacity:1;stroke-miterlimit:4;" d="M 391.499618 34.50022 L 365.500171 50.500277 L 351.499992 66.500334 L 343.50048 82.500391 L 337.499813 98.999642 L 331.500179 114.999699 L 331.500179 146.999813 L 330.999951 162.99987 L 320.999528 178.499699 L 290.500098 194.499756 L 264.999845 210.499813 L 234.999609 226.49987 L 205.000407 242.499927 L 177.500277 257.999756 L 149.499919 273.499585 L 119.499683 289.000448 L 91.500358 305.000505 L 61.500122 320.999528 L 31.499886 336.500391 L 7.999512 352.500448 L 3.999756 356.500203 L 20.500041 344.499902 L 36.500098 336.999585 L 52.500155 327.000195 L 70.50009 316.999772 L 86.500146 309.00026 L 102.500203 299.500065 L 118.50026 291.49952 L 134.500317 281.50013 L 150.500374 273.499585 L 166.500431 266.000301 L 182.00026 255.999878 L 197.50009 248.000366 L 213.500146 237.999943 L 228.999976 230.000431 L 245.000033 221.999886 L 261.00009 212.000496 L 277.000146 202.000073 L 293.000203 193.999528 L 325.000317 178.000505 " transform="matrix(3.779528,0,0,3.779528,0,0)"/>
<path style="fill:none;stroke-width:2;stroke-linecap:butt;stroke-linejoin:miter;stroke:rgb(0%,0%,0%);stroke-opacity:1;stroke-miterlimit:4;" d="M 321.499756 182.999683 L 305.499699 193.000106 L 289.499642 201.499845 L 273.499585 211.500269 L 257.499528 219.49978 L 241.999699 229.500203 L 225.999642 237.999943 L 210.499813 246.000488 L 194.999984 256.500106 L 178.999927 264.499618 L 163.500098 274.500041 L 147.500041 284.500464 L 130.999756 292.499976 L 114.999699 300.000293 L 98.999642 307.999805 L 82.999585 317.5 L 66.999528 325.99974 L 51.000505 334.000285 L 35.000448 344.499902 L 19.000391 352.500448 L 3.000334 364.499715 " transform="matrix(3.779528,0,0,3.779528,0,0)"/>
<path style="fill:none;stroke-width:2;stroke-linecap:butt;stroke-linejoin:miter;stroke:rgb(0%,0%,0%);stroke-opacity:1;stroke-miterlimit:4;" d="M 1.999878 400.499585 L 17.999935 398.499707 L 33.999992 391.999845 L 50.000049 384.000334 L 66.000106 373.499683 L 82.500391 364.999943 L 98.500448 355.499748 L 114.500505 348.000464 L 130.499528 340.500146 L 146.999813 332.499601 L 162.99987 323.000439 L 178.999927 316.999772 L 194.999984 307.000382 L 182.500488 332.499601 L 178.000505 334.000285 " transform="matrix(3.779528,0,0,3.779528,0,0)"/>
<path style="fill:none;stroke-width:2;stroke-linecap:butt;stroke-linejoin:miter;stroke:rgb(0%,0%,0%);stroke-opacity:1;stroke-miterlimit:4;" d="M 172.500065 329.500301 L 156.500008 339.499691 L 142.499829 345.500358 L 126.499772 353.49987 L 120.500138 351.499992 L 106.499959 357.999854 L 88.500024 368.500505 L 85.999919 376.500016 L 71.99974 378.499894 L 56.49991 386.500439 L 40.499854 396.499829 L 30.500464 384.499528 L 40.499854 380.499772 L 24.499797 388.999512 L 17.000513 406.500252 L 4.499984 418.49952 L 14.500407 406.000024 L 24.499797 396.499829 L 56.49991 379.999544 L 84.000041 363.999487 L 112.000399 348.000464 L 146.000391 332.000407 L 176.499821 315.500122 L 200.500423 320.000106 L 204.500179 318.000228 L 207.999707 302.500399 L 248.000366 286.500342 L 282.000358 268.500407 L 286.000114 252.000122 L 295.999504 236.000065 L 301.499943 221.999886 L 309.500488 227.99952 " transform="matrix(3.779528,0,0,3.779528,0,0)"/>
<path style="fill:none;stroke-width:2;stroke-linecap:butt;stroke-linejoin:miter;stroke:rgb(0%,0%,0%);stroke-opacity:1;stroke-miterlimit:4;" d="M 314.999894 237.499715 L 320.999528 233.499959 L 330.999951 241.999699 L 317.5 258.499984 L 305.999927 274.500041 L 300.499487 296.999959 L 298.499609 302.500399 L 296.499731 316.499544 L 284.999658 322.500212 L 283.500008 330.499723 L 289.499642 328.499845 L 317.5 320.500334 L 333.500057 320.999528 L 339.499691 336.999585 L 339.000496 352.999642 L 338.500269 368.500505 L 338.500269 431.000049 L 336.500391 443.00035 L 326.499967 459.000407 L 332.000407 463.500391 L 338.000041 479.00022 L 348.000464 495.000277 L 370.000155 510.500106 " transform="matrix(3.779528,0,0,3.779528,0,0)"/>
<path style="fill:none;stroke-width:2;stroke-linecap:butt;stroke-linejoin:miter;stroke:rgb(0%,0%,0%);stroke-opacity:1;stroke-miterlimit:4;" d="M 377.500472 491.999943 L 361.500415 477.999764 " transform="matrix(3.779528,0,0,3.779528,0,0)"/>
<path style="fill:none;stroke-width:2;stroke-linecap:butt;stroke-linejoin:miter;stroke:rgb(0%,0%,0%);stroke-opacity:1;stroke-miterlimit:4;" d="M 360.499959 477.499536 L 376.500016 493.499593 " transform="matrix(3.779528,0,0,3.779528,0,0)"/>
<path style="fill:none;stroke-width:2;stroke-linecap:butt;stroke-linejoin:miter;stroke:rgb(0%,0%,0%);stroke-opacity:1;stroke-miterlimit:4;" d="M 379.50035 506.999544 L 363.999487 497.000155 L 348.000464 482.999976 L 334.000285 452.499512 L 324.50009 441.000472 L 318.500456 445.500456 L 310.49991 452.99974 L 294.499854 452.99974 L 279.000024 453.499967 L 262.999967 455.499845 L 246.499683 456.999495 L 230.499626 459.000407 L 214.499569 461.000285 L 198.000317 465.000041 L 196.000439 457.499723 L 199.499967 456.000073 L 209.000163 433.500155 L 223.499536 427.499487 L 217.499902 427.499487 L 221.999886 409.000358 L 232.000309 397.000057 L 239.999821 395.000179 L 241.999699 400.999813 L 246.000488 420.999626 L 230.000431 420.999626 L 214.000374 411.500464 L 198.000317 413.500342 " transform="matrix(3.779528,0,0,3.779528,0,0)"/>
<path style="fill:none;stroke-width:2;stroke-linecap:butt;stroke-linejoin:miter;stroke:rgb(0%,0%,0%);stroke-opacity:1;stroke-miterlimit:4;" d="M 194.999984 411.500464 L 211.000041 407.499674 L 227.000098 401.500041 L 246.499683 393.499495 L 261.999512 388.999512 " transform="matrix(3.779528,0,0,3.779528,0,0)"/>
<path style="fill:none;stroke-width:2;stroke-linecap:butt;stroke-linejoin:miter;stroke:rgb(0%,0%,0%);stroke-opacity:1;stroke-miterlimit:4;" d="M 264.499618 406.500252 L 254.500228 422.500309 " transform="matrix(3.779528,0,0,3.779528,0,0)"/>
<path style="fill:none;stroke-width:2;stroke-linecap:butt;stroke-linejoin:miter;stroke:rgb(0%,0%,0%);stroke-opacity:1;stroke-miterlimit:4;" d="M 247.500138 402.000269 L 262.999967 402.000269 L 279.000024 401.500041 " transform="matrix(3.779528,0,0,3.779528,0,0)"/>
<path style="fill:none;stroke-width:2;stroke-linecap:butt;stroke-linejoin:miter;stroke:rgb(0%,0%,0%);stroke-opacity:1;stroke-miterlimit:4;" d="M 286.999536 386.500439 L 286.500342 402.500496 L 304.500277 395.999601 L 320.500334 395.999601 " transform="matrix(3.779528,0,0,3.779528,0,0)"/>
<path style="fill:none;stroke-width:2;stroke-linecap:butt;stroke-linejoin:miter;stroke:rgb(0%,0%,0%);stroke-opacity:1;stroke-miterlimit:4;" d="M 330.999951 343.999674 L 330.999951 327.999618 L 337.499813 311.999561 L 337.499813 297.500187 L 338.000041 281.50013 L 321.999984 271.000513 L 305.999927 273.000391 " transform="matrix(3.779528,0,0,3.779528,0,0)"/>
<path style="fill:none;stroke-width:2;stroke-linecap:butt;stroke-linejoin:miter;stroke:rgb(0%,0%,0%);stroke-opacity:1;stroke-miterlimit:4;" d="M 298.000415 281.50013 L 300.000293 285.499886 L 316.00035 279.500252 L 332.000407 275.500496 L 295.999504 286.000114 L 259.999634 302.000171 L 239.499593 307.999805 L 207.500513 307.499577 L 187.499666 319.499878 L 159.000114 332.000407 L 141.000179 345.999552 L 127 363.999487 L 127.500228 379.50035 L 117.499805 398.000513 L 123.500472 413.999536 L 99.49987 440.000016 L 65.499878 456.000073 L 50.000049 470.000252 L 34.50022 470.000252 L 4.499984 486.000309 L 6.499862 486.000309 L 22.499919 475.999886 L 37.999748 470.000252 L 53.999805 461.500513 L 69.999862 453.499967 L 85.999919 447.500334 L 101.999976 438.999561 L 118.50026 433.500155 L 134.500317 427.499487 L 150.999569 421.499854 L 166.999626 416.000448 L 182.999683 411.999658 L 198.99974 405.499797 L 214.999797 400.999813 L 222.500114 409.000358 L 227.99952 415.50022 L 243.999577 413.500342 L 249.500016 397.500285 L 265.500073 395.500407 L 280.999902 391.499618 L 286.999536 387.499862 L 302.999593 385.499984 L 319.499878 386.000212 " transform="matrix(3.779528,0,0,3.779528,0,0)"/>
<path style="fill:none;stroke-width:2;stroke-linecap:butt;stroke-linejoin:miter;stroke:rgb(0%,0%,0%);stroke-opacity:1;stroke-miterlimit:4;" d="M 294.499854 440.500244 L 278.499797 440.500244 " transform="matrix(3.779528,0,0,3.779528,0,0)"/>
<path style="fill:none;stroke-width:2;stroke-linecap:butt;stroke-linejoin:miter;stroke:rgb(0%,0%,0%);stroke-opacity:1;stroke-miterlimit:4;" d="M 269.499829 445.99965 L 285.499886 445.99965 L 300.999715 446.499878 L 316.999772 442.500122 " transform="matrix(3.779528,0,0,3.779528,0,0)"/>
<path style="fill:none;stroke-width:2;stroke-linecap:butt;stroke-linejoin:miter;stroke:rgb(0%,0%,0%);stroke-opacity:1;stroke-miterlimit:4;" d="M 329.500301 431.500277 L 330.999951 415.50022 L 330.999951 407.499674 L 315.500122 399.500163 L 299.500065 401.500041 L 275.999691 404.999569 L 260.499862 407.00048 L 244.499805 429.000171 L 228.499748 427.000293 L 212.499691 437.49991 L 212.499691 417.500098 L 196.499634 417.500098 L 180.499577 423.499731 L 164.49952 429.000171 L 148.500496 434.999805 L 132.500439 441.000472 L 126.499772 443.499544 L 110.499715 449.500212 L 94.000464 456.999495 L 78.000407 465.000041 L 62.00035 475.499658 L 55.999683 465.500269 L 89.999674 449.500212 L 119.99991 441.000472 L 144.000513 435.500033 L 144.000513 411.500464 L 150.500374 395.999601 L 154.50013 371.499805 L 187.000472 351.499992 L 171.499609 355.999976 L 155.99978 361.999609 L 139.999723 372.000033 " transform="matrix(3.779528,0,0,3.779528,0,0)"/>
<path style="fill:none;stroke-width:2;stroke-linecap:butt;stroke-linejoin:miter;stroke:rgb(0%,0%,0%);stroke-opacity:1;stroke-miterlimit:4;" d="M 155.499552 354.500326 L 135.49974 370.500382 L 134.999512 386.500439 L 110.999943 396.499829 L 118.50026 389.999967 L 130.499528 406.000024 L 134.500317 411.500464 L 139.000301 385.499984 L 144.999935 371.499805 L 163.500098 363.000065 L 179.500155 357.000431 L 199.499967 345.00013 L 201.499845 336.999585 L 203.499723 341.499569 L 219.49978 337.499813 L 225.500448 341.499569 L 241.999699 339.999919 L 257.999756 338.500269 " transform="matrix(3.779528,0,0,3.779528,0,0)"/>
<path style="fill:none;stroke-width:2;stroke-linecap:butt;stroke-linejoin:miter;stroke:rgb(0%,0%,0%);stroke-opacity:1;stroke-miterlimit:4;" d="M 250.999666 327.500423 L 235.499837 332.000407 L 232.000309 336.000163 " transform="matrix(3.779528,0,0,3.779528,0,0)"/>
<path style="fill:none;stroke-width:2;stroke-linecap:butt;stroke-linejoin:miter;stroke:rgb(0%,0%,0%);stroke-opacity:1;stroke-miterlimit:4;" d="M 210.499813 318.99965 L 225.999642 313.500244 L 241.999699 307.499577 L 257.999756 304.000049 L 280.499674 300.000293 L 276.499919 316.499544 L 266.499495 332.999829 L 277.999569 343.000252 L 265.500073 361.000187 L 263.500195 374.500138 L 261.500317 390.500195 L 267.499951 390.500195 L 287.499764 392.500073 L 303.499821 392.500073 L 319.499878 391.999845 " transform="matrix(3.779528,0,0,3.779528,0,0)"/>
<path style="fill:none;stroke-width:2;stroke-linecap:butt;stroke-linejoin:miter;stroke:rgb(0%,0%,0%);stroke-opacity:1;stroke-miterlimit:4;" d="M 271.499707 357.499626 L 251.499894 343.50048 L 235.499837 343.000252 L 219.49978 347.000008 L 203.499723 348.999886 " transform="matrix(3.779528,0,0,3.779528,0,0)"/>
<path style="fill:none;stroke-width:2;stroke-linecap:butt;stroke-linejoin:miter;stroke:rgb(0%,0%,0%);stroke-opacity:1;stroke-miterlimit:4;" d="M 204.500179 332.499601 L 175.000171 348.499658 L 143.000057 366.499593 L 146.999813 382.000456 L 134.999512 393.999723 L 132.999634 403.499919 L 127 417.500098 L 143.000057 411.000236 L 159.500342 384.999756 L 167.499854 373.000488 L 183.49991 369.499927 L 199.499967 365.500171 L 215.500024 363.500293 L 231.500081 361.999609 L 246.99991 358.500081 L 268.999601 354.500326 L 284.999658 354.99952 L 301.499943 350.999764 L 317.5 348.999886 " transform="matrix(3.779528,0,0,3.779528,0,0)"/>
<path style="fill:none;stroke-width:2;stroke-linecap:butt;stroke-linejoin:miter;stroke:rgb(0%,0%,0%);stroke-opacity:1;stroke-miterlimit:4;" d="M 326.499967 303.499821 L 311.000138 309.500488 L 299.500065 320.999528 L 283.500008 338.500269 L 284.000236 339.000496 L 293.999626 332.999829 L 302.000171 316.999772 L 313.500244 307.000382 L 332.000407 289.499642 L 338.000041 273.999813 L 337.499813 257.999756 L 337.499813 241.999699 L 338.000041 226.49987 L 338.000041 193.999528 L 336.000163 177.500277 L 338.000041 161.50022 L 338.000041 129.500106 L 343.50048 113.500049 L 347.500236 101.499748 L 357.999854 75.500301 L 372.50026 59.000016 L 394.499951 42.999959 L 379.000122 60.499666 L 363.000065 76.499723 " transform="matrix(3.779528,0,0,3.779528,0,0)"/>
<path style="fill:none;stroke-width:2;stroke-linecap:butt;stroke-linejoin:miter;stroke:rgb(0%,0%,0%);stroke-opacity:1;stroke-miterlimit:4;" d="M 377.000244 94.000464 L 373.499683 109.999487 L 373.000488 125.50035 L 373.499683 141.500407 L 381.500228 143.500285 L 389.999967 143.500285 " transform="matrix(3.779528,0,0,3.779528,0,0)"/>
<path style="fill:none;stroke-width:2;stroke-linecap:butt;stroke-linejoin:miter;stroke:rgb(0%,0%,0%);stroke-opacity:1;stroke-miterlimit:4;" d="M 382.000456 148.000269 L 398.000513 150.500374 " transform="matrix(3.779528,0,0,3.779528,0,0)"/>
<path style="fill:none;stroke-width:2;stroke-linecap:butt;stroke-linejoin:miter;stroke:rgb(0%,0%,0%);stroke-opacity:1;stroke-miterlimit:4;" d="M 410.500008 132.999634 L 400.499585 105.000309 L 406.500252 94.499658 L 389.999967 92.49978 L 373.99991 96.499536 " transform="matrix(3.779528,0,0,3.779528,0,0)"/>
<path style="fill:none;stroke-width:2;stroke-linecap:butt;stroke-linejoin:miter;stroke:rgb(0%,0%,0%);stroke-opacity:1;stroke-miterlimit:4;" d="M 407.999902 99.49987 L 409.99978 115.499927 L 405.499797 131.499984 " transform="matrix(3.779528,0,0,3.779528,0,0)"/>
<path style="fill:none;stroke-width:2;stroke-linecap:butt;stroke-linejoin:miter;stroke:rgb(0%,0%,0%);stroke-opacity:1;stroke-miterlimit:4;" d="M 337.499813 121.000366 L 345.500358 87.000374 L 361.500415 62.00035 L 377.500472 48.500399 L 393.499495 40.499854 L 409.499552 39.000203 L 425.999837 38.499976 L 441.999894 38.499976 L 457.999951 37.999748 L 506.000122 37.999748 " transform="matrix(3.779528,0,0,3.779528,0,0)"/>
<path style="fill:none;stroke-width:2;stroke-linecap:butt;stroke-linejoin:miter;stroke:rgb(0%,0%,0%);stroke-opacity:1;stroke-miterlimit:4;" d="M 468.000374 41.999504 L 452.499512 41.999504 L 436.999683 42.499731 L 405.499797 42.499731 " transform="matrix(3.779528,0,0,3.779528,0,0)"/>
<path style="fill:none;stroke-width:2;stroke-linecap:butt;stroke-linejoin:miter;stroke:rgb(0%,0%,0%);stroke-opacity:1;stroke-miterlimit:4;" d="M 387.499862 51.000505 L 371.499805 66.999528 L 357.499626 82.999585 L 347.500236 93.500236 L 363.999487 67.999984 L 379.999544 52.500155 L 395.999601 44.499609 L 407.999902 46.499487 L 472.999552 46.499487 " transform="matrix(3.779528,0,0,3.779528,0,0)"/>
<path style="fill:none;stroke-width:2;stroke-linecap:butt;stroke-linejoin:miter;stroke:rgb(0%,0%,0%);stroke-opacity:1;stroke-miterlimit:4;" d="M 503.500016 32.000114 L 487.499959 32.500342 L 471.499902 32.500342 L 455.499845 32.999536 L 440.000016 32.999536 L 423.999959 32.500342 L 407.999902 34.50022 L 391.999845 33.999992 L 375.999788 41.999504 L 359.999731 57.500366 L 343.999674 79.500057 L 338.000041 110.999943 L 341.499569 95.500114 L 349.500114 79.500057 L 359.000309 63.5 L 375.000366 47.499943 " transform="matrix(3.779528,0,0,3.779528,0,0)"/>
<path style="fill:none;stroke-width:2;stroke-linecap:butt;stroke-linejoin:miter;stroke:rgb(0%,0%,0%);stroke-opacity:1;stroke-miterlimit:4;" d="M 329.999495 185.499788 L 323.999862 201.499845 L 298.000415 218.00013 L 270.000057 234.000187 L 239.999821 249.500016 L 210.499813 265.500073 L 178.000505 281.50013 L 148.000269 297.500187 L 119.99991 313.500244 L 57.000138 345.500358 L 32.500342 361.999609 L 12.999723 377.999666 L 12.999723 372.000033 L 28.99978 363.999487 L 44.999837 354.000098 L 60.999894 344.499902 L 76.499723 336.500391 L 92.49978 328.499845 L 108.499837 320.999528 L 124.499894 313.000016 L 140.499951 302.999593 L 156.500008 295.000081 L 172.500065 287.499764 L 189.00035 279.000024 L 205.000407 271.000513 L 221.000464 261.00009 L 236.999487 252.999544 L 252.999544 245.000033 L 269.499829 236.999487 L 285.499886 227.000098 L 301.499943 218.500358 L 317.5 210.499813 " transform="matrix(3.779528,0,0,3.779528,0,0)"/>
<path style="fill:none;stroke-width:2;stroke-linecap:butt;stroke-linejoin:miter;stroke:rgb(0%,0%,0%);stroke-opacity:1;stroke-miterlimit:4;" d="M 317.5 216.999674 L 299.500065 239.499593 L 283.500008 243.500382 L 268.000179 249.500016 L 255.999878 255.49965 L 239.999821 264.000423 L 223.999764 270.500285 L 207.999707 280.499674 L 175.999593 295.500309 L 159.999536 302.999593 L 144.000513 311.000138 L 128.000456 320.999528 L 112.499593 329.500301 L 96.999764 337.499813 L 80.999707 347.500236 L 64.99965 353.49987 L 48.500399 363.999487 L 32.500342 373.99991 L 16.000057 384.000334 L 1.999878 389.999967 L 27.50013 375.999788 L 55.500488 360.499959 L 79.500057 348.499658 L 107.500415 332.499601 L 135.49974 316.499544 L 163.500098 300.499487 " transform="matrix(3.779528,0,0,3.779528,0,0)"/>
<path style="fill:none;stroke-width:2;stroke-linecap:butt;stroke-linejoin:miter;stroke:rgb(0%,0%,0%);stroke-opacity:1;stroke-miterlimit:4;" d="M 173.000293 321.999984 L 157.000236 327.999618 " transform="matrix(3.779528,0,0,3.779528,0,0)"/>
<path style="fill:none;stroke-width:2;stroke-linecap:butt;stroke-linejoin:miter;stroke:rgb(0%,0%,0%);stroke-opacity:1;stroke-miterlimit:4;" d="M 205.499601 320.000106 L 221.499658 311.999561 L 223.499536 302.500399 L 239.499593 294.499854 L 255.999878 289.000448 L 271.999935 282.99978 L 284.000236 275.500496 L 302.000171 271.499707 L 318.000228 264.999845 " transform="matrix(3.779528,0,0,3.779528,0,0)"/>
<path style="fill:none;stroke-width:2;stroke-linecap:butt;stroke-linejoin:miter;stroke:rgb(0%,0%,0%);stroke-opacity:1;stroke-miterlimit:4;" d="M 317.5 259.999634 L 301.499943 266.000301 L 293.500431 282.000358 L 279.500252 291.49952 L 277.500374 295.999504 L 261.00009 298.000415 L 244.499805 302.500399 L 232.000309 308.500033 L 250.500472 290.500098 L 260.499862 286.999536 L 279.000024 286.999536 L 286.500342 271.000513 L 286.999536 255.000456 " transform="matrix(3.779528,0,0,3.779528,0,0)"/>
<path style="fill:none;stroke-width:2;stroke-linecap:butt;stroke-linejoin:miter;stroke:rgb(0%,0%,0%);stroke-opacity:1;stroke-miterlimit:4;" d="M 288.50022 234.999609 L 268.500407 250.500472 L 258.499984 260.499862 L 224.499992 276.499919 L 192.499878 292.499976 L 176.499821 300.499487 L 148.999691 316.499544 L 155.000358 312.499788 L 171.499609 304.000049 L 187.000472 295.999504 L 202.999495 288.50022 L 221.000464 277.999569 L 236.999487 270.000057 L 252.999544 263.500195 L 268.500407 255.49965 L 271.999935 241.500505 L 287.999992 237.499715 L 295.500309 235.499837 L 309.500488 233.499959 L 325.499512 227.99952 " transform="matrix(3.779528,0,0,3.779528,0,0)"/>
<path style="fill:none;stroke-width:2;stroke-linecap:butt;stroke-linejoin:miter;stroke:rgb(0%,0%,0%);stroke-opacity:1;stroke-miterlimit:4;" d="M 324.50009 209.000163 L 308.500033 216.999674 L 292.499976 227.000098 L 276.499919 235.499837 L 260.499862 245.50026 L 241.999699 255.000456 L 223.999764 262.999967 L 207.999707 271.499707 L 191.99965 279.500252 L 175.999593 289.499642 L 159.999536 296.999959 L 144.000513 305.499699 L 128.000456 315.500122 L 112.499593 323.999862 L 96.499536 331.500179 L 80.999707 339.499691 L 65.499878 348.000464 L 50.000049 357.999854 L 33.999992 368.000277 L 17.499707 375.999788 L 48.999593 357.999854 L 76.499723 341.999797 L 107.999609 326.499967 L 137.499618 310.49991 L 165.499976 295.000081 L 195.500212 279.000024 L 225.500448 263.500195 L 259.500439 247.500138 L 285.499886 231.500081 " transform="matrix(3.779528,0,0,3.779528,0,0)"/>
<path style="fill:none;stroke-width:2;stroke-linecap:butt;stroke-linejoin:miter;stroke:rgb(0%,0%,0%);stroke-opacity:1;stroke-miterlimit:4;" d="M 273.999813 276.499919 L 257.499528 282.499552 L 241.500505 288.50022 L 225.999642 293.999626 L 209.999585 306.500155 " transform="matrix(3.779528,0,0,3.779528,0,0)"/>
<path style="fill:none;stroke-width:2;stroke-linecap:butt;stroke-linejoin:miter;stroke:rgb(0%,0%,0%);stroke-opacity:1;stroke-miterlimit:4;" d="M 211.000041 278.499797 L 234.999609 262.49974 " transform="matrix(3.779528,0,0,3.779528,0,0)"/>
<path style="fill:none;stroke-width:2;stroke-linecap:butt;stroke-linejoin:miter;stroke:rgb(0%,0%,0%);stroke-opacity:1;stroke-miterlimit:4;" d="M 275.000269 300.499487 L 266.999723 316.499544 L 259.000212 332.000407 L 261.00009 351.499992 L 275.000269 349.500114 L 291.000326 343.000252 L 307.499577 314.999894 L 323.999862 313.500244 " transform="matrix(3.779528,0,0,3.779528,0,0)"/>
<path style="fill:none;stroke-width:2;stroke-linecap:butt;stroke-linejoin:miter;stroke:rgb(0%,0%,0%);stroke-opacity:1;stroke-miterlimit:4;" d="M 320.999528 351.499992 L 300.999715 363.500293 L 284.999658 364.999943 L 259.000212 373.000488 L 242.499927 373.000488 L 227.000098 375.000366 L 211.000041 377.000244 L 194.999984 381 L 162.99987 389.999967 " transform="matrix(3.779528,0,0,3.779528,0,0)"/>
<path style="fill:none;stroke-width:2;stroke-linecap:butt;stroke-linejoin:miter;stroke:rgb(0%,0%,0%);stroke-opacity:1;stroke-miterlimit:4;" d="M 151.499797 427.999715 L 183.49991 416.000448 L 180.999805 411.999658 L 174.499943 421.499854 L 139.999723 425.999837 " transform="matrix(3.779528,0,0,3.779528,0,0)"/>
<path style="fill:none;stroke-width:2;stroke-linecap:butt;stroke-linejoin:miter;stroke:rgb(0%,0%,0%);stroke-opacity:1;stroke-miterlimit:4;" d="M 144.999935 460.500057 L 150.999569 447.999528 L 148.999691 459.999829 L 144.999935 461.500513 L 146.499585 477.499536 L 116.000155 481.500326 L 85.999919 497.500382 L 75.500301 509.49965 L 91.500358 499.50026 L 103.499626 506.000122 L 119.499683 495.999699 L 135.49974 487.499959 L 149.499919 477.499536 L 157.500464 477.499536 L 169.499731 473.49978 L 182.999683 465.500269 L 187.499666 469.500024 L 193.999528 461.000285 L 214.000374 453.499967 L 230.000431 455.499845 L 246.000488 452.000317 L 257.999756 445.99965 L 272.500163 441.999894 L 278.499797 450.000439 L 294.499854 450.000439 L 310.49991 450.499634 L 326.499967 450.000439 L 352.500448 479.999642 L 368.000277 493.499593 L 384.000334 503.500016 L 400.000391 509.49965 L 416.000448 504.999666 L 432.000505 505.499894 L 447.999528 505.499894 L 464.499813 506.000122 L 496.499927 506.000122 " transform="matrix(3.779528,0,0,3.779528,0,0)"/>
<path style="fill:none;stroke-width:2;stroke-linecap:butt;stroke-linejoin:miter;stroke:rgb(0%,0%,0%);stroke-opacity:1;stroke-miterlimit:4;" d="M 474.000008 386.999634 L 447.999528 370.999577 L 431.500277 354.500326 L 421.499854 338.500269 L 416.000448 323.000439 L 411.999658 307.000382 L 407.999902 291.000326 L 407.999902 275.000269 L 411.500464 259.000212 L 415.50022 243.000155 L 421.499854 227.500326 L 433.500155 211.500269 L 445.99965 196.000439 L 466.000496 180.499577 L 495.999699 166.500431 L 479.999642 166.500431 " transform="matrix(3.779528,0,0,3.779528,0,0)"/>
<path style="fill:none;stroke-width:2;stroke-linecap:butt;stroke-linejoin:miter;stroke:rgb(0%,0%,0%);stroke-opacity:1;stroke-miterlimit:4;" d="M 475.999886 168.500309 L 491.999943 162.000448 L 508 161.50022 " transform="matrix(3.779528,0,0,3.779528,0,0)"/>
<path style="fill:none;stroke-width:2;stroke-linecap:butt;stroke-linejoin:miter;stroke:rgb(0%,0%,0%);stroke-opacity:1;stroke-miterlimit:4;" d="M 497.000155 173.499487 L 481.500326 177.500277 L 465.500269 185.499788 L 449.500212 199.499967 L 433.500155 219.49978 L 417.500098 250.000244 " transform="matrix(3.779528,0,0,3.779528,0,0)"/>
<path style="fill:none;stroke-width:2;stroke-linecap:butt;stroke-linejoin:miter;stroke:rgb(0%,0%,0%);stroke-opacity:1;stroke-miterlimit:4;" d="M 411.999658 255.000456 L 427.999715 218.999552 L 444.5 198.99974 L 460.500057 184.500366 L 477.000342 176.499821 L 493.000399 169.999959 L 509.000456 169.999959 " transform="matrix(3.779528,0,0,3.779528,0,0)"/>
<path style="fill:none;stroke-width:2;stroke-linecap:butt;stroke-linejoin:miter;stroke:rgb(0%,0%,0%);stroke-opacity:1;stroke-miterlimit:4;" d="M 481.99952 177.000049 L 456.000073 193.500334 L 441.999894 209.500391 L 429.999593 225.500448 L 422.000081 241.500505 L 416.000448 257.499528 L 413.999536 273.499585 L 412.499886 289.499642 L 416.499642 305.499699 L 420.999626 321.499756 L 429.000171 338.000041 L 438.999561 353.49987 L 454.999618 369.499927 L 481.000098 386.000212 " transform="matrix(3.779528,0,0,3.779528,0,0)"/>
<path style="fill:none;stroke-width:2;stroke-linecap:butt;stroke-linejoin:miter;stroke:rgb(0%,0%,0%);stroke-opacity:1;stroke-miterlimit:4;" d="M 498.499805 319.499878 L 482.499748 301.499943 " transform="matrix(3.779528,0,0,3.779528,0,0)"/>
<path style="fill:none;stroke-width:2;stroke-linecap:butt;stroke-linejoin:miter;stroke:rgb(0%,0%,0%);stroke-opacity:1;stroke-miterlimit:4;" d="M 475.000464 291.49952 L 491.499715 266.000301 L 508 255.49965 L 490.000065 266.999723 L 480.49987 282.99978 L 476.500114 298.999837 L 484.499626 314.999894 " transform="matrix(3.779528,0,0,3.779528,0,0)"/>
<path style="fill:none;stroke-width:2;stroke-linecap:butt;stroke-linejoin:miter;stroke:rgb(0%,0%,0%);stroke-opacity:1;stroke-miterlimit:4;" d="M 470.999674 307.999805 L 486.999731 317.5 L 495.000277 327.500423 " transform="matrix(3.779528,0,0,3.779528,0,0)"/>
<path style="fill:none;stroke-width:2;stroke-linecap:butt;stroke-linejoin:miter;stroke:rgb(0%,0%,0%);stroke-opacity:1;stroke-miterlimit:4;" d="M 509.49965 325.99974 L 486.000309 309.999683 L 479.999642 294.499854 L 487.499959 279.000024 L 505.499894 262.999967 L 497.999577 268.999601 L 481.99952 288.50022 " transform="matrix(3.779528,0,0,3.779528,0,0)"/>
<path style="fill:none;stroke-width:2;stroke-linecap:butt;stroke-linejoin:miter;stroke:rgb(0%,0%,0%);stroke-opacity:1;stroke-miterlimit:4;" d="M 466.499691 292.499976 L 482.499748 259.999634 L 498.499805 247.500138 L 494.500049 249.500016 L 477.999764 264.999845 L 470.000252 281.50013 L 465.500269 297.500187 L 469.500024 313.500244 L 487.499959 329.999495 L 497.999577 329.999495 L 500.000488 336.000163 " transform="matrix(3.779528,0,0,3.779528,0,0)"/>
<path style="fill:none;stroke-width:2;stroke-linecap:butt;stroke-linejoin:miter;stroke:rgb(0%,0%,0%);stroke-opacity:1;stroke-miterlimit:4;" d="M 493.499593 328.499845 L 475.499658 312.499788 L 472.00013 296.999959 L 475.999886 280.999902 L 486.499504 264.999845 L 497.999577 255.000456 L 481.99952 268.999601 " transform="matrix(3.779528,0,0,3.779528,0,0)"/>
<path style="fill:none;stroke-width:2;stroke-linecap:butt;stroke-linejoin:miter;stroke:rgb(0%,0%,0%);stroke-opacity:1;stroke-miterlimit:4;" d="M 409.000358 246.499683 L 425.000415 214.499569 L 441.000472 194.499756 L 457.499723 180.499577 L 449.500212 186.500244 L 433.500155 202.500301 L 422.999504 218.500358 L 414.999992 234.500415 L 409.000358 250.000244 L 404.500374 265.500073 L 402.500496 281.50013 L 404.500374 297.500187 L 408.50013 313.500244 L 412.499886 329.999495 L 420.000203 346.49978 L 429.500399 362.499837 L 447.500334 378.499894 L 475.999886 394.499951 " transform="matrix(3.779528,0,0,3.779528,0,0)"/>
<path style="fill:none;stroke-width:2;stroke-linecap:butt;stroke-linejoin:miter;stroke:rgb(0%,0%,0%);stroke-opacity:1;stroke-miterlimit:4;" d="M 487.499959 394.499951 L 471.499902 386.500439 L 454.999618 376.500016 L 438.500366 364.499715 L 422.500309 341.000374 " transform="matrix(3.779528,0,0,3.779528,0,0)"/>
<path style="fill:none;stroke-width:2;stroke-linecap:butt;stroke-linejoin:miter;stroke:rgb(0%,0%,0%);stroke-opacity:1;stroke-miterlimit:4;" d="M 416.000448 321.499756 L 432.000505 343.50048 L 447.999528 363.000065 L 463.999585 375.000366 L 480.49987 383.500106 L 496.499927 391.499618 " transform="matrix(3.779528,0,0,3.779528,0,0)"/>
<path style="fill:none;stroke-width:2;stroke-linecap:butt;stroke-linejoin:miter;stroke:rgb(0%,0%,0%);stroke-opacity:1;stroke-miterlimit:4;" d="M 504.999666 404.999569 L 472.999552 393.000301 L 456.500301 383.500106 L 440.500244 370.999577 L 424.500187 350.999764 L 408.50013 314.999894 " transform="matrix(3.779528,0,0,3.779528,0,0)"/>
<path style="fill:none;stroke-width:2;stroke-linecap:butt;stroke-linejoin:miter;stroke:rgb(0%,0%,0%);stroke-opacity:1;stroke-miterlimit:4;" d="M 404.999569 318.99965 L 420.999626 354.99952 L 436.999683 375.000366 L 452.499512 386.500439 L 468.000374 393.999723 L 484.000431 402.000269 L 500.000488 405.499797 " transform="matrix(3.779528,0,0,3.779528,0,0)"/>
<path style="fill:none;stroke-width:2;stroke-linecap:butt;stroke-linejoin:miter;stroke:rgb(0%,0%,0%);stroke-opacity:1;stroke-miterlimit:4;" d="M 479.500448 400.000391 L 447.500334 384.000334 L 429.000171 368.000277 L 418.49952 351.499992 L 409.99978 335.499935 L 404.000146 319.499878 L 399.500163 303.499821 L 397.500285 287.499764 L 397.500285 271.499707 L 401.500041 255.49965 L 405.499797 239.000399 L 411.000236 223.000342 L 420.999626 207.000285 L 433.500155 190.5 L 451.50009 175.000171 L 466.000496 168.999504 L 450.000439 177.000049 L 434.499577 191.500456 L 418.49952 214.000374 L 402.500496 250.000244 " transform="matrix(3.779528,0,0,3.779528,0,0)"/>
<path style="fill:none;stroke-width:2;stroke-linecap:butt;stroke-linejoin:miter;stroke:rgb(0%,0%,0%);stroke-opacity:1;stroke-miterlimit:4;" d="M 325.000317 309.999683 L 321.499756 300.000293 L 305.999927 305.999927 L 293.999626 296.499731 L 285.499886 313.000016 L 277.500374 332.999829 L 268.000179 341.000374 L 252.000122 324.50009 L 236.000065 327.000195 L 220.000008 330.999951 L 203.999951 335.499935 L 187.999894 345.500358 L 171.999837 350.999764 L 155.99978 354.99952 L 139.499495 362.499837 L 127.500228 374.500138 L 119.499683 384.000334 L 103.499626 389.999967 L 93.500236 406.000024 L 82.999585 414.499764 L 62.999772 406.500252 L 95.500114 402.500496 L 91.999552 392.500073 L 96.000342 390.500195 L 89.999674 388.500317 L 80.000285 372.000033 L 105.999731 357.999854 L 116.000155 355.999976 " transform="matrix(3.779528,0,0,3.779528,0,0)"/>
<path style="fill:none;stroke-width:2;stroke-linecap:butt;stroke-linejoin:miter;stroke:rgb(0%,0%,0%);stroke-opacity:1;stroke-miterlimit:4;" d="M 72.499967 380.499772 L 48.500399 396.499829 L 30.500464 412.499886 L 30.500464 430.499821 L 4.499984 446.499878 L 8.49974 442.500122 L 26.999902 432.499699 L 44.499609 423.999959 L 60.499666 418.000326 L 76.499723 411.500464 L 92.49978 409.000358 L 107.999609 403.499919 L 101.999976 395.500407 L 103.999854 402.000269 L 110.499715 407.999902 " transform="matrix(3.779528,0,0,3.779528,0,0)"/>
<path style="fill:none;stroke-width:2;stroke-linecap:butt;stroke-linejoin:miter;stroke:rgb(0%,0%,0%);stroke-opacity:1;stroke-miterlimit:4;" d="M 134.500317 436.999683 L 118.50026 438.999561 L 102.500203 445.000228 L 86.500146 452.499512 L 70.50009 460.500057 L 55.00026 468.499569 L 39.000203 475.999886 L 23.000146 488.000187 L 7.00009 491.999943 L 23.000146 484.000431 L 28.499552 477.999764 L 12.999723 487.499959 " transform="matrix(3.779528,0,0,3.779528,0,0)"/>
<path style="fill:none;stroke-width:2;stroke-linecap:butt;stroke-linejoin:miter;stroke:rgb(0%,0%,0%);stroke-opacity:1;stroke-miterlimit:4;" d="M 32.500342 502.499561 L 17.000513 512.499984 L 42.999959 496.499927 " transform="matrix(3.779528,0,0,3.779528,0,0)"/>
<path style="fill:none;stroke-width:2;stroke-linecap:butt;stroke-linejoin:miter;stroke:rgb(0%,0%,0%);stroke-opacity:1;stroke-miterlimit:4;" d="M 55.500488 481.000098 L 25.500252 497.000155 L 3.499528 511.499528 L 19.499585 501.500138 L 35.499642 491.999943 L 51.499699 484.000431 L 61.500122 470.000252 L 77.500179 461.500513 " transform="matrix(3.779528,0,0,3.779528,0,0)"/>
<path style="fill:none;stroke-width:2;stroke-linecap:butt;stroke-linejoin:miter;stroke:rgb(0%,0%,0%);stroke-opacity:1;stroke-miterlimit:4;" d="M 62.00035 483.500203 L 62.499544 499.50026 L 68.500212 507.499772 L 84.500269 500.000488 L 100.500326 490.000065 L 116.500382 481.99952 L 132.500439 475.999886 L 148.500496 474.000008 L 164.000326 463.500391 L 179.500155 457.499723 L 195.500212 450.999862 L 211.500269 447.000106 L 227.500326 443.999772 L 243.500382 442.500122 L 259.500439 438.500366 L 275.500496 436.999683 L 291.999748 436.500488 L 307.999805 434.499577 L 323.999862 434.000382 " transform="matrix(3.779528,0,0,3.779528,0,0)"/>
<path style="fill:none;stroke-width:2;stroke-linecap:butt;stroke-linejoin:miter;stroke:rgb(0%,0%,0%);stroke-opacity:1;stroke-miterlimit:4;" d="M 337.499813 454.500423 L 339.499691 470.50048 L 347.500236 486.499504 L 367.500049 502.499561 " transform="matrix(3.779528,0,0,3.779528,0,0)"/>
<path style="fill:none;stroke-width:2;stroke-linecap:butt;stroke-linejoin:miter;stroke:rgb(0%,0%,0%);stroke-opacity:1;stroke-miterlimit:4;" d="M 358.500081 506.999544 L 342.500024 495.000277 L 326.499967 472.999552 L 310.49991 472.999552 L 294.499854 472.500358 L 277.999569 472.500358 L 261.999512 474.500236 L 245.50026 474.500236 L 229.500203 477.000342 L 197.50009 484.999854 L 165.499976 493.999821 L 148.999691 502.499561 L 132.999634 508.500228 L 139.000301 504.500472 L 182.500488 488.500415 " transform="matrix(3.779528,0,0,3.779528,0,0)"/>
<path style="fill:none;stroke-width:2;stroke-linecap:butt;stroke-linejoin:miter;stroke:rgb(0%,0%,0%);stroke-opacity:1;stroke-miterlimit:4;" d="M 178.499699 482.499748 L 134.999512 498.499805 L 123.000244 506.999544 L 139.000301 497.500382 L 155.000358 493.499593 L 187.000472 481.500326 L 202.999495 477.499536 L 218.500358 475.000464 L 234.500415 470.999674 L 250.999666 468.499569 L 266.999723 466.499691 L 282.499552 466.999919 L 298.499609 466.999919 L 314.000472 467.500146 L 329.500301 467.500146 L 347.500236 491.499715 L 363.999487 505.499894 " transform="matrix(3.779528,0,0,3.779528,0,0)"/>
<path style="fill:none;stroke-width:2;stroke-linecap:butt;stroke-linejoin:miter;stroke:rgb(0%,0%,0%);stroke-opacity:1;stroke-miterlimit:4;" d="M 345.999552 506.000122 L 345.999552 507.499772 L 337.499813 491.499715 L 327.500423 475.499658 " transform="matrix(3.779528,0,0,3.779528,0,0)"/>
<path style="fill:none;stroke-width:2;stroke-linecap:butt;stroke-linejoin:miter;stroke:rgb(0%,0%,0%);stroke-opacity:1;stroke-miterlimit:4;" d="M 341.000374 466.000496 L 350.999764 481.500326 L 371.499805 497.500382 " transform="matrix(3.779528,0,0,3.779528,0,0)"/>
<path style="fill:none;stroke-width:2;stroke-linecap:butt;stroke-linejoin:miter;stroke:rgb(0%,0%,0%);stroke-opacity:1;stroke-miterlimit:4;" d="M 257.499528 367.500049 L 241.500505 368.999699 L 225.500448 370.500382 L 209.500391 372.000033 " transform="matrix(3.779528,0,0,3.779528,0,0)"/>
<path style="fill:none;stroke-width:2;stroke-linecap:butt;stroke-linejoin:miter;stroke:rgb(0%,0%,0%);stroke-opacity:1;stroke-miterlimit:4;" d="M 199.499967 371.499805 L 215.500024 367.500049 L 231.500081 365.500171 L 247.500138 363.999487 L 262.999967 362.499837 L 279.000024 362.499837 L 295.000081 361.000187 L 327.500423 361.000187 L 332.000407 376.500016 " transform="matrix(3.779528,0,0,3.779528,0,0)"/>
<path style="fill:none;stroke-width:2;stroke-linecap:butt;stroke-linejoin:miter;stroke:rgb(0%,0%,0%);stroke-opacity:1;stroke-miterlimit:4;" d="M 329.000073 355.999976 L 312.499788 355.499748 L 296.499731 355.999976 L 277.999569 346.49978 L 302.000171 334.500513 L 293.500431 309.999683 L 289.99987 293.999626 " transform="matrix(3.779528,0,0,3.779528,0,0)"/>
<path style="fill:none;stroke-width:2;stroke-linecap:butt;stroke-linejoin:miter;stroke:rgb(0%,0%,0%);stroke-opacity:1;stroke-miterlimit:4;" d="M 309.999683 190.5 L 283.500008 205.999829 L 253.499772 221.499658 L 225.500448 237.499715 L 196.000439 254 L 168.000081 270.000057 L 137.999845 286.000114 L 109.999487 302.000171 L 80.500513 318.000228 L 50.500277 333.500057 L 23.000146 349.500114 " transform="matrix(3.779528,0,0,3.779528,0,0)"/>
<path style="fill:none;stroke-width:2;stroke-linecap:butt;stroke-linejoin:miter;stroke:rgb(0%,0%,0%);stroke-opacity:1;stroke-miterlimit:4;" d="M 68.500212 379.50035 L 41.999504 395.500407 L 32.000114 411.500464 L 48.000171 411.000236 L 64.000228 402.999691 L 80.500513 396.499829 L 100.500326 372.50026 L 112.000399 360.499959 " transform="matrix(3.779528,0,0,3.779528,0,0)"/>
<path style="fill:none;stroke-width:2;stroke-linecap:butt;stroke-linejoin:miter;stroke:rgb(0%,0%,0%);stroke-opacity:1;stroke-miterlimit:4;" d="M 39.000203 403.499919 L 55.00026 393.499495 L 70.50009 384.000334 L 78.499601 386.000212 L 64.500456 402.000269 L 50.500277 413.999536 L 14.000179 429.999593 L 5.999634 428.499943 L 21.999691 426.500065 L 37.999748 420.999626 L 53.999805 413.000114 L 64.000228 420.999626 L 66.500334 425.000415 L 70.50009 408.50013 L 44.999837 424.500187 L 41.000081 432.000505 L 57.000138 427.999715 " transform="matrix(3.779528,0,0,3.779528,0,0)"/>
<path style="fill:none;stroke-width:2;stroke-linecap:butt;stroke-linejoin:miter;stroke:rgb(0%,0%,0%);stroke-opacity:1;stroke-miterlimit:4;" d="M 44.999837 434.499577 L 26.999902 438.500366 L 10.999845 448.499756 L 21.000269 445.99965 L 39.000203 437.49991 L 23.000146 445.500456 L 7.00009 454.000195 " transform="matrix(3.779528,0,0,3.779528,0,0)"/>
<path style="fill:none;stroke-width:2;stroke-linecap:butt;stroke-linejoin:miter;stroke:rgb(0%,0%,0%);stroke-opacity:1;stroke-miterlimit:4;" d="M 107.999609 447.000106 L 85.999919 459.000407 L 101.499748 450.999862 L 117.499805 445.000228 " transform="matrix(3.779528,0,0,3.779528,0,0)"/>
<path style="fill:none;stroke-width:2;stroke-linecap:butt;stroke-linejoin:miter;stroke:rgb(0%,0%,0%);stroke-opacity:1;stroke-miterlimit:4;" d="M 126.499772 481.000098 L 96.499536 497.500382 L 80.000285 511.499528 L 96.000342 503.500016 L 112.000399 495.999699 L 128.000456 486.000309 " transform="matrix(3.779528,0,0,3.779528,0,0)"/>
<path style="fill:none;stroke-width:2;stroke-linecap:butt;stroke-linejoin:miter;stroke:rgb(0%,0%,0%);stroke-opacity:1;stroke-miterlimit:4;" d="M 127.500228 485.500081 L 99.49987 501.500138 L 107.999609 491.499715 L 123.999666 483.500203 L 139.999723 477.499536 L 162.000448 473.49978 " transform="matrix(3.779528,0,0,3.779528,0,0)"/>
<path style="fill:none;stroke-width:2;stroke-linecap:butt;stroke-linejoin:miter;stroke:rgb(0%,0%,0%);stroke-opacity:1;stroke-miterlimit:4;" d="M 121.999788 494.500049 L 96.000342 511.000334 " transform="matrix(3.779528,0,0,3.779528,0,0)"/>
</g>
</svg>
