<?xml version="1.0" encoding="UTF-8"?>
<svg xmlns="http://www.w3.org/2000/svg" xmlns:xlink="http://www.w3.org/1999/xlink" width="1935.11811" height="1935.11811" viewBox="0 0 1935.11811 1935.11811" version="1.1">
<g id="surface1">
<path style="fill:none;stroke-width:2;stroke-linecap:butt;stroke-linejoin:miter;stroke:rgb(0%,0%,0%);stroke-opacity:1;stroke-miterlimit:4;" d="M 295.500309 14.500407 L 337.499813 30.500464 L 363.500293 46.499487 L 381.500228 62.499544 L 395.500407 78.999829 L 407.499674 94.999886 L 417.500098 110.999943 L 427.499487 127 L 432.999927 143.000057 L 438.999561 158.499886 L 444.5 174.499943 L 445.000228 190.5 L 450.999862 206.500057 L 459.000407 222.500114 L 465.500269 237.999943 L 473.49978 268.999601 L 475.499658 284.999658 L 475.499658 316.499544 L 472.00013 332.499601 L 468.000374 348.499658 L 462.499935 364.499715 L 454.500423 381 L 430.499821 413.000114 L 414.499764 429.000171 L 394.499951 445.500456 L 368.500505 461.500513 L 338.500269 477.499536 L 322.500212 477.499536 L 338.500269 472.00013 L 354.000098 463.999585 L 369.499927 456.000073 L 385.499984 445.99965 L 400.999813 434.000382 L 416.99987 420.000203 L 432.999927 400.000391 L 448.999984 375.999788 " transform="matrix(3.779528,0,0,3.779528,0,0)"/>
<path style="fill:none;stroke-width:2;stroke-linecap:butt;stroke-linejoin:miter;stroke:rgb(0%,0%,0%);stroke-opacity:1;stroke-miterlimit:4;" d="M 361.999609 291.49952 L 367.500049 275.500496 L 371.499805 271.499707 L 367.500049 265.500073 L 351.499992 263.500195 " transform="matrix(3.779528,0,0,3.779528,0,0)"/>
<path style="fill:none;stroke-width:2;stroke-linecap:butt;stroke-linejoin:miter;stroke:rgb(0%,0%,0%);stroke-opacity:1;stroke-miterlimit:4;" d="M 354.500326 259.500439 L 352.00022 275.500496 L 345.999552 291.49952 L 321.999984 307.000382 L 325.99974 307.000382 " transform="matrix(3.779528,0,0,3.779528,0,0)"/>
<path style="fill:none;stroke-width:2;stroke-linecap:butt;stroke-linejoin:miter;stroke:rgb(0%,0%,0%);stroke-opacity:1;stroke-miterlimit:4;" d="M 329.999495 321.999984 L 345.999552 359.999731 L 354.500326 375.499561 L 360.499959 391.999845 L 366.999821 407.999902 L 368.999699 423.999959 L 366.999821 440.500244 " transform="matrix(3.779528,0,0,3.779528,0,0)"/>
<path style="fill:none;stroke-width:2;stroke-linecap:butt;stroke-linejoin:miter;stroke:rgb(0%,0%,0%);stroke-opacity:1;stroke-miterlimit:4;" d="M 349.500114 447.000106 L 333.500057 440.500244 L 317.5 424.500187 " transform="matrix(3.779528,0,0,3.779528,0,0)"/>
<path style="fill:none;stroke-width:2;stroke-linecap:butt;stroke-linejoin:miter;stroke:rgb(0%,0%,0%);stroke-opacity:1;stroke-miterlimit:4;" d="M 309.00026 432.000505 L 325.000317 441.999894 L 341.499569 449.500212 L 357.499626 447.999528 " transform="matrix(3.779528,0,0,3.779528,0,0)"/>
<path style="fill:none;stroke-width:2;stroke-linecap:butt;stroke-linejoin:miter;stroke:rgb(0%,0%,0%);stroke-opacity:1;stroke-miterlimit:4;" d="M 329.999495 420.000203 L 314.000472 409.99978 " transform="matrix(3.779528,0,0,3.779528,0,0)"/>
<path style="fill:none;stroke-width:2;stroke-linecap:butt;stroke-linejoin:miter;stroke:rgb(0%,0%,0%);stroke-opacity:1;stroke-miterlimit:4;" d="M 316.499544 404.500374 L 330.999951 420.500431 " transform="matrix(3.779528,0,0,3.779528,0,0)"/>
<path style="fill:none;stroke-width:2;stroke-linecap:butt;stroke-linejoin:miter;stroke:rgb(0%,0%,0%);stroke-opacity:1;stroke-miterlimit:4;" d="M 343.999674 425.999837 L 327.999618 409.99978 L 311.999561 395.999601 L 295.999504 370.000155 " transform="matrix(3.779528,0,0,3.779528,0,0)"/>
<path style="fill:none;stroke-width:2;stroke-linecap:butt;stroke-linejoin:miter;stroke:rgb(0%,0%,0%);stroke-opacity:1;stroke-miterlimit:4;" d="M 300.000293 367.500049 L 324.50009 383.500106 L 342.500024 399.500163 L 362.499837 416.000448 L 362.499837 432.000505 " transform="matrix(3.779528,0,0,3.779528,0,0)"/>
<path style="fill:none;stroke-width:2;stroke-linecap:butt;stroke-linejoin:miter;stroke:rgb(0%,0%,0%);stroke-opacity:1;stroke-miterlimit:4;" d="M 348.000464 397.000057 L 329.500301 381 L 330.999951 364.999943 L 341.499569 357.000431 L 325.499512 368.999699 L 309.500488 373.499683 L 293.999626 365.500171 " transform="matrix(3.779528,0,0,3.779528,0,0)"/>
<path style="fill:none;stroke-width:2;stroke-linecap:butt;stroke-linejoin:miter;stroke:rgb(0%,0%,0%);stroke-opacity:1;stroke-miterlimit:4;" d="M 294.499854 364.999943 L 304.500277 381.500228 L 311.999561 397.500285 L 314.000472 413.500342 L 318.000228 429.999593 L 345.999552 445.99965 " transform="matrix(3.779528,0,0,3.779528,0,0)"/>
<path style="fill:none;stroke-width:2;stroke-linecap:butt;stroke-linejoin:miter;stroke:rgb(0%,0%,0%);stroke-opacity:1;stroke-miterlimit:4;" d="M 313.500244 435.500033 L 313.500244 451.50009 L 311.999561 467.500146 L 311.999561 483.500203 L 304.000049 487.499959 L 289.99987 485.500081 " transform="matrix(3.779528,0,0,3.779528,0,0)"/>
<path style="fill:none;stroke-width:2;stroke-linecap:butt;stroke-linejoin:miter;stroke:rgb(0%,0%,0%);stroke-opacity:1;stroke-miterlimit:4;" d="M 327.000195 411.500464 L 302.999593 391.499618 L 286.999536 364.999943 " transform="matrix(3.779528,0,0,3.779528,0,0)"/>
<path style="fill:none;stroke-width:2;stroke-linecap:butt;stroke-linejoin:miter;stroke:rgb(0%,0%,0%);stroke-opacity:1;stroke-miterlimit:4;" d="M 285.499886 361.999609 L 301.499943 363.999487 L 317.5 370.000155 L 333.500057 386.000212 L 349.500114 397.500285 " transform="matrix(3.779528,0,0,3.779528,0,0)"/>
<path style="fill:none;stroke-width:2;stroke-linecap:butt;stroke-linejoin:miter;stroke:rgb(0%,0%,0%);stroke-opacity:1;stroke-miterlimit:4;" d="M 357.999854 409.499552 L 341.499569 397.500285 L 324.50009 383.500106 L 300.499487 363.500293 " transform="matrix(3.779528,0,0,3.779528,0,0)"/>
<path style="fill:none;stroke-width:2;stroke-linecap:butt;stroke-linejoin:miter;stroke:rgb(0%,0%,0%);stroke-opacity:1;stroke-miterlimit:4;" d="M 285.499886 361.500415 L 295.500309 377.500472 L 304.000049 393.499495 L 307.999805 409.99978 L 309.500488 425.999837 L 307.499577 441.999894 L 304.000049 457.999951 L 293.999626 473.49978 L 292.499976 483.500203 L 282.499552 495.500505 L 298.000415 491.499715 " transform="matrix(3.779528,0,0,3.779528,0,0)"/>
<path style="fill:none;stroke-width:2;stroke-linecap:butt;stroke-linejoin:miter;stroke:rgb(0%,0%,0%);stroke-opacity:1;stroke-miterlimit:4;" d="M 268.000179 493.000399 L 252.50035 491.499715 L 236.500293 483.500203 L 220.500236 472.00013 L 204.500179 448.499756 " transform="matrix(3.779528,0,0,3.779528,0,0)"/>
<path style="fill:none;stroke-width:2;stroke-linecap:butt;stroke-linejoin:miter;stroke:rgb(0%,0%,0%);stroke-opacity:1;stroke-miterlimit:4;" d="M 205.999829 442.500122 L 214.000374 459.000407 L 227.500326 475.000464 " transform="matrix(3.779528,0,0,3.779528,0,0)"/>
<path style="fill:none;stroke-width:2;stroke-linecap:butt;stroke-linejoin:miter;stroke:rgb(0%,0%,0%);stroke-opacity:1;stroke-miterlimit:4;" d="M 223.999764 477.000342 L 209.999585 461.000285 L 202.500301 445.500456 L 202.500301 429.999593 L 184.500366 459.999829 L 168.000081 481.99952 L 152.000024 477.999764 L 135.999967 463.999585 L 120.500138 447.999528 L 104.500081 438.500366 L 88.500024 424.500187 L 72.499967 408.50013 L 56.49991 390.500195 L 41.000081 364.499715 L 25.000024 330.499723 " transform="matrix(3.779528,0,0,3.779528,0,0)"/>
<path style="fill:none;stroke-width:2;stroke-linecap:butt;stroke-linejoin:miter;stroke:rgb(0%,0%,0%);stroke-opacity:1;stroke-miterlimit:4;" d="M 32.999536 338.000041 L 48.999593 369.499927 L 64.99965 391.499618 L 80.999707 409.99978 L 96.999764 424.500187 L 112.999821 436.500488 " transform="matrix(3.779528,0,0,3.779528,0,0)"/>
<path style="fill:none;stroke-width:2;stroke-linecap:butt;stroke-linejoin:miter;stroke:rgb(0%,0%,0%);stroke-opacity:1;stroke-miterlimit:4;" d="M 127 456.000073 L 143.000057 477.499536 L 159.000114 484.999854 L 175.000171 490.999487 L 191.000228 493.000399 L 206.500057 499.000033 L 223.000342 500.99991 L 239.000399 500.99991 L 255.000456 501.500138 L 271.000513 499.50026 " transform="matrix(3.779528,0,0,3.779528,0,0)"/>
<path style="fill:none;stroke-width:2;stroke-linecap:butt;stroke-linejoin:miter;stroke:rgb(0%,0%,0%);stroke-opacity:1;stroke-miterlimit:4;" d="M 180.999805 490.500293 L 182.999683 474.500236 L 191.000228 458.500179 L 196.499634 442.500122 " transform="matrix(3.779528,0,0,3.779528,0,0)"/>
<path style="fill:none;stroke-width:2;stroke-linecap:butt;stroke-linejoin:miter;stroke:rgb(0%,0%,0%);stroke-opacity:1;stroke-miterlimit:4;" d="M 196.499634 408.50013 L 198.000317 393.000301 L 200.500423 377.000244 L 192.499878 348.999886 L 184.999561 332.999829 L 164.999748 316.999772 L 155.000358 306.500155 L 159.000114 286.000114 L 145.500163 269.499829 L 141.500407 252.999544 L 147.500041 236.500293 L 145.500163 246.000488 " transform="matrix(3.779528,0,0,3.779528,0,0)"/>
<path style="fill:none;stroke-width:2;stroke-linecap:butt;stroke-linejoin:miter;stroke:rgb(0%,0%,0%);stroke-opacity:1;stroke-miterlimit:4;" d="M 141.999601 244.499805 L 157.999658 234.000187 L 173.499487 246.499683 L 189.499544 264.499618 L 205.999829 268.500407 L 222.500114 272.500163 L 238.500171 272.500163 L 254.500228 273.999813 L 270.500285 275.999691 L 286.500342 271.499707 L 302.500399 271.499707 L 318.500456 275.500496 L 334.500513 280.00048 " transform="matrix(3.779528,0,0,3.779528,0,0)"/>
<path style="fill:none;stroke-width:2;stroke-linecap:butt;stroke-linejoin:miter;stroke:rgb(0%,0%,0%);stroke-opacity:1;stroke-miterlimit:4;" d="M 348.499658 255.49965 L 364.499715 255.999878 " transform="matrix(3.779528,0,0,3.779528,0,0)"/>
<path style="fill:none;stroke-width:2;stroke-linecap:butt;stroke-linejoin:miter;stroke:rgb(0%,0%,0%);stroke-opacity:1;stroke-miterlimit:4;" d="M 358.500081 260.499862 L 362.499837 276.499919 L 356.500203 298.499609 L 334.500513 310.49991 L 338.500269 310.49991 " transform="matrix(3.779528,0,0,3.779528,0,0)"/>
<path style="fill:none;stroke-width:2;stroke-linecap:butt;stroke-linejoin:miter;stroke:rgb(0%,0%,0%);stroke-opacity:1;stroke-miterlimit:4;" d="M 361.999609 297.500187 L 345.999552 311.000138 L 329.500301 317.5 L 313.000016 309.500488 L 297.500187 303.499821 L 281.50013 299.500065 L 269.499829 313.500244 L 253.499772 317.5 L 237.499715 316.00035 L 221.499658 309.999683 L 197.50009 303.499821 L 181.500033 311.500366 L 166.000203 325.499512 L 150.000146 349.500114 L 142.499829 357.499626 L 141.000179 341.499569 L 134.999512 334.000285 L 119.000488 334.000285 L 103.000431 328.499845 " transform="matrix(3.779528,0,0,3.779528,0,0)"/>
<path style="fill:none;stroke-width:2;stroke-linecap:butt;stroke-linejoin:miter;stroke:rgb(0%,0%,0%);stroke-opacity:1;stroke-miterlimit:4;" d="M 105.499504 332.000407 L 121.499561 338.000041 L 135.49974 339.999919 L 134.999512 355.999976 L 132.500439 371.499805 L 146.000391 386.000212 L 151.499797 402.000269 L 159.500342 418.49952 " transform="matrix(3.779528,0,0,3.779528,0,0)"/>
<path style="fill:none;stroke-width:2;stroke-linecap:butt;stroke-linejoin:miter;stroke:rgb(0%,0%,0%);stroke-opacity:1;stroke-miterlimit:4;" d="M 155.99978 422.500309 L 148.000269 406.500252 L 141.999601 390.500195 L 139.999723 374.500138 L 147.500041 359.000309 L 153.499674 343.000252 L 162.99987 327.000195 L 184.999561 310.49991 L 209.000163 294.499854 L 181.500033 304.000049 L 165.499976 309.500488 L 133.499862 313.500244 " transform="matrix(3.779528,0,0,3.779528,0,0)"/>
<path style="fill:none;stroke-width:2;stroke-linecap:butt;stroke-linejoin:miter;stroke:rgb(0%,0%,0%);stroke-opacity:1;stroke-miterlimit:4;" d="M 130.999756 309.500488 L 146.999813 305.499699 " transform="matrix(3.779528,0,0,3.779528,0,0)"/>
<path style="fill:none;stroke-width:2;stroke-linecap:butt;stroke-linejoin:miter;stroke:rgb(0%,0%,0%);stroke-opacity:1;stroke-miterlimit:4;" d="M 149.499919 325.000317 L 133.499862 325.000317 " transform="matrix(3.779528,0,0,3.779528,0,0)"/>
<path style="fill:none;stroke-width:2;stroke-linecap:butt;stroke-linejoin:miter;stroke:rgb(0%,0%,0%);stroke-opacity:1;stroke-miterlimit:4;" d="M 132.000212 321.499756 L 148.000269 319.499878 L 164.000326 316.999772 L 191.99965 336.999585 " transform="matrix(3.779528,0,0,3.779528,0,0)"/>
<path style="fill:none;stroke-width:2;stroke-linecap:butt;stroke-linejoin:miter;stroke:rgb(0%,0%,0%);stroke-opacity:1;stroke-miterlimit:4;" d="M 196.000439 336.500391 L 180.000382 318.000228 " transform="matrix(3.779528,0,0,3.779528,0,0)"/>
<path style="fill:none;stroke-width:2;stroke-linecap:butt;stroke-linejoin:miter;stroke:rgb(0%,0%,0%);stroke-opacity:1;stroke-miterlimit:4;" d="M 212.000496 303.499821 L 207.500513 287.999992 L 191.500456 286.000114 L 175.500399 282.000358 " transform="matrix(3.779528,0,0,3.779528,0,0)"/>
<path style="fill:none;stroke-width:2;stroke-linecap:butt;stroke-linejoin:miter;stroke:rgb(0%,0%,0%);stroke-opacity:1;stroke-miterlimit:4;" d="M 175.000171 268.500407 L 159.000114 276.499919 " transform="matrix(3.779528,0,0,3.779528,0,0)"/>
<path style="fill:none;stroke-width:2;stroke-linecap:butt;stroke-linejoin:miter;stroke:rgb(0%,0%,0%);stroke-opacity:1;stroke-miterlimit:4;" d="M 155.499552 280.999902 L 171.499609 279.000024 L 175.500399 287.999992 L 191.500456 292.499976 L 207.500513 292.499976 L 223.499536 305.000505 L 239.999821 312.499788 L 255.999878 312.499788 " transform="matrix(3.779528,0,0,3.779528,0,0)"/>
<path style="fill:none;stroke-width:2;stroke-linecap:butt;stroke-linejoin:miter;stroke:rgb(0%,0%,0%);stroke-opacity:1;stroke-miterlimit:4;" d="M 254.500228 284.000236 L 266.999723 281.50013 L 259.000212 259.500439 L 289.499642 257.499528 L 309.00026 241.500505 L 318.99965 225.999642 L 318.99965 210.499813 L 320.500334 194.999984 L 324.50009 178.999927 L 325.99974 163.500098 L 313.500244 146.999813 L 300.999715 137.000423 L 307.000382 121.000366 L 296.499731 128.49965 L 280.00048 143.000057 " transform="matrix(3.779528,0,0,3.779528,0,0)"/>
<path style="fill:none;stroke-width:2;stroke-linecap:butt;stroke-linejoin:miter;stroke:rgb(0%,0%,0%);stroke-opacity:1;stroke-miterlimit:4;" d="M 277.500374 146.499585 L 293.500431 148.500496 " transform="matrix(3.779528,0,0,3.779528,0,0)"/>
<path style="fill:none;stroke-width:2;stroke-linecap:butt;stroke-linejoin:miter;stroke:rgb(0%,0%,0%);stroke-opacity:1;stroke-miterlimit:4;" d="M 311.500366 139.000301 L 327.500423 158.499886 L 339.499691 168.999504 L 333.500057 184.999561 L 329.999495 200.999618 L 325.99974 216.999674 " transform="matrix(3.779528,0,0,3.779528,0,0)"/>
<path style="fill:none;stroke-width:2;stroke-linecap:butt;stroke-linejoin:miter;stroke:rgb(0%,0%,0%);stroke-opacity:1;stroke-miterlimit:4;" d="M 347.500236 202.000073 L 349.500114 185.499788 L 350.000342 179.500155 " transform="matrix(3.779528,0,0,3.779528,0,0)"/>
<path style="fill:none;stroke-width:2;stroke-linecap:butt;stroke-linejoin:miter;stroke:rgb(0%,0%,0%);stroke-opacity:1;stroke-miterlimit:4;" d="M 339.499691 177.500277 L 339.499691 179.500155 L 331.500179 211.500269 L 327.999618 227.500326 " transform="matrix(3.779528,0,0,3.779528,0,0)"/>
<path style="fill:none;stroke-width:2;stroke-linecap:butt;stroke-linejoin:miter;stroke:rgb(0%,0%,0%);stroke-opacity:1;stroke-miterlimit:4;" d="M 345.500358 220.000008 L 349.500114 220.000008 L 355.999976 204.500179 L 357.999854 188.500122 L 352.00022 171.999837 L 334.000285 179.500155 " transform="matrix(3.779528,0,0,3.779528,0,0)"/>
<path style="fill:none;stroke-width:2;stroke-linecap:butt;stroke-linejoin:miter;stroke:rgb(0%,0%,0%);stroke-opacity:1;stroke-miterlimit:4;" d="M 291.999748 221.999886 L 298.000415 212.499691 L 299.500065 198.99974 L 299.500065 182.999683 L 286.000114 177.000049 L 270.000057 188.500122 " transform="matrix(3.779528,0,0,3.779528,0,0)"/>
<path style="fill:none;stroke-width:2;stroke-linecap:butt;stroke-linejoin:miter;stroke:rgb(0%,0%,0%);stroke-opacity:1;stroke-miterlimit:4;" d="M 268.000179 178.999927 L 284.000236 168.999504 L 300.499487 180.999805 L 287.999992 193.000106 L 284.000236 212.999919 L 289.499642 228.499748 L 299.500065 226.49987 " transform="matrix(3.779528,0,0,3.779528,0,0)"/>
<path style="fill:none;stroke-width:2;stroke-linecap:butt;stroke-linejoin:miter;stroke:rgb(0%,0%,0%);stroke-opacity:1;stroke-miterlimit:4;" d="M 302.999593 231.500081 L 286.999536 223.499536 L 266.499495 252.999544 L 250.500472 261.00009 L 272.500163 243.000155 L 273.999813 228.999976 L 257.999756 239.499593 L 241.500505 239.999821 L 225.00022 229.500203 " transform="matrix(3.779528,0,0,3.779528,0,0)"/>
<path style="fill:none;stroke-width:2;stroke-linecap:butt;stroke-linejoin:miter;stroke:rgb(0%,0%,0%);stroke-opacity:1;stroke-miterlimit:4;" d="M 221.999886 232.499504 L 237.999943 246.000488 " transform="matrix(3.779528,0,0,3.779528,0,0)"/>
<path style="fill:none;stroke-width:2;stroke-linecap:butt;stroke-linejoin:miter;stroke:rgb(0%,0%,0%);stroke-opacity:1;stroke-miterlimit:4;" d="M 246.000488 226.49987 L 232.000309 220.500236 L 231.500081 204.500179 L 225.500448 196.499634 L 219.49978 188.500122 L 230.999854 182.500488 L 216.50048 172.500065 L 200.500423 178.999927 " transform="matrix(3.779528,0,0,3.779528,0,0)"/>
<path style="fill:none;stroke-width:2;stroke-linecap:butt;stroke-linejoin:miter;stroke:rgb(0%,0%,0%);stroke-opacity:1;stroke-miterlimit:4;" d="M 196.000439 180.999805 L 212.000496 166.999626 L 228.499748 175.000171 " transform="matrix(3.779528,0,0,3.779528,0,0)"/>
<path style="fill:none;stroke-width:2;stroke-linecap:butt;stroke-linejoin:miter;stroke:rgb(0%,0%,0%);stroke-opacity:1;stroke-miterlimit:4;" d="M 223.000342 177.500277 L 207.000285 180.000382 " transform="matrix(3.779528,0,0,3.779528,0,0)"/>
<path style="fill:none;stroke-width:2;stroke-linecap:butt;stroke-linejoin:miter;stroke:rgb(0%,0%,0%);stroke-opacity:1;stroke-miterlimit:4;" d="M 207.000285 172.500065 L 196.999862 174.499943 L 194.999984 189.999772 L 194.999984 205.499601 L 211.000041 185.499788 L 211.000041 198.99974 L 231.500081 202.999495 L 248.000366 205.499601 L 252.000122 207.500513 L 259.999634 209.500391 " transform="matrix(3.779528,0,0,3.779528,0,0)"/>
<path style="fill:none;stroke-width:2;stroke-linecap:butt;stroke-linejoin:miter;stroke:rgb(0%,0%,0%);stroke-opacity:1;stroke-miterlimit:4;" d="M 245.000033 220.500236 L 238.500171 204.500179 " transform="matrix(3.779528,0,0,3.779528,0,0)"/>
<path style="fill:none;stroke-width:2;stroke-linecap:butt;stroke-linejoin:miter;stroke:rgb(0%,0%,0%);stroke-opacity:1;stroke-miterlimit:4;" d="M 214.000374 211.500269 L 198.000317 205.499601 " transform="matrix(3.779528,0,0,3.779528,0,0)"/>
<path style="fill:none;stroke-width:2;stroke-linecap:butt;stroke-linejoin:miter;stroke:rgb(0%,0%,0%);stroke-opacity:1;stroke-miterlimit:4;" d="M 194.999984 210.499813 L 211.000041 216.50048 L 230.999854 236.500293 L 231.500081 250.500472 " transform="matrix(3.779528,0,0,3.779528,0,0)"/>
<path style="fill:none;stroke-width:2;stroke-linecap:butt;stroke-linejoin:miter;stroke:rgb(0%,0%,0%);stroke-opacity:1;stroke-miterlimit:4;" d="M 203.999951 277.999569 L 187.999894 277.999569 L 167.499854 268.000179 L 151.499797 277.999569 " transform="matrix(3.779528,0,0,3.779528,0,0)"/>
<path style="fill:none;stroke-width:2;stroke-linecap:butt;stroke-linejoin:miter;stroke:rgb(0%,0%,0%);stroke-opacity:1;stroke-miterlimit:4;" d="M 152.000024 262.999967 L 168.000081 252.999544 " transform="matrix(3.779528,0,0,3.779528,0,0)"/>
<path style="fill:none;stroke-width:2;stroke-linecap:butt;stroke-linejoin:miter;stroke:rgb(0%,0%,0%);stroke-opacity:1;stroke-miterlimit:4;" d="M 168.000081 245.50026 L 152.000024 241.500505 " transform="matrix(3.779528,0,0,3.779528,0,0)"/>
<path style="fill:none;stroke-width:2;stroke-linecap:butt;stroke-linejoin:miter;stroke:rgb(0%,0%,0%);stroke-opacity:1;stroke-miterlimit:4;" d="M 150.500374 258.499984 L 168.500309 240.500049 L 172.500065 255.999878 L 160.499764 271.999935 L 172.500065 287.999992 L 178.499699 293.999626 L 193.999528 295.999504 L 178.000505 307.499577 L 189.999772 329.500301 L 200.000195 345.999552 " transform="matrix(3.779528,0,0,3.779528,0,0)"/>
<path style="fill:none;stroke-width:2;stroke-linecap:butt;stroke-linejoin:miter;stroke:rgb(0%,0%,0%);stroke-opacity:1;stroke-miterlimit:4;" d="M 205.499601 364.999943 L 205.499601 381 L 203.499723 397.500285 L 201.499845 413.500342 L 197.50009 429.999593 L 191.500456 445.99965 L 183.49991 461.999707 L 171.499609 477.499536 L 185.499788 499.50026 L 201.499845 504.000244 L 217.499902 508 L 250.000244 508 L 266.000301 506.000122 L 282.000358 502.499561 L 298.000415 498.499805 " transform="matrix(3.779528,0,0,3.779528,0,0)"/>
<path style="fill:none;stroke-width:2;stroke-linecap:butt;stroke-linejoin:miter;stroke:rgb(0%,0%,0%);stroke-opacity:1;stroke-miterlimit:4;" d="M 186.500244 422.000081 L 170.500187 419.499976 L 155.000358 403.499919 L 131.499984 373.99991 L 116.000155 375.999788 L 100.000098 354.000098 " transform="matrix(3.779528,0,0,3.779528,0,0)"/>
<path style="fill:none;stroke-width:2;stroke-linecap:butt;stroke-linejoin:miter;stroke:rgb(0%,0%,0%);stroke-opacity:1;stroke-miterlimit:4;" d="M 93.000008 351.499992 L 109.000065 377.500472 L 128.49965 379.999544 L 142.499829 389.999967 L 158.499886 422.000081 L 174.499943 427.999715 L 189.999772 425.999837 " transform="matrix(3.779528,0,0,3.779528,0,0)"/>
<path style="fill:none;stroke-width:2;stroke-linecap:butt;stroke-linejoin:miter;stroke:rgb(0%,0%,0%);stroke-opacity:1;stroke-miterlimit:4;" d="M 150.999569 301.499943 L 134.999512 302.000171 L 119.000488 302.000171 " transform="matrix(3.779528,0,0,3.779528,0,0)"/>
<path style="fill:none;stroke-width:2;stroke-linecap:butt;stroke-linejoin:miter;stroke:rgb(0%,0%,0%);stroke-opacity:1;stroke-miterlimit:4;" d="M 128.000456 282.99978 L 119.99991 298.999837 L 109.500293 300.999715 L 125.50035 286.999536 L 129.500106 280.999902 L 137.499618 298.999837 L 153.00048 298.499609 " transform="matrix(3.779528,0,0,3.779528,0,0)"/>
<path style="fill:none;stroke-width:2;stroke-linecap:butt;stroke-linejoin:miter;stroke:rgb(0%,0%,0%);stroke-opacity:1;stroke-miterlimit:4;" d="M 132.999634 276.499919 L 128.49965 292.499976 L 130.499528 314.000472 L 142.499829 332.000407 L 148.000269 342.500024 L 141.999601 356.500203 " transform="matrix(3.779528,0,0,3.779528,0,0)"/>
<path style="fill:none;stroke-width:2;stroke-linecap:butt;stroke-linejoin:miter;stroke:rgb(0%,0%,0%);stroke-opacity:1;stroke-miterlimit:4;" d="M 91.00013 331.500179 L 106.499959 295.999504 L 123.000244 275.999691 L 110.999943 291.999748 L 100.99952 307.999805 L 94.999886 324.50009 L 90.499902 340.500146 L 92.49978 356.500203 L 100.500326 373.000488 L 112.499593 388.999512 L 114.500505 404.999569 L 116.500382 420.999626 L 120.500138 437.49991 " transform="matrix(3.779528,0,0,3.779528,0,0)"/>
<path style="fill:none;stroke-width:2;stroke-linecap:butt;stroke-linejoin:miter;stroke:rgb(0%,0%,0%);stroke-opacity:1;stroke-miterlimit:4;" d="M 124.499894 280.499674 L 112.499593 296.499731 L 104.500081 312.499788 L 98.500448 328.499845 L 96.499536 344.499902 L 98.500448 360.499959 L 114.000277 375.999788 L 118.000033 395.999601 L 121.999788 411.500464 L 123.999666 427.999715 L 123.999666 443.999772 L 133.499862 459.999829 L 146.999813 475.499658 L 177.000049 483.500203 L 194.999984 449.500212 L 214.999797 457.999951 L 230.999854 474.000008 L 246.99991 484.000431 L 263.500195 488.000187 L 279.500252 486.000309 L 295.500309 472.00013 " transform="matrix(3.779528,0,0,3.779528,0,0)"/>
<path style="fill:none;stroke-width:2;stroke-linecap:butt;stroke-linejoin:miter;stroke:rgb(0%,0%,0%);stroke-opacity:1;stroke-miterlimit:4;" d="M 366.999821 406.000024 L 350.999764 366.000399 L 332.499601 357.999854 L 320.500334 367.500049 L 323.499634 335.499935 L 320.999528 319.499878 L 296.999959 304.000049 " transform="matrix(3.779528,0,0,3.779528,0,0)"/>
<path style="fill:none;stroke-width:2;stroke-linecap:butt;stroke-linejoin:miter;stroke:rgb(0%,0%,0%);stroke-opacity:1;stroke-miterlimit:4;" d="M 273.499585 308.500033 L 269.499829 304.500277 L 277.500374 288.50022 " transform="matrix(3.779528,0,0,3.779528,0,0)"/>
<path style="fill:none;stroke-width:2;stroke-linecap:butt;stroke-linejoin:miter;stroke:rgb(0%,0%,0%);stroke-opacity:1;stroke-miterlimit:4;" d="M 303.499821 248.999788 L 287.499764 261.00009 L 271.499707 264.499618 L 255.49965 268.500407 L 239.499593 266.499495 L 223.000342 260.499862 L 206.500057 250.500472 L 190.5 230.499626 L 174.499943 225.00022 L 157.999658 220.500236 L 165.499976 210.499813 L 160.999992 193.999528 L 155.000358 177.500277 L 153.00048 161.50022 " transform="matrix(3.779528,0,0,3.779528,0,0)"/>
<path style="fill:none;stroke-width:2;stroke-linecap:butt;stroke-linejoin:miter;stroke:rgb(0%,0%,0%);stroke-opacity:1;stroke-miterlimit:4;" d="M 149.499919 157.999658 L 173.000293 164.000326 L 175.000171 179.500155 L 173.000293 227.500326 L 189.00035 241.500505 L 204.500179 257.499528 " transform="matrix(3.779528,0,0,3.779528,0,0)"/>
<path style="fill:none;stroke-width:2;stroke-linecap:butt;stroke-linejoin:miter;stroke:rgb(0%,0%,0%);stroke-opacity:1;stroke-miterlimit:4;" d="M 163.500098 220.500236 L 157.000236 214.499569 L 157.000236 198.499512 L 153.499674 182.00026 L 149.499919 166.000203 " transform="matrix(3.779528,0,0,3.779528,0,0)"/>
<path style="fill:none;stroke-width:2;stroke-linecap:butt;stroke-linejoin:miter;stroke:rgb(0%,0%,0%);stroke-opacity:1;stroke-miterlimit:4;" d="M 139.499495 155.99978 L 141.500407 150.000146 L 157.500464 146.499585 L 163.500098 166.500431 L 168.000081 182.999683 L 171.999837 198.99974 L 169.999959 205.499601 " transform="matrix(3.779528,0,0,3.779528,0,0)"/>
<path style="fill:none;stroke-width:2;stroke-linecap:butt;stroke-linejoin:miter;stroke:rgb(0%,0%,0%);stroke-opacity:1;stroke-miterlimit:4;" d="M 177.500277 160.499764 L 181.500033 176.499821 L 185.499788 208.499935 L 183.49991 234.500415 L 195.500212 250.000244 L 220.000008 266.000301 " transform="matrix(3.779528,0,0,3.779528,0,0)"/>
<path style="fill:none;stroke-width:2;stroke-linecap:butt;stroke-linejoin:miter;stroke:rgb(0%,0%,0%);stroke-opacity:1;stroke-miterlimit:4;" d="M 196.499634 157.000236 L 212.499691 153.00048 L 234.500415 141.000179 L 250.500472 157.500464 L 266.999723 153.00048 L 282.99978 137.000423 L 298.999837 125.000122 L 314.999894 127 " transform="matrix(3.779528,0,0,3.779528,0,0)"/>
<path style="fill:none;stroke-width:2;stroke-linecap:butt;stroke-linejoin:miter;stroke:rgb(0%,0%,0%);stroke-opacity:1;stroke-miterlimit:4;" d="M 305.000505 110.499715 L 291.000326 128.49965 L 277.000146 144.000513 L 277.000146 168.000081 L 268.500407 184.000138 L 268.500407 199.499967 L 274.500041 197.50009 L 290.500098 202.000073 L 294.499854 209.999585 L 311.000138 205.999829 " transform="matrix(3.779528,0,0,3.779528,0,0)"/>
<path style="fill:none;stroke-width:2;stroke-linecap:butt;stroke-linejoin:miter;stroke:rgb(0%,0%,0%);stroke-opacity:1;stroke-miterlimit:4;" d="M 303.499821 153.00048 L 293.500431 130.999756 L 315.500122 123.500472 L 323.499634 107.500415 L 311.999561 91.999552 L 295.999504 78.499601 L 270.000057 76.499723 L 254 82.500391 " transform="matrix(3.779528,0,0,3.779528,0,0)"/>
<path style="fill:none;stroke-width:2;stroke-linecap:butt;stroke-linejoin:miter;stroke:rgb(0%,0%,0%);stroke-opacity:1;stroke-miterlimit:4;" d="M 243.500382 79.500057 L 195.500212 83.499813 L 191.500456 91.500358 L 183.49991 103.000431 L 171.499609 114.999699 L 185.499788 102.500203 L 202.000073 88.500024 L 218.500358 82.000163 L 205.000407 101.999976 L 221.499658 103.999854 L 237.999943 103.999854 L 254 100.000098 L 269.499829 91.999552 L 284.999658 91.500358 L 300.499487 89.50048 L 318.500456 94.000464 L 341.999797 103.499626 L 345.999552 129.500106 L 355.999976 130.999756 L 368.000277 137.499618 " transform="matrix(3.779528,0,0,3.779528,0,0)"/>
<path style="fill:none;stroke-width:2;stroke-linecap:butt;stroke-linejoin:miter;stroke:rgb(0%,0%,0%);stroke-opacity:1;stroke-miterlimit:4;" d="M 443.999772 204.500179 L 459.999829 220.500236 " transform="matrix(3.779528,0,0,3.779528,0,0)"/>
<path style="fill:none;stroke-width:2;stroke-linecap:butt;stroke-linejoin:miter;stroke:rgb(0%,0%,0%);stroke-opacity:1;stroke-miterlimit:4;" d="M 359.499504 262.999967 L 363.500293 273.000391 " transform="matrix(3.779528,0,0,3.779528,0,0)"/>
<path style="fill:none;stroke-width:2;stroke-linecap:butt;stroke-linejoin:miter;stroke:rgb(0%,0%,0%);stroke-opacity:1;stroke-miterlimit:4;" d="M 354.000098 252.000122 L 373.99991 268.000179 L 372.000033 284.000236 L 359.999731 300.499487 L 332.000407 316.499544 L 334.000285 332.499601 L 341.499569 348.499658 L 341.000374 362.499837 L 347.000008 378.499894 L 355.499748 393.999723 " transform="matrix(3.779528,0,0,3.779528,0,0)"/>
<path style="fill:none;stroke-width:2;stroke-linecap:butt;stroke-linejoin:miter;stroke:rgb(0%,0%,0%);stroke-opacity:1;stroke-miterlimit:4;" d="M 345.00013 282.499552 L 347.500236 266.499495 L 349.500114 250.500472 " transform="matrix(3.779528,0,0,3.779528,0,0)"/>
<path style="fill:none;stroke-width:2;stroke-linecap:butt;stroke-linejoin:miter;stroke:rgb(0%,0%,0%);stroke-opacity:1;stroke-miterlimit:4;" d="M 324.50009 198.000317 L 328.499845 182.00026 L 332.000407 166.000203 L 345.999552 153.999902 L 339.999919 137.499618 L 339.999919 121.499561 L 336.000163 105.000309 L 323.499634 89.50048 L 300.999715 73.500423 L 265.500073 71.499512 L 249.500016 77.500179 L 233.499959 81.499935 L 217.499902 87.499569 L 201.499845 94.000464 " transform="matrix(3.779528,0,0,3.779528,0,0)"/>
<path style="fill:none;stroke-width:2;stroke-linecap:butt;stroke-linejoin:miter;stroke:rgb(0%,0%,0%);stroke-opacity:1;stroke-miterlimit:4;" d="M 184.500366 98.00022 L 186.500244 87.999797 L 202.500301 79.500057 L 218.00013 73.000195 L 234.000187 71.000317 L 249.500016 69.000439 L 265.500073 66.500334 L 291.000326 59.000016 L 316.999772 75.000073 L 327.500423 78.999829 L 343.50048 95.500114 L 343.50048 109.500293 L 351.499992 125.50035 L 347.500236 153.499674 L 352.00022 159.500342 L 368.000277 149.499919 " transform="matrix(3.779528,0,0,3.779528,0,0)"/>
<path style="fill:none;stroke-width:2;stroke-linecap:butt;stroke-linejoin:miter;stroke:rgb(0%,0%,0%);stroke-opacity:1;stroke-miterlimit:4;" d="M 308.500033 84.000041 L 292.499976 73.500423 L 276.499919 67.499756 " transform="matrix(3.779528,0,0,3.779528,0,0)"/>
<path style="fill:none;stroke-width:2;stroke-linecap:butt;stroke-linejoin:miter;stroke:rgb(0%,0%,0%);stroke-opacity:1;stroke-miterlimit:4;" d="M 266.499495 93.000008 L 248.499561 110.499715 L 220.500236 126.499772 L 184.500366 142.499829 L 176.499821 144.499707 L 172.500065 160.499764 L 173.000293 176.499821 L 177.000049 194.499756 L 193.500334 209.999585 L 225.00022 221.999886 L 223.000342 238.500171 L 232.999731 254 L 245.000033 255.999878 L 246.99991 261.500317 L 262.49974 251.499894 L 261.999512 247.500138 " transform="matrix(3.779528,0,0,3.779528,0,0)"/>
<path style="fill:none;stroke-width:2;stroke-linecap:butt;stroke-linejoin:miter;stroke:rgb(0%,0%,0%);stroke-opacity:1;stroke-miterlimit:4;" d="M 194.999984 153.00048 L 211.000041 146.999813 L 232.999731 137.000423 L 248.499561 126.499772 L 264.000423 119.99991 L 280.00048 121.999788 L 295.999504 117.499805 " transform="matrix(3.779528,0,0,3.779528,0,0)"/>
<path style="fill:none;stroke-width:2;stroke-linecap:butt;stroke-linejoin:miter;stroke:rgb(0%,0%,0%);stroke-opacity:1;stroke-miterlimit:4;" d="M 259.999634 119.99991 L 229.500203 132.000212 L 246.000488 120.500138 " transform="matrix(3.779528,0,0,3.779528,0,0)"/>
<path style="fill:none;stroke-width:2;stroke-linecap:butt;stroke-linejoin:miter;stroke:rgb(0%,0%,0%);stroke-opacity:1;stroke-miterlimit:4;" d="M 255.000456 109.000065 L 240.500049 125.000122 L 232.999731 143.000057 L 238.500171 159.000114 L 234.500415 152.500252 L 250.000244 162.499642 L 272.500163 154.50013 L 289.000448 152.000024 L 305.499699 157.999658 " transform="matrix(3.779528,0,0,3.779528,0,0)"/>
<path style="fill:none;stroke-width:2;stroke-linecap:butt;stroke-linejoin:miter;stroke:rgb(0%,0%,0%);stroke-opacity:1;stroke-miterlimit:4;" d="M 253.499772 105.000309 L 237.499715 117.499805 L 221.499658 125.50035 L 205.499601 131.499984 L 189.999772 137.499618 L 187.999894 132.000212 L 188.500122 119.99991 L 173.000293 142.499829 L 184.999561 128.49965 L 185.499788 136.500195 " transform="matrix(3.779528,0,0,3.779528,0,0)"/>
<path style="fill:none;stroke-width:2;stroke-linecap:butt;stroke-linejoin:miter;stroke:rgb(0%,0%,0%);stroke-opacity:1;stroke-miterlimit:4;" d="M 150.000146 119.99991 L 165.499976 107.999609 L 180.999805 81.499935 L 196.999862 73.500423 L 212.999919 67.499756 L 228.999976 66.000106 L 261.00009 62.00035 L 277.500374 62.00035 L 293.500431 67.999984 L 309.500488 78.000407 L 325.499512 89.999674 " transform="matrix(3.779528,0,0,3.779528,0,0)"/>
<path style="fill:none;stroke-width:2;stroke-linecap:butt;stroke-linejoin:miter;stroke:rgb(0%,0%,0%);stroke-opacity:1;stroke-miterlimit:4;" d="M 341.999797 93.000008 L 325.99974 82.500391 L 318.000228 74.499845 L 311.999561 60.000472 L 296.499731 51.999927 L 270.500285 44.000415 L 254.500228 41.999504 L 240.500049 53.999805 L 225.00022 55.500488 L 209.000163 59.500244 L 192.499878 65.499878 L 176.499821 71.99974 L 159.999536 89.999674 L 144.000513 125.999544 L 130.000334 128.000456 L 132.000212 135.999967 L 149.499919 119.499683 L 153.499674 103.499626 L 161.50022 87.999797 L 175.999593 72.499967 " transform="matrix(3.779528,0,0,3.779528,0,0)"/>
<path style="fill:none;stroke-width:2;stroke-linecap:butt;stroke-linejoin:miter;stroke:rgb(0%,0%,0%);stroke-opacity:1;stroke-miterlimit:4;" d="M 180.000382 64.500456 L 196.000439 58.499788 L 212.499691 52.500155 L 228.499748 51.000505 L 244.499805 48.999593 L 250.500472 37.000326 " transform="matrix(3.779528,0,0,3.779528,0,0)"/>
<path style="fill:none;stroke-width:2;stroke-linecap:butt;stroke-linejoin:miter;stroke:rgb(0%,0%,0%);stroke-opacity:1;stroke-miterlimit:4;" d="M 209.999585 46.999715 L 186.000016 63.5 L 166.000203 73.500423 L 152.000024 91.500358 L 144.000513 107.500415 L 148.000269 87.499569 L 164.000326 67.499756 L 180.499577 53.499577 L 196.499634 43.500187 L 212.999919 37.49952 L 228.999976 35.99987 L 245.000033 33.499764 L 261.00009 33.499764 L 277.000146 37.999748 L 293.000203 44.499609 L 309.00026 52.500155 L 325.000317 62.499544 L 340.500146 82.500391 L 356.500203 102.500203 L 372.50026 132.500439 " transform="matrix(3.779528,0,0,3.779528,0,0)"/>
<path style="fill:none;stroke-width:2;stroke-linecap:butt;stroke-linejoin:miter;stroke:rgb(0%,0%,0%);stroke-opacity:1;stroke-miterlimit:4;" d="M 350.999764 209.999585 L 342.500024 230.000431 L 327.000195 232.000309 L 311.000138 248.000366 L 295.000081 261.999512 L 279.000024 268.000179 L 309.00026 250.000244 L 320.999528 234.000187 L 332.999829 227.99952 L 336.999585 212.000496 L 341.000374 196.000439 L 347.000008 180.000382 L 348.999886 164.000326 L 376.500016 148.000269 L 376.500016 139.499495 L 366.499593 135.999967 L 363.999487 119.99991 L 361.500415 116.000155 L 353.49987 108.499837 L 347.500236 92.49978 L 333.500057 76.499723 L 323.499634 64.500456 L 297.500187 48.500399 L 271.499707 51.000505 L 255.999878 46.999715 L 240.500049 46.999715 L 224.499992 46.499487 L 208.499935 50.000049 L 191.99965 55.999683 L 175.999593 63.5 L 159.999536 79.500057 L 144.499707 105.000309 " transform="matrix(3.779528,0,0,3.779528,0,0)"/>
<path style="fill:none;stroke-width:2;stroke-linecap:butt;stroke-linejoin:miter;stroke:rgb(0%,0%,0%);stroke-opacity:1;stroke-miterlimit:4;" d="M 218.00013 65.499878 L 182.00026 81.499935 L 171.999837 98.00022 L 164.000326 114.000277 L 166.000203 121.499561 L 174.499943 121.499561 L 157.999658 127.500228 L 168.000081 143.500285 L 155.99978 147.500041 L 152.500252 159.500342 L 160.999992 175.500399 L 166.500431 191.99965 L 173.000293 207.999707 L 175.000171 223.999764 L 189.00035 230.000431 L 198.99974 246.000488 L 225.00022 262.49974 L 218.500358 280.499674 L 226.49987 280.499674 L 242.499927 286.999536 L 258.499984 291.000326 L 284.500464 279.000024 L 300.499487 277.000146 L 316.499544 281.50013 L 332.999829 286.999536 L 354.99952 289.000448 " transform="matrix(3.779528,0,0,3.779528,0,0)"/>
<path style="fill:none;stroke-width:2;stroke-linecap:butt;stroke-linejoin:miter;stroke:rgb(0%,0%,0%);stroke-opacity:1;stroke-miterlimit:4;" d="M 430.499821 141.000179 L 413.999536 109.500293 L 398.000513 85.999919 L 382.000456 67.999984 L 366.000399 54.500033 L 350.000342 42.499731 L 334.000285 33.999992 L 318.000228 26.00048 L 302.000171 19.999813 L 286.000114 15.499829 L 270.000057 14.000179 L 254 14.000179 L 238.500171 14.500407 L 223.000342 17.000513 L 207.000285 19.000391 L 191.000228 23.000146 L 175.000171 28.499552 L 158.499886 36.500098 L 142.499829 46.000293 L 126.499772 57.500366 L 110.499715 73.000195 L 94.000464 91.500358 L 78.000407 112.000399 L 62.00035 137.999845 L 46.000293 170.500187 L 30.000236 212.499691 " transform="matrix(3.779528,0,0,3.779528,0,0)"/>
<path style="fill:none;stroke-width:2;stroke-linecap:butt;stroke-linejoin:miter;stroke:rgb(0%,0%,0%);stroke-opacity:1;stroke-miterlimit:4;" d="M 30.999658 194.499756 L 46.999715 158.499886 L 62.999772 128.49965 L 78.999829 101.999976 L 94.999886 82.000163 L 110.999943 65.499878 L 127 50.000049 L 143.000057 37.999748 L 159.000114 30.500464 L 175.500399 22.499919 L 191.500456 18.500163 L 207.000285 12.499495 L 223.000342 4.499984 L 232.499504 3.999756 L 236.000065 10.000423 L 252.000122 7.500317 L 267.499951 9.500195 L 277.500374 9.500195 L 293.500431 11.500073 L 309.500488 17.000513 L 325.499512 23.000146 L 341.499569 30.999658 L 357.999854 39.000203 L 373.99991 51.499699 L 390.500195 67.999984 L 407.00048 87.999797 L 422.999504 112.000399 L 438.999561 146.000391 " transform="matrix(3.779528,0,0,3.779528,0,0)"/>
<path style="fill:none;stroke-width:2;stroke-linecap:butt;stroke-linejoin:miter;stroke:rgb(0%,0%,0%);stroke-opacity:1;stroke-miterlimit:4;" d="M 373.99991 280.499674 L 354.000098 300.499487 L 348.000464 289.99987 L 332.000407 298.000415 L 316.00035 305.999927 L 300.000293 297.500187 L 286.000114 293.999626 L 286.000114 289.99987 L 282.499552 282.499552 L 257.000334 284.999658 L 241.000277 280.999902 L 225.00022 279.000024 L 205.000407 274.500041 L 188.500122 270.500285 L 170.500187 261.999512 L 154.50013 269.499829 L 150.500374 264.999845 L 146.000391 253.499772 L 166.000203 248.000366 L 166.000203 230.000431 L 153.999902 214.499569 L 148.000269 198.499512 L 144.000513 182.00026 L 146.000391 166.000203 L 130.000334 149.499919 L 125.999544 133.499862 L 134.00009 118.000033 L 139.499495 101.499748 L 149.499919 85.499691 L 161.50022 69.499634 L 180.000382 53.499577 L 207.999707 37.49952 " transform="matrix(3.779528,0,0,3.779528,0,0)"/>
<path style="fill:none;stroke-width:2;stroke-linecap:butt;stroke-linejoin:miter;stroke:rgb(0%,0%,0%);stroke-opacity:1;stroke-miterlimit:4;" d="M 194.999984 19.499585 L 157.000236 35.499642 L 133.499862 51.499699 L 115.499927 67.499756 L 100.000098 82.999585 L 87.999797 99.49987 L 75.999495 115.499927 L 66.000106 132.000212 L 57.999561 148.000269 L 50.000049 164.49952 L 41.999504 180.499577 L 35.99987 196.999862 L 29.500008 212.999919 L 25.500252 228.499748 L 23.500374 244.499805 L 21.500496 259.999634 L 21.999691 275.999691 L 21.500496 291.999748 L 23.999569 307.999805 L 26.00048 323.999862 L 32.000114 339.999919 L 39.999626 356.500203 L 48.000171 372.000033 L 59.500244 388.00009 L 73.500423 403.499919 L 89.50048 418.999748 L 109.500293 435.500033 " transform="matrix(3.779528,0,0,3.779528,0,0)"/>
<path style="fill:none;stroke-width:2;stroke-linecap:butt;stroke-linejoin:miter;stroke:rgb(0%,0%,0%);stroke-opacity:1;stroke-miterlimit:4;" d="M 191.500456 500.99991 L 153.499674 484.999854 L 131.499984 469.500024 L 123.500472 453.499967 L 101.499748 437.49991 L 82.000163 421.499854 L 67.999984 406.000024 L 54.500033 389.999967 L 44.999837 374.500138 L 35.000448 358.500081 L 29.500008 342.500024 L 23.500374 326.499967 L 19.000391 310.49991 L 17.000513 293.999626 L 17.000513 261.500317 L 19.000391 246.000488 L 23.000146 230.000431 L 25.000024 214.499569 L 30.999658 198.499512 L 37.000326 182.500488 L 42.999959 166.500431 L 50.500277 150.000146 L 58.499788 134.00009 L 67.999984 117.499805 L 78.000407 101.499748 L 91.500358 85.499691 L 105.499504 69.499634 L 121.000366 53.499577 L 141.500407 37.999748 L 171.000415 21.999691 " transform="matrix(3.779528,0,0,3.779528,0,0)"/>
<path style="fill:none;stroke-width:2;stroke-linecap:butt;stroke-linejoin:miter;stroke:rgb(0%,0%,0%);stroke-opacity:1;stroke-miterlimit:4;" d="M 297.500187 19.000391 L 337.499813 35.000448 L 363.500293 51.000505 L 381.500228 67.499756 L 395.999601 84.000041 L 406.000024 100.500326 L 416.000448 116.500382 L 425.999837 132.500439 L 432.000505 148.500496 L 438.500366 164.49952 L 443.00035 180.499577 L 443.00035 196.499634 L 450.499634 212.499691 L 458.500179 228.499748 L 466.499691 260.499862 L 470.50048 275.999691 L 470.000252 291.999748 L 470.000252 323.999862 L 466.499691 339.999919 L 460.500057 355.999976 L 452.499512 371.499805 L 443.999772 386.999634 L 432.000505 402.999691 L 417.500098 418.999748 L 399.500163 434.499577 L 373.000488 450.999862 L 345.00013 466.999919 L 315.500122 484.999854 L 331.500179 479.500448 L 347.500236 473.49978 L 363.500293 465.500269 L 379.50035 455.499845 L 395.999601 445.500456 L 411.999658 431.500277 L 428.499943 415.50022 L 445.000228 395.999601 L 461.500513 370.000155 " transform="matrix(3.779528,0,0,3.779528,0,0)"/>
</g>
</svg>
