<?xml version="1.0" encoding="UTF-8"?>
<svg xmlns="http://www.w3.org/2000/svg" xmlns:xlink="http://www.w3.org/1999/xlink" width="1935.11811" height="1935.11811" viewBox="0 0 1935.11811 1935.11811" version="1.1">
<g id="surface1">
<path style="fill:none;stroke-width:2;stroke-linecap:butt;stroke-linejoin:miter;stroke:rgb(0%,0%,0%);stroke-opacity:1;stroke-miterlimit:4;" d="M 165.499976 14.500407 L 163.500098 30.500464 L 161.50022 46.499487 L 147.500041 44.499609 L 151.499797 37.000326 L 155.499552 41.000081 L 161.50022 46.999715 " transform="matrix(3.779528,0,0,3.779528,0,0)"/>
<path style="fill:none;stroke-width:2;stroke-linecap:butt;stroke-linejoin:miter;stroke:rgb(0%,0%,0%);stroke-opacity:1;stroke-miterlimit:4;" d="M 167.499854 67.499756 L 157.500464 83.499813 L 161.50022 97.499992 L 157.500464 112.999821 L 155.499552 128.999878 L 153.499674 144.499707 L 155.99978 160.499764 L 160.499764 178.000505 " transform="matrix(3.779528,0,0,3.779528,0,0)"/>
<path style="fill:none;stroke-width:2;stroke-linecap:butt;stroke-linejoin:miter;stroke:rgb(0%,0%,0%);stroke-opacity:1;stroke-miterlimit:4;" d="M 168.000081 166.000203 L 184.000138 178.499699 L 232.000309 178.499699 L 248.000366 178.000505 L 264.499618 175.500399 L 280.499674 175.500399 " transform="matrix(3.779528,0,0,3.779528,0,0)"/>
<path style="fill:none;stroke-width:2;stroke-linecap:butt;stroke-linejoin:miter;stroke:rgb(0%,0%,0%);stroke-opacity:1;stroke-miterlimit:4;" d="M 318.000228 149.499919 L 334.000285 159.500342 " transform="matrix(3.779528,0,0,3.779528,0,0)"/>
<path style="fill:none;stroke-width:2;stroke-linecap:butt;stroke-linejoin:miter;stroke:rgb(0%,0%,0%);stroke-opacity:1;stroke-miterlimit:4;" d="M 363.500293 140.499951 L 363.500293 125.000122 L 369.499927 108.499837 L 372.000033 102.500203 L 355.999976 106.499959 L 354.500326 124.499894 " transform="matrix(3.779528,0,0,3.779528,0,0)"/>
<path style="fill:none;stroke-width:2;stroke-linecap:butt;stroke-linejoin:miter;stroke:rgb(0%,0%,0%);stroke-opacity:1;stroke-miterlimit:4;" d="M 339.999919 123.999666 L 362.499837 105.999731 L 356.500203 121.999788 L 354.500326 137.999845 L 357.999854 153.999902 " transform="matrix(3.779528,0,0,3.779528,0,0)"/>
<path style="fill:none;stroke-width:2;stroke-linecap:butt;stroke-linejoin:miter;stroke:rgb(0%,0%,0%);stroke-opacity:1;stroke-miterlimit:4;" d="M 348.000464 153.999902 L 341.999797 138.500073 L 343.999674 120.500138 L 352.00022 103.999854 L 329.999495 101.499748 L 327.500423 109.500293 " transform="matrix(3.779528,0,0,3.779528,0,0)"/>
<path style="fill:none;stroke-width:2;stroke-linecap:butt;stroke-linejoin:miter;stroke:rgb(0%,0%,0%);stroke-opacity:1;stroke-miterlimit:4;" d="M 316.499544 115.499927 L 332.499601 93.500236 L 343.000252 93.000008 L 341.000374 107.000187 L 336.500391 127 L 338.500269 143.000057 L 345.999552 159.500342 L 350.000342 157.500464 " transform="matrix(3.779528,0,0,3.779528,0,0)"/>
<path style="fill:none;stroke-width:2;stroke-linecap:butt;stroke-linejoin:miter;stroke:rgb(0%,0%,0%);stroke-opacity:1;stroke-miterlimit:4;" d="M 350.000342 148.000269 L 348.499658 132.000212 L 352.999642 116.000155 L 359.000309 100.000098 L 343.000252 105.999731 L 327.000195 118.50026 L 325.000317 124.499894 " transform="matrix(3.779528,0,0,3.779528,0,0)"/>
<path style="fill:none;stroke-width:2;stroke-linecap:butt;stroke-linejoin:miter;stroke:rgb(0%,0%,0%);stroke-opacity:1;stroke-miterlimit:4;" d="M 316.00035 83.499813 L 316.499544 87.499569 L 314.999894 103.499626 L 315.500122 119.499683 L 313.000016 135.999967 L 311.500366 152.000024 L 309.500488 168.000081 L 305.499699 184.000138 " transform="matrix(3.779528,0,0,3.779528,0,0)"/>
<path style="fill:none;stroke-width:2;stroke-linecap:butt;stroke-linejoin:miter;stroke:rgb(0%,0%,0%);stroke-opacity:1;stroke-miterlimit:4;" d="M 323.000439 184.500366 L 332.999829 168.500309 L 323.499634 152.500252 L 318.000228 135.999967 L 320.000106 119.99991 L 326.499967 103.999854 L 334.500513 87.499569 L 330.499723 71.499512 L 318.99965 69.499634 L 314.999894 67.499756 " transform="matrix(3.779528,0,0,3.779528,0,0)"/>
<path style="fill:none;stroke-width:2;stroke-linecap:butt;stroke-linejoin:miter;stroke:rgb(0%,0%,0%);stroke-opacity:1;stroke-miterlimit:4;" d="M 354.99952 72.499967 L 350.999764 66.500334 L 361.000187 67.999984 L 347.000008 66.000106 L 350.499536 49.499821 L 350.499536 14.999601 " transform="matrix(3.779528,0,0,3.779528,0,0)"/>
<path style="fill:none;stroke-width:2;stroke-linecap:butt;stroke-linejoin:miter;stroke:rgb(0%,0%,0%);stroke-opacity:1;stroke-miterlimit:4;" d="M 357.000431 13.499951 L 352.999642 29.500008 L 359.499504 45.500065 L 359.499504 61.500122 " transform="matrix(3.779528,0,0,3.779528,0,0)"/>
<path style="fill:none;stroke-width:2;stroke-linecap:butt;stroke-linejoin:miter;stroke:rgb(0%,0%,0%);stroke-opacity:1;stroke-miterlimit:4;" d="M 359.999731 37.49952 L 359.999731 21.500496 " transform="matrix(3.779528,0,0,3.779528,0,0)"/>
<path style="fill:none;stroke-width:2;stroke-linecap:butt;stroke-linejoin:miter;stroke:rgb(0%,0%,0%);stroke-opacity:1;stroke-miterlimit:4;" d="M 398.000513 48.999593 L 398.000513 65.499878 L 404.000146 71.499512 L 398.000513 79.500057 " transform="matrix(3.779528,0,0,3.779528,0,0)"/>
<path style="fill:none;stroke-width:2;stroke-linecap:butt;stroke-linejoin:miter;stroke:rgb(0%,0%,0%);stroke-opacity:1;stroke-miterlimit:4;" d="M 404.500374 63.5 L 436.500488 63.5 " transform="matrix(3.779528,0,0,3.779528,0,0)"/>
<path style="fill:none;stroke-width:2;stroke-linecap:butt;stroke-linejoin:miter;stroke:rgb(0%,0%,0%);stroke-opacity:1;stroke-miterlimit:4;" d="M 442.500122 64.000228 L 440.000016 53.499577 L 450.000439 35.499642 L 450.000439 12.999723 " transform="matrix(3.779528,0,0,3.779528,0,0)"/>
<path style="fill:none;stroke-width:2;stroke-linecap:butt;stroke-linejoin:miter;stroke:rgb(0%,0%,0%);stroke-opacity:1;stroke-miterlimit:4;" d="M 455.499845 14.999601 L 455.499845 46.999715 " transform="matrix(3.779528,0,0,3.779528,0,0)"/>
<path style="fill:none;stroke-width:2;stroke-linecap:butt;stroke-linejoin:miter;stroke:rgb(0%,0%,0%);stroke-opacity:1;stroke-miterlimit:4;" d="M 427.999715 54.500033 L 411.500464 54.500033 " transform="matrix(3.779528,0,0,3.779528,0,0)"/>
<path style="fill:none;stroke-width:2;stroke-linecap:butt;stroke-linejoin:miter;stroke:rgb(0%,0%,0%);stroke-opacity:1;stroke-miterlimit:4;" d="M 404.999569 55.500488 L 420.999626 57.500366 " transform="matrix(3.779528,0,0,3.779528,0,0)"/>
<path style="fill:none;stroke-width:2;stroke-linecap:butt;stroke-linejoin:miter;stroke:rgb(0%,0%,0%);stroke-opacity:1;stroke-miterlimit:4;" d="M 398.999935 50.000049 L 414.999992 50.000049 L 431.000049 49.499821 L 447.000106 46.999715 " transform="matrix(3.779528,0,0,3.779528,0,0)"/>
<path style="fill:none;stroke-width:2;stroke-linecap:butt;stroke-linejoin:miter;stroke:rgb(0%,0%,0%);stroke-opacity:1;stroke-miterlimit:4;" d="M 456.999495 106.499959 L 450.499634 122.500016 L 452.499512 137.999845 L 458.500179 146.000391 L 466.000496 134.500317 L 475.999886 142.499829 L 479.999642 119.99991 " transform="matrix(3.779528,0,0,3.779528,0,0)"/>
<path style="fill:none;stroke-width:2;stroke-linecap:butt;stroke-linejoin:miter;stroke:rgb(0%,0%,0%);stroke-opacity:1;stroke-miterlimit:4;" d="M 481.500326 121.499561 L 481.500326 137.499618 L 495.999699 147.500041 " transform="matrix(3.779528,0,0,3.779528,0,0)"/>
<path style="fill:none;stroke-width:2;stroke-linecap:butt;stroke-linejoin:miter;stroke:rgb(0%,0%,0%);stroke-opacity:1;stroke-miterlimit:4;" d="M 503.500016 153.499674 L 485.500081 182.999683 L 469.500024 196.999862 L 451.50009 199.499967 L 443.499544 185.499788 L 432.999927 195.500212 L 416.99987 203.499723 " transform="matrix(3.779528,0,0,3.779528,0,0)"/>
<path style="fill:none;stroke-width:2;stroke-linecap:butt;stroke-linejoin:miter;stroke:rgb(0%,0%,0%);stroke-opacity:1;stroke-miterlimit:4;" d="M 422.000081 207.999707 L 418.000326 203.999951 L 409.499552 220.000008 L 419.499976 236.000065 L 418.999748 243.999577 " transform="matrix(3.779528,0,0,3.779528,0,0)"/>
<path style="fill:none;stroke-width:2;stroke-linecap:butt;stroke-linejoin:miter;stroke:rgb(0%,0%,0%);stroke-opacity:1;stroke-miterlimit:4;" d="M 406.500252 234.000187 L 389.999967 236.500293 " transform="matrix(3.779528,0,0,3.779528,0,0)"/>
<path style="fill:none;stroke-width:2;stroke-linecap:butt;stroke-linejoin:miter;stroke:rgb(0%,0%,0%);stroke-opacity:1;stroke-miterlimit:4;" d="M 393.499495 237.999943 L 399.500163 254 " transform="matrix(3.779528,0,0,3.779528,0,0)"/>
<path style="fill:none;stroke-width:2;stroke-linecap:butt;stroke-linejoin:miter;stroke:rgb(0%,0%,0%);stroke-opacity:1;stroke-miterlimit:4;" d="M 396.499829 266.499495 L 380.499772 248.499561 " transform="matrix(3.779528,0,0,3.779528,0,0)"/>
<path style="fill:none;stroke-width:2;stroke-linecap:butt;stroke-linejoin:miter;stroke:rgb(0%,0%,0%);stroke-opacity:1;stroke-miterlimit:4;" d="M 384.000334 255.49965 L 382.49965 239.000399 " transform="matrix(3.779528,0,0,3.779528,0,0)"/>
<path style="fill:none;stroke-width:2;stroke-linecap:butt;stroke-linejoin:miter;stroke:rgb(0%,0%,0%);stroke-opacity:1;stroke-miterlimit:4;" d="M 375.499561 236.999487 L 375.499561 252.999544 " transform="matrix(3.779528,0,0,3.779528,0,0)"/>
<path style="fill:none;stroke-width:2;stroke-linecap:butt;stroke-linejoin:miter;stroke:rgb(0%,0%,0%);stroke-opacity:1;stroke-miterlimit:4;" d="M 361.000187 261.500317 L 345.00013 261.500317 " transform="matrix(3.779528,0,0,3.779528,0,0)"/>
<path style="fill:none;stroke-width:2;stroke-linecap:butt;stroke-linejoin:miter;stroke:rgb(0%,0%,0%);stroke-opacity:1;stroke-miterlimit:4;" d="M 342.500024 261.999512 L 359.000309 257.999756 " transform="matrix(3.779528,0,0,3.779528,0,0)"/>
<path style="fill:none;stroke-width:2;stroke-linecap:butt;stroke-linejoin:miter;stroke:rgb(0%,0%,0%);stroke-opacity:1;stroke-miterlimit:4;" d="M 375.000366 267.499951 L 364.999943 249.500016 L 364.999943 233.499959 " transform="matrix(3.779528,0,0,3.779528,0,0)"/>
<path style="fill:none;stroke-width:2;stroke-linecap:butt;stroke-linejoin:miter;stroke:rgb(0%,0%,0%);stroke-opacity:1;stroke-miterlimit:4;" d="M 350.999764 230.000431 L 359.000309 246.000488 L 364.999943 269.499829 L 380.499772 265.500073 " transform="matrix(3.779528,0,0,3.779528,0,0)"/>
<path style="fill:none;stroke-width:2;stroke-linecap:butt;stroke-linejoin:miter;stroke:rgb(0%,0%,0%);stroke-opacity:1;stroke-miterlimit:4;" d="M 391.999845 259.500439 L 375.999788 237.999943 L 359.999731 232.000309 L 343.999674 227.99952 L 328.499845 218.500358 L 280.00048 218.500358 L 263.500195 220.500236 L 247.500138 224.499992 L 221.999886 220.500236 L 206.500057 220.000008 L 190.5 219.49978 L 174.499943 221.499658 L 158.499886 221.499658 " transform="matrix(3.779528,0,0,3.779528,0,0)"/>
<path style="fill:none;stroke-width:2;stroke-linecap:butt;stroke-linejoin:miter;stroke:rgb(0%,0%,0%);stroke-opacity:1;stroke-miterlimit:4;" d="M 159.000114 221.499658 L 157.000236 237.499715 L 144.499707 246.000488 L 136.500195 261.999512 L 140.499951 261.999512 L 138.500073 268.000179 L 153.999902 270.000057 " transform="matrix(3.779528,0,0,3.779528,0,0)"/>
<path style="fill:none;stroke-width:2;stroke-linecap:butt;stroke-linejoin:miter;stroke:rgb(0%,0%,0%);stroke-opacity:1;stroke-miterlimit:4;" d="M 186.000016 268.000179 L 202.000073 250.000244 L 218.500358 254 " transform="matrix(3.779528,0,0,3.779528,0,0)"/>
<path style="fill:none;stroke-width:2;stroke-linecap:butt;stroke-linejoin:miter;stroke:rgb(0%,0%,0%);stroke-opacity:1;stroke-miterlimit:4;" d="M 214.000374 251.499894 L 230.000431 267.499951 L 225.999642 283.500008 L 205.999829 289.499642 L 220.000008 298.000415 L 251.499894 298.000415 L 267.499951 293.500431 L 291.49952 295.500309 " transform="matrix(3.779528,0,0,3.779528,0,0)"/>
<path style="fill:none;stroke-width:2;stroke-linecap:butt;stroke-linejoin:miter;stroke:rgb(0%,0%,0%);stroke-opacity:1;stroke-miterlimit:4;" d="M 263.500195 286.500342 L 257.499528 270.000057 L 269.499829 254 L 265.500073 266.499495 " transform="matrix(3.779528,0,0,3.779528,0,0)"/>
<path style="fill:none;stroke-width:2;stroke-linecap:butt;stroke-linejoin:miter;stroke:rgb(0%,0%,0%);stroke-opacity:1;stroke-miterlimit:4;" d="M 263.500195 262.49974 L 279.000024 252.50035 " transform="matrix(3.779528,0,0,3.779528,0,0)"/>
<path style="fill:none;stroke-width:2;stroke-linecap:butt;stroke-linejoin:miter;stroke:rgb(0%,0%,0%);stroke-opacity:1;stroke-miterlimit:4;" d="M 273.499585 246.000488 L 257.499528 261.999512 L 250.999666 278.499797 L 262.999967 284.500464 L 279.500252 286.500342 " transform="matrix(3.779528,0,0,3.779528,0,0)"/>
<path style="fill:none;stroke-width:2;stroke-linecap:butt;stroke-linejoin:miter;stroke:rgb(0%,0%,0%);stroke-opacity:1;stroke-miterlimit:4;" d="M 281.50013 273.499585 L 264.999845 271.499707 L 282.99978 269.499829 L 277.000146 277.500374 L 261.500317 273.499585 L 286.000114 279.500252 L 289.99987 263.500195 L 300.000293 257.499528 L 300.499487 241.500505 L 291.000326 254 L 287.499764 250.000244 L 271.499707 248.000366 L 255.999878 268.000179 " transform="matrix(3.779528,0,0,3.779528,0,0)"/>
<path style="fill:none;stroke-width:2;stroke-linecap:butt;stroke-linejoin:miter;stroke:rgb(0%,0%,0%);stroke-opacity:1;stroke-miterlimit:4;" d="M 216.999674 275.500496 L 200.500423 269.499829 " transform="matrix(3.779528,0,0,3.779528,0,0)"/>
<path style="fill:none;stroke-width:2;stroke-linecap:butt;stroke-linejoin:miter;stroke:rgb(0%,0%,0%);stroke-opacity:1;stroke-miterlimit:4;" d="M 196.499634 259.000212 L 212.000496 255.000456 " transform="matrix(3.779528,0,0,3.779528,0,0)"/>
<path style="fill:none;stroke-width:2;stroke-linecap:butt;stroke-linejoin:miter;stroke:rgb(0%,0%,0%);stroke-opacity:1;stroke-miterlimit:4;" d="M 209.999585 255.000456 L 223.999764 271.000513 " transform="matrix(3.779528,0,0,3.779528,0,0)"/>
<path style="fill:none;stroke-width:2;stroke-linecap:butt;stroke-linejoin:miter;stroke:rgb(0%,0%,0%);stroke-opacity:1;stroke-miterlimit:4;" d="M 197.50009 257.999756 L 191.500456 273.999813 L 200.000195 289.99987 " transform="matrix(3.779528,0,0,3.779528,0,0)"/>
<path style="fill:none;stroke-width:2;stroke-linecap:butt;stroke-linejoin:miter;stroke:rgb(0%,0%,0%);stroke-opacity:1;stroke-miterlimit:4;" d="M 218.00013 325.000317 L 233.499959 319.499878 L 265.500073 323.499634 L 271.999935 323.999862 L 266.000301 339.999919 L 257.999756 343.999674 L 269.499829 366.499593 L 295.500309 370.999577 L 311.500366 370.999577 L 334.000285 393.499495 " transform="matrix(3.779528,0,0,3.779528,0,0)"/>
<path style="fill:none;stroke-width:2;stroke-linecap:butt;stroke-linejoin:miter;stroke:rgb(0%,0%,0%);stroke-opacity:1;stroke-miterlimit:4;" d="M 332.000407 385.499984 L 316.00035 399.500163 " transform="matrix(3.779528,0,0,3.779528,0,0)"/>
<path style="fill:none;stroke-width:2;stroke-linecap:butt;stroke-linejoin:miter;stroke:rgb(0%,0%,0%);stroke-opacity:1;stroke-miterlimit:4;" d="M 311.999561 402.000269 L 329.500301 397.500285 L 329.000073 413.999536 L 346.49978 429.999593 L 356.500203 446.499878 L 355.999976 462.499935 L 355.999976 479.00022 " transform="matrix(3.779528,0,0,3.779528,0,0)"/>
<path style="fill:none;stroke-width:2;stroke-linecap:butt;stroke-linejoin:miter;stroke:rgb(0%,0%,0%);stroke-opacity:1;stroke-miterlimit:4;" d="M 334.000285 477.999764 L 357.999854 475.999886 L 341.999797 484.000431 L 326.499967 487.499959 L 344.499902 463.500391 L 352.500448 447.500334 L 340.500146 432.000505 L 320.500334 416.000448 L 316.499544 407.999902 L 334.000285 387.499862 L 323.999862 371.499805 L 321.999984 359.000309 L 305.999927 357.499626 " transform="matrix(3.779528,0,0,3.779528,0,0)"/>
<path style="fill:none;stroke-width:2;stroke-linecap:butt;stroke-linejoin:miter;stroke:rgb(0%,0%,0%);stroke-opacity:1;stroke-miterlimit:4;" d="M 296.999959 354.500326 L 295.000081 370.500382 " transform="matrix(3.779528,0,0,3.779528,0,0)"/>
<path style="fill:none;stroke-width:2;stroke-linecap:butt;stroke-linejoin:miter;stroke:rgb(0%,0%,0%);stroke-opacity:1;stroke-miterlimit:4;" d="M 314.499666 366.000399 L 324.50009 382.000456 L 312.499788 397.500285 L 309.999683 413.000114 L 291.999748 429.000171 L 277.500374 445.000228 L 271.499707 460.500057 L 264.999845 475.000464 L 280.999902 477.000342 L 291.49952 477.000342 L 307.499577 479.500448 L 323.499634 475.499658 L 339.499691 467.500146 " transform="matrix(3.779528,0,0,3.779528,0,0)"/>
<path style="fill:none;stroke-width:2;stroke-linecap:butt;stroke-linejoin:miter;stroke:rgb(0%,0%,0%);stroke-opacity:1;stroke-miterlimit:4;" d="M 361.999609 457.499723 L 379.999544 473.49978 " transform="matrix(3.779528,0,0,3.779528,0,0)"/>
<path style="fill:none;stroke-width:2;stroke-linecap:butt;stroke-linejoin:miter;stroke:rgb(0%,0%,0%);stroke-opacity:1;stroke-miterlimit:4;" d="M 313.000016 429.999593 L 298.499609 438.500366 L 300.000293 445.000228 L 313.500244 429.000171 L 291.49952 439.499788 L 275.500496 463.500391 " transform="matrix(3.779528,0,0,3.779528,0,0)"/>
<path style="fill:none;stroke-width:2;stroke-linecap:butt;stroke-linejoin:miter;stroke:rgb(0%,0%,0%);stroke-opacity:1;stroke-miterlimit:4;" d="M 302.500399 495.000277 L 270.500285 495.000277 L 254.500228 494.500049 L 238.500171 494.500049 L 222.500114 495.000277 L 206.500057 494.500049 L 191.000228 493.000399 L 175.500399 497.000155 L 159.500342 493.000399 L 143.500285 488.500415 L 127.500228 480.49987 " transform="matrix(3.779528,0,0,3.779528,0,0)"/>
<path style="fill:none;stroke-width:2;stroke-linecap:butt;stroke-linejoin:miter;stroke:rgb(0%,0%,0%);stroke-opacity:1;stroke-miterlimit:4;" d="M 123.500472 475.000464 L 139.499495 466.499691 L 155.499552 475.000464 L 171.499609 481.000098 L 187.999894 481.000098 L 203.999951 477.000342 " transform="matrix(3.779528,0,0,3.779528,0,0)"/>
<path style="fill:none;stroke-width:2;stroke-linecap:butt;stroke-linejoin:miter;stroke:rgb(0%,0%,0%);stroke-opacity:1;stroke-miterlimit:4;" d="M 221.000464 471.499902 L 225.00022 467.500146 L 211.500269 447.500334 L 184.999561 439.499788 " transform="matrix(3.779528,0,0,3.779528,0,0)"/>
<path style="fill:none;stroke-width:2;stroke-linecap:butt;stroke-linejoin:miter;stroke:rgb(0%,0%,0%);stroke-opacity:1;stroke-miterlimit:4;" d="M 190.5 429.000171 L 206.500057 445.000228 L 210.499813 461.000285 L 202.500301 477.499536 " transform="matrix(3.779528,0,0,3.779528,0,0)"/>
<path style="fill:none;stroke-width:2;stroke-linecap:butt;stroke-linejoin:miter;stroke:rgb(0%,0%,0%);stroke-opacity:1;stroke-miterlimit:4;" d="M 151.499797 486.000309 L 135.49974 477.499536 L 135.999967 469.500024 " transform="matrix(3.779528,0,0,3.779528,0,0)"/>
<path style="fill:none;stroke-width:2;stroke-linecap:butt;stroke-linejoin:miter;stroke:rgb(0%,0%,0%);stroke-opacity:1;stroke-miterlimit:4;" d="M 133.499862 447.500334 L 149.499919 425.499609 L 155.499552 415.50022 L 161.50022 411.500464 L 169.999959 415.50022 L 178.000505 425.499609 L 193.999528 429.500399 L 209.500391 445.000228 " transform="matrix(3.779528,0,0,3.779528,0,0)"/>
<path style="fill:none;stroke-width:2;stroke-linecap:butt;stroke-linejoin:miter;stroke:rgb(0%,0%,0%);stroke-opacity:1;stroke-miterlimit:4;" d="M 182.999683 418.999748 L 182.999683 434.999805 L 191.000228 434.999805 L 188.500122 438.500366 L 191.99965 434.000382 L 191.99965 441.999894 L 207.999707 453.499967 L 221.999886 466.000496 L 237.999943 466.000496 L 254 463.999585 L 270.000057 466.499691 L 284.000236 438.500366 L 300.000293 423.999959 L 320.000106 409.99978 L 321.999984 415.50022 L 338.500269 427.000293 " transform="matrix(3.779528,0,0,3.779528,0,0)"/>
<path style="fill:none;stroke-width:2;stroke-linecap:butt;stroke-linejoin:miter;stroke:rgb(0%,0%,0%);stroke-opacity:1;stroke-miterlimit:4;" d="M 307.000382 426.500065 L 289.000448 442.500122 L 279.000024 458.500179 L 283.500008 474.500236 " transform="matrix(3.779528,0,0,3.779528,0,0)"/>
<path style="fill:none;stroke-width:2;stroke-linecap:butt;stroke-linejoin:miter;stroke:rgb(0%,0%,0%);stroke-opacity:1;stroke-miterlimit:4;" d="M 293.999626 450.999862 L 304.000049 432.999927 " transform="matrix(3.779528,0,0,3.779528,0,0)"/>
<path style="fill:none;stroke-width:2;stroke-linecap:butt;stroke-linejoin:miter;stroke:rgb(0%,0%,0%);stroke-opacity:1;stroke-miterlimit:4;" d="M 337.499813 365.500171 L 321.999984 355.499748 L 305.499699 353.49987 L 289.499642 350.999764 L 273.000391 355.499748 L 259.000212 343.50048 L 243.500382 339.499691 L 227.500326 341.499569 L 217.499902 338.000041 L 205.000407 324.50009 L 173.499487 324.50009 L 161.50022 314.499666 L 162.000448 298.499609 L 162.000448 282.499552 L 150.000146 264.499618 L 146.000391 258.499984 L 123.999666 261.999512 L 105.999731 261.999512 L 85.999919 271.499707 L 100.000098 255.49965 L 101.999976 239.499593 L 84.000041 247.500138 L 83.499813 269.499829 L 73.999618 259.000212 L 71.99974 246.99991 L 80.000285 230.999854 L 67.499756 214.499569 L 55.500488 198.499512 L 64.000228 182.999683 L 66.000106 171.000415 L 51.999927 166.999626 L 64.000228 150.999569 L 91.500358 141.000179 L 75.500301 139.000301 L 59.500244 155.499552 L 47.499943 161.50022 L 30.000236 146.000391 L 30.000236 130.499528 L 41.999504 124.499894 L 26.00048 124.499894 " transform="matrix(3.779528,0,0,3.779528,0,0)"/>
<path style="fill:none;stroke-width:2;stroke-linecap:butt;stroke-linejoin:miter;stroke:rgb(0%,0%,0%);stroke-opacity:1;stroke-miterlimit:4;" d="M 30.000236 128.999878 L 41.999504 127 L 48.500399 143.000057 L 50.000049 159.000114 L 64.000228 160.999992 L 79.500057 144.499707 L 91.500358 146.499585 L 82.999585 162.499642 L 71.000317 178.000505 L 64.500456 193.500334 L 48.500399 209.500391 L 42.499731 225.500448 L 39.000203 241.500505 L 53.499577 257.499528 L 59.500244 259.500439 L 75.999495 249.500016 L 91.999552 236.000065 L 116.500382 243.999577 L 132.500439 241.999699 L 148.999691 242.499927 L 148.999691 254.500228 " transform="matrix(3.779528,0,0,3.779528,0,0)"/>
<path style="fill:none;stroke-width:2;stroke-linecap:butt;stroke-linejoin:miter;stroke:rgb(0%,0%,0%);stroke-opacity:1;stroke-miterlimit:4;" d="M 164.49952 239.499593 L 180.499577 233.499959 L 196.499634 233.499959 L 212.499691 232.999731 L 244.499805 232.999731 L 259.999634 230.999854 L 275.500496 231.500081 L 291.49952 229.500203 L 307.000382 231.500081 L 316.999772 237.499715 L 315.500122 253.499772 L 315.500122 269.499829 L 313.500244 286.000114 " transform="matrix(3.779528,0,0,3.779528,0,0)"/>
<path style="fill:none;stroke-width:2;stroke-linecap:butt;stroke-linejoin:miter;stroke:rgb(0%,0%,0%);stroke-opacity:1;stroke-miterlimit:4;" d="M 298.000415 302.000171 L 282.000358 302.000171 L 287.999992 287.499764 L 295.999504 271.499707 L 304.000049 263.500195 L 305.999927 247.500138 L 289.499642 239.499593 L 273.999813 236.999487 L 257.999756 236.999487 L 241.999699 239.000399 L 225.500448 238.500171 L 209.500391 238.500171 L 193.999528 239.000399 L 178.000505 239.000399 " transform="matrix(3.779528,0,0,3.779528,0,0)"/>
<path style="fill:none;stroke-width:2;stroke-linecap:butt;stroke-linejoin:miter;stroke:rgb(0%,0%,0%);stroke-opacity:1;stroke-miterlimit:4;" d="M 173.499487 237.499715 L 175.500399 253.499772 L 175.500399 286.000114 " transform="matrix(3.779528,0,0,3.779528,0,0)"/>
<path style="fill:none;stroke-width:2;stroke-linecap:butt;stroke-linejoin:miter;stroke:rgb(0%,0%,0%);stroke-opacity:1;stroke-miterlimit:4;" d="M 202.500301 250.500472 L 188.500122 266.499495 L 188.500122 282.000358 L 198.499512 284.000236 L 202.500301 289.99987 L 218.500358 284.000236 L 225.999642 284.000236 " transform="matrix(3.779528,0,0,3.779528,0,0)"/>
<path style="fill:none;stroke-width:2;stroke-linecap:butt;stroke-linejoin:miter;stroke:rgb(0%,0%,0%);stroke-opacity:1;stroke-miterlimit:4;" d="M 216.999674 325.499512 L 211.000041 329.500301 L 216.999674 345.999552 L 225.500448 350.499536 L 236.000065 352.500448 L 252.50035 352.999642 L 274.500041 330.499723 L 286.500342 322.500212 L 302.999593 322.500212 L 319.499878 324.50009 L 335.499935 322.500212 " transform="matrix(3.779528,0,0,3.779528,0,0)"/>
<path style="fill:none;stroke-width:2;stroke-linecap:butt;stroke-linejoin:miter;stroke:rgb(0%,0%,0%);stroke-opacity:1;stroke-miterlimit:4;" d="M 321.499756 355.999976 L 339.499691 372.000033 L 341.499569 388.00009 L 343.999674 403.499919 L 340.500146 409.499552 L 346.49978 427.499487 " transform="matrix(3.779528,0,0,3.779528,0,0)"/>
<path style="fill:none;stroke-width:2;stroke-linecap:butt;stroke-linejoin:miter;stroke:rgb(0%,0%,0%);stroke-opacity:1;stroke-miterlimit:4;" d="M 373.99991 486.000309 L 384.000334 478.499992 L 370.000155 482.499748 L 353.49987 486.499504 L 365.500171 470.50048 L 381.500228 470.50048 L 370.999577 468.000374 L 370.999577 461.999707 L 354.99952 461.999707 L 339.499691 473.49978 L 323.499634 481.500326 L 307.000382 485.500081 L 291.49952 486.000309 L 275.500496 481.99952 L 261.500317 470.000252 L 245.50026 470.000252 L 217.499902 479.999642 L 201.499845 484.000431 L 185.499788 486.000309 L 169.499731 486.499504 L 153.499674 480.49987 L 123.500472 478.499992 L 135.49974 461.999707 L 135.49974 445.99965 L 143.500285 430.499821 L 152.000024 413.999536 L 153.999902 398.000513 L 152.500252 381.500228 L 158.499886 365.500171 L 194.499756 357.000431 L 218.00013 353.49987 L 202.000073 354.000098 L 186.000016 354.000098 L 169.999959 356.500203 L 153.999902 370.500382 " transform="matrix(3.779528,0,0,3.779528,0,0)"/>
<path style="fill:none;stroke-width:2;stroke-linecap:butt;stroke-linejoin:miter;stroke:rgb(0%,0%,0%);stroke-opacity:1;stroke-miterlimit:4;" d="M 166.000203 372.000033 L 182.00026 366.000399 L 160.499764 372.000033 L 158.499886 388.00009 L 172.500065 359.999731 L 180.499577 372.50026 L 196.499634 355.999976 L 216.50048 359.999731 L 232.000309 357.499626 L 248.000366 357.499626 " transform="matrix(3.779528,0,0,3.779528,0,0)"/>
<path style="fill:none;stroke-width:2;stroke-linecap:butt;stroke-linejoin:miter;stroke:rgb(0%,0%,0%);stroke-opacity:1;stroke-miterlimit:4;" d="M 251.499894 332.499601 L 234.999609 329.999495 L 218.999552 332.000407 " transform="matrix(3.779528,0,0,3.779528,0,0)"/>
<path style="fill:none;stroke-width:2;stroke-linecap:butt;stroke-linejoin:miter;stroke:rgb(0%,0%,0%);stroke-opacity:1;stroke-miterlimit:4;" d="M 201.499845 354.99952 L 197.50009 370.999577 L 191.500456 373.99991 L 199.499967 366.499593 L 215.500024 372.50026 L 231.500081 373.000488 L 248.000366 374.500138 L 264.000423 372.50026 L 280.00048 370.000155 L 305.499699 363.999487 L 321.999984 368.000277 " transform="matrix(3.779528,0,0,3.779528,0,0)"/>
<path style="fill:none;stroke-width:2;stroke-linecap:butt;stroke-linejoin:miter;stroke:rgb(0%,0%,0%);stroke-opacity:1;stroke-miterlimit:4;" d="M 318.000228 358.500081 L 336.000163 374.500138 L 332.499601 394.499951 L 338.500269 411.000236 " transform="matrix(3.779528,0,0,3.779528,0,0)"/>
<path style="fill:none;stroke-width:2;stroke-linecap:butt;stroke-linejoin:miter;stroke:rgb(0%,0%,0%);stroke-opacity:1;stroke-miterlimit:4;" d="M 271.000513 359.499504 L 255.49965 364.999943 L 239.499593 368.500505 L 223.999764 364.999943 L 207.999707 363.000065 " transform="matrix(3.779528,0,0,3.779528,0,0)"/>
<path style="fill:none;stroke-width:2;stroke-linecap:butt;stroke-linejoin:miter;stroke:rgb(0%,0%,0%);stroke-opacity:1;stroke-miterlimit:4;" d="M 175.500399 372.50026 L 168.999504 388.500317 L 157.000236 404.500374 L 156.500008 395.999601 L 171.999837 389.999967 " transform="matrix(3.779528,0,0,3.779528,0,0)"/>
<path style="fill:none;stroke-width:2;stroke-linecap:butt;stroke-linejoin:miter;stroke:rgb(0%,0%,0%);stroke-opacity:1;stroke-miterlimit:4;" d="M 171.999837 366.000399 L 164.000326 382.49965 L 180.000382 395.999601 L 179.500155 411.999658 L 155.499552 427.499487 L 141.500407 443.00035 L 141.500407 459.499601 L 137.499618 475.499658 L 155.499552 475.499658 L 175.500399 495.500505 L 191.99965 497.500382 L 207.500513 497.500382 L 223.499536 497.999577 L 255.49965 497.999577 L 271.999935 500.499683 L 287.999992 498.499805 L 304.000049 498.499805 L 320.000106 497.000155 L 336.500391 493.000399 L 352.500448 488.999609 L 368.500505 472.500358 L 362.499837 466.499691 " transform="matrix(3.779528,0,0,3.779528,0,0)"/>
<path style="fill:none;stroke-width:2;stroke-linecap:butt;stroke-linejoin:miter;stroke:rgb(0%,0%,0%);stroke-opacity:1;stroke-miterlimit:4;" d="M 173.499487 421.499854 L 155.499552 427.499487 L 139.499495 445.500456 " transform="matrix(3.779528,0,0,3.779528,0,0)"/>
<path style="fill:none;stroke-width:2;stroke-linecap:butt;stroke-linejoin:miter;stroke:rgb(0%,0%,0%);stroke-opacity:1;stroke-miterlimit:4;" d="M 82.000163 266.000301 L 87.499569 250.000244 L 93.500236 230.499626 L 77.500179 220.500236 L 61.500122 214.499569 L 45.500065 234.500415 " transform="matrix(3.779528,0,0,3.779528,0,0)"/>
<path style="fill:none;stroke-width:2;stroke-linecap:butt;stroke-linejoin:miter;stroke:rgb(0%,0%,0%);stroke-opacity:1;stroke-miterlimit:4;" d="M 39.999626 234.500415 L 55.999683 223.000342 L 45.500065 239.000399 L 57.500366 255.000456 " transform="matrix(3.779528,0,0,3.779528,0,0)"/>
<path style="fill:none;stroke-width:2;stroke-linecap:butt;stroke-linejoin:miter;stroke:rgb(0%,0%,0%);stroke-opacity:1;stroke-miterlimit:4;" d="M 42.499731 243.500382 L 58.499788 253.499772 L 74.499845 243.999577 L 98.500448 243.999577 L 92.49978 259.999634 " transform="matrix(3.779528,0,0,3.779528,0,0)"/>
<path style="fill:none;stroke-width:2;stroke-linecap:butt;stroke-linejoin:miter;stroke:rgb(0%,0%,0%);stroke-opacity:1;stroke-miterlimit:4;" d="M 78.999829 246.99991 L 89.000252 230.999854 L 72.499967 224.499992 L 55.999683 221.000464 " transform="matrix(3.779528,0,0,3.779528,0,0)"/>
<path style="fill:none;stroke-width:2;stroke-linecap:butt;stroke-linejoin:miter;stroke:rgb(0%,0%,0%);stroke-opacity:1;stroke-miterlimit:4;" d="M 64.000228 197.50009 L 35.499642 203.999951 L 19.000391 189.499544 " transform="matrix(3.779528,0,0,3.779528,0,0)"/>
<path style="fill:none;stroke-width:2;stroke-linecap:butt;stroke-linejoin:miter;stroke:rgb(0%,0%,0%);stroke-opacity:1;stroke-miterlimit:4;" d="M 17.000513 191.99965 L 32.999536 209.500391 L 48.999593 203.499723 " transform="matrix(3.779528,0,0,3.779528,0,0)"/>
<path style="fill:none;stroke-width:2;stroke-linecap:butt;stroke-linejoin:miter;stroke:rgb(0%,0%,0%);stroke-opacity:1;stroke-miterlimit:4;" d="M 17.999935 184.500366 L 33.999992 162.000448 L 50.000049 161.50022 " transform="matrix(3.779528,0,0,3.779528,0,0)"/>
<path style="fill:none;stroke-width:2;stroke-linecap:butt;stroke-linejoin:miter;stroke:rgb(0%,0%,0%);stroke-opacity:1;stroke-miterlimit:4;" d="M 26.499674 148.000269 L 10.499618 140.499951 " transform="matrix(3.779528,0,0,3.779528,0,0)"/>
<path style="fill:none;stroke-width:2;stroke-linecap:butt;stroke-linejoin:miter;stroke:rgb(0%,0%,0%);stroke-opacity:1;stroke-miterlimit:4;" d="M 15.499829 137.499618 L 27.50013 153.499674 L 23.999569 169.499731 L 17.999935 185.499788 L 30.000236 201.499845 " transform="matrix(3.779528,0,0,3.779528,0,0)"/>
<path style="fill:none;stroke-width:2;stroke-linecap:butt;stroke-linejoin:miter;stroke:rgb(0%,0%,0%);stroke-opacity:1;stroke-miterlimit:4;" d="M 20.500041 160.499764 L 4.499984 148.999691 " transform="matrix(3.779528,0,0,3.779528,0,0)"/>
<path style="fill:none;stroke-width:2;stroke-linecap:butt;stroke-linejoin:miter;stroke:rgb(0%,0%,0%);stroke-opacity:1;stroke-miterlimit:4;" d="M 1.49965 139.999723 L 17.499707 131.499984 L 9.500195 143.500285 L 19.499585 159.500342 " transform="matrix(3.779528,0,0,3.779528,0,0)"/>
<path style="fill:none;stroke-width:2;stroke-linecap:butt;stroke-linejoin:miter;stroke:rgb(0%,0%,0%);stroke-opacity:1;stroke-miterlimit:4;" d="M 33.499764 151.499797 L 40.499854 141.500407 L 34.50022 125.50035 " transform="matrix(3.779528,0,0,3.779528,0,0)"/>
<path style="fill:none;stroke-width:2;stroke-linecap:butt;stroke-linejoin:miter;stroke:rgb(0%,0%,0%);stroke-opacity:1;stroke-miterlimit:4;" d="M 31.499886 118.50026 L 19.499585 134.500317 L 3.499528 142.499829 L 9.500195 158.499886 L 15.499829 173.999715 L 14.000179 189.999772 L 23.500374 205.999829 " transform="matrix(3.779528,0,0,3.779528,0,0)"/>
<path style="fill:none;stroke-width:2;stroke-linecap:butt;stroke-linejoin:miter;stroke:rgb(0%,0%,0%);stroke-opacity:1;stroke-miterlimit:4;" d="M 87.999797 240.500049 L 78.000407 255.999878 " transform="matrix(3.779528,0,0,3.779528,0,0)"/>
<path style="fill:none;stroke-width:2;stroke-linecap:butt;stroke-linejoin:miter;stroke:rgb(0%,0%,0%);stroke-opacity:1;stroke-miterlimit:4;" d="M 116.999577 261.999512 L 123.500472 246.000488 " transform="matrix(3.779528,0,0,3.779528,0,0)"/>
<path style="fill:none;stroke-width:2;stroke-linecap:butt;stroke-linejoin:miter;stroke:rgb(0%,0%,0%);stroke-opacity:1;stroke-miterlimit:4;" d="M 125.000122 247.500138 L 110.999943 269.499829 L 109.500293 261.999512 L 119.99991 246.000488 " transform="matrix(3.779528,0,0,3.779528,0,0)"/>
<path style="fill:none;stroke-width:2;stroke-linecap:butt;stroke-linejoin:miter;stroke:rgb(0%,0%,0%);stroke-opacity:1;stroke-miterlimit:4;" d="M 163.500098 228.999976 L 179.500155 226.49987 L 211.500269 226.49987 L 227.500326 224.499992 L 243.000155 220.500236 " transform="matrix(3.779528,0,0,3.779528,0,0)"/>
<path style="fill:none;stroke-width:2;stroke-linecap:butt;stroke-linejoin:miter;stroke:rgb(0%,0%,0%);stroke-opacity:1;stroke-miterlimit:4;" d="M 234.999609 200.500423 L 230.999854 216.50048 L 243.000155 212.499691 L 264.999845 223.999764 L 280.999902 223.999764 L 296.999959 223.499536 L 313.000016 223.999764 L 329.000073 223.999764 L 347.000008 232.499504 L 363.500293 238.500171 " transform="matrix(3.779528,0,0,3.779528,0,0)"/>
<path style="fill:none;stroke-width:2;stroke-linecap:butt;stroke-linejoin:miter;stroke:rgb(0%,0%,0%);stroke-opacity:1;stroke-miterlimit:4;" d="M 343.000252 232.000309 L 343.000252 266.999723 L 341.000374 282.99978 L 341.000374 298.999837 L 340.500146 314.999894 " transform="matrix(3.779528,0,0,3.779528,0,0)"/>
<path style="fill:none;stroke-width:2;stroke-linecap:butt;stroke-linejoin:miter;stroke:rgb(0%,0%,0%);stroke-opacity:1;stroke-miterlimit:4;" d="M 307.499577 291.49952 L 309.500488 275.000269 L 309.500488 241.999699 " transform="matrix(3.779528,0,0,3.779528,0,0)"/>
<path style="fill:none;stroke-width:2;stroke-linecap:butt;stroke-linejoin:miter;stroke:rgb(0%,0%,0%);stroke-opacity:1;stroke-miterlimit:4;" d="M 336.000163 220.500236 L 338.000041 236.500293 L 338.000041 252.000122 L 336.000163 268.000179 L 336.000163 283.500008 L 330.499723 298.999837 L 334.500513 303.499821 L 326.499967 304.000049 " transform="matrix(3.779528,0,0,3.779528,0,0)"/>
<path style="fill:none;stroke-width:2;stroke-linecap:butt;stroke-linejoin:miter;stroke:rgb(0%,0%,0%);stroke-opacity:1;stroke-miterlimit:4;" d="M 286.000114 289.499642 L 269.499829 302.000171 L 252.999544 301.499943 L 237.499715 303.499821 L 221.499658 303.499821 L 205.999829 300.999715 L 189.999772 300.999715 L 184.000138 295.000081 L 169.999959 298.999837 L 169.999959 251.499894 L 166.000203 235.499837 " transform="matrix(3.779528,0,0,3.779528,0,0)"/>
<path style="fill:none;stroke-width:2;stroke-linecap:butt;stroke-linejoin:miter;stroke:rgb(0%,0%,0%);stroke-opacity:1;stroke-miterlimit:4;" d="M 166.000203 225.999642 L 166.000203 241.999699 L 161.50022 246.000488 L 157.000236 261.500317 L 162.499642 265.500073 L 158.499886 282.000358 L 155.99978 297.500187 L 155.99978 313.500244 L 162.000448 323.000439 L 178.000505 317.5 L 209.999585 317.5 L 225.999642 314.999894 L 241.999699 313.000016 L 258.499984 315.500122 L 274.500041 317.5 L 290.500098 316.999772 L 322.500212 316.999772 " transform="matrix(3.779528,0,0,3.779528,0,0)"/>
<path style="fill:none;stroke-width:2;stroke-linecap:butt;stroke-linejoin:miter;stroke:rgb(0%,0%,0%);stroke-opacity:1;stroke-miterlimit:4;" d="M 393.000301 261.500317 L 397.000057 259.999634 L 391.000423 243.999577 L 398.999935 228.499748 " transform="matrix(3.779528,0,0,3.779528,0,0)"/>
<path style="fill:none;stroke-width:2;stroke-linecap:butt;stroke-linejoin:miter;stroke:rgb(0%,0%,0%);stroke-opacity:1;stroke-miterlimit:4;" d="M 409.499552 227.99952 L 421.499854 243.999577 " transform="matrix(3.779528,0,0,3.779528,0,0)"/>
<path style="fill:none;stroke-width:2;stroke-linecap:butt;stroke-linejoin:miter;stroke:rgb(0%,0%,0%);stroke-opacity:1;stroke-miterlimit:4;" d="M 429.999593 228.499748 L 423.999959 212.000496 L 441.499666 200.500423 L 454.999618 196.000439 L 452.99974 189.999772 L 441.000472 173.999715 L 448.999984 157.500464 L 460.500057 141.500407 L 454.999618 125.50035 L 461.000285 109.000065 L 470.999674 123.000244 L 455.499845 121.000366 " transform="matrix(3.779528,0,0,3.779528,0,0)"/>
<path style="fill:none;stroke-width:2;stroke-linecap:butt;stroke-linejoin:miter;stroke:rgb(0%,0%,0%);stroke-opacity:1;stroke-miterlimit:4;" d="M 448.999984 116.999577 L 465.500269 107.500415 L 481.99952 115.499927 L 486.000309 117.499805 L 490.500293 133.499862 L 484.499626 149.499919 L 497.000155 153.499674 L 498.499805 139.499495 L 496.499927 139.499495 L 496.499927 148.000269 L 502.499561 155.499552 L 492.500171 171.999837 L 482.999976 187.999894 L 472.999552 204.500179 L 468.999797 220.500236 " transform="matrix(3.779528,0,0,3.779528,0,0)"/>
<path style="fill:none;stroke-width:2;stroke-linecap:butt;stroke-linejoin:miter;stroke:rgb(0%,0%,0%);stroke-opacity:1;stroke-miterlimit:4;" d="M 452.99974 223.499536 L 445.500456 223.999764 L 443.499544 205.999829 L 441.499666 209.999585 " transform="matrix(3.779528,0,0,3.779528,0,0)"/>
<path style="fill:none;stroke-width:2;stroke-linecap:butt;stroke-linejoin:miter;stroke:rgb(0%,0%,0%);stroke-opacity:1;stroke-miterlimit:4;" d="M 432.499699 228.999976 L 416.499642 221.000464 " transform="matrix(3.779528,0,0,3.779528,0,0)"/>
<path style="fill:none;stroke-width:2;stroke-linecap:butt;stroke-linejoin:miter;stroke:rgb(0%,0%,0%);stroke-opacity:1;stroke-miterlimit:4;" d="M 416.99987 219.49978 L 428.499943 236.000065 " transform="matrix(3.779528,0,0,3.779528,0,0)"/>
<path style="fill:none;stroke-width:2;stroke-linecap:butt;stroke-linejoin:miter;stroke:rgb(0%,0%,0%);stroke-opacity:1;stroke-miterlimit:4;" d="M 407.00048 243.500382 L 407.00048 220.000008 " transform="matrix(3.779528,0,0,3.779528,0,0)"/>
<path style="fill:none;stroke-width:2;stroke-linecap:butt;stroke-linejoin:miter;stroke:rgb(0%,0%,0%);stroke-opacity:1;stroke-miterlimit:4;" d="M 407.00048 219.49978 L 422.999504 237.499715 L 438.999561 234.000187 L 454.999618 230.000431 L 470.999674 214.499569 " transform="matrix(3.779528,0,0,3.779528,0,0)"/>
<path style="fill:none;stroke-width:2;stroke-linecap:butt;stroke-linejoin:miter;stroke:rgb(0%,0%,0%);stroke-opacity:1;stroke-miterlimit:4;" d="M 433.500155 138.500073 L 417.500098 134.500317 " transform="matrix(3.779528,0,0,3.779528,0,0)"/>
<path style="fill:none;stroke-width:2;stroke-linecap:butt;stroke-linejoin:miter;stroke:rgb(0%,0%,0%);stroke-opacity:1;stroke-miterlimit:4;" d="M 420.000203 131.499984 L 428.499943 147.500041 L 434.499577 169.499731 L 450.499634 186.000016 L 466.499691 193.999528 L 482.499748 180.000382 L 502.499561 148.000269 " transform="matrix(3.779528,0,0,3.779528,0,0)"/>
<path style="fill:none;stroke-width:2;stroke-linecap:butt;stroke-linejoin:miter;stroke:rgb(0%,0%,0%);stroke-opacity:1;stroke-miterlimit:4;" d="M 477.499536 150.999569 L 472.00013 132.999634 L 474.000008 116.999577 " transform="matrix(3.779528,0,0,3.779528,0,0)"/>
<path style="fill:none;stroke-width:2;stroke-linecap:butt;stroke-linejoin:miter;stroke:rgb(0%,0%,0%);stroke-opacity:1;stroke-miterlimit:4;" d="M 462.499935 112.499593 L 468.499569 128.49965 L 476.500114 150.500374 L 488.500415 166.500431 L 480.49987 182.500488 L 466.499691 202.500301 L 461.999707 218.00013 " transform="matrix(3.779528,0,0,3.779528,0,0)"/>
<path style="fill:none;stroke-width:2;stroke-linecap:butt;stroke-linejoin:miter;stroke:rgb(0%,0%,0%);stroke-opacity:1;stroke-miterlimit:4;" d="M 429.999593 155.000358 L 413.999536 139.499495 " transform="matrix(3.779528,0,0,3.779528,0,0)"/>
<path style="fill:none;stroke-width:2;stroke-linecap:butt;stroke-linejoin:miter;stroke:rgb(0%,0%,0%);stroke-opacity:1;stroke-miterlimit:4;" d="M 410.500008 137.000423 L 426.500065 128.999878 L 443.00035 142.499829 " transform="matrix(3.779528,0,0,3.779528,0,0)"/>
<path style="fill:none;stroke-width:2;stroke-linecap:butt;stroke-linejoin:miter;stroke:rgb(0%,0%,0%);stroke-opacity:1;stroke-miterlimit:4;" d="M 441.000472 148.500496 L 426.500065 132.500439 " transform="matrix(3.779528,0,0,3.779528,0,0)"/>
<path style="fill:none;stroke-width:2;stroke-linecap:butt;stroke-linejoin:miter;stroke:rgb(0%,0%,0%);stroke-opacity:1;stroke-miterlimit:4;" d="M 426.500065 127 L 444.5 143.500285 L 440.000016 163.500098 " transform="matrix(3.779528,0,0,3.779528,0,0)"/>
<path style="fill:none;stroke-width:2;stroke-linecap:butt;stroke-linejoin:miter;stroke:rgb(0%,0%,0%);stroke-opacity:1;stroke-miterlimit:4;" d="M 421.499854 125.000122 L 413.500342 141.000179 L 431.500277 157.500464 L 433.500155 173.499487 L 445.500456 189.999772 L 433.500155 205.999829 L 435.500033 221.999886 " transform="matrix(3.779528,0,0,3.779528,0,0)"/>
<path style="fill:none;stroke-width:2;stroke-linecap:butt;stroke-linejoin:miter;stroke:rgb(0%,0%,0%);stroke-opacity:1;stroke-miterlimit:4;" d="M 368.500505 164.000326 L 366.000399 166.000203 L 350.000342 168.500309 L 327.999618 162.499642 L 319.499878 180.000382 L 303.499821 189.999772 L 287.999992 189.999772 L 271.999935 191.99965 L 256.500106 193.500334 L 240.500049 191.500456 L 223.999764 191.500456 L 207.999707 189.499544 L 175.999593 189.499544 L 164.000326 177.500277 L 178.000505 173.499487 L 168.500309 169.499731 L 162.499642 163.500098 L 160.499764 157.500464 L 160.499764 125.50035 L 164.49952 109.500293 L 166.500431 93.500236 L 174.499943 77.500179 L 194.499756 57.999561 L 190.5 58.499788 L 191.99965 42.499731 L 200.000195 26.499674 L 210.499813 20.500041 L 208.499935 14.500407 L 206.500057 22.499919 " transform="matrix(3.779528,0,0,3.779528,0,0)"/>
<path style="fill:none;stroke-width:2;stroke-linecap:butt;stroke-linejoin:miter;stroke:rgb(0%,0%,0%);stroke-opacity:1;stroke-miterlimit:4;" d="M 206.500057 32.999536 L 208.499935 26.999902 L 216.000252 27.50013 L 205.999829 42.999959 L 196.000439 46.999715 L 196.000439 46.499487 " transform="matrix(3.779528,0,0,3.779528,0,0)"/>
<path style="fill:none;stroke-width:2;stroke-linecap:butt;stroke-linejoin:miter;stroke:rgb(0%,0%,0%);stroke-opacity:1;stroke-miterlimit:4;" d="M 196.000439 70.50009 L 212.499691 71.000317 L 228.499748 71.499512 L 260.499862 72.499967 L 275.999691 72.499967 L 292.499976 80.500513 L 312.499788 72.499967 L 312.499788 88.500024 L 310.49991 104.500081 L 310.49991 120.500138 L 308.500033 136.500195 L 320.999528 154.50013 L 329.000073 170.500187 L 314.999894 186.500244 " transform="matrix(3.779528,0,0,3.779528,0,0)"/>
<path style="fill:none;stroke-width:2;stroke-linecap:butt;stroke-linejoin:miter;stroke:rgb(0%,0%,0%);stroke-opacity:1;stroke-miterlimit:4;" d="M 302.000171 182.999683 L 305.999927 166.999626 L 305.999927 150.999569 L 304.000049 134.999512 L 305.999927 119.000488 L 305.999927 103.499626 L 305.499699 87.499569 L 307.499577 71.99974 L 287.499764 62.00035 L 285.499886 45.500065 L 287.499764 25.500252 L 284.999658 37.49952 " transform="matrix(3.779528,0,0,3.779528,0,0)"/>
<path style="fill:none;stroke-width:2;stroke-linecap:butt;stroke-linejoin:miter;stroke:rgb(0%,0%,0%);stroke-opacity:1;stroke-miterlimit:4;" d="M 285.499886 35.000448 L 286.000114 23.000146 L 298.000415 30.500464 L 291.999748 30.000236 L 278.499797 32.000114 L 282.499552 47.499943 L 284.500464 63.5 L 282.99978 87.499569 L 296.999959 103.499626 L 291.49952 119.000488 L 271.499707 134.999512 " transform="matrix(3.779528,0,0,3.779528,0,0)"/>
<path style="fill:none;stroke-width:2;stroke-linecap:butt;stroke-linejoin:miter;stroke:rgb(0%,0%,0%);stroke-opacity:1;stroke-miterlimit:4;" d="M 280.00048 109.999487 L 273.999813 94.000464 L 268.500407 90.499902 " transform="matrix(3.779528,0,0,3.779528,0,0)"/>
<path style="fill:none;stroke-width:2;stroke-linecap:butt;stroke-linejoin:miter;stroke:rgb(0%,0%,0%);stroke-opacity:1;stroke-miterlimit:4;" d="M 270.000057 82.000163 L 271.499707 98.00022 L 271.999935 114.500505 L 270.000057 118.50026 " transform="matrix(3.779528,0,0,3.779528,0,0)"/>
<path style="fill:none;stroke-width:2;stroke-linecap:butt;stroke-linejoin:miter;stroke:rgb(0%,0%,0%);stroke-opacity:1;stroke-miterlimit:4;" d="M 282.000358 119.99991 L 290.500098 104.500081 L 268.500407 100.500326 L 252.50035 98.999642 " transform="matrix(3.779528,0,0,3.779528,0,0)"/>
<path style="fill:none;stroke-width:2;stroke-linecap:butt;stroke-linejoin:miter;stroke:rgb(0%,0%,0%);stroke-opacity:1;stroke-miterlimit:4;" d="M 254 96.000342 L 246.000488 112.000399 L 248.000366 125.999544 L 264.000423 134.500317 L 280.00048 122.500016 " transform="matrix(3.779528,0,0,3.779528,0,0)"/>
<path style="fill:none;stroke-width:2;stroke-linecap:butt;stroke-linejoin:miter;stroke:rgb(0%,0%,0%);stroke-opacity:1;stroke-miterlimit:4;" d="M 291.999748 153.499674 L 275.999691 153.499674 L 255.999878 155.499552 L 223.499536 155.499552 L 207.999707 155.99978 L 188.500122 155.99978 L 172.500065 159.500342 " transform="matrix(3.779528,0,0,3.779528,0,0)"/>
<path style="fill:none;stroke-width:2;stroke-linecap:butt;stroke-linejoin:miter;stroke:rgb(0%,0%,0%);stroke-opacity:1;stroke-miterlimit:4;" d="M 172.500065 162.99987 L 188.500122 173.499487 L 204.500179 171.000415 L 220.000008 170.500187 L 236.000065 171.000415 L 282.99978 171.000415 " transform="matrix(3.779528,0,0,3.779528,0,0)"/>
<path style="fill:none;stroke-width:2;stroke-linecap:butt;stroke-linejoin:miter;stroke:rgb(0%,0%,0%);stroke-opacity:1;stroke-miterlimit:4;" d="M 254 159.999536 L 206.500057 159.999536 " transform="matrix(3.779528,0,0,3.779528,0,0)"/>
<path style="fill:none;stroke-width:2;stroke-linecap:butt;stroke-linejoin:miter;stroke:rgb(0%,0%,0%);stroke-opacity:1;stroke-miterlimit:4;" d="M 182.00026 165.499976 L 198.000317 165.499976 L 214.000374 166.000203 L 262.49974 166.000203 " transform="matrix(3.779528,0,0,3.779528,0,0)"/>
<path style="fill:none;stroke-width:2;stroke-linecap:butt;stroke-linejoin:miter;stroke:rgb(0%,0%,0%);stroke-opacity:1;stroke-miterlimit:4;" d="M 298.499609 169.499731 L 300.499487 159.500342 L 298.499609 150.000146 L 282.499552 146.499585 L 266.000301 148.500496 L 202.500301 148.500496 L 186.500244 150.500374 L 170.500187 153.00048 L 146.999813 158.499886 L 132.500439 160.499764 L 122.500016 159.999536 L 114.500505 144.499707 L 114.500505 128.000456 L 116.000155 112.000399 L 132.000212 107.999609 L 125.999544 101.999976 " transform="matrix(3.779528,0,0,3.779528,0,0)"/>
<path style="fill:none;stroke-width:2;stroke-linecap:butt;stroke-linejoin:miter;stroke:rgb(0%,0%,0%);stroke-opacity:1;stroke-miterlimit:4;" d="M 136.500195 109.500293 L 138.500073 107.999609 L 125.999544 123.999666 L 125.50035 139.999723 L 121.499561 152.000024 L 116.999577 153.999902 L 132.999634 162.000448 " transform="matrix(3.779528,0,0,3.779528,0,0)"/>
<path style="fill:none;stroke-width:2;stroke-linecap:butt;stroke-linejoin:miter;stroke:rgb(0%,0%,0%);stroke-opacity:1;stroke-miterlimit:4;" d="M 144.000513 154.50013 L 139.999723 137.999845 L 134.00009 117.499805 " transform="matrix(3.779528,0,0,3.779528,0,0)"/>
<path style="fill:none;stroke-width:2;stroke-linecap:butt;stroke-linejoin:miter;stroke:rgb(0%,0%,0%);stroke-opacity:1;stroke-miterlimit:4;" d="M 145.500163 116.999577 L 161.50022 80.999707 L 178.000505 69.000439 L 198.000317 65.499878 L 214.499569 66.000106 L 279.500252 66.000106 L 297.500187 64.000228 L 313.500244 64.500456 L 329.000073 70.50009 L 345.00013 94.499658 L 361.000187 94.499658 L 376.500016 98.00022 " transform="matrix(3.779528,0,0,3.779528,0,0)"/>
<path style="fill:none;stroke-width:2;stroke-linecap:butt;stroke-linejoin:miter;stroke:rgb(0%,0%,0%);stroke-opacity:1;stroke-miterlimit:4;" d="M 376.500016 104.500081 L 370.500382 120.500138 L 370.500382 136.500195 L 366.499593 152.500252 " transform="matrix(3.779528,0,0,3.779528,0,0)"/>
<path style="fill:none;stroke-width:2;stroke-linecap:butt;stroke-linejoin:miter;stroke:rgb(0%,0%,0%);stroke-opacity:1;stroke-miterlimit:4;" d="M 292.499976 115.499927 L 275.999691 131.499984 L 259.999634 137.499618 L 243.999577 129.500106 L 218.00013 121.499561 L 202.000073 133.499862 L 185.499788 127.500228 L 182.999683 115.499927 L 184.500366 100.000098 L 184.500366 84.500269 L 168.999504 104.500081 " transform="matrix(3.779528,0,0,3.779528,0,0)"/>
<path style="fill:none;stroke-width:2;stroke-linecap:butt;stroke-linejoin:miter;stroke:rgb(0%,0%,0%);stroke-opacity:1;stroke-miterlimit:4;" d="M 168.000081 112.999821 L 184.000138 134.500317 L 200.500423 139.999723 L 216.50048 132.000212 L 241.000277 105.499504 L 257.000334 87.499569 L 273.499585 85.499691 L 289.499642 97.499992 " transform="matrix(3.779528,0,0,3.779528,0,0)"/>
<path style="fill:none;stroke-width:2;stroke-linecap:butt;stroke-linejoin:miter;stroke:rgb(0%,0%,0%);stroke-opacity:1;stroke-miterlimit:4;" d="M 266.999723 107.999609 L 250.999666 116.500382 L 266.999723 110.499715 L 256.500106 94.499658 " transform="matrix(3.779528,0,0,3.779528,0,0)"/>
<path style="fill:none;stroke-width:2;stroke-linecap:butt;stroke-linejoin:miter;stroke:rgb(0%,0%,0%);stroke-opacity:1;stroke-miterlimit:4;" d="M 259.000212 86.500146 L 241.000277 102.500203 L 239.000399 118.000033 L 259.000212 133.499862 " transform="matrix(3.779528,0,0,3.779528,0,0)"/>
<path style="fill:none;stroke-width:2;stroke-linecap:butt;stroke-linejoin:miter;stroke:rgb(0%,0%,0%);stroke-opacity:1;stroke-miterlimit:4;" d="M 227.000098 94.000464 L 211.000041 81.499935 L 195.500212 78.999829 " transform="matrix(3.779528,0,0,3.779528,0,0)"/>
<path style="fill:none;stroke-width:2;stroke-linecap:butt;stroke-linejoin:miter;stroke:rgb(0%,0%,0%);stroke-opacity:1;stroke-miterlimit:4;" d="M 198.499512 89.999674 L 214.499569 98.00022 " transform="matrix(3.779528,0,0,3.779528,0,0)"/>
<path style="fill:none;stroke-width:2;stroke-linecap:butt;stroke-linejoin:miter;stroke:rgb(0%,0%,0%);stroke-opacity:1;stroke-miterlimit:4;" d="M 212.000496 108.499837 L 203.499723 92.49978 L 197.50009 96.000342 L 181.500033 105.999731 " transform="matrix(3.779528,0,0,3.779528,0,0)"/>
<path style="fill:none;stroke-width:2;stroke-linecap:butt;stroke-linejoin:miter;stroke:rgb(0%,0%,0%);stroke-opacity:1;stroke-miterlimit:4;" d="M 184.999561 114.000277 L 200.999618 118.000033 " transform="matrix(3.779528,0,0,3.779528,0,0)"/>
<path style="fill:none;stroke-width:2;stroke-linecap:butt;stroke-linejoin:miter;stroke:rgb(0%,0%,0%);stroke-opacity:1;stroke-miterlimit:4;" d="M 213.500146 115.499927 L 213.500146 99.49987 L 212.999919 89.50048 L 196.499634 83.499813 L 180.499577 93.500236 " transform="matrix(3.779528,0,0,3.779528,0,0)"/>
<path style="fill:none;stroke-width:2;stroke-linecap:butt;stroke-linejoin:miter;stroke:rgb(0%,0%,0%);stroke-opacity:1;stroke-miterlimit:4;" d="M 195.500212 96.499536 L 205.499601 112.499593 " transform="matrix(3.779528,0,0,3.779528,0,0)"/>
<path style="fill:none;stroke-width:2;stroke-linecap:butt;stroke-linejoin:miter;stroke:rgb(0%,0%,0%);stroke-opacity:1;stroke-miterlimit:4;" d="M 184.500366 127 L 175.000171 111.500171 L 182.999683 95.500114 L 180.499577 77.500179 L 164.49952 87.499569 " transform="matrix(3.779528,0,0,3.779528,0,0)"/>
<path style="fill:none;stroke-width:2;stroke-linecap:butt;stroke-linejoin:miter;stroke:rgb(0%,0%,0%);stroke-opacity:1;stroke-miterlimit:4;" d="M 172.500065 71.000317 L 160.499764 86.500146 L 154.50013 102.500203 L 146.499585 118.50026 L 144.499707 134.500317 L 148.500496 150.500374 L 155.000358 166.500431 L 157.000236 182.500488 " transform="matrix(3.779528,0,0,3.779528,0,0)"/>
<path style="fill:none;stroke-width:2;stroke-linecap:butt;stroke-linejoin:miter;stroke:rgb(0%,0%,0%);stroke-opacity:1;stroke-miterlimit:4;" d="M 190.5 136.500195 L 172.500065 121.000366 L 169.999959 105.000309 L 180.000382 89.000252 L 189.499544 69.000439 L 173.000293 64.99965 L 157.500464 78.999829 L 141.500407 94.999886 L 125.50035 95.500114 L 109.999487 113.500049 " transform="matrix(3.779528,0,0,3.779528,0,0)"/>
<path style="fill:none;stroke-width:2;stroke-linecap:butt;stroke-linejoin:miter;stroke:rgb(0%,0%,0%);stroke-opacity:1;stroke-miterlimit:4;" d="M 114.000277 118.000033 L 130.000334 112.000399 L 114.000277 105.999731 L 107.999609 121.999788 L 107.999609 137.999845 L 111.500171 153.999902 L 121.999788 169.999959 L 132.000212 169.499731 L 148.000269 167.499854 L 164.49952 193.000106 L 180.499577 194.999984 L 196.000439 194.999984 L 212.000496 195.500212 L 227.99952 195.500212 L 234.000187 199.499967 L 250.000244 201.499845 L 268.000179 195.500212 L 284.500464 196.000439 L 300.499487 196.499634 L 316.499544 190.5 L 332.000407 174.499943 " transform="matrix(3.779528,0,0,3.779528,0,0)"/>
<path style="fill:none;stroke-width:2;stroke-linecap:butt;stroke-linejoin:miter;stroke:rgb(0%,0%,0%);stroke-opacity:1;stroke-miterlimit:4;" d="M 242.499927 208.499935 L 225.00022 216.50048 L 223.000342 200.500423 " transform="matrix(3.779528,0,0,3.779528,0,0)"/>
<path style="fill:none;stroke-width:2;stroke-linecap:butt;stroke-linejoin:miter;stroke:rgb(0%,0%,0%);stroke-opacity:1;stroke-miterlimit:4;" d="M 123.500472 145.500163 L 121.000366 135.49974 L 119.000488 119.99991 " transform="matrix(3.779528,0,0,3.779528,0,0)"/>
<path style="fill:none;stroke-width:2;stroke-linecap:butt;stroke-linejoin:miter;stroke:rgb(0%,0%,0%);stroke-opacity:1;stroke-miterlimit:4;" d="M 144.499707 105.499504 L 139.999723 121.499561 L 132.000212 137.499618 L 134.00009 153.00048 " transform="matrix(3.779528,0,0,3.779528,0,0)"/>
<path style="fill:none;stroke-width:2;stroke-linecap:butt;stroke-linejoin:miter;stroke:rgb(0%,0%,0%);stroke-opacity:1;stroke-miterlimit:4;" d="M 85.999919 144.499707 L 78.000407 160.999992 L 75.500301 171.000415 " transform="matrix(3.779528,0,0,3.779528,0,0)"/>
<path style="fill:none;stroke-width:2;stroke-linecap:butt;stroke-linejoin:miter;stroke:rgb(0%,0%,0%);stroke-opacity:1;stroke-miterlimit:4;" d="M 71.499512 165.499976 L 57.500366 175.999593 L 51.000505 176.499821 L 55.00026 174.499943 L 64.99965 158.499886 L 80.500513 142.499829 " transform="matrix(3.779528,0,0,3.779528,0,0)"/>
<path style="fill:none;stroke-width:2;stroke-linecap:butt;stroke-linejoin:miter;stroke:rgb(0%,0%,0%);stroke-opacity:1;stroke-miterlimit:4;" d="M 100.500326 75.999495 L 100.000098 75.999495 L 105.499504 75.500301 L 105.000309 59.500244 L 100.99952 57.500366 L 85.000496 62.999772 " transform="matrix(3.779528,0,0,3.779528,0,0)"/>
<path style="fill:none;stroke-width:2;stroke-linecap:butt;stroke-linejoin:miter;stroke:rgb(0%,0%,0%);stroke-opacity:1;stroke-miterlimit:4;" d="M 85.999919 64.500456 L 87.499569 80.000285 " transform="matrix(3.779528,0,0,3.779528,0,0)"/>
<path style="fill:none;stroke-width:2;stroke-linecap:butt;stroke-linejoin:miter;stroke:rgb(0%,0%,0%);stroke-opacity:1;stroke-miterlimit:4;" d="M 84.000041 91.00013 L 77.500179 81.499935 L 81.499935 66.000106 L 95.500114 50.000049 L 97.499992 50.000049 L 81.499935 60.000472 " transform="matrix(3.779528,0,0,3.779528,0,0)"/>
<path style="fill:none;stroke-width:2;stroke-linecap:butt;stroke-linejoin:miter;stroke:rgb(0%,0%,0%);stroke-opacity:1;stroke-miterlimit:4;" d="M 91.999552 73.500423 L 101.999976 57.500366 " transform="matrix(3.779528,0,0,3.779528,0,0)"/>
<path style="fill:none;stroke-width:2;stroke-linecap:butt;stroke-linejoin:miter;stroke:rgb(0%,0%,0%);stroke-opacity:1;stroke-miterlimit:4;" d="M 130.999756 57.999561 L 130.999756 41.999504 L 146.499585 26.00048 L 164.49952 9.500195 L 146.000391 26.00048 L 130.000334 32.000114 " transform="matrix(3.779528,0,0,3.779528,0,0)"/>
<path style="fill:none;stroke-width:2;stroke-linecap:butt;stroke-linejoin:miter;stroke:rgb(0%,0%,0%);stroke-opacity:1;stroke-miterlimit:4;" d="M 123.000244 30.000236 L 139.000301 19.999813 L 155.499552 9.500195 L 151.499797 12.000301 L 125.50035 28.000358 L 123.500472 44.000415 L 117.499805 60.000472 L 123.999666 64.000228 L 126.499772 66.000106 " transform="matrix(3.779528,0,0,3.779528,0,0)"/>
<path style="fill:none;stroke-width:2;stroke-linecap:butt;stroke-linejoin:miter;stroke:rgb(0%,0%,0%);stroke-opacity:1;stroke-miterlimit:4;" d="M 157.500464 43.500187 L 144.999935 51.499699 L 151.499797 35.99987 L 159.000114 19.999813 " transform="matrix(3.779528,0,0,3.779528,0,0)"/>
<path style="fill:none;stroke-width:2;stroke-linecap:butt;stroke-linejoin:miter;stroke:rgb(0%,0%,0%);stroke-opacity:1;stroke-miterlimit:4;" d="M 211.000041 82.500391 L 221.000464 98.500448 L 225.00022 114.000277 L 209.000163 130.000334 L 212.499691 118.000033 L 240.500049 95.500114 L 256.500106 81.499935 L 272.500163 82.000163 L 288.50022 91.999552 " transform="matrix(3.779528,0,0,3.779528,0,0)"/>
<path style="fill:none;stroke-width:2;stroke-linecap:butt;stroke-linejoin:miter;stroke:rgb(0%,0%,0%);stroke-opacity:1;stroke-miterlimit:4;" d="M 262.999967 80.999707 L 240.500049 96.999764 L 234.999609 112.999821 L 244.499805 130.999756 " transform="matrix(3.779528,0,0,3.779528,0,0)"/>
<path style="fill:none;stroke-width:2;stroke-linecap:butt;stroke-linejoin:miter;stroke:rgb(0%,0%,0%);stroke-opacity:1;stroke-miterlimit:4;" d="M 211.500269 134.500317 L 227.500326 118.50026 L 229.500203 102.500203 L 215.500024 86.500146 " transform="matrix(3.779528,0,0,3.779528,0,0)"/>
</g>
</svg>
