<?xml version="1.0" encoding="UTF-8"?>
<svg xmlns="http://www.w3.org/2000/svg" xmlns:xlink="http://www.w3.org/1999/xlink" width="1935.11811" height="1935.11811" viewBox="0 0 1935.11811 1935.11811" version="1.1">
<g id="surface1">
<path style="fill:none;stroke-width:2;stroke-linecap:butt;stroke-linejoin:miter;stroke:rgb(0%,0%,0%);stroke-opacity:1;stroke-miterlimit:4;" d="M 209.500391 54.500033 L 183.49991 70.50009 L 175.500399 86.500146 L 169.499731 102.500203 L 165.499976 119.000488 L 161.50022 134.999512 L 157.500464 150.999569 L 153.499674 166.999626 L 148.999691 182.999683 L 144.999935 198.499512 L 140.499951 214.499569 L 137.000423 230.499626 L 132.999634 246.499683 L 127 262.49974 L 125.50035 277.999569 L 121.499561 293.500431 L 119.499683 309.00026 L 111.500171 341.000374 L 107.500415 356.500203 L 105.999731 372.50026 L 101.999976 388.500317 L 100.500326 404.500374 L 100.500326 420.999626 L 114.500505 416.99987 L 130.499528 427.000293 L 146.499585 436.999683 L 162.499642 445.500456 L 194.499756 457.499723 L 210.499813 461.500513 L 226.49987 466.000496 L 241.999699 468.000374 L 273.499585 468.000374 L 289.000448 466.000496 L 305.000505 454.000195 " transform="matrix(3.779528,0,0,3.779528,0,0)"/>
<path style="fill:none;stroke-width:2;stroke-linecap:butt;stroke-linejoin:miter;stroke:rgb(0%,0%,0%);stroke-opacity:1;stroke-miterlimit:4;" d="M 279.500252 409.499552 L 277.500374 399.500163 " transform="matrix(3.779528,0,0,3.779528,0,0)"/>
<path style="fill:none;stroke-width:2;stroke-linecap:butt;stroke-linejoin:miter;stroke:rgb(0%,0%,0%);stroke-opacity:1;stroke-miterlimit:4;" d="M 277.500374 399.500163 L 255.49965 415.50022 L 255.999878 431.500277 " transform="matrix(3.779528,0,0,3.779528,0,0)"/>
<path style="fill:none;stroke-width:2;stroke-linecap:butt;stroke-linejoin:miter;stroke:rgb(0%,0%,0%);stroke-opacity:1;stroke-miterlimit:4;" d="M 254 432.999927 L 270.500285 438.500366 " transform="matrix(3.779528,0,0,3.779528,0,0)"/>
<path style="fill:none;stroke-width:2;stroke-linecap:butt;stroke-linejoin:miter;stroke:rgb(0%,0%,0%);stroke-opacity:1;stroke-miterlimit:4;" d="M 275.000269 433.500155 L 259.000212 427.000293 " transform="matrix(3.779528,0,0,3.779528,0,0)"/>
<path style="fill:none;stroke-width:2;stroke-linecap:butt;stroke-linejoin:miter;stroke:rgb(0%,0%,0%);stroke-opacity:1;stroke-miterlimit:4;" d="M 254.500228 419.499976 L 270.500285 403.499919 L 258.499984 406.000024 L 248.499561 422.000081 L 252.50035 438.000138 L 262.49974 440.000016 L 278.499797 445.99965 L 293.999626 434.000382 " transform="matrix(3.779528,0,0,3.779528,0,0)"/>
<path style="fill:none;stroke-width:2;stroke-linecap:butt;stroke-linejoin:miter;stroke:rgb(0%,0%,0%);stroke-opacity:1;stroke-miterlimit:4;" d="M 287.999992 418.49952 L 286.000114 402.000269 L 273.999813 407.499674 " transform="matrix(3.779528,0,0,3.779528,0,0)"/>
<path style="fill:none;stroke-width:2;stroke-linecap:butt;stroke-linejoin:miter;stroke:rgb(0%,0%,0%);stroke-opacity:1;stroke-miterlimit:4;" d="M 252.000122 436.500488 L 268.000179 450.499634 L 284.000236 448.499756 L 300.000293 434.000382 L 301.499943 431.500277 L 283.500008 447.500334 " transform="matrix(3.779528,0,0,3.779528,0,0)"/>
<path style="fill:none;stroke-width:2;stroke-linecap:butt;stroke-linejoin:miter;stroke:rgb(0%,0%,0%);stroke-opacity:1;stroke-miterlimit:4;" d="M 226.49987 409.000358 L 210.499813 402.999691 " transform="matrix(3.779528,0,0,3.779528,0,0)"/>
<path style="fill:none;stroke-width:2;stroke-linecap:butt;stroke-linejoin:miter;stroke:rgb(0%,0%,0%);stroke-opacity:1;stroke-miterlimit:4;" d="M 206.500057 402.500496 L 225.00022 418.49952 " transform="matrix(3.779528,0,0,3.779528,0,0)"/>
<path style="fill:none;stroke-width:2;stroke-linecap:butt;stroke-linejoin:miter;stroke:rgb(0%,0%,0%);stroke-opacity:1;stroke-miterlimit:4;" d="M 230.499626 425.000415 L 214.999797 432.499699 L 198.99974 418.49952 " transform="matrix(3.779528,0,0,3.779528,0,0)"/>
<path style="fill:none;stroke-width:2;stroke-linecap:butt;stroke-linejoin:miter;stroke:rgb(0%,0%,0%);stroke-opacity:1;stroke-miterlimit:4;" d="M 191.500456 420.000203 L 207.500513 436.00026 L 223.999764 436.00026 L 239.999821 422.000081 L 255.999878 408.50013 L 271.999935 396.499829 L 287.999992 396.499829 L 292.499976 402.000269 L 302.500399 418.000326 L 294.499854 433.500155 " transform="matrix(3.779528,0,0,3.779528,0,0)"/>
<path style="fill:none;stroke-width:2;stroke-linecap:butt;stroke-linejoin:miter;stroke:rgb(0%,0%,0%);stroke-opacity:1;stroke-miterlimit:4;" d="M 227.000098 398.000513 L 211.000041 395.500407 L 194.999984 411.500464 " transform="matrix(3.779528,0,0,3.779528,0,0)"/>
<path style="fill:none;stroke-width:2;stroke-linecap:butt;stroke-linejoin:miter;stroke:rgb(0%,0%,0%);stroke-opacity:1;stroke-miterlimit:4;" d="M 204.500179 398.499707 L 196.999862 414.499764 L 209.000163 431.000049 " transform="matrix(3.779528,0,0,3.779528,0,0)"/>
<path style="fill:none;stroke-width:2;stroke-linecap:butt;stroke-linejoin:miter;stroke:rgb(0%,0%,0%);stroke-opacity:1;stroke-miterlimit:4;" d="M 239.499593 422.000081 L 239.000399 405.499797 L 237.499715 401.500041 L 221.499658 387.499862 L 205.999829 393.000301 L 189.999772 409.000358 L 175.999593 413.000114 L 178.000505 400.999813 L 182.00026 384.999756 L 173.999715 368.999699 L 169.999959 365.500171 L 148.000269 369.499927 " transform="matrix(3.779528,0,0,3.779528,0,0)"/>
<path style="fill:none;stroke-width:2;stroke-linecap:butt;stroke-linejoin:miter;stroke:rgb(0%,0%,0%);stroke-opacity:1;stroke-miterlimit:4;" d="M 144.999935 368.000277 L 160.999992 366.000399 " transform="matrix(3.779528,0,0,3.779528,0,0)"/>
<path style="fill:none;stroke-width:2;stroke-linecap:butt;stroke-linejoin:miter;stroke:rgb(0%,0%,0%);stroke-opacity:1;stroke-miterlimit:4;" d="M 146.999813 359.999731 L 130.999756 375.499561 L 129.500106 391.499618 L 141.999601 407.499674 " transform="matrix(3.779528,0,0,3.779528,0,0)"/>
<path style="fill:none;stroke-width:2;stroke-linecap:butt;stroke-linejoin:miter;stroke:rgb(0%,0%,0%);stroke-opacity:1;stroke-miterlimit:4;" d="M 139.999723 393.999723 L 155.99978 407.999902 L 171.499609 402.000269 " transform="matrix(3.779528,0,0,3.779528,0,0)"/>
<path style="fill:none;stroke-width:2;stroke-linecap:butt;stroke-linejoin:miter;stroke:rgb(0%,0%,0%);stroke-opacity:1;stroke-miterlimit:4;" d="M 170.500187 379.999544 L 155.000358 377.500472 L 139.000301 373.499683 " transform="matrix(3.779528,0,0,3.779528,0,0)"/>
<path style="fill:none;stroke-width:2;stroke-linecap:butt;stroke-linejoin:miter;stroke:rgb(0%,0%,0%);stroke-opacity:1;stroke-miterlimit:4;" d="M 140.499951 373.499683 L 158.499886 375.499561 L 177.500277 389.49974 L 162.000448 405.499797 " transform="matrix(3.779528,0,0,3.779528,0,0)"/>
<path style="fill:none;stroke-width:2;stroke-linecap:butt;stroke-linejoin:miter;stroke:rgb(0%,0%,0%);stroke-opacity:1;stroke-miterlimit:4;" d="M 180.999805 398.000513 L 164.999748 411.999658 L 148.500496 409.99978 L 132.999634 393.499495 " transform="matrix(3.779528,0,0,3.779528,0,0)"/>
<path style="fill:none;stroke-width:2;stroke-linecap:butt;stroke-linejoin:miter;stroke:rgb(0%,0%,0%);stroke-opacity:1;stroke-miterlimit:4;" d="M 132.999634 373.99991 L 148.999691 359.499504 L 164.999748 359.499504 L 180.999805 377.999666 " transform="matrix(3.779528,0,0,3.779528,0,0)"/>
<path style="fill:none;stroke-width:2;stroke-linecap:butt;stroke-linejoin:miter;stroke:rgb(0%,0%,0%);stroke-opacity:1;stroke-miterlimit:4;" d="M 194.999984 361.999609 L 178.999927 357.999854 L 162.99987 350.499536 L 146.999813 340.500146 L 130.999756 320.500334 " transform="matrix(3.779528,0,0,3.779528,0,0)"/>
<path style="fill:none;stroke-width:2;stroke-linecap:butt;stroke-linejoin:miter;stroke:rgb(0%,0%,0%);stroke-opacity:1;stroke-miterlimit:4;" d="M 128.999878 318.500456 L 144.999935 330.499723 L 160.499764 344.499902 L 176.499821 352.500448 L 208.499935 360.499959 L 224.499992 361.999609 L 239.999821 361.999609 L 271.999935 357.999854 L 288.50022 350.000342 L 304.500277 339.999919 L 320.500334 323.499634 " transform="matrix(3.779528,0,0,3.779528,0,0)"/>
<path style="fill:none;stroke-width:2;stroke-linecap:butt;stroke-linejoin:miter;stroke:rgb(0%,0%,0%);stroke-opacity:1;stroke-miterlimit:4;" d="M 318.500456 286.000114 L 302.000171 270.000057 L 286.000114 259.999634 L 270.000057 255.999878 " transform="matrix(3.779528,0,0,3.779528,0,0)"/>
<path style="fill:none;stroke-width:2;stroke-linecap:butt;stroke-linejoin:miter;stroke:rgb(0%,0%,0%);stroke-opacity:1;stroke-miterlimit:4;" d="M 270.500285 256.500106 L 282.499552 288.50022 L 294.499854 302.500399 L 288.50022 318.500456 L 284.500464 334.500513 " transform="matrix(3.779528,0,0,3.779528,0,0)"/>
<path style="fill:none;stroke-width:2;stroke-linecap:butt;stroke-linejoin:miter;stroke:rgb(0%,0%,0%);stroke-opacity:1;stroke-miterlimit:4;" d="M 291.49952 296.499731 L 275.500496 272.500163 L 255.49965 248.499561 " transform="matrix(3.779528,0,0,3.779528,0,0)"/>
<path style="fill:none;stroke-width:2;stroke-linecap:butt;stroke-linejoin:miter;stroke:rgb(0%,0%,0%);stroke-opacity:1;stroke-miterlimit:4;" d="M 264.000423 237.999943 L 280.00048 252.000122 L 295.999504 259.999634 L 311.999561 270.000057 " transform="matrix(3.779528,0,0,3.779528,0,0)"/>
<path style="fill:none;stroke-width:2;stroke-linecap:butt;stroke-linejoin:miter;stroke:rgb(0%,0%,0%);stroke-opacity:1;stroke-miterlimit:4;" d="M 334.000285 252.999544 L 317.5 241.000277 L 301.499943 228.999976 L 285.499886 218.500358 L 269.499829 212.999919 " transform="matrix(3.779528,0,0,3.779528,0,0)"/>
<path style="fill:none;stroke-width:2;stroke-linecap:butt;stroke-linejoin:miter;stroke:rgb(0%,0%,0%);stroke-opacity:1;stroke-miterlimit:4;" d="M 273.999813 205.999829 L 289.99987 214.000374 L 306.500155 215.500024 L 322.500212 230.000431 " transform="matrix(3.779528,0,0,3.779528,0,0)"/>
<path style="fill:none;stroke-width:2;stroke-linecap:butt;stroke-linejoin:miter;stroke:rgb(0%,0%,0%);stroke-opacity:1;stroke-miterlimit:4;" d="M 325.499512 225.00022 L 309.500488 211.000041 L 291.49952 198.499512 L 275.500496 194.499756 " transform="matrix(3.779528,0,0,3.779528,0,0)"/>
<path style="fill:none;stroke-width:2;stroke-linecap:butt;stroke-linejoin:miter;stroke:rgb(0%,0%,0%);stroke-opacity:1;stroke-miterlimit:4;" d="M 268.999601 202.000073 L 284.999658 205.999829 L 311.500366 215.500024 " transform="matrix(3.779528,0,0,3.779528,0,0)"/>
<path style="fill:none;stroke-width:2;stroke-linecap:butt;stroke-linejoin:miter;stroke:rgb(0%,0%,0%);stroke-opacity:1;stroke-miterlimit:4;" d="M 325.499512 218.999552 L 309.500488 203.499723 L 293.500431 193.500334 L 277.999569 187.499666 L 270.000057 189.499544 L 264.000423 186.000016 L 248.000366 186.500244 " transform="matrix(3.779528,0,0,3.779528,0,0)"/>
<path style="fill:none;stroke-width:2;stroke-linecap:butt;stroke-linejoin:miter;stroke:rgb(0%,0%,0%);stroke-opacity:1;stroke-miterlimit:4;" d="M 248.999788 195.500212 L 279.500252 209.999585 L 305.999927 225.500448 L 323.999862 241.000277 " transform="matrix(3.779528,0,0,3.779528,0,0)"/>
<path style="fill:none;stroke-width:2;stroke-linecap:butt;stroke-linejoin:miter;stroke:rgb(0%,0%,0%);stroke-opacity:1;stroke-miterlimit:4;" d="M 295.500309 243.000155 L 279.500252 237.499715 L 264.000423 231.500081 " transform="matrix(3.779528,0,0,3.779528,0,0)"/>
<path style="fill:none;stroke-width:2;stroke-linecap:butt;stroke-linejoin:miter;stroke:rgb(0%,0%,0%);stroke-opacity:1;stroke-miterlimit:4;" d="M 268.000179 234.000187 L 302.000171 250.000244 L 318.000228 266.000301 L 327.999618 282.499552 L 329.999495 298.499609 L 325.99974 314.499666 L 313.500244 330.499723 L 293.000203 346.49978 " transform="matrix(3.779528,0,0,3.779528,0,0)"/>
<path style="fill:none;stroke-width:2;stroke-linecap:butt;stroke-linejoin:miter;stroke:rgb(0%,0%,0%);stroke-opacity:1;stroke-miterlimit:4;" d="M 333.500057 282.499552 L 317.5 256.500106 L 307.999805 246.99991 L 307.999805 243.000155 L 300.499487 228.999976 L 268.000179 212.999919 L 254 205.000407 " transform="matrix(3.779528,0,0,3.779528,0,0)"/>
<path style="fill:none;stroke-width:2;stroke-linecap:butt;stroke-linejoin:miter;stroke:rgb(0%,0%,0%);stroke-opacity:1;stroke-miterlimit:4;" d="M 254 208.499935 L 270.000057 207.000285 L 269.499829 216.999674 L 285.499886 225.00022 L 311.999561 228.499748 L 327.999618 246.000488 " transform="matrix(3.779528,0,0,3.779528,0,0)"/>
<path style="fill:none;stroke-width:2;stroke-linecap:butt;stroke-linejoin:miter;stroke:rgb(0%,0%,0%);stroke-opacity:1;stroke-miterlimit:4;" d="M 289.499642 232.000309 L 273.499585 223.999764 L 257.499528 221.999886 " transform="matrix(3.779528,0,0,3.779528,0,0)"/>
<path style="fill:none;stroke-width:2;stroke-linecap:butt;stroke-linejoin:miter;stroke:rgb(0%,0%,0%);stroke-opacity:1;stroke-miterlimit:4;" d="M 271.499707 224.499992 L 295.500309 240.500049 L 314.999894 256.500106 L 329.000073 272.500163 L 332.499601 287.999992 L 332.499601 304.000049 L 326.499967 319.499878 L 314.999894 335.499935 L 293.000203 351.499992 " transform="matrix(3.779528,0,0,3.779528,0,0)"/>
<path style="fill:none;stroke-width:2;stroke-linecap:butt;stroke-linejoin:miter;stroke:rgb(0%,0%,0%);stroke-opacity:1;stroke-miterlimit:4;" d="M 275.000269 313.500244 L 259.000212 313.500244 L 243.000155 309.500488 L 227.000098 305.999927 " transform="matrix(3.779528,0,0,3.779528,0,0)"/>
<path style="fill:none;stroke-width:2;stroke-linecap:butt;stroke-linejoin:miter;stroke:rgb(0%,0%,0%);stroke-opacity:1;stroke-miterlimit:4;" d="M 232.000309 314.999894 L 214.000374 293.000203 L 205.499601 276.499919 L 191.500456 276.499919 L 175.500399 275.999691 L 159.500342 287.999992 " transform="matrix(3.779528,0,0,3.779528,0,0)"/>
<path style="fill:none;stroke-width:2;stroke-linecap:butt;stroke-linejoin:miter;stroke:rgb(0%,0%,0%);stroke-opacity:1;stroke-miterlimit:4;" d="M 155.499552 284.999658 L 171.499609 273.000391 L 193.500334 277.000146 L 205.499601 293.500431 L 197.50009 309.500488 L 179.500155 309.500488 L 184.000138 289.99987 L 191.99965 300.499487 L 186.000016 305.000505 " transform="matrix(3.779528,0,0,3.779528,0,0)"/>
<path style="fill:none;stroke-width:2;stroke-linecap:butt;stroke-linejoin:miter;stroke:rgb(0%,0%,0%);stroke-opacity:1;stroke-miterlimit:4;" d="M 202.000073 285.499886 L 202.000073 271.000513 L 186.000016 266.999723 " transform="matrix(3.779528,0,0,3.779528,0,0)"/>
<path style="fill:none;stroke-width:2;stroke-linecap:butt;stroke-linejoin:miter;stroke:rgb(0%,0%,0%);stroke-opacity:1;stroke-miterlimit:4;" d="M 175.500399 261.999512 L 191.500456 262.49974 L 207.500513 268.999601 L 223.499536 277.500374 L 239.000399 282.000358 " transform="matrix(3.779528,0,0,3.779528,0,0)"/>
<path style="fill:none;stroke-width:2;stroke-linecap:butt;stroke-linejoin:miter;stroke:rgb(0%,0%,0%);stroke-opacity:1;stroke-miterlimit:4;" d="M 232.499504 280.499674 L 266.499495 296.499731 " transform="matrix(3.779528,0,0,3.779528,0,0)"/>
<path style="fill:none;stroke-width:2;stroke-linecap:butt;stroke-linejoin:miter;stroke:rgb(0%,0%,0%);stroke-opacity:1;stroke-miterlimit:4;" d="M 261.999512 286.999536 L 246.000488 277.000146 L 230.000431 273.499585 L 214.000374 257.499528 " transform="matrix(3.779528,0,0,3.779528,0,0)"/>
<path style="fill:none;stroke-width:2;stroke-linecap:butt;stroke-linejoin:miter;stroke:rgb(0%,0%,0%);stroke-opacity:1;stroke-miterlimit:4;" d="M 212.499691 257.499528 L 220.000008 273.499585 L 225.999642 293.500431 L 216.000252 307.000382 L 205.999829 320.999528 L 212.499691 316.499544 L 228.499748 316.499544 L 243.999577 322.500212 L 259.999634 328.499845 " transform="matrix(3.779528,0,0,3.779528,0,0)"/>
<path style="fill:none;stroke-width:2;stroke-linecap:butt;stroke-linejoin:miter;stroke:rgb(0%,0%,0%);stroke-opacity:1;stroke-miterlimit:4;" d="M 260.499862 272.500163 L 244.499805 255.000456 L 212.000496 255.000456 " transform="matrix(3.779528,0,0,3.779528,0,0)"/>
<path style="fill:none;stroke-width:2;stroke-linecap:butt;stroke-linejoin:miter;stroke:rgb(0%,0%,0%);stroke-opacity:1;stroke-miterlimit:4;" d="M 207.000285 238.500171 L 223.000342 248.499561 L 239.000399 248.499561 L 261.500317 258.499984 L 267.499951 274.500041 L 271.499707 290.500098 L 275.000269 306.500155 L 286.999536 302.500399 L 279.000024 320.000106 " transform="matrix(3.779528,0,0,3.779528,0,0)"/>
<path style="fill:none;stroke-width:2;stroke-linecap:butt;stroke-linejoin:miter;stroke:rgb(0%,0%,0%);stroke-opacity:1;stroke-miterlimit:4;" d="M 281.50013 345.00013 L 307.499577 329.000073 L 321.499756 313.500244 L 325.499512 297.500187 L 319.499878 281.50013 L 304.000049 265.500073 L 268.000179 250.000244 L 262.49974 234.000187 L 236.999487 230.499626 L 221.000464 230.499626 L 205.499601 234.500415 " transform="matrix(3.779528,0,0,3.779528,0,0)"/>
<path style="fill:none;stroke-width:2;stroke-linecap:butt;stroke-linejoin:miter;stroke:rgb(0%,0%,0%);stroke-opacity:1;stroke-miterlimit:4;" d="M 200.000195 220.500236 L 216.000252 224.499992 L 232.499504 224.499992 " transform="matrix(3.779528,0,0,3.779528,0,0)"/>
<path style="fill:none;stroke-width:2;stroke-linecap:butt;stroke-linejoin:miter;stroke:rgb(0%,0%,0%);stroke-opacity:1;stroke-miterlimit:4;" d="M 234.500415 205.499601 L 218.500358 205.999829 L 202.500301 205.999829 " transform="matrix(3.779528,0,0,3.779528,0,0)"/>
<path style="fill:none;stroke-width:2;stroke-linecap:butt;stroke-linejoin:miter;stroke:rgb(0%,0%,0%);stroke-opacity:1;stroke-miterlimit:4;" d="M 199.499967 212.000496 L 231.500081 212.000496 " transform="matrix(3.779528,0,0,3.779528,0,0)"/>
<path style="fill:none;stroke-width:2;stroke-linecap:butt;stroke-linejoin:miter;stroke:rgb(0%,0%,0%);stroke-opacity:1;stroke-miterlimit:4;" d="M 228.999976 202.500301 L 212.999919 202.500301 L 197.50009 189.999772 L 181.500033 193.999528 " transform="matrix(3.779528,0,0,3.779528,0,0)"/>
<path style="fill:none;stroke-width:2;stroke-linecap:butt;stroke-linejoin:miter;stroke:rgb(0%,0%,0%);stroke-opacity:1;stroke-miterlimit:4;" d="M 179.500155 189.999772 L 194.999984 186.000016 L 211.000041 173.499487 " transform="matrix(3.779528,0,0,3.779528,0,0)"/>
<path style="fill:none;stroke-width:2;stroke-linecap:butt;stroke-linejoin:miter;stroke:rgb(0%,0%,0%);stroke-opacity:1;stroke-miterlimit:4;" d="M 218.500358 144.499707 L 246.499683 173.999715 L 254.500228 181.500033 L 260.499862 179.500155 L 275.999691 180.999805 L 291.999748 187.499666 L 307.499577 195.500212 " transform="matrix(3.779528,0,0,3.779528,0,0)"/>
<path style="fill:none;stroke-width:2;stroke-linecap:butt;stroke-linejoin:miter;stroke:rgb(0%,0%,0%);stroke-opacity:1;stroke-miterlimit:4;" d="M 316.999772 202.500301 L 320.500334 198.499512 " transform="matrix(3.779528,0,0,3.779528,0,0)"/>
<path style="fill:none;stroke-width:2;stroke-linecap:butt;stroke-linejoin:miter;stroke:rgb(0%,0%,0%);stroke-opacity:1;stroke-miterlimit:4;" d="M 329.999495 186.500244 L 314.000472 182.500488 L 297.500187 174.499943 L 281.50013 168.500309 L 265.500073 164.49952 L 248.999788 164.49952 L 232.499504 156.500008 L 216.50048 123.000244 " transform="matrix(3.779528,0,0,3.779528,0,0)"/>
<path style="fill:none;stroke-width:2;stroke-linecap:butt;stroke-linejoin:miter;stroke:rgb(0%,0%,0%);stroke-opacity:1;stroke-miterlimit:4;" d="M 215.500024 139.999723 L 231.500081 163.500098 L 247.500138 191.500456 L 259.500439 183.49991 L 259.500439 199.499967 L 252.999544 207.500513 L 283.500008 223.499536 L 314.000472 223.000342 L 329.999495 239.499593 " transform="matrix(3.779528,0,0,3.779528,0,0)"/>
<path style="fill:none;stroke-width:2;stroke-linecap:butt;stroke-linejoin:miter;stroke:rgb(0%,0%,0%);stroke-opacity:1;stroke-miterlimit:4;" d="M 369.499927 211.500269 L 385.499984 165.499976 " transform="matrix(3.779528,0,0,3.779528,0,0)"/>
<path style="fill:none;stroke-width:2;stroke-linecap:butt;stroke-linejoin:miter;stroke:rgb(0%,0%,0%);stroke-opacity:1;stroke-miterlimit:4;" d="M 381.500228 162.000448 L 387.499862 145.500163 L 359.999731 153.499674 " transform="matrix(3.779528,0,0,3.779528,0,0)"/>
<path style="fill:none;stroke-width:2;stroke-linecap:butt;stroke-linejoin:miter;stroke:rgb(0%,0%,0%);stroke-opacity:1;stroke-miterlimit:4;" d="M 333.500057 157.999658 L 323.999862 137.999845 L 334.500513 148.000269 L 318.500456 145.500163 " transform="matrix(3.779528,0,0,3.779528,0,0)"/>
<path style="fill:none;stroke-width:2;stroke-linecap:butt;stroke-linejoin:miter;stroke:rgb(0%,0%,0%);stroke-opacity:1;stroke-miterlimit:4;" d="M 334.999707 148.500496 L 343.000252 132.500439 " transform="matrix(3.779528,0,0,3.779528,0,0)"/>
<path style="fill:none;stroke-width:2;stroke-linecap:butt;stroke-linejoin:miter;stroke:rgb(0%,0%,0%);stroke-opacity:1;stroke-miterlimit:4;" d="M 373.99991 137.999845 L 357.999854 132.000212 L 341.499569 125.999544 L 325.99974 119.99991 L 309.999683 116.500382 L 293.999626 110.499715 L 277.500374 105.000309 L 261.500317 100.500326 L 245.50026 94.499658 L 229.500203 85.999919 L 213.500146 82.999585 L 197.50009 96.999764 " transform="matrix(3.779528,0,0,3.779528,0,0)"/>
<path style="fill:none;stroke-width:2;stroke-linecap:butt;stroke-linejoin:miter;stroke:rgb(0%,0%,0%);stroke-opacity:1;stroke-miterlimit:4;" d="M 203.999951 95.500114 L 212.000496 111.500171 L 220.000008 128.000456 L 221.999886 144.000513 L 230.000431 159.500342 L 236.500293 175.500399 L 243.999577 191.500456 L 236.000065 193.500334 L 236.000065 209.500391 L 252.50035 217.499902 L 257.000334 233.499959 L 262.49974 250.000244 L 268.999601 266.000301 L 275.000269 282.000358 L 277.000146 298.000415 L 273.000391 314.000472 L 273.000391 324.50009 L 264.499618 340.500146 L 250.500472 342.500024 L 258.499984 350.999764 L 274.500041 345.00013 L 290.500098 336.999585 L 306.500155 325.000317 " transform="matrix(3.779528,0,0,3.779528,0,0)"/>
<path style="fill:none;stroke-width:2;stroke-linecap:butt;stroke-linejoin:miter;stroke:rgb(0%,0%,0%);stroke-opacity:1;stroke-miterlimit:4;" d="M 291.49952 327.999618 L 281.50013 321.999984 L 263.500195 321.999984 L 247.500138 318.000228 L 231.500081 311.500366 L 211.000041 304.000049 L 196.999862 325.99974 L 191.000228 327.999618 L 175.500399 329.500301 L 195.500212 317.5 L 213.500146 302.000171 L 220.000008 286.000114 L 202.000073 280.00048 L 207.999707 271.499707 L 212.000496 267.499951 L 202.000073 243.500382 L 186.000016 249.500016 " transform="matrix(3.779528,0,0,3.779528,0,0)"/>
<path style="fill:none;stroke-width:2;stroke-linecap:butt;stroke-linejoin:miter;stroke:rgb(0%,0%,0%);stroke-opacity:1;stroke-miterlimit:4;" d="M 184.500366 248.499561 L 200.500423 238.500171 L 208.499935 246.000488 L 184.500366 250.000244 L 164.49952 264.000423 L 150.500374 280.00048 L 141.999601 295.999504 L 144.000513 311.500366 L 157.999658 327.500423 L 178.000505 343.999674 L 202.000073 363.999487 L 218.00013 366.000399 L 234.000187 368.000277 L 250.000244 366.000399 L 266.000301 363.999487 L 281.50013 357.999854 L 298.000415 350.000342 L 314.000472 337.499813 L 329.999495 315.500122 " transform="matrix(3.779528,0,0,3.779528,0,0)"/>
<path style="fill:none;stroke-width:2;stroke-linecap:butt;stroke-linejoin:miter;stroke:rgb(0%,0%,0%);stroke-opacity:1;stroke-miterlimit:4;" d="M 318.000228 320.500334 L 302.000171 334.500513 L 286.000114 344.499902 L 269.499829 352.999642 L 253.499772 357.000431 L 236.999487 357.000431 L 221.000464 356.500203 L 205.000407 354.500326 L 189.499544 348.000464 L 173.499487 339.499691 L 165.499976 321.499756 L 149.499919 309.500488 " transform="matrix(3.779528,0,0,3.779528,0,0)"/>
<path style="fill:none;stroke-width:2;stroke-linecap:butt;stroke-linejoin:miter;stroke:rgb(0%,0%,0%);stroke-opacity:1;stroke-miterlimit:4;" d="M 145.500163 307.999805 L 161.50022 302.000171 L 173.499487 304.000049 L 162.99987 307.999805 L 178.499699 319.499878 L 193.999528 314.000472 L 209.500391 311.999561 L 225.500448 302.500399 L 241.000277 305.000505 L 256.500106 309.00026 L 272.500163 305.000505 " transform="matrix(3.779528,0,0,3.779528,0,0)"/>
<path style="fill:none;stroke-width:2;stroke-linecap:butt;stroke-linejoin:miter;stroke:rgb(0%,0%,0%);stroke-opacity:1;stroke-miterlimit:4;" d="M 277.999569 330.499723 L 261.999512 341.999797 L 259.999634 335.499935 L 243.999577 350.999764 L 227.99952 350.999764 L 212.000496 348.999886 L 196.499634 345.500358 L 180.999805 337.499813 L 164.999748 333.500057 L 148.999691 315.500122 " transform="matrix(3.779528,0,0,3.779528,0,0)"/>
<path style="fill:none;stroke-width:2;stroke-linecap:butt;stroke-linejoin:miter;stroke:rgb(0%,0%,0%);stroke-opacity:1;stroke-miterlimit:4;" d="M 130.000334 313.000016 L 139.999723 329.000073 L 157.500464 345.00013 " transform="matrix(3.779528,0,0,3.779528,0,0)"/>
<path style="fill:none;stroke-width:2;stroke-linecap:butt;stroke-linejoin:miter;stroke:rgb(0%,0%,0%);stroke-opacity:1;stroke-miterlimit:4;" d="M 176.499821 323.000439 L 166.999626 313.000016 L 150.999569 296.999959 L 160.999992 295.000081 L 168.999504 279.500252 L 146.999813 295.999504 " transform="matrix(3.779528,0,0,3.779528,0,0)"/>
<path style="fill:none;stroke-width:2;stroke-linecap:butt;stroke-linejoin:miter;stroke:rgb(0%,0%,0%);stroke-opacity:1;stroke-miterlimit:4;" d="M 143.000057 290.500098 L 159.000114 270.000057 L 164.999748 257.999756 L 164.999748 275.500496 L 154.50013 283.500008 L 146.000391 299.500065 L 153.999902 315.500122 L 171.499609 333.500057 L 205.499601 349.500114 " transform="matrix(3.779528,0,0,3.779528,0,0)"/>
<path style="fill:none;stroke-width:2;stroke-linecap:butt;stroke-linejoin:miter;stroke:rgb(0%,0%,0%);stroke-opacity:1;stroke-miterlimit:4;" d="M 217.499902 386.999634 L 231.500081 402.999691 L 235.499837 419.499976 " transform="matrix(3.779528,0,0,3.779528,0,0)"/>
<path style="fill:none;stroke-width:2;stroke-linecap:butt;stroke-linejoin:miter;stroke:rgb(0%,0%,0%);stroke-opacity:1;stroke-miterlimit:4;" d="M 230.499626 413.500342 L 214.000374 397.500285 " transform="matrix(3.779528,0,0,3.779528,0,0)"/>
<path style="fill:none;stroke-width:2;stroke-linecap:butt;stroke-linejoin:miter;stroke:rgb(0%,0%,0%);stroke-opacity:1;stroke-miterlimit:4;" d="M 210.499813 388.999512 L 192.499878 405.499797 L 191.99965 421.499854 L 209.999585 437.49991 " transform="matrix(3.779528,0,0,3.779528,0,0)"/>
<path style="fill:none;stroke-width:2;stroke-linecap:butt;stroke-linejoin:miter;stroke:rgb(0%,0%,0%);stroke-opacity:1;stroke-miterlimit:4;" d="M 168.500309 450.000439 L 135.999967 434.000382 L 111.500171 418.000326 L 107.500415 402.500496 L 111.500171 370.500382 L 119.499683 338.500269 L 121.499561 323.000439 L 125.999544 307.000382 L 132.500439 291.000326 L 144.499707 274.500041 L 146.499585 266.000301 L 169.999959 250.000244 L 191.99965 233.499959 L 191.99965 221.499658 L 176.499821 228.999976 " transform="matrix(3.779528,0,0,3.779528,0,0)"/>
<path style="fill:none;stroke-width:2;stroke-linecap:butt;stroke-linejoin:miter;stroke:rgb(0%,0%,0%);stroke-opacity:1;stroke-miterlimit:4;" d="M 205.499601 254 L 189.499544 254.500228 L 173.499487 260.499862 L 157.500464 262.999967 L 141.999601 277.000146 L 125.999544 304.500277 " transform="matrix(3.779528,0,0,3.779528,0,0)"/>
<path style="fill:none;stroke-width:2;stroke-linecap:butt;stroke-linejoin:miter;stroke:rgb(0%,0%,0%);stroke-opacity:1;stroke-miterlimit:4;" d="M 127.500228 318.500456 L 137.499618 334.500513 L 157.500464 350.499536 " transform="matrix(3.779528,0,0,3.779528,0,0)"/>
<path style="fill:none;stroke-width:2;stroke-linecap:butt;stroke-linejoin:miter;stroke:rgb(0%,0%,0%);stroke-opacity:1;stroke-miterlimit:4;" d="M 139.499495 371.499805 L 135.49974 387.499862 L 146.000391 403.499919 " transform="matrix(3.779528,0,0,3.779528,0,0)"/>
<path style="fill:none;stroke-width:2;stroke-linecap:butt;stroke-linejoin:miter;stroke:rgb(0%,0%,0%);stroke-opacity:1;stroke-miterlimit:4;" d="M 130.000334 454.500423 L 146.000391 460.500057 L 162.000448 466.000496 L 178.000505 472.00013 L 193.999528 475.499658 L 210.499813 479.00022 L 242.499927 484.000431 L 258.499984 486.499504 L 275.000269 486.499504 L 291.000326 484.999854 L 307.000382 479.00022 L 323.000439 459.000407 " transform="matrix(3.779528,0,0,3.779528,0,0)"/>
<path style="fill:none;stroke-width:2;stroke-linecap:butt;stroke-linejoin:miter;stroke:rgb(0%,0%,0%);stroke-opacity:1;stroke-miterlimit:4;" d="M 286.000114 338.500269 L 307.999805 322.500212 L 320.500334 305.999927 L 320.500334 289.99987 L 306.500155 274.500041 L 279.000024 258.499984 " transform="matrix(3.779528,0,0,3.779528,0,0)"/>
<path style="fill:none;stroke-width:2;stroke-linecap:butt;stroke-linejoin:miter;stroke:rgb(0%,0%,0%);stroke-opacity:1;stroke-miterlimit:4;" d="M 341.499569 225.999642 L 337.499813 209.500391 L 327.999618 203.499723 L 311.500366 187.499666 L 295.500309 177.500277 L 279.500252 171.499609 L 259.500439 171.499609 L 253.499772 166.999626 L 241.500505 177.500277 L 233.499959 159.999536 L 225.999642 144.000513 L 205.999829 122.500016 L 202.000073 101.999976 " transform="matrix(3.779528,0,0,3.779528,0,0)"/>
<path style="fill:none;stroke-width:2;stroke-linecap:butt;stroke-linejoin:miter;stroke:rgb(0%,0%,0%);stroke-opacity:1;stroke-miterlimit:4;" d="M 202.000073 102.500203 L 207.500513 118.000033 L 215.500024 131.499984 L 219.49978 149.499919 L 225.999642 166.000203 L 223.999764 182.00026 L 241.999699 214.000374 L 246.000488 221.999886 L 246.499683 237.999943 L 252.50035 237.499715 L 259.000212 253.499772 L 259.000212 269.499829 L 264.499618 286.000114 L 270.500285 289.99987 " transform="matrix(3.779528,0,0,3.779528,0,0)"/>
<path style="fill:none;stroke-width:2;stroke-linecap:butt;stroke-linejoin:miter;stroke:rgb(0%,0%,0%);stroke-opacity:1;stroke-miterlimit:4;" d="M 327.000195 221.499658 L 311.000138 205.999829 L 286.999536 198.499512 L 291.000326 188.500122 " transform="matrix(3.779528,0,0,3.779528,0,0)"/>
<path style="fill:none;stroke-width:2;stroke-linecap:butt;stroke-linejoin:miter;stroke:rgb(0%,0%,0%);stroke-opacity:1;stroke-miterlimit:4;" d="M 275.500496 172.500065 L 309.500488 188.500122 L 309.500488 198.499512 L 325.499512 214.499569 L 331.500179 230.499626 " transform="matrix(3.779528,0,0,3.779528,0,0)"/>
<path style="fill:none;stroke-width:2;stroke-linecap:butt;stroke-linejoin:miter;stroke:rgb(0%,0%,0%);stroke-opacity:1;stroke-miterlimit:4;" d="M 377.999666 169.999959 L 361.999609 166.000203 L 345.999552 162.499642 L 329.999495 156.500008 L 314.000472 150.000146 L 298.000415 144.000513 L 289.99987 128.000456 L 298.000415 111.500171 L 286.000114 139.999723 L 270.000057 134.00009 L 254.500228 130.499528 L 239.000399 127 L 223.000342 121.000366 L 207.000285 98.999642 " transform="matrix(3.779528,0,0,3.779528,0,0)"/>
<path style="fill:none;stroke-width:2;stroke-linecap:butt;stroke-linejoin:miter;stroke:rgb(0%,0%,0%);stroke-opacity:1;stroke-miterlimit:4;" d="M 214.000374 83.499813 L 198.000317 99.49987 L 201.499845 115.499927 L 207.500513 131.499984 L 213.500146 147.500041 L 220.000008 164.000326 L 207.999707 179.500155 L 230.000431 179.500155 L 209.999585 187.999894 L 193.999528 203.999951 L 180.000382 220.500236 L 175.999593 224.499992 L 191.99965 214.000374 L 212.000496 216.000252 L 227.99952 215.500024 " transform="matrix(3.779528,0,0,3.779528,0,0)"/>
<path style="fill:none;stroke-width:2;stroke-linecap:butt;stroke-linejoin:miter;stroke:rgb(0%,0%,0%);stroke-opacity:1;stroke-miterlimit:4;" d="M 280.00048 168.000081 L 313.500244 184.000138 L 334.000285 192.499878 L 338.000041 204.500179 L 338.500269 209.999585 L 342.500024 225.500448 L 343.000252 239.999821 L 320.999528 243.999577 L 329.000073 259.999634 L 339.000496 252.000122 " transform="matrix(3.779528,0,0,3.779528,0,0)"/>
<path style="fill:none;stroke-width:2;stroke-linecap:butt;stroke-linejoin:miter;stroke:rgb(0%,0%,0%);stroke-opacity:1;stroke-miterlimit:4;" d="M 340.500146 130.999756 L 325.000317 139.000301 L 306.500155 148.999691 L 261.00009 132.999634 " transform="matrix(3.779528,0,0,3.779528,0,0)"/>
<path style="fill:none;stroke-width:2;stroke-linecap:butt;stroke-linejoin:miter;stroke:rgb(0%,0%,0%);stroke-opacity:1;stroke-miterlimit:4;" d="M 294.499854 134.500317 L 300.499487 119.000488 " transform="matrix(3.779528,0,0,3.779528,0,0)"/>
<path style="fill:none;stroke-width:2;stroke-linecap:butt;stroke-linejoin:miter;stroke:rgb(0%,0%,0%);stroke-opacity:1;stroke-miterlimit:4;" d="M 303.499821 115.499927 L 351.499992 131.499984 L 361.500415 147.500041 L 365.500171 168.999504 " transform="matrix(3.779528,0,0,3.779528,0,0)"/>
<path style="fill:none;stroke-width:2;stroke-linecap:butt;stroke-linejoin:miter;stroke:rgb(0%,0%,0%);stroke-opacity:1;stroke-miterlimit:4;" d="M 385.499984 107.999609 L 369.499927 100.000098 L 353.49987 94.000464 L 337.499813 87.999797 L 321.499756 82.000163 L 305.499699 75.999495 L 289.000448 75.999495 L 273.000391 71.99974 L 257.000334 66.000106 L 241.000277 61.500122 L 225.00022 59.500244 L 209.000163 59.500244 L 193.500334 67.999984 L 178.000505 94.000464 " transform="matrix(3.779528,0,0,3.779528,0,0)"/>
<path style="fill:none;stroke-width:2;stroke-linecap:butt;stroke-linejoin:miter;stroke:rgb(0%,0%,0%);stroke-opacity:1;stroke-miterlimit:4;" d="M 169.999959 100.500326 L 186.000016 66.000106 L 201.499845 58.499788 L 217.499902 54.500033 L 234.000187 54.500033 L 250.500472 58.499788 L 266.499495 62.499544 L 282.499552 66.000106 L 298.499609 67.999984 L 314.499666 71.499512 L 330.499723 79.500057 L 346.49978 85.499691 L 362.499837 91.999552 L 378.499894 98.00022 " transform="matrix(3.779528,0,0,3.779528,0,0)"/>
<path style="fill:none;stroke-width:2;stroke-linecap:butt;stroke-linejoin:miter;stroke:rgb(0%,0%,0%);stroke-opacity:1;stroke-miterlimit:4;" d="M 305.000505 75.999495 L 347.500236 91.999552 L 381 107.500415 L 393.499495 123.500472 L 391.499618 139.499495 L 389.999967 155.499552 L 384.000334 171.499609 L 378.499894 187.999894 L 374.500138 203.999951 L 368.999699 220.500236 L 357.000431 268.500407 L 352.999642 284.000236 L 350.999764 300.000293 L 347.000008 315.500122 L 343.000252 332.000407 L 339.000496 348.000464 L 334.999707 364.499715 L 333.500057 380.499772 L 329.500301 396.499829 L 325.000317 412.499886 L 320.999528 428.499943 L 314.499666 443.999772 L 298.000415 459.999829 " transform="matrix(3.779528,0,0,3.779528,0,0)"/>
<path style="fill:none;stroke-width:2;stroke-linecap:butt;stroke-linejoin:miter;stroke:rgb(0%,0%,0%);stroke-opacity:1;stroke-miterlimit:4;" d="M 268.000179 101.499748 L 225.999642 85.000496 " transform="matrix(3.779528,0,0,3.779528,0,0)"/>
<path style="fill:none;stroke-width:2;stroke-linecap:butt;stroke-linejoin:miter;stroke:rgb(0%,0%,0%);stroke-opacity:1;stroke-miterlimit:4;" d="M 209.000163 59.500244 L 184.999561 75.500301 L 179.500155 91.500358 L 175.500399 107.500415 L 171.999837 123.000244 L 166.000203 139.499495 L 162.000448 155.499552 L 157.999658 171.999837 L 153.999902 187.999894 L 150.000146 204.500179 L 146.000391 220.500236 L 141.999601 236.999487 L 137.499618 252.999544 L 135.49974 268.500407 L 141.500407 270.500285 L 157.500464 255.999878 L 173.999715 248.000366 L 189.499544 236.000065 L 203.999951 198.000317 L 220.000008 173.999715 L 225.999642 189.999772 L 241.999699 210.499813 L 255.999878 230.000431 L 271.499707 230.000431 L 287.499764 235.499837 L 303.499821 239.000399 L 317.5 263.500195 " transform="matrix(3.779528,0,0,3.779528,0,0)"/>
<path style="fill:none;stroke-width:2;stroke-linecap:butt;stroke-linejoin:miter;stroke:rgb(0%,0%,0%);stroke-opacity:1;stroke-miterlimit:4;" d="M 305.499699 69.000439 L 345.500358 85.000496 L 383.500106 100.99952 L 399.500163 117.499805 L 400.000391 134.00009 L 395.999601 150.500374 L 391.999845 166.500431 L 386.000212 184.500366 L 382.000456 200.500423 L 376.500016 216.50048 L 373.000488 232.499504 L 366.999821 248.499561 L 362.499837 264.499618 L 360.499959 280.499674 L 352.500448 312.499788 L 350.499536 327.999618 L 345.999552 343.999674 L 338.000041 375.999788 L 336.500391 391.999845 L 332.499601 407.999902 L 328.499845 423.499731 L 327.999618 438.999561 L 323.999862 454.999618 L 313.500244 470.999674 " transform="matrix(3.779528,0,0,3.779528,0,0)"/>
</g>
</svg>
