<?xml version="1.0" encoding="UTF-8"?>
<svg xmlns="http://www.w3.org/2000/svg" xmlns:xlink="http://www.w3.org/1999/xlink" width="1935.11811" height="1935.11811" viewBox="0 0 1935.11811 1935.11811" version="1.1">
<g id="surface1">
<path style="fill:none;stroke-width:2;stroke-linecap:butt;stroke-linejoin:miter;stroke:rgb(0%,0%,0%);stroke-opacity:1;stroke-miterlimit:4;" d="M 505.499894 182.500488 L 477.499536 198.499512 L 479.500448 214.499569 L 483.500203 230.499626 L 483.500203 246.99991 L 509.49965 223.000342 " transform="matrix(3.779528,0,0,3.779528,0,0)"/>
<path style="fill:none;stroke-width:2;stroke-linecap:butt;stroke-linejoin:miter;stroke:rgb(0%,0%,0%);stroke-opacity:1;stroke-miterlimit:4;" d="M 482.499748 209.000163 L 492.500171 200.500423 L 481.000098 200.500423 L 477.499536 196.499634 L 493.499593 188.500122 L 509.49965 182.500488 " transform="matrix(3.779528,0,0,3.779528,0,0)"/>
<path style="fill:none;stroke-width:2;stroke-linecap:butt;stroke-linejoin:miter;stroke:rgb(0%,0%,0%);stroke-opacity:1;stroke-miterlimit:4;" d="M 481.500326 200.000195 L 499.50026 189.499544 L 499.50026 205.499601 L 487.499959 221.499658 L 497.500382 225.500448 L 486.999731 241.500505 L 499.50026 239.499593 L 500.000488 230.999854 L 493.999821 237.499715 " transform="matrix(3.779528,0,0,3.779528,0,0)"/>
<path style="fill:none;stroke-width:2;stroke-linecap:butt;stroke-linejoin:miter;stroke:rgb(0%,0%,0%);stroke-opacity:1;stroke-miterlimit:4;" d="M 504.500472 251.499894 L 494.500049 255.49965 L 502.000366 236.999487 L 506.000122 221.000464 L 495.999699 213.500146 L 479.999642 213.500146 " transform="matrix(3.779528,0,0,3.779528,0,0)"/>
<path style="fill:none;stroke-width:2;stroke-linecap:butt;stroke-linejoin:miter;stroke:rgb(0%,0%,0%);stroke-opacity:1;stroke-miterlimit:4;" d="M 443.499544 268.999601 L 427.000293 266.999723 L 411.000236 271.000513 L 395.000179 295.000081 L 379.000122 295.000081 L 354.99952 314.999894 L 338.500269 347.500236 L 322.500212 377.000244 L 306.500155 407.00048 L 292.499976 434.999805 L 274.500041 465.000041 L 258.499984 490.500293 L 240.500049 502.499561 L 241.000277 502.499561 L 232.999731 495.999699 L 255.000456 477.999764 L 262.999967 461.999707 L 271.000513 445.99965 L 278.499797 429.999593 L 289.000448 413.500342 L 294.499854 393.499495 L 300.000293 377.500472 L 302.000171 367.500049 L 311.999561 363.500293 L 320.500334 347.500236 L 327.999618 331.500179 L 336.000163 316.00035 L 343.999674 300.000293 L 348.000464 283.500008 L 332.000407 267.499951 " transform="matrix(3.779528,0,0,3.779528,0,0)"/>
<path style="fill:none;stroke-width:2;stroke-linecap:butt;stroke-linejoin:miter;stroke:rgb(0%,0%,0%);stroke-opacity:1;stroke-miterlimit:4;" d="M 313.000016 266.499495 L 329.000073 266.499495 L 345.00013 272.500163 L 363.500293 290.500098 L 359.499504 306.500155 L 351.499992 322.500212 L 343.000252 338.500269 L 334.999707 354.500326 L 327.000195 370.000155 L 318.500456 385.499984 L 310.49991 401.500041 L 296.499731 417.500098 L 298.499609 421.499854 L 284.500464 432.000505 L 275.999691 448.499756 L 261.500317 476.500114 L 265.500073 468.499569 L 282.000358 436.500488 L 298.000415 406.500252 " transform="matrix(3.779528,0,0,3.779528,0,0)"/>
<path style="fill:none;stroke-width:2;stroke-linecap:butt;stroke-linejoin:miter;stroke:rgb(0%,0%,0%);stroke-opacity:1;stroke-miterlimit:4;" d="M 282.499552 400.000391 L 275.000269 386.500439 L 279.000024 370.500382 L 269.499829 378.499894 " transform="matrix(3.779528,0,0,3.779528,0,0)"/>
<path style="fill:none;stroke-width:2;stroke-linecap:butt;stroke-linejoin:miter;stroke:rgb(0%,0%,0%);stroke-opacity:1;stroke-miterlimit:4;" d="M 275.000269 375.000366 L 291.000326 366.999821 L 307.000382 379.000122 L 322.500212 344.499902 L 338.000041 311.999561 " transform="matrix(3.779528,0,0,3.779528,0,0)"/>
<path style="fill:none;stroke-width:2;stroke-linecap:butt;stroke-linejoin:miter;stroke:rgb(0%,0%,0%);stroke-opacity:1;stroke-miterlimit:4;" d="M 321.499756 330.999951 L 316.999772 339.000496 L 300.999715 347.000008 L 311.500366 336.500391 L 315.500122 320.999528 L 316.00035 313.000016 L 300.000293 316.999772 L 284.500464 323.499634 L 268.500407 321.999984 L 252.50035 320.000106 " transform="matrix(3.779528,0,0,3.779528,0,0)"/>
<path style="fill:none;stroke-width:2;stroke-linecap:butt;stroke-linejoin:miter;stroke:rgb(0%,0%,0%);stroke-opacity:1;stroke-miterlimit:4;" d="M 225.00022 322.500212 L 209.000163 314.499666 " transform="matrix(3.779528,0,0,3.779528,0,0)"/>
<path style="fill:none;stroke-width:2;stroke-linecap:butt;stroke-linejoin:miter;stroke:rgb(0%,0%,0%);stroke-opacity:1;stroke-miterlimit:4;" d="M 205.000407 315.500122 L 221.000464 311.500366 " transform="matrix(3.779528,0,0,3.779528,0,0)"/>
<path style="fill:none;stroke-width:2;stroke-linecap:butt;stroke-linejoin:miter;stroke:rgb(0%,0%,0%);stroke-opacity:1;stroke-miterlimit:4;" d="M 209.500391 302.000171 L 225.500448 307.999805 L 227.500326 321.999984 L 246.000488 321.499756 L 262.49974 325.499512 L 278.499797 327.500423 L 294.499854 325.499512 L 310.49991 319.499878 L 293.999626 319.499878 L 299.500065 333.500057 L 295.500309 343.50048 L 287.499764 353.49987 L 287.499764 369.499927 L 283.500008 385.499984 L 286.000114 371.499805 L 291.999748 381.500228 " transform="matrix(3.779528,0,0,3.779528,0,0)"/>
<path style="fill:none;stroke-width:2;stroke-linecap:butt;stroke-linejoin:miter;stroke:rgb(0%,0%,0%);stroke-opacity:1;stroke-miterlimit:4;" d="M 300.000293 404.000146 L 298.499609 391.499618 L 282.499552 393.999723 L 274.500041 395.999601 L 268.000179 380.499772 L 275.999691 364.499715 L 266.000301 354.500326 L 250.000244 352.00022 L 234.000187 345.999552 L 217.499902 345.999552 L 201.499845 339.999919 " transform="matrix(3.779528,0,0,3.779528,0,0)"/>
<path style="fill:none;stroke-width:2;stroke-linecap:butt;stroke-linejoin:miter;stroke:rgb(0%,0%,0%);stroke-opacity:1;stroke-miterlimit:4;" d="M 206.500057 341.499569 L 243.999577 357.499626 " transform="matrix(3.779528,0,0,3.779528,0,0)"/>
<path style="fill:none;stroke-width:2;stroke-linecap:butt;stroke-linejoin:miter;stroke:rgb(0%,0%,0%);stroke-opacity:1;stroke-miterlimit:4;" d="M 221.499658 341.000374 L 205.499601 330.999951 " transform="matrix(3.779528,0,0,3.779528,0,0)"/>
<path style="fill:none;stroke-width:2;stroke-linecap:butt;stroke-linejoin:miter;stroke:rgb(0%,0%,0%);stroke-opacity:1;stroke-miterlimit:4;" d="M 202.000073 330.999951 L 218.00013 327.000195 L 234.000187 327.500423 L 249.500016 333.500057 L 265.500073 338.000041 L 280.999902 338.000041 " transform="matrix(3.779528,0,0,3.779528,0,0)"/>
<path style="fill:none;stroke-width:2;stroke-linecap:butt;stroke-linejoin:miter;stroke:rgb(0%,0%,0%);stroke-opacity:1;stroke-miterlimit:4;" d="M 309.500488 340.500146 L 293.999626 342.500024 L 275.999691 344.499902 L 259.999634 342.500024 L 243.999577 338.000041 L 225.999642 339.999919 L 209.999585 323.999862 " transform="matrix(3.779528,0,0,3.779528,0,0)"/>
<path style="fill:none;stroke-width:2;stroke-linecap:butt;stroke-linejoin:miter;stroke:rgb(0%,0%,0%);stroke-opacity:1;stroke-miterlimit:4;" d="M 187.499666 330.999951 L 201.499845 296.999959 L 195.500212 313.000016 L 189.499544 329.500301 L 197.50009 339.499691 L 195.500212 355.499748 L 221.999886 372.000033 " transform="matrix(3.779528,0,0,3.779528,0,0)"/>
<path style="fill:none;stroke-width:2;stroke-linecap:butt;stroke-linejoin:miter;stroke:rgb(0%,0%,0%);stroke-opacity:1;stroke-miterlimit:4;" d="M 232.000309 375.499561 L 216.000252 367.500049 L 200.000195 357.499626 " transform="matrix(3.779528,0,0,3.779528,0,0)"/>
<path style="fill:none;stroke-width:2;stroke-linecap:butt;stroke-linejoin:miter;stroke:rgb(0%,0%,0%);stroke-opacity:1;stroke-miterlimit:4;" d="M 197.50009 354.000098 L 213.500146 358.500081 L 229.500203 366.999821 " transform="matrix(3.779528,0,0,3.779528,0,0)"/>
<path style="fill:none;stroke-width:2;stroke-linecap:butt;stroke-linejoin:miter;stroke:rgb(0%,0%,0%);stroke-opacity:1;stroke-miterlimit:4;" d="M 228.999976 397.500285 L 212.999919 389.999967 L 197.50009 379.999544 " transform="matrix(3.779528,0,0,3.779528,0,0)"/>
<path style="fill:none;stroke-width:2;stroke-linecap:butt;stroke-linejoin:miter;stroke:rgb(0%,0%,0%);stroke-opacity:1;stroke-miterlimit:4;" d="M 198.000317 381 L 221.999886 397.000057 " transform="matrix(3.779528,0,0,3.779528,0,0)"/>
<path style="fill:none;stroke-width:2;stroke-linecap:butt;stroke-linejoin:miter;stroke:rgb(0%,0%,0%);stroke-opacity:1;stroke-miterlimit:4;" d="M 197.50009 393.999723 L 213.500146 407.999902 L 228.999976 416.499642 L 245.000033 420.500431 " transform="matrix(3.779528,0,0,3.779528,0,0)"/>
<path style="fill:none;stroke-width:2;stroke-linecap:butt;stroke-linejoin:miter;stroke:rgb(0%,0%,0%);stroke-opacity:1;stroke-miterlimit:4;" d="M 228.999976 389.49974 L 213.500146 382.000456 L 198.000317 372.000033 " transform="matrix(3.779528,0,0,3.779528,0,0)"/>
<path style="fill:none;stroke-width:2;stroke-linecap:butt;stroke-linejoin:miter;stroke:rgb(0%,0%,0%);stroke-opacity:1;stroke-miterlimit:4;" d="M 198.499512 374.500138 L 228.499748 390.500195 " transform="matrix(3.779528,0,0,3.779528,0,0)"/>
<path style="fill:none;stroke-width:2;stroke-linecap:butt;stroke-linejoin:miter;stroke:rgb(0%,0%,0%);stroke-opacity:1;stroke-miterlimit:4;" d="M 225.500448 382.49965 L 209.999585 373.99991 L 193.999528 372.50026 " transform="matrix(3.779528,0,0,3.779528,0,0)"/>
<path style="fill:none;stroke-width:2;stroke-linecap:butt;stroke-linejoin:miter;stroke:rgb(0%,0%,0%);stroke-opacity:1;stroke-miterlimit:4;" d="M 193.500334 384.499528 L 201.499845 400.499585 L 227.500326 416.499642 " transform="matrix(3.779528,0,0,3.779528,0,0)"/>
<path style="fill:none;stroke-width:2;stroke-linecap:butt;stroke-linejoin:miter;stroke:rgb(0%,0%,0%);stroke-opacity:1;stroke-miterlimit:4;" d="M 243.999577 425.999837 L 227.99952 419.499976 L 212.000496 411.500464 L 196.499634 398.999935 " transform="matrix(3.779528,0,0,3.779528,0,0)"/>
<path style="fill:none;stroke-width:2;stroke-linecap:butt;stroke-linejoin:miter;stroke:rgb(0%,0%,0%);stroke-opacity:1;stroke-miterlimit:4;" d="M 189.499544 389.999967 L 205.499601 391.999845 L 221.499658 400.499585 L 237.499715 408.50013 " transform="matrix(3.779528,0,0,3.779528,0,0)"/>
<path style="fill:none;stroke-width:2;stroke-linecap:butt;stroke-linejoin:miter;stroke:rgb(0%,0%,0%);stroke-opacity:1;stroke-miterlimit:4;" d="M 241.999699 438.999561 L 225.999642 434.999805 L 209.999585 427.000293 L 193.999528 419.499976 L 178.000505 413.500342 " transform="matrix(3.779528,0,0,3.779528,0,0)"/>
<path style="fill:none;stroke-width:2;stroke-linecap:butt;stroke-linejoin:miter;stroke:rgb(0%,0%,0%);stroke-opacity:1;stroke-miterlimit:4;" d="M 183.49991 415.50022 L 215.500024 431.500277 " transform="matrix(3.779528,0,0,3.779528,0,0)"/>
<path style="fill:none;stroke-width:2;stroke-linecap:butt;stroke-linejoin:miter;stroke:rgb(0%,0%,0%);stroke-opacity:1;stroke-miterlimit:4;" d="M 227.500326 454.000195 L 211.500269 447.500334 L 195.500212 439.499788 L 179.500155 429.500399 " transform="matrix(3.779528,0,0,3.779528,0,0)"/>
<path style="fill:none;stroke-width:2;stroke-linecap:butt;stroke-linejoin:miter;stroke:rgb(0%,0%,0%);stroke-opacity:1;stroke-miterlimit:4;" d="M 177.000049 427.499487 L 193.000106 431.500277 L 209.000163 439.499788 L 224.499992 445.500456 L 239.999821 448.999984 " transform="matrix(3.779528,0,0,3.779528,0,0)"/>
<path style="fill:none;stroke-width:2;stroke-linecap:butt;stroke-linejoin:miter;stroke:rgb(0%,0%,0%);stroke-opacity:1;stroke-miterlimit:4;" d="M 232.000309 492.500171 L 225.999642 494.500049 L 214.499569 496.499927 " transform="matrix(3.779528,0,0,3.779528,0,0)"/>
<path style="fill:none;stroke-width:2;stroke-linecap:butt;stroke-linejoin:miter;stroke:rgb(0%,0%,0%);stroke-opacity:1;stroke-miterlimit:4;" d="M 205.000407 493.499593 L 189.00035 491.999943 L 173.000293 484.000431 " transform="matrix(3.779528,0,0,3.779528,0,0)"/>
<path style="fill:none;stroke-width:2;stroke-linecap:butt;stroke-linejoin:miter;stroke:rgb(0%,0%,0%);stroke-opacity:1;stroke-miterlimit:4;" d="M 168.000081 477.999764 L 184.000138 484.000431 L 199.499967 491.999943 L 193.000106 479.500448 L 202.500301 485.500081 " transform="matrix(3.779528,0,0,3.779528,0,0)"/>
<path style="fill:none;stroke-width:2;stroke-linecap:butt;stroke-linejoin:miter;stroke:rgb(0%,0%,0%);stroke-opacity:1;stroke-miterlimit:4;" d="M 207.000285 490.000065 L 213.500146 474.000008 L 187.499666 466.000496 L 171.499609 468.000374 " transform="matrix(3.779528,0,0,3.779528,0,0)"/>
<path style="fill:none;stroke-width:2;stroke-linecap:butt;stroke-linejoin:miter;stroke:rgb(0%,0%,0%);stroke-opacity:1;stroke-miterlimit:4;" d="M 164.999748 469.500024 L 180.999805 455.499845 L 196.499634 466.000496 L 212.499691 474.000008 " transform="matrix(3.779528,0,0,3.779528,0,0)"/>
<path style="fill:none;stroke-width:2;stroke-linecap:butt;stroke-linejoin:miter;stroke:rgb(0%,0%,0%);stroke-opacity:1;stroke-miterlimit:4;" d="M 207.000285 445.99965 L 178.999927 429.999593 L 178.999927 413.999536 L 176.499821 407.999902 L 162.99987 417.500098 " transform="matrix(3.779528,0,0,3.779528,0,0)"/>
<path style="fill:none;stroke-width:2;stroke-linecap:butt;stroke-linejoin:miter;stroke:rgb(0%,0%,0%);stroke-opacity:1;stroke-miterlimit:4;" d="M 171.000415 428.499943 L 194.999984 416.000448 L 230.999854 432.000505 " transform="matrix(3.779528,0,0,3.779528,0,0)"/>
<path style="fill:none;stroke-width:2;stroke-linecap:butt;stroke-linejoin:miter;stroke:rgb(0%,0%,0%);stroke-opacity:1;stroke-miterlimit:4;" d="M 243.000155 434.499577 L 226.49987 430.499821 L 194.499756 413.500342 L 178.499699 404.999569 L 169.999959 435.500033 L 152.000024 440.000016 L 148.000269 459.999829 L 155.99978 444.5 L 148.000269 468.499569 " transform="matrix(3.779528,0,0,3.779528,0,0)"/>
<path style="fill:none;stroke-width:2;stroke-linecap:butt;stroke-linejoin:miter;stroke:rgb(0%,0%,0%);stroke-opacity:1;stroke-miterlimit:4;" d="M 150.999569 470.000252 L 166.999626 487.499959 L 182.999683 495.500505 L 198.99974 506.000122 " transform="matrix(3.779528,0,0,3.779528,0,0)"/>
<path style="fill:none;stroke-width:2;stroke-linecap:butt;stroke-linejoin:miter;stroke:rgb(0%,0%,0%);stroke-opacity:1;stroke-miterlimit:4;" d="M 146.999813 500.000488 L 134.999512 484.000431 L 139.000301 456.500301 L 148.999691 440.500244 L 141.000179 458.500179 " transform="matrix(3.779528,0,0,3.779528,0,0)"/>
<path style="fill:none;stroke-width:2;stroke-linecap:butt;stroke-linejoin:miter;stroke:rgb(0%,0%,0%);stroke-opacity:1;stroke-miterlimit:4;" d="M 142.499829 478.499992 L 160.999992 494.500049 L 173.000293 497.000155 L 180.999805 507.499772 " transform="matrix(3.779528,0,0,3.779528,0,0)"/>
<path style="fill:none;stroke-width:2;stroke-linecap:butt;stroke-linejoin:miter;stroke:rgb(0%,0%,0%);stroke-opacity:1;stroke-miterlimit:4;" d="M 184.500366 510.500106 L 168.500309 500.499683 L 153.00048 502.499561 L 137.000423 484.499626 " transform="matrix(3.779528,0,0,3.779528,0,0)"/>
<path style="fill:none;stroke-width:2;stroke-linecap:butt;stroke-linejoin:miter;stroke:rgb(0%,0%,0%);stroke-opacity:1;stroke-miterlimit:4;" d="M 132.000212 480.49987 L 148.000269 482.999976 L 163.500098 495.000277 L 179.500155 502.499561 " transform="matrix(3.779528,0,0,3.779528,0,0)"/>
<path style="fill:none;stroke-width:2;stroke-linecap:butt;stroke-linejoin:miter;stroke:rgb(0%,0%,0%);stroke-opacity:1;stroke-miterlimit:4;" d="M 137.000423 510.500106 L 120.500138 490.500293 " transform="matrix(3.779528,0,0,3.779528,0,0)"/>
<path style="fill:none;stroke-width:2;stroke-linecap:butt;stroke-linejoin:miter;stroke:rgb(0%,0%,0%);stroke-opacity:1;stroke-miterlimit:4;" d="M 117.499805 467.500146 L 133.499862 435.500033 L 150.000146 401.500041 L 166.000203 369.499927 L 182.00026 329.500301 L 198.000317 291.49952 L 214.000374 255.49965 L 230.000431 245.50026 L 246.000488 247.500138 L 261.500317 252.000122 L 277.500374 255.999878 L 309.500488 259.999634 L 325.99974 259.500439 L 342.500024 265.500073 L 358.500081 275.500496 " transform="matrix(3.779528,0,0,3.779528,0,0)"/>
<path style="fill:none;stroke-width:2;stroke-linecap:butt;stroke-linejoin:miter;stroke:rgb(0%,0%,0%);stroke-opacity:1;stroke-miterlimit:4;" d="M 323.000439 284.500464 L 313.000016 286.500342 " transform="matrix(3.779528,0,0,3.779528,0,0)"/>
<path style="fill:none;stroke-width:2;stroke-linecap:butt;stroke-linejoin:miter;stroke:rgb(0%,0%,0%);stroke-opacity:1;stroke-miterlimit:4;" d="M 299.500065 282.000358 L 283.500008 299.500065 L 268.000179 305.499699 L 251.499894 309.500488 L 247.500138 309.500488 L 231.500081 315.500122 L 263.500195 305.499699 L 297.500187 289.000448 L 303.499821 273.499585 L 299.500065 264.000423 L 284.000236 261.999512 L 268.000179 260.499862 L 252.000122 255.999878 " transform="matrix(3.779528,0,0,3.779528,0,0)"/>
<path style="fill:none;stroke-width:2;stroke-linecap:butt;stroke-linejoin:miter;stroke:rgb(0%,0%,0%);stroke-opacity:1;stroke-miterlimit:4;" d="M 251.499894 255.000456 L 249.500016 271.000513 L 247.500138 286.999536 L 239.499593 303.499821 L 234.000187 314.000472 L 232.000309 336.500391 L 248.000366 352.500448 L 248.000366 356.500203 L 264.000423 360.499959 L 280.499674 360.499959 L 298.999837 362.499837 L 325.000317 356.500203 " transform="matrix(3.779528,0,0,3.779528,0,0)"/>
<path style="fill:none;stroke-width:2;stroke-linecap:butt;stroke-linejoin:miter;stroke:rgb(0%,0%,0%);stroke-opacity:1;stroke-miterlimit:4;" d="M 300.999715 302.000171 L 284.999658 304.000049 L 268.999601 310.49991 L 252.999544 314.499666 L 284.500464 304.500277 " transform="matrix(3.779528,0,0,3.779528,0,0)"/>
<path style="fill:none;stroke-width:2;stroke-linecap:butt;stroke-linejoin:miter;stroke:rgb(0%,0%,0%);stroke-opacity:1;stroke-miterlimit:4;" d="M 242.499927 305.000505 L 236.999487 289.000448 L 234.500415 300.999715 L 241.000277 284.999658 " transform="matrix(3.779528,0,0,3.779528,0,0)"/>
<path style="fill:none;stroke-width:2;stroke-linecap:butt;stroke-linejoin:miter;stroke:rgb(0%,0%,0%);stroke-opacity:1;stroke-miterlimit:4;" d="M 236.500293 282.000358 L 230.499626 293.999626 L 230.499626 302.000171 L 216.50048 274.500041 L 200.500423 300.499487 " transform="matrix(3.779528,0,0,3.779528,0,0)"/>
<path style="fill:none;stroke-width:2;stroke-linecap:butt;stroke-linejoin:miter;stroke:rgb(0%,0%,0%);stroke-opacity:1;stroke-miterlimit:4;" d="M 207.000285 294.499854 L 202.999495 310.49991 L 198.99974 325.99974 L 191.000228 341.499569 L 182.999683 357.499626 L 173.000293 373.000488 L 171.499609 388.999512 L 168.000081 405.499797 L 162.000448 421.499854 L 164.000326 439.499788 L 157.999658 455.499845 L 150.000146 471.499902 L 164.000326 486.999731 L 191.99965 502.999788 L 214.000374 495.000277 L 230.000431 482.999976 L 246.000488 488.999609 L 261.999512 461.000285 L 277.500374 429.500399 L 293.500431 403.499919 " transform="matrix(3.779528,0,0,3.779528,0,0)"/>
<path style="fill:none;stroke-width:2;stroke-linecap:butt;stroke-linejoin:miter;stroke:rgb(0%,0%,0%);stroke-opacity:1;stroke-miterlimit:4;" d="M 283.500008 438.999561 L 279.500252 454.999618 L 269.499829 471.499902 L 259.500439 487.499959 L 247.500138 504.000244 " transform="matrix(3.779528,0,0,3.779528,0,0)"/>
<path style="fill:none;stroke-width:2;stroke-linecap:butt;stroke-linejoin:miter;stroke:rgb(0%,0%,0%);stroke-opacity:1;stroke-miterlimit:4;" d="M 192.499878 490.000065 L 170.500187 473.49978 L 180.499577 471.499902 L 175.999593 455.499845 " transform="matrix(3.779528,0,0,3.779528,0,0)"/>
<path style="fill:none;stroke-width:2;stroke-linecap:butt;stroke-linejoin:miter;stroke:rgb(0%,0%,0%);stroke-opacity:1;stroke-miterlimit:4;" d="M 170.500187 452.99974 L 164.49952 469.500024 L 173.999715 485.500081 L 207.999707 501.500138 L 230.000431 502.000366 " transform="matrix(3.779528,0,0,3.779528,0,0)"/>
<path style="fill:none;stroke-width:2;stroke-linecap:butt;stroke-linejoin:miter;stroke:rgb(0%,0%,0%);stroke-opacity:1;stroke-miterlimit:4;" d="M 214.499569 443.499544 L 182.500488 427.499487 " transform="matrix(3.779528,0,0,3.779528,0,0)"/>
<path style="fill:none;stroke-width:2;stroke-linecap:butt;stroke-linejoin:miter;stroke:rgb(0%,0%,0%);stroke-opacity:1;stroke-miterlimit:4;" d="M 196.999862 386.000212 L 221.000464 401.500041 " transform="matrix(3.779528,0,0,3.779528,0,0)"/>
<path style="fill:none;stroke-width:2;stroke-linecap:butt;stroke-linejoin:miter;stroke:rgb(0%,0%,0%);stroke-opacity:1;stroke-miterlimit:4;" d="M 214.999797 361.000187 L 202.999495 345.00013 L 191.000228 343.50048 L 175.000171 373.99991 " transform="matrix(3.779528,0,0,3.779528,0,0)"/>
<path style="fill:none;stroke-width:2;stroke-linecap:butt;stroke-linejoin:miter;stroke:rgb(0%,0%,0%);stroke-opacity:1;stroke-miterlimit:4;" d="M 190.5 358.500081 L 188.500122 374.500138 L 190.5 390.500195 L 200.500423 406.500252 L 230.499626 422.500309 " transform="matrix(3.779528,0,0,3.779528,0,0)"/>
<path style="fill:none;stroke-width:2;stroke-linecap:butt;stroke-linejoin:miter;stroke:rgb(0%,0%,0%);stroke-opacity:1;stroke-miterlimit:4;" d="M 214.499569 377.999666 L 194.499756 376.500016 L 194.999984 360.499959 " transform="matrix(3.779528,0,0,3.779528,0,0)"/>
<path style="fill:none;stroke-width:2;stroke-linecap:butt;stroke-linejoin:miter;stroke:rgb(0%,0%,0%);stroke-opacity:1;stroke-miterlimit:4;" d="M 223.000342 245.50026 L 211.000041 261.500317 L 205.499601 277.500374 L 197.50009 293.500431 L 189.999772 309.00026 L 184.000138 325.499512 L 178.000505 341.499569 L 171.999837 357.999854 L 164.000326 373.99991 L 155.99978 390.500195 L 148.000269 406.500252 L 139.999723 422.999504 L 131.499984 438.999561 L 125.50035 454.500423 L 117.499805 470.50048 L 119.499683 486.000309 L 130.000334 502.000366 L 155.499552 508 L 169.999959 506.000122 " transform="matrix(3.779528,0,0,3.779528,0,0)"/>
<path style="fill:none;stroke-width:2;stroke-linecap:butt;stroke-linejoin:miter;stroke:rgb(0%,0%,0%);stroke-opacity:1;stroke-miterlimit:4;" d="M 325.99974 305.499699 L 321.499756 299.500065 L 307.499577 303.499821 L 302.999593 297.500187 L 305.499699 282.000358 L 311.000138 266.000301 " transform="matrix(3.779528,0,0,3.779528,0,0)"/>
<path style="fill:none;stroke-width:2;stroke-linecap:butt;stroke-linejoin:miter;stroke:rgb(0%,0%,0%);stroke-opacity:1;stroke-miterlimit:4;" d="M 397.500285 302.500399 L 407.499674 286.500342 " transform="matrix(3.779528,0,0,3.779528,0,0)"/>
<path style="fill:none;stroke-width:2;stroke-linecap:butt;stroke-linejoin:miter;stroke:rgb(0%,0%,0%);stroke-opacity:1;stroke-miterlimit:4;" d="M 416.000448 284.000236 L 415.50022 300.000293 L 384.000334 312.499788 L 400.000391 308.500033 " transform="matrix(3.779528,0,0,3.779528,0,0)"/>
<path style="fill:none;stroke-width:2;stroke-linecap:butt;stroke-linejoin:miter;stroke:rgb(0%,0%,0%);stroke-opacity:1;stroke-miterlimit:4;" d="M 387.499862 309.00026 L 405.499797 305.499699 L 411.500464 289.499642 L 417.500098 273.499585 " transform="matrix(3.779528,0,0,3.779528,0,0)"/>
<path style="fill:none;stroke-width:2;stroke-linecap:butt;stroke-linejoin:miter;stroke:rgb(0%,0%,0%);stroke-opacity:1;stroke-miterlimit:4;" d="M 418.000326 265.500073 L 404.000146 281.50013 L 377.500472 293.500431 L 373.499683 309.500488 L 375.499561 309.500488 L 391.999845 316.00035 L 407.999902 307.499577 L 407.999902 285.499886 L 427.999715 273.999813 L 443.999772 287.999992 L 470.000252 310.49991 L 486.000309 306.500155 " transform="matrix(3.779528,0,0,3.779528,0,0)"/>
<path style="fill:none;stroke-width:2;stroke-linecap:butt;stroke-linejoin:miter;stroke:rgb(0%,0%,0%);stroke-opacity:1;stroke-miterlimit:4;" d="M 481.500326 310.49991 L 475.499658 326.499967 L 477.000342 318.500456 " transform="matrix(3.779528,0,0,3.779528,0,0)"/>
<path style="fill:none;stroke-width:2;stroke-linecap:butt;stroke-linejoin:miter;stroke:rgb(0%,0%,0%);stroke-opacity:1;stroke-miterlimit:4;" d="M 442.500122 352.500448 L 446.499878 348.999886 L 454.000195 332.999829 L 434.000382 347.000008 " transform="matrix(3.779528,0,0,3.779528,0,0)"/>
<path style="fill:none;stroke-width:2;stroke-linecap:butt;stroke-linejoin:miter;stroke:rgb(0%,0%,0%);stroke-opacity:1;stroke-miterlimit:4;" d="M 452.499512 303.499821 L 452.499512 286.999536 L 450.499634 280.999902 L 434.499577 271.000513 " transform="matrix(3.779528,0,0,3.779528,0,0)"/>
<path style="fill:none;stroke-width:2;stroke-linecap:butt;stroke-linejoin:miter;stroke:rgb(0%,0%,0%);stroke-opacity:1;stroke-miterlimit:4;" d="M 434.000382 270.500285 L 441.499666 286.000114 L 447.500334 301.499943 L 451.50009 317.5 L 441.999894 334.000285 L 425.999837 339.999919 L 441.999894 327.999618 " transform="matrix(3.779528,0,0,3.779528,0,0)"/>
<path style="fill:none;stroke-width:2;stroke-linecap:butt;stroke-linejoin:miter;stroke:rgb(0%,0%,0%);stroke-opacity:1;stroke-miterlimit:4;" d="M 447.000106 332.499601 L 430.499821 342.500024 L 428.499943 338.500269 L 446.499878 322.500212 L 444.5 306.500155 L 438.500366 290.500098 L 426.500065 275.000269 " transform="matrix(3.779528,0,0,3.779528,0,0)"/>
<path style="fill:none;stroke-width:2;stroke-linecap:butt;stroke-linejoin:miter;stroke:rgb(0%,0%,0%);stroke-opacity:1;stroke-miterlimit:4;" d="M 436.00026 264.999845 L 456.000073 281.50013 L 456.000073 297.500187 " transform="matrix(3.779528,0,0,3.779528,0,0)"/>
</g>
</svg>
