<?xml version="1.0" encoding="UTF-8"?>
<svg xmlns="http://www.w3.org/2000/svg" xmlns:xlink="http://www.w3.org/1999/xlink" width="1935.11811" height="1935.11811" viewBox="0 0 1935.11811 1935.11811" version="1.1">
<g id="surface1">
<path style="fill:none;stroke-width:2;stroke-linecap:butt;stroke-linejoin:miter;stroke:rgb(0%,0%,0%);stroke-opacity:1;stroke-miterlimit:4;" d="M 313.500244 2.500106 L 321.499756 18.500163 L 317.5 34.50022 L 323.499634 46.499487 L 327.500423 39.000203 L 343.50048 42.999959 L 359.499504 46.999715 L 375.499561 53.000382 " transform="matrix(3.779528,0,0,3.779528,0,0)"/>
<path style="fill:none;stroke-width:2;stroke-linecap:butt;stroke-linejoin:miter;stroke:rgb(0%,0%,0%);stroke-opacity:1;stroke-miterlimit:4;" d="M 363.500293 55.999683 L 361.000187 50.500277 L 349.500114 48.500399 L 337.499813 44.499609 L 321.499756 40.499854 L 305.999927 42.499731 L 273.999813 38.499976 L 257.999756 40.499854 L 241.999699 39.999626 L 230.000431 26.00048 L 230.000431 9.500195 " transform="matrix(3.779528,0,0,3.779528,0,0)"/>
<path style="fill:none;stroke-width:2;stroke-linecap:butt;stroke-linejoin:miter;stroke:rgb(0%,0%,0%);stroke-opacity:1;stroke-miterlimit:4;" d="M 221.999886 7.500317 L 238.500171 5.500439 L 246.99991 5.500439 L 243.500382 21.500496 L 250.999666 35.99987 L 269.499829 41.999504 L 285.499886 44.000415 L 301.499943 46.000293 L 318.000228 48.500399 L 334.500513 52.500155 L 350.000342 57.000138 L 366.000399 60.999894 L 386.000212 66.500334 L 381.500228 82.500391 L 379.000122 98.00022 L 393.000301 87.499569 L 409.000358 87.499569 L 420.999626 105.000309 L 436.999683 112.999821 L 429.000171 121.000366 " transform="matrix(3.779528,0,0,3.779528,0,0)"/>
<path style="fill:none;stroke-width:2;stroke-linecap:butt;stroke-linejoin:miter;stroke:rgb(0%,0%,0%);stroke-opacity:1;stroke-miterlimit:4;" d="M 434.000382 134.00009 L 438.000138 118.000033 L 422.000081 112.000399 L 406.000024 114.000277 " transform="matrix(3.779528,0,0,3.779528,0,0)"/>
<path style="fill:none;stroke-width:2;stroke-linecap:butt;stroke-linejoin:miter;stroke:rgb(0%,0%,0%);stroke-opacity:1;stroke-miterlimit:4;" d="M 400.000391 112.999821 L 406.000024 112.999821 L 404.000146 128.999878 L 410.500008 135.49974 L 426.500065 133.499862 " transform="matrix(3.779528,0,0,3.779528,0,0)"/>
<path style="fill:none;stroke-width:2;stroke-linecap:butt;stroke-linejoin:miter;stroke:rgb(0%,0%,0%);stroke-opacity:1;stroke-miterlimit:4;" d="M 452.000317 152.000024 L 468.499569 148.000269 L 484.499626 141.999601 L 500.499683 135.999967 L 500.499683 130.000334 L 456.000073 145.500163 L 457.999951 146.000391 L 474.000008 139.999723 L 506.000122 128.000456 L 481.99952 141.999601 L 468.000374 162.000448 L 457.999951 178.000505 L 457.999951 193.999528 L 452.000317 209.999585 L 441.999894 225.999642 L 447.999528 243.999577 L 452.000317 259.999634 " transform="matrix(3.779528,0,0,3.779528,0,0)"/>
<path style="fill:none;stroke-width:2;stroke-linecap:butt;stroke-linejoin:miter;stroke:rgb(0%,0%,0%);stroke-opacity:1;stroke-miterlimit:4;" d="M 449.500212 272.500163 L 457.499723 256.500106 L 451.50009 240.500049 L 459.499601 224.499992 L 473.49978 204.500179 L 475.499658 188.500122 L 479.500448 192.499878 L 477.499536 200.500423 " transform="matrix(3.779528,0,0,3.779528,0,0)"/>
<path style="fill:none;stroke-width:2;stroke-linecap:butt;stroke-linejoin:miter;stroke:rgb(0%,0%,0%);stroke-opacity:1;stroke-miterlimit:4;" d="M 471.499902 207.000285 L 487.499959 212.999919 L 503.500016 201.499845 " transform="matrix(3.779528,0,0,3.779528,0,0)"/>
<path style="fill:none;stroke-width:2;stroke-linecap:butt;stroke-linejoin:miter;stroke:rgb(0%,0%,0%);stroke-opacity:1;stroke-miterlimit:4;" d="M 501.500138 189.999772 L 485.500081 178.499699 L 469.500024 184.500366 " transform="matrix(3.779528,0,0,3.779528,0,0)"/>
<path style="fill:none;stroke-width:2;stroke-linecap:butt;stroke-linejoin:miter;stroke:rgb(0%,0%,0%);stroke-opacity:1;stroke-miterlimit:4;" d="M 465.500269 182.500488 L 481.000098 172.500065 L 497.500382 178.000505 " transform="matrix(3.779528,0,0,3.779528,0,0)"/>
<path style="fill:none;stroke-width:2;stroke-linecap:butt;stroke-linejoin:miter;stroke:rgb(0%,0%,0%);stroke-opacity:1;stroke-miterlimit:4;" d="M 488.999609 185.499788 L 486.999731 201.499845 L 479.00022 201.499845 L 482.499748 183.49991 " transform="matrix(3.779528,0,0,3.779528,0,0)"/>
<path style="fill:none;stroke-width:2;stroke-linecap:butt;stroke-linejoin:miter;stroke:rgb(0%,0%,0%);stroke-opacity:1;stroke-miterlimit:4;" d="M 482.999976 171.999837 L 500.99991 187.499666 L 502.999788 202.999495 " transform="matrix(3.779528,0,0,3.779528,0,0)"/>
<path style="fill:none;stroke-width:2;stroke-linecap:butt;stroke-linejoin:miter;stroke:rgb(0%,0%,0%);stroke-opacity:1;stroke-miterlimit:4;" d="M 499.000033 166.500431 L 482.999976 160.499764 L 466.999919 168.500309 " transform="matrix(3.779528,0,0,3.779528,0,0)"/>
<path style="fill:none;stroke-width:2;stroke-linecap:butt;stroke-linejoin:miter;stroke:rgb(0%,0%,0%);stroke-opacity:1;stroke-miterlimit:4;" d="M 471.499902 166.000203 L 463.500391 182.00026 L 465.500269 198.000317 L 479.00022 214.000374 L 456.500301 221.499658 L 447.999528 223.999764 L 463.500391 207.999707 L 477.499536 206.500057 L 493.000399 202.999495 " transform="matrix(3.779528,0,0,3.779528,0,0)"/>
<path style="fill:none;stroke-width:2;stroke-linecap:butt;stroke-linejoin:miter;stroke:rgb(0%,0%,0%);stroke-opacity:1;stroke-miterlimit:4;" d="M 504.999666 209.000163 L 488.999609 220.500236 L 472.999552 216.50048 L 457.499723 225.999642 L 445.500456 233.499959 L 449.500212 221.499658 L 459.499601 205.499601 " transform="matrix(3.779528,0,0,3.779528,0,0)"/>
<path style="fill:none;stroke-width:2;stroke-linecap:butt;stroke-linejoin:miter;stroke:rgb(0%,0%,0%);stroke-opacity:1;stroke-miterlimit:4;" d="M 457.999951 177.000049 L 474.000008 159.000114 L 490.000065 156.500008 L 505.499894 164.49952 " transform="matrix(3.779528,0,0,3.779528,0,0)"/>
<path style="fill:none;stroke-width:2;stroke-linecap:butt;stroke-linejoin:miter;stroke:rgb(0%,0%,0%);stroke-opacity:1;stroke-miterlimit:4;" d="M 490.999487 162.499642 L 509.000456 178.000505 L 511.000334 191.99965 L 500.99991 213.500146 " transform="matrix(3.779528,0,0,3.779528,0,0)"/>
<path style="fill:none;stroke-width:2;stroke-linecap:butt;stroke-linejoin:miter;stroke:rgb(0%,0%,0%);stroke-opacity:1;stroke-miterlimit:4;" d="M 453.499967 205.999829 L 437.49991 230.000431 L 421.499854 225.999642 L 405.499797 236.000065 L 388.999512 252.000122 L 373.000488 268.000179 L 357.000431 293.999626 L 361.000187 289.499642 L 368.999699 273.499585 L 381 257.499528 L 403.499919 241.999699 L 422.000081 225.999642 " transform="matrix(3.779528,0,0,3.779528,0,0)"/>
<path style="fill:none;stroke-width:2;stroke-linecap:butt;stroke-linejoin:miter;stroke:rgb(0%,0%,0%);stroke-opacity:1;stroke-miterlimit:4;" d="M 420.500431 232.499504 L 408.50013 248.499561 L 416.499642 264.000423 L 428.499943 280.00048 " transform="matrix(3.779528,0,0,3.779528,0,0)"/>
<path style="fill:none;stroke-width:2;stroke-linecap:butt;stroke-linejoin:miter;stroke:rgb(0%,0%,0%);stroke-opacity:1;stroke-miterlimit:4;" d="M 440.500244 271.999935 L 425.000415 271.999935 L 408.50013 250.000244 " transform="matrix(3.779528,0,0,3.779528,0,0)"/>
<path style="fill:none;stroke-width:2;stroke-linecap:butt;stroke-linejoin:miter;stroke:rgb(0%,0%,0%);stroke-opacity:1;stroke-miterlimit:4;" d="M 407.00048 245.50026 L 422.999504 232.999731 L 438.500366 236.999487 " transform="matrix(3.779528,0,0,3.779528,0,0)"/>
<path style="fill:none;stroke-width:2;stroke-linecap:butt;stroke-linejoin:miter;stroke:rgb(0%,0%,0%);stroke-opacity:1;stroke-miterlimit:4;" d="M 451.50009 271.000513 L 435.500033 280.999902 L 419.499976 275.000269 L 403.499919 277.000146 L 387.499862 282.99978 L 371.499805 282.499552 L 355.499748 306.500155 " transform="matrix(3.779528,0,0,3.779528,0,0)"/>
<path style="fill:none;stroke-width:2;stroke-linecap:butt;stroke-linejoin:miter;stroke:rgb(0%,0%,0%);stroke-opacity:1;stroke-miterlimit:4;" d="M 343.50048 340.500146 L 353.49987 326.499967 L 365.500171 310.49991 L 386.999634 289.99987 L 373.000488 300.000293 L 357.000431 320.000106 L 355.499748 315.500122 L 367.500049 299.500065 L 388.999512 287.499764 L 407.499674 271.999935 L 393.499495 275.999691 L 377.500472 271.999935 " transform="matrix(3.779528,0,0,3.779528,0,0)"/>
<path style="fill:none;stroke-width:2;stroke-linecap:butt;stroke-linejoin:miter;stroke:rgb(0%,0%,0%);stroke-opacity:1;stroke-miterlimit:4;" d="M 384.999756 261.00009 L 401.500041 249.500016 L 391.999845 255.49965 L 388.00009 271.499707 L 374.500138 279.500252 L 364.499715 295.500309 L 354.99952 309.500488 L 368.500505 297.500187 L 382.49965 295.500309 L 384.499528 286.000114 L 386.500439 305.499699 L 388.500317 321.999984 L 391.000423 338.000041 L 391.000423 366.499593 L 397.000057 358.500081 " transform="matrix(3.779528,0,0,3.779528,0,0)"/>
<path style="fill:none;stroke-width:2;stroke-linecap:butt;stroke-linejoin:miter;stroke:rgb(0%,0%,0%);stroke-opacity:1;stroke-miterlimit:4;" d="M 325.99974 382.999878 L 309.999683 381.500228 " transform="matrix(3.779528,0,0,3.779528,0,0)"/>
<path style="fill:none;stroke-width:2;stroke-linecap:butt;stroke-linejoin:miter;stroke:rgb(0%,0%,0%);stroke-opacity:1;stroke-miterlimit:4;" d="M 309.999683 381 L 309.999683 397.000057 L 318.500456 400.999813 L 320.500334 406.500252 L 336.999585 410.500008 " transform="matrix(3.779528,0,0,3.779528,0,0)"/>
<path style="fill:none;stroke-width:2;stroke-linecap:butt;stroke-linejoin:miter;stroke:rgb(0%,0%,0%);stroke-opacity:1;stroke-miterlimit:4;" d="M 324.50009 377.000244 L 308.500033 375.000366 " transform="matrix(3.779528,0,0,3.779528,0,0)"/>
<path style="fill:none;stroke-width:2;stroke-linecap:butt;stroke-linejoin:miter;stroke:rgb(0%,0%,0%);stroke-opacity:1;stroke-miterlimit:4;" d="M 309.500488 370.500382 L 325.99974 370.500382 L 329.999495 390.500195 L 330.499723 406.500252 L 338.500269 422.500309 L 343.000252 422.000081 L 355.499748 438.000138 L 357.499626 454.000195 L 357.999854 470.000252 L 355.499748 486.000309 L 353.49987 502.000366 " transform="matrix(3.779528,0,0,3.779528,0,0)"/>
<path style="fill:none;stroke-width:2;stroke-linecap:butt;stroke-linejoin:miter;stroke:rgb(0%,0%,0%);stroke-opacity:1;stroke-miterlimit:4;" d="M 335.499935 505.499894 L 348.000464 481.500326 L 350.000342 465.500269 L 352.500448 448.999984 L 341.000374 432.999927 L 329.000073 421.499854 L 313.000016 422.000081 L 296.999959 422.000081 " transform="matrix(3.779528,0,0,3.779528,0,0)"/>
<path style="fill:none;stroke-width:2;stroke-linecap:butt;stroke-linejoin:miter;stroke:rgb(0%,0%,0%);stroke-opacity:1;stroke-miterlimit:4;" d="M 274.500041 438.000138 L 291.000326 427.999715 L 307.000382 425.999837 L 323.000439 427.999715 L 339.000496 430.499821 L 354.99952 436.500488 " transform="matrix(3.779528,0,0,3.779528,0,0)"/>
<path style="fill:none;stroke-width:2;stroke-linecap:butt;stroke-linejoin:miter;stroke:rgb(0%,0%,0%);stroke-opacity:1;stroke-miterlimit:4;" d="M 322.500212 489.499837 L 346.49978 505.499894 " transform="matrix(3.779528,0,0,3.779528,0,0)"/>
<path style="fill:none;stroke-width:2;stroke-linecap:butt;stroke-linejoin:miter;stroke:rgb(0%,0%,0%);stroke-opacity:1;stroke-miterlimit:4;" d="M 325.000317 504.500472 L 309.00026 502.000366 L 293.000203 503.500016 L 275.000269 509.49965 L 282.99978 507.499772 L 286.999536 511.499528 " transform="matrix(3.779528,0,0,3.779528,0,0)"/>
<path style="fill:none;stroke-width:2;stroke-linecap:butt;stroke-linejoin:miter;stroke:rgb(0%,0%,0%);stroke-opacity:1;stroke-miterlimit:4;" d="M 293.999626 488.500415 L 273.999813 493.000399 L 277.500374 490.999487 L 293.500431 484.999854 L 309.999683 482.499748 L 325.99974 484.000431 L 341.499569 493.999821 " transform="matrix(3.779528,0,0,3.779528,0,0)"/>
<path style="fill:none;stroke-width:2;stroke-linecap:butt;stroke-linejoin:miter;stroke:rgb(0%,0%,0%);stroke-opacity:1;stroke-miterlimit:4;" d="M 331.500179 510.500106 L 309.500488 494.500049 " transform="matrix(3.779528,0,0,3.779528,0,0)"/>
<path style="fill:none;stroke-width:2;stroke-linecap:butt;stroke-linejoin:miter;stroke:rgb(0%,0%,0%);stroke-opacity:1;stroke-miterlimit:4;" d="M 268.000179 440.000016 L 284.500464 423.999959 L 300.499487 404.000146 " transform="matrix(3.779528,0,0,3.779528,0,0)"/>
<path style="fill:none;stroke-width:2;stroke-linecap:butt;stroke-linejoin:miter;stroke:rgb(0%,0%,0%);stroke-opacity:1;stroke-miterlimit:4;" d="M 309.00026 363.500293 L 325.000317 365.500171 L 341.000374 352.00022 " transform="matrix(3.779528,0,0,3.779528,0,0)"/>
<path style="fill:none;stroke-width:2;stroke-linecap:butt;stroke-linejoin:miter;stroke:rgb(0%,0%,0%);stroke-opacity:1;stroke-miterlimit:4;" d="M 332.000407 348.499658 L 315.500122 348.499658 L 300.000293 346.49978 L 284.000236 344.499902 L 268.000179 344.499902 L 220.000008 338.500269 L 203.999951 336.000163 L 188.500122 336.000163 L 172.500065 332.000407 L 156.500008 318.000228 " transform="matrix(3.779528,0,0,3.779528,0,0)"/>
<path style="fill:none;stroke-width:2;stroke-linecap:butt;stroke-linejoin:miter;stroke:rgb(0%,0%,0%);stroke-opacity:1;stroke-miterlimit:4;" d="M 150.500374 316.499544 L 166.500431 336.500391 L 182.500488 340.500146 L 198.000317 340.500146 L 214.000374 342.500024 L 230.499626 344.499902 L 246.499683 345.999552 L 262.49974 347.500236 L 278.499797 349.500114 L 294.499854 349.500114 L 326.499967 353.49987 " transform="matrix(3.779528,0,0,3.779528,0,0)"/>
<path style="fill:none;stroke-width:2;stroke-linecap:butt;stroke-linejoin:miter;stroke:rgb(0%,0%,0%);stroke-opacity:1;stroke-miterlimit:4;" d="M 304.000049 354.000098 L 302.000171 370.500382 L 304.000049 386.000212 L 301.499943 402.000269 L 289.499642 417.500098 L 269.499829 432.999927 L 267.499951 449.500212 L 263.500195 481.500326 L 265.500073 497.500382 L 275.999691 505.499894 L 291.49952 497.500382 L 307.499577 495.999699 L 323.499634 497.999577 L 339.499691 508 " transform="matrix(3.779528,0,0,3.779528,0,0)"/>
<path style="fill:none;stroke-width:2;stroke-linecap:butt;stroke-linejoin:miter;stroke:rgb(0%,0%,0%);stroke-opacity:1;stroke-miterlimit:4;" d="M 447.000106 445.99965 L 418.999748 461.500513 L 434.999805 449.500212 L 450.999862 445.500456 L 466.499691 440.000016 " transform="matrix(3.779528,0,0,3.779528,0,0)"/>
<path style="fill:none;stroke-width:2;stroke-linecap:butt;stroke-linejoin:miter;stroke:rgb(0%,0%,0%);stroke-opacity:1;stroke-miterlimit:4;" d="M 468.999797 445.500456 L 452.499512 450.999862 L 436.500488 463.000163 L 430.499821 456.999495 L 429.999593 475.000464 L 436.00026 463.500391 L 439.499788 463.999585 L 459.000407 447.500334 " transform="matrix(3.779528,0,0,3.779528,0,0)"/>
<path style="fill:none;stroke-width:2;stroke-linecap:butt;stroke-linejoin:miter;stroke:rgb(0%,0%,0%);stroke-opacity:1;stroke-miterlimit:4;" d="M 472.500358 442.500122 L 466.499691 457.999951 L 456.500301 473.49978 L 460.500057 483.500203 L 475.999886 477.000342 " transform="matrix(3.779528,0,0,3.779528,0,0)"/>
<path style="fill:none;stroke-width:2;stroke-linecap:butt;stroke-linejoin:miter;stroke:rgb(0%,0%,0%);stroke-opacity:1;stroke-miterlimit:4;" d="M 474.000008 482.499748 L 477.999764 466.499691 " transform="matrix(3.779528,0,0,3.779528,0,0)"/>
<path style="fill:none;stroke-width:2;stroke-linecap:butt;stroke-linejoin:miter;stroke:rgb(0%,0%,0%);stroke-opacity:1;stroke-miterlimit:4;" d="M 469.500024 463.500391 L 461.999707 459.499601 L 463.999585 467.500146 L 477.999764 461.999707 L 474.000008 446.499878 " transform="matrix(3.779528,0,0,3.779528,0,0)"/>
<path style="fill:none;stroke-width:2;stroke-linecap:butt;stroke-linejoin:miter;stroke:rgb(0%,0%,0%);stroke-opacity:1;stroke-miterlimit:4;" d="M 454.999618 392.500073 L 466.999919 384.499528 L 477.499536 368.500505 " transform="matrix(3.779528,0,0,3.779528,0,0)"/>
<path style="fill:none;stroke-width:2;stroke-linecap:butt;stroke-linejoin:miter;stroke:rgb(0%,0%,0%);stroke-opacity:1;stroke-miterlimit:4;" d="M 486.999731 379.000122 L 471.499902 388.500317 L 465.500269 391.000423 L 450.000439 398.999935 L 434.000382 404.999569 L 470.50048 389.49974 L 492.500171 373.99991 L 494.500049 357.999854 " transform="matrix(3.779528,0,0,3.779528,0,0)"/>
<path style="fill:none;stroke-width:2;stroke-linecap:butt;stroke-linejoin:miter;stroke:rgb(0%,0%,0%);stroke-opacity:1;stroke-miterlimit:4;" d="M 493.999821 350.499536 L 481.99952 366.499593 L 470.50048 382.49965 L 442.500122 391.000423 L 432.499699 395.000179 L 436.500488 381 L 452.499512 373.000488 L 468.499569 365.500171 L 484.499626 355.499748 " transform="matrix(3.779528,0,0,3.779528,0,0)"/>
<path style="fill:none;stroke-width:2;stroke-linecap:butt;stroke-linejoin:miter;stroke:rgb(0%,0%,0%);stroke-opacity:1;stroke-miterlimit:4;" d="M 486.000309 359.499504 L 476.500114 367.500049 L 458.500179 377.500472 L 440.500244 387.499862 L 434.499577 399.500163 L 425.999837 397.500285 L 433.500155 382.000456 L 467.500146 366.000399 L 489.499837 350.000342 " transform="matrix(3.779528,0,0,3.779528,0,0)"/>
<path style="fill:none;stroke-width:2;stroke-linecap:butt;stroke-linejoin:miter;stroke:rgb(0%,0%,0%);stroke-opacity:1;stroke-miterlimit:4;" d="M 481.000098 330.499723 L 490.999487 312.499788 L 484.999854 296.999959 L 484.999854 293.000203 " transform="matrix(3.779528,0,0,3.779528,0,0)"/>
<path style="fill:none;stroke-width:2;stroke-linecap:butt;stroke-linejoin:miter;stroke:rgb(0%,0%,0%);stroke-opacity:1;stroke-miterlimit:4;" d="M 478.499992 292.499976 L 494.500049 284.500464 L 479.999642 296.499731 L 480.49987 312.499788 L 476.500114 329.000073 L 492.500171 323.000439 L 482.499748 310.49991 " transform="matrix(3.779528,0,0,3.779528,0,0)"/>
<path style="fill:none;stroke-width:2;stroke-linecap:butt;stroke-linejoin:miter;stroke:rgb(0%,0%,0%);stroke-opacity:1;stroke-miterlimit:4;" d="M 403.499919 252.000122 L 405.499797 268.000179 L 391.999845 280.00048 L 391.999845 293.999626 L 382.000456 312.499788 L 384.000334 328.499845 L 384.000334 344.499902 L 378.499894 359.999731 L 398.499707 359.999731 L 382.49965 369.499927 L 398.000513 368.000277 " transform="matrix(3.779528,0,0,3.779528,0,0)"/>
<path style="fill:none;stroke-width:2;stroke-linecap:butt;stroke-linejoin:miter;stroke:rgb(0%,0%,0%);stroke-opacity:1;stroke-miterlimit:4;" d="M 357.999854 252.999544 L 355.999976 236.999487 L 362.499837 234.999609 L 346.49978 230.999854 " transform="matrix(3.779528,0,0,3.779528,0,0)"/>
<path style="fill:none;stroke-width:2;stroke-linecap:butt;stroke-linejoin:miter;stroke:rgb(0%,0%,0%);stroke-opacity:1;stroke-miterlimit:4;" d="M 345.500358 230.000431 L 351.499992 246.000488 L 348.999886 262.49974 L 348.999886 278.499797 L 345.500358 294.499854 L 343.50048 310.49991 L 341.499569 326.499967 L 337.499813 341.999797 L 329.500301 363.999487 " transform="matrix(3.779528,0,0,3.779528,0,0)"/>
<path style="fill:none;stroke-width:2;stroke-linecap:butt;stroke-linejoin:miter;stroke:rgb(0%,0%,0%);stroke-opacity:1;stroke-miterlimit:4;" d="M 314.999894 316.999772 L 316.999772 300.999715 L 319.499878 284.999658 L 321.499756 268.999601 L 320.999528 253.499772 L 311.000138 243.500382 L 294.499854 241.500505 L 278.499797 237.499715 L 262.49974 236.000065 L 246.000488 234.000187 L 230.000431 232.499504 L 214.000374 230.999854 L 197.50009 230.999854 " transform="matrix(3.779528,0,0,3.779528,0,0)"/>
<path style="fill:none;stroke-width:2;stroke-linecap:butt;stroke-linejoin:miter;stroke:rgb(0%,0%,0%);stroke-opacity:1;stroke-miterlimit:4;" d="M 197.50009 230.000431 L 194.999984 246.000488 L 193.000106 261.500317 L 189.00035 293.500431 L 188.500122 309.500488 L 204.500179 317.5 L 236.500293 321.499756 L 252.999544 323.499634 L 268.999601 325.000317 L 284.999658 327.500423 L 300.999715 327.500423 " transform="matrix(3.779528,0,0,3.779528,0,0)"/>
<path style="fill:none;stroke-width:2;stroke-linecap:butt;stroke-linejoin:miter;stroke:rgb(0%,0%,0%);stroke-opacity:1;stroke-miterlimit:4;" d="M 309.999683 315.500122 L 311.999561 299.500065 L 314.000472 283.500008 L 314.000472 266.999723 L 316.00035 250.999666 L 320.000106 241.000277 L 303.499821 236.999487 L 287.499764 234.999609 L 271.999935 231.500081 L 255.999878 229.500203 L 239.999821 227.99952 L 207.999707 223.999764 L 192.499878 228.499748 " transform="matrix(3.779528,0,0,3.779528,0,0)"/>
<path style="fill:none;stroke-width:2;stroke-linecap:butt;stroke-linejoin:miter;stroke:rgb(0%,0%,0%);stroke-opacity:1;stroke-miterlimit:4;" d="M 198.499512 223.000342 L 191.99965 239.499593 L 187.999894 255.49965 L 186.000016 271.999935 L 186.500244 287.999992 L 184.500366 304.500277 L 188.500122 314.999894 L 203.999951 313.000016 L 219.49978 314.999894 L 235.499837 316.499544 L 251.499894 318.500456 L 299.500065 324.50009 " transform="matrix(3.779528,0,0,3.779528,0,0)"/>
<path style="fill:none;stroke-width:2;stroke-linecap:butt;stroke-linejoin:miter;stroke:rgb(0%,0%,0%);stroke-opacity:1;stroke-miterlimit:4;" d="M 307.499577 226.49987 L 291.49952 224.499992 L 275.500496 221.999886 L 259.500439 220.000008 L 243.000155 216.000252 L 227.500326 216.000252 L 212.000496 214.000374 L 196.499634 212.499691 L 180.499577 210.499813 L 164.49952 211.000041 " transform="matrix(3.779528,0,0,3.779528,0,0)"/>
<path style="fill:none;stroke-width:2;stroke-linecap:butt;stroke-linejoin:miter;stroke:rgb(0%,0%,0%);stroke-opacity:1;stroke-miterlimit:4;" d="M 157.999658 211.000041 L 164.000326 209.000163 L 161.50022 224.499992 L 159.500342 241.000277 L 157.000236 257.499528 L 156.500008 273.499585 L 154.50013 289.99987 L 153.00048 306.500155 L 155.000358 322.500212 L 176.499821 343.000252 L 166.500431 345.00013 L 176.499821 354.99952 L 193.000106 354.500326 " transform="matrix(3.779528,0,0,3.779528,0,0)"/>
<path style="fill:none;stroke-width:2;stroke-linecap:butt;stroke-linejoin:miter;stroke:rgb(0%,0%,0%);stroke-opacity:1;stroke-miterlimit:4;" d="M 198.99974 338.500269 L 189.00035 354.500326 L 196.499634 357.000431 L 188.500122 373.000488 L 186.000016 389.49974 L 159.500342 405.499797 L 133.499862 425.499609 L 128.000456 441.499666 L 125.999544 457.499723 L 121.999788 473.49978 L 121.999788 489.499837 " transform="matrix(3.779528,0,0,3.779528,0,0)"/>
<path style="fill:none;stroke-width:2;stroke-linecap:butt;stroke-linejoin:miter;stroke:rgb(0%,0%,0%);stroke-opacity:1;stroke-miterlimit:4;" d="M 123.999666 489.499837 L 139.999723 483.500203 L 155.99978 481.99952 L 172.500065 484.000431 L 188.500122 490.000065 " transform="matrix(3.779528,0,0,3.779528,0,0)"/>
<path style="fill:none;stroke-width:2;stroke-linecap:butt;stroke-linejoin:miter;stroke:rgb(0%,0%,0%);stroke-opacity:1;stroke-miterlimit:4;" d="M 184.000138 503.500016 L 168.000081 503.500016 L 152.000024 500.99991 L 136.500195 495.000277 " transform="matrix(3.779528,0,0,3.779528,0,0)"/>
<path style="fill:none;stroke-width:2;stroke-linecap:butt;stroke-linejoin:miter;stroke:rgb(0%,0%,0%);stroke-opacity:1;stroke-miterlimit:4;" d="M 135.49974 493.000399 L 150.999569 487.499959 L 166.999626 488.000187 L 182.500488 493.999821 " transform="matrix(3.779528,0,0,3.779528,0,0)"/>
<path style="fill:none;stroke-width:2;stroke-linecap:butt;stroke-linejoin:miter;stroke:rgb(0%,0%,0%);stroke-opacity:1;stroke-miterlimit:4;" d="M 186.000016 480.49987 L 169.999959 476.500114 L 153.499674 476.500114 L 137.499618 477.999764 L 121.499561 484.000431 " transform="matrix(3.779528,0,0,3.779528,0,0)"/>
<path style="fill:none;stroke-width:2;stroke-linecap:butt;stroke-linejoin:miter;stroke:rgb(0%,0%,0%);stroke-opacity:1;stroke-miterlimit:4;" d="M 120.500138 471.499902 L 136.500195 471.499902 L 153.00048 469.500024 L 169.499731 469.500024 L 185.499788 473.49978 L 202.000073 487.499959 " transform="matrix(3.779528,0,0,3.779528,0,0)"/>
<path style="fill:none;stroke-width:2;stroke-linecap:butt;stroke-linejoin:miter;stroke:rgb(0%,0%,0%);stroke-opacity:1;stroke-miterlimit:4;" d="M 205.000407 481.99952 L 209.000163 466.000496 L 212.999919 434.000382 L 202.999495 418.000326 L 202.999495 404.000146 L 175.000171 389.999967 L 159.000114 400.000391 L 143.000057 409.99978 L 127 427.999715 " transform="matrix(3.779528,0,0,3.779528,0,0)"/>
<path style="fill:none;stroke-width:2;stroke-linecap:butt;stroke-linejoin:miter;stroke:rgb(0%,0%,0%);stroke-opacity:1;stroke-miterlimit:4;" d="M 132.000212 427.999715 L 148.000269 413.999536 L 164.49952 413.999536 L 180.499577 416.000448 L 196.999862 419.499976 L 212.499691 433.500155 " transform="matrix(3.779528,0,0,3.779528,0,0)"/>
<path style="fill:none;stroke-width:2;stroke-linecap:butt;stroke-linejoin:miter;stroke:rgb(0%,0%,0%);stroke-opacity:1;stroke-miterlimit:4;" d="M 193.500334 400.499585 L 193.500334 392.500073 L 177.000049 393.999723 L 160.999992 402.000269 " transform="matrix(3.779528,0,0,3.779528,0,0)"/>
<path style="fill:none;stroke-width:2;stroke-linecap:butt;stroke-linejoin:miter;stroke:rgb(0%,0%,0%);stroke-opacity:1;stroke-miterlimit:4;" d="M 159.999536 404.999569 L 175.500399 409.499552 L 191.500456 413.500342 L 213.500146 425.499609 " transform="matrix(3.779528,0,0,3.779528,0,0)"/>
<path style="fill:none;stroke-width:2;stroke-linecap:butt;stroke-linejoin:miter;stroke:rgb(0%,0%,0%);stroke-opacity:1;stroke-miterlimit:4;" d="M 182.500488 395.000179 L 196.499634 410.500008 L 214.999797 434.499577 L 215.500024 450.499634 L 211.500269 466.499691 L 209.500391 482.499748 L 205.999829 498.499805 " transform="matrix(3.779528,0,0,3.779528,0,0)"/>
<path style="fill:none;stroke-width:2;stroke-linecap:butt;stroke-linejoin:miter;stroke:rgb(0%,0%,0%);stroke-opacity:1;stroke-miterlimit:4;" d="M 200.000195 495.000277 L 178.000505 479.00022 " transform="matrix(3.779528,0,0,3.779528,0,0)"/>
<path style="fill:none;stroke-width:2;stroke-linecap:butt;stroke-linejoin:miter;stroke:rgb(0%,0%,0%);stroke-opacity:1;stroke-miterlimit:4;" d="M 94.499658 349.500114 L 78.499601 349.500114 " transform="matrix(3.779528,0,0,3.779528,0,0)"/>
<path style="fill:none;stroke-width:2;stroke-linecap:butt;stroke-linejoin:miter;stroke:rgb(0%,0%,0%);stroke-opacity:1;stroke-miterlimit:4;" d="M 58.499788 375.499561 L 42.499731 369.499927 " transform="matrix(3.779528,0,0,3.779528,0,0)"/>
<path style="fill:none;stroke-width:2;stroke-linecap:butt;stroke-linejoin:miter;stroke:rgb(0%,0%,0%);stroke-opacity:1;stroke-miterlimit:4;" d="M 42.999959 370.999577 L 42.999959 386.999634 L 48.999593 388.999512 L 52.500155 394.499951 L 57.999561 382.000456 " transform="matrix(3.779528,0,0,3.779528,0,0)"/>
<path style="fill:none;stroke-width:2;stroke-linecap:butt;stroke-linejoin:miter;stroke:rgb(0%,0%,0%);stroke-opacity:1;stroke-miterlimit:4;" d="M 51.000505 372.50026 L 59.000016 378.499894 L 66.999528 394.499951 L 61.500122 400.499585 " transform="matrix(3.779528,0,0,3.779528,0,0)"/>
<path style="fill:none;stroke-width:2;stroke-linecap:butt;stroke-linejoin:miter;stroke:rgb(0%,0%,0%);stroke-opacity:1;stroke-miterlimit:4;" d="M 62.499544 393.000301 L 46.499487 377.000244 " transform="matrix(3.779528,0,0,3.779528,0,0)"/>
<path style="fill:none;stroke-width:2;stroke-linecap:butt;stroke-linejoin:miter;stroke:rgb(0%,0%,0%);stroke-opacity:1;stroke-miterlimit:4;" d="M 33.499764 383.500106 L 17.499707 389.49974 L 35.499642 399.500163 L 31.499886 384.000334 " transform="matrix(3.779528,0,0,3.779528,0,0)"/>
<path style="fill:none;stroke-width:2;stroke-linecap:butt;stroke-linejoin:miter;stroke:rgb(0%,0%,0%);stroke-opacity:1;stroke-miterlimit:4;" d="M 32.000114 388.999512 L 26.00048 398.999935 L 17.999935 397.500285 L 23.999569 381.500228 " transform="matrix(3.779528,0,0,3.779528,0,0)"/>
<path style="fill:none;stroke-width:2;stroke-linecap:butt;stroke-linejoin:miter;stroke:rgb(0%,0%,0%);stroke-opacity:1;stroke-miterlimit:4;" d="M 73.999618 322.500212 L 67.499756 305.999927 L 53.499577 289.99987 L 45.500065 273.999813 L 37.49952 257.499528 L 35.99987 255.49965 " transform="matrix(3.779528,0,0,3.779528,0,0)"/>
<path style="fill:none;stroke-width:2;stroke-linecap:butt;stroke-linejoin:miter;stroke:rgb(0%,0%,0%);stroke-opacity:1;stroke-miterlimit:4;" d="M 37.999748 250.999666 L 53.999805 266.999723 L 39.999626 281.50013 L 47.499943 283.500008 L 57.500366 311.999561 L 62.999772 316.00035 " transform="matrix(3.779528,0,0,3.779528,0,0)"/>
<path style="fill:none;stroke-width:2;stroke-linecap:butt;stroke-linejoin:miter;stroke:rgb(0%,0%,0%);stroke-opacity:1;stroke-miterlimit:4;" d="M 84.000041 293.999626 L 87.999797 286.000114 L 104.500081 271.999935 " transform="matrix(3.779528,0,0,3.779528,0,0)"/>
<path style="fill:none;stroke-width:2;stroke-linecap:butt;stroke-linejoin:miter;stroke:rgb(0%,0%,0%);stroke-opacity:1;stroke-miterlimit:4;" d="M 127.500228 259.000212 L 141.500407 275.000269 L 149.499919 291.999748 L 147.500041 308.500033 L 151.499797 324.50009 L 171.499609 341.000374 L 168.000081 356.500203 L 178.000505 372.50026 L 175.999593 388.00009 L 155.499552 404.000146 L 132.000212 420.000203 L 123.999666 436.00026 L 122.500016 451.50009 L 118.50026 468.000374 L 116.999577 484.000431 L 125.000122 500.000488 L 119.000488 504.500472 L 126.499772 508.500228 L 141.999601 504.000244 L 157.999658 508 L 174.499943 509.999878 L 190.5 509.999878 " transform="matrix(3.779528,0,0,3.779528,0,0)"/>
<path style="fill:none;stroke-width:2;stroke-linecap:butt;stroke-linejoin:miter;stroke:rgb(0%,0%,0%);stroke-opacity:1;stroke-miterlimit:4;" d="M 152.500252 271.000513 L 135.999967 250.500472 " transform="matrix(3.779528,0,0,3.779528,0,0)"/>
<path style="fill:none;stroke-width:2;stroke-linecap:butt;stroke-linejoin:miter;stroke:rgb(0%,0%,0%);stroke-opacity:1;stroke-miterlimit:4;" d="M 135.999967 244.499805 L 121.999788 254.500228 L 105.999731 262.49974 L 89.999674 248.000366 " transform="matrix(3.779528,0,0,3.779528,0,0)"/>
<path style="fill:none;stroke-width:2;stroke-linecap:butt;stroke-linejoin:miter;stroke:rgb(0%,0%,0%);stroke-opacity:1;stroke-miterlimit:4;" d="M 87.999797 241.000277 L 103.999854 216.50048 L 120.500138 212.000496 L 136.500195 223.999764 " transform="matrix(3.779528,0,0,3.779528,0,0)"/>
<path style="fill:none;stroke-width:2;stroke-linecap:butt;stroke-linejoin:miter;stroke:rgb(0%,0%,0%);stroke-opacity:1;stroke-miterlimit:4;" d="M 134.00009 230.000431 L 118.50026 216.000252 L 102.500203 223.499536 " transform="matrix(3.779528,0,0,3.779528,0,0)"/>
<path style="fill:none;stroke-width:2;stroke-linecap:butt;stroke-linejoin:miter;stroke:rgb(0%,0%,0%);stroke-opacity:1;stroke-miterlimit:4;" d="M 116.000155 216.50048 L 134.00009 232.000309 L 127.500228 248.499561 L 123.500472 260.499862 L 107.999609 276.499919 L 90.499902 296.499731 L 92.49978 306.500155 L 88.500024 321.999984 L 76.499723 338.000041 L 74.499845 339.499691 L 78.499601 343.50048 L 90.499902 311.500366 L 102.500203 282.000358 " transform="matrix(3.779528,0,0,3.779528,0,0)"/>
<path style="fill:none;stroke-width:2;stroke-linecap:butt;stroke-linejoin:miter;stroke:rgb(0%,0%,0%);stroke-opacity:1;stroke-miterlimit:4;" d="M 132.999634 261.500317 L 149.499919 281.50013 " transform="matrix(3.779528,0,0,3.779528,0,0)"/>
<path style="fill:none;stroke-width:2;stroke-linecap:butt;stroke-linejoin:miter;stroke:rgb(0%,0%,0%);stroke-opacity:1;stroke-miterlimit:4;" d="M 146.000391 271.499707 L 130.000334 257.499528 L 113.500049 265.500073 L 100.99952 259.500439 L 92.49978 243.999577 L 98.500448 228.499748 L 93.000008 236.500293 " transform="matrix(3.779528,0,0,3.779528,0,0)"/>
<path style="fill:none;stroke-width:2;stroke-linecap:butt;stroke-linejoin:miter;stroke:rgb(0%,0%,0%);stroke-opacity:1;stroke-miterlimit:4;" d="M 111.500171 211.000041 L 93.500236 227.000098 L 87.499569 243.000155 L 93.500236 259.500439 L 95.500114 275.500496 L 103.499626 287.499764 L 98.00022 304.000049 L 94.000464 320.500334 L 89.999674 336.999585 L 100.000098 347.000008 L 89.999674 347.000008 " transform="matrix(3.779528,0,0,3.779528,0,0)"/>
<path style="fill:none;stroke-width:2;stroke-linecap:butt;stroke-linejoin:miter;stroke:rgb(0%,0%,0%);stroke-opacity:1;stroke-miterlimit:4;" d="M 61.500122 307.499577 L 49.499821 283.500008 L 49.499821 275.500496 L 33.499764 265.500073 " transform="matrix(3.779528,0,0,3.779528,0,0)"/>
<path style="fill:none;stroke-width:2;stroke-linecap:butt;stroke-linejoin:miter;stroke:rgb(0%,0%,0%);stroke-opacity:1;stroke-miterlimit:4;" d="M 33.999992 249.500016 L 33.999992 265.500073 L 35.99987 281.50013 L 28.000358 297.500187 L 50.000049 302.000171 L 51.999927 318.000228 L 41.500309 334.000285 L 53.499577 337.499813 L 41.500309 339.499691 L 59.000016 321.999984 " transform="matrix(3.779528,0,0,3.779528,0,0)"/>
<path style="fill:none;stroke-width:2;stroke-linecap:butt;stroke-linejoin:miter;stroke:rgb(0%,0%,0%);stroke-opacity:1;stroke-miterlimit:4;" d="M 67.499756 305.000505 L 47.499943 300.499487 L 31.499886 302.500399 " transform="matrix(3.779528,0,0,3.779528,0,0)"/>
<path style="fill:none;stroke-width:2;stroke-linecap:butt;stroke-linejoin:miter;stroke:rgb(0%,0%,0%);stroke-opacity:1;stroke-miterlimit:4;" d="M 50.000049 259.999634 L 33.999992 249.500016 " transform="matrix(3.779528,0,0,3.779528,0,0)"/>
<path style="fill:none;stroke-width:2;stroke-linecap:butt;stroke-linejoin:miter;stroke:rgb(0%,0%,0%);stroke-opacity:1;stroke-miterlimit:4;" d="M 32.999536 203.999951 L 17.000513 184.000138 " transform="matrix(3.779528,0,0,3.779528,0,0)"/>
<path style="fill:none;stroke-width:2;stroke-linecap:butt;stroke-linejoin:miter;stroke:rgb(0%,0%,0%);stroke-opacity:1;stroke-miterlimit:4;" d="M 12.000301 184.000138 L 28.000358 205.999829 L 44.000415 207.999707 " transform="matrix(3.779528,0,0,3.779528,0,0)"/>
<path style="fill:none;stroke-width:2;stroke-linecap:butt;stroke-linejoin:miter;stroke:rgb(0%,0%,0%);stroke-opacity:1;stroke-miterlimit:4;" d="M 69.999862 188.500122 L 53.999805 175.000171 L 46.000293 177.000049 L 29.500008 184.999561 L 35.499642 166.500431 L 19.499585 175.000171 " transform="matrix(3.779528,0,0,3.779528,0,0)"/>
<path style="fill:none;stroke-width:2;stroke-linecap:butt;stroke-linejoin:miter;stroke:rgb(0%,0%,0%);stroke-opacity:1;stroke-miterlimit:4;" d="M 17.000513 169.999959 L 19.000391 186.000016 L 30.999658 201.499845 " transform="matrix(3.779528,0,0,3.779528,0,0)"/>
<path style="fill:none;stroke-width:2;stroke-linecap:butt;stroke-linejoin:miter;stroke:rgb(0%,0%,0%);stroke-opacity:1;stroke-miterlimit:4;" d="M 12.000301 165.499976 L 27.50013 153.499674 L 43.500187 155.000358 L 59.500244 168.999504 " transform="matrix(3.779528,0,0,3.779528,0,0)"/>
<path style="fill:none;stroke-width:2;stroke-linecap:butt;stroke-linejoin:miter;stroke:rgb(0%,0%,0%);stroke-opacity:1;stroke-miterlimit:4;" d="M 78.499601 141.500407 L 62.499544 133.499862 " transform="matrix(3.779528,0,0,3.779528,0,0)"/>
<path style="fill:none;stroke-width:2;stroke-linecap:butt;stroke-linejoin:miter;stroke:rgb(0%,0%,0%);stroke-opacity:1;stroke-miterlimit:4;" d="M 53.999805 98.500448 L 37.999748 92.49978 " transform="matrix(3.779528,0,0,3.779528,0,0)"/>
<path style="fill:none;stroke-width:2;stroke-linecap:butt;stroke-linejoin:miter;stroke:rgb(0%,0%,0%);stroke-opacity:1;stroke-miterlimit:4;" d="M 37.49952 82.999585 L 53.499577 91.00013 " transform="matrix(3.779528,0,0,3.779528,0,0)"/>
<path style="fill:none;stroke-width:2;stroke-linecap:butt;stroke-linejoin:miter;stroke:rgb(0%,0%,0%);stroke-opacity:1;stroke-miterlimit:4;" d="M 50.000049 82.000163 L 33.999992 80.000285 " transform="matrix(3.779528,0,0,3.779528,0,0)"/>
<path style="fill:none;stroke-width:2;stroke-linecap:butt;stroke-linejoin:miter;stroke:rgb(0%,0%,0%);stroke-opacity:1;stroke-miterlimit:4;" d="M 37.49952 63.5 L 37.49952 65.499878 L 47.499943 81.499935 L 49.499821 97.499992 L 46.000293 105.499504 L 62.00035 105.499504 L 60.499666 121.499561 L 78.999829 137.999845 " transform="matrix(3.779528,0,0,3.779528,0,0)"/>
<path style="fill:none;stroke-width:2;stroke-linecap:butt;stroke-linejoin:miter;stroke:rgb(0%,0%,0%);stroke-opacity:1;stroke-miterlimit:4;" d="M 116.500382 80.999707 L 132.500439 73.500423 L 148.500496 60.999894 L 164.000326 58.499788 " transform="matrix(3.779528,0,0,3.779528,0,0)"/>
<path style="fill:none;stroke-width:2;stroke-linecap:butt;stroke-linejoin:miter;stroke:rgb(0%,0%,0%);stroke-opacity:1;stroke-miterlimit:4;" d="M 144.499707 69.999862 L 160.499764 66.000106 L 141.999601 75.999495 L 135.999967 91.500358 L 130.000334 107.500415 L 152.000024 123.500472 L 148.000269 139.000301 L 146.499585 155.499552 L 148.500496 171.499609 L 175.000171 187.499666 L 162.99987 203.999951 L 159.000114 220.000008 L 155.000358 250.999666 " transform="matrix(3.779528,0,0,3.779528,0,0)"/>
<path style="fill:none;stroke-width:2;stroke-linecap:butt;stroke-linejoin:miter;stroke:rgb(0%,0%,0%);stroke-opacity:1;stroke-miterlimit:4;" d="M 132.999634 257.499528 L 144.999935 273.499585 " transform="matrix(3.779528,0,0,3.779528,0,0)"/>
<path style="fill:none;stroke-width:2;stroke-linecap:butt;stroke-linejoin:miter;stroke:rgb(0%,0%,0%);stroke-opacity:1;stroke-miterlimit:4;" d="M 141.999601 262.999967 L 143.500285 256.500106 L 135.49974 246.499683 L 137.499618 230.000431 L 123.500472 214.000374 " transform="matrix(3.779528,0,0,3.779528,0,0)"/>
<path style="fill:none;stroke-width:2;stroke-linecap:butt;stroke-linejoin:miter;stroke:rgb(0%,0%,0%);stroke-opacity:1;stroke-miterlimit:4;" d="M 154.50013 178.999927 L 170.500187 187.000472 L 189.999772 189.499544 L 205.999829 191.000228 L 221.999886 193.000106 L 237.999943 194.499756 L 239.999821 210.499813 L 260.499862 198.000317 L 276.499919 200.000195 L 292.499976 201.499845 L 309.00026 203.499723 L 330.999951 205.499601 " transform="matrix(3.779528,0,0,3.779528,0,0)"/>
<path style="fill:none;stroke-width:2;stroke-linecap:butt;stroke-linejoin:miter;stroke:rgb(0%,0%,0%);stroke-opacity:1;stroke-miterlimit:4;" d="M 321.999984 199.499967 L 314.000472 215.500024 L 320.000106 218.999552 L 339.999919 205.000407 L 355.999976 200.999618 L 372.000033 182.999683 " transform="matrix(3.779528,0,0,3.779528,0,0)"/>
<path style="fill:none;stroke-width:2;stroke-linecap:butt;stroke-linejoin:miter;stroke:rgb(0%,0%,0%);stroke-opacity:1;stroke-miterlimit:4;" d="M 362.499837 198.000317 L 373.99991 182.00026 L 374.500138 168.000081 L 377.999666 152.000024 L 380.499772 134.00009 L 382.000456 117.499805 L 388.00009 101.499748 L 386.000212 93.500236 L 384.000334 105.000309 " transform="matrix(3.779528,0,0,3.779528,0,0)"/>
<path style="fill:none;stroke-width:2;stroke-linecap:butt;stroke-linejoin:miter;stroke:rgb(0%,0%,0%);stroke-opacity:1;stroke-miterlimit:4;" d="M 393.499495 93.000008 L 409.000358 93.000008 L 409.000358 100.99952 L 400.999813 117.499805 L 398.499707 133.499862 L 404.999569 143.500285 L 409.000358 139.999723 L 425.000415 139.999723 " transform="matrix(3.779528,0,0,3.779528,0,0)"/>
<path style="fill:none;stroke-width:2;stroke-linecap:butt;stroke-linejoin:miter;stroke:rgb(0%,0%,0%);stroke-opacity:1;stroke-miterlimit:4;" d="M 393.999723 146.000391 L 377.999666 135.999967 " transform="matrix(3.779528,0,0,3.779528,0,0)"/>
<path style="fill:none;stroke-width:2;stroke-linecap:butt;stroke-linejoin:miter;stroke:rgb(0%,0%,0%);stroke-opacity:1;stroke-miterlimit:4;" d="M 388.999512 149.499919 L 373.000488 159.500342 " transform="matrix(3.779528,0,0,3.779528,0,0)"/>
<path style="fill:none;stroke-width:2;stroke-linecap:butt;stroke-linejoin:miter;stroke:rgb(0%,0%,0%);stroke-opacity:1;stroke-miterlimit:4;" d="M 343.50048 107.999609 L 327.999618 123.999666 L 312.499788 125.999544 L 295.999504 114.500505 " transform="matrix(3.779528,0,0,3.779528,0,0)"/>
<path style="fill:none;stroke-width:2;stroke-linecap:butt;stroke-linejoin:miter;stroke:rgb(0%,0%,0%);stroke-opacity:1;stroke-miterlimit:4;" d="M 292.499976 108.499837 L 307.999805 118.50026 L 323.999862 120.500138 L 339.499691 104.500081 " transform="matrix(3.779528,0,0,3.779528,0,0)"/>
<path style="fill:none;stroke-width:2;stroke-linecap:butt;stroke-linejoin:miter;stroke:rgb(0%,0%,0%);stroke-opacity:1;stroke-miterlimit:4;" d="M 334.500513 105.499504 L 318.500456 115.499927 L 302.500399 103.499626 " transform="matrix(3.779528,0,0,3.779528,0,0)"/>
<path style="fill:none;stroke-width:2;stroke-linecap:butt;stroke-linejoin:miter;stroke:rgb(0%,0%,0%);stroke-opacity:1;stroke-miterlimit:4;" d="M 296.499731 92.49978 L 312.499788 84.500269 L 329.000073 84.500269 L 341.000374 90.499902 L 341.000374 106.499959 " transform="matrix(3.779528,0,0,3.779528,0,0)"/>
<path style="fill:none;stroke-width:2;stroke-linecap:butt;stroke-linejoin:miter;stroke:rgb(0%,0%,0%);stroke-opacity:1;stroke-miterlimit:4;" d="M 332.499601 79.500057 L 316.999772 75.500301 L 300.999715 85.499691 " transform="matrix(3.779528,0,0,3.779528,0,0)"/>
<path style="fill:none;stroke-width:2;stroke-linecap:butt;stroke-linejoin:miter;stroke:rgb(0%,0%,0%);stroke-opacity:1;stroke-miterlimit:4;" d="M 304.500277 79.500057 L 294.499854 95.500114 L 299.500065 111.500171 " transform="matrix(3.779528,0,0,3.779528,0,0)"/>
<path style="fill:none;stroke-width:2;stroke-linecap:butt;stroke-linejoin:miter;stroke:rgb(0%,0%,0%);stroke-opacity:1;stroke-miterlimit:4;" d="M 290.500098 93.000008 L 306.500155 73.000195 L 322.500212 69.499634 L 338.500269 77.500179 L 336.999585 101.999976 " transform="matrix(3.779528,0,0,3.779528,0,0)"/>
<path style="fill:none;stroke-width:2;stroke-linecap:butt;stroke-linejoin:miter;stroke:rgb(0%,0%,0%);stroke-opacity:1;stroke-miterlimit:4;" d="M 320.500334 103.499626 L 318.000228 101.499748 L 321.499756 95.500114 L 332.999829 93.500236 L 325.000317 78.000407 " transform="matrix(3.779528,0,0,3.779528,0,0)"/>
<path style="fill:none;stroke-width:2;stroke-linecap:butt;stroke-linejoin:miter;stroke:rgb(0%,0%,0%);stroke-opacity:1;stroke-miterlimit:4;" d="M 324.50009 72.499967 L 344.499902 88.500024 L 346.49978 104.500081 L 334.500513 120.500138 " transform="matrix(3.779528,0,0,3.779528,0,0)"/>
<path style="fill:none;stroke-width:2;stroke-linecap:butt;stroke-linejoin:miter;stroke:rgb(0%,0%,0%);stroke-opacity:1;stroke-miterlimit:4;" d="M 314.999894 145.500163 L 314.999894 161.50022 " transform="matrix(3.779528,0,0,3.779528,0,0)"/>
<path style="fill:none;stroke-width:2;stroke-linecap:butt;stroke-linejoin:miter;stroke:rgb(0%,0%,0%);stroke-opacity:1;stroke-miterlimit:4;" d="M 321.499756 157.500464 L 325.499512 145.500163 L 309.999683 139.499495 L 294.499854 135.49974 L 279.000024 135.999967 L 262.49974 134.500317 L 246.000488 132.999634 L 229.500203 130.999756 L 213.500146 127.500228 L 197.50009 127.500228 " transform="matrix(3.779528,0,0,3.779528,0,0)"/>
<path style="fill:none;stroke-width:2;stroke-linecap:butt;stroke-linejoin:miter;stroke:rgb(0%,0%,0%);stroke-opacity:1;stroke-miterlimit:4;" d="M 197.50009 125.50035 L 197.50009 141.500407 L 200.000195 151.499797 L 209.999585 155.499552 L 220.000008 157.500464 L 236.000065 161.50022 L 250.000244 161.50022 L 266.000301 155.499552 L 282.000358 139.499495 L 297.500187 141.999601 " transform="matrix(3.779528,0,0,3.779528,0,0)"/>
<path style="fill:none;stroke-width:2;stroke-linecap:butt;stroke-linejoin:miter;stroke:rgb(0%,0%,0%);stroke-opacity:1;stroke-miterlimit:4;" d="M 307.000382 144.000513 L 305.000505 159.500342 " transform="matrix(3.779528,0,0,3.779528,0,0)"/>
<path style="fill:none;stroke-width:2;stroke-linecap:butt;stroke-linejoin:miter;stroke:rgb(0%,0%,0%);stroke-opacity:1;stroke-miterlimit:4;" d="M 318.99965 172.500065 L 327.000195 155.99978 L 313.000016 169.999959 L 296.999959 168.000081 L 279.000024 162.000448 L 280.499674 146.000391 L 286.999536 145.500163 " transform="matrix(3.779528,0,0,3.779528,0,0)"/>
<path style="fill:none;stroke-width:2;stroke-linecap:butt;stroke-linejoin:miter;stroke:rgb(0%,0%,0%);stroke-opacity:1;stroke-miterlimit:4;" d="M 259.999634 153.00048 L 271.999935 137.000423 L 264.000423 137.499618 L 243.500382 135.49974 L 223.499536 153.999902 L 219.49978 146.000391 L 233.499959 133.499862 L 217.499902 131.499984 L 200.999618 129.500106 " transform="matrix(3.779528,0,0,3.779528,0,0)"/>
<path style="fill:none;stroke-width:2;stroke-linecap:butt;stroke-linejoin:miter;stroke:rgb(0%,0%,0%);stroke-opacity:1;stroke-miterlimit:4;" d="M 200.500423 130.499528 L 200.999618 146.499585 L 205.000407 146.499585 L 223.000342 144.499707 L 215.500024 137.999845 " transform="matrix(3.779528,0,0,3.779528,0,0)"/>
<path style="fill:none;stroke-width:2;stroke-linecap:butt;stroke-linejoin:miter;stroke:rgb(0%,0%,0%);stroke-opacity:1;stroke-miterlimit:4;" d="M 234.000187 136.500195 L 234.000187 153.00048 " transform="matrix(3.779528,0,0,3.779528,0,0)"/>
<path style="fill:none;stroke-width:2;stroke-linecap:butt;stroke-linejoin:miter;stroke:rgb(0%,0%,0%);stroke-opacity:1;stroke-miterlimit:4;" d="M 250.999666 154.50013 L 250.999666 138.500073 " transform="matrix(3.779528,0,0,3.779528,0,0)"/>
<path style="fill:none;stroke-width:2;stroke-linecap:butt;stroke-linejoin:miter;stroke:rgb(0%,0%,0%);stroke-opacity:1;stroke-miterlimit:4;" d="M 255.999878 138.500073 L 255.999878 154.50013 " transform="matrix(3.779528,0,0,3.779528,0,0)"/>
<path style="fill:none;stroke-width:2;stroke-linecap:butt;stroke-linejoin:miter;stroke:rgb(0%,0%,0%);stroke-opacity:1;stroke-miterlimit:4;" d="M 241.000277 152.500252 L 241.000277 136.500195 " transform="matrix(3.779528,0,0,3.779528,0,0)"/>
<path style="fill:none;stroke-width:2;stroke-linecap:butt;stroke-linejoin:miter;stroke:rgb(0%,0%,0%);stroke-opacity:1;stroke-miterlimit:4;" d="M 248.000366 85.499691 L 232.000309 99.49987 L 216.000252 83.499813 " transform="matrix(3.779528,0,0,3.779528,0,0)"/>
<path style="fill:none;stroke-width:2;stroke-linecap:butt;stroke-linejoin:miter;stroke:rgb(0%,0%,0%);stroke-opacity:1;stroke-miterlimit:4;" d="M 214.499569 77.500179 L 230.499626 63.5 L 246.99991 69.000439 L 248.999788 75.000073 L 246.499683 91.00013 " transform="matrix(3.779528,0,0,3.779528,0,0)"/>
<path style="fill:none;stroke-width:2;stroke-linecap:butt;stroke-linejoin:miter;stroke:rgb(0%,0%,0%);stroke-opacity:1;stroke-miterlimit:4;" d="M 239.000399 103.999854 L 223.499536 99.49987 L 207.999707 87.999797 " transform="matrix(3.779528,0,0,3.779528,0,0)"/>
<path style="fill:none;stroke-width:2;stroke-linecap:butt;stroke-linejoin:miter;stroke:rgb(0%,0%,0%);stroke-opacity:1;stroke-miterlimit:4;" d="M 203.999951 73.500423 L 220.000008 53.000382 L 236.000065 49.499821 L 252.000122 59.500244 " transform="matrix(3.779528,0,0,3.779528,0,0)"/>
<path style="fill:none;stroke-width:2;stroke-linecap:butt;stroke-linejoin:miter;stroke:rgb(0%,0%,0%);stroke-opacity:1;stroke-miterlimit:4;" d="M 242.499927 57.500366 L 227.000098 55.500488 L 211.000041 71.499512 " transform="matrix(3.779528,0,0,3.779528,0,0)"/>
<path style="fill:none;stroke-width:2;stroke-linecap:butt;stroke-linejoin:miter;stroke:rgb(0%,0%,0%);stroke-opacity:1;stroke-miterlimit:4;" d="M 226.49987 65.499878 L 214.000374 81.499935 L 223.999764 97.499992 L 241.999699 87.000374 " transform="matrix(3.779528,0,0,3.779528,0,0)"/>
<path style="fill:none;stroke-width:2;stroke-linecap:butt;stroke-linejoin:miter;stroke:rgb(0%,0%,0%);stroke-opacity:1;stroke-miterlimit:4;" d="M 239.499593 76.999951 L 230.000431 93.000008 L 232.000309 76.999951 " transform="matrix(3.779528,0,0,3.779528,0,0)"/>
<path style="fill:none;stroke-width:2;stroke-linecap:butt;stroke-linejoin:miter;stroke:rgb(0%,0%,0%);stroke-opacity:1;stroke-miterlimit:4;" d="M 237.499715 58.499788 L 253.499772 74.499845 L 250.999666 90.499902 L 241.000277 106.499959 " transform="matrix(3.779528,0,0,3.779528,0,0)"/>
<path style="fill:none;stroke-width:2;stroke-linecap:butt;stroke-linejoin:miter;stroke:rgb(0%,0%,0%);stroke-opacity:1;stroke-miterlimit:4;" d="M 227.000098 103.499626 L 209.000163 87.999797 L 209.000163 72.499967 L 225.00022 56.49991 " transform="matrix(3.779528,0,0,3.779528,0,0)"/>
<path style="fill:none;stroke-width:2;stroke-linecap:butt;stroke-linejoin:miter;stroke:rgb(0%,0%,0%);stroke-opacity:1;stroke-miterlimit:4;" d="M 221.999886 51.999927 L 205.499601 67.999984 L 203.999951 84.500269 L 212.000496 100.500326 L 218.500358 103.999854 L 234.500415 109.500293 L 250.999666 100.000098 " transform="matrix(3.779528,0,0,3.779528,0,0)"/>
<path style="fill:none;stroke-width:2;stroke-linecap:butt;stroke-linejoin:miter;stroke:rgb(0%,0%,0%);stroke-opacity:1;stroke-miterlimit:4;" d="M 249.500016 100.500326 L 259.500439 84.500269 L 257.499528 68.500212 L 237.499715 52.500155 " transform="matrix(3.779528,0,0,3.779528,0,0)"/>
<path style="fill:none;stroke-width:2;stroke-linecap:butt;stroke-linejoin:miter;stroke:rgb(0%,0%,0%);stroke-opacity:1;stroke-miterlimit:4;" d="M 248.999788 12.499495 L 264.999845 28.499552 L 280.999902 30.000236 L 296.999959 16.000057 L 300.999715 5.999634 L 294.499854 21.999691 " transform="matrix(3.779528,0,0,3.779528,0,0)"/>
<path style="fill:none;stroke-width:2;stroke-linecap:butt;stroke-linejoin:miter;stroke:rgb(0%,0%,0%);stroke-opacity:1;stroke-miterlimit:4;" d="M 298.000415 23.500374 L 305.999927 7.500317 " transform="matrix(3.779528,0,0,3.779528,0,0)"/>
<path style="fill:none;stroke-width:2;stroke-linecap:butt;stroke-linejoin:miter;stroke:rgb(0%,0%,0%);stroke-opacity:1;stroke-miterlimit:4;" d="M 311.500366 37.49952 L 315.500122 21.500496 L 320.999528 7.500317 L 305.000505 7.500317 L 289.000448 35.499642 L 273.499585 33.499764 L 257.999756 31.499886 L 241.999699 33.499764 L 225.999642 37.49952 L 224.499992 13.499951 L 221.000464 28.000358 L 205.499601 26.00048 L 189.499544 26.00048 L 173.999715 33.999992 " transform="matrix(3.779528,0,0,3.779528,0,0)"/>
<path style="fill:none;stroke-width:2;stroke-linecap:butt;stroke-linejoin:miter;stroke:rgb(0%,0%,0%);stroke-opacity:1;stroke-miterlimit:4;" d="M 175.500399 38.499976 L 191.500456 33.999992 L 207.500513 35.99987 L 223.499536 32.500342 " transform="matrix(3.779528,0,0,3.779528,0,0)"/>
<path style="fill:none;stroke-width:2;stroke-linecap:butt;stroke-linejoin:miter;stroke:rgb(0%,0%,0%);stroke-opacity:1;stroke-miterlimit:4;" d="M 248.000366 11.500073 L 255.999878 27.50013 " transform="matrix(3.779528,0,0,3.779528,0,0)"/>
<path style="fill:none;stroke-width:2;stroke-linecap:butt;stroke-linejoin:miter;stroke:rgb(0%,0%,0%);stroke-opacity:1;stroke-miterlimit:4;" d="M 316.999772 70.50009 L 294.499854 86.500146 L 290.500098 101.999976 L 298.499609 118.000033 L 300.000293 146.499585 L 289.99987 148.500496 L 275.999691 155.99978 L 270.000057 165.499976 L 287.499764 157.000236 L 297.500187 160.499764 L 321.499756 169.999959 " transform="matrix(3.779528,0,0,3.779528,0,0)"/>
<path style="fill:none;stroke-width:2;stroke-linecap:butt;stroke-linejoin:miter;stroke:rgb(0%,0%,0%);stroke-opacity:1;stroke-miterlimit:4;" d="M 300.000293 216.50048 L 268.000179 211.500269 L 251.499894 209.500391 " transform="matrix(3.779528,0,0,3.779528,0,0)"/>
<path style="fill:none;stroke-width:2;stroke-linecap:butt;stroke-linejoin:miter;stroke:rgb(0%,0%,0%);stroke-opacity:1;stroke-miterlimit:4;" d="M 224.499992 207.999707 L 209.000163 204.500179 L 193.000106 200.500423 L 177.000049 202.500301 L 173.499487 206.500057 " transform="matrix(3.779528,0,0,3.779528,0,0)"/>
<path style="fill:none;stroke-width:2;stroke-linecap:butt;stroke-linejoin:miter;stroke:rgb(0%,0%,0%);stroke-opacity:1;stroke-miterlimit:4;" d="M 148.500496 169.499731 L 164.999748 177.500277 L 180.999805 181.500033 L 245.000033 189.499544 L 260.499862 191.500456 L 276.499919 193.500334 L 293.000203 195.500212 L 325.000317 199.499967 L 340.500146 199.499967 L 355.999976 194.999984 " transform="matrix(3.779528,0,0,3.779528,0,0)"/>
<path style="fill:none;stroke-width:2;stroke-linecap:butt;stroke-linejoin:miter;stroke:rgb(0%,0%,0%);stroke-opacity:1;stroke-miterlimit:4;" d="M 359.499504 223.999764 L 363.500293 240.500049 L 361.500415 257.000334 L 355.499748 273.499585 L 352.999642 289.99987 L 348.999886 306.500155 L 348.999886 316.999772 L 343.000252 341.000374 L 332.499601 357.000431 L 330.499723 373.000488 L 323.999862 384.999756 L 322.500212 400.499585 L 293.000203 418.999748 L 273.000391 441.000472 L 271.499707 456.999495 L 270.000057 473.49978 L 270.500285 488.999609 L 268.500407 506.999544 L 279.000024 496.499927 L 295.000081 488.000187 L 311.000138 487.499959 L 327.500423 489.499837 L 343.000252 499.50026 " transform="matrix(3.779528,0,0,3.779528,0,0)"/>
<path style="fill:none;stroke-width:2;stroke-linecap:butt;stroke-linejoin:miter;stroke:rgb(0%,0%,0%);stroke-opacity:1;stroke-miterlimit:4;" d="M 513.999634 171.999837 L 491.999943 155.99978 " transform="matrix(3.779528,0,0,3.779528,0,0)"/>
<path style="fill:none;stroke-width:2;stroke-linecap:butt;stroke-linejoin:miter;stroke:rgb(0%,0%,0%);stroke-opacity:1;stroke-miterlimit:4;" d="M 504.000244 112.499593 L 488.000187 120.500138 L 472.00013 127 L 456.500301 132.999634 L 470.000252 127 L 506.000122 111.500171 L 497.999577 109.000065 L 481.99952 116.999577 L 466.000496 124.499894 L 450.000439 130.499528 L 478.499992 118.50026 L 510.500106 96.499536 L 502.499561 82.999585 L 480.49987 89.000252 L 474.500236 80.500513 L 463.999585 80.500513 L 486.000309 71.99974 L 504.000244 67.999984 L 509.49965 53.999805 L 495.500505 73.999618 L 479.500448 71.99974 L 463.500391 80.000285 L 447.000106 85.999919 L 431.000049 91.999552 " transform="matrix(3.779528,0,0,3.779528,0,0)"/>
<path style="fill:none;stroke-width:2;stroke-linecap:butt;stroke-linejoin:miter;stroke:rgb(0%,0%,0%);stroke-opacity:1;stroke-miterlimit:4;" d="M 481.99952 81.499935 L 472.500358 81.499935 L 464.499813 97.499992 L 488.500415 103.999854 L 504.500472 89.999674 L 498.499805 87.999797 " transform="matrix(3.779528,0,0,3.779528,0,0)"/>
<path style="fill:none;stroke-width:2;stroke-linecap:butt;stroke-linejoin:miter;stroke:rgb(0%,0%,0%);stroke-opacity:1;stroke-miterlimit:4;" d="M 497.500382 94.999886 L 509.49965 78.999829 " transform="matrix(3.779528,0,0,3.779528,0,0)"/>
<path style="fill:none;stroke-width:2;stroke-linecap:butt;stroke-linejoin:miter;stroke:rgb(0%,0%,0%);stroke-opacity:1;stroke-miterlimit:4;" d="M 512.499984 68.500212 L 490.500293 84.500269 L 482.499748 100.500326 L 472.500358 106.499959 L 488.500415 94.499658 " transform="matrix(3.779528,0,0,3.779528,0,0)"/>
<path style="fill:none;stroke-width:2;stroke-linecap:butt;stroke-linejoin:miter;stroke:rgb(0%,0%,0%);stroke-opacity:1;stroke-miterlimit:4;" d="M 489.499837 68.500212 L 504.999666 57.999561 L 499.000033 55.999683 L 468.499569 71.99974 L 429.999593 88.500024 L 440.000016 85.999919 L 456.000073 78.499601 L 472.00013 71.000317 L 488.000187 62.999772 L 504.000244 53.000382 " transform="matrix(3.779528,0,0,3.779528,0,0)"/>
<path style="fill:none;stroke-width:2;stroke-linecap:butt;stroke-linejoin:miter;stroke:rgb(0%,0%,0%);stroke-opacity:1;stroke-miterlimit:4;" d="M 478.499992 44.999837 L 488.000187 42.999959 L 490.000065 26.999902 L 500.000488 10.999845 L 493.999821 8.999967 " transform="matrix(3.779528,0,0,3.779528,0,0)"/>
<path style="fill:none;stroke-width:2;stroke-linecap:butt;stroke-linejoin:miter;stroke:rgb(0%,0%,0%);stroke-opacity:1;stroke-miterlimit:4;" d="M 483.500203 1.000456 L 459.499601 1.000456 L 461.500513 17.000513 L 477.499536 15.499829 L 497.999577 17.999935 L 497.999577 4.499984 L 475.999886 16.500285 L 466.000496 32.500342 " transform="matrix(3.779528,0,0,3.779528,0,0)"/>
<path style="fill:none;stroke-width:2;stroke-linecap:butt;stroke-linejoin:miter;stroke:rgb(0%,0%,0%);stroke-opacity:1;stroke-miterlimit:4;" d="M 475.499658 32.000114 L 481.99952 16.500285 " transform="matrix(3.779528,0,0,3.779528,0,0)"/>
<path style="fill:none;stroke-width:2;stroke-linecap:butt;stroke-linejoin:miter;stroke:rgb(0%,0%,0%);stroke-opacity:1;stroke-miterlimit:4;" d="M 509.999878 3.999756 L 493.999821 13.499951 L 474.000008 11.500073 L 457.999951 25.000024 L 453.499967 43.500187 L 447.500334 33.499764 L 456.999495 17.499707 L 454.999618 1.49965 " transform="matrix(3.779528,0,0,3.779528,0,0)"/>
<path style="fill:none;stroke-width:2;stroke-linecap:butt;stroke-linejoin:miter;stroke:rgb(0%,0%,0%);stroke-opacity:1;stroke-miterlimit:4;" d="M 348.499658 56.49991 L 377.000244 72.499967 L 375.000366 88.500024 L 375.000366 103.999854 L 373.000488 119.99991 L 370.999577 135.49974 L 370.999577 151.499797 L 366.999821 166.999626 L 363.500293 182.999683 L 337.499813 205.000407 L 337.499813 209.500391 L 317.5 227.500326 L 333.500057 227.500326 L 339.499691 220.000008 L 354.99952 222.500114 " transform="matrix(3.779528,0,0,3.779528,0,0)"/>
<path style="fill:none;stroke-width:2;stroke-linecap:butt;stroke-linejoin:miter;stroke:rgb(0%,0%,0%);stroke-opacity:1;stroke-miterlimit:4;" d="M 307.999805 113.500049 L 300.499487 97.499992 L 314.499666 80.999707 " transform="matrix(3.779528,0,0,3.779528,0,0)"/>
<path style="fill:none;stroke-width:2;stroke-linecap:butt;stroke-linejoin:miter;stroke:rgb(0%,0%,0%);stroke-opacity:1;stroke-miterlimit:4;" d="M 180.499577 35.000448 L 176.499821 50.500277 L 168.500309 66.500334 L 160.499764 82.500391 L 152.500252 114.500505 L 159.000114 128.49965 L 157.000236 138.500073 " transform="matrix(3.779528,0,0,3.779528,0,0)"/>
<path style="fill:none;stroke-width:2;stroke-linecap:butt;stroke-linejoin:miter;stroke:rgb(0%,0%,0%);stroke-opacity:1;stroke-miterlimit:4;" d="M 141.999601 110.999943 L 133.499862 106.499959 L 113.500049 90.499902 L 118.000033 75.000073 L 121.999788 80.999707 " transform="matrix(3.779528,0,0,3.779528,0,0)"/>
<path style="fill:none;stroke-width:2;stroke-linecap:butt;stroke-linejoin:miter;stroke:rgb(0%,0%,0%);stroke-opacity:1;stroke-miterlimit:4;" d="M 123.500472 79.500057 L 119.499683 95.500114 " transform="matrix(3.779528,0,0,3.779528,0,0)"/>
<path style="fill:none;stroke-width:2;stroke-linecap:butt;stroke-linejoin:miter;stroke:rgb(0%,0%,0%);stroke-opacity:1;stroke-miterlimit:4;" d="M 129.500106 78.499601 L 131.499984 94.499658 L 125.50035 100.500326 L 135.49974 116.500382 " transform="matrix(3.779528,0,0,3.779528,0,0)"/>
<path style="fill:none;stroke-width:2;stroke-linecap:butt;stroke-linejoin:miter;stroke:rgb(0%,0%,0%);stroke-opacity:1;stroke-miterlimit:4;" d="M 73.500423 50.500277 L 57.500366 48.999593 " transform="matrix(3.779528,0,0,3.779528,0,0)"/>
<path style="fill:none;stroke-width:2;stroke-linecap:butt;stroke-linejoin:miter;stroke:rgb(0%,0%,0%);stroke-opacity:1;stroke-miterlimit:4;" d="M 39.000203 52.500155 L 59.000016 68.500212 " transform="matrix(3.779528,0,0,3.779528,0,0)"/>
<path style="fill:none;stroke-width:2;stroke-linecap:butt;stroke-linejoin:miter;stroke:rgb(0%,0%,0%);stroke-opacity:1;stroke-miterlimit:4;" d="M 52.500155 67.999984 L 36.500098 57.500366 " transform="matrix(3.779528,0,0,3.779528,0,0)"/>
<path style="fill:none;stroke-width:2;stroke-linecap:butt;stroke-linejoin:miter;stroke:rgb(0%,0%,0%);stroke-opacity:1;stroke-miterlimit:4;" d="M 39.999626 60.000472 L 60.000472 75.999495 L 62.00035 96.000342 L 55.999683 112.499593 L 41.999504 126.499772 L 41.999504 144.499707 L 57.500366 134.500317 L 73.000195 134.500317 " transform="matrix(3.779528,0,0,3.779528,0,0)"/>
<path style="fill:none;stroke-width:2;stroke-linecap:butt;stroke-linejoin:miter;stroke:rgb(0%,0%,0%);stroke-opacity:1;stroke-miterlimit:4;" d="M 62.00035 69.999862 L 46.000293 57.999561 L 30.000236 53.999805 " transform="matrix(3.779528,0,0,3.779528,0,0)"/>
<path style="fill:none;stroke-width:2;stroke-linecap:butt;stroke-linejoin:miter;stroke:rgb(0%,0%,0%);stroke-opacity:1;stroke-miterlimit:4;" d="M 35.000448 51.000505 L 32.500342 66.999528 L 32.999536 82.999585 L 34.50022 98.999642 L 38.499976 98.500448 L 30.000236 114.500505 L 44.499609 124.499894 L 23.000146 125.999544 L 39.500431 141.999601 L 19.499585 157.500464 L 11.500073 173.999715 L 15.499829 189.999772 L 27.50013 205.999829 " transform="matrix(3.779528,0,0,3.779528,0,0)"/>
<path style="fill:none;stroke-width:2;stroke-linecap:butt;stroke-linejoin:miter;stroke:rgb(0%,0%,0%);stroke-opacity:1;stroke-miterlimit:4;" d="M 52.500155 200.000195 L 57.999561 184.000138 L 55.500488 167.499854 L 35.000448 165.499976 L 17.000513 147.500041 L 1.000456 141.000179 " transform="matrix(3.779528,0,0,3.779528,0,0)"/>
<path style="fill:none;stroke-width:2;stroke-linecap:butt;stroke-linejoin:miter;stroke:rgb(0%,0%,0%);stroke-opacity:1;stroke-miterlimit:4;" d="M 33.499764 112.000399 L 17.499707 105.999731 L 1.49965 91.999552 " transform="matrix(3.779528,0,0,3.779528,0,0)"/>
<path style="fill:none;stroke-width:2;stroke-linecap:butt;stroke-linejoin:miter;stroke:rgb(0%,0%,0%);stroke-opacity:1;stroke-miterlimit:4;" d="M 0 87.000374 L 16.500285 98.500448 L 44.999837 103.000431 " transform="matrix(3.779528,0,0,3.779528,0,0)"/>
<path style="fill:none;stroke-width:2;stroke-linecap:butt;stroke-linejoin:miter;stroke:rgb(0%,0%,0%);stroke-opacity:1;stroke-miterlimit:4;" d="M 48.999593 117.499805 L 35.000448 129.500106 L 30.999658 117.499805 L 37.000326 113.500049 L 25.000024 103.000431 L 5.000212 100.500326 L 4.499984 84.500269 " transform="matrix(3.779528,0,0,3.779528,0,0)"/>
<path style="fill:none;stroke-width:2;stroke-linecap:butt;stroke-linejoin:miter;stroke:rgb(0%,0%,0%);stroke-opacity:1;stroke-miterlimit:4;" d="M 30.000236 23.500374 L 26.00048 27.50013 L 32.000114 10.999845 " transform="matrix(3.779528,0,0,3.779528,0,0)"/>
<path style="fill:none;stroke-width:2;stroke-linecap:butt;stroke-linejoin:miter;stroke:rgb(0%,0%,0%);stroke-opacity:1;stroke-miterlimit:4;" d="M 31.499886 3.499528 L 17.000513 13.499951 L 13.499951 19.999813 L 25.000024 3.999756 " transform="matrix(3.779528,0,0,3.779528,0,0)"/>
<path style="fill:none;stroke-width:2;stroke-linecap:butt;stroke-linejoin:miter;stroke:rgb(0%,0%,0%);stroke-opacity:1;stroke-miterlimit:4;" d="M 179.500155 27.50013 L 171.499609 43.500187 L 167.499854 59.500244 L 171.499609 80.999707 L 169.499731 96.999764 L 165.499976 112.499593 L 162.000448 128.49965 L 158.499886 144.000513 L 157.000236 159.999536 L 159.500342 175.999593 L 182.00026 196.000439 L 193.999528 203.999951 L 201.499845 205.999829 " transform="matrix(3.779528,0,0,3.779528,0,0)"/>
</g>
</svg>
