<?xml version="1.0" encoding="UTF-8"?>
<svg xmlns="http://www.w3.org/2000/svg" xmlns:xlink="http://www.w3.org/1999/xlink" width="1935.11811" height="1935.11811" viewBox="0 0 1935.11811 1935.11811" version="1.1">
<g id="surface1">
<path style="fill:none;stroke-width:2;stroke-linecap:butt;stroke-linejoin:miter;stroke:rgb(0%,0%,0%);stroke-opacity:1;stroke-miterlimit:4;" d="M 139.499495 2.500106 L 141.500407 18.500163 L 149.499919 50.500277 L 153.499674 66.999528 L 157.500464 82.999585 L 143.500285 93.000008 L 133.499862 109.000065 L 139.000301 100.99952 L 162.99987 94.499658 " transform="matrix(3.779528,0,0,3.779528,0,0)"/>
<path style="fill:none;stroke-width:2;stroke-linecap:butt;stroke-linejoin:miter;stroke:rgb(0%,0%,0%);stroke-opacity:1;stroke-miterlimit:4;" d="M 175.500399 53.499577 L 183.49991 85.499691 L 187.499666 100.99952 L 191.500456 116.999577 L 195.500212 132.500439 L 200.000195 148.500496 L 204.500179 164.000326 L 209.000163 180.000382 L 211.500269 196.000439 L 216.000252 212.000496 L 220.000008 227.99952 L 223.499536 243.999577 L 227.000098 259.500439 L 230.499626 275.500496 L 232.499504 291.999748 L 236.000065 307.499577 " transform="matrix(3.779528,0,0,3.779528,0,0)"/>
<path style="fill:none;stroke-width:2;stroke-linecap:butt;stroke-linejoin:miter;stroke:rgb(0%,0%,0%);stroke-opacity:1;stroke-miterlimit:4;" d="M 257.499528 300.000293 L 273.499585 282.000358 L 289.99987 286.000114 L 305.999927 307.999805 L 321.999984 332.499601 L 338.000041 350.499536 " transform="matrix(3.779528,0,0,3.779528,0,0)"/>
<path style="fill:none;stroke-width:2;stroke-linecap:butt;stroke-linejoin:miter;stroke:rgb(0%,0%,0%);stroke-opacity:1;stroke-miterlimit:4;" d="M 325.99974 346.49978 L 309.500488 324.50009 L 293.000203 298.000415 L 277.000146 299.500065 L 261.00009 309.500488 " transform="matrix(3.779528,0,0,3.779528,0,0)"/>
<path style="fill:none;stroke-width:2;stroke-linecap:butt;stroke-linejoin:miter;stroke:rgb(0%,0%,0%);stroke-opacity:1;stroke-miterlimit:4;" d="M 263.500195 314.999894 L 275.500496 313.000016 " transform="matrix(3.779528,0,0,3.779528,0,0)"/>
<path style="fill:none;stroke-width:2;stroke-linecap:butt;stroke-linejoin:miter;stroke:rgb(0%,0%,0%);stroke-opacity:1;stroke-miterlimit:4;" d="M 273.000391 320.500334 L 289.000448 314.499666 L 306.500155 307.000382 L 316.499544 323.000439 L 329.999495 339.499691 L 341.499569 355.499748 L 347.500236 371.499805 L 348.000464 387.499862 L 350.000342 403.499919 L 348.000464 419.499976 L 348.000464 435.500033 L 338.000041 452.000317 " transform="matrix(3.779528,0,0,3.779528,0,0)"/>
<path style="fill:none;stroke-width:2;stroke-linecap:butt;stroke-linejoin:miter;stroke:rgb(0%,0%,0%);stroke-opacity:1;stroke-miterlimit:4;" d="M 366.499593 429.000171 L 350.499536 462.499935 L 338.500269 468.999797 L 330.499723 486.999731 L 336.500391 470.50048 L 348.000464 454.500423 L 356.500203 436.500488 L 360.499959 404.500374 L 368.500505 388.999512 L 378.499894 373.000488 L 384.999756 357.000431 L 393.000301 340.500146 L 414.999992 323.999862 L 438.999561 307.499577 L 459.000407 291.49952 L 465.000041 275.500496 L 486.999731 259.500439 L 511.000334 243.500382 L 510.500106 221.499658 L 506.50035 228.999976 L 502.000366 225.500448 L 506.000122 209.999585 L 508.500228 193.999528 L 495.000277 169.499731 L 495.000277 153.499674 L 491.499715 137.499618 L 482.999976 135.49974 " transform="matrix(3.779528,0,0,3.779528,0,0)"/>
<path style="fill:none;stroke-width:2;stroke-linecap:butt;stroke-linejoin:miter;stroke:rgb(0%,0%,0%);stroke-opacity:1;stroke-miterlimit:4;" d="M 482.499748 148.000269 L 458.500179 119.499683 L 442.500122 111.500171 L 426.500065 99.49987 " transform="matrix(3.779528,0,0,3.779528,0,0)"/>
<path style="fill:none;stroke-width:2;stroke-linecap:butt;stroke-linejoin:miter;stroke:rgb(0%,0%,0%);stroke-opacity:1;stroke-miterlimit:4;" d="M 426.500065 100.500326 L 432.499699 116.500382 L 444.5 126.499772 " transform="matrix(3.779528,0,0,3.779528,0,0)"/>
<path style="fill:none;stroke-width:2;stroke-linecap:butt;stroke-linejoin:miter;stroke:rgb(0%,0%,0%);stroke-opacity:1;stroke-miterlimit:4;" d="M 447.999528 128.49965 L 432.000505 121.000366 " transform="matrix(3.779528,0,0,3.779528,0,0)"/>
<path style="fill:none;stroke-width:2;stroke-linecap:butt;stroke-linejoin:miter;stroke:rgb(0%,0%,0%);stroke-opacity:1;stroke-miterlimit:4;" d="M 430.499821 131.499984 L 446.499878 139.499495 " transform="matrix(3.779528,0,0,3.779528,0,0)"/>
<path style="fill:none;stroke-width:2;stroke-linecap:butt;stroke-linejoin:miter;stroke:rgb(0%,0%,0%);stroke-opacity:1;stroke-miterlimit:4;" d="M 454.000195 139.999723 L 438.000138 130.499528 L 422.000081 126.499772 " transform="matrix(3.779528,0,0,3.779528,0,0)"/>
<path style="fill:none;stroke-width:2;stroke-linecap:butt;stroke-linejoin:miter;stroke:rgb(0%,0%,0%);stroke-opacity:1;stroke-miterlimit:4;" d="M 419.499976 127.500228 L 435.500033 141.500407 L 451.50009 147.500041 " transform="matrix(3.779528,0,0,3.779528,0,0)"/>
<path style="fill:none;stroke-width:2;stroke-linecap:butt;stroke-linejoin:miter;stroke:rgb(0%,0%,0%);stroke-opacity:1;stroke-miterlimit:4;" d="M 452.000317 150.999569 L 435.500033 148.999691 L 419.499976 143.000057 " transform="matrix(3.779528,0,0,3.779528,0,0)"/>
<path style="fill:none;stroke-width:2;stroke-linecap:butt;stroke-linejoin:miter;stroke:rgb(0%,0%,0%);stroke-opacity:1;stroke-miterlimit:4;" d="M 418.999748 144.000513 L 459.000407 163.500098 " transform="matrix(3.779528,0,0,3.779528,0,0)"/>
<path style="fill:none;stroke-width:2;stroke-linecap:butt;stroke-linejoin:miter;stroke:rgb(0%,0%,0%);stroke-opacity:1;stroke-miterlimit:4;" d="M 462.499935 157.999658 L 446.499878 159.500342 L 429.999593 153.999902 L 413.999536 146.000391 " transform="matrix(3.779528,0,0,3.779528,0,0)"/>
<path style="fill:none;stroke-width:2;stroke-linecap:butt;stroke-linejoin:miter;stroke:rgb(0%,0%,0%);stroke-opacity:1;stroke-miterlimit:4;" d="M 409.499552 132.500439 L 433.500155 134.500317 " transform="matrix(3.779528,0,0,3.779528,0,0)"/>
<path style="fill:none;stroke-width:2;stroke-linecap:butt;stroke-linejoin:miter;stroke:rgb(0%,0%,0%);stroke-opacity:1;stroke-miterlimit:4;" d="M 404.000146 128.000456 L 420.000203 128.000456 L 388.00009 134.00009 L 386.500439 150.000146 L 392.500073 166.500431 L 422.500309 182.00026 L 462.499935 198.499512 L 465.000041 198.499512 L 480.49987 182.999683 L 490.500293 192.499878 L 488.500415 208.499935 L 482.499748 236.500293 L 474.500236 252.50035 L 466.000496 268.500407 L 488.000187 278.499797 L 496.499927 294.499854 L 510.500106 305.999927 L 476.500114 331.500179 L 476.500114 341.499569 L 484.499626 359.499504 L 470.50048 369.499927 L 470.50048 385.499984 L 462.499935 401.500041 L 442.500122 415.50022 " transform="matrix(3.779528,0,0,3.779528,0,0)"/>
<path style="fill:none;stroke-width:2;stroke-linecap:butt;stroke-linejoin:miter;stroke:rgb(0%,0%,0%);stroke-opacity:1;stroke-miterlimit:4;" d="M 468.499569 451.50009 L 452.499512 466.999919 " transform="matrix(3.779528,0,0,3.779528,0,0)"/>
<path style="fill:none;stroke-width:2;stroke-linecap:butt;stroke-linejoin:miter;stroke:rgb(0%,0%,0%);stroke-opacity:1;stroke-miterlimit:4;" d="M 450.000439 494.500049 L 434.000382 508.500228 L 440.000016 496.499927 L 457.499723 480.49987 L 485.500081 456.500301 L 501.500138 440.500244 L 502.999788 434.499577 L 493.000399 448.499756 L 477.000342 463.999585 L 488.500415 445.99965 L 493.000399 436.00026 L 509.000456 421.499854 L 493.000399 435.500033 L 479.500448 448.999984 L 463.500391 463.000163 L 447.500334 479.00022 L 445.000228 479.500448 L 481.000098 447.500334 L 488.999609 431.500277 L 504.999666 416.000448 L 500.99991 420.000203 L 484.999854 434.499577 L 484.999854 464.499813 L 479.00022 478.499992 L 468.999797 474.500236 L 452.99974 484.499626 L 436.999683 499.000033 L 436.999683 504.999666 L 455.499845 488.999609 L 457.999951 463.000163 L 475.999886 447.000106 L 482.499748 431.000049 L 500.499683 414.999992 L 508.500228 406.500252 L 492.500171 422.500309 L 476.500114 420.999626 L 460.500057 436.999683 L 456.000073 459.000407 L 440.000016 465.000041 L 437.49991 486.499504 L 421.499854 510.500106 L 413.000114 495.999699 L 416.99987 479.999642 L 422.999504 463.999585 L 429.000171 447.999528 L 434.999805 432.000505 L 441.000472 416.000448 L 450.999862 400.000391 L 457.499723 384.000334 L 455.499845 368.000277 L 443.999772 352.00022 L 434.499577 332.000407 L 418.49952 331.500179 " transform="matrix(3.779528,0,0,3.779528,0,0)"/>
<path style="fill:none;stroke-width:2;stroke-linecap:butt;stroke-linejoin:miter;stroke:rgb(0%,0%,0%);stroke-opacity:1;stroke-miterlimit:4;" d="M 416.000448 329.500301 L 432.000505 327.999618 L 452.000317 346.49978 L 438.000138 340.500146 L 453.499967 355.999976 L 467.500146 357.999854 L 461.999707 372.000033 L 461.999707 387.499862 L 455.499845 402.999691 L 456.000073 411.000236 L 475.999886 388.999512 L 466.000496 407.00048 L 457.499723 416.499642 L 473.49978 391.000423 L 479.00022 395.500407 L 474.500236 419.499976 L 456.500301 436.00026 L 450.999862 448.499756 L 438.999561 464.499813 L 432.499699 466.999919 L 438.500366 475.000464 L 436.500488 486.999731 L 427.000293 502.499561 L 419.499976 492.500171 L 436.00026 450.499634 L 452.000317 434.499577 L 468.499569 418.49952 L 484.499626 400.000391 L 508.500228 375.499561 L 506.000122 391.499618 L 490.000065 407.00048 L 490.000065 413.000114 L 506.000122 397.000057 L 502.000366 388.999512 " transform="matrix(3.779528,0,0,3.779528,0,0)"/>
<path style="fill:none;stroke-width:2;stroke-linecap:butt;stroke-linejoin:miter;stroke:rgb(0%,0%,0%);stroke-opacity:1;stroke-miterlimit:4;" d="M 508.500228 390.500195 L 492.500171 406.000024 L 476.500114 427.999715 L 460.500057 441.999894 L 443.999772 457.999951 L 444.5 470.000252 L 460.500057 441.499666 L 479.00022 425.499609 L 495.000277 409.99978 L 511.000334 393.999723 " transform="matrix(3.779528,0,0,3.779528,0,0)"/>
<path style="fill:none;stroke-width:2;stroke-linecap:butt;stroke-linejoin:miter;stroke:rgb(0%,0%,0%);stroke-opacity:1;stroke-miterlimit:4;" d="M 511.000334 443.999772 L 497.000155 459.499601 L 475.000464 475.000464 L 493.000399 454.999618 L 509.000456 445.000228 " transform="matrix(3.779528,0,0,3.779528,0,0)"/>
<path style="fill:none;stroke-width:2;stroke-linecap:butt;stroke-linejoin:miter;stroke:rgb(0%,0%,0%);stroke-opacity:1;stroke-miterlimit:4;" d="M 500.000488 479.00022 L 484.499626 493.499593 L 468.999797 507.499772 L 482.999976 495.500505 L 499.000033 479.500448 " transform="matrix(3.779528,0,0,3.779528,0,0)"/>
<path style="fill:none;stroke-width:2;stroke-linecap:butt;stroke-linejoin:miter;stroke:rgb(0%,0%,0%);stroke-opacity:1;stroke-miterlimit:4;" d="M 465.500269 338.000041 L 471.499902 336.000163 " transform="matrix(3.779528,0,0,3.779528,0,0)"/>
<path style="fill:none;stroke-width:2;stroke-linecap:butt;stroke-linejoin:miter;stroke:rgb(0%,0%,0%);stroke-opacity:1;stroke-miterlimit:4;" d="M 468.499569 311.500366 L 452.499512 313.500244 " transform="matrix(3.779528,0,0,3.779528,0,0)"/>
<path style="fill:none;stroke-width:2;stroke-linecap:butt;stroke-linejoin:miter;stroke:rgb(0%,0%,0%);stroke-opacity:1;stroke-miterlimit:4;" d="M 454.000195 302.999593 L 470.000252 295.000081 " transform="matrix(3.779528,0,0,3.779528,0,0)"/>
<path style="fill:none;stroke-width:2;stroke-linecap:butt;stroke-linejoin:miter;stroke:rgb(0%,0%,0%);stroke-opacity:1;stroke-miterlimit:4;" d="M 475.000464 275.999691 L 490.999487 266.000301 L 499.000033 259.999634 " transform="matrix(3.779528,0,0,3.779528,0,0)"/>
<path style="fill:none;stroke-width:2;stroke-linecap:butt;stroke-linejoin:miter;stroke:rgb(0%,0%,0%);stroke-opacity:1;stroke-miterlimit:4;" d="M 495.999699 266.000301 L 511.999756 250.000244 L 490.500293 266.000301 L 470.50048 273.999813 L 486.999731 259.500439 L 502.499561 249.500016 " transform="matrix(3.779528,0,0,3.779528,0,0)"/>
<path style="fill:none;stroke-width:2;stroke-linecap:butt;stroke-linejoin:miter;stroke:rgb(0%,0%,0%);stroke-opacity:1;stroke-miterlimit:4;" d="M 504.000244 266.499495 L 502.499561 273.000391 L 502.499561 289.99987 " transform="matrix(3.779528,0,0,3.779528,0,0)"/>
<path style="fill:none;stroke-width:2;stroke-linecap:butt;stroke-linejoin:miter;stroke:rgb(0%,0%,0%);stroke-opacity:1;stroke-miterlimit:4;" d="M 506.50035 274.500041 L 506.999544 290.500098 L 502.999788 306.500155 L 502.999788 332.499601 L 501.500138 348.000464 L 497.500382 363.500293 L 495.500505 379.000122 L 485.500081 395.000179 L 473.49978 411.000236 L 457.499723 426.500065 L 441.999894 442.500122 L 432.000505 458.500179 L 426.500065 474.500236 L 420.500431 490.999487 L 414.499764 506.999544 L 420.500431 472.999552 L 436.500488 431.000049 L 458.500179 399.500163 L 492.500171 399.500163 L 508.500228 383.500106 L 510.500106 373.499683 " transform="matrix(3.779528,0,0,3.779528,0,0)"/>
<path style="fill:none;stroke-width:2;stroke-linecap:butt;stroke-linejoin:miter;stroke:rgb(0%,0%,0%);stroke-opacity:1;stroke-miterlimit:4;" d="M 467.500146 341.499569 L 457.999951 334.000285 L 442.500122 334.000285 L 438.500366 339.499691 " transform="matrix(3.779528,0,0,3.779528,0,0)"/>
<path style="fill:none;stroke-width:2;stroke-linecap:butt;stroke-linejoin:miter;stroke:rgb(0%,0%,0%);stroke-opacity:1;stroke-miterlimit:4;" d="M 434.000382 321.999984 L 450.000439 324.50009 L 466.000496 328.499845 L 481.99952 320.500334 " transform="matrix(3.779528,0,0,3.779528,0,0)"/>
<path style="fill:none;stroke-width:2;stroke-linecap:butt;stroke-linejoin:miter;stroke:rgb(0%,0%,0%);stroke-opacity:1;stroke-miterlimit:4;" d="M 478.499992 305.000505 L 462.499935 307.499577 L 446.499878 313.500244 L 430.499821 319.499878 " transform="matrix(3.779528,0,0,3.779528,0,0)"/>
<path style="fill:none;stroke-width:2;stroke-linecap:butt;stroke-linejoin:miter;stroke:rgb(0%,0%,0%);stroke-opacity:1;stroke-miterlimit:4;" d="M 407.00048 335.499935 L 393.000301 351.499992 L 386.500439 368.000277 L 390.500195 375.999788 L 388.500317 382.000456 L 382.49965 398.000513 L 377.999666 413.999536 L 377.999666 428.499943 L 375.999788 444.5 L 372.000033 461.000285 L 368.000277 477.000342 L 366.000399 493.000399 L 374.500138 509.000456 " transform="matrix(3.779528,0,0,3.779528,0,0)"/>
<path style="fill:none;stroke-width:2;stroke-linecap:butt;stroke-linejoin:miter;stroke:rgb(0%,0%,0%);stroke-opacity:1;stroke-miterlimit:4;" d="M 359.999731 495.500505 L 354.000098 495.500505 L 348.000464 504.000244 L 357.999854 488.000187 L 362.499837 472.00013 L 366.499593 456.000073 L 370.500382 440.000016 L 372.50026 423.999959 L 376.500016 402.000269 L 382.49965 385.499984 L 382.49965 381.500228 " transform="matrix(3.779528,0,0,3.779528,0,0)"/>
<path style="fill:none;stroke-width:2;stroke-linecap:butt;stroke-linejoin:miter;stroke:rgb(0%,0%,0%);stroke-opacity:1;stroke-miterlimit:4;" d="M 373.499683 393.999723 L 369.499927 409.99978 L 369.499927 425.999837 L 361.000187 441.999894 L 352.500448 457.499723 L 339.999919 474.000008 L 333.500057 490.000065 L 333.500057 506.50035 L 359.000309 497.000155 " transform="matrix(3.779528,0,0,3.779528,0,0)"/>
<path style="fill:none;stroke-width:2;stroke-linecap:butt;stroke-linejoin:miter;stroke:rgb(0%,0%,0%);stroke-opacity:1;stroke-miterlimit:4;" d="M 358.500081 408.50013 L 374.500138 377.999666 L 390.500195 343.50048 L 406.500252 327.500423 L 422.000081 318.99965 L 438.000138 307.499577 L 453.499967 293.500431 L 461.500513 297.500187 L 447.500334 318.000228 L 463.999585 320.000106 L 479.999642 316.00035 L 495.999699 310.49991 " transform="matrix(3.779528,0,0,3.779528,0,0)"/>
<path style="fill:none;stroke-width:2;stroke-linecap:butt;stroke-linejoin:miter;stroke:rgb(0%,0%,0%);stroke-opacity:1;stroke-miterlimit:4;" d="M 494.500049 234.000187 L 499.000033 218.00013 L 502.999788 201.499845 L 499.50026 194.999984 " transform="matrix(3.779528,0,0,3.779528,0,0)"/>
<path style="fill:none;stroke-width:2;stroke-linecap:butt;stroke-linejoin:miter;stroke:rgb(0%,0%,0%);stroke-opacity:1;stroke-miterlimit:4;" d="M 475.499658 240.500049 L 459.499601 264.499618 L 443.499544 280.499674 L 427.499487 266.999723 " transform="matrix(3.779528,0,0,3.779528,0,0)"/>
<path style="fill:none;stroke-width:2;stroke-linecap:butt;stroke-linejoin:miter;stroke:rgb(0%,0%,0%);stroke-opacity:1;stroke-miterlimit:4;" d="M 417.500098 263.500195 L 433.500155 283.500008 L 449.500212 279.500252 L 465.500269 279.500252 L 477.999764 243.500382 L 493.999821 237.499715 " transform="matrix(3.779528,0,0,3.779528,0,0)"/>
<path style="fill:none;stroke-width:2;stroke-linecap:butt;stroke-linejoin:miter;stroke:rgb(0%,0%,0%);stroke-opacity:1;stroke-miterlimit:4;" d="M 470.000252 191.000228 L 453.499967 191.500456 L 437.49991 186.000016 L 421.499854 182.00026 L 405.499797 173.999715 L 389.49974 162.000448 " transform="matrix(3.779528,0,0,3.779528,0,0)"/>
<path style="fill:none;stroke-width:2;stroke-linecap:butt;stroke-linejoin:miter;stroke:rgb(0%,0%,0%);stroke-opacity:1;stroke-miterlimit:4;" d="M 382.000456 154.50013 L 398.000513 162.99987 L 413.500342 173.000293 L 429.500399 175.000171 " transform="matrix(3.779528,0,0,3.779528,0,0)"/>
<path style="fill:none;stroke-width:2;stroke-linecap:butt;stroke-linejoin:miter;stroke:rgb(0%,0%,0%);stroke-opacity:1;stroke-miterlimit:4;" d="M 441.499666 134.999512 L 417.500098 142.499829 L 401.500041 139.000301 " transform="matrix(3.779528,0,0,3.779528,0,0)"/>
<path style="fill:none;stroke-width:2;stroke-linecap:butt;stroke-linejoin:miter;stroke:rgb(0%,0%,0%);stroke-opacity:1;stroke-miterlimit:4;" d="M 398.499707 136.500195 L 422.500309 152.500252 " transform="matrix(3.779528,0,0,3.779528,0,0)"/>
<path style="fill:none;stroke-width:2;stroke-linecap:butt;stroke-linejoin:miter;stroke:rgb(0%,0%,0%);stroke-opacity:1;stroke-miterlimit:4;" d="M 443.499544 144.999935 L 419.499976 129.500106 L 391.999845 133.499862 " transform="matrix(3.779528,0,0,3.779528,0,0)"/>
<path style="fill:none;stroke-width:2;stroke-linecap:butt;stroke-linejoin:miter;stroke:rgb(0%,0%,0%);stroke-opacity:1;stroke-miterlimit:4;" d="M 387.499862 134.500317 L 403.499919 122.500016 L 419.499976 124.499894 L 435.500033 114.500505 L 451.50009 119.99991 " transform="matrix(3.779528,0,0,3.779528,0,0)"/>
<path style="fill:none;stroke-width:2;stroke-linecap:butt;stroke-linejoin:miter;stroke:rgb(0%,0%,0%);stroke-opacity:1;stroke-miterlimit:4;" d="M 484.999854 107.500415 L 468.499569 98.00022 L 452.499512 92.49978 L 436.999683 84.500269 " transform="matrix(3.779528,0,0,3.779528,0,0)"/>
<path style="fill:none;stroke-width:2;stroke-linecap:butt;stroke-linejoin:miter;stroke:rgb(0%,0%,0%);stroke-opacity:1;stroke-miterlimit:4;" d="M 432.000505 85.999919 L 447.999528 94.000464 L 464.499813 101.999976 " transform="matrix(3.779528,0,0,3.779528,0,0)"/>
<path style="fill:none;stroke-width:2;stroke-linecap:butt;stroke-linejoin:miter;stroke:rgb(0%,0%,0%);stroke-opacity:1;stroke-miterlimit:4;" d="M 451.50009 105.999731 L 435.500033 95.500114 L 420.000203 87.499569 " transform="matrix(3.779528,0,0,3.779528,0,0)"/>
<path style="fill:none;stroke-width:2;stroke-linecap:butt;stroke-linejoin:miter;stroke:rgb(0%,0%,0%);stroke-opacity:1;stroke-miterlimit:4;" d="M 418.000326 84.000041 L 440.000016 100.000098 L 452.000317 116.000155 L 452.000317 126.499772 L 468.000374 138.500073 L 490.000065 128.49965 L 505.499894 128.49965 " transform="matrix(3.779528,0,0,3.779528,0,0)"/>
<path style="fill:none;stroke-width:2;stroke-linecap:butt;stroke-linejoin:miter;stroke:rgb(0%,0%,0%);stroke-opacity:1;stroke-miterlimit:4;" d="M 509.000456 130.499528 L 508.500228 138.500073 L 508.500228 150.000146 " transform="matrix(3.779528,0,0,3.779528,0,0)"/>
<path style="fill:none;stroke-width:2;stroke-linecap:butt;stroke-linejoin:miter;stroke:rgb(0%,0%,0%);stroke-opacity:1;stroke-miterlimit:4;" d="M 504.000244 96.000342 L 488.000187 85.499691 L 472.00013 75.500301 " transform="matrix(3.779528,0,0,3.779528,0,0)"/>
<path style="fill:none;stroke-width:2;stroke-linecap:butt;stroke-linejoin:miter;stroke:rgb(0%,0%,0%);stroke-opacity:1;stroke-miterlimit:4;" d="M 479.500448 76.499723 L 483.500203 92.49978 L 497.500382 108.499837 L 509.49965 110.499715 " transform="matrix(3.779528,0,0,3.779528,0,0)"/>
<path style="fill:none;stroke-width:2;stroke-linecap:butt;stroke-linejoin:miter;stroke:rgb(0%,0%,0%);stroke-opacity:1;stroke-miterlimit:4;" d="M 509.49965 112.999821 L 511.499528 87.499569 L 511.000334 73.500423 L 494.500049 69.499634 L 478.499992 67.499756 L 462.499935 66.000106 L 438.000138 57.999561 L 429.500399 49.499821 L 422.999504 51.499699 L 407.00048 47.499943 L 391.000423 42.999959 " transform="matrix(3.779528,0,0,3.779528,0,0)"/>
<path style="fill:none;stroke-width:2;stroke-linecap:butt;stroke-linejoin:miter;stroke:rgb(0%,0%,0%);stroke-opacity:1;stroke-miterlimit:4;" d="M 389.999967 37.49952 L 357.999854 53.499577 L 348.000464 69.999862 L 341.999797 85.999919 L 338.000041 101.499748 L 336.500391 117.499805 L 336.000163 133.499862 L 343.999674 165.499976 L 350.499536 181.500033 L 366.999821 193.500334 L 376.500016 209.999585 L 388.999512 225.999642 L 384.999756 241.999699 L 391.000423 241.999699 L 407.00048 239.999821 L 418.999748 244.499805 L 434.499577 232.499504 " transform="matrix(3.779528,0,0,3.779528,0,0)"/>
<path style="fill:none;stroke-width:2;stroke-linecap:butt;stroke-linejoin:miter;stroke:rgb(0%,0%,0%);stroke-opacity:1;stroke-miterlimit:4;" d="M 434.000382 233.499959 L 418.49952 249.500016 L 424.500187 261.500317 L 434.499577 277.999569 " transform="matrix(3.779528,0,0,3.779528,0,0)"/>
<path style="fill:none;stroke-width:2;stroke-linecap:butt;stroke-linejoin:miter;stroke:rgb(0%,0%,0%);stroke-opacity:1;stroke-miterlimit:4;" d="M 407.999902 213.500146 L 418.000326 197.50009 L 406.000024 199.499967 L 395.999601 214.000374 L 410.500008 198.000317 L 406.500252 189.999772 L 390.500195 191.99965 L 378.499894 193.999528 L 372.000033 178.000505 L 365.500171 159.999536 L 371.499805 144.000513 L 367.500049 135.999967 L 387.499862 119.99991 L 385.499984 105.499504 L 398.999935 89.999674 L 398.999935 103.999854 " transform="matrix(3.779528,0,0,3.779528,0,0)"/>
<path style="fill:none;stroke-width:2;stroke-linecap:butt;stroke-linejoin:miter;stroke:rgb(0%,0%,0%);stroke-opacity:1;stroke-miterlimit:4;" d="M 430.499821 87.499569 L 457.999951 103.499626 L 457.999951 115.499927 " transform="matrix(3.779528,0,0,3.779528,0,0)"/>
<path style="fill:none;stroke-width:2;stroke-linecap:butt;stroke-linejoin:miter;stroke:rgb(0%,0%,0%);stroke-opacity:1;stroke-miterlimit:4;" d="M 444.5 82.500391 L 461.000285 88.500024 L 472.999552 94.499658 L 482.999976 98.00022 L 499.000033 118.000033 " transform="matrix(3.779528,0,0,3.779528,0,0)"/>
<path style="fill:none;stroke-width:2;stroke-linecap:butt;stroke-linejoin:miter;stroke:rgb(0%,0%,0%);stroke-opacity:1;stroke-miterlimit:4;" d="M 479.500448 82.500391 L 497.500382 98.500448 L 506.999544 114.500505 L 497.000155 130.499528 L 496.499927 146.000391 L 502.499561 162.000448 L 498.499805 175.500399 L 499.000033 193.500334 L 495.000277 209.500391 L 495.500505 223.000342 " transform="matrix(3.779528,0,0,3.779528,0,0)"/>
<path style="fill:none;stroke-width:2;stroke-linecap:butt;stroke-linejoin:miter;stroke:rgb(0%,0%,0%);stroke-opacity:1;stroke-miterlimit:4;" d="M 444.5 278.499797 L 460.500057 262.49974 L 472.500358 246.000488 L 477.999764 229.500203 L 479.999642 213.500146 L 484.000431 197.50009 L 479.999642 185.499788 L 470.000252 179.500155 L 488.000187 175.000171 L 486.499504 159.000114 L 480.49987 143.000057 L 474.000008 131.499984 L 477.999764 123.500472 L 490.000065 107.999609 L 477.499536 91.999552 L 463.999585 84.000041 L 450.000439 60.000472 L 427.999715 44.000415 L 416.000448 44.000415 L 400.000391 41.999504 " transform="matrix(3.779528,0,0,3.779528,0,0)"/>
<path style="fill:none;stroke-width:2;stroke-linecap:butt;stroke-linejoin:miter;stroke:rgb(0%,0%,0%);stroke-opacity:1;stroke-miterlimit:4;" d="M 411.000236 55.00026 L 416.499642 71.000317 L 395.000179 87.000374 L 380.499772 103.000431 L 374.500138 118.50026 L 361.999609 134.500317 L 358.500081 150.500374 L 357.000431 166.000203 L 363.500293 182.00026 " transform="matrix(3.779528,0,0,3.779528,0,0)"/>
<path style="fill:none;stroke-width:2;stroke-linecap:butt;stroke-linejoin:miter;stroke:rgb(0%,0%,0%);stroke-opacity:1;stroke-miterlimit:4;" d="M 370.999577 177.500277 L 387.499862 184.000138 L 384.000334 203.499723 L 393.999723 218.999552 L 390.500195 234.999609 L 392.500073 246.99991 L 408.50013 255.000456 L 425.000415 255.49965 L 425.000415 245.50026 L 424.500187 236.999487 L 406.500252 252.999544 L 420.500431 269.499829 L 434.499577 284.999658 " transform="matrix(3.779528,0,0,3.779528,0,0)"/>
<path style="fill:none;stroke-width:2;stroke-linecap:butt;stroke-linejoin:miter;stroke:rgb(0%,0%,0%);stroke-opacity:1;stroke-miterlimit:4;" d="M 462.499935 354.500326 L 448.499756 355.999976 L 432.999927 341.499569 L 416.99987 335.499935 L 400.999813 339.499691 L 384.999756 369.499927 L 368.999699 398.000513 " transform="matrix(3.779528,0,0,3.779528,0,0)"/>
<path style="fill:none;stroke-width:2;stroke-linecap:butt;stroke-linejoin:miter;stroke:rgb(0%,0%,0%);stroke-opacity:1;stroke-miterlimit:4;" d="M 356.500203 318.99965 L 372.50026 318.500456 L 388.999512 318.500456 " transform="matrix(3.779528,0,0,3.779528,0,0)"/>
<path style="fill:none;stroke-width:2;stroke-linecap:butt;stroke-linejoin:miter;stroke:rgb(0%,0%,0%);stroke-opacity:1;stroke-miterlimit:4;" d="M 388.00009 311.000138 L 372.000033 311.500366 L 355.999976 313.500244 " transform="matrix(3.779528,0,0,3.779528,0,0)"/>
<path style="fill:none;stroke-width:2;stroke-linecap:butt;stroke-linejoin:miter;stroke:rgb(0%,0%,0%);stroke-opacity:1;stroke-miterlimit:4;" d="M 314.999894 331.500179 L 326.499967 348.000464 L 332.999829 363.999487 L 329.000073 377.999666 L 334.999707 386.000212 " transform="matrix(3.779528,0,0,3.779528,0,0)"/>
<path style="fill:none;stroke-width:2;stroke-linecap:butt;stroke-linejoin:miter;stroke:rgb(0%,0%,0%);stroke-opacity:1;stroke-miterlimit:4;" d="M 332.499601 393.000301 L 320.500334 376.500016 L 311.999561 360.499959 L 291.999748 356.500203 " transform="matrix(3.779528,0,0,3.779528,0,0)"/>
<path style="fill:none;stroke-width:2;stroke-linecap:butt;stroke-linejoin:miter;stroke:rgb(0%,0%,0%);stroke-opacity:1;stroke-miterlimit:4;" d="M 293.999626 339.999919 L 300.000293 355.999976 L 307.499577 363.999487 L 314.999894 379.50035 L 322.500212 395.500407 " transform="matrix(3.779528,0,0,3.779528,0,0)"/>
<path style="fill:none;stroke-width:2;stroke-linecap:butt;stroke-linejoin:miter;stroke:rgb(0%,0%,0%);stroke-opacity:1;stroke-miterlimit:4;" d="M 277.500374 411.999658 L 293.500431 436.00026 L 309.500488 468.000374 L 325.99974 499.50026 " transform="matrix(3.779528,0,0,3.779528,0,0)"/>
<path style="fill:none;stroke-width:2;stroke-linecap:butt;stroke-linejoin:miter;stroke:rgb(0%,0%,0%);stroke-opacity:1;stroke-miterlimit:4;" d="M 311.999561 375.999788 L 293.999626 367.500049 L 277.999569 373.499683 L 284.000236 357.999854 L 278.499797 341.999797 L 286.500342 321.999984 L 292.499976 309.999683 L 282.499552 325.99974 L 266.499495 330.499723 L 250.500472 338.500269 " transform="matrix(3.779528,0,0,3.779528,0,0)"/>
<path style="fill:none;stroke-width:2;stroke-linecap:butt;stroke-linejoin:miter;stroke:rgb(0%,0%,0%);stroke-opacity:1;stroke-miterlimit:4;" d="M 255.999878 336.999585 L 257.999756 341.000374 L 280.00048 349.500114 L 293.500431 333.500057 " transform="matrix(3.779528,0,0,3.779528,0,0)"/>
<path style="fill:none;stroke-width:2;stroke-linecap:butt;stroke-linejoin:miter;stroke:rgb(0%,0%,0%);stroke-opacity:1;stroke-miterlimit:4;" d="M 304.000049 337.499813 L 291.999748 327.500423 L 271.999935 349.500114 L 255.999878 331.500179 " transform="matrix(3.779528,0,0,3.779528,0,0)"/>
<path style="fill:none;stroke-width:2;stroke-linecap:butt;stroke-linejoin:miter;stroke:rgb(0%,0%,0%);stroke-opacity:1;stroke-miterlimit:4;" d="M 245.50026 343.999674 L 261.00009 363.999487 L 277.000146 365.500171 L 295.000081 385.499984 L 311.000138 387.499862 " transform="matrix(3.779528,0,0,3.779528,0,0)"/>
<path style="fill:none;stroke-width:2;stroke-linecap:butt;stroke-linejoin:miter;stroke:rgb(0%,0%,0%);stroke-opacity:1;stroke-miterlimit:4;" d="M 246.99991 362.499837 L 264.999845 377.999666 L 273.000391 393.999723 L 277.000146 409.499552 L 284.500464 425.499609 L 295.999504 441.499666 L 304.000049 457.499723 L 309.500488 473.49978 L 317.5 489.499837 L 327.500423 506.000122 " transform="matrix(3.779528,0,0,3.779528,0,0)"/>
<path style="fill:none;stroke-width:2;stroke-linecap:butt;stroke-linejoin:miter;stroke:rgb(0%,0%,0%);stroke-opacity:1;stroke-miterlimit:4;" d="M 317.5 474.500236 L 301.499943 436.500488 L 285.499886 416.499642 L 271.000513 394.499951 L 262.999967 376.500016 L 247.500138 368.000277 L 245.50026 361.999609 " transform="matrix(3.779528,0,0,3.779528,0,0)"/>
<path style="fill:none;stroke-width:2;stroke-linecap:butt;stroke-linejoin:miter;stroke:rgb(0%,0%,0%);stroke-opacity:1;stroke-miterlimit:4;" d="M 296.999959 304.000049 L 307.000382 319.499878 L 293.000203 335.499935 L 286.999536 352.00022 L 293.000203 348.499658 L 302.999593 350.499536 L 314.999894 362.499837 L 330.499723 374.500138 L 328.499845 360.499959 " transform="matrix(3.779528,0,0,3.779528,0,0)"/>
<path style="fill:none;stroke-width:2;stroke-linecap:butt;stroke-linejoin:miter;stroke:rgb(0%,0%,0%);stroke-opacity:1;stroke-miterlimit:4;" d="M 354.500326 412.499886 L 356.500203 395.999601 L 354.500326 379.50035 L 356.500203 363.000065 L 341.999797 347.500236 L 329.999495 332.000407 L 316.00035 316.00035 L 305.999927 300.499487 L 295.999504 284.500464 " transform="matrix(3.779528,0,0,3.779528,0,0)"/>
<path style="fill:none;stroke-width:2;stroke-linecap:butt;stroke-linejoin:miter;stroke:rgb(0%,0%,0%);stroke-opacity:1;stroke-miterlimit:4;" d="M 277.999569 276.499919 L 293.999626 293.000203 L 277.500374 300.999715 L 263.500195 316.499544 L 271.499707 332.499601 L 271.499707 343.999674 L 271.999935 359.999731 L 289.499642 366.000399 L 287.999992 368.000277 L 295.999504 377.999666 L 295.999504 391.999845 L 314.000472 394.499951 L 311.999561 404.000146 " transform="matrix(3.779528,0,0,3.779528,0,0)"/>
<path style="fill:none;stroke-width:2;stroke-linecap:butt;stroke-linejoin:miter;stroke:rgb(0%,0%,0%);stroke-opacity:1;stroke-miterlimit:4;" d="M 303.499821 404.500374 L 296.999959 398.499707 L 284.999658 382.000456 L 271.000513 366.000399 L 257.000334 349.500114 L 266.999723 341.999797 L 266.999723 329.999495 L 259.000212 314.499666 L 261.00009 298.499609 L 275.000269 282.499552 " transform="matrix(3.779528,0,0,3.779528,0,0)"/>
<path style="fill:none;stroke-width:2;stroke-linecap:butt;stroke-linejoin:miter;stroke:rgb(0%,0%,0%);stroke-opacity:1;stroke-miterlimit:4;" d="M 271.000513 278.499797 L 257.000334 294.499854 L 252.50035 310.49991 L 250.500472 326.499967 L 244.499805 342.500024 L 256.500106 358.500081 L 266.499495 366.000399 L 271.999935 382.000456 L 277.999569 398.000513 L 284.000236 413.999536 L 294.499854 429.999593 L 306.500155 445.99965 L 312.499788 461.500513 L 318.000228 477.000342 L 325.99974 493.000399 " transform="matrix(3.779528,0,0,3.779528,0,0)"/>
<path style="fill:none;stroke-width:2;stroke-linecap:butt;stroke-linejoin:miter;stroke:rgb(0%,0%,0%);stroke-opacity:1;stroke-miterlimit:4;" d="M 359.000309 259.000212 L 348.499658 243.500382 L 354.500326 227.000098 L 360.499959 223.000342 L 344.499902 234.999609 " transform="matrix(3.779528,0,0,3.779528,0,0)"/>
<path style="fill:none;stroke-width:2;stroke-linecap:butt;stroke-linejoin:miter;stroke:rgb(0%,0%,0%);stroke-opacity:1;stroke-miterlimit:4;" d="M 333.500057 240.500049 L 348.999886 252.50035 " transform="matrix(3.779528,0,0,3.779528,0,0)"/>
<path style="fill:none;stroke-width:2;stroke-linecap:butt;stroke-linejoin:miter;stroke:rgb(0%,0%,0%);stroke-opacity:1;stroke-miterlimit:4;" d="M 345.500358 250.999666 L 329.999495 239.000399 L 348.000464 223.000342 L 362.499837 213.500146 L 346.49978 225.999642 L 330.499723 237.999943 " transform="matrix(3.779528,0,0,3.779528,0,0)"/>
<path style="fill:none;stroke-width:2;stroke-linecap:butt;stroke-linejoin:miter;stroke:rgb(0%,0%,0%);stroke-opacity:1;stroke-miterlimit:4;" d="M 321.999984 216.000252 L 320.000106 212.499691 L 304.000049 205.999829 " transform="matrix(3.779528,0,0,3.779528,0,0)"/>
<path style="fill:none;stroke-width:2;stroke-linecap:butt;stroke-linejoin:miter;stroke:rgb(0%,0%,0%);stroke-opacity:1;stroke-miterlimit:4;" d="M 308.500033 200.999618 L 318.500456 217.499902 " transform="matrix(3.779528,0,0,3.779528,0,0)"/>
<path style="fill:none;stroke-width:2;stroke-linecap:butt;stroke-linejoin:miter;stroke:rgb(0%,0%,0%);stroke-opacity:1;stroke-miterlimit:4;" d="M 359.000309 192.499878 L 343.000252 158.499886 " transform="matrix(3.779528,0,0,3.779528,0,0)"/>
<path style="fill:none;stroke-width:2;stroke-linecap:butt;stroke-linejoin:miter;stroke:rgb(0%,0%,0%);stroke-opacity:1;stroke-miterlimit:4;" d="M 357.499626 146.000391 L 373.499683 113.500049 L 389.49974 89.50048 L 405.499797 75.500301 L 421.499854 67.499756 L 445.000228 87.499569 L 473.49978 101.499748 L 475.999886 116.999577 L 456.000073 129.500106 L 472.00013 119.499683 L 474.000008 130.000334 L 490.000065 119.99991 L 504.500472 141.999601 L 510.500106 157.999658 L 502.499561 182.00026 " transform="matrix(3.779528,0,0,3.779528,0,0)"/>
<path style="fill:none;stroke-width:2;stroke-linecap:butt;stroke-linejoin:miter;stroke:rgb(0%,0%,0%);stroke-opacity:1;stroke-miterlimit:4;" d="M 436.999683 164.999748 L 420.999626 160.999992 L 404.500374 150.500374 L 388.00009 139.000301 " transform="matrix(3.779528,0,0,3.779528,0,0)"/>
<path style="fill:none;stroke-width:2;stroke-linecap:butt;stroke-linejoin:miter;stroke:rgb(0%,0%,0%);stroke-opacity:1;stroke-miterlimit:4;" d="M 387.499862 144.499707 L 411.500464 160.499764 " transform="matrix(3.779528,0,0,3.779528,0,0)"/>
<path style="fill:none;stroke-width:2;stroke-linecap:butt;stroke-linejoin:miter;stroke:rgb(0%,0%,0%);stroke-opacity:1;stroke-miterlimit:4;" d="M 404.500374 167.499854 L 384.499528 151.499797 " transform="matrix(3.779528,0,0,3.779528,0,0)"/>
<path style="fill:none;stroke-width:2;stroke-linecap:butt;stroke-linejoin:miter;stroke:rgb(0%,0%,0%);stroke-opacity:1;stroke-miterlimit:4;" d="M 379.999544 153.00048 L 395.999601 150.999569 L 412.499886 160.999992 L 427.999715 166.999626 L 443.999772 175.000171 L 459.499601 168.500309 " transform="matrix(3.779528,0,0,3.779528,0,0)"/>
<path style="fill:none;stroke-width:2;stroke-linecap:butt;stroke-linejoin:miter;stroke:rgb(0%,0%,0%);stroke-opacity:1;stroke-miterlimit:4;" d="M 393.999723 180.499577 L 377.999666 170.500187 " transform="matrix(3.779528,0,0,3.779528,0,0)"/>
<path style="fill:none;stroke-width:2;stroke-linecap:butt;stroke-linejoin:miter;stroke:rgb(0%,0%,0%);stroke-opacity:1;stroke-miterlimit:4;" d="M 375.499561 151.499797 L 375.499561 167.499854 L 386.000212 183.49991 L 386.000212 202.000073 L 401.500041 193.999528 " transform="matrix(3.779528,0,0,3.779528,0,0)"/>
<path style="fill:none;stroke-width:2;stroke-linecap:butt;stroke-linejoin:miter;stroke:rgb(0%,0%,0%);stroke-opacity:1;stroke-miterlimit:4;" d="M 391.999845 143.000057 L 418.000326 159.000114 L 429.500399 178.999927 L 445.500456 182.999683 L 461.500513 180.999805 L 461.500513 175.000171 " transform="matrix(3.779528,0,0,3.779528,0,0)"/>
<path style="fill:none;stroke-width:2;stroke-linecap:butt;stroke-linejoin:miter;stroke:rgb(0%,0%,0%);stroke-opacity:1;stroke-miterlimit:4;" d="M 372.000033 138.500073 L 375.999788 125.999544 L 386.000212 105.499504 L 402.000269 87.499569 L 425.499609 83.499813 L 441.499666 79.500057 L 457.499723 85.000496 L 470.000252 71.000317 L 486.499504 75.500301 L 502.499561 77.500179 " transform="matrix(3.779528,0,0,3.779528,0,0)"/>
<path style="fill:none;stroke-width:2;stroke-linecap:butt;stroke-linejoin:miter;stroke:rgb(0%,0%,0%);stroke-opacity:1;stroke-miterlimit:4;" d="M 497.999577 64.500456 L 481.99952 60.000472 L 466.000496 60.000472 L 450.000439 57.999561 L 434.000382 45.500065 L 418.000326 39.999626 L 402.000269 37.999748 L 386.500439 40.499854 L 370.999577 46.999715 L 354.99952 59.000016 L 339.000496 94.999886 " transform="matrix(3.779528,0,0,3.779528,0,0)"/>
<path style="fill:none;stroke-width:2;stroke-linecap:butt;stroke-linejoin:miter;stroke:rgb(0%,0%,0%);stroke-opacity:1;stroke-miterlimit:4;" d="M 348.000464 80.999707 L 363.999487 60.999894 L 380.499772 55.00026 L 396.499829 52.500155 L 413.000114 54.500033 L 429.000171 60.000472 " transform="matrix(3.779528,0,0,3.779528,0,0)"/>
<path style="fill:none;stroke-width:2;stroke-linecap:butt;stroke-linejoin:miter;stroke:rgb(0%,0%,0%);stroke-opacity:1;stroke-miterlimit:4;" d="M 416.000448 50.500277 L 433.500155 71.99974 L 449.500212 73.500423 L 465.500269 79.500057 L 481.99952 87.999797 L 497.999577 105.999731 " transform="matrix(3.779528,0,0,3.779528,0,0)"/>
<path style="fill:none;stroke-width:2;stroke-linecap:butt;stroke-linejoin:miter;stroke:rgb(0%,0%,0%);stroke-opacity:1;stroke-miterlimit:4;" d="M 499.000033 92.49978 L 484.999854 76.499723 " transform="matrix(3.779528,0,0,3.779528,0,0)"/>
<path style="fill:none;stroke-width:2;stroke-linecap:butt;stroke-linejoin:miter;stroke:rgb(0%,0%,0%);stroke-opacity:1;stroke-miterlimit:4;" d="M 382.49965 53.000382 L 356.500203 68.500212 L 348.499658 84.500269 L 342.500024 100.500326 L 340.500146 116.500382 L 340.500146 132.500439 L 345.00013 148.500496 L 348.999886 164.49952 L 355.499748 180.000382 L 370.999577 200.000195 L 386.999634 210.499813 L 402.999691 216.000252 " transform="matrix(3.779528,0,0,3.779528,0,0)"/>
<path style="fill:none;stroke-width:2;stroke-linecap:butt;stroke-linejoin:miter;stroke:rgb(0%,0%,0%);stroke-opacity:1;stroke-miterlimit:4;" d="M 181.500033 277.999569 L 166.000203 271.999935 " transform="matrix(3.779528,0,0,3.779528,0,0)"/>
<path style="fill:none;stroke-width:2;stroke-linecap:butt;stroke-linejoin:miter;stroke:rgb(0%,0%,0%);stroke-opacity:1;stroke-miterlimit:4;" d="M 144.000513 265.500073 L 128.49965 259.000212 " transform="matrix(3.779528,0,0,3.779528,0,0)"/>
<path style="fill:none;stroke-width:2;stroke-linecap:butt;stroke-linejoin:miter;stroke:rgb(0%,0%,0%);stroke-opacity:1;stroke-miterlimit:4;" d="M 125.999544 250.500472 L 141.999601 259.999634 L 167.499854 268.500407 L 183.49991 274.500041 " transform="matrix(3.779528,0,0,3.779528,0,0)"/>
<path style="fill:none;stroke-width:2;stroke-linecap:butt;stroke-linejoin:miter;stroke:rgb(0%,0%,0%);stroke-opacity:1;stroke-miterlimit:4;" d="M 209.500391 266.999723 L 205.000407 250.999666 L 200.999618 234.999609 L 196.499634 218.500358 L 191.99965 202.999495 L 190.5 187.000472 L 186.500244 171.000415 L 182.999683 155.000358 L 178.999927 139.000301 L 177.000049 122.500016 L 173.000293 105.999731 L 171.499609 89.50048 L 169.499731 73.000195 L 165.499976 56.49991 L 163.500098 48.000171 " transform="matrix(3.779528,0,0,3.779528,0,0)"/>
<path style="fill:none;stroke-width:2;stroke-linecap:butt;stroke-linejoin:miter;stroke:rgb(0%,0%,0%);stroke-opacity:1;stroke-miterlimit:4;" d="M 166.999626 1.999878 L 171.499609 17.999935 L 175.000171 33.499764 L 179.500155 49.499821 L 183.49991 65.499878 L 187.999894 81.499935 L 191.99965 97.499992 L 196.499634 114.000277 L 200.500423 130.000334 L 205.000407 146.499585 L 216.999674 194.499756 L 221.000464 209.999585 L 225.00022 225.999642 L 227.000098 241.500505 L 230.999854 257.999756 L 234.999609 273.999813 L 236.999487 290.500098 L 245.50026 304.500277 L 245.50026 312.499788 L 264.999845 282.499552 L 280.999902 276.499919 L 296.499731 284.000236 L 311.999561 305.999927 L 327.999618 329.500301 L 343.50048 347.500236 " transform="matrix(3.779528,0,0,3.779528,0,0)"/>
<path style="fill:none;stroke-width:2;stroke-linecap:butt;stroke-linejoin:miter;stroke:rgb(0%,0%,0%);stroke-opacity:1;stroke-miterlimit:4;" d="M 169.999959 269.499829 L 149.499919 265.500073 L 131.499984 249.500016 " transform="matrix(3.779528,0,0,3.779528,0,0)"/>
<path style="fill:none;stroke-width:2;stroke-linecap:butt;stroke-linejoin:miter;stroke:rgb(0%,0%,0%);stroke-opacity:1;stroke-miterlimit:4;" d="M 130.499528 246.499683 L 134.999512 262.49974 " transform="matrix(3.779528,0,0,3.779528,0,0)"/>
<path style="fill:none;stroke-width:2;stroke-linecap:butt;stroke-linejoin:miter;stroke:rgb(0%,0%,0%);stroke-opacity:1;stroke-miterlimit:4;" d="M 103.499626 182.00026 L 87.499569 175.999593 " transform="matrix(3.779528,0,0,3.779528,0,0)"/>
<path style="fill:none;stroke-width:2;stroke-linecap:butt;stroke-linejoin:miter;stroke:rgb(0%,0%,0%);stroke-opacity:1;stroke-miterlimit:4;" d="M 85.499691 168.999504 L 109.500293 184.999561 " transform="matrix(3.779528,0,0,3.779528,0,0)"/>
<path style="fill:none;stroke-width:2;stroke-linecap:butt;stroke-linejoin:miter;stroke:rgb(0%,0%,0%);stroke-opacity:1;stroke-miterlimit:4;" d="M 101.499748 175.000171 L 85.499691 168.999504 " transform="matrix(3.779528,0,0,3.779528,0,0)"/>
<path style="fill:none;stroke-width:2;stroke-linecap:butt;stroke-linejoin:miter;stroke:rgb(0%,0%,0%);stroke-opacity:1;stroke-miterlimit:4;" d="M 53.499577 73.500423 L 37.49952 65.499878 " transform="matrix(3.779528,0,0,3.779528,0,0)"/>
<path style="fill:none;stroke-width:2;stroke-linecap:butt;stroke-linejoin:miter;stroke:rgb(0%,0%,0%);stroke-opacity:1;stroke-miterlimit:4;" d="M 37.000326 62.499544 L 59.000016 78.499601 " transform="matrix(3.779528,0,0,3.779528,0,0)"/>
<path style="fill:none;stroke-width:2;stroke-linecap:butt;stroke-linejoin:miter;stroke:rgb(0%,0%,0%);stroke-opacity:1;stroke-miterlimit:4;" d="M 67.999984 75.000073 L 51.999927 67.499756 L 35.99987 61.500122 " transform="matrix(3.779528,0,0,3.779528,0,0)"/>
<path style="fill:none;stroke-width:2;stroke-linecap:butt;stroke-linejoin:miter;stroke:rgb(0%,0%,0%);stroke-opacity:1;stroke-miterlimit:4;" d="M 41.999504 64.000228 L 67.499756 80.000285 " transform="matrix(3.779528,0,0,3.779528,0,0)"/>
<path style="fill:none;stroke-width:2;stroke-linecap:butt;stroke-linejoin:miter;stroke:rgb(0%,0%,0%);stroke-opacity:1;stroke-miterlimit:4;" d="M 135.999967 114.000277 L 146.000391 99.49987 L 162.000448 81.499935 L 157.999658 64.99965 L 153.499674 49.499821 L 149.499919 33.499764 L 146.999813 17.499707 L 144.999935 1.49965 " transform="matrix(3.779528,0,0,3.779528,0,0)"/>
<path style="fill:none;stroke-width:2;stroke-linecap:butt;stroke-linejoin:miter;stroke:rgb(0%,0%,0%);stroke-opacity:1;stroke-miterlimit:4;" d="M 163.500098 1.000456 L 165.499976 17.000513 L 169.499731 32.999536 L 173.499487 49.499821 L 171.999837 66.000106 L 175.999593 82.500391 L 178.000505 98.500448 L 180.000382 114.500505 L 184.000138 130.499528 L 188.500122 146.499585 L 191.000228 162.499642 L 194.999984 178.499699 L 198.499512 194.499756 L 202.500301 210.499813 L 210.499813 242.499927 L 214.499569 257.999756 L 218.00013 273.999813 " transform="matrix(3.779528,0,0,3.779528,0,0)"/>
<path style="fill:none;stroke-width:2;stroke-linecap:butt;stroke-linejoin:miter;stroke:rgb(0%,0%,0%);stroke-opacity:1;stroke-miterlimit:4;" d="M 225.999642 21.500496 L 209.999585 37.49952 L 218.00013 29.500008 L 232.000309 12.999723 " transform="matrix(3.779528,0,0,3.779528,0,0)"/>
<path style="fill:none;stroke-width:2;stroke-linecap:butt;stroke-linejoin:miter;stroke:rgb(0%,0%,0%);stroke-opacity:1;stroke-miterlimit:4;" d="M 227.99952 11.500073 L 212.000496 27.50013 L 203.499723 37.49952 L 219.49978 19.499585 " transform="matrix(3.779528,0,0,3.779528,0,0)"/>
</g>
</svg>
