<?xml version="1.0" encoding="UTF-8"?>
<svg xmlns="http://www.w3.org/2000/svg" xmlns:xlink="http://www.w3.org/1999/xlink" width="1935.11811" height="1935.11811" viewBox="0 0 1935.11811 1935.11811" version="1.1">
<g id="surface1">
<path style="fill:none;stroke-width:2;stroke-linecap:butt;stroke-linejoin:miter;stroke:rgb(0%,0%,0%);stroke-opacity:1;stroke-miterlimit:4;" d="M 379.50035 2.500106 L 381.500228 18.500163 L 385.499984 34.50022 L 373.499683 50.500277 L 353.49987 66.999528 L 349.500114 82.999585 L 339.499691 98.999642 L 327.500423 114.999699 L 293.000203 130.999756 L 291.000326 146.499585 L 292.499976 162.499642 L 293.000203 178.499699 L 282.99978 194.499756 L 286.999536 210.499813 L 287.499764 225.999642 L 305.499699 241.500505 L 307.499577 257.000334 L 317.5 273.000391 L 307.499577 273.000391 L 307.499577 288.50022 L 314.000472 304.500277 L 291.999748 322.500212 " transform="matrix(3.779528,0,0,3.779528,0,0)"/>
<path style="fill:none;stroke-width:2;stroke-linecap:butt;stroke-linejoin:miter;stroke:rgb(0%,0%,0%);stroke-opacity:1;stroke-miterlimit:4;" d="M 275.999691 321.999984 L 259.999634 323.999862 " transform="matrix(3.779528,0,0,3.779528,0,0)"/>
<path style="fill:none;stroke-width:2;stroke-linecap:butt;stroke-linejoin:miter;stroke:rgb(0%,0%,0%);stroke-opacity:1;stroke-miterlimit:4;" d="M 268.999601 350.000342 L 271.000513 365.500171 L 286.999536 385.499984 L 277.000146 402.000269 L 273.000391 416.499642 L 266.999723 426.500065 L 273.000391 442.500122 L 274.500041 458.500179 L 276.499919 474.500236 L 258.499984 482.499748 L 268.999601 482.499748 L 284.999658 466.499691 " transform="matrix(3.779528,0,0,3.779528,0,0)"/>
<path style="fill:none;stroke-width:2;stroke-linecap:butt;stroke-linejoin:miter;stroke:rgb(0%,0%,0%);stroke-opacity:1;stroke-miterlimit:4;" d="M 286.500342 497.500382 L 302.500399 491.999943 L 318.000228 486.000309 " transform="matrix(3.779528,0,0,3.779528,0,0)"/>
<path style="fill:none;stroke-width:2;stroke-linecap:butt;stroke-linejoin:miter;stroke:rgb(0%,0%,0%);stroke-opacity:1;stroke-miterlimit:4;" d="M 329.000073 504.500472 L 328.499845 508.500228 L 344.499902 500.000488 " transform="matrix(3.779528,0,0,3.779528,0,0)"/>
<path style="fill:none;stroke-width:2;stroke-linecap:butt;stroke-linejoin:miter;stroke:rgb(0%,0%,0%);stroke-opacity:1;stroke-miterlimit:4;" d="M 368.000277 472.500358 L 350.000342 456.500301 L 345.500358 448.499756 L 353.49987 432.000505 L 345.500358 443.999772 " transform="matrix(3.779528,0,0,3.779528,0,0)"/>
<path style="fill:none;stroke-width:2;stroke-linecap:butt;stroke-linejoin:miter;stroke:rgb(0%,0%,0%);stroke-opacity:1;stroke-miterlimit:4;" d="M 339.999919 452.99974 L 355.999976 459.000407 L 371.499805 472.500358 " transform="matrix(3.779528,0,0,3.779528,0,0)"/>
<path style="fill:none;stroke-width:2;stroke-linecap:butt;stroke-linejoin:miter;stroke:rgb(0%,0%,0%);stroke-opacity:1;stroke-miterlimit:4;" d="M 385.499984 459.999829 L 370.000155 429.999593 " transform="matrix(3.779528,0,0,3.779528,0,0)"/>
<path style="fill:none;stroke-width:2;stroke-linecap:butt;stroke-linejoin:miter;stroke:rgb(0%,0%,0%);stroke-opacity:1;stroke-miterlimit:4;" d="M 372.000033 427.000293 L 379.999544 443.00035 L 391.999845 459.499601 " transform="matrix(3.779528,0,0,3.779528,0,0)"/>
<path style="fill:none;stroke-width:2;stroke-linecap:butt;stroke-linejoin:miter;stroke:rgb(0%,0%,0%);stroke-opacity:1;stroke-miterlimit:4;" d="M 400.000391 441.000472 L 383.500106 429.000171 " transform="matrix(3.779528,0,0,3.779528,0,0)"/>
<path style="fill:none;stroke-width:2;stroke-linecap:butt;stroke-linejoin:miter;stroke:rgb(0%,0%,0%);stroke-opacity:1;stroke-miterlimit:4;" d="M 383.500106 427.999715 L 393.499495 443.999772 " transform="matrix(3.779528,0,0,3.779528,0,0)"/>
<path style="fill:none;stroke-width:2;stroke-linecap:butt;stroke-linejoin:miter;stroke:rgb(0%,0%,0%);stroke-opacity:1;stroke-miterlimit:4;" d="M 404.000146 434.999805 L 388.00009 421.499854 " transform="matrix(3.779528,0,0,3.779528,0,0)"/>
<path style="fill:none;stroke-width:2;stroke-linecap:butt;stroke-linejoin:miter;stroke:rgb(0%,0%,0%);stroke-opacity:1;stroke-miterlimit:4;" d="M 383.500106 415.50022 L 399.500163 431.500277 " transform="matrix(3.779528,0,0,3.779528,0,0)"/>
<path style="fill:none;stroke-width:2;stroke-linecap:butt;stroke-linejoin:miter;stroke:rgb(0%,0%,0%);stroke-opacity:1;stroke-miterlimit:4;" d="M 379.50035 440.500244 L 395.000179 460.500057 " transform="matrix(3.779528,0,0,3.779528,0,0)"/>
<path style="fill:none;stroke-width:2;stroke-linecap:butt;stroke-linejoin:miter;stroke:rgb(0%,0%,0%);stroke-opacity:1;stroke-miterlimit:4;" d="M 398.499707 444.5 L 382.49965 438.500366 L 366.499593 427.000293 " transform="matrix(3.779528,0,0,3.779528,0,0)"/>
<path style="fill:none;stroke-width:2;stroke-linecap:butt;stroke-linejoin:miter;stroke:rgb(0%,0%,0%);stroke-opacity:1;stroke-miterlimit:4;" d="M 369.499927 423.999959 L 371.499805 440.000016 L 379.000122 456.500301 L 388.999512 470.50048 L 413.500342 470.50048 L 417.500098 456.500301 " transform="matrix(3.779528,0,0,3.779528,0,0)"/>
<path style="fill:none;stroke-width:2;stroke-linecap:butt;stroke-linejoin:miter;stroke:rgb(0%,0%,0%);stroke-opacity:1;stroke-miterlimit:4;" d="M 428.499943 482.499748 L 428.499943 476.500114 L 418.999748 492.500171 L 434.999805 488.500415 L 450.999862 492.500171 " transform="matrix(3.779528,0,0,3.779528,0,0)"/>
<path style="fill:none;stroke-width:2;stroke-linecap:butt;stroke-linejoin:miter;stroke:rgb(0%,0%,0%);stroke-opacity:1;stroke-miterlimit:4;" d="M 448.499756 486.000309 L 454.500423 502.000366 L 446.499878 499.50026 " transform="matrix(3.779528,0,0,3.779528,0,0)"/>
<path style="fill:none;stroke-width:2;stroke-linecap:butt;stroke-linejoin:miter;stroke:rgb(0%,0%,0%);stroke-opacity:1;stroke-miterlimit:4;" d="M 475.999886 454.999618 L 491.999943 459.000407 L 508 447.000106 " transform="matrix(3.779528,0,0,3.779528,0,0)"/>
<path style="fill:none;stroke-width:2;stroke-linecap:butt;stroke-linejoin:miter;stroke:rgb(0%,0%,0%);stroke-opacity:1;stroke-miterlimit:4;" d="M 500.99991 443.00035 L 493.000399 452.99974 L 477.499536 450.999862 " transform="matrix(3.779528,0,0,3.779528,0,0)"/>
<path style="fill:none;stroke-width:2;stroke-linecap:butt;stroke-linejoin:miter;stroke:rgb(0%,0%,0%);stroke-opacity:1;stroke-miterlimit:4;" d="M 497.999577 434.999805 L 481.99952 422.999504 L 466.499691 420.999626 L 450.499634 431.000049 " transform="matrix(3.779528,0,0,3.779528,0,0)"/>
<path style="fill:none;stroke-width:2;stroke-linecap:butt;stroke-linejoin:miter;stroke:rgb(0%,0%,0%);stroke-opacity:1;stroke-miterlimit:4;" d="M 442.500122 443.00035 L 458.500179 463.000163 L 452.99974 472.500358 " transform="matrix(3.779528,0,0,3.779528,0,0)"/>
<path style="fill:none;stroke-width:2;stroke-linecap:butt;stroke-linejoin:miter;stroke:rgb(0%,0%,0%);stroke-opacity:1;stroke-miterlimit:4;" d="M 503.500016 499.000033 L 495.500505 482.999976 L 504.999666 460.500057 L 502.999788 440.500244 L 490.999487 424.500187 L 497.000155 408.50013 L 509.000456 391.999845 L 504.500472 384.000334 L 496.499927 367.500049 L 502.499561 339.999919 L 496.499927 315.500122 L 496.499927 299.500065 L 499.000033 287.499764 L 502.499561 277.500374 L 484.499626 261.500317 L 472.00013 245.50026 L 481.99952 229.500203 L 473.49978 213.500146 L 475.000464 214.999797 " transform="matrix(3.779528,0,0,3.779528,0,0)"/>
<path style="fill:none;stroke-width:2;stroke-linecap:butt;stroke-linejoin:miter;stroke:rgb(0%,0%,0%);stroke-opacity:1;stroke-miterlimit:4;" d="M 491.499715 208.499935 L 509.49965 224.499992 L 509.49965 240.500049 L 493.499593 256.500106 L 487.499959 271.999935 L 490.000065 287.999992 L 491.499715 304.000049 L 485.500081 320.000106 L 461.500513 323.999862 L 461.500513 339.999919 L 451.50009 343.999674 L 443.499544 359.999731 L 465.000041 368.500505 L 454.999618 380.499772 L 447.500334 396.499829 L 433.500155 412.499886 L 419.499976 408.50013 L 435.500033 406.000024 L 451.50009 386.000212 L 461.500513 370.000155 " transform="matrix(3.779528,0,0,3.779528,0,0)"/>
<path style="fill:none;stroke-width:2;stroke-linecap:butt;stroke-linejoin:miter;stroke:rgb(0%,0%,0%);stroke-opacity:1;stroke-miterlimit:4;" d="M 465.000041 387.499862 L 470.999674 403.499919 L 454.999618 419.499976 L 446.499878 435.500033 L 447.999528 450.999862 L 459.999829 466.999919 L 461.999707 477.000342 L 477.999764 485.500081 L 493.999821 481.99952 L 509.999878 496.499927 " transform="matrix(3.779528,0,0,3.779528,0,0)"/>
<path style="fill:none;stroke-width:2;stroke-linecap:butt;stroke-linejoin:miter;stroke:rgb(0%,0%,0%);stroke-opacity:1;stroke-miterlimit:4;" d="M 499.50026 398.000513 L 477.499536 402.000269 L 461.500513 398.000513 " transform="matrix(3.779528,0,0,3.779528,0,0)"/>
<path style="fill:none;stroke-width:2;stroke-linecap:butt;stroke-linejoin:miter;stroke:rgb(0%,0%,0%);stroke-opacity:1;stroke-miterlimit:4;" d="M 481.99952 356.500203 L 466.000496 344.499902 L 447.999528 348.499658 L 445.99965 334.000285 L 429.999593 339.999919 L 413.999536 341.499569 L 398.000513 331.500179 " transform="matrix(3.779528,0,0,3.779528,0,0)"/>
<path style="fill:none;stroke-width:2;stroke-linecap:butt;stroke-linejoin:miter;stroke:rgb(0%,0%,0%);stroke-opacity:1;stroke-miterlimit:4;" d="M 403.499919 315.500122 L 420.000203 303.499821 L 436.00026 307.999805 " transform="matrix(3.779528,0,0,3.779528,0,0)"/>
<path style="fill:none;stroke-width:2;stroke-linecap:butt;stroke-linejoin:miter;stroke:rgb(0%,0%,0%);stroke-opacity:1;stroke-miterlimit:4;" d="M 457.999951 325.99974 L 474.000008 323.999862 L 493.499593 332.000407 L 495.500505 348.000464 " transform="matrix(3.779528,0,0,3.779528,0,0)"/>
<path style="fill:none;stroke-width:2;stroke-linecap:butt;stroke-linejoin:miter;stroke:rgb(0%,0%,0%);stroke-opacity:1;stroke-miterlimit:4;" d="M 492.500171 332.000407 L 509.000456 336.000163 " transform="matrix(3.779528,0,0,3.779528,0,0)"/>
<path style="fill:none;stroke-width:2;stroke-linecap:butt;stroke-linejoin:miter;stroke:rgb(0%,0%,0%);stroke-opacity:1;stroke-miterlimit:4;" d="M 505.499894 363.000065 L 495.500505 361.000187 L 479.500448 347.000008 L 463.999585 336.999585 L 445.99965 333.500057 L 429.500399 345.500358 L 434.000382 337.499813 L 443.999772 321.999984 L 428.499943 305.999927 L 436.500488 289.99987 L 434.499577 280.00048 L 418.000326 282.000358 " transform="matrix(3.779528,0,0,3.779528,0,0)"/>
<path style="fill:none;stroke-width:2;stroke-linecap:butt;stroke-linejoin:miter;stroke:rgb(0%,0%,0%);stroke-opacity:1;stroke-miterlimit:4;" d="M 425.000415 281.50013 L 441.000472 291.49952 L 456.999495 269.499829 L 463.000163 271.499707 L 448.999984 287.999992 L 468.999797 264.499618 L 484.999854 268.999601 L 488.500415 291.000326 L 504.500472 284.999658 " transform="matrix(3.779528,0,0,3.779528,0,0)"/>
<path style="fill:none;stroke-width:2;stroke-linecap:butt;stroke-linejoin:miter;stroke:rgb(0%,0%,0%);stroke-opacity:1;stroke-miterlimit:4;" d="M 493.000399 293.500431 L 509.000456 298.999837 " transform="matrix(3.779528,0,0,3.779528,0,0)"/>
<path style="fill:none;stroke-width:2;stroke-linecap:butt;stroke-linejoin:miter;stroke:rgb(0%,0%,0%);stroke-opacity:1;stroke-miterlimit:4;" d="M 508 279.500252 L 492.500171 263.500195 L 492.500171 249.500016 L 476.500114 233.499959 L 468.499569 217.499902 L 438.500366 217.499902 " transform="matrix(3.779528,0,0,3.779528,0,0)"/>
<path style="fill:none;stroke-width:2;stroke-linecap:butt;stroke-linejoin:miter;stroke:rgb(0%,0%,0%);stroke-opacity:1;stroke-miterlimit:4;" d="M 436.00026 214.499569 L 452.499512 205.999829 L 468.000374 212.000496 L 483.500203 202.000073 L 499.50026 203.999951 " transform="matrix(3.779528,0,0,3.779528,0,0)"/>
<path style="fill:none;stroke-width:2;stroke-linecap:butt;stroke-linejoin:miter;stroke:rgb(0%,0%,0%);stroke-opacity:1;stroke-miterlimit:4;" d="M 487.499959 153.00048 L 471.499902 146.499585 L 455.499845 150.500374 " transform="matrix(3.779528,0,0,3.779528,0,0)"/>
<path style="fill:none;stroke-width:2;stroke-linecap:butt;stroke-linejoin:miter;stroke:rgb(0%,0%,0%);stroke-opacity:1;stroke-miterlimit:4;" d="M 455.499845 154.50013 L 471.499902 170.500187 L 472.999552 182.500488 L 481.000098 180.499577 " transform="matrix(3.779528,0,0,3.779528,0,0)"/>
<path style="fill:none;stroke-width:2;stroke-linecap:butt;stroke-linejoin:miter;stroke:rgb(0%,0%,0%);stroke-opacity:1;stroke-miterlimit:4;" d="M 461.999707 157.000236 L 445.99965 157.500464 " transform="matrix(3.779528,0,0,3.779528,0,0)"/>
<path style="fill:none;stroke-width:2;stroke-linecap:butt;stroke-linejoin:miter;stroke:rgb(0%,0%,0%);stroke-opacity:1;stroke-miterlimit:4;" d="M 452.000317 157.999658 L 468.000374 173.999715 " transform="matrix(3.779528,0,0,3.779528,0,0)"/>
<path style="fill:none;stroke-width:2;stroke-linecap:butt;stroke-linejoin:miter;stroke:rgb(0%,0%,0%);stroke-opacity:1;stroke-miterlimit:4;" d="M 443.499544 210.499813 L 459.999829 212.499691 L 475.999886 222.500114 L 486.499504 208.499935 L 502.499561 212.499691 " transform="matrix(3.779528,0,0,3.779528,0,0)"/>
<path style="fill:none;stroke-width:2;stroke-linecap:butt;stroke-linejoin:miter;stroke:rgb(0%,0%,0%);stroke-opacity:1;stroke-miterlimit:4;" d="M 497.500382 240.500049 L 481.000098 244.499805 L 456.500301 243.000155 L 440.500244 227.000098 L 443.499544 210.499813 L 445.500456 205.000407 L 445.500456 188.500122 L 441.999894 174.499943 L 445.99965 158.499886 L 428.499943 148.500496 " transform="matrix(3.779528,0,0,3.779528,0,0)"/>
<path style="fill:none;stroke-width:2;stroke-linecap:butt;stroke-linejoin:miter;stroke:rgb(0%,0%,0%);stroke-opacity:1;stroke-miterlimit:4;" d="M 422.500309 123.999666 L 438.999561 112.000399 L 454.999618 116.000155 " transform="matrix(3.779528,0,0,3.779528,0,0)"/>
<path style="fill:none;stroke-width:2;stroke-linecap:butt;stroke-linejoin:miter;stroke:rgb(0%,0%,0%);stroke-opacity:1;stroke-miterlimit:4;" d="M 452.000317 109.500293 L 436.500488 100.99952 L 432.499699 99.49987 L 422.500309 116.000155 L 410.500008 141.999601 L 395.000179 152.500252 L 378.499894 170.500187 L 362.499837 170.500187 L 342.500024 188.500122 L 338.500269 184.500366 L 330.499723 196.499634 L 346.49978 180.499577 " transform="matrix(3.779528,0,0,3.779528,0,0)"/>
<path style="fill:none;stroke-width:2;stroke-linecap:butt;stroke-linejoin:miter;stroke:rgb(0%,0%,0%);stroke-opacity:1;stroke-miterlimit:4;" d="M 359.999731 189.00035 L 357.999854 205.000407 " transform="matrix(3.779528,0,0,3.779528,0,0)"/>
<path style="fill:none;stroke-width:2;stroke-linecap:butt;stroke-linejoin:miter;stroke:rgb(0%,0%,0%);stroke-opacity:1;stroke-miterlimit:4;" d="M 345.00013 216.50048 L 354.99952 202.500301 L 357.000431 186.500244 L 361.000187 170.500187 L 375.000366 158.499886 L 378.499894 142.499829 L 372.50026 126.499772 L 380.499772 110.499715 L 398.499707 98.500448 L 402.500496 90.499902 L 406.500252 74.499845 L 398.000513 58.499788 L 412.499886 40.499854 L 400.499585 37.999748 L 390.500195 39.500431 L 374.500138 57.000138 L 357.999854 66.500334 " transform="matrix(3.779528,0,0,3.779528,0,0)"/>
<path style="fill:none;stroke-width:2;stroke-linecap:butt;stroke-linejoin:miter;stroke:rgb(0%,0%,0%);stroke-opacity:1;stroke-miterlimit:4;" d="M 375.499561 63.5 L 371.499805 79.500057 L 361.500415 95.500114 L 359.499504 109.000065 L 363.500293 114.999699 L 339.499691 122.500016 L 320.000106 130.499528 L 318.500456 148.000269 L 330.999951 157.999658 L 325.499512 173.999715 L 321.999984 189.999772 L 321.999984 218.00013 L 319.499878 220.000008 L 334.999707 213.500146 L 350.499536 207.500513 " transform="matrix(3.779528,0,0,3.779528,0,0)"/>
<path style="fill:none;stroke-width:2;stroke-linecap:butt;stroke-linejoin:miter;stroke:rgb(0%,0%,0%);stroke-opacity:1;stroke-miterlimit:4;" d="M 355.999976 227.99952 L 375.999788 198.000317 L 392.500073 205.999829 L 408.50013 186.000016 L 425.000415 177.500277 L 440.500244 177.500277 L 456.500301 185.499788 " transform="matrix(3.779528,0,0,3.779528,0,0)"/>
<path style="fill:none;stroke-width:2;stroke-linecap:butt;stroke-linejoin:miter;stroke:rgb(0%,0%,0%);stroke-opacity:1;stroke-miterlimit:4;" d="M 415.50022 217.499902 L 409.499552 233.499959 L 411.999658 225.500448 " transform="matrix(3.779528,0,0,3.779528,0,0)"/>
<path style="fill:none;stroke-width:2;stroke-linecap:butt;stroke-linejoin:miter;stroke:rgb(0%,0%,0%);stroke-opacity:1;stroke-miterlimit:4;" d="M 411.000236 216.000252 L 402.999691 231.500081 L 401.500041 247.500138 L 406.000024 227.500326 L 432.499699 209.500391 L 440.500244 236.000065 L 456.999495 246.000488 L 479.00022 257.999756 L 486.499504 246.000488 L 502.499561 246.000488 " transform="matrix(3.779528,0,0,3.779528,0,0)"/>
<path style="fill:none;stroke-width:2;stroke-linecap:butt;stroke-linejoin:miter;stroke:rgb(0%,0%,0%);stroke-opacity:1;stroke-miterlimit:4;" d="M 472.500358 237.999943 L 456.500301 241.999699 L 440.000016 242.499927 L 432.000505 240.500049 L 416.000448 261.00009 L 407.999902 291.000326 L 391.999845 275.500496 L 376.500016 273.000391 L 360.499959 282.99978 " transform="matrix(3.779528,0,0,3.779528,0,0)"/>
<path style="fill:none;stroke-width:2;stroke-linecap:butt;stroke-linejoin:miter;stroke:rgb(0%,0%,0%);stroke-opacity:1;stroke-miterlimit:4;" d="M 358.500081 287.999992 L 374.500138 302.000171 L 389.999967 282.000358 L 389.999967 287.499764 L 384.000334 303.499821 L 375.999788 321.499756 L 377.999666 318.99965 L 402.500496 309.500488 L 416.499642 299.500065 L 432.999927 301.499943 " transform="matrix(3.779528,0,0,3.779528,0,0)"/>
<path style="fill:none;stroke-width:2;stroke-linecap:butt;stroke-linejoin:miter;stroke:rgb(0%,0%,0%);stroke-opacity:1;stroke-miterlimit:4;" d="M 469.500024 321.499756 L 487.499959 337.499813 L 493.999821 353.49987 L 495.999699 343.50048 L 508 357.499626 " transform="matrix(3.779528,0,0,3.779528,0,0)"/>
<path style="fill:none;stroke-width:2;stroke-linecap:butt;stroke-linejoin:miter;stroke:rgb(0%,0%,0%);stroke-opacity:1;stroke-miterlimit:4;" d="M 508 385.499984 L 488.000187 373.499683 L 472.500358 370.999577 L 456.500301 379.000122 L 441.000472 395.000179 L 425.000415 400.999813 L 408.50013 403.499919 L 392.500073 391.499618 " transform="matrix(3.779528,0,0,3.779528,0,0)"/>
<path style="fill:none;stroke-width:2;stroke-linecap:butt;stroke-linejoin:miter;stroke:rgb(0%,0%,0%);stroke-opacity:1;stroke-miterlimit:4;" d="M 361.999609 386.999634 L 379.999544 379.000122 L 367.500049 380.499772 L 361.500415 397.000057 L 388.999512 405.499797 L 392.500073 421.499854 L 392.500073 436.00026 L 404.999569 452.499512 L 400.999813 468.499569 L 394.499951 484.999854 L 390.500195 500.99991 " transform="matrix(3.779528,0,0,3.779528,0,0)"/>
<path style="fill:none;stroke-width:2;stroke-linecap:butt;stroke-linejoin:miter;stroke:rgb(0%,0%,0%);stroke-opacity:1;stroke-miterlimit:4;" d="M 377.500472 463.500391 L 361.999609 443.00035 " transform="matrix(3.779528,0,0,3.779528,0,0)"/>
<path style="fill:none;stroke-width:2;stroke-linecap:butt;stroke-linejoin:miter;stroke:rgb(0%,0%,0%);stroke-opacity:1;stroke-miterlimit:4;" d="M 358.500081 454.500423 L 374.500138 462.499935 L 380.499772 474.500236 L 395.999601 484.499626 L 411.999658 464.499813 " transform="matrix(3.779528,0,0,3.779528,0,0)"/>
<path style="fill:none;stroke-width:2;stroke-linecap:butt;stroke-linejoin:miter;stroke:rgb(0%,0%,0%);stroke-opacity:1;stroke-miterlimit:4;" d="M 420.000203 441.999894 L 402.500496 423.999959 L 376.500016 416.000448 L 360.499959 406.000024 " transform="matrix(3.779528,0,0,3.779528,0,0)"/>
<path style="fill:none;stroke-width:2;stroke-linecap:butt;stroke-linejoin:miter;stroke:rgb(0%,0%,0%);stroke-opacity:1;stroke-miterlimit:4;" d="M 358.500081 399.500163 L 375.000366 409.499552 L 384.999756 415.50022 L 397.000057 431.500277 L 416.99987 439.499788 L 411.000236 455.499845 L 416.99987 467.500146 L 404.500374 483.500203 L 410.500008 503.500016 L 413.000114 507.499772 L 429.000171 507.499772 " transform="matrix(3.779528,0,0,3.779528,0,0)"/>
<path style="fill:none;stroke-width:2;stroke-linecap:butt;stroke-linejoin:miter;stroke:rgb(0%,0%,0%);stroke-opacity:1;stroke-miterlimit:4;" d="M 495.500505 476.500114 L 475.999886 482.499748 L 460.500057 476.500114 L 443.00035 478.499992 L 450.999862 460.500057 L 431.000049 468.499569 L 418.999748 474.000008 L 402.999691 486.000309 L 381 474.000008 L 360.499959 457.999951 L 343.000252 434.000382 L 343.000252 423.999959 L 348.999886 418.000326 L 348.999886 402.000269 L 354.99952 384.000334 L 359.000309 368.000277 L 375.000366 366.000399 L 379.000122 350.000342 L 366.999821 354.000098 L 350.999764 372.000033 " transform="matrix(3.779528,0,0,3.779528,0,0)"/>
<path style="fill:none;stroke-width:2;stroke-linecap:butt;stroke-linejoin:miter;stroke:rgb(0%,0%,0%);stroke-opacity:1;stroke-miterlimit:4;" d="M 357.499626 388.999512 L 373.000488 371.499805 L 370.999577 361.999609 L 364.499715 377.999666 L 355.999976 393.999723 L 361.500415 410.500008 L 379.50035 426.500065 L 383.500106 442.500122 L 387.499862 446.499878 L 409.99978 454.500423 L 426.500065 450.499634 L 441.999894 432.499699 L 457.999951 416.499642 L 465.500269 400.499585 L 485.500081 407.00048 L 501.500138 414.499764 " transform="matrix(3.779528,0,0,3.779528,0,0)"/>
<path style="fill:none;stroke-width:2;stroke-linecap:butt;stroke-linejoin:miter;stroke:rgb(0%,0%,0%);stroke-opacity:1;stroke-miterlimit:4;" d="M 490.999487 362.499837 L 477.000342 346.49978 " transform="matrix(3.779528,0,0,3.779528,0,0)"/>
<path style="fill:none;stroke-width:2;stroke-linecap:butt;stroke-linejoin:miter;stroke:rgb(0%,0%,0%);stroke-opacity:1;stroke-miterlimit:4;" d="M 466.499691 340.500146 L 479.00022 356.500203 L 482.999976 374.500138 L 490.999487 390.500195 L 479.500448 409.99978 L 485.500081 427.499487 L 497.500382 443.00035 L 497.500382 463.000163 L 493.499593 486.999731 L 509.49965 500.499683 " transform="matrix(3.779528,0,0,3.779528,0,0)"/>
<path style="fill:none;stroke-width:2;stroke-linecap:butt;stroke-linejoin:miter;stroke:rgb(0%,0%,0%);stroke-opacity:1;stroke-miterlimit:4;" d="M 379.999544 486.000309 L 363.999487 473.49978 L 348.000464 459.499601 " transform="matrix(3.779528,0,0,3.779528,0,0)"/>
<path style="fill:none;stroke-width:2;stroke-linecap:butt;stroke-linejoin:miter;stroke:rgb(0%,0%,0%);stroke-opacity:1;stroke-miterlimit:4;" d="M 349.500114 463.999585 L 371.499805 479.999642 " transform="matrix(3.779528,0,0,3.779528,0,0)"/>
<path style="fill:none;stroke-width:2;stroke-linecap:butt;stroke-linejoin:miter;stroke:rgb(0%,0%,0%);stroke-opacity:1;stroke-miterlimit:4;" d="M 389.49974 495.500505 L 373.000488 487.499959 L 356.500203 475.499658 L 340.500146 459.499601 " transform="matrix(3.779528,0,0,3.779528,0,0)"/>
<path style="fill:none;stroke-width:2;stroke-linecap:butt;stroke-linejoin:miter;stroke:rgb(0%,0%,0%);stroke-opacity:1;stroke-miterlimit:4;" d="M 343.50048 454.999618 L 351.499992 470.999674 L 373.499683 488.000187 " transform="matrix(3.779528,0,0,3.779528,0,0)"/>
<path style="fill:none;stroke-width:2;stroke-linecap:butt;stroke-linejoin:miter;stroke:rgb(0%,0%,0%);stroke-opacity:1;stroke-miterlimit:4;" d="M 341.499569 477.000342 L 336.000163 468.999797 L 325.99974 452.99974 L 332.000407 434.499577 L 332.499601 418.999748 L 334.500513 403.499919 L 338.500269 409.000358 " transform="matrix(3.779528,0,0,3.779528,0,0)"/>
<path style="fill:none;stroke-width:2;stroke-linecap:butt;stroke-linejoin:miter;stroke:rgb(0%,0%,0%);stroke-opacity:1;stroke-miterlimit:4;" d="M 321.999984 414.999992 L 338.000041 394.499951 L 328.499845 406.000024 L 322.500212 404.000146 L 339.000496 375.499561 " transform="matrix(3.779528,0,0,3.779528,0,0)"/>
<path style="fill:none;stroke-width:2;stroke-linecap:butt;stroke-linejoin:miter;stroke:rgb(0%,0%,0%);stroke-opacity:1;stroke-miterlimit:4;" d="M 338.500269 385.499984 L 340.500146 395.999601 L 338.000041 411.999658 L 337.499813 427.499487 L 333.500057 443.499544 L 336.000163 459.499601 L 348.000464 475.499658 L 361.999609 491.499715 " transform="matrix(3.779528,0,0,3.779528,0,0)"/>
<path style="fill:none;stroke-width:2;stroke-linecap:butt;stroke-linejoin:miter;stroke:rgb(0%,0%,0%);stroke-opacity:1;stroke-miterlimit:4;" d="M 376.500016 495.500505 L 361.000187 481.99952 L 344.499902 472.500358 L 327.999618 456.999495 L 309.500488 450.999862 L 299.500065 449.500212 L 295.500309 421.499854 L 289.99987 411.500464 L 300.499487 395.500407 L 306.500155 379.000122 L 313.000016 362.499837 L 318.99965 346.49978 L 319.499878 346.49978 L 303.499821 388.500317 L 287.499764 414.499764 L 297.500187 420.500431 L 295.500309 434.999805 " transform="matrix(3.779528,0,0,3.779528,0,0)"/>
<path style="fill:none;stroke-width:2;stroke-linecap:butt;stroke-linejoin:miter;stroke:rgb(0%,0%,0%);stroke-opacity:1;stroke-miterlimit:4;" d="M 304.000049 416.000448 L 307.999805 407.999902 L 324.50009 373.99991 " transform="matrix(3.779528,0,0,3.779528,0,0)"/>
<path style="fill:none;stroke-width:2;stroke-linecap:butt;stroke-linejoin:miter;stroke:rgb(0%,0%,0%);stroke-opacity:1;stroke-miterlimit:4;" d="M 302.500399 369.499927 L 318.500456 331.500179 L 350.499536 319.499878 L 366.499593 332.999829 " transform="matrix(3.779528,0,0,3.779528,0,0)"/>
<path style="fill:none;stroke-width:2;stroke-linecap:butt;stroke-linejoin:miter;stroke:rgb(0%,0%,0%);stroke-opacity:1;stroke-miterlimit:4;" d="M 366.000399 305.999927 L 358.500081 302.000171 L 354.99952 285.499886 L 364.999943 269.499829 L 371.499805 267.499951 L 354.99952 283.500008 " transform="matrix(3.779528,0,0,3.779528,0,0)"/>
<path style="fill:none;stroke-width:2;stroke-linecap:butt;stroke-linejoin:miter;stroke:rgb(0%,0%,0%);stroke-opacity:1;stroke-miterlimit:4;" d="M 358.500081 289.499642 L 368.500505 273.000391 " transform="matrix(3.779528,0,0,3.779528,0,0)"/>
<path style="fill:none;stroke-width:2;stroke-linecap:butt;stroke-linejoin:miter;stroke:rgb(0%,0%,0%);stroke-opacity:1;stroke-miterlimit:4;" d="M 391.999845 262.999967 L 373.99991 246.99991 L 363.999487 230.999854 L 375.999788 214.999797 L 373.99991 195.500212 L 377.500472 179.500155 L 387.499862 164.000326 L 389.49974 137.999845 L 389.49974 121.499561 L 403.499919 113.500049 L 386.999634 125.50035 " transform="matrix(3.779528,0,0,3.779528,0,0)"/>
<path style="fill:none;stroke-width:2;stroke-linecap:butt;stroke-linejoin:miter;stroke:rgb(0%,0%,0%);stroke-opacity:1;stroke-miterlimit:4;" d="M 382.49965 114.500505 L 377.000244 130.499528 L 375.000366 152.500252 " transform="matrix(3.779528,0,0,3.779528,0,0)"/>
<path style="fill:none;stroke-width:2;stroke-linecap:butt;stroke-linejoin:miter;stroke:rgb(0%,0%,0%);stroke-opacity:1;stroke-miterlimit:4;" d="M 382.49965 172.500065 L 398.000513 155.99978 L 413.999536 144.000513 L 427.999715 144.000513 L 443.999772 151.499797 L 459.999829 133.499862 " transform="matrix(3.779528,0,0,3.779528,0,0)"/>
<path style="fill:none;stroke-width:2;stroke-linecap:butt;stroke-linejoin:miter;stroke:rgb(0%,0%,0%);stroke-opacity:1;stroke-miterlimit:4;" d="M 436.999683 112.499593 L 420.999626 128.49965 L 413.000114 144.000513 L 400.999813 163.500098 L 409.000358 179.500155 L 400.999813 194.999984 L 381.500228 218.999552 L 379.999544 235.499837 L 372.000033 253.499772 L 388.00009 265.500073 " transform="matrix(3.779528,0,0,3.779528,0,0)"/>
<path style="fill:none;stroke-width:2;stroke-linecap:butt;stroke-linejoin:miter;stroke:rgb(0%,0%,0%);stroke-opacity:1;stroke-miterlimit:4;" d="M 373.99991 245.000033 L 358.500081 234.999609 " transform="matrix(3.779528,0,0,3.779528,0,0)"/>
<path style="fill:none;stroke-width:2;stroke-linecap:butt;stroke-linejoin:miter;stroke:rgb(0%,0%,0%);stroke-opacity:1;stroke-miterlimit:4;" d="M 363.000065 227.99952 L 379.000122 216.000252 L 399.500163 206.500057 L 415.50022 186.500244 L 440.000016 189.00035 L 456.000073 191.000228 L 472.500358 184.999561 L 492.500171 166.999626 L 508.500228 168.500309 " transform="matrix(3.779528,0,0,3.779528,0,0)"/>
<path style="fill:none;stroke-width:2;stroke-linecap:butt;stroke-linejoin:miter;stroke:rgb(0%,0%,0%);stroke-opacity:1;stroke-miterlimit:4;" d="M 508 141.500407 L 500.000488 147.500041 L 497.999577 137.499618 L 497.999577 121.999788 L 504.000244 98.00022 L 497.999577 82.000163 L 491.999943 78.000407 " transform="matrix(3.779528,0,0,3.779528,0,0)"/>
<path style="fill:none;stroke-width:2;stroke-linecap:butt;stroke-linejoin:miter;stroke:rgb(0%,0%,0%);stroke-opacity:1;stroke-miterlimit:4;" d="M 493.000399 71.99974 L 475.000464 73.999618 L 459.000407 65.499878 L 443.00035 75.500301 " transform="matrix(3.779528,0,0,3.779528,0,0)"/>
<path style="fill:none;stroke-width:2;stroke-linecap:butt;stroke-linejoin:miter;stroke:rgb(0%,0%,0%);stroke-opacity:1;stroke-miterlimit:4;" d="M 438.999561 79.500057 L 454.999618 97.499992 L 470.50048 93.500236 L 490.000065 96.999764 " transform="matrix(3.779528,0,0,3.779528,0,0)"/>
<path style="fill:none;stroke-width:2;stroke-linecap:butt;stroke-linejoin:miter;stroke:rgb(0%,0%,0%);stroke-opacity:1;stroke-miterlimit:4;" d="M 511.000334 80.000285 L 499.000033 64.000228 L 496.499927 39.500431 L 472.500358 23.500374 L 444.5 41.000081 L 428.499943 60.999894 " transform="matrix(3.779528,0,0,3.779528,0,0)"/>
<path style="fill:none;stroke-width:2;stroke-linecap:butt;stroke-linejoin:miter;stroke:rgb(0%,0%,0%);stroke-opacity:1;stroke-miterlimit:4;" d="M 438.999561 51.999927 L 454.999618 41.999504 L 454.999618 41.500309 L 450.999862 55.00026 L 440.500244 71.000317 L 440.000016 71.499512 L 456.000073 55.500488 L 471.499902 67.499756 L 487.499959 65.499878 L 500.99991 67.499756 L 509.000456 49.499821 " transform="matrix(3.779528,0,0,3.779528,0,0)"/>
<path style="fill:none;stroke-width:2;stroke-linecap:butt;stroke-linejoin:miter;stroke:rgb(0%,0%,0%);stroke-opacity:1;stroke-miterlimit:4;" d="M 488.000187 37.49952 L 472.00013 26.999902 " transform="matrix(3.779528,0,0,3.779528,0,0)"/>
<path style="fill:none;stroke-width:2;stroke-linecap:butt;stroke-linejoin:miter;stroke:rgb(0%,0%,0%);stroke-opacity:1;stroke-miterlimit:4;" d="M 456.999495 33.499764 L 472.999552 25.500252 L 489.499837 33.499764 L 505.499894 43.500187 " transform="matrix(3.779528,0,0,3.779528,0,0)"/>
<path style="fill:none;stroke-width:2;stroke-linecap:butt;stroke-linejoin:miter;stroke:rgb(0%,0%,0%);stroke-opacity:1;stroke-miterlimit:4;" d="M 475.499658 69.999862 L 454.000195 54.500033 " transform="matrix(3.779528,0,0,3.779528,0,0)"/>
<path style="fill:none;stroke-width:2;stroke-linecap:butt;stroke-linejoin:miter;stroke:rgb(0%,0%,0%);stroke-opacity:1;stroke-miterlimit:4;" d="M 454.500423 66.999528 L 432.499699 80.500513 L 448.499756 100.500326 L 464.499813 108.499837 L 480.49987 102.500203 L 496.499927 106.499959 L 504.999666 106.499959 " transform="matrix(3.779528,0,0,3.779528,0,0)"/>
<path style="fill:none;stroke-width:2;stroke-linecap:butt;stroke-linejoin:miter;stroke:rgb(0%,0%,0%);stroke-opacity:1;stroke-miterlimit:4;" d="M 491.499715 144.499707 L 475.499658 142.499829 L 439.499788 106.499959 " transform="matrix(3.779528,0,0,3.779528,0,0)"/>
<path style="fill:none;stroke-width:2;stroke-linecap:butt;stroke-linejoin:miter;stroke:rgb(0%,0%,0%);stroke-opacity:1;stroke-miterlimit:4;" d="M 432.000505 100.000098 L 429.500399 105.999731 L 418.000326 122.500016 L 416.000448 138.500073 L 392.500073 153.999902 L 374.500138 167.499854 L 373.000488 182.00026 L 370.999577 198.000317 L 368.999699 214.000374 L 357.000431 230.000431 L 366.999821 246.000488 L 381 261.500317 L 386.999634 282.99978 L 379.000122 298.999837 L 370.999577 320.999528 L 364.499715 327.000195 L 370.999577 347.000008 L 357.000431 363.000065 L 348.999886 379.50035 L 332.999829 385.499984 L 325.000317 402.000269 L 305.000505 419.499976 L 313.000016 429.500399 L 314.999894 445.500456 L 323.000439 455.499845 L 326.499967 472.00013 L 330.499723 488.500415 L 350.000342 488.500415 L 373.499683 496.499927 L 386.999634 508.500228 L 409.000358 504.500472 L 424.500187 498.499805 L 440.500244 500.000488 L 461.000285 505.499894 L 457.499723 509.49965 " transform="matrix(3.779528,0,0,3.779528,0,0)"/>
<path style="fill:none;stroke-width:2;stroke-linecap:butt;stroke-linejoin:miter;stroke:rgb(0%,0%,0%);stroke-opacity:1;stroke-miterlimit:4;" d="M 343.999674 484.499626 L 333.500057 474.500236 L 314.000472 468.499569 L 298.000415 478.499992 L 282.000358 478.499992 L 266.000301 490.500293 L 250.000244 502.499561 L 241.999699 504.500472 L 246.000488 508 L 250.500472 486.000309 L 234.500415 461.999707 L 230.499626 456.000073 L 220.000008 454.000195 L 241.999699 441.999894 L 250.500472 426.500065 L 261.00009 410.500008 L 271.000513 393.999723 L 289.000448 389.999967 L 280.499674 373.99991 L 288.50022 357.499626 L 298.000415 341.999797 L 277.999569 345.999552 " transform="matrix(3.779528,0,0,3.779528,0,0)"/>
<path style="fill:none;stroke-width:2;stroke-linecap:butt;stroke-linejoin:miter;stroke:rgb(0%,0%,0%);stroke-opacity:1;stroke-miterlimit:4;" d="M 280.00048 349.500114 L 273.999813 359.999731 L 275.999691 376.500016 L 280.00048 394.499951 L 295.500309 379.999544 L 295.500309 354.000098 " transform="matrix(3.779528,0,0,3.779528,0,0)"/>
<path style="fill:none;stroke-width:2;stroke-linecap:butt;stroke-linejoin:miter;stroke:rgb(0%,0%,0%);stroke-opacity:1;stroke-miterlimit:4;" d="M 304.000049 342.500024 L 295.999504 359.000309 L 285.499886 375.000366 L 277.500374 390.500195 L 267.499951 406.500252 L 257.499528 422.000081 L 250.000244 438.000138 L 245.50026 447.999528 L 243.999577 463.999585 L 239.999821 479.999642 L 243.999577 495.999699 L 250.000244 510.500106 " transform="matrix(3.779528,0,0,3.779528,0,0)"/>
<path style="fill:none;stroke-width:2;stroke-linecap:butt;stroke-linejoin:miter;stroke:rgb(0%,0%,0%);stroke-opacity:1;stroke-miterlimit:4;" d="M 262.999967 493.000399 L 281.50013 477.000342 L 291.49952 450.999862 L 287.499764 434.499577 L 269.499829 428.499943 " transform="matrix(3.779528,0,0,3.779528,0,0)"/>
<path style="fill:none;stroke-width:2;stroke-linecap:butt;stroke-linejoin:miter;stroke:rgb(0%,0%,0%);stroke-opacity:1;stroke-miterlimit:4;" d="M 227.000098 409.499552 L 218.999552 423.499731 L 216.50048 451.50009 L 200.500423 449.500212 L 202.999495 477.499536 L 218.999552 469.500024 L 207.000285 475.499658 L 191.000228 507.499772 L 189.00035 491.499715 L 182.999683 489.499837 L 198.499512 467.500146 L 200.500423 451.50009 L 204.500179 445.500456 L 210.499813 429.999593 L 214.000374 414.499764 L 225.999642 400.999813 L 227.99952 384.999756 L 223.499536 384.999756 L 229.500203 368.999699 L 233.499959 366.499593 L 221.499658 386.999634 " transform="matrix(3.779528,0,0,3.779528,0,0)"/>
<path style="fill:none;stroke-width:2;stroke-linecap:butt;stroke-linejoin:miter;stroke:rgb(0%,0%,0%);stroke-opacity:1;stroke-miterlimit:4;" d="M 209.000163 382.000456 L 230.999854 404.000146 L 229.500203 419.499976 L 217.499902 436.00026 L 229.500203 452.000317 " transform="matrix(3.779528,0,0,3.779528,0,0)"/>
<path style="fill:none;stroke-width:2;stroke-linecap:butt;stroke-linejoin:miter;stroke:rgb(0%,0%,0%);stroke-opacity:1;stroke-miterlimit:4;" d="M 230.000431 486.000309 L 207.999707 502.499561 L 214.000374 504.000244 L 229.500203 493.999821 " transform="matrix(3.779528,0,0,3.779528,0,0)"/>
<path style="fill:none;stroke-width:2;stroke-linecap:butt;stroke-linejoin:miter;stroke:rgb(0%,0%,0%);stroke-opacity:1;stroke-miterlimit:4;" d="M 237.499715 488.500415 L 214.999797 504.500472 " transform="matrix(3.779528,0,0,3.779528,0,0)"/>
<path style="fill:none;stroke-width:2;stroke-linecap:butt;stroke-linejoin:miter;stroke:rgb(0%,0%,0%);stroke-opacity:1;stroke-miterlimit:4;" d="M 150.000146 499.50026 L 148.000269 487.499959 L 159.999536 486.000309 L 165.499976 470.000252 L 171.999837 454.000195 L 173.999715 438.000138 L 178.000505 422.000081 L 175.999593 406.000024 L 175.999593 382.000456 " transform="matrix(3.779528,0,0,3.779528,0,0)"/>
<path style="fill:none;stroke-width:2;stroke-linecap:butt;stroke-linejoin:miter;stroke:rgb(0%,0%,0%);stroke-opacity:1;stroke-miterlimit:4;" d="M 177.000049 377.999666 L 182.999683 393.999723 L 187.000472 409.499552 L 186.500244 425.499609 L 188.500122 441.999894 L 193.999528 457.999951 L 190.5 474.000008 L 198.499512 490.000065 " transform="matrix(3.779528,0,0,3.779528,0,0)"/>
<path style="fill:none;stroke-width:2;stroke-linecap:butt;stroke-linejoin:miter;stroke:rgb(0%,0%,0%);stroke-opacity:1;stroke-miterlimit:4;" d="M 156.500008 496.499927 L 155.99978 480.49987 L 155.99978 464.499813 " transform="matrix(3.779528,0,0,3.779528,0,0)"/>
<path style="fill:none;stroke-width:2;stroke-linecap:butt;stroke-linejoin:miter;stroke:rgb(0%,0%,0%);stroke-opacity:1;stroke-miterlimit:4;" d="M 135.999967 454.000195 L 134.00009 437.49991 L 121.999788 439.499788 L 118.000033 441.499666 L 116.000155 457.999951 L 89.999674 468.000374 L 84.500269 486.000309 L 74.499845 477.999764 L 72.499967 470.000252 L 84.500269 456.000073 L 98.500448 440.000016 L 96.499536 423.499731 L 74.499845 443.499544 " transform="matrix(3.779528,0,0,3.779528,0,0)"/>
<path style="fill:none;stroke-width:2;stroke-linecap:butt;stroke-linejoin:miter;stroke:rgb(0%,0%,0%);stroke-opacity:1;stroke-miterlimit:4;" d="M 81.499935 458.500179 L 64.99965 461.999707 L 71.000317 451.50009 L 91.00013 435.500033 " transform="matrix(3.779528,0,0,3.779528,0,0)"/>
<path style="fill:none;stroke-width:2;stroke-linecap:butt;stroke-linejoin:miter;stroke:rgb(0%,0%,0%);stroke-opacity:1;stroke-miterlimit:4;" d="M 99.49987 417.500098 L 81.499935 425.499609 L 71.99974 443.00035 L 56.49991 443.00035 L 46.499487 454.999618 L 32.500342 466.999919 L 30.500464 481.500326 L 22.499919 497.500382 L 20.500041 489.499837 L 28.499552 471.499902 L 42.499731 452.99974 L 36.500098 445.000228 L 28.499552 441.000472 L 8.49974 455.499845 L 14.500407 457.499723 L 21.999691 441.000472 L 28.000358 425.000415 L 17.999935 401.500041 L 1.999878 405.499797 " transform="matrix(3.779528,0,0,3.779528,0,0)"/>
<path style="fill:none;stroke-width:2;stroke-linecap:butt;stroke-linejoin:miter;stroke:rgb(0%,0%,0%);stroke-opacity:1;stroke-miterlimit:4;" d="M 1.49965 409.99978 L 17.499707 407.499674 L 49.499821 395.500407 L 65.499878 389.49974 L 69.000439 403.499919 L 57.500366 419.499976 L 53.999805 434.999805 L 48.000171 451.50009 L 44.000415 467.500146 L 53.999805 484.000431 L 78.000407 504.000244 " transform="matrix(3.779528,0,0,3.779528,0,0)"/>
<path style="fill:none;stroke-width:2;stroke-linecap:butt;stroke-linejoin:miter;stroke:rgb(0%,0%,0%);stroke-opacity:1;stroke-miterlimit:4;" d="M 91.999552 506.50035 L 93.500236 490.999487 L 99.49987 475.000464 L 96.000342 459.000407 L 69.999862 472.500358 " transform="matrix(3.779528,0,0,3.779528,0,0)"/>
<path style="fill:none;stroke-width:2;stroke-linecap:butt;stroke-linejoin:miter;stroke:rgb(0%,0%,0%);stroke-opacity:1;stroke-miterlimit:4;" d="M 84.000041 477.499536 L 67.499756 477.999764 L 51.000505 461.500513 " transform="matrix(3.779528,0,0,3.779528,0,0)"/>
<path style="fill:none;stroke-width:2;stroke-linecap:butt;stroke-linejoin:miter;stroke:rgb(0%,0%,0%);stroke-opacity:1;stroke-miterlimit:4;" d="M 34.50022 468.499569 L 50.500277 488.000187 L 56.49991 503.500016 " transform="matrix(3.779528,0,0,3.779528,0,0)"/>
<path style="fill:none;stroke-width:2;stroke-linecap:butt;stroke-linejoin:miter;stroke:rgb(0%,0%,0%);stroke-opacity:1;stroke-miterlimit:4;" d="M 66.999528 495.500505 L 66.999528 483.500203 L 51.000505 483.500203 L 35.000448 474.000008 " transform="matrix(3.779528,0,0,3.779528,0,0)"/>
<path style="fill:none;stroke-width:2;stroke-linecap:butt;stroke-linejoin:miter;stroke:rgb(0%,0%,0%);stroke-opacity:1;stroke-miterlimit:4;" d="M 25.000024 456.500301 L 12.999723 472.500358 L 6.499862 488.999609 L 20.500041 468.999797 L 19.999813 445.500456 L 35.499642 409.499552 L 51.499699 407.499674 L 67.999984 397.500285 L 84.000041 381.500228 L 100.000098 377.500472 L 116.000155 375.499561 L 132.000212 370.000155 L 148.000269 366.499593 L 164.000326 360.499959 L 179.500155 354.000098 " transform="matrix(3.779528,0,0,3.779528,0,0)"/>
<path style="fill:none;stroke-width:2;stroke-linecap:butt;stroke-linejoin:miter;stroke:rgb(0%,0%,0%);stroke-opacity:1;stroke-miterlimit:4;" d="M 178.000505 350.499536 L 144.000513 366.499593 L 123.999666 357.999854 L 139.999723 345.999552 L 152.000024 351.499992 L 152.500252 357.000431 L 164.49952 353.49987 L 180.499577 363.999487 L 196.499634 358.500081 L 212.999919 354.500326 L 228.999976 352.999642 L 261.00009 345.00013 L 264.499618 368.500505 " transform="matrix(3.779528,0,0,3.779528,0,0)"/>
<path style="fill:none;stroke-width:2;stroke-linecap:butt;stroke-linejoin:miter;stroke:rgb(0%,0%,0%);stroke-opacity:1;stroke-miterlimit:4;" d="M 261.00009 355.499748 L 264.499618 372.000033 L 268.999601 388.00009 " transform="matrix(3.779528,0,0,3.779528,0,0)"/>
<path style="fill:none;stroke-width:2;stroke-linecap:butt;stroke-linejoin:miter;stroke:rgb(0%,0%,0%);stroke-opacity:1;stroke-miterlimit:4;" d="M 292.499976 395.000179 L 276.499919 414.999992 L 259.000212 418.999748 L 239.499593 430.499821 L 223.499536 440.000016 L 216.000252 438.000138 L 226.49987 427.499487 L 236.999487 423.999959 L 239.499593 407.999902 L 237.499715 391.999845 L 231.500081 375.999788 " transform="matrix(3.779528,0,0,3.779528,0,0)"/>
<path style="fill:none;stroke-width:2;stroke-linecap:butt;stroke-linejoin:miter;stroke:rgb(0%,0%,0%);stroke-opacity:1;stroke-miterlimit:4;" d="M 236.999487 374.500138 L 241.000277 389.999967 L 246.99991 406.000024 L 243.000155 421.499854 L 234.500415 437.49991 L 236.000065 453.499967 L 234.000187 445.500456 L 249.500016 425.499609 L 265.500073 397.500285 L 289.499642 386.000212 " transform="matrix(3.779528,0,0,3.779528,0,0)"/>
<path style="fill:none;stroke-width:2;stroke-linecap:butt;stroke-linejoin:miter;stroke:rgb(0%,0%,0%);stroke-opacity:1;stroke-miterlimit:4;" d="M 303.499821 340.500146 L 287.499764 358.500081 L 283.500008 378.499894 L 264.000423 393.999723 L 254.500228 388.00009 L 248.999788 404.000146 L 257.000334 395.500407 L 255.49965 388.999512 L 261.500317 373.499683 L 255.000456 357.499626 L 278.499797 349.500114 L 266.499495 345.500358 L 250.500472 352.00022 L 234.000187 355.999976 L 217.499902 357.499626 L 200.999618 361.500415 L 184.999561 367.500049 L 168.999504 366.999821 " transform="matrix(3.779528,0,0,3.779528,0,0)"/>
<path style="fill:none;stroke-width:2;stroke-linecap:butt;stroke-linejoin:miter;stroke:rgb(0%,0%,0%);stroke-opacity:1;stroke-miterlimit:4;" d="M 161.50022 339.999919 L 177.500277 345.999552 L 193.500334 348.000464 L 209.500391 343.999674 L 225.500448 341.499569 L 241.999699 334.999707 L 257.999756 331.500179 L 274.500041 329.500301 L 290.500098 325.499512 L 306.500155 320.000106 L 311.999561 300.000293 " transform="matrix(3.779528,0,0,3.779528,0,0)"/>
<path style="fill:none;stroke-width:2;stroke-linecap:butt;stroke-linejoin:miter;stroke:rgb(0%,0%,0%);stroke-opacity:1;stroke-miterlimit:4;" d="M 343.999674 311.500366 L 336.500391 327.500423 L 332.499601 343.50048 L 328.499845 359.999731 L 324.50009 375.999788 L 316.499544 391.999845 L 308.500033 407.999902 L 298.499609 416.000448 L 291.999748 429.500399 L 293.500431 445.500456 " transform="matrix(3.779528,0,0,3.779528,0,0)"/>
<path style="fill:none;stroke-width:2;stroke-linecap:butt;stroke-linejoin:miter;stroke:rgb(0%,0%,0%);stroke-opacity:1;stroke-miterlimit:4;" d="M 260.499862 475.000464 L 236.000065 485.500081 L 220.000008 493.999821 L 204.500179 506.000122 L 196.999862 497.500382 L 175.000171 491.499715 L 191.500456 483.500203 L 184.999561 467.500146 L 184.999561 452.000317 L 182.999683 444.5 L 190.5 425.000415 L 190.5 409.000358 L 173.999715 393.499495 L 173.499487 377.000244 L 153.00048 384.999756 L 137.000423 388.999512 L 120.500138 392.500073 L 103.999854 397.000057 " transform="matrix(3.779528,0,0,3.779528,0,0)"/>
<path style="fill:none;stroke-width:2;stroke-linecap:butt;stroke-linejoin:miter;stroke:rgb(0%,0%,0%);stroke-opacity:1;stroke-miterlimit:4;" d="M 97.499992 392.500073 L 113.500049 390.500195 L 129.500106 386.500439 L 145.500163 380.499772 L 161.50022 377.999666 L 169.999959 361.999609 " transform="matrix(3.779528,0,0,3.779528,0,0)"/>
<path style="fill:none;stroke-width:2;stroke-linecap:butt;stroke-linejoin:miter;stroke:rgb(0%,0%,0%);stroke-opacity:1;stroke-miterlimit:4;" d="M 173.999715 397.500285 L 171.499609 403.499919 L 173.499487 418.999748 L 167.499854 431.000049 L 155.000358 447.000106 L 151.499797 463.000163 L 152.000024 479.00022 L 134.00009 482.999976 L 134.500317 499.000033 L 146.499585 508.500228 " transform="matrix(3.779528,0,0,3.779528,0,0)"/>
<path style="fill:none;stroke-width:2;stroke-linecap:butt;stroke-linejoin:miter;stroke:rgb(0%,0%,0%);stroke-opacity:1;stroke-miterlimit:4;" d="M 101.499748 499.50026 L 87.499569 487.499959 L 73.999618 500.000488 L 46.499487 511.999756 L 30.500464 499.50026 L 12.499495 499.50026 L 32.500342 505.499894 L 30.000236 493.000399 L 31.499886 484.999854 L 37.49952 469.500024 L 51.499699 455.499845 L 60.000472 439.499788 L 62.00035 423.499731 L 51.999927 411.999658 L 35.99987 414.499764 " transform="matrix(3.779528,0,0,3.779528,0,0)"/>
<path style="fill:none;stroke-width:2;stroke-linecap:butt;stroke-linejoin:miter;stroke:rgb(0%,0%,0%);stroke-opacity:1;stroke-miterlimit:4;" d="M 53.999805 430.499821 L 66.000106 430.499821 L 64.000228 418.49952 L 75.999495 391.999845 L 91.500358 385.499984 L 107.500415 383.500106 L 123.500472 379.000122 L 139.499495 373.000488 L 155.99978 368.999699 L 171.999837 361.000187 L 187.999894 352.999642 L 203.999951 348.999886 L 219.49978 346.49978 L 235.499837 342.500024 L 252.000122 339.000496 L 268.000179 334.999707 L 284.000236 332.999829 L 299.500065 329.500301 L 316.00035 323.499634 L 327.999618 317.5 L 343.999674 311.500366 L 359.999731 317.5 L 375.999788 316.00035 " transform="matrix(3.779528,0,0,3.779528,0,0)"/>
<path style="fill:none;stroke-width:2;stroke-linecap:butt;stroke-linejoin:miter;stroke:rgb(0%,0%,0%);stroke-opacity:1;stroke-miterlimit:4;" d="M 346.49978 312.499788 L 343.000252 328.499845 L 334.999707 347.000008 L 336.999585 363.500293 L 327.000195 379.50035 L 318.99965 395.500407 L 314.999894 411.500464 L 318.99965 427.499487 L 320.500334 443.00035 L 320.500334 459.000407 L 325.000317 474.500236 L 316.999772 482.499748 " transform="matrix(3.779528,0,0,3.779528,0,0)"/>
<path style="fill:none;stroke-width:2;stroke-linecap:butt;stroke-linejoin:miter;stroke:rgb(0%,0%,0%);stroke-opacity:1;stroke-miterlimit:4;" d="M 382.000456 467.500146 L 366.000399 451.50009 L 355.999976 443.499544 L 359.999731 427.499487 " transform="matrix(3.779528,0,0,3.779528,0,0)"/>
<path style="fill:none;stroke-width:2;stroke-linecap:butt;stroke-linejoin:miter;stroke:rgb(0%,0%,0%);stroke-opacity:1;stroke-miterlimit:4;" d="M 402.000269 497.999577 L 411.999658 481.99952 L 423.999959 466.000496 L 436.500488 450.000439 L 440.500244 436.500488 L 438.500366 416.499642 L 442.500122 394.499951 L 452.499512 378.499894 L 450.999862 362.499837 L 456.999495 346.49978 " transform="matrix(3.779528,0,0,3.779528,0,0)"/>
<path style="fill:none;stroke-width:2;stroke-linecap:butt;stroke-linejoin:miter;stroke:rgb(0%,0%,0%);stroke-opacity:1;stroke-miterlimit:4;" d="M 405.499797 361.500415 L 411.500464 345.500358 L 401.500041 329.999495 L 405.499797 314.000472 L 411.500464 295.999504 L 417.500098 277.500374 L 421.499854 273.499585 L 423.499731 257.000334 L 437.49991 241.000277 " transform="matrix(3.779528,0,0,3.779528,0,0)"/>
<path style="fill:none;stroke-width:2;stroke-linecap:butt;stroke-linejoin:miter;stroke:rgb(0%,0%,0%);stroke-opacity:1;stroke-miterlimit:4;" d="M 438.500366 237.499715 L 462.499935 253.499772 L 455.499845 269.499829 L 443.999772 285.499886 L 445.99965 301.499943 L 447.999528 314.000472 L 463.999585 316.00035 L 480.49987 321.499756 L 502.499561 323.499634 " transform="matrix(3.779528,0,0,3.779528,0,0)"/>
<path style="fill:none;stroke-width:2;stroke-linecap:butt;stroke-linejoin:miter;stroke:rgb(0%,0%,0%);stroke-opacity:1;stroke-miterlimit:4;" d="M 404.999569 168.500309 L 402.999691 162.499642 " transform="matrix(3.779528,0,0,3.779528,0,0)"/>
<path style="fill:none;stroke-width:2;stroke-linecap:butt;stroke-linejoin:miter;stroke:rgb(0%,0%,0%);stroke-opacity:1;stroke-miterlimit:4;" d="M 406.500252 163.500098 L 418.000326 185.499788 L 406.000024 201.499845 L 388.00009 216.999674 L 388.00009 232.999731 L 382.49965 248.499561 L 390.500195 262.49974 " transform="matrix(3.779528,0,0,3.779528,0,0)"/>
<path style="fill:none;stroke-width:2;stroke-linecap:butt;stroke-linejoin:miter;stroke:rgb(0%,0%,0%);stroke-opacity:1;stroke-miterlimit:4;" d="M 395.500407 189.999772 L 379.50035 186.500244 " transform="matrix(3.779528,0,0,3.779528,0,0)"/>
<path style="fill:none;stroke-width:2;stroke-linecap:butt;stroke-linejoin:miter;stroke:rgb(0%,0%,0%);stroke-opacity:1;stroke-miterlimit:4;" d="M 318.500456 209.500391 L 326.499967 187.499666 L 332.000407 171.999837 L 336.000163 156.500008 L 334.000285 148.500496 L 345.999552 124.499894 L 345.999552 122.500016 L 329.999495 134.00009 " transform="matrix(3.779528,0,0,3.779528,0,0)"/>
<path style="fill:none;stroke-width:2;stroke-linecap:butt;stroke-linejoin:miter;stroke:rgb(0%,0%,0%);stroke-opacity:1;stroke-miterlimit:4;" d="M 296.499731 135.49974 L 312.499788 125.50035 L 329.000073 121.499561 L 345.00013 103.499626 " transform="matrix(3.779528,0,0,3.779528,0,0)"/>
<path style="fill:none;stroke-width:2;stroke-linecap:butt;stroke-linejoin:miter;stroke:rgb(0%,0%,0%);stroke-opacity:1;stroke-miterlimit:4;" d="M 393.000301 105.499504 L 388.999512 117.499805 L 374.500138 117.499805 L 382.49965 125.50035 L 382.49965 105.999731 L 398.000513 96.000342 " transform="matrix(3.779528,0,0,3.779528,0,0)"/>
<path style="fill:none;stroke-width:2;stroke-linecap:butt;stroke-linejoin:miter;stroke:rgb(0%,0%,0%);stroke-opacity:1;stroke-miterlimit:4;" d="M 397.000057 69.999862 L 393.499495 53.499577 L 393.999723 32.000114 " transform="matrix(3.779528,0,0,3.779528,0,0)"/>
<path style="fill:none;stroke-width:2;stroke-linecap:butt;stroke-linejoin:miter;stroke:rgb(0%,0%,0%);stroke-opacity:1;stroke-miterlimit:4;" d="M 395.999601 49.499821 L 412.499886 45.500065 " transform="matrix(3.779528,0,0,3.779528,0,0)"/>
<path style="fill:none;stroke-width:2;stroke-linecap:butt;stroke-linejoin:miter;stroke:rgb(0%,0%,0%);stroke-opacity:1;stroke-miterlimit:4;" d="M 403.499919 30.000236 L 391.000423 16.000057 L 382.999878 41.999504 L 366.999821 55.999683 L 354.500326 78.000407 L 338.000041 101.499748 L 321.999984 119.000488 L 305.499699 121.000366 L 289.499642 134.999512 " transform="matrix(3.779528,0,0,3.779528,0,0)"/>
<path style="fill:none;stroke-width:2;stroke-linecap:butt;stroke-linejoin:miter;stroke:rgb(0%,0%,0%);stroke-opacity:1;stroke-miterlimit:4;" d="M 291.999748 144.499707 L 307.999805 154.50013 L 323.999862 146.000391 L 339.999919 141.999601 " transform="matrix(3.779528,0,0,3.779528,0,0)"/>
<path style="fill:none;stroke-width:2;stroke-linecap:butt;stroke-linejoin:miter;stroke:rgb(0%,0%,0%);stroke-opacity:1;stroke-miterlimit:4;" d="M 361.500415 108.499837 L 350.000342 114.500505 L 334.500513 125.999544 L 324.50009 149.499919 L 308.500033 157.500464 L 292.499976 163.500098 " transform="matrix(3.779528,0,0,3.779528,0,0)"/>
<path style="fill:none;stroke-width:2;stroke-linecap:butt;stroke-linejoin:miter;stroke:rgb(0%,0%,0%);stroke-opacity:1;stroke-miterlimit:4;" d="M 296.999959 186.500244 L 290.500098 202.500301 L 300.499487 227.99952 L 308.500033 257.999756 L 318.000228 268.500407 " transform="matrix(3.779528,0,0,3.779528,0,0)"/>
<path style="fill:none;stroke-width:2;stroke-linecap:butt;stroke-linejoin:miter;stroke:rgb(0%,0%,0%);stroke-opacity:1;stroke-miterlimit:4;" d="M 311.500366 243.500382 L 303.499821 237.499715 L 287.499764 223.499536 " transform="matrix(3.779528,0,0,3.779528,0,0)"/>
<path style="fill:none;stroke-width:2;stroke-linecap:butt;stroke-linejoin:miter;stroke:rgb(0%,0%,0%);stroke-opacity:1;stroke-miterlimit:4;" d="M 287.999992 191.500456 L 303.499821 191.500456 " transform="matrix(3.779528,0,0,3.779528,0,0)"/>
<path style="fill:none;stroke-width:2;stroke-linecap:butt;stroke-linejoin:miter;stroke:rgb(0%,0%,0%);stroke-opacity:1;stroke-miterlimit:4;" d="M 300.499487 188.500122 L 314.499666 204.500179 L 310.49991 220.500236 L 326.499967 226.49987 " transform="matrix(3.779528,0,0,3.779528,0,0)"/>
<path style="fill:none;stroke-width:2;stroke-linecap:butt;stroke-linejoin:miter;stroke:rgb(0%,0%,0%);stroke-opacity:1;stroke-miterlimit:4;" d="M 315.500122 193.500334 L 299.500065 177.500277 L 283.500008 189.499544 " transform="matrix(3.779528,0,0,3.779528,0,0)"/>
<path style="fill:none;stroke-width:2;stroke-linecap:butt;stroke-linejoin:miter;stroke:rgb(0%,0%,0%);stroke-opacity:1;stroke-miterlimit:4;" d="M 382.999878 72.499967 L 375.000366 88.500024 L 370.999577 85.999919 L 381 73.999618 L 408.50013 75.999495 " transform="matrix(3.779528,0,0,3.779528,0,0)"/>
<path style="fill:none;stroke-width:2;stroke-linecap:butt;stroke-linejoin:miter;stroke:rgb(0%,0%,0%);stroke-opacity:1;stroke-miterlimit:4;" d="M 440.000016 49.499821 L 434.000382 65.499878 L 440.000016 82.000163 L 454.000195 98.00022 " transform="matrix(3.779528,0,0,3.779528,0,0)"/>
<path style="fill:none;stroke-width:2;stroke-linecap:butt;stroke-linejoin:miter;stroke:rgb(0%,0%,0%);stroke-opacity:1;stroke-miterlimit:4;" d="M 461.000285 69.000439 L 476.500114 85.000496 L 468.999797 105.000309 L 462.499935 130.999756 L 460.500057 146.499585 L 488.000187 154.50013 L 496.499927 170.500187 " transform="matrix(3.779528,0,0,3.779528,0,0)"/>
<path style="fill:none;stroke-width:2;stroke-linecap:butt;stroke-linejoin:miter;stroke:rgb(0%,0%,0%);stroke-opacity:1;stroke-miterlimit:4;" d="M 506.999544 173.999715 L 499.000033 163.500098 L 498.499805 147.500041 L 504.500472 129.500106 L 497.999577 113.500049 L 488.000187 97.499992 L 481.99952 81.499935 L 495.999699 57.500366 L 490.000065 41.500309 L 468.000374 25.500252 L 475.999886 8.999967 " transform="matrix(3.779528,0,0,3.779528,0,0)"/>
<path style="fill:none;stroke-width:2;stroke-linecap:butt;stroke-linejoin:miter;stroke:rgb(0%,0%,0%);stroke-opacity:1;stroke-miterlimit:4;" d="M 468.999797 1.999878 L 463.500391 17.999935 L 452.99974 31.499886 L 435.500033 47.499943 L 427.499487 63.5 L 429.999593 79.500057 L 436.00026 89.50048 L 456.500301 105.999731 L 458.500179 130.000334 L 452.99974 146.499585 L 438.999561 162.499642 L 429.000171 180.499577 L 438.999561 196.499634 L 431.000049 212.000496 L 436.999683 227.99952 L 429.000171 243.500382 L 414.999992 261.999512 L 402.999691 275.999691 L 418.999748 282.499552 L 409.499552 298.499609 L 401.500041 314.499666 L 397.000057 330.499723 L 411.000236 350.499536 L 414.499764 366.000399 L 416.000448 366.000399 " transform="matrix(3.779528,0,0,3.779528,0,0)"/>
<path style="fill:none;stroke-width:2;stroke-linecap:butt;stroke-linejoin:miter;stroke:rgb(0%,0%,0%);stroke-opacity:1;stroke-miterlimit:4;" d="M 214.999797 405.499797 L 219.49978 398.000513 L 212.000496 382.000456 L 207.999707 366.000399 " transform="matrix(3.779528,0,0,3.779528,0,0)"/>
<path style="fill:none;stroke-width:2;stroke-linecap:butt;stroke-linejoin:miter;stroke:rgb(0%,0%,0%);stroke-opacity:1;stroke-miterlimit:4;" d="M 207.000285 363.500293 L 205.000407 379.50035 L 204.500179 395.999601 L 206.500057 411.999658 L 218.500358 425.999837 L 212.499691 443.999772 L 207.999707 423.999959 " transform="matrix(3.779528,0,0,3.779528,0,0)"/>
<path style="fill:none;stroke-width:2;stroke-linecap:butt;stroke-linejoin:miter;stroke:rgb(0%,0%,0%);stroke-opacity:1;stroke-miterlimit:4;" d="M 209.500391 420.000203 L 200.999618 436.00026 " transform="matrix(3.779528,0,0,3.779528,0,0)"/>
<path style="fill:none;stroke-width:2;stroke-linecap:butt;stroke-linejoin:miter;stroke:rgb(0%,0%,0%);stroke-opacity:1;stroke-miterlimit:4;" d="M 198.99974 427.499487 L 197.50009 434.000382 L 205.999829 418.000326 " transform="matrix(3.779528,0,0,3.779528,0,0)"/>
<path style="fill:none;stroke-width:2;stroke-linecap:butt;stroke-linejoin:miter;stroke:rgb(0%,0%,0%);stroke-opacity:1;stroke-miterlimit:4;" d="M 162.000448 440.500244 L 147.500041 440.500244 L 159.500342 436.500488 L 152.000024 420.000203 L 146.000391 404.500374 " transform="matrix(3.779528,0,0,3.779528,0,0)"/>
<path style="fill:none;stroke-width:2;stroke-linecap:butt;stroke-linejoin:miter;stroke:rgb(0%,0%,0%);stroke-opacity:1;stroke-miterlimit:4;" d="M 144.499707 413.000114 L 150.000146 429.500399 L 146.000391 445.500456 L 137.999845 466.000496 " transform="matrix(3.779528,0,0,3.779528,0,0)"/>
<path style="fill:none;stroke-width:2;stroke-linecap:butt;stroke-linejoin:miter;stroke:rgb(0%,0%,0%);stroke-opacity:1;stroke-miterlimit:4;" d="M 110.499715 459.999829 L 118.50026 444.5 L 130.499528 428.499943 " transform="matrix(3.779528,0,0,3.779528,0,0)"/>
<path style="fill:none;stroke-width:2;stroke-linecap:butt;stroke-linejoin:miter;stroke:rgb(0%,0%,0%);stroke-opacity:1;stroke-miterlimit:4;" d="M 97.499992 416.000448 L 103.499626 432.499699 L 105.499504 448.999984 L 89.50048 467.500146 L 89.000252 484.000431 L 78.999829 500.499683 L 94.999886 506.999544 " transform="matrix(3.779528,0,0,3.779528,0,0)"/>
<path style="fill:none;stroke-width:2;stroke-linecap:butt;stroke-linejoin:miter;stroke:rgb(0%,0%,0%);stroke-opacity:1;stroke-miterlimit:4;" d="M 30.500464 448.499756 L 14.500407 461.000285 " transform="matrix(3.779528,0,0,3.779528,0,0)"/>
<path style="fill:none;stroke-width:2;stroke-linecap:butt;stroke-linejoin:miter;stroke:rgb(0%,0%,0%);stroke-opacity:1;stroke-miterlimit:4;" d="M 1.999878 397.000057 L 17.999935 395.000179 L 28.499552 397.000057 " transform="matrix(3.779528,0,0,3.779528,0,0)"/>
<path style="fill:none;stroke-width:2;stroke-linecap:butt;stroke-linejoin:miter;stroke:rgb(0%,0%,0%);stroke-opacity:1;stroke-miterlimit:4;" d="M 2.500106 393.000301 L 18.500163 388.999512 L 34.50022 388.999512 L 50.500277 391.499618 L 66.999528 384.999756 L 51.000505 397.000057 L 28.99978 397.000057 L 23.000146 422.999504 L 17.000513 438.999561 L 11.500073 454.999618 L 5.500439 470.999674 L 11.500073 490.500293 L 5.500439 506.50035 L 15.499829 510.500106 L 27.50013 510.500106 " transform="matrix(3.779528,0,0,3.779528,0,0)"/>
<path style="fill:none;stroke-width:2;stroke-linecap:butt;stroke-linejoin:miter;stroke:rgb(0%,0%,0%);stroke-opacity:1;stroke-miterlimit:4;" d="M 3.000334 382.49965 L 35.000448 378.499894 L 51.499699 376.500016 L 83.499813 368.500505 L 96.999764 364.499715 L 112.999821 362.499837 L 130.999756 361.999609 " transform="matrix(3.779528,0,0,3.779528,0,0)"/>
<path style="fill:none;stroke-width:2;stroke-linecap:butt;stroke-linejoin:miter;stroke:rgb(0%,0%,0%);stroke-opacity:1;stroke-miterlimit:4;" d="M 103.999854 370.999577 L 88.500024 373.000488 L 71.99974 377.000244 L 55.999683 377.000244 " transform="matrix(3.779528,0,0,3.779528,0,0)"/>
<path style="fill:none;stroke-width:2;stroke-linecap:butt;stroke-linejoin:miter;stroke:rgb(0%,0%,0%);stroke-opacity:1;stroke-miterlimit:4;" d="M 48.500399 372.50026 L 32.999536 373.000488 L 19.000391 375.000366 L 3.000334 379.000122 " transform="matrix(3.779528,0,0,3.779528,0,0)"/>
<path style="fill:none;stroke-width:2;stroke-linecap:butt;stroke-linejoin:miter;stroke:rgb(0%,0%,0%);stroke-opacity:1;stroke-miterlimit:4;" d="M 96.999764 384.000334 L 75.000073 387.499862 L 64.99965 402.999691 L 75.000073 420.999626 L 73.000195 436.999683 L 62.499544 452.99974 L 60.999894 472.999552 L 69.000439 488.999609 L 73.000195 489.499837 L 69.000439 507.499772 L 82.999585 508 L 96.999764 481.500326 L 121.000366 471.499902 L 123.000244 457.499723 L 127 465.500269 L 144.499707 463.999585 L 160.499764 458.500179 L 171.999837 464.499813 L 162.99987 496.499927 " transform="matrix(3.779528,0,0,3.779528,0,0)"/>
<path style="fill:none;stroke-width:2;stroke-linecap:butt;stroke-linejoin:miter;stroke:rgb(0%,0%,0%);stroke-opacity:1;stroke-miterlimit:4;" d="M 225.999642 470.50048 L 209.500391 468.999797 L 185.499788 479.00022 L 173.999715 477.000342 L 166.000203 484.499626 L 139.999723 490.999487 L 123.999666 497.000155 L 107.999609 505.499894 L 107.999609 489.499837 L 112.000399 472.999552 L 109.999487 456.999495 L 109.500293 442.500122 L 109.500293 426.500065 L 105.499504 409.99978 L 111.500171 393.999723 " transform="matrix(3.779528,0,0,3.779528,0,0)"/>
<path style="fill:none;stroke-width:2;stroke-linecap:butt;stroke-linejoin:miter;stroke:rgb(0%,0%,0%);stroke-opacity:1;stroke-miterlimit:4;" d="M 98.00022 391.499618 L 96.000342 407.499674 L 91.999552 422.999504 L 78.000407 438.999561 L 73.999618 448.999984 L 89.999674 438.999561 L 107.999609 447.000106 L 118.000033 431.000049 L 135.49974 427.499487 L 151.499797 419.499976 L 160.999992 421.499854 " transform="matrix(3.779528,0,0,3.779528,0,0)"/>
<path style="fill:none;stroke-width:2;stroke-linecap:butt;stroke-linejoin:miter;stroke:rgb(0%,0%,0%);stroke-opacity:1;stroke-miterlimit:4;" d="M 159.999536 413.999536 L 143.500285 413.500342 L 139.499495 391.499618 L 117.499805 413.500342 L 119.499683 411.000236 L 137.499618 407.00048 L 143.500285 391.000423 " transform="matrix(3.779528,0,0,3.779528,0,0)"/>
<path style="fill:none;stroke-width:2;stroke-linecap:butt;stroke-linejoin:miter;stroke:rgb(0%,0%,0%);stroke-opacity:1;stroke-miterlimit:4;" d="M 139.499495 391.499618 L 133.499862 407.499674 L 125.50035 423.499731 L 121.499561 443.999772 L 116.999577 466.499691 L 134.999512 474.500236 L 119.000488 481.000098 L 135.49974 475.000464 " transform="matrix(3.779528,0,0,3.779528,0,0)"/>
<path style="fill:none;stroke-width:2;stroke-linecap:butt;stroke-linejoin:miter;stroke:rgb(0%,0%,0%);stroke-opacity:1;stroke-miterlimit:4;" d="M 457.499723 497.999577 L 457.499723 490.000065 L 441.000472 484.000431 L 439.499788 472.00013 L 423.999959 481.99952 L 408.50013 500.499683 L 396.499829 500.499683 L 380.499772 504.999666 L 364.499715 502.999788 L 357.999854 499.000033 L 341.999797 502.499561 L 341.999797 494.500049 L 325.99974 500.499683 L 309.500488 500.000488 L 293.500431 497.999577 L 287.499764 495.500505 L 298.000415 469.500024 L 279.500252 461.500513 L 277.500374 445.500456 L 281.50013 429.500399 L 277.500374 413.500342 L 291.49952 397.000057 L 297.500187 381.500228 L 299.500065 377.999666 L 305.999927 361.999609 L 314.000472 346.49978 L 320.000106 329.999495 L 318.000228 302.000171 L 314.000472 286.000114 L 315.500122 261.999512 L 320.000106 239.999821 L 315.500122 232.000309 L 327.500423 210.499813 L 325.499512 200.500423 L 305.499699 189.00035 L 298.000415 173.000293 L 302.000171 154.50013 L 295.999504 138.500073 L 316.00035 130.000334 L 336.000163 114.000277 L 348.000464 97.499992 L 357.999854 81.499935 L 359.999731 64.99965 L 379.50035 49.499821 L 391.499618 33.499764 L 388.999512 17.499707 L 382.999878 1.49965 " transform="matrix(3.779528,0,0,3.779528,0,0)"/>
<path style="fill:none;stroke-width:2;stroke-linecap:butt;stroke-linejoin:miter;stroke:rgb(0%,0%,0%);stroke-opacity:1;stroke-miterlimit:4;" d="M 397.500285 1.000456 L 417.500098 17.000513 L 433.500155 19.499585 L 450.000439 19.999813 L 454.000195 6.499862 L 456.000073 18.500163 L 472.00013 8.49974 L 481.99952 8.49974 L 498.499805 4.499984 L 499.000033 10.499618 L 509.000456 10.499618 " transform="matrix(3.779528,0,0,3.779528,0,0)"/>
<path style="fill:none;stroke-width:2;stroke-linecap:butt;stroke-linejoin:miter;stroke:rgb(0%,0%,0%);stroke-opacity:1;stroke-miterlimit:4;" d="M 509.999878 17.499707 L 495.999699 1.49965 " transform="matrix(3.779528,0,0,3.779528,0,0)"/>
<path style="fill:none;stroke-width:2;stroke-linecap:butt;stroke-linejoin:miter;stroke:rgb(0%,0%,0%);stroke-opacity:1;stroke-miterlimit:4;" d="M 445.99965 7.500317 L 429.999593 13.499951 L 413.999536 9.500195 L 398.000513 3.499528 " transform="matrix(3.779528,0,0,3.779528,0,0)"/>
</g>
</svg>
