<?xml version="1.0" encoding="UTF-8"?>
<svg xmlns="http://www.w3.org/2000/svg" xmlns:xlink="http://www.w3.org/1999/xlink" width="1935.11811" height="1935.11811" viewBox="0 0 1935.11811 1935.11811" version="1.1">
<g id="surface1">
<path style="fill:none;stroke-width:2;stroke-linecap:butt;stroke-linejoin:miter;stroke:rgb(0%,0%,0%);stroke-opacity:1;stroke-miterlimit:4;" d="M 339.499691 56.49991 L 347.500236 72.499967 L 335.499935 74.499845 L 341.499569 64.500456 L 355.499748 71.000317 L 371.499805 66.999528 L 403.499919 55.00026 L 418.999748 55.00026 " transform="matrix(3.779528,0,0,3.779528,0,0)"/>
<path style="fill:none;stroke-width:2;stroke-linecap:butt;stroke-linejoin:miter;stroke:rgb(0%,0%,0%);stroke-opacity:1;stroke-miterlimit:4;" d="M 425.499609 118.000033 L 425.499609 121.999788 L 409.499552 119.99991 " transform="matrix(3.779528,0,0,3.779528,0,0)"/>
<path style="fill:none;stroke-width:2;stroke-linecap:butt;stroke-linejoin:miter;stroke:rgb(0%,0%,0%);stroke-opacity:1;stroke-miterlimit:4;" d="M 397.000057 121.499561 L 413.000114 125.50035 L 429.500399 125.50035 L 445.500456 121.499561 L 461.500513 114.999699 L 477.499536 110.999943 " transform="matrix(3.779528,0,0,3.779528,0,0)"/>
<path style="fill:none;stroke-width:2;stroke-linecap:butt;stroke-linejoin:miter;stroke:rgb(0%,0%,0%);stroke-opacity:1;stroke-miterlimit:4;" d="M 475.499658 109.000065 L 427.499487 114.999699 L 411.500464 114.500505 L 395.500407 118.50026 " transform="matrix(3.779528,0,0,3.779528,0,0)"/>
<path style="fill:none;stroke-width:2;stroke-linecap:butt;stroke-linejoin:miter;stroke:rgb(0%,0%,0%);stroke-opacity:1;stroke-miterlimit:4;" d="M 405.499797 60.000472 L 389.49974 64.000228 L 381 51.999927 L 365.500171 55.999683 L 350.000342 60.000472 L 334.500513 56.49991 L 318.500456 64.500456 L 302.500399 59.000016 " transform="matrix(3.779528,0,0,3.779528,0,0)"/>
<path style="fill:none;stroke-width:2;stroke-linecap:butt;stroke-linejoin:miter;stroke:rgb(0%,0%,0%);stroke-opacity:1;stroke-miterlimit:4;" d="M 286.000114 57.000138 L 302.000171 60.999894 L 301.499943 70.50009 L 319.499878 69.000439 " transform="matrix(3.779528,0,0,3.779528,0,0)"/>
<path style="fill:none;stroke-width:2;stroke-linecap:butt;stroke-linejoin:miter;stroke:rgb(0%,0%,0%);stroke-opacity:1;stroke-miterlimit:4;" d="M 335.499935 67.499756 L 300.999715 73.500423 L 284.999658 57.500366 " transform="matrix(3.779528,0,0,3.779528,0,0)"/>
<path style="fill:none;stroke-width:2;stroke-linecap:butt;stroke-linejoin:miter;stroke:rgb(0%,0%,0%);stroke-opacity:1;stroke-miterlimit:4;" d="M 254.500228 57.500366 L 238.500171 55.00026 L 221.999886 56.49991 " transform="matrix(3.779528,0,0,3.779528,0,0)"/>
<path style="fill:none;stroke-width:2;stroke-linecap:butt;stroke-linejoin:miter;stroke:rgb(0%,0%,0%);stroke-opacity:1;stroke-miterlimit:4;" d="M 220.000008 19.999813 L 236.000065 16.000057 L 254.500228 19.999813 L 260.499862 21.999691 " transform="matrix(3.779528,0,0,3.779528,0,0)"/>
<path style="fill:none;stroke-width:2;stroke-linecap:butt;stroke-linejoin:miter;stroke:rgb(0%,0%,0%);stroke-opacity:1;stroke-miterlimit:4;" d="M 250.000244 69.000439 L 234.000187 75.000073 L 218.00013 78.499601 L 202.500301 80.999707 L 186.500244 85.499691 L 170.500187 87.000374 " transform="matrix(3.779528,0,0,3.779528,0,0)"/>
<path style="fill:none;stroke-width:2;stroke-linecap:butt;stroke-linejoin:miter;stroke:rgb(0%,0%,0%);stroke-opacity:1;stroke-miterlimit:4;" d="M 166.000203 89.000252 L 182.00026 82.500391 L 198.499512 78.000407 L 214.499569 75.999495 L 232.999731 65.499878 L 245.000033 63.5 " transform="matrix(3.779528,0,0,3.779528,0,0)"/>
<path style="fill:none;stroke-width:2;stroke-linecap:butt;stroke-linejoin:miter;stroke:rgb(0%,0%,0%);stroke-opacity:1;stroke-miterlimit:4;" d="M 252.000122 5.000212 L 229.500203 10.999845 L 225.00022 3.000334 L 231.500081 25.000024 L 232.000309 13.499951 L 237.999943 19.499585 L 221.999886 27.50013 L 205.499601 31.499886 L 189.499544 39.500431 L 173.499487 45.500065 L 157.500464 47.499943 " transform="matrix(3.779528,0,0,3.779528,0,0)"/>
<path style="fill:none;stroke-width:2;stroke-linecap:butt;stroke-linejoin:miter;stroke:rgb(0%,0%,0%);stroke-opacity:1;stroke-miterlimit:4;" d="M 152.000024 44.000415 L 168.000081 41.999504 L 184.500366 35.499642 L 200.500423 30.000236 L 216.999674 19.999813 L 207.000285 23.999569 L 175.000171 40.499854 " transform="matrix(3.779528,0,0,3.779528,0,0)"/>
<path style="fill:none;stroke-width:2;stroke-linecap:butt;stroke-linejoin:miter;stroke:rgb(0%,0%,0%);stroke-opacity:1;stroke-miterlimit:4;" d="M 101.499748 66.999528 L 117.499805 68.500212 L 133.499862 71.000317 L 149.499919 66.999528 L 166.000203 62.999772 L 182.00026 62.999772 L 198.000317 66.500334 L 214.499569 66.000106 L 230.499626 61.500122 L 246.499683 59.500244 L 262.49974 63.5 " transform="matrix(3.779528,0,0,3.779528,0,0)"/>
<path style="fill:none;stroke-width:2;stroke-linecap:butt;stroke-linejoin:miter;stroke:rgb(0%,0%,0%);stroke-opacity:1;stroke-miterlimit:4;" d="M 177.500277 57.999561 L 161.50022 57.999561 L 145.500163 62.00035 L 129.500106 63.5 L 112.999821 62.00035 L 96.999764 66.000106 " transform="matrix(3.779528,0,0,3.779528,0,0)"/>
<path style="fill:none;stroke-width:2;stroke-linecap:butt;stroke-linejoin:miter;stroke:rgb(0%,0%,0%);stroke-opacity:1;stroke-miterlimit:4;" d="M 96.000342 91.00013 L 80.000285 90.499902 " transform="matrix(3.779528,0,0,3.779528,0,0)"/>
<path style="fill:none;stroke-width:2;stroke-linecap:butt;stroke-linejoin:miter;stroke:rgb(0%,0%,0%);stroke-opacity:1;stroke-miterlimit:4;" d="M 87.499569 7.999512 L 83.499813 5.999634 L 105.499504 7.999512 L 115.499927 5.999634 " transform="matrix(3.779528,0,0,3.779528,0,0)"/>
<path style="fill:none;stroke-width:2;stroke-linecap:butt;stroke-linejoin:miter;stroke:rgb(0%,0%,0%);stroke-opacity:1;stroke-miterlimit:4;" d="M 100.500326 3.499528 L 84.500269 5.500439 " transform="matrix(3.779528,0,0,3.779528,0,0)"/>
<path style="fill:none;stroke-width:2;stroke-linecap:butt;stroke-linejoin:miter;stroke:rgb(0%,0%,0%);stroke-opacity:1;stroke-miterlimit:4;" d="M 112.499593 197.50009 L 96.499536 199.499967 L 69.999862 205.499601 L 47.499943 205.999829 L 3.499528 205.999829 " transform="matrix(3.779528,0,0,3.779528,0,0)"/>
<path style="fill:none;stroke-width:2;stroke-linecap:butt;stroke-linejoin:miter;stroke:rgb(0%,0%,0%);stroke-opacity:1;stroke-miterlimit:4;" d="M 2.500106 200.500423 L 18.500163 200.500423 L 34.50022 203.999951 L 50.500277 200.000195 L 66.500334 202.000073 L 84.500269 200.000195 L 100.000098 193.999528 L 116.000155 193.500334 L 134.00009 193.500334 L 150.000146 193.999528 L 182.00026 186.000016 L 214.000374 186.000016 L 230.000431 187.999894 L 245.50026 175.999593 " transform="matrix(3.779528,0,0,3.779528,0,0)"/>
<path style="fill:none;stroke-width:2;stroke-linecap:butt;stroke-linejoin:miter;stroke:rgb(0%,0%,0%);stroke-opacity:1;stroke-miterlimit:4;" d="M 251.499894 177.000049 L 237.499715 180.999805 L 227.500326 191.000228 L 245.50026 181.500033 L 270.000057 180.000382 L 270.000057 188.500122 L 289.99987 184.500366 L 305.999927 186.500244 L 321.999984 194.499756 L 330.499723 194.499756 L 347.000008 186.500244 L 363.000065 182.500488 L 378.499894 180.499577 L 410.500008 172.500065 L 426.500065 170.500187 L 442.500122 169.999959 L 490.000065 169.999959 L 506.50035 171.999837 L 500.499683 180.000382 " transform="matrix(3.779528,0,0,3.779528,0,0)"/>
<path style="fill:none;stroke-width:2;stroke-linecap:butt;stroke-linejoin:miter;stroke:rgb(0%,0%,0%);stroke-opacity:1;stroke-miterlimit:4;" d="M 508 210.499813 L 487.499959 225.999642 L 491.499715 245.50026 L 477.499536 261.500317 L 475.999886 277.999569 L 475.999886 300.000293 L 479.999642 325.99974 L 474.000008 341.999797 L 472.500358 357.999854 L 462.499935 375.499561 L 482.999976 389.49974 L 488.999609 407.499674 L 504.500472 402.000269 L 506.50035 407.999902 " transform="matrix(3.779528,0,0,3.779528,0,0)"/>
<path style="fill:none;stroke-width:2;stroke-linecap:butt;stroke-linejoin:miter;stroke:rgb(0%,0%,0%);stroke-opacity:1;stroke-miterlimit:4;" d="M 508.500228 375.000366 L 508.500228 364.999943 " transform="matrix(3.779528,0,0,3.779528,0,0)"/>
<path style="fill:none;stroke-width:2;stroke-linecap:butt;stroke-linejoin:miter;stroke:rgb(0%,0%,0%);stroke-opacity:1;stroke-miterlimit:4;" d="M 509.000456 331.500179 L 493.000399 323.499634 " transform="matrix(3.779528,0,0,3.779528,0,0)"/>
<path style="fill:none;stroke-width:2;stroke-linecap:butt;stroke-linejoin:miter;stroke:rgb(0%,0%,0%);stroke-opacity:1;stroke-miterlimit:4;" d="M 490.999487 330.999951 L 486.999731 316.999772 " transform="matrix(3.779528,0,0,3.779528,0,0)"/>
<path style="fill:none;stroke-width:2;stroke-linecap:butt;stroke-linejoin:miter;stroke:rgb(0%,0%,0%);stroke-opacity:1;stroke-miterlimit:4;" d="M 480.49987 322.500212 L 496.499927 302.500399 L 506.000122 302.500399 L 494.500049 326.499967 L 508.500228 343.000252 L 508.500228 361.000187 L 504.500472 376.500016 L 502.499561 382.999878 " transform="matrix(3.779528,0,0,3.779528,0,0)"/>
<path style="fill:none;stroke-width:2;stroke-linecap:butt;stroke-linejoin:miter;stroke:rgb(0%,0%,0%);stroke-opacity:1;stroke-miterlimit:4;" d="M 490.500293 386.500439 L 493.000399 370.500382 L 499.000033 354.500326 L 488.999609 339.000496 L 482.999976 332.999829 " transform="matrix(3.779528,0,0,3.779528,0,0)"/>
<path style="fill:none;stroke-width:2;stroke-linecap:butt;stroke-linejoin:miter;stroke:rgb(0%,0%,0%);stroke-opacity:1;stroke-miterlimit:4;" d="M 484.000431 339.000496 L 508 339.000496 " transform="matrix(3.779528,0,0,3.779528,0,0)"/>
<path style="fill:none;stroke-width:2;stroke-linecap:butt;stroke-linejoin:miter;stroke:rgb(0%,0%,0%);stroke-opacity:1;stroke-miterlimit:4;" d="M 475.499658 358.500081 L 479.500448 364.499715 L 475.499658 380.499772 " transform="matrix(3.779528,0,0,3.779528,0,0)"/>
<path style="fill:none;stroke-width:2;stroke-linecap:butt;stroke-linejoin:miter;stroke:rgb(0%,0%,0%);stroke-opacity:1;stroke-miterlimit:4;" d="M 465.000041 407.999902 L 448.999984 407.999902 " transform="matrix(3.779528,0,0,3.779528,0,0)"/>
<path style="fill:none;stroke-width:2;stroke-linecap:butt;stroke-linejoin:miter;stroke:rgb(0%,0%,0%);stroke-opacity:1;stroke-miterlimit:4;" d="M 447.999528 406.000024 L 463.999585 404.000146 L 479.999642 404.000146 L 486.000309 411.999658 L 502.000366 417.500098 " transform="matrix(3.779528,0,0,3.779528,0,0)"/>
<path style="fill:none;stroke-width:2;stroke-linecap:butt;stroke-linejoin:miter;stroke:rgb(0%,0%,0%);stroke-opacity:1;stroke-miterlimit:4;" d="M 511.499528 425.999837 L 495.500505 425.999837 L 479.500448 427.999715 L 477.499536 412.499886 L 482.999976 393.000301 L 490.999487 361.000187 L 486.499504 345.00013 L 470.000252 336.999585 L 475.999886 320.999528 L 484.000431 305.000505 L 490.000065 289.000448 L 497.999577 273.000391 L 508 250.500472 L 491.999943 254 L 475.999886 278.499797 L 482.499748 291.999748 L 484.999854 275.999691 L 495.000277 259.999634 L 485.500081 270.500285 " transform="matrix(3.779528,0,0,3.779528,0,0)"/>
<path style="fill:none;stroke-width:2;stroke-linecap:butt;stroke-linejoin:miter;stroke:rgb(0%,0%,0%);stroke-opacity:1;stroke-miterlimit:4;" d="M 463.500391 271.999935 L 468.999797 256.500106 L 453.499967 250.500472 " transform="matrix(3.779528,0,0,3.779528,0,0)"/>
<path style="fill:none;stroke-width:2;stroke-linecap:butt;stroke-linejoin:miter;stroke:rgb(0%,0%,0%);stroke-opacity:1;stroke-miterlimit:4;" d="M 455.499845 252.50035 L 455.499845 260.499862 L 453.499967 268.000179 L 449.500212 284.000236 L 461.500513 299.500065 L 461.500513 295.999504 " transform="matrix(3.779528,0,0,3.779528,0,0)"/>
<path style="fill:none;stroke-width:2;stroke-linecap:butt;stroke-linejoin:miter;stroke:rgb(0%,0%,0%);stroke-opacity:1;stroke-miterlimit:4;" d="M 441.499666 286.000114 L 441.499666 302.000171 L 439.499788 318.000228 L 438.999561 334.000285 L 436.500488 349.500114 L 420.000203 359.999731 L 419.499976 375.999788 L 421.499854 392.500073 L 420.999626 409.000358 L 432.499699 416.99987 L 434.499577 432.999927 L 458.500179 434.499577 L 491.499715 434.499577 L 507.499772 436.500488 " transform="matrix(3.779528,0,0,3.779528,0,0)"/>
<path style="fill:none;stroke-width:2;stroke-linecap:butt;stroke-linejoin:miter;stroke:rgb(0%,0%,0%);stroke-opacity:1;stroke-miterlimit:4;" d="M 504.000244 439.499788 L 487.499959 439.499788 L 471.499902 436.999683 L 455.499845 436.999683 " transform="matrix(3.779528,0,0,3.779528,0,0)"/>
<path style="fill:none;stroke-width:2;stroke-linecap:butt;stroke-linejoin:miter;stroke:rgb(0%,0%,0%);stroke-opacity:1;stroke-miterlimit:4;" d="M 450.000439 422.000081 L 466.499691 423.999959 L 482.499748 422.000081 L 498.499805 422.000081 " transform="matrix(3.779528,0,0,3.779528,0,0)"/>
<path style="fill:none;stroke-width:2;stroke-linecap:butt;stroke-linejoin:miter;stroke:rgb(0%,0%,0%);stroke-opacity:1;stroke-miterlimit:4;" d="M 498.499805 431.000049 L 482.499748 431.000049 L 463.000163 418.999748 L 447.000106 421.499854 " transform="matrix(3.779528,0,0,3.779528,0,0)"/>
<path style="fill:none;stroke-width:2;stroke-linecap:butt;stroke-linejoin:miter;stroke:rgb(0%,0%,0%);stroke-opacity:1;stroke-miterlimit:4;" d="M 428.499943 436.00026 L 429.999593 420.000203 L 432.499699 404.000146 L 427.999715 388.00009 L 428.499943 372.000033 L 436.00026 361.500415 L 432.000505 337.499813 L 434.000382 323.499634 L 418.000326 336.999585 " transform="matrix(3.779528,0,0,3.779528,0,0)"/>
<path style="fill:none;stroke-width:2;stroke-linecap:butt;stroke-linejoin:miter;stroke:rgb(0%,0%,0%);stroke-opacity:1;stroke-miterlimit:4;" d="M 425.499609 336.999585 L 427.000293 334.999707 L 425.000415 350.999764 " transform="matrix(3.779528,0,0,3.779528,0,0)"/>
<path style="fill:none;stroke-width:2;stroke-linecap:butt;stroke-linejoin:miter;stroke:rgb(0%,0%,0%);stroke-opacity:1;stroke-miterlimit:4;" d="M 406.000024 358.500081 L 404.000146 373.99991 " transform="matrix(3.779528,0,0,3.779528,0,0)"/>
<path style="fill:none;stroke-width:2;stroke-linecap:butt;stroke-linejoin:miter;stroke:rgb(0%,0%,0%);stroke-opacity:1;stroke-miterlimit:4;" d="M 366.499593 373.99991 L 350.000342 374.500138 " transform="matrix(3.779528,0,0,3.779528,0,0)"/>
<path style="fill:none;stroke-width:2;stroke-linecap:butt;stroke-linejoin:miter;stroke:rgb(0%,0%,0%);stroke-opacity:1;stroke-miterlimit:4;" d="M 346.49978 384.499528 L 362.499837 386.500439 " transform="matrix(3.779528,0,0,3.779528,0,0)"/>
<path style="fill:none;stroke-width:2;stroke-linecap:butt;stroke-linejoin:miter;stroke:rgb(0%,0%,0%);stroke-opacity:1;stroke-miterlimit:4;" d="M 344.499902 384.499528 L 359.999731 380.499772 L 386.000212 384.499528 " transform="matrix(3.779528,0,0,3.779528,0,0)"/>
<path style="fill:none;stroke-width:2;stroke-linecap:butt;stroke-linejoin:miter;stroke:rgb(0%,0%,0%);stroke-opacity:1;stroke-miterlimit:4;" d="M 404.999569 411.999658 L 388.999512 409.499552 L 373.000488 409.499552 L 357.000431 407.499674 L 341.000374 407.499674 " transform="matrix(3.779528,0,0,3.779528,0,0)"/>
<path style="fill:none;stroke-width:2;stroke-linecap:butt;stroke-linejoin:miter;stroke:rgb(0%,0%,0%);stroke-opacity:1;stroke-miterlimit:4;" d="M 340.500146 411.000236 L 356.500203 413.000114 L 372.50026 415.50022 L 388.500317 415.50022 L 404.999569 418.000326 L 420.999626 423.999959 " transform="matrix(3.779528,0,0,3.779528,0,0)"/>
<path style="fill:none;stroke-width:2;stroke-linecap:butt;stroke-linejoin:miter;stroke:rgb(0%,0%,0%);stroke-opacity:1;stroke-miterlimit:4;" d="M 418.000326 441.999894 L 402.000269 434.499577 L 386.000212 432.499699 L 370.000155 429.999593 L 354.000098 429.500399 L 337.499813 427.499487 " transform="matrix(3.779528,0,0,3.779528,0,0)"/>
<path style="fill:none;stroke-width:2;stroke-linecap:butt;stroke-linejoin:miter;stroke:rgb(0%,0%,0%);stroke-opacity:1;stroke-miterlimit:4;" d="M 336.500391 427.499487 L 352.500448 423.499731 L 368.999699 425.000415 L 384.999756 425.000415 L 400.499585 427.000293 L 416.499642 432.999927 " transform="matrix(3.779528,0,0,3.779528,0,0)"/>
<path style="fill:none;stroke-width:2;stroke-linecap:butt;stroke-linejoin:miter;stroke:rgb(0%,0%,0%);stroke-opacity:1;stroke-miterlimit:4;" d="M 401.500041 434.000382 L 420.999626 450.000439 L 431.000049 469.500024 " transform="matrix(3.779528,0,0,3.779528,0,0)"/>
<path style="fill:none;stroke-width:2;stroke-linecap:butt;stroke-linejoin:miter;stroke:rgb(0%,0%,0%);stroke-opacity:1;stroke-miterlimit:4;" d="M 446.499878 504.000244 L 463.000163 508 L 470.50048 502.000366 " transform="matrix(3.779528,0,0,3.779528,0,0)"/>
<path style="fill:none;stroke-width:2;stroke-linecap:butt;stroke-linejoin:miter;stroke:rgb(0%,0%,0%);stroke-opacity:1;stroke-miterlimit:4;" d="M 506.999544 461.000285 L 490.999487 460.500057 L 475.499658 458.500179 L 459.499601 458.500179 L 443.499544 464.499813 L 443.499544 448.499756 L 445.500456 432.499699 L 445.500456 416.499642 L 443.499544 400.499585 L 445.500456 384.499528 L 445.99965 368.500505 L 447.999528 352.500448 L 455.499845 336.000163 L 457.499723 320.000106 L 456.999495 309.500488 L 460.500057 287.499764 L 458.500179 271.499707 L 458.500179 255.49965 L 454.000195 239.000399 L 450.000439 223.000342 L 438.000138 218.999552 " transform="matrix(3.779528,0,0,3.779528,0,0)"/>
<path style="fill:none;stroke-width:2;stroke-linecap:butt;stroke-linejoin:miter;stroke:rgb(0%,0%,0%);stroke-opacity:1;stroke-miterlimit:4;" d="M 454.999618 228.499748 L 470.999674 226.49987 L 497.000155 220.500236 " transform="matrix(3.779528,0,0,3.779528,0,0)"/>
<path style="fill:none;stroke-width:2;stroke-linecap:butt;stroke-linejoin:miter;stroke:rgb(0%,0%,0%);stroke-opacity:1;stroke-miterlimit:4;" d="M 499.50026 224.499992 L 485.500081 252.999544 L 487.499959 261.00009 L 483.500203 249.500016 L 497.500382 233.499959 L 507.499772 217.499902 " transform="matrix(3.779528,0,0,3.779528,0,0)"/>
<path style="fill:none;stroke-width:2;stroke-linecap:butt;stroke-linejoin:miter;stroke:rgb(0%,0%,0%);stroke-opacity:1;stroke-miterlimit:4;" d="M 484.000431 246.499683 L 468.000374 248.999788 L 452.000317 232.999731 " transform="matrix(3.779528,0,0,3.779528,0,0)"/>
<path style="fill:none;stroke-width:2;stroke-linecap:butt;stroke-linejoin:miter;stroke:rgb(0%,0%,0%);stroke-opacity:1;stroke-miterlimit:4;" d="M 444.5 242.499927 L 447.000106 258.499984 L 447.000106 291.49952 L 448.999984 307.499577 L 459.000407 309.500488 L 475.000464 295.500309 L 495.000277 275.500496 L 510.500106 257.000334 " transform="matrix(3.779528,0,0,3.779528,0,0)"/>
<path style="fill:none;stroke-width:2;stroke-linecap:butt;stroke-linejoin:miter;stroke:rgb(0%,0%,0%);stroke-opacity:1;stroke-miterlimit:4;" d="M 511.999756 262.49974 L 500.000488 278.499797 L 497.999577 293.999626 L 488.000187 309.999683 L 491.999943 315.500122 L 490.500293 329.000073 L 502.499561 345.500358 L 500.499683 361.999609 L 498.499805 378.499894 L 497.000155 394.499951 L 502.999788 393.000301 " transform="matrix(3.779528,0,0,3.779528,0,0)"/>
<path style="fill:none;stroke-width:2;stroke-linecap:butt;stroke-linejoin:miter;stroke:rgb(0%,0%,0%);stroke-opacity:1;stroke-miterlimit:4;" d="M 451.50009 372.50026 L 459.499601 368.000277 L 457.499723 352.00022 " transform="matrix(3.779528,0,0,3.779528,0,0)"/>
<path style="fill:none;stroke-width:2;stroke-linecap:butt;stroke-linejoin:miter;stroke:rgb(0%,0%,0%);stroke-opacity:1;stroke-miterlimit:4;" d="M 453.499967 345.00013 L 449.500212 361.000187 L 449.500212 377.000244 L 447.500334 393.499495 L 447.500334 425.499609 L 447.999528 441.999894 L 447.999528 458.500179 L 450.000439 475.000464 L 459.999829 479.00022 L 475.999886 479.00022 L 491.999943 484.999854 " transform="matrix(3.779528,0,0,3.779528,0,0)"/>
<path style="fill:none;stroke-width:2;stroke-linecap:butt;stroke-linejoin:miter;stroke:rgb(0%,0%,0%);stroke-opacity:1;stroke-miterlimit:4;" d="M 502.999788 457.499723 L 470.999674 453.499967 L 455.499845 455.499845 L 435.500033 459.000407 L 429.500399 447.000106 L 416.99987 428.499943 L 413.000114 412.499886 L 400.999813 404.500374 L 407.00048 390.500195 L 411.000236 373.99991 L 412.499886 357.999854 L 418.49952 353.49987 L 418.49952 338.000041 L 430.499821 321.499756 L 434.499577 305.499699 L 432.999927 289.499642 L 438.500366 273.499585 L 438.500366 257.499528 L 440.000016 241.500505 L 438.000138 225.500448 L 443.499544 221.499658 L 418.999748 225.00022 " transform="matrix(3.779528,0,0,3.779528,0,0)"/>
<path style="fill:none;stroke-width:2;stroke-linecap:butt;stroke-linejoin:miter;stroke:rgb(0%,0%,0%);stroke-opacity:1;stroke-miterlimit:4;" d="M 414.999992 225.00022 L 416.499642 241.000277 L 422.999504 248.999788 L 430.499821 248.999788 " transform="matrix(3.779528,0,0,3.779528,0,0)"/>
<path style="fill:none;stroke-width:2;stroke-linecap:butt;stroke-linejoin:miter;stroke:rgb(0%,0%,0%);stroke-opacity:1;stroke-miterlimit:4;" d="M 406.500252 250.999666 L 390.500195 236.999487 " transform="matrix(3.779528,0,0,3.779528,0,0)"/>
<path style="fill:none;stroke-width:2;stroke-linecap:butt;stroke-linejoin:miter;stroke:rgb(0%,0%,0%);stroke-opacity:1;stroke-miterlimit:4;" d="M 390.500195 237.499715 L 372.50026 227.500326 " transform="matrix(3.779528,0,0,3.779528,0,0)"/>
<path style="fill:none;stroke-width:2;stroke-linecap:butt;stroke-linejoin:miter;stroke:rgb(0%,0%,0%);stroke-opacity:1;stroke-miterlimit:4;" d="M 380.499772 228.999976 L 396.499829 239.000399 " transform="matrix(3.779528,0,0,3.779528,0,0)"/>
<path style="fill:none;stroke-width:2;stroke-linecap:butt;stroke-linejoin:miter;stroke:rgb(0%,0%,0%);stroke-opacity:1;stroke-miterlimit:4;" d="M 393.499495 234.500415 L 407.499674 236.500293 " transform="matrix(3.779528,0,0,3.779528,0,0)"/>
<path style="fill:none;stroke-width:2;stroke-linecap:butt;stroke-linejoin:miter;stroke:rgb(0%,0%,0%);stroke-opacity:1;stroke-miterlimit:4;" d="M 395.999601 202.500301 L 379.50035 190.5 " transform="matrix(3.779528,0,0,3.779528,0,0)"/>
<path style="fill:none;stroke-width:2;stroke-linecap:butt;stroke-linejoin:miter;stroke:rgb(0%,0%,0%);stroke-opacity:1;stroke-miterlimit:4;" d="M 384.000334 187.000472 L 389.999967 203.499723 L 395.999601 203.499723 " transform="matrix(3.779528,0,0,3.779528,0,0)"/>
<path style="fill:none;stroke-width:2;stroke-linecap:butt;stroke-linejoin:miter;stroke:rgb(0%,0%,0%);stroke-opacity:1;stroke-miterlimit:4;" d="M 359.999731 185.499788 L 341.999797 193.500334 L 357.499626 187.499666 L 373.499683 185.499788 L 389.49974 181.500033 L 406.000024 178.000505 L 422.000081 173.499487 L 438.000138 173.499487 L 454.000195 173.999715 L 470.000252 173.999715 " transform="matrix(3.779528,0,0,3.779528,0,0)"/>
<path style="fill:none;stroke-width:2;stroke-linecap:butt;stroke-linejoin:miter;stroke:rgb(0%,0%,0%);stroke-opacity:1;stroke-miterlimit:4;" d="M 463.500391 245.50026 L 473.49978 261.500317 L 470.000252 277.500374 L 466.000496 293.500431 " transform="matrix(3.779528,0,0,3.779528,0,0)"/>
<path style="fill:none;stroke-width:2;stroke-linecap:butt;stroke-linejoin:miter;stroke:rgb(0%,0%,0%);stroke-opacity:1;stroke-miterlimit:4;" d="M 409.99978 293.999626 L 402.000269 307.999805 " transform="matrix(3.779528,0,0,3.779528,0,0)"/>
<path style="fill:none;stroke-width:2;stroke-linecap:butt;stroke-linejoin:miter;stroke:rgb(0%,0%,0%);stroke-opacity:1;stroke-miterlimit:4;" d="M 382.000456 309.500488 L 388.00009 296.999959 L 391.999845 289.000448 L 407.499674 284.999658 L 411.500464 293.000203 L 405.499797 306.500155 L 399.500163 322.500212 L 403.499919 339.999919 L 420.000203 357.499626 L 437.49991 353.49987 L 457.499723 341.499569 L 465.500269 339.499691 L 481.99952 307.499577 L 497.999577 279.500252 " transform="matrix(3.779528,0,0,3.779528,0,0)"/>
<path style="fill:none;stroke-width:2;stroke-linecap:butt;stroke-linejoin:miter;stroke:rgb(0%,0%,0%);stroke-opacity:1;stroke-miterlimit:4;" d="M 379.000122 247.500138 L 363.000065 235.499837 " transform="matrix(3.779528,0,0,3.779528,0,0)"/>
<path style="fill:none;stroke-width:2;stroke-linecap:butt;stroke-linejoin:miter;stroke:rgb(0%,0%,0%);stroke-opacity:1;stroke-miterlimit:4;" d="M 366.000399 234.999609 L 386.000212 250.999666 L 399.500163 275.000269 L 403.499919 286.999536 L 395.500407 291.000326 L 399.500163 298.999837 L 384.999756 306.500155 L 395.000179 316.499544 L 389.49974 327.999618 L 397.500285 354.000098 L 399.500163 370.000155 L 386.999634 379.999544 " transform="matrix(3.779528,0,0,3.779528,0,0)"/>
<path style="fill:none;stroke-width:2;stroke-linecap:butt;stroke-linejoin:miter;stroke:rgb(0%,0%,0%);stroke-opacity:1;stroke-miterlimit:4;" d="M 388.999512 400.000391 L 373.000488 404.000146 L 357.000431 402.000269 L 340.500146 398.000513 " transform="matrix(3.779528,0,0,3.779528,0,0)"/>
<path style="fill:none;stroke-width:2;stroke-linecap:butt;stroke-linejoin:miter;stroke:rgb(0%,0%,0%);stroke-opacity:1;stroke-miterlimit:4;" d="M 336.000163 391.999845 L 351.499992 391.499618 L 366.999821 391.999845 L 384.499528 370.000155 " transform="matrix(3.779528,0,0,3.779528,0,0)"/>
<path style="fill:none;stroke-width:2;stroke-linecap:butt;stroke-linejoin:miter;stroke:rgb(0%,0%,0%);stroke-opacity:1;stroke-miterlimit:4;" d="M 354.99952 358.500081 L 339.000496 384.499528 " transform="matrix(3.779528,0,0,3.779528,0,0)"/>
<path style="fill:none;stroke-width:2;stroke-linecap:butt;stroke-linejoin:miter;stroke:rgb(0%,0%,0%);stroke-opacity:1;stroke-miterlimit:4;" d="M 329.500301 413.999536 L 329.500301 447.000106 L 331.500179 463.500391 " transform="matrix(3.779528,0,0,3.779528,0,0)"/>
<path style="fill:none;stroke-width:2;stroke-linecap:butt;stroke-linejoin:miter;stroke:rgb(0%,0%,0%);stroke-opacity:1;stroke-miterlimit:4;" d="M 338.000041 450.000439 L 354.500326 452.000317 L 370.500382 454.000195 L 402.000269 454.000195 L 418.000326 455.499845 L 433.500155 471.499902 L 450.000439 479.500448 L 466.000496 481.000098 L 481.500326 484.999854 " transform="matrix(3.779528,0,0,3.779528,0,0)"/>
<path style="fill:none;stroke-width:2;stroke-linecap:butt;stroke-linejoin:miter;stroke:rgb(0%,0%,0%);stroke-opacity:1;stroke-miterlimit:4;" d="M 407.00048 493.999821 L 391.000423 489.499837 L 375.000366 485.500081 " transform="matrix(3.779528,0,0,3.779528,0,0)"/>
<path style="fill:none;stroke-width:2;stroke-linecap:butt;stroke-linejoin:miter;stroke:rgb(0%,0%,0%);stroke-opacity:1;stroke-miterlimit:4;" d="M 373.499683 486.000309 L 381.500228 491.999943 L 397.000057 498.499805 " transform="matrix(3.779528,0,0,3.779528,0,0)"/>
<path style="fill:none;stroke-width:2;stroke-linecap:butt;stroke-linejoin:miter;stroke:rgb(0%,0%,0%);stroke-opacity:1;stroke-miterlimit:4;" d="M 416.000448 450.000439 L 400.000391 449.500212 L 384.000334 447.500334 L 368.000277 447.500334 L 352.00022 445.500456 L 336.000163 447.500334 " transform="matrix(3.779528,0,0,3.779528,0,0)"/>
<path style="fill:none;stroke-width:2;stroke-linecap:butt;stroke-linejoin:miter;stroke:rgb(0%,0%,0%);stroke-opacity:1;stroke-miterlimit:4;" d="M 304.000049 404.500374 L 314.000472 388.500317 L 305.999927 400.499585 L 293.999626 384.499528 L 295.999504 406.500252 L 307.999805 389.999967 L 302.500399 370.000155 L 306.500155 366.000399 L 280.499674 361.999609 " transform="matrix(3.779528,0,0,3.779528,0,0)"/>
<path style="fill:none;stroke-width:2;stroke-linecap:butt;stroke-linejoin:miter;stroke:rgb(0%,0%,0%);stroke-opacity:1;stroke-miterlimit:4;" d="M 270.500285 368.999699 L 268.000179 385.499984 L 273.999813 401.500041 L 270.000057 418.000326 L 268.500407 436.00026 L 268.500407 452.499512 " transform="matrix(3.779528,0,0,3.779528,0,0)"/>
<path style="fill:none;stroke-width:2;stroke-linecap:butt;stroke-linejoin:miter;stroke:rgb(0%,0%,0%);stroke-opacity:1;stroke-miterlimit:4;" d="M 272.500163 442.500122 L 288.50022 448.499756 L 304.500277 448.499756 " transform="matrix(3.779528,0,0,3.779528,0,0)"/>
<path style="fill:none;stroke-width:2;stroke-linecap:butt;stroke-linejoin:miter;stroke:rgb(0%,0%,0%);stroke-opacity:1;stroke-miterlimit:4;" d="M 286.999536 373.99991 L 307.000382 348.000464 L 287.499764 364.499715 L 291.49952 364.499715 L 291.999748 381 L 287.999992 397.000057 L 292.499976 413.000114 L 298.499609 431.000049 L 310.49991 434.499577 L 320.500334 414.499764 L 336.500391 377.000244 L 354.500326 370.999577 L 370.000155 364.999943 " transform="matrix(3.779528,0,0,3.779528,0,0)"/>
<path style="fill:none;stroke-width:2;stroke-linecap:butt;stroke-linejoin:miter;stroke:rgb(0%,0%,0%);stroke-opacity:1;stroke-miterlimit:4;" d="M 343.999674 309.00026 L 327.500423 293.000203 " transform="matrix(3.779528,0,0,3.779528,0,0)"/>
<path style="fill:none;stroke-width:2;stroke-linecap:butt;stroke-linejoin:miter;stroke:rgb(0%,0%,0%);stroke-opacity:1;stroke-miterlimit:4;" d="M 343.50048 289.499642 L 327.500423 267.499951 " transform="matrix(3.779528,0,0,3.779528,0,0)"/>
<path style="fill:none;stroke-width:2;stroke-linecap:butt;stroke-linejoin:miter;stroke:rgb(0%,0%,0%);stroke-opacity:1;stroke-miterlimit:4;" d="M 330.999951 264.000423 L 332.999829 279.500252 L 336.999585 295.500309 L 350.999764 311.999561 L 350.999764 328.499845 L 368.999699 350.499536 " transform="matrix(3.779528,0,0,3.779528,0,0)"/>
<path style="fill:none;stroke-width:2;stroke-linecap:butt;stroke-linejoin:miter;stroke:rgb(0%,0%,0%);stroke-opacity:1;stroke-miterlimit:4;" d="M 341.999797 327.999618 L 326.499967 318.500456 " transform="matrix(3.779528,0,0,3.779528,0,0)"/>
<path style="fill:none;stroke-width:2;stroke-linecap:butt;stroke-linejoin:miter;stroke:rgb(0%,0%,0%);stroke-opacity:1;stroke-miterlimit:4;" d="M 323.499634 314.499666 L 325.000317 308.500033 L 330.999951 324.50009 L 345.00013 340.500146 " transform="matrix(3.779528,0,0,3.779528,0,0)"/>
<path style="fill:none;stroke-width:2;stroke-linecap:butt;stroke-linejoin:miter;stroke:rgb(0%,0%,0%);stroke-opacity:1;stroke-miterlimit:4;" d="M 335.499935 334.000285 L 320.000106 320.000106 " transform="matrix(3.779528,0,0,3.779528,0,0)"/>
<path style="fill:none;stroke-width:2;stroke-linecap:butt;stroke-linejoin:miter;stroke:rgb(0%,0%,0%);stroke-opacity:1;stroke-miterlimit:4;" d="M 311.500366 323.499634 L 323.499634 339.499691 L 327.500423 355.499748 " transform="matrix(3.779528,0,0,3.779528,0,0)"/>
<path style="fill:none;stroke-width:2;stroke-linecap:butt;stroke-linejoin:miter;stroke:rgb(0%,0%,0%);stroke-opacity:1;stroke-miterlimit:4;" d="M 319.499878 331.500179 L 303.499821 317.5 L 287.999992 320.999528 " transform="matrix(3.779528,0,0,3.779528,0,0)"/>
<path style="fill:none;stroke-width:2;stroke-linecap:butt;stroke-linejoin:miter;stroke:rgb(0%,0%,0%);stroke-opacity:1;stroke-miterlimit:4;" d="M 280.499674 318.99965 L 296.499731 293.000203 " transform="matrix(3.779528,0,0,3.779528,0,0)"/>
<path style="fill:none;stroke-width:2;stroke-linecap:butt;stroke-linejoin:miter;stroke:rgb(0%,0%,0%);stroke-opacity:1;stroke-miterlimit:4;" d="M 286.000114 300.000293 L 270.500285 320.000106 L 254.500228 332.000407 " transform="matrix(3.779528,0,0,3.779528,0,0)"/>
<path style="fill:none;stroke-width:2;stroke-linecap:butt;stroke-linejoin:miter;stroke:rgb(0%,0%,0%);stroke-opacity:1;stroke-miterlimit:4;" d="M 234.500415 330.999951 L 239.999821 314.999894 L 268.000179 307.499577 L 284.000236 285.499886 L 300.000293 251.499894 " transform="matrix(3.779528,0,0,3.779528,0,0)"/>
<path style="fill:none;stroke-width:2;stroke-linecap:butt;stroke-linejoin:miter;stroke:rgb(0%,0%,0%);stroke-opacity:1;stroke-miterlimit:4;" d="M 305.000505 258.499984 L 305.000505 274.500041 L 298.499609 290.500098 L 290.500098 306.500155 L 278.499797 322.500212 L 294.499854 334.500513 L 278.499797 354.000098 L 264.000423 370.000155 L 243.999577 384.000334 L 241.999699 393.999723 L 254.500228 409.99978 L 258.499984 425.999837 L 264.499618 431.500277 L 252.000122 441.000472 L 257.999756 448.999984 L 251.499894 465.000041 " transform="matrix(3.779528,0,0,3.779528,0,0)"/>
<path style="fill:none;stroke-width:2;stroke-linecap:butt;stroke-linejoin:miter;stroke:rgb(0%,0%,0%);stroke-opacity:1;stroke-miterlimit:4;" d="M 304.500277 411.500464 L 296.999959 427.499487 L 280.999902 425.499609 L 280.999902 411.500464 L 284.999658 401.500041 L 286.999536 385.499984 L 286.999536 381.500228 L 270.500285 369.499927 " transform="matrix(3.779528,0,0,3.779528,0,0)"/>
<path style="fill:none;stroke-width:2;stroke-linecap:butt;stroke-linejoin:miter;stroke:rgb(0%,0%,0%);stroke-opacity:1;stroke-miterlimit:4;" d="M 211.500269 362.499837 L 217.499902 368.999699 L 201.499845 370.500382 L 196.000439 362.499837 L 202.000073 352.500448 L 192.499878 342.500024 L 203.999951 326.499967 L 219.49978 310.49991 L 219.49978 288.50022 L 235.499837 272.500163 L 255.49965 256.500106 L 271.999935 239.999821 L 268.500407 243.999577 L 252.999544 257.999756 L 236.999487 271.499707 L 221.499658 286.999536 " transform="matrix(3.779528,0,0,3.779528,0,0)"/>
<path style="fill:none;stroke-width:2;stroke-linecap:butt;stroke-linejoin:miter;stroke:rgb(0%,0%,0%);stroke-opacity:1;stroke-miterlimit:4;" d="M 207.000285 263.500195 L 223.499536 251.499894 L 239.000399 237.499715 L 245.000033 233.499959 L 228.499748 239.999821 L 209.999585 255.999878 L 209.999585 247.500138 L 222.500114 228.999976 L 224.499992 233.499959 L 230.999854 245.50026 L 211.000041 261.500317 L 218.999552 249.500016 L 234.999609 235.499837 L 250.999666 227.500326 L 245.000033 243.999577 L 225.00022 260.499862 L 211.000041 277.000146 L 206.500057 293.000203 L 172.500065 309.00026 L 172.500065 312.499788 L 188.500122 306.500155 L 204.500179 300.499487 L 221.999886 292.499976 L 238.500171 278.499797 L 244.499805 252.999544 L 260.499862 236.999487 L 252.50035 244.499805 L 224.499992 266.999723 L 214.499569 282.99978 L 206.500057 298.999837 L 170.500187 302.500399 L 178.499699 290.500098 L 171.999837 308.500033 L 188.500122 300.999715 L 204.500179 295.000081 L 224.499992 266.999723 L 244.499805 271.000513 L 260.499862 259.000212 " transform="matrix(3.779528,0,0,3.779528,0,0)"/>
<path style="fill:none;stroke-width:2;stroke-linecap:butt;stroke-linejoin:miter;stroke:rgb(0%,0%,0%);stroke-opacity:1;stroke-miterlimit:4;" d="M 259.999634 270.000057 L 248.000366 286.000114 L 233.499959 302.000171 L 239.000399 295.500309 L 254.500228 275.500496 " transform="matrix(3.779528,0,0,3.779528,0,0)"/>
<path style="fill:none;stroke-width:2;stroke-linecap:butt;stroke-linejoin:miter;stroke:rgb(0%,0%,0%);stroke-opacity:1;stroke-miterlimit:4;" d="M 248.999788 265.500073 L 234.500415 282.000358 L 209.000163 277.999569 L 225.00022 259.999634 L 241.000277 248.000366 L 257.000334 234.000187 " transform="matrix(3.779528,0,0,3.779528,0,0)"/>
<path style="fill:none;stroke-width:2;stroke-linecap:butt;stroke-linejoin:miter;stroke:rgb(0%,0%,0%);stroke-opacity:1;stroke-miterlimit:4;" d="M 264.999845 237.999943 L 250.999666 253.499772 L 249.500016 271.499707 L 236.000065 287.499764 L 218.500358 303.499821 L 202.500301 320.000106 L 189.00035 336.000163 L 168.999504 352.00022 L 182.500488 361.999609 L 196.499634 377.999666 L 212.499691 380.499772 L 234.500415 382.49965 L 252.50035 393.999723 L 276.499919 402.000269 L 294.499854 407.999902 L 310.49991 382.000456 " transform="matrix(3.779528,0,0,3.779528,0,0)"/>
<path style="fill:none;stroke-width:2;stroke-linecap:butt;stroke-linejoin:miter;stroke:rgb(0%,0%,0%);stroke-opacity:1;stroke-miterlimit:4;" d="M 288.50022 417.500098 L 272.500163 405.499797 L 246.000488 404.000146 L 230.000431 402.500496 L 182.00026 402.500496 L 166.000203 402.000269 " transform="matrix(3.779528,0,0,3.779528,0,0)"/>
<path style="fill:none;stroke-width:2;stroke-linecap:butt;stroke-linejoin:miter;stroke:rgb(0%,0%,0%);stroke-opacity:1;stroke-miterlimit:4;" d="M 164.999748 406.500252 L 180.499577 408.50013 L 196.499634 406.000024 L 212.999919 407.499674 L 246.000488 407.499674 " transform="matrix(3.779528,0,0,3.779528,0,0)"/>
<path style="fill:none;stroke-width:2;stroke-linecap:butt;stroke-linejoin:miter;stroke:rgb(0%,0%,0%);stroke-opacity:1;stroke-miterlimit:4;" d="M 241.000277 359.999731 L 239.000399 343.999674 L 227.000098 339.999919 L 211.000041 343.999674 L 194.999984 350.000342 " transform="matrix(3.779528,0,0,3.779528,0,0)"/>
<path style="fill:none;stroke-width:2;stroke-linecap:butt;stroke-linejoin:miter;stroke:rgb(0%,0%,0%);stroke-opacity:1;stroke-miterlimit:4;" d="M 193.999528 343.50048 L 209.999585 329.500301 L 218.00013 332.000407 L 234.500415 316.00035 L 250.500472 293.999626 L 266.499495 271.999935 " transform="matrix(3.779528,0,0,3.779528,0,0)"/>
<path style="fill:none;stroke-width:2;stroke-linecap:butt;stroke-linejoin:miter;stroke:rgb(0%,0%,0%);stroke-opacity:1;stroke-miterlimit:4;" d="M 273.499585 268.000179 L 257.499528 294.499854 L 247.500138 306.500155 L 261.500317 291.000326 L 271.999935 275.000269 L 282.000358 258.499984 " transform="matrix(3.779528,0,0,3.779528,0,0)"/>
<path style="fill:none;stroke-width:2;stroke-linecap:butt;stroke-linejoin:miter;stroke:rgb(0%,0%,0%);stroke-opacity:1;stroke-miterlimit:4;" d="M 300.999715 262.49974 L 296.999959 278.499797 L 291.000326 294.499854 L 282.99978 309.999683 L 261.00009 325.99974 L 246.99991 337.499813 L 246.99991 354.000098 " transform="matrix(3.779528,0,0,3.779528,0,0)"/>
<path style="fill:none;stroke-width:2;stroke-linecap:butt;stroke-linejoin:miter;stroke:rgb(0%,0%,0%);stroke-opacity:1;stroke-miterlimit:4;" d="M 223.499536 306.500155 L 207.500513 320.000106 L 191.500456 339.999919 " transform="matrix(3.779528,0,0,3.779528,0,0)"/>
<path style="fill:none;stroke-width:2;stroke-linecap:butt;stroke-linejoin:miter;stroke:rgb(0%,0%,0%);stroke-opacity:1;stroke-miterlimit:4;" d="M 180.499577 373.499683 L 164.49952 373.499683 " transform="matrix(3.779528,0,0,3.779528,0,0)"/>
<path style="fill:none;stroke-width:2;stroke-linecap:butt;stroke-linejoin:miter;stroke:rgb(0%,0%,0%);stroke-opacity:1;stroke-miterlimit:4;" d="M 161.50022 370.999577 L 161.50022 364.999943 L 178.000505 354.99952 L 187.999894 363.500293 L 178.499699 355.999976 L 182.999683 372.000033 L 205.000407 373.99991 L 221.000464 375.999788 " transform="matrix(3.779528,0,0,3.779528,0,0)"/>
<path style="fill:none;stroke-width:2;stroke-linecap:butt;stroke-linejoin:miter;stroke:rgb(0%,0%,0%);stroke-opacity:1;stroke-miterlimit:4;" d="M 246.000488 425.499609 L 229.500203 423.499731 L 213.500146 423.499731 L 198.000317 423.999959 L 182.500488 423.999959 L 166.500431 421.499854 " transform="matrix(3.779528,0,0,3.779528,0,0)"/>
<path style="fill:none;stroke-width:2;stroke-linecap:butt;stroke-linejoin:miter;stroke:rgb(0%,0%,0%);stroke-opacity:1;stroke-miterlimit:4;" d="M 164.000326 422.000081 L 180.000382 418.000326 L 196.499634 418.000326 L 212.499691 420.000203 L 228.499748 420.000203 L 244.499805 420.500431 " transform="matrix(3.779528,0,0,3.779528,0,0)"/>
<path style="fill:none;stroke-width:2;stroke-linecap:butt;stroke-linejoin:miter;stroke:rgb(0%,0%,0%);stroke-opacity:1;stroke-miterlimit:4;" d="M 180.499577 397.500285 L 164.49952 397.500285 " transform="matrix(3.779528,0,0,3.779528,0,0)"/>
<path style="fill:none;stroke-width:2;stroke-linecap:butt;stroke-linejoin:miter;stroke:rgb(0%,0%,0%);stroke-opacity:1;stroke-miterlimit:4;" d="M 159.500342 403.499919 L 175.500399 393.499495 L 191.500456 397.500285 L 223.999764 397.500285 L 239.999821 391.499618 " transform="matrix(3.779528,0,0,3.779528,0,0)"/>
<path style="fill:none;stroke-width:2;stroke-linecap:butt;stroke-linejoin:miter;stroke:rgb(0%,0%,0%);stroke-opacity:1;stroke-miterlimit:4;" d="M 180.499577 383.500106 L 164.49952 381.500228 " transform="matrix(3.779528,0,0,3.779528,0,0)"/>
<path style="fill:none;stroke-width:2;stroke-linecap:butt;stroke-linejoin:miter;stroke:rgb(0%,0%,0%);stroke-opacity:1;stroke-miterlimit:4;" d="M 165.499976 379.000122 L 181.500033 380.499772 L 205.499601 392.500073 L 237.499715 392.500073 " transform="matrix(3.779528,0,0,3.779528,0,0)"/>
<path style="fill:none;stroke-width:2;stroke-linecap:butt;stroke-linejoin:miter;stroke:rgb(0%,0%,0%);stroke-opacity:1;stroke-miterlimit:4;" d="M 150.500374 441.000472 L 150.999569 424.500187 L 134.500317 414.499764 L 118.50026 413.999536 L 110.499715 398.499707 L 108.499837 382.000456 L 116.000155 363.999487 L 112.000399 348.000464 L 112.000399 345.999552 " transform="matrix(3.779528,0,0,3.779528,0,0)"/>
<path style="fill:none;stroke-width:2;stroke-linecap:butt;stroke-linejoin:miter;stroke:rgb(0%,0%,0%);stroke-opacity:1;stroke-miterlimit:4;" d="M 121.499561 342.500024 L 125.50035 346.49978 L 135.49974 363.000065 " transform="matrix(3.779528,0,0,3.779528,0,0)"/>
<path style="fill:none;stroke-width:2;stroke-linecap:butt;stroke-linejoin:miter;stroke:rgb(0%,0%,0%);stroke-opacity:1;stroke-miterlimit:4;" d="M 123.999666 395.999601 L 125.50035 379.999544 L 123.999666 366.000399 L 119.99991 350.000342 L 123.999666 334.000285 L 109.999487 341.999797 L 94.000464 339.999919 " transform="matrix(3.779528,0,0,3.779528,0,0)"/>
<path style="fill:none;stroke-width:2;stroke-linecap:butt;stroke-linejoin:miter;stroke:rgb(0%,0%,0%);stroke-opacity:1;stroke-miterlimit:4;" d="M 91.999552 335.499935 L 107.500415 323.499634 L 123.500472 311.000138 L 139.499495 320.999528 " transform="matrix(3.779528,0,0,3.779528,0,0)"/>
<path style="fill:none;stroke-width:2;stroke-linecap:butt;stroke-linejoin:miter;stroke:rgb(0%,0%,0%);stroke-opacity:1;stroke-miterlimit:4;" d="M 145.500163 319.499878 L 129.500106 307.000382 L 112.999821 311.000138 L 96.999764 325.000317 L 81.499935 340.500146 L 65.499878 359.000309 L 44.000415 377.000244 L 32.000114 373.000488 L 34.50022 353.49987 L 20.500041 341.999797 L 16.500285 345.999552 " transform="matrix(3.779528,0,0,3.779528,0,0)"/>
<path style="fill:none;stroke-width:2;stroke-linecap:butt;stroke-linejoin:miter;stroke:rgb(0%,0%,0%);stroke-opacity:1;stroke-miterlimit:4;" d="M 12.000301 350.000342 L 16.000057 338.500269 L 16.000057 338.000041 L 15.499829 354.000098 L 5.500439 373.499683 L 3.499528 388.999512 L 15.499829 399.500163 L 31.499886 393.499495 L 33.499764 397.500285 " transform="matrix(3.779528,0,0,3.779528,0,0)"/>
<path style="fill:none;stroke-width:2;stroke-linecap:butt;stroke-linejoin:miter;stroke:rgb(0%,0%,0%);stroke-opacity:1;stroke-miterlimit:4;" d="M 26.00048 417.500098 L 41.999504 423.499731 L 66.000106 416.99987 L 82.000163 409.000358 L 98.500448 409.499552 " transform="matrix(3.779528,0,0,3.779528,0,0)"/>
<path style="fill:none;stroke-width:2;stroke-linecap:butt;stroke-linejoin:miter;stroke:rgb(0%,0%,0%);stroke-opacity:1;stroke-miterlimit:4;" d="M 94.999886 381 L 98.500448 364.499715 L 84.000041 345.00013 " transform="matrix(3.779528,0,0,3.779528,0,0)"/>
<path style="fill:none;stroke-width:2;stroke-linecap:butt;stroke-linejoin:miter;stroke:rgb(0%,0%,0%);stroke-opacity:1;stroke-miterlimit:4;" d="M 78.000407 363.000065 L 78.000407 366.999821 L 72.499967 382.999878 " transform="matrix(3.779528,0,0,3.779528,0,0)"/>
<path style="fill:none;stroke-width:2;stroke-linecap:butt;stroke-linejoin:miter;stroke:rgb(0%,0%,0%);stroke-opacity:1;stroke-miterlimit:4;" d="M 69.000439 416.000448 L 85.000496 413.500342 L 100.99952 413.500342 L 116.999577 417.500098 L 132.999634 419.499976 L 154.50013 418.000326 L 154.50013 434.499577 L 166.000203 440.500244 L 181.500033 442.500122 L 196.999862 442.500122 L 212.999919 444.5 L 228.499748 448.499756 L 244.499805 450.000439 L 261.00009 437.49991 L 283.500008 421.499854 L 300.000293 417.500098 " transform="matrix(3.779528,0,0,3.779528,0,0)"/>
<path style="fill:none;stroke-width:2;stroke-linecap:butt;stroke-linejoin:miter;stroke:rgb(0%,0%,0%);stroke-opacity:1;stroke-miterlimit:4;" d="M 391.499618 393.499495 L 375.499561 393.499495 L 375.000366 377.500472 L 369.499927 375.999788 L 369.499927 366.000399 L 383.500106 359.999731 L 377.500472 348.000464 L 375.499561 332.000407 L 367.500049 338.000041 L 365.500171 321.999984 L 353.49987 304.500277 L 353.49987 284.500464 L 357.499626 268.500407 L 341.499569 252.000122 L 341.499569 236.000065 L 323.499634 234.500415 " transform="matrix(3.779528,0,0,3.779528,0,0)"/>
<path style="fill:none;stroke-width:2;stroke-linecap:butt;stroke-linejoin:miter;stroke:rgb(0%,0%,0%);stroke-opacity:1;stroke-miterlimit:4;" d="M 326.499967 232.499504 L 326.499967 248.499561 L 322.500212 264.499618 L 324.50009 280.499674 L 330.499723 296.499731 L 318.500456 312.499788 L 327.000195 328.499845 L 338.500269 343.999674 L 342.500024 359.999731 L 336.500391 375.499561 L 332.499601 391.000423 L 323.999862 407.499674 L 318.000228 423.499731 L 320.000106 440.000016 L 324.50009 457.999951 " transform="matrix(3.779528,0,0,3.779528,0,0)"/>
<path style="fill:none;stroke-width:2;stroke-linecap:butt;stroke-linejoin:miter;stroke:rgb(0%,0%,0%);stroke-opacity:1;stroke-miterlimit:4;" d="M 305.999927 468.000374 L 289.99987 468.000374 L 274.500041 465.500269 L 258.499984 469.500024 L 242.499927 470.999674 L 225.999642 471.499902 L 209.999585 472.00013 L 193.999528 468.000374 L 178.000505 468.499569 L 162.000448 464.499813 " transform="matrix(3.779528,0,0,3.779528,0,0)"/>
<path style="fill:none;stroke-width:2;stroke-linecap:butt;stroke-linejoin:miter;stroke:rgb(0%,0%,0%);stroke-opacity:1;stroke-miterlimit:4;" d="M 141.000179 443.999772 L 143.500285 427.999715 L 153.999902 411.999658 L 148.500496 408.50013 L 156.500008 392.500073 L 156.500008 377.000244 L 148.500496 373.000488 L 153.999902 357.000431 L 157.999658 340.500146 L 159.999536 324.50009 L 164.000326 308.500033 L 161.50022 291.999748 L 161.50022 275.999691 L 159.500342 259.999634 L 175.500399 245.50026 L 159.999536 259.500439 " transform="matrix(3.779528,0,0,3.779528,0,0)"/>
<path style="fill:none;stroke-width:2;stroke-linecap:butt;stroke-linejoin:miter;stroke:rgb(0%,0%,0%);stroke-opacity:1;stroke-miterlimit:4;" d="M 153.999902 259.500439 L 169.999959 243.999577 L 186.000016 234.500415 L 202.000073 226.49987 L 199.499967 236.000065 L 173.499487 239.999821 L 155.99978 255.999878 L 153.999902 271.499707 L 153.499674 286.999536 L 152.000024 302.999593 L 153.999902 318.99965 L 166.000203 330.999951 L 167.499854 346.49978 L 167.499854 354.99952 L 160.999992 371.499805 L 160.499764 387.499862 L 160.499764 406.000024 L 160.999992 422.500309 L 160.999992 440.500244 L 158.499886 456.999495 L 170.500187 436.999683 L 186.500244 436.999683 L 202.999495 438.500366 L 236.000065 442.500122 L 252.000122 438.500366 L 280.499674 440.500244 L 312.499788 443.499544 L 311.999561 449.500212 L 314.000472 465.000041 " transform="matrix(3.779528,0,0,3.779528,0,0)"/>
<path style="fill:none;stroke-width:2;stroke-linecap:butt;stroke-linejoin:miter;stroke:rgb(0%,0%,0%);stroke-opacity:1;stroke-miterlimit:4;" d="M 409.000358 477.499536 L 393.000301 475.499658 L 377.000244 475.499658 L 361.000187 473.49978 L 345.00013 472.00013 L 318.99965 470.000252 L 302.999593 462.499935 L 286.999536 462.499935 L 271.000513 460.500057 L 243.000155 468.499569 L 227.000098 466.499691 L 211.000041 466.499691 L 194.999984 465.000041 L 178.999927 463.000163 L 163.500098 459.000407 L 148.000269 465.000041 L 132.000212 461.000285 L 116.500382 459.000407 L 100.500326 459.000407 L 84.500269 460.500057 L 68.500212 456.500301 L 64.500456 441.000472 L 68.500212 422.999504 L 66.000106 407.00048 L 66.000106 391.000423 L 67.499756 374.500138 L 73.500423 358.500081 L 78.999829 336.000163 L 87.000374 320.000106 L 85.000496 304.000049 L 96.999764 287.999992 L 91.00013 271.999935 L 82.999585 266.000301 L 105.000309 250.000244 L 129.500106 234.000187 L 153.499674 207.999707 L 169.999959 191.99965 L 174.499943 196.000439 L 158.499886 209.500391 " transform="matrix(3.779528,0,0,3.779528,0,0)"/>
<path style="fill:none;stroke-width:2;stroke-linecap:butt;stroke-linejoin:miter;stroke:rgb(0%,0%,0%);stroke-opacity:1;stroke-miterlimit:4;" d="M 152.000024 227.99952 L 135.49974 235.499837 L 119.000488 247.500138 L 103.000431 257.499528 L 87.000374 268.999601 " transform="matrix(3.779528,0,0,3.779528,0,0)"/>
<path style="fill:none;stroke-width:2;stroke-linecap:butt;stroke-linejoin:miter;stroke:rgb(0%,0%,0%);stroke-opacity:1;stroke-miterlimit:4;" d="M 83.499813 266.499495 L 99.49987 254.500228 L 115.499927 244.499805 L 131.499984 234.500415 L 147.500041 223.999764 L 150.000146 227.99952 L 124.499894 243.999577 L 100.500326 259.500439 L 104.500081 287.999992 L 96.999764 307.999805 L 112.999821 289.99987 L 119.000488 287.999992 L 119.000488 280.00048 L 109.000065 295.999504 L 98.999642 311.999561 L 93.000008 339.999919 L 85.000496 363.999487 L 82.999585 379.999544 L 75.000073 400.000391 L 91.00013 400.000391 L 112.499593 407.999902 L 128.999878 393.999723 L 139.000301 400.000391 " transform="matrix(3.779528,0,0,3.779528,0,0)"/>
<path style="fill:none;stroke-width:2;stroke-linecap:butt;stroke-linejoin:miter;stroke:rgb(0%,0%,0%);stroke-opacity:1;stroke-miterlimit:4;" d="M 143.500285 455.499845 L 127 451.50009 L 110.499715 451.50009 L 94.000464 453.499967 L 78.499601 453.499967 L 62.499544 454.999618 L 48.999593 452.99974 L 51.499699 438.999561 L 26.00048 413.000114 L 35.99987 400.999813 L 48.000171 394.499951 L 40.499854 384.999756 L 30.500464 383.500106 L 26.499674 366.999821 L 38.499976 352.999642 L 57.000138 345.500358 L 69.000439 329.500301 L 68.500212 313.000016 L 62.499544 296.999959 L 64.500456 280.999902 L 73.999618 262.999967 L 85.999919 247.500138 L 87.499569 246.000488 L 71.000317 261.500317 " transform="matrix(3.779528,0,0,3.779528,0,0)"/>
<path style="fill:none;stroke-width:2;stroke-linecap:butt;stroke-linejoin:miter;stroke:rgb(0%,0%,0%);stroke-opacity:1;stroke-miterlimit:4;" d="M 75.999495 266.499495 L 91.999552 250.500472 L 85.999919 256.500106 L 69.999862 277.999569 L 69.499634 293.500431 L 71.499512 309.500488 L 73.500423 329.000073 L 63.5 345.00013 L 57.999561 361.000187 L 51.999927 370.999577 L 46.000293 382.999878 L 67.999984 393.000301 L 75.500301 392.500073 L 91.500358 394.499951 L 96.000342 379.000122 L 112.000399 366.999821 L 130.000334 386.999634 L 143.500285 381.500228 L 166.000203 353.49987 L 182.00026 343.50048 L 198.000317 323.499634 L 214.000374 307.499577 L 230.000431 293.999626 L 246.000488 275.999691 L 254 250.500472 L 270.000057 230.499626 " transform="matrix(3.779528,0,0,3.779528,0,0)"/>
<path style="fill:none;stroke-width:2;stroke-linecap:butt;stroke-linejoin:miter;stroke:rgb(0%,0%,0%);stroke-opacity:1;stroke-miterlimit:4;" d="M 277.500374 237.499715 L 265.500073 253.499772 L 268.000179 269.499829 L 257.999756 286.000114 L 243.500382 302.000171 L 229.500203 318.000228 L 218.00013 321.999984 L 202.000073 337.499813 L 194.499756 353.49987 L 194.499756 369.499927 L 193.999528 387.499862 L 198.000317 383.500106 L 214.000374 383.500106 L 230.000431 377.500472 L 246.000488 377.999666 L 261.999512 372.000033 L 277.500374 354.000098 L 293.500431 351.499992 L 295.500309 335.499935 L 311.000138 332.000407 L 327.000195 355.999976 " transform="matrix(3.779528,0,0,3.779528,0,0)"/>
<path style="fill:none;stroke-width:2;stroke-linecap:butt;stroke-linejoin:miter;stroke:rgb(0%,0%,0%);stroke-opacity:1;stroke-miterlimit:4;" d="M 323.999862 357.000431 L 318.000228 341.000374 L 307.999805 325.499512 L 307.999805 319.499878 " transform="matrix(3.779528,0,0,3.779528,0,0)"/>
<path style="fill:none;stroke-width:2;stroke-linecap:butt;stroke-linejoin:miter;stroke:rgb(0%,0%,0%);stroke-opacity:1;stroke-miterlimit:4;" d="M 347.500236 281.50013 L 330.999951 243.500382 " transform="matrix(3.779528,0,0,3.779528,0,0)"/>
<path style="fill:none;stroke-width:2;stroke-linecap:butt;stroke-linejoin:miter;stroke:rgb(0%,0%,0%);stroke-opacity:1;stroke-miterlimit:4;" d="M 336.000163 239.499593 L 352.500448 255.49965 " transform="matrix(3.779528,0,0,3.779528,0,0)"/>
<path style="fill:none;stroke-width:2;stroke-linecap:butt;stroke-linejoin:miter;stroke:rgb(0%,0%,0%);stroke-opacity:1;stroke-miterlimit:4;" d="M 354.000098 261.500317 L 338.000041 247.500138 " transform="matrix(3.779528,0,0,3.779528,0,0)"/>
<path style="fill:none;stroke-width:2;stroke-linecap:butt;stroke-linejoin:miter;stroke:rgb(0%,0%,0%);stroke-opacity:1;stroke-miterlimit:4;" d="M 342.500024 248.499561 L 361.000187 264.499618 L 357.000431 272.500163 L 377.000244 280.499674 L 393.499495 266.000301 " transform="matrix(3.779528,0,0,3.779528,0,0)"/>
<path style="fill:none;stroke-width:2;stroke-linecap:butt;stroke-linejoin:miter;stroke:rgb(0%,0%,0%);stroke-opacity:1;stroke-miterlimit:4;" d="M 373.000488 254 L 357.000431 239.999821 " transform="matrix(3.779528,0,0,3.779528,0,0)"/>
<path style="fill:none;stroke-width:2;stroke-linecap:butt;stroke-linejoin:miter;stroke:rgb(0%,0%,0%);stroke-opacity:1;stroke-miterlimit:4;" d="M 361.000187 232.499504 L 376.500016 248.499561 L 398.499707 270.000057 L 386.500439 277.999569 L 379.999544 294.499854 L 382.000456 310.49991 L 382.000456 325.99974 L 388.00009 341.499569 L 391.499618 350.999764 L 395.500407 366.499593 L 397.500285 382.000456 L 411.500464 408.50013 L 427.499487 434.999805 " transform="matrix(3.779528,0,0,3.779528,0,0)"/>
<path style="fill:none;stroke-width:2;stroke-linecap:butt;stroke-linejoin:miter;stroke:rgb(0%,0%,0%);stroke-opacity:1;stroke-miterlimit:4;" d="M 368.500505 257.499528 L 352.999642 241.500505 L 336.999585 231.500081 " transform="matrix(3.779528,0,0,3.779528,0,0)"/>
<path style="fill:none;stroke-width:2;stroke-linecap:butt;stroke-linejoin:miter;stroke:rgb(0%,0%,0%);stroke-opacity:1;stroke-miterlimit:4;" d="M 338.500269 230.499626 L 361.000187 246.499683 L 375.000366 262.49974 L 384.999756 268.000179 L 373.000488 284.000236 L 370.999577 299.500065 L 357.000431 303.499821 L 359.000309 318.99965 L 353.49987 334.999707 L 357.499626 336.999585 L 353.49987 353.49987 L 345.500358 369.499927 L 337.499813 385.499984 L 333.500057 404.000146 L 334.999707 420.500431 L 323.000439 422.500309 L 334.999707 431.000049 L 339.499691 447.000106 L 335.499935 463.000163 L 345.999552 468.499569 L 361.999609 468.499569 L 377.999666 470.50048 L 393.999723 470.50048 L 409.99978 474.000008 L 425.499609 475.499658 " transform="matrix(3.779528,0,0,3.779528,0,0)"/>
<path style="fill:none;stroke-width:2;stroke-linecap:butt;stroke-linejoin:miter;stroke:rgb(0%,0%,0%);stroke-opacity:1;stroke-miterlimit:4;" d="M 398.499707 257.999756 L 382.000456 245.50026 L 366.000399 231.500081 L 350.000342 232.999731 L 334.000285 227.500326 " transform="matrix(3.779528,0,0,3.779528,0,0)"/>
<path style="fill:none;stroke-width:2;stroke-linecap:butt;stroke-linejoin:miter;stroke:rgb(0%,0%,0%);stroke-opacity:1;stroke-miterlimit:4;" d="M 330.499723 234.500415 L 334.500513 250.500472 L 340.500146 266.499495 L 348.499658 282.499552 L 348.499658 298.499609 L 336.500391 316.499544 L 343.999674 332.000407 L 354.000098 336.000163 L 359.999731 353.49987 L 379.999544 366.000399 L 386.000212 361.999609 L 403.499919 355.999976 " transform="matrix(3.779528,0,0,3.779528,0,0)"/>
<path style="fill:none;stroke-width:2;stroke-linecap:butt;stroke-linejoin:miter;stroke:rgb(0%,0%,0%);stroke-opacity:1;stroke-miterlimit:4;" d="M 348.499658 309.999683 L 341.000374 281.50013 L 332.999829 265.500073 " transform="matrix(3.779528,0,0,3.779528,0,0)"/>
<path style="fill:none;stroke-width:2;stroke-linecap:butt;stroke-linejoin:miter;stroke:rgb(0%,0%,0%);stroke-opacity:1;stroke-miterlimit:4;" d="M 347.500236 239.000399 L 363.500293 255.000456 " transform="matrix(3.779528,0,0,3.779528,0,0)"/>
<path style="fill:none;stroke-width:2;stroke-linecap:butt;stroke-linejoin:miter;stroke:rgb(0%,0%,0%);stroke-opacity:1;stroke-miterlimit:4;" d="M 304.500277 233.499959 L 302.000171 249.500016 L 293.999626 265.500073 L 287.999992 280.999902 L 280.00048 296.999959 L 254.500228 312.499788 L 270.500285 298.499609 L 286.000114 266.499495 " transform="matrix(3.779528,0,0,3.779528,0,0)"/>
<path style="fill:none;stroke-width:2;stroke-linecap:butt;stroke-linejoin:miter;stroke:rgb(0%,0%,0%);stroke-opacity:1;stroke-miterlimit:4;" d="M 300.000293 232.000309 L 295.999504 248.000366 L 287.999992 264.000423 L 280.00048 280.499674 L 271.999935 296.499731 L 254 312.499788 L 231.500081 326.499967 L 230.999854 342.500024 L 218.999552 344.499902 L 213.500146 359.999731 L 221.499658 366.000399 L 215.500024 359.999731 " transform="matrix(3.779528,0,0,3.779528,0,0)"/>
<path style="fill:none;stroke-width:2;stroke-linecap:butt;stroke-linejoin:miter;stroke:rgb(0%,0%,0%);stroke-opacity:1;stroke-miterlimit:4;" d="M 139.999723 393.000301 L 139.999723 377.000244 L 148.500496 361.500415 L 153.00048 345.500358 L 153.00048 329.500301 L 127 313.500244 " transform="matrix(3.779528,0,0,3.779528,0,0)"/>
<path style="fill:none;stroke-width:2;stroke-linecap:butt;stroke-linejoin:miter;stroke:rgb(0%,0%,0%);stroke-opacity:1;stroke-miterlimit:4;" d="M 127 307.999805 L 159.000114 327.999618 " transform="matrix(3.779528,0,0,3.779528,0,0)"/>
<path style="fill:none;stroke-width:2;stroke-linecap:butt;stroke-linejoin:miter;stroke:rgb(0%,0%,0%);stroke-opacity:1;stroke-miterlimit:4;" d="M 121.000366 311.999561 L 121.000366 329.500301 L 107.000187 345.00013 L 94.999886 361.000187 L 87.000374 377.000244 L 96.499536 359.000309 L 112.999821 357.000431 L 128.999878 368.999699 L 144.999935 367.500049 " transform="matrix(3.779528,0,0,3.779528,0,0)"/>
<path style="fill:none;stroke-width:2;stroke-linecap:butt;stroke-linejoin:miter;stroke:rgb(0%,0%,0%);stroke-opacity:1;stroke-miterlimit:4;" d="M 131.499984 433.500155 L 116.000155 429.500399 L 100.000098 425.499609 L 84.000041 425.999837 L 67.999984 420.500431 " transform="matrix(3.779528,0,0,3.779528,0,0)"/>
<path style="fill:none;stroke-width:2;stroke-linecap:butt;stroke-linejoin:miter;stroke:rgb(0%,0%,0%);stroke-opacity:1;stroke-miterlimit:4;" d="M 39.999626 407.00048 L 23.999569 416.99987 " transform="matrix(3.779528,0,0,3.779528,0,0)"/>
<path style="fill:none;stroke-width:2;stroke-linecap:butt;stroke-linejoin:miter;stroke:rgb(0%,0%,0%);stroke-opacity:1;stroke-miterlimit:4;" d="M 23.999569 425.999837 L 45.500065 441.999894 " transform="matrix(3.779528,0,0,3.779528,0,0)"/>
<path style="fill:none;stroke-width:2;stroke-linecap:butt;stroke-linejoin:miter;stroke:rgb(0%,0%,0%);stroke-opacity:1;stroke-miterlimit:4;" d="M 40.499854 428.499943 L 23.999569 424.500187 L 7.999512 424.500187 " transform="matrix(3.779528,0,0,3.779528,0,0)"/>
<path style="fill:none;stroke-width:2;stroke-linecap:butt;stroke-linejoin:miter;stroke:rgb(0%,0%,0%);stroke-opacity:1;stroke-miterlimit:4;" d="M 1.000456 425.499609 L 17.000513 411.500464 L 32.999536 404.000146 L 51.499699 412.499886 " transform="matrix(3.779528,0,0,3.779528,0,0)"/>
<path style="fill:none;stroke-width:2;stroke-linecap:butt;stroke-linejoin:miter;stroke:rgb(0%,0%,0%);stroke-opacity:1;stroke-miterlimit:4;" d="M 49.499821 359.499504 L 33.499764 354.000098 " transform="matrix(3.779528,0,0,3.779528,0,0)"/>
<path style="fill:none;stroke-width:2;stroke-linecap:butt;stroke-linejoin:miter;stroke:rgb(0%,0%,0%);stroke-opacity:1;stroke-miterlimit:4;" d="M 64.500456 346.49978 L 80.500513 318.000228 L 96.499536 319.499878 L 112.499593 299.500065 L 107.999609 314.999894 L 87.999797 331.500179 L 77.500179 347.500236 L 63.5 363.500293 L 59.500244 379.999544 L 60.000472 395.999601 L 60.000472 428.499943 L 69.999862 432.499699 L 101.999976 432.499699 L 118.000033 434.000382 L 134.500317 437.49991 " transform="matrix(3.779528,0,0,3.779528,0,0)"/>
<path style="fill:none;stroke-width:2;stroke-linecap:butt;stroke-linejoin:miter;stroke:rgb(0%,0%,0%);stroke-opacity:1;stroke-miterlimit:4;" d="M 67.499756 510.500106 L 51.000505 506.50035 L 35.000448 504.500472 L 19.000391 502.499561 " transform="matrix(3.779528,0,0,3.779528,0,0)"/>
<path style="fill:none;stroke-width:2;stroke-linecap:butt;stroke-linejoin:miter;stroke:rgb(0%,0%,0%);stroke-opacity:1;stroke-miterlimit:4;" d="M 17.499707 502.499561 L 32.999536 498.499805 L 48.999593 500.499683 L 64.500456 504.000244 L 80.000285 506.000122 " transform="matrix(3.779528,0,0,3.779528,0,0)"/>
<path style="fill:none;stroke-width:2;stroke-linecap:butt;stroke-linejoin:miter;stroke:rgb(0%,0%,0%);stroke-opacity:1;stroke-miterlimit:4;" d="M 34.50022 452.99974 L 19.000391 448.499756 L 3.000334 450.499634 " transform="matrix(3.779528,0,0,3.779528,0,0)"/>
<path style="fill:none;stroke-width:2;stroke-linecap:butt;stroke-linejoin:miter;stroke:rgb(0%,0%,0%);stroke-opacity:1;stroke-miterlimit:4;" d="M 1.49965 445.000228 L 17.499707 445.000228 L 33.499764 450.000439 " transform="matrix(3.779528,0,0,3.779528,0,0)"/>
<path style="fill:none;stroke-width:2;stroke-linecap:butt;stroke-linejoin:miter;stroke:rgb(0%,0%,0%);stroke-opacity:1;stroke-miterlimit:4;" d="M 1.49965 361.999609 L 11.500073 372.000033 L 16.000057 388.00009 L 21.999691 386.000212 L 33.999992 374.500138 L 50.000049 366.499593 L 64.000228 334.500513 " transform="matrix(3.779528,0,0,3.779528,0,0)"/>
<path style="fill:none;stroke-width:2;stroke-linecap:butt;stroke-linejoin:miter;stroke:rgb(0%,0%,0%);stroke-opacity:1;stroke-miterlimit:4;" d="M 62.499544 307.000382 L 78.499601 312.499788 L 94.999886 290.500098 " transform="matrix(3.779528,0,0,3.779528,0,0)"/>
<path style="fill:none;stroke-width:2;stroke-linecap:butt;stroke-linejoin:miter;stroke:rgb(0%,0%,0%);stroke-opacity:1;stroke-miterlimit:4;" d="M 96.499536 297.500187 L 87.000374 311.500366 L 107.000187 307.999805 L 119.000488 291.999748 L 127 276.499919 " transform="matrix(3.779528,0,0,3.779528,0,0)"/>
<path style="fill:none;stroke-width:2;stroke-linecap:butt;stroke-linejoin:miter;stroke:rgb(0%,0%,0%);stroke-opacity:1;stroke-miterlimit:4;" d="M 169.999959 268.999601 L 186.000016 259.000212 L 201.499845 246.499683 L 199.499967 248.499561 L 178.000505 264.999845 L 180.000382 257.000334 L 196.000439 245.000033 " transform="matrix(3.779528,0,0,3.779528,0,0)"/>
<path style="fill:none;stroke-width:2;stroke-linecap:butt;stroke-linejoin:miter;stroke:rgb(0%,0%,0%);stroke-opacity:1;stroke-miterlimit:4;" d="M 190.5 237.499715 L 174.499943 249.500016 " transform="matrix(3.779528,0,0,3.779528,0,0)"/>
<path style="fill:none;stroke-width:2;stroke-linecap:butt;stroke-linejoin:miter;stroke:rgb(0%,0%,0%);stroke-opacity:1;stroke-miterlimit:4;" d="M 177.500277 280.999902 L 160.999992 309.00026 L 173.000293 285.499886 L 175.000171 259.500439 L 196.999862 243.999577 L 214.999797 244.499805 L 225.00022 228.499748 " transform="matrix(3.779528,0,0,3.779528,0,0)"/>
<path style="fill:none;stroke-width:2;stroke-linecap:butt;stroke-linejoin:miter;stroke:rgb(0%,0%,0%);stroke-opacity:1;stroke-miterlimit:4;" d="M 180.000382 191.500456 L 153.999902 207.500513 " transform="matrix(3.779528,0,0,3.779528,0,0)"/>
<path style="fill:none;stroke-width:2;stroke-linecap:butt;stroke-linejoin:miter;stroke:rgb(0%,0%,0%);stroke-opacity:1;stroke-miterlimit:4;" d="M 102.500203 230.000431 L 86.500146 234.000187 L 70.50009 243.500382 L 54.500033 257.499528 L 69.999862 243.500382 " transform="matrix(3.779528,0,0,3.779528,0,0)"/>
<path style="fill:none;stroke-width:2;stroke-linecap:butt;stroke-linejoin:miter;stroke:rgb(0%,0%,0%);stroke-opacity:1;stroke-miterlimit:4;" d="M 71.000317 232.000309 L 55.00026 243.999577 L 57.000138 242.499927 L 82.999585 226.49987 " transform="matrix(3.779528,0,0,3.779528,0,0)"/>
<path style="fill:none;stroke-width:2;stroke-linecap:butt;stroke-linejoin:miter;stroke:rgb(0%,0%,0%);stroke-opacity:1;stroke-miterlimit:4;" d="M 85.499691 228.499748 L 77.500179 232.499504 L 59.500244 248.499561 L 61.500122 244.499805 L 77.500179 232.499504 L 93.500236 225.999642 L 109.999487 223.999764 " transform="matrix(3.779528,0,0,3.779528,0,0)"/>
<path style="fill:none;stroke-width:2;stroke-linecap:butt;stroke-linejoin:miter;stroke:rgb(0%,0%,0%);stroke-opacity:1;stroke-miterlimit:4;" d="M 82.500391 222.500114 L 66.500334 228.499748 L 50.500277 240.500049 L 52.500155 238.500171 L 80.500513 223.000342 " transform="matrix(3.779528,0,0,3.779528,0,0)"/>
<path style="fill:none;stroke-width:2;stroke-linecap:butt;stroke-linejoin:miter;stroke:rgb(0%,0%,0%);stroke-opacity:1;stroke-miterlimit:4;" d="M 46.499487 230.000431 L 30.999658 232.499504 L 14.999601 240.500049 L 3.499528 248.499561 L 29.500008 232.499504 " transform="matrix(3.779528,0,0,3.779528,0,0)"/>
<path style="fill:none;stroke-width:2;stroke-linecap:butt;stroke-linejoin:miter;stroke:rgb(0%,0%,0%);stroke-opacity:1;stroke-miterlimit:4;" d="M 28.000358 227.99952 L 1.49965 243.999577 L 17.999935 232.499504 L 33.999992 228.499748 L 50.500277 223.999764 " transform="matrix(3.779528,0,0,3.779528,0,0)"/>
<path style="fill:none;stroke-width:2;stroke-linecap:butt;stroke-linejoin:miter;stroke:rgb(0%,0%,0%);stroke-opacity:1;stroke-miterlimit:4;" d="M 22.499919 243.000155 L 34.50022 259.500439 L 48.000171 275.500496 " transform="matrix(3.779528,0,0,3.779528,0,0)"/>
<path style="fill:none;stroke-width:2;stroke-linecap:butt;stroke-linejoin:miter;stroke:rgb(0%,0%,0%);stroke-opacity:1;stroke-miterlimit:4;" d="M 38.499976 264.999845 L 22.499919 243.000155 " transform="matrix(3.779528,0,0,3.779528,0,0)"/>
<path style="fill:none;stroke-width:2;stroke-linecap:butt;stroke-linejoin:miter;stroke:rgb(0%,0%,0%);stroke-opacity:1;stroke-miterlimit:4;" d="M 19.000391 245.000033 L 35.000448 268.999601 " transform="matrix(3.779528,0,0,3.779528,0,0)"/>
<path style="fill:none;stroke-width:2;stroke-linecap:butt;stroke-linejoin:miter;stroke:rgb(0%,0%,0%);stroke-opacity:1;stroke-miterlimit:4;" d="M 17.999935 284.999658 L 1.999878 296.999959 " transform="matrix(3.779528,0,0,3.779528,0,0)"/>
<path style="fill:none;stroke-width:2;stroke-linecap:butt;stroke-linejoin:miter;stroke:rgb(0%,0%,0%);stroke-opacity:1;stroke-miterlimit:4;" d="M 1.999878 275.500496 L 17.999935 265.500073 L 1.999878 271.499707 L 26.00048 269.499829 L 12.000301 286.000114 L 10.000423 287.999992 L 25.500252 270.000057 " transform="matrix(3.779528,0,0,3.779528,0,0)"/>
<path style="fill:none;stroke-width:2;stroke-linecap:butt;stroke-linejoin:miter;stroke:rgb(0%,0%,0%);stroke-opacity:1;stroke-miterlimit:4;" d="M 18.500163 239.499593 L 22.499919 255.49965 L 35.499642 271.499707 L 26.00048 279.500252 L 5.999634 295.500309 L 19.999813 293.999626 L 44.000415 298.000415 " transform="matrix(3.779528,0,0,3.779528,0,0)"/>
<path style="fill:none;stroke-width:2;stroke-linecap:butt;stroke-linejoin:miter;stroke:rgb(0%,0%,0%);stroke-opacity:1;stroke-miterlimit:4;" d="M 317.5 189.999772 L 354.99952 182.00026 " transform="matrix(3.779528,0,0,3.779528,0,0)"/>
</g>
</svg>
