<?xml version="1.0" encoding="UTF-8"?>
<svg xmlns="http://www.w3.org/2000/svg" xmlns:xlink="http://www.w3.org/1999/xlink" width="1935.11811" height="1935.11811" viewBox="0 0 1935.11811 1935.11811" version="1.1">
<g id="surface1">
<path style="fill:none;stroke-width:2;stroke-linecap:butt;stroke-linejoin:miter;stroke:rgb(0%,0%,0%);stroke-opacity:1;stroke-miterlimit:4;" d="M 443.499544 88.500024 L 441.499666 100.500326 L 427.499487 126.499772 L 453.499967 146.499585 L 501.500138 159.000114 L 505.499894 155.000358 " transform="matrix(3.779528,0,0,3.779528,0,0)"/>
<path style="fill:none;stroke-width:2;stroke-linecap:butt;stroke-linejoin:miter;stroke:rgb(0%,0%,0%);stroke-opacity:1;stroke-miterlimit:4;" d="M 500.000488 175.000171 L 484.000431 168.999504 L 468.000374 162.99987 " transform="matrix(3.779528,0,0,3.779528,0,0)"/>
<path style="fill:none;stroke-width:2;stroke-linecap:butt;stroke-linejoin:miter;stroke:rgb(0%,0%,0%);stroke-opacity:1;stroke-miterlimit:4;" d="M 461.000285 207.000285 L 445.000228 212.999919 " transform="matrix(3.779528,0,0,3.779528,0,0)"/>
<path style="fill:none;stroke-width:2;stroke-linecap:butt;stroke-linejoin:miter;stroke:rgb(0%,0%,0%);stroke-opacity:1;stroke-miterlimit:4;" d="M 447.000106 213.500146 L 463.000163 213.500146 L 479.500448 212.000496 L 495.999699 209.999585 " transform="matrix(3.779528,0,0,3.779528,0,0)"/>
<path style="fill:none;stroke-width:2;stroke-linecap:butt;stroke-linejoin:miter;stroke:rgb(0%,0%,0%);stroke-opacity:1;stroke-miterlimit:4;" d="M 486.000309 250.000244 L 502.000366 250.500472 L 477.499536 274.500041 L 465.000041 278.499797 L 484.499626 270.000057 L 500.499683 268.500407 L 504.500472 260.499862 " transform="matrix(3.779528,0,0,3.779528,0,0)"/>
<path style="fill:none;stroke-width:2;stroke-linecap:butt;stroke-linejoin:miter;stroke:rgb(0%,0%,0%);stroke-opacity:1;stroke-miterlimit:4;" d="M 508 277.999569 L 491.999943 280.00048 " transform="matrix(3.779528,0,0,3.779528,0,0)"/>
<path style="fill:none;stroke-width:2;stroke-linecap:butt;stroke-linejoin:miter;stroke:rgb(0%,0%,0%);stroke-opacity:1;stroke-miterlimit:4;" d="M 478.499992 286.000114 L 478.499992 282.000358 L 480.49987 277.999569 L 484.499626 266.499495 " transform="matrix(3.779528,0,0,3.779528,0,0)"/>
<path style="fill:none;stroke-width:2;stroke-linecap:butt;stroke-linejoin:miter;stroke:rgb(0%,0%,0%);stroke-opacity:1;stroke-miterlimit:4;" d="M 508 286.500342 L 491.999943 288.50022 L 491.499715 294.499854 L 475.499658 298.499609 " transform="matrix(3.779528,0,0,3.779528,0,0)"/>
<path style="fill:none;stroke-width:2;stroke-linecap:butt;stroke-linejoin:miter;stroke:rgb(0%,0%,0%);stroke-opacity:1;stroke-miterlimit:4;" d="M 488.999609 311.500366 L 504.999666 305.999927 " transform="matrix(3.779528,0,0,3.779528,0,0)"/>
<path style="fill:none;stroke-width:2;stroke-linecap:butt;stroke-linejoin:miter;stroke:rgb(0%,0%,0%);stroke-opacity:1;stroke-miterlimit:4;" d="M 508 309.500488 L 506.000122 323.499634 L 490.000065 329.999495 L 474.000008 329.999495 " transform="matrix(3.779528,0,0,3.779528,0,0)"/>
<path style="fill:none;stroke-width:2;stroke-linecap:butt;stroke-linejoin:miter;stroke:rgb(0%,0%,0%);stroke-opacity:1;stroke-miterlimit:4;" d="M 471.499902 339.499691 L 487.499959 333.500057 L 504.000244 327.500423 " transform="matrix(3.779528,0,0,3.779528,0,0)"/>
<path style="fill:none;stroke-width:2;stroke-linecap:butt;stroke-linejoin:miter;stroke:rgb(0%,0%,0%);stroke-opacity:1;stroke-miterlimit:4;" d="M 490.000065 358.500081 L 473.49978 358.500081 L 473.49978 362.499837 L 474.000008 366.000399 " transform="matrix(3.779528,0,0,3.779528,0,0)"/>
<path style="fill:none;stroke-width:2;stroke-linecap:butt;stroke-linejoin:miter;stroke:rgb(0%,0%,0%);stroke-opacity:1;stroke-miterlimit:4;" d="M 475.499658 354.500326 L 491.499715 352.00022 L 506.999544 345.999552 L 490.500293 351.499992 L 493.999821 359.000309 " transform="matrix(3.779528,0,0,3.779528,0,0)"/>
<path style="fill:none;stroke-width:2;stroke-linecap:butt;stroke-linejoin:miter;stroke:rgb(0%,0%,0%);stroke-opacity:1;stroke-miterlimit:4;" d="M 470.999674 394.499951 L 470.999674 408.50013 " transform="matrix(3.779528,0,0,3.779528,0,0)"/>
<path style="fill:none;stroke-width:2;stroke-linecap:butt;stroke-linejoin:miter;stroke:rgb(0%,0%,0%);stroke-opacity:1;stroke-miterlimit:4;" d="M 481.500326 422.000081 L 491.499715 438.500366 " transform="matrix(3.779528,0,0,3.779528,0,0)"/>
<path style="fill:none;stroke-width:2;stroke-linecap:butt;stroke-linejoin:miter;stroke:rgb(0%,0%,0%);stroke-opacity:1;stroke-miterlimit:4;" d="M 490.500293 429.000171 L 506.50035 438.999561 " transform="matrix(3.779528,0,0,3.779528,0,0)"/>
<path style="fill:none;stroke-width:2;stroke-linecap:butt;stroke-linejoin:miter;stroke:rgb(0%,0%,0%);stroke-opacity:1;stroke-miterlimit:4;" d="M 502.499561 416.000448 L 486.499504 424.500187 " transform="matrix(3.779528,0,0,3.779528,0,0)"/>
<path style="fill:none;stroke-width:2;stroke-linecap:butt;stroke-linejoin:miter;stroke:rgb(0%,0%,0%);stroke-opacity:1;stroke-miterlimit:4;" d="M 488.000187 420.500431 L 503.500016 410.500008 " transform="matrix(3.779528,0,0,3.779528,0,0)"/>
<path style="fill:none;stroke-width:2;stroke-linecap:butt;stroke-linejoin:miter;stroke:rgb(0%,0%,0%);stroke-opacity:1;stroke-miterlimit:4;" d="M 495.500505 439.499788 L 479.500448 421.499854 L 463.500391 433.500155 L 470.000252 411.999658 L 479.999642 395.999601 L 488.000187 382.000456 L 480.49987 382.000456 L 462.499935 384.000334 L 452.99974 400.499585 L 468.999797 380.499772 L 467.500146 357.999854 L 451.50009 354.000098 " transform="matrix(3.779528,0,0,3.779528,0,0)"/>
<path style="fill:none;stroke-width:2;stroke-linecap:butt;stroke-linejoin:miter;stroke:rgb(0%,0%,0%);stroke-opacity:1;stroke-miterlimit:4;" d="M 414.999992 375.999788 L 398.999935 375.999788 L 373.499683 372.000033 L 351.499992 372.000033 L 336.000163 366.000399 L 320.000106 368.000277 " transform="matrix(3.779528,0,0,3.779528,0,0)"/>
<path style="fill:none;stroke-width:2;stroke-linecap:butt;stroke-linejoin:miter;stroke:rgb(0%,0%,0%);stroke-opacity:1;stroke-miterlimit:4;" d="M 314.000472 368.500505 L 314.000472 384.499528 " transform="matrix(3.779528,0,0,3.779528,0,0)"/>
<path style="fill:none;stroke-width:2;stroke-linecap:butt;stroke-linejoin:miter;stroke:rgb(0%,0%,0%);stroke-opacity:1;stroke-miterlimit:4;" d="M 310.49991 375.499561 L 310.49991 367.500049 L 294.499854 365.500171 " transform="matrix(3.779528,0,0,3.779528,0,0)"/>
<path style="fill:none;stroke-width:2;stroke-linecap:butt;stroke-linejoin:miter;stroke:rgb(0%,0%,0%);stroke-opacity:1;stroke-miterlimit:4;" d="M 275.000269 368.500505 L 277.000146 352.500448 L 277.000146 336.000163 L 271.000513 320.000106 L 268.999601 302.000171 L 262.49974 298.000415 " transform="matrix(3.779528,0,0,3.779528,0,0)"/>
<path style="fill:none;stroke-width:2;stroke-linecap:butt;stroke-linejoin:miter;stroke:rgb(0%,0%,0%);stroke-opacity:1;stroke-miterlimit:4;" d="M 261.999512 293.999626 L 278.499797 298.000415 L 294.499854 300.000293 L 298.499609 309.999683 L 289.99987 318.000228 " transform="matrix(3.779528,0,0,3.779528,0,0)"/>
<path style="fill:none;stroke-width:2;stroke-linecap:butt;stroke-linejoin:miter;stroke:rgb(0%,0%,0%);stroke-opacity:1;stroke-miterlimit:4;" d="M 280.499674 318.99965 L 296.499731 330.999951 " transform="matrix(3.779528,0,0,3.779528,0,0)"/>
<path style="fill:none;stroke-width:2;stroke-linecap:butt;stroke-linejoin:miter;stroke:rgb(0%,0%,0%);stroke-opacity:1;stroke-miterlimit:4;" d="M 300.499487 300.999715 L 316.499544 300.999715 L 332.999829 300.499487 L 349.500114 302.500399 L 354.000098 310.49991 L 357.999854 310.49991 L 358.500081 326.499967 L 362.499837 336.000163 L 378.499894 329.500301 L 382.000456 333.500057 L 398.000513 325.000317 L 413.999536 327.000195 " transform="matrix(3.779528,0,0,3.779528,0,0)"/>
<path style="fill:none;stroke-width:2;stroke-linecap:butt;stroke-linejoin:miter;stroke:rgb(0%,0%,0%);stroke-opacity:1;stroke-miterlimit:4;" d="M 418.49952 326.499967 L 418.999748 342.500024 L 418.999748 359.000309 " transform="matrix(3.779528,0,0,3.779528,0,0)"/>
<path style="fill:none;stroke-width:2;stroke-linecap:butt;stroke-linejoin:miter;stroke:rgb(0%,0%,0%);stroke-opacity:1;stroke-miterlimit:4;" d="M 409.499552 357.499626 L 409.499552 341.499569 " transform="matrix(3.779528,0,0,3.779528,0,0)"/>
<path style="fill:none;stroke-width:2;stroke-linecap:butt;stroke-linejoin:miter;stroke:rgb(0%,0%,0%);stroke-opacity:1;stroke-miterlimit:4;" d="M 393.000301 373.499683 L 381 381.500228 " transform="matrix(3.779528,0,0,3.779528,0,0)"/>
<path style="fill:none;stroke-width:2;stroke-linecap:butt;stroke-linejoin:miter;stroke:rgb(0%,0%,0%);stroke-opacity:1;stroke-miterlimit:4;" d="M 384.999756 373.499683 L 384.499528 389.999967 " transform="matrix(3.779528,0,0,3.779528,0,0)"/>
<path style="fill:none;stroke-width:2;stroke-linecap:butt;stroke-linejoin:miter;stroke:rgb(0%,0%,0%);stroke-opacity:1;stroke-miterlimit:4;" d="M 388.999512 415.50022 L 386.999634 431.500277 L 397.000057 447.500334 L 390.500195 463.500391 L 395.999601 479.00022 L 391.999845 495.000277 L 395.999601 511.000334 L 409.99978 501.500138 L 411.999658 491.999943 " transform="matrix(3.779528,0,0,3.779528,0,0)"/>
<path style="fill:none;stroke-width:2;stroke-linecap:butt;stroke-linejoin:miter;stroke:rgb(0%,0%,0%);stroke-opacity:1;stroke-miterlimit:4;" d="M 421.499854 488.000187 L 407.499674 504.000244 " transform="matrix(3.779528,0,0,3.779528,0,0)"/>
<path style="fill:none;stroke-width:2;stroke-linecap:butt;stroke-linejoin:miter;stroke:rgb(0%,0%,0%);stroke-opacity:1;stroke-miterlimit:4;" d="M 440.000016 509.000456 L 456.000073 506.999544 " transform="matrix(3.779528,0,0,3.779528,0,0)"/>
<path style="fill:none;stroke-width:2;stroke-linecap:butt;stroke-linejoin:miter;stroke:rgb(0%,0%,0%);stroke-opacity:1;stroke-miterlimit:4;" d="M 481.000098 493.000399 L 484.999854 509.49965 L 497.000155 511.499528 " transform="matrix(3.779528,0,0,3.779528,0,0)"/>
<path style="fill:none;stroke-width:2;stroke-linecap:butt;stroke-linejoin:miter;stroke:rgb(0%,0%,0%);stroke-opacity:1;stroke-miterlimit:4;" d="M 509.49965 495.500505 L 493.499593 477.499536 " transform="matrix(3.779528,0,0,3.779528,0,0)"/>
<path style="fill:none;stroke-width:2;stroke-linecap:butt;stroke-linejoin:miter;stroke:rgb(0%,0%,0%);stroke-opacity:1;stroke-miterlimit:4;" d="M 491.499715 476.500114 L 487.499959 492.500171 L 493.499593 508.500228 " transform="matrix(3.779528,0,0,3.779528,0,0)"/>
<path style="fill:none;stroke-width:2;stroke-linecap:butt;stroke-linejoin:miter;stroke:rgb(0%,0%,0%);stroke-opacity:1;stroke-miterlimit:4;" d="M 497.500382 490.500293 L 485.500081 478.499992 L 479.500448 476.500114 L 453.499967 470.50048 L 425.499609 492.500171 L 417.500098 506.50035 L 439.499788 492.500171 L 431.500277 484.499626 L 433.500155 468.499569 L 445.500456 454.500423 L 419.499976 450.499634 " transform="matrix(3.779528,0,0,3.779528,0,0)"/>
<path style="fill:none;stroke-width:2;stroke-linecap:butt;stroke-linejoin:miter;stroke:rgb(0%,0%,0%);stroke-opacity:1;stroke-miterlimit:4;" d="M 427.000293 448.999984 L 443.00035 452.99974 " transform="matrix(3.779528,0,0,3.779528,0,0)"/>
<path style="fill:none;stroke-width:2;stroke-linecap:butt;stroke-linejoin:miter;stroke:rgb(0%,0%,0%);stroke-opacity:1;stroke-miterlimit:4;" d="M 463.000163 441.999894 L 472.999552 425.999837 L 484.999854 409.499552 L 493.000399 393.499495 L 501.500138 377.000244 L 507.499772 361.500415 L 503.500016 351.499992 L 483.500203 345.500358 L 475.499658 341.999797 L 475.499658 338.000041 L 473.49978 349.500114 L 454.999618 363.500293 L 463.500391 345.500358 L 463.999585 341.499569 L 463.999585 338.000041 L 448.499756 348.499658 L 450.499634 325.000317 L 448.999984 302.999593 L 452.99974 286.500342 L 450.999862 268.500407 L 450.999862 246.499683 " transform="matrix(3.779528,0,0,3.779528,0,0)"/>
<path style="fill:none;stroke-width:2;stroke-linecap:butt;stroke-linejoin:miter;stroke:rgb(0%,0%,0%);stroke-opacity:1;stroke-miterlimit:4;" d="M 446.499878 236.999487 L 462.499935 227.000098 L 452.99974 241.500505 L 456.999495 255.49965 L 461.500513 261.999512 L 477.499536 258.499984 L 493.499593 258.499984 L 509.999878 255.000456 " transform="matrix(3.779528,0,0,3.779528,0,0)"/>
<path style="fill:none;stroke-width:2;stroke-linecap:butt;stroke-linejoin:miter;stroke:rgb(0%,0%,0%);stroke-opacity:1;stroke-miterlimit:4;" d="M 499.50026 295.999504 L 484.000431 298.000415 L 479.999642 305.999927 L 460.500057 317.5 L 464.499813 305.499699 L 447.999528 307.499577 " transform="matrix(3.779528,0,0,3.779528,0,0)"/>
<path style="fill:none;stroke-width:2;stroke-linecap:butt;stroke-linejoin:miter;stroke:rgb(0%,0%,0%);stroke-opacity:1;stroke-miterlimit:4;" d="M 422.999504 268.999601 L 416.99987 253.499772 L 416.99987 221.999886 L 415.50022 206.500057 L 413.999536 190.5 L 411.999658 175.000171 L 393.999723 171.000415 " transform="matrix(3.779528,0,0,3.779528,0,0)"/>
<path style="fill:none;stroke-width:2;stroke-linecap:butt;stroke-linejoin:miter;stroke:rgb(0%,0%,0%);stroke-opacity:1;stroke-miterlimit:4;" d="M 388.999512 168.000081 L 404.999569 166.000203 L 421.499854 171.999837 L 437.49991 182.00026 L 453.499967 193.999528 " transform="matrix(3.779528,0,0,3.779528,0,0)"/>
<path style="fill:none;stroke-width:2;stroke-linecap:butt;stroke-linejoin:miter;stroke:rgb(0%,0%,0%);stroke-opacity:1;stroke-miterlimit:4;" d="M 409.99978 191.000228 L 407.999902 207.000285 L 405.499797 228.999976 L 405.499797 245.000033 L 403.499919 266.999723 L 407.499674 266.999723 L 411.000236 266.499495 L 414.999992 272.500163 " transform="matrix(3.779528,0,0,3.779528,0,0)"/>
<path style="fill:none;stroke-width:2;stroke-linecap:butt;stroke-linejoin:miter;stroke:rgb(0%,0%,0%);stroke-opacity:1;stroke-miterlimit:4;" d="M 411.000236 240.500049 L 411.000236 224.499992 L 404.999569 212.499691 " transform="matrix(3.779528,0,0,3.779528,0,0)"/>
<path style="fill:none;stroke-width:2;stroke-linecap:butt;stroke-linejoin:miter;stroke:rgb(0%,0%,0%);stroke-opacity:1;stroke-miterlimit:4;" d="M 411.500464 173.000293 L 427.499487 180.999805 L 443.499544 191.500456 L 459.999829 199.499967 L 474.000008 221.999886 L 506.000122 221.999886 L 509.49965 234.000187 " transform="matrix(3.779528,0,0,3.779528,0,0)"/>
<path style="fill:none;stroke-width:2;stroke-linecap:butt;stroke-linejoin:miter;stroke:rgb(0%,0%,0%);stroke-opacity:1;stroke-miterlimit:4;" d="M 509.000456 112.999821 L 493.499593 110.999943 " transform="matrix(3.779528,0,0,3.779528,0,0)"/>
<path style="fill:none;stroke-width:2;stroke-linecap:butt;stroke-linejoin:miter;stroke:rgb(0%,0%,0%);stroke-opacity:1;stroke-miterlimit:4;" d="M 507.499772 105.999731 L 505.499894 96.000342 L 489.499837 96.000342 " transform="matrix(3.779528,0,0,3.779528,0,0)"/>
<path style="fill:none;stroke-width:2;stroke-linecap:butt;stroke-linejoin:miter;stroke:rgb(0%,0%,0%);stroke-opacity:1;stroke-miterlimit:4;" d="M 487.499959 94.999886 L 479.500448 110.999943 L 493.499593 132.999634 L 501.500138 141.500407 L 509.999878 157.999658 " transform="matrix(3.779528,0,0,3.779528,0,0)"/>
<path style="fill:none;stroke-width:2;stroke-linecap:butt;stroke-linejoin:miter;stroke:rgb(0%,0%,0%);stroke-opacity:1;stroke-miterlimit:4;" d="M 490.000065 148.500496 L 474.500236 148.000269 L 459.000407 139.999723 L 447.000106 134.00009 L 431.500277 132.500439 " transform="matrix(3.779528,0,0,3.779528,0,0)"/>
<path style="fill:none;stroke-width:2;stroke-linecap:butt;stroke-linejoin:miter;stroke:rgb(0%,0%,0%);stroke-opacity:1;stroke-miterlimit:4;" d="M 426.500065 124.499894 L 442.500122 122.500016 " transform="matrix(3.779528,0,0,3.779528,0,0)"/>
<path style="fill:none;stroke-width:2;stroke-linecap:butt;stroke-linejoin:miter;stroke:rgb(0%,0%,0%);stroke-opacity:1;stroke-miterlimit:4;" d="M 409.499552 110.499715 L 425.499609 108.499837 L 441.499666 100.000098 L 457.499723 101.999976 L 473.49978 93.500236 L 477.499536 100.000098 L 461.500513 109.500293 L 489.499837 105.499504 L 487.499959 121.499561 L 483.500203 137.499618 L 489.499837 137.499618 L 493.499593 159.500342 L 501.500138 163.500098 " transform="matrix(3.779528,0,0,3.779528,0,0)"/>
<path style="fill:none;stroke-width:2;stroke-linecap:butt;stroke-linejoin:miter;stroke:rgb(0%,0%,0%);stroke-opacity:1;stroke-miterlimit:4;" d="M 506.000122 159.500342 L 489.499837 157.500464 L 473.49978 150.999569 L 456.999495 145.500163 L 448.999984 153.499674 L 433.500155 145.500163 L 417.500098 145.500163 L 411.500464 130.000334 L 388.999512 114.500505 L 397.500285 108.499837 " transform="matrix(3.779528,0,0,3.779528,0,0)"/>
<path style="fill:none;stroke-width:2;stroke-linecap:butt;stroke-linejoin:miter;stroke:rgb(0%,0%,0%);stroke-opacity:1;stroke-miterlimit:4;" d="M 393.999723 116.000155 L 410.500008 128.000456 L 428.499943 118.000033 L 444.5 114.000277 L 462.499935 118.000033 L 474.000008 107.500415 L 481.99952 105.999731 L 491.999943 109.999487 L 491.999943 125.999544 L 508 135.999967 " transform="matrix(3.779528,0,0,3.779528,0,0)"/>
<path style="fill:none;stroke-width:2;stroke-linecap:butt;stroke-linejoin:miter;stroke:rgb(0%,0%,0%);stroke-opacity:1;stroke-miterlimit:4;" d="M 505.499894 90.499902 L 489.499837 92.49978 L 473.49978 88.500024 L 456.999495 85.999919 L 441.000472 89.999674 L 425.000415 101.999976 L 409.499552 103.499626 L 393.499495 103.499626 L 366.999821 115.499927 L 357.499626 114.000277 L 345.500358 107.999609 L 329.500301 109.999487 " transform="matrix(3.779528,0,0,3.779528,0,0)"/>
<path style="fill:none;stroke-width:2;stroke-linecap:butt;stroke-linejoin:miter;stroke:rgb(0%,0%,0%);stroke-opacity:1;stroke-miterlimit:4;" d="M 334.000285 107.500415 L 359.999731 123.500472 L 405.499797 139.499495 L 429.500399 151.499797 L 443.499544 171.499609 L 470.000252 178.000505 L 508 193.500334 " transform="matrix(3.779528,0,0,3.779528,0,0)"/>
<path style="fill:none;stroke-width:2;stroke-linecap:butt;stroke-linejoin:miter;stroke:rgb(0%,0%,0%);stroke-opacity:1;stroke-miterlimit:4;" d="M 506.999544 281.50013 L 500.99991 273.999813 L 484.999854 273.999813 L 482.999976 262.49974 L 466.999919 266.499495 L 465.000041 274.500041 L 461.000285 282.499552 L 459.000407 294.499854 L 431.000049 304.500277 L 414.999992 307.000382 L 398.999935 305.000505 L 383.500106 305.000505 L 368.000277 302.999593 L 343.999674 307.000382 L 328.499845 307.000382 L 312.499788 305.000505 " transform="matrix(3.779528,0,0,3.779528,0,0)"/>
<path style="fill:none;stroke-width:2;stroke-linecap:butt;stroke-linejoin:miter;stroke:rgb(0%,0%,0%);stroke-opacity:1;stroke-miterlimit:4;" d="M 311.999561 303.499821 L 314.499666 319.499878 " transform="matrix(3.779528,0,0,3.779528,0,0)"/>
<path style="fill:none;stroke-width:2;stroke-linecap:butt;stroke-linejoin:miter;stroke:rgb(0%,0%,0%);stroke-opacity:1;stroke-miterlimit:4;" d="M 314.000472 333.500057 L 310.49991 317.5 L 304.500277 300.999715 " transform="matrix(3.779528,0,0,3.779528,0,0)"/>
<path style="fill:none;stroke-width:2;stroke-linecap:butt;stroke-linejoin:miter;stroke:rgb(0%,0%,0%);stroke-opacity:1;stroke-miterlimit:4;" d="M 317.5 271.999935 L 325.499512 270.000057 L 329.999495 270.000057 L 319.499878 254 L 311.500366 237.999943 L 298.999837 221.999886 L 290.500098 206.500057 L 296.499731 190.5 L 307.999805 174.499943 L 316.00035 190.5 L 299.500065 202.500301 " transform="matrix(3.779528,0,0,3.779528,0,0)"/>
<path style="fill:none;stroke-width:2;stroke-linecap:butt;stroke-linejoin:miter;stroke:rgb(0%,0%,0%);stroke-opacity:1;stroke-miterlimit:4;" d="M 295.000081 203.499723 L 311.000138 207.500513 L 326.499967 207.500513 L 341.999797 207.000285 L 357.999854 212.999919 L 357.999854 229.500203 L 357.499626 245.000033 L 359.000309 261.00009 L 354.99952 277.000146 L 350.499536 277.000146 " transform="matrix(3.779528,0,0,3.779528,0,0)"/>
<path style="fill:none;stroke-width:2;stroke-linecap:butt;stroke-linejoin:miter;stroke:rgb(0%,0%,0%);stroke-opacity:1;stroke-miterlimit:4;" d="M 359.499504 279.000024 L 359.499504 262.999967 " transform="matrix(3.779528,0,0,3.779528,0,0)"/>
<path style="fill:none;stroke-width:2;stroke-linecap:butt;stroke-linejoin:miter;stroke:rgb(0%,0%,0%);stroke-opacity:1;stroke-miterlimit:4;" d="M 371.499805 259.500439 L 373.499683 275.500496 " transform="matrix(3.779528,0,0,3.779528,0,0)"/>
<path style="fill:none;stroke-width:2;stroke-linecap:butt;stroke-linejoin:miter;stroke:rgb(0%,0%,0%);stroke-opacity:1;stroke-miterlimit:4;" d="M 376.500016 280.00048 L 386.999634 264.000423 L 374.500138 264.000423 " transform="matrix(3.779528,0,0,3.779528,0,0)"/>
<path style="fill:none;stroke-width:2;stroke-linecap:butt;stroke-linejoin:miter;stroke:rgb(0%,0%,0%);stroke-opacity:1;stroke-miterlimit:4;" d="M 340.500146 263.500195 L 338.500269 279.500252 " transform="matrix(3.779528,0,0,3.779528,0,0)"/>
<path style="fill:none;stroke-width:2;stroke-linecap:butt;stroke-linejoin:miter;stroke:rgb(0%,0%,0%);stroke-opacity:1;stroke-miterlimit:4;" d="M 373.000488 309.500488 L 388.999512 309.00026 L 406.500252 313.000016 L 404.500374 329.000073 L 404.500374 360.499959 L 398.499707 382.000456 L 402.999691 384.499528 L 409.000358 386.000212 L 414.999992 388.00009 L 412.499886 396.499829 " transform="matrix(3.779528,0,0,3.779528,0,0)"/>
<path style="fill:none;stroke-width:2;stroke-linecap:butt;stroke-linejoin:miter;stroke:rgb(0%,0%,0%);stroke-opacity:1;stroke-miterlimit:4;" d="M 424.500187 409.000358 L 428.499943 393.000301 L 426.500065 372.50026 L 411.000236 370.500382 L 393.000301 370.000155 L 361.000187 366.000399 L 345.00013 363.999487 L 329.000073 361.999609 L 313.000016 363.500293 L 296.999959 359.499504 L 281.50013 357.499626 L 261.00009 355.999976 L 250.999666 382.000456 L 246.99991 382.000456 L 243.000155 366.000399 L 255.000456 354.000098 L 252.999544 338.500269 L 252.999544 322.500212 L 250.999666 306.500155 L 252.999544 290.500098 L 259.500439 270.500285 L 263.500195 254.500228 L 257.999756 252.000122 L 254.500228 236.000065 L 252.999544 220.000008 L 255.000456 203.999951 L 259.000212 187.999894 L 264.999845 172.500065 L 261.00009 174.499943 " transform="matrix(3.779528,0,0,3.779528,0,0)"/>
<path style="fill:none;stroke-width:2;stroke-linecap:butt;stroke-linejoin:miter;stroke:rgb(0%,0%,0%);stroke-opacity:1;stroke-miterlimit:4;" d="M 264.499618 176.499821 L 264.499618 192.499878 L 266.499495 208.499935 L 258.499984 210.499813 L 266.499495 216.50048 L 258.499984 232.499504 L 264.999845 234.500415 L 262.49974 209.999585 " transform="matrix(3.779528,0,0,3.779528,0,0)"/>
<path style="fill:none;stroke-width:2;stroke-linecap:butt;stroke-linejoin:miter;stroke:rgb(0%,0%,0%);stroke-opacity:1;stroke-miterlimit:4;" d="M 290.500098 204.500179 L 306.500155 176.499821 L 323.000439 166.500431 L 345.00013 164.49952 L 363.000065 180.499577 L 375.000366 196.499634 L 379.000122 214.499569 L 378.499894 204.500179 L 384.499528 214.499569 " transform="matrix(3.779528,0,0,3.779528,0,0)"/>
<path style="fill:none;stroke-width:2;stroke-linecap:butt;stroke-linejoin:miter;stroke:rgb(0%,0%,0%);stroke-opacity:1;stroke-miterlimit:4;" d="M 391.999845 187.999894 L 393.999723 171.999837 L 372.000033 173.999715 " transform="matrix(3.779528,0,0,3.779528,0,0)"/>
<path style="fill:none;stroke-width:2;stroke-linecap:butt;stroke-linejoin:miter;stroke:rgb(0%,0%,0%);stroke-opacity:1;stroke-miterlimit:4;" d="M 368.000277 177.000049 L 384.000334 193.000106 " transform="matrix(3.779528,0,0,3.779528,0,0)"/>
<path style="fill:none;stroke-width:2;stroke-linecap:butt;stroke-linejoin:miter;stroke:rgb(0%,0%,0%);stroke-opacity:1;stroke-miterlimit:4;" d="M 369.499927 188.500122 L 353.49987 171.000415 L 337.499813 160.499764 L 321.999984 154.50013 L 305.999927 148.500496 L 290.500098 156.500008 " transform="matrix(3.779528,0,0,3.779528,0,0)"/>
<path style="fill:none;stroke-width:2;stroke-linecap:butt;stroke-linejoin:miter;stroke:rgb(0%,0%,0%);stroke-opacity:1;stroke-miterlimit:4;" d="M 309.500488 148.500496 L 289.499642 150.500374 L 257.499528 164.49952 L 231.500081 180.499577 L 211.500269 196.499634 L 215.500024 200.000195 " transform="matrix(3.779528,0,0,3.779528,0,0)"/>
<path style="fill:none;stroke-width:2;stroke-linecap:butt;stroke-linejoin:miter;stroke:rgb(0%,0%,0%);stroke-opacity:1;stroke-miterlimit:4;" d="M 218.00013 191.500456 L 234.000187 184.999561 L 250.000244 175.500399 L 266.000301 165.499976 L 282.499552 164.000326 L 276.499919 186.000016 L 276.499919 202.000073 L 278.499797 217.499902 L 278.499797 249.500016 L 280.00048 266.000301 L 280.00048 255.999878 L 295.999504 257.999756 L 311.999561 255.999878 L 329.999495 257.499528 L 345.999552 249.500016 L 370.000155 257.499528 L 386.500439 257.999756 L 402.500496 257.999756 L 404.999569 264.000423 L 414.999992 263.500195 L 431.000049 264.000423 L 430.499821 277.500374 L 432.499699 293.500431 " transform="matrix(3.779528,0,0,3.779528,0,0)"/>
<path style="fill:none;stroke-width:2;stroke-linecap:butt;stroke-linejoin:miter;stroke:rgb(0%,0%,0%);stroke-opacity:1;stroke-miterlimit:4;" d="M 325.000317 257.499528 L 309.00026 234.000187 L 293.000203 212.000496 " transform="matrix(3.779528,0,0,3.779528,0,0)"/>
<path style="fill:none;stroke-width:2;stroke-linecap:butt;stroke-linejoin:miter;stroke:rgb(0%,0%,0%);stroke-opacity:1;stroke-miterlimit:4;" d="M 298.999837 211.500269 L 314.999894 233.499959 " transform="matrix(3.779528,0,0,3.779528,0,0)"/>
<path style="fill:none;stroke-width:2;stroke-linecap:butt;stroke-linejoin:miter;stroke:rgb(0%,0%,0%);stroke-opacity:1;stroke-miterlimit:4;" d="M 336.999585 229.500203 L 336.999585 214.000374 " transform="matrix(3.779528,0,0,3.779528,0,0)"/>
<path style="fill:none;stroke-width:2;stroke-linecap:butt;stroke-linejoin:miter;stroke:rgb(0%,0%,0%);stroke-opacity:1;stroke-miterlimit:4;" d="M 337.499813 212.499691 L 333.500057 228.499748 L 333.500057 244.499805 L 341.499569 262.49974 " transform="matrix(3.779528,0,0,3.779528,0,0)"/>
<path style="fill:none;stroke-width:2;stroke-linecap:butt;stroke-linejoin:miter;stroke:rgb(0%,0%,0%);stroke-opacity:1;stroke-miterlimit:4;" d="M 303.499821 273.999813 L 311.500366 271.999935 L 320.000106 264.000423 L 306.500155 261.999512 L 289.99987 262.49974 " transform="matrix(3.779528,0,0,3.779528,0,0)"/>
<path style="fill:none;stroke-width:2;stroke-linecap:butt;stroke-linejoin:miter;stroke:rgb(0%,0%,0%);stroke-opacity:1;stroke-miterlimit:4;" d="M 273.000391 305.499699 L 289.000448 311.500366 L 280.999902 327.500423 L 280.999902 378.499894 L 291.000326 379.000122 L 296.499731 379.000122 L 300.499487 391.000423 L 318.500456 390.500195 L 334.500513 392.500073 " transform="matrix(3.779528,0,0,3.779528,0,0)"/>
<path style="fill:none;stroke-width:2;stroke-linecap:butt;stroke-linejoin:miter;stroke:rgb(0%,0%,0%);stroke-opacity:1;stroke-miterlimit:4;" d="M 343.000252 383.500106 L 339.000496 368.000277 " transform="matrix(3.779528,0,0,3.779528,0,0)"/>
<path style="fill:none;stroke-width:2;stroke-linecap:butt;stroke-linejoin:miter;stroke:rgb(0%,0%,0%);stroke-opacity:1;stroke-miterlimit:4;" d="M 332.000407 360.499959 L 357.999854 375.000366 L 353.49987 391.000423 L 371.499805 398.499707 L 387.499862 394.499951 L 403.499919 393.999723 " transform="matrix(3.779528,0,0,3.779528,0,0)"/>
<path style="fill:none;stroke-width:2;stroke-linecap:butt;stroke-linejoin:miter;stroke:rgb(0%,0%,0%);stroke-opacity:1;stroke-miterlimit:4;" d="M 426.500065 403.499919 L 418.000326 397.000057 L 402.000269 398.999935 L 386.000212 397.000057 L 364.499715 391.499618 L 348.999886 393.999723 L 347.500236 388.00009 L 329.500301 386.500439 L 309.00026 386.000212 L 292.499976 384.000334 L 284.000236 381.500228 L 269.499829 385.499984 L 263.500195 382.999878 L 247.500138 366.999821 L 259.500439 345.500358 L 259.500439 329.500301 L 257.000334 313.500244 L 241.000277 297.500187 L 236.999487 291.49952 L 229.500203 305.499699 L 223.999764 301.499943 L 220.000008 311.500366 L 216.000252 303.499821 L 218.500358 287.499764 L 216.999674 271.999935 L 217.499902 255.999878 L 223.499536 252.000122 L 203.999951 236.000065 " transform="matrix(3.779528,0,0,3.779528,0,0)"/>
<path style="fill:none;stroke-width:2;stroke-linecap:butt;stroke-linejoin:miter;stroke:rgb(0%,0%,0%);stroke-opacity:1;stroke-miterlimit:4;" d="M 203.499723 244.499805 L 205.000407 232.499504 L 221.000464 226.49987 " transform="matrix(3.779528,0,0,3.779528,0,0)"/>
<path style="fill:none;stroke-width:2;stroke-linecap:butt;stroke-linejoin:miter;stroke:rgb(0%,0%,0%);stroke-opacity:1;stroke-miterlimit:4;" d="M 235.499837 253.499772 L 220.000008 259.999634 " transform="matrix(3.779528,0,0,3.779528,0,0)"/>
<path style="fill:none;stroke-width:2;stroke-linecap:butt;stroke-linejoin:miter;stroke:rgb(0%,0%,0%);stroke-opacity:1;stroke-miterlimit:4;" d="M 223.999764 270.000057 L 207.999707 266.000301 L 204.500179 270.500285 " transform="matrix(3.779528,0,0,3.779528,0,0)"/>
<path style="fill:none;stroke-width:2;stroke-linecap:butt;stroke-linejoin:miter;stroke:rgb(0%,0%,0%);stroke-opacity:1;stroke-miterlimit:4;" d="M 205.499601 297.500187 L 211.500269 283.500008 L 213.500146 291.000326 L 230.000431 295.000081 " transform="matrix(3.779528,0,0,3.779528,0,0)"/>
<path style="fill:none;stroke-width:2;stroke-linecap:butt;stroke-linejoin:miter;stroke:rgb(0%,0%,0%);stroke-opacity:1;stroke-miterlimit:4;" d="M 201.499845 308.500033 L 217.499902 323.999862 " transform="matrix(3.779528,0,0,3.779528,0,0)"/>
<path style="fill:none;stroke-width:2;stroke-linecap:butt;stroke-linejoin:miter;stroke:rgb(0%,0%,0%);stroke-opacity:1;stroke-miterlimit:4;" d="M 207.999707 329.500301 L 198.499512 327.000195 L 182.500488 332.999829 " transform="matrix(3.779528,0,0,3.779528,0,0)"/>
<path style="fill:none;stroke-width:2;stroke-linecap:butt;stroke-linejoin:miter;stroke:rgb(0%,0%,0%);stroke-opacity:1;stroke-miterlimit:4;" d="M 172.500065 345.00013 L 187.999894 343.000252 L 203.999951 343.50048 L 220.000008 339.499691 L 225.999642 343.50048 L 212.000496 359.499504 L 209.999585 375.499561 L 214.499569 391.999845 L 216.50048 398.499707 L 204.500179 416.499642 L 218.00013 416.499642 L 222.500114 422.000081 L 212.000496 441.999894 L 225.500448 466.000496 L 223.499536 481.99952 L 225.00022 497.999577 L 236.999487 495.999699 L 252.50035 500.499683 L 268.500407 504.999666 L 284.500464 506.999544 " transform="matrix(3.779528,0,0,3.779528,0,0)"/>
<path style="fill:none;stroke-width:2;stroke-linecap:butt;stroke-linejoin:miter;stroke:rgb(0%,0%,0%);stroke-opacity:1;stroke-miterlimit:4;" d="M 300.000293 501.500138 L 300.000293 486.000309 L 282.000358 461.500513 L 280.00048 445.500456 L 255.999878 421.499854 L 246.000488 407.499674 L 230.000431 411.500464 " transform="matrix(3.779528,0,0,3.779528,0,0)"/>
<path style="fill:none;stroke-width:2;stroke-linecap:butt;stroke-linejoin:miter;stroke:rgb(0%,0%,0%);stroke-opacity:1;stroke-miterlimit:4;" d="M 226.49987 411.500464 L 242.499927 403.499919 L 252.999544 413.000114 " transform="matrix(3.779528,0,0,3.779528,0,0)"/>
<path style="fill:none;stroke-width:2;stroke-linecap:butt;stroke-linejoin:miter;stroke:rgb(0%,0%,0%);stroke-opacity:1;stroke-miterlimit:4;" d="M 254 413.500342 L 270.000057 419.499976 " transform="matrix(3.779528,0,0,3.779528,0,0)"/>
<path style="fill:none;stroke-width:2;stroke-linecap:butt;stroke-linejoin:miter;stroke:rgb(0%,0%,0%);stroke-opacity:1;stroke-miterlimit:4;" d="M 277.999569 440.000016 L 261.999512 438.000138 L 243.999577 436.00026 L 227.500326 433.500155 L 211.500269 429.500399 L 199.499967 427.499487 L 184.000138 425.000415 " transform="matrix(3.779528,0,0,3.779528,0,0)"/>
<path style="fill:none;stroke-width:2;stroke-linecap:butt;stroke-linejoin:miter;stroke:rgb(0%,0%,0%);stroke-opacity:1;stroke-miterlimit:4;" d="M 180.499577 424.500187 L 196.499634 422.500309 L 210.499813 434.499577 L 223.999764 430.499821 L 256.500106 430.499821 " transform="matrix(3.779528,0,0,3.779528,0,0)"/>
<path style="fill:none;stroke-width:2;stroke-linecap:butt;stroke-linejoin:miter;stroke:rgb(0%,0%,0%);stroke-opacity:1;stroke-miterlimit:4;" d="M 252.999544 436.500488 L 255.000456 452.499512 " transform="matrix(3.779528,0,0,3.779528,0,0)"/>
<path style="fill:none;stroke-width:2;stroke-linecap:butt;stroke-linejoin:miter;stroke:rgb(0%,0%,0%);stroke-opacity:1;stroke-miterlimit:4;" d="M 262.49974 441.999894 L 270.500285 457.999951 " transform="matrix(3.779528,0,0,3.779528,0,0)"/>
<path style="fill:none;stroke-width:2;stroke-linecap:butt;stroke-linejoin:miter;stroke:rgb(0%,0%,0%);stroke-opacity:1;stroke-miterlimit:4;" d="M 286.999536 463.000163 L 286.999536 447.000106 " transform="matrix(3.779528,0,0,3.779528,0,0)"/>
<path style="fill:none;stroke-width:2;stroke-linecap:butt;stroke-linejoin:miter;stroke:rgb(0%,0%,0%);stroke-opacity:1;stroke-miterlimit:4;" d="M 293.500431 444.5 L 293.000203 460.500057 " transform="matrix(3.779528,0,0,3.779528,0,0)"/>
<path style="fill:none;stroke-width:2;stroke-linecap:butt;stroke-linejoin:miter;stroke:rgb(0%,0%,0%);stroke-opacity:1;stroke-miterlimit:4;" d="M 298.999837 462.499935 L 296.999959 446.499878 " transform="matrix(3.779528,0,0,3.779528,0,0)"/>
<path style="fill:none;stroke-width:2;stroke-linecap:butt;stroke-linejoin:miter;stroke:rgb(0%,0%,0%);stroke-opacity:1;stroke-miterlimit:4;" d="M 302.000171 445.500456 L 318.000228 452.99974 L 323.999862 468.999797 L 339.499691 482.999976 L 355.499748 484.999854 L 371.499805 486.499504 " transform="matrix(3.779528,0,0,3.779528,0,0)"/>
<path style="fill:none;stroke-width:2;stroke-linecap:butt;stroke-linejoin:miter;stroke:rgb(0%,0%,0%);stroke-opacity:1;stroke-miterlimit:4;" d="M 370.999577 472.999552 L 366.999821 456.999495 L 367.500049 454.999618 " transform="matrix(3.779528,0,0,3.779528,0,0)"/>
<path style="fill:none;stroke-width:2;stroke-linecap:butt;stroke-linejoin:miter;stroke:rgb(0%,0%,0%);stroke-opacity:1;stroke-miterlimit:4;" d="M 373.000488 457.999951 L 381 473.49978 " transform="matrix(3.779528,0,0,3.779528,0,0)"/>
<path style="fill:none;stroke-width:2;stroke-linecap:butt;stroke-linejoin:miter;stroke:rgb(0%,0%,0%);stroke-opacity:1;stroke-miterlimit:4;" d="M 363.999487 471.499902 L 357.499626 455.499845 L 341.000374 450.999862 " transform="matrix(3.779528,0,0,3.779528,0,0)"/>
<path style="fill:none;stroke-width:2;stroke-linecap:butt;stroke-linejoin:miter;stroke:rgb(0%,0%,0%);stroke-opacity:1;stroke-miterlimit:4;" d="M 335.499935 452.000317 L 339.499691 467.500146 " transform="matrix(3.779528,0,0,3.779528,0,0)"/>
<path style="fill:none;stroke-width:2;stroke-linecap:butt;stroke-linejoin:miter;stroke:rgb(0%,0%,0%);stroke-opacity:1;stroke-miterlimit:4;" d="M 329.000073 457.499723 L 314.999894 447.500334 " transform="matrix(3.779528,0,0,3.779528,0,0)"/>
<path style="fill:none;stroke-width:2;stroke-linecap:butt;stroke-linejoin:miter;stroke:rgb(0%,0%,0%);stroke-opacity:1;stroke-miterlimit:4;" d="M 313.500244 444.5 L 329.500301 448.499756 L 345.500358 450.999862 L 341.499569 456.999495 L 345.500358 472.999552 " transform="matrix(3.779528,0,0,3.779528,0,0)"/>
<path style="fill:none;stroke-width:2;stroke-linecap:butt;stroke-linejoin:miter;stroke:rgb(0%,0%,0%);stroke-opacity:1;stroke-miterlimit:4;" d="M 358.500081 472.00013 L 354.500326 456.500301 " transform="matrix(3.779528,0,0,3.779528,0,0)"/>
<path style="fill:none;stroke-width:2;stroke-linecap:butt;stroke-linejoin:miter;stroke:rgb(0%,0%,0%);stroke-opacity:1;stroke-miterlimit:4;" d="M 348.499658 452.99974 L 350.499536 468.499569 " transform="matrix(3.779528,0,0,3.779528,0,0)"/>
<path style="fill:none;stroke-width:2;stroke-linecap:butt;stroke-linejoin:miter;stroke:rgb(0%,0%,0%);stroke-opacity:1;stroke-miterlimit:4;" d="M 336.000163 467.500146 L 332.000407 451.50009 " transform="matrix(3.779528,0,0,3.779528,0,0)"/>
<path style="fill:none;stroke-width:2;stroke-linecap:butt;stroke-linejoin:miter;stroke:rgb(0%,0%,0%);stroke-opacity:1;stroke-miterlimit:4;" d="M 320.500334 447.000106 L 326.499967 463.000163 L 318.500456 479.00022 L 324.50009 495.500505 L 325.000317 511.000334 " transform="matrix(3.779528,0,0,3.779528,0,0)"/>
<path style="fill:none;stroke-width:2;stroke-linecap:butt;stroke-linejoin:miter;stroke:rgb(0%,0%,0%);stroke-opacity:1;stroke-miterlimit:4;" d="M 277.500374 509.49965 L 244.499805 501.500138 L 239.999821 497.500382 L 228.499748 481.500326 L 220.500236 454.999618 L 221.000464 438.999561 L 217.499902 438.999561 L 196.000439 431.000049 L 180.000382 431.000049 L 164.000326 428.499943 L 148.500496 427.000293 L 132.500439 423.499731 L 116.500382 420.999626 " transform="matrix(3.779528,0,0,3.779528,0,0)"/>
<path style="fill:none;stroke-width:2;stroke-linecap:butt;stroke-linejoin:miter;stroke:rgb(0%,0%,0%);stroke-opacity:1;stroke-miterlimit:4;" d="M 119.99991 424.500187 L 125.999544 440.000016 L 131.499984 456.500301 L 137.499618 472.500358 L 152.000024 470.50048 L 168.500309 458.500179 L 184.500366 460.500057 " transform="matrix(3.779528,0,0,3.779528,0,0)"/>
<path style="fill:none;stroke-width:2;stroke-linecap:butt;stroke-linejoin:miter;stroke:rgb(0%,0%,0%);stroke-opacity:1;stroke-miterlimit:4;" d="M 197.50009 454.000195 L 195.500212 438.000138 " transform="matrix(3.779528,0,0,3.779528,0,0)"/>
<path style="fill:none;stroke-width:2;stroke-linecap:butt;stroke-linejoin:miter;stroke:rgb(0%,0%,0%);stroke-opacity:1;stroke-miterlimit:4;" d="M 192.499878 436.999683 L 194.499756 444.5 L 202.500301 464.499813 L 207.999707 479.999642 " transform="matrix(3.779528,0,0,3.779528,0,0)"/>
<path style="fill:none;stroke-width:2;stroke-linecap:butt;stroke-linejoin:miter;stroke:rgb(0%,0%,0%);stroke-opacity:1;stroke-miterlimit:4;" d="M 212.999919 493.499593 L 212.999919 477.499536 L 214.999797 457.499723 L 209.000163 441.499666 L 202.500301 441.499666 L 184.500366 425.000415 L 180.000382 409.499552 L 175.999593 393.999723 L 176.499821 377.999666 L 175.000171 361.500415 L 162.99987 339.499691 L 147.500041 337.499813 L 144.999935 333.500057 " transform="matrix(3.779528,0,0,3.779528,0,0)"/>
<path style="fill:none;stroke-width:2;stroke-linecap:butt;stroke-linejoin:miter;stroke:rgb(0%,0%,0%);stroke-opacity:1;stroke-miterlimit:4;" d="M 135.999967 339.499691 L 152.000024 345.500358 L 162.000448 352.00022 L 162.499642 368.000277 L 160.499764 384.000334 " transform="matrix(3.779528,0,0,3.779528,0,0)"/>
<path style="fill:none;stroke-width:2;stroke-linecap:butt;stroke-linejoin:miter;stroke:rgb(0%,0%,0%);stroke-opacity:1;stroke-miterlimit:4;" d="M 184.000138 395.000179 L 200.000195 393.000301 " transform="matrix(3.779528,0,0,3.779528,0,0)"/>
<path style="fill:none;stroke-width:2;stroke-linecap:butt;stroke-linejoin:miter;stroke:rgb(0%,0%,0%);stroke-opacity:1;stroke-miterlimit:4;" d="M 198.499512 413.999536 L 182.500488 413.999536 " transform="matrix(3.779528,0,0,3.779528,0,0)"/>
<path style="fill:none;stroke-width:2;stroke-linecap:butt;stroke-linejoin:miter;stroke:rgb(0%,0%,0%);stroke-opacity:1;stroke-miterlimit:4;" d="M 178.499699 411.999658 L 194.499756 407.999902 " transform="matrix(3.779528,0,0,3.779528,0,0)"/>
<path style="fill:none;stroke-width:2;stroke-linecap:butt;stroke-linejoin:miter;stroke:rgb(0%,0%,0%);stroke-opacity:1;stroke-miterlimit:4;" d="M 177.000049 426.500065 L 161.50022 410.500008 L 145.500163 412.499886 L 129.500106 406.500252 L 113.500049 402.500496 L 97.499992 413.000114 " transform="matrix(3.779528,0,0,3.779528,0,0)"/>
<path style="fill:none;stroke-width:2;stroke-linecap:butt;stroke-linejoin:miter;stroke:rgb(0%,0%,0%);stroke-opacity:1;stroke-miterlimit:4;" d="M 100.500326 413.500342 L 110.499715 421.499854 L 114.999699 437.49991 L 116.999577 453.499967 L 116.500382 452.99974 " transform="matrix(3.779528,0,0,3.779528,0,0)"/>
<path style="fill:none;stroke-width:2;stroke-linecap:butt;stroke-linejoin:miter;stroke:rgb(0%,0%,0%);stroke-opacity:1;stroke-miterlimit:4;" d="M 112.000399 466.499691 L 108.499837 450.000439 L 100.500326 433.500155 L 104.500081 417.500098 L 92.49978 409.499552 " transform="matrix(3.779528,0,0,3.779528,0,0)"/>
<path style="fill:none;stroke-width:2;stroke-linecap:butt;stroke-linejoin:miter;stroke:rgb(0%,0%,0%);stroke-opacity:1;stroke-miterlimit:4;" d="M 101.999976 409.99978 L 118.000033 407.999902 L 134.500317 411.999658 L 150.500374 420.000203 L 166.500431 422.000081 L 160.499764 436.500488 L 166.500431 438.000138 " transform="matrix(3.779528,0,0,3.779528,0,0)"/>
<path style="fill:none;stroke-width:2;stroke-linecap:butt;stroke-linejoin:miter;stroke:rgb(0%,0%,0%);stroke-opacity:1;stroke-miterlimit:4;" d="M 150.999569 432.000505 L 137.000423 427.999715 " transform="matrix(3.779528,0,0,3.779528,0,0)"/>
<path style="fill:none;stroke-width:2;stroke-linecap:butt;stroke-linejoin:miter;stroke:rgb(0%,0%,0%);stroke-opacity:1;stroke-miterlimit:4;" d="M 139.499495 429.999593 L 148.999691 445.99965 " transform="matrix(3.779528,0,0,3.779528,0,0)"/>
<path style="fill:none;stroke-width:2;stroke-linecap:butt;stroke-linejoin:miter;stroke:rgb(0%,0%,0%);stroke-opacity:1;stroke-miterlimit:4;" d="M 132.999634 455.499845 L 133.499862 441.999894 L 125.999544 425.999837 " transform="matrix(3.779528,0,0,3.779528,0,0)"/>
<path style="fill:none;stroke-width:2;stroke-linecap:butt;stroke-linejoin:miter;stroke:rgb(0%,0%,0%);stroke-opacity:1;stroke-miterlimit:4;" d="M 132.500439 422.999504 L 139.999723 439.499788 L 144.000513 455.499845 " transform="matrix(3.779528,0,0,3.779528,0,0)"/>
<path style="fill:none;stroke-width:2;stroke-linecap:butt;stroke-linejoin:miter;stroke:rgb(0%,0%,0%);stroke-opacity:1;stroke-miterlimit:4;" d="M 112.000399 481.000098 L 103.999854 469.500024 L 90.499902 470.999674 L 94.499658 438.999561 L 94.499658 422.500309 L 96.499536 406.500252 L 98.500448 388.999512 L 82.500391 392.500073 L 66.999528 395.000179 L 51.499699 400.999813 L 35.499642 402.999691 L 19.499585 404.500374 L 3.499528 410.500008 " transform="matrix(3.779528,0,0,3.779528,0,0)"/>
<path style="fill:none;stroke-width:2;stroke-linecap:butt;stroke-linejoin:miter;stroke:rgb(0%,0%,0%);stroke-opacity:1;stroke-miterlimit:4;" d="M 1.999878 404.000146 L 17.999935 400.000391 L 33.999992 398.000513 L 50.500277 393.999723 L 66.500334 390.500195 L 82.500391 386.000212 L 98.500448 384.499528 L 114.999699 380.499772 L 130.499528 375.000366 L 144.499707 364.499715 L 144.499707 380.499772 " transform="matrix(3.779528,0,0,3.779528,0,0)"/>
<path style="fill:none;stroke-width:2;stroke-linecap:butt;stroke-linejoin:miter;stroke:rgb(0%,0%,0%);stroke-opacity:1;stroke-miterlimit:4;" d="M 152.500252 388.00009 L 146.499585 400.000391 L 142.499829 396.499829 L 140.499951 380.499772 L 132.000212 372.50026 L 139.999723 356.500203 L 133.499862 340.500146 L 149.499919 327.999618 L 133.499862 336.000163 " transform="matrix(3.779528,0,0,3.779528,0,0)"/>
<path style="fill:none;stroke-width:2;stroke-linecap:butt;stroke-linejoin:miter;stroke:rgb(0%,0%,0%);stroke-opacity:1;stroke-miterlimit:4;" d="M 180.499577 349.500114 L 196.999862 347.500236 L 180.999805 357.499626 L 180.999805 373.499683 L 182.999683 389.49974 L 180.999805 397.500285 L 196.999862 385.499984 L 216.50048 391.499618 L 232.499504 393.499495 L 248.999788 395.500407 L 280.999902 399.500163 L 296.499731 403.499919 L 311.999561 400.999813 L 327.999618 402.999691 L 343.999674 405.499797 L 359.499504 407.00048 L 375.000366 411.000236 L 391.000423 411.000236 L 406.500252 414.999992 L 422.500309 416.99987 " transform="matrix(3.779528,0,0,3.779528,0,0)"/>
<path style="fill:none;stroke-width:2;stroke-linecap:butt;stroke-linejoin:miter;stroke:rgb(0%,0%,0%);stroke-opacity:1;stroke-miterlimit:4;" d="M 407.00048 457.499723 L 419.499976 474.000008 L 425.999837 473.49978 L 413.999536 488.999609 L 400.499585 504.999666 " transform="matrix(3.779528,0,0,3.779528,0,0)"/>
<path style="fill:none;stroke-width:2;stroke-linecap:butt;stroke-linejoin:miter;stroke:rgb(0%,0%,0%);stroke-opacity:1;stroke-miterlimit:4;" d="M 394.499951 493.499593 L 377.999666 482.999976 L 361.999609 479.00022 L 352.00022 477.000342 L 336.000163 475.000464 L 323.999862 475.000464 L 318.000228 468.999797 L 302.000171 469.500024 L 287.499764 471.499902 L 271.499707 470.000252 L 271.499707 466.000496 L 255.49965 469.500024 L 235.499837 459.499601 L 225.00022 453.499967 L 209.000163 459.499601 L 203.499723 463.500391 L 195.500212 457.499723 L 178.000505 450.999862 L 154.50013 452.99974 L 134.500317 448.999984 L 120.500138 443.00035 L 104.500081 443.499544 L 108.499837 429.500399 L 100.500326 419.499976 " transform="matrix(3.779528,0,0,3.779528,0,0)"/>
<path style="fill:none;stroke-width:2;stroke-linecap:butt;stroke-linejoin:miter;stroke:rgb(0%,0%,0%);stroke-opacity:1;stroke-miterlimit:4;" d="M 112.499593 411.500464 L 144.499707 418.000326 L 152.000024 436.00026 L 159.500342 451.50009 L 139.499495 455.499845 L 144.000513 483.500203 L 159.999536 487.499959 L 175.999593 489.499837 L 191.99965 495.500505 L 207.999707 497.500382 " transform="matrix(3.779528,0,0,3.779528,0,0)"/>
<path style="fill:none;stroke-width:2;stroke-linecap:butt;stroke-linejoin:miter;stroke:rgb(0%,0%,0%);stroke-opacity:1;stroke-miterlimit:4;" d="M 205.999829 493.999821 L 189.499544 487.499959 L 173.499487 483.500203 L 157.500464 479.500448 L 151.499797 473.49978 L 168.999504 457.499723 L 178.999927 443.499544 L 174.499943 422.000081 L 164.49952 416.000448 L 137.999845 410.500008 L 107.999609 386.999634 " transform="matrix(3.779528,0,0,3.779528,0,0)"/>
<path style="fill:none;stroke-width:2;stroke-linecap:butt;stroke-linejoin:miter;stroke:rgb(0%,0%,0%);stroke-opacity:1;stroke-miterlimit:4;" d="M 110.999943 384.499528 L 126.499772 382.49965 " transform="matrix(3.779528,0,0,3.779528,0,0)"/>
<path style="fill:none;stroke-width:2;stroke-linecap:butt;stroke-linejoin:miter;stroke:rgb(0%,0%,0%);stroke-opacity:1;stroke-miterlimit:4;" d="M 121.999788 419.499976 L 119.99991 435.500033 L 123.999666 454.999618 L 123.999666 470.999674 " transform="matrix(3.779528,0,0,3.779528,0,0)"/>
<path style="fill:none;stroke-width:2;stroke-linecap:butt;stroke-linejoin:miter;stroke:rgb(0%,0%,0%);stroke-opacity:1;stroke-miterlimit:4;" d="M 112.000399 464.499813 L 96.000342 476.500114 L 101.999976 460.500057 " transform="matrix(3.779528,0,0,3.779528,0,0)"/>
<path style="fill:none;stroke-width:2;stroke-linecap:butt;stroke-linejoin:miter;stroke:rgb(0%,0%,0%);stroke-opacity:1;stroke-miterlimit:4;" d="M 39.500431 419.499976 L 23.999569 409.499552 " transform="matrix(3.779528,0,0,3.779528,0,0)"/>
<path style="fill:none;stroke-width:2;stroke-linecap:butt;stroke-linejoin:miter;stroke:rgb(0%,0%,0%);stroke-opacity:1;stroke-miterlimit:4;" d="M 25.500252 409.99978 L 47.499943 425.999837 L 71.499512 450.000439 L 87.000374 443.999772 " transform="matrix(3.779528,0,0,3.779528,0,0)"/>
<path style="fill:none;stroke-width:2;stroke-linecap:butt;stroke-linejoin:miter;stroke:rgb(0%,0%,0%);stroke-opacity:1;stroke-miterlimit:4;" d="M 39.999626 441.999894 L 24.499797 434.000382 L 8.49974 425.499609 " transform="matrix(3.779528,0,0,3.779528,0,0)"/>
<path style="fill:none;stroke-width:2;stroke-linecap:butt;stroke-linejoin:miter;stroke:rgb(0%,0%,0%);stroke-opacity:1;stroke-miterlimit:4;" d="M 5.500439 421.499854 L 21.500496 427.499487 L 37.49952 433.500155 L 53.499577 441.499666 " transform="matrix(3.779528,0,0,3.779528,0,0)"/>
<path style="fill:none;stroke-width:2;stroke-linecap:butt;stroke-linejoin:miter;stroke:rgb(0%,0%,0%);stroke-opacity:1;stroke-miterlimit:4;" d="M 50.000049 456.500301 L 33.999992 452.499512 L 17.999935 445.99965 L 1.999878 437.49991 " transform="matrix(3.779528,0,0,3.779528,0,0)"/>
<path style="fill:none;stroke-width:2;stroke-linecap:butt;stroke-linejoin:miter;stroke:rgb(0%,0%,0%);stroke-opacity:1;stroke-miterlimit:4;" d="M 1.999878 434.000382 L 17.999935 440.000016 L 34.50022 447.500334 L 50.500277 450.000439 L 78.999829 450.000439 " transform="matrix(3.779528,0,0,3.779528,0,0)"/>
<path style="fill:none;stroke-width:2;stroke-linecap:butt;stroke-linejoin:miter;stroke:rgb(0%,0%,0%);stroke-opacity:1;stroke-miterlimit:4;" d="M 19.999813 469.500024 L 30.000236 461.500513 L 12.000301 437.49991 " transform="matrix(3.779528,0,0,3.779528,0,0)"/>
<path style="fill:none;stroke-width:2;stroke-linecap:butt;stroke-linejoin:miter;stroke:rgb(0%,0%,0%);stroke-opacity:1;stroke-miterlimit:4;" d="M 3.499528 434.000382 L 25.500252 450.000439 L 23.000146 460.500057 L 8.999967 470.50048 L 25.500252 458.500179 " transform="matrix(3.779528,0,0,3.779528,0,0)"/>
<path style="fill:none;stroke-width:2;stroke-linecap:butt;stroke-linejoin:miter;stroke:rgb(0%,0%,0%);stroke-opacity:1;stroke-miterlimit:4;" d="M 39.500431 441.000472 L 15.499829 425.000415 L 5.500439 420.999626 " transform="matrix(3.779528,0,0,3.779528,0,0)"/>
<path style="fill:none;stroke-width:2;stroke-linecap:butt;stroke-linejoin:miter;stroke:rgb(0%,0%,0%);stroke-opacity:1;stroke-miterlimit:4;" d="M 187.999894 436.999683 L 187.999894 452.99974 " transform="matrix(3.779528,0,0,3.779528,0,0)"/>
<path style="fill:none;stroke-width:2;stroke-linecap:butt;stroke-linejoin:miter;stroke:rgb(0%,0%,0%);stroke-opacity:1;stroke-miterlimit:4;" d="M 232.999731 453.499967 L 232.999731 437.49991 " transform="matrix(3.779528,0,0,3.779528,0,0)"/>
<path style="fill:none;stroke-width:2;stroke-linecap:butt;stroke-linejoin:miter;stroke:rgb(0%,0%,0%);stroke-opacity:1;stroke-miterlimit:4;" d="M 236.000065 438.500366 L 225.999642 438.500366 L 230.499626 454.500423 L 246.499683 466.999919 L 258.499984 443.00035 L 276.499919 443.00035 L 272.500163 450.999862 " transform="matrix(3.779528,0,0,3.779528,0,0)"/>
<path style="fill:none;stroke-width:2;stroke-linecap:butt;stroke-linejoin:miter;stroke:rgb(0%,0%,0%);stroke-opacity:1;stroke-miterlimit:4;" d="M 263.500195 454.000195 L 257.499528 438.000138 " transform="matrix(3.779528,0,0,3.779528,0,0)"/>
<path style="fill:none;stroke-width:2;stroke-linecap:butt;stroke-linejoin:miter;stroke:rgb(0%,0%,0%);stroke-opacity:1;stroke-miterlimit:4;" d="M 245.50026 436.999683 L 247.500138 452.99974 " transform="matrix(3.779528,0,0,3.779528,0,0)"/>
<path style="fill:none;stroke-width:2;stroke-linecap:butt;stroke-linejoin:miter;stroke:rgb(0%,0%,0%);stroke-opacity:1;stroke-miterlimit:4;" d="M 244.499805 452.499512 L 238.500171 436.500488 " transform="matrix(3.779528,0,0,3.779528,0,0)"/>
<path style="fill:none;stroke-width:2;stroke-linecap:butt;stroke-linejoin:miter;stroke:rgb(0%,0%,0%);stroke-opacity:1;stroke-miterlimit:4;" d="M 291.000326 423.999959 L 291.000326 408.50013 " transform="matrix(3.779528,0,0,3.779528,0,0)"/>
<path style="fill:none;stroke-width:2;stroke-linecap:butt;stroke-linejoin:miter;stroke:rgb(0%,0%,0%);stroke-opacity:1;stroke-miterlimit:4;" d="M 295.000081 409.99978 L 300.999715 425.999837 L 323.000439 437.49991 L 338.500269 439.499788 L 354.500326 443.999772 L 370.000155 441.999894 L 386.500439 441.999894 L 402.500496 450.000439 L 418.49952 454.000195 L 434.499577 456.500301 " transform="matrix(3.779528,0,0,3.779528,0,0)"/>
<path style="fill:none;stroke-width:2;stroke-linecap:butt;stroke-linejoin:miter;stroke:rgb(0%,0%,0%);stroke-opacity:1;stroke-miterlimit:4;" d="M 407.999902 464.499813 L 411.999658 481.000098 L 401.500041 497.000155 " transform="matrix(3.779528,0,0,3.779528,0,0)"/>
<path style="fill:none;stroke-width:2;stroke-linecap:butt;stroke-linejoin:miter;stroke:rgb(0%,0%,0%);stroke-opacity:1;stroke-miterlimit:4;" d="M 400.000391 477.000342 L 393.999723 461.000285 " transform="matrix(3.779528,0,0,3.779528,0,0)"/>
<path style="fill:none;stroke-width:2;stroke-linecap:butt;stroke-linejoin:miter;stroke:rgb(0%,0%,0%);stroke-opacity:1;stroke-miterlimit:4;" d="M 404.000146 458.500179 L 406.000024 474.000008 " transform="matrix(3.779528,0,0,3.779528,0,0)"/>
<path style="fill:none;stroke-width:2;stroke-linecap:butt;stroke-linejoin:miter;stroke:rgb(0%,0%,0%);stroke-opacity:1;stroke-miterlimit:4;" d="M 447.999528 448.999984 L 432.000505 445.000228 L 415.50022 450.499634 L 399.500163 444.5 L 381.500228 438.000138 L 377.500472 422.000081 " transform="matrix(3.779528,0,0,3.779528,0,0)"/>
<path style="fill:none;stroke-width:2;stroke-linecap:butt;stroke-linejoin:miter;stroke:rgb(0%,0%,0%);stroke-opacity:1;stroke-miterlimit:4;" d="M 369.499927 419.499976 L 369.499927 435.500033 L 377.500472 445.500456 L 393.499495 450.000439 " transform="matrix(3.779528,0,0,3.779528,0,0)"/>
<path style="fill:none;stroke-width:2;stroke-linecap:butt;stroke-linejoin:miter;stroke:rgb(0%,0%,0%);stroke-opacity:1;stroke-miterlimit:4;" d="M 414.999992 479.500448 L 398.999935 499.000033 L 384.999756 506.999544 L 380.499772 495.000277 L 377.000244 482.999976 L 382.999878 461.000285 L 373.000488 443.00035 L 364.999943 431.500277 L 364.999943 416.000448 " transform="matrix(3.779528,0,0,3.779528,0,0)"/>
<path style="fill:none;stroke-width:2;stroke-linecap:butt;stroke-linejoin:miter;stroke:rgb(0%,0%,0%);stroke-opacity:1;stroke-miterlimit:4;" d="M 304.000049 406.000024 L 307.999805 422.000081 L 303.499821 443.999772 L 313.000016 459.499601 L 316.499544 483.500203 L 320.500334 500.000488 " transform="matrix(3.779528,0,0,3.779528,0,0)"/>
<path style="fill:none;stroke-width:2;stroke-linecap:butt;stroke-linejoin:miter;stroke:rgb(0%,0%,0%);stroke-opacity:1;stroke-miterlimit:4;" d="M 306.500155 496.499927 L 306.500155 481.000098 L 305.999927 465.000041 L 302.000171 448.999984 " transform="matrix(3.779528,0,0,3.779528,0,0)"/>
<path style="fill:none;stroke-width:2;stroke-linecap:butt;stroke-linejoin:miter;stroke:rgb(0%,0%,0%);stroke-opacity:1;stroke-miterlimit:4;" d="M 264.999845 378.499894 L 264.999845 362.499837 " transform="matrix(3.779528,0,0,3.779528,0,0)"/>
<path style="fill:none;stroke-width:2;stroke-linecap:butt;stroke-linejoin:miter;stroke:rgb(0%,0%,0%);stroke-opacity:1;stroke-miterlimit:4;" d="M 259.000212 362.499837 L 257.000334 378.499894 " transform="matrix(3.779528,0,0,3.779528,0,0)"/>
<path style="fill:none;stroke-width:2;stroke-linecap:butt;stroke-linejoin:miter;stroke:rgb(0%,0%,0%);stroke-opacity:1;stroke-miterlimit:4;" d="M 223.000342 367.500049 L 225.00022 373.499683 L 226.49987 397.500285 L 242.499927 399.500163 L 260.499862 404.000146 L 275.999691 406.000024 L 295.999504 409.99978 L 321.499756 410.500008 L 336.999585 412.499886 L 352.999642 414.499764 L 370.500382 420.000203 L 388.999512 416.000448 L 404.500374 420.000203 L 420.999626 422.000081 L 436.999683 418.000326 L 447.500334 422.000081 L 463.500391 416.000448 L 453.499967 420.000203 L 469.500024 422.000081 L 485.500081 407.999902 L 501.500138 375.999788 " transform="matrix(3.779528,0,0,3.779528,0,0)"/>
<path style="fill:none;stroke-width:2;stroke-linecap:butt;stroke-linejoin:miter;stroke:rgb(0%,0%,0%);stroke-opacity:1;stroke-miterlimit:4;" d="M 481.99952 440.000016 L 474.000008 456.500301 L 481.99952 461.999707 L 501.500138 463.999585 " transform="matrix(3.779528,0,0,3.779528,0,0)"/>
<path style="fill:none;stroke-width:2;stroke-linecap:butt;stroke-linejoin:miter;stroke:rgb(0%,0%,0%);stroke-opacity:1;stroke-miterlimit:4;" d="M 496.499927 459.999829 L 480.49987 455.499845 " transform="matrix(3.779528,0,0,3.779528,0,0)"/>
<path style="fill:none;stroke-width:2;stroke-linecap:butt;stroke-linejoin:miter;stroke:rgb(0%,0%,0%);stroke-opacity:1;stroke-miterlimit:4;" d="M 474.500236 475.499658 L 472.500358 473.49978 L 476.500114 490.000065 L 470.50048 506.000122 " transform="matrix(3.779528,0,0,3.779528,0,0)"/>
<path style="fill:none;stroke-width:2;stroke-linecap:butt;stroke-linejoin:miter;stroke:rgb(0%,0%,0%);stroke-opacity:1;stroke-miterlimit:4;" d="M 490.000065 486.999731 L 504.500472 502.499561 " transform="matrix(3.779528,0,0,3.779528,0,0)"/>
<path style="fill:none;stroke-width:2;stroke-linecap:butt;stroke-linejoin:miter;stroke:rgb(0%,0%,0%);stroke-opacity:1;stroke-miterlimit:4;" d="M 284.000236 319.499878 L 259.500439 325.499512 " transform="matrix(3.779528,0,0,3.779528,0,0)"/>
<path style="fill:none;stroke-width:2;stroke-linecap:butt;stroke-linejoin:miter;stroke:rgb(0%,0%,0%);stroke-opacity:1;stroke-miterlimit:4;" d="M 248.000366 356.500203 L 225.999642 345.00013 L 209.500391 363.000065 " transform="matrix(3.779528,0,0,3.779528,0,0)"/>
<path style="fill:none;stroke-width:2;stroke-linecap:butt;stroke-linejoin:miter;stroke:rgb(0%,0%,0%);stroke-opacity:1;stroke-miterlimit:4;" d="M 202.500301 348.499658 L 202.999495 364.499715 L 200.999618 380.499772 L 202.999495 402.500496 L 217.499902 409.99978 L 219.49978 419.499976 L 235.499837 425.000415 L 247.500138 416.99987 L 263.500195 422.999504 L 279.500252 428.499943 L 295.999504 426.500065 L 304.000049 430.499821 L 320.500334 430.499821 L 336.500391 434.999805 L 352.500448 436.999683 L 366.499593 450.999862 L 382.49965 456.999495 L 398.499707 465.500269 L 414.499764 459.499601 L 430.499821 465.500269 L 446.499878 459.499601 L 458.500179 454.000195 L 479.999642 447.999528 L 491.499715 463.999585 L 507.499772 472.00013 " transform="matrix(3.779528,0,0,3.779528,0,0)"/>
<path style="fill:none;stroke-width:2;stroke-linecap:butt;stroke-linejoin:miter;stroke:rgb(0%,0%,0%);stroke-opacity:1;stroke-miterlimit:4;" d="M 388.00009 178.999927 L 372.000033 168.999504 L 355.999976 164.999748 L 339.999919 155.000358 L 323.999862 148.999691 L 307.999805 141.500407 L 291.49952 147.500041 L 275.500496 159.999536 L 259.500439 164.000326 L 243.500382 173.499487 L 227.500326 181.500033 L 211.000041 191.500456 " transform="matrix(3.779528,0,0,3.779528,0,0)"/>
<path style="fill:none;stroke-width:2;stroke-linecap:butt;stroke-linejoin:miter;stroke:rgb(0%,0%,0%);stroke-opacity:1;stroke-miterlimit:4;" d="M 184.999561 191.99965 L 200.999618 184.000138 L 217.499902 176.499821 L 233.499959 168.500309 L 250.000244 159.000114 L 266.000301 150.999569 L 282.499552 143.000057 L 298.499609 132.999634 L 314.499666 124.499894 L 330.499723 130.499528 L 346.49978 137.000423 L 362.499837 143.000057 L 377.999666 148.999691 L 393.999723 153.00048 L 409.499552 159.000114 L 425.000415 164.999748 L 441.000472 177.000049 L 454.999618 172.500065 L 470.999674 178.499699 L 486.999731 184.500366 L 502.999788 192.499878 " transform="matrix(3.779528,0,0,3.779528,0,0)"/>
<path style="fill:none;stroke-width:2;stroke-linecap:butt;stroke-linejoin:miter;stroke:rgb(0%,0%,0%);stroke-opacity:1;stroke-miterlimit:4;" d="M 508 189.00035 L 491.999943 180.999805 L 475.999886 175.000171 L 460.500057 168.500309 L 444.5 164.49952 L 429.000171 160.499764 L 413.000114 152.500252 L 397.000057 148.500496 L 381 142.499829 L 364.999943 138.500073 L 348.499658 132.500439 L 332.499601 126.499772 L 316.499544 120.500138 L 300.499487 124.499894 L 284.500464 132.500439 L 268.500407 142.499829 L 252.000122 150.500374 L 236.500293 158.499886 L 220.500236 166.000203 L 204.500179 175.500399 L 188.500122 182.999683 L 171.999837 190.5 " transform="matrix(3.779528,0,0,3.779528,0,0)"/>
<path style="fill:none;stroke-width:2;stroke-linecap:butt;stroke-linejoin:miter;stroke:rgb(0%,0%,0%);stroke-opacity:1;stroke-miterlimit:4;" d="M 167.499854 221.000464 L 182.999683 219.49978 L 198.99974 212.000496 " transform="matrix(3.779528,0,0,3.779528,0,0)"/>
<path style="fill:none;stroke-width:2;stroke-linecap:butt;stroke-linejoin:miter;stroke:rgb(0%,0%,0%);stroke-opacity:1;stroke-miterlimit:4;" d="M 212.499691 214.000374 L 196.499634 221.999886 L 180.000382 225.999642 L 164.000326 225.999642 " transform="matrix(3.779528,0,0,3.779528,0,0)"/>
<path style="fill:none;stroke-width:2;stroke-linecap:butt;stroke-linejoin:miter;stroke:rgb(0%,0%,0%);stroke-opacity:1;stroke-miterlimit:4;" d="M 148.500496 197.50009 L 132.500439 195.500212 " transform="matrix(3.779528,0,0,3.779528,0,0)"/>
<path style="fill:none;stroke-width:2;stroke-linecap:butt;stroke-linejoin:miter;stroke:rgb(0%,0%,0%);stroke-opacity:1;stroke-miterlimit:4;" d="M 137.999845 191.000228 L 121.999788 191.000228 " transform="matrix(3.779528,0,0,3.779528,0,0)"/>
<path style="fill:none;stroke-width:2;stroke-linecap:butt;stroke-linejoin:miter;stroke:rgb(0%,0%,0%);stroke-opacity:1;stroke-miterlimit:4;" d="M 128.000456 224.499992 L 112.000399 223.999764 " transform="matrix(3.779528,0,0,3.779528,0,0)"/>
<path style="fill:none;stroke-width:2;stroke-linecap:butt;stroke-linejoin:miter;stroke:rgb(0%,0%,0%);stroke-opacity:1;stroke-miterlimit:4;" d="M 130.000334 214.000374 L 121.999788 214.000374 L 107.999609 212.499691 L 91.999552 212.499691 " transform="matrix(3.779528,0,0,3.779528,0,0)"/>
<path style="fill:none;stroke-width:2;stroke-linecap:butt;stroke-linejoin:miter;stroke:rgb(0%,0%,0%);stroke-opacity:1;stroke-miterlimit:4;" d="M 66.000106 187.000472 L 43.500187 189.00035 L 27.50013 187.000472 " transform="matrix(3.779528,0,0,3.779528,0,0)"/>
<path style="fill:none;stroke-width:2;stroke-linecap:butt;stroke-linejoin:miter;stroke:rgb(0%,0%,0%);stroke-opacity:1;stroke-miterlimit:4;" d="M 25.500252 207.500513 L 41.500309 205.499601 L 57.500366 207.500513 L 73.500423 205.499601 L 85.999919 195.500212 L 96.000342 187.499666 " transform="matrix(3.779528,0,0,3.779528,0,0)"/>
<path style="fill:none;stroke-width:2;stroke-linecap:butt;stroke-linejoin:miter;stroke:rgb(0%,0%,0%);stroke-opacity:1;stroke-miterlimit:4;" d="M 139.000301 205.499601 L 134.999512 213.500146 L 118.50026 217.499902 L 110.499715 217.499902 L 122.500016 203.499723 L 114.500505 203.999951 L 98.00022 206.500057 L 82.000163 214.999797 L 66.000106 212.999919 L 49.499821 214.999797 L 33.499764 218.999552 L 17.499707 214.499569 L 1.49965 212.999919 " transform="matrix(3.779528,0,0,3.779528,0,0)"/>
<path style="fill:none;stroke-width:2;stroke-linecap:butt;stroke-linejoin:miter;stroke:rgb(0%,0%,0%);stroke-opacity:1;stroke-miterlimit:4;" d="M 1.000456 205.999829 L 17.000513 205.999829 L 33.499764 195.500212 " transform="matrix(3.779528,0,0,3.779528,0,0)"/>
<path style="fill:none;stroke-width:2;stroke-linecap:butt;stroke-linejoin:miter;stroke:rgb(0%,0%,0%);stroke-opacity:1;stroke-miterlimit:4;" d="M 32.000114 209.999585 L 33.999992 203.999951 L 17.999935 187.999894 L 1.999878 189.999772 " transform="matrix(3.779528,0,0,3.779528,0,0)"/>
<path style="fill:none;stroke-width:2;stroke-linecap:butt;stroke-linejoin:miter;stroke:rgb(0%,0%,0%);stroke-opacity:1;stroke-miterlimit:4;" d="M 1.999878 183.49991 L 17.499707 183.49991 L 33.499764 180.999805 L 49.499821 182.999683 L 64.99965 182.999683 L 81.499935 184.999561 L 98.00022 182.999683 L 114.000277 184.999561 L 130.499528 184.999561 L 146.499585 184.500366 L 162.000448 184.500366 L 178.499699 175.000171 L 210.499813 159.999536 L 226.49987 150.500374 L 248.000366 136.500195 " transform="matrix(3.779528,0,0,3.779528,0,0)"/>
<path style="fill:none;stroke-width:2;stroke-linecap:butt;stroke-linejoin:miter;stroke:rgb(0%,0%,0%);stroke-opacity:1;stroke-miterlimit:4;" d="M 246.99991 134.500317 L 250.999666 134.500317 L 232.999731 137.999845 L 218.999552 153.999902 L 188.500122 169.999959 L 168.500309 197.50009 L 184.500366 197.50009 L 200.500423 203.999951 L 202.500301 205.999829 L 223.000342 218.00013 L 230.999854 221.999886 L 227.000098 237.999943 L 230.999854 241.500505 L 224.499992 249.500016 L 228.499748 257.999756 L 234.000187 261.999512 L 226.49987 273.999813 L 230.499626 282.000358 L 224.499992 298.000415 L 240.500049 302.500399 L 268.500407 276.499919 L 270.500285 282.000358 L 284.500464 283.500008 L 290.500098 285.499886 L 305.999927 279.000024 L 316.00035 279.500252 L 321.499756 285.499886 L 337.499813 285.499886 L 351.499992 282.000358 L 363.999487 282.000358 L 377.999666 286.000114 L 388.00009 288.50022 L 409.99978 288.50022 L 425.999837 289.99987 L 426.500065 301.499943 L 424.500187 315.500122 L 414.499764 331.500179 L 414.499764 347.500236 L 425.000415 371.499805 L 427.000293 387.499862 L 432.499699 411.500464 L 450.499634 401.500041 L 454.500423 389.999967 L 463.999585 375.999788 L 456.000073 393.999723 L 471.499902 402.500496 L 490.999487 410.500008 L 509.000456 370.500382 L 502.499561 386.000212 L 495.000277 402.000269 L 486.499504 418.000326 L 493.000399 434.000382 " transform="matrix(3.779528,0,0,3.779528,0,0)"/>
<path style="fill:none;stroke-width:2;stroke-linecap:butt;stroke-linejoin:miter;stroke:rgb(0%,0%,0%);stroke-opacity:1;stroke-miterlimit:4;" d="M 354.500326 198.499512 L 344.499902 182.500488 " transform="matrix(3.779528,0,0,3.779528,0,0)"/>
<path style="fill:none;stroke-width:2;stroke-linecap:butt;stroke-linejoin:miter;stroke:rgb(0%,0%,0%);stroke-opacity:1;stroke-miterlimit:4;" d="M 342.500024 175.500399 L 355.999976 191.500456 L 357.999854 207.500513 L 352.00022 225.00022 L 352.00022 241.000277 L 348.499658 268.500407 L 344.499902 272.500163 " transform="matrix(3.779528,0,0,3.779528,0,0)"/>
<path style="fill:none;stroke-width:2;stroke-linecap:butt;stroke-linejoin:miter;stroke:rgb(0%,0%,0%);stroke-opacity:1;stroke-miterlimit:4;" d="M 345.999552 202.500301 L 330.499723 203.999951 L 330.499723 191.99965 L 336.500391 192.499878 L 339.000496 176.499821 " transform="matrix(3.779528,0,0,3.779528,0,0)"/>
<path style="fill:none;stroke-width:2;stroke-linecap:butt;stroke-linejoin:miter;stroke:rgb(0%,0%,0%);stroke-opacity:1;stroke-miterlimit:4;" d="M 336.000163 169.999959 L 325.99974 186.000016 L 320.000106 202.000073 L 334.000285 174.499943 L 350.000342 188.500122 " transform="matrix(3.779528,0,0,3.779528,0,0)"/>
<path style="fill:none;stroke-width:2;stroke-linecap:butt;stroke-linejoin:miter;stroke:rgb(0%,0%,0%);stroke-opacity:1;stroke-miterlimit:4;" d="M 359.000309 193.500334 L 343.000252 173.499487 L 327.000195 169.999959 L 311.000138 178.000505 L 311.000138 200.500423 L 318.99965 184.500366 L 332.499601 168.500309 " transform="matrix(3.779528,0,0,3.779528,0,0)"/>
<path style="fill:none;stroke-width:2;stroke-linecap:butt;stroke-linejoin:miter;stroke:rgb(0%,0%,0%);stroke-opacity:1;stroke-miterlimit:4;" d="M 321.499756 170.500187 L 305.499699 186.500244 L 296.999959 202.500301 L 300.999715 218.500358 L 312.499788 234.000187 L 320.500334 250.000244 L 330.499723 255.49965 L 334.999707 275.500496 " transform="matrix(3.779528,0,0,3.779528,0,0)"/>
<path style="fill:none;stroke-width:2;stroke-linecap:butt;stroke-linejoin:miter;stroke:rgb(0%,0%,0%);stroke-opacity:1;stroke-miterlimit:4;" d="M 375.000366 187.999894 L 361.000187 172.500065 L 339.000496 156.500008 " transform="matrix(3.779528,0,0,3.779528,0,0)"/>
<path style="fill:none;stroke-width:2;stroke-linecap:butt;stroke-linejoin:miter;stroke:rgb(0%,0%,0%);stroke-opacity:1;stroke-miterlimit:4;" d="M 314.000472 144.000513 L 287.499764 159.999536 L 280.00048 164.49952 L 270.000057 180.499577 L 272.500163 196.000439 L 272.500163 211.500269 L 273.000391 227.99952 L 275.000269 243.999577 L 264.999845 264.000423 L 271.000513 264.000423 L 277.000146 268.000179 L 289.000448 271.499707 " transform="matrix(3.779528,0,0,3.779528,0,0)"/>
<path style="fill:none;stroke-width:2;stroke-linecap:butt;stroke-linejoin:miter;stroke:rgb(0%,0%,0%);stroke-opacity:1;stroke-miterlimit:4;" d="M 236.000065 149.499919 L 252.50035 139.499495 L 268.999601 131.499984 L 285.499886 121.499561 L 300.999715 109.999487 L 317.5 112.000399 L 333.500057 119.99991 L 349.500114 125.999544 L 366.000399 130.499528 L 382.49965 136.500195 L 398.000513 143.000057 " transform="matrix(3.779528,0,0,3.779528,0,0)"/>
<path style="fill:none;stroke-width:2;stroke-linecap:butt;stroke-linejoin:miter;stroke:rgb(0%,0%,0%);stroke-opacity:1;stroke-miterlimit:4;" d="M 398.499707 135.999967 L 382.000456 129.500106 L 366.000399 123.500472 L 350.000342 119.499683 L 334.000285 112.999821 " transform="matrix(3.779528,0,0,3.779528,0,0)"/>
<path style="fill:none;stroke-width:2;stroke-linecap:butt;stroke-linejoin:miter;stroke:rgb(0%,0%,0%);stroke-opacity:1;stroke-miterlimit:4;" d="M 314.000472 111.500171 L 355.999976 127.500228 L 402.000269 144.000513 L 432.000505 162.000448 L 438.000138 175.500399 L 448.499756 209.500391 L 456.000073 221.499658 L 457.999951 217.499902 L 496.499927 217.499902 L 506.999544 213.500146 " transform="matrix(3.779528,0,0,3.779528,0,0)"/>
<path style="fill:none;stroke-width:2;stroke-linecap:butt;stroke-linejoin:miter;stroke:rgb(0%,0%,0%);stroke-opacity:1;stroke-miterlimit:4;" d="M 502.499561 169.499731 L 486.499504 163.500098 L 470.999674 159.500342 L 461.000285 157.999658 L 445.000228 157.999658 L 429.000171 150.500374 L 412.499886 134.500317 L 396.499829 127 L 379.999544 121.000366 L 370.000155 105.000309 L 354.000098 100.99952 L 338.000041 102.500203 L 321.999984 106.499959 L 305.999927 103.999854 L 290.500098 112.000399 L 274.500041 119.99991 L 258.499984 132.000212 L 242.499927 125.999544 L 234.999609 151.499797 L 218.999552 159.500342 L 202.500301 167.499854 L 186.500244 178.000505 L 169.999959 187.999894 L 159.999536 216.000252 L 169.999959 209.999585 L 191.99965 182.00026 L 219.49978 165.499976 L 251.499894 149.499919 L 279.500252 134.00009 L 307.999805 118.50026 " transform="matrix(3.779528,0,0,3.779528,0,0)"/>
<path style="fill:none;stroke-width:2;stroke-linecap:butt;stroke-linejoin:miter;stroke:rgb(0%,0%,0%);stroke-opacity:1;stroke-miterlimit:4;" d="M 313.500244 121.499561 L 359.499504 137.499618 L 407.499674 159.500342 L 425.499609 177.000049 L 441.499666 193.000106 L 443.499544 208.499935 L 443.999772 224.499992 L 444.5 239.999821 L 447.000106 255.999878 L 447.500334 271.999935 L 447.999528 287.999992 L 445.99965 304.000049 L 447.500334 320.000106 L 447.000106 335.499935 L 448.499756 351.499992 L 448.499756 368.000277 L 447.999528 383.500106 L 447.999528 399.500163 L 445.99965 414.999992 L 452.000317 419.499976 L 457.999951 433.500155 L 454.000195 449.500212 L 450.000439 463.000163 L 454.000195 479.00022 L 458.500179 495.500505 L 454.500423 495.500505 L 438.500366 502.999788 L 454.500423 509.000456 L 416.499642 506.999544 L 432.499699 503.500016 L 434.499577 493.499593 L 438.500366 479.500448 L 454.500423 485.500081 L 466.499691 490.999487 " transform="matrix(3.779528,0,0,3.779528,0,0)"/>
<path style="fill:none;stroke-width:2;stroke-linecap:butt;stroke-linejoin:miter;stroke:rgb(0%,0%,0%);stroke-opacity:1;stroke-miterlimit:4;" d="M 395.500407 282.000358 L 393.499495 265.500073 L 403.499919 241.999699 L 402.999691 225.999642 L 404.500374 210.499813 L 402.000269 194.499756 L 406.500252 192.499878 L 406.500252 177.000049 L 393.000301 166.999626 L 360.499959 143.000057 L 316.999772 127 " transform="matrix(3.779528,0,0,3.779528,0,0)"/>
<path style="fill:none;stroke-width:2;stroke-linecap:butt;stroke-linejoin:miter;stroke:rgb(0%,0%,0%);stroke-opacity:1;stroke-miterlimit:4;" d="M 310.49991 125.000122 L 284.500464 140.499951 L 254.500228 156.500008 L 228.499748 172.500065 L 200.500423 188.500122 L 198.499512 214.499569 L 200.999618 230.499626 L 202.999495 246.499683 L 203.499723 266.000301 L 202.999495 282.000358 L 200.999618 302.500399 L 207.000285 318.000228 L 216.999674 323.999862 " transform="matrix(3.779528,0,0,3.779528,0,0)"/>
<path style="fill:none;stroke-width:2;stroke-linecap:butt;stroke-linejoin:miter;stroke:rgb(0%,0%,0%);stroke-opacity:1;stroke-miterlimit:4;" d="M 177.000049 209.999585 L 175.000171 202.500301 L 173.000293 206.500057 L 162.99987 226.49987 L 160.999992 220.500236 L 162.499642 203.999951 L 160.499764 198.000317 L 175.999593 183.49991 L 202.000073 167.499854 L 233.499959 151.499797 L 263.500195 135.49974 L 273.000391 119.499683 L 287.499764 119.99991 L 298.999837 103.999854 " transform="matrix(3.779528,0,0,3.779528,0,0)"/>
<path style="fill:none;stroke-width:2;stroke-linecap:butt;stroke-linejoin:miter;stroke:rgb(0%,0%,0%);stroke-opacity:1;stroke-miterlimit:4;" d="M 372.000033 107.000187 L 363.999487 109.500293 L 393.999723 125.50035 L 423.999959 143.500285 L 456.000073 167.499854 L 497.999577 183.49991 " transform="matrix(3.779528,0,0,3.779528,0,0)"/>
<path style="fill:none;stroke-width:2;stroke-linecap:butt;stroke-linejoin:miter;stroke:rgb(0%,0%,0%);stroke-opacity:1;stroke-miterlimit:4;" d="M 488.000187 164.999748 L 449.500212 137.499618 L 445.500456 133.499862 L 450.999862 115.499927 L 468.999797 91.500358 " transform="matrix(3.779528,0,0,3.779528,0,0)"/>
</g>
</svg>
