<?xml version="1.0" encoding="UTF-8"?>
<svg xmlns="http://www.w3.org/2000/svg" xmlns:xlink="http://www.w3.org/1999/xlink" width="1935.11811" height="1935.11811" viewBox="0 0 1935.11811 1935.11811" version="1.1">
<g id="surface1">
<path style="fill:none;stroke-width:2;stroke-linecap:butt;stroke-linejoin:miter;stroke:rgb(0%,0%,0%);stroke-opacity:1;stroke-miterlimit:4;" d="M 197.50009 118.50026 L 199.499967 134.500317 L 199.499967 150.500374 L 213.500146 166.500431 L 213.500146 171.000415 L 223.499536 187.000472 L 195.500212 202.999495 L 165.499976 218.999552 L 127 236.999487 L 134.999512 236.500293 L 130.499528 252.50035 L 127 252.50035 L 127 268.500407 L 137.000423 272.500163 L 151.499797 270.000057 L 167.499854 271.499707 L 183.49991 277.000146 L 199.499967 282.99978 L 215.500024 286.999536 L 231.500081 288.50022 L 243.999577 298.499609 L 259.999634 300.499487 L 264.499618 284.500464 L 272.500163 293.000203 L 280.499674 279.000024 L 288.50022 282.99978 L 304.500277 280.999902 L 310.49991 267.499951 L 326.499967 263.500195 L 344.499902 269.499829 L 360.499959 269.499829 " transform="matrix(3.779528,0,0,3.779528,0,0)"/>
<path style="fill:none;stroke-width:2;stroke-linecap:butt;stroke-linejoin:miter;stroke:rgb(0%,0%,0%);stroke-opacity:1;stroke-miterlimit:4;" d="M 352.500448 245.50026 L 368.500505 252.000122 L 379.999544 255.999878 L 377.500472 271.499707 L 381.500228 287.499764 " transform="matrix(3.779528,0,0,3.779528,0,0)"/>
<path style="fill:none;stroke-width:2;stroke-linecap:butt;stroke-linejoin:miter;stroke:rgb(0%,0%,0%);stroke-opacity:1;stroke-miterlimit:4;" d="M 409.99978 280.00048 L 425.999837 287.999992 " transform="matrix(3.779528,0,0,3.779528,0,0)"/>
<path style="fill:none;stroke-width:2;stroke-linecap:butt;stroke-linejoin:miter;stroke:rgb(0%,0%,0%);stroke-opacity:1;stroke-miterlimit:4;" d="M 430.499821 298.999837 L 413.999536 282.499552 " transform="matrix(3.779528,0,0,3.779528,0,0)"/>
<path style="fill:none;stroke-width:2;stroke-linecap:butt;stroke-linejoin:miter;stroke:rgb(0%,0%,0%);stroke-opacity:1;stroke-miterlimit:4;" d="M 415.50022 279.500252 L 431.500277 295.500309 L 443.999772 311.500366 " transform="matrix(3.779528,0,0,3.779528,0,0)"/>
<path style="fill:none;stroke-width:2;stroke-linecap:butt;stroke-linejoin:miter;stroke:rgb(0%,0%,0%);stroke-opacity:1;stroke-miterlimit:4;" d="M 454.000195 317.5 L 438.000138 337.499813 L 422.000081 311.500366 L 423.999959 307.000382 L 420.500431 305.000505 " transform="matrix(3.779528,0,0,3.779528,0,0)"/>
<path style="fill:none;stroke-width:2;stroke-linecap:butt;stroke-linejoin:miter;stroke:rgb(0%,0%,0%);stroke-opacity:1;stroke-miterlimit:4;" d="M 420.999626 306.500155 L 429.000171 322.500212 L 438.500366 338.500269 " transform="matrix(3.779528,0,0,3.779528,0,0)"/>
<path style="fill:none;stroke-width:2;stroke-linecap:butt;stroke-linejoin:miter;stroke:rgb(0%,0%,0%);stroke-opacity:1;stroke-miterlimit:4;" d="M 436.500488 309.999683 L 425.000415 293.999626 L 414.999992 277.500374 L 413.500342 261.00009 " transform="matrix(3.779528,0,0,3.779528,0,0)"/>
<path style="fill:none;stroke-width:2;stroke-linecap:butt;stroke-linejoin:miter;stroke:rgb(0%,0%,0%);stroke-opacity:1;stroke-miterlimit:4;" d="M 411.000236 257.499528 L 427.499487 263.500195 L 443.00035 271.499707 " transform="matrix(3.779528,0,0,3.779528,0,0)"/>
<path style="fill:none;stroke-width:2;stroke-linecap:butt;stroke-linejoin:miter;stroke:rgb(0%,0%,0%);stroke-opacity:1;stroke-miterlimit:4;" d="M 420.000203 273.499585 L 404.000146 255.49965 " transform="matrix(3.779528,0,0,3.779528,0,0)"/>
<path style="fill:none;stroke-width:2;stroke-linecap:butt;stroke-linejoin:miter;stroke:rgb(0%,0%,0%);stroke-opacity:1;stroke-miterlimit:4;" d="M 401.500041 250.000244 L 417.500098 254 L 433.500155 260.499862 L 450.000439 272.500163 " transform="matrix(3.779528,0,0,3.779528,0,0)"/>
<path style="fill:none;stroke-width:2;stroke-linecap:butt;stroke-linejoin:miter;stroke:rgb(0%,0%,0%);stroke-opacity:1;stroke-miterlimit:4;" d="M 458.500179 248.499561 L 456.500301 264.499618 L 456.500301 288.50022 L 454.500423 304.500277 L 454.500423 332.499601 L 450.499634 340.500146 " transform="matrix(3.779528,0,0,3.779528,0,0)"/>
<path style="fill:none;stroke-width:2;stroke-linecap:butt;stroke-linejoin:miter;stroke:rgb(0%,0%,0%);stroke-opacity:1;stroke-miterlimit:4;" d="M 478.499992 352.999642 L 494.500049 330.999951 L 509.999878 317.5 L 504.000244 334.999707 L 500.000488 341.000374 L 490.000065 356.500203 L 475.999886 372.50026 L 468.499569 384.000334 L 470.50048 400.000391 L 470.50048 415.50022 L 452.99974 435.500033 L 434.999805 453.499967 L 411.000236 470.000252 L 388.999512 486.000309 L 377.000244 504.500472 L 384.999756 488.500415 L 400.999813 476.500114 L 417.500098 468.499569 L 433.500155 456.500301 " transform="matrix(3.779528,0,0,3.779528,0,0)"/>
<path style="fill:none;stroke-width:2;stroke-linecap:butt;stroke-linejoin:miter;stroke:rgb(0%,0%,0%);stroke-opacity:1;stroke-miterlimit:4;" d="M 406.500252 491.499715 L 390.500195 497.500382 L 416.499642 497.500382 L 440.500244 465.500269 L 462.499935 455.499845 L 470.50048 429.999593 L 480.49987 414.499764 L 477.999764 388.500317 L 490.000065 364.499715 L 506.50035 348.499658 L 490.500293 356.500203 L 474.500236 374.500138 " transform="matrix(3.779528,0,0,3.779528,0,0)"/>
<path style="fill:none;stroke-width:2;stroke-linecap:butt;stroke-linejoin:miter;stroke:rgb(0%,0%,0%);stroke-opacity:1;stroke-miterlimit:4;" d="M 478.499992 388.00009 L 480.49987 373.99991 L 496.499927 357.999854 L 511.999756 348.000464 L 497.999577 364.499715 L 491.999943 382.49965 L 491.999943 398.499707 L 486.000309 414.499764 L 475.999886 430.499821 L 475.999886 412.499886 L 483.500203 402.500496 L 486.000309 408.50013 " transform="matrix(3.779528,0,0,3.779528,0,0)"/>
<path style="fill:none;stroke-width:2;stroke-linecap:butt;stroke-linejoin:miter;stroke:rgb(0%,0%,0%);stroke-opacity:1;stroke-miterlimit:4;" d="M 488.000187 388.999512 L 489.499837 377.500472 L 505.499894 379.50035 L 507.499772 387.499862 L 508 361.999609 " transform="matrix(3.779528,0,0,3.779528,0,0)"/>
<path style="fill:none;stroke-width:2;stroke-linecap:butt;stroke-linejoin:miter;stroke:rgb(0%,0%,0%);stroke-opacity:1;stroke-miterlimit:4;" d="M 513.000212 358.500081 L 509.000456 368.000277 L 511.000334 384.000334 L 499.000033 395.500407 L 500.499683 409.499552 L 486.000309 425.499609 L 475.999886 441.499666 L 465.500269 457.499723 L 455.499845 469.500024 L 471.499902 450.000439 L 487.499959 420.000203 L 503.500016 405.499797 " transform="matrix(3.779528,0,0,3.779528,0,0)"/>
<path style="fill:none;stroke-width:2;stroke-linecap:butt;stroke-linejoin:miter;stroke:rgb(0%,0%,0%);stroke-opacity:1;stroke-miterlimit:4;" d="M 463.000163 388.00009 L 463.000163 418.999748 L 465.000041 434.999805 L 459.000407 450.999862 L 446.499878 466.999919 L 434.999805 482.999976 L 422.999504 499.000033 L 414.999992 501.500138 L 431.000049 479.500448 " transform="matrix(3.779528,0,0,3.779528,0,0)"/>
<path style="fill:none;stroke-width:2;stroke-linecap:butt;stroke-linejoin:miter;stroke:rgb(0%,0%,0%);stroke-opacity:1;stroke-miterlimit:4;" d="M 444.5 429.999593 L 427.999715 441.999894 L 411.500464 450.000439 L 395.000179 463.500391 L 379.000122 473.49978 L 363.000065 483.500203 L 347.500236 497.500382 L 349.500114 503.500016 L 368.000277 487.499959 L 393.999723 471.499902 L 420.500431 454.999618 L 443.00035 438.999561 L 459.000407 419.499976 L 448.999984 406.000024 L 452.99974 389.999967 L 438.999561 377.500472 L 446.499878 361.500415 L 462.499935 345.500358 L 468.000374 329.000073 L 466.000496 313.500244 L 470.000252 281.50013 L 470.000252 266.000301 L 466.499691 250.000244 L 462.499935 237.999943 " transform="matrix(3.779528,0,0,3.779528,0,0)"/>
<path style="fill:none;stroke-width:2;stroke-linecap:butt;stroke-linejoin:miter;stroke:rgb(0%,0%,0%);stroke-opacity:1;stroke-miterlimit:4;" d="M 468.499569 237.499715 L 484.999854 239.499593 L 500.99991 241.500505 " transform="matrix(3.779528,0,0,3.779528,0,0)"/>
<path style="fill:none;stroke-width:2;stroke-linecap:butt;stroke-linejoin:miter;stroke:rgb(0%,0%,0%);stroke-opacity:1;stroke-miterlimit:4;" d="M 486.000309 250.999666 L 502.000366 264.999845 L 501.500138 270.500285 " transform="matrix(3.779528,0,0,3.779528,0,0)"/>
<path style="fill:none;stroke-width:2;stroke-linecap:butt;stroke-linejoin:miter;stroke:rgb(0%,0%,0%);stroke-opacity:1;stroke-miterlimit:4;" d="M 492.500171 263.500195 L 492.500171 283.500008 L 489.499837 299.500065 L 488.000187 315.500122 L 477.999764 331.500179 L 470.000252 348.000464 L 466.000496 363.999487 L 454.500423 379.50035 L 446.499878 387.499862 L 461.999707 370.999577 L 475.999886 345.00013 L 491.999943 318.99965 L 504.000244 297.500187 " transform="matrix(3.779528,0,0,3.779528,0,0)"/>
<path style="fill:none;stroke-width:2;stroke-linecap:butt;stroke-linejoin:miter;stroke:rgb(0%,0%,0%);stroke-opacity:1;stroke-miterlimit:4;" d="M 508 292.499976 L 508 316.999772 L 491.499715 332.999829 L 481.500326 348.499658 L 481.500326 354.500326 L 469.500024 370.000155 L 463.999585 382.000456 L 455.499845 398.000513 L 452.000317 413.999536 L 443.999772 429.999593 L 420.000203 445.99965 L 398.000513 462.499935 L 373.99991 477.999764 L 351.499992 493.999821 L 339.499691 509.49965 L 357.499626 495.000277 L 373.499683 483.500203 L 389.49974 475.499658 L 405.499797 461.500513 L 421.499854 455.499845 L 438.000138 443.499544 L 441.499666 447.500334 L 469.500024 436.00026 L 485.500081 413.999536 L 503.500016 402.000269 " transform="matrix(3.779528,0,0,3.779528,0,0)"/>
<path style="fill:none;stroke-width:2;stroke-linecap:butt;stroke-linejoin:miter;stroke:rgb(0%,0%,0%);stroke-opacity:1;stroke-miterlimit:4;" d="M 459.000407 450.000439 L 443.00035 474.500236 L 427.000293 494.500049 L 407.00048 496.499927 L 388.500317 508 L 402.500496 491.999943 L 406.000024 477.999764 L 432.000505 461.500513 L 443.499544 451.50009 L 427.499487 465.500269 L 411.000236 475.499658 L 394.499951 487.499959 L 378.499894 493.499593 " transform="matrix(3.779528,0,0,3.779528,0,0)"/>
<path style="fill:none;stroke-width:2;stroke-linecap:butt;stroke-linejoin:miter;stroke:rgb(0%,0%,0%);stroke-opacity:1;stroke-miterlimit:4;" d="M 372.000033 465.000041 L 388.00009 456.999495 L 387.499862 450.499634 L 379.50035 452.499512 L 377.999666 454.999618 L 393.999723 448.999984 " transform="matrix(3.779528,0,0,3.779528,0,0)"/>
<path style="fill:none;stroke-width:2;stroke-linecap:butt;stroke-linejoin:miter;stroke:rgb(0%,0%,0%);stroke-opacity:1;stroke-miterlimit:4;" d="M 393.999723 410.500008 L 384.000334 425.999837 L 351.499992 442.500122 L 331.500179 456.500301 L 334.000285 458.500179 L 350.499536 448.499756 L 366.499593 442.500122 L 382.49965 434.000382 L 398.499707 423.999959 L 414.499764 409.499552 L 430.499821 407.499674 L 446.499878 407.499674 L 474.500236 384.000334 L 490.500293 372.000033 L 506.50035 355.999976 " transform="matrix(3.779528,0,0,3.779528,0,0)"/>
<path style="fill:none;stroke-width:2;stroke-linecap:butt;stroke-linejoin:miter;stroke:rgb(0%,0%,0%);stroke-opacity:1;stroke-miterlimit:4;" d="M 443.499544 355.499748 L 427.999715 330.999951 L 412.499886 314.999894 L 394.499951 325.000317 L 378.499894 332.999829 L 350.499536 353.49987 L 342.500024 379.50035 L 326.499967 385.499984 " transform="matrix(3.779528,0,0,3.779528,0,0)"/>
<path style="fill:none;stroke-width:2;stroke-linecap:butt;stroke-linejoin:miter;stroke:rgb(0%,0%,0%);stroke-opacity:1;stroke-miterlimit:4;" d="M 348.999886 368.500505 L 364.499715 352.500448 L 380.499772 350.000342 " transform="matrix(3.779528,0,0,3.779528,0,0)"/>
<path style="fill:none;stroke-width:2;stroke-linecap:butt;stroke-linejoin:miter;stroke:rgb(0%,0%,0%);stroke-opacity:1;stroke-miterlimit:4;" d="M 375.999788 325.99974 L 363.500293 325.99974 L 355.499748 355.999976 L 339.999919 368.000277 L 336.000163 359.999731 L 342.500024 343.999674 L 336.999585 354.500326 L 343.000252 366.499593 L 354.99952 350.499536 L 357.499626 334.500513 L 347.500236 318.000228 L 357.499626 302.000171 L 347.000008 286.000114 L 343.000252 261.999512 L 343.000252 246.000488 L 338.500269 230.000431 L 323.999862 231.500081 L 307.999805 234.999609 L 291.49952 236.999487 L 275.500496 239.000399 " transform="matrix(3.779528,0,0,3.779528,0,0)"/>
<path style="fill:none;stroke-width:2;stroke-linecap:butt;stroke-linejoin:miter;stroke:rgb(0%,0%,0%);stroke-opacity:1;stroke-miterlimit:4;" d="M 277.999569 224.499992 L 293.999626 222.500114 L 309.999683 218.00013 " transform="matrix(3.779528,0,0,3.779528,0,0)"/>
<path style="fill:none;stroke-width:2;stroke-linecap:butt;stroke-linejoin:miter;stroke:rgb(0%,0%,0%);stroke-opacity:1;stroke-miterlimit:4;" d="M 302.000171 197.50009 L 318.000228 213.500146 L 339.999919 216.000252 L 355.999976 221.999886 L 350.000342 239.499593 L 374.500138 255.49965 L 368.000277 271.499707 L 373.99991 285.499886 L 373.99991 305.499699 L 358.500081 321.499756 L 363.000065 343.50048 L 352.500448 359.999731 L 352.999642 375.999788 L 381 375.999788 L 404.999569 370.000155 " transform="matrix(3.779528,0,0,3.779528,0,0)"/>
<path style="fill:none;stroke-width:2;stroke-linecap:butt;stroke-linejoin:miter;stroke:rgb(0%,0%,0%);stroke-opacity:1;stroke-miterlimit:4;" d="M 400.000391 373.99991 L 416.000448 357.999854 " transform="matrix(3.779528,0,0,3.779528,0,0)"/>
<path style="fill:none;stroke-width:2;stroke-linecap:butt;stroke-linejoin:miter;stroke:rgb(0%,0%,0%);stroke-opacity:1;stroke-miterlimit:4;" d="M 402.999691 321.499756 L 397.000057 337.499813 L 394.499951 350.000342 L 388.500317 355.999976 L 390.500195 361.999609 L 378.499894 377.999666 L 368.000277 404.000146 L 325.99974 414.499764 L 287.999992 430.499821 L 266.000301 454.999618 L 243.999577 470.999674 L 212.000496 486.999731 L 174.499943 497.000155 L 142.499829 504.500472 L 139.000301 510.500106 L 153.00048 506.000122 L 168.999504 500.000488 L 184.999561 491.499715 L 200.500423 487.499959 L 214.499569 477.499536 L 230.499626 469.500024 L 246.499683 455.499845 L 262.999967 447.500334 L 279.000024 443.499544 L 294.499854 432.999927 L 309.999683 427.499487 L 325.99974 421.499854 L 342.500024 413.999536 L 358.500081 410.500008 " transform="matrix(3.779528,0,0,3.779528,0,0)"/>
<path style="fill:none;stroke-width:2;stroke-linecap:butt;stroke-linejoin:miter;stroke:rgb(0%,0%,0%);stroke-opacity:1;stroke-miterlimit:4;" d="M 367.500049 422.500309 L 351.499992 436.500488 L 336.000163 445.000228 L 320.000106 459.000407 L 304.500277 468.999797 L 287.999992 477.000342 L 271.999935 484.999854 L 255.999878 495.000277 L 239.999821 502.999788 L 223.999764 510.500106 L 243.999577 500.000488 L 271.499707 483.500203 L 303.499821 467.500146 L 325.499512 451.50009 L 349.500114 434.999805 L 371.499805 418.999748 L 379.50035 402.999691 " transform="matrix(3.779528,0,0,3.779528,0,0)"/>
<path style="fill:none;stroke-width:2;stroke-linecap:butt;stroke-linejoin:miter;stroke:rgb(0%,0%,0%);stroke-opacity:1;stroke-miterlimit:4;" d="M 375.499561 401.500041 L 361.500415 417.500098 L 341.499569 433.500155 L 317.5 450.000439 L 296.999959 466.499691 L 273.000391 476.500114 L 246.99991 493.000399 L 213.500146 509.000456 L 219.49978 506.999544 L 236.000065 498.499805 L 252.000122 490.500293 L 268.000179 480.49987 L 284.000236 466.499691 L 291.999748 470.000252 L 307.499577 457.499723 L 323.499634 445.500456 L 339.499691 434.999805 L 355.499748 422.999504 L 372.000033 407.00048 " transform="matrix(3.779528,0,0,3.779528,0,0)"/>
<path style="fill:none;stroke-width:2;stroke-linecap:butt;stroke-linejoin:miter;stroke:rgb(0%,0%,0%);stroke-opacity:1;stroke-miterlimit:4;" d="M 335.499935 432.000505 L 319.499878 433.500155 L 302.999593 441.999894 L 286.999536 452.000317 L 271.000513 457.999951 L 255.49965 469.500024 L 239.499593 479.500448 L 223.499536 486.000309 L 207.999707 493.999821 L 191.99965 497.999577 L 175.999593 507.499772 L 164.000326 507.499772 L 166.000203 505.499894 L 178.000505 501.500138 " transform="matrix(3.779528,0,0,3.779528,0,0)"/>
<path style="fill:none;stroke-width:2;stroke-linecap:butt;stroke-linejoin:miter;stroke:rgb(0%,0%,0%);stroke-opacity:1;stroke-miterlimit:4;" d="M 180.499577 479.999642 L 164.49952 486.499504 L 196.499634 470.50048 " transform="matrix(3.779528,0,0,3.779528,0,0)"/>
<path style="fill:none;stroke-width:2;stroke-linecap:butt;stroke-linejoin:miter;stroke:rgb(0%,0%,0%);stroke-opacity:1;stroke-miterlimit:4;" d="M 187.499666 468.000374 L 149.499919 484.000431 L 110.999943 500.499683 L 105.000309 504.500472 L 121.499561 498.499805 L 137.499618 494.500049 L 153.499674 482.499748 L 169.499731 475.999886 L 185.499788 470.000252 " transform="matrix(3.779528,0,0,3.779528,0,0)"/>
<path style="fill:none;stroke-width:2;stroke-linecap:butt;stroke-linejoin:miter;stroke:rgb(0%,0%,0%);stroke-opacity:1;stroke-miterlimit:4;" d="M 236.999487 480.49987 L 262.999967 464.499813 L 293.000203 454.500423 L 320.999528 438.500366 L 316.999772 441.000472 L 300.999715 450.999862 L 285.499886 459.000407 L 268.000179 452.99974 L 252.000122 466.999919 L 236.500293 475.000464 L 220.500236 482.999976 L 222.500114 486.499504 L 234.500415 466.499691 L 254.500228 450.999862 L 294.499854 434.999805 L 332.000407 418.999748 L 372.000033 397.000057 L 383.500106 380.499772 L 401.500041 364.499715 L 411.000236 354.000098 L 395.000179 368.000277 L 379.000122 384.000334 L 363.000065 384.000334 L 330.999951 395.999601 L 314.999894 407.999902 L 299.500065 413.999536 L 283.500008 420.000203 L 268.000179 425.999837 L 252.50035 432.000505 L 236.500293 437.49991 " transform="matrix(3.779528,0,0,3.779528,0,0)"/>
<path style="fill:none;stroke-width:2;stroke-linecap:butt;stroke-linejoin:miter;stroke:rgb(0%,0%,0%);stroke-opacity:1;stroke-miterlimit:4;" d="M 233.499959 433.500155 L 249.500016 427.499487 L 281.50013 415.50022 L 298.000415 409.499552 L 314.000472 403.499919 L 325.99974 387.499862 L 311.500366 402.999691 L 266.999723 418.999748 " transform="matrix(3.779528,0,0,3.779528,0,0)"/>
<path style="fill:none;stroke-width:2;stroke-linecap:butt;stroke-linejoin:miter;stroke:rgb(0%,0%,0%);stroke-opacity:1;stroke-miterlimit:4;" d="M 241.500505 454.000195 L 214.999797 470.000252 L 227.000098 461.500513 " transform="matrix(3.779528,0,0,3.779528,0,0)"/>
<path style="fill:none;stroke-width:2;stroke-linecap:butt;stroke-linejoin:miter;stroke:rgb(0%,0%,0%);stroke-opacity:1;stroke-miterlimit:4;" d="M 237.499715 452.000317 L 221.000464 459.999829 L 205.000407 474.000008 L 189.00035 481.99952 L 173.000293 487.499959 L 157.000236 493.499593 L 182.999683 483.500203 L 209.500391 468.000374 L 237.999943 452.000317 " transform="matrix(3.779528,0,0,3.779528,0,0)"/>
<path style="fill:none;stroke-width:2;stroke-linecap:butt;stroke-linejoin:miter;stroke:rgb(0%,0%,0%);stroke-opacity:1;stroke-miterlimit:4;" d="M 289.499642 448.499756 L 315.500122 432.000505 " transform="matrix(3.779528,0,0,3.779528,0,0)"/>
<path style="fill:none;stroke-width:2;stroke-linecap:butt;stroke-linejoin:miter;stroke:rgb(0%,0%,0%);stroke-opacity:1;stroke-miterlimit:4;" d="M 307.000382 325.99974 L 330.499723 320.500334 L 309.999683 320.999528 L 293.500431 327.000195 L 277.500374 331.500179 L 265.500073 327.500423 L 264.000423 301.499943 L 250.500472 289.499642 L 248.499561 273.000391 L 248.999788 256.500106 L 252.999544 240.500049 L 267.499951 224.499992 L 283.500008 208.499935 L 295.500309 192.499878 L 299.500065 198.499512 L 283.500008 214.999797 " transform="matrix(3.779528,0,0,3.779528,0,0)"/>
<path style="fill:none;stroke-width:2;stroke-linecap:butt;stroke-linejoin:miter;stroke:rgb(0%,0%,0%);stroke-opacity:1;stroke-miterlimit:4;" d="M 286.500342 202.000073 L 254.500228 237.999943 L 238.500171 243.999577 L 222.500114 241.999699 L 205.999829 236.000065 L 189.999772 235.499837 L 173.999715 231.500081 L 171.999837 235.499837 L 155.99978 232.000309 L 137.999845 230.000431 L 126.499772 239.999821 L 110.499715 227.99952 L 90.499902 221.999886 L 76.499723 232.000309 L 72.499967 225.999642 L 62.499544 225.500448 " transform="matrix(3.779528,0,0,3.779528,0,0)"/>
<path style="fill:none;stroke-width:2;stroke-linecap:butt;stroke-linejoin:miter;stroke:rgb(0%,0%,0%);stroke-opacity:1;stroke-miterlimit:4;" d="M 67.499756 221.499658 L 71.499512 237.499715 L 105.499504 253.499772 " transform="matrix(3.779528,0,0,3.779528,0,0)"/>
<path style="fill:none;stroke-width:2;stroke-linecap:butt;stroke-linejoin:miter;stroke:rgb(0%,0%,0%);stroke-opacity:1;stroke-miterlimit:4;" d="M 87.999797 255.000456 L 104.500081 262.49974 L 121.000366 264.999845 " transform="matrix(3.779528,0,0,3.779528,0,0)"/>
<path style="fill:none;stroke-width:2;stroke-linecap:butt;stroke-linejoin:miter;stroke:rgb(0%,0%,0%);stroke-opacity:1;stroke-miterlimit:4;" d="M 103.999854 257.000334 L 88.500024 255.000456 L 71.99974 248.999788 L 55.999683 241.000277 " transform="matrix(3.779528,0,0,3.779528,0,0)"/>
<path style="fill:none;stroke-width:2;stroke-linecap:butt;stroke-linejoin:miter;stroke:rgb(0%,0%,0%);stroke-opacity:1;stroke-miterlimit:4;" d="M 50.000049 248.499561 L 73.999618 254 L 101.999976 265.500073 " transform="matrix(3.779528,0,0,3.779528,0,0)"/>
<path style="fill:none;stroke-width:2;stroke-linecap:butt;stroke-linejoin:miter;stroke:rgb(0%,0%,0%);stroke-opacity:1;stroke-miterlimit:4;" d="M 101.999976 291.999748 L 85.999919 284.500464 L 69.999862 276.499919 L 53.999805 268.500407 " transform="matrix(3.779528,0,0,3.779528,0,0)"/>
<path style="fill:none;stroke-width:2;stroke-linecap:butt;stroke-linejoin:miter;stroke:rgb(0%,0%,0%);stroke-opacity:1;stroke-miterlimit:4;" d="M 51.000505 265.500073 L 67.499756 268.000179 L 84.000041 277.500374 L 100.000098 282.99978 " transform="matrix(3.779528,0,0,3.779528,0,0)"/>
<path style="fill:none;stroke-width:2;stroke-linecap:butt;stroke-linejoin:miter;stroke:rgb(0%,0%,0%);stroke-opacity:1;stroke-miterlimit:4;" d="M 139.999723 303.499821 L 155.499552 311.500366 L 181.500033 318.99965 L 183.49991 334.999707 " transform="matrix(3.779528,0,0,3.779528,0,0)"/>
<path style="fill:none;stroke-width:2;stroke-linecap:butt;stroke-linejoin:miter;stroke:rgb(0%,0%,0%);stroke-opacity:1;stroke-miterlimit:4;" d="M 144.999935 377.500472 L 134.999512 377.000244 " transform="matrix(3.779528,0,0,3.779528,0,0)"/>
<path style="fill:none;stroke-width:2;stroke-linecap:butt;stroke-linejoin:miter;stroke:rgb(0%,0%,0%);stroke-opacity:1;stroke-miterlimit:4;" d="M 77.500179 412.499886 L 61.500122 392.500073 " transform="matrix(3.779528,0,0,3.779528,0,0)"/>
<path style="fill:none;stroke-width:2;stroke-linecap:butt;stroke-linejoin:miter;stroke:rgb(0%,0%,0%);stroke-opacity:1;stroke-miterlimit:4;" d="M 66.000106 399.500163 L 78.000407 415.50022 " transform="matrix(3.779528,0,0,3.779528,0,0)"/>
<path style="fill:none;stroke-width:2;stroke-linecap:butt;stroke-linejoin:miter;stroke:rgb(0%,0%,0%);stroke-opacity:1;stroke-miterlimit:4;" d="M 67.499756 410.500008 L 48.999593 386.500439 L 46.999715 372.50026 L 30.999658 366.499593 " transform="matrix(3.779528,0,0,3.779528,0,0)"/>
<path style="fill:none;stroke-width:2;stroke-linecap:butt;stroke-linejoin:miter;stroke:rgb(0%,0%,0%);stroke-opacity:1;stroke-miterlimit:4;" d="M 28.99978 366.000399 L 35.000448 382.000456 L 48.999593 397.500285 L 60.499666 413.500342 L 66.500334 429.999593 " transform="matrix(3.779528,0,0,3.779528,0,0)"/>
<path style="fill:none;stroke-width:2;stroke-linecap:butt;stroke-linejoin:miter;stroke:rgb(0%,0%,0%);stroke-opacity:1;stroke-miterlimit:4;" d="M 51.999927 443.00035 L 35.99987 416.99987 " transform="matrix(3.779528,0,0,3.779528,0,0)"/>
<path style="fill:none;stroke-width:2;stroke-linecap:butt;stroke-linejoin:miter;stroke:rgb(0%,0%,0%);stroke-opacity:1;stroke-miterlimit:4;" d="M 30.500464 413.000114 L 33.999992 429.500399 L 44.000415 435.500033 " transform="matrix(3.779528,0,0,3.779528,0,0)"/>
<path style="fill:none;stroke-width:2;stroke-linecap:butt;stroke-linejoin:miter;stroke:rgb(0%,0%,0%);stroke-opacity:1;stroke-miterlimit:4;" d="M 55.999683 438.999561 L 50.000049 422.999504 L 44.499609 407.499674 L 24.499797 395.999601 L 8.49974 402.000269 " transform="matrix(3.779528,0,0,3.779528,0,0)"/>
<path style="fill:none;stroke-width:2;stroke-linecap:butt;stroke-linejoin:miter;stroke:rgb(0%,0%,0%);stroke-opacity:1;stroke-miterlimit:4;" d="M 5.999634 394.499951 L 7.999512 376.500016 L 32.500342 374.500138 L 38.499976 393.000301 L 54.500033 397.000057 L 50.500277 398.999935 L 58.499788 425.000415 " transform="matrix(3.779528,0,0,3.779528,0,0)"/>
<path style="fill:none;stroke-width:2;stroke-linecap:butt;stroke-linejoin:miter;stroke:rgb(0%,0%,0%);stroke-opacity:1;stroke-miterlimit:4;" d="M 49.499821 420.500431 L 33.499764 398.000513 L 17.499707 402.999691 L 1.49965 429.000171 " transform="matrix(3.779528,0,0,3.779528,0,0)"/>
<path style="fill:none;stroke-width:2;stroke-linecap:butt;stroke-linejoin:miter;stroke:rgb(0%,0%,0%);stroke-opacity:1;stroke-miterlimit:4;" d="M 3.000334 460.500057 L 19.000391 456.500301 " transform="matrix(3.779528,0,0,3.779528,0,0)"/>
<path style="fill:none;stroke-width:2;stroke-linecap:butt;stroke-linejoin:miter;stroke:rgb(0%,0%,0%);stroke-opacity:1;stroke-miterlimit:4;" d="M 39.500431 452.99974 L 33.499764 446.499878 L 29.500008 434.499577 L 15.499829 450.499634 L 13.499951 438.500366 L 5.500439 452.000317 L 7.500317 432.000505 L 5.000212 425.999837 L 7.500317 413.999536 L 17.999935 395.999601 L 6.499862 398.499707 L 6.499862 382.49965 L 14.500407 366.999821 L 12.499495 363.000065 L 10.000423 347.000008 L 16.000057 334.500513 L 7.999512 316.499544 L 17.999935 312.499788 L 9.500195 304.000049 L 23.500374 289.99987 L 21.500496 273.499585 L 16.000057 257.499528 L 13.499951 241.500505 L 19.499585 225.500448 L 17.499707 221.499658 L 21.500496 205.499601 L 19.499585 189.00035 L 29.500008 177.500277 L 41.500309 162.000448 L 39.999626 141.999601 L 23.999569 142.499829 L 7.999512 141.999601 " transform="matrix(3.779528,0,0,3.779528,0,0)"/>
<path style="fill:none;stroke-width:2;stroke-linecap:butt;stroke-linejoin:miter;stroke:rgb(0%,0%,0%);stroke-opacity:1;stroke-miterlimit:4;" d="M 1.999878 177.000049 L 17.999935 178.999927 L 10.000423 185.499788 L 7.500317 201.499845 L 5.500439 218.00013 L 3.000334 234.000187 L 7.00009 250.000244 L 3.499528 266.499495 L 3.499528 282.499552 L 5.500439 298.499609 L 13.499951 293.000203 L 17.499707 312.499788 L 41.500309 311.000138 L 49.499821 320.999528 " transform="matrix(3.779528,0,0,3.779528,0,0)"/>
<path style="fill:none;stroke-width:2;stroke-linecap:butt;stroke-linejoin:miter;stroke:rgb(0%,0%,0%);stroke-opacity:1;stroke-miterlimit:4;" d="M 45.500065 340.500146 L 35.000448 338.000041 L 7.00009 337.499813 L 1.000456 349.500114 " transform="matrix(3.779528,0,0,3.779528,0,0)"/>
<path style="fill:none;stroke-width:2;stroke-linecap:butt;stroke-linejoin:miter;stroke:rgb(0%,0%,0%);stroke-opacity:1;stroke-miterlimit:4;" d="M 1.49965 334.000285 L 21.500496 332.000407 L 10.000423 354.000098 L 5.999634 370.000155 L 21.999691 348.499658 L 28.000358 360.499959 L 44.000415 354.500326 L 60.499666 361.999609 L 72.499967 377.999666 " transform="matrix(3.779528,0,0,3.779528,0,0)"/>
<path style="fill:none;stroke-width:2;stroke-linecap:butt;stroke-linejoin:miter;stroke:rgb(0%,0%,0%);stroke-opacity:1;stroke-miterlimit:4;" d="M 67.499756 359.999731 L 69.499634 375.999788 L 73.500423 382.000456 L 76.999951 402.000269 " transform="matrix(3.779528,0,0,3.779528,0,0)"/>
<path style="fill:none;stroke-width:2;stroke-linecap:butt;stroke-linejoin:miter;stroke:rgb(0%,0%,0%);stroke-opacity:1;stroke-miterlimit:4;" d="M 49.499821 407.999902 L 55.500488 423.999959 L 47.499943 444.5 " transform="matrix(3.779528,0,0,3.779528,0,0)"/>
<path style="fill:none;stroke-width:2;stroke-linecap:butt;stroke-linejoin:miter;stroke:rgb(0%,0%,0%);stroke-opacity:1;stroke-miterlimit:4;" d="M 28.499552 435.500033 L 41.000081 431.500277 L 35.000448 415.50022 L 37.000326 399.500163 " transform="matrix(3.779528,0,0,3.779528,0,0)"/>
<path style="fill:none;stroke-width:2;stroke-linecap:butt;stroke-linejoin:miter;stroke:rgb(0%,0%,0%);stroke-opacity:1;stroke-miterlimit:4;" d="M 66.999528 444.5 L 74.499845 436.500488 L 68.500212 420.000203 L 62.499544 403.499919 L 60.499666 386.999634 L 51.999927 367.500049 L 44.000415 354.000098 L 33.999992 341.999797 L 35.99987 332.499601 L 30.000236 316.499544 " transform="matrix(3.779528,0,0,3.779528,0,0)"/>
<path style="fill:none;stroke-width:2;stroke-linecap:butt;stroke-linejoin:miter;stroke:rgb(0%,0%,0%);stroke-opacity:1;stroke-miterlimit:4;" d="M 39.500431 291.999748 L 59.500244 261.500317 L 83.499813 277.500374 L 117.499805 293.500431 L 149.499919 309.500488 L 168.999504 313.500244 L 171.499609 329.500301 L 175.999593 334.999707 L 191.99965 341.499569 L 207.999707 345.500358 L 223.999764 343.999674 L 239.999821 343.999674 L 256.500106 339.999919 L 288.50022 332.000407 L 304.500277 328.499845 L 320.500334 316.00035 L 336.500391 309.999683 L 352.00022 315.500122 L 363.999487 311.500366 " transform="matrix(3.779528,0,0,3.779528,0,0)"/>
<path style="fill:none;stroke-width:2;stroke-linecap:butt;stroke-linejoin:miter;stroke:rgb(0%,0%,0%);stroke-opacity:1;stroke-miterlimit:4;" d="M 384.999756 299.500065 L 368.500505 315.500122 L 352.500448 325.499512 L 368.500505 321.499756 L 380.499772 305.499699 L 388.00009 289.99987 L 388.00009 258.499984 L 379.999544 254.500228 L 363.999487 246.499683 L 348.000464 236.000065 " transform="matrix(3.779528,0,0,3.779528,0,0)"/>
<path style="fill:none;stroke-width:2;stroke-linecap:butt;stroke-linejoin:miter;stroke:rgb(0%,0%,0%);stroke-opacity:1;stroke-miterlimit:4;" d="M 344.499902 244.499805 L 345.00013 260.499862 L 352.999642 274.500041 L 368.999699 277.999569 " transform="matrix(3.779528,0,0,3.779528,0,0)"/>
<path style="fill:none;stroke-width:2;stroke-linecap:butt;stroke-linejoin:miter;stroke:rgb(0%,0%,0%);stroke-opacity:1;stroke-miterlimit:4;" d="M 354.000098 292.499976 L 345.999552 293.000203 " transform="matrix(3.779528,0,0,3.779528,0,0)"/>
<path style="fill:none;stroke-width:2;stroke-linecap:butt;stroke-linejoin:miter;stroke:rgb(0%,0%,0%);stroke-opacity:1;stroke-miterlimit:4;" d="M 334.500513 277.500374 L 318.500456 275.500496 " transform="matrix(3.779528,0,0,3.779528,0,0)"/>
<path style="fill:none;stroke-width:2;stroke-linecap:butt;stroke-linejoin:miter;stroke:rgb(0%,0%,0%);stroke-opacity:1;stroke-miterlimit:4;" d="M 278.499797 271.499707 L 296.499731 275.500496 L 282.499552 295.500309 L 298.499609 293.999626 L 314.000472 294.499854 L 329.500301 290.500098 L 331.500179 294.499854 L 338.000041 282.499552 L 355.999976 292.499976 L 372.50026 300.499487 " transform="matrix(3.779528,0,0,3.779528,0,0)"/>
<path style="fill:none;stroke-width:2;stroke-linecap:butt;stroke-linejoin:miter;stroke:rgb(0%,0%,0%);stroke-opacity:1;stroke-miterlimit:4;" d="M 398.999935 319.499878 L 386.500439 336.000163 L 377.000244 341.999797 L 379.000122 352.00022 L 363.000065 368.000277 L 352.999642 384.000334 L 366.999821 366.499593 L 382.49965 364.499715 L 388.500317 344.499902 L 402.500496 336.999585 L 420.500431 332.999829 " transform="matrix(3.779528,0,0,3.779528,0,0)"/>
<path style="fill:none;stroke-width:2;stroke-linecap:butt;stroke-linejoin:miter;stroke:rgb(0%,0%,0%);stroke-opacity:1;stroke-miterlimit:4;" d="M 411.000236 316.00035 L 427.000293 331.500179 L 436.999683 347.500236 L 427.000293 363.999487 L 420.999626 380.499772 " transform="matrix(3.779528,0,0,3.779528,0,0)"/>
<path style="fill:none;stroke-width:2;stroke-linecap:butt;stroke-linejoin:miter;stroke:rgb(0%,0%,0%);stroke-opacity:1;stroke-miterlimit:4;" d="M 398.999935 410.500008 L 397.000057 416.499642 L 381.500228 430.499821 L 365.500171 438.500366 L 361.000187 444.5 L 393.000301 427.999715 L 413.000114 411.999658 L 398.999935 393.499495 L 414.999992 377.999666 L 422.999504 361.999609 L 429.000171 346.49978 L 418.999748 330.499723 L 407.00048 314.499666 " transform="matrix(3.779528,0,0,3.779528,0,0)"/>
<path style="fill:none;stroke-width:2;stroke-linecap:butt;stroke-linejoin:miter;stroke:rgb(0%,0%,0%);stroke-opacity:1;stroke-miterlimit:4;" d="M 447.000106 313.500244 L 436.500488 301.499943 L 441.999894 295.500309 L 442.500122 287.499764 L 442.500122 273.000391 L 448.999984 255.000456 L 461.500513 239.000399 L 443.999772 236.999487 L 427.999715 234.999609 L 411.999658 234.500415 L 396.499829 232.999731 L 380.499772 231.500081 L 364.499715 228.999976 " transform="matrix(3.779528,0,0,3.779528,0,0)"/>
<path style="fill:none;stroke-width:2;stroke-linecap:butt;stroke-linejoin:miter;stroke:rgb(0%,0%,0%);stroke-opacity:1;stroke-miterlimit:4;" d="M 392.500073 249.500016 L 391.999845 265.500073 L 391.999845 296.999959 L 384.000334 313.000016 L 374.500138 328.499845 L 370.500382 346.49978 L 355.999976 362.499837 L 343.999674 378.499894 L 334.000285 394.499951 L 309.999683 410.500008 L 268.000179 425.999837 L 233.499959 434.499577 L 217.499902 454.500423 L 168.000081 470.50048 L 126.499772 486.499504 L 100.500326 502.499561 L 100.500326 502.000366 L 116.500382 491.999943 L 132.500439 483.500203 L 148.500496 477.499536 L 164.49952 471.499902 L 180.499577 466.000496 L 196.499634 461.999707 L 228.499748 450.000439 L 244.499805 443.999772 L 259.999634 441.999894 L 275.999691 438.000138 L 291.999748 427.499487 L 323.999862 415.50022 L 339.999919 409.99978 L 356.500203 404.000146 L 372.50026 395.999601 L 396.499829 395.999601 L 412.499886 379.999544 L 426.500065 361.999609 L 450.499634 348.000464 L 466.000496 336.000163 " transform="matrix(3.779528,0,0,3.779528,0,0)"/>
<path style="fill:none;stroke-width:2;stroke-linecap:butt;stroke-linejoin:miter;stroke:rgb(0%,0%,0%);stroke-opacity:1;stroke-miterlimit:4;" d="M 491.499715 343.50048 L 475.499658 359.999731 L 479.00022 340.500146 L 488.999609 324.50009 L 493.000399 304.500277 L 504.500472 288.50022 " transform="matrix(3.779528,0,0,3.779528,0,0)"/>
<path style="fill:none;stroke-width:2;stroke-linecap:butt;stroke-linejoin:miter;stroke:rgb(0%,0%,0%);stroke-opacity:1;stroke-miterlimit:4;" d="M 479.500448 316.00035 L 485.500081 300.499487 L 487.499959 284.500464 L 489.499837 268.500407 L 485.500081 252.50035 " transform="matrix(3.779528,0,0,3.779528,0,0)"/>
<path style="fill:none;stroke-width:2;stroke-linecap:butt;stroke-linejoin:miter;stroke:rgb(0%,0%,0%);stroke-opacity:1;stroke-miterlimit:4;" d="M 481.99952 252.999544 L 484.000431 268.999601 L 483.500203 284.999658 L 479.500448 300.999715 L 475.499658 316.999772 L 463.500391 325.000317 L 459.000407 340.500146 L 477.000342 332.499601 L 493.499593 307.999805 L 505.499894 293.999626 " transform="matrix(3.779528,0,0,3.779528,0,0)"/>
<path style="fill:none;stroke-width:2;stroke-linecap:butt;stroke-linejoin:miter;stroke:rgb(0%,0%,0%);stroke-opacity:1;stroke-miterlimit:4;" d="M 463.000163 250.500472 L 466.499691 266.499495 L 466.499691 282.000358 L 464.499813 298.000415 L 456.000073 314.499666 L 447.999528 330.499723 L 443.999772 345.999552 L 432.000505 355.499748 L 429.500399 370.999577 L 423.499731 368.500505 L 437.49991 370.000155 " transform="matrix(3.779528,0,0,3.779528,0,0)"/>
<path style="fill:none;stroke-width:2;stroke-linecap:butt;stroke-linejoin:miter;stroke:rgb(0%,0%,0%);stroke-opacity:1;stroke-miterlimit:4;" d="M 440.500244 334.000285 L 446.499878 317.5 L 450.000439 301.499943 L 449.500212 285.499886 L 445.000228 269.499829 L 414.999992 254 " transform="matrix(3.779528,0,0,3.779528,0,0)"/>
<path style="fill:none;stroke-width:2;stroke-linecap:butt;stroke-linejoin:miter;stroke:rgb(0%,0%,0%);stroke-opacity:1;stroke-miterlimit:4;" d="M 401.500041 244.499805 L 403.499919 260.499862 L 414.999992 260.499862 L 425.000415 264.499618 L 432.499699 277.999569 " transform="matrix(3.779528,0,0,3.779528,0,0)"/>
<path style="fill:none;stroke-width:2;stroke-linecap:butt;stroke-linejoin:miter;stroke:rgb(0%,0%,0%);stroke-opacity:1;stroke-miterlimit:4;" d="M 409.000358 207.999707 L 425.000415 212.000496 L 441.000472 214.000374 L 459.000407 216.000252 L 475.000464 214.000374 L 490.999487 216.000252 L 506.999544 216.000252 " transform="matrix(3.779528,0,0,3.779528,0,0)"/>
<path style="fill:none;stroke-width:2;stroke-linecap:butt;stroke-linejoin:miter;stroke:rgb(0%,0%,0%);stroke-opacity:1;stroke-miterlimit:4;" d="M 345.999552 198.000317 L 329.999495 196.000439 " transform="matrix(3.779528,0,0,3.779528,0,0)"/>
<path style="fill:none;stroke-width:2;stroke-linecap:butt;stroke-linejoin:miter;stroke:rgb(0%,0%,0%);stroke-opacity:1;stroke-miterlimit:4;" d="M 350.000342 193.500334 L 334.000285 191.000228 L 318.500456 194.999984 L 302.500399 187.000472 L 286.000114 185.499788 L 270.000057 191.500456 L 254 191.99965 L 237.499715 189.999772 L 221.999886 196.000439 L 205.999829 203.999951 L 189.999772 209.999585 L 173.999715 220.000008 L 157.999658 227.99952 " transform="matrix(3.779528,0,0,3.779528,0,0)"/>
<path style="fill:none;stroke-width:2;stroke-linecap:butt;stroke-linejoin:miter;stroke:rgb(0%,0%,0%);stroke-opacity:1;stroke-miterlimit:4;" d="M 159.000114 234.500415 L 153.00048 240.500049 L 153.00048 255.999878 L 166.999626 271.999935 L 202.500301 287.999992 L 204.500179 297.500187 L 210.499813 301.499943 L 218.500358 309.999683 L 208.499935 318.000228 L 225.00022 311.999561 L 232.999731 304.000049 " transform="matrix(3.779528,0,0,3.779528,0,0)"/>
<path style="fill:none;stroke-width:2;stroke-linecap:butt;stroke-linejoin:miter;stroke:rgb(0%,0%,0%);stroke-opacity:1;stroke-miterlimit:4;" d="M 266.000301 303.499821 L 281.50013 301.499943 " transform="matrix(3.779528,0,0,3.779528,0,0)"/>
<path style="fill:none;stroke-width:2;stroke-linecap:butt;stroke-linejoin:miter;stroke:rgb(0%,0%,0%);stroke-opacity:1;stroke-miterlimit:4;" d="M 267.499951 259.500439 L 283.500008 257.499528 L 299.500065 253.499772 L 313.500244 251.499894 " transform="matrix(3.779528,0,0,3.779528,0,0)"/>
<path style="fill:none;stroke-width:2;stroke-linecap:butt;stroke-linejoin:miter;stroke:rgb(0%,0%,0%);stroke-opacity:1;stroke-miterlimit:4;" d="M 298.000415 189.00035 L 289.99987 205.499601 L 261.999512 237.499715 L 259.999634 247.500138 L 254 257.499528 L 259.999634 279.500252 L 258.499984 295.500309 L 250.500472 307.499577 L 250.999666 311.500366 " transform="matrix(3.779528,0,0,3.779528,0,0)"/>
<path style="fill:none;stroke-width:2;stroke-linecap:butt;stroke-linejoin:miter;stroke:rgb(0%,0%,0%);stroke-opacity:1;stroke-miterlimit:4;" d="M 198.99974 307.000382 L 196.999862 290.500098 L 162.499642 274.500041 " transform="matrix(3.779528,0,0,3.779528,0,0)"/>
<path style="fill:none;stroke-width:2;stroke-linecap:butt;stroke-linejoin:miter;stroke:rgb(0%,0%,0%);stroke-opacity:1;stroke-miterlimit:4;" d="M 135.49974 265.500073 L 119.499683 271.499707 L 103.999854 265.500073 L 87.999797 259.000212 L 72.499967 257.499528 L 64.500456 249.500016 L 60.499666 261.999512 L 44.499609 266.499495 " transform="matrix(3.779528,0,0,3.779528,0,0)"/>
<path style="fill:none;stroke-width:2;stroke-linecap:butt;stroke-linejoin:miter;stroke:rgb(0%,0%,0%);stroke-opacity:1;stroke-miterlimit:4;" d="M 45.500065 263.500195 L 37.49952 279.500252 L 33.999992 295.500309 L 33.999992 311.999561 L 39.500431 327.999618 L 39.500431 341.999797 L 39.999626 357.999854 L 39.999626 373.499683 L 38.499976 377.500472 L 50.500277 381.500228 L 53.999805 397.500285 L 67.999984 393.499495 L 82.000163 409.499552 L 87.999797 425.499609 " transform="matrix(3.779528,0,0,3.779528,0,0)"/>
<path style="fill:none;stroke-width:2;stroke-linecap:butt;stroke-linejoin:miter;stroke:rgb(0%,0%,0%);stroke-opacity:1;stroke-miterlimit:4;" d="M 19.999813 293.500431 L 17.499707 277.999569 L 11.500073 261.999512 L 3.499528 254 " transform="matrix(3.779528,0,0,3.779528,0,0)"/>
<path style="fill:none;stroke-width:2;stroke-linecap:butt;stroke-linejoin:miter;stroke:rgb(0%,0%,0%);stroke-opacity:1;stroke-miterlimit:4;" d="M 23.500374 261.500317 L 23.500374 245.50026 L 23.999569 233.499959 L 5.999634 241.999699 L 10.499618 221.999886 L 14.999601 206.500057 L 17.000513 190.5 L 15.499829 186.500244 " transform="matrix(3.779528,0,0,3.779528,0,0)"/>
<path style="fill:none;stroke-width:2;stroke-linecap:butt;stroke-linejoin:miter;stroke:rgb(0%,0%,0%);stroke-opacity:1;stroke-miterlimit:4;" d="M 26.999902 182.999683 L 35.000448 182.999683 L 53.000382 180.999805 L 70.50009 182.500488 L 85.999919 180.000382 L 101.999976 182.00026 L 118.000033 185.499788 " transform="matrix(3.779528,0,0,3.779528,0,0)"/>
<path style="fill:none;stroke-width:2;stroke-linecap:butt;stroke-linejoin:miter;stroke:rgb(0%,0%,0%);stroke-opacity:1;stroke-miterlimit:4;" d="M 135.49974 171.999837 L 151.499797 166.000203 L 167.499854 148.000269 L 183.49991 137.999845 L 169.499731 153.499674 L 159.999536 168.999504 L 153.999902 185.499788 " transform="matrix(3.779528,0,0,3.779528,0,0)"/>
<path style="fill:none;stroke-width:2;stroke-linecap:butt;stroke-linejoin:miter;stroke:rgb(0%,0%,0%);stroke-opacity:1;stroke-miterlimit:4;" d="M 177.500277 180.999805 L 193.500334 184.500366 " transform="matrix(3.779528,0,0,3.779528,0,0)"/>
<path style="fill:none;stroke-width:2;stroke-linecap:butt;stroke-linejoin:miter;stroke:rgb(0%,0%,0%);stroke-opacity:1;stroke-miterlimit:4;" d="M 215.500024 160.499764 L 199.499967 144.499707 " transform="matrix(3.779528,0,0,3.779528,0,0)"/>
<path style="fill:none;stroke-width:2;stroke-linecap:butt;stroke-linejoin:miter;stroke:rgb(0%,0%,0%);stroke-opacity:1;stroke-miterlimit:4;" d="M 203.999951 137.999845 L 220.000008 137.999845 L 236.500293 137.499618 L 252.50035 137.999845 L 284.999658 137.999845 L 300.999715 138.500073 L 316.499544 138.500073 L 332.000407 137.999845 L 411.999658 137.999845 L 427.999715 138.500073 L 508 138.500073 " transform="matrix(3.779528,0,0,3.779528,0,0)"/>
<path style="fill:none;stroke-width:2;stroke-linecap:butt;stroke-linejoin:miter;stroke:rgb(0%,0%,0%);stroke-opacity:1;stroke-miterlimit:4;" d="M 500.99991 142.499829 L 484.999854 142.499829 L 468.499569 141.999601 L 452.499512 141.500407 L 436.999683 141.500407 L 421.499854 141.000179 L 405.499797 140.499951 L 389.999967 141.000179 L 341.499569 141.000179 L 325.99974 141.500407 L 309.999683 141.999601 L 277.500374 141.999601 L 261.999512 144.499707 L 246.000488 142.499829 L 230.000431 141.999601 L 214.000374 141.500407 " transform="matrix(3.779528,0,0,3.779528,0,0)"/>
<path style="fill:none;stroke-width:2;stroke-linecap:butt;stroke-linejoin:miter;stroke:rgb(0%,0%,0%);stroke-opacity:1;stroke-miterlimit:4;" d="M 199.499967 161.50022 L 182.999683 159.999536 L 166.999626 162.000448 " transform="matrix(3.779528,0,0,3.779528,0,0)"/>
<path style="fill:none;stroke-width:2;stroke-linecap:butt;stroke-linejoin:miter;stroke:rgb(0%,0%,0%);stroke-opacity:1;stroke-miterlimit:4;" d="M 144.000513 163.500098 L 130.000334 163.500098 L 129.500106 179.500155 L 141.500407 191.500456 L 145.500163 187.499666 L 162.000448 162.000448 L 178.000505 145.500163 L 191.99965 145.500163 L 207.999707 162.000448 L 223.999764 184.000138 L 237.999943 190.5 L 200.000195 206.500057 L 169.999959 221.999886 L 148.000269 237.999943 L 148.000269 253.499772 L 142.499829 268.999601 L 162.499642 275.500496 L 194.499756 288.50022 L 211.000041 298.499609 " transform="matrix(3.779528,0,0,3.779528,0,0)"/>
<path style="fill:none;stroke-width:2;stroke-linecap:butt;stroke-linejoin:miter;stroke:rgb(0%,0%,0%);stroke-opacity:1;stroke-miterlimit:4;" d="M 224.499992 308.500033 L 228.499748 300.499487 L 232.499504 292.499976 L 244.499805 284.500464 L 244.499805 268.500407 L 242.499927 252.50035 " transform="matrix(3.779528,0,0,3.779528,0,0)"/>
<path style="fill:none;stroke-width:2;stroke-linecap:butt;stroke-linejoin:miter;stroke:rgb(0%,0%,0%);stroke-opacity:1;stroke-miterlimit:4;" d="M 239.999821 246.000488 L 232.000309 261.999512 " transform="matrix(3.779528,0,0,3.779528,0,0)"/>
<path style="fill:none;stroke-width:2;stroke-linecap:butt;stroke-linejoin:miter;stroke:rgb(0%,0%,0%);stroke-opacity:1;stroke-miterlimit:4;" d="M 228.999976 270.000057 L 225.00022 260.499862 L 211.000041 244.499805 " transform="matrix(3.779528,0,0,3.779528,0,0)"/>
<path style="fill:none;stroke-width:2;stroke-linecap:butt;stroke-linejoin:miter;stroke:rgb(0%,0%,0%);stroke-opacity:1;stroke-miterlimit:4;" d="M 195.500212 258.499984 L 191.500456 258.499984 L 193.500334 242.499927 L 177.500277 242.499927 L 179.500155 238.500171 " transform="matrix(3.779528,0,0,3.779528,0,0)"/>
<path style="fill:none;stroke-width:2;stroke-linecap:butt;stroke-linejoin:miter;stroke:rgb(0%,0%,0%);stroke-opacity:1;stroke-miterlimit:4;" d="M 173.999715 237.999943 L 173.499487 254 L 186.000016 254.500228 L 191.99965 244.499805 L 212.499691 243.999577 L 232.499504 249.500016 L 252.999544 250.000244 L 268.999601 230.000431 L 279.000024 230.000431 L 295.000081 225.999642 L 311.000138 223.999764 L 327.000195 221.499658 L 343.000252 227.000098 L 352.999642 225.00022 L 361.000187 228.999976 L 376.500016 225.00022 L 393.000301 227.000098 L 409.000358 228.999976 L 425.000415 229.500203 L 441.000472 231.500081 L 456.999495 236.000065 L 472.999552 233.499959 L 504.999666 237.499715 " transform="matrix(3.779528,0,0,3.779528,0,0)"/>
<path style="fill:none;stroke-width:2;stroke-linecap:butt;stroke-linejoin:miter;stroke:rgb(0%,0%,0%);stroke-opacity:1;stroke-miterlimit:4;" d="M 502.000366 221.499658 L 495.999699 209.500391 L 448.499756 209.500391 L 430.499821 207.500513 L 414.499764 203.499723 L 398.499707 207.500513 L 382.49965 205.499601 L 366.499593 209.500391 L 350.499536 213.500146 L 334.500513 209.500391 L 324.50009 207.999707 L 312.499788 206.500057 L 293.999626 192.499878 L 277.999569 192.499878 L 256.500106 188.500122 L 240.500049 186.500244 L 224.499992 174.499943 L 208.499935 166.500431 L 188.500122 166.999626 L 173.000293 178.499699 L 170.500187 180.499577 L 176.499821 178.000505 L 168.500309 162.499642 L 166.500431 150.000146 L 193.999528 139.999723 L 193.999528 116.000155 " transform="matrix(3.779528,0,0,3.779528,0,0)"/>
<path style="fill:none;stroke-width:2;stroke-linecap:butt;stroke-linejoin:miter;stroke:rgb(0%,0%,0%);stroke-opacity:1;stroke-miterlimit:4;" d="M 187.000472 141.500407 L 200.999618 157.500464 L 187.499666 171.499609 L 191.500456 175.500399 L 193.999528 182.999683 " transform="matrix(3.779528,0,0,3.779528,0,0)"/>
<path style="fill:none;stroke-width:2;stroke-linecap:butt;stroke-linejoin:miter;stroke:rgb(0%,0%,0%);stroke-opacity:1;stroke-miterlimit:4;" d="M 220.000008 192.499878 L 203.999951 198.99974 L 187.999894 207.000285 L 171.999837 214.499569 L 155.99978 224.499992 L 139.999723 224.499992 L 123.500472 226.49987 L 91.500358 218.500358 L 75.000073 214.499569 L 58.499788 210.499813 L 42.499731 209.000163 " transform="matrix(3.779528,0,0,3.779528,0,0)"/>
<path style="fill:none;stroke-width:2;stroke-linecap:butt;stroke-linejoin:miter;stroke:rgb(0%,0%,0%);stroke-opacity:1;stroke-miterlimit:4;" d="M 37.999748 207.500513 L 53.999805 193.500334 L 75.999495 182.999683 L 91.999552 184.999561 L 108.499837 189.499544 L 124.499894 191.500456 L 140.499951 187.000472 L 156.500008 187.000472 L 172.500065 189.00035 L 188.500122 191.500456 " transform="matrix(3.779528,0,0,3.779528,0,0)"/>
<path style="fill:none;stroke-width:2;stroke-linecap:butt;stroke-linejoin:miter;stroke:rgb(0%,0%,0%);stroke-opacity:1;stroke-miterlimit:4;" d="M 137.000423 159.999536 L 133.499862 175.999593 L 137.000423 155.499552 " transform="matrix(3.779528,0,0,3.779528,0,0)"/>
<path style="fill:none;stroke-width:2;stroke-linecap:butt;stroke-linejoin:miter;stroke:rgb(0%,0%,0%);stroke-opacity:1;stroke-miterlimit:4;" d="M 112.999821 225.00022 L 106.499959 241.000277 L 119.000488 241.000277 " transform="matrix(3.779528,0,0,3.779528,0,0)"/>
<path style="fill:none;stroke-width:2;stroke-linecap:butt;stroke-linejoin:miter;stroke:rgb(0%,0%,0%);stroke-opacity:1;stroke-miterlimit:4;" d="M 114.500505 266.000301 L 76.999951 249.500016 L 51.000505 247.500138 L 44.999837 233.499959 L 46.999715 217.499902 L 46.999715 214.000374 " transform="matrix(3.779528,0,0,3.779528,0,0)"/>
<path style="fill:none;stroke-width:2;stroke-linecap:butt;stroke-linejoin:miter;stroke:rgb(0%,0%,0%);stroke-opacity:1;stroke-miterlimit:4;" d="M 51.999927 214.499569 L 53.499577 230.000431 L 79.500057 245.50026 L 117.499805 261.500317 " transform="matrix(3.779528,0,0,3.779528,0,0)"/>
<path style="fill:none;stroke-width:2;stroke-linecap:butt;stroke-linejoin:miter;stroke:rgb(0%,0%,0%);stroke-opacity:1;stroke-miterlimit:4;" d="M 118.50026 257.000334 L 103.000431 250.500472 L 94.999886 246.499683 L 83.499813 242.499927 L 77.500179 244.499805 L 67.499756 240.500049 L 51.499699 236.500293 L 45.500065 246.99991 L 35.499642 275.000269 L 28.99978 266.999723 L 19.000391 255.000456 L 23.000146 239.000399 L 26.999902 207.000285 L 32.500342 197.50009 L 58.499788 191.000228 L 36.500098 193.000106 L 32.500342 209.000163 " transform="matrix(3.779528,0,0,3.779528,0,0)"/>
<path style="fill:none;stroke-width:2;stroke-linecap:butt;stroke-linejoin:miter;stroke:rgb(0%,0%,0%);stroke-opacity:1;stroke-miterlimit:4;" d="M 57.999561 216.50048 L 73.999618 221.000464 L 89.50048 223.000342 L 83.499813 225.00022 " transform="matrix(3.779528,0,0,3.779528,0,0)"/>
<path style="fill:none;stroke-width:2;stroke-linecap:butt;stroke-linejoin:miter;stroke:rgb(0%,0%,0%);stroke-opacity:1;stroke-miterlimit:4;" d="M 94.499658 225.00022 L 100.500326 240.500049 " transform="matrix(3.779528,0,0,3.779528,0,0)"/>
<path style="fill:none;stroke-width:2;stroke-linecap:butt;stroke-linejoin:miter;stroke:rgb(0%,0%,0%);stroke-opacity:1;stroke-miterlimit:4;" d="M 49.499821 264.999845 L 77.500179 280.999902 L 117.499805 293.500431 L 133.499862 303.499821 L 141.500407 298.000415 L 157.500464 305.999927 L 167.499854 311.999561 L 183.49991 317.5 L 181.500033 333.500057 L 197.50009 339.999919 L 213.500146 339.999919 L 229.500203 338.000041 L 246.000488 338.000041 L 261.999512 334.000285 " transform="matrix(3.779528,0,0,3.779528,0,0)"/>
<path style="fill:none;stroke-width:2;stroke-linecap:butt;stroke-linejoin:miter;stroke:rgb(0%,0%,0%);stroke-opacity:1;stroke-miterlimit:4;" d="M 48.500399 320.000106 L 40.499854 307.499577 L 46.499487 291.49952 L 53.999805 275.500496 " transform="matrix(3.779528,0,0,3.779528,0,0)"/>
<path style="fill:none;stroke-width:2;stroke-linecap:butt;stroke-linejoin:miter;stroke:rgb(0%,0%,0%);stroke-opacity:1;stroke-miterlimit:4;" d="M 52.500155 273.000391 L 42.499731 289.499642 L 44.000415 315.500122 L 35.99987 317.5 L 51.999927 325.99974 " transform="matrix(3.779528,0,0,3.779528,0,0)"/>
<path style="fill:none;stroke-width:2;stroke-linecap:butt;stroke-linejoin:miter;stroke:rgb(0%,0%,0%);stroke-opacity:1;stroke-miterlimit:4;" d="M 34.50022 449.500212 L 54.500033 445.99965 L 46.499487 423.999959 L 37.999748 407.999902 L 30.000236 402.000269 L 33.999992 393.999723 L 22.499919 377.999666 L 28.499552 362.499837 L 24.499797 354.500326 L 28.499552 338.500269 L 26.499674 322.500212 L 28.99978 306.500155 L 30.999658 290.500098 L 34.50022 274.500041 L 33.999992 260.499862 L 39.999626 260.499862 L 46.000293 244.499805 L 35.99987 228.499748 L 32.000114 212.000496 L 43.500187 195.500212 L 47.499943 178.999927 L 45.500065 171.000415 L 45.500065 155.000358 " transform="matrix(3.779528,0,0,3.779528,0,0)"/>
</g>
</svg>
