<svg xmlns="http://www.w3.org/2000/svg" width="512mm" height="512mm" viewBox="0 0 512 512" version="1.1"><polyline points="197.5,118.5,199.5,134.5,199.5,150.5,213.5,166.5,213.5,171.0,223.5,187.0,195.5,203.0,165.5,219.0,127.0,237.0,135.0,236.5,130.5,252.5,127.0,252.5,127.0,268.5,137.0,272.5,151.5,270.0,167.5,271.5,183.5,277.0,199.5,283.0,215.5,287.0,231.5,288.5,244.0,298.5,260.0,300.5,264.5,284.5,272.5,293.0,280.5,279.0,288.5,283.0,304.5,281.0,310.5,267.5,326.5,263.5,344.5,269.5,360.5,269.5" stroke="black" stroke-width="2" fill="none" />
<polyline points="352.5,245.5,368.5,252.0,380.0,256.0,377.5,271.5,381.5,287.5" stroke="black" stroke-width="2" fill="none" />
<polyline points="410.0,280.0,426.0,288.0" stroke="black" stroke-width="2" fill="none" />
<polyline points="430.5,299.0,414.0,282.5" stroke="black" stroke-width="2" fill="none" />
<polyline points="415.5,279.5,431.5,295.5,444.0,311.5" stroke="black" stroke-width="2" fill="none" />
<polyline points="454.0,317.5,438.0,337.5,422.0,311.5,424.0,307.0,420.5,305.0" stroke="black" stroke-width="2" fill="none" />
<polyline points="421.0,306.5,429.0,322.5,438.5,338.5" stroke="black" stroke-width="2" fill="none" />
<polyline points="436.5,310.0,425.0,294.0,415.0,277.5,413.5,261.0" stroke="black" stroke-width="2" fill="none" />
<polyline points="411.0,257.5,427.5,263.5,443.0,271.5" stroke="black" stroke-width="2" fill="none" />
<polyline points="420.0,273.5,404.0,255.5" stroke="black" stroke-width="2" fill="none" />
<polyline points="401.5,250.0,417.5,254.0,433.5,260.5,450.0,272.5" stroke="black" stroke-width="2" fill="none" />
<polyline points="458.5,248.5,456.5,264.5,456.5,288.5,454.5,304.5,454.5,332.5,450.5,340.5" stroke="black" stroke-width="2" fill="none" />
<polyline points="478.5,353.0,494.5,331.0,510.0,317.5,504.0,335.0,500.0,341.0,490.0,356.5,476.0,372.5,468.5,384.0,470.5,400.0,470.5,415.5,453.0,435.5,435.0,453.5,411.0,470.0,389.0,486.0,377.0,504.5,385.0,488.5,401.0,476.5,417.5,468.5,433.5,456.5" stroke="black" stroke-width="2" fill="none" />
<polyline points="406.5,491.5,390.5,497.5,400.5,497.5,416.5,497.5,428.5,481.5,440.5,465.5,462.5,455.5,470.5,430.0,480.5,414.5,478.0,388.5,490.0,364.5,506.5,348.5,490.5,356.5,474.5,374.5" stroke="black" stroke-width="2" fill="none" />
<polyline points="478.5,388.0,480.5,374.0,496.5,358.0,512.0,348.0,498.0,364.5,492.0,382.5,492.0,398.5,486.0,414.5,476.0,430.5,476.0,412.5,483.5,402.5,486.0,408.5" stroke="black" stroke-width="2" fill="none" />
<polyline points="488.0,389.0,489.5,377.5,505.5,379.5,507.5,387.5,508.0,362.0" stroke="black" stroke-width="2" fill="none" />
<polyline points="513.0,358.5,509.0,368.0,511.0,384.0,499.0,395.5,500.5,409.5,486.0,425.5,476.0,441.5,465.5,457.5,455.5,469.5,471.5,450.0,487.5,420.0,503.5,405.5" stroke="black" stroke-width="2" fill="none" />
<polyline points="463.0,388.0,463.0,403.5,463.0,419.0,465.0,435.0,459.0,451.0,446.5,467.0,435.0,483.0,423.0,499.0,415.0,501.5,431.0,479.5" stroke="black" stroke-width="2" fill="none" />
<polyline points="444.5,430.0,428.0,442.0,411.5,450.0,395.0,463.5,379.0,473.5,363.0,483.5,347.5,497.5,349.5,503.5,368.0,487.5,394.0,471.5,420.5,455.0,443.0,439.0,459.0,419.5,449.0,406.0,453.0,390.0,439.0,377.5,446.5,361.5,462.5,345.5,468.0,329.0,466.0,313.5,468.0,297.5,470.0,281.5,470.0,266.0,466.5,250.0,462.5,238.0" stroke="black" stroke-width="2" fill="none" />
<polyline points="468.5,237.5,485.0,239.5,501.0,241.5" stroke="black" stroke-width="2" fill="none" />
<polyline points="486.0,251.0,502.0,265.0,501.5,270.5" stroke="black" stroke-width="2" fill="none" />
<polyline points="492.5,263.5,492.5,283.5,489.5,299.5,488.0,315.5,478.0,331.5,470.0,348.0,466.0,364.0,454.5,379.5,446.5,387.5,462.0,371.0,476.0,345.0,492.0,319.0,504.0,297.5" stroke="black" stroke-width="2" fill="none" />
<polyline points="508.0,292.5,508.0,317.0,491.5,333.0,481.5,348.5,481.5,354.5,469.5,370.0,464.0,382.0,455.5,398.0,452.0,414.0,444.0,430.0,420.0,446.0,398.0,462.5,374.0,478.0,351.5,494.0,339.5,509.5,357.5,495.0,373.5,483.5,389.5,475.5,405.5,461.5,421.5,455.5,438.0,443.5,441.5,447.5,469.5,436.0,485.5,414.0,503.5,402.0" stroke="black" stroke-width="2" fill="none" />
<polyline points="459.0,450.0,443.0,474.5,427.0,494.5,407.0,496.5,388.5,508.0,402.5,492.0,406.0,478.0,432.0,461.5,443.5,451.5,427.5,465.5,411.0,475.5,394.5,487.5,378.5,493.5" stroke="black" stroke-width="2" fill="none" />
<polyline points="372.0,465.0,388.0,457.0,387.5,450.5,379.5,452.5,378.0,455.0,394.0,449.0" stroke="black" stroke-width="2" fill="none" />
<polyline points="394.0,410.5,384.0,426.0,351.5,442.5,331.5,456.5,334.0,458.5,350.5,448.5,366.5,442.5,382.5,434.0,398.5,424.0,414.5,409.5,430.5,407.5,446.5,407.5,474.5,384.0,490.5,372.0,506.5,356.0" stroke="black" stroke-width="2" fill="none" />
<polyline points="443.5,355.5,428.0,331.0,412.5,315.0,394.5,325.0,378.5,333.0,350.5,353.5,342.5,379.5,326.5,385.5" stroke="black" stroke-width="2" fill="none" />
<polyline points="349.0,368.5,364.5,352.5,380.5,350.0" stroke="black" stroke-width="2" fill="none" />
<polyline points="376.0,326.0,363.5,326.0,355.5,356.0,340.0,368.0,336.0,360.0,342.5,344.0,337.0,354.5,343.0,366.5,355.0,350.5,357.5,334.5,347.5,318.0,357.5,302.0,347.0,286.0,343.0,262.0,343.0,246.0,338.5,230.0,324.0,231.5,308.0,235.0,291.5,237.0,275.5,239.0" stroke="black" stroke-width="2" fill="none" />
<polyline points="278.0,224.5,294.0,222.5,310.0,218.0" stroke="black" stroke-width="2" fill="none" />
<polyline points="302.0,197.5,318.0,213.5,340.0,216.0,356.0,222.0,350.0,239.5,374.5,255.5,368.0,271.5,374.0,285.5,374.0,305.5,358.5,321.5,363.0,343.5,352.5,360.0,353.0,376.0,353.0,376.0,381.0,376.0,405.0,370.0" stroke="black" stroke-width="2" fill="none" />
<polyline points="400.0,374.0,416.0,358.0" stroke="black" stroke-width="2" fill="none" />
<polyline points="403.0,321.5,397.0,337.5,394.5,350.0,388.5,356.0,390.5,362.0,378.5,378.0,368.0,404.0,326.0,414.5,288.0,430.5,266.0,455.0,244.0,471.0,212.0,487.0,174.5,497.0,142.5,504.5,139.0,510.5,153.0,506.0,169.0,500.0,185.0,491.5,200.5,487.5,214.5,477.5,230.5,469.5,246.5,455.5,263.0,447.5,279.0,443.5,294.5,433.0,310.0,427.5,326.0,421.5,342.5,414.0,358.5,410.5" stroke="black" stroke-width="2" fill="none" />
<polyline points="367.5,422.5,351.5,436.5,336.0,445.0,320.0,459.0,304.5,469.0,288.0,477.0,272.0,485.0,256.0,495.0,240.0,503.0,224.0,510.5,244.0,500.0,271.5,483.5,303.5,467.5,325.5,451.5,349.5,435.0,371.5,419.0,379.5,403.0" stroke="black" stroke-width="2" fill="none" />
<polyline points="375.5,401.5,361.5,417.5,341.5,433.5,317.5,450.0,297.0,466.5,273.0,476.5,247.0,493.0,213.5,509.0,219.5,507.0,236.0,498.5,252.0,490.5,268.0,480.5,284.0,466.5,292.0,470.0,307.5,457.5,323.5,445.5,339.5,435.0,355.5,423.0,372.0,407.0" stroke="black" stroke-width="2" fill="none" />
<polyline points="335.5,432.0,319.5,433.5,303.0,442.0,287.0,452.0,271.0,458.0,255.5,469.5,239.5,479.5,223.5,486.0,208.0,494.0,192.0,498.0,176.0,507.5,164.0,507.5,166.0,505.5,178.0,501.5" stroke="black" stroke-width="2" fill="none" />
<polyline points="180.5,480.0,164.5,486.5,196.5,470.5" stroke="black" stroke-width="2" fill="none" />
<polyline points="187.5,468.0,149.5,484.0,111.0,500.5,105.0,504.5,121.5,498.5,137.5,494.5,153.5,482.5,169.5,476.0,185.5,470.0" stroke="black" stroke-width="2" fill="none" />
<polyline points="237.0,480.5,263.0,464.5,293.0,454.5,321.0,438.5,317.0,441.0,301.0,451.0,285.5,459.0,268.0,453.0,252.0,467.0,236.5,475.0,220.5,483.0,222.5,486.5,234.5,466.5,254.5,451.0,294.5,435.0,332.0,419.0,372.0,397.0,383.5,380.5,401.5,364.5,411.0,354.0,395.0,368.0,379.0,384.0,363.0,384.0,347.0,390.0,331.0,396.0,315.0,408.0,299.5,414.0,283.5,420.0,268.0,426.0,252.5,432.0,236.5,437.5" stroke="black" stroke-width="2" fill="none" />
<polyline points="233.5,433.5,249.5,427.5,265.5,421.5,281.5,415.5,298.0,409.5,314.0,403.5,326.0,387.5,311.5,403.0,267.0,419.0" stroke="black" stroke-width="2" fill="none" />
<polyline points="241.5,454.0,215.0,470.0,227.0,461.5" stroke="black" stroke-width="2" fill="none" />
<polyline points="237.5,452.0,221.0,460.0,205.0,474.0,189.0,482.0,173.0,487.5,157.0,493.5,183.0,483.5,209.5,468.0,238.0,452.0" stroke="black" stroke-width="2" fill="none" />
<polyline points="289.5,448.5,315.5,432.0" stroke="black" stroke-width="2" fill="none" />
<polyline points="307.0,326.0,330.5,320.5,310.0,321.0,293.5,327.0,277.5,331.5,265.5,327.5,264.0,301.5,250.5,289.5,248.5,273.0,249.0,256.5,253.0,240.5,267.5,224.5,283.5,208.5,295.5,192.5,299.5,198.5,283.5,215.0" stroke="black" stroke-width="2" fill="none" />
<polyline points="286.5,202.0,270.5,220.0,254.5,238.0,238.5,244.0,222.5,242.0,206.0,236.0,190.0,235.5,174.0,231.5,172.0,235.5,156.0,232.0,138.0,230.0,126.5,240.0,110.5,228.0,90.5,222.0,76.5,232.0,72.5,226.0,62.5,225.5,62.5,225.5" stroke="black" stroke-width="2" fill="none" />
<polyline points="67.5,221.5,71.5,237.5,105.5,253.5" stroke="black" stroke-width="2" fill="none" />
<polyline points="88.0,255.0,104.5,262.5,121.0,265.0" stroke="black" stroke-width="2" fill="none" />
<polyline points="104.0,257.0,88.5,255.0,72.0,249.0,56.0,241.0" stroke="black" stroke-width="2" fill="none" />
<polyline points="50.0,248.5,74.0,254.0,102.0,265.5" stroke="black" stroke-width="2" fill="none" />
<polyline points="102.0,292.0,86.0,284.5,70.0,276.5,54.0,268.5" stroke="black" stroke-width="2" fill="none" />
<polyline points="51.0,265.5,67.5,268.0,84.0,277.5,100.0,283.0" stroke="black" stroke-width="2" fill="none" />
<polyline points="140.0,303.5,155.5,311.5,181.5,319.0,183.5,335.0" stroke="black" stroke-width="2" fill="none" />
<polyline points="145.0,377.5,135.0,377.0" stroke="black" stroke-width="2" fill="none" />
<polyline points="77.5,412.5,61.5,392.5" stroke="black" stroke-width="2" fill="none" />
<polyline points="66.0,399.5,78.0,415.5" stroke="black" stroke-width="2" fill="none" />
<polyline points="67.5,410.5,49.0,386.5,47.0,372.5,31.0,366.5" stroke="black" stroke-width="2" fill="none" />
<polyline points="29.0,366.0,35.0,382.0,49.0,397.5,60.5,413.5,66.5,430.0" stroke="black" stroke-width="2" fill="none" />
<polyline points="52.0,443.0,36.0,417.0" stroke="black" stroke-width="2" fill="none" />
<polyline points="30.5,413.0,34.0,429.5,44.0,435.5" stroke="black" stroke-width="2" fill="none" />
<polyline points="56.0,439.0,50.0,423.0,44.5,407.5,24.5,396.0,8.5,402.0" stroke="black" stroke-width="2" fill="none" />
<polyline points="6.0,394.5,8.0,376.5,32.5,374.5,38.5,393.0,54.5,397.0,50.5,399.0,58.5,425.0" stroke="black" stroke-width="2" fill="none" />
<polyline points="49.5,420.5,33.5,398.0,17.5,403.0,1.5,429.0" stroke="black" stroke-width="2" fill="none" />
<polyline points="3.0,460.5,19.0,456.5" stroke="black" stroke-width="2" fill="none" />
<polyline points="39.5,453.0,33.5,446.5,29.5,434.5,15.5,450.5,13.5,438.5,5.5,452.0,7.5,432.0,5.0,426.0,7.5,414.0,18.0,396.0,6.5,398.5,6.5,382.5,14.5,367.0,12.5,363.0,10.0,347.0,16.0,334.5,8.0,316.5,18.0,312.5,9.5,304.0,15.5,298.0,23.5,290.0,21.5,273.5,16.0,257.5,13.5,241.5,19.5,225.5,17.5,221.5,21.5,205.5,19.5,189.0,29.5,177.5,41.5,162.0,40.0,142.0,24.0,142.5,8.0,142.0" stroke="black" stroke-width="2" fill="none" />
<polyline points="2.0,177.0,18.0,179.0,10.0,185.5,7.5,201.5,5.5,218.0,3.0,234.0,7.0,250.0,3.5,266.5,3.5,282.5,5.5,298.5,13.5,293.0,17.5,312.5,41.5,311.0,49.5,321.0" stroke="black" stroke-width="2" fill="none" />
<polyline points="45.5,340.5,35.0,338.0,7.0,337.5,1.0,349.5" stroke="black" stroke-width="2" fill="none" />
<polyline points="1.5,334.0,21.5,332.0,10.0,354.0,6.0,370.0,22.0,348.5,28.0,360.5,44.0,354.5,60.5,362.0,72.5,378.0" stroke="black" stroke-width="2" fill="none" />
<polyline points="67.5,360.0,69.5,376.0,73.5,382.0,77.0,402.0" stroke="black" stroke-width="2" fill="none" />
<polyline points="49.5,408.0,55.5,424.0,47.5,444.5" stroke="black" stroke-width="2" fill="none" />
<polyline points="28.5,435.5,41.0,431.5,35.0,415.5,37.0,399.5" stroke="black" stroke-width="2" fill="none" />
<polyline points="67.0,444.5,74.5,436.5,68.5,420.0,62.5,403.5,60.5,387.0,52.0,367.5,44.0,354.0,34.0,342.0,36.0,332.5,30.0,316.5" stroke="black" stroke-width="2" fill="none" />
<polyline points="39.5,292.0,59.5,261.5,83.5,277.5,117.5,293.5,149.5,309.5,169.0,313.5,171.5,329.5,176.0,335.0,192.0,341.5,208.0,345.5,224.0,344.0,240.0,344.0,256.5,340.0,272.5,336.0,288.5,332.0,304.5,328.5,320.5,316.0,336.5,310.0,352.0,315.5,364.0,311.5" stroke="black" stroke-width="2" fill="none" />
<polyline points="385.0,299.5,368.5,315.5,352.5,325.5,368.5,321.5,380.5,305.5,388.0,290.0,388.0,274.5,388.0,258.5,380.0,254.5,364.0,246.5,348.0,236.0" stroke="black" stroke-width="2" fill="none" />
<polyline points="344.5,244.5,345.0,260.5,353.0,274.5,369.0,278.0" stroke="black" stroke-width="2" fill="none" />
<polyline points="354.0,292.5,346.0,293.0" stroke="black" stroke-width="2" fill="none" />
<polyline points="334.5,277.5,318.5,275.5" stroke="black" stroke-width="2" fill="none" />
<polyline points="278.5,271.5,296.5,275.5,282.5,295.5,298.5,294.0,314.0,294.5,329.5,290.5,331.5,294.5,338.0,282.5,356.0,292.5,372.5,300.5" stroke="black" stroke-width="2" fill="none" />
<polyline points="399.0,319.5,386.5,336.0,377.0,342.0,379.0,352.0,363.0,368.0,353.0,384.0,367.0,366.5,382.5,364.5,388.5,344.5,402.5,337.0,420.5,333.0" stroke="black" stroke-width="2" fill="none" />
<polyline points="411.0,316.0,427.0,331.5,437.0,347.5,427.0,364.0,421.0,380.5" stroke="black" stroke-width="2" fill="none" />
<polyline points="399.0,410.5,397.0,416.5,381.5,430.5,365.5,438.5,361.0,444.5,393.0,428.0,413.0,412.0,399.0,393.5,415.0,378.0,423.0,362.0,429.0,346.5,419.0,330.5,407.0,314.5" stroke="black" stroke-width="2" fill="none" />
<polyline points="447.0,313.5,436.5,301.5,442.0,295.5,442.5,287.5,442.5,273.0,449.0,255.0,461.5,239.0,444.0,237.0,428.0,235.0,412.0,234.5,396.5,233.0,380.5,231.5,364.5,229.0" stroke="black" stroke-width="2" fill="none" />
<polyline points="392.5,249.5,392.0,265.5,392.0,281.5,392.0,297.0,384.0,313.0,374.5,328.5,370.5,346.5,356.0,362.5,344.0,378.5,334.0,394.5,310.0,410.5,268.0,426.0,233.5,434.5,217.5,454.5,168.0,470.5,126.5,486.5,100.5,502.5,100.5,502.0,116.5,492.0,132.5,483.5,148.5,477.5,164.5,471.5,180.5,466.0,196.5,462.0,212.5,456.0,228.5,450.0,244.5,444.0,260.0,442.0,276.0,438.0,292.0,427.5,308.0,421.5,324.0,415.5,340.0,410.0,356.5,404.0,372.5,396.0,396.5,396.0,412.5,380.0,426.5,362.0,450.5,348.0,466.0,336.0" stroke="black" stroke-width="2" fill="none" />
<polyline points="491.5,343.5,475.5,360.0,479.0,340.5,489.0,324.5,493.0,304.5,504.5,288.5" stroke="black" stroke-width="2" fill="none" />
<polyline points="479.5,316.0,485.5,300.5,487.5,284.5,489.5,268.5,485.5,252.5" stroke="black" stroke-width="2" fill="none" />
<polyline points="482.0,253.0,484.0,269.0,483.5,285.0,479.5,301.0,475.5,317.0,463.5,325.0,459.0,340.5,477.0,332.5,493.5,308.0,505.5,294.0" stroke="black" stroke-width="2" fill="none" />
<polyline points="463.0,250.5,466.5,266.5,466.5,282.0,464.5,298.0,456.0,314.5,448.0,330.5,444.0,346.0,432.0,355.5,429.5,371.0,423.5,368.5,437.5,370.0" stroke="black" stroke-width="2" fill="none" />
<polyline points="440.5,334.0,446.5,317.5,450.0,301.5,449.5,285.5,445.0,269.5,415.0,254.0" stroke="black" stroke-width="2" fill="none" />
<polyline points="401.5,244.5,403.5,260.5,415.0,260.5,425.0,264.5,432.5,278.0" stroke="black" stroke-width="2" fill="none" />
<polyline points="409.0,208.0,425.0,212.0,441.0,214.0,459.0,216.0,475.0,214.0,491.0,216.0,507.0,216.0" stroke="black" stroke-width="2" fill="none" />
<polyline points="346.0,198.0,330.0,196.0" stroke="black" stroke-width="2" fill="none" />
<polyline points="350.0,193.5,334.0,191.0,318.5,195.0,302.5,187.0,286.0,185.5,270.0,191.5,254.0,192.0,237.5,190.0,222.0,196.0,206.0,204.0,190.0,210.0,174.0,220.0,158.0,228.0" stroke="black" stroke-width="2" fill="none" />
<polyline points="159.0,234.5,153.0,240.5,153.0,256.0,167.0,272.0,202.5,288.0,204.5,297.5,210.5,301.5,218.5,310.0,208.5,318.0,225.0,312.0,233.0,304.0" stroke="black" stroke-width="2" fill="none" />
<polyline points="266.0,303.5,281.5,301.5" stroke="black" stroke-width="2" fill="none" />
<polyline points="267.5,259.5,283.5,257.5,299.5,253.5,313.5,251.5" stroke="black" stroke-width="2" fill="none" />
<polyline points="298.0,189.0,290.0,205.5,276.0,221.5,262.0,237.5,260.0,247.5,254.0,257.5,260.0,279.5,258.5,295.5,250.5,307.5,251.0,311.5" stroke="black" stroke-width="2" fill="none" />
<polyline points="199.0,307.0,197.0,290.5,162.5,274.5" stroke="black" stroke-width="2" fill="none" />
<polyline points="135.5,265.5,119.5,271.5,104.0,265.5,88.0,259.0,72.5,257.5,64.5,249.5,60.5,262.0,44.5,266.5" stroke="black" stroke-width="2" fill="none" />
<polyline points="45.5,263.5,37.5,279.5,34.0,295.5,34.0,312.0,39.5,328.0,39.5,342.0,40.0,358.0,40.0,373.5,38.5,377.5,50.5,381.5,54.0,397.5,68.0,393.5,82.0,409.5,88.0,425.5" stroke="black" stroke-width="2" fill="none" />
<polyline points="20.0,293.5,17.5,278.0,11.5,262.0,3.5,254.0" stroke="black" stroke-width="2" fill="none" />
<polyline points="23.5,261.5,23.5,245.5,24.0,233.5,6.0,242.0,10.5,222.0,15.0,206.5,17.0,190.5,15.5,186.5" stroke="black" stroke-width="2" fill="none" />
<polyline points="27.0,183.0,35.0,183.0,53.0,181.0,70.5,182.5,86.0,180.0,102.0,182.0,118.0,185.5" stroke="black" stroke-width="2" fill="none" />
<polyline points="135.5,172.0,151.5,166.0,167.5,148.0,183.5,138.0,169.5,153.5,160.0,169.0,154.0,185.5" stroke="black" stroke-width="2" fill="none" />
<polyline points="177.5,181.0,193.5,184.5" stroke="black" stroke-width="2" fill="none" />
<polyline points="215.5,160.5,199.5,144.5" stroke="black" stroke-width="2" fill="none" />
<polyline points="204.0,138.0,220.0,138.0,236.5,137.5,252.5,138.0,269.0,138.0,285.0,138.0,301.0,138.5,316.5,138.5,332.0,138.0,348.0,138.0,364.5,138.0,380.5,138.0,396.5,138.0,412.0,138.0,428.0,138.5,444.0,138.5,460.0,138.5,476.0,138.5,492.0,138.5,508.0,138.5" stroke="black" stroke-width="2" fill="none" />
<polyline points="501.0,142.5,485.0,142.5,468.5,142.0,452.5,141.5,437.0,141.5,421.5,141.0,405.5,140.5,390.0,141.0,374.0,141.0,358.0,141.0,341.5,141.0,326.0,141.5,310.0,142.0,293.5,142.0,277.5,142.0,262.0,144.5,246.0,142.5,230.0,142.0,214.0,141.5" stroke="black" stroke-width="2" fill="none" />
<polyline points="199.5,161.5,183.0,160.0,167.0,162.0" stroke="black" stroke-width="2" fill="none" />
<polyline points="144.0,163.5,130.0,163.5,129.5,179.5,141.5,191.5,145.5,187.5,162.0,162.0,178.0,145.5,192.0,145.5,208.0,162.0,224.0,184.0,238.0,190.5,200.0,206.5,170.0,222.0,148.0,238.0,148.0,253.5,142.5,269.0,162.5,275.5,178.5,282.0,194.5,288.5,211.0,298.5" stroke="black" stroke-width="2" fill="none" />
<polyline points="224.5,308.5,228.5,300.5,232.5,292.5,244.5,284.5,244.5,268.5,242.5,252.5" stroke="black" stroke-width="2" fill="none" />
<polyline points="240.0,246.0,232.0,262.0" stroke="black" stroke-width="2" fill="none" />
<polyline points="229.0,270.0,225.0,260.5,211.0,244.5" stroke="black" stroke-width="2" fill="none" />
<polyline points="195.5,258.5,191.5,258.5,193.5,242.5,177.5,242.5,179.5,238.5" stroke="black" stroke-width="2" fill="none" />
<polyline points="174.0,238.0,173.5,254.0,186.0,254.5,192.0,244.5,212.5,244.0,232.5,249.5,253.0,250.0,269.0,230.0,279.0,230.0,295.0,226.0,311.0,224.0,327.0,221.5,343.0,227.0,353.0,225.0,361.0,229.0,376.5,225.0,393.0,227.0,409.0,229.0,425.0,229.5,441.0,231.5,457.0,236.0,473.0,233.5,489.0,235.5,505.0,237.5" stroke="black" stroke-width="2" fill="none" />
<polyline points="502.0,221.5,496.0,209.5,480.0,209.5,464.0,209.5,448.5,209.5,430.5,207.5,414.5,203.5,398.5,207.5,382.5,205.5,366.5,209.5,350.5,213.5,334.5,209.5,324.5,208.0,312.5,206.5,294.0,192.5,278.0,192.5,256.5,188.5,240.5,186.5,224.5,174.5,208.5,166.5,188.5,167.0,173.0,178.5,170.5,180.5,176.5,178.0,168.5,162.5,166.5,150.0,194.0,140.0,194.0,124.0,194.0,116.0" stroke="black" stroke-width="2" fill="none" />
<polyline points="187.0,141.5,201.0,157.5,187.5,171.5,191.5,175.5,194.0,183.0" stroke="black" stroke-width="2" fill="none" />
<polyline points="220.0,192.5,204.0,199.0,188.0,207.0,172.0,214.5,156.0,224.5,140.0,224.5,123.5,226.5,107.5,222.5,91.5,218.5,75.0,214.5,58.5,210.5,42.5,209.0" stroke="black" stroke-width="2" fill="none" />
<polyline points="38.0,207.5,54.0,193.5,76.0,183.0,92.0,185.0,108.5,189.5,124.5,191.5,140.5,187.0,156.5,187.0,172.5,189.0,188.5,191.5" stroke="black" stroke-width="2" fill="none" />
<polyline points="137.0,160.0,133.5,176.0,137.0,155.5" stroke="black" stroke-width="2" fill="none" />
<polyline points="113.0,225.0,106.5,241.0,119.0,241.0" stroke="black" stroke-width="2" fill="none" />
<polyline points="114.5,266.0,77.0,249.5,51.0,247.5,45.0,233.5,47.0,217.5,47.0,214.0" stroke="black" stroke-width="2" fill="none" />
<polyline points="52.0,214.5,53.5,230.0,79.5,245.5,117.5,261.5" stroke="black" stroke-width="2" fill="none" />
<polyline points="118.5,257.0,103.0,250.5,95.0,246.5,83.5,242.5,77.5,244.5,67.5,240.5,51.5,236.5,45.5,247.0,35.5,275.0,29.0,267.0,19.0,255.0,23.0,239.0,25.0,223.0,27.0,207.0,32.5,197.5,58.5,191.0,36.5,193.0,32.5,209.0" stroke="black" stroke-width="2" fill="none" />
<polyline points="58.0,216.5,74.0,221.0,89.5,223.0,83.5,225.0" stroke="black" stroke-width="2" fill="none" />
<polyline points="94.5,225.0,100.5,240.5" stroke="black" stroke-width="2" fill="none" />
<polyline points="49.5,265.0,77.5,281.0,117.5,293.5,133.5,303.5,141.5,298.0,157.5,306.0,167.5,312.0,183.5,317.5,181.5,333.5,197.5,340.0,213.5,340.0,229.5,338.0,246.0,338.0,262.0,334.0" stroke="black" stroke-width="2" fill="none" />
<polyline points="48.5,320.0,40.5,307.5,46.5,291.5,54.0,275.5" stroke="black" stroke-width="2" fill="none" />
<polyline points="52.5,273.0,42.5,289.5,44.0,315.5,36.0,317.5,52.0,326.0" stroke="black" stroke-width="2" fill="none" />
<polyline points="34.5,449.5,54.5,446.0,46.5,424.0,38.0,408.0,30.0,402.0,34.0,394.0,22.5,378.0,28.5,362.5,24.5,354.5,28.5,338.5,26.5,322.5,29.0,306.5,31.0,290.5,34.5,274.5,34.0,260.5,40.0,260.5,46.0,244.5,36.0,228.5,32.0,212.0,43.5,195.5,47.5,179.0,45.5,171.0,45.5,155.0" stroke="black" stroke-width="2" fill="none" />
</svg>