<svg xmlns="http://www.w3.org/2000/svg" width="512mm" height="512mm" viewBox="0 0 512 512" version="1.1"><polyline points="493.5,118.5,479.5,134.5,461.5,140.5,469.5,136.5,485.5,127.0,501.5,119.0" stroke="black" stroke-width="2" fill="none" />
<polyline points="506.0,121.5,500.0,145.0,489.5,131.5,495.5,129.5,493.0,127.5,509.0,117.5" stroke="black" stroke-width="2" fill="none" />
<polyline points="511.0,135.0,512.5,141.0,511.0,143.0" stroke="black" stroke-width="2" fill="none" />
<polyline points="510.0,163.5,494.0,159.5,478.5,153.5,471.0,143.5,457.0,150.0,431.0,150.0,415.0,150.5,399.0,144.0,381.5,148.0,365.0,150.5,349.0,144.5,332.5,138.5,316.5,140.5,300.5,134.5,284.5,134.5,266.5,150.5,280.5,135.0" stroke="black" stroke-width="2" fill="none" />
<polyline points="290.0,129.0,278.0,145.5,278.0,159.5,284.0,159.5,282.0,171.5,302.0,181.5,318.0,183.5,336.5,187.5,352.5,189.5,375.0,187.5,377.0,198.0,405.0,185.5,421.0,187.5,437.0,188.0,453.0,188.5,469.0,188.5,485.0,188.5,500.5,192.5,508.5,190.5" stroke="black" stroke-width="2" fill="none" />
<polyline points="492.5,201.5,477.0,193.5,466.5,206.0,438.5,204.0,414.0,202.0,398.0,206.0" stroke="black" stroke-width="2" fill="none" />
<polyline points="397.0,203.5,413.5,191.5,425.0,195.5,423.0,211.5,426.5,212.0,426.0,228.0,426.0,223.5,436.5,221.0,452.5,221.5,481.0,217.5,497.0,219.5" stroke="black" stroke-width="2" fill="none" />
<polyline points="492.0,229.0,476.0,229.0,452.0,217.0,435.5,215.0,416.0,205.5,412.0,216.0,395.5,216.0,371.5,216.0,348.0,216.5,332.0,214.5,306.0,214.0,290.0,213.5" stroke="black" stroke-width="2" fill="none" />
<polyline points="291.5,227.5,307.5,227.5" stroke="black" stroke-width="2" fill="none" />
<polyline points="293.0,240.5,291.0,256.5,294.5,258.5,300.5,276.5,282.5,280.5,266.5,290.5,266.5,290.0,292.0,276.0" stroke="black" stroke-width="2" fill="none" />
<polyline points="279.0,269.5,277.0,285.5,276.5,312.0,280.5,332.0" stroke="black" stroke-width="2" fill="none" />
<polyline points="306.0,342.5,322.0,342.5,338.0,342.0,354.0,342.0,370.0,339.5,386.5,331.0,398.5,333.5,410.5,335.5" stroke="black" stroke-width="2" fill="none" />
<polyline points="424.0,306.0,408.0,305.5,392.0,303.5" stroke="black" stroke-width="2" fill="none" />
<polyline points="391.5,298.0,407.5,300.0,423.5,300.5" stroke="black" stroke-width="2" fill="none" />
<polyline points="404.5,291.5,388.5,297.5" stroke="black" stroke-width="2" fill="none" />
<polyline points="390.0,273.0,406.0,269.0,421.5,270.5,449.5,268.5,446.0,285.0,446.0,303.0,442.0,319.0,431.5,319.5" stroke="black" stroke-width="2" fill="none" />
<polyline points="462.0,309.5,458.0,283.5,460.0,271.0,444.5,271.0" stroke="black" stroke-width="2" fill="none" />
<polyline points="452.0,275.5,452.0,291.5" stroke="black" stroke-width="2" fill="none" />
<polyline points="466.5,271.5,485.0,291.5,485.0,307.5,487.0,323.5,495.0,299.5,509.0,283.5,499.0,259.5" stroke="black" stroke-width="2" fill="none" />
<polyline points="502.0,234.5,496.0,251.0,495.5,277.0,495.5,292.5,489.5,308.5,481.5,324.0,484.0,328.0,499.5,302.0,504.0,306.0,510.0,296.0" stroke="black" stroke-width="2" fill="none" />
<polyline points="507.5,303.0,495.5,319.0" stroke="black" stroke-width="2" fill="none" />
<polyline points="495.0,331.5,509.0,333.5,507.0,325.5,493.5,341.5,477.5,341.5,462.0,333.5,464.0,335.5,474.5,317.0,479.0,301.0,481.0,285.5,493.0,282.0,495.0,266.0,489.0,263.5,508.5,243.5,508.5,227.5,502.0,223.0,500.0,195.5,478.0,203.5,476.0,175.5,484.0,176.0,476.5,172.0,460.5,180.0" stroke="black" stroke-width="2" fill="none" />
<polyline points="451.0,229.5,435.5,229.0" stroke="black" stroke-width="2" fill="none" />
<polyline points="417.0,229.5,400.5,230.0,372.5,230.0,344.0,228.5,328.0,227.0" stroke="black" stroke-width="2" fill="none" />
<polyline points="330.0,198.0,346.0,196.5,362.0,198.5,368.0,200.5,362.0,226.5,360.0,252.0,354.5,255.5,346.5,281.5,360.5,303.5,366.5,319.5,373.0,335.5" stroke="black" stroke-width="2" fill="none" />
<polyline points="360.5,334.0,364.5,328.5,358.5,312.0,358.5,296.0,352.5,280.0,338.0,286.0,322.0,284.0" stroke="black" stroke-width="2" fill="none" />
<polyline points="314.5,293.5,330.5,289.5,346.5,289.5" stroke="black" stroke-width="2" fill="none" />
<polyline points="356.5,306.0,340.5,303.5,324.5,303.5,308.5,303.5" stroke="black" stroke-width="2" fill="none" />
<polyline points="301.5,305.0,317.5,297.0,334.0,297.0,350.0,295.5" stroke="black" stroke-width="2" fill="none" />
<polyline points="336.0,308.5,334.0,324.0" stroke="black" stroke-width="2" fill="none" />
<polyline points="347.5,332.5,347.5,334.5,327.5,324.0,325.5,308.0" stroke="black" stroke-width="2" fill="none" />
<polyline points="282.0,314.0,280.0,292.0" stroke="black" stroke-width="2" fill="none" />
<polyline points="261.5,288.0,269.5,272.0" stroke="black" stroke-width="2" fill="none" />
<polyline points="255.0,269.5,254.5,286.0,245.0,302.0,243.0,318.0,229.0,334.0,229.0,334.0,245.0,340.5,260.5,340.5,276.5,342.5,292.5,343.0,294.5,333.0,302.5,343.0,306.5,327.0,322.5,327.5,343.0,327.0,359.0,329.0" stroke="black" stroke-width="2" fill="none" />
<polyline points="373.0,311.0,377.0,289.5,375.0,274.0" stroke="black" stroke-width="2" fill="none" />
<polyline points="371.0,272.0,369.0,288.0,367.0,303.5,374.5,319.5,378.5,336.0,398.0,326.0,414.5,324.0" stroke="black" stroke-width="2" fill="none" />
<polyline points="455.5,306.5,447.5,300.5,445.5,324.5,449.5,308.5,455.5,308.5,463.5,294.5,462.0,278.5,474.5,276.5,479.0,260.5,455.0,248.5,461.0,226.5,459.0,206.0,463.0,204.0,467.0,188.0,484.5,168.0,485.0,168.0,469.0,170.0,453.0,176.0,449.0,166.0,441.0,176.0,449.0,170.0,437.0,168.0,427.0,160.0,411.0,154.0,395.0,150.0" stroke="black" stroke-width="2" fill="none" />
<polyline points="383.0,175.5,366.5,182.0,350.5,182.5,335.0,182.5" stroke="black" stroke-width="2" fill="none" />
<polyline points="330.5,164.5,330.5,180.5,332.5,206.5,348.5,206.5" stroke="black" stroke-width="2" fill="none" />
<polyline points="313.5,199.0,297.5,197.0,269.5,186.5,253.5,189.0" stroke="black" stroke-width="2" fill="none" />
<polyline points="271.0,199.0,254.5,205.5,234.5,187.5,218.0,187.5,204.0,205.5,198.0,193.5,194.0,187.5,178.0,197.5,181.5,211.5,193.0,195.5,184.5,184.0,204.5,168.5,191.0,170.5,197.0,158.5,211.5,138.5,208.0,134.5,192.5,148.5,176.5,166.0,155.0,155.5,163.0,141.5,169.0,147.5,165.0,135.5,149.0,134.0" stroke="black" stroke-width="2" fill="none" />
<polyline points="147.5,135.5,141.5,151.5,153.5,165.5,149.5,171.0,157.5,169.0,171.5,164.5,178.0,152.5,194.5,154.0,205.0,150.0,215.5,156.0,230.0,150.0,246.0,148.0,261.5,154.0,277.0,147.5,296.5,137.5,312.5,144.0,328.0,149.5,330.0,145.5,338.0,141.0,354.0,151.5" stroke="black" stroke-width="2" fill="none" />
<polyline points="349.5,152.5,361.5,168.5" stroke="black" stroke-width="2" fill="none" />
<polyline points="369.5,167.5,353.0,177.5,336.5,175.5,328.5,161.5,312.5,178.0,296.0,176.0,279.5,175.5,263.0,163.5,247.0,155.5,231.0,149.0" stroke="black" stroke-width="2" fill="none" />
<polyline points="231.5,144.5,259.5,160.5,277.5,176.5,287.5,196.5,271.5,212.5,269.5,218.0,254.0,244.0,264.0,248.0,272.5,254.0" stroke="black" stroke-width="2" fill="none" />
<polyline points="292.5,253.5,308.5,254.0" stroke="black" stroke-width="2" fill="none" />
<polyline points="299.5,320.0,297.5,304.0,281.5,303.5,265.0,304.0,249.0,306.0" stroke="black" stroke-width="2" fill="none" />
<polyline points="251.5,303.5,249.5,319.5,237.5,333.5,225.5,342.0,241.0,334.5,259.0,326.5" stroke="black" stroke-width="2" fill="none" />
<polyline points="244.0,302.0,260.0,298.0,276.0,298.0,292.0,298.0,308.0,292.0,319.5,282.0,316.0,282.0,300.0,281.5,290.0,295.5,296.5,313.0" stroke="black" stroke-width="2" fill="none" />
<polyline points="262.0,253.0,241.5,247.0,241.0,225.0,235.5,203.0,235.5,177.0,233.5,161.5,234.0,155.5" stroke="black" stroke-width="2" fill="none" />
<polyline points="238.5,158.5,242.5,174.5,274.5,164.5,290.5,156.5" stroke="black" stroke-width="2" fill="none" />
<polyline points="286.0,154.0,290.0,170.0,294.0,188.0,310.0,190.5" stroke="black" stroke-width="2" fill="none" />
<polyline points="293.0,138.5,335.0,154.5,323.0,176.0,325.0,188.0,326.5,204.0,328.5,225.5,326.5,251.5,336.5,240.0,352.5,244.0,375.0,242.0,391.0,258.0,407.0,258.0,427.0,247.5,428.5,253.5,444.5,254.0,460.0,242.0,476.5,250.0,492.5,238.0" stroke="black" stroke-width="2" fill="none" />
<polyline points="498.5,232.5,479.0,248.5" stroke="black" stroke-width="2" fill="none" />
<polyline points="444.0,258.5,460.5,257.0,476.5,257.5,476.5,282.0,472.5,298.5,470.0,314.5" stroke="black" stroke-width="2" fill="none" />
<polyline points="435.0,289.5,435.0,273.5" stroke="black" stroke-width="2" fill="none" />
<polyline points="411.0,270.5,407.0,270.0,409.0,286.0,415.0,289.5,430.5,291.5,430.0,311.5,422.0,331.5,421.5,339.5,437.5,337.5,449.5,324.0" stroke="black" stroke-width="2" fill="none" />
<polyline points="460.0,341.5,444.0,341.5,428.0,343.0,412.0,329.5,408.0,339.5,392.5,340.0,384.5,335.5,383.0,315.5,379.5,300.0,392.0,286.0,394.0,270.0" stroke="black" stroke-width="2" fill="none" />
<polyline points="417.0,244.5,429.0,246.5,441.0,250.5" stroke="black" stroke-width="2" fill="none" />
<polyline points="385.5,246.0,396.0,230.0,384.0,203.5,393.5,201.5,399.5,185.5" stroke="black" stroke-width="2" fill="none" />
<polyline points="412.5,241.5,397.0,241.5,381.0,255.5,365.0,255.5,341.0,256.0,315.5,248.0,299.5,240.0,273.5,240.0,257.0,240.5,263.0,218.5,257.5,223.0,251.5,221.0,251.5,203.0,259.5,187.0,254.0,167.0,258.0,167.0" stroke="black" stroke-width="2" fill="none" />
<polyline points="226.5,159.5,226.0,175.5,218.0,201.5,218.0,217.0,218.0,233.0,218.5,248.5,208.5,250.5" stroke="black" stroke-width="2" fill="none" />
<polyline points="206.0,268.5,202.0,284.5,194.0,278.0,180.0,292.0,198.0,295.5,214.5,295.0,230.5,289.5,234.5,278.0" stroke="black" stroke-width="2" fill="none" />
<polyline points="223.0,268.0,217.0,283.5,223.0,285.5,219.0,292.0,239.0,292.5,255.0,286.5" stroke="black" stroke-width="2" fill="none" />
<polyline points="227.0,255.0,198.5,254.5,182.0,253.0" stroke="black" stroke-width="2" fill="none" />
<polyline points="181.5,242.5,197.5,240.5,221.5,240.5,237.5,240.5" stroke="black" stroke-width="2" fill="none" />
<polyline points="235.5,212.0,219.5,206.0" stroke="black" stroke-width="2" fill="none" />
<polyline points="224.0,219.0,196.0,217.0,184.5,215.0,168.0,211.0,162.0,201.0" stroke="black" stroke-width="2" fill="none" />
<polyline points="134.5,187.0,126.0,177.0,110.0,175.0" stroke="black" stroke-width="2" fill="none" />
<polyline points="109.5,174.5,119.5,190.5,123.5,200.5,121.5,220.5,121.5,238.0,108.0,252.0,81.5,256.0,69.5,270.0,65.5,276.0,69.5,284.0,69.5,302.0,63.5,312.0,75.0,320.5,91.0,322.5,107.5,324.5,123.5,324.5,139.5,322.5" stroke="black" stroke-width="2" fill="none" />
<polyline points="170.0,346.5,173.5,331.0,173.5,315.0,176.0,299.0,176.0,298.5" stroke="black" stroke-width="2" fill="none" />
<polyline points="178.5,285.5,194.5,291.5,208.5,286.0" stroke="black" stroke-width="2" fill="none" />
<polyline points="176.0,349.0,164.0,332.5,164.0,316.5,164.0,300.5,165.5,284.5,163.5,268.5,161.5,252.5,153.0,236.5,144.5,228.5,128.5,225.0" stroke="black" stroke-width="2" fill="none" />
<polyline points="114.5,233.5,98.5,245.5,96.5,255.5,86.5,241.5,78.0,261.5,57.5,256.0,41.5,254.0,25.5,268.0" stroke="black" stroke-width="2" fill="none" />
<polyline points="32.0,268.5,48.0,266.5,64.5,264.5" stroke="black" stroke-width="2" fill="none" />
<polyline points="72.5,298.0,88.5,300.0,104.5,299.5,120.0,301.0,136.0,299.0" stroke="black" stroke-width="2" fill="none" />
<polyline points="152.5,285.5,136.5,285.5,122.5,279.0,126.5,259.0,146.5,253.0,160.5,237.5,164.5,235.5,158.0,219.0,144.0,199.0,128.0,195.5,112.0,179.5" stroke="black" stroke-width="2" fill="none" />
<polyline points="113.0,176.0,129.0,191.5,145.5,207.5,162.0,195.5,178.5,179.5,196.5,172.0,205.0,178.0,207.0,178.0,222.5,176.0" stroke="black" stroke-width="2" fill="none" />
<polyline points="216.0,131.5,200.0,147.5,184.0,164.0,178.0,180.0,180.0,185.5,160.5,197.5,178.0,207.5,172.0,217.5,190.0,231.5,206.5,223.5,233.0,229.5,258.5,212.0,275.0,212.0" stroke="black" stroke-width="2" fill="none" />
<polyline points="285.5,270.5,263.0,270.0,243.0,272.0,227.5,270.0,203.5,269.5,182.0,267.5,174.0,251.0,152.0,237.0,142.0,231.0,126.5,233.5,108.5,229.5,92.0,232.0,86.0,242.0,88.0,233.5,116.0,231.5,111.5,219.5,110.5,203.5,100.5,187.5" stroke="black" stroke-width="2" fill="none" />
<polyline points="103.0,188.5,119.0,194.5" stroke="black" stroke-width="2" fill="none" />
<polyline points="107.5,189.0,121.5,205.0,123.5,207.5,129.5,215.5,145.5,214.0,157.5,218.0,173.5,226.0" stroke="black" stroke-width="2" fill="none" />
<polyline points="147.5,231.5,141.5,247.5,156.0,257.5,158.0,273.5,152.0,289.5,158.0,297.5,158.0,313.5,158.0,329.5" stroke="black" stroke-width="2" fill="none" />
<polyline points="154.5,252.5,139.0,261.0,117.0,261.0,101.0,261.0" stroke="black" stroke-width="2" fill="none" />
<polyline points="102.5,249.0,118.5,245.0,120.5,261.0,120.5,249.5,133.0,245.0" stroke="black" stroke-width="2" fill="none" />
<polyline points="105.5,224.0,90.0,224.0,74.0,208.5,58.0,206.0" stroke="black" stroke-width="2" fill="none" />
<polyline points="44.5,222.5,33.0,238.5,43.0,245.0,59.0,249.5,61.0,241.5" stroke="black" stroke-width="2" fill="none" />
<polyline points="68.5,237.5,86.0,221.5" stroke="black" stroke-width="2" fill="none" />
<polyline points="80.5,215.0,70.5,231.5,60.0,247.5,28.0,265.5,30.0,282.0,46.0,282.0,69.5,268.0,85.5,275.5,101.5,273.5,127.0,261.5" stroke="black" stroke-width="2" fill="none" />
<polyline points="138.0,328.0,122.5,330.0,107.0,330.5,91.0,328.5,75.5,324.5" stroke="black" stroke-width="2" fill="none" />
<polyline points="21.0,354.5,5.0,348.5" stroke="black" stroke-width="2" fill="none" />
<polyline points="1.0,347.5,17.0,341.5,33.0,340.0,49.5,340.5,66.0,338.5,82.5,339.0,98.5,336.5,114.5,338.5,131.0,338.5,147.5,336.5" stroke="black" stroke-width="2" fill="none" />
<polyline points="154.0,342.0,137.5,342.0,122.0,344.0,106.0,340.5,90.0,342.5,73.5,345.0,57.5,344.5,41.5,346.5,25.5,346.0,17.5,359.0,1.5,353.0" stroke="black" stroke-width="2" fill="none" />
<polyline points="1.5,300.0,17.5,300.0,34.0,300.0,50.0,296.0,50.0,304.5,68.0,310.5,80.0,294.5,96.5,296.0,112.5,296.0,128.5,295.5,144.0,294.0" stroke="black" stroke-width="2" fill="none" />
<polyline points="129.5,167.5,127.5,164.0" stroke="black" stroke-width="2" fill="none" />
<polyline points="129.0,164.5,126.5,180.5" stroke="black" stroke-width="2" fill="none" />
<polyline points="145.0,166.5,134.5,150.5" stroke="black" stroke-width="2" fill="none" />
<polyline points="132.5,148.5,148.5,162.0,158.5,159.5" stroke="black" stroke-width="2" fill="none" />
<polyline points="173.5,160.0,172.0,144.0" stroke="black" stroke-width="2" fill="none" />
<polyline points="163.5,181.0,147.0,189.0,131.0,193.5,135.0,177.5,139.0,166.0,137.0,164.5,131.0,148.5" stroke="black" stroke-width="2" fill="none" />
<polyline points="212.0,129.5,194.0,145.5,179.5,161.5,167.5,177.5,147.5,189.5,142.0,206.0,144.0,215.5,152.0,217.5,172.0,228.0,174.0,238.0,170.0,254.5,174.0,268.5,172.0,284.0,170.0,300.0,170.0,315.5" stroke="black" stroke-width="2" fill="none" />
<polyline points="149.5,272.5,133.5,272.5,117.5,284.5,101.0,284.0,85.0,284.0,69.5,282.0,49.5,291.5,34.0,293.5,18.0,293.0,2.0,293.0" stroke="black" stroke-width="2" fill="none" />
<polyline points="155.5,472.0,169.5,488.5,199.5,505.0,223.5,507.5" stroke="black" stroke-width="2" fill="none" />
<polyline points="206.0,508.0,190.0,500.5,174.0,492.5,158.0,480.5" stroke="black" stroke-width="2" fill="none" />
<polyline points="160.0,476.0,181.5,492.0,215.0,507.5,225.0,503.5" stroke="black" stroke-width="2" fill="none" />
<polyline points="263.5,446.5,279.5,454.5" stroke="black" stroke-width="2" fill="none" />
<polyline points="276.0,448.0,260.0,442.0" stroke="black" stroke-width="2" fill="none" />
<polyline points="260.5,441.0,272.0,445.5" stroke="black" stroke-width="2" fill="none" />
<polyline points="291.5,421.5,307.5,425.5" stroke="black" stroke-width="2" fill="none" />
<polyline points="307.5,421.5,292.0,417.5" stroke="black" stroke-width="2" fill="none" />
<polyline points="311.5,479.0,327.5,480.5,343.5,488.5,359.5,494.5,375.5,502.5" stroke="black" stroke-width="2" fill="none" />
<polyline points="380.5,497.5,364.5,487.0" stroke="black" stroke-width="2" fill="none" />
<polyline points="362.5,483.5,378.5,490.0" stroke="black" stroke-width="2" fill="none" />
<polyline points="376.5,507.0,361.0,499.5,345.0,493.5,328.5,485.5,312.5,481.5" stroke="black" stroke-width="2" fill="none" />
<polyline points="320.5,484.5,358.5,500.5" stroke="black" stroke-width="2" fill="none" />
<polyline points="362.0,483.5,384.0,499.5" stroke="black" stroke-width="2" fill="none" />
<polyline points="359.0,496.0,323.5,480.0" stroke="black" stroke-width="2" fill="none" />
<polyline points="220.5,505.0,204.0,501.0,188.0,493.5,171.5,484.0,155.0,473.5" stroke="black" stroke-width="2" fill="none" />
<polyline points="150.0,486.5,166.0,492.0" stroke="black" stroke-width="2" fill="none" />
<polyline points="475.5,482.0,495.5,498.0" stroke="black" stroke-width="2" fill="none" />
<polyline points="492.5,495.0,476.5,487.0" stroke="black" stroke-width="2" fill="none" />
<polyline points="476.5,482.5,492.5,488.5" stroke="black" stroke-width="2" fill="none" />
<polyline points="382.0,164.0,366.0,178.0,374.0,158.0,353.5,147.5,341.5,141.5,331.5,148.0,294.0,132.5" stroke="black" stroke-width="2" fill="none" />
<polyline points="467.5,125.5,451.0,141.5,463.5,138.0,477.0,122.0" stroke="black" stroke-width="2" fill="none" />
<polyline points="473.5,119.0,457.5,135.0,445.5,151.0,433.5,153.5" stroke="black" stroke-width="2" fill="none" />
</svg>