<svg xmlns="http://www.w3.org/2000/svg" width="512mm" height="512mm" viewBox="0 0 512 512" version="1.1"><polyline points="353.5,118.5,353.5,134.5,353.5,150.5,357.5,168.5,357.5,185.0,355.5,203.0,359.5,209.0,359.5,217.0,379.0,243.0,383.0,248.5,390.5,258.5,395.0,264.5,393.0,280.5,399.0,304.5,411.5,316.0,403.5,331.5,397.5,339.0,397.5,355.0,397.5,371.0,399.5,378.5,390.0,384.5,404.0,370.5,422.5,370.5" stroke="black" stroke-width="2" fill="none" />
<polyline points="430.0,364.0,414.5,358.5" stroke="black" stroke-width="2" fill="none" />
<polyline points="411.5,352.5,427.5,358.0,443.5,364.0" stroke="black" stroke-width="2" fill="none" />
<polyline points="458.0,401.5,474.0,397.5,460.0,417.5,464.0,413.5,466.0,399.5,488.0,398.0" stroke="black" stroke-width="2" fill="none" />
<polyline points="486.5,402.0,503.0,406.0" stroke="black" stroke-width="2" fill="none" />
<polyline points="491.5,351.0,503.5,334.5,506.0,318.5,506.0,302.5,510.5,302.5" stroke="black" stroke-width="2" fill="none" />
<polyline points="511.5,299.5,509.5,315.5,508.0,331.5,504.0,348.0,487.5,364.0" stroke="black" stroke-width="2" fill="none" />
<polyline points="481.0,326.0,480.5,319.5,492.5,303.5,506.5,287.0,506.5,293.0" stroke="black" stroke-width="2" fill="none" />
<polyline points="482.0,274.0,484.5,264.0,476.5,268.0,478.5,284.0,474.0,300.0,468.0,315.5,467.5,331.5,480.0,347.5,474.0,357.0,489.5,351.0" stroke="black" stroke-width="2" fill="none" />
<polyline points="494.5,362.5,478.5,369.0,462.5,379.0,446.5,385.0,430.5,392.5,414.5,403.0,436.5,389.0,464.5,376.5,486.0,354.5,472.5,346.5,478.5,340.5,486.5,334.5,474.5,323.0,484.5,307.0,499.0,291.0,509.0,274.5,505.0,250.0,509.0,245.5,507.0,225.5,509.0,225.5,493.0,231.5" stroke="black" stroke-width="2" fill="none" />
<polyline points="492.5,240.0,476.5,244.0,462.0,237.5,450.0,247.5,440.0,247.0,426.0,255.5" stroke="black" stroke-width="2" fill="none" />
<polyline points="430.0,260.0,449.5,255.5,459.0,246.0" stroke="black" stroke-width="2" fill="none" />
<polyline points="453.0,260.5,465.0,264.5,461.0,280.0,437.0,291.5,427.0,307.5" stroke="black" stroke-width="2" fill="none" />
<polyline points="440.5,319.0,412.5,335.5,404.0,351.5,406.0,367.5,410.0,374.0,404.0,390.0" stroke="black" stroke-width="2" fill="none" />
<polyline points="390.5,409.5,411.0,394.0,425.5,378.0,413.5,358.0,394.0,330.0" stroke="black" stroke-width="2" fill="none" />
<polyline points="384.5,329.0,388.5,306.5" stroke="black" stroke-width="2" fill="none" />
<polyline points="368.5,295.0,376.5,307.0,376.0,323.5,376.0,339.0,384.0,355.0" stroke="black" stroke-width="2" fill="none" />
<polyline points="370.0,367.0,386.0,377.0" stroke="black" stroke-width="2" fill="none" />
<polyline points="392.5,348.0,384.5,340.0,368.5,326.0" stroke="black" stroke-width="2" fill="none" />
<polyline points="366.0,321.5,372.5,337.5,374.5,353.5,368.5,366.0,378.5,382.0,374.5,398.0" stroke="black" stroke-width="2" fill="none" />
<polyline points="372.5,389.5,380.5,387.5,382.5,381.5,384.5,365.5,388.5,363.5,378.5,354.0,384.5,342.5,380.0,326.5,388.0,310.5,390.5,290.5,388.5,274.5,368.5,282.5" stroke="black" stroke-width="2" fill="none" />
<polyline points="366.5,277.5,367.0,267.5,377.0,273.5,379.0,301.5,367.0,317.5,363.0,331.5,363.0,347.5,356.5,363.5,348.5,379.5,333.0,395.5,325.0,401.5,341.0,383.5,356.5,363.5,378.0,381.0,396.0,399.0,412.0,377.5" stroke="black" stroke-width="2" fill="none" />
<polyline points="407.5,340.5,423.0,332.5,439.0,322.5,455.0,328.5,478.5,346.0" stroke="black" stroke-width="2" fill="none" />
<polyline points="446.5,320.5,459.0,336.5,459.0,353.0,441.0,371.5,421.0,387.5,425.0,385.5,441.0,371.5" stroke="black" stroke-width="2" fill="none" />
<polyline points="415.5,384.5,399.0,404.5,382.5,414.5,366.5,421.0,354.5,421.0,339.0,431.0,323.5,438.5,307.5,444.0,292.0,452.0,276.5,463.5,277.0,458.0,281.5,430.0,265.5,414.0,279.5,398.0" stroke="black" stroke-width="2" fill="none" />
<polyline points="280.5,403.5,296.5,407.5,313.0,403.5" stroke="black" stroke-width="2" fill="none" />
<polyline points="288.5,401.0,272.5,405.0,245.5,414.5,229.5,427.0,213.5,436.5,234.0,422.5,262.0,408.5,274.5,392.5,290.0,376.5,317.5,364.5,349.5,348.5,357.5,332.5,351.5,332.5,352.0,314.0,350.5,290.0,349.0,274.0,339.0,273.5,335.5,269.0" stroke="black" stroke-width="2" fill="none" />
<polyline points="323.0,254.0,339.0,268.0,335.0,284.0,327.0,296.0,319.0,318.0,323.0,318.0,325.0,334.0,327.0,344.0,347.0,322.0" stroke="black" stroke-width="2" fill="none" />
<polyline points="330.5,330.0,330.0,314.0,330.0,310.0" stroke="black" stroke-width="2" fill="none" />
<polyline points="309.5,325.5,309.5,341.5,310.0,357.5,284.0,367.5,282.0,369.5,298.0,359.5" stroke="black" stroke-width="2" fill="none" />
<polyline points="282.0,373.0,298.0,365.0,307.5,378.5,307.5,394.5" stroke="black" stroke-width="2" fill="none" />
<polyline points="319.0,401.5,313.0,389.5,315.0,373.5,341.0,357.5,343.0,335.5,342.5,319.5,358.5,317.0,360.0,301.5,360.0,292.0,358.5,276.0,369.0,251.5,377.0,235.5,347.5,237.5,331.0,237.5" stroke="black" stroke-width="2" fill="none" />
<polyline points="327.0,236.5,303.0,248.5,285.0,264.0,265.0,282.0,272.5,284.0,268.5,299.5" stroke="black" stroke-width="2" fill="none" />
<polyline points="258.5,275.0,268.5,285.5,278.5,289.0,276.0,304.5,276.0,321.0,264.0,337.0,261.5,353.0" stroke="black" stroke-width="2" fill="none" />
<polyline points="257.0,347.5,257.0,331.5,256.5,347.5,240.5,343.5,232.5,329.5,230.5,313.5,234.0,298.0,228.0,294.5,222.0,278.5,210.0,262.5,208.0,276.5,204.0,270.0" stroke="black" stroke-width="2" fill="none" />
<polyline points="212.0,257.5,196.5,267.5,180.5,271.0,171.0,278.5,165.0,272.5,189.5,256.5,215.5,254.5,195.5,254.5,179.5,264.5,163.5,275.0,147.5,283.0,131.0,285.0,115.0,287.0,99.0,289.0,83.0,291.0,67.0,293.0,50.5,293.5,34.5,291.0,18.5,289.0,2.5,283.0" stroke="black" stroke-width="2" fill="none" />
<polyline points="4.5,282.5,30.5,298.5,44.5,314.5,54.5,330.5,62.5,344.5,62.5,360.5,62.0,376.0" stroke="black" stroke-width="2" fill="none" />
<polyline points="82.0,384.0,98.0,392.0,114.0,398.0,104.5,408.0,92.5,416.5,98.5,422.0,78.5,444.5,81.0,462.5,92.5,473.0,110.5,470.5,96.5,472.5,102.5,486.5,118.5,496.5,138.0,504.5" stroke="black" stroke-width="2" fill="none" />
<polyline points="173.5,502.0,182.0,486.0,192.0,476.0,194.0,460.0,210.0,459.5,231.5,443.5,251.5,427.0,251.5,439.0,235.5,447.0,220.0,461.0,210.0,479.5,193.5,493.5,178.0,505.5,196.0,506.0,214.5,490.0,230.5,474.0,254.5,468.0,276.0,452.0,292.0,452.0,326.5,436.0,354.5,420.0,358.5,392.0,368.5,386.0,364.5,370.0,370.5,354.0,346.0,356.0,330.0,363.5,314.0,373.5" stroke="black" stroke-width="2" fill="none" />
<polyline points="340.0,388.5,356.5,387.0" stroke="black" stroke-width="2" fill="none" />
<polyline points="354.5,379.0,358.0,373.0,356.0,389.5,356.0,405.5,340.0,421.5" stroke="black" stroke-width="2" fill="none" />
<polyline points="313.5,423.5,301.5,435.5,293.5,433.5,277.5,428.0,273.5,431.5,257.5,424.0,241.5,438.0,225.5,448.5,209.5,458.5,203.0,468.5,187.5,490.5,171.5,506.5,174.0,490.0,180.0,472.0,178.0,468.5,194.0,452.5,232.0,438.0,250.0,421.5,255.5,399.5,256.0,383.5,266.5,368.0,294.5,356.0,306.5,340.5,308.5,324.5,292.0,300.5,286.0,284.5,287.5,268.5,301.5,268.0,285.5,270.0" stroke="black" stroke-width="2" fill="none" />
<polyline points="308.5,275.5,302.0,291.5,296.0,317.5,286.0,333.0,286.0,333.0,294.5,332.5,300.5,330.5" stroke="black" stroke-width="2" fill="none" />
<polyline points="270.5,338.5,271.0,354.5,255.0,380.5,271.0,378.5,291.5,374.0,307.5,363.5" stroke="black" stroke-width="2" fill="none" />
<polyline points="282.0,392.0,288.0,408.0,303.5,416.0" stroke="black" stroke-width="2" fill="none" />
<polyline points="283.0,404.0,311.0,420.0,285.0,439.5" stroke="black" stroke-width="2" fill="none" />
<polyline points="273.0,454.0,257.0,466.0,241.5,476.0,225.5,489.5,206.0,497.5,192.0,495.0,210.0,479.0" stroke="black" stroke-width="2" fill="none" />
<polyline points="217.5,494.0,235.5,480.0" stroke="black" stroke-width="2" fill="none" />
<polyline points="239.5,430.5,224.0,444.5,208.5,450.0,192.5,461.5,164.5,469.5,148.5,469.5" stroke="black" stroke-width="2" fill="none" />
<polyline points="174.0,449.5,178.0,433.5,188.0,425.5,199.5,415.5,195.0,413.5,194.5,398.0,210.5,382.5,207.0,392.5" stroke="black" stroke-width="2" fill="none" />
<polyline points="200.0,394.0,200.0,400.0,204.5,416.0" stroke="black" stroke-width="2" fill="none" />
<polyline points="211.5,425.0,196.0,433.0,198.5,430.5,226.5,414.0,222.0,403.5,230.0,387.5,240.5,363.0,231.0,377.5,215.0,381.5,198.5,387.5,182.5,389.5" stroke="black" stroke-width="2" fill="none" />
<polyline points="185.0,387.5,183.0,403.5,182.5,420.0,184.5,436.0,170.5,440.0,166.5,456.0,170.0,458.0" stroke="black" stroke-width="2" fill="none" />
<polyline points="175.5,491.0,199.5,472.5,191.5,488.5,181.5,504.5" stroke="black" stroke-width="2" fill="none" />
<polyline points="162.0,426.0,146.0,420.5,146.0,408.5" stroke="black" stroke-width="2" fill="none" />
<polyline points="147.0,408.0,147.0,423.5,147.0,439.0,147.0,455.0,143.0,463.0,152.5,479.0,157.0,495.0" stroke="black" stroke-width="2" fill="none" />
<polyline points="133.0,486.0,137.0,470.0,140.5,454.0,140.0,437.5,140.0,421.0,139.5,405.0,139.5,405.0" stroke="black" stroke-width="2" fill="none" />
<polyline points="109.0,413.5,105.0,429.5,123.0,445.5" stroke="black" stroke-width="2" fill="none" />
<polyline points="87.5,430.5,97.5,442.5,119.5,471.0,119.5,487.0" stroke="black" stroke-width="2" fill="none" />
<polyline points="150.5,504.0,154.5,500.0,148.0,484.0,162.0,464.0,162.5,448.5,169.0,432.5,175.0,416.0,171.0,400.0,146.5,380.0,120.5,363.5,90.0,348.0,90.0,346.0" stroke="black" stroke-width="2" fill="none" />
<polyline points="92.0,349.5,108.0,356.0,124.0,366.5,140.0,376.5,155.5,384.0,173.5,380.0,190.0,376.0,206.0,371.5,221.5,369.0,238.0,365.0,254.0,361.0" stroke="black" stroke-width="2" fill="none" />
<polyline points="227.0,342.0,211.0,336.0,195.5,328.0,179.5,318.0,162.0,316.0,136.5,300.0,126.5,309.5" stroke="black" stroke-width="2" fill="none" />
<polyline points="130.0,305.5,145.5,305.5,161.5,316.0" stroke="black" stroke-width="2" fill="none" />
<polyline points="139.5,307.5,128.5,315.5,130.5,301.5" stroke="black" stroke-width="2" fill="none" />
<polyline points="131.5,293.5,147.5,301.5,163.5,307.5,179.5,305.5,196.0,303.5" stroke="black" stroke-width="2" fill="none" />
<polyline points="192.5,281.5,208.5,293.5,232.5,301.5" stroke="black" stroke-width="2" fill="none" />
<polyline points="238.5,300.0,222.5,285.5" stroke="black" stroke-width="2" fill="none" />
<polyline points="222.5,273.0,206.5,287.0,190.0,275.5,164.0,283.5,146.0,286.0,129.5,288.0,114.0,290.0,98.0,292.0,82.0,294.0,66.0,296.0,50.0,298.0" stroke="black" stroke-width="2" fill="none" />
<polyline points="53.0,302.0,69.0,324.0,85.5,319.5,89.5,324.0,87.5,326.0" stroke="black" stroke-width="2" fill="none" />
<polyline points="105.5,341.5,121.5,339.5,137.5,335.5,153.5,333.5,170.0,331.5,186.0,327.5,198.0,317.5,209.5,329.0" stroke="black" stroke-width="2" fill="none" />
<polyline points="228.5,373.0,213.0,375.5,197.0,379.5,180.5,383.5,170.5,397.5,154.5,387.5,138.5,379.5,123.0,369.5,107.0,362.0,91.0,354.0,77.0,348.5,50.5,330.5,34.5,309.0,18.0,295.0,2.0,287.0" stroke="black" stroke-width="2" fill="none" />
<polyline points="4.0,289.0,28.0,305.0,41.5,321.0,51.5,337.0,55.5,353.0,57.5,369.0,43.0,386.5,55.0,402.5,57.5,412.0" stroke="black" stroke-width="2" fill="none" />
<polyline points="50.5,390.5,34.0,391.0" stroke="black" stroke-width="2" fill="none" />
<polyline points="39.0,382.5,41.0,398.5,35.0,410.5,51.0,420.0" stroke="black" stroke-width="2" fill="none" />
<polyline points="45.5,422.5,29.5,418.5" stroke="black" stroke-width="2" fill="none" />
<polyline points="25.5,425.5,45.5,441.5" stroke="black" stroke-width="2" fill="none" />
<polyline points="42.0,454.5,26.0,438.5" stroke="black" stroke-width="2" fill="none" />
<polyline points="16.5,435.0,28.0,451.5,64.0,467.5,96.0,484.0" stroke="black" stroke-width="2" fill="none" />
<polyline points="77.5,459.0,95.5,448.5" stroke="black" stroke-width="2" fill="none" />
<polyline points="124.0,457.5,108.0,452.0,92.0,446.0,76.5,454.0,62.5,444.0,62.5,428.0,62.5,412.0,60.5,396.0,44.5,379.5,30.5,363.5" stroke="black" stroke-width="2" fill="none" />
<polyline points="29.0,348.5,31.0,364.5,26.5,380.5,26.5,396.5,28.5,412.5,36.5,412.5" stroke="black" stroke-width="2" fill="none" />
<polyline points="25.0,425.5,41.5,432.0" stroke="black" stroke-width="2" fill="none" />
<polyline points="10.5,430.5,26.5,448.0,42.5,457.5,58.5,457.5,66.0,459.0,82.0,441.5,97.5,441.5,113.5,449.5,129.5,454.0" stroke="black" stroke-width="2" fill="none" />
<polyline points="148.0,510.0,138.0,493.5,141.5,477.5,151.5,457.5,155.0,441.5,158.5,431.5,152.5,429.5,156.5,419.5,153.0,404.0,159.0,388.5,135.5,380.5,107.5,364.5,74.0,349.0,62.0,325.0,50.5,309.0,30.0,293.0,28.0,279.0" stroke="black" stroke-width="2" fill="none" />
<polyline points="29.5,288.5,51.5,302.5,63.5,318.5,65.5,344.5,81.5,342.0,98.0,338.0,113.5,336.0,129.5,334.0,145.5,330.0,161.5,328.0,177.5,326.0,191.5,310.0,215.0,310.5,231.0,310.5,245.5,308.5" stroke="black" stroke-width="2" fill="none" />
<polyline points="193.5,327.5,165.0,311.5,137.0,296.0" stroke="black" stroke-width="2" fill="none" />
<polyline points="162.5,265.5,146.5,267.5,131.0,268.0,115.0,268.5,99.0,270.5,83.5,270.5,67.5,272.5,51.5,272.5,35.0,274.5,19.0,274.5,3.0,276.5" stroke="black" stroke-width="2" fill="none" />
<polyline points="3.0,271.0,19.0,271.0,35.0,269.0,50.5,268.5,66.0,266.0" stroke="black" stroke-width="2" fill="none" />
<polyline points="53.5,262.0,37.5,262.0" stroke="black" stroke-width="2" fill="none" />
<polyline points="22.0,292.5,38.0,298.0,54.0,309.5,70.0,331.5" stroke="black" stroke-width="2" fill="none" />
<polyline points="61.5,339.0,46.0,317.0,30.0,298.5" stroke="black" stroke-width="2" fill="none" />
<polyline points="2.0,335.5,18.0,339.5,34.0,341.0,36.0,343.0,38.5,359.5,32.5,381.5,32.5,397.0,46.5,403.0,46.5,423.0,58.5,439.5,60.5,453.5,74.5,455.5,76.5,461.5,86.5,459.0,92.5,475.0,120.5,491.0,138.0,503.0" stroke="black" stroke-width="2" fill="none" />
<polyline points="83.0,481.5,67.0,473.5,51.0,465.5,35.0,459.5,19.0,454.0" stroke="black" stroke-width="2" fill="none" />
<polyline points="9.5,430.0,13.5,446.0,35.5,462.5,73.5,478.5,96.0,483.0,110.0,487.0" stroke="black" stroke-width="2" fill="none" />
<polyline points="49.5,444.5,33.0,434.5,16.5,428.5,0.5,419.0" stroke="black" stroke-width="2" fill="none" />
<polyline points="10.0,423.5,26.0,439.5,34.0,465.0,70.0,481.0,68.0,489.0" stroke="black" stroke-width="2" fill="none" />
<polyline points="142.0,483.5,140.0,473.5,114.5,466.0,98.5,468.0,82.5,474.5,66.5,478.0,50.5,472.0,34.5,466.0,18.0,468.0,2.0,470.0,8.0,449.5,6.0,433.5,4.0,409.0,11.5,397.5,15.0,397.5,15.5,381.5,3.5,377.5,3.5,361.5,5.5,345.5,1.5,344.0" stroke="black" stroke-width="2" fill="none" />
<polyline points="14.0,342.5,16.0,359.0,7.5,381.0,7.5,398.5,7.5,394.5,29.5,376.0,46.0,380.0" stroke="black" stroke-width="2" fill="none" />
<polyline points="83.0,384.0,83.0,399.5,85.0,415.5,87.0,432.0,119.0,448.5,131.0,472.5,127.0,476.5,124.5,484.5,124.5,492.5,134.5,492.5,151.0,502.5,171.0,470.5,187.0,450.5,203.5,444.5" stroke="black" stroke-width="2" fill="none" />
<polyline points="189.0,412.0,189.0,396.5" stroke="black" stroke-width="2" fill="none" />
<polyline points="218.0,395.5,202.0,406.0,212.0,414.0,218.0,398.5,226.0,382.5" stroke="black" stroke-width="2" fill="none" />
<polyline points="261.5,425.0,271.5,441.0,255.5,441.0,237.5,457.5,205.5,461.5,211.5,467.5,220.0,476.0,218.0,472.5,216.0,483.0,194.0,501.0,210.0,489.0,222.0,483.0,238.5,469.0,240.0,459.0,256.0,453.0,271.5,442.5" stroke="black" stroke-width="2" fill="none" />
<polyline points="267.5,436.5,251.5,446.5,234.0,450.0,260.0,434.5" stroke="black" stroke-width="2" fill="none" />
<polyline points="377.0,495.5,389.0,479.5" stroke="black" stroke-width="2" fill="none" />
<polyline points="386.0,477.5,374.0,493.5,378.0,487.5,384.0,487.5" stroke="black" stroke-width="2" fill="none" />
<polyline points="415.5,481.0,432.0,491.0" stroke="black" stroke-width="2" fill="none" />
<polyline points="435.5,503.5,419.0,481.5" stroke="black" stroke-width="2" fill="none" />
<polyline points="423.5,479.0,435.5,495.0" stroke="black" stroke-width="2" fill="none" />
<polyline points="458.0,501.5,472.5,487.5,491.0,493.5" stroke="black" stroke-width="2" fill="none" />
<polyline points="490.0,499.5,473.5,485.5" stroke="black" stroke-width="2" fill="none" />
<polyline points="471.0,488.5,463.0,504.5,464.5,509.0" stroke="black" stroke-width="2" fill="none" />
<polyline points="473.5,494.0,485.5,510.0" stroke="black" stroke-width="2" fill="none" />
<polyline points="508.5,506.0,507.0,504.0,495.0,480.0,505.0,474.0,489.0,488.5,473.0,480.5" stroke="black" stroke-width="2" fill="none" />
<polyline points="476.5,476.5,458.5,492.5,446.5,508.0" stroke="black" stroke-width="2" fill="none" />
<polyline points="479.5,500.0,463.5,490.5,447.5,504.5,423.5,496.5,425.0,498.5,425.0,508.5,425.5,492.0,419.5,476.0" stroke="black" stroke-width="2" fill="none" />
<polyline points="440.5,449.5,456.5,453.5" stroke="black" stroke-width="2" fill="none" />
<polyline points="455.0,449.5,439.0,445.5" stroke="black" stroke-width="2" fill="none" />
<polyline points="475.5,466.0,461.5,482.5,443.5,499.0,443.5,499.5,459.0,486.0,475.0,468.5,491.0,483.0" stroke="black" stroke-width="2" fill="none" />
<polyline points="479.5,470.0,483.0,486.0,497.0,501.5,491.0,507.5" stroke="black" stroke-width="2" fill="none" />
<polyline points="509.0,501.5,497.5,484.0,506.0,468.0" stroke="black" stroke-width="2" fill="none" />
<polyline points="463.5,353.5,461.5,337.5,455.5,321.0,455.5,305.0" stroke="black" stroke-width="2" fill="none" />
<polyline points="435.0,278.0,422.5,284.5,428.0,263.0,433.5,247.0,431.5,239.5,415.5,263.5" stroke="black" stroke-width="2" fill="none" />
<polyline points="403.5,283.5,405.5,271.5,389.5,255.5,374.0,257.0" stroke="black" stroke-width="2" fill="none" />
<polyline points="362.0,240.0,357.5,240.0,350.0,256.5" stroke="black" stroke-width="2" fill="none" />
<polyline points="315.5,279.5,309.5,265.5,281.0,251.5,271.0,251.5,250.5,240.0,234.5,240.0,218.0,250.5,202.0,245.0" stroke="black" stroke-width="2" fill="none" />
<polyline points="187.5,250.5,177.5,256.5,193.5,250.5,209.5,242.5,225.5,238.5,241.5,224.0,258.0,242.0,274.0,238.0,290.5,238.0,306.5,234.0,323.0,223.5,339.0,213.5,351.0,215.5,362.5,221.5,370.0,217.0,386.0,227.0" stroke="black" stroke-width="2" fill="none" />
<polyline points="370.0,186.0,372.5,170.0,362.5,170.0" stroke="black" stroke-width="2" fill="none" />
<polyline points="361.5,169.0,361.5,185.0,373.5,213.0,389.5,223.5,406.0,232.0,422.0,224.5,438.0,212.5,454.0,222.5,470.0,224.5,486.5,232.5,503.0,224.5" stroke="black" stroke-width="2" fill="none" />
<polyline points="488.0,262.0,482.0,278.0,482.0,294.0,476.0,310.5,482.0,308.5,498.0,288.5,497.5,274.5" stroke="black" stroke-width="2" fill="none" />
<polyline points="501.5,291.5,485.5,309.5,467.5,327.0,445.5,313.0,423.0,323.0,407.0,333.5,415.0,327.5,435.0,312.0,443.0,296.0,463.0,292.5,467.0,276.5,470.5,260.5" stroke="black" stroke-width="2" fill="none" />
<polyline points="449.5,262.5,453.5,278.5" stroke="black" stroke-width="2" fill="none" />
<polyline points="440.0,291.0,436.0,287.5,434.0,283.5,412.5,286.0,396.5,289.5,381.0,297.5,365.5,300.0,348.0,304.0,332.0,306.0,325.5,298.0,321.0,294.0,304.5,300.0,282.0,304.5,255.5,306.5,253.5,291.0,249.5,275.0,263.5,259.5,257.5,243.5,243.5,227.5" stroke="black" stroke-width="2" fill="none" />
<polyline points="240.5,231.0,226.5,246.5,248.5,260.5,254.5,270.5,270.5,270.5,286.5,262.5,289.0,244.5,305.0,252.5,321.5,242.0,329.0,250.0,349.0,252.5,367.0,238.0,377.0,242.0" stroke="black" stroke-width="2" fill="none" />
<polyline points="404.0,237.0,388.5,235.0,372.5,233.0,356.5,234.5,340.5,234.5,324.5,235.0,308.5,241.0,320.0,227.0,346.0,199.0,335.5,182.5,341.5,166.5,337.0,160.0,321.0,160.0,305.0,158.0,289.0,160.0,273.0,160.0,257.0,160.0,241.0,158.0,225.5,158.0,209.5,158.0,194.0,158.0,178.5,158.0,162.5,157.5,146.5,157.5,130.5,157.5,114.5,157.5,98.5,157.0,82.5,157.0,66.5,157.0,50.5,157.0,34.5,156.5,18.0,156.5,2.0,156.5" stroke="black" stroke-width="2" fill="none" />
<polyline points="2.0,164.0,18.0,164.5,34.0,164.0,49.5,164.0,65.5,163.5,81.5,163.0,97.5,163.5,113.5,163.5,129.5,161.5,145.5,163.5,162.0,163.5,177.5,163.5,193.5,164.0,209.5,164.0,225.5,164.0,242.0,164.5,258.0,164.5,274.0,164.5,290.0,165.0,306.5,165.0,322.5,165.0,342.5,164.5,356.5,158.5,372.0,162.0,387.5,164.0,403.0,164.0,419.5,164.0,435.5,160.0,451.5,162.5,467.5,160.5,483.5,158.5" stroke="black" stroke-width="2" fill="none" />
<polyline points="496.0,162.0,480.0,163.5,464.0,163.5" stroke="black" stroke-width="2" fill="none" />
<polyline points="506.5,168.5,490.5,169.0,474.5,171.0,458.0,171.0,442.0,167.0,425.5,170.5,409.5,170.5,393.0,170.0,377.0,170.0" stroke="black" stroke-width="2" fill="none" />
<polyline points="377.0,170.0,375.5,186.0,371.0,201.5,377.5,217.5,397.5,233.5,386.0,237.5" stroke="black" stroke-width="2" fill="none" />
<polyline points="438.0,217.5,442.0,233.5,424.0,248.0,416.0,264.0,418.0,279.5,398.5,295.5,410.0,313.5" stroke="black" stroke-width="2" fill="none" />
<polyline points="314.5,292.5,312.5,276.5" stroke="black" stroke-width="2" fill="none" />
<polyline points="299.5,306.5,283.5,311.0,260.0,325.5,244.0,330.0,240.0,338.5,226.0,344.5,226.5,328.0,226.5,312.0,204.5,294.5,191.0,278.5" stroke="black" stroke-width="2" fill="none" />
<polyline points="155.5,261.0,139.5,261.0,123.5,263.5,107.5,263.5,91.5,265.5,84.0,261.5,66.0,256.0,50.5,258.0,35.0,256.5,19.0,254.5,3.5,256.5" stroke="black" stroke-width="2" fill="none" />
<polyline points="2.5,250.0,18.5,250.0,34.5,249.5,50.0,251.0,66.0,251.0,81.5,251.0" stroke="black" stroke-width="2" fill="none" />
<polyline points="55.5,223.5,40.0,221.5" stroke="black" stroke-width="2" fill="none" />
<polyline points="39.0,217.0,55.0,217.5" stroke="black" stroke-width="2" fill="none" />
<polyline points="89.0,385.5,92.5,402.0,97.0,402.0,115.0,406.0,115.0,422.0,109.0,422.0,99.0,436.5,112.5,440.5,112.5,444.5" stroke="black" stroke-width="2" fill="none" />
<polyline points="245.0,235.0,256.5,251.0,259.0,277.0,260.5,293.0,272.5,302.5,280.0,312.5,280.5,330.5,279.0,340.0,257.5,338.0,261.5,365.5,273.5,372.0,289.5,360.0,305.5,354.0,325.0,362.0,340.5,351.5,356.0,342.0,365.5,346.0,381.5,360.5" stroke="black" stroke-width="2" fill="none" />
<polyline points="365.0,405.5,345.0,417.5,342.5,411.5,326.5,415.5,310.5,411.5,290.5,393.5,275.0,391.5,259.0,412.0,241.0,412.0,225.0,424.5,208.5,434.5,190.5,455.0,174.0,477.0,162.0,511.0,158.0,507.0,164.0,490.5,170.0,488.5,158.0,482.0,170.5,470.0,166.5,466.0,182.5,452.0,212.5,430.0,239.0,413.5,253.0,397.5,252.5,381.5,252.5,366.0,246.0,350.0,210.0,330.0,182.0,314.0,210.0,290.0,213.5,273.5,205.5,263.5,223.5,240.0,238.0,224.5" stroke="black" stroke-width="2" fill="none" />
<polyline points="356.0,197.0,340.0,194.5,332.0,212.5,316.0,222.0,300.0,230.0,324.0,215.5,340.0,199.5,332.0,183.0,333.5,167.5,357.5,149.5,357.0,133.5,357.0,117.5" stroke="black" stroke-width="2" fill="none" />
<polyline points="436.0,211.5,422.0,227.5,411.5,233.5,427.5,231.5,441.5,217.5,458.0,228.0,474.0,233.5,480.0,245.5,498.0,240.0" stroke="black" stroke-width="2" fill="none" />
<polyline points="461.0,284.0,457.0,299.5,440.5,313.5,426.5,309.5,420.0,307.5,424.0,291.5,442.0,275.5,446.0,259.5,446.0,239.5,448.0,223.5,442.0,213.0" stroke="black" stroke-width="2" fill="none" />
</svg>