<svg xmlns="http://www.w3.org/2000/svg" width="512mm" height="512mm" viewBox="0 0 512 512" version="1.1"><polyline points="101.5,106.5,103.5,122.5,105.5,138.5,105.5,140.5,103.5,157.0,103.5,173.0,103.5,189.0,107.5,205.0,101.0,211.0,101.0,232.5,112.5,248.5" stroke="black" stroke-width="2" fill="none" />
<polyline points="130.5,270.5,143.0,286.5,139.0,302.5,145.0,302.0,139.0,318.0,149.0,337.5,153.0,343.5" stroke="black" stroke-width="2" fill="none" />
<polyline points="174.0,332.5,190.0,332.5" stroke="black" stroke-width="2" fill="none" />
<polyline points="193.0,302.5,197.0,298.5,199.5,292.5,185.5,312.5,185.5,296.5,189.5,296.5,185.5,289.0" stroke="black" stroke-width="2" fill="none" />
<polyline points="175.5,289.5,179.5,305.5,174.0,331.5,176.0,348.0,169.5,352.0" stroke="black" stroke-width="2" fill="none" />
<polyline points="191.0,354.5,191.0,348.5,175.0,354.5,160.5,354.0,154.5,344.0,136.0,342.0,132.0,353.5,115.5,357.5,129.5,341.5,137.0,325.5,156.5,319.5,170.5,311.5,162.5,295.5,151.0,280.0,151.0,264.5,149.5,258.5,133.5,264.5,118.0,261.0,102.0,259.0,86.5,257.0,70.0,255.0,54.0,247.0" stroke="black" stroke-width="2" fill="none" />
<polyline points="54.0,246.0,45.5,254.0,52.0,258.5" stroke="black" stroke-width="2" fill="none" />
<polyline points="65.5,266.5,57.5,282.5,49.5,298.5,55.5,304.5" stroke="black" stroke-width="2" fill="none" />
<polyline points="59.0,317.5,43.0,320.0" stroke="black" stroke-width="2" fill="none" />
<polyline points="41.5,319.0,43.5,335.0,49.5,351.5" stroke="black" stroke-width="2" fill="none" />
<polyline points="66.5,352.5,51.0,359.0,35.0,357.0,19.0,349.0" stroke="black" stroke-width="2" fill="none" />
<polyline points="44.0,324.5,60.0,324.0,58.0,331.5,56.0,347.5,77.5,349.5,93.5,353.5" stroke="black" stroke-width="2" fill="none" />
<polyline points="99.5,344.5,83.5,338.5" stroke="black" stroke-width="2" fill="none" />
<polyline points="74.5,327.5,90.5,331.5,106.5,328.0,112.5,344.0,120.5,370.0,136.5,368.0,152.5,370.0,168.0,374.0,184.0,370.0,200.0,365.5,216.0,361.5,232.0,361.5,254.0,370.0,270.5,376.0,286.5,376.0,302.5,376.0" stroke="black" stroke-width="2" fill="none" />
<polyline points="324.5,352.0,328.5,348.0,334.5,366.0" stroke="black" stroke-width="2" fill="none" />
<polyline points="349.0,353.5,341.5,337.0,339.5,320.5,344.0,301.0,328.0,307.0" stroke="black" stroke-width="2" fill="none" />
<polyline points="332.0,309.0,347.5,309.5,363.5,307.5,373.5,319.5,376.0,336.0,368.0,352.0,376.0,360.0,373.5,366.5" stroke="black" stroke-width="2" fill="none" />
<polyline points="387.5,352.5,403.5,350.0,419.5,350.0,435.5,348.5,451.5,348.5,467.5,346.5,483.5,346.0,499.5,344.0" stroke="black" stroke-width="2" fill="none" />
<polyline points="506.0,328.5,510.0,313.0,509.5,299.0" stroke="black" stroke-width="2" fill="none" />
<polyline points="505.5,285.5,505.5,287.5,505.5,303.0,510.0,325.0,510.5,352.5,509.0,368.0,466.5,383.5" stroke="black" stroke-width="2" fill="none" />
<polyline points="501.5,322.0,486.0,324.0,470.0,326.0,454.5,326.0,439.0,326.5,423.0,328.5,397.0,330.5,381.5,328.5" stroke="black" stroke-width="2" fill="none" />
<polyline points="376.0,314.0,391.5,310.0" stroke="black" stroke-width="2" fill="none" />
<polyline points="345.0,328.0,361.0,328.0,387.5,324.5,403.5,324.5,424.0,323.0,440.0,323.0,456.5,315.0,472.5,317.0,488.5,318.5,504.5,310.5" stroke="black" stroke-width="2" fill="none" />
<polyline points="507.5,374.5,491.5,382.5,475.5,388.5,459.5,392.0,445.5,390.0,429.0,396.0,409.5,390.0,394.0,400.0,378.5,396.5,362.5,392.5,346.5,393.0" stroke="black" stroke-width="2" fill="none" />
<polyline points="347.0,392.0,373.0,407.5" stroke="black" stroke-width="2" fill="none" />
<polyline points="356.5,410.5,340.5,416.5,324.5,420.5,308.5,422.5,292.5,428.5,276.0,430.5,260.5,432.5,244.5,434.0,228.5,433.5,212.5,435.0,196.0,432.5,180.5,434.5,164.5,433.0,148.0,425.0,174.0,403.0,177.5,383.0,161.0,397.0,145.5,407.0,129.5,409.0,113.5,419.5,98.0,429.5" stroke="black" stroke-width="2" fill="none" />
<polyline points="132.0,417.5,148.0,416.0,164.0,404.5,180.0,390.5,195.5,378.0,211.5,374.0,228.0,372.0" stroke="black" stroke-width="2" fill="none" />
<polyline points="192.5,389.5,208.5,387.5,224.5,387.5,240.5,385.0,262.5,397.0,278.5,397.0,294.0,393.0" stroke="black" stroke-width="2" fill="none" />
<polyline points="282.0,389.5,266.0,389.5,250.5,391.0,235.0,391.5,219.0,391.5,202.5,393.5,186.5,395.5" stroke="black" stroke-width="2" fill="none" />
<polyline points="202.0,370.5,186.0,375.0,170.0,389.0,154.0,397.5,138.5,405.0,122.5,409.0,106.5,421.0,98.5,420.5,82.5,432.5,100.5,419.0,128.5,410.5,165.0,391.0,173.5,383.0,157.5,377.0,141.5,374.5,125.5,374.5" stroke="black" stroke-width="2" fill="none" />
<polyline points="135.5,345.0,141.5,341.0,135.5,322.5,119.5,323.0" stroke="black" stroke-width="2" fill="none" />
<polyline points="117.5,329.5,119.5,345.5" stroke="black" stroke-width="2" fill="none" />
<polyline points="122.0,306.0,138.0,308.0" stroke="black" stroke-width="2" fill="none" />
<polyline points="129.0,290.0,119.0,291.5,111.5,295.5,104.0,295.5,100.5,311.5" stroke="black" stroke-width="2" fill="none" />
<polyline points="95.5,290.5,91.5,294.5,83.5,296.5" stroke="black" stroke-width="2" fill="none" />
<polyline points="80.5,284.5,88.5,286.5,92.5,302.5,96.5,308.5,104.5,312.5" stroke="black" stroke-width="2" fill="none" />
<polyline points="106.0,349.0,84.0,341.0,84.0,317.5,76.0,301.5,76.5,285.5" stroke="black" stroke-width="2" fill="none" />
<polyline points="69.0,270.5,69.0,286.5,57.0,290.0,71.0,301.5,81.0,313.5,87.0,305.0,105.5,287.0,124.0,285.5,128.0,297.5" stroke="black" stroke-width="2" fill="none" />
<polyline points="149.0,284.5,154.5,300.5,150.5,322.0,166.5,320.0" stroke="black" stroke-width="2" fill="none" />
<polyline points="172.0,305.0,171.5,289.0,167.5,287.0" stroke="black" stroke-width="2" fill="none" />
<polyline points="157.5,285.5,157.5,295.5" stroke="black" stroke-width="2" fill="none" />
<polyline points="154.0,271.5,169.5,271.5,185.5,272.0,201.5,276.0,225.5,288.0,226.0,304.5,220.0,320.5,212.0,330.5,212.0,347.0,200.5,371.0,182.5,389.0,164.5,404.5,132.5,418.5,148.0,434.0" stroke="black" stroke-width="2" fill="none" />
<polyline points="152.5,417.5,168.5,410.0,186.0,388.0,201.5,382.0,217.5,380.0,233.0,380.0" stroke="black" stroke-width="2" fill="none" />
<polyline points="253.0,369.5,241.0,359.0,255.0,342.5,252.5,326.5" stroke="black" stroke-width="2" fill="none" />
<polyline points="258.5,325.0,246.5,331.5,246.0,347.5,244.0,373.5,248.0,378.0,264.0,384.0,279.5,386.0,295.5,385.5,323.5,383.5,339.0,385.5,355.0,385.5,371.0,389.5,387.0,394.0,405.5,398.5,424.0,392.5,440.5,389.0,456.5,388.5,472.5,382.5,489.0,380.5,505.5,370.5,497.5,380.5,481.5,398.5,497.5,393.0,511.5,391.0" stroke="black" stroke-width="2" fill="none" />
<polyline points="504.5,338.5,488.5,340.5,472.5,342.5,456.5,342.5,440.5,344.5,424.5,344.0,409.0,346.5,393.5,348.5,370.0,346.5,362.0,334.0,347.5,352.5,331.0,360.0,329.0,330.0,313.0,334.0,283.0,337.5,266.5,333.5,251.0,321.5,241.0,323.0,225.0,319.0,221.5,323.0,211.5,325.0,195.0,321.5,171.0,315.5,162.5,307.5,154.5,289.5,136.5,282.0,120.0,282.0,104.0,282.5,88.0,283.0,71.5,277.0,62.0,291.0,58.5,302.5,42.5,286.0,32.0,309.5,22.0,295.5,22.5,287.0,31.0,277.5,21.0,261.5,26.5,241.5,22.5,225.5,24.5,209.5,26.5,193.5,21.0,193.5,23.0,178.0,25.0,162.0,23.0,146.5,26.5,130.5,32.5,107.0,38.0,109.0,22.0,139.0" stroke="black" stroke-width="2" fill="none" />
<polyline points="18.0,157.0,18.5,131.5,30.5,115.5,44.5,98.0,28.5,110.5" stroke="black" stroke-width="2" fill="none" />
<polyline points="24.5,63.0,40.5,30.5,29.0,42.5,21.5,58.5,25.5,38.5" stroke="black" stroke-width="2" fill="none" />
<polyline points="16.0,38.5,32.0,8.5,30.5,12.5,22.5,29.0,16.5,45.0,22.5,47.0,18.5,63.0,24.5,89.5,22.5,105.5,14.5,115.5,12.5,131.5,14.5,150.0,14.0,166.0,11.5,182.0,15.5,198.0,9.0,220.0,11.0,236.0,15.0,252.0,15.0,268.0,7.0,284.0,7.0,300.0,17.0,308.0,23.5,324.5,29.5,342.5" stroke="black" stroke-width="2" fill="none" />
<polyline points="60.5,332.5,63.0,348.5" stroke="black" stroke-width="2" fill="none" />
<polyline points="33.0,296.5,25.0,280.5,19.5,270.5" stroke="black" stroke-width="2" fill="none" />
<polyline points="16.0,284.0,24.0,300.0,4.0,314.0,10.0,330.5,12.0,346.5,14.0,362.5,11.5,378.5,11.0,394.5,15.0,410.5,13.5,426.0,11.5,442.0,19.5,458.0,17.5,468.5,25.5,488.5,42.0,505.0" stroke="black" stroke-width="2" fill="none" />
<polyline points="58.0,474.5,74.0,477.0" stroke="black" stroke-width="2" fill="none" />
<polyline points="128.0,468.0,144.0,474.0,160.5,479.5,176.5,486.0" stroke="black" stroke-width="2" fill="none" />
<polyline points="221.0,500.5,238.5,510.5,234.5,510.0,269.0,505.5,295.5,503.5" stroke="black" stroke-width="2" fill="none" />
<polyline points="293.5,494.0,313.0,510.0" stroke="black" stroke-width="2" fill="none" />
<polyline points="311.0,506.0,295.0,498.0,285.0,496.0,263.0,504.0,247.0,496.0" stroke="black" stroke-width="2" fill="none" />
<polyline points="241.5,496.0,257.5,508.0" stroke="black" stroke-width="2" fill="none" />
<polyline points="295.5,425.5,309.5,425.5,294.0,431.0,277.5,433.0,261.0,437.0,245.5,437.0,230.0,439.5,214.0,439.5,198.0,439.5,181.5,439.5,165.5,439.5,149.5,433.5,133.5,421.5" stroke="black" stroke-width="2" fill="none" />
<polyline points="143.5,461.0,127.5,457.5,111.5,453.5,96.0,448.0,80.0,440.5,64.0,434.5,48.0,424.5" stroke="black" stroke-width="2" fill="none" />
<polyline points="47.0,420.5,67.0,436.0,107.0,452.0,157.0,473.5,190.5,489.5,208.0,483.5,224.0,485.5,239.5,489.5,255.5,493.5,271.5,498.0,275.5,494.0,291.5,495.5,307.5,495.5,323.5,495.5,339.5,501.5,351.0,503.5,367.5,499.5,384.0,491.0,406.0,493.5,422.0,479.5,436.0,488.0,452.0,480.0,468.5,474.0,484.5,468.0,500.5,460.0" stroke="black" stroke-width="2" fill="none" />
<polyline points="506.0,466.5,482.0,482.0,433.5,498.5,413.5,494.5,430.0,482.5,446.5,478.5,462.5,472.5,478.5,464.0,494.5,456.0,510.5,447.5" stroke="black" stroke-width="2" fill="none" />
<polyline points="510.0,447.5,478.0,463.5,440.0,479.0,420.0,481.0,392.0,491.0,366.0,501.0,350.0,503.0,358.0,509.0,373.5,507.5,375.5,501.5,391.0,491.5,407.5,480.0" stroke="black" stroke-width="2" fill="none" />
<polyline points="414.0,486.0,407.5,502.0,413.0,499.5,429.0,493.5,445.0,491.5,461.0,486.0,477.0,478.0,493.0,470.0,509.5,460.0" stroke="black" stroke-width="2" fill="none" />
<polyline points="509.5,460.0,483.5,476.0,441.5,492.5,397.5,502.5,394.0,509.0,408.0,509.0,424.0,503.5,440.0,499.5,456.0,495.0,472.0,487.0,488.0,480.5,504.0,471.0" stroke="black" stroke-width="2" fill="none" />
<polyline points="509.5,478.0,499.5,494.5,497.5,505.0,497.5,497.5,505.0,492.0" stroke="black" stroke-width="2" fill="none" />
<polyline points="508.0,504.0,492.5,512.5" stroke="black" stroke-width="2" fill="none" />
<polyline points="509.5,453.0,477.5,469.0,439.5,485.0,409.5,483.5,389.5,487.5,379.5,503.5,380.0,510.0,396.0,496.5" stroke="black" stroke-width="2" fill="none" />
<polyline points="373.0,408.5,357.0,418.0,341.0,422.0,325.0,426.0,311.0,426.0,352.5,412.0,339.0,395.5" stroke="black" stroke-width="2" fill="none" />
<polyline points="367.5,364.5,352.0,372.5,348.0,363.0,332.0,377.0,316.5,378.5,308.0,382.5,307.5,374.0,313.5,358.0,297.5,352.0,295.0,336.0,299.5,333.5,303.0,317.5,308.5,295.5,306.0,279.5,294.5,261.5,288.5,261.0,279.0,251.0,265.5,241.0,248.0,229.0,252.0,213.0,244.0,190.5,248.5,175.0,254.5,159.5,234.5,159.0" stroke="black" stroke-width="2" fill="none" />
<polyline points="224.0,187.5,238.0,203.5,240.0,226.0,246.0,242.0,244.0,257.5,256.5,257.5,254.0,271.5,250.0,297.5,266.0,299.5,282.5,299.5,299.0,297.5,322.5,302.0,333.0,316.0,349.0,316.0,365.0,314.0,385.0,308.0" stroke="black" stroke-width="2" fill="none" />
<polyline points="372.0,289.0,356.0,283.0,340.0,279.5,324.5,271.0,308.5,237.0" stroke="black" stroke-width="2" fill="none" />
<polyline points="311.0,231.0,316.5,247.0,325.0,263.0,354.5,283.0" stroke="black" stroke-width="2" fill="none" />
<polyline points="324.5,313.5,324.5,329.5,335.5,345.5,340.0,361.5" stroke="black" stroke-width="2" fill="none" />
<polyline points="293.0,334.5,293.0,350.5,288.5,350.5,284.5,342.5" stroke="black" stroke-width="2" fill="none" />
<polyline points="281.0,336.5,281.0,352.5" stroke="black" stroke-width="2" fill="none" />
<polyline points="278.0,334.5,268.0,351.0,259.5,353.0,257.5,362.5,279.5,358.5,301.5,358.0" stroke="black" stroke-width="2" fill="none" />
<polyline points="297.0,303.5,280.5,305.5" stroke="black" stroke-width="2" fill="none" />
<polyline points="270.0,261.0,254.5,245.0" stroke="black" stroke-width="2" fill="none" />
<polyline points="249.5,245.0,265.0,265.5" stroke="black" stroke-width="2" fill="none" />
<polyline points="272.5,246.0,256.5,232.0" stroke="black" stroke-width="2" fill="none" />
<polyline points="257.0,240.5,271.0,256.5" stroke="black" stroke-width="2" fill="none" />
<polyline points="286.5,248.0,270.5,236.0,254.0,216.0,248.0,222.0" stroke="black" stroke-width="2" fill="none" />
<polyline points="246.0,227.5,252.0,243.5,266.0,260.0,274.5,276.0" stroke="black" stroke-width="2" fill="none" />
<polyline points="256.5,265.5,240.5,249.5" stroke="black" stroke-width="2" fill="none" />
<polyline points="228.5,243.5,250.5,254.0,250.0,268.0" stroke="black" stroke-width="2" fill="none" />
<polyline points="271.0,279.0,255.0,285.5,227.0,289.0,221.0,281.0,221.0,301.0,216.0,305.0,216.0,288.5,226.5,276.5,240.5,264.0,223.0,256.0,221.5,239.5,222.0,224.0,225.5,207.5,217.5,201.5,223.5,185.5,221.5,169.5,223.0,145.5,219.0,129.5,216.5,110.0,222.5,108.0,232.0,92.5,208.0,111.0" stroke="black" stroke-width="2" fill="none" />
<polyline points="206.0,108.0,222.0,88.0,220.5,90.0,208.5,106.0,214.5,122.0,204.5,138.5,216.5,154.0,214.5,170.0,202.0,185.5,200.0,187.5,216.0,165.5,232.0,147.0,246.0,127.5,232.0,125.5,230.5,140.0,224.5,156.0,234.5,174.0,214.5,181.5,202.5,193.5,220.5,179.5,224.0,186.0,224.0,192.0,236.0,230.0,258.0,242.0,274.0,257.5" stroke="black" stroke-width="2" fill="none" />
<polyline points="286.5,240.0,285.0,223.5,283.0,207.5,265.5,183.5,249.0,193.5" stroke="black" stroke-width="2" fill="none" />
<polyline points="252.0,194.5,268.5,193.0" stroke="black" stroke-width="2" fill="none" />
<polyline points="258.0,183.0,254.0,199.5,256.0,209.5,258.0,225.5,274.0,241.5,292.0,249.5" stroke="black" stroke-width="2" fill="none" />
<polyline points="306.5,229.0,310.5,244.5,312.5,260.5,288.5,276.5,248.5,292.5,242.5,320.5,241.0,328.5" stroke="black" stroke-width="2" fill="none" />
<polyline points="234.0,327.5,218.5,335.5,224.5,347.5,240.5,348.0,250.5,354.0,270.5,370.0,286.5,370.0,302.5,370.0,312.0,371.5,327.5,371.5" stroke="black" stroke-width="2" fill="none" />
<polyline points="390.5,309.5,396.5,294.0,386.5,290.5,370.0,282.5,354.0,276.5,338.5,272.5,322.5,258.5,306.5,228.5" stroke="black" stroke-width="2" fill="none" />
<polyline points="289.5,239.5,289.5,223.5,285.5,207.5" stroke="black" stroke-width="2" fill="none" />
<polyline points="311.5,270.5,311.5,286.5,325.0,304.5,319.0,322.5,314.5,338.0,310.5,338.0,312.5,353.5,313.0,369.5,311.0,385.5,319.5,391.0,335.5,393.0,351.5,399.0,353.5,395.0,369.5,403.5" stroke="black" stroke-width="2" fill="none" />
<polyline points="294.0,317.0,278.0,317.0,261.5,316.5,251.5,306.5,236.0,305.0,234.0,309.0" stroke="black" stroke-width="2" fill="none" />
<polyline points="212.0,305.0,212.0,289.0" stroke="black" stroke-width="2" fill="none" />
<polyline points="174.0,233.5,174.0,239.5,158.0,253.5,138.0,253.5,122.0,247.5,122.0,243.0,112.5,227.0,108.5,211.0,110.0,195.5,110.0,175.5,110.0,160.0,109.5,144.0,110.0,128.0,108.0,112.0,118.0,116.0,118.0,114.0,102.0,106.0" stroke="black" stroke-width="2" fill="none" />
<polyline points="111.0,154.0,113.0,160.0" stroke="black" stroke-width="2" fill="none" />
<polyline points="93.0,199.0,109.0,211.5" stroke="black" stroke-width="2" fill="none" />
<polyline points="87.5,230.0,103.5,232.0,123.5,244.0,139.5,250.0,155.5,249.5,164.0,263.0,180.0,265.5,196.5,267.5,212.5,267.5,218.5,274.0,230.0,272.0" stroke="black" stroke-width="2" fill="none" />
<polyline points="199.5,285.5,183.5,283.5,167.5,283.0,151.0,279.0,135.0,269.0,119.5,264.5,103.5,263.0,88.0,261.0,72.0,259.0,56.5,255.5,34.5,252.0,18.5,244.0" stroke="black" stroke-width="2" fill="none" />
<polyline points="15.0,254.5,31.0,264.5,34.5,271.0,46.5,291.0,46.0,307.5,63.5,315.5,67.5,321.5,74.0,337.5,80.0,353.5,78.0,357.5,94.0,357.5,110.0,356.0,130.0,358.5,146.0,358.5" stroke="black" stroke-width="2" fill="none" />
<polyline points="158.0,372.5,176.0,388.5,150.0,404.0,118.0,410.0,106.0,425.5,80.5,425.0,92.5,441.5,130.5,464.0,146.5,470.5,163.0,476.5,179.0,477.0,195.0,479.0,211.0,481.0,226.5,482.5,242.0,486.0,258.0,490.0,274.0,487.5,290.0,490.0,306.0,490.0,322.0,490.0,338.0,494.5,354.0,490.5,370.0,486.0,382.0,486.0" stroke="black" stroke-width="2" fill="none" />
<polyline points="159.0,495.5,142.5,483.0,126.5,473.0,110.5,465.0,94.0,457.0,78.0,449.5,61.5,442.0,45.0,427.5" stroke="black" stroke-width="2" fill="none" />
<polyline points="53.5,422.0,87.5,438.0,103.5,444.0,119.0,450.0,134.5,453.5,150.0,458.0" stroke="black" stroke-width="2" fill="none" />
<polyline points="128.5,467.0,166.0,483.5,186.0,485.5" stroke="black" stroke-width="2" fill="none" />
<polyline points="101.0,477.5,85.5,467.5,69.5,459.5,53.5,459.5,37.5,449.5,21.5,436.0" stroke="black" stroke-width="2" fill="none" />
<polyline points="23.0,436.0,41.0,451.5,75.0,463.0,103.0,479.0" stroke="black" stroke-width="2" fill="none" />
<polyline points="88.5,475.5,72.0,467.0,54.0,455.0,38.0,441.5,22.0,427.5" stroke="black" stroke-width="2" fill="none" />
<polyline points="19.0,432.0,21.0,448.0,29.0,463.5,30.5,481.5,32.5,484.0" stroke="black" stroke-width="2" fill="none" />
<polyline points="36.5,473.0,20.5,447.0" stroke="black" stroke-width="2" fill="none" />
<polyline points="9.5,453.5,13.5,469.5,33.5,495.5" stroke="black" stroke-width="2" fill="none" />
<polyline points="34.0,502.0,17.5,484.0,1.5,474.0" stroke="black" stroke-width="2" fill="none" />
<polyline points="2.0,463.0,18.0,477.0" stroke="black" stroke-width="2" fill="none" />
<polyline points="18.0,473.5,2.0,453.5" stroke="black" stroke-width="2" fill="none" />
<polyline points="2.5,446.5,18.5,466.5" stroke="black" stroke-width="2" fill="none" />
<polyline points="5.0,445.5,9.0,461.5,7.0,477.5,24.5,493.5,40.0,509.0" stroke="black" stroke-width="2" fill="none" />
<polyline points="24.0,416.0,42.0,432.0,61.5,448.0,91.0,463.5,124.5,479.5,146.5,496.0" stroke="black" stroke-width="2" fill="none" />
<polyline points="147.0,494.0,131.0,482.5,115.0,474.5,99.5,466.5,83.5,458.5,67.5,450.5,51.0,440.5,35.0,424.5,19.0,416.5" stroke="black" stroke-width="2" fill="none" />
<polyline points="19.0,411.5,23.0,427.5,38.5,444.0,64.5,458.0,58.5,474.0,96.5,482.0" stroke="black" stroke-width="2" fill="none" />
<polyline points="94.5,415.5,78.5,427.5,62.0,425.5,45.5,420.0,29.5,414.0,13.5,402.0" stroke="black" stroke-width="2" fill="none" />
<polyline points="13.5,313.0,11.5,293.0" stroke="black" stroke-width="2" fill="none" />
<polyline points="10.5,288.5,14.5,304.5,16.5,326.5,22.5,342.5,18.5,362.5,16.5,378.5,16.0,394.0,22.0,410.0,42.0,425.5,60.0,442.0,90.0,458.0,123.5,474.0,147.0,489.5" stroke="black" stroke-width="2" fill="none" />
<polyline points="60.0,280.0,32.0,290.5,16.0,284.0" stroke="black" stroke-width="2" fill="none" />
<polyline points="84.0,227.0,100.5,226.5,119.0,223.0,123.0,221.0" stroke="black" stroke-width="2" fill="none" />
<polyline points="182.5,173.5,198.5,165.5" stroke="black" stroke-width="2" fill="none" />
<polyline points="187.5,161.0,173.5,177.0,177.5,179.0,187.5,161.5,204.0,162.0,230.0,164.5,240.0,154.5,256.0,146.5" stroke="black" stroke-width="2" fill="none" />
<polyline points="247.0,117.5,241.0,133.5,239.5,147.5,241.5,161.5,240.0,177.0,238.0,195.5,232.0,203.5,230.0,220.0,234.0,236.0,230.0,252.5,236.0,268.5,240.0,289.0,253.5,303.0,265.5,306.5,267.5,312.5,283.5,312.0,300.0,310.0,311.5,306.0,318.0,298.0,334.0,300.0,350.0,296.0,366.0,296.5,382.0,296.0,385.5,298.0" stroke="black" stroke-width="2" fill="none" />
<polyline points="399.5,361.5,371.5,367.5,359.5,359.5,355.5,358.0,359.5,342.0,369.5,337.5,369.0,323.5,373.5,307.5,388.0,295.5,362.0,280.0,320.5,268.5,306.5,269.0,303.0,267.0,287.0,278.5,271.0,284.5,255.0,290.5,239.0,296.5,225.5,306.5,209.5,318.5,193.5,318.5,191.0,328.5,175.0,326.5,157.0,330.5,139.0,330.0,123.0,330.0,107.0,323.5,97.0,323.5,80.5,321.5,62.5,328.0,48.5,342.0,40.0,334.5,36.0,330.5,38.0,315.0,42.0,299.0,38.0,297.5,46.5,281.0,38.5,273.0,36.5,257.0,24.5,256.5,16.5,240.5,14.5,229.0,12.5,212.5,11.0,197.0,9.5,179.0,9.5,163.0,7.5,146.5,7.5,130.5,11.5,114.5,11.0,98.5,12.5,84.5,4.5,68.5,8.5,49.0,14.0,32.5,17.5,16.5,21.0,16.0,23.0,11.5,7.0,45.5" stroke="black" stroke-width="2" fill="none" />
<polyline points="1.5,6.0,7.5,4.0,13.0,20.5,35.0,24.5,45.5,24.5,37.5,40.5,29.5,56.5,23.5,72.0,17.5,88.0" stroke="black" stroke-width="2" fill="none" />
<polyline points="216.0,132.0,228.0,130.5,244.0,116.5" stroke="black" stroke-width="2" fill="none" />
<polyline points="216.0,183.5,212.0,199.5,215.5,215.5,215.5,231.5,215.5,247.5,226.0,264.0,212.0,279.5,204.0,295.5,200.0,298.0,188.0,312.0,198.0,334.5,200.0,342.5,208.0,350.0,232.0,344.0" stroke="black" stroke-width="2" fill="none" />
<polyline points="433.5,197.5,427.5,206.0,442.0,190.5" stroke="black" stroke-width="2" fill="none" />
<polyline points="437.5,187.5,421.0,203.5,427.5,198.0,443.0,182.0" stroke="black" stroke-width="2" fill="none" />
</svg>