<?xml version="1.0" encoding="UTF-8"?>
<svg xmlns="http://www.w3.org/2000/svg" xmlns:xlink="http://www.w3.org/1999/xlink" width="1935.11811" height="1935.11811" viewBox="0 0 1935.11811 1935.11811" version="1.1">
<g id="surface1">
<path style="fill:none;stroke-width:2;stroke-linecap:butt;stroke-linejoin:miter;stroke:rgb(0%,0%,0%);stroke-opacity:1;stroke-miterlimit:4;" d="M 341.499569 24.499797 L 365.500171 40.499854 L 373.499683 56.49991 L 375.499561 72.499967 L 377.500472 89.000252 L 385.499984 121.000366 L 387.499862 137.000423 L 391.000423 153.00048 L 395.000179 168.500309 L 396.499829 184.500366 L 400.999813 200.500423 L 404.999569 216.50048 L 407.00048 232.499504 L 411.500464 248.000366 L 413.500342 263.500195 L 417.500098 279.000024 L 421.499854 295.000081 L 427.499487 311.000138 L 427.499487 326.499967 L 418.000326 342.500024 L 404.000146 358.500081 L 396.499829 370.500382 L 412.499886 361.000187 L 428.499943 343.000252 " transform="matrix(3.779528,0,0,3.779528,0,0)"/>
<path style="fill:none;stroke-width:2;stroke-linecap:butt;stroke-linejoin:miter;stroke:rgb(0%,0%,0%);stroke-opacity:1;stroke-miterlimit:4;" d="M 436.00026 341.499569 L 420.000203 361.500415 L 404.000146 379.50035 L 388.00009 383.500106 L 384.000334 375.499561 L 368.000277 381 L 352.500448 382.999878 L 336.500391 384.999756 L 320.000106 387.499862 L 304.000049 389.49974 L 287.999992 393.999723 L 271.499707 395.999601 L 255.999878 395.999601 L 239.999821 398.000513 L 207.999707 402.000269 L 191.99965 406.000024 L 175.999593 407.999902 L 159.999536 407.499674 L 144.000513 409.499552 L 128.000456 413.999536 L 112.499593 413.999536 L 96.499536 416.000448 L 80.500513 418.000326 L 64.500456 422.000081 L 48.500399 424.500187 L 32.500342 432.499699 " transform="matrix(3.779528,0,0,3.779528,0,0)"/>
<path style="fill:none;stroke-width:2;stroke-linecap:butt;stroke-linejoin:miter;stroke:rgb(0%,0%,0%);stroke-opacity:1;stroke-miterlimit:4;" d="M 37.999748 433.500155 L 53.999805 447.500334 L 69.999862 457.499723 L 85.999919 469.500024 L 101.999976 490.000065 L 118.000033 502.000366 " transform="matrix(3.779528,0,0,3.779528,0,0)"/>
<path style="fill:none;stroke-width:2;stroke-linecap:butt;stroke-linejoin:miter;stroke:rgb(0%,0%,0%);stroke-opacity:1;stroke-miterlimit:4;" d="M 121.000366 475.000464 L 137.000423 470.999674 L 153.00048 472.999552 L 154.50013 468.499569 L 168.000081 484.000431 " transform="matrix(3.779528,0,0,3.779528,0,0)"/>
<path style="fill:none;stroke-width:2;stroke-linecap:butt;stroke-linejoin:miter;stroke:rgb(0%,0%,0%);stroke-opacity:1;stroke-miterlimit:4;" d="M 159.500342 507.499772 L 184.999561 491.499715 L 225.500448 483.500203 L 239.499593 467.500146 L 223.499536 471.499902 L 207.500513 473.49978 L 191.500456 474.000008 " transform="matrix(3.779528,0,0,3.779528,0,0)"/>
<path style="fill:none;stroke-width:2;stroke-linecap:butt;stroke-linejoin:miter;stroke:rgb(0%,0%,0%);stroke-opacity:1;stroke-miterlimit:4;" d="M 230.499626 450.499634 L 246.499683 454.000195 L 248.499561 449.500212 " transform="matrix(3.779528,0,0,3.779528,0,0)"/>
<path style="fill:none;stroke-width:2;stroke-linecap:butt;stroke-linejoin:miter;stroke:rgb(0%,0%,0%);stroke-opacity:1;stroke-miterlimit:4;" d="M 239.999821 444.5 L 255.999878 452.000317 L 271.999935 447.500334 L 287.999992 443.499544 L 321.499756 449.500212 L 347.500236 455.499845 L 363.500293 450.999862 L 379.999544 448.999984 " transform="matrix(3.779528,0,0,3.779528,0,0)"/>
<path style="fill:none;stroke-width:2;stroke-linecap:butt;stroke-linejoin:miter;stroke:rgb(0%,0%,0%);stroke-opacity:1;stroke-miterlimit:4;" d="M 393.000301 441.499666 L 377.000244 431.500277 L 361.000187 427.000293 " transform="matrix(3.779528,0,0,3.779528,0,0)"/>
<path style="fill:none;stroke-width:2;stroke-linecap:butt;stroke-linejoin:miter;stroke:rgb(0%,0%,0%);stroke-opacity:1;stroke-miterlimit:4;" d="M 358.500081 418.49952 L 350.999764 422.500309 L 370.999577 438.500366 L 379.000122 440.000016 L 393.000301 447.999528 L 397.000057 457.499723 L 404.999569 463.500391 L 420.999626 456.999495 L 437.49991 450.999862 L 419.499976 450.999862 L 407.499674 457.499723 L 423.499731 451.50009 L 439.499788 443.499544 L 455.499845 429.999593 L 470.999674 426.500065 L 486.999731 424.500187 L 502.999788 429.000171 " transform="matrix(3.779528,0,0,3.779528,0,0)"/>
<path style="fill:none;stroke-width:2;stroke-linecap:butt;stroke-linejoin:miter;stroke:rgb(0%,0%,0%);stroke-opacity:1;stroke-miterlimit:4;" d="M 495.500505 461.999707 L 503.500016 445.99965 L 487.499959 449.500212 L 472.00013 445.500456 " transform="matrix(3.779528,0,0,3.779528,0,0)"/>
<path style="fill:none;stroke-width:2;stroke-linecap:butt;stroke-linejoin:miter;stroke:rgb(0%,0%,0%);stroke-opacity:1;stroke-miterlimit:4;" d="M 463.500391 431.500277 L 479.500448 429.500399 " transform="matrix(3.779528,0,0,3.779528,0,0)"/>
<path style="fill:none;stroke-width:2;stroke-linecap:butt;stroke-linejoin:miter;stroke:rgb(0%,0%,0%);stroke-opacity:1;stroke-miterlimit:4;" d="M 501.500138 440.000016 L 486.000309 444.5 L 470.000252 444.5 L 463.999585 436.00026 L 454.000195 435.500033 " transform="matrix(3.779528,0,0,3.779528,0,0)"/>
<path style="fill:none;stroke-width:2;stroke-linecap:butt;stroke-linejoin:miter;stroke:rgb(0%,0%,0%);stroke-opacity:1;stroke-miterlimit:4;" d="M 442.500122 452.499512 L 432.499699 454.500423 L 420.500431 478.499992 L 392.500073 492.500171 L 384.499528 486.499504 L 364.499715 492.500171 L 379.999544 481.99952 L 407.999902 479.999642 L 423.999959 475.499658 L 440.000016 470.000252 L 456.000073 468.000374 L 471.499902 461.999707 L 486.999731 457.499723 L 502.999788 451.50009 L 486.999731 457.499723 L 450.999862 474.000008 " transform="matrix(3.779528,0,0,3.779528,0,0)"/>
<path style="fill:none;stroke-width:2;stroke-linecap:butt;stroke-linejoin:miter;stroke:rgb(0%,0%,0%);stroke-opacity:1;stroke-miterlimit:4;" d="M 466.499691 495.500505 L 482.499748 488.000187 L 497.999577 475.999886 L 503.500016 466.000496 L 483.500203 481.99952 L 461.000285 491.999943 L 477.000342 484.000431 L 493.000399 472.00013 L 509.000456 463.999585 L 488.999609 484.000431 " transform="matrix(3.779528,0,0,3.779528,0,0)"/>
<path style="fill:none;stroke-width:2;stroke-linecap:butt;stroke-linejoin:miter;stroke:rgb(0%,0%,0%);stroke-opacity:1;stroke-miterlimit:4;" d="M 504.500472 402.000269 L 482.499748 385.499984 L 457.999951 393.999723 L 441.999894 393.999723 " transform="matrix(3.779528,0,0,3.779528,0,0)"/>
<path style="fill:none;stroke-width:2;stroke-linecap:butt;stroke-linejoin:miter;stroke:rgb(0%,0%,0%);stroke-opacity:1;stroke-miterlimit:4;" d="M 433.500155 380.499772 L 449.500212 378.499894 L 465.500269 375.000366 L 481.500326 373.000488 L 497.000155 377.000244 " transform="matrix(3.779528,0,0,3.779528,0,0)"/>
<path style="fill:none;stroke-width:2;stroke-linecap:butt;stroke-linejoin:miter;stroke:rgb(0%,0%,0%);stroke-opacity:1;stroke-miterlimit:4;" d="M 511.000334 377.500472 L 494.500049 369.499927 L 478.499992 367.500049 L 463.000163 369.499927 L 447.000106 373.499683 L 431.000049 379.50035 L 414.999992 387.499862 L 398.999935 391.499618 L 382.999878 395.500407 L 366.499593 399.500163 L 356.500203 387.499862 L 340.500146 389.49974 L 324.50009 393.999723 L 307.999805 394.499951 L 291.999748 398.999935 L 275.999691 400.999813 L 259.500439 402.999691 L 243.500382 404.999569 L 227.500326 406.500252 L 211.500269 409.000358 L 195.500212 410.500008 L 163.500098 414.499764 L 146.999813 413.999536 L 130.999756 418.000326 L 107.500415 420.000203 L 91.500358 421.499854 L 75.999495 423.499731 L 60.000472 427.000293 L 44.000415 429.000171 " transform="matrix(3.779528,0,0,3.779528,0,0)"/>
<path style="fill:none;stroke-width:2;stroke-linecap:butt;stroke-linejoin:miter;stroke:rgb(0%,0%,0%);stroke-opacity:1;stroke-miterlimit:4;" d="M 43.500187 434.000382 L 59.500244 443.999772 L 75.999495 456.000073 L 91.999552 470.000252 L 107.999609 488.500415 L 123.999666 500.499683 L 139.999723 502.499561 L 156.500008 497.999577 L 172.500065 497.999577 L 188.500122 491.499715 L 203.999951 490.000065 L 220.000008 484.000431 " transform="matrix(3.779528,0,0,3.779528,0,0)"/>
<path style="fill:none;stroke-width:2;stroke-linecap:butt;stroke-linejoin:miter;stroke:rgb(0%,0%,0%);stroke-opacity:1;stroke-miterlimit:4;" d="M 216.50048 509.49965 L 246.499683 482.999976 " transform="matrix(3.779528,0,0,3.779528,0,0)"/>
<path style="fill:none;stroke-width:2;stroke-linecap:butt;stroke-linejoin:miter;stroke:rgb(0%,0%,0%);stroke-opacity:1;stroke-miterlimit:4;" d="M 284.999658 481.99952 L 269.499829 490.000065 L 255.999878 490.000065 L 239.999821 486.499504 L 223.499536 493.000399 L 241.500505 484.999854 L 275.999691 481.000098 L 277.999569 460.500057 " transform="matrix(3.779528,0,0,3.779528,0,0)"/>
<path style="fill:none;stroke-width:2;stroke-linecap:butt;stroke-linejoin:miter;stroke:rgb(0%,0%,0%);stroke-opacity:1;stroke-miterlimit:4;" d="M 280.499674 455.499845 L 296.499731 459.499601 L 312.499788 457.999951 " transform="matrix(3.779528,0,0,3.779528,0,0)"/>
<path style="fill:none;stroke-width:2;stroke-linecap:butt;stroke-linejoin:miter;stroke:rgb(0%,0%,0%);stroke-opacity:1;stroke-miterlimit:4;" d="M 299.500065 450.499634 L 283.500008 454.500423 " transform="matrix(3.779528,0,0,3.779528,0,0)"/>
<path style="fill:none;stroke-width:2;stroke-linecap:butt;stroke-linejoin:miter;stroke:rgb(0%,0%,0%);stroke-opacity:1;stroke-miterlimit:4;" d="M 290.500098 418.999748 L 273.999813 420.999626 L 257.999756 420.999626 " transform="matrix(3.779528,0,0,3.779528,0,0)"/>
<path style="fill:none;stroke-width:2;stroke-linecap:butt;stroke-linejoin:miter;stroke:rgb(0%,0%,0%);stroke-opacity:1;stroke-miterlimit:4;" d="M 254 420.500431 L 270.000057 414.499764 L 286.000114 414.499764 L 302.000171 411.999658 L 305.499699 415.50022 L 321.499756 413.500342 L 343.50048 404.999569 L 359.499504 409.000358 L 375.999788 409.000358 " transform="matrix(3.779528,0,0,3.779528,0,0)"/>
<path style="fill:none;stroke-width:2;stroke-linecap:butt;stroke-linejoin:miter;stroke:rgb(0%,0%,0%);stroke-opacity:1;stroke-miterlimit:4;" d="M 379.999544 427.999715 L 409.99978 443.999772 " transform="matrix(3.779528,0,0,3.779528,0,0)"/>
<path style="fill:none;stroke-width:2;stroke-linecap:butt;stroke-linejoin:miter;stroke:rgb(0%,0%,0%);stroke-opacity:1;stroke-miterlimit:4;" d="M 419.499976 398.999935 L 435.500033 404.500374 L 439.499788 409.000358 L 455.499845 404.999569 L 461.999707 413.000114 L 461.999707 409.000358 " transform="matrix(3.779528,0,0,3.779528,0,0)"/>
<path style="fill:none;stroke-width:2;stroke-linecap:butt;stroke-linejoin:miter;stroke:rgb(0%,0%,0%);stroke-opacity:1;stroke-miterlimit:4;" d="M 481.99952 408.50013 L 466.000496 402.500496 L 450.000439 409.99978 L 434.499577 409.99978 L 416.499642 407.999902 L 400.499585 398.000513 L 384.000334 400.000391 L 366.000399 393.999723 L 350.499536 396.499829 L 334.999707 404.500374 L 318.99965 404.000146 L 302.999593 406.000024 L 286.500342 407.999902 L 270.500285 407.499674 L 254 409.99978 L 237.999943 411.999658 L 221.499658 416.000448 L 205.999829 418.000326 L 189.999772 420.500431 L 173.999715 420.500431 L 157.500464 425.000415 L 141.500407 428.499943 L 125.50035 430.499821 L 109.500293 429.999593 L 93.500236 431.000049 L 77.500179 441.000472 " transform="matrix(3.779528,0,0,3.779528,0,0)"/>
<path style="fill:none;stroke-width:2;stroke-linecap:butt;stroke-linejoin:miter;stroke:rgb(0%,0%,0%);stroke-opacity:1;stroke-miterlimit:4;" d="M 82.999585 440.500244 L 98.999642 446.499878 L 114.500505 452.99974 L 130.499528 447.000106 L 146.000391 451.50009 L 161.50022 449.500212 L 177.500277 445.500456 L 193.999528 447.500334 L 209.999585 449.500212 L 225.999642 449.500212 L 227.99952 439.499788 L 243.999577 434.000382 L 259.999634 432.499699 L 275.999691 434.499577 L 291.49952 438.000138 L 307.499577 441.999894 L 323.999862 450.000439 " transform="matrix(3.779528,0,0,3.779528,0,0)"/>
<path style="fill:none;stroke-width:2;stroke-linecap:butt;stroke-linejoin:miter;stroke:rgb(0%,0%,0%);stroke-opacity:1;stroke-miterlimit:4;" d="M 361.000187 446.499878 L 330.499723 470.50048 L 306.500155 479.999642 L 272.500163 488.000187 L 241.999699 506.50035 L 230.000431 510.500106 L 246.000488 504.000244 L 261.999512 499.50026 L 277.500374 497.000155 L 293.500431 490.500293 L 297.500187 477.999764 L 313.500244 476.500114 L 329.500301 468.999797 L 345.500358 463.500391 L 350.999764 475.999886 L 366.999821 470.50048 L 382.999878 466.999919 " transform="matrix(3.779528,0,0,3.779528,0,0)"/>
<path style="fill:none;stroke-width:2;stroke-linecap:butt;stroke-linejoin:miter;stroke:rgb(0%,0%,0%);stroke-opacity:1;stroke-miterlimit:4;" d="M 366.000399 481.500326 L 350.499536 487.499959 L 345.00013 495.999699 L 328.499845 490.500293 L 311.999561 499.000033 L 295.500309 506.999544 L 303.499821 503.500016 L 315.500122 483.500203 L 345.999552 469.500024 L 330.499723 479.500448 L 314.499666 484.999854 L 311.000138 474.500236 L 309.00026 470.50048 L 293.500431 474.500236 L 277.500374 480.49987 L 261.500317 482.499748 L 245.50026 494.500049 L 233.499959 495.000277 L 217.499902 499.000033 L 218.999552 484.999854 L 209.000163 481.000098 L 193.000106 481.000098 L 182.999683 470.999674 L 198.99974 468.999797 L 196.499634 465.500269 L 180.499577 468.999797 L 164.49952 466.999919 L 148.500496 456.999495 " transform="matrix(3.779528,0,0,3.779528,0,0)"/>
<path style="fill:none;stroke-width:2;stroke-linecap:butt;stroke-linejoin:miter;stroke:rgb(0%,0%,0%);stroke-opacity:1;stroke-miterlimit:4;" d="M 157.999658 429.000171 L 173.999715 432.999927 L 190.5 432.999927 L 206.500057 434.499577 " transform="matrix(3.779528,0,0,3.779528,0,0)"/>
<path style="fill:none;stroke-width:2;stroke-linecap:butt;stroke-linejoin:miter;stroke:rgb(0%,0%,0%);stroke-opacity:1;stroke-miterlimit:4;" d="M 200.000195 429.000171 L 184.000138 425.499609 L 168.000081 425.499609 " transform="matrix(3.779528,0,0,3.779528,0,0)"/>
<path style="fill:none;stroke-width:2;stroke-linecap:butt;stroke-linejoin:miter;stroke:rgb(0%,0%,0%);stroke-opacity:1;stroke-miterlimit:4;" d="M 145.500163 426.500065 L 139.499495 446.499878 L 146.999813 458.500179 L 166.999626 464.499813 L 190.5 479.999642 L 190.5 470.000252 L 206.500057 463.500391 L 223.000342 463.500391 L 239.000399 461.500513 L 249.500016 459.000407 L 265.500073 459.000407 L 275.500496 450.999862 L 291.49952 447.000106 " transform="matrix(3.779528,0,0,3.779528,0,0)"/>
<path style="fill:none;stroke-width:2;stroke-linecap:butt;stroke-linejoin:miter;stroke:rgb(0%,0%,0%);stroke-opacity:1;stroke-miterlimit:4;" d="M 352.00022 422.999504 L 368.500505 420.500431 L 384.999756 432.999927 L 400.999813 441.000472 L 417.500098 443.00035 L 434.000382 437.49991 L 466.499691 445.000228 L 456.500301 468.999797 L 459.000407 478.499992 L 461.000285 475.999886 L 429.000171 499.50026 L 439.499788 493.499593 L 443.00035 497.500382 " transform="matrix(3.779528,0,0,3.779528,0,0)"/>
<path style="fill:none;stroke-width:2;stroke-linecap:butt;stroke-linejoin:miter;stroke:rgb(0%,0%,0%);stroke-opacity:1;stroke-miterlimit:4;" d="M 413.999536 504.000244 L 398.000513 509.999878 " transform="matrix(3.779528,0,0,3.779528,0,0)"/>
<path style="fill:none;stroke-width:2;stroke-linecap:butt;stroke-linejoin:miter;stroke:rgb(0%,0%,0%);stroke-opacity:1;stroke-miterlimit:4;" d="M 398.000513 505.499894 L 413.500342 499.50026 " transform="matrix(3.779528,0,0,3.779528,0,0)"/>
<path style="fill:none;stroke-width:2;stroke-linecap:butt;stroke-linejoin:miter;stroke:rgb(0%,0%,0%);stroke-opacity:1;stroke-miterlimit:4;" d="M 357.499626 497.999577 L 373.499683 491.999943 L 387.499862 488.000187 L 403.499919 475.999886 L 419.499976 471.499902 L 440.000016 477.000342 L 456.000073 473.49978 L 472.500358 467.500146 " transform="matrix(3.779528,0,0,3.779528,0,0)"/>
<path style="fill:none;stroke-width:2;stroke-linecap:butt;stroke-linejoin:miter;stroke:rgb(0%,0%,0%);stroke-opacity:1;stroke-miterlimit:4;" d="M 508.500228 404.000146 L 492.500171 392.500073 L 476.500114 382.000456 L 459.999829 384.000334 L 443.999772 384.000334 L 427.999715 386.000212 " transform="matrix(3.779528,0,0,3.779528,0,0)"/>
<path style="fill:none;stroke-width:2;stroke-linecap:butt;stroke-linejoin:miter;stroke:rgb(0%,0%,0%);stroke-opacity:1;stroke-miterlimit:4;" d="M 416.99987 393.999723 L 432.999927 393.999723 L 449.500212 389.49974 L 465.500269 386.000212 L 481.500326 391.999845 L 497.500382 404.000146 " transform="matrix(3.779528,0,0,3.779528,0,0)"/>
<path style="fill:none;stroke-width:2;stroke-linecap:butt;stroke-linejoin:miter;stroke:rgb(0%,0%,0%);stroke-opacity:1;stroke-miterlimit:4;" d="M 495.500505 404.500374 L 473.49978 388.500317 " transform="matrix(3.779528,0,0,3.779528,0,0)"/>
<path style="fill:none;stroke-width:2;stroke-linecap:butt;stroke-linejoin:miter;stroke:rgb(0%,0%,0%);stroke-opacity:1;stroke-miterlimit:4;" d="M 443.00035 427.999715 L 422.999504 414.499764 L 395.000179 398.499707 " transform="matrix(3.779528,0,0,3.779528,0,0)"/>
<path style="fill:none;stroke-width:2;stroke-linecap:butt;stroke-linejoin:miter;stroke:rgb(0%,0%,0%);stroke-opacity:1;stroke-miterlimit:4;" d="M 398.499707 404.500374 L 390.500195 413.000114 L 374.500138 416.99987 L 357.999854 416.99987 L 341.999797 416.499642 L 325.99974 418.49952 L 309.999683 420.500431 L 293.500431 423.999959 L 261.500317 427.999715 L 245.50026 429.500399 L 230.000431 433.500155 L 223.499536 425.499609 L 207.500513 423.499731 L 191.500456 439.499788 L 175.500399 441.499666 L 159.500342 443.00035 L 153.499674 439.499788 L 137.499618 438.000138 L 121.999788 443.999772 L 105.999731 446.499878 L 89.999674 438.000138 " transform="matrix(3.779528,0,0,3.779528,0,0)"/>
<path style="fill:none;stroke-width:2;stroke-linecap:butt;stroke-linejoin:miter;stroke:rgb(0%,0%,0%);stroke-opacity:1;stroke-miterlimit:4;" d="M 98.500448 431.500277 L 89.999674 441.499666 L 112.000399 441.499666 L 116.000155 434.999805 " transform="matrix(3.779528,0,0,3.779528,0,0)"/>
<path style="fill:none;stroke-width:2;stroke-linecap:butt;stroke-linejoin:miter;stroke:rgb(0%,0%,0%);stroke-opacity:1;stroke-miterlimit:4;" d="M 103.499626 471.499902 L 123.500472 487.499959 L 130.000334 481.500326 L 146.000391 484.000431 " transform="matrix(3.779528,0,0,3.779528,0,0)"/>
<path style="fill:none;stroke-width:2;stroke-linecap:butt;stroke-linejoin:miter;stroke:rgb(0%,0%,0%);stroke-opacity:1;stroke-miterlimit:4;" d="M 169.999959 484.000431 L 154.50013 488.000187 L 139.000301 490.500293 L 123.000244 486.499504 L 107.500415 476.500114 " transform="matrix(3.779528,0,0,3.779528,0,0)"/>
<path style="fill:none;stroke-width:2;stroke-linecap:butt;stroke-linejoin:miter;stroke:rgb(0%,0%,0%);stroke-opacity:1;stroke-miterlimit:4;" d="M 104.500081 472.00013 L 120.500138 468.000374 L 136.500195 463.500391 L 152.000024 465.000041 L 168.000081 472.999552 L 177.500277 461.000285 L 193.500334 456.500301 " transform="matrix(3.779528,0,0,3.779528,0,0)"/>
<path style="fill:none;stroke-width:2;stroke-linecap:butt;stroke-linejoin:miter;stroke:rgb(0%,0%,0%);stroke-opacity:1;stroke-miterlimit:4;" d="M 101.999976 504.500472 L 85.999919 490.500293 " transform="matrix(3.779528,0,0,3.779528,0,0)"/>
<path style="fill:none;stroke-width:2;stroke-linecap:butt;stroke-linejoin:miter;stroke:rgb(0%,0%,0%);stroke-opacity:1;stroke-miterlimit:4;" d="M 81.499935 490.000065 L 97.499992 495.999699 " transform="matrix(3.779528,0,0,3.779528,0,0)"/>
<path style="fill:none;stroke-width:2;stroke-linecap:butt;stroke-linejoin:miter;stroke:rgb(0%,0%,0%);stroke-opacity:1;stroke-miterlimit:4;" d="M 96.999764 504.000244 L 82.999585 487.499959 L 73.000195 471.499902 " transform="matrix(3.779528,0,0,3.779528,0,0)"/>
<path style="fill:none;stroke-width:2;stroke-linecap:butt;stroke-linejoin:miter;stroke:rgb(0%,0%,0%);stroke-opacity:1;stroke-miterlimit:4;" d="M 88.500024 486.499504 L 107.000187 502.499561 " transform="matrix(3.779528,0,0,3.779528,0,0)"/>
<path style="fill:none;stroke-width:2;stroke-linecap:butt;stroke-linejoin:miter;stroke:rgb(0%,0%,0%);stroke-opacity:1;stroke-miterlimit:4;" d="M 51.000505 499.50026 L 35.000448 484.000431 L 19.499585 466.000496 " transform="matrix(3.779528,0,0,3.779528,0,0)"/>
<path style="fill:none;stroke-width:2;stroke-linecap:butt;stroke-linejoin:miter;stroke:rgb(0%,0%,0%);stroke-opacity:1;stroke-miterlimit:4;" d="M 21.500496 462.499935 L 35.499642 478.499992 L 51.499699 494.500049 L 69.499634 510.500106 " transform="matrix(3.779528,0,0,3.779528,0,0)"/>
<path style="fill:none;stroke-width:2;stroke-linecap:butt;stroke-linejoin:miter;stroke:rgb(0%,0%,0%);stroke-opacity:1;stroke-miterlimit:4;" d="M 82.999585 499.50026 L 66.999528 487.499959 L 51.000505 471.499902 L 35.499642 456.000073 L 19.999813 441.999894 " transform="matrix(3.779528,0,0,3.779528,0,0)"/>
<path style="fill:none;stroke-width:2;stroke-linecap:butt;stroke-linejoin:miter;stroke:rgb(0%,0%,0%);stroke-opacity:1;stroke-miterlimit:4;" d="M 17.999935 438.500366 L 37.999748 425.999837 L 45.500065 442.500122 L 67.499756 458.500179 L 73.999618 474.500236 L 90.499902 476.500114 L 104.500081 492.500171 L 126.499772 508 L 148.500496 506.000122 L 166.500431 505.499894 L 182.500488 501.500138 L 198.499512 499.50026 L 214.499569 491.999943 L 230.499626 477.999764 L 246.499683 472.00013 L 266.499495 463.999585 L 282.499552 470.000252 L 298.000415 466.000496 L 314.000472 461.999707 L 329.999495 459.499601 L 345.999552 451.50009 L 361.999609 445.500456 L 373.99991 438.000138 " transform="matrix(3.779528,0,0,3.779528,0,0)"/>
<path style="fill:none;stroke-width:2;stroke-linecap:butt;stroke-linejoin:miter;stroke:rgb(0%,0%,0%);stroke-opacity:1;stroke-miterlimit:4;" d="M 349.500114 481.000098 L 331.500179 497.000155 L 337.499813 499.50026 " transform="matrix(3.779528,0,0,3.779528,0,0)"/>
<path style="fill:none;stroke-width:2;stroke-linecap:butt;stroke-linejoin:miter;stroke:rgb(0%,0%,0%);stroke-opacity:1;stroke-miterlimit:4;" d="M 364.499715 367.500049 L 348.499658 367.500049 L 316.499544 371.499805 L 300.499487 373.000488 L 282.499552 375.000366 L 266.499495 381 L 248.499561 379.50035 L 232.499504 381.500228 L 216.000252 382.999878 L 200.000195 384.999756 L 182.00026 387.499862 L 166.000203 389.49974 L 148.000269 391.499618 L 132.000212 393.000301 L 116.000155 395.500407 L 100.000098 395.500407 L 84.500269 398.000513 L 66.500334 399.500163 L 51.000505 401.500041 L 35.499642 406.000024 L 19.999813 400.000391 L 3.999756 386.000212 " transform="matrix(3.779528,0,0,3.779528,0,0)"/>
<path style="fill:none;stroke-width:2;stroke-linecap:butt;stroke-linejoin:miter;stroke:rgb(0%,0%,0%);stroke-opacity:1;stroke-miterlimit:4;" d="M 3.999756 379.999544 L 3.499528 395.999601 L 10.000423 412.499886 L 3.999756 428.499943 " transform="matrix(3.779528,0,0,3.779528,0,0)"/>
<path style="fill:none;stroke-width:2;stroke-linecap:butt;stroke-linejoin:miter;stroke:rgb(0%,0%,0%);stroke-opacity:1;stroke-miterlimit:4;" d="M 18.500163 447.000106 L 33.999992 461.500513 L 50.000049 477.499536 L 66.000106 491.999943 L 82.500391 506.000122 " transform="matrix(3.779528,0,0,3.779528,0,0)"/>
<path style="fill:none;stroke-width:2;stroke-linecap:butt;stroke-linejoin:miter;stroke:rgb(0%,0%,0%);stroke-opacity:1;stroke-miterlimit:4;" d="M 65.499878 503.500016 L 49.499821 488.999609 L 33.499764 472.500358 L 17.499707 456.000073 " transform="matrix(3.779528,0,0,3.779528,0,0)"/>
<path style="fill:none;stroke-width:2;stroke-linecap:butt;stroke-linejoin:miter;stroke:rgb(0%,0%,0%);stroke-opacity:1;stroke-miterlimit:4;" d="M 7.500317 457.499723 L 9.500195 441.499666 L 25.500252 423.499731 L 27.50013 427.999715 L 19.000391 444.5 L 37.000326 460.500057 L 53.000382 477.000342 L 71.499512 493.000399 L 91.500358 509.000456 " transform="matrix(3.779528,0,0,3.779528,0,0)"/>
<path style="fill:none;stroke-width:2;stroke-linecap:butt;stroke-linejoin:miter;stroke:rgb(0%,0%,0%);stroke-opacity:1;stroke-miterlimit:4;" d="M 35.499642 495.000277 L 25.500252 486.999731 L 9.500195 466.999919 " transform="matrix(3.779528,0,0,3.779528,0,0)"/>
<path style="fill:none;stroke-width:2;stroke-linecap:butt;stroke-linejoin:miter;stroke:rgb(0%,0%,0%);stroke-opacity:1;stroke-miterlimit:4;" d="M 8.999967 470.000252 L 21.000269 485.500081 L 39.500431 501.500138 " transform="matrix(3.779528,0,0,3.779528,0,0)"/>
<path style="fill:none;stroke-width:2;stroke-linecap:butt;stroke-linejoin:miter;stroke:rgb(0%,0%,0%);stroke-opacity:1;stroke-miterlimit:4;" d="M 19.000391 503.500016 L 3.000334 487.499959 " transform="matrix(3.779528,0,0,3.779528,0,0)"/>
<path style="fill:none;stroke-width:2;stroke-linecap:butt;stroke-linejoin:miter;stroke:rgb(0%,0%,0%);stroke-opacity:1;stroke-miterlimit:4;" d="M 10.000423 487.499959 L 24.499797 503.500016 " transform="matrix(3.779528,0,0,3.779528,0,0)"/>
<path style="fill:none;stroke-width:2;stroke-linecap:butt;stroke-linejoin:miter;stroke:rgb(0%,0%,0%);stroke-opacity:1;stroke-miterlimit:4;" d="M 35.000448 509.000456 L 19.000391 495.500505 L 3.000334 479.999642 " transform="matrix(3.779528,0,0,3.779528,0,0)"/>
<path style="fill:none;stroke-width:2;stroke-linecap:butt;stroke-linejoin:miter;stroke:rgb(0%,0%,0%);stroke-opacity:1;stroke-miterlimit:4;" d="M 8.49974 479.500448 L 24.499797 495.500505 " transform="matrix(3.779528,0,0,3.779528,0,0)"/>
<path style="fill:none;stroke-width:2;stroke-linecap:butt;stroke-linejoin:miter;stroke:rgb(0%,0%,0%);stroke-opacity:1;stroke-miterlimit:4;" d="M 35.000448 501.500138 L 19.000391 488.000187 L 3.000334 470.000252 " transform="matrix(3.779528,0,0,3.779528,0,0)"/>
<path style="fill:none;stroke-width:2;stroke-linecap:butt;stroke-linejoin:miter;stroke:rgb(0%,0%,0%);stroke-opacity:1;stroke-miterlimit:4;" d="M 28.000358 459.000407 L 44.000415 475.000464 L 61.500122 490.999487 L 79.500057 506.999544 " transform="matrix(3.779528,0,0,3.779528,0,0)"/>
<path style="fill:none;stroke-width:2;stroke-linecap:butt;stroke-linejoin:miter;stroke:rgb(0%,0%,0%);stroke-opacity:1;stroke-miterlimit:4;" d="M 53.499577 502.499561 L 35.499642 486.000309 L 26.00048 475.999886 L 18.500163 459.499601 L 5.000212 441.999894 L 11.500073 425.999837 L 15.499829 409.99978 L 3.499528 404.000146 " transform="matrix(3.779528,0,0,3.779528,0,0)"/>
<path style="fill:none;stroke-width:2;stroke-linecap:butt;stroke-linejoin:miter;stroke:rgb(0%,0%,0%);stroke-opacity:1;stroke-miterlimit:4;" d="M 3.000334 394.499951 L 12.999723 395.999601 L 26.999902 423.999959 L 12.999723 439.499788 L 4.499984 455.499845 L 7.999512 459.499601 L 5.999634 475.499658 L 5.500439 491.499715 L 21.500496 507.499772 " transform="matrix(3.779528,0,0,3.779528,0,0)"/>
<path style="fill:none;stroke-width:2;stroke-linecap:butt;stroke-linejoin:miter;stroke:rgb(0%,0%,0%);stroke-opacity:1;stroke-miterlimit:4;" d="M 44.499609 434.499577 L 66.500334 450.499634 L 86.500146 466.499691 L 100.500326 482.499748 L 120.500138 498.499805 " transform="matrix(3.779528,0,0,3.779528,0,0)"/>
<path style="fill:none;stroke-width:2;stroke-linecap:butt;stroke-linejoin:miter;stroke:rgb(0%,0%,0%);stroke-opacity:1;stroke-miterlimit:4;" d="M 3.000334 379.50035 L 19.000391 393.499495 L 34.50022 400.000391 L 50.500277 398.000513 L 66.500334 393.999723 L 82.500391 393.999723 L 98.00022 391.999845 L 114.000277 390.500195 L 130.000334 388.500317 L 146.000391 386.999634 L 178.000505 382.999878 L 194.499756 381 L 210.499813 380.499772 L 227.000098 378.499894 L 243.000155 373.99991 L 259.000212 373.99991 L 275.000269 371.499805 L 290.500098 369.499927 L 338.500269 363.500293 L 354.99952 361.500415 L 370.999577 361.500415 L 386.500439 357.000431 " transform="matrix(3.779528,0,0,3.779528,0,0)"/>
<path style="fill:none;stroke-width:2;stroke-linecap:butt;stroke-linejoin:miter;stroke:rgb(0%,0%,0%);stroke-opacity:1;stroke-miterlimit:4;" d="M 376.500016 302.000171 L 360.499959 309.500488 L 344.499902 309.500488 L 328.499845 311.500366 L 312.499788 311.500366 L 295.000081 309.999683 L 279.000024 310.49991 L 262.999967 312.499788 L 247.500138 312.499788 L 231.500081 318.500456 L 215.500024 320.500334 L 198.99974 322.500212 L 182.999683 324.50009 L 166.999626 324.50009 L 150.500374 326.499967 L 134.500317 328.499845 L 118.50026 328.499845 L 103.000431 330.499723 L 87.000374 332.499601 L 71.000317 332.499601 L 55.00026 334.000285 L 39.000203 333.500057 L 19.000391 329.500301 L 3.000334 323.999862 " transform="matrix(3.779528,0,0,3.779528,0,0)"/>
<path style="fill:none;stroke-width:2;stroke-linecap:butt;stroke-linejoin:miter;stroke:rgb(0%,0%,0%);stroke-opacity:1;stroke-miterlimit:4;" d="M 3.000334 333.500057 L 18.500163 336.000163 L 35.000448 329.999495 L 51.000505 327.999618 L 66.999528 327.999618 L 82.999585 325.99974 L 98.999642 326.499967 L 114.500505 324.50009 L 130.499528 322.500212 L 146.499585 323.000439 L 162.499642 320.999528 L 194.499756 316.999772 L 210.499813 315.500122 L 227.000098 314.999894 L 246.99991 318.99965 L 262.999967 316.999772 L 279.000024 316.999772 L 295.000081 314.999894 L 311.500366 309.00026 L 327.500423 307.000382 L 343.50048 306.500155 L 359.499504 304.500277 " transform="matrix(3.779528,0,0,3.779528,0,0)"/>
<path style="fill:none;stroke-width:2;stroke-linecap:butt;stroke-linejoin:miter;stroke:rgb(0%,0%,0%);stroke-opacity:1;stroke-miterlimit:4;" d="M 352.00022 281.50013 L 335.499935 287.499764 L 320.000106 289.499642 L 304.500277 289.99987 L 286.500342 291.999748 L 270.500285 292.499976 L 254.500228 294.499854 L 237.999943 296.499731 L 221.999886 296.499731 L 205.499601 298.499609 L 185.499788 300.000293 L 169.499731 300.000293 L 153.499674 302.000171 L 137.000423 304.000049 L 121.000366 304.000049 L 105.499504 305.999927 L 87.999797 307.999805 L 71.99974 308.500033 L 55.500488 311.000138 L 37.49952 313.000016 L 26.00048 302.999593 L 23.999569 286.500342 L 19.999813 271.000513 L 17.999935 255.000456 L 16.000057 239.499593 L 14.000179 223.499536 L 10.000423 207.000285 L 7.999512 191.000228 L 17.499707 178.499699 L 29.500008 170.500187 L 27.50013 153.999902 L 11.500073 162.000448 " transform="matrix(3.779528,0,0,3.779528,0,0)"/>
<path style="fill:none;stroke-width:2;stroke-linecap:butt;stroke-linejoin:miter;stroke:rgb(0%,0%,0%);stroke-opacity:1;stroke-miterlimit:4;" d="M 5.999634 163.500098 L 21.999691 149.499919 " transform="matrix(3.779528,0,0,3.779528,0,0)"/>
<path style="fill:none;stroke-width:2;stroke-linecap:butt;stroke-linejoin:miter;stroke:rgb(0%,0%,0%);stroke-opacity:1;stroke-miterlimit:4;" d="M 16.000057 148.999691 L 5.999634 165.499976 L 7.999512 181.500033 L 3.999756 197.50009 L 5.999634 213.500146 L 3.999756 229.500203 L 10.000423 235.499837 L 12.499495 251.499894 L 14.500407 267.499951 L 19.000391 283.500008 L 21.000269 300.000293 L 25.000024 309.500488 L 41.000081 305.499699 L 57.000138 304.000049 L 73.000195 304.500277 L 89.000252 302.500399 L 105.000309 300.499487 L 120.500138 300.499487 L 152.500252 296.499731 L 168.999504 296.499731 L 184.999561 294.499854 L 200.999618 294.499854 L 217.499902 292.499976 L 233.499959 290.500098 L 249.500016 290.500098 L 264.999845 288.50022 L 280.999902 286.500342 L 296.999959 286.000114 L 312.499788 283.500008 L 328.499845 283.500008 L 344.499902 281.50013 " transform="matrix(3.779528,0,0,3.779528,0,0)"/>
<path style="fill:none;stroke-width:2;stroke-linecap:butt;stroke-linejoin:miter;stroke:rgb(0%,0%,0%);stroke-opacity:1;stroke-miterlimit:4;" d="M 264.999845 231.500081 L 248.499561 241.000277 L 244.499805 239.000399 L 236.500293 223.000342 L 250.000244 207.000285 L 252.000122 191.500456 L 267.499951 186.000016 L 250.999666 183.49991 " transform="matrix(3.779528,0,0,3.779528,0,0)"/>
<path style="fill:none;stroke-width:2;stroke-linecap:butt;stroke-linejoin:miter;stroke:rgb(0%,0%,0%);stroke-opacity:1;stroke-miterlimit:4;" d="M 264.000423 179.500155 L 268.000179 195.500212 L 268.000179 212.000496 L 266.000301 227.99952 L 250.000244 229.500203 " transform="matrix(3.779528,0,0,3.779528,0,0)"/>
<path style="fill:none;stroke-width:2;stroke-linecap:butt;stroke-linejoin:miter;stroke:rgb(0%,0%,0%);stroke-opacity:1;stroke-miterlimit:4;" d="M 250.999666 215.500024 L 259.000212 231.500081 L 250.999666 229.500203 L 250.999666 207.500513 L 234.999609 225.999642 " transform="matrix(3.779528,0,0,3.779528,0,0)"/>
<path style="fill:none;stroke-width:2;stroke-linecap:butt;stroke-linejoin:miter;stroke:rgb(0%,0%,0%);stroke-opacity:1;stroke-miterlimit:4;" d="M 135.999967 190.5 L 137.499618 205.999829 L 137.499618 221.499658 L 135.49974 237.499715 L 123.999666 237.999943 " transform="matrix(3.779528,0,0,3.779528,0,0)"/>
<path style="fill:none;stroke-width:2;stroke-linecap:butt;stroke-linejoin:miter;stroke:rgb(0%,0%,0%);stroke-opacity:1;stroke-miterlimit:4;" d="M 112.499593 247.500138 L 116.500382 251.499894 L 103.000431 236.000065 L 110.999943 220.500236 L 114.999699 218.500358 L 109.500293 238.500171 L 127.500228 224.499992 L 121.499561 218.500358 L 123.000244 202.500301 L 139.000301 192.499878 L 123.000244 190.5 " transform="matrix(3.779528,0,0,3.779528,0,0)"/>
<path style="fill:none;stroke-width:2;stroke-linecap:butt;stroke-linejoin:miter;stroke:rgb(0%,0%,0%);stroke-opacity:1;stroke-miterlimit:4;" d="M 131.499984 197.50009 L 131.499984 213.500146 L 127.500228 235.499837 L 125.50035 250.999666 L 131.499984 246.99991 " transform="matrix(3.779528,0,0,3.779528,0,0)"/>
<path style="fill:none;stroke-width:2;stroke-linecap:butt;stroke-linejoin:miter;stroke:rgb(0%,0%,0%);stroke-opacity:1;stroke-miterlimit:4;" d="M 205.000407 336.500391 L 198.99974 352.500448 L 207.000285 359.999731 L 223.000342 354.000098 " transform="matrix(3.779528,0,0,3.779528,0,0)"/>
<path style="fill:none;stroke-width:2;stroke-linecap:butt;stroke-linejoin:miter;stroke:rgb(0%,0%,0%);stroke-opacity:1;stroke-miterlimit:4;" d="M 213.500146 342.500024 L 213.500146 356.500203 L 219.49978 356.500203 L 216.999674 340.500146 L 212.499691 338.500269 L 196.499634 345.00013 " transform="matrix(3.779528,0,0,3.779528,0,0)"/>
<path style="fill:none;stroke-width:2;stroke-linecap:butt;stroke-linejoin:miter;stroke:rgb(0%,0%,0%);stroke-opacity:1;stroke-miterlimit:4;" d="M 30.000236 177.500277 L 14.000179 180.000382 L 35.99987 168.000081 L 17.999935 176.499821 L 1.999878 176.499821 " transform="matrix(3.779528,0,0,3.779528,0,0)"/>
<path style="fill:none;stroke-width:2;stroke-linecap:butt;stroke-linejoin:miter;stroke:rgb(0%,0%,0%);stroke-opacity:1;stroke-miterlimit:4;" d="M 3.000334 130.499528 L 19.000391 128.49965 L 35.000448 122.500016 L 51.000505 121.999788 L 78.999829 123.999666 L 94.999886 117.499805 L 110.999943 118.000033 L 134.999512 114.000277 L 150.999569 114.500505 L 167.499854 114.500505 L 183.49991 112.499593 L 198.99974 110.499715 L 214.999797 110.499715 L 230.499626 109.999487 L 248.000366 114.000277 L 264.000423 111.500171 L 279.500252 111.500171 L 295.500309 109.500293 L 311.500366 109.500293 " transform="matrix(3.779528,0,0,3.779528,0,0)"/>
<path style="fill:none;stroke-width:2;stroke-linecap:butt;stroke-linejoin:miter;stroke:rgb(0%,0%,0%);stroke-opacity:1;stroke-miterlimit:4;" d="M 318.99965 105.999731 L 319.499878 121.999788 L 323.000439 137.499618 L 325.499512 153.499674 L 327.500423 169.499731 L 332.000407 185.499788 L 334.000285 201.499845 L 336.500391 218.00013 L 340.500146 234.000187 L 343.000252 250.500472 L 347.000008 266.499495 " transform="matrix(3.779528,0,0,3.779528,0,0)"/>
<path style="fill:none;stroke-width:2;stroke-linecap:butt;stroke-linejoin:miter;stroke:rgb(0%,0%,0%);stroke-opacity:1;stroke-miterlimit:4;" d="M 368.999699 302.000171 L 371.499805 286.000114 L 370.000155 270.000057 L 366.499593 254.500228 L 364.499715 238.500171 L 360.499959 223.000342 L 358.500081 207.000285 L 354.000098 191.000228 L 352.00022 174.499943 L 348.000464 158.499886 L 345.999552 142.499829 L 343.50048 125.999544 L 339.499691 109.999487 L 341.499569 94.000464 L 337.499813 87.499569 L 321.999984 79.500057 L 305.499699 81.499935 L 289.499642 81.499935 L 273.499585 83.499813 L 257.499528 83.499813 L 241.500505 85.000496 L 225.500448 85.499691 L 209.500391 85.999919 L 193.999528 85.999919 L 178.000505 88.500024 L 162.000448 87.999797 L 146.000391 89.999674 L 113.500049 89.999674 L 98.00022 91.999552 L 81.499935 91.999552 L 65.499878 94.499658 L 49.499821 94.499658 L 33.499764 96.999764 L 17.999935 96.999764 L 1.999878 96.499536 " transform="matrix(3.779528,0,0,3.779528,0,0)"/>
<path style="fill:none;stroke-width:2;stroke-linecap:butt;stroke-linejoin:miter;stroke:rgb(0%,0%,0%);stroke-opacity:1;stroke-miterlimit:4;" d="M 3.000334 100.500326 L 34.50022 100.500326 L 50.500277 98.500448 L 86.500146 98.500448 L 102.500203 96.000342 L 118.000033 96.000342 L 135.999967 94.000464 L 168.500309 94.000464 L 184.500366 91.999552 L 200.500423 91.500358 L 216.000252 91.00013 L 232.000309 91.00013 L 249.500016 89.000252 L 265.500073 88.500024 L 282.99978 87.000374 L 298.999837 87.000374 L 317.5 82.999585 L 329.500301 87.499569 " transform="matrix(3.779528,0,0,3.779528,0,0)"/>
<path style="fill:none;stroke-width:2;stroke-linecap:butt;stroke-linejoin:miter;stroke:rgb(0%,0%,0%);stroke-opacity:1;stroke-miterlimit:4;" d="M 327.500423 80.999707 L 323.499634 96.999764 L 343.50048 96.999764 L 345.500358 113.500049 L 350.000342 130.000334 L 352.00022 146.499585 L 355.999976 162.499642 L 357.999854 178.499699 L 361.999609 194.499756 L 366.999821 226.49987 L 370.999577 242.499927 L 372.50026 258.499984 L 376.500016 274.500041 L 378.499894 290.500098 L 372.50026 306.500155 " transform="matrix(3.779528,0,0,3.779528,0,0)"/>
<path style="fill:none;stroke-width:2;stroke-linecap:butt;stroke-linejoin:miter;stroke:rgb(0%,0%,0%);stroke-opacity:1;stroke-miterlimit:4;" d="M 418.49952 344.499902 L 402.500496 362.499837 L 412.499886 362.499837 L 426.500065 346.49978 L 436.500488 330.999951 " transform="matrix(3.779528,0,0,3.779528,0,0)"/>
<path style="fill:none;stroke-width:2;stroke-linecap:butt;stroke-linejoin:miter;stroke:rgb(0%,0%,0%);stroke-opacity:1;stroke-miterlimit:4;" d="M 441.000472 332.999829 L 432.499699 348.999886 L 418.999748 364.999943 L 422.500309 368.999699 L 422.500309 392.500073 L 440.000016 402.500496 L 444.5 418.49952 L 443.00035 438.000138 L 417.500098 459.999829 L 395.500407 481.500326 L 363.500293 491.999943 L 353.49987 490.000065 L 335.499935 502.000366 L 336.999585 493.999821 L 352.500448 483.500203 L 357.999854 459.999829 L 361.500415 466.000496 L 377.500472 460.500057 L 397.000057 456.999495 L 412.499886 450.999862 L 428.499943 445.000228 L 444.5 438.500366 L 454.999618 420.500431 L 471.499902 416.499642 " transform="matrix(3.779528,0,0,3.779528,0,0)"/>
<path style="fill:none;stroke-width:2;stroke-linecap:butt;stroke-linejoin:miter;stroke:rgb(0%,0%,0%);stroke-opacity:1;stroke-miterlimit:4;" d="M 352.00022 272.500163 L 350.000342 255.999878 L 345.999552 239.999821 L 343.999674 223.499536 L 339.999919 207.500513 L 338.000041 191.99965 L 335.499935 175.500399 L 331.500179 159.500342 L 329.500301 143.500285 L 327.999618 127.500228 L 323.999862 111.500171 " transform="matrix(3.779528,0,0,3.779528,0,0)"/>
<path style="fill:none;stroke-width:2;stroke-linecap:butt;stroke-linejoin:miter;stroke:rgb(0%,0%,0%);stroke-opacity:1;stroke-miterlimit:4;" d="M 322.500212 105.000309 L 305.999927 103.000431 L 289.99987 105.000309 L 273.499585 105.000309 L 257.000334 107.000187 L 241.500505 107.000187 L 225.500448 112.999821 L 209.500391 115.499927 L 193.999528 115.499927 L 177.500277 118.000033 L 161.50022 119.99991 L 145.500163 119.99991 L 127.500228 116.500382 L 111.500171 122.500016 L 95.500114 124.499894 L 76.999951 120.500138 L 60.999894 126.499772 L 45.500065 125.999544 L 29.500008 128.000456 " transform="matrix(3.779528,0,0,3.779528,0,0)"/>
<path style="fill:none;stroke-width:2;stroke-linecap:butt;stroke-linejoin:miter;stroke:rgb(0%,0%,0%);stroke-opacity:1;stroke-miterlimit:4;" d="M 0.500228 40.499854 L 17.000513 40.499854 L 32.999536 38.499976 L 48.999593 38.499976 L 65.499878 37.999748 L 81.499935 35.499642 L 97.499992 35.000448 L 113.500049 28.99978 L 129.500106 28.99978 L 145.500163 28.499552 L 178.000505 28.499552 L 194.499756 26.499674 L 210.499813 26.999902 L 226.49987 26.999902 L 242.499927 25.000024 L 258.499984 25.000024 L 274.500041 25.500252 L 290.500098 25.500252 L 306.500155 23.500374 L 322.500212 23.500374 L 338.500269 21.999691 L 354.000098 30.000236 L 369.499927 44.000415 " transform="matrix(3.779528,0,0,3.779528,0,0)"/>
<path style="fill:none;stroke-width:2;stroke-linecap:butt;stroke-linejoin:miter;stroke:rgb(0%,0%,0%);stroke-opacity:1;stroke-miterlimit:4;" d="M 357.499626 37.49952 L 341.499569 27.50013 L 325.499512 27.50013 L 309.500488 29.500008 L 278.499797 29.500008 L 262.49974 31.499886 L 214.000374 31.499886 L 197.50009 33.999992 L 149.499919 33.999992 L 134.00009 35.499642 L 101.999976 35.499642 L 82.000163 31.499886 L 66.000106 31.499886 L 50.000049 33.499764 L 1.49965 33.499764 " transform="matrix(3.779528,0,0,3.779528,0,0)"/>
<path style="fill:none;stroke-width:2;stroke-linecap:butt;stroke-linejoin:miter;stroke:rgb(0%,0%,0%);stroke-opacity:1;stroke-miterlimit:4;" d="M 341.000374 29.500008 L 361.000187 45.500065 L 369.499927 61.500122 L 371.499805 77.500179 L 373.99991 93.000008 L 377.999666 109.500293 L 382.000456 125.50035 L 384.000334 141.999601 L 388.00009 157.999658 L 389.999967 174.499943 L 393.999723 190.5 L 398.000513 207.000285 L 401.500041 223.000342 L 403.499919 238.500171 L 407.499674 254.500228 L 409.499552 270.000057 L 413.999536 286.000114 L 417.500098 302.000171 L 422.000081 318.000228 L 418.000326 334.000285 L 406.000024 350.000342 L 388.00009 366.499593 L 372.000033 366.000399 L 387.499862 366.000399 L 403.499919 351.499992 L 419.499976 329.000073 " transform="matrix(3.779528,0,0,3.779528,0,0)"/>
</g>
</svg>
