<?xml version="1.0" encoding="UTF-8"?>
<svg xmlns="http://www.w3.org/2000/svg" xmlns:xlink="http://www.w3.org/1999/xlink" width="1935.11811" height="1935.11811" viewBox="0 0 1935.11811 1935.11811" version="1.1">
<g id="surface1">
<path style="fill:none;stroke-width:2;stroke-linecap:butt;stroke-linejoin:miter;stroke:rgb(0%,0%,0%);stroke-opacity:1;stroke-miterlimit:4;" d="M 419.499976 34.50022 L 419.499976 50.500277 L 391.499618 66.500334 L 381.500228 72.499967 L 397.500285 62.999772 L 413.500342 55.00026 L 429.500399 46.999715 " transform="matrix(3.779528,0,0,3.779528,0,0)"/>
<path style="fill:none;stroke-width:2;stroke-linecap:butt;stroke-linejoin:miter;stroke:rgb(0%,0%,0%);stroke-opacity:1;stroke-miterlimit:4;" d="M 443.00035 48.000171 L 419.499976 64.000228 L 393.000301 79.500057 L 357.499626 95.500114 " transform="matrix(3.779528,0,0,3.779528,0,0)"/>
<path style="fill:none;stroke-width:2;stroke-linecap:butt;stroke-linejoin:miter;stroke:rgb(0%,0%,0%);stroke-opacity:1;stroke-miterlimit:4;" d="M 356.500203 77.500179 L 346.49978 75.500301 L 346.49978 75.000073 L 363.999487 67.499756 L 379.999544 62.00035 L 386.000212 48.000171 L 370.000155 48.500399 L 354.000098 50.500277 " transform="matrix(3.779528,0,0,3.779528,0,0)"/>
<path style="fill:none;stroke-width:2;stroke-linecap:butt;stroke-linejoin:miter;stroke:rgb(0%,0%,0%);stroke-opacity:1;stroke-miterlimit:4;" d="M 353.49987 44.999837 L 369.499927 37.000326 L 386.000212 32.999536 L 398.000513 39.500431 L 378.499894 44.000415 L 354.99952 46.000293 L 332.999829 50.000049 L 313.000016 66.000106 L 297.500187 82.000163 L 289.499642 98.00022 L 299.500065 118.50026 L 295.000081 134.500317 L 295.000081 150.500374 L 296.999959 166.500431 L 296.499731 182.00026 L 298.000415 198.000317 L 298.000415 214.000374 L 313.500244 230.000431 " transform="matrix(3.779528,0,0,3.779528,0,0)"/>
<path style="fill:none;stroke-width:2;stroke-linecap:butt;stroke-linejoin:miter;stroke:rgb(0%,0%,0%);stroke-opacity:1;stroke-miterlimit:4;" d="M 300.000293 227.99952 L 316.00035 236.000065 L 332.000407 237.999943 L 348.499658 237.999943 L 364.499715 238.500171 L 380.499772 236.000065 L 396.499829 230.499626 L 413.000114 224.499992 L 428.499943 218.999552 L 444.5 206.500057 L 454.500423 196.499634 " transform="matrix(3.779528,0,0,3.779528,0,0)"/>
<path style="fill:none;stroke-width:2;stroke-linecap:butt;stroke-linejoin:miter;stroke:rgb(0%,0%,0%);stroke-opacity:1;stroke-miterlimit:4;" d="M 458.500179 215.500024 L 442.500122 225.500448 L 426.500065 233.499959 L 410.500008 241.999699 L 393.999723 246.499683 L 377.999666 248.999788 L 361.999609 252.999544 L 329.500301 252.999544 L 313.500244 248.499561 L 297.500187 239.000399 " transform="matrix(3.779528,0,0,3.779528,0,0)"/>
<path style="fill:none;stroke-width:2;stroke-linecap:butt;stroke-linejoin:miter;stroke:rgb(0%,0%,0%);stroke-opacity:1;stroke-miterlimit:4;" d="M 293.000203 230.000431 L 309.00026 239.999821 L 325.499512 243.500382 L 341.499569 241.999699 L 357.499626 243.999577 L 373.499683 241.999699 L 389.49974 237.999943 L 406.000024 230.000431 L 422.500309 225.999642 L 438.500366 216.000252 L 454.500423 205.999829 L 472.500358 198.000317 L 459.999829 214.000374 L 434.000382 229.500203 " transform="matrix(3.779528,0,0,3.779528,0,0)"/>
<path style="fill:none;stroke-width:2;stroke-linecap:butt;stroke-linejoin:miter;stroke:rgb(0%,0%,0%);stroke-opacity:1;stroke-miterlimit:4;" d="M 406.000024 230.000431 L 418.49952 214.000374 L 418.49952 197.50009 L 420.500431 177.500277 L 422.999504 161.50022 L 422.999504 145.500163 L 422.500309 129.500106 L 422.500309 113.500049 L 426.500065 81.499935 L 427.999715 66.000106 L 454.000195 50.500277 L 434.000382 34.50022 L 425.999837 36.500098 L 409.99978 32.500342 L 393.999723 30.000236 " transform="matrix(3.779528,0,0,3.779528,0,0)"/>
<path style="fill:none;stroke-width:2;stroke-linecap:butt;stroke-linejoin:miter;stroke:rgb(0%,0%,0%);stroke-opacity:1;stroke-miterlimit:4;" d="M 427.999715 64.99965 L 443.999772 55.00026 L 459.499601 66.500334 " transform="matrix(3.779528,0,0,3.779528,0,0)"/>
<path style="fill:none;stroke-width:2;stroke-linecap:butt;stroke-linejoin:miter;stroke:rgb(0%,0%,0%);stroke-opacity:1;stroke-miterlimit:4;" d="M 459.999829 60.000472 L 440.500244 46.000293 L 424.500187 55.999683 L 408.50013 64.000228 L 391.999845 73.999618 L 375.999788 82.000163 L 360.499959 86.500146 L 345.00013 88.500024 L 329.000073 89.999674 L 313.000016 85.999919 L 306.500155 78.000407 L 324.50009 75.500301 L 334.000285 60.000472 L 321.999984 64.000228 " transform="matrix(3.779528,0,0,3.779528,0,0)"/>
<path style="fill:none;stroke-width:2;stroke-linecap:butt;stroke-linejoin:miter;stroke:rgb(0%,0%,0%);stroke-opacity:1;stroke-miterlimit:4;" d="M 327.999618 58.499788 L 317.5 73.999618 L 311.500366 71.499512 L 325.499512 67.499756 L 339.999919 57.999561 L 352.00022 66.000106 L 375.999788 66.000106 L 392.500073 57.999561 " transform="matrix(3.779528,0,0,3.779528,0,0)"/>
<path style="fill:none;stroke-width:2;stroke-linecap:butt;stroke-linejoin:miter;stroke:rgb(0%,0%,0%);stroke-opacity:1;stroke-miterlimit:4;" d="M 384.999756 77.500179 L 413.500342 61.500122 L 438.999561 45.500065 L 429.000171 60.000472 L 413.000114 70.50009 L 396.499829 80.999707 L 380.499772 89.000252 L 363.999487 95.500114 L 347.500236 103.000431 L 330.999951 109.000065 L 314.999894 112.999821 L 298.499609 112.499593 L 282.000358 107.000187 " transform="matrix(3.779528,0,0,3.779528,0,0)"/>
<path style="fill:none;stroke-width:2;stroke-linecap:butt;stroke-linejoin:miter;stroke:rgb(0%,0%,0%);stroke-opacity:1;stroke-miterlimit:4;" d="M 283.500008 90.499902 L 299.500065 70.50009 L 315.500122 56.49991 L 331.500179 44.499609 L 347.500236 35.99987 L 363.999487 30.000236 L 380.499772 28.000358 L 396.499829 25.500252 L 412.499886 26.00048 L 429.000171 30.000236 L 445.000228 37.999748 L 461.000285 51.999927 " transform="matrix(3.779528,0,0,3.779528,0,0)"/>
<path style="fill:none;stroke-width:2;stroke-linecap:butt;stroke-linejoin:miter;stroke:rgb(0%,0%,0%);stroke-opacity:1;stroke-miterlimit:4;" d="M 457.999951 51.499699 L 463.999585 67.499756 L 469.500024 83.499813 L 469.500024 115.499927 " transform="matrix(3.779528,0,0,3.779528,0,0)"/>
<path style="fill:none;stroke-width:2;stroke-linecap:butt;stroke-linejoin:miter;stroke:rgb(0%,0%,0%);stroke-opacity:1;stroke-miterlimit:4;" d="M 445.000228 102.500203 L 447.000106 118.50026 L 445.000228 134.00009 L 441.000472 149.499919 L 447.000106 169.499731 L 448.999984 184.999561 L 443.499544 205.000407 L 418.000326 221.499658 " transform="matrix(3.779528,0,0,3.779528,0,0)"/>
<path style="fill:none;stroke-width:2;stroke-linecap:butt;stroke-linejoin:miter;stroke:rgb(0%,0%,0%);stroke-opacity:1;stroke-miterlimit:4;" d="M 406.000024 219.49978 L 389.999967 225.999642 L 373.499683 232.000309 L 357.999854 234.000187 L 341.999797 234.000187 L 325.99974 232.000309 L 309.999683 227.99952 L 293.999626 221.999886 " transform="matrix(3.779528,0,0,3.779528,0,0)"/>
<path style="fill:none;stroke-width:2;stroke-linecap:butt;stroke-linejoin:miter;stroke:rgb(0%,0%,0%);stroke-opacity:1;stroke-miterlimit:4;" d="M 316.00035 250.500472 L 293.500431 234.500415 L 291.49952 218.500358 L 291.49952 186.500244 L 289.99987 169.999959 L 291.000326 137.999845 L 291.000326 121.499561 L 285.499886 105.000309 L 285.499886 89.50048 L 296.999959 73.500423 L 312.499788 57.500366 L 334.500513 41.500309 L 370.500382 33.999992 L 354.000098 37.999748 L 337.499813 45.500065 L 320.999528 57.500366 L 305.000505 71.499512 L 289.000448 89.000252 " transform="matrix(3.779528,0,0,3.779528,0,0)"/>
<path style="fill:none;stroke-width:2;stroke-linecap:butt;stroke-linejoin:miter;stroke:rgb(0%,0%,0%);stroke-opacity:1;stroke-miterlimit:4;" d="M 293.999626 119.499683 L 309.500488 119.499683 L 325.499512 116.999577 L 341.499569 112.999821 L 357.000431 107.000187 L 373.499683 98.999642 L 389.999967 87.000374 L 406.000024 78.999829 L 414.499764 73.000195 L 386.500439 88.500024 L 359.999731 104.500081 " transform="matrix(3.779528,0,0,3.779528,0,0)"/>
<path style="fill:none;stroke-width:2;stroke-linecap:butt;stroke-linejoin:miter;stroke:rgb(0%,0%,0%);stroke-opacity:1;stroke-miterlimit:4;" d="M 336.500391 82.500391 L 340.500146 66.500334 L 336.500391 62.999772 " transform="matrix(3.779528,0,0,3.779528,0,0)"/>
<path style="fill:none;stroke-width:2;stroke-linecap:butt;stroke-linejoin:miter;stroke:rgb(0%,0%,0%);stroke-opacity:1;stroke-miterlimit:4;" d="M 418.000326 75.999495 L 417.500098 91.999552 L 418.000326 108.499837 L 418.000326 124.499894 L 418.49952 139.999723 L 416.499642 155.499552 L 416.99987 171.999837 L 414.999992 187.999894 L 414.999992 203.999951 L 404.999569 220.000008 " transform="matrix(3.779528,0,0,3.779528,0,0)"/>
<path style="fill:none;stroke-width:2;stroke-linecap:butt;stroke-linejoin:miter;stroke:rgb(0%,0%,0%);stroke-opacity:1;stroke-miterlimit:4;" d="M 434.999805 196.499634 L 443.499544 194.499756 L 443.499544 178.499699 " transform="matrix(3.779528,0,0,3.779528,0,0)"/>
<path style="fill:none;stroke-width:2;stroke-linecap:butt;stroke-linejoin:miter;stroke:rgb(0%,0%,0%);stroke-opacity:1;stroke-miterlimit:4;" d="M 432.499699 135.999967 L 432.999927 119.99991 L 432.999927 103.999854 L 434.999805 88.500024 L 431.000049 72.499967 " transform="matrix(3.779528,0,0,3.779528,0,0)"/>
<path style="fill:none;stroke-width:2;stroke-linecap:butt;stroke-linejoin:miter;stroke:rgb(0%,0%,0%);stroke-opacity:1;stroke-miterlimit:4;" d="M 436.999683 64.99965 L 446.499878 80.999707 L 447.000106 96.999764 L 442.500122 112.999821 L 442.500122 128.49965 L 445.99965 148.500496 L 448.499756 164.49952 L 436.999683 180.000382 L 429.500399 196.000439 " transform="matrix(3.779528,0,0,3.779528,0,0)"/>
<path style="fill:none;stroke-width:2;stroke-linecap:butt;stroke-linejoin:miter;stroke:rgb(0%,0%,0%);stroke-opacity:1;stroke-miterlimit:4;" d="M 432.499699 325.499512 L 450.499634 325.499512 L 461.000285 341.499569 L 479.500448 353.49987 L 481.500326 369.499927 " transform="matrix(3.779528,0,0,3.779528,0,0)"/>
<path style="fill:none;stroke-width:2;stroke-linecap:butt;stroke-linejoin:miter;stroke:rgb(0%,0%,0%);stroke-opacity:1;stroke-miterlimit:4;" d="M 444.5 384.999756 L 428.499943 363.500293 L 412.499886 354.99952 " transform="matrix(3.779528,0,0,3.779528,0,0)"/>
<path style="fill:none;stroke-width:2;stroke-linecap:butt;stroke-linejoin:miter;stroke:rgb(0%,0%,0%);stroke-opacity:1;stroke-miterlimit:4;" d="M 408.50013 351.499992 L 424.500187 352.00022 L 440.000016 352.00022 L 455.499845 351.499992 L 471.499902 347.500236 L 486.000309 363.500293 L 486.000309 379.50035 L 484.000431 395.500407 L 484.000431 427.499487 L 486.000309 443.499544 " transform="matrix(3.779528,0,0,3.779528,0,0)"/>
<path style="fill:none;stroke-width:2;stroke-linecap:butt;stroke-linejoin:miter;stroke:rgb(0%,0%,0%);stroke-opacity:1;stroke-miterlimit:4;" d="M 410.500008 379.999544 L 393.999723 376.500016 L 377.999666 398.999935 " transform="matrix(3.779528,0,0,3.779528,0,0)"/>
<path style="fill:none;stroke-width:2;stroke-linecap:butt;stroke-linejoin:miter;stroke:rgb(0%,0%,0%);stroke-opacity:1;stroke-miterlimit:4;" d="M 370.500382 401.500041 L 386.500439 375.499561 L 402.500496 369.499927 L 418.49952 377.000244 L 422.500309 382.999878 L 428.499943 398.999935 L 420.000203 414.999992 " transform="matrix(3.779528,0,0,3.779528,0,0)"/>
<path style="fill:none;stroke-width:2;stroke-linecap:butt;stroke-linejoin:miter;stroke:rgb(0%,0%,0%);stroke-opacity:1;stroke-miterlimit:4;" d="M 420.500431 416.000448 L 404.500374 429.999593 L 388.00009 425.999837 L 372.000033 409.99978 " transform="matrix(3.779528,0,0,3.779528,0,0)"/>
<path style="fill:none;stroke-width:2;stroke-linecap:butt;stroke-linejoin:miter;stroke:rgb(0%,0%,0%);stroke-opacity:1;stroke-miterlimit:4;" d="M 361.500415 407.00048 L 377.500472 424.500187 " transform="matrix(3.779528,0,0,3.779528,0,0)"/>
<path style="fill:none;stroke-width:2;stroke-linecap:butt;stroke-linejoin:miter;stroke:rgb(0%,0%,0%);stroke-opacity:1;stroke-miterlimit:4;" d="M 362.499837 391.499618 L 378.499894 365.500171 L 395.000179 357.499626 L 409.000358 357.499626 L 424.500187 366.999821 " transform="matrix(3.779528,0,0,3.779528,0,0)"/>
<path style="fill:none;stroke-width:2;stroke-linecap:butt;stroke-linejoin:miter;stroke:rgb(0%,0%,0%);stroke-opacity:1;stroke-miterlimit:4;" d="M 420.000203 360.499959 L 438.000138 377.000244 L 443.499544 393.000301 L 439.499788 408.50013 L 429.500399 424.500187 " transform="matrix(3.779528,0,0,3.779528,0,0)"/>
<path style="fill:none;stroke-width:2;stroke-linecap:butt;stroke-linejoin:miter;stroke:rgb(0%,0%,0%);stroke-opacity:1;stroke-miterlimit:4;" d="M 411.999658 418.49952 L 391.499618 418.49952 L 363.500293 406.500252 L 363.999487 390.500195 L 370.500382 373.99991 L 394.499951 357.499626 L 374.500138 361.500415 L 358.500081 387.499862 " transform="matrix(3.779528,0,0,3.779528,0,0)"/>
<path style="fill:none;stroke-width:2;stroke-linecap:butt;stroke-linejoin:miter;stroke:rgb(0%,0%,0%);stroke-opacity:1;stroke-miterlimit:4;" d="M 393.999723 376.500016 L 382.000456 392.500073 L 377.999666 407.999902 L 377.999666 432.000505 " transform="matrix(3.779528,0,0,3.779528,0,0)"/>
<path style="fill:none;stroke-width:2;stroke-linecap:butt;stroke-linejoin:miter;stroke:rgb(0%,0%,0%);stroke-opacity:1;stroke-miterlimit:4;" d="M 429.500399 425.999837 L 413.999536 436.00026 L 397.500285 438.000138 L 385.499984 434.000382 L 368.999699 423.999959 L 360.499959 407.499674 L 357.999854 391.499618 L 363.999487 375.499561 L 377.500472 359.499504 L 381.500228 351.499992 L 365.500171 351.499992 L 349.500114 349.500114 " transform="matrix(3.779528,0,0,3.779528,0,0)"/>
<path style="fill:none;stroke-width:2;stroke-linecap:butt;stroke-linejoin:miter;stroke:rgb(0%,0%,0%);stroke-opacity:1;stroke-miterlimit:4;" d="M 350.000342 345.500358 L 365.500171 345.500358 L 381.500228 348.000464 L 397.500285 348.000464 L 413.500342 345.999552 L 429.999593 344.499902 L 445.99965 342.500024 " transform="matrix(3.779528,0,0,3.779528,0,0)"/>
<path style="fill:none;stroke-width:2;stroke-linecap:butt;stroke-linejoin:miter;stroke:rgb(0%,0%,0%);stroke-opacity:1;stroke-miterlimit:4;" d="M 448.999984 323.499634 L 432.499699 321.999984 L 410.500008 332.499601 L 395.000179 332.499601 " transform="matrix(3.779528,0,0,3.779528,0,0)"/>
<path style="fill:none;stroke-width:2;stroke-linecap:butt;stroke-linejoin:miter;stroke:rgb(0%,0%,0%);stroke-opacity:1;stroke-miterlimit:4;" d="M 395.000179 370.500382 L 379.000122 386.500439 L 370.500382 402.500496 L 370.500382 418.49952 L 382.49965 424.500187 " transform="matrix(3.779528,0,0,3.779528,0,0)"/>
<path style="fill:none;stroke-width:2;stroke-linecap:butt;stroke-linejoin:miter;stroke:rgb(0%,0%,0%);stroke-opacity:1;stroke-miterlimit:4;" d="M 427.999715 418.000326 L 411.999658 432.000505 L 423.499731 421.499854 L 435.500033 405.499797 L 437.49991 389.49974 L 427.999715 373.000488 L 415.50022 357.000431 L 422.999504 330.999951 L 429.500399 330.999951 L 422.000081 319.499878 L 357.499626 319.499878 L 341.499569 321.499756 L 325.499512 329.500301 " transform="matrix(3.779528,0,0,3.779528,0,0)"/>
<path style="fill:none;stroke-width:2;stroke-linecap:butt;stroke-linejoin:miter;stroke:rgb(0%,0%,0%);stroke-opacity:1;stroke-miterlimit:4;" d="M 330.499723 320.999528 L 326.499967 337.499813 L 325.99974 353.49987 L 325.99974 369.499927 L 323.999862 386.000212 L 325.99974 402.000269 L 323.499634 418.000326 L 323.499634 433.500155 L 317.5 455.499845 L 341.000374 461.500513 L 373.000488 461.500513 L 388.999512 461.999707 L 405.499797 462.499935 L 422.000081 462.499935 L 438.500366 465.000041 L 454.500423 462.499935 L 470.50048 460.500057 " transform="matrix(3.779528,0,0,3.779528,0,0)"/>
<path style="fill:none;stroke-width:2;stroke-linecap:butt;stroke-linejoin:miter;stroke:rgb(0%,0%,0%);stroke-opacity:1;stroke-miterlimit:4;" d="M 473.49978 382.999878 L 473.49978 366.499593 L 474.000008 348.999886 L 479.999642 332.999829 L 477.999764 316.999772 L 453.499967 311.000138 L 438.000138 309.500488 L 422.000081 307.999805 L 389.49974 307.999805 L 373.99991 310.49991 L 357.999854 310.49991 L 341.999797 311.999561 L 325.99974 313.500244 " transform="matrix(3.779528,0,0,3.779528,0,0)"/>
<path style="fill:none;stroke-width:2;stroke-linecap:butt;stroke-linejoin:miter;stroke:rgb(0%,0%,0%);stroke-opacity:1;stroke-miterlimit:4;" d="M 327.500423 312.499788 L 321.499756 316.499544 L 321.499756 332.499601 L 319.499878 348.499658 L 319.499878 363.999487 L 320.000106 379.999544 L 319.499878 395.999601 L 319.499878 427.999715 L 331.500179 450.000439 L 339.499691 452.000317 L 355.499748 454.000195 " transform="matrix(3.779528,0,0,3.779528,0,0)"/>
<path style="fill:none;stroke-width:2;stroke-linecap:butt;stroke-linejoin:miter;stroke:rgb(0%,0%,0%);stroke-opacity:1;stroke-miterlimit:4;" d="M 314.499666 436.00026 L 298.499609 435.500033 L 282.499552 437.49991 " transform="matrix(3.779528,0,0,3.779528,0,0)"/>
<path style="fill:none;stroke-width:2;stroke-linecap:butt;stroke-linejoin:miter;stroke:rgb(0%,0%,0%);stroke-opacity:1;stroke-miterlimit:4;" d="M 284.999658 436.00026 L 282.99978 451.50009 L 286.999536 453.499967 L 291.000326 459.999829 L 307.000382 456.500301 L 316.999772 464.499813 L 332.999829 460.500057 " transform="matrix(3.779528,0,0,3.779528,0,0)"/>
<path style="fill:none;stroke-width:2;stroke-linecap:butt;stroke-linejoin:miter;stroke:rgb(0%,0%,0%);stroke-opacity:1;stroke-miterlimit:4;" d="M 313.000016 450.000439 L 296.999959 445.99965 L 292.499976 456.000073 L 289.000448 439.499788 " transform="matrix(3.779528,0,0,3.779528,0,0)"/>
<path style="fill:none;stroke-width:2;stroke-linecap:butt;stroke-linejoin:miter;stroke:rgb(0%,0%,0%);stroke-opacity:1;stroke-miterlimit:4;" d="M 287.499764 440.000016 L 303.499821 441.999894 L 319.499878 441.999894 L 335.499935 443.999772 L 351.499992 447.500334 L 368.000277 447.000106 L 384.000334 447.500334 L 400.499585 447.500334 L 416.499642 445.500456 L 432.499699 447.999528 L 447.999528 447.999528 L 463.999585 450.000439 " transform="matrix(3.779528,0,0,3.779528,0,0)"/>
<path style="fill:none;stroke-width:2;stroke-linecap:butt;stroke-linejoin:miter;stroke:rgb(0%,0%,0%);stroke-opacity:1;stroke-miterlimit:4;" d="M 480.49987 441.999894 L 480.49987 425.999837 L 479.999642 410.500008 L 479.999642 394.499951 L 477.999764 373.000488 L 477.999764 357.000431 L 484.000431 341.499569 L 484.499626 325.000317 L 480.49987 313.000016 L 464.499813 309.00026 L 448.499756 306.500155 L 432.499699 304.500277 L 416.499642 305.000505 L 400.499585 304.500277 L 384.999756 305.000505 L 369.499927 305.000505 L 353.49987 307.000382 L 337.499813 308.500033 L 321.499756 314.499666 " transform="matrix(3.779528,0,0,3.779528,0,0)"/>
<path style="fill:none;stroke-width:2;stroke-linecap:butt;stroke-linejoin:miter;stroke:rgb(0%,0%,0%);stroke-opacity:1;stroke-miterlimit:4;" d="M 328.499845 315.500122 L 344.499902 316.00035 L 359.999731 316.00035 L 375.499561 314.000472 L 407.00048 314.000472 L 422.999504 316.00035 L 438.999561 318.000228 L 454.999618 321.999984 L 459.000407 325.99974 L 466.999919 341.999797 " transform="matrix(3.779528,0,0,3.779528,0,0)"/>
<path style="fill:none;stroke-width:2;stroke-linecap:butt;stroke-linejoin:miter;stroke:rgb(0%,0%,0%);stroke-opacity:1;stroke-miterlimit:4;" d="M 404.999569 372.50026 L 418.999748 388.500317 L 420.999626 404.500374 L 413.000114 420.000203 " transform="matrix(3.779528,0,0,3.779528,0,0)"/>
<path style="fill:none;stroke-width:2;stroke-linecap:butt;stroke-linejoin:miter;stroke:rgb(0%,0%,0%);stroke-opacity:1;stroke-miterlimit:4;" d="M 221.499658 470.000252 L 223.499536 454.000195 L 223.000342 438.000138 L 225.00022 422.000081 L 225.500448 406.000024 L 225.999642 389.999967 L 225.999642 374.500138 L 225.500448 359.000309 L 227.500326 343.000252 L 227.99952 327.000195 L 220.000008 316.499544 " transform="matrix(3.779528,0,0,3.779528,0,0)"/>
<path style="fill:none;stroke-width:2;stroke-linecap:butt;stroke-linejoin:miter;stroke:rgb(0%,0%,0%);stroke-opacity:1;stroke-miterlimit:4;" d="M 207.999707 295.000081 L 191.99965 295.000081 " transform="matrix(3.779528,0,0,3.779528,0,0)"/>
<path style="fill:none;stroke-width:2;stroke-linecap:butt;stroke-linejoin:miter;stroke:rgb(0%,0%,0%);stroke-opacity:1;stroke-miterlimit:4;" d="M 187.999894 316.499544 L 203.999951 318.500456 L 220.000008 310.49991 L 232.000309 329.999495 L 231.500081 345.500358 L 231.500081 393.000301 L 230.000431 409.000358 L 230.000431 441.000472 L 227.99952 456.999495 L 225.500448 472.500358 " transform="matrix(3.779528,0,0,3.779528,0,0)"/>
<path style="fill:none;stroke-width:2;stroke-linecap:butt;stroke-linejoin:miter;stroke:rgb(0%,0%,0%);stroke-opacity:1;stroke-miterlimit:4;" d="M 202.000073 335.499935 L 180.000382 338.000041 L 164.000326 320.500334 " transform="matrix(3.779528,0,0,3.779528,0,0)"/>
<path style="fill:none;stroke-width:2;stroke-linecap:butt;stroke-linejoin:miter;stroke:rgb(0%,0%,0%);stroke-opacity:1;stroke-miterlimit:4;" d="M 151.499797 318.99965 L 169.499731 334.999707 L 175.500399 351.499992 L 177.500277 367.500049 L 163.500098 388.00009 L 151.499797 404.000146 " transform="matrix(3.779528,0,0,3.779528,0,0)"/>
<path style="fill:none;stroke-width:2;stroke-linecap:butt;stroke-linejoin:miter;stroke:rgb(0%,0%,0%);stroke-opacity:1;stroke-miterlimit:4;" d="M 177.000049 349.500114 L 160.999992 337.499813 L 160.999992 331.500179 L 144.999935 323.999862 " transform="matrix(3.779528,0,0,3.779528,0,0)"/>
<path style="fill:none;stroke-width:2;stroke-linecap:butt;stroke-linejoin:miter;stroke:rgb(0%,0%,0%);stroke-opacity:1;stroke-miterlimit:4;" d="M 139.499495 327.500423 L 159.500342 343.50048 L 169.999959 359.499504 L 153.999902 375.499561 L 150.000146 381.500228 " transform="matrix(3.779528,0,0,3.779528,0,0)"/>
<path style="fill:none;stroke-width:2;stroke-linecap:butt;stroke-linejoin:miter;stroke:rgb(0%,0%,0%);stroke-opacity:1;stroke-miterlimit:4;" d="M 149.499919 413.500342 L 167.499854 397.500285 L 175.999593 381.500228 L 186.000016 364.999943 L 186.500244 349.500114 L 176.499821 333.500057 L 160.499764 318.000228 L 136.500195 318.500456 " transform="matrix(3.779528,0,0,3.779528,0,0)"/>
<path style="fill:none;stroke-width:2;stroke-linecap:butt;stroke-linejoin:miter;stroke:rgb(0%,0%,0%);stroke-opacity:1;stroke-miterlimit:4;" d="M 135.49974 317.5 L 155.499552 333.500057 L 169.999959 349.500114 L 182.00026 363.999487 L 185.499788 372.000033 L 179.500155 388.00009 L 169.999959 404.000146 L 152.000024 419.499976 " transform="matrix(3.779528,0,0,3.779528,0,0)"/>
<path style="fill:none;stroke-width:2;stroke-linecap:butt;stroke-linejoin:miter;stroke:rgb(0%,0%,0%);stroke-opacity:1;stroke-miterlimit:4;" d="M 171.000415 375.000366 L 155.000358 402.999691 L 138.500073 415.50022 L 122.500016 416.99987 L 106.499959 411.000236 L 90.499902 398.999935 " transform="matrix(3.779528,0,0,3.779528,0,0)"/>
<path style="fill:none;stroke-width:2;stroke-linecap:butt;stroke-linejoin:miter;stroke:rgb(0%,0%,0%);stroke-opacity:1;stroke-miterlimit:4;" d="M 96.999764 397.000057 L 87.000374 379.000122 L 87.000374 364.999943 " transform="matrix(3.779528,0,0,3.779528,0,0)"/>
<path style="fill:none;stroke-width:2;stroke-linecap:butt;stroke-linejoin:miter;stroke:rgb(0%,0%,0%);stroke-opacity:1;stroke-miterlimit:4;" d="M 89.000252 358.500081 L 105.000309 336.500391 L 121.000366 326.499967 L 137.499618 330.499723 L 153.499674 344.499902 " transform="matrix(3.779528,0,0,3.779528,0,0)"/>
<path style="fill:none;stroke-width:2;stroke-linecap:butt;stroke-linejoin:miter;stroke:rgb(0%,0%,0%);stroke-opacity:1;stroke-miterlimit:4;" d="M 160.499764 343.50048 L 144.000513 329.000073 L 128.000456 320.999528 L 112.000399 323.499634 L 96.000342 335.499935 " transform="matrix(3.779528,0,0,3.779528,0,0)"/>
<path style="fill:none;stroke-width:2;stroke-linecap:butt;stroke-linejoin:miter;stroke:rgb(0%,0%,0%);stroke-opacity:1;stroke-miterlimit:4;" d="M 109.999487 323.499634 L 100.500326 339.499691 L 90.499902 355.499748 L 88.500024 372.000033 L 84.500269 375.999788 L 84.500269 389.999967 L 98.500448 406.000024 L 112.499593 406.000024 L 128.000456 409.499552 L 143.500285 403.499919 L 159.500342 381 " transform="matrix(3.779528,0,0,3.779528,0,0)"/>
<path style="fill:none;stroke-width:2;stroke-linecap:butt;stroke-linejoin:miter;stroke:rgb(0%,0%,0%);stroke-opacity:1;stroke-miterlimit:4;" d="M 148.000269 372.000033 L 132.500439 389.999967 L 116.999577 396.499829 L 100.99952 400.499585 L 85.499691 390.500195 " transform="matrix(3.779528,0,0,3.779528,0,0)"/>
<path style="fill:none;stroke-width:2;stroke-linecap:butt;stroke-linejoin:miter;stroke:rgb(0%,0%,0%);stroke-opacity:1;stroke-miterlimit:4;" d="M 77.500179 388.00009 L 93.500236 409.99978 L 109.500293 420.000203 L 125.999544 421.499854 L 142.499829 417.500098 L 158.499886 409.499552 L 174.499943 385.499984 " transform="matrix(3.779528,0,0,3.779528,0,0)"/>
<path style="fill:none;stroke-width:2;stroke-linecap:butt;stroke-linejoin:miter;stroke:rgb(0%,0%,0%);stroke-opacity:1;stroke-miterlimit:4;" d="M 182.500488 382.000456 L 166.500431 409.499552 L 150.500374 421.499854 L 134.500317 427.499487 L 118.50026 427.499487 L 102.500203 420.999626 L 86.500146 409.000358 L 78.499601 377.000244 L 82.500391 361.000187 L 90.499902 344.499902 L 101.999976 328.499845 L 82.000163 358.500081 " transform="matrix(3.779528,0,0,3.779528,0,0)"/>
<path style="fill:none;stroke-width:2;stroke-linecap:butt;stroke-linejoin:miter;stroke:rgb(0%,0%,0%);stroke-opacity:1;stroke-miterlimit:4;" d="M 76.999951 360.499959 L 93.000008 332.499601 L 102.500203 323.000439 L 88.500024 339.000496 L 78.000407 355.499748 L 73.500423 371.499805 L 77.500179 387.499862 L 87.999797 403.499919 L 105.999731 419.499976 " transform="matrix(3.779528,0,0,3.779528,0,0)"/>
<path style="fill:none;stroke-width:2;stroke-linecap:butt;stroke-linejoin:miter;stroke:rgb(0%,0%,0%);stroke-opacity:1;stroke-miterlimit:4;" d="M 87.999797 413.999536 L 75.999495 398.499707 L 69.999862 382.49965 L 69.499634 366.999821 L 75.500301 350.499536 L 85.499691 334.500513 L 101.499748 318.000228 L 85.499691 330.999951 L 69.499634 363.000065 " transform="matrix(3.779528,0,0,3.779528,0,0)"/>
<path style="fill:none;stroke-width:2;stroke-linecap:butt;stroke-linejoin:miter;stroke:rgb(0%,0%,0%);stroke-opacity:1;stroke-miterlimit:4;" d="M 44.499609 319.499878 L 44.499609 335.499935 L 47.499943 351.499992 L 48.000171 367.500049 L 48.000171 425.999837 L 48.500399 441.499666 L 48.500399 457.499723 L 55.999683 472.999552 L 87.999797 472.999552 L 103.999854 473.49978 L 119.499683 473.49978 L 135.49974 474.000008 L 166.999626 474.000008 L 183.49991 474.500236 L 199.499967 474.500236 L 215.500024 476.500114 " transform="matrix(3.779528,0,0,3.779528,0,0)"/>
<path style="fill:none;stroke-width:2;stroke-linecap:butt;stroke-linejoin:miter;stroke:rgb(0%,0%,0%);stroke-opacity:1;stroke-miterlimit:4;" d="M 173.499487 357.499626 L 171.499609 335.499935 L 155.99978 318.99965 L 139.999723 313.000016 L 123.999666 313.000016 L 105.999731 309.00026 L 89.999674 314.999894 L 73.999618 313.000016 L 57.999561 313.500244 L 41.999504 315.500122 " transform="matrix(3.779528,0,0,3.779528,0,0)"/>
<path style="fill:none;stroke-width:2;stroke-linecap:butt;stroke-linejoin:miter;stroke:rgb(0%,0%,0%);stroke-opacity:1;stroke-miterlimit:4;" d="M 37.49952 321.999984 L 53.499577 304.000049 L 45.500065 280.00048 L 60.999894 277.999569 L 76.499723 277.500374 L 91.999552 286.000114 L 107.500415 277.999569 L 121.499561 282.499552 L 137.000423 280.999902 L 150.500374 275.000269 L 166.500431 275.000269 L 182.500488 274.500041 L 198.99974 272.500163 L 215.500024 274.500041 " transform="matrix(3.779528,0,0,3.779528,0,0)"/>
<path style="fill:none;stroke-width:2;stroke-linecap:butt;stroke-linejoin:miter;stroke:rgb(0%,0%,0%);stroke-opacity:1;stroke-miterlimit:4;" d="M 218.500358 276.499919 L 224.499992 292.499976 L 232.499504 314.499666 L 216.50048 330.499723 L 214.499569 352.500448 " transform="matrix(3.779528,0,0,3.779528,0,0)"/>
<path style="fill:none;stroke-width:2;stroke-linecap:butt;stroke-linejoin:miter;stroke:rgb(0%,0%,0%);stroke-opacity:1;stroke-miterlimit:4;" d="M 205.999829 352.00022 L 198.000317 345.999552 L 199.499967 354.000098 L 207.500513 345.500358 L 219.49978 325.499512 L 205.999829 307.499577 L 218.00013 300.999715 L 228.499748 285.499886 L 216.50048 269.499829 L 214.499569 268.000179 L 198.499512 268.500407 L 182.500488 268.500407 L 166.500431 270.000057 L 150.500374 270.000057 L 134.500317 271.999935 L 118.000033 273.999813 L 102.500203 271.999935 L 86.500146 271.499707 L 71.000317 271.499707 L 55.00026 271.999935 L 39.000203 275.999691 " transform="matrix(3.779528,0,0,3.779528,0,0)"/>
<path style="fill:none;stroke-width:2;stroke-linecap:butt;stroke-linejoin:miter;stroke:rgb(0%,0%,0%);stroke-opacity:1;stroke-miterlimit:4;" d="M 41.000081 274.500041 L 36.500098 290.500098 L 34.50022 305.999927 L 36.500098 321.999984 L 35.99987 338.500269 L 35.99987 385.499984 L 35.499642 400.999813 L 35.499642 432.000505 L 37.49952 448.499756 L 37.49952 481.500326 L 42.999959 472.00013 L 59.000016 468.499569 L 75.000073 468.999797 L 137.999845 468.999797 L 154.50013 470.50048 L 171.000415 470.999674 L 203.499723 470.999674 L 220.000008 473.49978 " transform="matrix(3.779528,0,0,3.779528,0,0)"/>
<path style="fill:none;stroke-width:2;stroke-linecap:butt;stroke-linejoin:miter;stroke:rgb(0%,0%,0%);stroke-opacity:1;stroke-miterlimit:4;" d="M 220.000008 484.999854 L 203.999951 487.499959 L 171.999837 487.499959 L 155.99978 488.999609 L 139.999723 489.499837 L 123.999666 489.499837 L 108.499837 490.000065 L 92.49978 489.499837 L 76.999951 491.499715 L 61.500122 491.999943 L 46.000293 491.999943 L 30.000236 490.000065 " transform="matrix(3.779528,0,0,3.779528,0,0)"/>
<path style="fill:none;stroke-width:2;stroke-linecap:butt;stroke-linejoin:miter;stroke:rgb(0%,0%,0%);stroke-opacity:1;stroke-miterlimit:4;" d="M 26.999902 485.500081 L 42.999959 481.500326 " transform="matrix(3.779528,0,0,3.779528,0,0)"/>
<path style="fill:none;stroke-width:2;stroke-linecap:butt;stroke-linejoin:miter;stroke:rgb(0%,0%,0%);stroke-opacity:1;stroke-miterlimit:4;" d="M 55.999683 303.499821 L 71.99974 305.499699 L 94.000464 309.500488 L 112.000399 315.500122 L 128.000456 309.999683 L 144.000513 309.999683 L 159.500342 311.999561 L 163.500098 315.500122 L 177.500277 315.500122 L 193.000106 311.999561 " transform="matrix(3.779528,0,0,3.779528,0,0)"/>
<path style="fill:none;stroke-width:2;stroke-linecap:butt;stroke-linejoin:miter;stroke:rgb(0%,0%,0%);stroke-opacity:1;stroke-miterlimit:4;" d="M 202.000073 289.000448 L 202.000073 284.500464 L 187.999894 295.000081 L 171.999837 295.000081 L 155.99978 295.500309 L 139.999723 295.500309 L 123.999666 295.000081 L 107.999609 295.000081 L 91.500358 294.499854 L 75.500301 294.499854 L 59.500244 298.000415 L 43.500187 298.000415 " transform="matrix(3.779528,0,0,3.779528,0,0)"/>
<path style="fill:none;stroke-width:2;stroke-linecap:butt;stroke-linejoin:miter;stroke:rgb(0%,0%,0%);stroke-opacity:1;stroke-miterlimit:4;" d="M 56.49991 288.50022 L 58.499788 286.500342 L 76.499723 305.999927 L 76.499723 302.000171 L 94.499658 300.000293 L 125.999544 300.000293 L 141.999601 299.500065 L 157.999658 299.500065 L 173.999715 300.000293 L 191.99965 302.000171 L 209.999585 300.000293 L 225.999642 293.999626 " transform="matrix(3.779528,0,0,3.779528,0,0)"/>
<path style="fill:none;stroke-width:2;stroke-linecap:butt;stroke-linejoin:miter;stroke:rgb(0%,0%,0%);stroke-opacity:1;stroke-miterlimit:4;" d="M 196.499634 336.500391 L 193.000106 352.500448 " transform="matrix(3.779528,0,0,3.779528,0,0)"/>
<path style="fill:none;stroke-width:2;stroke-linecap:butt;stroke-linejoin:miter;stroke:rgb(0%,0%,0%);stroke-opacity:1;stroke-miterlimit:4;" d="M 143.000057 316.00035 L 159.000114 331.500179 L 179.500155 351.499992 L 164.000326 371.499805 L 156.500008 387.499862 L 142.499829 404.000146 " transform="matrix(3.779528,0,0,3.779528,0,0)"/>
<path style="fill:none;stroke-width:2;stroke-linecap:butt;stroke-linejoin:miter;stroke:rgb(0%,0%,0%);stroke-opacity:1;stroke-miterlimit:4;" d="M 134.999512 387.499862 L 148.999691 371.499805 L 162.99987 354.99952 L 148.999691 338.500269 L 132.500439 322.500212 " transform="matrix(3.779528,0,0,3.779528,0,0)"/>
<path style="fill:none;stroke-width:2;stroke-linecap:butt;stroke-linejoin:miter;stroke:rgb(0%,0%,0%);stroke-opacity:1;stroke-miterlimit:4;" d="M 127.500228 289.499642 L 111.500171 287.999992 " transform="matrix(3.779528,0,0,3.779528,0,0)"/>
<path style="fill:none;stroke-width:2;stroke-linecap:butt;stroke-linejoin:miter;stroke:rgb(0%,0%,0%);stroke-opacity:1;stroke-miterlimit:4;" d="M 48.000171 279.000024 L 46.000293 295.000081 L 61.500122 284.999658 L 43.500187 309.00026 L 39.500431 330.999951 L 39.500431 347.000008 L 39.000203 362.499837 L 39.000203 378.499894 L 39.500431 393.999723 L 39.500431 425.999837 L 41.000081 441.999894 L 41.000081 457.499723 L 51.000505 479.500448 L 82.500391 479.500448 L 98.500448 481.500326 L 114.500505 481.500326 L 130.499528 479.500448 L 146.999813 479.500448 L 162.99987 481.000098 L 178.999927 481.500326 L 194.999984 481.500326 L 211.500269 479.500448 " transform="matrix(3.779528,0,0,3.779528,0,0)"/>
<path style="fill:none;stroke-width:2;stroke-linecap:butt;stroke-linejoin:miter;stroke:rgb(0%,0%,0%);stroke-opacity:1;stroke-miterlimit:4;" d="M 184.000138 227.000098 L 185.499788 211.000041 L 186.000016 193.000106 L 186.500244 176.499821 L 186.500244 159.999536 L 187.999894 143.500285 L 187.999894 127.500228 L 188.500122 110.999943 L 178.999927 105.499504 L 189.00035 89.50048 L 176.499821 71.499512 L 166.500431 67.499756 L 162.499642 63.5 L 156.500008 45.500065 L 141.000179 47.499943 L 132.999634 57.999561 L 121.000366 46.000293 L 128.999878 54.500033 L 120.500138 54.500033 L 104.500081 46.999715 L 101.999976 51.000505 L 94.000464 53.000382 " transform="matrix(3.779528,0,0,3.779528,0,0)"/>
<path style="fill:none;stroke-width:2;stroke-linecap:butt;stroke-linejoin:miter;stroke:rgb(0%,0%,0%);stroke-opacity:1;stroke-miterlimit:4;" d="M 84.000041 67.999984 L 100.000098 70.50009 L 116.000155 69.999862 L 131.499984 67.999984 " transform="matrix(3.779528,0,0,3.779528,0,0)"/>
<path style="fill:none;stroke-width:2;stroke-linecap:butt;stroke-linejoin:miter;stroke:rgb(0%,0%,0%);stroke-opacity:1;stroke-miterlimit:4;" d="M 153.499674 80.500513 L 155.499552 96.499536 L 157.500464 80.500513 L 159.500342 84.500269 " transform="matrix(3.779528,0,0,3.779528,0,0)"/>
<path style="fill:none;stroke-width:2;stroke-linecap:butt;stroke-linejoin:miter;stroke:rgb(0%,0%,0%);stroke-opacity:1;stroke-miterlimit:4;" d="M 164.999748 67.499756 L 181.500033 67.999984 " transform="matrix(3.779528,0,0,3.779528,0,0)"/>
<path style="fill:none;stroke-width:2;stroke-linecap:butt;stroke-linejoin:miter;stroke:rgb(0%,0%,0%);stroke-opacity:1;stroke-miterlimit:4;" d="M 169.499731 76.499723 L 153.499674 76.499723 L 137.000423 75.999495 L 116.999577 66.000106 L 101.499748 64.000228 L 91.500358 59.500244 L 82.000163 55.500488 L 82.000163 66.999528 L 66.000106 64.99965 " transform="matrix(3.779528,0,0,3.779528,0,0)"/>
<path style="fill:none;stroke-width:2;stroke-linecap:butt;stroke-linejoin:miter;stroke:rgb(0%,0%,0%);stroke-opacity:1;stroke-miterlimit:4;" d="M 69.000439 49.499821 L 85.000496 47.499943 L 89.000252 66.000106 L 105.499504 54.500033 " transform="matrix(3.779528,0,0,3.779528,0,0)"/>
<path style="fill:none;stroke-width:2;stroke-linecap:butt;stroke-linejoin:miter;stroke:rgb(0%,0%,0%);stroke-opacity:1;stroke-miterlimit:4;" d="M 127.500228 42.999959 L 139.499495 59.000016 L 121.499561 76.999951 L 115.499927 93.500236 L 119.99991 80.000285 L 134.00009 72.499967 L 150.000146 72.499967 L 157.999658 52.500155 L 168.000081 42.499731 L 180.499577 60.499666 L 184.999561 54.500033 " transform="matrix(3.779528,0,0,3.779528,0,0)"/>
<path style="fill:none;stroke-width:2;stroke-linecap:butt;stroke-linejoin:miter;stroke:rgb(0%,0%,0%);stroke-opacity:1;stroke-miterlimit:4;" d="M 179.500155 44.000415 L 163.500098 37.49952 L 116.000155 37.49952 L 100.500326 39.500431 L 85.000496 37.49952 L 69.000439 37.999748 L 53.000382 46.000293 L 37.000326 56.49991 " transform="matrix(3.779528,0,0,3.779528,0,0)"/>
<path style="fill:none;stroke-width:2;stroke-linecap:butt;stroke-linejoin:miter;stroke:rgb(0%,0%,0%);stroke-opacity:1;stroke-miterlimit:4;" d="M 42.999959 67.999984 L 46.999715 57.500366 L 71.000317 48.999593 L 60.999894 64.99965 L 55.00026 64.99965 L 42.499731 76.999951 L 42.999959 93.000008 L 46.999715 109.000065 L 51.000505 113.500049 L 53.000382 107.500415 L 69.000439 109.999487 L 85.000496 111.500171 " transform="matrix(3.779528,0,0,3.779528,0,0)"/>
<path style="fill:none;stroke-width:2;stroke-linecap:butt;stroke-linejoin:miter;stroke:rgb(0%,0%,0%);stroke-opacity:1;stroke-miterlimit:4;" d="M 51.499699 118.000033 L 66.999528 119.99991 L 82.999585 121.499561 L 130.499528 121.499561 L 162.499642 117.499805 " transform="matrix(3.779528,0,0,3.779528,0,0)"/>
<path style="fill:none;stroke-width:2;stroke-linecap:butt;stroke-linejoin:miter;stroke:rgb(0%,0%,0%);stroke-opacity:1;stroke-miterlimit:4;" d="M 140.499951 110.499715 L 124.499894 112.999821 " transform="matrix(3.779528,0,0,3.779528,0,0)"/>
<path style="fill:none;stroke-width:2;stroke-linecap:butt;stroke-linejoin:miter;stroke:rgb(0%,0%,0%);stroke-opacity:1;stroke-miterlimit:4;" d="M 160.999992 112.000399 L 128.999878 116.000155 L 112.999821 117.499805 L 96.999764 117.499805 L 80.999707 115.499927 L 65.499878 116.000155 L 50.000049 112.000399 " transform="matrix(3.779528,0,0,3.779528,0,0)"/>
<path style="fill:none;stroke-width:2;stroke-linecap:butt;stroke-linejoin:miter;stroke:rgb(0%,0%,0%);stroke-opacity:1;stroke-miterlimit:4;" d="M 46.000293 120.500138 L 62.00035 123.999666 L 77.500179 126.499772 L 142.499829 126.499772 L 158.499886 121.999788 L 174.499943 119.99991 " transform="matrix(3.779528,0,0,3.779528,0,0)"/>
<path style="fill:none;stroke-width:2;stroke-linecap:butt;stroke-linejoin:miter;stroke:rgb(0%,0%,0%);stroke-opacity:1;stroke-miterlimit:4;" d="M 171.999837 109.000065 L 155.99978 106.499959 L 139.999723 105.999731 L 123.500472 107.500415 L 107.500415 109.500293 L 91.500358 107.500415 L 75.500301 105.000309 L 59.500244 103.000431 L 43.500187 103.000431 " transform="matrix(3.779528,0,0,3.779528,0,0)"/>
<path style="fill:none;stroke-width:2;stroke-linecap:butt;stroke-linejoin:miter;stroke:rgb(0%,0%,0%);stroke-opacity:1;stroke-miterlimit:4;" d="M 42.999959 103.499626 L 59.000016 99.49987 L 75.000073 99.49987 L 90.499902 101.499748 L 105.999731 103.000431 L 121.999788 100.99952 L 137.999845 100.99952 L 169.999959 101.999976 L 178.000505 106.499959 " transform="matrix(3.779528,0,0,3.779528,0,0)"/>
<path style="fill:none;stroke-width:2;stroke-linecap:butt;stroke-linejoin:miter;stroke:rgb(0%,0%,0%);stroke-opacity:1;stroke-miterlimit:4;" d="M 161.50022 96.999764 L 137.000423 80.999707 L 110.999943 74.499845 L 94.999886 74.499845 L 79.500057 71.99974 L 63.5 73.500423 L 49.499821 83.499813 L 43.500187 87.499569 " transform="matrix(3.779528,0,0,3.779528,0,0)"/>
<path style="fill:none;stroke-width:2;stroke-linecap:butt;stroke-linejoin:miter;stroke:rgb(0%,0%,0%);stroke-opacity:1;stroke-miterlimit:4;" d="M 38.499976 116.500382 L 41.000081 132.500439 L 41.000081 164.000326 L 42.999959 180.000382 L 42.999959 195.500212 L 44.999837 213.500146 L 51.000505 214.999797 L 53.499577 230.999854 L 65.499878 230.999854 L 81.499935 237.499715 " transform="matrix(3.779528,0,0,3.779528,0,0)"/>
<path style="fill:none;stroke-width:2;stroke-linecap:butt;stroke-linejoin:miter;stroke:rgb(0%,0%,0%);stroke-opacity:1;stroke-miterlimit:4;" d="M 65.499878 234.999609 L 63.5 218.500358 L 45.500065 205.999829 " transform="matrix(3.779528,0,0,3.779528,0,0)"/>
<path style="fill:none;stroke-width:2;stroke-linecap:butt;stroke-linejoin:miter;stroke:rgb(0%,0%,0%);stroke-opacity:1;stroke-miterlimit:4;" d="M 46.499487 198.99974 L 62.00035 203.499723 L 78.000407 205.499601 L 94.000464 205.999829 L 110.499715 205.999829 L 126.499772 206.500057 L 142.499829 205.000407 L 173.499487 205.000407 L 179.500155 220.500236 L 175.500399 220.500236 L 167.499854 236.500293 " transform="matrix(3.779528,0,0,3.779528,0,0)"/>
<path style="fill:none;stroke-width:2;stroke-linecap:butt;stroke-linejoin:miter;stroke:rgb(0%,0%,0%);stroke-opacity:1;stroke-miterlimit:4;" d="M 179.500155 206.500057 L 163.500098 207.000285 L 148.000269 209.000163 L 132.000212 209.000163 L 116.500382 209.500391 L 100.500326 212.000496 L 84.500269 209.999585 " transform="matrix(3.779528,0,0,3.779528,0,0)"/>
<path style="fill:none;stroke-width:2;stroke-linecap:butt;stroke-linejoin:miter;stroke:rgb(0%,0%,0%);stroke-opacity:1;stroke-miterlimit:4;" d="M 84.000041 209.999585 L 87.999797 225.999642 L 91.999552 236.000065 L 107.999609 238.500171 L 123.999666 240.500049 L 139.999723 240.500049 L 155.499552 232.499504 " transform="matrix(3.779528,0,0,3.779528,0,0)"/>
<path style="fill:none;stroke-width:2;stroke-linecap:butt;stroke-linejoin:miter;stroke:rgb(0%,0%,0%);stroke-opacity:1;stroke-miterlimit:4;" d="M 171.999837 242.499927 L 168.000081 236.500293 L 152.500252 244.499805 L 136.500195 246.499683 L 120.500138 244.499805 L 104.500081 244.499805 L 88.500024 243.000155 L 73.000195 242.499927 L 60.499666 236.500293 L 44.499609 237.999943 L 42.499731 238.500171 L 40.499854 221.999886 L 39.999626 205.999829 L 37.999748 189.999772 L 37.999748 173.999715 L 38.499976 157.500464 L 36.500098 141.999601 L 36.500098 125.999544 L 35.99987 110.499715 L 35.99987 62.00035 L 51.999927 46.000293 L 59.500244 50.000049 L 69.499634 41.999504 " transform="matrix(3.779528,0,0,3.779528,0,0)"/>
<path style="fill:none;stroke-width:2;stroke-linecap:butt;stroke-linejoin:miter;stroke:rgb(0%,0%,0%);stroke-opacity:1;stroke-miterlimit:4;" d="M 173.000293 41.500309 L 168.999504 47.499943 L 187.499666 61.500122 L 181.500033 77.500179 L 184.000138 93.000008 L 184.000138 111.500171 L 182.00026 127.500228 L 182.00026 192.499878 L 166.000203 212.999919 L 157.500464 228.999976 " transform="matrix(3.779528,0,0,3.779528,0,0)"/>
<path style="fill:none;stroke-width:2;stroke-linecap:butt;stroke-linejoin:miter;stroke:rgb(0%,0%,0%);stroke-opacity:1;stroke-miterlimit:4;" d="M 84.000041 229.500203 L 76.499723 213.500146 " transform="matrix(3.779528,0,0,3.779528,0,0)"/>
<path style="fill:none;stroke-width:2;stroke-linecap:butt;stroke-linejoin:miter;stroke:rgb(0%,0%,0%);stroke-opacity:1;stroke-miterlimit:4;" d="M 71.499512 209.999585 L 55.500488 209.999585 " transform="matrix(3.779528,0,0,3.779528,0,0)"/>
<path style="fill:none;stroke-width:2;stroke-linecap:butt;stroke-linejoin:miter;stroke:rgb(0%,0%,0%);stroke-opacity:1;stroke-miterlimit:4;" d="M 60.499666 216.50048 L 56.49991 216.50048 L 58.499788 232.499504 " transform="matrix(3.779528,0,0,3.779528,0,0)"/>
<path style="fill:none;stroke-width:2;stroke-linecap:butt;stroke-linejoin:miter;stroke:rgb(0%,0%,0%);stroke-opacity:1;stroke-miterlimit:4;" d="M 425.999837 205.999829 L 441.499666 193.999528 L 461.000285 186.000016 L 462.499935 169.999959 L 463.999585 154.50013 L 463.500391 138.500073 L 461.500513 123.000244 L 461.500513 107.000187 L 459.499601 91.500358 L 455.499845 75.500301 L 445.500456 59.500244 " transform="matrix(3.779528,0,0,3.779528,0,0)"/>
<path style="fill:none;stroke-width:2;stroke-linecap:butt;stroke-linejoin:miter;stroke:rgb(0%,0%,0%);stroke-opacity:1;stroke-miterlimit:4;" d="M 450.000439 55.00026 L 459.999829 71.499512 L 466.000496 87.499569 L 466.000496 103.499626 " transform="matrix(3.779528,0,0,3.779528,0,0)"/>
<path style="fill:none;stroke-width:2;stroke-linecap:butt;stroke-linejoin:miter;stroke:rgb(0%,0%,0%);stroke-opacity:1;stroke-miterlimit:4;" d="M 461.999707 55.500488 L 472.00013 71.499512 L 474.000008 87.999797 L 475.999886 103.999854 L 474.000008 119.499683 L 472.500358 135.49974 L 472.00013 151.499797 L 472.00013 183.49991 L 466.499691 195.500212 L 445.000228 211.500269 L 416.499642 216.000252 L 429.000171 209.999585 L 432.999927 187.999894 " transform="matrix(3.779528,0,0,3.779528,0,0)"/>
</g>
</svg>
