<?xml version="1.0" encoding="UTF-8"?>
<svg xmlns="http://www.w3.org/2000/svg" xmlns:xlink="http://www.w3.org/1999/xlink" width="1935.11811" height="1935.11811" viewBox="0 0 1935.11811 1935.11811" version="1.1">
<g id="surface1">
<path style="fill:none;stroke-width:2;stroke-linecap:butt;stroke-linejoin:miter;stroke:rgb(0%,0%,0%);stroke-opacity:1;stroke-miterlimit:4;" d="M 3.499528 2.500106 L 3.499528 18.500163 " transform="matrix(3.779528,0,0,3.779528,0,0)"/>
<path style="fill:none;stroke-width:2;stroke-linecap:butt;stroke-linejoin:miter;stroke:rgb(0%,0%,0%);stroke-opacity:1;stroke-miterlimit:4;" d="M 89.999674 94.000464 L 105.999731 66.000106 L 121.999788 53.999805 L 137.999845 48.500399 L 153.999902 44.499609 L 169.999959 40.499854 L 185.499788 36.500098 L 200.999618 34.50022 L 216.999674 34.50022 L 233.499959 35.99987 L 249.500016 44.000415 " transform="matrix(3.779528,0,0,3.779528,0,0)"/>
<path style="fill:none;stroke-width:2;stroke-linecap:butt;stroke-linejoin:miter;stroke:rgb(0%,0%,0%);stroke-opacity:1;stroke-miterlimit:4;" d="M 247.500138 42.999959 L 261.500317 59.000016 L 279.500252 93.000008 L 279.500252 113.500049 L 280.00048 128.000456 L 287.999992 144.499707 L 293.999626 160.499764 L 302.000171 176.499821 L 305.999927 192.499878 L 314.499666 208.499935 L 320.999528 224.499992 L 327.000195 240.500049 L 332.499601 256.500106 L 338.500269 272.500163 L 350.499536 304.500277 L 358.500081 320.000106 L 363.999487 336.000163 L 372.000033 352.00022 L 332.000407 368.000277 L 292.499976 384.000334 L 252.50035 400.000391 " transform="matrix(3.779528,0,0,3.779528,0,0)"/>
<path style="fill:none;stroke-width:2;stroke-linecap:butt;stroke-linejoin:miter;stroke:rgb(0%,0%,0%);stroke-opacity:1;stroke-miterlimit:4;" d="M 228.999976 381.500228 L 245.000033 403.499919 L 260.499862 398.000513 L 276.499919 389.999967 L 292.499976 384.000334 L 308.500033 377.999666 L 323.999862 372.000033 L 339.999919 366.499593 L 355.999976 358.500081 " transform="matrix(3.779528,0,0,3.779528,0,0)"/>
<path style="fill:none;stroke-width:2;stroke-linecap:butt;stroke-linejoin:miter;stroke:rgb(0%,0%,0%);stroke-opacity:1;stroke-miterlimit:4;" d="M 383.500106 345.999552 L 375.499561 329.500301 L 359.499504 293.500431 L 343.50048 253.499772 " transform="matrix(3.779528,0,0,3.779528,0,0)"/>
<path style="fill:none;stroke-width:2;stroke-linecap:butt;stroke-linejoin:miter;stroke:rgb(0%,0%,0%);stroke-opacity:1;stroke-miterlimit:4;" d="M 343.000252 268.999601 L 339.000496 234.999609 L 325.000317 219.49978 L 320.999528 189.999772 " transform="matrix(3.779528,0,0,3.779528,0,0)"/>
<path style="fill:none;stroke-width:2;stroke-linecap:butt;stroke-linejoin:miter;stroke:rgb(0%,0%,0%);stroke-opacity:1;stroke-miterlimit:4;" d="M 302.500399 194.999984 L 296.499731 210.499813 L 288.50022 226.49987 L 274.500041 242.499927 " transform="matrix(3.779528,0,0,3.779528,0,0)"/>
<path style="fill:none;stroke-width:2;stroke-linecap:butt;stroke-linejoin:miter;stroke:rgb(0%,0%,0%);stroke-opacity:1;stroke-miterlimit:4;" d="M 244.499805 270.000057 L 228.999976 269.499829 " transform="matrix(3.779528,0,0,3.779528,0,0)"/>
<path style="fill:none;stroke-width:2;stroke-linecap:butt;stroke-linejoin:miter;stroke:rgb(0%,0%,0%);stroke-opacity:1;stroke-miterlimit:4;" d="M 228.999976 266.000301 L 245.000033 265.500073 " transform="matrix(3.779528,0,0,3.779528,0,0)"/>
<path style="fill:none;stroke-width:2;stroke-linecap:butt;stroke-linejoin:miter;stroke:rgb(0%,0%,0%);stroke-opacity:1;stroke-miterlimit:4;" d="M 266.000301 236.000065 L 250.000244 239.999821 L 234.000187 234.500415 L 218.00013 226.49987 " transform="matrix(3.779528,0,0,3.779528,0,0)"/>
<path style="fill:none;stroke-width:2;stroke-linecap:butt;stroke-linejoin:miter;stroke:rgb(0%,0%,0%);stroke-opacity:1;stroke-miterlimit:4;" d="M 216.999674 222.500114 L 232.999731 228.499748 L 248.499561 234.500415 L 264.499618 232.499504 L 280.499674 214.499569 " transform="matrix(3.779528,0,0,3.779528,0,0)"/>
<path style="fill:none;stroke-width:2;stroke-linecap:butt;stroke-linejoin:miter;stroke:rgb(0%,0%,0%);stroke-opacity:1;stroke-miterlimit:4;" d="M 289.499642 178.999927 L 277.500374 195.500212 L 273.499585 214.000374 L 257.000334 230.499626 L 241.000277 224.499992 L 225.00022 216.50048 L 208.499935 214.499569 " transform="matrix(3.779528,0,0,3.779528,0,0)"/>
<path style="fill:none;stroke-width:2;stroke-linecap:butt;stroke-linejoin:miter;stroke:rgb(0%,0%,0%);stroke-opacity:1;stroke-miterlimit:4;" d="M 209.999585 214.000374 L 207.500513 230.000431 L 230.000431 246.499683 " transform="matrix(3.779528,0,0,3.779528,0,0)"/>
<path style="fill:none;stroke-width:2;stroke-linecap:butt;stroke-linejoin:miter;stroke:rgb(0%,0%,0%);stroke-opacity:1;stroke-miterlimit:4;" d="M 239.499593 238.500171 L 215.500024 222.500114 " transform="matrix(3.779528,0,0,3.779528,0,0)"/>
<path style="fill:none;stroke-width:2;stroke-linecap:butt;stroke-linejoin:miter;stroke:rgb(0%,0%,0%);stroke-opacity:1;stroke-miterlimit:4;" d="M 207.500513 227.500326 L 223.499536 241.500505 L 239.999821 249.500016 L 255.999878 251.499894 L 271.999935 233.499959 L 287.999992 211.500269 L 298.000415 189.499544 L 291.999748 205.499601 L 282.000358 221.499658 L 269.499829 237.999943 " transform="matrix(3.779528,0,0,3.779528,0,0)"/>
<path style="fill:none;stroke-width:2;stroke-linecap:butt;stroke-linejoin:miter;stroke:rgb(0%,0%,0%);stroke-opacity:1;stroke-miterlimit:4;" d="M 300.999715 199.499967 L 284.999658 231.500081 L 268.999601 247.500138 L 252.999544 257.499528 L 236.999487 252.999544 L 221.000464 244.499805 L 204.500179 230.499626 " transform="matrix(3.779528,0,0,3.779528,0,0)"/>
<path style="fill:none;stroke-width:2;stroke-linecap:butt;stroke-linejoin:miter;stroke:rgb(0%,0%,0%);stroke-opacity:1;stroke-miterlimit:4;" d="M 202.000073 215.500024 L 218.500358 207.500513 L 234.500415 213.500146 L 250.500472 221.999886 L 266.499495 209.999585 L 282.499552 178.000505 L 298.499609 182.00026 L 284.500464 198.000317 L 273.999813 213.500146 L 265.500073 229.500203 " transform="matrix(3.779528,0,0,3.779528,0,0)"/>
<path style="fill:none;stroke-width:2;stroke-linecap:butt;stroke-linejoin:miter;stroke:rgb(0%,0%,0%);stroke-opacity:1;stroke-miterlimit:4;" d="M 276.499919 220.000008 L 288.50022 204.500179 L 292.499976 188.500122 L 290.500098 148.000269 L 274.500041 112.000399 L 259.000212 114.000277 L 243.000155 116.000155 L 226.49987 119.99991 L 210.499813 123.500472 L 193.999528 125.50035 L 177.500277 129.500106 L 160.999992 131.499984 L 144.999935 135.999967 " transform="matrix(3.779528,0,0,3.779528,0,0)"/>
<path style="fill:none;stroke-width:2;stroke-linecap:butt;stroke-linejoin:miter;stroke:rgb(0%,0%,0%);stroke-opacity:1;stroke-miterlimit:4;" d="M 148.000269 133.499862 L 150.000146 149.499919 L 155.99978 166.000203 L 162.000448 182.00026 L 166.000203 197.50009 L 172.500065 213.500146 L 178.000505 229.500203 L 182.00026 245.50026 L 187.999894 261.500317 L 200.999618 293.500431 L 204.500179 309.999683 L 211.000041 325.99974 L 214.999797 341.999797 L 221.000464 357.999854 L 225.00022 373.99991 L 230.999854 390.500195 L 234.500415 406.500252 " transform="matrix(3.779528,0,0,3.779528,0,0)"/>
<path style="fill:none;stroke-width:2;stroke-linecap:butt;stroke-linejoin:miter;stroke:rgb(0%,0%,0%);stroke-opacity:1;stroke-miterlimit:4;" d="M 206.500057 414.499764 L 212.999919 430.499821 L 218.999552 442.500122 L 225.00022 457.999951 " transform="matrix(3.779528,0,0,3.779528,0,0)"/>
<path style="fill:none;stroke-width:2;stroke-linecap:butt;stroke-linejoin:miter;stroke:rgb(0%,0%,0%);stroke-opacity:1;stroke-miterlimit:4;" d="M 232.999731 462.499935 L 216.999674 444.5 " transform="matrix(3.779528,0,0,3.779528,0,0)"/>
<path style="fill:none;stroke-width:2;stroke-linecap:butt;stroke-linejoin:miter;stroke:rgb(0%,0%,0%);stroke-opacity:1;stroke-miterlimit:4;" d="M 219.49978 444.5 L 235.499837 460.500057 " transform="matrix(3.779528,0,0,3.779528,0,0)"/>
<path style="fill:none;stroke-width:2;stroke-linecap:butt;stroke-linejoin:miter;stroke:rgb(0%,0%,0%);stroke-opacity:1;stroke-miterlimit:4;" d="M 245.50026 470.999674 L 230.000431 466.999919 L 214.000374 450.499634 " transform="matrix(3.779528,0,0,3.779528,0,0)"/>
<path style="fill:none;stroke-width:2;stroke-linecap:butt;stroke-linejoin:miter;stroke:rgb(0%,0%,0%);stroke-opacity:1;stroke-miterlimit:4;" d="M 291.999748 413.999536 L 298.000415 389.999967 L 299.500065 388.00009 L 291.000326 403.499919 L 294.499854 419.499976 L 298.499609 425.999837 L 314.000472 431.500277 L 329.999495 421.499854 " transform="matrix(3.779528,0,0,3.779528,0,0)"/>
<path style="fill:none;stroke-width:2;stroke-linecap:butt;stroke-linejoin:miter;stroke:rgb(0%,0%,0%);stroke-opacity:1;stroke-miterlimit:4;" d="M 332.000407 451.50009 L 348.000464 447.500334 " transform="matrix(3.779528,0,0,3.779528,0,0)"/>
<path style="fill:none;stroke-width:2;stroke-linecap:butt;stroke-linejoin:miter;stroke:rgb(0%,0%,0%);stroke-opacity:1;stroke-miterlimit:4;" d="M 336.999585 383.500106 L 320.999528 377.500472 " transform="matrix(3.779528,0,0,3.779528,0,0)"/>
<path style="fill:none;stroke-width:2;stroke-linecap:butt;stroke-linejoin:miter;stroke:rgb(0%,0%,0%);stroke-opacity:1;stroke-miterlimit:4;" d="M 314.999894 389.999967 L 330.999951 395.999601 L 339.000496 401.500041 L 334.500513 417.500098 " transform="matrix(3.779528,0,0,3.779528,0,0)"/>
<path style="fill:none;stroke-width:2;stroke-linecap:butt;stroke-linejoin:miter;stroke:rgb(0%,0%,0%);stroke-opacity:1;stroke-miterlimit:4;" d="M 337.499813 431.500277 L 329.500301 431.500277 L 314.000472 437.49991 L 323.999862 419.499976 L 334.500513 403.499919 L 329.000073 387.499862 L 327.000195 386.000212 L 311.000138 388.00009 L 295.000081 404.500374 " transform="matrix(3.779528,0,0,3.779528,0,0)"/>
<path style="fill:none;stroke-width:2;stroke-linecap:butt;stroke-linejoin:miter;stroke:rgb(0%,0%,0%);stroke-opacity:1;stroke-miterlimit:4;" d="M 307.000382 386.500439 L 295.000081 402.500496 L 298.999837 422.000081 L 305.000505 425.499609 L 320.999528 421.499854 " transform="matrix(3.779528,0,0,3.779528,0,0)"/>
<path style="fill:none;stroke-width:2;stroke-linecap:butt;stroke-linejoin:miter;stroke:rgb(0%,0%,0%);stroke-opacity:1;stroke-miterlimit:4;" d="M 509.000456 496.499927 L 509.000456 464.499813 L 508.500228 447.999528 L 508.500228 432.000505 L 508 416.000448 L 508 399.500163 L 507.499772 383.500106 L 507.499772 367.500049 L 506.999544 351.499992 L 506.50035 335.499935 L 506.50035 303.499821 L 506.999544 287.999992 L 504.999666 272.500163 L 505.499894 256.500106 L 507.499772 240.500049 L 508 225.00022 L 508 209.000163 L 508.500228 193.000106 L 508 177.000049 L 508 112.499593 L 506.000122 96.000342 L 505.499894 79.500057 L 505.499894 47.499943 L 507.499772 30.999658 L 507.499772 3.000334 " transform="matrix(3.779528,0,0,3.779528,0,0)"/>
<path style="fill:none;stroke-width:2;stroke-linecap:butt;stroke-linejoin:miter;stroke:rgb(0%,0%,0%);stroke-opacity:1;stroke-miterlimit:4;" d="M 295.999504 138.500073 L 303.499821 153.999902 L 309.500488 169.499731 L 313.500244 177.500277 L 311.999561 189.999772 L 318.000228 205.999829 L 323.999862 221.999886 L 329.999495 239.999821 L 344.499902 254 L 350.499536 269.499829 L 357.000431 285.499886 L 363.000065 301.499943 L 370.500382 318.000228 L 376.500016 334.000285 L 384.499528 350.000342 " transform="matrix(3.779528,0,0,3.779528,0,0)"/>
<path style="fill:none;stroke-width:2;stroke-linecap:butt;stroke-linejoin:miter;stroke:rgb(0%,0%,0%);stroke-opacity:1;stroke-miterlimit:4;" d="M 314.000472 456.500301 L 332.000407 430.499821 L 357.499626 430.499821 L 379.50035 414.499764 L 381.500228 406.500252 L 395.000179 388.500317 L 388.500317 372.50026 L 376.500016 357.000431 L 366.499593 330.999951 L 357.000431 311.000138 L 351.499992 294.499854 L 345.500358 277.999569 L 338.000041 259.999634 L 340.500146 241.500505 L 334.999707 225.999642 L 329.500301 209.999585 L 321.499756 193.999528 L 313.500244 171.999837 " transform="matrix(3.779528,0,0,3.779528,0,0)"/>
<path style="fill:none;stroke-width:2;stroke-linecap:butt;stroke-linejoin:miter;stroke:rgb(0%,0%,0%);stroke-opacity:1;stroke-miterlimit:4;" d="M 285.499886 175.500399 L 275.500496 191.500456 L 267.499951 207.500513 L 259.500439 223.000342 " transform="matrix(3.779528,0,0,3.779528,0,0)"/>
<path style="fill:none;stroke-width:2;stroke-linecap:butt;stroke-linejoin:miter;stroke:rgb(0%,0%,0%);stroke-opacity:1;stroke-miterlimit:4;" d="M 248.999788 228.499748 L 214.999797 212.499691 " transform="matrix(3.779528,0,0,3.779528,0,0)"/>
<path style="fill:none;stroke-width:2;stroke-linecap:butt;stroke-linejoin:miter;stroke:rgb(0%,0%,0%);stroke-opacity:1;stroke-miterlimit:4;" d="M 211.000041 209.000163 L 202.500301 225.00022 L 211.000041 241.000277 L 238.500171 257.000334 " transform="matrix(3.779528,0,0,3.779528,0,0)"/>
<path style="fill:none;stroke-width:2;stroke-linecap:butt;stroke-linejoin:miter;stroke:rgb(0%,0%,0%);stroke-opacity:1;stroke-miterlimit:4;" d="M 163.500098 185.499788 L 147.500041 143.500285 " transform="matrix(3.779528,0,0,3.779528,0,0)"/>
<path style="fill:none;stroke-width:2;stroke-linecap:butt;stroke-linejoin:miter;stroke:rgb(0%,0%,0%);stroke-opacity:1;stroke-miterlimit:4;" d="M 186.500244 110.999943 L 202.500301 111.500171 L 227.99952 111.500171 L 243.999577 109.500293 L 261.999512 105.999731 L 277.999569 103.999854 L 295.500309 132.000212 L 305.499699 169.499731 L 311.500366 189.499544 L 320.999528 227.500326 L 336.999585 269.499829 L 352.999642 309.500488 L 364.999943 338.000041 L 381.500228 358.500081 " transform="matrix(3.779528,0,0,3.779528,0,0)"/>
<path style="fill:none;stroke-width:2;stroke-linecap:butt;stroke-linejoin:miter;stroke:rgb(0%,0%,0%);stroke-opacity:1;stroke-miterlimit:4;" d="M 193.500334 98.00022 L 193.500334 89.50048 L 193.500334 93.500236 L 187.499666 76.999951 L 185.499788 78.999829 " transform="matrix(3.779528,0,0,3.779528,0,0)"/>
<path style="fill:none;stroke-width:2;stroke-linecap:butt;stroke-linejoin:miter;stroke:rgb(0%,0%,0%);stroke-opacity:1;stroke-miterlimit:4;" d="M 180.499577 77.500179 L 196.499634 73.500423 L 203.499723 81.499935 L 205.999829 97.499992 " transform="matrix(3.779528,0,0,3.779528,0,0)"/>
<path style="fill:none;stroke-width:2;stroke-linecap:butt;stroke-linejoin:miter;stroke:rgb(0%,0%,0%);stroke-opacity:1;stroke-miterlimit:4;" d="M 186.000016 71.499512 L 184.000138 87.499569 L 181.500033 107.500415 L 197.50009 105.499504 L 211.500269 99.49987 L 227.99952 98.00022 L 243.999577 93.500236 L 259.999634 91.500358 " transform="matrix(3.779528,0,0,3.779528,0,0)"/>
<path style="fill:none;stroke-width:2;stroke-linecap:butt;stroke-linejoin:miter;stroke:rgb(0%,0%,0%);stroke-opacity:1;stroke-miterlimit:4;" d="M 243.500382 53.999805 L 227.500326 50.000049 L 212.000496 50.000049 L 195.500212 51.999927 L 167.499854 60.499666 L 151.499797 66.500334 L 149.499919 58.499788 L 133.499862 64.500456 " transform="matrix(3.779528,0,0,3.779528,0,0)"/>
<path style="fill:none;stroke-width:2;stroke-linecap:butt;stroke-linejoin:miter;stroke:rgb(0%,0%,0%);stroke-opacity:1;stroke-miterlimit:4;" d="M 130.000334 57.000138 L 146.000391 55.00026 L 161.50022 51.000505 L 177.500277 46.999715 L 209.500391 39.000203 L 225.00022 42.499731 L 225.00022 46.499487 " transform="matrix(3.779528,0,0,3.779528,0,0)"/>
<path style="fill:none;stroke-width:2;stroke-linecap:butt;stroke-linejoin:miter;stroke:rgb(0%,0%,0%);stroke-opacity:1;stroke-miterlimit:4;" d="M 236.999487 51.999927 L 263.500195 67.999984 L 271.000513 83.499813 L 273.499585 97.499992 L 291.49952 121.499561 L 291.999748 137.499618 L 295.999504 153.499674 L 306.500155 169.999959 L 284.500464 186.000016 L 277.000146 202.500301 L 268.999601 218.500358 L 264.999845 238.500171 " transform="matrix(3.779528,0,0,3.779528,0,0)"/>
<path style="fill:none;stroke-width:2;stroke-linecap:butt;stroke-linejoin:miter;stroke:rgb(0%,0%,0%);stroke-opacity:1;stroke-miterlimit:4;" d="M 122.500016 168.500309 L 106.499959 140.499951 L 106.499959 110.499715 " transform="matrix(3.779528,0,0,3.779528,0,0)"/>
<path style="fill:none;stroke-width:2;stroke-linecap:butt;stroke-linejoin:miter;stroke:rgb(0%,0%,0%);stroke-opacity:1;stroke-miterlimit:4;" d="M 94.499658 111.500171 L 109.999487 137.499618 L 125.999544 161.50022 L 125.999544 193.000106 " transform="matrix(3.779528,0,0,3.779528,0,0)"/>
<path style="fill:none;stroke-width:2;stroke-linecap:butt;stroke-linejoin:miter;stroke:rgb(0%,0%,0%);stroke-opacity:1;stroke-miterlimit:4;" d="M 105.000309 84.500269 L 120.500138 74.499845 L 118.50026 64.000228 L 102.500203 80.000285 L 101.999976 92.49978 L 103.999854 108.499837 L 112.000399 123.999666 L 118.000033 139.499495 L 123.500472 155.000358 L 129.500106 170.500187 L 133.499862 186.000016 L 139.499495 202.500301 L 141.500407 216.999674 L 147.500041 237.499715 L 162.99987 284.000236 L 178.999927 334.500513 L 194.999984 382.999878 L 209.000163 438.999561 L 224.499992 448.999984 L 240.500049 463.000163 L 255.999878 470.999674 L 272.500163 466.499691 L 298.999837 465.000041 L 314.999894 456.999495 L 331.500179 448.999984 L 348.000464 441.499666 L 366.499593 431.000049 L 382.49965 420.999626 L 398.999935 390.500195 L 395.000179 406.000024 L 379.000122 421.499854 L 353.49987 437.49991 L 316.999772 449.500212 " transform="matrix(3.779528,0,0,3.779528,0,0)"/>
<path style="fill:none;stroke-width:2;stroke-linecap:butt;stroke-linejoin:miter;stroke:rgb(0%,0%,0%);stroke-opacity:1;stroke-miterlimit:4;" d="M 382.999878 406.000024 L 368.999699 423.999959 L 350.999764 434.000382 L 334.999707 441.999894 L 318.99965 450.000439 L 302.999593 457.999951 L 286.999536 472.00013 L 271.000513 475.999886 L 262.999967 474.000008 L 246.99991 475.999886 L 230.499626 468.000374 L 214.499569 451.50009 L 208.499935 436.00026 L 203.999951 420.000203 L 201.499845 404.000146 L 197.50009 388.500317 L 191.500456 372.50026 L 185.499788 356.500203 L 181.500033 340.500146 L 175.500399 324.50009 L 171.499609 309.00026 L 166.000203 293.000203 L 160.499764 277.000146 L 156.500008 260.499862 L 150.500374 243.999577 L 141.999601 227.99952 L 134.00009 211.500269 L 125.999544 195.500212 L 120.500138 178.999927 L 114.500505 163.500098 L 108.499837 148.000269 L 102.500203 132.000212 L 94.999886 116.500382 L 92.49978 100.500326 L 94.499658 84.500269 L 104.500081 68.500212 L 126.499772 52.500155 L 118.50026 64.500456 L 102.500203 80.500513 " transform="matrix(3.779528,0,0,3.779528,0,0)"/>
<path style="fill:none;stroke-width:2;stroke-linecap:butt;stroke-linejoin:miter;stroke:rgb(0%,0%,0%);stroke-opacity:1;stroke-miterlimit:4;" d="M 98.00022 85.000496 L 96.000342 101.499748 L 107.999609 133.499862 L 114.000277 149.499919 L 125.999544 181.500033 L 132.500439 197.50009 " transform="matrix(3.779528,0,0,3.779528,0,0)"/>
<path style="fill:none;stroke-width:2;stroke-linecap:butt;stroke-linejoin:miter;stroke:rgb(0%,0%,0%);stroke-opacity:1;stroke-miterlimit:4;" d="M 282.000358 97.499992 L 277.999569 87.499569 L 261.999512 71.000317 L 257.499528 61.500122 L 255.49965 53.499577 L 252.999544 53.499577 L 236.999487 37.49952 " transform="matrix(3.779528,0,0,3.779528,0,0)"/>
</g>
</svg>
