<?xml version="1.0" encoding="UTF-8"?>
<svg xmlns="http://www.w3.org/2000/svg" xmlns:xlink="http://www.w3.org/1999/xlink" width="1935.11811" height="1935.11811" viewBox="0 0 1935.11811 1935.11811" version="1.1">
<g id="surface1">
<path style="fill:none;stroke-width:2;stroke-linecap:butt;stroke-linejoin:miter;stroke:rgb(0%,0%,0%);stroke-opacity:1;stroke-miterlimit:4;" d="M 17.499707 50.500277 L 17.499707 82.500391 L 23.500374 100.500326 L 25.500252 116.999577 L 25.500252 164.999748 L 26.999902 180.999805 L 26.999902 196.499634 L 28.499552 212.499691 L 28.99978 228.499748 L 28.99978 244.499805 L 30.999658 260.499862 L 31.499886 275.999691 L 33.499764 291.49952 L 33.499764 307.000382 L 37.49952 339.000496 L 41.500309 356.500203 L 48.000171 372.50026 " transform="matrix(3.779528,0,0,3.779528,0,0)"/>
<path style="fill:none;stroke-width:2;stroke-linecap:butt;stroke-linejoin:miter;stroke:rgb(0%,0%,0%);stroke-opacity:1;stroke-miterlimit:4;" d="M 45.500065 368.000277 L 61.500122 382.000456 L 77.500179 384.499528 L 93.500236 382.49965 L 109.999487 381 L 125.999544 381 L 141.999601 381.500228 L 157.999658 381.500228 L 173.999715 381 L 189.999772 379.000122 L 205.999829 380.499772 L 221.999886 381 L 237.499715 382.999878 L 253.499772 382.999878 L 270.000057 382.49965 L 286.000114 382.000456 L 316.999772 382.000456 L 332.999829 379.999544 L 349.500114 382.000456 L 365.500171 379.999544 L 381.500228 377.999666 L 397.500285 366.499593 " transform="matrix(3.779528,0,0,3.779528,0,0)"/>
<path style="fill:none;stroke-width:2;stroke-linecap:butt;stroke-linejoin:miter;stroke:rgb(0%,0%,0%);stroke-opacity:1;stroke-miterlimit:4;" d="M 420.500431 371.499805 L 404.500374 387.499862 L 381 407.999902 L 364.999943 410.500008 L 348.999886 412.499886 L 333.500057 414.499764 L 317.5 414.499764 L 301.499943 416.499642 L 284.999658 424.500187 L 268.999601 424.500187 L 262.999967 428.499943 " transform="matrix(3.779528,0,0,3.779528,0,0)"/>
<path style="fill:none;stroke-width:2;stroke-linecap:butt;stroke-linejoin:miter;stroke:rgb(0%,0%,0%);stroke-opacity:1;stroke-miterlimit:4;" d="M 282.499552 434.999805 L 276.499919 452.99974 L 286.500342 456.999495 L 302.500399 457.499723 L 313.000016 456.999495 L 329.000073 450.999862 L 341.000374 434.999805 " transform="matrix(3.779528,0,0,3.779528,0,0)"/>
<path style="fill:none;stroke-width:2;stroke-linecap:butt;stroke-linejoin:miter;stroke:rgb(0%,0%,0%);stroke-opacity:1;stroke-miterlimit:4;" d="M 334.000285 434.999805 L 327.999618 450.999862 L 305.499699 477.000342 L 281.50013 486.999731 L 269.499829 490.999487 L 285.499886 477.000342 L 291.000326 466.499691 L 307.000382 464.499813 L 323.499634 459.999829 L 339.499691 456.000073 L 349.500114 468.000374 L 357.000431 461.999707 L 364.999943 469.500024 L 375.000366 461.500513 L 391.000423 451.50009 L 394.499951 449.500212 " transform="matrix(3.779528,0,0,3.779528,0,0)"/>
<path style="fill:none;stroke-width:2;stroke-linecap:butt;stroke-linejoin:miter;stroke:rgb(0%,0%,0%);stroke-opacity:1;stroke-miterlimit:4;" d="M 389.49974 456.999495 L 379.50035 472.999552 " transform="matrix(3.779528,0,0,3.779528,0,0)"/>
<path style="fill:none;stroke-width:2;stroke-linecap:butt;stroke-linejoin:miter;stroke:rgb(0%,0%,0%);stroke-opacity:1;stroke-miterlimit:4;" d="M 356.500203 451.50009 L 320.500334 469.500024 L 321.499756 475.499658 L 325.99974 467.500146 L 341.999797 459.499601 L 357.999854 452.000317 L 373.99991 443.999772 L 394.499951 419.499976 L 410.500008 419.499976 " transform="matrix(3.779528,0,0,3.779528,0,0)"/>
<path style="fill:none;stroke-width:2;stroke-linecap:butt;stroke-linejoin:miter;stroke:rgb(0%,0%,0%);stroke-opacity:1;stroke-miterlimit:4;" d="M 414.499764 428.499943 L 386.500439 434.499577 L 402.500496 430.499821 L 418.49952 428.499943 " transform="matrix(3.779528,0,0,3.779528,0,0)"/>
<path style="fill:none;stroke-width:2;stroke-linecap:butt;stroke-linejoin:miter;stroke:rgb(0%,0%,0%);stroke-opacity:1;stroke-miterlimit:4;" d="M 418.999748 447.999528 L 386.999634 453.499967 L 359.499504 463.500391 L 368.000277 467.500146 L 372.50026 467.500146 L 386.500439 470.000252 L 402.999691 457.999951 L 418.999748 450.000439 L 434.499577 443.999772 " transform="matrix(3.779528,0,0,3.779528,0,0)"/>
<path style="fill:none;stroke-width:2;stroke-linecap:butt;stroke-linejoin:miter;stroke:rgb(0%,0%,0%);stroke-opacity:1;stroke-miterlimit:4;" d="M 425.499609 449.500212 L 409.499552 465.500269 L 434.000382 459.499601 L 450.000439 445.99965 " transform="matrix(3.779528,0,0,3.779528,0,0)"/>
<path style="fill:none;stroke-width:2;stroke-linecap:butt;stroke-linejoin:miter;stroke:rgb(0%,0%,0%);stroke-opacity:1;stroke-miterlimit:4;" d="M 454.500423 434.000382 L 438.000138 447.500334 L 416.000448 463.500391 L 418.49952 461.000285 L 436.999683 457.499723 L 454.999618 441.499666 L 462.499935 425.499609 L 454.500423 419.499976 L 438.500366 413.500342 L 422.500309 411.500464 L 407.00048 405.499797 L 391.000423 406.000024 L 375.000366 413.999536 L 359.000309 416.499642 L 342.500024 418.49952 L 326.499967 420.999626 L 309.999683 422.999504 L 293.999626 422.999504 " transform="matrix(3.779528,0,0,3.779528,0,0)"/>
<path style="fill:none;stroke-width:2;stroke-linecap:butt;stroke-linejoin:miter;stroke:rgb(0%,0%,0%);stroke-opacity:1;stroke-miterlimit:4;" d="M 268.000179 457.999951 L 252.000122 461.999707 L 232.000309 457.999951 L 216.000252 463.500391 L 200.000195 470.000252 L 227.99952 463.999585 L 246.499683 456.500301 L 230.999854 465.000041 L 214.999797 470.999674 L 198.99974 477.000342 " transform="matrix(3.779528,0,0,3.779528,0,0)"/>
<path style="fill:none;stroke-width:2;stroke-linecap:butt;stroke-linejoin:miter;stroke:rgb(0%,0%,0%);stroke-opacity:1;stroke-miterlimit:4;" d="M 216.000252 491.499715 L 202.500301 507.499772 L 194.499756 509.49965 L 210.499813 495.999699 L 226.49987 493.999821 L 242.499927 490.000065 L 258.499984 484.000431 L 274.500041 475.999886 " transform="matrix(3.779528,0,0,3.779528,0,0)"/>
<path style="fill:none;stroke-width:2;stroke-linecap:butt;stroke-linejoin:miter;stroke:rgb(0%,0%,0%);stroke-opacity:1;stroke-miterlimit:4;" d="M 284.500464 470.999674 L 274.500041 487.499959 L 271.999935 495.500505 L 287.999992 479.500448 L 304.000049 477.999764 L 320.000106 466.000496 L 333.500057 481.99952 " transform="matrix(3.779528,0,0,3.779528,0,0)"/>
<path style="fill:none;stroke-width:2;stroke-linecap:butt;stroke-linejoin:miter;stroke:rgb(0%,0%,0%);stroke-opacity:1;stroke-miterlimit:4;" d="M 216.50048 390.500195 L 200.000195 392.500073 L 184.000138 390.500195 " transform="matrix(3.779528,0,0,3.779528,0,0)"/>
<path style="fill:none;stroke-width:2;stroke-linecap:butt;stroke-linejoin:miter;stroke:rgb(0%,0%,0%);stroke-opacity:1;stroke-miterlimit:4;" d="M 184.000138 391.999845 L 201.499845 400.000391 L 225.999642 390.500195 L 241.999699 390.500195 L 258.499984 388.00009 L 274.500041 387.499862 L 291.000326 388.00009 L 307.000382 386.000212 L 354.99952 386.000212 L 370.999577 385.499984 " transform="matrix(3.779528,0,0,3.779528,0,0)"/>
<path style="fill:none;stroke-width:2;stroke-linecap:butt;stroke-linejoin:miter;stroke:rgb(0%,0%,0%);stroke-opacity:1;stroke-miterlimit:4;" d="M 207.000285 356.500203 L 191.500456 356.500203 " transform="matrix(3.779528,0,0,3.779528,0,0)"/>
<path style="fill:none;stroke-width:2;stroke-linecap:butt;stroke-linejoin:miter;stroke:rgb(0%,0%,0%);stroke-opacity:1;stroke-miterlimit:4;" d="M 166.000203 350.999764 L 182.00026 350.999764 L 198.000317 351.499992 L 213.500146 351.499992 L 229.500203 352.00022 L 261.00009 352.00022 L 277.500374 352.500448 L 293.500431 352.500448 L 309.500488 354.500326 L 325.499512 354.99952 L 341.499569 354.500326 L 357.499626 354.99952 L 389.999967 354.99952 " transform="matrix(3.779528,0,0,3.779528,0,0)"/>
<path style="fill:none;stroke-width:2;stroke-linecap:butt;stroke-linejoin:miter;stroke:rgb(0%,0%,0%);stroke-opacity:1;stroke-miterlimit:4;" d="M 252.000122 212.999919 L 236.000065 232.999731 L 220.500236 221.499658 L 204.500179 209.999585 L 188.500122 193.999528 " transform="matrix(3.779528,0,0,3.779528,0,0)"/>
<path style="fill:none;stroke-width:2;stroke-linecap:butt;stroke-linejoin:miter;stroke:rgb(0%,0%,0%);stroke-opacity:1;stroke-miterlimit:4;" d="M 181.500033 182.00026 L 197.50009 196.000439 L 213.500146 212.000496 L 230.000431 223.499536 L 246.499683 213.500146 " transform="matrix(3.779528,0,0,3.779528,0,0)"/>
<path style="fill:none;stroke-width:2;stroke-linecap:butt;stroke-linejoin:miter;stroke:rgb(0%,0%,0%);stroke-opacity:1;stroke-miterlimit:4;" d="M 245.50026 215.500024 L 253.499772 199.499967 L 259.500439 183.49991 L 251.499894 166.999626 L 249.500016 163.500098 L 233.499959 166.000203 L 218.00013 164.000326 L 202.000073 154.50013 L 186.000016 171.999837 " transform="matrix(3.779528,0,0,3.779528,0,0)"/>
<path style="fill:none;stroke-width:2;stroke-linecap:butt;stroke-linejoin:miter;stroke:rgb(0%,0%,0%);stroke-opacity:1;stroke-miterlimit:4;" d="M 180.999805 172.500065 L 196.999862 148.500496 L 212.499691 150.999569 L 228.499748 164.999748 L 243.999577 155.499552 L 259.500439 165.499976 " transform="matrix(3.779528,0,0,3.779528,0,0)"/>
<path style="fill:none;stroke-width:2;stroke-linecap:butt;stroke-linejoin:miter;stroke:rgb(0%,0%,0%);stroke-opacity:1;stroke-miterlimit:4;" d="M 250.000244 157.500464 L 261.999512 173.499487 L 264.000423 189.999772 L 255.999878 205.999829 L 248.000366 221.499658 " transform="matrix(3.779528,0,0,3.779528,0,0)"/>
<path style="fill:none;stroke-width:2;stroke-linecap:butt;stroke-linejoin:miter;stroke:rgb(0%,0%,0%);stroke-opacity:1;stroke-miterlimit:4;" d="M 220.000008 217.499902 L 202.000073 201.499845 L 187.999894 185.499788 L 187.999894 169.499731 L 200.000195 153.00048 " transform="matrix(3.779528,0,0,3.779528,0,0)"/>
<path style="fill:none;stroke-width:2;stroke-linecap:butt;stroke-linejoin:miter;stroke:rgb(0%,0%,0%);stroke-opacity:1;stroke-miterlimit:4;" d="M 196.999862 148.000269 L 183.49991 164.000326 L 178.999927 179.500155 L 187.499666 195.500212 L 203.499723 211.500269 L 225.999642 227.500326 " transform="matrix(3.779528,0,0,3.779528,0,0)"/>
<path style="fill:none;stroke-width:2;stroke-linecap:butt;stroke-linejoin:miter;stroke:rgb(0%,0%,0%);stroke-opacity:1;stroke-miterlimit:4;" d="M 218.00013 165.499976 L 207.999707 149.499919 " transform="matrix(3.779528,0,0,3.779528,0,0)"/>
<path style="fill:none;stroke-width:2;stroke-linecap:butt;stroke-linejoin:miter;stroke:rgb(0%,0%,0%);stroke-opacity:1;stroke-miterlimit:4;" d="M 352.500448 93.500236 L 336.500391 89.50048 L 320.500334 87.499569 L 304.500277 82.999585 L 272.500163 75.000073 L 256.500106 73.500423 L 240.500049 69.499634 L 223.999764 64.99965 L 207.999707 60.999894 L 191.99965 57.500366 L 175.999593 53.499577 L 159.999536 51.499699 L 144.000513 46.999715 L 128.000456 43.500187 L 112.000399 39.500431 L 96.499536 35.99987 L 80.500513 31.499886 L 64.99965 29.500008 L 49.499821 26.00048 L 33.999992 21.999691 L 17.999935 21.999691 " transform="matrix(3.779528,0,0,3.779528,0,0)"/>
<path style="fill:none;stroke-width:2;stroke-linecap:butt;stroke-linejoin:miter;stroke:rgb(0%,0%,0%);stroke-opacity:1;stroke-miterlimit:4;" d="M 23.000146 24.499797 L 39.000203 28.000358 L 55.00026 32.000114 L 71.000317 35.499642 L 86.500146 39.500431 L 101.999976 43.500187 L 118.000033 45.500065 L 133.499862 49.499821 L 149.499919 53.499577 L 165.499976 57.999561 L 181.500033 62.00035 L 197.50009 65.499878 L 213.500146 67.499756 L 229.500203 71.499512 L 245.50026 75.500301 L 261.00009 79.500057 L 277.500374 83.499813 L 293.999626 85.000496 L 309.999683 89.50048 L 325.99974 93.500236 L 341.999797 98.00022 L 357.999854 100.000098 " transform="matrix(3.779528,0,0,3.779528,0,0)"/>
<path style="fill:none;stroke-width:2;stroke-linecap:butt;stroke-linejoin:miter;stroke:rgb(0%,0%,0%);stroke-opacity:1;stroke-miterlimit:4;" d="M 367.500049 86.500146 L 351.499992 78.499601 L 335.499935 74.499845 L 319.499878 71.000317 L 303.499821 69.000439 L 286.999536 64.99965 L 271.000513 60.999894 L 255.000456 57.000138 L 239.000399 55.00026 L 223.000342 51.000505 L 206.500057 47.499943 L 190.5 42.999959 L 158.499886 35.000448 L 142.499829 30.999658 L 126.499772 26.499674 L 110.499715 22.499919 L 94.999886 18.500163 L 78.999829 14.000179 L 64.99965 10.000423 L 57.000138 5.999634 L 41.000081 7.999512 L 24.499797 5.999634 L 8.999967 23.500374 " transform="matrix(3.779528,0,0,3.779528,0,0)"/>
<path style="fill:none;stroke-width:2;stroke-linecap:butt;stroke-linejoin:miter;stroke:rgb(0%,0%,0%);stroke-opacity:1;stroke-miterlimit:4;" d="M 1.49965 21.500496 L 7.500317 13.499951 L 16.000057 23.500374 L 19.999813 31.499886 L 21.999691 47.499943 L 21.999691 79.500057 L 23.999569 95.500114 L 19.999813 111.500171 L 19.499585 128.000456 L 15.499829 144.000513 L 15.499829 159.999536 L 13.499951 175.999593 L 5.999634 191.500456 L 4.499984 207.500513 L 4.499984 223.499536 " transform="matrix(3.779528,0,0,3.779528,0,0)"/>
<path style="fill:none;stroke-width:2;stroke-linecap:butt;stroke-linejoin:miter;stroke:rgb(0%,0%,0%);stroke-opacity:1;stroke-miterlimit:4;" d="M 5.999634 243.500382 L 7.999512 227.99952 L 10.000423 212.000496 L 12.000301 196.499634 L 5.999634 190.5 " transform="matrix(3.779528,0,0,3.779528,0,0)"/>
<path style="fill:none;stroke-width:2;stroke-linecap:butt;stroke-linejoin:miter;stroke:rgb(0%,0%,0%);stroke-opacity:1;stroke-miterlimit:4;" d="M 26.00048 254.500228 L 27.50013 270.000057 L 29.500008 285.499886 L 29.500008 301.499943 L 30.000236 318.000228 L 35.99987 366.000399 L 44.499609 382.000456 " transform="matrix(3.779528,0,0,3.779528,0,0)"/>
<path style="fill:none;stroke-width:2;stroke-linecap:butt;stroke-linejoin:miter;stroke:rgb(0%,0%,0%);stroke-opacity:1;stroke-miterlimit:4;" d="M 53.000382 387.499862 L 37.000326 363.999487 " transform="matrix(3.779528,0,0,3.779528,0,0)"/>
<path style="fill:none;stroke-width:2;stroke-linecap:butt;stroke-linejoin:miter;stroke:rgb(0%,0%,0%);stroke-opacity:1;stroke-miterlimit:4;" d="M 28.99978 372.000033 L 44.999837 391.999845 " transform="matrix(3.779528,0,0,3.779528,0,0)"/>
<path style="fill:none;stroke-width:2;stroke-linecap:butt;stroke-linejoin:miter;stroke:rgb(0%,0%,0%);stroke-opacity:1;stroke-miterlimit:4;" d="M 25.500252 404.000146 L 57.500366 400.000391 L 73.000195 398.000513 L 88.500024 395.500407 L 103.999854 395.999601 L 119.499683 393.999723 L 135.49974 392.500073 L 150.999569 393.000301 L 166.500431 391.000423 L 182.500488 388.999512 L 198.499512 388.500317 L 214.999797 386.500439 L 219.49978 402.500496 L 237.499715 418.49952 L 245.50026 428.499943 L 261.999512 436.500488 L 277.999569 440.500244 L 293.999626 438.500366 L 307.999805 429.000171 L 325.99974 429.000171 L 341.999797 428.499943 L 358.500081 425.999837 L 382.49965 441.999894 L 398.999935 435.500033 L 414.999992 433.500155 L 431.500277 429.500399 L 455.499845 427.499487 L 447.500334 441.499666 L 435.500033 451.50009 L 425.999837 470.000252 L 449.500212 457.499723 L 465.000041 441.999894 L 476.500114 429.999593 L 460.500057 446.499878 L 443.999772 462.499935 L 454.000195 461.000285 L 468.999797 445.000228 L 452.99974 461.000285 " transform="matrix(3.779528,0,0,3.779528,0,0)"/>
<path style="fill:none;stroke-width:2;stroke-linecap:butt;stroke-linejoin:miter;stroke:rgb(0%,0%,0%);stroke-opacity:1;stroke-miterlimit:4;" d="M 300.000293 434.000382 L 289.99987 418.49952 L 273.999813 418.49952 L 257.499528 420.999626 L 241.500505 420.500431 L 225.500448 418.49952 L 209.500391 409.99978 L 193.500334 400.999813 L 177.500277 393.000301 " transform="matrix(3.779528,0,0,3.779528,0,0)"/>
<path style="fill:none;stroke-width:2;stroke-linecap:butt;stroke-linejoin:miter;stroke:rgb(0%,0%,0%);stroke-opacity:1;stroke-miterlimit:4;" d="M 178.999927 388.500317 L 194.999984 404.500374 L 228.999976 420.000203 L 261.00009 436.00026 L 270.500285 450.000439 L 272.500163 445.500456 L 288.50022 447.500334 L 304.500277 441.999894 L 312.499788 434.000382 L 316.999772 445.99965 L 330.999951 432.000505 L 348.999886 443.999772 L 364.999943 433.500155 L 364.499715 437.49991 L 382.49965 447.999528 L 398.000513 445.99965 L 414.499764 443.999772 L 446.499878 436.00026 " transform="matrix(3.779528,0,0,3.779528,0,0)"/>
<path style="fill:none;stroke-width:2;stroke-linecap:butt;stroke-linejoin:miter;stroke:rgb(0%,0%,0%);stroke-opacity:1;stroke-miterlimit:4;" d="M 217.499902 450.499634 L 200.999618 441.999894 L 184.999561 435.500033 L 168.999504 427.499487 " transform="matrix(3.779528,0,0,3.779528,0,0)"/>
<path style="fill:none;stroke-width:2;stroke-linecap:butt;stroke-linejoin:miter;stroke:rgb(0%,0%,0%);stroke-opacity:1;stroke-miterlimit:4;" d="M 168.000081 423.999959 L 187.999894 440.000016 L 196.000439 445.99965 L 200.000195 450.499634 L 218.00013 440.500244 L 234.000187 438.500366 " transform="matrix(3.779528,0,0,3.779528,0,0)"/>
<path style="fill:none;stroke-width:2;stroke-linecap:butt;stroke-linejoin:miter;stroke:rgb(0%,0%,0%);stroke-opacity:1;stroke-miterlimit:4;" d="M 167.499854 423.999959 L 183.49991 427.999715 L 200.000195 434.000382 L 216.000252 429.999593 L 225.999642 448.499756 L 234.000187 450.499634 L 207.999707 466.499691 L 168.500309 475.999886 " transform="matrix(3.779528,0,0,3.779528,0,0)"/>
<path style="fill:none;stroke-width:2;stroke-linecap:butt;stroke-linejoin:miter;stroke:rgb(0%,0%,0%);stroke-opacity:1;stroke-miterlimit:4;" d="M 175.999593 495.999699 L 196.499634 474.000008 L 220.500236 452.000317 L 192.499878 461.999707 L 176.499821 470.000252 L 160.499764 474.500236 L 144.499707 474.500236 " transform="matrix(3.779528,0,0,3.779528,0,0)"/>
<path style="fill:none;stroke-width:2;stroke-linecap:butt;stroke-linejoin:miter;stroke:rgb(0%,0%,0%);stroke-opacity:1;stroke-miterlimit:4;" d="M 160.999992 452.499512 L 145.500163 443.999772 L 129.500106 436.00026 " transform="matrix(3.779528,0,0,3.779528,0,0)"/>
<path style="fill:none;stroke-width:2;stroke-linecap:butt;stroke-linejoin:miter;stroke:rgb(0%,0%,0%);stroke-opacity:1;stroke-miterlimit:4;" d="M 141.500407 436.500488 L 175.500399 452.499512 L 177.500277 468.499569 " transform="matrix(3.779528,0,0,3.779528,0,0)"/>
<path style="fill:none;stroke-width:2;stroke-linecap:butt;stroke-linejoin:miter;stroke:rgb(0%,0%,0%);stroke-opacity:1;stroke-miterlimit:4;" d="M 184.500366 441.499666 L 168.999504 447.500334 L 153.00048 439.499788 L 144.999935 443.499544 L 128.999878 436.00026 L 113.500049 432.000505 " transform="matrix(3.779528,0,0,3.779528,0,0)"/>
<path style="fill:none;stroke-width:2;stroke-linecap:butt;stroke-linejoin:miter;stroke:rgb(0%,0%,0%);stroke-opacity:1;stroke-miterlimit:4;" d="M 91.500358 440.000016 L 107.500415 442.500122 L 119.499683 445.000228 L 135.49974 451.50009 L 137.000423 456.000073 L 153.00048 454.500423 " transform="matrix(3.779528,0,0,3.779528,0,0)"/>
<path style="fill:none;stroke-width:2;stroke-linecap:butt;stroke-linejoin:miter;stroke:rgb(0%,0%,0%);stroke-opacity:1;stroke-miterlimit:4;" d="M 166.500431 466.000496 L 156.500008 470.50048 L 140.499951 470.50048 L 116.000155 462.499935 L 119.499683 454.500423 L 97.499992 452.499512 L 75.999495 436.00026 L 73.999618 432.499699 " transform="matrix(3.779528,0,0,3.779528,0,0)"/>
<path style="fill:none;stroke-width:2;stroke-linecap:butt;stroke-linejoin:miter;stroke:rgb(0%,0%,0%);stroke-opacity:1;stroke-miterlimit:4;" d="M 76.499723 434.999805 L 91.999552 437.49991 L 107.999609 437.49991 L 123.999666 440.000016 L 140.499951 434.000382 L 156.500008 432.499699 L 172.500065 436.999683 L 193.999528 434.999805 " transform="matrix(3.779528,0,0,3.779528,0,0)"/>
<path style="fill:none;stroke-width:2;stroke-linecap:butt;stroke-linejoin:miter;stroke:rgb(0%,0%,0%);stroke-opacity:1;stroke-miterlimit:4;" d="M 205.999829 452.499512 L 190.5 456.000073 L 174.499943 450.000439 L 162.499642 454.500423 L 159.000114 430.499821 " transform="matrix(3.779528,0,0,3.779528,0,0)"/>
<path style="fill:none;stroke-width:2;stroke-linecap:butt;stroke-linejoin:miter;stroke:rgb(0%,0%,0%);stroke-opacity:1;stroke-miterlimit:4;" d="M 173.000293 402.500496 L 205.000407 418.49952 L 232.999731 434.000382 L 259.000212 447.500334 " transform="matrix(3.779528,0,0,3.779528,0,0)"/>
<path style="fill:none;stroke-width:2;stroke-linecap:butt;stroke-linejoin:miter;stroke:rgb(0%,0%,0%);stroke-opacity:1;stroke-miterlimit:4;" d="M 159.999536 355.499748 L 175.999593 361.500415 L 207.999707 361.500415 L 223.999764 361.999609 L 255.49965 361.999609 L 271.499707 361.500415 L 287.499764 361.500415 L 302.999593 359.999731 L 334.999707 359.999731 L 351.499992 359.499504 L 367.500049 359.999731 L 383.500106 359.999731 " transform="matrix(3.779528,0,0,3.779528,0,0)"/>
<path style="fill:none;stroke-width:2;stroke-linecap:butt;stroke-linejoin:miter;stroke:rgb(0%,0%,0%);stroke-opacity:1;stroke-miterlimit:4;" d="M 387.499862 387.499862 L 397.500285 377.500472 L 393.999723 389.49974 L 397.500285 377.500472 L 407.499674 366.999821 L 418.999748 353.49987 L 413.000114 369.499927 L 405.499797 373.499683 L 395.500407 387.499862 L 387.499862 388.00009 L 375.000366 394.499951 L 373.499683 396.499829 L 385.499984 380.499772 L 399.500163 364.499715 L 409.99978 350.499536 L 406.000024 334.500513 L 402.000269 302.500399 L 398.000513 286.000114 L 395.999601 270.000057 L 393.999723 253.499772 L 389.999967 237.499715 L 386.000212 205.499601 L 383.500106 189.499544 L 382.000456 173.000293 L 377.999666 157.000236 L 375.999788 141.000179 L 373.499683 124.499894 L 369.499927 108.499837 L 368.000277 93.000008 L 361.999609 89.000252 L 345.999552 80.999707 L 329.999495 76.999951 L 313.500244 75.000073 L 297.500187 71.000317 L 281.50013 67.499756 L 265.500073 63.5 L 250.000244 60.000472 L 234.000187 58.499788 L 202.000073 50.500277 L 186.000016 46.499487 L 169.499731 42.999959 L 153.499674 39.000203 L 137.000423 35.000448 L 121.000366 30.500464 L 105.000309 26.499674 L 89.50048 21.999691 L 73.500423 17.499707 L 41.500309 9.500195 " transform="matrix(3.779528,0,0,3.779528,0,0)"/>
<path style="fill:none;stroke-width:2;stroke-linecap:butt;stroke-linejoin:miter;stroke:rgb(0%,0%,0%);stroke-opacity:1;stroke-miterlimit:4;" d="M 2.500106 10.499618 L 14.999601 2.500106 L 10.999845 19.000391 L 7.00009 35.499642 L 10.999845 43.500187 L 7.00009 59.500244 " transform="matrix(3.779528,0,0,3.779528,0,0)"/>
<path style="fill:none;stroke-width:2;stroke-linecap:butt;stroke-linejoin:miter;stroke:rgb(0%,0%,0%);stroke-opacity:1;stroke-miterlimit:4;" d="M 8.999967 47.499943 L 14.999601 49.499821 L 12.499495 66.000106 L 12.499495 82.000163 L 14.500407 98.00022 L 14.500407 114.000277 L 10.000423 130.000334 L 19.999813 132.500439 L 21.999691 148.500496 L 21.999691 180.999805 L 23.999569 196.999862 L 24.499797 212.999919 L 26.499674 228.499748 L 26.999902 244.499805 L 23.000146 259.999634 L 25.000024 275.999691 L 21.000269 291.49952 L 20.500041 307.499577 L 20.500041 323.499634 L 24.499797 355.499748 L 28.99978 371.499805 L 39.000203 387.499862 " transform="matrix(3.779528,0,0,3.779528,0,0)"/>
<path style="fill:none;stroke-width:2;stroke-linecap:butt;stroke-linejoin:miter;stroke:rgb(0%,0%,0%);stroke-opacity:1;stroke-miterlimit:4;" d="M 39.000203 417.500098 L 55.00026 427.499487 L 71.000317 437.49991 L 86.500146 449.500212 L 101.999976 452.99974 L 109.999487 448.999984 L 125.999544 456.999495 L 130.000334 463.500391 L 146.000391 463.999585 L 162.000448 462.499935 " transform="matrix(3.779528,0,0,3.779528,0,0)"/>
<path style="fill:none;stroke-width:2;stroke-linecap:butt;stroke-linejoin:miter;stroke:rgb(0%,0%,0%);stroke-opacity:1;stroke-miterlimit:4;" d="M 127 471.499902 L 111.500171 466.000496 L 96.000342 456.000073 " transform="matrix(3.779528,0,0,3.779528,0,0)"/>
<path style="fill:none;stroke-width:2;stroke-linecap:butt;stroke-linejoin:miter;stroke:rgb(0%,0%,0%);stroke-opacity:1;stroke-miterlimit:4;" d="M 75.500301 373.000488 L 59.500244 368.999699 L 43.500187 352.999642 " transform="matrix(3.779528,0,0,3.779528,0,0)"/>
<path style="fill:none;stroke-width:2;stroke-linecap:butt;stroke-linejoin:miter;stroke:rgb(0%,0%,0%);stroke-opacity:1;stroke-miterlimit:4;" d="M 39.999626 347.500236 L 55.999683 349.500114 L 71.99974 348.999886 L 103.999854 348.999886 L 119.99991 347.000008 L 152.000024 347.000008 L 167.499854 347.500236 L 183.49991 347.500236 L 198.99974 345.500358 L 215.500024 345.999552 L 232.000309 347.500236 L 248.000366 347.000008 L 296.499731 347.000008 L 313.000016 347.500236 L 329.000073 347.500236 L 344.499902 348.999886 L 360.499959 348.999886 L 376.500016 349.500114 L 392.500073 348.999886 " transform="matrix(3.779528,0,0,3.779528,0,0)"/>
<path style="fill:none;stroke-width:2;stroke-linecap:butt;stroke-linejoin:miter;stroke:rgb(0%,0%,0%);stroke-opacity:1;stroke-miterlimit:4;" d="M 289.499642 459.499601 L 273.499585 469.500024 L 257.499528 471.499902 L 241.500505 475.000464 L 225.500448 479.500448 L 209.500391 479.999642 L 193.999528 486.000309 L 178.000505 488.500415 L 162.000448 491.999943 L 146.000391 495.999699 L 130.000334 497.999577 L 113.500049 491.999943 L 98.00022 479.999642 L 81.499935 470.000252 L 65.499878 458.500179 L 49.499821 446.499878 L 33.499764 434.999805 L 17.999935 420.999626 L 1.999878 410.500008 " transform="matrix(3.779528,0,0,3.779528,0,0)"/>
<path style="fill:none;stroke-width:2;stroke-linecap:butt;stroke-linejoin:miter;stroke:rgb(0%,0%,0%);stroke-opacity:1;stroke-miterlimit:4;" d="M 3.000334 416.499642 L 19.000391 428.499943 L 34.50022 442.500122 L 50.500277 454.500423 L 66.500334 466.499691 L 82.500391 478.499992 L 98.500448 490.000065 L 114.000277 500.000488 " transform="matrix(3.779528,0,0,3.779528,0,0)"/>
<path style="fill:none;stroke-width:2;stroke-linecap:butt;stroke-linejoin:miter;stroke:rgb(0%,0%,0%);stroke-opacity:1;stroke-miterlimit:4;" d="M 103.000431 502.499561 L 87.000374 490.500293 L 71.000317 478.499992 L 55.00026 466.000496 L 39.000203 451.50009 L 23.000146 441.499666 L 7.00009 425.999837 " transform="matrix(3.779528,0,0,3.779528,0,0)"/>
<path style="fill:none;stroke-width:2;stroke-linecap:butt;stroke-linejoin:miter;stroke:rgb(0%,0%,0%);stroke-opacity:1;stroke-miterlimit:4;" d="M 4.499984 427.499487 L 12.000301 443.499544 L 33.999992 459.499601 L 53.999805 475.000464 L 75.999495 490.999487 L 96.499536 506.50035 " transform="matrix(3.779528,0,0,3.779528,0,0)"/>
<path style="fill:none;stroke-width:2;stroke-linecap:butt;stroke-linejoin:miter;stroke:rgb(0%,0%,0%);stroke-opacity:1;stroke-miterlimit:4;" d="M 98.999642 506.000122 L 82.999585 493.499593 L 66.999528 481.99952 L 51.000505 468.000374 L 35.000448 456.500301 L 19.000391 446.499878 L 3.000334 432.499699 " transform="matrix(3.779528,0,0,3.779528,0,0)"/>
<path style="fill:none;stroke-width:2;stroke-linecap:butt;stroke-linejoin:miter;stroke:rgb(0%,0%,0%);stroke-opacity:1;stroke-miterlimit:4;" d="M 10.499618 432.499699 L 30.500464 448.499756 L 52.500155 464.499813 L 70.50009 480.49987 L 92.49978 496.499927 " transform="matrix(3.779528,0,0,3.779528,0,0)"/>
<path style="fill:none;stroke-width:2;stroke-linecap:butt;stroke-linejoin:miter;stroke:rgb(0%,0%,0%);stroke-opacity:1;stroke-miterlimit:4;" d="M 112.499593 502.000366 L 90.499902 486.000309 L 69.000439 470.50048 L 48.999593 454.500423 L 29.500008 438.500366 L 9.500195 422.500309 " transform="matrix(3.779528,0,0,3.779528,0,0)"/>
<path style="fill:none;stroke-width:2;stroke-linecap:butt;stroke-linejoin:miter;stroke:rgb(0%,0%,0%);stroke-opacity:1;stroke-miterlimit:4;" d="M 8.49974 416.499642 L 28.99978 432.499699 L 51.000505 448.499756 L 71.000317 463.999585 L 93.000008 479.999642 L 116.999577 495.500505 L 137.000423 505.499894 L 153.00048 504.999666 L 169.499731 499.000033 L 179.500155 500.99991 L 195.500212 489.499837 L 197.50009 497.500382 " transform="matrix(3.779528,0,0,3.779528,0,0)"/>
<path style="fill:none;stroke-width:2;stroke-linecap:butt;stroke-linejoin:miter;stroke:rgb(0%,0%,0%);stroke-opacity:1;stroke-miterlimit:4;" d="M 258.499984 441.000472 L 242.499927 434.999805 L 226.49987 425.000415 L 210.499813 416.99987 L 194.499756 410.500008 L 178.000505 402.500496 L 162.000448 398.499707 L 145.500163 400.499585 L 129.500106 402.999691 L 113.500049 404.999569 L 97.499992 407.00048 L 81.499935 407.499674 L 65.499878 409.99978 L 48.999593 412.499886 L 32.999536 418.49952 L 17.000513 408.50013 L 0.500228 402.500496 " transform="matrix(3.779528,0,0,3.779528,0,0)"/>
<path style="fill:none;stroke-width:2;stroke-linecap:butt;stroke-linejoin:miter;stroke:rgb(0%,0%,0%);stroke-opacity:1;stroke-miterlimit:4;" d="M 3.499528 402.500496 L 23.500374 404.500374 L 43.500187 424.500187 L 69.499634 440.500244 L 93.500236 456.500301 L 123.500472 472.00013 L 130.000334 468.000374 L 134.00009 479.999642 L 150.500374 479.999642 L 166.500431 477.999764 L 182.999683 471.499902 L 198.99974 463.500391 L 209.000163 455.499845 L 226.49987 445.500456 L 234.000187 441.000472 L 239.999821 447.000106 L 255.999878 445.000228 L 255.999878 449.500212 L 257.999756 456.000073 " transform="matrix(3.779528,0,0,3.779528,0,0)"/>
<path style="fill:none;stroke-width:2;stroke-linecap:butt;stroke-linejoin:miter;stroke:rgb(0%,0%,0%);stroke-opacity:1;stroke-miterlimit:4;" d="M 60.499666 373.000488 L 51.000505 357.000431 " transform="matrix(3.779528,0,0,3.779528,0,0)"/>
<path style="fill:none;stroke-width:2;stroke-linecap:butt;stroke-linejoin:miter;stroke:rgb(0%,0%,0%);stroke-opacity:1;stroke-miterlimit:4;" d="M 35.000448 376.500016 L 30.500464 360.499959 L 28.499552 344.499902 L 24.499797 312.499788 L 26.499674 296.499731 L 24.499797 280.999902 " transform="matrix(3.779528,0,0,3.779528,0,0)"/>
<path style="fill:none;stroke-width:2;stroke-linecap:butt;stroke-linejoin:miter;stroke:rgb(0%,0%,0%);stroke-opacity:1;stroke-miterlimit:4;" d="M 3.499528 279.500252 L 3.499528 295.500309 L 5.500439 311.500366 L 3.499528 327.000195 L 3.499528 343.000252 L 7.500317 358.500081 L 5.999634 374.500138 L 6.499862 395.999601 L 23.000146 398.000513 L 39.500431 395.999601 " transform="matrix(3.779528,0,0,3.779528,0,0)"/>
<path style="fill:none;stroke-width:2;stroke-linecap:butt;stroke-linejoin:miter;stroke:rgb(0%,0%,0%);stroke-opacity:1;stroke-miterlimit:4;" d="M 3.499528 137.000423 L 3.499528 121.000366 " transform="matrix(3.779528,0,0,3.779528,0,0)"/>
<path style="fill:none;stroke-width:2;stroke-linecap:butt;stroke-linejoin:miter;stroke:rgb(0%,0%,0%);stroke-opacity:1;stroke-miterlimit:4;" d="M 348.999886 83.499813 L 363.000065 105.499504 L 367.500049 121.499561 L 369.499927 137.499618 L 372.000033 153.00048 L 375.999788 169.499731 L 377.999666 185.499788 L 379.999544 202.000073 L 382.000456 218.00013 L 384.000334 234.500415 L 388.00009 250.500472 L 389.999967 266.999723 L 391.499618 282.99978 L 393.499495 298.499609 L 397.500285 314.499666 L 399.500163 329.999495 L 402.000269 345.999552 L 417.500098 366.000399 L 420.000203 372.000033 L 404.000146 388.00009 L 388.00009 411.999658 L 404.000146 412.499886 L 420.000203 416.000448 L 435.500033 420.000203 L 451.50009 423.499731 " transform="matrix(3.779528,0,0,3.779528,0,0)"/>
</g>
</svg>
