<?xml version="1.0" encoding="UTF-8"?>
<svg xmlns="http://www.w3.org/2000/svg" xmlns:xlink="http://www.w3.org/1999/xlink" width="1935.11811" height="1935.11811" viewBox="0 0 1935.11811 1935.11811" version="1.1">
<g id="surface1">
<path style="fill:none;stroke-width:2;stroke-linecap:butt;stroke-linejoin:miter;stroke:rgb(0%,0%,0%);stroke-opacity:1;stroke-miterlimit:4;" d="M 373.499683 2.500106 L 383.500106 18.500163 L 401.500041 34.50022 L 421.499854 46.499487 L 441.499666 62.999772 L 455.499845 59.000016 " transform="matrix(3.779528,0,0,3.779528,0,0)"/>
<path style="fill:none;stroke-width:2;stroke-linecap:butt;stroke-linejoin:miter;stroke:rgb(0%,0%,0%);stroke-opacity:1;stroke-miterlimit:4;" d="M 427.000293 60.499666 L 443.00035 76.499723 L 458.500179 94.499658 L 474.500236 106.499959 " transform="matrix(3.779528,0,0,3.779528,0,0)"/>
<path style="fill:none;stroke-width:2;stroke-linecap:butt;stroke-linejoin:miter;stroke:rgb(0%,0%,0%);stroke-opacity:1;stroke-miterlimit:4;" d="M 448.999984 154.50013 L 465.000041 170.500187 L 481.000098 188.500122 L 497.000155 203.999951 " transform="matrix(3.779528,0,0,3.779528,0,0)"/>
<path style="fill:none;stroke-width:2;stroke-linecap:butt;stroke-linejoin:miter;stroke:rgb(0%,0%,0%);stroke-opacity:1;stroke-miterlimit:4;" d="M 491.499715 201.499845 L 475.000464 185.499788 L 461.500513 169.999959 L 447.000106 153.999902 " transform="matrix(3.779528,0,0,3.779528,0,0)"/>
<path style="fill:none;stroke-width:2;stroke-linecap:butt;stroke-linejoin:miter;stroke:rgb(0%,0%,0%);stroke-opacity:1;stroke-miterlimit:4;" d="M 416.000448 186.500244 L 418.000326 193.000106 " transform="matrix(3.779528,0,0,3.779528,0,0)"/>
<path style="fill:none;stroke-width:2;stroke-linecap:butt;stroke-linejoin:miter;stroke:rgb(0%,0%,0%);stroke-opacity:1;stroke-miterlimit:4;" d="M 475.499658 107.500415 L 453.499967 91.00013 L 425.499609 59.000016 " transform="matrix(3.779528,0,0,3.779528,0,0)"/>
<path style="fill:none;stroke-width:2;stroke-linecap:butt;stroke-linejoin:miter;stroke:rgb(0%,0%,0%);stroke-opacity:1;stroke-miterlimit:4;" d="M 439.499788 57.999561 L 422.999504 46.499487 L 404.999569 36.500098 L 388.999512 22.499919 L 372.50026 4.499984 " transform="matrix(3.779528,0,0,3.779528,0,0)"/>
<path style="fill:none;stroke-width:2;stroke-linecap:butt;stroke-linejoin:miter;stroke:rgb(0%,0%,0%);stroke-opacity:1;stroke-miterlimit:4;" d="M 504.999666 15.499829 L 502.999788 31.499886 L 503.500016 47.499943 L 501.500138 63.5 L 500.000488 78.999829 L 500.000488 95.500114 " transform="matrix(3.779528,0,0,3.779528,0,0)"/>
<path style="fill:none;stroke-width:2;stroke-linecap:butt;stroke-linejoin:miter;stroke:rgb(0%,0%,0%);stroke-opacity:1;stroke-miterlimit:4;" d="M 506.000122 334.500513 L 506.000122 342.500024 " transform="matrix(3.779528,0,0,3.779528,0,0)"/>
<path style="fill:none;stroke-width:2;stroke-linecap:butt;stroke-linejoin:miter;stroke:rgb(0%,0%,0%);stroke-opacity:1;stroke-miterlimit:4;" d="M 509.999878 336.500391 L 509.49965 352.00022 " transform="matrix(3.779528,0,0,3.779528,0,0)"/>
<path style="fill:none;stroke-width:2;stroke-linecap:butt;stroke-linejoin:miter;stroke:rgb(0%,0%,0%);stroke-opacity:1;stroke-miterlimit:4;" d="M 506.999544 443.999772 L 506.999544 467.500146 " transform="matrix(3.779528,0,0,3.779528,0,0)"/>
<path style="fill:none;stroke-width:2;stroke-linecap:butt;stroke-linejoin:miter;stroke:rgb(0%,0%,0%);stroke-opacity:1;stroke-miterlimit:4;" d="M 431.500277 450.000439 L 427.499487 442.500122 L 415.50022 436.500488 L 417.500098 420.500431 L 417.500098 388.500317 " transform="matrix(3.779528,0,0,3.779528,0,0)"/>
<path style="fill:none;stroke-width:2;stroke-linecap:butt;stroke-linejoin:miter;stroke:rgb(0%,0%,0%);stroke-opacity:1;stroke-miterlimit:4;" d="M 413.999536 386.000212 L 413.500342 402.000269 L 411.999658 418.49952 L 411.999658 434.499577 L 410.500008 450.000439 " transform="matrix(3.779528,0,0,3.779528,0,0)"/>
<path style="fill:none;stroke-width:2;stroke-linecap:butt;stroke-linejoin:miter;stroke:rgb(0%,0%,0%);stroke-opacity:1;stroke-miterlimit:4;" d="M 250.000244 367.500049 L 250.000244 351.499992 L 249.500016 343.50048 L 233.499959 345.500358 " transform="matrix(3.779528,0,0,3.779528,0,0)"/>
<path style="fill:none;stroke-width:2;stroke-linecap:butt;stroke-linejoin:miter;stroke:rgb(0%,0%,0%);stroke-opacity:1;stroke-miterlimit:4;" d="M 230.000431 325.000317 L 213.500146 326.499967 L 197.50009 324.50009 L 181.500033 323.999862 L 165.499976 323.999862 L 149.499919 325.99974 L 132.999634 326.499967 L 116.999577 330.499723 L 101.499748 328.499845 L 82.000163 336.500391 L 66.000106 348.499658 L 50.000049 348.499658 L 33.999992 348.000464 L 1.999878 348.000464 " transform="matrix(3.779528,0,0,3.779528,0,0)"/>
<path style="fill:none;stroke-width:2;stroke-linecap:butt;stroke-linejoin:miter;stroke:rgb(0%,0%,0%);stroke-opacity:1;stroke-miterlimit:4;" d="M 1.49965 342.500024 L 17.499707 342.500024 L 32.999536 334.500513 L 48.999593 334.500513 L 64.500456 332.000407 " transform="matrix(3.779528,0,0,3.779528,0,0)"/>
<path style="fill:none;stroke-width:2;stroke-linecap:butt;stroke-linejoin:miter;stroke:rgb(0%,0%,0%);stroke-opacity:1;stroke-miterlimit:4;" d="M 55.00026 337.499813 L 39.000203 338.000041 " transform="matrix(3.779528,0,0,3.779528,0,0)"/>
<path style="fill:none;stroke-width:2;stroke-linecap:butt;stroke-linejoin:miter;stroke:rgb(0%,0%,0%);stroke-opacity:1;stroke-miterlimit:4;" d="M 2.500106 363.500293 L 17.999935 363.500293 L 33.999992 361.500415 L 50.000049 361.000187 L 66.000106 363.000065 L 82.500391 362.499837 L 98.500448 362.499837 L 114.000277 360.499959 L 130.000334 364.499715 L 132.000212 350.499536 L 130.000334 366.499593 L 132.000212 382.000456 L 133.499862 398.499707 L 127.500228 412.499886 L 135.999967 424.500187 L 138.500073 440.500244 L 140.499951 456.500301 " transform="matrix(3.779528,0,0,3.779528,0,0)"/>
<path style="fill:none;stroke-width:2;stroke-linecap:butt;stroke-linejoin:miter;stroke:rgb(0%,0%,0%);stroke-opacity:1;stroke-miterlimit:4;" d="M 196.499634 494.500049 L 212.999919 486.499504 L 228.999976 479.00022 L 245.000033 469.500024 L 252.999544 455.499845 L 241.000277 471.499902 L 212.999919 487.499959 L 193.000106 487.499959 L 166.500431 500.99991 L 182.500488 495.000277 L 198.99974 482.499748 L 214.999797 474.500236 " transform="matrix(3.779528,0,0,3.779528,0,0)"/>
<path style="fill:none;stroke-width:2;stroke-linecap:butt;stroke-linejoin:miter;stroke:rgb(0%,0%,0%);stroke-opacity:1;stroke-miterlimit:4;" d="M 180.499577 382.000456 L 164.49952 388.00009 L 164.49952 402.000269 L 180.499577 373.99991 L 172.500065 353.49987 L 156.500008 357.499626 L 139.999723 361.500415 " transform="matrix(3.779528,0,0,3.779528,0,0)"/>
<path style="fill:none;stroke-width:2;stroke-linecap:butt;stroke-linejoin:miter;stroke:rgb(0%,0%,0%);stroke-opacity:1;stroke-miterlimit:4;" d="M 143.000057 361.000187 L 142.499829 377.000244 L 144.999935 393.000301 L 148.500496 409.000358 L 142.499829 422.500309 L 146.000391 438.500366 L 148.500496 454.500423 L 150.999569 470.000252 L 153.499674 484.000431 L 169.499731 473.49978 L 185.499788 461.999707 L 201.499845 454.000195 L 201.499845 466.000496 L 216.999674 457.999951 L 232.499504 443.499544 L 248.000366 436.00026 " transform="matrix(3.779528,0,0,3.779528,0,0)"/>
<path style="fill:none;stroke-width:2;stroke-linecap:butt;stroke-linejoin:miter;stroke:rgb(0%,0%,0%);stroke-opacity:1;stroke-miterlimit:4;" d="M 172.500065 483.500203 L 171.000415 491.499715 L 155.000358 502.000366 L 160.999992 493.999821 L 164.999748 476.500114 L 189.00035 459.999829 L 215.500024 452.000317 L 228.999976 446.499878 L 252.999544 440.500244 L 260.499862 424.500187 L 258.499984 408.50013 L 258.499984 392.500073 L 256.500106 376.500016 L 256.500106 360.499959 L 254.500228 345.00013 " transform="matrix(3.779528,0,0,3.779528,0,0)"/>
<path style="fill:none;stroke-width:2;stroke-linecap:butt;stroke-linejoin:miter;stroke:rgb(0%,0%,0%);stroke-opacity:1;stroke-miterlimit:4;" d="M 187.499666 339.499691 L 179.500155 363.500293 L 163.500098 379.50035 L 167.499854 377.000244 L 177.500277 377.000244 L 187.499666 356.500203 " transform="matrix(3.779528,0,0,3.779528,0,0)"/>
<path style="fill:none;stroke-width:2;stroke-linecap:butt;stroke-linejoin:miter;stroke:rgb(0%,0%,0%);stroke-opacity:1;stroke-miterlimit:4;" d="M 177.000049 337.499813 L 200.999618 335.499935 L 214.999797 339.499691 L 200.999618 341.499569 L 184.500366 353.49987 L 168.500309 363.500293 L 164.49952 367.500049 L 168.500309 354.000098 L 198.000317 342.500024 L 212.000496 347.000008 L 237.999943 330.999951 L 247.500138 336.999585 L 231.500081 341.000374 L 219.49978 342.500024 L 201.499845 330.999951 L 185.499788 334.500513 L 169.499731 342.500024 L 153.499674 346.49978 L 144.999935 341.999797 L 125.000122 345.999552 L 109.500293 345.999552 L 93.500236 345.500358 L 78.000407 347.500236 L 75.999495 325.000317 L 75.999495 309.00026 L 73.999618 293.000203 L 74.499845 277.500374 L 74.499845 261.500317 L 75.999495 246.000488 L 64.000228 230.000431 L 55.999683 213.500146 L 60.000472 197.50009 L 71.499512 181.500033 L 76.499723 183.49991 L 60.499666 207.500513 " transform="matrix(3.779528,0,0,3.779528,0,0)"/>
<path style="fill:none;stroke-width:2;stroke-linecap:butt;stroke-linejoin:miter;stroke:rgb(0%,0%,0%);stroke-opacity:1;stroke-miterlimit:4;" d="M 57.500366 213.500146 L 73.500423 239.499593 " transform="matrix(3.779528,0,0,3.779528,0,0)"/>
<path style="fill:none;stroke-width:2;stroke-linecap:butt;stroke-linejoin:miter;stroke:rgb(0%,0%,0%);stroke-opacity:1;stroke-miterlimit:4;" d="M 84.500269 235.499837 L 68.500212 216.999674 " transform="matrix(3.779528,0,0,3.779528,0,0)"/>
<path style="fill:none;stroke-width:2;stroke-linecap:butt;stroke-linejoin:miter;stroke:rgb(0%,0%,0%);stroke-opacity:1;stroke-miterlimit:4;" d="M 67.499756 202.999495 L 69.499634 191.000228 L 61.500122 209.500391 L 65.499878 187.499666 L 81.499935 180.000382 L 97.499992 191.99965 " transform="matrix(3.779528,0,0,3.779528,0,0)"/>
<path style="fill:none;stroke-width:2;stroke-linecap:butt;stroke-linejoin:miter;stroke:rgb(0%,0%,0%);stroke-opacity:1;stroke-miterlimit:4;" d="M 85.999919 187.000472 L 78.000407 189.499544 L 67.999984 205.499601 L 69.999862 221.499658 L 84.000041 241.500505 L 80.000285 257.499528 L 80.000285 273.499585 " transform="matrix(3.779528,0,0,3.779528,0,0)"/>
<path style="fill:none;stroke-width:2;stroke-linecap:butt;stroke-linejoin:miter;stroke:rgb(0%,0%,0%);stroke-opacity:1;stroke-miterlimit:4;" d="M 84.000041 257.499528 L 84.000041 273.499585 L 80.000285 289.99987 L 80.000285 305.999927 L 84.000041 311.500366 L 82.500391 327.500423 L 94.000464 341.499569 L 109.999487 339.499691 L 125.999544 339.499691 L 146.499585 353.49987 L 162.99987 349.500114 L 178.499699 345.999552 L 194.999984 339.999919 L 211.000041 332.000407 L 227.000098 329.999495 L 245.000033 325.99974 " transform="matrix(3.779528,0,0,3.779528,0,0)"/>
<path style="fill:none;stroke-width:2;stroke-linecap:butt;stroke-linejoin:miter;stroke:rgb(0%,0%,0%);stroke-opacity:1;stroke-miterlimit:4;" d="M 134.999512 364.499715 L 139.000301 380.499772 L 141.000179 395.999601 L 144.999935 411.999658 L 140.499951 436.00026 " transform="matrix(3.779528,0,0,3.779528,0,0)"/>
<path style="fill:none;stroke-width:2;stroke-linecap:butt;stroke-linejoin:miter;stroke:rgb(0%,0%,0%);stroke-opacity:1;stroke-miterlimit:4;" d="M 91.500358 500.99991 L 75.500301 500.99991 L 59.500244 495.000277 L 33.499764 490.999487 L 17.999935 486.999731 L 1.999878 486.999731 " transform="matrix(3.779528,0,0,3.779528,0,0)"/>
<path style="fill:none;stroke-width:2;stroke-linecap:butt;stroke-linejoin:miter;stroke:rgb(0%,0%,0%);stroke-opacity:1;stroke-miterlimit:4;" d="M 1.49965 492.500171 L 17.499707 492.500171 L 33.499764 494.500049 " transform="matrix(3.779528,0,0,3.779528,0,0)"/>
<path style="fill:none;stroke-width:2;stroke-linecap:butt;stroke-linejoin:miter;stroke:rgb(0%,0%,0%);stroke-opacity:1;stroke-miterlimit:4;" d="M 2.500106 476.500114 L 18.500163 478.499992 L 50.500277 486.499504 L 66.500334 488.500415 L 82.500391 488.500415 L 98.00022 491.999943 L 114.000277 493.999821 L 130.000334 495.500505 L 146.000391 495.999699 L 162.000448 486.000309 L 177.500277 472.00013 L 171.000415 477.499536 L 148.999691 493.499593 " transform="matrix(3.779528,0,0,3.779528,0,0)"/>
<path style="fill:none;stroke-width:2;stroke-linecap:butt;stroke-linejoin:miter;stroke:rgb(0%,0%,0%);stroke-opacity:1;stroke-miterlimit:4;" d="M 71.99974 420.500431 L 52.500155 416.000448 L 36.500098 411.999658 L 18.500163 414.499764 L 3.000334 412.499886 " transform="matrix(3.779528,0,0,3.779528,0,0)"/>
<path style="fill:none;stroke-width:2;stroke-linecap:butt;stroke-linejoin:miter;stroke:rgb(0%,0%,0%);stroke-opacity:1;stroke-miterlimit:4;" d="M 3.000334 406.500252 L 23.000146 414.499764 L 39.000203 418.000326 " transform="matrix(3.779528,0,0,3.779528,0,0)"/>
<path style="fill:none;stroke-width:2;stroke-linecap:butt;stroke-linejoin:miter;stroke:rgb(0%,0%,0%);stroke-opacity:1;stroke-miterlimit:4;" d="M 52.500155 412.499886 L 78.999829 418.49952 L 82.999585 418.49952 L 105.000309 413.999536 L 121.000366 420.000203 L 137.000423 419.499976 " transform="matrix(3.779528,0,0,3.779528,0,0)"/>
<path style="fill:none;stroke-width:2;stroke-linecap:butt;stroke-linejoin:miter;stroke:rgb(0%,0%,0%);stroke-opacity:1;stroke-miterlimit:4;" d="M 128.49965 425.999837 L 107.000187 420.500431 L 82.500391 412.499886 L 66.500334 410.500008 L 50.500277 410.500008 L 34.50022 408.50013 L 18.500163 410.500008 L 2.500106 406.500252 " transform="matrix(3.779528,0,0,3.779528,0,0)"/>
<path style="fill:none;stroke-width:2;stroke-linecap:butt;stroke-linejoin:miter;stroke:rgb(0%,0%,0%);stroke-opacity:1;stroke-miterlimit:4;" d="M 178.499699 331.500179 L 162.499642 329.000073 L 146.000391 331.500179 L 130.000334 336.000163 L 114.000277 336.000163 L 98.00022 336.500391 L 91.999552 330.499723 L 87.999797 314.000472 L 87.999797 250.000244 L 79.500057 243.500382 L 91.500358 227.500326 L 95.500114 211.500269 L 100.000098 195.500212 L 80.000285 179.500155 " transform="matrix(3.779528,0,0,3.779528,0,0)"/>
</g>
</svg>
