<?xml version="1.0" encoding="UTF-8"?>
<svg xmlns="http://www.w3.org/2000/svg" xmlns:xlink="http://www.w3.org/1999/xlink" width="1935.11811" height="1935.11811" viewBox="0 0 1935.11811 1935.11811" version="1.1">
<g id="surface1">
<path style="fill:none;stroke-width:2;stroke-linecap:butt;stroke-linejoin:miter;stroke:rgb(0%,0%,0%);stroke-opacity:1;stroke-miterlimit:4;" d="M 7.500317 86.500146 L 3.499528 102.500203 L 11.500073 104.500081 L 19.499585 108.499837 L 23.500374 114.999699 L 17.499707 130.999756 L 7.500317 132.999634 L 7.500317 148.999691 L 14.999601 153.00048 L 23.000146 156.500008 L 18.500163 172.500065 L 5.000212 178.499699 L 3.000334 194.499756 L 7.00009 198.499512 L 23.500374 196.000439 " transform="matrix(3.779528,0,0,3.779528,0,0)"/>
<path style="fill:none;stroke-width:2;stroke-linecap:butt;stroke-linejoin:miter;stroke:rgb(0%,0%,0%);stroke-opacity:1;stroke-miterlimit:4;" d="M 16.500285 180.999805 L 22.499919 178.499699 L 7.999512 166.500431 L 1.999878 172.500065 " transform="matrix(3.779528,0,0,3.779528,0,0)"/>
<path style="fill:none;stroke-width:2;stroke-linecap:butt;stroke-linejoin:miter;stroke:rgb(0%,0%,0%);stroke-opacity:1;stroke-miterlimit:4;" d="M 18.500163 160.499764 L 34.50022 153.999902 L 30.500464 121.499561 " transform="matrix(3.779528,0,0,3.779528,0,0)"/>
<path style="fill:none;stroke-width:2;stroke-linecap:butt;stroke-linejoin:miter;stroke:rgb(0%,0%,0%);stroke-opacity:1;stroke-miterlimit:4;" d="M 67.999984 118.000033 L 71.99974 114.000277 L 71.99974 132.000212 L 73.999618 148.000269 L 78.000407 164.000326 L 91.500358 182.00026 L 100.000098 187.999894 L 91.999552 193.500334 L 103.999854 209.500391 L 124.499894 211.000041 " transform="matrix(3.779528,0,0,3.779528,0,0)"/>
<path style="fill:none;stroke-width:2;stroke-linecap:butt;stroke-linejoin:miter;stroke:rgb(0%,0%,0%);stroke-opacity:1;stroke-miterlimit:4;" d="M 112.499593 182.00026 L 109.999487 165.499976 L 109.999487 148.999691 L 107.500415 132.999634 L 113.500049 137.000423 " transform="matrix(3.779528,0,0,3.779528,0,0)"/>
<path style="fill:none;stroke-width:2;stroke-linecap:butt;stroke-linejoin:miter;stroke:rgb(0%,0%,0%);stroke-opacity:1;stroke-miterlimit:4;" d="M 117.499805 145.500163 L 121.499561 161.50022 L 123.500472 177.500277 " transform="matrix(3.779528,0,0,3.779528,0,0)"/>
<path style="fill:none;stroke-width:2;stroke-linecap:butt;stroke-linejoin:miter;stroke:rgb(0%,0%,0%);stroke-opacity:1;stroke-miterlimit:4;" d="M 107.500415 183.49991 L 116.999577 187.499666 L 118.50026 171.499609 L 118.50026 155.499552 L 114.500505 139.999723 L 112.000399 123.999666 L 111.500171 121.499561 L 94.999886 113.500049 L 78.999829 103.499626 L 62.999772 100.99952 " transform="matrix(3.779528,0,0,3.779528,0,0)"/>
<path style="fill:none;stroke-width:2;stroke-linecap:butt;stroke-linejoin:miter;stroke:rgb(0%,0%,0%);stroke-opacity:1;stroke-miterlimit:4;" d="M 65.499878 96.999764 L 63.5 112.999821 L 65.499878 128.999878 L 65.499878 145.500163 L 67.999984 162.000448 L 69.999862 178.499699 L 69.999862 194.499756 L 73.999618 210.499813 L 87.999797 204.500179 L 86.500146 206.500057 L 103.000431 214.499569 L 110.999943 202.500301 L 126.499772 206.500057 L 116.500382 218.500358 " transform="matrix(3.779528,0,0,3.779528,0,0)"/>
<path style="fill:none;stroke-width:2;stroke-linecap:butt;stroke-linejoin:miter;stroke:rgb(0%,0%,0%);stroke-opacity:1;stroke-miterlimit:4;" d="M 109.999487 216.000252 L 118.50026 202.500301 L 110.999943 190.5 L 107.000187 184.000138 L 105.000309 173.999715 L 106.499959 157.999658 L 104.500081 141.500407 L 103.999854 125.999544 L 82.000163 125.999544 " transform="matrix(3.779528,0,0,3.779528,0,0)"/>
<path style="fill:none;stroke-width:2;stroke-linecap:butt;stroke-linejoin:miter;stroke:rgb(0%,0%,0%);stroke-opacity:1;stroke-miterlimit:4;" d="M 71.000317 121.999788 L 73.000195 114.000277 L 81.499935 133.499862 L 81.499935 150.000146 " transform="matrix(3.779528,0,0,3.779528,0,0)"/>
<path style="fill:none;stroke-width:2;stroke-linecap:butt;stroke-linejoin:miter;stroke:rgb(0%,0%,0%);stroke-opacity:1;stroke-miterlimit:4;" d="M 81.499935 159.000114 L 80.999707 159.000114 L 87.499569 153.00048 L 87.499569 137.000423 L 83.499813 113.500049 L 67.999984 105.499504 " transform="matrix(3.779528,0,0,3.779528,0,0)"/>
<path style="fill:none;stroke-width:2;stroke-linecap:butt;stroke-linejoin:miter;stroke:rgb(0%,0%,0%);stroke-opacity:1;stroke-miterlimit:4;" d="M 71.000317 100.000098 L 83.499813 116.000155 L 94.999886 115.499927 L 81.499935 121.499561 L 95.500114 131.499984 L 91.999552 133.499862 L 91.999552 149.499919 L 92.49978 166.000203 L 84.500269 168.000081 L 75.000073 176.499821 L 89.000252 178.499699 L 89.000252 194.499756 L 80.999707 196.499634 L 76.999951 203.999951 L 82.999585 186.000016 L 78.999829 193.500334 " transform="matrix(3.779528,0,0,3.779528,0,0)"/>
<path style="fill:none;stroke-width:2;stroke-linecap:butt;stroke-linejoin:miter;stroke:rgb(0%,0%,0%);stroke-opacity:1;stroke-miterlimit:4;" d="M 74.499845 182.500488 L 60.499666 190.5 L 54.500033 206.500057 " transform="matrix(3.779528,0,0,3.779528,0,0)"/>
<path style="fill:none;stroke-width:2;stroke-linecap:butt;stroke-linejoin:miter;stroke:rgb(0%,0%,0%);stroke-opacity:1;stroke-miterlimit:4;" d="M 54.500033 205.999829 L 44.499609 203.999951 L 42.499731 187.999894 L 60.499666 181.500033 L 44.499609 179.500155 " transform="matrix(3.779528,0,0,3.779528,0,0)"/>
<path style="fill:none;stroke-width:2;stroke-linecap:butt;stroke-linejoin:miter;stroke:rgb(0%,0%,0%);stroke-opacity:1;stroke-miterlimit:4;" d="M 57.000138 176.499821 L 50.500277 192.499878 L 54.500033 191.99965 " transform="matrix(3.779528,0,0,3.779528,0,0)"/>
<path style="fill:none;stroke-width:2;stroke-linecap:butt;stroke-linejoin:miter;stroke:rgb(0%,0%,0%);stroke-opacity:1;stroke-miterlimit:4;" d="M 37.49952 159.500342 L 39.999626 153.499674 L 40.499854 137.499618 L 34.50022 135.49974 L 38.499976 119.499683 L 28.499552 115.499927 L 37.999748 109.500293 L 33.499764 89.999674 L 17.499707 85.999919 L 1.49965 87.999797 " transform="matrix(3.779528,0,0,3.779528,0,0)"/>
<path style="fill:none;stroke-width:2;stroke-linecap:butt;stroke-linejoin:miter;stroke:rgb(0%,0%,0%);stroke-opacity:1;stroke-miterlimit:4;" d="M 10.999845 85.499691 L 19.000391 101.499748 L 3.499528 111.500171 L 3.499528 127.500228 L 3.999756 143.000057 L 12.000301 147.500041 L 19.999813 163.500098 L 26.00048 182.00026 " transform="matrix(3.779528,0,0,3.779528,0,0)"/>
<path style="fill:none;stroke-width:2;stroke-linecap:butt;stroke-linejoin:miter;stroke:rgb(0%,0%,0%);stroke-opacity:1;stroke-miterlimit:4;" d="M 19.499585 218.999552 L 17.499707 234.999609 " transform="matrix(3.779528,0,0,3.779528,0,0)"/>
<path style="fill:none;stroke-width:2;stroke-linecap:butt;stroke-linejoin:miter;stroke:rgb(0%,0%,0%);stroke-opacity:1;stroke-miterlimit:4;" d="M 19.999813 220.500236 L 32.000114 223.999764 L 30.000236 239.499593 L 30.000236 255.49965 L 29.500008 271.499707 " transform="matrix(3.779528,0,0,3.779528,0,0)"/>
<path style="fill:none;stroke-width:2;stroke-linecap:butt;stroke-linejoin:miter;stroke:rgb(0%,0%,0%);stroke-opacity:1;stroke-miterlimit:4;" d="M 51.999927 243.000155 L 68.500212 246.499683 L 53.000382 252.999544 L 53.000382 268.999601 L 51.499699 284.999658 L 55.999683 295.500309 L 80.500513 280.999902 L 96.499536 273.000391 L 112.999821 278.499797 L 128.999878 284.000236 L 134.999512 275.500496 L 151.499797 279.500252 L 166.999626 281.50013 " transform="matrix(3.779528,0,0,3.779528,0,0)"/>
<path style="fill:none;stroke-width:2;stroke-linecap:butt;stroke-linejoin:miter;stroke:rgb(0%,0%,0%);stroke-opacity:1;stroke-miterlimit:4;" d="M 168.500309 259.000212 L 164.49952 257.499528 L 174.499943 245.50026 L 158.499886 241.500505 " transform="matrix(3.779528,0,0,3.779528,0,0)"/>
<path style="fill:none;stroke-width:2;stroke-linecap:butt;stroke-linejoin:miter;stroke:rgb(0%,0%,0%);stroke-opacity:1;stroke-miterlimit:4;" d="M 159.999536 237.499715 L 158.499886 253.499772 L 158.499886 269.499829 L 164.49952 287.999992 L 156.500008 304.000049 L 162.499642 318.000228 L 164.49952 307.999805 " transform="matrix(3.779528,0,0,3.779528,0,0)"/>
<path style="fill:none;stroke-width:2;stroke-linecap:butt;stroke-linejoin:miter;stroke:rgb(0%,0%,0%);stroke-opacity:1;stroke-miterlimit:4;" d="M 166.999626 311.999561 L 164.999748 320.000106 L 160.999992 311.999561 L 175.000171 295.999504 L 149.499919 304.000049 L 133.499862 309.999683 L 118.000033 305.999927 L 102.500203 298.000415 L 86.500146 291.49952 " transform="matrix(3.779528,0,0,3.779528,0,0)"/>
<path style="fill:none;stroke-width:2;stroke-linecap:butt;stroke-linejoin:miter;stroke:rgb(0%,0%,0%);stroke-opacity:1;stroke-miterlimit:4;" d="M 89.999674 280.499674 L 87.999797 296.499731 L 96.000342 280.00048 L 112.000399 284.000236 L 128.000456 289.499642 L 144.499707 293.000203 L 146.499585 283.500008 " transform="matrix(3.779528,0,0,3.779528,0,0)"/>
<path style="fill:none;stroke-width:2;stroke-linecap:butt;stroke-linejoin:miter;stroke:rgb(0%,0%,0%);stroke-opacity:1;stroke-miterlimit:4;" d="M 143.000057 278.499797 L 150.999569 290.500098 " transform="matrix(3.779528,0,0,3.779528,0,0)"/>
<path style="fill:none;stroke-width:2;stroke-linecap:butt;stroke-linejoin:miter;stroke:rgb(0%,0%,0%);stroke-opacity:1;stroke-miterlimit:4;" d="M 94.499658 302.500399 L 84.500269 302.500399 L 78.999829 286.500342 L 91.00013 270.500285 " transform="matrix(3.779528,0,0,3.779528,0,0)"/>
<path style="fill:none;stroke-width:2;stroke-linecap:butt;stroke-linejoin:miter;stroke:rgb(0%,0%,0%);stroke-opacity:1;stroke-miterlimit:4;" d="M 66.000106 291.49952 L 67.999984 275.500496 L 62.00035 275.500496 L 69.499634 259.500439 L 67.499756 243.500382 " transform="matrix(3.779528,0,0,3.779528,0,0)"/>
<path style="fill:none;stroke-width:2;stroke-linecap:butt;stroke-linejoin:miter;stroke:rgb(0%,0%,0%);stroke-opacity:1;stroke-miterlimit:4;" d="M 64.500456 238.500171 L 60.999894 254.500228 L 64.99965 257.000334 L 59.000016 277.500374 " transform="matrix(3.779528,0,0,3.779528,0,0)"/>
<path style="fill:none;stroke-width:2;stroke-linecap:butt;stroke-linejoin:miter;stroke:rgb(0%,0%,0%);stroke-opacity:1;stroke-miterlimit:4;" d="M 15.499829 274.500041 L 11.500073 242.499927 L 12.999723 226.49987 L 28.499552 218.500358 L 12.499495 218.999552 " transform="matrix(3.779528,0,0,3.779528,0,0)"/>
<path style="fill:none;stroke-width:2;stroke-linecap:butt;stroke-linejoin:miter;stroke:rgb(0%,0%,0%);stroke-opacity:1;stroke-miterlimit:4;" d="M 24.499797 221.000464 L 26.499674 237.499715 L 26.00048 253.499772 L 26.00048 269.499829 " transform="matrix(3.779528,0,0,3.779528,0,0)"/>
<path style="fill:none;stroke-width:2;stroke-linecap:butt;stroke-linejoin:miter;stroke:rgb(0%,0%,0%);stroke-opacity:1;stroke-miterlimit:4;" d="M 1.999878 341.999797 L 17.999935 342.500024 L 33.999992 341.999797 L 49.499821 341.999797 L 65.499878 343.50048 L 81.499935 343.000252 L 97.499992 343.50048 L 113.500049 345.500358 L 129.500106 345.500358 L 145.500163 347.500236 L 162.000448 347.500236 L 177.500277 349.500114 L 193.500334 350.000342 L 225.500448 354.000098 L 241.999699 354.500326 L 273.999813 358.500081 L 289.99987 359.000309 L 306.500155 361.000187 L 322.500212 363.000065 L 338.500269 364.499715 L 354.500326 364.499715 L 370.000155 366.000399 L 400.999813 370.000155 L 417.500098 370.000155 " transform="matrix(3.779528,0,0,3.779528,0,0)"/>
<path style="fill:none;stroke-width:2;stroke-linecap:butt;stroke-linejoin:miter;stroke:rgb(0%,0%,0%);stroke-opacity:1;stroke-miterlimit:4;" d="M 430.499821 324.50009 L 414.499764 320.500334 L 398.499707 313.000016 " transform="matrix(3.779528,0,0,3.779528,0,0)"/>
<path style="fill:none;stroke-width:2;stroke-linecap:butt;stroke-linejoin:miter;stroke:rgb(0%,0%,0%);stroke-opacity:1;stroke-miterlimit:4;" d="M 398.000513 307.999805 L 425.999837 323.999862 " transform="matrix(3.779528,0,0,3.779528,0,0)"/>
<path style="fill:none;stroke-width:2;stroke-linecap:butt;stroke-linejoin:miter;stroke:rgb(0%,0%,0%);stroke-opacity:1;stroke-miterlimit:4;" d="M 427.499487 318.500456 L 411.000236 311.999561 L 395.000179 307.999805 " transform="matrix(3.779528,0,0,3.779528,0,0)"/>
<path style="fill:none;stroke-width:2;stroke-linecap:butt;stroke-linejoin:miter;stroke:rgb(0%,0%,0%);stroke-opacity:1;stroke-miterlimit:4;" d="M 388.500317 307.999805 L 404.500374 304.000049 L 420.500431 307.999805 L 436.00026 316.00035 " transform="matrix(3.779528,0,0,3.779528,0,0)"/>
<path style="fill:none;stroke-width:2;stroke-linecap:butt;stroke-linejoin:miter;stroke:rgb(0%,0%,0%);stroke-opacity:1;stroke-miterlimit:4;" d="M 456.999495 318.99965 L 454.999618 302.999593 L 454.500423 287.499764 L 454.500423 283.500008 " transform="matrix(3.779528,0,0,3.779528,0,0)"/>
<path style="fill:none;stroke-width:2;stroke-linecap:butt;stroke-linejoin:miter;stroke:rgb(0%,0%,0%);stroke-opacity:1;stroke-miterlimit:4;" d="M 461.000285 284.000236 L 459.000407 299.500065 L 461.000285 315.500122 " transform="matrix(3.779528,0,0,3.779528,0,0)"/>
<path style="fill:none;stroke-width:2;stroke-linecap:butt;stroke-linejoin:miter;stroke:rgb(0%,0%,0%);stroke-opacity:1;stroke-miterlimit:4;" d="M 421.499854 326.499967 L 406.000024 323.000439 L 389.999967 313.000016 " transform="matrix(3.779528,0,0,3.779528,0,0)"/>
<path style="fill:none;stroke-width:2;stroke-linecap:butt;stroke-linejoin:miter;stroke:rgb(0%,0%,0%);stroke-opacity:1;stroke-miterlimit:4;" d="M 393.000301 301.499943 L 392.500073 318.000228 L 429.000171 318.000228 " transform="matrix(3.779528,0,0,3.779528,0,0)"/>
<path style="fill:none;stroke-width:2;stroke-linecap:butt;stroke-linejoin:miter;stroke:rgb(0%,0%,0%);stroke-opacity:1;stroke-miterlimit:4;" d="M 438.999561 319.499878 L 404.999569 303.499821 " transform="matrix(3.779528,0,0,3.779528,0,0)"/>
<path style="fill:none;stroke-width:2;stroke-linecap:butt;stroke-linejoin:miter;stroke:rgb(0%,0%,0%);stroke-opacity:1;stroke-miterlimit:4;" d="M 420.000203 241.000277 L 409.499552 225.00022 L 409.499552 209.500391 L 407.499674 215.500024 " transform="matrix(3.779528,0,0,3.779528,0,0)"/>
<path style="fill:none;stroke-width:2;stroke-linecap:butt;stroke-linejoin:miter;stroke:rgb(0%,0%,0%);stroke-opacity:1;stroke-miterlimit:4;" d="M 403.499919 208.499935 L 419.499976 205.999829 L 403.499919 212.000496 L 403.499919 228.499748 L 415.50022 244.499805 " transform="matrix(3.779528,0,0,3.779528,0,0)"/>
<path style="fill:none;stroke-width:2;stroke-linecap:butt;stroke-linejoin:miter;stroke:rgb(0%,0%,0%);stroke-opacity:1;stroke-miterlimit:4;" d="M 411.500464 228.999976 L 427.999715 243.000155 L 443.999772 248.499561 L 459.999829 254 " transform="matrix(3.779528,0,0,3.779528,0,0)"/>
<path style="fill:none;stroke-width:2;stroke-linecap:butt;stroke-linejoin:miter;stroke:rgb(0%,0%,0%);stroke-opacity:1;stroke-miterlimit:4;" d="M 450.000439 241.500505 L 434.000382 236.999487 L 418.000326 223.499536 " transform="matrix(3.779528,0,0,3.779528,0,0)"/>
<path style="fill:none;stroke-width:2;stroke-linecap:butt;stroke-linejoin:miter;stroke:rgb(0%,0%,0%);stroke-opacity:1;stroke-miterlimit:4;" d="M 414.999992 219.49978 L 431.500277 229.500203 L 447.500334 235.499837 L 463.500391 239.999821 " transform="matrix(3.779528,0,0,3.779528,0,0)"/>
<path style="fill:none;stroke-width:2;stroke-linecap:butt;stroke-linejoin:miter;stroke:rgb(0%,0%,0%);stroke-opacity:1;stroke-miterlimit:4;" d="M 466.000496 255.49965 L 457.999951 239.499593 L 454.000195 257.999756 L 422.000081 246.000488 L 406.500252 230.499626 " transform="matrix(3.779528,0,0,3.779528,0,0)"/>
<path style="fill:none;stroke-width:2;stroke-linecap:butt;stroke-linejoin:miter;stroke:rgb(0%,0%,0%);stroke-opacity:1;stroke-miterlimit:4;" d="M 412.499886 207.500513 L 416.499642 223.499536 L 437.49991 239.499593 " transform="matrix(3.779528,0,0,3.779528,0,0)"/>
<path style="fill:none;stroke-width:2;stroke-linecap:butt;stroke-linejoin:miter;stroke:rgb(0%,0%,0%);stroke-opacity:1;stroke-miterlimit:4;" d="M 421.499854 221.499658 L 417.500098 205.499601 " transform="matrix(3.779528,0,0,3.779528,0,0)"/>
<path style="fill:none;stroke-width:2;stroke-linecap:butt;stroke-linejoin:miter;stroke:rgb(0%,0%,0%);stroke-opacity:1;stroke-miterlimit:4;" d="M 350.000342 255.49965 L 334.000285 250.000244 L 318.500456 246.000488 L 302.500399 241.999699 " transform="matrix(3.779528,0,0,3.779528,0,0)"/>
<path style="fill:none;stroke-width:2;stroke-linecap:butt;stroke-linejoin:miter;stroke:rgb(0%,0%,0%);stroke-opacity:1;stroke-miterlimit:4;" d="M 300.499487 239.000399 L 316.00035 232.999731 L 332.000407 239.499593 L 348.000464 243.500382 " transform="matrix(3.779528,0,0,3.779528,0,0)"/>
<path style="fill:none;stroke-width:2;stroke-linecap:butt;stroke-linejoin:miter;stroke:rgb(0%,0%,0%);stroke-opacity:1;stroke-miterlimit:4;" d="M 358.500081 256.500106 L 354.000098 252.50035 L 358.500081 238.500171 L 342.500024 236.000065 L 326.499967 231.500081 L 310.49991 225.00022 L 293.999626 232.499504 " transform="matrix(3.779528,0,0,3.779528,0,0)"/>
<path style="fill:none;stroke-width:2;stroke-linecap:butt;stroke-linejoin:miter;stroke:rgb(0%,0%,0%);stroke-opacity:1;stroke-miterlimit:4;" d="M 254.500228 231.500081 L 252.999544 215.500024 L 260.499862 200.000195 L 260.499862 184.000138 L 257.999756 168.000081 L 257.999756 159.999536 " transform="matrix(3.779528,0,0,3.779528,0,0)"/>
<path style="fill:none;stroke-width:2;stroke-linecap:butt;stroke-linejoin:miter;stroke:rgb(0%,0%,0%);stroke-opacity:1;stroke-miterlimit:4;" d="M 261.999512 162.000448 L 263.500195 178.000505 L 266.000301 194.499756 L 259.999634 210.499813 L 258.499984 225.999642 " transform="matrix(3.779528,0,0,3.779528,0,0)"/>
<path style="fill:none;stroke-width:2;stroke-linecap:butt;stroke-linejoin:miter;stroke:rgb(0%,0%,0%);stroke-opacity:1;stroke-miterlimit:4;" d="M 240.500049 239.999821 L 224.499992 220.000008 L 216.50048 216.000252 L 212.499691 198.000317 L 212.499691 166.000203 L 221.999886 164.000326 L 236.000065 153.499674 L 220.000008 167.499854 " transform="matrix(3.779528,0,0,3.779528,0,0)"/>
<path style="fill:none;stroke-width:2;stroke-linecap:butt;stroke-linejoin:miter;stroke:rgb(0%,0%,0%);stroke-opacity:1;stroke-miterlimit:4;" d="M 230.499626 164.49952 L 230.999854 180.499577 L 230.999854 212.000496 L 243.000155 230.000431 " transform="matrix(3.779528,0,0,3.779528,0,0)"/>
<path style="fill:none;stroke-width:2;stroke-linecap:butt;stroke-linejoin:miter;stroke:rgb(0%,0%,0%);stroke-opacity:1;stroke-miterlimit:4;" d="M 211.000041 215.500024 L 194.499756 221.499658 L 198.499512 219.49978 L 188.500122 217.499902 L 174.499943 203.499723 L 175.999593 180.000382 L 180.000382 170.500187 L 171.999837 164.49952 L 169.999959 156.500008 L 184.000138 152.500252 L 168.000081 139.999723 " transform="matrix(3.779528,0,0,3.779528,0,0)"/>
<path style="fill:none;stroke-width:2;stroke-linecap:butt;stroke-linejoin:miter;stroke:rgb(0%,0%,0%);stroke-opacity:1;stroke-miterlimit:4;" d="M 168.000081 139.499495 L 162.000448 141.500407 L 166.000203 157.999658 L 168.000081 173.999715 L 169.999959 189.499544 L 180.499577 191.500456 L 187.999894 195.500212 L 184.000138 211.500269 L 175.999593 213.500146 L 178.499699 221.499658 L 205.000407 231.500081 L 220.500236 230.000431 L 221.000464 214.000374 L 257.000334 205.999829 L 268.999601 227.99952 L 271.000513 239.999821 L 271.000513 240.500049 L 266.499495 234.500415 " transform="matrix(3.779528,0,0,3.779528,0,0)"/>
<path style="fill:none;stroke-width:2;stroke-linecap:butt;stroke-linejoin:miter;stroke:rgb(0%,0%,0%);stroke-opacity:1;stroke-miterlimit:4;" d="M 236.000065 264.499618 L 236.000065 280.999902 L 233.499959 296.999959 " transform="matrix(3.779528,0,0,3.779528,0,0)"/>
<path style="fill:none;stroke-width:2;stroke-linecap:butt;stroke-linejoin:miter;stroke:rgb(0%,0%,0%);stroke-opacity:1;stroke-miterlimit:4;" d="M 230.999854 300.000293 L 214.999797 300.000293 L 218.999552 282.000358 L 221.000464 266.000301 L 221.000464 261.999512 " transform="matrix(3.779528,0,0,3.779528,0,0)"/>
<path style="fill:none;stroke-width:2;stroke-linecap:butt;stroke-linejoin:miter;stroke:rgb(0%,0%,0%);stroke-opacity:1;stroke-miterlimit:4;" d="M 214.499569 256.500106 L 212.999919 272.500163 L 200.999618 288.50022 L 209.000163 292.499976 L 207.500513 287.999992 L 215.500024 293.500431 " transform="matrix(3.779528,0,0,3.779528,0,0)"/>
<path style="fill:none;stroke-width:2;stroke-linecap:butt;stroke-linejoin:miter;stroke:rgb(0%,0%,0%);stroke-opacity:1;stroke-miterlimit:4;" d="M 229.500203 281.50013 L 228.999976 265.500073 L 228.499748 257.499528 L 212.499691 257.499528 " transform="matrix(3.779528,0,0,3.779528,0,0)"/>
<path style="fill:none;stroke-width:2;stroke-linecap:butt;stroke-linejoin:miter;stroke:rgb(0%,0%,0%);stroke-opacity:1;stroke-miterlimit:4;" d="M 191.99965 214.999797 L 200.000195 198.499512 L 196.499634 184.999561 L 196.499634 169.499731 L 182.500488 160.999992 " transform="matrix(3.779528,0,0,3.779528,0,0)"/>
<path style="fill:none;stroke-width:2;stroke-linecap:butt;stroke-linejoin:miter;stroke:rgb(0%,0%,0%);stroke-opacity:1;stroke-miterlimit:4;" d="M 191.500456 164.49952 L 191.500456 196.499634 L 195.500212 202.500301 L 223.499536 184.500366 " transform="matrix(3.779528,0,0,3.779528,0,0)"/>
<path style="fill:none;stroke-width:2;stroke-linecap:butt;stroke-linejoin:miter;stroke:rgb(0%,0%,0%);stroke-opacity:1;stroke-miterlimit:4;" d="M 223.999764 184.999561 L 223.999764 200.999618 L 209.500391 216.999674 " transform="matrix(3.779528,0,0,3.779528,0,0)"/>
<path style="fill:none;stroke-width:2;stroke-linecap:butt;stroke-linejoin:miter;stroke:rgb(0%,0%,0%);stroke-opacity:1;stroke-miterlimit:4;" d="M 199.499967 176.499821 L 207.999707 162.99987 L 191.99965 159.000114 " transform="matrix(3.779528,0,0,3.779528,0,0)"/>
<path style="fill:none;stroke-width:2;stroke-linecap:butt;stroke-linejoin:miter;stroke:rgb(0%,0%,0%);stroke-opacity:1;stroke-miterlimit:4;" d="M 202.999495 164.49952 L 202.999495 180.499577 " transform="matrix(3.779528,0,0,3.779528,0,0)"/>
<path style="fill:none;stroke-width:2;stroke-linecap:butt;stroke-linejoin:miter;stroke:rgb(0%,0%,0%);stroke-opacity:1;stroke-miterlimit:4;" d="M 207.999707 183.49991 L 208.499935 167.499854 " transform="matrix(3.779528,0,0,3.779528,0,0)"/>
<path style="fill:none;stroke-width:2;stroke-linecap:butt;stroke-linejoin:miter;stroke:rgb(0%,0%,0%);stroke-opacity:1;stroke-miterlimit:4;" d="M 188.500122 178.000505 L 192.499878 162.000448 L 178.000505 138.500073 L 162.000448 141.000179 " transform="matrix(3.779528,0,0,3.779528,0,0)"/>
<path style="fill:none;stroke-width:2;stroke-linecap:butt;stroke-linejoin:miter;stroke:rgb(0%,0%,0%);stroke-opacity:1;stroke-miterlimit:4;" d="M 171.999837 134.999512 L 189.999772 151.499797 L 184.000138 167.499854 L 184.000138 183.49991 L 180.000382 201.499845 L 169.999959 209.500391 L 171.999837 225.500448 L 172.500065 251.499894 L 166.500431 267.499951 L 171.000415 275.500496 L 171.000415 293.999626 L 153.00048 299.500065 L 150.999569 315.500122 L 159.000114 316.00035 L 166.999626 298.499609 L 182.999683 284.500464 " transform="matrix(3.779528,0,0,3.779528,0,0)"/>
<path style="fill:none;stroke-width:2;stroke-linecap:butt;stroke-linejoin:miter;stroke:rgb(0%,0%,0%);stroke-opacity:1;stroke-miterlimit:4;" d="M 176.499821 415.50022 L 192.499878 411.999658 L 207.999707 418.000326 L 223.499536 425.499609 L 255.999878 425.499609 L 271.999935 429.500399 L 287.999992 431.500277 L 320.000106 431.500277 L 336.000163 429.500399 L 352.00022 429.500399 L 368.000277 433.500155 L 384.000334 439.499788 L 400.000391 447.500334 L 416.000448 454.000195 L 432.000505 461.500513 " transform="matrix(3.779528,0,0,3.779528,0,0)"/>
<path style="fill:none;stroke-width:2;stroke-linecap:butt;stroke-linejoin:miter;stroke:rgb(0%,0%,0%);stroke-opacity:1;stroke-miterlimit:4;" d="M 434.999805 443.499544 L 450.999862 443.499544 L 466.499691 451.50009 L 482.499748 457.499723 " transform="matrix(3.779528,0,0,3.779528,0,0)"/>
<path style="fill:none;stroke-width:2;stroke-linecap:butt;stroke-linejoin:miter;stroke:rgb(0%,0%,0%);stroke-opacity:1;stroke-miterlimit:4;" d="M 468.000374 465.500269 L 484.499626 473.49978 L 500.99991 479.500448 " transform="matrix(3.779528,0,0,3.779528,0,0)"/>
<path style="fill:none;stroke-width:2;stroke-linecap:butt;stroke-linejoin:miter;stroke:rgb(0%,0%,0%);stroke-opacity:1;stroke-miterlimit:4;" d="M 488.000187 449.500212 L 472.00013 445.500456 L 456.000073 441.499666 " transform="matrix(3.779528,0,0,3.779528,0,0)"/>
<path style="fill:none;stroke-width:2;stroke-linecap:butt;stroke-linejoin:miter;stroke:rgb(0%,0%,0%);stroke-opacity:1;stroke-miterlimit:4;" d="M 448.999984 457.999951 L 433.500155 452.000317 L 417.500098 445.99965 L 402.000269 441.999894 " transform="matrix(3.779528,0,0,3.779528,0,0)"/>
<path style="fill:none;stroke-width:2;stroke-linecap:butt;stroke-linejoin:miter;stroke:rgb(0%,0%,0%);stroke-opacity:1;stroke-miterlimit:4;" d="M 389.999967 416.99987 L 405.499797 417.500098 L 421.499854 419.499976 L 421.499854 425.499609 L 436.00026 423.999959 L 452.000317 418.000326 L 468.000374 420.000203 L 485.500081 442.500122 L 501.500138 447.000106 " transform="matrix(3.779528,0,0,3.779528,0,0)"/>
<path style="fill:none;stroke-width:2;stroke-linecap:butt;stroke-linejoin:miter;stroke:rgb(0%,0%,0%);stroke-opacity:1;stroke-miterlimit:4;" d="M 499.000033 436.999683 L 482.999976 432.499699 L 466.999919 432.000505 L 447.000106 433.500155 L 431.000049 441.499666 L 411.000236 431.500277 L 395.000179 423.499731 L 379.000122 419.499976 L 362.499837 417.500098 L 346.49978 416.99987 L 327.999618 413.500342 L 311.999561 418.000326 L 296.499731 420.000203 L 279.000024 425.499609 L 262.999967 415.50022 L 230.999854 415.50022 " transform="matrix(3.779528,0,0,3.779528,0,0)"/>
<path style="fill:none;stroke-width:2;stroke-linecap:butt;stroke-linejoin:miter;stroke:rgb(0%,0%,0%);stroke-opacity:1;stroke-miterlimit:4;" d="M 225.999642 447.000106 L 254 448.999984 L 266.000301 465.500269 L 291.49952 483.500203 " transform="matrix(3.779528,0,0,3.779528,0,0)"/>
<path style="fill:none;stroke-width:2;stroke-linecap:butt;stroke-linejoin:miter;stroke:rgb(0%,0%,0%);stroke-opacity:1;stroke-miterlimit:4;" d="M 304.500277 447.500334 L 320.999528 451.50009 L 336.999585 459.499601 L 352.999642 467.500146 " transform="matrix(3.779528,0,0,3.779528,0,0)"/>
<path style="fill:none;stroke-width:2;stroke-linecap:butt;stroke-linejoin:miter;stroke:rgb(0%,0%,0%);stroke-opacity:1;stroke-miterlimit:4;" d="M 346.49978 452.99974 L 362.499837 452.99974 L 372.000033 443.499544 L 398.000513 459.000407 L 409.99978 465.000041 L 447.999528 470.50048 " transform="matrix(3.779528,0,0,3.779528,0,0)"/>
<path style="fill:none;stroke-width:2;stroke-linecap:butt;stroke-linejoin:miter;stroke:rgb(0%,0%,0%);stroke-opacity:1;stroke-miterlimit:4;" d="M 457.999951 486.000309 L 441.999894 484.000431 L 425.999837 477.999764 L 409.99978 474.000008 L 398.499707 483.500203 L 382.49965 483.500203 L 366.499593 485.500081 L 350.499536 490.000065 L 334.500513 484.000431 L 318.500456 477.999764 L 302.000171 489.499837 L 286.000114 505.499894 L 284.000236 504.999666 L 302.000171 489.499837 L 302.000171 469.500024 L 286.000114 481.500326 L 270.500285 479.999642 L 254.500228 479.999642 L 238.500171 482.499748 L 222.500114 481.99952 L 206.500057 490.000065 L 190.5 490.000065 L 173.999715 491.999943 L 157.999658 493.999821 " transform="matrix(3.779528,0,0,3.779528,0,0)"/>
<path style="fill:none;stroke-width:2;stroke-linecap:butt;stroke-linejoin:miter;stroke:rgb(0%,0%,0%);stroke-opacity:1;stroke-miterlimit:4;" d="M 138.500073 445.500456 L 154.50013 455.499845 L 171.000415 463.500391 L 187.000472 465.500269 L 202.500301 465.000041 L 218.00013 463.500391 L 234.000187 463.500391 L 246.499683 450.000439 L 262.49974 454.500423 L 277.999569 466.999919 L 293.500431 468.999797 " transform="matrix(3.779528,0,0,3.779528,0,0)"/>
<path style="fill:none;stroke-width:2;stroke-linecap:butt;stroke-linejoin:miter;stroke:rgb(0%,0%,0%);stroke-opacity:1;stroke-miterlimit:4;" d="M 298.499609 480.49987 L 282.000358 488.500415 L 266.000301 486.499504 L 249.500016 486.499504 L 233.499959 486.000309 L 217.499902 488.000187 " transform="matrix(3.779528,0,0,3.779528,0,0)"/>
<path style="fill:none;stroke-width:2;stroke-linecap:butt;stroke-linejoin:miter;stroke:rgb(0%,0%,0%);stroke-opacity:1;stroke-miterlimit:4;" d="M 182.500488 442.500122 L 166.999626 436.500488 " transform="matrix(3.779528,0,0,3.779528,0,0)"/>
<path style="fill:none;stroke-width:2;stroke-linecap:butt;stroke-linejoin:miter;stroke:rgb(0%,0%,0%);stroke-opacity:1;stroke-miterlimit:4;" d="M 167.499854 441.999894 L 201.499845 445.99965 " transform="matrix(3.779528,0,0,3.779528,0,0)"/>
<path style="fill:none;stroke-width:2;stroke-linecap:butt;stroke-linejoin:miter;stroke:rgb(0%,0%,0%);stroke-opacity:1;stroke-miterlimit:4;" d="M 264.499618 442.500122 L 292.499976 458.500179 L 296.499731 474.000008 L 300.499487 486.000309 L 280.499674 502.000366 L 295.999504 490.000065 " transform="matrix(3.779528,0,0,3.779528,0,0)"/>
<path style="fill:none;stroke-width:2;stroke-linecap:butt;stroke-linejoin:miter;stroke:rgb(0%,0%,0%);stroke-opacity:1;stroke-miterlimit:4;" d="M 286.500342 476.500114 L 270.500285 468.499569 L 252.000122 456.500301 L 239.999821 468.499569 L 223.499536 470.50048 L 191.99965 470.50048 L 176.499821 470.000252 L 160.499764 465.500269 L 144.499707 457.499723 L 128.49965 443.499544 " transform="matrix(3.779528,0,0,3.779528,0,0)"/>
<path style="fill:none;stroke-width:2;stroke-linecap:butt;stroke-linejoin:miter;stroke:rgb(0%,0%,0%);stroke-opacity:1;stroke-miterlimit:4;" d="M 125.999544 440.500244 L 141.999601 436.500488 L 157.999658 434.000382 L 173.999715 429.999593 L 189.999772 429.500399 L 206.500057 427.000293 L 222.500114 429.500399 L 238.500171 429.500399 L 254 429.999593 L 275.999691 440.000016 L 299.500065 456.500301 L 319.499878 472.00013 " transform="matrix(3.779528,0,0,3.779528,0,0)"/>
<path style="fill:none;stroke-width:2;stroke-linecap:butt;stroke-linejoin:miter;stroke:rgb(0%,0%,0%);stroke-opacity:1;stroke-miterlimit:4;" d="M 339.499691 463.999585 L 309.500488 447.999528 " transform="matrix(3.779528,0,0,3.779528,0,0)"/>
<path style="fill:none;stroke-width:2;stroke-linecap:butt;stroke-linejoin:miter;stroke:rgb(0%,0%,0%);stroke-opacity:1;stroke-miterlimit:4;" d="M 292.499976 438.999561 L 314.000472 455.499845 L 343.999674 471.499902 " transform="matrix(3.779528,0,0,3.779528,0,0)"/>
<path style="fill:none;stroke-width:2;stroke-linecap:butt;stroke-linejoin:miter;stroke:rgb(0%,0%,0%);stroke-opacity:1;stroke-miterlimit:4;" d="M 338.500269 448.499756 L 334.500513 446.499878 L 350.499536 448.499756 L 350.000342 454.500423 L 366.000399 458.500179 L 384.499528 456.500301 " transform="matrix(3.779528,0,0,3.779528,0,0)"/>
<path style="fill:none;stroke-width:2;stroke-linecap:butt;stroke-linejoin:miter;stroke:rgb(0%,0%,0%);stroke-opacity:1;stroke-miterlimit:4;" d="M 387.499862 476.500114 L 355.499748 484.499626 L 339.999919 479.999642 L 324.50009 474.000008 L 309.00026 459.999829 L 293.000203 449.500212 L 277.500374 438.999561 " transform="matrix(3.779528,0,0,3.779528,0,0)"/>
<path style="fill:none;stroke-width:2;stroke-linecap:butt;stroke-linejoin:miter;stroke:rgb(0%,0%,0%);stroke-opacity:1;stroke-miterlimit:4;" d="M 305.999927 377.999666 L 289.99987 377.999666 L 274.500041 375.499561 L 258.499984 375.499561 L 242.499927 373.000488 L 225.999642 373.499683 L 209.999585 373.99991 L 193.999528 372.000033 L 178.000505 372.50026 L 162.000448 370.500382 L 146.000391 370.000155 L 130.000334 368.000277 L 114.000277 368.000277 L 98.00022 365.500171 L 82.000163 366.000399 L 66.000106 366.000399 L 50.500277 366.499593 L 35.000448 366.999821 L 19.000391 364.999943 L 3.000334 364.999943 " transform="matrix(3.779528,0,0,3.779528,0,0)"/>
<path style="fill:none;stroke-width:2;stroke-linecap:butt;stroke-linejoin:miter;stroke:rgb(0%,0%,0%);stroke-opacity:1;stroke-miterlimit:4;" d="M 3.499528 360.499959 L 35.000448 360.499959 L 50.500277 359.999731 L 66.000106 361.999609 L 82.000163 361.500415 L 113.500049 361.500415 L 129.500106 363.500293 L 145.500163 363.000065 L 161.50022 364.999943 L 177.500277 364.999943 L 193.999528 366.999821 L 209.999585 367.500049 L 226.49987 370.000155 L 259.000212 370.000155 L 275.000269 372.000033 L 291.49952 372.000033 L 307.499577 373.99991 L 323.499634 376.500016 " transform="matrix(3.779528,0,0,3.779528,0,0)"/>
<path style="fill:none;stroke-width:2;stroke-linecap:butt;stroke-linejoin:miter;stroke:rgb(0%,0%,0%);stroke-opacity:1;stroke-miterlimit:4;" d="M 379.999544 398.000513 L 363.999487 397.500285 L 332.000407 397.500285 L 316.499544 395.999601 L 300.499487 395.999601 L 284.500464 396.499829 L 268.500407 396.499829 L 252.000122 394.499951 L 219.49978 394.499951 L 203.499723 391.999845 L 155.000358 391.999845 L 139.000301 389.999967 L 107.999609 389.999967 L 91.999552 390.500195 L 75.500301 391.000423 L 59.500244 391.000423 L 44.000415 388.999512 L 28.000358 386.500439 " transform="matrix(3.779528,0,0,3.779528,0,0)"/>
<path style="fill:none;stroke-width:2;stroke-linecap:butt;stroke-linejoin:miter;stroke:rgb(0%,0%,0%);stroke-opacity:1;stroke-miterlimit:4;" d="M 28.000358 382.999878 L 44.000415 382.999878 L 60.499666 386.999634 L 91.999552 386.999634 L 107.500415 386.500439 L 139.000301 386.500439 L 155.000358 386.000212 L 170.500187 385.499984 L 186.500244 387.499862 L 235.499837 387.499862 L 251.499894 389.49974 L 268.000179 389.49974 L 284.000236 389.999967 L 300.499487 389.999967 L 316.499544 391.999845 L 332.999829 392.500073 L 348.999886 394.499951 L 364.999943 394.499951 L 381 393.999723 " transform="matrix(3.779528,0,0,3.779528,0,0)"/>
<path style="fill:none;stroke-width:2;stroke-linecap:butt;stroke-linejoin:miter;stroke:rgb(0%,0%,0%);stroke-opacity:1;stroke-miterlimit:4;" d="M 386.500439 373.499683 L 370.999577 372.000033 L 355.499748 370.000155 L 339.499691 370.000155 L 323.999862 368.000277 L 307.499577 366.000399 L 291.49952 363.999487 L 275.000269 361.999609 L 258.499984 361.500415 L 241.999699 359.499504 L 225.999642 357.499626 L 209.500391 357.499626 L 193.500334 355.499748 L 177.500277 355.499748 L 161.50022 353.49987 L 145.500163 350.999764 L 112.999821 350.999764 L 97.499992 348.499658 L 81.499935 348.999886 L 66.000106 347.000008 L 50.000049 347.000008 L 34.50022 347.500236 L 18.500163 345.999552 L 2.500106 345.999552 " transform="matrix(3.779528,0,0,3.779528,0,0)"/>
<path style="fill:none;stroke-width:2;stroke-linecap:butt;stroke-linejoin:miter;stroke:rgb(0%,0%,0%);stroke-opacity:1;stroke-miterlimit:4;" d="M 3.000334 416.499642 L 5.000212 410.500008 L 69.499634 410.500008 L 85.000496 412.499886 L 100.99952 410.500008 L 116.999577 409.99978 L 132.500439 409.499552 " transform="matrix(3.779528,0,0,3.779528,0,0)"/>
<path style="fill:none;stroke-width:2;stroke-linecap:butt;stroke-linejoin:miter;stroke:rgb(0%,0%,0%);stroke-opacity:1;stroke-miterlimit:4;" d="M 125.50035 423.499731 L 109.500293 423.499731 " transform="matrix(3.779528,0,0,3.779528,0,0)"/>
<path style="fill:none;stroke-width:2;stroke-linecap:butt;stroke-linejoin:miter;stroke:rgb(0%,0%,0%);stroke-opacity:1;stroke-miterlimit:4;" d="M 101.499748 435.500033 L 121.499561 451.50009 L 137.499618 467.500146 L 133.499862 484.000431 " transform="matrix(3.779528,0,0,3.779528,0,0)"/>
<path style="fill:none;stroke-width:2;stroke-linecap:butt;stroke-linejoin:miter;stroke:rgb(0%,0%,0%);stroke-opacity:1;stroke-miterlimit:4;" d="M 137.499618 443.00035 L 153.499674 442.500122 L 169.499731 442.500122 L 185.499788 448.499756 L 201.499845 452.499512 L 216.999674 448.499756 L 232.999731 450.499634 L 248.499561 459.000407 L 256.500106 445.500456 L 271.999935 439.499788 L 287.499764 439.499788 L 303.499821 445.500456 L 319.499878 445.000228 L 336.000163 447.000106 L 352.500448 440.500244 L 368.999699 440.000016 L 384.499528 447.500334 L 400.000391 451.50009 L 415.50022 459.499601 L 429.500399 465.500269 L 445.000228 466.999919 " transform="matrix(3.779528,0,0,3.779528,0,0)"/>
<path style="fill:none;stroke-width:2;stroke-linecap:butt;stroke-linejoin:miter;stroke:rgb(0%,0%,0%);stroke-opacity:1;stroke-miterlimit:4;" d="M 400.499585 467.500146 L 384.499528 467.500146 L 368.500505 469.500024 L 352.500448 474.000008 L 336.500391 468.499569 L 318.000228 458.500179 L 298.000415 460.500057 L 282.499552 450.499634 L 258.499984 438.500366 L 242.499927 438.500366 L 226.49987 442.500122 L 210.499813 436.999683 L 207.000285 438.500366 L 180.499577 440.500244 L 154.50013 425.999837 L 138.500073 428.499943 L 122.500016 429.999593 L 105.999731 429.999593 L 89.999674 434.000382 L 73.999618 440.000016 " transform="matrix(3.779528,0,0,3.779528,0,0)"/>
<path style="fill:none;stroke-width:2;stroke-linecap:butt;stroke-linejoin:miter;stroke:rgb(0%,0%,0%);stroke-opacity:1;stroke-miterlimit:4;" d="M 77.500179 444.5 L 93.500236 464.499813 L 109.500293 484.999854 L 125.50035 488.999609 " transform="matrix(3.779528,0,0,3.779528,0,0)"/>
<path style="fill:none;stroke-width:2;stroke-linecap:butt;stroke-linejoin:miter;stroke:rgb(0%,0%,0%);stroke-opacity:1;stroke-miterlimit:4;" d="M 139.499495 468.000374 L 123.500472 454.000195 L 107.500415 437.49991 L 91.999552 433.500155 " transform="matrix(3.779528,0,0,3.779528,0,0)"/>
<path style="fill:none;stroke-width:2;stroke-linecap:butt;stroke-linejoin:miter;stroke:rgb(0%,0%,0%);stroke-opacity:1;stroke-miterlimit:4;" d="M 87.999797 440.500244 L 91.999552 456.000073 L 103.499626 472.500358 " transform="matrix(3.779528,0,0,3.779528,0,0)"/>
<path style="fill:none;stroke-width:2;stroke-linecap:butt;stroke-linejoin:miter;stroke:rgb(0%,0%,0%);stroke-opacity:1;stroke-miterlimit:4;" d="M 103.499626 488.000187 L 87.499569 470.000252 L 71.499512 450.000439 L 55.500488 434.000382 " transform="matrix(3.779528,0,0,3.779528,0,0)"/>
<path style="fill:none;stroke-width:2;stroke-linecap:butt;stroke-linejoin:miter;stroke:rgb(0%,0%,0%);stroke-opacity:1;stroke-miterlimit:4;" d="M 51.499699 430.499821 L 67.499756 426.500065 L 83.499813 428.499943 L 73.500423 444.5 L 87.499569 459.999829 L 101.999976 475.999886 " transform="matrix(3.779528,0,0,3.779528,0,0)"/>
<path style="fill:none;stroke-width:2;stroke-linecap:butt;stroke-linejoin:miter;stroke:rgb(0%,0%,0%);stroke-opacity:1;stroke-miterlimit:4;" d="M 102.500203 493.000399 L 86.500146 475.000464 L 69.999862 456.999495 L 53.999805 439.499788 L 37.49952 440.000016 L 21.000269 443.499544 " transform="matrix(3.779528,0,0,3.779528,0,0)"/>
<path style="fill:none;stroke-width:2;stroke-linecap:butt;stroke-linejoin:miter;stroke:rgb(0%,0%,0%);stroke-opacity:1;stroke-miterlimit:4;" d="M 25.500252 440.000016 L 29.500008 456.500301 L 39.500431 472.999552 L 49.499821 489.499837 " transform="matrix(3.779528,0,0,3.779528,0,0)"/>
<path style="fill:none;stroke-width:2;stroke-linecap:butt;stroke-linejoin:miter;stroke:rgb(0%,0%,0%);stroke-opacity:1;stroke-miterlimit:4;" d="M 71.499512 479.00022 L 87.499569 490.500293 " transform="matrix(3.779528,0,0,3.779528,0,0)"/>
<path style="fill:none;stroke-width:2;stroke-linecap:butt;stroke-linejoin:miter;stroke:rgb(0%,0%,0%);stroke-opacity:1;stroke-miterlimit:4;" d="M 91.500358 496.499927 L 78.000407 480.49987 L 74.499845 464.499813 L 60.499666 447.999528 L 53.000382 431.500277 L 66.999528 419.499976 L 51.000505 423.499731 L 35.000448 425.499609 L 19.000391 425.999837 " transform="matrix(3.779528,0,0,3.779528,0,0)"/>
<path style="fill:none;stroke-width:2;stroke-linecap:butt;stroke-linejoin:miter;stroke:rgb(0%,0%,0%);stroke-opacity:1;stroke-miterlimit:4;" d="M 9.500195 436.999683 L 19.499585 452.99974 L 31.499886 468.999797 L 41.500309 485.500081 L 61.500122 489.499837 L 77.500179 495.500505 " transform="matrix(3.779528,0,0,3.779528,0,0)"/>
<path style="fill:none;stroke-width:2;stroke-linecap:butt;stroke-linejoin:miter;stroke:rgb(0%,0%,0%);stroke-opacity:1;stroke-miterlimit:4;" d="M 55.999683 494.500049 L 39.999626 472.500358 L 23.999569 448.499756 " transform="matrix(3.779528,0,0,3.779528,0,0)"/>
<path style="fill:none;stroke-width:2;stroke-linecap:butt;stroke-linejoin:miter;stroke:rgb(0%,0%,0%);stroke-opacity:1;stroke-miterlimit:4;" d="M 5.500439 441.999894 L 21.500496 469.500024 " transform="matrix(3.779528,0,0,3.779528,0,0)"/>
<path style="fill:none;stroke-width:2;stroke-linecap:butt;stroke-linejoin:miter;stroke:rgb(0%,0%,0%);stroke-opacity:1;stroke-miterlimit:4;" d="M 17.999935 470.999674 L 1.999878 454.999618 " transform="matrix(3.779528,0,0,3.779528,0,0)"/>
<path style="fill:none;stroke-width:2;stroke-linecap:butt;stroke-linejoin:miter;stroke:rgb(0%,0%,0%);stroke-opacity:1;stroke-miterlimit:4;" d="M 3.000334 453.499967 L 7.00009 469.500024 L 14.999601 470.000252 L 25.500252 484.499626 L 23.999569 500.499683 " transform="matrix(3.779528,0,0,3.779528,0,0)"/>
<path style="fill:none;stroke-width:2;stroke-linecap:butt;stroke-linejoin:miter;stroke:rgb(0%,0%,0%);stroke-opacity:1;stroke-miterlimit:4;" d="M 51.999927 497.000155 L 35.99987 475.000464 L 19.999813 453.499967 L 3.999756 439.499788 " transform="matrix(3.779528,0,0,3.779528,0,0)"/>
<path style="fill:none;stroke-width:2;stroke-linecap:butt;stroke-linejoin:miter;stroke:rgb(0%,0%,0%);stroke-opacity:1;stroke-miterlimit:4;" d="M 5.999634 435.500033 L 12.000301 451.50009 L 19.999813 466.999919 L 30.000236 482.999976 L 30.000236 499.000033 L 23.999569 497.000155 " transform="matrix(3.779528,0,0,3.779528,0,0)"/>
<path style="fill:none;stroke-width:2;stroke-linecap:butt;stroke-linejoin:miter;stroke:rgb(0%,0%,0%);stroke-opacity:1;stroke-miterlimit:4;" d="M 69.499634 470.999674 L 77.500179 486.999731 " transform="matrix(3.779528,0,0,3.779528,0,0)"/>
<path style="fill:none;stroke-width:2;stroke-linecap:butt;stroke-linejoin:miter;stroke:rgb(0%,0%,0%);stroke-opacity:1;stroke-miterlimit:4;" d="M 82.999585 472.500358 L 96.999764 488.500415 " transform="matrix(3.779528,0,0,3.779528,0,0)"/>
<path style="fill:none;stroke-width:2;stroke-linecap:butt;stroke-linejoin:miter;stroke:rgb(0%,0%,0%);stroke-opacity:1;stroke-miterlimit:4;" d="M 131.499984 475.499658 L 115.499927 481.500326 L 83.499813 445.500456 " transform="matrix(3.779528,0,0,3.779528,0,0)"/>
<path style="fill:none;stroke-width:2;stroke-linecap:butt;stroke-linejoin:miter;stroke:rgb(0%,0%,0%);stroke-opacity:1;stroke-miterlimit:4;" d="M 82.000163 441.499666 L 98.00022 441.999894 L 114.000277 452.499512 L 130.000334 466.499691 " transform="matrix(3.779528,0,0,3.779528,0,0)"/>
<path style="fill:none;stroke-width:2;stroke-linecap:butt;stroke-linejoin:miter;stroke:rgb(0%,0%,0%);stroke-opacity:1;stroke-miterlimit:4;" d="M 132.000212 475.499658 L 119.99991 459.499601 L 103.999854 443.499544 " transform="matrix(3.779528,0,0,3.779528,0,0)"/>
<path style="fill:none;stroke-width:2;stroke-linecap:butt;stroke-linejoin:miter;stroke:rgb(0%,0%,0%);stroke-opacity:1;stroke-miterlimit:4;" d="M 129.500106 438.000138 L 137.499618 454.000195 L 167.499854 470.50048 " transform="matrix(3.779528,0,0,3.779528,0,0)"/>
<path style="fill:none;stroke-width:2;stroke-linecap:butt;stroke-linejoin:miter;stroke:rgb(0%,0%,0%);stroke-opacity:1;stroke-miterlimit:4;" d="M 153.00048 457.999951 L 135.49974 441.999894 " transform="matrix(3.779528,0,0,3.779528,0,0)"/>
<path style="fill:none;stroke-width:2;stroke-linecap:butt;stroke-linejoin:miter;stroke:rgb(0%,0%,0%);stroke-opacity:1;stroke-miterlimit:4;" d="M 105.000309 489.499837 L 89.000252 473.49978 L 75.500301 457.999951 L 64.000228 441.999894 " transform="matrix(3.779528,0,0,3.779528,0,0)"/>
<path style="fill:none;stroke-width:2;stroke-linecap:butt;stroke-linejoin:miter;stroke:rgb(0%,0%,0%);stroke-opacity:1;stroke-miterlimit:4;" d="M 2.500106 425.000415 L 18.500163 420.999626 L 32.500342 416.99987 L 48.500399 417.500098 L 64.99965 416.99987 L 93.000008 414.999992 L 109.000065 414.999992 L 125.000122 416.99987 L 141.000179 413.000114 L 157.500464 418.999748 L 161.50022 422.999504 L 177.500277 424.500187 L 193.500334 424.500187 L 197.50009 418.49952 L 223.499536 416.499642 L 239.000399 412.499886 L 255.000456 412.499886 L 270.500285 416.99987 L 286.500342 421.499854 L 302.000171 415.50022 L 317.5 413.500342 L 335.499935 425.499609 L 351.499992 413.000114 L 368.000277 413.000114 L 384.499528 416.499642 L 400.999813 411.999658 L 416.499642 411.500464 L 432.000505 421.499854 L 449.500212 411.500464 L 465.500269 413.500342 L 481.000098 425.000415 L 497.500382 431.500277 " transform="matrix(3.779528,0,0,3.779528,0,0)"/>
<path style="fill:none;stroke-width:2;stroke-linecap:butt;stroke-linejoin:miter;stroke:rgb(0%,0%,0%);stroke-opacity:1;stroke-miterlimit:4;" d="M 470.999674 429.999593 L 443.00035 433.500155 L 441.000472 447.000106 L 456.999495 454.999618 L 470.999674 459.000407 L 486.499504 463.000163 L 502.999788 461.000285 " transform="matrix(3.779528,0,0,3.779528,0,0)"/>
<path style="fill:none;stroke-width:2;stroke-linecap:butt;stroke-linejoin:miter;stroke:rgb(0%,0%,0%);stroke-opacity:1;stroke-miterlimit:4;" d="M 497.999577 502.499561 L 482.499748 502.499561 L 466.499691 504.000244 L 450.999862 497.999577 L 435.500033 503.500016 L 420.000203 509.999878 " transform="matrix(3.779528,0,0,3.779528,0,0)"/>
<path style="fill:none;stroke-width:2;stroke-linecap:butt;stroke-linejoin:miter;stroke:rgb(0%,0%,0%);stroke-opacity:1;stroke-miterlimit:4;" d="M 401.500041 510.500106 L 416.99987 500.499683 L 427.000293 512.499984 L 454.999618 502.499561 L 470.50048 497.999577 L 486.000309 495.999699 L 502.000366 495.999699 " transform="matrix(3.779528,0,0,3.779528,0,0)"/>
<path style="fill:none;stroke-width:2;stroke-linecap:butt;stroke-linejoin:miter;stroke:rgb(0%,0%,0%);stroke-opacity:1;stroke-miterlimit:4;" d="M 502.000366 485.500081 L 486.000309 479.00022 L 470.000252 472.999552 L 445.99965 479.00022 L 430.499821 473.49978 L 422.999504 463.500391 L 398.999935 447.500334 L 361.000187 431.500277 " transform="matrix(3.779528,0,0,3.779528,0,0)"/>
<path style="fill:none;stroke-width:2;stroke-linecap:butt;stroke-linejoin:miter;stroke:rgb(0%,0%,0%);stroke-opacity:1;stroke-miterlimit:4;" d="M 377.000244 420.500431 L 397.000057 436.00026 L 432.999927 452.000317 L 466.999919 451.50009 L 494.500049 453.499967 L 506.000122 473.49978 L 508 475.499658 " transform="matrix(3.779528,0,0,3.779528,0,0)"/>
<path style="fill:none;stroke-width:2;stroke-linecap:butt;stroke-linejoin:miter;stroke:rgb(0%,0%,0%);stroke-opacity:1;stroke-miterlimit:4;" d="M 500.499683 439.499788 L 475.000464 437.49991 L 477.000342 422.000081 L 465.000041 420.000203 " transform="matrix(3.779528,0,0,3.779528,0,0)"/>
<path style="fill:none;stroke-width:2;stroke-linecap:butt;stroke-linejoin:miter;stroke:rgb(0%,0%,0%);stroke-opacity:1;stroke-miterlimit:4;" d="M 429.500399 420.000203 L 427.499487 436.00026 L 447.500334 452.000317 L 470.999674 468.000374 " transform="matrix(3.779528,0,0,3.779528,0,0)"/>
<path style="fill:none;stroke-width:2;stroke-linecap:butt;stroke-linejoin:miter;stroke:rgb(0%,0%,0%);stroke-opacity:1;stroke-miterlimit:4;" d="M 330.499723 239.499593 L 302.000171 235.499837 L 303.499821 217.499902 L 300.999715 201.499845 L 300.999715 186.000016 " transform="matrix(3.779528,0,0,3.779528,0,0)"/>
<path style="fill:none;stroke-width:2;stroke-linecap:butt;stroke-linejoin:miter;stroke:rgb(0%,0%,0%);stroke-opacity:1;stroke-miterlimit:4;" d="M 281.50013 184.500366 L 279.500252 200.500423 " transform="matrix(3.779528,0,0,3.779528,0,0)"/>
<path style="fill:none;stroke-width:2;stroke-linecap:butt;stroke-linejoin:miter;stroke:rgb(0%,0%,0%);stroke-opacity:1;stroke-miterlimit:4;" d="M 290.500098 198.000317 L 275.000269 198.499512 L 277.000146 182.500488 L 269.499829 180.499577 L 269.499829 164.49952 " transform="matrix(3.779528,0,0,3.779528,0,0)"/>
<path style="fill:none;stroke-width:2;stroke-linecap:butt;stroke-linejoin:miter;stroke:rgb(0%,0%,0%);stroke-opacity:1;stroke-miterlimit:4;" d="M 300.000293 164.000326 L 293.999626 180.000382 L 287.999992 196.000439 L 295.999504 200.500423 L 298.000415 216.50048 L 295.999504 232.499504 L 295.500309 248.499561 L 305.000505 252.50035 L 320.999528 252.50035 L 337.499813 257.999756 L 353.49987 259.999634 " transform="matrix(3.779528,0,0,3.779528,0,0)"/>
<path style="fill:none;stroke-width:2;stroke-linecap:butt;stroke-linejoin:miter;stroke:rgb(0%,0%,0%);stroke-opacity:1;stroke-miterlimit:4;" d="M 304.500277 166.500431 L 300.499487 182.500488 L 292.499976 198.499512 L 302.500399 164.49952 " transform="matrix(3.779528,0,0,3.779528,0,0)"/>
<path style="fill:none;stroke-width:2;stroke-linecap:butt;stroke-linejoin:miter;stroke:rgb(0%,0%,0%);stroke-opacity:1;stroke-miterlimit:4;" d="M 236.999487 157.000236 L 238.500171 173.000293 L 239.000399 189.00035 L 238.500171 205.000407 L 236.500293 222.500114 L 234.000187 238.500171 " transform="matrix(3.779528,0,0,3.779528,0,0)"/>
<path style="fill:none;stroke-width:2;stroke-linecap:butt;stroke-linejoin:miter;stroke:rgb(0%,0%,0%);stroke-opacity:1;stroke-miterlimit:4;" d="M 220.500236 202.000073 L 216.999674 196.000439 L 218.999552 178.000505 L 225.00022 176.499821 L 230.999854 160.499764 " transform="matrix(3.779528,0,0,3.779528,0,0)"/>
<path style="fill:none;stroke-width:2;stroke-linecap:butt;stroke-linejoin:miter;stroke:rgb(0%,0%,0%);stroke-opacity:1;stroke-miterlimit:4;" d="M 130.000334 205.999829 L 127.500228 189.499544 L 127.500228 173.499487 L 125.50035 157.500464 L 125.999544 141.500407 L 119.99991 125.50035 " transform="matrix(3.779528,0,0,3.779528,0,0)"/>
<path style="fill:none;stroke-width:2;stroke-linecap:butt;stroke-linejoin:miter;stroke:rgb(0%,0%,0%);stroke-opacity:1;stroke-miterlimit:4;" d="M 100.500326 146.999813 L 100.500326 162.499642 " transform="matrix(3.779528,0,0,3.779528,0,0)"/>
<path style="fill:none;stroke-width:2;stroke-linecap:butt;stroke-linejoin:miter;stroke:rgb(0%,0%,0%);stroke-opacity:1;stroke-miterlimit:4;" d="M 96.000342 144.499707 L 95.500114 159.999536 L 95.500114 191.500456 L 96.000342 207.999707 " transform="matrix(3.779528,0,0,3.779528,0,0)"/>
</g>
</svg>
