<?xml version="1.0" encoding="UTF-8"?>
<svg xmlns="http://www.w3.org/2000/svg" xmlns:xlink="http://www.w3.org/1999/xlink" width="1935.11811" height="1935.11811" viewBox="0 0 1935.11811 1935.11811" version="1.1">
<g id="surface1">
<path style="fill:none;stroke-width:2;stroke-linecap:butt;stroke-linejoin:miter;stroke:rgb(0%,0%,0%);stroke-opacity:1;stroke-miterlimit:4;" d="M 345.500358 2.500106 L 353.49987 18.500163 L 373.499683 34.50022 L 383.500106 50.500277 " transform="matrix(3.779528,0,0,3.779528,0,0)"/>
<path style="fill:none;stroke-width:2;stroke-linecap:butt;stroke-linejoin:miter;stroke:rgb(0%,0%,0%);stroke-opacity:1;stroke-miterlimit:4;" d="M 391.999845 24.499797 L 407.999902 46.499487 L 423.999959 60.499666 " transform="matrix(3.779528,0,0,3.779528,0,0)"/>
<path style="fill:none;stroke-width:2;stroke-linecap:butt;stroke-linejoin:miter;stroke:rgb(0%,0%,0%);stroke-opacity:1;stroke-miterlimit:4;" d="M 451.50009 62.499544 L 453.499967 66.500334 L 459.499601 82.500391 " transform="matrix(3.779528,0,0,3.779528,0,0)"/>
<path style="fill:none;stroke-width:2;stroke-linecap:butt;stroke-linejoin:miter;stroke:rgb(0%,0%,0%);stroke-opacity:1;stroke-miterlimit:4;" d="M 454.000195 75.000073 L 470.50048 88.500024 L 486.999731 94.999886 L 502.999788 94.999886 " transform="matrix(3.779528,0,0,3.779528,0,0)"/>
<path style="fill:none;stroke-width:2;stroke-linecap:butt;stroke-linejoin:miter;stroke:rgb(0%,0%,0%);stroke-opacity:1;stroke-miterlimit:4;" d="M 507.499772 87.999797 L 491.499715 87.999797 L 475.499658 84.000041 L 459.499601 69.999862 " transform="matrix(3.779528,0,0,3.779528,0,0)"/>
<path style="fill:none;stroke-width:2;stroke-linecap:butt;stroke-linejoin:miter;stroke:rgb(0%,0%,0%);stroke-opacity:1;stroke-miterlimit:4;" d="M 461.500513 75.999495 L 457.999951 60.499666 " transform="matrix(3.779528,0,0,3.779528,0,0)"/>
<path style="fill:none;stroke-width:2;stroke-linecap:butt;stroke-linejoin:miter;stroke:rgb(0%,0%,0%);stroke-opacity:1;stroke-miterlimit:4;" d="M 413.999536 87.000374 L 398.000513 105.000309 " transform="matrix(3.779528,0,0,3.779528,0,0)"/>
<path style="fill:none;stroke-width:2;stroke-linecap:butt;stroke-linejoin:miter;stroke:rgb(0%,0%,0%);stroke-opacity:1;stroke-miterlimit:4;" d="M 379.000122 113.500049 L 393.499495 119.99991 L 404.000146 135.49974 L 407.999902 150.999569 L 412.499886 166.999626 L 414.499764 182.999683 L 418.49952 198.99974 L 420.999626 215.500024 L 420.999626 231.500081 L 422.500309 246.99991 L 422.500309 295.000081 L 422.000081 310.49991 L 420.000203 327.000195 L 418.000326 343.000252 L 409.000358 375.000366 L 390.500195 393.000301 L 400.499585 409.499552 L 407.999902 425.499609 " transform="matrix(3.779528,0,0,3.779528,0,0)"/>
<path style="fill:none;stroke-width:2;stroke-linecap:butt;stroke-linejoin:miter;stroke:rgb(0%,0%,0%);stroke-opacity:1;stroke-miterlimit:4;" d="M 398.499707 447.500334 L 382.49965 461.500513 L 366.499593 461.999707 L 350.499536 442.500122 " transform="matrix(3.779528,0,0,3.779528,0,0)"/>
<path style="fill:none;stroke-width:2;stroke-linecap:butt;stroke-linejoin:miter;stroke:rgb(0%,0%,0%);stroke-opacity:1;stroke-miterlimit:4;" d="M 346.49978 436.999683 L 362.499837 418.49952 L 379.000122 412.499886 L 395.500407 422.500309 " transform="matrix(3.779528,0,0,3.779528,0,0)"/>
<path style="fill:none;stroke-width:2;stroke-linecap:butt;stroke-linejoin:miter;stroke:rgb(0%,0%,0%);stroke-opacity:1;stroke-miterlimit:4;" d="M 402.000269 421.499854 L 385.499984 407.499674 L 369.499927 405.499797 L 353.49987 415.50022 L 331.500179 435.500033 L 329.500301 419.499976 L 321.999984 415.50022 L 306.500155 419.499976 L 290.500098 421.499854 L 241.999699 421.499854 L 225.500448 422.000081 L 209.500391 418.000326 L 193.500334 422.000081 " transform="matrix(3.779528,0,0,3.779528,0,0)"/>
<path style="fill:none;stroke-width:2;stroke-linecap:butt;stroke-linejoin:miter;stroke:rgb(0%,0%,0%);stroke-opacity:1;stroke-miterlimit:4;" d="M 202.500301 414.999992 L 186.500244 431.500277 L 184.000138 447.500334 L 178.000505 463.500391 " transform="matrix(3.779528,0,0,3.779528,0,0)"/>
<path style="fill:none;stroke-width:2;stroke-linecap:butt;stroke-linejoin:miter;stroke:rgb(0%,0%,0%);stroke-opacity:1;stroke-miterlimit:4;" d="M 168.000081 454.000195 L 173.999715 437.49991 L 166.000203 421.499854 L 162.000448 411.500464 L 146.000391 399.500163 " transform="matrix(3.779528,0,0,3.779528,0,0)"/>
<path style="fill:none;stroke-width:2;stroke-linecap:butt;stroke-linejoin:miter;stroke:rgb(0%,0%,0%);stroke-opacity:1;stroke-miterlimit:4;" d="M 146.499585 400.499585 L 166.500431 416.499642 L 180.499577 420.500431 L 180.499577 436.500488 L 178.499699 452.499512 L 168.500309 460.500057 " transform="matrix(3.779528,0,0,3.779528,0,0)"/>
<path style="fill:none;stroke-width:2;stroke-linecap:butt;stroke-linejoin:miter;stroke:rgb(0%,0%,0%);stroke-opacity:1;stroke-miterlimit:4;" d="M 167.499854 432.499699 L 151.499797 416.499642 L 135.49974 413.999536 L 119.499683 429.999593 " transform="matrix(3.779528,0,0,3.779528,0,0)"/>
<path style="fill:none;stroke-width:2;stroke-linecap:butt;stroke-linejoin:miter;stroke:rgb(0%,0%,0%);stroke-opacity:1;stroke-miterlimit:4;" d="M 109.999487 421.499854 L 135.999967 405.499797 L 118.000033 420.999626 L 109.999487 441.000472 L 125.999544 459.000407 L 141.999601 468.999797 L 157.999658 468.999797 L 173.999715 466.999919 " transform="matrix(3.779528,0,0,3.779528,0,0)"/>
<path style="fill:none;stroke-width:2;stroke-linecap:butt;stroke-linejoin:miter;stroke:rgb(0%,0%,0%);stroke-opacity:1;stroke-miterlimit:4;" d="M 165.499976 447.500334 L 149.499919 463.000163 L 133.499862 456.999495 L 117.499805 443.00035 " transform="matrix(3.779528,0,0,3.779528,0,0)"/>
<path style="fill:none;stroke-width:2;stroke-linecap:butt;stroke-linejoin:miter;stroke:rgb(0%,0%,0%);stroke-opacity:1;stroke-miterlimit:4;" d="M 104.500081 450.499634 L 121.000366 466.499691 " transform="matrix(3.779528,0,0,3.779528,0,0)"/>
<path style="fill:none;stroke-width:2;stroke-linecap:butt;stroke-linejoin:miter;stroke:rgb(0%,0%,0%);stroke-opacity:1;stroke-miterlimit:4;" d="M 132.999634 479.500448 L 116.999577 470.000252 L 100.99952 454.000195 " transform="matrix(3.779528,0,0,3.779528,0,0)"/>
<path style="fill:none;stroke-width:2;stroke-linecap:butt;stroke-linejoin:miter;stroke:rgb(0%,0%,0%);stroke-opacity:1;stroke-miterlimit:4;" d="M 99.49987 450.000439 L 115.499927 459.999829 " transform="matrix(3.779528,0,0,3.779528,0,0)"/>
<path style="fill:none;stroke-width:2;stroke-linecap:butt;stroke-linejoin:miter;stroke:rgb(0%,0%,0%);stroke-opacity:1;stroke-miterlimit:4;" d="M 123.999666 457.999951 L 109.999487 441.999894 L 103.999854 425.499609 L 107.999609 409.99978 L 109.999487 393.999723 L 102.500203 378.499894 L 96.999764 363.000065 L 94.999886 347.000008 L 91.00013 330.999951 L 89.000252 314.499666 L 86.500146 298.499609 L 86.500146 282.000358 L 84.500269 265.500073 L 82.500391 241.000277 L 66.000106 249.500016 L 50.000049 252.000122 L 33.999992 254 L 17.999935 254.500228 L 1.999878 254.500228 " transform="matrix(3.779528,0,0,3.779528,0,0)"/>
<path style="fill:none;stroke-width:2;stroke-linecap:butt;stroke-linejoin:miter;stroke:rgb(0%,0%,0%);stroke-opacity:1;stroke-miterlimit:4;" d="M 3.000334 259.999634 L 19.000391 259.500439 L 35.000448 259.500439 L 51.000505 257.999756 L 66.999528 256.500106 L 82.999585 250.500472 " transform="matrix(3.779528,0,0,3.779528,0,0)"/>
<path style="fill:none;stroke-width:2;stroke-linecap:butt;stroke-linejoin:miter;stroke:rgb(0%,0%,0%);stroke-opacity:1;stroke-miterlimit:4;" d="M 84.000041 239.000399 L 84.000041 223.499536 L 85.999919 207.500513 L 78.000407 193.500334 L 87.999797 178.999927 L 89.999674 163.500098 L 94.000464 147.500041 L 98.500448 132.000212 L 108.499837 115.499927 L 121.000366 99.49987 L 137.499618 100.000098 L 116.000155 105.999731 L 100.000098 132.000212 " transform="matrix(3.779528,0,0,3.779528,0,0)"/>
<path style="fill:none;stroke-width:2;stroke-linecap:butt;stroke-linejoin:miter;stroke:rgb(0%,0%,0%);stroke-opacity:1;stroke-miterlimit:4;" d="M 107.000187 127.500228 L 127 99.49987 L 114.999699 115.499927 L 106.499959 131.499984 L 100.000098 146.999813 L 96.000342 162.99987 L 94.000464 178.999927 L 89.999674 195.500212 L 89.999674 275.500496 L 91.999552 291.49952 L 91.500358 307.499577 L 95.500114 323.499634 L 97.499992 339.000496 L 101.999976 354.99952 L 106.499959 371.499805 L 116.500382 387.499862 L 136.500195 391.499618 L 152.500252 395.999601 L 168.000081 402.000269 " transform="matrix(3.779528,0,0,3.779528,0,0)"/>
<path style="fill:none;stroke-width:2;stroke-linecap:butt;stroke-linejoin:miter;stroke:rgb(0%,0%,0%);stroke-opacity:1;stroke-miterlimit:4;" d="M 159.999536 416.000448 L 144.000513 405.499797 L 128.000456 409.499552 L 115.499927 441.499666 L 118.50026 429.500399 L 130.499528 413.500342 " transform="matrix(3.779528,0,0,3.779528,0,0)"/>
<path style="fill:none;stroke-width:2;stroke-linecap:butt;stroke-linejoin:miter;stroke:rgb(0%,0%,0%);stroke-opacity:1;stroke-miterlimit:4;" d="M 145.500163 408.50013 L 159.500342 424.500187 L 169.499731 440.500244 L 161.50022 456.500301 " transform="matrix(3.779528,0,0,3.779528,0,0)"/>
<path style="fill:none;stroke-width:2;stroke-linecap:butt;stroke-linejoin:miter;stroke:rgb(0%,0%,0%);stroke-opacity:1;stroke-miterlimit:4;" d="M 110.499715 465.500269 L 98.00022 449.500212 " transform="matrix(3.779528,0,0,3.779528,0,0)"/>
<path style="fill:none;stroke-width:2;stroke-linecap:butt;stroke-linejoin:miter;stroke:rgb(0%,0%,0%);stroke-opacity:1;stroke-miterlimit:4;" d="M 114.999699 395.999601 L 98.999642 364.499715 " transform="matrix(3.779528,0,0,3.779528,0,0)"/>
<path style="fill:none;stroke-width:2;stroke-linecap:butt;stroke-linejoin:miter;stroke:rgb(0%,0%,0%);stroke-opacity:1;stroke-miterlimit:4;" d="M 105.000309 363.999487 L 121.000366 387.499862 L 141.000179 386.999634 L 157.000236 391.000423 L 173.000293 393.000301 L 205.000407 393.000301 L 221.000464 395.000179 L 236.999487 395.500407 L 252.999544 395.500407 L 268.999601 395.999601 L 284.999658 395.500407 L 332.999829 395.500407 L 348.499658 393.999723 L 364.499715 394.499951 L 379.999544 388.500317 L 399.500163 406.500252 L 414.999992 422.500309 " transform="matrix(3.779528,0,0,3.779528,0,0)"/>
<path style="fill:none;stroke-width:2;stroke-linecap:butt;stroke-linejoin:miter;stroke:rgb(0%,0%,0%);stroke-opacity:1;stroke-miterlimit:4;" d="M 410.500008 449.500212 L 400.499585 455.499845 L 384.499528 469.500024 L 368.500505 479.500448 L 352.500448 477.999764 L 336.500391 478.499992 L 336.000163 468.499569 L 334.000285 452.499512 L 338.500269 436.500488 L 338.500269 420.500431 L 352.500448 408.50013 L 380.499772 392.500073 L 390.500195 377.000244 L 393.000301 366.499593 L 376.500016 372.50026 L 360.499959 373.99991 L 344.499902 374.500138 L 352.500448 352.00022 L 350.000342 336.000163 L 336.000163 334.000285 L 320.000106 334.000285 L 304.500277 333.500057 L 288.50022 334.000285 L 272.500163 334.000285 L 255.999878 334.500513 L 223.999764 334.500513 L 207.999707 334.000285 L 175.500399 334.000285 L 159.500342 332.000407 " transform="matrix(3.779528,0,0,3.779528,0,0)"/>
<path style="fill:none;stroke-width:2;stroke-linecap:butt;stroke-linejoin:miter;stroke:rgb(0%,0%,0%);stroke-opacity:1;stroke-miterlimit:4;" d="M 157.999658 336.999585 L 164.000326 336.999585 L 173.999715 343.50048 L 167.499854 359.499504 L 167.499854 370.000155 L 191.000228 373.99991 L 207.000285 373.99991 L 223.499536 376.500016 L 255.49965 376.500016 L 271.499707 377.000244 L 287.499764 374.500138 L 303.499821 375.000366 L 319.499878 377.000244 L 336.000163 375.000366 L 354.000098 366.999821 L 368.000277 368.500505 L 368.500505 368.000277 " transform="matrix(3.779528,0,0,3.779528,0,0)"/>
<path style="fill:none;stroke-width:2;stroke-linecap:butt;stroke-linejoin:miter;stroke:rgb(0%,0%,0%);stroke-opacity:1;stroke-miterlimit:4;" d="M 365.500171 363.500293 L 363.500293 347.500236 L 363.500293 333.500057 L 347.500236 329.999495 " transform="matrix(3.779528,0,0,3.779528,0,0)"/>
<path style="fill:none;stroke-width:2;stroke-linecap:butt;stroke-linejoin:miter;stroke:rgb(0%,0%,0%);stroke-opacity:1;stroke-miterlimit:4;" d="M 338.000041 332.000407 L 343.999674 348.000464 L 341.999797 363.999487 " transform="matrix(3.779528,0,0,3.779528,0,0)"/>
<path style="fill:none;stroke-width:2;stroke-linecap:butt;stroke-linejoin:miter;stroke:rgb(0%,0%,0%);stroke-opacity:1;stroke-miterlimit:4;" d="M 330.499723 367.500049 L 314.499666 368.000277 L 298.000415 368.000277 L 281.50013 367.500049 L 248.999788 367.500049 L 232.999731 366.999821 L 216.999674 367.500049 L 184.500366 367.500049 L 168.500309 373.499683 L 152.500252 373.499683 L 143.000057 367.500049 L 130.999756 367.500049 L 143.000057 355.499748 L 143.000057 339.999919 L 125.50035 332.000407 " transform="matrix(3.779528,0,0,3.779528,0,0)"/>
<path style="fill:none;stroke-width:2;stroke-linecap:butt;stroke-linejoin:miter;stroke:rgb(0%,0%,0%);stroke-opacity:1;stroke-miterlimit:4;" d="M 123.999666 323.999862 L 139.499495 332.000407 L 155.000358 345.500358 L 160.999992 349.500114 " transform="matrix(3.779528,0,0,3.779528,0,0)"/>
<path style="fill:none;stroke-width:2;stroke-linecap:butt;stroke-linejoin:miter;stroke:rgb(0%,0%,0%);stroke-opacity:1;stroke-miterlimit:4;" d="M 137.499618 360.499959 L 121.499561 366.000399 " transform="matrix(3.779528,0,0,3.779528,0,0)"/>
<path style="fill:none;stroke-width:2;stroke-linecap:butt;stroke-linejoin:miter;stroke:rgb(0%,0%,0%);stroke-opacity:1;stroke-miterlimit:4;" d="M 122.500016 313.000016 L 137.999845 323.499634 L 153.999902 325.499512 L 169.999959 325.99974 L 186.500244 325.99974 L 218.500358 327.000195 L 249.500016 327.000195 L 265.500073 326.499967 L 329.500301 326.499967 L 345.500358 325.99974 L 361.999609 323.999862 L 378.499894 323.999862 L 394.499951 317.5 " transform="matrix(3.779528,0,0,3.779528,0,0)"/>
<path style="fill:none;stroke-width:2;stroke-linecap:butt;stroke-linejoin:miter;stroke:rgb(0%,0%,0%);stroke-opacity:1;stroke-miterlimit:4;" d="M 384.999756 335.499935 L 368.999699 334.000285 " transform="matrix(3.779528,0,0,3.779528,0,0)"/>
<path style="fill:none;stroke-width:2;stroke-linecap:butt;stroke-linejoin:miter;stroke:rgb(0%,0%,0%);stroke-opacity:1;stroke-miterlimit:4;" d="M 372.50026 336.500391 L 372.50026 352.500448 " transform="matrix(3.779528,0,0,3.779528,0,0)"/>
<path style="fill:none;stroke-width:2;stroke-linecap:butt;stroke-linejoin:miter;stroke:rgb(0%,0%,0%);stroke-opacity:1;stroke-miterlimit:4;" d="M 359.999731 353.49987 L 355.999976 353.49987 L 360.499959 337.499813 " transform="matrix(3.779528,0,0,3.779528,0,0)"/>
<path style="fill:none;stroke-width:2;stroke-linecap:butt;stroke-linejoin:miter;stroke:rgb(0%,0%,0%);stroke-opacity:1;stroke-miterlimit:4;" d="M 397.000057 370.500382 L 396.499829 386.500439 L 402.500496 386.000212 " transform="matrix(3.779528,0,0,3.779528,0,0)"/>
<path style="fill:none;stroke-width:2;stroke-linecap:butt;stroke-linejoin:miter;stroke:rgb(0%,0%,0%);stroke-opacity:1;stroke-miterlimit:4;" d="M 386.500439 390.500195 L 370.500382 398.999935 L 354.000098 407.00048 L 338.000041 409.000358 " transform="matrix(3.779528,0,0,3.779528,0,0)"/>
<path style="fill:none;stroke-width:2;stroke-linecap:butt;stroke-linejoin:miter;stroke:rgb(0%,0%,0%);stroke-opacity:1;stroke-miterlimit:4;" d="M 366.000399 407.00048 L 350.000342 422.999504 L 343.50048 438.999561 L 347.500236 454.999618 L 341.499569 459.000407 " transform="matrix(3.779528,0,0,3.779528,0,0)"/>
<path style="fill:none;stroke-width:2;stroke-linecap:butt;stroke-linejoin:miter;stroke:rgb(0%,0%,0%);stroke-opacity:1;stroke-miterlimit:4;" d="M 307.999805 411.500464 L 291.999748 416.000448 L 276.499919 418.000326 L 257.000334 418.49952 L 234.999609 416.499642 L 219.49978 414.499764 " transform="matrix(3.779528,0,0,3.779528,0,0)"/>
<path style="fill:none;stroke-width:2;stroke-linecap:butt;stroke-linejoin:miter;stroke:rgb(0%,0%,0%);stroke-opacity:1;stroke-miterlimit:4;" d="M 216.50048 407.999902 L 232.499504 407.999902 L 244.499805 413.500342 L 259.999634 407.00048 L 291.49952 407.00048 L 307.499577 406.500252 " transform="matrix(3.779528,0,0,3.779528,0,0)"/>
<path style="fill:none;stroke-width:2;stroke-linecap:butt;stroke-linejoin:miter;stroke:rgb(0%,0%,0%);stroke-opacity:1;stroke-miterlimit:4;" d="M 377.500472 411.500464 L 351.499992 427.499487 L 350.000342 443.499544 L 355.999976 459.999829 " transform="matrix(3.779528,0,0,3.779528,0,0)"/>
<path style="fill:none;stroke-width:2;stroke-linecap:butt;stroke-linejoin:miter;stroke:rgb(0%,0%,0%);stroke-opacity:1;stroke-miterlimit:4;" d="M 381.500228 461.500513 L 399.500163 445.500456 L 399.500163 429.000171 L 381.500228 413.000114 " transform="matrix(3.779528,0,0,3.779528,0,0)"/>
<path style="fill:none;stroke-width:2;stroke-linecap:butt;stroke-linejoin:miter;stroke:rgb(0%,0%,0%);stroke-opacity:1;stroke-miterlimit:4;" d="M 381 407.999902 L 400.999813 423.499731 " transform="matrix(3.779528,0,0,3.779528,0,0)"/>
<path style="fill:none;stroke-width:2;stroke-linecap:butt;stroke-linejoin:miter;stroke:rgb(0%,0%,0%);stroke-opacity:1;stroke-miterlimit:4;" d="M 404.999569 269.499829 L 403.499919 253.499772 L 403.499919 237.499715 L 402.000269 221.000464 L 402.500496 205.000407 L 400.499585 189.00035 L 398.499707 173.000293 L 396.499829 157.500464 L 392.500073 143.500285 L 392.500073 127.500228 L 404.500374 113.500049 L 396.499829 96.999764 L 408.50013 80.999707 L 422.500309 64.99965 L 402.500496 49.499821 L 386.500439 33.499764 L 370.000155 14.999601 L 377.999666 10.999845 L 361.999609 15.499829 L 345.999552 3.499528 " transform="matrix(3.779528,0,0,3.779528,0,0)"/>
<path style="fill:none;stroke-width:2;stroke-linecap:butt;stroke-linejoin:miter;stroke:rgb(0%,0%,0%);stroke-opacity:1;stroke-miterlimit:4;" d="M 348.999886 1.49965 L 363.000065 17.499707 L 363.500293 21.500496 L 377.500472 39.500431 L 393.999723 57.000138 " transform="matrix(3.779528,0,0,3.779528,0,0)"/>
<path style="fill:none;stroke-width:2;stroke-linecap:butt;stroke-linejoin:miter;stroke:rgb(0%,0%,0%);stroke-opacity:1;stroke-miterlimit:4;" d="M 425.999837 67.499756 L 409.99978 55.500488 L 393.999723 41.999504 L 377.999666 18.500163 " transform="matrix(3.779528,0,0,3.779528,0,0)"/>
<path style="fill:none;stroke-width:2;stroke-linecap:butt;stroke-linejoin:miter;stroke:rgb(0%,0%,0%);stroke-opacity:1;stroke-miterlimit:4;" d="M 389.49974 1.000456 L 389.49974 17.000513 L 395.500407 32.999536 L 409.499552 49.499821 L 429.999593 66.000106 L 418.000326 82.500391 L 406.000024 98.500448 L 400.000391 118.50026 " transform="matrix(3.779528,0,0,3.779528,0,0)"/>
<path style="fill:none;stroke-width:2;stroke-linecap:butt;stroke-linejoin:miter;stroke:rgb(0%,0%,0%);stroke-opacity:1;stroke-miterlimit:4;" d="M 361.500415 91.500358 L 375.499561 97.499992 L 395.500407 113.500049 L 405.499797 128.999878 L 411.500464 144.999935 L 415.50022 160.499764 L 418.000326 176.499821 L 422.500309 191.99965 L 425.000415 207.999707 L 427.499487 223.999764 L 427.999715 239.999821 L 429.999593 255.999878 L 429.500399 271.999935 L 429.000171 287.499764 L 428.499943 303.499821 L 426.500065 323.999862 L 423.999959 339.499691 L 420.000203 355.499748 L 416.000448 370.999577 L 409.99978 389.49974 L 406.000024 405.499797 L 416.000448 423.499731 L 409.99978 438.999561 L 398.000513 456.999495 " transform="matrix(3.779528,0,0,3.779528,0,0)"/>
<path style="fill:none;stroke-width:2;stroke-linecap:butt;stroke-linejoin:miter;stroke:rgb(0%,0%,0%);stroke-opacity:1;stroke-miterlimit:4;" d="M 395.000179 273.000391 L 379.000122 261.00009 L 363.000065 250.999666 L 347.000008 245.000033 L 330.499723 241.500505 L 314.499666 236.999487 L 298.499609 232.999731 L 282.499552 227.000098 " transform="matrix(3.779528,0,0,3.779528,0,0)"/>
<path style="fill:none;stroke-width:2;stroke-linecap:butt;stroke-linejoin:miter;stroke:rgb(0%,0%,0%);stroke-opacity:1;stroke-miterlimit:4;" d="M 275.000269 222.500114 L 291.000326 204.500179 L 307.000382 192.499878 L 323.499634 180.499577 L 339.499691 170.500187 L 355.499748 162.499642 L 370.999577 150.500374 L 386.999634 142.499829 L 368.999699 157.999658 L 342.500024 173.499487 L 316.499544 189.499544 L 296.499731 205.499601 L 280.499674 221.499658 L 284.500464 218.00013 L 300.000293 202.500301 L 315.500122 190.5 L 331.500179 180.499577 L 348.000464 170.500187 L 363.999487 160.499764 L 380.499772 152.500252 L 396.499829 138.500073 L 391.999845 164.000326 L 395.999601 196.000439 L 395.999601 211.500269 L 398.000513 227.500326 L 399.500163 243.000155 L 399.500163 259.000212 " transform="matrix(3.779528,0,0,3.779528,0,0)"/>
<path style="fill:none;stroke-width:2;stroke-linecap:butt;stroke-linejoin:miter;stroke:rgb(0%,0%,0%);stroke-opacity:1;stroke-miterlimit:4;" d="M 394.499951 311.999561 L 397.000057 296.499731 L 393.000301 280.499674 L 373.499683 264.499618 L 337.499813 248.499561 " transform="matrix(3.779528,0,0,3.779528,0,0)"/>
<path style="fill:none;stroke-width:2;stroke-linecap:butt;stroke-linejoin:miter;stroke:rgb(0%,0%,0%);stroke-opacity:1;stroke-miterlimit:4;" d="M 334.500513 242.499927 L 373.000488 258.499984 L 395.000179 274.500041 L 402.999691 289.99987 L 400.999813 305.999927 L 397.000057 321.499756 L 395.000179 337.499813 L 395.000179 352.999642 L 391.499618 361.000187 L 375.499561 359.000309 L 391.499618 355.499748 " transform="matrix(3.779528,0,0,3.779528,0,0)"/>
<path style="fill:none;stroke-width:2;stroke-linecap:butt;stroke-linejoin:miter;stroke:rgb(0%,0%,0%);stroke-opacity:1;stroke-miterlimit:4;" d="M 448.499756 211.500269 L 432.499699 203.499723 " transform="matrix(3.779528,0,0,3.779528,0,0)"/>
<path style="fill:none;stroke-width:2;stroke-linecap:butt;stroke-linejoin:miter;stroke:rgb(0%,0%,0%);stroke-opacity:1;stroke-miterlimit:4;" d="M 429.999593 200.500423 L 445.99965 207.000285 " transform="matrix(3.779528,0,0,3.779528,0,0)"/>
<path style="fill:none;stroke-width:2;stroke-linecap:butt;stroke-linejoin:miter;stroke:rgb(0%,0%,0%);stroke-opacity:1;stroke-miterlimit:4;" d="M 439.499788 204.500179 L 429.500399 200.500423 " transform="matrix(3.779528,0,0,3.779528,0,0)"/>
<path style="fill:none;stroke-width:2;stroke-linecap:butt;stroke-linejoin:miter;stroke:rgb(0%,0%,0%);stroke-opacity:1;stroke-miterlimit:4;" d="M 391.999845 275.500496 L 375.999788 263.500195 L 360.499959 255.49965 L 345.00013 249.500016 L 329.000073 243.999577 L 313.000016 241.999699 L 296.999959 238.500171 L 280.999902 232.000309 L 275.500496 225.999642 L 284.999658 210.499813 L 302.999593 194.499756 L 324.50009 178.499699 L 350.499536 162.499642 L 378.499894 146.499585 L 388.500317 130.499528 L 376.500016 114.500505 L 352.500448 98.999642 " transform="matrix(3.779528,0,0,3.779528,0,0)"/>
<path style="fill:none;stroke-width:2;stroke-linecap:butt;stroke-linejoin:miter;stroke:rgb(0%,0%,0%);stroke-opacity:1;stroke-miterlimit:4;" d="M 336.000163 100.000098 L 320.000106 96.000342 L 304.500277 96.499536 L 289.000448 94.999886 L 266.999723 85.000496 L 250.999666 85.000496 " transform="matrix(3.779528,0,0,3.779528,0,0)"/>
<path style="fill:none;stroke-width:2;stroke-linecap:butt;stroke-linejoin:miter;stroke:rgb(0%,0%,0%);stroke-opacity:1;stroke-miterlimit:4;" d="M 227.99952 56.49991 L 212.000496 48.000171 " transform="matrix(3.779528,0,0,3.779528,0,0)"/>
<path style="fill:none;stroke-width:2;stroke-linecap:butt;stroke-linejoin:miter;stroke:rgb(0%,0%,0%);stroke-opacity:1;stroke-miterlimit:4;" d="M 209.999585 40.499854 L 225.999642 32.500342 L 242.499927 36.500098 L 258.499984 44.999837 " transform="matrix(3.779528,0,0,3.779528,0,0)"/>
<path style="fill:none;stroke-width:2;stroke-linecap:butt;stroke-linejoin:miter;stroke:rgb(0%,0%,0%);stroke-opacity:1;stroke-miterlimit:4;" d="M 282.000358 28.499552 L 265.500073 25.000024 L 249.500016 26.499674 L 233.499959 28.499552 L 217.499902 23.999569 L 201.499845 23.000146 L 185.499788 39.000203 " transform="matrix(3.779528,0,0,3.779528,0,0)"/>
<path style="fill:none;stroke-width:2;stroke-linecap:butt;stroke-linejoin:miter;stroke:rgb(0%,0%,0%);stroke-opacity:1;stroke-miterlimit:4;" d="M 189.00035 44.499609 L 205.000407 60.499666 " transform="matrix(3.779528,0,0,3.779528,0,0)"/>
<path style="fill:none;stroke-width:2;stroke-linecap:butt;stroke-linejoin:miter;stroke:rgb(0%,0%,0%);stroke-opacity:1;stroke-miterlimit:4;" d="M 222.500114 78.000407 L 206.500057 84.000041 L 190.5 85.999919 L 174.499943 85.999919 L 158.499886 92.49978 L 142.499829 94.499658 " transform="matrix(3.779528,0,0,3.779528,0,0)"/>
<path style="fill:none;stroke-width:2;stroke-linecap:butt;stroke-linejoin:miter;stroke:rgb(0%,0%,0%);stroke-opacity:1;stroke-miterlimit:4;" d="M 139.499495 101.999976 L 155.499552 100.000098 L 171.000415 94.499658 L 187.000472 92.49978 L 203.499723 90.499902 L 219.49978 90.499902 " transform="matrix(3.779528,0,0,3.779528,0,0)"/>
<path style="fill:none;stroke-width:2;stroke-linecap:butt;stroke-linejoin:miter;stroke:rgb(0%,0%,0%);stroke-opacity:1;stroke-miterlimit:4;" d="M 166.999626 97.499992 L 182.999683 97.499992 L 198.99974 94.000464 L 215.500024 94.499658 L 232.000309 94.499658 L 248.499561 91.00013 L 264.499618 90.499902 L 286.500342 84.500269 L 302.999593 86.500146 L 319.499878 82.500391 " transform="matrix(3.779528,0,0,3.779528,0,0)"/>
<path style="fill:none;stroke-width:2;stroke-linecap:butt;stroke-linejoin:miter;stroke:rgb(0%,0%,0%);stroke-opacity:1;stroke-miterlimit:4;" d="M 422.999504 78.499601 L 411.000236 80.500513 L 395.000179 102.500203 L 379.000122 98.00022 L 363.000065 89.50048 L 347.000008 93.500236 L 330.999951 87.999797 L 329.000073 93.500236 L 312.499788 91.500358 L 296.499731 89.50048 L 280.00048 93.500236 L 248.000366 93.500236 L 236.000065 85.499691 L 237.999943 65.499878 L 214.000374 49.499821 L 216.000252 32.999536 " transform="matrix(3.779528,0,0,3.779528,0,0)"/>
<path style="fill:none;stroke-width:2;stroke-linecap:butt;stroke-linejoin:miter;stroke:rgb(0%,0%,0%);stroke-opacity:1;stroke-miterlimit:4;" d="M 198.000317 23.500374 L 186.000016 39.500431 L 195.500212 55.500488 L 205.499601 71.499512 L 215.500024 83.499813 L 232.000309 82.000163 L 252.000122 77.500179 L 268.000179 77.500179 L 284.000236 78.000407 L 300.000293 78.000407 L 321.999984 88.500024 L 338.000041 84.500269 L 357.999854 100.000098 L 361.999609 94.000464 L 377.999666 101.499748 L 394.499951 116.999577 " transform="matrix(3.779528,0,0,3.779528,0,0)"/>
<path style="fill:none;stroke-width:2;stroke-linecap:butt;stroke-linejoin:miter;stroke:rgb(0%,0%,0%);stroke-opacity:1;stroke-miterlimit:4;" d="M 280.499674 19.999813 L 264.499618 17.999935 L 248.000366 19.499585 L 232.000309 19.499585 L 215.500024 17.499707 L 199.499967 15.499829 L 182.999683 33.499764 L 185.499788 32.000114 L 196.999862 16.000057 " transform="matrix(3.779528,0,0,3.779528,0,0)"/>
<path style="fill:none;stroke-width:2;stroke-linecap:butt;stroke-linejoin:miter;stroke:rgb(0%,0%,0%);stroke-opacity:1;stroke-miterlimit:4;" d="M 153.499674 88.500024 L 137.999845 94.000464 L 121.999788 104.500081 " transform="matrix(3.779528,0,0,3.779528,0,0)"/>
<path style="fill:none;stroke-width:2;stroke-linecap:butt;stroke-linejoin:miter;stroke:rgb(0%,0%,0%);stroke-opacity:1;stroke-miterlimit:4;" d="M 125.000122 112.999821 L 118.50026 128.999878 L 114.999699 144.999935 L 114.500505 160.999992 L 112.499593 176.499821 L 112.000399 192.499878 L 112.499593 208.499935 L 112.999821 223.999764 L 113.500049 239.999821 L 113.500049 271.999935 L 115.499927 287.999992 L 115.499927 304.000049 L 119.000488 320.000106 L 120.500138 335.499935 L 121.999788 352.00022 L 121.499561 368.000277 L 123.500472 384.499528 L 123.000244 400.999813 L 110.499715 416.99987 L 110.499715 432.999927 L 118.50026 448.499756 L 139.000301 464.499813 L 131.499984 474.500236 " transform="matrix(3.779528,0,0,3.779528,0,0)"/>
<path style="fill:none;stroke-width:2;stroke-linecap:butt;stroke-linejoin:miter;stroke:rgb(0%,0%,0%);stroke-opacity:1;stroke-miterlimit:4;" d="M 169.999959 359.000309 L 153.999902 364.999943 L 155.99978 350.999764 L 151.499797 334.999707 L 137.499618 339.000496 L 123.500472 323.499634 L 119.499683 309.500488 L 118.000033 293.999626 L 118.000033 262.49974 L 116.000155 246.499683 L 116.000155 230.499626 L 115.499927 214.999797 L 115.499927 198.99974 L 116.999577 182.999683 L 116.999577 150.500374 L 121.499561 134.00009 L 125.50035 117.499805 L 131.499984 101.499748 L 115.499927 129.500106 " transform="matrix(3.779528,0,0,3.779528,0,0)"/>
<path style="fill:none;stroke-width:2;stroke-linecap:butt;stroke-linejoin:miter;stroke:rgb(0%,0%,0%);stroke-opacity:1;stroke-miterlimit:4;" d="M 105.000309 89.50048 L 89.000252 77.500179 " transform="matrix(3.779528,0,0,3.779528,0,0)"/>
<path style="fill:none;stroke-width:2;stroke-linecap:butt;stroke-linejoin:miter;stroke:rgb(0%,0%,0%);stroke-opacity:1;stroke-miterlimit:4;" d="M 87.000374 75.500301 L 102.500203 71.99974 " transform="matrix(3.779528,0,0,3.779528,0,0)"/>
<path style="fill:none;stroke-width:2;stroke-linecap:butt;stroke-linejoin:miter;stroke:rgb(0%,0%,0%);stroke-opacity:1;stroke-miterlimit:4;" d="M 82.500391 54.500033 L 66.500334 46.499487 L 50.500277 46.499487 L 34.50022 50.500277 L 19.000391 52.500155 L 3.000334 52.500155 " transform="matrix(3.779528,0,0,3.779528,0,0)"/>
<path style="fill:none;stroke-width:2;stroke-linecap:butt;stroke-linejoin:miter;stroke:rgb(0%,0%,0%);stroke-opacity:1;stroke-miterlimit:4;" d="M 1.999878 44.499609 L 17.999935 44.999837 L 33.499764 44.999837 L 49.499821 40.499854 L 65.499878 38.499976 L 81.499935 44.000415 L 98.00022 37.999748 L 113.500049 32.000114 L 130.000334 26.00048 L 146.000391 19.999813 L 162.000448 17.999935 L 164.000326 32.500342 L 168.000081 33.999992 " transform="matrix(3.779528,0,0,3.779528,0,0)"/>
<path style="fill:none;stroke-width:2;stroke-linecap:butt;stroke-linejoin:miter;stroke:rgb(0%,0%,0%);stroke-opacity:1;stroke-miterlimit:4;" d="M 85.999919 44.499609 L 116.000155 28.499552 L 143.500285 0.500228 L 129.500106 10.999845 L 113.500049 17.000513 L 97.499992 19.000391 L 81.499935 21.500496 L 65.499878 19.999813 L 48.999593 22.499919 L 32.999536 24.499797 L 17.000513 28.499552 L 0.500228 30.500464 " transform="matrix(3.779528,0,0,3.779528,0,0)"/>
<path style="fill:none;stroke-width:2;stroke-linecap:butt;stroke-linejoin:miter;stroke:rgb(0%,0%,0%);stroke-opacity:1;stroke-miterlimit:4;" d="M 1.49965 13.499951 L 66.000106 13.499951 L 82.000163 11.500073 L 89.999674 7.500317 L 98.00022 3.499528 " transform="matrix(3.779528,0,0,3.779528,0,0)"/>
<path style="fill:none;stroke-width:2;stroke-linecap:butt;stroke-linejoin:miter;stroke:rgb(0%,0%,0%);stroke-opacity:1;stroke-miterlimit:4;" d="M 69.999862 47.499943 L 94.000464 63.5 L 87.999797 80.000285 L 100.000098 84.000041 " transform="matrix(3.779528,0,0,3.779528,0,0)"/>
<path style="fill:none;stroke-width:2;stroke-linecap:butt;stroke-linejoin:miter;stroke:rgb(0%,0%,0%);stroke-opacity:1;stroke-miterlimit:4;" d="M 62.999772 211.000041 L 46.999715 211.500269 L 30.999658 213.500146 L 14.999601 218.00013 L 3.000334 230.499626 L 21.000269 214.499569 " transform="matrix(3.779528,0,0,3.779528,0,0)"/>
<path style="fill:none;stroke-width:2;stroke-linecap:butt;stroke-linejoin:miter;stroke:rgb(0%,0%,0%);stroke-opacity:1;stroke-miterlimit:4;" d="M 19.999813 200.000195 L 9.500195 198.000317 L 26.00048 194.499756 " transform="matrix(3.779528,0,0,3.779528,0,0)"/>
<path style="fill:none;stroke-width:2;stroke-linecap:butt;stroke-linejoin:miter;stroke:rgb(0%,0%,0%);stroke-opacity:1;stroke-miterlimit:4;" d="M 23.000146 194.499756 L 3.000334 206.500057 L 19.000391 202.000073 " transform="matrix(3.779528,0,0,3.779528,0,0)"/>
<path style="fill:none;stroke-width:2;stroke-linecap:butt;stroke-linejoin:miter;stroke:rgb(0%,0%,0%);stroke-opacity:1;stroke-miterlimit:4;" d="M 3.000334 236.500293 L 19.000391 238.500171 L 35.000448 236.500293 L 51.000505 236.000065 L 66.999528 230.000431 L 73.000195 221.499658 " transform="matrix(3.779528,0,0,3.779528,0,0)"/>
</g>
</svg>
