<?xml version="1.0" encoding="UTF-8"?>
<svg xmlns="http://www.w3.org/2000/svg" xmlns:xlink="http://www.w3.org/1999/xlink" width="1935.11811" height="1935.11811" viewBox="0 0 1935.11811 1935.11811" version="1.1">
<g id="surface1">
<path style="fill:none;stroke-width:2;stroke-linecap:butt;stroke-linejoin:miter;stroke:rgb(0%,0%,0%);stroke-opacity:1;stroke-miterlimit:4;" d="M 241.500505 2.500106 L 241.500505 18.500163 L 239.499593 34.50022 L 239.499593 66.999528 L 241.500505 82.999585 L 243.500382 98.999642 L 247.500138 114.999699 L 252.999544 130.999756 L 259.000212 146.499585 L 266.499495 162.499642 L 277.000146 178.499699 L 268.999601 178.499699 L 291.000326 186.500244 L 307.499577 193.999528 L 339.499691 209.000163 L 357.499626 211.000041 L 361.500415 216.999674 L 377.500472 214.499569 L 393.999723 216.50048 L 409.99978 216.50048 L 426.500065 212.499691 L 444.5 207.000285 L 460.500057 194.999984 L 476.500114 177.000049 " transform="matrix(3.779528,0,0,3.779528,0,0)"/>
<path style="fill:none;stroke-width:2;stroke-linecap:butt;stroke-linejoin:miter;stroke:rgb(0%,0%,0%);stroke-opacity:1;stroke-miterlimit:4;" d="M 495.500505 176.499821 L 483.500203 192.499878 L 466.999919 208.499935 " transform="matrix(3.779528,0,0,3.779528,0,0)"/>
<path style="fill:none;stroke-width:2;stroke-linecap:butt;stroke-linejoin:miter;stroke:rgb(0%,0%,0%);stroke-opacity:1;stroke-miterlimit:4;" d="M 453.499967 185.499788 L 437.49991 185.499788 L 421.499854 186.000016 L 389.999967 186.000016 L 373.99991 179.500155 L 357.999854 171.499609 L 341.999797 161.50022 L 325.99974 157.500464 " transform="matrix(3.779528,0,0,3.779528,0,0)"/>
<path style="fill:none;stroke-width:2;stroke-linecap:butt;stroke-linejoin:miter;stroke:rgb(0%,0%,0%);stroke-opacity:1;stroke-miterlimit:4;" d="M 324.50009 158.499886 L 330.999951 174.499943 L 348.999886 190.5 L 379.000122 205.999829 L 395.000179 207.999707 " transform="matrix(3.779528,0,0,3.779528,0,0)"/>
<path style="fill:none;stroke-width:2;stroke-linecap:butt;stroke-linejoin:miter;stroke:rgb(0%,0%,0%);stroke-opacity:1;stroke-miterlimit:4;" d="M 355.499748 191.000228 L 339.499691 180.999805 " transform="matrix(3.779528,0,0,3.779528,0,0)"/>
<path style="fill:none;stroke-width:2;stroke-linecap:butt;stroke-linejoin:miter;stroke:rgb(0%,0%,0%);stroke-opacity:1;stroke-miterlimit:4;" d="M 345.500358 180.000382 L 329.500301 171.999837 " transform="matrix(3.779528,0,0,3.779528,0,0)"/>
<path style="fill:none;stroke-width:2;stroke-linecap:butt;stroke-linejoin:miter;stroke:rgb(0%,0%,0%);stroke-opacity:1;stroke-miterlimit:4;" d="M 329.999495 164.999748 L 345.999552 171.000415 L 361.999609 181.500033 L 377.500472 187.499666 L 393.499495 189.999772 L 409.000358 191.99965 L 425.000415 191.99965 " transform="matrix(3.779528,0,0,3.779528,0,0)"/>
<path style="fill:none;stroke-width:2;stroke-linecap:butt;stroke-linejoin:miter;stroke:rgb(0%,0%,0%);stroke-opacity:1;stroke-miterlimit:4;" d="M 444.5 214.000374 L 428.499943 223.499536 L 412.499886 229.500203 L 396.499829 229.500203 L 378.499894 220.000008 L 376.500016 209.999585 L 348.499658 208.499935 L 332.499601 200.500423 L 316.00035 192.499878 L 299.500065 186.500244 L 283.500008 174.499943 L 268.000179 152.000024 L 252.000122 124.499894 " transform="matrix(3.779528,0,0,3.779528,0,0)"/>
<path style="fill:none;stroke-width:2;stroke-linecap:butt;stroke-linejoin:miter;stroke:rgb(0%,0%,0%);stroke-opacity:1;stroke-miterlimit:4;" d="M 229.500203 139.000301 L 245.50026 160.999992 L 261.500317 171.000415 L 277.500374 175.500399 L 297.500187 195.500212 " transform="matrix(3.779528,0,0,3.779528,0,0)"/>
<path style="fill:none;stroke-width:2;stroke-linecap:butt;stroke-linejoin:miter;stroke:rgb(0%,0%,0%);stroke-opacity:1;stroke-miterlimit:4;" d="M 288.50022 185.499788 L 318.000228 201.499845 L 352.00022 217.499902 L 377.999666 225.00022 L 393.999723 225.00022 L 410.500008 224.499992 L 426.500065 220.500236 " transform="matrix(3.779528,0,0,3.779528,0,0)"/>
<path style="fill:none;stroke-width:2;stroke-linecap:butt;stroke-linejoin:miter;stroke:rgb(0%,0%,0%);stroke-opacity:1;stroke-miterlimit:4;" d="M 454.999618 236.500293 L 454.500423 252.50035 " transform="matrix(3.779528,0,0,3.779528,0,0)"/>
<path style="fill:none;stroke-width:2;stroke-linecap:butt;stroke-linejoin:miter;stroke:rgb(0%,0%,0%);stroke-opacity:1;stroke-miterlimit:4;" d="M 443.00035 295.500309 L 432.499699 295.500309 L 416.499642 299.500065 L 400.499585 301.499943 L 384.499528 299.500065 L 368.999699 295.500309 L 352.999642 291.49952 L 336.999585 291.49952 L 320.999528 293.999626 L 305.499699 287.999992 " transform="matrix(3.779528,0,0,3.779528,0,0)"/>
<path style="fill:none;stroke-width:2;stroke-linecap:butt;stroke-linejoin:miter;stroke:rgb(0%,0%,0%);stroke-opacity:1;stroke-miterlimit:4;" d="M 305.499699 288.50022 L 345.500358 296.499731 L 335.499935 300.499487 L 351.499992 304.500277 " transform="matrix(3.779528,0,0,3.779528,0,0)"/>
<path style="fill:none;stroke-width:2;stroke-linecap:butt;stroke-linejoin:miter;stroke:rgb(0%,0%,0%);stroke-opacity:1;stroke-miterlimit:4;" d="M 345.500358 295.999504 L 361.500415 300.000293 L 377.500472 304.000049 " transform="matrix(3.779528,0,0,3.779528,0,0)"/>
<path style="fill:none;stroke-width:2;stroke-linecap:butt;stroke-linejoin:miter;stroke:rgb(0%,0%,0%);stroke-opacity:1;stroke-miterlimit:4;" d="M 381 359.000309 L 348.999886 357.999854 L 333.500057 357.499626 L 317.5 352.999642 L 301.499943 350.499536 L 285.499886 348.000464 " transform="matrix(3.779528,0,0,3.779528,0,0)"/>
<path style="fill:none;stroke-width:2;stroke-linecap:butt;stroke-linejoin:miter;stroke:rgb(0%,0%,0%);stroke-opacity:1;stroke-miterlimit:4;" d="M 282.499552 348.999886 L 298.000415 373.499683 L 314.000472 399.500163 L 329.999495 429.999593 L 346.49978 452.000317 L 362.499837 466.499691 L 378.499894 477.000342 " transform="matrix(3.779528,0,0,3.779528,0,0)"/>
<path style="fill:none;stroke-width:2;stroke-linecap:butt;stroke-linejoin:miter;stroke:rgb(0%,0%,0%);stroke-opacity:1;stroke-miterlimit:4;" d="M 415.50022 484.499626 L 431.000049 482.499748 L 447.000106 482.499748 L 462.499935 481.99952 L 477.999764 479.999642 L 493.999821 475.499658 L 509.49965 469.500024 " transform="matrix(3.779528,0,0,3.779528,0,0)"/>
<path style="fill:none;stroke-width:2;stroke-linecap:butt;stroke-linejoin:miter;stroke:rgb(0%,0%,0%);stroke-opacity:1;stroke-miterlimit:4;" d="M 481.500326 399.500163 L 465.500269 379.50035 L 449.500212 371.499805 L 433.500155 373.99991 " transform="matrix(3.779528,0,0,3.779528,0,0)"/>
<path style="fill:none;stroke-width:2;stroke-linecap:butt;stroke-linejoin:miter;stroke:rgb(0%,0%,0%);stroke-opacity:1;stroke-miterlimit:4;" d="M 438.500366 372.50026 L 454.500423 377.999666 L 470.50048 389.49974 " transform="matrix(3.779528,0,0,3.779528,0,0)"/>
<path style="fill:none;stroke-width:2;stroke-linecap:butt;stroke-linejoin:miter;stroke:rgb(0%,0%,0%);stroke-opacity:1;stroke-miterlimit:4;" d="M 457.499723 375.499561 L 475.499658 391.499618 L 484.000431 407.499674 L 486.000309 431.500277 L 472.00013 447.500334 " transform="matrix(3.779528,0,0,3.779528,0,0)"/>
<path style="fill:none;stroke-width:2;stroke-linecap:butt;stroke-linejoin:miter;stroke:rgb(0%,0%,0%);stroke-opacity:1;stroke-miterlimit:4;" d="M 464.499813 425.499609 L 448.499756 437.49991 L 441.000472 433.500155 L 441.000472 413.999536 L 445.000228 410.500008 L 462.499935 406.500252 L 452.499512 391.000423 L 445.99965 407.00048 L 429.999593 407.00048 " transform="matrix(3.779528,0,0,3.779528,0,0)"/>
<path style="fill:none;stroke-width:2;stroke-linecap:butt;stroke-linejoin:miter;stroke:rgb(0%,0%,0%);stroke-opacity:1;stroke-miterlimit:4;" d="M 434.499577 398.999935 L 450.499634 402.500496 " transform="matrix(3.779528,0,0,3.779528,0,0)"/>
<path style="fill:none;stroke-width:2;stroke-linecap:butt;stroke-linejoin:miter;stroke:rgb(0%,0%,0%);stroke-opacity:1;stroke-miterlimit:4;" d="M 436.00026 398.499707 L 429.999593 400.999813 L 425.499609 416.99987 L 435.500033 420.500431 L 425.499609 404.500374 L 441.499666 391.999845 L 457.999951 400.000391 L 467.500146 406.000024 L 472.00013 422.000081 L 463.999585 438.000138 " transform="matrix(3.779528,0,0,3.779528,0,0)"/>
<path style="fill:none;stroke-width:2;stroke-linecap:butt;stroke-linejoin:miter;stroke:rgb(0%,0%,0%);stroke-opacity:1;stroke-miterlimit:4;" d="M 443.00035 450.499634 L 427.000293 454.500423 " transform="matrix(3.779528,0,0,3.779528,0,0)"/>
<path style="fill:none;stroke-width:2;stroke-linecap:butt;stroke-linejoin:miter;stroke:rgb(0%,0%,0%);stroke-opacity:1;stroke-miterlimit:4;" d="M 432.000505 485.500081 L 447.999528 485.500081 L 463.999585 484.999854 L 479.999642 482.999976 L 496.499927 479.500448 L 510.500106 473.49978 " transform="matrix(3.779528,0,0,3.779528,0,0)"/>
<path style="fill:none;stroke-width:2;stroke-linecap:butt;stroke-linejoin:miter;stroke:rgb(0%,0%,0%);stroke-opacity:1;stroke-miterlimit:4;" d="M 456.000073 438.000138 L 466.000496 422.000081 L 470.50048 408.50013 L 454.999618 391.000423 L 438.999561 388.999512 L 422.999504 400.999813 " transform="matrix(3.779528,0,0,3.779528,0,0)"/>
<path style="fill:none;stroke-width:2;stroke-linecap:butt;stroke-linejoin:miter;stroke:rgb(0%,0%,0%);stroke-opacity:1;stroke-miterlimit:4;" d="M 438.500366 386.500439 L 420.999626 402.500496 L 420.999626 418.49952 L 429.000171 434.499577 L 437.49991 438.000138 L 453.499967 445.500456 L 469.500024 427.000293 " transform="matrix(3.779528,0,0,3.779528,0,0)"/>
<path style="fill:none;stroke-width:2;stroke-linecap:butt;stroke-linejoin:miter;stroke:rgb(0%,0%,0%);stroke-opacity:1;stroke-miterlimit:4;" d="M 484.999854 419.499976 L 468.999797 443.499544 L 456.999495 451.50009 L 477.000342 435.500033 L 484.999854 419.499976 L 477.000342 400.999813 L 465.000041 384.499528 L 444.5 368.500505 " transform="matrix(3.779528,0,0,3.779528,0,0)"/>
<path style="fill:none;stroke-width:2;stroke-linecap:butt;stroke-linejoin:miter;stroke:rgb(0%,0%,0%);stroke-opacity:1;stroke-miterlimit:4;" d="M 391.499618 353.49987 L 359.499504 353.49987 L 343.50048 354.000098 L 327.500423 352.00022 L 311.500366 349.500114 L 295.500309 347.500236 L 280.00048 347.500236 L 264.000423 331.500179 L 248.499561 317.5 L 232.999731 307.499577 L 216.999674 298.000415 L 200.999618 291.999748 L 184.999561 286.500342 " transform="matrix(3.779528,0,0,3.779528,0,0)"/>
<path style="fill:none;stroke-width:2;stroke-linecap:butt;stroke-linejoin:miter;stroke:rgb(0%,0%,0%);stroke-opacity:1;stroke-miterlimit:4;" d="M 191.000228 289.99987 L 227.000098 305.499699 L 249.500016 321.499756 L 268.000179 337.499813 L 284.500464 353.49987 L 294.499854 370.000155 L 305.000505 386.000212 L 309.00026 402.000269 L 316.499544 418.000326 L 326.499967 434.000382 L 336.500391 450.499634 L 352.500448 466.499691 L 376.500016 481.99952 " transform="matrix(3.779528,0,0,3.779528,0,0)"/>
<path style="fill:none;stroke-width:2;stroke-linecap:butt;stroke-linejoin:miter;stroke:rgb(0%,0%,0%);stroke-opacity:1;stroke-miterlimit:4;" d="M 320.999528 488.999609 L 305.499699 448.499756 L 289.499642 418.000326 L 273.999813 391.999845 L 258.499984 369.499927 L 243.000155 352.00022 L 227.500326 336.000163 L 211.500269 321.999984 L 195.500212 311.999561 " transform="matrix(3.779528,0,0,3.779528,0,0)"/>
<path style="fill:none;stroke-width:2;stroke-linecap:butt;stroke-linejoin:miter;stroke:rgb(0%,0%,0%);stroke-opacity:1;stroke-miterlimit:4;" d="M 187.499666 293.500431 L 223.499536 309.500488 L 246.000488 325.499512 L 266.000301 341.999797 L 279.500252 357.999854 L 291.49952 373.99991 L 300.000293 389.999967 L 316.00035 407.499674 L 326.499967 423.499731 L 336.500391 439.499788 L 348.000464 455.499845 L 368.000277 471.499902 " transform="matrix(3.779528,0,0,3.779528,0,0)"/>
<path style="fill:none;stroke-width:2;stroke-linecap:butt;stroke-linejoin:miter;stroke:rgb(0%,0%,0%);stroke-opacity:1;stroke-miterlimit:4;" d="M 332.000407 500.99991 L 325.99974 484.999854 L 320.000106 469.500024 L 311.999561 453.499967 L 305.999927 437.49991 L 295.999504 420.999626 L 287.999992 405.499797 L 277.999569 389.49974 L 266.499495 373.99991 L 254.500228 357.499626 L 241.000277 341.499569 L 223.499536 325.99974 L 191.99965 309.999683 L 175.999593 302.000171 " transform="matrix(3.779528,0,0,3.779528,0,0)"/>
<path style="fill:none;stroke-width:2;stroke-linecap:butt;stroke-linejoin:miter;stroke:rgb(0%,0%,0%);stroke-opacity:1;stroke-miterlimit:4;" d="M 175.000171 291.49952 L 191.000228 293.500431 L 206.500057 300.000293 L 222.500114 307.999805 L 238.500171 318.000228 L 254.500228 329.999495 L 270.000057 343.999674 L 286.000114 366.499593 L 302.000171 390.500195 L 318.000228 420.999626 L 334.000285 447.000106 L 350.000342 465.000041 L 366.499593 477.000342 " transform="matrix(3.779528,0,0,3.779528,0,0)"/>
<path style="fill:none;stroke-width:2;stroke-linecap:butt;stroke-linejoin:miter;stroke:rgb(0%,0%,0%);stroke-opacity:1;stroke-miterlimit:4;" d="M 322.500212 475.000464 L 306.500155 436.999683 L 290.500098 409.000358 L 274.500041 382.49965 L 258.499984 362.499837 L 243.000155 342.500024 L 227.000098 327.999618 L 211.000041 316.00035 L 194.999984 305.999927 L 178.999927 298.000415 L 162.499642 300.000293 L 146.999813 317.5 " transform="matrix(3.779528,0,0,3.779528,0,0)"/>
<path style="fill:none;stroke-width:2;stroke-linecap:butt;stroke-linejoin:miter;stroke:rgb(0%,0%,0%);stroke-opacity:1;stroke-miterlimit:4;" d="M 158.499886 302.999593 L 146.499585 319.499878 L 144.000513 325.499512 L 159.999536 321.499756 L 175.999593 327.999618 L 191.99965 338.000041 L 207.500513 352.00022 L 223.499536 369.499927 " transform="matrix(3.779528,0,0,3.779528,0,0)"/>
<path style="fill:none;stroke-width:2;stroke-linecap:butt;stroke-linejoin:miter;stroke:rgb(0%,0%,0%);stroke-opacity:1;stroke-miterlimit:4;" d="M 224.499992 373.99991 L 214.499569 357.499626 L 196.499634 341.499569 L 169.999959 325.499512 " transform="matrix(3.779528,0,0,3.779528,0,0)"/>
<path style="fill:none;stroke-width:2;stroke-linecap:butt;stroke-linejoin:miter;stroke:rgb(0%,0%,0%);stroke-opacity:1;stroke-miterlimit:4;" d="M 164.49952 297.500187 L 182.500488 301.499943 L 201.499845 317.5 L 223.999764 333.500057 L 239.999821 349.500114 L 254 366.000399 L 266.000301 382.000456 L 276.499919 397.500285 L 286.500342 413.500342 L 295.999504 429.000171 L 304.000049 445.000228 L 311.999561 461.000285 L 318.000228 477.499536 L 323.499634 493.499593 L 329.500301 509.999878 " transform="matrix(3.779528,0,0,3.779528,0,0)"/>
<path style="fill:none;stroke-width:2;stroke-linecap:butt;stroke-linejoin:miter;stroke:rgb(0%,0%,0%);stroke-opacity:1;stroke-miterlimit:4;" d="M 194.999984 488.500415 L 200.999618 504.500472 L 189.00035 506.50035 " transform="matrix(3.779528,0,0,3.779528,0,0)"/>
<path style="fill:none;stroke-width:2;stroke-linecap:butt;stroke-linejoin:miter;stroke:rgb(0%,0%,0%);stroke-opacity:1;stroke-miterlimit:4;" d="M 182.00026 506.50035 L 187.999894 490.500293 " transform="matrix(3.779528,0,0,3.779528,0,0)"/>
<path style="fill:none;stroke-width:2;stroke-linecap:butt;stroke-linejoin:miter;stroke:rgb(0%,0%,0%);stroke-opacity:1;stroke-miterlimit:4;" d="M 188.500122 490.500293 L 182.500488 492.500171 L 177.000049 502.499561 L 193.000106 486.499504 " transform="matrix(3.779528,0,0,3.779528,0,0)"/>
<path style="fill:none;stroke-width:2;stroke-linecap:butt;stroke-linejoin:miter;stroke:rgb(0%,0%,0%);stroke-opacity:1;stroke-miterlimit:4;" d="M 221.000464 293.500431 L 205.000407 282.000358 " transform="matrix(3.779528,0,0,3.779528,0,0)"/>
<path style="fill:none;stroke-width:2;stroke-linecap:butt;stroke-linejoin:miter;stroke:rgb(0%,0%,0%);stroke-opacity:1;stroke-miterlimit:4;" d="M 198.000317 277.000146 L 162.000448 293.000203 L 145.500163 309.00026 L 137.499618 325.000317 L 139.499495 316.999772 L 155.499552 296.999959 L 171.000415 286.500342 L 187.000472 280.499674 L 203.499723 275.999691 L 235.499837 268.000179 L 250.999666 268.000179 L 266.999723 273.499585 L 282.99978 283.500008 L 298.999837 291.49952 L 314.499666 301.499943 L 330.499723 307.499577 L 346.49978 307.499577 L 362.499837 311.500366 L 379.000122 315.500122 L 395.000179 314.999894 L 411.000236 315.500122 L 427.000293 313.500244 " transform="matrix(3.779528,0,0,3.779528,0,0)"/>
<path style="fill:none;stroke-width:2;stroke-linecap:butt;stroke-linejoin:miter;stroke:rgb(0%,0%,0%);stroke-opacity:1;stroke-miterlimit:4;" d="M 429.500399 327.500423 L 447.500334 305.000505 L 445.500456 296.999959 " transform="matrix(3.779528,0,0,3.779528,0,0)"/>
<path style="fill:none;stroke-width:2;stroke-linecap:butt;stroke-linejoin:miter;stroke:rgb(0%,0%,0%);stroke-opacity:1;stroke-miterlimit:4;" d="M 452.000317 302.000171 L 436.00026 317.5 L 420.000203 321.499756 L 404.500374 323.000439 L 388.500317 321.499756 L 372.50026 320.000106 L 356.500203 316.00035 L 341.000374 312.499788 L 324.50009 306.500155 L 292.499976 290.500098 L 266.499495 274.500041 L 262.49974 252.50035 L 272.500163 236.500293 L 272.500163 220.500236 " transform="matrix(3.779528,0,0,3.779528,0,0)"/>
<path style="fill:none;stroke-width:2;stroke-linecap:butt;stroke-linejoin:miter;stroke:rgb(0%,0%,0%);stroke-opacity:1;stroke-miterlimit:4;" d="M 239.499593 275.999691 L 255.49965 280.00048 L 271.499707 290.500098 L 285.499886 302.500399 " transform="matrix(3.779528,0,0,3.779528,0,0)"/>
<path style="fill:none;stroke-width:2;stroke-linecap:butt;stroke-linejoin:miter;stroke:rgb(0%,0%,0%);stroke-opacity:1;stroke-miterlimit:4;" d="M 264.999845 247.500138 L 248.999788 257.499528 L 233.499959 261.999512 L 218.00013 266.000301 L 202.000073 268.000179 L 184.000138 273.499585 L 168.000081 280.00048 L 152.000024 291.999748 L 136.500195 312.499788 L 128.49965 332.499601 L 134.500317 316.499544 L 144.499707 300.499487 L 164.49952 284.500464 L 202.500301 268.500407 " transform="matrix(3.779528,0,0,3.779528,0,0)"/>
<path style="fill:none;stroke-width:2;stroke-linecap:butt;stroke-linejoin:miter;stroke:rgb(0%,0%,0%);stroke-opacity:1;stroke-miterlimit:4;" d="M 247.500138 181.500033 L 231.500081 163.500098 L 215.500024 125.50035 " transform="matrix(3.779528,0,0,3.779528,0,0)"/>
<path style="fill:none;stroke-width:2;stroke-linecap:butt;stroke-linejoin:miter;stroke:rgb(0%,0%,0%);stroke-opacity:1;stroke-miterlimit:4;" d="M 214.000374 41.500309 L 225.999642 5.500439 " transform="matrix(3.779528,0,0,3.779528,0,0)"/>
<path style="fill:none;stroke-width:2;stroke-linecap:butt;stroke-linejoin:miter;stroke:rgb(0%,0%,0%);stroke-opacity:1;stroke-miterlimit:4;" d="M 246.99991 1.49965 L 245.000033 17.499707 L 243.500382 35.499642 L 245.50026 51.499699 L 246.000488 66.999528 L 248.000366 83.499813 L 250.000244 99.49987 L 255.999878 121.999788 L 261.999512 137.999845 L 270.000057 154.50013 L 277.999569 170.500187 L 284.000236 187.000472 L 297.500187 187.000472 L 331.500179 202.500301 L 373.499683 224.499992 L 373.499683 237.999943 L 379.999544 241.999699 " transform="matrix(3.779528,0,0,3.779528,0,0)"/>
<path style="fill:none;stroke-width:2;stroke-linecap:butt;stroke-linejoin:miter;stroke:rgb(0%,0%,0%);stroke-opacity:1;stroke-miterlimit:4;" d="M 330.499723 140.499951 L 308.500033 126.499772 " transform="matrix(3.779528,0,0,3.779528,0,0)"/>
<path style="fill:none;stroke-width:2;stroke-linecap:butt;stroke-linejoin:miter;stroke:rgb(0%,0%,0%);stroke-opacity:1;stroke-miterlimit:4;" d="M 307.999805 112.000399 L 313.500244 128.000456 L 316.00035 134.500317 L 332.000407 134.500317 " transform="matrix(3.779528,0,0,3.779528,0,0)"/>
<path style="fill:none;stroke-width:2;stroke-linecap:butt;stroke-linejoin:miter;stroke:rgb(0%,0%,0%);stroke-opacity:1;stroke-miterlimit:4;" d="M 332.999829 136.500195 L 343.000252 152.500252 L 357.000431 173.999715 " transform="matrix(3.779528,0,0,3.779528,0,0)"/>
<path style="fill:none;stroke-width:2;stroke-linecap:butt;stroke-linejoin:miter;stroke:rgb(0%,0%,0%);stroke-opacity:1;stroke-miterlimit:4;" d="M 363.000065 82.500391 L 363.000065 98.500448 L 364.999943 103.999854 L 381 109.999487 L 396.499829 112.000399 L 412.499886 111.500171 L 428.499943 111.500171 L 444.5 112.000399 L 460.500057 112.000399 L 477.000342 109.999487 " transform="matrix(3.779528,0,0,3.779528,0,0)"/>
<path style="fill:none;stroke-width:2;stroke-linecap:butt;stroke-linejoin:miter;stroke:rgb(0%,0%,0%);stroke-opacity:1;stroke-miterlimit:4;" d="M 482.499748 101.499748 L 466.000496 105.499504 L 450.000439 105.000309 L 433.500155 105.499504 L 417.500098 107.999609 L 385.499984 107.999609 L 353.49987 96.000342 L 339.499691 85.999919 L 323.000439 75.999495 L 307.000382 64.000228 L 293.000203 69.999862 L 291.000326 53.499577 L 291.000326 21.500496 L 295.500309 5.999634 L 291.999748 17.999935 " transform="matrix(3.779528,0,0,3.779528,0,0)"/>
<path style="fill:none;stroke-width:2;stroke-linecap:butt;stroke-linejoin:miter;stroke:rgb(0%,0%,0%);stroke-opacity:1;stroke-miterlimit:4;" d="M 301.499943 1.000456 L 297.500187 17.000513 L 295.500309 32.999536 L 297.500187 49.499821 L 300.000293 66.000106 L 302.000171 82.500391 L 305.999927 98.500448 L 304.000049 114.500505 L 307.999805 130.499528 L 316.499544 146.499585 L 327.000195 146.499585 L 332.999829 148.500496 L 334.500513 158.499886 L 348.499658 174.499943 L 382.49965 190.5 L 364.499715 202.500301 L 380.499772 200.000195 L 427.999715 200.000195 L 448.499756 191.99965 L 466.499691 198.000317 L 482.499748 179.500155 " transform="matrix(3.779528,0,0,3.779528,0,0)"/>
<path style="fill:none;stroke-width:2;stroke-linecap:butt;stroke-linejoin:miter;stroke:rgb(0%,0%,0%);stroke-opacity:1;stroke-miterlimit:4;" d="M 495.999699 186.500244 L 477.999764 207.999707 L 491.999943 193.999528 L 502.000366 178.000505 " transform="matrix(3.779528,0,0,3.779528,0,0)"/>
<path style="fill:none;stroke-width:2;stroke-linecap:butt;stroke-linejoin:miter;stroke:rgb(0%,0%,0%);stroke-opacity:1;stroke-miterlimit:4;" d="M 494.500049 178.000505 L 477.999764 200.000195 L 461.999707 209.999585 L 471.499902 193.999528 L 483.500203 178.499699 L 489.499837 162.499642 L 493.499593 130.499528 L 493.499593 114.500505 " transform="matrix(3.779528,0,0,3.779528,0,0)"/>
<path style="fill:none;stroke-width:2;stroke-linecap:butt;stroke-linejoin:miter;stroke:rgb(0%,0%,0%);stroke-opacity:1;stroke-miterlimit:4;" d="M 470.50048 66.999528 L 446.499878 62.999772 L 430.499821 66.999528 " transform="matrix(3.779528,0,0,3.779528,0,0)"/>
<path style="fill:none;stroke-width:2;stroke-linecap:butt;stroke-linejoin:miter;stroke:rgb(0%,0%,0%);stroke-opacity:1;stroke-miterlimit:4;" d="M 436.999683 41.000081 L 421.499854 40.499854 L 441.499666 39.000203 L 440.000016 35.000448 L 443.999772 19.000391 L 428.499943 23.500374 L 412.499886 21.999691 L 396.499829 19.999813 " transform="matrix(3.779528,0,0,3.779528,0,0)"/>
<path style="fill:none;stroke-width:2;stroke-linecap:butt;stroke-linejoin:miter;stroke:rgb(0%,0%,0%);stroke-opacity:1;stroke-miterlimit:4;" d="M 377.500472 41.500309 L 365.500171 57.500366 L 385.499984 61.500122 " transform="matrix(3.779528,0,0,3.779528,0,0)"/>
<path style="fill:none;stroke-width:2;stroke-linecap:butt;stroke-linejoin:miter;stroke:rgb(0%,0%,0%);stroke-opacity:1;stroke-miterlimit:4;" d="M 396.499829 51.000505 L 380.499772 66.500334 L 376.500016 90.499902 L 382.49965 92.49978 L 398.499707 92.49978 L 414.499764 90.499902 L 431.000049 90.499902 " transform="matrix(3.779528,0,0,3.779528,0,0)"/>
<path style="fill:none;stroke-width:2;stroke-linecap:butt;stroke-linejoin:miter;stroke:rgb(0%,0%,0%);stroke-opacity:1;stroke-miterlimit:4;" d="M 400.000391 78.000407 L 384.000334 78.499601 L 368.000277 80.000285 " transform="matrix(3.779528,0,0,3.779528,0,0)"/>
<path style="fill:none;stroke-width:2;stroke-linecap:butt;stroke-linejoin:miter;stroke:rgb(0%,0%,0%);stroke-opacity:1;stroke-miterlimit:4;" d="M 336.999585 41.500309 L 339.000496 23.500374 L 354.99952 12.000301 L 371.499805 10.499618 L 388.00009 22.499919 L 400.499585 39.000203 L 382.49965 54.500033 L 398.999935 40.499854 L 411.500464 54.500033 L 415.50022 70.50009 L 421.499854 86.500146 " transform="matrix(3.779528,0,0,3.779528,0,0)"/>
<path style="fill:none;stroke-width:2;stroke-linecap:butt;stroke-linejoin:miter;stroke:rgb(0%,0%,0%);stroke-opacity:1;stroke-miterlimit:4;" d="M 458.500179 73.999618 L 448.499756 67.499756 L 454.500423 69.499634 L 456.500301 53.499577 L 450.499634 37.49952 L 448.499756 19.000391 L 432.499699 14.999601 L 400.499585 14.999601 L 384.499528 14.500407 L 368.000277 18.500163 L 352.00022 22.499919 " transform="matrix(3.779528,0,0,3.779528,0,0)"/>
<path style="fill:none;stroke-width:2;stroke-linecap:butt;stroke-linejoin:miter;stroke:rgb(0%,0%,0%);stroke-opacity:1;stroke-miterlimit:4;" d="M 352.00022 17.499707 L 341.999797 33.499764 L 337.499813 49.499821 L 357.499626 59.500244 L 373.499683 47.499943 L 393.999723 30.000236 L 409.99978 53.499577 L 425.999837 85.499691 L 443.999772 84.000041 " transform="matrix(3.779528,0,0,3.779528,0,0)"/>
<path style="fill:none;stroke-width:2;stroke-linecap:butt;stroke-linejoin:miter;stroke:rgb(0%,0%,0%);stroke-opacity:1;stroke-miterlimit:4;" d="M 459.499601 82.000163 L 445.99965 92.49978 L 429.999593 94.499658 L 413.999536 96.000342 L 398.000513 97.499992 L 382.000456 95.500114 L 366.000399 87.499569 L 350.000342 93.500236 L 341.499569 77.500179 L 335.499935 61.500122 L 334.000285 45.500065 L 338.500269 28.99978 L 350.499536 12.999723 L 363.000065 12.499495 L 347.000008 22.499919 " transform="matrix(3.779528,0,0,3.779528,0,0)"/>
<path style="fill:none;stroke-width:2;stroke-linecap:butt;stroke-linejoin:miter;stroke:rgb(0%,0%,0%);stroke-opacity:1;stroke-miterlimit:4;" d="M 361.999609 19.000391 L 352.00022 35.499642 L 348.000464 51.499699 " transform="matrix(3.779528,0,0,3.779528,0,0)"/>
<path style="fill:none;stroke-width:2;stroke-linecap:butt;stroke-linejoin:miter;stroke:rgb(0%,0%,0%);stroke-opacity:1;stroke-miterlimit:4;" d="M 368.000277 24.499797 L 355.499748 39.999626 L 353.49987 55.500488 L 363.500293 25.500252 L 379.999544 21.999691 L 395.999601 26.00048 L 411.999658 28.000358 L 427.999715 28.000358 L 444.5 33.999992 L 456.500301 35.499642 L 454.999618 55.500488 " transform="matrix(3.779528,0,0,3.779528,0,0)"/>
<path style="fill:none;stroke-width:2;stroke-linecap:butt;stroke-linejoin:miter;stroke:rgb(0%,0%,0%);stroke-opacity:1;stroke-miterlimit:4;" d="M 464.499813 87.499569 L 463.999585 75.500301 L 461.999707 60.000472 L 461.999707 41.999504 L 456.000073 37.49952 L 447.999528 21.500496 " transform="matrix(3.779528,0,0,3.779528,0,0)"/>
<path style="fill:none;stroke-width:2;stroke-linecap:butt;stroke-linejoin:miter;stroke:rgb(0%,0%,0%);stroke-opacity:1;stroke-miterlimit:4;" d="M 472.999552 1.999878 L 471.499902 10.000423 L 479.00022 25.500252 L 483.500203 41.500309 L 485.500081 57.500366 L 488.000187 73.500423 L 490.000065 89.50048 L 488.500415 107.999609 L 488.500415 123.999666 L 488.999609 140.499951 L 486.999731 156.500008 L 481.000098 172.500065 L 468.999797 188.500122 L 448.999984 196.000439 L 447.000106 212.000496 L 452.99974 217.499902 L 448.999984 234.000187 L 448.999984 250.000244 L 447.000106 266.499495 L 447.500334 282.499552 L 429.500399 298.499609 L 443.00035 298.499609 L 459.000407 284.500464 L 474.500236 287.999992 L 490.000065 289.99987 L 506.000122 293.500431 " transform="matrix(3.779528,0,0,3.779528,0,0)"/>
<path style="fill:none;stroke-width:2;stroke-linecap:butt;stroke-linejoin:miter;stroke:rgb(0%,0%,0%);stroke-opacity:1;stroke-miterlimit:4;" d="M 494.500049 76.999951 L 495.000277 60.999894 " transform="matrix(3.779528,0,0,3.779528,0,0)"/>
<path style="fill:none;stroke-width:2;stroke-linecap:butt;stroke-linejoin:miter;stroke:rgb(0%,0%,0%);stroke-opacity:1;stroke-miterlimit:4;" d="M 323.499634 82.000163 L 307.499577 73.999618 " transform="matrix(3.779528,0,0,3.779528,0,0)"/>
<path style="fill:none;stroke-width:2;stroke-linecap:butt;stroke-linejoin:miter;stroke:rgb(0%,0%,0%);stroke-opacity:1;stroke-miterlimit:4;" d="M 211.000041 31.499886 L 218.999552 15.499829 L 211.000041 31.499886 L 208.499935 47.499943 L 205.999829 62.999772 L 209.999585 94.999886 L 212.000496 111.500171 L 216.000252 128.000456 L 221.999886 144.499707 L 227.99952 160.499764 L 239.999821 175.999593 " transform="matrix(3.779528,0,0,3.779528,0,0)"/>
<path style="fill:none;stroke-width:2;stroke-linecap:butt;stroke-linejoin:miter;stroke:rgb(0%,0%,0%);stroke-opacity:1;stroke-miterlimit:4;" d="M 248.499561 166.000203 L 234.500415 150.500374 L 228.499748 134.500317 L 224.499992 118.000033 L 216.50048 85.999919 L 214.000374 69.999862 L 214.499569 53.999805 L 216.50048 37.49952 L 223.000342 21.500496 L 230.999854 5.999634 L 202.999495 12.000301 " transform="matrix(3.779528,0,0,3.779528,0,0)"/>
<path style="fill:none;stroke-width:2;stroke-linecap:butt;stroke-linejoin:miter;stroke:rgb(0%,0%,0%);stroke-opacity:1;stroke-miterlimit:4;" d="M 114.500505 352.500448 L 98.999642 354.500326 L 66.999528 354.500326 L 51.000505 354.000098 L 35.000448 353.49987 L 19.000391 353.49987 L 3.000334 354.000098 " transform="matrix(3.779528,0,0,3.779528,0,0)"/>
</g>
</svg>
