<svg xmlns="http://www.w3.org/2000/svg" width="512mm" height="512mm" viewBox="0 0 512 512" version="1.1"><polyline points="339.5,56.5,347.5,72.5,335.5,74.5,341.5,64.5,355.5,71.0,371.5,67.0,387.5,61.0,403.5,55.0,419.0,55.0" stroke="black" stroke-width="2" fill="none" />
<polyline points="425.5,118.0,425.5,122.0,409.5,120.0" stroke="black" stroke-width="2" fill="none" />
<polyline points="397.0,121.5,413.0,125.5,429.5,125.5,445.5,121.5,461.5,115.0,477.5,111.0" stroke="black" stroke-width="2" fill="none" />
<polyline points="475.5,109.0,459.5,111.0,443.5,113.0,427.5,115.0,411.5,114.5,395.5,118.5" stroke="black" stroke-width="2" fill="none" />
<polyline points="405.5,60.0,389.5,64.0,381.0,52.0,365.5,56.0,350.0,60.0,334.5,56.5,318.5,64.5,302.5,59.0" stroke="black" stroke-width="2" fill="none" />
<polyline points="286.0,57.0,302.0,61.0,301.5,70.5,319.5,69.0" stroke="black" stroke-width="2" fill="none" />
<polyline points="335.5,67.5,301.0,73.5,285.0,57.5" stroke="black" stroke-width="2" fill="none" />
<polyline points="254.5,57.5,238.5,55.0,222.0,56.5" stroke="black" stroke-width="2" fill="none" />
<polyline points="220.0,20.0,236.0,16.0,254.5,20.0,260.5,22.0" stroke="black" stroke-width="2" fill="none" />
<polyline points="250.0,69.0,234.0,75.0,218.0,78.5,202.5,81.0,186.5,85.5,170.5,87.0" stroke="black" stroke-width="2" fill="none" />
<polyline points="166.0,89.0,182.0,82.5,198.5,78.0,214.5,76.0,233.0,65.5,245.0,63.5" stroke="black" stroke-width="2" fill="none" />
<polyline points="252.0,5.0,229.5,11.0,225.0,3.0,231.5,25.0,232.0,13.5,238.0,19.5,222.0,27.5,205.5,31.5,189.5,39.5,173.5,45.5,157.5,47.5" stroke="black" stroke-width="2" fill="none" />
<polyline points="152.0,44.0,168.0,42.0,184.5,35.5,200.5,30.0,217.0,20.0,207.0,24.0,175.0,40.5" stroke="black" stroke-width="2" fill="none" />
<polyline points="101.5,67.0,117.5,68.5,133.5,71.0,149.5,67.0,166.0,63.0,182.0,63.0,198.0,66.5,214.5,66.0,230.5,61.5,246.5,59.5,262.5,63.5" stroke="black" stroke-width="2" fill="none" />
<polyline points="177.5,58.0,161.5,58.0,145.5,62.0,129.5,63.5,113.0,62.0,97.0,66.0" stroke="black" stroke-width="2" fill="none" />
<polyline points="96.0,91.0,80.0,90.5" stroke="black" stroke-width="2" fill="none" />
<polyline points="87.5,8.0,83.5,6.0,105.5,8.0,115.5,6.0" stroke="black" stroke-width="2" fill="none" />
<polyline points="100.5,3.5,84.5,5.5" stroke="black" stroke-width="2" fill="none" />
<polyline points="112.5,197.5,96.5,199.5,70.0,205.5,47.5,206.0,19.5,206.0,3.5,206.0" stroke="black" stroke-width="2" fill="none" />
<polyline points="2.5,200.5,18.5,200.5,34.5,204.0,50.5,200.0,66.5,202.0,84.5,200.0,100.0,194.0,116.0,193.5,134.0,193.5,150.0,194.0,166.0,190.0,182.0,186.0,198.0,186.0,214.0,186.0,230.0,188.0,245.5,176.0" stroke="black" stroke-width="2" fill="none" />
<polyline points="251.5,177.0,237.5,181.0,227.5,191.0,245.5,181.5,270.0,180.0,270.0,188.5,290.0,184.5,306.0,186.5,322.0,194.5,330.5,194.5,347.0,186.5,363.0,182.5,378.5,180.5,394.5,176.5,410.5,172.5,426.5,170.5,442.5,170.0,458.0,170.0,474.0,170.0,490.0,170.0,506.5,172.0,500.5,180.0" stroke="black" stroke-width="2" fill="none" />
<polyline points="508.0,210.5,487.5,226.0,491.5,245.5,477.5,261.5,476.0,278.0,476.0,300.0,480.0,326.0,474.0,342.0,472.5,358.0,462.5,375.5,483.0,389.5,489.0,407.5,504.5,402.0,506.5,408.0" stroke="black" stroke-width="2" fill="none" />
<polyline points="508.5,375.0,508.5,365.0" stroke="black" stroke-width="2" fill="none" />
<polyline points="509.0,331.5,493.0,323.5" stroke="black" stroke-width="2" fill="none" />
<polyline points="491.0,331.0,487.0,317.0" stroke="black" stroke-width="2" fill="none" />
<polyline points="480.5,322.5,496.5,302.5,506.0,302.5,494.5,326.5,508.5,343.0,508.5,361.0,504.5,376.5,502.5,383.0" stroke="black" stroke-width="2" fill="none" />
<polyline points="490.5,386.5,493.0,370.5,499.0,354.5,489.0,339.0,483.0,333.0" stroke="black" stroke-width="2" fill="none" />
<polyline points="484.0,339.0,508.0,339.0" stroke="black" stroke-width="2" fill="none" />
<polyline points="475.5,358.5,479.5,364.5,475.5,380.5" stroke="black" stroke-width="2" fill="none" />
<polyline points="465.0,408.0,449.0,408.0" stroke="black" stroke-width="2" fill="none" />
<polyline points="448.0,406.0,464.0,404.0,480.0,404.0,486.0,412.0,502.0,417.5" stroke="black" stroke-width="2" fill="none" />
<polyline points="511.5,426.0,495.5,426.0,479.5,428.0,477.5,412.5,483.0,393.0,487.0,377.0,491.0,361.0,486.5,345.0,470.0,337.0,476.0,321.0,484.0,305.0,490.0,289.0,498.0,273.0,508.0,250.5,492.0,254.0,476.0,278.5,482.5,292.0,485.0,276.0,495.0,260.0,485.5,270.5" stroke="black" stroke-width="2" fill="none" />
<polyline points="463.5,272.0,469.0,256.5,453.5,250.5" stroke="black" stroke-width="2" fill="none" />
<polyline points="455.5,252.5,455.5,260.5,453.5,268.0,449.5,284.0,461.5,299.5,461.5,296.0" stroke="black" stroke-width="2" fill="none" />
<polyline points="441.5,286.0,441.5,302.0,439.5,318.0,439.0,334.0,436.5,349.5,420.0,360.0,419.5,376.0,421.5,392.5,421.0,409.0,432.5,417.0,434.5,433.0,458.5,434.5,475.0,434.5,491.5,434.5,507.5,436.5" stroke="black" stroke-width="2" fill="none" />
<polyline points="504.0,439.5,487.5,439.5,471.5,437.0,455.5,437.0" stroke="black" stroke-width="2" fill="none" />
<polyline points="450.0,422.0,466.5,424.0,482.5,422.0,498.5,422.0" stroke="black" stroke-width="2" fill="none" />
<polyline points="498.5,431.0,482.5,431.0,463.0,419.0,447.0,421.5" stroke="black" stroke-width="2" fill="none" />
<polyline points="428.5,436.0,430.0,420.0,432.5,404.0,428.0,388.0,428.5,372.0,436.0,361.5,432.0,337.5,434.0,323.5,418.0,337.0" stroke="black" stroke-width="2" fill="none" />
<polyline points="425.5,337.0,427.0,335.0,425.0,351.0" stroke="black" stroke-width="2" fill="none" />
<polyline points="406.0,358.5,404.0,374.0" stroke="black" stroke-width="2" fill="none" />
<polyline points="366.5,374.0,350.0,374.5" stroke="black" stroke-width="2" fill="none" />
<polyline points="346.5,384.5,362.5,386.5" stroke="black" stroke-width="2" fill="none" />
<polyline points="344.5,384.5,360.0,380.5,386.0,384.5" stroke="black" stroke-width="2" fill="none" />
<polyline points="405.0,412.0,389.0,409.5,373.0,409.5,357.0,407.5,341.0,407.5" stroke="black" stroke-width="2" fill="none" />
<polyline points="340.5,411.0,356.5,413.0,372.5,415.5,388.5,415.5,405.0,418.0,421.0,424.0" stroke="black" stroke-width="2" fill="none" />
<polyline points="418.0,442.0,402.0,434.5,386.0,432.5,370.0,430.0,354.0,429.5,337.5,427.5" stroke="black" stroke-width="2" fill="none" />
<polyline points="336.5,427.5,352.5,423.5,369.0,425.0,385.0,425.0,400.5,427.0,416.5,433.0" stroke="black" stroke-width="2" fill="none" />
<polyline points="401.5,434.0,421.0,450.0,431.0,469.5" stroke="black" stroke-width="2" fill="none" />
<polyline points="446.5,504.0,463.0,508.0,470.5,502.0" stroke="black" stroke-width="2" fill="none" />
<polyline points="507.0,461.0,491.0,460.5,475.5,458.5,459.5,458.5,443.5,464.5,443.5,448.5,445.5,432.5,445.5,416.5,443.5,400.5,445.5,384.5,446.0,368.5,448.0,352.5,455.5,336.0,457.5,320.0,457.0,309.5,460.5,287.5,458.5,271.5,458.5,255.5,454.0,239.0,450.0,223.0,438.0,219.0" stroke="black" stroke-width="2" fill="none" />
<polyline points="455.0,228.5,471.0,226.5,497.0,220.5" stroke="black" stroke-width="2" fill="none" />
<polyline points="499.5,224.5,485.5,253.0,487.5,261.0,483.5,249.5,497.5,233.5,507.5,217.5" stroke="black" stroke-width="2" fill="none" />
<polyline points="484.0,246.5,468.0,249.0,452.0,233.0" stroke="black" stroke-width="2" fill="none" />
<polyline points="444.5,242.5,447.0,258.5,447.0,275.0,447.0,291.5,449.0,307.5,459.0,309.5,475.0,295.5,495.0,275.5,510.5,257.0" stroke="black" stroke-width="2" fill="none" />
<polyline points="512.0,262.5,500.0,278.5,498.0,294.0,488.0,310.0,492.0,315.5,490.5,329.0,502.5,345.5,500.5,362.0,498.5,378.5,497.0,394.5,503.0,393.0" stroke="black" stroke-width="2" fill="none" />
<polyline points="451.5,372.5,459.5,368.0,457.5,352.0" stroke="black" stroke-width="2" fill="none" />
<polyline points="453.5,345.0,449.5,361.0,449.5,377.0,447.5,393.5,447.5,409.5,447.5,425.5,448.0,442.0,448.0,458.5,450.0,475.0,460.0,479.0,476.0,479.0,492.0,485.0" stroke="black" stroke-width="2" fill="none" />
<polyline points="503.0,457.5,487.0,455.5,471.0,453.5,455.5,455.5,435.5,459.0,429.5,447.0,417.0,428.5,413.0,412.5,401.0,404.5,407.0,390.5,411.0,374.0,412.5,358.0,418.5,353.5,418.5,338.0,430.5,321.5,434.5,305.5,433.0,289.5,438.5,273.5,438.5,257.5,440.0,241.5,438.0,225.5,443.5,221.5,419.0,225.0" stroke="black" stroke-width="2" fill="none" />
<polyline points="415.0,225.0,416.5,241.0,423.0,249.0,430.5,249.0" stroke="black" stroke-width="2" fill="none" />
<polyline points="406.5,251.0,390.5,237.0" stroke="black" stroke-width="2" fill="none" />
<polyline points="390.5,237.5,372.5,227.5" stroke="black" stroke-width="2" fill="none" />
<polyline points="380.5,229.0,396.5,239.0" stroke="black" stroke-width="2" fill="none" />
<polyline points="393.5,234.5,407.5,236.5" stroke="black" stroke-width="2" fill="none" />
<polyline points="396.0,202.5,379.5,190.5" stroke="black" stroke-width="2" fill="none" />
<polyline points="384.0,187.0,390.0,203.5,396.0,203.5" stroke="black" stroke-width="2" fill="none" />
<polyline points="360.0,185.5,342.0,193.5,357.5,187.5,373.5,185.5,389.5,181.5,406.0,178.0,422.0,173.5,438.0,173.5,454.0,174.0,470.0,174.0" stroke="black" stroke-width="2" fill="none" />
<polyline points="463.5,245.5,473.5,261.5,470.0,277.5,466.0,293.5" stroke="black" stroke-width="2" fill="none" />
<polyline points="410.0,294.0,402.0,308.0" stroke="black" stroke-width="2" fill="none" />
<polyline points="382.0,309.5,388.0,297.0,392.0,289.0,407.5,285.0,411.5,293.0,405.5,306.5,399.5,322.5,403.5,340.0,420.0,357.5,437.5,353.5,457.5,341.5,465.5,339.5,482.0,307.5,498.0,279.5" stroke="black" stroke-width="2" fill="none" />
<polyline points="379.0,247.5,363.0,235.5" stroke="black" stroke-width="2" fill="none" />
<polyline points="366.0,235.0,386.0,251.0,399.5,275.0,403.5,287.0,395.5,291.0,399.5,299.0,385.0,306.5,395.0,316.5,389.5,328.0,397.5,354.0,399.5,370.0,387.0,380.0" stroke="black" stroke-width="2" fill="none" />
<polyline points="389.0,400.0,373.0,404.0,357.0,402.0,340.5,398.0" stroke="black" stroke-width="2" fill="none" />
<polyline points="336.0,392.0,351.5,391.5,367.0,392.0,384.5,370.0" stroke="black" stroke-width="2" fill="none" />
<polyline points="355.0,358.5,339.0,384.5" stroke="black" stroke-width="2" fill="none" />
<polyline points="329.5,414.0,329.5,430.5,329.5,447.0,331.5,463.5" stroke="black" stroke-width="2" fill="none" />
<polyline points="338.0,450.0,354.5,452.0,370.5,454.0,386.5,454.0,402.0,454.0,418.0,455.5,433.5,471.5,450.0,479.5,466.0,481.0,481.5,485.0" stroke="black" stroke-width="2" fill="none" />
<polyline points="407.0,494.0,391.0,489.5,375.0,485.5" stroke="black" stroke-width="2" fill="none" />
<polyline points="373.5,486.0,381.5,492.0,397.0,498.5" stroke="black" stroke-width="2" fill="none" />
<polyline points="416.0,450.0,400.0,449.5,384.0,447.5,368.0,447.5,352.0,445.5,336.0,447.5" stroke="black" stroke-width="2" fill="none" />
<polyline points="304.0,404.5,314.0,388.5,306.0,400.5,294.0,384.5,296.0,406.5,308.0,390.0,302.5,370.0,306.5,366.0,280.5,362.0" stroke="black" stroke-width="2" fill="none" />
<polyline points="270.5,369.0,268.0,385.5,274.0,401.5,270.0,418.0,268.5,436.0,268.5,452.5" stroke="black" stroke-width="2" fill="none" />
<polyline points="272.5,442.5,288.5,448.5,304.5,448.5" stroke="black" stroke-width="2" fill="none" />
<polyline points="287.0,374.0,307.0,348.0,287.5,364.5,291.5,364.5,292.0,381.0,288.0,397.0,292.5,413.0,298.5,431.0,310.5,434.5,320.5,414.5,336.5,377.0,354.5,371.0,370.0,365.0" stroke="black" stroke-width="2" fill="none" />
<polyline points="344.0,309.0,327.5,293.0" stroke="black" stroke-width="2" fill="none" />
<polyline points="343.5,289.5,327.5,267.5" stroke="black" stroke-width="2" fill="none" />
<polyline points="331.0,264.0,333.0,279.5,337.0,295.5,351.0,312.0,351.0,328.5,369.0,350.5" stroke="black" stroke-width="2" fill="none" />
<polyline points="342.0,328.0,326.5,318.5" stroke="black" stroke-width="2" fill="none" />
<polyline points="323.5,314.5,325.0,308.5,331.0,324.5,345.0,340.5" stroke="black" stroke-width="2" fill="none" />
<polyline points="335.5,334.0,320.0,320.0" stroke="black" stroke-width="2" fill="none" />
<polyline points="311.5,323.5,323.5,339.5,327.5,355.5" stroke="black" stroke-width="2" fill="none" />
<polyline points="319.5,331.5,303.5,317.5,288.0,321.0" stroke="black" stroke-width="2" fill="none" />
<polyline points="280.5,319.0,296.5,293.0" stroke="black" stroke-width="2" fill="none" />
<polyline points="286.0,300.0,270.5,320.0,254.5,332.0" stroke="black" stroke-width="2" fill="none" />
<polyline points="234.5,331.0,240.0,315.0,268.0,307.5,284.0,285.5,300.0,251.5" stroke="black" stroke-width="2" fill="none" />
<polyline points="305.0,258.5,305.0,274.5,298.5,290.5,290.5,306.5,278.5,322.5,294.5,334.5,278.5,354.0,264.0,370.0,244.0,384.0,242.0,394.0,254.5,410.0,258.5,426.0,264.5,431.5,252.0,441.0,258.0,449.0,251.5,465.0" stroke="black" stroke-width="2" fill="none" />
<polyline points="304.5,411.5,297.0,427.5,281.0,425.5,281.0,411.5,285.0,401.5,287.0,385.5,287.0,381.5,270.5,369.5" stroke="black" stroke-width="2" fill="none" />
<polyline points="211.5,362.5,217.5,369.0,201.5,370.5,196.0,362.5,202.0,352.5,192.5,342.5,204.0,326.5,219.5,310.5,219.5,288.5,235.5,272.5,255.5,256.5,272.0,240.0,268.5,244.0,253.0,258.0,237.0,271.5,221.5,287.0" stroke="black" stroke-width="2" fill="none" />
<polyline points="207.0,263.5,223.5,251.5,239.0,237.5,245.0,233.5,228.5,240.0,210.0,256.0,210.0,247.5,222.5,229.0,224.5,233.5,231.0,245.5,211.0,261.5,219.0,249.5,235.0,235.5,251.0,227.5,245.0,244.0,225.0,260.5,211.0,277.0,206.5,293.0,172.5,309.0,172.5,312.5,188.5,306.5,204.5,300.5,222.0,292.5,238.5,278.5,244.5,253.0,260.5,237.0,252.5,244.5,224.5,267.0,214.5,283.0,206.5,299.0,170.5,302.5,178.5,290.5,172.0,308.5,188.5,301.0,204.5,295.0,224.5,267.0,244.5,271.0,260.5,259.0" stroke="black" stroke-width="2" fill="none" />
<polyline points="260.0,270.0,248.0,286.0,233.5,302.0,239.0,295.5,254.5,275.5" stroke="black" stroke-width="2" fill="none" />
<polyline points="249.0,265.5,234.5,282.0,209.0,278.0,225.0,260.0,241.0,248.0,257.0,234.0" stroke="black" stroke-width="2" fill="none" />
<polyline points="265.0,238.0,251.0,253.5,249.5,271.5,236.0,287.5,218.5,303.5,202.5,320.0,189.0,336.0,169.0,352.0,182.5,362.0,196.5,378.0,212.5,380.5,234.5,382.5,252.5,394.0,276.5,402.0,294.5,408.0,310.5,382.0" stroke="black" stroke-width="2" fill="none" />
<polyline points="288.5,417.5,272.5,405.5,246.0,404.0,230.0,402.5,214.0,402.5,198.0,402.5,182.0,402.5,166.0,402.0" stroke="black" stroke-width="2" fill="none" />
<polyline points="165.0,406.5,180.5,408.5,196.5,406.0,213.0,407.5,229.5,407.5,246.0,407.5" stroke="black" stroke-width="2" fill="none" />
<polyline points="241.0,360.0,239.0,344.0,227.0,340.0,211.0,344.0,195.0,350.0" stroke="black" stroke-width="2" fill="none" />
<polyline points="194.0,343.5,210.0,329.5,218.0,332.0,234.5,316.0,250.5,294.0,266.5,272.0" stroke="black" stroke-width="2" fill="none" />
<polyline points="273.5,268.0,257.5,294.5,247.5,306.5,261.5,291.0,272.0,275.0,282.0,258.5" stroke="black" stroke-width="2" fill="none" />
<polyline points="301.0,262.5,297.0,278.5,291.0,294.5,283.0,310.0,261.0,326.0,247.0,337.5,247.0,354.0" stroke="black" stroke-width="2" fill="none" />
<polyline points="223.5,306.5,207.5,320.0,191.5,340.0" stroke="black" stroke-width="2" fill="none" />
<polyline points="180.5,373.5,164.5,373.5" stroke="black" stroke-width="2" fill="none" />
<polyline points="161.5,371.0,161.5,365.0,178.0,355.0,188.0,363.5,178.5,356.0,183.0,372.0,205.0,374.0,221.0,376.0" stroke="black" stroke-width="2" fill="none" />
<polyline points="246.0,425.5,229.5,423.5,213.5,423.5,198.0,424.0,182.5,424.0,166.5,421.5" stroke="black" stroke-width="2" fill="none" />
<polyline points="164.0,422.0,180.0,418.0,196.5,418.0,212.5,420.0,228.5,420.0,244.5,420.5" stroke="black" stroke-width="2" fill="none" />
<polyline points="180.5,397.5,164.5,397.5" stroke="black" stroke-width="2" fill="none" />
<polyline points="159.5,403.5,175.5,393.5,191.5,397.5,207.5,397.5,224.0,397.5,240.0,391.5" stroke="black" stroke-width="2" fill="none" />
<polyline points="180.5,383.5,164.5,381.5" stroke="black" stroke-width="2" fill="none" />
<polyline points="165.5,379.0,181.5,380.5,205.5,392.5,221.5,392.5,237.5,392.5" stroke="black" stroke-width="2" fill="none" />
<polyline points="150.5,441.0,151.0,424.5,134.5,414.5,118.5,414.0,110.5,398.5,108.5,382.0,116.0,364.0,112.0,348.0,112.0,346.0" stroke="black" stroke-width="2" fill="none" />
<polyline points="121.5,342.5,125.5,346.5,135.5,363.0" stroke="black" stroke-width="2" fill="none" />
<polyline points="124.0,396.0,125.5,380.0,124.0,366.0,120.0,350.0,124.0,334.0,110.0,342.0,94.0,340.0" stroke="black" stroke-width="2" fill="none" />
<polyline points="92.0,335.5,107.5,323.5,123.5,311.0,139.5,321.0" stroke="black" stroke-width="2" fill="none" />
<polyline points="145.5,319.5,129.5,307.0,113.0,311.0,97.0,325.0,81.5,340.5,65.5,359.0,44.0,377.0,32.0,373.0,34.5,353.5,20.5,342.0,16.5,346.0" stroke="black" stroke-width="2" fill="none" />
<polyline points="12.0,350.0,16.0,338.5,16.0,338.0,15.5,354.0,5.5,373.5,3.5,389.0,15.5,399.5,31.5,393.5,33.5,397.5" stroke="black" stroke-width="2" fill="none" />
<polyline points="26.0,417.5,42.0,423.5,66.0,417.0,82.0,409.0,98.5,409.5" stroke="black" stroke-width="2" fill="none" />
<polyline points="95.0,381.0,98.5,364.5,84.0,345.0" stroke="black" stroke-width="2" fill="none" />
<polyline points="78.0,363.0,78.0,367.0,72.5,383.0" stroke="black" stroke-width="2" fill="none" />
<polyline points="69.0,416.0,85.0,413.5,101.0,413.5,117.0,417.5,133.0,419.5,154.5,418.0,154.5,434.5,166.0,440.5,181.5,442.5,197.0,442.5,213.0,444.5,228.5,448.5,244.5,450.0,261.0,437.5,283.5,421.5,300.0,417.5" stroke="black" stroke-width="2" fill="none" />
<polyline points="391.5,393.5,375.5,393.5,375.0,377.5,369.5,376.0,369.5,366.0,383.5,360.0,377.5,348.0,375.5,332.0,367.5,338.0,365.5,322.0,353.5,304.5,353.5,284.5,357.5,268.5,341.5,252.0,341.5,236.0,323.5,234.5" stroke="black" stroke-width="2" fill="none" />
<polyline points="326.5,232.5,326.5,248.5,322.5,264.5,324.5,280.5,330.5,296.5,318.5,312.5,327.0,328.5,338.5,344.0,342.5,360.0,336.5,375.5,332.5,391.0,324.0,407.5,318.0,423.5,320.0,440.0,324.5,458.0" stroke="black" stroke-width="2" fill="none" />
<polyline points="306.0,468.0,290.0,468.0,274.5,465.5,258.5,469.5,242.5,471.0,226.0,471.5,210.0,472.0,194.0,468.0,178.0,468.5,162.0,464.5" stroke="black" stroke-width="2" fill="none" />
<polyline points="141.0,444.0,143.5,428.0,154.0,412.0,148.5,408.5,156.5,392.5,156.5,377.0,148.5,373.0,154.0,357.0,158.0,340.5,160.0,324.5,164.0,308.5,161.5,292.0,161.5,276.0,159.5,260.0,175.5,245.5,160.0,259.5" stroke="black" stroke-width="2" fill="none" />
<polyline points="154.0,259.5,170.0,244.0,186.0,234.5,202.0,226.5,199.5,236.0,173.5,240.0,156.0,256.0,154.0,271.5,153.5,287.0,152.0,303.0,154.0,319.0,166.0,331.0,167.5,346.5,167.5,355.0,161.0,371.5,160.5,387.5,160.5,406.0,161.0,422.5,161.0,440.5,158.5,457.0,170.5,437.0,186.5,437.0,203.0,438.5,219.5,440.5,236.0,442.5,252.0,438.5,280.5,440.5,296.5,442.0,312.5,443.5,312.0,449.5,314.0,465.0" stroke="black" stroke-width="2" fill="none" />
<polyline points="409.0,477.5,393.0,475.5,377.0,475.5,361.0,473.5,345.0,472.0,319.0,470.0,303.0,462.5,287.0,462.5,271.0,460.5,243.0,468.5,227.0,466.5,211.0,466.5,195.0,465.0,179.0,463.0,163.5,459.0,148.0,465.0,132.0,461.0,116.5,459.0,100.5,459.0,84.5,460.5,68.5,456.5,64.5,441.0,68.5,423.0,66.0,407.0,66.0,391.0,67.5,374.5,73.5,358.5,79.0,336.0,87.0,320.0,85.0,304.0,97.0,288.0,91.0,272.0,83.0,266.0,105.0,250.0,129.5,234.0,153.5,208.0,170.0,192.0,174.5,196.0,158.5,209.5" stroke="black" stroke-width="2" fill="none" />
<polyline points="152.0,228.0,135.5,235.5,119.0,247.5,103.0,257.5,87.0,269.0" stroke="black" stroke-width="2" fill="none" />
<polyline points="83.5,266.5,99.5,254.5,115.5,244.5,131.5,234.5,147.5,224.0,150.0,228.0,124.5,244.0,100.5,259.5,104.5,288.0,97.0,308.0,113.0,290.0,119.0,288.0,119.0,280.0,109.0,296.0,99.0,312.0,93.0,340.0,85.0,364.0,83.0,380.0,75.0,400.0,91.0,400.0,112.5,408.0,129.0,394.0,139.0,400.0" stroke="black" stroke-width="2" fill="none" />
<polyline points="143.5,455.5,127.0,451.5,110.5,451.5,94.0,453.5,78.5,453.5,62.5,455.0,49.0,453.0,51.5,439.0,26.0,413.0,36.0,401.0,48.0,394.5,40.5,385.0,30.5,383.5,26.5,367.0,38.5,353.0,57.0,345.5,69.0,329.5,68.5,313.0,62.5,297.0,64.5,281.0,74.0,263.0,86.0,247.5,87.5,246.0,71.0,261.5" stroke="black" stroke-width="2" fill="none" />
<polyline points="76.0,266.5,92.0,250.5,86.0,256.5,70.0,278.0,69.5,293.5,71.5,309.5,73.5,329.0,63.5,345.0,58.0,361.0,52.0,371.0,46.0,383.0,68.0,393.0,75.5,392.5,91.5,394.5,96.0,379.0,112.0,367.0,130.0,387.0,143.5,381.5,166.0,353.5,182.0,343.5,198.0,323.5,214.0,307.5,230.0,294.0,246.0,276.0,254.0,250.5,270.0,230.5" stroke="black" stroke-width="2" fill="none" />
<polyline points="277.5,237.5,265.5,253.5,268.0,269.5,258.0,286.0,243.5,302.0,229.5,318.0,218.0,322.0,202.0,337.5,194.5,353.5,194.5,369.5,194.0,387.5,198.0,383.5,214.0,383.5,230.0,377.5,246.0,378.0,262.0,372.0,277.5,354.0,293.5,351.5,295.5,335.5,311.0,332.0,327.0,356.0" stroke="black" stroke-width="2" fill="none" />
<polyline points="324.0,357.0,318.0,341.0,308.0,325.5,308.0,319.5" stroke="black" stroke-width="2" fill="none" />
<polyline points="347.5,281.5,331.0,243.5" stroke="black" stroke-width="2" fill="none" />
<polyline points="336.0,239.5,352.5,255.5" stroke="black" stroke-width="2" fill="none" />
<polyline points="354.0,261.5,338.0,247.5" stroke="black" stroke-width="2" fill="none" />
<polyline points="342.5,248.5,361.0,264.5,357.0,272.5,377.0,280.5,393.5,266.0" stroke="black" stroke-width="2" fill="none" />
<polyline points="373.0,254.0,357.0,240.0" stroke="black" stroke-width="2" fill="none" />
<polyline points="361.0,232.5,376.5,248.5,398.5,270.0,386.5,278.0,380.0,294.5,382.0,310.5,382.0,326.0,388.0,341.5,391.5,351.0,395.5,366.5,397.5,382.0,411.5,408.5,427.5,435.0" stroke="black" stroke-width="2" fill="none" />
<polyline points="368.5,257.5,353.0,241.5,337.0,231.5" stroke="black" stroke-width="2" fill="none" />
<polyline points="338.5,230.5,361.0,246.5,375.0,262.5,385.0,268.0,373.0,284.0,371.0,299.5,357.0,303.5,359.0,319.0,353.5,335.0,357.5,337.0,353.5,353.5,345.5,369.5,337.5,385.5,333.5,404.0,335.0,420.5,323.0,422.5,335.0,431.0,339.5,447.0,335.5,463.0,346.0,468.5,362.0,468.5,378.0,470.5,394.0,470.5,410.0,474.0,425.5,475.5" stroke="black" stroke-width="2" fill="none" />
<polyline points="398.5,258.0,382.0,245.5,366.0,231.5,350.0,233.0,334.0,227.5" stroke="black" stroke-width="2" fill="none" />
<polyline points="330.5,234.5,334.5,250.5,340.5,266.5,348.5,282.5,348.5,298.5,336.5,316.5,344.0,332.0,354.0,336.0,360.0,353.5,380.0,366.0,386.0,362.0,403.5,356.0" stroke="black" stroke-width="2" fill="none" />
<polyline points="348.5,310.0,341.0,281.5,333.0,265.5" stroke="black" stroke-width="2" fill="none" />
<polyline points="347.5,239.0,363.5,255.0" stroke="black" stroke-width="2" fill="none" />
<polyline points="304.5,233.5,302.0,249.5,294.0,265.5,288.0,281.0,280.0,297.0,254.5,312.5,270.5,298.5,286.0,266.5" stroke="black" stroke-width="2" fill="none" />
<polyline points="300.0,232.0,296.0,248.0,288.0,264.0,280.0,280.5,272.0,296.5,254.0,312.5,231.5,326.5,231.0,342.5,219.0,344.5,213.5,360.0,221.5,366.0,215.5,360.0" stroke="black" stroke-width="2" fill="none" />
<polyline points="140.0,393.0,140.0,377.0,148.5,361.5,153.0,345.5,153.0,329.5,127.0,313.5" stroke="black" stroke-width="2" fill="none" />
<polyline points="127.0,308.0,159.0,328.0" stroke="black" stroke-width="2" fill="none" />
<polyline points="121.0,312.0,121.0,329.5,107.0,345.0,95.0,361.0,87.0,377.0,96.5,359.0,113.0,357.0,129.0,369.0,145.0,367.5" stroke="black" stroke-width="2" fill="none" />
<polyline points="131.5,433.5,116.0,429.5,100.0,425.5,84.0,426.0,68.0,420.5" stroke="black" stroke-width="2" fill="none" />
<polyline points="40.0,407.0,24.0,417.0" stroke="black" stroke-width="2" fill="none" />
<polyline points="24.0,426.0,45.5,442.0" stroke="black" stroke-width="2" fill="none" />
<polyline points="40.5,428.5,24.0,424.5,8.0,424.5" stroke="black" stroke-width="2" fill="none" />
<polyline points="1.0,425.5,17.0,411.5,33.0,404.0,51.5,412.5" stroke="black" stroke-width="2" fill="none" />
<polyline points="49.5,359.5,33.5,354.0" stroke="black" stroke-width="2" fill="none" />
<polyline points="64.5,346.5,80.5,318.0,96.5,319.5,112.5,299.5,108.0,315.0,88.0,331.5,77.5,347.5,63.5,363.5,59.5,380.0,60.0,396.0,60.0,412.0,60.0,428.5,70.0,432.5,86.0,432.5,102.0,432.5,118.0,434.0,134.5,437.5" stroke="black" stroke-width="2" fill="none" />
<polyline points="67.5,510.5,51.0,506.5,35.0,504.5,19.0,502.5" stroke="black" stroke-width="2" fill="none" />
<polyline points="17.5,502.5,33.0,498.5,49.0,500.5,64.5,504.0,80.0,506.0" stroke="black" stroke-width="2" fill="none" />
<polyline points="34.5,453.0,19.0,448.5,3.0,450.5" stroke="black" stroke-width="2" fill="none" />
<polyline points="1.5,445.0,17.5,445.0,33.5,450.0" stroke="black" stroke-width="2" fill="none" />
<polyline points="1.5,362.0,11.5,372.0,16.0,388.0,22.0,386.0,34.0,374.5,50.0,366.5,64.0,334.5" stroke="black" stroke-width="2" fill="none" />
<polyline points="62.5,307.0,78.5,312.5,95.0,290.5" stroke="black" stroke-width="2" fill="none" />
<polyline points="96.5,297.5,87.0,311.5,107.0,308.0,119.0,292.0,127.0,276.5" stroke="black" stroke-width="2" fill="none" />
<polyline points="170.0,269.0,186.0,259.0,201.5,246.5,199.5,248.5,178.0,265.0,180.0,257.0,196.0,245.0" stroke="black" stroke-width="2" fill="none" />
<polyline points="190.5,237.5,174.5,249.5" stroke="black" stroke-width="2" fill="none" />
<polyline points="177.5,281.0,161.0,309.0,173.0,285.5,175.0,259.5,197.0,244.0,215.0,244.5,225.0,228.5" stroke="black" stroke-width="2" fill="none" />
<polyline points="180.0,191.5,154.0,207.5" stroke="black" stroke-width="2" fill="none" />
<polyline points="102.5,230.0,86.5,234.0,70.5,243.5,54.5,257.5,70.0,243.5" stroke="black" stroke-width="2" fill="none" />
<polyline points="71.0,232.0,55.0,244.0,57.0,242.5,83.0,226.5" stroke="black" stroke-width="2" fill="none" />
<polyline points="85.5,228.5,77.5,232.5,59.5,248.5,61.5,244.5,77.5,232.5,93.5,226.0,110.0,224.0" stroke="black" stroke-width="2" fill="none" />
<polyline points="82.5,222.5,66.5,228.5,50.5,240.5,52.5,238.5,80.5,223.0" stroke="black" stroke-width="2" fill="none" />
<polyline points="46.5,230.0,31.0,232.5,15.0,240.5,3.5,248.5,29.5,232.5" stroke="black" stroke-width="2" fill="none" />
<polyline points="28.0,228.0,1.5,244.0,18.0,232.5,34.0,228.5,50.5,224.0" stroke="black" stroke-width="2" fill="none" />
<polyline points="22.5,243.0,34.5,259.5,48.0,275.5" stroke="black" stroke-width="2" fill="none" />
<polyline points="38.5,265.0,22.5,243.0" stroke="black" stroke-width="2" fill="none" />
<polyline points="19.0,245.0,35.0,269.0" stroke="black" stroke-width="2" fill="none" />
<polyline points="18.0,285.0,2.0,297.0" stroke="black" stroke-width="2" fill="none" />
<polyline points="2.0,275.5,18.0,265.5,2.0,271.5,26.0,269.5,12.0,286.0,10.0,288.0,25.5,270.0" stroke="black" stroke-width="2" fill="none" />
<polyline points="18.5,239.5,22.5,255.5,35.5,271.5,26.0,279.5,6.0,295.5,20.0,294.0,44.0,298.0" stroke="black" stroke-width="2" fill="none" />
<polyline points="317.5,190.0,355.0,182.0" stroke="black" stroke-width="2" fill="none" />
</svg>