<svg xmlns="http://www.w3.org/2000/svg" width="512mm" height="512mm" viewBox="0 0 512 512" version="1.1"><polyline points="21.5,62.5,19.5,78.5,19.5,98.5,35.5,86.5,41.5,91.0,55.5,77.0,81.5,65.0" stroke="black" stroke-width="2" fill="none" />
<polyline points="82.0,65.0,86.0,81.5,86.0,97.5,98.0,101.5" stroke="black" stroke-width="2" fill="none" />
<polyline points="108.5,113.5,92.5,123.5,76.5,137.5,66.5,139.5,50.0,153.5,33.5,156.0,17.5,142.0,1.5,128.0" stroke="black" stroke-width="2" fill="none" />
<polyline points="4.0,130.0,19.5,146.0,26.0,162.5,54.0,178.5,42.5,200.0,56.5,211.5,51.0,226.0,47.0,242.0,41.0,258.0,41.0,274.0,21.0,282.0,21.0,297.5,27.0,309.0,43.0,305.0,67.0,307.0,82.5,295.0" stroke="black" stroke-width="2" fill="none" />
<polyline points="87.5,312.0,87.0,316.0,83.0,300.0,87.0,284.0,88.5,268.0,102.0,255.5,100.0,239.0,101.5,223.0,85.5,235.0" stroke="black" stroke-width="2" fill="none" />
<polyline points="96.0,237.5,96.5,253.5,92.5,269.5,92.5,286.0,96.5,286.0,116.5,286.0,118.5,294.0,134.5,290.0,148.0,323.5" stroke="black" stroke-width="2" fill="none" />
<polyline points="169.5,325.5,165.0,309.5,166.5,291.5,150.5,281.5" stroke="black" stroke-width="2" fill="none" />
<polyline points="148.0,271.0,168.0,293.0,171.5,308.5,175.5,324.5" stroke="black" stroke-width="2" fill="none" />
<polyline points="185.5,344.0,185.5,360.0,181.5,376.0,171.0,392.0,154.5,407.5,142.0,400.0,157.5,386.0" stroke="black" stroke-width="2" fill="none" />
<polyline points="172.0,402.0,182.0,402.0,198.5,402.0" stroke="black" stroke-width="2" fill="none" />
<polyline points="178.0,412.0,173.5,428.0,183.0,443.5,163.0,459.5,163.0,471.5,179.0,454.0" stroke="black" stroke-width="2" fill="none" />
<polyline points="192.5,468.0,208.5,440.0,224.5,444.0,240.0,448.0,256.0,442.5,272.0,440.5,288.0,430.5,268.0,440.5" stroke="black" stroke-width="2" fill="none" />
<polyline points="290.0,439.5,306.0,449.0" stroke="black" stroke-width="2" fill="none" />
<polyline points="310.5,456.5,294.5,448.5,286.5,438.5,270.0,446.5,254.5,448.5,232.5,442.0,216.5,435.5,190.5,431.0,174.0,420.5" stroke="black" stroke-width="2" fill="none" />
<polyline points="169.5,426.0,165.0,442.0" stroke="black" stroke-width="2" fill="none" />
<polyline points="165.0,427.5,173.5,405.5,167.0,421.5,163.0,437.5,144.5,456.0,146.0,480.0,158.0,487.5,160.5,507.0,168.5,503.5,185.0,505.5,191.0,499.5,207.0,497.5" stroke="black" stroke-width="2" fill="none" />
<polyline points="197.0,512.0,213.0,508.0,229.5,506.5" stroke="black" stroke-width="2" fill="none" />
<polyline points="255.0,492.0,238.5,490.0,222.5,494.0,214.5,492.0,198.0,492.0,190.0,488.5,174.0,486.5,157.5,488.5,139.5,502.5,131.5,500.5,137.0,492.0,129.0,476.0,121.0,460.0,105.5,453.5,113.5,443.5,117.0,433.5,133.5,410.0,147.5,394.0,163.5,378.0,171.5,362.0,177.5,346.0,185.5,330.0,177.5,314.0,175.5,298.5,169.5,282.5,161.5,274.5,155.5,272.0,159.5,258.0,167.5,252.5,150.0,250.0,140.0,234.0,134.5,217.5,130.5,203.5,124.5,187.0,128.0,171.5,132.0,156.0,124.0,138.0,108.0,114.5,100.0,74.5" stroke="black" stroke-width="2" fill="none" />
<polyline points="100.0,74.5,105.5,90.0,109.5,105.5,117.5,121.5,104.0,146.0,120.0,162.0,120.0,178.0" stroke="black" stroke-width="2" fill="none" />
<polyline points="142.5,162.5,153.0,166.5,147.0,188.5,155.0,208.0,157.0,224.0,155.0,227.5,163.0,233.5,171.0,249.0,165.5,261.0,173.5,277.0,179.5,295.5,181.5,313.5,197.5,329.5,215.5,316.0" stroke="black" stroke-width="2" fill="none" />
<polyline points="208.0,298.0,211.5,302.0,233.5,300.0,223.0,316.0,204.5,331.5,232.0,319.5,246.0,315.5,266.0,297.5" stroke="black" stroke-width="2" fill="none" />
<polyline points="256.0,305.5,264.0,290.0,250.0,286.0,234.0,288.0,218.5,292.5" stroke="black" stroke-width="2" fill="none" />
<polyline points="180.5,295.5,197.0,295.5,213.0,293.5,219.0,311.5,201.0,327.5" stroke="black" stroke-width="2" fill="none" />
<polyline points="208.5,345.0,192.5,345.0" stroke="black" stroke-width="2" fill="none" />
<polyline points="189.5,355.0,197.5,371.0,187.5,387.0,193.5,395.5,219.5,389.5,235.5,383.5,252.0,374.0,268.0,356.5" stroke="black" stroke-width="2" fill="none" />
<polyline points="269.5,353.5,255.5,369.5,251.5,385.5,249.5,396.0" stroke="black" stroke-width="2" fill="none" />
<polyline points="261.5,371.0,237.5,395.5,221.5,399.5" stroke="black" stroke-width="2" fill="none" />
<polyline points="225.5,369.5,223.5,354.0,221.5,344.0,227.5,329.5,235.5,313.5,227.0,333.5" stroke="black" stroke-width="2" fill="none" />
<polyline points="198.0,361.0,196.0,381.0,201.5,384.5,205.5,389.0,207.0,407.5,222.5,409.5,238.5,408.0,255.0,410.5,271.0,410.5" stroke="black" stroke-width="2" fill="none" />
<polyline points="279.0,407.0,263.0,401.0,268.5,387.0,268.5,387.0,252.5,390.5,244.5,398.5,238.5,402.0,216.5,414.0,208.5,410.0,208.5,388.0,216.5,376.0,222.0,374.0,220.5,358.0,234.0,330.0,244.5,328.0,258.0,311.5,268.0,295.5,270.0,279.5,256.0,295.0,244.0,299.0,228.0,293.0,227.5,313.0,211.5,335.0,196.0,339.5,182.0,337.5,166.0,338.0,150.0,336.0,146.0,322.0,130.5,320.5,118.5,304.5,116.0,288.5,138.0,280.5,141.5,264.5,121.5,262.5,128.0,246.5,122.5,230.0,134.5,211.5,118.5,215.5,102.5,219.5" stroke="black" stroke-width="2" fill="none" />
<polyline points="107.5,219.5,107.5,235.5,108.0,251.5,100.0,266.0,119.5,266.0,127.5,274.0,130.0,278.0,142.0,277.5,146.5,297.5" stroke="black" stroke-width="2" fill="none" />
<polyline points="144.0,294.5,150.0,298.5,154.0,314.0" stroke="black" stroke-width="2" fill="none" />
<polyline points="138.0,328.5,122.0,311.0" stroke="black" stroke-width="2" fill="none" />
<polyline points="120.5,305.5,124.5,305.5,138.5,321.5" stroke="black" stroke-width="2" fill="none" />
<polyline points="142.5,335.0,126.5,333.0,110.0,333.5,93.5,335.0,77.0,337.0,61.0,341.0,44.5,344.5,28.0,347.0" stroke="black" stroke-width="2" fill="none" />
<polyline points="14.5,350.5,22.5,352.0,14.5,351.5,12.5,367.5,22.0,379.0,38.0,395.5,49.5,411.5,85.5,429.5,89.5,432.0,106.0,436.0,118.0,426.0,126.0,410.5,142.0,392.5" stroke="black" stroke-width="2" fill="none" />
<polyline points="112.0,395.5,96.0,399.0,79.5,395.5,63.5,400.0,37.5,396.0,37.5,380.0,37.5,374.0" stroke="black" stroke-width="2" fill="none" />
<polyline points="25.5,384.5,37.5,374.5,37.5,380.5,43.5,396.5,57.5,412.0,70.0,412.0,90.5,424.0,106.5,423.5,122.5,412.0,143.0,418.0,159.0,404.0,175.0,384.0,197.0,376.0,211.0,376.0" stroke="black" stroke-width="2" fill="none" />
<polyline points="180.0,353.5,176.0,369.5,168.0,385.0,154.0,401.0,132.0,417.0,112.0,415.0,134.0,409.0,150.0,403.0,165.5,387.5" stroke="black" stroke-width="2" fill="none" />
<polyline points="154.0,381.5,166.5,365.0" stroke="black" stroke-width="2" fill="none" />
<polyline points="150.0,362.5,150.0,378.0,139.5,394.5,125.5,410.5" stroke="black" stroke-width="2" fill="none" />
<polyline points="120.0,458.0,136.0,470.0,148.5,460.0,164.5,460.0,180.5,448.0,186.5,436.5" stroke="black" stroke-width="2" fill="none" />
<polyline points="207.5,430.0,207.5,442.0,201.0,458.5,189.0,464.5,181.5,484.5,187.5,504.5,177.5,502.5,195.5,504.0,211.5,504.0,227.5,498.0,244.0,495.5,259.5,499.5" stroke="black" stroke-width="2" fill="none" />
<polyline points="278.0,490.0,262.0,480.0,245.5,475.5,229.5,473.5,213.5,467.5,198.0,469.0" stroke="black" stroke-width="2" fill="none" />
<polyline points="206.0,457.0,214.0,473.0" stroke="black" stroke-width="2" fill="none" />
<polyline points="245.5,481.0,269.5,497.0" stroke="black" stroke-width="2" fill="none" />
<polyline points="242.5,505.0,232.5,511.0,210.5,508.5,223.0,480.0,207.0,480.0,191.5,476.0,175.5,480.0,160.0,484.0,144.5,494.0,128.0,482.5,120.5,482.5,110.5,466.5,98.5,450.0,82.0,433.5,74.0,417.5,58.0,401.5,64.0,385.5,68.0,369.5,64.0,351.0,70.5,335.0,80.5,317.0,54.0,301.5,40.0,285.5,48.0,282.0,47.5,266.0,66.0,256.0,70.0,240.0,72.0,224.0,66.0,220.0,50.0,216.0" stroke="black" stroke-width="2" fill="none" />
<polyline points="51.0,208.0,67.0,198.0" stroke="black" stroke-width="2" fill="none" />
<polyline points="39.0,213.0,53.0,231.5,49.0,247.5,53.5,273.5,54.0,290.0,42.5,306.0" stroke="black" stroke-width="2" fill="none" />
<polyline points="60.0,295.5,62.0,294.0" stroke="black" stroke-width="2" fill="none" />
<polyline points="77.0,321.5,60.5,323.5,50.5,319.5,44.5,325.5,60.5,298.0,66.0,282.5,72.0,285.0,74.0,269.0,71.5,253.0,73.5,237.0,69.5,228.5,53.5,229.0" stroke="black" stroke-width="2" fill="none" />
<polyline points="32.5,246.0,24.5,256.0,38.5,240.0,44.5,223.5,26.5,247.5" stroke="black" stroke-width="2" fill="none" />
<polyline points="51.5,260.0,31.5,260.0,15.0,266.0,5.0,258.0,11.5,256.0,18.0,240.0,22.0,224.5,27.5,209.0,31.5,193.0,38.0,177.0,24.0,170.5" stroke="black" stroke-width="2" fill="none" />
<polyline points="10.5,183.0,26.5,162.5,43.0,168.5,59.5,172.5" stroke="black" stroke-width="2" fill="none" />
<polyline points="60.0,158.0,76.0,164.0" stroke="black" stroke-width="2" fill="none" />
<polyline points="59.5,156.5,75.5,152.5,91.5,147.0,117.5,137.0,133.0,149.0,148.5,148.5,164.5,151.0,180.5,148.5,196.5,148.5,212.5,151.0,228.5,151.0,244.5,153.0,260.0,155.5" stroke="black" stroke-width="2" fill="none" />
<polyline points="240.0,164.0,246.0,180.0,248.0,196.0,250.0,212.5,254.0,228.5,258.0,244.5,263.5,260.5" stroke="black" stroke-width="2" fill="none" />
<polyline points="242.0,222.0,236.0,206.5,230.0,191.0,227.5,169.0" stroke="black" stroke-width="2" fill="none" />
<polyline points="225.5,164.5,231.5,180.5,237.0,196.5,243.0,212.5,252.5,214.0" stroke="black" stroke-width="2" fill="none" />
<polyline points="239.5,254.0,241.5,250.0,227.5,258.0,223.5,278.5,211.5,272.5,207.5,268.5,217.5,252.0,233.5,246.0,215.5,246.5" stroke="black" stroke-width="2" fill="none" />
<polyline points="219.5,216.0,218.0,200.0,218.5,184.5,218.5,166.5,202.5,175.0" stroke="black" stroke-width="2" fill="none" />
<polyline points="186.5,168.5,196.5,170.5,188.5,186.5" stroke="black" stroke-width="2" fill="none" />
<polyline points="165.0,190.0,165.0,194.0,159.0,220.0,175.0,216.0" stroke="black" stroke-width="2" fill="none" />
<polyline points="178.5,218.0,168.5,196.0,182.5,192.0,186.0,176.0,178.0,161.5,162.0,161.5" stroke="black" stroke-width="2" fill="none" />
<polyline points="152.5,182.5,156.5,198.5,144.5,222.5,158.5,238.5,144.5,250.5,160.5,254.5" stroke="black" stroke-width="2" fill="none" />
<polyline points="180.5,273.0,196.0,273.0,218.0,269.5" stroke="black" stroke-width="2" fill="none" />
<polyline points="250.0,269.5,234.0,273.5,212.0,272.0,196.5,280.0,180.5,278.0" stroke="black" stroke-width="2" fill="none" />
<polyline points="136.0,255.5,130.5,239.5,126.5,223.0" stroke="black" stroke-width="2" fill="none" />
<polyline points="129.0,218.0,135.0,233.5,141.5,249.5,148.0,265.5,148.5,273.5,148.5,290.0,143.0,306.0,161.0,314.0,154.5,330.0,170.5,330.0,190.5,334.5,206.5,332.5,222.5,316.0" stroke="black" stroke-width="2" fill="none" />
<polyline points="258.5,273.5,242.5,277.5,226.5,283.5,210.5,285.5,194.0,288.0,178.0,288.5,172.0,284.5,162.0,250.5,146.0,244.5,130.0,218.0" stroke="black" stroke-width="2" fill="none" />
<polyline points="111.5,223.0,111.5,239.0,119.5,255.5,121.5,271.5,127.5,294.0,133.5,302.0,125.5,308.0" stroke="black" stroke-width="2" fill="none" />
<polyline points="119.0,340.5,115.0,356.0,113.0,372.0,123.0,365.5,126.5,359.5,140.0,363.5,148.0,387.5,147.5,365.5,165.5,353.5,171.5,352.0,193.5,356.0,209.5,349.5,225.5,341.5,241.5,329.5" stroke="black" stroke-width="2" fill="none" />
<polyline points="273.5,356.0,261.5,372.0,255.5,386.5,271.5,378.5" stroke="black" stroke-width="2" fill="none" />
<polyline points="290.5,434.5,288.5,446.5" stroke="black" stroke-width="2" fill="none" />
<polyline points="249.0,477.5,277.0,493.5,263.0,510.0" stroke="black" stroke-width="2" fill="none" />
<polyline points="175.5,510.0,159.5,508.0" stroke="black" stroke-width="2" fill="none" />
<polyline points="171.5,460.5,194.0,454.0,196.5,438.0,201.0,422.0,191.0,413.5,175.5,411.0" stroke="black" stroke-width="2" fill="none" />
<polyline points="160.5,457.5,144.5,455.0" stroke="black" stroke-width="2" fill="none" />
<polyline points="147.0,477.5,128.5,477.5,112.5,459.5" stroke="black" stroke-width="2" fill="none" />
<polyline points="111.5,457.0,111.5,448.5,113.5,466.5,129.5,490.5" stroke="black" stroke-width="2" fill="none" />
<polyline points="87.5,403.5,72.0,401.5" stroke="black" stroke-width="2" fill="none" />
<polyline points="59.5,393.5,75.5,387.5,91.5,383.5" stroke="black" stroke-width="2" fill="none" />
<polyline points="68.5,367.5,62.5,392.0,72.0,408.0,91.5,408.0,99.5,416.0,111.0,406.0" stroke="black" stroke-width="2" fill="none" />
<polyline points="104.5,402.5,102.5,382.0,86.0,378.0,70.0,384.0,54.0,392.0" stroke="black" stroke-width="2" fill="none" />
<polyline points="42.0,391.5,57.5,409.5,81.5,417.0,97.5,411.0" stroke="black" stroke-width="2" fill="none" />
<polyline points="108.0,441.0,92.0,439.0,76.0,427.0,61.5,420.5,57.5,418.5,52.0,411.0,36.0,405.0,20.0,389.0,10.0,413.0,5.5,425.0,21.5,409.0,35.5,401.5,21.5,385.5,24.0,370.0,42.0,350.5,26.0,352.5,20.0,360.5" stroke="black" stroke-width="2" fill="none" />
<polyline points="3.5,352.5,19.0,344.5,35.0,342.5,50.5,338.0,66.0,332.0" stroke="black" stroke-width="2" fill="none" />
<polyline points="122.5,347.5,108.5,337.5,93.0,339.5,79.0,352.0,73.0,344.0,63.0,348.5,42.5,336.5,26.5,339.0,10.0,341.0,6.0,329.0" stroke="black" stroke-width="2" fill="none" />
<polyline points="15.0,382.0,25.0,387.5,41.0,403.5" stroke="black" stroke-width="2" fill="none" />
<polyline points="50.5,439.5,34.5,449.0,18.5,449.0,2.5,449.0" stroke="black" stroke-width="2" fill="none" />
<polyline points="3.0,442.5,19.0,442.5,35.0,442.5,51.5,432.5,61.5,432.5" stroke="black" stroke-width="2" fill="none" />
<polyline points="38.0,440.0,54.0,420.0,32.0,403.5,14.0,418.0,4.0,420.0,20.5,404.5,21.0,393.0,9.0,381.0,3.0,385.0" stroke="black" stroke-width="2" fill="none" />
<polyline points="35.5,298.0,11.5,310.0,11.5,293.5,14.0,277.5,5.5,259.5,9.5,243.5,15.5,227.5,19.5,211.5,25.5,195.0,27.5,179.5,13.5,178.0,20.0,178.0,18.0,160.5,2.0,160.0" stroke="black" stroke-width="2" fill="none" />
<polyline points="2.0,148.5,18.0,152.5,34.5,158.5,50.5,163.0,66.5,169.0" stroke="black" stroke-width="2" fill="none" />
<polyline points="75.5,141.5,91.5,139.5,117.5,151.5,119.5,145.5,132.0,153.5,148.0,151.5,150.5,163.5,159.0,154.0,175.5,152.0,191.5,152.0,196.0,164.0,211.5,162.0,227.5,162.0,243.0,164.0,238.5,195.5" stroke="black" stroke-width="2" fill="none" />
<polyline points="244.5,198.5,242.5,182.5,236.5,166.5" stroke="black" stroke-width="2" fill="none" />
<polyline points="237.0,160.5,249.0,166.5,253.0,182.0,255.0,197.5,259.0,213.5,263.0,229.0,259.5,233.0,266.0,249.5,260.0,261.5,260.0,271.5,256.0,283.5,254.0,299.5,240.0,303.0,228.0,313.0,220.0,329.0,214.0,343.0,212.0,363.0,212.0,379.0,209.5,395.5,191.5,407.5,193.0,423.5,203.5,430.0,200.0,445.5,196.0,461.0,190.5,477.0,224.5,475.0,230.5,481.0,209.0,487.5,221.0,485.5,246.5,481.0,262.5,485.0,266.5,495.5,248.5,509.0,252.0,504.5,264.0,509.0" stroke="black" stroke-width="2" fill="none" />
<polyline points="385.5,509.5,392.0,505.5,408.0,502.0" stroke="black" stroke-width="2" fill="none" />
<polyline points="416.5,504.0,400.0,510.0" stroke="black" stroke-width="2" fill="none" />
<polyline points="397.5,466.0,381.5,482.0,394.0,470.0,410.0,458.0,426.0,456.5" stroke="black" stroke-width="2" fill="none" />
<polyline points="433.0,450.0,439.0,434.0,439.0,418.0,414.5,416.0" stroke="black" stroke-width="2" fill="none" />
<polyline points="423.0,408.0,397.0,394.0,381.0,374.5,365.0,350.5" stroke="black" stroke-width="2" fill="none" />
<polyline points="367.0,346.0,379.0,361.5,389.0,377.0,391.0,393.0,395.0,401.0,420.5,401.0,437.0,411.0" stroke="black" stroke-width="2" fill="none" />
<polyline points="452.0,391.5,468.0,391.0,484.0,389.0,499.5,393.0" stroke="black" stroke-width="2" fill="none" />
<polyline points="495.5,386.0,507.5,402.5" stroke="black" stroke-width="2" fill="none" />
<polyline points="509.5,349.5,493.5,343.5,477.0,333.5,461.0,325.5" stroke="black" stroke-width="2" fill="none" />
<polyline points="466.0,322.0,482.0,330.0,497.5,340.0" stroke="black" stroke-width="2" fill="none" />
<polyline points="507.0,317.0,491.0,311.5" stroke="black" stroke-width="2" fill="none" />
<polyline points="493.0,309.5,504.5,326.0" stroke="black" stroke-width="2" fill="none" />
<polyline points="501.5,321.5,485.0,311.0" stroke="black" stroke-width="2" fill="none" />
<polyline points="482.0,316.0,504.0,332.0" stroke="black" stroke-width="2" fill="none" />
<polyline points="502.0,331.0,486.0,319.0,470.5,317.0,454.5,321.0" stroke="black" stroke-width="2" fill="none" />
<polyline points="473.0,313.5,481.0,329.5" stroke="black" stroke-width="2" fill="none" />
<polyline points="485.0,339.5,459.0,323.5,475.0,308.0" stroke="black" stroke-width="2" fill="none" />
<polyline points="508.5,282.5,486.5,286.5,470.0,292.5,454.0,302.5,437.5,288.5" stroke="black" stroke-width="2" fill="none" />
<polyline points="435.0,285.5,451.0,293.5,467.0,288.0,483.0,282.0" stroke="black" stroke-width="2" fill="none" />
<polyline points="473.5,291.0,498.0,275.0,500.0,258.5" stroke="black" stroke-width="2" fill="none" />
<polyline points="494.5,254.5,491.0,270.5,467.0,286.5,459.0,298.5" stroke="black" stroke-width="2" fill="none" />
<polyline points="439.0,282.5,445.0,298.5,463.0,312.5,479.0,308.0,495.0,306.0,511.0,303.5" stroke="black" stroke-width="2" fill="none" />
<polyline points="465.5,253.5,451.5,269.5" stroke="black" stroke-width="2" fill="none" />
<polyline points="461.0,253.0,451.0,266.5,462.5,250.5" stroke="black" stroke-width="2" fill="none" />
<polyline points="457.5,204.5,473.5,196.5,489.5,183.0,477.5,175.0" stroke="black" stroke-width="2" fill="none" />
<polyline points="467.0,178.5,438.5,166.5,422.5,166.5" stroke="black" stroke-width="2" fill="none" />
<polyline points="418.5,164.5,434.0,162.5,450.0,168.5,465.5,170.5,481.5,165.0,483.5,162.5" stroke="black" stroke-width="2" fill="none" />
<polyline points="483.5,150.0,499.5,162.0" stroke="black" stroke-width="2" fill="none" />
<polyline points="495.0,168.5,486.5,184.5,470.5,200.0,474.5,216.0,478.0,200.5,494.0,186.5,510.0,184.0" stroke="black" stroke-width="2" fill="none" />
<polyline points="506.0,156.0,490.0,144.0" stroke="black" stroke-width="2" fill="none" />
<polyline points="487.5,138.5,489.5,154.5,503.5,170.5,493.5,186.5,475.5,202.5,481.5,216.0,482.0,208.0" stroke="black" stroke-width="2" fill="none" />
<polyline points="428.5,213.5,430.5,201.5,434.5,199.5,424.5,215.5,432.5,231.5" stroke="black" stroke-width="2" fill="none" />
<polyline points="434.0,225.0,430.5,209.5,437.0,193.5,429.0,191.5" stroke="black" stroke-width="2" fill="none" />
<polyline points="461.0,157.5,445.0,148.0,429.0,132.0" stroke="black" stroke-width="2" fill="none" />
<polyline points="426.0,130.5,442.5,130.0,458.0,130.0,473.5,128.0,489.5,128.0,505.0,128.0" stroke="black" stroke-width="2" fill="none" />
<polyline points="504.0,147.0,488.0,137.0" stroke="black" stroke-width="2" fill="none" />
<polyline points="489.5,101.0,505.0,105.0" stroke="black" stroke-width="2" fill="none" />
<polyline points="508.0,109.5,502.0,97.5,486.0,97.0" stroke="black" stroke-width="2" fill="none" />
<polyline points="497.0,122.5,481.0,124.0,465.0,121.5,449.0,125.5,433.0,119.5,417.0,127.5" stroke="black" stroke-width="2" fill="none" />
<polyline points="418.5,131.0,434.5,147.0,450.5,157.5" stroke="black" stroke-width="2" fill="none" />
<polyline points="459.0,158.0,437.0,142.5,431.0,126.5" stroke="black" stroke-width="2" fill="none" />
<polyline points="427.0,119.0,418.5,135.0,435.0,151.0,454.5,167.0,464.5,176.5,480.0,172.5,496.5,168.5" stroke="black" stroke-width="2" fill="none" />
<polyline points="364.0,269.0,348.0,277.0,334.5,300.5,326.0,300.5,309.5,322.0,303.5,340.0,309.5,322.0,319.0,306.0,335.5,289.5,339.0,273.5,354.5,267.5,338.0,271.5" stroke="black" stroke-width="2" fill="none" />
<polyline points="345.0,276.5,343.0,292.5,326.5,308.5,316.5,324.5,304.5,340.5" stroke="black" stroke-width="2" fill="none" />
<polyline points="362.0,345.5,378.0,359.5,378.0,380.0,384.0,394.0" stroke="black" stroke-width="2" fill="none" />
<polyline points="365.0,344.0,371.0,360.0,375.0,375.5,380.5,391.5,410.5,402.0,430.0,412.0,434.5,428.0,430.5,444.0,398.5,460.0,380.5,476.5,384.5,472.5,400.5,458.0,416.5,449.5,432.5,441.5" stroke="black" stroke-width="2" fill="none" />
<polyline points="400.0,447.5,384.0,451.5,368.0,461.5,392.0,447.5" stroke="black" stroke-width="2" fill="none" />
<polyline points="448.5,387.0,464.5,387.0,481.0,384.5,497.5,376.5,506.0,368.5,478.0,384.5" stroke="black" stroke-width="2" fill="none" />
<polyline points="340.0,207.5,324.0,197.5" stroke="black" stroke-width="2" fill="none" />
<polyline points="322.0,195.0,342.0,211.0,341.5,227.0" stroke="black" stroke-width="2" fill="none" />
<polyline points="346.5,227.0,349.0,211.0,349.0,195.0,340.5,183.5,324.5,181.5" stroke="black" stroke-width="2" fill="none" />
<polyline points="324.0,178.0,339.5,177.5,349.0,182.0,344.5,198.0" stroke="black" stroke-width="2" fill="none" />
<polyline points="339.0,199.5,323.0,193.5" stroke="black" stroke-width="2" fill="none" />
<polyline points="265.5,222.0,264.0,206.0,260.0,190.0,258.5,174.0,253.0,158.5,243.0,156.5,227.0,154.5,211.5,154.5" stroke="black" stroke-width="2" fill="none" />
<polyline points="218.5,167.5,222.0,183.5,222.0,199.5,224.0,215.0,234.0,219.0,228.5,212.5" stroke="black" stroke-width="2" fill="none" />
<polyline points="207.5,222.5,203.5,206.5" stroke="black" stroke-width="2" fill="none" />
<polyline points="195.5,101.5,179.5,101.5,164.0,104.0,148.5,104.0,132.5,101.5" stroke="black" stroke-width="2" fill="none" />
<polyline points="131.0,98.5,146.5,98.5,162.5,98.0,179.0,97.5,195.5,97.5" stroke="black" stroke-width="2" fill="none" />
<polyline points="94.0,71.5,98.0,87.5,98.0,104.0,98.0,116.0,86.0,131.5,64.5,141.5,58.0,155.5,78.0,171.5,78.0,187.5,64.5,203.5,87.0,199.5,102.5,200.0,119.0,200.0,133.0,206.0,145.0,216.0,161.0,226.0,161.0,238.5,178.5,250.5,194.5,252.5,210.5,253.0,214.5,255.0,218.5,243.0,234.5,245.0,244.5,245.5,239.0,265.0" stroke="black" stroke-width="2" fill="none" />
<polyline points="127.0,349.5,135.0,365.5,145.0,377.5" stroke="black" stroke-width="2" fill="none" />
<polyline points="70.0,304.0,76.0,287.5,82.0,271.5,85.5,255.5,84.5,239.5,88.5,223.5" stroke="black" stroke-width="2" fill="none" />
<polyline points="57.0,179.0,35.0,181.0,21.5,200.5,7.5,209.0,4.0,223.0,14.0,207.0,4.5,205.5,4.5,190.0,2.5,188.0" stroke="black" stroke-width="2" fill="none" />
<polyline points="9.5,122.0,25.5,141.5,41.5,141.5,57.5,131.5" stroke="black" stroke-width="2" fill="none" />
<polyline points="62.0,113.5,46.5,109.0,30.5,105.0,15.0,106.5,3.0,110.5" stroke="black" stroke-width="2" fill="none" />
<polyline points="8.0,117.5,24.0,119.5" stroke="black" stroke-width="2" fill="none" />
<polyline points="31.5,118.0,15.0,111.5" stroke="black" stroke-width="2" fill="none" />
<polyline points="13.5,111.5,10.0,101.5,14.0,83.5,16.0,68.0,16.0,66.5" stroke="black" stroke-width="2" fill="none" />
<polyline points="45.5,63.0,43.5,79.0" stroke="black" stroke-width="2" fill="none" />
<polyline points="49.0,66.0,59.5,70.0,61.0,85.5,81.5,101.5,83.5,117.5,62.0,135.5,42.0,157.5,58.5,162.0,74.5,168.0,85.0,172.5,83.0,188.5,79.0,198.5,97.0,194.5,113.0,194.0,133.0,196.0,137.0,205.5,141.0,210.0,155.0,210.0,171.0,212.5" stroke="black" stroke-width="2" fill="none" />
<polyline points="70.0,107.0,54.5,107.0,38.0,103.0,22.0,101.0" stroke="black" stroke-width="2" fill="none" />
<polyline points="10.5,117.0,16.5,132.5,30.5,148.5,70.5,172.5,62.5,180.5,56.5,196.5,49.0,212.5,31.0,214.5,39.5,228.0,29.0,244.0,21.0,230.5,35.0,218.0,43.0,200.0,47.0,207.5,40.5,205.5,56.0,195.5" stroke="black" stroke-width="2" fill="none" />
<polyline points="51.5,113.5,63.5,129.5,41.5,149.5,57.5,139.0,67.5,125.0,67.5,114.5,84.0,114.5" stroke="black" stroke-width="2" fill="none" />
<polyline points="68.0,81.5,66.0,65.5" stroke="black" stroke-width="2" fill="none" />
<polyline points="79.0,61.5,79.0,77.5,63.5,85.5,75.5,91.5" stroke="black" stroke-width="2" fill="none" />
</svg>