<svg xmlns="http://www.w3.org/2000/svg" width="512mm" height="512mm" viewBox="0 0 512 512" version="1.1"><polyline points="359.5,2.5,361.5,18.5,365.5,34.5,369.5,50.5,371.5,67.0,371.5,83.0,373.5,99.0,373.5,115.0,373.0,147.0,379.0,162.5,380.5,178.5,379.0,194.5,379.0,210.5,377.0,226.5,367.5,242.0,361.5,257.5,367.5,239.0" stroke="black" stroke-width="2" fill="none" />
<polyline points="378.5,229.0,376.5,245.5,374.0,261.5" stroke="black" stroke-width="2" fill="none" />
<polyline points="380.0,258.0,382.5,242.0,384.5,225.5,384.5,209.5,387.0,193.5,387.0,187.5" stroke="black" stroke-width="2" fill="none" />
<polyline points="389.0,192.0,393.0,207.5,395.5,223.5" stroke="black" stroke-width="2" fill="none" />
<polyline points="420.0,268.5,403.5,256.0,405.5,240.0,409.5,224.0,407.0,208.0,405.5,191.5,401.0,175.5,394.5,159.5,388.0,147.5" stroke="black" stroke-width="2" fill="none" />
<polyline points="382.5,153.5,386.0,169.5,388.0,185.5,396.0,199.0,404.0,217.0,404.5,232.5,400.5,248.5,390.0,250.5,392.0,258.5,392.0,282.5,374.0,298.5,376.0,298.0,391.5,282.5,397.5,264.5,408.0,266.5" stroke="black" stroke-width="2" fill="none" />
<polyline points="386.5,270.0,370.0,270.5,354.0,266.5,338.0,267.0,322.0,265.0,306.0,263.5,290.5,259.0,274.5,253.0" stroke="black" stroke-width="2" fill="none" />
<polyline points="268.0,251.5,274.5,267.5,268.5,277.5,292.5,288.0,298.5,304.0,322.5,320.0,332.5,336.0,326.5,352.0,326.0,367.5" stroke="black" stroke-width="2" fill="none" />
<polyline points="349.5,377.5,365.5,389.5,391.5,403.0,388.0,419.0,376.5,434.5,389.0,454.0,378.5,477.5,394.0,475.5,409.5,475.5,425.5,475.5,441.0,473.0,459.5,461.5,472.0,447.5,482.0,455.5,498.5,453.5,508.5,463.5" stroke="black" stroke-width="2" fill="none" />
<polyline points="496.0,442.0,510.0,436.0,500.0,438.5,492.0,440.5,500.0,430.0,506.0,413.5,509.5,425.5" stroke="black" stroke-width="2" fill="none" />
<polyline points="511.5,423.5,509.5,439.5" stroke="black" stroke-width="2" fill="none" />
<polyline points="507.0,460.5,491.5,464.5,475.5,460.5,472.0,450.0,478.5,434.0,481.0,418.0,477.0,404.0,481.0,400.0,459.0,406.5,443.0,406.5" stroke="black" stroke-width="2" fill="none" />
<polyline points="430.0,409.5,446.0,409.5,458.0,422.0,452.0,438.0,440.0,452.5,446.0,470.5" stroke="black" stroke-width="2" fill="none" />
<polyline points="460.0,455.0,470.0,439.5,472.0,423.5" stroke="black" stroke-width="2" fill="none" />
<polyline points="469.0,402.0,455.0,417.5,449.0,433.0,435.0,449.0,437.0,465.0,446.5,463.0,463.0,467.0,479.0,465.0" stroke="black" stroke-width="2" fill="none" />
<polyline points="404.0,431.5,388.0,431.5" stroke="black" stroke-width="2" fill="none" />
<polyline points="394.0,401.0,378.0,393.5" stroke="black" stroke-width="2" fill="none" />
<polyline points="353.5,415.0,370.0,399.0,358.0,408.5,354.0,424.0,368.5,440.0,366.5,455.5,376.5,471.5" stroke="black" stroke-width="2" fill="none" />
<polyline points="340.0,471.0,337.5,455.0,351.5,439.0,348.0,435.5,348.0,419.5,354.0,404.0,374.0,392.0,364.0,394.0,348.5,416.5" stroke="black" stroke-width="2" fill="none" />
<polyline points="325.5,448.5,341.0,448.5,365.0,446.5,363.0,462.5,354.5,478.0" stroke="black" stroke-width="2" fill="none" />
<polyline points="320.0,450.0,335.5,434.0" stroke="black" stroke-width="2" fill="none" />
<polyline points="336.5,464.5,320.5,464.5,304.5,449.0" stroke="black" stroke-width="2" fill="none" />
<polyline points="299.5,450.0,297.5,466.5,287.5,495.0,295.5,495.5" stroke="black" stroke-width="2" fill="none" />
<polyline points="291.0,477.5,284.5,467.5,278.5,451.5,297.0,443.5,309.0,435.5,313.0,425.5,299.0,405.5,283.0,397.5,267.0,391.5,250.5,403.5" stroke="black" stroke-width="2" fill="none" />
<polyline points="248.5,402.0,264.5,384.0,280.0,362.0,288.0,345.5,280.0,361.5,270.0,377.5,268.0,399.0,264.5,425.5,232.5,425.5" stroke="black" stroke-width="2" fill="none" />
<polyline points="207.0,425.5,221.5,423.5,213.0,427.5,195.0,451.5,200.5,456.0,218.0,474.0,234.0,477.5,250.5,479.0,266.5,479.5,283.0,481.5,299.0,485.5,315.0,483.5,331.0,473.5" stroke="black" stroke-width="2" fill="none" />
<polyline points="301.5,476.5,316.0,462.0,300.0,446.5" stroke="black" stroke-width="2" fill="none" />
<polyline points="286.0,427.0,302.0,415.0" stroke="black" stroke-width="2" fill="none" />
<polyline points="299.0,415.5,287.0,431.5,273.0,443.5" stroke="black" stroke-width="2" fill="none" />
<polyline points="291.0,386.0,307.0,384.0,323.5,382.5,339.5,376.5,356.0,375.0,372.0,387.0,388.5,393.0" stroke="black" stroke-width="2" fill="none" />
<polyline points="399.5,402.5,371.5,386.5,353.5,378.5,349.5,362.0,347.5,346.0,343.5,338.5" stroke="black" stroke-width="2" fill="none" />
<polyline points="347.0,351.5,342.5,368.0,341.0,390.0,343.0,398.0,333.0,416.0" stroke="black" stroke-width="2" fill="none" />
<polyline points="323.0,419.0,307.0,412.5,291.0,414.5,279.0,430.0,269.0,424.0,254.5,431.5,238.5,437.5,238.5,441.0,228.5,435.0,246.0,425.0,248.5,401.0,264.5,393.5,256.5,371.5,252.5,355.5,249.0,339.5,242.5,324.0,228.5,304.0,236.0,290.0,220.0,306.0" stroke="black" stroke-width="2" fill="none" />
<polyline points="229.5,303.0,245.0,285.5,257.0,280.0,242.5,296.0,228.0,312.0,199.5,328.5" stroke="black" stroke-width="2" fill="none" />
<polyline points="230.0,312.5,246.5,347.0" stroke="black" stroke-width="2" fill="none" />
<polyline points="250.0,341.0,234.5,311.0" stroke="black" stroke-width="2" fill="none" />
<polyline points="224.0,257.0,208.0,273.0,187.5,269.0,196.0,253.5,200.0,258.0,183.5,278.0,167.5,276.0,152.0,274.5,136.0,270.5,120.0,268.0,104.0,259.5" stroke="black" stroke-width="2" fill="none" />
<polyline points="101.5,264.5,117.5,292.5,119.5,313.0,127.5,329.0,131.0,345.0,134.5,360.5,132.5,375.0,148.5,352.5,170.5,352.5,168.5,369.0,160.5,385.0,152.5,401.0" stroke="black" stroke-width="2" fill="none" />
<polyline points="158.5,431.5,168.5,422.0,162.0,438.0,159.5,453.5" stroke="black" stroke-width="2" fill="none" />
<polyline points="161.0,482.0,175.0,464.0,179.0,448.0,191.0,432.0,203.0,416.0,205.0,422.0" stroke="black" stroke-width="2" fill="none" />
<polyline points="200.0,433.5,216.0,453.5,226.0,472.0,242.5,474.0" stroke="black" stroke-width="2" fill="none" />
<polyline points="209.5,448.0,193.5,450.0" stroke="black" stroke-width="2" fill="none" />
<polyline points="188.5,425.5,204.5,413.5,221.0,425.5,237.5,415.5,253.5,405.5,268.0,399.5,284.0,404.0" stroke="black" stroke-width="2" fill="none" />
<polyline points="280.0,407.5,264.5,417.5,249.0,426.0,229.5,404.0,213.5,404.0,198.0,402.0,181.5,406.0,179.5,394.0,169.0,388.0,156.5,377.5,160.0,361.5,158.0,351.5,165.5,333.5,141.5,317.5,125.5,303.5,109.5,303.5" stroke="black" stroke-width="2" fill="none" />
<polyline points="111.5,307.0,133.5,353.0" stroke="black" stroke-width="2" fill="none" />
<polyline points="125.5,369.0,109.0,371.0,93.5,375.0,77.5,379.0,61.5,381.5,46.0,379.5" stroke="black" stroke-width="2" fill="none" />
<polyline points="43.0,382.0,41.0,398.0,35.0,413.5,36.5,425.5,52.5,422.0,68.0,416.0,82.5,412.0,98.5,408.0,114.5,404.0,122.5,392.5,138.5,398.5,154.5,400.0" stroke="black" stroke-width="2" fill="none" />
<polyline points="184.0,405.0,200.0,407.0,215.5,406.5,231.5,410.5" stroke="black" stroke-width="2" fill="none" />
<polyline points="178.5,375.0,180.5,359.5,176.5,355.0" stroke="black" stroke-width="2" fill="none" />
<polyline points="155.0,352.0,149.0,367.5,149.0,383.5,167.0,390.0" stroke="black" stroke-width="2" fill="none" />
<polyline points="119.5,393.5,103.5,395.5" stroke="black" stroke-width="2" fill="none" />
<polyline points="102.0,392.0,118.0,390.0,144.5,401.5" stroke="black" stroke-width="2" fill="none" />
<polyline points="116.0,376.0,100.0,380.0,84.0,384.0,68.0,386.0,52.0,386.0" stroke="black" stroke-width="2" fill="none" />
<polyline points="35.5,384.0,35.5,388.0,31.5,404.0,25.5,420.0,21.5,429.5,32.0,433.0,48.0,431.5,64.5,429.5,80.5,429.5,96.5,434.0,112.0,440.0" stroke="black" stroke-width="2" fill="none" />
<polyline points="114.5,454.0,98.0,468.0,82.0,483.5,84.0,467.5,98.5,451.0" stroke="black" stroke-width="2" fill="none" />
<polyline points="94.0,465.0,81.5,486.5,95.5,470.5,113.5,454.0,91.5,438.0" stroke="black" stroke-width="2" fill="none" />
<polyline points="95.5,433.0,101.5,455.0,85.5,471.0,77.5,473.5,93.5,455.5" stroke="black" stroke-width="2" fill="none" />
<polyline points="104.5,475.5,120.5,478.0,136.0,478.0,151.5,472.0,167.5,476.0,177.0,460.0,195.0,462.0" stroke="black" stroke-width="2" fill="none" />
<polyline points="130.0,484.0,114.0,482.0,98.0,480.0" stroke="black" stroke-width="2" fill="none" />
<polyline points="117.0,462.0,101.0,474.5,84.5,487.0,110.5,467.0,106.0,443.5,89.5,437.0,73.0,437.0,57.0,437.0,40.5,438.5,24.0,439.0" stroke="black" stroke-width="2" fill="none" />
<polyline points="18.0,454.5,34.0,463.0" stroke="black" stroke-width="2" fill="none" />
<polyline points="35.0,456.5,19.0,450.5,3.5,458.5" stroke="black" stroke-width="2" fill="none" />
<polyline points="2.5,454.0,8.5,456.0,24.5,471.5" stroke="black" stroke-width="2" fill="none" />
<polyline points="14.0,460.0,45.5,476.0" stroke="black" stroke-width="2" fill="none" />
<polyline points="58.0,481.5,42.0,473.5,26.0,466.0,10.0,458.5" stroke="black" stroke-width="2" fill="none" />
<polyline points="6.5,463.0,22.5,470.5,39.0,478.5,55.5,486.5" stroke="black" stroke-width="2" fill="none" />
<polyline points="3.0,503.0,19.0,503.0,35.0,501.0,50.5,500.5,66.0,498.0,82.0,498.0,98.0,495.5,114.0,494.0,130.0,492.0,146.0,492.0,162.0,492.5,178.0,492.5,194.0,490.0,210.0,490.0,226.0,489.5,242.5,487.0,258.5,487.5,274.5,487.5,296.0,504.0" stroke="black" stroke-width="2" fill="none" />
<polyline points="290.0,488.5,274.0,492.5,257.5,492.5,241.5,494.5,226.0,494.5,210.5,496.0,194.5,495.5,178.5,495.5,162.5,497.5,146.5,497.5,131.0,498.0,115.0,498.5,99.0,502.5,83.5,502.5,67.5,504.5,51.5,504.5,35.0,506.5,19.0,506.5,3.0,508.5" stroke="black" stroke-width="2" fill="none" />
<polyline points="2.0,430.0,18.0,436.5,36.0,420.0,51.5,416.0,73.5,419.5,89.5,415.0,105.5,411.5,121.5,407.5,127.5,397.5,143.5,405.5" stroke="black" stroke-width="2" fill="none" />
<polyline points="140.0,315.0,156.0,326.5,172.5,334.0,188.5,328.0,205.0,319.5,221.0,311.5,235.5,321.5,243.5,337.5,247.5,353.5,251.5,369.5,252.0,386.0,245.5,401.5,229.0,410.0,242.5,426.0,254.5,440.5,252.0,456.5,262.0,457.0,261.0,473.0,269.0,475.0,285.0,477.0,295.0,453.5,303.0,467.0,302.5,477.0,318.5,475.0,344.5,480.5,360.5,472.5,378.5,464.0,387.0,452.5,391.0,440.0,393.0,428.0,390.5,444.5,390.5,460.0,389.0,480.0,405.5,480.0,422.0,480.0,438.5,480.0,454.5,477.5,470.5,475.5,487.0,473.0,503.0,472.5" stroke="black" stroke-width="2" fill="none" />
<polyline points="505.0,380.0,499.0,364.5" stroke="black" stroke-width="2" fill="none" />
<polyline points="498.0,376.0,496.0,360.5,494.0,344.5" stroke="black" stroke-width="2" fill="none" />
<polyline points="409.5,284.5,393.5,296.5,377.0,312.0,361.0,320.0,345.0,326.0,329.5,317.5,313.5,305.5,297.0,295.5,291.5,286.0,275.5,270.0,261.5,270.0,245.5,292.0,229.5,310.0,213.5,322.0,197.5,330.0,181.5,336.5,165.5,342.5,149.5,328.5,133.5,316.0,127.5,298.0,111.5,278.5,120.0,262.0,102.0,252.0,96.5,235.5,98.5,219.5,104.5,203.0,108.0,187.5,112.0,172.0,116.0,156.0,122.0,140.5,114.0,160.5" stroke="black" stroke-width="2" fill="none" />
<polyline points="108.0,161.5,123.5,127.5,139.5,122.0,155.5,122.0,171.5,122.0,188.0,124.5,204.0,124.5,220.0,126.5,236.0,133.0,252.5,153.0" stroke="black" stroke-width="2" fill="none" />
<polyline points="240.5,139.5,224.0,132.0,208.0,130.5,192.0,128.5,176.0,128.5,160.0,128.5,144.0,132.0" stroke="black" stroke-width="2" fill="none" />
<polyline points="138.5,139.5,154.5,133.5,158.5,137.5,180.5,141.0,196.5,141.0,212.5,145.0,230.0,157.0" stroke="black" stroke-width="2" fill="none" />
<polyline points="228.5,144.5,233.0,160.5,239.0,176.5,243.0,192.0,247.0,208.0,249.0,223.5,245.0,239.5" stroke="black" stroke-width="2" fill="none" />
<polyline points="262.5,260.5,253.0,276.5,233.0,293.0,223.0,309.5,193.0,325.5,175.0,349.5,185.0,357.5,185.0,373.5,182.5,389.0,170.5,411.0,161.0,424.5,157.0,440.5,154.5,469.0,146.5,479.0,156.0,485.5,161.5,483.5,175.5,471.5,192.0,473.5,208.0,471.5,220.0,469.5,236.0,455.5,252.0,468.0,264.0,440.5,276.0,448.5,291.5,446.0,301.5,440.0,318.0,428.0,338.0,427.5,353.5,435.0,374.0,443.0,390.0,423.0,406.0,411.0,421.5,404.5,437.5,401.0,453.0,399.5,468.5,395.5,484.5,396.0,501.0,396.5" stroke="black" stroke-width="2" fill="none" />
<polyline points="402.5,400.5,398.5,384.5,394.5,368.5,392.5,352.5,389.0,336.5,383.0,320.5" stroke="black" stroke-width="2" fill="none" />
<polyline points="388.0,318.5,392.0,335.0,395.5,351.0,399.5,366.5,403.5,382.5,405.5,398.0,400.0,416.0,383.5,432.0,386.0,438.0,406.0,442.0,406.0,458.0,414.0,460.5,430.0,454.0,445.5,436.0,461.5,421.5,477.5,407.0,493.5,405.5,509.5,401.5" stroke="black" stroke-width="2" fill="none" />
<polyline points="390.5,307.5,374.5,319.5,358.5,326.0,342.5,334.5,326.0,322.5,310.0,310.5,302.5,288.5,286.5,274.5,270.5,260.5" stroke="black" stroke-width="2" fill="none" />
<polyline points="199.5,260.5,205.5,244.5,184.0,272.5,168.5,270.0,152.5,267.5,136.5,265.5,120.5,255.5" stroke="black" stroke-width="2" fill="none" />
<polyline points="108.5,223.5,108.5,239.5,103.5,263.5,112.0,279.5,124.0,295.5,110.0,308.0,118.0,324.0,124.5,339.5,128.5,355.5,124.0,375.0,122.0,391.0" stroke="black" stroke-width="2" fill="none" />
<polyline points="127.5,309.0,143.5,310.5,159.5,322.5,175.5,326.5" stroke="black" stroke-width="2" fill="none" />
<polyline points="172.5,322.0,156.0,314.0,140.0,304.0" stroke="black" stroke-width="2" fill="none" />
<polyline points="138.5,304.5,153.0,320.5" stroke="black" stroke-width="2" fill="none" />
<polyline points="89.5,223.5,73.0,223.5,57.0,217.5,41.0,219.0" stroke="black" stroke-width="2" fill="none" />
<polyline points="63.5,225.0,91.5,241.0,97.5,257.5,97.5,273.5,93.5,290.0,85.5,306.0,75.5,322.0,61.5,337.5,37.5,353.5" stroke="black" stroke-width="2" fill="none" />
<polyline points="36.0,362.0,60.5,346.0,78.5,329.5,88.5,313.5,96.5,297.5,102.5,281.5,98.5,289.0,82.5,323.0,66.5,341.0,50.5,351.0,34.5,362.5,18.0,364.5,2.0,362.5" stroke="black" stroke-width="2" fill="none" />
<polyline points="1.5,358.0,17.5,360.0,33.5,358.0,50.0,345.5,66.5,333.5,82.5,313.5,108.5,281.5,118.5,297.5,130.0,313.5,149.5,329.5,151.5,345.5,141.5,361.5,149.5,385.5,165.5,379.5" stroke="black" stroke-width="2" fill="none" />
<polyline points="288.0,362.0,286.0,378.0,287.5,402.0,301.0,409.5,274.5,427.5,258.5,440.0,256.0,443.5,266.0,447.5,274.0,457.0" stroke="black" stroke-width="2" fill="none" />
<polyline points="310.5,378.0,294.5,380.0,291.0,373.5,291.0,357.5" stroke="black" stroke-width="2" fill="none" />
<polyline points="289.0,332.5,283.0,348.5,275.0,364.5,261.0,380.0,273.0,366.0,289.0,331.5" stroke="black" stroke-width="2" fill="none" />
<polyline points="363.5,323.5,390.0,307.5,405.5,292.0,413.5,276.5,423.5,260.5,429.5,245.0,429.5,229.0,428.0,213.0,424.0,197.0,420.0,181.5,415.5,165.0,407.5,149.0,403.5,138.5,388.0,136.0,372.0,136.0,356.0,136.0,339.5,135.5,323.5,137.5,307.5,137.5,292.0,135.0" stroke="black" stroke-width="2" fill="none" />
<polyline points="288.5,133.0,276.5,148.5,268.5,164.5,264.5,180.5,262.5,196.5,266.5,212.5,269.0,228.5,269.0,244.5,277.5,260.0,289.0,276.0,303.0,294.5,319.0,310.0,339.0,326.0,341.0,343.5,338.5,349.5,334.0,357.5,336.0,373.5,331.5,395.5,327.5,411.5,329.5,428.0,323.5,444.0,337.5,445.5,341.5,457.5,337.5,455.5,355.5,425.5,371.0,437.5,387.5,417.5,404.0,405.0,422.0,401.5,438.0,397.5,454.0,394.0,470.0,390.0,486.5,390.0" stroke="black" stroke-width="2" fill="none" />
<polyline points="416.0,271.5,400.0,281.5,384.0,295.5,377.5,301.5,393.5,285.5" stroke="black" stroke-width="2" fill="none" />
<polyline points="399.5,217.5,401.5,202.0,399.5,186.0,395.5,169.5,393.5,153.5,373.0,145.5" stroke="black" stroke-width="2" fill="none" />
<polyline points="401.0,138.5,407.0,154.5,413.0,170.0,417.0,186.0,420.5,202.0,422.5,217.5,424.5,233.5,422.5,250.0,408.5,274.0,401.0,290.0,385.0,306.0,355.0,322.0,335.0,341.5,330.5,357.5,330.5,374.0,336.0,394.0,338.5,410.0,324.5,428.0,316.5,444.0,326.5,456.5,324.5,470.5,328.5,484.0,344.5,483.5,360.5,477.5,376.0,471.0,392.0,459.5,405.5,463.5,421.5,467.5,427.5,464.0,444.0,454.0,460.0,456.0,470.0,422.5,490.0,414.5,502.0,420.5" stroke="black" stroke-width="2" fill="none" />
<polyline points="414.0,174.5,398.0,142.5,382.0,140.5,366.0,142.5,350.0,148.5,334.0,146.0,318.5,144.0,302.5,142.0,286.5,138.0" stroke="black" stroke-width="2" fill="none" />
<polyline points="289.5,127.5,271.5,143.5,263.5,159.5,265.5,155.0,281.5,131.0,297.5,126.5,314.0,124.5,330.5,122.0,347.0,122.0,363.5,122.0" stroke="black" stroke-width="2" fill="none" />
<polyline points="336.0,150.0,336.0,166.0,334.0,182.0,334.0,198.5,332.0,214.5" stroke="black" stroke-width="2" fill="none" />
<polyline points="362.5,262.5,360.0,244.5,368.0,228.0,360.0,244.0,343.5,260.0,327.5,260.0,311.5,256.0,295.5,254.0,279.0,248.0,257.0,258.0,241.0,272.0,223.5,284.0,208.0,299.5,202.0,303.5,220.5,287.0,228.5,263.0,233.0,247.0,235.0,231.0,234.5,215.5,234.5,199.5,232.0,183.5,232.0,167.5,228.0,151.5,234.0,135.5,226.0,137.5,209.5,137.5,193.0,137.5,176.5,136.0,160.5,144.5,145.0,142.5" stroke="black" stroke-width="2" fill="none" />
<polyline points="128.5,135.5,128.5,131.5,133.0,137.5,141.0,131.5,118.5,133.0,112.0,149.5,108.0,165.5,104.5,182.0,100.5,198.5" stroke="black" stroke-width="2" fill="none" />
<polyline points="101.5,194.5,85.0,200.5,68.5,198.5,52.5,200.5,36.5,221.0,14.0,224.5,23.5,210.5,23.0,194.0,17.0,187.5,1.0,183.5" stroke="black" stroke-width="2" fill="none" />
<polyline points="1.5,189.0,17.5,199.0,43.5,186.0,65.5,174.5,81.5,148.5" stroke="black" stroke-width="2" fill="none" />
<polyline points="87.5,119.0,71.5,92.5,55.5,79.0" stroke="black" stroke-width="2" fill="none" />
<polyline points="53.0,74.0,69.0,82.0,85.5,97.5" stroke="black" stroke-width="2" fill="none" />
<polyline points="60.0,75.0,78.0,91.5,90.0,107.5,94.0,123.5,88.0,139.5,78.0,155.5,68.0,171.5,56.5,187.5,44.5,207.5,33.0,223.5,17.0,228.0,5.0,231.5,15.0,235.5,21.0,242.0,17.0,258.5,13.0,274.5,7.0,280.5" stroke="black" stroke-width="2" fill="none" />
<polyline points="17.5,271.5,2.0,289.5,16.5,275.0,22.5,259.0,11.0,246.5,3.0,252.5" stroke="black" stroke-width="2" fill="none" />
<polyline points="7.5,240.0,13.5,241.5,29.5,217.5,43.5,195.5,63.5,203.5,79.0,203.5" stroke="black" stroke-width="2" fill="none" />
<polyline points="79.5,199.5,87.5,211.5,90.0,227.5" stroke="black" stroke-width="2" fill="none" />
<polyline points="57.5,142.5,41.5,118.5,25.5,106.5" stroke="black" stroke-width="2" fill="none" />
<polyline points="20.5,99.5,36.5,105.5,52.5,124.0,68.5,150.0" stroke="black" stroke-width="2" fill="none" />
<polyline points="62.0,129.0,46.5,109.0,30.0,97.0,14.0,85.0" stroke="black" stroke-width="2" fill="none" />
<polyline points="11.0,93.5,13.5,90.0,40.0,103.5,54.0,119.0,66.5,135.0" stroke="black" stroke-width="2" fill="none" />
<polyline points="28.0,120.5,12.0,114.5" stroke="black" stroke-width="2" fill="none" />
<polyline points="10.5,110.5,26.5,114.0" stroke="black" stroke-width="2" fill="none" />
<polyline points="10.0,109.5,36.0,125.5,48.0,138.0,58.0,144.0,54.0,151.5" stroke="black" stroke-width="2" fill="none" />
<polyline points="43.0,165.5,27.0,149.5,11.0,138.0" stroke="black" stroke-width="2" fill="none" />
<polyline points="2.0,141.0,18.0,151.0,46.0,147.5" stroke="black" stroke-width="2" fill="none" />
<polyline points="53.0,175.0,46.5,159.5,30.5,143.0,20.5,127.0,4.5,125.0" stroke="black" stroke-width="2" fill="none" />
<polyline points="4.0,124.5,11.5,140.0,29.5,155.5,43.5,171.5,48.0,188.0,36.0,204.0,30.0,220.0,38.0,228.0,48.5,222.0,64.5,225.5,81.0,231.5,97.0,243.5,112.5,258.0,128.5,252.0,130.5,252.0,146.5,244.0,152.0,248.0" stroke="black" stroke-width="2" fill="none" />
<polyline points="243.5,231.0,243.5,215.0,240.0,199.0,236.0,183.0" stroke="black" stroke-width="2" fill="none" />
<polyline points="226.5,174.5,228.5,190.5,230.5,206.5,230.5,222.5,228.5,238.5,226.5,254.5,220.0,270.0" stroke="black" stroke-width="2" fill="none" />
<polyline points="334.5,239.5,328.5,230.0,326.5,214.0,329.0,198.5,327.0,182.5,329.5,166.5,331.5,150.5" stroke="black" stroke-width="2" fill="none" />
<polyline points="299.0,160.5,284.5,176.5,294.5,166.0" stroke="black" stroke-width="2" fill="none" />
<polyline points="288.5,164.5,280.5,174.5,296.5,158.5" stroke="black" stroke-width="2" fill="none" />
<polyline points="243.0,137.0,252.5,153.0,257.0,169.0,274.5,151.0,290.5,132.5,306.0,130.5,322.5,128.5,339.0,128.0,355.5,128.0,371.5,127.5" stroke="black" stroke-width="2" fill="none" />
<polyline points="404.5,57.5,388.5,37.5" stroke="black" stroke-width="2" fill="none" />
<polyline points="393.0,38.0,405.5,54.0" stroke="black" stroke-width="2" fill="none" />
<polyline points="403.5,47.5,388.0,30.0" stroke="black" stroke-width="2" fill="none" />
<polyline points="385.5,29.0,391.5,45.0" stroke="black" stroke-width="2" fill="none" />
<polyline points="365.0,1.5,367.0,17.5,371.5,33.5,373.5,49.5,378.0,65.0,378.0,81.5,378.0,97.5,378.0,114.0" stroke="black" stroke-width="2" fill="none" />
<polyline points="238.0,140.0,245.5,156.0,252.0,172.5,256.0,188.5,258.5,204.0,262.5,219.5,265.0,236.0,263.0,252.0,251.0,268.0,229.0,288.0,211.0,304.0,213.0,303.5,229.0,287.0,245.0,277.0" stroke="black" stroke-width="2" fill="none" />
<polyline points="218.0,255.5,219.5,239.0,221.0,223.0,221.0,207.5,221.0,191.5,221.0,176.0,219.0,160.5,215.0,144.5" stroke="black" stroke-width="2" fill="none" />
<polyline points="215.5,142.5,213.5,158.5,215.5,174.5,217.5,190.5,217.5,206.5,217.5,222.0,216.0,238.0,214.0,254.0,198.5,278.0,214.5,280.0" stroke="black" stroke-width="2" fill="none" />
<polyline points="40.0,158.0,21.5,142.0,1.5,148.0" stroke="black" stroke-width="2" fill="none" />
<polyline points="2.0,133.5,18.0,137.5,34.0,151.5,50.0,169.5" stroke="black" stroke-width="2" fill="none" />
<polyline points="50.5,140.0,34.5,134.0,34.5,130.0,18.5,122.5,2.5,124.5" stroke="black" stroke-width="2" fill="none" />
<polyline points="51.5,150.0,41.5,140.5,45.5,124.5,33.5,118.5,21.0,102.5,13.0,78.5,15.5,62.0,1.5,56.0" stroke="black" stroke-width="2" fill="none" />
<polyline points="1.5,50.0,3.0,50.0,11.0,65.5,9.0,81.5,13.0,85.5,28.5,101.5,46.5,117.5,56.5,133.5,66.5,149.5,57.0,159.5,61.0,173.0" stroke="black" stroke-width="2" fill="none" />
<polyline points="3.5,190.5,15.5,206.5,9.5,212.5" stroke="black" stroke-width="2" fill="none" />
<polyline points="78.0,144.0,81.5,137.5,87.5,121.5,81.5,105.5,68.0,89.5,54.0,73.5" stroke="black" stroke-width="2" fill="none" />
<polyline points="11.5,382.0,9.5,398.0,9.5,414.0,5.0,430.0,10.5,445.5,32.0,456.0,49.5,452.0" stroke="black" stroke-width="2" fill="none" />
<polyline points="22.0,423.5,6.0,419.5" stroke="black" stroke-width="2" fill="none" />
<polyline points="4.5,405.0,4.0,389.0,4.0,387.0" stroke="black" stroke-width="2" fill="none" />
</svg>