<svg xmlns="http://www.w3.org/2000/svg" width="512mm" height="512mm" viewBox="0 0 512 512" version="1.1"><polyline points="145.5,22.5,131.5,24.5,125.5,28.5,141.5,18.5,157.5,17.0,173.5,17.0,189.5,19.0,205.5,17.0,221.0,19.0,237.0,20.5,252.5,22.5,269.0,24.5,285.0,26.5,301.0,30.5,317.5,30.0,333.5,29.5,349.5,33.0,365.5,33.0,381.5,33.0,397.5,34.5" stroke="black" stroke-width="2" fill="none" />
<polyline points="433.0,37.0,449.5,37.5,466.0,39.5,482.0,39.5,498.5,39.5" stroke="black" stroke-width="2" fill="none" />
<polyline points="498.5,34.0,482.0,33.5,466.0,33.5,450.0,33.5,434.0,33.0" stroke="black" stroke-width="2" fill="none" />
<polyline points="414.0,40.5,397.5,40.0,381.5,38.0,365.5,38.0,349.0,38.0,333.5,35.5,317.0,35.5,300.5,33.5,284.0,31.5,268.5,29.5,252.5,27.0,237.0,25.0,221.5,23.0,206.0,21.0,190.0,21.0,174.0,20.5,158.5,19.0,142.5,23.5,126.5,31.0" stroke="black" stroke-width="2" fill="none" />
<polyline points="126.0,65.0,142.0,65.0,157.5,68.5,173.5,72.5,204.0,93.0,210.0,81.0,226.0,85.0,241.5,81.5,258.0,77.5" stroke="black" stroke-width="2" fill="none" />
<polyline points="191.0,93.5,175.0,87.5,158.5,87.5" stroke="black" stroke-width="2" fill="none" />
<polyline points="158.5,84.0,174.5,84.0,190.0,88.0" stroke="black" stroke-width="2" fill="none" />
<polyline points="165.0,115.5,173.0,131.5,189.5,147.5,199.5,163.5,182.0,181.0,166.0,183.5,154.0,211.5,150.0,228.0,140.0,236.0,150.0,252.5,170.0,260.5,166.0,287.0,149.5,295.0,149.5,306.5,135.5,308.5,123.5,326.0,130.0,342.0,127.5,358.0,114.0,384.0,116.0,400.0,116.0,416.0,116.0,432.5,118.0,448.0,115.5,464.0,103.5,485.5,87.5,501.0,87.5,501.5,103.5,485.5,131.5,485.5,159.5,483.5,176.0,475.5,191.5,469.5,207.5,466.0,223.5,458.0,239.5,450.0,256.0,442.5,272.0,436.5,288.0,432.5,304.0,429.0,320.5,421.0,336.5,413.0,352.5,402.5" stroke="black" stroke-width="2" fill="none" />
<polyline points="354.0,404.0,330.0,420.5" stroke="black" stroke-width="2" fill="none" />
<polyline points="343.0,413.5,327.0,421.5,310.5,429.5,294.5,435.5,278.5,439.5,262.5,445.5,247.0,451.5,231.0,460.0,215.0,474.0,199.0,472.5,182.5,480.5,166.5,487.0,164.0,481.0,202.0,471.0" stroke="black" stroke-width="2" fill="none" />
<polyline points="216.5,478.5,215.0,465.0,243.0,449.0,283.0,433.0" stroke="black" stroke-width="2" fill="none" />
<polyline points="286.5,437.0,246.5,453.0" stroke="black" stroke-width="2" fill="none" />
<polyline points="217.5,428.5,203.0,444.5,197.0,450.5,196.5,448.0,212.0,434.0" stroke="black" stroke-width="2" fill="none" />
<polyline points="212.0,425.0,196.0,435.0,180.5,445.5,202.5,432.0,224.5,416.0" stroke="black" stroke-width="2" fill="none" />
<polyline points="229.0,384.5,231.0,400.5,228.5,417.0,232.5,419.0,202.0,425.5,177.5,441.5,153.5,449.5,160.0,437.5,176.0,443.5,192.0,431.5,208.0,421.5,224.0,412.0,240.0,406.5,256.0,406.5" stroke="black" stroke-width="2" fill="none" />
<polyline points="299.0,373.0,311.0,353.0,332.5,337.0,336.5,323.0,336.5,308.5,341.0,292.0,343.0,276.0,337.5,256.0,339.5,244.0,334.0,240.0,342.5,236.0,326.0,240.5" stroke="black" stroke-width="2" fill="none" />
<polyline points="326.5,214.5,342.5,222.5,359.0,230.5,375.0,244.5" stroke="black" stroke-width="2" fill="none" />
<polyline points="385.0,234.0,414.5,228.0,426.5,212.0,438.0,195.5,456.0,175.5,462.0,159.5,482.0,148.0,496.0,160.0,480.0,180.0,464.0,194.0" stroke="black" stroke-width="2" fill="none" />
<polyline points="497.0,209.5,480.5,231.5,464.5,241.5,456.5,241.5,466.0,225.0,462.0,235.0,462.0,249.0" stroke="black" stroke-width="2" fill="none" />
<polyline points="473.0,242.0,507.0,244.0,501.5,260.0,507.5,272.0,505.5,288.0,491.5,300.0,492.0,316.0,484.0,328.0,500.0,322.5,502.5,328.5,494.5,339.0,456.5,343.0,450.5,352.5,454.5,354.5,464.0,352.5,480.0,344.5,496.0,339.0,508.0,339.0,472.0,355.5" stroke="black" stroke-width="2" fill="none" />
<polyline points="503.0,310.0,495.5,300.5,488.0,276.5,482.0,261.0,482.0,257.0" stroke="black" stroke-width="2" fill="none" />
<polyline points="489.5,246.5,509.0,252.5,505.5,268.0,503.5,263.5" stroke="black" stroke-width="2" fill="none" />
<polyline points="507.0,278.0,503.0,290.0,503.0,303.5,481.0,307.5,471.5,299.5,463.0,308.0,461.0,292.0,461.0,276.0,469.0,260.0,485.0,244.0,495.0,228.5,509.0,212.5,495.0,238.5" stroke="black" stroke-width="2" fill="none" />
<polyline points="482.0,236.0,498.5,216.0,502.5,212.0,490.5,228.0,466.5,234.0,456.0,249.5,448.0,266.0,436.0,282.0,436.0,298.0,444.0,320.0,436.0,320.0" stroke="black" stroke-width="2" fill="none" />
<polyline points="445.5,299.0,461.0,309.0" stroke="black" stroke-width="2" fill="none" />
<polyline points="474.0,305.5,468.5,289.0" stroke="black" stroke-width="2" fill="none" />
<polyline points="468.5,280.0,485.0,296.0" stroke="black" stroke-width="2" fill="none" />
<polyline points="484.5,289.0,483.0,285.0,467.0,275.5" stroke="black" stroke-width="2" fill="none" />
<polyline points="469.0,274.0,477.0,289.5,485.0,305.0" stroke="black" stroke-width="2" fill="none" />
<polyline points="457.5,288.0,455.5,304.0,461.5,320.5,461.5,336.5" stroke="black" stroke-width="2" fill="none" />
<polyline points="442.0,292.0,420.0,276.0" stroke="black" stroke-width="2" fill="none" />
<polyline points="419.5,262.0,421.5,278.0,425.5,294.0,427.0,310.0" stroke="black" stroke-width="2" fill="none" />
<polyline points="402.0,313.0,404.0,297.0,408.5,281.0,398.5,289.0" stroke="black" stroke-width="2" fill="none" />
<polyline points="410.0,290.5,412.0,306.0,413.5,322.5,415.5,338.5,420.0,354.5,414.5,370.5,406.5,386.5,394.5,398.0,394.5,398.0,410.5,387.5,426.5,379.5,442.5,383.5,458.5,382.0,474.5,378.0,490.5,376.0,506.5,372.0" stroke="black" stroke-width="2" fill="none" />
<polyline points="497.5,345.0,481.5,351.0,465.5,359.0,449.5,361.0,433.5,365.0,413.5,380.5,397.5,390.5" stroke="black" stroke-width="2" fill="none" />
<polyline points="410.5,330.5,394.5,336.5,378.5,344.5,378.5,336.0,398.5,318.0,388.5,311.5,378.5,317.5,364.5,339.5,360.5,335.5,340.5,349.5,325.0,352.0,309.0,359.5,293.0,366.0,276.5,362.0,260.5,362.0,244.0,367.5,228.0,351.5,212.0,345.5,208.0,348.0,218.0,330.0,214.0,322.0,214.0,306.0,214.5,289.5,214.5,277.5,200.5,261.5,210.5,246.0,238.5,230.0,246.5,214.0,250.0,197.5,268.0,193.5,266.0,189.0,250.0,193.5" stroke="black" stroke-width="2" fill="none" />
<polyline points="243.0,197.5,259.5,181.5,275.5,183.5,291.5,186.0,307.5,186.0,323.5,187.5,340.0,201.5,356.0,211.0,378.0,233.0" stroke="black" stroke-width="2" fill="none" />
<polyline points="374.5,243.5,364.0,227.5" stroke="black" stroke-width="2" fill="none" />
<polyline points="359.0,221.5,375.0,235.5,391.0,234.0,407.0,224.0,411.0,238.5,395.0,250.5,385.0,266.5,389.5,258.5,399.5,266.5,387.5,282.5,381.0,298.5,383.0,314.5,375.0,334.5,391.0,330.5,407.0,327.0" stroke="black" stroke-width="2" fill="none" />
<polyline points="391.5,311.0,387.5,295.0,394.0,279.0,402.0,271.0,386.0,297.5" stroke="black" stroke-width="2" fill="none" />
<polyline points="378.5,299.0,394.5,269.0,411.0,256.5,427.5,270.5,444.0,270.5,458.0,284.5,448.5,284.5,440.5,300.0" stroke="black" stroke-width="2" fill="none" />
<polyline points="447.5,339.5,431.5,347.5,422.0,343.5,422.0,327.5,426.5,319.5,417.0,305.5,417.0,290.0,415.0,274.0,415.0,258.5" stroke="black" stroke-width="2" fill="none" />
<polyline points="420.0,254.0,430.0,270.0,427.5,280.0,427.0,307.5,442.5,281.5,452.5,290.0,474.0,255.5,490.0,237.5,506.0,215.0" stroke="black" stroke-width="2" fill="none" />
<polyline points="512.5,217.0,498.5,233.5,490.0,247.5,494.0,263.5,490.0,266.0,494.0,282.0,475.5,296.0" stroke="black" stroke-width="2" fill="none" />
<polyline points="415.0,251.5,408.5,268.0,401.0,284.0,397.0,300.0,397.0,316.0" stroke="black" stroke-width="2" fill="none" />
<polyline points="387.5,269.0,393.5,259.5,401.5,247.5,405.0,231.5,405.0,231.5" stroke="black" stroke-width="2" fill="none" />
<polyline points="427.5,224.0,437.5,220.0,431.5,220.0,421.0,217.5,437.5,195.5" stroke="black" stroke-width="2" fill="none" />
<polyline points="443.5,154.5,447.5,170.5,439.0,186.5,427.0,202.5,414.5,218.0,388.5,234.0,362.5,245.5,365.0,259.5,373.0,275.5,369.5,291.0,367.5,307.0,361.5,317.0,369.5,327.0,369.5,349.5,349.5,365.5,353.5,381.5" stroke="black" stroke-width="2" fill="none" />
<polyline points="334.0,388.5,314.0,404.5" stroke="black" stroke-width="2" fill="none" />
<polyline points="291.0,403.5,275.0,404.0,253.5,402.5,238.0,386.5,232.0,371.0,228.0,355.0,230.5,338.5,230.0,322.5,227.5,306.0,225.5,290.0,217.5,274.0,235.0,260.0,251.5,243.5,263.0,227.5,266.5,211.5,264.0,203.5" stroke="black" stroke-width="2" fill="none" />
<polyline points="269.5,205.5,279.5,221.5,296.0,237.5,286.0,254.0,285.5,270.0,283.5,286.0,286.0,302.0,286.0,317.5,302.5,325.5,308.5,335.5,312.0,321.5,318.0,329.5,332.0,321.5,350.0,319.5,362.0,292.0" stroke="black" stroke-width="2" fill="none" />
<polyline points="358.0,280.5,360.0,274.5,357.5,268.5" stroke="black" stroke-width="2" fill="none" />
<polyline points="345.5,285.0,343.5,301.0,341.5,317.0,339.5,333.5,327.5,349.5,291.5,365.5,302.0,356.0,318.0,348.5" stroke="black" stroke-width="2" fill="none" />
<polyline points="325.5,361.0,311.5,363.0" stroke="black" stroke-width="2" fill="none" />
<polyline points="329.5,386.0,309.5,402.0" stroke="black" stroke-width="2" fill="none" />
<polyline points="286.5,334.0,303.0,326.0" stroke="black" stroke-width="2" fill="none" />
<polyline points="329.0,305.5,335.0,290.0,331.0,296.0" stroke="black" stroke-width="2" fill="none" />
<polyline points="335.0,277.5,351.0,253.5,348.5,255.5,340.0,271.0,352.0,285.0,352.0,301.5,369.5,289.0" stroke="black" stroke-width="2" fill="none" />
<polyline points="374.5,252.0,360.5,240.0,356.0,246.0,340.0,254.0,338.0,264.0,326.0,292.0,304.0,319.5,290.0,312.0,272.0,311.5,254.0,293.5,256.0,267.5,268.0,251.5,256.0,245.5" stroke="black" stroke-width="2" fill="none" />
<polyline points="252.0,260.0,267.5,241.5,283.0,234.0" stroke="black" stroke-width="2" fill="none" />
<polyline points="296.0,227.5,279.5,209.5" stroke="black" stroke-width="2" fill="none" />
<polyline points="279.0,204.5,295.0,216.5" stroke="black" stroke-width="2" fill="none" />
<polyline points="296.5,196.5,312.0,194.5" stroke="black" stroke-width="2" fill="none" />
<polyline points="325.5,213.0,341.5,229.0,325.5,239.5,325.5,255.5,339.5,260.0,329.5,276.0,325.5,292.0,319.5,307.5,315.5,309.5,329.5,314.0,313.5,318.0,305.5,328.0,310.0,338.0,330.0,332.0" stroke="black" stroke-width="2" fill="none" />
<polyline points="346.0,321.0,348.0,337.0,350.0,353.5" stroke="black" stroke-width="2" fill="none" />
<polyline points="290.5,295.0,306.5,279.0" stroke="black" stroke-width="2" fill="none" />
<polyline points="289.0,291.5,305.0,269.5,311.0,293.5,311.0,309.5" stroke="black" stroke-width="2" fill="none" />
<polyline points="262.0,330.0,248.0,316.5,242.0,307.0,231.5,299.0" stroke="black" stroke-width="2" fill="none" />
<polyline points="231.5,295.5,247.5,313.5" stroke="black" stroke-width="2" fill="none" />
<polyline points="264.0,316.0,246.0,302.0,230.5,284.5" stroke="black" stroke-width="2" fill="none" />
<polyline points="230.0,283.5,244.0,299.5,256.0,315.0,240.0,327.0,234.0,333.0,240.0,349.0,242.0,349.0,258.0,337.0" stroke="black" stroke-width="2" fill="none" />
<polyline points="277.5,368.0,281.5,352.0,281.5,336.0,279.5,320.0,277.5,304.0,275.5,288.0,293.5,272.5,295.5,256.5,277.5,252.5,261.5,266.0,245.5,268.0,229.5,270.5" stroke="black" stroke-width="2" fill="none" />
<polyline points="219.5,285.5,217.5,301.5,219.5,317.5" stroke="black" stroke-width="2" fill="none" />
<polyline points="219.5,338.0,221.5,354.0,202.0,370.0,206.0,388.0,206.0,388.5,216.0,386.5,236.0,394.5,252.5,400.0,274.5,410.0,290.5,407.5,306.0,406.0,322.0,392.0,338.0,386.0" stroke="black" stroke-width="2" fill="none" />
<polyline points="282.0,371.0,288.0,355.0,286.0,339.0,298.0,323.0,296.0,307.5,288.0,293.5,294.0,293.5,310.0,277.5,308.0,262.0,306.0,254.0,296.0,250.0,290.0,258.5,271.5,268.5,269.5,283.0,249.5,299.0,241.5,283.0,241.5,267.0,253.5,257.0,255.5,246.5,267.5,230.5,279.5,226.5,261.5,222.5,235.5,224.0,219.5,232.0,203.0,246.0,187.5,262.0,182.0,256.0,188.5,236.5,198.5,220.5,196.5,239.0" stroke="black" stroke-width="2" fill="none" />
<polyline points="184.0,239.0,192.0,217.0,181.5,232.5,175.5,237.0,163.0,253.5,170.5,269.5,168.5,296.0,167.0,312.5,161.0,320.5,174.5,337.0,174.5,361.0,180.5,377.0,193.0,372.5,209.5,368.5,226.0,366.5,242.0,384.5,258.5,378.5,274.5,370.0,298.5,373.5,314.0,367.5,330.0,361.0,346.0,359.0,362.0,353.0" stroke="black" stroke-width="2" fill="none" />
<polyline points="251.0,321.5,235.5,310.0,232.0,294.0" stroke="black" stroke-width="2" fill="none" />
<polyline points="253.0,263.5,269.0,251.5,284.5,245.5,300.5,231.5" stroke="black" stroke-width="2" fill="none" />
<polyline points="286.5,210.0,282.0,194.0" stroke="black" stroke-width="2" fill="none" />
<polyline points="277.0,204.0,287.0,219.5,287.5,239.5,272.0,239.5,272.5,249.5,262.5,266.0,249.0,274.0,257.0,290.0,264.5,296.0,262.5,312.0,272.5,328.5,268.5,344.5" stroke="black" stroke-width="2" fill="none" />
<polyline points="203.0,340.0,200.5,324.0,206.0,307.5,201.5,303.5,199.5,313.0,195.5,329.0,187.5,341.5,193.5,325.5,195.0,309.5,195.0,297.5,185.0,297.5,189.5,281.5,196.0,255.5,210.0,239.5,236.0,223.5,242.5,207.5,247.0,192.0,239.5,182.0,223.5,190.0,208.0,188.0" stroke="black" stroke-width="2" fill="none" />
<polyline points="220.0,184.0,204.5,186.0,188.5,178.0,172.5,196.0" stroke="black" stroke-width="2" fill="none" />
<polyline points="156.5,191.0,131.0,206.5,100.5,184.5,86.5,166.0,74.5,166.5,88.5,160.0,62.0,160.0,46.0,162.0,30.0,166.0" stroke="black" stroke-width="2" fill="none" />
<polyline points="45.0,168.5,44.5,184.5,54.5,186.0,60.5,202.0" stroke="black" stroke-width="2" fill="none" />
<polyline points="70.5,182.0,54.5,175.5" stroke="black" stroke-width="2" fill="none" />
<polyline points="46.0,177.5,62.0,188.0,78.0,198.5" stroke="black" stroke-width="2" fill="none" />
<polyline points="114.5,212.5,98.5,210.5,86.5,213.0,86.5,207.0,80.0,197.0,76.0,196.5,84.0,180.5,76.0,174.5,71.5,158.0,57.5,148.0,47.5,146.0,73.5,141.5,56.0,143.5" stroke="black" stroke-width="2" fill="none" />
<polyline points="63.5,141.0,79.5,151.0,88.0,153.0" stroke="black" stroke-width="2" fill="none" />
<polyline points="97.5,143.5,101.5,161.5,85.5,179.5,101.5,187.0,95.5,189.0,103.5,196.5,126.0,196.5,142.5,178.0,155.0,172.0" stroke="black" stroke-width="2" fill="none" />
<polyline points="146.0,150.0,146.0,152.0,142.5,168.0,138.5,184.0,121.0,191.5,134.5,209.5,120.5,225.5,102.5,241.5,86.5,251.0,90.0,255.0,82.5,271.0,68.5,275.0,66.5,285.5,66.5,301.5,91.0,312.0,101.0,328.0,111.0,344.5,109.0,360.5,113.0,377.0,109.0,393.0,71.0,413.0,77.0,409.0,83.0,416.5,99.0,410.5" stroke="black" stroke-width="2" fill="none" />
<polyline points="80.5,409.5,96.5,403.5,111.0,401.5,111.0,417.5,100.5,433.0" stroke="black" stroke-width="2" fill="none" />
<polyline points="124.5,425.5,140.5,422.0" stroke="black" stroke-width="2" fill="none" />
<polyline points="167.0,434.5,149.0,450.5,167.0,440.5" stroke="black" stroke-width="2" fill="none" />
<polyline points="140.0,479.5,126.0,493.5,142.0,483.0" stroke="black" stroke-width="2" fill="none" />
<polyline points="105.5,490.0,91.5,505.5,97.5,499.5" stroke="black" stroke-width="2" fill="none" />
<polyline points="107.5,428.5,92.0,436.5,94.5,428.0,102.5,413.5,86.5,421.5,70.5,419.5" stroke="black" stroke-width="2" fill="none" />
<polyline points="71.5,441.0,55.5,449.0,39.5,452.5,23.5,457.0" stroke="black" stroke-width="2" fill="none" />
<polyline points="16.0,418.0,32.0,412.0,48.0,408.0" stroke="black" stroke-width="2" fill="none" />
<polyline points="16.0,391.5,17.5,377.5" stroke="black" stroke-width="2" fill="none" />
<polyline points="53.5,377.5,37.0,361.5,29.0,335.5,13.0,331.0" stroke="black" stroke-width="2" fill="none" />
<polyline points="12.0,321.5,22.0,337.5,30.0,353.5,24.0,369.5,12.0,380.0,12.0,388.0,15.5,408.0,31.5,405.5,47.5,401.5" stroke="black" stroke-width="2" fill="none" />
<polyline points="33.5,350.0,33.5,332.5,17.5,310.5,21.5,296.5,5.5,284.5" stroke="black" stroke-width="2" fill="none" />
<polyline points="8.0,283.0,4.5,288.5,5.0,305.0,7.0,325.0,5.5,341.0,8.0,357.5,10.5,373.0,6.5,389.0,9.0,404.5,5.0,420.0,17.0,441.5,17.5,457.5,17.0,473.5,21.0,489.5,24.5,498.0,40.0,490.0,56.0,487.5,72.5,485.0" stroke="black" stroke-width="2" fill="none" />
<polyline points="120.0,393.0,136.0,392.5,152.5,390.0,168.5,388.0" stroke="black" stroke-width="2" fill="none" />
<polyline points="183.5,336.5,183.5,320.5,187.0,304.0,185.0,302.0" stroke="black" stroke-width="2" fill="none" />
<polyline points="156.5,311.0,172.0,329.0,188.0,349.5" stroke="black" stroke-width="2" fill="none" />
<polyline points="164.5,335.0,148.0,322.5" stroke="black" stroke-width="2" fill="none" />
<polyline points="147.5,301.0,163.0,289.5,179.0,282.0" stroke="black" stroke-width="2" fill="none" />
<polyline points="164.5,250.5,174.5,250.5,180.5,260.5,196.0,276.5,212.0,274.5,224.5,268.5,240.5,256.0,256.5,237.5" stroke="black" stroke-width="2" fill="none" />
<polyline points="283.0,253.5,271.0,269.5,262.5,286.0,266.5,304.0,274.5,320.0,274.5,336.0" stroke="black" stroke-width="2" fill="none" />
<polyline points="213.0,371.5,197.0,377.5,179.5,379.5,164.0,383.5,148.0,385.5,132.0,385.5,108.5,391.5,93.0,396.0,77.5,402.0,61.5,394.0,54.0,378.0,39.5,354.0,43.5,350.0,39.0,334.0,22.5,317.5,12.0,301.5,22.0,291.5,33.5,277.5,41.5,257.5,53.5,241.5,55.5,247.5" stroke="black" stroke-width="2" fill="none" />
<polyline points="63.0,246.5,57.0,250.5,62.5,266.5,62.5,264.5,76.5,258.5,92.5,260.5,100.5,258.0,114.0,238.0,130.0,224.0,146.0,234.0" stroke="black" stroke-width="2" fill="none" />
<polyline points="137.0,248.5,127.0,264.5,131.0,280.5,137.0,280.0,141.0,296.0,145.0,311.5,151.0,328.0,169.0,344.0,157.0,360.5" stroke="black" stroke-width="2" fill="none" />
<polyline points="172.5,322.0,172.5,306.0,172.0,290.0,150.0,267.5,128.0,265.5" stroke="black" stroke-width="2" fill="none" />
<polyline points="124.5,263.5,140.5,265.5,157.0,279.5" stroke="black" stroke-width="2" fill="none" />
<polyline points="155.5,269.5,139.0,253.5" stroke="black" stroke-width="2" fill="none" />
<polyline points="135.0,270.0,145.0,270.0,169.0,290.0" stroke="black" stroke-width="2" fill="none" />
<polyline points="138.5,318.5,123.0,308.5" stroke="black" stroke-width="2" fill="none" />
<polyline points="122.0,318.0,138.0,326.5,154.0,318.5" stroke="black" stroke-width="2" fill="none" />
<polyline points="158.5,300.0,136.5,308.0,134.0,286.0,118.0,288.0" stroke="black" stroke-width="2" fill="none" />
<polyline points="121.0,281.5,121.0,297.5,137.0,297.5,124.5,309.5,148.0,333.0,160.0,349.0" stroke="black" stroke-width="2" fill="none" />
<polyline points="98.5,325.5,82.5,311.5" stroke="black" stroke-width="2" fill="none" />
<polyline points="81.5,297.0,97.5,284.5,113.5,268.5,117.5,264.5,101.5,280.5" stroke="black" stroke-width="2" fill="none" />
<polyline points="109.5,292.0,109.5,308.5,111.5,325.0,109.5,353.5,119.0,370.0,117.0,386.5,123.0,407.0,121.0,423.0,134.5,419.0,146.5,421.0,162.0,407.0" stroke="black" stroke-width="2" fill="none" />
<polyline points="100.0,322.0,84.0,306.5,68.0,302.5" stroke="black" stroke-width="2" fill="none" />
<polyline points="55.5,308.0,61.5,324.0,73.0,332.5,67.0,342.5,59.5,354.5,75.5,342.5" stroke="black" stroke-width="2" fill="none" />
<polyline points="81.0,339.5,87.0,355.5,73.0,372.0" stroke="black" stroke-width="2" fill="none" />
<polyline points="78.5,366.0,78.5,374.0,62.5,382.0,60.5,344.0,58.5,328.5,52.5,312.5" stroke="black" stroke-width="2" fill="none" />
<polyline points="31.0,308.0,17.0,290.0" stroke="black" stroke-width="2" fill="none" />
<polyline points="2.5,263.5,8.5,255.5,32.5,254.0" stroke="black" stroke-width="2" fill="none" />
<polyline points="44.0,260.0,60.0,254.0" stroke="black" stroke-width="2" fill="none" />
<polyline points="43.5,264.5,59.5,270.5,73.5,271.0,69.5,297.0,77.0,291.0,92.5,268.5" stroke="black" stroke-width="2" fill="none" />
<polyline points="85.5,277.0,98.0,261.0,106.0,244.5" stroke="black" stroke-width="2" fill="none" />
<polyline points="123.0,264.0,115.0,280.0,107.0,295.5,106.5,311.5" stroke="black" stroke-width="2" fill="none" />
<polyline points="113.5,296.0,115.0,312.0,117.0,327.5,115.0,343.5" stroke="black" stroke-width="2" fill="none" />
<polyline points="45.5,291.0,27.5,279.0,18.0,257.0,2.0,244.5" stroke="black" stroke-width="2" fill="none" />
<polyline points="2.0,239.0,18.0,249.0,34.5,263.0,50.0,247.0,66.0,243.0,75.5,258.5,75.5,278.5,101.0,264.5,107.0,264.0,116.5,259.5,132.5,243.5,144.5,241.5,161.0,255.5" stroke="black" stroke-width="2" fill="none" />
<polyline points="158.5,211.5,154.5,227.5,153.5,243.5,160.0,245.5,176.0,233.5,192.0,218.0" stroke="black" stroke-width="2" fill="none" />
<polyline points="213.5,205.0,211.5,213.0,195.5,233.0,205.5,225.0,210.0,209.0,222.0,193.0" stroke="black" stroke-width="2" fill="none" />
<polyline points="254.5,175.5,270.5,165.5,287.0,165.0,303.0,163.0,318.5,177.0,346.5,179.0,362.0,183.5" stroke="black" stroke-width="2" fill="none" />
<polyline points="370.5,169.5,354.5,159.5,338.5,173.5" stroke="black" stroke-width="2" fill="none" />
<polyline points="327.5,162.0,318.0,148.0,302.0,146.0,286.5,144.0,271.0,144.5,255.0,144.5,239.0,144.5,223.5,146.5" stroke="black" stroke-width="2" fill="none" />
<polyline points="186.0,131.0,201.5,135.5,217.5,139.5,233.5,139.5,250.0,140.0,266.0,138.0,282.0,138.0,297.5,136.5,313.5,139.0,329.5,141.0,338.0,153.5,312.0,163.0,310.0,173.0,323.5,161.0,323.5,167.0,331.5,156.5,347.5,146.5,363.5,144.0" stroke="black" stroke-width="2" fill="none" />
<polyline points="352.0,137.0,342.0,153.5,328.0,169.5,330.0,181.5,334.0,199.5,356.0,219.5,362.0,235.5,374.5,251.5,372.5,267.5,369.0,283.5,361.0,292.0,355.0,307.5,361.0,309.5,355.0,326.0,359.0,342.5,357.0,366.5,359.0,382.5,340.5,410.5,306.5,426.5,318.5,402.5,335.0,390.5,351.0,390.5,373.0,386.5" stroke="black" stroke-width="2" fill="none" />
<polyline points="286.0,223.5,270.0,203.5" stroke="black" stroke-width="2" fill="none" />
<polyline points="234.0,231.5,218.0,240.0,202.0,256.0,210.0,266.5,214.0,250.5" stroke="black" stroke-width="2" fill="none" />
<polyline points="219.0,252.0,217.0,267.5,199.0,283.5,205.0,274.0" stroke="black" stroke-width="2" fill="none" />
<polyline points="184.5,149.0,168.5,135.0" stroke="black" stroke-width="2" fill="none" />
<polyline points="161.5,117.0,167.5,133.0,183.5,149.0,189.5,165.5,176.0,182.0,172.0,198.5,184.0,174.5,204.0,170.5,220.0,174.5,236.5,174.5" stroke="black" stroke-width="2" fill="none" />
<polyline points="285.0,146.5,277.0,150.5,263.0,164.0,253.0,166.0,238.5,182.0,232.5,181.5,210.5,199.5,206.5,216.0,196.5,232.0,183.0,248.0,183.0,264.0,187.0,280.0,183.0,295.5,180.5,311.5,178.5,328.0,184.0,346.0,170.5,356.0,176.5,372.0,186.5,380.0,186.5,396.5,164.5,412.5,164.5,412.0,180.5,401.5,180.5,393.5,156.0,409.0,136.0,417.5,121.5,429.5,121.5,445.5,123.5,462.0" stroke="black" stroke-width="2" fill="none" />
<polyline points="216.5,349.0,192.5,347.0,170.5,353.0,156.5,351.0,150.5,352.5,138.0,352.5,122.0,366.5,119.5,354.5,95.5,355.0,83.5,339.0,69.5,327.0,63.5,325.5,43.5,306.0,35.0,298.5,25.0,288.5,25.0,260.5,10.5,244.5" stroke="black" stroke-width="2" fill="none" />
<polyline points="36.5,234.5,29.0,250.5,53.0,273.0,47.0,289.5,49.0,307.5,49.0,323.5,53.0,339.5,59.0,355.5,66.5,355.0,60.5,377.0,67.0,392.5,67.0,408.5,74.5,425.0,64.5,445.0,90.0,429.5" stroke="black" stroke-width="2" fill="none" />
<polyline points="39.5,235.5,33.5,251.5,54.0,235.5,64.0,239.5,80.0,253.5,96.0,245.5,112.0,233.5,128.0,215.5" stroke="black" stroke-width="2" fill="none" />
<polyline points="83.5,179.5,67.5,167.5,51.5,161.5" stroke="black" stroke-width="2" fill="none" />
<polyline points="30.0,148.0,23.5,148.0,20.0,164.5,12.0,180.5,34.5,186.0,18.5,203.5,23.0,220.0,23.0,212.0,39.0,198.0,45.0,198.0,57.0,190.0,75.0,205.5,91.0,209.0" stroke="black" stroke-width="2" fill="none" />
<polyline points="96.5,139.5,92.0,135.5,76.0,141.0,59.5,139.5,47.5,138.0,31.5,138.0,19.5,164.0,13.5,192.0" stroke="black" stroke-width="2" fill="none" />
<polyline points="4.5,188.5,14.5,204.5,18.5,220.5,6.5,240.5,6.5,256.5,12.5,260.5,16.0,276.0,30.0,292.0,28.0,299.5,44.0,306.0,44.0,322.0,45.5,338.0,45.0,353.5,29.0,371.5,17.0,387.5,11.0,390.0,11.0,404.0,11.0,422.0,17.5,428.0,9.5,434.0,3.5,454.0,9.5,456.0,9.5,472.0,13.5,488.0,19.5,503.5,28.0,501.0,44.0,495.5,60.5,495.5,76.5,491.5" stroke="black" stroke-width="2" fill="none" />
<polyline points="34.0,194.5,18.0,198.5,2.0,192.5" stroke="black" stroke-width="2" fill="none" />
<polyline points="1.0,187.5,17.5,182.0,28.0,183.5,30.0,175.0,36.5,165.0,52.5,165.0,68.5,173.0,69.0,153.5,89.0,151.5,104.5,159.0" stroke="black" stroke-width="2" fill="none" />
<polyline points="114.0,131.0,97.5,129.0,81.5,129.5,65.5,129.5,50.0,129.5,34.0,129.5,18.0,134.0,2.0,136.5" stroke="black" stroke-width="2" fill="none" />
<polyline points="3.0,130.0,19.0,127.5,35.0,125.5,51.0,123.5,67.0,123.5,82.5,126.0,98.5,126.5,114.0,126.5,129.5,122.5,139.0,118.5,125.0,130.5,140.5,118.5,158.5,120.0,175.0,131.5,191.5,149.5,208.0,165.5,224.0,167.5,240.0,169.5,246.0,171.5,262.0,163.5,278.5,149.5,288.5,153.5,305.0,153.0,319.0,153.0,334.5,147.0,350.5,139.0,366.0,139.5,382.0,145.5,397.5,146.0" stroke="black" stroke-width="2" fill="none" />
<polyline points="435.5,148.5,423.5,164.5,417.5,180.5,401.5,196.5,383.5,202.5,397.5,196.0,408.0,190.0,424.0,174.0,434.5,152.0,450.5,152.0,467.0,161.5,483.0,147.5,499.0,137.5" stroke="black" stroke-width="2" fill="none" />
<polyline points="502.0,137.5,494.0,153.5,482.0,170.0,466.0,186.0,452.0,201.5,450.5,219.5,444.0,235.5,456.0,215.5,466.0,185.5,482.5,169.5" stroke="black" stroke-width="2" fill="none" />
<polyline points="478.5,160.5,492.5,145.0" stroke="black" stroke-width="2" fill="none" />
<polyline points="494.0,143.0,478.0,159.0,462.0,171.5,446.0,183.5,430.0,197.5,414.0,219.5,398.0,221.5,381.5,235.0,365.0,221.0,351.0,203.5,335.0,193.5,335.0,186.0,335.0,168.5,345.0,152.5" stroke="black" stroke-width="2" fill="none" />
<polyline points="352.0,160.0,338.0,176.0,338.0,158.0,358.0,168.5,378.0,186.5" stroke="black" stroke-width="2" fill="none" />
<polyline points="364.5,190.5,364.5,182.5,354.5,166.5" stroke="black" stroke-width="2" fill="none" />
<polyline points="358.5,163.5,372.0,179.5" stroke="black" stroke-width="2" fill="none" />
<polyline points="437.0,163.5,435.0,169.5,419.0,184.0,403.0,198.0,421.0,182.5,437.0,166.5,438.5,152.5" stroke="black" stroke-width="2" fill="none" />
<polyline points="438.0,138.0,421.5,151.5,405.5,167.5,407.5,165.5,424.0,149.5,446.0,133.5" stroke="black" stroke-width="2" fill="none" />
<polyline points="435.0,132.0,417.5,148.0,401.0,163.5,397.5,169.5,413.5,151.5,430.0,135.5,446.0,133.5,462.5,138.0" stroke="black" stroke-width="2" fill="none" />
<polyline points="504.0,140.5,497.5,156.0,487.5,171.5,471.5,187.5,458.0,204.0,452.0,226.0,458.0,234.0,474.0,222.0,484.5,210.0" stroke="black" stroke-width="2" fill="none" />
<polyline points="509.5,196.5,493.5,212.5,483.5,228.5,475.5,244.5,457.5,258.0,450.0,274.0,439.5,302.0,445.5,306.0,455.5,322.0,451.5,338.0,421.5,360.0,425.5,364.0,427.0,372.5,443.0,378.5,459.5,374.5,475.5,368.5,491.5,368.5,507.5,368.0,509.5,358.0" stroke="black" stroke-width="2" fill="none" />
<polyline points="264.5,82.0,248.5,86.0,232.5,90.5,216.5,88.5,200.0,86.5,176.0,78.5,159.5,76.5,143.5,72.0,127.5,70.0" stroke="black" stroke-width="2" fill="none" />
<polyline points="97.5,57.5,82.0,55.5,66.0,59.0,50.5,59.5,34.5,61.5,18.5,64.0,2.5,64.5" stroke="black" stroke-width="2" fill="none" />
<polyline points="0.5,61.0,16.5,58.5,33.0,58.5,49.5,54.5,65.5,54.5,81.5,52.5,98.0,54.5" stroke="black" stroke-width="2" fill="none" />
<polyline points="153.0,147.0,148.5,163.0,153.0,171.0,142.5,187.0,132.5,202.5,128.0,226.5,134.5,244.5,123.0,260.0,99.5,268.0,91.5,283.5,81.5,300.0,101.5,322.0" stroke="black" stroke-width="2" fill="none" />
</svg>