<svg xmlns="http://www.w3.org/2000/svg" width="512mm" height="512mm" viewBox="0 0 512 512" version="1.1"><polyline points="217.5,2.5,219.5,18.5,223.5,34.5,233.5,58.5,245.5,79.0,255.5,97.0,243.5,119.0" stroke="black" stroke-width="2" fill="none" />
<polyline points="249.0,105.5,233.0,107.5,217.0,107.0" stroke="black" stroke-width="2" fill="none" />
<polyline points="214.0,115.0,230.5,114.5,247.0,111.0" stroke="black" stroke-width="2" fill="none" />
<polyline points="241.5,134.5,225.5,136.5,209.5,130.5" stroke="black" stroke-width="2" fill="none" />
<polyline points="204.0,129.0,220.0,141.0,236.5,147.0" stroke="black" stroke-width="2" fill="none" />
<polyline points="248.5,125.5,232.5,131.5,216.5,128.0,200.5,126.5" stroke="black" stroke-width="2" fill="none" />
<polyline points="195.0,124.5,207.0,134.5,231.0,162.5,247.5,160.5,251.5,172.5,269.5,174.5,273.0,174.5,289.0,180.5,303.0,190.0,296.5,197.5,284.5,213.5,284.5,213.5" stroke="black" stroke-width="2" fill="none" />
<polyline points="292.0,196.0,292.0,176.0,306.5,160.5,304.5,152.5,332.0,146.5,346.0,130.5,341.5,114.5,347.5,98.5,350.0,82.5,336.5,66.0,316.5,69.5,300.5,65.5,284.5,71.5" stroke="black" stroke-width="2" fill="none" />
<polyline points="288.0,65.0,282.0,81.5,282.0,97.5,302.0,115.5,308.0,117.5,322.0,111.5" stroke="black" stroke-width="2" fill="none" />
<polyline points="314.5,100.5,299.0,98.5" stroke="black" stroke-width="2" fill="none" />
<polyline points="310.0,88.5,323.5,104.0" stroke="black" stroke-width="2" fill="none" />
<polyline points="308.0,110.5,292.0,112.0" stroke="black" stroke-width="2" fill="none" />
<polyline points="285.5,123.0,301.5,126.5,317.5,120.5" stroke="black" stroke-width="2" fill="none" />
<polyline points="334.5,120.0,318.5,128.0,302.0,136.0,286.0,134.0" stroke="black" stroke-width="2" fill="none" />
<polyline points="261.0,144.5,259.0,160.5,253.0,166.0" stroke="black" stroke-width="2" fill="none" />
<polyline points="246.0,188.0,230.0,182.0" stroke="black" stroke-width="2" fill="none" />
<polyline points="223.5,186.5,239.5,202.5,243.0,218.5,265.0,222.5,276.5,196.0,292.5,188.0" stroke="black" stroke-width="2" fill="none" />
<polyline points="300.5,180.5,307.0,196.5,303.0,200.5,307.0,216.0,301.0,232.0,291.0,247.5,281.0,263.5,273.0,251.0" stroke="black" stroke-width="2" fill="none" />
<polyline points="266.0,277.5,281.5,269.5,297.5,254.0,289.5,264.0,283.5,276.0,300.0,260.5,308.0,262.5,298.0,272.5" stroke="black" stroke-width="2" fill="none" />
<polyline points="293.5,279.0,277.5,279.0" stroke="black" stroke-width="2" fill="none" />
<polyline points="278.5,276.5,256.0,270.5,266.0,254.5,271.5,238.5,271.0,224.5,278.5,209.0,284.5,193.0,300.5,177.0,311.0,160.5,327.0,144.5,330.5,128.0,322.5,139.5,311.0,139.5,295.5,145.0,279.5,162.5,264.0,169.0,248.0,175.0,248.0,175.0,231.5,163.0,220.0,163.5,240.0,152.0,247.5,130.0,253.5,120.0,258.0,102.5,260.0,86.5,260.0,70.0,260.0,61.5" stroke="black" stroke-width="2" fill="none" />
<polyline points="266.0,63.5,272.0,79.5,273.5,95.5,275.5,111.5,273.5,127.5,276.0,144.0,274.0,159.5,276.0,169.5,272.0,190.0,276.0,196.0,272.0,212.5,262.0,228.5,252.0,250.0" stroke="black" stroke-width="2" fill="none" />
<polyline points="265.5,236.0,247.5,232.0,231.5,226.0,215.5,210.0" stroke="black" stroke-width="2" fill="none" />
<polyline points="220.0,207.5,235.5,213.5" stroke="black" stroke-width="2" fill="none" />
<polyline points="247.5,206.5,231.5,192.5" stroke="black" stroke-width="2" fill="none" />
<polyline points="234.0,221.0,218.0,205.5,217.5,184.0,201.0,169.5" stroke="black" stroke-width="2" fill="none" />
<polyline points="202.0,164.5,218.0,172.0,224.0,175.5,240.0,179.5" stroke="black" stroke-width="2" fill="none" />
<polyline points="203.0,150.0,213.0,173.5,233.0,187.5,249.0,203.5,247.0,231.5,246.5,248.0" stroke="black" stroke-width="2" fill="none" />
<polyline points="229.5,244.5,213.5,232.5,213.0,232.5,202.5,216.5,196.5,215.0" stroke="black" stroke-width="2" fill="none" />
<polyline points="194.0,213.0,210.0,221.0,226.5,235.0" stroke="black" stroke-width="2" fill="none" />
<polyline points="218.0,250.0,202.0,232.5,186.0,210.0" stroke="black" stroke-width="2" fill="none" />
<polyline points="196.5,210.5,206.5,226.5,206.5,238.5,222.5,254.5,220.5,260.5" stroke="black" stroke-width="2" fill="none" />
<polyline points="202.0,264.5,202.0,270.5" stroke="black" stroke-width="2" fill="none" />
<polyline points="217.5,291.0,215.5,307.0,215.5,323.5,213.5,339.5,217.5,356.0" stroke="black" stroke-width="2" fill="none" />
<polyline points="258.0,342.0,256.0,336.0" stroke="black" stroke-width="2" fill="none" />
<polyline points="249.0,325.5,252.5,342.0,259.0,358.0,263.0,374.0,267.0,390.0,269.0,406.0,269.0,422.5,272.5,438.5,276.5,454.5,278.5,471.0,276.5,487.0,272.5,503.0,280.5,499.0,280.5,491.5,285.0,465.0" stroke="black" stroke-width="2" fill="none" />
<polyline points="289.5,488.0,283.5,504.0" stroke="black" stroke-width="2" fill="none" />
<polyline points="288.0,489.0,304.0,504.5" stroke="black" stroke-width="2" fill="none" />
<polyline points="316.5,506.0,300.5,485.5" stroke="black" stroke-width="2" fill="none" />
<polyline points="293.0,490.0,307.0,506.0" stroke="black" stroke-width="2" fill="none" />
<polyline points="300.5,441.5,306.5,425.5,310.5,410.0,310.0,394.0,312.0,378.5,300.5,362.5,286.0,347.0,270.0,331.0,263.5,331.0,263.5,315.0,261.0,309.0,257.0,293.0,260.5,289.0,252.5,279.0,238.5,264.5,233.0,248.0,235.0,232.0,253.5,222.0,253.5,206.0,256.0,190.0,276.5,184.0,292.0,168.5,290.5,158.5,282.5,148.5,282.5,132.0,286.0,115.5,288.0,87.5,274.0,69.5,282.0,49.5,288.0,33.5,302.0,17.0,292.5,7.0,278.5,21.0,274.0,35.5,272.0,37.5,286.0,18.0,303.5,2.0,290.0,16.0,274.0,16.0,258.0,22.0,242.0,24.0,226.0,18.0" stroke="black" stroke-width="2" fill="none" />
<polyline points="227.0,26.0,243.0,32.0,259.5,29.5,275.5,28.0,291.5,22.0" stroke="black" stroke-width="2" fill="none" />
<polyline points="265.5,5.0,261.5,11.0,245.5,14.5,229.5,5.0" stroke="black" stroke-width="2" fill="none" />
<polyline points="261.5,47.5,277.5,49.5,283.5,59.5,297.5,47.5,314.0,51.5,330.0,59.5,346.0,73.5" stroke="black" stroke-width="2" fill="none" />
<polyline points="334.5,91.0,318.5,85.5,302.5,81.5,286.5,89.5" stroke="black" stroke-width="2" fill="none" />
<polyline points="280.0,92.5,296.0,94.5,324.0,92.0,324.0,114.0,318.0,127.5,312.5,139.0,282.5,163.5,298.5,153.5,314.0,150.0,338.0,142.0,343.5,152.5,343.5,168.0,341.5,184.0,345.5,200.5,349.5,216.5,347.5,232.5,351.5,248.0,353.5,264.0,349.5,280.0,343.5,306.0,343.5,320.0,333.5,328.0" stroke="black" stroke-width="2" fill="none" />
<polyline points="357.5,333.5,353.5,317.5,337.0,315.5,334.5,299.5,326.5,293.5" stroke="black" stroke-width="2" fill="none" />
<polyline points="331.5,286.0,347.5,290.0" stroke="black" stroke-width="2" fill="none" />
<polyline points="341.5,248.5,342.0,247.0,326.0,219.0" stroke="black" stroke-width="2" fill="none" />
<polyline points="320.5,225.0,336.5,247.5" stroke="black" stroke-width="2" fill="none" />
<polyline points="329.0,245.0,315.5,231.0,300.0,233.5,288.0,259.5,272.0,267.5,255.5,277.5,265.5,263.5,275.5,247.5,263.5,257.5,247.5,273.5,232.0,255.5,230.5,249.5,224.5,233.5,226.5,221.5,214.5,205.5,222.0,191.5,219.5,174.0,205.5,158.0,183.5,196.0" stroke="black" stroke-width="2" fill="none" />
<polyline points="164.5,203.5,162.0,219.5,160.0,235.5,160.0,251.0,158.0,267.0,158.5,282.5" stroke="black" stroke-width="2" fill="none" />
<polyline points="179.5,284.0,195.5,270.0,182.0,280.0,180.0,296.0,184.0,312.5,192.0,328.5,192.0,338.5,208.5,372.0" stroke="black" stroke-width="2" fill="none" />
<polyline points="211.5,377.5,195.5,402.0" stroke="black" stroke-width="2" fill="none" />
<polyline points="176.0,397.0,192.0,379.0" stroke="black" stroke-width="2" fill="none" />
<polyline points="186.5,374.5,170.5,398.5" stroke="black" stroke-width="2" fill="none" />
<polyline points="184.0,434.5,198.0,458.5,200.5,474.5,202.5,491.0,208.5,507.0" stroke="black" stroke-width="2" fill="none" />
<polyline points="197.0,492.5,183.0,476.5" stroke="black" stroke-width="2" fill="none" />
<polyline points="206.5,466.5,198.0,450.5,182.0,432.5,175.5,406.5,183.5,390.0,199.5,374.0,191.5,358.0,187.0,342.0,177.0,326.0,161.5,310.0,156.0,294.0,142.0,278.5,135.5,261.0,129.5,245.0,124.0,229.0,122.0,216.5,126.0,201.0,136.0,185.0,152.0,179.5,160.0,163.5,168.0,147.0,176.0,131.0,177.5,114.5,171.5,98.5,155.5,100.0,139.5,112.0" stroke="black" stroke-width="2" fill="none" />
<polyline points="137.5,107.0,153.5,95.0,169.5,89.0,185.5,95.5,191.5,75.5,207.5,75.5,230.0,62.0,246.0,64.5,246.0,77.0" stroke="black" stroke-width="2" fill="none" />
<polyline points="267.5,69.5,283.5,77.5,299.5,71.5,309.5,87.5,326.0,101.5" stroke="black" stroke-width="2" fill="none" />
<polyline points="335.0,69.5,319.0,61.5,302.5,59.5,286.5,59.5" stroke="black" stroke-width="2" fill="none" />
<polyline points="309.5,51.0,329.5,67.0,339.5,83.0,341.5,95.5" stroke="black" stroke-width="2" fill="none" />
<polyline points="340.0,144.0,337.5,160.0,336.0,176.5,328.0,198.5,320.5,214.0,320.5,229.5,329.0,246.0,337.0,262.0,333.0,278.0,337.0,282.0,331.0,306.0,329.0,321.5" stroke="black" stroke-width="2" fill="none" />
<polyline points="308.0,316.5,302.0,333.0,297.5,349.0,297.5,370.5" stroke="black" stroke-width="2" fill="none" />
<polyline points="283.0,371.5,285.0,387.5,282.5,404.0,282.5,420.0,278.5,436.0,280.5,452.0" stroke="black" stroke-width="2" fill="none" />
<polyline points="299.5,446.0,298.0,430.0,292.0,414.0" stroke="black" stroke-width="2" fill="none" />
<polyline points="300.0,350.0,280.5,332.0,264.5,309.5" stroke="black" stroke-width="2" fill="none" />
<polyline points="269.0,322.0,287.0,337.5,269.0,367.5,271.0,384.0,273.0,400.5,273.0,416.5,277.0,422.5,290.5,410.5" stroke="black" stroke-width="2" fill="none" />
<polyline points="203.0,434.5,205.0,450.0,199.0,436.0,201.0,451.5" stroke="black" stroke-width="2" fill="none" />
<polyline points="205.5,338.5,201.5,322.0,197.5,315.0,181.5,299.0" stroke="black" stroke-width="2" fill="none" />
<polyline points="191.5,309.5,197.5,325.5,198.0,341.5,218.0,353.5,234.0,333.5,250.0,319.5,266.0,331.5,282.0,349.5,298.0,367.5" stroke="black" stroke-width="2" fill="none" />
<polyline points="251.0,320.5,255.0,320.5,257.0,336.5,279.0,348.0,281.0,364.0,275.0,375.5,279.0,392.0,291.0,412.0,291.0,428.5,291.5,444.5,287.5,460.5,287.0,474.5,285.0,492.5,288.5,506.0,300.0,508.0" stroke="black" stroke-width="2" fill="none" />
<polyline points="195.0,321.5,179.0,317.5" stroke="black" stroke-width="2" fill="none" />
<polyline points="167.5,316.0,183.5,332.0" stroke="black" stroke-width="2" fill="none" />
<polyline points="166.0,322.5,180.0,338.5,186.0,354.0,188.0,370.0,178.0,385.5,170.5,401.0,174.5,417.5,176.5,434.0,182.5,450.5,181.0,466.5,183.0,483.0,189.0,499.0" stroke="black" stroke-width="2" fill="none" />
<polyline points="150.0,333.5,146.0,317.5,146.5,313.0" stroke="black" stroke-width="2" fill="none" />
<polyline points="154.5,316.5,155.0,332.5,159.0,348.5" stroke="black" stroke-width="2" fill="none" />
<polyline points="161.0,334.5,163.0,318.5" stroke="black" stroke-width="2" fill="none" />
<polyline points="140.5,306.5,143.0,322.5,143.0,339.0,151.0,341.5" stroke="black" stroke-width="2" fill="none" />
<polyline points="132.5,323.5,136.0,307.5" stroke="black" stroke-width="2" fill="none" />
<polyline points="190.5,236.0,206.5,246.0,208.5,251.5,208.0,257.0,224.0,267.0,239.5,269.0" stroke="black" stroke-width="2" fill="none" />
<polyline points="242.5,285.5,240.5,301.5,239.5,317.5,234.0,333.5,226.0,349.5,218.0,366.0,218.0,382.0,208.5,395.5" stroke="black" stroke-width="2" fill="none" />
<polyline points="207.0,455.5,213.0,439.5,215.0,423.5,219.5,407.5,221.5,391.5,227.5,376.0,230.0,360.0,238.0,344.0,244.0,327.5,246.0,311.5,248.5,295.5,254.5,295.0" stroke="black" stroke-width="2" fill="none" />
<polyline points="313.5,243.5,313.5,259.5,304.0,275.5,310.0,286.0,311.5,302.0,315.5,318.0,314.0,334.0,308.0,349.5,310.5,365.5,318.5,381.5,316.0,397.5,314.0,413.5,312.0,429.5,306.0,445.5,304.0,462.0,298.0,478.0,301.5,494.0,319.5,509.5" stroke="black" stroke-width="2" fill="none" />
<polyline points="297.0,328.0,311.0,322.0,326.5,314.0,322.5,297.5,324.0,281.5,327.5,265.5,323.0,249.5,315.0,234.0" stroke="black" stroke-width="2" fill="none" />
<polyline points="307.5,234.5,311.5,234.5,307.5,250.5,295.5,266.5,301.5,284.0,306.0,300.0,301.5,316.0,293.5,332.0,303.5,346.0,307.5,372.0" stroke="black" stroke-width="2" fill="none" />
<polyline points="347.5,269.0,336.0,249.0,332.0,233.0" stroke="black" stroke-width="2" fill="none" />
<polyline points="331.0,193.5,315.0,207.5,319.0,192.0,321.0,176.5,317.0,160.5" stroke="black" stroke-width="2" fill="none" />
<polyline points="309.5,161.0,299.5,165.0,283.5,169.0,277.5,181.5,261.5,189.5,265.5,185.5,250.0,197.5,234.0,188.0,218.5,178.0,209.0,158.5,209.0,146.5,193.5,138.5" stroke="black" stroke-width="2" fill="none" />
<polyline points="197.5,135.5,225.5,151.5,225.5,161.5,237.5,149.0,245.5,147.0" stroke="black" stroke-width="2" fill="none" />
<polyline points="244.5,155.5,226.5,151.0,210.5,143.0,194.5,129.0" stroke="black" stroke-width="2" fill="none" />
<polyline points="195.0,115.0,211.0,121.0,227.0,123.0,242.5,120.5" stroke="black" stroke-width="2" fill="none" />
<polyline points="242.5,84.0,226.5,83.5,210.5,89.5" stroke="black" stroke-width="2" fill="none" />
<polyline points="206.0,92.5,222.0,81.0" stroke="black" stroke-width="2" fill="none" />
<polyline points="216.0,85.5,198.0,101.5,192.0,122.0,190.0,138.0,202.0,153.5,196.5,169.5,188.0,185.5,184.0,201.5,190.0,217.5,188.5,233.5,189.0,249.5,202.5,258.0,203.0,264.0,209.0,274.0,213.0,300.0,213.0,316.0,211.0,332.5,206.5,346.5,208.5,362.5,212.5,379.0,204.5,395.0,188.5,395.0,184.5,409.0,190.5,425.5,195.0,441.0,191.0,457.0,187.0,473.0,191.0,489.0,193.0,505.0" stroke="black" stroke-width="2" fill="none" />
<polyline points="149.0,243.5,154.5,233.5,156.5,217.5,156.5,201.5,154.5,191.5,159.0,175.5,167.0,159.5,175.0,143.5,175.0,144.0,159.5,176.0" stroke="black" stroke-width="2" fill="none" />
<polyline points="137.0,181.5,121.0,199.5" stroke="black" stroke-width="2" fill="none" />
<polyline points="118.0,186.5,116.0,202.5,126.0,184.5,134.0,168.5,139.5,153.0,143.5,137.0,149.0,121.0,143.0,120.5,139.0,132.5,145.5,116.0,151.5,95.5,149.5,89.5,133.5,107.5" stroke="black" stroke-width="2" fill="none" />
<polyline points="128.0,109.5,142.0,71.5,158.0,57.0,174.0,49.0,190.0,47.0,206.0,47.0,222.0,47.0,246.0,37.0,247.5,45.5,255.5,45.5,265.0,53.5,275.5,40.0,294.0,27.5" stroke="black" stroke-width="2" fill="none" />
<polyline points="212.0,61.5,196.0,59.5" stroke="black" stroke-width="2" fill="none" />
<polyline points="171.0,60.0,145.5,76.0,167.0,69.5,159.5,85.5,137.5,101.5,140.0,113.5,134.0,129.5,136.5,146.0,158.5,144.0" stroke="black" stroke-width="2" fill="none" />
<polyline points="166.5,137.0,160.5,136.5,154.5,152.5,152.5,168.5,132.5,184.5,114.5,204.5,131.0,174.5,159.0,156.5,157.5,158.0,143.0,178.0,143.0,194.5,137.0,210.0,127.0,232.0,135.0,277.5,148.5,283.5,162.0,297.5,166.0,313.5,167.5,321.5,183.5,345.5,205.5,356.0,225.5,366.0,249.5,333.5,269.5,363.5,283.5,371.5,307.5,361.5" stroke="black" stroke-width="2" fill="none" />
<polyline points="296.0,345.5,280.0,338.0,264.0,324.0,248.5,296.5,236.5,290.5,236.5,274.5,206.5,258.5,202.5,242.5,194.5,226.5" stroke="black" stroke-width="2" fill="none" />
<polyline points="155.0,212.5,152.5,228.5" stroke="black" stroke-width="2" fill="none" />
<polyline points="140.0,212.5,156.0,204.0,141.5,208.5,137.5,224.5,152.0,190.5,160.5,162.5,176.5,128.5,202.5,112.0,218.5,104.0,234.5,101.5,250.5,101.5" stroke="black" stroke-width="2" fill="none" />
<polyline points="253.5,98.0,238.0,94.0,222.0,94.0,206.0,97.5,206.0,85.5,190.0,79.5,174.0,77.5" stroke="black" stroke-width="2" fill="none" />
<polyline points="160.0,80.0,165.5,68.0,181.0,67.5,189.0,71.5,205.0,67.5,221.0,70.0,237.0,70.0" stroke="black" stroke-width="2" fill="none" />
<polyline points="251.0,75.0,231.0,57.0,215.0,56.5,199.0,56.0,183.5,57.5,167.5,61.0,151.5,68.5,147.5,78.0" stroke="black" stroke-width="2" fill="none" />
<polyline points="171.0,49.5,147.0,65.5,137.5,81.5,133.5,97.5,128.0,113.0,126.0,129.5,128.0,145.5,130.0,162.0,122.0,178.0,114.0,194.5,106.0,210.5,112.0,227.0,113.5,243.0,117.5,258.5,125.5,274.5,129.5,290.0,132.0,306.0,125.5,322.0,132.0,304.0" stroke="black" stroke-width="2" fill="none" />
<polyline points="133.0,275.0,127.0,259.0,121.0,243.5,109.0,218.0" stroke="black" stroke-width="2" fill="none" />
<polyline points="150.0,202.0,148.0,218.0,146.0,234.0,146.0,250.5,152.0,266.5,140.0,282.5" stroke="black" stroke-width="2" fill="none" />
<polyline points="183.0,141.0,186.5,157.0,189.0,173.0,180.5,189.0,178.5,204.5,178.0,220.5,182.5,236.5,183.0,252.0,183.5,268.0,177.5,283.5,175.5,300.0,179.5,316.0,189.5,332.0,197.0,348.0,204.5,363.5,206.0,380.0,195.5,396.0,221.5,398.5,223.0,415.0,218.5,431.0,216.5,447.0,210.5,462.5,209.0,478.5,209.5,494.5,217.5,510.5" stroke="black" stroke-width="2" fill="none" />
<polyline points="375.0,351.5,371.0,345.5,363.0,325.5,358.5,310.0,358.5,294.0,354.0,278.0,350.0,256.0,345.5,240.0,341.5,224.5,343.5,208.5,329.5,188.5,327.5,172.5,323.5,156.5" stroke="black" stroke-width="2" fill="none" />
</svg>