<svg xmlns="http://www.w3.org/2000/svg" width="512mm" height="512mm" viewBox="0 0 512 512" version="1.1"><polyline points="161.5,38.5,137.5,54.5,121.5,70.5,105.5,86.5,97.5,105.0,99.5,121.0,95.5,131.0,109.5,141.0,107.0,157.0,129.0,172.5,134.5,188.5" stroke="black" stroke-width="2" fill="none" />
<polyline points="130.0,172.0,146.0,166.0,152.0,178.0" stroke="black" stroke-width="2" fill="none" />
<polyline points="176.0,175.5,191.5,177.5,207.5,176.0,223.5,180.0,243.5,168.0,260.0,160.5,276.0,156.5,292.0,160.5" stroke="black" stroke-width="2" fill="none" />
<polyline points="266.5,163.0,250.0,170.5" stroke="black" stroke-width="2" fill="none" />
<polyline points="245.0,181.5,261.5,177.5" stroke="black" stroke-width="2" fill="none" />
<polyline points="266.0,185.0,250.5,183.0" stroke="black" stroke-width="2" fill="none" />
<polyline points="243.0,192.0,259.0,192.0" stroke="black" stroke-width="2" fill="none" />
<polyline points="246.0,202.0,262.0,226.0" stroke="black" stroke-width="2" fill="none" />
<polyline points="294.5,225.5,303.0,233.5,307.0,249.5,317.0,265.5,319.0,277.5,337.0,285.5,353.0,279.5,368.5,301.5" stroke="black" stroke-width="2" fill="none" />
<polyline points="341.5,254.5,325.0,222.0,309.0,200.0" stroke="black" stroke-width="2" fill="none" />
<polyline points="308.5,201.5,322.0,217.5,330.0,233.5,338.0,249.0,348.0,265.0,354.5,278.5,336.5,298.5,340.0,314.5,340.0,330.5,338.0,346.5,336.0,362.5,338.0,378.0,341.5,394.5,361.5,410.5" stroke="black" stroke-width="2" fill="none" />
<polyline points="355.5,406.0,339.5,390.5" stroke="black" stroke-width="2" fill="none" />
<polyline points="335.5,390.5,351.0,408.5" stroke="black" stroke-width="2" fill="none" />
<polyline points="390.0,405.5,374.5,419.5,359.0,420.0,343.5,412.0,327.5,402.0,312.0,388.0" stroke="black" stroke-width="2" fill="none" />
<polyline points="306.0,391.0,321.5,405.5,337.5,417.5,353.5,423.5,370.0,426.0,386.0,420.0" stroke="black" stroke-width="2" fill="none" />
<polyline points="326.5,362.5,310.5,375.0" stroke="black" stroke-width="2" fill="none" />
<polyline points="305.0,389.5,321.0,405.5,347.0,421.5" stroke="black" stroke-width="2" fill="none" />
<polyline points="344.0,406.5,334.0,390.5,334.0,374.0,332.5,366.0,316.5,376.0,300.5,388.0" stroke="black" stroke-width="2" fill="none" />
<polyline points="301.0,388.0,301.0,403.5,301.0,419.0,301.0,435.0,303.0,451.0,302.5,467.0,303.0,483.0,303.0,499.0" stroke="black" stroke-width="2" fill="none" />
<polyline points="297.0,503.5,299.0,487.5,298.5,471.5,296.5,456.0,296.5,440.0,296.0,424.5,294.0,408.5,294.0,393.0,298.0,377.0,298.0,361.5,302.5,359.0,298.5,353.0" stroke="black" stroke-width="2" fill="none" />
<polyline points="327.5,322.5,311.5,304.5,296.0,292.0,280.5,284.0,265.0,278.0,249.0,273.5,247.5,279.0" stroke="black" stroke-width="2" fill="none" />
<polyline points="266.5,279.5,298.5,295.5,317.5,311.5,328.0,327.5" stroke="black" stroke-width="2" fill="none" />
<polyline points="310.5,311.5,292.5,295.5,260.0,296.0,244.0,292.5,228.0,306.5,212.0,314.5,212.0,294.5,200.0,282.0,184.0,262.0,161.5,246.0,155.5,229.5,159.5,213.5,160.0,197.5,158.0,181.0,152.5,165.5,142.5,155.5,124.5,148.0,108.5,156.5" stroke="black" stroke-width="2" fill="none" />
<polyline points="111.0,155.5,127.5,166.0,120.0,181.5,116.0,185.0,120.5,201.0" stroke="black" stroke-width="2" fill="none" />
<polyline points="116.0,201.0,114.0,180.5" stroke="black" stroke-width="2" fill="none" />
<polyline points="120.5,174.5,127.0,190.5,131.0,206.5,129.0,222.0" stroke="black" stroke-width="2" fill="none" />
<polyline points="141.5,237.0,147.5,246.5,149.5,253.0,141.5,269.0,152.0,285.0,158.0,295.0,164.0,310.5,160.5,326.0,146.5,341.5,128.5,357.5,100.5,377.5,65.0,387.5,43.0,403.5,55.0,411.5,61.0,427.5,65.0,443.5,81.0,459.5,82.5,475.5,86.5,491.5,89.0,507.5" stroke="black" stroke-width="2" fill="none" />
<polyline points="107.5,494.0,115.5,510.0" stroke="black" stroke-width="2" fill="none" />
<polyline points="112.0,485.0,128.0,471.0,144.5,455.0,160.0,431.0,176.0,403.0,191.5,384.5,207.5,376.5" stroke="black" stroke-width="2" fill="none" />
<polyline points="195.0,382.0,179.0,398.0,169.0,413.5,160.5,429.5,150.5,448.0,134.0,464.0,116.5,480.0,112.5,490.0,118.5,506.0" stroke="black" stroke-width="2" fill="none" />
<polyline points="107.5,489.5,93.5,507.5,93.5,491.0,109.5,475.0,129.5,459.0" stroke="black" stroke-width="2" fill="none" />
<polyline points="123.0,466.5,107.0,478.5,87.5,480.0,97.5,463.5,75.5,447.5,61.5,431.5" stroke="black" stroke-width="2" fill="none" />
<polyline points="41.5,410.0,57.0,404.0,73.0,389.5,75.0,395.5,59.0,407.5,74.5,395.5,90.5,383.5,106.5,371.5,122.5,361.5,139.0,347.5,155.0,329.0" stroke="black" stroke-width="2" fill="none" />
<polyline points="198.0,316.0,182.0,330.0,166.5,350.5,153.0,370.5,165.0,354.0,175.0,338.0,190.5,322.0,192.5,299.5,176.0,284.0,160.0,276.0" stroke="black" stroke-width="2" fill="none" />
<polyline points="162.0,271.0,160.0,287.0,157.5,295.0" stroke="black" stroke-width="2" fill="none" />
<polyline points="146.5,294.0,130.5,287.5,114.5,285.5" stroke="black" stroke-width="2" fill="none" />
<polyline points="112.0,276.5,128.0,284.5,144.0,288.5" stroke="black" stroke-width="2" fill="none" />
<polyline points="128.5,296.0,116.0,296.0,109.5,279.5,127.0,263.5,123.0,265.5,123.0,259.0" stroke="black" stroke-width="2" fill="none" />
<polyline points="150.0,252.0,166.0,258.0,182.0,270.0,198.5,276.0" stroke="black" stroke-width="2" fill="none" />
<polyline points="175.5,277.5,191.5,293.5,206.0,309.5,200.0,326.0,187.5,342.0,175.5,358.0,168.0,374.0,160.0,389.5,152.5,405.5,144.5,421.5,134.0,437.5,118.0,453.5" stroke="black" stroke-width="2" fill="none" />
<polyline points="203.0,414.5,218.5,420.5" stroke="black" stroke-width="2" fill="none" />
<polyline points="224.5,414.0,208.5,409.5" stroke="black" stroke-width="2" fill="none" />
<polyline points="206.0,403.5,212.0,419.5,208.0,403.0,224.0,401.0" stroke="black" stroke-width="2" fill="none" />
<polyline points="194.5,347.0,178.0,369.5,161.5,399.0,145.0,431.0,129.0,451.0,112.5,466.5,96.0,471.0,76.5,457.0,60.5,441.0,45.0,431.0,29.0,429.0,27.0,428.5,25.0,416.0,37.5,399.5,61.5,383.0,55.5,362.5,39.5,356.0" stroke="black" stroke-width="2" fill="none" />
<polyline points="38.5,357.0,54.0,357.5,70.0,363.5" stroke="black" stroke-width="2" fill="none" />
<polyline points="91.5,356.0,75.5,343.0,59.5,331.0" stroke="black" stroke-width="2" fill="none" />
<polyline points="57.0,327.5,73.0,335.5" stroke="black" stroke-width="2" fill="none" />
<polyline points="63.0,327.5,85.0,343.5" stroke="black" stroke-width="2" fill="none" />
<polyline points="96.5,324.0,80.5,292.0" stroke="black" stroke-width="2" fill="none" />
<polyline points="80.5,284.5,93.0,300.5,99.0,317.0,105.0,333.5,113.0,349.5" stroke="black" stroke-width="2" fill="none" />
<polyline points="125.0,315.5,109.0,294.0" stroke="black" stroke-width="2" fill="none" />
<polyline points="104.5,283.0,128.5,276.5,155.0,302.5,159.5,318.5,143.5,334.5,129.5,350.5" stroke="black" stroke-width="2" fill="none" />
<polyline points="116.0,293.5,100.0,283.5" stroke="black" stroke-width="2" fill="none" />
<polyline points="98.5,283.0,112.5,299.5,124.0,315.5,132.0,331.5" stroke="black" stroke-width="2" fill="none" />
<polyline points="146.5,285.5,130.5,275.0,114.5,273.0,98.5,281.0" stroke="black" stroke-width="2" fill="none" />
<polyline points="76.0,285.5,86.5,301.5,94.5,317.5,100.5,334.0,106.5,350.0,110.5,366.0,80.5,386.0,62.5,402.0,68.0,437.5,83.5,453.5,99.5,463.0,115.5,455.0,131.5,440.0,147.5,414.5,163.5,378.5,179.5,353.0,196.0,330.5,212.0,306.5,238.0,306.0,253.5,312.0,270.0,314.0,286.0,320.0,308.5,333.5,324.5,340.0" stroke="black" stroke-width="2" fill="none" />
<polyline points="309.0,324.5,297.0,308.5" stroke="black" stroke-width="2" fill="none" />
<polyline points="293.0,306.5,297.0,322.5,316.5,338.5,334.5,354.5,316.5,370.5,304.5,374.5,308.5,386.0,324.0,402.0,350.0,418.0" stroke="black" stroke-width="2" fill="none" />
<polyline points="378.5,312.5,362.0,274.5,346.0,250.5,330.5,220.5,314.5,198.5,298.5,196.5" stroke="black" stroke-width="2" fill="none" />
<polyline points="304.0,198.0,308.0,214.0,310.0,216.0" stroke="black" stroke-width="2" fill="none" />
<polyline points="320.0,223.0,304.0,203.0" stroke="black" stroke-width="2" fill="none" />
<polyline points="294.5,214.5,296.5,230.5,294.5,246.5,292.5,262.5,316.5,278.5,328.5,294.5,335.0,310.5" stroke="black" stroke-width="2" fill="none" />
<polyline points="306.5,260.0,290.5,256.0" stroke="black" stroke-width="2" fill="none" />
<polyline points="244.5,224.0,228.5,236.0,212.0,236.0,196.0,230.0" stroke="black" stroke-width="2" fill="none" />
<polyline points="192.5,229.5,208.5,215.5,224.5,217.5,240.5,219.0" stroke="black" stroke-width="2" fill="none" />
<polyline points="226.5,225.5,210.5,217.0" stroke="black" stroke-width="2" fill="none" />
<polyline points="209.0,216.5,204.5,216.5,198.5,232.0,214.5,258.0,230.0,260.5,246.0,242.5,262.0,234.0,254.0,235.5,237.5,251.0" stroke="black" stroke-width="2" fill="none" />
<polyline points="219.0,254.0,211.0,258.0,203.0,240.0,188.5,240.0,188.0,223.5,204.0,207.0,195.5,215.0,179.5,231.0" stroke="black" stroke-width="2" fill="none" />
<polyline points="159.5,238.5,175.5,246.5,191.5,247.0,207.5,241.0,223.0,247.0" stroke="black" stroke-width="2" fill="none" />
<polyline points="250.0,251.5,234.0,265.5,217.5,275.5,201.5,271.5,185.5,261.5,169.5,251.5" stroke="black" stroke-width="2" fill="none" />
<polyline points="160.5,254.5,176.5,270.5,198.5,280.5,212.5,296.5,220.5,312.5,206.5,328.5,196.0,344.0,184.0,360.0,174.0,375.5,166.0,392.0,158.0,408.0,149.5,424.0,139.0,439.5,123.0,455.5" stroke="black" stroke-width="2" fill="none" />
<polyline points="123.0,324.0,113.0,308.5,99.0,292.5,105.5,272.5,123.5,256.5,139.5,240.5,129.0,238.5,113.0,230.5,97.0,204.5" stroke="black" stroke-width="2" fill="none" />
<polyline points="100.0,201.0,116.0,227.0" stroke="black" stroke-width="2" fill="none" />
<polyline points="145.0,182.0,130.5,164.0,124.5,141.5,116.5,138.0,116.0,122.0,113.5,106.0,133.5,104.5,129.5,88.5,133.5,74.5,117.5,94.5" stroke="black" stroke-width="2" fill="none" />
<polyline points="121.5,92.0,125.5,66.0,141.5,50.0,157.5,42.0,173.5,35.5,190.0,35.0,206.0,35.5,222.5,41.5,238.5,47.5,254.5,54.0,270.0,66.0,286.0,84.0,302.5,106.0,308.5,120.0,313.0,135.5,314.5,151.5,314.5,167.5,308.5,183.5,316.5,199.0,328.0,215.0,336.5,231.0,344.5,247.0,354.5,263.5,364.5,279.5,371.0,296.0,377.0,312.0,383.0,328.5,389.0,344.5,393.0,361.0,395.0,377.0,397.0,393.0,397.0,409.0,375.0,424.5" stroke="black" stroke-width="2" fill="none" />
<polyline points="391.5,404.5,391.5,388.5,389.5,372.5,385.0,356.0,381.0,340.0,375.0,324.0,369.5,307.5,361.5,291.5,349.0,273.5,333.5,280.0,317.5,272.0,307.5,266.0,309.5,264.0,301.5,248.0,289.5,242.0,287.5,226.0,289.5,210.5,299.5,194.5,299.5,178.5,305.5,174.0,307.5,166.0,309.5,150.5,306.0,134.0,302.0,118.0,298.5,101.5,286.5,85.5,272.5,81.0,268.0,65.5,246.0,52.0,214.0,46.0,198.0,54.5,182.0,54.5" stroke="black" stroke-width="2" fill="none" />
<polyline points="178.0,61.0,216.0,77.5" stroke="black" stroke-width="2" fill="none" />
<polyline points="232.0,76.5,216.0,72.5,200.0,64.0,184.0,64.0,184.0,58.0,168.0,57.5,162.0,54.0,156.0,50.0,142.5,42.5,127.0,53.0,111.0,71.0,95.0,103.0" stroke="black" stroke-width="2" fill="none" />
<polyline points="116.0,105.0,132.5,96.5,135.0,109.0,147.0,103.0,155.5,103.0" stroke="black" stroke-width="2" fill="none" />
<polyline points="166.0,93.5,158.0,109.5,144.0,110.0,152.0,120.0,160.0,123.5,158.5,121.5,160.0,109.5,176.0,103.5,180.0,117.5,196.5,111.5,201.0,111.5,216.5,92.0,229.0,90.0" stroke="black" stroke-width="2" fill="none" />
<polyline points="242.0,107.5,226.0,113.5" stroke="black" stroke-width="2" fill="none" />
<polyline points="230.5,102.0,216.0,102.5,200.0,121.0" stroke="black" stroke-width="2" fill="none" />
<polyline points="172.5,117.0,174.5,132.5,164.5,148.5,158.5,144.5,166.5,128.5,192.5,136.5,207.0,124.5,223.0,126.5,239.5,134.0,255.0,120.0" stroke="black" stroke-width="2" fill="none" />
<polyline points="259.0,122.5,253.0,138.5" stroke="black" stroke-width="2" fill="none" />
<polyline points="275.5,136.5,275.5,152.5,269.5,176.5,275.5,184.5,273.5,200.5,271.5,216.0,260.0,238.0,248.0,254.0,230.5,270.0,238.5,270.0,255.0,255.5,271.0,235.5,287.0,217.5,296.5,213.5,312.0,225.0" stroke="black" stroke-width="2" fill="none" />
<polyline points="307.0,174.5,297.0,170.5,303.0,156.5,300.5,140.0,294.5,124.0,286.0,108.0,292.0,99.5,277.5,83.5,253.5,67.5,245.0,59.5,228.5,49.5,212.5,51.5" stroke="black" stroke-width="2" fill="none" />
<polyline points="212.0,55.0,228.0,63.0,251.5,70.5,267.5,82.5,282.0,93.0,298.0,119.0" stroke="black" stroke-width="2" fill="none" />
<polyline points="291.5,109.5,299.5,125.5,303.5,141.5,305.5,157.0" stroke="black" stroke-width="2" fill="none" />
<polyline points="270.0,122.0,263.5,138.0,266.0,158.5,240.0,174.5,238.5,190.0,240.5,205.5,233.0,222.0,235.0,234.0,251.0,226.0" stroke="black" stroke-width="2" fill="none" />
<polyline points="243.0,224.5,247.5,208.5,241.5,192.5" stroke="black" stroke-width="2" fill="none" />
<polyline points="202.5,193.5,186.5,191.5" stroke="black" stroke-width="2" fill="none" />
<polyline points="177.5,179.5,193.5,185.5,209.5,181.5" stroke="black" stroke-width="2" fill="none" />
<polyline points="219.5,164.5,203.5,164.5,187.5,163.0" stroke="black" stroke-width="2" fill="none" />
<polyline points="184.5,157.5,200.5,157.5,216.5,157.5" stroke="black" stroke-width="2" fill="none" />
<polyline points="167.0,148.0,177.0,128.0,189.0,120.0,203.0,106.0,217.0,90.0,233.0,88.0,211.5,70.0,215.5,54.0,204.0,44.0,188.5,46.0,172.5,43.5" stroke="black" stroke-width="2" fill="none" />
<polyline points="163.0,45.5,133.0,45.5,115.5,61.5,103.5,77.5,98.0,93.0,92.0,109.5,92.0,125.5,94.0,142.0,100.0,158.0,92.0,174.5,92.0,190.5,96.0,207.0,103.5,223.0,125.5,238.5" stroke="black" stroke-width="2" fill="none" />
<polyline points="118.0,227.5,104.0,212.0,98.5,196.0,97.0,180.5,103.0,164.5,93.5,174.5" stroke="black" stroke-width="2" fill="none" />
<polyline points="107.0,162.5,109.0,178.5,113.0,194.0" stroke="black" stroke-width="2" fill="none" />
<polyline points="119.5,171.5,103.5,158.0" stroke="black" stroke-width="2" fill="none" />
<polyline points="100.0,130.0,103.5,124.0,101.5,108.0,105.5,98.0,131.5,94.0,123.5,81.5,145.0,78.0,141.0,82.0" stroke="black" stroke-width="2" fill="none" />
<polyline points="110.0,80.5,126.0,60.0,118.0,69.5,116.0,85.5,109.5,101.5,107.5,117.5,107.5,133.0,100.0,155.0,104.5,141.5" stroke="black" stroke-width="2" fill="none" />
<polyline points="128.0,137.5,143.5,141.5,151.5,163.0" stroke="black" stroke-width="2" fill="none" />
<polyline points="198.0,74.5,182.0,68.0,166.0,61.5" stroke="black" stroke-width="2" fill="none" />
<polyline points="165.0,58.0,193.5,74.0,207.0,73.5,227.5,67.5,231.5,79.5,248.0,75.5,262.0,73.5,278.5,82.0,294.5,102.0,311.0,140.5" stroke="black" stroke-width="2" fill="none" />
<polyline points="285.0,103.5,270.5,103.5,256.5,111.5,252.5,103.5,236.5,119.5,236.0,132.0,242.0,116.5,248.0,100.5,248.0,80.5,236.0,64.5,202.0,58.0" stroke="black" stroke-width="2" fill="none" />
<polyline points="218.0,59.5,232.0,75.5,245.5,91.5,227.5,99.5,207.5,111.5,194.0,126.0,184.0,131.5,180.0,147.5,176.0,180.0,178.0,188.0,194.0,190.5" stroke="black" stroke-width="2" fill="none" />
<polyline points="167.5,272.5,177.5,288.5,193.5,304.5,221.5,320.5,215.5,336.0,212.0,352.0,211.5,368.0,189.5,380.0,183.5,386.0,199.5,374.0" stroke="black" stroke-width="2" fill="none" />
<polyline points="211.0,339.5,217.0,324.0" stroke="black" stroke-width="2" fill="none" />
<polyline points="208.5,301.5,192.5,293.5,176.5,277.5,160.5,272.0,144.5,270.0,134.5,250.5,118.5,264.5,102.0,274.5,85.5,276.5,69.5,278.5,54.0,286.0,38.0,300.5" stroke="black" stroke-width="2" fill="none" />
<polyline points="43.5,300.0,59.5,290.0,75.0,282.5,91.0,280.5,107.5,300.5,123.5,330.5" stroke="black" stroke-width="2" fill="none" />
<polyline points="155.5,321.0,139.5,339.5,123.5,354.0,108.0,342.0,92.0,298.5,76.0,286.0" stroke="black" stroke-width="2" fill="none" />
<polyline points="67.5,283.0,43.5,299.0,57.5,315.5,77.5,331.5,99.5,350.0,103.5,364.0" stroke="black" stroke-width="2" fill="none" />
<polyline points="96.5,342.5,80.0,324.5,64.0,316.5" stroke="black" stroke-width="2" fill="none" />
<polyline points="61.5,308.0,77.5,318.0" stroke="black" stroke-width="2" fill="none" />
<polyline points="79.0,300.5,63.0,290.5" stroke="black" stroke-width="2" fill="none" />
<polyline points="61.5,291.5,81.5,307.5,82.0,321.5" stroke="black" stroke-width="2" fill="none" />
<polyline points="80.0,313.5,62.0,317.5,46.0,305.5" stroke="black" stroke-width="2" fill="none" />
<polyline points="42.0,306.5,40.0,323.0,37.5,339.0,35.5,354.5,33.5,370.5,31.5,386.0,30.0,402.0,51.5,396.0,68.0,386.0" stroke="black" stroke-width="2" fill="none" />
<polyline points="92.5,360.0,76.5,356.0,60.5,348.5,44.5,338.5" stroke="black" stroke-width="2" fill="none" />
<polyline points="42.0,336.0,57.5,340.0,73.0,349.5" stroke="black" stroke-width="2" fill="none" />
<polyline points="90.0,342.0,74.0,328.0,73.5,306.0,57.5,304.0" stroke="black" stroke-width="2" fill="none" />
<polyline points="48.0,301.0,56.0,299.0,68.0,315.5,85.5,331.5,93.5,348.0" stroke="black" stroke-width="2" fill="none" />
<polyline points="77.0,352.0,49.0,336.5" stroke="black" stroke-width="2" fill="none" />
<polyline points="46.0,334.0,64.0,350.0,95.5,366.0" stroke="black" stroke-width="2" fill="none" />
<polyline points="57.0,378.0,41.5,390.0,55.5,378.0,41.5,352.0" stroke="black" stroke-width="2" fill="none" />
<polyline points="72.5,342.0,61.0,325.5" stroke="black" stroke-width="2" fill="none" />
<polyline points="69.0,278.0,41.0,293.5,35.5,309.5,34.0,325.5,32.5,341.5,30.5,358.0,29.0,374.0,27.0,390.0,24.5,406.0,34.5,406.0,50.5,390.5,64.5,382.5,80.5,378.0,96.5,374.0,98.5,366.0,112.5,364.0" stroke="black" stroke-width="2" fill="none" />
<polyline points="238.0,321.5,220.0,360.0,230.0,344.0,236.0,328.5,240.0,312.5" stroke="black" stroke-width="2" fill="none" />
<polyline points="229.5,329.0,219.5,359.0,211.5,355.0,205.5,365.5,205.5,350.0,225.0,338.5,233.0,322.5,239.0,308.5,232.5,292.5" stroke="black" stroke-width="2" fill="none" />
<polyline points="260.5,135.0,253.0,149.0,262.5,133.0,267.0,117.0" stroke="black" stroke-width="2" fill="none" />
<polyline points="280.0,106.5,285.5,122.0,285.5,137.5,281.5,153.5,290.0,170.0,288.0,186.0,286.0,202.0,280.0,218.0,272.5,234.0,258.5,249.5,243.0,265.5,237.0,281.5,246.5,288.0,262.5,292.0,274.5,286.0,292.5,306.0,308.0,310.0,312.0,326.5,328.0,328.5" stroke="black" stroke-width="2" fill="none" />
<polyline points="239.5,64.0,223.5,56.0" stroke="black" stroke-width="2" fill="none" />
<polyline points="229.5,51.0,245.5,67.0,265.5,83.0,275.5,99.5,262.0,106.0,254.0,120.5,246.0,136.5,268.0,142.5" stroke="black" stroke-width="2" fill="none" />
</svg>