<svg xmlns="http://www.w3.org/2000/svg" width="512mm" height="512mm" viewBox="0 0 512 512" version="1.1"><polyline points="327.5,2.5,315.5,18.5,305.5,34.5,297.5,50.5,289.5,67.0,279.5,75.0,295.5,57.0,311.5,23.0,321.0,19.0,329.0,24.5,342.5,16.5,371.0,8.5,389.0,8.5,405.0,4.5,431.5,14.0,447.5,7.5,463.5,9.0,479.5,3.0,495.5,3.0" stroke="black" stroke-width="2" fill="none" />
<polyline points="504.0,27.5,488.0,25.0,472.5,19.0" stroke="black" stroke-width="2" fill="none" />
<polyline points="466.0,10.5,482.5,15.0" stroke="black" stroke-width="2" fill="none" />
<polyline points="499.0,12.0,483.0,9.5,467.5,7.0" stroke="black" stroke-width="2" fill="none" />
<polyline points="461.5,1.0,469.5,17.0,483.5,33.0,489.5,51.5,506.0,72.0,504.0,86.5,490.0,102.5" stroke="black" stroke-width="2" fill="none" />
<polyline points="508.0,72.0,508.5,56.0,501.0,71.5,485.0,47.5,469.5,21.5,453.0,7.5" stroke="black" stroke-width="2" fill="none" />
<polyline points="453.0,10.0,467.5,26.0,479.0,41.5,485.5,57.5,493.5,73.5,498.0,89.5,506.0,87.5" stroke="black" stroke-width="2" fill="none" />
<polyline points="501.5,45.5,486.0,39.0" stroke="black" stroke-width="2" fill="none" />
<polyline points="446.5,43.0,422.5,58.5,420.5,74.5,390.5,84.5,372.5,100.5,360.5,116.5,351.0,132.5,365.0,110.5,381.5,94.0,397.0,80.0,403.0,64.5,419.0,54.0,435.0,46.0" stroke="black" stroke-width="2" fill="none" />
<polyline points="439.5,43.5,411.5,59.5,387.5,65.5,369.5,81.0,355.5,97.0,357.5,92.5,374.0,76.5,390.5,62.0,407.0,50.0,423.5,42.0,440.0,38.0,450.0,44.0" stroke="black" stroke-width="2" fill="none" />
<polyline points="454.5,63.5,439.0,60.0,422.5,58.5,404.0,69.0,415.5,45.0,409.5,43.5,393.5,53.5,378.0,67.5,362.5,83.5,346.5,105.0,351.0,98.5,363.0,82.5,379.5,66.5,399.5,50.5,427.5,34.5,413.5,16.5,397.5,21.0" stroke="black" stroke-width="2" fill="none" />
<polyline points="408.0,24.0,386.0,44.0,370.0,48.0,354.0,54.0,357.5,63.5,349.5,63.5,371.5,46.0,400.0,40.5" stroke="black" stroke-width="2" fill="none" />
<polyline points="388.0,13.5,360.0,29.5,343.5,45.5,331.5,61.5,331.5,61.5,348.0,42.0,364.0,27.5,380.0,17.5,396.0,12.0,412.0,12.0" stroke="black" stroke-width="2" fill="none" />
<polyline points="415.5,76.5,404.0,80.0,388.0,94.0,372.5,109.5,356.5,127.5,366.5,115.0,382.0,99.5,400.0,84.0,404.0,92.0,388.0,104.5,372.0,118.5" stroke="black" stroke-width="2" fill="none" />
<polyline points="378.5,144.5,358.5,160.5,354.5,176.5,354.5,192.5,348.5,208.5,342.5,224.5,334.0,240.0,322.0,256.0,320.0,271.5,328.0,288.0,346.0,304.0,365.5,320.0,393.0,335.5,399.0,351.5,395.0,367.5,391.0,384.0,387.0,400.0,387.0,424.0,389.5,440.0,385.5,456.0,379.5,472.0,373.5,488.0,363.5,504.0,363.5,492.0,379.5,453.5" stroke="black" stroke-width="2" fill="none" />
<polyline points="374.5,484.0,358.5,508.0,364.5,492.0,372.0,476.0,378.0,460.0,384.0,444.0,384.0,428.0,384.0,411.5,394.0,396.0,398.0,379.5,402.0,363.5,406.0,347.5,414.0,331.5,428.0,315.5,462.0,305.5,474.0,299.5,500.0,281.5,508.0,271.5,492.0,289.5,475.5,289.5,459.5,289.5,444.0,292.0,428.5,286.0,412.5,281.5" stroke="black" stroke-width="2" fill="none" />
<polyline points="414.5,285.0,430.5,295.5,446.5,297.0,462.0,300.5,478.0,297.0,504.0,321.0" stroke="black" stroke-width="2" fill="none" />
<polyline points="507.0,316.5,491.5,306.5" stroke="black" stroke-width="2" fill="none" />
<polyline points="478.5,313.0,494.5,323.0,510.0,325.5" stroke="black" stroke-width="2" fill="none" />
<polyline points="500.0,331.0,484.0,321.0" stroke="black" stroke-width="2" fill="none" />
<polyline points="479.0,327.5,482.5,344.0,493.0,358.0" stroke="black" stroke-width="2" fill="none" />
<polyline points="487.0,371.5,477.0,377.5,493.0,361.5,497.0,353.5,497.0,329.5,493.0,313.5,476.5,307.5" stroke="black" stroke-width="2" fill="none" />
<polyline points="471.0,329.5,477.0,345.5,464.5,354.0" stroke="black" stroke-width="2" fill="none" />
<polyline points="458.0,358.0,474.0,356.0,490.5,350.0,506.5,360.0,489.0,377.5,490.5,375.5,506.5,367.5,508.5,375.5,506.5,391.0,492.0,407.0,482.5,423.0,476.5,439.0,468.5,455.5,460.5,471.5,453.0,488.0,447.0,504.0,451.0,492.5,467.0,458.5,483.0,419.0,499.0,405.0" stroke="black" stroke-width="2" fill="none" />
<polyline points="503.5,415.5,499.5,413.5,509.5,415.0,492.0,419.0,486.5,434.5,499.0,450.0,496.5,465.5,502.0,481.5" stroke="black" stroke-width="2" fill="none" />
<polyline points="513.0,495.5,506.5,479.5,500.5,463.5,510.5,456.0,508.0,436.0,500.0,420.5,498.0,417.0,507.5,413.0" stroke="black" stroke-width="2" fill="none" />
<polyline points="502.5,430.5,486.5,429.0" stroke="black" stroke-width="2" fill="none" />
<polyline points="490.0,434.0,505.5,446.0" stroke="black" stroke-width="2" fill="none" />
<polyline points="505.5,458.0,489.5,444.5" stroke="black" stroke-width="2" fill="none" />
<polyline points="482.5,456.0,486.5,472.0,494.5,488.0,506.0,504.0" stroke="black" stroke-width="2" fill="none" />
<polyline points="508.0,482.0,492.5,458.5" stroke="black" stroke-width="2" fill="none" />
<polyline points="476.5,466.5,492.5,482.5" stroke="black" stroke-width="2" fill="none" />
<polyline points="471.5,482.0,477.5,498.0" stroke="black" stroke-width="2" fill="none" />
<polyline points="467.5,485.5,450.0,503.5,454.0,497.0,462.0,481.0" stroke="black" stroke-width="2" fill="none" />
<polyline points="470.0,473.5,468.0,489.5,474.0,505.5" stroke="black" stroke-width="2" fill="none" />
<polyline points="486.5,506.0,486.5,490.0,480.5,474.5,474.5,458.5" stroke="black" stroke-width="2" fill="none" />
<polyline points="469.5,396.5,453.5,382.0,437.5,366.0" stroke="black" stroke-width="2" fill="none" />
<polyline points="439.0,366.0,445.0,381.5,457.0,385.0" stroke="black" stroke-width="2" fill="none" />
<polyline points="445.0,334.0,461.0,328.0,477.0,334.0,509.0,330.0" stroke="black" stroke-width="2" fill="none" />
<polyline points="498.5,323.5,486.5,303.5,482.0,286.0,466.0,284.5,450.0,284.5,434.0,282.5,418.0,278.5,402.0,274.0" stroke="black" stroke-width="2" fill="none" />
<polyline points="400.0,273.0,416.0,258.5,406.5,260.0,390.5,276.0,405.0,261.5,421.0,249.5,437.5,241.5,439.5,247.5,447.5,265.5,463.5,265.5" stroke="black" stroke-width="2" fill="none" />
<polyline points="455.5,272.5,440.0,267.0,424.0,253.0" stroke="black" stroke-width="2" fill="none" />
<polyline points="425.0,256.5,445.0,272.5" stroke="black" stroke-width="2" fill="none" />
<polyline points="432.5,251.5,438.5,243.5,413.0,259.5,403.5,275.5,411.5,291.5,414.0,307.5,414.0,324.0" stroke="black" stroke-width="2" fill="none" />
<polyline points="436.5,289.5,410.5,287.5,394.5,275.5" stroke="black" stroke-width="2" fill="none" />
<polyline points="430.0,252.5,448.0,269.0" stroke="black" stroke-width="2" fill="none" />
<polyline points="459.0,272.5,473.0,256.5,470.5,240.5" stroke="black" stroke-width="2" fill="none" />
<polyline points="467.5,239.5,467.5,255.5" stroke="black" stroke-width="2" fill="none" />
<polyline points="474.5,212.0,490.5,204.0,506.0,210.0,502.0,217.5,506.0,219.5" stroke="black" stroke-width="2" fill="none" />
<polyline points="491.0,223.5,487.0,227.5,511.0,219.5,497.0,211.5,493.0,219.5,487.0,227.0,475.0,210.5,488.5,210.5" stroke="black" stroke-width="2" fill="none" />
<polyline points="485.0,194.0,501.0,188.0,501.5,194.5" stroke="black" stroke-width="2" fill="none" />
<polyline points="428.5,204.0,420.5,204.5,405.0,200.5" stroke="black" stroke-width="2" fill="none" />
<polyline points="404.0,199.5,412.5,201.5,418.5,211.5" stroke="black" stroke-width="2" fill="none" />
<polyline points="428.5,189.5,412.5,189.5,396.5,193.5" stroke="black" stroke-width="2" fill="none" />
<polyline points="398.0,168.0,414.0,168.0,430.5,172.0,446.5,178.0" stroke="black" stroke-width="2" fill="none" />
<polyline points="445.0,171.5,429.0,165.5,412.5,161.5,396.5,163.5" stroke="black" stroke-width="2" fill="none" />
<polyline points="422.5,187.0,424.5,193.5,438.0,205.5,434.0,209.5" stroke="black" stroke-width="2" fill="none" />
<polyline points="442.0,111.5,458.0,105.5,474.0,104.0,490.5,98.0" stroke="black" stroke-width="2" fill="none" />
<polyline points="477.0,98.5,461.0,100.5,445.0,104.5,429.0,116.5,413.0,123.0,405.0,121.0,445.5,105.0,472.0,79.0,456.0,77.0,440.5,83.0,424.5,93.0,408.5,102.5,392.5,114.5,376.5,129.0,360.5,141.0,340.0,147.0,358.0,143.0,377.5,126.5,381.5,116.5,403.0,100.0,425.0,84.0,449.0,68.0,437.0,78.0,421.0,86.0,405.0,98.0,389.0,110.0,373.5,122.0,357.5,134.0,342.0,140.0,326.5,136.0,310.5,135.5" stroke="black" stroke-width="2" fill="none" />
<polyline points="312.0,139.5,327.5,147.5" stroke="black" stroke-width="2" fill="none" />
<polyline points="319.5,148.5,303.5,144.5,288.0,133.0,272.0,123.0,256.5,121.0,240.0,127.0,224.0,141.0" stroke="black" stroke-width="2" fill="none" />
<polyline points="228.0,141.0,244.5,142.5,261.0,153.0,277.0,177.0" stroke="black" stroke-width="2" fill="none" />
<polyline points="259.5,180.5,243.5,176.5" stroke="black" stroke-width="2" fill="none" />
<polyline points="243.5,173.0,241.5,189.0" stroke="black" stroke-width="2" fill="none" />
<polyline points="228.5,195.5,228.5,185.5,234.5,214.0" stroke="black" stroke-width="2" fill="none" />
<polyline points="233.5,205.0,249.5,220.5,265.5,221.0" stroke="black" stroke-width="2" fill="none" />
<polyline points="266.0,192.5,259.5,177.0,257.5,159.0,242.0,157.0,226.0,172.5" stroke="black" stroke-width="2" fill="none" />
<polyline points="232.0,167.5,247.5,159.5,263.5,171.0" stroke="black" stroke-width="2" fill="none" />
<polyline points="254.0,168.0,238.0,170.0" stroke="black" stroke-width="2" fill="none" />
<polyline points="242.5,165.5,234.5,181.5,233.5,197.5,224.0,213.5,238.0,229.5" stroke="black" stroke-width="2" fill="none" />
<polyline points="222.0,206.5,238.0,228.5,254.0,240.5,270.0,242.0,285.5,237.5,301.5,223.5" stroke="black" stroke-width="2" fill="none" />
<polyline points="339.0,231.5,322.5,251.0,296.5,251.0,280.5,249.0,264.0,247.0,248.0,241.5,231.5,230.0,215.0,203.5" stroke="black" stroke-width="2" fill="none" />
<polyline points="182.0,173.0,198.0,167.0,198.5,159.0" stroke="black" stroke-width="2" fill="none" />
<polyline points="213.5,134.5,191.5,150.5,177.0,166.5,163.0,182.5,146.5,198.0,156.5,188.0,172.5,169.5,189.0,151.5,205.0,141.5,211.5,121.0,221.5,117.0,237.5,111.0,259.5,95.0,275.5,99.5,291.5,97.5,307.5,93.5" stroke="black" stroke-width="2" fill="none" />
<polyline points="315.0,94.5,295.0,110.5,299.0,116.0,315.0,106.0" stroke="black" stroke-width="2" fill="none" />
<polyline points="286.0,123.5,302.0,134.0,318.0,130.5,334.0,134.5,343.5,144.0" stroke="black" stroke-width="2" fill="none" />
<polyline points="318.5,142.5,334.5,158.5,338.5,174.5,336.5,190.5,332.5,206.5,328.5,222.5,319.0,238.5,322.5,232.0" stroke="black" stroke-width="2" fill="none" />
<polyline points="323.5,265.0,339.5,291.0,356.0,303.0,372.0,315.5,388.5,326.0,405.0,332.0" stroke="black" stroke-width="2" fill="none" />
<polyline points="400.0,335.5,384.0,329.5,367.5,319.5,351.5,307.5,335.5,295.5,319.5,271.5" stroke="black" stroke-width="2" fill="none" />
<polyline points="299.0,266.5,299.0,282.5" stroke="black" stroke-width="2" fill="none" />
<polyline points="247.0,310.0,243.0,325.5,235.0,341.5,233.0,334.0" stroke="black" stroke-width="2" fill="none" />
<polyline points="229.5,348.0,241.5,308.0,237.5,324.0,229.5,340.0,231.5,359.5,228.0,385.0,250.0,401.5,266.5,417.5,276.5,433.5,276.5,450.0,284.0,464.0,286.0,478.0,292.5,494.0,300.5,510.0" stroke="black" stroke-width="2" fill="none" />
<polyline points="277.5,435.5,261.0,409.5,245.0,395.5,229.0,385.0" stroke="black" stroke-width="2" fill="none" />
<polyline points="231.0,382.0,247.0,390.0" stroke="black" stroke-width="2" fill="none" />
<polyline points="259.0,391.5,243.0,381.5,227.0,381.5,211.0,376.0" stroke="black" stroke-width="2" fill="none" />
<polyline points="210.0,375.5,228.0,391.5,250.0,407.0,266.0,423.0,268.0,439.0,282.0,449.0" stroke="black" stroke-width="2" fill="none" />
<polyline points="260.0,415.5,244.0,401.5,228.0,390.0,212.0,380.5" stroke="black" stroke-width="2" fill="none" />
<polyline points="204.0,386.5,228.0,402.0,253.5,418.5,259.5,432.5" stroke="black" stroke-width="2" fill="none" />
<polyline points="241.5,416.5,225.0,406.5,208.5,394.5,192.5,387.0" stroke="black" stroke-width="2" fill="none" />
<polyline points="193.5,382.0,211.5,398.0,235.5,414.5,269.5,434.5,266.0,445.0" stroke="black" stroke-width="2" fill="none" />
<polyline points="257.5,421.5,241.5,409.5,225.5,399.5,209.5,387.5,193.5,382.0" stroke="black" stroke-width="2" fill="none" />
<polyline points="203.0,367.5,179.0,383.5,167.0,399.5,160.5,415.5,150.0,431.0,140.0,441.0,152.0,469.0,168.0,481.5" stroke="black" stroke-width="2" fill="none" />
<polyline points="167.5,436.5,183.0,430.5,199.0,434.5,214.5,438.0,230.0,446.0,246.0,451.5,261.5,461.5,277.5,475.5,293.5,507.5" stroke="black" stroke-width="2" fill="none" />
<polyline points="245.0,423.0,228.5,415.5,212.5,405.0,196.5,397.0,180.5,403.0" stroke="black" stroke-width="2" fill="none" />
<polyline points="184.0,401.5,200.0,407.5" stroke="black" stroke-width="2" fill="none" />
<polyline points="186.0,400.0,213.5,414.0,245.0,429.5,265.0,445.5,277.0,461.5" stroke="black" stroke-width="2" fill="none" />
<polyline points="255.0,428.5,239.5,424.5,223.5,418.5,213.5,420.5,201.0,416.5,185.0,414.5,169.0,414.5" stroke="black" stroke-width="2" fill="none" />
<polyline points="169.0,411.0,185.0,411.0,201.0,413.0,218.5,410.5,250.0,426.0" stroke="black" stroke-width="2" fill="none" />
<polyline points="211.5,438.0,245.5,454.0,269.0,470.5,283.0,486.5,289.5,502.5" stroke="black" stroke-width="2" fill="none" />
<polyline points="273.0,465.0,257.5,452.5,241.5,443.0,226.0,437.0,210.0,431.0,194.5,427.5,178.5,424.0,162.5,430.0" stroke="black" stroke-width="2" fill="none" />
<polyline points="162.0,408.0,178.0,384.5,194.0,372.0,209.5,368.0,225.5,371.5,261.5,373.0,271.5,393.5,291.5,409.5,309.5,415.5" stroke="black" stroke-width="2" fill="none" />
<polyline points="378.5,409.0,362.0,409.5,346.0,407.5,330.0,404.0,313.5,396.0,298.0,388.0,280.0,376.0,264.0,368.0,248.0,366.0,232.0,366.0" stroke="black" stroke-width="2" fill="none" />
<polyline points="231.5,377.5,249.5,393.5,275.5,395.5,291.5,408.0,303.0,408.5,319.0,422.5" stroke="black" stroke-width="2" fill="none" />
<polyline points="293.0,493.5,269.0,463.5,245.0,448.0,209.5,432.0" stroke="black" stroke-width="2" fill="none" />
<polyline points="237.5,379.0,259.5,395.0,279.5,391.0,295.5,397.5,311.5,409.5,327.5,421.5" stroke="black" stroke-width="2" fill="none" />
<polyline points="378.0,405.5,361.5,405.0,345.0,403.0,329.0,399.0,312.5,390.5,296.0,383.0,280.5,383.0,264.5,377.0,247.0,361.0,231.0,361.0,215.0,364.5,199.0,364.0,183.5,369.5,167.5,385.0,149.5,402.5,149.5,386.0" stroke="black" stroke-width="2" fill="none" />
<polyline points="146.5,387.0,144.0,403.5,144.0,419.5,134.0,426.0,120.5,436.0,134.5,452.5,148.5,469.0,160.0,485.0,161.5,501.0" stroke="black" stroke-width="2" fill="none" />
<polyline points="135.0,442.5,133.0,426.5" stroke="black" stroke-width="2" fill="none" />
<polyline points="121.5,437.0,137.5,453.0,153.5,462.0" stroke="black" stroke-width="2" fill="none" />
<polyline points="135.0,445.5,119.0,433.5" stroke="black" stroke-width="2" fill="none" />
<polyline points="172.5,506.0,170.5,500.5,174.5,484.5,170.5,472.0,168.5,456.0,166.5,440.0,162.0,432.0,158.5,430.0,156.5,411.5,163.0,395.5,175.0,380.0,197.0,364.0" stroke="black" stroke-width="2" fill="none" />
<polyline points="247.5,358.0,275.5,374.0,287.5,398.0,311.0,408.0,326.5,423.5" stroke="black" stroke-width="2" fill="none" />
<polyline points="319.0,393.5,295.0,378.0,299.0,362.0,301.0,346.5" stroke="black" stroke-width="2" fill="none" />
<polyline points="298.0,346.0,296.0,362.0,289.5,384.0,321.0,399.5" stroke="black" stroke-width="2" fill="none" />
<polyline points="456.5,320.0,443.0,334.5,459.0,318.5,459.5,306.0,443.5,306.0,427.5,320.0,412.0,336.0,377.5,320.0,355.5,304.0,335.0,288.0,326.5,272.5,318.5,254.5,330.0,234.5,338.0,218.5,343.5,202.5,348.0,186.5,348.0,170.5,344.0,154.5,328.0,138.5,290.0,126.5,314.0,106.5,312.0,100.0,296.5,110.0,280.5,114.0,264.5,108.0,260.0,98.0,270.0,84.0,264.5,68.5,269.0,52.5,279.0,36.0,291.0,20.0,312.5,6.0,298.5,19.5,282.0,32.0,266.0,54.0" stroke="black" stroke-width="2" fill="none" />
<polyline points="279.0,51.0,276.5,67.0,275.0,83.0,278.5,89.0" stroke="black" stroke-width="2" fill="none" />
<polyline points="255.0,120.5,227.0,136.5,219.0,152.0,217.0,167.5,215.0,183.5,221.0,195.0,217.5,211.0,228.0,227.5,248.0,243.5,258.0,261.5" stroke="black" stroke-width="2" fill="none" />
<polyline points="237.0,212.0,225.0,196.0,219.5,180.0,203.5,172.0,188.0,182.0,174.5,192.0,174.5,197.5,158.5,209.5,142.5,225.5,144.5,223.5,160.5,207.0,170.5,193.0,196.5,177.0,198.5,169.0,182.5,176.5,166.0,186.5,150.0,200.5" stroke="black" stroke-width="2" fill="none" />
<polyline points="143.5,234.0,159.5,216.0,175.5,200.0,160.0,215.5,146.5,231.5,142.5,249.5,140.5,267.5,134.5,283.5,126.0,299.5,135.5,275.5" stroke="black" stroke-width="2" fill="none" />
<polyline points="132.0,272.0,120.0,300.0,128.5,284.0,134.5,267.5,136.5,251.5,135.0,235.5,133.0,219.5,140.5,203.5,150.5,187.5,166.5,171.5,178.5,155.5,196.0,140.0,204.0,124.5,208.0,108.5,218.0,92.5,226.0,76.5,238.0,60.0,250.0,44.0,265.5,28.0,287.5,11.5,303.5,3.5,288.0,11.5,272.0,23.0,256.5,37.5,240.5,55.5,224.5,80.0,208.5,108.5" stroke="black" stroke-width="2" fill="none" />
<polyline points="230.5,124.5,217.0,140.5,205.0,146.5,187.0,162.0,189.0,174.0,175.0,175.5,159.0,191.5,143.0,205.0,137.5,221.0,147.5,189.0,163.5,173.5,179.5,153.5,195.5,139.5,217.5,138.0,233.0,136.5,249.0,138.5,265.0,149.0,281.5,171.0" stroke="black" stroke-width="2" fill="none" />
<polyline points="249.0,156.0,263.0,163.5,257.5,171.5,260.0,187.5,246.5,203.5,262.5,202.0" stroke="black" stroke-width="2" fill="none" />
<polyline points="277.5,212.0,261.5,228.0,246.0,224.0,230.0,207.5,231.5,175.5,241.5,159.5" stroke="black" stroke-width="2" fill="none" />
<polyline points="243.5,154.5,227.5,170.5,227.5,186.5,241.5,204.5,249.5,190.0,256.0,202.0" stroke="black" stroke-width="2" fill="none" />
<polyline points="276.0,207.0,280.0,191.0,276.0,175.5,266.0,159.5,246.5,143.5" stroke="black" stroke-width="2" fill="none" />
<polyline points="250.0,138.0,270.0,154.0,280.0,170.0,284.0,186.5,282.0,202.5,274.0,218.5" stroke="black" stroke-width="2" fill="none" />
<polyline points="329.0,234.5,305.0,242.5,319.5,227.0,325.5,211.0,329.5,195.0,331.5,179.0,330.0,163.0,316.0,147.0" stroke="black" stroke-width="2" fill="none" />
<polyline points="311.0,144.5,316.5,160.5,320.5,176.0,320.5,192.0,318.0,208.5,310.0,224.5,294.0,240.0,298.0,245.5,313.5,233.0" stroke="black" stroke-width="2" fill="none" />
<polyline points="229.5,80.5,245.5,62.5,257.5,48.5,273.5,32.5,291.5,18.0,310.0,8.0" stroke="black" stroke-width="2" fill="none" />
<polyline points="314.0,29.5,306.0,45.5,304.0,62.0" stroke="black" stroke-width="2" fill="none" />
<polyline points="303.5,51.5,319.5,31.5" stroke="black" stroke-width="2" fill="none" />
<polyline points="334.0,41.5,318.0,71.5,322.0,63.0,329.5,47.5,337.5,27.5,321.0,17.5,331.0,1.5" stroke="black" stroke-width="2" fill="none" />
<polyline points="284.0,23.0,268.0,39.5,248.0,53.5,242.0,69.5,242.0,85.5,248.0,101.5,274.0,123.5,296.5,139.5,310.5,155.5,315.0,171.5,315.0,188.0,315.0,203.5,307.0,219.5,291.0,236.0,297.0,238.5,313.0,222.5" stroke="black" stroke-width="2" fill="none" />
<polyline points="381.5,136.0,365.5,154.5,361.5,150.5,383.5,134.5,409.5,124.5,447.5,108.5" stroke="black" stroke-width="2" fill="none" />
<polyline points="438.0,98.0,429.5,102.0,446.0,92.5,466.0,90.5,482.5,92.0" stroke="black" stroke-width="2" fill="none" />
<polyline points="512.0,278.5,498.0,294.5,502.0,306.0,506.0,284.0" stroke="black" stroke-width="2" fill="none" />
</svg>