<svg xmlns="http://www.w3.org/2000/svg" width="512mm" height="512mm" viewBox="0 0 512 512" version="1.1"><polyline points="225.5,86.5,191.5,102.5,171.5,118.5,155.5,134.5,145.5,151.0,135.5,167.0,131.5,183.0,127.5,199.0,125.0,215.0,125.0,230.5,128.5,246.5,129.0,262.5,107.0,278.5,95.0,294.5,87.5,310.0,79.5,325.5,71.5,341.0,61.5,357.0,53.5,373.0,51.5,388.5,56.0,404.5,62.0,420.5,66.5,436.5,70.5,453.0,70.5,469.0,66.5,485.0,58.5,501.0,60.5,497.5,78.5,485.5,94.5,495.5,100.5,497.5,116.5,500.0,132.0,500.0,147.5,498.0,163.5,498.0,173.0,504.0,177.0,508.0" stroke="black" stroke-width="2" fill="none" />
<polyline points="238.0,489.0,222.0,491.5,188.5,481.0,138.5,471.0,126.5,455.0,126.5,438.5,136.5,426.5,142.5,411.0,152.5,394.5,159.0,379.0,163.5,363.0,167.5,347.0,173.5,330.5,177.5,314.5,179.5,298.5,185.0,282.5,186.5,266.5,194.5,250.5,200.5,235.0,204.0,218.5,207.5,202.5,215.0,186.0,211.0,171.5,195.0,207.5" stroke="black" stroke-width="2" fill="none" />
<polyline points="182.0,197.0,198.0,179.0,208.0,179.5,199.5,195.5,195.5,212.0,189.0,228.0,185.0,244.0,179.5,260.5,173.5,276.5,145.5,286.5,135.5,295.0,129.5,300.5,135.5,317.0,137.5,325.0" stroke="black" stroke-width="2" fill="none" />
<polyline points="128.0,315.5,112.5,309.0" stroke="black" stroke-width="2" fill="none" />
<polyline points="110.0,306.5,126.0,298.0,141.5,308.5" stroke="black" stroke-width="2" fill="none" />
<polyline points="165.5,306.0,167.5,304.0,163.0,320.5,151.0,336.5,147.5,352.5,155.5,362.5,151.5,378.5,149.5,406.0,143.5,422.0,155.5,426.0,172.0,429.5,187.5,433.5,203.5,437.0,219.5,443.0,235.0,449.0,251.5,449.0,276.0,413.0,292.0,405.0,308.5,411.0,324.5,420.5,340.0,418.5,340.5,425.0" stroke="black" stroke-width="2" fill="none" />
<polyline points="331.0,457.0,314.5,444.5,298.0,437.0" stroke="black" stroke-width="2" fill="none" />
<polyline points="299.5,436.5,325.5,452.5,343.5,468.5,349.5,484.5,345.5,500.0" stroke="black" stroke-width="2" fill="none" />
<polyline points="314.0,487.0,298.0,452.5" stroke="black" stroke-width="2" fill="none" />
<polyline points="296.0,435.0,296.0,451.0,301.5,467.0,311.5,483.0,317.5,499.0" stroke="black" stroke-width="2" fill="none" />
<polyline points="272.0,450.5,288.0,430.0" stroke="black" stroke-width="2" fill="none" />
<polyline points="286.5,402.5,294.5,418.5,286.5,434.5,278.5,450.5,280.5,466.5,286.5,482.5,296.0,498.0,308.0,498.0,320.0,509.5" stroke="black" stroke-width="2" fill="none" />
<polyline points="320.0,397.5,303.5,396.0,287.0,387.5" stroke="black" stroke-width="2" fill="none" />
<polyline points="283.0,402.5,276.5,418.5,270.5,434.0,270.5,450.0,262.0,466.5,256.0,482.5,240.0,482.0" stroke="black" stroke-width="2" fill="none" />
<polyline points="266.5,410.5,292.5,368.0,308.5,371.5,324.5,385.5" stroke="black" stroke-width="2" fill="none" />
<polyline points="331.5,364.5,315.5,348.5,299.5,336.5" stroke="black" stroke-width="2" fill="none" />
<polyline points="301.5,312.0,317.5,328.0,333.5,342.0,349.5,342.0" stroke="black" stroke-width="2" fill="none" />
<polyline points="357.5,319.5,341.0,308.0,325.0,296.0" stroke="black" stroke-width="2" fill="none" />
<polyline points="325.5,288.5,343.5,304.5" stroke="black" stroke-width="2" fill="none" />
<polyline points="348.0,274.0,332.0,282.0,316.0,264.0" stroke="black" stroke-width="2" fill="none" />
<polyline points="300.5,283.5,316.5,285.5,332.5,288.0,348.5,282.0" stroke="black" stroke-width="2" fill="none" />
<polyline points="337.0,266.5,343.0,250.5" stroke="black" stroke-width="2" fill="none" />
<polyline points="347.0,228.0,331.0,226.5,314.5,244.5,290.5,283.0,274.0,299.0,258.0,313.0" stroke="black" stroke-width="2" fill="none" />
<polyline points="261.5,316.0,277.5,301.5,293.5,305.5,317.5,301.5,329.5,317.5,337.0,329.5" stroke="black" stroke-width="2" fill="none" />
<polyline points="327.5,313.5,312.0,297.5" stroke="black" stroke-width="2" fill="none" />
<polyline points="303.0,305.0,319.0,321.5,335.0,337.5" stroke="black" stroke-width="2" fill="none" />
<polyline points="327.5,332.5,311.5,316.5,296.0,301.0,294.0,291.0,300.5,275.0,304.0,273.0,292.0,293.0" stroke="black" stroke-width="2" fill="none" />
<polyline points="289.0,304.5,307.0,320.5,323.0,336.0,343.0,351.5,347.0,367.5,343.0,383.0,345.5,399.0,352.0,415.5,358.0,431.5,356.0,447.5,352.0,463.5" stroke="black" stroke-width="2" fill="none" />
<polyline points="335.5,376.5,323.5,360.5,303.5,344.5,295.0,332.5,278.5,338.5,262.5,335.0" stroke="black" stroke-width="2" fill="none" />
<polyline points="258.0,331.5,282.0,347.5,298.0,355.0,314.0,367.0,330.5,381.5" stroke="black" stroke-width="2" fill="none" />
<polyline points="306.5,365.5,326.0,381.5,352.0,413.5" stroke="black" stroke-width="2" fill="none" />
<polyline points="344.5,460.5,340.5,436.5,338.5,426.5,338.5,414.5,320.5,384.5,300.5,368.5" stroke="black" stroke-width="2" fill="none" />
<polyline points="269.5,306.5,261.5,322.5,265.0,338.5,293.0,354.5,290.5,368.0,284.5,384.0,288.5,395.5,305.0,411.5,327.0,427.5,343.5,443.0,341.5,457.0,341.5,463.0" stroke="black" stroke-width="2" fill="none" />
<polyline points="369.5,308.5,354.0,310.0,338.0,298.0,352.5,279.5,362.5,263.5,360.5,247.0,354.0,231.5,346.0,216.0,336.0,214.0,338.0,214.5,322.0,222.5,312.0,234.0,324.0,218.0,334.0,202.0,336.0,185.5,332.0,172.0,316.0,158.0,292.5,146.5,265.0,147.0,249.0,147.0,233.0,153.0" stroke="black" stroke-width="2" fill="none" />
<polyline points="238.5,143.0,254.5,143.0,284.5,149.0,308.5,163.5,323.0,173.0" stroke="black" stroke-width="2" fill="none" />
<polyline points="304.0,208.0,308.0,202.5,300.0,202.5,292.0,202.5" stroke="black" stroke-width="2" fill="none" />
<polyline points="259.0,206.5,243.0,202.5,237.0,214.5" stroke="black" stroke-width="2" fill="none" />
<polyline points="225.5,212.5,241.0,208.5,257.0,216.5" stroke="black" stroke-width="2" fill="none" />
<polyline points="268.0,207.0,252.5,197.5,236.5,198.0,220.5,210.0" stroke="black" stroke-width="2" fill="none" />
<polyline points="218.0,216.5,234.0,222.5,246.5,210.5,262.5,211.0,270.5,227.0,252.5,231.0,240.5,217.0,248.5,233.5" stroke="black" stroke-width="2" fill="none" />
<polyline points="234.0,256.5,218.0,250.0" stroke="black" stroke-width="2" fill="none" />
<polyline points="205.5,241.0,221.5,247.0,237.5,252.0" stroke="black" stroke-width="2" fill="none" />
<polyline points="234.0,269.5,231.5,269.5,231.5,257.5,226.0,253.5,226.5,233.0,218.5,217.0,227.0,200.5,215.0,204.5" stroke="black" stroke-width="2" fill="none" />
<polyline points="215.5,182.0,227.5,184.0,241.5,188.0,258.0,179.5,274.5,183.5,290.5,189.5,306.5,191.5,334.5,199.5,350.0,221.5" stroke="black" stroke-width="2" fill="none" />
<polyline points="343.0,227.0,354.5,243.0,357.0,259.0,348.5,275.0,338.5,266.5,344.0,250.5" stroke="black" stroke-width="2" fill="none" />
<polyline points="336.5,225.0,316.5,240.5,314.5,256.5,318.5,272.5,320.5,288.5,334.5,304.5,359.0,320.5,349.0,336.5,347.5,338.0" stroke="black" stroke-width="2" fill="none" />
<polyline points="234.0,256.5,218.0,266.0,206.0,262.0,213.5,246.0,185.5,266.0" stroke="black" stroke-width="2" fill="none" />
<polyline points="178.0,293.5,170.0,309.5,166.0,325.5,160.0,341.5,148.0,362.0,146.0,378.0,149.5,380.0" stroke="black" stroke-width="2" fill="none" />
<polyline points="121.5,341.5,105.5,333.5" stroke="black" stroke-width="2" fill="none" />
<polyline points="106.0,329.5,106.0,329.5,126.0,345.0" stroke="black" stroke-width="2" fill="none" />
<polyline points="123.5,332.0,107.5,320.0" stroke="black" stroke-width="2" fill="none" />
<polyline points="107.0,315.5,119.0,309.5,123.0,317.5,138.5,329.5,158.0,347.0,162.0,321.0" stroke="black" stroke-width="2" fill="none" />
<polyline points="163.0,280.0,147.5,274.0" stroke="black" stroke-width="2" fill="none" />
<polyline points="148.0,274.0,155.5,290.0,150.0,286.5,158.0,288.5,182.5,256.0" stroke="black" stroke-width="2" fill="none" />
<polyline points="172.5,208.5,188.5,182.5,204.5,170.0,220.5,146.0,236.5,136.0,252.5,136.0,268.0,138.0,284.0,141.5,300.0,147.5,316.0,156.0,332.0,170.0" stroke="black" stroke-width="2" fill="none" />
<polyline points="287.0,151.5,287.0,147.5,271.0,148.0" stroke="black" stroke-width="2" fill="none" />
<polyline points="276.0,149.0,312.0,165.5,328.0,181.5,314.0,197.5,320.0,201.5,312.0,217.5,306.0,233.5,302.5,249.5,296.5,265.5,291.0,281.5,275.0,298.0,259.0,313.5,257.0,329.5,267.0,346.0,271.0,362.5,277.0,378.5,273.0,394.5,266.5,410.5,262.5,426.5,258.5,442.5" stroke="black" stroke-width="2" fill="none" />
<polyline points="121.5,477.0,105.5,477.0" stroke="black" stroke-width="2" fill="none" />
<polyline points="103.0,474.0,119.0,473.5,135.0,471.0" stroke="black" stroke-width="2" fill="none" />
<polyline points="144.5,485.5,127.0,487.5,111.5,486.0,96.0,486.0,80.0,482.0" stroke="black" stroke-width="2" fill="none" />
<polyline points="69.0,488.0,61.0,503.5,69.5,509.5,70.0,487.5,86.5,479.5,102.5,482.0,119.0,482.0,135.0,482.0,150.5,482.0" stroke="black" stroke-width="2" fill="none" />
<polyline points="216.0,488.5,200.0,484.5,184.0,478.0,168.5,472.0,152.5,468.0,136.5,462.0,110.5,464.0,95.0,465.5,79.0,459.5" stroke="black" stroke-width="2" fill="none" />
<polyline points="77.0,468.0,93.0,469.5,109.0,469.5,125.0,466.0,147.0,472.5,163.0,476.5,179.0,482.5,194.5,488.5,210.5,494.5,226.5,498.5,243.0,496.5,259.0,478.5,283.0,468.5,299.5,500.5,313.5,504.5" stroke="black" stroke-width="2" fill="none" />
<polyline points="129.0,373.5,113.0,378.0,97.0,380.0" stroke="black" stroke-width="2" fill="none" />
<polyline points="87.5,368.0,103.5,370.0,119.5,372.0,121.0,380.0,136.5,377.5" stroke="black" stroke-width="2" fill="none" />
<polyline points="115.0,366.0,99.0,366.0,83.0,364.5" stroke="black" stroke-width="2" fill="none" />
<polyline points="57.5,379.0,73.5,345.0,89.5,315.5,105.5,287.5,121.5,276.0,137.5,262.0,153.5,250.0,169.5,229.5" stroke="black" stroke-width="2" fill="none" />
<polyline points="138.0,174.0,153.5,146.0,169.0,125.5,185.0,111.5,201.0,101.5,217.0,94.0,233.0,90.0,249.0,88.0,265.5,86.0,281.5,88.0,297.5,90.0,313.5,96.0,329.5,102.0,345.5,112.0,361.5,127.5,378.0,147.0" stroke="black" stroke-width="2" fill="none" />
<polyline points="388.5,157.0,372.0,131.5,355.5,115.0,339.0,103.0,323.0,95.0,306.5,88.5,290.0,85.0,274.5,83.0,258.5,83.0,243.0,83.0,227.0,87.0,211.0,92.5,195.0,100.0,179.5,109.5,163.5,123.0,147.5,142.5,131.5,174.0" stroke="black" stroke-width="2" fill="none" />
<polyline points="204.0,175.5,186.0,191.5,178.0,208.0,174.0,224.0,164.0,239.5,146.5,255.5,126.0,271.5,106.0,287.5,96.0,303.5,88.5,319.5,81.0,335.5,72.5,352.0,65.0,368.0,59.0,384.0,61.0,400.0,65.0,416.0,69.0,432.5,76.5,460.5,74.5,478.5,88.5,495.0,96.5,511.0,112.5,511.0,128.5,511.0,144.5,509.5,161.0,511.0" stroke="black" stroke-width="2" fill="none" />
<polyline points="106.0,454.0,90.0,456.5,74.0,450.5" stroke="black" stroke-width="2" fill="none" />
<polyline points="75.0,442.5,91.0,444.5" stroke="black" stroke-width="2" fill="none" />
<polyline points="106.5,438.5,89.0,438.5,73.0,438.5" stroke="black" stroke-width="2" fill="none" />
<polyline points="67.5,429.5,83.5,433.5,100.0,431.5,116.0,437.5" stroke="black" stroke-width="2" fill="none" />
<polyline points="94.5,416.0,79.0,413.5" stroke="black" stroke-width="2" fill="none" />
<polyline points="72.0,420.5,88.0,423.0,103.5,423.0,119.5,426.5" stroke="black" stroke-width="2" fill="none" />
<polyline points="117.0,407.5,101.0,403.0,85.0,400.5,68.5,402.5" stroke="black" stroke-width="2" fill="none" />
<polyline points="60.5,399.0,76.5,413.5,92.0,409.5,108.0,409.5" stroke="black" stroke-width="2" fill="none" />
<polyline points="64.0,431.5,80.5,447.5,96.5,449.5,112.5,450.0,134.5,460.0,150.5,460.0,166.5,464.0,182.5,468.0,198.0,471.5,213.5,475.5,229.5,479.0" stroke="black" stroke-width="2" fill="none" />
<polyline points="153.5,501.0,137.5,503.5,121.5,506.0,105.0,504.5,89.0,500.5,85.0,502.5,68.5,496.5" stroke="black" stroke-width="2" fill="none" />
<polyline points="120.0,429.5,104.0,427.5,87.5,427.5,70.5,423.5,54.5,403.5" stroke="black" stroke-width="2" fill="none" />
<polyline points="53.5,373.5,69.5,343.5,86.0,311.5,102.0,284.0,117.5,272.0,133.5,258.0" stroke="black" stroke-width="2" fill="none" />
<polyline points="108.5,306.5,123.0,322.5,139.0,338.5,141.0,354.0,135.0,370.0,139.0,389.5,133.0,405.5,129.0,421.0" stroke="black" stroke-width="2" fill="none" />
<polyline points="128.0,346.0,110.0,324.0,112.0,318.0" stroke="black" stroke-width="2" fill="none" />
<polyline points="271.5,233.5,273.5,217.5,253.5,201.5" stroke="black" stroke-width="2" fill="none" />
<polyline points="250.0,178.5,239.5,178.0,225.5,181.5,231.5,185.5,214.0,206.0,224.0,216.0,232.0,232.0,238.0,234.0,240.5,238.0,256.5,229.5,263.0,235.5,263.0,229.5,258.5,242.0,274.5,228.0" stroke="black" stroke-width="2" fill="none" />
<polyline points="236.0,135.5,216.0,151.5,207.5,167.5,185.5,183.5,175.5,199.5,170.0,216.0,162.0,231.5,146.0,247.5" stroke="black" stroke-width="2" fill="none" />
<polyline points="160.5,236.5,145.0,250.5,137.0,250.5,132.5,234.5,130.0,218.5,132.0,202.5,136.0,186.5,140.0,170.5,148.0,154.0,159.5,137.5,173.5,121.0,193.5,105.0,229.5,89.0" stroke="black" stroke-width="2" fill="none" />
<polyline points="301.0,85.5,337.0,101.5,359.5,117.5,373.5,133.5,384.0,149.0,392.0,165.5,396.0,181.5,400.0,198.0,402.0,214.0,402.0,230.5,400.0,246.5,398.0,263.0,391.5,279.0,385.5,294.5,375.5,310.5,361.5,326.0,350.0,342.0,349.5,358.0,352.0,374.0,348.0,390.0,354.0,406.0,360.0,422.5,362.0,438.0,359.5,454.0,355.5,469.5,353.5,487.0,349.5,503.5" stroke="black" stroke-width="2" fill="none" />
<polyline points="381.0,303.5,365.0,322.0,375.0,302.0,385.0,286.5,391.0,270.5,395.0,254.5,397.0,238.5,396.5,222.0,396.5,206.0,394.0,189.5,390.0,173.5,381.5,157.5,371.5,141.5,357.0,125.5,339.5,110.0,309.0,94.0" stroke="black" stroke-width="2" fill="none" />
</svg>