<svg xmlns="http://www.w3.org/2000/svg" width="512mm" height="512mm" viewBox="0 0 512 512" version="1.1"><polyline points="131.5,48.5,135.5,64.5,125.5,72.5,119.5,88.5,105.5,105.0,97.5,121.0,89.5,137.0,91.5,145.0,87.0,131.0,93.0,112.5,100.5,86.5,109.0,74.5,125.0,68.5,147.0,74.5,163.5,74.0,179.5,73.5,195.5,83.0,209.5,73.0" stroke="black" stroke-width="2" fill="none" />
<polyline points="213.0,78.5,215.0,94.5,209.0,112.0,205.0,128.0" stroke="black" stroke-width="2" fill="none" />
<polyline points="213.5,136.5,216.0,120.0,222.5,104.0,231.0,88.0,233.0,83.5,217.5,117.0" stroke="black" stroke-width="2" fill="none" />
<polyline points="228.5,113.0,244.0,109.0,260.0,109.5,276.0,105.5,292.0,99.5,318.0,107.5,312.0,123.5,320.5,136.0,314.5,138.5,310.5,122.5,326.0,118.5" stroke="black" stroke-width="2" fill="none" />
<polyline points="316.5,105.5,301.0,97.5,285.0,109.5" stroke="black" stroke-width="2" fill="none" />
<polyline points="276.5,106.5,288.5,122.5,284.5,126.5,302.5,140.5" stroke="black" stroke-width="2" fill="none" />
<polyline points="307.5,142.0,291.5,129.5,275.5,109.5,259.0,117.5" stroke="black" stroke-width="2" fill="none" />
<polyline points="266.5,126.5,266.5,126.5,272.5,110.5" stroke="black" stroke-width="2" fill="none" />
<polyline points="282.0,82.5,276.0,77.0,259.5,77.0" stroke="black" stroke-width="2" fill="none" />
<polyline points="249.5,72.5,265.0,72.5,281.0,72.5" stroke="black" stroke-width="2" fill="none" />
<polyline points="300.0,83.5,316.5,89.5" stroke="black" stroke-width="2" fill="none" />
<polyline points="310.0,88.0,328.0,104.0,326.0,120.0,328.0,136.5,330.0,152.5" stroke="black" stroke-width="2" fill="none" />
<polyline points="352.5,116.5,370.5,134.5,381.0,134.5,391.0,134.5,407.0,126.5,423.0,130.5,439.0,124.5,454.5,122.5,478.5,138.5" stroke="black" stroke-width="2" fill="none" />
<polyline points="483.5,128.5,467.5,90.5" stroke="black" stroke-width="2" fill="none" />
<polyline points="465.5,86.5,471.5,102.5,479.0,118.5,485.0,134.5,492.5,150.0" stroke="black" stroke-width="2" fill="none" />
<polyline points="491.0,134.5,475.0,96.5,459.0,86.5" stroke="black" stroke-width="2" fill="none" />
<polyline points="468.5,84.5,475.0,100.5,483.0,116.5,489.0,132.0,497.0,148.0,507.0,153.5" stroke="black" stroke-width="2" fill="none" />
<polyline points="457.0,114.0,441.0,94.0,425.5,80.5" stroke="black" stroke-width="2" fill="none" />
<polyline points="425.0,75.0,441.0,87.0,457.0,100.5" stroke="black" stroke-width="2" fill="none" />
<polyline points="436.0,78.0,447.5,94.0,460.0,110.5,462.0,126.5,480.5,142.0" stroke="black" stroke-width="2" fill="none" />
<polyline points="483.0,153.5,467.0,138.0,451.5,130.5,436.0,130.5,422.0,135.0,406.0,133.0" stroke="black" stroke-width="2" fill="none" />
<polyline points="387.5,178.0,403.5,178.0,419.5,178.0,435.0,177.5,451.5,177.5,467.5,177.5,483.0,178.0,499.0,178.0" stroke="black" stroke-width="2" fill="none" />
<polyline points="451.0,242.5,467.0,246.5,483.0,248.5,499.0,250.5,503.0,261.0,510.5,277.0,502.5,298.5,492.0,306.0,510.0,325.5" stroke="black" stroke-width="2" fill="none" />
<polyline points="507.0,278.0,498.5,276.0,482.5,259.5" stroke="black" stroke-width="2" fill="none" />
<polyline points="473.0,254.5,489.0,270.5,486.5,286.5,486.5,302.5,486.5,314.5,484.5,340.5,500.5,352.0" stroke="black" stroke-width="2" fill="none" />
<polyline points="479.5,344.0,463.5,308.5" stroke="black" stroke-width="2" fill="none" />
<polyline points="461.0,305.5,469.0,321.5,469.0,337.5" stroke="black" stroke-width="2" fill="none" />
<polyline points="501.0,347.5,485.0,331.5,464.5,289.0,438.5,261.0" stroke="black" stroke-width="2" fill="none" />
<polyline points="439.0,257.5,448.5,274.0,467.0,290.0,473.0,306.0,477.0,322.0,483.0,338.0" stroke="black" stroke-width="2" fill="none" />
<polyline points="508.5,338.5,508.0,323.0,510.0,305.0,496.0,303.0,492.0,287.0,502.0,279.5,490.0,263.5,492.0,259.5,492.0,255.5,476.0,254.0,460.0,256.0" stroke="black" stroke-width="2" fill="none" />
<polyline points="464.5,252.5,463.0,268.5,469.0,284.5,473.0,300.5,479.5,316.0,485.5,331.5,497.5,347.0" stroke="black" stroke-width="2" fill="none" />
<polyline points="476.0,348.5,460.0,312.5,447.5,304.0,415.5,314.0,399.0,325.5,382.5,333.5,408.5,317.5,408.5,301.5,398.0,285.0,404.0,269.0,396.0,283.0" stroke="black" stroke-width="2" fill="none" />
<polyline points="398.0,286.0,414.0,308.0" stroke="black" stroke-width="2" fill="none" />
<polyline points="429.5,326.0,413.5,333.5,435.5,328.0,445.5,318.0,429.5,332.5,413.5,342.5" stroke="black" stroke-width="2" fill="none" />
<polyline points="415.5,346.5,431.5,348.5,449.5,350.5,465.5,352.5" stroke="black" stroke-width="2" fill="none" />
<polyline points="451.0,332.0,457.0,346.5,441.0,344.5,417.0,350.5,407.0,342.5,391.5,342.5,375.5,342.5,360.0,344.0,346.5,330.0,341.0,306.0,341.0,290.0,339.0,274.0,339.0,258.5,325.0,256.5" stroke="black" stroke-width="2" fill="none" />
<polyline points="324.0,256.5,326.0,272.5,330.0,288.0,330.0,304.0,332.0,319.5,330.5,335.0,328.5,341.5,346.5,334.0,372.5,346.5,389.0,346.5" stroke="black" stroke-width="2" fill="none" />
<polyline points="402.0,344.5,426.5,328.5,444.0,313.0,452.0,297.0,457.5,281.0,457.5,265.0,443.0,259.0,427.0,261.0" stroke="black" stroke-width="2" fill="none" />
<polyline points="448.0,261.5,468.5,277.5,484.5,307.5,492.0,298.0" stroke="black" stroke-width="2" fill="none" />
<polyline points="496.0,283.5,479.5,279.5,457.5,263.5" stroke="black" stroke-width="2" fill="none" />
<polyline points="449.0,261.5,459.0,281.5,460.5,298.0,450.5,314.0,458.5,330.0,452.5,334.0,472.0,334.0" stroke="black" stroke-width="2" fill="none" />
<polyline points="485.5,370.0,455.5,386.5,459.5,403.0,467.5,419.5,467.0,436.0,471.0,452.5,463.0,463.0,479.0,479.0,484.5,495.0" stroke="black" stroke-width="2" fill="none" />
<polyline points="496.5,474.0,480.5,454.0" stroke="black" stroke-width="2" fill="none" />
<polyline points="476.0,467.5,488.0,469.5,494.0,485.0,494.0,501.0" stroke="black" stroke-width="2" fill="none" />
<polyline points="448.0,434.5,432.5,414.5,416.5,404.5" stroke="black" stroke-width="2" fill="none" />
<polyline points="417.5,404.5,427.0,420.5,443.0,440.5,454.5,456.0,460.0,472.0" stroke="black" stroke-width="2" fill="none" />
<polyline points="429.5,475.0,413.5,475.0" stroke="black" stroke-width="2" fill="none" />
<polyline points="407.5,490.5,423.0,492.5,439.5,498.0,455.5,497.5,471.5,499.5,487.0,505.5" stroke="black" stroke-width="2" fill="none" />
<polyline points="510.0,408.5,493.5,408.5,477.5,382.5,462.0,388.0" stroke="black" stroke-width="2" fill="none" />
<polyline points="455.5,392.0,471.5,378.0,487.0,372.5,503.0,374.5" stroke="black" stroke-width="2" fill="none" />
<polyline points="503.5,380.5,488.0,378.5" stroke="black" stroke-width="2" fill="none" />
<polyline points="486.5,378.5,486.5,394.5,494.5,410.0,500.5,426.0,506.5,442.0,510.5,448.0" stroke="black" stroke-width="2" fill="none" />
<polyline points="505.0,394.0,489.0,383.5" stroke="black" stroke-width="2" fill="none" />
<polyline points="487.5,384.0,493.5,400.0,504.0,416.0,510.0,432.0" stroke="black" stroke-width="2" fill="none" />
<polyline points="472.0,415.0,456.0,393.0" stroke="black" stroke-width="2" fill="none" />
<polyline points="440.0,405.0,424.0,401.0" stroke="black" stroke-width="2" fill="none" />
<polyline points="423.5,400.0,441.5,416.0,451.5,432.0,460.0,447.5,454.5,453.5,470.5,461.5,474.5,473.5,498.5,485.5,502.0,489.5,507.5,497.5" stroke="black" stroke-width="2" fill="none" />
<polyline points="443.0,417.5,427.0,403.5" stroke="black" stroke-width="2" fill="none" />
<polyline points="432.5,402.0,450.5,418.0,462.5,449.5,466.0,463.0,488.0,469.0" stroke="black" stroke-width="2" fill="none" />
<polyline points="436.5,442.0,420.5,436.0,404.0,430.0" stroke="black" stroke-width="2" fill="none" />
<polyline points="399.0,431.5,415.0,443.0" stroke="black" stroke-width="2" fill="none" />
<polyline points="443.5,442.0,427.5,420.0,419.0,420.0,403.0,406.0" stroke="black" stroke-width="2" fill="none" />
<polyline points="402.0,402.0,416.0,418.5,426.0,434.0,437.5,446.0,463.5,467.5,479.5,481.0" stroke="black" stroke-width="2" fill="none" />
<polyline points="469.0,430.0,449.0,406.0,432.5,396.0,417.0,398.0,400.5,402.0" stroke="black" stroke-width="2" fill="none" />
<polyline points="421.0,407.0,439.0,423.0,449.0,439.0,442.5,448.5,458.0,468.0" stroke="black" stroke-width="2" fill="none" />
<polyline points="406.5,458.5,390.5,468.5,388.0,472.5,372.0,472.5,355.5,470.5" stroke="black" stroke-width="2" fill="none" />
<polyline points="350.5,468.5,366.0,466.5,382.0,462.5,383.5,468.5,391.5,449.0" stroke="black" stroke-width="2" fill="none" />
<polyline points="366.5,453.5,362.5,447.5,354.5,453.5" stroke="black" stroke-width="2" fill="none" />
<polyline points="355.0,433.5,371.0,435.5,376.5,441.5,392.0,443.0,408.0,443.0" stroke="black" stroke-width="2" fill="none" />
<polyline points="429.0,392.5,453.0,408.5,456.5,425.0,474.5,441.0,484.0,457.5,473.5,465.5,461.5,475.5,482.0,489.5" stroke="black" stroke-width="2" fill="none" />
<polyline points="482.0,508.0,465.5,504.0,449.0,501.5,433.0,499.5,417.0,495.5,411.5,483.5,399.5,491.5,400.0,475.5,400.0,457.5,390.5,459.0,407.0,443.0,385.0,431.5,369.0,432.0,353.0,430.0" stroke="black" stroke-width="2" fill="none" />
<polyline points="352.0,426.5,368.5,428.0,384.0,426.0,399.5,426.0,407.5,438.0,423.0,454.0,407.0,462.0,412.5,480.5,400.5,487.0,402.5,477.0,419.0,463.0,443.0,459.0,459.5,479.0" stroke="black" stroke-width="2" fill="none" />
<polyline points="455.0,481.0,447.0,475.0,455.0,472.5,441.0,456.5,427.0,440.0,413.0,424.0,398.5,415.5,382.5,413.5,366.5,413.0,350.5,415.0" stroke="black" stroke-width="2" fill="none" />
<polyline points="316.5,416.0,301.0,402.0,293.5,421.5,276.0,416.0" stroke="black" stroke-width="2" fill="none" />
<polyline points="272.0,413.5,288.0,409.0,298.0,411.5,304.0,421.5,302.5,438.0,308.5,438.0,302.5,454.0,302.5,469.5,292.5,473.5" stroke="black" stroke-width="2" fill="none" />
<polyline points="306.0,459.5,320.0,429.5,316.0,415.5,294.0,403.5" stroke="black" stroke-width="2" fill="none" />
<polyline points="305.0,414.5,295.0,430.5,299.0,450.5" stroke="black" stroke-width="2" fill="none" />
<polyline points="283.5,476.0,287.5,476.0,287.5,460.5,283.5,450.5,281.5,444.5,277.5,424.0,263.5,410.0,247.5,406.5" stroke="black" stroke-width="2" fill="none" />
<polyline points="248.0,414.0,253.5,412.0,249.5,416.0,243.0,432.0,244.5,455.5" stroke="black" stroke-width="2" fill="none" />
<polyline points="236.0,458.5,240.0,442.5,256.0,426.5,270.0,424.0,254.5,430.0,238.5,444.0,234.5,432.0" stroke="black" stroke-width="2" fill="none" />
<polyline points="239.0,428.0,267.0,424.0,265.5,440.5" stroke="black" stroke-width="2" fill="none" />
<polyline points="262.0,425.0,260.0,441.0,268.5,457.0" stroke="black" stroke-width="2" fill="none" />
<polyline points="314.5,463.5,312.5,457.5,288.5,453.5,274.5,460.0,248.5,466.5,256.0,452.5,234.0,434.5,236.5,418.5,234.5,402.5,230.5,414.5" stroke="black" stroke-width="2" fill="none" />
<polyline points="221.0,385.5,229.0,401.5,231.0,418.0,225.5,434.5,230.0,450.5,230.5,467.0,246.5,456.5,248.5,440.5,271.0,446.5,287.5,436.5,297.5,444.5,305.5,434.5,309.5,417.0" stroke="black" stroke-width="2" fill="none" />
<polyline points="336.0,381.5,338.0,397.5,338.0,413.5,338.0,429.5,336.0,446.0,334.0,462.0,329.5,470.0" stroke="black" stroke-width="2" fill="none" />
<polyline points="320.5,496.5,304.0,496.5,288.5,496.5,272.5,494.0,256.5,493.5,240.5,493.0,224.0,488.5" stroke="black" stroke-width="2" fill="none" />
<polyline points="156.5,430.0,140.5,430.0,124.0,428.0,108.0,424.0" stroke="black" stroke-width="2" fill="none" />
<polyline points="106.5,419.5,122.5,409.5,139.0,399.5,155.0,389.5,170.5,385.0,172.0,391.5,156.0,405.5,158.5,420.0,166.5,404.5,182.0,391.0,167.5,403.0,182.0,403.0,190.0,394.5,172.0,410.0,184.5,406.0,192.5,399.5" stroke="black" stroke-width="2" fill="none" />
<polyline points="207.5,387.0,207.5,403.0,205.5,420.0,203.5,436.5,201.5,452.5,205.5,469.0,206.0,484.5" stroke="black" stroke-width="2" fill="none" />
<polyline points="156.0,409.5,140.0,413.5" stroke="black" stroke-width="2" fill="none" />
<polyline points="139.5,410.0,155.5,404.0,171.5,392.5" stroke="black" stroke-width="2" fill="none" />
<polyline points="181.0,380.0,165.0,379.5,145.0,391.5,129.0,399.5,113.0,409.5,97.0,421.5,80.5,451.5,88.5,445.0,98.0,429.5,116.0,414.0,142.5,398.0,181.0,391.5,191.0,375.5,173.5,361.5,157.0,363.5" stroke="black" stroke-width="2" fill="none" />
<polyline points="142.5,385.5,126.5,375.0" stroke="black" stroke-width="2" fill="none" />
<polyline points="124.5,369.0,136.0,385.5,138.0,393.5,112.0,410.0,94.5,426.0,84.5,442.5,78.5,459.0,72.0,475.0" stroke="black" stroke-width="2" fill="none" />
<polyline points="82.5,472.5,78.5,468.5,74.5,451.0,83.0,434.5,86.5,418.5,90.5,402.0,94.5,386.5,100.5,370.0,104.0,354.0,90.0,354.0,74.0,352.0" stroke="black" stroke-width="2" fill="none" />
<polyline points="93.5,355.0,93.5,371.0,87.5,387.0,83.5,403.5,79.5,419.5,73.5,435.5,66.0,452.0,56.0,460.5,74.0,437.0,102.0,395.0" stroke="black" stroke-width="2" fill="none" />
<polyline points="92.0,405.5,107.5,371.5,123.5,370.0,139.5,380.0" stroke="black" stroke-width="2" fill="none" />
<polyline points="110.0,374.0,103.5,390.0,97.0,405.5,91.0,391.5" stroke="black" stroke-width="2" fill="none" />
<polyline points="76.5,411.5,58.5,407.0,40.5,409.0,24.5,419.0,8.5,435.0,12.5,432.5,28.0,416.5,48.0,400.5" stroke="black" stroke-width="2" fill="none" />
<polyline points="41.5,420.0,53.5,404.0,45.5,418.0,49.5,434.0,37.5,449.5,22.0,453.0,12.0,457.5,28.5,453.5,44.5,443.5,54.5,442.0,62.0,416.0,56.0,432.0,48.5,448.0" stroke="black" stroke-width="2" fill="none" />
<polyline points="65.5,461.0,81.5,430.5" stroke="black" stroke-width="2" fill="none" />
<polyline points="84.0,462.0,100.0,458.0,116.5,459.5,132.5,458.0,149.0,458.0,175.0,464.0,191.0,462.5" stroke="black" stroke-width="2" fill="none" />
<polyline points="130.0,486.0,114.0,486.5,98.0,486.5" stroke="black" stroke-width="2" fill="none" />
<polyline points="95.5,481.0,111.5,481.0,128.0,481.0,144.0,481.5" stroke="black" stroke-width="2" fill="none" />
<polyline points="120.0,462.5,104.0,462.0,88.0,461.5" stroke="black" stroke-width="2" fill="none" />
<polyline points="83.5,462.5,99.5,430.5,115.5,433.0,131.5,435.0,147.0,435.0,162.5,434.5" stroke="black" stroke-width="2" fill="none" />
<polyline points="209.5,456.5,209.5,440.5,209.0,424.5,211.0,408.5,213.5,392.0,211.5,376.0" stroke="black" stroke-width="2" fill="none" />
<polyline points="286.5,337.5,302.5,329.5" stroke="black" stroke-width="2" fill="none" />
<polyline points="269.5,303.5,253.5,295.5,238.0,287.0" stroke="black" stroke-width="2" fill="none" />
<polyline points="239.5,284.0,261.5,300.0" stroke="black" stroke-width="2" fill="none" />
<polyline points="269.5,296.5,254.0,291.0,238.0,283.0" stroke="black" stroke-width="2" fill="none" />
<polyline points="250.5,266.5,266.0,268.0,282.0,270.0,298.0,268.0" stroke="black" stroke-width="2" fill="none" />
<polyline points="283.5,251.0,267.5,251.5,251.5,251.5" stroke="black" stroke-width="2" fill="none" />
<polyline points="247.5,251.5,243.5,253.5,246.0,261.5,262.0,261.5,278.0,263.5,294.0,263.5,300.0,259.5" stroke="black" stroke-width="2" fill="none" />
<polyline points="320.0,276.0,314.0,292.0,317.5,308.0,313.0,323.5,310.5,339.5" stroke="black" stroke-width="2" fill="none" />
<polyline points="340.0,362.0,356.5,362.0,372.5,362.0,388.5,362.0,404.0,362.0,420.0,363.5" stroke="black" stroke-width="2" fill="none" />
<polyline points="392.0,325.0,406.0,309.0,390.5,305.0,374.5,297.0" stroke="black" stroke-width="2" fill="none" />
<polyline points="375.0,296.0,377.0,311.5,381.0,327.0,393.0,323.0" stroke="black" stroke-width="2" fill="none" />
<polyline points="396.0,306.0,386.5,326.0,384.0,306.0,396.5,296.0,390.0,279.5,402.0,263.5,406.0,259.5,390.0,279.0" stroke="black" stroke-width="2" fill="none" />
<polyline points="388.0,265.0,372.0,269.5" stroke="black" stroke-width="2" fill="none" />
<polyline points="360.5,299.0,376.5,279.0,381.0,274.5,367.5,290.5,360.0,306.5,362.0,322.5,362.5,338.5" stroke="black" stroke-width="2" fill="none" />
<polyline points="357.0,338.5,355.0,322.5,357.0,306.5,363.0,290.0,375.0,274.0,373.0,275.5,357.0,297.5" stroke="black" stroke-width="2" fill="none" />
<polyline points="321.0,286.0,321.0,302.0,321.0,317.5,316.5,333.5" stroke="black" stroke-width="2" fill="none" />
<polyline points="331.5,374.0,331.0,390.0,333.0,405.5,331.0,421.5,331.0,437.5,328.5,453.5,312.5,463.5" stroke="black" stroke-width="2" fill="none" />
<polyline points="345.5,366.0,345.5,382.0,345.5,398.5,355.5,414.5,360.0,411.0,376.0,413.0,390.0,403.5,392.0,411.5,408.0,417.0,424.0,431.0" stroke="black" stroke-width="2" fill="none" />
<polyline points="395.0,365.5,379.0,365.5,363.0,365.5,347.0,365.5" stroke="black" stroke-width="2" fill="none" />
<polyline points="308.0,425.5,300.0,457.5,296.0,465.0,279.5,469.5,265.0,469.5,257.5,471.5,241.5,469.5,217.5,459.5,195.5,459.5,197.5,444.0,199.5,428.0,201.5,411.5,203.5,395.5,208.0,379.5,208.0,363.5,204.5,347.5,213.0,331.5,213.0,316.0,213.0,300.0,213.0,284.5" stroke="black" stroke-width="2" fill="none" />
<polyline points="200.5,269.0,184.5,273.0,156.5,273.0,140.5,261.5,124.5,249.5,108.5,263.5" stroke="black" stroke-width="2" fill="none" />
<polyline points="118.0,254.5,104.0,273.0,91.5,289.0,85.5,304.5,79.5,320.5,71.5,336.0,70.0,328.0,85.5,288.0,102.0,264.0,118.0,244.0,124.0,234.0,140.0,234.5,156.0,234.0,171.5,234.0" stroke="black" stroke-width="2" fill="none" />
<polyline points="166.0,242.5,162.0,238.5,146.0,238.5,130.0,238.5,114.0,238.0" stroke="black" stroke-width="2" fill="none" />
<polyline points="116.0,243.5,104.5,259.5,94.5,275.5,86.5,292.0,78.5,308.0,74.5,324.0,66.5,340.0,70.5,350.0,86.0,347.5,101.5,351.5,119.5,353.0" stroke="black" stroke-width="2" fill="none" />
<polyline points="106.0,370.5,100.0,386.0,93.5,402.5,89.5,380.5" stroke="black" stroke-width="2" fill="none" />
<polyline points="42.0,332.5,25.5,333.0,15.5,329.0,12.0,317.0,12.0,320.5" stroke="black" stroke-width="2" fill="none" />
<polyline points="15.5,328.5,31.5,330.5" stroke="black" stroke-width="2" fill="none" />
<polyline points="18.0,358.5,2.0,358.5" stroke="black" stroke-width="2" fill="none" />
<polyline points="1.0,353.5,17.5,354.0" stroke="black" stroke-width="2" fill="none" />
<polyline points="19.0,400.5,3.5,406.5,7.5,418.5,12.0,407.0,6.0,393.0,18.5,387.0,2.0,395.0,2.0,401.0" stroke="black" stroke-width="2" fill="none" />
<polyline points="32.5,421.0,16.5,437.0,28.5,425.0,44.5,413.5" stroke="black" stroke-width="2" fill="none" />
<polyline points="143.5,329.5,133.5,313.5" stroke="black" stroke-width="2" fill="none" />
<polyline points="130.0,307.5,134.0,323.5,154.0,337.0,170.0,339.0,186.0,337.0" stroke="black" stroke-width="2" fill="none" />
<polyline points="193.5,333.5,177.5,333.5,161.0,333.5,144.5,331.5,128.5,307.5" stroke="black" stroke-width="2" fill="none" />
<polyline points="138.5,266.0,122.5,255.5" stroke="black" stroke-width="2" fill="none" />
<polyline points="123.0,256.5,145.0,272.5" stroke="black" stroke-width="2" fill="none" />
<polyline points="141.0,260.5,120.5,244.5" stroke="black" stroke-width="2" fill="none" />
<polyline points="61.5,261.5,46.0,263.5" stroke="black" stroke-width="2" fill="none" />
<polyline points="43.0,245.0,59.0,247.5,75.0,247.5" stroke="black" stroke-width="2" fill="none" />
<polyline points="87.0,253.5,69.0,289.5,53.5,329.5,65.0,317.5,71.0,302.0,77.0,286.5,78.5,277.0,86.5,265.0,88.0,253.5,91.5,253.0,85.0,243.0,69.0,243.0,52.5,242.5,36.0,243.0" stroke="black" stroke-width="2" fill="none" />
<polyline points="3.0,276.0,19.0,273.5,35.0,273.5,51.0,273.5,67.0,273.5,76.5,252.0,72.5,268.5,68.0,292.5,61.5,308.5,55.0,324.5,57.0,332.5,72.5,290.5,96.5,278.0,113.0,273.5,129.5,277.5,142.0,277.5,158.0,277.5,174.0,271.5,190.0,269.5,204.0,285.5,204.5,301.5,202.5,317.5" stroke="black" stroke-width="2" fill="none" />
<polyline points="214.5,237.0,216.5,253.5,216.0,269.5,216.0,285.5,216.0,302.0,216.0,318.0,215.5,334.0,213.5,351.5,215.5,367.5,217.0,383.5,217.0,399.5,215.0,415.5,215.0,432.0,215.5,448.5,220.0,464.5,210.5,485.0,228.5,492.5,234.5,488.5,251.0,490.5,267.5,490.5,283.5,490.5,299.5,490.5,315.5,491.0,331.5,493.0,341.0,495.0" stroke="black" stroke-width="2" fill="none" />
<polyline points="507.5,509.0,505.5,504.5,511.5,496.5,501.5,484.5,493.0,472.0,485.0,452.0,479.5,446.0,479.5,429.5,470.0,413.5,464.0,397.0,476.0,381.0" stroke="black" stroke-width="2" fill="none" />
<polyline points="424.0,227.5,407.5,223.5,391.0,221.0" stroke="black" stroke-width="2" fill="none" />
<polyline points="385.0,221.5,401.0,217.5,417.5,217.5" stroke="black" stroke-width="2" fill="none" />
<polyline points="397.5,181.0,413.0,181.0,429.0,181.0,445.0,181.5,460.5,181.5,477.0,181.5,493.0,182.0,509.0,182.0" stroke="black" stroke-width="2" fill="none" />
<polyline points="425.0,102.0,423.5,98.0,407.5,96.0,392.0,98.0,388.0,86.0" stroke="black" stroke-width="2" fill="none" />
<polyline points="385.5,82.5,401.5,80.5,417.5,77.0,437.5,93.0,453.5,109.0,453.5,133.0,477.5,149.0" stroke="black" stroke-width="2" fill="none" />
<polyline points="486.0,10.0,502.0,10.5" stroke="black" stroke-width="2" fill="none" />
<polyline points="493.0,4.0,477.0,10.0,461.0,10.0,445.0,10.5,429.0,10.5,413.0,10.5" stroke="black" stroke-width="2" fill="none" />
<polyline points="437.0,4.0,421.0,4.0,404.5,9.5,388.5,9.5,372.5,9.0,356.5,9.0,340.0,9.0,324.5,9.0,308.5,9.5,292.5,9.5,276.5,9.5,261.0,9.5,244.5,10.0,228.5,10.0,212.0,8.0,196.0,8.0" stroke="black" stroke-width="2" fill="none" />
<polyline points="142.0,3.5,126.0,3.5,110.0,3.0,93.5,3.5,77.0,3.5,61.5,3.5,45.5,9.5,35.5,9.5,17.5,7.5,1.5,8.0" stroke="black" stroke-width="2" fill="none" />
<polyline points="0.5,15.0,16.5,14.5,33.0,14.5,49.5,14.5,65.5,14.5,81.5,14.5,98.0,14.5,114.0,14.5,130.0,14.5,146.0,15.0,162.0,15.0,178.0,14.5,194.5,14.0,210.5,14.0,227.0,13.5,243.0,13.5,259.5,13.5,275.5,13.5,291.5,13.5,307.5,13.5,324.0,14.0,339.5,13.5,355.0,14.0,370.5,14.0,386.5,14.5,402.0,14.5,418.0,15.0,433.0,15.0,449.0,15.0,465.0,15.0,481.0,15.5,497.0,15.0,508.5,11.0" stroke="black" stroke-width="2" fill="none" />
<polyline points="363.0,92.0,346.5,92.0" stroke="black" stroke-width="2" fill="none" />
<polyline points="335.5,75.5,339.5,91.5,341.5,107.5,345.5,123.0,347.5,139.0,359.5,154.5,376.0,156.5,392.5,154.0,409.0,144.0,425.5,146.0,442.0,138.0,458.0,148.0" stroke="black" stroke-width="2" fill="none" />
<polyline points="350.0,225.5,333.5,233.5" stroke="black" stroke-width="2" fill="none" />
<polyline points="333.5,233.0,331.5,249.0,341.5,249.5,343.5,265.5,343.5,282.0,343.5,298.0,343.5,314.0,341.5,329.5,343.5,345.5,339.5,366.0,339.5,382.0,341.5,398.0,344.0,414.0,346.0,430.0,348.0,446.5,348.0,462.5,346.0,478.5,350.5,478.0,350.5,494.0,344.5,509.5,350.0,510.0" stroke="black" stroke-width="2" fill="none" />
<polyline points="337.0,338.5,337.0,322.5,337.0,306.0,335.0,289.5,333.0,273.5,329.0,258.0" stroke="black" stroke-width="2" fill="none" />
<polyline points="333.5,142.5,333.5,126.5,334.0,110.5,330.0,94.5,330.0,78.5,326.0,74.5,328.0,58.0,324.0,58.0,332.0,55.5,324.0,45.5" stroke="black" stroke-width="2" fill="none" />
<polyline points="335.5,66.0,317.0,86.0,301.5,80.0,290.0,80.0,274.5,68.5,258.5,66.5,242.5,69.0" stroke="black" stroke-width="2" fill="none" />
<polyline points="243.5,65.0,243.5,81.0,259.5,77.0,269.5,85.5,234.0,90.0,226.0,106.5,222.0,122.5,218.0,138.5" stroke="black" stroke-width="2" fill="none" />
<polyline points="228.5,136.0,244.5,138.0" stroke="black" stroke-width="2" fill="none" />
<polyline points="248.5,147.0,232.5,139.0" stroke="black" stroke-width="2" fill="none" />
<polyline points="235.5,139.5,227.5,123.5" stroke="black" stroke-width="2" fill="none" />
<polyline points="230.5,117.5,247.0,115.5,263.0,129.5,279.0,131.5" stroke="black" stroke-width="2" fill="none" />
<polyline points="282.0,145.5,265.5,145.5,261.0,131.5,241.0,116.0" stroke="black" stroke-width="2" fill="none" />
<polyline points="204.0,142.0,210.0,126.0,194.0,117.5,178.0,131.5,162.0,133.5,146.0,139.5,133.5,141.5,152.0,133.0,160.0,111.0,134.0,101.0,131.5,84.5,131.5,68.5,128.0,53.0,128.0,45.0" stroke="black" stroke-width="2" fill="none" />
<polyline points="119.0,65.5,103.0,81.5,97.5,97.5,115.5,81.5" stroke="black" stroke-width="2" fill="none" />
<polyline points="116.0,74.5,93.5,80.0,89.5,95.5,83.5,111.5,78.0,128.0,72.0,144.0" stroke="black" stroke-width="2" fill="none" />
<polyline points="89.5,149.5,105.5,145.5" stroke="black" stroke-width="2" fill="none" />
<polyline points="93.5,149.5,109.5,151.5,125.5,149.5" stroke="black" stroke-width="2" fill="none" />
<polyline points="132.5,125.5,122.5,125.0,113.0,130.5,123.0,128.5,125.5,116.5,107.5,116.5,125.5,100.5,105.5,120.5,105.5,125.0" stroke="black" stroke-width="2" fill="none" />
<polyline points="102.5,127.5,118.5,143.5" stroke="black" stroke-width="2" fill="none" />
<polyline points="92.5,141.5,96.5,124.0,112.0,96.0,127.5,76.0,149.5,78.0,165.0,78.0,183.0,84.0,199.0,94.0" stroke="black" stroke-width="2" fill="none" />
<polyline points="195.5,98.0,179.5,104.0,163.5,107.5,153.5,122.0,153.0,126.0,134.5,138.5,128.0,148.5,128.5,132.5,156.5,123.0,175.0,107.0,204.5,95.0,187.0,79.0" stroke="black" stroke-width="2" fill="none" />
<polyline points="179.0,80.5,193.0,100.5,169.0,116.0,147.0,131.5,163.0,121.5,179.0,109.0" stroke="black" stroke-width="2" fill="none" />
<polyline points="169.0,99.5,152.5,104.0,136.5,98.5,121.0,102.5" stroke="black" stroke-width="2" fill="none" />
<polyline points="124.5,107.5,114.0,123.5,100.0,127.5,112.0,143.0" stroke="black" stroke-width="2" fill="none" />
<polyline points="114.0,113.0,130.0,110.5,146.5,122.0" stroke="black" stroke-width="2" fill="none" />
<polyline points="157.0,140.0,173.0,148.0,189.0,150.0" stroke="black" stroke-width="2" fill="none" />
<polyline points="203.5,142.0,187.5,144.5,171.5,148.5,177.5,132.5,195.5,116.5" stroke="black" stroke-width="2" fill="none" />
<polyline points="132.5,124.5,127.0,108.5" stroke="black" stroke-width="2" fill="none" />
<polyline points="135.5,96.5,137.5,80.5" stroke="black" stroke-width="2" fill="none" />
<polyline points="120.0,71.0,112.0,87.5,100.0,103.5,86.0,119.5,90.0,125.5,80.0,141.5,72.0,141.5,88.5,99.5" stroke="black" stroke-width="2" fill="none" />
<polyline points="82.0,92.0,66.5,96.0,48.5,94.0,32.5,94.0,16.5,102.0,46.5,94.0,30.5,99.5,14.5,109.5" stroke="black" stroke-width="2" fill="none" />
<polyline points="2.5,140.5,4.5,134.0,20.5,139.5,36.5,127.5,52.0,117.0,54.0,103.5,39.5,119.5,29.5,135.5,35.5,122.0,52.0,110.0,54.0,126.0" stroke="black" stroke-width="2" fill="none" />
<polyline points="45.5,140.0,43.5,125.5,57.0,110.0,59.0,102.0" stroke="black" stroke-width="2" fill="none" />
<polyline points="75.0,78.5,58.5,78.5,42.5,78.5,18.5,94.5,14.5,104.5,20.5,92.5,34.5,77.0" stroke="black" stroke-width="2" fill="none" />
<polyline points="30.0,71.5,16.0,87.5,3.5,103.5,3.5,95.5,19.5,83.5,36.0,72.0,40.0,77.5,56.0,73.5,72.0,74.0,94.0,76.0" stroke="black" stroke-width="2" fill="none" />
<polyline points="92.0,73.5,86.0,89.5,80.0,106.0,74.0,122.0,68.0,137.5,54.5,141.5,60.0,149.5,76.0,115.5" stroke="black" stroke-width="2" fill="none" />
<polyline points="60.0,10.0,76.0,10.0,92.0,10.0,108.0,10.0,124.0,10.0,139.5,10.0,156.0,10.0,172.0,3.5,176.0,7.5,192.5,7.0,208.5,3.0,224.0,3.0,240.0,3.5,256.0,3.5,272.0,3.5,288.0,3.5,304.0,3.5,320.5,4.0,336.5,4.5,352.5,4.5,368.0,4.5" stroke="black" stroke-width="2" fill="none" />
<polyline points="339.0,68.0,343.5,84.0,347.0,97.5,349.5,113.5,357.5,129.5,354.0,145.5,362.0,149.5,378.5,150.0,394.5,140.0,411.0,138.5,429.0,140.5,445.0,144.5,465.0,154.5" stroke="black" stroke-width="2" fill="none" />
<polyline points="307.5,113.0,299.5,117.0,296.0,127.0,304.0,111.0" stroke="black" stroke-width="2" fill="none" />
<polyline points="208.5,233.5,208.5,249.5,209.5,265.5,212.0,281.5,208.0,297.5,206.0,314.0,204.0,330.0,210.5,349.5" stroke="black" stroke-width="2" fill="none" />
<polyline points="72.0,275.0,79.5,259.0,73.5,271.5,57.5,279.5,42.0,279.5,26.0,281.5,10.0,282.0,2.0,286.5" stroke="black" stroke-width="2" fill="none" />
</svg>